<?xml version="1.0" encoding="UTF-8" standalone="no"?>
<!DOCTYPE svg PUBLIC "-//W3C//DTD SVG 1.1//EN"
 "http://www.w3.org/Graphics/SVG/1.1/DTD/svg11.dtd">
<!-- Generated by graphviz version 2.43.0 (0)
 -->
<!-- Title: AddToInventory Pages: 1 -->
<svg width="675pt" height="218pt"
 viewBox="0.00 0.00 675.18 218.00" xmlns="http://www.w3.org/2000/svg" xmlns:xlink="http://www.w3.org/1999/xlink">
<g id="graph0" class="graph" transform="scale(1 1) rotate(0) translate(4 214)">
<title>AddToInventory</title>
<polygon fill="white" stroke="transparent" points="-4,4 -4,-214 671.18,-214 671.18,4 -4,4"/>
<!-- dra/AddToInventory -->
<g id="node1" class="node">
<title>dra/AddToInventory</title>
<ellipse fill="red" stroke="black" cx="325.69" cy="-105" rx="102.88" ry="18"/>
<text text-anchor="middle" x="325.69" y="-101.3" font-family="Times,serif" font-size="14.00">dra/AddToInventory</text>
</g>
<!-- dra/GetEquipOrder -->
<g id="node2" class="node">
<title>dra/GetEquipOrder</title>
<g id="a_node2"><a xlink:href="GetEquipOrder.svg" xlink:title="dra/GetEquipOrder">
<ellipse fill="green" stroke="black" cx="216.69" cy="-18" rx="100.98" ry="18"/>
<text text-anchor="middle" x="216.69" y="-14.3" font-family="Times,serif" font-size="14.00">dra/GetEquipOrder</text>
</a>
</g>
</g>
<!-- dra/AddToInventory&#45;&gt;dra/GetEquipOrder -->
<g id="edge1" class="edge">
<title>dra/AddToInventory&#45;&gt;dra/GetEquipOrder</title>
<path fill="none" stroke="black" d="M304.16,-87.21C287.58,-74.28 264.5,-56.28 246.21,-42.02"/>
<polygon fill="black" stroke="black" points="248.22,-39.15 238.18,-35.76 243.91,-44.67 248.22,-39.15"/>
<text text-anchor="middle" x="283.69" y="-57.8" font-family="Times,serif" font-size="14.00">1</text>
</g>
<!-- dra/GetEquipCount -->
<g id="node3" class="node">
<title>dra/GetEquipCount</title>
<g id="a_node3"><a xlink:href="GetEquipCount.svg" xlink:title="dra/GetEquipCount">
<ellipse fill="green" stroke="black" cx="435.69" cy="-18" rx="100.98" ry="18"/>
<text text-anchor="middle" x="435.69" y="-14.3" font-family="Times,serif" font-size="14.00">dra/GetEquipCount</text>
</a>
</g>
</g>
<!-- dra/AddToInventory&#45;&gt;dra/GetEquipCount -->
<g id="edge2" class="edge">
<title>dra/AddToInventory&#45;&gt;dra/GetEquipCount</title>
<path fill="none" stroke="black" d="M347.42,-87.21C364.15,-74.28 387.44,-56.28 405.9,-42.02"/>
<polygon fill="black" stroke="black" points="408.23,-44.64 414,-35.76 403.95,-39.1 408.23,-44.64"/>
<text text-anchor="middle" x="392.69" y="-57.8" font-family="Times,serif" font-size="14.00">1</text>
</g>
<!-- dra/func_800FB23C -->
<g id="node4" class="node">
<title>dra/func_800FB23C</title>
<g id="a_node4"><a xlink:href="func_800FB23C.svg" xlink:title="dra/func_800FB23C">
<ellipse fill="red" stroke="black" cx="102.69" cy="-192" rx="102.88" ry="18"/>
<text text-anchor="middle" x="102.69" y="-188.3" font-family="Times,serif" font-size="14.00">dra/func_800FB23C</text>
</a>
</g>
</g>
<!-- dra/func_800FB23C&#45;&gt;dra/AddToInventory -->
<g id="edge3" class="edge">
<title>dra/func_800FB23C&#45;&gt;dra/AddToInventory</title>
<path fill="none" stroke="black" d="M143.59,-175.41C180.65,-161.29 235.38,-140.43 275.15,-125.26"/>
<polygon fill="black" stroke="black" points="276.57,-128.47 284.67,-121.64 274.08,-121.93 276.57,-128.47"/>
<text text-anchor="middle" x="232.69" y="-144.8" font-family="Times,serif" font-size="14.00">2</text>
</g>
<!-- dra/func_800FBC24 -->
<g id="node5" class="node">
<title>dra/func_800FBC24</title>
<g id="a_node5"><a xlink:href="func_800FBC24.svg" xlink:title="dra/func_800FBC24">
<ellipse fill="red" stroke="black" cx="325.69" cy="-192" rx="102.88" ry="18"/>
<text text-anchor="middle" x="325.69" y="-188.3" font-family="Times,serif" font-size="14.00">dra/func_800FBC24</text>
</a>
</g>
</g>
<!-- dra/func_800FBC24&#45;&gt;dra/AddToInventory -->
<g id="edge4" class="edge">
<title>dra/func_800FBC24&#45;&gt;dra/AddToInventory</title>
<path fill="none" stroke="black" d="M325.69,-173.8C325.69,-162.16 325.69,-146.55 325.69,-133.24"/>
<polygon fill="black" stroke="black" points="329.19,-133.18 325.69,-123.18 322.19,-133.18 329.19,-133.18"/>
<text text-anchor="middle" x="330.69" y="-144.8" font-family="Times,serif" font-size="14.00">2</text>
</g>
<!-- dra/InitStatsAndGear -->
<g id="node6" class="node">
<title>dra/InitStatsAndGear</title>
<g id="a_node6"><a xlink:href="InitStatsAndGear.svg" xlink:title="dra/InitStatsAndGear">
<ellipse fill="green" stroke="black" cx="556.69" cy="-192" rx="110.48" ry="18"/>
<text text-anchor="middle" x="556.69" y="-188.3" font-family="Times,serif" font-size="14.00">dra/InitStatsAndGear</text>
</a>
</g>
</g>
<!-- dra/InitStatsAndGear&#45;&gt;dra/AddToInventory -->
<g id="edge5" class="edge">
<title>dra/InitStatsAndGear&#45;&gt;dra/AddToInventory</title>
<path fill="none" stroke="black" d="M514.05,-175.31C475.43,-161.1 418.44,-140.13 377.27,-124.98"/>
<polygon fill="black" stroke="black" points="378.28,-121.62 367.69,-121.45 375.87,-128.19 378.28,-121.62"/>
<text text-anchor="middle" x="465.19" y="-144.8" font-family="Times,serif" font-size="14.00">41</text>
</g>
</g>
</svg>
