<?xml version="1.0" encoding="UTF-8" standalone="no"?>
<!DOCTYPE svg PUBLIC "-//W3C//DTD SVG 1.1//EN"
 "http://www.w3.org/Graphics/SVG/1.1/DTD/svg11.dtd">
<!-- Generated by graphviz version 2.43.0 (0)
 -->
<!-- Title: AlucardHandleDamage Pages: 1 -->
<svg width="4423pt" height="218pt"
 viewBox="0.00 0.00 4423.08 218.00" xmlns="http://www.w3.org/2000/svg" xmlns:xlink="http://www.w3.org/1999/xlink">
<g id="graph0" class="graph" transform="scale(1 1) rotate(0) translate(4 214)">
<title>AlucardHandleDamage</title>
<polygon fill="white" stroke="transparent" points="-4,4 -4,-214 4419.08,-214 4419.08,4 -4,4"/>
<!-- dra/AlucardHandleDamage -->
<g id="node1" class="node">
<title>dra/AlucardHandleDamage</title>
<ellipse fill="red" stroke="black" cx="2092.69" cy="-105" rx="135.68" ry="18"/>
<text text-anchor="middle" x="2092.69" y="-101.3" font-family="Times,serif" font-size="14.00">dra/AlucardHandleDamage</text>
</g>
<!-- dra/func_80113EE0 -->
<g id="node2" class="node">
<title>dra/func_80113EE0</title>
<g id="a_node2"><a xlink:href="func_80113EE0.svg" xlink:title="dra/func_80113EE0">
<ellipse fill="green" stroke="black" cx="102.69" cy="-18" rx="102.88" ry="18"/>
<text text-anchor="middle" x="102.69" y="-14.3" font-family="Times,serif" font-size="14.00">dra/func_80113EE0</text>
</a>
</g>
</g>
<!-- dra/AlucardHandleDamage&#45;&gt;dra/func_80113EE0 -->
<g id="edge1" class="edge">
<title>dra/AlucardHandleDamage&#45;&gt;dra/func_80113EE0</title>
<path fill="none" stroke="black" d="M1957.02,-103.94C1691.81,-103.13 1086.11,-97.95 577.69,-69 415.95,-59.79 375.51,-55.5 214.69,-36 205.27,-34.86 195.43,-33.54 185.65,-32.16"/>
<polygon fill="black" stroke="black" points="185.9,-28.66 175.5,-30.7 184.9,-35.59 185.9,-28.66"/>
<text text-anchor="middle" x="582.69" y="-57.8" font-family="Times,serif" font-size="14.00">1</text>
</g>
<!-- dra/func_80113F7C -->
<g id="node3" class="node">
<title>dra/func_80113F7C</title>
<g id="a_node3"><a xlink:href="func_80113F7C.svg" xlink:title="dra/func_80113F7C">
<ellipse fill="green" stroke="black" cx="325.69" cy="-18" rx="102.08" ry="18"/>
<text text-anchor="middle" x="325.69" y="-14.3" font-family="Times,serif" font-size="14.00">dra/func_80113F7C</text>
</a>
</g>
</g>
<!-- dra/AlucardHandleDamage&#45;&gt;dra/func_80113F7C -->
<g id="edge2" class="edge">
<title>dra/AlucardHandleDamage&#45;&gt;dra/func_80113F7C</title>
<path fill="none" stroke="black" d="M1957.14,-103.45C1719.07,-101.79 1210.36,-95.19 781.69,-69 627.94,-59.61 589.55,-55 436.69,-36 427.43,-34.85 417.75,-33.53 408.13,-32.16"/>
<polygon fill="black" stroke="black" points="408.55,-28.68 398.15,-30.7 407.55,-35.61 408.55,-28.68"/>
<text text-anchor="middle" x="786.69" y="-57.8" font-family="Times,serif" font-size="14.00">2</text>
</g>
<!-- dra/func_8010E3B8 -->
<g id="node4" class="node">
<title>dra/func_8010E3B8</title>
<g id="a_node4"><a xlink:href="func_8010E3B8.svg" xlink:title="dra/func_8010E3B8">
<ellipse fill="green" stroke="black" cx="548.69" cy="-18" rx="102.88" ry="18"/>
<text text-anchor="middle" x="548.69" y="-14.3" font-family="Times,serif" font-size="14.00">dra/func_8010E3B8</text>
</a>
</g>
</g>
<!-- dra/AlucardHandleDamage&#45;&gt;dra/func_8010E3B8 -->
<g id="edge3" class="edge">
<title>dra/AlucardHandleDamage&#45;&gt;dra/func_8010E3B8</title>
<path fill="none" stroke="black" d="M1956.76,-103.88C1739.89,-102.8 1302.36,-96.94 932.69,-69 828.27,-61.11 708.77,-44.31 631.19,-32.36"/>
<polygon fill="black" stroke="black" points="631.41,-28.86 621,-30.79 630.34,-35.78 631.41,-28.86"/>
<text text-anchor="middle" x="937.69" y="-57.8" font-family="Times,serif" font-size="14.00">7</text>
</g>
<!-- dra/PlaySfx -->
<g id="node5" class="node">
<title>dra/PlaySfx</title>
<g id="a_node5"><a xlink:href="PlaySfx.svg" xlink:title="dra/PlaySfx">
<ellipse fill="green" stroke="black" cx="733.69" cy="-18" rx="64.19" ry="18"/>
<text text-anchor="middle" x="733.69" y="-14.3" font-family="Times,serif" font-size="14.00">dra/PlaySfx</text>
</a>
</g>
</g>
<!-- dra/AlucardHandleDamage&#45;&gt;dra/PlaySfx -->
<g id="edge4" class="edge">
<title>dra/AlucardHandleDamage&#45;&gt;dra/PlaySfx</title>
<path fill="none" stroke="black" d="M1960.38,-100.81C1784.49,-96.12 1464.02,-86.04 1190.69,-69 1019.73,-58.34 975.87,-62.83 806.69,-36 801.01,-35.1 795.11,-34 789.25,-32.8"/>
<polygon fill="black" stroke="black" points="789.96,-29.38 779.44,-30.71 788.49,-36.22 789.96,-29.38"/>
<text text-anchor="middle" x="1195.69" y="-57.8" font-family="Times,serif" font-size="14.00">8</text>
</g>
<!-- dra/func_8011AAFC -->
<g id="node6" class="node">
<title>dra/func_8011AAFC</title>
<g id="a_node6"><a xlink:href="func_8011AAFC.svg" xlink:title="dra/func_8011AAFC">
<ellipse fill="green" stroke="black" cx="918.69" cy="-18" rx="102.88" ry="18"/>
<text text-anchor="middle" x="918.69" y="-14.3" font-family="Times,serif" font-size="14.00">dra/func_8011AAFC</text>
</a>
</g>
</g>
<!-- dra/AlucardHandleDamage&#45;&gt;dra/func_8011AAFC -->
<g id="edge5" class="edge">
<title>dra/AlucardHandleDamage&#45;&gt;dra/func_8011AAFC</title>
<path fill="none" stroke="black" d="M1960.59,-100.65C1759.27,-94.39 1363.9,-77.57 1030.69,-36 1021.35,-34.83 1011.58,-33.51 1001.88,-32.13"/>
<polygon fill="black" stroke="black" points="1002.21,-28.64 991.81,-30.67 1001.21,-35.57 1002.21,-28.64"/>
<text text-anchor="middle" x="1361.19" y="-57.8" font-family="Times,serif" font-size="14.00">22</text>
</g>
<!-- dra/D_8017A010 -->
<g id="node7" class="node">
<title>dra/D_8017A010</title>
<g id="a_node7"><a xlink:href="D_8017A010.svg" xlink:title="dra/D_8017A010">
<ellipse fill="lightblue" stroke="black" cx="1127.69" cy="-18" rx="88.28" ry="18"/>
<text text-anchor="middle" x="1127.69" y="-14.3" font-family="Times,serif" font-size="14.00">dra/D_8017A010</text>
</a>
</g>
</g>
<!-- dra/AlucardHandleDamage&#45;&gt;dra/D_8017A010 -->
<g id="edge6" class="edge">
<title>dra/AlucardHandleDamage&#45;&gt;dra/D_8017A010</title>
<path fill="none" stroke="black" d="M1964.57,-98.89C1794.75,-90.99 1486.08,-72.73 1224.69,-36 1216.95,-34.91 1208.89,-33.67 1200.86,-32.37"/>
<polygon fill="black" stroke="black" points="1201.17,-28.87 1190.73,-30.69 1200.02,-35.78 1201.17,-28.87"/>
<text text-anchor="middle" x="1515.69" y="-57.8" font-family="Times,serif" font-size="14.00">1</text>
</g>
<!-- dra/func_80111CC0 -->
<g id="node8" class="node">
<title>dra/func_80111CC0</title>
<g id="a_node8"><a xlink:href="func_80111CC0.svg" xlink:title="dra/func_80111CC0">
<ellipse fill="green" stroke="black" cx="1336.69" cy="-18" rx="102.88" ry="18"/>
<text text-anchor="middle" x="1336.69" y="-14.3" font-family="Times,serif" font-size="14.00">dra/func_80111CC0</text>
</a>
</g>
</g>
<!-- dra/AlucardHandleDamage&#45;&gt;dra/func_80111CC0 -->
<g id="edge7" class="edge">
<title>dra/AlucardHandleDamage&#45;&gt;dra/func_80111CC0</title>
<path fill="none" stroke="black" d="M1971.33,-96.84C1883.05,-91.02 1760.75,-81.69 1653.69,-69 1572.16,-59.33 1479.45,-44.23 1415.45,-33.15"/>
<polygon fill="black" stroke="black" points="1415.88,-29.67 1405.43,-31.41 1414.68,-36.57 1415.88,-29.67"/>
<text text-anchor="middle" x="1658.69" y="-57.8" font-family="Times,serif" font-size="14.00">1</text>
</g>
<!-- dra/rand -->
<g id="node9" class="node">
<title>dra/rand</title>
<g id="a_node9"><a xlink:href="rand.svg" xlink:title="dra/rand">
<ellipse fill="lightblue" stroke="black" cx="1507.69" cy="-18" rx="50.89" ry="18"/>
<text text-anchor="middle" x="1507.69" y="-14.3" font-family="Times,serif" font-size="14.00">dra/rand</text>
</a>
</g>
</g>
<!-- dra/AlucardHandleDamage&#45;&gt;dra/rand -->
<g id="edge8" class="edge">
<title>dra/AlucardHandleDamage&#45;&gt;dra/rand</title>
<path fill="none" stroke="black" d="M1982.31,-94.47C1875.53,-84.14 1709.49,-65.11 1567.69,-36 1563.34,-35.11 1558.84,-34.06 1554.35,-32.94"/>
<polygon fill="black" stroke="black" points="1555.17,-29.54 1544.61,-30.38 1553.39,-36.31 1555.17,-29.54"/>
<text text-anchor="middle" x="1759.69" y="-57.8" font-family="Times,serif" font-size="14.00">5</text>
</g>
<!-- dra/func_80113E68 -->
<g id="node10" class="node">
<title>dra/func_80113E68</title>
<g id="a_node10"><a xlink:href="func_80113E68.svg" xlink:title="dra/func_80113E68">
<ellipse fill="green" stroke="black" cx="1677.69" cy="-18" rx="101.28" ry="18"/>
<text text-anchor="middle" x="1677.69" y="-14.3" font-family="Times,serif" font-size="14.00">dra/func_80113E68</text>
</a>
</g>
</g>
<!-- dra/AlucardHandleDamage&#45;&gt;dra/func_80113E68 -->
<g id="edge9" class="edge">
<title>dra/AlucardHandleDamage&#45;&gt;dra/func_80113E68</title>
<path fill="none" stroke="black" d="M2022.29,-89.58C1946.93,-74.15 1827.91,-49.77 1751.33,-34.08"/>
<polygon fill="black" stroke="black" points="1751.78,-30.6 1741.28,-32.02 1750.37,-37.46 1751.78,-30.6"/>
<text text-anchor="middle" x="1915.69" y="-57.8" font-family="Times,serif" font-size="14.00">3</text>
</g>
<!-- dra/FntPrint -->
<g id="node11" class="node">
<title>dra/FntPrint</title>
<g id="a_node11"><a xlink:href="FntPrint.svg" xlink:title="dra/FntPrint">
<ellipse fill="lightblue" stroke="black" cx="1865.69" cy="-18" rx="68.79" ry="18"/>
<text text-anchor="middle" x="1865.69" y="-14.3" font-family="Times,serif" font-size="14.00">dra/FntPrint</text>
</a>
</g>
</g>
<!-- dra/AlucardHandleDamage&#45;&gt;dra/FntPrint -->
<g id="edge10" class="edge">
<title>dra/AlucardHandleDamage&#45;&gt;dra/FntPrint</title>
<path fill="none" stroke="black" d="M2049.73,-87.91C2010.78,-73.33 1953.47,-51.87 1913.18,-36.78"/>
<polygon fill="black" stroke="black" points="1914.17,-33.42 1903.58,-33.19 1911.72,-39.97 1914.17,-33.42"/>
<text text-anchor="middle" x="1998.69" y="-57.8" font-family="Times,serif" font-size="14.00">1</text>
</g>
<!-- dra/GetStatusAilmentTimer -->
<g id="node12" class="node">
<title>dra/GetStatusAilmentTimer</title>
<g id="a_node12"><a xlink:href="GetStatusAilmentTimer.svg" xlink:title="dra/GetStatusAilmentTimer">
<ellipse fill="green" stroke="black" cx="2092.69" cy="-18" rx="139.98" ry="18"/>
<text text-anchor="middle" x="2092.69" y="-14.3" font-family="Times,serif" font-size="14.00">dra/GetStatusAilmentTimer</text>
</a>
</g>
</g>
<!-- dra/AlucardHandleDamage&#45;&gt;dra/GetStatusAilmentTimer -->
<g id="edge11" class="edge">
<title>dra/AlucardHandleDamage&#45;&gt;dra/GetStatusAilmentTimer</title>
<path fill="none" stroke="black" d="M2092.69,-86.8C2092.69,-75.16 2092.69,-59.55 2092.69,-46.24"/>
<polygon fill="black" stroke="black" points="2096.19,-46.18 2092.69,-36.18 2089.19,-46.18 2096.19,-46.18"/>
<text text-anchor="middle" x="2097.69" y="-57.8" font-family="Times,serif" font-size="14.00">2</text>
</g>
<!-- dra/func_8010FDF8 -->
<g id="node13" class="node">
<title>dra/func_8010FDF8</title>
<g id="a_node13"><a xlink:href="func_8010FDF8.svg" xlink:title="dra/func_8010FDF8">
<ellipse fill="green" stroke="black" cx="2352.69" cy="-18" rx="102.88" ry="18"/>
<text text-anchor="middle" x="2352.69" y="-14.3" font-family="Times,serif" font-size="14.00">dra/func_8010FDF8</text>
</a>
</g>
</g>
<!-- dra/AlucardHandleDamage&#45;&gt;dra/func_8010FDF8 -->
<g id="edge12" class="edge">
<title>dra/AlucardHandleDamage&#45;&gt;dra/func_8010FDF8</title>
<path fill="none" stroke="black" d="M2141.29,-88.11C2185.47,-73.67 2250.65,-52.36 2296.94,-37.23"/>
<polygon fill="black" stroke="black" points="2298.1,-40.53 2306.51,-34.1 2295.92,-33.88 2298.1,-40.53"/>
<text text-anchor="middle" x="2243.69" y="-57.8" font-family="Times,serif" font-size="14.00">2</text>
</g>
<!-- dra/func_8010DA48 -->
<g id="node14" class="node">
<title>dra/func_8010DA48</title>
<g id="a_node14"><a xlink:href="func_8010DA48.svg" xlink:title="dra/func_8010DA48">
<ellipse fill="green" stroke="black" cx="2575.69" cy="-18" rx="102.88" ry="18"/>
<text text-anchor="middle" x="2575.69" y="-14.3" font-family="Times,serif" font-size="14.00">dra/func_8010DA48</text>
</a>
</g>
</g>
<!-- dra/AlucardHandleDamage&#45;&gt;dra/func_8010DA48 -->
<g id="edge13" class="edge">
<title>dra/AlucardHandleDamage&#45;&gt;dra/func_8010DA48</title>
<path fill="none" stroke="black" d="M2170.83,-90.25C2260.26,-74.51 2405.94,-48.87 2496.01,-33.02"/>
<polygon fill="black" stroke="black" points="2496.66,-36.46 2505.9,-31.28 2495.45,-29.57 2496.66,-36.46"/>
<text text-anchor="middle" x="2368.69" y="-57.8" font-family="Times,serif" font-size="14.00">4</text>
</g>
<!-- dra/func_801139CC -->
<g id="node15" class="node">
<title>dra/func_801139CC</title>
<g id="a_node15"><a xlink:href="func_801139CC.svg" xlink:title="dra/func_801139CC">
<ellipse fill="green" stroke="black" cx="2798.69" cy="-18" rx="102.88" ry="18"/>
<text text-anchor="middle" x="2798.69" y="-14.3" font-family="Times,serif" font-size="14.00">dra/func_801139CC</text>
</a>
</g>
</g>
<!-- dra/AlucardHandleDamage&#45;&gt;dra/func_801139CC -->
<g id="edge14" class="edge">
<title>dra/AlucardHandleDamage&#45;&gt;dra/func_801139CC</title>
<path fill="none" stroke="black" d="M2196.56,-93.34C2315.42,-80.87 2515.85,-58.97 2687.69,-36 2696.63,-34.8 2705.97,-33.49 2715.26,-32.13"/>
<polygon fill="black" stroke="black" points="2715.93,-35.57 2725.31,-30.64 2714.9,-28.64 2715.93,-35.57"/>
<text text-anchor="middle" x="2546.69" y="-57.8" font-family="Times,serif" font-size="14.00">2</text>
</g>
<!-- dra/func_80102CD8 -->
<g id="node16" class="node">
<title>dra/func_80102CD8</title>
<g id="a_node16"><a xlink:href="func_80102CD8.svg" xlink:title="dra/func_80102CD8">
<ellipse fill="green" stroke="black" cx="3021.69" cy="-18" rx="102.88" ry="18"/>
<text text-anchor="middle" x="3021.69" y="-14.3" font-family="Times,serif" font-size="14.00">dra/func_80102CD8</text>
</a>
</g>
</g>
<!-- dra/AlucardHandleDamage&#45;&gt;dra/func_80102CD8 -->
<g id="edge15" class="edge">
<title>dra/AlucardHandleDamage&#45;&gt;dra/func_80102CD8</title>
<path fill="none" stroke="black" d="M2214.27,-96.9C2374.3,-86.86 2664.23,-66.3 2910.69,-36 2919.88,-34.87 2929.48,-33.57 2939.03,-32.21"/>
<polygon fill="black" stroke="black" points="2939.54,-35.68 2948.93,-30.77 2938.53,-28.75 2939.54,-35.68"/>
<text text-anchor="middle" x="2737.69" y="-57.8" font-family="Times,serif" font-size="14.00">2</text>
</g>
<!-- dra/func_80113D7C -->
<g id="node17" class="node">
<title>dra/func_80113D7C</title>
<g id="a_node17"><a xlink:href="func_80113D7C.svg" xlink:title="dra/func_80113D7C">
<ellipse fill="green" stroke="black" cx="3244.69" cy="-18" rx="102.88" ry="18"/>
<text text-anchor="middle" x="3244.69" y="-14.3" font-family="Times,serif" font-size="14.00">dra/func_80113D7C</text>
</a>
</g>
</g>
<!-- dra/AlucardHandleDamage&#45;&gt;dra/func_80113D7C -->
<g id="edge16" class="edge">
<title>dra/AlucardHandleDamage&#45;&gt;dra/func_80113D7C</title>
<path fill="none" stroke="black" d="M2223.34,-99.94C2420.97,-92.78 2807.5,-74.84 3133.69,-36 3142.96,-34.9 3152.64,-33.61 3162.26,-32.25"/>
<polygon fill="black" stroke="black" points="3162.84,-35.7 3172.24,-30.81 3161.84,-28.77 3162.84,-35.7"/>
<text text-anchor="middle" x="2939.69" y="-57.8" font-family="Times,serif" font-size="14.00">1</text>
</g>
<!-- dra/SetSpeedX -->
<g id="node18" class="node">
<title>dra/SetSpeedX</title>
<g id="a_node18"><a xlink:href="SetSpeedX.svg" xlink:title="dra/SetSpeedX">
<ellipse fill="green" stroke="black" cx="3445.69" cy="-18" rx="79.89" ry="18"/>
<text text-anchor="middle" x="3445.69" y="-14.3" font-family="Times,serif" font-size="14.00">dra/SetSpeedX</text>
</a>
</g>
</g>
<!-- dra/AlucardHandleDamage&#45;&gt;dra/SetSpeedX -->
<g id="edge17" class="edge">
<title>dra/AlucardHandleDamage&#45;&gt;dra/SetSpeedX</title>
<path fill="none" stroke="black" d="M2224.02,-100.26C2392.1,-95.09 2692.23,-84.61 2948.69,-69 3130.28,-57.95 3176.41,-60.44 3356.69,-36 3363.87,-35.03 3371.35,-33.85 3378.78,-32.58"/>
<polygon fill="black" stroke="black" points="3379.63,-35.99 3388.87,-30.8 3378.41,-29.1 3379.63,-35.99"/>
<text text-anchor="middle" x="3198.69" y="-57.8" font-family="Times,serif" font-size="14.00">1</text>
</g>
<!-- dra/func_8010E1EC -->
<g id="node19" class="node">
<title>dra/func_8010E1EC</title>
<g id="a_node19"><a xlink:href="func_8010E1EC.svg" xlink:title="dra/func_8010E1EC">
<ellipse fill="green" stroke="black" cx="3646.69" cy="-18" rx="103.18" ry="18"/>
<text text-anchor="middle" x="3646.69" y="-14.3" font-family="Times,serif" font-size="14.00">dra/func_8010E1EC</text>
</a>
</g>
</g>
<!-- dra/AlucardHandleDamage&#45;&gt;dra/func_8010E1EC -->
<g id="edge18" class="edge">
<title>dra/AlucardHandleDamage&#45;&gt;dra/func_8010E1EC</title>
<path fill="none" stroke="black" d="M2227.57,-102.77C2437.38,-100.19 2854.53,-92.34 3207.69,-69 3353.44,-59.37 3389.77,-54.3 3534.69,-36 3543.96,-34.83 3553.64,-33.51 3563.27,-32.13"/>
<polygon fill="black" stroke="black" points="3563.87,-35.58 3573.26,-30.68 3562.87,-28.65 3563.87,-35.58"/>
<text text-anchor="middle" x="3386.69" y="-57.8" font-family="Times,serif" font-size="14.00">2</text>
</g>
<!-- dra/func_8010E7AC -->
<g id="node20" class="node">
<title>dra/func_8010E7AC</title>
<g id="a_node20"><a xlink:href="func_8010E7AC.svg" xlink:title="dra/func_8010E7AC">
<ellipse fill="green" stroke="black" cx="3870.69" cy="-18" rx="102.88" ry="18"/>
<text text-anchor="middle" x="3870.69" y="-14.3" font-family="Times,serif" font-size="14.00">dra/func_8010E7AC</text>
</a>
</g>
</g>
<!-- dra/AlucardHandleDamage&#45;&gt;dra/func_8010E7AC -->
<g id="edge19" class="edge">
<title>dra/AlucardHandleDamage&#45;&gt;dra/func_8010E7AC</title>
<path fill="none" stroke="black" d="M2227.87,-103.21C2464.67,-101.19 2969.86,-94.05 3395.69,-69 3557.41,-59.49 3597.87,-55.5 3758.69,-36 3768.11,-34.86 3777.96,-33.54 3787.73,-32.16"/>
<polygon fill="black" stroke="black" points="3788.48,-35.59 3797.88,-30.7 3787.48,-28.66 3788.48,-35.59"/>
<text text-anchor="middle" x="3600.69" y="-57.8" font-family="Times,serif" font-size="14.00">1</text>
</g>
<!-- dra/func_8010E570 -->
<g id="node21" class="node">
<title>dra/func_8010E570</title>
<g id="a_node21"><a xlink:href="func_8010E570.svg" xlink:title="dra/func_8010E570">
<ellipse fill="red" stroke="black" cx="4092.69" cy="-18" rx="101.28" ry="18"/>
<text text-anchor="middle" x="4092.69" y="-14.3" font-family="Times,serif" font-size="14.00">dra/func_8010E570</text>
</a>
</g>
</g>
<!-- dra/AlucardHandleDamage&#45;&gt;dra/func_8010E570 -->
<g id="edge20" class="edge">
<title>dra/AlucardHandleDamage&#45;&gt;dra/func_8010E570</title>
<path fill="none" stroke="black" d="M2228.28,-103.83C2493.69,-102.85 3100.4,-97.37 3609.69,-69 3775.86,-59.74 3817.48,-56.05 3982.69,-36 3991.78,-34.9 4001.27,-33.62 4010.7,-32.27"/>
<polygon fill="black" stroke="black" points="4011.5,-35.69 4020.89,-30.79 4010.49,-28.77 4011.5,-35.69"/>
<text text-anchor="middle" x="3825.69" y="-57.8" font-family="Times,serif" font-size="14.00">1</text>
</g>
<!-- dra/func_8010E470 -->
<g id="node22" class="node">
<title>dra/func_8010E470</title>
<g id="a_node22"><a xlink:href="func_8010E470.svg" xlink:title="dra/func_8010E470">
<ellipse fill="green" stroke="black" cx="4313.69" cy="-18" rx="101.28" ry="18"/>
<text text-anchor="middle" x="4313.69" y="-14.3" font-family="Times,serif" font-size="14.00">dra/func_8010E470</text>
</a>
</g>
</g>
<!-- dra/AlucardHandleDamage&#45;&gt;dra/func_8010E470 -->
<g id="edge21" class="edge">
<title>dra/AlucardHandleDamage&#45;&gt;dra/func_8010E470</title>
<path fill="none" stroke="black" d="M2228.61,-104.47C2522.08,-104.79 3236.84,-101.77 3834.69,-69 3998.66,-60.01 4039.67,-55.77 4202.69,-36 4212.03,-34.87 4221.79,-33.56 4231.48,-32.18"/>
<polygon fill="black" stroke="black" points="4232.14,-35.62 4241.53,-30.72 4231.13,-28.69 4232.14,-35.62"/>
<text text-anchor="middle" x="4048.69" y="-57.8" font-family="Times,serif" font-size="14.00">1</text>
</g>
<!-- dra/EntityAlucard -->
<g id="node23" class="node">
<title>dra/EntityAlucard</title>
<g id="a_node23"><a xlink:href="EntityAlucard.svg" xlink:title="dra/EntityAlucard">
<ellipse fill="red" stroke="black" cx="2092.69" cy="-192" rx="93.68" ry="18"/>
<text text-anchor="middle" x="2092.69" y="-188.3" font-family="Times,serif" font-size="14.00">dra/EntityAlucard</text>
</a>
</g>
</g>
<!-- dra/EntityAlucard&#45;&gt;dra/AlucardHandleDamage -->
<g id="edge22" class="edge">
<title>dra/EntityAlucard&#45;&gt;dra/AlucardHandleDamage</title>
<path fill="none" stroke="black" d="M2092.69,-173.8C2092.69,-162.16 2092.69,-146.55 2092.69,-133.24"/>
<polygon fill="black" stroke="black" points="2096.19,-133.18 2092.69,-123.18 2089.19,-133.18 2096.19,-133.18"/>
<text text-anchor="middle" x="2097.69" y="-144.8" font-family="Times,serif" font-size="14.00">1</text>
</g>
</g>
</svg>
