<?xml version="1.0" encoding="UTF-8" standalone="no"?>
<!DOCTYPE svg PUBLIC "-//W3C//DTD SVG 1.1//EN"
 "http://www.w3.org/Graphics/SVG/1.1/DTD/svg11.dtd">
<!-- Generated by graphviz version 2.43.0 (0)
 -->
<!-- Title: cen.DestroyEntity Pages: 1 -->
<svg width="10253pt" height="404pt"
 viewBox="0.00 0.00 10252.58 404.00" xmlns="http://www.w3.org/2000/svg" xmlns:xlink="http://www.w3.org/1999/xlink">
<g id="graph0" class="graph" transform="scale(1 1) rotate(0) translate(4 400)">
<title>cen.DestroyEntity</title>
<polygon fill="white" stroke="transparent" points="-4,4 -4,-400 10248.58,-400 10248.58,4 -4,4"/>
<!-- cen.DestroyEntity -->
<g id="node1" class="node">
<title>cen.DestroyEntity</title>
<ellipse fill="green" stroke="black" cx="4941.34" cy="-198" rx="94.78" ry="18"/>
<text text-anchor="middle" x="4941.34" y="-194.3" font-family="Times,serif" font-size="14.00">cen.DestroyEntity</text>
</g>
<!-- dra.FreePrimitives -->
<g id="node2" class="node">
<title>dra.FreePrimitives</title>
<g id="a_node2"><a xlink:href="dra.FreePrimitives.svg" xlink:title="dra.FreePrimitives">
<ellipse fill="green" stroke="black" cx="4941.34" cy="-18" rx="98.58" ry="18"/>
<text text-anchor="middle" x="4941.34" y="-14.3" font-family="Times,serif" font-size="14.00">dra.FreePrimitives</text>
</a>
</g>
</g>
<!-- cen.DestroyEntity&#45;&gt;dra.FreePrimitives -->
<g id="edge1" class="edge">
<title>cen.DestroyEntity&#45;&gt;dra.FreePrimitives</title>
<path fill="none" stroke="black" d="M4941.34,-179.93C4941.34,-148.97 4941.34,-83.3 4941.34,-46.13"/>
<polygon fill="black" stroke="black" points="4944.84,-46.02 4941.34,-36.02 4937.84,-46.02 4944.84,-46.02"/>
<text text-anchor="middle" x="4936.34" y="-39.82" font-family="Times,serif" font-size="14.00">1</text>
</g>
<!-- cen.func_8018DB18 -->
<g id="node3" class="node">
<title>cen.func_8018DB18</title>
<g id="a_node3"><a xlink:href="cen.func_8018DB18.svg" xlink:title="cen.func_8018DB18">
<ellipse fill="green" stroke="black" cx="103.34" cy="-378" rx="103.18" ry="18"/>
<text text-anchor="middle" x="103.34" y="-374.3" font-family="Times,serif" font-size="14.00">cen.func_8018DB18</text>
</a>
</g>
</g>
<!-- cen.func_8018DB18&#45;&gt;cen.DestroyEntity -->
<g id="edge2" class="edge">
<title>cen.func_8018DB18&#45;&gt;cen.DestroyEntity</title>
<path fill="none" stroke="black" d="M174.59,-364.91C188.09,-362.98 202.12,-361.22 215.34,-360 1157,-272.79 4231.38,-212.15 4837.16,-200.89"/>
<polygon fill="black" stroke="black" points="4837.25,-204.39 4847.18,-200.71 4837.12,-197.39 4837.25,-204.39"/>
<text text-anchor="middle" x="169.59" y="-353.71" font-family="Times,serif" font-size="14.00">1</text>
</g>
<!-- cen.EntityRoomDarkness -->
<g id="node4" class="node">
<title>cen.EntityRoomDarkness</title>
<g id="a_node4"><a xlink:href="cen.EntityRoomDarkness.svg" xlink:title="cen.EntityRoomDarkness">
<ellipse fill="green" stroke="black" cx="352.34" cy="-378" rx="128.08" ry="18"/>
<text text-anchor="middle" x="352.34" y="-374.3" font-family="Times,serif" font-size="14.00">cen.EntityRoomDarkness</text>
</a>
</g>
</g>
<!-- cen.EntityRoomDarkness&#45;&gt;cen.DestroyEntity -->
<g id="edge3" class="edge">
<title>cen.EntityRoomDarkness&#45;&gt;cen.DestroyEntity</title>
<path fill="none" stroke="black" d="M440.66,-364.89C456.83,-363 473.57,-361.26 489.34,-360 2222.25,-221.42 4344.22,-202.07 4836.12,-199.42"/>
<polygon fill="black" stroke="black" points="4836.41,-202.91 4846.4,-199.36 4836.38,-195.91 4836.41,-202.91"/>
<text text-anchor="middle" x="435.66" y="-353.69" font-family="Times,serif" font-size="14.00">1</text>
</g>
<!-- cen.EntityMaria -->
<g id="node5" class="node">
<title>cen.EntityMaria</title>
<g id="a_node5"><a xlink:href="cen.EntityMaria.svg" xlink:title="cen.EntityMaria">
<ellipse fill="green" stroke="black" cx="584.34" cy="-378" rx="85.59" ry="18"/>
<text text-anchor="middle" x="584.34" y="-374.3" font-family="Times,serif" font-size="14.00">cen.EntityMaria</text>
</a>
</g>
</g>
<!-- cen.EntityMaria&#45;&gt;cen.DestroyEntity -->
<g id="edge4" class="edge">
<title>cen.EntityMaria&#45;&gt;cen.DestroyEntity</title>
<path fill="none" stroke="black" d="M643.96,-365.02C655.65,-363.05 667.85,-361.24 679.34,-360 1522.16,-269.12 4266.8,-212.01 4837.01,-200.97"/>
<polygon fill="black" stroke="black" points="4837.34,-204.46 4847.27,-200.77 4837.2,-197.46 4837.34,-204.46"/>
<text text-anchor="middle" x="638.96" y="-353.82" font-family="Times,serif" font-size="14.00">1</text>
</g>
<!-- cen.func_8018E238 -->
<g id="node6" class="node">
<title>cen.func_8018E238</title>
<g id="a_node6"><a xlink:href="cen.func_8018E238.svg" xlink:title="cen.func_8018E238">
<ellipse fill="red" stroke="black" cx="790.34" cy="-378" rx="102.08" ry="18"/>
<text text-anchor="middle" x="790.34" y="-374.3" font-family="Times,serif" font-size="14.00">cen.func_8018E238</text>
</a>
</g>
</g>
<!-- cen.func_8018E238&#45;&gt;cen.DestroyEntity -->
<g id="edge5" class="edge">
<title>cen.func_8018E238&#45;&gt;cen.DestroyEntity</title>
<path fill="none" stroke="black" d="M860.95,-364.97C874.33,-363.04 888.24,-361.26 901.34,-360 2461.08,-209.96 4372.52,-199.17 4836.35,-198.86"/>
<polygon fill="black" stroke="black" points="4836.38,-202.36 4846.38,-198.86 4836.38,-195.36 4836.38,-202.36"/>
<text text-anchor="middle" x="855.95" y="-353.77" font-family="Times,serif" font-size="14.00">1</text>
</g>
<!-- cen.EntityElevatorStationary -->
<g id="node7" class="node">
<title>cen.EntityElevatorStationary</title>
<g id="a_node7"><a xlink:href="cen.EntityElevatorStationary.svg" xlink:title="cen.EntityElevatorStationary">
<ellipse fill="green" stroke="black" cx="1057.34" cy="-378" rx="146.77" ry="18"/>
<text text-anchor="middle" x="1057.34" y="-374.3" font-family="Times,serif" font-size="14.00">cen.EntityElevatorStationary</text>
</a>
</g>
</g>
<!-- cen.EntityElevatorStationary&#45;&gt;cen.DestroyEntity -->
<g id="edge6" class="edge">
<title>cen.EntityElevatorStationary&#45;&gt;cen.DestroyEntity</title>
<path fill="none" stroke="black" d="M1158.79,-364.97C1176.94,-363.1 1195.68,-361.34 1213.34,-360 2647.39,-251.01 4397.8,-209.98 4837.43,-201"/>
<polygon fill="black" stroke="black" points="4837.64,-204.49 4847.57,-200.79 4837.5,-197.5 4837.64,-204.49"/>
<text text-anchor="middle" x="1153.79" y="-353.77" font-family="Times,serif" font-size="14.00">1</text>
</g>
<!-- cen.func_8018E3E8 -->
<g id="node8" class="node">
<title>cen.func_8018E3E8</title>
<g id="a_node8"><a xlink:href="cen.func_8018E3E8.svg" xlink:title="cen.func_8018E3E8">
<ellipse fill="red" stroke="black" cx="1325.34" cy="-378" rx="102.88" ry="18"/>
<text text-anchor="middle" x="1325.34" y="-374.3" font-family="Times,serif" font-size="14.00">cen.func_8018E3E8</text>
</a>
</g>
</g>
<!-- cen.func_8018E3E8&#45;&gt;cen.DestroyEntity -->
<g id="edge7" class="edge">
<title>cen.func_8018E3E8&#45;&gt;cen.DestroyEntity</title>
<path fill="none" stroke="black" d="M1396.55,-364.95C1409.75,-363.04 1423.44,-361.28 1436.34,-360 2774.58,-227.16 4411.34,-203.7 4836.5,-199.76"/>
<polygon fill="black" stroke="black" points="4836.65,-203.26 4846.62,-199.67 4836.59,-196.26 4836.65,-203.26"/>
<text text-anchor="middle" x="1391.55" y="-353.75" font-family="Times,serif" font-size="14.00">2</text>
</g>
<!-- cen.EntityUnkId01 -->
<g id="node9" class="node">
<title>cen.EntityUnkId01</title>
<g id="a_node9"><a xlink:href="cen.EntityUnkId01.svg" xlink:title="cen.EntityUnkId01">
<ellipse fill="green" stroke="black" cx="1544.34" cy="-378" rx="98.58" ry="18"/>
<text text-anchor="middle" x="1544.34" y="-374.3" font-family="Times,serif" font-size="14.00">cen.EntityUnkId01</text>
</a>
</g>
</g>
<!-- cen.EntityUnkId01&#45;&gt;cen.DestroyEntity -->
<g id="edge8" class="edge">
<title>cen.EntityUnkId01&#45;&gt;cen.DestroyEntity</title>
<path fill="none" stroke="black" d="M1612.98,-364.96C1625.7,-363.06 1638.9,-361.29 1651.34,-360 2900.82,-230.56 4428.34,-204.71 4836.82,-199.99"/>
<polygon fill="black" stroke="black" points="4836.88,-203.49 4846.84,-199.87 4836.8,-196.49 4836.88,-203.49"/>
<text text-anchor="middle" x="1607.98" y="-353.76" font-family="Times,serif" font-size="14.00">2</text>
</g>
<!-- cen.EntityMovingElevator -->
<g id="node10" class="node">
<title>cen.EntityMovingElevator</title>
<g id="a_node10"><a xlink:href="cen.EntityMovingElevator.svg" xlink:title="cen.EntityMovingElevator">
<ellipse fill="green" stroke="black" cx="1793.34" cy="-378" rx="132.68" ry="18"/>
<text text-anchor="middle" x="1793.34" y="-374.3" font-family="Times,serif" font-size="14.00">cen.EntityMovingElevator</text>
</a>
</g>
</g>
<!-- cen.EntityMovingElevator&#45;&gt;cen.DestroyEntity -->
<g id="edge9" class="edge">
<title>cen.EntityMovingElevator&#45;&gt;cen.DestroyEntity</title>
<path fill="none" stroke="black" d="M1885.4,-365.01C1901.69,-363.14 1918.5,-361.38 1934.34,-360 3070.46,-261.21 4453.7,-213.88 4838.02,-202.04"/>
<polygon fill="black" stroke="black" points="4838.39,-205.53 4848.28,-201.73 4838.18,-198.53 4838.39,-205.53"/>
<text text-anchor="middle" x="1880.4" y="-353.81" font-family="Times,serif" font-size="14.00">1</text>
</g>
<!-- cen.EntityUnkId16 -->
<g id="node11" class="node">
<title>cen.EntityUnkId16</title>
<g id="a_node11"><a xlink:href="cen.EntityUnkId16.svg" xlink:title="cen.EntityUnkId16">
<ellipse fill="red" stroke="black" cx="2042.34" cy="-378" rx="98.58" ry="18"/>
<text text-anchor="middle" x="2042.34" y="-374.3" font-family="Times,serif" font-size="14.00">cen.EntityUnkId16</text>
</a>
</g>
</g>
<!-- cen.EntityUnkId16&#45;&gt;cen.DestroyEntity -->
<g id="edge10" class="edge">
<title>cen.EntityUnkId16&#45;&gt;cen.DestroyEntity</title>
<path fill="none" stroke="black" d="M2110.99,-365.05C2123.71,-363.14 2136.9,-361.34 2149.34,-360 3194.9,-247.08 4469.86,-209.99 4837.58,-201.24"/>
<polygon fill="black" stroke="black" points="4837.75,-204.74 4847.67,-201 4837.59,-197.74 4837.75,-204.74"/>
<text text-anchor="middle" x="2105.99" y="-353.85" font-family="Times,serif" font-size="14.00">2</text>
</g>
<!-- cen.EntityExplosion14 -->
<g id="node12" class="node">
<title>cen.EntityExplosion14</title>
<g id="a_node12"><a xlink:href="cen.EntityExplosion14.svg" xlink:title="cen.EntityExplosion14">
<ellipse fill="red" stroke="black" cx="2274.34" cy="-378" rx="115.88" ry="18"/>
<text text-anchor="middle" x="2274.34" y="-374.3" font-family="Times,serif" font-size="14.00">cen.EntityExplosion14</text>
</a>
</g>
</g>
<!-- cen.EntityExplosion14&#45;&gt;cen.DestroyEntity -->
<g id="edge11" class="edge">
<title>cen.EntityExplosion14&#45;&gt;cen.DestroyEntity</title>
<path fill="none" stroke="black" d="M2354.95,-365.08C2369.38,-363.19 2384.29,-361.41 2398.34,-360 3344.24,-265.34 4493.97,-216.16 4838.84,-202.8"/>
<polygon fill="black" stroke="black" points="4839.2,-206.29 4849.06,-202.41 4838.93,-199.29 4839.2,-206.29"/>
<text text-anchor="middle" x="2349.95" y="-353.88" font-family="Times,serif" font-size="14.00">1</text>
</g>
<!-- cen.EntityRedDoor -->
<g id="node13" class="node">
<title>cen.EntityRedDoor</title>
<g id="a_node13"><a xlink:href="cen.EntityRedDoor.svg" xlink:title="cen.EntityRedDoor">
<ellipse fill="red" stroke="black" cx="2506.34" cy="-378" rx="98.58" ry="18"/>
<text text-anchor="middle" x="2506.34" y="-374.3" font-family="Times,serif" font-size="14.00">cen.EntityRedDoor</text>
</a>
</g>
</g>
<!-- cen.EntityRedDoor&#45;&gt;cen.DestroyEntity -->
<g id="edge12" class="edge">
<title>cen.EntityRedDoor&#45;&gt;cen.DestroyEntity</title>
<path fill="none" stroke="black" d="M2575.94,-365.13C2588.68,-363.22 2601.89,-361.41 2614.34,-360 3471.44,-263.08 4513.19,-215.98 4838.98,-202.9"/>
<polygon fill="black" stroke="black" points="4839.49,-206.38 4849.34,-202.48 4839.21,-199.39 4839.49,-206.38"/>
<text text-anchor="middle" x="2570.94" y="-353.93" font-family="Times,serif" font-size="14.00">1</text>
</g>
<!-- cen.EntityRelicOrb -->
<g id="node14" class="node">
<title>cen.EntityRelicOrb</title>
<g id="a_node14"><a xlink:href="cen.EntityRelicOrb.svg" xlink:title="cen.EntityRelicOrb">
<ellipse fill="red" stroke="black" cx="2722.34" cy="-378" rx="98.58" ry="18"/>
<text text-anchor="middle" x="2722.34" y="-374.3" font-family="Times,serif" font-size="14.00">cen.EntityRelicOrb</text>
</a>
</g>
</g>
<!-- cen.EntityRelicOrb&#45;&gt;cen.DestroyEntity -->
<g id="edge13" class="edge">
<title>cen.EntityRelicOrb&#45;&gt;cen.DestroyEntity</title>
<path fill="none" stroke="black" d="M2791.94,-365.21C2804.69,-363.28 2817.9,-361.45 2830.34,-360 3601.04,-270.1 4536.14,-218.99 4840.44,-203.82"/>
<polygon fill="black" stroke="black" points="4840.75,-207.31 4850.56,-203.32 4840.4,-200.32 4840.75,-207.31"/>
<text text-anchor="middle" x="2786.94" y="-354.01" font-family="Times,serif" font-size="14.00">1</text>
</g>
<!-- cen.CollectHeart -->
<g id="node15" class="node">
<title>cen.CollectHeart</title>
<g id="a_node15"><a xlink:href="cen.CollectHeart.svg" xlink:title="cen.CollectHeart">
<ellipse fill="green" stroke="black" cx="2928.34" cy="-378" rx="89.08" ry="18"/>
<text text-anchor="middle" x="2928.34" y="-374.3" font-family="Times,serif" font-size="14.00">cen.CollectHeart</text>
</a>
</g>
</g>
<!-- cen.CollectHeart&#45;&gt;cen.DestroyEntity -->
<g id="edge14" class="edge">
<title>cen.CollectHeart&#45;&gt;cen.DestroyEntity</title>
<path fill="none" stroke="black" d="M2991.22,-365.25C3002.87,-363.31 3014.95,-361.46 3026.34,-360 3717.69,-271.15 4556.02,-220.09 4841,-204.32"/>
<polygon fill="black" stroke="black" points="4841.52,-207.79 4851.31,-203.75 4841.13,-200.81 4841.52,-207.79"/>
<text text-anchor="middle" x="2986.22" y="-354.05" font-family="Times,serif" font-size="14.00">1</text>
</g>
<!-- cen.func_80195B68 -->
<g id="node16" class="node">
<title>cen.func_80195B68</title>
<g id="a_node16"><a xlink:href="cen.func_80195B68.svg" xlink:title="cen.func_80195B68">
<ellipse fill="red" stroke="black" cx="3137.34" cy="-378" rx="102.08" ry="18"/>
<text text-anchor="middle" x="3137.34" y="-374.3" font-family="Times,serif" font-size="14.00">cen.func_80195B68</text>
</a>
</g>
</g>
<!-- cen.func_80195B68&#45;&gt;cen.DestroyEntity -->
<g id="edge15" class="edge">
<title>cen.func_80195B68&#45;&gt;cen.DestroyEntity</title>
<path fill="none" stroke="black" d="M3209.8,-365.29C3222.62,-363.39 3235.86,-361.55 3248.34,-360 3854.09,-284.87 4585.59,-226.09 4844.69,-206.25"/>
<polygon fill="black" stroke="black" points="4845.11,-209.72 4854.82,-205.47 4844.58,-202.74 4845.11,-209.72"/>
<text text-anchor="middle" x="3204.8" y="-354.09" font-family="Times,serif" font-size="14.00">1</text>
</g>
<!-- cen.EntityEquipItemDrop -->
<g id="node17" class="node">
<title>cen.EntityEquipItemDrop</title>
<g id="a_node17"><a xlink:href="cen.EntityEquipItemDrop.svg" xlink:title="cen.EntityEquipItemDrop">
<ellipse fill="red" stroke="black" cx="3387.34" cy="-378" rx="129.98" ry="18"/>
<text text-anchor="middle" x="3387.34" y="-374.3" font-family="Times,serif" font-size="14.00">cen.EntityEquipItemDrop</text>
</a>
</g>
</g>
<!-- cen.EntityEquipItemDrop&#45;&gt;cen.DestroyEntity -->
<g id="edge16" class="edge">
<title>cen.EntityEquipItemDrop&#45;&gt;cen.DestroyEntity</title>
<path fill="none" stroke="black" d="M3480.79,-365.46C3496.01,-363.61 3511.61,-361.74 3526.34,-360 4026.92,-300.91 4627.59,-233.83 4851.47,-208.96"/>
<polygon fill="black" stroke="black" points="4851.98,-212.43 4861.53,-207.84 4851.2,-205.47 4851.98,-212.43"/>
<text text-anchor="middle" x="3475.79" y="-354.26" font-family="Times,serif" font-size="14.00">2</text>
</g>
<!-- cen.EntityUnkId13 -->
<g id="node18" class="node">
<title>cen.EntityUnkId13</title>
<g id="a_node18"><a xlink:href="cen.EntityUnkId13.svg" xlink:title="cen.EntityUnkId13">
<ellipse fill="green" stroke="black" cx="3634.34" cy="-378" rx="98.58" ry="18"/>
<text text-anchor="middle" x="3634.34" y="-374.3" font-family="Times,serif" font-size="14.00">cen.EntityUnkId13</text>
</a>
</g>
</g>
<!-- cen.EntityUnkId13&#45;&gt;cen.DestroyEntity -->
<g id="edge17" class="edge">
<title>cen.EntityUnkId13&#45;&gt;cen.DestroyEntity</title>
<path fill="none" stroke="black" d="M3705.76,-365.52C3717.96,-363.63 3730.51,-361.73 3742.34,-360 4158.56,-299.31 4657.34,-235.04 4854.78,-209.94"/>
<polygon fill="black" stroke="black" points="4855.33,-213.4 4864.81,-208.67 4854.45,-206.45 4855.33,-213.4"/>
<text text-anchor="middle" x="3700.76" y="-354.32" font-family="Times,serif" font-size="14.00">1</text>
</g>
<!-- cen.func_80198680 -->
<g id="node19" class="node">
<title>cen.func_80198680</title>
<g id="a_node19"><a xlink:href="cen.func_80198680.svg" xlink:title="cen.func_80198680">
<ellipse fill="red" stroke="black" cx="3852.34" cy="-378" rx="100.98" ry="18"/>
<text text-anchor="middle" x="3852.34" y="-374.3" font-family="Times,serif" font-size="14.00">cen.func_80198680</text>
</a>
</g>
</g>
<!-- cen.func_80198680&#45;&gt;cen.DestroyEntity -->
<g id="edge18" class="edge">
<title>cen.func_80198680&#45;&gt;cen.DestroyEntity</title>
<path fill="none" stroke="black" d="M3924.21,-365.25C4119.34,-333.36 4657.96,-245.32 4861.79,-212"/>
<polygon fill="black" stroke="black" points="4862.52,-215.43 4871.82,-210.36 4861.39,-208.52 4862.52,-215.43"/>
<text text-anchor="middle" x="3919.21" y="-354.05" font-family="Times,serif" font-size="14.00">1</text>
</g>
<!-- cen.TestCollisions -->
<g id="node20" class="node">
<title>cen.TestCollisions</title>
<g id="a_node20"><a xlink:href="cen.TestCollisions.svg" xlink:title="cen.TestCollisions">
<ellipse fill="red" stroke="black" cx="4065.34" cy="-378" rx="94.48" ry="18"/>
<text text-anchor="middle" x="4065.34" y="-374.3" font-family="Times,serif" font-size="14.00">cen.TestCollisions</text>
</a>
</g>
</g>
<!-- cen.TestCollisions&#45;&gt;cen.DestroyEntity -->
<g id="edge19" class="edge">
<title>cen.TestCollisions&#45;&gt;cen.DestroyEntity</title>
<path fill="none" stroke="black" d="M4127.29,-364.41C4284.91,-332.38 4700.63,-247.91 4869,-213.7"/>
<polygon fill="black" stroke="black" points="4869.9,-217.09 4879,-211.67 4868.5,-210.23 4869.9,-217.09"/>
<text text-anchor="middle" x="4122.29" y="-353.21" font-family="Times,serif" font-size="14.00">1</text>
</g>
<!-- cen.func_8019565C -->
<g id="node21" class="node">
<title>cen.func_8019565C</title>
<g id="a_node21"><a xlink:href="cen.func_8019565C.svg" xlink:title="cen.func_8019565C">
<ellipse fill="red" stroke="black" cx="4279.34" cy="-378" rx="102.08" ry="18"/>
<text text-anchor="middle" x="4279.34" y="-374.3" font-family="Times,serif" font-size="14.00">cen.func_8019565C</text>
</a>
</g>
</g>
<!-- cen.func_8019565C&#45;&gt;cen.DestroyEntity -->
<g id="edge20" class="edge">
<title>cen.func_8019565C&#45;&gt;cen.DestroyEntity</title>
<path fill="none" stroke="black" d="M4332.95,-362.58C4454.45,-329.92 4750.2,-250.39 4879.32,-215.68"/>
<polygon fill="black" stroke="black" points="4880.32,-219.03 4889.07,-213.06 4878.5,-212.27 4880.32,-219.03"/>
<text text-anchor="middle" x="4327.95" y="-351.38" font-family="Times,serif" font-size="14.00">1</text>
</g>
<!-- cen.func_801942D0 -->
<g id="node22" class="node">
<title>cen.func_801942D0</title>
<g id="a_node22"><a xlink:href="cen.func_801942D0.svg" xlink:title="cen.func_801942D0">
<ellipse fill="green" stroke="black" cx="4502.34" cy="-378" rx="102.88" ry="18"/>
<text text-anchor="middle" x="4502.34" y="-374.3" font-family="Times,serif" font-size="14.00">cen.func_801942D0</text>
</a>
</g>
</g>
<!-- cen.func_801942D0&#45;&gt;cen.DestroyEntity -->
<g id="edge21" class="edge">
<title>cen.func_801942D0&#45;&gt;cen.DestroyEntity</title>
<path fill="none" stroke="black" d="M4541.3,-361.2C4621.8,-328.56 4806.25,-253.78 4893.68,-218.32"/>
<polygon fill="black" stroke="black" points="4895.14,-221.51 4903.1,-214.51 4892.51,-215.02 4895.14,-221.51"/>
<text text-anchor="middle" x="4536.3" y="-350" font-family="Times,serif" font-size="14.00">1</text>
</g>
<!-- cen.EntityUnkId0E -->
<g id="node23" class="node">
<title>cen.EntityUnkId0E</title>
<g id="a_node23"><a xlink:href="cen.EntityUnkId0E.svg" xlink:title="cen.EntityUnkId0E">
<ellipse fill="red" stroke="black" cx="4722.34" cy="-378" rx="99.38" ry="18"/>
<text text-anchor="middle" x="4722.34" y="-374.3" font-family="Times,serif" font-size="14.00">cen.EntityUnkId0E</text>
</a>
</g>
</g>
<!-- cen.EntityUnkId0E&#45;&gt;cen.DestroyEntity -->
<g id="edge22" class="edge">
<title>cen.EntityUnkId0E&#45;&gt;cen.DestroyEntity</title>
<path fill="none" stroke="black" d="M4742.94,-360.25C4782.24,-328.32 4867.96,-258.65 4912.76,-222.23"/>
<polygon fill="black" stroke="black" points="4915.08,-224.85 4920.63,-215.83 4910.67,-219.42 4915.08,-224.85"/>
<text text-anchor="middle" x="4737.94" y="-349.05" font-family="Times,serif" font-size="14.00">1</text>
</g>
<!-- cen.func_801990F8 -->
<g id="node24" class="node">
<title>cen.func_801990F8</title>
<g id="a_node24"><a xlink:href="cen.func_801990F8.svg" xlink:title="cen.func_801990F8">
<ellipse fill="red" stroke="black" cx="4941.34" cy="-378" rx="101.28" ry="18"/>
<text text-anchor="middle" x="4941.34" y="-374.3" font-family="Times,serif" font-size="14.00">cen.func_801990F8</text>
</a>
</g>
</g>
<!-- cen.func_801990F8&#45;&gt;cen.DestroyEntity -->
<g id="edge23" class="edge">
<title>cen.func_801990F8&#45;&gt;cen.DestroyEntity</title>
<path fill="none" stroke="black" d="M4941.34,-359.93C4941.34,-328.97 4941.34,-263.3 4941.34,-226.13"/>
<polygon fill="black" stroke="black" points="4944.84,-226.02 4941.34,-216.02 4937.84,-226.02 4944.84,-226.02"/>
<text text-anchor="middle" x="4936.34" y="-348.73" font-family="Times,serif" font-size="14.00">1</text>
</g>
<!-- cen.EntityExplosion -->
<g id="node25" class="node">
<title>cen.EntityExplosion</title>
<g id="a_node25"><a xlink:href="cen.EntityExplosion.svg" xlink:title="cen.EntityExplosion">
<ellipse fill="red" stroke="black" cx="5164.34" cy="-378" rx="103.98" ry="18"/>
<text text-anchor="middle" x="5164.34" y="-374.3" font-family="Times,serif" font-size="14.00">cen.EntityExplosion</text>
</a>
</g>
</g>
<!-- cen.EntityExplosion&#45;&gt;cen.DestroyEntity -->
<g id="edge24" class="edge">
<title>cen.EntityExplosion&#45;&gt;cen.DestroyEntity</title>
<path fill="none" stroke="black" d="M5143.36,-360.25C5103.25,-328.24 5015.62,-258.29 4970.09,-221.95"/>
<polygon fill="black" stroke="black" points="4972.1,-219.07 4962.1,-215.57 4967.73,-224.55 4972.1,-219.07"/>
<text text-anchor="middle" x="5138.36" y="-349.05" font-family="Times,serif" font-size="14.00">1</text>
</g>
<!-- cen.EntityUnkId15 -->
<g id="node26" class="node">
<title>cen.EntityUnkId15</title>
<g id="a_node26"><a xlink:href="cen.EntityUnkId15.svg" xlink:title="cen.EntityUnkId15">
<ellipse fill="red" stroke="black" cx="5385.34" cy="-378" rx="98.58" ry="18"/>
<text text-anchor="middle" x="5385.34" y="-374.3" font-family="Times,serif" font-size="14.00">cen.EntityUnkId15</text>
</a>
</g>
</g>
<!-- cen.EntityUnkId15&#45;&gt;cen.DestroyEntity -->
<g id="edge25" class="edge">
<title>cen.EntityUnkId15&#45;&gt;cen.DestroyEntity</title>
<path fill="none" stroke="black" d="M5346.33,-361.36C5265.15,-328.82 5078.26,-253.89 4989.65,-218.37"/>
<polygon fill="black" stroke="black" points="4990.69,-215.01 4980.11,-214.54 4988.09,-221.51 4990.69,-215.01"/>
<text text-anchor="middle" x="5341.33" y="-350.16" font-family="Times,serif" font-size="14.00">1</text>
</g>
<!-- cen.func_80195C5C -->
<g id="node27" class="node">
<title>cen.func_80195C5C</title>
<g id="a_node27"><a xlink:href="cen.func_80195C5C.svg" xlink:title="cen.func_80195C5C">
<ellipse fill="green" stroke="black" cx="5604.34" cy="-378" rx="102.88" ry="18"/>
<text text-anchor="middle" x="5604.34" y="-374.3" font-family="Times,serif" font-size="14.00">cen.func_80195C5C</text>
</a>
</g>
</g>
<!-- cen.func_80195C5C&#45;&gt;cen.DestroyEntity -->
<g id="edge26" class="edge">
<title>cen.func_80195C5C&#45;&gt;cen.DestroyEntity</title>
<path fill="none" stroke="black" d="M5550.65,-362.58C5428.96,-329.92 5132.77,-250.39 5003.45,-215.68"/>
<polygon fill="black" stroke="black" points="5004.26,-212.27 4993.69,-213.06 5002.44,-219.03 5004.26,-212.27"/>
<text text-anchor="middle" x="5545.65" y="-351.38" font-family="Times,serif" font-size="14.00">1</text>
</g>
<!-- cen.EntityStageNamePopup -->
<g id="node28" class="node">
<title>cen.EntityStageNamePopup</title>
<g id="a_node28"><a xlink:href="cen.EntityStageNamePopup.svg" xlink:title="cen.EntityStageNamePopup">
<ellipse fill="red" stroke="black" cx="5866.34" cy="-378" rx="141.88" ry="18"/>
<text text-anchor="middle" x="5866.34" y="-374.3" font-family="Times,serif" font-size="14.00">cen.EntityStageNamePopup</text>
</a>
</g>
</g>
<!-- cen.EntityStageNamePopup&#45;&gt;cen.DestroyEntity -->
<g id="edge27" class="edge">
<title>cen.EntityStageNamePopup&#45;&gt;cen.DestroyEntity</title>
<path fill="none" stroke="black" d="M5791.82,-362.66C5618.25,-329.26 5188.69,-246.6 5015.49,-213.27"/>
<polygon fill="black" stroke="black" points="5015.93,-209.79 5005.45,-211.34 5014.61,-216.66 5015.93,-209.79"/>
<text text-anchor="middle" x="5786.82" y="-351.46" font-family="Times,serif" font-size="14.00">1</text>
</g>
<!-- cen.func_80195974 -->
<g id="node29" class="node">
<title>cen.func_80195974</title>
<g id="a_node29"><a xlink:href="cen.func_80195974.svg" xlink:title="cen.func_80195974">
<ellipse fill="red" stroke="black" cx="6126.34" cy="-378" rx="100.98" ry="18"/>
<text text-anchor="middle" x="6126.34" y="-374.3" font-family="Times,serif" font-size="14.00">cen.func_80195974</text>
</a>
</g>
</g>
<!-- cen.func_80195974&#45;&gt;cen.DestroyEntity -->
<g id="edge28" class="edge">
<title>cen.func_80195974&#45;&gt;cen.DestroyEntity</title>
<path fill="none" stroke="black" d="M6053.35,-365.55C6041.32,-363.68 6028.98,-361.78 6017.34,-360 5646.71,-303.37 5203.93,-237.76 5023.72,-211.15"/>
<polygon fill="black" stroke="black" points="5024.19,-207.68 5013.78,-209.68 5023.16,-214.6 5024.19,-207.68"/>
<text text-anchor="middle" x="6048.35" y="-354.35" font-family="Times,serif" font-size="14.00">1</text>
</g>
<!-- cen.CreateEntityFromEntity -->
<g id="node30" class="node">
<title>cen.CreateEntityFromEntity</title>
<g id="a_node30"><a xlink:href="cen.CreateEntityFromEntity.svg" xlink:title="cen.CreateEntityFromEntity">
<ellipse fill="green" stroke="black" cx="6388.34" cy="-378" rx="143.77" ry="18"/>
<text text-anchor="middle" x="6388.34" y="-374.3" font-family="Times,serif" font-size="14.00">cen.CreateEntityFromEntity</text>
</a>
</g>
</g>
<!-- cen.CreateEntityFromEntity&#45;&gt;cen.DestroyEntity -->
<g id="edge29" class="edge">
<title>cen.CreateEntityFromEntity&#45;&gt;cen.DestroyEntity</title>
<path fill="none" stroke="black" d="M6289.74,-364.87C6021.76,-331.91 5283.21,-241.05 5028.8,-209.76"/>
<polygon fill="black" stroke="black" points="5029.22,-206.28 5018.87,-208.54 5028.37,-213.23 5029.22,-206.28"/>
<text text-anchor="middle" x="6284.74" y="-353.67" font-family="Times,serif" font-size="14.00">1</text>
</g>
<!-- cen.CreateEntityFromLayout -->
<g id="node31" class="node">
<title>cen.CreateEntityFromLayout</title>
<g id="a_node31"><a xlink:href="cen.CreateEntityFromLayout.svg" xlink:title="cen.CreateEntityFromLayout">
<ellipse fill="green" stroke="black" cx="6696.34" cy="-378" rx="146.47" ry="18"/>
<text text-anchor="middle" x="6696.34" y="-374.3" font-family="Times,serif" font-size="14.00">cen.CreateEntityFromLayout</text>
</a>
</g>
</g>
<!-- cen.CreateEntityFromLayout&#45;&gt;cen.DestroyEntity -->
<g id="edge30" class="edge">
<title>cen.CreateEntityFromLayout&#45;&gt;cen.DestroyEntity</title>
<path fill="none" stroke="black" d="M6591.72,-365.4C6574.88,-363.57 6557.63,-361.71 6541.34,-360 5968.3,-299.75 5279.29,-232 5033.76,-208.01"/>
<polygon fill="black" stroke="black" points="5034.1,-204.52 5023.8,-207.03 5033.41,-211.49 5034.1,-204.52"/>
<text text-anchor="middle" x="6586.72" y="-354.2" font-family="Times,serif" font-size="14.00">1</text>
</g>
<!-- cen.CreateEntityFromCurrentEntity -->
<g id="node32" class="node">
<title>cen.CreateEntityFromCurrentEntity</title>
<g id="a_node32"><a xlink:href="cen.CreateEntityFromCurrentEntity.svg" xlink:title="cen.CreateEntityFromCurrentEntity">
<ellipse fill="green" stroke="black" cx="7040.34" cy="-378" rx="180.07" ry="18"/>
<text text-anchor="middle" x="7040.34" y="-374.3" font-family="Times,serif" font-size="14.00">cen.CreateEntityFromCurrentEntity</text>
</a>
</g>
</g>
<!-- cen.CreateEntityFromCurrentEntity&#45;&gt;cen.DestroyEntity -->
<g id="edge31" class="edge">
<title>cen.CreateEntityFromCurrentEntity&#45;&gt;cen.DestroyEntity</title>
<path fill="none" stroke="black" d="M6912,-365.36C6891.7,-363.55 6870.95,-361.71 6851.34,-360 6155.06,-299.34 5315.65,-229.84 5036.63,-206.84"/>
<polygon fill="black" stroke="black" points="5036.8,-203.34 5026.55,-206.01 5036.23,-210.32 5036.8,-203.34"/>
<text text-anchor="middle" x="6907" y="-354.16" font-family="Times,serif" font-size="14.00">1</text>
</g>
<!-- cen.func_80199278 -->
<g id="node33" class="node">
<title>cen.func_80199278</title>
<g id="a_node33"><a xlink:href="cen.func_80199278.svg" xlink:title="cen.func_80199278">
<ellipse fill="red" stroke="black" cx="7339.34" cy="-378" rx="100.98" ry="18"/>
<text text-anchor="middle" x="7339.34" y="-374.3" font-family="Times,serif" font-size="14.00">cen.func_80199278</text>
</a>
</g>
</g>
<!-- cen.func_80199278&#45;&gt;cen.DestroyEntity -->
<g id="edge32" class="edge">
<title>cen.func_80199278&#45;&gt;cen.DestroyEntity</title>
<path fill="none" stroke="black" d="M7268.45,-365.16C7255.47,-363.24 7242.02,-361.42 7229.34,-360 6387.68,-265.52 5365.23,-216.9 5043.37,-203.15"/>
<polygon fill="black" stroke="black" points="5043.28,-199.64 5033.14,-202.72 5042.98,-206.64 5043.28,-199.64"/>
<text text-anchor="middle" x="7263.45" y="-353.96" font-family="Times,serif" font-size="14.00">1</text>
</g>
<!-- cen.EntityNumericDamage -->
<g id="node34" class="node">
<title>cen.EntityNumericDamage</title>
<g id="a_node34"><a xlink:href="cen.EntityNumericDamage.svg" xlink:title="cen.EntityNumericDamage">
<ellipse fill="red" stroke="black" cx="7594.34" cy="-378" rx="136.48" ry="18"/>
<text text-anchor="middle" x="7594.34" y="-374.3" font-family="Times,serif" font-size="14.00">cen.EntityNumericDamage</text>
</a>
</g>
</g>
<!-- cen.EntityNumericDamage&#45;&gt;cen.DestroyEntity -->
<g id="edge33" class="edge">
<title>cen.EntityNumericDamage&#45;&gt;cen.DestroyEntity</title>
<path fill="none" stroke="black" d="M7498.87,-365.08C7482.37,-363.23 7465.37,-361.45 7449.34,-360 6515.85,-275.37 5382.92,-219.4 5042.65,-203.59"/>
<polygon fill="black" stroke="black" points="5042.73,-200.09 5032.57,-203.12 5042.4,-207.08 5042.73,-200.09"/>
<text text-anchor="middle" x="7493.87" y="-353.88" font-family="Times,serif" font-size="14.00">1</text>
</g>
<!-- cen.func_8019902C -->
<g id="node35" class="node">
<title>cen.func_8019902C</title>
<g id="a_node35"><a xlink:href="cen.func_8019902C.svg" xlink:title="cen.func_8019902C">
<ellipse fill="red" stroke="black" cx="7851.34" cy="-378" rx="102.08" ry="18"/>
<text text-anchor="middle" x="7851.34" y="-374.3" font-family="Times,serif" font-size="14.00">cen.func_8019902C</text>
</a>
</g>
</g>
<!-- cen.func_8019902C&#45;&gt;cen.DestroyEntity -->
<g id="edge34" class="edge">
<title>cen.func_8019902C&#45;&gt;cen.DestroyEntity</title>
<path fill="none" stroke="black" d="M7779.77,-365.12C7766.36,-363.19 7752.45,-361.37 7739.34,-360 6690.85,-250.5 5412.98,-211.03 5044.98,-201.48"/>
<polygon fill="black" stroke="black" points="5044.97,-197.98 5034.89,-201.22 5044.79,-204.98 5044.97,-197.98"/>
<text text-anchor="middle" x="7774.77" y="-353.92" font-family="Times,serif" font-size="14.00">1</text>
</g>
<!-- cen.func_80195C0C -->
<g id="node36" class="node">
<title>cen.func_80195C0C</title>
<g id="a_node36"><a xlink:href="cen.func_80195C0C.svg" xlink:title="cen.func_80195C0C">
<ellipse fill="green" stroke="black" cx="8074.34" cy="-378" rx="102.88" ry="18"/>
<text text-anchor="middle" x="8074.34" y="-374.3" font-family="Times,serif" font-size="14.00">cen.func_80195C0C</text>
</a>
</g>
</g>
<!-- cen.func_80195C0C&#45;&gt;cen.DestroyEntity -->
<g id="edge35" class="edge">
<title>cen.func_80195C0C&#45;&gt;cen.DestroyEntity</title>
<path fill="none" stroke="black" d="M8002.77,-365.08C7989.37,-363.14 7975.45,-361.34 7962.34,-360 6822.63,-243.41 5431.85,-208.62 5045.3,-200.87"/>
<polygon fill="black" stroke="black" points="5045.32,-197.37 5035.25,-200.67 5045.18,-204.37 5045.32,-197.37"/>
<text text-anchor="middle" x="7997.77" y="-353.88" font-family="Times,serif" font-size="14.00">1</text>
</g>
<!-- cen.func_80194EE0 -->
<g id="node37" class="node">
<title>cen.func_80194EE0</title>
<g id="a_node37"><a xlink:href="cen.func_80194EE0.svg" xlink:title="cen.func_80194EE0">
<ellipse fill="green" stroke="black" cx="8297.34" cy="-378" rx="102.88" ry="18"/>
<text text-anchor="middle" x="8297.34" y="-374.3" font-family="Times,serif" font-size="14.00">cen.func_80194EE0</text>
</a>
</g>
</g>
<!-- cen.func_80194EE0&#45;&gt;cen.DestroyEntity -->
<g id="edge36" class="edge">
<title>cen.func_80194EE0&#45;&gt;cen.DestroyEntity</title>
<path fill="none" stroke="black" d="M8226.12,-364.99C8212.93,-363.08 8199.24,-361.3 8186.34,-360 6955.3,-235.52 5451.37,-206.16 5046.08,-200.3"/>
<polygon fill="black" stroke="black" points="5045.9,-196.8 5035.85,-200.15 5045.8,-203.8 5045.9,-196.8"/>
<text text-anchor="middle" x="8221.12" y="-353.79" font-family="Times,serif" font-size="14.00">1</text>
</g>
<!-- cen.EntityPrizeDrop -->
<g id="node38" class="node">
<title>cen.EntityPrizeDrop</title>
<g id="a_node38"><a xlink:href="cen.EntityPrizeDrop.svg" xlink:title="cen.EntityPrizeDrop">
<ellipse fill="red" stroke="black" cx="8523.34" cy="-378" rx="105.08" ry="18"/>
<text text-anchor="middle" x="8523.34" y="-374.3" font-family="Times,serif" font-size="14.00">cen.EntityPrizeDrop</text>
</a>
</g>
</g>
<!-- cen.EntityPrizeDrop&#45;&gt;cen.DestroyEntity -->
<g id="edge37" class="edge">
<title>cen.EntityPrizeDrop&#45;&gt;cen.DestroyEntity</title>
<path fill="none" stroke="black" d="M8450.19,-364.97C8436.64,-363.06 8422.58,-361.29 8409.34,-360 7085.72,-230.92 5467.49,-204.75 5045.77,-199.98"/>
<polygon fill="black" stroke="black" points="5045.77,-196.48 5035.73,-199.87 5045.69,-203.48 5045.77,-196.48"/>
<text text-anchor="middle" x="8445.19" y="-353.77" font-family="Times,serif" font-size="14.00">2</text>
</g>
<!-- cen.AllocEntity -->
<g id="node39" class="node">
<title>cen.AllocEntity</title>
<g id="a_node39"><a xlink:href="cen.AllocEntity.svg" xlink:title="cen.AllocEntity">
<ellipse fill="green" stroke="black" cx="8728.34" cy="-378" rx="81.49" ry="18"/>
<text text-anchor="middle" x="8728.34" y="-374.3" font-family="Times,serif" font-size="14.00">cen.AllocEntity</text>
</a>
</g>
</g>
<!-- cen.AllocEntity&#45;&gt;cen.DestroyEntity -->
<g id="edge38" class="edge">
<title>cen.AllocEntity&#45;&gt;cen.DestroyEntity</title>
<path fill="none" stroke="black" d="M8671.25,-365.06C8660.05,-363.08 8648.36,-361.26 8637.34,-360 7913.12,-277 5567.33,-214.61 5045.04,-201.54"/>
<polygon fill="black" stroke="black" points="5044.97,-198.03 5034.89,-201.28 5044.8,-205.03 5044.97,-198.03"/>
<text text-anchor="middle" x="8666.25" y="-353.86" font-family="Times,serif" font-size="14.00">1</text>
</g>
<!-- cen.EntityHeartDrop -->
<g id="node40" class="node">
<title>cen.EntityHeartDrop</title>
<g id="a_node40"><a xlink:href="cen.EntityHeartDrop.svg" xlink:title="cen.EntityHeartDrop">
<ellipse fill="green" stroke="black" cx="8936.34" cy="-378" rx="108.58" ry="18"/>
<text text-anchor="middle" x="8936.34" y="-374.3" font-family="Times,serif" font-size="14.00">cen.EntityHeartDrop</text>
</a>
</g>
</g>
<!-- cen.EntityHeartDrop&#45;&gt;cen.DestroyEntity -->
<g id="edge39" class="edge">
<title>cen.EntityHeartDrop&#45;&gt;cen.DestroyEntity</title>
<path fill="none" stroke="black" d="M8860.94,-364.97C8846.81,-363.05 8832.15,-361.28 8818.34,-360 7325.45,-221.82 5498.14,-202.22 5046.14,-199.45"/>
<polygon fill="black" stroke="black" points="5046.06,-195.95 5036.04,-199.39 5046.02,-202.95 5046.06,-195.95"/>
<text text-anchor="middle" x="8855.94" y="-353.77" font-family="Times,serif" font-size="14.00">1</text>
</g>
<!-- cen.CollectSubweapon -->
<g id="node41" class="node">
<title>cen.CollectSubweapon</title>
<g id="a_node41"><a xlink:href="cen.CollectSubweapon.svg" xlink:title="cen.CollectSubweapon">
<ellipse fill="green" stroke="black" cx="9178.34" cy="-378" rx="115.88" ry="18"/>
<text text-anchor="middle" x="9178.34" y="-374.3" font-family="Times,serif" font-size="14.00">cen.CollectSubweapon</text>
</a>
</g>
</g>
<!-- cen.CollectSubweapon&#45;&gt;cen.DestroyEntity -->
<g id="edge40" class="edge">
<title>cen.CollectSubweapon&#45;&gt;cen.DestroyEntity</title>
<path fill="none" stroke="black" d="M9098.76,-364.93C9084.02,-363.02 9068.74,-361.27 9054.34,-360 7463.05,-220.11 5514.73,-201.76 5046.21,-199.36"/>
<polygon fill="black" stroke="black" points="5046.1,-195.86 5036.08,-199.31 5046.06,-202.86 5046.1,-195.86"/>
<text text-anchor="middle" x="9093.76" y="-353.73" font-family="Times,serif" font-size="14.00">1</text>
</g>
<!-- cen.EntityIntenseExplosion -->
<g id="node42" class="node">
<title>cen.EntityIntenseExplosion</title>
<g id="a_node42"><a xlink:href="cen.EntityIntenseExplosion.svg" xlink:title="cen.EntityIntenseExplosion">
<ellipse fill="red" stroke="black" cx="9450.34" cy="-378" rx="138.38" ry="18"/>
<text text-anchor="middle" x="9450.34" y="-374.3" font-family="Times,serif" font-size="14.00">cen.EntityIntenseExplosion</text>
</a>
</g>
</g>
<!-- cen.EntityIntenseExplosion&#45;&gt;cen.DestroyEntity -->
<g id="edge41" class="edge">
<title>cen.EntityIntenseExplosion&#45;&gt;cen.DestroyEntity</title>
<path fill="none" stroke="black" d="M9355.16,-364.89C9337.94,-363.01 9320.12,-361.28 9303.34,-360 7606.79,-230.79 5530.85,-204.38 5046.01,-199.84"/>
<polygon fill="black" stroke="black" points="5045.91,-196.34 5035.88,-199.75 5045.85,-203.34 5045.91,-196.34"/>
<text text-anchor="middle" x="9350.16" y="-353.69" font-family="Times,serif" font-size="14.00">1</text>
</g>
<!-- cen.Update -->
<g id="node43" class="node">
<title>cen.Update</title>
<g id="a_node43"><a xlink:href="cen.Update.svg" xlink:title="cen.Update">
<ellipse fill="green" stroke="black" cx="9670.34" cy="-378" rx="63.89" ry="18"/>
<text text-anchor="middle" x="9670.34" y="-374.3" font-family="Times,serif" font-size="14.00">cen.Update</text>
</a>
</g>
</g>
<!-- cen.Update&#45;&gt;cen.DestroyEntity -->
<g id="edge42" class="edge">
<title>cen.Update&#45;&gt;cen.DestroyEntity</title>
<path fill="none" stroke="black" d="M9625.42,-365.1C9616.19,-363.06 9606.5,-361.21 9597.34,-360 8674.93,-237.83 5649.62,-205.21 5046.49,-199.86"/>
<polygon fill="black" stroke="black" points="5046.11,-196.36 5036.08,-199.77 5046.05,-203.36 5046.11,-196.36"/>
<text text-anchor="middle" x="9620.42" y="-353.9" font-family="Times,serif" font-size="14.00">1</text>
</g>
<!-- cen.EntityEnemyBlood -->
<g id="node44" class="node">
<title>cen.EntityEnemyBlood</title>
<g id="a_node44"><a xlink:href="cen.EntityEnemyBlood.svg" xlink:title="cen.EntityEnemyBlood">
<ellipse fill="green" stroke="black" cx="9869.34" cy="-378" rx="116.98" ry="18"/>
<text text-anchor="middle" x="9869.34" y="-374.3" font-family="Times,serif" font-size="14.00">cen.EntityEnemyBlood</text>
</a>
</g>
</g>
<!-- cen.EntityEnemyBlood&#45;&gt;cen.DestroyEntity -->
<g id="edge43" class="edge">
<title>cen.EntityEnemyBlood&#45;&gt;cen.DestroyEntity</title>
<path fill="none" stroke="black" d="M9788.81,-364.91C9773.73,-362.99 9758.08,-361.24 9743.34,-360 7865.24,-202.22 5561.7,-197.54 5046.7,-198.61"/>
<polygon fill="black" stroke="black" points="5046.32,-195.11 5036.32,-198.64 5046.33,-202.11 5046.32,-195.11"/>
<text text-anchor="middle" x="9783.81" y="-353.71" font-family="Times,serif" font-size="14.00">1</text>
</g>
<!-- cen.EntitySoulStealOrb -->
<g id="node45" class="node">
<title>cen.EntitySoulStealOrb</title>
<g id="a_node45"><a xlink:href="cen.EntitySoulStealOrb.svg" xlink:title="cen.EntitySoulStealOrb">
<ellipse fill="green" stroke="black" cx="10124.34" cy="-378" rx="120.48" ry="18"/>
<text text-anchor="middle" x="10124.34" y="-374.3" font-family="Times,serif" font-size="14.00">cen.EntitySoulStealOrb</text>
</a>
</g>
</g>
<!-- cen.EntitySoulStealOrb&#45;&gt;cen.DestroyEntity -->
<g id="edge44" class="edge">
<title>cen.EntitySoulStealOrb&#45;&gt;cen.DestroyEntity</title>
<path fill="none" stroke="black" d="M10041.89,-364.9C10026.45,-362.98 10010.43,-361.23 9995.34,-360 8011.39,-198.08 5577.01,-196.69 5046.53,-198.48"/>
<polygon fill="black" stroke="black" points="5046.21,-194.98 5036.22,-198.52 5046.24,-201.98 5046.21,-194.98"/>
<text text-anchor="middle" x="10036.89" y="-353.7" font-family="Times,serif" font-size="14.00">1</text>
</g>
</g>
</svg>
