<?xml version="1.0" encoding="UTF-8" standalone="no"?>
<!DOCTYPE svg PUBLIC "-//W3C//DTD SVG 1.1//EN"
 "http://www.w3.org/Graphics/SVG/1.1/DTD/svg11.dtd">
<!-- Generated by graphviz version 2.43.0 (0)
 -->
<!-- Title: cen.func_80195974 Pages: 1 -->
<svg width="784pt" height="404pt"
 viewBox="0.00 0.00 784.24 404.00" xmlns="http://www.w3.org/2000/svg" xmlns:xlink="http://www.w3.org/1999/xlink">
<g id="graph0" class="graph" transform="scale(1 1) rotate(0) translate(4 400)">
<title>cen.func_80195974</title>
<polygon fill="white" stroke="transparent" points="-4,4 -4,-400 780.24,-400 780.24,4 -4,4"/>
<!-- cen.func_80195974 -->
<g id="node1" class="node">
<title>cen.func_80195974</title>
<ellipse fill="red" stroke="black" cx="420.89" cy="-198" rx="100.98" ry="18"/>
<text text-anchor="middle" x="420.89" y="-194.3" font-family="Times,serif" font-size="14.00">cen.func_80195974</text>
</g>
<!-- cen.DestroyEntity -->
<g id="node2" class="node">
<title>cen.DestroyEntity</title>
<g id="a_node2"><a xlink:href="cen.DestroyEntity.svg" xlink:title="cen.DestroyEntity">
<ellipse fill="green" stroke="black" cx="94.89" cy="-18" rx="94.78" ry="18"/>
<text text-anchor="middle" x="94.89" y="-14.3" font-family="Times,serif" font-size="14.00">cen.DestroyEntity</text>
</a>
</g>
</g>
<!-- cen.func_80195974&#45;&gt;cen.DestroyEntity -->
<g id="edge1" class="edge">
<title>cen.func_80195974&#45;&gt;cen.DestroyEntity</title>
<path fill="none" stroke="black" d="M391.1,-180.73C331.8,-148.35 199.07,-75.88 133.32,-39.98"/>
<polygon fill="black" stroke="black" points="134.95,-36.89 124.5,-35.17 131.6,-43.03 134.95,-36.89"/>
<text text-anchor="middle" x="119.5" y="-38.97" font-family="Times,serif" font-size="14.00">1</text>
</g>
<!-- cen.func_8019BBA4 -->
<g id="node3" class="node">
<title>cen.func_8019BBA4</title>
<g id="a_node3"><a xlink:href="cen.func_8019BBA4.svg" xlink:title="cen.func_8019BBA4">
<ellipse fill="red" stroke="black" cx="310.89" cy="-18" rx="103.18" ry="18"/>
<text text-anchor="middle" x="310.89" y="-14.3" font-family="Times,serif" font-size="14.00">cen.func_8019BBA4</text>
</a>
</g>
</g>
<!-- cen.func_80195974&#45;&gt;cen.func_8019BBA4 -->
<g id="edge2" class="edge">
<title>cen.func_80195974&#45;&gt;cen.func_8019BBA4</title>
<path fill="none" stroke="black" d="M410.34,-179.93C390.96,-148.57 349.58,-81.6 326.78,-44.71"/>
<polygon fill="black" stroke="black" points="329.64,-42.68 321.41,-36.02 323.69,-46.36 329.64,-42.68"/>
<text text-anchor="middle" x="316.41" y="-39.82" font-family="Times,serif" font-size="14.00">1</text>
</g>
<!-- dra.FreePrimitives -->
<g id="node4" class="node">
<title>dra.FreePrimitives</title>
<g id="a_node4"><a xlink:href="dra.FreePrimitives.svg" xlink:title="dra.FreePrimitives">
<ellipse fill="green" stroke="black" cx="530.89" cy="-18" rx="98.58" ry="18"/>
<text text-anchor="middle" x="530.89" y="-14.3" font-family="Times,serif" font-size="14.00">dra.FreePrimitives</text>
</a>
</g>
</g>
<!-- cen.func_80195974&#45;&gt;dra.FreePrimitives -->
<g id="edge3" class="edge">
<title>cen.func_80195974&#45;&gt;dra.FreePrimitives</title>
<path fill="none" stroke="black" d="M431.44,-179.93C450.82,-148.57 492.2,-81.6 515,-44.71"/>
<polygon fill="black" stroke="black" points="518.1,-46.36 520.38,-36.02 512.14,-42.68 518.1,-46.36"/>
<text text-anchor="middle" x="515.38" y="-39.82" font-family="Times,serif" font-size="14.00">1</text>
</g>
<!-- dra.PlaySfx -->
<g id="node5" class="node">
<title>dra.PlaySfx</title>
<g id="a_node5"><a xlink:href="dra.PlaySfx.svg" xlink:title="dra.PlaySfx">
<ellipse fill="green" stroke="black" cx="711.89" cy="-18" rx="64.19" ry="18"/>
<text text-anchor="middle" x="711.89" y="-14.3" font-family="Times,serif" font-size="14.00">dra.PlaySfx</text>
</a>
</g>
</g>
<!-- cen.func_80195974&#45;&gt;dra.PlaySfx -->
<g id="edge4" class="edge">
<title>cen.func_80195974&#45;&gt;dra.PlaySfx</title>
<path fill="none" stroke="black" d="M447.75,-180.57C500.77,-148.14 618.83,-75.92 677.47,-40.05"/>
<polygon fill="black" stroke="black" points="679.65,-42.82 686.35,-34.62 676,-36.85 679.65,-42.82"/>
<text text-anchor="middle" x="681.35" y="-38.42" font-family="Times,serif" font-size="14.00">1</text>
</g>
<!-- cen.EntityPrizeDrop -->
<g id="node6" class="node">
<title>cen.EntityPrizeDrop</title>
<g id="a_node6"><a xlink:href="cen.EntityPrizeDrop.svg" xlink:title="cen.EntityPrizeDrop">
<ellipse fill="red" stroke="black" cx="420.89" cy="-378" rx="105.08" ry="18"/>
<text text-anchor="middle" x="420.89" y="-374.3" font-family="Times,serif" font-size="14.00">cen.EntityPrizeDrop</text>
</a>
</g>
</g>
<!-- cen.EntityPrizeDrop&#45;&gt;cen.func_80195974 -->
<g id="edge5" class="edge">
<title>cen.EntityPrizeDrop&#45;&gt;cen.func_80195974</title>
<path fill="none" stroke="black" d="M420.89,-359.93C420.89,-328.97 420.89,-263.3 420.89,-226.13"/>
<polygon fill="black" stroke="black" points="424.39,-226.02 420.89,-216.02 417.39,-226.02 424.39,-226.02"/>
<text text-anchor="middle" x="415.89" y="-348.73" font-family="Times,serif" font-size="14.00">1</text>
</g>
</g>
</svg>
