<?xml version="1.0" encoding="UTF-8" standalone="no"?>
<!DOCTYPE svg PUBLIC "-//W3C//DTD SVG 1.1//EN"
 "http://www.w3.org/Graphics/SVG/1.1/DTD/svg11.dtd">
<!-- Generated by graphviz version 2.43.0 (0)
 -->
<!-- Title: cen.func_8019BBA4 Pages: 1 -->
<svg width="694pt" height="404pt"
 viewBox="0.00 0.00 693.73 404.00" xmlns="http://www.w3.org/2000/svg" xmlns:xlink="http://www.w3.org/1999/xlink">
<g id="graph0" class="graph" transform="scale(1 1) rotate(0) translate(4 400)">
<title>cen.func_8019BBA4</title>
<polygon fill="white" stroke="transparent" points="-4,4 -4,-400 689.73,-400 689.73,4 -4,4"/>
<!-- cen.func_8019BBA4 -->
<g id="node1" class="node">
<title>cen.func_8019BBA4</title>
<ellipse fill="red" stroke="black" cx="371.99" cy="-198" rx="103.18" ry="18"/>
<text text-anchor="middle" x="371.99" y="-194.3" font-family="Times,serif" font-size="14.00">cen.func_8019BBA4</text>
</g>
<!-- dra.AllocPrimitives -->
<g id="node2" class="node">
<title>dra.AllocPrimitives</title>
<g id="a_node2"><a xlink:href="dra.AllocPrimitives.svg" xlink:title="dra.AllocPrimitives">
<ellipse fill="green" stroke="black" cx="371.99" cy="-18" rx="99.38" ry="18"/>
<text text-anchor="middle" x="371.99" y="-14.3" font-family="Times,serif" font-size="14.00">dra.AllocPrimitives</text>
</a>
</g>
</g>
<!-- cen.func_8019BBA4&#45;&gt;dra.AllocPrimitives -->
<g id="edge1" class="edge">
<title>cen.func_8019BBA4&#45;&gt;dra.AllocPrimitives</title>
<path fill="none" stroke="black" d="M371.99,-179.93C371.99,-148.97 371.99,-83.3 371.99,-46.13"/>
<polygon fill="black" stroke="black" points="375.49,-46.02 371.99,-36.02 368.49,-46.02 375.49,-46.02"/>
<text text-anchor="middle" x="366.99" y="-39.82" font-family="Times,serif" font-size="14.00">1</text>
</g>
<!-- cen.EntityEquipItemDrop -->
<g id="node3" class="node">
<title>cen.EntityEquipItemDrop</title>
<g id="a_node3"><a xlink:href="cen.EntityEquipItemDrop.svg" xlink:title="cen.EntityEquipItemDrop">
<ellipse fill="red" stroke="black" cx="129.99" cy="-378" rx="129.98" ry="18"/>
<text text-anchor="middle" x="129.99" y="-374.3" font-family="Times,serif" font-size="14.00">cen.EntityEquipItemDrop</text>
</a>
</g>
</g>
<!-- cen.EntityEquipItemDrop&#45;&gt;cen.func_8019BBA4 -->
<g id="edge2" class="edge">
<title>cen.EntityEquipItemDrop&#45;&gt;cen.func_8019BBA4</title>
<path fill="none" stroke="black" d="M152.76,-360.25C196.47,-328.1 292.17,-257.71 341.4,-221.5"/>
<polygon fill="black" stroke="black" points="343.48,-224.32 349.46,-215.57 339.33,-218.68 343.48,-224.32"/>
<text text-anchor="middle" x="147.76" y="-349.05" font-family="Times,serif" font-size="14.00">1</text>
</g>
<!-- cen.TestCollisions -->
<g id="node4" class="node">
<title>cen.TestCollisions</title>
<g id="a_node4"><a xlink:href="cen.TestCollisions.svg" xlink:title="cen.TestCollisions">
<ellipse fill="red" stroke="black" cx="371.99" cy="-378" rx="94.48" ry="18"/>
<text text-anchor="middle" x="371.99" y="-374.3" font-family="Times,serif" font-size="14.00">cen.TestCollisions</text>
</a>
</g>
</g>
<!-- cen.TestCollisions&#45;&gt;cen.func_8019BBA4 -->
<g id="edge3" class="edge">
<title>cen.TestCollisions&#45;&gt;cen.func_8019BBA4</title>
<path fill="none" stroke="black" d="M371.99,-359.93C371.99,-328.97 371.99,-263.3 371.99,-226.13"/>
<polygon fill="black" stroke="black" points="375.49,-226.02 371.99,-216.02 368.49,-226.02 375.49,-226.02"/>
<text text-anchor="middle" x="366.99" y="-348.73" font-family="Times,serif" font-size="14.00">1</text>
</g>
<!-- cen.func_80195974 -->
<g id="node5" class="node">
<title>cen.func_80195974</title>
<g id="a_node5"><a xlink:href="cen.func_80195974.svg" xlink:title="cen.func_80195974">
<ellipse fill="red" stroke="black" cx="584.99" cy="-378" rx="100.98" ry="18"/>
<text text-anchor="middle" x="584.99" y="-374.3" font-family="Times,serif" font-size="14.00">cen.func_80195974</text>
</a>
</g>
</g>
<!-- cen.func_80195974&#45;&gt;cen.func_8019BBA4 -->
<g id="edge4" class="edge">
<title>cen.func_80195974&#45;&gt;cen.func_8019BBA4</title>
<path fill="none" stroke="black" d="M564.95,-360.25C526.81,-328.38 443.71,-258.94 400.06,-222.45"/>
<polygon fill="black" stroke="black" points="402.05,-219.56 392.13,-215.83 397.56,-224.93 402.05,-219.56"/>
<text text-anchor="middle" x="559.95" y="-349.05" font-family="Times,serif" font-size="14.00">1</text>
</g>
</g>
</svg>
