<?xml version="1.0" encoding="UTF-8" standalone="no"?>
<!DOCTYPE svg PUBLIC "-//W3C//DTD SVG 1.1//EN"
 "http://www.w3.org/Graphics/SVG/1.1/DTD/svg11.dtd">
<!-- Generated by graphviz version 2.43.0 (0)
 -->
<!-- Title: cen.CollectSubweapon Pages: 1 -->
<svg width="496pt" height="404pt"
 viewBox="0.00 0.00 496.24 404.00" xmlns="http://www.w3.org/2000/svg" xmlns:xlink="http://www.w3.org/1999/xlink">
<g id="graph0" class="graph" transform="scale(1 1) rotate(0) translate(4 400)">
<title>cen.CollectSubweapon</title>
<polygon fill="white" stroke="transparent" points="-4,4 -4,-400 492.24,-400 492.24,4 -4,4"/>
<!-- cen.CollectSubweapon -->
<g id="node1" class="node">
<title>cen.CollectSubweapon</title>
<ellipse fill="green" stroke="black" cx="213.34" cy="-198" rx="115.88" ry="18"/>
<text text-anchor="middle" x="213.34" y="-194.3" font-family="Times,serif" font-size="14.00">cen.CollectSubweapon</text>
</g>
<!-- dra.PlaySfx -->
<g id="node2" class="node">
<title>dra.PlaySfx</title>
<g id="a_node2"><a xlink:href="dra.PlaySfx.svg" xlink:title="dra.PlaySfx">
<ellipse fill="green" stroke="black" cx="64.34" cy="-18" rx="64.19" ry="18"/>
<text text-anchor="middle" x="64.34" y="-14.3" font-family="Times,serif" font-size="14.00">dra.PlaySfx</text>
</a>
</g>
</g>
<!-- cen.CollectSubweapon&#45;&gt;dra.PlaySfx -->
<g id="edge1" class="edge">
<title>cen.CollectSubweapon&#45;&gt;dra.PlaySfx</title>
<path fill="none" stroke="black" d="M199.06,-179.93C172.51,-148.22 115.5,-80.12 84.85,-43.5"/>
<polygon fill="black" stroke="black" points="87.47,-41.18 78.37,-35.76 82.11,-45.67 87.47,-41.18"/>
<text text-anchor="middle" x="73.37" y="-39.56" font-family="Times,serif" font-size="14.00">1</text>
</g>
<!-- cen.SetStep -->
<g id="node3" class="node">
<title>cen.SetStep</title>
<g id="a_node3"><a xlink:href="cen.SetStep.svg" xlink:title="cen.SetStep">
<ellipse fill="green" stroke="black" cx="213.34" cy="-18" rx="66.89" ry="18"/>
<text text-anchor="middle" x="213.34" y="-14.3" font-family="Times,serif" font-size="14.00">cen.SetStep</text>
</a>
</g>
</g>
<!-- cen.CollectSubweapon&#45;&gt;cen.SetStep -->
<g id="edge2" class="edge">
<title>cen.CollectSubweapon&#45;&gt;cen.SetStep</title>
<path fill="none" stroke="black" d="M213.34,-179.93C213.34,-148.97 213.34,-83.3 213.34,-46.13"/>
<polygon fill="black" stroke="black" points="216.84,-46.02 213.34,-36.02 209.84,-46.02 216.84,-46.02"/>
<text text-anchor="middle" x="208.34" y="-39.82" font-family="Times,serif" font-size="14.00">1</text>
</g>
<!-- cen.DestroyEntity -->
<g id="node4" class="node">
<title>cen.DestroyEntity</title>
<g id="a_node4"><a xlink:href="cen.DestroyEntity.svg" xlink:title="cen.DestroyEntity">
<ellipse fill="green" stroke="black" cx="393.34" cy="-18" rx="94.78" ry="18"/>
<text text-anchor="middle" x="393.34" y="-14.3" font-family="Times,serif" font-size="14.00">cen.DestroyEntity</text>
</a>
</g>
</g>
<!-- cen.CollectSubweapon&#45;&gt;cen.DestroyEntity -->
<g id="edge3" class="edge">
<title>cen.CollectSubweapon&#45;&gt;cen.DestroyEntity</title>
<path fill="none" stroke="black" d="M230.6,-179.93C262.81,-148.09 332.12,-79.54 369.04,-43.04"/>
<polygon fill="black" stroke="black" points="371.75,-45.28 376.4,-35.76 366.83,-40.3 371.75,-45.28"/>
<text text-anchor="middle" x="371.4" y="-39.56" font-family="Times,serif" font-size="14.00">1</text>
</g>
<!-- cen.EntityPrizeDrop -->
<g id="node5" class="node">
<title>cen.EntityPrizeDrop</title>
<g id="a_node5"><a xlink:href="cen.EntityPrizeDrop.svg" xlink:title="cen.EntityPrizeDrop">
<ellipse fill="red" stroke="black" cx="213.34" cy="-378" rx="105.08" ry="18"/>
<text text-anchor="middle" x="213.34" y="-374.3" font-family="Times,serif" font-size="14.00">cen.EntityPrizeDrop</text>
</a>
</g>
</g>
<!-- cen.EntityPrizeDrop&#45;&gt;cen.CollectSubweapon -->
<g id="edge4" class="edge">
<title>cen.EntityPrizeDrop&#45;&gt;cen.CollectSubweapon</title>
<path fill="none" stroke="black" d="M213.34,-359.93C213.34,-328.97 213.34,-263.3 213.34,-226.13"/>
<polygon fill="black" stroke="black" points="216.84,-226.02 213.34,-216.02 209.84,-226.02 216.84,-226.02"/>
<text text-anchor="middle" x="208.34" y="-348.73" font-family="Times,serif" font-size="14.00">1</text>
</g>
</g>
</svg>
