<?xml version="1.0" encoding="UTF-8" standalone="no"?>
<!DOCTYPE svg PUBLIC "-//W3C//DTD SVG 1.1//EN"
 "http://www.w3.org/Graphics/SVG/1.1/DTD/svg11.dtd">
<!-- Generated by graphviz version 2.43.0 (0)
 -->
<!-- Title: cen.func_8019565C Pages: 1 -->
<svg width="570pt" height="404pt"
 viewBox="0.00 0.00 569.68 404.00" xmlns="http://www.w3.org/2000/svg" xmlns:xlink="http://www.w3.org/1999/xlink">
<g id="graph0" class="graph" transform="scale(1 1) rotate(0) translate(4 400)">
<title>cen.func_8019565C</title>
<polygon fill="white" stroke="transparent" points="-4,4 -4,-400 565.68,-400 565.68,4 -4,4"/>
<!-- cen.func_8019565C -->
<g id="node1" class="node">
<title>cen.func_8019565C</title>
<ellipse fill="green" stroke="black" cx="321.78" cy="-198" rx="102.08" ry="18"/>
<text text-anchor="middle" x="321.78" y="-194.3" font-family="Times,serif" font-size="14.00">cen.func_8019565C</text>
</g>
<!-- cen.PreventEntityFromRespawning -->
<g id="node2" class="node">
<title>cen.PreventEntityFromRespawning</title>
<g id="a_node2"><a xlink:href="cen.PreventEntityFromRespawning.svg" xlink:title="cen.PreventEntityFromRespawning">
<ellipse fill="green" stroke="black" cx="176.78" cy="-18" rx="176.57" ry="18"/>
<text text-anchor="middle" x="176.78" y="-14.3" font-family="Times,serif" font-size="14.00">cen.PreventEntityFromRespawning</text>
</a>
</g>
</g>
<!-- cen.func_8019565C&#45;&gt;cen.PreventEntityFromRespawning -->
<g id="edge1" class="edge">
<title>cen.func_8019565C&#45;&gt;cen.PreventEntityFromRespawning</title>
<path fill="none" stroke="black" d="M307.88,-179.93C282.11,-148.3 226.85,-80.46 196.97,-43.78"/>
<polygon fill="black" stroke="black" points="199.67,-41.56 190.65,-36.02 194.25,-45.98 199.67,-41.56"/>
<text text-anchor="middle" x="185.65" y="-39.82" font-family="Times,serif" font-size="14.00">1</text>
</g>
<!-- cen.DestroyEntity -->
<g id="node3" class="node">
<title>cen.DestroyEntity</title>
<g id="a_node3"><a xlink:href="cen.DestroyEntity.svg" xlink:title="cen.DestroyEntity">
<ellipse fill="green" stroke="black" cx="466.78" cy="-18" rx="94.78" ry="18"/>
<text text-anchor="middle" x="466.78" y="-14.3" font-family="Times,serif" font-size="14.00">cen.DestroyEntity</text>
</a>
</g>
</g>
<!-- cen.func_8019565C&#45;&gt;cen.DestroyEntity -->
<g id="edge2" class="edge">
<title>cen.func_8019565C&#45;&gt;cen.DestroyEntity</title>
<path fill="none" stroke="black" d="M335.69,-179.93C361.45,-148.3 416.71,-80.46 446.6,-43.78"/>
<polygon fill="black" stroke="black" points="449.32,-45.98 452.92,-36.02 443.89,-41.56 449.32,-45.98"/>
<text text-anchor="middle" x="447.92" y="-39.82" font-family="Times,serif" font-size="14.00">1</text>
</g>
<!-- cen.EntityUnkId01 -->
<g id="node4" class="node">
<title>cen.EntityUnkId01</title>
<g id="a_node4"><a xlink:href="cen.EntityUnkId01.svg" xlink:title="cen.EntityUnkId01">
<ellipse fill="green" stroke="black" cx="321.78" cy="-378" rx="98.58" ry="18"/>
<text text-anchor="middle" x="321.78" y="-374.3" font-family="Times,serif" font-size="14.00">cen.EntityUnkId01</text>
</a>
</g>
</g>
<!-- cen.EntityUnkId01&#45;&gt;cen.func_8019565C -->
<g id="edge3" class="edge">
<title>cen.EntityUnkId01&#45;&gt;cen.func_8019565C</title>
<path fill="none" stroke="black" d="M321.78,-359.93C321.78,-328.97 321.78,-263.3 321.78,-226.13"/>
<polygon fill="black" stroke="black" points="325.28,-226.02 321.78,-216.02 318.28,-226.02 325.28,-226.02"/>
<text text-anchor="middle" x="316.78" y="-348.73" font-family="Times,serif" font-size="14.00">1</text>
</g>
</g>
</svg>
