<?xml version="1.0" encoding="UTF-8" standalone="no"?>
<!DOCTYPE svg PUBLIC "-//W3C//DTD SVG 1.1//EN"
 "http://www.w3.org/Graphics/SVG/1.1/DTD/svg11.dtd">
<!-- Generated by graphviz version 2.43.0 (0)
 -->
<!-- Title: cen.func_8018E180 Pages: 1 -->
<svg width="212pt" height="218pt"
 viewBox="0.00 0.00 212.08 218.00" xmlns="http://www.w3.org/2000/svg" xmlns:xlink="http://www.w3.org/1999/xlink">
<g id="graph0" class="graph" transform="scale(1 1) rotate(0) translate(4 214)">
<title>cen.func_8018E180</title>
<polygon fill="white" stroke="transparent" points="-4,4 -4,-214 208.08,-214 208.08,4 -4,4"/>
<!-- cen.func_8018E180 -->
<g id="node1" class="node">
<title>cen.func_8018E180</title>
<ellipse fill="red" stroke="black" cx="102.04" cy="-105" rx="102.08" ry="18"/>
<text text-anchor="middle" x="102.04" y="-101.3" font-family="Times,serif" font-size="14.00">cen.func_8018E180</text>
</g>
<!-- cen.func_8018E124 -->
<g id="node2" class="node">
<title>cen.func_8018E124</title>
<g id="a_node2"><a xlink:href="cen.func_8018E124.svg" xlink:title="cen.func_8018E124">
<ellipse fill="green" stroke="black" cx="102.04" cy="-18" rx="102.08" ry="18"/>
<text text-anchor="middle" x="102.04" y="-14.3" font-family="Times,serif" font-size="14.00">cen.func_8018E124</text>
</a>
</g>
</g>
<!-- cen.func_8018E180&#45;&gt;cen.func_8018E124 -->
<g id="edge1" class="edge">
<title>cen.func_8018E180&#45;&gt;cen.func_8018E124</title>
<path fill="none" stroke="black" d="M102.04,-86.8C102.04,-75.16 102.04,-59.55 102.04,-46.24"/>
<polygon fill="black" stroke="black" points="105.54,-46.18 102.04,-36.18 98.54,-46.18 105.54,-46.18"/>
<text text-anchor="middle" x="107.04" y="-57.8" font-family="Times,serif" font-size="14.00">1</text>
</g>
<!-- cen.EntityUnkId16 -->
<g id="node3" class="node">
<title>cen.EntityUnkId16</title>
<g id="a_node3"><a xlink:href="cen.EntityUnkId16.svg" xlink:title="cen.EntityUnkId16">
<ellipse fill="red" stroke="black" cx="102.04" cy="-192" rx="98.58" ry="18"/>
<text text-anchor="middle" x="102.04" y="-188.3" font-family="Times,serif" font-size="14.00">cen.EntityUnkId16</text>
</a>
</g>
</g>
<!-- cen.EntityUnkId16&#45;&gt;cen.func_8018E180 -->
<g id="edge2" class="edge">
<title>cen.EntityUnkId16&#45;&gt;cen.func_8018E180</title>
<path fill="none" stroke="black" d="M102.04,-173.8C102.04,-162.16 102.04,-146.55 102.04,-133.24"/>
<polygon fill="black" stroke="black" points="105.54,-133.18 102.04,-123.18 98.54,-133.18 105.54,-133.18"/>
<text text-anchor="middle" x="107.04" y="-144.8" font-family="Times,serif" font-size="14.00">2</text>
</g>
</g>
</svg>
