<?xml version="1.0" encoding="UTF-8" standalone="no"?>
<!DOCTYPE svg PUBLIC "-//W3C//DTD SVG 1.1//EN"
 "http://www.w3.org/Graphics/SVG/1.1/DTD/svg11.dtd">
<!-- Generated by graphviz version 2.43.0 (0)
 -->
<!-- Title: cen.func_80194D08 Pages: 1 -->
<svg width="500pt" height="404pt"
 viewBox="0.00 0.00 500.23 404.00" xmlns="http://www.w3.org/2000/svg" xmlns:xlink="http://www.w3.org/1999/xlink">
<g id="graph0" class="graph" transform="scale(1 1) rotate(0) translate(4 400)">
<title>cen.func_80194D08</title>
<polygon fill="white" stroke="transparent" points="-4,4 -4,-400 496.23,-400 496.23,4 -4,4"/>
<!-- cen.func_80194D08 -->
<g id="node1" class="node">
<title>cen.func_80194D08</title>
<ellipse fill="green" stroke="black" cx="243.99" cy="-198" rx="102.88" ry="18"/>
<text text-anchor="middle" x="243.99" y="-194.3" font-family="Times,serif" font-size="14.00">cen.func_80194D08</text>
</g>
<!-- main.rcos -->
<g id="node2" class="node">
<title>main.rcos</title>
<g id="a_node2"><a xlink:href="main.rcos.svg" xlink:title="main.rcos">
<ellipse fill="red" stroke="black" cx="179.99" cy="-18" rx="55.79" ry="18"/>
<text text-anchor="middle" x="179.99" y="-14.3" font-family="Times,serif" font-size="14.00">main.rcos</text>
</a>
</g>
</g>
<!-- cen.func_80194D08&#45;&gt;main.rcos -->
<g id="edge1" class="edge">
<title>cen.func_80194D08&#45;&gt;main.rcos</title>
<path fill="none" stroke="black" d="M237.85,-179.93C226.67,-148.83 202.91,-82.73 189.57,-45.65"/>
<polygon fill="black" stroke="black" points="192.78,-44.24 186.11,-36.02 186.2,-46.61 192.78,-44.24"/>
<text text-anchor="middle" x="181.11" y="-39.82" font-family="Times,serif" font-size="14.00">1</text>
</g>
<!-- main.rsin -->
<g id="node3" class="node">
<title>main.rsin</title>
<g id="a_node3"><a xlink:href="main.rsin.svg" xlink:title="main.rsin">
<ellipse fill="green" stroke="black" cx="307.99" cy="-18" rx="54.69" ry="18"/>
<text text-anchor="middle" x="307.99" y="-14.3" font-family="Times,serif" font-size="14.00">main.rsin</text>
</a>
</g>
</g>
<!-- cen.func_80194D08&#45;&gt;main.rsin -->
<g id="edge2" class="edge">
<title>cen.func_80194D08&#45;&gt;main.rsin</title>
<path fill="none" stroke="black" d="M250.13,-179.93C261.31,-148.83 285.07,-82.73 298.41,-45.65"/>
<polygon fill="black" stroke="black" points="301.78,-46.61 301.87,-36.02 295.19,-44.24 301.78,-46.61"/>
<text text-anchor="middle" x="296.87" y="-39.82" font-family="Times,serif" font-size="14.00">1</text>
</g>
<!-- cen.EntityEnemyBlood -->
<g id="node4" class="node">
<title>cen.EntityEnemyBlood</title>
<g id="a_node4"><a xlink:href="cen.EntityEnemyBlood.svg" xlink:title="cen.EntityEnemyBlood">
<ellipse fill="green" stroke="black" cx="116.99" cy="-378" rx="116.98" ry="18"/>
<text text-anchor="middle" x="116.99" y="-374.3" font-family="Times,serif" font-size="14.00">cen.EntityEnemyBlood</text>
</a>
</g>
</g>
<!-- cen.EntityEnemyBlood&#45;&gt;cen.func_80194D08 -->
<g id="edge3" class="edge">
<title>cen.EntityEnemyBlood&#45;&gt;cen.func_80194D08</title>
<path fill="none" stroke="black" d="M129.17,-359.93C151.64,-328.43 199.73,-261.03 225.98,-224.24"/>
<polygon fill="black" stroke="black" points="228.89,-226.19 231.85,-216.02 223.19,-222.12 228.89,-226.19"/>
<text text-anchor="middle" x="124.17" y="-348.73" font-family="Times,serif" font-size="14.00">1</text>
</g>
<!-- cen.EntitySoulStealOrb -->
<g id="node5" class="node">
<title>cen.EntitySoulStealOrb</title>
<g id="a_node5"><a xlink:href="cen.EntitySoulStealOrb.svg" xlink:title="cen.EntitySoulStealOrb">
<ellipse fill="green" stroke="black" cx="371.99" cy="-378" rx="120.48" ry="18"/>
<text text-anchor="middle" x="371.99" y="-374.3" font-family="Times,serif" font-size="14.00">cen.EntitySoulStealOrb</text>
</a>
</g>
</g>
<!-- cen.EntitySoulStealOrb&#45;&gt;cen.func_80194D08 -->
<g id="edge4" class="edge">
<title>cen.EntitySoulStealOrb&#45;&gt;cen.func_80194D08</title>
<path fill="none" stroke="black" d="M359.72,-359.93C337.07,-328.43 288.6,-261.03 262.14,-224.24"/>
<polygon fill="black" stroke="black" points="264.91,-222.09 256.23,-216.02 259.22,-226.18 264.91,-222.09"/>
<text text-anchor="middle" x="354.72" y="-348.73" font-family="Times,serif" font-size="14.00">1</text>
</g>
</g>
</svg>
