<?xml version="1.0" encoding="UTF-8" standalone="no"?>
<!DOCTYPE svg PUBLIC "-//W3C//DTD SVG 1.1//EN"
 "http://www.w3.org/Graphics/SVG/1.1/DTD/svg11.dtd">
<!-- Generated by graphviz version 2.43.0 (0)
 -->
<!-- Title: cen.EntityStageNamePopup Pages: 1 -->
<svg width="1122pt" height="224pt"
 viewBox="0.00 0.00 1121.84 224.00" xmlns="http://www.w3.org/2000/svg" xmlns:xlink="http://www.w3.org/1999/xlink">
<g id="graph0" class="graph" transform="scale(1 1) rotate(0) translate(4 220)">
<title>cen.EntityStageNamePopup</title>
<polygon fill="white" stroke="transparent" points="-4,4 -4,-220 1117.84,-220 1117.84,4 -4,4"/>
<!-- cen.EntityStageNamePopup -->
<g id="node1" class="node">
<title>cen.EntityStageNamePopup</title>
<ellipse fill="red" stroke="black" cx="592.79" cy="-198" rx="141.88" ry="18"/>
<text text-anchor="middle" x="592.79" y="-194.3" font-family="Times,serif" font-size="14.00">cen.EntityStageNamePopup</text>
</g>
<!-- cen.InitializeEntity -->
<g id="node2" class="node">
<title>cen.InitializeEntity</title>
<g id="a_node2"><a xlink:href="cen.InitializeEntity.svg" xlink:title="cen.InitializeEntity">
<ellipse fill="red" stroke="black" cx="98.79" cy="-18" rx="98.58" ry="18"/>
<text text-anchor="middle" x="98.79" y="-14.3" font-family="Times,serif" font-size="14.00">cen.InitializeEntity</text>
</a>
</g>
</g>
<!-- cen.EntityStageNamePopup&#45;&gt;cen.InitializeEntity -->
<g id="edge1" class="edge">
<title>cen.EntityStageNamePopup&#45;&gt;cen.InitializeEntity</title>
<path fill="none" stroke="black" d="M548.08,-180.89C456.58,-147.92 248.38,-72.9 150.93,-37.79"/>
<polygon fill="black" stroke="black" points="151.88,-34.41 141.29,-34.31 149.51,-40.99 151.88,-34.41"/>
<text text-anchor="middle" x="136.29" y="-38.11" font-family="Times,serif" font-size="14.00">1</text>
</g>
<!-- dra.AllocPrimitives -->
<g id="node3" class="node">
<title>dra.AllocPrimitives</title>
<g id="a_node3"><a xlink:href="dra.AllocPrimitives.svg" xlink:title="dra.AllocPrimitives">
<ellipse fill="green" stroke="black" cx="314.79" cy="-18" rx="99.38" ry="18"/>
<text text-anchor="middle" x="314.79" y="-14.3" font-family="Times,serif" font-size="14.00">dra.AllocPrimitives</text>
</a>
</g>
</g>
<!-- cen.EntityStageNamePopup&#45;&gt;dra.AllocPrimitives -->
<g id="edge2" class="edge">
<title>cen.EntityStageNamePopup&#45;&gt;dra.AllocPrimitives</title>
<path fill="none" stroke="black" d="M566.64,-180.25C516.22,-147.97 405.57,-77.13 349.23,-41.05"/>
<polygon fill="black" stroke="black" points="350.98,-38.02 340.67,-35.57 347.21,-43.91 350.98,-38.02"/>
<text text-anchor="middle" x="335.67" y="-39.37" font-family="Times,serif" font-size="14.00">1</text>
</g>
<!-- cen.Random -->
<g id="node4" class="node">
<title>cen.Random</title>
<g id="a_node4"><a xlink:href="cen.Random.svg" xlink:title="cen.Random">
<ellipse fill="green" stroke="black" cx="499.79" cy="-18" rx="67.69" ry="18"/>
<text text-anchor="middle" x="499.79" y="-14.3" font-family="Times,serif" font-size="14.00">cen.Random</text>
</a>
</g>
</g>
<!-- cen.EntityStageNamePopup&#45;&gt;cen.Random -->
<g id="edge3" class="edge">
<title>cen.EntityStageNamePopup&#45;&gt;cen.Random</title>
<path fill="none" stroke="black" d="M583.87,-179.93C567.56,-148.7 532.8,-82.17 513.47,-45.18"/>
<polygon fill="black" stroke="black" points="516.41,-43.26 508.68,-36.02 510.21,-46.5 516.41,-43.26"/>
<text text-anchor="middle" x="503.68" y="-39.82" font-family="Times,serif" font-size="14.00">4</text>
</g>
<!-- cen.func_8019A420 -->
<g id="node5" class="node">
<title>cen.func_8019A420</title>
<g id="a_node5"><a xlink:href="cen.func_8019A420.svg" xlink:title="cen.func_8019A420">
<ellipse fill="green" stroke="black" cx="686.79" cy="-18" rx="101.28" ry="18"/>
<text text-anchor="middle" x="686.79" y="-14.3" font-family="Times,serif" font-size="14.00">cen.func_8019A420</text>
</a>
</g>
</g>
<!-- cen.EntityStageNamePopup&#45;&gt;cen.func_8019A420 -->
<g id="edge4" class="edge">
<title>cen.EntityStageNamePopup&#45;&gt;cen.func_8019A420</title>
<path fill="none" stroke="black" d="M601.8,-179.93C618.3,-148.7 653.43,-82.17 672.97,-45.18"/>
<polygon fill="black" stroke="black" points="676.23,-46.49 677.81,-36.02 670.04,-43.22 676.23,-46.49"/>
<text text-anchor="middle" x="672.81" y="-39.82" font-family="Times,serif" font-size="14.00">2</text>
</g>
<!-- cen.DestroyEntity -->
<g id="node6" class="node">
<title>cen.DestroyEntity</title>
<g id="a_node6"><a xlink:href="cen.DestroyEntity.svg" xlink:title="cen.DestroyEntity">
<ellipse fill="green" stroke="black" cx="900.79" cy="-18" rx="94.78" ry="18"/>
<text text-anchor="middle" x="900.79" y="-14.3" font-family="Times,serif" font-size="14.00">cen.DestroyEntity</text>
</a>
</g>
</g>
<!-- cen.EntityStageNamePopup&#45;&gt;cen.DestroyEntity -->
<g id="edge5" class="edge">
<title>cen.EntityStageNamePopup&#45;&gt;cen.DestroyEntity</title>
<path fill="none" stroke="black" d="M621.77,-180.25C678,-147.75 801.85,-76.18 863.88,-40.33"/>
<polygon fill="black" stroke="black" points="865.66,-43.35 872.56,-35.31 862.15,-37.29 865.66,-43.35"/>
<text text-anchor="middle" x="867.56" y="-39.11" font-family="Times,serif" font-size="14.00">1</text>
</g>
<!-- FntPrint -->
<g id="node7" class="node">
<title>FntPrint</title>
<g id="a_node7"><a xlink:href="FntPrint.svg" xlink:title="FntPrint">
<ellipse fill="lightblue" stroke="black" cx="1063.79" cy="-18" rx="50.09" ry="18"/>
<text text-anchor="middle" x="1063.79" y="-14.3" font-family="Times,serif" font-size="14.00">FntPrint</text>
</a>
</g>
</g>
<!-- cen.EntityStageNamePopup&#45;&gt;FntPrint -->
<g id="edge6" class="edge">
<title>cen.EntityStageNamePopup&#45;&gt;FntPrint</title>
<path fill="none" stroke="black" d="M635.84,-180.73C725.58,-146.82 931.74,-68.9 1021.14,-35.12"/>
<polygon fill="black" stroke="black" points="1022.57,-38.32 1030.69,-31.51 1020.1,-31.77 1022.57,-38.32"/>
<text text-anchor="middle" x="1025.69" y="-35.31" font-family="Times,serif" font-size="14.00">2</text>
</g>
</g>
</svg>
