<?xml version="1.0" encoding="UTF-8" standalone="no"?>
<!DOCTYPE svg PUBLIC "-//W3C//DTD SVG 1.1//EN"
 "http://www.w3.org/Graphics/SVG/1.1/DTD/svg11.dtd">
<!-- Generated by graphviz version 2.43.0 (0)
 -->
<!-- Title: cen.func_80194674 Pages: 1 -->
<svg width="790pt" height="224pt"
 viewBox="0.00 0.00 790.33 224.00" xmlns="http://www.w3.org/2000/svg" xmlns:xlink="http://www.w3.org/1999/xlink">
<g id="graph0" class="graph" transform="scale(1 1) rotate(0) translate(4 220)">
<title>cen.func_80194674</title>
<polygon fill="white" stroke="transparent" points="-4,4 -4,-220 786.33,-220 786.33,4 -4,4"/>
<!-- cen.func_80194674 -->
<g id="node1" class="node">
<title>cen.func_80194674</title>
<ellipse fill="green" stroke="black" cx="360.84" cy="-198" rx="100.98" ry="18"/>
<text text-anchor="middle" x="360.84" y="-194.3" font-family="Times,serif" font-size="14.00">cen.func_80194674</text>
</g>
<!-- cen.MoveEntity -->
<g id="node2" class="node">
<title>cen.MoveEntity</title>
<g id="a_node2"><a xlink:href="cen.MoveEntity.svg" xlink:title="cen.MoveEntity">
<ellipse fill="green" stroke="black" cx="83.84" cy="-18" rx="83.69" ry="18"/>
<text text-anchor="middle" x="83.84" y="-14.3" font-family="Times,serif" font-size="14.00">cen.MoveEntity</text>
</a>
</g>
</g>
<!-- cen.func_80194674&#45;&gt;cen.MoveEntity -->
<g id="edge1" class="edge">
<title>cen.func_80194674&#45;&gt;cen.MoveEntity</title>
<path fill="none" stroke="black" d="M335.28,-180.57C285.19,-148.39 174.12,-77.01 117.88,-40.87"/>
<polygon fill="black" stroke="black" points="119.65,-37.85 109.34,-35.39 115.86,-43.74 119.65,-37.85"/>
<text text-anchor="middle" x="104.34" y="-39.19" font-family="Times,serif" font-size="14.00">1</text>
</g>
<!-- cen.FallEntity -->
<g id="node3" class="node">
<title>cen.FallEntity</title>
<g id="a_node3"><a xlink:href="cen.FallEntity.svg" xlink:title="cen.FallEntity">
<ellipse fill="green" stroke="black" cx="260.84" cy="-18" rx="75.29" ry="18"/>
<text text-anchor="middle" x="260.84" y="-14.3" font-family="Times,serif" font-size="14.00">cen.FallEntity</text>
</a>
</g>
</g>
<!-- cen.func_80194674&#45;&gt;cen.FallEntity -->
<g id="edge2" class="edge">
<title>cen.func_80194674&#45;&gt;cen.FallEntity</title>
<path fill="none" stroke="black" d="M351.25,-179.93C333.71,-148.7 296.33,-82.17 275.55,-45.18"/>
<polygon fill="black" stroke="black" points="278.35,-43.02 270.4,-36.02 272.25,-46.45 278.35,-43.02"/>
<text text-anchor="middle" x="265.4" y="-39.82" font-family="Times,serif" font-size="14.00">1</text>
</g>
<!-- g_api_CheckCollision -->
<g id="node4" class="node">
<title>g_api_CheckCollision</title>
<g id="a_node4"><a xlink:href="g_api_CheckCollision.svg" xlink:title="g_api_CheckCollision">
<ellipse fill="lightblue" stroke="black" cx="461.84" cy="-18" rx="107.78" ry="18"/>
<text text-anchor="middle" x="461.84" y="-14.3" font-family="Times,serif" font-size="14.00">g_api_CheckCollision</text>
</a>
</g>
</g>
<!-- cen.func_80194674&#45;&gt;g_api_CheckCollision -->
<g id="edge3" class="edge">
<title>cen.func_80194674&#45;&gt;g_api_CheckCollision</title>
<path fill="none" stroke="black" d="M370.53,-179.93C388.25,-148.7 426,-82.17 446.99,-45.18"/>
<polygon fill="black" stroke="black" points="450.3,-46.44 452.19,-36.02 444.21,-42.99 450.3,-46.44"/>
<text text-anchor="middle" x="447.19" y="-39.82" font-family="Times,serif" font-size="14.00">2</text>
</g>
<!-- dra.CheckCollision -->
<g id="node5" class="node">
<title>dra.CheckCollision</title>
<g id="a_node5"><a xlink:href="dra.CheckCollision.svg" xlink:title="dra.CheckCollision">
<ellipse fill="green" stroke="black" cx="684.84" cy="-18" rx="97.48" ry="18"/>
<text text-anchor="middle" x="684.84" y="-14.3" font-family="Times,serif" font-size="14.00">dra.CheckCollision</text>
</a>
</g>
</g>
<!-- cen.func_80194674&#45;&gt;dra.CheckCollision -->
<g id="edge4" class="edge">
<title>cen.func_80194674&#45;&gt;dra.CheckCollision</title>
<path fill="none" stroke="black" d="M390.45,-180.73C449.39,-148.35 581.3,-75.88 646.65,-39.98"/>
<polygon fill="black" stroke="black" points="648.34,-43.05 655.42,-35.17 644.97,-36.91 648.34,-43.05"/>
<text text-anchor="middle" x="650.42" y="-38.97" font-family="Times,serif" font-size="14.00">1</text>
</g>
</g>
</svg>
