<?xml version="1.0" encoding="UTF-8" standalone="no"?>
<!DOCTYPE svg PUBLIC "-//W3C//DTD SVG 1.1//EN"
 "http://www.w3.org/Graphics/SVG/1.1/DTD/svg11.dtd">
<!-- Generated by graphviz version 2.43.0 (0)
 -->
<!-- Title: cen.MoveEntity Pages: 1 -->
<svg width="2551pt" height="224pt"
 viewBox="0.00 0.00 2550.58 224.00" xmlns="http://www.w3.org/2000/svg" xmlns:xlink="http://www.w3.org/1999/xlink">
<g id="graph0" class="graph" transform="scale(1 1) rotate(0) translate(4 220)">
<title>cen.MoveEntity</title>
<polygon fill="white" stroke="transparent" points="-4,4 -4,-220 2546.58,-220 2546.58,4 -4,4"/>
<!-- cen.MoveEntity -->
<g id="node1" class="node">
<title>cen.MoveEntity</title>
<ellipse fill="green" stroke="black" cx="1260.34" cy="-18" rx="83.69" ry="18"/>
<text text-anchor="middle" x="1260.34" y="-14.3" font-family="Times,serif" font-size="14.00">cen.MoveEntity</text>
</g>
<!-- cen.func_8018DB18 -->
<g id="node2" class="node">
<title>cen.func_8018DB18</title>
<g id="a_node2"><a xlink:href="cen.func_8018DB18.svg" xlink:title="cen.func_8018DB18">
<ellipse fill="green" stroke="black" cx="103.34" cy="-198" rx="103.18" ry="18"/>
<text text-anchor="middle" x="103.34" y="-194.3" font-family="Times,serif" font-size="14.00">cen.func_8018DB18</text>
</a>
</g>
</g>
<!-- cen.func_8018DB18&#45;&gt;cen.MoveEntity -->
<g id="edge1" class="edge">
<title>cen.func_8018DB18&#45;&gt;cen.MoveEntity</title>
<path fill="none" stroke="black" d="M177.92,-185.53C386.4,-153.45 973.73,-63.09 1184.15,-30.72"/>
<polygon fill="black" stroke="black" points="1184.83,-34.16 1194.18,-29.18 1183.77,-27.24 1184.83,-34.16"/>
<text text-anchor="middle" x="172.92" y="-174.33" font-family="Times,serif" font-size="14.00">1</text>
</g>
<!-- cen.func_80194674 -->
<g id="node3" class="node">
<title>cen.func_80194674</title>
<g id="a_node3"><a xlink:href="cen.func_80194674.svg" xlink:title="cen.func_80194674">
<ellipse fill="green" stroke="black" cx="325.34" cy="-198" rx="100.98" ry="18"/>
<text text-anchor="middle" x="325.34" y="-194.3" font-family="Times,serif" font-size="14.00">cen.func_80194674</text>
</a>
</g>
</g>
<!-- cen.func_80194674&#45;&gt;cen.MoveEntity -->
<g id="edge2" class="edge">
<title>cen.func_80194674&#45;&gt;cen.MoveEntity</title>
<path fill="none" stroke="black" d="M391.46,-184.41C561.91,-151.96 1015.12,-65.68 1190.07,-32.38"/>
<polygon fill="black" stroke="black" points="1190.77,-35.81 1199.94,-30.5 1189.46,-28.93 1190.77,-35.81"/>
<text text-anchor="middle" x="386.46" y="-173.21" font-family="Times,serif" font-size="14.00">1</text>
</g>
<!-- cen.EntityRelicOrb -->
<g id="node4" class="node">
<title>cen.EntityRelicOrb</title>
<g id="a_node4"><a xlink:href="cen.EntityRelicOrb.svg" xlink:title="cen.EntityRelicOrb">
<ellipse fill="red" stroke="black" cx="543.34" cy="-198" rx="98.58" ry="18"/>
<text text-anchor="middle" x="543.34" y="-194.3" font-family="Times,serif" font-size="14.00">cen.EntityRelicOrb</text>
</a>
</g>
</g>
<!-- cen.EntityRelicOrb&#45;&gt;cen.MoveEntity -->
<g id="edge3" class="edge">
<title>cen.EntityRelicOrb&#45;&gt;cen.MoveEntity</title>
<path fill="none" stroke="black" d="M599.3,-183.11C730.97,-150.42 1059.63,-68.83 1197.69,-34.55"/>
<polygon fill="black" stroke="black" points="1198.83,-37.88 1207.7,-32.07 1197.15,-31.08 1198.83,-37.88"/>
<text text-anchor="middle" x="594.3" y="-171.91" font-family="Times,serif" font-size="14.00">1</text>
</g>
<!-- cen.EntityEquipItemDrop -->
<g id="node5" class="node">
<title>cen.EntityEquipItemDrop</title>
<g id="a_node5"><a xlink:href="cen.EntityEquipItemDrop.svg" xlink:title="cen.EntityEquipItemDrop">
<ellipse fill="red" stroke="black" cx="790.34" cy="-198" rx="129.98" ry="18"/>
<text text-anchor="middle" x="790.34" y="-194.3" font-family="Times,serif" font-size="14.00">cen.EntityEquipItemDrop</text>
</a>
</g>
</g>
<!-- cen.EntityEquipItemDrop&#45;&gt;cen.MoveEntity -->
<g id="edge4" class="edge">
<title>cen.EntityEquipItemDrop&#45;&gt;cen.MoveEntity</title>
<path fill="none" stroke="black" d="M832.88,-180.89C920.18,-147.83 1119.11,-72.49 1211.5,-37.5"/>
<polygon fill="black" stroke="black" points="1212.79,-40.75 1220.9,-33.94 1210.31,-34.21 1212.79,-40.75"/>
<text text-anchor="middle" x="827.88" y="-169.69" font-family="Times,serif" font-size="14.00">1</text>
</g>
<!-- cen.func_80195798 -->
<g id="node6" class="node">
<title>cen.func_80195798</title>
<g id="a_node6"><a xlink:href="cen.func_80195798.svg" xlink:title="cen.func_80195798">
<ellipse fill="red" stroke="black" cx="1039.34" cy="-198" rx="100.98" ry="18"/>
<text text-anchor="middle" x="1039.34" y="-194.3" font-family="Times,serif" font-size="14.00">cen.func_80195798</text>
</a>
</g>
</g>
<!-- cen.func_80195798&#45;&gt;cen.MoveEntity -->
<g id="edge5" class="edge">
<title>cen.func_80195798&#45;&gt;cen.MoveEntity</title>
<path fill="none" stroke="black" d="M1060.13,-180.25C1099.89,-148.24 1186.73,-78.29 1231.85,-41.95"/>
<polygon fill="black" stroke="black" points="1234.17,-44.57 1239.77,-35.57 1229.78,-39.12 1234.17,-44.57"/>
<text text-anchor="middle" x="1055.13" y="-169.05" font-family="Times,serif" font-size="14.00">2</text>
</g>
<!-- cen.func_801989AC -->
<g id="node7" class="node">
<title>cen.func_801989AC</title>
<g id="a_node7"><a xlink:href="cen.func_801989AC.svg" xlink:title="cen.func_801989AC">
<ellipse fill="green" stroke="black" cx="1260.34" cy="-198" rx="102.88" ry="18"/>
<text text-anchor="middle" x="1260.34" y="-194.3" font-family="Times,serif" font-size="14.00">cen.func_801989AC</text>
</a>
</g>
</g>
<!-- cen.func_801989AC&#45;&gt;cen.MoveEntity -->
<g id="edge6" class="edge">
<title>cen.func_801989AC&#45;&gt;cen.MoveEntity</title>
<path fill="none" stroke="black" d="M1260.34,-179.93C1260.34,-148.97 1260.34,-83.3 1260.34,-46.13"/>
<polygon fill="black" stroke="black" points="1263.84,-46.02 1260.34,-36.02 1256.84,-46.02 1263.84,-46.02"/>
<text text-anchor="middle" x="1255.34" y="-168.73" font-family="Times,serif" font-size="14.00">1</text>
</g>
<!-- cen.func_80199278 -->
<g id="node8" class="node">
<title>cen.func_80199278</title>
<g id="a_node8"><a xlink:href="cen.func_80199278.svg" xlink:title="cen.func_80199278">
<ellipse fill="red" stroke="black" cx="1481.34" cy="-198" rx="100.98" ry="18"/>
<text text-anchor="middle" x="1481.34" y="-194.3" font-family="Times,serif" font-size="14.00">cen.func_80199278</text>
</a>
</g>
</g>
<!-- cen.func_80199278&#45;&gt;cen.MoveEntity -->
<g id="edge7" class="edge">
<title>cen.func_80199278&#45;&gt;cen.MoveEntity</title>
<path fill="none" stroke="black" d="M1460.55,-180.25C1420.8,-148.24 1333.95,-78.29 1288.83,-41.95"/>
<polygon fill="black" stroke="black" points="1290.9,-39.12 1280.92,-35.57 1286.51,-44.57 1290.9,-39.12"/>
<text text-anchor="middle" x="1455.55" y="-169.05" font-family="Times,serif" font-size="14.00">1</text>
</g>
<!-- cen.func_8019902C -->
<g id="node9" class="node">
<title>cen.func_8019902C</title>
<g id="a_node9"><a xlink:href="cen.func_8019902C.svg" xlink:title="cen.func_8019902C">
<ellipse fill="red" stroke="black" cx="1702.34" cy="-198" rx="102.08" ry="18"/>
<text text-anchor="middle" x="1702.34" y="-194.3" font-family="Times,serif" font-size="14.00">cen.func_8019902C</text>
</a>
</g>
</g>
<!-- cen.func_8019902C&#45;&gt;cen.MoveEntity -->
<g id="edge8" class="edge">
<title>cen.func_8019902C&#45;&gt;cen.MoveEntity</title>
<path fill="none" stroke="black" d="M1663.12,-181.2C1581.76,-148.44 1394.96,-73.21 1307.33,-37.92"/>
<polygon fill="black" stroke="black" points="1308.49,-34.62 1297.91,-34.13 1305.88,-41.11 1308.49,-34.62"/>
<text text-anchor="middle" x="1658.12" y="-170" font-family="Times,serif" font-size="14.00">1</text>
</g>
<!-- cen.EntityPrizeDrop -->
<g id="node10" class="node">
<title>cen.EntityPrizeDrop</title>
<g id="a_node10"><a xlink:href="cen.EntityPrizeDrop.svg" xlink:title="cen.EntityPrizeDrop">
<ellipse fill="red" stroke="black" cx="1927.34" cy="-198" rx="105.08" ry="18"/>
<text text-anchor="middle" x="1927.34" y="-194.3" font-family="Times,serif" font-size="14.00">cen.EntityPrizeDrop</text>
</a>
</g>
</g>
<!-- cen.EntityPrizeDrop&#45;&gt;cen.MoveEntity -->
<g id="edge9" class="edge">
<title>cen.EntityPrizeDrop&#45;&gt;cen.MoveEntity</title>
<path fill="none" stroke="black" d="M1873.04,-182.51C1749.67,-149.59 1449.04,-69.36 1320.37,-35.02"/>
<polygon fill="black" stroke="black" points="1321.24,-31.63 1310.67,-32.43 1319.43,-38.39 1321.24,-31.63"/>
<text text-anchor="middle" x="1868.04" y="-171.31" font-family="Times,serif" font-size="14.00">2</text>
</g>
<!-- cen.EntityEnemyBlood -->
<g id="node11" class="node">
<title>cen.EntityEnemyBlood</title>
<g id="a_node11"><a xlink:href="cen.EntityEnemyBlood.svg" xlink:title="cen.EntityEnemyBlood">
<ellipse fill="green" stroke="black" cx="2167.34" cy="-198" rx="116.98" ry="18"/>
<text text-anchor="middle" x="2167.34" y="-194.3" font-family="Times,serif" font-size="14.00">cen.EntityEnemyBlood</text>
</a>
</g>
</g>
<!-- cen.EntityEnemyBlood&#45;&gt;cen.MoveEntity -->
<g id="edge10" class="edge">
<title>cen.EntityEnemyBlood&#45;&gt;cen.MoveEntity</title>
<path fill="none" stroke="black" d="M2098.05,-183.4C1929.43,-150.31 1499.19,-65.87 1330.09,-32.69"/>
<polygon fill="black" stroke="black" points="1330.55,-29.21 1320.06,-30.72 1329.2,-36.08 1330.55,-29.21"/>
<text text-anchor="middle" x="2093.05" y="-172.2" font-family="Times,serif" font-size="14.00">1</text>
</g>
<!-- cen.EntitySoulStealOrb -->
<g id="node12" class="node">
<title>cen.EntitySoulStealOrb</title>
<g id="a_node12"><a xlink:href="cen.EntitySoulStealOrb.svg" xlink:title="cen.EntitySoulStealOrb">
<ellipse fill="green" stroke="black" cx="2422.34" cy="-198" rx="120.48" ry="18"/>
<text text-anchor="middle" x="2422.34" y="-194.3" font-family="Times,serif" font-size="14.00">cen.EntitySoulStealOrb</text>
</a>
</g>
</g>
<!-- cen.EntitySoulStealOrb&#45;&gt;cen.MoveEntity -->
<g id="edge11" class="edge">
<title>cen.EntitySoulStealOrb&#45;&gt;cen.MoveEntity</title>
<path fill="none" stroke="black" d="M2341.55,-184.62C2127.1,-151.77 1545.61,-62.7 1336.52,-30.67"/>
<polygon fill="black" stroke="black" points="1336.96,-27.2 1326.55,-29.14 1335.9,-34.12 1336.96,-27.2"/>
<text text-anchor="middle" x="2336.55" y="-173.42" font-family="Times,serif" font-size="14.00">1</text>
</g>
</g>
</svg>
