<?xml version="1.0" encoding="UTF-8" standalone="no"?>
<!DOCTYPE svg PUBLIC "-//W3C//DTD SVG 1.1//EN"
 "http://www.w3.org/Graphics/SVG/1.1/DTD/svg11.dtd">
<!-- Generated by graphviz version 2.43.0 (0)
 -->
<!-- Title: cen.EntityEnemyBlood Pages: 1 -->
<svg width="1543pt" height="224pt"
 viewBox="0.00 0.00 1542.93 224.00" xmlns="http://www.w3.org/2000/svg" xmlns:xlink="http://www.w3.org/1999/xlink">
<g id="graph0" class="graph" transform="scale(1 1) rotate(0) translate(4 220)">
<title>cen.EntityEnemyBlood</title>
<polygon fill="white" stroke="transparent" points="-4,4 -4,-220 1538.93,-220 1538.93,4 -4,4"/>
<!-- cen.EntityEnemyBlood -->
<g id="node1" class="node">
<title>cen.EntityEnemyBlood</title>
<ellipse fill="green" stroke="black" cx="700.99" cy="-198" rx="116.98" ry="18"/>
<text text-anchor="middle" x="700.99" y="-194.3" font-family="Times,serif" font-size="14.00">cen.EntityEnemyBlood</text>
</g>
<!-- dra.func_800EDB58 -->
<g id="node2" class="node">
<title>dra.func_800EDB58</title>
<g id="a_node2"><a xlink:href="dra.func_800EDB58.svg" xlink:title="dra.func_800EDB58">
<ellipse fill="green" stroke="black" cx="103.99" cy="-18" rx="103.98" ry="18"/>
<text text-anchor="middle" x="103.99" y="-14.3" font-family="Times,serif" font-size="14.00">dra.func_800EDB58</text>
</a>
</g>
</g>
<!-- cen.EntityEnemyBlood&#45;&gt;dra.func_800EDB58 -->
<g id="edge1" class="edge">
<title>cen.EntityEnemyBlood&#45;&gt;dra.func_800EDB58</title>
<path fill="none" stroke="black" d="M649.83,-181.75C539.8,-148.94 281.11,-71.81 163.76,-36.82"/>
<polygon fill="black" stroke="black" points="164.45,-33.37 153.86,-33.87 162.45,-40.08 164.45,-33.37"/>
<text text-anchor="middle" x="148.86" y="-37.67" font-family="Times,serif" font-size="14.00">1</text>
</g>
<!-- cen.InitializeEntity -->
<g id="node3" class="node">
<title>cen.InitializeEntity</title>
<g id="a_node3"><a xlink:href="cen.InitializeEntity.svg" xlink:title="cen.InitializeEntity">
<ellipse fill="red" stroke="black" cx="324.99" cy="-18" rx="98.58" ry="18"/>
<text text-anchor="middle" x="324.99" y="-14.3" font-family="Times,serif" font-size="14.00">cen.InitializeEntity</text>
</a>
</g>
</g>
<!-- cen.EntityEnemyBlood&#45;&gt;cen.InitializeEntity -->
<g id="edge2" class="edge">
<title>cen.EntityEnemyBlood&#45;&gt;cen.InitializeEntity</title>
<path fill="none" stroke="black" d="M666.63,-180.73C597.87,-148.18 443.51,-75.11 368.1,-39.41"/>
<polygon fill="black" stroke="black" points="369.4,-36.15 358.87,-35.04 366.41,-42.48 369.4,-36.15"/>
<text text-anchor="middle" x="353.87" y="-38.84" font-family="Times,serif" font-size="14.00">1</text>
</g>
<!-- cen.Random -->
<g id="node4" class="node">
<title>cen.Random</title>
<g id="a_node4"><a xlink:href="cen.Random.svg" xlink:title="cen.Random">
<ellipse fill="green" stroke="black" cx="508.99" cy="-18" rx="67.69" ry="18"/>
<text text-anchor="middle" x="508.99" y="-14.3" font-family="Times,serif" font-size="14.00">cen.Random</text>
</a>
</g>
</g>
<!-- cen.EntityEnemyBlood&#45;&gt;cen.Random -->
<g id="edge3" class="edge">
<title>cen.EntityEnemyBlood&#45;&gt;cen.Random</title>
<path fill="none" stroke="black" d="M682.58,-179.93C648,-147.87 573.3,-78.62 534.12,-42.3"/>
<polygon fill="black" stroke="black" points="536.5,-39.73 526.79,-35.5 531.74,-44.86 536.5,-39.73"/>
<text text-anchor="middle" x="521.79" y="-39.3" font-family="Times,serif" font-size="14.00">5</text>
</g>
<!-- cen.UnkEntityFunc0 -->
<g id="node5" class="node">
<title>cen.UnkEntityFunc0</title>
<g id="a_node5"><a xlink:href="cen.UnkEntityFunc0.svg" xlink:title="cen.UnkEntityFunc0">
<ellipse fill="green" stroke="black" cx="700.99" cy="-18" rx="106.68" ry="18"/>
<text text-anchor="middle" x="700.99" y="-14.3" font-family="Times,serif" font-size="14.00">cen.UnkEntityFunc0</text>
</a>
</g>
</g>
<!-- cen.EntityEnemyBlood&#45;&gt;cen.UnkEntityFunc0 -->
<g id="edge4" class="edge">
<title>cen.EntityEnemyBlood&#45;&gt;cen.UnkEntityFunc0</title>
<path fill="none" stroke="black" d="M700.99,-179.93C700.99,-148.97 700.99,-83.3 700.99,-46.13"/>
<polygon fill="black" stroke="black" points="704.49,-46.02 700.99,-36.02 697.49,-46.02 704.49,-46.02"/>
<text text-anchor="middle" x="695.99" y="-39.82" font-family="Times,serif" font-size="14.00">1</text>
</g>
<!-- cen.DestroyEntity -->
<g id="node6" class="node">
<title>cen.DestroyEntity</title>
<g id="a_node6"><a xlink:href="cen.DestroyEntity.svg" xlink:title="cen.DestroyEntity">
<ellipse fill="green" stroke="black" cx="919.99" cy="-18" rx="94.78" ry="18"/>
<text text-anchor="middle" x="919.99" y="-14.3" font-family="Times,serif" font-size="14.00">cen.DestroyEntity</text>
</a>
</g>
</g>
<!-- cen.EntityEnemyBlood&#45;&gt;cen.DestroyEntity -->
<g id="edge5" class="edge">
<title>cen.EntityEnemyBlood&#45;&gt;cen.DestroyEntity</title>
<path fill="none" stroke="black" d="M721.59,-180.25C760.89,-148.32 846.61,-78.65 891.41,-42.23"/>
<polygon fill="black" stroke="black" points="893.73,-44.85 899.28,-35.83 889.32,-39.42 893.73,-44.85"/>
<text text-anchor="middle" x="894.28" y="-39.63" font-family="Times,serif" font-size="14.00">1</text>
</g>
<!-- cen.MoveEntity -->
<g id="node7" class="node">
<title>cen.MoveEntity</title>
<g id="a_node7"><a xlink:href="cen.MoveEntity.svg" xlink:title="cen.MoveEntity">
<ellipse fill="green" stroke="black" cx="1116.99" cy="-18" rx="83.69" ry="18"/>
<text text-anchor="middle" x="1116.99" y="-14.3" font-family="Times,serif" font-size="14.00">cen.MoveEntity</text>
</a>
</g>
</g>
<!-- cen.EntityEnemyBlood&#45;&gt;cen.MoveEntity -->
<g id="edge6" class="edge">
<title>cen.EntityEnemyBlood&#45;&gt;cen.MoveEntity</title>
<path fill="none" stroke="black" d="M738.64,-180.89C815.31,-148.09 989.25,-73.66 1071.84,-38.32"/>
<polygon fill="black" stroke="black" points="1073.39,-41.46 1081.21,-34.31 1070.64,-35.03 1073.39,-41.46"/>
<text text-anchor="middle" x="1076.21" y="-38.11" font-family="Times,serif" font-size="14.00">1</text>
</g>
<!-- dra.CheckEquipmentItemCount -->
<g id="node8" class="node">
<title>dra.CheckEquipmentItemCount</title>
<g id="a_node8"><a xlink:href="dra.CheckEquipmentItemCount.svg" xlink:title="dra.CheckEquipmentItemCount">
<ellipse fill="green" stroke="black" cx="1376.99" cy="-18" rx="157.87" ry="18"/>
<text text-anchor="middle" x="1376.99" y="-14.3" font-family="Times,serif" font-size="14.00">dra.CheckEquipmentItemCount</text>
</a>
</g>
</g>
<!-- cen.EntityEnemyBlood&#45;&gt;dra.CheckEquipmentItemCount -->
<g id="edge7" class="edge">
<title>cen.EntityEnemyBlood&#45;&gt;dra.CheckEquipmentItemCount</title>
<path fill="none" stroke="black" d="M757.17,-182.21C880.19,-149.81 1173.09,-72.69 1307.46,-37.31"/>
<polygon fill="black" stroke="black" points="1308.47,-40.66 1317.24,-34.73 1306.68,-33.89 1308.47,-40.66"/>
<text text-anchor="middle" x="1312.24" y="-38.53" font-family="Times,serif" font-size="14.00">1</text>
</g>
</g>
</svg>
