<?xml version="1.0" encoding="UTF-8" standalone="no"?>
<!DOCTYPE svg PUBLIC "-//W3C//DTD SVG 1.1//EN"
 "http://www.w3.org/Graphics/SVG/1.1/DTD/svg11.dtd">
<!-- Generated by graphviz version 2.43.0 (0)
 -->
<!-- Title: cen.EntityPlatform Pages: 1 -->
<svg width="1897pt" height="131pt"
 viewBox="0.00 0.00 1896.78 131.00" xmlns="http://www.w3.org/2000/svg" xmlns:xlink="http://www.w3.org/1999/xlink">
<g id="graph0" class="graph" transform="scale(1 1) rotate(0) translate(4 127)">
<title>cen.EntityPlatform</title>
<polygon fill="white" stroke="transparent" points="-4,4 -4,-127 1892.78,-127 1892.78,4 -4,4"/>
<!-- cen.EntityPlatform -->
<g id="node1" class="node">
<title>cen.EntityPlatform</title>
<ellipse fill="green" stroke="black" cx="881.74" cy="-105" rx="98.58" ry="18"/>
<text text-anchor="middle" x="881.74" y="-101.3" font-family="Times,serif" font-size="14.00">cen.EntityPlatform</text>
</g>
<!-- cen.func_80195318 -->
<g id="node2" class="node">
<title>cen.func_80195318</title>
<g id="a_node2"><a xlink:href="cen.func_80195318.svg" xlink:title="cen.func_80195318">
<ellipse fill="red" stroke="black" cx="100.74" cy="-18" rx="100.98" ry="18"/>
<text text-anchor="middle" x="100.74" y="-14.3" font-family="Times,serif" font-size="14.00">cen.func_80195318</text>
</a>
</g>
</g>
<!-- cen.EntityPlatform&#45;&gt;cen.func_80195318 -->
<g id="edge1" class="edge">
<title>cen.EntityPlatform&#45;&gt;cen.func_80195318</title>
<path fill="none" stroke="black" d="M794.18,-96.6C665.92,-85.43 419.51,-62.69 210.74,-36 201.66,-34.84 192.18,-33.53 182.75,-32.16"/>
<polygon fill="black" stroke="black" points="182.96,-28.65 172.56,-30.65 181.94,-35.58 182.96,-28.65"/>
<text text-anchor="middle" x="492.74" y="-57.8" font-family="Times,serif" font-size="14.00">1</text>
</g>
<!-- dra.AllocPrimitives -->
<g id="node3" class="node">
<title>dra.AllocPrimitives</title>
<g id="a_node3"><a xlink:href="dra.AllocPrimitives.svg" xlink:title="dra.AllocPrimitives">
<ellipse fill="green" stroke="black" cx="318.74" cy="-18" rx="99.38" ry="18"/>
<text text-anchor="middle" x="318.74" y="-14.3" font-family="Times,serif" font-size="14.00">dra.AllocPrimitives</text>
</a>
</g>
</g>
<!-- cen.EntityPlatform&#45;&gt;dra.AllocPrimitives -->
<g id="edge2" class="edge">
<title>cen.EntityPlatform&#45;&gt;dra.AllocPrimitives</title>
<path fill="none" stroke="black" d="M807.24,-93.05C717.1,-79.75 560.75,-56.56 426.74,-36 418.29,-34.7 409.47,-33.34 400.67,-31.96"/>
<polygon fill="black" stroke="black" points="401.19,-28.5 390.77,-30.42 400.1,-35.42 401.19,-28.5"/>
<text text-anchor="middle" x="643.74" y="-57.8" font-family="Times,serif" font-size="14.00">1</text>
</g>
<!-- cen.InitializeEntity -->
<g id="node4" class="node">
<title>cen.InitializeEntity</title>
<g id="a_node4"><a xlink:href="cen.InitializeEntity.svg" xlink:title="cen.InitializeEntity">
<ellipse fill="red" stroke="black" cx="534.74" cy="-18" rx="98.58" ry="18"/>
<text text-anchor="middle" x="534.74" y="-14.3" font-family="Times,serif" font-size="14.00">cen.InitializeEntity</text>
</a>
</g>
</g>
<!-- cen.EntityPlatform&#45;&gt;cen.InitializeEntity -->
<g id="edge3" class="edge">
<title>cen.EntityPlatform&#45;&gt;cen.InitializeEntity</title>
<path fill="none" stroke="black" d="M825.22,-90.15C763.84,-75.12 665.91,-51.13 600.97,-35.22"/>
<polygon fill="black" stroke="black" points="601.79,-31.82 591.24,-32.84 600.12,-38.62 601.79,-31.82"/>
<text text-anchor="middle" x="734.74" y="-57.8" font-family="Times,serif" font-size="14.00">1</text>
</g>
<!-- cen.func_8018F8EC -->
<g id="node5" class="node">
<title>cen.func_8018F8EC</title>
<g id="a_node5"><a xlink:href="cen.func_8018F8EC.svg" xlink:title="cen.func_8018F8EC">
<ellipse fill="green" stroke="black" cx="754.74" cy="-18" rx="103.18" ry="18"/>
<text text-anchor="middle" x="754.74" y="-14.3" font-family="Times,serif" font-size="14.00">cen.func_8018F8EC</text>
</a>
</g>
</g>
<!-- cen.EntityPlatform&#45;&gt;cen.func_8018F8EC -->
<g id="edge4" class="edge">
<title>cen.EntityPlatform&#45;&gt;cen.func_8018F8EC</title>
<path fill="none" stroke="black" d="M856.95,-87.41C837.28,-74.25 809.6,-55.72 788.01,-41.27"/>
<polygon fill="black" stroke="black" points="789.72,-38.2 779.47,-35.55 785.83,-44.02 789.72,-38.2"/>
<text text-anchor="middle" x="831.74" y="-57.8" font-family="Times,serif" font-size="14.00">2</text>
</g>
<!-- cen.GetDistanceToPlayerX -->
<g id="node6" class="node">
<title>cen.GetDistanceToPlayerX</title>
<g id="a_node6"><a xlink:href="cen.GetDistanceToPlayerX.svg" xlink:title="cen.GetDistanceToPlayerX">
<ellipse fill="green" stroke="black" cx="1009.74" cy="-18" rx="133.78" ry="18"/>
<text text-anchor="middle" x="1009.74" y="-14.3" font-family="Times,serif" font-size="14.00">cen.GetDistanceToPlayerX</text>
</a>
</g>
</g>
<!-- cen.EntityPlatform&#45;&gt;cen.GetDistanceToPlayerX -->
<g id="edge5" class="edge">
<title>cen.EntityPlatform&#45;&gt;cen.GetDistanceToPlayerX</title>
<path fill="none" stroke="black" d="M906.72,-87.41C926.42,-74.33 954.09,-55.96 975.79,-41.55"/>
<polygon fill="black" stroke="black" points="977.99,-44.29 984.38,-35.84 974.12,-38.46 977.99,-44.29"/>
<text text-anchor="middle" x="958.74" y="-57.8" font-family="Times,serif" font-size="14.00">1</text>
</g>
<!-- dra.PlaySfx -->
<g id="node7" class="node">
<title>dra.PlaySfx</title>
<g id="a_node7"><a xlink:href="dra.PlaySfx.svg" xlink:title="dra.PlaySfx">
<ellipse fill="green" stroke="black" cx="1225.74" cy="-18" rx="64.19" ry="18"/>
<text text-anchor="middle" x="1225.74" y="-14.3" font-family="Times,serif" font-size="14.00">dra.PlaySfx</text>
</a>
</g>
</g>
<!-- cen.EntityPlatform&#45;&gt;dra.PlaySfx -->
<g id="edge6" class="edge">
<title>cen.EntityPlatform&#45;&gt;dra.PlaySfx</title>
<path fill="none" stroke="black" d="M937.78,-90.15C1001.57,-74.39 1105.2,-48.79 1169.2,-32.97"/>
<polygon fill="black" stroke="black" points="1170.25,-36.32 1179.12,-30.52 1168.57,-29.52 1170.25,-36.32"/>
<text text-anchor="middle" x="1079.74" y="-57.8" font-family="Times,serif" font-size="14.00">4</text>
</g>
<!-- cen.func_8018F890 -->
<g id="node8" class="node">
<title>cen.func_8018F890</title>
<g id="a_node8"><a xlink:href="cen.func_8018F890.svg" xlink:title="cen.func_8018F890">
<ellipse fill="green" stroke="black" cx="1409.74" cy="-18" rx="101.28" ry="18"/>
<text text-anchor="middle" x="1409.74" y="-14.3" font-family="Times,serif" font-size="14.00">cen.func_8018F890</text>
</a>
</g>
</g>
<!-- cen.EntityPlatform&#45;&gt;cen.func_8018F890 -->
<g id="edge7" class="edge">
<title>cen.EntityPlatform&#45;&gt;cen.func_8018F890</title>
<path fill="none" stroke="black" d="M953.22,-92.49C1050.56,-76.82 1224.41,-48.84 1327.18,-32.29"/>
<polygon fill="black" stroke="black" points="1327.89,-35.72 1337.21,-30.68 1326.78,-28.81 1327.89,-35.72"/>
<text text-anchor="middle" x="1182.74" y="-57.8" font-family="Times,serif" font-size="14.00">4</text>
</g>
<!-- cen.CreateEntityFromCurrentEntity -->
<g id="node9" class="node">
<title>cen.CreateEntityFromCurrentEntity</title>
<g id="a_node9"><a xlink:href="cen.CreateEntityFromCurrentEntity.svg" xlink:title="cen.CreateEntityFromCurrentEntity">
<ellipse fill="green" stroke="black" cx="1708.74" cy="-18" rx="180.07" ry="18"/>
<text text-anchor="middle" x="1708.74" y="-14.3" font-family="Times,serif" font-size="14.00">cen.CreateEntityFromCurrentEntity</text>
</a>
</g>
</g>
<!-- cen.EntityPlatform&#45;&gt;cen.CreateEntityFromCurrentEntity -->
<g id="edge8" class="edge">
<title>cen.EntityPlatform&#45;&gt;cen.CreateEntityFromCurrentEntity</title>
<path fill="none" stroke="black" d="M965.59,-95.38C1109.93,-80.55 1406.34,-50.08 1577.99,-32.44"/>
<polygon fill="black" stroke="black" points="1578.51,-35.9 1588.1,-31.4 1577.79,-28.94 1578.51,-35.9"/>
<text text-anchor="middle" x="1350.74" y="-57.8" font-family="Times,serif" font-size="14.00">1</text>
</g>
</g>
</svg>
