<?xml version="1.0" encoding="UTF-8" standalone="no"?>
<!DOCTYPE svg PUBLIC "-//W3C//DTD SVG 1.1//EN"
 "http://www.w3.org/Graphics/SVG/1.1/DTD/svg11.dtd">
<!-- Generated by graphviz version 2.43.0 (0)
 -->
<!-- Title: cen.func_801904B8 Pages: 1 -->
<svg width="584pt" height="131pt"
 viewBox="0.00 0.00 584.48 131.00" xmlns="http://www.w3.org/2000/svg" xmlns:xlink="http://www.w3.org/1999/xlink">
<g id="graph0" class="graph" transform="scale(1 1) rotate(0) translate(4 127)">
<title>cen.func_801904B8</title>
<polygon fill="white" stroke="transparent" points="-4,4 -4,-127 580.48,-127 580.48,4 -4,4"/>
<!-- cen.func_801904B8 -->
<g id="node1" class="node">
<title>cen.func_801904B8</title>
<ellipse fill="green" stroke="black" cx="294.89" cy="-18" rx="102.08" ry="18"/>
<text text-anchor="middle" x="294.89" y="-14.3" font-family="Times,serif" font-size="14.00">cen.func_801904B8</text>
</g>
<!-- cen.EntityElevatorStationary -->
<g id="node2" class="node">
<title>cen.EntityElevatorStationary</title>
<g id="a_node2"><a xlink:href="cen.EntityElevatorStationary.svg" xlink:title="cen.EntityElevatorStationary">
<ellipse fill="green" stroke="black" cx="146.89" cy="-105" rx="146.77" ry="18"/>
<text text-anchor="middle" x="146.89" y="-101.3" font-family="Times,serif" font-size="14.00">cen.EntityElevatorStationary</text>
</a>
</g>
</g>
<!-- cen.EntityElevatorStationary&#45;&gt;cen.func_801904B8 -->
<g id="edge1" class="edge">
<title>cen.EntityElevatorStationary&#45;&gt;cen.func_801904B8</title>
<path fill="none" stroke="black" d="M176.13,-87.21C199.46,-73.81 232.3,-54.94 257.54,-40.45"/>
<polygon fill="black" stroke="black" points="259.53,-43.34 266.46,-35.33 256.05,-37.27 259.53,-43.34"/>
<text text-anchor="middle" x="234.89" y="-57.8" font-family="Times,serif" font-size="14.00">1</text>
</g>
<!-- cen.EntityMovingElevator -->
<g id="node3" class="node">
<title>cen.EntityMovingElevator</title>
<g id="a_node3"><a xlink:href="cen.EntityMovingElevator.svg" xlink:title="cen.EntityMovingElevator">
<ellipse fill="green" stroke="black" cx="443.89" cy="-105" rx="132.68" ry="18"/>
<text text-anchor="middle" x="443.89" y="-101.3" font-family="Times,serif" font-size="14.00">cen.EntityMovingElevator</text>
</a>
</g>
</g>
<!-- cen.EntityMovingElevator&#45;&gt;cen.func_801904B8 -->
<g id="edge2" class="edge">
<title>cen.EntityMovingElevator&#45;&gt;cen.func_801904B8</title>
<path fill="none" stroke="black" d="M414.8,-87.41C391.35,-74.03 358.17,-55.1 332.66,-40.55"/>
<polygon fill="black" stroke="black" points="334.06,-37.32 323.64,-35.4 330.59,-43.4 334.06,-37.32"/>
<text text-anchor="middle" x="383.89" y="-57.8" font-family="Times,serif" font-size="14.00">1</text>
</g>
</g>
</svg>
