<?xml version="1.0" encoding="UTF-8" standalone="no"?>
<!DOCTYPE svg PUBLIC "-//W3C//DTD SVG 1.1//EN"
 "http://www.w3.org/Graphics/SVG/1.1/DTD/svg11.dtd">
<!-- Generated by graphviz version 2.43.0 (0)
 -->
<!-- Title: cen.GetSideToPlayer Pages: 1 -->
<svg width="646pt" height="224pt"
 viewBox="0.00 0.00 645.58 224.00" xmlns="http://www.w3.org/2000/svg" xmlns:xlink="http://www.w3.org/1999/xlink">
<g id="graph0" class="graph" transform="scale(1 1) rotate(0) translate(4 220)">
<title>cen.GetSideToPlayer</title>
<polygon fill="white" stroke="transparent" points="-4,4 -4,-220 641.58,-220 641.58,4 -4,4"/>
<!-- cen.GetSideToPlayer -->
<g id="node1" class="node">
<title>cen.GetSideToPlayer</title>
<ellipse fill="green" stroke="black" cx="318.79" cy="-18" rx="107.48" ry="18"/>
<text text-anchor="middle" x="318.79" y="-14.3" font-family="Times,serif" font-size="14.00">cen.GetSideToPlayer</text>
</g>
<!-- cen.EntityUnkId12 -->
<g id="node2" class="node">
<title>cen.EntityUnkId12</title>
<g id="a_node2"><a xlink:href="cen.EntityUnkId12.svg" xlink:title="cen.EntityUnkId12">
<ellipse fill="red" stroke="black" cx="98.79" cy="-198" rx="98.58" ry="18"/>
<text text-anchor="middle" x="98.79" y="-194.3" font-family="Times,serif" font-size="14.00">cen.EntityUnkId12</text>
</a>
</g>
</g>
<!-- cen.EntityUnkId12&#45;&gt;cen.GetSideToPlayer -->
<g id="edge1" class="edge">
<title>cen.EntityUnkId12&#45;&gt;cen.GetSideToPlayer</title>
<path fill="none" stroke="black" d="M119.49,-180.25C158.96,-148.32 245.07,-78.65 290.08,-42.23"/>
<polygon fill="black" stroke="black" points="292.42,-44.84 297.99,-35.83 288.01,-39.4 292.42,-44.84"/>
<text text-anchor="middle" x="114.49" y="-169.05" font-family="Times,serif" font-size="14.00">1</text>
</g>
<!-- cen.func_8018DB18 -->
<g id="node3" class="node">
<title>cen.func_8018DB18</title>
<g id="a_node3"><a xlink:href="cen.func_8018DB18.svg" xlink:title="cen.func_8018DB18">
<ellipse fill="green" stroke="black" cx="318.79" cy="-198" rx="103.18" ry="18"/>
<text text-anchor="middle" x="318.79" y="-194.3" font-family="Times,serif" font-size="14.00">cen.func_8018DB18</text>
</a>
</g>
</g>
<!-- cen.func_8018DB18&#45;&gt;cen.GetSideToPlayer -->
<g id="edge2" class="edge">
<title>cen.func_8018DB18&#45;&gt;cen.GetSideToPlayer</title>
<path fill="none" stroke="black" d="M318.79,-179.93C318.79,-148.97 318.79,-83.3 318.79,-46.13"/>
<polygon fill="black" stroke="black" points="322.29,-46.02 318.79,-36.02 315.29,-46.02 322.29,-46.02"/>
<text text-anchor="middle" x="313.79" y="-168.73" font-family="Times,serif" font-size="14.00">1</text>
</g>
<!-- cen.EntityRedDoor -->
<g id="node4" class="node">
<title>cen.EntityRedDoor</title>
<g id="a_node4"><a xlink:href="cen.EntityRedDoor.svg" xlink:title="cen.EntityRedDoor">
<ellipse fill="red" stroke="black" cx="538.79" cy="-198" rx="98.58" ry="18"/>
<text text-anchor="middle" x="538.79" y="-194.3" font-family="Times,serif" font-size="14.00">cen.EntityRedDoor</text>
</a>
</g>
</g>
<!-- cen.EntityRedDoor&#45;&gt;cen.GetSideToPlayer -->
<g id="edge3" class="edge">
<title>cen.EntityRedDoor&#45;&gt;cen.GetSideToPlayer</title>
<path fill="none" stroke="black" d="M518.09,-180.25C478.62,-148.32 392.51,-78.65 347.5,-42.23"/>
<polygon fill="black" stroke="black" points="349.57,-39.4 339.59,-35.83 345.17,-44.84 349.57,-39.4"/>
<text text-anchor="middle" x="513.09" y="-169.05" font-family="Times,serif" font-size="14.00">1</text>
</g>
</g>
</svg>
