<?xml version="1.0" encoding="UTF-8" standalone="no"?>
<!DOCTYPE svg PUBLIC "-//W3C//DTD SVG 1.1//EN"
 "http://www.w3.org/Graphics/SVG/1.1/DTD/svg11.dtd">
<!-- Generated by graphviz version 2.43.0 (0)
 -->
<!-- Title: CheckEquipmentItemCount Pages: 1 -->
<svg width="3258pt" height="131pt"
 viewBox="0.00 0.00 3258.48 131.00" xmlns="http://www.w3.org/2000/svg" xmlns:xlink="http://www.w3.org/1999/xlink">
<g id="graph0" class="graph" transform="scale(1 1) rotate(0) translate(4 127)">
<title>CheckEquipmentItemCount</title>
<polygon fill="white" stroke="transparent" points="-4,4 -4,-127 3254.48,-127 3254.48,4 -4,4"/>
<!-- dra/CheckEquipmentItemCount -->
<g id="node1" class="node">
<title>dra/CheckEquipmentItemCount</title>
<ellipse fill="green" stroke="black" cx="1539.09" cy="-18" rx="157.87" ry="18"/>
<text text-anchor="middle" x="1539.09" y="-14.3" font-family="Times,serif" font-size="14.00">dra/CheckEquipmentItemCount</text>
</g>
<!-- dra/CalcDefense -->
<g id="node2" class="node">
<title>dra/CalcDefense</title>
<g id="a_node2"><a xlink:href="CalcDefense.svg" xlink:title="dra/CalcDefense">
<ellipse fill="green" stroke="black" cx="87.09" cy="-105" rx="87.18" ry="18"/>
<text text-anchor="middle" x="87.09" y="-101.3" font-family="Times,serif" font-size="14.00">dra/CalcDefense</text>
</a>
</g>
</g>
<!-- dra/CalcDefense&#45;&gt;dra/CheckEquipmentItemCount -->
<g id="edge1" class="edge">
<title>dra/CalcDefense&#45;&gt;dra/CheckEquipmentItemCount</title>
<path fill="none" stroke="black" d="M149.62,-92.45C161.06,-90.51 172.92,-88.6 184.09,-87 314.68,-68.27 347.51,-63.52 479.09,-54 794.17,-31.21 1163.02,-23.25 1372.05,-20.47"/>
<polygon fill="black" stroke="black" points="1372.24,-23.97 1382.19,-20.34 1372.15,-16.97 1372.24,-23.97"/>
<text text-anchor="middle" x="484.09" y="-57.8" font-family="Times,serif" font-size="14.00">3</text>
</g>
<!-- dra/IsAlucart -->
<g id="node3" class="node">
<title>dra/IsAlucart</title>
<g id="a_node3"><a xlink:href="IsAlucart.svg" xlink:title="dra/IsAlucart">
<ellipse fill="green" stroke="black" cx="264.09" cy="-105" rx="71.49" ry="18"/>
<text text-anchor="middle" x="264.09" y="-101.3" font-family="Times,serif" font-size="14.00">dra/IsAlucart</text>
</a>
</g>
</g>
<!-- dra/IsAlucart&#45;&gt;dra/CheckEquipmentItemCount -->
<g id="edge2" class="edge">
<title>dra/IsAlucart&#45;&gt;dra/CheckEquipmentItemCount</title>
<path fill="none" stroke="black" d="M314.7,-92.24C324.42,-90.27 334.54,-88.41 344.09,-87 517.05,-61.45 561.61,-65.14 736.09,-54 958.94,-39.77 1216.95,-29.65 1379.09,-24.07"/>
<polygon fill="black" stroke="black" points="1379.27,-27.56 1389.15,-23.72 1379.03,-20.57 1379.27,-27.56"/>
<text text-anchor="middle" x="741.09" y="-57.8" font-family="Times,serif" font-size="14.00">3</text>
</g>
<!-- dra/func_800F4994 -->
<g id="node4" class="node">
<title>dra/func_800F4994</title>
<g id="a_node4"><a xlink:href="func_800F4994.svg" xlink:title="dra/func_800F4994">
<ellipse fill="green" stroke="black" cx="454.09" cy="-105" rx="100.98" ry="18"/>
<text text-anchor="middle" x="454.09" y="-101.3" font-family="Times,serif" font-size="14.00">dra/func_800F4994</text>
</a>
</g>
</g>
<!-- dra/func_800F4994&#45;&gt;dra/CheckEquipmentItemCount -->
<g id="edge3" class="edge">
<title>dra/func_800F4994&#45;&gt;dra/CheckEquipmentItemCount</title>
<path fill="none" stroke="black" d="M525.24,-92.2C537.83,-90.32 550.83,-88.5 563.09,-87 850.48,-51.95 1187.85,-33.43 1381.24,-24.96"/>
<polygon fill="black" stroke="black" points="1381.64,-28.45 1391.48,-24.52 1381.34,-21.46 1381.64,-28.45"/>
<text text-anchor="middle" x="890.09" y="-57.8" font-family="Times,serif" font-size="14.00">2</text>
</g>
<!-- dra/func_80128C2C -->
<g id="node5" class="node">
<title>dra/func_80128C2C</title>
<g id="a_node5"><a xlink:href="func_80128C2C.svg" xlink:title="dra/func_80128C2C">
<ellipse fill="red" stroke="black" cx="675.09" cy="-105" rx="102.88" ry="18"/>
<text text-anchor="middle" x="675.09" y="-101.3" font-family="Times,serif" font-size="14.00">dra/func_80128C2C</text>
</a>
</g>
</g>
<!-- dra/func_80128C2C&#45;&gt;dra/CheckEquipmentItemCount -->
<g id="edge4" class="edge">
<title>dra/func_80128C2C&#45;&gt;dra/CheckEquipmentItemCount</title>
<path fill="none" stroke="black" d="M747.85,-92.23C760.58,-90.35 773.71,-88.53 786.09,-87 998.92,-60.75 1246.78,-40.31 1398.27,-28.95"/>
<polygon fill="black" stroke="black" points="1398.85,-32.42 1408.56,-28.19 1398.33,-25.44 1398.85,-32.42"/>
<text text-anchor="middle" x="1101.09" y="-57.8" font-family="Times,serif" font-size="14.00">1</text>
</g>
<!-- dra/func_8010A234 -->
<g id="node6" class="node">
<title>dra/func_8010A234</title>
<g id="a_node6"><a xlink:href="func_8010A234.svg" xlink:title="dra/func_8010A234">
<ellipse fill="red" stroke="black" cx="896.09" cy="-105" rx="100.98" ry="18"/>
<text text-anchor="middle" x="896.09" y="-101.3" font-family="Times,serif" font-size="14.00">dra/func_8010A234</text>
</a>
</g>
</g>
<!-- dra/func_8010A234&#45;&gt;dra/CheckEquipmentItemCount -->
<g id="edge5" class="edge">
<title>dra/func_8010A234&#45;&gt;dra/CheckEquipmentItemCount</title>
<path fill="none" stroke="black" d="M968.46,-92.42C980.68,-90.55 993.24,-88.68 1005.09,-87 1149.34,-66.57 1315.91,-45.81 1424.14,-32.69"/>
<polygon fill="black" stroke="black" points="1424.6,-36.16 1434.1,-31.49 1423.76,-29.21 1424.6,-36.16"/>
<text text-anchor="middle" x="1245.09" y="-57.8" font-family="Times,serif" font-size="14.00">1</text>
</g>
<!-- dra/EntityAlucard -->
<g id="node7" class="node">
<title>dra/EntityAlucard</title>
<g id="a_node7"><a xlink:href="EntityAlucard.svg" xlink:title="dra/EntityAlucard">
<ellipse fill="red" stroke="black" cx="1108.09" cy="-105" rx="93.68" ry="18"/>
<text text-anchor="middle" x="1108.09" y="-101.3" font-family="Times,serif" font-size="14.00">dra/EntityAlucard</text>
</a>
</g>
</g>
<!-- dra/EntityAlucard&#45;&gt;dra/CheckEquipmentItemCount -->
<g id="edge6" class="edge">
<title>dra/EntityAlucard&#45;&gt;dra/CheckEquipmentItemCount</title>
<path fill="none" stroke="black" d="M1171.22,-91.55C1245.93,-76.82 1370.66,-52.22 1453.88,-35.81"/>
<polygon fill="black" stroke="black" points="1454.68,-39.21 1463.82,-33.85 1453.33,-32.35 1454.68,-39.21"/>
<text text-anchor="middle" x="1355.09" y="-57.8" font-family="Times,serif" font-size="14.00">1</text>
</g>
<!-- dra/func_80109594 -->
<g id="node8" class="node">
<title>dra/func_80109594</title>
<g id="a_node8"><a xlink:href="func_80109594.svg" xlink:title="dra/func_80109594">
<ellipse fill="green" stroke="black" cx="1320.09" cy="-105" rx="100.98" ry="18"/>
<text text-anchor="middle" x="1320.09" y="-101.3" font-family="Times,serif" font-size="14.00">dra/func_80109594</text>
</a>
</g>
</g>
<!-- dra/func_80109594&#45;&gt;dra/CheckEquipmentItemCount -->
<g id="edge7" class="edge">
<title>dra/func_80109594&#45;&gt;dra/CheckEquipmentItemCount</title>
<path fill="none" stroke="black" d="M1360.26,-88.41C1396,-74.54 1448.49,-54.16 1487.37,-39.08"/>
<polygon fill="black" stroke="black" points="1488.88,-42.24 1496.94,-35.36 1486.35,-35.72 1488.88,-42.24"/>
<text text-anchor="middle" x="1448.09" y="-57.8" font-family="Times,serif" font-size="14.00">1</text>
</g>
<!-- dra/func_80101A80 -->
<g id="node9" class="node">
<title>dra/func_80101A80</title>
<g id="a_node9"><a xlink:href="func_80101A80.svg" xlink:title="dra/func_80101A80">
<ellipse fill="red" stroke="black" cx="1539.09" cy="-105" rx="100.98" ry="18"/>
<text text-anchor="middle" x="1539.09" y="-101.3" font-family="Times,serif" font-size="14.00">dra/func_80101A80</text>
</a>
</g>
</g>
<!-- dra/func_80101A80&#45;&gt;dra/CheckEquipmentItemCount -->
<g id="edge8" class="edge">
<title>dra/func_80101A80&#45;&gt;dra/CheckEquipmentItemCount</title>
<path fill="none" stroke="black" d="M1539.09,-86.8C1539.09,-75.16 1539.09,-59.55 1539.09,-46.24"/>
<polygon fill="black" stroke="black" points="1542.59,-46.18 1539.09,-36.18 1535.59,-46.18 1542.59,-46.18"/>
<text text-anchor="middle" x="1544.09" y="-57.8" font-family="Times,serif" font-size="14.00">2</text>
</g>
<!-- dra/DealDamage -->
<g id="node10" class="node">
<title>dra/DealDamage</title>
<g id="a_node10"><a xlink:href="DealDamage.svg" xlink:title="dra/DealDamage">
<ellipse fill="green" stroke="black" cx="1746.09" cy="-105" rx="88.28" ry="18"/>
<text text-anchor="middle" x="1746.09" y="-101.3" font-family="Times,serif" font-size="14.00">dra/DealDamage</text>
</a>
</g>
</g>
<!-- dra/DealDamage&#45;&gt;dra/CheckEquipmentItemCount -->
<g id="edge9" class="edge">
<title>dra/DealDamage&#45;&gt;dra/CheckEquipmentItemCount</title>
<path fill="none" stroke="black" d="M1708.61,-88.61C1675.02,-74.82 1625.53,-54.49 1588.68,-39.36"/>
<polygon fill="black" stroke="black" points="1589.7,-36 1579.12,-35.44 1587.05,-42.47 1589.7,-36"/>
<text text-anchor="middle" x="1660.09" y="-57.8" font-family="Times,serif" font-size="14.00">1</text>
</g>
<!-- dra/GetStatusAilmentTimer -->
<g id="node11" class="node">
<title>dra/GetStatusAilmentTimer</title>
<g id="a_node11"><a xlink:href="GetStatusAilmentTimer.svg" xlink:title="dra/GetStatusAilmentTimer">
<ellipse fill="green" stroke="black" cx="1992.09" cy="-105" rx="139.98" ry="18"/>
<text text-anchor="middle" x="1992.09" y="-101.3" font-family="Times,serif" font-size="14.00">dra/GetStatusAilmentTimer</text>
</a>
</g>
</g>
<!-- dra/GetStatusAilmentTimer&#45;&gt;dra/CheckEquipmentItemCount -->
<g id="edge10" class="edge">
<title>dra/GetStatusAilmentTimer&#45;&gt;dra/CheckEquipmentItemCount</title>
<path fill="none" stroke="black" d="M1916.53,-89.82C1836.94,-74.89 1711.73,-51.39 1627.59,-35.61"/>
<polygon fill="black" stroke="black" points="1628.01,-32.12 1617.54,-33.72 1626.72,-39 1628.01,-32.12"/>
<text text-anchor="middle" x="1798.09" y="-57.8" font-family="Times,serif" font-size="14.00">1</text>
</g>
<!-- dra/func_800FE97C -->
<g id="node12" class="node">
<title>dra/func_800FE97C</title>
<g id="a_node12"><a xlink:href="func_800FE97C.svg" xlink:title="dra/func_800FE97C">
<ellipse fill="red" stroke="black" cx="2252.09" cy="-105" rx="102.88" ry="18"/>
<text text-anchor="middle" x="2252.09" y="-101.3" font-family="Times,serif" font-size="14.00">dra/func_800FE97C</text>
</a>
</g>
</g>
<!-- dra/func_800FE97C&#45;&gt;dra/CheckEquipmentItemCount -->
<g id="edge11" class="edge">
<title>dra/func_800FE97C&#45;&gt;dra/CheckEquipmentItemCount</title>
<path fill="none" stroke="black" d="M2178.71,-92.34C2166.17,-90.47 2153.27,-88.62 2141.09,-87 1976.05,-65.05 1784.93,-44.24 1663.09,-31.56"/>
<polygon fill="black" stroke="black" points="1663.29,-28.06 1652.99,-30.51 1662.57,-35.03 1663.29,-28.06"/>
<text text-anchor="middle" x="1998.09" y="-57.8" font-family="Times,serif" font-size="14.00">5</text>
</g>
<!-- dra/func_800FE3C4 -->
<g id="node13" class="node">
<title>dra/func_800FE3C4</title>
<g id="a_node13"><a xlink:href="func_800FE3C4.svg" xlink:title="dra/func_800FE3C4">
<ellipse fill="green" stroke="black" cx="2475.09" cy="-105" rx="102.88" ry="18"/>
<text text-anchor="middle" x="2475.09" y="-101.3" font-family="Times,serif" font-size="14.00">dra/func_800FE3C4</text>
</a>
</g>
</g>
<!-- dra/func_800FE3C4&#45;&gt;dra/CheckEquipmentItemCount -->
<g id="edge12" class="edge">
<title>dra/func_800FE3C4&#45;&gt;dra/CheckEquipmentItemCount</title>
<path fill="none" stroke="black" d="M2402.33,-92.22C2389.61,-90.34 2376.48,-88.52 2364.09,-87 2127.79,-58.01 1851.85,-38.06 1686.52,-27.6"/>
<polygon fill="black" stroke="black" points="1686.49,-24.09 1676.29,-26.95 1686.05,-31.07 1686.49,-24.09"/>
<text text-anchor="middle" x="2189.09" y="-57.8" font-family="Times,serif" font-size="14.00">3</text>
</g>
<!-- dra/func_800FD9D4 -->
<g id="node14" class="node">
<title>dra/func_800FD9D4</title>
<g id="a_node14"><a xlink:href="func_800FD9D4.svg" xlink:title="dra/func_800FD9D4">
<ellipse fill="green" stroke="black" cx="2700.09" cy="-105" rx="103.98" ry="18"/>
<text text-anchor="middle" x="2700.09" y="-101.3" font-family="Times,serif" font-size="14.00">dra/func_800FD9D4</text>
</a>
</g>
</g>
<!-- dra/func_800FD9D4&#45;&gt;dra/CheckEquipmentItemCount -->
<g id="edge13" class="edge">
<title>dra/func_800FD9D4&#45;&gt;dra/CheckEquipmentItemCount</title>
<path fill="none" stroke="black" d="M2626.64,-92.24C2613.49,-90.34 2599.9,-88.51 2587.09,-87 2273.68,-50.17 1905.02,-32.06 1699.08,-24.19"/>
<polygon fill="black" stroke="black" points="1698.91,-20.68 1688.79,-23.8 1698.65,-27.68 1698.91,-20.68"/>
<text text-anchor="middle" x="2393.09" y="-57.8" font-family="Times,serif" font-size="14.00">1</text>
</g>
<!-- dra/func_800FDD44 -->
<g id="node15" class="node">
<title>dra/func_800FDD44</title>
<g id="a_node15"><a xlink:href="func_800FDD44.svg" xlink:title="dra/func_800FDD44">
<ellipse fill="green" stroke="black" cx="2926.09" cy="-105" rx="103.98" ry="18"/>
<text text-anchor="middle" x="2926.09" y="-101.3" font-family="Times,serif" font-size="14.00">dra/func_800FDD44</text>
</a>
</g>
</g>
<!-- dra/func_800FDD44&#45;&gt;dra/CheckEquipmentItemCount -->
<g id="edge14" class="edge">
<title>dra/func_800FDD44&#45;&gt;dra/CheckEquipmentItemCount</title>
<path fill="none" stroke="black" d="M2852.64,-92.2C2839.49,-90.3 2825.9,-88.48 2813.09,-87 2417.28,-41.39 1948.7,-26.3 1705.03,-21.36"/>
<polygon fill="black" stroke="black" points="1705.1,-17.86 1695.03,-21.16 1704.96,-24.86 1705.1,-17.86"/>
<text text-anchor="middle" x="2611.09" y="-57.8" font-family="Times,serif" font-size="14.00">1</text>
</g>
<!-- dra/func_800FF494 -->
<g id="node16" class="node">
<title>dra/func_800FF494</title>
<g id="a_node16"><a xlink:href="func_800FF494.svg" xlink:title="dra/func_800FF494">
<ellipse fill="green" stroke="black" cx="3149.09" cy="-105" rx="101.28" ry="18"/>
<text text-anchor="middle" x="3149.09" y="-101.3" font-family="Times,serif" font-size="14.00">dra/func_800FF494</text>
</a>
</g>
</g>
<!-- dra/func_800FF494&#45;&gt;dra/CheckEquipmentItemCount -->
<g id="edge15" class="edge">
<title>dra/func_800FF494&#45;&gt;dra/CheckEquipmentItemCount</title>
<path fill="none" stroke="black" d="M3077.6,-92.16C3064.8,-90.26 3051.57,-88.45 3039.09,-87 2853.55,-65.39 2806.6,-64.36 2620.09,-54 2295.67,-35.98 1915.92,-26.33 1703.87,-21.97"/>
<polygon fill="black" stroke="black" points="1703.66,-18.46 1693.59,-21.76 1703.52,-25.46 1703.66,-18.46"/>
<text text-anchor="middle" x="2862.09" y="-57.8" font-family="Times,serif" font-size="14.00">1</text>
</g>
</g>
</svg>
