<?xml version="1.0" encoding="UTF-8" standalone="no"?>
<!DOCTYPE svg PUBLIC "-//W3C//DTD SVG 1.1//EN"
 "http://www.w3.org/Graphics/SVG/1.1/DTD/svg11.dtd">
<!-- Generated by graphviz version 2.43.0 (0)
 -->
<!-- Title: ClutLerp Pages: 1 -->
<svg width="328pt" height="131pt"
 viewBox="0.00 0.00 327.79 131.00" xmlns="http://www.w3.org/2000/svg" xmlns:xlink="http://www.w3.org/1999/xlink">
<g id="graph0" class="graph" transform="scale(1 1) rotate(0) translate(4 127)">
<title>ClutLerp</title>
<polygon fill="white" stroke="transparent" points="-4,4 -4,-127 323.79,-127 323.79,4 -4,4"/>
<!-- wrp/ClutLerp -->
<g id="node1" class="node">
<title>wrp/ClutLerp</title>
<ellipse fill="green" stroke="black" cx="167.19" cy="-105" rx="72.59" ry="18"/>
<text text-anchor="middle" x="167.19" y="-101.3" font-family="Times,serif" font-size="14.00">wrp/ClutLerp</text>
</g>
<!-- wrp/LoadImage -->
<g id="node2" class="node">
<title>wrp/LoadImage</title>
<g id="a_node2"><a xlink:href="LoadImage.svg" xlink:title="wrp/LoadImage">
<ellipse fill="lightblue" stroke="black" cx="83.19" cy="-18" rx="83.39" ry="18"/>
<text text-anchor="middle" x="83.19" y="-14.3" font-family="Times,serif" font-size="14.00">wrp/LoadImage</text>
</a>
</g>
</g>
<!-- wrp/ClutLerp&#45;&gt;wrp/LoadImage -->
<g id="edge1" class="edge">
<title>wrp/ClutLerp&#45;&gt;wrp/LoadImage</title>
<path fill="none" stroke="black" d="M150.6,-87.21C138.17,-74.63 120.99,-57.25 107.09,-43.18"/>
<polygon fill="black" stroke="black" points="109.27,-40.41 99.75,-35.76 104.29,-45.33 109.27,-40.41"/>
<text text-anchor="middle" x="136.19" y="-57.8" font-family="Times,serif" font-size="14.00">1</text>
</g>
<!-- wrp/GetClut -->
<g id="node3" class="node">
<title>wrp/GetClut</title>
<g id="a_node3"><a xlink:href="GetClut.svg" xlink:title="wrp/GetClut">
<ellipse fill="lightblue" stroke="black" cx="252.19" cy="-18" rx="67.69" ry="18"/>
<text text-anchor="middle" x="252.19" y="-14.3" font-family="Times,serif" font-size="14.00">wrp/GetClut</text>
</a>
</g>
</g>
<!-- wrp/ClutLerp&#45;&gt;wrp/GetClut -->
<g id="edge2" class="edge">
<title>wrp/ClutLerp&#45;&gt;wrp/GetClut</title>
<path fill="none" stroke="black" d="M183.99,-87.21C196.64,-74.55 214.17,-57.03 228.28,-42.91"/>
<polygon fill="black" stroke="black" points="231.13,-45.02 235.72,-35.47 226.18,-40.07 231.13,-45.02"/>
<text text-anchor="middle" x="220.19" y="-57.8" font-family="Times,serif" font-size="14.00">1</text>
</g>
</g>
</svg>
