<?xml version="1.0" encoding="UTF-8" standalone="no"?>
<!DOCTYPE svg PUBLIC "-//W3C//DTD SVG 1.1//EN"
 "http://www.w3.org/Graphics/SVG/1.1/DTD/svg11.dtd">
<!-- Generated by graphviz version 2.43.0 (0)
 -->
<!-- Title: DecompressData Pages: 1 -->
<svg width="592pt" height="218pt"
 viewBox="0.00 0.00 591.72 218.00" xmlns="http://www.w3.org/2000/svg" xmlns:xlink="http://www.w3.org/1999/xlink">
<g id="graph0" class="graph" transform="scale(1 1) rotate(0) translate(4 214)">
<title>DecompressData</title>
<polygon fill="white" stroke="transparent" points="-4,4 -4,-214 587.72,-214 587.72,4 -4,4"/>
<!-- dra/DecompressData -->
<g id="node1" class="node">
<title>dra/DecompressData</title>
<ellipse fill="red" stroke="black" cx="290.39" cy="-105" rx="108.58" ry="18"/>
<text text-anchor="middle" x="290.39" y="-101.3" font-family="Times,serif" font-size="14.00">dra/DecompressData</text>
</g>
<!-- dra/DecompressReadNibble -->
<g id="node2" class="node">
<title>dra/DecompressReadNibble</title>
<g id="a_node2"><a xlink:href="DecompressReadNibble.svg" xlink:title="dra/DecompressReadNibble">
<ellipse fill="green" stroke="black" cx="140.39" cy="-18" rx="140.28" ry="18"/>
<text text-anchor="middle" x="140.39" y="-14.3" font-family="Times,serif" font-size="14.00">dra/DecompressReadNibble</text>
</a>
</g>
</g>
<!-- dra/DecompressData&#45;&gt;dra/DecompressReadNibble -->
<g id="edge1" class="edge">
<title>dra/DecompressData&#45;&gt;dra/DecompressReadNibble</title>
<path fill="none" stroke="black" d="M261.47,-87.61C237.86,-74.23 204.31,-55.22 178.51,-40.6"/>
<polygon fill="black" stroke="black" points="180.16,-37.51 169.73,-35.63 176.71,-43.6 180.16,-37.51"/>
<text text-anchor="middle" x="233.89" y="-57.8" font-family="Times,serif" font-size="14.00">10</text>
</g>
<!-- dra/DecompressWriteNibble -->
<g id="node3" class="node">
<title>dra/DecompressWriteNibble</title>
<g id="a_node3"><a xlink:href="DecompressWriteNibble.svg" xlink:title="dra/DecompressWriteNibble">
<ellipse fill="green" stroke="black" cx="441.39" cy="-18" rx="142.17" ry="18"/>
<text text-anchor="middle" x="441.39" y="-14.3" font-family="Times,serif" font-size="14.00">dra/DecompressWriteNibble</text>
</a>
</g>
</g>
<!-- dra/DecompressData&#45;&gt;dra/DecompressWriteNibble -->
<g id="edge2" class="edge">
<title>dra/DecompressData&#45;&gt;dra/DecompressWriteNibble</title>
<path fill="none" stroke="black" d="M319.5,-87.61C343.27,-74.23 377.04,-55.22 403.02,-40.6"/>
<polygon fill="black" stroke="black" points="404.85,-43.58 411.85,-35.63 401.42,-37.48 404.85,-43.58"/>
<text text-anchor="middle" x="383.89" y="-57.8" font-family="Times,serif" font-size="14.00">11</text>
</g>
<!-- dra/func_800EB314 -->
<g id="node4" class="node">
<title>dra/func_800EB314</title>
<g id="a_node4"><a xlink:href="func_800EB314.svg" xlink:title="dra/func_800EB314">
<ellipse fill="red" stroke="black" cx="290.39" cy="-192" rx="102.88" ry="18"/>
<text text-anchor="middle" x="290.39" y="-188.3" font-family="Times,serif" font-size="14.00">dra/func_800EB314</text>
</a>
</g>
</g>
<!-- dra/func_800EB314&#45;&gt;dra/DecompressData -->
<g id="edge3" class="edge">
<title>dra/func_800EB314&#45;&gt;dra/DecompressData</title>
<path fill="none" stroke="black" d="M290.39,-173.8C290.39,-162.16 290.39,-146.55 290.39,-133.24"/>
<polygon fill="black" stroke="black" points="293.89,-133.18 290.39,-123.18 286.89,-133.18 293.89,-133.18"/>
<text text-anchor="middle" x="295.39" y="-144.8" font-family="Times,serif" font-size="14.00">1</text>
</g>
</g>
</svg>
