<?xml version="1.0" encoding="UTF-8" standalone="no"?>
<!DOCTYPE svg PUBLIC "-//W3C//DTD SVG 1.1//EN"
 "http://www.w3.org/Graphics/SVG/1.1/DTD/svg11.dtd">
<!-- Generated by graphviz version 2.43.0 (0)
 -->
<!-- Title: DestroyEntities Pages: 1 -->
<svg width="1474pt" height="218pt"
 viewBox="0.00 0.00 1473.83 218.00" xmlns="http://www.w3.org/2000/svg" xmlns:xlink="http://www.w3.org/1999/xlink">
<g id="graph0" class="graph" transform="scale(1 1) rotate(0) translate(4 214)">
<title>DestroyEntities</title>
<polygon fill="white" stroke="transparent" points="-4,4 -4,-214 1469.83,-214 1469.83,4 -4,4"/>
<!-- dra/DestroyEntities -->
<g id="node1" class="node">
<title>dra/DestroyEntities</title>
<ellipse fill="green" stroke="black" cx="728.04" cy="-105" rx="102.88" ry="18"/>
<text text-anchor="middle" x="728.04" y="-101.3" font-family="Times,serif" font-size="14.00">dra/DestroyEntities</text>
</g>
<!-- dra/DestroyEntity -->
<g id="node2" class="node">
<title>dra/DestroyEntity</title>
<g id="a_node2"><a xlink:href="DestroyEntity.svg" xlink:title="dra/DestroyEntity">
<ellipse fill="green" stroke="black" cx="728.04" cy="-18" rx="94.78" ry="18"/>
<text text-anchor="middle" x="728.04" y="-14.3" font-family="Times,serif" font-size="14.00">dra/DestroyEntity</text>
</a>
</g>
</g>
<!-- dra/DestroyEntities&#45;&gt;dra/DestroyEntity -->
<g id="edge1" class="edge">
<title>dra/DestroyEntities&#45;&gt;dra/DestroyEntity</title>
<path fill="none" stroke="black" d="M728.04,-86.8C728.04,-75.16 728.04,-59.55 728.04,-46.24"/>
<polygon fill="black" stroke="black" points="731.54,-46.18 728.04,-36.18 724.54,-46.18 731.54,-46.18"/>
<text text-anchor="middle" x="733.04" y="-57.8" font-family="Times,serif" font-size="14.00">1</text>
</g>
<!-- dra/func_800F298C -->
<g id="node3" class="node">
<title>dra/func_800F298C</title>
<g id="a_node3"><a xlink:href="func_800F298C.svg" xlink:title="dra/func_800F298C">
<ellipse fill="red" stroke="black" cx="102.04" cy="-192" rx="102.08" ry="18"/>
<text text-anchor="middle" x="102.04" y="-188.3" font-family="Times,serif" font-size="14.00">dra/func_800F298C</text>
</a>
</g>
</g>
<!-- dra/func_800F298C&#45;&gt;dra/DestroyEntities -->
<g id="edge2" class="edge">
<title>dra/func_800F298C&#45;&gt;dra/DestroyEntities</title>
<path fill="none" stroke="black" d="M175.75,-179.49C188.19,-177.61 200.98,-175.72 213.04,-174 361.44,-152.84 534.24,-130.49 637.19,-117.42"/>
<polygon fill="black" stroke="black" points="637.76,-120.87 647.24,-116.14 636.88,-113.93 637.76,-120.87"/>
<text text-anchor="middle" x="458.04" y="-144.8" font-family="Times,serif" font-size="14.00">6</text>
</g>
<!-- dra/func_800E4970 -->
<g id="node4" class="node">
<title>dra/func_800E4970</title>
<g id="a_node4"><a xlink:href="func_800E4970.svg" xlink:title="dra/func_800E4970">
<ellipse fill="green" stroke="black" cx="323.04" cy="-192" rx="101.28" ry="18"/>
<text text-anchor="middle" x="323.04" y="-188.3" font-family="Times,serif" font-size="14.00">dra/func_800E4970</text>
</a>
</g>
</g>
<!-- dra/func_800E4970&#45;&gt;dra/DestroyEntities -->
<g id="edge3" class="edge">
<title>dra/func_800E4970&#45;&gt;dra/DestroyEntities</title>
<path fill="none" stroke="black" d="M385.88,-177.81C458.6,-162.55 578.17,-137.45 654.98,-121.33"/>
<polygon fill="black" stroke="black" points="655.99,-124.7 665.06,-119.22 654.55,-117.85 655.99,-124.7"/>
<text text-anchor="middle" x="555.04" y="-144.8" font-family="Times,serif" font-size="14.00">1</text>
</g>
<!-- dra/HandlePlay -->
<g id="node5" class="node">
<title>dra/HandlePlay</title>
<g id="a_node5"><a xlink:href="HandlePlay.svg" xlink:title="dra/HandlePlay">
<ellipse fill="green" stroke="black" cx="525.04" cy="-192" rx="82.59" ry="18"/>
<text text-anchor="middle" x="525.04" y="-188.3" font-family="Times,serif" font-size="14.00">dra/HandlePlay</text>
</a>
</g>
</g>
<!-- dra/HandlePlay&#45;&gt;dra/DestroyEntities -->
<g id="edge4" class="edge">
<title>dra/HandlePlay&#45;&gt;dra/DestroyEntities</title>
<path fill="none" stroke="black" d="M561.33,-175.8C594.73,-161.82 644.46,-141 680.91,-125.73"/>
<polygon fill="black" stroke="black" points="682.47,-128.88 690.34,-121.78 679.77,-122.42 682.47,-128.88"/>
<text text-anchor="middle" x="644.04" y="-144.8" font-family="Times,serif" font-size="14.00">1</text>
</g>
<!-- dra/entrypoint_sotn -->
<g id="node6" class="node">
<title>dra/entrypoint_sotn</title>
<g id="a_node6"><a xlink:href="entrypoint_sotn.svg" xlink:title="dra/entrypoint_sotn">
<ellipse fill="green" stroke="black" cx="728.04" cy="-192" rx="102.88" ry="18"/>
<text text-anchor="middle" x="728.04" y="-188.3" font-family="Times,serif" font-size="14.00">dra/entrypoint_sotn</text>
</a>
</g>
</g>
<!-- dra/entrypoint_sotn&#45;&gt;dra/DestroyEntities -->
<g id="edge5" class="edge">
<title>dra/entrypoint_sotn&#45;&gt;dra/DestroyEntities</title>
<path fill="none" stroke="black" d="M728.04,-173.8C728.04,-162.16 728.04,-146.55 728.04,-133.24"/>
<polygon fill="black" stroke="black" points="731.54,-133.18 728.04,-123.18 724.54,-133.18 731.54,-133.18"/>
<text text-anchor="middle" x="733.04" y="-144.8" font-family="Times,serif" font-size="14.00">1</text>
</g>
<!-- dra/HandleTitle -->
<g id="node7" class="node">
<title>dra/HandleTitle</title>
<g id="a_node7"><a xlink:href="HandleTitle.svg" xlink:title="dra/HandleTitle">
<ellipse fill="green" stroke="black" cx="932.04" cy="-192" rx="83.39" ry="18"/>
<text text-anchor="middle" x="932.04" y="-188.3" font-family="Times,serif" font-size="14.00">dra/HandleTitle</text>
</a>
</g>
</g>
<!-- dra/HandleTitle&#45;&gt;dra/DestroyEntities -->
<g id="edge6" class="edge">
<title>dra/HandleTitle&#45;&gt;dra/DestroyEntities</title>
<path fill="none" stroke="black" d="M895.57,-175.8C862.01,-161.82 812.04,-141 775.4,-125.73"/>
<polygon fill="black" stroke="black" points="776.5,-122.4 765.92,-121.78 773.81,-128.86 776.5,-122.4"/>
<text text-anchor="middle" x="848.04" y="-144.8" font-family="Times,serif" font-size="14.00">1</text>
</g>
<!-- dra/HandleEnding -->
<g id="node8" class="node">
<title>dra/HandleEnding</title>
<g id="a_node8"><a xlink:href="HandleEnding.svg" xlink:title="dra/HandleEnding">
<ellipse fill="green" stroke="black" cx="1129.04" cy="-192" rx="95.58" ry="18"/>
<text text-anchor="middle" x="1129.04" y="-188.3" font-family="Times,serif" font-size="14.00">dra/HandleEnding</text>
</a>
</g>
</g>
<!-- dra/HandleEnding&#45;&gt;dra/DestroyEntities -->
<g id="edge7" class="edge">
<title>dra/HandleEnding&#45;&gt;dra/DestroyEntities</title>
<path fill="none" stroke="black" d="M1068.14,-178.09C996.43,-162.89 877.42,-137.66 800.88,-121.44"/>
<polygon fill="black" stroke="black" points="801.35,-117.96 790.84,-119.31 799.9,-124.81 801.35,-117.96"/>
<text text-anchor="middle" x="958.04" y="-144.8" font-family="Times,serif" font-size="14.00">1</text>
</g>
<!-- dra/HandleGameOver -->
<g id="node9" class="node">
<title>dra/HandleGameOver</title>
<g id="a_node9"><a xlink:href="HandleGameOver.svg" xlink:title="dra/HandleGameOver">
<ellipse fill="red" stroke="black" cx="1354.04" cy="-192" rx="111.58" ry="18"/>
<text text-anchor="middle" x="1354.04" y="-188.3" font-family="Times,serif" font-size="14.00">dra/HandleGameOver</text>
</a>
</g>
</g>
<!-- dra/HandleGameOver&#45;&gt;dra/DestroyEntities -->
<g id="edge8" class="edge">
<title>dra/HandleGameOver&#45;&gt;dra/DestroyEntities</title>
<path fill="none" stroke="black" d="M1273.37,-179.49C1260.22,-177.64 1246.76,-175.75 1234.04,-174 1088.24,-153.88 918.7,-131.25 817.56,-117.83"/>
<polygon fill="black" stroke="black" points="817.75,-114.33 807.38,-116.48 816.83,-121.27 817.75,-114.33"/>
<text text-anchor="middle" x="1101.04" y="-144.8" font-family="Times,serif" font-size="14.00">1</text>
</g>
</g>
</svg>
