<?xml version="1.0" encoding="UTF-8" standalone="no"?>
<!DOCTYPE svg PUBLIC "-//W3C//DTD SVG 1.1//EN"
 "http://www.w3.org/Graphics/SVG/1.1/DTD/svg11.dtd">
<!-- Generated by graphviz version 2.43.0 (0)
 -->
<!-- Title: dra.ApplyJosephsCloakPalette Pages: 1 -->
<svg width="394pt" height="218pt"
 viewBox="0.00 0.00 393.93 218.00" xmlns="http://www.w3.org/2000/svg" xmlns:xlink="http://www.w3.org/1999/xlink">
<g id="graph0" class="graph" transform="scale(1 1) rotate(0) translate(4 214)">
<title>dra.ApplyJosephsCloakPalette</title>
<polygon fill="white" stroke="transparent" points="-4,4 -4,-214 389.93,-214 389.93,4 -4,4"/>
<!-- dra.ApplyJosephsCloakPalette -->
<g id="node1" class="node">
<title>dra.ApplyJosephsCloakPalette</title>
<ellipse fill="green" stroke="black" cx="202.39" cy="-105" rx="149.47" ry="18"/>
<text text-anchor="middle" x="202.39" y="-101.3" font-family="Times,serif" font-size="14.00">dra.ApplyJosephsCloakPalette</text>
</g>
<!-- dra.DarkenCloakColor -->
<g id="node2" class="node">
<title>dra.DarkenCloakColor</title>
<g id="a_node2"><a xlink:href="dra.DarkenCloakColor.svg" xlink:title="dra.DarkenCloakColor">
<ellipse fill="green" stroke="black" cx="202.39" cy="-18" rx="113.98" ry="18"/>
<text text-anchor="middle" x="202.39" y="-14.3" font-family="Times,serif" font-size="14.00">dra.DarkenCloakColor</text>
</a>
</g>
</g>
<!-- dra.ApplyJosephsCloakPalette&#45;&gt;dra.DarkenCloakColor -->
<g id="edge1" class="edge">
<title>dra.ApplyJosephsCloakPalette&#45;&gt;dra.DarkenCloakColor</title>
<path fill="none" stroke="black" d="M202.39,-86.8C202.39,-75.16 202.39,-59.55 202.39,-46.24"/>
<polygon fill="black" stroke="black" points="205.89,-46.18 202.39,-36.18 198.89,-46.18 205.89,-46.18"/>
<text text-anchor="middle" x="207.39" y="-57.8" font-family="Times,serif" font-size="14.00">6</text>
</g>
<!-- dra.func_800F6A70 -->
<g id="node3" class="node">
<title>dra.func_800F6A70</title>
<g id="a_node3"><a xlink:href="dra.func_800F6A70.svg" xlink:title="dra.func_800F6A70">
<ellipse fill="red" stroke="black" cx="101.39" cy="-192" rx="101.28" ry="18"/>
<text text-anchor="middle" x="101.39" y="-188.3" font-family="Times,serif" font-size="14.00">dra.func_800F6A70</text>
</a>
</g>
</g>
<!-- dra.func_800F6A70&#45;&gt;dra.ApplyJosephsCloakPalette -->
<g id="edge2" class="edge">
<title>dra.func_800F6A70&#45;&gt;dra.ApplyJosephsCloakPalette</title>
<path fill="none" stroke="black" d="M121.35,-174.21C136.46,-161.48 157.43,-143.84 174.25,-129.68"/>
<polygon fill="black" stroke="black" points="176.73,-132.17 182.13,-123.05 172.23,-126.81 176.73,-132.17"/>
<text text-anchor="middle" x="163.39" y="-144.8" font-family="Times,serif" font-size="14.00">1</text>
</g>
<!-- dra.HandlePlay -->
<g id="node4" class="node">
<title>dra.HandlePlay</title>
<g id="a_node4"><a xlink:href="dra.HandlePlay.svg" xlink:title="dra.HandlePlay">
<ellipse fill="green" stroke="black" cx="303.39" cy="-192" rx="82.59" ry="18"/>
<text text-anchor="middle" x="303.39" y="-188.3" font-family="Times,serif" font-size="14.00">dra.HandlePlay</text>
</a>
</g>
</g>
<!-- dra.HandlePlay&#45;&gt;dra.ApplyJosephsCloakPalette -->
<g id="edge3" class="edge">
<title>dra.HandlePlay&#45;&gt;dra.ApplyJosephsCloakPalette</title>
<path fill="none" stroke="black" d="M283.44,-174.21C268.32,-161.48 247.35,-143.84 230.53,-129.68"/>
<polygon fill="black" stroke="black" points="232.55,-126.81 222.65,-123.05 228.05,-132.17 232.55,-126.81"/>
<text text-anchor="middle" x="264.39" y="-144.8" font-family="Times,serif" font-size="14.00">1</text>
</g>
</g>
</svg>
