<?xml version="1.0" encoding="UTF-8" standalone="no"?>
<!DOCTYPE svg PUBLIC "-//W3C//DTD SVG 1.1//EN"
 "http://www.w3.org/Graphics/SVG/1.1/DTD/svg11.dtd">
<!-- Generated by graphviz version 2.43.0 (0)
 -->
<!-- Title: dra.AddToInventory Pages: 1 -->
<svg width="3205pt" height="404pt"
 viewBox="0.00 0.00 3204.93 404.00" xmlns="http://www.w3.org/2000/svg" xmlns:xlink="http://www.w3.org/1999/xlink">
<g id="graph0" class="graph" transform="scale(1 1) rotate(0) translate(4 400)">
<title>dra.AddToInventory</title>
<polygon fill="white" stroke="transparent" points="-4,4 -4,-400 3200.93,-400 3200.93,4 -4,4"/>
<!-- dra.AddToInventory -->
<g id="node1" class="node">
<title>dra.AddToInventory</title>
<ellipse fill="red" stroke="black" cx="1511.99" cy="-198" rx="102.88" ry="18"/>
<text text-anchor="middle" x="1511.99" y="-194.3" font-family="Times,serif" font-size="14.00">dra.AddToInventory</text>
</g>
<!-- dra.GetEquipCount -->
<g id="node2" class="node">
<title>dra.GetEquipCount</title>
<g id="a_node2"><a xlink:href="dra.GetEquipCount.svg" xlink:title="dra.GetEquipCount">
<ellipse fill="green" stroke="black" cx="1402.99" cy="-18" rx="100.98" ry="18"/>
<text text-anchor="middle" x="1402.99" y="-14.3" font-family="Times,serif" font-size="14.00">dra.GetEquipCount</text>
</a>
</g>
</g>
<!-- dra.AddToInventory&#45;&gt;dra.GetEquipCount -->
<g id="edge1" class="edge">
<title>dra.AddToInventory&#45;&gt;dra.GetEquipCount</title>
<path fill="none" stroke="black" d="M1501.54,-179.93C1482.33,-148.57 1441.32,-81.6 1418.73,-44.71"/>
<polygon fill="black" stroke="black" points="1421.62,-42.72 1413.41,-36.02 1415.65,-46.37 1421.62,-42.72"/>
<text text-anchor="middle" x="1408.41" y="-39.82" font-family="Times,serif" font-size="14.00">1</text>
</g>
<!-- dra.GetEquipOrder -->
<g id="node3" class="node">
<title>dra.GetEquipOrder</title>
<g id="a_node3"><a xlink:href="dra.GetEquipOrder.svg" xlink:title="dra.GetEquipOrder">
<ellipse fill="green" stroke="black" cx="1621.99" cy="-18" rx="100.98" ry="18"/>
<text text-anchor="middle" x="1621.99" y="-14.3" font-family="Times,serif" font-size="14.00">dra.GetEquipOrder</text>
</a>
</g>
</g>
<!-- dra.AddToInventory&#45;&gt;dra.GetEquipOrder -->
<g id="edge2" class="edge">
<title>dra.AddToInventory&#45;&gt;dra.GetEquipOrder</title>
<path fill="none" stroke="black" d="M1522.54,-179.93C1541.92,-148.57 1583.3,-81.6 1606.1,-44.71"/>
<polygon fill="black" stroke="black" points="1609.19,-46.36 1611.47,-36.02 1603.24,-42.68 1609.19,-46.36"/>
<text text-anchor="middle" x="1606.47" y="-39.82" font-family="Times,serif" font-size="14.00">1</text>
</g>
<!-- cen.EntityEquipItemDrop -->
<g id="node4" class="node">
<title>cen.EntityEquipItemDrop</title>
<g id="a_node4"><a xlink:href="cen.EntityEquipItemDrop.svg" xlink:title="cen.EntityEquipItemDrop">
<ellipse fill="red" stroke="black" cx="129.99" cy="-378" rx="129.98" ry="18"/>
<text text-anchor="middle" x="129.99" y="-374.3" font-family="Times,serif" font-size="14.00">cen.EntityEquipItemDrop</text>
</a>
</g>
</g>
<!-- cen.EntityEquipItemDrop&#45;&gt;dra.AddToInventory -->
<g id="edge3" class="edge">
<title>cen.EntityEquipItemDrop&#45;&gt;dra.AddToInventory</title>
<path fill="none" stroke="black" d="M221.74,-365.18C473.26,-332.79 1171.62,-242.84 1421.57,-210.65"/>
<polygon fill="black" stroke="black" points="1422.23,-214.09 1431.7,-209.34 1421.33,-207.15 1422.23,-214.09"/>
<text text-anchor="middle" x="216.74" y="-353.98" font-family="Times,serif" font-size="14.00">1</text>
</g>
<!-- dra.InitStatsAndGear -->
<g id="node5" class="node">
<title>dra.InitStatsAndGear</title>
<g id="a_node5"><a xlink:href="dra.InitStatsAndGear.svg" xlink:title="dra.InitStatsAndGear">
<ellipse fill="green" stroke="black" cx="387.99" cy="-378" rx="110.48" ry="18"/>
<text text-anchor="middle" x="387.99" y="-374.3" font-family="Times,serif" font-size="14.00">dra.InitStatsAndGear</text>
</a>
</g>
</g>
<!-- dra.InitStatsAndGear&#45;&gt;dra.AddToInventory -->
<g id="edge4" class="edge">
<title>dra.InitStatsAndGear&#45;&gt;dra.AddToInventory</title>
<path fill="none" stroke="black" d="M464.36,-364.91C667.08,-332.8 1217.62,-245.62 1428.37,-212.24"/>
<polygon fill="black" stroke="black" points="1429.12,-215.67 1438.45,-210.65 1428.03,-208.75 1429.12,-215.67"/>
<text text-anchor="middle" x="454.86" y="-353.71" font-family="Times,serif" font-size="14.00">41</text>
</g>
<!-- dra.func_800FB23C -->
<g id="node6" class="node">
<title>dra.func_800FB23C</title>
<g id="a_node6"><a xlink:href="dra.func_800FB23C.svg" xlink:title="dra.func_800FB23C">
<ellipse fill="red" stroke="black" cx="618.99" cy="-378" rx="102.88" ry="18"/>
<text text-anchor="middle" x="618.99" y="-374.3" font-family="Times,serif" font-size="14.00">dra.func_800FB23C</text>
</a>
</g>
</g>
<!-- dra.func_800FB23C&#45;&gt;dra.AddToInventory -->
<g id="edge5" class="edge">
<title>dra.func_800FB23C&#45;&gt;dra.AddToInventory</title>
<path fill="none" stroke="black" d="M683.93,-364.06C845.57,-331.84 1265.25,-248.18 1437.02,-213.94"/>
<polygon fill="black" stroke="black" points="1437.87,-217.34 1446.99,-211.96 1436.5,-210.48 1437.87,-217.34"/>
<text text-anchor="middle" x="678.93" y="-352.86" font-family="Times,serif" font-size="14.00">2</text>
</g>
<!-- dra.func_800FBC24 -->
<g id="node7" class="node">
<title>dra.func_800FBC24</title>
<g id="a_node7"><a xlink:href="dra.func_800FBC24.svg" xlink:title="dra.func_800FBC24">
<ellipse fill="red" stroke="black" cx="841.99" cy="-378" rx="102.88" ry="18"/>
<text text-anchor="middle" x="841.99" y="-374.3" font-family="Times,serif" font-size="14.00">dra.func_800FBC24</text>
</a>
</g>
</g>
<!-- dra.func_800FBC24&#45;&gt;dra.AddToInventory -->
<g id="edge6" class="edge">
<title>dra.func_800FBC24&#45;&gt;dra.AddToInventory</title>
<path fill="none" stroke="black" d="M895.97,-362.66C1018.28,-330.16 1316.12,-251.04 1447.69,-216.08"/>
<polygon fill="black" stroke="black" points="1448.86,-219.39 1457.63,-213.44 1447.07,-212.63 1448.86,-219.39"/>
<text text-anchor="middle" x="890.97" y="-351.46" font-family="Times,serif" font-size="14.00">2</text>
</g>
<!-- dre.EntityEquipItemDrop -->
<g id="node8" class="node">
<title>dre.EntityEquipItemDrop</title>
<g id="a_node8"><a xlink:href="dre.EntityEquipItemDrop.svg" xlink:title="dre.EntityEquipItemDrop">
<ellipse fill="green" stroke="black" cx="1092.99" cy="-378" rx="129.98" ry="18"/>
<text text-anchor="middle" x="1092.99" y="-374.3" font-family="Times,serif" font-size="14.00">dre.EntityEquipItemDrop</text>
</a>
</g>
</g>
<!-- dre.EntityEquipItemDrop&#45;&gt;dra.AddToInventory -->
<g id="edge7" class="edge">
<title>dre.EntityEquipItemDrop&#45;&gt;dra.AddToInventory</title>
<path fill="none" stroke="black" d="M1131.28,-360.73C1208.41,-327.97 1382.2,-254.14 1465.61,-218.7"/>
<polygon fill="black" stroke="black" points="1467,-221.91 1474.84,-214.78 1464.26,-215.47 1467,-221.91"/>
<text text-anchor="middle" x="1126.28" y="-349.53" font-family="Times,serif" font-size="14.00">1</text>
</g>
<!-- no3.EntityEquipItemDrop -->
<g id="node9" class="node">
<title>no3.EntityEquipItemDrop</title>
<g id="a_node9"><a xlink:href="no3.EntityEquipItemDrop.svg" xlink:title="no3.EntityEquipItemDrop">
<ellipse fill="green" stroke="black" cx="1371.99" cy="-378" rx="131.08" ry="18"/>
<text text-anchor="middle" x="1371.99" y="-374.3" font-family="Times,serif" font-size="14.00">no3.EntityEquipItemDrop</text>
</a>
</g>
</g>
<!-- no3.EntityEquipItemDrop&#45;&gt;dra.AddToInventory -->
<g id="edge8" class="edge">
<title>no3.EntityEquipItemDrop&#45;&gt;dra.AddToInventory</title>
<path fill="none" stroke="black" d="M1385.41,-359.93C1410.19,-328.43 1463.2,-261.03 1492.14,-224.24"/>
<polygon fill="black" stroke="black" points="1495.17,-226.04 1498.61,-216.02 1489.67,-221.71 1495.17,-226.04"/>
<text text-anchor="middle" x="1380.41" y="-348.73" font-family="Times,serif" font-size="14.00">1</text>
</g>
<!-- np3.EntityEquipItemDrop -->
<g id="node10" class="node">
<title>np3.EntityEquipItemDrop</title>
<g id="a_node10"><a xlink:href="np3.EntityEquipItemDrop.svg" xlink:title="np3.EntityEquipItemDrop">
<ellipse fill="green" stroke="black" cx="1652.99" cy="-378" rx="131.88" ry="18"/>
<text text-anchor="middle" x="1652.99" y="-374.3" font-family="Times,serif" font-size="14.00">np3.EntityEquipItemDrop</text>
</a>
</g>
</g>
<!-- np3.EntityEquipItemDrop&#45;&gt;dra.AddToInventory -->
<g id="edge9" class="edge">
<title>np3.EntityEquipItemDrop&#45;&gt;dra.AddToInventory</title>
<path fill="none" stroke="black" d="M1639.47,-359.93C1614.52,-328.43 1561.13,-261.03 1531.98,-224.24"/>
<polygon fill="black" stroke="black" points="1534.42,-221.68 1525.47,-216.02 1528.93,-226.03 1534.42,-221.68"/>
<text text-anchor="middle" x="1634.47" y="-348.73" font-family="Times,serif" font-size="14.00">1</text>
</g>
<!-- nz0.EntityEquipItemDrop -->
<g id="node11" class="node">
<title>nz0.EntityEquipItemDrop</title>
<g id="a_node11"><a xlink:href="nz0.EntityEquipItemDrop.svg" xlink:title="nz0.EntityEquipItemDrop">
<ellipse fill="green" stroke="black" cx="1933.99" cy="-378" rx="130.78" ry="18"/>
<text text-anchor="middle" x="1933.99" y="-374.3" font-family="Times,serif" font-size="14.00">nz0.EntityEquipItemDrop</text>
</a>
</g>
</g>
<!-- nz0.EntityEquipItemDrop&#45;&gt;dra.AddToInventory -->
<g id="edge10" class="edge">
<title>nz0.EntityEquipItemDrop&#45;&gt;dra.AddToInventory</title>
<path fill="none" stroke="black" d="M1895.42,-360.73C1817.74,-327.97 1642.71,-254.14 1558.7,-218.7"/>
<polygon fill="black" stroke="black" points="1559.98,-215.44 1549.41,-214.78 1557.26,-221.89 1559.98,-215.44"/>
<text text-anchor="middle" x="1890.42" y="-349.53" font-family="Times,serif" font-size="14.00">1</text>
</g>
<!-- rwrp.EntityEquipItemDrop -->
<g id="node12" class="node">
<title>rwrp.EntityEquipItemDrop</title>
<g id="a_node12"><a xlink:href="rwrp.EntityEquipItemDrop.svg" xlink:title="rwrp.EntityEquipItemDrop">
<ellipse fill="red" stroke="black" cx="2218.99" cy="-378" rx="136.48" ry="18"/>
<text text-anchor="middle" x="2218.99" y="-374.3" font-family="Times,serif" font-size="14.00">rwrp.EntityEquipItemDrop</text>
</a>
</g>
</g>
<!-- rwrp.EntityEquipItemDrop&#45;&gt;dra.AddToInventory -->
<g id="edge11" class="edge">
<title>rwrp.EntityEquipItemDrop&#45;&gt;dra.AddToInventory</title>
<path fill="none" stroke="black" d="M2158.71,-361.82C2027.1,-328.69 1714.87,-250.08 1578.1,-215.64"/>
<polygon fill="black" stroke="black" points="1578.72,-212.19 1568.17,-213.14 1577.01,-218.98 1578.72,-212.19"/>
<text text-anchor="middle" x="2153.71" y="-350.62" font-family="Times,serif" font-size="14.00">1</text>
</g>
<!-- st0.EntityEquipItemDrop -->
<g id="node13" class="node">
<title>st0.EntityEquipItemDrop</title>
<g id="a_node13"><a xlink:href="st0.EntityEquipItemDrop.svg" xlink:title="st0.EntityEquipItemDrop">
<ellipse fill="red" stroke="black" cx="2501.99" cy="-378" rx="128.88" ry="18"/>
<text text-anchor="middle" x="2501.99" y="-374.3" font-family="Times,serif" font-size="14.00">st0.EntityEquipItemDrop</text>
</a>
</g>
</g>
<!-- st0.EntityEquipItemDrop&#45;&gt;dra.AddToInventory -->
<g id="edge12" class="edge">
<title>st0.EntityEquipItemDrop&#45;&gt;dra.AddToInventory</title>
<path fill="none" stroke="black" d="M2426.36,-363.4C2243.27,-330.48 1777.61,-246.76 1591.05,-213.22"/>
<polygon fill="black" stroke="black" points="1591.5,-209.74 1581.04,-211.42 1590.26,-216.63 1591.5,-209.74"/>
<text text-anchor="middle" x="2421.36" y="-352.2" font-family="Times,serif" font-size="14.00">1</text>
</g>
<!-- w_021.func_ptr_80170004 -->
<g id="node14" class="node">
<title>w_021.func_ptr_80170004</title>
<g id="a_node14"><a xlink:href="w_021.func_ptr_80170004.svg" xlink:title="w_021.func_ptr_80170004">
<ellipse fill="red" stroke="black" cx="2781.99" cy="-378" rx="133.48" ry="18"/>
<text text-anchor="middle" x="2781.99" y="-374.3" font-family="Times,serif" font-size="14.00">w_021.func_ptr_80170004</text>
</a>
</g>
</g>
<!-- w_021.func_ptr_80170004&#45;&gt;dra.AddToInventory -->
<g id="edge13" class="edge">
<title>w_021.func_ptr_80170004&#45;&gt;dra.AddToInventory</title>
<path fill="none" stroke="black" d="M2693.19,-364.55C2459.82,-331.85 1831.29,-243.75 1599.45,-211.26"/>
<polygon fill="black" stroke="black" points="1599.76,-207.77 1589.37,-209.85 1598.79,-214.7 1599.76,-207.77"/>
<text text-anchor="middle" x="2688.19" y="-353.35" font-family="Times,serif" font-size="14.00">1</text>
</g>
<!-- wrp.EntityEquipItemDrop -->
<g id="node15" class="node">
<title>wrp.EntityEquipItemDrop</title>
<g id="a_node15"><a xlink:href="wrp.EntityEquipItemDrop.svg" xlink:title="wrp.EntityEquipItemDrop">
<ellipse fill="green" stroke="black" cx="3064.99" cy="-378" rx="131.88" ry="18"/>
<text text-anchor="middle" x="3064.99" y="-374.3" font-family="Times,serif" font-size="14.00">wrp.EntityEquipItemDrop</text>
</a>
</g>
</g>
<!-- wrp.EntityEquipItemDrop&#45;&gt;dra.AddToInventory -->
<g id="edge14" class="edge">
<title>wrp.EntityEquipItemDrop&#45;&gt;dra.AddToInventory</title>
<path fill="none" stroke="black" d="M2969.81,-365.44C2954.49,-363.6 2938.8,-361.74 2923.99,-360 2427.74,-301.79 1833.01,-234.93 1606.16,-209.53"/>
<polygon fill="black" stroke="black" points="1606.29,-206.02 1595.96,-208.38 1605.51,-212.97 1606.29,-206.02"/>
<text text-anchor="middle" x="2964.81" y="-354.24" font-family="Times,serif" font-size="14.00">1</text>
</g>
</g>
</svg>
