<?xml version="1.0" encoding="UTF-8" standalone="no"?>
<!DOCTYPE svg PUBLIC "-//W3C//DTD SVG 1.1//EN"
 "http://www.w3.org/Graphics/SVG/1.1/DTD/svg11.dtd">
<!-- Generated by graphviz version 2.43.0 (0)
 -->
<!-- Title: dra.func_800FF460 Pages: 1 -->
<svg width="1455pt" height="224pt"
 viewBox="0.00 0.00 1454.93 224.00" xmlns="http://www.w3.org/2000/svg" xmlns:xlink="http://www.w3.org/1999/xlink">
<g id="graph0" class="graph" transform="scale(1 1) rotate(0) translate(4 220)">
<title>dra.func_800FF460</title>
<polygon fill="white" stroke="transparent" points="-4,4 -4,-220 1450.93,-220 1450.93,4 -4,4"/>
<!-- dra.func_800FF460 -->
<g id="node1" class="node">
<title>dra.func_800FF460</title>
<ellipse fill="green" stroke="black" cx="725.74" cy="-18" rx="101.28" ry="18"/>
<text text-anchor="middle" x="725.74" y="-14.3" font-family="Times,serif" font-size="14.00">dra.func_800FF460</text>
</g>
<!-- rwrp.TestCollisions -->
<g id="node2" class="node">
<title>rwrp.TestCollisions</title>
<g id="a_node2"><a xlink:href="rwrp.TestCollisions.svg" xlink:title="rwrp.TestCollisions">
<ellipse fill="red" stroke="black" cx="100.74" cy="-198" rx="100.98" ry="18"/>
<text text-anchor="middle" x="100.74" y="-194.3" font-family="Times,serif" font-size="14.00">rwrp.TestCollisions</text>
</a>
</g>
</g>
<!-- rwrp.TestCollisions&#45;&gt;dra.func_800FF460 -->
<g id="edge1" class="edge">
<title>rwrp.TestCollisions&#45;&gt;dra.func_800FF460</title>
<path fill="none" stroke="black" d="M151.89,-182.43C266.14,-149.89 541.68,-71.42 664.68,-36.39"/>
<polygon fill="black" stroke="black" points="665.67,-39.75 674.33,-33.64 663.75,-33.02 665.67,-39.75"/>
<text text-anchor="middle" x="146.89" y="-171.23" font-family="Times,serif" font-size="14.00">1</text>
</g>
<!-- dre.TestCollisions -->
<g id="node3" class="node">
<title>dre.TestCollisions</title>
<g id="a_node3"><a xlink:href="dre.TestCollisions.svg" xlink:title="dre.TestCollisions">
<ellipse fill="red" stroke="black" cx="312.74" cy="-198" rx="93.68" ry="18"/>
<text text-anchor="middle" x="312.74" y="-194.3" font-family="Times,serif" font-size="14.00">dre.TestCollisions</text>
</a>
</g>
</g>
<!-- dre.TestCollisions&#45;&gt;dra.func_800FF460 -->
<g id="edge2" class="edge">
<title>dre.TestCollisions&#45;&gt;dra.func_800FF460</title>
<path fill="none" stroke="black" d="M349.03,-181.36C424.2,-148.96 596.8,-74.57 679.68,-38.85"/>
<polygon fill="black" stroke="black" points="681.29,-41.97 689.09,-34.8 678.52,-35.54 681.29,-41.97"/>
<text text-anchor="middle" x="344.03" y="-170.16" font-family="Times,serif" font-size="14.00">1</text>
</g>
<!-- cen.TestCollisions -->
<g id="node4" class="node">
<title>cen.TestCollisions</title>
<g id="a_node4"><a xlink:href="cen.TestCollisions.svg" xlink:title="cen.TestCollisions">
<ellipse fill="red" stroke="black" cx="518.74" cy="-198" rx="94.48" ry="18"/>
<text text-anchor="middle" x="518.74" y="-194.3" font-family="Times,serif" font-size="14.00">cen.TestCollisions</text>
</a>
</g>
</g>
<!-- cen.TestCollisions&#45;&gt;dra.func_800FF460 -->
<g id="edge3" class="edge">
<title>cen.TestCollisions&#45;&gt;dra.func_800FF460</title>
<path fill="none" stroke="black" d="M538.22,-180.25C575.28,-148.38 656.04,-78.94 698.47,-42.45"/>
<polygon fill="black" stroke="black" points="700.87,-45 706.17,-35.83 696.3,-39.7 700.87,-45"/>
<text text-anchor="middle" x="533.22" y="-169.05" font-family="Times,serif" font-size="14.00">1</text>
</g>
<!-- no3.TestCollisions -->
<g id="node5" class="node">
<title>no3.TestCollisions</title>
<g id="a_node5"><a xlink:href="no3.TestCollisions.svg" xlink:title="no3.TestCollisions">
<ellipse fill="red" stroke="black" cx="725.74" cy="-198" rx="94.78" ry="18"/>
<text text-anchor="middle" x="725.74" y="-194.3" font-family="Times,serif" font-size="14.00">no3.TestCollisions</text>
</a>
</g>
</g>
<!-- no3.TestCollisions&#45;&gt;dra.func_800FF460 -->
<g id="edge4" class="edge">
<title>no3.TestCollisions&#45;&gt;dra.func_800FF460</title>
<path fill="none" stroke="black" d="M725.74,-179.93C725.74,-148.97 725.74,-83.3 725.74,-46.13"/>
<polygon fill="black" stroke="black" points="729.24,-46.02 725.74,-36.02 722.24,-46.02 729.24,-46.02"/>
<text text-anchor="middle" x="720.74" y="-168.73" font-family="Times,serif" font-size="14.00">1</text>
</g>
<!-- np3.TestCollisions -->
<g id="node6" class="node">
<title>np3.TestCollisions</title>
<g id="a_node6"><a xlink:href="np3.TestCollisions.svg" xlink:title="np3.TestCollisions">
<ellipse fill="red" stroke="black" cx="933.74" cy="-198" rx="95.58" ry="18"/>
<text text-anchor="middle" x="933.74" y="-194.3" font-family="Times,serif" font-size="14.00">np3.TestCollisions</text>
</a>
</g>
</g>
<!-- np3.TestCollisions&#45;&gt;dra.func_800FF460 -->
<g id="edge5" class="edge">
<title>np3.TestCollisions&#45;&gt;dra.func_800FF460</title>
<path fill="none" stroke="black" d="M914.17,-180.25C876.93,-148.38 795.78,-78.94 753.15,-42.45"/>
<polygon fill="black" stroke="black" points="755.28,-39.67 745.41,-35.83 750.73,-44.99 755.28,-39.67"/>
<text text-anchor="middle" x="909.17" y="-169.05" font-family="Times,serif" font-size="14.00">1</text>
</g>
<!-- nz0.TestCollisions -->
<g id="node7" class="node">
<title>nz0.TestCollisions</title>
<g id="a_node7"><a xlink:href="nz0.TestCollisions.svg" xlink:title="nz0.TestCollisions">
<ellipse fill="red" stroke="black" cx="1141.74" cy="-198" rx="94.78" ry="18"/>
<text text-anchor="middle" x="1141.74" y="-194.3" font-family="Times,serif" font-size="14.00">nz0.TestCollisions</text>
</a>
</g>
</g>
<!-- nz0.TestCollisions&#45;&gt;dra.func_800FF460 -->
<g id="edge6" class="edge">
<title>nz0.TestCollisions&#45;&gt;dra.func_800FF460</title>
<path fill="none" stroke="black" d="M1105.19,-181.36C1029.4,-148.93 855.26,-74.42 771.88,-38.74"/>
<polygon fill="black" stroke="black" points="773.23,-35.51 762.66,-34.8 770.47,-41.95 773.23,-35.51"/>
<text text-anchor="middle" x="1100.19" y="-170.16" font-family="Times,serif" font-size="14.00">1</text>
</g>
<!-- wrp.TestCollisions -->
<g id="node8" class="node">
<title>wrp.TestCollisions</title>
<g id="a_node8"><a xlink:href="wrp.TestCollisions.svg" xlink:title="wrp.TestCollisions">
<ellipse fill="red" stroke="black" cx="1350.74" cy="-198" rx="96.38" ry="18"/>
<text text-anchor="middle" x="1350.74" y="-194.3" font-family="Times,serif" font-size="14.00">wrp.TestCollisions</text>
</a>
</g>
</g>
<!-- wrp.TestCollisions&#45;&gt;dra.func_800FF460 -->
<g id="edge7" class="edge">
<title>wrp.TestCollisions&#45;&gt;dra.func_800FF460</title>
<path fill="none" stroke="black" d="M1300.39,-182.66C1186.55,-150.24 909.7,-71.39 786.55,-36.32"/>
<polygon fill="black" stroke="black" points="787.46,-32.94 776.89,-33.57 785.55,-39.67 787.46,-32.94"/>
<text text-anchor="middle" x="1295.39" y="-171.46" font-family="Times,serif" font-size="14.00">1</text>
</g>
</g>
</svg>
