<?xml version="1.0" encoding="UTF-8" standalone="no"?>
<!DOCTYPE svg PUBLIC "-//W3C//DTD SVG 1.1//EN"
 "http://www.w3.org/Graphics/SVG/1.1/DTD/svg11.dtd">
<!-- Generated by graphviz version 2.43.0 (0)
 -->
<!-- Title: dra.func_80118C28 Pages: 1 -->
<svg width="2425pt" height="131pt"
 viewBox="0.00 0.00 2425.43 131.00" xmlns="http://www.w3.org/2000/svg" xmlns:xlink="http://www.w3.org/1999/xlink">
<g id="graph0" class="graph" transform="scale(1 1) rotate(0) translate(4 127)">
<title>dra.func_80118C28</title>
<polygon fill="white" stroke="transparent" points="-4,4 -4,-127 2421.43,-127 2421.43,4 -4,4"/>
<!-- dra.func_80118C28 -->
<g id="node1" class="node">
<title>dra.func_80118C28</title>
<ellipse fill="green" stroke="black" cx="1384.69" cy="-18" rx="101.28" ry="18"/>
<text text-anchor="middle" x="1384.69" y="-14.3" font-family="Times,serif" font-size="14.00">dra.func_80118C28</text>
</g>
<!-- w_044.func_138000_8017A580 -->
<g id="node2" class="node">
<title>w_044.func_138000_8017A580</title>
<g id="a_node2"><a xlink:href="w_044.func_138000_8017A580.svg" xlink:title="w_044.func_138000_8017A580">
<ellipse fill="red" stroke="black" cx="154.69" cy="-105" rx="154.87" ry="18"/>
<text text-anchor="middle" x="154.69" y="-101.3" font-family="Times,serif" font-size="14.00">w_044.func_138000_8017A580</text>
</a>
</g>
</g>
<!-- w_044.func_138000_8017A580&#45;&gt;dra.func_80118C28 -->
<g id="edge1" class="edge">
<title>w_044.func_138000_8017A580&#45;&gt;dra.func_80118C28</title>
<path fill="none" stroke="black" d="M262.91,-92.11C281.18,-90.27 299.97,-88.49 317.69,-87 669.07,-57.36 1086.53,-34.27 1278.5,-24.32"/>
<polygon fill="black" stroke="black" points="1278.77,-27.81 1288.58,-23.8 1278.41,-20.82 1278.77,-27.81"/>
<text text-anchor="middle" x="762.69" y="-57.8" font-family="Times,serif" font-size="14.00">1</text>
</g>
<!-- w_018.func_82000_8017ABE4 -->
<g id="node3" class="node">
<title>w_018.func_82000_8017ABE4</title>
<g id="a_node3"><a xlink:href="w_018.func_82000_8017ABE4.svg" xlink:title="w_018.func_82000_8017ABE4">
<ellipse fill="red" stroke="black" cx="477.69" cy="-105" rx="150.57" ry="18"/>
<text text-anchor="middle" x="477.69" y="-101.3" font-family="Times,serif" font-size="14.00">w_018.func_82000_8017ABE4</text>
</a>
</g>
</g>
<!-- w_018.func_82000_8017ABE4&#45;&gt;dra.func_80118C28 -->
<g id="edge2" class="edge">
<title>w_018.func_82000_8017ABE4&#45;&gt;dra.func_80118C28</title>
<path fill="none" stroke="black" d="M585.25,-92.35C602.77,-90.51 620.73,-88.67 637.69,-87 869.6,-64.12 1142.31,-40 1285.45,-27.55"/>
<polygon fill="black" stroke="black" points="1285.87,-31.03 1295.53,-26.68 1285.26,-24.06 1285.87,-31.03"/>
<text text-anchor="middle" x="990.69" y="-57.8" font-family="Times,serif" font-size="14.00">2</text>
</g>
<!-- w_020.func_90000_8017AF68 -->
<g id="node4" class="node">
<title>w_020.func_90000_8017AF68</title>
<g id="a_node4"><a xlink:href="w_020.func_90000_8017AF68.svg" xlink:title="w_020.func_90000_8017AF68">
<ellipse fill="red" stroke="black" cx="795.69" cy="-105" rx="149.47" ry="18"/>
<text text-anchor="middle" x="795.69" y="-101.3" font-family="Times,serif" font-size="14.00">w_020.func_90000_8017AF68</text>
</a>
</g>
</g>
<!-- w_020.func_90000_8017AF68&#45;&gt;dra.func_80118C28 -->
<g id="edge3" class="edge">
<title>w_020.func_90000_8017AF68&#45;&gt;dra.func_80118C28</title>
<path fill="none" stroke="black" d="M887.39,-90.77C999.8,-74.54 1188.83,-47.26 1298.61,-31.42"/>
<polygon fill="black" stroke="black" points="1299.25,-34.87 1308.65,-29.97 1298.25,-27.94 1299.25,-34.87"/>
<text text-anchor="middle" x="1130.69" y="-57.8" font-family="Times,serif" font-size="14.00">2</text>
</g>
<!-- w_017.func_7B000_8017A74C -->
<g id="node5" class="node">
<title>w_017.func_7B000_8017A74C</title>
<g id="a_node5"><a xlink:href="w_017.func_7B000_8017A74C.svg" xlink:title="w_017.func_7B000_8017A74C">
<ellipse fill="red" stroke="black" cx="1113.69" cy="-105" rx="150.57" ry="18"/>
<text text-anchor="middle" x="1113.69" y="-101.3" font-family="Times,serif" font-size="14.00">w_017.func_7B000_8017A74C</text>
</a>
</g>
</g>
<!-- w_017.func_7B000_8017A74C&#45;&gt;dra.func_80118C28 -->
<g id="edge4" class="edge">
<title>w_017.func_7B000_8017A74C&#45;&gt;dra.func_80118C28</title>
<path fill="none" stroke="black" d="M1164.66,-88.01C1210.99,-73.48 1279.28,-52.06 1327.46,-36.95"/>
<polygon fill="black" stroke="black" points="1328.63,-40.25 1337.12,-33.92 1326.53,-33.57 1328.63,-40.25"/>
<text text-anchor="middle" x="1270.69" y="-57.8" font-family="Times,serif" font-size="14.00">1</text>
</g>
<!-- dra.func_8010FB68 -->
<g id="node6" class="node">
<title>dra.func_8010FB68</title>
<g id="a_node6"><a xlink:href="dra.func_8010FB68.svg" xlink:title="dra.func_8010FB68">
<ellipse fill="green" stroke="black" cx="1384.69" cy="-105" rx="102.08" ry="18"/>
<text text-anchor="middle" x="1384.69" y="-101.3" font-family="Times,serif" font-size="14.00">dra.func_8010FB68</text>
</a>
</g>
</g>
<!-- dra.func_8010FB68&#45;&gt;dra.func_80118C28 -->
<g id="edge5" class="edge">
<title>dra.func_8010FB68&#45;&gt;dra.func_80118C28</title>
<path fill="none" stroke="black" d="M1384.69,-86.8C1384.69,-75.16 1384.69,-59.55 1384.69,-46.24"/>
<polygon fill="black" stroke="black" points="1388.19,-46.18 1384.69,-36.18 1381.19,-46.18 1388.19,-46.18"/>
<text text-anchor="middle" x="1389.69" y="-57.8" font-family="Times,serif" font-size="14.00">1</text>
</g>
<!-- dra.func_8010FBF4 -->
<g id="node7" class="node">
<title>dra.func_8010FBF4</title>
<g id="a_node7"><a xlink:href="dra.func_8010FBF4.svg" xlink:title="dra.func_8010FBF4">
<ellipse fill="green" stroke="black" cx="1607.69" cy="-105" rx="102.88" ry="18"/>
<text text-anchor="middle" x="1607.69" y="-101.3" font-family="Times,serif" font-size="14.00">dra.func_8010FBF4</text>
</a>
</g>
</g>
<!-- dra.func_8010FBF4&#45;&gt;dra.func_80118C28 -->
<g id="edge6" class="edge">
<title>dra.func_8010FBF4&#45;&gt;dra.func_80118C28</title>
<path fill="none" stroke="black" d="M1566.78,-88.41C1529.61,-74.24 1474.66,-53.29 1434.85,-38.12"/>
<polygon fill="black" stroke="black" points="1435.92,-34.78 1425.33,-34.49 1433.43,-41.32 1435.92,-34.78"/>
<text text-anchor="middle" x="1514.69" y="-57.8" font-family="Times,serif" font-size="14.00">1</text>
</g>
<!-- dra.func_80115394 -->
<g id="node8" class="node">
<title>dra.func_80115394</title>
<g id="a_node8"><a xlink:href="dra.func_80115394.svg" xlink:title="dra.func_80115394">
<ellipse fill="red" stroke="black" cx="1828.69" cy="-105" rx="100.98" ry="18"/>
<text text-anchor="middle" x="1828.69" y="-101.3" font-family="Times,serif" font-size="14.00">dra.func_80115394</text>
</a>
</g>
</g>
<!-- dra.func_80115394&#45;&gt;dra.func_80118C28 -->
<g id="edge7" class="edge">
<title>dra.func_80115394&#45;&gt;dra.func_80118C28</title>
<path fill="none" stroke="black" d="M1762.69,-91.37C1682.06,-75.93 1545.91,-49.86 1460.89,-33.59"/>
<polygon fill="black" stroke="black" points="1461.52,-30.15 1451.04,-31.7 1460.2,-37.02 1461.52,-30.15"/>
<text text-anchor="middle" x="1638.69" y="-57.8" font-family="Times,serif" font-size="14.00">4</text>
</g>
<!-- dra.EntitySummonSpirit -->
<g id="node9" class="node">
<title>dra.EntitySummonSpirit</title>
<g id="a_node9"><a xlink:href="dra.EntitySummonSpirit.svg" xlink:title="dra.EntitySummonSpirit">
<ellipse fill="red" stroke="black" cx="2072.69" cy="-105" rx="125.38" ry="18"/>
<text text-anchor="middle" x="2072.69" y="-101.3" font-family="Times,serif" font-size="14.00">dra.EntitySummonSpirit</text>
</a>
</g>
</g>
<!-- dra.EntitySummonSpirit&#45;&gt;dra.func_80118C28 -->
<g id="edge8" class="edge">
<title>dra.EntitySummonSpirit&#45;&gt;dra.func_80118C28</title>
<path fill="none" stroke="black" d="M1982.23,-92.47C1967.67,-90.63 1952.76,-88.76 1938.69,-87 1775.74,-66.66 1585.77,-43.45 1475.95,-30.09"/>
<polygon fill="black" stroke="black" points="1476.25,-26.6 1465.9,-28.86 1475.4,-33.55 1476.25,-26.6"/>
<text text-anchor="middle" x="1791.69" y="-57.8" font-family="Times,serif" font-size="14.00">1</text>
</g>
<!-- dra.func_80115F54 -->
<g id="node10" class="node">
<title>dra.func_80115F54</title>
<g id="a_node10"><a xlink:href="dra.func_80115F54.svg" xlink:title="dra.func_80115F54">
<ellipse fill="green" stroke="black" cx="2316.69" cy="-105" rx="100.98" ry="18"/>
<text text-anchor="middle" x="2316.69" y="-101.3" font-family="Times,serif" font-size="14.00">dra.func_80115F54</text>
</a>
</g>
</g>
<!-- dra.func_80115F54&#45;&gt;dra.func_80118C28 -->
<g id="edge9" class="edge">
<title>dra.func_80115F54&#45;&gt;dra.func_80118C28</title>
<path fill="none" stroke="black" d="M2245.48,-92.24C2232.59,-90.33 2219.26,-88.49 2206.69,-87 1949.61,-56.54 1645.7,-35.19 1489.3,-25.27"/>
<polygon fill="black" stroke="black" points="1489.41,-21.77 1479.21,-24.64 1488.97,-28.76 1489.41,-21.77"/>
<text text-anchor="middle" x="2032.69" y="-57.8" font-family="Times,serif" font-size="14.00">1</text>
</g>
</g>
</svg>
