<?xml version="1.0" encoding="UTF-8" standalone="no"?>
<!DOCTYPE svg PUBLIC "-//W3C//DTD SVG 1.1//EN"
 "http://www.w3.org/Graphics/SVG/1.1/DTD/svg11.dtd">
<!-- Generated by graphviz version 2.43.0 (0)
 -->
<!-- Title: dra.func_8010E168 Pages: 1 -->
<svg width="4571pt" height="404pt"
 viewBox="0.00 0.00 4570.53 404.00" xmlns="http://www.w3.org/2000/svg" xmlns:xlink="http://www.w3.org/1999/xlink">
<g id="graph0" class="graph" transform="scale(1 1) rotate(0) translate(4 400)">
<title>dra.func_8010E168</title>
<polygon fill="white" stroke="transparent" points="-4,4 -4,-400 4566.53,-400 4566.53,4 -4,4"/>
<!-- dra.func_8010E168 -->
<g id="node1" class="node">
<title>dra.func_8010E168</title>
<ellipse fill="green" stroke="black" cx="2218.79" cy="-198" rx="101.28" ry="18"/>
<text text-anchor="middle" x="2218.79" y="-194.3" font-family="Times,serif" font-size="14.00">dra.func_8010E168</text>
</g>
<!-- dra.func_8011AAFC -->
<g id="node2" class="node">
<title>dra.func_8011AAFC</title>
<g id="a_node2"><a xlink:href="dra.func_8011AAFC.svg" xlink:title="dra.func_8011AAFC">
<ellipse fill="green" stroke="black" cx="2218.79" cy="-18" rx="102.88" ry="18"/>
<text text-anchor="middle" x="2218.79" y="-14.3" font-family="Times,serif" font-size="14.00">dra.func_8011AAFC</text>
</a>
</g>
</g>
<!-- dra.func_8010E168&#45;&gt;dra.func_8011AAFC -->
<g id="edge1" class="edge">
<title>dra.func_8010E168&#45;&gt;dra.func_8011AAFC</title>
<path fill="none" stroke="black" d="M2218.79,-179.93C2218.79,-148.97 2218.79,-83.3 2218.79,-46.13"/>
<polygon fill="black" stroke="black" points="2222.29,-46.02 2218.79,-36.02 2215.29,-46.02 2222.29,-46.02"/>
<text text-anchor="middle" x="2213.79" y="-39.82" font-family="Times,serif" font-size="14.00">1</text>
</g>
<!-- cen.EntityRedDoor -->
<g id="node3" class="node">
<title>cen.EntityRedDoor</title>
<g id="a_node3"><a xlink:href="cen.EntityRedDoor.svg" xlink:title="cen.EntityRedDoor">
<ellipse fill="red" stroke="black" cx="98.79" cy="-378" rx="98.58" ry="18"/>
<text text-anchor="middle" x="98.79" y="-374.3" font-family="Times,serif" font-size="14.00">cen.EntityRedDoor</text>
</a>
</g>
</g>
<!-- cen.EntityRedDoor&#45;&gt;dra.func_8010E168 -->
<g id="edge2" class="edge">
<title>cen.EntityRedDoor&#45;&gt;dra.func_8010E168</title>
<path fill="none" stroke="black" d="M168.33,-365.15C180.78,-363.26 193.65,-361.45 205.79,-360 932.6,-273.33 1812.75,-220.95 2112.75,-204.57"/>
<polygon fill="black" stroke="black" points="2113.39,-208.04 2123.18,-204 2113,-201.05 2113.39,-208.04"/>
<text text-anchor="middle" x="163.33" y="-353.95" font-family="Times,serif" font-size="14.00">1</text>
</g>
<!-- dra.EntityAlucard -->
<g id="node4" class="node">
<title>dra.EntityAlucard</title>
<g id="a_node4"><a xlink:href="dra.EntityAlucard.svg" xlink:title="dra.EntityAlucard">
<ellipse fill="red" stroke="black" cx="308.79" cy="-378" rx="93.68" ry="18"/>
<text text-anchor="middle" x="308.79" y="-374.3" font-family="Times,serif" font-size="14.00">dra.EntityAlucard</text>
</a>
</g>
</g>
<!-- dra.EntityAlucard&#45;&gt;dra.func_8010E168 -->
<g id="edge3" class="edge">
<title>dra.EntityAlucard&#45;&gt;dra.func_8010E168</title>
<path fill="none" stroke="black" d="M375.17,-365.3C387.33,-363.37 399.92,-361.51 411.79,-360 1057.23,-278.1 1837.61,-223.54 2114.9,-205.53"/>
<polygon fill="black" stroke="black" points="2115.19,-209.02 2124.95,-204.88 2114.74,-202.03 2115.19,-209.02"/>
<text text-anchor="middle" x="365.67" y="-354.1" font-family="Times,serif" font-size="14.00">18</text>
</g>
<!-- dra.EntityPlayerBlinkWhite -->
<g id="node5" class="node">
<title>dra.EntityPlayerBlinkWhite</title>
<g id="a_node5"><a xlink:href="dra.EntityPlayerBlinkWhite.svg" xlink:title="dra.EntityPlayerBlinkWhite">
<ellipse fill="red" stroke="black" cx="559.79" cy="-378" rx="139.18" ry="18"/>
<text text-anchor="middle" x="559.79" y="-374.3" font-family="Times,serif" font-size="14.00">dra.EntityPlayerBlinkWhite</text>
</a>
</g>
</g>
<!-- dra.EntityPlayerBlinkWhite&#45;&gt;dra.func_8010E168 -->
<g id="edge4" class="edge">
<title>dra.EntityPlayerBlinkWhite&#45;&gt;dra.func_8010E168</title>
<path fill="none" stroke="black" d="M659.69,-365.41C675.77,-363.58 692.24,-361.72 707.79,-360 1242.88,-300.76 1885.03,-233.66 2123.54,-208.87"/>
<polygon fill="black" stroke="black" points="2123.98,-212.35 2133.57,-207.83 2123.26,-205.39 2123.98,-212.35"/>
<text text-anchor="middle" x="654.69" y="-354.21" font-family="Times,serif" font-size="14.00">1</text>
</g>
<!-- dra.EntityPlayerPinkEffect -->
<g id="node6" class="node">
<title>dra.EntityPlayerPinkEffect</title>
<g id="a_node6"><a xlink:href="dra.EntityPlayerPinkEffect.svg" xlink:title="dra.EntityPlayerPinkEffect">
<ellipse fill="red" stroke="black" cx="852.79" cy="-378" rx="135.68" ry="18"/>
<text text-anchor="middle" x="852.79" y="-374.3" font-family="Times,serif" font-size="14.00">dra.EntityPlayerPinkEffect</text>
</a>
</g>
</g>
<!-- dra.EntityPlayerPinkEffect&#45;&gt;dra.func_8010E168 -->
<g id="edge5" class="edge">
<title>dra.EntityPlayerPinkEffect&#45;&gt;dra.func_8010E168</title>
<path fill="none" stroke="black" d="M945.88,-364.87C1196.65,-332.19 1883.97,-242.63 2129.85,-210.59"/>
<polygon fill="black" stroke="black" points="2130.36,-214.05 2139.82,-209.29 2129.45,-207.11 2130.36,-214.05"/>
<text text-anchor="middle" x="940.88" y="-353.67" font-family="Times,serif" font-size="14.00">1</text>
</g>
<!-- dra.func_800F298C -->
<g id="node7" class="node">
<title>dra.func_800F298C</title>
<g id="a_node7"><a xlink:href="dra.func_800F298C.svg" xlink:title="dra.func_800F298C">
<ellipse fill="red" stroke="black" cx="1108.79" cy="-378" rx="102.08" ry="18"/>
<text text-anchor="middle" x="1108.79" y="-374.3" font-family="Times,serif" font-size="14.00">dra.func_800F298C</text>
</a>
</g>
</g>
<!-- dra.func_800F298C&#45;&gt;dra.func_8010E168 -->
<g id="edge6" class="edge">
<title>dra.func_800F298C&#45;&gt;dra.func_8010E168</title>
<path fill="none" stroke="black" d="M1181.62,-365.32C1379.74,-333.55 1927.56,-245.7 2136.43,-212.21"/>
<polygon fill="black" stroke="black" points="2137.1,-215.65 2146.42,-210.61 2135.99,-208.73 2137.1,-215.65"/>
<text text-anchor="middle" x="1176.62" y="-354.12" font-family="Times,serif" font-size="14.00">1</text>
</g>
<!-- dra.func_8010FB24 -->
<g id="node8" class="node">
<title>dra.func_8010FB24</title>
<g id="a_node8"><a xlink:href="dra.func_8010FB24.svg" xlink:title="dra.func_8010FB24">
<ellipse fill="green" stroke="black" cx="1330.79" cy="-378" rx="102.08" ry="18"/>
<text text-anchor="middle" x="1330.79" y="-374.3" font-family="Times,serif" font-size="14.00">dra.func_8010FB24</text>
</a>
</g>
</g>
<!-- dra.func_8010FB24&#45;&gt;dra.func_8010E168 -->
<g id="edge7" class="edge">
<title>dra.func_8010FB24&#45;&gt;dra.func_8010E168</title>
<path fill="none" stroke="black" d="M1395.37,-364.06C1556.1,-331.84 1973.43,-248.18 2144.25,-213.94"/>
<polygon fill="black" stroke="black" points="2145.04,-217.35 2154.16,-211.96 2143.66,-210.49 2145.04,-217.35"/>
<text text-anchor="middle" x="1390.37" y="-352.86" font-family="Times,serif" font-size="14.00">1</text>
</g>
<!-- dra.func_80114DF4 -->
<g id="node9" class="node">
<title>dra.func_80114DF4</title>
<g id="a_node9"><a xlink:href="dra.func_80114DF4.svg" xlink:title="dra.func_80114DF4">
<ellipse fill="green" stroke="black" cx="1553.79" cy="-378" rx="102.88" ry="18"/>
<text text-anchor="middle" x="1553.79" y="-374.3" font-family="Times,serif" font-size="14.00">dra.func_80114DF4</text>
</a>
</g>
</g>
<!-- dra.func_80114DF4&#45;&gt;dra.func_8010E168 -->
<g id="edge8" class="edge">
<title>dra.func_80114DF4&#45;&gt;dra.func_8010E168</title>
<path fill="none" stroke="black" d="M1607.65,-362.58C1729.4,-330 2025.32,-250.79 2155.53,-215.93"/>
<polygon fill="black" stroke="black" points="2156.61,-219.27 2165.36,-213.3 2154.8,-212.51 2156.61,-219.27"/>
<text text-anchor="middle" x="1602.65" y="-351.38" font-family="Times,serif" font-size="14.00">5</text>
</g>
<!-- dra.func_8012E7A4 -->
<g id="node10" class="node">
<title>dra.func_8012E7A4</title>
<g id="a_node10"><a xlink:href="dra.func_8012E7A4.svg" xlink:title="dra.func_8012E7A4">
<ellipse fill="red" stroke="black" cx="1776.79" cy="-378" rx="102.08" ry="18"/>
<text text-anchor="middle" x="1776.79" y="-374.3" font-family="Times,serif" font-size="14.00">dra.func_8012E7A4</text>
</a>
</g>
</g>
<!-- dra.func_8012E7A4&#45;&gt;dra.func_8010E168 -->
<g id="edge9" class="edge">
<title>dra.func_8012E7A4&#45;&gt;dra.func_8010E168</title>
<path fill="none" stroke="black" d="M1816.02,-361.2C1896.96,-328.6 2082.31,-253.96 2170.48,-218.46"/>
<polygon fill="black" stroke="black" points="2172,-221.62 2179.97,-214.63 2169.39,-215.12 2172,-221.62"/>
<text text-anchor="middle" x="1811.02" y="-350" font-family="Times,serif" font-size="14.00">1</text>
</g>
<!-- dra.func_8012E9C0 -->
<g id="node11" class="node">
<title>dra.func_8012E9C0</title>
<g id="a_node11"><a xlink:href="dra.func_8012E9C0.svg" xlink:title="dra.func_8012E9C0">
<ellipse fill="red" stroke="black" cx="1999.79" cy="-378" rx="102.88" ry="18"/>
<text text-anchor="middle" x="1999.79" y="-374.3" font-family="Times,serif" font-size="14.00">dra.func_8012E9C0</text>
</a>
</g>
</g>
<!-- dra.func_8012E9C0&#45;&gt;dra.func_8010E168 -->
<g id="edge10" class="edge">
<title>dra.func_8012E9C0&#45;&gt;dra.func_8010E168</title>
<path fill="none" stroke="black" d="M2020.39,-360.25C2059.69,-328.32 2145.41,-258.65 2190.21,-222.23"/>
<polygon fill="black" stroke="black" points="2192.53,-224.85 2198.08,-215.83 2188.12,-219.42 2192.53,-224.85"/>
<text text-anchor="middle" x="2015.39" y="-349.05" font-family="Times,serif" font-size="14.00">1</text>
</g>
<!-- dre.EntityRedDoor -->
<g id="node12" class="node">
<title>dre.EntityRedDoor</title>
<g id="a_node12"><a xlink:href="dre.EntityRedDoor.svg" xlink:title="dre.EntityRedDoor">
<ellipse fill="red" stroke="black" cx="2218.79" cy="-378" rx="98.58" ry="18"/>
<text text-anchor="middle" x="2218.79" y="-374.3" font-family="Times,serif" font-size="14.00">dre.EntityRedDoor</text>
</a>
</g>
</g>
<!-- dre.EntityRedDoor&#45;&gt;dra.func_8010E168 -->
<g id="edge11" class="edge">
<title>dre.EntityRedDoor&#45;&gt;dra.func_8010E168</title>
<path fill="none" stroke="black" d="M2218.79,-359.93C2218.79,-328.97 2218.79,-263.3 2218.79,-226.13"/>
<polygon fill="black" stroke="black" points="2222.29,-226.02 2218.79,-216.02 2215.29,-226.02 2222.29,-226.02"/>
<text text-anchor="middle" x="2213.79" y="-348.73" font-family="Times,serif" font-size="14.00">1</text>
</g>
<!-- no3.EntityRedDoor -->
<g id="node13" class="node">
<title>no3.EntityRedDoor</title>
<g id="a_node13"><a xlink:href="no3.EntityRedDoor.svg" xlink:title="no3.EntityRedDoor">
<ellipse fill="red" stroke="black" cx="2435.79" cy="-378" rx="100.18" ry="18"/>
<text text-anchor="middle" x="2435.79" y="-374.3" font-family="Times,serif" font-size="14.00">no3.EntityRedDoor</text>
</a>
</g>
</g>
<!-- no3.EntityRedDoor&#45;&gt;dra.func_8010E168 -->
<g id="edge12" class="edge">
<title>no3.EntityRedDoor&#45;&gt;dra.func_8010E168</title>
<path fill="none" stroke="black" d="M2415.38,-360.25C2376.44,-328.32 2291.51,-258.65 2247.11,-222.23"/>
<polygon fill="black" stroke="black" points="2249.26,-219.47 2239.31,-215.83 2244.82,-224.88 2249.26,-219.47"/>
<text text-anchor="middle" x="2410.38" y="-349.05" font-family="Times,serif" font-size="14.00">1</text>
</g>
<!-- np3.EntityRedDoor -->
<g id="node14" class="node">
<title>np3.EntityRedDoor</title>
<g id="a_node14"><a xlink:href="np3.EntityRedDoor.svg" xlink:title="np3.EntityRedDoor">
<ellipse fill="red" stroke="black" cx="2654.79" cy="-378" rx="100.98" ry="18"/>
<text text-anchor="middle" x="2654.79" y="-374.3" font-family="Times,serif" font-size="14.00">np3.EntityRedDoor</text>
</a>
</g>
</g>
<!-- np3.EntityRedDoor&#45;&gt;dra.func_8010E168 -->
<g id="edge13" class="edge">
<title>np3.EntityRedDoor&#45;&gt;dra.func_8010E168</title>
<path fill="none" stroke="black" d="M2616.1,-361.2C2536.35,-328.65 2353.88,-254.15 2266.78,-218.59"/>
<polygon fill="black" stroke="black" points="2267.98,-215.3 2257.4,-214.76 2265.33,-221.78 2267.98,-215.3"/>
<text text-anchor="middle" x="2611.1" y="-350" font-family="Times,serif" font-size="14.00">1</text>
</g>
<!-- nz0.EntityMagicallySealedDoor -->
<g id="node15" class="node">
<title>nz0.EntityMagicallySealedDoor</title>
<g id="a_node15"><a xlink:href="nz0.EntityMagicallySealedDoor.svg" xlink:title="nz0.EntityMagicallySealedDoor">
<ellipse fill="red" stroke="black" cx="2930.79" cy="-378" rx="157.07" ry="18"/>
<text text-anchor="middle" x="2930.79" y="-374.3" font-family="Times,serif" font-size="14.00">nz0.EntityMagicallySealedDoor</text>
</a>
</g>
</g>
<!-- nz0.EntityMagicallySealedDoor&#45;&gt;dra.func_8010E168 -->
<g id="edge14" class="edge">
<title>nz0.EntityMagicallySealedDoor&#45;&gt;dra.func_8010E168</title>
<path fill="none" stroke="black" d="M2868.54,-361.44C2734.99,-328.05 2422.02,-249.81 2285,-215.55"/>
<polygon fill="black" stroke="black" points="2285.6,-212.1 2275.05,-213.07 2283.91,-218.89 2285.6,-212.1"/>
<text text-anchor="middle" x="2863.54" y="-350.24" font-family="Times,serif" font-size="14.00">1</text>
</g>
<!-- nz0.EntityRedDoor -->
<g id="node16" class="node">
<title>nz0.EntityRedDoor</title>
<g id="a_node16"><a xlink:href="nz0.EntityRedDoor.svg" xlink:title="nz0.EntityRedDoor">
<ellipse fill="red" stroke="black" cx="3205.79" cy="-378" rx="99.38" ry="18"/>
<text text-anchor="middle" x="3205.79" y="-374.3" font-family="Times,serif" font-size="14.00">nz0.EntityRedDoor</text>
</a>
</g>
</g>
<!-- nz0.EntityRedDoor&#45;&gt;dra.func_8010E168 -->
<g id="edge15" class="edge">
<title>nz0.EntityRedDoor&#45;&gt;dra.func_8010E168</title>
<path fill="none" stroke="black" d="M3137.95,-364.77C2960.9,-332.84 2485.55,-247.11 2297.21,-213.14"/>
<polygon fill="black" stroke="black" points="2297.57,-209.65 2287.11,-211.32 2296.33,-216.54 2297.57,-209.65"/>
<text text-anchor="middle" x="3132.95" y="-353.57" font-family="Times,serif" font-size="14.00">1</text>
</g>
<!-- rwrp.func_8018C948 -->
<g id="node17" class="node">
<title>rwrp.func_8018C948</title>
<g id="a_node17"><a xlink:href="rwrp.func_8018C948.svg" xlink:title="rwrp.func_8018C948">
<ellipse fill="red" stroke="black" cx="3431.79" cy="-378" rx="108.58" ry="18"/>
<text text-anchor="middle" x="3431.79" y="-374.3" font-family="Times,serif" font-size="14.00">rwrp.func_8018C948</text>
</a>
</g>
</g>
<!-- rwrp.func_8018C948&#45;&gt;dra.func_8010E168 -->
<g id="edge16" class="edge">
<title>rwrp.func_8018C948&#45;&gt;dra.func_8010E168</title>
<path fill="none" stroke="black" d="M3353.14,-365.46C3135.98,-333.59 2529.32,-244.57 2304.25,-211.54"/>
<polygon fill="black" stroke="black" points="2304.55,-208.05 2294.15,-210.06 2303.53,-214.97 2304.55,-208.05"/>
<text text-anchor="middle" x="3348.14" y="-354.26" font-family="Times,serif" font-size="14.00">1</text>
</g>
<!-- st0.EntityRedDoor -->
<g id="node18" class="node">
<title>st0.EntityRedDoor</title>
<g id="a_node18"><a xlink:href="st0.EntityRedDoor.svg" xlink:title="st0.EntityRedDoor">
<ellipse fill="red" stroke="black" cx="3655.79" cy="-378" rx="97.48" ry="18"/>
<text text-anchor="middle" x="3655.79" y="-374.3" font-family="Times,serif" font-size="14.00">st0.EntityRedDoor</text>
</a>
</g>
</g>
<!-- st0.EntityRedDoor&#45;&gt;dra.func_8010E168 -->
<g id="edge17" class="edge">
<title>st0.EntityRedDoor&#45;&gt;dra.func_8010E168</title>
<path fill="none" stroke="black" d="M3586,-365.41C3573.94,-363.52 3561.51,-361.65 3549.79,-360 3086.93,-294.91 2531.24,-232.87 2313.16,-209.15"/>
<polygon fill="black" stroke="black" points="2313.35,-205.65 2303.03,-208.05 2312.59,-212.61 2313.35,-205.65"/>
<text text-anchor="middle" x="3581" y="-354.21" font-family="Times,serif" font-size="14.00">1</text>
</g>
<!-- w_010.EntityWeaponAttack -->
<g id="node19" class="node">
<title>w_010.EntityWeaponAttack</title>
<g id="a_node19"><a xlink:href="w_010.EntityWeaponAttack.svg" xlink:title="w_010.EntityWeaponAttack">
<ellipse fill="red" stroke="black" cx="3909.79" cy="-378" rx="138.38" ry="18"/>
<text text-anchor="middle" x="3909.79" y="-374.3" font-family="Times,serif" font-size="14.00">w_010.EntityWeaponAttack</text>
</a>
</g>
</g>
<!-- w_010.EntityWeaponAttack&#45;&gt;dra.func_8010E168 -->
<g id="edge18" class="edge">
<title>w_010.EntityWeaponAttack&#45;&gt;dra.func_8010E168</title>
<path fill="none" stroke="black" d="M3810.29,-365.43C3794.09,-363.58 3777.47,-361.72 3761.79,-360 3214.44,-300.01 2557.27,-233.16 2314.75,-208.66"/>
<polygon fill="black" stroke="black" points="2314.86,-205.16 2304.56,-207.63 2314.15,-212.12 2314.86,-205.16"/>
<text text-anchor="middle" x="3805.29" y="-354.23" font-family="Times,serif" font-size="14.00">1</text>
</g>
<!-- w_052.EntityWeaponAttack -->
<g id="node20" class="node">
<title>w_052.EntityWeaponAttack</title>
<g id="a_node20"><a xlink:href="w_052.EntityWeaponAttack.svg" xlink:title="w_052.EntityWeaponAttack">
<ellipse fill="red" stroke="black" cx="4204.79" cy="-378" rx="138.38" ry="18"/>
<text text-anchor="middle" x="4204.79" y="-374.3" font-family="Times,serif" font-size="14.00">w_052.EntityWeaponAttack</text>
</a>
</g>
</g>
<!-- w_052.EntityWeaponAttack&#45;&gt;dra.func_8010E168 -->
<g id="edge19" class="edge">
<title>w_052.EntityWeaponAttack&#45;&gt;dra.func_8010E168</title>
<path fill="none" stroke="black" d="M4106.11,-365.29C4089.65,-363.44 4072.75,-361.61 4056.79,-360 3394.92,-293.01 2597.28,-228.75 2319.76,-206.88"/>
<polygon fill="black" stroke="black" points="2319.96,-203.39 2309.71,-206.09 2319.41,-210.36 2319.96,-203.39"/>
<text text-anchor="middle" x="4101.11" y="-354.09" font-family="Times,serif" font-size="14.00">1</text>
</g>
<!-- wrp.EntityRedDoor -->
<g id="node21" class="node">
<title>wrp.EntityRedDoor</title>
<g id="a_node21"><a xlink:href="wrp.EntityRedDoor.svg" xlink:title="wrp.EntityRedDoor">
<ellipse fill="red" stroke="black" cx="4461.79" cy="-378" rx="100.98" ry="18"/>
<text text-anchor="middle" x="4461.79" y="-374.3" font-family="Times,serif" font-size="14.00">wrp.EntityRedDoor</text>
</a>
</g>
</g>
<!-- wrp.EntityRedDoor&#45;&gt;dra.func_8010E168 -->
<g id="edge20" class="edge">
<title>wrp.EntityRedDoor&#45;&gt;dra.func_8010E168</title>
<path fill="none" stroke="black" d="M4390.89,-365.21C4377.91,-363.29 4364.46,-361.46 4351.79,-360 3577.05,-271.03 2638.12,-219.69 2325.65,-204.11"/>
<polygon fill="black" stroke="black" points="2325.41,-200.59 2315.24,-203.59 2325.06,-207.59 2325.41,-200.59"/>
<text text-anchor="middle" x="4385.89" y="-354.01" font-family="Times,serif" font-size="14.00">1</text>
</g>
</g>
</svg>
