<?xml version="1.0" encoding="UTF-8" standalone="no"?>
<!DOCTYPE svg PUBLIC "-//W3C//DTD SVG 1.1//EN"
 "http://www.w3.org/Graphics/SVG/1.1/DTD/svg11.dtd">
<!-- Generated by graphviz version 2.43.0 (0)
 -->
<!-- Title: dra.func_800FE8F0 Pages: 1 -->
<svg width="641pt" height="224pt"
 viewBox="0.00 0.00 641.28 224.00" xmlns="http://www.w3.org/2000/svg" xmlns:xlink="http://www.w3.org/1999/xlink">
<g id="graph0" class="graph" transform="scale(1 1) rotate(0) translate(4 220)">
<title>dra.func_800FE8F0</title>
<polygon fill="white" stroke="transparent" points="-4,4 -4,-220 637.28,-220 637.28,4 -4,4"/>
<!-- dra.func_800FE8F0 -->
<g id="node1" class="node">
<title>dra.func_800FE8F0</title>
<ellipse fill="green" stroke="black" cx="325.69" cy="-18" rx="102.88" ry="18"/>
<text text-anchor="middle" x="325.69" y="-14.3" font-family="Times,serif" font-size="14.00">dra.func_800FE8F0</text>
</g>
<!-- dra.func_80113D7C -->
<g id="node2" class="node">
<title>dra.func_80113D7C</title>
<g id="a_node2"><a xlink:href="dra.func_80113D7C.svg" xlink:title="dra.func_80113D7C">
<ellipse fill="green" stroke="black" cx="102.69" cy="-198" rx="102.88" ry="18"/>
<text text-anchor="middle" x="102.69" y="-194.3" font-family="Times,serif" font-size="14.00">dra.func_80113D7C</text>
</a>
</g>
</g>
<!-- dra.func_80113D7C&#45;&gt;dra.func_800FE8F0 -->
<g id="edge1" class="edge">
<title>dra.func_80113D7C&#45;&gt;dra.func_800FE8F0</title>
<path fill="none" stroke="black" d="M123.67,-180.25C163.68,-148.32 250.97,-78.65 296.59,-42.23"/>
<polygon fill="black" stroke="black" points="298.97,-44.8 304.6,-35.83 294.61,-39.33 298.97,-44.8"/>
<text text-anchor="middle" x="118.67" y="-169.05" font-family="Times,serif" font-size="14.00">1</text>
</g>
<!-- dra.func_800FE97C -->
<g id="node3" class="node">
<title>dra.func_800FE97C</title>
<g id="a_node3"><a xlink:href="dra.func_800FE97C.svg" xlink:title="dra.func_800FE97C">
<ellipse fill="green" stroke="black" cx="325.69" cy="-198" rx="102.88" ry="18"/>
<text text-anchor="middle" x="325.69" y="-194.3" font-family="Times,serif" font-size="14.00">dra.func_800FE97C</text>
</a>
</g>
</g>
<!-- dra.func_800FE97C&#45;&gt;dra.func_800FE8F0 -->
<g id="edge2" class="edge">
<title>dra.func_800FE97C&#45;&gt;dra.func_800FE8F0</title>
<path fill="none" stroke="black" d="M325.69,-179.93C325.69,-148.97 325.69,-83.3 325.69,-46.13"/>
<polygon fill="black" stroke="black" points="329.19,-46.02 325.69,-36.02 322.19,-46.02 329.19,-46.02"/>
<text text-anchor="middle" x="320.69" y="-168.73" font-family="Times,serif" font-size="14.00">2</text>
</g>
<!-- dra.EntityAlucard -->
<g id="node4" class="node">
<title>dra.EntityAlucard</title>
<g id="a_node4"><a xlink:href="dra.EntityAlucard.svg" xlink:title="dra.EntityAlucard">
<ellipse fill="red" stroke="black" cx="539.69" cy="-198" rx="93.68" ry="18"/>
<text text-anchor="middle" x="539.69" y="-194.3" font-family="Times,serif" font-size="14.00">dra.EntityAlucard</text>
</a>
</g>
</g>
<!-- dra.EntityAlucard&#45;&gt;dra.func_800FE8F0 -->
<g id="edge3" class="edge">
<title>dra.EntityAlucard&#45;&gt;dra.func_800FE8F0</title>
<path fill="none" stroke="black" d="M519.56,-180.25C481.16,-148.32 397.4,-78.65 353.62,-42.23"/>
<polygon fill="black" stroke="black" points="355.85,-39.53 345.93,-35.83 351.38,-44.92 355.85,-39.53"/>
<text text-anchor="middle" x="514.56" y="-169.05" font-family="Times,serif" font-size="14.00">1</text>
</g>
</g>
</svg>
