<?xml version="1.0" encoding="UTF-8" standalone="no"?>
<!DOCTYPE svg PUBLIC "-//W3C//DTD SVG 1.1//EN"
 "http://www.w3.org/Graphics/SVG/1.1/DTD/svg11.dtd">
<!-- Generated by graphviz version 2.43.0 (0)
 -->
<!-- Title: dra.func_800F53D4 Pages: 1 -->
<svg width="875pt" height="404pt"
 viewBox="0.00 0.00 874.63 404.00" xmlns="http://www.w3.org/2000/svg" xmlns:xlink="http://www.w3.org/1999/xlink">
<g id="graph0" class="graph" transform="scale(1 1) rotate(0) translate(4 400)">
<title>dra.func_800F53D4</title>
<polygon fill="white" stroke="transparent" points="-4,4 -4,-400 870.63,-400 870.63,4 -4,4"/>
<!-- dra.func_800F53D4 -->
<g id="node1" class="node">
<title>dra.func_800F53D4</title>
<ellipse fill="green" stroke="black" cx="434.74" cy="-198" rx="102.88" ry="18"/>
<text text-anchor="middle" x="434.74" y="-194.3" font-family="Times,serif" font-size="14.00">dra.func_800F53D4</text>
</g>
<!-- SetDrawMode -->
<g id="node2" class="node">
<title>SetDrawMode</title>
<g id="a_node2"><a xlink:href="SetDrawMode.svg" xlink:title="SetDrawMode">
<ellipse fill="lightblue" stroke="black" cx="361.74" cy="-18" rx="77.19" ry="18"/>
<text text-anchor="middle" x="361.74" y="-14.3" font-family="Times,serif" font-size="14.00">SetDrawMode</text>
</a>
</g>
</g>
<!-- dra.func_800F53D4&#45;&gt;SetDrawMode -->
<g id="edge1" class="edge">
<title>dra.func_800F53D4&#45;&gt;SetDrawMode</title>
<path fill="none" stroke="black" d="M427.74,-179.93C414.99,-148.83 387.88,-82.73 372.67,-45.65"/>
<polygon fill="black" stroke="black" points="375.75,-43.94 368.72,-36.02 369.28,-46.6 375.75,-43.94"/>
<text text-anchor="middle" x="363.72" y="-39.82" font-family="Times,serif" font-size="14.00">1</text>
</g>
<!-- AddPrim -->
<g id="node3" class="node">
<title>AddPrim</title>
<g id="a_node3"><a xlink:href="AddPrim.svg" xlink:title="AddPrim">
<ellipse fill="lightblue" stroke="black" cx="508.74" cy="-18" rx="51.19" ry="18"/>
<text text-anchor="middle" x="508.74" y="-14.3" font-family="Times,serif" font-size="14.00">AddPrim</text>
</a>
</g>
</g>
<!-- dra.func_800F53D4&#45;&gt;AddPrim -->
<g id="edge2" class="edge">
<title>dra.func_800F53D4&#45;&gt;AddPrim</title>
<path fill="none" stroke="black" d="M441.84,-179.93C454.77,-148.83 482.24,-82.73 497.66,-45.65"/>
<polygon fill="black" stroke="black" points="501.06,-46.59 501.67,-36.02 494.6,-43.91 501.06,-46.59"/>
<text text-anchor="middle" x="496.67" y="-39.82" font-family="Times,serif" font-size="14.00">1</text>
</g>
<!-- dra.func_800F5904 -->
<g id="node4" class="node">
<title>dra.func_800F5904</title>
<g id="a_node4"><a xlink:href="dra.func_800F5904.svg" xlink:title="dra.func_800F5904">
<ellipse fill="red" stroke="black" cx="100.74" cy="-378" rx="100.98" ry="18"/>
<text text-anchor="middle" x="100.74" y="-374.3" font-family="Times,serif" font-size="14.00">dra.func_800F5904</text>
</a>
</g>
</g>
<!-- dra.func_800F5904&#45;&gt;dra.func_800F53D4 -->
<g id="edge3" class="edge">
<title>dra.func_800F5904&#45;&gt;dra.func_800F53D4</title>
<path fill="none" stroke="black" d="M131.27,-360.73C191.87,-328.44 327.32,-256.25 394.86,-220.25"/>
<polygon fill="black" stroke="black" points="396.74,-223.22 403.92,-215.42 393.45,-217.04 396.74,-223.22"/>
<text text-anchor="middle" x="126.27" y="-349.53" font-family="Times,serif" font-size="14.00">1</text>
</g>
<!-- dra.DrawMenuRect -->
<g id="node5" class="node">
<title>dra.DrawMenuRect</title>
<g id="a_node5"><a xlink:href="dra.DrawMenuRect.svg" xlink:title="dra.DrawMenuRect">
<ellipse fill="green" stroke="black" cx="320.74" cy="-378" rx="101.28" ry="18"/>
<text text-anchor="middle" x="320.74" y="-374.3" font-family="Times,serif" font-size="14.00">dra.DrawMenuRect</text>
</a>
</g>
</g>
<!-- dra.DrawMenuRect&#45;&gt;dra.func_800F53D4 -->
<g id="edge4" class="edge">
<title>dra.DrawMenuRect&#45;&gt;dra.func_800F53D4</title>
<path fill="none" stroke="black" d="M331.67,-359.93C351.76,-328.57 394.65,-261.6 418.28,-224.71"/>
<polygon fill="black" stroke="black" points="421.4,-226.32 423.84,-216.02 415.5,-222.55 421.4,-226.32"/>
<text text-anchor="middle" x="326.67" y="-348.73" font-family="Times,serif" font-size="14.00">1</text>
</g>
<!-- dra.DrawMenuSprite -->
<g id="node6" class="node">
<title>dra.DrawMenuSprite</title>
<g id="a_node6"><a xlink:href="dra.DrawMenuSprite.svg" xlink:title="dra.DrawMenuSprite">
<ellipse fill="green" stroke="black" cx="549.74" cy="-378" rx="109.38" ry="18"/>
<text text-anchor="middle" x="549.74" y="-374.3" font-family="Times,serif" font-size="14.00">dra.DrawMenuSprite</text>
</a>
</g>
</g>
<!-- dra.DrawMenuSprite&#45;&gt;dra.func_800F53D4 -->
<g id="edge5" class="edge">
<title>dra.DrawMenuSprite&#45;&gt;dra.func_800F53D4</title>
<path fill="none" stroke="black" d="M538.71,-359.93C518.45,-328.57 475.19,-261.6 451.35,-224.71"/>
<polygon fill="black" stroke="black" points="454.1,-222.52 445.73,-216.02 448.22,-226.31 454.1,-222.52"/>
<text text-anchor="middle" x="533.71" y="-348.73" font-family="Times,serif" font-size="14.00">1</text>
</g>
<!-- dra.DrawMenuStr -->
<g id="node7" class="node">
<title>dra.DrawMenuStr</title>
<g id="a_node7"><a xlink:href="dra.DrawMenuStr.svg" xlink:title="dra.DrawMenuStr">
<ellipse fill="green" stroke="black" cx="771.74" cy="-378" rx="94.78" ry="18"/>
<text text-anchor="middle" x="771.74" y="-374.3" font-family="Times,serif" font-size="14.00">dra.DrawMenuStr</text>
</a>
</g>
</g>
<!-- dra.DrawMenuStr&#45;&gt;dra.func_800F53D4 -->
<g id="edge6" class="edge">
<title>dra.DrawMenuStr&#45;&gt;dra.func_800F53D4</title>
<path fill="none" stroke="black" d="M741.24,-360.89C680.12,-328.6 542.66,-256 474.55,-220.03"/>
<polygon fill="black" stroke="black" points="475.89,-216.78 465.42,-215.2 472.62,-222.97 475.89,-216.78"/>
<text text-anchor="middle" x="736.24" y="-349.69" font-family="Times,serif" font-size="14.00">1</text>
</g>
</g>
</svg>
