<?xml version="1.0" encoding="UTF-8" standalone="no"?>
<!DOCTYPE svg PUBLIC "-//W3C//DTD SVG 1.1//EN"
 "http://www.w3.org/Graphics/SVG/1.1/DTD/svg11.dtd">
<!-- Generated by graphviz version 2.43.0 (0)
 -->
<!-- Title: dra.IsRelicActive Pages: 1 -->
<svg width="3555pt" height="224pt"
 viewBox="0.00 0.00 3555.33 224.00" xmlns="http://www.w3.org/2000/svg" xmlns:xlink="http://www.w3.org/1999/xlink">
<g id="graph0" class="graph" transform="scale(1 1) rotate(0) translate(4 220)">
<title>dra.IsRelicActive</title>
<polygon fill="white" stroke="transparent" points="-4,4 -4,-220 3551.33,-220 3551.33,4 -4,4"/>
<!-- dra.IsRelicActive -->
<g id="node1" class="node">
<title>dra.IsRelicActive</title>
<ellipse fill="green" stroke="black" cx="1851.64" cy="-18" rx="89.08" ry="18"/>
<text text-anchor="middle" x="1851.64" y="-14.3" font-family="Times,serif" font-size="14.00">dra.IsRelicActive</text>
</g>
<!-- dra.ControlBatForm -->
<g id="node2" class="node">
<title>dra.ControlBatForm</title>
<g id="a_node2"><a xlink:href="dra.ControlBatForm.svg" xlink:title="dra.ControlBatForm">
<ellipse fill="green" stroke="black" cx="104.64" cy="-198" rx="104.78" ry="18"/>
<text text-anchor="middle" x="104.64" y="-194.3" font-family="Times,serif" font-size="14.00">dra.ControlBatForm</text>
</a>
</g>
</g>
<!-- dra.ControlBatForm&#45;&gt;dra.IsRelicActive -->
<g id="edge1" class="edge">
<title>dra.ControlBatForm&#45;&gt;dra.IsRelicActive</title>
<path fill="none" stroke="black" d="M179.38,-185.31C192.45,-183.42 205.93,-181.57 218.64,-180 804.94,-107.43 1512.94,-46.78 1760.74,-26.36"/>
<polygon fill="black" stroke="black" points="1761.09,-29.85 1770.77,-25.54 1760.52,-22.87 1761.09,-29.85"/>
<text text-anchor="middle" x="174.38" y="-174.11" font-family="Times,serif" font-size="14.00">2</text>
</g>
<!-- dra.ControlMistForm -->
<g id="node3" class="node">
<title>dra.ControlMistForm</title>
<g id="a_node3"><a xlink:href="dra.ControlMistForm.svg" xlink:title="dra.ControlMistForm">
<ellipse fill="green" stroke="black" cx="336.64" cy="-198" rx="109.38" ry="18"/>
<text text-anchor="middle" x="336.64" y="-194.3" font-family="Times,serif" font-size="14.00">dra.ControlMistForm</text>
</a>
</g>
</g>
<!-- dra.ControlMistForm&#45;&gt;dra.IsRelicActive -->
<g id="edge2" class="edge">
<title>dra.ControlMistForm&#45;&gt;dra.IsRelicActive</title>
<path fill="none" stroke="black" d="M414.99,-185.4C428.21,-183.53 441.81,-181.66 454.64,-180 949.48,-115.85 1544.62,-51.51 1764.51,-28.17"/>
<polygon fill="black" stroke="black" points="1765.12,-31.63 1774.69,-27.09 1764.38,-24.67 1765.12,-31.63"/>
<text text-anchor="middle" x="409.99" y="-174.2" font-family="Times,serif" font-size="14.00">3</text>
</g>
<!-- dra.EntityAlucard -->
<g id="node4" class="node">
<title>dra.EntityAlucard</title>
<g id="a_node4"><a xlink:href="dra.EntityAlucard.svg" xlink:title="dra.EntityAlucard">
<ellipse fill="red" stroke="black" cx="557.64" cy="-198" rx="93.68" ry="18"/>
<text text-anchor="middle" x="557.64" y="-194.3" font-family="Times,serif" font-size="14.00">dra.EntityAlucard</text>
</a>
</g>
</g>
<!-- dra.EntityAlucard&#45;&gt;dra.IsRelicActive -->
<g id="edge3" class="edge">
<title>dra.EntityAlucard&#45;&gt;dra.IsRelicActive</title>
<path fill="none" stroke="black" d="M625.08,-185.46C636.6,-183.57 648.46,-181.69 659.64,-180 1074.74,-117.39 1572.95,-53.83 1767.78,-29.42"/>
<polygon fill="black" stroke="black" points="1768.45,-32.87 1777.94,-28.15 1767.58,-25.92 1768.45,-32.87"/>
<text text-anchor="middle" x="620.08" y="-174.26" font-family="Times,serif" font-size="14.00">2</text>
</g>
<!-- dra.EntityBatEcho -->
<g id="node5" class="node">
<title>dra.EntityBatEcho</title>
<g id="a_node5"><a xlink:href="dra.EntityBatEcho.svg" xlink:title="dra.EntityBatEcho">
<ellipse fill="red" stroke="black" cx="765.64" cy="-198" rx="96.68" ry="18"/>
<text text-anchor="middle" x="765.64" y="-194.3" font-family="Times,serif" font-size="14.00">dra.EntityBatEcho</text>
</a>
</g>
</g>
<!-- dra.EntityBatEcho&#45;&gt;dra.IsRelicActive -->
<g id="edge4" class="edge">
<title>dra.EntityBatEcho&#45;&gt;dra.IsRelicActive</title>
<path fill="none" stroke="black" d="M835.64,-185.53C1029.62,-153.73 1573,-64.67 1774.86,-31.58"/>
<polygon fill="black" stroke="black" points="1775.49,-35.03 1784.79,-29.96 1774.36,-28.12 1775.49,-35.03"/>
<text text-anchor="middle" x="830.64" y="-174.33" font-family="Times,serif" font-size="14.00">1</text>
</g>
<!-- dra.EntityPlayerBlinkWhite -->
<g id="node6" class="node">
<title>dra.EntityPlayerBlinkWhite</title>
<g id="a_node6"><a xlink:href="dra.EntityPlayerBlinkWhite.svg" xlink:title="dra.EntityPlayerBlinkWhite">
<ellipse fill="red" stroke="black" cx="1019.64" cy="-198" rx="139.18" ry="18"/>
<text text-anchor="middle" x="1019.64" y="-194.3" font-family="Times,serif" font-size="14.00">dra.EntityPlayerBlinkWhite</text>
</a>
</g>
</g>
<!-- dra.EntityPlayerBlinkWhite&#45;&gt;dra.IsRelicActive -->
<g id="edge5" class="edge">
<title>dra.EntityPlayerBlinkWhite&#45;&gt;dra.IsRelicActive</title>
<path fill="none" stroke="black" d="M1088.43,-182.28C1245.01,-148.78 1626.5,-67.17 1782.96,-33.69"/>
<polygon fill="black" stroke="black" points="1783.89,-37.07 1792.94,-31.56 1782.43,-30.23 1783.89,-37.07"/>
<text text-anchor="middle" x="1083.43" y="-171.08" font-family="Times,serif" font-size="14.00">1</text>
</g>
<!-- dra.HandleTransformationMP -->
<g id="node7" class="node">
<title>dra.HandleTransformationMP</title>
<g id="a_node7"><a xlink:href="dra.HandleTransformationMP.svg" xlink:title="dra.HandleTransformationMP">
<ellipse fill="green" stroke="black" cx="1326.64" cy="-198" rx="149.47" ry="18"/>
<text text-anchor="middle" x="1326.64" y="-194.3" font-family="Times,serif" font-size="14.00">dra.HandleTransformationMP</text>
</a>
</g>
</g>
<!-- dra.HandleTransformationMP&#45;&gt;dra.IsRelicActive -->
<g id="edge6" class="edge">
<title>dra.HandleTransformationMP&#45;&gt;dra.IsRelicActive</title>
<path fill="none" stroke="black" d="M1374.16,-180.89C1472.09,-147.69 1695.79,-71.84 1798.41,-37.05"/>
<polygon fill="black" stroke="black" points="1799.61,-40.34 1807.95,-33.81 1797.36,-33.71 1799.61,-40.34"/>
<text text-anchor="middle" x="1369.16" y="-169.69" font-family="Times,serif" font-size="14.00">4</text>
</g>
<!-- dra.MistFormFinished -->
<g id="node8" class="node">
<title>dra.MistFormFinished</title>
<g id="a_node8"><a xlink:href="dra.MistFormFinished.svg" xlink:title="dra.MistFormFinished">
<ellipse fill="green" stroke="black" cx="1608.64" cy="-198" rx="114.28" ry="18"/>
<text text-anchor="middle" x="1608.64" y="-194.3" font-family="Times,serif" font-size="14.00">dra.MistFormFinished</text>
</a>
</g>
</g>
<!-- dra.MistFormFinished&#45;&gt;dra.IsRelicActive -->
<g id="edge7" class="edge">
<title>dra.MistFormFinished&#45;&gt;dra.IsRelicActive</title>
<path fill="none" stroke="black" d="M1631.5,-180.25C1675.39,-148.1 1771.49,-77.71 1820.93,-41.5"/>
<polygon fill="black" stroke="black" points="1823.02,-44.3 1829.02,-35.57 1818.88,-38.66 1823.02,-44.3"/>
<text text-anchor="middle" x="1626.5" y="-169.05" font-family="Times,serif" font-size="14.00">1</text>
</g>
<!-- dra.UnknownEntId48 -->
<g id="node9" class="node">
<title>dra.UnknownEntId48</title>
<g id="a_node9"><a xlink:href="dra.UnknownEntId48.svg" xlink:title="dra.UnknownEntId48">
<ellipse fill="green" stroke="black" cx="1851.64" cy="-198" rx="110.48" ry="18"/>
<text text-anchor="middle" x="1851.64" y="-194.3" font-family="Times,serif" font-size="14.00">dra.UnknownEntId48</text>
</a>
</g>
</g>
<!-- dra.UnknownEntId48&#45;&gt;dra.IsRelicActive -->
<g id="edge8" class="edge">
<title>dra.UnknownEntId48&#45;&gt;dra.IsRelicActive</title>
<path fill="none" stroke="black" d="M1851.64,-179.93C1851.64,-148.97 1851.64,-83.3 1851.64,-46.13"/>
<polygon fill="black" stroke="black" points="1855.14,-46.02 1851.64,-36.02 1848.14,-46.02 1855.14,-46.02"/>
<text text-anchor="middle" x="1846.64" y="-168.73" font-family="Times,serif" font-size="14.00">1</text>
</g>
<!-- dra.WolfFormFinished -->
<g id="node10" class="node">
<title>dra.WolfFormFinished</title>
<g id="a_node10"><a xlink:href="dra.WolfFormFinished.svg" xlink:title="dra.WolfFormFinished">
<ellipse fill="green" stroke="black" cx="2094.64" cy="-198" rx="114.28" ry="18"/>
<text text-anchor="middle" x="2094.64" y="-194.3" font-family="Times,serif" font-size="14.00">dra.WolfFormFinished</text>
</a>
</g>
</g>
<!-- dra.WolfFormFinished&#45;&gt;dra.IsRelicActive -->
<g id="edge9" class="edge">
<title>dra.WolfFormFinished&#45;&gt;dra.IsRelicActive</title>
<path fill="none" stroke="black" d="M2071.78,-180.25C2027.89,-148.1 1931.79,-77.71 1882.36,-41.5"/>
<polygon fill="black" stroke="black" points="1884.4,-38.66 1874.26,-35.57 1880.26,-44.3 1884.4,-38.66"/>
<text text-anchor="middle" x="2066.78" y="-169.05" font-family="Times,serif" font-size="14.00">1</text>
</g>
<!-- dra.func_8010FDF8 -->
<g id="node11" class="node">
<title>dra.func_8010FDF8</title>
<g id="a_node11"><a xlink:href="dra.func_8010FDF8.svg" xlink:title="dra.func_8010FDF8">
<ellipse fill="green" stroke="black" cx="2329.64" cy="-198" rx="102.88" ry="18"/>
<text text-anchor="middle" x="2329.64" y="-194.3" font-family="Times,serif" font-size="14.00">dra.func_8010FDF8</text>
</a>
</g>
</g>
<!-- dra.func_8010FDF8&#45;&gt;dra.IsRelicActive -->
<g id="edge10" class="edge">
<title>dra.func_8010FDF8&#45;&gt;dra.IsRelicActive</title>
<path fill="none" stroke="black" d="M2288.06,-181.52C2200.31,-148.84 1996.51,-72.95 1901.75,-37.66"/>
<polygon fill="black" stroke="black" points="1902.7,-34.28 1892.11,-34.07 1900.26,-40.84 1902.7,-34.28"/>
<text text-anchor="middle" x="2283.06" y="-170.32" font-family="Times,serif" font-size="14.00">1</text>
</g>
<!-- dra.func_801104D8 -->
<g id="node12" class="node">
<title>dra.func_801104D8</title>
<g id="a_node12"><a xlink:href="dra.func_801104D8.svg" xlink:title="dra.func_801104D8">
<ellipse fill="green" stroke="black" cx="2552.64" cy="-198" rx="102.08" ry="18"/>
<text text-anchor="middle" x="2552.64" y="-194.3" font-family="Times,serif" font-size="14.00">dra.func_801104D8</text>
</a>
</g>
</g>
<!-- dra.func_801104D8&#45;&gt;dra.IsRelicActive -->
<g id="edge11" class="edge">
<title>dra.func_801104D8&#45;&gt;dra.IsRelicActive</title>
<path fill="none" stroke="black" d="M2497.05,-182.88C2368.31,-150.19 2050.38,-69.46 1914.67,-35.01"/>
<polygon fill="black" stroke="black" points="1915.39,-31.58 1904.83,-32.51 1913.66,-38.36 1915.39,-31.58"/>
<text text-anchor="middle" x="2492.05" y="-171.68" font-family="Times,serif" font-size="14.00">1</text>
</g>
<!-- dra.func_8012C97C -->
<g id="node13" class="node">
<title>dra.func_8012C97C</title>
<g id="a_node13"><a xlink:href="dra.func_8012C97C.svg" xlink:title="dra.func_8012C97C">
<ellipse fill="green" stroke="black" cx="2775.64" cy="-198" rx="102.88" ry="18"/>
<text text-anchor="middle" x="2775.64" y="-194.3" font-family="Times,serif" font-size="14.00">dra.func_8012C97C</text>
</a>
</g>
</g>
<!-- dra.func_8012C97C&#45;&gt;dra.IsRelicActive -->
<g id="edge12" class="edge">
<title>dra.func_8012C97C&#45;&gt;dra.IsRelicActive</title>
<path fill="none" stroke="black" d="M2709.19,-184.2C2540.73,-151.75 2098.02,-66.46 1923.67,-32.88"/>
<polygon fill="black" stroke="black" points="1924.31,-29.43 1913.83,-30.98 1922.98,-36.31 1924.31,-29.43"/>
<text text-anchor="middle" x="2704.19" y="-173" font-family="Times,serif" font-size="14.00">2</text>
</g>
<!-- dra.func_8012CC30 -->
<g id="node14" class="node">
<title>dra.func_8012CC30</title>
<g id="a_node14"><a xlink:href="dra.func_8012CC30.svg" xlink:title="dra.func_8012CC30">
<ellipse fill="green" stroke="black" cx="2998.64" cy="-198" rx="102.88" ry="18"/>
<text text-anchor="middle" x="2998.64" y="-194.3" font-family="Times,serif" font-size="14.00">dra.func_8012CC30</text>
</a>
</g>
</g>
<!-- dra.func_8012CC30&#45;&gt;dra.IsRelicActive -->
<g id="edge13" class="edge">
<title>dra.func_8012CC30&#45;&gt;dra.IsRelicActive</title>
<path fill="none" stroke="black" d="M2924.27,-185.46C2718.15,-153.47 2140.95,-63.9 1930.06,-31.17"/>
<polygon fill="black" stroke="black" points="1930.42,-27.68 1920,-29.61 1929.34,-34.6 1930.42,-27.68"/>
<text text-anchor="middle" x="2919.27" y="-174.26" font-family="Times,serif" font-size="14.00">1</text>
</g>
<!-- dra.func_8012D3E8 -->
<g id="node15" class="node">
<title>dra.func_8012D3E8</title>
<g id="a_node15"><a xlink:href="dra.func_8012D3E8.svg" xlink:title="dra.func_8012D3E8">
<ellipse fill="green" stroke="black" cx="3221.64" cy="-198" rx="102.88" ry="18"/>
<text text-anchor="middle" x="3221.64" y="-194.3" font-family="Times,serif" font-size="14.00">dra.func_8012D3E8</text>
</a>
</g>
</g>
<!-- dra.func_8012D3E8&#45;&gt;dra.IsRelicActive -->
<g id="edge14" class="edge">
<title>dra.func_8012D3E8&#45;&gt;dra.IsRelicActive</title>
<path fill="none" stroke="black" d="M3147.94,-185.45C3135.5,-183.58 3122.71,-181.7 3110.64,-180 2669.12,-117.97 2139.05,-53.42 1936.22,-29.08"/>
<polygon fill="black" stroke="black" points="1936.57,-25.6 1926.23,-27.88 1935.74,-32.55 1936.57,-25.6"/>
<text text-anchor="middle" x="3142.94" y="-174.25" font-family="Times,serif" font-size="14.00">2</text>
</g>
<!-- dra.func_8012ED30 -->
<g id="node16" class="node">
<title>dra.func_8012ED30</title>
<g id="a_node16"><a xlink:href="dra.func_8012ED30.svg" xlink:title="dra.func_8012ED30">
<ellipse fill="green" stroke="black" cx="3444.64" cy="-198" rx="102.88" ry="18"/>
<text text-anchor="middle" x="3444.64" y="-194.3" font-family="Times,serif" font-size="14.00">dra.func_8012ED30</text>
</a>
</g>
</g>
<!-- dra.func_8012ED30&#45;&gt;dra.IsRelicActive -->
<g id="edge15" class="edge">
<title>dra.func_8012ED30&#45;&gt;dra.IsRelicActive</title>
<path fill="none" stroke="black" d="M3371.56,-185.34C3358.93,-183.46 3345.92,-181.61 3333.64,-180 2806.74,-111.07 2171.71,-49.14 1940.93,-27.33"/>
<polygon fill="black" stroke="black" points="1941.19,-23.83 1930.91,-26.38 1940.54,-30.8 1941.19,-23.83"/>
<text text-anchor="middle" x="3366.56" y="-174.14" font-family="Times,serif" font-size="14.00">1</text>
</g>
</g>
</svg>
