<?xml version="1.0" encoding="UTF-8" standalone="no"?>
<!DOCTYPE svg PUBLIC "-//W3C//DTD SVG 1.1//EN"
 "http://www.w3.org/Graphics/SVG/1.1/DTD/svg11.dtd">
<!-- Generated by graphviz version 2.43.0 (0)
 -->
<!-- Title: dra.func_800EDD9C Pages: 1 -->
<svg width="668pt" height="218pt"
 viewBox="0.00 0.00 667.58 218.00" xmlns="http://www.w3.org/2000/svg" xmlns:xlink="http://www.w3.org/1999/xlink">
<g id="graph0" class="graph" transform="scale(1 1) rotate(0) translate(4 214)">
<title>dra.func_800EDD9C</title>
<polygon fill="white" stroke="transparent" points="-4,4 -4,-214 663.58,-214 663.58,4 -4,4"/>
<!-- dra.func_800EDD9C -->
<g id="node1" class="node">
<title>dra.func_800EDD9C</title>
<g id="a_node1"><a xlink:href="dra.func_800EDD9C.svg" xlink:title="dra.func_800EDD9C">
<ellipse fill="green" stroke="black" cx="324.69" cy="-105" rx="105.08" ry="18"/>
<text text-anchor="middle" x="324.69" y="-101.3" font-family="Times,serif" font-size="14.00">dra.func_800EDD9C</text>
</a>
</g>
</g>
<!-- dra.func_800EDD9C&#45;&gt;dra.func_800EDD9C -->
<g id="edge2" class="edge">
<title>dra.func_800EDD9C&#45;&gt;dra.func_800EDD9C</title>
<path fill="none" stroke="black" d="M428.58,-108.34C440.35,-107.71 447.98,-106.6 447.98,-105 447.98,-103.93 444.54,-103.07 438.71,-102.44"/>
<polygon fill="black" stroke="black" points="438.81,-98.93 428.58,-101.66 438.28,-105.91 438.81,-98.93"/>
<text text-anchor="middle" x="452.98" y="-101.3" font-family="Times,serif" font-size="14.00">1</text>
</g>
<!-- dra.func_800EDD9C&#45;&gt;dra.func_800EDD9C -->
<g id="edge6" class="edge">
<title>dra.func_800EDD9C&#45;&gt;dra.func_800EDD9C</title>
<path fill="none" stroke="black" d="M419.78,-112.83C445.97,-112.45 465.98,-109.84 465.98,-105 465.98,-100.8 450.93,-98.28 429.86,-97.44"/>
<polygon fill="black" stroke="black" points="429.87,-93.94 419.78,-97.17 429.68,-100.94 429.87,-93.94"/>
<text text-anchor="middle" x="470.98" y="-101.3" font-family="Times,serif" font-size="14.00">1</text>
</g>
<!-- dra.DestroyPrimitive -->
<g id="node2" class="node">
<title>dra.DestroyPrimitive</title>
<g id="a_node2"><a xlink:href="dra.DestroyPrimitive.svg" xlink:title="dra.DestroyPrimitive">
<ellipse fill="green" stroke="black" cx="324.69" cy="-18" rx="108.58" ry="18"/>
<text text-anchor="middle" x="324.69" y="-14.3" font-family="Times,serif" font-size="14.00">dra.DestroyPrimitive</text>
</a>
</g>
</g>
<!-- dra.func_800EDD9C&#45;&gt;dra.DestroyPrimitive -->
<g id="edge1" class="edge">
<title>dra.func_800EDD9C&#45;&gt;dra.DestroyPrimitive</title>
<path fill="none" stroke="black" d="M324.69,-86.8C324.69,-75.16 324.69,-59.55 324.69,-46.24"/>
<polygon fill="black" stroke="black" points="328.19,-46.18 324.69,-36.18 321.19,-46.18 328.19,-46.18"/>
<text text-anchor="middle" x="329.69" y="-57.8" font-family="Times,serif" font-size="14.00">1</text>
</g>
<!-- dra.func_800F84CC -->
<g id="node3" class="node">
<title>dra.func_800F84CC</title>
<g id="a_node3"><a xlink:href="dra.func_800F84CC.svg" xlink:title="dra.func_800F84CC">
<ellipse fill="red" stroke="black" cx="102.69" cy="-192" rx="102.88" ry="18"/>
<text text-anchor="middle" x="102.69" y="-188.3" font-family="Times,serif" font-size="14.00">dra.func_800F84CC</text>
</a>
</g>
</g>
<!-- dra.func_800F84CC&#45;&gt;dra.func_800EDD9C -->
<g id="edge3" class="edge">
<title>dra.func_800F84CC&#45;&gt;dra.func_800EDD9C</title>
<path fill="none" stroke="black" d="M143.41,-175.41C180.3,-161.29 234.78,-140.43 274.38,-125.26"/>
<polygon fill="black" stroke="black" points="275.77,-128.48 283.86,-121.64 273.27,-121.94 275.77,-128.48"/>
<text text-anchor="middle" x="232.69" y="-144.8" font-family="Times,serif" font-size="14.00">3</text>
</g>
<!-- dra.func_8010189C -->
<g id="node4" class="node">
<title>dra.func_8010189C</title>
<g id="a_node4"><a xlink:href="dra.func_8010189C.svg" xlink:title="dra.func_8010189C">
<ellipse fill="green" stroke="black" cx="324.69" cy="-192" rx="101.28" ry="18"/>
<text text-anchor="middle" x="324.69" y="-188.3" font-family="Times,serif" font-size="14.00">dra.func_8010189C</text>
</a>
</g>
</g>
<!-- dra.func_8010189C&#45;&gt;dra.func_800EDD9C -->
<g id="edge4" class="edge">
<title>dra.func_8010189C&#45;&gt;dra.func_800EDD9C</title>
<path fill="none" stroke="black" d="M324.69,-173.8C324.69,-162.16 324.69,-146.55 324.69,-133.24"/>
<polygon fill="black" stroke="black" points="328.19,-133.18 324.69,-123.18 321.19,-133.18 328.19,-133.18"/>
<text text-anchor="middle" x="329.69" y="-144.8" font-family="Times,serif" font-size="14.00">1</text>
</g>
<!-- dra.DrawHudRichter -->
<g id="node5" class="node">
<title>dra.DrawHudRichter</title>
<g id="a_node5"><a xlink:href="dra.DrawHudRichter.svg" xlink:title="dra.DrawHudRichter">
<ellipse fill="green" stroke="black" cx="551.69" cy="-192" rx="107.78" ry="18"/>
<text text-anchor="middle" x="551.69" y="-188.3" font-family="Times,serif" font-size="14.00">dra.DrawHudRichter</text>
</a>
</g>
</g>
<!-- dra.DrawHudRichter&#45;&gt;dra.func_800EDD9C -->
<g id="edge5" class="edge">
<title>dra.DrawHudRichter&#45;&gt;dra.func_800EDD9C</title>
<path fill="none" stroke="black" d="M509.79,-175.31C471.96,-161.14 416.19,-140.26 375.76,-125.12"/>
<polygon fill="black" stroke="black" points="376.94,-121.83 366.35,-121.6 374.48,-128.38 376.94,-121.83"/>
<text text-anchor="middle" x="457.69" y="-144.8" font-family="Times,serif" font-size="14.00">2</text>
</g>
</g>
</svg>
