<?xml version="1.0" encoding="UTF-8" standalone="no"?>
<!DOCTYPE svg PUBLIC "-//W3C//DTD SVG 1.1//EN"
 "http://www.w3.org/Graphics/SVG/1.1/DTD/svg11.dtd">
<!-- Generated by graphviz version 2.43.0 (0)
 -->
<!-- Title: dra.func_80109A44 Pages: 1 -->
<svg width="1094pt" height="218pt"
 viewBox="0.00 0.00 1094.18 218.00" xmlns="http://www.w3.org/2000/svg" xmlns:xlink="http://www.w3.org/1999/xlink">
<g id="graph0" class="graph" transform="scale(1 1) rotate(0) translate(4 214)">
<title>dra.func_80109A44</title>
<polygon fill="white" stroke="transparent" points="-4,4 -4,-214 1090.18,-214 1090.18,4 -4,4"/>
<!-- dra.func_80109A44 -->
<g id="node1" class="node">
<title>dra.func_80109A44</title>
<ellipse fill="red" stroke="black" cx="538.49" cy="-105" rx="100.98" ry="18"/>
<text text-anchor="middle" x="538.49" y="-101.3" font-family="Times,serif" font-size="14.00">dra.func_80109A44</text>
</g>
<!-- dra.CheckCollision -->
<g id="node2" class="node">
<title>dra.CheckCollision</title>
<g id="a_node2"><a xlink:href="dra.CheckCollision.svg" xlink:title="dra.CheckCollision">
<ellipse fill="green" stroke="black" cx="97.49" cy="-18" rx="97.48" ry="18"/>
<text text-anchor="middle" x="97.49" y="-14.3" font-family="Times,serif" font-size="14.00">dra.CheckCollision</text>
</a>
</g>
</g>
<!-- dra.func_80109A44&#45;&gt;dra.CheckCollision -->
<g id="edge1" class="edge">
<title>dra.func_80109A44&#45;&gt;dra.CheckCollision</title>
<path fill="none" stroke="black" d="M472.47,-91.27C392.12,-75.79 256.77,-49.7 172.54,-33.46"/>
<polygon fill="black" stroke="black" points="173.01,-29.99 162.53,-31.53 171.68,-36.86 173.01,-29.99"/>
<text text-anchor="middle" x="349.49" y="-57.8" font-family="Times,serif" font-size="14.00">4</text>
</g>
<!-- dra.func_8010C36C -->
<g id="node3" class="node">
<title>dra.func_8010C36C</title>
<g id="a_node3"><a xlink:href="dra.func_8010C36C.svg" xlink:title="dra.func_8010C36C">
<ellipse fill="red" stroke="black" cx="315.49" cy="-18" rx="102.88" ry="18"/>
<text text-anchor="middle" x="315.49" y="-14.3" font-family="Times,serif" font-size="14.00">dra.func_8010C36C</text>
</a>
</g>
</g>
<!-- dra.func_80109A44&#45;&gt;dra.func_8010C36C -->
<g id="edge2" class="edge">
<title>dra.func_80109A44&#45;&gt;dra.func_8010C36C</title>
<path fill="none" stroke="black" d="M497.85,-88.51C460.71,-74.35 405.66,-53.37 365.77,-38.16"/>
<polygon fill="black" stroke="black" points="366.82,-34.82 356.23,-34.53 364.33,-41.36 366.82,-34.82"/>
<text text-anchor="middle" x="445.49" y="-57.8" font-family="Times,serif" font-size="14.00">1</text>
</g>
<!-- dra.func_8010C9F4 -->
<g id="node4" class="node">
<title>dra.func_8010C9F4</title>
<g id="a_node4"><a xlink:href="dra.func_8010C9F4.svg" xlink:title="dra.func_8010C9F4">
<ellipse fill="red" stroke="black" cx="538.49" cy="-18" rx="102.08" ry="18"/>
<text text-anchor="middle" x="538.49" y="-14.3" font-family="Times,serif" font-size="14.00">dra.func_8010C9F4</text>
</a>
</g>
</g>
<!-- dra.func_80109A44&#45;&gt;dra.func_8010C9F4 -->
<g id="edge3" class="edge">
<title>dra.func_80109A44&#45;&gt;dra.func_8010C9F4</title>
<path fill="none" stroke="black" d="M538.49,-86.8C538.49,-75.16 538.49,-59.55 538.49,-46.24"/>
<polygon fill="black" stroke="black" points="541.99,-46.18 538.49,-36.18 534.99,-46.18 541.99,-46.18"/>
<text text-anchor="middle" x="543.49" y="-57.8" font-family="Times,serif" font-size="14.00">1</text>
</g>
<!-- dra.func_8010D010 -->
<g id="node5" class="node">
<title>dra.func_8010D010</title>
<g id="a_node5"><a xlink:href="dra.func_8010D010.svg" xlink:title="dra.func_8010D010">
<ellipse fill="red" stroke="black" cx="760.49" cy="-18" rx="102.08" ry="18"/>
<text text-anchor="middle" x="760.49" y="-14.3" font-family="Times,serif" font-size="14.00">dra.func_8010D010</text>
</a>
</g>
</g>
<!-- dra.func_80109A44&#45;&gt;dra.func_8010D010 -->
<g id="edge4" class="edge">
<title>dra.func_80109A44&#45;&gt;dra.func_8010D010</title>
<path fill="none" stroke="black" d="M578.95,-88.51C615.92,-74.35 670.72,-53.37 710.44,-38.16"/>
<polygon fill="black" stroke="black" points="711.85,-41.37 719.93,-34.53 709.34,-34.84 711.85,-41.37"/>
<text text-anchor="middle" x="668.49" y="-57.8" font-family="Times,serif" font-size="14.00">1</text>
</g>
<!-- dra.func_8010D2C8 -->
<g id="node6" class="node">
<title>dra.func_8010D2C8</title>
<g id="a_node6"><a xlink:href="dra.func_8010D2C8.svg" xlink:title="dra.func_8010D2C8">
<ellipse fill="red" stroke="black" cx="983.49" cy="-18" rx="102.88" ry="18"/>
<text text-anchor="middle" x="983.49" y="-14.3" font-family="Times,serif" font-size="14.00">dra.func_8010D2C8</text>
</a>
</g>
</g>
<!-- dra.func_80109A44&#45;&gt;dra.func_8010D2C8 -->
<g id="edge5" class="edge">
<title>dra.func_80109A44&#45;&gt;dra.func_8010D2C8</title>
<path fill="none" stroke="black" d="M604.63,-91.37C685.33,-75.95 821.51,-49.94 906.75,-33.66"/>
<polygon fill="black" stroke="black" points="907.46,-37.09 916.62,-31.77 906.14,-30.21 907.46,-37.09"/>
<text text-anchor="middle" x="792.49" y="-57.8" font-family="Times,serif" font-size="14.00">1</text>
</g>
<!-- dra.EntityAlucard -->
<g id="node7" class="node">
<title>dra.EntityAlucard</title>
<g id="a_node7"><a xlink:href="dra.EntityAlucard.svg" xlink:title="dra.EntityAlucard">
<ellipse fill="red" stroke="black" cx="538.49" cy="-192" rx="93.68" ry="18"/>
<text text-anchor="middle" x="538.49" y="-188.3" font-family="Times,serif" font-size="14.00">dra.EntityAlucard</text>
</a>
</g>
</g>
<!-- dra.EntityAlucard&#45;&gt;dra.func_80109A44 -->
<g id="edge6" class="edge">
<title>dra.EntityAlucard&#45;&gt;dra.func_80109A44</title>
<path fill="none" stroke="black" d="M538.49,-173.8C538.49,-162.16 538.49,-146.55 538.49,-133.24"/>
<polygon fill="black" stroke="black" points="541.99,-133.18 538.49,-123.18 534.99,-133.18 541.99,-133.18"/>
<text text-anchor="middle" x="543.49" y="-144.8" font-family="Times,serif" font-size="14.00">3</text>
</g>
</g>
</svg>
