<?xml version="1.0" encoding="UTF-8" standalone="no"?>
<!DOCTYPE svg PUBLIC "-//W3C//DTD SVG 1.1//EN"
 "http://www.w3.org/Graphics/SVG/1.1/DTD/svg11.dtd">
<!-- Generated by graphviz version 2.43.0 (0)
 -->
<!-- Title: dra.EntityTransparentWhiteCircle Pages: 1 -->
<svg width="792pt" height="224pt"
 viewBox="0.00 0.00 791.58 224.00" xmlns="http://www.w3.org/2000/svg" xmlns:xlink="http://www.w3.org/1999/xlink">
<g id="graph0" class="graph" transform="scale(1 1) rotate(0) translate(4 220)">
<title>dra.EntityTransparentWhiteCircle</title>
<polygon fill="white" stroke="transparent" points="-4,4 -4,-220 787.58,-220 787.58,4 -4,4"/>
<!-- dra.EntityTransparentWhiteCircle -->
<g id="node1" class="node">
<title>dra.EntityTransparentWhiteCircle</title>
<ellipse fill="red" stroke="black" cx="470.69" cy="-198" rx="169.77" ry="18"/>
<text text-anchor="middle" x="470.69" y="-194.3" font-family="Times,serif" font-size="14.00">dra.EntityTransparentWhiteCircle</text>
</g>
<!-- dra.func_8010DFF0 -->
<g id="node2" class="node">
<title>dra.func_8010DFF0</title>
<g id="a_node2"><a xlink:href="dra.func_8010DFF0.svg" xlink:title="dra.func_8010DFF0">
<ellipse fill="green" stroke="black" cx="102.69" cy="-18" rx="102.88" ry="18"/>
<text text-anchor="middle" x="102.69" y="-14.3" font-family="Times,serif" font-size="14.00">dra.func_8010DFF0</text>
</a>
</g>
</g>
<!-- dra.EntityTransparentWhiteCircle&#45;&gt;dra.func_8010DFF0 -->
<g id="edge1" class="edge">
<title>dra.EntityTransparentWhiteCircle&#45;&gt;dra.func_8010DFF0</title>
<path fill="none" stroke="black" d="M436.07,-180.25C368.43,-147.54 218.94,-75.23 145.33,-39.62"/>
<polygon fill="black" stroke="black" points="146.42,-36.26 135.89,-35.06 143.37,-42.56 146.42,-36.26"/>
<text text-anchor="middle" x="130.89" y="-38.86" font-family="Times,serif" font-size="14.00">1</text>
</g>
<!-- dra.AllocPrimitives -->
<g id="node3" class="node">
<title>dra.AllocPrimitives</title>
<g id="a_node3"><a xlink:href="dra.AllocPrimitives.svg" xlink:title="dra.AllocPrimitives">
<ellipse fill="green" stroke="black" cx="322.69" cy="-18" rx="99.38" ry="18"/>
<text text-anchor="middle" x="322.69" y="-14.3" font-family="Times,serif" font-size="14.00">dra.AllocPrimitives</text>
</a>
</g>
</g>
<!-- dra.EntityTransparentWhiteCircle&#45;&gt;dra.AllocPrimitives -->
<g id="edge2" class="edge">
<title>dra.EntityTransparentWhiteCircle&#45;&gt;dra.AllocPrimitives</title>
<path fill="none" stroke="black" d="M456.5,-179.93C430.2,-148.3 373.8,-80.46 343.29,-43.78"/>
<polygon fill="black" stroke="black" points="345.92,-41.47 336.84,-36.02 340.54,-45.94 345.92,-41.47"/>
<text text-anchor="middle" x="331.84" y="-39.82" font-family="Times,serif" font-size="14.00">1</text>
</g>
<!-- rcos -->
<g id="node4" class="node">
<title>rcos</title>
<g id="a_node4"><a xlink:href="rcos.svg" xlink:title="rcos">
<ellipse fill="lightblue" stroke="black" cx="470.69" cy="-18" rx="30.59" ry="18"/>
<text text-anchor="middle" x="470.69" y="-14.3" font-family="Times,serif" font-size="14.00">rcos</text>
</a>
</g>
</g>
<!-- dra.EntityTransparentWhiteCircle&#45;&gt;rcos -->
<g id="edge3" class="edge">
<title>dra.EntityTransparentWhiteCircle&#45;&gt;rcos</title>
<path fill="none" stroke="black" d="M470.69,-179.93C470.69,-148.97 470.69,-83.3 470.69,-46.13"/>
<polygon fill="black" stroke="black" points="474.19,-46.02 470.69,-36.02 467.19,-46.02 474.19,-46.02"/>
<text text-anchor="middle" x="465.69" y="-39.82" font-family="Times,serif" font-size="14.00">4</text>
</g>
<!-- rsin -->
<g id="node5" class="node">
<title>rsin</title>
<g id="a_node5"><a xlink:href="rsin.svg" xlink:title="rsin">
<ellipse fill="lightblue" stroke="black" cx="547.69" cy="-18" rx="28.7" ry="18"/>
<text text-anchor="middle" x="547.69" y="-14.3" font-family="Times,serif" font-size="14.00">rsin</text>
</a>
</g>
</g>
<!-- dra.EntityTransparentWhiteCircle&#45;&gt;rsin -->
<g id="edge4" class="edge">
<title>dra.EntityTransparentWhiteCircle&#45;&gt;rsin</title>
<path fill="none" stroke="black" d="M478.07,-179.93C491.6,-148.67 520.41,-82.06 536.41,-45.09"/>
<polygon fill="black" stroke="black" points="539.8,-46.07 540.55,-35.5 533.37,-43.29 539.8,-46.07"/>
<text text-anchor="middle" x="531.05" y="-39.3" font-family="Times,serif" font-size="14.00">10</text>
</g>
<!-- dra.DestroyEntity -->
<g id="node6" class="node">
<title>dra.DestroyEntity</title>
<g id="a_node6"><a xlink:href="dra.DestroyEntity.svg" xlink:title="dra.DestroyEntity">
<ellipse fill="green" stroke="black" cx="688.69" cy="-18" rx="94.78" ry="18"/>
<text text-anchor="middle" x="688.69" y="-14.3" font-family="Times,serif" font-size="14.00">dra.DestroyEntity</text>
</a>
</g>
</g>
<!-- dra.EntityTransparentWhiteCircle&#45;&gt;dra.DestroyEntity -->
<g id="edge5" class="edge">
<title>dra.EntityTransparentWhiteCircle&#45;&gt;dra.DestroyEntity</title>
<path fill="none" stroke="black" d="M491.59,-179.93C530.92,-147.82 615.95,-78.39 660.37,-42.13"/>
<polygon fill="black" stroke="black" points="662.64,-44.79 668.17,-35.76 658.21,-39.37 662.64,-44.79"/>
<text text-anchor="middle" x="663.17" y="-39.56" font-family="Times,serif" font-size="14.00">1</text>
</g>
</g>
</svg>
