<?xml version="1.0" encoding="UTF-8" standalone="no"?>
<!DOCTYPE svg PUBLIC "-//W3C//DTD SVG 1.1//EN"
 "http://www.w3.org/Graphics/SVG/1.1/DTD/svg11.dtd">
<!-- Generated by graphviz version 2.43.0 (0)
 -->
<!-- Title: dra.func_8010FD88 Pages: 1 -->
<svg width="761pt" height="218pt"
 viewBox="0.00 0.00 761.29 218.00" xmlns="http://www.w3.org/2000/svg" xmlns:xlink="http://www.w3.org/1999/xlink">
<g id="graph0" class="graph" transform="scale(1 1) rotate(0) translate(4 214)">
<title>dra.func_8010FD88</title>
<polygon fill="white" stroke="transparent" points="-4,4 -4,-214 757.29,-214 757.29,4 -4,4"/>
<!-- dra.func_8010FD88 -->
<g id="node1" class="node">
<title>dra.func_8010FD88</title>
<ellipse fill="green" stroke="black" cx="391.94" cy="-105" rx="102.88" ry="18"/>
<text text-anchor="middle" x="391.94" y="-101.3" font-family="Times,serif" font-size="14.00">dra.func_8010FD88</text>
</g>
<!-- dra.SetSpeedX -->
<g id="node2" class="node">
<title>dra.SetSpeedX</title>
<g id="a_node2"><a xlink:href="dra.SetSpeedX.svg" xlink:title="dra.SetSpeedX">
<ellipse fill="green" stroke="black" cx="79.94" cy="-18" rx="79.89" ry="18"/>
<text text-anchor="middle" x="79.94" y="-14.3" font-family="Times,serif" font-size="14.00">dra.SetSpeedX</text>
</a>
</g>
</g>
<!-- dra.func_8010FD88&#45;&gt;dra.SetSpeedX -->
<g id="edge1" class="edge">
<title>dra.func_8010FD88&#45;&gt;dra.SetSpeedX</title>
<path fill="none" stroke="black" d="M338.66,-89.48C283.05,-74.33 196.09,-50.64 138.57,-34.97"/>
<polygon fill="black" stroke="black" points="139.46,-31.59 128.89,-32.34 137.62,-38.34 139.46,-31.59"/>
<text text-anchor="middle" x="259.94" y="-57.8" font-family="Times,serif" font-size="14.00">1</text>
</g>
<!-- dra.func_8010DA48 -->
<g id="node3" class="node">
<title>dra.func_8010DA48</title>
<g id="a_node3"><a xlink:href="dra.func_8010DA48.svg" xlink:title="dra.func_8010DA48">
<ellipse fill="green" stroke="black" cx="280.94" cy="-18" rx="102.88" ry="18"/>
<text text-anchor="middle" x="280.94" y="-14.3" font-family="Times,serif" font-size="14.00">dra.func_8010DA48</text>
</a>
</g>
</g>
<!-- dra.func_8010FD88&#45;&gt;dra.func_8010DA48 -->
<g id="edge2" class="edge">
<title>dra.func_8010FD88&#45;&gt;dra.func_8010DA48</title>
<path fill="none" stroke="black" d="M370.01,-87.21C353.14,-74.28 329.63,-56.28 311,-42.02"/>
<polygon fill="black" stroke="black" points="312.89,-39.06 302.83,-35.76 308.64,-44.62 312.89,-39.06"/>
<text text-anchor="middle" x="348.94" y="-57.8" font-family="Times,serif" font-size="14.00">1</text>
</g>
<!-- dra.func_8011AAFC -->
<g id="node4" class="node">
<title>dra.func_8011AAFC</title>
<g id="a_node4"><a xlink:href="dra.func_8011AAFC.svg" xlink:title="dra.func_8011AAFC">
<ellipse fill="green" stroke="black" cx="503.94" cy="-18" rx="102.88" ry="18"/>
<text text-anchor="middle" x="503.94" y="-14.3" font-family="Times,serif" font-size="14.00">dra.func_8011AAFC</text>
</a>
</g>
</g>
<!-- dra.func_8010FD88&#45;&gt;dra.func_8011AAFC -->
<g id="edge3" class="edge">
<title>dra.func_8010FD88&#45;&gt;dra.func_8011AAFC</title>
<path fill="none" stroke="black" d="M413.8,-87.41C430.88,-74.45 454.81,-56.28 473.73,-41.93"/>
<polygon fill="black" stroke="black" points="475.9,-44.67 481.75,-35.84 471.67,-39.1 475.9,-44.67"/>
<text text-anchor="middle" x="459.94" y="-57.8" font-family="Times,serif" font-size="14.00">1</text>
</g>
<!-- dra.PlaySfx -->
<g id="node5" class="node">
<title>dra.PlaySfx</title>
<g id="a_node5"><a xlink:href="dra.PlaySfx.svg" xlink:title="dra.PlaySfx">
<ellipse fill="green" stroke="black" cx="688.94" cy="-18" rx="64.19" ry="18"/>
<text text-anchor="middle" x="688.94" y="-14.3" font-family="Times,serif" font-size="14.00">dra.PlaySfx</text>
</a>
</g>
</g>
<!-- dra.func_8010FD88&#45;&gt;dra.PlaySfx -->
<g id="edge4" class="edge">
<title>dra.func_8010FD88&#45;&gt;dra.PlaySfx</title>
<path fill="none" stroke="black" d="M443.34,-89.29C497.1,-73.9 581.11,-49.86 635.6,-34.27"/>
<polygon fill="black" stroke="black" points="636.76,-37.57 645.41,-31.46 634.84,-30.84 636.76,-37.57"/>
<text text-anchor="middle" x="562.94" y="-57.8" font-family="Times,serif" font-size="14.00">1</text>
</g>
<!-- dra.func_8010FDF8 -->
<g id="node6" class="node">
<title>dra.func_8010FDF8</title>
<g id="a_node6"><a xlink:href="dra.func_8010FDF8.svg" xlink:title="dra.func_8010FDF8">
<ellipse fill="green" stroke="black" cx="391.94" cy="-192" rx="102.88" ry="18"/>
<text text-anchor="middle" x="391.94" y="-188.3" font-family="Times,serif" font-size="14.00">dra.func_8010FDF8</text>
</a>
</g>
</g>
<!-- dra.func_8010FDF8&#45;&gt;dra.func_8010FD88 -->
<g id="edge5" class="edge">
<title>dra.func_8010FDF8&#45;&gt;dra.func_8010FD88</title>
<path fill="none" stroke="black" d="M391.94,-173.8C391.94,-162.16 391.94,-146.55 391.94,-133.24"/>
<polygon fill="black" stroke="black" points="395.44,-133.18 391.94,-123.18 388.44,-133.18 395.44,-133.18"/>
<text text-anchor="middle" x="396.94" y="-144.8" font-family="Times,serif" font-size="14.00">1</text>
</g>
</g>
</svg>
