<?xml version="1.0" encoding="UTF-8" standalone="no"?>
<!DOCTYPE svg PUBLIC "-//W3C//DTD SVG 1.1//EN"
 "http://www.w3.org/Graphics/SVG/1.1/DTD/svg11.dtd">
<!-- Generated by graphviz version 2.43.0 (0)
 -->
<!-- Title: dra.func_801092E8 Pages: 1 -->
<svg width="1076pt" height="224pt"
 viewBox="0.00 0.00 1075.98 224.00" xmlns="http://www.w3.org/2000/svg" xmlns:xlink="http://www.w3.org/1999/xlink">
<g id="graph0" class="graph" transform="scale(1 1) rotate(0) translate(4 220)">
<title>dra.func_801092E8</title>
<polygon fill="white" stroke="transparent" points="-4,4 -4,-220 1071.98,-220 1071.98,4 -4,4"/>
<!-- dra.func_801092E8 -->
<g id="node1" class="node">
<title>dra.func_801092E8</title>
<ellipse fill="green" stroke="black" cx="524.59" cy="-18" rx="101.28" ry="18"/>
<text text-anchor="middle" x="524.59" y="-14.3" font-family="Times,serif" font-size="14.00">dra.func_801092E8</text>
</g>
<!-- dra.EntityAlucard -->
<g id="node2" class="node">
<title>dra.EntityAlucard</title>
<g id="a_node2"><a xlink:href="dra.EntityAlucard.svg" xlink:title="dra.EntityAlucard">
<ellipse fill="red" stroke="black" cx="93.59" cy="-198" rx="93.68" ry="18"/>
<text text-anchor="middle" x="93.59" y="-194.3" font-family="Times,serif" font-size="14.00">dra.EntityAlucard</text>
</a>
</g>
</g>
<!-- dra.EntityAlucard&#45;&gt;dra.func_801092E8 -->
<g id="edge1" class="edge">
<title>dra.EntityAlucard&#45;&gt;dra.func_801092E8</title>
<path fill="none" stroke="black" d="M131.46,-181.36C210.07,-148.9 390.77,-74.27 477.05,-38.63"/>
<polygon fill="black" stroke="black" points="478.44,-41.85 486.34,-34.8 475.77,-35.38 478.44,-41.85"/>
<text text-anchor="middle" x="126.46" y="-170.16" font-family="Times,serif" font-size="14.00">2</text>
</g>
<!-- dra.func_80109594 -->
<g id="node3" class="node">
<title>dra.func_80109594</title>
<g id="a_node3"><a xlink:href="dra.func_80109594.svg" xlink:title="dra.func_80109594">
<ellipse fill="green" stroke="black" cx="305.59" cy="-198" rx="100.98" ry="18"/>
<text text-anchor="middle" x="305.59" y="-194.3" font-family="Times,serif" font-size="14.00">dra.func_80109594</text>
</a>
</g>
</g>
<!-- dra.func_80109594&#45;&gt;dra.func_801092E8 -->
<g id="edge2" class="edge">
<title>dra.func_80109594&#45;&gt;dra.func_801092E8</title>
<path fill="none" stroke="black" d="M326.19,-180.25C365.49,-148.32 451.21,-78.65 496.01,-42.23"/>
<polygon fill="black" stroke="black" points="498.33,-44.85 503.88,-35.83 493.92,-39.42 498.33,-44.85"/>
<text text-anchor="middle" x="321.19" y="-169.05" font-family="Times,serif" font-size="14.00">1</text>
</g>
<!-- dra.func_80109328 -->
<g id="node4" class="node">
<title>dra.func_80109328</title>
<g id="a_node4"><a xlink:href="dra.func_80109328.svg" xlink:title="dra.func_80109328">
<ellipse fill="green" stroke="black" cx="524.59" cy="-198" rx="100.98" ry="18"/>
<text text-anchor="middle" x="524.59" y="-194.3" font-family="Times,serif" font-size="14.00">dra.func_80109328</text>
</a>
</g>
</g>
<!-- dra.func_80109328&#45;&gt;dra.func_801092E8 -->
<g id="edge3" class="edge">
<title>dra.func_80109328&#45;&gt;dra.func_801092E8</title>
<path fill="none" stroke="black" d="M524.59,-179.93C524.59,-148.97 524.59,-83.3 524.59,-46.13"/>
<polygon fill="black" stroke="black" points="528.09,-46.02 524.59,-36.02 521.09,-46.02 528.09,-46.02"/>
<text text-anchor="middle" x="519.59" y="-168.73" font-family="Times,serif" font-size="14.00">1</text>
</g>
<!-- dra.func_8010FB68 -->
<g id="node5" class="node">
<title>dra.func_8010FB68</title>
<g id="a_node5"><a xlink:href="dra.func_8010FB68.svg" xlink:title="dra.func_8010FB68">
<ellipse fill="green" stroke="black" cx="745.59" cy="-198" rx="102.08" ry="18"/>
<text text-anchor="middle" x="745.59" y="-194.3" font-family="Times,serif" font-size="14.00">dra.func_8010FB68</text>
</a>
</g>
</g>
<!-- dra.func_8010FB68&#45;&gt;dra.func_801092E8 -->
<g id="edge4" class="edge">
<title>dra.func_8010FB68&#45;&gt;dra.func_801092E8</title>
<path fill="none" stroke="black" d="M724.8,-180.25C685.15,-148.32 598.65,-78.65 553.43,-42.23"/>
<polygon fill="black" stroke="black" points="555.47,-39.38 545.49,-35.83 551.08,-44.83 555.47,-39.38"/>
<text text-anchor="middle" x="719.8" y="-169.05" font-family="Times,serif" font-size="14.00">1</text>
</g>
<!-- dra.func_8010A3F0 -->
<g id="node6" class="node">
<title>dra.func_8010A3F0</title>
<g id="a_node6"><a xlink:href="dra.func_8010A3F0.svg" xlink:title="dra.func_8010A3F0">
<ellipse fill="green" stroke="black" cx="966.59" cy="-198" rx="101.28" ry="18"/>
<text text-anchor="middle" x="966.59" y="-194.3" font-family="Times,serif" font-size="14.00">dra.func_8010A3F0</text>
</a>
</g>
</g>
<!-- dra.func_8010A3F0&#45;&gt;dra.func_801092E8 -->
<g id="edge5" class="edge">
<title>dra.func_8010A3F0&#45;&gt;dra.func_801092E8</title>
<path fill="none" stroke="black" d="M927.75,-181.36C847.04,-148.86 661.37,-74.08 573.01,-38.5"/>
<polygon fill="black" stroke="black" points="574.08,-35.16 563.5,-34.67 571.47,-41.65 574.08,-35.16"/>
<text text-anchor="middle" x="922.75" y="-170.16" font-family="Times,serif" font-size="14.00">1</text>
</g>
</g>
</svg>
