<?xml version="1.0" encoding="UTF-8" standalone="no"?>
<!DOCTYPE svg PUBLIC "-//W3C//DTD SVG 1.1//EN"
 "http://www.w3.org/Graphics/SVG/1.1/DTD/svg11.dtd">
<!-- Generated by graphviz version 2.43.0 (0)
 -->
<!-- Title: dra.func_800EA5E4 Pages: 1 -->
<svg width="3439pt" height="224pt"
 viewBox="0.00 0.00 3438.93 224.00" xmlns="http://www.w3.org/2000/svg" xmlns:xlink="http://www.w3.org/1999/xlink">
<g id="graph0" class="graph" transform="scale(1 1) rotate(0) translate(4 220)">
<title>dra.func_800EA5E4</title>
<polygon fill="white" stroke="transparent" points="-4,4 -4,-220 3434.93,-220 3434.93,4 -4,4"/>
<!-- dra.func_800EA5E4 -->
<g id="node1" class="node">
<title>dra.func_800EA5E4</title>
<ellipse fill="green" stroke="black" cx="1756.19" cy="-18" rx="102.88" ry="18"/>
<text text-anchor="middle" x="1756.19" y="-14.3" font-family="Times,serif" font-size="14.00">dra.func_800EA5E4</text>
</g>
<!-- dra.ControlMistForm -->
<g id="node2" class="node">
<title>dra.ControlMistForm</title>
<g id="a_node2"><a xlink:href="dra.ControlMistForm.svg" xlink:title="dra.ControlMistForm">
<ellipse fill="green" stroke="black" cx="109.19" cy="-198" rx="109.38" ry="18"/>
<text text-anchor="middle" x="109.19" y="-194.3" font-family="Times,serif" font-size="14.00">dra.ControlMistForm</text>
</a>
</g>
</g>
<!-- dra.ControlMistForm&#45;&gt;dra.func_800EA5E4 -->
<g id="edge1" class="edge">
<title>dra.ControlMistForm&#45;&gt;dra.func_800EA5E4</title>
<path fill="none" stroke="black" d="M187.21,-185.33C200.53,-183.46 214.25,-181.61 227.19,-180 765.75,-112.88 1413.36,-50.81 1657.05,-28.12"/>
<polygon fill="black" stroke="black" points="1657.66,-31.57 1667.29,-27.16 1657.01,-24.61 1657.66,-31.57"/>
<text text-anchor="middle" x="182.21" y="-174.13" font-family="Times,serif" font-size="14.00">3</text>
</g>
<!-- dra.DrawHudAlucard -->
<g id="node3" class="node">
<title>dra.DrawHudAlucard</title>
<g id="a_node3"><a xlink:href="dra.DrawHudAlucard.svg" xlink:title="dra.DrawHudAlucard">
<ellipse fill="green" stroke="black" cx="345.19" cy="-198" rx="109.38" ry="18"/>
<text text-anchor="middle" x="345.19" y="-194.3" font-family="Times,serif" font-size="14.00">dra.DrawHudAlucard</text>
</a>
</g>
</g>
<!-- dra.DrawHudAlucard&#45;&gt;dra.func_800EA5E4 -->
<g id="edge2" class="edge">
<title>dra.DrawHudAlucard&#45;&gt;dra.func_800EA5E4</title>
<path fill="none" stroke="black" d="M423.87,-185.45C436.99,-183.59 450.47,-181.71 463.19,-180 912.64,-119.65 1451.06,-55.09 1663.5,-29.92"/>
<polygon fill="black" stroke="black" points="1664.16,-33.37 1673.68,-28.72 1663.33,-26.42 1664.16,-33.37"/>
<text text-anchor="middle" x="418.87" y="-174.25" font-family="Times,serif" font-size="14.00">1</text>
</g>
<!-- dra.EntityMist -->
<g id="node4" class="node">
<title>dra.EntityMist</title>
<g id="a_node4"><a xlink:href="dra.EntityMist.svg" xlink:title="dra.EntityMist">
<ellipse fill="red" stroke="black" cx="551.19" cy="-198" rx="79.09" ry="18"/>
<text text-anchor="middle" x="551.19" y="-194.3" font-family="Times,serif" font-size="14.00">dra.EntityMist</text>
</a>
</g>
</g>
<!-- dra.EntityMist&#45;&gt;dra.func_800EA5E4 -->
<g id="edge3" class="edge">
<title>dra.EntityMist&#45;&gt;dra.func_800EA5E4</title>
<path fill="none" stroke="black" d="M608.87,-185.45C618.96,-183.55 629.37,-181.66 639.19,-180 1019.51,-115.89 1475.41,-55.18 1665.77,-30.55"/>
<polygon fill="black" stroke="black" points="1666.26,-34.01 1675.73,-29.26 1665.36,-27.07 1666.26,-34.01"/>
<text text-anchor="middle" x="603.87" y="-174.25" font-family="Times,serif" font-size="14.00">1</text>
</g>
<!-- dra.func_800E4A14 -->
<g id="node5" class="node">
<title>dra.func_800E4A14</title>
<g id="a_node5"><a xlink:href="dra.func_800E4A14.svg" xlink:title="dra.func_800E4A14">
<ellipse fill="green" stroke="black" cx="750.19" cy="-198" rx="102.08" ry="18"/>
<text text-anchor="middle" x="750.19" y="-194.3" font-family="Times,serif" font-size="14.00">dra.func_800E4A14</text>
</a>
</g>
</g>
<!-- dra.func_800E4A14&#45;&gt;dra.func_800EA5E4 -->
<g id="edge4" class="edge">
<title>dra.func_800E4A14&#45;&gt;dra.func_800EA5E4</title>
<path fill="none" stroke="black" d="M819.73,-184.7C1000.62,-152.69 1485.06,-66.97 1676.64,-33.08"/>
<polygon fill="black" stroke="black" points="1677.4,-36.5 1686.64,-31.31 1676.18,-29.6 1677.4,-36.5"/>
<text text-anchor="middle" x="814.73" y="-173.5" font-family="Times,serif" font-size="14.00">1</text>
</g>
<!-- dra.func_800E6FD4 -->
<g id="node6" class="node">
<title>dra.func_800E6FD4</title>
<g id="a_node6"><a xlink:href="dra.func_800E6FD4.svg" xlink:title="dra.func_800E6FD4">
<ellipse fill="green" stroke="black" cx="973.19" cy="-198" rx="103.18" ry="18"/>
<text text-anchor="middle" x="973.19" y="-194.3" font-family="Times,serif" font-size="14.00">dra.func_800E6FD4</text>
</a>
</g>
</g>
<!-- dra.func_800E6FD4&#45;&gt;dra.func_800EA5E4 -->
<g id="edge5" class="edge">
<title>dra.func_800E6FD4&#45;&gt;dra.func_800EA5E4</title>
<path fill="none" stroke="black" d="M1033.33,-183.33C1175.89,-150.92 1533.78,-69.56 1685.95,-34.97"/>
<polygon fill="black" stroke="black" points="1687.14,-38.29 1696.11,-32.66 1685.59,-31.46 1687.14,-38.29"/>
<text text-anchor="middle" x="1028.33" y="-172.13" font-family="Times,serif" font-size="14.00">1</text>
</g>
<!-- dra.func_800EAD0C -->
<g id="node7" class="node">
<title>dra.func_800EAD0C</title>
<g id="a_node7"><a xlink:href="dra.func_800EAD0C.svg" xlink:title="dra.func_800EAD0C">
<ellipse fill="green" stroke="black" cx="1199.19" cy="-198" rx="104.78" ry="18"/>
<text text-anchor="middle" x="1199.19" y="-194.3" font-family="Times,serif" font-size="14.00">dra.func_800EAD0C</text>
</a>
</g>
</g>
<!-- dra.func_800EAD0C&#45;&gt;dra.func_800EA5E4 -->
<g id="edge6" class="edge">
<title>dra.func_800EAD0C&#45;&gt;dra.func_800EA5E4</title>
<path fill="none" stroke="black" d="M1246.68,-181.82C1348.96,-149.14 1589.67,-72.21 1699.62,-37.08"/>
<polygon fill="black" stroke="black" points="1700.75,-40.39 1709.21,-34.01 1698.62,-33.72 1700.75,-40.39"/>
<text text-anchor="middle" x="1241.68" y="-170.62" font-family="Times,serif" font-size="14.00">6</text>
</g>
<!-- dra.func_800F298C -->
<g id="node8" class="node">
<title>dra.func_800F298C</title>
<g id="a_node8"><a xlink:href="dra.func_800F298C.svg" xlink:title="dra.func_800F298C">
<ellipse fill="red" stroke="black" cx="1424.19" cy="-198" rx="102.08" ry="18"/>
<text text-anchor="middle" x="1424.19" y="-194.3" font-family="Times,serif" font-size="14.00">dra.func_800F298C</text>
</a>
</g>
</g>
<!-- dra.func_800F298C&#45;&gt;dra.func_800EA5E4 -->
<g id="edge7" class="edge">
<title>dra.func_800F298C&#45;&gt;dra.func_800EA5E4</title>
<path fill="none" stroke="black" d="M1454.53,-180.73C1514.77,-148.44 1649.41,-76.25 1716.55,-40.25"/>
<polygon fill="black" stroke="black" points="1718.4,-43.23 1725.56,-35.42 1715.09,-37.06 1718.4,-43.23"/>
<text text-anchor="middle" x="1449.53" y="-169.53" font-family="Times,serif" font-size="14.00">2</text>
</g>
<!-- dra.func_800F6A48 -->
<g id="node9" class="node">
<title>dra.func_800F6A48</title>
<g id="a_node9"><a xlink:href="dra.func_800F6A48.svg" xlink:title="dra.func_800F6A48">
<ellipse fill="green" stroke="black" cx="1645.19" cy="-198" rx="101.28" ry="18"/>
<text text-anchor="middle" x="1645.19" y="-194.3" font-family="Times,serif" font-size="14.00">dra.func_800F6A48</text>
</a>
</g>
</g>
<!-- dra.func_800F6A48&#45;&gt;dra.func_800EA5E4 -->
<g id="edge8" class="edge">
<title>dra.func_800F6A48&#45;&gt;dra.func_800EA5E4</title>
<path fill="none" stroke="black" d="M1655.83,-179.93C1675.39,-148.57 1717.15,-81.6 1740.16,-44.71"/>
<polygon fill="black" stroke="black" points="1743.26,-46.35 1745.58,-36.02 1737.32,-42.65 1743.26,-46.35"/>
<text text-anchor="middle" x="1650.83" y="-168.73" font-family="Times,serif" font-size="14.00">1</text>
</g>
<!-- dra.func_800FBC24 -->
<g id="node10" class="node">
<title>dra.func_800FBC24</title>
<g id="a_node10"><a xlink:href="dra.func_800FBC24.svg" xlink:title="dra.func_800FBC24">
<ellipse fill="red" stroke="black" cx="1867.19" cy="-198" rx="102.88" ry="18"/>
<text text-anchor="middle" x="1867.19" y="-194.3" font-family="Times,serif" font-size="14.00">dra.func_800FBC24</text>
</a>
</g>
</g>
<!-- dra.func_800FBC24&#45;&gt;dra.func_800EA5E4 -->
<g id="edge9" class="edge">
<title>dra.func_800FBC24&#45;&gt;dra.func_800EA5E4</title>
<path fill="none" stroke="black" d="M1856.55,-179.93C1836.99,-148.57 1795.23,-81.6 1772.22,-44.71"/>
<polygon fill="black" stroke="black" points="1775.06,-42.65 1766.8,-36.02 1769.12,-46.35 1775.06,-42.65"/>
<text text-anchor="middle" x="1851.55" y="-168.73" font-family="Times,serif" font-size="14.00">2</text>
</g>
<!-- dra.func_800FF60C -->
<g id="node11" class="node">
<title>dra.func_800FF60C</title>
<g id="a_node11"><a xlink:href="dra.func_800FF60C.svg" xlink:title="dra.func_800FF60C">
<ellipse fill="green" stroke="black" cx="2090.19" cy="-198" rx="102.88" ry="18"/>
<text text-anchor="middle" x="2090.19" y="-194.3" font-family="Times,serif" font-size="14.00">dra.func_800FF60C</text>
</a>
</g>
</g>
<!-- dra.func_800FF60C&#45;&gt;dra.func_800EA5E4 -->
<g id="edge10" class="edge">
<title>dra.func_800FF60C&#45;&gt;dra.func_800EA5E4</title>
<path fill="none" stroke="black" d="M2059.66,-180.73C1999.07,-148.44 1863.61,-76.25 1796.07,-40.25"/>
<polygon fill="black" stroke="black" points="1797.48,-37.04 1787.01,-35.42 1794.19,-43.22 1797.48,-37.04"/>
<text text-anchor="middle" x="2054.66" y="-169.53" font-family="Times,serif" font-size="14.00">2</text>
</g>
<!-- dra.func_801042C4 -->
<g id="node12" class="node">
<title>dra.func_801042C4</title>
<g id="a_node12"><a xlink:href="dra.func_801042C4.svg" xlink:title="dra.func_801042C4">
<ellipse fill="red" stroke="black" cx="2312.19" cy="-198" rx="101.28" ry="18"/>
<text text-anchor="middle" x="2312.19" y="-194.3" font-family="Times,serif" font-size="14.00">dra.func_801042C4</text>
</a>
</g>
</g>
<!-- dra.func_801042C4&#45;&gt;dra.func_800EA5E4 -->
<g id="edge11" class="edge">
<title>dra.func_801042C4&#45;&gt;dra.func_800EA5E4</title>
<path fill="none" stroke="black" d="M2265.27,-181.98C2163.48,-149.39 1922.76,-72.33 1812.78,-37.12"/>
<polygon fill="black" stroke="black" points="1813.78,-33.76 1803.19,-34.05 1811.64,-40.43 1813.78,-33.76"/>
<text text-anchor="middle" x="2260.27" y="-170.78" font-family="Times,serif" font-size="14.00">3</text>
</g>
<!-- dra.func_80105428 -->
<g id="node13" class="node">
<title>dra.func_80105428</title>
<g id="a_node13"><a xlink:href="dra.func_80105428.svg" xlink:title="dra.func_80105428">
<ellipse fill="red" stroke="black" cx="2532.19" cy="-198" rx="100.98" ry="18"/>
<text text-anchor="middle" x="2532.19" y="-194.3" font-family="Times,serif" font-size="14.00">dra.func_80105428</text>
</a>
</g>
</g>
<!-- dra.func_80105428&#45;&gt;dra.func_800EA5E4 -->
<g id="edge12" class="edge">
<title>dra.func_80105428&#45;&gt;dra.func_800EA5E4</title>
<path fill="none" stroke="black" d="M2472.91,-183.4C2331.86,-151.05 1976.84,-69.61 1825.87,-34.98"/>
<polygon fill="black" stroke="black" points="1826.32,-31.5 1815.8,-32.67 1824.76,-38.32 1826.32,-31.5"/>
<text text-anchor="middle" x="2467.91" y="-172.2" font-family="Times,serif" font-size="14.00">1</text>
</g>
<!-- dra.func_80109594 -->
<g id="node14" class="node">
<title>dra.func_80109594</title>
<g id="a_node14"><a xlink:href="dra.func_80109594.svg" xlink:title="dra.func_80109594">
<ellipse fill="green" stroke="black" cx="2751.19" cy="-198" rx="100.98" ry="18"/>
<text text-anchor="middle" x="2751.19" y="-194.3" font-family="Times,serif" font-size="14.00">dra.func_80109594</text>
</a>
</g>
</g>
<!-- dra.func_80109594&#45;&gt;dra.func_800EA5E4 -->
<g id="edge13" class="edge">
<title>dra.func_80109594&#45;&gt;dra.func_800EA5E4</title>
<path fill="none" stroke="black" d="M2682.8,-184.77C2504.33,-152.84 2025.21,-67.13 1835.3,-33.15"/>
<polygon fill="black" stroke="black" points="1835.85,-29.7 1825.39,-31.38 1834.62,-36.59 1835.85,-29.7"/>
<text text-anchor="middle" x="2677.8" y="-173.57" font-family="Times,serif" font-size="14.00">1</text>
</g>
<!-- sel.Update -->
<g id="node15" class="node">
<title>sel.Update</title>
<g id="a_node15"><a xlink:href="sel.Update.svg" xlink:title="sel.Update">
<ellipse fill="red" stroke="black" cx="2931.19" cy="-198" rx="61.19" ry="18"/>
<text text-anchor="middle" x="2931.19" y="-194.3" font-family="Times,serif" font-size="14.00">sel.Update</text>
</a>
</g>
</g>
<!-- sel.Update&#45;&gt;dra.func_800EA5E4 -->
<g id="edge14" class="edge">
<title>sel.Update&#45;&gt;dra.func_800EA5E4</title>
<path fill="none" stroke="black" d="M2886.89,-185.58C2878.39,-183.58 2869.54,-181.62 2861.19,-180 2489.1,-107.88 2040.88,-52.01 1849.82,-29.64"/>
<polygon fill="black" stroke="black" points="1850.15,-26.16 1839.81,-28.47 1849.34,-33.11 1850.15,-26.16"/>
<text text-anchor="middle" x="2881.89" y="-174.38" font-family="Times,serif" font-size="14.00">6</text>
</g>
<!-- sel.func_801AECA0 -->
<g id="node16" class="node">
<title>sel.func_801AECA0</title>
<g id="a_node16"><a xlink:href="sel.func_801AECA0.svg" xlink:title="sel.func_801AECA0">
<ellipse fill="green" stroke="black" cx="3111.19" cy="-198" rx="100.98" ry="18"/>
<text text-anchor="middle" x="3111.19" y="-194.3" font-family="Times,serif" font-size="14.00">sel.func_801AECA0</text>
</a>
</g>
</g>
<!-- sel.func_801AECA0&#45;&gt;dra.func_800EA5E4 -->
<g id="edge15" class="edge">
<title>sel.func_801AECA0&#45;&gt;dra.func_800EA5E4</title>
<path fill="none" stroke="black" d="M3038.45,-185.5C3026.03,-183.61 3013.24,-181.71 3001.19,-180 2570.69,-118.91 2055.04,-55.25 1848.42,-30.14"/>
<polygon fill="black" stroke="black" points="1848.58,-26.63 1838.23,-28.9 1847.73,-33.58 1848.58,-26.63"/>
<text text-anchor="middle" x="3033.45" y="-174.3" font-family="Times,serif" font-size="14.00">1</text>
</g>
<!-- sel.func_801B60D4 -->
<g id="node17" class="node">
<title>sel.func_801B60D4</title>
<g id="a_node17"><a xlink:href="sel.func_801B60D4.svg" xlink:title="sel.func_801B60D4">
<ellipse fill="green" stroke="black" cx="3330.19" cy="-198" rx="100.98" ry="18"/>
<text text-anchor="middle" x="3330.19" y="-194.3" font-family="Times,serif" font-size="14.00">sel.func_801B60D4</text>
</a>
</g>
</g>
<!-- sel.func_801B60D4&#45;&gt;dra.func_800EA5E4 -->
<g id="edge16" class="edge">
<title>sel.func_801B60D4&#45;&gt;dra.func_800EA5E4</title>
<path fill="none" stroke="black" d="M3258.43,-185.34C3246.03,-183.45 3233.25,-181.6 3221.19,-180 2707.9,-111.8 2090.67,-50.82 1854.57,-28.26"/>
<polygon fill="black" stroke="black" points="1854.58,-24.74 1844.29,-27.28 1853.91,-31.71 1854.58,-24.74"/>
<text text-anchor="middle" x="3253.43" y="-174.14" font-family="Times,serif" font-size="14.00">1</text>
</g>
</g>
</svg>
