<?xml version="1.0" encoding="UTF-8" standalone="no"?>
<!DOCTYPE svg PUBLIC "-//W3C//DTD SVG 1.1//EN"
 "http://www.w3.org/Graphics/SVG/1.1/DTD/svg11.dtd">
<!-- Generated by graphviz version 2.43.0 (0)
 -->
<!-- Title: dra.func_8011A290 Pages: 1 -->
<svg width="2882pt" height="404pt"
 viewBox="0.00 0.00 2881.78 404.00" xmlns="http://www.w3.org/2000/svg" xmlns:xlink="http://www.w3.org/1999/xlink">
<g id="graph0" class="graph" transform="scale(1 1) rotate(0) translate(4 400)">
<title>dra.func_8011A290</title>
<polygon fill="white" stroke="transparent" points="-4,4 -4,-400 2877.78,-400 2877.78,4 -4,4"/>
<!-- dra.func_8011A290 -->
<g id="node1" class="node">
<title>dra.func_8011A290</title>
<ellipse fill="green" stroke="black" cx="1392.69" cy="-198" rx="100.98" ry="18"/>
<text text-anchor="middle" x="1392.69" y="-194.3" font-family="Times,serif" font-size="14.00">dra.func_8011A290</text>
</g>
<!-- dra.func_800FE3C4 -->
<g id="node2" class="node">
<title>dra.func_800FE3C4</title>
<g id="a_node2"><a xlink:href="dra.func_800FE3C4.svg" xlink:title="dra.func_800FE3C4">
<ellipse fill="green" stroke="black" cx="1282.69" cy="-18" rx="102.88" ry="18"/>
<text text-anchor="middle" x="1282.69" y="-14.3" font-family="Times,serif" font-size="14.00">dra.func_800FE3C4</text>
</a>
</g>
</g>
<!-- dra.func_8011A290&#45;&gt;dra.func_800FE3C4 -->
<g id="edge1" class="edge">
<title>dra.func_8011A290&#45;&gt;dra.func_800FE3C4</title>
<path fill="none" stroke="black" d="M1382.14,-179.93C1362.76,-148.57 1321.38,-81.6 1298.58,-44.71"/>
<polygon fill="black" stroke="black" points="1301.44,-42.68 1293.21,-36.02 1295.49,-46.36 1301.44,-42.68"/>
<text text-anchor="middle" x="1288.21" y="-39.82" font-family="Times,serif" font-size="14.00">1</text>
</g>
<!-- dra.func_80118894 -->
<g id="node3" class="node">
<title>dra.func_80118894</title>
<g id="a_node3"><a xlink:href="dra.func_80118894.svg" xlink:title="dra.func_80118894">
<ellipse fill="green" stroke="black" cx="1503.69" cy="-18" rx="100.98" ry="18"/>
<text text-anchor="middle" x="1503.69" y="-14.3" font-family="Times,serif" font-size="14.00">dra.func_80118894</text>
</a>
</g>
</g>
<!-- dra.func_8011A290&#45;&gt;dra.func_80118894 -->
<g id="edge2" class="edge">
<title>dra.func_8011A290&#45;&gt;dra.func_80118894</title>
<path fill="none" stroke="black" d="M1403.33,-179.93C1422.89,-148.57 1464.65,-81.6 1487.66,-44.71"/>
<polygon fill="black" stroke="black" points="1490.76,-46.35 1493.08,-36.02 1484.82,-42.65 1490.76,-46.35"/>
<text text-anchor="middle" x="1488.08" y="-39.82" font-family="Times,serif" font-size="14.00">1</text>
</g>
<!-- dra.func_80128C2C -->
<g id="node4" class="node">
<title>dra.func_80128C2C</title>
<g id="a_node4"><a xlink:href="dra.func_80128C2C.svg" xlink:title="dra.func_80128C2C">
<ellipse fill="red" stroke="black" cx="102.69" cy="-378" rx="102.88" ry="18"/>
<text text-anchor="middle" x="102.69" y="-374.3" font-family="Times,serif" font-size="14.00">dra.func_80128C2C</text>
</a>
</g>
</g>
<!-- dra.func_80128C2C&#45;&gt;dra.func_8011A290 -->
<g id="edge3" class="edge">
<title>dra.func_80128C2C&#45;&gt;dra.func_8011A290</title>
<path fill="none" stroke="black" d="M177.07,-365.55C189.62,-363.67 202.52,-361.75 214.69,-360 621.33,-301.35 1107.75,-236.58 1304.08,-210.65"/>
<polygon fill="black" stroke="black" points="1304.6,-214.12 1314.05,-209.34 1303.68,-207.18 1304.6,-214.12"/>
<text text-anchor="middle" x="172.07" y="-354.35" font-family="Times,serif" font-size="14.00">1</text>
</g>
<!-- dra.EntityHolyWaterFlame -->
<g id="node5" class="node">
<title>dra.EntityHolyWaterFlame</title>
<g id="a_node5"><a xlink:href="dra.EntityHolyWaterFlame.svg" xlink:title="dra.EntityHolyWaterFlame">
<ellipse fill="red" stroke="black" cx="359.69" cy="-378" rx="135.68" ry="18"/>
<text text-anchor="middle" x="359.69" y="-374.3" font-family="Times,serif" font-size="14.00">dra.EntityHolyWaterFlame</text>
</a>
</g>
</g>
<!-- dra.EntityHolyWaterFlame&#45;&gt;dra.func_8011A290 -->
<g id="edge4" class="edge">
<title>dra.EntityHolyWaterFlame&#45;&gt;dra.func_8011A290</title>
<path fill="none" stroke="black" d="M439.03,-363.33C631.19,-330.22 1119.85,-246.01 1312.68,-212.79"/>
<polygon fill="black" stroke="black" points="1313.49,-216.2 1322.75,-211.05 1312.3,-209.3 1313.49,-216.2"/>
<text text-anchor="middle" x="434.03" y="-352.13" font-family="Times,serif" font-size="14.00">1</text>
</g>
<!-- dra.EntitySubwpnReboundStone -->
<g id="node6" class="node">
<title>dra.EntitySubwpnReboundStone</title>
<g id="a_node6"><a xlink:href="dra.EntitySubwpnReboundStone.svg" xlink:title="dra.EntitySubwpnReboundStone">
<ellipse fill="red" stroke="black" cx="676.69" cy="-378" rx="163.27" ry="18"/>
<text text-anchor="middle" x="676.69" y="-374.3" font-family="Times,serif" font-size="14.00">dra.EntitySubwpnReboundStone</text>
</a>
</g>
</g>
<!-- dra.EntitySubwpnReboundStone&#45;&gt;dra.func_8011A290 -->
<g id="edge5" class="edge">
<title>dra.EntitySubwpnReboundStone&#45;&gt;dra.func_8011A290</title>
<path fill="none" stroke="black" d="M739.6,-361.36C874.1,-327.92 1188.54,-249.75 1326.18,-215.53"/>
<polygon fill="black" stroke="black" points="1327.32,-218.86 1336.18,-213.05 1325.63,-212.07 1327.32,-218.86"/>
<text text-anchor="middle" x="734.6" y="-350.16" font-family="Times,serif" font-size="14.00">1</text>
</g>
<!-- dra.func_801315F8 -->
<g id="node7" class="node">
<title>dra.func_801315F8</title>
<g id="a_node7"><a xlink:href="dra.func_801315F8.svg" xlink:title="dra.func_801315F8">
<ellipse fill="red" stroke="black" cx="958.69" cy="-378" rx="100.98" ry="18"/>
<text text-anchor="middle" x="958.69" y="-374.3" font-family="Times,serif" font-size="14.00">dra.func_801315F8</text>
</a>
</g>
</g>
<!-- dra.func_801315F8&#45;&gt;dra.func_8011A290 -->
<g id="edge6" class="edge">
<title>dra.func_801315F8&#45;&gt;dra.func_8011A290</title>
<path fill="none" stroke="black" d="M997.21,-361.2C1076.59,-328.65 1258.22,-254.15 1344.92,-218.59"/>
<polygon fill="black" stroke="black" points="1346.34,-221.79 1354.26,-214.76 1343.68,-215.32 1346.34,-221.79"/>
<text text-anchor="middle" x="992.21" y="-350" font-family="Times,serif" font-size="14.00">1</text>
</g>
<!-- dra.EntitySubwpnThrownVibhuti -->
<g id="node8" class="node">
<title>dra.EntitySubwpnThrownVibhuti</title>
<g id="a_node8"><a xlink:href="dra.EntitySubwpnThrownVibhuti.svg" xlink:title="dra.EntitySubwpnThrownVibhuti">
<ellipse fill="red" stroke="black" cx="1241.69" cy="-378" rx="164.37" ry="18"/>
<text text-anchor="middle" x="1241.69" y="-374.3" font-family="Times,serif" font-size="14.00">dra.EntitySubwpnThrownVibhuti</text>
</a>
</g>
</g>
<!-- dra.EntitySubwpnThrownVibhuti&#45;&gt;dra.func_8011A290 -->
<g id="edge7" class="edge">
<title>dra.EntitySubwpnThrownVibhuti&#45;&gt;dra.func_8011A290</title>
<path fill="none" stroke="black" d="M1256.17,-359.93C1283,-328.3 1340.55,-260.46 1371.67,-223.78"/>
<polygon fill="black" stroke="black" points="1374.46,-225.91 1378.26,-216.02 1369.12,-221.38 1374.46,-225.91"/>
<text text-anchor="middle" x="1251.17" y="-348.73" font-family="Times,serif" font-size="14.00">1</text>
</g>
<!-- dra.EntitySubwpnBible -->
<g id="node9" class="node">
<title>dra.EntitySubwpnBible</title>
<g id="a_node9"><a xlink:href="dra.EntitySubwpnBible.svg" xlink:title="dra.EntitySubwpnBible">
<ellipse fill="red" stroke="black" cx="1543.69" cy="-378" rx="119.68" ry="18"/>
<text text-anchor="middle" x="1543.69" y="-374.3" font-family="Times,serif" font-size="14.00">dra.EntitySubwpnBible</text>
</a>
</g>
</g>
<!-- dra.EntitySubwpnBible&#45;&gt;dra.func_8011A290 -->
<g id="edge8" class="edge">
<title>dra.EntitySubwpnBible&#45;&gt;dra.func_8011A290</title>
<path fill="none" stroke="black" d="M1529.21,-359.93C1502.38,-328.3 1444.83,-260.46 1413.71,-223.78"/>
<polygon fill="black" stroke="black" points="1416.26,-221.38 1407.13,-216.02 1410.93,-225.91 1416.26,-221.38"/>
<text text-anchor="middle" x="1524.21" y="-348.73" font-family="Times,serif" font-size="14.00">1</text>
</g>
<!-- dra.EntitySubwpnThrownAxe -->
<g id="node10" class="node">
<title>dra.EntitySubwpnThrownAxe</title>
<g id="a_node10"><a xlink:href="dra.EntitySubwpnThrownAxe.svg" xlink:title="dra.EntitySubwpnThrownAxe">
<ellipse fill="red" stroke="black" cx="1828.69" cy="-378" rx="147.57" ry="18"/>
<text text-anchor="middle" x="1828.69" y="-374.3" font-family="Times,serif" font-size="14.00">dra.EntitySubwpnThrownAxe</text>
</a>
</g>
</g>
<!-- dra.EntitySubwpnThrownAxe&#45;&gt;dra.func_8011A290 -->
<g id="edge9" class="edge">
<title>dra.EntitySubwpnThrownAxe&#45;&gt;dra.func_8011A290</title>
<path fill="none" stroke="black" d="M1788.45,-360.57C1707.89,-327.68 1527.09,-253.87 1440.58,-218.55"/>
<polygon fill="black" stroke="black" points="1441.84,-215.29 1431.26,-214.75 1439.2,-221.77 1441.84,-215.29"/>
<text text-anchor="middle" x="1783.45" y="-349.37" font-family="Times,serif" font-size="14.00">1</text>
</g>
<!-- dra.EntitySubwpnCrashCross -->
<g id="node11" class="node">
<title>dra.EntitySubwpnCrashCross</title>
<g id="a_node11"><a xlink:href="dra.EntitySubwpnCrashCross.svg" xlink:title="dra.EntitySubwpnCrashCross">
<ellipse fill="red" stroke="black" cx="2143.69" cy="-378" rx="149.47" ry="18"/>
<text text-anchor="middle" x="2143.69" y="-374.3" font-family="Times,serif" font-size="14.00">dra.EntitySubwpnCrashCross</text>
</a>
</g>
</g>
<!-- dra.EntitySubwpnCrashCross&#45;&gt;dra.func_8011A290 -->
<g id="edge10" class="edge">
<title>dra.EntitySubwpnCrashCross&#45;&gt;dra.func_8011A290</title>
<path fill="none" stroke="black" d="M2079.34,-361.75C1938.66,-328.4 1604.84,-249.28 1460.8,-215.14"/>
<polygon fill="black" stroke="black" points="1461.3,-211.66 1450.76,-212.76 1459.68,-218.48 1461.3,-211.66"/>
<text text-anchor="middle" x="2074.34" y="-350.55" font-family="Times,serif" font-size="14.00">1</text>
</g>
<!-- dra.EntityHolyWater -->
<g id="node12" class="node">
<title>dra.EntityHolyWater</title>
<g id="a_node12"><a xlink:href="dra.EntityHolyWater.svg" xlink:title="dra.EntityHolyWater">
<ellipse fill="red" stroke="black" cx="2418.69" cy="-378" rx="107.48" ry="18"/>
<text text-anchor="middle" x="2418.69" y="-374.3" font-family="Times,serif" font-size="14.00">dra.EntityHolyWater</text>
</a>
</g>
</g>
<!-- dra.EntityHolyWater&#45;&gt;dra.func_8011A290 -->
<g id="edge11" class="edge">
<title>dra.EntityHolyWater&#45;&gt;dra.func_8011A290</title>
<path fill="none" stroke="black" d="M2346.95,-364.55C2161.33,-332.35 1666.24,-246.46 1472.24,-212.8"/>
<polygon fill="black" stroke="black" points="1472.57,-209.31 1462.12,-211.05 1471.37,-216.2 1472.57,-209.31"/>
<text text-anchor="middle" x="2341.95" y="-353.35" font-family="Times,serif" font-size="14.00">1</text>
</g>
<!-- dra.EntitySubwpnThrownDagger -->
<g id="node13" class="node">
<title>dra.EntitySubwpnThrownDagger</title>
<g id="a_node13"><a xlink:href="dra.EntitySubwpnThrownDagger.svg" xlink:title="dra.EntitySubwpnThrownDagger">
<ellipse fill="red" stroke="black" cx="2708.69" cy="-378" rx="165.17" ry="18"/>
<text text-anchor="middle" x="2708.69" y="-374.3" font-family="Times,serif" font-size="14.00">dra.EntitySubwpnThrownDagger</text>
</a>
</g>
</g>
<!-- dra.EntitySubwpnThrownDagger&#45;&gt;dra.func_8011A290 -->
<g id="edge12" class="edge">
<title>dra.EntitySubwpnThrownDagger&#45;&gt;dra.func_8011A290</title>
<path fill="none" stroke="black" d="M2609.51,-363.58C2361.32,-330.02 1716.52,-242.8 1480.72,-210.91"/>
<polygon fill="black" stroke="black" points="1480.85,-207.39 1470.47,-209.52 1479.91,-214.33 1480.85,-207.39"/>
<text text-anchor="middle" x="2604.51" y="-352.38" font-family="Times,serif" font-size="14.00">1</text>
</g>
</g>
</svg>
