<?xml version="1.0" encoding="UTF-8" standalone="no"?>
<!DOCTYPE svg PUBLIC "-//W3C//DTD SVG 1.1//EN"
 "http://www.w3.org/Graphics/SVG/1.1/DTD/svg11.dtd">
<!-- Generated by graphviz version 2.43.0 (0)
 -->
<!-- Title: dra.EntitySubwpnBible Pages: 1 -->
<svg width="1158pt" height="131pt"
 viewBox="0.00 0.00 1158.13 131.00" xmlns="http://www.w3.org/2000/svg" xmlns:xlink="http://www.w3.org/1999/xlink">
<g id="graph0" class="graph" transform="scale(1 1) rotate(0) translate(4 127)">
<title>dra.EntitySubwpnBible</title>
<polygon fill="white" stroke="transparent" points="-4,4 -4,-127 1154.13,-127 1154.13,4 -4,4"/>
<!-- dra.EntitySubwpnBible -->
<g id="node1" class="node">
<title>dra.EntitySubwpnBible</title>
<ellipse fill="red" stroke="black" cx="708.44" cy="-105" rx="119.68" ry="18"/>
<text text-anchor="middle" x="708.44" y="-101.3" font-family="Times,serif" font-size="14.00">dra.EntitySubwpnBible</text>
</g>
<!-- dra.AllocPrimitives -->
<g id="node2" class="node">
<title>dra.AllocPrimitives</title>
<g id="a_node2"><a xlink:href="dra.AllocPrimitives.svg" xlink:title="dra.AllocPrimitives">
<ellipse fill="green" stroke="black" cx="99.44" cy="-18" rx="99.38" ry="18"/>
<text text-anchor="middle" x="99.44" y="-14.3" font-family="Times,serif" font-size="14.00">dra.AllocPrimitives</text>
</a>
</g>
</g>
<!-- dra.EntitySubwpnBible&#45;&gt;dra.AllocPrimitives -->
<g id="edge1" class="edge">
<title>dra.EntitySubwpnBible&#45;&gt;dra.AllocPrimitives</title>
<path fill="none" stroke="black" d="M621.03,-92.71C520.98,-79.65 352.26,-57.22 207.44,-36 198.91,-34.75 190.01,-33.41 181.14,-32.05"/>
<polygon fill="black" stroke="black" points="181.57,-28.57 171.15,-30.51 180.5,-35.49 181.57,-28.57"/>
<text text-anchor="middle" x="446.44" y="-57.8" font-family="Times,serif" font-size="14.00">1</text>
</g>
<!-- dra.DestroyEntity -->
<g id="node3" class="node">
<title>dra.DestroyEntity</title>
<g id="a_node3"><a xlink:href="dra.DestroyEntity.svg" xlink:title="dra.DestroyEntity">
<ellipse fill="green" stroke="black" cx="311.44" cy="-18" rx="94.78" ry="18"/>
<text text-anchor="middle" x="311.44" y="-14.3" font-family="Times,serif" font-size="14.00">dra.DestroyEntity</text>
</a>
</g>
</g>
<!-- dra.EntitySubwpnBible&#45;&gt;dra.DestroyEntity -->
<g id="edge2" class="edge">
<title>dra.EntitySubwpnBible&#45;&gt;dra.DestroyEntity</title>
<path fill="none" stroke="black" d="M642.44,-89.87C570.42,-74.45 455.58,-49.86 381.86,-34.08"/>
<polygon fill="black" stroke="black" points="382.25,-30.58 371.74,-31.91 380.79,-37.43 382.25,-30.58"/>
<text text-anchor="middle" x="539.44" y="-57.8" font-family="Times,serif" font-size="14.00">1</text>
</g>
<!-- dra.func_8011A290 -->
<g id="node4" class="node">
<title>dra.func_8011A290</title>
<g id="a_node4"><a xlink:href="dra.func_8011A290.svg" xlink:title="dra.func_8011A290">
<ellipse fill="green" stroke="black" cx="525.44" cy="-18" rx="100.98" ry="18"/>
<text text-anchor="middle" x="525.44" y="-14.3" font-family="Times,serif" font-size="14.00">dra.func_8011A290</text>
</a>
</g>
</g>
<!-- dra.EntitySubwpnBible&#45;&gt;dra.func_8011A290 -->
<g id="edge3" class="edge">
<title>dra.EntitySubwpnBible&#45;&gt;dra.func_8011A290</title>
<path fill="none" stroke="black" d="M673.16,-87.61C643.47,-73.82 600.9,-54.05 569.08,-39.27"/>
<polygon fill="black" stroke="black" points="570.54,-36.09 560,-35.05 567.59,-42.44 570.54,-36.09"/>
<text text-anchor="middle" x="633.44" y="-57.8" font-family="Times,serif" font-size="14.00">1</text>
</g>
<!-- dra.PlaySfx -->
<g id="node5" class="node">
<title>dra.PlaySfx</title>
<g id="a_node5"><a xlink:href="dra.PlaySfx.svg" xlink:title="dra.PlaySfx">
<ellipse fill="green" stroke="black" cx="708.44" cy="-18" rx="64.19" ry="18"/>
<text text-anchor="middle" x="708.44" y="-14.3" font-family="Times,serif" font-size="14.00">dra.PlaySfx</text>
</a>
</g>
</g>
<!-- dra.EntitySubwpnBible&#45;&gt;dra.PlaySfx -->
<g id="edge4" class="edge">
<title>dra.EntitySubwpnBible&#45;&gt;dra.PlaySfx</title>
<path fill="none" stroke="black" d="M708.44,-86.8C708.44,-75.16 708.44,-59.55 708.44,-46.24"/>
<polygon fill="black" stroke="black" points="711.94,-46.18 708.44,-36.18 704.94,-46.18 711.94,-46.18"/>
<text text-anchor="middle" x="713.44" y="-57.8" font-family="Times,serif" font-size="14.00">2</text>
</g>
<!-- rsin -->
<g id="node6" class="node">
<title>rsin</title>
<g id="a_node6"><a xlink:href="rsin.svg" xlink:title="rsin">
<ellipse fill="lightblue" stroke="black" cx="819.44" cy="-18" rx="28.7" ry="18"/>
<text text-anchor="middle" x="819.44" y="-14.3" font-family="Times,serif" font-size="14.00">rsin</text>
</a>
</g>
</g>
<!-- dra.EntitySubwpnBible&#45;&gt;rsin -->
<g id="edge5" class="edge">
<title>dra.EntitySubwpnBible&#45;&gt;rsin</title>
<path fill="none" stroke="black" d="M730.37,-87.21C748.64,-73.21 774.69,-53.27 793.9,-38.56"/>
<polygon fill="black" stroke="black" points="796.12,-41.27 801.93,-32.41 791.87,-35.71 796.12,-41.27"/>
<text text-anchor="middle" x="776.44" y="-57.8" font-family="Times,serif" font-size="14.00">2</text>
</g>
<!-- rcos -->
<g id="node7" class="node">
<title>rcos</title>
<g id="a_node7"><a xlink:href="rcos.svg" xlink:title="rcos">
<ellipse fill="lightblue" stroke="black" cx="896.44" cy="-18" rx="30.59" ry="18"/>
<text text-anchor="middle" x="896.44" y="-14.3" font-family="Times,serif" font-size="14.00">rcos</text>
</a>
</g>
</g>
<!-- dra.EntitySubwpnBible&#45;&gt;rcos -->
<g id="edge6" class="edge">
<title>dra.EntitySubwpnBible&#45;&gt;rcos</title>
<path fill="none" stroke="black" d="M744.25,-87.81C778.67,-72.25 830.26,-48.92 863.64,-33.83"/>
<polygon fill="black" stroke="black" points="865.28,-36.93 872.95,-29.62 862.4,-30.55 865.28,-36.93"/>
<text text-anchor="middle" x="819.44" y="-57.8" font-family="Times,serif" font-size="14.00">2</text>
</g>
<!-- dra.func_8011AAFC -->
<g id="node8" class="node">
<title>dra.func_8011AAFC</title>
<g id="a_node8"><a xlink:href="dra.func_8011AAFC.svg" xlink:title="dra.func_8011AAFC">
<ellipse fill="green" stroke="black" cx="1047.44" cy="-18" rx="102.88" ry="18"/>
<text text-anchor="middle" x="1047.44" y="-14.3" font-family="Times,serif" font-size="14.00">dra.func_8011AAFC</text>
</a>
</g>
</g>
<!-- dra.EntitySubwpnBible&#45;&gt;dra.func_8011AAFC -->
<g id="edge7" class="edge">
<title>dra.EntitySubwpnBible&#45;&gt;dra.func_8011AAFC</title>
<path fill="none" stroke="black" d="M767.1,-89.29C826.82,-74.32 919.23,-51.15 981.47,-35.54"/>
<polygon fill="black" stroke="black" points="982.34,-38.93 991.19,-33.11 980.63,-32.14 982.34,-38.93"/>
<text text-anchor="middle" x="903.44" y="-57.8" font-family="Times,serif" font-size="14.00">1</text>
</g>
</g>
</svg>
