<?xml version="1.0" encoding="UTF-8" standalone="no"?>
<!DOCTYPE svg PUBLIC "-//W3C//DTD SVG 1.1//EN"
 "http://www.w3.org/Graphics/SVG/1.1/DTD/svg11.dtd">
<!-- Generated by graphviz version 2.43.0 (0)
 -->
<!-- Title: dra.func_80111D24 Pages: 1 -->
<svg width="430pt" height="404pt"
 viewBox="0.00 0.00 430.13 404.00" xmlns="http://www.w3.org/2000/svg" xmlns:xlink="http://www.w3.org/1999/xlink">
<g id="graph0" class="graph" transform="scale(1 1) rotate(0) translate(4 400)">
<title>dra.func_80111D24</title>
<polygon fill="white" stroke="transparent" points="-4,4 -4,-400 426.13,-400 426.13,4 -4,4"/>
<!-- dra.func_80111D24 -->
<g id="node1" class="node">
<title>dra.func_80111D24</title>
<ellipse fill="green" stroke="black" cx="210.74" cy="-198" rx="102.08" ry="18"/>
<text text-anchor="middle" x="210.74" y="-194.3" font-family="Times,serif" font-size="14.00">dra.func_80111D24</text>
</g>
<!-- dra.CheckCollision -->
<g id="node2" class="node">
<title>dra.CheckCollision</title>
<g id="a_node2"><a xlink:href="dra.CheckCollision.svg" xlink:title="dra.CheckCollision">
<ellipse fill="green" stroke="black" cx="113.74" cy="-18" rx="97.48" ry="18"/>
<text text-anchor="middle" x="113.74" y="-14.3" font-family="Times,serif" font-size="14.00">dra.CheckCollision</text>
</a>
</g>
</g>
<!-- dra.func_80111D24&#45;&gt;dra.CheckCollision -->
<g id="edge1" class="edge">
<title>dra.func_80111D24&#45;&gt;dra.CheckCollision</title>
<path fill="none" stroke="black" d="M201.44,-179.93C184.42,-148.7 148.16,-82.17 128.01,-45.18"/>
<polygon fill="black" stroke="black" points="130.87,-43.12 123.01,-36.02 124.73,-46.47 130.87,-43.12"/>
<text text-anchor="middle" x="118.01" y="-39.82" font-family="Times,serif" font-size="14.00">2</text>
</g>
<!-- dra.SetSpeedX -->
<g id="node3" class="node">
<title>dra.SetSpeedX</title>
<g id="a_node3"><a xlink:href="dra.SetSpeedX.svg" xlink:title="dra.SetSpeedX">
<ellipse fill="green" stroke="black" cx="308.74" cy="-18" rx="79.89" ry="18"/>
<text text-anchor="middle" x="308.74" y="-14.3" font-family="Times,serif" font-size="14.00">dra.SetSpeedX</text>
</a>
</g>
</g>
<!-- dra.func_80111D24&#45;&gt;dra.SetSpeedX -->
<g id="edge2" class="edge">
<title>dra.func_80111D24&#45;&gt;dra.SetSpeedX</title>
<path fill="none" stroke="black" d="M220.14,-179.93C237.33,-148.7 273.96,-82.17 294.33,-45.18"/>
<polygon fill="black" stroke="black" points="297.62,-46.46 299.37,-36.02 291.48,-43.09 297.62,-46.46"/>
<text text-anchor="middle" x="294.37" y="-39.82" font-family="Times,serif" font-size="14.00">1</text>
</g>
<!-- dra.func_801182F8 -->
<g id="node4" class="node">
<title>dra.func_801182F8</title>
<g id="a_node4"><a xlink:href="dra.func_801182F8.svg" xlink:title="dra.func_801182F8">
<ellipse fill="red" stroke="black" cx="100.74" cy="-378" rx="100.98" ry="18"/>
<text text-anchor="middle" x="100.74" y="-374.3" font-family="Times,serif" font-size="14.00">dra.func_801182F8</text>
</a>
</g>
</g>
<!-- dra.func_801182F8&#45;&gt;dra.func_80111D24 -->
<g id="edge3" class="edge">
<title>dra.func_801182F8&#45;&gt;dra.func_80111D24</title>
<path fill="none" stroke="black" d="M111.29,-359.93C130.67,-328.57 172.05,-261.6 194.85,-224.71"/>
<polygon fill="black" stroke="black" points="197.95,-226.36 200.23,-216.02 191.99,-222.68 197.95,-226.36"/>
<text text-anchor="middle" x="106.29" y="-348.73" font-family="Times,serif" font-size="14.00">1</text>
</g>
<!-- dra.func_8011203C -->
<g id="node5" class="node">
<title>dra.func_8011203C</title>
<g id="a_node5"><a xlink:href="dra.func_8011203C.svg" xlink:title="dra.func_8011203C">
<ellipse fill="green" stroke="black" cx="320.74" cy="-378" rx="101.28" ry="18"/>
<text text-anchor="middle" x="320.74" y="-374.3" font-family="Times,serif" font-size="14.00">dra.func_8011203C</text>
</a>
</g>
</g>
<!-- dra.func_8011203C&#45;&gt;dra.func_80111D24 -->
<g id="edge4" class="edge">
<title>dra.func_8011203C&#45;&gt;dra.func_80111D24</title>
<path fill="none" stroke="black" d="M310.19,-359.93C290.81,-328.57 249.43,-261.6 226.63,-224.71"/>
<polygon fill="black" stroke="black" points="229.49,-222.68 221.26,-216.02 223.54,-226.36 229.49,-222.68"/>
<text text-anchor="middle" x="305.19" y="-348.73" font-family="Times,serif" font-size="14.00">1</text>
</g>
</g>
</svg>
