<?xml version="1.0" encoding="UTF-8" standalone="no"?>
<!DOCTYPE svg PUBLIC "-//W3C//DTD SVG 1.1//EN"
 "http://www.w3.org/Graphics/SVG/1.1/DTD/svg11.dtd">
<!-- Generated by graphviz version 2.43.0 (0)
 -->
<!-- Title: dra.func_800FF494 Pages: 1 -->
<svg width="1455pt" height="218pt"
 viewBox="0.00 0.00 1454.93 218.00" xmlns="http://www.w3.org/2000/svg" xmlns:xlink="http://www.w3.org/1999/xlink">
<g id="graph0" class="graph" transform="scale(1 1) rotate(0) translate(4 214)">
<title>dra.func_800FF494</title>
<polygon fill="white" stroke="transparent" points="-4,4 -4,-214 1450.93,-214 1450.93,4 -4,4"/>
<!-- dra.func_800FF494 -->
<g id="node1" class="node">
<title>dra.func_800FF494</title>
<ellipse fill="green" stroke="black" cx="725.74" cy="-105" rx="101.28" ry="18"/>
<text text-anchor="middle" x="725.74" y="-101.3" font-family="Times,serif" font-size="14.00">dra.func_800FF494</text>
</g>
<!-- dra.CheckEquipmentItemCount -->
<g id="node2" class="node">
<title>dra.CheckEquipmentItemCount</title>
<g id="a_node2"><a xlink:href="dra.CheckEquipmentItemCount.svg" xlink:title="dra.CheckEquipmentItemCount">
<ellipse fill="green" stroke="black" cx="621.74" cy="-18" rx="157.87" ry="18"/>
<text text-anchor="middle" x="621.74" y="-14.3" font-family="Times,serif" font-size="14.00">dra.CheckEquipmentItemCount</text>
</a>
</g>
</g>
<!-- dra.func_800FF494&#45;&gt;dra.CheckEquipmentItemCount -->
<g id="edge1" class="edge">
<title>dra.func_800FF494&#45;&gt;dra.CheckEquipmentItemCount</title>
<path fill="none" stroke="black" d="M705.19,-87.21C689.63,-74.48 668.04,-56.84 650.72,-42.68"/>
<polygon fill="black" stroke="black" points="652.56,-39.67 642.6,-36.05 648.13,-45.09 652.56,-39.67"/>
<text text-anchor="middle" x="685.74" y="-57.8" font-family="Times,serif" font-size="14.00">1</text>
</g>
<!-- rand -->
<g id="node3" class="node">
<title>rand</title>
<g id="a_node3"><a xlink:href="rand.svg" xlink:title="rand">
<ellipse fill="lightblue" stroke="black" cx="829.74" cy="-18" rx="32.49" ry="18"/>
<text text-anchor="middle" x="829.74" y="-14.3" font-family="Times,serif" font-size="14.00">rand</text>
</a>
</g>
</g>
<!-- dra.func_800FF494&#45;&gt;rand -->
<g id="edge2" class="edge">
<title>dra.func_800FF494&#45;&gt;rand</title>
<path fill="none" stroke="black" d="M746.29,-87.21C763.02,-73.53 786.72,-54.16 804.59,-39.56"/>
<polygon fill="black" stroke="black" points="806.81,-42.26 812.34,-33.22 802.39,-36.84 806.81,-42.26"/>
<text text-anchor="middle" x="789.74" y="-57.8" font-family="Times,serif" font-size="14.00">4</text>
</g>
<!-- rwrp.TestCollisions -->
<g id="node4" class="node">
<title>rwrp.TestCollisions</title>
<g id="a_node4"><a xlink:href="rwrp.TestCollisions.svg" xlink:title="rwrp.TestCollisions">
<ellipse fill="red" stroke="black" cx="100.74" cy="-192" rx="100.98" ry="18"/>
<text text-anchor="middle" x="100.74" y="-188.3" font-family="Times,serif" font-size="14.00">rwrp.TestCollisions</text>
</a>
</g>
</g>
<!-- rwrp.TestCollisions&#45;&gt;dra.func_800FF494 -->
<g id="edge3" class="edge">
<title>rwrp.TestCollisions&#45;&gt;dra.func_800FF494</title>
<path fill="none" stroke="black" d="M173.12,-179.47C185.33,-177.59 197.89,-175.7 209.74,-174 358.62,-152.58 532.05,-130.27 635.16,-117.28"/>
<polygon fill="black" stroke="black" points="635.74,-120.73 645.22,-116.01 634.86,-113.79 635.74,-120.73"/>
<text text-anchor="middle" x="455.74" y="-144.8" font-family="Times,serif" font-size="14.00">1</text>
</g>
<!-- dre.TestCollisions -->
<g id="node5" class="node">
<title>dre.TestCollisions</title>
<g id="a_node5"><a xlink:href="dre.TestCollisions.svg" xlink:title="dre.TestCollisions">
<ellipse fill="red" stroke="black" cx="312.74" cy="-192" rx="93.68" ry="18"/>
<text text-anchor="middle" x="312.74" y="-188.3" font-family="Times,serif" font-size="14.00">dre.TestCollisions</text>
</a>
</g>
</g>
<!-- dre.TestCollisions&#45;&gt;dra.func_800FF494 -->
<g id="edge4" class="edge">
<title>dre.TestCollisions&#45;&gt;dra.func_800FF494</title>
<path fill="none" stroke="black" d="M374.13,-178.37C448.36,-163.09 573.19,-137.4 652.42,-121.09"/>
<polygon fill="black" stroke="black" points="653.23,-124.5 662.32,-119.05 651.82,-117.64 653.23,-124.5"/>
<text text-anchor="middle" x="549.74" y="-144.8" font-family="Times,serif" font-size="14.00">1</text>
</g>
<!-- cen.TestCollisions -->
<g id="node6" class="node">
<title>cen.TestCollisions</title>
<g id="a_node6"><a xlink:href="cen.TestCollisions.svg" xlink:title="cen.TestCollisions">
<ellipse fill="red" stroke="black" cx="518.74" cy="-192" rx="94.48" ry="18"/>
<text text-anchor="middle" x="518.74" y="-188.3" font-family="Times,serif" font-size="14.00">cen.TestCollisions</text>
</a>
</g>
</g>
<!-- cen.TestCollisions&#45;&gt;dra.func_800FF494 -->
<g id="edge5" class="edge">
<title>cen.TestCollisions&#45;&gt;dra.func_800FF494</title>
<path fill="none" stroke="black" d="M556.71,-175.41C590.78,-161.42 640.95,-140.82 677.78,-125.69"/>
<polygon fill="black" stroke="black" points="679.39,-128.82 687.31,-121.78 676.73,-122.34 679.39,-128.82"/>
<text text-anchor="middle" x="639.74" y="-144.8" font-family="Times,serif" font-size="14.00">1</text>
</g>
<!-- no3.TestCollisions -->
<g id="node7" class="node">
<title>no3.TestCollisions</title>
<g id="a_node7"><a xlink:href="no3.TestCollisions.svg" xlink:title="no3.TestCollisions">
<ellipse fill="red" stroke="black" cx="725.74" cy="-192" rx="94.78" ry="18"/>
<text text-anchor="middle" x="725.74" y="-188.3" font-family="Times,serif" font-size="14.00">no3.TestCollisions</text>
</a>
</g>
</g>
<!-- no3.TestCollisions&#45;&gt;dra.func_800FF494 -->
<g id="edge6" class="edge">
<title>no3.TestCollisions&#45;&gt;dra.func_800FF494</title>
<path fill="none" stroke="black" d="M725.74,-173.8C725.74,-162.16 725.74,-146.55 725.74,-133.24"/>
<polygon fill="black" stroke="black" points="729.24,-133.18 725.74,-123.18 722.24,-133.18 729.24,-133.18"/>
<text text-anchor="middle" x="730.74" y="-144.8" font-family="Times,serif" font-size="14.00">1</text>
</g>
<!-- np3.TestCollisions -->
<g id="node8" class="node">
<title>np3.TestCollisions</title>
<g id="a_node8"><a xlink:href="np3.TestCollisions.svg" xlink:title="np3.TestCollisions">
<ellipse fill="red" stroke="black" cx="933.74" cy="-192" rx="95.58" ry="18"/>
<text text-anchor="middle" x="933.74" y="-188.3" font-family="Times,serif" font-size="14.00">np3.TestCollisions</text>
</a>
</g>
</g>
<!-- np3.TestCollisions&#45;&gt;dra.func_800FF494 -->
<g id="edge7" class="edge">
<title>np3.TestCollisions&#45;&gt;dra.func_800FF494</title>
<path fill="none" stroke="black" d="M895.59,-175.41C861.35,-161.42 810.95,-140.82 773.93,-125.69"/>
<polygon fill="black" stroke="black" points="774.93,-122.32 764.35,-121.78 772.29,-128.8 774.93,-122.32"/>
<text text-anchor="middle" x="847.74" y="-144.8" font-family="Times,serif" font-size="14.00">1</text>
</g>
<!-- nz0.TestCollisions -->
<g id="node9" class="node">
<title>nz0.TestCollisions</title>
<g id="a_node9"><a xlink:href="nz0.TestCollisions.svg" xlink:title="nz0.TestCollisions">
<ellipse fill="red" stroke="black" cx="1141.74" cy="-192" rx="94.78" ry="18"/>
<text text-anchor="middle" x="1141.74" y="-188.3" font-family="Times,serif" font-size="14.00">nz0.TestCollisions</text>
</a>
</g>
</g>
<!-- nz0.TestCollisions&#45;&gt;dra.func_800FF494 -->
<g id="edge8" class="edge">
<title>nz0.TestCollisions&#45;&gt;dra.func_800FF494</title>
<path fill="none" stroke="black" d="M1079.46,-178.27C1004.58,-162.97 879.06,-137.33 799.43,-121.06"/>
<polygon fill="black" stroke="black" points="799.97,-117.59 789.47,-119.02 798.57,-124.45 799.97,-117.59"/>
<text text-anchor="middle" x="963.74" y="-144.8" font-family="Times,serif" font-size="14.00">1</text>
</g>
<!-- wrp.TestCollisions -->
<g id="node10" class="node">
<title>wrp.TestCollisions</title>
<g id="a_node10"><a xlink:href="wrp.TestCollisions.svg" xlink:title="wrp.TestCollisions">
<ellipse fill="red" stroke="black" cx="1350.74" cy="-192" rx="96.38" ry="18"/>
<text text-anchor="middle" x="1350.74" y="-188.3" font-family="Times,serif" font-size="14.00">wrp.TestCollisions</text>
</a>
</g>
</g>
<!-- wrp.TestCollisions&#45;&gt;dra.func_800FF494 -->
<g id="edge9" class="edge">
<title>wrp.TestCollisions&#45;&gt;dra.func_800FF494</title>
<path fill="none" stroke="black" d="M1281.32,-179.45C1269.46,-177.57 1257.25,-175.68 1245.74,-174 1095.78,-152.06 920.99,-129.9 817.05,-117.09"/>
<polygon fill="black" stroke="black" points="817.26,-113.59 806.91,-115.84 816.41,-120.53 817.26,-113.59"/>
<text text-anchor="middle" x="1122.74" y="-144.8" font-family="Times,serif" font-size="14.00">1</text>
</g>
</g>
</svg>
