<?xml version="1.0" encoding="UTF-8" standalone="no"?>
<!DOCTYPE svg PUBLIC "-//W3C//DTD SVG 1.1//EN"
 "http://www.w3.org/Graphics/SVG/1.1/DTD/svg11.dtd">
<!-- Generated by graphviz version 2.43.0 (0)
 -->
<!-- Title: dra.func_801186EC Pages: 1 -->
<svg width="434pt" height="404pt"
 viewBox="0.00 0.00 434.08 404.00" xmlns="http://www.w3.org/2000/svg" xmlns:xlink="http://www.w3.org/1999/xlink">
<g id="graph0" class="graph" transform="scale(1 1) rotate(0) translate(4 400)">
<title>dra.func_801186EC</title>
<polygon fill="white" stroke="transparent" points="-4,4 -4,-400 430.08,-400 430.08,4 -4,4"/>
<!-- dra.func_801186EC -->
<g id="node1" class="node">
<title>dra.func_801186EC</title>
<ellipse fill="green" stroke="black" cx="213.69" cy="-198" rx="102.88" ry="18"/>
<text text-anchor="middle" x="213.69" y="-194.3" font-family="Times,serif" font-size="14.00">dra.func_801186EC</text>
</g>
<!-- dra.func_8011AAFC -->
<g id="node2" class="node">
<title>dra.func_8011AAFC</title>
<g id="a_node2"><a xlink:href="dra.func_8011AAFC.svg" xlink:title="dra.func_8011AAFC">
<ellipse fill="green" stroke="black" cx="102.69" cy="-18" rx="102.88" ry="18"/>
<text text-anchor="middle" x="102.69" y="-14.3" font-family="Times,serif" font-size="14.00">dra.func_8011AAFC</text>
</a>
</g>
</g>
<!-- dra.func_801186EC&#45;&gt;dra.func_8011AAFC -->
<g id="edge1" class="edge">
<title>dra.func_801186EC&#45;&gt;dra.func_8011AAFC</title>
<path fill="none" stroke="black" d="M203.05,-179.93C183.49,-148.57 141.73,-81.6 118.72,-44.71"/>
<polygon fill="black" stroke="black" points="121.56,-42.65 113.3,-36.02 115.62,-46.35 121.56,-42.65"/>
<text text-anchor="middle" x="108.3" y="-39.82" font-family="Times,serif" font-size="14.00">1</text>
</g>
<!-- dra.func_8010E570 -->
<g id="node3" class="node">
<title>dra.func_8010E570</title>
<g id="a_node3"><a xlink:href="dra.func_8010E570.svg" xlink:title="dra.func_8010E570">
<ellipse fill="red" stroke="black" cx="324.69" cy="-18" rx="101.28" ry="18"/>
<text text-anchor="middle" x="324.69" y="-14.3" font-family="Times,serif" font-size="14.00">dra.func_8010E570</text>
</a>
</g>
</g>
<!-- dra.func_801186EC&#45;&gt;dra.func_8010E570 -->
<g id="edge2" class="edge">
<title>dra.func_801186EC&#45;&gt;dra.func_8010E570</title>
<path fill="none" stroke="black" d="M224.33,-179.93C243.89,-148.57 285.65,-81.6 308.66,-44.71"/>
<polygon fill="black" stroke="black" points="311.76,-46.35 314.08,-36.02 305.82,-42.65 311.76,-46.35"/>
<text text-anchor="middle" x="309.08" y="-39.82" font-family="Times,serif" font-size="14.00">1</text>
</g>
<!-- dra.EntityAlucard -->
<g id="node4" class="node">
<title>dra.EntityAlucard</title>
<g id="a_node4"><a xlink:href="dra.EntityAlucard.svg" xlink:title="dra.EntityAlucard">
<ellipse fill="red" stroke="black" cx="213.69" cy="-378" rx="93.68" ry="18"/>
<text text-anchor="middle" x="213.69" y="-374.3" font-family="Times,serif" font-size="14.00">dra.EntityAlucard</text>
</a>
</g>
</g>
<!-- dra.EntityAlucard&#45;&gt;dra.func_801186EC -->
<g id="edge3" class="edge">
<title>dra.EntityAlucard&#45;&gt;dra.func_801186EC</title>
<path fill="none" stroke="black" d="M213.69,-359.93C213.69,-328.97 213.69,-263.3 213.69,-226.13"/>
<polygon fill="black" stroke="black" points="217.19,-226.02 213.69,-216.02 210.19,-226.02 217.19,-226.02"/>
<text text-anchor="middle" x="208.69" y="-348.73" font-family="Times,serif" font-size="14.00">1</text>
</g>
</g>
</svg>
