<?xml version="1.0" encoding="UTF-8" standalone="no"?>
<!DOCTYPE svg PUBLIC "-//W3C//DTD SVG 1.1//EN"
 "http://www.w3.org/Graphics/SVG/1.1/DTD/svg11.dtd">
<!-- Generated by graphviz version 2.43.0 (0)
 -->
<!-- Title: dra.func_800E8EE4 Pages: 1 -->
<svg width="737pt" height="404pt"
 viewBox="0.00 0.00 736.59 404.00" xmlns="http://www.w3.org/2000/svg" xmlns:xlink="http://www.w3.org/1999/xlink">
<g id="graph0" class="graph" transform="scale(1 1) rotate(0) translate(4 400)">
<title>dra.func_800E8EE4</title>
<polygon fill="white" stroke="transparent" points="-4,4 -4,-400 732.59,-400 732.59,4 -4,4"/>
<!-- dra.func_800E8EE4 -->
<g id="node1" class="node">
<title>dra.func_800E8EE4</title>
<ellipse fill="green" stroke="black" cx="375.19" cy="-198" rx="103.18" ry="18"/>
<text text-anchor="middle" x="375.19" y="-194.3" font-family="Times,serif" font-size="14.00">dra.func_800E8EE4</text>
</g>
<!-- EnableEvent -->
<g id="node2" class="node">
<title>EnableEvent</title>
<g id="a_node2"><a xlink:href="EnableEvent.svg" xlink:title="EnableEvent">
<ellipse fill="lightblue" stroke="black" cx="70.19" cy="-18" rx="70.39" ry="18"/>
<text text-anchor="middle" x="70.19" y="-14.3" font-family="Times,serif" font-size="14.00">EnableEvent</text>
</a>
</g>
</g>
<!-- dra.func_800E8EE4&#45;&gt;EnableEvent -->
<g id="edge1" class="edge">
<title>dra.func_800E8EE4&#45;&gt;EnableEvent</title>
<path fill="none" stroke="black" d="M347.05,-180.57C291.5,-148.16 167.84,-75.99 106.36,-40.1"/>
<polygon fill="black" stroke="black" points="107.8,-36.89 97.39,-34.87 104.27,-42.94 107.8,-36.89"/>
<text text-anchor="middle" x="92.39" y="-38.67" font-family="Times,serif" font-size="14.00">8</text>
</g>
<!-- EnterCriticalSection -->
<g id="node3" class="node">
<title>EnterCriticalSection</title>
<g id="a_node3"><a xlink:href="EnterCriticalSection.svg" xlink:title="EnterCriticalSection">
<ellipse fill="lightblue" stroke="black" cx="264.19" cy="-18" rx="105.88" ry="18"/>
<text text-anchor="middle" x="264.19" y="-14.3" font-family="Times,serif" font-size="14.00">EnterCriticalSection</text>
</a>
</g>
</g>
<!-- dra.func_800E8EE4&#45;&gt;EnterCriticalSection -->
<g id="edge2" class="edge">
<title>dra.func_800E8EE4&#45;&gt;EnterCriticalSection</title>
<path fill="none" stroke="black" d="M364.55,-179.93C344.99,-148.57 303.23,-81.6 280.23,-44.71"/>
<polygon fill="black" stroke="black" points="283.07,-42.65 274.8,-36.02 277.13,-46.35 283.07,-42.65"/>
<text text-anchor="middle" x="269.8" y="-39.82" font-family="Times,serif" font-size="14.00">1</text>
</g>
<!-- ExitCriticalSection -->
<g id="node4" class="node">
<title>ExitCriticalSection</title>
<g id="a_node4"><a xlink:href="ExitCriticalSection.svg" xlink:title="ExitCriticalSection">
<ellipse fill="lightblue" stroke="black" cx="487.19" cy="-18" rx="98.58" ry="18"/>
<text text-anchor="middle" x="487.19" y="-14.3" font-family="Times,serif" font-size="14.00">ExitCriticalSection</text>
</a>
</g>
</g>
<!-- dra.func_800E8EE4&#45;&gt;ExitCriticalSection -->
<g id="edge3" class="edge">
<title>dra.func_800E8EE4&#45;&gt;ExitCriticalSection</title>
<path fill="none" stroke="black" d="M385.93,-179.93C405.67,-148.57 447.8,-81.6 471.02,-44.71"/>
<polygon fill="black" stroke="black" points="474.12,-46.34 476.49,-36.02 468.2,-42.62 474.12,-46.34"/>
<text text-anchor="middle" x="471.49" y="-39.82" font-family="Times,serif" font-size="14.00">1</text>
</g>
<!-- OpenEvent -->
<g id="node5" class="node">
<title>OpenEvent</title>
<g id="a_node5"><a xlink:href="OpenEvent.svg" xlink:title="OpenEvent">
<ellipse fill="lightblue" stroke="black" cx="666.19" cy="-18" rx="62.29" ry="18"/>
<text text-anchor="middle" x="666.19" y="-14.3" font-family="Times,serif" font-size="14.00">OpenEvent</text>
</a>
</g>
</g>
<!-- dra.func_800E8EE4&#45;&gt;OpenEvent -->
<g id="edge4" class="edge">
<title>dra.func_800E8EE4&#45;&gt;OpenEvent</title>
<path fill="none" stroke="black" d="M402.05,-180.57C455.07,-148.14 573.14,-75.92 631.77,-40.05"/>
<polygon fill="black" stroke="black" points="633.95,-42.82 640.66,-34.62 630.3,-36.85 633.95,-42.82"/>
<text text-anchor="middle" x="635.66" y="-38.42" font-family="Times,serif" font-size="14.00">8</text>
</g>
<!-- dra.entrypoint_sotn -->
<g id="node6" class="node">
<title>dra.entrypoint_sotn</title>
<g id="a_node6"><a xlink:href="dra.entrypoint_sotn.svg" xlink:title="dra.entrypoint_sotn">
<ellipse fill="green" stroke="black" cx="375.19" cy="-378" rx="102.88" ry="18"/>
<text text-anchor="middle" x="375.19" y="-374.3" font-family="Times,serif" font-size="14.00">dra.entrypoint_sotn</text>
</a>
</g>
</g>
<!-- dra.entrypoint_sotn&#45;&gt;dra.func_800E8EE4 -->
<g id="edge5" class="edge">
<title>dra.entrypoint_sotn&#45;&gt;dra.func_800E8EE4</title>
<path fill="none" stroke="black" d="M375.19,-359.93C375.19,-328.97 375.19,-263.3 375.19,-226.13"/>
<polygon fill="black" stroke="black" points="378.69,-226.02 375.19,-216.02 371.69,-226.02 378.69,-226.02"/>
<text text-anchor="middle" x="370.19" y="-348.73" font-family="Times,serif" font-size="14.00">1</text>
</g>
</g>
</svg>
