<?xml version="1.0" encoding="UTF-8" standalone="no"?>
<!DOCTYPE svg PUBLIC "-//W3C//DTD SVG 1.1//EN"
 "http://www.w3.org/Graphics/SVG/1.1/DTD/svg11.dtd">
<!-- Generated by graphviz version 2.43.0 (0)
 -->
<!-- Title: dra.EntityHitByIce Pages: 1 -->
<svg width="1072pt" height="131pt"
 viewBox="0.00 0.00 1072.04 131.00" xmlns="http://www.w3.org/2000/svg" xmlns:xlink="http://www.w3.org/1999/xlink">
<g id="graph0" class="graph" transform="scale(1 1) rotate(0) translate(4 127)">
<title>dra.EntityHitByIce</title>
<polygon fill="white" stroke="transparent" points="-4,4 -4,-127 1068.04,-127 1068.04,4 -4,4"/>
<!-- dra.EntityHitByIce -->
<g id="node1" class="node">
<title>dra.EntityHitByIce</title>
<ellipse fill="red" stroke="black" cx="636.44" cy="-105" rx="98.58" ry="18"/>
<text text-anchor="middle" x="636.44" y="-101.3" font-family="Times,serif" font-size="14.00">dra.EntityHitByIce</text>
</g>
<!-- dra.AllocPrimitives -->
<g id="node2" class="node">
<title>dra.AllocPrimitives</title>
<g id="a_node2"><a xlink:href="dra.AllocPrimitives.svg" xlink:title="dra.AllocPrimitives">
<ellipse fill="green" stroke="black" cx="99.44" cy="-18" rx="99.38" ry="18"/>
<text text-anchor="middle" x="99.44" y="-14.3" font-family="Times,serif" font-size="14.00">dra.AllocPrimitives</text>
</a>
</g>
</g>
<!-- dra.EntityHitByIce&#45;&gt;dra.AllocPrimitives -->
<g id="edge1" class="edge">
<title>dra.EntityHitByIce&#45;&gt;dra.AllocPrimitives</title>
<path fill="none" stroke="black" d="M552.96,-95.32C496.25,-89.03 419.64,-79.77 352.44,-69 290.58,-59.09 220.76,-45.08 170.16,-34.4"/>
<polygon fill="black" stroke="black" points="170.82,-30.97 160.31,-32.32 169.37,-37.81 170.82,-30.97"/>
<text text-anchor="middle" x="357.44" y="-57.8" font-family="Times,serif" font-size="14.00">1</text>
</g>
<!-- rand -->
<g id="node3" class="node">
<title>rand</title>
<g id="a_node3"><a xlink:href="rand.svg" xlink:title="rand">
<ellipse fill="lightblue" stroke="black" cx="249.44" cy="-18" rx="32.49" ry="18"/>
<text text-anchor="middle" x="249.44" y="-14.3" font-family="Times,serif" font-size="14.00">rand</text>
</a>
</g>
</g>
<!-- dra.EntityHitByIce&#45;&gt;rand -->
<g id="edge2" class="edge">
<title>dra.EntityHitByIce&#45;&gt;rand</title>
<path fill="none" stroke="black" d="M560.74,-93.32C490.16,-82.37 382.42,-63.11 291.44,-36 288.85,-35.23 286.19,-34.35 283.53,-33.42"/>
<polygon fill="black" stroke="black" points="284.63,-30.09 274.04,-29.86 282.17,-36.65 284.63,-30.09"/>
<text text-anchor="middle" x="428.44" y="-57.8" font-family="Times,serif" font-size="14.00">5</text>
</g>
<!-- dra.PlaySfx -->
<g id="node4" class="node">
<title>dra.PlaySfx</title>
<g id="a_node4"><a xlink:href="dra.PlaySfx.svg" xlink:title="dra.PlaySfx">
<ellipse fill="green" stroke="black" cx="364.44" cy="-18" rx="64.19" ry="18"/>
<text text-anchor="middle" x="364.44" y="-14.3" font-family="Times,serif" font-size="14.00">dra.PlaySfx</text>
</a>
</g>
</g>
<!-- dra.EntityHitByIce&#45;&gt;dra.PlaySfx -->
<g id="edge3" class="edge">
<title>dra.EntityHitByIce&#45;&gt;dra.PlaySfx</title>
<path fill="none" stroke="black" d="M589.06,-89.19C540.55,-74.03 465.38,-50.54 415.55,-34.97"/>
<polygon fill="black" stroke="black" points="416.53,-31.61 405.94,-31.97 414.44,-38.29 416.53,-31.61"/>
<text text-anchor="middle" x="522.44" y="-57.8" font-family="Times,serif" font-size="14.00">1</text>
</g>
<!-- dra.DestroyEntity -->
<g id="node5" class="node">
<title>dra.DestroyEntity</title>
<g id="a_node5"><a xlink:href="dra.DestroyEntity.svg" xlink:title="dra.DestroyEntity">
<ellipse fill="green" stroke="black" cx="541.44" cy="-18" rx="94.78" ry="18"/>
<text text-anchor="middle" x="541.44" y="-14.3" font-family="Times,serif" font-size="14.00">dra.DestroyEntity</text>
</a>
</g>
</g>
<!-- dra.EntityHitByIce&#45;&gt;dra.DestroyEntity -->
<g id="edge4" class="edge">
<title>dra.EntityHitByIce&#45;&gt;dra.DestroyEntity</title>
<path fill="none" stroke="black" d="M617.67,-87.21C603.49,-74.52 583.83,-56.93 568.03,-42.79"/>
<polygon fill="black" stroke="black" points="569.96,-39.82 560.17,-35.76 565.29,-45.03 569.96,-39.82"/>
<text text-anchor="middle" x="600.44" y="-57.8" font-family="Times,serif" font-size="14.00">1</text>
</g>
<!-- SquareRoot12 -->
<g id="node6" class="node">
<title>SquareRoot12</title>
<g id="a_node6"><a xlink:href="SquareRoot12.svg" xlink:title="SquareRoot12">
<ellipse fill="lightblue" stroke="black" cx="731.44" cy="-18" rx="77.19" ry="18"/>
<text text-anchor="middle" x="731.44" y="-14.3" font-family="Times,serif" font-size="14.00">SquareRoot12</text>
</a>
</g>
</g>
<!-- dra.EntityHitByIce&#45;&gt;SquareRoot12 -->
<g id="edge5" class="edge">
<title>dra.EntityHitByIce&#45;&gt;SquareRoot12</title>
<path fill="none" stroke="black" d="M655.21,-87.21C669.39,-74.52 689.05,-56.93 704.85,-42.79"/>
<polygon fill="black" stroke="black" points="707.59,-45.03 712.71,-35.76 702.92,-39.82 707.59,-45.03"/>
<text text-anchor="middle" x="695.44" y="-57.8" font-family="Times,serif" font-size="14.00">3</text>
</g>
<!-- ratan2 -->
<g id="node7" class="node">
<title>ratan2</title>
<g id="a_node7"><a xlink:href="ratan2.svg" xlink:title="ratan2">
<ellipse fill="lightblue" stroke="black" cx="868.44" cy="-18" rx="41.69" ry="18"/>
<text text-anchor="middle" x="868.44" y="-14.3" font-family="Times,serif" font-size="14.00">ratan2</text>
</a>
</g>
</g>
<!-- dra.EntityHitByIce&#45;&gt;ratan2 -->
<g id="edge6" class="edge">
<title>dra.EntityHitByIce&#45;&gt;ratan2</title>
<path fill="none" stroke="black" d="M678.45,-88.61C721.01,-73.02 786.36,-49.07 828.24,-33.73"/>
<polygon fill="black" stroke="black" points="829.66,-36.94 837.84,-30.21 827.25,-30.36 829.66,-36.94"/>
<text text-anchor="middle" x="771.44" y="-57.8" font-family="Times,serif" font-size="14.00">3</text>
</g>
<!-- rcos -->
<g id="node8" class="node">
<title>rcos</title>
<g id="a_node8"><a xlink:href="rcos.svg" xlink:title="rcos">
<ellipse fill="lightblue" stroke="black" cx="958.44" cy="-18" rx="30.59" ry="18"/>
<text text-anchor="middle" x="958.44" y="-14.3" font-family="Times,serif" font-size="14.00">rcos</text>
</a>
</g>
</g>
<!-- dra.EntityHitByIce&#45;&gt;rcos -->
<g id="edge7" class="edge">
<title>dra.EntityHitByIce&#45;&gt;rcos</title>
<path fill="none" stroke="black" d="M702.55,-91.54C760.5,-79.81 846.62,-60.41 919.44,-36 921.55,-35.29 923.7,-34.52 925.85,-33.7"/>
<polygon fill="black" stroke="black" points="927.23,-36.92 935.19,-29.93 924.61,-30.43 927.23,-36.92"/>
<text text-anchor="middle" x="864.44" y="-57.8" font-family="Times,serif" font-size="14.00">3</text>
</g>
<!-- rsin -->
<g id="node9" class="node">
<title>rsin</title>
<g id="a_node9"><a xlink:href="rsin.svg" xlink:title="rsin">
<ellipse fill="lightblue" stroke="black" cx="1035.44" cy="-18" rx="28.7" ry="18"/>
<text text-anchor="middle" x="1035.44" y="-14.3" font-family="Times,serif" font-size="14.00">rsin</text>
</a>
</g>
</g>
<!-- dra.EntityHitByIce&#45;&gt;rsin -->
<g id="edge8" class="edge">
<title>dra.EntityHitByIce&#45;&gt;rsin</title>
<path fill="none" stroke="black" d="M721.46,-95.74C796.12,-86.7 906.8,-68.87 998.44,-36 1000.29,-35.34 1002.17,-34.62 1004.05,-33.86"/>
<polygon fill="black" stroke="black" points="1005.57,-37.02 1013.39,-29.88 1002.82,-30.58 1005.57,-37.02"/>
<text text-anchor="middle" x="946.44" y="-57.8" font-family="Times,serif" font-size="14.00">3</text>
</g>
</g>
</svg>
