<?xml version="1.0" encoding="UTF-8" standalone="no"?>
<!DOCTYPE svg PUBLIC "-//W3C//DTD SVG 1.1//EN"
 "http://www.w3.org/Graphics/SVG/1.1/DTD/svg11.dtd">
<!-- Generated by graphviz version 2.43.0 (0)
 -->
<!-- Title: dra.func_800E8DF0 Pages: 1 -->
<svg width="370pt" height="404pt"
 viewBox="0.00 0.00 370.23 404.00" xmlns="http://www.w3.org/2000/svg" xmlns:xlink="http://www.w3.org/1999/xlink">
<g id="graph0" class="graph" transform="scale(1 1) rotate(0) translate(4 400)">
<title>dra.func_800E8DF0</title>
<polygon fill="white" stroke="transparent" points="-4,4 -4,-400 366.23,-400 366.23,4 -4,4"/>
<!-- dra.func_800E8DF0 -->
<g id="node1" class="node">
<title>dra.func_800E8DF0</title>
<ellipse fill="green" stroke="black" cx="197.69" cy="-198" rx="103.18" ry="18"/>
<text text-anchor="middle" x="197.69" y="-194.3" font-family="Times,serif" font-size="14.00">dra.func_800E8DF0</text>
</g>
<!-- dra.func_800E8D24 -->
<g id="node2" class="node">
<title>dra.func_800E8D24</title>
<g id="a_node2"><a xlink:href="dra.func_800E8D24.svg" xlink:title="dra.func_800E8D24">
<ellipse fill="green" stroke="black" cx="102.69" cy="-18" rx="102.88" ry="18"/>
<text text-anchor="middle" x="102.69" y="-14.3" font-family="Times,serif" font-size="14.00">dra.func_800E8D24</text>
</a>
</g>
</g>
<!-- dra.func_800E8DF0&#45;&gt;dra.func_800E8D24 -->
<g id="edge1" class="edge">
<title>dra.func_800E8DF0&#45;&gt;dra.func_800E8D24</title>
<path fill="none" stroke="black" d="M188.58,-179.93C171.91,-148.7 136.4,-82.17 116.66,-45.18"/>
<polygon fill="black" stroke="black" points="119.57,-43.19 111.77,-36.02 113.39,-46.49 119.57,-43.19"/>
<text text-anchor="middle" x="106.77" y="-39.82" font-family="Times,serif" font-size="14.00">1</text>
</g>
<!-- main.PadInit -->
<g id="node3" class="node">
<title>main.PadInit</title>
<g id="a_node3"><a xlink:href="main.PadInit.svg" xlink:title="main.PadInit">
<ellipse fill="red" stroke="black" cx="292.69" cy="-18" rx="69.59" ry="18"/>
<text text-anchor="middle" x="292.69" y="-14.3" font-family="Times,serif" font-size="14.00">main.PadInit</text>
</a>
</g>
</g>
<!-- dra.func_800E8DF0&#45;&gt;main.PadInit -->
<g id="edge2" class="edge">
<title>dra.func_800E8DF0&#45;&gt;main.PadInit</title>
<path fill="none" stroke="black" d="M206.8,-179.93C223.47,-148.7 258.98,-82.17 278.72,-45.18"/>
<polygon fill="black" stroke="black" points="281.99,-46.49 283.61,-36.02 275.81,-43.19 281.99,-46.49"/>
<text text-anchor="middle" x="278.61" y="-39.82" font-family="Times,serif" font-size="14.00">1</text>
</g>
<!-- dra.entrypoint_sotn -->
<g id="node4" class="node">
<title>dra.entrypoint_sotn</title>
<g id="a_node4"><a xlink:href="dra.entrypoint_sotn.svg" xlink:title="dra.entrypoint_sotn">
<ellipse fill="green" stroke="black" cx="197.69" cy="-378" rx="102.88" ry="18"/>
<text text-anchor="middle" x="197.69" y="-374.3" font-family="Times,serif" font-size="14.00">dra.entrypoint_sotn</text>
</a>
</g>
</g>
<!-- dra.entrypoint_sotn&#45;&gt;dra.func_800E8DF0 -->
<g id="edge3" class="edge">
<title>dra.entrypoint_sotn&#45;&gt;dra.func_800E8DF0</title>
<path fill="none" stroke="black" d="M197.69,-359.93C197.69,-328.97 197.69,-263.3 197.69,-226.13"/>
<polygon fill="black" stroke="black" points="201.19,-226.02 197.69,-216.02 194.19,-226.02 201.19,-226.02"/>
<text text-anchor="middle" x="192.69" y="-348.73" font-family="Times,serif" font-size="14.00">1</text>
</g>
</g>
</svg>
