<?xml version="1.0" encoding="UTF-8" standalone="no"?>
<!DOCTYPE svg PUBLIC "-//W3C//DTD SVG 1.1//EN"
 "http://www.w3.org/Graphics/SVG/1.1/DTD/svg11.dtd">
<!-- Generated by graphviz version 2.43.0 (0)
 -->
<!-- Title: dra.func_80116B0C Pages: 1 -->
<svg width="3364pt" height="404pt"
 viewBox="0.00 0.00 3364.13 404.00" xmlns="http://www.w3.org/2000/svg" xmlns:xlink="http://www.w3.org/1999/xlink">
<g id="graph0" class="graph" transform="scale(1 1) rotate(0) translate(4 400)">
<title>dra.func_80116B0C</title>
<polygon fill="white" stroke="transparent" points="-4,4 -4,-400 3360.13,-400 3360.13,4 -4,4"/>
<!-- dra.func_80116B0C -->
<g id="node1" class="node">
<title>dra.func_80116B0C</title>
<ellipse fill="red" stroke="black" cx="1593.44" cy="-198" rx="102.88" ry="18"/>
<text text-anchor="middle" x="1593.44" y="-194.3" font-family="Times,serif" font-size="14.00">dra.func_80116B0C</text>
</g>
<!-- dra.CastSpell -->
<g id="node2" class="node">
<title>dra.CastSpell</title>
<g id="a_node2"><a xlink:href="dra.CastSpell.svg" xlink:title="dra.CastSpell">
<ellipse fill="green" stroke="black" cx="73.44" cy="-18" rx="73.39" ry="18"/>
<text text-anchor="middle" x="73.44" y="-14.3" font-family="Times,serif" font-size="14.00">dra.CastSpell</text>
</a>
</g>
</g>
<!-- dra.func_80116B0C&#45;&gt;dra.CastSpell -->
<g id="edge1" class="edge">
<title>dra.func_80116B0C&#45;&gt;dra.CastSpell</title>
<path fill="none" stroke="black" d="M1501.78,-189.71C1273.44,-170.92 661.23,-116.56 155.44,-36 149.22,-35.01 142.76,-33.87 136.32,-32.65"/>
<polygon fill="black" stroke="black" points="136.73,-29.17 126.24,-30.7 135.39,-36.04 136.73,-29.17"/>
<text text-anchor="middle" x="121.24" y="-34.5" font-family="Times,serif" font-size="14.00">2</text>
</g>
<!-- dra.CheckWingSmashInput -->
<g id="node3" class="node">
<title>dra.CheckWingSmashInput</title>
<g id="a_node3"><a xlink:href="dra.CheckWingSmashInput.svg" xlink:title="dra.CheckWingSmashInput">
<ellipse fill="green" stroke="black" cx="302.44" cy="-18" rx="137.58" ry="18"/>
<text text-anchor="middle" x="302.44" y="-14.3" font-family="Times,serif" font-size="14.00">dra.CheckWingSmashInput</text>
</a>
</g>
</g>
<!-- dra.func_80116B0C&#45;&gt;dra.CheckWingSmashInput -->
<g id="edge2" class="edge">
<title>dra.func_80116B0C&#45;&gt;dra.CheckWingSmashInput</title>
<path fill="none" stroke="black" d="M1515.11,-186.2C1291.9,-155.42 652.67,-67.29 403.56,-32.94"/>
<polygon fill="black" stroke="black" points="403.81,-29.44 393.42,-31.54 402.85,-36.38 403.81,-29.44"/>
<text text-anchor="middle" x="388.42" y="-35.34" font-family="Times,serif" font-size="14.00">1</text>
</g>
<!-- dra.IsRelicActive -->
<g id="node4" class="node">
<title>dra.IsRelicActive</title>
<g id="a_node4"><a xlink:href="dra.IsRelicActive.svg" xlink:title="dra.IsRelicActive">
<ellipse fill="green" stroke="black" cx="547.44" cy="-18" rx="89.08" ry="18"/>
<text text-anchor="middle" x="547.44" y="-14.3" font-family="Times,serif" font-size="14.00">dra.IsRelicActive</text>
</a>
</g>
</g>
<!-- dra.func_80116B0C&#45;&gt;dra.IsRelicActive -->
<g id="edge3" class="edge">
<title>dra.func_80116B0C&#45;&gt;dra.IsRelicActive</title>
<path fill="none" stroke="black" d="M1522.08,-184.97C1364.09,-158.31 972.87,-92.2 645.44,-36 638.05,-34.73 630.34,-33.4 622.64,-32.07"/>
<polygon fill="black" stroke="black" points="622.99,-28.58 612.54,-30.33 621.8,-35.48 622.99,-28.58"/>
<text text-anchor="middle" x="607.54" y="-34.13" font-family="Times,serif" font-size="14.00">2</text>
</g>
<!-- dra.LearnSpell -->
<g id="node5" class="node">
<title>dra.LearnSpell</title>
<g id="a_node5"><a xlink:href="dra.LearnSpell.svg" xlink:title="dra.LearnSpell">
<ellipse fill="green" stroke="black" cx="733.44" cy="-18" rx="79.09" ry="18"/>
<text text-anchor="middle" x="733.44" y="-14.3" font-family="Times,serif" font-size="14.00">dra.LearnSpell</text>
</a>
</g>
</g>
<!-- dra.func_80116B0C&#45;&gt;dra.LearnSpell -->
<g id="edge4" class="edge">
<title>dra.func_80116B0C&#45;&gt;dra.LearnSpell</title>
<path fill="none" stroke="black" d="M1529.86,-183.84C1371.68,-151.1 961.61,-66.22 800.16,-32.81"/>
<polygon fill="black" stroke="black" points="800.39,-29.28 789.89,-30.68 798.97,-36.14 800.39,-29.28"/>
<text text-anchor="middle" x="784.89" y="-34.48" font-family="Times,serif" font-size="14.00">1</text>
</g>
<!-- dra.PlaySfx -->
<g id="node6" class="node">
<title>dra.PlaySfx</title>
<g id="a_node6"><a xlink:href="dra.PlaySfx.svg" xlink:title="dra.PlaySfx">
<ellipse fill="green" stroke="black" cx="895.44" cy="-18" rx="64.19" ry="18"/>
<text text-anchor="middle" x="895.44" y="-14.3" font-family="Times,serif" font-size="14.00">dra.PlaySfx</text>
</a>
</g>
</g>
<!-- dra.func_80116B0C&#45;&gt;dra.PlaySfx -->
<g id="edge5" class="edge">
<title>dra.func_80116B0C&#45;&gt;dra.PlaySfx</title>
<path fill="none" stroke="black" d="M1537.8,-182.81C1407.17,-149.5 1082.06,-66.59 951.26,-33.23"/>
<polygon fill="black" stroke="black" points="952,-29.81 941.44,-30.73 950.27,-36.59 952,-29.81"/>
<text text-anchor="middle" x="936.44" y="-34.53" font-family="Times,serif" font-size="14.00">2</text>
</g>
<!-- dra.SetSpeedX -->
<g id="node7" class="node">
<title>dra.SetSpeedX</title>
<g id="a_node7"><a xlink:href="dra.SetSpeedX.svg" xlink:title="dra.SetSpeedX">
<ellipse fill="green" stroke="black" cx="1057.44" cy="-18" rx="79.89" ry="18"/>
<text text-anchor="middle" x="1057.44" y="-14.3" font-family="Times,serif" font-size="14.00">dra.SetSpeedX</text>
</a>
</g>
</g>
<!-- dra.func_80116B0C&#45;&gt;dra.SetSpeedX -->
<g id="edge6" class="edge">
<title>dra.func_80116B0C&#45;&gt;dra.SetSpeedX</title>
<path fill="none" stroke="black" d="M1547.74,-181.82C1448.79,-148.96 1215.15,-71.37 1110.15,-36.5"/>
<polygon fill="black" stroke="black" points="1111,-33.1 1100.4,-33.27 1108.79,-39.74 1111,-33.1"/>
<text text-anchor="middle" x="1095.4" y="-37.07" font-family="Times,serif" font-size="14.00">2</text>
</g>
<!-- dra.func_80102CD8 -->
<g id="node8" class="node">
<title>dra.func_80102CD8</title>
<g id="a_node8"><a xlink:href="dra.func_80102CD8.svg" xlink:title="dra.func_80102CD8">
<ellipse fill="green" stroke="black" cx="1258.44" cy="-18" rx="102.88" ry="18"/>
<text text-anchor="middle" x="1258.44" y="-14.3" font-family="Times,serif" font-size="14.00">dra.func_80102CD8</text>
</a>
</g>
</g>
<!-- dra.func_80116B0C&#45;&gt;dra.func_80102CD8 -->
<g id="edge7" class="edge">
<title>dra.func_80116B0C&#45;&gt;dra.func_80102CD8</title>
<path fill="none" stroke="black" d="M1562.83,-180.73C1502.05,-148.44 1366.19,-76.25 1298.45,-40.25"/>
<polygon fill="black" stroke="black" points="1299.83,-37.03 1289.35,-35.42 1296.54,-43.21 1299.83,-37.03"/>
<text text-anchor="middle" x="1284.35" y="-39.22" font-family="Times,serif" font-size="14.00">1</text>
</g>
<!-- dra.func_8010DA48 -->
<g id="node9" class="node">
<title>dra.func_8010DA48</title>
<g id="a_node9"><a xlink:href="dra.func_8010DA48.svg" xlink:title="dra.func_8010DA48">
<ellipse fill="green" stroke="black" cx="1481.44" cy="-18" rx="102.88" ry="18"/>
<text text-anchor="middle" x="1481.44" y="-14.3" font-family="Times,serif" font-size="14.00">dra.func_8010DA48</text>
</a>
</g>
</g>
<!-- dra.func_80116B0C&#45;&gt;dra.func_8010DA48 -->
<g id="edge8" class="edge">
<title>dra.func_80116B0C&#45;&gt;dra.func_8010DA48</title>
<path fill="none" stroke="black" d="M1582.7,-179.93C1562.97,-148.57 1520.83,-81.6 1497.62,-44.71"/>
<polygon fill="black" stroke="black" points="1500.44,-42.62 1492.15,-36.02 1494.51,-46.34 1500.44,-42.62"/>
<text text-anchor="middle" x="1487.15" y="-39.82" font-family="Times,serif" font-size="14.00">6</text>
</g>
<!-- dra.func_8010E1EC -->
<g id="node10" class="node">
<title>dra.func_8010E1EC</title>
<g id="a_node10"><a xlink:href="dra.func_8010E1EC.svg" xlink:title="dra.func_8010E1EC">
<ellipse fill="green" stroke="black" cx="1705.44" cy="-18" rx="103.18" ry="18"/>
<text text-anchor="middle" x="1705.44" y="-14.3" font-family="Times,serif" font-size="14.00">dra.func_8010E1EC</text>
</a>
</g>
</g>
<!-- dra.func_80116B0C&#45;&gt;dra.func_8010E1EC -->
<g id="edge9" class="edge">
<title>dra.func_80116B0C&#45;&gt;dra.func_8010E1EC</title>
<path fill="none" stroke="black" d="M1604.18,-179.93C1623.92,-148.57 1666.05,-81.6 1689.27,-44.71"/>
<polygon fill="black" stroke="black" points="1692.37,-46.34 1694.74,-36.02 1686.45,-42.62 1692.37,-46.34"/>
<text text-anchor="middle" x="1689.74" y="-39.82" font-family="Times,serif" font-size="14.00">9</text>
</g>
<!-- dra.func_8010E234 -->
<g id="node11" class="node">
<title>dra.func_8010E234</title>
<g id="a_node11"><a xlink:href="dra.func_8010E234.svg" xlink:title="dra.func_8010E234">
<ellipse fill="green" stroke="black" cx="1928.44" cy="-18" rx="101.28" ry="18"/>
<text text-anchor="middle" x="1928.44" y="-14.3" font-family="Times,serif" font-size="14.00">dra.func_8010E234</text>
</a>
</g>
</g>
<!-- dra.func_80116B0C&#45;&gt;dra.func_8010E234 -->
<g id="edge10" class="edge">
<title>dra.func_80116B0C&#45;&gt;dra.func_8010E234</title>
<path fill="none" stroke="black" d="M1624.06,-180.73C1684.84,-148.44 1820.7,-76.25 1888.44,-40.25"/>
<polygon fill="black" stroke="black" points="1890.35,-43.21 1897.53,-35.42 1887.06,-37.03 1890.35,-43.21"/>
<text text-anchor="middle" x="1892.53" y="-39.22" font-family="Times,serif" font-size="14.00">9</text>
</g>
<!-- dra.func_8010E27C -->
<g id="node12" class="node">
<title>dra.func_8010E27C</title>
<g id="a_node12"><a xlink:href="dra.func_8010E27C.svg" xlink:title="dra.func_8010E27C">
<ellipse fill="green" stroke="black" cx="2150.44" cy="-18" rx="102.88" ry="18"/>
<text text-anchor="middle" x="2150.44" y="-14.3" font-family="Times,serif" font-size="14.00">dra.func_8010E27C</text>
</a>
</g>
</g>
<!-- dra.func_80116B0C&#45;&gt;dra.func_8010E27C -->
<g id="edge11" class="edge">
<title>dra.func_80116B0C&#45;&gt;dra.func_8010E27C</title>
<path fill="none" stroke="black" d="M1640.45,-181.98C1742.42,-149.39 1983.57,-72.33 2093.75,-37.12"/>
<polygon fill="black" stroke="black" points="2094.9,-40.42 2103.36,-34.05 2092.77,-33.76 2094.9,-40.42"/>
<text text-anchor="middle" x="2098.36" y="-37.85" font-family="Times,serif" font-size="14.00">1</text>
</g>
<!-- dra.func_8010FAF4 -->
<g id="node13" class="node">
<title>dra.func_8010FAF4</title>
<g id="a_node13"><a xlink:href="dra.func_8010FAF4.svg" xlink:title="dra.func_8010FAF4">
<ellipse fill="green" stroke="black" cx="2371.44" cy="-18" rx="100.98" ry="18"/>
<text text-anchor="middle" x="2371.44" y="-14.3" font-family="Times,serif" font-size="14.00">dra.func_8010FAF4</text>
</a>
</g>
</g>
<!-- dra.func_80116B0C&#45;&gt;dra.func_8010FAF4 -->
<g id="edge12" class="edge">
<title>dra.func_80116B0C&#45;&gt;dra.func_8010FAF4</title>
<path fill="none" stroke="black" d="M1653.2,-183.33C1794.94,-150.9 2150.89,-69.46 2301.93,-34.9"/>
<polygon fill="black" stroke="black" points="2303.05,-38.24 2312.02,-32.6 2301.49,-31.41 2303.05,-38.24"/>
<text text-anchor="middle" x="2307.02" y="-36.4" font-family="Times,serif" font-size="14.00">1</text>
</g>
<!-- dra.func_8011203C -->
<g id="node14" class="node">
<title>dra.func_8011203C</title>
<g id="a_node14"><a xlink:href="dra.func_8011203C.svg" xlink:title="dra.func_8011203C">
<ellipse fill="green" stroke="black" cx="2591.44" cy="-18" rx="101.28" ry="18"/>
<text text-anchor="middle" x="2591.44" y="-14.3" font-family="Times,serif" font-size="14.00">dra.func_8011203C</text>
</a>
</g>
</g>
<!-- dra.func_80116B0C&#45;&gt;dra.func_8011203C -->
<g id="edge13" class="edge">
<title>dra.func_80116B0C&#45;&gt;dra.func_8011203C</title>
<path fill="none" stroke="black" d="M1662.83,-184.62C1842.62,-152.56 2322.76,-66.92 2512.61,-33.06"/>
<polygon fill="black" stroke="black" points="2513.29,-36.49 2522.52,-31.29 2512.06,-29.6 2513.29,-36.49"/>
<text text-anchor="middle" x="2517.52" y="-35.09" font-family="Times,serif" font-size="14.00">1</text>
</g>
<!-- dra.func_80116838 -->
<g id="node15" class="node">
<title>dra.func_80116838</title>
<g id="a_node15"><a xlink:href="dra.func_80116838.svg" xlink:title="dra.func_80116838">
<ellipse fill="green" stroke="black" cx="2811.44" cy="-18" rx="100.98" ry="18"/>
<text text-anchor="middle" x="2811.44" y="-14.3" font-family="Times,serif" font-size="14.00">dra.func_80116838</text>
</a>
</g>
</g>
<!-- dra.func_80116B0C&#45;&gt;dra.func_80116838 -->
<g id="edge14" class="edge">
<title>dra.func_80116B0C&#45;&gt;dra.func_80116838</title>
<path fill="none" stroke="black" d="M1670.38,-186.06C1850.64,-160.39 2314.33,-94.04 2701.44,-36 2710.05,-34.71 2719.04,-33.35 2728,-31.98"/>
<polygon fill="black" stroke="black" points="2728.73,-35.41 2738.09,-30.43 2727.67,-28.49 2728.73,-35.41"/>
<text text-anchor="middle" x="2733.09" y="-34.23" font-family="Times,serif" font-size="14.00">3</text>
</g>
<!-- dra.func_8011690C -->
<g id="node16" class="node">
<title>dra.func_8011690C</title>
<g id="a_node16"><a xlink:href="dra.func_8011690C.svg" xlink:title="dra.func_8011690C">
<ellipse fill="green" stroke="black" cx="3031.44" cy="-18" rx="101.28" ry="18"/>
<text text-anchor="middle" x="3031.44" y="-14.3" font-family="Times,serif" font-size="14.00">dra.func_8011690C</text>
</a>
</g>
</g>
<!-- dra.func_80116B0C&#45;&gt;dra.func_8011690C -->
<g id="edge15" class="edge">
<title>dra.func_80116B0C&#45;&gt;dra.func_8011690C</title>
<path fill="none" stroke="black" d="M1677.85,-187.74C1888.17,-164.44 2452.39,-100.66 2921.44,-36 2930.3,-34.78 2939.55,-33.44 2948.76,-32.08"/>
<polygon fill="black" stroke="black" points="2949.34,-35.53 2958.71,-30.58 2948.31,-28.61 2949.34,-35.53"/>
<text text-anchor="middle" x="2949.21" y="-34.38" font-family="Times,serif" font-size="14.00">13</text>
</g>
<!-- dra.func_8011AAFC -->
<g id="node17" class="node">
<title>dra.func_8011AAFC</title>
<g id="a_node17"><a xlink:href="dra.func_8011AAFC.svg" xlink:title="dra.func_8011AAFC">
<ellipse fill="green" stroke="black" cx="3253.44" cy="-18" rx="102.88" ry="18"/>
<text text-anchor="middle" x="3253.44" y="-14.3" font-family="Times,serif" font-size="14.00">dra.func_8011AAFC</text>
</a>
</g>
</g>
<!-- dra.func_80116B0C&#45;&gt;dra.func_8011AAFC -->
<g id="edge16" class="edge">
<title>dra.func_80116B0C&#45;&gt;dra.func_8011AAFC</title>
<path fill="none" stroke="black" d="M1683.04,-189.17C1920.98,-168.04 2588.32,-106.7 3141.44,-36 3150.71,-34.82 3160.39,-33.49 3170.02,-32.1"/>
<polygon fill="black" stroke="black" points="3170.62,-35.55 3180.01,-30.65 3169.61,-28.63 3170.62,-35.55"/>
<text text-anchor="middle" x="3175.01" y="-34.45" font-family="Times,serif" font-size="14.00">8</text>
</g>
<!-- dra.EntityAlucard -->
<g id="node18" class="node">
<title>dra.EntityAlucard</title>
<g id="a_node18"><a xlink:href="dra.EntityAlucard.svg" xlink:title="dra.EntityAlucard">
<ellipse fill="red" stroke="black" cx="1593.44" cy="-378" rx="93.68" ry="18"/>
<text text-anchor="middle" x="1593.44" y="-374.3" font-family="Times,serif" font-size="14.00">dra.EntityAlucard</text>
</a>
</g>
</g>
<!-- dra.EntityAlucard&#45;&gt;dra.func_80116B0C -->
<g id="edge17" class="edge">
<title>dra.EntityAlucard&#45;&gt;dra.func_80116B0C</title>
<path fill="none" stroke="black" d="M1593.44,-359.93C1593.44,-328.97 1593.44,-263.3 1593.44,-226.13"/>
<polygon fill="black" stroke="black" points="1596.94,-226.02 1593.44,-216.02 1589.94,-226.02 1596.94,-226.02"/>
<text text-anchor="middle" x="1588.44" y="-348.73" font-family="Times,serif" font-size="14.00">1</text>
</g>
</g>
</svg>
