<?xml version="1.0" encoding="UTF-8" standalone="no"?>
<!DOCTYPE svg PUBLIC "-//W3C//DTD SVG 1.1//EN"
 "http://www.w3.org/Graphics/SVG/1.1/DTD/svg11.dtd">
<!-- Generated by graphviz version 2.43.0 (0)
 -->
<!-- Title: dra.EntityHolyWater Pages: 1 -->
<svg width="1407pt" height="224pt"
 viewBox="0.00 0.00 1406.58 224.00" xmlns="http://www.w3.org/2000/svg" xmlns:xlink="http://www.w3.org/1999/xlink">
<g id="graph0" class="graph" transform="scale(1 1) rotate(0) translate(4 220)">
<title>dra.EntityHolyWater</title>
<polygon fill="white" stroke="transparent" points="-4,4 -4,-220 1402.58,-220 1402.58,4 -4,4"/>
<!-- dra.EntityHolyWater -->
<g id="node1" class="node">
<title>dra.EntityHolyWater</title>
<ellipse fill="red" stroke="black" cx="632.89" cy="-198" rx="107.48" ry="18"/>
<text text-anchor="middle" x="632.89" y="-194.3" font-family="Times,serif" font-size="14.00">dra.EntityHolyWater</text>
</g>
<!-- dra.DestroyEntity -->
<g id="node2" class="node">
<title>dra.DestroyEntity</title>
<g id="a_node2"><a xlink:href="dra.DestroyEntity.svg" xlink:title="dra.DestroyEntity">
<ellipse fill="green" stroke="black" cx="94.89" cy="-18" rx="94.78" ry="18"/>
<text text-anchor="middle" x="94.89" y="-14.3" font-family="Times,serif" font-size="14.00">dra.DestroyEntity</text>
</a>
</g>
</g>
<!-- dra.EntityHolyWater&#45;&gt;dra.DestroyEntity -->
<g id="edge1" class="edge">
<title>dra.EntityHolyWater&#45;&gt;dra.DestroyEntity</title>
<path fill="none" stroke="black" d="M586.56,-181.67C487.57,-148.92 255.85,-72.26 149.73,-37.14"/>
<polygon fill="black" stroke="black" points="150.76,-33.8 140.16,-33.98 148.56,-40.44 150.76,-33.8"/>
<text text-anchor="middle" x="135.16" y="-37.78" font-family="Times,serif" font-size="14.00">1</text>
</g>
<!-- dra.PlaySfx -->
<g id="node3" class="node">
<title>dra.PlaySfx</title>
<g id="a_node3"><a xlink:href="dra.PlaySfx.svg" xlink:title="dra.PlaySfx">
<ellipse fill="green" stroke="black" cx="271.89" cy="-18" rx="64.19" ry="18"/>
<text text-anchor="middle" x="271.89" y="-14.3" font-family="Times,serif" font-size="14.00">dra.PlaySfx</text>
</a>
</g>
</g>
<!-- dra.EntityHolyWater&#45;&gt;dra.PlaySfx -->
<g id="edge2" class="edge">
<title>dra.EntityHolyWater&#45;&gt;dra.PlaySfx</title>
<path fill="none" stroke="black" d="M599.9,-180.73C533.27,-147.88 382.91,-73.74 311.27,-38.42"/>
<polygon fill="black" stroke="black" points="312.63,-35.19 302.12,-33.9 309.54,-41.46 312.63,-35.19"/>
<text text-anchor="middle" x="297.12" y="-37.7" font-family="Times,serif" font-size="14.00">1</text>
</g>
<!-- dra.SetSpeedX -->
<g id="node4" class="node">
<title>dra.SetSpeedX</title>
<g id="a_node4"><a xlink:href="dra.SetSpeedX.svg" xlink:title="dra.SetSpeedX">
<ellipse fill="green" stroke="black" cx="433.89" cy="-18" rx="79.89" ry="18"/>
<text text-anchor="middle" x="433.89" y="-14.3" font-family="Times,serif" font-size="14.00">dra.SetSpeedX</text>
</a>
</g>
</g>
<!-- dra.EntityHolyWater&#45;&gt;dra.SetSpeedX -->
<g id="edge3" class="edge">
<title>dra.EntityHolyWater&#45;&gt;dra.SetSpeedX</title>
<path fill="none" stroke="black" d="M614.17,-180.25C578.52,-148.37 500.83,-78.87 460.06,-42.4"/>
<polygon fill="black" stroke="black" points="462.21,-39.63 452.42,-35.57 457.54,-44.85 462.21,-39.63"/>
<text text-anchor="middle" x="447.42" y="-39.37" font-family="Times,serif" font-size="14.00">1</text>
</g>
<!-- dra.func_8011A290 -->
<g id="node5" class="node">
<title>dra.func_8011A290</title>
<g id="a_node5"><a xlink:href="dra.func_8011A290.svg" xlink:title="dra.func_8011A290">
<ellipse fill="green" stroke="black" cx="632.89" cy="-18" rx="100.98" ry="18"/>
<text text-anchor="middle" x="632.89" y="-14.3" font-family="Times,serif" font-size="14.00">dra.func_8011A290</text>
</a>
</g>
</g>
<!-- dra.EntityHolyWater&#45;&gt;dra.func_8011A290 -->
<g id="edge4" class="edge">
<title>dra.EntityHolyWater&#45;&gt;dra.func_8011A290</title>
<path fill="none" stroke="black" d="M632.89,-179.93C632.89,-148.97 632.89,-83.3 632.89,-46.13"/>
<polygon fill="black" stroke="black" points="636.39,-46.02 632.89,-36.02 629.39,-46.02 636.39,-46.02"/>
<text text-anchor="middle" x="627.89" y="-39.82" font-family="Times,serif" font-size="14.00">1</text>
</g>
<!-- dra.func_8011AAFC -->
<g id="node6" class="node">
<title>dra.func_8011AAFC</title>
<g id="a_node6"><a xlink:href="dra.func_8011AAFC.svg" xlink:title="dra.func_8011AAFC">
<ellipse fill="green" stroke="black" cx="853.89" cy="-18" rx="102.88" ry="18"/>
<text text-anchor="middle" x="853.89" y="-14.3" font-family="Times,serif" font-size="14.00">dra.func_8011AAFC</text>
</a>
</g>
</g>
<!-- dra.EntityHolyWater&#45;&gt;dra.func_8011AAFC -->
<g id="edge5" class="edge">
<title>dra.EntityHolyWater&#45;&gt;dra.func_8011AAFC</title>
<path fill="none" stroke="black" d="M653.68,-180.25C693.34,-148.32 779.84,-78.65 825.05,-42.23"/>
<polygon fill="black" stroke="black" points="827.4,-44.83 832.99,-35.83 823.01,-39.38 827.4,-44.83"/>
<text text-anchor="middle" x="827.99" y="-39.63" font-family="Times,serif" font-size="14.00">2</text>
</g>
<!-- dra.func_80125A30 -->
<g id="node7" class="node">
<title>dra.func_80125A30</title>
<g id="a_node7"><a xlink:href="dra.func_80125A30.svg" xlink:title="dra.func_80125A30">
<ellipse fill="green" stroke="black" cx="1074.89" cy="-18" rx="100.98" ry="18"/>
<text text-anchor="middle" x="1074.89" y="-14.3" font-family="Times,serif" font-size="14.00">dra.func_80125A30</text>
</a>
</g>
</g>
<!-- dra.EntityHolyWater&#45;&gt;dra.func_80125A30 -->
<g id="edge6" class="edge">
<title>dra.EntityHolyWater&#45;&gt;dra.func_80125A30</title>
<path fill="none" stroke="black" d="M672.12,-181.2C753.06,-148.6 938.41,-73.96 1026.58,-38.46"/>
<polygon fill="black" stroke="black" points="1028.1,-41.62 1036.07,-34.63 1025.49,-35.12 1028.1,-41.62"/>
<text text-anchor="middle" x="1031.07" y="-38.43" font-family="Times,serif" font-size="14.00">1</text>
</g>
<!-- dra.func_80125B6C -->
<g id="node8" class="node">
<title>dra.func_80125B6C</title>
<g id="a_node8"><a xlink:href="dra.func_80125B6C.svg" xlink:title="dra.func_80125B6C">
<ellipse fill="green" stroke="black" cx="1295.89" cy="-18" rx="102.88" ry="18"/>
<text text-anchor="middle" x="1295.89" y="-14.3" font-family="Times,serif" font-size="14.00">dra.func_80125B6C</text>
</a>
</g>
</g>
<!-- dra.EntityHolyWater&#45;&gt;dra.func_80125B6C -->
<g id="edge7" class="edge">
<title>dra.EntityHolyWater&#45;&gt;dra.func_80125B6C</title>
<path fill="none" stroke="black" d="M687.15,-182.43C808.77,-149.78 1102.68,-70.87 1232.47,-36.03"/>
<polygon fill="black" stroke="black" points="1233.53,-39.37 1242.28,-33.39 1231.71,-32.61 1233.53,-39.37"/>
<text text-anchor="middle" x="1237.28" y="-37.19" font-family="Times,serif" font-size="14.00">1</text>
</g>
</g>
</svg>
