<?xml version="1.0" encoding="UTF-8" standalone="no"?>
<!DOCTYPE svg PUBLIC "-//W3C//DTD SVG 1.1//EN"
 "http://www.w3.org/Graphics/SVG/1.1/DTD/svg11.dtd">
<!-- Generated by graphviz version 2.43.0 (0)
 -->
<!-- Title: dra.func_80111830 Pages: 1 -->
<svg width="2706pt" height="404pt"
 viewBox="0.00 0.00 2706.03 404.00" xmlns="http://www.w3.org/2000/svg" xmlns:xlink="http://www.w3.org/1999/xlink">
<g id="graph0" class="graph" transform="scale(1 1) rotate(0) translate(4 400)">
<title>dra.func_80111830</title>
<polygon fill="white" stroke="transparent" points="-4,4 -4,-400 2702.03,-400 2702.03,4 -4,4"/>
<!-- dra.func_80111830 -->
<g id="node1" class="node">
<title>dra.func_80111830</title>
<ellipse fill="green" stroke="black" cx="1418.64" cy="-198" rx="100.98" ry="18"/>
<text text-anchor="middle" x="1418.64" y="-194.3" font-family="Times,serif" font-size="14.00">dra.func_80111830</text>
</g>
<!-- dra.CheckBackForwardInput -->
<g id="node2" class="node">
<title>dra.CheckBackForwardInput</title>
<g id="a_node2"><a xlink:href="dra.CheckBackForwardInput.svg" xlink:title="dra.CheckBackForwardInput">
<ellipse fill="green" stroke="black" cx="143.64" cy="-18" rx="143.77" ry="18"/>
<text text-anchor="middle" x="143.64" y="-14.3" font-family="Times,serif" font-size="14.00">dra.CheckBackForwardInput</text>
</a>
</g>
</g>
<!-- dra.func_80111830&#45;&gt;dra.CheckBackForwardInput -->
<g id="edge1" class="edge">
<title>dra.func_80111830&#45;&gt;dra.CheckBackForwardInput</title>
<path fill="none" stroke="black" d="M1341.75,-186.27C1122.44,-155.65 493.7,-67.87 245.84,-33.27"/>
<polygon fill="black" stroke="black" points="246.15,-29.78 235.76,-31.86 245.18,-36.71 246.15,-29.78"/>
<text text-anchor="middle" x="230.76" y="-35.66" font-family="Times,serif" font-size="14.00">1</text>
</g>
<!-- dra.CheckDarkMetamorphosisInput -->
<g id="node3" class="node">
<title>dra.CheckDarkMetamorphosisInput</title>
<g id="a_node3"><a xlink:href="dra.CheckDarkMetamorphosisInput.svg" xlink:title="dra.CheckDarkMetamorphosisInput">
<ellipse fill="green" stroke="black" cx="481.64" cy="-18" rx="176.57" ry="18"/>
<text text-anchor="middle" x="481.64" y="-14.3" font-family="Times,serif" font-size="14.00">dra.CheckDarkMetamorphosisInput</text>
</a>
</g>
</g>
<!-- dra.func_80111830&#45;&gt;dra.CheckDarkMetamorphosisInput -->
<g id="edge2" class="edge">
<title>dra.func_80111830&#45;&gt;dra.CheckDarkMetamorphosisInput</title>
<path fill="none" stroke="black" d="M1352.38,-184.41C1187.43,-153.08 758.29,-71.55 571.12,-36"/>
<polygon fill="black" stroke="black" points="571.51,-32.51 561.03,-34.08 570.2,-39.39 571.51,-32.51"/>
<text text-anchor="middle" x="556.03" y="-37.88" font-family="Times,serif" font-size="14.00">1</text>
</g>
<!-- dra.CheckGravityBootsInput -->
<g id="node4" class="node">
<title>dra.CheckGravityBootsInput</title>
<g id="a_node4"><a xlink:href="dra.CheckGravityBootsInput.svg" xlink:title="dra.CheckGravityBootsInput">
<ellipse fill="green" stroke="black" cx="819.64" cy="-18" rx="143.77" ry="18"/>
<text text-anchor="middle" x="819.64" y="-14.3" font-family="Times,serif" font-size="14.00">dra.CheckGravityBootsInput</text>
</a>
</g>
</g>
<!-- dra.func_80111830&#45;&gt;dra.CheckGravityBootsInput -->
<g id="edge3" class="edge">
<title>dra.func_80111830&#45;&gt;dra.CheckGravityBootsInput</title>
<path fill="none" stroke="black" d="M1369.11,-182.28C1260.6,-150.04 1002.06,-73.21 882.39,-37.65"/>
<polygon fill="black" stroke="black" points="883.22,-34.24 872.64,-34.75 881.23,-40.95 883.22,-34.24"/>
<text text-anchor="middle" x="867.64" y="-38.55" font-family="Times,serif" font-size="14.00">1</text>
</g>
<!-- dra.CheckHellfireInput -->
<g id="node5" class="node">
<title>dra.CheckHellfireInput</title>
<g id="a_node5"><a xlink:href="dra.CheckHellfireInput.svg" xlink:title="dra.CheckHellfireInput">
<ellipse fill="green" stroke="black" cx="1098.64" cy="-18" rx="116.98" ry="18"/>
<text text-anchor="middle" x="1098.64" y="-14.3" font-family="Times,serif" font-size="14.00">dra.CheckHellfireInput</text>
</a>
</g>
</g>
<!-- dra.func_80111830&#45;&gt;dra.CheckHellfireInput -->
<g id="edge4" class="edge">
<title>dra.func_80111830&#45;&gt;dra.CheckHellfireInput</title>
<path fill="none" stroke="black" d="M1389.39,-180.73C1331.45,-148.5 1202.09,-76.55 1137.25,-40.48"/>
<polygon fill="black" stroke="black" points="1138.6,-37.23 1128.16,-35.42 1135.2,-43.34 1138.6,-37.23"/>
<text text-anchor="middle" x="1123.16" y="-39.22" font-family="Times,serif" font-size="14.00">1</text>
</g>
<!-- dra.CheckQuarterCircleForwardInput -->
<g id="node6" class="node">
<title>dra.CheckQuarterCircleForwardInput</title>
<g id="a_node6"><a xlink:href="dra.CheckQuarterCircleForwardInput.svg" xlink:title="dra.CheckQuarterCircleForwardInput">
<ellipse fill="green" stroke="black" cx="1418.64" cy="-18" rx="185.47" ry="18"/>
<text text-anchor="middle" x="1418.64" y="-14.3" font-family="Times,serif" font-size="14.00">dra.CheckQuarterCircleForwardInput</text>
</a>
</g>
</g>
<!-- dra.func_80111830&#45;&gt;dra.CheckQuarterCircleForwardInput -->
<g id="edge5" class="edge">
<title>dra.func_80111830&#45;&gt;dra.CheckQuarterCircleForwardInput</title>
<path fill="none" stroke="black" d="M1418.64,-179.93C1418.64,-148.97 1418.64,-83.3 1418.64,-46.13"/>
<polygon fill="black" stroke="black" points="1422.14,-46.02 1418.64,-36.02 1415.14,-46.02 1422.14,-46.02"/>
<text text-anchor="middle" x="1413.64" y="-39.82" font-family="Times,serif" font-size="14.00">1</text>
</g>
<!-- dra.CheckSoulStealInput -->
<g id="node7" class="node">
<title>dra.CheckSoulStealInput</title>
<g id="a_node7"><a xlink:href="dra.CheckSoulStealInput.svg" xlink:title="dra.CheckSoulStealInput">
<ellipse fill="green" stroke="black" cx="1748.64" cy="-18" rx="126.98" ry="18"/>
<text text-anchor="middle" x="1748.64" y="-14.3" font-family="Times,serif" font-size="14.00">dra.CheckSoulStealInput</text>
</a>
</g>
</g>
<!-- dra.func_80111830&#45;&gt;dra.CheckSoulStealInput -->
<g id="edge6" class="edge">
<title>dra.func_80111830&#45;&gt;dra.CheckSoulStealInput</title>
<path fill="none" stroke="black" d="M1448.8,-180.73C1508.52,-148.52 1641.82,-76.62 1708.72,-40.53"/>
<polygon fill="black" stroke="black" points="1710.57,-43.51 1717.71,-35.68 1707.25,-37.35 1710.57,-43.51"/>
<text text-anchor="middle" x="1712.71" y="-39.48" font-family="Times,serif" font-size="14.00">1</text>
</g>
<!-- dra.CheckSummonSpiritInput -->
<g id="node8" class="node">
<title>dra.CheckSummonSpiritInput</title>
<g id="a_node8"><a xlink:href="dra.CheckSummonSpiritInput.svg" xlink:title="dra.CheckSummonSpiritInput">
<ellipse fill="green" stroke="black" cx="2042.64" cy="-18" rx="149.47" ry="18"/>
<text text-anchor="middle" x="2042.64" y="-14.3" font-family="Times,serif" font-size="14.00">dra.CheckSummonSpiritInput</text>
</a>
</g>
</g>
<!-- dra.func_80111830&#45;&gt;dra.CheckSummonSpiritInput -->
<g id="edge7" class="edge">
<title>dra.func_80111830&#45;&gt;dra.CheckSummonSpiritInput</title>
<path fill="none" stroke="black" d="M1469.7,-182.43C1582.49,-150.26 1852.74,-73.17 1977.49,-37.58"/>
<polygon fill="black" stroke="black" points="1978.65,-40.89 1987.3,-34.78 1976.73,-34.16 1978.65,-40.89"/>
<text text-anchor="middle" x="1982.3" y="-38.58" font-family="Times,serif" font-size="14.00">1</text>
</g>
<!-- dra.CheckTetraSpiritInput -->
<g id="node9" class="node">
<title>dra.CheckTetraSpiritInput</title>
<g id="a_node9"><a xlink:href="dra.CheckTetraSpiritInput.svg" xlink:title="dra.CheckTetraSpiritInput">
<ellipse fill="green" stroke="black" cx="2343.64" cy="-18" rx="133.48" ry="18"/>
<text text-anchor="middle" x="2343.64" y="-14.3" font-family="Times,serif" font-size="14.00">dra.CheckTetraSpiritInput</text>
</a>
</g>
</g>
<!-- dra.func_80111830&#45;&gt;dra.CheckTetraSpiritInput -->
<g id="edge8" class="edge">
<title>dra.func_80111830&#45;&gt;dra.CheckTetraSpiritInput</title>
<path fill="none" stroke="black" d="M1484.42,-184.34C1649.09,-152.65 2078.83,-69.96 2260.56,-34.99"/>
<polygon fill="black" stroke="black" points="2261.44,-38.38 2270.6,-33.05 2260.12,-31.51 2261.44,-38.38"/>
<text text-anchor="middle" x="2265.6" y="-36.85" font-family="Times,serif" font-size="14.00">1</text>
</g>
<!-- dra.func_8011151C -->
<g id="node10" class="node">
<title>dra.func_8011151C</title>
<g id="a_node10"><a xlink:href="dra.func_8011151C.svg" xlink:title="dra.func_8011151C">
<ellipse fill="red" stroke="black" cx="2596.64" cy="-18" rx="101.28" ry="18"/>
<text text-anchor="middle" x="2596.64" y="-14.3" font-family="Times,serif" font-size="14.00">dra.func_8011151C</text>
</a>
</g>
</g>
<!-- dra.func_80111830&#45;&gt;dra.func_8011151C -->
<g id="edge9" class="edge">
<title>dra.func_80111830&#45;&gt;dra.func_8011151C</title>
<path fill="none" stroke="black" d="M1493.03,-185.83C1666.79,-159.74 2112.9,-92.66 2485.64,-36 2494.41,-34.67 2503.58,-33.27 2512.72,-31.87"/>
<polygon fill="black" stroke="black" points="2513.25,-35.33 2522.6,-30.36 2512.19,-28.41 2513.25,-35.33"/>
<text text-anchor="middle" x="2517.6" y="-34.16" font-family="Times,serif" font-size="14.00">1</text>
</g>
<!-- dra.EntityAlucard -->
<g id="node11" class="node">
<title>dra.EntityAlucard</title>
<g id="a_node11"><a xlink:href="dra.EntityAlucard.svg" xlink:title="dra.EntityAlucard">
<ellipse fill="red" stroke="black" cx="1418.64" cy="-378" rx="93.68" ry="18"/>
<text text-anchor="middle" x="1418.64" y="-374.3" font-family="Times,serif" font-size="14.00">dra.EntityAlucard</text>
</a>
</g>
</g>
<!-- dra.EntityAlucard&#45;&gt;dra.func_80111830 -->
<g id="edge10" class="edge">
<title>dra.EntityAlucard&#45;&gt;dra.func_80111830</title>
<path fill="none" stroke="black" d="M1418.64,-359.93C1418.64,-328.97 1418.64,-263.3 1418.64,-226.13"/>
<polygon fill="black" stroke="black" points="1422.14,-226.02 1418.64,-216.02 1415.14,-226.02 1422.14,-226.02"/>
<text text-anchor="middle" x="1413.64" y="-348.73" font-family="Times,serif" font-size="14.00">1</text>
</g>
</g>
</svg>
