<?xml version="1.0" encoding="UTF-8" standalone="no"?>
<!DOCTYPE svg PUBLIC "-//W3C//DTD SVG 1.1//EN"
 "http://www.w3.org/Graphics/SVG/1.1/DTD/svg11.dtd">
<!-- Generated by graphviz version 2.43.0 (0)
 -->
<!-- Title: dra.func_8011A3AC Pages: 1 -->
<svg width="768pt" height="404pt"
 viewBox="0.00 0.00 768.13 404.00" xmlns="http://www.w3.org/2000/svg" xmlns:xlink="http://www.w3.org/1999/xlink">
<g id="graph0" class="graph" transform="scale(1 1) rotate(0) translate(4 400)">
<title>dra.func_8011A3AC</title>
<polygon fill="white" stroke="transparent" points="-4,4 -4,-400 764.13,-400 764.13,4 -4,4"/>
<!-- dra.func_8011A3AC -->
<g id="node1" class="node">
<title>dra.func_8011A3AC</title>
<ellipse fill="green" stroke="black" cx="380.89" cy="-198" rx="102.88" ry="18"/>
<text text-anchor="middle" x="380.89" y="-194.3" font-family="Times,serif" font-size="14.00">dra.func_8011A3AC</text>
</g>
<!-- dra.func_800FD9D4 -->
<g id="node2" class="node">
<title>dra.func_800FD9D4</title>
<g id="a_node2"><a xlink:href="dra.func_800FD9D4.svg" xlink:title="dra.func_800FD9D4">
<ellipse fill="green" stroke="black" cx="269.89" cy="-18" rx="103.98" ry="18"/>
<text text-anchor="middle" x="269.89" y="-14.3" font-family="Times,serif" font-size="14.00">dra.func_800FD9D4</text>
</a>
</g>
</g>
<!-- dra.func_8011A3AC&#45;&gt;dra.func_800FD9D4 -->
<g id="edge1" class="edge">
<title>dra.func_8011A3AC&#45;&gt;dra.func_800FD9D4</title>
<path fill="none" stroke="black" d="M370.25,-179.93C350.69,-148.57 308.93,-81.6 285.92,-44.71"/>
<polygon fill="black" stroke="black" points="288.76,-42.65 280.5,-36.02 282.82,-46.35 288.76,-42.65"/>
<text text-anchor="middle" x="275.5" y="-39.82" font-family="Times,serif" font-size="14.00">1</text>
</g>
<!-- dra.func_80118894 -->
<g id="node3" class="node">
<title>dra.func_80118894</title>
<g id="a_node3"><a xlink:href="dra.func_80118894.svg" xlink:title="dra.func_80118894">
<ellipse fill="green" stroke="black" cx="492.89" cy="-18" rx="100.98" ry="18"/>
<text text-anchor="middle" x="492.89" y="-14.3" font-family="Times,serif" font-size="14.00">dra.func_80118894</text>
</a>
</g>
</g>
<!-- dra.func_8011A3AC&#45;&gt;dra.func_80118894 -->
<g id="edge2" class="edge">
<title>dra.func_8011A3AC&#45;&gt;dra.func_80118894</title>
<path fill="none" stroke="black" d="M391.63,-179.93C411.36,-148.57 453.5,-81.6 476.71,-44.71"/>
<polygon fill="black" stroke="black" points="479.82,-46.34 482.18,-36.02 473.89,-42.62 479.82,-46.34"/>
<text text-anchor="middle" x="477.18" y="-39.82" font-family="Times,serif" font-size="14.00">1</text>
</g>
<!-- servant.func_80172C30 -->
<g id="node4" class="node">
<title>servant.func_80172C30</title>
<g id="a_node4"><a xlink:href="servant.func_80172C30.svg" xlink:title="servant.func_80172C30">
<ellipse fill="red" stroke="black" cx="120.89" cy="-378" rx="120.78" ry="18"/>
<text text-anchor="middle" x="120.89" y="-374.3" font-family="Times,serif" font-size="14.00">servant.func_80172C30</text>
</a>
</g>
</g>
<!-- servant.func_80172C30&#45;&gt;dra.func_8011A3AC -->
<g id="edge3" class="edge">
<title>servant.func_80172C30&#45;&gt;dra.func_8011A3AC</title>
<path fill="none" stroke="black" d="M145.35,-360.25C192.41,-328.04 295.56,-257.42 348.35,-221.27"/>
<polygon fill="black" stroke="black" points="350.41,-224.11 356.68,-215.57 346.45,-218.33 350.41,-224.11"/>
<text text-anchor="middle" x="140.35" y="-349.05" font-family="Times,serif" font-size="14.00">1</text>
</g>
<!-- servant.func_801719E0 -->
<g id="node5" class="node">
<title>servant.func_801719E0</title>
<g id="a_node5"><a xlink:href="servant.func_801719E0.svg" xlink:title="servant.func_801719E0">
<ellipse fill="green" stroke="black" cx="380.89" cy="-378" rx="120.78" ry="18"/>
<text text-anchor="middle" x="380.89" y="-374.3" font-family="Times,serif" font-size="14.00">servant.func_801719E0</text>
</a>
</g>
</g>
<!-- servant.func_801719E0&#45;&gt;dra.func_8011A3AC -->
<g id="edge4" class="edge">
<title>servant.func_801719E0&#45;&gt;dra.func_8011A3AC</title>
<path fill="none" stroke="black" d="M380.89,-359.93C380.89,-328.97 380.89,-263.3 380.89,-226.13"/>
<polygon fill="black" stroke="black" points="384.39,-226.02 380.89,-216.02 377.39,-226.02 384.39,-226.02"/>
<text text-anchor="middle" x="375.89" y="-348.73" font-family="Times,serif" font-size="14.00">1</text>
</g>
<!-- servant.func_80172120 -->
<g id="node6" class="node">
<title>servant.func_80172120</title>
<g id="a_node6"><a xlink:href="servant.func_80172120.svg" xlink:title="servant.func_80172120">
<ellipse fill="red" stroke="black" cx="639.89" cy="-378" rx="120.48" ry="18"/>
<text text-anchor="middle" x="639.89" y="-374.3" font-family="Times,serif" font-size="14.00">servant.func_80172120</text>
</a>
</g>
</g>
<!-- servant.func_80172120&#45;&gt;dra.func_8011A3AC -->
<g id="edge5" class="edge">
<title>servant.func_80172120&#45;&gt;dra.func_8011A3AC</title>
<path fill="none" stroke="black" d="M615.52,-360.25C568.64,-328.04 465.89,-257.42 413.3,-221.27"/>
<polygon fill="black" stroke="black" points="415.23,-218.35 405,-215.57 411.26,-224.12 415.23,-218.35"/>
<text text-anchor="middle" x="610.52" y="-349.05" font-family="Times,serif" font-size="14.00">2</text>
</g>
</g>
</svg>
