<?xml version="1.0" encoding="UTF-8" standalone="no"?>
<!DOCTYPE svg PUBLIC "-//W3C//DTD SVG 1.1//EN"
 "http://www.w3.org/Graphics/SVG/1.1/DTD/svg11.dtd">
<!-- Generated by graphviz version 2.43.0 (0)
 -->
<!-- Title: dra.func_80134F50 Pages: 1 -->
<svg width="3966pt" height="404pt"
 viewBox="0.00 0.00 3965.98 404.00" xmlns="http://www.w3.org/2000/svg" xmlns:xlink="http://www.w3.org/1999/xlink">
<g id="graph0" class="graph" transform="scale(1 1) rotate(0) translate(4 400)">
<title>dra.func_80134F50</title>
<polygon fill="white" stroke="transparent" points="-4,4 -4,-400 3961.98,-400 3961.98,4 -4,4"/>
<!-- dra.func_80134F50 -->
<g id="node1" class="node">
<title>dra.func_80134F50</title>
<ellipse fill="red" stroke="black" cx="1983.59" cy="-198" rx="100.98" ry="18"/>
<text text-anchor="middle" x="1983.59" y="-194.3" font-family="Times,serif" font-size="14.00">dra.func_80134F50</text>
</g>
<!-- dra.SetReverbDepth -->
<g id="node2" class="node">
<title>dra.SetReverbDepth</title>
<g id="a_node2"><a xlink:href="dra.SetReverbDepth.svg" xlink:title="dra.SetReverbDepth">
<ellipse fill="green" stroke="black" cx="106.59" cy="-18" rx="106.68" ry="18"/>
<text text-anchor="middle" x="106.59" y="-14.3" font-family="Times,serif" font-size="14.00">dra.SetReverbDepth</text>
</a>
</g>
</g>
<!-- dra.func_80134F50&#45;&gt;dra.SetReverbDepth -->
<g id="edge1" class="edge">
<title>dra.func_80134F50&#45;&gt;dra.SetReverbDepth</title>
<path fill="none" stroke="black" d="M1891.69,-190.42C1630.07,-171.28 859.05,-112.18 221.59,-36 211.97,-34.85 201.92,-33.53 191.93,-32.15"/>
<polygon fill="black" stroke="black" points="192.37,-28.68 181.98,-30.76 191.39,-35.61 192.37,-28.68"/>
<text text-anchor="middle" x="176.98" y="-34.56" font-family="Times,serif" font-size="14.00">1</text>
</g>
<!-- dra.func_80132500 -->
<g id="node3" class="node">
<title>dra.func_80132500</title>
<g id="a_node3"><a xlink:href="dra.func_80132500.svg" xlink:title="dra.func_80132500">
<ellipse fill="green" stroke="black" cx="331.59" cy="-18" rx="100.98" ry="18"/>
<text text-anchor="middle" x="331.59" y="-14.3" font-family="Times,serif" font-size="14.00">dra.func_80132500</text>
</a>
</g>
</g>
<!-- dra.func_80134F50&#45;&gt;dra.func_80132500 -->
<g id="edge2" class="edge">
<title>dra.func_80134F50&#45;&gt;dra.func_80132500</title>
<path fill="none" stroke="black" d="M1895.19,-189.31C1658.9,-168.42 993.15,-107.37 441.59,-36 432.58,-34.83 423.18,-33.52 413.82,-32.16"/>
<polygon fill="black" stroke="black" points="414.11,-28.67 403.71,-30.67 413.09,-35.59 414.11,-28.67"/>
<text text-anchor="middle" x="398.71" y="-34.47" font-family="Times,serif" font-size="14.00">2</text>
</g>
<!-- dra.func_8013271C -->
<g id="node4" class="node">
<title>dra.func_8013271C</title>
<g id="a_node4"><a xlink:href="dra.func_8013271C.svg" xlink:title="dra.func_8013271C">
<ellipse fill="green" stroke="black" cx="551.59" cy="-18" rx="101.28" ry="18"/>
<text text-anchor="middle" x="551.59" y="-14.3" font-family="Times,serif" font-size="14.00">dra.func_8013271C</text>
</a>
</g>
</g>
<!-- dra.func_80134F50&#45;&gt;dra.func_8013271C -->
<g id="edge3" class="edge">
<title>dra.func_80134F50&#45;&gt;dra.func_8013271C</title>
<path fill="none" stroke="black" d="M1900.33,-187.8C1691.58,-164.53 1129.11,-100.58 661.59,-36 652.73,-34.78 643.49,-33.44 634.28,-32.07"/>
<polygon fill="black" stroke="black" points="634.73,-28.6 624.32,-30.58 633.69,-35.52 634.73,-28.6"/>
<text text-anchor="middle" x="619.32" y="-34.38" font-family="Times,serif" font-size="14.00">2</text>
</g>
<!-- dra.func_80132C2C -->
<g id="node5" class="node">
<title>dra.func_80132C2C</title>
<g id="a_node5"><a xlink:href="dra.func_80132C2C.svg" xlink:title="dra.func_80132C2C">
<ellipse fill="green" stroke="black" cx="773.59" cy="-18" rx="102.88" ry="18"/>
<text text-anchor="middle" x="773.59" y="-14.3" font-family="Times,serif" font-size="14.00">dra.func_80132C2C</text>
</a>
</g>
</g>
<!-- dra.func_80134F50&#45;&gt;dra.func_80132C2C -->
<g id="edge4" class="edge">
<title>dra.func_80134F50&#45;&gt;dra.func_80132C2C</title>
<path fill="none" stroke="black" d="M1907.95,-186.09C1729.65,-160.34 1269.1,-93.61 884.59,-36 875.98,-34.71 866.99,-33.35 858.02,-31.99"/>
<polygon fill="black" stroke="black" points="858.33,-28.5 847.92,-30.45 857.28,-35.42 858.33,-28.5"/>
<text text-anchor="middle" x="838.42" y="-34.25" font-family="Times,serif" font-size="14.00">10</text>
</g>
<!-- dra.func_80133780 -->
<g id="node6" class="node">
<title>dra.func_80133780</title>
<g id="a_node6"><a xlink:href="dra.func_80133780.svg" xlink:title="dra.func_80133780">
<ellipse fill="green" stroke="black" cx="994.59" cy="-18" rx="100.98" ry="18"/>
<text text-anchor="middle" x="994.59" y="-14.3" font-family="Times,serif" font-size="14.00">dra.func_80133780</text>
</a>
</g>
</g>
<!-- dra.func_80134F50&#45;&gt;dra.func_80133780 -->
<g id="edge5" class="edge">
<title>dra.func_80134F50&#45;&gt;dra.func_80133780</title>
<path fill="none" stroke="black" d="M1915.22,-184.7C1737.48,-152.7 1261.61,-67.06 1073.08,-33.13"/>
<polygon fill="black" stroke="black" points="1073.43,-29.63 1062.97,-31.31 1072.19,-36.52 1073.43,-29.63"/>
<text text-anchor="middle" x="1057.97" y="-35.11" font-family="Times,serif" font-size="14.00">2</text>
</g>
<!-- dra.func_801337B4 -->
<g id="node7" class="node">
<title>dra.func_801337B4</title>
<g id="a_node7"><a xlink:href="dra.func_801337B4.svg" xlink:title="dra.func_801337B4">
<ellipse fill="green" stroke="black" cx="1214.59" cy="-18" rx="101.28" ry="18"/>
<text text-anchor="middle" x="1214.59" y="-14.3" font-family="Times,serif" font-size="14.00">dra.func_801337B4</text>
</a>
</g>
</g>
<!-- dra.func_80134F50&#45;&gt;dra.func_801337B4 -->
<g id="edge6" class="edge">
<title>dra.func_80134F50&#45;&gt;dra.func_801337B4</title>
<path fill="none" stroke="black" d="M1924.53,-183.33C1784.51,-150.92 1433.02,-69.56 1283.57,-34.97"/>
<polygon fill="black" stroke="black" points="1284.12,-31.5 1273.59,-32.66 1282.55,-38.32 1284.12,-31.5"/>
<text text-anchor="middle" x="1268.59" y="-36.46" font-family="Times,serif" font-size="14.00">3</text>
</g>
<!-- dra.func_80133810 -->
<g id="node8" class="node">
<title>dra.func_80133810</title>
<g id="a_node8"><a xlink:href="dra.func_80133810.svg" xlink:title="dra.func_80133810">
<ellipse fill="red" stroke="black" cx="1434.59" cy="-18" rx="100.98" ry="18"/>
<text text-anchor="middle" x="1434.59" y="-14.3" font-family="Times,serif" font-size="14.00">dra.func_80133810</text>
</a>
</g>
</g>
<!-- dra.func_80134F50&#45;&gt;dra.func_80133810 -->
<g id="edge7" class="edge">
<title>dra.func_80134F50&#45;&gt;dra.func_80133810</title>
<path fill="none" stroke="black" d="M1937.26,-181.98C1836.86,-149.43 1599.54,-72.48 1490.8,-37.22"/>
<polygon fill="black" stroke="black" points="1491.59,-33.8 1480.99,-34.05 1489.43,-40.46 1491.59,-33.8"/>
<text text-anchor="middle" x="1475.99" y="-37.85" font-family="Times,serif" font-size="14.00">1</text>
</g>
<!-- dra.func_80134104 -->
<g id="node9" class="node">
<title>dra.func_80134104</title>
<g id="a_node9"><a xlink:href="dra.func_80134104.svg" xlink:title="dra.func_80134104">
<ellipse fill="green" stroke="black" cx="1653.59" cy="-18" rx="100.98" ry="18"/>
<text text-anchor="middle" x="1653.59" y="-14.3" font-family="Times,serif" font-size="14.00">dra.func_80134104</text>
</a>
</g>
</g>
<!-- dra.func_80134F50&#45;&gt;dra.func_80134104 -->
<g id="edge8" class="edge">
<title>dra.func_80134F50&#45;&gt;dra.func_80134104</title>
<path fill="none" stroke="black" d="M1953.43,-180.73C1893.56,-148.44 1759.73,-76.25 1693,-40.25"/>
<polygon fill="black" stroke="black" points="1694.5,-37.09 1684.04,-35.42 1691.18,-43.25 1694.5,-37.09"/>
<text text-anchor="middle" x="1679.04" y="-39.22" font-family="Times,serif" font-size="14.00">1</text>
</g>
<!-- dra.func_8013415C -->
<g id="node10" class="node">
<title>dra.func_8013415C</title>
<g id="a_node10"><a xlink:href="dra.func_8013415C.svg" xlink:title="dra.func_8013415C">
<ellipse fill="green" stroke="black" cx="1873.59" cy="-18" rx="101.28" ry="18"/>
<text text-anchor="middle" x="1873.59" y="-14.3" font-family="Times,serif" font-size="14.00">dra.func_8013415C</text>
</a>
</g>
</g>
<!-- dra.func_80134F50&#45;&gt;dra.func_8013415C -->
<g id="edge9" class="edge">
<title>dra.func_80134F50&#45;&gt;dra.func_8013415C</title>
<path fill="none" stroke="black" d="M1973.04,-179.93C1953.66,-148.57 1912.28,-81.6 1889.48,-44.71"/>
<polygon fill="black" stroke="black" points="1892.34,-42.68 1884.11,-36.02 1886.39,-46.36 1892.34,-42.68"/>
<text text-anchor="middle" x="1879.11" y="-39.82" font-family="Times,serif" font-size="14.00">1</text>
</g>
<!-- dra.func_80134508 -->
<g id="node11" class="node">
<title>dra.func_80134508</title>
<g id="a_node11"><a xlink:href="dra.func_80134508.svg" xlink:title="dra.func_80134508">
<ellipse fill="green" stroke="black" cx="2093.59" cy="-18" rx="100.98" ry="18"/>
<text text-anchor="middle" x="2093.59" y="-14.3" font-family="Times,serif" font-size="14.00">dra.func_80134508</text>
</a>
</g>
</g>
<!-- dra.func_80134F50&#45;&gt;dra.func_80134508 -->
<g id="edge10" class="edge">
<title>dra.func_80134F50&#45;&gt;dra.func_80134508</title>
<path fill="none" stroke="black" d="M1994.14,-179.93C2013.52,-148.57 2054.9,-81.6 2077.7,-44.71"/>
<polygon fill="black" stroke="black" points="2080.8,-46.36 2083.08,-36.02 2074.84,-42.68 2080.8,-46.36"/>
<text text-anchor="middle" x="2078.08" y="-39.82" font-family="Times,serif" font-size="14.00">1</text>
</g>
<!-- dra.func_80134564 -->
<g id="node12" class="node">
<title>dra.func_80134564</title>
<g id="a_node12"><a xlink:href="dra.func_80134564.svg" xlink:title="dra.func_80134564">
<ellipse fill="green" stroke="black" cx="2312.59" cy="-18" rx="100.98" ry="18"/>
<text text-anchor="middle" x="2312.59" y="-14.3" font-family="Times,serif" font-size="14.00">dra.func_80134564</text>
</a>
</g>
</g>
<!-- dra.func_80134F50&#45;&gt;dra.func_80134564 -->
<g id="edge11" class="edge">
<title>dra.func_80134F50&#45;&gt;dra.func_80134564</title>
<path fill="none" stroke="black" d="M2013.66,-180.73C2073.35,-148.44 2206.77,-76.25 2273.31,-40.25"/>
<polygon fill="black" stroke="black" points="2275.1,-43.26 2282.23,-35.42 2271.77,-37.1 2275.1,-43.26"/>
<text text-anchor="middle" x="2277.23" y="-39.22" font-family="Times,serif" font-size="14.00">1</text>
</g>
<!-- dra.func_801345C0 -->
<g id="node13" class="node">
<title>dra.func_801345C0</title>
<g id="a_node13"><a xlink:href="dra.func_801345C0.svg" xlink:title="dra.func_801345C0">
<ellipse fill="green" stroke="black" cx="2532.59" cy="-18" rx="101.28" ry="18"/>
<text text-anchor="middle" x="2532.59" y="-14.3" font-family="Times,serif" font-size="14.00">dra.func_801345C0</text>
</a>
</g>
</g>
<!-- dra.func_80134F50&#45;&gt;dra.func_801345C0 -->
<g id="edge12" class="edge">
<title>dra.func_80134F50&#45;&gt;dra.func_801345C0</title>
<path fill="none" stroke="black" d="M2029.92,-181.98C2130.32,-149.43 2367.64,-72.48 2476.39,-37.22"/>
<polygon fill="black" stroke="black" points="2477.75,-40.46 2486.19,-34.05 2475.59,-33.8 2477.75,-40.46"/>
<text text-anchor="middle" x="2481.19" y="-37.85" font-family="Times,serif" font-size="14.00">2</text>
</g>
<!-- dra.func_8013461C -->
<g id="node14" class="node">
<title>dra.func_8013461C</title>
<g id="a_node14"><a xlink:href="dra.func_8013461C.svg" xlink:title="dra.func_8013461C">
<ellipse fill="green" stroke="black" cx="2753.59" cy="-18" rx="101.28" ry="18"/>
<text text-anchor="middle" x="2753.59" y="-14.3" font-family="Times,serif" font-size="14.00">dra.func_8013461C</text>
</a>
</g>
</g>
<!-- dra.func_80134F50&#45;&gt;dra.func_8013461C -->
<g id="edge13" class="edge">
<title>dra.func_80134F50&#45;&gt;dra.func_8013461C</title>
<path fill="none" stroke="black" d="M2042.73,-183.33C2182.93,-150.92 2534.87,-69.56 2684.52,-34.97"/>
<polygon fill="black" stroke="black" points="2685.56,-38.32 2694.51,-32.66 2683.98,-31.5 2685.56,-38.32"/>
<text text-anchor="middle" x="2689.51" y="-36.46" font-family="Times,serif" font-size="14.00">2</text>
</g>
<!-- dra.func_801349F4 -->
<g id="node15" class="node">
<title>dra.func_801349F4</title>
<g id="a_node15"><a xlink:href="dra.func_801349F4.svg" xlink:title="dra.func_801349F4">
<ellipse fill="green" stroke="black" cx="2973.59" cy="-18" rx="100.98" ry="18"/>
<text text-anchor="middle" x="2973.59" y="-14.3" font-family="Times,serif" font-size="14.00">dra.func_801349F4</text>
</a>
</g>
</g>
<!-- dra.func_80134F50&#45;&gt;dra.func_801349F4 -->
<g id="edge14" class="edge">
<title>dra.func_80134F50&#45;&gt;dra.func_801349F4</title>
<path fill="none" stroke="black" d="M2052.03,-184.7C2229.95,-152.7 2706.3,-67.06 2895.02,-33.13"/>
<polygon fill="black" stroke="black" points="2895.92,-36.52 2905.14,-31.31 2894.68,-29.63 2895.92,-36.52"/>
<text text-anchor="middle" x="2900.14" y="-35.11" font-family="Times,serif" font-size="14.00">1</text>
</g>
<!-- dra.func_80134B48 -->
<g id="node16" class="node">
<title>dra.func_80134B48</title>
<g id="a_node16"><a xlink:href="dra.func_80134B48.svg" xlink:title="dra.func_80134B48">
<ellipse fill="green" stroke="black" cx="3193.59" cy="-18" rx="101.28" ry="18"/>
<text text-anchor="middle" x="3193.59" y="-14.3" font-family="Times,serif" font-size="14.00">dra.func_80134B48</text>
</a>
</g>
</g>
<!-- dra.func_80134F50&#45;&gt;dra.func_80134B48 -->
<g id="edge15" class="edge">
<title>dra.func_80134F50&#45;&gt;dra.func_80134B48</title>
<path fill="none" stroke="black" d="M2059.64,-186.08C2238.35,-160.38 2699.01,-93.86 3083.59,-36 3092.13,-34.72 3101.04,-33.36 3109.93,-32"/>
<polygon fill="black" stroke="black" points="3110.58,-35.44 3119.94,-30.47 3109.52,-28.52 3110.58,-35.44"/>
<text text-anchor="middle" x="3114.94" y="-34.27" font-family="Times,serif" font-size="14.00">1</text>
</g>
<!-- dra.func_80134C60 -->
<g id="node17" class="node">
<title>dra.func_80134C60</title>
<g id="a_node17"><a xlink:href="dra.func_80134C60.svg" xlink:title="dra.func_80134C60">
<ellipse fill="green" stroke="black" cx="3414.59" cy="-18" rx="101.28" ry="18"/>
<text text-anchor="middle" x="3414.59" y="-14.3" font-family="Times,serif" font-size="14.00">dra.func_80134C60</text>
</a>
</g>
</g>
<!-- dra.func_80134F50&#45;&gt;dra.func_80134C60 -->
<g id="edge16" class="edge">
<title>dra.func_80134F50&#45;&gt;dra.func_80134C60</title>
<path fill="none" stroke="black" d="M2066.72,-187.76C2275.14,-164.38 2836.73,-100.21 3303.59,-36 3312.6,-34.76 3322.01,-33.41 3331.37,-32.03"/>
<polygon fill="black" stroke="black" points="3332.12,-35.45 3341.49,-30.52 3331.09,-28.53 3332.12,-35.45"/>
<text text-anchor="middle" x="3336.49" y="-34.32" font-family="Times,serif" font-size="14.00">1</text>
</g>
<!-- dra.func_80134D14 -->
<g id="node18" class="node">
<title>dra.func_80134D14</title>
<g id="a_node18"><a xlink:href="dra.func_80134D14.svg" xlink:title="dra.func_80134D14">
<ellipse fill="green" stroke="black" cx="3635.59" cy="-18" rx="102.08" ry="18"/>
<text text-anchor="middle" x="3635.59" y="-14.3" font-family="Times,serif" font-size="14.00">dra.func_80134D14</text>
</a>
</g>
</g>
<!-- dra.func_80134F50&#45;&gt;dra.func_80134D14 -->
<g id="edge17" class="edge">
<title>dra.func_80134F50&#45;&gt;dra.func_80134D14</title>
<path fill="none" stroke="black" d="M2071.93,-189.26C2308.05,-168.26 2973.34,-106.97 3524.59,-36 3533.78,-34.82 3543.37,-33.49 3552.91,-32.11"/>
<polygon fill="black" stroke="black" points="3553.43,-35.57 3562.82,-30.66 3552.41,-28.64 3553.43,-35.57"/>
<text text-anchor="middle" x="3557.82" y="-34.46" font-family="Times,serif" font-size="14.00">1</text>
</g>
<!-- dra.func_80134E64 -->
<g id="node19" class="node">
<title>dra.func_80134E64</title>
<g id="a_node19"><a xlink:href="dra.func_80134E64.svg" xlink:title="dra.func_80134E64">
<ellipse fill="green" stroke="black" cx="3856.59" cy="-18" rx="101.28" ry="18"/>
<text text-anchor="middle" x="3856.59" y="-14.3" font-family="Times,serif" font-size="14.00">dra.func_80134E64</text>
</a>
</g>
</g>
<!-- dra.func_80134F50&#45;&gt;dra.func_80134E64 -->
<g id="edge18" class="edge">
<title>dra.func_80134F50&#45;&gt;dra.func_80134E64</title>
<path fill="none" stroke="black" d="M2075.57,-190.63C2337.41,-172.06 3109.02,-114.3 3746.59,-36 3755.68,-34.88 3765.16,-33.6 3774.6,-32.25"/>
<polygon fill="black" stroke="black" points="3775.4,-35.67 3784.79,-30.76 3774.39,-28.74 3775.4,-35.67"/>
<text text-anchor="middle" x="3779.79" y="-34.56" font-family="Times,serif" font-size="14.00">1</text>
</g>
<!-- dra.func_801361F8 -->
<g id="node20" class="node">
<title>dra.func_801361F8</title>
<g id="a_node20"><a xlink:href="dra.func_801361F8.svg" xlink:title="dra.func_801361F8">
<ellipse fill="green" stroke="black" cx="1983.59" cy="-378" rx="100.98" ry="18"/>
<text text-anchor="middle" x="1983.59" y="-374.3" font-family="Times,serif" font-size="14.00">dra.func_801361F8</text>
</a>
</g>
</g>
<!-- dra.func_801361F8&#45;&gt;dra.func_80134F50 -->
<g id="edge19" class="edge">
<title>dra.func_801361F8&#45;&gt;dra.func_80134F50</title>
<path fill="none" stroke="black" d="M1983.59,-359.93C1983.59,-328.97 1983.59,-263.3 1983.59,-226.13"/>
<polygon fill="black" stroke="black" points="1987.09,-226.02 1983.59,-216.02 1980.09,-226.02 1987.09,-226.02"/>
<text text-anchor="middle" x="1978.59" y="-348.73" font-family="Times,serif" font-size="14.00">1</text>
</g>
</g>
</svg>
