<?xml version="1.0" encoding="UTF-8" standalone="no"?>
<!DOCTYPE svg PUBLIC "-//W3C//DTD SVG 1.1//EN"
 "http://www.w3.org/Graphics/SVG/1.1/DTD/svg11.dtd">
<!-- Generated by graphviz version 2.43.0 (0)
 -->
<!-- Title: dra.EntityHitByLightning Pages: 1 -->
<svg width="798pt" height="224pt"
 viewBox="0.00 0.00 798.33 224.00" xmlns="http://www.w3.org/2000/svg" xmlns:xlink="http://www.w3.org/1999/xlink">
<g id="graph0" class="graph" transform="scale(1 1) rotate(0) translate(4 220)">
<title>dra.EntityHitByLightning</title>
<polygon fill="white" stroke="transparent" points="-4,4 -4,-220 794.33,-220 794.33,4 -4,4"/>
<!-- dra.EntityHitByLightning -->
<g id="node1" class="node">
<title>dra.EntityHitByLightning</title>
<ellipse fill="red" stroke="black" cx="419.44" cy="-198" rx="129.98" ry="18"/>
<text text-anchor="middle" x="419.44" y="-194.3" font-family="Times,serif" font-size="14.00">dra.EntityHitByLightning</text>
</g>
<!-- dra.AllocPrimitives -->
<g id="node2" class="node">
<title>dra.AllocPrimitives</title>
<g id="a_node2"><a xlink:href="dra.AllocPrimitives.svg" xlink:title="dra.AllocPrimitives">
<ellipse fill="green" stroke="black" cx="99.44" cy="-18" rx="99.38" ry="18"/>
<text text-anchor="middle" x="99.44" y="-14.3" font-family="Times,serif" font-size="14.00">dra.AllocPrimitives</text>
</a>
</g>
</g>
<!-- dra.EntityHitByLightning&#45;&gt;dra.AllocPrimitives -->
<g id="edge1" class="edge">
<title>dra.EntityHitByLightning&#45;&gt;dra.AllocPrimitives</title>
<path fill="none" stroke="black" d="M389.62,-180.41C331.36,-148 202.46,-76.3 137.88,-40.38"/>
<polygon fill="black" stroke="black" points="139.28,-37.15 128.84,-35.35 135.87,-43.27 139.28,-37.15"/>
<text text-anchor="middle" x="123.84" y="-39.15" font-family="Times,serif" font-size="14.00">1</text>
</g>
<!-- rand -->
<g id="node3" class="node">
<title>rand</title>
<g id="a_node3"><a xlink:href="rand.svg" xlink:title="rand">
<ellipse fill="lightblue" stroke="black" cx="249.44" cy="-18" rx="32.49" ry="18"/>
<text text-anchor="middle" x="249.44" y="-14.3" font-family="Times,serif" font-size="14.00">rand</text>
</a>
</g>
</g>
<!-- dra.EntityHitByLightning&#45;&gt;rand -->
<g id="edge2" class="edge">
<title>dra.EntityHitByLightning&#45;&gt;rand</title>
<path fill="none" stroke="black" d="M403.14,-179.93C372.39,-147.74 305.81,-78.02 271.25,-41.84"/>
<polygon fill="black" stroke="black" points="273.43,-39.05 263.99,-34.23 268.36,-43.88 273.43,-39.05"/>
<text text-anchor="middle" x="273.49" y="-38.03" font-family="Times,serif" font-size="14.00">11</text>
</g>
<!-- dra.PlaySfx -->
<g id="node4" class="node">
<title>dra.PlaySfx</title>
<g id="a_node4"><a xlink:href="dra.PlaySfx.svg" xlink:title="dra.PlaySfx">
<ellipse fill="green" stroke="black" cx="364.44" cy="-18" rx="64.19" ry="18"/>
<text text-anchor="middle" x="364.44" y="-14.3" font-family="Times,serif" font-size="14.00">dra.PlaySfx</text>
</a>
</g>
</g>
<!-- dra.EntityHitByLightning&#45;&gt;dra.PlaySfx -->
<g id="edge3" class="edge">
<title>dra.EntityHitByLightning&#45;&gt;dra.PlaySfx</title>
<path fill="none" stroke="black" d="M414.17,-179.93C404.56,-148.83 384.13,-82.73 372.68,-45.65"/>
<polygon fill="black" stroke="black" points="376,-44.54 369.7,-36.02 369.31,-46.6 376,-44.54"/>
<text text-anchor="middle" x="364.7" y="-39.82" font-family="Times,serif" font-size="14.00">2</text>
</g>
<!-- rsin -->
<g id="node5" class="node">
<title>rsin</title>
<g id="a_node5"><a xlink:href="rsin.svg" xlink:title="rsin">
<ellipse fill="lightblue" stroke="black" cx="475.44" cy="-18" rx="28.7" ry="18"/>
<text text-anchor="middle" x="475.44" y="-14.3" font-family="Times,serif" font-size="14.00">rsin</text>
</a>
</g>
</g>
<!-- dra.EntityHitByLightning&#45;&gt;rsin -->
<g id="edge4" class="edge">
<title>dra.EntityHitByLightning&#45;&gt;rsin</title>
<path fill="none" stroke="black" d="M424.81,-179.93C434.62,-148.75 455.5,-82.4 467.15,-45.37"/>
<polygon fill="black" stroke="black" points="470.51,-46.35 470.17,-35.76 463.83,-44.24 470.51,-46.35"/>
<text text-anchor="middle" x="465.17" y="-39.56" font-family="Times,serif" font-size="14.00">7</text>
</g>
<!-- rcos -->
<g id="node6" class="node">
<title>rcos</title>
<g id="a_node6"><a xlink:href="rcos.svg" xlink:title="rcos">
<ellipse fill="lightblue" stroke="black" cx="552.44" cy="-18" rx="30.59" ry="18"/>
<text text-anchor="middle" x="552.44" y="-14.3" font-family="Times,serif" font-size="14.00">rcos</text>
</a>
</g>
</g>
<!-- dra.EntityHitByLightning&#45;&gt;rcos -->
<g id="edge5" class="edge">
<title>dra.EntityHitByLightning&#45;&gt;rcos</title>
<path fill="none" stroke="black" d="M432.19,-179.93C456.03,-148.03 507.38,-79.3 534.63,-42.84"/>
<polygon fill="black" stroke="black" points="537.5,-44.84 540.69,-34.73 531.9,-40.65 537.5,-44.84"/>
<text text-anchor="middle" x="535.69" y="-38.53" font-family="Times,serif" font-size="14.00">4</text>
</g>
<!-- dra.DestroyEntity -->
<g id="node7" class="node">
<title>dra.DestroyEntity</title>
<g id="a_node7"><a xlink:href="dra.DestroyEntity.svg" xlink:title="dra.DestroyEntity">
<ellipse fill="green" stroke="black" cx="695.44" cy="-18" rx="94.78" ry="18"/>
<text text-anchor="middle" x="695.44" y="-14.3" font-family="Times,serif" font-size="14.00">dra.DestroyEntity</text>
</a>
</g>
</g>
<!-- dra.EntityHitByLightning&#45;&gt;dra.DestroyEntity -->
<g id="edge6" class="edge">
<title>dra.EntityHitByLightning&#45;&gt;dra.DestroyEntity</title>
<path fill="none" stroke="black" d="M445.41,-180.25C495.47,-147.97 605.31,-77.13 661.25,-41.05"/>
<polygon fill="black" stroke="black" points="663.24,-43.93 669.75,-35.57 659.44,-38.05 663.24,-43.93"/>
<text text-anchor="middle" x="664.75" y="-39.37" font-family="Times,serif" font-size="14.00">1</text>
</g>
</g>
</svg>
