<?xml version="1.0" encoding="UTF-8" standalone="no"?>
<!DOCTYPE svg PUBLIC "-//W3C//DTD SVG 1.1//EN"
 "http://www.w3.org/Graphics/SVG/1.1/DTD/svg11.dtd">
<!-- Generated by graphviz version 2.43.0 (0)
 -->
<!-- Title: dra.func_8010189C Pages: 1 -->
<svg width="1007pt" height="404pt"
 viewBox="0.00 0.00 1007.39 404.00" xmlns="http://www.w3.org/2000/svg" xmlns:xlink="http://www.w3.org/1999/xlink">
<g id="graph0" class="graph" transform="scale(1 1) rotate(0) translate(4 400)">
<title>dra.func_8010189C</title>
<polygon fill="white" stroke="transparent" points="-4,4 -4,-400 1003.39,-400 1003.39,4 -4,4"/>
<!-- dra.func_8010189C -->
<g id="node1" class="node">
<title>dra.func_8010189C</title>
<ellipse fill="green" stroke="black" cx="591.89" cy="-198" rx="101.28" ry="18"/>
<text text-anchor="middle" x="591.89" y="-194.3" font-family="Times,serif" font-size="14.00">dra.func_8010189C</text>
</g>
<!-- dra.DrawHudRichter -->
<g id="node2" class="node">
<title>dra.DrawHudRichter</title>
<g id="a_node2"><a xlink:href="dra.DrawHudRichter.svg" xlink:title="dra.DrawHudRichter">
<ellipse fill="green" stroke="black" cx="107.89" cy="-18" rx="107.78" ry="18"/>
<text text-anchor="middle" x="107.89" y="-14.3" font-family="Times,serif" font-size="14.00">dra.DrawHudRichter</text>
</a>
</g>
</g>
<!-- dra.func_8010189C&#45;&gt;dra.DrawHudRichter -->
<g id="edge1" class="edge">
<title>dra.func_8010189C&#45;&gt;dra.DrawHudRichter</title>
<path fill="none" stroke="black" d="M549.79,-181.52C461.29,-148.97 256.23,-73.55 159.79,-38.09"/>
<polygon fill="black" stroke="black" points="160.84,-34.74 150.24,-34.58 158.42,-41.31 160.84,-34.74"/>
<text text-anchor="middle" x="145.24" y="-38.38" font-family="Times,serif" font-size="14.00">1</text>
</g>
<!-- dra.func_800EDD9C -->
<g id="node3" class="node">
<title>dra.func_800EDD9C</title>
<g id="a_node3"><a xlink:href="dra.func_800EDD9C.svg" xlink:title="dra.func_800EDD9C">
<ellipse fill="green" stroke="black" cx="338.89" cy="-18" rx="105.08" ry="18"/>
<text text-anchor="middle" x="338.89" y="-14.3" font-family="Times,serif" font-size="14.00">dra.func_800EDD9C</text>
</a>
</g>
</g>
<!-- dra.func_8010189C&#45;&gt;dra.func_800EDD9C -->
<g id="edge2" class="edge">
<title>dra.func_8010189C&#45;&gt;dra.func_800EDD9C</title>
<path fill="none" stroke="black" d="M568.09,-180.25C522.39,-148.1 422.34,-77.71 370.87,-41.5"/>
<polygon fill="black" stroke="black" points="372.64,-38.46 362.44,-35.57 368.61,-44.19 372.64,-38.46"/>
<text text-anchor="middle" x="357.44" y="-39.37" font-family="Times,serif" font-size="14.00">1</text>
</g>
<!-- dra.SetTexturedPrimRect -->
<g id="node4" class="node">
<title>dra.SetTexturedPrimRect</title>
<g id="a_node4"><a xlink:href="dra.SetTexturedPrimRect.svg" xlink:title="dra.SetTexturedPrimRect">
<ellipse fill="green" stroke="black" cx="591.89" cy="-18" rx="129.98" ry="18"/>
<text text-anchor="middle" x="591.89" y="-14.3" font-family="Times,serif" font-size="14.00">dra.SetTexturedPrimRect</text>
</a>
</g>
</g>
<!-- dra.func_8010189C&#45;&gt;dra.SetTexturedPrimRect -->
<g id="edge3" class="edge">
<title>dra.func_8010189C&#45;&gt;dra.SetTexturedPrimRect</title>
<path fill="none" stroke="black" d="M591.89,-179.93C591.89,-148.97 591.89,-83.3 591.89,-46.13"/>
<polygon fill="black" stroke="black" points="595.39,-46.02 591.89,-36.02 588.39,-46.02 595.39,-46.02"/>
<text text-anchor="middle" x="586.89" y="-39.82" font-family="Times,serif" font-size="14.00">1</text>
</g>
<!-- dra.SetPrimRect -->
<g id="node5" class="node">
<title>dra.SetPrimRect</title>
<g id="a_node5"><a xlink:href="dra.SetPrimRect.svg" xlink:title="dra.SetPrimRect">
<ellipse fill="green" stroke="black" cx="827.89" cy="-18" rx="88.28" ry="18"/>
<text text-anchor="middle" x="827.89" y="-14.3" font-family="Times,serif" font-size="14.00">dra.SetPrimRect</text>
</a>
</g>
</g>
<!-- dra.func_8010189C&#45;&gt;dra.SetPrimRect -->
<g id="edge4" class="edge">
<title>dra.func_8010189C&#45;&gt;dra.SetPrimRect</title>
<path fill="none" stroke="black" d="M614.09,-180.25C656.63,-148.17 749.67,-78 797.76,-41.72"/>
<polygon fill="black" stroke="black" points="800.04,-44.39 805.92,-35.57 795.83,-38.8 800.04,-44.39"/>
<text text-anchor="middle" x="800.92" y="-39.37" font-family="Times,serif" font-size="14.00">1</text>
</g>
<!-- rand -->
<g id="node6" class="node">
<title>rand</title>
<g id="a_node6"><a xlink:href="rand.svg" xlink:title="rand">
<ellipse fill="lightblue" stroke="black" cx="966.89" cy="-18" rx="32.49" ry="18"/>
<text text-anchor="middle" x="966.89" y="-14.3" font-family="Times,serif" font-size="14.00">rand</text>
</a>
</g>
</g>
<!-- dra.func_8010189C&#45;&gt;rand -->
<g id="edge5" class="edge">
<title>dra.func_8010189C&#45;&gt;rand</title>
<path fill="none" stroke="black" d="M625.83,-180.89C697.29,-146.97 862.5,-68.55 933.49,-34.85"/>
<polygon fill="black" stroke="black" points="935.33,-37.86 942.86,-30.41 932.33,-31.53 935.33,-37.86"/>
<text text-anchor="middle" x="937.86" y="-34.21" font-family="Times,serif" font-size="14.00">2</text>
</g>
<!-- dra.func_800F298C -->
<g id="node7" class="node">
<title>dra.func_800F298C</title>
<g id="a_node7"><a xlink:href="dra.func_800F298C.svg" xlink:title="dra.func_800F298C">
<ellipse fill="red" stroke="black" cx="591.89" cy="-378" rx="102.08" ry="18"/>
<text text-anchor="middle" x="591.89" y="-374.3" font-family="Times,serif" font-size="14.00">dra.func_800F298C</text>
</a>
</g>
</g>
<!-- dra.func_800F298C&#45;&gt;dra.func_8010189C -->
<g id="edge6" class="edge">
<title>dra.func_800F298C&#45;&gt;dra.func_8010189C</title>
<path fill="none" stroke="black" d="M591.89,-359.93C591.89,-328.97 591.89,-263.3 591.89,-226.13"/>
<polygon fill="black" stroke="black" points="595.39,-226.02 591.89,-216.02 588.39,-226.02 595.39,-226.02"/>
<text text-anchor="middle" x="586.89" y="-348.73" font-family="Times,serif" font-size="14.00">1</text>
</g>
</g>
</svg>
