<?xml version="1.0" encoding="UTF-8" standalone="no"?>
<!DOCTYPE svg PUBLIC "-//W3C//DTD SVG 1.1//EN"
 "http://www.w3.org/Graphics/SVG/1.1/DTD/svg11.dtd">
<!-- Generated by graphviz version 2.43.0 (0)
 -->
<!-- Title: dra.func_80119E78 Pages: 1 -->
<svg width="820pt" height="224pt"
 viewBox="0.00 0.00 819.62 224.00" xmlns="http://www.w3.org/2000/svg" xmlns:xlink="http://www.w3.org/1999/xlink">
<g id="graph0" class="graph" transform="scale(1 1) rotate(0) translate(4 220)">
<title>dra.func_80119E78</title>
<polygon fill="white" stroke="transparent" points="-4,4 -4,-220 815.62,-220 815.62,4 -4,4"/>
<!-- dra.func_80119E78 -->
<g id="node1" class="node">
<title>dra.func_80119E78</title>
<ellipse fill="green" stroke="black" cx="312.84" cy="-18" rx="101.28" ry="18"/>
<text text-anchor="middle" x="312.84" y="-14.3" font-family="Times,serif" font-size="14.00">dra.func_80119E78</text>
</g>
<!-- dra.EntityTeleport -->
<g id="node2" class="node">
<title>dra.EntityTeleport</title>
<g id="a_node2"><a xlink:href="dra.EntityTeleport.svg" xlink:title="dra.EntityTeleport">
<ellipse fill="red" stroke="black" cx="96.84" cy="-198" rx="96.68" ry="18"/>
<text text-anchor="middle" x="96.84" y="-194.3" font-family="Times,serif" font-size="14.00">dra.EntityTeleport</text>
</a>
</g>
</g>
<!-- dra.EntityTeleport&#45;&gt;dra.func_80119E78 -->
<g id="edge1" class="edge">
<title>dra.EntityTeleport&#45;&gt;dra.func_80119E78</title>
<path fill="none" stroke="black" d="M117.16,-180.25C155.92,-148.32 240.46,-78.65 284.66,-42.23"/>
<polygon fill="black" stroke="black" points="286.93,-44.89 292.42,-35.83 282.47,-39.49 286.93,-44.89"/>
<text text-anchor="middle" x="112.16" y="-169.05" font-family="Times,serif" font-size="14.00">1</text>
</g>
<!-- dra.func_80119F70 -->
<g id="node3" class="node">
<title>dra.func_80119F70</title>
<g id="a_node3"><a xlink:href="dra.func_80119F70.svg" xlink:title="dra.func_80119F70">
<ellipse fill="red" stroke="black" cx="312.84" cy="-198" rx="100.98" ry="18"/>
<text text-anchor="middle" x="312.84" y="-194.3" font-family="Times,serif" font-size="14.00">dra.func_80119F70</text>
</a>
</g>
</g>
<!-- dra.func_80119F70&#45;&gt;dra.func_80119E78 -->
<g id="edge2" class="edge">
<title>dra.func_80119F70&#45;&gt;dra.func_80119E78</title>
<path fill="none" stroke="black" d="M312.84,-179.93C312.84,-148.97 312.84,-83.3 312.84,-46.13"/>
<polygon fill="black" stroke="black" points="316.34,-46.02 312.84,-36.02 309.34,-46.02 316.34,-46.02"/>
<text text-anchor="middle" x="307.84" y="-168.73" font-family="Times,serif" font-size="14.00">1</text>
</g>
<!-- dra.EntitySubwpnCrashCrossParticles -->
<g id="node4" class="node">
<title>dra.EntitySubwpnCrashCrossParticles</title>
<g id="a_node4"><a xlink:href="dra.EntitySubwpnCrashCrossParticles.svg" xlink:title="dra.EntitySubwpnCrashCrossParticles">
<ellipse fill="green" stroke="black" cx="621.84" cy="-198" rx="189.57" ry="18"/>
<text text-anchor="middle" x="621.84" y="-194.3" font-family="Times,serif" font-size="14.00">dra.EntitySubwpnCrashCrossParticles</text>
</a>
</g>
</g>
<!-- dra.EntitySubwpnCrashCrossParticles&#45;&gt;dra.func_80119E78 -->
<g id="edge3" class="edge">
<title>dra.EntitySubwpnCrashCrossParticles&#45;&gt;dra.func_80119E78</title>
<path fill="none" stroke="black" d="M592.49,-180.09C536.06,-147.59 412.52,-76.42 350.27,-40.56"/>
<polygon fill="black" stroke="black" points="351.96,-37.49 341.54,-35.53 348.46,-43.56 351.96,-37.49"/>
<text text-anchor="middle" x="587.49" y="-168.89" font-family="Times,serif" font-size="14.00">1</text>
</g>
</g>
</svg>
