<?xml version="1.0" encoding="UTF-8" standalone="no"?>
<!DOCTYPE svg PUBLIC "-//W3C//DTD SVG 1.1//EN"
 "http://www.w3.org/Graphics/SVG/1.1/DTD/svg11.dtd">
<!-- Generated by graphviz version 2.43.0 (0)
 -->
<!-- Title: dra.func_80109990 Pages: 1 -->
<svg width="360pt" height="404pt"
 viewBox="0.00 0.00 360.04 404.00" xmlns="http://www.w3.org/2000/svg" xmlns:xlink="http://www.w3.org/1999/xlink">
<g id="graph0" class="graph" transform="scale(1 1) rotate(0) translate(4 400)">
<title>dra.func_80109990</title>
<polygon fill="white" stroke="transparent" points="-4,4 -4,-400 356.04,-400 356.04,4 -4,4"/>
<!-- dra.func_80109990 -->
<g id="node1" class="node">
<title>dra.func_80109990</title>
<ellipse fill="green" stroke="black" cx="156.34" cy="-198" rx="100.98" ry="18"/>
<text text-anchor="middle" x="156.34" y="-194.3" font-family="Times,serif" font-size="14.00">dra.func_80109990</text>
</g>
<!-- dra.PlaySfx -->
<g id="node2" class="node">
<title>dra.PlaySfx</title>
<g id="a_node2"><a xlink:href="dra.PlaySfx.svg" xlink:title="dra.PlaySfx">
<ellipse fill="green" stroke="black" cx="64.34" cy="-18" rx="64.19" ry="18"/>
<text text-anchor="middle" x="64.34" y="-14.3" font-family="Times,serif" font-size="14.00">dra.PlaySfx</text>
</a>
</g>
</g>
<!-- dra.func_80109990&#45;&gt;dra.PlaySfx -->
<g id="edge1" class="edge">
<title>dra.func_80109990&#45;&gt;dra.PlaySfx</title>
<path fill="none" stroke="black" d="M147.52,-179.93C131.38,-148.7 96.99,-82.17 77.87,-45.18"/>
<polygon fill="black" stroke="black" points="80.84,-43.29 73.14,-36.02 74.62,-46.51 80.84,-43.29"/>
<text text-anchor="middle" x="68.14" y="-39.82" font-family="Times,serif" font-size="14.00">1</text>
</g>
<!-- dra.func_8011AAFC -->
<g id="node3" class="node">
<title>dra.func_8011AAFC</title>
<g id="a_node3"><a xlink:href="dra.func_8011AAFC.svg" xlink:title="dra.func_8011AAFC">
<ellipse fill="green" stroke="black" cx="249.34" cy="-18" rx="102.88" ry="18"/>
<text text-anchor="middle" x="249.34" y="-14.3" font-family="Times,serif" font-size="14.00">dra.func_8011AAFC</text>
</a>
</g>
</g>
<!-- dra.func_80109990&#45;&gt;dra.func_8011AAFC -->
<g id="edge2" class="edge">
<title>dra.func_80109990&#45;&gt;dra.func_8011AAFC</title>
<path fill="none" stroke="black" d="M165.26,-179.93C181.58,-148.7 216.34,-82.17 235.67,-45.18"/>
<polygon fill="black" stroke="black" points="238.93,-46.5 240.45,-36.02 232.72,-43.26 238.93,-46.5"/>
<text text-anchor="middle" x="235.45" y="-39.82" font-family="Times,serif" font-size="14.00">1</text>
</g>
<!-- dra.EntityAlucard -->
<g id="node4" class="node">
<title>dra.EntityAlucard</title>
<g id="a_node4"><a xlink:href="dra.EntityAlucard.svg" xlink:title="dra.EntityAlucard">
<ellipse fill="red" stroke="black" cx="156.34" cy="-378" rx="93.68" ry="18"/>
<text text-anchor="middle" x="156.34" y="-374.3" font-family="Times,serif" font-size="14.00">dra.EntityAlucard</text>
</a>
</g>
</g>
<!-- dra.EntityAlucard&#45;&gt;dra.func_80109990 -->
<g id="edge3" class="edge">
<title>dra.EntityAlucard&#45;&gt;dra.func_80109990</title>
<path fill="none" stroke="black" d="M156.34,-359.93C156.34,-328.97 156.34,-263.3 156.34,-226.13"/>
<polygon fill="black" stroke="black" points="159.84,-226.02 156.34,-216.02 152.84,-226.02 159.84,-226.02"/>
<text text-anchor="middle" x="151.34" y="-348.73" font-family="Times,serif" font-size="14.00">1</text>
</g>
</g>
</svg>
