<?xml version="1.0" encoding="UTF-8" standalone="no"?>
<!DOCTYPE svg PUBLIC "-//W3C//DTD SVG 1.1//EN"
 "http://www.w3.org/Graphics/SVG/1.1/DTD/svg11.dtd">
<!-- Generated by graphviz version 2.43.0 (0)
 -->
<!-- Title: dra.func_8012E7A4 Pages: 1 -->
<svg width="1087pt" height="404pt"
 viewBox="0.00 0.00 1086.88 404.00" xmlns="http://www.w3.org/2000/svg" xmlns:xlink="http://www.w3.org/1999/xlink">
<g id="graph0" class="graph" transform="scale(1 1) rotate(0) translate(4 400)">
<title>dra.func_8012E7A4</title>
<polygon fill="white" stroke="transparent" points="-4,4 -4,-400 1082.88,-400 1082.88,4 -4,4"/>
<!-- dra.func_8012E7A4 -->
<g id="node1" class="node">
<title>dra.func_8012E7A4</title>
<ellipse fill="green" stroke="black" cx="528.89" cy="-198" rx="102.08" ry="18"/>
<text text-anchor="middle" x="528.89" y="-194.3" font-family="Times,serif" font-size="14.00">dra.func_8012E7A4</text>
</g>
<!-- dra.DestroyEntity -->
<g id="node2" class="node">
<title>dra.DestroyEntity</title>
<g id="a_node2"><a xlink:href="dra.DestroyEntity.svg" xlink:title="dra.DestroyEntity">
<ellipse fill="green" stroke="black" cx="94.89" cy="-18" rx="94.78" ry="18"/>
<text text-anchor="middle" x="94.89" y="-14.3" font-family="Times,serif" font-size="14.00">dra.DestroyEntity</text>
</a>
</g>
</g>
<!-- dra.func_8012E7A4&#45;&gt;dra.DestroyEntity -->
<g id="edge1" class="edge">
<title>dra.func_8012E7A4&#45;&gt;dra.DestroyEntity</title>
<path fill="none" stroke="black" d="M490.38,-181.2C410.89,-148.6 228.91,-73.96 142.33,-38.46"/>
<polygon fill="black" stroke="black" points="143.59,-35.19 133.01,-34.63 140.93,-41.67 143.59,-35.19"/>
<text text-anchor="middle" x="128.01" y="-38.43" font-family="Times,serif" font-size="14.00">6</text>
</g>
<!-- dra.func_8010E168 -->
<g id="node3" class="node">
<title>dra.func_8010E168</title>
<g id="a_node3"><a xlink:href="dra.func_8010E168.svg" xlink:title="dra.func_8010E168">
<ellipse fill="green" stroke="black" cx="308.89" cy="-18" rx="101.28" ry="18"/>
<text text-anchor="middle" x="308.89" y="-14.3" font-family="Times,serif" font-size="14.00">dra.func_8010E168</text>
</a>
</g>
</g>
<!-- dra.func_8012E7A4&#45;&gt;dra.func_8010E168 -->
<g id="edge2" class="edge">
<title>dra.func_8012E7A4&#45;&gt;dra.func_8010E168</title>
<path fill="none" stroke="black" d="M508.19,-180.25C468.72,-148.32 382.61,-78.65 337.6,-42.23"/>
<polygon fill="black" stroke="black" points="339.67,-39.4 329.69,-35.83 335.27,-44.84 339.67,-39.4"/>
<text text-anchor="middle" x="324.69" y="-39.63" font-family="Times,serif" font-size="14.00">1</text>
</g>
<!-- dra.func_8010FAF4 -->
<g id="node4" class="node">
<title>dra.func_8010FAF4</title>
<g id="a_node4"><a xlink:href="dra.func_8010FAF4.svg" xlink:title="dra.func_8010FAF4">
<ellipse fill="green" stroke="black" cx="528.89" cy="-18" rx="100.98" ry="18"/>
<text text-anchor="middle" x="528.89" y="-14.3" font-family="Times,serif" font-size="14.00">dra.func_8010FAF4</text>
</a>
</g>
</g>
<!-- dra.func_8012E7A4&#45;&gt;dra.func_8010FAF4 -->
<g id="edge3" class="edge">
<title>dra.func_8012E7A4&#45;&gt;dra.func_8010FAF4</title>
<path fill="none" stroke="black" d="M528.89,-179.93C528.89,-148.97 528.89,-83.3 528.89,-46.13"/>
<polygon fill="black" stroke="black" points="532.39,-46.02 528.89,-36.02 525.39,-46.02 532.39,-46.02"/>
<text text-anchor="middle" x="523.89" y="-39.82" font-family="Times,serif" font-size="14.00">1</text>
</g>
<!-- dra.func_8011AAFC -->
<g id="node5" class="node">
<title>dra.func_8011AAFC</title>
<g id="a_node5"><a xlink:href="dra.func_8011AAFC.svg" xlink:title="dra.func_8011AAFC">
<ellipse fill="green" stroke="black" cx="749.89" cy="-18" rx="102.88" ry="18"/>
<text text-anchor="middle" x="749.89" y="-14.3" font-family="Times,serif" font-size="14.00">dra.func_8011AAFC</text>
</a>
</g>
</g>
<!-- dra.func_8012E7A4&#45;&gt;dra.func_8011AAFC -->
<g id="edge4" class="edge">
<title>dra.func_8012E7A4&#45;&gt;dra.func_8011AAFC</title>
<path fill="none" stroke="black" d="M549.68,-180.25C589.34,-148.32 675.84,-78.65 721.05,-42.23"/>
<polygon fill="black" stroke="black" points="723.4,-44.83 728.99,-35.83 719.01,-39.38 723.4,-44.83"/>
<text text-anchor="middle" x="723.99" y="-39.63" font-family="Times,serif" font-size="14.00">1</text>
</g>
<!-- dra.func_8012CED4 -->
<g id="node6" class="node">
<title>dra.func_8012CED4</title>
<g id="a_node6"><a xlink:href="dra.func_8012CED4.svg" xlink:title="dra.func_8012CED4">
<ellipse fill="green" stroke="black" cx="974.89" cy="-18" rx="103.98" ry="18"/>
<text text-anchor="middle" x="974.89" y="-14.3" font-family="Times,serif" font-size="14.00">dra.func_8012CED4</text>
</a>
</g>
</g>
<!-- dra.func_8012E7A4&#45;&gt;dra.func_8012CED4 -->
<g id="edge5" class="edge">
<title>dra.func_8012E7A4&#45;&gt;dra.func_8012CED4</title>
<path fill="none" stroke="black" d="M568.08,-181.36C649.6,-148.82 837.26,-73.93 926.3,-38.39"/>
<polygon fill="black" stroke="black" points="927.64,-41.63 935.63,-34.67 925.05,-35.12 927.64,-41.63"/>
<text text-anchor="middle" x="930.63" y="-38.47" font-family="Times,serif" font-size="14.00">1</text>
</g>
<!-- dra.func_8012EF2C -->
<g id="node7" class="node">
<title>dra.func_8012EF2C</title>
<g id="a_node7"><a xlink:href="dra.func_8012EF2C.svg" xlink:title="dra.func_8012EF2C">
<ellipse fill="green" stroke="black" cx="528.89" cy="-378" rx="102.88" ry="18"/>
<text text-anchor="middle" x="528.89" y="-374.3" font-family="Times,serif" font-size="14.00">dra.func_8012EF2C</text>
</a>
</g>
</g>
<!-- dra.func_8012EF2C&#45;&gt;dra.func_8012E7A4 -->
<g id="edge6" class="edge">
<title>dra.func_8012EF2C&#45;&gt;dra.func_8012E7A4</title>
<path fill="none" stroke="black" d="M528.89,-359.93C528.89,-328.97 528.89,-263.3 528.89,-226.13"/>
<polygon fill="black" stroke="black" points="532.39,-226.02 528.89,-216.02 525.39,-226.02 532.39,-226.02"/>
<text text-anchor="middle" x="523.89" y="-348.73" font-family="Times,serif" font-size="14.00">1</text>
</g>
</g>
</svg>
