<?xml version="1.0" encoding="UTF-8" standalone="no"?>
<!DOCTYPE svg PUBLIC "-//W3C//DTD SVG 1.1//EN"
 "http://www.w3.org/Graphics/SVG/1.1/DTD/svg11.dtd">
<!-- Generated by graphviz version 2.43.0 (0)
 -->
<!-- Title: dra.func_800EA5E4 Pages: 1 -->
<svg width="3429pt" height="224pt"
 viewBox="0.00 0.00 3428.93 224.00" xmlns="http://www.w3.org/2000/svg" xmlns:xlink="http://www.w3.org/1999/xlink">
<g id="graph0" class="graph" transform="scale(1 1) rotate(0) translate(4 220)">
<title>dra.func_800EA5E4</title>
<polygon fill="white" stroke="transparent" points="-4,4 -4,-220 3424.93,-220 3424.93,4 -4,4"/>
<!-- dra.func_800EA5E4 -->
<g id="node1" class="node">
<title>dra.func_800EA5E4</title>
<ellipse fill="green" stroke="black" cx="1742.19" cy="-18" rx="102.88" ry="18"/>
<text text-anchor="middle" x="1742.19" y="-14.3" font-family="Times,serif" font-size="14.00">dra.func_800EA5E4</text>
</g>
<!-- dra.DrawHudAlucard -->
<g id="node2" class="node">
<title>dra.DrawHudAlucard</title>
<g id="a_node2"><a xlink:href="dra.DrawHudAlucard.svg" xlink:title="dra.DrawHudAlucard">
<ellipse fill="green" stroke="black" cx="109.19" cy="-198" rx="109.38" ry="18"/>
<text text-anchor="middle" x="109.19" y="-194.3" font-family="Times,serif" font-size="14.00">dra.DrawHudAlucard</text>
</a>
</g>
</g>
<!-- dra.DrawHudAlucard&#45;&gt;dra.func_800EA5E4 -->
<g id="edge1" class="edge">
<title>dra.DrawHudAlucard&#45;&gt;dra.func_800EA5E4</title>
<path fill="none" stroke="black" d="M187.21,-185.34C200.53,-183.47 214.25,-181.62 227.19,-180 760.52,-113.27 1401.73,-51.03 1643.52,-28.2"/>
<polygon fill="black" stroke="black" points="1644.06,-31.67 1653.69,-27.24 1643.4,-24.7 1644.06,-31.67"/>
<text text-anchor="middle" x="182.21" y="-174.14" font-family="Times,serif" font-size="14.00">1</text>
</g>
<!-- dra.EntityMist -->
<g id="node3" class="node">
<title>dra.EntityMist</title>
<g id="a_node3"><a xlink:href="dra.EntityMist.svg" xlink:title="dra.EntityMist">
<ellipse fill="red" stroke="black" cx="315.19" cy="-198" rx="79.09" ry="18"/>
<text text-anchor="middle" x="315.19" y="-194.3" font-family="Times,serif" font-size="14.00">dra.EntityMist</text>
</a>
</g>
</g>
<!-- dra.EntityMist&#45;&gt;dra.func_800EA5E4 -->
<g id="edge2" class="edge">
<title>dra.EntityMist&#45;&gt;dra.func_800EA5E4</title>
<path fill="none" stroke="black" d="M372.36,-185.34C382.61,-183.43 393.2,-181.56 403.19,-180 865.67,-107.62 1422.45,-50.1 1644.18,-28.37"/>
<polygon fill="black" stroke="black" points="1644.55,-31.85 1654.16,-27.39 1643.87,-24.88 1644.55,-31.85"/>
<text text-anchor="middle" x="367.36" y="-174.14" font-family="Times,serif" font-size="14.00">1</text>
</g>
<!-- dra.func_800E4A14 -->
<g id="node4" class="node">
<title>dra.func_800E4A14</title>
<g id="a_node4"><a xlink:href="dra.func_800E4A14.svg" xlink:title="dra.func_800E4A14">
<ellipse fill="green" stroke="black" cx="514.19" cy="-198" rx="102.08" ry="18"/>
<text text-anchor="middle" x="514.19" y="-194.3" font-family="Times,serif" font-size="14.00">dra.func_800E4A14</text>
</a>
</g>
</g>
<!-- dra.func_800E4A14&#45;&gt;dra.func_800EA5E4 -->
<g id="edge3" class="edge">
<title>dra.func_800E4A14&#45;&gt;dra.func_800EA5E4</title>
<path fill="none" stroke="black" d="M588.21,-185.57C600.56,-183.69 613.23,-181.78 625.19,-180 1008.64,-123 1466.61,-57.94 1654.85,-31.32"/>
<polygon fill="black" stroke="black" points="1655.55,-34.76 1664.97,-29.89 1654.57,-27.83 1655.55,-34.76"/>
<text text-anchor="middle" x="583.21" y="-174.37" font-family="Times,serif" font-size="14.00">1</text>
</g>
<!-- dra.func_800E6FD4 -->
<g id="node5" class="node">
<title>dra.func_800E6FD4</title>
<g id="a_node5"><a xlink:href="dra.func_800E6FD4.svg" xlink:title="dra.func_800E6FD4">
<ellipse fill="green" stroke="black" cx="737.19" cy="-198" rx="103.18" ry="18"/>
<text text-anchor="middle" x="737.19" y="-194.3" font-family="Times,serif" font-size="14.00">dra.func_800E6FD4</text>
</a>
</g>
</g>
<!-- dra.func_800E6FD4&#45;&gt;dra.func_800EA5E4 -->
<g id="edge4" class="edge">
<title>dra.func_800E6FD4&#45;&gt;dra.func_800EA5E4</title>
<path fill="none" stroke="black" d="M807.06,-184.62C988.11,-152.56 1471.62,-66.92 1662.8,-33.06"/>
<polygon fill="black" stroke="black" points="1663.54,-36.48 1672.78,-31.29 1662.32,-29.59 1663.54,-36.48"/>
<text text-anchor="middle" x="802.06" y="-173.42" font-family="Times,serif" font-size="14.00">1</text>
</g>
<!-- dra.func_800EAD0C -->
<g id="node6" class="node">
<title>dra.func_800EAD0C</title>
<g id="a_node6"><a xlink:href="dra.func_800EAD0C.svg" xlink:title="dra.func_800EAD0C">
<ellipse fill="green" stroke="black" cx="963.19" cy="-198" rx="104.78" ry="18"/>
<text text-anchor="middle" x="963.19" y="-194.3" font-family="Times,serif" font-size="14.00">dra.func_800EAD0C</text>
</a>
</g>
</g>
<!-- dra.func_800EAD0C&#45;&gt;dra.func_800EA5E4 -->
<g id="edge5" class="edge">
<title>dra.func_800EAD0C&#45;&gt;dra.func_800EA5E4</title>
<path fill="none" stroke="black" d="M1023.35,-183.25C1165.33,-150.81 1520.72,-69.61 1672.11,-35.01"/>
<polygon fill="black" stroke="black" points="1673.25,-38.34 1682.22,-32.7 1671.69,-31.52 1673.25,-38.34"/>
<text text-anchor="middle" x="1018.35" y="-172.05" font-family="Times,serif" font-size="14.00">6</text>
</g>
<!-- dra.func_800F298C -->
<g id="node7" class="node">
<title>dra.func_800F298C</title>
<g id="a_node7"><a xlink:href="dra.func_800F298C.svg" xlink:title="dra.func_800F298C">
<ellipse fill="red" stroke="black" cx="1188.19" cy="-198" rx="102.08" ry="18"/>
<text text-anchor="middle" x="1188.19" y="-194.3" font-family="Times,serif" font-size="14.00">dra.func_800F298C</text>
</a>
</g>
</g>
<!-- dra.func_800F298C&#45;&gt;dra.func_800EA5E4 -->
<g id="edge6" class="edge">
<title>dra.func_800F298C&#45;&gt;dra.func_800EA5E4</title>
<path fill="none" stroke="black" d="M1234.95,-181.98C1336.36,-149.39 1576.22,-72.33 1685.8,-37.12"/>
<polygon fill="black" stroke="black" points="1686.91,-40.44 1695.36,-34.05 1684.77,-33.77 1686.91,-40.44"/>
<text text-anchor="middle" x="1229.95" y="-170.78" font-family="Times,serif" font-size="14.00">2</text>
</g>
<!-- dra.func_800F6A48 -->
<g id="node8" class="node">
<title>dra.func_800F6A48</title>
<g id="a_node8"><a xlink:href="dra.func_800F6A48.svg" xlink:title="dra.func_800F6A48">
<ellipse fill="green" stroke="black" cx="1409.19" cy="-198" rx="101.28" ry="18"/>
<text text-anchor="middle" x="1409.19" y="-194.3" font-family="Times,serif" font-size="14.00">dra.func_800F6A48</text>
</a>
</g>
</g>
<!-- dra.func_800F6A48&#45;&gt;dra.func_800EA5E4 -->
<g id="edge7" class="edge">
<title>dra.func_800F6A48&#45;&gt;dra.func_800EA5E4</title>
<path fill="none" stroke="black" d="M1439.62,-180.73C1500.04,-148.44 1635.09,-76.25 1702.43,-40.25"/>
<polygon fill="black" stroke="black" points="1704.3,-43.22 1711.47,-35.42 1701,-37.05 1704.3,-43.22"/>
<text text-anchor="middle" x="1434.62" y="-169.53" font-family="Times,serif" font-size="14.00">1</text>
</g>
<!-- dra.func_800FBC24 -->
<g id="node9" class="node">
<title>dra.func_800FBC24</title>
<g id="a_node9"><a xlink:href="dra.func_800FBC24.svg" xlink:title="dra.func_800FBC24">
<ellipse fill="red" stroke="black" cx="1631.19" cy="-198" rx="102.88" ry="18"/>
<text text-anchor="middle" x="1631.19" y="-194.3" font-family="Times,serif" font-size="14.00">dra.func_800FBC24</text>
</a>
</g>
</g>
<!-- dra.func_800FBC24&#45;&gt;dra.func_800EA5E4 -->
<g id="edge8" class="edge">
<title>dra.func_800FBC24&#45;&gt;dra.func_800EA5E4</title>
<path fill="none" stroke="black" d="M1641.83,-179.93C1661.39,-148.57 1703.15,-81.6 1726.16,-44.71"/>
<polygon fill="black" stroke="black" points="1729.26,-46.35 1731.58,-36.02 1723.32,-42.65 1729.26,-46.35"/>
<text text-anchor="middle" x="1636.83" y="-168.73" font-family="Times,serif" font-size="14.00">2</text>
</g>
<!-- dra.func_800FF60C -->
<g id="node10" class="node">
<title>dra.func_800FF60C</title>
<g id="a_node10"><a xlink:href="dra.func_800FF60C.svg" xlink:title="dra.func_800FF60C">
<ellipse fill="green" stroke="black" cx="1854.19" cy="-198" rx="102.88" ry="18"/>
<text text-anchor="middle" x="1854.19" y="-194.3" font-family="Times,serif" font-size="14.00">dra.func_800FF60C</text>
</a>
</g>
</g>
<!-- dra.func_800FF60C&#45;&gt;dra.func_800EA5E4 -->
<g id="edge9" class="edge">
<title>dra.func_800FF60C&#45;&gt;dra.func_800EA5E4</title>
<path fill="none" stroke="black" d="M1843.45,-179.93C1823.72,-148.57 1781.58,-81.6 1758.37,-44.71"/>
<polygon fill="black" stroke="black" points="1761.18,-42.62 1752.9,-36.02 1755.26,-46.34 1761.18,-42.62"/>
<text text-anchor="middle" x="1838.45" y="-168.73" font-family="Times,serif" font-size="14.00">2</text>
</g>
<!-- dra.func_801042C4 -->
<g id="node11" class="node">
<title>dra.func_801042C4</title>
<g id="a_node11"><a xlink:href="dra.func_801042C4.svg" xlink:title="dra.func_801042C4">
<ellipse fill="red" stroke="black" cx="2076.19" cy="-198" rx="101.28" ry="18"/>
<text text-anchor="middle" x="2076.19" y="-194.3" font-family="Times,serif" font-size="14.00">dra.func_801042C4</text>
</a>
</g>
</g>
<!-- dra.func_801042C4&#45;&gt;dra.func_800EA5E4 -->
<g id="edge10" class="edge">
<title>dra.func_801042C4&#45;&gt;dra.func_800EA5E4</title>
<path fill="none" stroke="black" d="M2045.66,-180.73C1985.07,-148.44 1849.61,-76.25 1782.07,-40.25"/>
<polygon fill="black" stroke="black" points="1783.48,-37.04 1773.01,-35.42 1780.19,-43.22 1783.48,-37.04"/>
<text text-anchor="middle" x="2040.66" y="-169.53" font-family="Times,serif" font-size="14.00">3</text>
</g>
<!-- dra.func_80105428 -->
<g id="node12" class="node">
<title>dra.func_80105428</title>
<g id="a_node12"><a xlink:href="dra.func_80105428.svg" xlink:title="dra.func_80105428">
<ellipse fill="red" stroke="black" cx="2296.19" cy="-198" rx="100.98" ry="18"/>
<text text-anchor="middle" x="2296.19" y="-194.3" font-family="Times,serif" font-size="14.00">dra.func_80105428</text>
</a>
</g>
</g>
<!-- dra.func_80105428&#45;&gt;dra.func_800EA5E4 -->
<g id="edge11" class="edge">
<title>dra.func_80105428&#45;&gt;dra.func_800EA5E4</title>
<path fill="none" stroke="black" d="M2249.43,-181.98C2148.02,-149.39 1908.16,-72.33 1798.58,-37.12"/>
<polygon fill="black" stroke="black" points="1799.61,-33.77 1789.02,-34.05 1797.47,-40.44 1799.61,-33.77"/>
<text text-anchor="middle" x="2244.43" y="-170.78" font-family="Times,serif" font-size="14.00">1</text>
</g>
<!-- dra.func_80109594 -->
<g id="node13" class="node">
<title>dra.func_80109594</title>
<g id="a_node13"><a xlink:href="dra.func_80109594.svg" xlink:title="dra.func_80109594">
<ellipse fill="green" stroke="black" cx="2515.19" cy="-198" rx="100.98" ry="18"/>
<text text-anchor="middle" x="2515.19" y="-194.3" font-family="Times,serif" font-size="14.00">dra.func_80109594</text>
</a>
</g>
</g>
<!-- dra.func_80109594&#45;&gt;dra.func_800EA5E4 -->
<g id="edge12" class="edge">
<title>dra.func_80109594&#45;&gt;dra.func_800EA5E4</title>
<path fill="none" stroke="black" d="M2456.14,-183.4C2315.72,-151.07 1962.43,-69.71 1811.88,-35.05"/>
<polygon fill="black" stroke="black" points="1812.36,-31.57 1801.83,-32.73 1810.79,-38.39 1812.36,-31.57"/>
<text text-anchor="middle" x="2451.14" y="-172.2" font-family="Times,serif" font-size="14.00">1</text>
</g>
<!-- dra.func_80117DEC -->
<g id="node14" class="node">
<title>dra.func_80117DEC</title>
<g id="a_node14"><a xlink:href="dra.func_80117DEC.svg" xlink:title="dra.func_80117DEC">
<ellipse fill="red" stroke="black" cx="2738.19" cy="-198" rx="103.98" ry="18"/>
<text text-anchor="middle" x="2738.19" y="-194.3" font-family="Times,serif" font-size="14.00">dra.func_80117DEC</text>
</a>
</g>
</g>
<!-- dra.func_80117DEC&#45;&gt;dra.func_800EA5E4 -->
<g id="edge13" class="edge">
<title>dra.func_80117DEC&#45;&gt;dra.func_800EA5E4</title>
<path fill="none" stroke="black" d="M2668.55,-184.55C2488.9,-152.45 2010.63,-66.97 1821.12,-33.11"/>
<polygon fill="black" stroke="black" points="1821.69,-29.65 1811.23,-31.34 1820.46,-36.54 1821.69,-29.65"/>
<text text-anchor="middle" x="2663.55" y="-173.35" font-family="Times,serif" font-size="14.00">3</text>
</g>
<!-- sel.Update -->
<g id="node15" class="node">
<title>sel.Update</title>
<g id="a_node15"><a xlink:href="sel.Update.svg" xlink:title="sel.Update">
<ellipse fill="red" stroke="black" cx="2921.19" cy="-198" rx="61.19" ry="18"/>
<text text-anchor="middle" x="2921.19" y="-194.3" font-family="Times,serif" font-size="14.00">sel.Update</text>
</a>
</g>
</g>
<!-- sel.Update&#45;&gt;dra.func_800EA5E4 -->
<g id="edge14" class="edge">
<title>sel.Update&#45;&gt;dra.func_800EA5E4</title>
<path fill="none" stroke="black" d="M2876.89,-185.58C2868.39,-183.57 2859.54,-181.62 2851.19,-180 2477.77,-107.72 2027.92,-51.94 1836.16,-29.61"/>
<polygon fill="black" stroke="black" points="1836.45,-26.12 1826.11,-28.45 1835.64,-33.08 1836.45,-26.12"/>
<text text-anchor="middle" x="2871.89" y="-174.38" font-family="Times,serif" font-size="14.00">6</text>
</g>
<!-- sel.func_801AECA0 -->
<g id="node16" class="node">
<title>sel.func_801AECA0</title>
<g id="a_node16"><a xlink:href="sel.func_801AECA0.svg" xlink:title="sel.func_801AECA0">
<ellipse fill="green" stroke="black" cx="3101.19" cy="-198" rx="100.98" ry="18"/>
<text text-anchor="middle" x="3101.19" y="-194.3" font-family="Times,serif" font-size="14.00">sel.func_801AECA0</text>
</a>
</g>
</g>
<!-- sel.func_801AECA0&#45;&gt;dra.func_800EA5E4 -->
<g id="edge15" class="edge">
<title>sel.func_801AECA0&#45;&gt;dra.func_800EA5E4</title>
<path fill="none" stroke="black" d="M3028.45,-185.49C3016.03,-183.6 3003.24,-181.71 2991.19,-180 2559.31,-118.8 2042.01,-55.21 1834.72,-30.12"/>
<polygon fill="black" stroke="black" points="1834.84,-26.61 1824.49,-28.88 1834,-33.56 1834.84,-26.61"/>
<text text-anchor="middle" x="3023.45" y="-174.29" font-family="Times,serif" font-size="14.00">1</text>
</g>
<!-- sel.func_801B60D4 -->
<g id="node17" class="node">
<title>sel.func_801B60D4</title>
<g id="a_node17"><a xlink:href="sel.func_801B60D4.svg" xlink:title="sel.func_801B60D4">
<ellipse fill="green" stroke="black" cx="3320.19" cy="-198" rx="100.98" ry="18"/>
<text text-anchor="middle" x="3320.19" y="-194.3" font-family="Times,serif" font-size="14.00">sel.func_801B60D4</text>
</a>
</g>
</g>
<!-- sel.func_801B60D4&#45;&gt;dra.func_800EA5E4 -->
<g id="edge16" class="edge">
<title>sel.func_801B60D4&#45;&gt;dra.func_800EA5E4</title>
<path fill="none" stroke="black" d="M3248.43,-185.33C3236.03,-183.45 3223.25,-181.6 3211.19,-180 2696.51,-111.7 2077.58,-50.77 1840.84,-28.24"/>
<polygon fill="black" stroke="black" points="1840.82,-24.73 1830.53,-27.27 1840.16,-31.7 1840.82,-24.73"/>
<text text-anchor="middle" x="3243.43" y="-174.13" font-family="Times,serif" font-size="14.00">1</text>
</g>
</g>
</svg>
