<?xml version="1.0" encoding="UTF-8" standalone="no"?>
<!DOCTYPE svg PUBLIC "-//W3C//DTD SVG 1.1//EN"
 "http://www.w3.org/Graphics/SVG/1.1/DTD/svg11.dtd">
<!-- Generated by graphviz version 2.43.0 (0)
 -->
<!-- Title: dra.func_80102CD8 Pages: 1 -->
<svg width="5423pt" height="131pt"
 viewBox="0.00 0.00 5422.73 131.00" xmlns="http://www.w3.org/2000/svg" xmlns:xlink="http://www.w3.org/1999/xlink">
<g id="graph0" class="graph" transform="scale(1 1) rotate(0) translate(4 127)">
<title>dra.func_80102CD8</title>
<polygon fill="white" stroke="transparent" points="-4,4 -4,-127 5418.73,-127 5418.73,4 -4,4"/>
<!-- dra.func_80102CD8 -->
<g id="node1" class="node">
<title>dra.func_80102CD8</title>
<ellipse fill="green" stroke="black" cx="2733.04" cy="-18" rx="102.88" ry="18"/>
<text text-anchor="middle" x="2733.04" y="-14.3" font-family="Times,serif" font-size="14.00">dra.func_80102CD8</text>
</g>
<!-- st0.EntityDraculaFinalForm -->
<g id="node2" class="node">
<title>st0.EntityDraculaFinalForm</title>
<g id="a_node2"><a xlink:href="st0.EntityDraculaFinalForm.svg" xlink:title="st0.EntityDraculaFinalForm">
<ellipse fill="red" stroke="black" cx="141.04" cy="-105" rx="141.07" ry="18"/>
<text text-anchor="middle" x="141.04" y="-101.3" font-family="Times,serif" font-size="14.00">st0.EntityDraculaFinalForm</text>
</a>
</g>
</g>
<!-- st0.EntityDraculaFinalForm&#45;&gt;dra.func_80102CD8 -->
<g id="edge1" class="edge">
<title>st0.EntityDraculaFinalForm&#45;&gt;dra.func_80102CD8</title>
<path fill="none" stroke="black" d="M237.12,-91.73C336.71,-79.61 496.98,-61.8 636.04,-54 1027.37,-32.05 2243.56,-22.27 2620.49,-19.71"/>
<polygon fill="black" stroke="black" points="2620.61,-23.21 2630.59,-19.64 2620.56,-16.21 2620.61,-23.21"/>
<text text-anchor="middle" x="641.04" y="-57.8" font-family="Times,serif" font-size="14.00">3</text>
</g>
<!-- st0.EntityDracula -->
<g id="node3" class="node">
<title>st0.EntityDracula</title>
<g id="a_node3"><a xlink:href="st0.EntityDracula.svg" xlink:title="st0.EntityDracula">
<ellipse fill="red" stroke="black" cx="393.04" cy="-105" rx="92.88" ry="18"/>
<text text-anchor="middle" x="393.04" y="-101.3" font-family="Times,serif" font-size="14.00">st0.EntityDracula</text>
</a>
</g>
</g>
<!-- st0.EntityDracula&#45;&gt;dra.func_80102CD8 -->
<g id="edge2" class="edge">
<title>st0.EntityDracula&#45;&gt;dra.func_80102CD8</title>
<path fill="none" stroke="black" d="M459.05,-92.28C471,-90.36 483.38,-88.51 495.04,-87 653.06,-66.56 692.94,-62.82 852.04,-54 1199.19,-34.75 2269.88,-23.31 2620.56,-20.01"/>
<polygon fill="black" stroke="black" points="2620.76,-23.5 2630.73,-19.91 2620.69,-16.5 2620.76,-23.5"/>
<text text-anchor="middle" x="857.04" y="-57.8" font-family="Times,serif" font-size="14.00">1</text>
</g>
<!-- np3.EntityHammer -->
<g id="node4" class="node">
<title>np3.EntityHammer</title>
<g id="a_node4"><a xlink:href="np3.EntityHammer.svg" xlink:title="np3.EntityHammer">
<ellipse fill="red" stroke="black" cx="605.04" cy="-105" rx="100.98" ry="18"/>
<text text-anchor="middle" x="605.04" y="-101.3" font-family="Times,serif" font-size="14.00">np3.EntityHammer</text>
</a>
</g>
</g>
<!-- np3.EntityHammer&#45;&gt;dra.func_80102CD8 -->
<g id="edge3" class="edge">
<title>np3.EntityHammer&#45;&gt;dra.func_80102CD8</title>
<path fill="none" stroke="black" d="M676.85,-92.32C689.55,-90.42 702.67,-88.56 715.04,-87 863.47,-68.23 900.69,-62.9 1050.04,-54 1640.14,-18.85 2348.44,-17.4 2619.74,-18.33"/>
<polygon fill="black" stroke="black" points="2619.98,-21.83 2629.99,-18.37 2620,-14.83 2619.98,-21.83"/>
<text text-anchor="middle" x="1055.04" y="-57.8" font-family="Times,serif" font-size="14.00">1</text>
</g>
<!-- np3.EntitySlogra -->
<g id="node5" class="node">
<title>np3.EntitySlogra</title>
<g id="a_node5"><a xlink:href="np3.EntitySlogra.svg" xlink:title="np3.EntitySlogra">
<ellipse fill="green" stroke="black" cx="814.04" cy="-105" rx="90.18" ry="18"/>
<text text-anchor="middle" x="814.04" y="-101.3" font-family="Times,serif" font-size="14.00">np3.EntitySlogra</text>
</a>
</g>
</g>
<!-- np3.EntitySlogra&#45;&gt;dra.func_80102CD8 -->
<g id="edge4" class="edge">
<title>np3.EntitySlogra&#45;&gt;dra.func_80102CD8</title>
<path fill="none" stroke="black" d="M878.1,-92.27C889.71,-90.36 901.71,-88.51 913.04,-87 1067.04,-66.51 1105.95,-63.19 1261.04,-54 1767.57,-24 2373.58,-19.48 2620.27,-18.96"/>
<polygon fill="black" stroke="black" points="2620.33,-22.46 2630.32,-18.94 2620.31,-15.46 2620.33,-22.46"/>
<text text-anchor="middle" x="1266.04" y="-57.8" font-family="Times,serif" font-size="14.00">1</text>
</g>
<!-- nz0.EntitySlogra -->
<g id="node6" class="node">
<title>nz0.EntitySlogra</title>
<g id="a_node6"><a xlink:href="nz0.EntitySlogra.svg" xlink:title="nz0.EntitySlogra">
<ellipse fill="green" stroke="black" cx="1011.04" cy="-105" rx="89.08" ry="18"/>
<text text-anchor="middle" x="1011.04" y="-101.3" font-family="Times,serif" font-size="14.00">nz0.EntitySlogra</text>
</a>
</g>
</g>
<!-- nz0.EntitySlogra&#45;&gt;dra.func_80102CD8 -->
<g id="edge5" class="edge">
<title>nz0.EntitySlogra&#45;&gt;dra.func_80102CD8</title>
<path fill="none" stroke="black" d="M1073.91,-92.21C1085.56,-90.28 1097.64,-88.44 1109.04,-87 1292.61,-63.83 1339.28,-64.01 1524.04,-54 1927.35,-32.14 2407.13,-23.37 2620.78,-20.36"/>
<polygon fill="black" stroke="black" points="2621.11,-23.86 2631.06,-20.22 2621.02,-16.86 2621.11,-23.86"/>
<text text-anchor="middle" x="1529.04" y="-57.8" font-family="Times,serif" font-size="14.00">1</text>
</g>
<!-- nz0.EntityCannonShot -->
<g id="node7" class="node">
<title>nz0.EntityCannonShot</title>
<g id="a_node7"><a xlink:href="nz0.EntityCannonShot.svg" xlink:title="nz0.EntityCannonShot">
<ellipse fill="green" stroke="black" cx="1234.04" cy="-105" rx="115.88" ry="18"/>
<text text-anchor="middle" x="1234.04" y="-101.3" font-family="Times,serif" font-size="14.00">nz0.EntityCannonShot</text>
</a>
</g>
</g>
<!-- nz0.EntityCannonShot&#45;&gt;dra.func_80102CD8 -->
<g id="edge6" class="edge">
<title>nz0.EntityCannonShot&#45;&gt;dra.func_80102CD8</title>
<path fill="none" stroke="black" d="M1316,-92.26C1330.33,-90.38 1345.11,-88.54 1359.04,-87 1529.29,-68.12 1572.06,-64.36 1743.04,-54 2061.26,-34.71 2437.71,-25.01 2621.21,-21.12"/>
<polygon fill="black" stroke="black" points="2621.49,-24.61 2631.41,-20.9 2621.34,-17.61 2621.49,-24.61"/>
<text text-anchor="middle" x="1748.04" y="-57.8" font-family="Times,serif" font-size="14.00">1</text>
</g>
<!-- nz0.EntityCannon -->
<g id="node8" class="node">
<title>nz0.EntityCannon</title>
<g id="a_node8"><a xlink:href="nz0.EntityCannon.svg" xlink:title="nz0.EntityCannon">
<ellipse fill="green" stroke="black" cx="1462.04" cy="-105" rx="94.48" ry="18"/>
<text text-anchor="middle" x="1462.04" y="-101.3" font-family="Times,serif" font-size="14.00">nz0.EntityCannon</text>
</a>
</g>
</g>
<!-- nz0.EntityCannon&#45;&gt;dra.func_80102CD8 -->
<g id="edge7" class="edge">
<title>nz0.EntityCannon&#45;&gt;dra.func_80102CD8</title>
<path fill="none" stroke="black" d="M1528.48,-92.17C1540.93,-90.23 1553.86,-88.4 1566.04,-87 1952.13,-42.73 2413.57,-26.64 2621.62,-21.34"/>
<polygon fill="black" stroke="black" points="2621.73,-24.84 2631.64,-21.09 2621.55,-17.84 2621.73,-24.84"/>
<text text-anchor="middle" x="1923.04" y="-57.8" font-family="Times,serif" font-size="14.00">1</text>
</g>
<!-- w_018.EntityWeaponAttack -->
<g id="node9" class="node">
<title>w_018.EntityWeaponAttack</title>
<g id="a_node9"><a xlink:href="w_018.EntityWeaponAttack.svg" xlink:title="w_018.EntityWeaponAttack">
<ellipse fill="red" stroke="black" cx="1713.04" cy="-105" rx="138.38" ry="18"/>
<text text-anchor="middle" x="1713.04" y="-101.3" font-family="Times,serif" font-size="14.00">w_018.EntityWeaponAttack</text>
</a>
</g>
</g>
<!-- w_018.EntityWeaponAttack&#45;&gt;dra.func_80102CD8 -->
<g id="edge8" class="edge">
<title>w_018.EntityWeaponAttack&#45;&gt;dra.func_80102CD8</title>
<path fill="none" stroke="black" d="M1810.9,-92.25C1827.62,-90.39 1844.82,-88.56 1861.04,-87 2137.89,-60.31 2464.97,-37 2628.68,-25.9"/>
<polygon fill="black" stroke="black" points="2629,-29.39 2638.74,-25.22 2628.53,-22.4 2629,-29.39"/>
<text text-anchor="middle" x="2249.04" y="-57.8" font-family="Times,serif" font-size="14.00">1</text>
</g>
<!-- w_047.EntityWeaponAttack -->
<g id="node10" class="node">
<title>w_047.EntityWeaponAttack</title>
<g id="a_node10"><a xlink:href="w_047.EntityWeaponAttack.svg" xlink:title="w_047.EntityWeaponAttack">
<ellipse fill="red" stroke="black" cx="2008.04" cy="-105" rx="138.38" ry="18"/>
<text text-anchor="middle" x="2008.04" y="-101.3" font-family="Times,serif" font-size="14.00">w_047.EntityWeaponAttack</text>
</a>
</g>
</g>
<!-- w_047.EntityWeaponAttack&#45;&gt;dra.func_80102CD8 -->
<g id="edge9" class="edge">
<title>w_047.EntityWeaponAttack&#45;&gt;dra.func_80102CD8</title>
<path fill="none" stroke="black" d="M2106.95,-92.4C2247.48,-75.93 2503.06,-45.96 2640.2,-29.88"/>
<polygon fill="black" stroke="black" points="2640.74,-33.35 2650.26,-28.7 2639.92,-26.39 2640.74,-33.35"/>
<text text-anchor="middle" x="2419.04" y="-57.8" font-family="Times,serif" font-size="14.00">1</text>
</g>
<!-- w_016.func_ptr_80170014 -->
<g id="node11" class="node">
<title>w_016.func_ptr_80170014</title>
<g id="a_node11"><a xlink:href="w_016.func_ptr_80170014.svg" xlink:title="w_016.func_ptr_80170014">
<ellipse fill="red" stroke="black" cx="2298.04" cy="-105" rx="133.48" ry="18"/>
<text text-anchor="middle" x="2298.04" y="-101.3" font-family="Times,serif" font-size="14.00">w_016.func_ptr_80170014</text>
</a>
</g>
</g>
<!-- w_016.func_ptr_80170014&#45;&gt;dra.func_80102CD8 -->
<g id="edge10" class="edge">
<title>w_016.func_ptr_80170014&#45;&gt;dra.func_80102CD8</title>
<path fill="none" stroke="black" d="M2370.36,-89.87C2449.71,-74.36 2576.51,-49.59 2657.22,-33.82"/>
<polygon fill="black" stroke="black" points="2658.17,-37.2 2667.31,-31.84 2656.83,-30.33 2658.17,-37.2"/>
<text text-anchor="middle" x="2547.04" y="-57.8" font-family="Times,serif" font-size="14.00">4</text>
</g>
<!-- w_017.EntityWeaponAttack -->
<g id="node12" class="node">
<title>w_017.EntityWeaponAttack</title>
<g id="a_node12"><a xlink:href="w_017.EntityWeaponAttack.svg" xlink:title="w_017.EntityWeaponAttack">
<ellipse fill="red" stroke="black" cx="2588.04" cy="-105" rx="138.38" ry="18"/>
<text text-anchor="middle" x="2588.04" y="-101.3" font-family="Times,serif" font-size="14.00">w_017.EntityWeaponAttack</text>
</a>
</g>
</g>
<!-- w_017.EntityWeaponAttack&#45;&gt;dra.func_80102CD8 -->
<g id="edge11" class="edge">
<title>w_017.EntityWeaponAttack&#45;&gt;dra.func_80102CD8</title>
<path fill="none" stroke="black" d="M2616.68,-87.21C2639.47,-73.85 2671.52,-55.06 2696.21,-40.59"/>
<polygon fill="black" stroke="black" points="2698.09,-43.55 2704.94,-35.47 2694.55,-37.51 2698.09,-43.55"/>
<text text-anchor="middle" x="2675.04" y="-57.8" font-family="Times,serif" font-size="14.00">1</text>
</g>
<!-- w_024.func_ptr_80170020 -->
<g id="node13" class="node">
<title>w_024.func_ptr_80170020</title>
<g id="a_node13"><a xlink:href="w_024.func_ptr_80170020.svg" xlink:title="w_024.func_ptr_80170020">
<ellipse fill="red" stroke="black" cx="2878.04" cy="-105" rx="133.48" ry="18"/>
<text text-anchor="middle" x="2878.04" y="-101.3" font-family="Times,serif" font-size="14.00">w_024.func_ptr_80170020</text>
</a>
</g>
</g>
<!-- w_024.func_ptr_80170020&#45;&gt;dra.func_80102CD8 -->
<g id="edge12" class="edge">
<title>w_024.func_ptr_80170020&#45;&gt;dra.func_80102CD8</title>
<path fill="none" stroke="black" d="M2849.74,-87.41C2826.98,-74.07 2794.83,-55.22 2770.04,-40.69"/>
<polygon fill="black" stroke="black" points="2771.66,-37.59 2761.27,-35.55 2768.12,-43.63 2771.66,-37.59"/>
<text text-anchor="middle" x="2820.04" y="-57.8" font-family="Times,serif" font-size="14.00">1</text>
</g>
<!-- w_015.func_ptr_8017000C -->
<g id="node14" class="node">
<title>w_015.func_ptr_8017000C</title>
<g id="a_node14"><a xlink:href="w_015.func_ptr_8017000C.svg" xlink:title="w_015.func_ptr_8017000C">
<ellipse fill="red" stroke="black" cx="3163.04" cy="-105" rx="133.78" ry="18"/>
<text text-anchor="middle" x="3163.04" y="-101.3" font-family="Times,serif" font-size="14.00">w_015.func_ptr_8017000C</text>
</a>
</g>
</g>
<!-- w_015.func_ptr_8017000C&#45;&gt;dra.func_80102CD8 -->
<g id="edge13" class="edge">
<title>w_015.func_ptr_8017000C&#45;&gt;dra.func_80102CD8</title>
<path fill="none" stroke="black" d="M3091.07,-89.77C3012.77,-74.3 2888.15,-49.66 2808.51,-33.92"/>
<polygon fill="black" stroke="black" points="2809.03,-30.45 2798.54,-31.95 2807.67,-37.32 2809.03,-30.45"/>
<text text-anchor="middle" x="2979.04" y="-57.8" font-family="Times,serif" font-size="14.00">1</text>
</g>
<!-- w_030.func_ptr_80170008 -->
<g id="node15" class="node">
<title>w_030.func_ptr_80170008</title>
<g id="a_node15"><a xlink:href="w_030.func_ptr_80170008.svg" xlink:title="w_030.func_ptr_80170008">
<ellipse fill="red" stroke="black" cx="3448.04" cy="-105" rx="133.48" ry="18"/>
<text text-anchor="middle" x="3448.04" y="-101.3" font-family="Times,serif" font-size="14.00">w_030.func_ptr_80170008</text>
</a>
</g>
</g>
<!-- w_030.func_ptr_80170008&#45;&gt;dra.func_80102CD8 -->
<g id="edge14" class="edge">
<title>w_030.func_ptr_80170008&#45;&gt;dra.func_80102CD8</title>
<path fill="none" stroke="black" d="M3351.8,-92.46C3336.49,-90.63 3320.83,-88.76 3306.04,-87 3136.58,-66.8 2938.91,-43.37 2825.62,-29.96"/>
<polygon fill="black" stroke="black" points="2825.94,-26.47 2815.59,-28.77 2825.11,-33.42 2825.94,-26.47"/>
<text text-anchor="middle" x="3154.04" y="-57.8" font-family="Times,serif" font-size="14.00">1</text>
</g>
<!-- ric.func_80158B04 -->
<g id="node16" class="node">
<title>ric.func_80158B04</title>
<g id="a_node16"><a xlink:href="ric.func_80158B04.svg" xlink:title="ric.func_80158B04">
<ellipse fill="green" stroke="black" cx="3697.04" cy="-105" rx="98.28" ry="18"/>
<text text-anchor="middle" x="3697.04" y="-101.3" font-family="Times,serif" font-size="14.00">ric.func_80158B04</text>
</a>
</g>
</g>
<!-- ric.func_80158B04&#45;&gt;dra.func_80102CD8 -->
<g id="edge15" class="edge">
<title>ric.func_80158B04&#45;&gt;dra.func_80102CD8</title>
<path fill="none" stroke="black" d="M3627.79,-92.19C3615.25,-90.28 3602.27,-88.45 3590.04,-87 3320.75,-54.97 3002.01,-34.15 2839.66,-24.77"/>
<polygon fill="black" stroke="black" points="2839.86,-21.27 2829.67,-24.19 2839.46,-28.26 2839.86,-21.27"/>
<text text-anchor="middle" x="3408.04" y="-57.8" font-family="Times,serif" font-size="14.00">1</text>
</g>
<!-- ric.func_80159CE4 -->
<g id="node17" class="node">
<title>ric.func_80159CE4</title>
<g id="a_node17"><a xlink:href="ric.func_80159CE4.svg" xlink:title="ric.func_80159CE4">
<ellipse fill="red" stroke="black" cx="3912.04" cy="-105" rx="98.58" ry="18"/>
<text text-anchor="middle" x="3912.04" y="-101.3" font-family="Times,serif" font-size="14.00">ric.func_80159CE4</text>
</a>
</g>
</g>
<!-- ric.func_80159CE4&#45;&gt;dra.func_80102CD8 -->
<g id="edge16" class="edge">
<title>ric.func_80159CE4&#45;&gt;dra.func_80102CD8</title>
<path fill="none" stroke="black" d="M3842.13,-92.25C3829.48,-90.34 3816.38,-88.5 3804.04,-87 3455.16,-44.72 3038.96,-27.83 2844.04,-21.87"/>
<polygon fill="black" stroke="black" points="2843.9,-18.36 2833.8,-21.56 2843.69,-25.36 2843.9,-18.36"/>
<text text-anchor="middle" x="3635.04" y="-57.8" font-family="Times,serif" font-size="14.00">2</text>
</g>
<!-- dra.AlucardHandleDamage -->
<g id="node18" class="node">
<title>dra.AlucardHandleDamage</title>
<g id="a_node18"><a xlink:href="dra.AlucardHandleDamage.svg" xlink:title="dra.AlucardHandleDamage">
<ellipse fill="red" stroke="black" cx="4165.04" cy="-105" rx="135.68" ry="18"/>
<text text-anchor="middle" x="4165.04" y="-101.3" font-family="Times,serif" font-size="14.00">dra.AlucardHandleDamage</text>
</a>
</g>
</g>
<!-- dra.AlucardHandleDamage&#45;&gt;dra.func_80102CD8 -->
<g id="edge17" class="edge">
<title>dra.AlucardHandleDamage&#45;&gt;dra.func_80102CD8</title>
<path fill="none" stroke="black" d="M4068.37,-92.27C4052.24,-90.43 4035.67,-88.6 4020.04,-87 3853.16,-69.9 3811.46,-64.56 3644.04,-54 3355.97,-35.84 3016.01,-25.79 2844.29,-21.51"/>
<polygon fill="black" stroke="black" points="2844.31,-18.01 2834.23,-21.26 2844.14,-25.01 2844.31,-18.01"/>
<text text-anchor="middle" x="3844.04" y="-57.8" font-family="Times,serif" font-size="14.00">2</text>
</g>
<!-- dra.func_80114DF4 -->
<g id="node19" class="node">
<title>dra.func_80114DF4</title>
<g id="a_node19"><a xlink:href="dra.func_80114DF4.svg" xlink:title="dra.func_80114DF4">
<ellipse fill="red" stroke="black" cx="4422.04" cy="-105" rx="102.88" ry="18"/>
<text text-anchor="middle" x="4422.04" y="-101.3" font-family="Times,serif" font-size="14.00">dra.func_80114DF4</text>
</a>
</g>
</g>
<!-- dra.func_80114DF4&#45;&gt;dra.func_80102CD8 -->
<g id="edge18" class="edge">
<title>dra.func_80114DF4&#45;&gt;dra.func_80102CD8</title>
<path fill="none" stroke="black" d="M4349.85,-92.19C4336.63,-90.27 4322.94,-88.44 4310.04,-87 4107.66,-64.37 4056.41,-64.52 3853.04,-54 3484.06,-34.92 3046.14,-24.89 2844.64,-20.98"/>
<polygon fill="black" stroke="black" points="2844.7,-17.48 2834.63,-20.79 2844.56,-24.48 2844.7,-17.48"/>
<text text-anchor="middle" x="4126.04" y="-57.8" font-family="Times,serif" font-size="14.00">2</text>
</g>
<!-- dra.func_801139CC -->
<g id="node20" class="node">
<title>dra.func_801139CC</title>
<g id="a_node20"><a xlink:href="dra.func_801139CC.svg" xlink:title="dra.func_801139CC">
<ellipse fill="green" stroke="black" cx="4645.04" cy="-105" rx="102.88" ry="18"/>
<text text-anchor="middle" x="4645.04" y="-101.3" font-family="Times,serif" font-size="14.00">dra.func_801139CC</text>
</a>
</g>
</g>
<!-- dra.func_801139CC&#45;&gt;dra.func_80102CD8 -->
<g id="edge19" class="edge">
<title>dra.func_801139CC&#45;&gt;dra.func_80102CD8</title>
<path fill="none" stroke="black" d="M4572.59,-92.16C4559.77,-90.28 4546.53,-88.47 4534.04,-87 4357.32,-66.19 4312.72,-63.56 4135.04,-54 3655.97,-28.23 3083.77,-21.4 2845.63,-19.61"/>
<polygon fill="black" stroke="black" points="2845.61,-16.11 2835.58,-19.54 2845.55,-23.11 2845.61,-16.11"/>
<text text-anchor="middle" x="4367.04" y="-57.8" font-family="Times,serif" font-size="14.00">1</text>
</g>
<!-- dra.func_80116B0C -->
<g id="node21" class="node">
<title>dra.func_80116B0C</title>
<g id="a_node21"><a xlink:href="dra.func_80116B0C.svg" xlink:title="dra.func_80116B0C">
<ellipse fill="red" stroke="black" cx="4868.04" cy="-105" rx="102.88" ry="18"/>
<text text-anchor="middle" x="4868.04" y="-101.3" font-family="Times,serif" font-size="14.00">dra.func_80116B0C</text>
</a>
</g>
</g>
<!-- dra.func_80116B0C&#45;&gt;dra.func_80102CD8 -->
<g id="edge20" class="edge">
<title>dra.func_80116B0C&#45;&gt;dra.func_80102CD8</title>
<path fill="none" stroke="black" d="M4795.59,-92.2C4782.76,-90.32 4769.52,-88.5 4757.04,-87 4588.28,-66.79 4545.76,-63.15 4376.04,-54 3801.53,-23.03 3112.63,-19.14 2846.05,-18.88"/>
<polygon fill="black" stroke="black" points="2845.98,-15.38 2835.98,-18.87 2845.97,-22.38 2845.98,-15.38"/>
<text text-anchor="middle" x="4598.04" y="-57.8" font-family="Times,serif" font-size="14.00">1</text>
</g>
<!-- dra.func_8012E040 -->
<g id="node22" class="node">
<title>dra.func_8012E040</title>
<g id="a_node22"><a xlink:href="dra.func_8012E040.svg" xlink:title="dra.func_8012E040">
<ellipse fill="red" stroke="black" cx="5090.04" cy="-105" rx="101.28" ry="18"/>
<text text-anchor="middle" x="5090.04" y="-101.3" font-family="Times,serif" font-size="14.00">dra.func_8012E040</text>
</a>
</g>
</g>
<!-- dra.func_8012E040&#45;&gt;dra.func_80102CD8 -->
<g id="edge21" class="edge">
<title>dra.func_8012E040&#45;&gt;dra.func_80102CD8</title>
<path fill="none" stroke="black" d="M5018.24,-92.21C5005.53,-90.33 4992.41,-88.5 4980.04,-87 4814.82,-66.95 4773.23,-62.89 4607.04,-54 3939.89,-18.3 3137.46,-17.35 2845.87,-18.37"/>
<polygon fill="black" stroke="black" points="2845.7,-14.88 2835.71,-18.41 2845.73,-21.88 2845.7,-14.88"/>
<text text-anchor="middle" x="4823.04" y="-57.8" font-family="Times,serif" font-size="14.00">1</text>
</g>
<!-- dra.func_8012D28C -->
<g id="node23" class="node">
<title>dra.func_8012D28C</title>
<g id="a_node23"><a xlink:href="dra.func_8012D28C.svg" xlink:title="dra.func_8012D28C">
<ellipse fill="red" stroke="black" cx="5312.04" cy="-105" rx="102.88" ry="18"/>
<text text-anchor="middle" x="5312.04" y="-101.3" font-family="Times,serif" font-size="14.00">dra.func_8012D28C</text>
</a>
</g>
</g>
<!-- dra.func_8012D28C&#45;&gt;dra.func_80102CD8 -->
<g id="edge22" class="edge">
<title>dra.func_8012D28C&#45;&gt;dra.func_80102CD8</title>
<path fill="none" stroke="black" d="M5239.23,-92.29C5226.2,-90.38 5212.73,-88.53 5200.04,-87 5037.01,-67.34 4996.02,-62.71 4832.04,-54 4440.16,-33.19 3222.26,-22.62 2845.36,-19.79"/>
<polygon fill="black" stroke="black" points="2845.29,-16.29 2835.27,-19.72 2845.24,-23.29 2845.29,-16.29"/>
<text text-anchor="middle" x="5046.04" y="-57.8" font-family="Times,serif" font-size="14.00">1</text>
</g>
</g>
</svg>
