<?xml version="1.0" encoding="UTF-8" standalone="no"?>
<!DOCTYPE svg PUBLIC "-//W3C//DTD SVG 1.1//EN"
 "http://www.w3.org/Graphics/SVG/1.1/DTD/svg11.dtd">
<!-- Generated by graphviz version 2.43.0 (0)
 -->
<!-- Title: dra.func_8010E168 Pages: 1 -->
<svg width="4570pt" height="404pt"
 viewBox="0.00 0.00 4570.38 404.00" xmlns="http://www.w3.org/2000/svg" xmlns:xlink="http://www.w3.org/1999/xlink">
<g id="graph0" class="graph" transform="scale(1 1) rotate(0) translate(4 400)">
<title>dra.func_8010E168</title>
<polygon fill="white" stroke="transparent" points="-4,4 -4,-400 4566.38,-400 4566.38,4 -4,4"/>
<!-- dra.func_8010E168 -->
<g id="node1" class="node">
<title>dra.func_8010E168</title>
<ellipse fill="green" stroke="black" cx="2224.54" cy="-198" rx="101.28" ry="18"/>
<text text-anchor="middle" x="2224.54" y="-194.3" font-family="Times,serif" font-size="14.00">dra.func_8010E168</text>
</g>
<!-- dra.func_8011AAFC -->
<g id="node2" class="node">
<title>dra.func_8011AAFC</title>
<g id="a_node2"><a xlink:href="dra.func_8011AAFC.svg" xlink:title="dra.func_8011AAFC">
<ellipse fill="green" stroke="black" cx="2224.54" cy="-18" rx="102.88" ry="18"/>
<text text-anchor="middle" x="2224.54" y="-14.3" font-family="Times,serif" font-size="14.00">dra.func_8011AAFC</text>
</a>
</g>
</g>
<!-- dra.func_8010E168&#45;&gt;dra.func_8011AAFC -->
<g id="edge1" class="edge">
<title>dra.func_8010E168&#45;&gt;dra.func_8011AAFC</title>
<path fill="none" stroke="black" d="M2224.54,-179.93C2224.54,-148.97 2224.54,-83.3 2224.54,-46.13"/>
<polygon fill="black" stroke="black" points="2228.04,-46.02 2224.54,-36.02 2221.04,-46.02 2228.04,-46.02"/>
<text text-anchor="middle" x="2219.54" y="-39.82" font-family="Times,serif" font-size="14.00">1</text>
</g>
<!-- rwrp.func_8018C948 -->
<g id="node3" class="node">
<title>rwrp.func_8018C948</title>
<g id="a_node3"><a xlink:href="rwrp.func_8018C948.svg" xlink:title="rwrp.func_8018C948">
<ellipse fill="red" stroke="black" cx="108.54" cy="-378" rx="108.58" ry="18"/>
<text text-anchor="middle" x="108.54" y="-374.3" font-family="Times,serif" font-size="14.00">rwrp.func_8018C948</text>
</a>
</g>
</g>
<!-- rwrp.func_8018C948&#45;&gt;dra.func_8010E168 -->
<g id="edge2" class="edge">
<title>rwrp.func_8018C948&#45;&gt;dra.func_8010E168</title>
<path fill="none" stroke="black" d="M184.92,-365.18C198.43,-363.3 212.38,-361.48 225.54,-360 948.07,-278.5 1822.05,-222.83 2119.56,-205.08"/>
<polygon fill="black" stroke="black" points="2120.13,-208.55 2129.9,-204.47 2119.71,-201.57 2120.13,-208.55"/>
<text text-anchor="middle" x="179.92" y="-353.98" font-family="Times,serif" font-size="14.00">1</text>
</g>
<!-- dre.EntityRedDoor -->
<g id="node4" class="node">
<title>dre.EntityRedDoor</title>
<g id="a_node4"><a xlink:href="dre.EntityRedDoor.svg" xlink:title="dre.EntityRedDoor">
<ellipse fill="red" stroke="black" cx="333.54" cy="-378" rx="98.58" ry="18"/>
<text text-anchor="middle" x="333.54" y="-374.3" font-family="Times,serif" font-size="14.00">dre.EntityRedDoor</text>
</a>
</g>
</g>
<!-- dre.EntityRedDoor&#45;&gt;dra.func_8010E168 -->
<g id="edge3" class="edge">
<title>dre.EntityRedDoor&#45;&gt;dra.func_8010E168</title>
<path fill="none" stroke="black" d="M403.74,-365.26C416.31,-363.36 429.3,-361.51 441.54,-360 1078.03,-281.26 1846.87,-224.85 2121.17,-205.93"/>
<polygon fill="black" stroke="black" points="2121.76,-209.4 2131.5,-205.22 2121.28,-202.42 2121.76,-209.4"/>
<text text-anchor="middle" x="398.74" y="-354.06" font-family="Times,serif" font-size="14.00">1</text>
</g>
<!-- cen.EntityRedDoor -->
<g id="node5" class="node">
<title>cen.EntityRedDoor</title>
<g id="a_node5"><a xlink:href="cen.EntityRedDoor.svg" xlink:title="cen.EntityRedDoor">
<ellipse fill="red" stroke="black" cx="549.54" cy="-378" rx="98.58" ry="18"/>
<text text-anchor="middle" x="549.54" y="-374.3" font-family="Times,serif" font-size="14.00">cen.EntityRedDoor</text>
</a>
</g>
</g>
<!-- cen.EntityRedDoor&#45;&gt;dra.func_8010E168 -->
<g id="edge4" class="edge">
<title>cen.EntityRedDoor&#45;&gt;dra.func_8010E168</title>
<path fill="none" stroke="black" d="M620.05,-365.34C632.52,-363.44 645.4,-361.58 657.54,-360 1210.58,-288.12 1876.86,-228.59 2125.04,-207.35"/>
<polygon fill="black" stroke="black" points="2125.46,-210.83 2135.12,-206.49 2124.86,-203.86 2125.46,-210.83"/>
<text text-anchor="middle" x="615.05" y="-354.14" font-family="Times,serif" font-size="14.00">1</text>
</g>
<!-- st0.EntityRedDoor -->
<g id="node6" class="node">
<title>st0.EntityRedDoor</title>
<g id="a_node6"><a xlink:href="st0.EntityRedDoor.svg" xlink:title="st0.EntityRedDoor">
<ellipse fill="red" stroke="black" cx="763.54" cy="-378" rx="97.48" ry="18"/>
<text text-anchor="middle" x="763.54" y="-374.3" font-family="Times,serif" font-size="14.00">st0.EntityRedDoor</text>
</a>
</g>
</g>
<!-- st0.EntityRedDoor&#45;&gt;dra.func_8010E168 -->
<g id="edge5" class="edge">
<title>st0.EntityRedDoor&#45;&gt;dra.func_8010E168</title>
<path fill="none" stroke="black" d="M833.7,-365.45C845.97,-363.55 858.62,-361.66 870.54,-360 1342.21,-294.51 1908.64,-232.53 2129.69,-208.98"/>
<polygon fill="black" stroke="black" points="2130.06,-212.46 2139.63,-207.93 2129.32,-205.5 2130.06,-212.46"/>
<text text-anchor="middle" x="828.7" y="-354.25" font-family="Times,serif" font-size="14.00">1</text>
</g>
<!-- no3.EntityRedDoor -->
<g id="node7" class="node">
<title>no3.EntityRedDoor</title>
<g id="a_node7"><a xlink:href="no3.EntityRedDoor.svg" xlink:title="no3.EntityRedDoor">
<ellipse fill="red" stroke="black" cx="979.54" cy="-378" rx="100.18" ry="18"/>
<text text-anchor="middle" x="979.54" y="-374.3" font-family="Times,serif" font-size="14.00">no3.EntityRedDoor</text>
</a>
</g>
</g>
<!-- no3.EntityRedDoor&#45;&gt;dra.func_8010E168 -->
<g id="edge6" class="edge">
<title>no3.EntityRedDoor&#45;&gt;dra.func_8010E168</title>
<path fill="none" stroke="black" d="M1051.93,-365.57C1064.14,-363.68 1076.7,-361.76 1088.54,-360 1479.29,-301.84 1946.41,-237.17 2137.04,-210.98"/>
<polygon fill="black" stroke="black" points="2137.58,-214.44 2147.01,-209.61 2136.63,-207.5 2137.58,-214.44"/>
<text text-anchor="middle" x="1046.93" y="-354.37" font-family="Times,serif" font-size="14.00">1</text>
</g>
<!-- np3.EntityRedDoor -->
<g id="node8" class="node">
<title>np3.EntityRedDoor</title>
<g id="a_node8"><a xlink:href="np3.EntityRedDoor.svg" xlink:title="np3.EntityRedDoor">
<ellipse fill="red" stroke="black" cx="1198.54" cy="-378" rx="100.98" ry="18"/>
<text text-anchor="middle" x="1198.54" y="-374.3" font-family="Times,serif" font-size="14.00">np3.EntityRedDoor</text>
</a>
</g>
</g>
<!-- np3.EntityRedDoor&#45;&gt;dra.func_8010E168 -->
<g id="edge7" class="edge">
<title>np3.EntityRedDoor&#45;&gt;dra.func_8010E168</title>
<path fill="none" stroke="black" d="M1268.25,-364.91C1452.23,-332.99 1950.04,-246.62 2144.85,-212.83"/>
<polygon fill="black" stroke="black" points="2145.48,-216.27 2154.73,-211.11 2144.28,-209.37 2145.48,-216.27"/>
<text text-anchor="middle" x="1263.25" y="-353.71" font-family="Times,serif" font-size="14.00">1</text>
</g>
<!-- nz0.EntityMagicallySealedDoor -->
<g id="node9" class="node">
<title>nz0.EntityMagicallySealedDoor</title>
<g id="a_node9"><a xlink:href="nz0.EntityMagicallySealedDoor.svg" xlink:title="nz0.EntityMagicallySealedDoor">
<ellipse fill="red" stroke="black" cx="1474.54" cy="-378" rx="157.07" ry="18"/>
<text text-anchor="middle" x="1474.54" y="-374.3" font-family="Times,serif" font-size="14.00">nz0.EntityMagicallySealedDoor</text>
</a>
</g>
</g>
<!-- nz0.EntityMagicallySealedDoor&#45;&gt;dra.func_8010E168 -->
<g id="edge8" class="edge">
<title>nz0.EntityMagicallySealedDoor&#45;&gt;dra.func_8010E168</title>
<path fill="none" stroke="black" d="M1539.46,-361.59C1680.29,-328.17 2012.72,-249.27 2156.41,-215.17"/>
<polygon fill="black" stroke="black" points="2157.5,-218.51 2166.42,-212.79 2155.88,-211.7 2157.5,-218.51"/>
<text text-anchor="middle" x="1534.46" y="-350.39" font-family="Times,serif" font-size="14.00">1</text>
</g>
<!-- nz0.EntityRedDoor -->
<g id="node10" class="node">
<title>nz0.EntityRedDoor</title>
<g id="a_node10"><a xlink:href="nz0.EntityRedDoor.svg" xlink:title="nz0.EntityRedDoor">
<ellipse fill="red" stroke="black" cx="1749.54" cy="-378" rx="99.38" ry="18"/>
<text text-anchor="middle" x="1749.54" y="-374.3" font-family="Times,serif" font-size="14.00">nz0.EntityRedDoor</text>
</a>
</g>
</g>
<!-- nz0.EntityRedDoor&#45;&gt;dra.func_8010E168 -->
<g id="edge9" class="edge">
<title>nz0.EntityRedDoor&#45;&gt;dra.func_8010E168</title>
<path fill="none" stroke="black" d="M1790.86,-361.52C1877.73,-328.96 2079.06,-253.52 2173.68,-218.06"/>
<polygon fill="black" stroke="black" points="2175.18,-221.24 2183.31,-214.45 2172.72,-214.68 2175.18,-221.24"/>
<text text-anchor="middle" x="1785.86" y="-350.32" font-family="Times,serif" font-size="14.00">1</text>
</g>
<!-- wrp.EntityRedDoor -->
<g id="node11" class="node">
<title>wrp.EntityRedDoor</title>
<g id="a_node11"><a xlink:href="wrp.EntityRedDoor.svg" xlink:title="wrp.EntityRedDoor">
<ellipse fill="red" stroke="black" cx="1967.54" cy="-378" rx="100.98" ry="18"/>
<text text-anchor="middle" x="1967.54" y="-374.3" font-family="Times,serif" font-size="14.00">wrp.EntityRedDoor</text>
</a>
</g>
</g>
<!-- wrp.EntityRedDoor&#45;&gt;dra.func_8010E168 -->
<g id="edge10" class="edge">
<title>wrp.EntityRedDoor&#45;&gt;dra.func_8010E168</title>
<path fill="none" stroke="black" d="M1991.72,-360.25C2038.24,-328.04 2140.19,-257.42 2192.38,-221.27"/>
<polygon fill="black" stroke="black" points="2194.39,-224.14 2200.61,-215.57 2190.4,-218.39 2194.39,-224.14"/>
<text text-anchor="middle" x="1986.72" y="-349.05" font-family="Times,serif" font-size="14.00">1</text>
</g>
<!-- w_052.EntityWeaponAttack -->
<g id="node12" class="node">
<title>w_052.EntityWeaponAttack</title>
<g id="a_node12"><a xlink:href="w_052.EntityWeaponAttack.svg" xlink:title="w_052.EntityWeaponAttack">
<ellipse fill="red" stroke="black" cx="2224.54" cy="-378" rx="138.38" ry="18"/>
<text text-anchor="middle" x="2224.54" y="-374.3" font-family="Times,serif" font-size="14.00">w_052.EntityWeaponAttack</text>
</a>
</g>
</g>
<!-- w_052.EntityWeaponAttack&#45;&gt;dra.func_8010E168 -->
<g id="edge11" class="edge">
<title>w_052.EntityWeaponAttack&#45;&gt;dra.func_8010E168</title>
<path fill="none" stroke="black" d="M2224.54,-359.93C2224.54,-328.97 2224.54,-263.3 2224.54,-226.13"/>
<polygon fill="black" stroke="black" points="2228.04,-226.02 2224.54,-216.02 2221.04,-226.02 2228.04,-226.02"/>
<text text-anchor="middle" x="2219.54" y="-348.73" font-family="Times,serif" font-size="14.00">1</text>
</g>
<!-- w_010.EntityWeaponAttack -->
<g id="node13" class="node">
<title>w_010.EntityWeaponAttack</title>
<g id="a_node13"><a xlink:href="w_010.EntityWeaponAttack.svg" xlink:title="w_010.EntityWeaponAttack">
<ellipse fill="red" stroke="black" cx="2519.54" cy="-378" rx="138.38" ry="18"/>
<text text-anchor="middle" x="2519.54" y="-374.3" font-family="Times,serif" font-size="14.00">w_010.EntityWeaponAttack</text>
</a>
</g>
</g>
<!-- w_010.EntityWeaponAttack&#45;&gt;dra.func_8010E168 -->
<g id="edge12" class="edge">
<title>w_010.EntityWeaponAttack&#45;&gt;dra.func_8010E168</title>
<path fill="none" stroke="black" d="M2491.79,-360.25C2438.17,-327.9 2320.39,-256.84 2260.72,-220.83"/>
<polygon fill="black" stroke="black" points="2262.37,-217.74 2252,-215.57 2258.76,-223.73 2262.37,-217.74"/>
<text text-anchor="middle" x="2486.79" y="-349.05" font-family="Times,serif" font-size="14.00">1</text>
</g>
<!-- dra.func_800F298C -->
<g id="node14" class="node">
<title>dra.func_800F298C</title>
<g id="a_node14"><a xlink:href="dra.func_800F298C.svg" xlink:title="dra.func_800F298C">
<ellipse fill="red" stroke="black" cx="2777.54" cy="-378" rx="102.08" ry="18"/>
<text text-anchor="middle" x="2777.54" y="-374.3" font-family="Times,serif" font-size="14.00">dra.func_800F298C</text>
</a>
</g>
</g>
<!-- dra.func_800F298C&#45;&gt;dra.func_8010E168 -->
<g id="edge13" class="edge">
<title>dra.func_800F298C&#45;&gt;dra.func_8010E168</title>
<path fill="none" stroke="black" d="M2730.87,-361.98C2629.64,-329.39 2390.21,-252.33 2280.82,-217.12"/>
<polygon fill="black" stroke="black" points="2281.87,-213.78 2271.28,-214.05 2279.73,-220.44 2281.87,-213.78"/>
<text text-anchor="middle" x="2725.87" y="-350.78" font-family="Times,serif" font-size="14.00">1</text>
</g>
<!-- dra.EntityAlucard -->
<g id="node15" class="node">
<title>dra.EntityAlucard</title>
<g id="a_node15"><a xlink:href="dra.EntityAlucard.svg" xlink:title="dra.EntityAlucard">
<ellipse fill="red" stroke="black" cx="2991.54" cy="-378" rx="93.68" ry="18"/>
<text text-anchor="middle" x="2991.54" y="-374.3" font-family="Times,serif" font-size="14.00">dra.EntityAlucard</text>
</a>
</g>
</g>
<!-- dra.EntityAlucard&#45;&gt;dra.func_8010E168 -->
<g id="edge14" class="edge">
<title>dra.EntityAlucard&#45;&gt;dra.func_8010E168</title>
<path fill="none" stroke="black" d="M2934.2,-363.69C2795.67,-331.54 2443.13,-249.73 2293.44,-214.99"/>
<polygon fill="black" stroke="black" points="2293.98,-211.52 2283.45,-212.67 2292.4,-218.34 2293.98,-211.52"/>
<text text-anchor="middle" x="2924.7" y="-352.49" font-family="Times,serif" font-size="14.00">18</text>
</g>
<!-- dra.func_8010FB24 -->
<g id="node16" class="node">
<title>dra.func_8010FB24</title>
<g id="a_node16"><a xlink:href="dra.func_8010FB24.svg" xlink:title="dra.func_8010FB24">
<ellipse fill="green" stroke="black" cx="3205.54" cy="-378" rx="102.08" ry="18"/>
<text text-anchor="middle" x="3205.54" y="-374.3" font-family="Times,serif" font-size="14.00">dra.func_8010FB24</text>
</a>
</g>
</g>
<!-- dra.func_8010FB24&#45;&gt;dra.func_8010E168 -->
<g id="edge15" class="edge">
<title>dra.func_8010FB24&#45;&gt;dra.func_8010E168</title>
<path fill="none" stroke="black" d="M3136.95,-364.55C2960.2,-332.48 2489.98,-247.16 2302.9,-213.22"/>
<polygon fill="black" stroke="black" points="2303.33,-209.74 2292.87,-211.4 2302.08,-216.63 2303.33,-209.74"/>
<text text-anchor="middle" x="3131.95" y="-353.35" font-family="Times,serif" font-size="14.00">1</text>
</g>
<!-- dra.func_80114DF4 -->
<g id="node17" class="node">
<title>dra.func_80114DF4</title>
<g id="a_node17"><a xlink:href="dra.func_80114DF4.svg" xlink:title="dra.func_80114DF4">
<ellipse fill="red" stroke="black" cx="3428.54" cy="-378" rx="102.88" ry="18"/>
<text text-anchor="middle" x="3428.54" y="-374.3" font-family="Times,serif" font-size="14.00">dra.func_80114DF4</text>
</a>
</g>
</g>
<!-- dra.func_80114DF4&#45;&gt;dra.func_8010E168 -->
<g id="edge16" class="edge">
<title>dra.func_80114DF4&#45;&gt;dra.func_8010E168</title>
<path fill="none" stroke="black" d="M3353.84,-365.62C3341.39,-363.73 3328.6,-361.8 3316.54,-360 2941.78,-303.93 2494.45,-238.42 2310.25,-211.51"/>
<polygon fill="black" stroke="black" points="2310.75,-208.05 2300.35,-210.06 2309.74,-214.97 2310.75,-208.05"/>
<text text-anchor="middle" x="3348.84" y="-354.42" font-family="Times,serif" font-size="14.00">5</text>
</g>
<!-- dra.func_8012E9C0 -->
<g id="node18" class="node">
<title>dra.func_8012E9C0</title>
<g id="a_node18"><a xlink:href="dra.func_8012E9C0.svg" xlink:title="dra.func_8012E9C0">
<ellipse fill="red" stroke="black" cx="3651.54" cy="-378" rx="102.88" ry="18"/>
<text text-anchor="middle" x="3651.54" y="-374.3" font-family="Times,serif" font-size="14.00">dra.func_8012E9C0</text>
</a>
</g>
</g>
<!-- dra.func_8012E9C0&#45;&gt;dra.func_8010E168 -->
<g id="edge17" class="edge">
<title>dra.func_8012E9C0&#45;&gt;dra.func_8010E168</title>
<path fill="none" stroke="black" d="M3577.85,-365.39C3565.4,-363.53 3552.61,-361.66 3540.54,-360 3082.64,-296.94 2533.35,-233.75 2317.81,-209.43"/>
<polygon fill="black" stroke="black" points="2318.13,-205.94 2307.8,-208.3 2317.34,-212.9 2318.13,-205.94"/>
<text text-anchor="middle" x="3572.85" y="-354.19" font-family="Times,serif" font-size="14.00">1</text>
</g>
<!-- dra.func_8012E7A4 -->
<g id="node19" class="node">
<title>dra.func_8012E7A4</title>
<g id="a_node19"><a xlink:href="dra.func_8012E7A4.svg" xlink:title="dra.func_8012E7A4">
<ellipse fill="red" stroke="black" cx="3874.54" cy="-378" rx="102.08" ry="18"/>
<text text-anchor="middle" x="3874.54" y="-374.3" font-family="Times,serif" font-size="14.00">dra.func_8012E7A4</text>
</a>
</g>
</g>
<!-- dra.func_8012E7A4&#45;&gt;dra.func_8010E168 -->
<g id="edge18" class="edge">
<title>dra.func_8012E7A4&#45;&gt;dra.func_8010E168</title>
<path fill="none" stroke="black" d="M3801.77,-365.35C3789.04,-363.45 3775.92,-361.59 3763.54,-360 3221.12,-290.13 2568.17,-229.57 2323.48,-207.7"/>
<polygon fill="black" stroke="black" points="2323.47,-204.18 2313.2,-206.78 2322.84,-211.16 2323.47,-204.18"/>
<text text-anchor="middle" x="3796.77" y="-354.15" font-family="Times,serif" font-size="14.00">1</text>
</g>
<!-- dra.EntityPlayerBlinkWhite -->
<g id="node20" class="node">
<title>dra.EntityPlayerBlinkWhite</title>
<g id="a_node20"><a xlink:href="dra.EntityPlayerBlinkWhite.svg" xlink:title="dra.EntityPlayerBlinkWhite">
<ellipse fill="red" stroke="black" cx="4133.54" cy="-378" rx="139.18" ry="18"/>
<text text-anchor="middle" x="4133.54" y="-374.3" font-family="Times,serif" font-size="14.00">dra.EntityPlayerBlinkWhite</text>
</a>
</g>
</g>
<!-- dra.EntityPlayerBlinkWhite&#45;&gt;dra.func_8010E168 -->
<g id="edge19" class="edge">
<title>dra.EntityPlayerBlinkWhite&#45;&gt;dra.func_8010E168</title>
<path fill="none" stroke="black" d="M4034.46,-365.3C4018.12,-363.46 4001.36,-361.63 3985.54,-360 3353.88,-294.86 2593.34,-229.88 2324.54,-207.32"/>
<polygon fill="black" stroke="black" points="2324.67,-203.82 2314.41,-206.48 2324.08,-210.8 2324.67,-203.82"/>
<text text-anchor="middle" x="4029.46" y="-354.1" font-family="Times,serif" font-size="14.00">1</text>
</g>
<!-- dra.EntityPlayerPinkEffect -->
<g id="node21" class="node">
<title>dra.EntityPlayerPinkEffect</title>
<g id="a_node21"><a xlink:href="dra.EntityPlayerPinkEffect.svg" xlink:title="dra.EntityPlayerPinkEffect">
<ellipse fill="red" stroke="black" cx="4426.54" cy="-378" rx="135.68" ry="18"/>
<text text-anchor="middle" x="4426.54" y="-374.3" font-family="Times,serif" font-size="14.00">dra.EntityPlayerPinkEffect</text>
</a>
</g>
</g>
<!-- dra.EntityPlayerPinkEffect&#45;&gt;dra.func_8010E168 -->
<g id="edge20" class="edge">
<title>dra.EntityPlayerPinkEffect&#45;&gt;dra.func_8010E168</title>
<path fill="none" stroke="black" d="M4330.66,-365.23C4314.28,-363.37 4297.43,-361.55 4281.54,-360 3533.34,-286.89 2629.46,-225.45 2327.98,-205.68"/>
<polygon fill="black" stroke="black" points="2328.14,-202.18 2317.94,-205.02 2327.69,-209.17 2328.14,-202.18"/>
<text text-anchor="middle" x="4325.66" y="-354.03" font-family="Times,serif" font-size="14.00">1</text>
</g>
</g>
</svg>
