<?xml version="1.0" encoding="UTF-8" standalone="no"?>
<!DOCTYPE svg PUBLIC "-//W3C//DTD SVG 1.1//EN"
 "http://www.w3.org/Graphics/SVG/1.1/DTD/svg11.dtd">
<!-- Generated by graphviz version 2.43.0 (0)
 -->
<!-- Title: dra.func_801073C0 Pages: 1 -->
<svg width="1274pt" height="404pt"
 viewBox="0.00 0.00 1274.38 404.00" xmlns="http://www.w3.org/2000/svg" xmlns:xlink="http://www.w3.org/1999/xlink">
<g id="graph0" class="graph" transform="scale(1 1) rotate(0) translate(4 400)">
<title>dra.func_801073C0</title>
<polygon fill="white" stroke="transparent" points="-4,4 -4,-400 1270.38,-400 1270.38,4 -4,4"/>
<!-- dra.func_801073C0 -->
<g id="node1" class="node">
<title>dra.func_801073C0</title>
<ellipse fill="green" stroke="black" cx="644.69" cy="-198" rx="101.28" ry="18"/>
<text text-anchor="middle" x="644.69" y="-194.3" font-family="Times,serif" font-size="14.00">dra.func_801073C0</text>
</g>
<!-- CdReadyCallback -->
<g id="node2" class="node">
<title>CdReadyCallback</title>
<g id="a_node2"><a xlink:href="CdReadyCallback.svg" xlink:title="CdReadyCallback">
<ellipse fill="lightblue" stroke="black" cx="547.69" cy="-18" rx="91.78" ry="18"/>
<text text-anchor="middle" x="547.69" y="-14.3" font-family="Times,serif" font-size="14.00">CdReadyCallback</text>
</a>
</g>
</g>
<!-- dra.func_801073C0&#45;&gt;CdReadyCallback -->
<g id="edge1" class="edge">
<title>dra.func_801073C0&#45;&gt;CdReadyCallback</title>
<path fill="none" stroke="black" d="M635.39,-179.93C618.37,-148.7 582.11,-82.17 561.96,-45.18"/>
<polygon fill="black" stroke="black" points="564.82,-43.12 556.96,-36.02 558.68,-46.47 564.82,-43.12"/>
<text text-anchor="middle" x="551.96" y="-39.82" font-family="Times,serif" font-size="14.00">1</text>
</g>
<!-- CdDataCallback -->
<g id="node3" class="node">
<title>CdDataCallback</title>
<g id="a_node3"><a xlink:href="CdDataCallback.svg" xlink:title="CdDataCallback">
<ellipse fill="lightblue" stroke="black" cx="742.69" cy="-18" rx="85.29" ry="18"/>
<text text-anchor="middle" x="742.69" y="-14.3" font-family="Times,serif" font-size="14.00">CdDataCallback</text>
</a>
</g>
</g>
<!-- dra.func_801073C0&#45;&gt;CdDataCallback -->
<g id="edge2" class="edge">
<title>dra.func_801073C0&#45;&gt;CdDataCallback</title>
<path fill="none" stroke="black" d="M654.09,-179.93C671.28,-148.7 707.91,-82.17 728.28,-45.18"/>
<polygon fill="black" stroke="black" points="731.57,-46.46 733.32,-36.02 725.43,-43.09 731.57,-46.46"/>
<text text-anchor="middle" x="728.32" y="-39.82" font-family="Times,serif" font-size="14.00">1</text>
</g>
<!-- dra.func_800FBC24 -->
<g id="node4" class="node">
<title>dra.func_800FBC24</title>
<g id="a_node4"><a xlink:href="dra.func_800FBC24.svg" xlink:title="dra.func_800FBC24">
<ellipse fill="red" stroke="black" cx="102.69" cy="-378" rx="102.88" ry="18"/>
<text text-anchor="middle" x="102.69" y="-374.3" font-family="Times,serif" font-size="14.00">dra.func_800FBC24</text>
</a>
</g>
</g>
<!-- dra.func_800FBC24&#45;&gt;dra.func_801073C0 -->
<g id="edge3" class="edge">
<title>dra.func_800FBC24&#45;&gt;dra.func_801073C0</title>
<path fill="none" stroke="black" d="M148.9,-361.82C248.2,-329.21 481.6,-252.56 588.92,-217.32"/>
<polygon fill="black" stroke="black" points="590.19,-220.58 598.6,-214.14 588,-213.93 590.19,-220.58"/>
<text text-anchor="middle" x="143.9" y="-350.62" font-family="Times,serif" font-size="14.00">1</text>
</g>
<!-- dra.func_8010838C -->
<g id="node5" class="node">
<title>dra.func_8010838C</title>
<g id="a_node5"><a xlink:href="dra.func_8010838C.svg" xlink:title="dra.func_8010838C">
<ellipse fill="green" stroke="black" cx="324.69" cy="-378" rx="101.28" ry="18"/>
<text text-anchor="middle" x="324.69" y="-374.3" font-family="Times,serif" font-size="14.00">dra.func_8010838C</text>
</a>
</g>
</g>
<!-- dra.func_8010838C&#45;&gt;dra.func_801073C0 -->
<g id="edge4" class="edge">
<title>dra.func_8010838C&#45;&gt;dra.func_801073C0</title>
<path fill="none" stroke="black" d="M353.94,-360.73C411.88,-328.5 541.24,-256.55 606.08,-220.48"/>
<polygon fill="black" stroke="black" points="608.13,-223.34 615.17,-215.42 604.72,-217.23 608.13,-223.34"/>
<text text-anchor="middle" x="348.94" y="-349.53" font-family="Times,serif" font-size="14.00">1</text>
</g>
<!-- dra.func_80107C6C -->
<g id="node6" class="node">
<title>dra.func_80107C6C</title>
<g id="a_node6"><a xlink:href="dra.func_80107C6C.svg" xlink:title="dra.func_80107C6C">
<ellipse fill="green" stroke="black" cx="546.69" cy="-378" rx="102.88" ry="18"/>
<text text-anchor="middle" x="546.69" y="-374.3" font-family="Times,serif" font-size="14.00">dra.func_80107C6C</text>
</a>
</g>
</g>
<!-- dra.func_80107C6C&#45;&gt;dra.func_801073C0 -->
<g id="edge5" class="edge">
<title>dra.func_80107C6C&#45;&gt;dra.func_801073C0</title>
<path fill="none" stroke="black" d="M556.09,-359.93C573.28,-328.7 609.91,-262.17 630.28,-225.18"/>
<polygon fill="black" stroke="black" points="633.57,-226.46 635.32,-216.02 627.43,-223.09 633.57,-226.46"/>
<text text-anchor="middle" x="551.09" y="-348.73" font-family="Times,serif" font-size="14.00">1</text>
</g>
<!-- dra.UpdateCd -->
<g id="node7" class="node">
<title>dra.UpdateCd</title>
<g id="a_node7"><a xlink:href="dra.UpdateCd.svg" xlink:title="dra.UpdateCd">
<ellipse fill="green" stroke="black" cx="743.69" cy="-378" rx="76.09" ry="18"/>
<text text-anchor="middle" x="743.69" y="-374.3" font-family="Times,serif" font-size="14.00">dra.UpdateCd</text>
</a>
</g>
</g>
<!-- dra.UpdateCd&#45;&gt;dra.func_801073C0 -->
<g id="edge6" class="edge">
<title>dra.UpdateCd&#45;&gt;dra.func_801073C0</title>
<path fill="none" stroke="black" d="M734.2,-359.93C716.83,-328.7 679.82,-262.17 659.25,-225.18"/>
<polygon fill="black" stroke="black" points="662.07,-223.05 654.15,-216.02 655.96,-226.46 662.07,-223.05"/>
<text text-anchor="middle" x="729.2" y="-348.73" font-family="Times,serif" font-size="14.00">4</text>
</g>
<!-- dra.entrypoint_sotn -->
<g id="node8" class="node">
<title>dra.entrypoint_sotn</title>
<g id="a_node8"><a xlink:href="dra.entrypoint_sotn.svg" xlink:title="dra.entrypoint_sotn">
<ellipse fill="green" stroke="black" cx="940.69" cy="-378" rx="102.88" ry="18"/>
<text text-anchor="middle" x="940.69" y="-374.3" font-family="Times,serif" font-size="14.00">dra.entrypoint_sotn</text>
</a>
</g>
</g>
<!-- dra.entrypoint_sotn&#45;&gt;dra.func_801073C0 -->
<g id="edge7" class="edge">
<title>dra.entrypoint_sotn&#45;&gt;dra.func_801073C0</title>
<path fill="none" stroke="black" d="M913.37,-360.57C859.74,-328.32 740.67,-256.72 680.69,-220.65"/>
<polygon fill="black" stroke="black" points="682.31,-217.54 671.94,-215.39 678.71,-223.54 682.31,-217.54"/>
<text text-anchor="middle" x="908.37" y="-349.37" font-family="Times,serif" font-size="14.00">1</text>
</g>
<!-- dra.func_800E414C -->
<g id="node9" class="node">
<title>dra.func_800E414C</title>
<g id="a_node9"><a xlink:href="dra.func_800E414C.svg" xlink:title="dra.func_800E414C">
<ellipse fill="green" stroke="black" cx="1163.69" cy="-378" rx="102.88" ry="18"/>
<text text-anchor="middle" x="1163.69" y="-374.3" font-family="Times,serif" font-size="14.00">dra.func_800E414C</text>
</a>
</g>
</g>
<!-- dra.func_800E414C&#45;&gt;dra.func_801073C0 -->
<g id="edge8" class="edge">
<title>dra.func_800E414C&#45;&gt;dra.func_801073C0</title>
<path fill="none" stroke="black" d="M1118.99,-361.67C1023.83,-329.03 801.53,-252.79 698.67,-217.51"/>
<polygon fill="black" stroke="black" points="699.69,-214.16 689.1,-214.23 697.42,-220.79 699.69,-214.16"/>
<text text-anchor="middle" x="1113.99" y="-350.47" font-family="Times,serif" font-size="14.00">4</text>
</g>
</g>
</svg>
