<?xml version="1.0" encoding="UTF-8" standalone="no"?>
<!DOCTYPE svg PUBLIC "-//W3C//DTD SVG 1.1//EN"
 "http://www.w3.org/Graphics/SVG/1.1/DTD/svg11.dtd">
<!-- Generated by graphviz version 2.43.0 (0)
 -->
<!-- Title: dra.func_801177A0 Pages: 1 -->
<svg width="1549pt" height="218pt"
 viewBox="0.00 0.00 1549.03 218.00" xmlns="http://www.w3.org/2000/svg" xmlns:xlink="http://www.w3.org/1999/xlink">
<g id="graph0" class="graph" transform="scale(1 1) rotate(0) translate(4 214)">
<title>dra.func_801177A0</title>
<polygon fill="white" stroke="transparent" points="-4,4 -4,-214 1545.03,-214 1545.03,4 -4,4"/>
<!-- dra.func_801177A0 -->
<g id="node1" class="node">
<title>dra.func_801177A0</title>
<ellipse fill="red" stroke="black" cx="769.34" cy="-105" rx="100.98" ry="18"/>
<text text-anchor="middle" x="769.34" y="-101.3" font-family="Times,serif" font-size="14.00">dra.func_801177A0</text>
</g>
<!-- dra.func_8010E1EC -->
<g id="node2" class="node">
<title>dra.func_8010E1EC</title>
<g id="a_node2"><a xlink:href="dra.func_8010E1EC.svg" xlink:title="dra.func_8010E1EC">
<ellipse fill="green" stroke="black" cx="103.34" cy="-18" rx="103.18" ry="18"/>
<text text-anchor="middle" x="103.34" y="-14.3" font-family="Times,serif" font-size="14.00">dra.func_8010E1EC</text>
</a>
</g>
</g>
<!-- dra.func_801177A0&#45;&gt;dra.func_8010E1EC -->
<g id="edge1" class="edge">
<title>dra.func_801177A0&#45;&gt;dra.func_8010E1EC</title>
<path fill="none" stroke="black" d="M686.8,-94.55C578.64,-82.02 383.1,-58.79 216.34,-36 207.15,-34.74 197.55,-33.38 187.99,-31.99"/>
<polygon fill="black" stroke="black" points="188.47,-28.52 178.06,-30.53 187.45,-35.45 188.47,-28.52"/>
<text text-anchor="middle" x="464.34" y="-57.8" font-family="Times,serif" font-size="14.00">1</text>
</g>
<!-- dra.func_8010E234 -->
<g id="node3" class="node">
<title>dra.func_8010E234</title>
<g id="a_node3"><a xlink:href="dra.func_8010E234.svg" xlink:title="dra.func_8010E234">
<ellipse fill="green" stroke="black" cx="326.34" cy="-18" rx="101.28" ry="18"/>
<text text-anchor="middle" x="326.34" y="-14.3" font-family="Times,serif" font-size="14.00">dra.func_8010E234</text>
</a>
</g>
</g>
<!-- dra.func_801177A0&#45;&gt;dra.func_8010E234 -->
<g id="edge2" class="edge">
<title>dra.func_801177A0&#45;&gt;dra.func_8010E234</title>
<path fill="none" stroke="black" d="M703.5,-91.37C623.05,-75.93 487.2,-49.86 402.37,-33.59"/>
<polygon fill="black" stroke="black" points="403.03,-30.15 392.55,-31.7 401.71,-37.02 403.03,-30.15"/>
<text text-anchor="middle" x="580.34" y="-57.8" font-family="Times,serif" font-size="14.00">1</text>
</g>
<!-- dra.func_8011690C -->
<g id="node4" class="node">
<title>dra.func_8011690C</title>
<g id="a_node4"><a xlink:href="dra.func_8011690C.svg" xlink:title="dra.func_8011690C">
<ellipse fill="green" stroke="black" cx="547.34" cy="-18" rx="101.28" ry="18"/>
<text text-anchor="middle" x="547.34" y="-14.3" font-family="Times,serif" font-size="14.00">dra.func_8011690C</text>
</a>
</g>
</g>
<!-- dra.func_801177A0&#45;&gt;dra.func_8011690C -->
<g id="edge3" class="edge">
<title>dra.func_801177A0&#45;&gt;dra.func_8011690C</title>
<path fill="none" stroke="black" d="M728.88,-88.51C691.91,-74.35 637.11,-53.37 597.4,-38.16"/>
<polygon fill="black" stroke="black" points="598.49,-34.84 587.9,-34.53 595.99,-41.37 598.49,-34.84"/>
<text text-anchor="middle" x="677.34" y="-57.8" font-family="Times,serif" font-size="14.00">1</text>
</g>
<!-- dra.func_8010E83C -->
<g id="node5" class="node">
<title>dra.func_8010E83C</title>
<g id="a_node5"><a xlink:href="dra.func_8010E83C.svg" xlink:title="dra.func_8010E83C">
<ellipse fill="green" stroke="black" cx="769.34" cy="-18" rx="102.88" ry="18"/>
<text text-anchor="middle" x="769.34" y="-14.3" font-family="Times,serif" font-size="14.00">dra.func_8010E83C</text>
</a>
</g>
</g>
<!-- dra.func_801177A0&#45;&gt;dra.func_8010E83C -->
<g id="edge4" class="edge">
<title>dra.func_801177A0&#45;&gt;dra.func_8010E83C</title>
<path fill="none" stroke="black" d="M769.34,-86.8C769.34,-75.16 769.34,-59.55 769.34,-46.24"/>
<polygon fill="black" stroke="black" points="772.84,-46.18 769.34,-36.18 765.84,-46.18 772.84,-46.18"/>
<text text-anchor="middle" x="774.34" y="-57.8" font-family="Times,serif" font-size="14.00">1</text>
</g>
<!-- dra.func_80111CC0 -->
<g id="node6" class="node">
<title>dra.func_80111CC0</title>
<g id="a_node6"><a xlink:href="dra.func_80111CC0.svg" xlink:title="dra.func_80111CC0">
<ellipse fill="green" stroke="black" cx="992.34" cy="-18" rx="102.88" ry="18"/>
<text text-anchor="middle" x="992.34" y="-14.3" font-family="Times,serif" font-size="14.00">dra.func_80111CC0</text>
</a>
</g>
</g>
<!-- dra.func_801177A0&#45;&gt;dra.func_80111CC0 -->
<g id="edge5" class="edge">
<title>dra.func_801177A0&#45;&gt;dra.func_80111CC0</title>
<path fill="none" stroke="black" d="M809.98,-88.51C847.12,-74.35 902.17,-53.37 942.06,-38.16"/>
<polygon fill="black" stroke="black" points="943.5,-41.36 951.6,-34.53 941.01,-34.82 943.5,-41.36"/>
<text text-anchor="middle" x="899.34" y="-57.8" font-family="Times,serif" font-size="14.00">1</text>
</g>
<!-- dra.func_8010E4D0 -->
<g id="node7" class="node">
<title>dra.func_8010E4D0</title>
<g id="a_node7"><a xlink:href="dra.func_8010E4D0.svg" xlink:title="dra.func_8010E4D0">
<ellipse fill="green" stroke="black" cx="1215.34" cy="-18" rx="102.88" ry="18"/>
<text text-anchor="middle" x="1215.34" y="-14.3" font-family="Times,serif" font-size="14.00">dra.func_8010E4D0</text>
</a>
</g>
</g>
<!-- dra.func_801177A0&#45;&gt;dra.func_8010E4D0 -->
<g id="edge6" class="edge">
<title>dra.func_801177A0&#45;&gt;dra.func_8010E4D0</title>
<path fill="none" stroke="black" d="M835.63,-91.37C916.63,-75.93 1053.39,-49.86 1138.79,-33.59"/>
<polygon fill="black" stroke="black" points="1139.52,-37.01 1148.69,-31.7 1138.21,-30.14 1139.52,-37.01"/>
<text text-anchor="middle" x="1023.34" y="-57.8" font-family="Times,serif" font-size="14.00">1</text>
</g>
<!-- dra.func_80111DE8 -->
<g id="node8" class="node">
<title>dra.func_80111DE8</title>
<g id="a_node8"><a xlink:href="dra.func_80111DE8.svg" xlink:title="dra.func_80111DE8">
<ellipse fill="red" stroke="black" cx="1438.34" cy="-18" rx="102.88" ry="18"/>
<text text-anchor="middle" x="1438.34" y="-14.3" font-family="Times,serif" font-size="14.00">dra.func_80111DE8</text>
</a>
</g>
</g>
<!-- dra.func_801177A0&#45;&gt;dra.func_80111DE8 -->
<g id="edge7" class="edge">
<title>dra.func_801177A0&#45;&gt;dra.func_80111DE8</title>
<path fill="none" stroke="black" d="M852.17,-94.71C961.22,-82.3 1158.87,-59.16 1327.34,-36 1336.21,-34.78 1345.46,-33.45 1354.68,-32.09"/>
<polygon fill="black" stroke="black" points="1355.27,-35.54 1364.65,-30.61 1354.24,-28.62 1355.27,-35.54"/>
<text text-anchor="middle" x="1194.34" y="-57.8" font-family="Times,serif" font-size="14.00">1</text>
</g>
<!-- dra.EntityAlucard -->
<g id="node9" class="node">
<title>dra.EntityAlucard</title>
<g id="a_node9"><a xlink:href="dra.EntityAlucard.svg" xlink:title="dra.EntityAlucard">
<ellipse fill="red" stroke="black" cx="769.34" cy="-192" rx="93.68" ry="18"/>
<text text-anchor="middle" x="769.34" y="-188.3" font-family="Times,serif" font-size="14.00">dra.EntityAlucard</text>
</a>
</g>
</g>
<!-- dra.EntityAlucard&#45;&gt;dra.func_801177A0 -->
<g id="edge8" class="edge">
<title>dra.EntityAlucard&#45;&gt;dra.func_801177A0</title>
<path fill="none" stroke="black" d="M769.34,-173.8C769.34,-162.16 769.34,-146.55 769.34,-133.24"/>
<polygon fill="black" stroke="black" points="772.84,-133.18 769.34,-123.18 765.84,-133.18 772.84,-133.18"/>
<text text-anchor="middle" x="774.34" y="-144.8" font-family="Times,serif" font-size="14.00">1</text>
</g>
</g>
</svg>
