<?xml version="1.0" encoding="UTF-8" standalone="no"?>
<!DOCTYPE svg PUBLIC "-//W3C//DTD SVG 1.1//EN"
 "http://www.w3.org/Graphics/SVG/1.1/DTD/svg11.dtd">
<!-- Generated by graphviz version 2.43.0 (0)
 -->
<!-- Title: dra.GetEquipCount Pages: 1 -->
<svg width="432pt" height="224pt"
 viewBox="0.00 0.00 432.43 224.00" xmlns="http://www.w3.org/2000/svg" xmlns:xlink="http://www.w3.org/1999/xlink">
<g id="graph0" class="graph" transform="scale(1 1) rotate(0) translate(4 220)">
<title>dra.GetEquipCount</title>
<polygon fill="white" stroke="transparent" points="-4,4 -4,-220 428.43,-220 428.43,4 -4,4"/>
<!-- dra.GetEquipCount -->
<g id="node1" class="node">
<title>dra.GetEquipCount</title>
<ellipse fill="green" stroke="black" cx="210.74" cy="-18" rx="100.98" ry="18"/>
<text text-anchor="middle" x="210.74" y="-14.3" font-family="Times,serif" font-size="14.00">dra.GetEquipCount</text>
</g>
<!-- dra.func_800F8990 -->
<g id="node2" class="node">
<title>dra.func_800F8990</title>
<g id="a_node2"><a xlink:href="dra.func_800F8990.svg" xlink:title="dra.func_800F8990">
<ellipse fill="green" stroke="black" cx="100.74" cy="-198" rx="100.98" ry="18"/>
<text text-anchor="middle" x="100.74" y="-194.3" font-family="Times,serif" font-size="14.00">dra.func_800F8990</text>
</a>
</g>
</g>
<!-- dra.func_800F8990&#45;&gt;dra.GetEquipCount -->
<g id="edge1" class="edge">
<title>dra.func_800F8990&#45;&gt;dra.GetEquipCount</title>
<path fill="none" stroke="black" d="M111.29,-179.93C130.67,-148.57 172.05,-81.6 194.85,-44.71"/>
<polygon fill="black" stroke="black" points="197.95,-46.36 200.23,-36.02 191.99,-42.68 197.95,-46.36"/>
<text text-anchor="middle" x="106.29" y="-168.73" font-family="Times,serif" font-size="14.00">1</text>
</g>
<!-- dra.AddToInventory -->
<g id="node3" class="node">
<title>dra.AddToInventory</title>
<g id="a_node3"><a xlink:href="dra.AddToInventory.svg" xlink:title="dra.AddToInventory">
<ellipse fill="red" stroke="black" cx="321.74" cy="-198" rx="102.88" ry="18"/>
<text text-anchor="middle" x="321.74" y="-194.3" font-family="Times,serif" font-size="14.00">dra.AddToInventory</text>
</a>
</g>
</g>
<!-- dra.AddToInventory&#45;&gt;dra.GetEquipCount -->
<g id="edge2" class="edge">
<title>dra.AddToInventory&#45;&gt;dra.GetEquipCount</title>
<path fill="none" stroke="black" d="M311.1,-179.93C291.54,-148.57 249.78,-81.6 226.77,-44.71"/>
<polygon fill="black" stroke="black" points="229.61,-42.65 221.35,-36.02 223.67,-46.35 229.61,-42.65"/>
<text text-anchor="middle" x="306.1" y="-168.73" font-family="Times,serif" font-size="14.00">1</text>
</g>
</g>
</svg>
