<?xml version="1.0" encoding="UTF-8" standalone="no"?>
<!DOCTYPE svg PUBLIC "-//W3C//DTD SVG 1.1//EN"
 "http://www.w3.org/Graphics/SVG/1.1/DTD/svg11.dtd">
<!-- Generated by graphviz version 2.43.0 (0)
 -->
<!-- Title: dra.func_80133940 Pages: 1 -->
<svg width="472pt" height="131pt"
 viewBox="0.00 0.00 471.93 131.00" xmlns="http://www.w3.org/2000/svg" xmlns:xlink="http://www.w3.org/1999/xlink">
<g id="graph0" class="graph" transform="scale(1 1) rotate(0) translate(4 127)">
<title>dra.func_80133940</title>
<polygon fill="white" stroke="transparent" points="-4,4 -4,-127 467.93,-127 467.93,4 -4,4"/>
<!-- dra.func_80133940 -->
<g id="node1" class="node">
<title>dra.func_80133940</title>
<ellipse fill="green" stroke="black" cx="240.24" cy="-18" rx="100.98" ry="18"/>
<text text-anchor="middle" x="240.24" y="-14.3" font-family="Times,serif" font-size="14.00">dra.func_80133940</text>
</g>
<!-- servant.func_80174038 -->
<g id="node2" class="node">
<title>servant.func_80174038</title>
<g id="a_node2"><a xlink:href="servant.func_80174038.svg" xlink:title="servant.func_80174038">
<ellipse fill="green" stroke="black" cx="120.24" cy="-105" rx="120.48" ry="18"/>
<text text-anchor="middle" x="120.24" y="-101.3" font-family="Times,serif" font-size="14.00">servant.func_80174038</text>
</a>
</g>
</g>
<!-- servant.func_80174038&#45;&gt;dra.func_80133940 -->
<g id="edge1" class="edge">
<title>servant.func_80174038&#45;&gt;dra.func_80133940</title>
<path fill="none" stroke="black" d="M143.95,-87.21C162.36,-74.17 188.06,-55.96 208.29,-41.63"/>
<polygon fill="black" stroke="black" points="210.44,-44.39 216.58,-35.76 206.4,-38.68 210.44,-44.39"/>
<text text-anchor="middle" x="193.24" y="-57.8" font-family="Times,serif" font-size="14.00">2</text>
</g>
<!-- dra.func_800FBC24 -->
<g id="node3" class="node">
<title>dra.func_800FBC24</title>
<g id="a_node3"><a xlink:href="dra.func_800FBC24.svg" xlink:title="dra.func_800FBC24">
<ellipse fill="red" stroke="black" cx="361.24" cy="-105" rx="102.88" ry="18"/>
<text text-anchor="middle" x="361.24" y="-101.3" font-family="Times,serif" font-size="14.00">dra.func_800FBC24</text>
</a>
</g>
</g>
<!-- dra.func_800FBC24&#45;&gt;dra.func_80133940 -->
<g id="edge2" class="edge">
<title>dra.func_800FBC24&#45;&gt;dra.func_80133940</title>
<path fill="none" stroke="black" d="M337.62,-87.41C318.97,-74.3 292.75,-55.88 272.21,-41.46"/>
<polygon fill="black" stroke="black" points="273.99,-38.43 263.8,-35.55 269.97,-44.16 273.99,-38.43"/>
<text text-anchor="middle" x="313.24" y="-57.8" font-family="Times,serif" font-size="14.00">2</text>
</g>
</g>
</svg>
