<?xml version="1.0" encoding="UTF-8" standalone="no"?>
<!DOCTYPE svg PUBLIC "-//W3C//DTD SVG 1.1//EN"
 "http://www.w3.org/Graphics/SVG/1.1/DTD/svg11.dtd">
<!-- Generated by graphviz version 2.43.0 (0)
 -->
<!-- Title: dra.func_800F5A90 Pages: 1 -->
<svg width="211pt" height="404pt"
 viewBox="0.00 0.00 210.78 404.00" xmlns="http://www.w3.org/2000/svg" xmlns:xlink="http://www.w3.org/1999/xlink">
<g id="graph0" class="graph" transform="scale(1 1) rotate(0) translate(4 400)">
<title>dra.func_800F5A90</title>
<polygon fill="white" stroke="transparent" points="-4,4 -4,-400 206.78,-400 206.78,4 -4,4"/>
<!-- dra.func_800F5A90 -->
<g id="node1" class="node">
<title>dra.func_800F5A90</title>
<ellipse fill="green" stroke="black" cx="101.39" cy="-198" rx="101.28" ry="18"/>
<text text-anchor="middle" x="101.39" y="-194.3" font-family="Times,serif" font-size="14.00">dra.func_800F5A90</text>
</g>
<!-- dra.DrawMenuImg -->
<g id="node2" class="node">
<title>dra.DrawMenuImg</title>
<g id="a_node2"><a xlink:href="dra.DrawMenuImg.svg" xlink:title="dra.DrawMenuImg">
<ellipse fill="green" stroke="black" cx="101.39" cy="-18" rx="98.58" ry="18"/>
<text text-anchor="middle" x="101.39" y="-14.3" font-family="Times,serif" font-size="14.00">dra.DrawMenuImg</text>
</a>
</g>
</g>
<!-- dra.func_800F5A90&#45;&gt;dra.DrawMenuImg -->
<g id="edge1" class="edge">
<title>dra.func_800F5A90&#45;&gt;dra.DrawMenuImg</title>
<path fill="none" stroke="black" d="M101.39,-179.93C101.39,-148.97 101.39,-83.3 101.39,-46.13"/>
<polygon fill="black" stroke="black" points="104.89,-46.02 101.39,-36.02 97.89,-46.02 104.89,-46.02"/>
<text text-anchor="middle" x="96.39" y="-39.82" font-family="Times,serif" font-size="14.00">1</text>
</g>
<!-- dra.HandleMenu -->
<g id="node3" class="node">
<title>dra.HandleMenu</title>
<g id="a_node3"><a xlink:href="dra.HandleMenu.svg" xlink:title="dra.HandleMenu">
<ellipse fill="green" stroke="black" cx="101.39" cy="-378" rx="89.08" ry="18"/>
<text text-anchor="middle" x="101.39" y="-374.3" font-family="Times,serif" font-size="14.00">dra.HandleMenu</text>
</a>
</g>
</g>
<!-- dra.HandleMenu&#45;&gt;dra.func_800F5A90 -->
<g id="edge2" class="edge">
<title>dra.HandleMenu&#45;&gt;dra.func_800F5A90</title>
<path fill="none" stroke="black" d="M101.39,-359.93C101.39,-328.97 101.39,-263.3 101.39,-226.13"/>
<polygon fill="black" stroke="black" points="104.89,-226.02 101.39,-216.02 97.89,-226.02 104.89,-226.02"/>
<text text-anchor="middle" x="96.39" y="-348.73" font-family="Times,serif" font-size="14.00">2</text>
</g>
</g>
</svg>
