<?xml version="1.0" encoding="UTF-8" standalone="no"?>
<!DOCTYPE svg PUBLIC "-//W3C//DTD SVG 1.1//EN"
 "http://www.w3.org/Graphics/SVG/1.1/DTD/svg11.dtd">
<!-- Generated by graphviz version 2.43.0 (0)
 -->
<!-- Title: dra.func_80133960 Pages: 1 -->
<svg width="933pt" height="218pt"
 viewBox="0.00 0.00 932.78 218.00" xmlns="http://www.w3.org/2000/svg" xmlns:xlink="http://www.w3.org/1999/xlink">
<g id="graph0" class="graph" transform="scale(1 1) rotate(0) translate(4 214)">
<title>dra.func_80133960</title>
<polygon fill="white" stroke="transparent" points="-4,4 -4,-214 928.78,-214 928.78,4 -4,4"/>
<!-- dra.func_80133960 -->
<g id="node1" class="node">
<title>dra.func_80133960</title>
<ellipse fill="red" stroke="black" cx="401.39" cy="-105" rx="100.98" ry="18"/>
<text text-anchor="middle" x="401.39" y="-101.3" font-family="Times,serif" font-size="14.00">dra.func_80133960</text>
</g>
<!-- dra.func_801324B4 -->
<g id="node2" class="node">
<title>dra.func_801324B4</title>
<g id="a_node2"><a xlink:href="dra.func_801324B4.svg" xlink:title="dra.func_801324B4">
<ellipse fill="green" stroke="black" cx="101.39" cy="-18" rx="101.28" ry="18"/>
<text text-anchor="middle" x="101.39" y="-14.3" font-family="Times,serif" font-size="14.00">dra.func_801324B4</text>
</a>
</g>
</g>
<!-- dra.func_80133960&#45;&gt;dra.func_801324B4 -->
<g id="edge1" class="edge">
<title>dra.func_80133960&#45;&gt;dra.func_801324B4</title>
<path fill="none" stroke="black" d="M350.16,-89.48C298.22,-74.77 217.84,-51.99 162.58,-36.34"/>
<polygon fill="black" stroke="black" points="163.49,-32.96 152.91,-33.6 161.58,-39.69 163.49,-32.96"/>
<text text-anchor="middle" x="274.39" y="-57.8" font-family="Times,serif" font-size="14.00">1</text>
</g>
<!-- VSync -->
<g id="node3" class="node">
<title>VSync</title>
<g id="a_node3"><a xlink:href="VSync.svg" xlink:title="VSync">
<ellipse fill="lightblue" stroke="black" cx="260.39" cy="-18" rx="39.79" ry="18"/>
<text text-anchor="middle" x="260.39" y="-14.3" font-family="Times,serif" font-size="14.00">VSync</text>
</a>
</g>
</g>
<!-- dra.func_80133960&#45;&gt;VSync -->
<g id="edge2" class="edge">
<title>dra.func_80133960&#45;&gt;VSync</title>
<path fill="none" stroke="black" d="M374.2,-87.61C350.68,-73.43 316.66,-52.92 291.95,-38.02"/>
<polygon fill="black" stroke="black" points="293.67,-34.98 283.3,-32.81 290.06,-40.97 293.67,-34.98"/>
<text text-anchor="middle" x="344.39" y="-57.8" font-family="Times,serif" font-size="14.00">1</text>
</g>
<!-- SsSetSerialAttr -->
<g id="node4" class="node">
<title>SsSetSerialAttr</title>
<g id="a_node4"><a xlink:href="SsSetSerialAttr.svg" xlink:title="SsSetSerialAttr">
<ellipse fill="lightblue" stroke="black" cx="401.39" cy="-18" rx="83.39" ry="18"/>
<text text-anchor="middle" x="401.39" y="-14.3" font-family="Times,serif" font-size="14.00">SsSetSerialAttr</text>
</a>
</g>
</g>
<!-- dra.func_80133960&#45;&gt;SsSetSerialAttr -->
<g id="edge3" class="edge">
<title>dra.func_80133960&#45;&gt;SsSetSerialAttr</title>
<path fill="none" stroke="black" d="M401.39,-86.8C401.39,-75.16 401.39,-59.55 401.39,-46.24"/>
<polygon fill="black" stroke="black" points="404.89,-46.18 401.39,-36.18 397.89,-46.18 404.89,-46.18"/>
<text text-anchor="middle" x="406.39" y="-57.8" font-family="Times,serif" font-size="14.00">1</text>
</g>
<!-- dra.func_80132028 -->
<g id="node5" class="node">
<title>dra.func_80132028</title>
<g id="a_node5"><a xlink:href="dra.func_80132028.svg" xlink:title="dra.func_80132028">
<ellipse fill="green" stroke="black" cx="603.39" cy="-18" rx="100.98" ry="18"/>
<text text-anchor="middle" x="603.39" y="-14.3" font-family="Times,serif" font-size="14.00">dra.func_80132028</text>
</a>
</g>
</g>
<!-- dra.func_80133960&#45;&gt;dra.func_80132028 -->
<g id="edge4" class="edge">
<title>dra.func_80133960&#45;&gt;dra.func_80132028</title>
<path fill="none" stroke="black" d="M438.91,-88.21C472.11,-74.24 520.71,-53.79 556.47,-38.74"/>
<polygon fill="black" stroke="black" points="557.87,-41.95 565.73,-34.85 555.15,-35.5 557.87,-41.95"/>
<text text-anchor="middle" x="520.39" y="-57.8" font-family="Times,serif" font-size="14.00">1</text>
</g>
<!-- dra.func_80132E38 -->
<g id="node6" class="node">
<title>dra.func_80132E38</title>
<g id="a_node6"><a xlink:href="dra.func_80132E38.svg" xlink:title="dra.func_80132E38">
<ellipse fill="green" stroke="black" cx="823.39" cy="-18" rx="101.28" ry="18"/>
<text text-anchor="middle" x="823.39" y="-14.3" font-family="Times,serif" font-size="14.00">dra.func_80132E38</text>
</a>
</g>
</g>
<!-- dra.func_80133960&#45;&gt;dra.func_80132E38 -->
<g id="edge5" class="edge">
<title>dra.func_80133960&#45;&gt;dra.func_80132E38</title>
<path fill="none" stroke="black" d="M465.48,-91.09C541.66,-75.75 668.54,-50.19 748.98,-33.99"/>
<polygon fill="black" stroke="black" points="749.93,-37.37 759.04,-31.96 748.55,-30.5 749.93,-37.37"/>
<text text-anchor="middle" x="642.39" y="-57.8" font-family="Times,serif" font-size="14.00">1</text>
</g>
<!-- dra.func_801353A0 -->
<g id="node7" class="node">
<title>dra.func_801353A0</title>
<g id="a_node7"><a xlink:href="dra.func_801353A0.svg" xlink:title="dra.func_801353A0">
<ellipse fill="green" stroke="black" cx="401.39" cy="-192" rx="100.98" ry="18"/>
<text text-anchor="middle" x="401.39" y="-188.3" font-family="Times,serif" font-size="14.00">dra.func_801353A0</text>
</a>
</g>
</g>
<!-- dra.func_801353A0&#45;&gt;dra.func_80133960 -->
<g id="edge6" class="edge">
<title>dra.func_801353A0&#45;&gt;dra.func_80133960</title>
<path fill="none" stroke="black" d="M401.39,-173.8C401.39,-162.16 401.39,-146.55 401.39,-133.24"/>
<polygon fill="black" stroke="black" points="404.89,-133.18 401.39,-123.18 397.89,-133.18 404.89,-133.18"/>
<text text-anchor="middle" x="406.39" y="-144.8" font-family="Times,serif" font-size="14.00">1</text>
</g>
</g>
</svg>
