<?xml version="1.0" encoding="UTF-8" standalone="no"?>
<!DOCTYPE svg PUBLIC "-//W3C//DTD SVG 1.1//EN"
 "http://www.w3.org/Graphics/SVG/1.1/DTD/svg11.dtd">
<!-- Generated by graphviz version 2.43.0 (0)
 -->
<!-- Title: dra.func_800E8E48 Pages: 1 -->
<svg width="386pt" height="404pt"
 viewBox="0.00 0.00 386.03 404.00" xmlns="http://www.w3.org/2000/svg" xmlns:xlink="http://www.w3.org/1999/xlink">
<g id="graph0" class="graph" transform="scale(1 1) rotate(0) translate(4 400)">
<title>dra.func_800E8E48</title>
<polygon fill="white" stroke="transparent" points="-4,4 -4,-400 382.03,-400 382.03,4 -4,4"/>
<!-- dra.func_800E8E48 -->
<g id="node1" class="node">
<title>dra.func_800E8E48</title>
<ellipse fill="green" stroke="black" cx="201.69" cy="-198" rx="102.88" ry="18"/>
<text text-anchor="middle" x="201.69" y="-194.3" font-family="Times,serif" font-size="14.00">dra.func_800E8E48</text>
</g>
<!-- dra.func_800E8D54 -->
<g id="node2" class="node">
<title>dra.func_800E8D54</title>
<g id="a_node2"><a xlink:href="dra.func_800E8D54.svg" xlink:title="dra.func_800E8D54">
<ellipse fill="green" stroke="black" cx="102.69" cy="-18" rx="102.88" ry="18"/>
<text text-anchor="middle" x="102.69" y="-14.3" font-family="Times,serif" font-size="14.00">dra.func_800E8D54</text>
</a>
</g>
</g>
<!-- dra.func_800E8E48&#45;&gt;dra.func_800E8D54 -->
<g id="edge1" class="edge">
<title>dra.func_800E8E48&#45;&gt;dra.func_800E8D54</title>
<path fill="none" stroke="black" d="M192.2,-179.93C174.83,-148.7 137.82,-82.17 117.25,-45.18"/>
<polygon fill="black" stroke="black" points="120.07,-43.05 112.15,-36.02 113.96,-46.46 120.07,-43.05"/>
<text text-anchor="middle" x="107.15" y="-39.82" font-family="Times,serif" font-size="14.00">1</text>
</g>
<!-- main.PadRead -->
<g id="node3" class="node">
<title>main.PadRead</title>
<g id="a_node3"><a xlink:href="main.PadRead.svg" xlink:title="main.PadRead">
<ellipse fill="red" stroke="black" cx="300.69" cy="-18" rx="77.19" ry="18"/>
<text text-anchor="middle" x="300.69" y="-14.3" font-family="Times,serif" font-size="14.00">main.PadRead</text>
</a>
</g>
</g>
<!-- dra.func_800E8E48&#45;&gt;main.PadRead -->
<g id="edge2" class="edge">
<title>dra.func_800E8E48&#45;&gt;main.PadRead</title>
<path fill="none" stroke="black" d="M211.18,-179.93C228.55,-148.7 265.56,-82.17 286.13,-45.18"/>
<polygon fill="black" stroke="black" points="289.43,-46.46 291.23,-36.02 283.31,-43.05 289.43,-46.46"/>
<text text-anchor="middle" x="286.23" y="-39.82" font-family="Times,serif" font-size="14.00">1</text>
</g>
<!-- dra.entrypoint_sotn -->
<g id="node4" class="node">
<title>dra.entrypoint_sotn</title>
<g id="a_node4"><a xlink:href="dra.entrypoint_sotn.svg" xlink:title="dra.entrypoint_sotn">
<ellipse fill="green" stroke="black" cx="201.69" cy="-378" rx="102.88" ry="18"/>
<text text-anchor="middle" x="201.69" y="-374.3" font-family="Times,serif" font-size="14.00">dra.entrypoint_sotn</text>
</a>
</g>
</g>
<!-- dra.entrypoint_sotn&#45;&gt;dra.func_800E8E48 -->
<g id="edge3" class="edge">
<title>dra.entrypoint_sotn&#45;&gt;dra.func_800E8E48</title>
<path fill="none" stroke="black" d="M201.69,-359.93C201.69,-328.97 201.69,-263.3 201.69,-226.13"/>
<polygon fill="black" stroke="black" points="205.19,-226.02 201.69,-216.02 198.19,-226.02 205.19,-226.02"/>
<text text-anchor="middle" x="196.69" y="-348.73" font-family="Times,serif" font-size="14.00">1</text>
</g>
</g>
</svg>
