<?xml version="1.0" encoding="UTF-8" standalone="no"?>
<!DOCTYPE svg PUBLIC "-//W3C//DTD SVG 1.1//EN"
 "http://www.w3.org/Graphics/SVG/1.1/DTD/svg11.dtd">
<!-- Generated by graphviz version 2.43.0 (0)
 -->
<!-- Title: dra.func_80112B64 Pages: 1 -->
<svg width="836pt" height="404pt"
 viewBox="0.00 0.00 836.08 404.00" xmlns="http://www.w3.org/2000/svg" xmlns:xlink="http://www.w3.org/1999/xlink">
<g id="graph0" class="graph" transform="scale(1 1) rotate(0) translate(4 400)">
<title>dra.func_80112B64</title>
<polygon fill="white" stroke="transparent" points="-4,4 -4,-400 832.08,-400 832.08,4 -4,4"/>
<!-- dra.func_80112B64 -->
<g id="node1" class="node">
<title>dra.func_80112B64</title>
<ellipse fill="green" stroke="black" cx="403.69" cy="-198" rx="101.28" ry="18"/>
<text text-anchor="middle" x="403.69" y="-194.3" font-family="Times,serif" font-size="14.00">dra.func_80112B64</text>
</g>
<!-- dra.func_8010FDF8 -->
<g id="node2" class="node">
<title>dra.func_8010FDF8</title>
<g id="a_node2"><a xlink:href="dra.func_8010FDF8.svg" xlink:title="dra.func_8010FDF8">
<ellipse fill="green" stroke="black" cx="102.69" cy="-18" rx="102.88" ry="18"/>
<text text-anchor="middle" x="102.69" y="-14.3" font-family="Times,serif" font-size="14.00">dra.func_8010FDF8</text>
</a>
</g>
</g>
<!-- dra.func_80112B64&#45;&gt;dra.func_8010FDF8 -->
<g id="edge1" class="edge">
<title>dra.func_80112B64&#45;&gt;dra.func_8010FDF8</title>
<path fill="none" stroke="black" d="M375.91,-180.57C321.37,-148.32 200.29,-76.72 139.3,-40.65"/>
<polygon fill="black" stroke="black" points="140.79,-37.46 130.4,-35.39 137.23,-43.49 140.79,-37.46"/>
<text text-anchor="middle" x="125.4" y="-39.19" font-family="Times,serif" font-size="14.00">1</text>
</g>
<!-- dra.SetSpeedX -->
<g id="node3" class="node">
<title>dra.SetSpeedX</title>
<g id="a_node3"><a xlink:href="dra.SetSpeedX.svg" xlink:title="dra.SetSpeedX">
<ellipse fill="green" stroke="black" cx="303.69" cy="-18" rx="79.89" ry="18"/>
<text text-anchor="middle" x="303.69" y="-14.3" font-family="Times,serif" font-size="14.00">dra.SetSpeedX</text>
</a>
</g>
</g>
<!-- dra.func_80112B64&#45;&gt;dra.SetSpeedX -->
<g id="edge2" class="edge">
<title>dra.func_80112B64&#45;&gt;dra.SetSpeedX</title>
<path fill="none" stroke="black" d="M394.1,-179.93C376.56,-148.7 339.18,-82.17 318.4,-45.18"/>
<polygon fill="black" stroke="black" points="321.2,-43.02 313.25,-36.02 315.1,-46.45 321.2,-43.02"/>
<text text-anchor="middle" x="308.25" y="-39.82" font-family="Times,serif" font-size="14.00">1</text>
</g>
<!-- dra.func_8010E27C -->
<g id="node4" class="node">
<title>dra.func_8010E27C</title>
<g id="a_node4"><a xlink:href="dra.func_8010E27C.svg" xlink:title="dra.func_8010E27C">
<ellipse fill="green" stroke="black" cx="504.69" cy="-18" rx="102.88" ry="18"/>
<text text-anchor="middle" x="504.69" y="-14.3" font-family="Times,serif" font-size="14.00">dra.func_8010E27C</text>
</a>
</g>
</g>
<!-- dra.func_80112B64&#45;&gt;dra.func_8010E27C -->
<g id="edge3" class="edge">
<title>dra.func_80112B64&#45;&gt;dra.func_8010E27C</title>
<path fill="none" stroke="black" d="M413.38,-179.93C431.1,-148.7 468.85,-82.17 489.84,-45.18"/>
<polygon fill="black" stroke="black" points="493.14,-46.44 495.04,-36.02 487.06,-42.99 493.14,-46.44"/>
<text text-anchor="middle" x="490.04" y="-39.82" font-family="Times,serif" font-size="14.00">1</text>
</g>
<!-- dra.func_8010E570 -->
<g id="node5" class="node">
<title>dra.func_8010E570</title>
<g id="a_node5"><a xlink:href="dra.func_8010E570.svg" xlink:title="dra.func_8010E570">
<ellipse fill="red" stroke="black" cx="726.69" cy="-18" rx="101.28" ry="18"/>
<text text-anchor="middle" x="726.69" y="-14.3" font-family="Times,serif" font-size="14.00">dra.func_8010E570</text>
</a>
</g>
</g>
<!-- dra.func_80112B64&#45;&gt;dra.func_8010E570 -->
<g id="edge4" class="edge">
<title>dra.func_80112B64&#45;&gt;dra.func_8010E570</title>
<path fill="none" stroke="black" d="M433.21,-180.73C491.81,-148.44 622.8,-76.25 688.12,-40.25"/>
<polygon fill="black" stroke="black" points="689.82,-43.32 696.89,-35.42 686.44,-37.18 689.82,-43.32"/>
<text text-anchor="middle" x="691.89" y="-39.22" font-family="Times,serif" font-size="14.00">1</text>
</g>
<!-- dra.EntityAlucard -->
<g id="node6" class="node">
<title>dra.EntityAlucard</title>
<g id="a_node6"><a xlink:href="dra.EntityAlucard.svg" xlink:title="dra.EntityAlucard">
<ellipse fill="red" stroke="black" cx="403.69" cy="-378" rx="93.68" ry="18"/>
<text text-anchor="middle" x="403.69" y="-374.3" font-family="Times,serif" font-size="14.00">dra.EntityAlucard</text>
</a>
</g>
</g>
<!-- dra.EntityAlucard&#45;&gt;dra.func_80112B64 -->
<g id="edge5" class="edge">
<title>dra.EntityAlucard&#45;&gt;dra.func_80112B64</title>
<path fill="none" stroke="black" d="M403.69,-359.93C403.69,-328.97 403.69,-263.3 403.69,-226.13"/>
<polygon fill="black" stroke="black" points="407.19,-226.02 403.69,-216.02 400.19,-226.02 407.19,-226.02"/>
<text text-anchor="middle" x="398.69" y="-348.73" font-family="Times,serif" font-size="14.00">1</text>
</g>
</g>
</svg>
