<?xml version="1.0" encoding="UTF-8" standalone="no"?>
<!DOCTYPE svg PUBLIC "-//W3C//DTD SVG 1.1//EN"
 "http://www.w3.org/Graphics/SVG/1.1/DTD/svg11.dtd">
<!-- Generated by graphviz version 2.43.0 (0)
 -->
<!-- Title: dra.func_800F0578 Pages: 1 -->
<svg width="435pt" height="404pt"
 viewBox="0.00 0.00 434.73 404.00" xmlns="http://www.w3.org/2000/svg" xmlns:xlink="http://www.w3.org/1999/xlink">
<g id="graph0" class="graph" transform="scale(1 1) rotate(0) translate(4 400)">
<title>dra.func_800F0578</title>
<polygon fill="white" stroke="transparent" points="-4,4 -4,-400 430.73,-400 430.73,4 -4,4"/>
<!-- dra.func_800F0578 -->
<g id="node1" class="node">
<title>dra.func_800F0578</title>
<ellipse fill="green" stroke="black" cx="214.34" cy="-198" rx="100.98" ry="18"/>
<text text-anchor="middle" x="214.34" y="-194.3" font-family="Times,serif" font-size="14.00">dra.func_800F0578</text>
</g>
<!-- dra.func_800EFBF8 -->
<g id="node2" class="node">
<title>dra.func_800EFBF8</title>
<g id="a_node2"><a xlink:href="dra.func_800EFBF8.svg" xlink:title="dra.func_800EFBF8">
<ellipse fill="green" stroke="black" cx="103.34" cy="-18" rx="103.18" ry="18"/>
<text text-anchor="middle" x="103.34" y="-14.3" font-family="Times,serif" font-size="14.00">dra.func_800EFBF8</text>
</a>
</g>
</g>
<!-- dra.func_800F0578&#45;&gt;dra.func_800EFBF8 -->
<g id="edge1" class="edge">
<title>dra.func_800F0578&#45;&gt;dra.func_800EFBF8</title>
<path fill="none" stroke="black" d="M203.7,-179.93C184.14,-148.57 142.38,-81.6 119.37,-44.71"/>
<polygon fill="black" stroke="black" points="122.21,-42.65 113.95,-36.02 116.27,-46.35 122.21,-42.65"/>
<text text-anchor="middle" x="108.95" y="-39.82" font-family="Times,serif" font-size="14.00">1</text>
</g>
<!-- dra.func_800F0334 -->
<g id="node3" class="node">
<title>dra.func_800F0334</title>
<g id="a_node3"><a xlink:href="dra.func_800F0334.svg" xlink:title="dra.func_800F0334">
<ellipse fill="green" stroke="black" cx="325.34" cy="-18" rx="100.98" ry="18"/>
<text text-anchor="middle" x="325.34" y="-14.3" font-family="Times,serif" font-size="14.00">dra.func_800F0334</text>
</a>
</g>
</g>
<!-- dra.func_800F0578&#45;&gt;dra.func_800F0334 -->
<g id="edge2" class="edge">
<title>dra.func_800F0578&#45;&gt;dra.func_800F0334</title>
<path fill="none" stroke="black" d="M224.98,-179.93C244.54,-148.57 286.3,-81.6 309.31,-44.71"/>
<polygon fill="black" stroke="black" points="312.41,-46.35 314.73,-36.02 306.47,-42.65 312.41,-46.35"/>
<text text-anchor="middle" x="309.73" y="-39.82" font-family="Times,serif" font-size="14.00">1</text>
</g>
<!-- dra.func_800E4A14 -->
<g id="node4" class="node">
<title>dra.func_800E4A14</title>
<g id="a_node4"><a xlink:href="dra.func_800E4A14.svg" xlink:title="dra.func_800E4A14">
<ellipse fill="green" stroke="black" cx="104.34" cy="-378" rx="102.08" ry="18"/>
<text text-anchor="middle" x="104.34" y="-374.3" font-family="Times,serif" font-size="14.00">dra.func_800E4A14</text>
</a>
</g>
</g>
<!-- dra.func_800E4A14&#45;&gt;dra.func_800F0578 -->
<g id="edge3" class="edge">
<title>dra.func_800E4A14&#45;&gt;dra.func_800F0578</title>
<path fill="none" stroke="black" d="M114.89,-359.93C134.27,-328.57 175.65,-261.6 198.45,-224.71"/>
<polygon fill="black" stroke="black" points="201.55,-226.36 203.83,-216.02 195.59,-222.68 201.55,-226.36"/>
<text text-anchor="middle" x="109.89" y="-348.73" font-family="Times,serif" font-size="14.00">1</text>
</g>
<!-- dra.func_800E6358 -->
<g id="node5" class="node">
<title>dra.func_800E6358</title>
<g id="a_node5"><a xlink:href="dra.func_800E6358.svg" xlink:title="dra.func_800E6358">
<ellipse fill="green" stroke="black" cx="325.34" cy="-378" rx="101.28" ry="18"/>
<text text-anchor="middle" x="325.34" y="-374.3" font-family="Times,serif" font-size="14.00">dra.func_800E6358</text>
</a>
</g>
</g>
<!-- dra.func_800E6358&#45;&gt;dra.func_800F0578 -->
<g id="edge4" class="edge">
<title>dra.func_800E6358&#45;&gt;dra.func_800F0578</title>
<path fill="none" stroke="black" d="M314.7,-359.93C295.14,-328.57 253.38,-261.6 230.37,-224.71"/>
<polygon fill="black" stroke="black" points="233.21,-222.65 224.95,-216.02 227.27,-226.35 233.21,-222.65"/>
<text text-anchor="middle" x="309.7" y="-348.73" font-family="Times,serif" font-size="14.00">1</text>
</g>
</g>
</svg>
