<?xml version="1.0" encoding="UTF-8" standalone="no"?>
<!DOCTYPE svg PUBLIC "-//W3C//DTD SVG 1.1//EN"
 "http://www.w3.org/Graphics/SVG/1.1/DTD/svg11.dtd">
<!-- Generated by graphviz version 2.43.0 (0)
 -->
<!-- Title: dra.func_800E91B0 Pages: 1 -->
<svg width="709pt" height="218pt"
 viewBox="0.00 0.00 708.78 218.00" xmlns="http://www.w3.org/2000/svg" xmlns:xlink="http://www.w3.org/1999/xlink">
<g id="graph0" class="graph" transform="scale(1 1) rotate(0) translate(4 214)">
<title>dra.func_800E91B0</title>
<polygon fill="white" stroke="transparent" points="-4,4 -4,-214 704.78,-214 704.78,4 -4,4"/>
<!-- dra.func_800E91B0 -->
<g id="node1" class="node">
<title>dra.func_800E91B0</title>
<ellipse fill="green" stroke="black" cx="337.39" cy="-105" rx="102.88" ry="18"/>
<text text-anchor="middle" x="337.39" y="-101.3" font-family="Times,serif" font-size="14.00">dra.func_800E91B0</text>
</g>
<!-- TestEvent -->
<g id="node2" class="node">
<title>TestEvent</title>
<g id="a_node2"><a xlink:href="TestEvent.svg" xlink:title="TestEvent">
<ellipse fill="lightblue" stroke="black" cx="337.39" cy="-18" rx="57.69" ry="18"/>
<text text-anchor="middle" x="337.39" y="-14.3" font-family="Times,serif" font-size="14.00">TestEvent</text>
</a>
</g>
</g>
<!-- dra.func_800E91B0&#45;&gt;TestEvent -->
<g id="edge1" class="edge">
<title>dra.func_800E91B0&#45;&gt;TestEvent</title>
<path fill="none" stroke="black" d="M337.39,-86.8C337.39,-75.16 337.39,-59.55 337.39,-46.24"/>
<polygon fill="black" stroke="black" points="340.89,-46.18 337.39,-36.18 333.89,-46.18 340.89,-46.18"/>
<text text-anchor="middle" x="342.39" y="-57.8" font-family="Times,serif" font-size="14.00">4</text>
</g>
<!-- dra.func_800E9880 -->
<g id="node3" class="node">
<title>dra.func_800E9880</title>
<g id="a_node3"><a xlink:href="dra.func_800E9880.svg" xlink:title="dra.func_800E9880">
<ellipse fill="red" stroke="black" cx="101.39" cy="-192" rx="101.28" ry="18"/>
<text text-anchor="middle" x="101.39" y="-188.3" font-family="Times,serif" font-size="14.00">dra.func_800E9880</text>
</a>
</g>
</g>
<!-- dra.func_800E9880&#45;&gt;dra.func_800E91B0 -->
<g id="edge2" class="edge">
<title>dra.func_800E9880&#45;&gt;dra.func_800E91B0</title>
<path fill="none" stroke="black" d="M144.13,-175.61C183.69,-161.36 242.61,-140.14 284.99,-124.87"/>
<polygon fill="black" stroke="black" points="286.35,-128.1 294.57,-121.42 283.98,-121.52 286.35,-128.1"/>
<text text-anchor="middle" x="239.39" y="-144.8" font-family="Times,serif" font-size="14.00">1</text>
</g>
<!-- dra.MemcardWriteFile -->
<g id="node4" class="node">
<title>dra.MemcardWriteFile</title>
<g id="a_node4"><a xlink:href="dra.MemcardWriteFile.svg" xlink:title="dra.MemcardWriteFile">
<ellipse fill="green" stroke="black" cx="337.39" cy="-192" rx="116.18" ry="18"/>
<text text-anchor="middle" x="337.39" y="-188.3" font-family="Times,serif" font-size="14.00">dra.MemcardWriteFile</text>
</a>
</g>
</g>
<!-- dra.MemcardWriteFile&#45;&gt;dra.func_800E91B0 -->
<g id="edge3" class="edge">
<title>dra.MemcardWriteFile&#45;&gt;dra.func_800E91B0</title>
<path fill="none" stroke="black" d="M337.39,-173.8C337.39,-162.16 337.39,-146.55 337.39,-133.24"/>
<polygon fill="black" stroke="black" points="340.89,-133.18 337.39,-123.18 333.89,-133.18 340.89,-133.18"/>
<text text-anchor="middle" x="342.39" y="-144.8" font-family="Times,serif" font-size="14.00">1</text>
</g>
<!-- dra.MemcardReadFile -->
<g id="node5" class="node">
<title>dra.MemcardReadFile</title>
<g id="a_node5"><a xlink:href="dra.MemcardReadFile.svg" xlink:title="dra.MemcardReadFile">
<ellipse fill="green" stroke="black" cx="586.39" cy="-192" rx="114.28" ry="18"/>
<text text-anchor="middle" x="586.39" y="-188.3" font-family="Times,serif" font-size="14.00">dra.MemcardReadFile</text>
</a>
</g>
</g>
<!-- dra.MemcardReadFile&#45;&gt;dra.func_800E91B0 -->
<g id="edge4" class="edge">
<title>dra.MemcardReadFile&#45;&gt;dra.func_800E91B0</title>
<path fill="none" stroke="black" d="M540.72,-175.41C498.73,-161.08 436.43,-139.81 391.86,-124.59"/>
<polygon fill="black" stroke="black" points="392.95,-121.27 382.35,-121.35 390.69,-127.89 392.95,-121.27"/>
<text text-anchor="middle" x="482.39" y="-144.8" font-family="Times,serif" font-size="14.00">1</text>
</g>
</g>
</svg>
