<?xml version="1.0" encoding="UTF-8" standalone="no"?>
<!DOCTYPE svg PUBLIC "-//W3C//DTD SVG 1.1//EN"
 "http://www.w3.org/Graphics/SVG/1.1/DTD/svg11.dtd">
<!-- Generated by graphviz version 2.43.0 (0)
 -->
<!-- Title: dra.DemoInit Pages: 1 -->
<svg width="445pt" height="404pt"
 viewBox="0.00 0.00 445.03 404.00" xmlns="http://www.w3.org/2000/svg" xmlns:xlink="http://www.w3.org/1999/xlink">
<g id="graph0" class="graph" transform="scale(1 1) rotate(0) translate(4 400)">
<title>dra.DemoInit</title>
<polygon fill="white" stroke="transparent" points="-4,4 -4,-400 441.03,-400 441.03,4 -4,4"/>
<!-- dra.DemoInit -->
<g id="node1" class="node">
<title>dra.DemoInit</title>
<ellipse fill="green" stroke="black" cx="205.79" cy="-198" rx="72.29" ry="18"/>
<text text-anchor="middle" x="205.79" y="-194.3" font-family="Times,serif" font-size="14.00">dra.DemoInit</text>
</g>
<!-- dra.DemoGameInit -->
<g id="node2" class="node">
<title>dra.DemoGameInit</title>
<g id="a_node2"><a xlink:href="dra.DemoGameInit.svg" xlink:title="dra.DemoGameInit">
<ellipse fill="green" stroke="black" cx="98.79" cy="-18" rx="98.58" ry="18"/>
<text text-anchor="middle" x="98.79" y="-14.3" font-family="Times,serif" font-size="14.00">dra.DemoGameInit</text>
</a>
</g>
</g>
<!-- dra.DemoInit&#45;&gt;dra.DemoGameInit -->
<g id="edge1" class="edge">
<title>dra.DemoInit&#45;&gt;dra.DemoGameInit</title>
<path fill="none" stroke="black" d="M195.53,-179.93C176.68,-148.57 136.42,-81.6 114.24,-44.71"/>
<polygon fill="black" stroke="black" points="117.17,-42.78 109.02,-36.02 111.17,-46.39 117.17,-42.78"/>
<text text-anchor="middle" x="104.02" y="-39.82" font-family="Times,serif" font-size="14.00">1</text>
</g>
<!-- dra.DemoOpenFile -->
<g id="node3" class="node">
<title>dra.DemoOpenFile</title>
<g id="a_node3"><a xlink:href="dra.DemoOpenFile.svg" xlink:title="dra.DemoOpenFile">
<ellipse fill="green" stroke="black" cx="313.79" cy="-18" rx="98.28" ry="18"/>
<text text-anchor="middle" x="313.79" y="-14.3" font-family="Times,serif" font-size="14.00">dra.DemoOpenFile</text>
</a>
</g>
</g>
<!-- dra.DemoInit&#45;&gt;dra.DemoOpenFile -->
<g id="edge2" class="edge">
<title>dra.DemoInit&#45;&gt;dra.DemoOpenFile</title>
<path fill="none" stroke="black" d="M216.15,-179.93C235.18,-148.57 275.81,-81.6 298.19,-44.71"/>
<polygon fill="black" stroke="black" points="301.27,-46.38 303.47,-36.02 295.29,-42.75 301.27,-46.38"/>
<text text-anchor="middle" x="298.47" y="-39.82" font-family="Times,serif" font-size="14.00">1</text>
</g>
<!-- dra.HandlePlay -->
<g id="node4" class="node">
<title>dra.HandlePlay</title>
<g id="a_node4"><a xlink:href="dra.HandlePlay.svg" xlink:title="dra.HandlePlay">
<ellipse fill="green" stroke="black" cx="95.79" cy="-378" rx="82.59" ry="18"/>
<text text-anchor="middle" x="95.79" y="-374.3" font-family="Times,serif" font-size="14.00">dra.HandlePlay</text>
</a>
</g>
</g>
<!-- dra.HandlePlay&#45;&gt;dra.DemoInit -->
<g id="edge3" class="edge">
<title>dra.HandlePlay&#45;&gt;dra.DemoInit</title>
<path fill="none" stroke="black" d="M106.34,-359.93C125.72,-328.57 167.1,-261.6 189.9,-224.71"/>
<polygon fill="black" stroke="black" points="193,-226.36 195.28,-216.02 187.04,-222.68 193,-226.36"/>
<text text-anchor="middle" x="101.34" y="-348.73" font-family="Times,serif" font-size="14.00">1</text>
</g>
<!-- dra.HandleNowLoading -->
<g id="node5" class="node">
<title>dra.HandleNowLoading</title>
<g id="a_node5"><a xlink:href="dra.HandleNowLoading.svg" xlink:title="dra.HandleNowLoading">
<ellipse fill="green" stroke="black" cx="316.79" cy="-378" rx="120.48" ry="18"/>
<text text-anchor="middle" x="316.79" y="-374.3" font-family="Times,serif" font-size="14.00">dra.HandleNowLoading</text>
</a>
</g>
</g>
<!-- dra.HandleNowLoading&#45;&gt;dra.DemoInit -->
<g id="edge4" class="edge">
<title>dra.HandleNowLoading&#45;&gt;dra.DemoInit</title>
<path fill="none" stroke="black" d="M306.15,-359.93C286.59,-328.57 244.83,-261.6 221.82,-224.71"/>
<polygon fill="black" stroke="black" points="224.66,-222.65 216.4,-216.02 218.72,-226.35 224.66,-222.65"/>
<text text-anchor="middle" x="301.15" y="-348.73" font-family="Times,serif" font-size="14.00">1</text>
</g>
</g>
</svg>
