<?xml version="1.0" encoding="UTF-8" standalone="no"?>
<!DOCTYPE svg PUBLIC "-//W3C//DTD SVG 1.1//EN"
 "http://www.w3.org/Graphics/SVG/1.1/DTD/svg11.dtd">
<!-- Generated by graphviz version 2.43.0 (0)
 -->
<!-- Title: dra.EntitySubwpnThrownDagger Pages: 1 -->
<svg width="1548pt" height="131pt"
 viewBox="0.00 0.00 1548.33 131.00" xmlns="http://www.w3.org/2000/svg" xmlns:xlink="http://www.w3.org/1999/xlink">
<g id="graph0" class="graph" transform="scale(1 1) rotate(0) translate(4 127)">
<title>dra.EntitySubwpnThrownDagger</title>
<polygon fill="white" stroke="transparent" points="-4,4 -4,-127 1544.33,-127 1544.33,4 -4,4"/>
<!-- dra.EntitySubwpnThrownDagger -->
<g id="node1" class="node">
<title>dra.EntitySubwpnThrownDagger</title>
<ellipse fill="red" stroke="black" cx="858.44" cy="-105" rx="165.17" ry="18"/>
<text text-anchor="middle" x="858.44" y="-101.3" font-family="Times,serif" font-size="14.00">dra.EntitySubwpnThrownDagger</text>
</g>
<!-- dra.AllocPrimitives -->
<g id="node2" class="node">
<title>dra.AllocPrimitives</title>
<g id="a_node2"><a xlink:href="dra.AllocPrimitives.svg" xlink:title="dra.AllocPrimitives">
<ellipse fill="green" stroke="black" cx="99.44" cy="-18" rx="99.38" ry="18"/>
<text text-anchor="middle" x="99.44" y="-14.3" font-family="Times,serif" font-size="14.00">dra.AllocPrimitives</text>
</a>
</g>
</g>
<!-- dra.EntitySubwpnThrownDagger&#45;&gt;dra.AllocPrimitives -->
<g id="edge1" class="edge">
<title>dra.EntitySubwpnThrownDagger&#45;&gt;dra.AllocPrimitives</title>
<path fill="none" stroke="black" d="M734.93,-93.03C603.82,-80.93 390.68,-59.98 207.44,-36 198.6,-34.84 189.36,-33.54 180.17,-32.18"/>
<polygon fill="black" stroke="black" points="180.65,-28.71 170.24,-30.68 179.61,-35.63 180.65,-28.71"/>
<text text-anchor="middle" x="480.44" y="-57.8" font-family="Times,serif" font-size="14.00">1</text>
</g>
<!-- dra.func_8011A290 -->
<g id="node3" class="node">
<title>dra.func_8011A290</title>
<g id="a_node3"><a xlink:href="dra.func_8011A290.svg" xlink:title="dra.func_8011A290">
<ellipse fill="green" stroke="black" cx="317.44" cy="-18" rx="100.98" ry="18"/>
<text text-anchor="middle" x="317.44" y="-14.3" font-family="Times,serif" font-size="14.00">dra.func_8011A290</text>
</a>
</g>
</g>
<!-- dra.EntitySubwpnThrownDagger&#45;&gt;dra.func_8011A290 -->
<g id="edge2" class="edge">
<title>dra.EntitySubwpnThrownDagger&#45;&gt;dra.func_8011A290</title>
<path fill="none" stroke="black" d="M768.5,-89.87C666.1,-73.78 500.18,-47.71 400.67,-32.08"/>
<polygon fill="black" stroke="black" points="401.08,-28.6 390.65,-30.5 399.99,-35.51 401.08,-28.6"/>
<text text-anchor="middle" x="625.44" y="-57.8" font-family="Times,serif" font-size="14.00">1</text>
</g>
<!-- dra.SetSpeedX -->
<g id="node4" class="node">
<title>dra.SetSpeedX</title>
<g id="a_node4"><a xlink:href="dra.SetSpeedX.svg" xlink:title="dra.SetSpeedX">
<ellipse fill="green" stroke="black" cx="516.44" cy="-18" rx="79.89" ry="18"/>
<text text-anchor="middle" x="516.44" y="-14.3" font-family="Times,serif" font-size="14.00">dra.SetSpeedX</text>
</a>
</g>
</g>
<!-- dra.EntitySubwpnThrownDagger&#45;&gt;dra.SetSpeedX -->
<g id="edge3" class="edge">
<title>dra.EntitySubwpnThrownDagger&#45;&gt;dra.SetSpeedX</title>
<path fill="none" stroke="black" d="M795.31,-88.31C733.34,-72.91 639.4,-49.56 577.98,-34.29"/>
<polygon fill="black" stroke="black" points="578.58,-30.84 568.03,-31.82 576.89,-37.63 578.58,-30.84"/>
<text text-anchor="middle" x="713.44" y="-57.8" font-family="Times,serif" font-size="14.00">1</text>
</g>
<!-- dra.PlaySfx -->
<g id="node5" class="node">
<title>dra.PlaySfx</title>
<g id="a_node5"><a xlink:href="dra.PlaySfx.svg" xlink:title="dra.PlaySfx">
<ellipse fill="green" stroke="black" cx="678.44" cy="-18" rx="64.19" ry="18"/>
<text text-anchor="middle" x="678.44" y="-14.3" font-family="Times,serif" font-size="14.00">dra.PlaySfx</text>
</a>
</g>
</g>
<!-- dra.EntitySubwpnThrownDagger&#45;&gt;dra.PlaySfx -->
<g id="edge4" class="edge">
<title>dra.EntitySubwpnThrownDagger&#45;&gt;dra.PlaySfx</title>
<path fill="none" stroke="black" d="M823.31,-87.41C793.45,-73.31 750.57,-53.06 719.21,-38.25"/>
<polygon fill="black" stroke="black" points="720.41,-34.95 709.87,-33.84 717.42,-41.28 720.41,-34.95"/>
<text text-anchor="middle" x="784.44" y="-57.8" font-family="Times,serif" font-size="14.00">2</text>
</g>
<!-- dra.CheckCollision -->
<g id="node6" class="node">
<title>dra.CheckCollision</title>
<g id="a_node6"><a xlink:href="dra.CheckCollision.svg" xlink:title="dra.CheckCollision">
<ellipse fill="green" stroke="black" cx="858.44" cy="-18" rx="97.48" ry="18"/>
<text text-anchor="middle" x="858.44" y="-14.3" font-family="Times,serif" font-size="14.00">dra.CheckCollision</text>
</a>
</g>
</g>
<!-- dra.EntitySubwpnThrownDagger&#45;&gt;dra.CheckCollision -->
<g id="edge5" class="edge">
<title>dra.EntitySubwpnThrownDagger&#45;&gt;dra.CheckCollision</title>
<path fill="none" stroke="black" d="M858.44,-86.8C858.44,-75.16 858.44,-59.55 858.44,-46.24"/>
<polygon fill="black" stroke="black" points="861.94,-46.18 858.44,-36.18 854.94,-46.18 861.94,-46.18"/>
<text text-anchor="middle" x="863.44" y="-57.8" font-family="Times,serif" font-size="14.00">1</text>
</g>
<!-- dra.func_8011AAFC -->
<g id="node7" class="node">
<title>dra.func_8011AAFC</title>
<g id="a_node7"><a xlink:href="dra.func_8011AAFC.svg" xlink:title="dra.func_8011AAFC">
<ellipse fill="green" stroke="black" cx="1076.44" cy="-18" rx="102.88" ry="18"/>
<text text-anchor="middle" x="1076.44" y="-14.3" font-family="Times,serif" font-size="14.00">dra.func_8011AAFC</text>
</a>
</g>
</g>
<!-- dra.EntitySubwpnThrownDagger&#45;&gt;dra.func_8011AAFC -->
<g id="edge6" class="edge">
<title>dra.EntitySubwpnThrownDagger&#45;&gt;dra.func_8011AAFC</title>
<path fill="none" stroke="black" d="M900.73,-87.51C936.92,-73.4 989.04,-53.08 1027.11,-38.23"/>
<polygon fill="black" stroke="black" points="1028.43,-41.48 1036.47,-34.58 1025.89,-34.96 1028.43,-41.48"/>
<text text-anchor="middle" x="986.44" y="-57.8" font-family="Times,serif" font-size="14.00">1</text>
</g>
<!-- rcos -->
<g id="node8" class="node">
<title>rcos</title>
<g id="a_node8"><a xlink:href="rcos.svg" xlink:title="rcos">
<ellipse fill="lightblue" stroke="black" cx="1227.44" cy="-18" rx="30.59" ry="18"/>
<text text-anchor="middle" x="1227.44" y="-14.3" font-family="Times,serif" font-size="14.00">rcos</text>
</a>
</g>
</g>
<!-- dra.EntitySubwpnThrownDagger&#45;&gt;rcos -->
<g id="edge7" class="edge">
<title>dra.EntitySubwpnThrownDagger&#45;&gt;rcos</title>
<path fill="none" stroke="black" d="M951.87,-90.08C1018.68,-78.84 1110.24,-60.8 1188.44,-36 1190.56,-35.33 1192.71,-34.58 1194.87,-33.78"/>
<polygon fill="black" stroke="black" points="1196.24,-37.01 1204.23,-30.05 1193.65,-30.5 1196.24,-37.01"/>
<text text-anchor="middle" x="1123.44" y="-57.8" font-family="Times,serif" font-size="14.00">4</text>
</g>
<!-- rsin -->
<g id="node9" class="node">
<title>rsin</title>
<g id="a_node9"><a xlink:href="rsin.svg" xlink:title="rsin">
<ellipse fill="lightblue" stroke="black" cx="1304.44" cy="-18" rx="28.7" ry="18"/>
<text text-anchor="middle" x="1304.44" y="-14.3" font-family="Times,serif" font-size="14.00">rsin</text>
</a>
</g>
</g>
<!-- dra.EntitySubwpnThrownDagger&#45;&gt;rsin -->
<g id="edge8" class="edge">
<title>dra.EntitySubwpnThrownDagger&#45;&gt;rsin</title>
<path fill="none" stroke="black" d="M988.35,-93.8C1070.17,-84.62 1177.03,-67.49 1267.44,-36 1269.29,-35.35 1271.18,-34.65 1273.07,-33.9"/>
<polygon fill="black" stroke="black" points="1274.57,-37.07 1282.42,-29.95 1271.85,-30.62 1274.57,-37.07"/>
<text text-anchor="middle" x="1208.44" y="-57.8" font-family="Times,serif" font-size="14.00">4</text>
</g>
<!-- dra.DestroyEntity -->
<g id="node10" class="node">
<title>dra.DestroyEntity</title>
<g id="a_node10"><a xlink:href="dra.DestroyEntity.svg" xlink:title="dra.DestroyEntity">
<ellipse fill="green" stroke="black" cx="1445.44" cy="-18" rx="94.78" ry="18"/>
<text text-anchor="middle" x="1445.44" y="-14.3" font-family="Times,serif" font-size="14.00">dra.DestroyEntity</text>
</a>
</g>
</g>
<!-- dra.EntitySubwpnThrownDagger&#45;&gt;dra.DestroyEntity -->
<g id="edge9" class="edge">
<title>dra.EntitySubwpnThrownDagger&#45;&gt;dra.DestroyEntity</title>
<path fill="none" stroke="black" d="M993.6,-94.64C1061.08,-89 1143.83,-80.62 1217.44,-69 1273.19,-60.2 1335.77,-46.18 1381.24,-35.22"/>
<polygon fill="black" stroke="black" points="1382.07,-38.62 1390.96,-32.86 1380.42,-31.81 1382.07,-38.62"/>
<text text-anchor="middle" x="1298.44" y="-57.8" font-family="Times,serif" font-size="14.00">1</text>
</g>
</g>
</svg>
