<?xml version="1.0" encoding="UTF-8" standalone="no"?>
<!DOCTYPE svg PUBLIC "-//W3C//DTD SVG 1.1//EN"
 "http://www.w3.org/Graphics/SVG/1.1/DTD/svg11.dtd">
<!-- Generated by graphviz version 2.43.0 (0)
 -->
<!-- Title: dra.EntityBatEcho Pages: 1 -->
<svg width="1158pt" height="224pt"
 viewBox="0.00 0.00 1157.94 224.00" xmlns="http://www.w3.org/2000/svg" xmlns:xlink="http://www.w3.org/1999/xlink">
<g id="graph0" class="graph" transform="scale(1 1) rotate(0) translate(4 220)">
<title>dra.EntityBatEcho</title>
<polygon fill="white" stroke="transparent" points="-4,4 -4,-220 1153.94,-220 1153.94,4 -4,4"/>
<!-- dra.EntityBatEcho -->
<g id="node1" class="node">
<title>dra.EntityBatEcho</title>
<ellipse fill="red" stroke="black" cx="687.34" cy="-198" rx="96.68" ry="18"/>
<text text-anchor="middle" x="687.34" y="-194.3" font-family="Times,serif" font-size="14.00">dra.EntityBatEcho</text>
</g>
<!-- dra.PlaySfx -->
<g id="node2" class="node">
<title>dra.PlaySfx</title>
<g id="a_node2"><a xlink:href="dra.PlaySfx.svg" xlink:title="dra.PlaySfx">
<ellipse fill="green" stroke="black" cx="64.34" cy="-18" rx="64.19" ry="18"/>
<text text-anchor="middle" x="64.34" y="-14.3" font-family="Times,serif" font-size="14.00">dra.PlaySfx</text>
</a>
</g>
</g>
<!-- dra.EntityBatEcho&#45;&gt;dra.PlaySfx -->
<g id="edge1" class="edge">
<title>dra.EntityBatEcho&#45;&gt;dra.PlaySfx</title>
<path fill="none" stroke="black" d="M636.89,-182.58C520.92,-149.45 236.27,-68.12 117.62,-34.22"/>
<polygon fill="black" stroke="black" points="118.25,-30.76 107.68,-31.38 116.33,-37.49 118.25,-30.76"/>
<text text-anchor="middle" x="102.68" y="-35.18" font-family="Times,serif" font-size="14.00">1</text>
</g>
<!-- dra.AllocPrimitives -->
<g id="node3" class="node">
<title>dra.AllocPrimitives</title>
<g id="a_node3"><a xlink:href="dra.AllocPrimitives.svg" xlink:title="dra.AllocPrimitives">
<ellipse fill="green" stroke="black" cx="246.34" cy="-18" rx="99.38" ry="18"/>
<text text-anchor="middle" x="246.34" y="-14.3" font-family="Times,serif" font-size="14.00">dra.AllocPrimitives</text>
</a>
</g>
</g>
<!-- dra.EntityBatEcho&#45;&gt;dra.AllocPrimitives -->
<g id="edge2" class="edge">
<title>dra.EntityBatEcho&#45;&gt;dra.AllocPrimitives</title>
<path fill="none" stroke="black" d="M648.59,-181.36C568.07,-148.86 382.81,-74.08 294.66,-38.5"/>
<polygon fill="black" stroke="black" points="295.75,-35.17 285.16,-34.67 293.13,-41.66 295.75,-35.17"/>
<text text-anchor="middle" x="280.16" y="-38.47" font-family="Times,serif" font-size="14.00">1</text>
</g>
<!-- dra.func_800FE3A8 -->
<g id="node4" class="node">
<title>dra.func_800FE3A8</title>
<g id="a_node4"><a xlink:href="dra.func_800FE3A8.svg" xlink:title="dra.func_800FE3A8">
<ellipse fill="green" stroke="black" cx="466.34" cy="-18" rx="102.88" ry="18"/>
<text text-anchor="middle" x="466.34" y="-14.3" font-family="Times,serif" font-size="14.00">dra.func_800FE3A8</text>
</a>
</g>
</g>
<!-- dra.EntityBatEcho&#45;&gt;dra.func_800FE3A8 -->
<g id="edge3" class="edge">
<title>dra.EntityBatEcho&#45;&gt;dra.func_800FE3A8</title>
<path fill="none" stroke="black" d="M666.55,-180.25C626.9,-148.32 540.4,-78.65 495.18,-42.23"/>
<polygon fill="black" stroke="black" points="497.22,-39.38 487.24,-35.83 492.83,-44.83 497.22,-39.38"/>
<text text-anchor="middle" x="482.24" y="-39.63" font-family="Times,serif" font-size="14.00">1</text>
</g>
<!-- dra.func_8011A328 -->
<g id="node5" class="node">
<title>dra.func_8011A328</title>
<g id="a_node5"><a xlink:href="dra.func_8011A328.svg" xlink:title="dra.func_8011A328">
<ellipse fill="green" stroke="black" cx="687.34" cy="-18" rx="100.98" ry="18"/>
<text text-anchor="middle" x="687.34" y="-14.3" font-family="Times,serif" font-size="14.00">dra.func_8011A328</text>
</a>
</g>
</g>
<!-- dra.EntityBatEcho&#45;&gt;dra.func_8011A328 -->
<g id="edge4" class="edge">
<title>dra.EntityBatEcho&#45;&gt;dra.func_8011A328</title>
<path fill="none" stroke="black" d="M687.34,-179.93C687.34,-148.97 687.34,-83.3 687.34,-46.13"/>
<polygon fill="black" stroke="black" points="690.84,-46.02 687.34,-36.02 683.84,-46.02 690.84,-46.02"/>
<text text-anchor="middle" x="682.34" y="-39.82" font-family="Times,serif" font-size="14.00">1</text>
</g>
<!-- dra.DestroyEntity -->
<g id="node6" class="node">
<title>dra.DestroyEntity</title>
<g id="a_node6"><a xlink:href="dra.DestroyEntity.svg" xlink:title="dra.DestroyEntity">
<ellipse fill="green" stroke="black" cx="901.34" cy="-18" rx="94.78" ry="18"/>
<text text-anchor="middle" x="901.34" y="-14.3" font-family="Times,serif" font-size="14.00">dra.DestroyEntity</text>
</a>
</g>
</g>
<!-- dra.EntityBatEcho&#45;&gt;dra.DestroyEntity -->
<g id="edge5" class="edge">
<title>dra.EntityBatEcho&#45;&gt;dra.DestroyEntity</title>
<path fill="none" stroke="black" d="M707.48,-180.25C745.87,-148.32 829.63,-78.65 873.42,-42.23"/>
<polygon fill="black" stroke="black" points="875.66,-44.92 881.11,-35.83 871.18,-39.53 875.66,-44.92"/>
<text text-anchor="middle" x="876.11" y="-39.63" font-family="Times,serif" font-size="14.00">1</text>
</g>
<!-- rcos -->
<g id="node7" class="node">
<title>rcos</title>
<g id="a_node7"><a xlink:href="rcos.svg" xlink:title="rcos">
<ellipse fill="lightblue" stroke="black" cx="1044.34" cy="-18" rx="30.59" ry="18"/>
<text text-anchor="middle" x="1044.34" y="-14.3" font-family="Times,serif" font-size="14.00">rcos</text>
</a>
</g>
</g>
<!-- dra.EntityBatEcho&#45;&gt;rcos -->
<g id="edge6" class="edge">
<title>dra.EntityBatEcho&#45;&gt;rcos</title>
<path fill="none" stroke="black" d="M719.66,-180.89C787.55,-147.04 944.33,-68.87 1012.13,-35.06"/>
<polygon fill="black" stroke="black" points="1014.08,-38 1021.47,-30.41 1010.96,-31.74 1014.08,-38"/>
<text text-anchor="middle" x="1016.47" y="-34.21" font-family="Times,serif" font-size="14.00">2</text>
</g>
<!-- rsin -->
<g id="node8" class="node">
<title>rsin</title>
<g id="a_node8"><a xlink:href="rsin.svg" xlink:title="rsin">
<ellipse fill="lightblue" stroke="black" cx="1121.34" cy="-18" rx="28.7" ry="18"/>
<text text-anchor="middle" x="1121.34" y="-14.3" font-family="Times,serif" font-size="14.00">rsin</text>
</a>
</g>
</g>
<!-- dra.EntityBatEcho&#45;&gt;rsin -->
<g id="edge7" class="edge">
<title>dra.EntityBatEcho&#45;&gt;rsin</title>
<path fill="none" stroke="black" d="M727.32,-181.48C799.19,-153.43 954.8,-91.99 1084.34,-36 1086.14,-35.22 1087.99,-34.41 1089.85,-33.59"/>
<polygon fill="black" stroke="black" points="1091.43,-36.71 1099.11,-29.41 1088.56,-30.33 1091.43,-36.71"/>
<text text-anchor="middle" x="1094.11" y="-33.21" font-family="Times,serif" font-size="14.00">2</text>
</g>
</g>
</svg>
