<?xml version="1.0" encoding="UTF-8" standalone="no"?>
<!DOCTYPE svg PUBLIC "-//W3C//DTD SVG 1.1//EN"
 "http://www.w3.org/Graphics/SVG/1.1/DTD/svg11.dtd">
<!-- Generated by graphviz version 2.43.0 (0)
 -->
<!-- Title: dra.func_801078C4 Pages: 1 -->
<svg width="320pt" height="131pt"
 viewBox="0.00 0.00 319.89 131.00" xmlns="http://www.w3.org/2000/svg" xmlns:xlink="http://www.w3.org/1999/xlink">
<g id="graph0" class="graph" transform="scale(1 1) rotate(0) translate(4 127)">
<title>dra.func_801078C4</title>
<polygon fill="white" stroke="transparent" points="-4,4 -4,-127 315.89,-127 315.89,4 -4,4"/>
<!-- dra.func_801078C4 -->
<g id="node1" class="node">
<title>dra.func_801078C4</title>
<ellipse fill="green" stroke="black" cx="167.14" cy="-105" rx="101.28" ry="18"/>
<text text-anchor="middle" x="167.14" y="-101.3" font-family="Times,serif" font-size="14.00">dra.func_801078C4</text>
</g>
<!-- CdDataCallback -->
<g id="node2" class="node">
<title>CdDataCallback</title>
<g id="a_node2"><a xlink:href="CdDataCallback.svg" xlink:title="CdDataCallback">
<ellipse fill="lightblue" stroke="black" cx="85.14" cy="-18" rx="85.29" ry="18"/>
<text text-anchor="middle" x="85.14" y="-14.3" font-family="Times,serif" font-size="14.00">CdDataCallback</text>
</a>
</g>
</g>
<!-- dra.func_801078C4&#45;&gt;CdDataCallback -->
<g id="edge1" class="edge">
<title>dra.func_801078C4&#45;&gt;CdDataCallback</title>
<path fill="none" stroke="black" d="M150.94,-87.21C138.81,-74.63 122.04,-57.25 108.47,-43.18"/>
<polygon fill="black" stroke="black" points="110.77,-40.53 101.31,-35.76 105.73,-45.39 110.77,-40.53"/>
<text text-anchor="middle" x="136.14" y="-57.8" font-family="Times,serif" font-size="14.00">1</text>
</g>
<!-- LoadTPage -->
<g id="node3" class="node">
<title>LoadTPage</title>
<g id="a_node3"><a xlink:href="LoadTPage.svg" xlink:title="LoadTPage">
<ellipse fill="lightblue" stroke="black" cx="250.14" cy="-18" rx="61.99" ry="18"/>
<text text-anchor="middle" x="250.14" y="-14.3" font-family="Times,serif" font-size="14.00">LoadTPage</text>
</a>
</g>
</g>
<!-- dra.func_801078C4&#45;&gt;LoadTPage -->
<g id="edge2" class="edge">
<title>dra.func_801078C4&#45;&gt;LoadTPage</title>
<path fill="none" stroke="black" d="M183.54,-87.21C195.9,-74.55 213.01,-57.03 226.8,-42.91"/>
<polygon fill="black" stroke="black" points="229.58,-45.07 234.06,-35.47 224.57,-40.18 229.58,-45.07"/>
<text text-anchor="middle" x="219.14" y="-57.8" font-family="Times,serif" font-size="14.00">2</text>
</g>
</g>
</svg>
