<?xml version="1.0" encoding="UTF-8" standalone="no"?>
<!DOCTYPE svg PUBLIC "-//W3C//DTD SVG 1.1//EN"
 "http://www.w3.org/Graphics/SVG/1.1/DTD/svg11.dtd">
<!-- Generated by graphviz version 2.43.0 (0)
 -->
<!-- Title: dra.func_800E7AEC Pages: 1 -->
<svg width="2010pt" height="404pt"
 viewBox="0.00 0.00 2010.48 404.00" xmlns="http://www.w3.org/2000/svg" xmlns:xlink="http://www.w3.org/1999/xlink">
<g id="graph0" class="graph" transform="scale(1 1) rotate(0) translate(4 400)">
<title>dra.func_800E7AEC</title>
<polygon fill="white" stroke="transparent" points="-4,4 -4,-400 2006.48,-400 2006.48,4 -4,4"/>
<!-- dra.func_800E7AEC -->
<g id="node1" class="node">
<title>dra.func_800E7AEC</title>
<ellipse fill="green" stroke="black" cx="1010.79" cy="-198" rx="103.98" ry="18"/>
<text text-anchor="middle" x="1010.79" y="-194.3" font-family="Times,serif" font-size="14.00">dra.func_800E7AEC</text>
</g>
<!-- dra.HandleGameOver -->
<g id="node2" class="node">
<title>dra.HandleGameOver</title>
<g id="a_node2"><a xlink:href="dra.HandleGameOver.svg" xlink:title="dra.HandleGameOver">
<ellipse fill="red" stroke="black" cx="111.79" cy="-18" rx="111.58" ry="18"/>
<text text-anchor="middle" x="111.79" y="-14.3" font-family="Times,serif" font-size="14.00">dra.HandleGameOver</text>
</a>
</g>
</g>
<!-- dra.func_800E7AEC&#45;&gt;dra.HandleGameOver -->
<g id="edge1" class="edge">
<title>dra.func_800E7AEC&#45;&gt;dra.HandleGameOver</title>
<path fill="none" stroke="black" d="M945.05,-183.98C782.65,-151.83 363.1,-68.76 189.14,-34.31"/>
<polygon fill="black" stroke="black" points="189.78,-30.87 179.29,-32.36 188.42,-37.74 189.78,-30.87"/>
<text text-anchor="middle" x="174.29" y="-36.16" font-family="Times,serif" font-size="14.00">1</text>
</g>
<!-- dra.func_800E451C -->
<g id="node3" class="node">
<title>dra.func_800E451C</title>
<g id="a_node3"><a xlink:href="dra.func_800E451C.svg" xlink:title="dra.func_800E451C">
<ellipse fill="green" stroke="black" cx="343.79" cy="-18" rx="102.88" ry="18"/>
<text text-anchor="middle" x="343.79" y="-14.3" font-family="Times,serif" font-size="14.00">dra.func_800E451C</text>
</a>
</g>
</g>
<!-- dra.func_800E7AEC&#45;&gt;dra.func_800E451C -->
<g id="edge2" class="edge">
<title>dra.func_800E7AEC&#45;&gt;dra.func_800E451C</title>
<path fill="none" stroke="black" d="M956.77,-182.58C834.81,-150.04 538.58,-70.98 407.73,-36.06"/>
<polygon fill="black" stroke="black" points="408.41,-32.62 397.85,-33.43 406.61,-39.39 408.41,-32.62"/>
<text text-anchor="middle" x="392.85" y="-37.23" font-family="Times,serif" font-size="14.00">1</text>
</g>
<!-- dra.func_800E4A14 -->
<g id="node4" class="node">
<title>dra.func_800E4A14</title>
<g id="a_node4"><a xlink:href="dra.func_800E4A14.svg" xlink:title="dra.func_800E4A14">
<ellipse fill="green" stroke="black" cx="566.79" cy="-18" rx="102.08" ry="18"/>
<text text-anchor="middle" x="566.79" y="-14.3" font-family="Times,serif" font-size="14.00">dra.func_800E4A14</text>
</a>
</g>
</g>
<!-- dra.func_800E7AEC&#45;&gt;dra.func_800E4A14 -->
<g id="edge3" class="edge">
<title>dra.func_800E7AEC&#45;&gt;dra.func_800E4A14</title>
<path fill="none" stroke="black" d="M971.39,-181.2C890.09,-148.61 703.98,-74 615.39,-38.48"/>
<polygon fill="black" stroke="black" points="616.69,-35.23 606.1,-34.76 614.08,-41.73 616.69,-35.23"/>
<text text-anchor="middle" x="601.1" y="-38.56" font-family="Times,serif" font-size="14.00">1</text>
</g>
<!-- dra.func_800E6358 -->
<g id="node5" class="node">
<title>dra.func_800E6358</title>
<g id="a_node5"><a xlink:href="dra.func_800E6358.svg" xlink:title="dra.func_800E6358">
<ellipse fill="green" stroke="black" cx="787.79" cy="-18" rx="101.28" ry="18"/>
<text text-anchor="middle" x="787.79" y="-14.3" font-family="Times,serif" font-size="14.00">dra.func_800E6358</text>
</a>
</g>
</g>
<!-- dra.func_800E7AEC&#45;&gt;dra.func_800E6358 -->
<g id="edge4" class="edge">
<title>dra.func_800E7AEC&#45;&gt;dra.func_800E6358</title>
<path fill="none" stroke="black" d="M989.81,-180.25C949.8,-148.32 862.52,-78.65 816.89,-42.23"/>
<polygon fill="black" stroke="black" points="818.88,-39.33 808.88,-35.83 814.51,-44.8 818.88,-39.33"/>
<text text-anchor="middle" x="803.88" y="-39.63" font-family="Times,serif" font-size="14.00">1</text>
</g>
<!-- dra.func_800E6FD4 -->
<g id="node6" class="node">
<title>dra.func_800E6FD4</title>
<g id="a_node6"><a xlink:href="dra.func_800E6FD4.svg" xlink:title="dra.func_800E6FD4">
<ellipse fill="green" stroke="black" cx="1010.79" cy="-18" rx="103.18" ry="18"/>
<text text-anchor="middle" x="1010.79" y="-14.3" font-family="Times,serif" font-size="14.00">dra.func_800E6FD4</text>
</a>
</g>
</g>
<!-- dra.func_800E7AEC&#45;&gt;dra.func_800E6FD4 -->
<g id="edge5" class="edge">
<title>dra.func_800E7AEC&#45;&gt;dra.func_800E6FD4</title>
<path fill="none" stroke="black" d="M1010.79,-179.93C1010.79,-148.97 1010.79,-83.3 1010.79,-46.13"/>
<polygon fill="black" stroke="black" points="1014.29,-46.02 1010.79,-36.02 1007.29,-46.02 1014.29,-46.02"/>
<text text-anchor="middle" x="1005.79" y="-39.82" font-family="Times,serif" font-size="14.00">1</text>
</g>
<!-- dra.func_800E7384 -->
<g id="node7" class="node">
<title>dra.func_800E7384</title>
<g id="a_node7"><a xlink:href="dra.func_800E7384.svg" xlink:title="dra.func_800E7384">
<ellipse fill="green" stroke="black" cx="1233.79" cy="-18" rx="101.28" ry="18"/>
<text text-anchor="middle" x="1233.79" y="-14.3" font-family="Times,serif" font-size="14.00">dra.func_800E7384</text>
</a>
</g>
</g>
<!-- dra.func_800E7AEC&#45;&gt;dra.func_800E7384 -->
<g id="edge6" class="edge">
<title>dra.func_800E7AEC&#45;&gt;dra.func_800E7384</title>
<path fill="none" stroke="black" d="M1031.77,-180.25C1071.78,-148.32 1159.06,-78.65 1204.69,-42.23"/>
<polygon fill="black" stroke="black" points="1207.07,-44.8 1212.7,-35.83 1202.71,-39.33 1207.07,-44.8"/>
<text text-anchor="middle" x="1207.7" y="-39.63" font-family="Times,serif" font-size="14.00">1</text>
</g>
<!-- dra.func_800E738C -->
<g id="node8" class="node">
<title>dra.func_800E738C</title>
<g id="a_node8"><a xlink:href="dra.func_800E738C.svg" xlink:title="dra.func_800E738C">
<ellipse fill="green" stroke="black" cx="1455.79" cy="-18" rx="102.88" ry="18"/>
<text text-anchor="middle" x="1455.79" y="-14.3" font-family="Times,serif" font-size="14.00">dra.func_800E738C</text>
</a>
</g>
</g>
<!-- dra.func_800E7AEC&#45;&gt;dra.func_800E738C -->
<g id="edge7" class="edge">
<title>dra.func_800E7AEC&#45;&gt;dra.func_800E738C</title>
<path fill="none" stroke="black" d="M1050.28,-181.2C1131.76,-148.61 1318.29,-74 1407.08,-38.48"/>
<polygon fill="black" stroke="black" points="1408.4,-41.72 1416.39,-34.76 1405.8,-35.23 1408.4,-41.72"/>
<text text-anchor="middle" x="1411.39" y="-38.56" font-family="Times,serif" font-size="14.00">1</text>
</g>
<!-- dra.func_800E7458 -->
<g id="node9" class="node">
<title>dra.func_800E7458</title>
<g id="a_node9"><a xlink:href="dra.func_800E7458.svg" xlink:title="dra.func_800E7458">
<ellipse fill="green" stroke="black" cx="1677.79" cy="-18" rx="101.28" ry="18"/>
<text text-anchor="middle" x="1677.79" y="-14.3" font-family="Times,serif" font-size="14.00">dra.func_800E7458</text>
</a>
</g>
</g>
<!-- dra.func_800E7AEC&#45;&gt;dra.func_800E7458 -->
<g id="edge8" class="edge">
<title>dra.func_800E7AEC&#45;&gt;dra.func_800E7458</title>
<path fill="none" stroke="black" d="M1064.81,-182.58C1186.92,-150 1483.74,-70.79 1614.34,-35.93"/>
<polygon fill="black" stroke="black" points="1615.44,-39.26 1624.2,-33.3 1613.63,-32.5 1615.44,-39.26"/>
<text text-anchor="middle" x="1619.2" y="-37.1" font-family="Times,serif" font-size="14.00">1</text>
</g>
<!-- dra.func_800E768C -->
<g id="node10" class="node">
<title>dra.func_800E768C</title>
<g id="a_node10"><a xlink:href="dra.func_800E768C.svg" xlink:title="dra.func_800E768C">
<ellipse fill="green" stroke="black" cx="1899.79" cy="-18" rx="102.88" ry="18"/>
<text text-anchor="middle" x="1899.79" y="-14.3" font-family="Times,serif" font-size="14.00">dra.func_800E768C</text>
</a>
</g>
</g>
<!-- dra.func_800E7AEC&#45;&gt;dra.func_800E768C -->
<g id="edge9" class="edge">
<title>dra.func_800E7AEC&#45;&gt;dra.func_800E768C</title>
<path fill="none" stroke="black" d="M1076.16,-183.91C1237.55,-151.6 1654.17,-68.18 1825.01,-33.97"/>
<polygon fill="black" stroke="black" points="1825.81,-37.38 1834.92,-31.99 1824.43,-30.52 1825.81,-37.38"/>
<text text-anchor="middle" x="1829.92" y="-35.79" font-family="Times,serif" font-size="14.00">1</text>
</g>
<!-- dra.entrypoint_sotn -->
<g id="node11" class="node">
<title>dra.entrypoint_sotn</title>
<g id="a_node11"><a xlink:href="dra.entrypoint_sotn.svg" xlink:title="dra.entrypoint_sotn">
<ellipse fill="green" stroke="black" cx="1010.79" cy="-378" rx="102.88" ry="18"/>
<text text-anchor="middle" x="1010.79" y="-374.3" font-family="Times,serif" font-size="14.00">dra.entrypoint_sotn</text>
</a>
</g>
</g>
<!-- dra.entrypoint_sotn&#45;&gt;dra.func_800E7AEC -->
<g id="edge10" class="edge">
<title>dra.entrypoint_sotn&#45;&gt;dra.func_800E7AEC</title>
<path fill="none" stroke="black" d="M1010.79,-359.93C1010.79,-328.97 1010.79,-263.3 1010.79,-226.13"/>
<polygon fill="black" stroke="black" points="1014.29,-226.02 1010.79,-216.02 1007.29,-226.02 1014.29,-226.02"/>
<text text-anchor="middle" x="1005.79" y="-348.73" font-family="Times,serif" font-size="14.00">1</text>
</g>
</g>
</svg>
