<?xml version="1.0" encoding="UTF-8" standalone="no"?>
<!DOCTYPE svg PUBLIC "-//W3C//DTD SVG 1.1//EN"
 "http://www.w3.org/Graphics/SVG/1.1/DTD/svg11.dtd">
<!-- Generated by graphviz version 2.43.0 (0)
 -->
<!-- Title: dra.DemoInit Pages: 1 -->
<svg width="445pt" height="218pt"
 viewBox="0.00 0.00 445.03 218.00" xmlns="http://www.w3.org/2000/svg" xmlns:xlink="http://www.w3.org/1999/xlink">
<g id="graph0" class="graph" transform="scale(1 1) rotate(0) translate(4 214)">
<title>dra.DemoInit</title>
<polygon fill="white" stroke="transparent" points="-4,4 -4,-214 441.03,-214 441.03,4 -4,4"/>
<!-- dra.DemoInit -->
<g id="node1" class="node">
<title>dra.DemoInit</title>
<ellipse fill="green" stroke="black" cx="205.79" cy="-105" rx="72.29" ry="18"/>
<text text-anchor="middle" x="205.79" y="-101.3" font-family="Times,serif" font-size="14.00">dra.DemoInit</text>
</g>
<!-- dra.DemoGameInit -->
<g id="node2" class="node">
<title>dra.DemoGameInit</title>
<g id="a_node2"><a xlink:href="dra.DemoGameInit.svg" xlink:title="dra.DemoGameInit">
<ellipse fill="green" stroke="black" cx="98.79" cy="-18" rx="98.58" ry="18"/>
<text text-anchor="middle" x="98.79" y="-14.3" font-family="Times,serif" font-size="14.00">dra.DemoGameInit</text>
</a>
</g>
</g>
<!-- dra.DemoInit&#45;&gt;dra.DemoGameInit -->
<g id="edge1" class="edge">
<title>dra.DemoInit&#45;&gt;dra.DemoGameInit</title>
<path fill="none" stroke="black" d="M185.16,-87.61C168.84,-74.64 145.84,-56.38 127.68,-41.95"/>
<polygon fill="black" stroke="black" points="129.73,-39.11 119.72,-35.63 125.38,-44.59 129.73,-39.11"/>
<text text-anchor="middle" x="163.79" y="-57.8" font-family="Times,serif" font-size="14.00">1</text>
</g>
<!-- dra.DemoOpenFile -->
<g id="node3" class="node">
<title>dra.DemoOpenFile</title>
<g id="a_node3"><a xlink:href="dra.DemoOpenFile.svg" xlink:title="dra.DemoOpenFile">
<ellipse fill="green" stroke="black" cx="313.79" cy="-18" rx="98.28" ry="18"/>
<text text-anchor="middle" x="313.79" y="-14.3" font-family="Times,serif" font-size="14.00">dra.DemoOpenFile</text>
</a>
</g>
</g>
<!-- dra.DemoInit&#45;&gt;dra.DemoOpenFile -->
<g id="edge2" class="edge">
<title>dra.DemoInit&#45;&gt;dra.DemoOpenFile</title>
<path fill="none" stroke="black" d="M226.61,-87.61C243.09,-74.64 266.3,-56.38 284.63,-41.95"/>
<polygon fill="black" stroke="black" points="286.97,-44.56 292.66,-35.63 282.64,-39.06 286.97,-44.56"/>
<text text-anchor="middle" x="271.79" y="-57.8" font-family="Times,serif" font-size="14.00">1</text>
</g>
<!-- dra.HandlePlay -->
<g id="node4" class="node">
<title>dra.HandlePlay</title>
<g id="a_node4"><a xlink:href="dra.HandlePlay.svg" xlink:title="dra.HandlePlay">
<ellipse fill="green" stroke="black" cx="95.79" cy="-192" rx="82.59" ry="18"/>
<text text-anchor="middle" x="95.79" y="-188.3" font-family="Times,serif" font-size="14.00">dra.HandlePlay</text>
</a>
</g>
</g>
<!-- dra.HandlePlay&#45;&gt;dra.DemoInit -->
<g id="edge3" class="edge">
<title>dra.HandlePlay&#45;&gt;dra.DemoInit</title>
<path fill="none" stroke="black" d="M117.26,-174.41C134.25,-161.28 158.15,-142.81 176.84,-128.37"/>
<polygon fill="black" stroke="black" points="178.98,-131.14 184.75,-122.26 174.7,-125.61 178.98,-131.14"/>
<text text-anchor="middle" x="162.79" y="-144.8" font-family="Times,serif" font-size="14.00">1</text>
</g>
<!-- dra.HandleNowLoading -->
<g id="node5" class="node">
<title>dra.HandleNowLoading</title>
<g id="a_node5"><a xlink:href="dra.HandleNowLoading.svg" xlink:title="dra.HandleNowLoading">
<ellipse fill="green" stroke="black" cx="316.79" cy="-192" rx="120.48" ry="18"/>
<text text-anchor="middle" x="316.79" y="-188.3" font-family="Times,serif" font-size="14.00">dra.HandleNowLoading</text>
</a>
</g>
</g>
<!-- dra.HandleNowLoading&#45;&gt;dra.DemoInit -->
<g id="edge4" class="edge">
<title>dra.HandleNowLoading&#45;&gt;dra.DemoInit</title>
<path fill="none" stroke="black" d="M294.86,-174.21C277.88,-161.2 254.17,-143.05 235.49,-128.74"/>
<polygon fill="black" stroke="black" points="237.37,-125.77 227.3,-122.47 233.11,-131.33 237.37,-125.77"/>
<text text-anchor="middle" x="273.79" y="-144.8" font-family="Times,serif" font-size="14.00">1</text>
</g>
</g>
</svg>
