<?xml version="1.0" encoding="UTF-8" standalone="no"?>
<!DOCTYPE svg PUBLIC "-//W3C//DTD SVG 1.1//EN"
 "http://www.w3.org/Graphics/SVG/1.1/DTD/svg11.dtd">
<!-- Generated by graphviz version 2.43.0 (0)
 -->
<!-- Title: dra.AddHearts Pages: 1 -->
<svg width="803pt" height="404pt"
 viewBox="0.00 0.00 803.13 404.00" xmlns="http://www.w3.org/2000/svg" xmlns:xlink="http://www.w3.org/1999/xlink">
<g id="graph0" class="graph" transform="scale(1 1) rotate(0) translate(4 400)">
<title>dra.AddHearts</title>
<polygon fill="white" stroke="transparent" points="-4,4 -4,-400 799.13,-400 799.13,4 -4,4"/>
<!-- dra.AddHearts -->
<g id="node1" class="node">
<title>dra.AddHearts</title>
<ellipse fill="green" stroke="black" cx="361.69" cy="-198" rx="79.09" ry="18"/>
<text text-anchor="middle" x="361.69" y="-194.3" font-family="Times,serif" font-size="14.00">dra.AddHearts</text>
</g>
<!-- dra.PlaySfx -->
<g id="node2" class="node">
<title>dra.PlaySfx</title>
<g id="a_node2"><a xlink:href="dra.PlaySfx.svg" xlink:title="dra.PlaySfx">
<ellipse fill="green" stroke="black" cx="269.69" cy="-18" rx="64.19" ry="18"/>
<text text-anchor="middle" x="269.69" y="-14.3" font-family="Times,serif" font-size="14.00">dra.PlaySfx</text>
</a>
</g>
</g>
<!-- dra.AddHearts&#45;&gt;dra.PlaySfx -->
<g id="edge1" class="edge">
<title>dra.AddHearts&#45;&gt;dra.PlaySfx</title>
<path fill="none" stroke="black" d="M352.87,-179.93C336.73,-148.7 302.34,-82.17 283.22,-45.18"/>
<polygon fill="black" stroke="black" points="286.19,-43.29 278.49,-36.02 279.97,-46.51 286.19,-43.29"/>
<text text-anchor="middle" x="273.49" y="-39.82" font-family="Times,serif" font-size="14.00">1</text>
</g>
<!-- dra.func_8011AAFC -->
<g id="node3" class="node">
<title>dra.func_8011AAFC</title>
<g id="a_node3"><a xlink:href="dra.func_8011AAFC.svg" xlink:title="dra.func_8011AAFC">
<ellipse fill="green" stroke="black" cx="454.69" cy="-18" rx="102.88" ry="18"/>
<text text-anchor="middle" x="454.69" y="-14.3" font-family="Times,serif" font-size="14.00">dra.func_8011AAFC</text>
</a>
</g>
</g>
<!-- dra.AddHearts&#45;&gt;dra.func_8011AAFC -->
<g id="edge2" class="edge">
<title>dra.AddHearts&#45;&gt;dra.func_8011AAFC</title>
<path fill="none" stroke="black" d="M370.61,-179.93C386.93,-148.7 421.69,-82.17 441.01,-45.18"/>
<polygon fill="black" stroke="black" points="444.27,-46.5 445.8,-36.02 438.07,-43.26 444.27,-46.5"/>
<text text-anchor="middle" x="440.8" y="-39.82" font-family="Times,serif" font-size="14.00">1</text>
</g>
<!-- dra.func_800FE97C -->
<g id="node4" class="node">
<title>dra.func_800FE97C</title>
<g id="a_node4"><a xlink:href="dra.func_800FE97C.svg" xlink:title="dra.func_800FE97C">
<ellipse fill="green" stroke="black" cx="102.69" cy="-378" rx="102.88" ry="18"/>
<text text-anchor="middle" x="102.69" y="-374.3" font-family="Times,serif" font-size="14.00">dra.func_800FE97C</text>
</a>
</g>
</g>
<!-- dra.func_800FE97C&#45;&gt;dra.AddHearts -->
<g id="edge3" class="edge">
<title>dra.func_800FE97C&#45;&gt;dra.AddHearts</title>
<path fill="none" stroke="black" d="M127.06,-360.25C174.06,-327.95 277.21,-257.06 329.68,-221"/>
<polygon fill="black" stroke="black" points="331.69,-223.86 337.95,-215.31 327.73,-218.09 331.69,-223.86"/>
<text text-anchor="middle" x="122.06" y="-349.05" font-family="Times,serif" font-size="14.00">1</text>
</g>
<!-- w_023.EntityWeaponAttack -->
<g id="node5" class="node">
<title>w_023.EntityWeaponAttack</title>
<g id="a_node5"><a xlink:href="w_023.EntityWeaponAttack.svg" xlink:title="w_023.EntityWeaponAttack">
<ellipse fill="red" stroke="black" cx="361.69" cy="-378" rx="138.38" ry="18"/>
<text text-anchor="middle" x="361.69" y="-374.3" font-family="Times,serif" font-size="14.00">w_023.EntityWeaponAttack</text>
</a>
</g>
</g>
<!-- w_023.EntityWeaponAttack&#45;&gt;dra.AddHearts -->
<g id="edge4" class="edge">
<title>w_023.EntityWeaponAttack&#45;&gt;dra.AddHearts</title>
<path fill="none" stroke="black" d="M361.69,-359.93C361.69,-328.97 361.69,-263.3 361.69,-226.13"/>
<polygon fill="black" stroke="black" points="365.19,-226.02 361.69,-216.02 358.19,-226.02 365.19,-226.02"/>
<text text-anchor="middle" x="356.69" y="-348.73" font-family="Times,serif" font-size="14.00">1</text>
</g>
<!-- w_052.EntityWeaponAttack -->
<g id="node6" class="node">
<title>w_052.EntityWeaponAttack</title>
<g id="a_node6"><a xlink:href="w_052.EntityWeaponAttack.svg" xlink:title="w_052.EntityWeaponAttack">
<ellipse fill="red" stroke="black" cx="656.69" cy="-378" rx="138.38" ry="18"/>
<text text-anchor="middle" x="656.69" y="-374.3" font-family="Times,serif" font-size="14.00">w_052.EntityWeaponAttack</text>
</a>
</g>
</g>
<!-- w_052.EntityWeaponAttack&#45;&gt;dra.AddHearts -->
<g id="edge5" class="edge">
<title>w_052.EntityWeaponAttack&#45;&gt;dra.AddHearts</title>
<path fill="none" stroke="black" d="M628.94,-360.25C575.05,-327.74 456.34,-256.11 396.96,-220.28"/>
<polygon fill="black" stroke="black" points="398.67,-217.23 388.3,-215.06 395.06,-223.22 398.67,-217.23"/>
<text text-anchor="middle" x="623.94" y="-349.05" font-family="Times,serif" font-size="14.00">1</text>
</g>
</g>
</svg>
