<?xml version="1.0" encoding="UTF-8" standalone="no"?>
<!DOCTYPE svg PUBLIC "-//W3C//DTD SVG 1.1//EN"
 "http://www.w3.org/Graphics/SVG/1.1/DTD/svg11.dtd">
<!-- Generated by graphviz version 2.43.0 (0)
 -->
<!-- Title: dra.func_80133290 Pages: 1 -->
<svg width="979pt" height="404pt"
 viewBox="0.00 0.00 979.04 404.00" xmlns="http://www.w3.org/2000/svg" xmlns:xlink="http://www.w3.org/1999/xlink">
<g id="graph0" class="graph" transform="scale(1 1) rotate(0) translate(4 400)">
<title>dra.func_80133290</title>
<polygon fill="white" stroke="transparent" points="-4,4 -4,-400 975.04,-400 975.04,4 -4,4"/>
<!-- dra.func_80133290 -->
<g id="node1" class="node">
<title>dra.func_80133290</title>
<ellipse fill="red" stroke="black" cx="428.65" cy="-198" rx="100.98" ry="18"/>
<text text-anchor="middle" x="428.65" y="-194.3" font-family="Times,serif" font-size="14.00">dra.func_80133290</text>
</g>
<!-- VSync -->
<g id="node2" class="node">
<title>VSync</title>
<g id="a_node2"><a xlink:href="VSync.svg" xlink:title="VSync">
<ellipse fill="lightblue" stroke="black" cx="39.65" cy="-18" rx="39.79" ry="18"/>
<text text-anchor="middle" x="39.65" y="-14.3" font-family="Times,serif" font-size="14.00">VSync</text>
</a>
</g>
</g>
<!-- dra.func_80133290&#45;&gt;VSync -->
<g id="edge1" class="edge">
<title>dra.func_80133290&#45;&gt;VSync</title>
<path fill="none" stroke="black" d="M393.78,-181.05C320.43,-147.48 150.77,-69.85 76.07,-35.67"/>
<polygon fill="black" stroke="black" points="77.15,-32.31 66.6,-31.34 74.24,-38.68 77.15,-32.31"/>
<text text-anchor="middle" x="61.6" y="-35.14" font-family="Times,serif" font-size="14.00">1</text>
</g>
<!-- dra.SetReverbDepth -->
<g id="node3" class="node">
<title>dra.SetReverbDepth</title>
<g id="a_node3"><a xlink:href="dra.SetReverbDepth.svg" xlink:title="dra.SetReverbDepth">
<ellipse fill="green" stroke="black" cx="203.65" cy="-18" rx="106.68" ry="18"/>
<text text-anchor="middle" x="203.65" y="-14.3" font-family="Times,serif" font-size="14.00">dra.SetReverbDepth</text>
</a>
</g>
</g>
<!-- dra.func_80133290&#45;&gt;dra.SetReverbDepth -->
<g id="edge2" class="edge">
<title>dra.func_80133290&#45;&gt;dra.SetReverbDepth</title>
<path fill="none" stroke="black" d="M407.48,-180.25C367.11,-148.32 279.04,-78.65 233.01,-42.23"/>
<polygon fill="black" stroke="black" points="234.94,-39.29 224.92,-35.83 230.59,-44.78 234.94,-39.29"/>
<text text-anchor="middle" x="219.92" y="-39.63" font-family="Times,serif" font-size="14.00">1</text>
</g>
<!-- dra.func_80132028 -->
<g id="node4" class="node">
<title>dra.func_80132028</title>
<g id="a_node4"><a xlink:href="dra.func_80132028.svg" xlink:title="dra.func_80132028">
<ellipse fill="green" stroke="black" cx="428.65" cy="-18" rx="100.98" ry="18"/>
<text text-anchor="middle" x="428.65" y="-14.3" font-family="Times,serif" font-size="14.00">dra.func_80132028</text>
</a>
</g>
</g>
<!-- dra.func_80133290&#45;&gt;dra.func_80132028 -->
<g id="edge3" class="edge">
<title>dra.func_80133290&#45;&gt;dra.func_80132028</title>
<path fill="none" stroke="black" d="M428.65,-179.93C428.65,-148.97 428.65,-83.3 428.65,-46.13"/>
<polygon fill="black" stroke="black" points="432.15,-46.02 428.65,-36.02 425.15,-46.02 432.15,-46.02"/>
<text text-anchor="middle" x="423.65" y="-39.82" font-family="Times,serif" font-size="14.00">3</text>
</g>
<!-- dra.func_80132E38 -->
<g id="node5" class="node">
<title>dra.func_80132E38</title>
<g id="a_node5"><a xlink:href="dra.func_80132E38.svg" xlink:title="dra.func_80132E38">
<ellipse fill="green" stroke="black" cx="648.65" cy="-18" rx="101.28" ry="18"/>
<text text-anchor="middle" x="648.65" y="-14.3" font-family="Times,serif" font-size="14.00">dra.func_80132E38</text>
</a>
</g>
</g>
<!-- dra.func_80133290&#45;&gt;dra.func_80132E38 -->
<g id="edge4" class="edge">
<title>dra.func_80133290&#45;&gt;dra.func_80132E38</title>
<path fill="none" stroke="black" d="M449.34,-180.25C488.82,-148.32 574.93,-78.65 619.94,-42.23"/>
<polygon fill="black" stroke="black" points="622.27,-44.84 627.84,-35.83 617.87,-39.4 622.27,-44.84"/>
<text text-anchor="middle" x="622.84" y="-39.63" font-family="Times,serif" font-size="14.00">1</text>
</g>
<!-- dra.func_80132E90 -->
<g id="node6" class="node">
<title>dra.func_80132E90</title>
<g id="a_node6"><a xlink:href="dra.func_80132E90.svg" xlink:title="dra.func_80132E90">
<ellipse fill="green" stroke="black" cx="869.65" cy="-18" rx="101.28" ry="18"/>
<text text-anchor="middle" x="869.65" y="-14.3" font-family="Times,serif" font-size="14.00">dra.func_80132E90</text>
</a>
</g>
</g>
<!-- dra.func_80133290&#45;&gt;dra.func_80132E90 -->
<g id="edge5" class="edge">
<title>dra.func_80133290&#45;&gt;dra.func_80132E90</title>
<path fill="none" stroke="black" d="M467.4,-181.36C547.92,-148.86 733.18,-74.08 821.33,-38.5"/>
<polygon fill="black" stroke="black" points="822.86,-41.66 830.83,-34.67 820.24,-35.17 822.86,-41.66"/>
<text text-anchor="middle" x="825.83" y="-38.47" font-family="Times,serif" font-size="14.00">1</text>
</g>
<!-- dra.func_801353A0 -->
<g id="node7" class="node">
<title>dra.func_801353A0</title>
<g id="a_node7"><a xlink:href="dra.func_801353A0.svg" xlink:title="dra.func_801353A0">
<ellipse fill="green" stroke="black" cx="428.65" cy="-378" rx="100.98" ry="18"/>
<text text-anchor="middle" x="428.65" y="-374.3" font-family="Times,serif" font-size="14.00">dra.func_801353A0</text>
</a>
</g>
</g>
<!-- dra.func_801353A0&#45;&gt;dra.func_80133290 -->
<g id="edge6" class="edge">
<title>dra.func_801353A0&#45;&gt;dra.func_80133290</title>
<path fill="none" stroke="black" d="M428.65,-359.93C428.65,-328.97 428.65,-263.3 428.65,-226.13"/>
<polygon fill="black" stroke="black" points="432.15,-226.02 428.65,-216.02 425.15,-226.02 432.15,-226.02"/>
<text text-anchor="middle" x="423.65" y="-348.73" font-family="Times,serif" font-size="14.00">1</text>
</g>
</g>
</svg>
