<?xml version="1.0" encoding="UTF-8" standalone="no"?>
<!DOCTYPE svg PUBLIC "-//W3C//DTD SVG 1.1//EN"
 "http://www.w3.org/Graphics/SVG/1.1/DTD/svg11.dtd">
<!-- Generated by graphviz version 2.43.0 (0)
 -->
<!-- Title: dra.ApplyJosephsCloakPalette Pages: 1 -->
<svg width="394pt" height="404pt"
 viewBox="0.00 0.00 393.93 404.00" xmlns="http://www.w3.org/2000/svg" xmlns:xlink="http://www.w3.org/1999/xlink">
<g id="graph0" class="graph" transform="scale(1 1) rotate(0) translate(4 400)">
<title>dra.ApplyJosephsCloakPalette</title>
<polygon fill="white" stroke="transparent" points="-4,4 -4,-400 389.93,-400 389.93,4 -4,4"/>
<!-- dra.ApplyJosephsCloakPalette -->
<g id="node1" class="node">
<title>dra.ApplyJosephsCloakPalette</title>
<ellipse fill="green" stroke="black" cx="202.39" cy="-198" rx="149.47" ry="18"/>
<text text-anchor="middle" x="202.39" y="-194.3" font-family="Times,serif" font-size="14.00">dra.ApplyJosephsCloakPalette</text>
</g>
<!-- dra.DarkenCloakColor -->
<g id="node2" class="node">
<title>dra.DarkenCloakColor</title>
<g id="a_node2"><a xlink:href="dra.DarkenCloakColor.svg" xlink:title="dra.DarkenCloakColor">
<ellipse fill="green" stroke="black" cx="202.39" cy="-18" rx="113.98" ry="18"/>
<text text-anchor="middle" x="202.39" y="-14.3" font-family="Times,serif" font-size="14.00">dra.DarkenCloakColor</text>
</a>
</g>
</g>
<!-- dra.ApplyJosephsCloakPalette&#45;&gt;dra.DarkenCloakColor -->
<g id="edge1" class="edge">
<title>dra.ApplyJosephsCloakPalette&#45;&gt;dra.DarkenCloakColor</title>
<path fill="none" stroke="black" d="M202.39,-179.93C202.39,-148.97 202.39,-83.3 202.39,-46.13"/>
<polygon fill="black" stroke="black" points="205.89,-46.02 202.39,-36.02 198.89,-46.02 205.89,-46.02"/>
<text text-anchor="middle" x="197.39" y="-39.82" font-family="Times,serif" font-size="14.00">6</text>
</g>
<!-- dra.func_800F6A70 -->
<g id="node3" class="node">
<title>dra.func_800F6A70</title>
<g id="a_node3"><a xlink:href="dra.func_800F6A70.svg" xlink:title="dra.func_800F6A70">
<ellipse fill="red" stroke="black" cx="101.39" cy="-378" rx="101.28" ry="18"/>
<text text-anchor="middle" x="101.39" y="-374.3" font-family="Times,serif" font-size="14.00">dra.func_800F6A70</text>
</a>
</g>
</g>
<!-- dra.func_800F6A70&#45;&gt;dra.ApplyJosephsCloakPalette -->
<g id="edge2" class="edge">
<title>dra.func_800F6A70&#45;&gt;dra.ApplyJosephsCloakPalette</title>
<path fill="none" stroke="black" d="M111.08,-359.93C128.8,-328.7 166.55,-262.17 187.54,-225.18"/>
<polygon fill="black" stroke="black" points="190.85,-226.44 192.74,-216.02 184.76,-222.99 190.85,-226.44"/>
<text text-anchor="middle" x="106.08" y="-348.73" font-family="Times,serif" font-size="14.00">1</text>
</g>
<!-- dra.HandlePlay -->
<g id="node4" class="node">
<title>dra.HandlePlay</title>
<g id="a_node4"><a xlink:href="dra.HandlePlay.svg" xlink:title="dra.HandlePlay">
<ellipse fill="green" stroke="black" cx="303.39" cy="-378" rx="82.59" ry="18"/>
<text text-anchor="middle" x="303.39" y="-374.3" font-family="Times,serif" font-size="14.00">dra.HandlePlay</text>
</a>
</g>
</g>
<!-- dra.HandlePlay&#45;&gt;dra.ApplyJosephsCloakPalette -->
<g id="edge3" class="edge">
<title>dra.HandlePlay&#45;&gt;dra.ApplyJosephsCloakPalette</title>
<path fill="none" stroke="black" d="M293.71,-359.93C275.99,-328.7 238.23,-262.17 217.25,-225.18"/>
<polygon fill="black" stroke="black" points="220.03,-222.99 212.05,-216.02 213.94,-226.44 220.03,-222.99"/>
<text text-anchor="middle" x="288.71" y="-348.73" font-family="Times,serif" font-size="14.00">1</text>
</g>
</g>
</svg>
