<?xml version="1.0" encoding="UTF-8" standalone="no"?>
<!DOCTYPE svg PUBLIC "-//W3C//DTD SVG 1.1//EN"
 "http://www.w3.org/Graphics/SVG/1.1/DTD/svg11.dtd">
<!-- Generated by graphviz version 2.43.0 (0)
 -->
<!-- Title: dra.CastSpell Pages: 1 -->
<svg width="1982pt" height="224pt"
 viewBox="0.00 0.00 1982.43 224.00" xmlns="http://www.w3.org/2000/svg" xmlns:xlink="http://www.w3.org/1999/xlink">
<g id="graph0" class="graph" transform="scale(1 1) rotate(0) translate(4 220)">
<title>dra.CastSpell</title>
<polygon fill="white" stroke="transparent" points="-4,4 -4,-220 1978.43,-220 1978.43,4 -4,4"/>
<!-- dra.CastSpell -->
<g id="node1" class="node">
<title>dra.CastSpell</title>
<ellipse fill="green" stroke="black" cx="987.74" cy="-18" rx="73.39" ry="18"/>
<text text-anchor="middle" x="987.74" y="-14.3" font-family="Times,serif" font-size="14.00">dra.CastSpell</text>
</g>
<!-- dra.func_80110968 -->
<g id="node2" class="node">
<title>dra.func_80110968</title>
<g id="a_node2"><a xlink:href="dra.func_80110968.svg" xlink:title="dra.func_80110968">
<ellipse fill="red" stroke="black" cx="100.74" cy="-198" rx="100.98" ry="18"/>
<text text-anchor="middle" x="100.74" y="-194.3" font-family="Times,serif" font-size="14.00">dra.func_80110968</text>
</a>
</g>
</g>
<!-- dra.func_80110968&#45;&gt;dra.CastSpell -->
<g id="edge1" class="edge">
<title>dra.func_80110968&#45;&gt;dra.CastSpell</title>
<path fill="none" stroke="black" d="M165.25,-184.06C328.86,-151.22 758.65,-64.97 922.77,-32.04"/>
<polygon fill="black" stroke="black" points="923.61,-35.44 932.72,-30.04 922.23,-28.58 923.61,-35.44"/>
<text text-anchor="middle" x="160.25" y="-172.86" font-family="Times,serif" font-size="14.00">1</text>
</g>
<!-- dra.func_80110DF8 -->
<g id="node3" class="node">
<title>dra.func_80110DF8</title>
<g id="a_node3"><a xlink:href="dra.func_80110DF8.svg" xlink:title="dra.func_80110DF8">
<ellipse fill="red" stroke="black" cx="321.74" cy="-198" rx="102.88" ry="18"/>
<text text-anchor="middle" x="321.74" y="-194.3" font-family="Times,serif" font-size="14.00">dra.func_80110DF8</text>
</a>
</g>
</g>
<!-- dra.func_80110DF8&#45;&gt;dra.CastSpell -->
<g id="edge2" class="edge">
<title>dra.func_80110DF8&#45;&gt;dra.CastSpell</title>
<path fill="none" stroke="black" d="M375.68,-182.58C499.45,-149.51 802.95,-68.39 930.16,-34.39"/>
<polygon fill="black" stroke="black" points="931.35,-37.7 940.1,-31.73 929.54,-30.93 931.35,-37.7"/>
<text text-anchor="middle" x="370.68" y="-171.38" font-family="Times,serif" font-size="14.00">1</text>
</g>
<!-- dra.func_80110BC8 -->
<g id="node4" class="node">
<title>dra.func_80110BC8</title>
<g id="a_node4"><a xlink:href="dra.func_80110BC8.svg" xlink:title="dra.func_80110BC8">
<ellipse fill="red" stroke="black" cx="544.74" cy="-198" rx="102.88" ry="18"/>
<text text-anchor="middle" x="544.74" y="-194.3" font-family="Times,serif" font-size="14.00">dra.func_80110BC8</text>
</a>
</g>
</g>
<!-- dra.func_80110BC8&#45;&gt;dra.CastSpell -->
<g id="edge3" class="edge">
<title>dra.func_80110BC8&#45;&gt;dra.CastSpell</title>
<path fill="none" stroke="black" d="M584.05,-181.2C665.9,-148.32 854.23,-72.65 941.63,-37.53"/>
<polygon fill="black" stroke="black" points="943.05,-40.73 951.02,-33.75 940.44,-34.24 943.05,-40.73"/>
<text text-anchor="middle" x="579.05" y="-170" font-family="Times,serif" font-size="14.00">1</text>
</g>
<!-- dra.func_8011151C -->
<g id="node5" class="node">
<title>dra.func_8011151C</title>
<g id="a_node5"><a xlink:href="dra.func_8011151C.svg" xlink:title="dra.func_8011151C">
<ellipse fill="red" stroke="black" cx="766.74" cy="-198" rx="101.28" ry="18"/>
<text text-anchor="middle" x="766.74" y="-194.3" font-family="Times,serif" font-size="14.00">dra.func_8011151C</text>
</a>
</g>
</g>
<!-- dra.func_8011151C&#45;&gt;dra.CastSpell -->
<g id="edge4" class="edge">
<title>dra.func_8011151C&#45;&gt;dra.CastSpell</title>
<path fill="none" stroke="black" d="M787.53,-180.25C827.39,-148.15 914.57,-77.93 959.59,-41.67"/>
<polygon fill="black" stroke="black" points="961.89,-44.31 967.49,-35.31 957.5,-38.86 961.89,-44.31"/>
<text text-anchor="middle" x="782.53" y="-169.05" font-family="Times,serif" font-size="14.00">1</text>
</g>
<!-- dra.func_801112AC -->
<g id="node6" class="node">
<title>dra.func_801112AC</title>
<g id="a_node6"><a xlink:href="dra.func_801112AC.svg" xlink:title="dra.func_801112AC">
<ellipse fill="red" stroke="black" cx="987.74" cy="-198" rx="102.08" ry="18"/>
<text text-anchor="middle" x="987.74" y="-194.3" font-family="Times,serif" font-size="14.00">dra.func_801112AC</text>
</a>
</g>
</g>
<!-- dra.func_801112AC&#45;&gt;dra.CastSpell -->
<g id="edge5" class="edge">
<title>dra.func_801112AC&#45;&gt;dra.CastSpell</title>
<path fill="none" stroke="black" d="M987.74,-179.93C987.74,-148.97 987.74,-83.3 987.74,-46.13"/>
<polygon fill="black" stroke="black" points="991.24,-46.02 987.74,-36.02 984.24,-46.02 991.24,-46.02"/>
<text text-anchor="middle" x="982.74" y="-168.73" font-family="Times,serif" font-size="14.00">1</text>
</g>
<!-- dra.func_80111018 -->
<g id="node7" class="node">
<title>dra.func_80111018</title>
<g id="a_node7"><a xlink:href="dra.func_80111018.svg" xlink:title="dra.func_80111018">
<ellipse fill="red" stroke="black" cx="1208.74" cy="-198" rx="100.98" ry="18"/>
<text text-anchor="middle" x="1208.74" y="-194.3" font-family="Times,serif" font-size="14.00">dra.func_80111018</text>
</a>
</g>
</g>
<!-- dra.func_80111018&#45;&gt;dra.CastSpell -->
<g id="edge6" class="edge">
<title>dra.func_80111018&#45;&gt;dra.CastSpell</title>
<path fill="none" stroke="black" d="M1187.95,-180.25C1148.09,-148.15 1060.91,-77.93 1015.89,-41.67"/>
<polygon fill="black" stroke="black" points="1017.98,-38.86 1008,-35.31 1013.59,-44.31 1017.98,-38.86"/>
<text text-anchor="middle" x="1182.95" y="-169.05" font-family="Times,serif" font-size="14.00">1</text>
</g>
<!-- dra.func_80116B0C -->
<g id="node8" class="node">
<title>dra.func_80116B0C</title>
<g id="a_node8"><a xlink:href="dra.func_80116B0C.svg" xlink:title="dra.func_80116B0C">
<ellipse fill="red" stroke="black" cx="1429.74" cy="-198" rx="102.88" ry="18"/>
<text text-anchor="middle" x="1429.74" y="-194.3" font-family="Times,serif" font-size="14.00">dra.func_80116B0C</text>
</a>
</g>
</g>
<!-- dra.func_80116B0C&#45;&gt;dra.CastSpell -->
<g id="edge7" class="edge">
<title>dra.func_80116B0C&#45;&gt;dra.CastSpell</title>
<path fill="none" stroke="black" d="M1390.52,-181.2C1308.86,-148.32 1120.95,-72.65 1033.75,-37.53"/>
<polygon fill="black" stroke="black" points="1034.96,-34.24 1024.38,-33.75 1032.35,-40.74 1034.96,-34.24"/>
<text text-anchor="middle" x="1385.52" y="-170" font-family="Times,serif" font-size="14.00">2</text>
</g>
<!-- dra.func_80130264 -->
<g id="node9" class="node">
<title>dra.func_80130264</title>
<g id="a_node9"><a xlink:href="dra.func_80130264.svg" xlink:title="dra.func_80130264">
<ellipse fill="red" stroke="black" cx="1650.74" cy="-198" rx="100.98" ry="18"/>
<text text-anchor="middle" x="1650.74" y="-194.3" font-family="Times,serif" font-size="14.00">dra.func_80130264</text>
</a>
</g>
</g>
<!-- dra.func_80130264&#45;&gt;dra.CastSpell -->
<g id="edge8" class="edge">
<title>dra.func_80130264&#45;&gt;dra.CastSpell</title>
<path fill="none" stroke="black" d="M1597.33,-182.66C1474.31,-149.63 1171.89,-68.44 1045.12,-34.41"/>
<polygon fill="black" stroke="black" points="1045.78,-30.96 1035.22,-31.75 1043.97,-37.72 1045.78,-30.96"/>
<text text-anchor="middle" x="1592.33" y="-171.46" font-family="Times,serif" font-size="14.00">1</text>
</g>
<!-- dra.func_8012CC30 -->
<g id="node10" class="node">
<title>dra.func_8012CC30</title>
<g id="a_node10"><a xlink:href="dra.func_8012CC30.svg" xlink:title="dra.func_8012CC30">
<ellipse fill="green" stroke="black" cx="1871.74" cy="-198" rx="102.88" ry="18"/>
<text text-anchor="middle" x="1871.74" y="-194.3" font-family="Times,serif" font-size="14.00">dra.func_8012CC30</text>
</a>
</g>
</g>
<!-- dra.func_8012CC30&#45;&gt;dra.CastSpell -->
<g id="edge9" class="edge">
<title>dra.func_8012CC30&#45;&gt;dra.CastSpell</title>
<path fill="none" stroke="black" d="M1807.1,-183.98C1643.75,-151.09 1215.81,-64.92 1052.42,-32.02"/>
<polygon fill="black" stroke="black" points="1053.01,-28.57 1042.51,-30.03 1051.63,-35.43 1053.01,-28.57"/>
<text text-anchor="middle" x="1802.1" y="-172.78" font-family="Times,serif" font-size="14.00">1</text>
</g>
</g>
</svg>
