<?xml version="1.0" encoding="UTF-8" standalone="no"?>
<!DOCTYPE svg PUBLIC "-//W3C//DTD SVG 1.1//EN"
 "http://www.w3.org/Graphics/SVG/1.1/DTD/svg11.dtd">
<!-- Generated by graphviz version 2.43.0 (0)
 -->
<!-- Title: dra.func_80132028 Pages: 1 -->
<svg width="1534pt" height="218pt"
 viewBox="0.00 0.00 1534.03 218.00" xmlns="http://www.w3.org/2000/svg" xmlns:xlink="http://www.w3.org/1999/xlink">
<g id="graph0" class="graph" transform="scale(1 1) rotate(0) translate(4 214)">
<title>dra.func_80132028</title>
<polygon fill="white" stroke="transparent" points="-4,4 -4,-214 1530.03,-214 1530.03,4 -4,4"/>
<!-- dra.func_80132028 -->
<g id="node1" class="node">
<title>dra.func_80132028</title>
<ellipse fill="green" stroke="black" cx="764.99" cy="-105" rx="100.98" ry="18"/>
<text text-anchor="middle" x="764.99" y="-101.3" font-family="Times,serif" font-size="14.00">dra.func_80132028</text>
</g>
<!-- CdSync -->
<g id="node2" class="node">
<title>CdSync</title>
<g id="a_node2"><a xlink:href="CdSync.svg" xlink:title="CdSync">
<ellipse fill="lightblue" stroke="black" cx="703.99" cy="-18" rx="46.29" ry="18"/>
<text text-anchor="middle" x="703.99" y="-14.3" font-family="Times,serif" font-size="14.00">CdSync</text>
</a>
</g>
</g>
<!-- dra.func_80132028&#45;&gt;CdSync -->
<g id="edge1" class="edge">
<title>dra.func_80132028&#45;&gt;CdSync</title>
<path fill="none" stroke="black" d="M752.65,-86.8C743.77,-74.43 731.66,-57.55 721.74,-43.74"/>
<polygon fill="black" stroke="black" points="724.58,-41.68 715.9,-35.6 718.89,-45.76 724.58,-41.68"/>
<text text-anchor="middle" x="743.99" y="-57.8" font-family="Times,serif" font-size="14.00">1</text>
</g>
<!-- CdControl -->
<g id="node3" class="node">
<title>CdControl</title>
<g id="a_node3"><a xlink:href="CdControl.svg" xlink:title="CdControl">
<ellipse fill="lightblue" stroke="black" cx="825.99" cy="-18" rx="57.69" ry="18"/>
<text text-anchor="middle" x="825.99" y="-14.3" font-family="Times,serif" font-size="14.00">CdControl</text>
</a>
</g>
</g>
<!-- dra.func_80132028&#45;&gt;CdControl -->
<g id="edge2" class="edge">
<title>dra.func_80132028&#45;&gt;CdControl</title>
<path fill="none" stroke="black" d="M777.34,-86.8C786.07,-74.62 797.94,-58.09 807.76,-44.4"/>
<polygon fill="black" stroke="black" points="810.89,-46.05 813.87,-35.89 805.2,-41.97 810.89,-46.05"/>
<text text-anchor="middle" x="804.99" y="-57.8" font-family="Times,serif" font-size="14.00">2</text>
</g>
<!-- dra.func_80133BDC -->
<g id="node4" class="node">
<title>dra.func_80133BDC</title>
<g id="a_node4"><a xlink:href="dra.func_80133BDC.svg" xlink:title="dra.func_80133BDC">
<ellipse fill="red" stroke="black" cx="103.99" cy="-192" rx="103.98" ry="18"/>
<text text-anchor="middle" x="103.99" y="-188.3" font-family="Times,serif" font-size="14.00">dra.func_80133BDC</text>
</a>
</g>
</g>
<!-- dra.func_80133BDC&#45;&gt;dra.func_80132028 -->
<g id="edge3" class="edge">
<title>dra.func_80133BDC&#45;&gt;dra.func_80132028</title>
<path fill="none" stroke="black" d="M178.71,-179.48C191.48,-177.59 204.61,-175.7 216.99,-174 377.02,-152.04 563.78,-129.53 672.76,-116.71"/>
<polygon fill="black" stroke="black" points="673.22,-120.18 682.74,-115.53 672.4,-113.23 673.22,-120.18"/>
<text text-anchor="middle" x="462.99" y="-144.8" font-family="Times,serif" font-size="14.00">5</text>
</g>
<!-- dra.func_80133290 -->
<g id="node5" class="node">
<title>dra.func_80133290</title>
<g id="a_node5"><a xlink:href="dra.func_80133290.svg" xlink:title="dra.func_80133290">
<ellipse fill="red" stroke="black" cx="326.99" cy="-192" rx="100.98" ry="18"/>
<text text-anchor="middle" x="326.99" y="-188.3" font-family="Times,serif" font-size="14.00">dra.func_80133290</text>
</a>
</g>
</g>
<!-- dra.func_80133290&#45;&gt;dra.func_80132028 -->
<g id="edge4" class="edge">
<title>dra.func_80133290&#45;&gt;dra.func_80132028</title>
<path fill="none" stroke="black" d="M392.56,-178.27C472.02,-162.85 605.64,-136.92 689.37,-120.67"/>
<polygon fill="black" stroke="black" points="690.18,-124.08 699.33,-118.74 688.84,-117.21 690.18,-124.08"/>
<text text-anchor="middle" x="577.99" y="-144.8" font-family="Times,serif" font-size="14.00">3</text>
</g>
<!-- dra.func_80133960 -->
<g id="node6" class="node">
<title>dra.func_80133960</title>
<g id="a_node6"><a xlink:href="dra.func_80133960.svg" xlink:title="dra.func_80133960">
<ellipse fill="red" stroke="black" cx="545.99" cy="-192" rx="100.98" ry="18"/>
<text text-anchor="middle" x="545.99" y="-188.3" font-family="Times,serif" font-size="14.00">dra.func_80133960</text>
</a>
</g>
</g>
<!-- dra.func_80133960&#45;&gt;dra.func_80132028 -->
<g id="edge5" class="edge">
<title>dra.func_80133960&#45;&gt;dra.func_80132028</title>
<path fill="none" stroke="black" d="M586.16,-175.41C622.47,-161.32 676.07,-140.51 715.11,-125.36"/>
<polygon fill="black" stroke="black" points="716.65,-128.52 724.71,-121.64 714.12,-121.99 716.65,-128.52"/>
<text text-anchor="middle" x="673.99" y="-144.8" font-family="Times,serif" font-size="14.00">1</text>
</g>
<!-- dra.func_80133604 -->
<g id="node7" class="node">
<title>dra.func_80133604</title>
<g id="a_node7"><a xlink:href="dra.func_80133604.svg" xlink:title="dra.func_80133604">
<ellipse fill="red" stroke="black" cx="764.99" cy="-192" rx="100.98" ry="18"/>
<text text-anchor="middle" x="764.99" y="-188.3" font-family="Times,serif" font-size="14.00">dra.func_80133604</text>
</a>
</g>
</g>
<!-- dra.func_80133604&#45;&gt;dra.func_80132028 -->
<g id="edge6" class="edge">
<title>dra.func_80133604&#45;&gt;dra.func_80132028</title>
<path fill="none" stroke="black" d="M764.99,-173.8C764.99,-162.16 764.99,-146.55 764.99,-133.24"/>
<polygon fill="black" stroke="black" points="768.49,-133.18 764.99,-123.18 761.49,-133.18 768.49,-133.18"/>
<text text-anchor="middle" x="769.99" y="-144.8" font-family="Times,serif" font-size="14.00">1</text>
</g>
<!-- dra.func_80133488 -->
<g id="node8" class="node">
<title>dra.func_80133488</title>
<g id="a_node8"><a xlink:href="dra.func_80133488.svg" xlink:title="dra.func_80133488">
<ellipse fill="red" stroke="black" cx="983.99" cy="-192" rx="100.98" ry="18"/>
<text text-anchor="middle" x="983.99" y="-188.3" font-family="Times,serif" font-size="14.00">dra.func_80133488</text>
</a>
</g>
</g>
<!-- dra.func_80133488&#45;&gt;dra.func_80132028 -->
<g id="edge7" class="edge">
<title>dra.func_80133488&#45;&gt;dra.func_80132028</title>
<path fill="none" stroke="black" d="M943.82,-175.41C907.51,-161.32 853.91,-140.51 814.87,-125.36"/>
<polygon fill="black" stroke="black" points="815.86,-121.99 805.27,-121.64 813.33,-128.52 815.86,-121.99"/>
<text text-anchor="middle" x="892.99" y="-144.8" font-family="Times,serif" font-size="14.00">1</text>
</g>
<!-- dra.func_80132F60 -->
<g id="node9" class="node">
<title>dra.func_80132F60</title>
<g id="a_node9"><a xlink:href="dra.func_80132F60.svg" xlink:title="dra.func_80132F60">
<ellipse fill="red" stroke="black" cx="1202.99" cy="-192" rx="100.98" ry="18"/>
<text text-anchor="middle" x="1202.99" y="-188.3" font-family="Times,serif" font-size="14.00">dra.func_80132F60</text>
</a>
</g>
</g>
<!-- dra.func_80132F60&#45;&gt;dra.func_80132028 -->
<g id="edge8" class="edge">
<title>dra.func_80132F60&#45;&gt;dra.func_80132028</title>
<path fill="none" stroke="black" d="M1137.42,-178.27C1057.96,-162.85 924.34,-136.92 840.61,-120.67"/>
<polygon fill="black" stroke="black" points="841.14,-117.21 830.65,-118.74 839.8,-124.08 841.14,-117.21"/>
<text text-anchor="middle" x="1015.99" y="-144.8" font-family="Times,serif" font-size="14.00">5</text>
</g>
<!-- dra.func_801325D8 -->
<g id="node10" class="node">
<title>dra.func_801325D8</title>
<g id="a_node10"><a xlink:href="dra.func_801325D8.svg" xlink:title="dra.func_801325D8">
<ellipse fill="green" stroke="black" cx="1423.99" cy="-192" rx="102.08" ry="18"/>
<text text-anchor="middle" x="1423.99" y="-188.3" font-family="Times,serif" font-size="14.00">dra.func_801325D8</text>
</a>
</g>
</g>
<!-- dra.func_801325D8&#45;&gt;dra.func_80132028 -->
<g id="edge9" class="edge">
<title>dra.func_801325D8&#45;&gt;dra.func_80132028</title>
<path fill="none" stroke="black" d="M1350.59,-179.46C1338.06,-177.57 1325.16,-175.69 1312.99,-174 1152.99,-151.83 966.22,-129.38 857.23,-116.63"/>
<polygon fill="black" stroke="black" points="857.59,-113.15 847.25,-115.47 856.78,-120.1 857.59,-113.15"/>
<text text-anchor="middle" x="1182.99" y="-144.8" font-family="Times,serif" font-size="14.00">1</text>
</g>
</g>
</svg>
