<?xml version="1.0" encoding="UTF-8" standalone="no"?>
<!DOCTYPE svg PUBLIC "-//W3C//DTD SVG 1.1//EN"
 "http://www.w3.org/Graphics/SVG/1.1/DTD/svg11.dtd">
<!-- Generated by graphviz version 2.43.0 (0)
 -->
<!-- Title: dra.func_800F8F28 Pages: 1 -->
<svg width="6003pt" height="404pt"
 viewBox="0.00 0.00 6002.88 404.00" xmlns="http://www.w3.org/2000/svg" xmlns:xlink="http://www.w3.org/1999/xlink">
<g id="graph0" class="graph" transform="scale(1 1) rotate(0) translate(4 400)">
<title>dra.func_800F8F28</title>
<polygon fill="white" stroke="transparent" points="-4,4 -4,-400 5998.88,-400 5998.88,4 -4,4"/>
<!-- dra.func_800F8F28 -->
<g id="node1" class="node">
<title>dra.func_800F8F28</title>
<ellipse fill="red" stroke="black" cx="3268.14" cy="-198" rx="101.28" ry="18"/>
<text text-anchor="middle" x="3268.14" y="-194.3" font-family="Times,serif" font-size="14.00">dra.func_800F8F28</text>
</g>
<!-- dra.BlinkMenuCursor -->
<g id="node2" class="node">
<title>dra.BlinkMenuCursor</title>
<g id="a_node2"><a xlink:href="dra.BlinkMenuCursor.svg" xlink:title="dra.BlinkMenuCursor">
<ellipse fill="green" stroke="black" cx="111.14" cy="-18" rx="111.28" ry="18"/>
<text text-anchor="middle" x="111.14" y="-14.3" font-family="Times,serif" font-size="14.00">dra.BlinkMenuCursor</text>
</a>
</g>
</g>
<!-- dra.func_800F8F28&#45;&gt;dra.BlinkMenuCursor -->
<g id="edge1" class="edge">
<title>dra.func_800F8F28&#45;&gt;dra.BlinkMenuCursor</title>
<path fill="none" stroke="black" d="M3167.95,-194.88C2785.58,-186.12 1381.71,-147.78 231.14,-36 220.56,-34.97 209.48,-33.69 198.51,-32.29"/>
<polygon fill="black" stroke="black" points="198.85,-28.8 188.48,-30.97 197.94,-35.74 198.85,-28.8"/>
<text text-anchor="middle" x="183.48" y="-34.77" font-family="Times,serif" font-size="14.00">4</text>
</g>
<!-- dra.DrawConsumableCount -->
<g id="node3" class="node">
<title>dra.DrawConsumableCount</title>
<g id="a_node3"><a xlink:href="dra.DrawConsumableCount.svg" xlink:title="dra.DrawConsumableCount">
<ellipse fill="green" stroke="black" cx="379.14" cy="-18" rx="139.18" ry="18"/>
<text text-anchor="middle" x="379.14" y="-14.3" font-family="Times,serif" font-size="14.00">dra.DrawConsumableCount</text>
</a>
</g>
</g>
<!-- dra.func_800F8F28&#45;&gt;dra.DrawConsumableCount -->
<g id="edge2" class="edge">
<title>dra.func_800F8F28&#45;&gt;dra.DrawConsumableCount</title>
<path fill="none" stroke="black" d="M3170.28,-193.23C2814.93,-179.1 1559.47,-125.54 527.14,-36 513.87,-34.85 499.95,-33.47 486.18,-32.01"/>
<polygon fill="black" stroke="black" points="486.51,-28.52 476.19,-30.93 485.75,-35.48 486.51,-28.52"/>
<text text-anchor="middle" x="471.19" y="-34.73" font-family="Times,serif" font-size="14.00">2</text>
</g>
<!-- dra.DrawMenuAlucardCloakPreview -->
<g id="node4" class="node">
<title>dra.DrawMenuAlucardCloakPreview</title>
<g id="a_node4"><a xlink:href="dra.DrawMenuAlucardCloakPreview.svg" xlink:title="dra.DrawMenuAlucardCloakPreview">
<ellipse fill="green" stroke="black" cx="715.14" cy="-18" rx="179.27" ry="18"/>
<text text-anchor="middle" x="715.14" y="-14.3" font-family="Times,serif" font-size="14.00">dra.DrawMenuAlucardCloakPreview</text>
</a>
</g>
</g>
<!-- dra.func_800F8F28&#45;&gt;dra.DrawMenuAlucardCloakPreview -->
<g id="edge3" class="edge">
<title>dra.func_800F8F28&#45;&gt;dra.DrawMenuAlucardCloakPreview</title>
<path fill="none" stroke="black" d="M3173.74,-191.33C2854.42,-171.99 1785.44,-105.91 903.14,-36 886.48,-34.68 869,-33.21 851.68,-31.71"/>
<polygon fill="black" stroke="black" points="851.78,-28.2 841.52,-30.82 851.17,-35.17 851.78,-28.2"/>
<text text-anchor="middle" x="836.52" y="-34.62" font-family="Times,serif" font-size="14.00">1</text>
</g>
<!-- dra.DrawMenuStr -->
<g id="node5" class="node">
<title>dra.DrawMenuStr</title>
<g id="a_node5"><a xlink:href="dra.DrawMenuStr.svg" xlink:title="dra.DrawMenuStr">
<ellipse fill="green" stroke="black" cx="1007.14" cy="-18" rx="94.78" ry="18"/>
<text text-anchor="middle" x="1007.14" y="-14.3" font-family="Times,serif" font-size="14.00">dra.DrawMenuStr</text>
</a>
</g>
</g>
<!-- dra.func_800F8F28&#45;&gt;dra.DrawMenuStr -->
<g id="edge4" class="edge">
<title>dra.func_800F8F28&#45;&gt;dra.DrawMenuStr</title>
<path fill="none" stroke="black" d="M3170.84,-192.78C2866.11,-178.9 1903.31,-130.13 1111.14,-36 1102.43,-34.96 1093.33,-33.72 1084.3,-32.38"/>
<polygon fill="black" stroke="black" points="1084.56,-28.88 1074.15,-30.84 1083.51,-35.8 1084.56,-28.88"/>
<text text-anchor="middle" x="1069.15" y="-34.64" font-family="Times,serif" font-size="14.00">3</text>
</g>
<!-- dra.DrawPauseMenu -->
<g id="node6" class="node">
<title>dra.DrawPauseMenu</title>
<g id="a_node6"><a xlink:href="dra.DrawPauseMenu.svg" xlink:title="dra.DrawPauseMenu">
<ellipse fill="green" stroke="black" cx="1228.14" cy="-18" rx="107.78" ry="18"/>
<text text-anchor="middle" x="1228.14" y="-14.3" font-family="Times,serif" font-size="14.00">dra.DrawPauseMenu</text>
</a>
</g>
</g>
<!-- dra.func_800F8F28&#45;&gt;dra.DrawPauseMenu -->
<g id="edge5" class="edge">
<title>dra.func_800F8F28&#45;&gt;dra.DrawPauseMenu</title>
<path fill="none" stroke="black" d="M3173.84,-191.19C2894.17,-173.51 2045.11,-116.61 1344.14,-36 1334.43,-34.88 1324.29,-33.59 1314.21,-32.22"/>
<polygon fill="black" stroke="black" points="1314.56,-28.74 1304.18,-30.83 1313.6,-35.67 1314.56,-28.74"/>
<text text-anchor="middle" x="1299.18" y="-34.63" font-family="Times,serif" font-size="14.00">2</text>
</g>
<!-- dra.DrawRelicsMenu -->
<g id="node7" class="node">
<title>dra.DrawRelicsMenu</title>
<g id="a_node7"><a xlink:href="dra.DrawRelicsMenu.svg" xlink:title="dra.DrawRelicsMenu">
<ellipse fill="red" stroke="black" cx="1462.14" cy="-18" rx="108.58" ry="18"/>
<text text-anchor="middle" x="1462.14" y="-14.3" font-family="Times,serif" font-size="14.00">dra.DrawRelicsMenu</text>
</a>
</g>
</g>
<!-- dra.func_800F8F28&#45;&gt;dra.DrawRelicsMenu -->
<g id="edge6" class="edge">
<title>dra.func_800F8F28&#45;&gt;dra.DrawRelicsMenu</title>
<path fill="none" stroke="black" d="M3177.34,-189.93C2924.02,-169.86 2188.17,-109.23 1579.14,-36 1569.43,-34.83 1559.29,-33.51 1549.21,-32.13"/>
<polygon fill="black" stroke="black" points="1549.55,-28.65 1539.16,-30.74 1548.59,-35.58 1549.55,-28.65"/>
<text text-anchor="middle" x="1534.16" y="-34.54" font-family="Times,serif" font-size="14.00">1</text>
</g>
<!-- dra.DrawSettingsButton -->
<g id="node8" class="node">
<title>dra.DrawSettingsButton</title>
<g id="a_node8"><a xlink:href="dra.DrawSettingsButton.svg" xlink:title="dra.DrawSettingsButton">
<ellipse fill="red" stroke="black" cx="1713.14" cy="-18" rx="124.58" ry="18"/>
<text text-anchor="middle" x="1713.14" y="-14.3" font-family="Times,serif" font-size="14.00">dra.DrawSettingsButton</text>
</a>
</g>
</g>
<!-- dra.func_800F8F28&#45;&gt;dra.DrawSettingsButton -->
<g id="edge7" class="edge">
<title>dra.func_800F8F28&#45;&gt;dra.DrawSettingsButton</title>
<path fill="none" stroke="black" d="M3183.95,-187.9C2963.92,-164.01 2353.66,-97.16 1846.14,-36 1835.24,-34.69 1823.83,-33.28 1812.49,-31.86"/>
<polygon fill="black" stroke="black" points="1812.9,-28.38 1802.55,-30.61 1812.03,-35.33 1812.9,-28.38"/>
<text text-anchor="middle" x="1797.55" y="-34.41" font-family="Times,serif" font-size="14.00">1</text>
</g>
<!-- dra.DrawSettingsReverseCloak -->
<g id="node9" class="node">
<title>dra.DrawSettingsReverseCloak</title>
<g id="a_node9"><a xlink:href="dra.DrawSettingsReverseCloak.svg" xlink:title="dra.DrawSettingsReverseCloak">
<ellipse fill="green" stroke="black" cx="2012.14" cy="-18" rx="156.77" ry="18"/>
<text text-anchor="middle" x="2012.14" y="-14.3" font-family="Times,serif" font-size="14.00">dra.DrawSettingsReverseCloak</text>
</a>
</g>
</g>
<!-- dra.func_800F8F28&#45;&gt;dra.DrawSettingsReverseCloak -->
<g id="edge8" class="edge">
<title>dra.func_800F8F28&#45;&gt;dra.DrawSettingsReverseCloak</title>
<path fill="none" stroke="black" d="M3191.46,-186.13C2975.68,-155.55 2362.99,-68.72 2116.62,-33.81"/>
<polygon fill="black" stroke="black" points="2116.98,-30.32 2106.59,-32.39 2116,-37.25 2116.98,-30.32"/>
<text text-anchor="middle" x="2101.59" y="-36.19" font-family="Times,serif" font-size="14.00">1</text>
</g>
<!-- dra.DrawSettingsSound -->
<g id="node10" class="node">
<title>dra.DrawSettingsSound</title>
<g id="a_node10"><a xlink:href="dra.DrawSettingsSound.svg" xlink:title="dra.DrawSettingsSound">
<ellipse fill="green" stroke="black" cx="2309.14" cy="-18" rx="122.38" ry="18"/>
<text text-anchor="middle" x="2309.14" y="-14.3" font-family="Times,serif" font-size="14.00">dra.DrawSettingsSound</text>
</a>
</g>
</g>
<!-- dra.func_800F8F28&#45;&gt;dra.DrawSettingsSound -->
<g id="edge9" class="edge">
<title>dra.func_800F8F28&#45;&gt;dra.DrawSettingsSound</title>
<path fill="none" stroke="black" d="M3200.71,-184.48C3029.58,-152.72 2578.86,-69.06 2392.07,-34.39"/>
<polygon fill="black" stroke="black" points="2392.5,-30.91 2382.03,-32.53 2391.22,-37.79 2392.5,-30.91"/>
<text text-anchor="middle" x="2377.03" y="-36.33" font-family="Times,serif" font-size="14.00">1</text>
</g>
<!-- dra.DrawSpellMenu -->
<g id="node11" class="node">
<title>dra.DrawSpellMenu</title>
<g id="a_node11"><a xlink:href="dra.DrawSpellMenu.svg" xlink:title="dra.DrawSpellMenu">
<ellipse fill="red" stroke="black" cx="2553.14" cy="-18" rx="103.98" ry="18"/>
<text text-anchor="middle" x="2553.14" y="-14.3" font-family="Times,serif" font-size="14.00">dra.DrawSpellMenu</text>
</a>
</g>
</g>
<!-- dra.func_800F8F28&#45;&gt;dra.DrawSpellMenu -->
<g id="edge10" class="edge">
<title>dra.func_800F8F28&#45;&gt;dra.DrawSpellMenu</title>
<path fill="none" stroke="black" d="M3211.74,-182.96C3081.32,-150.49 2759.39,-70.35 2619.65,-35.56"/>
<polygon fill="black" stroke="black" points="2620.46,-32.15 2609.91,-33.13 2618.77,-38.95 2620.46,-32.15"/>
<text text-anchor="middle" x="2604.91" y="-36.93" font-family="Times,serif" font-size="14.00">1</text>
</g>
<!-- dra.DrawStatChanges -->
<g id="node12" class="node">
<title>dra.DrawStatChanges</title>
<g id="a_node12"><a xlink:href="dra.DrawStatChanges.svg" xlink:title="dra.DrawStatChanges">
<ellipse fill="green" stroke="black" cx="2789.14" cy="-18" rx="113.98" ry="18"/>
<text text-anchor="middle" x="2789.14" y="-14.3" font-family="Times,serif" font-size="14.00">dra.DrawStatChanges</text>
</a>
</g>
</g>
<!-- dra.func_800F8F28&#45;&gt;dra.DrawStatChanges -->
<g id="edge11" class="edge">
<title>dra.func_800F8F28&#45;&gt;dra.DrawStatChanges</title>
<path fill="none" stroke="black" d="M3226.47,-181.52C3139.11,-149.05 2936.96,-73.93 2841.22,-38.35"/>
<polygon fill="black" stroke="black" points="2842.33,-35.03 2831.74,-34.83 2839.9,-41.6 2842.33,-35.03"/>
<text text-anchor="middle" x="2826.74" y="-38.63" font-family="Times,serif" font-size="14.00">1</text>
</g>
<!-- dra.DrawSystemMenu -->
<g id="node13" class="node">
<title>dra.DrawSystemMenu</title>
<g id="a_node13"><a xlink:href="dra.DrawSystemMenu.svg" xlink:title="dra.DrawSystemMenu">
<ellipse fill="green" stroke="black" cx="3036.14" cy="-18" rx="115.08" ry="18"/>
<text text-anchor="middle" x="3036.14" y="-14.3" font-family="Times,serif" font-size="14.00">dra.DrawSystemMenu</text>
</a>
</g>
</g>
<!-- dra.func_800F8F28&#45;&gt;dra.DrawSystemMenu -->
<g id="edge12" class="edge">
<title>dra.func_800F8F28&#45;&gt;dra.DrawSystemMenu</title>
<path fill="none" stroke="black" d="M3246.31,-180.25C3204.6,-148.25 3113.5,-78.36 3066.12,-42"/>
<polygon fill="black" stroke="black" points="3068.14,-39.14 3058.08,-35.83 3063.88,-44.7 3068.14,-39.14"/>
<text text-anchor="middle" x="3053.08" y="-39.63" font-family="Times,serif" font-size="14.00">1</text>
</g>
<!-- dra.LoadEquipIcon -->
<g id="node14" class="node">
<title>dra.LoadEquipIcon</title>
<g id="a_node14"><a xlink:href="dra.LoadEquipIcon.svg" xlink:title="dra.LoadEquipIcon">
<ellipse fill="green" stroke="black" cx="3268.14" cy="-18" rx="98.58" ry="18"/>
<text text-anchor="middle" x="3268.14" y="-14.3" font-family="Times,serif" font-size="14.00">dra.LoadEquipIcon</text>
</a>
</g>
</g>
<!-- dra.func_800F8F28&#45;&gt;dra.LoadEquipIcon -->
<g id="edge13" class="edge">
<title>dra.func_800F8F28&#45;&gt;dra.LoadEquipIcon</title>
<path fill="none" stroke="black" d="M3268.14,-179.93C3268.14,-148.97 3268.14,-83.3 3268.14,-46.13"/>
<polygon fill="black" stroke="black" points="3271.64,-46.02 3268.14,-36.02 3264.64,-46.02 3271.64,-46.02"/>
<text text-anchor="middle" x="3263.14" y="-39.82" font-family="Times,serif" font-size="14.00">3</text>
</g>
<!-- dra.SetPrimRect -->
<g id="node15" class="node">
<title>dra.SetPrimRect</title>
<g id="a_node15"><a xlink:href="dra.SetPrimRect.svg" xlink:title="dra.SetPrimRect">
<ellipse fill="green" stroke="black" cx="3473.14" cy="-18" rx="88.28" ry="18"/>
<text text-anchor="middle" x="3473.14" y="-14.3" font-family="Times,serif" font-size="14.00">dra.SetPrimRect</text>
</a>
</g>
</g>
<!-- dra.func_800F8F28&#45;&gt;dra.SetPrimRect -->
<g id="edge14" class="edge">
<title>dra.func_800F8F28&#45;&gt;dra.SetPrimRect</title>
<path fill="none" stroke="black" d="M3287.43,-180.25C3324.13,-148.38 3404.11,-78.94 3446.13,-42.45"/>
<polygon fill="black" stroke="black" points="3448.5,-45.03 3453.76,-35.83 3443.91,-39.74 3448.5,-45.03"/>
<text text-anchor="middle" x="3448.76" y="-39.63" font-family="Times,serif" font-size="14.00">1</text>
</g>
<!-- dra.func_800F5AE4 -->
<g id="node16" class="node">
<title>dra.func_800F5AE4</title>
<g id="a_node16"><a xlink:href="dra.func_800F5AE4.svg" xlink:title="dra.func_800F5AE4">
<ellipse fill="green" stroke="black" cx="3682.14" cy="-18" rx="102.88" ry="18"/>
<text text-anchor="middle" x="3682.14" y="-14.3" font-family="Times,serif" font-size="14.00">dra.func_800F5AE4</text>
</a>
</g>
</g>
<!-- dra.func_800F8F28&#45;&gt;dra.func_800F5AE4 -->
<g id="edge15" class="edge">
<title>dra.func_800F8F28&#45;&gt;dra.func_800F5AE4</title>
<path fill="none" stroke="black" d="M3304.88,-181.2C3380.36,-148.75 3552.73,-74.64 3635.76,-38.94"/>
<polygon fill="black" stroke="black" points="3637.38,-42.05 3645.19,-34.89 3634.62,-35.62 3637.38,-42.05"/>
<text text-anchor="middle" x="3640.19" y="-38.69" font-family="Times,serif" font-size="14.00">1</text>
</g>
<!-- dra.func_800F6568 -->
<g id="node17" class="node">
<title>dra.func_800F6568</title>
<g id="a_node17"><a xlink:href="dra.func_800F6568.svg" xlink:title="dra.func_800F6568">
<ellipse fill="green" stroke="black" cx="3903.14" cy="-18" rx="100.98" ry="18"/>
<text text-anchor="middle" x="3903.14" y="-14.3" font-family="Times,serif" font-size="14.00">dra.func_800F6568</text>
</a>
</g>
</g>
<!-- dra.func_800F8F28&#45;&gt;dra.func_800F6568 -->
<g id="edge16" class="edge">
<title>dra.func_800F8F28&#45;&gt;dra.func_800F6568</title>
<path fill="none" stroke="black" d="M3319.84,-182.51C3435.87,-149.98 3716.63,-71.28 3841.5,-36.28"/>
<polygon fill="black" stroke="black" points="3842.61,-39.6 3851.29,-33.53 3840.72,-32.86 3842.61,-39.6"/>
<text text-anchor="middle" x="3846.29" y="-37.33" font-family="Times,serif" font-size="14.00">1</text>
</g>
<!-- dra.func_800F6618 -->
<g id="node18" class="node">
<title>dra.func_800F6618</title>
<g id="a_node18"><a xlink:href="dra.func_800F6618.svg" xlink:title="dra.func_800F6618">
<ellipse fill="green" stroke="black" cx="4122.14" cy="-18" rx="100.98" ry="18"/>
<text text-anchor="middle" x="4122.14" y="-14.3" font-family="Times,serif" font-size="14.00">dra.func_800F6618</text>
</a>
</g>
</g>
<!-- dra.func_800F8F28&#45;&gt;dra.func_800F6618 -->
<g id="edge17" class="edge">
<title>dra.func_800F8F28&#45;&gt;dra.func_800F6618</title>
<path fill="none" stroke="black" d="M3331.28,-183.84C3486.25,-151.54 3884.67,-68.5 4049.29,-34.18"/>
<polygon fill="black" stroke="black" points="4050.25,-37.56 4059.32,-32.09 4048.82,-30.71 4050.25,-37.56"/>
<text text-anchor="middle" x="4054.32" y="-35.89" font-family="Times,serif" font-size="14.00">1</text>
</g>
<!-- dra.func_800F6A70 -->
<g id="node19" class="node">
<title>dra.func_800F6A70</title>
<g id="a_node19"><a xlink:href="dra.func_800F6A70.svg" xlink:title="dra.func_800F6A70">
<ellipse fill="red" stroke="black" cx="4342.14" cy="-18" rx="101.28" ry="18"/>
<text text-anchor="middle" x="4342.14" y="-14.3" font-family="Times,serif" font-size="14.00">dra.func_800F6A70</text>
</a>
</g>
</g>
<!-- dra.func_800F8F28&#45;&gt;dra.func_800F6A70 -->
<g id="edge18" class="edge">
<title>dra.func_800F8F28&#45;&gt;dra.func_800F6A70</title>
<path fill="none" stroke="black" d="M3339.44,-185.18C3531.33,-153.38 4057.89,-66.11 4260.87,-32.47"/>
<polygon fill="black" stroke="black" points="4261.57,-35.9 4270.87,-30.81 4260.43,-28.99 4261.57,-35.9"/>
<text text-anchor="middle" x="4265.87" y="-34.61" font-family="Times,serif" font-size="14.00">1</text>
</g>
<!-- dra.func_800F6BEC -->
<g id="node20" class="node">
<title>dra.func_800F6BEC</title>
<g id="a_node20"><a xlink:href="dra.func_800F6BEC.svg" xlink:title="dra.func_800F6BEC">
<ellipse fill="green" stroke="black" cx="4565.14" cy="-18" rx="103.98" ry="18"/>
<text text-anchor="middle" x="4565.14" y="-14.3" font-family="Times,serif" font-size="14.00">dra.func_800F6BEC</text>
</a>
</g>
</g>
<!-- dra.func_800F8F28&#45;&gt;dra.func_800F6BEC -->
<g id="edge19" class="edge">
<title>dra.func_800F8F28&#45;&gt;dra.func_800F6BEC</title>
<path fill="none" stroke="black" d="M3347.17,-186.65C3537.5,-161.63 4036.3,-95.55 4452.14,-36 4461.08,-34.72 4470.42,-33.36 4479.72,-31.98"/>
<polygon fill="black" stroke="black" points="4480.41,-35.42 4489.79,-30.49 4479.39,-28.49 4480.41,-35.42"/>
<text text-anchor="middle" x="4484.79" y="-34.29" font-family="Times,serif" font-size="14.00">1</text>
</g>
<!-- dra.func_800F6DC8 -->
<g id="node21" class="node">
<title>dra.func_800F6DC8</title>
<g id="a_node21"><a xlink:href="dra.func_800F6DC8.svg" xlink:title="dra.func_800F6DC8">
<ellipse fill="red" stroke="black" cx="4790.14" cy="-18" rx="103.18" ry="18"/>
<text text-anchor="middle" x="4790.14" y="-14.3" font-family="Times,serif" font-size="14.00">dra.func_800F6DC8</text>
</a>
</g>
</g>
<!-- dra.func_800F8F28&#45;&gt;dra.func_800F6DC8 -->
<g id="edge20" class="edge">
<title>dra.func_800F8F28&#45;&gt;dra.func_800F6DC8</title>
<path fill="none" stroke="black" d="M3353.71,-188.34C3573.75,-165.84 4177.16,-102.6 4678.14,-36 4687.16,-34.8 4696.58,-33.48 4705.95,-32.12"/>
<polygon fill="black" stroke="black" points="4706.71,-35.55 4716.09,-30.63 4705.69,-28.62 4706.71,-35.55"/>
<text text-anchor="middle" x="4711.09" y="-34.43" font-family="Times,serif" font-size="14.00">1</text>
</g>
<!-- dra.func_800F7F64 -->
<g id="node22" class="node">
<title>dra.func_800F7F64</title>
<g id="a_node22"><a xlink:href="dra.func_800F7F64.svg" xlink:title="dra.func_800F7F64">
<ellipse fill="red" stroke="black" cx="5013.14" cy="-18" rx="101.28" ry="18"/>
<text text-anchor="middle" x="5013.14" y="-14.3" font-family="Times,serif" font-size="14.00">dra.func_800F7F64</text>
</a>
</g>
</g>
<!-- dra.func_800F8F28&#45;&gt;dra.func_800F7F64 -->
<g id="edge21" class="edge">
<title>dra.func_800F8F28&#45;&gt;dra.func_800F7F64</title>
<path fill="none" stroke="black" d="M3358.67,-189.8C3606.26,-169.74 4315.27,-109.8 4902.14,-36 4911.4,-34.84 4921.08,-33.51 4930.69,-32.13"/>
<polygon fill="black" stroke="black" points="4931.28,-35.58 4940.67,-30.67 4930.27,-28.65 4931.28,-35.58"/>
<text text-anchor="middle" x="4935.67" y="-34.47" font-family="Times,serif" font-size="14.00">1</text>
</g>
<!-- dra.func_800F8754 -->
<g id="node23" class="node">
<title>dra.func_800F8754</title>
<g id="a_node23"><a xlink:href="dra.func_800F8754.svg" xlink:title="dra.func_800F8754">
<ellipse fill="green" stroke="black" cx="5233.14" cy="-18" rx="100.98" ry="18"/>
<text text-anchor="middle" x="5233.14" y="-14.3" font-family="Times,serif" font-size="14.00">dra.func_800F8754</text>
</a>
</g>
</g>
<!-- dra.func_800F8F28&#45;&gt;dra.func_800F8754 -->
<g id="edge22" class="edge">
<title>dra.func_800F8F28&#45;&gt;dra.func_800F8754</title>
<path fill="none" stroke="black" d="M3361.99,-191.08C3634.62,-173.4 4449.98,-117.14 5123.14,-36 5132.4,-34.88 5142.07,-33.59 5151.67,-32.21"/>
<polygon fill="black" stroke="black" points="5152.25,-35.67 5161.64,-30.76 5151.24,-28.74 5152.25,-35.67"/>
<text text-anchor="middle" x="5156.64" y="-34.56" font-family="Times,serif" font-size="14.00">1</text>
</g>
<!-- dra.func_800F8858 -->
<g id="node24" class="node">
<title>dra.func_800F8858</title>
<g id="a_node24"><a xlink:href="dra.func_800F8858.svg" xlink:title="dra.func_800F8858">
<ellipse fill="green" stroke="black" cx="5452.14" cy="-18" rx="100.98" ry="18"/>
<text text-anchor="middle" x="5452.14" y="-14.3" font-family="Times,serif" font-size="14.00">dra.func_800F8858</text>
</a>
</g>
</g>
<!-- dra.func_800F8F28&#45;&gt;dra.func_800F8858 -->
<g id="edge23" class="edge">
<title>dra.func_800F8F28&#45;&gt;dra.func_800F8858</title>
<path fill="none" stroke="black" d="M3364.32,-192.19C3660.21,-176.82 4582.96,-124.64 5343.14,-36 5352.22,-34.94 5361.7,-33.69 5371.13,-32.34"/>
<polygon fill="black" stroke="black" points="5371.91,-35.77 5381.3,-30.86 5370.9,-28.84 5371.91,-35.77"/>
<text text-anchor="middle" x="5376.3" y="-34.66" font-family="Times,serif" font-size="14.00">1</text>
</g>
<!-- dra.func_800F892C -->
<g id="node25" class="node">
<title>dra.func_800F892C</title>
<g id="a_node25"><a xlink:href="dra.func_800F892C.svg" xlink:title="dra.func_800F892C">
<ellipse fill="green" stroke="black" cx="5673.14" cy="-18" rx="102.08" ry="18"/>
<text text-anchor="middle" x="5673.14" y="-14.3" font-family="Times,serif" font-size="14.00">dra.func_800F892C</text>
</a>
</g>
</g>
<!-- dra.func_800F8F28&#45;&gt;dra.func_800F892C -->
<g id="edge24" class="edge">
<title>dra.func_800F8F28&#45;&gt;dra.func_800F892C</title>
<path fill="none" stroke="black" d="M3365.66,-193.02C3682.91,-179.45 4714.01,-130.55 5562.14,-36 5571.63,-34.94 5581.55,-33.67 5591.4,-32.3"/>
<polygon fill="black" stroke="black" points="5592.2,-35.72 5601.6,-30.84 5591.21,-28.79 5592.2,-35.72"/>
<text text-anchor="middle" x="5596.6" y="-34.64" font-family="Times,serif" font-size="14.00">1</text>
</g>
<!-- dra.func_800F8990 -->
<g id="node26" class="node">
<title>dra.func_800F8990</title>
<g id="a_node26"><a xlink:href="dra.func_800F8990.svg" xlink:title="dra.func_800F8990">
<ellipse fill="green" stroke="black" cx="5894.14" cy="-18" rx="100.98" ry="18"/>
<text text-anchor="middle" x="5894.14" y="-14.3" font-family="Times,serif" font-size="14.00">dra.func_800F8990</text>
</a>
</g>
</g>
<!-- dra.func_800F8F28&#45;&gt;dra.func_800F8990 -->
<g id="edge25" class="edge">
<title>dra.func_800F8F28&#45;&gt;dra.func_800F8990</title>
<path fill="none" stroke="black" d="M3367.02,-193.85C3705.22,-182.42 4846.73,-138.22 5784.14,-36 5793.62,-34.97 5803.54,-33.7 5813.36,-32.33"/>
<polygon fill="black" stroke="black" points="5814.15,-35.75 5823.55,-30.86 5813.16,-28.82 5814.15,-35.75"/>
<text text-anchor="middle" x="5818.55" y="-34.66" font-family="Times,serif" font-size="14.00">1</text>
</g>
<!-- dra.func_800FBC24 -->
<g id="node27" class="node">
<title>dra.func_800FBC24</title>
<g id="a_node27"><a xlink:href="dra.func_800FBC24.svg" xlink:title="dra.func_800FBC24">
<ellipse fill="red" stroke="black" cx="3268.14" cy="-378" rx="102.88" ry="18"/>
<text text-anchor="middle" x="3268.14" y="-374.3" font-family="Times,serif" font-size="14.00">dra.func_800FBC24</text>
</a>
</g>
</g>
<!-- dra.func_800FBC24&#45;&gt;dra.func_800F8F28 -->
<g id="edge26" class="edge">
<title>dra.func_800FBC24&#45;&gt;dra.func_800F8F28</title>
<path fill="none" stroke="black" d="M3268.14,-359.93C3268.14,-328.97 3268.14,-263.3 3268.14,-226.13"/>
<polygon fill="black" stroke="black" points="3271.64,-226.02 3268.14,-216.02 3264.64,-226.02 3271.64,-226.02"/>
<text text-anchor="middle" x="3263.14" y="-348.73" font-family="Times,serif" font-size="14.00">1</text>
</g>
</g>
</svg>
