<?xml version="1.0" encoding="UTF-8" standalone="no"?>
<!DOCTYPE svg PUBLIC "-//W3C//DTD SVG 1.1//EN"
 "http://www.w3.org/Graphics/SVG/1.1/DTD/svg11.dtd">
<!-- Generated by graphviz version 2.43.0 (0)
 -->
<!-- Title: dra.func_8012C88C Pages: 1 -->
<svg width="1095pt" height="404pt"
 viewBox="0.00 0.00 1095.38 404.00" xmlns="http://www.w3.org/2000/svg" xmlns:xlink="http://www.w3.org/1999/xlink">
<g id="graph0" class="graph" transform="scale(1 1) rotate(0) translate(4 400)">
<title>dra.func_8012C88C</title>
<polygon fill="white" stroke="transparent" points="-4,4 -4,-400 1091.38,-400 1091.38,4 -4,4"/>
<!-- dra.func_8012C88C -->
<g id="node1" class="node">
<title>dra.func_8012C88C</title>
<ellipse fill="green" stroke="black" cx="544.69" cy="-198" rx="102.88" ry="18"/>
<text text-anchor="middle" x="544.69" y="-194.3" font-family="Times,serif" font-size="14.00">dra.func_8012C88C</text>
</g>
<!-- dra.func_800FE3A8 -->
<g id="node2" class="node">
<title>dra.func_800FE3A8</title>
<g id="a_node2"><a xlink:href="dra.func_800FE3A8.svg" xlink:title="dra.func_800FE3A8">
<ellipse fill="green" stroke="black" cx="102.69" cy="-18" rx="102.88" ry="18"/>
<text text-anchor="middle" x="102.69" y="-14.3" font-family="Times,serif" font-size="14.00">dra.func_800FE3A8</text>
</a>
</g>
</g>
<!-- dra.func_8012C88C&#45;&gt;dra.func_800FE3A8 -->
<g id="edge1" class="edge">
<title>dra.func_8012C88C&#45;&gt;dra.func_800FE3A8</title>
<path fill="none" stroke="black" d="M505.47,-181.2C424.62,-148.65 239.64,-74.15 151.34,-38.59"/>
<polygon fill="black" stroke="black" points="152.41,-35.25 141.83,-34.76 149.8,-41.74 152.41,-35.25"/>
<text text-anchor="middle" x="136.83" y="-38.56" font-family="Times,serif" font-size="14.00">1</text>
</g>
<!-- dra.func_800FEEA4 -->
<g id="node3" class="node">
<title>dra.func_800FEEA4</title>
<g id="a_node3"><a xlink:href="dra.func_800FEEA4.svg" xlink:title="dra.func_800FEEA4">
<ellipse fill="red" stroke="black" cx="326.69" cy="-18" rx="103.18" ry="18"/>
<text text-anchor="middle" x="326.69" y="-14.3" font-family="Times,serif" font-size="14.00">dra.func_800FEEA4</text>
</a>
</g>
</g>
<!-- dra.func_8012C88C&#45;&gt;dra.func_800FEEA4 -->
<g id="edge2" class="edge">
<title>dra.func_8012C88C&#45;&gt;dra.func_800FEEA4</title>
<path fill="none" stroke="black" d="M524.18,-180.25C485.07,-148.32 399.74,-78.65 355.14,-42.23"/>
<polygon fill="black" stroke="black" points="357.26,-39.44 347.3,-35.83 352.84,-44.87 357.26,-39.44"/>
<text text-anchor="middle" x="342.3" y="-39.63" font-family="Times,serif" font-size="14.00">1</text>
</g>
<!-- dra.SetPlayerStep -->
<g id="node4" class="node">
<title>dra.SetPlayerStep</title>
<g id="a_node4"><a xlink:href="dra.SetPlayerStep.svg" xlink:title="dra.SetPlayerStep">
<ellipse fill="green" stroke="black" cx="544.69" cy="-18" rx="96.38" ry="18"/>
<text text-anchor="middle" x="544.69" y="-14.3" font-family="Times,serif" font-size="14.00">dra.SetPlayerStep</text>
</a>
</g>
</g>
<!-- dra.func_8012C88C&#45;&gt;dra.SetPlayerStep -->
<g id="edge3" class="edge">
<title>dra.func_8012C88C&#45;&gt;dra.SetPlayerStep</title>
<path fill="none" stroke="black" d="M544.69,-179.93C544.69,-148.97 544.69,-83.3 544.69,-46.13"/>
<polygon fill="black" stroke="black" points="548.19,-46.02 544.69,-36.02 541.19,-46.02 548.19,-46.02"/>
<text text-anchor="middle" x="539.69" y="-39.82" font-family="Times,serif" font-size="14.00">1</text>
</g>
<!-- dra.func_8010DA48 -->
<g id="node5" class="node">
<title>dra.func_8010DA48</title>
<g id="a_node5"><a xlink:href="dra.func_8010DA48.svg" xlink:title="dra.func_8010DA48">
<ellipse fill="green" stroke="black" cx="761.69" cy="-18" rx="102.88" ry="18"/>
<text text-anchor="middle" x="761.69" y="-14.3" font-family="Times,serif" font-size="14.00">dra.func_8010DA48</text>
</a>
</g>
</g>
<!-- dra.func_8012C88C&#45;&gt;dra.func_8010DA48 -->
<g id="edge4" class="edge">
<title>dra.func_8012C88C&#45;&gt;dra.func_8010DA48</title>
<path fill="none" stroke="black" d="M565.11,-180.25C604.04,-148.32 688.98,-78.65 733.37,-42.23"/>
<polygon fill="black" stroke="black" points="735.66,-44.88 741.17,-35.83 731.22,-39.47 735.66,-44.88"/>
<text text-anchor="middle" x="736.17" y="-39.63" font-family="Times,serif" font-size="14.00">1</text>
</g>
<!-- dra.func_8011AAFC -->
<g id="node6" class="node">
<title>dra.func_8011AAFC</title>
<g id="a_node6"><a xlink:href="dra.func_8011AAFC.svg" xlink:title="dra.func_8011AAFC">
<ellipse fill="green" stroke="black" cx="984.69" cy="-18" rx="102.88" ry="18"/>
<text text-anchor="middle" x="984.69" y="-14.3" font-family="Times,serif" font-size="14.00">dra.func_8011AAFC</text>
</a>
</g>
</g>
<!-- dra.func_8012C88C&#45;&gt;dra.func_8011AAFC -->
<g id="edge5" class="edge">
<title>dra.func_8012C88C&#45;&gt;dra.func_8011AAFC</title>
<path fill="none" stroke="black" d="M583.74,-181.2C664.22,-148.65 848.36,-74.15 936.26,-38.59"/>
<polygon fill="black" stroke="black" points="937.77,-41.76 945.73,-34.76 935.15,-35.27 937.77,-41.76"/>
<text text-anchor="middle" x="940.73" y="-38.56" font-family="Times,serif" font-size="14.00">1</text>
</g>
<!-- dra.func_8012EF2C -->
<g id="node7" class="node">
<title>dra.func_8012EF2C</title>
<g id="a_node7"><a xlink:href="dra.func_8012EF2C.svg" xlink:title="dra.func_8012EF2C">
<ellipse fill="red" stroke="black" cx="433.69" cy="-378" rx="102.88" ry="18"/>
<text text-anchor="middle" x="433.69" y="-374.3" font-family="Times,serif" font-size="14.00">dra.func_8012EF2C</text>
</a>
</g>
</g>
<!-- dra.func_8012EF2C&#45;&gt;dra.func_8012C88C -->
<g id="edge6" class="edge">
<title>dra.func_8012EF2C&#45;&gt;dra.func_8012C88C</title>
<path fill="none" stroke="black" d="M444.33,-359.93C463.89,-328.57 505.65,-261.6 528.66,-224.71"/>
<polygon fill="black" stroke="black" points="531.76,-226.35 534.08,-216.02 525.82,-222.65 531.76,-226.35"/>
<text text-anchor="middle" x="439.33" y="-348.73" font-family="Times,serif" font-size="14.00">1</text>
</g>
<!-- dra.func_8012D28C -->
<g id="node8" class="node">
<title>dra.func_8012D28C</title>
<g id="a_node8"><a xlink:href="dra.func_8012D28C.svg" xlink:title="dra.func_8012D28C">
<ellipse fill="red" stroke="black" cx="656.69" cy="-378" rx="102.88" ry="18"/>
<text text-anchor="middle" x="656.69" y="-374.3" font-family="Times,serif" font-size="14.00">dra.func_8012D28C</text>
</a>
</g>
</g>
<!-- dra.func_8012D28C&#45;&gt;dra.func_8012C88C -->
<g id="edge7" class="edge">
<title>dra.func_8012D28C&#45;&gt;dra.func_8012C88C</title>
<path fill="none" stroke="black" d="M645.95,-359.93C626.22,-328.57 584.08,-261.6 560.87,-224.71"/>
<polygon fill="black" stroke="black" points="563.69,-222.62 555.4,-216.02 557.76,-226.34 563.69,-222.62"/>
<text text-anchor="middle" x="640.95" y="-348.73" font-family="Times,serif" font-size="14.00">1</text>
</g>
</g>
</svg>
