<?xml version="1.0" encoding="UTF-8" standalone="no"?>
<!DOCTYPE svg PUBLIC "-//W3C//DTD SVG 1.1//EN"
 "http://www.w3.org/Graphics/SVG/1.1/DTD/svg11.dtd">
<!-- Generated by graphviz version 2.43.0 (0)
 -->
<!-- Title: dra.func_80123B40 Pages: 1 -->
<svg width="672pt" height="224pt"
 viewBox="0.00 0.00 671.98 224.00" xmlns="http://www.w3.org/2000/svg" xmlns:xlink="http://www.w3.org/1999/xlink">
<g id="graph0" class="graph" transform="scale(1 1) rotate(0) translate(4 220)">
<title>dra.func_80123B40</title>
<polygon fill="white" stroke="transparent" points="-4,4 -4,-220 667.98,-220 667.98,4 -4,4"/>
<!-- dra.func_80123B40 -->
<g id="node1" class="node">
<title>dra.func_80123B40</title>
<ellipse fill="red" stroke="black" cx="376.09" cy="-198" rx="101.28" ry="18"/>
<text text-anchor="middle" x="376.09" y="-194.3" font-family="Times,serif" font-size="14.00">dra.func_80123B40</text>
</g>
<!-- dra.EntityPlayerBlinkWhite -->
<g id="node2" class="node">
<title>dra.EntityPlayerBlinkWhite</title>
<g id="a_node2"><a xlink:href="dra.EntityPlayerBlinkWhite.svg" xlink:title="dra.EntityPlayerBlinkWhite">
<ellipse fill="red" stroke="black" cx="139.09" cy="-18" rx="139.18" ry="18"/>
<text text-anchor="middle" x="139.09" y="-14.3" font-family="Times,serif" font-size="14.00">dra.EntityPlayerBlinkWhite</text>
</a>
</g>
</g>
<!-- dra.func_80123B40&#45;&gt;dra.EntityPlayerBlinkWhite -->
<g id="edge1" class="edge">
<title>dra.func_80123B40&#45;&gt;dra.EntityPlayerBlinkWhite</title>
<path fill="none" stroke="black" d="M353.79,-180.25C311.18,-148.25 218.12,-78.36 169.71,-42"/>
<polygon fill="black" stroke="black" points="171.6,-39.04 161.5,-35.83 167.39,-44.64 171.6,-39.04"/>
<text text-anchor="middle" x="156.5" y="-39.63" font-family="Times,serif" font-size="14.00">2</text>
</g>
<!-- dra.SetSpeedX -->
<g id="node3" class="node">
<title>dra.SetSpeedX</title>
<g id="a_node3"><a xlink:href="dra.SetSpeedX.svg" xlink:title="dra.SetSpeedX">
<ellipse fill="green" stroke="black" cx="376.09" cy="-18" rx="79.89" ry="18"/>
<text text-anchor="middle" x="376.09" y="-14.3" font-family="Times,serif" font-size="14.00">dra.SetSpeedX</text>
</a>
</g>
</g>
<!-- dra.func_80123B40&#45;&gt;dra.SetSpeedX -->
<g id="edge2" class="edge">
<title>dra.func_80123B40&#45;&gt;dra.SetSpeedX</title>
<path fill="none" stroke="black" d="M376.09,-179.93C376.09,-148.97 376.09,-83.3 376.09,-46.13"/>
<polygon fill="black" stroke="black" points="379.59,-46.02 376.09,-36.02 372.59,-46.02 379.59,-46.02"/>
<text text-anchor="middle" x="371.09" y="-39.82" font-family="Times,serif" font-size="14.00">1</text>
</g>
<!-- dra.DestroyEntity -->
<g id="node4" class="node">
<title>dra.DestroyEntity</title>
<g id="a_node4"><a xlink:href="dra.DestroyEntity.svg" xlink:title="dra.DestroyEntity">
<ellipse fill="green" stroke="black" cx="569.09" cy="-18" rx="94.78" ry="18"/>
<text text-anchor="middle" x="569.09" y="-14.3" font-family="Times,serif" font-size="14.00">dra.DestroyEntity</text>
</a>
</g>
</g>
<!-- dra.func_80123B40&#45;&gt;dra.DestroyEntity -->
<g id="edge3" class="edge">
<title>dra.func_80123B40&#45;&gt;dra.DestroyEntity</title>
<path fill="none" stroke="black" d="M394.24,-180.25C428.73,-148.45 503.79,-79.22 543.41,-42.68"/>
<polygon fill="black" stroke="black" points="545.86,-45.18 550.84,-35.83 541.11,-40.04 545.86,-45.18"/>
<text text-anchor="middle" x="545.84" y="-39.63" font-family="Times,serif" font-size="14.00">1</text>
</g>
</g>
</svg>
