<?xml version="1.0" encoding="UTF-8" standalone="no"?>
<!DOCTYPE svg PUBLIC "-//W3C//DTD SVG 1.1//EN"
 "http://www.w3.org/Graphics/SVG/1.1/DTD/svg11.dtd">
<!-- Generated by graphviz version 2.43.0 (0)
 -->
<!-- Title: dra.SetStageDisplayBuffer Pages: 1 -->
<svg width="1309pt" height="404pt"
 viewBox="0.00 0.00 1309.23 404.00" xmlns="http://www.w3.org/2000/svg" xmlns:xlink="http://www.w3.org/1999/xlink">
<g id="graph0" class="graph" transform="scale(1 1) rotate(0) translate(4 400)">
<title>dra.SetStageDisplayBuffer</title>
<polygon fill="white" stroke="transparent" points="-4,4 -4,-400 1305.23,-400 1305.23,4 -4,4"/>
<!-- dra.SetStageDisplayBuffer -->
<g id="node1" class="node">
<title>dra.SetStageDisplayBuffer</title>
<ellipse fill="green" stroke="black" cx="652.54" cy="-198" rx="135.38" ry="18"/>
<text text-anchor="middle" x="652.54" y="-194.3" font-family="Times,serif" font-size="14.00">dra.SetStageDisplayBuffer</text>
</g>
<!-- SetDefDispEnv -->
<g id="node2" class="node">
<title>SetDefDispEnv</title>
<g id="a_node2"><a xlink:href="SetDefDispEnv.svg" xlink:title="SetDefDispEnv">
<ellipse fill="lightblue" stroke="black" cx="468.54" cy="-18" rx="81.49" ry="18"/>
<text text-anchor="middle" x="468.54" y="-14.3" font-family="Times,serif" font-size="14.00">SetDefDispEnv</text>
</a>
</g>
</g>
<!-- dra.SetStageDisplayBuffer&#45;&gt;SetDefDispEnv -->
<g id="edge1" class="edge">
<title>dra.SetStageDisplayBuffer&#45;&gt;SetDefDispEnv</title>
<path fill="none" stroke="black" d="M634.9,-179.93C601.98,-148.09 531.13,-79.54 493.39,-43.04"/>
<polygon fill="black" stroke="black" points="495.48,-40.19 485.86,-35.76 490.62,-45.22 495.48,-40.19"/>
<text text-anchor="middle" x="480.86" y="-39.56" font-family="Times,serif" font-size="14.00">2</text>
</g>
<!-- SetDefDrawEnv -->
<g id="node3" class="node">
<title>SetDefDrawEnv</title>
<g id="a_node3"><a xlink:href="SetDefDrawEnv.svg" xlink:title="SetDefDrawEnv">
<ellipse fill="lightblue" stroke="black" cx="652.54" cy="-18" rx="85.29" ry="18"/>
<text text-anchor="middle" x="652.54" y="-14.3" font-family="Times,serif" font-size="14.00">SetDefDrawEnv</text>
</a>
</g>
</g>
<!-- dra.SetStageDisplayBuffer&#45;&gt;SetDefDrawEnv -->
<g id="edge2" class="edge">
<title>dra.SetStageDisplayBuffer&#45;&gt;SetDefDrawEnv</title>
<path fill="none" stroke="black" d="M652.54,-179.93C652.54,-148.97 652.54,-83.3 652.54,-46.13"/>
<polygon fill="black" stroke="black" points="656.04,-46.02 652.54,-36.02 649.04,-46.02 656.04,-46.02"/>
<text text-anchor="middle" x="647.54" y="-39.82" font-family="Times,serif" font-size="14.00">2</text>
</g>
<!-- dra.func_800E34DC -->
<g id="node4" class="node">
<title>dra.func_800E34DC</title>
<g id="a_node4"><a xlink:href="dra.func_800E34DC.svg" xlink:title="dra.func_800E34DC">
<ellipse fill="green" stroke="black" cx="859.54" cy="-18" rx="103.98" ry="18"/>
<text text-anchor="middle" x="859.54" y="-14.3" font-family="Times,serif" font-size="14.00">dra.func_800E34DC</text>
</a>
</g>
</g>
<!-- dra.SetStageDisplayBuffer&#45;&gt;dra.func_800E34DC -->
<g id="edge3" class="edge">
<title>dra.SetStageDisplayBuffer&#45;&gt;dra.func_800E34DC</title>
<path fill="none" stroke="black" d="M672.39,-179.93C709.66,-147.89 790.14,-78.68 832.39,-42.35"/>
<polygon fill="black" stroke="black" points="834.76,-44.93 840.06,-35.76 830.19,-39.62 834.76,-44.93"/>
<text text-anchor="middle" x="835.06" y="-39.56" font-family="Times,serif" font-size="14.00">1</text>
</g>
<!-- dra.HandleEnding -->
<g id="node5" class="node">
<title>dra.HandleEnding</title>
<g id="a_node5"><a xlink:href="dra.HandleEnding.svg" xlink:title="dra.HandleEnding">
<ellipse fill="green" stroke="black" cx="95.54" cy="-378" rx="95.58" ry="18"/>
<text text-anchor="middle" x="95.54" y="-374.3" font-family="Times,serif" font-size="14.00">dra.HandleEnding</text>
</a>
</g>
</g>
<!-- dra.HandleEnding&#45;&gt;dra.SetStageDisplayBuffer -->
<g id="edge4" class="edge">
<title>dra.HandleEnding&#45;&gt;dra.SetStageDisplayBuffer</title>
<path fill="none" stroke="black" d="M142.07,-362.13C242.96,-329.89 481.7,-253.59 593.22,-217.96"/>
<polygon fill="black" stroke="black" points="594.51,-221.22 602.97,-214.84 592.37,-214.55 594.51,-221.22"/>
<text text-anchor="middle" x="137.07" y="-350.93" font-family="Times,serif" font-size="14.00">1</text>
</g>
<!-- dra.HandleNowLoading -->
<g id="node6" class="node">
<title>dra.HandleNowLoading</title>
<g id="a_node6"><a xlink:href="dra.HandleNowLoading.svg" xlink:title="dra.HandleNowLoading">
<ellipse fill="green" stroke="black" cx="329.54" cy="-378" rx="120.48" ry="18"/>
<text text-anchor="middle" x="329.54" y="-374.3" font-family="Times,serif" font-size="14.00">dra.HandleNowLoading</text>
</a>
</g>
</g>
<!-- dra.HandleNowLoading&#45;&gt;dra.SetStageDisplayBuffer -->
<g id="edge5" class="edge">
<title>dra.HandleNowLoading&#45;&gt;dra.SetStageDisplayBuffer</title>
<path fill="none" stroke="black" d="M359.64,-360.41C418.3,-328.09 547.9,-256.67 613.24,-220.66"/>
<polygon fill="black" stroke="black" points="615.33,-223.5 622.4,-215.61 611.96,-217.37 615.33,-223.5"/>
<text text-anchor="middle" x="354.64" y="-349.21" font-family="Times,serif" font-size="14.00">1</text>
</g>
<!-- dra.HandleTitle -->
<g id="node7" class="node">
<title>dra.HandleTitle</title>
<g id="a_node7"><a xlink:href="dra.HandleTitle.svg" xlink:title="dra.HandleTitle">
<ellipse fill="green" stroke="black" cx="550.54" cy="-378" rx="83.39" ry="18"/>
<text text-anchor="middle" x="550.54" y="-374.3" font-family="Times,serif" font-size="14.00">dra.HandleTitle</text>
</a>
</g>
</g>
<!-- dra.HandleTitle&#45;&gt;dra.SetStageDisplayBuffer -->
<g id="edge6" class="edge">
<title>dra.HandleTitle&#45;&gt;dra.SetStageDisplayBuffer</title>
<path fill="none" stroke="black" d="M560.32,-359.93C578.29,-328.57 616.67,-261.6 637.81,-224.71"/>
<polygon fill="black" stroke="black" points="640.86,-226.43 642.79,-216.02 634.78,-222.95 640.86,-226.43"/>
<text text-anchor="middle" x="555.32" y="-348.73" font-family="Times,serif" font-size="14.00">2</text>
</g>
<!-- dra.entrypoint_sotn -->
<g id="node8" class="node">
<title>dra.entrypoint_sotn</title>
<g id="a_node8"><a xlink:href="dra.entrypoint_sotn.svg" xlink:title="dra.entrypoint_sotn">
<ellipse fill="green" stroke="black" cx="754.54" cy="-378" rx="102.88" ry="18"/>
<text text-anchor="middle" x="754.54" y="-374.3" font-family="Times,serif" font-size="14.00">dra.entrypoint_sotn</text>
</a>
</g>
</g>
<!-- dra.entrypoint_sotn&#45;&gt;dra.SetStageDisplayBuffer -->
<g id="edge7" class="edge">
<title>dra.entrypoint_sotn&#45;&gt;dra.SetStageDisplayBuffer</title>
<path fill="none" stroke="black" d="M744.76,-359.93C726.79,-328.57 688.41,-261.6 667.27,-224.71"/>
<polygon fill="black" stroke="black" points="670.3,-222.95 662.29,-216.02 664.23,-226.43 670.3,-222.95"/>
<text text-anchor="middle" x="739.76" y="-348.73" font-family="Times,serif" font-size="14.00">1</text>
</g>
<!-- dra.func_800E4970 -->
<g id="node9" class="node">
<title>dra.func_800E4970</title>
<g id="a_node9"><a xlink:href="dra.func_800E4970.svg" xlink:title="dra.func_800E4970">
<ellipse fill="green" stroke="black" cx="976.54" cy="-378" rx="101.28" ry="18"/>
<text text-anchor="middle" x="976.54" y="-374.3" font-family="Times,serif" font-size="14.00">dra.func_800E4970</text>
</a>
</g>
</g>
<!-- dra.func_800E4970&#45;&gt;dra.SetStageDisplayBuffer -->
<g id="edge8" class="edge">
<title>dra.func_800E4970&#45;&gt;dra.SetStageDisplayBuffer</title>
<path fill="none" stroke="black" d="M946.93,-360.73C888.29,-328.52 757.42,-256.62 691.73,-220.53"/>
<polygon fill="black" stroke="black" points="693.36,-217.43 682.91,-215.68 689.99,-223.57 693.36,-217.43"/>
<text text-anchor="middle" x="941.93" y="-349.53" font-family="Times,serif" font-size="14.00">1</text>
</g>
<!-- dra.func_800FBC24 -->
<g id="node10" class="node">
<title>dra.func_800FBC24</title>
<g id="a_node10"><a xlink:href="dra.func_800FBC24.svg" xlink:title="dra.func_800FBC24">
<ellipse fill="red" stroke="black" cx="1198.54" cy="-378" rx="102.88" ry="18"/>
<text text-anchor="middle" x="1198.54" y="-374.3" font-family="Times,serif" font-size="14.00">dra.func_800FBC24</text>
</a>
</g>
</g>
<!-- dra.func_800FBC24&#45;&gt;dra.SetStageDisplayBuffer -->
<g id="edge9" class="edge">
<title>dra.func_800FBC24&#45;&gt;dra.SetStageDisplayBuffer</title>
<path fill="none" stroke="black" d="M1151.99,-361.82C1052.61,-329.42 819.88,-253.55 710.85,-218.01"/>
<polygon fill="black" stroke="black" points="711.91,-214.67 701.32,-214.9 709.74,-221.33 711.91,-214.67"/>
<text text-anchor="middle" x="1146.99" y="-350.62" font-family="Times,serif" font-size="14.00">2</text>
</g>
</g>
</svg>
