<?xml version="1.0" encoding="UTF-8" standalone="no"?>
<!DOCTYPE svg PUBLIC "-//W3C//DTD SVG 1.1//EN"
 "http://www.w3.org/Graphics/SVG/1.1/DTD/svg11.dtd">
<!-- Generated by graphviz version 2.43.0 (0)
 -->
<!-- Title: dra.func_80133810 Pages: 1 -->
<svg width="881pt" height="404pt"
 viewBox="0.00 0.00 881.09 404.00" xmlns="http://www.w3.org/2000/svg" xmlns:xlink="http://www.w3.org/1999/xlink">
<g id="graph0" class="graph" transform="scale(1 1) rotate(0) translate(4 400)">
<title>dra.func_80133810</title>
<polygon fill="white" stroke="transparent" points="-4,4 -4,-400 877.09,-400 877.09,4 -4,4"/>
<!-- dra.func_80133810 -->
<g id="node1" class="node">
<title>dra.func_80133810</title>
<ellipse fill="red" stroke="black" cx="351.69" cy="-198" rx="100.98" ry="18"/>
<text text-anchor="middle" x="351.69" y="-194.3" font-family="Times,serif" font-size="14.00">dra.func_80133810</text>
</g>
<!-- SsSeqOpen -->
<g id="node2" class="node">
<title>SsSeqOpen</title>
<g id="a_node2"><a xlink:href="SsSeqOpen.svg" xlink:title="SsSeqOpen">
<ellipse fill="lightblue" stroke="black" cx="63.69" cy="-18" rx="63.89" ry="18"/>
<text text-anchor="middle" x="63.69" y="-14.3" font-family="Times,serif" font-size="14.00">SsSeqOpen</text>
</a>
</g>
</g>
<!-- dra.func_80133810&#45;&gt;SsSeqOpen -->
<g id="edge1" class="edge">
<title>dra.func_80133810&#45;&gt;SsSeqOpen</title>
<path fill="none" stroke="black" d="M325.12,-180.57C272.64,-148.14 155.79,-75.92 97.76,-40.05"/>
<polygon fill="black" stroke="black" points="99.32,-36.9 88.97,-34.62 95.63,-42.86 99.32,-36.9"/>
<text text-anchor="middle" x="83.97" y="-38.42" font-family="Times,serif" font-size="14.00">1</text>
</g>
<!-- SsSeqPlay -->
<g id="node3" class="node">
<title>SsSeqPlay</title>
<g id="a_node3"><a xlink:href="SsSeqPlay.svg" xlink:title="SsSeqPlay">
<ellipse fill="lightblue" stroke="black" cx="204.69" cy="-18" rx="59.59" ry="18"/>
<text text-anchor="middle" x="204.69" y="-14.3" font-family="Times,serif" font-size="14.00">SsSeqPlay</text>
</a>
</g>
</g>
<!-- dra.func_80133810&#45;&gt;SsSeqPlay -->
<g id="edge2" class="edge">
<title>dra.func_80133810&#45;&gt;SsSeqPlay</title>
<path fill="none" stroke="black" d="M337.6,-179.93C311.41,-148.22 255.17,-80.12 224.92,-43.5"/>
<polygon fill="black" stroke="black" points="227.6,-41.24 218.53,-35.76 222.2,-45.7 227.6,-41.24"/>
<text text-anchor="middle" x="213.53" y="-39.56" font-family="Times,serif" font-size="14.00">1</text>
</g>
<!-- SsSeqSetVol -->
<g id="node4" class="node">
<title>SsSeqSetVol</title>
<g id="a_node4"><a xlink:href="SsSeqSetVol.svg" xlink:title="SsSeqSetVol">
<ellipse fill="lightblue" stroke="black" cx="351.69" cy="-18" rx="69.59" ry="18"/>
<text text-anchor="middle" x="351.69" y="-14.3" font-family="Times,serif" font-size="14.00">SsSeqSetVol</text>
</a>
</g>
</g>
<!-- dra.func_80133810&#45;&gt;SsSeqSetVol -->
<g id="edge3" class="edge">
<title>dra.func_80133810&#45;&gt;SsSeqSetVol</title>
<path fill="none" stroke="black" d="M351.69,-179.93C351.69,-148.97 351.69,-83.3 351.69,-46.13"/>
<polygon fill="black" stroke="black" points="355.19,-46.02 351.69,-36.02 348.19,-46.02 355.19,-46.02"/>
<text text-anchor="middle" x="346.69" y="-39.82" font-family="Times,serif" font-size="14.00">1</text>
</g>
<!-- dra.SetReverbDepth -->
<g id="node5" class="node">
<title>dra.SetReverbDepth</title>
<g id="a_node5"><a xlink:href="dra.SetReverbDepth.svg" xlink:title="dra.SetReverbDepth">
<ellipse fill="green" stroke="black" cx="545.69" cy="-18" rx="106.68" ry="18"/>
<text text-anchor="middle" x="545.69" y="-14.3" font-family="Times,serif" font-size="14.00">dra.SetReverbDepth</text>
</a>
</g>
</g>
<!-- dra.func_80133810&#45;&gt;dra.SetReverbDepth -->
<g id="edge4" class="edge">
<title>dra.func_80133810&#45;&gt;dra.SetReverbDepth</title>
<path fill="none" stroke="black" d="M369.95,-180.25C404.61,-148.45 480.06,-79.22 519.88,-42.68"/>
<polygon fill="black" stroke="black" points="522.35,-45.17 527.35,-35.83 517.62,-40.01 522.35,-45.17"/>
<text text-anchor="middle" x="522.35" y="-39.63" font-family="Times,serif" font-size="14.00">1</text>
</g>
<!-- dra.func_801337B4 -->
<g id="node6" class="node">
<title>dra.func_801337B4</title>
<g id="a_node6"><a xlink:href="dra.func_801337B4.svg" xlink:title="dra.func_801337B4">
<ellipse fill="green" stroke="black" cx="771.69" cy="-18" rx="101.28" ry="18"/>
<text text-anchor="middle" x="771.69" y="-14.3" font-family="Times,serif" font-size="14.00">dra.func_801337B4</text>
</a>
</g>
</g>
<!-- dra.func_80133810&#45;&gt;dra.func_801337B4 -->
<g id="edge5" class="edge">
<title>dra.func_80133810&#45;&gt;dra.func_801337B4</title>
<path fill="none" stroke="black" d="M388.97,-181.2C465.71,-148.68 641.2,-74.3 725.21,-38.7"/>
<polygon fill="black" stroke="black" points="726.66,-41.89 734.51,-34.76 723.93,-35.44 726.66,-41.89"/>
<text text-anchor="middle" x="729.51" y="-38.56" font-family="Times,serif" font-size="14.00">1</text>
</g>
<!-- dra.func_80134F50 -->
<g id="node7" class="node">
<title>dra.func_80134F50</title>
<g id="a_node7"><a xlink:href="dra.func_80134F50.svg" xlink:title="dra.func_80134F50">
<ellipse fill="red" stroke="black" cx="351.69" cy="-378" rx="100.98" ry="18"/>
<text text-anchor="middle" x="351.69" y="-374.3" font-family="Times,serif" font-size="14.00">dra.func_80134F50</text>
</a>
</g>
</g>
<!-- dra.func_80134F50&#45;&gt;dra.func_80133810 -->
<g id="edge6" class="edge">
<title>dra.func_80134F50&#45;&gt;dra.func_80133810</title>
<path fill="none" stroke="black" d="M351.69,-359.93C351.69,-328.97 351.69,-263.3 351.69,-226.13"/>
<polygon fill="black" stroke="black" points="355.19,-226.02 351.69,-216.02 348.19,-226.02 355.19,-226.02"/>
<text text-anchor="middle" x="346.69" y="-348.73" font-family="Times,serif" font-size="14.00">1</text>
</g>
</g>
</svg>
