<?xml version="1.0" encoding="UTF-8" standalone="no"?>
<!DOCTYPE svg PUBLIC "-//W3C//DTD SVG 1.1//EN"
 "http://www.w3.org/Graphics/SVG/1.1/DTD/svg11.dtd">
<!-- Generated by graphviz version 2.43.0 (0)
 -->
<!-- Title: dra.EntitySubwpnCrashCross Pages: 1 -->
<svg width="1369pt" height="224pt"
 viewBox="0.00 0.00 1368.58 224.00" xmlns="http://www.w3.org/2000/svg" xmlns:xlink="http://www.w3.org/1999/xlink">
<g id="graph0" class="graph" transform="scale(1 1) rotate(0) translate(4 220)">
<title>dra.EntitySubwpnCrashCross</title>
<polygon fill="white" stroke="transparent" points="-4,4 -4,-220 1364.58,-220 1364.58,4 -4,4"/>
<!-- dra.EntitySubwpnCrashCross -->
<g id="node1" class="node">
<title>dra.EntitySubwpnCrashCross</title>
<ellipse fill="red" stroke="black" cx="720.69" cy="-198" rx="149.47" ry="18"/>
<text text-anchor="middle" x="720.69" y="-194.3" font-family="Times,serif" font-size="14.00">dra.EntitySubwpnCrashCross</text>
</g>
<!-- dra.func_8010DFF0 -->
<g id="node2" class="node">
<title>dra.func_8010DFF0</title>
<g id="a_node2"><a xlink:href="dra.func_8010DFF0.svg" xlink:title="dra.func_8010DFF0">
<ellipse fill="green" stroke="black" cx="102.69" cy="-18" rx="102.88" ry="18"/>
<text text-anchor="middle" x="102.69" y="-14.3" font-family="Times,serif" font-size="14.00">dra.func_8010DFF0</text>
</a>
</g>
</g>
<!-- dra.EntitySubwpnCrashCross&#45;&gt;dra.func_8010DFF0 -->
<g id="edge1" class="edge">
<title>dra.EntitySubwpnCrashCross&#45;&gt;dra.func_8010DFF0</title>
<path fill="none" stroke="black" d="M665.85,-181.2C550.63,-148.02 284.14,-71.26 163.72,-36.58"/>
<polygon fill="black" stroke="black" points="164.5,-33.16 153.92,-33.75 162.56,-39.89 164.5,-33.16"/>
<text text-anchor="middle" x="148.92" y="-37.55" font-family="Times,serif" font-size="14.00">1</text>
</g>
<!-- dra.AllocPrimitives -->
<g id="node3" class="node">
<title>dra.AllocPrimitives</title>
<g id="a_node3"><a xlink:href="dra.AllocPrimitives.svg" xlink:title="dra.AllocPrimitives">
<ellipse fill="green" stroke="black" cx="322.69" cy="-18" rx="99.38" ry="18"/>
<text text-anchor="middle" x="322.69" y="-14.3" font-family="Times,serif" font-size="14.00">dra.AllocPrimitives</text>
</a>
</g>
</g>
<!-- dra.EntitySubwpnCrashCross&#45;&gt;dra.AllocPrimitives -->
<g id="edge2" class="edge">
<title>dra.EntitySubwpnCrashCross&#45;&gt;dra.AllocPrimitives</title>
<path fill="none" stroke="black" d="M683.61,-180.41C610.17,-147.57 446.53,-74.39 367.33,-38.97"/>
<polygon fill="black" stroke="black" points="368.66,-35.73 358.11,-34.84 365.81,-42.12 368.66,-35.73"/>
<text text-anchor="middle" x="353.11" y="-38.64" font-family="Times,serif" font-size="14.00">1</text>
</g>
<!-- dra.func_8011A290 -->
<g id="node4" class="node">
<title>dra.func_8011A290</title>
<g id="a_node4"><a xlink:href="dra.func_8011A290.svg" xlink:title="dra.func_8011A290">
<ellipse fill="green" stroke="black" cx="540.69" cy="-18" rx="100.98" ry="18"/>
<text text-anchor="middle" x="540.69" y="-14.3" font-family="Times,serif" font-size="14.00">dra.func_8011A290</text>
</a>
</g>
</g>
<!-- dra.EntitySubwpnCrashCross&#45;&gt;dra.func_8011A290 -->
<g id="edge3" class="edge">
<title>dra.EntitySubwpnCrashCross&#45;&gt;dra.func_8011A290</title>
<path fill="none" stroke="black" d="M703.43,-179.93C671.23,-148.09 601.92,-79.54 565,-43.04"/>
<polygon fill="black" stroke="black" points="567.21,-40.3 557.63,-35.76 562.28,-45.28 567.21,-40.3"/>
<text text-anchor="middle" x="552.63" y="-39.56" font-family="Times,serif" font-size="14.00">1</text>
</g>
<!-- LoadImage -->
<g id="node5" class="node">
<title>LoadImage</title>
<g id="a_node5"><a xlink:href="LoadImage.svg" xlink:title="LoadImage">
<ellipse fill="lightblue" stroke="black" cx="720.69" cy="-18" rx="61.99" ry="18"/>
<text text-anchor="middle" x="720.69" y="-14.3" font-family="Times,serif" font-size="14.00">LoadImage</text>
</a>
</g>
</g>
<!-- dra.EntitySubwpnCrashCross&#45;&gt;LoadImage -->
<g id="edge4" class="edge">
<title>dra.EntitySubwpnCrashCross&#45;&gt;LoadImage</title>
<path fill="none" stroke="black" d="M720.69,-179.93C720.69,-148.97 720.69,-83.3 720.69,-46.13"/>
<polygon fill="black" stroke="black" points="724.19,-46.02 720.69,-36.02 717.19,-46.02 724.19,-46.02"/>
<text text-anchor="middle" x="715.69" y="-39.82" font-family="Times,serif" font-size="14.00">1</text>
</g>
<!-- dra.PlaySfx -->
<g id="node6" class="node">
<title>dra.PlaySfx</title>
<g id="a_node6"><a xlink:href="dra.PlaySfx.svg" xlink:title="dra.PlaySfx">
<ellipse fill="green" stroke="black" cx="864.69" cy="-18" rx="64.19" ry="18"/>
<text text-anchor="middle" x="864.69" y="-14.3" font-family="Times,serif" font-size="14.00">dra.PlaySfx</text>
</a>
</g>
</g>
<!-- dra.EntitySubwpnCrashCross&#45;&gt;dra.PlaySfx -->
<g id="edge5" class="edge">
<title>dra.EntitySubwpnCrashCross&#45;&gt;dra.PlaySfx</title>
<path fill="none" stroke="black" d="M734.5,-179.93C760.04,-148.35 814.79,-80.69 844.5,-43.96"/>
<polygon fill="black" stroke="black" points="847.57,-45.73 851.14,-35.76 842.13,-41.33 847.57,-45.73"/>
<text text-anchor="middle" x="846.14" y="-39.56" font-family="Times,serif" font-size="14.00">3</text>
</g>
<!-- dra.func_8011AAFC -->
<g id="node7" class="node">
<title>dra.func_8011AAFC</title>
<g id="a_node7"><a xlink:href="dra.func_8011AAFC.svg" xlink:title="dra.func_8011AAFC">
<ellipse fill="green" stroke="black" cx="1049.69" cy="-18" rx="102.88" ry="18"/>
<text text-anchor="middle" x="1049.69" y="-14.3" font-family="Times,serif" font-size="14.00">dra.func_8011AAFC</text>
</a>
</g>
</g>
<!-- dra.EntitySubwpnCrashCross&#45;&gt;dra.func_8011AAFC -->
<g id="edge6" class="edge">
<title>dra.EntitySubwpnCrashCross&#45;&gt;dra.func_8011AAFC</title>
<path fill="none" stroke="black" d="M751.64,-180.25C811.84,-147.69 944.55,-75.89 1010.66,-40.11"/>
<polygon fill="black" stroke="black" points="1012.41,-43.15 1019.54,-35.31 1009.08,-36.99 1012.41,-43.15"/>
<text text-anchor="middle" x="1014.54" y="-39.11" font-family="Times,serif" font-size="14.00">2</text>
</g>
<!-- dra.DestroyEntity -->
<g id="node8" class="node">
<title>dra.DestroyEntity</title>
<g id="a_node8"><a xlink:href="dra.DestroyEntity.svg" xlink:title="dra.DestroyEntity">
<ellipse fill="green" stroke="black" cx="1265.69" cy="-18" rx="94.78" ry="18"/>
<text text-anchor="middle" x="1265.69" y="-14.3" font-family="Times,serif" font-size="14.00">dra.DestroyEntity</text>
</a>
</g>
</g>
<!-- dra.EntitySubwpnCrashCross&#45;&gt;dra.DestroyEntity -->
<g id="edge7" class="edge">
<title>dra.EntitySubwpnCrashCross&#45;&gt;dra.DestroyEntity</title>
<path fill="none" stroke="black" d="M770.02,-180.89C871.78,-147.65 1104.37,-71.69 1210.75,-36.94"/>
<polygon fill="black" stroke="black" points="1211.92,-40.24 1220.34,-33.81 1209.75,-33.59 1211.92,-40.24"/>
<text text-anchor="middle" x="1215.34" y="-37.61" font-family="Times,serif" font-size="14.00">1</text>
</g>
</g>
</svg>
