<?xml version="1.0" encoding="UTF-8" standalone="no"?>
<!DOCTYPE svg PUBLIC "-//W3C//DTD SVG 1.1//EN"
 "http://www.w3.org/Graphics/SVG/1.1/DTD/svg11.dtd">
<!-- Generated by graphviz version 2.43.0 (0)
 -->
<!-- Title: dra.func_8010E27C Pages: 1 -->
<svg width="3775pt" height="131pt"
 viewBox="0.00 0.00 3775.43 131.00" xmlns="http://www.w3.org/2000/svg" xmlns:xlink="http://www.w3.org/1999/xlink">
<g id="graph0" class="graph" transform="scale(1 1) rotate(0) translate(4 127)">
<title>dra.func_8010E27C</title>
<polygon fill="white" stroke="transparent" points="-4,4 -4,-127 3771.43,-127 3771.43,4 -4,4"/>
<!-- dra.func_8010E27C -->
<g id="node1" class="node">
<title>dra.func_8010E27C</title>
<ellipse fill="green" stroke="black" cx="1879.39" cy="-18" rx="102.88" ry="18"/>
<text text-anchor="middle" x="1879.39" y="-14.3" font-family="Times,serif" font-size="14.00">dra.func_8010E27C</text>
</g>
<!-- dra.func_80112B64 -->
<g id="node2" class="node">
<title>dra.func_80112B64</title>
<g id="a_node2"><a xlink:href="dra.func_80112B64.svg" xlink:title="dra.func_80112B64">
<ellipse fill="green" stroke="black" cx="101.39" cy="-105" rx="101.28" ry="18"/>
<text text-anchor="middle" x="101.39" y="-101.3" font-family="Times,serif" font-size="14.00">dra.func_80112B64</text>
</a>
</g>
</g>
<!-- dra.func_80112B64&#45;&gt;dra.func_8010E27C -->
<g id="edge1" class="edge">
<title>dra.func_80112B64&#45;&gt;dra.func_8010E27C</title>
<path fill="none" stroke="black" d="M173.25,-92.28C186.25,-90.36 199.71,-88.51 212.39,-87 382.92,-66.66 425.93,-63.68 597.39,-54 1029.24,-29.62 1543.91,-22.09 1767.03,-19.87"/>
<polygon fill="black" stroke="black" points="1767.14,-23.37 1777.11,-19.77 1767.07,-16.37 1767.14,-23.37"/>
<text text-anchor="middle" x="602.39" y="-57.8" font-family="Times,serif" font-size="14.00">1</text>
</g>
<!-- dra.func_801120B4 -->
<g id="node3" class="node">
<title>dra.func_801120B4</title>
<g id="a_node3"><a xlink:href="dra.func_801120B4.svg" xlink:title="dra.func_801120B4">
<ellipse fill="red" stroke="black" cx="322.39" cy="-105" rx="101.28" ry="18"/>
<text text-anchor="middle" x="322.39" y="-101.3" font-family="Times,serif" font-size="14.00">dra.func_801120B4</text>
</a>
</g>
</g>
<!-- dra.func_801120B4&#45;&gt;dra.func_8010E27C -->
<g id="edge2" class="edge">
<title>dra.func_801120B4&#45;&gt;dra.func_8010E27C</title>
<path fill="none" stroke="black" d="M393.88,-92.17C406.68,-90.28 419.92,-88.46 432.39,-87 614.84,-65.62 660.99,-64.44 844.39,-54 1180.16,-34.89 1577.84,-25.02 1767.69,-21.09"/>
<polygon fill="black" stroke="black" points="1768.03,-24.58 1777.95,-20.88 1767.88,-17.58 1768.03,-24.58"/>
<text text-anchor="middle" x="849.39" y="-57.8" font-family="Times,serif" font-size="14.00">3</text>
</g>
<!-- dra.func_8010EDB8 -->
<g id="node4" class="node">
<title>dra.func_8010EDB8</title>
<g id="a_node4"><a xlink:href="dra.func_8010EDB8.svg" xlink:title="dra.func_8010EDB8">
<ellipse fill="red" stroke="black" cx="545.39" cy="-105" rx="103.98" ry="18"/>
<text text-anchor="middle" x="545.39" y="-101.3" font-family="Times,serif" font-size="14.00">dra.func_8010EDB8</text>
</a>
</g>
</g>
<!-- dra.func_8010EDB8&#45;&gt;dra.func_8010E27C -->
<g id="edge3" class="edge">
<title>dra.func_8010EDB8&#45;&gt;dra.func_8010E27C</title>
<path fill="none" stroke="black" d="M618.85,-92.22C631.99,-90.32 645.58,-88.49 658.39,-87 1065.01,-39.69 1551.76,-25.07 1767.27,-20.74"/>
<polygon fill="black" stroke="black" points="1767.4,-24.24 1777.33,-20.54 1767.26,-17.24 1767.4,-24.24"/>
<text text-anchor="middle" x="998.39" y="-57.8" font-family="Times,serif" font-size="14.00">2</text>
</g>
<!-- dra.func_8010E83C -->
<g id="node5" class="node">
<title>dra.func_8010E83C</title>
<g id="a_node5"><a xlink:href="dra.func_8010E83C.svg" xlink:title="dra.func_8010E83C">
<ellipse fill="green" stroke="black" cx="770.39" cy="-105" rx="102.88" ry="18"/>
<text text-anchor="middle" x="770.39" y="-101.3" font-family="Times,serif" font-size="14.00">dra.func_8010E83C</text>
</a>
</g>
</g>
<!-- dra.func_8010E83C&#45;&gt;dra.func_8010E27C -->
<g id="edge4" class="edge">
<title>dra.func_8010E83C&#45;&gt;dra.func_8010E27C</title>
<path fill="none" stroke="black" d="M842.84,-92.21C855.67,-90.32 868.91,-88.5 881.39,-87 1202.72,-48.48 1585.07,-30.01 1769.33,-22.81"/>
<polygon fill="black" stroke="black" points="1769.71,-26.3 1779.56,-22.41 1769.44,-19.3 1769.71,-26.3"/>
<text text-anchor="middle" x="1215.39" y="-57.8" font-family="Times,serif" font-size="14.00">1</text>
</g>
<!-- dra.func_8010FDF8 -->
<g id="node6" class="node">
<title>dra.func_8010FDF8</title>
<g id="a_node6"><a xlink:href="dra.func_8010FDF8.svg" xlink:title="dra.func_8010FDF8">
<ellipse fill="green" stroke="black" cx="993.39" cy="-105" rx="102.88" ry="18"/>
<text text-anchor="middle" x="993.39" y="-101.3" font-family="Times,serif" font-size="14.00">dra.func_8010FDF8</text>
</a>
</g>
</g>
<!-- dra.func_8010FDF8&#45;&gt;dra.func_8010E27C -->
<g id="edge5" class="edge">
<title>dra.func_8010FDF8&#45;&gt;dra.func_8010E27C</title>
<path fill="none" stroke="black" d="M1066.51,-92.31C1079.45,-90.41 1092.8,-88.56 1105.39,-87 1344.22,-57.47 1626.07,-36.08 1774.99,-25.82"/>
<polygon fill="black" stroke="black" points="1775.3,-29.3 1785.04,-25.13 1774.82,-22.32 1775.3,-29.3"/>
<text text-anchor="middle" x="1408.39" y="-57.8" font-family="Times,serif" font-size="14.00">1</text>
</g>
<!-- dra.func_8010E9A4 -->
<g id="node7" class="node">
<title>dra.func_8010E9A4</title>
<g id="a_node7"><a xlink:href="dra.func_8010E9A4.svg" xlink:title="dra.func_8010E9A4">
<ellipse fill="green" stroke="black" cx="1216.39" cy="-105" rx="102.08" ry="18"/>
<text text-anchor="middle" x="1216.39" y="-101.3" font-family="Times,serif" font-size="14.00">dra.func_8010E9A4</text>
</a>
</g>
</g>
<!-- dra.func_8010E9A4&#45;&gt;dra.func_8010E27C -->
<g id="edge6" class="edge">
<title>dra.func_8010E9A4&#45;&gt;dra.func_8010E27C</title>
<path fill="none" stroke="black" d="M1289.79,-92.45C1302.32,-90.56 1315.22,-88.68 1327.39,-87 1488.09,-64.8 1675.6,-42.45 1785.53,-29.71"/>
<polygon fill="black" stroke="black" points="1786.06,-33.17 1795.59,-28.55 1785.26,-26.22 1786.06,-33.17"/>
<text text-anchor="middle" x="1575.39" y="-57.8" font-family="Times,serif" font-size="14.00">1</text>
</g>
<!-- dra.func_80113148 -->
<g id="node8" class="node">
<title>dra.func_80113148</title>
<g id="a_node8"><a xlink:href="dra.func_80113148.svg" xlink:title="dra.func_80113148">
<ellipse fill="green" stroke="black" cx="1437.39" cy="-105" rx="100.98" ry="18"/>
<text text-anchor="middle" x="1437.39" y="-101.3" font-family="Times,serif" font-size="14.00">dra.func_80113148</text>
</a>
</g>
</g>
<!-- dra.func_80113148&#45;&gt;dra.func_8010E27C -->
<g id="edge7" class="edge">
<title>dra.func_80113148&#45;&gt;dra.func_8010E27C</title>
<path fill="none" stroke="black" d="M1503.56,-91.27C1583.63,-75.88 1718.2,-50 1802.71,-33.75"/>
<polygon fill="black" stroke="black" points="1803.61,-37.14 1812.77,-31.81 1802.29,-30.26 1803.61,-37.14"/>
<text text-anchor="middle" x="1690.39" y="-57.8" font-family="Times,serif" font-size="14.00">1</text>
</g>
<!-- dra.func_801131C4 -->
<g id="node9" class="node">
<title>dra.func_801131C4</title>
<g id="a_node9"><a xlink:href="dra.func_801131C4.svg" xlink:title="dra.func_801131C4">
<ellipse fill="red" stroke="black" cx="1657.39" cy="-105" rx="101.28" ry="18"/>
<text text-anchor="middle" x="1657.39" y="-101.3" font-family="Times,serif" font-size="14.00">dra.func_801131C4</text>
</a>
</g>
</g>
<!-- dra.func_801131C4&#45;&gt;dra.func_8010E27C -->
<g id="edge8" class="edge">
<title>dra.func_801131C4&#45;&gt;dra.func_8010E27C</title>
<path fill="none" stroke="black" d="M1698.11,-88.41C1735,-74.29 1789.48,-53.43 1829.08,-38.26"/>
<polygon fill="black" stroke="black" points="1830.47,-41.48 1838.56,-34.64 1827.97,-34.94 1830.47,-41.48"/>
<text text-anchor="middle" x="1787.39" y="-57.8" font-family="Times,serif" font-size="14.00">3</text>
</g>
<!-- dra.func_80112BB0 -->
<g id="node10" class="node">
<title>dra.func_80112BB0</title>
<g id="a_node10"><a xlink:href="dra.func_80112BB0.svg" xlink:title="dra.func_80112BB0">
<ellipse fill="green" stroke="black" cx="1879.39" cy="-105" rx="102.88" ry="18"/>
<text text-anchor="middle" x="1879.39" y="-101.3" font-family="Times,serif" font-size="14.00">dra.func_80112BB0</text>
</a>
</g>
</g>
<!-- dra.func_80112BB0&#45;&gt;dra.func_8010E27C -->
<g id="edge9" class="edge">
<title>dra.func_80112BB0&#45;&gt;dra.func_8010E27C</title>
<path fill="none" stroke="black" d="M1879.39,-86.8C1879.39,-75.16 1879.39,-59.55 1879.39,-46.24"/>
<polygon fill="black" stroke="black" points="1882.89,-46.18 1879.39,-36.18 1875.89,-46.18 1882.89,-46.18"/>
<text text-anchor="middle" x="1884.39" y="-57.8" font-family="Times,serif" font-size="14.00">2</text>
</g>
<!-- dra.func_8012DBBC -->
<g id="node11" class="node">
<title>dra.func_8012DBBC</title>
<g id="a_node11"><a xlink:href="dra.func_8012DBBC.svg" xlink:title="dra.func_8012DBBC">
<ellipse fill="red" stroke="black" cx="2104.39" cy="-105" rx="104.78" ry="18"/>
<text text-anchor="middle" x="2104.39" y="-101.3" font-family="Times,serif" font-size="14.00">dra.func_8012DBBC</text>
</a>
</g>
</g>
<!-- dra.func_8012DBBC&#45;&gt;dra.func_8010E27C -->
<g id="edge10" class="edge">
<title>dra.func_8012DBBC&#45;&gt;dra.func_8010E27C</title>
<path fill="none" stroke="black" d="M2063.12,-88.41C2025.73,-74.29 1970.52,-53.43 1930.38,-38.26"/>
<polygon fill="black" stroke="black" points="1931.37,-34.9 1920.78,-34.64 1928.9,-41.44 1931.37,-34.9"/>
<text text-anchor="middle" x="2010.39" y="-57.8" font-family="Times,serif" font-size="14.00">1</text>
</g>
<!-- dra.func_80117DEC -->
<g id="node12" class="node">
<title>dra.func_80117DEC</title>
<g id="a_node12"><a xlink:href="dra.func_80117DEC.svg" xlink:title="dra.func_80117DEC">
<ellipse fill="red" stroke="black" cx="2331.39" cy="-105" rx="103.98" ry="18"/>
<text text-anchor="middle" x="2331.39" y="-101.3" font-family="Times,serif" font-size="14.00">dra.func_80117DEC</text>
</a>
</g>
</g>
<!-- dra.func_80117DEC&#45;&gt;dra.func_8010E27C -->
<g id="edge11" class="edge">
<title>dra.func_80117DEC&#45;&gt;dra.func_8010E27C</title>
<path fill="none" stroke="black" d="M2263.72,-91.27C2181.52,-75.82 2043.15,-49.8 1956.79,-33.56"/>
<polygon fill="black" stroke="black" points="1957.26,-30.08 1946.78,-31.67 1955.96,-36.96 1957.26,-30.08"/>
<text text-anchor="middle" x="2138.39" y="-57.8" font-family="Times,serif" font-size="14.00">1</text>
</g>
<!-- dra.func_8012CC30 -->
<g id="node13" class="node">
<title>dra.func_8012CC30</title>
<g id="a_node13"><a xlink:href="dra.func_8012CC30.svg" xlink:title="dra.func_8012CC30">
<ellipse fill="green" stroke="black" cx="2556.39" cy="-105" rx="102.88" ry="18"/>
<text text-anchor="middle" x="2556.39" y="-101.3" font-family="Times,serif" font-size="14.00">dra.func_8012CC30</text>
</a>
</g>
</g>
<!-- dra.func_8012CC30&#45;&gt;dra.func_8010E27C -->
<g id="edge12" class="edge">
<title>dra.func_8012CC30&#45;&gt;dra.func_8010E27C</title>
<path fill="none" stroke="black" d="M2482.64,-92.47C2469.89,-90.58 2456.77,-88.68 2444.39,-87 2279.04,-64.51 2085.93,-42.09 1973.67,-29.45"/>
<polygon fill="black" stroke="black" points="1974.06,-25.97 1963.73,-28.33 1973.28,-32.92 1974.06,-25.97"/>
<text text-anchor="middle" x="2310.39" y="-57.8" font-family="Times,serif" font-size="14.00">1</text>
</g>
<!-- dra.func_80117D3C -->
<g id="node14" class="node">
<title>dra.func_80117D3C</title>
<g id="a_node14"><a xlink:href="dra.func_80117D3C.svg" xlink:title="dra.func_80117D3C">
<ellipse fill="green" stroke="black" cx="2779.39" cy="-105" rx="102.88" ry="18"/>
<text text-anchor="middle" x="2779.39" y="-101.3" font-family="Times,serif" font-size="14.00">dra.func_80117D3C</text>
</a>
</g>
</g>
<!-- dra.func_80117D3C&#45;&gt;dra.func_8010E27C -->
<g id="edge13" class="edge">
<title>dra.func_80117D3C&#45;&gt;dra.func_8010E27C</title>
<path fill="none" stroke="black" d="M2706.63,-92.24C2693.9,-90.36 2680.77,-88.53 2668.39,-87 2424.3,-56.79 2136.07,-35.6 1984.58,-25.57"/>
<polygon fill="black" stroke="black" points="1984.57,-22.06 1974.36,-24.9 1984.11,-29.05 1984.57,-22.06"/>
<text text-anchor="middle" x="2501.39" y="-57.8" font-family="Times,serif" font-size="14.00">1</text>
</g>
<!-- dra.func_80116B0C -->
<g id="node15" class="node">
<title>dra.func_80116B0C</title>
<g id="a_node15"><a xlink:href="dra.func_80116B0C.svg" xlink:title="dra.func_80116B0C">
<ellipse fill="red" stroke="black" cx="3002.39" cy="-105" rx="102.88" ry="18"/>
<text text-anchor="middle" x="3002.39" y="-101.3" font-family="Times,serif" font-size="14.00">dra.func_80116B0C</text>
</a>
</g>
</g>
<!-- dra.func_80116B0C&#45;&gt;dra.func_8010E27C -->
<g id="edge14" class="edge">
<title>dra.func_80116B0C&#45;&gt;dra.func_8010E27C</title>
<path fill="none" stroke="black" d="M2929.94,-92.2C2917.12,-90.32 2903.88,-88.5 2891.39,-87 2564.55,-47.86 2175.42,-29.62 1989.25,-22.63"/>
<polygon fill="black" stroke="black" points="1989.31,-19.13 1979.18,-22.26 1989.05,-26.13 1989.31,-19.13"/>
<text text-anchor="middle" x="2704.39" y="-57.8" font-family="Times,serif" font-size="14.00">1</text>
</g>
<!-- dra.func_8012E040 -->
<g id="node16" class="node">
<title>dra.func_8012E040</title>
<g id="a_node16"><a xlink:href="dra.func_8012E040.svg" xlink:title="dra.func_8012E040">
<ellipse fill="red" stroke="black" cx="3224.39" cy="-105" rx="101.28" ry="18"/>
<text text-anchor="middle" x="3224.39" y="-101.3" font-family="Times,serif" font-size="14.00">dra.func_8012E040</text>
</a>
</g>
</g>
<!-- dra.func_8012E040&#45;&gt;dra.func_8010E27C -->
<g id="edge15" class="edge">
<title>dra.func_8012E040&#45;&gt;dra.func_8010E27C</title>
<path fill="none" stroke="black" d="M3152.89,-92.19C3140.1,-90.3 3126.86,-88.48 3114.39,-87 2702.43,-38.28 2208.94,-24.37 1991.56,-20.47"/>
<polygon fill="black" stroke="black" points="1991.48,-16.97 1981.42,-20.3 1991.36,-23.97 1991.48,-16.97"/>
<text text-anchor="middle" x="2918.39" y="-57.8" font-family="Times,serif" font-size="14.00">3</text>
</g>
<!-- dra.func_80116408 -->
<g id="node17" class="node">
<title>dra.func_80116408</title>
<g id="a_node17"><a xlink:href="dra.func_80116408.svg" xlink:title="dra.func_80116408">
<ellipse fill="red" stroke="black" cx="3444.39" cy="-105" rx="100.98" ry="18"/>
<text text-anchor="middle" x="3444.39" y="-101.3" font-family="Times,serif" font-size="14.00">dra.func_80116408</text>
</a>
</g>
</g>
<!-- dra.func_80116408&#45;&gt;dra.func_8010E27C -->
<g id="edge16" class="edge">
<title>dra.func_80116408&#45;&gt;dra.func_8010E27C</title>
<path fill="none" stroke="black" d="M3373.19,-92.23C3360.3,-90.31 3346.96,-88.48 3334.39,-87 3154.15,-65.79 3108.58,-64.37 2927.39,-54 2586.58,-34.5 2182.74,-24.79 1991.08,-20.99"/>
<polygon fill="black" stroke="black" points="1991.07,-17.49 1981,-20.79 1990.93,-24.49 1991.07,-17.49"/>
<text text-anchor="middle" x="3163.39" y="-57.8" font-family="Times,serif" font-size="14.00">2</text>
</g>
<!-- dra.func_80117AC0 -->
<g id="node18" class="node">
<title>dra.func_80117AC0</title>
<g id="a_node18"><a xlink:href="dra.func_80117AC0.svg" xlink:title="dra.func_80117AC0">
<ellipse fill="green" stroke="black" cx="3665.39" cy="-105" rx="102.08" ry="18"/>
<text text-anchor="middle" x="3665.39" y="-101.3" font-family="Times,serif" font-size="14.00">dra.func_80117AC0</text>
</a>
</g>
</g>
<!-- dra.func_80117AC0&#45;&gt;dra.func_8010E27C -->
<g id="edge17" class="edge">
<title>dra.func_80117AC0&#45;&gt;dra.func_8010E27C</title>
<path fill="none" stroke="black" d="M3593.24,-92.25C3580.32,-90.34 3566.97,-88.51 3554.39,-87 3385.19,-66.76 3342.53,-63.64 3172.39,-54 2736.3,-29.28 2216.44,-21.92 1991.87,-19.81"/>
<polygon fill="black" stroke="black" points="1991.76,-16.31 1981.72,-19.72 1991.69,-23.31 1991.76,-16.31"/>
<text text-anchor="middle" x="3393.39" y="-57.8" font-family="Times,serif" font-size="14.00">1</text>
</g>
</g>
</svg>
