<?xml version="1.0" encoding="UTF-8" standalone="no"?>
<!DOCTYPE svg PUBLIC "-//W3C//DTD SVG 1.1//EN"
 "http://www.w3.org/Graphics/SVG/1.1/DTD/svg11.dtd">
<!-- Generated by graphviz version 2.43.0 (0)
 -->
<!-- Title: dra.func_801291C4 Pages: 1 -->
<svg width="1131pt" height="224pt"
 viewBox="0.00 0.00 1130.94 224.00" xmlns="http://www.w3.org/2000/svg" xmlns:xlink="http://www.w3.org/1999/xlink">
<g id="graph0" class="graph" transform="scale(1 1) rotate(0) translate(4 220)">
<title>dra.func_801291C4</title>
<polygon fill="white" stroke="transparent" points="-4,4 -4,-220 1126.94,-220 1126.94,4 -4,4"/>
<!-- dra.func_801291C4 -->
<g id="node1" class="node">
<title>dra.func_801291C4</title>
<ellipse fill="red" stroke="black" cx="716.44" cy="-198" rx="101.28" ry="18"/>
<text text-anchor="middle" x="716.44" y="-194.3" font-family="Times,serif" font-size="14.00">dra.func_801291C4</text>
</g>
<!-- dra.AllocPrimitives -->
<g id="node2" class="node">
<title>dra.AllocPrimitives</title>
<g id="a_node2"><a xlink:href="dra.AllocPrimitives.svg" xlink:title="dra.AllocPrimitives">
<ellipse fill="green" stroke="black" cx="99.44" cy="-18" rx="99.38" ry="18"/>
<text text-anchor="middle" x="99.44" y="-14.3" font-family="Times,serif" font-size="14.00">dra.AllocPrimitives</text>
</a>
</g>
</g>
<!-- dra.func_801291C4&#45;&gt;dra.AllocPrimitives -->
<g id="edge1" class="edge">
<title>dra.func_801291C4&#45;&gt;dra.AllocPrimitives</title>
<path fill="none" stroke="black" d="M665.69,-182.36C552.83,-149.8 281.5,-71.52 160.02,-36.48"/>
<polygon fill="black" stroke="black" points="160.72,-33.04 150.14,-33.63 158.78,-39.76 160.72,-33.04"/>
<text text-anchor="middle" x="145.14" y="-37.43" font-family="Times,serif" font-size="14.00">1</text>
</g>
<!-- dra.DestroyEntity -->
<g id="node3" class="node">
<title>dra.DestroyEntity</title>
<g id="a_node3"><a xlink:href="dra.DestroyEntity.svg" xlink:title="dra.DestroyEntity">
<ellipse fill="green" stroke="black" cx="311.44" cy="-18" rx="94.78" ry="18"/>
<text text-anchor="middle" x="311.44" y="-14.3" font-family="Times,serif" font-size="14.00">dra.DestroyEntity</text>
</a>
</g>
</g>
<!-- dra.func_801291C4&#45;&gt;dra.DestroyEntity -->
<g id="edge2" class="edge">
<title>dra.func_801291C4&#45;&gt;dra.DestroyEntity</title>
<path fill="none" stroke="black" d="M680.14,-181.05C606.07,-148.49 437.69,-74.49 356.66,-38.87"/>
<polygon fill="black" stroke="black" points="357.79,-35.55 347.22,-34.73 354.97,-41.95 357.79,-35.55"/>
<text text-anchor="middle" x="342.22" y="-38.53" font-family="Times,serif" font-size="14.00">1</text>
</g>
<!-- dra.func_80128BBC -->
<g id="node4" class="node">
<title>dra.func_80128BBC</title>
<g id="a_node4"><a xlink:href="dra.func_80128BBC.svg" xlink:title="dra.func_80128BBC">
<ellipse fill="green" stroke="black" cx="527.44" cy="-18" rx="103.18" ry="18"/>
<text text-anchor="middle" x="527.44" y="-14.3" font-family="Times,serif" font-size="14.00">dra.func_80128BBC</text>
</a>
</g>
</g>
<!-- dra.func_801291C4&#45;&gt;dra.func_80128BBC -->
<g id="edge3" class="edge">
<title>dra.func_801291C4&#45;&gt;dra.func_80128BBC</title>
<path fill="none" stroke="black" d="M698.66,-180.25C665.03,-148.58 592,-79.8 553.07,-43.14"/>
<polygon fill="black" stroke="black" points="554.99,-40.14 545.31,-35.83 550.19,-45.23 554.99,-40.14"/>
<text text-anchor="middle" x="540.31" y="-39.63" font-family="Times,serif" font-size="14.00">1</text>
</g>
<!-- main.ratan2 -->
<g id="node5" class="node">
<title>main.ratan2</title>
<g id="a_node5"><a xlink:href="main.ratan2.svg" xlink:title="main.ratan2">
<ellipse fill="green" stroke="black" cx="716.44" cy="-18" rx="67.69" ry="18"/>
<text text-anchor="middle" x="716.44" y="-14.3" font-family="Times,serif" font-size="14.00">main.ratan2</text>
</a>
</g>
</g>
<!-- dra.func_801291C4&#45;&gt;main.ratan2 -->
<g id="edge4" class="edge">
<title>dra.func_801291C4&#45;&gt;main.ratan2</title>
<path fill="none" stroke="black" d="M716.44,-179.93C716.44,-148.97 716.44,-83.3 716.44,-46.13"/>
<polygon fill="black" stroke="black" points="719.94,-46.02 716.44,-36.02 712.94,-46.02 719.94,-46.02"/>
<text text-anchor="middle" x="711.44" y="-39.82" font-family="Times,serif" font-size="14.00">1</text>
</g>
<!-- main.rcos -->
<g id="node6" class="node">
<title>main.rcos</title>
<g id="a_node6"><a xlink:href="main.rcos.svg" xlink:title="main.rcos">
<ellipse fill="red" stroke="black" cx="857.44" cy="-18" rx="55.79" ry="18"/>
<text text-anchor="middle" x="857.44" y="-14.3" font-family="Times,serif" font-size="14.00">main.rcos</text>
</a>
</g>
</g>
<!-- dra.func_801291C4&#45;&gt;main.rcos -->
<g id="edge5" class="edge">
<title>dra.func_801291C4&#45;&gt;main.rcos</title>
<path fill="none" stroke="black" d="M729.96,-179.93C754.98,-148.35 808.58,-80.69 837.67,-43.96"/>
<polygon fill="black" stroke="black" points="840.7,-45.77 844.17,-35.76 835.22,-41.42 840.7,-45.77"/>
<text text-anchor="middle" x="839.17" y="-39.56" font-family="Times,serif" font-size="14.00">2</text>
</g>
<!-- main.rsin -->
<g id="node7" class="node">
<title>main.rsin</title>
<g id="a_node7"><a xlink:href="main.rsin.svg" xlink:title="main.rsin">
<ellipse fill="green" stroke="black" cx="985.44" cy="-18" rx="54.69" ry="18"/>
<text text-anchor="middle" x="985.44" y="-14.3" font-family="Times,serif" font-size="14.00">main.rsin</text>
</a>
</g>
</g>
<!-- dra.func_801291C4&#45;&gt;main.rsin -->
<g id="edge6" class="edge">
<title>dra.func_801291C4&#45;&gt;main.rsin</title>
<path fill="none" stroke="black" d="M741.75,-180.25C790.93,-147.71 899.34,-75.98 953.43,-40.18"/>
<polygon fill="black" stroke="black" points="955.53,-42.99 961.94,-34.55 951.67,-37.15 955.53,-42.99"/>
<text text-anchor="middle" x="956.94" y="-38.35" font-family="Times,serif" font-size="14.00">2</text>
</g>
<!-- rand -->
<g id="node8" class="node">
<title>rand</title>
<g id="a_node8"><a xlink:href="rand.svg" xlink:title="rand">
<ellipse fill="lightblue" stroke="black" cx="1090.44" cy="-18" rx="32.49" ry="18"/>
<text text-anchor="middle" x="1090.44" y="-14.3" font-family="Times,serif" font-size="14.00">rand</text>
</a>
</g>
</g>
<!-- dra.func_801291C4&#45;&gt;rand -->
<g id="edge7" class="edge">
<title>dra.func_801291C4&#45;&gt;rand</title>
<path fill="none" stroke="black" d="M750.29,-180.89C821.56,-146.97 986.33,-68.55 1057.13,-34.85"/>
<polygon fill="black" stroke="black" points="1058.95,-37.86 1066.48,-30.41 1055.94,-31.54 1058.95,-37.86"/>
<text text-anchor="middle" x="1061.48" y="-34.21" font-family="Times,serif" font-size="14.00">2</text>
</g>
</g>
</svg>
