<?xml version="1.0" encoding="UTF-8" standalone="no"?>
<!DOCTYPE svg PUBLIC "-//W3C//DTD SVG 1.1//EN"
 "http://www.w3.org/Graphics/SVG/1.1/DTD/svg11.dtd">
<!-- Generated by graphviz version 2.43.0 (0)
 -->
<!-- Title: dra.func_800E346C Pages: 1 -->
<svg width="1819pt" height="224pt"
 viewBox="0.00 0.00 1818.83 224.00" xmlns="http://www.w3.org/2000/svg" xmlns:xlink="http://www.w3.org/1999/xlink">
<g id="graph0" class="graph" transform="scale(1 1) rotate(0) translate(4 220)">
<title>dra.func_800E346C</title>
<polygon fill="white" stroke="transparent" points="-4,4 -4,-220 1814.83,-220 1814.83,4 -4,4"/>
<!-- dra.func_800E346C -->
<g id="node1" class="node">
<title>dra.func_800E346C</title>
<ellipse fill="green" stroke="black" cx="878.79" cy="-18" rx="102.88" ry="18"/>
<text text-anchor="middle" x="878.79" y="-14.3" font-family="Times,serif" font-size="14.00">dra.func_800E346C</text>
</g>
<!-- dra.HandleGameOver -->
<g id="node2" class="node">
<title>dra.HandleGameOver</title>
<g id="a_node2"><a xlink:href="dra.HandleGameOver.svg" xlink:title="dra.HandleGameOver">
<ellipse fill="red" stroke="black" cx="111.79" cy="-198" rx="111.58" ry="18"/>
<text text-anchor="middle" x="111.79" y="-194.3" font-family="Times,serif" font-size="14.00">dra.HandleGameOver</text>
</a>
</g>
</g>
<!-- dra.HandleGameOver&#45;&gt;dra.func_800E346C -->
<g id="edge1" class="edge">
<title>dra.HandleGameOver&#45;&gt;dra.func_800E346C</title>
<path fill="none" stroke="black" d="M172.62,-182.88C313.41,-150.21 661.03,-69.54 809.62,-35.05"/>
<polygon fill="black" stroke="black" points="810.59,-38.42 819.54,-32.75 809.01,-31.6 810.59,-38.42"/>
<text text-anchor="middle" x="167.62" y="-171.68" font-family="Times,serif" font-size="14.00">1</text>
</g>
<!-- dra.HandleMenu -->
<g id="node3" class="node">
<title>dra.HandleMenu</title>
<g id="a_node3"><a xlink:href="dra.HandleMenu.svg" xlink:title="dra.HandleMenu">
<ellipse fill="green" stroke="black" cx="330.79" cy="-198" rx="89.08" ry="18"/>
<text text-anchor="middle" x="330.79" y="-194.3" font-family="Times,serif" font-size="14.00">dra.HandleMenu</text>
</a>
</g>
</g>
<!-- dra.HandleMenu&#45;&gt;dra.func_800E346C -->
<g id="edge2" class="edge">
<title>dra.HandleMenu&#45;&gt;dra.func_800E346C</title>
<path fill="none" stroke="black" d="M375.64,-182.43C475.01,-150.15 713.57,-72.67 822.65,-37.24"/>
<polygon fill="black" stroke="black" points="823.73,-40.56 832.16,-34.15 821.57,-33.91 823.73,-40.56"/>
<text text-anchor="middle" x="370.64" y="-171.23" font-family="Times,serif" font-size="14.00">2</text>
</g>
<!-- dra.HandlePlay -->
<g id="node4" class="node">
<title>dra.HandlePlay</title>
<g id="a_node4"><a xlink:href="dra.HandlePlay.svg" xlink:title="dra.HandlePlay">
<ellipse fill="green" stroke="black" cx="520.79" cy="-198" rx="82.59" ry="18"/>
<text text-anchor="middle" x="520.79" y="-194.3" font-family="Times,serif" font-size="14.00">dra.HandlePlay</text>
</a>
</g>
</g>
<!-- dra.HandlePlay&#45;&gt;dra.func_800E346C -->
<g id="edge3" class="edge">
<title>dra.HandlePlay&#45;&gt;dra.func_800E346C</title>
<path fill="none" stroke="black" d="M552.56,-181.2C617.33,-149 764.63,-75.76 837.03,-39.76"/>
<polygon fill="black" stroke="black" points="838.92,-42.73 846.32,-35.15 835.81,-36.46 838.92,-42.73"/>
<text text-anchor="middle" x="547.56" y="-170" font-family="Times,serif" font-size="14.00">1</text>
</g>
<!-- dra.HandlePrologueEnd -->
<g id="node5" class="node">
<title>dra.HandlePrologueEnd</title>
<g id="a_node5"><a xlink:href="dra.HandlePrologueEnd.svg" xlink:title="dra.HandlePrologueEnd">
<ellipse fill="green" stroke="black" cx="743.79" cy="-198" rx="122.38" ry="18"/>
<text text-anchor="middle" x="743.79" y="-194.3" font-family="Times,serif" font-size="14.00">dra.HandlePrologueEnd</text>
</a>
</g>
</g>
<!-- dra.HandlePrologueEnd&#45;&gt;dra.func_800E346C -->
<g id="edge4" class="edge">
<title>dra.HandlePrologueEnd&#45;&gt;dra.func_800E346C</title>
<path fill="none" stroke="black" d="M756.73,-179.93C780.62,-148.43 831.74,-81.03 859.65,-44.24"/>
<polygon fill="black" stroke="black" points="862.63,-46.1 865.88,-36.02 857.05,-41.87 862.63,-46.1"/>
<text text-anchor="middle" x="751.73" y="-168.73" font-family="Times,serif" font-size="14.00">1</text>
</g>
<!-- dra.SetTitleDisplayBuffer -->
<g id="node6" class="node">
<title>dra.SetTitleDisplayBuffer</title>
<g id="a_node6"><a xlink:href="dra.SetTitleDisplayBuffer.svg" xlink:title="dra.SetTitleDisplayBuffer">
<ellipse fill="green" stroke="black" cx="1013.79" cy="-198" rx="129.18" ry="18"/>
<text text-anchor="middle" x="1013.79" y="-194.3" font-family="Times,serif" font-size="14.00">dra.SetTitleDisplayBuffer</text>
</a>
</g>
</g>
<!-- dra.SetTitleDisplayBuffer&#45;&gt;dra.func_800E346C -->
<g id="edge5" class="edge">
<title>dra.SetTitleDisplayBuffer&#45;&gt;dra.func_800E346C</title>
<path fill="none" stroke="black" d="M1000.85,-179.93C976.96,-148.43 925.84,-81.03 897.93,-44.24"/>
<polygon fill="black" stroke="black" points="900.53,-41.87 891.7,-36.02 894.95,-46.1 900.53,-41.87"/>
<text text-anchor="middle" x="995.85" y="-168.73" font-family="Times,serif" font-size="14.00">1</text>
</g>
<!-- dra.func_800E34DC -->
<g id="node7" class="node">
<title>dra.func_800E34DC</title>
<g id="a_node7"><a xlink:href="dra.func_800E34DC.svg" xlink:title="dra.func_800E34DC">
<ellipse fill="green" stroke="black" cx="1264.79" cy="-198" rx="103.98" ry="18"/>
<text text-anchor="middle" x="1264.79" y="-194.3" font-family="Times,serif" font-size="14.00">dra.func_800E34DC</text>
</a>
</g>
</g>
<!-- dra.func_800E34DC&#45;&gt;dra.func_800E346C -->
<g id="edge6" class="edge">
<title>dra.func_800E34DC&#45;&gt;dra.func_800E346C</title>
<path fill="none" stroke="black" d="M1229.85,-180.89C1159.47,-148.43 1000.72,-75.22 923.14,-39.45"/>
<polygon fill="black" stroke="black" points="924.19,-36.08 913.65,-35.07 921.26,-42.44 924.19,-36.08"/>
<text text-anchor="middle" x="1224.85" y="-169.69" font-family="Times,serif" font-size="14.00">1</text>
</g>
<!-- dra.func_800F2404 -->
<g id="node8" class="node">
<title>dra.func_800F2404</title>
<g id="a_node8"><a xlink:href="dra.func_800F2404.svg" xlink:title="dra.func_800F2404">
<ellipse fill="green" stroke="black" cx="1487.79" cy="-198" rx="100.98" ry="18"/>
<text text-anchor="middle" x="1487.79" y="-194.3" font-family="Times,serif" font-size="14.00">dra.func_800F2404</text>
</a>
</g>
</g>
<!-- dra.func_800F2404&#45;&gt;dra.func_800E346C -->
<g id="edge7" class="edge">
<title>dra.func_800F2404&#45;&gt;dra.func_800E346C</title>
<path fill="none" stroke="black" d="M1437.69,-182.36C1326.44,-149.84 1059.15,-71.72 939.03,-36.61"/>
<polygon fill="black" stroke="black" points="939.84,-33.2 929.26,-33.75 937.88,-39.92 939.84,-33.2"/>
<text text-anchor="middle" x="1432.69" y="-171.16" font-family="Times,serif" font-size="14.00">1</text>
</g>
<!-- dra.func_800F298C -->
<g id="node9" class="node">
<title>dra.func_800F298C</title>
<g id="a_node9"><a xlink:href="dra.func_800F298C.svg" xlink:title="dra.func_800F298C">
<ellipse fill="green" stroke="black" cx="1708.79" cy="-198" rx="102.08" ry="18"/>
<text text-anchor="middle" x="1708.79" y="-194.3" font-family="Times,serif" font-size="14.00">dra.func_800F298C</text>
</a>
</g>
</g>
<!-- dra.func_800F298C&#45;&gt;dra.func_800E346C -->
<g id="edge8" class="edge">
<title>dra.func_800F298C&#45;&gt;dra.func_800E346C</title>
<path fill="none" stroke="black" d="M1646.74,-183.69C1496.07,-151.38 1111.46,-68.9 950.9,-34.47"/>
<polygon fill="black" stroke="black" points="951.63,-31.04 941.12,-32.37 950.16,-37.89 951.63,-31.04"/>
<text text-anchor="middle" x="1641.74" y="-172.49" font-family="Times,serif" font-size="14.00">1</text>
</g>
</g>
</svg>
