<?xml version="1.0" encoding="UTF-8" standalone="no"?>
<!DOCTYPE svg PUBLIC "-//W3C//DTD SVG 1.1//EN"
 "http://www.w3.org/Graphics/SVG/1.1/DTD/svg11.dtd">
<!-- Generated by graphviz version 2.43.0 (0)
 -->
<!-- Title: dra.DrawStatChanges Pages: 1 -->
<svg width="844pt" height="404pt"
 viewBox="0.00 0.00 844.33 404.00" xmlns="http://www.w3.org/2000/svg" xmlns:xlink="http://www.w3.org/1999/xlink">
<g id="graph0" class="graph" transform="scale(1 1) rotate(0) translate(4 400)">
<title>dra.DrawStatChanges</title>
<polygon fill="white" stroke="transparent" points="-4,4 -4,-400 840.33,-400 840.33,4 -4,4"/>
<!-- dra.DrawStatChanges -->
<g id="node1" class="node">
<title>dra.DrawStatChanges</title>
<ellipse fill="green" stroke="black" cx="406.59" cy="-198" rx="113.98" ry="18"/>
<text text-anchor="middle" x="406.59" y="-194.3" font-family="Times,serif" font-size="14.00">dra.DrawStatChanges</text>
</g>
<!-- dra.DrawMenuInt -->
<g id="node2" class="node">
<title>dra.DrawMenuInt</title>
<g id="a_node2"><a xlink:href="dra.DrawMenuInt.svg" xlink:title="dra.DrawMenuInt">
<ellipse fill="green" stroke="black" cx="93.59" cy="-18" rx="93.68" ry="18"/>
<text text-anchor="middle" x="93.59" y="-14.3" font-family="Times,serif" font-size="14.00">dra.DrawMenuInt</text>
</a>
</g>
</g>
<!-- dra.DrawStatChanges&#45;&gt;dra.DrawMenuInt -->
<g id="edge1" class="edge">
<title>dra.DrawStatChanges&#45;&gt;dra.DrawMenuInt</title>
<path fill="none" stroke="black" d="M377.71,-180.57C320.87,-148.25 194.57,-76.42 131.27,-40.43"/>
<polygon fill="black" stroke="black" points="132.83,-37.29 122.41,-35.39 129.37,-43.37 132.83,-37.29"/>
<text text-anchor="middle" x="117.41" y="-39.19" font-family="Times,serif" font-size="14.00">5</text>
</g>
<!-- dra.DrawMenuStr -->
<g id="node3" class="node">
<title>dra.DrawMenuStr</title>
<g id="a_node3"><a xlink:href="dra.DrawMenuStr.svg" xlink:title="dra.DrawMenuStr">
<ellipse fill="green" stroke="black" cx="299.59" cy="-18" rx="94.78" ry="18"/>
<text text-anchor="middle" x="299.59" y="-14.3" font-family="Times,serif" font-size="14.00">dra.DrawMenuStr</text>
</a>
</g>
</g>
<!-- dra.DrawStatChanges&#45;&gt;dra.DrawMenuStr -->
<g id="edge2" class="edge">
<title>dra.DrawStatChanges&#45;&gt;dra.DrawMenuStr</title>
<path fill="none" stroke="black" d="M396.33,-179.93C377.48,-148.57 337.22,-81.6 315.05,-44.71"/>
<polygon fill="black" stroke="black" points="317.97,-42.78 309.82,-36.02 311.97,-46.39 317.97,-42.78"/>
<text text-anchor="middle" x="304.82" y="-39.82" font-family="Times,serif" font-size="14.00">1</text>
</g>
<!-- dra.func_800F678C -->
<g id="node4" class="node">
<title>dra.func_800F678C</title>
<g id="a_node4"><a xlink:href="dra.func_800F678C.svg" xlink:title="dra.func_800F678C">
<ellipse fill="green" stroke="black" cx="514.59" cy="-18" rx="102.08" ry="18"/>
<text text-anchor="middle" x="514.59" y="-14.3" font-family="Times,serif" font-size="14.00">dra.func_800F678C</text>
</a>
</g>
</g>
<!-- dra.DrawStatChanges&#45;&gt;dra.func_800F678C -->
<g id="edge3" class="edge">
<title>dra.DrawStatChanges&#45;&gt;dra.func_800F678C</title>
<path fill="none" stroke="black" d="M416.95,-179.93C435.98,-148.57 476.61,-81.6 498.99,-44.71"/>
<polygon fill="black" stroke="black" points="502.07,-46.38 504.27,-36.02 496.09,-42.75 502.07,-46.38"/>
<text text-anchor="middle" x="499.27" y="-39.82" font-family="Times,serif" font-size="14.00">4</text>
</g>
<!-- dra.func_800F7218 -->
<g id="node5" class="node">
<title>dra.func_800F7218</title>
<g id="a_node5"><a xlink:href="dra.func_800F7218.svg" xlink:title="dra.func_800F7218">
<ellipse fill="green" stroke="black" cx="735.59" cy="-18" rx="100.98" ry="18"/>
<text text-anchor="middle" x="735.59" y="-14.3" font-family="Times,serif" font-size="14.00">dra.func_800F7218</text>
</a>
</g>
</g>
<!-- dra.DrawStatChanges&#45;&gt;dra.func_800F7218 -->
<g id="edge4" class="edge">
<title>dra.DrawStatChanges&#45;&gt;dra.func_800F7218</title>
<path fill="none" stroke="black" d="M436.95,-180.57C496.81,-148.19 630,-76.13 696.39,-40.21"/>
<polygon fill="black" stroke="black" points="698.17,-43.22 705.3,-35.39 694.84,-37.07 698.17,-43.22"/>
<text text-anchor="middle" x="700.3" y="-39.19" font-family="Times,serif" font-size="14.00">4</text>
</g>
<!-- dra.func_800F8F28 -->
<g id="node6" class="node">
<title>dra.func_800F8F28</title>
<g id="a_node6"><a xlink:href="dra.func_800F8F28.svg" xlink:title="dra.func_800F8F28">
<ellipse fill="red" stroke="black" cx="406.59" cy="-378" rx="101.28" ry="18"/>
<text text-anchor="middle" x="406.59" y="-374.3" font-family="Times,serif" font-size="14.00">dra.func_800F8F28</text>
</a>
</g>
</g>
<!-- dra.func_800F8F28&#45;&gt;dra.DrawStatChanges -->
<g id="edge5" class="edge">
<title>dra.func_800F8F28&#45;&gt;dra.DrawStatChanges</title>
<path fill="none" stroke="black" d="M406.59,-359.93C406.59,-328.97 406.59,-263.3 406.59,-226.13"/>
<polygon fill="black" stroke="black" points="410.09,-226.02 406.59,-216.02 403.09,-226.02 410.09,-226.02"/>
<text text-anchor="middle" x="401.59" y="-348.73" font-family="Times,serif" font-size="14.00">1</text>
</g>
</g>
</svg>
