<?xml version="1.0" encoding="UTF-8" standalone="no"?>
<!DOCTYPE svg PUBLIC "-//W3C//DTD SVG 1.1//EN"
 "http://www.w3.org/Graphics/SVG/1.1/DTD/svg11.dtd">
<!-- Generated by graphviz version 2.43.0 (0)
 -->
<!-- Title: dra.func_800E6250 Pages: 1 -->
<svg width="444pt" height="404pt"
 viewBox="0.00 0.00 444.28 404.00" xmlns="http://www.w3.org/2000/svg" xmlns:xlink="http://www.w3.org/1999/xlink">
<g id="graph0" class="graph" transform="scale(1 1) rotate(0) translate(4 400)">
<title>dra.func_800E6250</title>
<polygon fill="white" stroke="transparent" points="-4,4 -4,-400 440.28,-400 440.28,4 -4,4"/>
<!-- dra.func_800E6250 -->
<g id="node1" class="node">
<title>dra.func_800E6250</title>
<ellipse fill="green" stroke="black" cx="202.04" cy="-198" rx="101.28" ry="18"/>
<text text-anchor="middle" x="202.04" y="-194.3" font-family="Times,serif" font-size="14.00">dra.func_800E6250</text>
</g>
<!-- dra.LoadFileSim -->
<g id="node2" class="node">
<title>dra.LoadFileSim</title>
<g id="a_node2"><a xlink:href="dra.LoadFileSim.svg" xlink:title="dra.LoadFileSim">
<ellipse fill="green" stroke="black" cx="202.04" cy="-18" rx="87.18" ry="18"/>
<text text-anchor="middle" x="202.04" y="-14.3" font-family="Times,serif" font-size="14.00">dra.LoadFileSim</text>
</a>
</g>
</g>
<!-- dra.func_800E6250&#45;&gt;dra.LoadFileSim -->
<g id="edge1" class="edge">
<title>dra.func_800E6250&#45;&gt;dra.LoadFileSim</title>
<path fill="none" stroke="black" d="M202.04,-179.93C202.04,-148.97 202.04,-83.3 202.04,-46.13"/>
<polygon fill="black" stroke="black" points="205.54,-46.02 202.04,-36.02 198.54,-46.02 205.54,-46.02"/>
<text text-anchor="middle" x="197.04" y="-39.82" font-family="Times,serif" font-size="14.00">4</text>
</g>
<!-- dra.HandleMenu -->
<g id="node3" class="node">
<title>dra.HandleMenu</title>
<g id="a_node3"><a xlink:href="dra.HandleMenu.svg" xlink:title="dra.HandleMenu">
<ellipse fill="green" stroke="black" cx="89.04" cy="-378" rx="89.08" ry="18"/>
<text text-anchor="middle" x="89.04" y="-374.3" font-family="Times,serif" font-size="14.00">dra.HandleMenu</text>
</a>
</g>
</g>
<!-- dra.HandleMenu&#45;&gt;dra.func_800E6250 -->
<g id="edge2" class="edge">
<title>dra.HandleMenu&#45;&gt;dra.func_800E6250</title>
<path fill="none" stroke="black" d="M99.88,-359.93C119.79,-328.57 162.3,-261.6 185.72,-224.71"/>
<polygon fill="black" stroke="black" points="188.84,-226.33 191.24,-216.02 182.93,-222.58 188.84,-226.33"/>
<text text-anchor="middle" x="94.88" y="-348.73" font-family="Times,serif" font-size="14.00">1</text>
</g>
<!-- dra.HandleNowLoading -->
<g id="node4" class="node">
<title>dra.HandleNowLoading</title>
<g id="a_node4"><a xlink:href="dra.HandleNowLoading.svg" xlink:title="dra.HandleNowLoading">
<ellipse fill="green" stroke="black" cx="316.04" cy="-378" rx="120.48" ry="18"/>
<text text-anchor="middle" x="316.04" y="-374.3" font-family="Times,serif" font-size="14.00">dra.HandleNowLoading</text>
</a>
</g>
</g>
<!-- dra.HandleNowLoading&#45;&gt;dra.func_800E6250 -->
<g id="edge3" class="edge">
<title>dra.HandleNowLoading&#45;&gt;dra.func_800E6250</title>
<path fill="none" stroke="black" d="M305.11,-359.93C285.02,-328.57 242.14,-261.6 218.51,-224.71"/>
<polygon fill="black" stroke="black" points="221.28,-222.55 212.94,-216.02 215.39,-226.32 221.28,-222.55"/>
<text text-anchor="middle" x="300.11" y="-348.73" font-family="Times,serif" font-size="14.00">1</text>
</g>
</g>
</svg>
