<?xml version="1.0" encoding="UTF-8" standalone="no"?>
<!DOCTYPE svg PUBLIC "-//W3C//DTD SVG 1.1//EN"
 "http://www.w3.org/Graphics/SVG/1.1/DTD/svg11.dtd">
<!-- Generated by graphviz version 2.43.0 (0)
 -->
<!-- Title: dra.func_80132264 Pages: 1 -->
<svg width="432pt" height="404pt"
 viewBox="0.00 0.00 431.78 404.00" xmlns="http://www.w3.org/2000/svg" xmlns:xlink="http://www.w3.org/1999/xlink">
<g id="graph0" class="graph" transform="scale(1 1) rotate(0) translate(4 400)">
<title>dra.func_80132264</title>
<polygon fill="white" stroke="transparent" points="-4,4 -4,-400 427.78,-400 427.78,4 -4,4"/>
<!-- dra.func_80132264 -->
<g id="node1" class="node">
<title>dra.func_80132264</title>
<ellipse fill="green" stroke="black" cx="212.04" cy="-198" rx="100.98" ry="18"/>
<text text-anchor="middle" x="212.04" y="-194.3" font-family="Times,serif" font-size="14.00">dra.func_80132264</text>
</g>
<!-- dra.func_801321FC -->
<g id="node2" class="node">
<title>dra.func_801321FC</title>
<g id="a_node2"><a xlink:href="dra.func_801321FC.svg" xlink:title="dra.func_801321FC">
<ellipse fill="green" stroke="black" cx="212.04" cy="-18" rx="102.08" ry="18"/>
<text text-anchor="middle" x="212.04" y="-14.3" font-family="Times,serif" font-size="14.00">dra.func_801321FC</text>
</a>
</g>
</g>
<!-- dra.func_80132264&#45;&gt;dra.func_801321FC -->
<g id="edge1" class="edge">
<title>dra.func_80132264&#45;&gt;dra.func_801321FC</title>
<path fill="none" stroke="black" d="M212.04,-179.93C212.04,-148.97 212.04,-83.3 212.04,-46.13"/>
<polygon fill="black" stroke="black" points="215.54,-46.02 212.04,-36.02 208.54,-46.02 215.54,-46.02"/>
<text text-anchor="middle" x="207.04" y="-39.82" font-family="Times,serif" font-size="14.00">1</text>
</g>
<!-- dra.func_801325D8 -->
<g id="node3" class="node">
<title>dra.func_801325D8</title>
<g id="a_node3"><a xlink:href="dra.func_801325D8.svg" xlink:title="dra.func_801325D8">
<ellipse fill="green" stroke="black" cx="102.04" cy="-378" rx="102.08" ry="18"/>
<text text-anchor="middle" x="102.04" y="-374.3" font-family="Times,serif" font-size="14.00">dra.func_801325D8</text>
</a>
</g>
</g>
<!-- dra.func_801325D8&#45;&gt;dra.func_80132264 -->
<g id="edge2" class="edge">
<title>dra.func_801325D8&#45;&gt;dra.func_80132264</title>
<path fill="none" stroke="black" d="M112.59,-359.93C131.97,-328.57 173.35,-261.6 196.15,-224.71"/>
<polygon fill="black" stroke="black" points="199.25,-226.36 201.53,-216.02 193.29,-222.68 199.25,-226.36"/>
<text text-anchor="middle" x="107.59" y="-348.73" font-family="Times,serif" font-size="14.00">1</text>
</g>
<!-- dra.func_80132760 -->
<g id="node4" class="node">
<title>dra.func_80132760</title>
<g id="a_node4"><a xlink:href="dra.func_80132760.svg" xlink:title="dra.func_80132760">
<ellipse fill="green" stroke="black" cx="323.04" cy="-378" rx="100.98" ry="18"/>
<text text-anchor="middle" x="323.04" y="-374.3" font-family="Times,serif" font-size="14.00">dra.func_80132760</text>
</a>
</g>
</g>
<!-- dra.func_80132760&#45;&gt;dra.func_80132264 -->
<g id="edge3" class="edge">
<title>dra.func_80132760&#45;&gt;dra.func_80132264</title>
<path fill="none" stroke="black" d="M312.4,-359.93C292.84,-328.57 251.08,-261.6 228.07,-224.71"/>
<polygon fill="black" stroke="black" points="230.91,-222.65 222.65,-216.02 224.97,-226.35 230.91,-222.65"/>
<text text-anchor="middle" x="307.4" y="-348.73" font-family="Times,serif" font-size="14.00">1</text>
</g>
</g>
</svg>
