<?xml version="1.0" encoding="UTF-8" standalone="no"?>
<!DOCTYPE svg PUBLIC "-//W3C//DTD SVG 1.1//EN"
 "http://www.w3.org/Graphics/SVG/1.1/DTD/svg11.dtd">
<!-- Generated by graphviz version 2.43.0 (0)
 -->
<!-- Title: dra.func_800EA538 Pages: 1 -->
<svg width="2971pt" height="224pt"
 viewBox="0.00 0.00 2971.28 224.00" xmlns="http://www.w3.org/2000/svg" xmlns:xlink="http://www.w3.org/1999/xlink">
<g id="graph0" class="graph" transform="scale(1 1) rotate(0) translate(4 220)">
<title>dra.func_800EA538</title>
<polygon fill="white" stroke="transparent" points="-4,4 -4,-220 2967.28,-220 2967.28,4 -4,4"/>
<!-- dra.func_800EA538 -->
<g id="node1" class="node">
<title>dra.func_800EA538</title>
<ellipse fill="green" stroke="black" cx="1485.19" cy="-18" rx="102.08" ry="18"/>
<text text-anchor="middle" x="1485.19" y="-14.3" font-family="Times,serif" font-size="14.00">dra.func_800EA538</text>
</g>
<!-- dra.ControlMistForm -->
<g id="node2" class="node">
<title>dra.ControlMistForm</title>
<g id="a_node2"><a xlink:href="dra.ControlMistForm.svg" xlink:title="dra.ControlMistForm">
<ellipse fill="green" stroke="black" cx="109.19" cy="-198" rx="109.38" ry="18"/>
<text text-anchor="middle" x="109.19" y="-194.3" font-family="Times,serif" font-size="14.00">dra.ControlMistForm</text>
</a>
</g>
</g>
<!-- dra.ControlMistForm&#45;&gt;dra.func_800EA538 -->
<g id="edge1" class="edge">
<title>dra.ControlMistForm&#45;&gt;dra.func_800EA538</title>
<path fill="none" stroke="black" d="M187.87,-185.49C201,-183.62 214.47,-181.73 227.19,-180 663.75,-120.62 1186.43,-55.7 1393.88,-30.18"/>
<polygon fill="black" stroke="black" points="1394.32,-33.66 1403.82,-28.96 1393.46,-26.71 1394.32,-33.66"/>
<text text-anchor="middle" x="182.87" y="-174.29" font-family="Times,serif" font-size="14.00">1</text>
</g>
<!-- dra.EntityMist -->
<g id="node3" class="node">
<title>dra.EntityMist</title>
<g id="a_node3"><a xlink:href="dra.EntityMist.svg" xlink:title="dra.EntityMist">
<ellipse fill="red" stroke="black" cx="315.19" cy="-198" rx="79.09" ry="18"/>
<text text-anchor="middle" x="315.19" y="-194.3" font-family="Times,serif" font-size="14.00">dra.EntityMist</text>
</a>
</g>
</g>
<!-- dra.EntityMist&#45;&gt;dra.func_800EA538 -->
<g id="edge2" class="edge">
<title>dra.EntityMist&#45;&gt;dra.func_800EA538</title>
<path fill="none" stroke="black" d="M372.88,-185.49C382.97,-183.58 393.37,-181.68 403.19,-180 771.06,-117.13 1211.71,-55.91 1396.65,-30.86"/>
<polygon fill="black" stroke="black" points="1397.16,-34.32 1406.6,-29.51 1396.22,-27.38 1397.16,-34.32"/>
<text text-anchor="middle" x="367.88" y="-174.29" font-family="Times,serif" font-size="14.00">2</text>
</g>
<!-- dra.HandleEnding -->
<g id="node4" class="node">
<title>dra.HandleEnding</title>
<g id="a_node4"><a xlink:href="dra.HandleEnding.svg" xlink:title="dra.HandleEnding">
<ellipse fill="green" stroke="black" cx="508.19" cy="-198" rx="95.58" ry="18"/>
<text text-anchor="middle" x="508.19" y="-194.3" font-family="Times,serif" font-size="14.00">dra.HandleEnding</text>
</a>
</g>
</g>
<!-- dra.HandleEnding&#45;&gt;dra.func_800EA538 -->
<g id="edge3" class="edge">
<title>dra.HandleEnding&#45;&gt;dra.func_800EA538</title>
<path fill="none" stroke="black" d="M574.19,-184.97C748.35,-153.25 1219.73,-67.36 1406.98,-33.25"/>
<polygon fill="black" stroke="black" points="1407.81,-36.66 1417.02,-31.42 1406.55,-29.77 1407.81,-36.66"/>
<text text-anchor="middle" x="569.19" y="-173.77" font-family="Times,serif" font-size="14.00">1</text>
</g>
<!-- dra.HandleGameOver -->
<g id="node5" class="node">
<title>dra.HandleGameOver</title>
<g id="a_node5"><a xlink:href="dra.HandleGameOver.svg" xlink:title="dra.HandleGameOver">
<ellipse fill="red" stroke="black" cx="733.19" cy="-198" rx="111.58" ry="18"/>
<text text-anchor="middle" x="733.19" y="-194.3" font-family="Times,serif" font-size="14.00">dra.HandleGameOver</text>
</a>
</g>
</g>
<!-- dra.HandleGameOver&#45;&gt;dra.func_800EA538 -->
<g id="edge4" class="edge">
<title>dra.HandleGameOver&#45;&gt;dra.func_800EA538</title>
<path fill="none" stroke="black" d="M793.46,-182.73C931.64,-150.03 1270.62,-69.79 1416.55,-35.25"/>
<polygon fill="black" stroke="black" points="1417.79,-38.55 1426.72,-32.84 1416.18,-31.74 1417.79,-38.55"/>
<text text-anchor="middle" x="788.46" y="-171.53" font-family="Times,serif" font-size="14.00">1</text>
</g>
<!-- dra.HandlePlay -->
<g id="node6" class="node">
<title>dra.HandlePlay</title>
<g id="a_node6"><a xlink:href="dra.HandlePlay.svg" xlink:title="dra.HandlePlay">
<ellipse fill="green" stroke="black" cx="945.19" cy="-198" rx="82.59" ry="18"/>
<text text-anchor="middle" x="945.19" y="-194.3" font-family="Times,serif" font-size="14.00">dra.HandlePlay</text>
</a>
</g>
</g>
<!-- dra.HandlePlay&#45;&gt;dra.func_800EA538 -->
<g id="edge5" class="edge">
<title>dra.HandlePlay&#45;&gt;dra.func_800EA538</title>
<path fill="none" stroke="black" d="M988.92,-182.58C1086.44,-150.44 1321.56,-72.94 1429.42,-37.38"/>
<polygon fill="black" stroke="black" points="1430.74,-40.63 1439.14,-34.18 1428.55,-33.99 1430.74,-40.63"/>
<text text-anchor="middle" x="983.92" y="-171.38" font-family="Times,serif" font-size="14.00">1</text>
</g>
<!-- dra.HandleTitle -->
<g id="node7" class="node">
<title>dra.HandleTitle</title>
<g id="a_node7"><a xlink:href="dra.HandleTitle.svg" xlink:title="dra.HandleTitle">
<ellipse fill="green" stroke="black" cx="1129.19" cy="-198" rx="83.39" ry="18"/>
<text text-anchor="middle" x="1129.19" y="-194.3" font-family="Times,serif" font-size="14.00">dra.HandleTitle</text>
</a>
</g>
</g>
<!-- dra.HandleTitle&#45;&gt;dra.func_800EA538 -->
<g id="edge6" class="edge">
<title>dra.HandleTitle&#45;&gt;dra.func_800EA538</title>
<path fill="none" stroke="black" d="M1160.78,-181.2C1225.19,-149 1371.67,-75.76 1443.67,-39.76"/>
<polygon fill="black" stroke="black" points="1445.52,-42.75 1452.9,-35.15 1442.39,-36.49 1445.52,-42.75"/>
<text text-anchor="middle" x="1155.78" y="-170" font-family="Times,serif" font-size="14.00">1</text>
</g>
<!-- dra.HandleVideoPlayback -->
<g id="node8" class="node">
<title>dra.HandleVideoPlayback</title>
<g id="a_node8"><a xlink:href="dra.HandleVideoPlayback.svg" xlink:title="dra.HandleVideoPlayback">
<ellipse fill="green" stroke="black" cx="1360.19" cy="-198" rx="129.98" ry="18"/>
<text text-anchor="middle" x="1360.19" y="-194.3" font-family="Times,serif" font-size="14.00">dra.HandleVideoPlayback</text>
</a>
</g>
</g>
<!-- dra.HandleVideoPlayback&#45;&gt;dra.func_800EA538 -->
<g id="edge7" class="edge">
<title>dra.HandleVideoPlayback&#45;&gt;dra.func_800EA538</title>
<path fill="none" stroke="black" d="M1372.18,-179.93C1394.3,-148.43 1441.63,-81.03 1467.47,-44.24"/>
<polygon fill="black" stroke="black" points="1470.36,-46.21 1473.24,-36.02 1464.63,-42.19 1470.36,-46.21"/>
<text text-anchor="middle" x="1367.18" y="-168.73" font-family="Times,serif" font-size="14.00">1</text>
</g>
<!-- dra.entrypoint_sotn -->
<g id="node9" class="node">
<title>dra.entrypoint_sotn</title>
<g id="a_node9"><a xlink:href="dra.entrypoint_sotn.svg" xlink:title="dra.entrypoint_sotn">
<ellipse fill="green" stroke="black" cx="1611.19" cy="-198" rx="102.88" ry="18"/>
<text text-anchor="middle" x="1611.19" y="-194.3" font-family="Times,serif" font-size="14.00">dra.entrypoint_sotn</text>
</a>
</g>
</g>
<!-- dra.entrypoint_sotn&#45;&gt;dra.func_800EA538 -->
<g id="edge8" class="edge">
<title>dra.entrypoint_sotn&#45;&gt;dra.func_800EA538</title>
<path fill="none" stroke="black" d="M1599.11,-179.93C1576.81,-148.43 1529.1,-81.03 1503.06,-44.24"/>
<polygon fill="black" stroke="black" points="1505.87,-42.16 1497.24,-36.02 1500.16,-46.2 1505.87,-42.16"/>
<text text-anchor="middle" x="1594.11" y="-168.73" font-family="Times,serif" font-size="14.00">1</text>
</g>
<!-- dra.func_800E414C -->
<g id="node10" class="node">
<title>dra.func_800E414C</title>
<g id="a_node10"><a xlink:href="dra.func_800E414C.svg" xlink:title="dra.func_800E414C">
<ellipse fill="green" stroke="black" cx="1834.19" cy="-198" rx="102.88" ry="18"/>
<text text-anchor="middle" x="1834.19" y="-194.3" font-family="Times,serif" font-size="14.00">dra.func_800E414C</text>
</a>
</g>
</g>
<!-- dra.func_800E414C&#45;&gt;dra.func_800EA538 -->
<g id="edge9" class="edge">
<title>dra.func_800E414C&#45;&gt;dra.func_800EA538</title>
<path fill="none" stroke="black" d="M1802.29,-180.73C1738.68,-148.29 1596.14,-75.59 1525.9,-39.76"/>
<polygon fill="black" stroke="black" points="1527.39,-36.59 1516.89,-35.17 1524.2,-42.83 1527.39,-36.59"/>
<text text-anchor="middle" x="1797.29" y="-169.53" font-family="Times,serif" font-size="14.00">1</text>
</g>
<!-- dra.func_800E4970 -->
<g id="node11" class="node">
<title>dra.func_800E4970</title>
<g id="a_node11"><a xlink:href="dra.func_800E4970.svg" xlink:title="dra.func_800E4970">
<ellipse fill="green" stroke="black" cx="2056.19" cy="-198" rx="101.28" ry="18"/>
<text text-anchor="middle" x="2056.19" y="-194.3" font-family="Times,serif" font-size="14.00">dra.func_800E4970</text>
</a>
</g>
</g>
<!-- dra.func_800E4970&#45;&gt;dra.func_800EA538 -->
<g id="edge10" class="edge">
<title>dra.func_800E4970&#45;&gt;dra.func_800EA538</title>
<path fill="none" stroke="black" d="M2008,-181.98C1903.34,-149.35 1655.64,-72.13 1542.88,-36.98"/>
<polygon fill="black" stroke="black" points="1543.64,-33.55 1533.05,-33.92 1541.56,-40.24 1543.64,-33.55"/>
<text text-anchor="middle" x="2003" y="-170.78" font-family="Times,serif" font-size="14.00">1</text>
</g>
<!-- dra.func_800F298C -->
<g id="node12" class="node">
<title>dra.func_800F298C</title>
<g id="a_node12"><a xlink:href="dra.func_800F298C.svg" xlink:title="dra.func_800F298C">
<ellipse fill="red" stroke="black" cx="2277.19" cy="-198" rx="102.08" ry="18"/>
<text text-anchor="middle" x="2277.19" y="-194.3" font-family="Times,serif" font-size="14.00">dra.func_800F298C</text>
</a>
</g>
</g>
<!-- dra.func_800F298C&#45;&gt;dra.func_800EA538 -->
<g id="edge11" class="edge">
<title>dra.func_800F298C&#45;&gt;dra.func_800EA538</title>
<path fill="none" stroke="black" d="M2216.69,-183.4C2072.41,-150.98 1708.78,-69.25 1555.28,-34.75"/>
<polygon fill="black" stroke="black" points="1556.01,-31.33 1545.48,-32.55 1554.47,-38.16 1556.01,-31.33"/>
<text text-anchor="middle" x="2211.69" y="-172.2" font-family="Times,serif" font-size="14.00">2</text>
</g>
<!-- dra.func_800F6A48 -->
<g id="node13" class="node">
<title>dra.func_800F6A48</title>
<g id="a_node13"><a xlink:href="dra.func_800F6A48.svg" xlink:title="dra.func_800F6A48">
<ellipse fill="green" stroke="black" cx="2498.19" cy="-198" rx="101.28" ry="18"/>
<text text-anchor="middle" x="2498.19" y="-194.3" font-family="Times,serif" font-size="14.00">dra.func_800F6A48</text>
</a>
</g>
</g>
<!-- dra.func_800F6A48&#45;&gt;dra.func_800EA538 -->
<g id="edge12" class="edge">
<title>dra.func_800F6A48&#45;&gt;dra.func_800EA538</title>
<path fill="none" stroke="black" d="M2428.96,-184.84C2247.28,-152.91 1757.6,-66.87 1564.77,-32.98"/>
<polygon fill="black" stroke="black" points="1565.16,-29.5 1554.71,-31.22 1563.95,-36.39 1565.16,-29.5"/>
<text text-anchor="middle" x="2423.96" y="-173.64" font-family="Times,serif" font-size="14.00">1</text>
</g>
<!-- dra.func_800FF60C -->
<g id="node14" class="node">
<title>dra.func_800FF60C</title>
<g id="a_node14"><a xlink:href="dra.func_800FF60C.svg" xlink:title="dra.func_800FF60C">
<ellipse fill="green" stroke="black" cx="2720.19" cy="-198" rx="102.88" ry="18"/>
<text text-anchor="middle" x="2720.19" y="-194.3" font-family="Times,serif" font-size="14.00">dra.func_800FF60C</text>
</a>
</g>
</g>
<!-- dra.func_800FF60C&#45;&gt;dra.func_800EA538 -->
<g id="edge13" class="edge">
<title>dra.func_800FF60C&#45;&gt;dra.func_800EA538</title>
<path fill="none" stroke="black" d="M2645.5,-185.58C2633.04,-183.7 2620.25,-181.78 2608.19,-180 2222.42,-123.07 1761.67,-57.9 1572.64,-31.29"/>
<polygon fill="black" stroke="black" points="1572.88,-27.79 1562.49,-29.86 1571.9,-34.72 1572.88,-27.79"/>
<text text-anchor="middle" x="2640.5" y="-174.38" font-family="Times,serif" font-size="14.00">1</text>
</g>
<!-- sel.Update -->
<g id="node15" class="node">
<title>sel.Update</title>
<g id="a_node15"><a xlink:href="sel.Update.svg" xlink:title="sel.Update">
<ellipse fill="red" stroke="black" cx="2902.19" cy="-198" rx="61.19" ry="18"/>
<text text-anchor="middle" x="2902.19" y="-194.3" font-family="Times,serif" font-size="14.00">sel.Update</text>
</a>
</g>
</g>
<!-- sel.Update&#45;&gt;dra.func_800EA538 -->
<g id="edge14" class="edge">
<title>sel.Update&#45;&gt;dra.func_800EA538</title>
<path fill="none" stroke="black" d="M2857.92,-185.41C2849.42,-183.42 2840.56,-181.51 2832.19,-180 2370.53,-96.66 1811.8,-45.54 1586.55,-26.95"/>
<polygon fill="black" stroke="black" points="1586.66,-23.45 1576.4,-26.12 1586.08,-30.43 1586.66,-23.45"/>
<text text-anchor="middle" x="2852.92" y="-174.21" font-family="Times,serif" font-size="14.00">1</text>
</g>
</g>
</svg>
