<?xml version="1.0" encoding="UTF-8" standalone="no"?>
<!DOCTYPE svg PUBLIC "-//W3C//DTD SVG 1.1//EN"
 "http://www.w3.org/Graphics/SVG/1.1/DTD/svg11.dtd">
<!-- Generated by graphviz version 2.43.0 (0)
 -->
<!-- Title: dra.DrawMenuSprite Pages: 1 -->
<svg width="1275pt" height="404pt"
 viewBox="0.00 0.00 1274.68 404.00" xmlns="http://www.w3.org/2000/svg" xmlns:xlink="http://www.w3.org/1999/xlink">
<g id="graph0" class="graph" transform="scale(1 1) rotate(0) translate(4 400)">
<title>dra.DrawMenuSprite</title>
<polygon fill="white" stroke="transparent" points="-4,4 -4,-400 1270.68,-400 1270.68,4 -4,4"/>
<!-- dra.DrawMenuSprite -->
<g id="node1" class="node">
<title>dra.DrawMenuSprite</title>
<ellipse fill="green" stroke="black" cx="708.99" cy="-198" rx="109.38" ry="18"/>
<text text-anchor="middle" x="708.99" y="-194.3" font-family="Times,serif" font-size="14.00">dra.DrawMenuSprite</text>
</g>
<!-- dra.SetTexturedPrimRect -->
<g id="node2" class="node">
<title>dra.SetTexturedPrimRect</title>
<g id="a_node2"><a xlink:href="dra.SetTexturedPrimRect.svg" xlink:title="dra.SetTexturedPrimRect">
<ellipse fill="green" stroke="black" cx="129.99" cy="-18" rx="129.98" ry="18"/>
<text text-anchor="middle" x="129.99" y="-14.3" font-family="Times,serif" font-size="14.00">dra.SetTexturedPrimRect</text>
</a>
</g>
</g>
<!-- dra.DrawMenuSprite&#45;&gt;dra.SetTexturedPrimRect -->
<g id="edge1" class="edge">
<title>dra.DrawMenuSprite&#45;&gt;dra.SetTexturedPrimRect</title>
<path fill="none" stroke="black" d="M659.62,-181.82C553.86,-149.31 305.7,-73.02 190.6,-37.63"/>
<polygon fill="black" stroke="black" points="191.47,-34.24 180.88,-34.65 189.41,-40.93 191.47,-34.24"/>
<text text-anchor="middle" x="175.88" y="-38.45" font-family="Times,serif" font-size="14.00">1</text>
</g>
<!-- dra.ScissorPolyGT4 -->
<g id="node3" class="node">
<title>dra.ScissorPolyGT4</title>
<g id="a_node3"><a xlink:href="dra.ScissorPolyGT4.svg" xlink:title="dra.ScissorPolyGT4">
<ellipse fill="green" stroke="black" cx="378.99" cy="-18" rx="101.28" ry="18"/>
<text text-anchor="middle" x="378.99" y="-14.3" font-family="Times,serif" font-size="14.00">dra.ScissorPolyGT4</text>
</a>
</g>
</g>
<!-- dra.DrawMenuSprite&#45;&gt;dra.ScissorPolyGT4 -->
<g id="edge2" class="edge">
<title>dra.DrawMenuSprite&#45;&gt;dra.ScissorPolyGT4</title>
<path fill="none" stroke="black" d="M678.53,-180.57C618.49,-148.19 484.9,-76.13 418.31,-40.21"/>
<polygon fill="black" stroke="black" points="419.83,-37.05 409.37,-35.39 416.51,-43.21 419.83,-37.05"/>
<text text-anchor="middle" x="404.37" y="-39.19" font-family="Times,serif" font-size="14.00">1</text>
</g>
<!-- dra.func_80107250 -->
<g id="node4" class="node">
<title>dra.func_80107250</title>
<g id="a_node4"><a xlink:href="dra.func_80107250.svg" xlink:title="dra.func_80107250">
<ellipse fill="green" stroke="black" cx="598.99" cy="-18" rx="100.98" ry="18"/>
<text text-anchor="middle" x="598.99" y="-14.3" font-family="Times,serif" font-size="14.00">dra.func_80107250</text>
</a>
</g>
</g>
<!-- dra.DrawMenuSprite&#45;&gt;dra.func_80107250 -->
<g id="edge3" class="edge">
<title>dra.DrawMenuSprite&#45;&gt;dra.func_80107250</title>
<path fill="none" stroke="black" d="M698.44,-179.93C679.06,-148.57 637.68,-81.6 614.88,-44.71"/>
<polygon fill="black" stroke="black" points="617.74,-42.68 609.5,-36.02 611.78,-46.36 617.74,-42.68"/>
<text text-anchor="middle" x="604.5" y="-39.82" font-family="Times,serif" font-size="14.00">1</text>
</g>
<!-- dra.func_801071CC -->
<g id="node5" class="node">
<title>dra.func_801071CC</title>
<g id="a_node5"><a xlink:href="dra.func_801071CC.svg" xlink:title="dra.func_801071CC">
<ellipse fill="green" stroke="black" cx="819.99" cy="-18" rx="102.88" ry="18"/>
<text text-anchor="middle" x="819.99" y="-14.3" font-family="Times,serif" font-size="14.00">dra.func_801071CC</text>
</a>
</g>
</g>
<!-- dra.DrawMenuSprite&#45;&gt;dra.func_801071CC -->
<g id="edge4" class="edge">
<title>dra.DrawMenuSprite&#45;&gt;dra.func_801071CC</title>
<path fill="none" stroke="black" d="M719.63,-179.93C739.19,-148.57 780.95,-81.6 803.96,-44.71"/>
<polygon fill="black" stroke="black" points="807.06,-46.35 809.38,-36.02 801.12,-42.65 807.06,-46.35"/>
<text text-anchor="middle" x="804.38" y="-39.82" font-family="Times,serif" font-size="14.00">2</text>
</g>
<!-- AddPrim -->
<g id="node6" class="node">
<title>AddPrim</title>
<g id="a_node6"><a xlink:href="AddPrim.svg" xlink:title="AddPrim">
<ellipse fill="lightblue" stroke="black" cx="991.99" cy="-18" rx="51.19" ry="18"/>
<text text-anchor="middle" x="991.99" y="-14.3" font-family="Times,serif" font-size="14.00">AddPrim</text>
</a>
</g>
</g>
<!-- dra.DrawMenuSprite&#45;&gt;AddPrim -->
<g id="edge5" class="edge">
<title>dra.DrawMenuSprite&#45;&gt;AddPrim</title>
<path fill="none" stroke="black" d="M735.36,-180.41C787.33,-147.73 902.84,-75.07 959.44,-39.47"/>
<polygon fill="black" stroke="black" points="961.4,-42.37 968.01,-34.08 957.68,-36.45 961.4,-42.37"/>
<text text-anchor="middle" x="963.01" y="-37.88" font-family="Times,serif" font-size="14.00">1</text>
</g>
<!-- dra.func_800F53D4 -->
<g id="node7" class="node">
<title>dra.func_800F53D4</title>
<g id="a_node7"><a xlink:href="dra.func_800F53D4.svg" xlink:title="dra.func_800F53D4">
<ellipse fill="green" stroke="black" cx="1163.99" cy="-18" rx="102.88" ry="18"/>
<text text-anchor="middle" x="1163.99" y="-14.3" font-family="Times,serif" font-size="14.00">dra.func_800F53D4</text>
</a>
</g>
</g>
<!-- dra.DrawMenuSprite&#45;&gt;dra.func_800F53D4 -->
<g id="edge6" class="edge">
<title>dra.DrawMenuSprite&#45;&gt;dra.func_800F53D4</title>
<path fill="none" stroke="black" d="M749.37,-181.2C832.78,-148.57 1023.88,-73.81 1114.53,-38.35"/>
<polygon fill="black" stroke="black" points="1115.99,-41.54 1124.03,-34.63 1113.44,-35.02 1115.99,-41.54"/>
<text text-anchor="middle" x="1119.03" y="-38.43" font-family="Times,serif" font-size="14.00">1</text>
</g>
<!-- dra.DrawMenuAlucardPortrait -->
<g id="node8" class="node">
<title>dra.DrawMenuAlucardPortrait</title>
<g id="a_node8"><a xlink:href="dra.DrawMenuAlucardPortrait.svg" xlink:title="dra.DrawMenuAlucardPortrait">
<ellipse fill="green" stroke="black" cx="429.99" cy="-378" rx="152.17" ry="18"/>
<text text-anchor="middle" x="429.99" y="-374.3" font-family="Times,serif" font-size="14.00">dra.DrawMenuAlucardPortrait</text>
</a>
</g>
</g>
<!-- dra.DrawMenuAlucardPortrait&#45;&gt;dra.DrawMenuSprite -->
<g id="edge7" class="edge">
<title>dra.DrawMenuAlucardPortrait&#45;&gt;dra.DrawMenuSprite</title>
<path fill="none" stroke="black" d="M456.24,-360.25C506.84,-327.97 617.88,-257.13 674.42,-221.05"/>
<polygon fill="black" stroke="black" points="676.47,-223.9 683.01,-215.57 672.7,-218 676.47,-223.9"/>
<text text-anchor="middle" x="451.24" y="-349.05" font-family="Times,serif" font-size="14.00">2</text>
</g>
<!-- dra.DrawRelicsMenu -->
<g id="node9" class="node">
<title>dra.DrawRelicsMenu</title>
<g id="a_node9"><a xlink:href="dra.DrawRelicsMenu.svg" xlink:title="dra.DrawRelicsMenu">
<ellipse fill="red" stroke="black" cx="708.99" cy="-378" rx="108.58" ry="18"/>
<text text-anchor="middle" x="708.99" y="-374.3" font-family="Times,serif" font-size="14.00">dra.DrawRelicsMenu</text>
</a>
</g>
</g>
<!-- dra.DrawRelicsMenu&#45;&gt;dra.DrawMenuSprite -->
<g id="edge8" class="edge">
<title>dra.DrawRelicsMenu&#45;&gt;dra.DrawMenuSprite</title>
<path fill="none" stroke="black" d="M708.99,-359.93C708.99,-328.97 708.99,-263.3 708.99,-226.13"/>
<polygon fill="black" stroke="black" points="712.49,-226.02 708.99,-216.02 705.49,-226.02 712.49,-226.02"/>
<text text-anchor="middle" x="703.99" y="-348.73" font-family="Times,serif" font-size="14.00">2</text>
</g>
<!-- dra.DrawMenuAlucardCloakPreview -->
<g id="node10" class="node">
<title>dra.DrawMenuAlucardCloakPreview</title>
<g id="a_node10"><a xlink:href="dra.DrawMenuAlucardCloakPreview.svg" xlink:title="dra.DrawMenuAlucardCloakPreview">
<ellipse fill="green" stroke="black" cx="1014.99" cy="-378" rx="179.27" ry="18"/>
<text text-anchor="middle" x="1014.99" y="-374.3" font-family="Times,serif" font-size="14.00">dra.DrawMenuAlucardCloakPreview</text>
</a>
</g>
</g>
<!-- dra.DrawMenuAlucardCloakPreview&#45;&gt;dra.DrawMenuSprite -->
<g id="edge9" class="edge">
<title>dra.DrawMenuAlucardCloakPreview&#45;&gt;dra.DrawMenuSprite</title>
<path fill="none" stroke="black" d="M985.92,-360.09C930.16,-327.65 808.2,-256.71 746.43,-220.78"/>
<polygon fill="black" stroke="black" points="747.82,-217.54 737.41,-215.53 744.3,-223.59 747.82,-217.54"/>
<text text-anchor="middle" x="980.92" y="-348.89" font-family="Times,serif" font-size="14.00">2</text>
</g>
</g>
</svg>
