<?xml version="1.0" encoding="UTF-8" standalone="no"?>
<!DOCTYPE svg PUBLIC "-//W3C//DTD SVG 1.1//EN"
 "http://www.w3.org/Graphics/SVG/1.1/DTD/svg11.dtd">
<!-- Generated by graphviz version 2.43.0 (0)
 -->
<!-- Title: dra.func_800E346C Pages: 1 -->
<svg width="1845pt" height="224pt"
 viewBox="0.00 0.00 1844.88 224.00" xmlns="http://www.w3.org/2000/svg" xmlns:xlink="http://www.w3.org/1999/xlink">
<g id="graph0" class="graph" transform="scale(1 1) rotate(0) translate(4 220)">
<title>dra.func_800E346C</title>
<polygon fill="white" stroke="transparent" points="-4,4 -4,-220 1840.88,-220 1840.88,4 -4,4"/>
<!-- dra.func_800E346C -->
<g id="node1" class="node">
<title>dra.func_800E346C</title>
<ellipse fill="green" stroke="black" cx="919.69" cy="-18" rx="102.88" ry="18"/>
<text text-anchor="middle" x="919.69" y="-14.3" font-family="Times,serif" font-size="14.00">dra.func_800E346C</text>
</g>
<!-- dra.func_800FBC24 -->
<g id="node2" class="node">
<title>dra.func_800FBC24</title>
<g id="a_node2"><a xlink:href="dra.func_800FBC24.svg" xlink:title="dra.func_800FBC24">
<ellipse fill="red" stroke="black" cx="102.69" cy="-198" rx="102.88" ry="18"/>
<text text-anchor="middle" x="102.69" y="-194.3" font-family="Times,serif" font-size="14.00">dra.func_800FBC24</text>
</a>
</g>
</g>
<!-- dra.func_800FBC24&#45;&gt;dra.func_800E346C -->
<g id="edge1" class="edge">
<title>dra.func_800FBC24&#45;&gt;dra.func_800E346C</title>
<path fill="none" stroke="black" d="M164.43,-183.55C312.94,-151.19 689.48,-69.16 847.81,-34.66"/>
<polygon fill="black" stroke="black" points="848.89,-38.01 857.92,-32.46 847.4,-31.17 848.89,-38.01"/>
<text text-anchor="middle" x="159.43" y="-172.35" font-family="Times,serif" font-size="14.00">2</text>
</g>
<!-- dra.func_800F298C -->
<g id="node3" class="node">
<title>dra.func_800F298C</title>
<g id="a_node3"><a xlink:href="dra.func_800F298C.svg" xlink:title="dra.func_800F298C">
<ellipse fill="red" stroke="black" cx="325.69" cy="-198" rx="102.08" ry="18"/>
<text text-anchor="middle" x="325.69" y="-194.3" font-family="Times,serif" font-size="14.00">dra.func_800F298C</text>
</a>
</g>
</g>
<!-- dra.func_800F298C&#45;&gt;dra.func_800E346C -->
<g id="edge2" class="edge">
<title>dra.func_800F298C&#45;&gt;dra.func_800E346C</title>
<path fill="none" stroke="black" d="M375.06,-182.21C483.67,-149.66 742.98,-71.95 860.27,-36.81"/>
<polygon fill="black" stroke="black" points="861.58,-40.07 870.16,-33.84 859.57,-33.36 861.58,-40.07"/>
<text text-anchor="middle" x="370.06" y="-171.01" font-family="Times,serif" font-size="14.00">1</text>
</g>
<!-- dra.func_800F2404 -->
<g id="node4" class="node">
<title>dra.func_800F2404</title>
<g id="a_node4"><a xlink:href="dra.func_800F2404.svg" xlink:title="dra.func_800F2404">
<ellipse fill="green" stroke="black" cx="546.69" cy="-198" rx="100.98" ry="18"/>
<text text-anchor="middle" x="546.69" y="-194.3" font-family="Times,serif" font-size="14.00">dra.func_800F2404</text>
</a>
</g>
</g>
<!-- dra.func_800F2404&#45;&gt;dra.func_800E346C -->
<g id="edge3" class="edge">
<title>dra.func_800F2404&#45;&gt;dra.func_800E346C</title>
<path fill="none" stroke="black" d="M580.45,-180.89C648.47,-148.43 801.87,-75.22 876.83,-39.45"/>
<polygon fill="black" stroke="black" points="878.49,-42.54 886.01,-35.07 875.48,-36.22 878.49,-42.54"/>
<text text-anchor="middle" x="575.45" y="-169.69" font-family="Times,serif" font-size="14.00">1</text>
</g>
<!-- dra.SetTitleDisplayBuffer -->
<g id="node5" class="node">
<title>dra.SetTitleDisplayBuffer</title>
<g id="a_node5"><a xlink:href="dra.SetTitleDisplayBuffer.svg" xlink:title="dra.SetTitleDisplayBuffer">
<ellipse fill="green" stroke="black" cx="794.69" cy="-198" rx="129.18" ry="18"/>
<text text-anchor="middle" x="794.69" y="-194.3" font-family="Times,serif" font-size="14.00">dra.SetTitleDisplayBuffer</text>
</a>
</g>
</g>
<!-- dra.SetTitleDisplayBuffer&#45;&gt;dra.func_800E346C -->
<g id="edge4" class="edge">
<title>dra.SetTitleDisplayBuffer&#45;&gt;dra.func_800E346C</title>
<path fill="none" stroke="black" d="M806.68,-179.93C828.8,-148.43 876.13,-81.03 901.97,-44.24"/>
<polygon fill="black" stroke="black" points="904.86,-46.21 907.74,-36.02 899.13,-42.19 904.86,-46.21"/>
<text text-anchor="middle" x="801.68" y="-168.73" font-family="Times,serif" font-size="14.00">1</text>
</g>
<!-- dra.func_800E34DC -->
<g id="node6" class="node">
<title>dra.func_800E34DC</title>
<g id="a_node6"><a xlink:href="dra.func_800E34DC.svg" xlink:title="dra.func_800E34DC">
<ellipse fill="green" stroke="black" cx="1045.69" cy="-198" rx="103.98" ry="18"/>
<text text-anchor="middle" x="1045.69" y="-194.3" font-family="Times,serif" font-size="14.00">dra.func_800E34DC</text>
</a>
</g>
</g>
<!-- dra.func_800E34DC&#45;&gt;dra.func_800E346C -->
<g id="edge5" class="edge">
<title>dra.func_800E34DC&#45;&gt;dra.func_800E346C</title>
<path fill="none" stroke="black" d="M1033.61,-179.93C1011.31,-148.43 963.6,-81.03 937.56,-44.24"/>
<polygon fill="black" stroke="black" points="940.37,-42.16 931.74,-36.02 934.66,-46.2 940.37,-42.16"/>
<text text-anchor="middle" x="1028.61" y="-168.73" font-family="Times,serif" font-size="14.00">1</text>
</g>
<!-- dra.HandleGameOver -->
<g id="node7" class="node">
<title>dra.HandleGameOver</title>
<g id="a_node7"><a xlink:href="dra.HandleGameOver.svg" xlink:title="dra.HandleGameOver">
<ellipse fill="red" stroke="black" cx="1279.69" cy="-198" rx="111.58" ry="18"/>
<text text-anchor="middle" x="1279.69" y="-194.3" font-family="Times,serif" font-size="14.00">dra.HandleGameOver</text>
</a>
</g>
</g>
<!-- dra.HandleGameOver&#45;&gt;dra.func_800E346C -->
<g id="edge6" class="edge">
<title>dra.HandleGameOver&#45;&gt;dra.func_800E346C</title>
<path fill="none" stroke="black" d="M1246.79,-180.73C1181.17,-148.29 1034.14,-75.59 961.68,-39.76"/>
<polygon fill="black" stroke="black" points="962.9,-36.46 952.39,-35.17 959.8,-42.74 962.9,-36.46"/>
<text text-anchor="middle" x="1241.79" y="-169.53" font-family="Times,serif" font-size="14.00">1</text>
</g>
<!-- dra.HandlePlay -->
<g id="node8" class="node">
<title>dra.HandlePlay</title>
<g id="a_node8"><a xlink:href="dra.HandlePlay.svg" xlink:title="dra.HandlePlay">
<ellipse fill="green" stroke="black" cx="1491.69" cy="-198" rx="82.59" ry="18"/>
<text text-anchor="middle" x="1491.69" y="-194.3" font-family="Times,serif" font-size="14.00">dra.HandlePlay</text>
</a>
</g>
</g>
<!-- dra.HandlePlay&#45;&gt;dra.func_800E346C -->
<g id="edge7" class="edge">
<title>dra.HandlePlay&#45;&gt;dra.func_800E346C</title>
<path fill="none" stroke="black" d="M1446.33,-182.88C1343.24,-150.8 1091.49,-72.46 977.48,-36.98"/>
<polygon fill="black" stroke="black" points="978.46,-33.62 967.87,-33.99 976.38,-40.31 978.46,-33.62"/>
<text text-anchor="middle" x="1441.33" y="-171.68" font-family="Times,serif" font-size="14.00">1</text>
</g>
<!-- dra.HandlePrologueEnd -->
<g id="node9" class="node">
<title>dra.HandlePrologueEnd</title>
<g id="a_node9"><a xlink:href="dra.HandlePrologueEnd.svg" xlink:title="dra.HandlePrologueEnd">
<ellipse fill="green" stroke="black" cx="1714.69" cy="-198" rx="122.38" ry="18"/>
<text text-anchor="middle" x="1714.69" y="-194.3" font-family="Times,serif" font-size="14.00">dra.HandlePrologueEnd</text>
</a>
</g>
</g>
<!-- dra.HandlePrologueEnd&#45;&gt;dra.func_800E346C -->
<g id="edge8" class="edge">
<title>dra.HandlePrologueEnd&#45;&gt;dra.func_800E346C</title>
<path fill="none" stroke="black" d="M1650.64,-182.66C1503.66,-149.75 1143.08,-69.02 990.13,-34.77"/>
<polygon fill="black" stroke="black" points="990.88,-31.35 980.36,-32.58 989.35,-38.18 990.88,-31.35"/>
<text text-anchor="middle" x="1645.64" y="-171.46" font-family="Times,serif" font-size="14.00">1</text>
</g>
</g>
</svg>
