<?xml version="1.0" encoding="UTF-8" standalone="no"?>
<!DOCTYPE svg PUBLIC "-//W3C//DTD SVG 1.1//EN"
 "http://www.w3.org/Graphics/SVG/1.1/DTD/svg11.dtd">
<!-- Generated by graphviz version 2.43.0 (0)
 -->
<!-- Title: dra.func_80133604 Pages: 1 -->
<svg width="836pt" height="218pt"
 viewBox="0.00 0.00 835.78 218.00" xmlns="http://www.w3.org/2000/svg" xmlns:xlink="http://www.w3.org/1999/xlink">
<g id="graph0" class="graph" transform="scale(1 1) rotate(0) translate(4 214)">
<title>dra.func_80133604</title>
<polygon fill="white" stroke="transparent" points="-4,4 -4,-214 831.78,-214 831.78,4 -4,4"/>
<!-- dra.func_80133604 -->
<g id="node1" class="node">
<title>dra.func_80133604</title>
<ellipse fill="red" stroke="black" cx="405.39" cy="-105" rx="100.98" ry="18"/>
<text text-anchor="middle" x="405.39" y="-101.3" font-family="Times,serif" font-size="14.00">dra.func_80133604</text>
</g>
<!-- dra.func_801324B4 -->
<g id="node2" class="node">
<title>dra.func_801324B4</title>
<g id="a_node2"><a xlink:href="dra.func_801324B4.svg" xlink:title="dra.func_801324B4">
<ellipse fill="green" stroke="black" cx="101.39" cy="-18" rx="101.28" ry="18"/>
<text text-anchor="middle" x="101.39" y="-14.3" font-family="Times,serif" font-size="14.00">dra.func_801324B4</text>
</a>
</g>
</g>
<!-- dra.func_80133604&#45;&gt;dra.func_801324B4 -->
<g id="edge1" class="edge">
<title>dra.func_80133604&#45;&gt;dra.func_801324B4</title>
<path fill="none" stroke="black" d="M353.48,-89.48C300.76,-74.75 219.14,-51.92 163.14,-36.27"/>
<polygon fill="black" stroke="black" points="163.92,-32.85 153.35,-33.53 162.03,-39.59 163.92,-32.85"/>
<text text-anchor="middle" x="277.39" y="-57.8" font-family="Times,serif" font-size="14.00">1</text>
</g>
<!-- SsSetSerialAttr -->
<g id="node3" class="node">
<title>SsSetSerialAttr</title>
<g id="a_node3"><a xlink:href="SsSetSerialAttr.svg" xlink:title="SsSetSerialAttr">
<ellipse fill="lightblue" stroke="black" cx="304.39" cy="-18" rx="83.39" ry="18"/>
<text text-anchor="middle" x="304.39" y="-14.3" font-family="Times,serif" font-size="14.00">SsSetSerialAttr</text>
</a>
</g>
</g>
<!-- dra.func_80133604&#45;&gt;SsSetSerialAttr -->
<g id="edge2" class="edge">
<title>dra.func_80133604&#45;&gt;SsSetSerialAttr</title>
<path fill="none" stroke="black" d="M385.44,-87.21C370.22,-74.4 349.08,-56.61 332.2,-42.4"/>
<polygon fill="black" stroke="black" points="334.21,-39.52 324.3,-35.76 329.7,-44.88 334.21,-39.52"/>
<text text-anchor="middle" x="366.39" y="-57.8" font-family="Times,serif" font-size="14.00">1</text>
</g>
<!-- dra.func_80132028 -->
<g id="node4" class="node">
<title>dra.func_80132028</title>
<g id="a_node4"><a xlink:href="dra.func_80132028.svg" xlink:title="dra.func_80132028">
<ellipse fill="green" stroke="black" cx="506.39" cy="-18" rx="100.98" ry="18"/>
<text text-anchor="middle" x="506.39" y="-14.3" font-family="Times,serif" font-size="14.00">dra.func_80132028</text>
</a>
</g>
</g>
<!-- dra.func_80133604&#45;&gt;dra.func_80132028 -->
<g id="edge3" class="edge">
<title>dra.func_80133604&#45;&gt;dra.func_80132028</title>
<path fill="none" stroke="black" d="M425.35,-87.21C440.56,-74.4 461.71,-56.61 478.58,-42.4"/>
<polygon fill="black" stroke="black" points="481.08,-44.88 486.48,-35.76 476.57,-39.52 481.08,-44.88"/>
<text text-anchor="middle" x="467.39" y="-57.8" font-family="Times,serif" font-size="14.00">1</text>
</g>
<!-- dra.func_80132E38 -->
<g id="node5" class="node">
<title>dra.func_80132E38</title>
<g id="a_node5"><a xlink:href="dra.func_80132E38.svg" xlink:title="dra.func_80132E38">
<ellipse fill="green" stroke="black" cx="726.39" cy="-18" rx="101.28" ry="18"/>
<text text-anchor="middle" x="726.39" y="-14.3" font-family="Times,serif" font-size="14.00">dra.func_80132E38</text>
</a>
</g>
</g>
<!-- dra.func_80133604&#45;&gt;dra.func_80132E38 -->
<g id="edge4" class="edge">
<title>dra.func_80133604&#45;&gt;dra.func_80132E38</title>
<path fill="none" stroke="black" d="M459.12,-89.77C515.25,-74.91 603.26,-51.6 662.82,-35.83"/>
<polygon fill="black" stroke="black" points="663.72,-39.22 672.49,-33.27 661.92,-32.45 663.72,-39.22"/>
<text text-anchor="middle" x="589.39" y="-57.8" font-family="Times,serif" font-size="14.00">1</text>
</g>
<!-- dra.func_801353A0 -->
<g id="node6" class="node">
<title>dra.func_801353A0</title>
<g id="a_node6"><a xlink:href="dra.func_801353A0.svg" xlink:title="dra.func_801353A0">
<ellipse fill="green" stroke="black" cx="405.39" cy="-192" rx="100.98" ry="18"/>
<text text-anchor="middle" x="405.39" y="-188.3" font-family="Times,serif" font-size="14.00">dra.func_801353A0</text>
</a>
</g>
</g>
<!-- dra.func_801353A0&#45;&gt;dra.func_80133604 -->
<g id="edge5" class="edge">
<title>dra.func_801353A0&#45;&gt;dra.func_80133604</title>
<path fill="none" stroke="black" d="M405.39,-173.8C405.39,-162.16 405.39,-146.55 405.39,-133.24"/>
<polygon fill="black" stroke="black" points="408.89,-133.18 405.39,-123.18 401.89,-133.18 408.89,-133.18"/>
<text text-anchor="middle" x="410.39" y="-144.8" font-family="Times,serif" font-size="14.00">1</text>
</g>
</g>
</svg>
