<?xml version="1.0" encoding="UTF-8" standalone="no"?>
<!DOCTYPE svg PUBLIC "-//W3C//DTD SVG 1.1//EN"
 "http://www.w3.org/Graphics/SVG/1.1/DTD/svg11.dtd">
<!-- Generated by graphviz version 2.43.0 (0)
 -->
<!-- Title: dra.func_80103ED4 Pages: 1 -->
<svg width="2092pt" height="404pt"
 viewBox="0.00 0.00 2091.84 404.00" xmlns="http://www.w3.org/2000/svg" xmlns:xlink="http://www.w3.org/1999/xlink">
<g id="graph0" class="graph" transform="scale(1 1) rotate(0) translate(4 400)">
<title>dra.func_80103ED4</title>
<polygon fill="white" stroke="transparent" points="-4,4 -4,-400 2087.84,-400 2087.84,4 -4,4"/>
<!-- dra.func_80103ED4 -->
<g id="node1" class="node">
<title>dra.func_80103ED4</title>
<ellipse fill="red" stroke="black" cx="1123.34" cy="-198" rx="102.88" ry="18"/>
<text text-anchor="middle" x="1123.34" y="-194.3" font-family="Times,serif" font-size="14.00">dra.func_80103ED4</text>
</g>
<!-- dra.MemcardWriteFile -->
<g id="node2" class="node">
<title>dra.MemcardWriteFile</title>
<g id="a_node2"><a xlink:href="dra.MemcardWriteFile.svg" xlink:title="dra.MemcardWriteFile">
<ellipse fill="green" stroke="black" cx="116.34" cy="-18" rx="116.18" ry="18"/>
<text text-anchor="middle" x="116.34" y="-14.3" font-family="Times,serif" font-size="14.00">dra.MemcardWriteFile</text>
</a>
</g>
</g>
<!-- dra.func_80103ED4&#45;&gt;dra.MemcardWriteFile -->
<g id="edge1" class="edge">
<title>dra.func_80103ED4&#45;&gt;dra.MemcardWriteFile</title>
<path fill="none" stroke="black" d="M1053.73,-184.7C873.88,-152.9 394.27,-68.13 199.9,-33.77"/>
<polygon fill="black" stroke="black" points="200.48,-30.32 190.02,-32.02 199.26,-37.21 200.48,-30.32"/>
<text text-anchor="middle" x="185.02" y="-35.82" font-family="Times,serif" font-size="14.00">1</text>
</g>
<!-- dra.StoreSaveData -->
<g id="node3" class="node">
<title>dra.StoreSaveData</title>
<g id="a_node3"><a xlink:href="dra.StoreSaveData.svg" xlink:title="dra.StoreSaveData">
<ellipse fill="red" stroke="black" cx="349.34" cy="-18" rx="98.58" ry="18"/>
<text text-anchor="middle" x="349.34" y="-14.3" font-family="Times,serif" font-size="14.00">dra.StoreSaveData</text>
</a>
</g>
</g>
<!-- dra.func_80103ED4&#45;&gt;dra.StoreSaveData -->
<g id="edge2" class="edge">
<title>dra.func_80103ED4&#45;&gt;dra.StoreSaveData</title>
<path fill="none" stroke="black" d="M1063.57,-183.25C922.23,-150.75 568.09,-69.31 418.14,-34.82"/>
<polygon fill="black" stroke="black" points="418.66,-31.35 408.13,-32.52 417.09,-38.17 418.66,-31.35"/>
<text text-anchor="middle" x="403.13" y="-36.32" font-family="Times,serif" font-size="14.00">1</text>
</g>
<!-- dra.func_800E92E4 -->
<g id="node4" class="node">
<title>dra.func_800E92E4</title>
<g id="a_node4"><a xlink:href="dra.func_800E92E4.svg" xlink:title="dra.func_800E92E4">
<ellipse fill="green" stroke="black" cx="568.34" cy="-18" rx="102.88" ry="18"/>
<text text-anchor="middle" x="568.34" y="-14.3" font-family="Times,serif" font-size="14.00">dra.func_800E92E4</text>
</a>
</g>
</g>
<!-- dra.func_80103ED4&#45;&gt;dra.func_800E92E4 -->
<g id="edge3" class="edge">
<title>dra.func_80103ED4&#45;&gt;dra.func_800E92E4</title>
<path fill="none" stroke="black" d="M1076.5,-181.98C974.9,-149.39 734.61,-72.33 624.83,-37.12"/>
<polygon fill="black" stroke="black" points="625.84,-33.77 615.25,-34.05 623.7,-40.43 625.84,-33.77"/>
<text text-anchor="middle" x="610.25" y="-37.85" font-family="Times,serif" font-size="14.00">2</text>
</g>
<!-- dra.func_800E930C -->
<g id="node5" class="node">
<title>dra.func_800E930C</title>
<g id="a_node5"><a xlink:href="dra.func_800E930C.svg" xlink:title="dra.func_800E930C">
<ellipse fill="red" stroke="black" cx="791.34" cy="-18" rx="102.88" ry="18"/>
<text text-anchor="middle" x="791.34" y="-14.3" font-family="Times,serif" font-size="14.00">dra.func_800E930C</text>
</a>
</g>
</g>
<!-- dra.func_80103ED4&#45;&gt;dra.func_800E930C -->
<g id="edge4" class="edge">
<title>dra.func_80103ED4&#45;&gt;dra.func_800E930C</title>
<path fill="none" stroke="black" d="M1093,-180.73C1032.76,-148.44 898.12,-76.25 830.98,-40.25"/>
<polygon fill="black" stroke="black" points="832.44,-37.06 821.97,-35.42 829.13,-43.23 832.44,-37.06"/>
<text text-anchor="middle" x="816.97" y="-39.22" font-family="Times,serif" font-size="14.00">1</text>
</g>
<!-- dra.func_800E9508 -->
<g id="node6" class="node">
<title>dra.func_800E9508</title>
<g id="a_node6"><a xlink:href="dra.func_800E9508.svg" xlink:title="dra.func_800E9508">
<ellipse fill="green" stroke="black" cx="1013.34" cy="-18" rx="101.28" ry="18"/>
<text text-anchor="middle" x="1013.34" y="-14.3" font-family="Times,serif" font-size="14.00">dra.func_800E9508</text>
</a>
</g>
</g>
<!-- dra.func_80103ED4&#45;&gt;dra.func_800E9508 -->
<g id="edge5" class="edge">
<title>dra.func_80103ED4&#45;&gt;dra.func_800E9508</title>
<path fill="none" stroke="black" d="M1112.79,-179.93C1093.41,-148.57 1052.03,-81.6 1029.23,-44.71"/>
<polygon fill="black" stroke="black" points="1032.09,-42.68 1023.86,-36.02 1026.13,-46.36 1032.09,-42.68"/>
<text text-anchor="middle" x="1018.86" y="-39.82" font-family="Times,serif" font-size="14.00">3</text>
</g>
<!-- dra.func_800E9530 -->
<g id="node7" class="node">
<title>dra.func_800E9530</title>
<g id="a_node7"><a xlink:href="dra.func_800E9530.svg" xlink:title="dra.func_800E9530">
<ellipse fill="red" stroke="black" cx="1234.34" cy="-18" rx="101.28" ry="18"/>
<text text-anchor="middle" x="1234.34" y="-14.3" font-family="Times,serif" font-size="14.00">dra.func_800E9530</text>
</a>
</g>
</g>
<!-- dra.func_80103ED4&#45;&gt;dra.func_800E9530 -->
<g id="edge6" class="edge">
<title>dra.func_80103ED4&#45;&gt;dra.func_800E9530</title>
<path fill="none" stroke="black" d="M1133.98,-179.93C1153.54,-148.57 1195.3,-81.6 1218.31,-44.71"/>
<polygon fill="black" stroke="black" points="1221.41,-46.35 1223.73,-36.02 1215.47,-42.65 1221.41,-46.35"/>
<text text-anchor="middle" x="1218.73" y="-39.82" font-family="Times,serif" font-size="14.00">3</text>
</g>
<!-- dra.func_800E9804 -->
<g id="node8" class="node">
<title>dra.func_800E9804</title>
<g id="a_node8"><a xlink:href="dra.func_800E9804.svg" xlink:title="dra.func_800E9804">
<ellipse fill="green" stroke="black" cx="1455.34" cy="-18" rx="101.28" ry="18"/>
<text text-anchor="middle" x="1455.34" y="-14.3" font-family="Times,serif" font-size="14.00">dra.func_800E9804</text>
</a>
</g>
</g>
<!-- dra.func_80103ED4&#45;&gt;dra.func_800E9804 -->
<g id="edge7" class="edge">
<title>dra.func_80103ED4&#45;&gt;dra.func_800E9804</title>
<path fill="none" stroke="black" d="M1153.68,-180.73C1213.92,-148.44 1348.56,-76.25 1415.7,-40.25"/>
<polygon fill="black" stroke="black" points="1417.55,-43.23 1424.71,-35.42 1414.24,-37.06 1417.55,-43.23"/>
<text text-anchor="middle" x="1419.71" y="-39.22" font-family="Times,serif" font-size="14.00">1</text>
</g>
<!-- dra.func_800E9880 -->
<g id="node9" class="node">
<title>dra.func_800E9880</title>
<g id="a_node9"><a xlink:href="dra.func_800E9880.svg" xlink:title="dra.func_800E9880">
<ellipse fill="red" stroke="black" cx="1676.34" cy="-18" rx="101.28" ry="18"/>
<text text-anchor="middle" x="1676.34" y="-14.3" font-family="Times,serif" font-size="14.00">dra.func_800E9880</text>
</a>
</g>
</g>
<!-- dra.func_80103ED4&#45;&gt;dra.func_800E9880 -->
<g id="edge8" class="edge">
<title>dra.func_80103ED4&#45;&gt;dra.func_800E9880</title>
<path fill="none" stroke="black" d="M1170.49,-181.82C1272.03,-149.14 1511.02,-72.21 1620.18,-37.08"/>
<polygon fill="black" stroke="black" points="1621.25,-40.41 1629.7,-34.01 1619.11,-33.74 1621.25,-40.41"/>
<text text-anchor="middle" x="1624.7" y="-37.81" font-family="Times,serif" font-size="14.00">1</text>
</g>
<!-- dra.func_800EA48C -->
<g id="node10" class="node">
<title>dra.func_800EA48C</title>
<g id="a_node10"><a xlink:href="dra.func_800EA48C.svg" xlink:title="dra.func_800EA48C">
<ellipse fill="green" stroke="black" cx="1898.34" cy="-18" rx="102.88" ry="18"/>
<text text-anchor="middle" x="1898.34" y="-14.3" font-family="Times,serif" font-size="14.00">dra.func_800EA48C</text>
</a>
</g>
</g>
<!-- dra.func_80103ED4&#45;&gt;dra.func_800EA48C -->
<g id="edge9" class="edge">
<title>dra.func_80103ED4&#45;&gt;dra.func_800EA48C</title>
<path fill="none" stroke="black" d="M1182.87,-183.33C1323.88,-150.94 1677.77,-69.66 1828.54,-35.03"/>
<polygon fill="black" stroke="black" points="1829.65,-38.37 1838.61,-32.72 1828.08,-31.55 1829.65,-38.37"/>
<text text-anchor="middle" x="1833.61" y="-36.52" font-family="Times,serif" font-size="14.00">3</text>
</g>
<!-- rand -->
<g id="node11" class="node">
<title>rand</title>
<g id="a_node11"><a xlink:href="rand.svg" xlink:title="rand">
<ellipse fill="lightblue" stroke="black" cx="2051.34" cy="-18" rx="32.49" ry="18"/>
<text text-anchor="middle" x="2051.34" y="-14.3" font-family="Times,serif" font-size="14.00">rand</text>
</a>
</g>
</g>
<!-- dra.func_80103ED4&#45;&gt;rand -->
<g id="edge10" class="edge">
<title>dra.func_80103ED4&#45;&gt;rand</title>
<path fill="none" stroke="black" d="M1207.88,-187.76C1367.27,-168.99 1722.07,-120.86 2010.34,-36 2012.65,-35.32 2015,-34.55 2017.36,-33.73"/>
<polygon fill="black" stroke="black" points="2018.81,-36.92 2026.93,-30.12 2016.34,-30.38 2018.81,-36.92"/>
<text text-anchor="middle" x="2021.93" y="-33.92" font-family="Times,serif" font-size="14.00">1</text>
</g>
<!-- dra.func_80105428 -->
<g id="node12" class="node">
<title>dra.func_80105428</title>
<g id="a_node12"><a xlink:href="dra.func_80105428.svg" xlink:title="dra.func_80105428">
<ellipse fill="red" stroke="black" cx="1123.34" cy="-378" rx="100.98" ry="18"/>
<text text-anchor="middle" x="1123.34" y="-374.3" font-family="Times,serif" font-size="14.00">dra.func_80105428</text>
</a>
</g>
</g>
<!-- dra.func_80105428&#45;&gt;dra.func_80103ED4 -->
<g id="edge11" class="edge">
<title>dra.func_80105428&#45;&gt;dra.func_80103ED4</title>
<path fill="none" stroke="black" d="M1123.34,-359.93C1123.34,-328.97 1123.34,-263.3 1123.34,-226.13"/>
<polygon fill="black" stroke="black" points="1126.84,-226.02 1123.34,-216.02 1119.84,-226.02 1126.84,-226.02"/>
<text text-anchor="middle" x="1118.34" y="-348.73" font-family="Times,serif" font-size="14.00">1</text>
</g>
</g>
</svg>
