<?xml version="1.0" encoding="UTF-8" standalone="no"?>
<!DOCTYPE svg PUBLIC "-//W3C//DTD SVG 1.1//EN"
 "http://www.w3.org/Graphics/SVG/1.1/DTD/svg11.dtd">
<!-- Generated by graphviz version 2.43.0 (0)
 -->
<!-- Title: dra.func_801119C4 Pages: 1 -->
<svg width="548pt" height="404pt"
 viewBox="0.00 0.00 547.79 404.00" xmlns="http://www.w3.org/2000/svg" xmlns:xlink="http://www.w3.org/1999/xlink">
<g id="graph0" class="graph" transform="scale(1 1) rotate(0) translate(4 400)">
<title>dra.func_801119C4</title>
<polygon fill="white" stroke="transparent" points="-4,4 -4,-400 543.79,-400 543.79,4 -4,4"/>
<!-- dra.func_801119C4 -->
<g id="node1" class="node">
<title>dra.func_801119C4</title>
<ellipse fill="red" stroke="black" cx="320.74" cy="-198" rx="101.28" ry="18"/>
<text text-anchor="middle" x="320.74" y="-194.3" font-family="Times,serif" font-size="14.00">dra.func_801119C4</text>
</g>
<!-- dra.func_80111938 -->
<g id="node2" class="node">
<title>dra.func_80111938</title>
<g id="a_node2"><a xlink:href="dra.func_80111938.svg" xlink:title="dra.func_80111938">
<ellipse fill="green" stroke="black" cx="100.74" cy="-18" rx="100.98" ry="18"/>
<text text-anchor="middle" x="100.74" y="-14.3" font-family="Times,serif" font-size="14.00">dra.func_80111938</text>
</a>
</g>
</g>
<!-- dra.func_801119C4&#45;&gt;dra.func_80111938 -->
<g id="edge1" class="edge">
<title>dra.func_801119C4&#45;&gt;dra.func_80111938</title>
<path fill="none" stroke="black" d="M300.04,-180.25C260.57,-148.32 174.46,-78.65 129.45,-42.23"/>
<polygon fill="black" stroke="black" points="131.52,-39.4 121.54,-35.83 127.12,-44.84 131.52,-39.4"/>
<text text-anchor="middle" x="116.54" y="-39.63" font-family="Times,serif" font-size="14.00">1</text>
</g>
<!-- dra.func_8011197C -->
<g id="node3" class="node">
<title>dra.func_8011197C</title>
<g id="a_node3"><a xlink:href="dra.func_8011197C.svg" xlink:title="dra.func_8011197C">
<ellipse fill="green" stroke="black" cx="320.74" cy="-18" rx="101.28" ry="18"/>
<text text-anchor="middle" x="320.74" y="-14.3" font-family="Times,serif" font-size="14.00">dra.func_8011197C</text>
</a>
</g>
</g>
<!-- dra.func_801119C4&#45;&gt;dra.func_8011197C -->
<g id="edge2" class="edge">
<title>dra.func_801119C4&#45;&gt;dra.func_8011197C</title>
<path fill="none" stroke="black" d="M320.74,-179.93C320.74,-148.97 320.74,-83.3 320.74,-46.13"/>
<polygon fill="black" stroke="black" points="324.24,-46.02 320.74,-36.02 317.24,-46.02 324.24,-46.02"/>
<text text-anchor="middle" x="315.74" y="-39.82" font-family="Times,serif" font-size="14.00">1</text>
</g>
<!-- FntPrint -->
<g id="node4" class="node">
<title>FntPrint</title>
<g id="a_node4"><a xlink:href="FntPrint.svg" xlink:title="FntPrint">
<ellipse fill="lightblue" stroke="black" cx="489.74" cy="-18" rx="50.09" ry="18"/>
<text text-anchor="middle" x="489.74" y="-14.3" font-family="Times,serif" font-size="14.00">FntPrint</text>
</a>
</g>
</g>
<!-- dra.func_801119C4&#45;&gt;FntPrint -->
<g id="edge3" class="edge">
<title>dra.func_801119C4&#45;&gt;FntPrint</title>
<path fill="none" stroke="black" d="M336.95,-179.93C367.21,-148.06 432.37,-79.42 467.01,-42.94"/>
<polygon fill="black" stroke="black" points="469.97,-44.9 474.32,-35.24 464.9,-40.08 469.97,-44.9"/>
<text text-anchor="middle" x="469.32" y="-39.04" font-family="Times,serif" font-size="14.00">1</text>
</g>
<!-- dra.EntityAlucard -->
<g id="node5" class="node">
<title>dra.EntityAlucard</title>
<g id="a_node5"><a xlink:href="dra.EntityAlucard.svg" xlink:title="dra.EntityAlucard">
<ellipse fill="red" stroke="black" cx="320.74" cy="-378" rx="93.68" ry="18"/>
<text text-anchor="middle" x="320.74" y="-374.3" font-family="Times,serif" font-size="14.00">dra.EntityAlucard</text>
</a>
</g>
</g>
<!-- dra.EntityAlucard&#45;&gt;dra.func_801119C4 -->
<g id="edge4" class="edge">
<title>dra.EntityAlucard&#45;&gt;dra.func_801119C4</title>
<path fill="none" stroke="black" d="M320.74,-359.93C320.74,-328.97 320.74,-263.3 320.74,-226.13"/>
<polygon fill="black" stroke="black" points="324.24,-226.02 320.74,-216.02 317.24,-226.02 324.24,-226.02"/>
<text text-anchor="middle" x="315.74" y="-348.73" font-family="Times,serif" font-size="14.00">1</text>
</g>
</g>
</svg>
