<?xml version="1.0" encoding="UTF-8" standalone="no"?>
<!DOCTYPE svg PUBLIC "-//W3C//DTD SVG 1.1//EN"
 "http://www.w3.org/Graphics/SVG/1.1/DTD/svg11.dtd">
<!-- Generated by graphviz version 2.43.0 (0)
 -->
<!-- Title: dra.GetStatusAilmentTimer Pages: 1 -->
<svg width="1016pt" height="404pt"
 viewBox="0.00 0.00 1015.88 404.00" xmlns="http://www.w3.org/2000/svg" xmlns:xlink="http://www.w3.org/1999/xlink">
<g id="graph0" class="graph" transform="scale(1 1) rotate(0) translate(4 400)">
<title>dra.GetStatusAilmentTimer</title>
<polygon fill="white" stroke="transparent" points="-4,4 -4,-400 1011.88,-400 1011.88,4 -4,4"/>
<!-- dra.GetStatusAilmentTimer -->
<g id="node1" class="node">
<title>dra.GetStatusAilmentTimer</title>
<ellipse fill="green" stroke="black" cx="486.04" cy="-198" rx="139.98" ry="18"/>
<text text-anchor="middle" x="486.04" y="-194.3" font-family="Times,serif" font-size="14.00">dra.GetStatusAilmentTimer</text>
</g>
<!-- rand -->
<g id="node2" class="node">
<title>rand</title>
<g id="a_node2"><a xlink:href="rand.svg" xlink:title="rand">
<ellipse fill="lightblue" stroke="black" cx="382.04" cy="-18" rx="32.49" ry="18"/>
<text text-anchor="middle" x="382.04" y="-14.3" font-family="Times,serif" font-size="14.00">rand</text>
</a>
</g>
</g>
<!-- dra.GetStatusAilmentTimer&#45;&gt;rand -->
<g id="edge1" class="edge">
<title>dra.GetStatusAilmentTimer&#45;&gt;rand</title>
<path fill="none" stroke="black" d="M476.07,-179.93C457.68,-148.46 418.35,-81.15 396.84,-44.33"/>
<polygon fill="black" stroke="black" points="399.6,-42.11 391.53,-35.24 393.55,-45.64 399.6,-42.11"/>
<text text-anchor="middle" x="386.53" y="-39.04" font-family="Times,serif" font-size="14.00">1</text>
</g>
<!-- dra.CheckEquipmentItemCount -->
<g id="node3" class="node">
<title>dra.CheckEquipmentItemCount</title>
<g id="a_node3"><a xlink:href="dra.CheckEquipmentItemCount.svg" xlink:title="dra.CheckEquipmentItemCount">
<ellipse fill="green" stroke="black" cx="590.04" cy="-18" rx="157.87" ry="18"/>
<text text-anchor="middle" x="590.04" y="-14.3" font-family="Times,serif" font-size="14.00">dra.CheckEquipmentItemCount</text>
</a>
</g>
</g>
<!-- dra.GetStatusAilmentTimer&#45;&gt;dra.CheckEquipmentItemCount -->
<g id="edge2" class="edge">
<title>dra.GetStatusAilmentTimer&#45;&gt;dra.CheckEquipmentItemCount</title>
<path fill="none" stroke="black" d="M496.01,-179.93C514.34,-148.57 553.46,-81.6 575.02,-44.71"/>
<polygon fill="black" stroke="black" points="578.08,-46.42 580.1,-36.02 572.03,-42.88 578.08,-46.42"/>
<text text-anchor="middle" x="575.1" y="-39.82" font-family="Times,serif" font-size="14.00">1</text>
</g>
<!-- dra.func_8010FB68 -->
<g id="node4" class="node">
<title>dra.func_8010FB68</title>
<g id="a_node4"><a xlink:href="dra.func_8010FB68.svg" xlink:title="dra.func_8010FB68">
<ellipse fill="green" stroke="black" cx="102.04" cy="-378" rx="102.08" ry="18"/>
<text text-anchor="middle" x="102.04" y="-374.3" font-family="Times,serif" font-size="14.00">dra.func_8010FB68</text>
</a>
</g>
</g>
<!-- dra.func_8010FB68&#45;&gt;dra.GetStatusAilmentTimer -->
<g id="edge3" class="edge">
<title>dra.func_8010FB68&#45;&gt;dra.GetStatusAilmentTimer</title>
<path fill="none" stroke="black" d="M136.46,-361.05C206.01,-328.8 363.29,-255.9 440.94,-219.91"/>
<polygon fill="black" stroke="black" points="442.85,-222.88 450.45,-215.5 439.91,-216.53 442.85,-222.88"/>
<text text-anchor="middle" x="131.46" y="-349.85" font-family="Times,serif" font-size="14.00">1</text>
</g>
<!-- dra.AlucardHandleDamage -->
<g id="node5" class="node">
<title>dra.AlucardHandleDamage</title>
<g id="a_node5"><a xlink:href="dra.AlucardHandleDamage.svg" xlink:title="dra.AlucardHandleDamage">
<ellipse fill="red" stroke="black" cx="358.04" cy="-378" rx="135.68" ry="18"/>
<text text-anchor="middle" x="358.04" y="-374.3" font-family="Times,serif" font-size="14.00">dra.AlucardHandleDamage</text>
</a>
</g>
</g>
<!-- dra.AlucardHandleDamage&#45;&gt;dra.GetStatusAilmentTimer -->
<g id="edge4" class="edge">
<title>dra.AlucardHandleDamage&#45;&gt;dra.GetStatusAilmentTimer</title>
<path fill="none" stroke="black" d="M370.31,-359.93C392.96,-328.43 441.43,-261.03 467.89,-224.24"/>
<polygon fill="black" stroke="black" points="470.81,-226.18 473.8,-216.02 465.13,-222.09 470.81,-226.18"/>
<text text-anchor="middle" x="365.31" y="-348.73" font-family="Times,serif" font-size="14.00">2</text>
</g>
<!-- dra.func_80114DF4 -->
<g id="node6" class="node">
<title>dra.func_80114DF4</title>
<g id="a_node6"><a xlink:href="dra.func_80114DF4.svg" xlink:title="dra.func_80114DF4">
<ellipse fill="red" stroke="black" cx="615.04" cy="-378" rx="102.88" ry="18"/>
<text text-anchor="middle" x="615.04" y="-374.3" font-family="Times,serif" font-size="14.00">dra.func_80114DF4</text>
</a>
</g>
</g>
<!-- dra.func_80114DF4&#45;&gt;dra.GetStatusAilmentTimer -->
<g id="edge5" class="edge">
<title>dra.func_80114DF4&#45;&gt;dra.GetStatusAilmentTimer</title>
<path fill="none" stroke="black" d="M602.67,-359.93C579.84,-328.43 531,-261.03 504.33,-224.24"/>
<polygon fill="black" stroke="black" points="507.07,-222.06 498.37,-216.02 501.41,-226.17 507.07,-222.06"/>
<text text-anchor="middle" x="597.67" y="-348.73" font-family="Times,serif" font-size="14.00">1</text>
</g>
<!-- dra.EntityPlayerPinkEffect -->
<g id="node7" class="node">
<title>dra.EntityPlayerPinkEffect</title>
<g id="a_node7"><a xlink:href="dra.EntityPlayerPinkEffect.svg" xlink:title="dra.EntityPlayerPinkEffect">
<ellipse fill="red" stroke="black" cx="872.04" cy="-378" rx="135.68" ry="18"/>
<text text-anchor="middle" x="872.04" y="-374.3" font-family="Times,serif" font-size="14.00">dra.EntityPlayerPinkEffect</text>
</a>
</g>
</g>
<!-- dra.EntityPlayerPinkEffect&#45;&gt;dra.GetStatusAilmentTimer -->
<g id="edge6" class="edge">
<title>dra.EntityPlayerPinkEffect&#45;&gt;dra.GetStatusAilmentTimer</title>
<path fill="none" stroke="black" d="M836.42,-360.57C765.99,-328.1 609.05,-255.72 531.38,-219.91"/>
<polygon fill="black" stroke="black" points="532.4,-216.53 521.86,-215.52 529.47,-222.88 532.4,-216.53"/>
<text text-anchor="middle" x="831.42" y="-349.37" font-family="Times,serif" font-size="14.00">1</text>
</g>
</g>
</svg>
