<?xml version="1.0" encoding="UTF-8" standalone="no"?>
<!DOCTYPE svg PUBLIC "-//W3C//DTD SVG 1.1//EN"
 "http://www.w3.org/Graphics/SVG/1.1/DTD/svg11.dtd">
<!-- Generated by graphviz version 2.43.0 (0)
 -->
<!-- Title: dra.func_80134714 Pages: 1 -->
<svg width="9728pt" height="131pt"
 viewBox="0.00 0.00 9727.78 131.00" xmlns="http://www.w3.org/2000/svg" xmlns:xlink="http://www.w3.org/1999/xlink">
<g id="graph0" class="graph" transform="scale(1 1) rotate(0) translate(4 127)">
<title>dra.func_80134714</title>
<polygon fill="white" stroke="transparent" points="-4,4 -4,-127 9723.78,-127 9723.78,4 -4,4"/>
<!-- dra.func_80134714 -->
<g id="node1" class="node">
<title>dra.func_80134714</title>
<ellipse fill="green" stroke="black" cx="4559.24" cy="-18" rx="100.98" ry="18"/>
<text text-anchor="middle" x="4559.24" y="-14.3" font-family="Times,serif" font-size="14.00">dra.func_80134714</text>
</g>
<!-- rwrp.func_80193644 -->
<g id="node2" class="node">
<title>rwrp.func_80193644</title>
<g id="a_node2"><a xlink:href="rwrp.func_80193644.svg" xlink:title="rwrp.func_80193644">
<ellipse fill="red" stroke="black" cx="107.24" cy="-105" rx="107.48" ry="18"/>
<text text-anchor="middle" x="107.24" y="-101.3" font-family="Times,serif" font-size="14.00">rwrp.func_80193644</text>
</a>
</g>
</g>
<!-- rwrp.func_80193644&#45;&gt;dra.func_80134714 -->
<g id="edge1" class="edge">
<title>rwrp.func_80193644&#45;&gt;dra.func_80134714</title>
<path fill="none" stroke="black" d="M182.97,-92.24C196.37,-90.35 210.2,-88.52 223.24,-87 392.95,-67.27 435.58,-62.1 606.24,-54 1384.26,-17.09 3890.23,-18.12 4448.37,-18.82"/>
<polygon fill="black" stroke="black" points="4448.42,-22.32 4458.43,-18.84 4448.43,-15.32 4448.42,-22.32"/>
<text text-anchor="middle" x="611.24" y="-57.8" font-family="Times,serif" font-size="14.00">1</text>
</g>
<!-- rwrp.func_8018C948 -->
<g id="node3" class="node">
<title>rwrp.func_8018C948</title>
<g id="a_node3"><a xlink:href="rwrp.func_8018C948.svg" xlink:title="rwrp.func_8018C948">
<ellipse fill="red" stroke="black" cx="341.24" cy="-105" rx="108.58" ry="18"/>
<text text-anchor="middle" x="341.24" y="-101.3" font-family="Times,serif" font-size="14.00">rwrp.func_8018C948</text>
</a>
</g>
</g>
<!-- rwrp.func_8018C948&#45;&gt;dra.func_80134714 -->
<g id="edge2" class="edge">
<title>rwrp.func_8018C948&#45;&gt;dra.func_80134714</title>
<path fill="none" stroke="black" d="M417.94,-92.23C431.36,-90.35 445.19,-88.52 458.24,-87 623.98,-67.66 665.57,-62.12 832.24,-54 1562.75,-18.4 3909.24,-18.38 4448.18,-18.86"/>
<polygon fill="black" stroke="black" points="4448.28,-22.36 4458.28,-18.87 4448.29,-15.36 4448.28,-22.36"/>
<text text-anchor="middle" x="837.24" y="-57.8" font-family="Times,serif" font-size="14.00">6</text>
</g>
<!-- dre.EntityRedDoor -->
<g id="node4" class="node">
<title>dre.EntityRedDoor</title>
<g id="a_node4"><a xlink:href="dre.EntityRedDoor.svg" xlink:title="dre.EntityRedDoor">
<ellipse fill="red" stroke="black" cx="566.24" cy="-105" rx="98.58" ry="18"/>
<text text-anchor="middle" x="566.24" y="-101.3" font-family="Times,serif" font-size="14.00">dre.EntityRedDoor</text>
</a>
</g>
</g>
<!-- dre.EntityRedDoor&#45;&gt;dra.func_80134714 -->
<g id="edge3" class="edge">
<title>dre.EntityRedDoor&#45;&gt;dra.func_80134714</title>
<path fill="none" stroke="black" d="M635.48,-92.15C648.02,-90.25 661,-88.44 673.24,-87 864.93,-64.51 913.42,-62.32 1106.24,-54 1779.71,-24.95 3934.55,-19.93 4448.44,-19.14"/>
<polygon fill="black" stroke="black" points="4448.46,-22.64 4458.45,-19.12 4448.45,-15.64 4448.46,-22.64"/>
<text text-anchor="middle" x="1111.24" y="-57.8" font-family="Times,serif" font-size="14.00">6</text>
</g>
<!-- dre.EntitySuccubusClone -->
<g id="node5" class="node">
<title>dre.EntitySuccubusClone</title>
<g id="a_node5"><a xlink:href="dre.EntitySuccubusClone.svg" xlink:title="dre.EntitySuccubusClone">
<ellipse fill="green" stroke="black" cx="811.24" cy="-105" rx="128.88" ry="18"/>
<text text-anchor="middle" x="811.24" y="-101.3" font-family="Times,serif" font-size="14.00">dre.EntitySuccubusClone</text>
</a>
</g>
</g>
<!-- dre.EntitySuccubusClone&#45;&gt;dra.func_80134714 -->
<g id="edge4" class="edge">
<title>dre.EntitySuccubusClone&#45;&gt;dra.func_80134714</title>
<path fill="none" stroke="black" d="M902.19,-92.25C1002.6,-79.91 1169.13,-61.3 1313.24,-54 1943.19,-22.1 3953.21,-19.23 4448.26,-19.01"/>
<polygon fill="black" stroke="black" points="4448.62,-22.51 4458.62,-19 4448.62,-15.51 4448.62,-22.51"/>
<text text-anchor="middle" x="1318.24" y="-57.8" font-family="Times,serif" font-size="14.00">1</text>
</g>
<!-- dre.func_801A046C -->
<g id="node6" class="node">
<title>dre.func_801A046C</title>
<g id="a_node6"><a xlink:href="dre.func_801A046C.svg" xlink:title="dre.func_801A046C">
<ellipse fill="green" stroke="black" cx="1060.24" cy="-105" rx="102.08" ry="18"/>
<text text-anchor="middle" x="1060.24" y="-101.3" font-family="Times,serif" font-size="14.00">dre.func_801A046C</text>
</a>
</g>
</g>
<!-- dre.func_801A046C&#45;&gt;dra.func_80134714 -->
<g id="edge5" class="edge">
<title>dre.func_801A046C&#45;&gt;dra.func_80134714</title>
<path fill="none" stroke="black" d="M1132.7,-92.26C1145.52,-90.36 1158.76,-88.53 1171.24,-87 1330.72,-67.5 1370.78,-62.27 1531.24,-54 2115.78,-23.88 3974.31,-19.68 4448.35,-19.09"/>
<polygon fill="black" stroke="black" points="4448.62,-22.59 4458.61,-19.08 4448.61,-15.59 4448.62,-22.59"/>
<text text-anchor="middle" x="1536.24" y="-57.8" font-family="Times,serif" font-size="14.00">1</text>
</g>
<!-- cen.EntityRedDoor -->
<g id="node7" class="node">
<title>cen.EntityRedDoor</title>
<g id="a_node7"><a xlink:href="cen.EntityRedDoor.svg" xlink:title="cen.EntityRedDoor">
<ellipse fill="red" stroke="black" cx="1279.24" cy="-105" rx="98.58" ry="18"/>
<text text-anchor="middle" x="1279.24" y="-101.3" font-family="Times,serif" font-size="14.00">cen.EntityRedDoor</text>
</a>
</g>
</g>
<!-- cen.EntityRedDoor&#45;&gt;dra.func_80134714 -->
<g id="edge6" class="edge">
<title>cen.EntityRedDoor&#45;&gt;dra.func_80134714</title>
<path fill="none" stroke="black" d="M1349.44,-92.26C1362.01,-90.36 1375,-88.52 1387.24,-87 1548.45,-67.03 1589.01,-62.35 1751.24,-54 2290.17,-26.25 3996.8,-20.32 4448.6,-19.22"/>
<polygon fill="black" stroke="black" points="4448.73,-22.72 4458.72,-19.2 4448.71,-15.72 4448.73,-22.72"/>
<text text-anchor="middle" x="1756.24" y="-57.8" font-family="Times,serif" font-size="14.00">6</text>
</g>
<!-- cen.func_8019A328 -->
<g id="node8" class="node">
<title>cen.func_8019A328</title>
<g id="a_node8"><a xlink:href="cen.func_8019A328.svg" xlink:title="cen.func_8019A328">
<ellipse fill="green" stroke="black" cx="1497.24" cy="-105" rx="101.28" ry="18"/>
<text text-anchor="middle" x="1497.24" y="-101.3" font-family="Times,serif" font-size="14.00">cen.func_8019A328</text>
</a>
</g>
</g>
<!-- cen.func_8019A328&#45;&gt;dra.func_80134714 -->
<g id="edge7" class="edge">
<title>cen.func_8019A328&#45;&gt;dra.func_80134714</title>
<path fill="none" stroke="black" d="M1569.4,-92.29C1582.31,-90.39 1595.66,-88.54 1608.24,-87 1768.61,-67.43 1808.9,-62.43 1970.24,-54 2463.68,-28.21 4018.89,-20.9 4448.4,-19.35"/>
<polygon fill="black" stroke="black" points="4448.65,-22.85 4458.64,-19.32 4448.63,-15.85 4448.65,-22.85"/>
<text text-anchor="middle" x="1975.24" y="-57.8" font-family="Times,serif" font-size="14.00">1</text>
</g>
<!-- st0.EntityRedDoor -->
<g id="node9" class="node">
<title>st0.EntityRedDoor</title>
<g id="a_node9"><a xlink:href="st0.EntityRedDoor.svg" xlink:title="st0.EntityRedDoor">
<ellipse fill="red" stroke="black" cx="1714.24" cy="-105" rx="97.48" ry="18"/>
<text text-anchor="middle" x="1714.24" y="-101.3" font-family="Times,serif" font-size="14.00">st0.EntityRedDoor</text>
</a>
</g>
</g>
<!-- st0.EntityRedDoor&#45;&gt;dra.func_80134714 -->
<g id="edge8" class="edge">
<title>st0.EntityRedDoor&#45;&gt;dra.func_80134714</title>
<path fill="none" stroke="black" d="M1783.13,-92.18C1795.46,-90.28 1808.21,-88.47 1820.24,-87 1994.67,-65.74 2038.73,-62.65 2214.24,-54 2657.38,-32.16 4045.5,-22.14 4448.51,-19.64"/>
<polygon fill="black" stroke="black" points="4448.73,-23.14 4458.71,-19.58 4448.69,-16.14 4448.73,-23.14"/>
<text text-anchor="middle" x="2219.24" y="-57.8" font-family="Times,serif" font-size="14.00">6</text>
</g>
<!-- st0.func_801B9DB0 -->
<g id="node10" class="node">
<title>st0.func_801B9DB0</title>
<g id="a_node10"><a xlink:href="st0.func_801B9DB0.svg" xlink:title="st0.func_801B9DB0">
<ellipse fill="green" stroke="black" cx="1932.24" cy="-105" rx="102.88" ry="18"/>
<text text-anchor="middle" x="1932.24" y="-101.3" font-family="Times,serif" font-size="14.00">st0.func_801B9DB0</text>
</a>
</g>
</g>
<!-- st0.func_801B9DB0&#45;&gt;dra.func_80134714 -->
<g id="edge9" class="edge">
<title>st0.func_801B9DB0&#45;&gt;dra.func_80134714</title>
<path fill="none" stroke="black" d="M2004.73,-92.17C2017.86,-90.27 2031.44,-88.45 2044.24,-87 2240.43,-64.84 2290.01,-63 2487.24,-54 3235.72,-19.83 4137.66,-18.09 4448.03,-18.63"/>
<polygon fill="black" stroke="black" points="4448.37,-22.13 4458.38,-18.65 4448.38,-15.13 4448.37,-22.13"/>
<text text-anchor="middle" x="2492.24" y="-57.8" font-family="Times,serif" font-size="14.00">1</text>
</g>
<!-- no3.EntityAlucardSplash -->
<g id="node11" class="node">
<title>no3.EntityAlucardSplash</title>
<g id="a_node11"><a xlink:href="no3.EntityAlucardSplash.svg" xlink:title="no3.EntityAlucardSplash">
<ellipse fill="red" stroke="black" cx="2179.24" cy="-105" rx="126.18" ry="18"/>
<text text-anchor="middle" x="2179.24" y="-101.3" font-family="Times,serif" font-size="14.00">no3.EntityAlucardSplash</text>
</a>
</g>
</g>
<!-- no3.EntityAlucardSplash&#45;&gt;dra.func_80134714 -->
<g id="edge10" class="edge">
<title>no3.EntityAlucardSplash&#45;&gt;dra.func_80134714</title>
<path fill="none" stroke="black" d="M2268.13,-92.22C2283.49,-90.35 2299.32,-88.53 2314.24,-87 2498.74,-68.08 2544.99,-63.11 2730.24,-54 3380.81,-22 4162.87,-18.81 4448.2,-18.81"/>
<polygon fill="black" stroke="black" points="4448.55,-22.31 4458.55,-18.81 4448.55,-15.31 4448.55,-22.31"/>
<text text-anchor="middle" x="2735.24" y="-57.8" font-family="Times,serif" font-size="14.00">1</text>
</g>
<!-- no3.func_801CAD28 -->
<g id="node12" class="node">
<title>no3.func_801CAD28</title>
<g id="a_node12"><a xlink:href="no3.func_801CAD28.svg" xlink:title="no3.func_801CAD28">
<ellipse fill="green" stroke="black" cx="2428.24" cy="-105" rx="104.78" ry="18"/>
<text text-anchor="middle" x="2428.24" y="-101.3" font-family="Times,serif" font-size="14.00">no3.func_801CAD28</text>
</a>
</g>
</g>
<!-- no3.func_801CAD28&#45;&gt;dra.func_80134714 -->
<g id="edge11" class="edge">
<title>no3.func_801CAD28&#45;&gt;dra.func_80134714</title>
<path fill="none" stroke="black" d="M2501.71,-92.13C2515.17,-90.22 2529.11,-88.4 2542.24,-87 2766.33,-63.03 2823.09,-63.94 3048.24,-54 3572.14,-30.86 4198.94,-22.52 4448.68,-19.97"/>
<polygon fill="black" stroke="black" points="4448.88,-23.47 4458.85,-19.87 4448.81,-16.47 4448.88,-23.47"/>
<text text-anchor="middle" x="3053.24" y="-57.8" font-family="Times,serif" font-size="14.00">1</text>
</g>
<!-- no3.EntityLargeUpwardsSplash -->
<g id="node13" class="node">
<title>no3.EntityLargeUpwardsSplash</title>
<g id="a_node13"><a xlink:href="no3.EntityLargeUpwardsSplash.svg" xlink:title="no3.EntityLargeUpwardsSplash">
<ellipse fill="red" stroke="black" cx="2710.24" cy="-105" rx="159.47" ry="18"/>
<text text-anchor="middle" x="2710.24" y="-101.3" font-family="Times,serif" font-size="14.00">no3.EntityLargeUpwardsSplash</text>
</a>
</g>
</g>
<!-- no3.EntityLargeUpwardsSplash&#45;&gt;dra.func_80134714 -->
<g id="edge12" class="edge">
<title>no3.EntityLargeUpwardsSplash&#45;&gt;dra.func_80134714</title>
<path fill="none" stroke="black" d="M2819.25,-91.85C2929.72,-80.05 3105.63,-62.69 3258.24,-54 3698.69,-28.92 4224.08,-21.74 4448.63,-19.74"/>
<polygon fill="black" stroke="black" points="4448.8,-23.24 4458.77,-19.65 4448.74,-16.24 4448.8,-23.24"/>
<text text-anchor="middle" x="3263.24" y="-57.8" font-family="Times,serif" font-size="14.00">1</text>
</g>
<!-- no3.EntityUnkId29 -->
<g id="node14" class="node">
<title>no3.EntityUnkId29</title>
<g id="a_node14"><a xlink:href="no3.EntityUnkId29.svg" xlink:title="no3.EntityUnkId29">
<ellipse fill="green" stroke="black" cx="2987.24" cy="-105" rx="99.38" ry="18"/>
<text text-anchor="middle" x="2987.24" y="-101.3" font-family="Times,serif" font-size="14.00">no3.EntityUnkId29</text>
</a>
</g>
</g>
<!-- no3.EntityUnkId29&#45;&gt;dra.func_80134714 -->
<g id="edge13" class="edge">
<title>no3.EntityUnkId29&#45;&gt;dra.func_80134714</title>
<path fill="none" stroke="black" d="M3057.79,-92.22C3070.56,-90.31 3083.78,-88.47 3096.24,-87 3276.47,-65.67 3322.05,-64.34 3503.24,-54 3848.23,-34.31 4257.3,-24.65 4449.34,-20.91"/>
<polygon fill="black" stroke="black" points="4449.51,-24.41 4459.44,-20.72 4449.37,-17.41 4449.51,-24.41"/>
<text text-anchor="middle" x="3508.24" y="-57.8" font-family="Times,serif" font-size="14.00">1</text>
</g>
<!-- no3.EntityRedDoor -->
<g id="node15" class="node">
<title>no3.EntityRedDoor</title>
<g id="a_node15"><a xlink:href="no3.EntityRedDoor.svg" xlink:title="no3.EntityRedDoor">
<ellipse fill="red" stroke="black" cx="3205.24" cy="-105" rx="100.18" ry="18"/>
<text text-anchor="middle" x="3205.24" y="-101.3" font-family="Times,serif" font-size="14.00">no3.EntityRedDoor</text>
</a>
</g>
</g>
<!-- no3.EntityRedDoor&#45;&gt;dra.func_80134714 -->
<g id="edge14" class="edge">
<title>no3.EntityRedDoor&#45;&gt;dra.func_80134714</title>
<path fill="none" stroke="black" d="M3275.79,-92.21C3288.56,-90.3 3301.78,-88.47 3314.24,-87 3731.39,-37.75 4231.46,-24.09 4449.07,-20.37"/>
<polygon fill="black" stroke="black" points="4449.28,-23.86 4459.22,-20.2 4449.16,-16.87 4449.28,-23.86"/>
<text text-anchor="middle" x="3660.24" y="-57.8" font-family="Times,serif" font-size="14.00">6</text>
</g>
<!-- np3.func_801B5DE8 -->
<g id="node16" class="node">
<title>np3.func_801B5DE8</title>
<g id="a_node16"><a xlink:href="np3.func_801B5DE8.svg" xlink:title="np3.func_801B5DE8">
<ellipse fill="green" stroke="black" cx="3429.24" cy="-105" rx="105.88" ry="18"/>
<text text-anchor="middle" x="3429.24" y="-101.3" font-family="Times,serif" font-size="14.00">np3.func_801B5DE8</text>
</a>
</g>
</g>
<!-- np3.func_801B5DE8&#45;&gt;dra.func_80134714 -->
<g id="edge15" class="edge">
<title>np3.func_801B5DE8&#45;&gt;dra.func_80134714</title>
<path fill="none" stroke="black" d="M3504.31,-92.24C3517.6,-90.35 3531.31,-88.52 3544.24,-87 3873.43,-48.37 4265.45,-29.84 4451.27,-22.69"/>
<polygon fill="black" stroke="black" points="4451.46,-26.19 4461.32,-22.31 4451.19,-19.19 4451.46,-26.19"/>
<text text-anchor="middle" x="3884.24" y="-57.8" font-family="Times,serif" font-size="14.00">1</text>
</g>
<!-- np3.EntityRedDoor -->
<g id="node17" class="node">
<title>np3.EntityRedDoor</title>
<g id="a_node17"><a xlink:href="np3.EntityRedDoor.svg" xlink:title="np3.EntityRedDoor">
<ellipse fill="red" stroke="black" cx="3654.24" cy="-105" rx="100.98" ry="18"/>
<text text-anchor="middle" x="3654.24" y="-101.3" font-family="Times,serif" font-size="14.00">np3.EntityRedDoor</text>
</a>
</g>
</g>
<!-- np3.EntityRedDoor&#45;&gt;dra.func_80134714 -->
<g id="edge16" class="edge">
<title>np3.EntityRedDoor&#45;&gt;dra.func_80134714</title>
<path fill="none" stroke="black" d="M3725.39,-92.26C3737.98,-90.36 3750.98,-88.53 3763.24,-87 4010.63,-56.21 4303.04,-35.13 4455.29,-25.31"/>
<polygon fill="black" stroke="black" points="4455.8,-28.78 4465.56,-24.65 4455.35,-21.8 4455.8,-28.78"/>
<text text-anchor="middle" x="4074.24" y="-57.8" font-family="Times,serif" font-size="14.00">6</text>
</g>
<!-- np3.func_801C56D8 -->
<g id="node18" class="node">
<title>np3.func_801C56D8</title>
<g id="a_node18"><a xlink:href="np3.func_801C56D8.svg" xlink:title="np3.func_801C56D8">
<ellipse fill="red" stroke="black" cx="3877.24" cy="-105" rx="104.78" ry="18"/>
<text text-anchor="middle" x="3877.24" y="-101.3" font-family="Times,serif" font-size="14.00">np3.func_801C56D8</text>
</a>
</g>
</g>
<!-- np3.func_801C56D8&#45;&gt;dra.func_80134714 -->
<g id="edge17" class="edge">
<title>np3.func_801C56D8&#45;&gt;dra.func_80134714</title>
<path fill="none" stroke="black" d="M3952.26,-92.39C3964.93,-90.52 3977.95,-88.66 3990.24,-87 4157.49,-64.43 4352.92,-41.92 4465.75,-29.29"/>
<polygon fill="black" stroke="black" points="4466.19,-32.76 4475.74,-28.18 4465.41,-25.81 4466.19,-32.76"/>
<text text-anchor="middle" x="4245.24" y="-57.8" font-family="Times,serif" font-size="14.00">1</text>
</g>
<!-- np3.func_801C4DCC -->
<g id="node19" class="node">
<title>np3.func_801C4DCC</title>
<g id="a_node19"><a xlink:href="np3.func_801C4DCC.svg" xlink:title="np3.func_801C4DCC">
<ellipse fill="red" stroke="black" cx="4106.24" cy="-105" rx="106.68" ry="18"/>
<text text-anchor="middle" x="4106.24" y="-101.3" font-family="Times,serif" font-size="14.00">np3.func_801C4DCC</text>
</a>
</g>
</g>
<!-- np3.func_801C4DCC&#45;&gt;dra.func_80134714 -->
<g id="edge18" class="edge">
<title>np3.func_801C4DCC&#45;&gt;dra.func_80134714</title>
<path fill="none" stroke="black" d="M4175.04,-91.09C4257.78,-75.57 4396.24,-49.59 4482.4,-33.42"/>
<polygon fill="black" stroke="black" points="4483.2,-36.83 4492.38,-31.55 4481.91,-29.95 4483.2,-36.83"/>
<text text-anchor="middle" x="4365.24" y="-57.8" font-family="Times,serif" font-size="14.00">1</text>
</g>
<!-- np3.func_801C2598 -->
<g id="node20" class="node">
<title>np3.func_801C2598</title>
<g id="a_node20"><a xlink:href="np3.func_801C2598.svg" xlink:title="np3.func_801C2598">
<ellipse fill="green" stroke="black" cx="4334.24" cy="-105" rx="103.18" ry="18"/>
<text text-anchor="middle" x="4334.24" y="-101.3" font-family="Times,serif" font-size="14.00">np3.func_801C2598</text>
</a>
</g>
</g>
<!-- np3.func_801C2598&#45;&gt;dra.func_80134714 -->
<g id="edge19" class="edge">
<title>np3.func_801C2598&#45;&gt;dra.func_80134714</title>
<path fill="none" stroke="black" d="M4375.51,-88.41C4413.01,-74.24 4468.46,-53.29 4508.63,-38.12"/>
<polygon fill="black" stroke="black" points="4510.12,-41.3 4518.23,-34.49 4507.64,-34.75 4510.12,-41.3"/>
<text text-anchor="middle" x="4465.24" y="-57.8" font-family="Times,serif" font-size="14.00">1</text>
</g>
<!-- nz0.func_801C29B0 -->
<g id="node21" class="node">
<title>nz0.func_801C29B0</title>
<g id="a_node21"><a xlink:href="nz0.func_801C29B0.svg" xlink:title="nz0.func_801C29B0">
<ellipse fill="green" stroke="black" cx="4559.24" cy="-105" rx="103.18" ry="18"/>
<text text-anchor="middle" x="4559.24" y="-101.3" font-family="Times,serif" font-size="14.00">nz0.func_801C29B0</text>
</a>
</g>
</g>
<!-- nz0.func_801C29B0&#45;&gt;dra.func_80134714 -->
<g id="edge20" class="edge">
<title>nz0.func_801C29B0&#45;&gt;dra.func_80134714</title>
<path fill="none" stroke="black" d="M4559.24,-86.8C4559.24,-75.16 4559.24,-59.55 4559.24,-46.24"/>
<polygon fill="black" stroke="black" points="4562.74,-46.18 4559.24,-36.18 4555.74,-46.18 4562.74,-46.18"/>
<text text-anchor="middle" x="4564.24" y="-57.8" font-family="Times,serif" font-size="14.00">1</text>
</g>
<!-- nz0.EntityRedDoor -->
<g id="node22" class="node">
<title>nz0.EntityRedDoor</title>
<g id="a_node22"><a xlink:href="nz0.EntityRedDoor.svg" xlink:title="nz0.EntityRedDoor">
<ellipse fill="red" stroke="black" cx="4780.24" cy="-105" rx="99.38" ry="18"/>
<text text-anchor="middle" x="4780.24" y="-101.3" font-family="Times,serif" font-size="14.00">nz0.EntityRedDoor</text>
</a>
</g>
</g>
<!-- nz0.EntityRedDoor&#45;&gt;dra.func_80134714 -->
<g id="edge21" class="edge">
<title>nz0.EntityRedDoor&#45;&gt;dra.func_80134714</title>
<path fill="none" stroke="black" d="M4739.96,-88.51C4703.24,-74.38 4648.84,-53.46 4609.32,-38.26"/>
<polygon fill="black" stroke="black" points="4610.2,-34.85 4599.61,-34.53 4607.69,-41.39 4610.2,-34.85"/>
<text text-anchor="middle" x="4688.24" y="-57.8" font-family="Times,serif" font-size="14.00">6</text>
</g>
<!-- nz0.func_801B8F94 -->
<g id="node23" class="node">
<title>nz0.func_801B8F94</title>
<g id="a_node23"><a xlink:href="nz0.func_801B8F94.svg" xlink:title="nz0.func_801B8F94">
<ellipse fill="red" stroke="black" cx="5000.24" cy="-105" rx="102.88" ry="18"/>
<text text-anchor="middle" x="5000.24" y="-101.3" font-family="Times,serif" font-size="14.00">nz0.func_801B8F94</text>
</a>
</g>
</g>
<!-- nz0.func_801B8F94&#45;&gt;dra.func_80134714 -->
<g id="edge22" class="edge">
<title>nz0.func_801B8F94&#45;&gt;dra.func_80134714</title>
<path fill="none" stroke="black" d="M4933.74,-91.18C4853.62,-75.74 4719.33,-49.86 4635.2,-33.64"/>
<polygon fill="black" stroke="black" points="4635.68,-30.17 4625.2,-31.71 4634.36,-37.04 4635.68,-30.17"/>
<text text-anchor="middle" x="4811.24" y="-57.8" font-family="Times,serif" font-size="14.00">1</text>
</g>
<!-- wrp.func_801916C4 -->
<g id="node24" class="node">
<title>wrp.func_801916C4</title>
<g id="a_node24"><a xlink:href="wrp.func_801916C4.svg" xlink:title="wrp.func_801916C4">
<ellipse fill="green" stroke="black" cx="5225.24" cy="-105" rx="103.98" ry="18"/>
<text text-anchor="middle" x="5225.24" y="-101.3" font-family="Times,serif" font-size="14.00">wrp.func_801916C4</text>
</a>
</g>
</g>
<!-- wrp.func_801916C4&#45;&gt;dra.func_80134714 -->
<g id="edge23" class="edge">
<title>wrp.func_801916C4&#45;&gt;dra.func_80134714</title>
<path fill="none" stroke="black" d="M5150.52,-92.47C5137.76,-90.58 5124.62,-88.69 5112.24,-87 4950.53,-64.9 4761.75,-42.39 4651.84,-29.61"/>
<polygon fill="black" stroke="black" points="4652.11,-26.12 4641.78,-28.45 4651.31,-33.08 4652.11,-26.12"/>
<text text-anchor="middle" x="4966.24" y="-57.8" font-family="Times,serif" font-size="14.00">1</text>
</g>
<!-- wrp.EntityRedDoor -->
<g id="node25" class="node">
<title>wrp.EntityRedDoor</title>
<g id="a_node25"><a xlink:href="wrp.EntityRedDoor.svg" xlink:title="wrp.EntityRedDoor">
<ellipse fill="red" stroke="black" cx="5448.24" cy="-105" rx="100.98" ry="18"/>
<text text-anchor="middle" x="5448.24" y="-101.3" font-family="Times,serif" font-size="14.00">wrp.EntityRedDoor</text>
</a>
</g>
</g>
<!-- wrp.EntityRedDoor&#45;&gt;dra.func_80134714 -->
<g id="edge24" class="edge">
<title>wrp.EntityRedDoor&#45;&gt;dra.func_80134714</title>
<path fill="none" stroke="black" d="M5376.73,-92.28C5363.94,-90.38 5350.71,-88.53 5338.24,-87 5096.7,-57.39 4811.47,-35.9 4662.17,-25.68"/>
<polygon fill="black" stroke="black" points="4662.31,-22.19 4652.09,-25 4661.83,-29.17 4662.31,-22.19"/>
<text text-anchor="middle" x="5173.24" y="-57.8" font-family="Times,serif" font-size="14.00">6</text>
</g>
<!-- w_020.EntityWeaponAttack -->
<g id="node26" class="node">
<title>w_020.EntityWeaponAttack</title>
<g id="a_node26"><a xlink:href="w_020.EntityWeaponAttack.svg" xlink:title="w_020.EntityWeaponAttack">
<ellipse fill="red" stroke="black" cx="5705.24" cy="-105" rx="138.38" ry="18"/>
<text text-anchor="middle" x="5705.24" y="-101.3" font-family="Times,serif" font-size="14.00">w_020.EntityWeaponAttack</text>
</a>
</g>
</g>
<!-- w_020.EntityWeaponAttack&#45;&gt;dra.func_80134714 -->
<g id="edge25" class="edge">
<title>w_020.EntityWeaponAttack&#45;&gt;dra.func_80134714</title>
<path fill="none" stroke="black" d="M5607.23,-92.28C5590.88,-90.44 5574.09,-88.61 5558.24,-87 5391.35,-70.03 5349.56,-66.04 5182.24,-54 5000.95,-40.96 4789.68,-29.98 4665.61,-23.96"/>
<polygon fill="black" stroke="black" points="4665.51,-20.45 4655.35,-23.46 4665.17,-27.44 4665.51,-20.45"/>
<text text-anchor="middle" x="5376.24" y="-57.8" font-family="Times,serif" font-size="14.00">1</text>
</g>
<!-- w_013.EntityWeaponAttack -->
<g id="node27" class="node">
<title>w_013.EntityWeaponAttack</title>
<g id="a_node27"><a xlink:href="w_013.EntityWeaponAttack.svg" xlink:title="w_013.EntityWeaponAttack">
<ellipse fill="red" stroke="black" cx="6000.24" cy="-105" rx="138.38" ry="18"/>
<text text-anchor="middle" x="6000.24" y="-101.3" font-family="Times,serif" font-size="14.00">w_013.EntityWeaponAttack</text>
</a>
</g>
</g>
<!-- w_013.EntityWeaponAttack&#45;&gt;dra.func_80134714 -->
<g id="edge26" class="edge">
<title>w_013.EntityWeaponAttack&#45;&gt;dra.func_80134714</title>
<path fill="none" stroke="black" d="M5902.78,-92.19C5885.94,-90.33 5868.59,-88.52 5852.24,-87 5414.66,-46.43 4891.37,-28.17 4668.45,-21.8"/>
<polygon fill="black" stroke="black" points="4668.48,-18.3 4658.39,-21.52 4668.28,-25.3 4668.48,-18.3"/>
<text text-anchor="middle" x="5611.24" y="-57.8" font-family="Times,serif" font-size="14.00">2</text>
</g>
<!-- w_013.func_ptr_80170008 -->
<g id="node28" class="node">
<title>w_013.func_ptr_80170008</title>
<g id="a_node28"><a xlink:href="w_013.func_ptr_80170008.svg" xlink:title="w_013.func_ptr_80170008">
<ellipse fill="red" stroke="black" cx="6290.24" cy="-105" rx="133.48" ry="18"/>
<text text-anchor="middle" x="6290.24" y="-101.3" font-family="Times,serif" font-size="14.00">w_013.func_ptr_80170008</text>
</a>
</g>
</g>
<!-- w_013.func_ptr_80170008&#45;&gt;dra.func_80134714 -->
<g id="edge27" class="edge">
<title>w_013.func_ptr_80170008&#45;&gt;dra.func_80134714</title>
<path fill="none" stroke="black" d="M6196.86,-92.14C6180.35,-90.26 6163.3,-88.46 6147.24,-87 5594,-36.83 4928.88,-23.52 4669.95,-20.12"/>
<polygon fill="black" stroke="black" points="4669.83,-16.61 4659.79,-19.98 4669.74,-23.61 4669.83,-16.61"/>
<text text-anchor="middle" x="5893.24" y="-57.8" font-family="Times,serif" font-size="14.00">1</text>
</g>
<!-- w_046.EntityWeaponAttack -->
<g id="node29" class="node">
<title>w_046.EntityWeaponAttack</title>
<g id="a_node29"><a xlink:href="w_046.EntityWeaponAttack.svg" xlink:title="w_046.EntityWeaponAttack">
<ellipse fill="red" stroke="black" cx="6580.24" cy="-105" rx="138.38" ry="18"/>
<text text-anchor="middle" x="6580.24" y="-101.3" font-family="Times,serif" font-size="14.00">w_046.EntityWeaponAttack</text>
</a>
</g>
</g>
<!-- w_046.EntityWeaponAttack&#45;&gt;dra.func_80134714 -->
<g id="edge28" class="edge">
<title>w_046.EntityWeaponAttack&#45;&gt;dra.func_80134714</title>
<path fill="none" stroke="black" d="M6483.19,-92.12C6466.22,-90.25 6448.73,-88.46 6432.24,-87 6197.15,-66.19 6138.02,-64.41 5902.24,-54 5444.48,-33.79 4898.39,-23.99 4669.12,-20.52"/>
<polygon fill="black" stroke="black" points="4669.16,-17.02 4659.11,-20.37 4669.05,-24.02 4669.16,-17.02"/>
<text text-anchor="middle" x="6208.24" y="-57.8" font-family="Times,serif" font-size="14.00">1</text>
</g>
<!-- w_014.EntityWeaponAttack -->
<g id="node30" class="node">
<title>w_014.EntityWeaponAttack</title>
<g id="a_node30"><a xlink:href="w_014.EntityWeaponAttack.svg" xlink:title="w_014.EntityWeaponAttack">
<ellipse fill="red" stroke="black" cx="6875.24" cy="-105" rx="138.38" ry="18"/>
<text text-anchor="middle" x="6875.24" y="-101.3" font-family="Times,serif" font-size="14.00">w_014.EntityWeaponAttack</text>
</a>
</g>
</g>
<!-- w_014.EntityWeaponAttack&#45;&gt;dra.func_80134714 -->
<g id="edge29" class="edge">
<title>w_014.EntityWeaponAttack&#45;&gt;dra.func_80134714</title>
<path fill="none" stroke="black" d="M6778.19,-92.15C6761.22,-90.28 6743.73,-88.48 6727.24,-87 6501.01,-66.7 6444.17,-63.73 6217.24,-54 5634.7,-29.02 4936.22,-21.66 4669.81,-19.67"/>
<polygon fill="black" stroke="black" points="4669.77,-16.17 4659.75,-19.6 4669.72,-23.17 4669.77,-16.17"/>
<text text-anchor="middle" x="6512.24" y="-57.8" font-family="Times,serif" font-size="14.00">1</text>
</g>
<!-- w_042.EntityWeaponAttack -->
<g id="node31" class="node">
<title>w_042.EntityWeaponAttack</title>
<g id="a_node31"><a xlink:href="w_042.EntityWeaponAttack.svg" xlink:title="w_042.EntityWeaponAttack">
<ellipse fill="red" stroke="black" cx="7170.24" cy="-105" rx="138.38" ry="18"/>
<text text-anchor="middle" x="7170.24" y="-101.3" font-family="Times,serif" font-size="14.00">w_042.EntityWeaponAttack</text>
</a>
</g>
</g>
<!-- w_042.EntityWeaponAttack&#45;&gt;dra.func_80134714 -->
<g id="edge30" class="edge">
<title>w_042.EntityWeaponAttack&#45;&gt;dra.func_80134714</title>
<path fill="none" stroke="black" d="M7072.79,-92.12C7055.95,-90.27 7038.6,-88.48 7022.24,-87 6800,-66.93 6744.19,-63.33 6521.24,-54 5816.92,-24.54 4969.36,-19.84 4670.27,-19.12"/>
<polygon fill="black" stroke="black" points="4669.87,-15.62 4659.86,-19.09 4669.85,-22.62 4669.87,-15.62"/>
<text text-anchor="middle" x="6811.24" y="-57.8" font-family="Times,serif" font-size="14.00">1</text>
</g>
<!-- w_030.func_ptr_80170004 -->
<g id="node32" class="node">
<title>w_030.func_ptr_80170004</title>
<g id="a_node32"><a xlink:href="w_030.func_ptr_80170004.svg" xlink:title="w_030.func_ptr_80170004">
<ellipse fill="red" stroke="black" cx="7460.24" cy="-105" rx="133.48" ry="18"/>
<text text-anchor="middle" x="7460.24" y="-101.3" font-family="Times,serif" font-size="14.00">w_030.func_ptr_80170004</text>
</a>
</g>
</g>
<!-- w_030.func_ptr_80170004&#45;&gt;dra.func_80134714 -->
<g id="edge31" class="edge">
<title>w_030.func_ptr_80170004&#45;&gt;dra.func_80134714</title>
<path fill="none" stroke="black" d="M7366.47,-92.15C7350.08,-90.27 7333.17,-88.47 7317.24,-87 7096.81,-66.59 7041.43,-63.05 6820.24,-54 5995.17,-20.24 4999.53,-18.33 4670.62,-18.72"/>
<polygon fill="black" stroke="black" points="4670.14,-15.22 4660.14,-18.74 4670.15,-22.22 4670.14,-15.22"/>
<text text-anchor="middle" x="7108.24" y="-57.8" font-family="Times,serif" font-size="14.00">1</text>
</g>
<!-- w_030.func_ptr_80170010 -->
<g id="node33" class="node">
<title>w_030.func_ptr_80170010</title>
<g id="a_node33"><a xlink:href="w_030.func_ptr_80170010.svg" xlink:title="w_030.func_ptr_80170010">
<ellipse fill="red" stroke="black" cx="7744.24" cy="-105" rx="133.48" ry="18"/>
<text text-anchor="middle" x="7744.24" y="-101.3" font-family="Times,serif" font-size="14.00">w_030.func_ptr_80170010</text>
</a>
</g>
</g>
<!-- w_030.func_ptr_80170010&#45;&gt;dra.func_80134714 -->
<g id="edge32" class="edge">
<title>w_030.func_ptr_80170010&#45;&gt;dra.func_80134714</title>
<path fill="none" stroke="black" d="M7650.74,-92.12C7634.58,-90.26 7617.94,-88.47 7602.24,-87 7387.13,-66.82 7333.11,-62.81 7117.24,-54 6629.86,-34.1 5095.65,-22.58 4669.82,-19.71"/>
<polygon fill="black" stroke="black" points="4669.69,-16.21 4659.66,-19.64 4669.64,-23.21 4669.69,-16.21"/>
<text text-anchor="middle" x="7398.24" y="-57.8" font-family="Times,serif" font-size="14.00">1</text>
</g>
<!-- w_041.EntityWeaponAttack -->
<g id="node34" class="node">
<title>w_041.EntityWeaponAttack</title>
<g id="a_node34"><a xlink:href="w_041.EntityWeaponAttack.svg" xlink:title="w_041.EntityWeaponAttack">
<ellipse fill="red" stroke="black" cx="8034.24" cy="-105" rx="138.38" ry="18"/>
<text text-anchor="middle" x="8034.24" y="-101.3" font-family="Times,serif" font-size="14.00">w_041.EntityWeaponAttack</text>
</a>
</g>
</g>
<!-- w_041.EntityWeaponAttack&#45;&gt;dra.func_80134714 -->
<g id="edge33" class="edge">
<title>w_041.EntityWeaponAttack&#45;&gt;dra.func_80134714</title>
<path fill="none" stroke="black" d="M7936.78,-92.17C7919.94,-90.3 7902.59,-88.5 7886.24,-87 7673.74,-67.49 7620.46,-62.65 7407.24,-54 6859.75,-31.79 5125.74,-21.81 4669.9,-19.52"/>
<polygon fill="black" stroke="black" points="4669.72,-16.02 4659.7,-19.47 4669.68,-23.02 4669.72,-16.02"/>
<text text-anchor="middle" x="7684.24" y="-57.8" font-family="Times,serif" font-size="14.00">1</text>
</g>
<!-- w_012.func_ptr_80170004 -->
<g id="node35" class="node">
<title>w_012.func_ptr_80170004</title>
<g id="a_node35"><a xlink:href="w_012.func_ptr_80170004.svg" xlink:title="w_012.func_ptr_80170004">
<ellipse fill="red" stroke="black" cx="8324.24" cy="-105" rx="133.48" ry="18"/>
<text text-anchor="middle" x="8324.24" y="-101.3" font-family="Times,serif" font-size="14.00">w_012.func_ptr_80170004</text>
</a>
</g>
</g>
<!-- w_012.func_ptr_80170004&#45;&gt;dra.func_80134714 -->
<g id="edge34" class="edge">
<title>w_012.func_ptr_80170004&#45;&gt;dra.func_80134714</title>
<path fill="none" stroke="black" d="M8230.47,-92.16C8214.08,-90.29 8197.17,-88.48 8181.24,-87 7964.79,-66.83 7910.46,-62.55 7693.24,-54 7086.23,-30.11 5153.96,-21.27 4669.98,-19.4"/>
<polygon fill="black" stroke="black" points="4669.86,-15.9 4659.85,-19.36 4669.83,-22.9 4669.86,-15.9"/>
<text text-anchor="middle" x="7975.24" y="-57.8" font-family="Times,serif" font-size="14.00">2</text>
</g>
<!-- w_040.EntityWeaponAttack -->
<g id="node36" class="node">
<title>w_040.EntityWeaponAttack</title>
<g id="a_node36"><a xlink:href="w_040.EntityWeaponAttack.svg" xlink:title="w_040.EntityWeaponAttack">
<ellipse fill="red" stroke="black" cx="8614.24" cy="-105" rx="138.38" ry="18"/>
<text text-anchor="middle" x="8614.24" y="-101.3" font-family="Times,serif" font-size="14.00">w_040.EntityWeaponAttack</text>
</a>
</g>
</g>
<!-- w_040.EntityWeaponAttack&#45;&gt;dra.func_80134714 -->
<g id="edge35" class="edge">
<title>w_040.EntityWeaponAttack&#45;&gt;dra.func_80134714</title>
<path fill="none" stroke="black" d="M8516.78,-92.16C8499.94,-90.3 8482.6,-88.5 8466.24,-87 8252.41,-67.41 8198.8,-62.43 7984.24,-54 7316.66,-27.76 5182.25,-20.62 4670.36,-19.26"/>
<polygon fill="black" stroke="black" points="4670.03,-15.76 4660.02,-19.24 4670.01,-22.76 4670.03,-15.76"/>
<text text-anchor="middle" x="8263.24" y="-57.8" font-family="Times,serif" font-size="14.00">1</text>
</g>
<!-- ric.func_8016E9E4 -->
<g id="node37" class="node">
<title>ric.func_8016E9E4</title>
<g id="a_node37"><a xlink:href="ric.func_8016E9E4.svg" xlink:title="ric.func_8016E9E4">
<ellipse fill="red" stroke="black" cx="8869.24" cy="-105" rx="98.58" ry="18"/>
<text text-anchor="middle" x="8869.24" y="-101.3" font-family="Times,serif" font-size="14.00">ric.func_8016E9E4</text>
</a>
</g>
</g>
<!-- ric.func_8016E9E4&#45;&gt;dra.func_80134714 -->
<g id="edge36" class="edge">
<title>ric.func_8016E9E4&#45;&gt;dra.func_80134714</title>
<path fill="none" stroke="black" d="M8799.94,-92.16C8787.1,-90.23 8773.78,-88.41 8761.24,-87 8544.77,-62.71 8489.91,-62.36 8272.24,-54 7544.15,-26.02 5206.72,-20.16 4669.87,-19.18"/>
<polygon fill="black" stroke="black" points="4669.81,-15.68 4659.81,-19.16 4669.8,-22.68 4669.81,-15.68"/>
<text text-anchor="middle" x="8579.24" y="-57.8" font-family="Times,serif" font-size="14.00">1</text>
</g>
<!-- ric.func_8016A26C -->
<g id="node38" class="node">
<title>ric.func_8016A26C</title>
<g id="a_node38"><a xlink:href="ric.func_8016A26C.svg" xlink:title="ric.func_8016A26C">
<ellipse fill="red" stroke="black" cx="9085.24" cy="-105" rx="98.58" ry="18"/>
<text text-anchor="middle" x="9085.24" y="-101.3" font-family="Times,serif" font-size="14.00">ric.func_8016A26C</text>
</a>
</g>
</g>
<!-- ric.func_8016A26C&#45;&gt;dra.func_80134714 -->
<g id="edge37" class="edge">
<title>ric.func_8016A26C&#45;&gt;dra.func_80134714</title>
<path fill="none" stroke="black" d="M9015.34,-92.25C9002.68,-90.33 8989.58,-88.49 8977.24,-87 8804.99,-66.16 8761.56,-62.09 8588.24,-54 7794.36,-16.93 5235.51,-18.09 4670.38,-18.82"/>
<polygon fill="black" stroke="black" points="4670.19,-15.32 4660.2,-18.84 4670.2,-22.32 4670.19,-15.32"/>
<text text-anchor="middle" x="8820.24" y="-57.8" font-family="Times,serif" font-size="14.00">1</text>
</g>
<!-- dra.func_8010FDF8 -->
<g id="node39" class="node">
<title>dra.func_8010FDF8</title>
<g id="a_node39"><a xlink:href="dra.func_8010FDF8.svg" xlink:title="dra.func_8010FDF8">
<ellipse fill="green" stroke="black" cx="9304.24" cy="-105" rx="102.88" ry="18"/>
<text text-anchor="middle" x="9304.24" y="-101.3" font-family="Times,serif" font-size="14.00">dra.func_8010FDF8</text>
</a>
</g>
</g>
<!-- dra.func_8010FDF8&#45;&gt;dra.func_80134714 -->
<g id="edge38" class="edge">
<title>dra.func_8010FDF8&#45;&gt;dra.func_80134714</title>
<path fill="none" stroke="black" d="M9231.48,-92.2C9218.76,-90.33 9205.63,-88.51 9193.24,-87 9031.99,-67.36 8991.48,-62.01 8829.24,-54 8403.69,-33 5299.05,-21.49 4670.16,-19.36"/>
<polygon fill="black" stroke="black" points="4669.76,-15.86 4659.74,-19.33 4669.73,-22.86 4669.76,-15.86"/>
<text text-anchor="middle" x="9040.24" y="-57.8" font-family="Times,serif" font-size="14.00">1</text>
</g>
<!-- dra.EntitySubwpnThrownAxe -->
<g id="node40" class="node">
<title>dra.EntitySubwpnThrownAxe</title>
<g id="a_node40"><a xlink:href="dra.EntitySubwpnThrownAxe.svg" xlink:title="dra.EntitySubwpnThrownAxe">
<ellipse fill="red" stroke="black" cx="9572.24" cy="-105" rx="147.57" ry="18"/>
<text text-anchor="middle" x="9572.24" y="-101.3" font-family="Times,serif" font-size="14.00">dra.EntitySubwpnThrownAxe</text>
</a>
</g>
</g>
<!-- dra.EntitySubwpnThrownAxe&#45;&gt;dra.func_80134714 -->
<g id="edge39" class="edge">
<title>dra.EntitySubwpnThrownAxe&#45;&gt;dra.func_80134714</title>
<path fill="none" stroke="black" d="M9472.66,-91.7C9367.59,-79.36 9197.06,-61.21 9049.24,-54 8600.43,-32.11 5317.88,-21.26 4670.09,-19.32"/>
<polygon fill="black" stroke="black" points="4669.84,-15.82 4659.83,-19.29 4669.82,-22.82 4669.84,-15.82"/>
<text text-anchor="middle" x="9255.24" y="-57.8" font-family="Times,serif" font-size="14.00">1</text>
</g>
</g>
</svg>
