<?xml version="1.0" encoding="UTF-8" standalone="no"?>
<!DOCTYPE svg PUBLIC "-//W3C//DTD SVG 1.1//EN"
 "http://www.w3.org/Graphics/SVG/1.1/DTD/svg11.dtd">
<!-- Generated by graphviz version 2.43.0 (0)
 -->
<!-- Title: dra.func_80117D3C Pages: 1 -->
<svg width="845pt" height="404pt"
 viewBox="0.00 0.00 844.73 404.00" xmlns="http://www.w3.org/2000/svg" xmlns:xlink="http://www.w3.org/1999/xlink">
<g id="graph0" class="graph" transform="scale(1 1) rotate(0) translate(4 400)">
<title>dra.func_80117D3C</title>
<polygon fill="white" stroke="transparent" points="-4,4 -4,-400 840.73,-400 840.73,4 -4,4"/>
<!-- dra.func_80117D3C -->
<g id="node1" class="node">
<title>dra.func_80117D3C</title>
<ellipse fill="green" stroke="black" cx="401.04" cy="-198" rx="102.88" ry="18"/>
<text text-anchor="middle" x="401.04" y="-194.3" font-family="Times,serif" font-size="14.00">dra.func_80117D3C</text>
</g>
<!-- dra.IsRelicActive -->
<g id="node2" class="node">
<title>dra.IsRelicActive</title>
<g id="a_node2"><a xlink:href="dra.IsRelicActive.svg" xlink:title="dra.IsRelicActive">
<ellipse fill="green" stroke="black" cx="89.04" cy="-18" rx="89.08" ry="18"/>
<text text-anchor="middle" x="89.04" y="-14.3" font-family="Times,serif" font-size="14.00">dra.IsRelicActive</text>
</a>
</g>
</g>
<!-- dra.func_80117D3C&#45;&gt;dra.IsRelicActive -->
<g id="edge1" class="edge">
<title>dra.func_80117D3C&#45;&gt;dra.IsRelicActive</title>
<path fill="none" stroke="black" d="M372.25,-180.57C315.45,-148.17 189.06,-76.06 126.12,-40.16"/>
<polygon fill="black" stroke="black" points="127.74,-37.05 117.31,-35.13 124.27,-43.13 127.74,-37.05"/>
<text text-anchor="middle" x="112.31" y="-38.93" font-family="Times,serif" font-size="14.00">1</text>
</g>
<!-- dra.SetPlayerStep -->
<g id="node3" class="node">
<title>dra.SetPlayerStep</title>
<g id="a_node3"><a xlink:href="dra.SetPlayerStep.svg" xlink:title="dra.SetPlayerStep">
<ellipse fill="green" stroke="black" cx="292.04" cy="-18" rx="96.38" ry="18"/>
<text text-anchor="middle" x="292.04" y="-14.3" font-family="Times,serif" font-size="14.00">dra.SetPlayerStep</text>
</a>
</g>
</g>
<!-- dra.func_80117D3C&#45;&gt;dra.SetPlayerStep -->
<g id="edge2" class="edge">
<title>dra.func_80117D3C&#45;&gt;dra.SetPlayerStep</title>
<path fill="none" stroke="black" d="M390.59,-179.93C371.38,-148.57 330.38,-81.6 307.78,-44.71"/>
<polygon fill="black" stroke="black" points="310.67,-42.72 302.46,-36.02 304.7,-46.37 310.67,-42.72"/>
<text text-anchor="middle" x="297.46" y="-39.82" font-family="Times,serif" font-size="14.00">1</text>
</g>
<!-- dra.func_800FEEA4 -->
<g id="node4" class="node">
<title>dra.func_800FEEA4</title>
<g id="a_node4"><a xlink:href="dra.func_800FEEA4.svg" xlink:title="dra.func_800FEEA4">
<ellipse fill="red" stroke="black" cx="510.04" cy="-18" rx="103.18" ry="18"/>
<text text-anchor="middle" x="510.04" y="-14.3" font-family="Times,serif" font-size="14.00">dra.func_800FEEA4</text>
</a>
</g>
</g>
<!-- dra.func_80117D3C&#45;&gt;dra.func_800FEEA4 -->
<g id="edge3" class="edge">
<title>dra.func_80117D3C&#45;&gt;dra.func_800FEEA4</title>
<path fill="none" stroke="black" d="M411.49,-179.93C430.7,-148.57 471.71,-81.6 494.3,-44.71"/>
<polygon fill="black" stroke="black" points="497.38,-46.37 499.62,-36.02 491.42,-42.72 497.38,-46.37"/>
<text text-anchor="middle" x="494.62" y="-39.82" font-family="Times,serif" font-size="14.00">1</text>
</g>
<!-- dra.func_8010E27C -->
<g id="node5" class="node">
<title>dra.func_8010E27C</title>
<g id="a_node5"><a xlink:href="dra.func_8010E27C.svg" xlink:title="dra.func_8010E27C">
<ellipse fill="green" stroke="black" cx="734.04" cy="-18" rx="102.88" ry="18"/>
<text text-anchor="middle" x="734.04" y="-14.3" font-family="Times,serif" font-size="14.00">dra.func_8010E27C</text>
</a>
</g>
</g>
<!-- dra.func_80117D3C&#45;&gt;dra.func_8010E27C -->
<g id="edge4" class="edge">
<title>dra.func_80117D3C&#45;&gt;dra.func_8010E27C</title>
<path fill="none" stroke="black" d="M431.48,-180.73C491.89,-148.44 626.94,-76.25 694.28,-40.25"/>
<polygon fill="black" stroke="black" points="696.15,-43.22 703.32,-35.42 692.85,-37.05 696.15,-43.22"/>
<text text-anchor="middle" x="698.32" y="-39.22" font-family="Times,serif" font-size="14.00">1</text>
</g>
<!-- dra.ControlMistForm -->
<g id="node6" class="node">
<title>dra.ControlMistForm</title>
<g id="a_node6"><a xlink:href="dra.ControlMistForm.svg" xlink:title="dra.ControlMistForm">
<ellipse fill="green" stroke="black" cx="401.04" cy="-378" rx="109.38" ry="18"/>
<text text-anchor="middle" x="401.04" y="-374.3" font-family="Times,serif" font-size="14.00">dra.ControlMistForm</text>
</a>
</g>
</g>
<!-- dra.ControlMistForm&#45;&gt;dra.func_80117D3C -->
<g id="edge5" class="edge">
<title>dra.ControlMistForm&#45;&gt;dra.func_80117D3C</title>
<path fill="none" stroke="black" d="M401.04,-359.93C401.04,-328.97 401.04,-263.3 401.04,-226.13"/>
<polygon fill="black" stroke="black" points="404.54,-226.02 401.04,-216.02 397.54,-226.02 404.54,-226.02"/>
<text text-anchor="middle" x="396.04" y="-348.73" font-family="Times,serif" font-size="14.00">1</text>
</g>
</g>
</svg>
