<?xml version="1.0" encoding="UTF-8" standalone="no"?>
<!DOCTYPE svg PUBLIC "-//W3C//DTD SVG 1.1//EN"
 "http://www.w3.org/Graphics/SVG/1.1/DTD/svg11.dtd">
<!-- Generated by graphviz version 2.43.0 (0)
 -->
<!-- Title: dra.func_800F6A48 Pages: 1 -->
<svg width="488pt" height="404pt"
 viewBox="0.00 0.00 488.38 404.00" xmlns="http://www.w3.org/2000/svg" xmlns:xlink="http://www.w3.org/1999/xlink">
<g id="graph0" class="graph" transform="scale(1 1) rotate(0) translate(4 400)">
<title>dra.func_800F6A48</title>
<polygon fill="white" stroke="transparent" points="-4,4 -4,-400 484.38,-400 484.38,4 -4,4"/>
<!-- dra.func_800F6A48 -->
<g id="node1" class="node">
<title>dra.func_800F6A48</title>
<ellipse fill="green" stroke="black" cx="265.69" cy="-198" rx="101.28" ry="18"/>
<text text-anchor="middle" x="265.69" y="-194.3" font-family="Times,serif" font-size="14.00">dra.func_800F6A48</text>
</g>
<!-- dra.func_800EA538 -->
<g id="node2" class="node">
<title>dra.func_800EA538</title>
<g id="a_node2"><a xlink:href="dra.func_800EA538.svg" xlink:title="dra.func_800EA538">
<ellipse fill="green" stroke="black" cx="154.69" cy="-18" rx="102.08" ry="18"/>
<text text-anchor="middle" x="154.69" y="-14.3" font-family="Times,serif" font-size="14.00">dra.func_800EA538</text>
</a>
</g>
</g>
<!-- dra.func_800F6A48&#45;&gt;dra.func_800EA538 -->
<g id="edge1" class="edge">
<title>dra.func_800F6A48&#45;&gt;dra.func_800EA538</title>
<path fill="none" stroke="black" d="M255.04,-179.93C235.49,-148.57 193.73,-81.6 170.72,-44.71"/>
<polygon fill="black" stroke="black" points="173.56,-42.65 165.3,-36.02 167.62,-46.35 173.56,-42.65"/>
<text text-anchor="middle" x="160.3" y="-39.82" font-family="Times,serif" font-size="14.00">1</text>
</g>
<!-- dra.func_800EA5E4 -->
<g id="node3" class="node">
<title>dra.func_800EA5E4</title>
<g id="a_node3"><a xlink:href="dra.func_800EA5E4.svg" xlink:title="dra.func_800EA5E4">
<ellipse fill="green" stroke="black" cx="377.69" cy="-18" rx="102.88" ry="18"/>
<text text-anchor="middle" x="377.69" y="-14.3" font-family="Times,serif" font-size="14.00">dra.func_800EA5E4</text>
</a>
</g>
</g>
<!-- dra.func_800F6A48&#45;&gt;dra.func_800EA5E4 -->
<g id="edge2" class="edge">
<title>dra.func_800F6A48&#45;&gt;dra.func_800EA5E4</title>
<path fill="none" stroke="black" d="M276.43,-179.93C296.16,-148.57 338.3,-81.6 361.51,-44.71"/>
<polygon fill="black" stroke="black" points="364.62,-46.34 366.98,-36.02 358.69,-42.62 364.62,-46.34"/>
<text text-anchor="middle" x="361.98" y="-39.82" font-family="Times,serif" font-size="14.00">1</text>
</g>
<!-- dra.DrawJosephsCloakMenu -->
<g id="node4" class="node">
<title>dra.DrawJosephsCloakMenu</title>
<g id="a_node4"><a xlink:href="dra.DrawJosephsCloakMenu.svg" xlink:title="dra.DrawJosephsCloakMenu">
<ellipse fill="green" stroke="black" cx="141.69" cy="-378" rx="141.88" ry="18"/>
<text text-anchor="middle" x="141.69" y="-374.3" font-family="Times,serif" font-size="14.00">dra.DrawJosephsCloakMenu</text>
</a>
</g>
</g>
<!-- dra.DrawJosephsCloakMenu&#45;&gt;dra.func_800F6A48 -->
<g id="edge3" class="edge">
<title>dra.DrawJosephsCloakMenu&#45;&gt;dra.func_800F6A48</title>
<path fill="none" stroke="black" d="M153.58,-359.93C175.52,-328.43 222.47,-261.03 248.1,-224.24"/>
<polygon fill="black" stroke="black" points="250.99,-226.22 253.83,-216.02 245.25,-222.22 250.99,-226.22"/>
<text text-anchor="middle" x="148.58" y="-348.73" font-family="Times,serif" font-size="14.00">1</text>
</g>
<!-- dra.HandleMenu -->
<g id="node5" class="node">
<title>dra.HandleMenu</title>
<g id="a_node5"><a xlink:href="dra.HandleMenu.svg" xlink:title="dra.HandleMenu">
<ellipse fill="green" stroke="black" cx="390.69" cy="-378" rx="89.08" ry="18"/>
<text text-anchor="middle" x="390.69" y="-374.3" font-family="Times,serif" font-size="14.00">dra.HandleMenu</text>
</a>
</g>
</g>
<!-- dra.HandleMenu&#45;&gt;dra.func_800F6A48 -->
<g id="edge4" class="edge">
<title>dra.HandleMenu&#45;&gt;dra.func_800F6A48</title>
<path fill="none" stroke="black" d="M378.7,-359.93C356.58,-328.43 309.25,-261.03 283.41,-224.24"/>
<polygon fill="black" stroke="black" points="286.25,-222.19 277.64,-216.02 280.52,-226.21 286.25,-222.19"/>
<text text-anchor="middle" x="373.7" y="-348.73" font-family="Times,serif" font-size="14.00">1</text>
</g>
</g>
</svg>
