<?xml version="1.0" encoding="UTF-8" standalone="no"?>
<!DOCTYPE svg PUBLIC "-//W3C//DTD SVG 1.1//EN"
 "http://www.w3.org/Graphics/SVG/1.1/DTD/svg11.dtd">
<!-- Generated by graphviz version 2.43.0 (0)
 -->
<!-- Title: dra.func_800EB758 Pages: 1 -->
<svg width="781pt" height="404pt"
 viewBox="0.00 0.00 780.53 404.00" xmlns="http://www.w3.org/2000/svg" xmlns:xlink="http://www.w3.org/1999/xlink">
<g id="graph0" class="graph" transform="scale(1 1) rotate(0) translate(4 400)">
<title>dra.func_800EB758</title>
<polygon fill="white" stroke="transparent" points="-4,4 -4,-400 776.53,-400 776.53,4 -4,4"/>
<!-- dra.func_800EB758 -->
<g id="node1" class="node">
<title>dra.func_800EB758</title>
<ellipse fill="red" stroke="black" cx="346.44" cy="-198" rx="102.88" ry="18"/>
<text text-anchor="middle" x="346.44" y="-194.3" font-family="Times,serif" font-size="14.00">dra.func_800EB758</text>
</g>
<!-- SquareRoot12 -->
<g id="node2" class="node">
<title>SquareRoot12</title>
<g id="a_node2"><a xlink:href="SquareRoot12.svg" xlink:title="SquareRoot12">
<ellipse fill="lightblue" stroke="black" cx="164.44" cy="-18" rx="77.19" ry="18"/>
<text text-anchor="middle" x="164.44" y="-14.3" font-family="Times,serif" font-size="14.00">SquareRoot12</text>
</a>
</g>
</g>
<!-- dra.func_800EB758&#45;&gt;SquareRoot12 -->
<g id="edge1" class="edge">
<title>dra.func_800EB758&#45;&gt;SquareRoot12</title>
<path fill="none" stroke="black" d="M328.99,-179.93C296.43,-148.09 226.35,-79.54 189.02,-43.04"/>
<polygon fill="black" stroke="black" points="191.17,-40.25 181.57,-35.76 186.28,-45.25 191.17,-40.25"/>
<text text-anchor="middle" x="176.57" y="-39.56" font-family="Times,serif" font-size="14.00">4</text>
</g>
<!-- ratan2 -->
<g id="node3" class="node">
<title>ratan2</title>
<g id="a_node3"><a xlink:href="ratan2.svg" xlink:title="ratan2">
<ellipse fill="lightblue" stroke="black" cx="301.44" cy="-18" rx="41.69" ry="18"/>
<text text-anchor="middle" x="301.44" y="-14.3" font-family="Times,serif" font-size="14.00">ratan2</text>
</a>
</g>
</g>
<!-- dra.func_800EB758&#45;&gt;ratan2 -->
<g id="edge2" class="edge">
<title>dra.func_800EB758&#45;&gt;ratan2</title>
<path fill="none" stroke="black" d="M342.13,-179.93C334.3,-148.97 317.7,-83.3 308.3,-46.13"/>
<polygon fill="black" stroke="black" points="311.59,-44.85 305.74,-36.02 304.8,-46.57 311.59,-44.85"/>
<text text-anchor="middle" x="300.74" y="-39.82" font-family="Times,serif" font-size="14.00">4</text>
</g>
<!-- rcos -->
<g id="node4" class="node">
<title>rcos</title>
<g id="a_node4"><a xlink:href="rcos.svg" xlink:title="rcos">
<ellipse fill="lightblue" stroke="black" cx="391.44" cy="-18" rx="30.59" ry="18"/>
<text text-anchor="middle" x="391.44" y="-14.3" font-family="Times,serif" font-size="14.00">rcos</text>
</a>
</g>
</g>
<!-- dra.func_800EB758&#45;&gt;rcos -->
<g id="edge3" class="edge">
<title>dra.func_800EB758&#45;&gt;rcos</title>
<path fill="none" stroke="black" d="M350.76,-179.93C358.58,-148.97 375.19,-83.3 384.58,-46.13"/>
<polygon fill="black" stroke="black" points="388.08,-46.57 387.14,-36.02 381.3,-44.85 388.08,-46.57"/>
<text text-anchor="middle" x="382.14" y="-39.82" font-family="Times,serif" font-size="14.00">4</text>
</g>
<!-- rsin -->
<g id="node5" class="node">
<title>rsin</title>
<g id="a_node5"><a xlink:href="rsin.svg" xlink:title="rsin">
<ellipse fill="lightblue" stroke="black" cx="468.44" cy="-18" rx="28.7" ry="18"/>
<text text-anchor="middle" x="468.44" y="-14.3" font-family="Times,serif" font-size="14.00">rsin</text>
</a>
</g>
</g>
<!-- dra.func_800EB758&#45;&gt;rsin -->
<g id="edge4" class="edge">
<title>dra.func_800EB758&#45;&gt;rsin</title>
<path fill="none" stroke="black" d="M358.14,-179.93C379.91,-148.17 426.71,-79.88 451.78,-43.31"/>
<polygon fill="black" stroke="black" points="454.89,-44.96 457.66,-34.73 449.12,-41 454.89,-44.96"/>
<text text-anchor="middle" x="452.66" y="-38.53" font-family="Times,serif" font-size="14.00">4</text>
</g>
<!-- dra.RenderEntities -->
<g id="node6" class="node">
<title>dra.RenderEntities</title>
<g id="a_node6"><a xlink:href="dra.RenderEntities.svg" xlink:title="dra.RenderEntities">
<ellipse fill="red" stroke="black" cx="99.44" cy="-378" rx="99.38" ry="18"/>
<text text-anchor="middle" x="99.44" y="-374.3" font-family="Times,serif" font-size="14.00">dra.RenderEntities</text>
</a>
</g>
</g>
<!-- dra.RenderEntities&#45;&gt;dra.func_800EB758 -->
<g id="edge5" class="edge">
<title>dra.RenderEntities&#45;&gt;dra.func_800EB758</title>
<path fill="none" stroke="black" d="M122.68,-360.25C167.29,-328.1 264.97,-257.71 315.22,-221.5"/>
<polygon fill="black" stroke="black" points="317.38,-224.26 323.45,-215.57 313.29,-218.58 317.38,-224.26"/>
<text text-anchor="middle" x="117.68" y="-349.05" font-family="Times,serif" font-size="14.00">2</text>
</g>
<!-- dra.EntityMpReplenished -->
<g id="node7" class="node">
<title>dra.EntityMpReplenished</title>
<g id="a_node7"><a xlink:href="dra.EntityMpReplenished.svg" xlink:title="dra.EntityMpReplenished">
<ellipse fill="red" stroke="black" cx="346.44" cy="-378" rx="129.98" ry="18"/>
<text text-anchor="middle" x="346.44" y="-374.3" font-family="Times,serif" font-size="14.00">dra.EntityMpReplenished</text>
</a>
</g>
</g>
<!-- dra.EntityMpReplenished&#45;&gt;dra.func_800EB758 -->
<g id="edge6" class="edge">
<title>dra.EntityMpReplenished&#45;&gt;dra.func_800EB758</title>
<path fill="none" stroke="black" d="M346.44,-359.93C346.44,-328.97 346.44,-263.3 346.44,-226.13"/>
<polygon fill="black" stroke="black" points="349.94,-226.02 346.44,-216.02 342.94,-226.02 349.94,-226.02"/>
<text text-anchor="middle" x="341.44" y="-348.73" font-family="Times,serif" font-size="14.00">1</text>
</g>
<!-- dra.EntityPlayerBlinkWhite -->
<g id="node8" class="node">
<title>dra.EntityPlayerBlinkWhite</title>
<g id="a_node8"><a xlink:href="dra.EntityPlayerBlinkWhite.svg" xlink:title="dra.EntityPlayerBlinkWhite">
<ellipse fill="red" stroke="black" cx="633.44" cy="-378" rx="139.18" ry="18"/>
<text text-anchor="middle" x="633.44" y="-374.3" font-family="Times,serif" font-size="14.00">dra.EntityPlayerBlinkWhite</text>
</a>
</g>
</g>
<!-- dra.EntityPlayerBlinkWhite&#45;&gt;dra.func_800EB758 -->
<g id="edge7" class="edge">
<title>dra.EntityPlayerBlinkWhite&#45;&gt;dra.func_800EB758</title>
<path fill="none" stroke="black" d="M606.44,-360.25C554.39,-327.97 440.16,-257.13 382,-221.05"/>
<polygon fill="black" stroke="black" points="383.5,-217.87 373.16,-215.57 379.81,-223.82 383.5,-217.87"/>
<text text-anchor="middle" x="601.44" y="-349.05" font-family="Times,serif" font-size="14.00">1</text>
</g>
</g>
</svg>
