<?xml version="1.0" encoding="UTF-8" standalone="no"?>
<!DOCTYPE svg PUBLIC "-//W3C//DTD SVG 1.1//EN"
 "http://www.w3.org/Graphics/SVG/1.1/DTD/svg11.dtd">
<!-- Generated by graphviz version 2.43.0 (0)
 -->
<!-- Title: dra.func_80116208 Pages: 1 -->
<svg width="1457pt" height="404pt"
 viewBox="0.00 0.00 1456.74 404.00" xmlns="http://www.w3.org/2000/svg" xmlns:xlink="http://www.w3.org/1999/xlink">
<g id="graph0" class="graph" transform="scale(1 1) rotate(0) translate(4 400)">
<title>dra.func_80116208</title>
<polygon fill="white" stroke="transparent" points="-4,4 -4,-400 1452.74,-400 1452.74,4 -4,4"/>
<!-- dra.func_80116208 -->
<g id="node1" class="node">
<title>dra.func_80116208</title>
<ellipse fill="green" stroke="black" cx="683.34" cy="-198" rx="100.98" ry="18"/>
<text text-anchor="middle" x="683.34" y="-194.3" font-family="Times,serif" font-size="14.00">dra.func_80116208</text>
</g>
<!-- dra.PlaySfx -->
<g id="node2" class="node">
<title>dra.PlaySfx</title>
<g id="a_node2"><a xlink:href="dra.PlaySfx.svg" xlink:title="dra.PlaySfx">
<ellipse fill="green" stroke="black" cx="64.34" cy="-18" rx="64.19" ry="18"/>
<text text-anchor="middle" x="64.34" y="-14.3" font-family="Times,serif" font-size="14.00">dra.PlaySfx</text>
</a>
</g>
</g>
<!-- dra.func_80116208&#45;&gt;dra.PlaySfx -->
<g id="edge1" class="edge">
<title>dra.func_80116208&#45;&gt;dra.PlaySfx</title>
<path fill="none" stroke="black" d="M632.69,-182.43C517.24,-149.23 235.49,-68.21 117.59,-34.31"/>
<polygon fill="black" stroke="black" points="118.29,-30.87 107.71,-31.47 116.35,-37.6 118.29,-30.87"/>
<text text-anchor="middle" x="102.71" y="-35.27" font-family="Times,serif" font-size="14.00">3</text>
</g>
<!-- dra.SetPlayerStep -->
<g id="node3" class="node">
<title>dra.SetPlayerStep</title>
<g id="a_node3"><a xlink:href="dra.SetPlayerStep.svg" xlink:title="dra.SetPlayerStep">
<ellipse fill="green" stroke="black" cx="243.34" cy="-18" rx="96.38" ry="18"/>
<text text-anchor="middle" x="243.34" y="-14.3" font-family="Times,serif" font-size="14.00">dra.SetPlayerStep</text>
</a>
</g>
</g>
<!-- dra.func_80116208&#45;&gt;dra.SetPlayerStep -->
<g id="edge2" class="edge">
<title>dra.func_80116208&#45;&gt;dra.SetPlayerStep</title>
<path fill="none" stroke="black" d="M644.68,-181.36C564.24,-148.82 379.03,-73.89 291.22,-38.37"/>
<polygon fill="black" stroke="black" points="292.34,-35.05 281.76,-34.54 289.72,-41.54 292.34,-35.05"/>
<text text-anchor="middle" x="276.76" y="-38.34" font-family="Times,serif" font-size="14.00">1</text>
</g>
<!-- dra.func_800FE97C -->
<g id="node4" class="node">
<title>dra.func_800FE97C</title>
<g id="a_node4"><a xlink:href="dra.func_800FE97C.svg" xlink:title="dra.func_800FE97C">
<ellipse fill="green" stroke="black" cx="460.34" cy="-18" rx="102.88" ry="18"/>
<text text-anchor="middle" x="460.34" y="-14.3" font-family="Times,serif" font-size="14.00">dra.func_800FE97C</text>
</a>
</g>
</g>
<!-- dra.func_80116208&#45;&gt;dra.func_800FE97C -->
<g id="edge3" class="edge">
<title>dra.func_80116208&#45;&gt;dra.func_800FE97C</title>
<path fill="none" stroke="black" d="M662.36,-180.25C622.35,-148.32 535.07,-78.65 489.44,-42.23"/>
<polygon fill="black" stroke="black" points="491.43,-39.33 481.43,-35.83 487.06,-44.8 491.43,-39.33"/>
<text text-anchor="middle" x="476.43" y="-39.63" font-family="Times,serif" font-size="14.00">1</text>
</g>
<!-- dra.func_8010DA48 -->
<g id="node5" class="node">
<title>dra.func_8010DA48</title>
<g id="a_node5"><a xlink:href="dra.func_8010DA48.svg" xlink:title="dra.func_8010DA48">
<ellipse fill="green" stroke="black" cx="683.34" cy="-18" rx="102.88" ry="18"/>
<text text-anchor="middle" x="683.34" y="-14.3" font-family="Times,serif" font-size="14.00">dra.func_8010DA48</text>
</a>
</g>
</g>
<!-- dra.func_80116208&#45;&gt;dra.func_8010DA48 -->
<g id="edge4" class="edge">
<title>dra.func_80116208&#45;&gt;dra.func_8010DA48</title>
<path fill="none" stroke="black" d="M683.34,-179.93C683.34,-148.97 683.34,-83.3 683.34,-46.13"/>
<polygon fill="black" stroke="black" points="686.84,-46.02 683.34,-36.02 679.84,-46.02 686.84,-46.02"/>
<text text-anchor="middle" x="678.34" y="-39.82" font-family="Times,serif" font-size="14.00">1</text>
</g>
<!-- dra.func_80113EE0 -->
<g id="node6" class="node">
<title>dra.func_80113EE0</title>
<g id="a_node6"><a xlink:href="dra.func_80113EE0.svg" xlink:title="dra.func_80113EE0">
<ellipse fill="green" stroke="black" cx="906.34" cy="-18" rx="102.88" ry="18"/>
<text text-anchor="middle" x="906.34" y="-14.3" font-family="Times,serif" font-size="14.00">dra.func_80113EE0</text>
</a>
</g>
</g>
<!-- dra.func_80116208&#45;&gt;dra.func_80113EE0 -->
<g id="edge5" class="edge">
<title>dra.func_80116208&#45;&gt;dra.func_80113EE0</title>
<path fill="none" stroke="black" d="M704.32,-180.25C744.34,-148.32 831.62,-78.65 877.24,-42.23"/>
<polygon fill="black" stroke="black" points="879.63,-44.8 885.26,-35.83 875.26,-39.33 879.63,-44.8"/>
<text text-anchor="middle" x="880.26" y="-39.63" font-family="Times,serif" font-size="14.00">1</text>
</g>
<!-- dra.func_80115394 -->
<g id="node7" class="node">
<title>dra.func_80115394</title>
<g id="a_node7"><a xlink:href="dra.func_80115394.svg" xlink:title="dra.func_80115394">
<ellipse fill="red" stroke="black" cx="1127.34" cy="-18" rx="100.98" ry="18"/>
<text text-anchor="middle" x="1127.34" y="-14.3" font-family="Times,serif" font-size="14.00">dra.func_80115394</text>
</a>
</g>
</g>
<!-- dra.func_80116208&#45;&gt;dra.func_80115394 -->
<g id="edge6" class="edge">
<title>dra.func_80116208&#45;&gt;dra.func_80115394</title>
<path fill="none" stroke="black" d="M722.36,-181.36C803.51,-148.82 990.33,-73.93 1078.97,-38.39"/>
<polygon fill="black" stroke="black" points="1080.28,-41.64 1088.26,-34.67 1077.68,-35.14 1080.28,-41.64"/>
<text text-anchor="middle" x="1083.26" y="-38.47" font-family="Times,serif" font-size="14.00">1</text>
</g>
<!-- dra.func_80118C84 -->
<g id="node8" class="node">
<title>dra.func_80118C84</title>
<g id="a_node8"><a xlink:href="dra.func_80118C84.svg" xlink:title="dra.func_80118C84">
<ellipse fill="green" stroke="black" cx="1347.34" cy="-18" rx="101.28" ry="18"/>
<text text-anchor="middle" x="1347.34" y="-14.3" font-family="Times,serif" font-size="14.00">dra.func_80118C84</text>
</a>
</g>
</g>
<!-- dra.func_80116208&#45;&gt;dra.func_80118C84 -->
<g id="edge7" class="edge">
<title>dra.func_80116208&#45;&gt;dra.func_80118C84</title>
<path fill="none" stroke="black" d="M736.84,-182.66C858.21,-150.12 1153.96,-70.84 1284.11,-35.95"/>
<polygon fill="black" stroke="black" points="1285.18,-39.29 1293.93,-33.32 1283.37,-32.53 1285.18,-39.29"/>
<text text-anchor="middle" x="1288.93" y="-37.12" font-family="Times,serif" font-size="14.00">1</text>
</g>
<!-- dra.EntityAlucard -->
<g id="node9" class="node">
<title>dra.EntityAlucard</title>
<g id="a_node9"><a xlink:href="dra.EntityAlucard.svg" xlink:title="dra.EntityAlucard">
<ellipse fill="red" stroke="black" cx="683.34" cy="-378" rx="93.68" ry="18"/>
<text text-anchor="middle" x="683.34" y="-374.3" font-family="Times,serif" font-size="14.00">dra.EntityAlucard</text>
</a>
</g>
</g>
<!-- dra.EntityAlucard&#45;&gt;dra.func_80116208 -->
<g id="edge8" class="edge">
<title>dra.EntityAlucard&#45;&gt;dra.func_80116208</title>
<path fill="none" stroke="black" d="M683.34,-359.93C683.34,-328.97 683.34,-263.3 683.34,-226.13"/>
<polygon fill="black" stroke="black" points="686.84,-226.02 683.34,-216.02 679.84,-226.02 686.84,-226.02"/>
<text text-anchor="middle" x="678.34" y="-348.73" font-family="Times,serif" font-size="14.00">1</text>
</g>
</g>
</svg>
