<?xml version="1.0" encoding="UTF-8" standalone="no"?>
<!DOCTYPE svg PUBLIC "-//W3C//DTD SVG 1.1//EN"
 "http://www.w3.org/Graphics/SVG/1.1/DTD/svg11.dtd">
<!-- Generated by graphviz version 2.43.0 (0)
 -->
<!-- Title: dra.func_80131F68 Pages: 1 -->
<svg width="4307pt" height="131pt"
 viewBox="0.00 0.00 4307.33 131.00" xmlns="http://www.w3.org/2000/svg" xmlns:xlink="http://www.w3.org/1999/xlink">
<g id="graph0" class="graph" transform="scale(1 1) rotate(0) translate(4 127)">
<title>dra.func_80131F68</title>
<polygon fill="white" stroke="transparent" points="-4,4 -4,-127 4303.33,-127 4303.33,4 -4,4"/>
<!-- dra.func_80131F68 -->
<g id="node1" class="node">
<title>dra.func_80131F68</title>
<ellipse fill="green" stroke="black" cx="2152.59" cy="-18" rx="100.98" ry="18"/>
<text text-anchor="middle" x="2152.59" y="-14.3" font-family="Times,serif" font-size="14.00">dra.func_80131F68</text>
</g>
<!-- dre.EntitySuccubusCutscene -->
<g id="node2" class="node">
<title>dre.EntitySuccubusCutscene</title>
<g id="a_node2"><a xlink:href="dre.EntitySuccubusCutscene.svg" xlink:title="dre.EntitySuccubusCutscene">
<ellipse fill="red" stroke="black" cx="145.59" cy="-105" rx="145.67" ry="18"/>
<text text-anchor="middle" x="145.59" y="-101.3" font-family="Times,serif" font-size="14.00">dre.EntitySuccubusCutscene</text>
</a>
</g>
</g>
<!-- dre.EntitySuccubusCutscene&#45;&gt;dra.func_80131F68 -->
<g id="edge1" class="edge">
<title>dre.EntitySuccubusCutscene&#45;&gt;dra.func_80131F68</title>
<path fill="none" stroke="black" d="M246.46,-91.99C351.46,-80.04 520.79,-62.32 667.59,-54 1180.57,-24.92 1794.55,-19.91 2041.6,-19.11"/>
<polygon fill="black" stroke="black" points="2041.67,-22.61 2051.66,-19.08 2041.65,-15.61 2041.67,-22.61"/>
<text text-anchor="middle" x="672.59" y="-57.8" font-family="Times,serif" font-size="14.00">2</text>
</g>
<!-- sel.func_801B69F8 -->
<g id="node3" class="node">
<title>sel.func_801B69F8</title>
<g id="a_node3"><a xlink:href="sel.func_801B69F8.svg" xlink:title="sel.func_801B69F8">
<ellipse fill="red" stroke="black" cx="408.59" cy="-105" rx="99.38" ry="18"/>
<text text-anchor="middle" x="408.59" y="-101.3" font-family="Times,serif" font-size="14.00">sel.func_801B69F8</text>
</a>
</g>
</g>
<!-- sel.func_801B69F8&#45;&gt;dra.func_80131F68 -->
<g id="edge2" class="edge">
<title>sel.func_801B69F8&#45;&gt;dra.func_80131F68</title>
<path fill="none" stroke="black" d="M479.14,-92.28C491.92,-90.36 505.13,-88.51 517.59,-87 685,-66.66 727.23,-63.68 895.59,-54 1318.78,-29.66 1823.14,-22.11 2042.08,-19.88"/>
<polygon fill="black" stroke="black" points="2042.33,-23.38 2052.29,-19.78 2042.26,-16.38 2042.33,-23.38"/>
<text text-anchor="middle" x="900.59" y="-57.8" font-family="Times,serif" font-size="14.00">2</text>
</g>
<!-- sel.func_801ACEC0 -->
<g id="node4" class="node">
<title>sel.func_801ACEC0</title>
<g id="a_node4"><a xlink:href="sel.func_801ACEC0.svg" xlink:title="sel.func_801ACEC0">
<ellipse fill="green" stroke="black" cx="627.59" cy="-105" rx="101.28" ry="18"/>
<text text-anchor="middle" x="627.59" y="-101.3" font-family="Times,serif" font-size="14.00">sel.func_801ACEC0</text>
</a>
</g>
</g>
<!-- sel.func_801ACEC0&#45;&gt;dra.func_80131F68 -->
<g id="edge3" class="edge">
<title>sel.func_801ACEC0&#45;&gt;dra.func_80131F68</title>
<path fill="none" stroke="black" d="M699.08,-92.2C711.88,-90.3 725.11,-88.48 737.59,-87 913.85,-66.1 958.4,-64.39 1135.59,-54 1465.49,-34.66 1856.27,-24.89 2042.82,-21.04"/>
<polygon fill="black" stroke="black" points="2042.98,-24.54 2052.91,-20.83 2042.84,-17.54 2042.98,-24.54"/>
<text text-anchor="middle" x="1140.59" y="-57.8" font-family="Times,serif" font-size="14.00">1</text>
</g>
<!-- cen.EntityUnkId16 -->
<g id="node5" class="node">
<title>cen.EntityUnkId16</title>
<g id="a_node5"><a xlink:href="cen.EntityUnkId16.svg" xlink:title="cen.EntityUnkId16">
<ellipse fill="red" stroke="black" cx="845.59" cy="-105" rx="98.58" ry="18"/>
<text text-anchor="middle" x="845.59" y="-101.3" font-family="Times,serif" font-size="14.00">cen.EntityUnkId16</text>
</a>
</g>
</g>
<!-- cen.EntityUnkId16&#45;&gt;dra.func_80131F68 -->
<g id="edge4" class="edge">
<title>cen.EntityUnkId16&#45;&gt;dra.func_80131F68</title>
<path fill="none" stroke="black" d="M915.49,-92.24C928.15,-90.33 941.24,-88.49 953.59,-87 1352.76,-38.89 1830.91,-24.67 2042.55,-20.59"/>
<polygon fill="black" stroke="black" points="2042.8,-24.09 2052.73,-20.4 2042.67,-17.09 2042.8,-24.09"/>
<text text-anchor="middle" x="1287.59" y="-57.8" font-family="Times,serif" font-size="14.00">2</text>
</g>
<!-- st0.func_801B0464 -->
<g id="node6" class="node">
<title>st0.func_801B0464</title>
<g id="a_node6"><a xlink:href="st0.func_801B0464.svg" xlink:title="st0.func_801B0464">
<ellipse fill="red" stroke="black" cx="1063.59" cy="-105" rx="100.98" ry="18"/>
<text text-anchor="middle" x="1063.59" y="-101.3" font-family="Times,serif" font-size="14.00">st0.func_801B0464</text>
</a>
</g>
</g>
<!-- st0.func_801B0464&#45;&gt;dra.func_80131F68 -->
<g id="edge5" class="edge">
<title>st0.func_801B0464&#45;&gt;dra.func_80131F68</title>
<path fill="none" stroke="black" d="M1135.09,-92.27C1147.89,-90.37 1161.12,-88.52 1173.59,-87 1488.75,-48.56 1863.84,-30.05 2044.61,-22.82"/>
<polygon fill="black" stroke="black" points="2044.8,-26.32 2054.65,-22.43 2044.52,-19.33 2044.8,-26.32"/>
<text text-anchor="middle" x="1501.59" y="-57.8" font-family="Times,serif" font-size="14.00">3</text>
</g>
<!-- st0.EntityDialogue -->
<g id="node7" class="node">
<title>st0.EntityDialogue</title>
<g id="a_node7"><a xlink:href="st0.EntityDialogue.svg" xlink:title="st0.EntityDialogue">
<ellipse fill="red" stroke="black" cx="1280.59" cy="-105" rx="98.28" ry="18"/>
<text text-anchor="middle" x="1280.59" y="-101.3" font-family="Times,serif" font-size="14.00">st0.EntityDialogue</text>
</a>
</g>
</g>
<!-- st0.EntityDialogue&#45;&gt;dra.func_80131F68 -->
<g id="edge6" class="edge">
<title>st0.EntityDialogue&#45;&gt;dra.func_80131F68</title>
<path fill="none" stroke="black" d="M1350.13,-92.24C1362.58,-90.34 1375.45,-88.5 1387.59,-87 1623.75,-57.78 1902.42,-36.25 2049.57,-25.89"/>
<polygon fill="black" stroke="black" points="2050.2,-29.36 2059.93,-25.17 2049.71,-22.37 2050.2,-29.36"/>
<text text-anchor="middle" x="1686.59" y="-57.8" font-family="Times,serif" font-size="14.00">2</text>
</g>
<!-- st0.EntityDraculaFinalForm -->
<g id="node8" class="node">
<title>st0.EntityDraculaFinalForm</title>
<g id="a_node8"><a xlink:href="st0.EntityDraculaFinalForm.svg" xlink:title="st0.EntityDraculaFinalForm">
<ellipse fill="red" stroke="black" cx="1537.59" cy="-105" rx="141.07" ry="18"/>
<text text-anchor="middle" x="1537.59" y="-101.3" font-family="Times,serif" font-size="14.00">st0.EntityDraculaFinalForm</text>
</a>
</g>
</g>
<!-- st0.EntityDraculaFinalForm&#45;&gt;dra.func_80131F68 -->
<g id="edge7" class="edge">
<title>st0.EntityDraculaFinalForm&#45;&gt;dra.func_80131F68</title>
<path fill="none" stroke="black" d="M1629.33,-91.32C1746.99,-75.06 1949.62,-47.05 2065.16,-31.08"/>
<polygon fill="black" stroke="black" points="2065.95,-34.51 2075.38,-29.67 2064.99,-27.57 2065.95,-34.51"/>
<text text-anchor="middle" x="1887.59" y="-57.8" font-family="Times,serif" font-size="14.00">2</text>
</g>
<!-- no3.EntityRoomTransition1 -->
<g id="node9" class="node">
<title>no3.EntityRoomTransition1</title>
<g id="a_node9"><a xlink:href="no3.EntityRoomTransition1.svg" xlink:title="no3.EntityRoomTransition1">
<ellipse fill="red" stroke="black" cx="1835.59" cy="-105" rx="139.18" ry="18"/>
<text text-anchor="middle" x="1835.59" y="-101.3" font-family="Times,serif" font-size="14.00">no3.EntityRoomTransition1</text>
</a>
</g>
</g>
<!-- no3.EntityRoomTransition1&#45;&gt;dra.func_80131F68 -->
<g id="edge8" class="edge">
<title>no3.EntityRoomTransition1&#45;&gt;dra.func_80131F68</title>
<path fill="none" stroke="black" d="M1893.36,-88.51C1948.7,-73.67 2032.02,-51.33 2089.17,-36"/>
<polygon fill="black" stroke="black" points="2090.42,-39.29 2099.17,-33.32 2088.6,-32.53 2090.42,-39.29"/>
<text text-anchor="middle" x="2018.59" y="-57.8" font-family="Times,serif" font-size="14.00">2</text>
</g>
<!-- no3.EntityBackgroundLightning -->
<g id="node10" class="node">
<title>no3.EntityBackgroundLightning</title>
<g id="a_node10"><a xlink:href="no3.EntityBackgroundLightning.svg" xlink:title="no3.EntityBackgroundLightning">
<ellipse fill="red" stroke="black" cx="2152.59" cy="-105" rx="159.77" ry="18"/>
<text text-anchor="middle" x="2152.59" y="-101.3" font-family="Times,serif" font-size="14.00">no3.EntityBackgroundLightning</text>
</a>
</g>
</g>
<!-- no3.EntityBackgroundLightning&#45;&gt;dra.func_80131F68 -->
<g id="edge9" class="edge">
<title>no3.EntityBackgroundLightning&#45;&gt;dra.func_80131F68</title>
<path fill="none" stroke="black" d="M2152.59,-86.8C2152.59,-75.16 2152.59,-59.55 2152.59,-46.24"/>
<polygon fill="black" stroke="black" points="2156.09,-46.18 2152.59,-36.18 2149.09,-46.18 2156.09,-46.18"/>
<text text-anchor="middle" x="2157.59" y="-57.8" font-family="Times,serif" font-size="14.00">1</text>
</g>
<!-- nz0.EntityCloseBossRoom -->
<g id="node11" class="node">
<title>nz0.EntityCloseBossRoom</title>
<g id="a_node11"><a xlink:href="nz0.EntityCloseBossRoom.svg" xlink:title="nz0.EntityCloseBossRoom">
<ellipse fill="red" stroke="black" cx="2462.59" cy="-105" rx="132.68" ry="18"/>
<text text-anchor="middle" x="2462.59" y="-101.3" font-family="Times,serif" font-size="14.00">nz0.EntityCloseBossRoom</text>
</a>
</g>
</g>
<!-- nz0.EntityCloseBossRoom&#45;&gt;dra.func_80131F68 -->
<g id="edge10" class="edge">
<title>nz0.EntityCloseBossRoom&#45;&gt;dra.func_80131F68</title>
<path fill="none" stroke="black" d="M2406.45,-88.61C2352.46,-73.8 2271.01,-51.47 2215.01,-36.12"/>
<polygon fill="black" stroke="black" points="2215.78,-32.7 2205.21,-33.43 2213.93,-39.45 2215.78,-32.7"/>
<text text-anchor="middle" x="2331.59" y="-57.8" font-family="Times,serif" font-size="14.00">3</text>
</g>
<!-- nz0.EntityMariaCutscene -->
<g id="node12" class="node">
<title>nz0.EntityMariaCutscene</title>
<g id="a_node12"><a xlink:href="nz0.EntityMariaCutscene.svg" xlink:title="nz0.EntityMariaCutscene">
<ellipse fill="red" stroke="black" cx="2742.59" cy="-105" rx="129.18" ry="18"/>
<text text-anchor="middle" x="2742.59" y="-101.3" font-family="Times,serif" font-size="14.00">nz0.EntityMariaCutscene</text>
</a>
</g>
</g>
<!-- nz0.EntityMariaCutscene&#45;&gt;dra.func_80131F68 -->
<g id="edge11" class="edge">
<title>nz0.EntityMariaCutscene&#45;&gt;dra.func_80131F68</title>
<path fill="none" stroke="black" d="M2656.16,-91.55C2544.27,-75.43 2350.41,-47.5 2238.68,-31.4"/>
<polygon fill="black" stroke="black" points="2238.86,-27.89 2228.46,-29.93 2237.86,-34.82 2238.86,-27.89"/>
<text text-anchor="middle" x="2488.59" y="-57.8" font-family="Times,serif" font-size="14.00">2</text>
</g>
<!-- servant.func_80174038 -->
<g id="node13" class="node">
<title>servant.func_80174038</title>
<g id="a_node13"><a xlink:href="servant.func_80174038.svg" xlink:title="servant.func_80174038">
<ellipse fill="green" stroke="black" cx="3010.59" cy="-105" rx="120.48" ry="18"/>
<text text-anchor="middle" x="3010.59" y="-101.3" font-family="Times,serif" font-size="14.00">servant.func_80174038</text>
</a>
</g>
</g>
<!-- servant.func_80174038&#45;&gt;dra.func_80131F68 -->
<g id="edge12" class="edge">
<title>servant.func_80174038&#45;&gt;dra.func_80131F68</title>
<path fill="none" stroke="black" d="M2924.98,-92.35C2910.19,-90.47 2894.95,-88.61 2880.59,-87 2656.45,-61.89 2392.75,-38.88 2252.38,-27.15"/>
<polygon fill="black" stroke="black" points="2252.33,-23.63 2242.07,-26.29 2251.75,-30.61 2252.33,-23.63"/>
<text text-anchor="middle" x="2706.59" y="-57.8" font-family="Times,serif" font-size="14.00">2</text>
</g>
<!-- dra.func_800F298C -->
<g id="node14" class="node">
<title>dra.func_800F298C</title>
<g id="a_node14"><a xlink:href="dra.func_800F298C.svg" xlink:title="dra.func_800F298C">
<ellipse fill="red" stroke="black" cx="3250.59" cy="-105" rx="102.08" ry="18"/>
<text text-anchor="middle" x="3250.59" y="-101.3" font-family="Times,serif" font-size="14.00">dra.func_800F298C</text>
</a>
</g>
</g>
<!-- dra.func_800F298C&#45;&gt;dra.func_80131F68 -->
<g id="edge13" class="edge">
<title>dra.func_800F298C&#45;&gt;dra.func_80131F68</title>
<path fill="none" stroke="black" d="M3178.74,-92.2C3165.73,-90.29 3152.27,-88.46 3139.59,-87 2820.78,-50.23 2441.58,-30.91 2259.96,-23.16"/>
<polygon fill="black" stroke="black" points="2260.01,-19.66 2249.87,-22.73 2259.72,-26.65 2260.01,-19.66"/>
<text text-anchor="middle" x="2956.59" y="-57.8" font-family="Times,serif" font-size="14.00">1</text>
</g>
<!-- dra.func_800E414C -->
<g id="node15" class="node">
<title>dra.func_800E414C</title>
<g id="a_node15"><a xlink:href="dra.func_800E414C.svg" xlink:title="dra.func_800E414C">
<ellipse fill="green" stroke="black" cx="3473.59" cy="-105" rx="102.88" ry="18"/>
<text text-anchor="middle" x="3473.59" y="-101.3" font-family="Times,serif" font-size="14.00">dra.func_800E414C</text>
</a>
</g>
</g>
<!-- dra.func_800E414C&#45;&gt;dra.func_80131F68 -->
<g id="edge14" class="edge">
<title>dra.func_800E414C&#45;&gt;dra.func_80131F68</title>
<path fill="none" stroke="black" d="M3400.78,-92.22C3387.75,-90.32 3374.28,-88.49 3361.59,-87 2958.43,-39.66 2475.65,-25.05 2262.7,-20.72"/>
<polygon fill="black" stroke="black" points="2262.53,-17.22 2252.46,-20.52 2262.39,-24.22 2262.53,-17.22"/>
<text text-anchor="middle" x="3169.59" y="-57.8" font-family="Times,serif" font-size="14.00">1</text>
</g>
<!-- dra.HandleGameOver -->
<g id="node16" class="node">
<title>dra.HandleGameOver</title>
<g id="a_node16"><a xlink:href="dra.HandleGameOver.svg" xlink:title="dra.HandleGameOver">
<ellipse fill="red" stroke="black" cx="3705.59" cy="-105" rx="111.58" ry="18"/>
<text text-anchor="middle" x="3705.59" y="-101.3" font-family="Times,serif" font-size="14.00">dra.HandleGameOver</text>
</a>
</g>
</g>
<!-- dra.HandleGameOver&#45;&gt;dra.func_80131F68 -->
<g id="edge15" class="edge">
<title>dra.HandleGameOver&#45;&gt;dra.func_80131F68</title>
<path fill="none" stroke="black" d="M3626.92,-92.17C3613.16,-90.3 3598.97,-88.49 3585.59,-87 3405.22,-66.93 3359.77,-64.43 3178.59,-54 2845.09,-34.8 2449.97,-24.95 2262.21,-21.06"/>
<polygon fill="black" stroke="black" points="2262.13,-17.55 2252.06,-20.85 2261.99,-24.55 2262.13,-17.55"/>
<text text-anchor="middle" x="3408.59" y="-57.8" font-family="Times,serif" font-size="14.00">2</text>
</g>
<!-- dra.HandlePrologueEnd -->
<g id="node17" class="node">
<title>dra.HandlePrologueEnd</title>
<g id="a_node17"><a xlink:href="dra.HandlePrologueEnd.svg" xlink:title="dra.HandlePrologueEnd">
<ellipse fill="green" stroke="black" cx="3957.59" cy="-105" rx="122.38" ry="18"/>
<text text-anchor="middle" x="3957.59" y="-101.3" font-family="Times,serif" font-size="14.00">dra.HandlePrologueEnd</text>
</a>
</g>
</g>
<!-- dra.HandlePrologueEnd&#45;&gt;dra.func_80131F68 -->
<g id="edge16" class="edge">
<title>dra.HandlePrologueEnd&#45;&gt;dra.func_80131F68</title>
<path fill="none" stroke="black" d="M3871.34,-92.2C3856.43,-90.34 3841.07,-88.52 3826.59,-87 3645.22,-67.93 3599.69,-63.86 3417.59,-54 2991.35,-30.92 2483.45,-22.71 2263.36,-20.1"/>
<polygon fill="black" stroke="black" points="2263.14,-16.6 2253.1,-19.98 2263.06,-23.59 2263.14,-16.6"/>
<text text-anchor="middle" x="3648.59" y="-57.8" font-family="Times,serif" font-size="14.00">1</text>
</g>
<!-- dra.func_800F2860 -->
<g id="node18" class="node">
<title>dra.func_800F2860</title>
<g id="a_node18"><a xlink:href="dra.func_800F2860.svg" xlink:title="dra.func_800F2860">
<ellipse fill="green" stroke="black" cx="4198.59" cy="-105" rx="100.98" ry="18"/>
<text text-anchor="middle" x="4198.59" y="-101.3" font-family="Times,serif" font-size="14.00">dra.func_800F2860</text>
</a>
</g>
</g>
<!-- dra.func_800F2860&#45;&gt;dra.func_80131F68 -->
<g id="edge17" class="edge">
<title>dra.func_800F2860&#45;&gt;dra.func_80131F68</title>
<path fill="none" stroke="black" d="M4127.39,-92.18C4114.5,-90.27 4101.16,-88.45 4088.59,-87 3897.74,-64.98 3849.46,-63.57 3657.59,-54 3136.23,-28 2512.28,-21.26 2263.19,-19.56"/>
<polygon fill="black" stroke="black" points="2263.07,-16.06 2253.05,-19.49 2263.02,-23.06 2263.07,-16.06"/>
<text text-anchor="middle" x="3914.59" y="-57.8" font-family="Times,serif" font-size="14.00">4</text>
</g>
</g>
</svg>
