<?xml version="1.0" encoding="UTF-8" standalone="no"?>
<!DOCTYPE svg PUBLIC "-//W3C//DTD SVG 1.1//EN"
 "http://www.w3.org/Graphics/SVG/1.1/DTD/svg11.dtd">
<!-- Generated by graphviz version 2.43.0 (0)
 -->
<!-- Title: dra.func_8012F894 Pages: 1 -->
<svg width="1703pt" height="224pt"
 viewBox="0.00 0.00 1703.04 224.00" xmlns="http://www.w3.org/2000/svg" xmlns:xlink="http://www.w3.org/1999/xlink">
<g id="graph0" class="graph" transform="scale(1 1) rotate(0) translate(4 220)">
<title>dra.func_8012F894</title>
<polygon fill="white" stroke="transparent" points="-4,4 -4,-220 1699.04,-220 1699.04,4 -4,4"/>
<!-- dra.func_8012F894 -->
<g id="node1" class="node">
<title>dra.func_8012F894</title>
<ellipse fill="red" stroke="black" cx="962.44" cy="-198" rx="100.98" ry="18"/>
<text text-anchor="middle" x="962.44" y="-194.3" font-family="Times,serif" font-size="14.00">dra.func_8012F894</text>
</g>
<!-- dra.AllocPrimitives -->
<g id="node2" class="node">
<title>dra.AllocPrimitives</title>
<g id="a_node2"><a xlink:href="dra.AllocPrimitives.svg" xlink:title="dra.AllocPrimitives">
<ellipse fill="green" stroke="black" cx="99.44" cy="-18" rx="99.38" ry="18"/>
<text text-anchor="middle" x="99.44" y="-14.3" font-family="Times,serif" font-size="14.00">dra.AllocPrimitives</text>
</a>
</g>
</g>
<!-- dra.func_8012F894&#45;&gt;dra.AllocPrimitives -->
<g id="edge1" class="edge">
<title>dra.func_8012F894&#45;&gt;dra.AllocPrimitives</title>
<path fill="none" stroke="black" d="M898.98,-183.91C742.47,-151.63 338.69,-68.35 172.53,-34.07"/>
<polygon fill="black" stroke="black" points="172.91,-30.58 162.41,-31.99 171.5,-37.44 172.91,-30.58"/>
<text text-anchor="middle" x="157.41" y="-35.79" font-family="Times,serif" font-size="14.00">1</text>
</g>
<!-- dra.CheckCollision -->
<g id="node3" class="node">
<title>dra.CheckCollision</title>
<g id="a_node3"><a xlink:href="dra.CheckCollision.svg" xlink:title="dra.CheckCollision">
<ellipse fill="green" stroke="black" cx="314.44" cy="-18" rx="97.48" ry="18"/>
<text text-anchor="middle" x="314.44" y="-14.3" font-family="Times,serif" font-size="14.00">dra.CheckCollision</text>
</a>
</g>
</g>
<!-- dra.func_8012F894&#45;&gt;dra.CheckCollision -->
<g id="edge2" class="edge">
<title>dra.func_8012F894&#45;&gt;dra.CheckCollision</title>
<path fill="none" stroke="black" d="M909.96,-182.58C791.45,-150.03 503.54,-70.94 376.47,-36.04"/>
<polygon fill="black" stroke="black" points="377.08,-32.58 366.51,-33.3 375.22,-39.33 377.08,-32.58"/>
<text text-anchor="middle" x="361.51" y="-37.1" font-family="Times,serif" font-size="14.00">4</text>
</g>
<!-- dra.DestroyEntity -->
<g id="node4" class="node">
<title>dra.DestroyEntity</title>
<g id="a_node4"><a xlink:href="dra.DestroyEntity.svg" xlink:title="dra.DestroyEntity">
<ellipse fill="green" stroke="black" cx="524.44" cy="-18" rx="94.78" ry="18"/>
<text text-anchor="middle" x="524.44" y="-14.3" font-family="Times,serif" font-size="14.00">dra.DestroyEntity</text>
</a>
</g>
</g>
<!-- dra.func_8012F894&#45;&gt;dra.DestroyEntity -->
<g id="edge3" class="edge">
<title>dra.func_8012F894&#45;&gt;dra.DestroyEntity</title>
<path fill="none" stroke="black" d="M923.96,-181.36C843.87,-148.82 659.51,-73.89 572.1,-38.37"/>
<polygon fill="black" stroke="black" points="573.27,-35.06 562.68,-34.54 570.63,-41.55 573.27,-35.06"/>
<text text-anchor="middle" x="557.68" y="-38.34" font-family="Times,serif" font-size="14.00">1</text>
</g>
<!-- dra.func_8012CB0C -->
<g id="node5" class="node">
<title>dra.func_8012CB0C</title>
<g id="a_node5"><a xlink:href="dra.func_8012CB0C.svg" xlink:title="dra.func_8012CB0C">
<ellipse fill="green" stroke="black" cx="740.44" cy="-18" rx="103.18" ry="18"/>
<text text-anchor="middle" x="740.44" y="-14.3" font-family="Times,serif" font-size="14.00">dra.func_8012CB0C</text>
</a>
</g>
</g>
<!-- dra.func_8012F894&#45;&gt;dra.func_8012CB0C -->
<g id="edge4" class="edge">
<title>dra.func_8012F894&#45;&gt;dra.func_8012CB0C</title>
<path fill="none" stroke="black" d="M941.56,-180.25C901.72,-148.32 814.83,-78.65 769.41,-42.23"/>
<polygon fill="black" stroke="black" points="771.42,-39.36 761.43,-35.83 767.05,-44.82 771.42,-39.36"/>
<text text-anchor="middle" x="756.43" y="-39.63" font-family="Times,serif" font-size="14.00">1</text>
</g>
<!-- dra.func_8012F178 -->
<g id="node6" class="node">
<title>dra.func_8012F178</title>
<g id="a_node6"><a xlink:href="dra.func_8012F178.svg" xlink:title="dra.func_8012F178">
<ellipse fill="red" stroke="black" cx="962.44" cy="-18" rx="100.98" ry="18"/>
<text text-anchor="middle" x="962.44" y="-14.3" font-family="Times,serif" font-size="14.00">dra.func_8012F178</text>
</a>
</g>
</g>
<!-- dra.func_8012F894&#45;&gt;dra.func_8012F178 -->
<g id="edge5" class="edge">
<title>dra.func_8012F894&#45;&gt;dra.func_8012F178</title>
<path fill="none" stroke="black" d="M962.44,-179.93C962.44,-148.97 962.44,-83.3 962.44,-46.13"/>
<polygon fill="black" stroke="black" points="965.94,-46.02 962.44,-36.02 958.94,-46.02 965.94,-46.02"/>
<text text-anchor="middle" x="957.44" y="-39.82" font-family="Times,serif" font-size="14.00">1</text>
</g>
<!-- dra.func_8012F83C -->
<g id="node7" class="node">
<title>dra.func_8012F83C</title>
<g id="a_node7"><a xlink:href="dra.func_8012F83C.svg" xlink:title="dra.func_8012F83C">
<ellipse fill="green" stroke="black" cx="1183.44" cy="-18" rx="102.08" ry="18"/>
<text text-anchor="middle" x="1183.44" y="-14.3" font-family="Times,serif" font-size="14.00">dra.func_8012F83C</text>
</a>
</g>
</g>
<!-- dra.func_8012F894&#45;&gt;dra.func_8012F83C -->
<g id="edge6" class="edge">
<title>dra.func_8012F894&#45;&gt;dra.func_8012F83C</title>
<path fill="none" stroke="black" d="M983.23,-180.25C1022.89,-148.32 1109.39,-78.65 1154.6,-42.23"/>
<polygon fill="black" stroke="black" points="1156.95,-44.83 1162.54,-35.83 1152.56,-39.38 1156.95,-44.83"/>
<text text-anchor="middle" x="1157.54" y="-39.63" font-family="Times,serif" font-size="14.00">2</text>
</g>
<!-- main.ratan2 -->
<g id="node8" class="node">
<title>main.ratan2</title>
<g id="a_node8"><a xlink:href="main.ratan2.svg" xlink:title="main.ratan2">
<ellipse fill="green" stroke="black" cx="1371.44" cy="-18" rx="67.69" ry="18"/>
<text text-anchor="middle" x="1371.44" y="-14.3" font-family="Times,serif" font-size="14.00">main.ratan2</text>
</a>
</g>
</g>
<!-- dra.func_8012F894&#45;&gt;main.ratan2 -->
<g id="edge7" class="edge">
<title>dra.func_8012F894&#45;&gt;main.ratan2</title>
<path fill="none" stroke="black" d="M998.74,-181.2C1074.17,-148.38 1247.55,-72.92 1328.43,-37.72"/>
<polygon fill="black" stroke="black" points="1330.05,-40.83 1337.82,-33.63 1327.26,-34.41 1330.05,-40.83"/>
<text text-anchor="middle" x="1332.82" y="-37.43" font-family="Times,serif" font-size="14.00">1</text>
</g>
<!-- main.rcos -->
<g id="node9" class="node">
<title>main.rcos</title>
<g id="a_node9"><a xlink:href="main.rcos.svg" xlink:title="main.rcos">
<ellipse fill="red" stroke="black" cx="1512.44" cy="-18" rx="55.79" ry="18"/>
<text text-anchor="middle" x="1512.44" y="-14.3" font-family="Times,serif" font-size="14.00">main.rcos</text>
</a>
</g>
</g>
<!-- dra.func_8012F894&#45;&gt;main.rcos -->
<g id="edge8" class="edge">
<title>dra.func_8012F894&#45;&gt;main.rcos</title>
<path fill="none" stroke="black" d="M1008.86,-181.98C1112.23,-148.52 1360.45,-68.19 1464.88,-34.39"/>
<polygon fill="black" stroke="black" points="1466.09,-37.68 1474.53,-31.27 1463.93,-31.02 1466.09,-37.68"/>
<text text-anchor="middle" x="1469.53" y="-35.07" font-family="Times,serif" font-size="14.00">2</text>
</g>
<!-- main.rsin -->
<g id="node10" class="node">
<title>main.rsin</title>
<g id="a_node10"><a xlink:href="main.rsin.svg" xlink:title="main.rsin">
<ellipse fill="green" stroke="black" cx="1640.44" cy="-18" rx="54.69" ry="18"/>
<text text-anchor="middle" x="1640.44" y="-14.3" font-family="Times,serif" font-size="14.00">main.rsin</text>
</a>
</g>
</g>
<!-- dra.func_8012F894&#45;&gt;main.rsin -->
<g id="edge9" class="edge">
<title>dra.func_8012F894&#45;&gt;main.rsin</title>
<path fill="none" stroke="black" d="M1017.19,-182.81C1124.66,-154.94 1370.78,-90.93 1577.44,-36 1581.51,-34.92 1585.72,-33.79 1589.95,-32.66"/>
<polygon fill="black" stroke="black" points="1591.04,-35.99 1599.79,-30.02 1589.22,-29.23 1591.04,-35.99"/>
<text text-anchor="middle" x="1594.79" y="-33.82" font-family="Times,serif" font-size="14.00">2</text>
</g>
</g>
</svg>
