<?xml version="1.0" encoding="UTF-8" standalone="no"?>
<!DOCTYPE svg PUBLIC "-//W3C//DTD SVG 1.1//EN"
 "http://www.w3.org/Graphics/SVG/1.1/DTD/svg11.dtd">
<!-- Generated by graphviz version 2.43.0 (0)
 -->
<!-- Title: dra.func_8013415C Pages: 1 -->
<svg width="651pt" height="218pt"
 viewBox="0.00 0.00 651.13 218.00" xmlns="http://www.w3.org/2000/svg" xmlns:xlink="http://www.w3.org/1999/xlink">
<g id="graph0" class="graph" transform="scale(1 1) rotate(0) translate(4 214)">
<title>dra.func_8013415C</title>
<polygon fill="white" stroke="transparent" points="-4,4 -4,-214 647.13,-214 647.13,4 -4,4"/>
<!-- dra.func_8013415C -->
<g id="node1" class="node">
<title>dra.func_8013415C</title>
<ellipse fill="green" stroke="black" cx="322.39" cy="-105" rx="101.28" ry="18"/>
<text text-anchor="middle" x="322.39" y="-101.3" font-family="Times,serif" font-size="14.00">dra.func_8013415C</text>
</g>
<!-- func_8002A09C -->
<g id="node2" class="node">
<title>func_8002A09C</title>
<g id="a_node2"><a xlink:href="func_8002A09C.svg" xlink:title="func_8002A09C">
<ellipse fill="lightblue" stroke="black" cx="221.39" cy="-18" rx="83.39" ry="18"/>
<text text-anchor="middle" x="221.39" y="-14.3" font-family="Times,serif" font-size="14.00">func_8002A09C</text>
</a>
</g>
</g>
<!-- dra.func_8013415C&#45;&gt;func_8002A09C -->
<g id="edge1" class="edge">
<title>dra.func_8013415C&#45;&gt;func_8002A09C</title>
<path fill="none" stroke="black" d="M302.44,-87.21C287.22,-74.4 266.08,-56.61 249.2,-42.4"/>
<polygon fill="black" stroke="black" points="251.21,-39.52 241.3,-35.76 246.7,-44.88 251.21,-39.52"/>
<text text-anchor="middle" x="283.39" y="-57.8" font-family="Times,serif" font-size="14.00">1</text>
</g>
<!-- dra.func_801321FC -->
<g id="node3" class="node">
<title>dra.func_801321FC</title>
<g id="a_node3"><a xlink:href="dra.func_801321FC.svg" xlink:title="dra.func_801321FC">
<ellipse fill="green" stroke="black" cx="424.39" cy="-18" rx="102.08" ry="18"/>
<text text-anchor="middle" x="424.39" y="-14.3" font-family="Times,serif" font-size="14.00">dra.func_801321FC</text>
</a>
</g>
</g>
<!-- dra.func_8013415C&#45;&gt;dra.func_801321FC -->
<g id="edge2" class="edge">
<title>dra.func_8013415C&#45;&gt;dra.func_801321FC</title>
<path fill="none" stroke="black" d="M342.54,-87.21C357.91,-74.4 379.26,-56.61 396.31,-42.4"/>
<polygon fill="black" stroke="black" points="398.84,-44.85 404.28,-35.76 394.36,-39.47 398.84,-44.85"/>
<text text-anchor="middle" x="385.39" y="-57.8" font-family="Times,serif" font-size="14.00">1</text>
</g>
<!-- dra.func_801341B4 -->
<g id="node4" class="node">
<title>dra.func_801341B4</title>
<g id="a_node4"><a xlink:href="dra.func_801341B4.svg" xlink:title="dra.func_801341B4">
<ellipse fill="green" stroke="black" cx="101.39" cy="-192" rx="101.28" ry="18"/>
<text text-anchor="middle" x="101.39" y="-188.3" font-family="Times,serif" font-size="14.00">dra.func_801341B4</text>
</a>
</g>
</g>
<!-- dra.func_801341B4&#45;&gt;dra.func_8013415C -->
<g id="edge3" class="edge">
<title>dra.func_801341B4&#45;&gt;dra.func_8013415C</title>
<path fill="none" stroke="black" d="M141.93,-175.41C178.57,-161.32 232.66,-140.51 272.06,-125.36"/>
<polygon fill="black" stroke="black" points="273.66,-128.49 281.74,-121.64 271.15,-121.96 273.66,-128.49"/>
<text text-anchor="middle" x="230.39" y="-144.8" font-family="Times,serif" font-size="14.00">1</text>
</g>
<!-- dra.func_801337B4 -->
<g id="node5" class="node">
<title>dra.func_801337B4</title>
<g id="a_node5"><a xlink:href="dra.func_801337B4.svg" xlink:title="dra.func_801337B4">
<ellipse fill="green" stroke="black" cx="322.39" cy="-192" rx="101.28" ry="18"/>
<text text-anchor="middle" x="322.39" y="-188.3" font-family="Times,serif" font-size="14.00">dra.func_801337B4</text>
</a>
</g>
</g>
<!-- dra.func_801337B4&#45;&gt;dra.func_8013415C -->
<g id="edge4" class="edge">
<title>dra.func_801337B4&#45;&gt;dra.func_8013415C</title>
<path fill="none" stroke="black" d="M322.39,-173.8C322.39,-162.16 322.39,-146.55 322.39,-133.24"/>
<polygon fill="black" stroke="black" points="325.89,-133.18 322.39,-123.18 318.89,-133.18 325.89,-133.18"/>
<text text-anchor="middle" x="327.39" y="-144.8" font-family="Times,serif" font-size="14.00">1</text>
</g>
<!-- dra.func_80134F50 -->
<g id="node6" class="node">
<title>dra.func_80134F50</title>
<g id="a_node6"><a xlink:href="dra.func_80134F50.svg" xlink:title="dra.func_80134F50">
<ellipse fill="red" stroke="black" cx="542.39" cy="-192" rx="100.98" ry="18"/>
<text text-anchor="middle" x="542.39" y="-188.3" font-family="Times,serif" font-size="14.00">dra.func_80134F50</text>
</a>
</g>
</g>
<!-- dra.func_80134F50&#45;&gt;dra.func_8013415C -->
<g id="edge5" class="edge">
<title>dra.func_80134F50&#45;&gt;dra.func_8013415C</title>
<path fill="none" stroke="black" d="M502.04,-175.41C465.56,-161.32 411.72,-140.51 372.5,-125.36"/>
<polygon fill="black" stroke="black" points="373.45,-121.97 362.86,-121.64 370.93,-128.5 373.45,-121.97"/>
<text text-anchor="middle" x="451.39" y="-144.8" font-family="Times,serif" font-size="14.00">1</text>
</g>
</g>
</svg>
