<?xml version="1.0" encoding="UTF-8" standalone="no"?>
<!DOCTYPE svg PUBLIC "-//W3C//DTD SVG 1.1//EN"
 "http://www.w3.org/Graphics/SVG/1.1/DTD/svg11.dtd">
<!-- Generated by graphviz version 2.43.0 (0)
 -->
<!-- Title: dra.func_80106A28 Pages: 1 -->
<svg width="3338pt" height="218pt"
 viewBox="0.00 0.00 3338.23 218.00" xmlns="http://www.w3.org/2000/svg" xmlns:xlink="http://www.w3.org/1999/xlink">
<g id="graph0" class="graph" transform="scale(1 1) rotate(0) translate(4 214)">
<title>dra.func_80106A28</title>
<polygon fill="white" stroke="transparent" points="-4,4 -4,-214 3334.23,-214 3334.23,4 -4,4"/>
<!-- dra.func_80106A28 -->
<g id="node1" class="node">
<title>dra.func_80106A28</title>
<ellipse fill="red" stroke="black" cx="1660.19" cy="-105" rx="100.98" ry="18"/>
<text text-anchor="middle" x="1660.19" y="-101.3" font-family="Times,serif" font-size="14.00">dra.func_80106A28</text>
</g>
<!-- Krom2RawAdd -->
<g id="node2" class="node">
<title>Krom2RawAdd</title>
<g id="a_node2"><a xlink:href="Krom2RawAdd.svg" xlink:title="Krom2RawAdd">
<ellipse fill="lightblue" stroke="black" cx="1660.19" cy="-18" rx="79.89" ry="18"/>
<text text-anchor="middle" x="1660.19" y="-14.3" font-family="Times,serif" font-size="14.00">Krom2RawAdd</text>
</a>
</g>
</g>
<!-- dra.func_80106A28&#45;&gt;Krom2RawAdd -->
<g id="edge1" class="edge">
<title>dra.func_80106A28&#45;&gt;Krom2RawAdd</title>
<path fill="none" stroke="black" d="M1660.19,-86.8C1660.19,-75.16 1660.19,-59.55 1660.19,-46.24"/>
<polygon fill="black" stroke="black" points="1663.69,-46.18 1660.19,-36.18 1656.69,-46.18 1663.69,-46.18"/>
<text text-anchor="middle" x="1665.19" y="-57.8" font-family="Times,serif" font-size="14.00">2</text>
</g>
<!-- rwrp.func_8018FF9C -->
<g id="node3" class="node">
<title>rwrp.func_8018FF9C</title>
<g id="a_node3"><a xlink:href="rwrp.func_8018FF9C.svg" xlink:title="rwrp.func_8018FF9C">
<ellipse fill="red" stroke="black" cx="109.19" cy="-192" rx="109.38" ry="18"/>
<text text-anchor="middle" x="109.19" y="-188.3" font-family="Times,serif" font-size="14.00">rwrp.func_8018FF9C</text>
</a>
</g>
</g>
<!-- rwrp.func_8018FF9C&#45;&gt;dra.func_80106A28 -->
<g id="edge2" class="edge">
<title>rwrp.func_8018FF9C&#45;&gt;dra.func_80106A28</title>
<path fill="none" stroke="black" d="M186.22,-179.19C199.85,-177.31 213.92,-175.49 227.19,-174 408.42,-153.65 454.12,-151.45 636.19,-141 968.82,-121.91 1362.88,-112.02 1550.41,-108.08"/>
<polygon fill="black" stroke="black" points="1550.63,-111.58 1560.55,-107.87 1550.48,-104.58 1550.63,-111.58"/>
<text text-anchor="middle" x="641.19" y="-144.8" font-family="Times,serif" font-size="14.00">1</text>
</g>
<!-- dre.func_8019CDC4 -->
<g id="node4" class="node">
<title>dre.func_8019CDC4</title>
<g id="a_node4"><a xlink:href="dre.func_8019CDC4.svg" xlink:title="dre.func_8019CDC4">
<ellipse fill="red" stroke="black" cx="340.19" cy="-192" rx="103.98" ry="18"/>
<text text-anchor="middle" x="340.19" y="-188.3" font-family="Times,serif" font-size="14.00">dre.func_8019CDC4</text>
</a>
</g>
</g>
<!-- dre.func_8019CDC4&#45;&gt;dra.func_80106A28 -->
<g id="edge3" class="edge">
<title>dre.func_8019CDC4&#45;&gt;dra.func_80106A28</title>
<path fill="none" stroke="black" d="M413.65,-179.23C426.79,-177.33 440.38,-175.5 453.19,-174 855.44,-126.95 1337.06,-112.19 1549.85,-107.78"/>
<polygon fill="black" stroke="black" points="1550.16,-111.27 1560.09,-107.57 1550.02,-104.28 1550.16,-111.27"/>
<text text-anchor="middle" x="789.19" y="-144.8" font-family="Times,serif" font-size="14.00">1</text>
</g>
<!-- sel.func_801B78BC -->
<g id="node5" class="node">
<title>sel.func_801B78BC</title>
<g id="a_node5"><a xlink:href="sel.func_801B78BC.svg" xlink:title="sel.func_801B78BC">
<ellipse fill="red" stroke="black" cx="563.19" cy="-192" rx="100.98" ry="18"/>
<text text-anchor="middle" x="563.19" y="-188.3" font-family="Times,serif" font-size="14.00">sel.func_801B78BC</text>
</a>
</g>
</g>
<!-- sel.func_801B78BC&#45;&gt;dra.func_80106A28 -->
<g id="edge4" class="edge">
<title>sel.func_801B78BC&#45;&gt;dra.func_80106A28</title>
<path fill="none" stroke="black" d="M634.33,-179.2C646.93,-177.32 659.93,-175.5 672.19,-174 990.65,-135.16 1369.78,-116.81 1551.94,-109.72"/>
<polygon fill="black" stroke="black" points="1552.2,-113.21 1562.05,-109.33 1551.93,-106.22 1552.2,-113.21"/>
<text text-anchor="middle" x="1003.19" y="-144.8" font-family="Times,serif" font-size="14.00">1</text>
</g>
<!-- sel.func_801B79D4 -->
<g id="node6" class="node">
<title>sel.func_801B79D4</title>
<g id="a_node6"><a xlink:href="sel.func_801B79D4.svg" xlink:title="sel.func_801B79D4">
<ellipse fill="red" stroke="black" cx="782.19" cy="-192" rx="100.98" ry="18"/>
<text text-anchor="middle" x="782.19" y="-188.3" font-family="Times,serif" font-size="14.00">sel.func_801B79D4</text>
</a>
</g>
</g>
<!-- sel.func_801B79D4&#45;&gt;dra.func_80106A28 -->
<g id="edge5" class="edge">
<title>sel.func_801B79D4&#45;&gt;dra.func_80106A28</title>
<path fill="none" stroke="black" d="M854,-179.31C866.71,-177.41 879.82,-175.56 892.19,-174 1129.21,-144.17 1409.01,-122.88 1556.75,-112.73"/>
<polygon fill="black" stroke="black" points="1557.41,-116.19 1567.15,-112.01 1556.94,-109.21 1557.41,-116.19"/>
<text text-anchor="middle" x="1192.19" y="-144.8" font-family="Times,serif" font-size="14.00">1</text>
</g>
<!-- sel.func_801B2108 -->
<g id="node7" class="node">
<title>sel.func_801B2108</title>
<g id="a_node7"><a xlink:href="sel.func_801B2108.svg" xlink:title="sel.func_801B2108">
<ellipse fill="red" stroke="black" cx="1000.19" cy="-192" rx="98.58" ry="18"/>
<text text-anchor="middle" x="1000.19" y="-188.3" font-family="Times,serif" font-size="14.00">sel.func_801B2108</text>
</a>
</g>
</g>
<!-- sel.func_801B2108&#45;&gt;dra.func_80106A28 -->
<g id="edge6" class="edge">
<title>sel.func_801B2108&#45;&gt;dra.func_80106A28</title>
<path fill="none" stroke="black" d="M1071.3,-179.46C1083.59,-177.56 1096.25,-175.67 1108.19,-174 1269.3,-151.4 1457.45,-129.09 1567.26,-116.48"/>
<polygon fill="black" stroke="black" points="1567.78,-119.95 1577.31,-115.33 1566.98,-112.99 1567.78,-119.95"/>
<text text-anchor="middle" x="1356.19" y="-144.8" font-family="Times,serif" font-size="14.00">1</text>
</g>
<!-- sel.func_801B1FD8 -->
<g id="node8" class="node">
<title>sel.func_801B1FD8</title>
<g id="a_node8"><a xlink:href="sel.func_801B1FD8.svg" xlink:title="sel.func_801B1FD8">
<ellipse fill="red" stroke="black" cx="1218.19" cy="-192" rx="100.98" ry="18"/>
<text text-anchor="middle" x="1218.19" y="-188.3" font-family="Times,serif" font-size="14.00">sel.func_801B1FD8</text>
</a>
</g>
</g>
<!-- sel.func_801B1FD8&#45;&gt;dra.func_80106A28 -->
<g id="edge7" class="edge">
<title>sel.func_801B1FD8&#45;&gt;dra.func_80106A28</title>
<path fill="none" stroke="black" d="M1284.36,-178.27C1364.66,-162.83 1499.78,-136.85 1584.25,-120.6"/>
<polygon fill="black" stroke="black" points="1585.13,-124 1594.29,-118.67 1583.81,-117.12 1585.13,-124"/>
<text text-anchor="middle" x="1471.19" y="-144.8" font-family="Times,serif" font-size="14.00">1</text>
</g>
<!-- cen.func_80196C80 -->
<g id="node9" class="node">
<title>cen.func_80196C80</title>
<g id="a_node9"><a xlink:href="cen.func_80196C80.svg" xlink:title="cen.func_80196C80">
<ellipse fill="red" stroke="black" cx="1439.19" cy="-192" rx="102.08" ry="18"/>
<text text-anchor="middle" x="1439.19" y="-188.3" font-family="Times,serif" font-size="14.00">cen.func_80196C80</text>
</a>
</g>
</g>
<!-- cen.func_80196C80&#45;&gt;dra.func_80106A28 -->
<g id="edge8" class="edge">
<title>cen.func_80196C80&#45;&gt;dra.func_80106A28</title>
<path fill="none" stroke="black" d="M1479.73,-175.41C1516.37,-161.32 1570.46,-140.51 1609.86,-125.36"/>
<polygon fill="black" stroke="black" points="1611.46,-128.49 1619.54,-121.64 1608.95,-121.96 1611.46,-128.49"/>
<text text-anchor="middle" x="1568.19" y="-144.8" font-family="Times,serif" font-size="14.00">1</text>
</g>
<!-- st0.func_801B11E8 -->
<g id="node10" class="node">
<title>st0.func_801B11E8</title>
<g id="a_node10"><a xlink:href="st0.func_801B11E8.svg" xlink:title="st0.func_801B11E8">
<ellipse fill="red" stroke="black" cx="1660.19" cy="-192" rx="101.28" ry="18"/>
<text text-anchor="middle" x="1660.19" y="-188.3" font-family="Times,serif" font-size="14.00">st0.func_801B11E8</text>
</a>
</g>
</g>
<!-- st0.func_801B11E8&#45;&gt;dra.func_80106A28 -->
<g id="edge9" class="edge">
<title>st0.func_801B11E8&#45;&gt;dra.func_80106A28</title>
<path fill="none" stroke="black" d="M1660.19,-173.8C1660.19,-162.16 1660.19,-146.55 1660.19,-133.24"/>
<polygon fill="black" stroke="black" points="1663.69,-133.18 1660.19,-123.18 1656.69,-133.18 1663.69,-133.18"/>
<text text-anchor="middle" x="1665.19" y="-144.8" font-family="Times,serif" font-size="14.00">1</text>
</g>
<!-- st0.func_801B7308 -->
<g id="node11" class="node">
<title>st0.func_801B7308</title>
<g id="a_node11"><a xlink:href="st0.func_801B7308.svg" xlink:title="st0.func_801B7308">
<ellipse fill="red" stroke="black" cx="1880.19" cy="-192" rx="100.98" ry="18"/>
<text text-anchor="middle" x="1880.19" y="-188.3" font-family="Times,serif" font-size="14.00">st0.func_801B7308</text>
</a>
</g>
</g>
<!-- st0.func_801B7308&#45;&gt;dra.func_80106A28 -->
<g id="edge10" class="edge">
<title>st0.func_801B7308&#45;&gt;dra.func_80106A28</title>
<path fill="none" stroke="black" d="M1839.84,-175.41C1803.36,-161.32 1749.52,-140.51 1710.3,-125.36"/>
<polygon fill="black" stroke="black" points="1711.25,-121.97 1700.66,-121.64 1708.72,-128.5 1711.25,-121.97"/>
<text text-anchor="middle" x="1789.19" y="-144.8" font-family="Times,serif" font-size="14.00">1</text>
</g>
<!-- no3.func_801C7680 -->
<g id="node12" class="node">
<title>no3.func_801C7680</title>
<g id="a_node12"><a xlink:href="no3.func_801C7680.svg" xlink:title="no3.func_801C7680">
<ellipse fill="red" stroke="black" cx="2101.19" cy="-192" rx="102.88" ry="18"/>
<text text-anchor="middle" x="2101.19" y="-188.3" font-family="Times,serif" font-size="14.00">no3.func_801C7680</text>
</a>
</g>
</g>
<!-- no3.func_801C7680&#45;&gt;dra.func_80106A28 -->
<g id="edge11" class="edge">
<title>no3.func_801C7680&#45;&gt;dra.func_80106A28</title>
<path fill="none" stroke="black" d="M2034.69,-178.18C1954.57,-162.74 1820.28,-136.86 1736.15,-120.64"/>
<polygon fill="black" stroke="black" points="1736.63,-117.17 1726.15,-118.71 1735.31,-124.04 1736.63,-117.17"/>
<text text-anchor="middle" x="1912.19" y="-144.8" font-family="Times,serif" font-size="14.00">1</text>
</g>
<!-- np3.func_801BEEF0 -->
<g id="node13" class="node">
<title>np3.func_801BEEF0</title>
<g id="a_node13"><a xlink:href="np3.func_801BEEF0.svg" xlink:title="np3.func_801BEEF0">
<ellipse fill="red" stroke="black" cx="2328.19" cy="-192" rx="105.88" ry="18"/>
<text text-anchor="middle" x="2328.19" y="-188.3" font-family="Times,serif" font-size="14.00">np3.func_801BEEF0</text>
</a>
</g>
</g>
<!-- np3.func_801BEEF0&#45;&gt;dra.func_80106A28 -->
<g id="edge12" class="edge">
<title>np3.func_801BEEF0&#45;&gt;dra.func_80106A28</title>
<path fill="none" stroke="black" d="M2251.83,-179.45C2238.94,-177.57 2225.69,-175.69 2213.19,-174 2051.22,-152.07 1862.14,-129.47 1752.3,-116.63"/>
<polygon fill="black" stroke="black" points="1752.59,-113.14 1742.25,-115.46 1751.78,-120.09 1752.59,-113.14"/>
<text text-anchor="middle" x="2067.19" y="-144.8" font-family="Times,serif" font-size="14.00">1</text>
</g>
<!-- nz0.func_801BF308 -->
<g id="node14" class="node">
<title>nz0.func_801BF308</title>
<g id="a_node14"><a xlink:href="nz0.func_801BF308.svg" xlink:title="nz0.func_801BF308">
<ellipse fill="red" stroke="black" cx="2555.19" cy="-192" rx="102.88" ry="18"/>
<text text-anchor="middle" x="2555.19" y="-188.3" font-family="Times,serif" font-size="14.00">nz0.func_801BF308</text>
</a>
</g>
</g>
<!-- nz0.func_801BF308&#45;&gt;dra.func_80106A28 -->
<g id="edge13" class="edge">
<title>nz0.func_801BF308&#45;&gt;dra.func_80106A28</title>
<path fill="none" stroke="black" d="M2482.38,-179.29C2469.35,-177.38 2455.88,-175.53 2443.19,-174 2200.19,-144.66 1913.3,-123.05 1763.33,-112.74"/>
<polygon fill="black" stroke="black" points="1763.42,-109.24 1753.21,-112.05 1762.95,-116.23 1763.42,-109.24"/>
<text text-anchor="middle" x="2277.19" y="-144.8" font-family="Times,serif" font-size="14.00">1</text>
</g>
<!-- wrp.func_8018E01C -->
<g id="node15" class="node">
<title>wrp.func_8018E01C</title>
<g id="a_node15"><a xlink:href="wrp.func_8018E01C.svg" xlink:title="wrp.func_8018E01C">
<ellipse fill="red" stroke="black" cx="2780.19" cy="-192" rx="104.78" ry="18"/>
<text text-anchor="middle" x="2780.19" y="-188.3" font-family="Times,serif" font-size="14.00">wrp.func_8018E01C</text>
</a>
</g>
</g>
<!-- wrp.func_8018E01C&#45;&gt;dra.func_80106A28 -->
<g id="edge14" class="edge">
<title>wrp.func_8018E01C&#45;&gt;dra.func_80106A28</title>
<path fill="none" stroke="black" d="M2706.43,-179.22C2693.37,-177.33 2679.9,-175.5 2667.19,-174 2341.21,-135.4 1953.08,-116.88 1768.32,-109.72"/>
<polygon fill="black" stroke="black" points="1768.18,-106.21 1758.06,-109.33 1767.92,-113.21 1768.18,-106.21"/>
<text text-anchor="middle" x="2480.19" y="-144.8" font-family="Times,serif" font-size="14.00">1</text>
</g>
<!-- dra.func_800F98AC -->
<g id="node16" class="node">
<title>dra.func_800F98AC</title>
<g id="a_node16"><a xlink:href="dra.func_800F98AC.svg" xlink:title="dra.func_800F98AC">
<ellipse fill="red" stroke="black" cx="3005.19" cy="-192" rx="102.88" ry="18"/>
<text text-anchor="middle" x="3005.19" y="-188.3" font-family="Times,serif" font-size="14.00">dra.func_800F98AC</text>
</a>
</g>
</g>
<!-- dra.func_800F98AC&#45;&gt;dra.func_80106A28 -->
<g id="edge15" class="edge">
<title>dra.func_800F98AC&#45;&gt;dra.func_80106A28</title>
<path fill="none" stroke="black" d="M2932.74,-179.15C2919.92,-177.27 2906.68,-175.46 2894.19,-174 2481.2,-125.61 1986.31,-111.52 1770.2,-107.52"/>
<polygon fill="black" stroke="black" points="1770.18,-104.02 1760.12,-107.34 1770.05,-111.02 1770.18,-104.02"/>
<text text-anchor="middle" x="2698.19" y="-144.8" font-family="Times,serif" font-size="14.00">1</text>
</g>
<!-- dra.func_800F99B8 -->
<g id="node17" class="node">
<title>dra.func_800F99B8</title>
<g id="a_node17"><a xlink:href="dra.func_800F99B8.svg" xlink:title="dra.func_800F99B8">
<ellipse fill="red" stroke="black" cx="3228.19" cy="-192" rx="102.08" ry="18"/>
<text text-anchor="middle" x="3228.19" y="-188.3" font-family="Times,serif" font-size="14.00">dra.func_800F99B8</text>
</a>
</g>
</g>
<!-- dra.func_800F99B8&#45;&gt;dra.func_80106A28 -->
<g id="edge16" class="edge">
<title>dra.func_800F99B8&#45;&gt;dra.func_80106A28</title>
<path fill="none" stroke="black" d="M3156.04,-179.18C3143.13,-177.29 3129.78,-175.47 3117.19,-174 2935.61,-152.82 2889.71,-151.39 2707.19,-141 2365.58,-121.55 1960.61,-111.79 1769.9,-107.98"/>
<polygon fill="black" stroke="black" points="1769.94,-104.48 1759.87,-107.78 1769.8,-111.47 1769.94,-104.48"/>
<text text-anchor="middle" x="2944.19" y="-144.8" font-family="Times,serif" font-size="14.00">1</text>
</g>
</g>
</svg>
