<?xml version="1.0" encoding="UTF-8" standalone="no"?>
<!DOCTYPE svg PUBLIC "-//W3C//DTD SVG 1.1//EN"
 "http://www.w3.org/Graphics/SVG/1.1/DTD/svg11.dtd">
<!-- Generated by graphviz version 2.43.0 (0)
 -->
<!-- Title: dra.func_800E5D30 Pages: 1 -->
<svg width="723pt" height="404pt"
 viewBox="0.00 0.00 722.94 404.00" xmlns="http://www.w3.org/2000/svg" xmlns:xlink="http://www.w3.org/1999/xlink">
<g id="graph0" class="graph" transform="scale(1 1) rotate(0) translate(4 400)">
<title>dra.func_800E5D30</title>
<polygon fill="white" stroke="transparent" points="-4,4 -4,-400 718.94,-400 718.94,4 -4,4"/>
<!-- dra.func_800E5D30 -->
<g id="node1" class="node">
<title>dra.func_800E5D30</title>
<ellipse fill="red" stroke="black" cx="462.34" cy="-198" rx="102.88" ry="18"/>
<text text-anchor="middle" x="462.34" y="-194.3" font-family="Times,serif" font-size="14.00">dra.func_800E5D30</text>
</g>
<!-- ClearImage -->
<g id="node2" class="node">
<title>ClearImage</title>
<g id="a_node2"><a xlink:href="ClearImage.svg" xlink:title="ClearImage">
<ellipse fill="lightblue" stroke="black" cx="64.34" cy="-18" rx="64.19" ry="18"/>
<text text-anchor="middle" x="64.34" y="-14.3" font-family="Times,serif" font-size="14.00">ClearImage</text>
</a>
</g>
</g>
<!-- dra.func_800E5D30&#45;&gt;ClearImage -->
<g id="edge1" class="edge">
<title>dra.func_800E5D30&#45;&gt;ClearImage</title>
<path fill="none" stroke="black" d="M426.67,-181.05C353.21,-148.19 185.33,-73.11 106.59,-37.89"/>
<polygon fill="black" stroke="black" points="107.54,-34.49 96.99,-33.6 104.68,-40.88 107.54,-34.49"/>
<text text-anchor="middle" x="91.99" y="-37.4" font-family="Times,serif" font-size="14.00">1</text>
</g>
<!-- dra.AllocPrimitives -->
<g id="node3" class="node">
<title>dra.AllocPrimitives</title>
<g id="a_node3"><a xlink:href="dra.AllocPrimitives.svg" xlink:title="dra.AllocPrimitives">
<ellipse fill="green" stroke="black" cx="246.34" cy="-18" rx="99.38" ry="18"/>
<text text-anchor="middle" x="246.34" y="-14.3" font-family="Times,serif" font-size="14.00">dra.AllocPrimitives</text>
</a>
</g>
</g>
<!-- dra.func_800E5D30&#45;&gt;dra.AllocPrimitives -->
<g id="edge2" class="edge">
<title>dra.func_800E5D30&#45;&gt;dra.AllocPrimitives</title>
<path fill="none" stroke="black" d="M442.02,-180.25C403.27,-148.32 318.72,-78.65 274.53,-42.23"/>
<polygon fill="black" stroke="black" points="276.71,-39.49 266.77,-35.83 272.26,-44.89 276.71,-39.49"/>
<text text-anchor="middle" x="261.77" y="-39.63" font-family="Times,serif" font-size="14.00">1</text>
</g>
<!-- dra.FreePrimitives -->
<g id="node4" class="node">
<title>dra.FreePrimitives</title>
<g id="a_node4"><a xlink:href="dra.FreePrimitives.svg" xlink:title="dra.FreePrimitives">
<ellipse fill="green" stroke="black" cx="462.34" cy="-18" rx="98.58" ry="18"/>
<text text-anchor="middle" x="462.34" y="-14.3" font-family="Times,serif" font-size="14.00">dra.FreePrimitives</text>
</a>
</g>
</g>
<!-- dra.func_800E5D30&#45;&gt;dra.FreePrimitives -->
<g id="edge3" class="edge">
<title>dra.func_800E5D30&#45;&gt;dra.FreePrimitives</title>
<path fill="none" stroke="black" d="M462.34,-179.93C462.34,-148.97 462.34,-83.3 462.34,-46.13"/>
<polygon fill="black" stroke="black" points="465.84,-46.02 462.34,-36.02 458.84,-46.02 465.84,-46.02"/>
<text text-anchor="middle" x="457.34" y="-39.82" font-family="Times,serif" font-size="14.00">1</text>
</g>
<!-- rcos -->
<g id="node5" class="node">
<title>rcos</title>
<g id="a_node5"><a xlink:href="rcos.svg" xlink:title="rcos">
<ellipse fill="lightblue" stroke="black" cx="609.34" cy="-18" rx="30.59" ry="18"/>
<text text-anchor="middle" x="609.34" y="-14.3" font-family="Times,serif" font-size="14.00">rcos</text>
</a>
</g>
</g>
<!-- dra.func_800E5D30&#45;&gt;rcos -->
<g id="edge4" class="edge">
<title>dra.func_800E5D30&#45;&gt;rcos</title>
<path fill="none" stroke="black" d="M476.44,-179.93C502.85,-147.95 559.83,-78.96 589.88,-42.57"/>
<polygon fill="black" stroke="black" points="592.89,-44.42 596.56,-34.48 587.49,-39.96 592.89,-44.42"/>
<text text-anchor="middle" x="591.56" y="-38.28" font-family="Times,serif" font-size="14.00">2</text>
</g>
<!-- rsin -->
<g id="node6" class="node">
<title>rsin</title>
<g id="a_node6"><a xlink:href="rsin.svg" xlink:title="rsin">
<ellipse fill="lightblue" stroke="black" cx="686.34" cy="-18" rx="28.7" ry="18"/>
<text text-anchor="middle" x="686.34" y="-14.3" font-family="Times,serif" font-size="14.00">rsin</text>
</a>
</g>
</g>
<!-- dra.func_800E5D30&#45;&gt;rsin -->
<g id="edge5" class="edge">
<title>dra.func_800E5D30&#45;&gt;rsin</title>
<path fill="none" stroke="black" d="M483.42,-180.25C524.86,-147.33 616.77,-74.29 661.26,-38.94"/>
<polygon fill="black" stroke="black" points="663.59,-41.55 669.24,-32.59 659.23,-36.07 663.59,-41.55"/>
<text text-anchor="middle" x="664.24" y="-36.39" font-family="Times,serif" font-size="14.00">2</text>
</g>
<!-- dra.func_800E6358 -->
<g id="node7" class="node">
<title>dra.func_800E6358</title>
<g id="a_node7"><a xlink:href="dra.func_800E6358.svg" xlink:title="dra.func_800E6358">
<ellipse fill="green" stroke="black" cx="462.34" cy="-378" rx="101.28" ry="18"/>
<text text-anchor="middle" x="462.34" y="-374.3" font-family="Times,serif" font-size="14.00">dra.func_800E6358</text>
</a>
</g>
</g>
<!-- dra.func_800E6358&#45;&gt;dra.func_800E5D30 -->
<g id="edge6" class="edge">
<title>dra.func_800E6358&#45;&gt;dra.func_800E5D30</title>
<path fill="none" stroke="black" d="M462.34,-359.93C462.34,-328.97 462.34,-263.3 462.34,-226.13"/>
<polygon fill="black" stroke="black" points="465.84,-226.02 462.34,-216.02 458.84,-226.02 465.84,-226.02"/>
<text text-anchor="middle" x="457.34" y="-348.73" font-family="Times,serif" font-size="14.00">3</text>
</g>
</g>
</svg>
