<?xml version="1.0" encoding="UTF-8" standalone="no"?>
<!DOCTYPE svg PUBLIC "-//W3C//DTD SVG 1.1//EN"
 "http://www.w3.org/Graphics/SVG/1.1/DTD/svg11.dtd">
<!-- Generated by graphviz version 2.43.0 (0)
 -->
<!-- Title: dra.func_800E34DC Pages: 1 -->
<svg width="832pt" height="218pt"
 viewBox="0.00 0.00 831.73 218.00" xmlns="http://www.w3.org/2000/svg" xmlns:xlink="http://www.w3.org/1999/xlink">
<g id="graph0" class="graph" transform="scale(1 1) rotate(0) translate(4 214)">
<title>dra.func_800E34DC</title>
<polygon fill="white" stroke="transparent" points="-4,4 -4,-214 827.73,-214 827.73,4 -4,4"/>
<!-- dra.func_800E34DC -->
<g id="node1" class="node">
<title>dra.func_800E34DC</title>
<ellipse fill="green" stroke="black" cx="411.54" cy="-105" rx="103.98" ry="18"/>
<text text-anchor="middle" x="411.54" y="-101.3" font-family="Times,serif" font-size="14.00">dra.func_800E34DC</text>
</g>
<!-- dra.func_800E346C -->
<g id="node2" class="node">
<title>dra.func_800E346C</title>
<g id="a_node2"><a xlink:href="dra.func_800E346C.svg" xlink:title="dra.func_800E346C">
<ellipse fill="green" stroke="black" cx="411.54" cy="-18" rx="102.88" ry="18"/>
<text text-anchor="middle" x="411.54" y="-14.3" font-family="Times,serif" font-size="14.00">dra.func_800E346C</text>
</a>
</g>
</g>
<!-- dra.func_800E34DC&#45;&gt;dra.func_800E346C -->
<g id="edge1" class="edge">
<title>dra.func_800E34DC&#45;&gt;dra.func_800E346C</title>
<path fill="none" stroke="black" d="M411.54,-86.8C411.54,-75.16 411.54,-59.55 411.54,-46.24"/>
<polygon fill="black" stroke="black" points="415.04,-46.18 411.54,-36.18 408.04,-46.18 415.04,-46.18"/>
<text text-anchor="middle" x="416.54" y="-57.8" font-family="Times,serif" font-size="14.00">1</text>
</g>
<!-- dra.SetMenuDisplayBuffer -->
<g id="node3" class="node">
<title>dra.SetMenuDisplayBuffer</title>
<g id="a_node3"><a xlink:href="dra.SetMenuDisplayBuffer.svg" xlink:title="dra.SetMenuDisplayBuffer">
<ellipse fill="green" stroke="black" cx="134.54" cy="-192" rx="134.58" ry="18"/>
<text text-anchor="middle" x="134.54" y="-188.3" font-family="Times,serif" font-size="14.00">dra.SetMenuDisplayBuffer</text>
</a>
</g>
</g>
<!-- dra.SetMenuDisplayBuffer&#45;&gt;dra.func_800E34DC -->
<g id="edge2" class="edge">
<title>dra.SetMenuDisplayBuffer&#45;&gt;dra.func_800E34DC</title>
<path fill="none" stroke="black" d="M185.67,-175.31C233,-160.78 303.36,-139.2 352.94,-123.98"/>
<polygon fill="black" stroke="black" points="354.03,-127.31 362.57,-121.03 351.98,-120.61 354.03,-127.31"/>
<text text-anchor="middle" x="295.54" y="-144.8" font-family="Times,serif" font-size="14.00">1</text>
</g>
<!-- dra.SetCgiDisplayBuffer -->
<g id="node4" class="node">
<title>dra.SetCgiDisplayBuffer</title>
<g id="a_node4"><a xlink:href="dra.SetCgiDisplayBuffer.svg" xlink:title="dra.SetCgiDisplayBuffer">
<ellipse fill="green" stroke="black" cx="411.54" cy="-192" rx="124.28" ry="18"/>
<text text-anchor="middle" x="411.54" y="-188.3" font-family="Times,serif" font-size="14.00">dra.SetCgiDisplayBuffer</text>
</a>
</g>
</g>
<!-- dra.SetCgiDisplayBuffer&#45;&gt;dra.func_800E34DC -->
<g id="edge3" class="edge">
<title>dra.SetCgiDisplayBuffer&#45;&gt;dra.func_800E34DC</title>
<path fill="none" stroke="black" d="M411.54,-173.8C411.54,-162.16 411.54,-146.55 411.54,-133.24"/>
<polygon fill="black" stroke="black" points="415.04,-133.18 411.54,-123.18 408.04,-133.18 415.04,-133.18"/>
<text text-anchor="middle" x="416.54" y="-144.8" font-family="Times,serif" font-size="14.00">1</text>
</g>
<!-- dra.SetStageDisplayBuffer -->
<g id="node5" class="node">
<title>dra.SetStageDisplayBuffer</title>
<g id="a_node5"><a xlink:href="dra.SetStageDisplayBuffer.svg" xlink:title="dra.SetStageDisplayBuffer">
<ellipse fill="green" stroke="black" cx="688.54" cy="-192" rx="135.38" ry="18"/>
<text text-anchor="middle" x="688.54" y="-188.3" font-family="Times,serif" font-size="14.00">dra.SetStageDisplayBuffer</text>
</a>
</g>
</g>
<!-- dra.SetStageDisplayBuffer&#45;&gt;dra.func_800E34DC -->
<g id="edge4" class="edge">
<title>dra.SetStageDisplayBuffer&#45;&gt;dra.func_800E34DC</title>
<path fill="none" stroke="black" d="M637.41,-175.31C590.07,-160.78 519.72,-139.2 470.14,-123.98"/>
<polygon fill="black" stroke="black" points="471.1,-120.61 460.51,-121.03 469.04,-127.31 471.1,-120.61"/>
<text text-anchor="middle" x="572.54" y="-144.8" font-family="Times,serif" font-size="14.00">1</text>
</g>
</g>
</svg>
