<?xml version="1.0" encoding="UTF-8" standalone="no"?>
<!DOCTYPE svg PUBLIC "-//W3C//DTD SVG 1.1//EN"
 "http://www.w3.org/Graphics/SVG/1.1/DTD/svg11.dtd">
<!-- Generated by graphviz version 2.43.0 (0)
 -->
<!-- Title: dra.EntityStopWatch Pages: 1 -->
<svg width="1124pt" height="224pt"
 viewBox="0.00 0.00 1123.94 224.00" xmlns="http://www.w3.org/2000/svg" xmlns:xlink="http://www.w3.org/1999/xlink">
<g id="graph0" class="graph" transform="scale(1 1) rotate(0) translate(4 220)">
<title>dra.EntityStopWatch</title>
<polygon fill="white" stroke="transparent" points="-4,4 -4,-220 1119.94,-220 1119.94,4 -4,4"/>
<!-- dra.EntityStopWatch -->
<g id="node1" class="node">
<title>dra.EntityStopWatch</title>
<ellipse fill="red" stroke="black" cx="673.44" cy="-198" rx="108.58" ry="18"/>
<text text-anchor="middle" x="673.44" y="-194.3" font-family="Times,serif" font-size="14.00">dra.EntityStopWatch</text>
</g>
<!-- dra.AllocPrimitives -->
<g id="node2" class="node">
<title>dra.AllocPrimitives</title>
<g id="a_node2"><a xlink:href="dra.AllocPrimitives.svg" xlink:title="dra.AllocPrimitives">
<ellipse fill="green" stroke="black" cx="99.44" cy="-18" rx="99.38" ry="18"/>
<text text-anchor="middle" x="99.44" y="-14.3" font-family="Times,serif" font-size="14.00">dra.AllocPrimitives</text>
</a>
</g>
</g>
<!-- dra.EntityStopWatch&#45;&gt;dra.AllocPrimitives -->
<g id="edge1" class="edge">
<title>dra.EntityStopWatch&#45;&gt;dra.AllocPrimitives</title>
<path fill="none" stroke="black" d="M624.5,-181.82C518.97,-149.1 270.42,-72.02 157.31,-36.95"/>
<polygon fill="black" stroke="black" points="158.03,-33.51 147.45,-33.89 155.96,-40.19 158.03,-33.51"/>
<text text-anchor="middle" x="142.45" y="-37.69" font-family="Times,serif" font-size="14.00">1</text>
</g>
<!-- dra.DestroyEntity -->
<g id="node3" class="node">
<title>dra.DestroyEntity</title>
<g id="a_node3"><a xlink:href="dra.DestroyEntity.svg" xlink:title="dra.DestroyEntity">
<ellipse fill="green" stroke="black" cx="311.44" cy="-18" rx="94.78" ry="18"/>
<text text-anchor="middle" x="311.44" y="-14.3" font-family="Times,serif" font-size="14.00">dra.DestroyEntity</text>
</a>
</g>
</g>
<!-- dra.EntityStopWatch&#45;&gt;dra.DestroyEntity -->
<g id="edge2" class="edge">
<title>dra.EntityStopWatch&#45;&gt;dra.DestroyEntity</title>
<path fill="none" stroke="black" d="M640.36,-180.73C574.29,-148.25 426.15,-75.4 353.39,-39.63"/>
<polygon fill="black" stroke="black" points="354.58,-36.31 344.06,-35.04 351.49,-42.59 354.58,-36.31"/>
<text text-anchor="middle" x="339.06" y="-38.84" font-family="Times,serif" font-size="14.00">1</text>
</g>
<!-- dra.PlaySfx -->
<g id="node4" class="node">
<title>dra.PlaySfx</title>
<g id="a_node4"><a xlink:href="dra.PlaySfx.svg" xlink:title="dra.PlaySfx">
<ellipse fill="green" stroke="black" cx="488.44" cy="-18" rx="64.19" ry="18"/>
<text text-anchor="middle" x="488.44" y="-14.3" font-family="Times,serif" font-size="14.00">dra.PlaySfx</text>
</a>
</g>
</g>
<!-- dra.EntityStopWatch&#45;&gt;dra.PlaySfx -->
<g id="edge3" class="edge">
<title>dra.EntityStopWatch&#45;&gt;dra.PlaySfx</title>
<path fill="none" stroke="black" d="M655.7,-179.93C622.52,-148.01 551,-79.19 513.13,-42.76"/>
<polygon fill="black" stroke="black" points="515.22,-39.91 505.59,-35.5 510.37,-44.95 515.22,-39.91"/>
<text text-anchor="middle" x="500.59" y="-39.3" font-family="Times,serif" font-size="14.00">4</text>
</g>
<!-- dra.func_8011AAFC -->
<g id="node5" class="node">
<title>dra.func_8011AAFC</title>
<g id="a_node5"><a xlink:href="dra.func_8011AAFC.svg" xlink:title="dra.func_8011AAFC">
<ellipse fill="green" stroke="black" cx="673.44" cy="-18" rx="102.88" ry="18"/>
<text text-anchor="middle" x="673.44" y="-14.3" font-family="Times,serif" font-size="14.00">dra.func_8011AAFC</text>
</a>
</g>
</g>
<!-- dra.EntityStopWatch&#45;&gt;dra.func_8011AAFC -->
<g id="edge4" class="edge">
<title>dra.EntityStopWatch&#45;&gt;dra.func_8011AAFC</title>
<path fill="none" stroke="black" d="M673.44,-179.93C673.44,-148.97 673.44,-83.3 673.44,-46.13"/>
<polygon fill="black" stroke="black" points="676.94,-46.02 673.44,-36.02 669.94,-46.02 676.94,-46.02"/>
<text text-anchor="middle" x="668.44" y="-39.82" font-family="Times,serif" font-size="14.00">2</text>
</g>
<!-- main.rcos -->
<g id="node6" class="node">
<title>main.rcos</title>
<g id="a_node6"><a xlink:href="main.rcos.svg" xlink:title="main.rcos">
<ellipse fill="red" stroke="black" cx="850.44" cy="-18" rx="55.79" ry="18"/>
<text text-anchor="middle" x="850.44" y="-14.3" font-family="Times,serif" font-size="14.00">main.rcos</text>
</a>
</g>
</g>
<!-- dra.EntityStopWatch&#45;&gt;main.rcos -->
<g id="edge5" class="edge">
<title>dra.EntityStopWatch&#45;&gt;main.rcos</title>
<path fill="none" stroke="black" d="M690.41,-179.93C722.24,-147.93 790.93,-78.84 827.09,-42.48"/>
<polygon fill="black" stroke="black" points="829.72,-44.8 834.29,-35.24 824.76,-39.86 829.72,-44.8"/>
<text text-anchor="middle" x="829.29" y="-39.04" font-family="Times,serif" font-size="14.00">2</text>
</g>
<!-- main.rsin -->
<g id="node7" class="node">
<title>main.rsin</title>
<g id="a_node7"><a xlink:href="main.rsin.svg" xlink:title="main.rsin">
<ellipse fill="green" stroke="black" cx="978.44" cy="-18" rx="54.69" ry="18"/>
<text text-anchor="middle" x="978.44" y="-14.3" font-family="Times,serif" font-size="14.00">main.rsin</text>
</a>
</g>
</g>
<!-- dra.EntityStopWatch&#45;&gt;main.rsin -->
<g id="edge6" class="edge">
<title>dra.EntityStopWatch&#45;&gt;main.rsin</title>
<path fill="none" stroke="black" d="M701.59,-180.57C757.56,-147.91 882.67,-74.89 943.67,-39.29"/>
<polygon fill="black" stroke="black" points="945.66,-42.18 952.54,-34.12 942.13,-36.14 945.66,-42.18"/>
<text text-anchor="middle" x="947.54" y="-37.92" font-family="Times,serif" font-size="14.00">2</text>
</g>
<!-- rand -->
<g id="node8" class="node">
<title>rand</title>
<g id="a_node8"><a xlink:href="rand.svg" xlink:title="rand">
<ellipse fill="lightblue" stroke="black" cx="1083.44" cy="-18" rx="32.49" ry="18"/>
<text text-anchor="middle" x="1083.44" y="-14.3" font-family="Times,serif" font-size="14.00">rand</text>
</a>
</g>
</g>
<!-- dra.EntityStopWatch&#45;&gt;rand -->
<g id="edge7" class="edge">
<title>dra.EntityStopWatch&#45;&gt;rand</title>
<path fill="none" stroke="black" d="M710.19,-181.05C788.98,-146.84 973.19,-66.87 1049.45,-33.76"/>
<polygon fill="black" stroke="black" points="1050.85,-36.97 1058.63,-29.77 1048.06,-30.55 1050.85,-36.97"/>
<text text-anchor="middle" x="1053.63" y="-33.57" font-family="Times,serif" font-size="14.00">4</text>
</g>
</g>
</svg>
