<?xml version="1.0" encoding="UTF-8" standalone="no"?>
<!DOCTYPE svg PUBLIC "-//W3C//DTD SVG 1.1//EN"
 "http://www.w3.org/Graphics/SVG/1.1/DTD/svg11.dtd">
<!-- Generated by graphviz version 2.43.0 (0)
 -->
<!-- Title: dra.func_800F2120 Pages: 1 -->
<svg width="939pt" height="218pt"
 viewBox="0.00 0.00 939.38 218.00" xmlns="http://www.w3.org/2000/svg" xmlns:xlink="http://www.w3.org/1999/xlink">
<g id="graph0" class="graph" transform="scale(1 1) rotate(0) translate(4 214)">
<title>dra.func_800F2120</title>
<polygon fill="white" stroke="transparent" points="-4,4 -4,-214 935.38,-214 935.38,4 -4,4"/>
<!-- dra.func_800F2120 -->
<g id="node1" class="node">
<title>dra.func_800F2120</title>
<ellipse fill="red" stroke="black" cx="427.69" cy="-105" rx="100.98" ry="18"/>
<text text-anchor="middle" x="427.69" y="-101.3" font-family="Times,serif" font-size="14.00">dra.func_800F2120</text>
</g>
<!-- dra.func_800F1A3C -->
<g id="node2" class="node">
<title>dra.func_800F1A3C</title>
<g id="a_node2"><a xlink:href="dra.func_800F1A3C.svg" xlink:title="dra.func_800F1A3C">
<ellipse fill="green" stroke="black" cx="102.69" cy="-18" rx="102.88" ry="18"/>
<text text-anchor="middle" x="102.69" y="-14.3" font-family="Times,serif" font-size="14.00">dra.func_800F1A3C</text>
</a>
</g>
</g>
<!-- dra.func_800F2120&#45;&gt;dra.func_800F1A3C -->
<g id="edge1" class="edge">
<title>dra.func_800F2120&#45;&gt;dra.func_800F1A3C</title>
<path fill="none" stroke="black" d="M373.29,-89.77C316.46,-74.91 227.35,-51.6 167.06,-35.83"/>
<polygon fill="black" stroke="black" points="167.83,-32.42 157.27,-33.27 166.06,-39.19 167.83,-32.42"/>
<text text-anchor="middle" x="289.69" y="-57.8" font-family="Times,serif" font-size="14.00">1</text>
</g>
<!-- ClearImage -->
<g id="node3" class="node">
<title>ClearImage</title>
<g id="a_node3"><a xlink:href="ClearImage.svg" xlink:title="ClearImage">
<ellipse fill="lightblue" stroke="black" cx="287.69" cy="-18" rx="64.19" ry="18"/>
<text text-anchor="middle" x="287.69" y="-14.3" font-family="Times,serif" font-size="14.00">ClearImage</text>
</a>
</g>
</g>
<!-- dra.func_800F2120&#45;&gt;ClearImage -->
<g id="edge2" class="edge">
<title>dra.func_800F2120&#45;&gt;ClearImage</title>
<path fill="none" stroke="black" d="M400.7,-87.61C378.43,-74.09 346.69,-54.82 322.51,-40.14"/>
<polygon fill="black" stroke="black" points="324.02,-36.96 313.65,-34.76 320.39,-42.95 324.02,-36.96"/>
<text text-anchor="middle" x="371.69" y="-57.8" font-family="Times,serif" font-size="14.00">1</text>
</g>
<!-- DrawSync -->
<g id="node4" class="node">
<title>DrawSync</title>
<g id="a_node4"><a xlink:href="DrawSync.svg" xlink:title="DrawSync">
<ellipse fill="lightblue" stroke="black" cx="427.69" cy="-18" rx="57.69" ry="18"/>
<text text-anchor="middle" x="427.69" y="-14.3" font-family="Times,serif" font-size="14.00">DrawSync</text>
</a>
</g>
</g>
<!-- dra.func_800F2120&#45;&gt;DrawSync -->
<g id="edge3" class="edge">
<title>dra.func_800F2120&#45;&gt;DrawSync</title>
<path fill="none" stroke="black" d="M427.69,-86.8C427.69,-75.16 427.69,-59.55 427.69,-46.24"/>
<polygon fill="black" stroke="black" points="431.19,-46.18 427.69,-36.18 424.19,-46.18 431.19,-46.18"/>
<text text-anchor="middle" x="432.69" y="-57.8" font-family="Times,serif" font-size="14.00">1</text>
</g>
<!-- dra.func_800F1B08 -->
<g id="node5" class="node">
<title>dra.func_800F1B08</title>
<g id="a_node5"><a xlink:href="dra.func_800F1B08.svg" xlink:title="dra.func_800F1B08">
<ellipse fill="red" stroke="black" cx="605.69" cy="-18" rx="102.08" ry="18"/>
<text text-anchor="middle" x="605.69" y="-14.3" font-family="Times,serif" font-size="14.00">dra.func_800F1B08</text>
</a>
</g>
</g>
<!-- dra.func_800F2120&#45;&gt;dra.func_800F1B08 -->
<g id="edge4" class="edge">
<title>dra.func_800F2120&#45;&gt;dra.func_800F1B08</title>
<path fill="none" stroke="black" d="M461.17,-88.01C489.92,-74.28 531.54,-54.41 562.74,-39.51"/>
<polygon fill="black" stroke="black" points="564.54,-42.53 572.06,-35.06 561.53,-36.21 564.54,-42.53"/>
<text text-anchor="middle" x="531.69" y="-57.8" font-family="Times,serif" font-size="14.00">2</text>
</g>
<!-- dra.func_800F1EB0 -->
<g id="node6" class="node">
<title>dra.func_800F1EB0</title>
<g id="a_node6"><a xlink:href="dra.func_800F1EB0.svg" xlink:title="dra.func_800F1EB0">
<ellipse fill="red" stroke="black" cx="828.69" cy="-18" rx="102.88" ry="18"/>
<text text-anchor="middle" x="828.69" y="-14.3" font-family="Times,serif" font-size="14.00">dra.func_800F1EB0</text>
</a>
</g>
</g>
<!-- dra.func_800F2120&#45;&gt;dra.func_800F1EB0 -->
<g id="edge5" class="edge">
<title>dra.func_800F2120&#45;&gt;dra.func_800F1EB0</title>
<path fill="none" stroke="black" d="M489.91,-90.81C561.8,-75.57 679.96,-50.53 756.02,-34.4"/>
<polygon fill="black" stroke="black" points="756.94,-37.79 766,-32.29 755.49,-30.94 756.94,-37.79"/>
<text text-anchor="middle" x="656.69" y="-57.8" font-family="Times,serif" font-size="14.00">1</text>
</g>
<!-- dra.func_800F223C -->
<g id="node7" class="node">
<title>dra.func_800F223C</title>
<g id="a_node7"><a xlink:href="dra.func_800F223C.svg" xlink:title="dra.func_800F223C">
<ellipse fill="green" stroke="black" cx="326.69" cy="-192" rx="102.08" ry="18"/>
<text text-anchor="middle" x="326.69" y="-188.3" font-family="Times,serif" font-size="14.00">dra.func_800F223C</text>
</a>
</g>
</g>
<!-- dra.func_800F223C&#45;&gt;dra.func_800F2120 -->
<g id="edge6" class="edge">
<title>dra.func_800F223C&#45;&gt;dra.func_800F2120</title>
<path fill="none" stroke="black" d="M346.65,-174.21C361.86,-161.4 383.01,-143.61 399.88,-129.4"/>
<polygon fill="black" stroke="black" points="402.38,-131.88 407.78,-122.76 397.87,-126.52 402.38,-131.88"/>
<text text-anchor="middle" x="388.69" y="-144.8" font-family="Times,serif" font-size="14.00">1</text>
</g>
<!-- dra.HandlePlay -->
<g id="node8" class="node">
<title>dra.HandlePlay</title>
<g id="a_node8"><a xlink:href="dra.HandlePlay.svg" xlink:title="dra.HandlePlay">
<ellipse fill="green" stroke="black" cx="529.69" cy="-192" rx="82.59" ry="18"/>
<text text-anchor="middle" x="529.69" y="-188.3" font-family="Times,serif" font-size="14.00">dra.HandlePlay</text>
</a>
</g>
</g>
<!-- dra.HandlePlay&#45;&gt;dra.func_800F2120 -->
<g id="edge7" class="edge">
<title>dra.HandlePlay&#45;&gt;dra.func_800F2120</title>
<path fill="none" stroke="black" d="M509.54,-174.21C494.17,-161.4 472.82,-143.61 455.78,-129.4"/>
<polygon fill="black" stroke="black" points="457.72,-126.47 447.8,-122.76 453.24,-131.85 457.72,-126.47"/>
<text text-anchor="middle" x="490.69" y="-144.8" font-family="Times,serif" font-size="14.00">1</text>
</g>
</g>
</svg>
