<?xml version="1.0" encoding="UTF-8" standalone="no"?>
<!DOCTYPE svg PUBLIC "-//W3C//DTD SVG 1.1//EN"
 "http://www.w3.org/Graphics/SVG/1.1/DTD/svg11.dtd">
<!-- Generated by graphviz version 2.43.0 (0)
 -->
<!-- Title: dra.func_800FD6C4 Pages: 1 -->
<svg width="875pt" height="224pt"
 viewBox="0.00 0.00 875.43 224.00" xmlns="http://www.w3.org/2000/svg" xmlns:xlink="http://www.w3.org/1999/xlink">
<g id="graph0" class="graph" transform="scale(1 1) rotate(0) translate(4 220)">
<title>dra.func_800FD6C4</title>
<polygon fill="white" stroke="transparent" points="-4,4 -4,-220 871.43,-220 871.43,4 -4,4"/>
<!-- dra.func_800FD6C4 -->
<g id="node1" class="node">
<title>dra.func_800FD6C4</title>
<ellipse fill="green" stroke="black" cx="430.74" cy="-18" rx="103.18" ry="18"/>
<text text-anchor="middle" x="430.74" y="-14.3" font-family="Times,serif" font-size="14.00">dra.func_800FD6C4</text>
</g>
<!-- dra.func_800F8990 -->
<g id="node2" class="node">
<title>dra.func_800F8990</title>
<g id="a_node2"><a xlink:href="dra.func_800F8990.svg" xlink:title="dra.func_800F8990">
<ellipse fill="green" stroke="black" cx="100.74" cy="-198" rx="100.98" ry="18"/>
<text text-anchor="middle" x="100.74" y="-194.3" font-family="Times,serif" font-size="14.00">dra.func_800F8990</text>
</a>
</g>
</g>
<!-- dra.func_800F8990&#45;&gt;dra.func_800FD6C4 -->
<g id="edge1" class="edge">
<title>dra.func_800F8990&#45;&gt;dra.func_800FD6C4</title>
<path fill="none" stroke="black" d="M130.9,-180.73C190.77,-148.44 324.6,-76.25 391.34,-40.25"/>
<polygon fill="black" stroke="black" points="393.15,-43.25 400.29,-35.42 389.83,-37.09 393.15,-43.25"/>
<text text-anchor="middle" x="125.9" y="-169.53" font-family="Times,serif" font-size="14.00">1</text>
</g>
<!-- dra.func_800FA60C -->
<g id="node3" class="node">
<title>dra.func_800FA60C</title>
<g id="a_node3"><a xlink:href="dra.func_800FA60C.svg" xlink:title="dra.func_800FA60C">
<ellipse fill="red" stroke="black" cx="320.74" cy="-198" rx="101.28" ry="18"/>
<text text-anchor="middle" x="320.74" y="-194.3" font-family="Times,serif" font-size="14.00">dra.func_800FA60C</text>
</a>
</g>
</g>
<!-- dra.func_800FA60C&#45;&gt;dra.func_800FD6C4 -->
<g id="edge2" class="edge">
<title>dra.func_800FA60C&#45;&gt;dra.func_800FD6C4</title>
<path fill="none" stroke="black" d="M331.29,-179.93C350.67,-148.57 392.05,-81.6 414.85,-44.71"/>
<polygon fill="black" stroke="black" points="417.95,-46.36 420.23,-36.02 411.99,-42.68 417.95,-46.36"/>
<text text-anchor="middle" x="326.29" y="-168.73" font-family="Times,serif" font-size="14.00">1</text>
</g>
<!-- dra.func_800FB004 -->
<g id="node4" class="node">
<title>dra.func_800FB004</title>
<g id="a_node4"><a xlink:href="dra.func_800FB004.svg" xlink:title="dra.func_800FB004">
<ellipse fill="green" stroke="black" cx="541.74" cy="-198" rx="102.08" ry="18"/>
<text text-anchor="middle" x="541.74" y="-194.3" font-family="Times,serif" font-size="14.00">dra.func_800FB004</text>
</a>
</g>
</g>
<!-- dra.func_800FB004&#45;&gt;dra.func_800FD6C4 -->
<g id="edge3" class="edge">
<title>dra.func_800FB004&#45;&gt;dra.func_800FD6C4</title>
<path fill="none" stroke="black" d="M531.1,-179.93C511.54,-148.57 469.78,-81.6 446.77,-44.71"/>
<polygon fill="black" stroke="black" points="449.61,-42.65 441.35,-36.02 443.67,-46.35 449.61,-42.65"/>
<text text-anchor="middle" x="526.1" y="-168.73" font-family="Times,serif" font-size="14.00">1</text>
</g>
<!-- dra.func_800FB23C -->
<g id="node5" class="node">
<title>dra.func_800FB23C</title>
<g id="a_node5"><a xlink:href="dra.func_800FB23C.svg" xlink:title="dra.func_800FB23C">
<ellipse fill="red" stroke="black" cx="764.74" cy="-198" rx="102.88" ry="18"/>
<text text-anchor="middle" x="764.74" y="-194.3" font-family="Times,serif" font-size="14.00">dra.func_800FB23C</text>
</a>
</g>
</g>
<!-- dra.func_800FB23C&#45;&gt;dra.func_800FD6C4 -->
<g id="edge4" class="edge">
<title>dra.func_800FB23C&#45;&gt;dra.func_800FD6C4</title>
<path fill="none" stroke="black" d="M734.22,-180.73C673.62,-148.44 538.17,-76.25 470.62,-40.25"/>
<polygon fill="black" stroke="black" points="472.03,-37.04 461.56,-35.42 468.74,-43.22 472.03,-37.04"/>
<text text-anchor="middle" x="729.22" y="-169.53" font-family="Times,serif" font-size="14.00">1</text>
</g>
</g>
</svg>
