<?xml version="1.0" encoding="UTF-8" standalone="no"?>
<!DOCTYPE svg PUBLIC "-//W3C//DTD SVG 1.1//EN"
 "http://www.w3.org/Graphics/SVG/1.1/DTD/svg11.dtd">
<!-- Generated by graphviz version 2.43.0 (0)
 -->
<!-- Title: dra.func_80102CD8 Pages: 1 -->
<svg width="5654pt" height="131pt"
 viewBox="0.00 0.00 5653.73 131.00" xmlns="http://www.w3.org/2000/svg" xmlns:xlink="http://www.w3.org/1999/xlink">
<g id="graph0" class="graph" transform="scale(1 1) rotate(0) translate(4 127)">
<title>dra.func_80102CD8</title>
<polygon fill="white" stroke="transparent" points="-4,4 -4,-127 5649.73,-127 5649.73,4 -4,4"/>
<!-- dra.func_80102CD8 -->
<g id="node1" class="node">
<title>dra.func_80102CD8</title>
<ellipse fill="green" stroke="black" cx="2854.04" cy="-18" rx="102.88" ry="18"/>
<text text-anchor="middle" x="2854.04" y="-14.3" font-family="Times,serif" font-size="14.00">dra.func_80102CD8</text>
</g>
<!-- st0.EntityDraculaFinalForm -->
<g id="node2" class="node">
<title>st0.EntityDraculaFinalForm</title>
<g id="a_node2"><a xlink:href="st0.EntityDraculaFinalForm.svg" xlink:title="st0.EntityDraculaFinalForm">
<ellipse fill="red" stroke="black" cx="141.04" cy="-105" rx="141.07" ry="18"/>
<text text-anchor="middle" x="141.04" y="-101.3" font-family="Times,serif" font-size="14.00">st0.EntityDraculaFinalForm</text>
</a>
</g>
</g>
<!-- st0.EntityDraculaFinalForm&#45;&gt;dra.func_80102CD8 -->
<g id="edge1" class="edge">
<title>st0.EntityDraculaFinalForm&#45;&gt;dra.func_80102CD8</title>
<path fill="none" stroke="black" d="M236.66,-91.76C336.21,-79.62 496.76,-61.75 636.04,-54 1052.2,-30.85 2350.3,-21.83 2741.41,-19.59"/>
<polygon fill="black" stroke="black" points="2741.62,-23.09 2751.6,-19.53 2741.58,-16.09 2741.62,-23.09"/>
<text text-anchor="middle" x="641.04" y="-57.8" font-family="Times,serif" font-size="14.00">3</text>
</g>
<!-- st0.EntityDracula -->
<g id="node3" class="node">
<title>st0.EntityDracula</title>
<g id="a_node3"><a xlink:href="st0.EntityDracula.svg" xlink:title="st0.EntityDracula">
<ellipse fill="red" stroke="black" cx="393.04" cy="-105" rx="92.88" ry="18"/>
<text text-anchor="middle" x="393.04" y="-101.3" font-family="Times,serif" font-size="14.00">st0.EntityDracula</text>
</a>
</g>
</g>
<!-- st0.EntityDracula&#45;&gt;dra.func_80102CD8 -->
<g id="edge2" class="edge">
<title>st0.EntityDracula&#45;&gt;dra.func_80102CD8</title>
<path fill="none" stroke="black" d="M459.05,-92.28C471,-90.36 483.38,-88.51 495.04,-87 653.06,-66.56 692.93,-62.73 852.04,-54 1223.97,-33.59 2376.17,-22.82 2741.62,-19.86"/>
<polygon fill="black" stroke="black" points="2741.7,-23.36 2751.68,-19.78 2741.65,-16.36 2741.7,-23.36"/>
<text text-anchor="middle" x="857.04" y="-57.8" font-family="Times,serif" font-size="14.00">1</text>
</g>
<!-- np3.EntityHammer -->
<g id="node4" class="node">
<title>np3.EntityHammer</title>
<g id="a_node4"><a xlink:href="np3.EntityHammer.svg" xlink:title="np3.EntityHammer">
<ellipse fill="red" stroke="black" cx="605.04" cy="-105" rx="100.98" ry="18"/>
<text text-anchor="middle" x="605.04" y="-101.3" font-family="Times,serif" font-size="14.00">np3.EntityHammer</text>
</a>
</g>
</g>
<!-- np3.EntityHammer&#45;&gt;dra.func_80102CD8 -->
<g id="edge3" class="edge">
<title>np3.EntityHammer&#45;&gt;dra.func_80102CD8</title>
<path fill="none" stroke="black" d="M676.85,-92.32C689.55,-90.42 702.67,-88.56 715.04,-87 863.47,-68.23 900.69,-62.79 1050.04,-54 1381.48,-34.49 2400.97,-23.29 2741.77,-20.02"/>
<polygon fill="black" stroke="black" points="2741.93,-23.52 2751.9,-19.92 2741.86,-16.52 2741.93,-23.52"/>
<text text-anchor="middle" x="1055.04" y="-57.8" font-family="Times,serif" font-size="14.00">1</text>
</g>
<!-- np3.EntitySlogra -->
<g id="node5" class="node">
<title>np3.EntitySlogra</title>
<g id="a_node5"><a xlink:href="np3.EntitySlogra.svg" xlink:title="np3.EntitySlogra">
<ellipse fill="green" stroke="black" cx="814.04" cy="-105" rx="90.18" ry="18"/>
<text text-anchor="middle" x="814.04" y="-101.3" font-family="Times,serif" font-size="14.00">np3.EntitySlogra</text>
</a>
</g>
</g>
<!-- np3.EntitySlogra&#45;&gt;dra.func_80102CD8 -->
<g id="edge4" class="edge">
<title>np3.EntitySlogra&#45;&gt;dra.func_80102CD8</title>
<path fill="none" stroke="black" d="M878.1,-92.27C889.7,-90.35 901.71,-88.51 913.04,-87 1067.48,-66.47 1106.5,-63.05 1262.04,-54 1815.93,-21.77 2479.8,-18.56 2740.79,-18.68"/>
<polygon fill="black" stroke="black" points="2741.03,-22.18 2751.03,-18.69 2741.03,-15.18 2741.03,-22.18"/>
<text text-anchor="middle" x="1267.04" y="-57.8" font-family="Times,serif" font-size="14.00">1</text>
</g>
<!-- nz0.EntitySlogra -->
<g id="node6" class="node">
<title>nz0.EntitySlogra</title>
<g id="a_node6"><a xlink:href="nz0.EntitySlogra.svg" xlink:title="nz0.EntitySlogra">
<ellipse fill="green" stroke="black" cx="1011.04" cy="-105" rx="89.08" ry="18"/>
<text text-anchor="middle" x="1011.04" y="-101.3" font-family="Times,serif" font-size="14.00">nz0.EntitySlogra</text>
</a>
</g>
</g>
<!-- nz0.EntitySlogra&#45;&gt;dra.func_80102CD8 -->
<g id="edge5" class="edge">
<title>nz0.EntitySlogra&#45;&gt;dra.func_80102CD8</title>
<path fill="none" stroke="black" d="M1073.91,-92.2C1085.56,-90.27 1097.64,-88.43 1109.04,-87 1293.93,-63.72 1340.94,-63.79 1527.04,-54 1976.61,-30.34 2512.75,-22.41 2741.57,-19.98"/>
<polygon fill="black" stroke="black" points="2741.61,-23.48 2751.57,-19.87 2741.54,-16.48 2741.61,-23.48"/>
<text text-anchor="middle" x="1532.04" y="-57.8" font-family="Times,serif" font-size="14.00">1</text>
</g>
<!-- nz0.EntityCannonShot -->
<g id="node7" class="node">
<title>nz0.EntityCannonShot</title>
<g id="a_node7"><a xlink:href="nz0.EntityCannonShot.svg" xlink:title="nz0.EntityCannonShot">
<ellipse fill="green" stroke="black" cx="1234.04" cy="-105" rx="115.88" ry="18"/>
<text text-anchor="middle" x="1234.04" y="-101.3" font-family="Times,serif" font-size="14.00">nz0.EntityCannonShot</text>
</a>
</g>
</g>
<!-- nz0.EntityCannonShot&#45;&gt;dra.func_80102CD8 -->
<g id="edge6" class="edge">
<title>nz0.EntityCannonShot&#45;&gt;dra.func_80102CD8</title>
<path fill="none" stroke="black" d="M1315.99,-92.22C1330.32,-90.34 1345.1,-88.52 1359.04,-87 1537.69,-67.55 1582.62,-64.21 1762.04,-54 2119.89,-33.63 2544.43,-24.26 2742.23,-20.75"/>
<polygon fill="black" stroke="black" points="2742.4,-24.25 2752.34,-20.57 2742.28,-17.25 2742.4,-24.25"/>
<text text-anchor="middle" x="1767.04" y="-57.8" font-family="Times,serif" font-size="14.00">1</text>
</g>
<!-- nz0.EntityCannon -->
<g id="node8" class="node">
<title>nz0.EntityCannon</title>
<g id="a_node8"><a xlink:href="nz0.EntityCannon.svg" xlink:title="nz0.EntityCannon">
<ellipse fill="green" stroke="black" cx="1462.04" cy="-105" rx="94.48" ry="18"/>
<text text-anchor="middle" x="1462.04" y="-101.3" font-family="Times,serif" font-size="14.00">nz0.EntityCannon</text>
</a>
</g>
</g>
<!-- nz0.EntityCannon&#45;&gt;dra.func_80102CD8 -->
<g id="edge7" class="edge">
<title>nz0.EntityCannon&#45;&gt;dra.func_80102CD8</title>
<path fill="none" stroke="black" d="M1527.83,-92.1C1540.16,-90.17 1552.97,-88.36 1565.04,-87 1998.2,-38.3 2517.27,-24.35 2741.63,-20.45"/>
<polygon fill="black" stroke="black" points="2741.83,-23.95 2751.77,-20.28 2741.71,-16.95 2741.83,-23.95"/>
<text text-anchor="middle" x="1923.04" y="-57.8" font-family="Times,serif" font-size="14.00">1</text>
</g>
<!-- w_018.func_82000_8017ABE4 -->
<g id="node9" class="node">
<title>w_018.func_82000_8017ABE4</title>
<g id="a_node9"><a xlink:href="w_018.func_82000_8017ABE4.svg" xlink:title="w_018.func_82000_8017ABE4">
<ellipse fill="red" stroke="black" cx="1725.04" cy="-105" rx="150.57" ry="18"/>
<text text-anchor="middle" x="1725.04" y="-101.3" font-family="Times,serif" font-size="14.00">w_018.func_82000_8017ABE4</text>
</a>
</g>
</g>
<!-- w_018.func_82000_8017ABE4&#45;&gt;dra.func_80102CD8 -->
<g id="edge8" class="edge">
<title>w_018.func_82000_8017ABE4&#45;&gt;dra.func_80102CD8</title>
<path fill="none" stroke="black" d="M1831.28,-92.17C1849.21,-90.33 1867.65,-88.53 1885.04,-87 2198.55,-59.35 2569.94,-35.88 2748.2,-25.18"/>
<polygon fill="black" stroke="black" points="2748.59,-28.67 2758.36,-24.58 2748.17,-21.68 2748.59,-28.67"/>
<text text-anchor="middle" x="2289.04" y="-57.8" font-family="Times,serif" font-size="14.00">1</text>
</g>
<!-- w_047.func_14D000_8017A908 -->
<g id="node10" class="node">
<title>w_047.func_14D000_8017A908</title>
<g id="a_node10"><a xlink:href="w_047.func_14D000_8017A908.svg" xlink:title="w_047.func_14D000_8017A908">
<ellipse fill="red" stroke="black" cx="2050.04" cy="-105" rx="155.97" ry="18"/>
<text text-anchor="middle" x="2050.04" y="-101.3" font-family="Times,serif" font-size="14.00">w_047.func_14D000_8017A908</text>
</a>
</g>
</g>
<!-- w_047.func_14D000_8017A908&#45;&gt;dra.func_80102CD8 -->
<g id="edge9" class="edge">
<title>w_047.func_14D000_8017A908&#45;&gt;dra.func_80102CD8</title>
<path fill="none" stroke="black" d="M2160.99,-92.27C2319.64,-75.5 2608.64,-44.94 2758.38,-29.11"/>
<polygon fill="black" stroke="black" points="2758.9,-32.58 2768.48,-28.05 2758.17,-25.62 2758.9,-32.58"/>
<text text-anchor="middle" x="2506.04" y="-57.8" font-family="Times,serif" font-size="14.00">1</text>
</g>
<!-- w_016.func_74000_8017B5C4 -->
<g id="node11" class="node">
<title>w_016.func_74000_8017B5C4</title>
<g id="a_node11"><a xlink:href="w_016.func_74000_8017B5C4.svg" xlink:title="w_016.func_74000_8017B5C4">
<ellipse fill="red" stroke="black" cx="2374.04" cy="-105" rx="150.27" ry="18"/>
<text text-anchor="middle" x="2374.04" y="-101.3" font-family="Times,serif" font-size="14.00">w_016.func_74000_8017B5C4</text>
</a>
</g>
</g>
<!-- w_016.func_74000_8017B5C4&#45;&gt;dra.func_80102CD8 -->
<g id="edge10" class="edge">
<title>w_016.func_74000_8017B5C4&#45;&gt;dra.func_80102CD8</title>
<path fill="none" stroke="black" d="M2454.38,-89.77C2543.29,-74.03 2685.72,-48.81 2774.36,-33.11"/>
<polygon fill="black" stroke="black" points="2775.13,-36.53 2784.37,-31.34 2773.91,-29.64 2775.13,-36.53"/>
<text text-anchor="middle" x="2648.04" y="-57.8" font-family="Times,serif" font-size="14.00">4</text>
</g>
<!-- w_017.func_7B000_8017A74C -->
<g id="node12" class="node">
<title>w_017.func_7B000_8017A74C</title>
<g id="a_node12"><a xlink:href="w_017.func_7B000_8017A74C.svg" xlink:title="w_017.func_7B000_8017A74C">
<ellipse fill="red" stroke="black" cx="2693.04" cy="-105" rx="150.57" ry="18"/>
<text text-anchor="middle" x="2693.04" y="-101.3" font-family="Times,serif" font-size="14.00">w_017.func_7B000_8017A74C</text>
</a>
</g>
</g>
<!-- w_017.func_7B000_8017A74C&#45;&gt;dra.func_80102CD8 -->
<g id="edge11" class="edge">
<title>w_017.func_7B000_8017A74C&#45;&gt;dra.func_80102CD8</title>
<path fill="none" stroke="black" d="M2724.85,-87.21C2750.53,-73.64 2786.82,-54.49 2814.4,-39.93"/>
<polygon fill="black" stroke="black" points="2816.18,-42.95 2823.39,-35.18 2812.91,-36.76 2816.18,-42.95"/>
<text text-anchor="middle" x="2789.04" y="-57.8" font-family="Times,serif" font-size="14.00">1</text>
</g>
<!-- w_024.func_AC000_8017B6CC -->
<g id="node13" class="node">
<title>w_024.func_AC000_8017B6CC</title>
<g id="a_node13"><a xlink:href="w_024.func_AC000_8017B6CC.svg" xlink:title="w_024.func_AC000_8017B6CC">
<ellipse fill="red" stroke="black" cx="3015.04" cy="-105" rx="152.97" ry="18"/>
<text text-anchor="middle" x="3015.04" y="-101.3" font-family="Times,serif" font-size="14.00">w_024.func_AC000_8017B6CC</text>
</a>
</g>
</g>
<!-- w_024.func_AC000_8017B6CC&#45;&gt;dra.func_80102CD8 -->
<g id="edge12" class="edge">
<title>w_024.func_AC000_8017B6CC&#45;&gt;dra.func_80102CD8</title>
<path fill="none" stroke="black" d="M2983.23,-87.21C2957.54,-73.64 2921.26,-54.49 2893.68,-39.93"/>
<polygon fill="black" stroke="black" points="2895.16,-36.76 2884.69,-35.18 2891.9,-42.95 2895.16,-36.76"/>
<text text-anchor="middle" x="2950.04" y="-57.8" font-family="Times,serif" font-size="14.00">1</text>
</g>
<!-- w_015.func_6D000_8017B17C -->
<g id="node14" class="node">
<title>w_015.func_6D000_8017B17C</title>
<g id="a_node14"><a xlink:href="w_015.func_6D000_8017B17C.svg" xlink:title="w_015.func_6D000_8017B17C">
<ellipse fill="red" stroke="black" cx="3337.04" cy="-105" rx="151.37" ry="18"/>
<text text-anchor="middle" x="3337.04" y="-101.3" font-family="Times,serif" font-size="14.00">w_015.func_6D000_8017B17C</text>
</a>
</g>
</g>
<!-- w_015.func_6D000_8017B17C&#45;&gt;dra.func_80102CD8 -->
<g id="edge13" class="edge">
<title>w_015.func_6D000_8017B17C&#45;&gt;dra.func_80102CD8</title>
<path fill="none" stroke="black" d="M3256.19,-89.77C3166.59,-74 3023,-48.73 2933.82,-33.04"/>
<polygon fill="black" stroke="black" points="2934.22,-29.56 2923.76,-31.27 2933.01,-36.45 2934.22,-29.56"/>
<text text-anchor="middle" x="3130.04" y="-57.8" font-family="Times,serif" font-size="14.00">1</text>
</g>
<!-- w_030.func_D6000_8017B7EC -->
<g id="node15" class="node">
<title>w_030.func_D6000_8017B7EC</title>
<g id="a_node15"><a xlink:href="w_030.func_D6000_8017B7EC.svg" xlink:title="w_030.func_D6000_8017B7EC">
<ellipse fill="red" stroke="black" cx="3659.04" cy="-105" rx="152.97" ry="18"/>
<text text-anchor="middle" x="3659.04" y="-101.3" font-family="Times,serif" font-size="14.00">w_030.func_D6000_8017B7EC</text>
</a>
</g>
</g>
<!-- w_030.func_D6000_8017B7EC&#45;&gt;dra.func_80102CD8 -->
<g id="edge14" class="edge">
<title>w_030.func_D6000_8017B7EC&#45;&gt;dra.func_80102CD8</title>
<path fill="none" stroke="black" d="M3549.21,-92.4C3390.55,-75.65 3099.8,-44.95 2949.55,-29.09"/>
<polygon fill="black" stroke="black" points="2949.73,-25.59 2939.42,-28.02 2949,-32.55 2949.73,-25.59"/>
<text text-anchor="middle" x="3310.04" y="-57.8" font-family="Times,serif" font-size="14.00">1</text>
</g>
<!-- ric.func_80158B04 -->
<g id="node16" class="node">
<title>ric.func_80158B04</title>
<g id="a_node16"><a xlink:href="ric.func_80158B04.svg" xlink:title="ric.func_80158B04">
<ellipse fill="green" stroke="black" cx="3928.04" cy="-105" rx="98.28" ry="18"/>
<text text-anchor="middle" x="3928.04" y="-101.3" font-family="Times,serif" font-size="14.00">ric.func_80158B04</text>
</a>
</g>
</g>
<!-- ric.func_80158B04&#45;&gt;dra.func_80102CD8 -->
<g id="edge15" class="edge">
<title>ric.func_80158B04&#45;&gt;dra.func_80102CD8</title>
<path fill="none" stroke="black" d="M3859.09,-92.14C3846.46,-90.22 3833.37,-88.41 3821.04,-87 3510.83,-51.52 3142.38,-31.75 2963.02,-23.56"/>
<polygon fill="black" stroke="black" points="2962.94,-20.05 2952.79,-23.09 2962.62,-27.04 2962.94,-20.05"/>
<text text-anchor="middle" x="3642.04" y="-57.8" font-family="Times,serif" font-size="14.00">1</text>
</g>
<!-- ric.func_80159CE4 -->
<g id="node17" class="node">
<title>ric.func_80159CE4</title>
<g id="a_node17"><a xlink:href="ric.func_80159CE4.svg" xlink:title="ric.func_80159CE4">
<ellipse fill="red" stroke="black" cx="4143.04" cy="-105" rx="98.58" ry="18"/>
<text text-anchor="middle" x="4143.04" y="-101.3" font-family="Times,serif" font-size="14.00">ric.func_80159CE4</text>
</a>
</g>
</g>
<!-- ric.func_80159CE4&#45;&gt;dra.func_80102CD8 -->
<g id="edge16" class="edge">
<title>ric.func_80159CE4&#45;&gt;dra.func_80102CD8</title>
<path fill="none" stroke="black" d="M4073.13,-92.26C4060.48,-90.34 4047.38,-88.5 4035.04,-87 3644.14,-39.5 3176.3,-25.01 2966.04,-20.72"/>
<polygon fill="black" stroke="black" points="2965.99,-17.22 2955.92,-20.52 2965.85,-24.22 2965.99,-17.22"/>
<text text-anchor="middle" x="3848.04" y="-57.8" font-family="Times,serif" font-size="14.00">2</text>
</g>
<!-- dra.AlucardHandleDamage -->
<g id="node18" class="node">
<title>dra.AlucardHandleDamage</title>
<g id="a_node18"><a xlink:href="dra.AlucardHandleDamage.svg" xlink:title="dra.AlucardHandleDamage">
<ellipse fill="red" stroke="black" cx="4396.04" cy="-105" rx="135.68" ry="18"/>
<text text-anchor="middle" x="4396.04" y="-101.3" font-family="Times,serif" font-size="14.00">dra.AlucardHandleDamage</text>
</a>
</g>
</g>
<!-- dra.AlucardHandleDamage&#45;&gt;dra.func_80102CD8 -->
<g id="edge17" class="edge">
<title>dra.AlucardHandleDamage&#45;&gt;dra.func_80102CD8</title>
<path fill="none" stroke="black" d="M4299.76,-92.26C4283.51,-90.41 4266.8,-88.58 4251.04,-87 4076.19,-69.43 4032.45,-64.4 3857.04,-54 3533.6,-34.82 3150.83,-25.04 2965.58,-21.12"/>
<polygon fill="black" stroke="black" points="2965.62,-17.62 2955.55,-20.91 2965.48,-24.62 2965.62,-17.62"/>
<text text-anchor="middle" x="4073.04" y="-57.8" font-family="Times,serif" font-size="14.00">2</text>
</g>
<!-- dra.func_80114DF4 -->
<g id="node19" class="node">
<title>dra.func_80114DF4</title>
<g id="a_node19"><a xlink:href="dra.func_80114DF4.svg" xlink:title="dra.func_80114DF4">
<ellipse fill="red" stroke="black" cx="4653.04" cy="-105" rx="102.88" ry="18"/>
<text text-anchor="middle" x="4653.04" y="-101.3" font-family="Times,serif" font-size="14.00">dra.func_80114DF4</text>
</a>
</g>
</g>
<!-- dra.func_80114DF4&#45;&gt;dra.func_80102CD8 -->
<g id="edge18" class="edge">
<title>dra.func_80114DF4&#45;&gt;dra.func_80102CD8</title>
<path fill="none" stroke="black" d="M4580.85,-92.19C4567.63,-90.27 4553.94,-88.44 4541.04,-87 4337.77,-64.3 4286.31,-64.25 4082.04,-54 3671.06,-33.38 3182.04,-23.96 2966.06,-20.57"/>
<polygon fill="black" stroke="black" points="2966.04,-17.07 2955.98,-20.41 2965.93,-24.07 2966.04,-17.07"/>
<text text-anchor="middle" x="4356.04" y="-57.8" font-family="Times,serif" font-size="14.00">2</text>
</g>
<!-- dra.func_801139CC -->
<g id="node20" class="node">
<title>dra.func_801139CC</title>
<g id="a_node20"><a xlink:href="dra.func_801139CC.svg" xlink:title="dra.func_801139CC">
<ellipse fill="green" stroke="black" cx="4876.04" cy="-105" rx="102.88" ry="18"/>
<text text-anchor="middle" x="4876.04" y="-101.3" font-family="Times,serif" font-size="14.00">dra.func_801139CC</text>
</a>
</g>
</g>
<!-- dra.func_801139CC&#45;&gt;dra.func_80102CD8 -->
<g id="edge19" class="edge">
<title>dra.func_801139CC&#45;&gt;dra.func_80102CD8</title>
<path fill="none" stroke="black" d="M4803.59,-92.16C4790.77,-90.28 4777.53,-88.47 4765.04,-87 4587.88,-66.15 4543.17,-63.4 4365.04,-54 3842.97,-26.44 3218.3,-20.58 2966.95,-19.33"/>
<polygon fill="black" stroke="black" points="2966.73,-15.83 2956.71,-19.29 2966.7,-22.83 2966.73,-15.83"/>
<text text-anchor="middle" x="4598.04" y="-57.8" font-family="Times,serif" font-size="14.00">1</text>
</g>
<!-- dra.func_80116B0C -->
<g id="node21" class="node">
<title>dra.func_80116B0C</title>
<g id="a_node21"><a xlink:href="dra.func_80116B0C.svg" xlink:title="dra.func_80116B0C">
<ellipse fill="red" stroke="black" cx="5099.04" cy="-105" rx="102.88" ry="18"/>
<text text-anchor="middle" x="5099.04" y="-101.3" font-family="Times,serif" font-size="14.00">dra.func_80116B0C</text>
</a>
</g>
</g>
<!-- dra.func_80116B0C&#45;&gt;dra.func_80102CD8 -->
<g id="edge20" class="edge">
<title>dra.func_80116B0C&#45;&gt;dra.func_80102CD8</title>
<path fill="none" stroke="black" d="M5026.59,-92.2C5013.76,-90.32 5000.52,-88.5 4988.04,-87 4819.28,-66.79 4776.76,-63.03 4607.04,-54 3988.5,-21.07 3245.71,-18.38 2966.99,-18.66"/>
<polygon fill="black" stroke="black" points="2966.87,-15.16 2956.87,-18.67 2966.87,-22.16 2966.87,-15.16"/>
<text text-anchor="middle" x="4829.04" y="-57.8" font-family="Times,serif" font-size="14.00">1</text>
</g>
<!-- dra.func_8012E040 -->
<g id="node22" class="node">
<title>dra.func_8012E040</title>
<g id="a_node22"><a xlink:href="dra.func_8012E040.svg" xlink:title="dra.func_8012E040">
<ellipse fill="red" stroke="black" cx="5321.04" cy="-105" rx="101.28" ry="18"/>
<text text-anchor="middle" x="5321.04" y="-101.3" font-family="Times,serif" font-size="14.00">dra.func_8012E040</text>
</a>
</g>
</g>
<!-- dra.func_8012E040&#45;&gt;dra.func_80102CD8 -->
<g id="edge21" class="edge">
<title>dra.func_8012E040&#45;&gt;dra.func_80102CD8</title>
<path fill="none" stroke="black" d="M5249.24,-92.21C5236.53,-90.33 5223.41,-88.5 5211.04,-87 5045.82,-66.95 5004.23,-62.81 4838.04,-54 4469.83,-34.49 3330.14,-23.13 2966.66,-19.94"/>
<polygon fill="black" stroke="black" points="2966.42,-16.44 2956.39,-19.85 2966.36,-23.44 2966.42,-16.44"/>
<text text-anchor="middle" x="5054.04" y="-57.8" font-family="Times,serif" font-size="14.00">1</text>
</g>
<!-- dra.func_8012D28C -->
<g id="node23" class="node">
<title>dra.func_8012D28C</title>
<g id="a_node23"><a xlink:href="dra.func_8012D28C.svg" xlink:title="dra.func_8012D28C">
<ellipse fill="red" stroke="black" cx="5543.04" cy="-105" rx="102.88" ry="18"/>
<text text-anchor="middle" x="5543.04" y="-101.3" font-family="Times,serif" font-size="14.00">dra.func_8012D28C</text>
</a>
</g>
</g>
<!-- dra.func_8012D28C&#45;&gt;dra.func_80102CD8 -->
<g id="edge22" class="edge">
<title>dra.func_8012D28C&#45;&gt;dra.func_80102CD8</title>
<path fill="none" stroke="black" d="M5470.23,-92.29C5457.2,-90.38 5443.73,-88.53 5431.04,-87 5268.01,-67.34 5227.02,-62.64 5063.04,-54 4648.62,-32.17 3356.45,-22.24 2966.54,-19.69"/>
<polygon fill="black" stroke="black" points="2966.41,-16.19 2956.38,-19.62 2966.36,-23.19 2966.41,-16.19"/>
<text text-anchor="middle" x="5277.04" y="-57.8" font-family="Times,serif" font-size="14.00">1</text>
</g>
</g>
</svg>
