<?xml version="1.0" encoding="UTF-8" standalone="no"?>
<!DOCTYPE svg PUBLIC "-//W3C//DTD SVG 1.1//EN"
 "http://www.w3.org/Graphics/SVG/1.1/DTD/svg11.dtd">
<!-- Generated by graphviz version 2.43.0 (0)
 -->
<!-- Title: dra.func_800E7458 Pages: 1 -->
<svg width="613pt" height="404pt"
 viewBox="0.00 0.00 612.98 404.00" xmlns="http://www.w3.org/2000/svg" xmlns:xlink="http://www.w3.org/1999/xlink">
<g id="graph0" class="graph" transform="scale(1 1) rotate(0) translate(4 400)">
<title>dra.func_800E7458</title>
<polygon fill="white" stroke="transparent" points="-4,4 -4,-400 608.98,-400 608.98,4 -4,4"/>
<!-- dra.func_800E7458 -->
<g id="node1" class="node">
<title>dra.func_800E7458</title>
<ellipse fill="green" stroke="black" cx="323.39" cy="-198" rx="101.28" ry="18"/>
<text text-anchor="middle" x="323.39" y="-194.3" font-family="Times,serif" font-size="14.00">dra.func_800E7458</text>
</g>
<!-- dra.func_800E4970 -->
<g id="node2" class="node">
<title>dra.func_800E4970</title>
<g id="a_node2"><a xlink:href="dra.func_800E4970.svg" xlink:title="dra.func_800E4970">
<ellipse fill="green" stroke="black" cx="101.39" cy="-18" rx="101.28" ry="18"/>
<text text-anchor="middle" x="101.39" y="-14.3" font-family="Times,serif" font-size="14.00">dra.func_800E4970</text>
</a>
</g>
</g>
<!-- dra.func_800E7458&#45;&gt;dra.func_800E4970 -->
<g id="edge1" class="edge">
<title>dra.func_800E7458&#45;&gt;dra.func_800E4970</title>
<path fill="none" stroke="black" d="M302.51,-180.25C262.67,-148.32 175.78,-78.65 130.36,-42.23"/>
<polygon fill="black" stroke="black" points="132.37,-39.36 122.38,-35.83 127.99,-44.82 132.37,-39.36"/>
<text text-anchor="middle" x="117.38" y="-39.63" font-family="Times,serif" font-size="14.00">1</text>
</g>
<!-- dra.func_800E81FC -->
<g id="node3" class="node">
<title>dra.func_800E81FC</title>
<g id="a_node3"><a xlink:href="dra.func_800E81FC.svg" xlink:title="dra.func_800E81FC">
<ellipse fill="green" stroke="black" cx="323.39" cy="-18" rx="102.88" ry="18"/>
<text text-anchor="middle" x="323.39" y="-14.3" font-family="Times,serif" font-size="14.00">dra.func_800E81FC</text>
</a>
</g>
</g>
<!-- dra.func_800E7458&#45;&gt;dra.func_800E81FC -->
<g id="edge2" class="edge">
<title>dra.func_800E7458&#45;&gt;dra.func_800E81FC</title>
<path fill="none" stroke="black" d="M323.39,-179.93C323.39,-148.97 323.39,-83.3 323.39,-46.13"/>
<polygon fill="black" stroke="black" points="326.89,-46.02 323.39,-36.02 319.89,-46.02 326.89,-46.02"/>
<text text-anchor="middle" x="318.39" y="-39.82" font-family="Times,serif" font-size="14.00">4</text>
</g>
<!-- g_api.o.Update -->
<g id="node4" class="node">
<title>g_api.o.Update</title>
<g id="a_node4"><a xlink:href="g_api.o.Update.svg" xlink:title="g_api.o.Update">
<ellipse fill="lightblue" stroke="black" cx="524.39" cy="-18" rx="80.69" ry="18"/>
<text text-anchor="middle" x="524.39" y="-14.3" font-family="Times,serif" font-size="14.00">g_api.o.Update</text>
</a>
</g>
</g>
<!-- dra.func_800E7458&#45;&gt;g_api.o.Update -->
<g id="edge3" class="edge">
<title>dra.func_800E7458&#45;&gt;g_api.o.Update</title>
<path fill="none" stroke="black" d="M342.3,-180.25C378.31,-148.37 456.78,-78.87 497.96,-42.4"/>
<polygon fill="black" stroke="black" points="500.51,-44.82 505.68,-35.57 495.87,-39.58 500.51,-44.82"/>
<text text-anchor="middle" x="500.68" y="-39.37" font-family="Times,serif" font-size="14.00">1</text>
</g>
<!-- dra.func_800E7AEC -->
<g id="node5" class="node">
<title>dra.func_800E7AEC</title>
<g id="a_node5"><a xlink:href="dra.func_800E7AEC.svg" xlink:title="dra.func_800E7AEC">
<ellipse fill="green" stroke="black" cx="323.39" cy="-378" rx="103.98" ry="18"/>
<text text-anchor="middle" x="323.39" y="-374.3" font-family="Times,serif" font-size="14.00">dra.func_800E7AEC</text>
</a>
</g>
</g>
<!-- dra.func_800E7AEC&#45;&gt;dra.func_800E7458 -->
<g id="edge4" class="edge">
<title>dra.func_800E7AEC&#45;&gt;dra.func_800E7458</title>
<path fill="none" stroke="black" d="M323.39,-359.93C323.39,-328.97 323.39,-263.3 323.39,-226.13"/>
<polygon fill="black" stroke="black" points="326.89,-226.02 323.39,-216.02 319.89,-226.02 326.89,-226.02"/>
<text text-anchor="middle" x="318.39" y="-348.73" font-family="Times,serif" font-size="14.00">1</text>
</g>
</g>
</svg>
