<?xml version="1.0" encoding="UTF-8" standalone="no"?>
<!DOCTYPE svg PUBLIC "-//W3C//DTD SVG 1.1//EN"
 "http://www.w3.org/Graphics/SVG/1.1/DTD/svg11.dtd">
<!-- Generated by graphviz version 2.43.0 (0)
 -->
<!-- Title: dra.DrawMenuSprite Pages: 1 -->
<svg width="1275pt" height="404pt"
 viewBox="0.00 0.00 1275.09 404.00" xmlns="http://www.w3.org/2000/svg" xmlns:xlink="http://www.w3.org/1999/xlink">
<g id="graph0" class="graph" transform="scale(1 1) rotate(0) translate(4 400)">
<title>dra.DrawMenuSprite</title>
<polygon fill="white" stroke="transparent" points="-4,4 -4,-400 1271.09,-400 1271.09,4 -4,4"/>
<!-- dra.DrawMenuSprite -->
<g id="node1" class="node">
<title>dra.DrawMenuSprite</title>
<ellipse fill="green" stroke="black" cx="596.35" cy="-198" rx="109.38" ry="18"/>
<text text-anchor="middle" x="596.35" y="-194.3" font-family="Times,serif" font-size="14.00">dra.DrawMenuSprite</text>
</g>
<!-- AddPrim -->
<g id="node2" class="node">
<title>AddPrim</title>
<g id="a_node2"><a xlink:href="AddPrim.svg" xlink:title="AddPrim">
<ellipse fill="lightblue" stroke="black" cx="51.35" cy="-18" rx="51.19" ry="18"/>
<text text-anchor="middle" x="51.35" y="-14.3" font-family="Times,serif" font-size="14.00">AddPrim</text>
</a>
</g>
</g>
<!-- dra.DrawMenuSprite&#45;&gt;AddPrim -->
<g id="edge1" class="edge">
<title>dra.DrawMenuSprite&#45;&gt;AddPrim</title>
<path fill="none" stroke="black" d="M549.41,-181.67C446.08,-147.92 200.02,-67.56 97.46,-34.06"/>
<polygon fill="black" stroke="black" points="98.29,-30.65 87.7,-30.87 96.12,-37.31 98.29,-30.65"/>
<text text-anchor="middle" x="82.7" y="-34.67" font-family="Times,serif" font-size="14.00">1</text>
</g>
<!-- dra.ScissorPolyGT4 -->
<g id="node3" class="node">
<title>dra.ScissorPolyGT4</title>
<g id="a_node3"><a xlink:href="dra.ScissorPolyGT4.svg" xlink:title="dra.ScissorPolyGT4">
<ellipse fill="green" stroke="black" cx="222.35" cy="-18" rx="101.28" ry="18"/>
<text text-anchor="middle" x="222.35" y="-14.3" font-family="Times,serif" font-size="14.00">dra.ScissorPolyGT4</text>
</a>
</g>
</g>
<!-- dra.DrawMenuSprite&#45;&gt;dra.ScissorPolyGT4 -->
<g id="edge2" class="edge">
<title>dra.DrawMenuSprite&#45;&gt;dra.ScissorPolyGT4</title>
<path fill="none" stroke="black" d="M562.16,-180.73C493.77,-148.18 340.23,-75.11 265.22,-39.41"/>
<polygon fill="black" stroke="black" points="266.58,-36.18 256.04,-35.04 263.57,-42.5 266.58,-36.18"/>
<text text-anchor="middle" x="251.04" y="-38.84" font-family="Times,serif" font-size="14.00">1</text>
</g>
<!-- dra.SetTexturedPrimRect -->
<g id="node4" class="node">
<title>dra.SetTexturedPrimRect</title>
<g id="a_node4"><a xlink:href="dra.SetTexturedPrimRect.svg" xlink:title="dra.SetTexturedPrimRect">
<ellipse fill="green" stroke="black" cx="471.35" cy="-18" rx="129.98" ry="18"/>
<text text-anchor="middle" x="471.35" y="-14.3" font-family="Times,serif" font-size="14.00">dra.SetTexturedPrimRect</text>
</a>
</g>
</g>
<!-- dra.DrawMenuSprite&#45;&gt;dra.SetTexturedPrimRect -->
<g id="edge3" class="edge">
<title>dra.DrawMenuSprite&#45;&gt;dra.SetTexturedPrimRect</title>
<path fill="none" stroke="black" d="M584.36,-179.93C562.24,-148.43 514.91,-81.03 489.07,-44.24"/>
<polygon fill="black" stroke="black" points="491.91,-42.19 483.29,-36.02 486.18,-46.21 491.91,-42.19"/>
<text text-anchor="middle" x="478.29" y="-39.82" font-family="Times,serif" font-size="14.00">1</text>
</g>
<!-- dra.func_800F53D4 -->
<g id="node5" class="node">
<title>dra.func_800F53D4</title>
<g id="a_node5"><a xlink:href="dra.func_800F53D4.svg" xlink:title="dra.func_800F53D4">
<ellipse fill="green" stroke="black" cx="722.35" cy="-18" rx="102.88" ry="18"/>
<text text-anchor="middle" x="722.35" y="-14.3" font-family="Times,serif" font-size="14.00">dra.func_800F53D4</text>
</a>
</g>
</g>
<!-- dra.DrawMenuSprite&#45;&gt;dra.func_800F53D4 -->
<g id="edge4" class="edge">
<title>dra.DrawMenuSprite&#45;&gt;dra.func_800F53D4</title>
<path fill="none" stroke="black" d="M608.43,-179.93C630.72,-148.43 678.43,-81.03 704.48,-44.24"/>
<polygon fill="black" stroke="black" points="707.38,-46.2 710.3,-36.02 701.67,-42.16 707.38,-46.2"/>
<text text-anchor="middle" x="705.3" y="-39.82" font-family="Times,serif" font-size="14.00">1</text>
</g>
<!-- dra.func_801071CC -->
<g id="node6" class="node">
<title>dra.func_801071CC</title>
<g id="a_node6"><a xlink:href="dra.func_801071CC.svg" xlink:title="dra.func_801071CC">
<ellipse fill="green" stroke="black" cx="945.35" cy="-18" rx="102.88" ry="18"/>
<text text-anchor="middle" x="945.35" y="-14.3" font-family="Times,serif" font-size="14.00">dra.func_801071CC</text>
</a>
</g>
</g>
<!-- dra.DrawMenuSprite&#45;&gt;dra.func_801071CC -->
<g id="edge5" class="edge">
<title>dra.DrawMenuSprite&#45;&gt;dra.func_801071CC</title>
<path fill="none" stroke="black" d="M628.24,-180.73C691.85,-148.29 834.4,-75.59 904.64,-39.76"/>
<polygon fill="black" stroke="black" points="906.33,-42.83 913.65,-35.17 903.15,-36.59 906.33,-42.83"/>
<text text-anchor="middle" x="908.65" y="-38.97" font-family="Times,serif" font-size="14.00">2</text>
</g>
<!-- dra.func_80107250 -->
<g id="node7" class="node">
<title>dra.func_80107250</title>
<g id="a_node7"><a xlink:href="dra.func_80107250.svg" xlink:title="dra.func_80107250">
<ellipse fill="green" stroke="black" cx="1166.35" cy="-18" rx="100.98" ry="18"/>
<text text-anchor="middle" x="1166.35" y="-14.3" font-family="Times,serif" font-size="14.00">dra.func_80107250</text>
</a>
</g>
</g>
<!-- dra.DrawMenuSprite&#45;&gt;dra.func_80107250 -->
<g id="edge6" class="edge">
<title>dra.DrawMenuSprite&#45;&gt;dra.func_80107250</title>
<path fill="none" stroke="black" d="M644.94,-181.82C749.74,-149.1 996.56,-72.02 1108.88,-36.95"/>
<polygon fill="black" stroke="black" points="1110.17,-40.21 1118.67,-33.89 1108.09,-33.53 1110.17,-40.21"/>
<text text-anchor="middle" x="1113.67" y="-37.69" font-family="Times,serif" font-size="14.00">1</text>
</g>
<!-- dra.DrawMenuAlucardCloakPreview -->
<g id="node8" class="node">
<title>dra.DrawMenuAlucardCloakPreview</title>
<g id="a_node8"><a xlink:href="dra.DrawMenuAlucardCloakPreview.svg" xlink:title="dra.DrawMenuAlucardCloakPreview">
<ellipse fill="green" stroke="black" cx="247.35" cy="-378" rx="179.27" ry="18"/>
<text text-anchor="middle" x="247.35" y="-374.3" font-family="Times,serif" font-size="14.00">dra.DrawMenuAlucardCloakPreview</text>
</a>
</g>
</g>
<!-- dra.DrawMenuAlucardCloakPreview&#45;&gt;dra.DrawMenuSprite -->
<g id="edge7" class="edge">
<title>dra.DrawMenuAlucardCloakPreview&#45;&gt;dra.DrawMenuSprite</title>
<path fill="none" stroke="black" d="M280.18,-360.25C344.16,-327.62 485.39,-255.59 555.38,-219.9"/>
<polygon fill="black" stroke="black" points="557.04,-222.98 564.36,-215.31 553.86,-216.74 557.04,-222.98"/>
<text text-anchor="middle" x="275.18" y="-349.05" font-family="Times,serif" font-size="14.00">2</text>
</g>
<!-- dra.DrawMenuAlucardPortrait -->
<g id="node9" class="node">
<title>dra.DrawMenuAlucardPortrait</title>
<g id="a_node9"><a xlink:href="dra.DrawMenuAlucardPortrait.svg" xlink:title="dra.DrawMenuAlucardPortrait">
<ellipse fill="green" stroke="black" cx="596.35" cy="-378" rx="152.17" ry="18"/>
<text text-anchor="middle" x="596.35" y="-374.3" font-family="Times,serif" font-size="14.00">dra.DrawMenuAlucardPortrait</text>
</a>
</g>
</g>
<!-- dra.DrawMenuAlucardPortrait&#45;&gt;dra.DrawMenuSprite -->
<g id="edge8" class="edge">
<title>dra.DrawMenuAlucardPortrait&#45;&gt;dra.DrawMenuSprite</title>
<path fill="none" stroke="black" d="M596.35,-359.93C596.35,-328.97 596.35,-263.3 596.35,-226.13"/>
<polygon fill="black" stroke="black" points="599.85,-226.02 596.35,-216.02 592.85,-226.02 599.85,-226.02"/>
<text text-anchor="middle" x="591.35" y="-348.73" font-family="Times,serif" font-size="14.00">2</text>
</g>
<!-- dra.DrawRelicsMenu -->
<g id="node10" class="node">
<title>dra.DrawRelicsMenu</title>
<g id="a_node10"><a xlink:href="dra.DrawRelicsMenu.svg" xlink:title="dra.DrawRelicsMenu">
<ellipse fill="red" stroke="black" cx="875.35" cy="-378" rx="108.58" ry="18"/>
<text text-anchor="middle" x="875.35" y="-374.3" font-family="Times,serif" font-size="14.00">dra.DrawRelicsMenu</text>
</a>
</g>
</g>
<!-- dra.DrawRelicsMenu&#45;&gt;dra.DrawMenuSprite -->
<g id="edge9" class="edge">
<title>dra.DrawRelicsMenu&#45;&gt;dra.DrawMenuSprite</title>
<path fill="none" stroke="black" d="M849.35,-360.41C798.88,-328.22 687.65,-257.25 630.99,-221.1"/>
<polygon fill="black" stroke="black" points="632.69,-218.04 622.38,-215.61 628.93,-223.94 632.69,-218.04"/>
<text text-anchor="middle" x="844.35" y="-349.21" font-family="Times,serif" font-size="14.00">2</text>
</g>
</g>
</svg>
