<?xml version="1.0" encoding="UTF-8" standalone="no"?>
<!DOCTYPE svg PUBLIC "-//W3C//DTD SVG 1.1//EN"
 "http://www.w3.org/Graphics/SVG/1.1/DTD/svg11.dtd">
<!-- Generated by graphviz version 2.43.0 (0)
 -->
<!-- Title: dra.func_80131F68 Pages: 1 -->
<svg width="4307pt" height="224pt"
 viewBox="0.00 0.00 4307.33 224.00" xmlns="http://www.w3.org/2000/svg" xmlns:xlink="http://www.w3.org/1999/xlink">
<g id="graph0" class="graph" transform="scale(1 1) rotate(0) translate(4 220)">
<title>dra.func_80131F68</title>
<polygon fill="white" stroke="transparent" points="-4,4 -4,-220 4303.33,-220 4303.33,4 -4,4"/>
<!-- dra.func_80131F68 -->
<g id="node1" class="node">
<title>dra.func_80131F68</title>
<ellipse fill="green" stroke="black" cx="2152.59" cy="-18" rx="100.98" ry="18"/>
<text text-anchor="middle" x="2152.59" y="-14.3" font-family="Times,serif" font-size="14.00">dra.func_80131F68</text>
</g>
<!-- dre.EntitySuccubusCutscene -->
<g id="node2" class="node">
<title>dre.EntitySuccubusCutscene</title>
<g id="a_node2"><a xlink:href="dre.EntitySuccubusCutscene.svg" xlink:title="dre.EntitySuccubusCutscene">
<ellipse fill="red" stroke="black" cx="145.59" cy="-198" rx="145.67" ry="18"/>
<text text-anchor="middle" x="145.59" y="-194.3" font-family="Times,serif" font-size="14.00">dre.EntitySuccubusCutscene</text>
</a>
</g>
</g>
<!-- dre.EntitySuccubusCutscene&#45;&gt;dra.func_80131F68 -->
<g id="edge1" class="edge">
<title>dre.EntitySuccubusCutscene&#45;&gt;dra.func_80131F68</title>
<path fill="none" stroke="black" d="M249.36,-185.29C266.46,-183.46 284.02,-181.63 300.59,-180 968.84,-114.32 1774.14,-49.06 2052.35,-26.91"/>
<polygon fill="black" stroke="black" points="2052.73,-30.4 2062.42,-26.11 2052.18,-23.42 2052.73,-30.4"/>
<text text-anchor="middle" x="244.36" y="-174.09" font-family="Times,serif" font-size="14.00">2</text>
</g>
<!-- sel.func_801B69F8 -->
<g id="node3" class="node">
<title>sel.func_801B69F8</title>
<g id="a_node3"><a xlink:href="sel.func_801B69F8.svg" xlink:title="sel.func_801B69F8">
<ellipse fill="red" stroke="black" cx="408.59" cy="-198" rx="99.38" ry="18"/>
<text text-anchor="middle" x="408.59" y="-194.3" font-family="Times,serif" font-size="14.00">sel.func_801B69F8</text>
</a>
</g>
</g>
<!-- sel.func_801B69F8&#45;&gt;dra.func_80131F68 -->
<g id="edge2" class="edge">
<title>sel.func_801B69F8&#45;&gt;dra.func_80131F68</title>
<path fill="none" stroke="black" d="M479.45,-185.35C492.13,-183.44 505.24,-181.57 517.59,-180 1097.32,-106.31 1796.38,-47.45 2052.41,-26.88"/>
<polygon fill="black" stroke="black" points="2052.75,-30.36 2062.44,-26.07 2052.19,-23.39 2052.75,-30.36"/>
<text text-anchor="middle" x="474.45" y="-174.15" font-family="Times,serif" font-size="14.00">2</text>
</g>
<!-- sel.func_801ACEC0 -->
<g id="node4" class="node">
<title>sel.func_801ACEC0</title>
<g id="a_node4"><a xlink:href="sel.func_801ACEC0.svg" xlink:title="sel.func_801ACEC0">
<ellipse fill="green" stroke="black" cx="627.59" cy="-198" rx="101.28" ry="18"/>
<text text-anchor="middle" x="627.59" y="-194.3" font-family="Times,serif" font-size="14.00">sel.func_801ACEC0</text>
</a>
</g>
</g>
<!-- sel.func_801ACEC0&#45;&gt;dra.func_80131F68 -->
<g id="edge3" class="edge">
<title>sel.func_801ACEC0&#45;&gt;dra.func_80131F68</title>
<path fill="none" stroke="black" d="M700.01,-185.39C712.53,-183.5 725.43,-181.63 737.59,-180 1232.88,-113.58 1828.13,-51.68 2056.75,-28.57"/>
<polygon fill="black" stroke="black" points="2057.11,-32.05 2066.7,-27.56 2056.4,-25.08 2057.11,-32.05"/>
<text text-anchor="middle" x="695.01" y="-174.19" font-family="Times,serif" font-size="14.00">1</text>
</g>
<!-- cen.EntityUnkId16 -->
<g id="node5" class="node">
<title>cen.EntityUnkId16</title>
<g id="a_node5"><a xlink:href="cen.EntityUnkId16.svg" xlink:title="cen.EntityUnkId16">
<ellipse fill="red" stroke="black" cx="845.59" cy="-198" rx="98.58" ry="18"/>
<text text-anchor="middle" x="845.59" y="-194.3" font-family="Times,serif" font-size="14.00">cen.EntityUnkId16</text>
</a>
</g>
</g>
<!-- cen.EntityUnkId16&#45;&gt;dra.func_80131F68 -->
<g id="edge4" class="edge">
<title>cen.EntityUnkId16&#45;&gt;dra.func_80131F68</title>
<path fill="none" stroke="black" d="M917.01,-185.52C929.2,-183.63 941.75,-181.73 953.59,-180 1367.51,-119.64 1863.08,-55.75 2062.73,-30.36"/>
<polygon fill="black" stroke="black" points="2063.4,-33.8 2072.88,-29.07 2062.51,-26.86 2063.4,-33.8"/>
<text text-anchor="middle" x="912.01" y="-174.32" font-family="Times,serif" font-size="14.00">2</text>
</g>
<!-- st0.func_801B0464 -->
<g id="node6" class="node">
<title>st0.func_801B0464</title>
<g id="a_node6"><a xlink:href="st0.func_801B0464.svg" xlink:title="st0.func_801B0464">
<ellipse fill="red" stroke="black" cx="1063.59" cy="-198" rx="100.98" ry="18"/>
<text text-anchor="middle" x="1063.59" y="-194.3" font-family="Times,serif" font-size="14.00">st0.func_801B0464</text>
</a>
</g>
</g>
<!-- st0.func_801B0464&#45;&gt;dra.func_80131F68 -->
<g id="edge5" class="edge">
<title>st0.func_801B0464&#45;&gt;dra.func_80131F68</title>
<path fill="none" stroke="black" d="M1135.46,-185.25C1329.89,-153.47 1865.35,-65.95 2070.83,-32.36"/>
<polygon fill="black" stroke="black" points="2071.65,-35.78 2080.95,-30.71 2070.52,-28.87 2071.65,-35.78"/>
<text text-anchor="middle" x="1130.46" y="-174.05" font-family="Times,serif" font-size="14.00">3</text>
</g>
<!-- st0.EntityDialogue -->
<g id="node7" class="node">
<title>st0.EntityDialogue</title>
<g id="a_node7"><a xlink:href="st0.EntityDialogue.svg" xlink:title="st0.EntityDialogue">
<ellipse fill="red" stroke="black" cx="1280.59" cy="-198" rx="98.28" ry="18"/>
<text text-anchor="middle" x="1280.59" y="-194.3" font-family="Times,serif" font-size="14.00">st0.EntityDialogue</text>
</a>
</g>
</g>
<!-- st0.EntityDialogue&#45;&gt;dra.func_80131F68 -->
<g id="edge6" class="edge">
<title>st0.EntityDialogue&#45;&gt;dra.func_80131F68</title>
<path fill="none" stroke="black" d="M1343.65,-184.13C1501.12,-151.98 1910.98,-68.32 2079.05,-34.01"/>
<polygon fill="black" stroke="black" points="2079.95,-37.4 2089.05,-31.97 2078.55,-30.54 2079.95,-37.4"/>
<text text-anchor="middle" x="1338.65" y="-172.93" font-family="Times,serif" font-size="14.00">2</text>
</g>
<!-- st0.EntityDraculaFinalForm -->
<g id="node8" class="node">
<title>st0.EntityDraculaFinalForm</title>
<g id="a_node8"><a xlink:href="st0.EntityDraculaFinalForm.svg" xlink:title="st0.EntityDraculaFinalForm">
<ellipse fill="red" stroke="black" cx="1537.59" cy="-198" rx="141.07" ry="18"/>
<text text-anchor="middle" x="1537.59" y="-194.3" font-family="Times,serif" font-size="14.00">st0.EntityDraculaFinalForm</text>
</a>
</g>
</g>
<!-- st0.EntityDraculaFinalForm&#45;&gt;dra.func_80131F68 -->
<g id="edge7" class="edge">
<title>st0.EntityDraculaFinalForm&#45;&gt;dra.func_80131F68</title>
<path fill="none" stroke="black" d="M1591.63,-181.36C1706.09,-148.23 1972.29,-71.18 2092.17,-36.49"/>
<polygon fill="black" stroke="black" points="2093.29,-39.81 2101.92,-33.66 2091.34,-33.08 2093.29,-39.81"/>
<text text-anchor="middle" x="1586.63" y="-170.16" font-family="Times,serif" font-size="14.00">2</text>
</g>
<!-- no3.EntityRoomTransition1 -->
<g id="node9" class="node">
<title>no3.EntityRoomTransition1</title>
<g id="a_node9"><a xlink:href="no3.EntityRoomTransition1.svg" xlink:title="no3.EntityRoomTransition1">
<ellipse fill="red" stroke="black" cx="1835.59" cy="-198" rx="139.18" ry="18"/>
<text text-anchor="middle" x="1835.59" y="-194.3" font-family="Times,serif" font-size="14.00">no3.EntityRoomTransition1</text>
</a>
</g>
</g>
<!-- no3.EntityRoomTransition1&#45;&gt;dra.func_80131F68 -->
<g id="edge8" class="edge">
<title>no3.EntityRoomTransition1&#45;&gt;dra.func_80131F68</title>
<path fill="none" stroke="black" d="M1865.41,-180.25C1923.29,-147.75 2050.75,-76.18 2114.59,-40.33"/>
<polygon fill="black" stroke="black" points="2116.53,-43.26 2123.53,-35.31 2113.1,-37.16 2116.53,-43.26"/>
<text text-anchor="middle" x="1860.41" y="-169.05" font-family="Times,serif" font-size="14.00">2</text>
</g>
<!-- no3.EntityBackgroundLightning -->
<g id="node10" class="node">
<title>no3.EntityBackgroundLightning</title>
<g id="a_node10"><a xlink:href="no3.EntityBackgroundLightning.svg" xlink:title="no3.EntityBackgroundLightning">
<ellipse fill="red" stroke="black" cx="2152.59" cy="-198" rx="159.77" ry="18"/>
<text text-anchor="middle" x="2152.59" y="-194.3" font-family="Times,serif" font-size="14.00">no3.EntityBackgroundLightning</text>
</a>
</g>
</g>
<!-- no3.EntityBackgroundLightning&#45;&gt;dra.func_80131F68 -->
<g id="edge9" class="edge">
<title>no3.EntityBackgroundLightning&#45;&gt;dra.func_80131F68</title>
<path fill="none" stroke="black" d="M2152.59,-179.93C2152.59,-148.97 2152.59,-83.3 2152.59,-46.13"/>
<polygon fill="black" stroke="black" points="2156.09,-46.02 2152.59,-36.02 2149.09,-46.02 2156.09,-46.02"/>
<text text-anchor="middle" x="2147.59" y="-168.73" font-family="Times,serif" font-size="14.00">1</text>
</g>
<!-- nz0.EntityCloseBossRoom -->
<g id="node11" class="node">
<title>nz0.EntityCloseBossRoom</title>
<g id="a_node11"><a xlink:href="nz0.EntityCloseBossRoom.svg" xlink:title="nz0.EntityCloseBossRoom">
<ellipse fill="red" stroke="black" cx="2462.59" cy="-198" rx="132.68" ry="18"/>
<text text-anchor="middle" x="2462.59" y="-194.3" font-family="Times,serif" font-size="14.00">nz0.EntityCloseBossRoom</text>
</a>
</g>
</g>
<!-- nz0.EntityCloseBossRoom&#45;&gt;dra.func_80131F68 -->
<g id="edge10" class="edge">
<title>nz0.EntityCloseBossRoom&#45;&gt;dra.func_80131F68</title>
<path fill="none" stroke="black" d="M2433.7,-180.41C2377.26,-148 2252.38,-76.3 2189.82,-40.38"/>
<polygon fill="black" stroke="black" points="2191.48,-37.29 2181.06,-35.35 2187.99,-43.37 2191.48,-37.29"/>
<text text-anchor="middle" x="2428.7" y="-169.21" font-family="Times,serif" font-size="14.00">3</text>
</g>
<!-- nz0.EntityMariaCutscene -->
<g id="node12" class="node">
<title>nz0.EntityMariaCutscene</title>
<g id="a_node12"><a xlink:href="nz0.EntityMariaCutscene.svg" xlink:title="nz0.EntityMariaCutscene">
<ellipse fill="red" stroke="black" cx="2742.59" cy="-198" rx="129.18" ry="18"/>
<text text-anchor="middle" x="2742.59" y="-194.3" font-family="Times,serif" font-size="14.00">nz0.EntityMariaCutscene</text>
</a>
</g>
</g>
<!-- nz0.EntityMariaCutscene&#45;&gt;dra.func_80131F68 -->
<g id="edge11" class="edge">
<title>nz0.EntityMariaCutscene&#45;&gt;dra.func_80131F68</title>
<path fill="none" stroke="black" d="M2691,-181.44C2581.6,-148.43 2326.89,-71.59 2211.39,-36.74"/>
<polygon fill="black" stroke="black" points="2212.24,-33.34 2201.66,-33.8 2210.22,-40.04 2212.24,-33.34"/>
<text text-anchor="middle" x="2686" y="-170.24" font-family="Times,serif" font-size="14.00">2</text>
</g>
<!-- servant.func_80174038 -->
<g id="node13" class="node">
<title>servant.func_80174038</title>
<g id="a_node13"><a xlink:href="servant.func_80174038.svg" xlink:title="servant.func_80174038">
<ellipse fill="green" stroke="black" cx="3010.59" cy="-198" rx="120.48" ry="18"/>
<text text-anchor="middle" x="3010.59" y="-194.3" font-family="Times,serif" font-size="14.00">servant.func_80174038</text>
</a>
</g>
</g>
<!-- servant.func_80174038&#45;&gt;dra.func_80131F68 -->
<g id="edge12" class="edge">
<title>servant.func_80174038&#45;&gt;dra.func_80131F68</title>
<path fill="none" stroke="black" d="M2943.26,-183.03C2784.9,-150.18 2389.85,-68.22 2225.8,-34.19"/>
<polygon fill="black" stroke="black" points="2226.31,-30.72 2215.8,-32.11 2224.88,-37.57 2226.31,-30.72"/>
<text text-anchor="middle" x="2938.26" y="-171.83" font-family="Times,serif" font-size="14.00">2</text>
</g>
<!-- dra.func_800F298C -->
<g id="node14" class="node">
<title>dra.func_800F298C</title>
<g id="a_node14"><a xlink:href="dra.func_800F298C.svg" xlink:title="dra.func_800F298C">
<ellipse fill="red" stroke="black" cx="3250.59" cy="-198" rx="102.08" ry="18"/>
<text text-anchor="middle" x="3250.59" y="-194.3" font-family="Times,serif" font-size="14.00">dra.func_800F298C</text>
</a>
</g>
</g>
<!-- dra.func_800F298C&#45;&gt;dra.func_80131F68 -->
<g id="edge13" class="edge">
<title>dra.func_800F298C&#45;&gt;dra.func_80131F68</title>
<path fill="none" stroke="black" d="M3178.12,-185.25C2981.87,-153.44 2441.02,-65.76 2234.34,-32.25"/>
<polygon fill="black" stroke="black" points="2234.89,-28.8 2224.46,-30.65 2233.77,-35.71 2234.89,-28.8"/>
<text text-anchor="middle" x="3173.12" y="-174.05" font-family="Times,serif" font-size="14.00">1</text>
</g>
<!-- dra.func_800E414C -->
<g id="node15" class="node">
<title>dra.func_800E414C</title>
<g id="a_node15"><a xlink:href="dra.func_800E414C.svg" xlink:title="dra.func_800E414C">
<ellipse fill="green" stroke="black" cx="3473.59" cy="-198" rx="102.88" ry="18"/>
<text text-anchor="middle" x="3473.59" y="-194.3" font-family="Times,serif" font-size="14.00">dra.func_800E414C</text>
</a>
</g>
</g>
<!-- dra.func_800E414C&#45;&gt;dra.func_80131F68 -->
<g id="edge14" class="edge">
<title>dra.func_800E414C&#45;&gt;dra.func_80131F68</title>
<path fill="none" stroke="black" d="M3399.21,-185.52C3386.66,-183.63 3373.76,-181.73 3361.59,-180 2943.56,-120.45 2443.22,-55.98 2242.43,-30.39"/>
<polygon fill="black" stroke="black" points="2242.59,-26.89 2232.23,-29.09 2241.71,-33.83 2242.59,-26.89"/>
<text text-anchor="middle" x="3394.21" y="-174.32" font-family="Times,serif" font-size="14.00">1</text>
</g>
<!-- dra.HandleGameOver -->
<g id="node16" class="node">
<title>dra.HandleGameOver</title>
<g id="a_node16"><a xlink:href="dra.HandleGameOver.svg" xlink:title="dra.HandleGameOver">
<ellipse fill="red" stroke="black" cx="3705.59" cy="-198" rx="111.58" ry="18"/>
<text text-anchor="middle" x="3705.59" y="-194.3" font-family="Times,serif" font-size="14.00">dra.HandleGameOver</text>
</a>
</g>
</g>
<!-- dra.HandleGameOver&#45;&gt;dra.func_80131F68 -->
<g id="edge15" class="edge">
<title>dra.HandleGameOver&#45;&gt;dra.func_80131F68</title>
<path fill="none" stroke="black" d="M3625.59,-185.34C3612.24,-183.49 3598.53,-181.64 3585.59,-180 3082.39,-116.1 2478.07,-52.5 2247.91,-28.75"/>
<polygon fill="black" stroke="black" points="2248.2,-25.26 2237.89,-27.72 2247.48,-32.22 2248.2,-25.26"/>
<text text-anchor="middle" x="3620.59" y="-174.14" font-family="Times,serif" font-size="14.00">2</text>
</g>
<!-- dra.HandlePrologueEnd -->
<g id="node17" class="node">
<title>dra.HandlePrologueEnd</title>
<g id="a_node17"><a xlink:href="dra.HandlePrologueEnd.svg" xlink:title="dra.HandlePrologueEnd">
<ellipse fill="green" stroke="black" cx="3957.59" cy="-198" rx="122.38" ry="18"/>
<text text-anchor="middle" x="3957.59" y="-194.3" font-family="Times,serif" font-size="14.00">dra.HandlePrologueEnd</text>
</a>
</g>
</g>
<!-- dra.HandlePrologueEnd&#45;&gt;dra.func_80131F68 -->
<g id="edge16" class="edge">
<title>dra.HandlePrologueEnd&#45;&gt;dra.func_80131F68</title>
<path fill="none" stroke="black" d="M3870.61,-185.3C3855.93,-183.45 3840.83,-181.61 3826.59,-180 3229.66,-112.58 2510.92,-49.53 2251.76,-27.38"/>
<polygon fill="black" stroke="black" points="2251.88,-23.88 2241.62,-26.52 2251.29,-30.85 2251.88,-23.88"/>
<text text-anchor="middle" x="3865.61" y="-174.1" font-family="Times,serif" font-size="14.00">1</text>
</g>
<!-- dra.func_800F2860 -->
<g id="node18" class="node">
<title>dra.func_800F2860</title>
<g id="a_node18"><a xlink:href="dra.func_800F2860.svg" xlink:title="dra.func_800F2860">
<ellipse fill="green" stroke="black" cx="4198.59" cy="-198" rx="100.98" ry="18"/>
<text text-anchor="middle" x="4198.59" y="-194.3" font-family="Times,serif" font-size="14.00">dra.func_800F2860</text>
</a>
</g>
</g>
<!-- dra.func_800F2860&#45;&gt;dra.func_80131F68 -->
<g id="edge17" class="edge">
<title>dra.func_800F2860&#45;&gt;dra.func_80131F68</title>
<path fill="none" stroke="black" d="M4127.39,-185.25C4114.49,-183.33 4101.16,-181.49 4088.59,-180 3391.43,-97.24 2548.02,-42.62 2257.12,-25.1"/>
<polygon fill="black" stroke="black" points="2257.2,-21.6 2247.01,-24.49 2256.78,-28.58 2257.2,-21.6"/>
<text text-anchor="middle" x="4122.39" y="-174.05" font-family="Times,serif" font-size="14.00">4</text>
</g>
</g>
</svg>
