<?xml version="1.0" encoding="UTF-8" standalone="no"?>
<!DOCTYPE svg PUBLIC "-//W3C//DTD SVG 1.1//EN"
 "http://www.w3.org/Graphics/SVG/1.1/DTD/svg11.dtd">
<!-- Generated by graphviz version 2.43.0 (0)
 -->
<!-- Title: dra.TimeAttackController Pages: 1 -->
<svg width="2417pt" height="224pt"
 viewBox="0.00 0.00 2417.08 224.00" xmlns="http://www.w3.org/2000/svg" xmlns:xlink="http://www.w3.org/1999/xlink">
<g id="graph0" class="graph" transform="scale(1 1) rotate(0) translate(4 220)">
<title>dra.TimeAttackController</title>
<polygon fill="white" stroke="transparent" points="-4,4 -4,-220 2413.08,-220 2413.08,4 -4,4"/>
<!-- dra.TimeAttackController -->
<g id="node1" class="node">
<title>dra.TimeAttackController</title>
<ellipse fill="green" stroke="black" cx="1226.69" cy="-18" rx="129.18" ry="18"/>
<text text-anchor="middle" x="1226.69" y="-14.3" font-family="Times,serif" font-size="14.00">dra.TimeAttackController</text>
</g>
<!-- dre.EntitySuccubus -->
<g id="node2" class="node">
<title>dre.EntitySuccubus</title>
<g id="a_node2"><a xlink:href="dre.EntitySuccubus.svg" xlink:title="dre.EntitySuccubus">
<ellipse fill="green" stroke="black" cx="102.69" cy="-198" rx="102.88" ry="18"/>
<text text-anchor="middle" x="102.69" y="-194.3" font-family="Times,serif" font-size="14.00">dre.EntitySuccubus</text>
</a>
</g>
</g>
<!-- dre.EntitySuccubus&#45;&gt;dra.TimeAttackController -->
<g id="edge1" class="edge">
<title>dre.EntitySuccubus&#45;&gt;dra.TimeAttackController</title>
<path fill="none" stroke="black" d="M176.01,-185.39C373.57,-154.1 916.79,-68.08 1134.58,-33.59"/>
<polygon fill="black" stroke="black" points="1135.38,-37 1144.71,-31.98 1134.28,-30.09 1135.38,-37"/>
<text text-anchor="middle" x="171.01" y="-174.19" font-family="Times,serif" font-size="14.00">2</text>
</g>
<!-- cen.EntityUnkId16 -->
<g id="node3" class="node">
<title>cen.EntityUnkId16</title>
<g id="a_node3"><a xlink:href="cen.EntityUnkId16.svg" xlink:title="cen.EntityUnkId16">
<ellipse fill="red" stroke="black" cx="321.69" cy="-198" rx="98.58" ry="18"/>
<text text-anchor="middle" x="321.69" y="-194.3" font-family="Times,serif" font-size="14.00">cen.EntityUnkId16</text>
</a>
</g>
</g>
<!-- cen.EntityUnkId16&#45;&gt;dra.TimeAttackController -->
<g id="edge2" class="edge">
<title>cen.EntityUnkId16&#45;&gt;dra.TimeAttackController</title>
<path fill="none" stroke="black" d="M386.05,-184.34C547.16,-152.65 967.61,-69.96 1145.41,-34.99"/>
<polygon fill="black" stroke="black" points="1146.1,-38.42 1155.23,-33.05 1144.74,-31.55 1146.1,-38.42"/>
<text text-anchor="middle" x="381.05" y="-173.14" font-family="Times,serif" font-size="14.00">1</text>
</g>
<!-- st0.EntityDraculaFinalForm -->
<g id="node4" class="node">
<title>st0.EntityDraculaFinalForm</title>
<g id="a_node4"><a xlink:href="st0.EntityDraculaFinalForm.svg" xlink:title="st0.EntityDraculaFinalForm">
<ellipse fill="red" stroke="black" cx="579.69" cy="-198" rx="141.07" ry="18"/>
<text text-anchor="middle" x="579.69" y="-194.3" font-family="Times,serif" font-size="14.00">st0.EntityDraculaFinalForm</text>
</a>
</g>
</g>
<!-- st0.EntityDraculaFinalForm&#45;&gt;dra.TimeAttackController -->
<g id="edge3" class="edge">
<title>st0.EntityDraculaFinalForm&#45;&gt;dra.TimeAttackController</title>
<path fill="none" stroke="black" d="M636.26,-181.44C755.87,-148.53 1033.88,-72.04 1161.06,-37.06"/>
<polygon fill="black" stroke="black" points="1162.35,-40.33 1171.06,-34.31 1160.49,-33.58 1162.35,-40.33"/>
<text text-anchor="middle" x="631.26" y="-170.24" font-family="Times,serif" font-size="14.00">1</text>
</g>
<!-- st0.EntityDracula -->
<g id="node5" class="node">
<title>st0.EntityDracula</title>
<g id="a_node5"><a xlink:href="st0.EntityDracula.svg" xlink:title="st0.EntityDracula">
<ellipse fill="red" stroke="black" cx="831.69" cy="-198" rx="92.88" ry="18"/>
<text text-anchor="middle" x="831.69" y="-194.3" font-family="Times,serif" font-size="14.00">st0.EntityDracula</text>
</a>
</g>
</g>
<!-- st0.EntityDracula&#45;&gt;dra.TimeAttackController -->
<g id="edge4" class="edge">
<title>st0.EntityDracula&#45;&gt;dra.TimeAttackController</title>
<path fill="none" stroke="black" d="M866.74,-181.2C938.32,-148.95 1101.23,-75.54 1180.99,-39.6"/>
<polygon fill="black" stroke="black" points="1182.61,-42.7 1190.29,-35.4 1179.73,-36.32 1182.61,-42.7"/>
<text text-anchor="middle" x="861.74" y="-170" font-family="Times,serif" font-size="14.00">1</text>
</g>
<!-- no3.EntityRoomTransition1 -->
<g id="node6" class="node">
<title>no3.EntityRoomTransition1</title>
<g id="a_node6"><a xlink:href="no3.EntityRoomTransition1.svg" xlink:title="no3.EntityRoomTransition1">
<ellipse fill="red" stroke="black" cx="1081.69" cy="-198" rx="139.18" ry="18"/>
<text text-anchor="middle" x="1081.69" y="-194.3" font-family="Times,serif" font-size="14.00">no3.EntityRoomTransition1</text>
</a>
</g>
</g>
<!-- no3.EntityRoomTransition1&#45;&gt;dra.TimeAttackController -->
<g id="edge5" class="edge">
<title>no3.EntityRoomTransition1&#45;&gt;dra.TimeAttackController</title>
<path fill="none" stroke="black" d="M1095.59,-179.93C1121.36,-148.3 1176.62,-80.46 1206.51,-43.78"/>
<polygon fill="black" stroke="black" points="1209.23,-45.98 1212.83,-36.02 1203.8,-41.56 1209.23,-45.98"/>
<text text-anchor="middle" x="1090.59" y="-168.73" font-family="Times,serif" font-size="14.00">1</text>
</g>
<!-- nz0.EntityCloseBossRoom -->
<g id="node7" class="node">
<title>nz0.EntityCloseBossRoom</title>
<g id="a_node7"><a xlink:href="nz0.EntityCloseBossRoom.svg" xlink:title="nz0.EntityCloseBossRoom">
<ellipse fill="red" stroke="black" cx="1371.69" cy="-198" rx="132.68" ry="18"/>
<text text-anchor="middle" x="1371.69" y="-194.3" font-family="Times,serif" font-size="14.00">nz0.EntityCloseBossRoom</text>
</a>
</g>
</g>
<!-- nz0.EntityCloseBossRoom&#45;&gt;dra.TimeAttackController -->
<g id="edge6" class="edge">
<title>nz0.EntityCloseBossRoom&#45;&gt;dra.TimeAttackController</title>
<path fill="none" stroke="black" d="M1357.79,-179.93C1332.02,-148.3 1276.76,-80.46 1246.87,-43.78"/>
<polygon fill="black" stroke="black" points="1249.58,-41.56 1240.55,-36.02 1244.15,-45.98 1249.58,-41.56"/>
<text text-anchor="middle" x="1352.79" y="-168.73" font-family="Times,serif" font-size="14.00">3</text>
</g>
<!-- dra.func_800F6CC0 -->
<g id="node8" class="node">
<title>dra.func_800F6CC0</title>
<g id="a_node8"><a xlink:href="dra.func_800F6CC0.svg" xlink:title="dra.func_800F6CC0">
<ellipse fill="red" stroke="black" cx="1624.69" cy="-198" rx="102.88" ry="18"/>
<text text-anchor="middle" x="1624.69" y="-194.3" font-family="Times,serif" font-size="14.00">dra.func_800F6CC0</text>
</a>
</g>
</g>
<!-- dra.func_800F6CC0&#45;&gt;dra.TimeAttackController -->
<g id="edge7" class="edge">
<title>dra.func_800F6CC0&#45;&gt;dra.TimeAttackController</title>
<path fill="none" stroke="black" d="M1589.02,-181.05C1516.69,-148.7 1352.84,-75.42 1272.64,-39.55"/>
<polygon fill="black" stroke="black" points="1273.85,-36.26 1263.29,-35.37 1270.99,-42.65 1273.85,-36.26"/>
<text text-anchor="middle" x="1584.02" y="-169.85" font-family="Times,serif" font-size="14.00">1</text>
</g>
<!-- dra.InitStatsAndGear -->
<g id="node9" class="node">
<title>dra.InitStatsAndGear</title>
<g id="a_node9"><a xlink:href="dra.InitStatsAndGear.svg" xlink:title="dra.InitStatsAndGear">
<ellipse fill="green" stroke="black" cx="1855.69" cy="-198" rx="110.48" ry="18"/>
<text text-anchor="middle" x="1855.69" y="-194.3" font-family="Times,serif" font-size="14.00">dra.InitStatsAndGear</text>
</a>
</g>
</g>
<!-- dra.InitStatsAndGear&#45;&gt;dra.TimeAttackController -->
<g id="edge8" class="edge">
<title>dra.InitStatsAndGear&#45;&gt;dra.TimeAttackController</title>
<path fill="none" stroke="black" d="M1803.14,-182.13C1688.44,-149.67 1415.94,-72.55 1291.13,-37.23"/>
<polygon fill="black" stroke="black" points="1291.89,-33.81 1281.32,-34.46 1289.99,-40.55 1291.89,-33.81"/>
<text text-anchor="middle" x="1798.14" y="-170.93" font-family="Times,serif" font-size="14.00">6</text>
</g>
<!-- dra.func_800F087C -->
<g id="node10" class="node">
<title>dra.func_800F087C</title>
<g id="a_node10"><a xlink:href="dra.func_800F087C.svg" xlink:title="dra.func_800F087C">
<ellipse fill="green" stroke="black" cx="2086.69" cy="-198" rx="102.08" ry="18"/>
<text text-anchor="middle" x="2086.69" y="-194.3" font-family="Times,serif" font-size="14.00">dra.func_800F087C</text>
</a>
</g>
</g>
<!-- dra.func_800F087C&#45;&gt;dra.TimeAttackController -->
<g id="edge9" class="edge">
<title>dra.func_800F087C&#45;&gt;dra.TimeAttackController</title>
<path fill="none" stroke="black" d="M2023.1,-183.84C1868.7,-151.88 1474.31,-70.25 1305.4,-35.29"/>
<polygon fill="black" stroke="black" points="1306.08,-31.86 1295.58,-33.26 1304.66,-38.71 1306.08,-31.86"/>
<text text-anchor="middle" x="2018.1" y="-172.64" font-family="Times,serif" font-size="14.00">1</text>
</g>
<!-- dra.func_800F24F4 -->
<g id="node11" class="node">
<title>dra.func_800F24F4</title>
<g id="a_node11"><a xlink:href="dra.func_800F24F4.svg" xlink:title="dra.func_800F24F4">
<ellipse fill="red" stroke="black" cx="2307.69" cy="-198" rx="101.28" ry="18"/>
<text text-anchor="middle" x="2307.69" y="-194.3" font-family="Times,serif" font-size="14.00">dra.func_800F24F4</text>
</a>
</g>
</g>
<!-- dra.func_800F24F4&#45;&gt;dra.TimeAttackController -->
<g id="edge10" class="edge">
<title>dra.func_800F24F4&#45;&gt;dra.TimeAttackController</title>
<path fill="none" stroke="black" d="M2235.93,-185.18C2045.36,-153.8 1526.85,-68.42 1316.83,-33.84"/>
<polygon fill="black" stroke="black" points="1317.2,-30.36 1306.76,-32.18 1316.06,-37.26 1317.2,-30.36"/>
<text text-anchor="middle" x="2230.93" y="-173.98" font-family="Times,serif" font-size="14.00">3</text>
</g>
</g>
</svg>
