<?xml version="1.0" encoding="UTF-8" standalone="no"?>
<!DOCTYPE svg PUBLIC "-//W3C//DTD SVG 1.1//EN"
 "http://www.w3.org/Graphics/SVG/1.1/DTD/svg11.dtd">
<!-- Generated by graphviz version 2.43.0 (0)
 -->
<!-- Title: dra.func_800FEEA4 Pages: 1 -->
<svg width="860pt" height="404pt"
 viewBox="0.00 0.00 860.28 404.00" xmlns="http://www.w3.org/2000/svg" xmlns:xlink="http://www.w3.org/1999/xlink">
<g id="graph0" class="graph" transform="scale(1 1) rotate(0) translate(4 400)">
<title>dra.func_800FEEA4</title>
<polygon fill="white" stroke="transparent" points="-4,4 -4,-400 856.28,-400 856.28,4 -4,4"/>
<!-- dra.func_800FEEA4 -->
<g id="node1" class="node">
<title>dra.func_800FEEA4</title>
<ellipse fill="red" stroke="black" cx="415.59" cy="-198" rx="103.18" ry="18"/>
<text text-anchor="middle" x="415.59" y="-194.3" font-family="Times,serif" font-size="14.00">dra.func_800FEEA4</text>
</g>
<!-- dra.func_800FE3A8 -->
<g id="node2" class="node">
<title>dra.func_800FE3A8</title>
<g id="a_node2"><a xlink:href="dra.func_800FE3A8.svg" xlink:title="dra.func_800FE3A8">
<ellipse fill="green" stroke="black" cx="415.59" cy="-18" rx="102.88" ry="18"/>
<text text-anchor="middle" x="415.59" y="-14.3" font-family="Times,serif" font-size="14.00">dra.func_800FE3A8</text>
</a>
</g>
</g>
<!-- dra.func_800FEEA4&#45;&gt;dra.func_800FE3A8 -->
<g id="edge1" class="edge">
<title>dra.func_800FEEA4&#45;&gt;dra.func_800FE3A8</title>
<path fill="none" stroke="black" d="M415.59,-179.93C415.59,-148.97 415.59,-83.3 415.59,-46.13"/>
<polygon fill="black" stroke="black" points="419.09,-46.02 415.59,-36.02 412.09,-46.02 419.09,-46.02"/>
<text text-anchor="middle" x="410.59" y="-39.82" font-family="Times,serif" font-size="14.00">4</text>
</g>
<!-- dra.EntityAlucard -->
<g id="node3" class="node">
<title>dra.EntityAlucard</title>
<g id="a_node3"><a xlink:href="dra.EntityAlucard.svg" xlink:title="dra.EntityAlucard">
<ellipse fill="red" stroke="black" cx="93.59" cy="-378" rx="93.68" ry="18"/>
<text text-anchor="middle" x="93.59" y="-374.3" font-family="Times,serif" font-size="14.00">dra.EntityAlucard</text>
</a>
</g>
</g>
<!-- dra.EntityAlucard&#45;&gt;dra.func_800FEEA4 -->
<g id="edge2" class="edge">
<title>dra.EntityAlucard&#45;&gt;dra.func_800FEEA4</title>
<path fill="none" stroke="black" d="M122.73,-360.89C180.99,-328.69 311.81,-256.37 377.06,-220.3"/>
<polygon fill="black" stroke="black" points="378.76,-223.36 385.82,-215.46 375.37,-217.24 378.76,-223.36"/>
<text text-anchor="middle" x="117.73" y="-349.69" font-family="Times,serif" font-size="14.00">3</text>
</g>
<!-- dra.func_80116838 -->
<g id="node4" class="node">
<title>dra.func_80116838</title>
<g id="a_node4"><a xlink:href="dra.func_80116838.svg" xlink:title="dra.func_80116838">
<ellipse fill="green" stroke="black" cx="305.59" cy="-378" rx="100.98" ry="18"/>
<text text-anchor="middle" x="305.59" y="-374.3" font-family="Times,serif" font-size="14.00">dra.func_80116838</text>
</a>
</g>
</g>
<!-- dra.func_80116838&#45;&gt;dra.func_800FEEA4 -->
<g id="edge3" class="edge">
<title>dra.func_80116838&#45;&gt;dra.func_800FEEA4</title>
<path fill="none" stroke="black" d="M316.14,-359.93C335.52,-328.57 376.91,-261.6 399.7,-224.71"/>
<polygon fill="black" stroke="black" points="402.8,-226.36 405.08,-216.02 396.84,-222.68 402.8,-226.36"/>
<text text-anchor="middle" x="311.14" y="-348.73" font-family="Times,serif" font-size="14.00">1</text>
</g>
<!-- dra.func_8012C88C -->
<g id="node5" class="node">
<title>dra.func_8012C88C</title>
<g id="a_node5"><a xlink:href="dra.func_8012C88C.svg" xlink:title="dra.func_8012C88C">
<ellipse fill="green" stroke="black" cx="526.59" cy="-378" rx="102.88" ry="18"/>
<text text-anchor="middle" x="526.59" y="-374.3" font-family="Times,serif" font-size="14.00">dra.func_8012C88C</text>
</a>
</g>
</g>
<!-- dra.func_8012C88C&#45;&gt;dra.func_800FEEA4 -->
<g id="edge4" class="edge">
<title>dra.func_8012C88C&#45;&gt;dra.func_800FEEA4</title>
<path fill="none" stroke="black" d="M515.95,-359.93C496.39,-328.57 454.63,-261.6 431.62,-224.71"/>
<polygon fill="black" stroke="black" points="434.46,-222.65 426.2,-216.02 428.52,-226.35 434.46,-222.65"/>
<text text-anchor="middle" x="510.95" y="-348.73" font-family="Times,serif" font-size="14.00">1</text>
</g>
<!-- dra.func_80117D3C -->
<g id="node6" class="node">
<title>dra.func_80117D3C</title>
<g id="a_node6"><a xlink:href="dra.func_80117D3C.svg" xlink:title="dra.func_80117D3C">
<ellipse fill="green" stroke="black" cx="749.59" cy="-378" rx="102.88" ry="18"/>
<text text-anchor="middle" x="749.59" y="-374.3" font-family="Times,serif" font-size="14.00">dra.func_80117D3C</text>
</a>
</g>
</g>
<!-- dra.func_80117D3C&#45;&gt;dra.func_800FEEA4 -->
<g id="edge5" class="edge">
<title>dra.func_80117D3C&#45;&gt;dra.func_800FEEA4</title>
<path fill="none" stroke="black" d="M719.07,-360.73C658.47,-328.44 523.02,-256.25 455.47,-220.25"/>
<polygon fill="black" stroke="black" points="456.88,-217.04 446.41,-215.42 453.59,-223.22 456.88,-217.04"/>
<text text-anchor="middle" x="714.07" y="-349.53" font-family="Times,serif" font-size="14.00">1</text>
</g>
</g>
</svg>
