<?xml version="1.0" encoding="UTF-8" standalone="no"?>
<!DOCTYPE svg PUBLIC "-//W3C//DTD SVG 1.1//EN"
 "http://www.w3.org/Graphics/SVG/1.1/DTD/svg11.dtd">
<!-- Generated by graphviz version 2.43.0 (0)
 -->
<!-- Title: dra.func_80115DA0 Pages: 1 -->
<svg width="655pt" height="404pt"
 viewBox="0.00 0.00 655.08 404.00" xmlns="http://www.w3.org/2000/svg" xmlns:xlink="http://www.w3.org/1999/xlink">
<g id="graph0" class="graph" transform="scale(1 1) rotate(0) translate(4 400)">
<title>dra.func_80115DA0</title>
<polygon fill="white" stroke="transparent" points="-4,4 -4,-400 651.08,-400 651.08,4 -4,4"/>
<!-- dra.func_80115DA0 -->
<g id="node1" class="node">
<title>dra.func_80115DA0</title>
<ellipse fill="green" stroke="black" cx="322.39" cy="-198" rx="102.88" ry="18"/>
<text text-anchor="middle" x="322.39" y="-194.3" font-family="Times,serif" font-size="14.00">dra.func_80115DA0</text>
</g>
<!-- dra.func_8010E570 -->
<g id="node2" class="node">
<title>dra.func_8010E570</title>
<g id="a_node2"><a xlink:href="dra.func_8010E570.svg" xlink:title="dra.func_8010E570">
<ellipse fill="red" stroke="black" cx="101.39" cy="-18" rx="101.28" ry="18"/>
<text text-anchor="middle" x="101.39" y="-14.3" font-family="Times,serif" font-size="14.00">dra.func_8010E570</text>
</a>
</g>
</g>
<!-- dra.func_80115DA0&#45;&gt;dra.func_8010E570 -->
<g id="edge1" class="edge">
<title>dra.func_80115DA0&#45;&gt;dra.func_8010E570</title>
<path fill="none" stroke="black" d="M301.6,-180.25C261.95,-148.32 175.45,-78.65 130.23,-42.23"/>
<polygon fill="black" stroke="black" points="132.27,-39.38 122.29,-35.83 127.88,-44.83 132.27,-39.38"/>
<text text-anchor="middle" x="117.29" y="-39.63" font-family="Times,serif" font-size="14.00">2</text>
</g>
<!-- dra.func_80115C50 -->
<g id="node3" class="node">
<title>dra.func_80115C50</title>
<g id="a_node3"><a xlink:href="dra.func_80115C50.svg" xlink:title="dra.func_80115C50">
<ellipse fill="green" stroke="black" cx="322.39" cy="-18" rx="101.28" ry="18"/>
<text text-anchor="middle" x="322.39" y="-14.3" font-family="Times,serif" font-size="14.00">dra.func_80115C50</text>
</a>
</g>
</g>
<!-- dra.func_80115DA0&#45;&gt;dra.func_80115C50 -->
<g id="edge2" class="edge">
<title>dra.func_80115DA0&#45;&gt;dra.func_80115C50</title>
<path fill="none" stroke="black" d="M322.39,-179.93C322.39,-148.97 322.39,-83.3 322.39,-46.13"/>
<polygon fill="black" stroke="black" points="325.89,-46.02 322.39,-36.02 318.89,-46.02 325.89,-46.02"/>
<text text-anchor="middle" x="317.39" y="-39.82" font-family="Times,serif" font-size="14.00">2</text>
</g>
<!-- dra.func_8011AAFC -->
<g id="node4" class="node">
<title>dra.func_8011AAFC</title>
<g id="a_node4"><a xlink:href="dra.func_8011AAFC.svg" xlink:title="dra.func_8011AAFC">
<ellipse fill="green" stroke="black" cx="544.39" cy="-18" rx="102.88" ry="18"/>
<text text-anchor="middle" x="544.39" y="-14.3" font-family="Times,serif" font-size="14.00">dra.func_8011AAFC</text>
</a>
</g>
</g>
<!-- dra.func_80115DA0&#45;&gt;dra.func_8011AAFC -->
<g id="edge3" class="edge">
<title>dra.func_80115DA0&#45;&gt;dra.func_8011AAFC</title>
<path fill="none" stroke="black" d="M343.28,-180.25C383.11,-148.32 470,-78.65 515.42,-42.23"/>
<polygon fill="black" stroke="black" points="517.79,-44.82 523.4,-35.83 513.41,-39.36 517.79,-44.82"/>
<text text-anchor="middle" x="518.4" y="-39.63" font-family="Times,serif" font-size="14.00">3</text>
</g>
<!-- dra.EntityAlucard -->
<g id="node5" class="node">
<title>dra.EntityAlucard</title>
<g id="a_node5"><a xlink:href="dra.EntityAlucard.svg" xlink:title="dra.EntityAlucard">
<ellipse fill="red" stroke="black" cx="322.39" cy="-378" rx="93.68" ry="18"/>
<text text-anchor="middle" x="322.39" y="-374.3" font-family="Times,serif" font-size="14.00">dra.EntityAlucard</text>
</a>
</g>
</g>
<!-- dra.EntityAlucard&#45;&gt;dra.func_80115DA0 -->
<g id="edge4" class="edge">
<title>dra.EntityAlucard&#45;&gt;dra.func_80115DA0</title>
<path fill="none" stroke="black" d="M322.39,-359.93C322.39,-328.97 322.39,-263.3 322.39,-226.13"/>
<polygon fill="black" stroke="black" points="325.89,-226.02 322.39,-216.02 318.89,-226.02 325.89,-226.02"/>
<text text-anchor="middle" x="317.39" y="-348.73" font-family="Times,serif" font-size="14.00">1</text>
</g>
</g>
</svg>
