<?xml version="1.0" encoding="UTF-8" standalone="no"?>
<!DOCTYPE svg PUBLIC "-//W3C//DTD SVG 1.1//EN"
 "http://www.w3.org/Graphics/SVG/1.1/DTD/svg11.dtd">
<!-- Generated by graphviz version 2.43.0 (0)
 -->
<!-- Title: dra.func_80102CD8 Pages: 1 -->
<svg width="5478pt" height="224pt"
 viewBox="0.00 0.00 5478.28 224.00" xmlns="http://www.w3.org/2000/svg" xmlns:xlink="http://www.w3.org/1999/xlink">
<g id="graph0" class="graph" transform="scale(1 1) rotate(0) translate(4 220)">
<title>dra.func_80102CD8</title>
<polygon fill="white" stroke="transparent" points="-4,4 -4,-220 5474.28,-220 5474.28,4 -4,4"/>
<!-- dra.func_80102CD8 -->
<g id="node1" class="node">
<title>dra.func_80102CD8</title>
<ellipse fill="green" stroke="black" cx="2468.84" cy="-18" rx="102.88" ry="18"/>
<text text-anchor="middle" x="2468.84" y="-14.3" font-family="Times,serif" font-size="14.00">dra.func_80102CD8</text>
</g>
<!-- dra.AlucardHandleDamage -->
<g id="node2" class="node">
<title>dra.AlucardHandleDamage</title>
<g id="a_node2"><a xlink:href="dra.AlucardHandleDamage.svg" xlink:title="dra.AlucardHandleDamage">
<ellipse fill="red" stroke="black" cx="135.84" cy="-198" rx="135.68" ry="18"/>
<text text-anchor="middle" x="135.84" y="-194.3" font-family="Times,serif" font-size="14.00">dra.AlucardHandleDamage</text>
</a>
</g>
</g>
<!-- dra.AlucardHandleDamage&#45;&gt;dra.func_80102CD8 -->
<g id="edge1" class="edge">
<title>dra.AlucardHandleDamage&#45;&gt;dra.func_80102CD8</title>
<path fill="none" stroke="black" d="M231.71,-185.17C248.09,-183.32 264.94,-181.52 280.84,-180 1080.02,-103.78 2046.42,-43.93 2362.93,-25.16"/>
<polygon fill="black" stroke="black" points="2363.23,-28.65 2373.01,-24.57 2362.82,-21.66 2363.23,-28.65"/>
<text text-anchor="middle" x="226.71" y="-173.97" font-family="Times,serif" font-size="14.00">2</text>
</g>
<!-- dra.func_801139CC -->
<g id="node3" class="node">
<title>dra.func_801139CC</title>
<g id="a_node3"><a xlink:href="dra.func_801139CC.svg" xlink:title="dra.func_801139CC">
<ellipse fill="green" stroke="black" cx="392.84" cy="-198" rx="102.88" ry="18"/>
<text text-anchor="middle" x="392.84" y="-194.3" font-family="Times,serif" font-size="14.00">dra.func_801139CC</text>
</a>
</g>
</g>
<!-- dra.func_801139CC&#45;&gt;dra.func_80102CD8 -->
<g id="edge2" class="edge">
<title>dra.func_801139CC&#45;&gt;dra.func_80102CD8</title>
<path fill="none" stroke="black" d="M465.28,-185.15C478.11,-183.27 491.35,-181.47 503.84,-180 1211.27,-96.95 2066.99,-42.54 2362.48,-25.08"/>
<polygon fill="black" stroke="black" points="2362.98,-28.56 2372.75,-24.47 2362.57,-21.57 2362.98,-28.56"/>
<text text-anchor="middle" x="460.28" y="-173.95" font-family="Times,serif" font-size="14.00">1</text>
</g>
<!-- dra.func_80114DF4 -->
<g id="node4" class="node">
<title>dra.func_80114DF4</title>
<g id="a_node4"><a xlink:href="dra.func_80114DF4.svg" xlink:title="dra.func_80114DF4">
<ellipse fill="green" stroke="black" cx="615.84" cy="-198" rx="102.88" ry="18"/>
<text text-anchor="middle" x="615.84" y="-194.3" font-family="Times,serif" font-size="14.00">dra.func_80114DF4</text>
</a>
</g>
</g>
<!-- dra.func_80114DF4&#45;&gt;dra.func_80102CD8 -->
<g id="edge3" class="edge">
<title>dra.func_80114DF4&#45;&gt;dra.func_80102CD8</title>
<path fill="none" stroke="black" d="M688.6,-185.22C701.32,-183.34 714.45,-181.52 726.84,-180 1347.03,-103.92 2095.43,-46.14 2365.45,-26.39"/>
<polygon fill="black" stroke="black" points="2365.9,-29.86 2375.62,-25.64 2365.4,-22.88 2365.9,-29.86"/>
<text text-anchor="middle" x="683.6" y="-174.02" font-family="Times,serif" font-size="14.00">2</text>
</g>
<!-- dra.func_80116B0C -->
<g id="node5" class="node">
<title>dra.func_80116B0C</title>
<g id="a_node5"><a xlink:href="dra.func_80116B0C.svg" xlink:title="dra.func_80116B0C">
<ellipse fill="green" stroke="black" cx="838.84" cy="-198" rx="102.88" ry="18"/>
<text text-anchor="middle" x="838.84" y="-194.3" font-family="Times,serif" font-size="14.00">dra.func_80116B0C</text>
</a>
</g>
</g>
<!-- dra.func_80116B0C&#45;&gt;dra.func_80102CD8 -->
<g id="edge4" class="edge">
<title>dra.func_80116B0C&#45;&gt;dra.func_80102CD8</title>
<path fill="none" stroke="black" d="M911.91,-185.32C924.54,-183.44 937.56,-181.59 949.84,-180 1483.94,-110.83 2126.57,-50.09 2369.42,-27.93"/>
<polygon fill="black" stroke="black" points="2370,-31.39 2379.64,-27 2369.36,-24.42 2370,-31.39"/>
<text text-anchor="middle" x="906.91" y="-174.12" font-family="Times,serif" font-size="14.00">1</text>
</g>
<!-- dra.func_8012D28C -->
<g id="node6" class="node">
<title>dra.func_8012D28C</title>
<g id="a_node6"><a xlink:href="dra.func_8012D28C.svg" xlink:title="dra.func_8012D28C">
<ellipse fill="green" stroke="black" cx="1061.84" cy="-198" rx="102.88" ry="18"/>
<text text-anchor="middle" x="1061.84" y="-194.3" font-family="Times,serif" font-size="14.00">dra.func_8012D28C</text>
</a>
</g>
</g>
<!-- dra.func_8012D28C&#45;&gt;dra.func_80102CD8 -->
<g id="edge5" class="edge">
<title>dra.func_8012D28C&#45;&gt;dra.func_80102CD8</title>
<path fill="none" stroke="black" d="M1135.9,-185.47C1148.55,-183.58 1161.56,-181.69 1173.84,-180 1623.19,-117.98 2161.81,-54.49 2375.19,-29.77"/>
<polygon fill="black" stroke="black" points="2375.88,-33.21 2385.41,-28.58 2375.07,-26.26 2375.88,-33.21"/>
<text text-anchor="middle" x="1130.9" y="-174.27" font-family="Times,serif" font-size="14.00">1</text>
</g>
<!-- dra.func_8012E040 -->
<g id="node7" class="node">
<title>dra.func_8012E040</title>
<g id="a_node7"><a xlink:href="dra.func_8012E040.svg" xlink:title="dra.func_8012E040">
<ellipse fill="green" stroke="black" cx="1283.84" cy="-198" rx="101.28" ry="18"/>
<text text-anchor="middle" x="1283.84" y="-194.3" font-family="Times,serif" font-size="14.00">dra.func_8012E040</text>
</a>
</g>
</g>
<!-- dra.func_8012E040&#45;&gt;dra.func_80102CD8 -->
<g id="edge6" class="edge">
<title>dra.func_8012E040&#45;&gt;dra.func_80102CD8</title>
<path fill="none" stroke="black" d="M1357.5,-185.57C1369.64,-183.7 1382.09,-181.79 1393.84,-180 1761.88,-124 2201.04,-58.7 2383.18,-31.69"/>
<polygon fill="black" stroke="black" points="2383.85,-35.13 2393.23,-30.2 2382.82,-28.2 2383.85,-35.13"/>
<text text-anchor="middle" x="1352.5" y="-174.37" font-family="Times,serif" font-size="14.00">1</text>
</g>
<!-- np3.EntityHammer -->
<g id="node8" class="node">
<title>np3.EntityHammer</title>
<g id="a_node8"><a xlink:href="np3.EntityHammer.svg" xlink:title="np3.EntityHammer">
<ellipse fill="red" stroke="black" cx="1503.84" cy="-198" rx="100.98" ry="18"/>
<text text-anchor="middle" x="1503.84" y="-194.3" font-family="Times,serif" font-size="14.00">np3.EntityHammer</text>
</a>
</g>
</g>
<!-- np3.EntityHammer&#45;&gt;dra.func_80102CD8 -->
<g id="edge7" class="edge">
<title>np3.EntityHammer&#45;&gt;dra.func_80102CD8</title>
<path fill="none" stroke="black" d="M1571.31,-184.55C1744.97,-152.52 2206.61,-67.37 2391.08,-33.34"/>
<polygon fill="black" stroke="black" points="2391.78,-36.77 2400.98,-31.52 2390.51,-29.89 2391.78,-36.77"/>
<text text-anchor="middle" x="1566.31" y="-173.35" font-family="Times,serif" font-size="14.00">1</text>
</g>
<!-- np3.EntitySlogra -->
<g id="node9" class="node">
<title>np3.EntitySlogra</title>
<g id="a_node9"><a xlink:href="np3.EntitySlogra.svg" xlink:title="np3.EntitySlogra">
<ellipse fill="green" stroke="black" cx="1712.84" cy="-198" rx="90.18" ry="18"/>
<text text-anchor="middle" x="1712.84" y="-194.3" font-family="Times,serif" font-size="14.00">np3.EntitySlogra</text>
</a>
</g>
</g>
<!-- np3.EntitySlogra&#45;&gt;dra.func_80102CD8 -->
<g id="edge8" class="edge">
<title>np3.EntitySlogra&#45;&gt;dra.func_80102CD8</title>
<path fill="none" stroke="black" d="M1768.74,-183.84C1904.64,-151.84 2252.08,-70.04 2400.23,-35.15"/>
<polygon fill="black" stroke="black" points="2401.19,-38.52 2410.12,-32.82 2399.59,-31.71 2401.19,-38.52"/>
<text text-anchor="middle" x="1763.74" y="-172.64" font-family="Times,serif" font-size="14.00">1</text>
</g>
<!-- nz0.EntityCannon -->
<g id="node10" class="node">
<title>nz0.EntityCannon</title>
<g id="a_node10"><a xlink:href="nz0.EntityCannon.svg" xlink:title="nz0.EntityCannon">
<ellipse fill="green" stroke="black" cx="1915.84" cy="-198" rx="94.48" ry="18"/>
<text text-anchor="middle" x="1915.84" y="-194.3" font-family="Times,serif" font-size="14.00">nz0.EntityCannon</text>
</a>
</g>
</g>
<!-- nz0.EntityCannon&#45;&gt;dra.func_80102CD8 -->
<g id="edge9" class="edge">
<title>nz0.EntityCannon&#45;&gt;dra.func_80102CD8</title>
<path fill="none" stroke="black" d="M1962.04,-182.13C2062.95,-149.65 2302.81,-72.44 2412.43,-37.16"/>
<polygon fill="black" stroke="black" points="2413.55,-40.47 2421.99,-34.08 2411.4,-33.81 2413.55,-40.47"/>
<text text-anchor="middle" x="1957.04" y="-170.93" font-family="Times,serif" font-size="14.00">1</text>
</g>
<!-- nz0.EntityCannonShot -->
<g id="node11" class="node">
<title>nz0.EntityCannonShot</title>
<g id="a_node11"><a xlink:href="nz0.EntityCannonShot.svg" xlink:title="nz0.EntityCannonShot">
<ellipse fill="green" stroke="black" cx="2143.84" cy="-198" rx="115.88" ry="18"/>
<text text-anchor="middle" x="2143.84" y="-194.3" font-family="Times,serif" font-size="14.00">nz0.EntityCannonShot</text>
</a>
</g>
</g>
<!-- nz0.EntityCannonShot&#45;&gt;dra.func_80102CD8 -->
<g id="edge10" class="edge">
<title>nz0.EntityCannonShot&#45;&gt;dra.func_80102CD8</title>
<path fill="none" stroke="black" d="M2173.83,-180.57C2232.96,-148.19 2364.53,-76.13 2430.12,-40.21"/>
<polygon fill="black" stroke="black" points="2431.83,-43.26 2438.92,-35.39 2428.47,-37.12 2431.83,-43.26"/>
<text text-anchor="middle" x="2168.83" y="-169.37" font-family="Times,serif" font-size="14.00">1</text>
</g>
<!-- nz0.EntitySlogra -->
<g id="node12" class="node">
<title>nz0.EntitySlogra</title>
<g id="a_node12"><a xlink:href="nz0.EntitySlogra.svg" xlink:title="nz0.EntitySlogra">
<ellipse fill="green" stroke="black" cx="2366.84" cy="-198" rx="89.08" ry="18"/>
<text text-anchor="middle" x="2366.84" y="-194.3" font-family="Times,serif" font-size="14.00">nz0.EntitySlogra</text>
</a>
</g>
</g>
<!-- nz0.EntitySlogra&#45;&gt;dra.func_80102CD8 -->
<g id="edge11" class="edge">
<title>nz0.EntitySlogra&#45;&gt;dra.func_80102CD8</title>
<path fill="none" stroke="black" d="M2376.62,-179.93C2394.59,-148.57 2432.96,-81.6 2454.11,-44.71"/>
<polygon fill="black" stroke="black" points="2457.15,-46.43 2459.09,-36.02 2451.08,-42.95 2457.15,-46.43"/>
<text text-anchor="middle" x="2371.62" y="-168.73" font-family="Times,serif" font-size="14.00">1</text>
</g>
<!-- ric.func_80158B04 -->
<g id="node13" class="node">
<title>ric.func_80158B04</title>
<g id="a_node13"><a xlink:href="ric.func_80158B04.svg" xlink:title="ric.func_80158B04">
<ellipse fill="green" stroke="black" cx="2571.84" cy="-198" rx="98.28" ry="18"/>
<text text-anchor="middle" x="2571.84" y="-194.3" font-family="Times,serif" font-size="14.00">ric.func_80158B04</text>
</a>
</g>
</g>
<!-- ric.func_80158B04&#45;&gt;dra.func_80102CD8 -->
<g id="edge12" class="edge">
<title>ric.func_80158B04&#45;&gt;dra.func_80102CD8</title>
<path fill="none" stroke="black" d="M2561.96,-179.93C2543.81,-148.57 2505.06,-81.6 2483.71,-44.71"/>
<polygon fill="black" stroke="black" points="2486.72,-42.92 2478.68,-36.02 2480.66,-46.42 2486.72,-42.92"/>
<text text-anchor="middle" x="2556.96" y="-168.73" font-family="Times,serif" font-size="14.00">1</text>
</g>
<!-- ric.func_80159CE4 -->
<g id="node14" class="node">
<title>ric.func_80159CE4</title>
<g id="a_node14"><a xlink:href="ric.func_80159CE4.svg" xlink:title="ric.func_80159CE4">
<ellipse fill="red" stroke="black" cx="2786.84" cy="-198" rx="98.58" ry="18"/>
<text text-anchor="middle" x="2786.84" y="-194.3" font-family="Times,serif" font-size="14.00">ric.func_80159CE4</text>
</a>
</g>
</g>
<!-- ric.func_80159CE4&#45;&gt;dra.func_80102CD8 -->
<g id="edge13" class="edge">
<title>ric.func_80159CE4&#45;&gt;dra.func_80102CD8</title>
<path fill="none" stroke="black" d="M2757.77,-180.73C2700.2,-148.5 2571.64,-76.55 2507.21,-40.48"/>
<polygon fill="black" stroke="black" points="2508.61,-37.25 2498.18,-35.42 2505.2,-43.36 2508.61,-37.25"/>
<text text-anchor="middle" x="2752.77" y="-169.53" font-family="Times,serif" font-size="14.00">2</text>
</g>
<!-- st0.EntityDracula -->
<g id="node15" class="node">
<title>st0.EntityDracula</title>
<g id="a_node15"><a xlink:href="st0.EntityDracula.svg" xlink:title="st0.EntityDracula">
<ellipse fill="red" stroke="black" cx="2996.84" cy="-198" rx="92.88" ry="18"/>
<text text-anchor="middle" x="2996.84" y="-194.3" font-family="Times,serif" font-size="14.00">st0.EntityDracula</text>
</a>
</g>
</g>
<!-- st0.EntityDracula&#45;&gt;dra.func_80102CD8 -->
<g id="edge14" class="edge">
<title>st0.EntityDracula&#45;&gt;dra.func_80102CD8</title>
<path fill="none" stroke="black" d="M2952.73,-182.13C2856.69,-149.75 2628.85,-72.94 2523.72,-37.5"/>
<polygon fill="black" stroke="black" points="2524.53,-34.08 2513.94,-34.21 2522.3,-40.72 2524.53,-34.08"/>
<text text-anchor="middle" x="2947.73" y="-170.93" font-family="Times,serif" font-size="14.00">1</text>
</g>
<!-- st0.EntityDraculaFinalForm -->
<g id="node16" class="node">
<title>st0.EntityDraculaFinalForm</title>
<g id="a_node16"><a xlink:href="st0.EntityDraculaFinalForm.svg" xlink:title="st0.EntityDraculaFinalForm">
<ellipse fill="red" stroke="black" cx="3248.84" cy="-198" rx="141.07" ry="18"/>
<text text-anchor="middle" x="3248.84" y="-194.3" font-family="Times,serif" font-size="14.00">st0.EntityDraculaFinalForm</text>
</a>
</g>
</g>
<!-- st0.EntityDraculaFinalForm&#45;&gt;dra.func_80102CD8 -->
<g id="edge15" class="edge">
<title>st0.EntityDraculaFinalForm&#45;&gt;dra.func_80102CD8</title>
<path fill="none" stroke="black" d="M3183.34,-182.05C3037.71,-148.82 2688.14,-69.05 2538.61,-34.92"/>
<polygon fill="black" stroke="black" points="2539.15,-31.46 2528.62,-32.64 2537.59,-38.28 2539.15,-31.46"/>
<text text-anchor="middle" x="3178.34" y="-170.85" font-family="Times,serif" font-size="14.00">3</text>
</g>
<!-- w_015.func_ptr_8017000C -->
<g id="node17" class="node">
<title>w_015.func_ptr_8017000C</title>
<g id="a_node17"><a xlink:href="w_015.func_ptr_8017000C.svg" xlink:title="w_015.func_ptr_8017000C">
<ellipse fill="red" stroke="black" cx="3541.84" cy="-198" rx="133.78" ry="18"/>
<text text-anchor="middle" x="3541.84" y="-194.3" font-family="Times,serif" font-size="14.00">w_015.func_ptr_8017000C</text>
</a>
</g>
</g>
<!-- w_015.func_ptr_8017000C&#45;&gt;dra.func_80102CD8 -->
<g id="edge16" class="edge">
<title>w_015.func_ptr_8017000C&#45;&gt;dra.func_80102CD8</title>
<path fill="none" stroke="black" d="M3461.19,-183.62C3262.5,-150.66 2751.1,-65.82 2550.92,-32.62"/>
<polygon fill="black" stroke="black" points="2551.2,-29.12 2540.76,-30.93 2550.06,-36.02 2551.2,-29.12"/>
<text text-anchor="middle" x="3456.19" y="-172.42" font-family="Times,serif" font-size="14.00">1</text>
</g>
<!-- w_016.func_ptr_80170014 -->
<g id="node18" class="node">
<title>w_016.func_ptr_80170014</title>
<g id="a_node18"><a xlink:href="w_016.func_ptr_80170014.svg" xlink:title="w_016.func_ptr_80170014">
<ellipse fill="red" stroke="black" cx="3826.84" cy="-198" rx="133.48" ry="18"/>
<text text-anchor="middle" x="3826.84" y="-194.3" font-family="Times,serif" font-size="14.00">w_016.func_ptr_80170014</text>
</a>
</g>
</g>
<!-- w_016.func_ptr_80170014&#45;&gt;dra.func_80102CD8 -->
<g id="edge17" class="edge">
<title>w_016.func_ptr_80170014&#45;&gt;dra.func_80102CD8</title>
<path fill="none" stroke="black" d="M3734.83,-184.94C3486.3,-152.36 2803.67,-62.89 2558.22,-30.72"/>
<polygon fill="black" stroke="black" points="2558.64,-27.24 2548.27,-29.41 2557.73,-34.18 2558.64,-27.24"/>
<text text-anchor="middle" x="3729.83" y="-173.74" font-family="Times,serif" font-size="14.00">4</text>
</g>
<!-- w_017.EntityWeaponAttack -->
<g id="node19" class="node">
<title>w_017.EntityWeaponAttack</title>
<g id="a_node19"><a xlink:href="w_017.EntityWeaponAttack.svg" xlink:title="w_017.EntityWeaponAttack">
<ellipse fill="red" stroke="black" cx="4116.84" cy="-198" rx="138.38" ry="18"/>
<text text-anchor="middle" x="4116.84" y="-194.3" font-family="Times,serif" font-size="14.00">w_017.EntityWeaponAttack</text>
</a>
</g>
</g>
<!-- w_017.EntityWeaponAttack&#45;&gt;dra.func_80102CD8 -->
<g id="edge18" class="edge">
<title>w_017.EntityWeaponAttack&#45;&gt;dra.func_80102CD8</title>
<path fill="none" stroke="black" d="M4017.34,-185.47C4001.13,-183.62 3984.52,-181.74 3968.84,-180 3438.59,-121.09 2802.47,-53.99 2564.68,-29.04"/>
<polygon fill="black" stroke="black" points="2565,-25.55 2554.69,-27.99 2564.27,-32.51 2565,-25.55"/>
<text text-anchor="middle" x="4012.34" y="-174.27" font-family="Times,serif" font-size="14.00">1</text>
</g>
<!-- w_018.EntityWeaponAttack -->
<g id="node20" class="node">
<title>w_018.EntityWeaponAttack</title>
<g id="a_node20"><a xlink:href="w_018.EntityWeaponAttack.svg" xlink:title="w_018.EntityWeaponAttack">
<ellipse fill="red" stroke="black" cx="4411.84" cy="-198" rx="138.38" ry="18"/>
<text text-anchor="middle" x="4411.84" y="-194.3" font-family="Times,serif" font-size="14.00">w_018.EntityWeaponAttack</text>
</a>
</g>
</g>
<!-- w_018.EntityWeaponAttack&#45;&gt;dra.func_80102CD8 -->
<g id="edge19" class="edge">
<title>w_018.EntityWeaponAttack&#45;&gt;dra.func_80102CD8</title>
<path fill="none" stroke="black" d="M4313.16,-185.32C4296.7,-183.47 4279.79,-181.63 4263.84,-180 3619.64,-114.12 2843.85,-49.53 2570.28,-27.21"/>
<polygon fill="black" stroke="black" points="2570.23,-23.69 2559.98,-26.37 2569.66,-30.67 2570.23,-23.69"/>
<text text-anchor="middle" x="4308.16" y="-174.12" font-family="Times,serif" font-size="14.00">1</text>
</g>
<!-- w_024.EntityWeaponShieldSpell -->
<g id="node21" class="node">
<title>w_024.EntityWeaponShieldSpell</title>
<g id="a_node21"><a xlink:href="w_024.EntityWeaponShieldSpell.svg" xlink:title="w_024.EntityWeaponShieldSpell">
<ellipse fill="red" stroke="black" cx="4729.84" cy="-198" rx="161.37" ry="18"/>
<text text-anchor="middle" x="4729.84" y="-194.3" font-family="Times,serif" font-size="14.00">w_024.EntityWeaponShieldSpell</text>
</a>
</g>
</g>
<!-- w_024.EntityWeaponShieldSpell&#45;&gt;dra.func_80102CD8 -->
<g id="edge20" class="edge">
<title>w_024.EntityWeaponShieldSpell&#45;&gt;dra.func_80102CD8</title>
<path fill="none" stroke="black" d="M4615.35,-185.26C4596.48,-183.43 4577.11,-181.61 4558.84,-180 3796.92,-112.79 2877.33,-47.42 2572.53,-26.17"/>
<polygon fill="black" stroke="black" points="2572.6,-22.67 2562.38,-25.46 2572.11,-29.65 2572.6,-22.67"/>
<text text-anchor="middle" x="4610.35" y="-174.06" font-family="Times,serif" font-size="14.00">1</text>
</g>
<!-- w_030.func_ptr_80170008 -->
<g id="node22" class="node">
<title>w_030.func_ptr_80170008</title>
<g id="a_node22"><a xlink:href="w_030.func_ptr_80170008.svg" xlink:title="w_030.func_ptr_80170008">
<ellipse fill="red" stroke="black" cx="5041.84" cy="-198" rx="133.48" ry="18"/>
<text text-anchor="middle" x="5041.84" y="-194.3" font-family="Times,serif" font-size="14.00">w_030.func_ptr_80170008</text>
</a>
</g>
</g>
<!-- w_030.func_ptr_80170008&#45;&gt;dra.func_80102CD8 -->
<g id="edge21" class="edge">
<title>w_030.func_ptr_80170008&#45;&gt;dra.func_80102CD8</title>
<path fill="none" stroke="black" d="M4948.34,-185.09C4932.18,-183.24 4915.54,-181.46 4899.84,-180 4003.67,-96.74 2917.74,-40.66 2576.66,-24.1"/>
<polygon fill="black" stroke="black" points="2576.7,-20.59 2566.54,-23.61 2576.36,-27.59 2576.7,-20.59"/>
<text text-anchor="middle" x="4943.34" y="-173.89" font-family="Times,serif" font-size="14.00">1</text>
</g>
<!-- w_047.EntityWeaponAttack -->
<g id="node23" class="node">
<title>w_047.EntityWeaponAttack</title>
<g id="a_node23"><a xlink:href="w_047.EntityWeaponAttack.svg" xlink:title="w_047.EntityWeaponAttack">
<ellipse fill="red" stroke="black" cx="5331.84" cy="-198" rx="138.38" ry="18"/>
<text text-anchor="middle" x="5331.84" y="-194.3" font-family="Times,serif" font-size="14.00">w_047.EntityWeaponAttack</text>
</a>
</g>
</g>
<!-- w_047.EntityWeaponAttack&#45;&gt;dra.func_80102CD8 -->
<g id="edge22" class="edge">
<title>w_047.EntityWeaponAttack&#45;&gt;dra.func_80102CD8</title>
<path fill="none" stroke="black" d="M5234.79,-185.08C5217.82,-183.21 5200.33,-181.43 5183.84,-180 4172.82,-92.03 2945.75,-38.29 2578.01,-23.31"/>
<polygon fill="black" stroke="black" points="2578.04,-19.81 2567.91,-22.9 2577.76,-26.8 2578.04,-19.81"/>
<text text-anchor="middle" x="5229.79" y="-173.88" font-family="Times,serif" font-size="14.00">1</text>
</g>
</g>
</svg>
