<?xml version="1.0" encoding="UTF-8" standalone="no"?>
<!DOCTYPE svg PUBLIC "-//W3C//DTD SVG 1.1//EN"
 "http://www.w3.org/Graphics/SVG/1.1/DTD/svg11.dtd">
<!-- Generated by graphviz version 2.43.0 (0)
 -->
<!-- Title: dra.func_80100B50 Pages: 1 -->
<svg width="769pt" height="404pt"
 viewBox="0.00 0.00 769.38 404.00" xmlns="http://www.w3.org/2000/svg" xmlns:xlink="http://www.w3.org/1999/xlink">
<g id="graph0" class="graph" transform="scale(1 1) rotate(0) translate(4 400)">
<title>dra.func_80100B50</title>
<polygon fill="white" stroke="transparent" points="-4,4 -4,-400 765.38,-400 765.38,4 -4,4"/>
<!-- dra.func_80100B50 -->
<g id="node1" class="node">
<title>dra.func_80100B50</title>
<ellipse fill="red" stroke="black" cx="303.39" cy="-198" rx="101.28" ry="18"/>
<text text-anchor="middle" x="303.39" y="-194.3" font-family="Times,serif" font-size="14.00">dra.func_80100B50</text>
</g>
<!-- dra.SetPrimRect -->
<g id="node2" class="node">
<title>dra.SetPrimRect</title>
<g id="a_node2"><a xlink:href="dra.SetPrimRect.svg" xlink:title="dra.SetPrimRect">
<ellipse fill="green" stroke="black" cx="88.39" cy="-18" rx="88.28" ry="18"/>
<text text-anchor="middle" x="88.39" y="-14.3" font-family="Times,serif" font-size="14.00">dra.SetPrimRect</text>
</a>
</g>
</g>
<!-- dra.func_80100B50&#45;&gt;dra.SetPrimRect -->
<g id="edge1" class="edge">
<title>dra.func_80100B50&#45;&gt;dra.SetPrimRect</title>
<path fill="none" stroke="black" d="M283.17,-180.25C244.49,-148.24 160.01,-78.29 116.11,-41.95"/>
<polygon fill="black" stroke="black" points="118.34,-39.25 108.41,-35.57 113.88,-44.64 118.34,-39.25"/>
<text text-anchor="middle" x="103.41" y="-39.37" font-family="Times,serif" font-size="14.00">3</text>
</g>
<!-- rand -->
<g id="node3" class="node">
<title>rand</title>
<g id="a_node3"><a xlink:href="rand.svg" xlink:title="rand">
<ellipse fill="lightblue" stroke="black" cx="227.39" cy="-18" rx="32.49" ry="18"/>
<text text-anchor="middle" x="227.39" y="-14.3" font-family="Times,serif" font-size="14.00">rand</text>
</a>
</g>
</g>
<!-- dra.func_80100B50&#45;&gt;rand -->
<g id="edge2" class="edge">
<title>dra.func_80100B50&#45;&gt;rand</title>
<path fill="none" stroke="black" d="M296.1,-179.93C282.79,-148.75 254.46,-82.4 238.65,-45.37"/>
<polygon fill="black" stroke="black" points="241.69,-43.58 234.55,-35.76 235.25,-46.33 241.69,-43.58"/>
<text text-anchor="middle" x="229.55" y="-39.56" font-family="Times,serif" font-size="14.00">2</text>
</g>
<!-- dra.func_801071CC -->
<g id="node4" class="node">
<title>dra.func_801071CC</title>
<g id="a_node4"><a xlink:href="dra.func_801071CC.svg" xlink:title="dra.func_801071CC">
<ellipse fill="green" stroke="black" cx="380.39" cy="-18" rx="102.88" ry="18"/>
<text text-anchor="middle" x="380.39" y="-14.3" font-family="Times,serif" font-size="14.00">dra.func_801071CC</text>
</a>
</g>
</g>
<!-- dra.func_80100B50&#45;&gt;dra.func_801071CC -->
<g id="edge3" class="edge">
<title>dra.func_80100B50&#45;&gt;dra.func_801071CC</title>
<path fill="none" stroke="black" d="M310.78,-179.93C324.23,-148.83 352.82,-82.73 368.86,-45.65"/>
<polygon fill="black" stroke="black" points="372.27,-46.58 373.03,-36.02 365.85,-43.8 372.27,-46.58"/>
<text text-anchor="middle" x="368.03" y="-39.82" font-family="Times,serif" font-size="14.00">4</text>
</g>
<!-- dra.SetTexturedPrimRect -->
<g id="node5" class="node">
<title>dra.SetTexturedPrimRect</title>
<g id="a_node5"><a xlink:href="dra.SetTexturedPrimRect.svg" xlink:title="dra.SetTexturedPrimRect">
<ellipse fill="green" stroke="black" cx="631.39" cy="-18" rx="129.98" ry="18"/>
<text text-anchor="middle" x="631.39" y="-14.3" font-family="Times,serif" font-size="14.00">dra.SetTexturedPrimRect</text>
</a>
</g>
</g>
<!-- dra.func_80100B50&#45;&gt;dra.SetTexturedPrimRect -->
<g id="edge4" class="edge">
<title>dra.func_80100B50&#45;&gt;dra.SetTexturedPrimRect</title>
<path fill="none" stroke="black" d="M333.37,-180.73C392.73,-148.52 525.22,-76.62 591.72,-40.53"/>
<polygon fill="black" stroke="black" points="593.53,-43.53 600.65,-35.68 590.19,-37.38 593.53,-43.53"/>
<text text-anchor="middle" x="595.65" y="-39.48" font-family="Times,serif" font-size="14.00">9</text>
</g>
<!-- dra.func_80101A80 -->
<g id="node6" class="node">
<title>dra.func_80101A80</title>
<g id="a_node6"><a xlink:href="dra.func_80101A80.svg" xlink:title="dra.func_80101A80">
<ellipse fill="red" stroke="black" cx="303.39" cy="-378" rx="100.98" ry="18"/>
<text text-anchor="middle" x="303.39" y="-374.3" font-family="Times,serif" font-size="14.00">dra.func_80101A80</text>
</a>
</g>
</g>
<!-- dra.func_80101A80&#45;&gt;dra.func_80100B50 -->
<g id="edge5" class="edge">
<title>dra.func_80101A80&#45;&gt;dra.func_80100B50</title>
<path fill="none" stroke="black" d="M303.39,-359.93C303.39,-328.97 303.39,-263.3 303.39,-226.13"/>
<polygon fill="black" stroke="black" points="306.89,-226.02 303.39,-216.02 299.89,-226.02 306.89,-226.02"/>
<text text-anchor="middle" x="298.39" y="-348.73" font-family="Times,serif" font-size="14.00">1</text>
</g>
</g>
</svg>
