<?xml version="1.0" encoding="UTF-8" standalone="no"?>
<!DOCTYPE svg PUBLIC "-//W3C//DTD SVG 1.1//EN"
 "http://www.w3.org/Graphics/SVG/1.1/DTD/svg11.dtd">
<!-- Generated by graphviz version 2.43.0 (0)
 -->
<!-- Title: dra.LearnSpell Pages: 1 -->
<svg width="1919pt" height="224pt"
 viewBox="0.00 0.00 1919.48 224.00" xmlns="http://www.w3.org/2000/svg" xmlns:xlink="http://www.w3.org/1999/xlink">
<g id="graph0" class="graph" transform="scale(1 1) rotate(0) translate(4 220)">
<title>dra.LearnSpell</title>
<polygon fill="white" stroke="transparent" points="-4,4 -4,-220 1915.48,-220 1915.48,4 -4,4"/>
<!-- dra.LearnSpell -->
<g id="node1" class="node">
<title>dra.LearnSpell</title>
<ellipse fill="green" stroke="black" cx="1033.78" cy="-18" rx="79.09" ry="18"/>
<text text-anchor="middle" x="1033.78" y="-14.3" font-family="Times,serif" font-size="14.00">dra.LearnSpell</text>
</g>
<!-- dra.CheckDarkMetamorphosisInput -->
<g id="node2" class="node">
<title>dra.CheckDarkMetamorphosisInput</title>
<g id="a_node2"><a xlink:href="dra.CheckDarkMetamorphosisInput.svg" xlink:title="dra.CheckDarkMetamorphosisInput">
<ellipse fill="green" stroke="black" cx="176.78" cy="-198" rx="176.57" ry="18"/>
<text text-anchor="middle" x="176.78" y="-194.3" font-family="Times,serif" font-size="14.00">dra.CheckDarkMetamorphosisInput</text>
</a>
</g>
</g>
<!-- dra.CheckDarkMetamorphosisInput&#45;&gt;dra.LearnSpell -->
<g id="edge1" class="edge">
<title>dra.CheckDarkMetamorphosisInput&#45;&gt;dra.LearnSpell</title>
<path fill="none" stroke="black" d="M250.97,-181.59C415.79,-147.36 810.29,-65.42 967.49,-32.77"/>
<polygon fill="black" stroke="black" points="968.42,-36.15 977.5,-30.69 967,-29.3 968.42,-36.15"/>
<text text-anchor="middle" x="245.97" y="-170.39" font-family="Times,serif" font-size="14.00">1</text>
</g>
<!-- dra.ControlBatForm -->
<g id="node3" class="node">
<title>dra.ControlBatForm</title>
<g id="a_node3"><a xlink:href="dra.ControlBatForm.svg" xlink:title="dra.ControlBatForm">
<ellipse fill="green" stroke="black" cx="475.78" cy="-198" rx="104.78" ry="18"/>
<text text-anchor="middle" x="475.78" y="-194.3" font-family="Times,serif" font-size="14.00">dra.ControlBatForm</text>
</a>
</g>
</g>
<!-- dra.ControlBatForm&#45;&gt;dra.LearnSpell -->
<g id="edge2" class="edge">
<title>dra.ControlBatForm&#45;&gt;dra.LearnSpell</title>
<path fill="none" stroke="black" d="M523.36,-181.82C626.74,-148.85 871.31,-70.83 980.05,-36.14"/>
<polygon fill="black" stroke="black" points="981.36,-39.4 989.83,-33.02 979.24,-32.73 981.36,-39.4"/>
<text text-anchor="middle" x="518.36" y="-170.62" font-family="Times,serif" font-size="14.00">1</text>
</g>
<!-- dra.func_80110BC8 -->
<g id="node4" class="node">
<title>dra.func_80110BC8</title>
<g id="a_node4"><a xlink:href="dra.func_80110BC8.svg" xlink:title="dra.func_80110BC8">
<ellipse fill="red" stroke="black" cx="700.78" cy="-198" rx="102.88" ry="18"/>
<text text-anchor="middle" x="700.78" y="-194.3" font-family="Times,serif" font-size="14.00">dra.func_80110BC8</text>
</a>
</g>
</g>
<!-- dra.func_80110BC8&#45;&gt;dra.LearnSpell -->
<g id="edge3" class="edge">
<title>dra.func_80110BC8&#45;&gt;dra.LearnSpell</title>
<path fill="none" stroke="black" d="M731.22,-180.73C791.94,-148.27 928.05,-75.52 995.04,-39.71"/>
<polygon fill="black" stroke="black" points="996.85,-42.71 1004.02,-34.91 993.55,-36.54 996.85,-42.71"/>
<text text-anchor="middle" x="726.22" y="-169.53" font-family="Times,serif" font-size="14.00">1</text>
</g>
<!-- dra.func_80110DF8 -->
<g id="node5" class="node">
<title>dra.func_80110DF8</title>
<g id="a_node5"><a xlink:href="dra.func_80110DF8.svg" xlink:title="dra.func_80110DF8">
<ellipse fill="red" stroke="black" cx="923.78" cy="-198" rx="102.88" ry="18"/>
<text text-anchor="middle" x="923.78" y="-194.3" font-family="Times,serif" font-size="14.00">dra.func_80110DF8</text>
</a>
</g>
</g>
<!-- dra.func_80110DF8&#45;&gt;dra.LearnSpell -->
<g id="edge4" class="edge">
<title>dra.func_80110DF8&#45;&gt;dra.LearnSpell</title>
<path fill="none" stroke="black" d="M934.33,-179.93C953.71,-148.57 995.1,-81.6 1017.9,-44.71"/>
<polygon fill="black" stroke="black" points="1020.99,-46.36 1023.27,-36.02 1015.03,-42.68 1020.99,-46.36"/>
<text text-anchor="middle" x="929.33" y="-168.73" font-family="Times,serif" font-size="14.00">1</text>
</g>
<!-- dra.func_80111018 -->
<g id="node6" class="node">
<title>dra.func_80111018</title>
<g id="a_node6"><a xlink:href="dra.func_80111018.svg" xlink:title="dra.func_80111018">
<ellipse fill="red" stroke="black" cx="1144.78" cy="-198" rx="100.98" ry="18"/>
<text text-anchor="middle" x="1144.78" y="-194.3" font-family="Times,serif" font-size="14.00">dra.func_80111018</text>
</a>
</g>
</g>
<!-- dra.func_80111018&#45;&gt;dra.LearnSpell -->
<g id="edge5" class="edge">
<title>dra.func_80111018&#45;&gt;dra.LearnSpell</title>
<path fill="none" stroke="black" d="M1134.14,-179.93C1114.58,-148.57 1072.82,-81.6 1049.82,-44.71"/>
<polygon fill="black" stroke="black" points="1052.66,-42.65 1044.4,-36.02 1046.72,-46.35 1052.66,-42.65"/>
<text text-anchor="middle" x="1129.14" y="-168.73" font-family="Times,serif" font-size="14.00">1</text>
</g>
<!-- dra.func_801112AC -->
<g id="node7" class="node">
<title>dra.func_801112AC</title>
<g id="a_node7"><a xlink:href="dra.func_801112AC.svg" xlink:title="dra.func_801112AC">
<ellipse fill="red" stroke="black" cx="1365.78" cy="-198" rx="102.08" ry="18"/>
<text text-anchor="middle" x="1365.78" y="-194.3" font-family="Times,serif" font-size="14.00">dra.func_801112AC</text>
</a>
</g>
</g>
<!-- dra.func_801112AC&#45;&gt;dra.LearnSpell -->
<g id="edge6" class="edge">
<title>dra.func_801112AC&#45;&gt;dra.LearnSpell</title>
<path fill="none" stroke="black" d="M1335.44,-180.73C1274.9,-148.27 1139.2,-75.52 1072.41,-39.71"/>
<polygon fill="black" stroke="black" points="1073.93,-36.55 1063.46,-34.91 1070.62,-42.72 1073.93,-36.55"/>
<text text-anchor="middle" x="1330.44" y="-169.53" font-family="Times,serif" font-size="14.00">1</text>
</g>
<!-- dra.func_8011151C -->
<g id="node8" class="node">
<title>dra.func_8011151C</title>
<g id="a_node8"><a xlink:href="dra.func_8011151C.svg" xlink:title="dra.func_8011151C">
<ellipse fill="red" stroke="black" cx="1586.78" cy="-198" rx="101.28" ry="18"/>
<text text-anchor="middle" x="1586.78" y="-194.3" font-family="Times,serif" font-size="14.00">dra.func_8011151C</text>
</a>
</g>
</g>
<!-- dra.func_8011151C&#45;&gt;dra.LearnSpell -->
<g id="edge7" class="edge">
<title>dra.func_8011151C&#45;&gt;dra.LearnSpell</title>
<path fill="none" stroke="black" d="M1540.11,-181.98C1437.97,-149.1 1195.15,-70.94 1087.16,-36.18"/>
<polygon fill="black" stroke="black" points="1088.04,-32.79 1077.44,-33.05 1085.89,-39.45 1088.04,-32.79"/>
<text text-anchor="middle" x="1535.11" y="-170.78" font-family="Times,serif" font-size="14.00">1</text>
</g>
<!-- dra.func_8012CC30 -->
<g id="node9" class="node">
<title>dra.func_8012CC30</title>
<g id="a_node9"><a xlink:href="dra.func_8012CC30.svg" xlink:title="dra.func_8012CC30">
<ellipse fill="green" stroke="black" cx="1808.78" cy="-198" rx="102.88" ry="18"/>
<text text-anchor="middle" x="1808.78" y="-194.3" font-family="Times,serif" font-size="14.00">dra.func_8012CC30</text>
</a>
</g>
</g>
<!-- dra.func_8012CC30&#45;&gt;dra.LearnSpell -->
<g id="edge8" class="edge">
<title>dra.func_8012CC30&#45;&gt;dra.LearnSpell</title>
<path fill="none" stroke="black" d="M1749.26,-183.33C1606.25,-150.48 1244.31,-67.35 1097.31,-33.59"/>
<polygon fill="black" stroke="black" points="1098.05,-30.17 1087.52,-31.34 1096.49,-36.99 1098.05,-30.17"/>
<text text-anchor="middle" x="1744.26" y="-172.13" font-family="Times,serif" font-size="14.00">1</text>
</g>
</g>
</svg>
