<?xml version="1.0" encoding="UTF-8" standalone="no"?>
<!DOCTYPE svg PUBLIC "-//W3C//DTD SVG 1.1//EN"
 "http://www.w3.org/Graphics/SVG/1.1/DTD/svg11.dtd">
<!-- Generated by graphviz version 2.43.0 (0)
 -->
<!-- Title: dra.func_800E7BB8 Pages: 1 -->
<svg width="308pt" height="224pt"
 viewBox="0.00 0.00 308.04 224.00" xmlns="http://www.w3.org/2000/svg" xmlns:xlink="http://www.w3.org/1999/xlink">
<g id="graph0" class="graph" transform="scale(1 1) rotate(0) translate(4 220)">
<title>dra.func_800E7BB8</title>
<polygon fill="white" stroke="transparent" points="-4,4 -4,-220 304.04,-220 304.04,4 -4,4"/>
<!-- dra.func_800E7BB8 -->
<g id="node1" class="node">
<title>dra.func_800E7BB8</title>
<ellipse fill="red" stroke="black" cx="158.29" cy="-198" rx="103.18" ry="18"/>
<text text-anchor="middle" x="158.29" y="-194.3" font-family="Times,serif" font-size="14.00">dra.func_800E7BB8</text>
</g>
<!-- dra.nullsub_10 -->
<g id="node2" class="node">
<title>dra.nullsub_10</title>
<g id="a_node2"><a xlink:href="dra.nullsub_10.svg" xlink:title="dra.nullsub_10">
<ellipse fill="green" stroke="black" cx="79.29" cy="-18" rx="79.09" ry="18"/>
<text text-anchor="middle" x="79.29" y="-14.3" font-family="Times,serif" font-size="14.00">dra.nullsub_10</text>
</a>
</g>
</g>
<!-- dra.func_800E7BB8&#45;&gt;dra.nullsub_10 -->
<g id="edge1" class="edge">
<title>dra.func_800E7BB8&#45;&gt;dra.nullsub_10</title>
<path fill="none" stroke="black" d="M150.72,-179.93C136.86,-148.7 107.33,-82.17 90.91,-45.18"/>
<polygon fill="black" stroke="black" points="94.1,-43.74 86.84,-36.02 87.7,-46.58 94.1,-43.74"/>
<text text-anchor="middle" x="81.84" y="-39.82" font-family="Times,serif" font-size="14.00">1</text>
</g>
<!-- LoadImage -->
<g id="node3" class="node">
<title>LoadImage</title>
<g id="a_node3"><a xlink:href="LoadImage.svg" xlink:title="LoadImage">
<ellipse fill="lightblue" stroke="black" cx="238.29" cy="-18" rx="61.99" ry="18"/>
<text text-anchor="middle" x="238.29" y="-14.3" font-family="Times,serif" font-size="14.00">LoadImage</text>
</a>
</g>
</g>
<!-- dra.func_800E7BB8&#45;&gt;LoadImage -->
<g id="edge2" class="edge">
<title>dra.func_800E7BB8&#45;&gt;LoadImage</title>
<path fill="none" stroke="black" d="M165.96,-179.93C180,-148.7 209.9,-82.17 226.53,-45.18"/>
<polygon fill="black" stroke="black" points="229.74,-46.57 230.65,-36.02 223.35,-43.7 229.74,-46.57"/>
<text text-anchor="middle" x="225.65" y="-39.82" font-family="Times,serif" font-size="14.00">1</text>
</g>
</g>
</svg>
