<?xml version="1.0" encoding="UTF-8" standalone="no"?>
<!DOCTYPE svg PUBLIC "-//W3C//DTD SVG 1.1//EN"
 "http://www.w3.org/Graphics/SVG/1.1/DTD/svg11.dtd">
<!-- Generated by graphviz version 2.43.0 (0)
 -->
<!-- Title: dra.func_800F8F28 Pages: 1 -->
<svg width="6005pt" height="218pt"
 viewBox="0.00 0.00 6004.78 218.00" xmlns="http://www.w3.org/2000/svg" xmlns:xlink="http://www.w3.org/1999/xlink">
<g id="graph0" class="graph" transform="scale(1 1) rotate(0) translate(4 214)">
<title>dra.func_800F8F28</title>
<polygon fill="white" stroke="transparent" points="-4,4 -4,-214 6000.78,-214 6000.78,4 -4,4"/>
<!-- dra.func_800F8F28 -->
<g id="node1" class="node">
<title>dra.func_800F8F28</title>
<ellipse fill="red" stroke="black" cx="2836.39" cy="-105" rx="101.28" ry="18"/>
<text text-anchor="middle" x="2836.39" y="-101.3" font-family="Times,serif" font-size="14.00">dra.func_800F8F28</text>
</g>
<!-- dra.SetPrimRect -->
<g id="node2" class="node">
<title>dra.SetPrimRect</title>
<g id="a_node2"><a xlink:href="dra.SetPrimRect.svg" xlink:title="dra.SetPrimRect">
<ellipse fill="green" stroke="black" cx="88.39" cy="-18" rx="88.28" ry="18"/>
<text text-anchor="middle" x="88.39" y="-14.3" font-family="Times,serif" font-size="14.00">dra.SetPrimRect</text>
</a>
</g>
</g>
<!-- dra.func_800F8F28&#45;&gt;dra.SetPrimRect -->
<g id="edge1" class="edge">
<title>dra.func_800F8F28&#45;&gt;dra.SetPrimRect</title>
<path fill="none" stroke="black" d="M2735.39,-103.36C2354.8,-100.78 1007.17,-90.35 578.39,-69 403.77,-60.31 359.8,-58.3 186.39,-36 178.21,-34.95 169.66,-33.7 161.18,-32.35"/>
<polygon fill="black" stroke="black" points="161.7,-28.89 151.27,-30.75 160.58,-35.8 161.7,-28.89"/>
<text text-anchor="middle" x="583.39" y="-57.8" font-family="Times,serif" font-size="14.00">1</text>
</g>
<!-- dra.BlinkMenuCursor -->
<g id="node3" class="node">
<title>dra.BlinkMenuCursor</title>
<g id="a_node3"><a xlink:href="dra.BlinkMenuCursor.svg" xlink:title="dra.BlinkMenuCursor">
<ellipse fill="green" stroke="black" cx="306.39" cy="-18" rx="111.28" ry="18"/>
<text text-anchor="middle" x="306.39" y="-14.3" font-family="Times,serif" font-size="14.00">dra.BlinkMenuCursor</text>
</a>
</g>
</g>
<!-- dra.func_800F8F28&#45;&gt;dra.BlinkMenuCursor -->
<g id="edge2" class="edge">
<title>dra.func_800F8F28&#45;&gt;dra.BlinkMenuCursor</title>
<path fill="none" stroke="black" d="M2735.4,-103.24C2378.66,-100.39 1178.55,-89.49 794.39,-69 630.41,-60.25 589.52,-54.86 426.39,-36 416.25,-34.83 405.65,-33.49 395.12,-32.09"/>
<polygon fill="black" stroke="black" points="395.45,-28.6 385.07,-30.73 394.51,-35.54 395.45,-28.6"/>
<text text-anchor="middle" x="799.39" y="-57.8" font-family="Times,serif" font-size="14.00">4</text>
</g>
<!-- dra.func_800F6568 -->
<g id="node4" class="node">
<title>dra.func_800F6568</title>
<g id="a_node4"><a xlink:href="dra.func_800F6568.svg" xlink:title="dra.func_800F6568">
<ellipse fill="green" stroke="black" cx="536.39" cy="-18" rx="100.98" ry="18"/>
<text text-anchor="middle" x="536.39" y="-14.3" font-family="Times,serif" font-size="14.00">dra.func_800F6568</text>
</a>
</g>
</g>
<!-- dra.func_800F8F28&#45;&gt;dra.func_800F6568 -->
<g id="edge3" class="edge">
<title>dra.func_800F8F28&#45;&gt;dra.func_800F6568</title>
<path fill="none" stroke="black" d="M2734.96,-104.47C2459.36,-105.22 1673.64,-103.87 1021.39,-69 853.88,-60.04 811.92,-56.27 645.39,-36 636.39,-34.9 626.98,-33.63 617.63,-32.29"/>
<polygon fill="black" stroke="black" points="617.94,-28.79 607.53,-30.8 616.92,-35.72 617.94,-28.79"/>
<text text-anchor="middle" x="1026.39" y="-57.8" font-family="Times,serif" font-size="14.00">1</text>
</g>
<!-- dra.func_800F8754 -->
<g id="node5" class="node">
<title>dra.func_800F8754</title>
<g id="a_node5"><a xlink:href="dra.func_800F8754.svg" xlink:title="dra.func_800F8754">
<ellipse fill="green" stroke="black" cx="755.39" cy="-18" rx="100.98" ry="18"/>
<text text-anchor="middle" x="755.39" y="-14.3" font-family="Times,serif" font-size="14.00">dra.func_800F8754</text>
</a>
</g>
</g>
<!-- dra.func_800F8F28&#45;&gt;dra.func_800F8754 -->
<g id="edge4" class="edge">
<title>dra.func_800F8F28&#45;&gt;dra.func_800F8754</title>
<path fill="none" stroke="black" d="M2735.17,-103.92C2484.53,-103.26 1814.94,-98.62 1257.39,-69 1082.8,-59.72 1039,-56.7 865.39,-36 856.06,-34.89 846.31,-33.59 836.63,-32.2"/>
<polygon fill="black" stroke="black" points="837,-28.72 826.6,-30.74 835.99,-35.65 837,-28.72"/>
<text text-anchor="middle" x="1262.39" y="-57.8" font-family="Times,serif" font-size="14.00">1</text>
</g>
<!-- dra.DrawPauseMenu -->
<g id="node6" class="node">
<title>dra.DrawPauseMenu</title>
<g id="a_node6"><a xlink:href="dra.DrawPauseMenu.svg" xlink:title="dra.DrawPauseMenu">
<ellipse fill="green" stroke="black" cx="982.39" cy="-18" rx="107.78" ry="18"/>
<text text-anchor="middle" x="982.39" y="-14.3" font-family="Times,serif" font-size="14.00">dra.DrawPauseMenu</text>
</a>
</g>
</g>
<!-- dra.func_800F8F28&#45;&gt;dra.DrawPauseMenu -->
<g id="edge5" class="edge">
<title>dra.func_800F8F28&#45;&gt;dra.DrawPauseMenu</title>
<path fill="none" stroke="black" d="M2735.24,-103.46C2510.03,-101.81 1950.19,-95.18 1482.39,-69 1311.81,-59.45 1269.11,-55.63 1099.39,-36 1089.53,-34.86 1079.21,-33.54 1068.97,-32.16"/>
<polygon fill="black" stroke="black" points="1069.16,-28.65 1058.78,-30.75 1068.2,-35.58 1069.16,-28.65"/>
<text text-anchor="middle" x="1487.39" y="-57.8" font-family="Times,serif" font-size="14.00">2</text>
</g>
<!-- dra.DrawMenuStr -->
<g id="node7" class="node">
<title>dra.DrawMenuStr</title>
<g id="a_node7"><a xlink:href="dra.DrawMenuStr.svg" xlink:title="dra.DrawMenuStr">
<ellipse fill="green" stroke="black" cx="1203.39" cy="-18" rx="94.78" ry="18"/>
<text text-anchor="middle" x="1203.39" y="-14.3" font-family="Times,serif" font-size="14.00">dra.DrawMenuStr</text>
</a>
</g>
</g>
<!-- dra.func_800F8F28&#45;&gt;dra.DrawMenuStr -->
<g id="edge6" class="edge">
<title>dra.func_800F8F28&#45;&gt;dra.DrawMenuStr</title>
<path fill="none" stroke="black" d="M2736.34,-101.89C2548.9,-97.67 2132.1,-87.02 1781.39,-69 1570.49,-58.16 1517.16,-60.39 1307.39,-36 1298.52,-34.97 1289.24,-33.71 1280.05,-32.35"/>
<polygon fill="black" stroke="black" points="1280.53,-28.89 1270.12,-30.84 1279.48,-35.81 1280.53,-28.89"/>
<text text-anchor="middle" x="1786.39" y="-57.8" font-family="Times,serif" font-size="14.00">3</text>
</g>
<!-- dra.DrawConsumableCount -->
<g id="node8" class="node">
<title>dra.DrawConsumableCount</title>
<g id="a_node8"><a xlink:href="dra.DrawConsumableCount.svg" xlink:title="dra.DrawConsumableCount">
<ellipse fill="green" stroke="black" cx="1455.39" cy="-18" rx="139.18" ry="18"/>
<text text-anchor="middle" x="1455.39" y="-14.3" font-family="Times,serif" font-size="14.00">dra.DrawConsumableCount</text>
</a>
</g>
</g>
<!-- dra.func_800F8F28&#45;&gt;dra.DrawConsumableCount -->
<g id="edge7" class="edge">
<title>dra.func_800F8F28&#45;&gt;dra.DrawConsumableCount</title>
<path fill="none" stroke="black" d="M2737.11,-101.18C2580.31,-96.42 2265.75,-85.66 1999.39,-69 1823.13,-57.97 1779.14,-53.41 1603.39,-36 1590.68,-34.74 1577.36,-33.33 1564.14,-31.88"/>
<polygon fill="black" stroke="black" points="1564.39,-28.39 1554.06,-30.77 1563.62,-35.35 1564.39,-28.39"/>
<text text-anchor="middle" x="2004.39" y="-57.8" font-family="Times,serif" font-size="14.00">2</text>
</g>
<!-- dra.LoadEquipIcon -->
<g id="node9" class="node">
<title>dra.LoadEquipIcon</title>
<g id="a_node9"><a xlink:href="dra.LoadEquipIcon.svg" xlink:title="dra.LoadEquipIcon">
<ellipse fill="green" stroke="black" cx="1711.39" cy="-18" rx="98.58" ry="18"/>
<text text-anchor="middle" x="1711.39" y="-14.3" font-family="Times,serif" font-size="14.00">dra.LoadEquipIcon</text>
</a>
</g>
</g>
<!-- dra.func_800F8F28&#45;&gt;dra.LoadEquipIcon -->
<g id="edge8" class="edge">
<title>dra.func_800F8F28&#45;&gt;dra.LoadEquipIcon</title>
<path fill="none" stroke="black" d="M2737.53,-100.96C2555.36,-94.57 2154.68,-76.82 1819.39,-36 1810.33,-34.9 1800.86,-33.61 1791.45,-32.24"/>
<polygon fill="black" stroke="black" points="1791.7,-28.74 1781.3,-30.73 1790.68,-35.66 1791.7,-28.74"/>
<text text-anchor="middle" x="2159.39" y="-57.8" font-family="Times,serif" font-size="14.00">3</text>
</g>
<!-- dra.func_800F892C -->
<g id="node10" class="node">
<title>dra.func_800F892C</title>
<g id="a_node10"><a xlink:href="dra.func_800F892C.svg" xlink:title="dra.func_800F892C">
<ellipse fill="green" stroke="black" cx="1930.39" cy="-18" rx="102.08" ry="18"/>
<text text-anchor="middle" x="1930.39" y="-14.3" font-family="Times,serif" font-size="14.00">dra.func_800F892C</text>
</a>
</g>
</g>
<!-- dra.func_800F8F28&#45;&gt;dra.func_800F892C -->
<g id="edge9" class="edge">
<title>dra.func_800F8F28&#45;&gt;dra.func_800F892C</title>
<path fill="none" stroke="black" d="M2742.22,-98.27C2593.15,-88.67 2293.83,-67.27 2041.39,-36 2032.13,-34.85 2022.45,-33.54 2012.83,-32.16"/>
<polygon fill="black" stroke="black" points="2013.25,-28.69 2002.85,-30.71 2012.25,-35.62 2013.25,-28.69"/>
<text text-anchor="middle" x="2352.39" y="-57.8" font-family="Times,serif" font-size="14.00">1</text>
</g>
<!-- dra.func_800F6618 -->
<g id="node11" class="node">
<title>dra.func_800F6618</title>
<g id="a_node11"><a xlink:href="dra.func_800F6618.svg" xlink:title="dra.func_800F6618">
<ellipse fill="green" stroke="black" cx="2151.39" cy="-18" rx="100.98" ry="18"/>
<text text-anchor="middle" x="2151.39" y="-14.3" font-family="Times,serif" font-size="14.00">dra.func_800F6618</text>
</a>
</g>
</g>
<!-- dra.func_800F8F28&#45;&gt;dra.func_800F6618 -->
<g id="edge10" class="edge">
<title>dra.func_800F8F28&#45;&gt;dra.func_800F6618</title>
<path fill="none" stroke="black" d="M2751.84,-95.01C2639.45,-82.84 2434.73,-59.88 2260.39,-36 2251.71,-34.81 2242.64,-33.5 2233.61,-32.16"/>
<polygon fill="black" stroke="black" points="2233.86,-28.66 2223.45,-30.63 2232.82,-35.58 2233.86,-28.66"/>
<text text-anchor="middle" x="2518.39" y="-57.8" font-family="Times,serif" font-size="14.00">1</text>
</g>
<!-- dra.func_800F8990 -->
<g id="node12" class="node">
<title>dra.func_800F8990</title>
<g id="a_node12"><a xlink:href="dra.func_800F8990.svg" xlink:title="dra.func_800F8990">
<ellipse fill="green" stroke="black" cx="2370.39" cy="-18" rx="100.98" ry="18"/>
<text text-anchor="middle" x="2370.39" y="-14.3" font-family="Times,serif" font-size="14.00">dra.func_800F8990</text>
</a>
</g>
</g>
<!-- dra.func_800F8F28&#45;&gt;dra.func_800F8990 -->
<g id="edge11" class="edge">
<title>dra.func_800F8F28&#45;&gt;dra.func_800F8990</title>
<path fill="none" stroke="black" d="M2768.13,-91.55C2682.93,-76.01 2537.57,-49.49 2448.16,-33.18"/>
<polygon fill="black" stroke="black" points="2448.54,-29.7 2438.08,-31.35 2447.29,-36.58 2448.54,-29.7"/>
<text text-anchor="middle" x="2636.39" y="-57.8" font-family="Times,serif" font-size="14.00">1</text>
</g>
<!-- dra.DrawStatChanges -->
<g id="node13" class="node">
<title>dra.DrawStatChanges</title>
<g id="a_node13"><a xlink:href="dra.DrawStatChanges.svg" xlink:title="dra.DrawStatChanges">
<ellipse fill="green" stroke="black" cx="2602.39" cy="-18" rx="113.98" ry="18"/>
<text text-anchor="middle" x="2602.39" y="-14.3" font-family="Times,serif" font-size="14.00">dra.DrawStatChanges</text>
</a>
</g>
</g>
<!-- dra.func_800F8F28&#45;&gt;dra.DrawStatChanges -->
<g id="edge12" class="edge">
<title>dra.func_800F8F28&#45;&gt;dra.DrawStatChanges</title>
<path fill="none" stroke="black" d="M2794.02,-88.61C2755.04,-74.45 2697.1,-53.4 2655.14,-38.16"/>
<polygon fill="black" stroke="black" points="2656.23,-34.83 2645.64,-34.71 2653.84,-41.41 2656.23,-34.83"/>
<text text-anchor="middle" x="2739.39" y="-57.8" font-family="Times,serif" font-size="14.00">1</text>
</g>
<!-- dra.func_800F5AE4 -->
<g id="node14" class="node">
<title>dra.func_800F5AE4</title>
<g id="a_node14"><a xlink:href="dra.func_800F5AE4.svg" xlink:title="dra.func_800F5AE4">
<ellipse fill="green" stroke="black" cx="2836.39" cy="-18" rx="102.88" ry="18"/>
<text text-anchor="middle" x="2836.39" y="-14.3" font-family="Times,serif" font-size="14.00">dra.func_800F5AE4</text>
</a>
</g>
</g>
<!-- dra.func_800F8F28&#45;&gt;dra.func_800F5AE4 -->
<g id="edge13" class="edge">
<title>dra.func_800F8F28&#45;&gt;dra.func_800F5AE4</title>
<path fill="none" stroke="black" d="M2836.39,-86.8C2836.39,-75.16 2836.39,-59.55 2836.39,-46.24"/>
<polygon fill="black" stroke="black" points="2839.89,-46.18 2836.39,-36.18 2832.89,-46.18 2839.89,-46.18"/>
<text text-anchor="middle" x="2841.39" y="-57.8" font-family="Times,serif" font-size="14.00">1</text>
</g>
<!-- dra.DrawRelicsMenu -->
<g id="node15" class="node">
<title>dra.DrawRelicsMenu</title>
<g id="a_node15"><a xlink:href="dra.DrawRelicsMenu.svg" xlink:title="dra.DrawRelicsMenu">
<ellipse fill="red" stroke="black" cx="3065.39" cy="-18" rx="108.58" ry="18"/>
<text text-anchor="middle" x="3065.39" y="-14.3" font-family="Times,serif" font-size="14.00">dra.DrawRelicsMenu</text>
</a>
</g>
</g>
<!-- dra.func_800F8F28&#45;&gt;dra.DrawRelicsMenu -->
<g id="edge14" class="edge">
<title>dra.func_800F8F28&#45;&gt;dra.DrawRelicsMenu</title>
<path fill="none" stroke="black" d="M2878.13,-88.51C2916.23,-74.37 2972.68,-53.41 3013.63,-38.21"/>
<polygon fill="black" stroke="black" points="3015.01,-41.43 3023.17,-34.67 3012.58,-34.87 3015.01,-41.43"/>
<text text-anchor="middle" x="2970.39" y="-57.8" font-family="Times,serif" font-size="14.00">1</text>
</g>
<!-- dra.DrawSpellMenu -->
<g id="node16" class="node">
<title>dra.DrawSpellMenu</title>
<g id="a_node16"><a xlink:href="dra.DrawSpellMenu.svg" xlink:title="dra.DrawSpellMenu">
<ellipse fill="red" stroke="black" cx="3296.39" cy="-18" rx="103.98" ry="18"/>
<text text-anchor="middle" x="3296.39" y="-14.3" font-family="Times,serif" font-size="14.00">dra.DrawSpellMenu</text>
</a>
</g>
</g>
<!-- dra.func_800F8F28&#45;&gt;dra.DrawSpellMenu -->
<g id="edge15" class="edge">
<title>dra.func_800F8F28&#45;&gt;dra.DrawSpellMenu</title>
<path fill="none" stroke="black" d="M2903.77,-91.55C2987.39,-76.1 3129.73,-49.8 3218.11,-33.47"/>
<polygon fill="black" stroke="black" points="3218.88,-36.88 3228.08,-31.62 3217.61,-30 3218.88,-36.88"/>
<text text-anchor="middle" x="3099.39" y="-57.8" font-family="Times,serif" font-size="14.00">1</text>
</g>
<!-- dra.DrawSystemMenu -->
<g id="node17" class="node">
<title>dra.DrawSystemMenu</title>
<g id="a_node17"><a xlink:href="dra.DrawSystemMenu.svg" xlink:title="dra.DrawSystemMenu">
<ellipse fill="green" stroke="black" cx="3533.39" cy="-18" rx="115.08" ry="18"/>
<text text-anchor="middle" x="3533.39" y="-14.3" font-family="Times,serif" font-size="14.00">dra.DrawSystemMenu</text>
</a>
</g>
</g>
<!-- dra.func_800F8F28&#45;&gt;dra.DrawSystemMenu -->
<g id="edge16" class="edge">
<title>dra.func_800F8F28&#45;&gt;dra.DrawSystemMenu</title>
<path fill="none" stroke="black" d="M2919.48,-94.62C3031,-81.92 3235.25,-58.27 3409.39,-36 3419.52,-34.71 3430.11,-33.31 3440.64,-31.9"/>
<polygon fill="black" stroke="black" points="3441.27,-35.35 3450.71,-30.55 3440.33,-28.41 3441.27,-35.35"/>
<text text-anchor="middle" x="3257.39" y="-57.8" font-family="Times,serif" font-size="14.00">1</text>
</g>
<!-- dra.DrawMenuAlucardCloakPreview -->
<g id="node18" class="node">
<title>dra.DrawMenuAlucardCloakPreview</title>
<g id="a_node18"><a xlink:href="dra.DrawMenuAlucardCloakPreview.svg" xlink:title="dra.DrawMenuAlucardCloakPreview">
<ellipse fill="green" stroke="black" cx="3845.39" cy="-18" rx="179.27" ry="18"/>
<text text-anchor="middle" x="3845.39" y="-14.3" font-family="Times,serif" font-size="14.00">dra.DrawMenuAlucardCloakPreview</text>
</a>
</g>
</g>
<!-- dra.func_800F8F28&#45;&gt;dra.DrawMenuAlucardCloakPreview -->
<g id="edge17" class="edge">
<title>dra.func_800F8F28&#45;&gt;dra.DrawMenuAlucardCloakPreview</title>
<path fill="none" stroke="black" d="M2926.92,-96.77C3078.22,-84.63 3392.02,-59.2 3657.39,-36 3673.7,-34.57 3690.8,-33.06 3707.76,-31.54"/>
<polygon fill="black" stroke="black" points="3708.08,-35.03 3717.73,-30.65 3707.45,-28.05 3708.08,-35.03"/>
<text text-anchor="middle" x="3437.39" y="-57.8" font-family="Times,serif" font-size="14.00">1</text>
</g>
<!-- dra.func_800F6A70 -->
<g id="node19" class="node">
<title>dra.func_800F6A70</title>
<g id="a_node19"><a xlink:href="dra.func_800F6A70.svg" xlink:title="dra.func_800F6A70">
<ellipse fill="red" stroke="black" cx="4144.39" cy="-18" rx="101.28" ry="18"/>
<text text-anchor="middle" x="4144.39" y="-14.3" font-family="Times,serif" font-size="14.00">dra.func_800F6A70</text>
</a>
</g>
</g>
<!-- dra.func_800F8F28&#45;&gt;dra.func_800F6A70 -->
<g id="edge18" class="edge">
<title>dra.func_800F8F28&#45;&gt;dra.func_800F6A70</title>
<path fill="none" stroke="black" d="M2935.96,-101.55C3141.54,-95.78 3627.64,-78.5 4033.39,-36 4043.14,-34.98 4053.33,-33.7 4063.42,-32.31"/>
<polygon fill="black" stroke="black" points="4064.05,-35.76 4073.46,-30.89 4063.07,-28.83 4064.05,-35.76"/>
<text text-anchor="middle" x="3842.39" y="-57.8" font-family="Times,serif" font-size="14.00">1</text>
</g>
<!-- dra.DrawSettingsButton -->
<g id="node20" class="node">
<title>dra.DrawSettingsButton</title>
<g id="a_node20"><a xlink:href="dra.DrawSettingsButton.svg" xlink:title="dra.DrawSettingsButton">
<ellipse fill="red" stroke="black" cx="4388.39" cy="-18" rx="124.58" ry="18"/>
<text text-anchor="middle" x="4388.39" y="-14.3" font-family="Times,serif" font-size="14.00">dra.DrawSettingsButton</text>
</a>
</g>
</g>
<!-- dra.func_800F8F28&#45;&gt;dra.DrawSettingsButton -->
<g id="edge19" class="edge">
<title>dra.func_800F8F28&#45;&gt;dra.DrawSettingsButton</title>
<path fill="none" stroke="black" d="M2936.59,-102.11C3118.79,-98.33 3516.51,-88.47 3851.39,-69 4030.8,-58.57 4075.65,-54.65 4254.39,-36 4265.96,-34.79 4278.08,-33.42 4290.1,-31.98"/>
<polygon fill="black" stroke="black" points="4290.65,-35.44 4300.16,-30.76 4289.81,-28.49 4290.65,-35.44"/>
<text text-anchor="middle" x="4071.39" y="-57.8" font-family="Times,serif" font-size="14.00">1</text>
</g>
<!-- dra.DrawSettingsReverseCloak -->
<g id="node21" class="node">
<title>dra.DrawSettingsReverseCloak</title>
<g id="a_node21"><a xlink:href="dra.DrawSettingsReverseCloak.svg" xlink:title="dra.DrawSettingsReverseCloak">
<ellipse fill="green" stroke="black" cx="4687.39" cy="-18" rx="156.77" ry="18"/>
<text text-anchor="middle" x="4687.39" y="-14.3" font-family="Times,serif" font-size="14.00">dra.DrawSettingsReverseCloak</text>
</a>
</g>
</g>
<!-- dra.func_800F8F28&#45;&gt;dra.DrawSettingsReverseCloak -->
<g id="edge20" class="edge">
<title>dra.func_800F8F28&#45;&gt;dra.DrawSettingsReverseCloak</title>
<path fill="none" stroke="black" d="M2937.24,-102.75C3149.08,-99.77 3655.86,-90.81 4080.39,-69 4277.12,-58.89 4326.17,-53.43 4522.39,-36 4536.73,-34.73 4551.75,-33.3 4566.65,-31.84"/>
<polygon fill="black" stroke="black" points="4567.33,-35.29 4576.93,-30.81 4566.64,-28.32 4567.33,-35.29"/>
<text text-anchor="middle" x="4320.39" y="-57.8" font-family="Times,serif" font-size="14.00">1</text>
</g>
<!-- dra.DrawSettingsSound -->
<g id="node22" class="node">
<title>dra.DrawSettingsSound</title>
<g id="a_node22"><a xlink:href="dra.DrawSettingsSound.svg" xlink:title="dra.DrawSettingsSound">
<ellipse fill="green" stroke="black" cx="4984.39" cy="-18" rx="122.38" ry="18"/>
<text text-anchor="middle" x="4984.39" y="-14.3" font-family="Times,serif" font-size="14.00">dra.DrawSettingsSound</text>
</a>
</g>
</g>
<!-- dra.func_800F8F28&#45;&gt;dra.DrawSettingsSound -->
<g id="edge21" class="edge">
<title>dra.func_800F8F28&#45;&gt;dra.DrawSettingsSound</title>
<path fill="none" stroke="black" d="M2937.37,-103.01C3178.3,-100.34 3805.83,-91.61 4329.39,-69 4562.53,-58.93 4621.12,-58.36 4853.39,-36 4864.9,-34.89 4876.95,-33.56 4888.88,-32.14"/>
<polygon fill="black" stroke="black" points="4889.36,-35.61 4898.87,-30.93 4888.52,-28.66 4889.36,-35.61"/>
<text text-anchor="middle" x="4640.39" y="-57.8" font-family="Times,serif" font-size="14.00">1</text>
</g>
<!-- dra.func_800F6BEC -->
<g id="node23" class="node">
<title>dra.func_800F6BEC</title>
<g id="a_node23"><a xlink:href="dra.func_800F6BEC.svg" xlink:title="dra.func_800F6BEC">
<ellipse fill="green" stroke="black" cx="5228.39" cy="-18" rx="103.98" ry="18"/>
<text text-anchor="middle" x="5228.39" y="-14.3" font-family="Times,serif" font-size="14.00">dra.func_800F6BEC</text>
</a>
</g>
</g>
<!-- dra.func_800F8F28&#45;&gt;dra.func_800F6BEC -->
<g id="edge22" class="edge">
<title>dra.func_800F8F28&#45;&gt;dra.func_800F6BEC</title>
<path fill="none" stroke="black" d="M2937.68,-103.87C3212.9,-103.12 3997.6,-98.35 4649.39,-69 4856.81,-59.66 4909.02,-58.8 5115.39,-36 5125.08,-34.93 5135.21,-33.64 5145.26,-32.27"/>
<polygon fill="black" stroke="black" points="5145.84,-35.72 5155.26,-30.86 5144.87,-28.79 5145.84,-35.72"/>
<text text-anchor="middle" x="4934.39" y="-57.8" font-family="Times,serif" font-size="14.00">1</text>
</g>
<!-- dra.func_800F6DC8 -->
<g id="node24" class="node">
<title>dra.func_800F6DC8</title>
<g id="a_node24"><a xlink:href="dra.func_800F6DC8.svg" xlink:title="dra.func_800F6DC8">
<ellipse fill="red" stroke="black" cx="5453.39" cy="-18" rx="103.18" ry="18"/>
<text text-anchor="middle" x="5453.39" y="-14.3" font-family="Times,serif" font-size="14.00">dra.func_800F6DC8</text>
</a>
</g>
</g>
<!-- dra.func_800F8F28&#45;&gt;dra.func_800F6DC8 -->
<g id="edge23" class="edge">
<title>dra.func_800F8F28&#45;&gt;dra.func_800F6DC8</title>
<path fill="none" stroke="black" d="M2937.43,-103.21C3301.53,-100.22 4545.79,-88.76 4943.39,-69 5120.67,-60.19 5165.1,-56.66 5341.39,-36 5350.82,-34.9 5360.66,-33.6 5370.44,-32.23"/>
<polygon fill="black" stroke="black" points="5371.19,-35.66 5380.59,-30.78 5370.2,-28.73 5371.19,-35.66"/>
<text text-anchor="middle" x="5180.39" y="-57.8" font-family="Times,serif" font-size="14.00">1</text>
</g>
<!-- dra.func_800F8858 -->
<g id="node25" class="node">
<title>dra.func_800F8858</title>
<g id="a_node25"><a xlink:href="dra.func_800F8858.svg" xlink:title="dra.func_800F8858">
<ellipse fill="green" stroke="black" cx="5675.39" cy="-18" rx="100.98" ry="18"/>
<text text-anchor="middle" x="5675.39" y="-14.3" font-family="Times,serif" font-size="14.00">dra.func_800F8858</text>
</a>
</g>
</g>
<!-- dra.func_800F8F28&#45;&gt;dra.func_800F8858 -->
<g id="edge24" class="edge">
<title>dra.func_800F8F28&#45;&gt;dra.func_800F8858</title>
<path fill="none" stroke="black" d="M2937.6,-103.48C3328.63,-101.3 4741.08,-91.98 5189.39,-69 5356.93,-60.41 5398.85,-56.15 5565.39,-36 5574.65,-34.88 5584.32,-33.58 5593.92,-32.2"/>
<polygon fill="black" stroke="black" points="5594.5,-35.66 5603.89,-30.75 5593.49,-28.73 5594.5,-35.66"/>
<text text-anchor="middle" x="5407.39" y="-57.8" font-family="Times,serif" font-size="14.00">1</text>
</g>
<!-- dra.func_800F7F64 -->
<g id="node26" class="node">
<title>dra.func_800F7F64</title>
<g id="a_node26"><a xlink:href="dra.func_800F7F64.svg" xlink:title="dra.func_800F7F64">
<ellipse fill="red" stroke="black" cx="5895.39" cy="-18" rx="101.28" ry="18"/>
<text text-anchor="middle" x="5895.39" y="-14.3" font-family="Times,serif" font-size="14.00">dra.func_800F7F64</text>
</a>
</g>
</g>
<!-- dra.func_800F8F28&#45;&gt;dra.func_800F7F64 -->
<g id="edge25" class="edge">
<title>dra.func_800F8F28&#45;&gt;dra.func_800F7F64</title>
<path fill="none" stroke="black" d="M2937.69,-103.65C3352.27,-102.07 4921.07,-94.47 5416.39,-69 5580.83,-60.54 5621.95,-55.92 5785.39,-36 5794.48,-34.89 5803.97,-33.61 5813.4,-32.26"/>
<polygon fill="black" stroke="black" points="5814.2,-35.68 5823.59,-30.78 5813.19,-28.76 5814.2,-35.68"/>
<text text-anchor="middle" x="5630.39" y="-57.8" font-family="Times,serif" font-size="14.00">1</text>
</g>
<!-- dra.func_800FBC24 -->
<g id="node27" class="node">
<title>dra.func_800FBC24</title>
<g id="a_node27"><a xlink:href="dra.func_800FBC24.svg" xlink:title="dra.func_800FBC24">
<ellipse fill="red" stroke="black" cx="2836.39" cy="-192" rx="102.88" ry="18"/>
<text text-anchor="middle" x="2836.39" y="-188.3" font-family="Times,serif" font-size="14.00">dra.func_800FBC24</text>
</a>
</g>
</g>
<!-- dra.func_800FBC24&#45;&gt;dra.func_800F8F28 -->
<g id="edge26" class="edge">
<title>dra.func_800FBC24&#45;&gt;dra.func_800F8F28</title>
<path fill="none" stroke="black" d="M2836.39,-173.8C2836.39,-162.16 2836.39,-146.55 2836.39,-133.24"/>
<polygon fill="black" stroke="black" points="2839.89,-133.18 2836.39,-123.18 2832.89,-133.18 2839.89,-133.18"/>
<text text-anchor="middle" x="2841.39" y="-144.8" font-family="Times,serif" font-size="14.00">1</text>
</g>
</g>
</svg>
