<?xml version="1.0" encoding="UTF-8" standalone="no"?>
<!DOCTYPE svg PUBLIC "-//W3C//DTD SVG 1.1//EN"
 "http://www.w3.org/Graphics/SVG/1.1/DTD/svg11.dtd">
<!-- Generated by graphviz version 2.43.0 (0)
 -->
<!-- Title: dra.func_8010E570 Pages: 1 -->
<svg width="3371pt" height="404pt"
 viewBox="0.00 0.00 3371.08 404.00" xmlns="http://www.w3.org/2000/svg" xmlns:xlink="http://www.w3.org/1999/xlink">
<g id="graph0" class="graph" transform="scale(1 1) rotate(0) translate(4 400)">
<title>dra.func_8010E570</title>
<polygon fill="white" stroke="transparent" points="-4,4 -4,-400 3367.08,-400 3367.08,4 -4,4"/>
<!-- dra.func_8010E570 -->
<g id="node1" class="node">
<title>dra.func_8010E570</title>
<ellipse fill="red" stroke="black" cx="1719.69" cy="-198" rx="101.28" ry="18"/>
<text text-anchor="middle" x="1719.69" y="-194.3" font-family="Times,serif" font-size="14.00">dra.func_8010E570</text>
</g>
<!-- dra.SetPlayerStep -->
<g id="node2" class="node">
<title>dra.SetPlayerStep</title>
<g id="a_node2"><a xlink:href="dra.SetPlayerStep.svg" xlink:title="dra.SetPlayerStep">
<ellipse fill="green" stroke="black" cx="1611.69" cy="-18" rx="96.38" ry="18"/>
<text text-anchor="middle" x="1611.69" y="-14.3" font-family="Times,serif" font-size="14.00">dra.SetPlayerStep</text>
</a>
</g>
</g>
<!-- dra.func_8010E570&#45;&gt;dra.SetPlayerStep -->
<g id="edge1" class="edge">
<title>dra.func_8010E570&#45;&gt;dra.SetPlayerStep</title>
<path fill="none" stroke="black" d="M1709.34,-179.93C1690.3,-148.57 1649.67,-81.6 1627.29,-44.71"/>
<polygon fill="black" stroke="black" points="1630.19,-42.75 1622.02,-36.02 1624.21,-46.38 1630.19,-42.75"/>
<text text-anchor="middle" x="1617.02" y="-39.82" font-family="Times,serif" font-size="14.00">1</text>
</g>
<!-- dra.func_8010DA48 -->
<g id="node3" class="node">
<title>dra.func_8010DA48</title>
<g id="a_node3"><a xlink:href="dra.func_8010DA48.svg" xlink:title="dra.func_8010DA48">
<ellipse fill="green" stroke="black" cx="1828.69" cy="-18" rx="102.88" ry="18"/>
<text text-anchor="middle" x="1828.69" y="-14.3" font-family="Times,serif" font-size="14.00">dra.func_8010DA48</text>
</a>
</g>
</g>
<!-- dra.func_8010E570&#45;&gt;dra.func_8010DA48 -->
<g id="edge2" class="edge">
<title>dra.func_8010E570&#45;&gt;dra.func_8010DA48</title>
<path fill="none" stroke="black" d="M1730.14,-179.93C1749.35,-148.57 1790.36,-81.6 1812.95,-44.71"/>
<polygon fill="black" stroke="black" points="1816.03,-46.37 1818.27,-36.02 1810.06,-42.72 1816.03,-46.37"/>
<text text-anchor="middle" x="1813.27" y="-39.82" font-family="Times,serif" font-size="14.00">1</text>
</g>
<!-- dra.func_80115DA0 -->
<g id="node4" class="node">
<title>dra.func_80115DA0</title>
<g id="a_node4"><a xlink:href="dra.func_80115DA0.svg" xlink:title="dra.func_80115DA0">
<ellipse fill="green" stroke="black" cx="102.69" cy="-378" rx="102.88" ry="18"/>
<text text-anchor="middle" x="102.69" y="-374.3" font-family="Times,serif" font-size="14.00">dra.func_80115DA0</text>
</a>
</g>
</g>
<!-- dra.func_80115DA0&#45;&gt;dra.func_8010E570 -->
<g id="edge3" class="edge">
<title>dra.func_80115DA0&#45;&gt;dra.func_8010E570</title>
<path fill="none" stroke="black" d="M176.13,-365.38C188.97,-363.48 202.21,-361.61 214.69,-360 744.26,-291.52 1381.38,-230.31 1621.64,-207.98"/>
<polygon fill="black" stroke="black" points="1622.11,-211.45 1631.74,-207.04 1621.46,-204.48 1622.11,-211.45"/>
<text text-anchor="middle" x="171.13" y="-354.18" font-family="Times,serif" font-size="14.00">2</text>
</g>
<!-- dra.AlucardHandleDamage -->
<g id="node5" class="node">
<title>dra.AlucardHandleDamage</title>
<g id="a_node5"><a xlink:href="dra.AlucardHandleDamage.svg" xlink:title="dra.AlucardHandleDamage">
<ellipse fill="red" stroke="black" cx="359.69" cy="-378" rx="135.68" ry="18"/>
<text text-anchor="middle" x="359.69" y="-374.3" font-family="Times,serif" font-size="14.00">dra.AlucardHandleDamage</text>
</a>
</g>
</g>
<!-- dra.AlucardHandleDamage&#45;&gt;dra.func_8010E570 -->
<g id="edge4" class="edge">
<title>dra.AlucardHandleDamage&#45;&gt;dra.func_8010E570</title>
<path fill="none" stroke="black" d="M452.63,-364.84C702.39,-332.15 1385.71,-242.71 1630.76,-210.64"/>
<polygon fill="black" stroke="black" points="1631.23,-214.11 1640.69,-209.34 1630.32,-207.17 1631.23,-214.11"/>
<text text-anchor="middle" x="447.63" y="-353.64" font-family="Times,serif" font-size="14.00">1</text>
</g>
<!-- dra.func_80115BB0 -->
<g id="node6" class="node">
<title>dra.func_80115BB0</title>
<g id="a_node6"><a xlink:href="dra.func_80115BB0.svg" xlink:title="dra.func_80115BB0">
<ellipse fill="green" stroke="black" cx="616.69" cy="-378" rx="102.88" ry="18"/>
<text text-anchor="middle" x="616.69" y="-374.3" font-family="Times,serif" font-size="14.00">dra.func_80115BB0</text>
</a>
</g>
</g>
<!-- dra.func_80115BB0&#45;&gt;dra.func_8010E570 -->
<g id="edge5" class="edge">
<title>dra.func_80115BB0&#45;&gt;dra.func_8010E570</title>
<path fill="none" stroke="black" d="M689.49,-365.25C886.63,-333.44 1429.95,-245.76 1637.56,-212.25"/>
<polygon fill="black" stroke="black" points="1638.18,-215.7 1647.49,-210.65 1637.06,-208.79 1638.18,-215.7"/>
<text text-anchor="middle" x="684.49" y="-354.05" font-family="Times,serif" font-size="14.00">1</text>
</g>
<!-- dra.func_801131C4 -->
<g id="node7" class="node">
<title>dra.func_801131C4</title>
<g id="a_node7"><a xlink:href="dra.func_801131C4.svg" xlink:title="dra.func_801131C4">
<ellipse fill="red" stroke="black" cx="838.69" cy="-378" rx="101.28" ry="18"/>
<text text-anchor="middle" x="838.69" y="-374.3" font-family="Times,serif" font-size="14.00">dra.func_801131C4</text>
</a>
</g>
</g>
<!-- dra.func_801131C4&#45;&gt;dra.func_8010E570 -->
<g id="edge6" class="edge">
<title>dra.func_801131C4&#45;&gt;dra.func_8010E570</title>
<path fill="none" stroke="black" d="M903.12,-363.98C1062.77,-331.73 1476.02,-248.23 1645.5,-213.99"/>
<polygon fill="black" stroke="black" points="1646.23,-217.41 1655.34,-212 1644.84,-210.55 1646.23,-217.41"/>
<text text-anchor="middle" x="898.12" y="-352.78" font-family="Times,serif" font-size="14.00">1</text>
</g>
<!-- dra.func_80109594 -->
<g id="node8" class="node">
<title>dra.func_80109594</title>
<g id="a_node8"><a xlink:href="dra.func_80109594.svg" xlink:title="dra.func_80109594">
<ellipse fill="green" stroke="black" cx="1058.69" cy="-378" rx="100.98" ry="18"/>
<text text-anchor="middle" x="1058.69" y="-374.3" font-family="Times,serif" font-size="14.00">dra.func_80109594</text>
</a>
</g>
</g>
<!-- dra.func_80109594&#45;&gt;dra.func_8010E570 -->
<g id="edge7" class="edge">
<title>dra.func_80109594&#45;&gt;dra.func_8010E570</title>
<path fill="none" stroke="black" d="M1111.94,-362.66C1232.61,-330.16 1526.45,-251.04 1656.26,-216.08"/>
<polygon fill="black" stroke="black" points="1657.32,-219.42 1666.06,-213.44 1655.5,-212.66 1657.32,-219.42"/>
<text text-anchor="middle" x="1106.94" y="-351.46" font-family="Times,serif" font-size="14.00">1</text>
</g>
<!-- dra.func_8010FDF8 -->
<g id="node9" class="node">
<title>dra.func_8010FDF8</title>
<g id="a_node9"><a xlink:href="dra.func_8010FDF8.svg" xlink:title="dra.func_8010FDF8">
<ellipse fill="green" stroke="black" cx="1279.69" cy="-378" rx="102.88" ry="18"/>
<text text-anchor="middle" x="1279.69" y="-374.3" font-family="Times,serif" font-size="14.00">dra.func_8010FDF8</text>
</a>
</g>
</g>
<!-- dra.func_8010FDF8&#45;&gt;dra.func_8010E570 -->
<g id="edge8" class="edge">
<title>dra.func_8010FDF8&#45;&gt;dra.func_8010E570</title>
<path fill="none" stroke="black" d="M1318.74,-361.2C1399.22,-328.65 1583.36,-254.15 1671.26,-218.59"/>
<polygon fill="black" stroke="black" points="1672.77,-221.76 1680.73,-214.76 1670.15,-215.27 1672.77,-221.76"/>
<text text-anchor="middle" x="1313.74" y="-350" font-family="Times,serif" font-size="14.00">3</text>
</g>
<!-- dra.func_8010A234 -->
<g id="node10" class="node">
<title>dra.func_8010A234</title>
<g id="a_node10"><a xlink:href="dra.func_8010A234.svg" xlink:title="dra.func_8010A234">
<ellipse fill="red" stroke="black" cx="1500.69" cy="-378" rx="100.98" ry="18"/>
<text text-anchor="middle" x="1500.69" y="-374.3" font-family="Times,serif" font-size="14.00">dra.func_8010A234</text>
</a>
</g>
</g>
<!-- dra.func_8010A234&#45;&gt;dra.func_8010E570 -->
<g id="edge9" class="edge">
<title>dra.func_8010A234&#45;&gt;dra.func_8010E570</title>
<path fill="none" stroke="black" d="M1521.29,-360.25C1560.59,-328.32 1646.31,-258.65 1691.11,-222.23"/>
<polygon fill="black" stroke="black" points="1693.43,-224.85 1698.98,-215.83 1689.02,-219.42 1693.43,-224.85"/>
<text text-anchor="middle" x="1516.29" y="-349.05" font-family="Times,serif" font-size="14.00">1</text>
</g>
<!-- dra.func_80116408 -->
<g id="node11" class="node">
<title>dra.func_80116408</title>
<g id="a_node11"><a xlink:href="dra.func_80116408.svg" xlink:title="dra.func_80116408">
<ellipse fill="red" stroke="black" cx="1719.69" cy="-378" rx="100.98" ry="18"/>
<text text-anchor="middle" x="1719.69" y="-374.3" font-family="Times,serif" font-size="14.00">dra.func_80116408</text>
</a>
</g>
</g>
<!-- dra.func_80116408&#45;&gt;dra.func_8010E570 -->
<g id="edge10" class="edge">
<title>dra.func_80116408&#45;&gt;dra.func_8010E570</title>
<path fill="none" stroke="black" d="M1719.69,-359.93C1719.69,-328.97 1719.69,-263.3 1719.69,-226.13"/>
<polygon fill="black" stroke="black" points="1723.19,-226.02 1719.69,-216.02 1716.19,-226.02 1723.19,-226.02"/>
<text text-anchor="middle" x="1714.69" y="-348.73" font-family="Times,serif" font-size="14.00">2</text>
</g>
<!-- dra.func_801166A4 -->
<g id="node12" class="node">
<title>dra.func_801166A4</title>
<g id="a_node12"><a xlink:href="dra.func_801166A4.svg" xlink:title="dra.func_801166A4">
<ellipse fill="green" stroke="black" cx="1938.69" cy="-378" rx="100.98" ry="18"/>
<text text-anchor="middle" x="1938.69" y="-374.3" font-family="Times,serif" font-size="14.00">dra.func_801166A4</text>
</a>
</g>
</g>
<!-- dra.func_801166A4&#45;&gt;dra.func_8010E570 -->
<g id="edge11" class="edge">
<title>dra.func_801166A4&#45;&gt;dra.func_8010E570</title>
<path fill="none" stroke="black" d="M1918.09,-360.25C1878.79,-328.32 1793.08,-258.65 1748.27,-222.23"/>
<polygon fill="black" stroke="black" points="1750.37,-219.42 1740.4,-215.83 1745.95,-224.85 1750.37,-219.42"/>
<text text-anchor="middle" x="1913.09" y="-349.05" font-family="Times,serif" font-size="14.00">1</text>
</g>
<!-- dra.func_80118670 -->
<g id="node13" class="node">
<title>dra.func_80118670</title>
<g id="a_node13"><a xlink:href="dra.func_80118670.svg" xlink:title="dra.func_80118670">
<ellipse fill="green" stroke="black" cx="2157.69" cy="-378" rx="100.98" ry="18"/>
<text text-anchor="middle" x="2157.69" y="-374.3" font-family="Times,serif" font-size="14.00">dra.func_80118670</text>
</a>
</g>
</g>
<!-- dra.func_80118670&#45;&gt;dra.func_8010E570 -->
<g id="edge12" class="edge">
<title>dra.func_80118670&#45;&gt;dra.func_8010E570</title>
<path fill="none" stroke="black" d="M2119.21,-361.36C2039.23,-328.86 1855.23,-254.08 1767.68,-218.5"/>
<polygon fill="black" stroke="black" points="1768.83,-215.19 1758.25,-214.67 1766.19,-221.68 1768.83,-215.19"/>
<text text-anchor="middle" x="2114.21" y="-350.16" font-family="Times,serif" font-size="14.00">1</text>
</g>
<!-- dra.func_80118614 -->
<g id="node14" class="node">
<title>dra.func_80118614</title>
<g id="a_node14"><a xlink:href="dra.func_80118614.svg" xlink:title="dra.func_80118614">
<ellipse fill="green" stroke="black" cx="2376.69" cy="-378" rx="100.98" ry="18"/>
<text text-anchor="middle" x="2376.69" y="-374.3" font-family="Times,serif" font-size="14.00">dra.func_80118614</text>
</a>
</g>
</g>
<!-- dra.func_80118614&#45;&gt;dra.func_8010E570 -->
<g id="edge13" class="edge">
<title>dra.func_80118614&#45;&gt;dra.func_8010E570</title>
<path fill="none" stroke="black" d="M2323.76,-362.66C2203.82,-330.16 1911.76,-251.04 1782.74,-216.08"/>
<polygon fill="black" stroke="black" points="1783.56,-212.68 1773,-213.44 1781.73,-219.44 1783.56,-212.68"/>
<text text-anchor="middle" x="2318.76" y="-351.46" font-family="Times,serif" font-size="14.00">1</text>
</g>
<!-- dra.func_801186EC -->
<g id="node15" class="node">
<title>dra.func_801186EC</title>
<g id="a_node15"><a xlink:href="dra.func_801186EC.svg" xlink:title="dra.func_801186EC">
<ellipse fill="green" stroke="black" cx="2597.69" cy="-378" rx="102.88" ry="18"/>
<text text-anchor="middle" x="2597.69" y="-374.3" font-family="Times,serif" font-size="14.00">dra.func_801186EC</text>
</a>
</g>
</g>
<!-- dra.func_801186EC&#45;&gt;dra.func_8010E570 -->
<g id="edge14" class="edge">
<title>dra.func_801186EC&#45;&gt;dra.func_8010E570</title>
<path fill="none" stroke="black" d="M2533.13,-363.91C2373.82,-331.61 1962.69,-248.26 1793.8,-214.02"/>
<polygon fill="black" stroke="black" points="1794.25,-210.54 1783.75,-211.99 1792.86,-217.4 1794.25,-210.54"/>
<text text-anchor="middle" x="2528.13" y="-352.71" font-family="Times,serif" font-size="14.00">1</text>
</g>
<!-- dra.func_8011678C -->
<g id="node16" class="node">
<title>dra.func_8011678C</title>
<g id="a_node16"><a xlink:href="dra.func_8011678C.svg" xlink:title="dra.func_8011678C">
<ellipse fill="green" stroke="black" cx="2819.69" cy="-378" rx="101.28" ry="18"/>
<text text-anchor="middle" x="2819.69" y="-374.3" font-family="Times,serif" font-size="14.00">dra.func_8011678C</text>
</a>
</g>
</g>
<!-- dra.func_8011678C&#45;&gt;dra.func_8010E570 -->
<g id="edge15" class="edge">
<title>dra.func_8011678C&#45;&gt;dra.func_8010E570</title>
<path fill="none" stroke="black" d="M2747.52,-365.32C2551.3,-333.57 2008.95,-245.81 1801.68,-212.27"/>
<polygon fill="black" stroke="black" points="1802.2,-208.81 1791.77,-210.66 1801.08,-215.72 1802.2,-208.81"/>
<text text-anchor="middle" x="2742.52" y="-354.12" font-family="Times,serif" font-size="14.00">1</text>
</g>
<!-- dra.func_80112B64 -->
<g id="node17" class="node">
<title>dra.func_80112B64</title>
<g id="a_node17"><a xlink:href="dra.func_80112B64.svg" xlink:title="dra.func_80112B64">
<ellipse fill="green" stroke="black" cx="3040.69" cy="-378" rx="101.28" ry="18"/>
<text text-anchor="middle" x="3040.69" y="-374.3" font-family="Times,serif" font-size="14.00">dra.func_80112B64</text>
</a>
</g>
</g>
<!-- dra.func_80112B64&#45;&gt;dra.func_8010E570 -->
<g id="edge16" class="edge">
<title>dra.func_80112B64&#45;&gt;dra.func_8010E570</title>
<path fill="none" stroke="black" d="M2967.28,-365.55C2954.75,-363.65 2941.85,-361.74 2929.69,-360 2511.41,-300.15 2010.7,-235.86 1809.68,-210.36"/>
<polygon fill="black" stroke="black" points="1810.12,-206.89 1799.76,-209.1 1809.24,-213.83 1810.12,-206.89"/>
<text text-anchor="middle" x="2962.28" y="-354.35" font-family="Times,serif" font-size="14.00">1</text>
</g>
<!-- dra.func_801120B4 -->
<g id="node18" class="node">
<title>dra.func_801120B4</title>
<g id="a_node18"><a xlink:href="dra.func_801120B4.svg" xlink:title="dra.func_801120B4">
<ellipse fill="red" stroke="black" cx="3261.69" cy="-378" rx="101.28" ry="18"/>
<text text-anchor="middle" x="3261.69" y="-374.3" font-family="Times,serif" font-size="14.00">dra.func_801120B4</text>
</a>
</g>
</g>
<!-- dra.func_801120B4&#45;&gt;dra.func_8010E570 -->
<g id="edge17" class="edge">
<title>dra.func_801120B4&#45;&gt;dra.func_8010E570</title>
<path fill="none" stroke="black" d="M3188.91,-365.43C3176.18,-363.53 3163.06,-361.64 3150.69,-360 2649.47,-293.45 2047.07,-231.57 1816.19,-208.51"/>
<polygon fill="black" stroke="black" points="1816.43,-205.02 1806.14,-207.51 1815.74,-211.99 1816.43,-205.02"/>
<text text-anchor="middle" x="3183.91" y="-354.23" font-family="Times,serif" font-size="14.00">1</text>
</g>
</g>
</svg>
