<?xml version="1.0" encoding="UTF-8" standalone="no"?>
<!DOCTYPE svg PUBLIC "-//W3C//DTD SVG 1.1//EN"
 "http://www.w3.org/Graphics/SVG/1.1/DTD/svg11.dtd">
<!-- Generated by graphviz version 2.43.0 (0)
 -->
<!-- Title: dra.func_8010DBFC Pages: 1 -->
<svg width="4177pt" height="218pt"
 viewBox="0.00 0.00 4177.03 218.00" xmlns="http://www.w3.org/2000/svg" xmlns:xlink="http://www.w3.org/1999/xlink">
<g id="graph0" class="graph" transform="scale(1 1) rotate(0) translate(4 214)">
<title>dra.func_8010DBFC</title>
<polygon fill="white" stroke="transparent" points="-4,4 -4,-214 4173.03,-214 4173.03,4 -4,4"/>
<!-- dra.func_8010DBFC -->
<g id="node1" class="node">
<title>dra.func_8010DBFC</title>
<ellipse fill="red" stroke="black" cx="2203.44" cy="-105" rx="104.78" ry="18"/>
<text text-anchor="middle" x="2203.44" y="-101.3" font-family="Times,serif" font-size="14.00">dra.func_8010DBFC</text>
</g>
<!-- dra.func_8010DA70 -->
<g id="node2" class="node">
<title>dra.func_8010DA70</title>
<g id="a_node2"><a xlink:href="dra.func_8010DA70.svg" xlink:title="dra.func_8010DA70">
<ellipse fill="red" stroke="black" cx="2203.44" cy="-18" rx="102.88" ry="18"/>
<text text-anchor="middle" x="2203.44" y="-14.3" font-family="Times,serif" font-size="14.00">dra.func_8010DA70</text>
</a>
</g>
</g>
<!-- dra.func_8010DBFC&#45;&gt;dra.func_8010DA70 -->
<g id="edge1" class="edge">
<title>dra.func_8010DBFC&#45;&gt;dra.func_8010DA70</title>
<path fill="none" stroke="black" d="M2203.44,-86.8C2203.44,-75.16 2203.44,-59.55 2203.44,-46.24"/>
<polygon fill="black" stroke="black" points="2206.94,-46.18 2203.44,-36.18 2199.94,-46.18 2206.94,-46.18"/>
<text text-anchor="middle" x="2208.44" y="-57.8" font-family="Times,serif" font-size="14.00">4</text>
</g>
<!-- w_011.EntityWeaponAttack -->
<g id="node3" class="node">
<title>w_011.EntityWeaponAttack</title>
<g id="a_node3"><a xlink:href="w_011.EntityWeaponAttack.svg" xlink:title="w_011.EntityWeaponAttack">
<ellipse fill="red" stroke="black" cx="138.44" cy="-192" rx="138.38" ry="18"/>
<text text-anchor="middle" x="138.44" y="-188.3" font-family="Times,serif" font-size="14.00">w_011.EntityWeaponAttack</text>
</a>
</g>
</g>
<!-- w_011.EntityWeaponAttack&#45;&gt;dra.func_8010DBFC -->
<g id="edge2" class="edge">
<title>w_011.EntityWeaponAttack&#45;&gt;dra.func_8010DBFC</title>
<path fill="none" stroke="black" d="M235.49,-179.09C252.45,-177.23 269.95,-175.44 286.44,-174 528.62,-152.79 589.55,-151.44 832.44,-141 1298.3,-120.98 1853.73,-111.11 2089.06,-107.57"/>
<polygon fill="black" stroke="black" points="2089.39,-111.07 2099.34,-107.42 2089.29,-104.07 2089.39,-111.07"/>
<text text-anchor="middle" x="837.44" y="-144.8" font-family="Times,serif" font-size="14.00">1</text>
</g>
<!-- w_023.EntityWeaponAttack -->
<g id="node4" class="node">
<title>w_023.EntityWeaponAttack</title>
<g id="a_node4"><a xlink:href="w_023.EntityWeaponAttack.svg" xlink:title="w_023.EntityWeaponAttack">
<ellipse fill="red" stroke="black" cx="433.44" cy="-192" rx="138.38" ry="18"/>
<text text-anchor="middle" x="433.44" y="-188.3" font-family="Times,serif" font-size="14.00">w_023.EntityWeaponAttack</text>
</a>
</g>
</g>
<!-- w_023.EntityWeaponAttack&#45;&gt;dra.func_8010DBFC -->
<g id="edge3" class="edge">
<title>w_023.EntityWeaponAttack&#45;&gt;dra.func_8010DBFC</title>
<path fill="none" stroke="black" d="M530.49,-179.11C547.45,-177.24 564.95,-175.45 581.44,-174 1145.87,-124.21 1824.1,-110.69 2089.3,-107.17"/>
<polygon fill="black" stroke="black" points="2089.38,-110.67 2099.33,-107.04 2089.28,-103.67 2089.38,-110.67"/>
<text text-anchor="middle" x="1031.44" y="-144.8" font-family="Times,serif" font-size="14.00">1</text>
</g>
<!-- w_052.EntityWeaponAttack -->
<g id="node5" class="node">
<title>w_052.EntityWeaponAttack</title>
<g id="a_node5"><a xlink:href="w_052.EntityWeaponAttack.svg" xlink:title="w_052.EntityWeaponAttack">
<ellipse fill="red" stroke="black" cx="728.44" cy="-192" rx="138.38" ry="18"/>
<text text-anchor="middle" x="728.44" y="-188.3" font-family="Times,serif" font-size="14.00">w_052.EntityWeaponAttack</text>
</a>
</g>
</g>
<!-- w_052.EntityWeaponAttack&#45;&gt;dra.func_8010DBFC -->
<g id="edge4" class="edge">
<title>w_052.EntityWeaponAttack&#45;&gt;dra.func_8010DBFC</title>
<path fill="none" stroke="black" d="M825.49,-179.16C842.46,-177.29 859.95,-175.48 876.44,-174 1325.26,-133.64 1861.8,-115.28 2090.84,-108.85"/>
<polygon fill="black" stroke="black" points="2090.96,-112.34 2100.85,-108.57 2090.76,-105.35 2090.96,-112.34"/>
<text text-anchor="middle" x="1319.44" y="-144.8" font-family="Times,serif" font-size="14.00">1</text>
</g>
<!-- w_027.EntityWeaponAttack -->
<g id="node6" class="node">
<title>w_027.EntityWeaponAttack</title>
<g id="a_node6"><a xlink:href="w_027.EntityWeaponAttack.svg" xlink:title="w_027.EntityWeaponAttack">
<ellipse fill="red" stroke="black" cx="1023.44" cy="-192" rx="138.38" ry="18"/>
<text text-anchor="middle" x="1023.44" y="-188.3" font-family="Times,serif" font-size="14.00">w_027.EntityWeaponAttack</text>
</a>
</g>
</g>
<!-- w_027.EntityWeaponAttack&#45;&gt;dra.func_8010DBFC -->
<g id="edge5" class="edge">
<title>w_027.EntityWeaponAttack&#45;&gt;dra.func_8010DBFC</title>
<path fill="none" stroke="black" d="M1120.9,-179.2C1137.74,-177.33 1155.09,-175.52 1171.44,-174 1506.96,-142.79 1905.17,-120.79 2093.83,-111.28"/>
<polygon fill="black" stroke="black" points="2094.22,-114.76 2104.03,-110.76 2093.87,-107.77 2094.22,-114.76"/>
<text text-anchor="middle" x="1573.44" y="-144.8" font-family="Times,serif" font-size="14.00">1</text>
</g>
<!-- w_008.EntityWeaponAttack -->
<g id="node7" class="node">
<title>w_008.EntityWeaponAttack</title>
<g id="a_node7"><a xlink:href="w_008.EntityWeaponAttack.svg" xlink:title="w_008.EntityWeaponAttack">
<ellipse fill="red" stroke="black" cx="1318.44" cy="-192" rx="138.38" ry="18"/>
<text text-anchor="middle" x="1318.44" y="-188.3" font-family="Times,serif" font-size="14.00">w_008.EntityWeaponAttack</text>
</a>
</g>
</g>
<!-- w_008.EntityWeaponAttack&#45;&gt;dra.func_8010DBFC -->
<g id="edge6" class="edge">
<title>w_008.EntityWeaponAttack&#45;&gt;dra.func_8010DBFC</title>
<path fill="none" stroke="black" d="M1417.12,-179.35C1433.58,-177.5 1450.49,-175.65 1466.44,-174 1693.29,-150.51 1959.85,-126.9 2102.01,-114.64"/>
<polygon fill="black" stroke="black" points="2102.37,-118.12 2112.03,-113.77 2101.77,-111.14 2102.37,-118.12"/>
<text text-anchor="middle" x="1795.44" y="-144.8" font-family="Times,serif" font-size="14.00">1</text>
</g>
<!-- w_058.EntityWeaponAttack -->
<g id="node8" class="node">
<title>w_058.EntityWeaponAttack</title>
<g id="a_node8"><a xlink:href="w_058.EntityWeaponAttack.svg" xlink:title="w_058.EntityWeaponAttack">
<ellipse fill="red" stroke="black" cx="1613.44" cy="-192" rx="138.38" ry="18"/>
<text text-anchor="middle" x="1613.44" y="-188.3" font-family="Times,serif" font-size="14.00">w_058.EntityWeaponAttack</text>
</a>
</g>
</g>
<!-- w_058.EntityWeaponAttack&#45;&gt;dra.func_8010DBFC -->
<g id="edge7" class="edge">
<title>w_058.EntityWeaponAttack&#45;&gt;dra.func_8010DBFC</title>
<path fill="none" stroke="black" d="M1702.41,-178.18C1814.16,-162.08 2004.72,-134.63 2115.83,-118.62"/>
<polygon fill="black" stroke="black" points="2116.6,-122.05 2126,-117.16 2115.6,-115.12 2116.6,-122.05"/>
<text text-anchor="middle" x="1949.44" y="-144.8" font-family="Times,serif" font-size="14.00">1</text>
</g>
<!-- w_028.EntityWeaponAttack -->
<g id="node9" class="node">
<title>w_028.EntityWeaponAttack</title>
<g id="a_node9"><a xlink:href="w_028.EntityWeaponAttack.svg" xlink:title="w_028.EntityWeaponAttack">
<ellipse fill="red" stroke="black" cx="1908.44" cy="-192" rx="138.38" ry="18"/>
<text text-anchor="middle" x="1908.44" y="-188.3" font-family="Times,serif" font-size="14.00">w_028.EntityWeaponAttack</text>
</a>
</g>
</g>
<!-- w_028.EntityWeaponAttack&#45;&gt;dra.func_8010DBFC -->
<g id="edge8" class="edge">
<title>w_028.EntityWeaponAttack&#45;&gt;dra.func_8010DBFC</title>
<path fill="none" stroke="black" d="M1962.55,-175.41C2013.44,-160.75 2089.53,-138.82 2142.53,-123.55"/>
<polygon fill="black" stroke="black" points="2143.5,-126.91 2152.14,-120.78 2141.56,-120.19 2143.5,-126.91"/>
<text text-anchor="middle" x="2079.44" y="-144.8" font-family="Times,serif" font-size="14.00">1</text>
</g>
<!-- w_024.EntityWeaponAttack -->
<g id="node10" class="node">
<title>w_024.EntityWeaponAttack</title>
<g id="a_node10"><a xlink:href="w_024.EntityWeaponAttack.svg" xlink:title="w_024.EntityWeaponAttack">
<ellipse fill="red" stroke="black" cx="2203.44" cy="-192" rx="138.38" ry="18"/>
<text text-anchor="middle" x="2203.44" y="-188.3" font-family="Times,serif" font-size="14.00">w_024.EntityWeaponAttack</text>
</a>
</g>
</g>
<!-- w_024.EntityWeaponAttack&#45;&gt;dra.func_8010DBFC -->
<g id="edge9" class="edge">
<title>w_024.EntityWeaponAttack&#45;&gt;dra.func_8010DBFC</title>
<path fill="none" stroke="black" d="M2203.44,-173.8C2203.44,-162.16 2203.44,-146.55 2203.44,-133.24"/>
<polygon fill="black" stroke="black" points="2206.94,-133.18 2203.44,-123.18 2199.94,-133.18 2206.94,-133.18"/>
<text text-anchor="middle" x="2208.44" y="-144.8" font-family="Times,serif" font-size="14.00">1</text>
</g>
<!-- w_010.EntityWeaponAttack -->
<g id="node11" class="node">
<title>w_010.EntityWeaponAttack</title>
<g id="a_node11"><a xlink:href="w_010.EntityWeaponAttack.svg" xlink:title="w_010.EntityWeaponAttack">
<ellipse fill="red" stroke="black" cx="2498.44" cy="-192" rx="138.38" ry="18"/>
<text text-anchor="middle" x="2498.44" y="-188.3" font-family="Times,serif" font-size="14.00">w_010.EntityWeaponAttack</text>
</a>
</g>
</g>
<!-- w_010.EntityWeaponAttack&#45;&gt;dra.func_8010DBFC -->
<g id="edge10" class="edge">
<title>w_010.EntityWeaponAttack&#45;&gt;dra.func_8010DBFC</title>
<path fill="none" stroke="black" d="M2444.33,-175.41C2393.44,-160.75 2317.35,-138.82 2264.35,-123.55"/>
<polygon fill="black" stroke="black" points="2265.31,-120.19 2254.73,-120.78 2263.37,-126.91 2265.31,-120.19"/>
<text text-anchor="middle" x="2374.44" y="-144.8" font-family="Times,serif" font-size="14.00">1</text>
</g>
<!-- w_026.EntityWeaponAttack -->
<g id="node12" class="node">
<title>w_026.EntityWeaponAttack</title>
<g id="a_node12"><a xlink:href="w_026.EntityWeaponAttack.svg" xlink:title="w_026.EntityWeaponAttack">
<ellipse fill="red" stroke="black" cx="2793.44" cy="-192" rx="138.38" ry="18"/>
<text text-anchor="middle" x="2793.44" y="-188.3" font-family="Times,serif" font-size="14.00">w_026.EntityWeaponAttack</text>
</a>
</g>
</g>
<!-- w_026.EntityWeaponAttack&#45;&gt;dra.func_8010DBFC -->
<g id="edge11" class="edge">
<title>w_026.EntityWeaponAttack&#45;&gt;dra.func_8010DBFC</title>
<path fill="none" stroke="black" d="M2704.47,-178.18C2592.71,-162.08 2402.16,-134.63 2291.04,-118.62"/>
<polygon fill="black" stroke="black" points="2291.27,-115.12 2280.88,-117.16 2290.27,-122.05 2291.27,-115.12"/>
<text text-anchor="middle" x="2539.44" y="-144.8" font-family="Times,serif" font-size="14.00">1</text>
</g>
<!-- w_025.EntityWeaponAttack -->
<g id="node13" class="node">
<title>w_025.EntityWeaponAttack</title>
<g id="a_node13"><a xlink:href="w_025.EntityWeaponAttack.svg" xlink:title="w_025.EntityWeaponAttack">
<ellipse fill="red" stroke="black" cx="3088.44" cy="-192" rx="138.38" ry="18"/>
<text text-anchor="middle" x="3088.44" y="-188.3" font-family="Times,serif" font-size="14.00">w_025.EntityWeaponAttack</text>
</a>
</g>
</g>
<!-- w_025.EntityWeaponAttack&#45;&gt;dra.func_8010DBFC -->
<g id="edge12" class="edge">
<title>w_025.EntityWeaponAttack&#45;&gt;dra.func_8010DBFC</title>
<path fill="none" stroke="black" d="M2989.75,-179.35C2973.29,-177.5 2956.39,-175.65 2940.44,-174 2713.58,-150.51 2447.02,-126.9 2304.86,-114.64"/>
<polygon fill="black" stroke="black" points="2305.11,-111.14 2294.84,-113.77 2304.51,-118.12 2305.11,-111.14"/>
<text text-anchor="middle" x="2764.44" y="-144.8" font-family="Times,serif" font-size="14.00">1</text>
</g>
<!-- w_009.EntityWeaponAttack -->
<g id="node14" class="node">
<title>w_009.EntityWeaponAttack</title>
<g id="a_node14"><a xlink:href="w_009.EntityWeaponAttack.svg" xlink:title="w_009.EntityWeaponAttack">
<ellipse fill="red" stroke="black" cx="3383.44" cy="-192" rx="138.38" ry="18"/>
<text text-anchor="middle" x="3383.44" y="-188.3" font-family="Times,serif" font-size="14.00">w_009.EntityWeaponAttack</text>
</a>
</g>
</g>
<!-- w_009.EntityWeaponAttack&#45;&gt;dra.func_8010DBFC -->
<g id="edge13" class="edge">
<title>w_009.EntityWeaponAttack&#45;&gt;dra.func_8010DBFC</title>
<path fill="none" stroke="black" d="M3285.98,-179.2C3269.14,-177.34 3251.79,-175.52 3235.44,-174 2899.91,-142.76 2501.71,-120.78 2313.04,-111.27"/>
<polygon fill="black" stroke="black" points="2313,-107.76 2302.84,-110.76 2312.65,-114.76 2313,-107.76"/>
<text text-anchor="middle" x="3015.44" y="-144.8" font-family="Times,serif" font-size="14.00">1</text>
</g>
<!-- dra.func_8010DF70 -->
<g id="node15" class="node">
<title>dra.func_8010DF70</title>
<g id="a_node15"><a xlink:href="dra.func_8010DF70.svg" xlink:title="dra.func_8010DF70">
<ellipse fill="green" stroke="black" cx="3642.44" cy="-192" rx="102.88" ry="18"/>
<text text-anchor="middle" x="3642.44" y="-188.3" font-family="Times,serif" font-size="14.00">dra.func_8010DF70</text>
</a>
</g>
</g>
<!-- dra.func_8010DF70&#45;&gt;dra.func_8010DBFC -->
<g id="edge14" class="edge">
<title>dra.func_8010DF70&#45;&gt;dra.func_8010DBFC</title>
<path fill="none" stroke="black" d="M3570.26,-179.12C3557.04,-177.2 3543.34,-175.4 3530.44,-174 3083.27,-125.57 2547.49,-111.47 2317.47,-107.49"/>
<polygon fill="black" stroke="black" points="2317.47,-103.99 2307.42,-107.32 2317.36,-110.99 2317.47,-103.99"/>
<text text-anchor="middle" x="3319.44" y="-144.8" font-family="Times,serif" font-size="14.00">1</text>
</g>
<!-- dra.func_8010A234 -->
<g id="node16" class="node">
<title>dra.func_8010A234</title>
<g id="a_node16"><a xlink:href="dra.func_8010A234.svg" xlink:title="dra.func_8010A234">
<ellipse fill="red" stroke="black" cx="3863.44" cy="-192" rx="100.98" ry="18"/>
<text text-anchor="middle" x="3863.44" y="-188.3" font-family="Times,serif" font-size="14.00">dra.func_8010A234</text>
</a>
</g>
</g>
<!-- dra.func_8010A234&#45;&gt;dra.func_8010DBFC -->
<g id="edge15" class="edge">
<title>dra.func_8010A234&#45;&gt;dra.func_8010DBFC</title>
<path fill="none" stroke="black" d="M3792.6,-179.14C3779.92,-177.25 3766.8,-175.44 3754.44,-174 3565.81,-152.02 3518.06,-151.29 3328.44,-141 2958.83,-120.95 2520.24,-111.41 2317.12,-107.8"/>
<polygon fill="black" stroke="black" points="2317.1,-104.3 2307.04,-107.62 2316.97,-111.3 2317.1,-104.3"/>
<text text-anchor="middle" x="3583.44" y="-144.8" font-family="Times,serif" font-size="14.00">1</text>
</g>
<!-- dra.EntityAlucard -->
<g id="node17" class="node">
<title>dra.EntityAlucard</title>
<g id="a_node17"><a xlink:href="dra.EntityAlucard.svg" xlink:title="dra.EntityAlucard">
<ellipse fill="red" stroke="black" cx="4075.44" cy="-192" rx="93.68" ry="18"/>
<text text-anchor="middle" x="4075.44" y="-188.3" font-family="Times,serif" font-size="14.00">dra.EntityAlucard</text>
</a>
</g>
</g>
<!-- dra.EntityAlucard&#45;&gt;dra.func_8010DBFC -->
<g id="edge16" class="edge">
<title>dra.EntityAlucard&#45;&gt;dra.func_8010DBFC</title>
<path fill="none" stroke="black" d="M4009.43,-179.22C3997.48,-177.31 3985.1,-175.48 3973.44,-174 3804.81,-152.68 3762.14,-150.48 3592.44,-141 3119.94,-114.61 2555.91,-108.11 2318.12,-106.52"/>
<polygon fill="black" stroke="black" points="2318.1,-103.02 2308.07,-106.45 2318.05,-110.02 2318.1,-103.02"/>
<text text-anchor="middle" x="3819.44" y="-144.8" font-family="Times,serif" font-size="14.00">1</text>
</g>
</g>
</svg>
