<?xml version="1.0" encoding="UTF-8" standalone="no"?>
<!DOCTYPE svg PUBLIC "-//W3C//DTD SVG 1.1//EN"
 "http://www.w3.org/Graphics/SVG/1.1/DTD/svg11.dtd">
<!-- Generated by graphviz version 2.43.0 (0)
 -->
<!-- Title: dra.func_800F53A4 Pages: 1 -->
<svg width="1571pt" height="404pt"
 viewBox="0.00 0.00 1570.78 404.00" xmlns="http://www.w3.org/2000/svg" xmlns:xlink="http://www.w3.org/1999/xlink">
<g id="graph0" class="graph" transform="scale(1 1) rotate(0) translate(4 400)">
<title>dra.func_800F53A4</title>
<polygon fill="white" stroke="transparent" points="-4,4 -4,-400 1566.78,-400 1566.78,4 -4,4"/>
<!-- dra.func_800F53A4 -->
<g id="node1" class="node">
<title>dra.func_800F53A4</title>
<ellipse fill="green" stroke="black" cx="779.79" cy="-198" rx="101.28" ry="18"/>
<text text-anchor="middle" x="779.79" y="-194.3" font-family="Times,serif" font-size="14.00">dra.func_800F53A4</text>
</g>
<!-- dra.CalcDefense -->
<g id="node2" class="node">
<title>dra.CalcDefense</title>
<g id="a_node2"><a xlink:href="dra.CalcDefense.svg" xlink:title="dra.CalcDefense">
<ellipse fill="green" stroke="black" cx="573.79" cy="-18" rx="87.18" ry="18"/>
<text text-anchor="middle" x="573.79" y="-14.3" font-family="Times,serif" font-size="14.00">dra.CalcDefense</text>
</a>
</g>
</g>
<!-- dra.func_800F53A4&#45;&gt;dra.CalcDefense -->
<g id="edge1" class="edge">
<title>dra.func_800F53A4&#45;&gt;dra.CalcDefense</title>
<path fill="none" stroke="black" d="M760.41,-180.25C723.43,-148.3 642.74,-78.58 600.61,-42.18"/>
<polygon fill="black" stroke="black" points="602.82,-39.46 592.97,-35.57 598.25,-44.76 602.82,-39.46"/>
<text text-anchor="middle" x="587.97" y="-39.37" font-family="Times,serif" font-size="14.00">1</text>
</g>
<!-- dra.func_800F4994 -->
<g id="node3" class="node">
<title>dra.func_800F4994</title>
<g id="a_node3"><a xlink:href="dra.func_800F4994.svg" xlink:title="dra.func_800F4994">
<ellipse fill="green" stroke="black" cx="779.79" cy="-18" rx="100.98" ry="18"/>
<text text-anchor="middle" x="779.79" y="-14.3" font-family="Times,serif" font-size="14.00">dra.func_800F4994</text>
</a>
</g>
</g>
<!-- dra.func_800F53A4&#45;&gt;dra.func_800F4994 -->
<g id="edge2" class="edge">
<title>dra.func_800F53A4&#45;&gt;dra.func_800F4994</title>
<path fill="none" stroke="black" d="M779.79,-179.93C779.79,-148.97 779.79,-83.3 779.79,-46.13"/>
<polygon fill="black" stroke="black" points="783.29,-46.02 779.79,-36.02 776.29,-46.02 783.29,-46.02"/>
<text text-anchor="middle" x="774.79" y="-39.82" font-family="Times,serif" font-size="14.00">1</text>
</g>
<!-- dra.func_800F4F48 -->
<g id="node4" class="node">
<title>dra.func_800F4F48</title>
<g id="a_node4"><a xlink:href="dra.func_800F4F48.svg" xlink:title="dra.func_800F4F48">
<ellipse fill="green" stroke="black" cx="999.79" cy="-18" rx="101.28" ry="18"/>
<text text-anchor="middle" x="999.79" y="-14.3" font-family="Times,serif" font-size="14.00">dra.func_800F4F48</text>
</a>
</g>
</g>
<!-- dra.func_800F53A4&#45;&gt;dra.func_800F4F48 -->
<g id="edge3" class="edge">
<title>dra.func_800F53A4&#45;&gt;dra.func_800F4F48</title>
<path fill="none" stroke="black" d="M800.49,-180.25C839.96,-148.32 926.07,-78.65 971.08,-42.23"/>
<polygon fill="black" stroke="black" points="973.42,-44.84 978.99,-35.83 969.01,-39.4 973.42,-44.84"/>
<text text-anchor="middle" x="973.99" y="-39.63" font-family="Times,serif" font-size="14.00">1</text>
</g>
<!-- dra.DemoGameInit -->
<g id="node5" class="node">
<title>dra.DemoGameInit</title>
<g id="a_node5"><a xlink:href="dra.DemoGameInit.svg" xlink:title="dra.DemoGameInit">
<ellipse fill="green" stroke="black" cx="98.79" cy="-378" rx="98.58" ry="18"/>
<text text-anchor="middle" x="98.79" y="-374.3" font-family="Times,serif" font-size="14.00">dra.DemoGameInit</text>
</a>
</g>
</g>
<!-- dra.DemoGameInit&#45;&gt;dra.func_800F53A4 -->
<g id="edge4" class="edge">
<title>dra.DemoGameInit&#45;&gt;dra.func_800F53A4</title>
<path fill="none" stroke="black" d="M152.8,-362.88C276.94,-330.43 582.19,-250.65 715.62,-215.77"/>
<polygon fill="black" stroke="black" points="716.52,-219.16 725.31,-213.24 714.75,-212.38 716.52,-219.16"/>
<text text-anchor="middle" x="147.8" y="-351.68" font-family="Times,serif" font-size="14.00">1</text>
</g>
<!-- dra.DrawPauseMenu -->
<g id="node6" class="node">
<title>dra.DrawPauseMenu</title>
<g id="a_node6"><a xlink:href="dra.DrawPauseMenu.svg" xlink:title="dra.DrawPauseMenu">
<ellipse fill="green" stroke="black" cx="323.79" cy="-378" rx="107.78" ry="18"/>
<text text-anchor="middle" x="323.79" y="-374.3" font-family="Times,serif" font-size="14.00">dra.DrawPauseMenu</text>
</a>
</g>
</g>
<!-- dra.DrawPauseMenu&#45;&gt;dra.func_800F53A4 -->
<g id="edge5" class="edge">
<title>dra.DrawPauseMenu&#45;&gt;dra.func_800F53A4</title>
<path fill="none" stroke="black" d="M364.26,-361.2C447.85,-328.57 639.37,-253.81 730.22,-218.35"/>
<polygon fill="black" stroke="black" points="731.7,-221.53 739.74,-214.63 729.15,-215.01 731.7,-221.53"/>
<text text-anchor="middle" x="359.26" y="-350" font-family="Times,serif" font-size="14.00">1</text>
</g>
<!-- dra.HandleDamage -->
<g id="node7" class="node">
<title>dra.HandleDamage</title>
<g id="a_node7"><a xlink:href="dra.HandleDamage.svg" xlink:title="dra.HandleDamage">
<ellipse fill="green" stroke="black" cx="550.79" cy="-378" rx="100.98" ry="18"/>
<text text-anchor="middle" x="550.79" y="-374.3" font-family="Times,serif" font-size="14.00">dra.HandleDamage</text>
</a>
</g>
</g>
<!-- dra.HandleDamage&#45;&gt;dra.func_800F53A4 -->
<g id="edge6" class="edge">
<title>dra.HandleDamage&#45;&gt;dra.func_800F53A4</title>
<path fill="none" stroke="black" d="M572.33,-360.25C613.51,-328.25 703.43,-258.36 750.2,-222"/>
<polygon fill="black" stroke="black" points="752.39,-224.73 758.14,-215.83 748.09,-219.2 752.39,-224.73"/>
<text text-anchor="middle" x="567.33" y="-349.05" font-family="Times,serif" font-size="14.00">1</text>
</g>
<!-- dra.InitStatsAndGear -->
<g id="node8" class="node">
<title>dra.InitStatsAndGear</title>
<g id="a_node8"><a xlink:href="dra.InitStatsAndGear.svg" xlink:title="dra.InitStatsAndGear">
<ellipse fill="green" stroke="black" cx="779.79" cy="-378" rx="110.48" ry="18"/>
<text text-anchor="middle" x="779.79" y="-374.3" font-family="Times,serif" font-size="14.00">dra.InitStatsAndGear</text>
</a>
</g>
</g>
<!-- dra.InitStatsAndGear&#45;&gt;dra.func_800F53A4 -->
<g id="edge7" class="edge">
<title>dra.InitStatsAndGear&#45;&gt;dra.func_800F53A4</title>
<path fill="none" stroke="black" d="M779.79,-359.93C779.79,-328.97 779.79,-263.3 779.79,-226.13"/>
<polygon fill="black" stroke="black" points="783.29,-226.02 779.79,-216.02 776.29,-226.02 783.29,-226.02"/>
<text text-anchor="middle" x="774.79" y="-348.73" font-family="Times,serif" font-size="14.00">2</text>
</g>
<!-- dra.func_800FB23C -->
<g id="node9" class="node">
<title>dra.func_800FB23C</title>
<g id="a_node9"><a xlink:href="dra.func_800FB23C.svg" xlink:title="dra.func_800FB23C">
<ellipse fill="red" stroke="black" cx="1010.79" cy="-378" rx="102.88" ry="18"/>
<text text-anchor="middle" x="1010.79" y="-374.3" font-family="Times,serif" font-size="14.00">dra.func_800FB23C</text>
</a>
</g>
</g>
<!-- dra.func_800FB23C&#45;&gt;dra.func_800F53A4 -->
<g id="edge8" class="edge">
<title>dra.func_800FB23C&#45;&gt;dra.func_800F53A4</title>
<path fill="none" stroke="black" d="M989.06,-360.25C947.53,-328.25 856.82,-258.36 809.64,-222"/>
<polygon fill="black" stroke="black" points="811.69,-219.16 801.63,-215.83 807.42,-224.71 811.69,-219.16"/>
<text text-anchor="middle" x="984.06" y="-349.05" font-family="Times,serif" font-size="14.00">2</text>
</g>
<!-- dra.func_800FBC24 -->
<g id="node10" class="node">
<title>dra.func_800FBC24</title>
<g id="a_node10"><a xlink:href="dra.func_800FBC24.svg" xlink:title="dra.func_800FBC24">
<ellipse fill="red" stroke="black" cx="1233.79" cy="-378" rx="102.88" ry="18"/>
<text text-anchor="middle" x="1233.79" y="-374.3" font-family="Times,serif" font-size="14.00">dra.func_800FBC24</text>
</a>
</g>
</g>
<!-- dra.func_800FBC24&#45;&gt;dra.func_800F53A4 -->
<g id="edge9" class="edge">
<title>dra.func_800FBC24&#45;&gt;dra.func_800F53A4</title>
<path fill="none" stroke="black" d="M1193.9,-361.36C1110.91,-328.82 919.89,-253.93 829.25,-218.39"/>
<polygon fill="black" stroke="black" points="830.34,-215.06 819.75,-214.67 827.79,-221.58 830.34,-215.06"/>
<text text-anchor="middle" x="1188.9" y="-350.16" font-family="Times,serif" font-size="14.00">1</text>
</g>
<!-- dra.func_800FDD44 -->
<g id="node11" class="node">
<title>dra.func_800FDD44</title>
<g id="a_node11"><a xlink:href="dra.func_800FDD44.svg" xlink:title="dra.func_800FDD44">
<ellipse fill="green" stroke="black" cx="1458.79" cy="-378" rx="103.98" ry="18"/>
<text text-anchor="middle" x="1458.79" y="-374.3" font-family="Times,serif" font-size="14.00">dra.func_800FDD44</text>
</a>
</g>
</g>
<!-- dra.func_800FDD44&#45;&gt;dra.func_800F53A4 -->
<g id="edge10" class="edge">
<title>dra.func_800FDD44&#45;&gt;dra.func_800F53A4</title>
<path fill="none" stroke="black" d="M1404.09,-362.66C1279.98,-330.12 977.54,-250.84 844.46,-215.95"/>
<polygon fill="black" stroke="black" points="844.97,-212.47 834.41,-213.32 843.19,-219.24 844.97,-212.47"/>
<text text-anchor="middle" x="1399.09" y="-351.46" font-family="Times,serif" font-size="14.00">1</text>
</g>
</g>
</svg>
