<?xml version="1.0" encoding="UTF-8" standalone="no"?>
<!DOCTYPE svg PUBLIC "-//W3C//DTD SVG 1.1//EN"
 "http://www.w3.org/Graphics/SVG/1.1/DTD/svg11.dtd">
<!-- Generated by graphviz version 2.43.0 (0)
 -->
<!-- Title: dra.func_800F9808 Pages: 1 -->
<svg width="656pt" height="404pt"
 viewBox="0.00 0.00 656.08 404.00" xmlns="http://www.w3.org/2000/svg" xmlns:xlink="http://www.w3.org/1999/xlink">
<g id="graph0" class="graph" transform="scale(1 1) rotate(0) translate(4 400)">
<title>dra.func_800F9808</title>
<polygon fill="white" stroke="transparent" points="-4,4 -4,-400 652.08,-400 652.08,4 -4,4"/>
<!-- dra.func_800F9808 -->
<g id="node1" class="node">
<title>dra.func_800F9808</title>
<ellipse fill="green" stroke="black" cx="325.69" cy="-198" rx="100.98" ry="18"/>
<text text-anchor="middle" x="325.69" y="-194.3" font-family="Times,serif" font-size="14.00">dra.func_800F9808</text>
</g>
<!-- dra.func_800F548C -->
<g id="node2" class="node">
<title>dra.func_800F548C</title>
<g id="a_node2"><a xlink:href="dra.func_800F548C.svg" xlink:title="dra.func_800F548C">
<ellipse fill="green" stroke="black" cx="234.69" cy="-18" rx="102.08" ry="18"/>
<text text-anchor="middle" x="234.69" y="-14.3" font-family="Times,serif" font-size="14.00">dra.func_800F548C</text>
</a>
</g>
</g>
<!-- dra.func_800F9808&#45;&gt;dra.func_800F548C -->
<g id="edge1" class="edge">
<title>dra.func_800F9808&#45;&gt;dra.func_800F548C</title>
<path fill="none" stroke="black" d="M316.97,-179.93C301,-148.7 266.99,-82.17 248.07,-45.18"/>
<polygon fill="black" stroke="black" points="251.06,-43.33 243.39,-36.02 244.83,-46.51 251.06,-43.33"/>
<text text-anchor="middle" x="238.39" y="-39.82" font-family="Times,serif" font-size="14.00">1</text>
</g>
<!-- LoadTPage -->
<g id="node3" class="node">
<title>LoadTPage</title>
<g id="a_node3"><a xlink:href="LoadTPage.svg" xlink:title="LoadTPage">
<ellipse fill="lightblue" stroke="black" cx="416.69" cy="-18" rx="61.99" ry="18"/>
<text text-anchor="middle" x="416.69" y="-14.3" font-family="Times,serif" font-size="14.00">LoadTPage</text>
</a>
</g>
</g>
<!-- dra.func_800F9808&#45;&gt;LoadTPage -->
<g id="edge2" class="edge">
<title>dra.func_800F9808&#45;&gt;LoadTPage</title>
<path fill="none" stroke="black" d="M334.42,-179.93C350.38,-148.7 384.4,-82.17 403.31,-45.18"/>
<polygon fill="black" stroke="black" points="406.56,-46.51 407.99,-36.02 400.32,-43.33 406.56,-46.51"/>
<text text-anchor="middle" x="402.99" y="-39.82" font-family="Times,serif" font-size="14.00">1</text>
</g>
<!-- dra.func_800FBC24 -->
<g id="node4" class="node">
<title>dra.func_800FBC24</title>
<g id="a_node4"><a xlink:href="dra.func_800FBC24.svg" xlink:title="dra.func_800FBC24">
<ellipse fill="red" stroke="black" cx="102.69" cy="-378" rx="102.88" ry="18"/>
<text text-anchor="middle" x="102.69" y="-374.3" font-family="Times,serif" font-size="14.00">dra.func_800FBC24</text>
</a>
</g>
</g>
<!-- dra.func_800FBC24&#45;&gt;dra.func_800F9808 -->
<g id="edge3" class="edge">
<title>dra.func_800FBC24&#45;&gt;dra.func_800F9808</title>
<path fill="none" stroke="black" d="M123.67,-360.25C163.68,-328.32 250.97,-258.65 296.59,-222.23"/>
<polygon fill="black" stroke="black" points="298.97,-224.8 304.6,-215.83 294.61,-219.33 298.97,-224.8"/>
<text text-anchor="middle" x="118.67" y="-349.05" font-family="Times,serif" font-size="14.00">8</text>
</g>
<!-- dra.func_800FAD34 -->
<g id="node5" class="node">
<title>dra.func_800FAD34</title>
<g id="a_node5"><a xlink:href="dra.func_800FAD34.svg" xlink:title="dra.func_800FAD34">
<ellipse fill="green" stroke="black" cx="325.69" cy="-378" rx="102.08" ry="18"/>
<text text-anchor="middle" x="325.69" y="-374.3" font-family="Times,serif" font-size="14.00">dra.func_800FAD34</text>
</a>
</g>
</g>
<!-- dra.func_800FAD34&#45;&gt;dra.func_800F9808 -->
<g id="edge4" class="edge">
<title>dra.func_800FAD34&#45;&gt;dra.func_800F9808</title>
<path fill="none" stroke="black" d="M325.69,-359.93C325.69,-328.97 325.69,-263.3 325.69,-226.13"/>
<polygon fill="black" stroke="black" points="329.19,-226.02 325.69,-216.02 322.19,-226.02 329.19,-226.02"/>
<text text-anchor="middle" x="320.69" y="-348.73" font-family="Times,serif" font-size="14.00">1</text>
</g>
<!-- dra.func_800FAC98 -->
<g id="node6" class="node">
<title>dra.func_800FAC98</title>
<g id="a_node6"><a xlink:href="dra.func_800FAC98.svg" xlink:title="dra.func_800FAC98">
<ellipse fill="green" stroke="black" cx="546.69" cy="-378" rx="101.28" ry="18"/>
<text text-anchor="middle" x="546.69" y="-374.3" font-family="Times,serif" font-size="14.00">dra.func_800FAC98</text>
</a>
</g>
</g>
<!-- dra.func_800FAC98&#45;&gt;dra.func_800F9808 -->
<g id="edge5" class="edge">
<title>dra.func_800FAC98&#45;&gt;dra.func_800F9808</title>
<path fill="none" stroke="black" d="M525.9,-360.25C486.25,-328.32 399.75,-258.65 354.53,-222.23"/>
<polygon fill="black" stroke="black" points="356.57,-219.38 346.59,-215.83 352.18,-224.83 356.57,-219.38"/>
<text text-anchor="middle" x="520.9" y="-349.05" font-family="Times,serif" font-size="14.00">1</text>
</g>
</g>
</svg>
