<?xml version="1.0" encoding="UTF-8" standalone="no"?>
<!DOCTYPE svg PUBLIC "-//W3C//DTD SVG 1.1//EN"
 "http://www.w3.org/Graphics/SVG/1.1/DTD/svg11.dtd">
<!-- Generated by graphviz version 2.43.0 (0)
 -->
<!-- Title: dra.func_800EAF28 Pages: 1 -->
<svg width="877pt" height="224pt"
 viewBox="0.00 0.00 876.78 224.00" xmlns="http://www.w3.org/2000/svg" xmlns:xlink="http://www.w3.org/1999/xlink">
<g id="graph0" class="graph" transform="scale(1 1) rotate(0) translate(4 220)">
<title>dra.func_800EAF28</title>
<polygon fill="white" stroke="transparent" points="-4,4 -4,-220 872.78,-220 872.78,4 -4,4"/>
<!-- dra.func_800EAF28 -->
<g id="node1" class="node">
<title>dra.func_800EAF28</title>
<ellipse fill="green" stroke="black" cx="435.04" cy="-18" rx="102.88" ry="18"/>
<text text-anchor="middle" x="435.04" y="-14.3" font-family="Times,serif" font-size="14.00">dra.func_800EAF28</text>
</g>
<!-- dra.func_800E4A14 -->
<g id="node2" class="node">
<title>dra.func_800E4A14</title>
<g id="a_node2"><a xlink:href="dra.func_800E4A14.svg" xlink:title="dra.func_800E4A14">
<ellipse fill="green" stroke="black" cx="102.04" cy="-198" rx="102.08" ry="18"/>
<text text-anchor="middle" x="102.04" y="-194.3" font-family="Times,serif" font-size="14.00">dra.func_800E4A14</text>
</a>
</g>
</g>
<!-- dra.func_800E4A14&#45;&gt;dra.func_800EAF28 -->
<g id="edge1" class="edge">
<title>dra.func_800E4A14&#45;&gt;dra.func_800EAF28</title>
<path fill="none" stroke="black" d="M132.48,-180.73C192.89,-148.44 327.94,-76.25 395.28,-40.25"/>
<polygon fill="black" stroke="black" points="397.15,-43.22 404.32,-35.42 393.85,-37.05 397.15,-43.22"/>
<text text-anchor="middle" x="127.48" y="-169.53" font-family="Times,serif" font-size="14.00">2</text>
</g>
<!-- dra.func_800F298C -->
<g id="node3" class="node">
<title>dra.func_800F298C</title>
<g id="a_node3"><a xlink:href="dra.func_800F298C.svg" xlink:title="dra.func_800F298C">
<ellipse fill="red" stroke="black" cx="324.04" cy="-198" rx="102.08" ry="18"/>
<text text-anchor="middle" x="324.04" y="-194.3" font-family="Times,serif" font-size="14.00">dra.func_800F298C</text>
</a>
</g>
</g>
<!-- dra.func_800F298C&#45;&gt;dra.func_800EAF28 -->
<g id="edge2" class="edge">
<title>dra.func_800F298C&#45;&gt;dra.func_800EAF28</title>
<path fill="none" stroke="black" d="M334.68,-179.93C354.24,-148.57 396,-81.6 419.01,-44.71"/>
<polygon fill="black" stroke="black" points="422.11,-46.35 424.43,-36.02 416.17,-42.65 422.11,-46.35"/>
<text text-anchor="middle" x="329.68" y="-168.73" font-family="Times,serif" font-size="14.00">7</text>
</g>
<!-- dra.func_800FBC24 -->
<g id="node4" class="node">
<title>dra.func_800FBC24</title>
<g id="a_node4"><a xlink:href="dra.func_800FBC24.svg" xlink:title="dra.func_800FBC24">
<ellipse fill="red" stroke="black" cx="547.04" cy="-198" rx="102.88" ry="18"/>
<text text-anchor="middle" x="547.04" y="-194.3" font-family="Times,serif" font-size="14.00">dra.func_800FBC24</text>
</a>
</g>
</g>
<!-- dra.func_800FBC24&#45;&gt;dra.func_800EAF28 -->
<g id="edge3" class="edge">
<title>dra.func_800FBC24&#45;&gt;dra.func_800EAF28</title>
<path fill="none" stroke="black" d="M536.3,-179.93C516.57,-148.57 474.43,-81.6 451.22,-44.71"/>
<polygon fill="black" stroke="black" points="454.04,-42.62 445.75,-36.02 448.11,-46.34 454.04,-42.62"/>
<text text-anchor="middle" x="531.3" y="-168.73" font-family="Times,serif" font-size="14.00">1</text>
</g>
<!-- sel.func_801B60D4 -->
<g id="node5" class="node">
<title>sel.func_801B60D4</title>
<g id="a_node5"><a xlink:href="sel.func_801B60D4.svg" xlink:title="sel.func_801B60D4">
<ellipse fill="green" stroke="black" cx="768.04" cy="-198" rx="100.98" ry="18"/>
<text text-anchor="middle" x="768.04" y="-194.3" font-family="Times,serif" font-size="14.00">sel.func_801B60D4</text>
</a>
</g>
</g>
<!-- sel.func_801B60D4&#45;&gt;dra.func_800EAF28 -->
<g id="edge4" class="edge">
<title>sel.func_801B60D4&#45;&gt;dra.func_800EAF28</title>
<path fill="none" stroke="black" d="M737.61,-180.73C677.19,-148.44 542.14,-76.25 474.8,-40.25"/>
<polygon fill="black" stroke="black" points="476.24,-37.05 465.77,-35.42 472.94,-43.22 476.24,-37.05"/>
<text text-anchor="middle" x="732.61" y="-169.53" font-family="Times,serif" font-size="14.00">1</text>
</g>
</g>
</svg>
