<?xml version="1.0" encoding="UTF-8" standalone="no"?>
<!DOCTYPE svg PUBLIC "-//W3C//DTD SVG 1.1//EN"
 "http://www.w3.org/Graphics/SVG/1.1/DTD/svg11.dtd">
<!-- Generated by graphviz version 2.43.0 (0)
 -->
<!-- Title: dra.func_800F53D4 Pages: 1 -->
<svg width="875pt" height="404pt"
 viewBox="0.00 0.00 874.63 404.00" xmlns="http://www.w3.org/2000/svg" xmlns:xlink="http://www.w3.org/1999/xlink">
<g id="graph0" class="graph" transform="scale(1 1) rotate(0) translate(4 400)">
<title>dra.func_800F53D4</title>
<polygon fill="white" stroke="transparent" points="-4,4 -4,-400 870.63,-400 870.63,4 -4,4"/>
<!-- dra.func_800F53D4 -->
<g id="node1" class="node">
<title>dra.func_800F53D4</title>
<ellipse fill="green" stroke="black" cx="422.89" cy="-198" rx="102.88" ry="18"/>
<text text-anchor="middle" x="422.89" y="-194.3" font-family="Times,serif" font-size="14.00">dra.func_800F53D4</text>
</g>
<!-- SetDrawMode -->
<g id="node2" class="node">
<title>SetDrawMode</title>
<g id="a_node2"><a xlink:href="SetDrawMode.svg" xlink:title="SetDrawMode">
<ellipse fill="lightblue" stroke="black" cx="349.89" cy="-18" rx="77.19" ry="18"/>
<text text-anchor="middle" x="349.89" y="-14.3" font-family="Times,serif" font-size="14.00">SetDrawMode</text>
</a>
</g>
</g>
<!-- dra.func_800F53D4&#45;&gt;SetDrawMode -->
<g id="edge1" class="edge">
<title>dra.func_800F53D4&#45;&gt;SetDrawMode</title>
<path fill="none" stroke="black" d="M415.89,-179.93C403.14,-148.83 376.03,-82.73 360.82,-45.65"/>
<polygon fill="black" stroke="black" points="363.9,-43.94 356.87,-36.02 357.43,-46.6 363.9,-43.94"/>
<text text-anchor="middle" x="351.87" y="-39.82" font-family="Times,serif" font-size="14.00">1</text>
</g>
<!-- AddPrim -->
<g id="node3" class="node">
<title>AddPrim</title>
<g id="a_node3"><a xlink:href="AddPrim.svg" xlink:title="AddPrim">
<ellipse fill="lightblue" stroke="black" cx="496.89" cy="-18" rx="51.19" ry="18"/>
<text text-anchor="middle" x="496.89" y="-14.3" font-family="Times,serif" font-size="14.00">AddPrim</text>
</a>
</g>
</g>
<!-- dra.func_800F53D4&#45;&gt;AddPrim -->
<g id="edge2" class="edge">
<title>dra.func_800F53D4&#45;&gt;AddPrim</title>
<path fill="none" stroke="black" d="M429.99,-179.93C442.92,-148.83 470.4,-82.73 485.81,-45.65"/>
<polygon fill="black" stroke="black" points="489.21,-46.59 489.82,-36.02 482.75,-43.91 489.21,-46.59"/>
<text text-anchor="middle" x="484.82" y="-39.82" font-family="Times,serif" font-size="14.00">1</text>
</g>
<!-- dra.DrawMenuStr -->
<g id="node4" class="node">
<title>dra.DrawMenuStr</title>
<g id="a_node4"><a xlink:href="dra.DrawMenuStr.svg" xlink:title="dra.DrawMenuStr">
<ellipse fill="green" stroke="black" cx="94.89" cy="-378" rx="94.78" ry="18"/>
<text text-anchor="middle" x="94.89" y="-374.3" font-family="Times,serif" font-size="14.00">dra.DrawMenuStr</text>
</a>
</g>
</g>
<!-- dra.DrawMenuStr&#45;&gt;dra.func_800F53D4 -->
<g id="edge3" class="edge">
<title>dra.DrawMenuStr&#45;&gt;dra.func_800F53D4</title>
<path fill="none" stroke="black" d="M124.58,-360.89C183.92,-328.69 317.17,-256.37 383.64,-220.3"/>
<polygon fill="black" stroke="black" points="385.44,-223.31 392.56,-215.46 382.1,-217.15 385.44,-223.31"/>
<text text-anchor="middle" x="119.58" y="-349.69" font-family="Times,serif" font-size="14.00">1</text>
</g>
<!-- dra.DrawMenuRect -->
<g id="node5" class="node">
<title>dra.DrawMenuRect</title>
<g id="a_node5"><a xlink:href="dra.DrawMenuRect.svg" xlink:title="dra.DrawMenuRect">
<ellipse fill="green" stroke="black" cx="308.89" cy="-378" rx="101.28" ry="18"/>
<text text-anchor="middle" x="308.89" y="-374.3" font-family="Times,serif" font-size="14.00">dra.DrawMenuRect</text>
</a>
</g>
</g>
<!-- dra.DrawMenuRect&#45;&gt;dra.func_800F53D4 -->
<g id="edge4" class="edge">
<title>dra.DrawMenuRect&#45;&gt;dra.func_800F53D4</title>
<path fill="none" stroke="black" d="M319.82,-359.93C339.91,-328.57 382.8,-261.6 406.43,-224.71"/>
<polygon fill="black" stroke="black" points="409.55,-226.32 411.99,-216.02 403.65,-222.55 409.55,-226.32"/>
<text text-anchor="middle" x="314.82" y="-348.73" font-family="Times,serif" font-size="14.00">1</text>
</g>
<!-- dra.DrawMenuSprite -->
<g id="node6" class="node">
<title>dra.DrawMenuSprite</title>
<g id="a_node6"><a xlink:href="dra.DrawMenuSprite.svg" xlink:title="dra.DrawMenuSprite">
<ellipse fill="green" stroke="black" cx="537.89" cy="-378" rx="109.38" ry="18"/>
<text text-anchor="middle" x="537.89" y="-374.3" font-family="Times,serif" font-size="14.00">dra.DrawMenuSprite</text>
</a>
</g>
</g>
<!-- dra.DrawMenuSprite&#45;&gt;dra.func_800F53D4 -->
<g id="edge5" class="edge">
<title>dra.DrawMenuSprite&#45;&gt;dra.func_800F53D4</title>
<path fill="none" stroke="black" d="M526.86,-359.93C506.6,-328.57 463.34,-261.6 439.5,-224.71"/>
<polygon fill="black" stroke="black" points="442.25,-222.52 433.88,-216.02 436.37,-226.31 442.25,-222.52"/>
<text text-anchor="middle" x="521.86" y="-348.73" font-family="Times,serif" font-size="14.00">1</text>
</g>
<!-- dra.func_800F5904 -->
<g id="node7" class="node">
<title>dra.func_800F5904</title>
<g id="a_node7"><a xlink:href="dra.func_800F5904.svg" xlink:title="dra.func_800F5904">
<ellipse fill="red" stroke="black" cx="765.89" cy="-378" rx="100.98" ry="18"/>
<text text-anchor="middle" x="765.89" y="-374.3" font-family="Times,serif" font-size="14.00">dra.func_800F5904</text>
</a>
</g>
</g>
<!-- dra.func_800F5904&#45;&gt;dra.func_800F53D4 -->
<g id="edge6" class="edge">
<title>dra.func_800F5904&#45;&gt;dra.func_800F53D4</title>
<path fill="none" stroke="black" d="M734.54,-360.73C672.15,-328.35 532.5,-255.88 463.32,-219.98"/>
<polygon fill="black" stroke="black" points="464.53,-216.67 454.04,-215.17 461.31,-222.88 464.53,-216.67"/>
<text text-anchor="middle" x="729.54" y="-349.53" font-family="Times,serif" font-size="14.00">1</text>
</g>
</g>
</svg>
