<?xml version="1.0" encoding="UTF-8" standalone="no"?>
<!DOCTYPE svg PUBLIC "-//W3C//DTD SVG 1.1//EN"
 "http://www.w3.org/Graphics/SVG/1.1/DTD/svg11.dtd">
<!-- Generated by graphviz version 2.43.0 (0)
 -->
<!-- Title: dra.HandleGameOver Pages: 1 -->
<svg width="5288pt" height="404pt"
 viewBox="0.00 0.00 5288.19 404.00" xmlns="http://www.w3.org/2000/svg" xmlns:xlink="http://www.w3.org/1999/xlink">
<g id="graph0" class="graph" transform="scale(1 1) rotate(0) translate(4 400)">
<title>dra.HandleGameOver</title>
<polygon fill="white" stroke="transparent" points="-4,4 -4,-400 5284.19,-400 5284.19,4 -4,4"/>
<!-- dra.HandleGameOver -->
<g id="node1" class="node">
<title>dra.HandleGameOver</title>
<ellipse fill="red" stroke="black" cx="2833.34" cy="-198" rx="111.58" ry="18"/>
<text text-anchor="middle" x="2833.34" y="-194.3" font-family="Times,serif" font-size="14.00">dra.HandleGameOver</text>
</g>
<!-- dra.PlaySfx -->
<g id="node2" class="node">
<title>dra.PlaySfx</title>
<g id="a_node2"><a xlink:href="dra.PlaySfx.svg" xlink:title="dra.PlaySfx">
<ellipse fill="green" stroke="black" cx="64.34" cy="-18" rx="64.19" ry="18"/>
<text text-anchor="middle" x="64.34" y="-14.3" font-family="Times,serif" font-size="14.00">dra.PlaySfx</text>
</a>
</g>
</g>
<!-- dra.HandleGameOver&#45;&gt;dra.PlaySfx -->
<g id="edge1" class="edge">
<title>dra.HandleGameOver&#45;&gt;dra.PlaySfx</title>
<path fill="none" stroke="black" d="M2721.59,-197.07C2351.38,-195.88 1132.09,-180.47 137.34,-36 131.57,-35.16 125.58,-34.09 119.62,-32.91"/>
<polygon fill="black" stroke="black" points="120.19,-29.45 109.68,-30.81 118.74,-36.3 120.19,-29.45"/>
<text text-anchor="middle" x="104.68" y="-34.61" font-family="Times,serif" font-size="14.00">6</text>
</g>
<!-- dra.DestroyEntities -->
<g id="node3" class="node">
<title>dra.DestroyEntities</title>
<g id="a_node3"><a xlink:href="dra.DestroyEntities.svg" xlink:title="dra.DestroyEntities">
<ellipse fill="green" stroke="black" cx="249.34" cy="-18" rx="102.88" ry="18"/>
<text text-anchor="middle" x="249.34" y="-14.3" font-family="Times,serif" font-size="14.00">dra.DestroyEntities</text>
</a>
</g>
</g>
<!-- dra.HandleGameOver&#45;&gt;dra.DestroyEntities -->
<g id="edge2" class="edge">
<title>dra.HandleGameOver&#45;&gt;dra.DestroyEntities</title>
<path fill="none" stroke="black" d="M2725.24,-193.27C2379.9,-180.63 1272.62,-134.65 361.34,-36 351.67,-34.95 341.54,-33.67 331.51,-32.29"/>
<polygon fill="black" stroke="black" points="331.92,-28.82 321.52,-30.88 330.94,-35.75 331.92,-28.82"/>
<text text-anchor="middle" x="316.52" y="-34.68" font-family="Times,serif" font-size="14.00">1</text>
</g>
<!-- dra.func_800EA538 -->
<g id="node4" class="node">
<title>dra.func_800EA538</title>
<g id="a_node4"><a xlink:href="dra.func_800EA538.svg" xlink:title="dra.func_800EA538">
<ellipse fill="green" stroke="black" cx="472.34" cy="-18" rx="102.08" ry="18"/>
<text text-anchor="middle" x="472.34" y="-14.3" font-family="Times,serif" font-size="14.00">dra.func_800EA538</text>
</a>
</g>
</g>
<!-- dra.HandleGameOver&#45;&gt;dra.func_800EA538 -->
<g id="edge3" class="edge">
<title>dra.HandleGameOver&#45;&gt;dra.func_800EA538</title>
<path fill="none" stroke="black" d="M2726.78,-192.43C2403.5,-177.9 1405.74,-128.25 583.34,-36 573.93,-34.94 564.08,-33.68 554.31,-32.31"/>
<polygon fill="black" stroke="black" points="554.58,-28.82 544.18,-30.87 553.59,-35.75 554.58,-28.82"/>
<text text-anchor="middle" x="539.18" y="-34.67" font-family="Times,serif" font-size="14.00">1</text>
</g>
<!-- dra.func_800EAEEC -->
<g id="node5" class="node">
<title>dra.func_800EAEEC</title>
<g id="a_node5"><a xlink:href="dra.func_800EAEEC.svg" xlink:title="dra.func_800EAEEC">
<ellipse fill="green" stroke="black" cx="697.34" cy="-18" rx="104.78" ry="18"/>
<text text-anchor="middle" x="697.34" y="-14.3" font-family="Times,serif" font-size="14.00">dra.func_800EAEEC</text>
</a>
</g>
</g>
<!-- dra.HandleGameOver&#45;&gt;dra.func_800EAEEC -->
<g id="edge4" class="edge">
<title>dra.HandleGameOver&#45;&gt;dra.func_800EAEEC</title>
<path fill="none" stroke="black" d="M2729.46,-191.25C2430.73,-174.18 1543.9,-119.69 811.34,-36 801.65,-34.89 791.52,-33.59 781.46,-32.21"/>
<polygon fill="black" stroke="black" points="781.84,-28.73 771.45,-30.8 780.86,-35.66 781.84,-28.73"/>
<text text-anchor="middle" x="766.45" y="-34.6" font-family="Times,serif" font-size="14.00">1</text>
</g>
<!-- dra.DestroyAllPrimitives -->
<g id="node6" class="node">
<title>dra.DestroyAllPrimitives</title>
<g id="a_node6"><a xlink:href="dra.DestroyAllPrimitives.svg" xlink:title="dra.DestroyAllPrimitives">
<ellipse fill="green" stroke="black" cx="946.34" cy="-18" rx="126.18" ry="18"/>
<text text-anchor="middle" x="946.34" y="-14.3" font-family="Times,serif" font-size="14.00">dra.DestroyAllPrimitives</text>
</a>
</g>
</g>
<!-- dra.HandleGameOver&#45;&gt;dra.DestroyAllPrimitives -->
<g id="edge5" class="edge">
<title>dra.HandleGameOver&#45;&gt;dra.DestroyAllPrimitives</title>
<path fill="none" stroke="black" d="M2735.41,-189.16C2469.3,-167.62 1710.67,-104.52 1081.34,-36 1069.88,-34.75 1057.87,-33.36 1045.95,-31.93"/>
<polygon fill="black" stroke="black" points="1046.33,-28.45 1035.98,-30.72 1045.48,-35.4 1046.33,-28.45"/>
<text text-anchor="middle" x="1030.98" y="-34.52" font-family="Times,serif" font-size="14.00">1</text>
</g>
<!-- dra.func_800EDAE4 -->
<g id="node7" class="node">
<title>dra.func_800EDAE4</title>
<g id="a_node7"><a xlink:href="dra.func_800EDAE4.svg" xlink:title="dra.func_800EDAE4">
<ellipse fill="green" stroke="black" cx="1195.34" cy="-18" rx="104.78" ry="18"/>
<text text-anchor="middle" x="1195.34" y="-14.3" font-family="Times,serif" font-size="14.00">dra.func_800EDAE4</text>
</a>
</g>
</g>
<!-- dra.HandleGameOver&#45;&gt;dra.func_800EDAE4 -->
<g id="edge6" class="edge">
<title>dra.HandleGameOver&#45;&gt;dra.func_800EDAE4</title>
<path fill="none" stroke="black" d="M2738.66,-188.42C2499,-166.39 1849.07,-104.72 1309.34,-36 1299.92,-34.8 1290.06,-33.46 1280.26,-32.07"/>
<polygon fill="black" stroke="black" points="1280.49,-28.57 1270.09,-30.61 1279.5,-35.5 1280.49,-28.57"/>
<text text-anchor="middle" x="1265.09" y="-34.41" font-family="Times,serif" font-size="14.00">1</text>
</g>
<!-- dra.HideAllBackgroundLayers -->
<g id="node8" class="node">
<title>dra.HideAllBackgroundLayers</title>
<g id="a_node8"><a xlink:href="dra.HideAllBackgroundLayers.svg" xlink:title="dra.HideAllBackgroundLayers">
<ellipse fill="green" stroke="black" cx="1468.34" cy="-18" rx="150.27" ry="18"/>
<text text-anchor="middle" x="1468.34" y="-14.3" font-family="Times,serif" font-size="14.00">dra.HideAllBackgroundLayers</text>
</a>
</g>
</g>
<!-- dra.HandleGameOver&#45;&gt;dra.HideAllBackgroundLayers -->
<g id="edge7" class="edge">
<title>dra.HandleGameOver&#45;&gt;dra.HideAllBackgroundLayers</title>
<path fill="none" stroke="black" d="M2749.5,-186.07C2512.84,-155.21 1839.8,-67.44 1576.15,-33.06"/>
<polygon fill="black" stroke="black" points="1576.55,-29.58 1566.18,-31.76 1575.65,-36.52 1576.55,-29.58"/>
<text text-anchor="middle" x="1561.18" y="-35.56" font-family="Times,serif" font-size="14.00">1</text>
</g>
<!-- dra.func_800EAD7C -->
<g id="node9" class="node">
<title>dra.func_800EAD7C</title>
<g id="a_node9"><a xlink:href="dra.func_800EAD7C.svg" xlink:title="dra.func_800EAD7C">
<ellipse fill="green" stroke="black" cx="1741.34" cy="-18" rx="104.78" ry="18"/>
<text text-anchor="middle" x="1741.34" y="-14.3" font-family="Times,serif" font-size="14.00">dra.func_800EAD7C</text>
</a>
</g>
</g>
<!-- dra.HandleGameOver&#45;&gt;dra.func_800EAD7C -->
<g id="edge8" class="edge">
<title>dra.HandleGameOver&#45;&gt;dra.func_800EAD7C</title>
<path fill="none" stroke="black" d="M2757.86,-184.7C2560.59,-152.54 2030.78,-66.18 1824.84,-32.61"/>
<polygon fill="black" stroke="black" points="1825.12,-29.11 1814.69,-30.95 1823.99,-36.02 1825.12,-29.11"/>
<text text-anchor="middle" x="1809.69" y="-34.75" font-family="Times,serif" font-size="14.00">1</text>
</g>
<!-- MoveImage -->
<g id="node10" class="node">
<title>MoveImage</title>
<g id="a_node10"><a xlink:href="MoveImage.svg" xlink:title="MoveImage">
<ellipse fill="lightblue" stroke="black" cx="1929.34" cy="-18" rx="64.99" ry="18"/>
<text text-anchor="middle" x="1929.34" y="-14.3" font-family="Times,serif" font-size="14.00">MoveImage</text>
</a>
</g>
</g>
<!-- dra.HandleGameOver&#45;&gt;MoveImage -->
<g id="edge9" class="edge">
<title>dra.HandleGameOver&#45;&gt;MoveImage</title>
<path fill="none" stroke="black" d="M2762.4,-184.08C2618.8,-157.76 2283.54,-95.34 2003.34,-36 1998.11,-34.89 1992.67,-33.7 1987.22,-32.5"/>
<polygon fill="black" stroke="black" points="1987.98,-29.08 1977.46,-30.3 1986.45,-35.91 1987.98,-29.08"/>
<text text-anchor="middle" x="1972.46" y="-34.1" font-family="Times,serif" font-size="14.00">1</text>
</g>
<!-- dra.func_800E346C -->
<g id="node11" class="node">
<title>dra.func_800E346C</title>
<g id="a_node11"><a xlink:href="dra.func_800E346C.svg" xlink:title="dra.func_800E346C">
<ellipse fill="green" stroke="black" cx="2115.34" cy="-18" rx="102.88" ry="18"/>
<text text-anchor="middle" x="2115.34" y="-14.3" font-family="Times,serif" font-size="14.00">dra.func_800E346C</text>
</a>
</g>
</g>
<!-- dra.HandleGameOver&#45;&gt;dra.func_800E346C -->
<g id="edge10" class="edge">
<title>dra.HandleGameOver&#45;&gt;dra.func_800E346C</title>
<path fill="none" stroke="black" d="M2775.2,-182.58C2643.16,-149.85 2321.36,-70.07 2181.77,-35.47"/>
<polygon fill="black" stroke="black" points="2182.59,-32.06 2172.04,-33.06 2180.9,-38.86 2182.59,-32.06"/>
<text text-anchor="middle" x="2167.04" y="-36.86" font-family="Times,serif" font-size="14.00">1</text>
</g>
<!-- dra.AllocPrimitives -->
<g id="node12" class="node">
<title>dra.AllocPrimitives</title>
<g id="a_node12"><a xlink:href="dra.AllocPrimitives.svg" xlink:title="dra.AllocPrimitives">
<ellipse fill="green" stroke="black" cx="2335.34" cy="-18" rx="99.38" ry="18"/>
<text text-anchor="middle" x="2335.34" y="-14.3" font-family="Times,serif" font-size="14.00">dra.AllocPrimitives</text>
</a>
</g>
</g>
<!-- dra.HandleGameOver&#45;&gt;dra.AllocPrimitives -->
<g id="edge11" class="edge">
<title>dra.HandleGameOver&#45;&gt;dra.AllocPrimitives</title>
<path fill="none" stroke="black" d="M2789.59,-181.36C2697.94,-148.6 2486.16,-72.91 2387.58,-37.67"/>
<polygon fill="black" stroke="black" points="2388.71,-34.36 2378.12,-34.29 2386.36,-40.95 2388.71,-34.36"/>
<text text-anchor="middle" x="2373.12" y="-38.09" font-family="Times,serif" font-size="14.00">1</text>
</g>
<!-- dra.SetTexturedPrimRect -->
<g id="node13" class="node">
<title>dra.SetTexturedPrimRect</title>
<g id="a_node13"><a xlink:href="dra.SetTexturedPrimRect.svg" xlink:title="dra.SetTexturedPrimRect">
<ellipse fill="green" stroke="black" cx="2582.34" cy="-18" rx="129.98" ry="18"/>
<text text-anchor="middle" x="2582.34" y="-14.3" font-family="Times,serif" font-size="14.00">dra.SetTexturedPrimRect</text>
</a>
</g>
</g>
<!-- dra.HandleGameOver&#45;&gt;dra.SetTexturedPrimRect -->
<g id="edge12" class="edge">
<title>dra.HandleGameOver&#45;&gt;dra.SetTexturedPrimRect</title>
<path fill="none" stroke="black" d="M2809.73,-180.25C2764.51,-148.18 2665.64,-78.07 2614.46,-41.78"/>
<polygon fill="black" stroke="black" points="2616.26,-38.76 2606.08,-35.83 2612.21,-44.47 2616.26,-38.76"/>
<text text-anchor="middle" x="2601.08" y="-39.63" font-family="Times,serif" font-size="14.00">4</text>
</g>
<!-- dra.func_801072BC -->
<g id="node14" class="node">
<title>dra.func_801072BC</title>
<g id="a_node14"><a xlink:href="dra.func_801072BC.svg" xlink:title="dra.func_801072BC">
<ellipse fill="green" stroke="black" cx="2833.34" cy="-18" rx="102.88" ry="18"/>
<text text-anchor="middle" x="2833.34" y="-14.3" font-family="Times,serif" font-size="14.00">dra.func_801072BC</text>
</a>
</g>
</g>
<!-- dra.HandleGameOver&#45;&gt;dra.func_801072BC -->
<g id="edge13" class="edge">
<title>dra.HandleGameOver&#45;&gt;dra.func_801072BC</title>
<path fill="none" stroke="black" d="M2833.34,-179.93C2833.34,-148.97 2833.34,-83.3 2833.34,-46.13"/>
<polygon fill="black" stroke="black" points="2836.84,-46.02 2833.34,-36.02 2829.84,-46.02 2836.84,-46.02"/>
<text text-anchor="middle" x="2828.34" y="-39.82" font-family="Times,serif" font-size="14.00">1</text>
</g>
<!-- dra.func_801072DC -->
<g id="node15" class="node">
<title>dra.func_801072DC</title>
<g id="a_node15"><a xlink:href="dra.func_801072DC.svg" xlink:title="dra.func_801072DC">
<ellipse fill="green" stroke="black" cx="3056.34" cy="-18" rx="102.88" ry="18"/>
<text text-anchor="middle" x="3056.34" y="-14.3" font-family="Times,serif" font-size="14.00">dra.func_801072DC</text>
</a>
</g>
</g>
<!-- dra.HandleGameOver&#45;&gt;dra.func_801072DC -->
<g id="edge14" class="edge">
<title>dra.HandleGameOver&#45;&gt;dra.func_801072DC</title>
<path fill="none" stroke="black" d="M2854.32,-180.25C2894.34,-148.32 2981.62,-78.65 3027.24,-42.23"/>
<polygon fill="black" stroke="black" points="3029.63,-44.8 3035.26,-35.83 3025.26,-39.33 3029.63,-44.8"/>
<text text-anchor="middle" x="3030.26" y="-39.63" font-family="Times,serif" font-size="14.00">2</text>
</g>
<!-- rand -->
<g id="node16" class="node">
<title>rand</title>
<g id="a_node16"><a xlink:href="rand.svg" xlink:title="rand">
<ellipse fill="lightblue" stroke="black" cx="3209.34" cy="-18" rx="32.49" ry="18"/>
<text text-anchor="middle" x="3209.34" y="-14.3" font-family="Times,serif" font-size="14.00">rand</text>
</a>
</g>
</g>
<!-- dra.HandleGameOver&#45;&gt;rand -->
<g id="edge15" class="edge">
<title>dra.HandleGameOver&#45;&gt;rand</title>
<path fill="none" stroke="black" d="M2867.71,-180.73C2939.56,-146.72 3104.91,-68.44 3175.93,-34.82"/>
<polygon fill="black" stroke="black" points="3177.76,-37.82 3185.31,-30.38 3174.77,-31.5 3177.76,-37.82"/>
<text text-anchor="middle" x="3180.31" y="-34.18" font-family="Times,serif" font-size="14.00">1</text>
</g>
<!-- dra.func_80133950 -->
<g id="node17" class="node">
<title>dra.func_80133950</title>
<g id="a_node17"><a xlink:href="dra.func_80133950.svg" xlink:title="dra.func_80133950">
<ellipse fill="green" stroke="black" cx="3360.34" cy="-18" rx="100.98" ry="18"/>
<text text-anchor="middle" x="3360.34" y="-14.3" font-family="Times,serif" font-size="14.00">dra.func_80133950</text>
</a>
</g>
</g>
<!-- dra.HandleGameOver&#45;&gt;dra.func_80133950 -->
<g id="edge16" class="edge">
<title>dra.HandleGameOver&#45;&gt;dra.func_80133950</title>
<path fill="none" stroke="black" d="M2879.19,-181.52C2976.11,-148.78 3201.42,-72.68 3305.65,-37.47"/>
<polygon fill="black" stroke="black" points="3307,-40.71 3315.35,-34.2 3304.76,-34.08 3307,-40.71"/>
<text text-anchor="middle" x="3310.35" y="-38" font-family="Times,serif" font-size="14.00">1</text>
</g>
<!-- dra.func_80131F68 -->
<g id="node18" class="node">
<title>dra.func_80131F68</title>
<g id="a_node18"><a xlink:href="dra.func_80131F68.svg" xlink:title="dra.func_80131F68">
<ellipse fill="green" stroke="black" cx="3579.34" cy="-18" rx="100.98" ry="18"/>
<text text-anchor="middle" x="3579.34" y="-14.3" font-family="Times,serif" font-size="14.00">dra.func_80131F68</text>
</a>
</g>
</g>
<!-- dra.HandleGameOver&#45;&gt;dra.func_80131F68 -->
<g id="edge17" class="edge">
<title>dra.HandleGameOver&#45;&gt;dra.func_80131F68</title>
<path fill="none" stroke="black" d="M2893.13,-182.73C3030.3,-150.01 3366.9,-69.69 3511.52,-35.18"/>
<polygon fill="black" stroke="black" points="3512.68,-38.51 3521.59,-32.78 3511.05,-31.7 3512.68,-38.51"/>
<text text-anchor="middle" x="3516.59" y="-36.58" font-family="Times,serif" font-size="14.00">2</text>
</g>
<!-- dra.func_80132760 -->
<g id="node19" class="node">
<title>dra.func_80132760</title>
<g id="a_node19"><a xlink:href="dra.func_80132760.svg" xlink:title="dra.func_80132760">
<ellipse fill="green" stroke="black" cx="3798.34" cy="-18" rx="100.98" ry="18"/>
<text text-anchor="middle" x="3798.34" y="-14.3" font-family="Times,serif" font-size="14.00">dra.func_80132760</text>
</a>
</g>
</g>
<!-- dra.HandleGameOver&#45;&gt;dra.func_80132760 -->
<g id="edge18" class="edge">
<title>dra.HandleGameOver&#45;&gt;dra.func_80132760</title>
<path fill="none" stroke="black" d="M2903.91,-183.98C3080.03,-151.5 3537.87,-67.05 3720.99,-33.27"/>
<polygon fill="black" stroke="black" points="3721.88,-36.66 3731.08,-31.41 3720.61,-29.78 3721.88,-36.66"/>
<text text-anchor="middle" x="3726.08" y="-35.21" font-family="Times,serif" font-size="14.00">1</text>
</g>
<!-- LoadImage -->
<g id="node20" class="node">
<title>LoadImage</title>
<g id="a_node20"><a xlink:href="LoadImage.svg" xlink:title="LoadImage">
<ellipse fill="lightblue" stroke="black" cx="3978.34" cy="-18" rx="61.99" ry="18"/>
<text text-anchor="middle" x="3978.34" y="-14.3" font-family="Times,serif" font-size="14.00">LoadImage</text>
</a>
</g>
</g>
<!-- dra.HandleGameOver&#45;&gt;LoadImage -->
<g id="edge19" class="edge">
<title>dra.HandleGameOver&#45;&gt;LoadImage</title>
<path fill="none" stroke="black" d="M2920.54,-186.63C3104.15,-164.21 3543.75,-107.43 3908.34,-36 3913.36,-35.02 3918.55,-33.92 3923.74,-32.76"/>
<polygon fill="black" stroke="black" points="3924.7,-36.13 3933.66,-30.48 3923.13,-29.31 3924.7,-36.13"/>
<text text-anchor="middle" x="3928.66" y="-34.28" font-family="Times,serif" font-size="14.00">4</text>
</g>
<!-- StoreImage -->
<g id="node21" class="node">
<title>StoreImage</title>
<g id="a_node21"><a xlink:href="StoreImage.svg" xlink:title="StoreImage">
<ellipse fill="lightblue" stroke="black" cx="4123.34" cy="-18" rx="64.99" ry="18"/>
<text text-anchor="middle" x="4123.34" y="-14.3" font-family="Times,serif" font-size="14.00">StoreImage</text>
</a>
</g>
</g>
<!-- dra.HandleGameOver&#45;&gt;StoreImage -->
<g id="edge20" class="edge">
<title>dra.HandleGameOver&#45;&gt;StoreImage</title>
<path fill="none" stroke="black" d="M2925.71,-187.77C3129.49,-166.76 3632.58,-111.29 4049.34,-36 4054.78,-35.02 4060.41,-33.9 4066.04,-32.72"/>
<polygon fill="black" stroke="black" points="4067.07,-36.08 4076.11,-30.55 4065.6,-29.24 4067.07,-36.08"/>
<text text-anchor="middle" x="4071.11" y="-34.35" font-family="Times,serif" font-size="14.00">2</text>
</g>
<!-- dra.func_800E81FC -->
<g id="node22" class="node">
<title>dra.func_800E81FC</title>
<g id="a_node22"><a xlink:href="dra.func_800E81FC.svg" xlink:title="dra.func_800E81FC">
<ellipse fill="green" stroke="black" cx="4309.34" cy="-18" rx="102.88" ry="18"/>
<text text-anchor="middle" x="4309.34" y="-14.3" font-family="Times,serif" font-size="14.00">dra.func_800E81FC</text>
</a>
</g>
</g>
<!-- dra.HandleGameOver&#45;&gt;dra.func_800E81FC -->
<g id="edge21" class="edge">
<title>dra.HandleGameOver&#45;&gt;dra.func_800E81FC</title>
<path fill="none" stroke="black" d="M2923.65,-187.39C3142.45,-163.87 3718.23,-100.62 4197.34,-36 4206.53,-34.76 4216.13,-33.4 4225.68,-32.01"/>
<polygon fill="black" stroke="black" points="4226.21,-35.47 4235.59,-30.55 4225.19,-28.54 4226.21,-35.47"/>
<text text-anchor="middle" x="4230.59" y="-34.35" font-family="Times,serif" font-size="14.00">4</text>
</g>
<!-- dra.func_800E5358 -->
<g id="node23" class="node">
<title>dra.func_800E5358</title>
<g id="a_node23"><a xlink:href="dra.func_800E5358.svg" xlink:title="dra.func_800E5358">
<ellipse fill="green" stroke="black" cx="4531.34" cy="-18" rx="101.28" ry="18"/>
<text text-anchor="middle" x="4531.34" y="-14.3" font-family="Times,serif" font-size="14.00">dra.func_800E5358</text>
</a>
</g>
</g>
<!-- dra.HandleGameOver&#45;&gt;dra.func_800E5358 -->
<g id="edge22" class="edge">
<title>dra.HandleGameOver&#45;&gt;dra.func_800E5358</title>
<path fill="none" stroke="black" d="M2930.22,-188.96C3178.53,-167.95 3857.86,-108.06 4421.34,-36 4430.35,-34.85 4439.76,-33.55 4449.12,-32.19"/>
<polygon fill="black" stroke="black" points="4449.85,-35.62 4459.23,-30.7 4448.83,-28.69 4449.85,-35.62"/>
<text text-anchor="middle" x="4454.23" y="-34.5" font-family="Times,serif" font-size="14.00">5</text>
</g>
<!-- dra.func_80107250 -->
<g id="node24" class="node">
<title>dra.func_80107250</title>
<g id="a_node24"><a xlink:href="dra.func_80107250.svg" xlink:title="dra.func_80107250">
<ellipse fill="green" stroke="black" cx="4751.34" cy="-18" rx="100.98" ry="18"/>
<text text-anchor="middle" x="4751.34" y="-14.3" font-family="Times,serif" font-size="14.00">dra.func_80107250</text>
</a>
</g>
</g>
<!-- dra.HandleGameOver&#45;&gt;dra.func_80107250 -->
<g id="edge23" class="edge">
<title>dra.HandleGameOver&#45;&gt;dra.func_80107250</title>
<path fill="none" stroke="black" d="M2934.53,-190.29C3209.45,-171.56 3993.02,-114.88 4641.34,-36 4650.6,-34.87 4660.27,-33.57 4669.88,-32.19"/>
<polygon fill="black" stroke="black" points="4670.45,-35.64 4679.84,-30.74 4669.44,-28.72 4670.45,-35.64"/>
<text text-anchor="middle" x="4674.84" y="-34.54" font-family="Times,serif" font-size="14.00">4</text>
</g>
<!-- dra.FreePrimitives -->
<g id="node25" class="node">
<title>dra.FreePrimitives</title>
<g id="a_node25"><a xlink:href="dra.FreePrimitives.svg" xlink:title="dra.FreePrimitives">
<ellipse fill="green" stroke="black" cx="4969.34" cy="-18" rx="98.58" ry="18"/>
<text text-anchor="middle" x="4969.34" y="-14.3" font-family="Times,serif" font-size="14.00">dra.FreePrimitives</text>
</a>
</g>
</g>
<!-- dra.HandleGameOver&#45;&gt;dra.FreePrimitives -->
<g id="edge24" class="edge">
<title>dra.HandleGameOver&#45;&gt;dra.FreePrimitives</title>
<path fill="none" stroke="black" d="M2937.84,-191.55C3237.82,-175.29 4127.18,-122.79 4861.34,-36 4870.41,-34.93 4879.88,-33.66 4889.29,-32.3"/>
<polygon fill="black" stroke="black" points="4890.06,-35.73 4899.45,-30.81 4889.04,-28.8 4890.06,-35.73"/>
<text text-anchor="middle" x="4894.45" y="-34.61" font-family="Times,serif" font-size="14.00">1</text>
</g>
<!-- dra.SetGameState -->
<g id="node26" class="node">
<title>dra.SetGameState</title>
<g id="a_node26"><a xlink:href="dra.SetGameState.svg" xlink:title="dra.SetGameState">
<ellipse fill="green" stroke="black" cx="5183.34" cy="-18" rx="96.68" ry="18"/>
<text text-anchor="middle" x="5183.34" y="-14.3" font-family="Times,serif" font-size="14.00">dra.SetGameState</text>
</a>
</g>
</g>
<!-- dra.HandleGameOver&#45;&gt;dra.SetGameState -->
<g id="edge25" class="edge">
<title>dra.HandleGameOver&#45;&gt;dra.SetGameState</title>
<path fill="none" stroke="black" d="M2940.23,-192.65C3263.34,-178.8 4257.96,-130.92 5077.34,-36 5086.32,-34.96 5095.69,-33.71 5105,-32.35"/>
<polygon fill="black" stroke="black" points="5105.67,-35.79 5115.04,-30.85 5104.63,-28.87 5105.67,-35.79"/>
<text text-anchor="middle" x="5110.04" y="-34.65" font-family="Times,serif" font-size="14.00">1</text>
</g>
<!-- dra.UpdateGame -->
<g id="node27" class="node">
<title>dra.UpdateGame</title>
<g id="a_node27"><a xlink:href="dra.UpdateGame.svg" xlink:title="dra.UpdateGame">
<ellipse fill="green" stroke="black" cx="2833.34" cy="-378" rx="90.18" ry="18"/>
<text text-anchor="middle" x="2833.34" y="-374.3" font-family="Times,serif" font-size="14.00">dra.UpdateGame</text>
</a>
</g>
</g>
<!-- dra.UpdateGame&#45;&gt;dra.HandleGameOver -->
<g id="edge26" class="edge">
<title>dra.UpdateGame&#45;&gt;dra.HandleGameOver</title>
<path fill="none" stroke="black" d="M2833.34,-359.93C2833.34,-328.97 2833.34,-263.3 2833.34,-226.13"/>
<polygon fill="black" stroke="black" points="2836.84,-226.02 2833.34,-216.02 2829.84,-226.02 2836.84,-226.02"/>
<text text-anchor="middle" x="2828.34" y="-348.73" font-family="Times,serif" font-size="14.00">1</text>
</g>
</g>
</svg>
