<?xml version="1.0" encoding="UTF-8" standalone="no"?>
<!DOCTYPE svg PUBLIC "-//W3C//DTD SVG 1.1//EN"
 "http://www.w3.org/Graphics/SVG/1.1/DTD/svg11.dtd">
<!-- Generated by graphviz version 2.43.0 (0)
 -->
<!-- Title: dra.func_800E493C Pages: 1 -->
<svg width="656pt" height="404pt"
 viewBox="0.00 0.00 656.08 404.00" xmlns="http://www.w3.org/2000/svg" xmlns:xlink="http://www.w3.org/1999/xlink">
<g id="graph0" class="graph" transform="scale(1 1) rotate(0) translate(4 400)">
<title>dra.func_800E493C</title>
<polygon fill="white" stroke="transparent" points="-4,4 -4,-400 652.08,-400 652.08,4 -4,4"/>
<!-- dra.func_800E493C -->
<g id="node1" class="node">
<title>dra.func_800E493C</title>
<ellipse fill="green" stroke="black" cx="322.39" cy="-198" rx="102.88" ry="18"/>
<text text-anchor="middle" x="322.39" y="-194.3" font-family="Times,serif" font-size="14.00">dra.func_800E493C</text>
</g>
<!-- dra.PlaySfx -->
<g id="node2" class="node">
<title>dra.PlaySfx</title>
<g id="a_node2"><a xlink:href="dra.PlaySfx.svg" xlink:title="dra.PlaySfx">
<ellipse fill="green" stroke="black" cx="322.39" cy="-18" rx="64.19" ry="18"/>
<text text-anchor="middle" x="322.39" y="-14.3" font-family="Times,serif" font-size="14.00">dra.PlaySfx</text>
</a>
</g>
</g>
<!-- dra.func_800E493C&#45;&gt;dra.PlaySfx -->
<g id="edge1" class="edge">
<title>dra.func_800E493C&#45;&gt;dra.PlaySfx</title>
<path fill="none" stroke="black" d="M322.39,-179.93C322.39,-148.97 322.39,-83.3 322.39,-46.13"/>
<polygon fill="black" stroke="black" points="325.89,-46.02 322.39,-36.02 318.89,-46.02 325.89,-46.02"/>
<text text-anchor="middle" x="317.39" y="-39.82" font-family="Times,serif" font-size="14.00">1</text>
</g>
<!-- dra.func_800E4970 -->
<g id="node3" class="node">
<title>dra.func_800E4970</title>
<g id="a_node3"><a xlink:href="dra.func_800E4970.svg" xlink:title="dra.func_800E4970">
<ellipse fill="green" stroke="black" cx="101.39" cy="-378" rx="101.28" ry="18"/>
<text text-anchor="middle" x="101.39" y="-374.3" font-family="Times,serif" font-size="14.00">dra.func_800E4970</text>
</a>
</g>
</g>
<!-- dra.func_800E4970&#45;&gt;dra.func_800E493C -->
<g id="edge2" class="edge">
<title>dra.func_800E4970&#45;&gt;dra.func_800E493C</title>
<path fill="none" stroke="black" d="M122.18,-360.25C161.83,-328.32 248.34,-258.65 293.55,-222.23"/>
<polygon fill="black" stroke="black" points="295.9,-224.83 301.49,-215.83 291.51,-219.38 295.9,-224.83"/>
<text text-anchor="middle" x="117.18" y="-349.05" font-family="Times,serif" font-size="14.00">1</text>
</g>
<!-- dra.func_800E4A14 -->
<g id="node4" class="node">
<title>dra.func_800E4A14</title>
<g id="a_node4"><a xlink:href="dra.func_800E4A14.svg" xlink:title="dra.func_800E4A14">
<ellipse fill="green" stroke="black" cx="322.39" cy="-378" rx="102.08" ry="18"/>
<text text-anchor="middle" x="322.39" y="-374.3" font-family="Times,serif" font-size="14.00">dra.func_800E4A14</text>
</a>
</g>
</g>
<!-- dra.func_800E4A14&#45;&gt;dra.func_800E493C -->
<g id="edge3" class="edge">
<title>dra.func_800E4A14&#45;&gt;dra.func_800E493C</title>
<path fill="none" stroke="black" d="M322.39,-359.93C322.39,-328.97 322.39,-263.3 322.39,-226.13"/>
<polygon fill="black" stroke="black" points="325.89,-226.02 322.39,-216.02 318.89,-226.02 325.89,-226.02"/>
<text text-anchor="middle" x="317.39" y="-348.73" font-family="Times,serif" font-size="14.00">1</text>
</g>
<!-- dra.func_800FBC24 -->
<g id="node5" class="node">
<title>dra.func_800FBC24</title>
<g id="a_node5"><a xlink:href="dra.func_800FBC24.svg" xlink:title="dra.func_800FBC24">
<ellipse fill="red" stroke="black" cx="545.39" cy="-378" rx="102.88" ry="18"/>
<text text-anchor="middle" x="545.39" y="-374.3" font-family="Times,serif" font-size="14.00">dra.func_800FBC24</text>
</a>
</g>
</g>
<!-- dra.func_800FBC24&#45;&gt;dra.func_800E493C -->
<g id="edge4" class="edge">
<title>dra.func_800FBC24&#45;&gt;dra.func_800E493C</title>
<path fill="none" stroke="black" d="M524.41,-360.25C484.4,-328.32 397.12,-258.65 351.49,-222.23"/>
<polygon fill="black" stroke="black" points="353.48,-219.33 343.48,-215.83 349.11,-224.8 353.48,-219.33"/>
<text text-anchor="middle" x="519.41" y="-349.05" font-family="Times,serif" font-size="14.00">1</text>
</g>
</g>
</svg>
