<?xml version="1.0" encoding="UTF-8" standalone="no"?>
<!DOCTYPE svg PUBLIC "-//W3C//DTD SVG 1.1//EN"
 "http://www.w3.org/Graphics/SVG/1.1/DTD/svg11.dtd">
<!-- Generated by graphviz version 2.43.0 (0)
 -->
<!-- Title: dra.DestroyPrimitive Pages: 1 -->
<svg width="931pt" height="224pt"
 viewBox="0.00 0.00 930.73 224.00" xmlns="http://www.w3.org/2000/svg" xmlns:xlink="http://www.w3.org/1999/xlink">
<g id="graph0" class="graph" transform="scale(1 1) rotate(0) translate(4 220)">
<title>dra.DestroyPrimitive</title>
<polygon fill="white" stroke="transparent" points="-4,4 -4,-220 926.73,-220 926.73,4 -4,4"/>
<!-- dra.DestroyPrimitive -->
<g id="node1" class="node">
<title>dra.DestroyPrimitive</title>
<ellipse fill="green" stroke="black" cx="444.44" cy="-18" rx="108.58" ry="18"/>
<text text-anchor="middle" x="444.44" y="-14.3" font-family="Times,serif" font-size="14.00">dra.DestroyPrimitive</text>
</g>
<!-- dra.AllocPrimitives -->
<g id="node2" class="node">
<title>dra.AllocPrimitives</title>
<g id="a_node2"><a xlink:href="dra.AllocPrimitives.svg" xlink:title="dra.AllocPrimitives">
<ellipse fill="green" stroke="black" cx="99.44" cy="-198" rx="99.38" ry="18"/>
<text text-anchor="middle" x="99.44" y="-194.3" font-family="Times,serif" font-size="14.00">dra.AllocPrimitives</text>
</a>
</g>
</g>
<!-- dra.AllocPrimitives&#45;&gt;dra.DestroyPrimitive -->
<g id="edge1" class="edge">
<title>dra.AllocPrimitives&#45;&gt;dra.DestroyPrimitive</title>
<path fill="none" stroke="black" d="M130.67,-180.89C193.29,-148.58 334.17,-75.89 403.85,-39.94"/>
<polygon fill="black" stroke="black" points="405.51,-43.03 412.79,-35.33 402.3,-36.81 405.51,-43.03"/>
<text text-anchor="middle" x="125.67" y="-169.69" font-family="Times,serif" font-size="14.00">1</text>
</g>
<!-- dra.func_800EDB58 -->
<g id="node3" class="node">
<title>dra.func_800EDB58</title>
<g id="a_node3"><a xlink:href="dra.func_800EDB58.svg" xlink:title="dra.func_800EDB58">
<ellipse fill="green" stroke="black" cx="320.44" cy="-198" rx="103.98" ry="18"/>
<text text-anchor="middle" x="320.44" y="-194.3" font-family="Times,serif" font-size="14.00">dra.func_800EDB58</text>
</a>
</g>
</g>
<!-- dra.func_800EDB58&#45;&gt;dra.DestroyPrimitive -->
<g id="edge2" class="edge">
<title>dra.func_800EDB58&#45;&gt;dra.DestroyPrimitive</title>
<path fill="none" stroke="black" d="M332.33,-179.93C354.27,-148.43 401.23,-81.03 426.86,-44.24"/>
<polygon fill="black" stroke="black" points="429.74,-46.22 432.59,-36.02 424,-42.22 429.74,-46.22"/>
<text text-anchor="middle" x="327.33" y="-168.73" font-family="Times,serif" font-size="14.00">1</text>
</g>
<!-- dra.DestroyAllPrimitives -->
<g id="node4" class="node">
<title>dra.DestroyAllPrimitives</title>
<g id="a_node4"><a xlink:href="dra.DestroyAllPrimitives.svg" xlink:title="dra.DestroyAllPrimitives">
<ellipse fill="green" stroke="black" cx="568.44" cy="-198" rx="126.18" ry="18"/>
<text text-anchor="middle" x="568.44" y="-194.3" font-family="Times,serif" font-size="14.00">dra.DestroyAllPrimitives</text>
</a>
</g>
</g>
<!-- dra.DestroyAllPrimitives&#45;&gt;dra.DestroyPrimitive -->
<g id="edge3" class="edge">
<title>dra.DestroyAllPrimitives&#45;&gt;dra.DestroyPrimitive</title>
<path fill="none" stroke="black" d="M556.55,-179.93C534.61,-148.43 487.66,-81.03 462.02,-44.24"/>
<polygon fill="black" stroke="black" points="464.88,-42.22 456.29,-36.02 459.14,-46.22 464.88,-42.22"/>
<text text-anchor="middle" x="551.55" y="-168.73" font-family="Times,serif" font-size="14.00">1</text>
</g>
<!-- dra.func_800EDD9C -->
<g id="node5" class="node">
<title>dra.func_800EDD9C</title>
<g id="a_node5"><a xlink:href="dra.func_800EDD9C.svg" xlink:title="dra.func_800EDD9C">
<ellipse fill="green" stroke="black" cx="817.44" cy="-198" rx="105.08" ry="18"/>
<text text-anchor="middle" x="817.44" y="-194.3" font-family="Times,serif" font-size="14.00">dra.func_800EDD9C</text>
</a>
</g>
</g>
<!-- dra.func_800EDD9C&#45;&gt;dra.DestroyPrimitive -->
<g id="edge4" class="edge">
<title>dra.func_800EDD9C&#45;&gt;dra.DestroyPrimitive</title>
<path fill="none" stroke="black" d="M783.68,-180.89C715.75,-148.47 562.65,-75.41 487.58,-39.59"/>
<polygon fill="black" stroke="black" points="488.93,-36.35 478.39,-35.2 485.91,-42.67 488.93,-36.35"/>
<text text-anchor="middle" x="778.68" y="-169.69" font-family="Times,serif" font-size="14.00">1</text>
</g>
</g>
</svg>
