<?xml version="1.0" encoding="UTF-8" standalone="no"?>
<!DOCTYPE svg PUBLIC "-//W3C//DTD SVG 1.1//EN"
 "http://www.w3.org/Graphics/SVG/1.1/DTD/svg11.dtd">
<!-- Generated by graphviz version 2.43.0 (0)
 -->
<!-- Title: dra.func_800E9804 Pages: 1 -->
<svg width="300pt" height="218pt"
 viewBox="0.00 0.00 300.14 218.00" xmlns="http://www.w3.org/2000/svg" xmlns:xlink="http://www.w3.org/1999/xlink">
<g id="graph0" class="graph" transform="scale(1 1) rotate(0) translate(4 214)">
<title>dra.func_800E9804</title>
<polygon fill="white" stroke="transparent" points="-4,4 -4,-214 296.14,-214 296.14,4 -4,4"/>
<!-- dra.func_800E9804 -->
<g id="node1" class="node">
<title>dra.func_800E9804</title>
<ellipse fill="green" stroke="black" cx="179.69" cy="-105" rx="101.28" ry="18"/>
<text text-anchor="middle" x="179.69" y="-101.3" font-family="Times,serif" font-size="14.00">dra.func_800E9804</text>
</g>
<!-- dra.func_800E912C -->
<g id="node2" class="node">
<title>dra.func_800E912C</title>
<g id="a_node2"><a xlink:href="dra.func_800E912C.svg" xlink:title="dra.func_800E912C">
<ellipse fill="green" stroke="black" cx="102.69" cy="-18" rx="102.88" ry="18"/>
<text text-anchor="middle" x="102.69" y="-14.3" font-family="Times,serif" font-size="14.00">dra.func_800E912C</text>
</a>
</g>
</g>
<!-- dra.func_800E9804&#45;&gt;dra.func_800E912C -->
<g id="edge1" class="edge">
<title>dra.func_800E9804&#45;&gt;dra.func_800E912C</title>
<path fill="none" stroke="black" d="M164.11,-86.8C152.87,-74.39 137.53,-57.46 124.99,-43.62"/>
<polygon fill="black" stroke="black" points="127.29,-40.95 117.99,-35.89 122.11,-45.65 127.29,-40.95"/>
<text text-anchor="middle" x="151.69" y="-57.8" font-family="Times,serif" font-size="14.00">1</text>
</g>
<!-- close -->
<g id="node3" class="node">
<title>close</title>
<g id="a_node3"><a xlink:href="close.svg" xlink:title="close">
<ellipse fill="lightblue" stroke="black" cx="257.69" cy="-18" rx="34.39" ry="18"/>
<text text-anchor="middle" x="257.69" y="-14.3" font-family="Times,serif" font-size="14.00">close</text>
</a>
</g>
</g>
<!-- dra.func_800E9804&#45;&gt;close -->
<g id="edge2" class="edge">
<title>dra.func_800E9804&#45;&gt;close</title>
<path fill="none" stroke="black" d="M195.1,-87.21C206.94,-74.31 223.42,-56.35 236.5,-42.09"/>
<polygon fill="black" stroke="black" points="239.18,-44.35 243.36,-34.61 234.02,-39.61 239.18,-44.35"/>
<text text-anchor="middle" x="227.69" y="-57.8" font-family="Times,serif" font-size="14.00">1</text>
</g>
<!-- dra.func_80103ED4 -->
<g id="node4" class="node">
<title>dra.func_80103ED4</title>
<g id="a_node4"><a xlink:href="dra.func_80103ED4.svg" xlink:title="dra.func_80103ED4">
<ellipse fill="red" stroke="black" cx="179.69" cy="-192" rx="102.88" ry="18"/>
<text text-anchor="middle" x="179.69" y="-188.3" font-family="Times,serif" font-size="14.00">dra.func_80103ED4</text>
</a>
</g>
</g>
<!-- dra.func_80103ED4&#45;&gt;dra.func_800E9804 -->
<g id="edge3" class="edge">
<title>dra.func_80103ED4&#45;&gt;dra.func_800E9804</title>
<path fill="none" stroke="black" d="M179.69,-173.8C179.69,-162.16 179.69,-146.55 179.69,-133.24"/>
<polygon fill="black" stroke="black" points="183.19,-133.18 179.69,-123.18 176.19,-133.18 183.19,-133.18"/>
<text text-anchor="middle" x="184.69" y="-144.8" font-family="Times,serif" font-size="14.00">1</text>
</g>
</g>
</svg>
