<?xml version="1.0" encoding="UTF-8" standalone="no"?>
<!DOCTYPE svg PUBLIC "-//W3C//DTD SVG 1.1//EN"
 "http://www.w3.org/Graphics/SVG/1.1/DTD/svg11.dtd">
<!-- Generated by graphviz version 2.43.0 (0)
 -->
<!-- Title: dra.func_800F98AC Pages: 1 -->
<svg width="573pt" height="218pt"
 viewBox="0.00 0.00 572.79 218.00" xmlns="http://www.w3.org/2000/svg" xmlns:xlink="http://www.w3.org/1999/xlink">
<g id="graph0" class="graph" transform="scale(1 1) rotate(0) translate(4 214)">
<title>dra.func_800F98AC</title>
<polygon fill="white" stroke="transparent" points="-4,4 -4,-214 568.79,-214 568.79,4 -4,4"/>
<!-- dra.func_800F98AC -->
<g id="node1" class="node">
<title>dra.func_800F98AC</title>
<ellipse fill="red" stroke="black" cx="323.04" cy="-105" rx="102.88" ry="18"/>
<text text-anchor="middle" x="323.04" y="-101.3" font-family="Times,serif" font-size="14.00">dra.func_800F98AC</text>
</g>
<!-- dra.func_800F548C -->
<g id="node2" class="node">
<title>dra.func_800F548C</title>
<g id="a_node2"><a xlink:href="dra.func_800F548C.svg" xlink:title="dra.func_800F548C">
<ellipse fill="green" stroke="black" cx="102.04" cy="-18" rx="102.08" ry="18"/>
<text text-anchor="middle" x="102.04" y="-14.3" font-family="Times,serif" font-size="14.00">dra.func_800F548C</text>
</a>
</g>
</g>
<!-- dra.func_800F98AC&#45;&gt;dra.func_800F548C -->
<g id="edge1" class="edge">
<title>dra.func_800F98AC&#45;&gt;dra.func_800F548C</title>
<path fill="none" stroke="black" d="M282.51,-88.41C245.86,-74.32 191.78,-53.51 152.37,-38.36"/>
<polygon fill="black" stroke="black" points="153.28,-34.96 142.69,-34.64 150.77,-41.49 153.28,-34.96"/>
<text text-anchor="middle" x="231.04" y="-57.8" font-family="Times,serif" font-size="14.00">1</text>
</g>
<!-- dra.func_80106A28 -->
<g id="node3" class="node">
<title>dra.func_80106A28</title>
<g id="a_node3"><a xlink:href="dra.func_80106A28.svg" xlink:title="dra.func_80106A28">
<ellipse fill="red" stroke="black" cx="323.04" cy="-18" rx="100.98" ry="18"/>
<text text-anchor="middle" x="323.04" y="-14.3" font-family="Times,serif" font-size="14.00">dra.func_80106A28</text>
</a>
</g>
</g>
<!-- dra.func_800F98AC&#45;&gt;dra.func_80106A28 -->
<g id="edge2" class="edge">
<title>dra.func_800F98AC&#45;&gt;dra.func_80106A28</title>
<path fill="none" stroke="black" d="M323.04,-86.8C323.04,-75.16 323.04,-59.55 323.04,-46.24"/>
<polygon fill="black" stroke="black" points="326.54,-46.18 323.04,-36.18 319.54,-46.18 326.54,-46.18"/>
<text text-anchor="middle" x="328.04" y="-57.8" font-family="Times,serif" font-size="14.00">1</text>
</g>
<!-- LoadTPage -->
<g id="node4" class="node">
<title>LoadTPage</title>
<g id="a_node4"><a xlink:href="LoadTPage.svg" xlink:title="LoadTPage">
<ellipse fill="lightblue" stroke="black" cx="503.04" cy="-18" rx="61.99" ry="18"/>
<text text-anchor="middle" x="503.04" y="-14.3" font-family="Times,serif" font-size="14.00">LoadTPage</text>
</a>
</g>
</g>
<!-- dra.func_800F98AC&#45;&gt;LoadTPage -->
<g id="edge3" class="edge">
<title>dra.func_800F98AC&#45;&gt;LoadTPage</title>
<path fill="none" stroke="black" d="M357.32,-87.81C387.27,-73.67 430.8,-53.12 462.47,-38.16"/>
<polygon fill="black" stroke="black" points="464.35,-41.14 471.9,-33.71 461.36,-34.81 464.35,-41.14"/>
<text text-anchor="middle" x="428.04" y="-57.8" font-family="Times,serif" font-size="14.00">1</text>
</g>
<!-- dra.func_800F9D40 -->
<g id="node5" class="node">
<title>dra.func_800F9D40</title>
<g id="a_node5"><a xlink:href="dra.func_800F9D40.svg" xlink:title="dra.func_800F9D40">
<ellipse fill="green" stroke="black" cx="212.04" cy="-192" rx="102.88" ry="18"/>
<text text-anchor="middle" x="212.04" y="-188.3" font-family="Times,serif" font-size="14.00">dra.func_800F9D40</text>
</a>
</g>
</g>
<!-- dra.func_800F9D40&#45;&gt;dra.func_800F98AC -->
<g id="edge4" class="edge">
<title>dra.func_800F9D40&#45;&gt;dra.func_800F98AC</title>
<path fill="none" stroke="black" d="M233.97,-174.21C250.85,-161.28 274.35,-143.28 292.98,-129.02"/>
<polygon fill="black" stroke="black" points="295.34,-131.62 301.16,-122.76 291.09,-126.06 295.34,-131.62"/>
<text text-anchor="middle" x="280.04" y="-144.8" font-family="Times,serif" font-size="14.00">1</text>
</g>
<!-- dra.func_800FBC24 -->
<g id="node6" class="node">
<title>dra.func_800FBC24</title>
<g id="a_node6"><a xlink:href="dra.func_800FBC24.svg" xlink:title="dra.func_800FBC24">
<ellipse fill="red" stroke="black" cx="435.04" cy="-192" rx="102.88" ry="18"/>
<text text-anchor="middle" x="435.04" y="-188.3" font-family="Times,serif" font-size="14.00">dra.func_800FBC24</text>
</a>
</g>
</g>
<!-- dra.func_800FBC24&#45;&gt;dra.func_800F98AC -->
<g id="edge5" class="edge">
<title>dra.func_800FBC24&#45;&gt;dra.func_800F98AC</title>
<path fill="none" stroke="black" d="M413.18,-174.41C396.1,-161.45 372.17,-143.28 353.26,-128.93"/>
<polygon fill="black" stroke="black" points="355.31,-126.1 345.23,-122.84 351.08,-131.67 355.31,-126.1"/>
<text text-anchor="middle" x="391.04" y="-144.8" font-family="Times,serif" font-size="14.00">2</text>
</g>
</g>
</svg>
