<?xml version="1.0" encoding="UTF-8" standalone="no"?>
<!DOCTYPE svg PUBLIC "-//W3C//DTD SVG 1.1//EN"
 "http://www.w3.org/Graphics/SVG/1.1/DTD/svg11.dtd">
<!-- Generated by graphviz version 2.43.0 (0)
 -->
<!-- Title: dra.EntityPlayerDissolves Pages: 1 -->
<svg width="1010pt" height="131pt"
 viewBox="0.00 0.00 1010.44 131.00" xmlns="http://www.w3.org/2000/svg" xmlns:xlink="http://www.w3.org/1999/xlink">
<g id="graph0" class="graph" transform="scale(1 1) rotate(0) translate(4 127)">
<title>dra.EntityPlayerDissolves</title>
<polygon fill="white" stroke="transparent" points="-4,4 -4,-127 1006.44,-127 1006.44,4 -4,4"/>
<!-- dra.EntityPlayerDissolves -->
<g id="node1" class="node">
<title>dra.EntityPlayerDissolves</title>
<ellipse fill="red" stroke="black" cx="414.74" cy="-105" rx="131.88" ry="18"/>
<text text-anchor="middle" x="414.74" y="-101.3" font-family="Times,serif" font-size="14.00">dra.EntityPlayerDissolves</text>
</g>
<!-- LoadImage -->
<g id="node2" class="node">
<title>LoadImage</title>
<g id="a_node2"><a xlink:href="LoadImage.svg" xlink:title="LoadImage">
<ellipse fill="lightblue" stroke="black" cx="61.74" cy="-18" rx="61.99" ry="18"/>
<text text-anchor="middle" x="61.74" y="-14.3" font-family="Times,serif" font-size="14.00">LoadImage</text>
</a>
</g>
</g>
<!-- dra.EntityPlayerDissolves&#45;&gt;LoadImage -->
<g id="edge1" class="edge">
<title>dra.EntityPlayerDissolves&#45;&gt;LoadImage</title>
<path fill="none" stroke="black" d="M346.97,-89.5C318.99,-83.38 286.26,-76.05 256.74,-69 209,-57.59 154.95,-43.65 115.88,-33.39"/>
<polygon fill="black" stroke="black" points="116.35,-29.9 105.79,-30.73 114.57,-36.67 116.35,-29.9"/>
<text text-anchor="middle" x="261.74" y="-57.8" font-family="Times,serif" font-size="14.00">3</text>
</g>
<!-- rand -->
<g id="node3" class="node">
<title>rand</title>
<g id="a_node3"><a xlink:href="rand.svg" xlink:title="rand">
<ellipse fill="lightblue" stroke="black" cx="173.74" cy="-18" rx="32.49" ry="18"/>
<text text-anchor="middle" x="173.74" y="-14.3" font-family="Times,serif" font-size="14.00">rand</text>
</a>
</g>
</g>
<!-- dra.EntityPlayerDissolves&#45;&gt;rand -->
<g id="edge2" class="edge">
<title>dra.EntityPlayerDissolves&#45;&gt;rand</title>
<path fill="none" stroke="black" d="M366.22,-88.25C325.77,-74.92 266.72,-55.01 215.74,-36 213.36,-35.11 210.9,-34.17 208.44,-33.22"/>
<polygon fill="black" stroke="black" points="209.56,-29.9 198.98,-29.48 206.99,-36.41 209.56,-29.9"/>
<text text-anchor="middle" x="313.74" y="-57.8" font-family="Times,serif" font-size="14.00">5</text>
</g>
<!-- dra.AllocPrimitives -->
<g id="node4" class="node">
<title>dra.AllocPrimitives</title>
<g id="a_node4"><a xlink:href="dra.AllocPrimitives.svg" xlink:title="dra.AllocPrimitives">
<ellipse fill="green" stroke="black" cx="323.74" cy="-18" rx="99.38" ry="18"/>
<text text-anchor="middle" x="323.74" y="-14.3" font-family="Times,serif" font-size="14.00">dra.AllocPrimitives</text>
</a>
</g>
</g>
<!-- dra.EntityPlayerDissolves&#45;&gt;dra.AllocPrimitives -->
<g id="edge3" class="edge">
<title>dra.EntityPlayerDissolves&#45;&gt;dra.AllocPrimitives</title>
<path fill="none" stroke="black" d="M396.33,-86.8C382.8,-74.16 364.24,-56.82 349.27,-42.85"/>
<polygon fill="black" stroke="black" points="351.52,-40.15 341.82,-35.89 346.74,-45.27 351.52,-40.15"/>
<text text-anchor="middle" x="379.74" y="-57.8" font-family="Times,serif" font-size="14.00">1</text>
</g>
<!-- StoreImage -->
<g id="node5" class="node">
<title>StoreImage</title>
<g id="a_node5"><a xlink:href="StoreImage.svg" xlink:title="StoreImage">
<ellipse fill="lightblue" stroke="black" cx="505.74" cy="-18" rx="64.99" ry="18"/>
<text text-anchor="middle" x="505.74" y="-14.3" font-family="Times,serif" font-size="14.00">StoreImage</text>
</a>
</g>
</g>
<!-- dra.EntityPlayerDissolves&#45;&gt;StoreImage -->
<g id="edge4" class="edge">
<title>dra.EntityPlayerDissolves&#45;&gt;StoreImage</title>
<path fill="none" stroke="black" d="M433.16,-86.8C446.78,-74.08 465.49,-56.6 480.51,-42.57"/>
<polygon fill="black" stroke="black" points="483.06,-44.98 487.98,-35.6 478.28,-39.87 483.06,-44.98"/>
<text text-anchor="middle" x="470.74" y="-57.8" font-family="Times,serif" font-size="14.00">1</text>
</g>
<!-- dra.DestroyEntity -->
<g id="node6" class="node">
<title>dra.DestroyEntity</title>
<g id="a_node6"><a xlink:href="dra.DestroyEntity.svg" xlink:title="dra.DestroyEntity">
<ellipse fill="green" stroke="black" cx="683.74" cy="-18" rx="94.78" ry="18"/>
<text text-anchor="middle" x="683.74" y="-14.3" font-family="Times,serif" font-size="14.00">dra.DestroyEntity</text>
</a>
</g>
</g>
<!-- dra.EntityPlayerDissolves&#45;&gt;dra.DestroyEntity -->
<g id="edge5" class="edge">
<title>dra.EntityPlayerDissolves&#45;&gt;dra.DestroyEntity</title>
<path fill="none" stroke="black" d="M464.4,-88.31C510.55,-73.73 579.25,-52.02 627.43,-36.79"/>
<polygon fill="black" stroke="black" points="628.6,-40.1 637.08,-33.74 626.49,-33.42 628.6,-40.1"/>
<text text-anchor="middle" x="570.74" y="-57.8" font-family="Times,serif" font-size="14.00">1</text>
</g>
<!-- dra.func_8010DFF0 -->
<g id="node7" class="node">
<title>dra.func_8010DFF0</title>
<g id="a_node7"><a xlink:href="dra.func_8010DFF0.svg" xlink:title="dra.func_8010DFF0">
<ellipse fill="green" stroke="black" cx="899.74" cy="-18" rx="102.88" ry="18"/>
<text text-anchor="middle" x="899.74" y="-14.3" font-family="Times,serif" font-size="14.00">dra.func_8010DFF0</text>
</a>
</g>
</g>
<!-- dra.EntityPlayerDissolves&#45;&gt;dra.func_8010DFF0 -->
<g id="edge6" class="edge">
<title>dra.EntityPlayerDissolves&#45;&gt;dra.func_8010DFF0</title>
<path fill="none" stroke="black" d="M492.4,-90.39C582.16,-74.66 729.14,-48.9 819.84,-33"/>
<polygon fill="black" stroke="black" points="820.56,-36.43 829.8,-31.26 819.35,-29.54 820.56,-36.43"/>
<text text-anchor="middle" x="691.74" y="-57.8" font-family="Times,serif" font-size="14.00">1</text>
</g>
</g>
</svg>
