<?xml version="1.0" encoding="UTF-8" standalone="no"?>
<!DOCTYPE svg PUBLIC "-//W3C//DTD SVG 1.1//EN"
 "http://www.w3.org/Graphics/SVG/1.1/DTD/svg11.dtd">
<!-- Generated by graphviz version 2.43.0 (0)
 -->
<!-- Title: dra.func_8012E040 Pages: 1 -->
<svg width="2516pt" height="404pt"
 viewBox="0.00 0.00 2516.48 404.00" xmlns="http://www.w3.org/2000/svg" xmlns:xlink="http://www.w3.org/1999/xlink">
<g id="graph0" class="graph" transform="scale(1 1) rotate(0) translate(4 400)">
<title>dra.func_8012E040</title>
<polygon fill="white" stroke="transparent" points="-4,4 -4,-400 2512.48,-400 2512.48,4 -4,4"/>
<!-- dra.func_8012E040 -->
<g id="node1" class="node">
<title>dra.func_8012E040</title>
<ellipse fill="green" stroke="black" cx="1173.79" cy="-198" rx="101.28" ry="18"/>
<text text-anchor="middle" x="1173.79" y="-194.3" font-family="Times,serif" font-size="14.00">dra.func_8012E040</text>
</g>
<!-- dra.DecelerateX -->
<g id="node2" class="node">
<title>dra.DecelerateX</title>
<g id="a_node2"><a xlink:href="dra.DecelerateX.svg" xlink:title="dra.DecelerateX">
<ellipse fill="green" stroke="black" cx="85.79" cy="-18" rx="85.59" ry="18"/>
<text text-anchor="middle" x="85.79" y="-14.3" font-family="Times,serif" font-size="14.00">dra.DecelerateX</text>
</a>
</g>
</g>
<!-- dra.func_8012E040&#45;&gt;dra.DecelerateX -->
<g id="edge1" class="edge">
<title>dra.func_8012E040&#45;&gt;dra.DecelerateX</title>
<path fill="none" stroke="black" d="M1100.54,-185.54C935.97,-159.71 524.47,-94.61 180.79,-36 173.5,-34.76 165.9,-33.44 158.31,-32.1"/>
<polygon fill="black" stroke="black" points="158.82,-28.64 148.37,-30.35 157.61,-35.53 158.82,-28.64"/>
<text text-anchor="middle" x="143.37" y="-34.15" font-family="Times,serif" font-size="14.00">2</text>
</g>
<!-- dra.PlaySfx -->
<g id="node3" class="node">
<title>dra.PlaySfx</title>
<g id="a_node3"><a xlink:href="dra.PlaySfx.svg" xlink:title="dra.PlaySfx">
<ellipse fill="green" stroke="black" cx="253.79" cy="-18" rx="64.19" ry="18"/>
<text text-anchor="middle" x="253.79" y="-14.3" font-family="Times,serif" font-size="14.00">dra.PlaySfx</text>
</a>
</g>
</g>
<!-- dra.func_8012E040&#45;&gt;dra.PlaySfx -->
<g id="edge2" class="edge">
<title>dra.func_8012E040&#45;&gt;dra.PlaySfx</title>
<path fill="none" stroke="black" d="M1104.43,-184.81C959.59,-159.13 614.56,-96.83 326.79,-36 321.75,-34.93 316.52,-33.79 311.28,-32.62"/>
<polygon fill="black" stroke="black" points="311.77,-29.14 301.24,-30.35 310.22,-35.97 311.77,-29.14"/>
<text text-anchor="middle" x="296.24" y="-34.15" font-family="Times,serif" font-size="14.00">2</text>
</g>
<!-- dra.SetSpeedX -->
<g id="node4" class="node">
<title>dra.SetSpeedX</title>
<g id="a_node4"><a xlink:href="dra.SetSpeedX.svg" xlink:title="dra.SetSpeedX">
<ellipse fill="green" stroke="black" cx="415.79" cy="-18" rx="79.89" ry="18"/>
<text text-anchor="middle" x="415.79" y="-14.3" font-family="Times,serif" font-size="14.00">dra.SetSpeedX</text>
</a>
</g>
</g>
<!-- dra.func_8012E040&#45;&gt;dra.SetSpeedX -->
<g id="edge3" class="edge">
<title>dra.func_8012E040&#45;&gt;dra.SetSpeedX</title>
<path fill="none" stroke="black" d="M1115.26,-183.25C975.54,-150.45 623.47,-67.77 479.08,-33.86"/>
<polygon fill="black" stroke="black" points="479.58,-30.38 469.04,-31.5 477.98,-37.2 479.58,-30.38"/>
<text text-anchor="middle" x="464.04" y="-35.3" font-family="Times,serif" font-size="14.00">1</text>
</g>
<!-- dra.func_80102CD8 -->
<g id="node5" class="node">
<title>dra.func_80102CD8</title>
<g id="a_node5"><a xlink:href="dra.func_80102CD8.svg" xlink:title="dra.func_80102CD8">
<ellipse fill="green" stroke="black" cx="616.79" cy="-18" rx="102.88" ry="18"/>
<text text-anchor="middle" x="616.79" y="-14.3" font-family="Times,serif" font-size="14.00">dra.func_80102CD8</text>
</a>
</g>
</g>
<!-- dra.func_8012E040&#45;&gt;dra.func_80102CD8 -->
<g id="edge4" class="edge">
<title>dra.func_8012E040&#45;&gt;dra.func_80102CD8</title>
<path fill="none" stroke="black" d="M1126.78,-181.98C1024.82,-149.39 783.66,-72.33 673.48,-37.12"/>
<polygon fill="black" stroke="black" points="674.46,-33.76 663.87,-34.05 672.33,-40.42 674.46,-33.76"/>
<text text-anchor="middle" x="658.87" y="-37.85" font-family="Times,serif" font-size="14.00">1</text>
</g>
<!-- dra.func_8010DA48 -->
<g id="node6" class="node">
<title>dra.func_8010DA48</title>
<g id="a_node6"><a xlink:href="dra.func_8010DA48.svg" xlink:title="dra.func_8010DA48">
<ellipse fill="green" stroke="black" cx="839.79" cy="-18" rx="102.88" ry="18"/>
<text text-anchor="middle" x="839.79" y="-14.3" font-family="Times,serif" font-size="14.00">dra.func_8010DA48</text>
</a>
</g>
</g>
<!-- dra.func_8012E040&#45;&gt;dra.func_8010DA48 -->
<g id="edge5" class="edge">
<title>dra.func_8012E040&#45;&gt;dra.func_8010DA48</title>
<path fill="none" stroke="black" d="M1143.27,-180.73C1082.67,-148.44 947.22,-76.25 879.67,-40.25"/>
<polygon fill="black" stroke="black" points="881.08,-37.04 870.61,-35.42 877.79,-43.22 881.08,-37.04"/>
<text text-anchor="middle" x="865.61" y="-39.22" font-family="Times,serif" font-size="14.00">2</text>
</g>
<!-- dra.func_8010E27C -->
<g id="node7" class="node">
<title>dra.func_8010E27C</title>
<g id="a_node7"><a xlink:href="dra.func_8010E27C.svg" xlink:title="dra.func_8010E27C">
<ellipse fill="green" stroke="black" cx="1062.79" cy="-18" rx="102.88" ry="18"/>
<text text-anchor="middle" x="1062.79" y="-14.3" font-family="Times,serif" font-size="14.00">dra.func_8010E27C</text>
</a>
</g>
</g>
<!-- dra.func_8012E040&#45;&gt;dra.func_8010E27C -->
<g id="edge6" class="edge">
<title>dra.func_8012E040&#45;&gt;dra.func_8010E27C</title>
<path fill="none" stroke="black" d="M1163.15,-179.93C1143.59,-148.57 1101.83,-81.6 1078.82,-44.71"/>
<polygon fill="black" stroke="black" points="1081.66,-42.65 1073.4,-36.02 1075.72,-46.35 1081.66,-42.65"/>
<text text-anchor="middle" x="1068.4" y="-39.82" font-family="Times,serif" font-size="14.00">3</text>
</g>
<!-- dra.func_8011AAFC -->
<g id="node8" class="node">
<title>dra.func_8011AAFC</title>
<g id="a_node8"><a xlink:href="dra.func_8011AAFC.svg" xlink:title="dra.func_8011AAFC">
<ellipse fill="green" stroke="black" cx="1285.79" cy="-18" rx="102.88" ry="18"/>
<text text-anchor="middle" x="1285.79" y="-14.3" font-family="Times,serif" font-size="14.00">dra.func_8011AAFC</text>
</a>
</g>
</g>
<!-- dra.func_8012E040&#45;&gt;dra.func_8011AAFC -->
<g id="edge7" class="edge">
<title>dra.func_8012E040&#45;&gt;dra.func_8011AAFC</title>
<path fill="none" stroke="black" d="M1184.53,-179.93C1204.27,-148.57 1246.4,-81.6 1269.62,-44.71"/>
<polygon fill="black" stroke="black" points="1272.72,-46.34 1275.09,-36.02 1266.8,-42.62 1272.72,-46.34"/>
<text text-anchor="middle" x="1270.09" y="-39.82" font-family="Times,serif" font-size="14.00">2</text>
</g>
<!-- dra.func_8012CA64 -->
<g id="node9" class="node">
<title>dra.func_8012CA64</title>
<g id="a_node9"><a xlink:href="dra.func_8012CA64.svg" xlink:title="dra.func_8012CA64">
<ellipse fill="green" stroke="black" cx="1508.79" cy="-18" rx="102.08" ry="18"/>
<text text-anchor="middle" x="1508.79" y="-14.3" font-family="Times,serif" font-size="14.00">dra.func_8012CA64</text>
</a>
</g>
</g>
<!-- dra.func_8012E040&#45;&gt;dra.func_8012CA64 -->
<g id="edge8" class="edge">
<title>dra.func_8012E040&#45;&gt;dra.func_8012CA64</title>
<path fill="none" stroke="black" d="M1204.41,-180.73C1265.19,-148.44 1401.05,-76.25 1468.79,-40.25"/>
<polygon fill="black" stroke="black" points="1470.69,-43.21 1477.88,-35.42 1467.41,-37.03 1470.69,-43.21"/>
<text text-anchor="middle" x="1472.88" y="-39.22" font-family="Times,serif" font-size="14.00">1</text>
</g>
<!-- dra.func_8012CB4C -->
<g id="node10" class="node">
<title>dra.func_8012CB4C</title>
<g id="a_node10"><a xlink:href="dra.func_8012CB4C.svg" xlink:title="dra.func_8012CB4C">
<ellipse fill="green" stroke="black" cx="1731.79" cy="-18" rx="103.18" ry="18"/>
<text text-anchor="middle" x="1731.79" y="-14.3" font-family="Times,serif" font-size="14.00">dra.func_8012CB4C</text>
</a>
</g>
</g>
<!-- dra.func_8012E040&#45;&gt;dra.func_8012CB4C -->
<g id="edge9" class="edge">
<title>dra.func_8012E040&#45;&gt;dra.func_8012CB4C</title>
<path fill="none" stroke="black" d="M1220.89,-181.98C1323.03,-149.39 1564.62,-72.33 1675,-37.12"/>
<polygon fill="black" stroke="black" points="1676.16,-40.42 1684.63,-34.05 1674.04,-33.75 1676.16,-40.42"/>
<text text-anchor="middle" x="1679.63" y="-37.85" font-family="Times,serif" font-size="14.00">1</text>
</g>
<!-- dra.func_8012CC30 -->
<g id="node11" class="node">
<title>dra.func_8012CC30</title>
<g id="a_node11"><a xlink:href="dra.func_8012CC30.svg" xlink:title="dra.func_8012CC30">
<ellipse fill="green" stroke="black" cx="1955.79" cy="-18" rx="102.88" ry="18"/>
<text text-anchor="middle" x="1955.79" y="-14.3" font-family="Times,serif" font-size="14.00">dra.func_8012CC30</text>
</a>
</g>
</g>
<!-- dra.func_8012E040&#45;&gt;dra.func_8012CC30 -->
<g id="edge10" class="edge">
<title>dra.func_8012E040&#45;&gt;dra.func_8012CC30</title>
<path fill="none" stroke="black" d="M1233.53,-183.4C1375.67,-151.05 1733.43,-69.61 1885.57,-34.98"/>
<polygon fill="black" stroke="black" points="1886.75,-38.3 1895.73,-32.67 1885.2,-31.48 1886.75,-38.3"/>
<text text-anchor="middle" x="1890.73" y="-36.47" font-family="Times,serif" font-size="14.00">1</text>
</g>
<!-- dra.func_8012CED4 -->
<g id="node12" class="node">
<title>dra.func_8012CED4</title>
<g id="a_node12"><a xlink:href="dra.func_8012CED4.svg" xlink:title="dra.func_8012CED4">
<ellipse fill="green" stroke="black" cx="2180.79" cy="-18" rx="103.98" ry="18"/>
<text text-anchor="middle" x="2180.79" y="-14.3" font-family="Times,serif" font-size="14.00">dra.func_8012CED4</text>
</a>
</g>
</g>
<!-- dra.func_8012E040&#45;&gt;dra.func_8012CED4 -->
<g id="edge11" class="edge">
<title>dra.func_8012E040&#45;&gt;dra.func_8012CED4</title>
<path fill="none" stroke="black" d="M1243.01,-184.77C1423.63,-152.84 1908.52,-67.13 2100.73,-33.15"/>
<polygon fill="black" stroke="black" points="2101.52,-36.57 2110.76,-31.38 2100.3,-29.67 2101.52,-36.57"/>
<text text-anchor="middle" x="2105.76" y="-35.18" font-family="Times,serif" font-size="14.00">1</text>
</g>
<!-- dra.func_8012D28C -->
<g id="node13" class="node">
<title>dra.func_8012D28C</title>
<g id="a_node13"><a xlink:href="dra.func_8012D28C.svg" xlink:title="dra.func_8012D28C">
<ellipse fill="green" stroke="black" cx="2405.79" cy="-18" rx="102.88" ry="18"/>
<text text-anchor="middle" x="2405.79" y="-14.3" font-family="Times,serif" font-size="14.00">dra.func_8012D28C</text>
</a>
</g>
</g>
<!-- dra.func_8012E040&#45;&gt;dra.func_8012D28C -->
<g id="edge12" class="edge">
<title>dra.func_8012E040&#45;&gt;dra.func_8012D28C</title>
<path fill="none" stroke="black" d="M1250.54,-186.18C1432.01,-160.55 1901.73,-93.93 2293.79,-36 2302.65,-34.69 2311.9,-33.31 2321.12,-31.92"/>
<polygon fill="black" stroke="black" points="2321.73,-35.37 2331.1,-30.42 2320.69,-28.45 2321.73,-35.37"/>
<text text-anchor="middle" x="2326.1" y="-34.22" font-family="Times,serif" font-size="14.00">2</text>
</g>
<!-- dra.func_8012EF2C -->
<g id="node14" class="node">
<title>dra.func_8012EF2C</title>
<g id="a_node14"><a xlink:href="dra.func_8012EF2C.svg" xlink:title="dra.func_8012EF2C">
<ellipse fill="green" stroke="black" cx="1173.79" cy="-378" rx="102.88" ry="18"/>
<text text-anchor="middle" x="1173.79" y="-374.3" font-family="Times,serif" font-size="14.00">dra.func_8012EF2C</text>
</a>
</g>
</g>
<!-- dra.func_8012EF2C&#45;&gt;dra.func_8012E040 -->
<g id="edge13" class="edge">
<title>dra.func_8012EF2C&#45;&gt;dra.func_8012E040</title>
<path fill="none" stroke="black" d="M1173.79,-359.93C1173.79,-328.97 1173.79,-263.3 1173.79,-226.13"/>
<polygon fill="black" stroke="black" points="1177.29,-226.02 1173.79,-216.02 1170.29,-226.02 1177.29,-226.02"/>
<text text-anchor="middle" x="1168.79" y="-348.73" font-family="Times,serif" font-size="14.00">1</text>
</g>
</g>
</svg>
