<?xml version="1.0" encoding="UTF-8" standalone="no"?>
<!DOCTYPE svg PUBLIC "-//W3C//DTD SVG 1.1//EN"
 "http://www.w3.org/Graphics/SVG/1.1/DTD/svg11.dtd">
<!-- Generated by graphviz version 2.43.0 (0)
 -->
<!-- Title: DrawSettingsButton Pages: 1 -->
<svg width="644pt" height="218pt"
 viewBox="0.00 0.00 643.93 218.00" xmlns="http://www.w3.org/2000/svg" xmlns:xlink="http://www.w3.org/1999/xlink">
<g id="graph0" class="graph" transform="scale(1 1) rotate(0) translate(4 214)">
<title>DrawSettingsButton</title>
<polygon fill="white" stroke="transparent" points="-4,4 -4,-214 639.93,-214 639.93,4 -4,4"/>
<!-- dra/DrawSettingsButton -->
<g id="node1" class="node">
<title>dra/DrawSettingsButton</title>
<ellipse fill="red" stroke="black" cx="310.89" cy="-105" rx="124.58" ry="18"/>
<text text-anchor="middle" x="310.89" y="-101.3" font-family="Times,serif" font-size="14.00">dra/DrawSettingsButton</text>
</g>
<!-- dra/DrawMenuStr -->
<g id="node2" class="node">
<title>dra/DrawMenuStr</title>
<g id="a_node2"><a xlink:href="DrawMenuStr.svg" xlink:title="dra/DrawMenuStr">
<ellipse fill="green" stroke="black" cx="94.89" cy="-18" rx="94.78" ry="18"/>
<text text-anchor="middle" x="94.89" y="-14.3" font-family="Times,serif" font-size="14.00">dra/DrawMenuStr</text>
</a>
</g>
</g>
<!-- dra/DrawSettingsButton&#45;&gt;dra/DrawMenuStr -->
<g id="edge1" class="edge">
<title>dra/DrawSettingsButton&#45;&gt;dra/DrawMenuStr</title>
<path fill="none" stroke="black" d="M270.01,-87.91C234.04,-73.76 181.62,-53.13 143.51,-38.13"/>
<polygon fill="black" stroke="black" points="144.74,-34.85 134.15,-34.45 142.17,-41.37 144.74,-34.85"/>
<text text-anchor="middle" x="220.89" y="-57.8" font-family="Times,serif" font-size="14.00">1</text>
</g>
<!-- dra/DrawMenuChar -->
<g id="node3" class="node">
<title>dra/DrawMenuChar</title>
<g id="a_node3"><a xlink:href="DrawMenuChar.svg" xlink:title="dra/DrawMenuChar">
<ellipse fill="green" stroke="black" cx="310.89" cy="-18" rx="102.88" ry="18"/>
<text text-anchor="middle" x="310.89" y="-14.3" font-family="Times,serif" font-size="14.00">dra/DrawMenuChar</text>
</a>
</g>
</g>
<!-- dra/DrawSettingsButton&#45;&gt;dra/DrawMenuChar -->
<g id="edge2" class="edge">
<title>dra/DrawSettingsButton&#45;&gt;dra/DrawMenuChar</title>
<path fill="none" stroke="black" d="M310.89,-86.8C310.89,-75.16 310.89,-59.55 310.89,-46.24"/>
<polygon fill="black" stroke="black" points="314.39,-46.18 310.89,-36.18 307.39,-46.18 314.39,-46.18"/>
<text text-anchor="middle" x="315.89" y="-57.8" font-family="Times,serif" font-size="14.00">2</text>
</g>
<!-- dra/func_800F5E68 -->
<g id="node4" class="node">
<title>dra/func_800F5E68</title>
<g id="a_node4"><a xlink:href="func_800F5E68.svg" xlink:title="dra/func_800F5E68">
<ellipse fill="green" stroke="black" cx="533.89" cy="-18" rx="102.08" ry="18"/>
<text text-anchor="middle" x="533.89" y="-14.3" font-family="Times,serif" font-size="14.00">dra/func_800F5E68</text>
</a>
</g>
</g>
<!-- dra/DrawSettingsButton&#45;&gt;dra/func_800F5E68 -->
<g id="edge3" class="edge">
<title>dra/DrawSettingsButton&#45;&gt;dra/func_800F5E68</title>
<path fill="none" stroke="black" d="M352.84,-88.01C389.82,-73.91 443.81,-53.34 483.21,-38.32"/>
<polygon fill="black" stroke="black" points="484.79,-41.46 492.89,-34.63 482.3,-34.92 484.79,-41.46"/>
<text text-anchor="middle" x="439.89" y="-57.8" font-family="Times,serif" font-size="14.00">1</text>
</g>
<!-- dra/func_800F8F28 -->
<g id="node5" class="node">
<title>dra/func_800F8F28</title>
<g id="a_node5"><a xlink:href="func_800F8F28.svg" xlink:title="dra/func_800F8F28">
<ellipse fill="red" stroke="black" cx="310.89" cy="-192" rx="101.28" ry="18"/>
<text text-anchor="middle" x="310.89" y="-188.3" font-family="Times,serif" font-size="14.00">dra/func_800F8F28</text>
</a>
</g>
</g>
<!-- dra/func_800F8F28&#45;&gt;dra/DrawSettingsButton -->
<g id="edge4" class="edge">
<title>dra/func_800F8F28&#45;&gt;dra/DrawSettingsButton</title>
<path fill="none" stroke="black" d="M310.89,-173.8C310.89,-162.16 310.89,-146.55 310.89,-133.24"/>
<polygon fill="black" stroke="black" points="314.39,-133.18 310.89,-123.18 307.39,-133.18 314.39,-133.18"/>
<text text-anchor="middle" x="315.89" y="-144.8" font-family="Times,serif" font-size="14.00">1</text>
</g>
</g>
</svg>
