<?xml version="1.0" encoding="UTF-8" standalone="no"?>
<!DOCTYPE svg PUBLIC "-//W3C//DTD SVG 1.1//EN"
 "http://www.w3.org/Graphics/SVG/1.1/DTD/svg11.dtd">
<!-- Generated by graphviz version 2.43.0 (0)
 -->
<!-- Title: dre.func_8019AD2C Pages: 1 -->
<svg width="440pt" height="404pt"
 viewBox="0.00 0.00 439.68 404.00" xmlns="http://www.w3.org/2000/svg" xmlns:xlink="http://www.w3.org/1999/xlink">
<g id="graph0" class="graph" transform="scale(1 1) rotate(0) translate(4 400)">
<title>dre.func_8019AD2C</title>
<polygon fill="white" stroke="transparent" points="-4,4 -4,-400 435.68,-400 435.68,4 -4,4"/>
<!-- dre.func_8019AD2C -->
<g id="node1" class="node">
<title>dre.func_8019AD2C</title>
<ellipse fill="green" stroke="black" cx="215.99" cy="-198" rx="103.18" ry="18"/>
<text text-anchor="middle" x="215.99" y="-194.3" font-family="Times,serif" font-size="14.00">dre.func_8019AD2C</text>
</g>
<!-- ratan2 -->
<g id="node2" class="node">
<title>ratan2</title>
<g id="a_node2"><a xlink:href="ratan2.svg" xlink:title="ratan2">
<ellipse fill="lightblue" stroke="black" cx="215.99" cy="-18" rx="41.69" ry="18"/>
<text text-anchor="middle" x="215.99" y="-14.3" font-family="Times,serif" font-size="14.00">ratan2</text>
</a>
</g>
</g>
<!-- dre.func_8019AD2C&#45;&gt;ratan2 -->
<g id="edge1" class="edge">
<title>dre.func_8019AD2C&#45;&gt;ratan2</title>
<path fill="none" stroke="black" d="M215.99,-179.93C215.99,-148.97 215.99,-83.3 215.99,-46.13"/>
<polygon fill="black" stroke="black" points="219.49,-46.02 215.99,-36.02 212.49,-46.02 219.49,-46.02"/>
<text text-anchor="middle" x="210.99" y="-39.82" font-family="Times,serif" font-size="14.00">1</text>
</g>
<!-- dre.func_8019ADAC -->
<g id="node3" class="node">
<title>dre.func_8019ADAC</title>
<g id="a_node3"><a xlink:href="dre.func_8019ADAC.svg" xlink:title="dre.func_8019ADAC">
<ellipse fill="green" stroke="black" cx="103.99" cy="-378" rx="103.98" ry="18"/>
<text text-anchor="middle" x="103.99" y="-374.3" font-family="Times,serif" font-size="14.00">dre.func_8019ADAC</text>
</a>
</g>
</g>
<!-- dre.func_8019ADAC&#45;&gt;dre.func_8019AD2C -->
<g id="edge2" class="edge">
<title>dre.func_8019ADAC&#45;&gt;dre.func_8019AD2C</title>
<path fill="none" stroke="black" d="M114.73,-359.93C134.47,-328.57 176.6,-261.6 199.82,-224.71"/>
<polygon fill="black" stroke="black" points="202.92,-226.34 205.28,-216.02 197,-222.62 202.92,-226.34"/>
<text text-anchor="middle" x="109.73" y="-348.73" font-family="Times,serif" font-size="14.00">1</text>
</g>
<!-- dre.func_8019AD64 -->
<g id="node4" class="node">
<title>dre.func_8019AD64</title>
<g id="a_node4"><a xlink:href="dre.func_8019AD64.svg" xlink:title="dre.func_8019AD64">
<ellipse fill="green" stroke="black" cx="328.99" cy="-378" rx="102.88" ry="18"/>
<text text-anchor="middle" x="328.99" y="-374.3" font-family="Times,serif" font-size="14.00">dre.func_8019AD64</text>
</a>
</g>
</g>
<!-- dre.func_8019AD64&#45;&gt;dre.func_8019AD2C -->
<g id="edge3" class="edge">
<title>dre.func_8019AD64&#45;&gt;dre.func_8019AD2C</title>
<path fill="none" stroke="black" d="M318.16,-359.93C298.24,-328.57 255.73,-261.6 232.31,-224.71"/>
<polygon fill="black" stroke="black" points="235.11,-222.58 226.79,-216.02 229.2,-226.33 235.11,-222.58"/>
<text text-anchor="middle" x="313.16" y="-348.73" font-family="Times,serif" font-size="14.00">1</text>
</g>
</g>
</svg>
