<?xml version="1.0" encoding="UTF-8" standalone="no"?>
<!DOCTYPE svg PUBLIC "-//W3C//DTD SVG 1.1//EN"
 "http://www.w3.org/Graphics/SVG/1.1/DTD/svg11.dtd">
<!-- Generated by graphviz version 2.43.0 (0)
 -->
<!-- Title: dre.EntitySuccubusPetal Pages: 1 -->
<svg width="1472pt" height="131pt"
 viewBox="0.00 0.00 1471.79 131.00" xmlns="http://www.w3.org/2000/svg" xmlns:xlink="http://www.w3.org/1999/xlink">
<g id="graph0" class="graph" transform="scale(1 1) rotate(0) translate(4 127)">
<title>dre.EntitySuccubusPetal</title>
<polygon fill="white" stroke="transparent" points="-4,4 -4,-127 1467.79,-127 1467.79,4 -4,4"/>
<!-- dre.EntitySuccubusPetal -->
<g id="node1" class="node">
<title>dre.EntitySuccubusPetal</title>
<ellipse fill="green" stroke="black" cx="939.59" cy="-105" rx="126.18" ry="18"/>
<text text-anchor="middle" x="939.59" y="-101.3" font-family="Times,serif" font-size="14.00">dre.EntitySuccubusPetal</text>
</g>
<!-- dre.AllocEntity -->
<g id="node2" class="node">
<title>dre.AllocEntity</title>
<g id="a_node2"><a xlink:href="dre.AllocEntity.svg" xlink:title="dre.AllocEntity">
<ellipse fill="green" stroke="black" cx="80.59" cy="-18" rx="80.69" ry="18"/>
<text text-anchor="middle" x="80.59" y="-14.3" font-family="Times,serif" font-size="14.00">dre.AllocEntity</text>
</a>
</g>
</g>
<!-- dre.EntitySuccubusPetal&#45;&gt;dre.AllocEntity -->
<g id="edge1" class="edge">
<title>dre.EntitySuccubusPetal&#45;&gt;dre.AllocEntity</title>
<path fill="none" stroke="black" d="M825.19,-97.41C674.62,-87.94 401.93,-68 170.59,-36 163.25,-34.99 155.61,-33.78 148.01,-32.48"/>
<polygon fill="black" stroke="black" points="148.52,-29.02 138.07,-30.73 147.31,-35.91 148.52,-29.02"/>
<text text-anchor="middle" x="450.59" y="-57.8" font-family="Times,serif" font-size="14.00">1</text>
</g>
<!-- dre.CreateEntityFromEntity -->
<g id="node3" class="node">
<title>dre.CreateEntityFromEntity</title>
<g id="a_node3"><a xlink:href="dre.CreateEntityFromEntity.svg" xlink:title="dre.CreateEntityFromEntity">
<ellipse fill="green" stroke="black" cx="322.59" cy="-18" rx="142.97" ry="18"/>
<text text-anchor="middle" x="322.59" y="-14.3" font-family="Times,serif" font-size="14.00">dre.CreateEntityFromEntity</text>
</a>
</g>
</g>
<!-- dre.EntitySuccubusPetal&#45;&gt;dre.CreateEntityFromEntity -->
<g id="edge2" class="edge">
<title>dre.EntitySuccubusPetal&#45;&gt;dre.CreateEntityFromEntity</title>
<path fill="none" stroke="black" d="M852.17,-91.96C739.76,-76.47 544.84,-49.62 425.43,-33.17"/>
<polygon fill="black" stroke="black" points="425.56,-29.65 415.18,-31.76 424.61,-36.59 425.56,-29.65"/>
<text text-anchor="middle" x="673.59" y="-57.8" font-family="Times,serif" font-size="14.00">1</text>
</g>
<!-- dre.DestroyEntity -->
<g id="node4" class="node">
<title>dre.DestroyEntity</title>
<g id="a_node4"><a xlink:href="dre.DestroyEntity.svg" xlink:title="dre.DestroyEntity">
<ellipse fill="green" stroke="black" cx="578.59" cy="-18" rx="94.78" ry="18"/>
<text text-anchor="middle" x="578.59" y="-14.3" font-family="Times,serif" font-size="14.00">dre.DestroyEntity</text>
</a>
</g>
</g>
<!-- dre.EntitySuccubusPetal&#45;&gt;dre.DestroyEntity -->
<g id="edge3" class="edge">
<title>dre.EntitySuccubusPetal&#45;&gt;dre.DestroyEntity</title>
<path fill="none" stroke="black" d="M877.12,-89.29C812.44,-74.06 711.74,-50.35 645.47,-34.75"/>
<polygon fill="black" stroke="black" points="646.08,-31.29 635.54,-32.41 644.48,-38.11 646.08,-31.29"/>
<text text-anchor="middle" x="786.59" y="-57.8" font-family="Times,serif" font-size="14.00">1</text>
</g>
<!-- dre.InitializeEntity -->
<g id="node5" class="node">
<title>dre.InitializeEntity</title>
<g id="a_node5"><a xlink:href="dre.InitializeEntity.svg" xlink:title="dre.InitializeEntity">
<ellipse fill="green" stroke="black" cx="790.59" cy="-18" rx="98.58" ry="18"/>
<text text-anchor="middle" x="790.59" y="-14.3" font-family="Times,serif" font-size="14.00">dre.InitializeEntity</text>
</a>
</g>
</g>
<!-- dre.EntitySuccubusPetal&#45;&gt;dre.InitializeEntity -->
<g id="edge4" class="edge">
<title>dre.EntitySuccubusPetal&#45;&gt;dre.InitializeEntity</title>
<path fill="none" stroke="black" d="M910.51,-87.41C886.87,-73.93 853.37,-54.81 827.79,-40.22"/>
<polygon fill="black" stroke="black" points="829.52,-37.18 819.1,-35.26 826.05,-43.26 829.52,-37.18"/>
<text text-anchor="middle" x="879.59" y="-57.8" font-family="Times,serif" font-size="14.00">1</text>
</g>
<!-- rand -->
<g id="node6" class="node">
<title>rand</title>
<g id="a_node6"><a xlink:href="rand.svg" xlink:title="rand">
<ellipse fill="lightblue" stroke="black" cx="939.59" cy="-18" rx="32.49" ry="18"/>
<text text-anchor="middle" x="939.59" y="-14.3" font-family="Times,serif" font-size="14.00">rand</text>
</a>
</g>
</g>
<!-- dre.EntitySuccubusPetal&#45;&gt;rand -->
<g id="edge5" class="edge">
<title>dre.EntitySuccubusPetal&#45;&gt;rand</title>
<path fill="none" stroke="black" d="M939.59,-86.8C939.59,-75.16 939.59,-59.55 939.59,-46.24"/>
<polygon fill="black" stroke="black" points="943.09,-46.18 939.59,-36.18 936.09,-46.18 943.09,-46.18"/>
<text text-anchor="middle" x="944.59" y="-57.8" font-family="Times,serif" font-size="14.00">2</text>
</g>
<!-- dre.Random -->
<g id="node7" class="node">
<title>dre.Random</title>
<g id="a_node7"><a xlink:href="dre.Random.svg" xlink:title="dre.Random">
<ellipse fill="green" stroke="black" cx="1057.59" cy="-18" rx="67.69" ry="18"/>
<text text-anchor="middle" x="1057.59" y="-14.3" font-family="Times,serif" font-size="14.00">dre.Random</text>
</a>
</g>
</g>
<!-- dre.EntitySuccubusPetal&#45;&gt;dre.Random -->
<g id="edge6" class="edge">
<title>dre.EntitySuccubusPetal&#45;&gt;dre.Random</title>
<path fill="none" stroke="black" d="M962.91,-87.21C981.24,-74 1006.94,-55.48 1026.94,-41.08"/>
<polygon fill="black" stroke="black" points="1029.06,-43.87 1035.13,-35.18 1024.97,-38.19 1029.06,-43.87"/>
<text text-anchor="middle" x="1011.59" y="-57.8" font-family="Times,serif" font-size="14.00">4</text>
</g>
<!-- rcos -->
<g id="node8" class="node">
<title>rcos</title>
<g id="a_node8"><a xlink:href="rcos.svg" xlink:title="rcos">
<ellipse fill="lightblue" stroke="black" cx="1173.59" cy="-18" rx="30.59" ry="18"/>
<text text-anchor="middle" x="1173.59" y="-14.3" font-family="Times,serif" font-size="14.00">rcos</text>
</a>
</g>
</g>
<!-- dre.EntitySuccubusPetal&#45;&gt;rcos -->
<g id="edge7" class="edge">
<title>dre.EntitySuccubusPetal&#45;&gt;rcos</title>
<path fill="none" stroke="black" d="M988.05,-88.24C1027.73,-75.06 1085.18,-55.35 1134.59,-36 1136.45,-35.27 1138.35,-34.51 1140.26,-33.73"/>
<polygon fill="black" stroke="black" points="1141.93,-36.82 1149.79,-29.72 1139.21,-30.37 1141.93,-36.82"/>
<text text-anchor="middle" x="1086.59" y="-57.8" font-family="Times,serif" font-size="14.00">1</text>
</g>
<!-- rsin -->
<g id="node9" class="node">
<title>rsin</title>
<g id="a_node9"><a xlink:href="rsin.svg" xlink:title="rsin">
<ellipse fill="lightblue" stroke="black" cx="1250.59" cy="-18" rx="28.7" ry="18"/>
<text text-anchor="middle" x="1250.59" y="-14.3" font-family="Times,serif" font-size="14.00">rsin</text>
</a>
</g>
</g>
<!-- dre.EntitySuccubusPetal&#45;&gt;rsin -->
<g id="edge8" class="edge">
<title>dre.EntitySuccubusPetal&#45;&gt;rsin</title>
<path fill="none" stroke="black" d="M1012.99,-90.3C1068.92,-78.79 1147.33,-60.31 1213.59,-36 1215.43,-35.32 1217.31,-34.6 1219.19,-33.83"/>
<polygon fill="black" stroke="black" points="1220.72,-36.99 1228.53,-29.83 1217.96,-30.55 1220.72,-36.99"/>
<text text-anchor="middle" x="1160.59" y="-57.8" font-family="Times,serif" font-size="14.00">1</text>
</g>
<!-- dre.MoveEntity -->
<g id="node10" class="node">
<title>dre.MoveEntity</title>
<g id="a_node10"><a xlink:href="dre.MoveEntity.svg" xlink:title="dre.MoveEntity">
<ellipse fill="green" stroke="black" cx="1380.59" cy="-18" rx="83.39" ry="18"/>
<text text-anchor="middle" x="1380.59" y="-14.3" font-family="Times,serif" font-size="14.00">dre.MoveEntity</text>
</a>
</g>
</g>
<!-- dre.EntitySuccubusPetal&#45;&gt;dre.MoveEntity -->
<g id="edge9" class="edge">
<title>dre.EntitySuccubusPetal&#45;&gt;dre.MoveEntity</title>
<path fill="none" stroke="black" d="M1028.63,-92.18C1071.4,-86.06 1123.3,-77.99 1169.59,-69 1220.57,-59.1 1277.87,-45.35 1319.88,-34.78"/>
<polygon fill="black" stroke="black" points="1320.85,-38.14 1329.68,-32.3 1319.13,-31.36 1320.85,-38.14"/>
<text text-anchor="middle" x="1244.59" y="-57.8" font-family="Times,serif" font-size="14.00">2</text>
</g>
</g>
</svg>
