<?xml version="1.0" encoding="UTF-8" standalone="no"?>
<!DOCTYPE svg PUBLIC "-//W3C//DTD SVG 1.1//EN"
 "http://www.w3.org/Graphics/SVG/1.1/DTD/svg11.dtd">
<!-- Generated by graphviz version 2.43.0 (0)
 -->
<!-- Title: dre.EntityFadeToWhite1 Pages: 1 -->
<svg width="776pt" height="224pt"
 viewBox="0.00 0.00 776.33 224.00" xmlns="http://www.w3.org/2000/svg" xmlns:xlink="http://www.w3.org/1999/xlink">
<g id="graph0" class="graph" transform="scale(1 1) rotate(0) translate(4 220)">
<title>dre.EntityFadeToWhite1</title>
<polygon fill="white" stroke="transparent" points="-4,4 -4,-220 772.33,-220 772.33,4 -4,4"/>
<!-- dre.EntityFadeToWhite1 -->
<g id="node1" class="node">
<title>dre.EntityFadeToWhite1</title>
<ellipse fill="red" stroke="black" cx="405.44" cy="-198" rx="124.28" ry="18"/>
<text text-anchor="middle" x="405.44" y="-194.3" font-family="Times,serif" font-size="14.00">dre.EntityFadeToWhite1</text>
</g>
<!-- dra.AllocPrimitives -->
<g id="node2" class="node">
<title>dra.AllocPrimitives</title>
<g id="a_node2"><a xlink:href="dra.AllocPrimitives.svg" xlink:title="dra.AllocPrimitives">
<ellipse fill="green" stroke="black" cx="99.44" cy="-18" rx="99.38" ry="18"/>
<text text-anchor="middle" x="99.44" y="-14.3" font-family="Times,serif" font-size="14.00">dra.AllocPrimitives</text>
</a>
</g>
</g>
<!-- dre.EntityFadeToWhite1&#45;&gt;dra.AllocPrimitives -->
<g id="edge1" class="edge">
<title>dre.EntityFadeToWhite1&#45;&gt;dra.AllocPrimitives</title>
<path fill="none" stroke="black" d="M376.93,-180.41C321.21,-148 197.95,-76.3 136.2,-40.38"/>
<polygon fill="black" stroke="black" points="137.95,-37.35 127.55,-35.35 134.43,-43.4 137.95,-37.35"/>
<text text-anchor="middle" x="122.55" y="-39.15" font-family="Times,serif" font-size="14.00">1</text>
</g>
<!-- dre.InitializeEntity -->
<g id="node3" class="node">
<title>dre.InitializeEntity</title>
<g id="a_node3"><a xlink:href="dre.InitializeEntity.svg" xlink:title="dre.InitializeEntity">
<ellipse fill="green" stroke="black" cx="315.44" cy="-18" rx="98.58" ry="18"/>
<text text-anchor="middle" x="315.44" y="-14.3" font-family="Times,serif" font-size="14.00">dre.InitializeEntity</text>
</a>
</g>
</g>
<!-- dre.EntityFadeToWhite1&#45;&gt;dre.InitializeEntity -->
<g id="edge2" class="edge">
<title>dre.EntityFadeToWhite1&#45;&gt;dre.InitializeEntity</title>
<path fill="none" stroke="black" d="M396.81,-179.93C381.02,-148.7 347.38,-82.17 328.68,-45.18"/>
<polygon fill="black" stroke="black" points="331.68,-43.36 324.04,-36.02 325.43,-46.52 331.68,-43.36"/>
<text text-anchor="middle" x="319.04" y="-39.82" font-family="Times,serif" font-size="14.00">1</text>
</g>
<!-- dra.PlaySfx -->
<g id="node4" class="node">
<title>dra.PlaySfx</title>
<g id="a_node4"><a xlink:href="dra.PlaySfx.svg" xlink:title="dra.PlaySfx">
<ellipse fill="green" stroke="black" cx="496.44" cy="-18" rx="64.19" ry="18"/>
<text text-anchor="middle" x="496.44" y="-14.3" font-family="Times,serif" font-size="14.00">dra.PlaySfx</text>
</a>
</g>
</g>
<!-- dre.EntityFadeToWhite1&#45;&gt;dra.PlaySfx -->
<g id="edge3" class="edge">
<title>dre.EntityFadeToWhite1&#45;&gt;dra.PlaySfx</title>
<path fill="none" stroke="black" d="M414.17,-179.93C430.13,-148.7 464.15,-82.17 483.06,-45.18"/>
<polygon fill="black" stroke="black" points="486.31,-46.51 487.74,-36.02 480.07,-43.33 486.31,-46.51"/>
<text text-anchor="middle" x="482.74" y="-39.82" font-family="Times,serif" font-size="14.00">4</text>
</g>
<!-- dre.DestroyEntity -->
<g id="node5" class="node">
<title>dre.DestroyEntity</title>
<g id="a_node5"><a xlink:href="dre.DestroyEntity.svg" xlink:title="dre.DestroyEntity">
<ellipse fill="green" stroke="black" cx="673.44" cy="-18" rx="94.78" ry="18"/>
<text text-anchor="middle" x="673.44" y="-14.3" font-family="Times,serif" font-size="14.00">dre.DestroyEntity</text>
</a>
</g>
</g>
<!-- dre.EntityFadeToWhite1&#45;&gt;dre.DestroyEntity -->
<g id="edge4" class="edge">
<title>dre.EntityFadeToWhite1&#45;&gt;dre.DestroyEntity</title>
<path fill="none" stroke="black" d="M430.65,-180.25C479.16,-148.04 585.49,-77.42 639.9,-41.27"/>
<polygon fill="black" stroke="black" points="642.1,-44.02 648.49,-35.57 638.22,-38.19 642.1,-44.02"/>
<text text-anchor="middle" x="643.49" y="-39.37" font-family="Times,serif" font-size="14.00">1</text>
</g>
</g>
</svg>
