<?xml version="1.0" encoding="UTF-8" standalone="no"?>
<!DOCTYPE svg PUBLIC "-//W3C//DTD SVG 1.1//EN"
 "http://www.w3.org/Graphics/SVG/1.1/DTD/svg11.dtd">
<!-- Generated by graphviz version 2.43.0 (0)
 -->
<!-- Title: dre.FallEntity Pages: 1 -->
<svg width="1166pt" height="224pt"
 viewBox="0.00 0.00 1165.68 224.00" xmlns="http://www.w3.org/2000/svg" xmlns:xlink="http://www.w3.org/1999/xlink">
<g id="graph0" class="graph" transform="scale(1 1) rotate(0) translate(4 220)">
<title>dre.FallEntity</title>
<polygon fill="white" stroke="transparent" points="-4,4 -4,-220 1161.68,-220 1161.68,4 -4,4"/>
<!-- dre.FallEntity -->
<g id="node1" class="node">
<title>dre.FallEntity</title>
<ellipse fill="green" stroke="black" cx="604.04" cy="-18" rx="75.29" ry="18"/>
<text text-anchor="middle" x="604.04" y="-14.3" font-family="Times,serif" font-size="14.00">dre.FallEntity</text>
</g>
<!-- dre.func_8019E9F4 -->
<g id="node2" class="node">
<title>dre.func_8019E9F4</title>
<g id="a_node2"><a xlink:href="dre.func_8019E9F4.svg" xlink:title="dre.func_8019E9F4">
<ellipse fill="green" stroke="black" cx="102.04" cy="-198" rx="102.08" ry="18"/>
<text text-anchor="middle" x="102.04" y="-194.3" font-family="Times,serif" font-size="14.00">dre.func_8019E9F4</text>
</a>
</g>
</g>
<!-- dre.func_8019E9F4&#45;&gt;dre.FallEntity -->
<g id="edge1" class="edge">
<title>dre.func_8019E9F4&#45;&gt;dre.FallEntity</title>
<path fill="none" stroke="black" d="M145.28,-181.67C238.03,-148.78 455.67,-71.61 554.12,-36.7"/>
<polygon fill="black" stroke="black" points="555.29,-40 563.55,-33.36 552.95,-33.4 555.29,-40"/>
<text text-anchor="middle" x="140.28" y="-170.47" font-family="Times,serif" font-size="14.00">1</text>
</g>
<!-- dre.EntityEquipItemDrop -->
<g id="node3" class="node">
<title>dre.EntityEquipItemDrop</title>
<g id="a_node3"><a xlink:href="dre.EntityEquipItemDrop.svg" xlink:title="dre.EntityEquipItemDrop">
<ellipse fill="green" stroke="black" cx="352.04" cy="-198" rx="129.98" ry="18"/>
<text text-anchor="middle" x="352.04" y="-194.3" font-family="Times,serif" font-size="14.00">dre.EntityEquipItemDrop</text>
</a>
</g>
</g>
<!-- dre.EntityEquipItemDrop&#45;&gt;dre.FallEntity -->
<g id="edge2" class="edge">
<title>dre.EntityEquipItemDrop&#45;&gt;dre.FallEntity</title>
<path fill="none" stroke="black" d="M375.75,-180.25C421.38,-148.02 521.43,-77.35 572.58,-41.22"/>
<polygon fill="black" stroke="black" points="574.8,-43.94 580.94,-35.31 570.76,-38.22 574.8,-43.94"/>
<text text-anchor="middle" x="370.75" y="-169.05" font-family="Times,serif" font-size="14.00">1</text>
</g>
<!-- dre.func_8019B8DC -->
<g id="node4" class="node">
<title>dre.func_8019B8DC</title>
<g id="a_node4"><a xlink:href="dre.func_8019B8DC.svg" xlink:title="dre.func_8019B8DC">
<ellipse fill="green" stroke="black" cx="604.04" cy="-198" rx="103.98" ry="18"/>
<text text-anchor="middle" x="604.04" y="-194.3" font-family="Times,serif" font-size="14.00">dre.func_8019B8DC</text>
</a>
</g>
</g>
<!-- dre.func_8019B8DC&#45;&gt;dre.FallEntity -->
<g id="edge3" class="edge">
<title>dre.func_8019B8DC&#45;&gt;dre.FallEntity</title>
<path fill="none" stroke="black" d="M604.04,-179.93C604.04,-148.97 604.04,-83.3 604.04,-46.13"/>
<polygon fill="black" stroke="black" points="607.54,-46.02 604.04,-36.02 600.54,-46.02 607.54,-46.02"/>
<text text-anchor="middle" x="599.04" y="-168.73" font-family="Times,serif" font-size="14.00">1</text>
</g>
<!-- dre.func_8019A7B8 -->
<g id="node5" class="node">
<title>dre.func_8019A7B8</title>
<g id="a_node5"><a xlink:href="dre.func_8019A7B8.svg" xlink:title="dre.func_8019A7B8">
<ellipse fill="green" stroke="black" cx="828.04" cy="-198" rx="102.08" ry="18"/>
<text text-anchor="middle" x="828.04" y="-194.3" font-family="Times,serif" font-size="14.00">dre.func_8019A7B8</text>
</a>
</g>
</g>
<!-- dre.func_8019A7B8&#45;&gt;dre.FallEntity -->
<g id="edge4" class="edge">
<title>dre.func_8019A7B8&#45;&gt;dre.FallEntity</title>
<path fill="none" stroke="black" d="M806.97,-180.25C766.67,-148.24 678.65,-78.29 632.92,-41.95"/>
<polygon fill="black" stroke="black" points="634.9,-39.05 624.9,-35.57 630.55,-44.53 634.9,-39.05"/>
<text text-anchor="middle" x="801.97" y="-169.05" font-family="Times,serif" font-size="14.00">1</text>
</g>
<!-- dre.EntityPrizeDrop -->
<g id="node6" class="node">
<title>dre.EntityPrizeDrop</title>
<g id="a_node6"><a xlink:href="dre.EntityPrizeDrop.svg" xlink:title="dre.EntityPrizeDrop">
<ellipse fill="red" stroke="black" cx="1053.04" cy="-198" rx="104.78" ry="18"/>
<text text-anchor="middle" x="1053.04" y="-194.3" font-family="Times,serif" font-size="14.00">dre.EntityPrizeDrop</text>
</a>
</g>
</g>
<!-- dre.EntityPrizeDrop&#45;&gt;dre.FallEntity -->
<g id="edge5" class="edge">
<title>dre.EntityPrizeDrop&#45;&gt;dre.FallEntity</title>
<path fill="none" stroke="black" d="M1013.2,-181.2C930.24,-148.32 739.36,-72.65 650.78,-37.53"/>
<polygon fill="black" stroke="black" points="651.85,-34.19 641.26,-33.75 649.27,-40.69 651.85,-34.19"/>
<text text-anchor="middle" x="1008.2" y="-170" font-family="Times,serif" font-size="14.00">2</text>
</g>
</g>
</svg>
