<?xml version="1.0" encoding="UTF-8" standalone="no"?>
<!DOCTYPE svg PUBLIC "-//W3C//DTD SVG 1.1//EN"
 "http://www.w3.org/Graphics/SVG/1.1/DTD/svg11.dtd">
<!-- Generated by graphviz version 2.43.0 (0)
 -->
<!-- Title: dre.func_80194AA0 Pages: 1 -->
<svg width="414pt" height="218pt"
 viewBox="0.00 0.00 414.33 218.00" xmlns="http://www.w3.org/2000/svg" xmlns:xlink="http://www.w3.org/1999/xlink">
<g id="graph0" class="graph" transform="scale(1 1) rotate(0) translate(4 214)">
<title>dre.func_80194AA0</title>
<polygon fill="white" stroke="transparent" points="-4,4 -4,-214 410.33,-214 410.33,4 -4,4"/>
<!-- dre.func_80194AA0 -->
<g id="node1" class="node">
<title>dre.func_80194AA0</title>
<ellipse fill="red" stroke="black" cx="205.44" cy="-105" rx="101.28" ry="18"/>
<text text-anchor="middle" x="205.44" y="-101.3" font-family="Times,serif" font-size="14.00">dre.func_80194AA0</text>
</g>
<!-- dra.AllocPrimitives -->
<g id="node2" class="node">
<title>dra.AllocPrimitives</title>
<g id="a_node2"><a xlink:href="dra.AllocPrimitives.svg" xlink:title="dra.AllocPrimitives">
<ellipse fill="green" stroke="black" cx="99.44" cy="-18" rx="99.38" ry="18"/>
<text text-anchor="middle" x="99.44" y="-14.3" font-family="Times,serif" font-size="14.00">dra.AllocPrimitives</text>
</a>
</g>
</g>
<!-- dre.func_80194AA0&#45;&gt;dra.AllocPrimitives -->
<g id="edge1" class="edge">
<title>dre.func_80194AA0&#45;&gt;dra.AllocPrimitives</title>
<path fill="none" stroke="black" d="M184.5,-87.21C168.38,-74.28 145.93,-56.28 128.15,-42.02"/>
<polygon fill="black" stroke="black" points="130.33,-39.28 120.34,-35.76 125.95,-44.74 130.33,-39.28"/>
<text text-anchor="middle" x="164.44" y="-57.8" font-family="Times,serif" font-size="14.00">1</text>
</g>
<!-- dre.DestroyEntity -->
<g id="node3" class="node">
<title>dre.DestroyEntity</title>
<g id="a_node3"><a xlink:href="dre.DestroyEntity.svg" xlink:title="dre.DestroyEntity">
<ellipse fill="green" stroke="black" cx="311.44" cy="-18" rx="94.78" ry="18"/>
<text text-anchor="middle" x="311.44" y="-14.3" font-family="Times,serif" font-size="14.00">dre.DestroyEntity</text>
</a>
</g>
</g>
<!-- dre.func_80194AA0&#45;&gt;dre.DestroyEntity -->
<g id="edge2" class="edge">
<title>dre.func_80194AA0&#45;&gt;dre.DestroyEntity</title>
<path fill="none" stroke="black" d="M226.38,-87.21C242.5,-74.28 264.95,-56.28 282.74,-42.02"/>
<polygon fill="black" stroke="black" points="284.93,-44.74 290.54,-35.76 280.55,-39.28 284.93,-44.74"/>
<text text-anchor="middle" x="269.44" y="-57.8" font-family="Times,serif" font-size="14.00">1</text>
</g>
<!-- dre.EntitySuccubusCutscene -->
<g id="node4" class="node">
<title>dre.EntitySuccubusCutscene</title>
<g id="a_node4"><a xlink:href="dre.EntitySuccubusCutscene.svg" xlink:title="dre.EntitySuccubusCutscene">
<ellipse fill="red" stroke="black" cx="205.44" cy="-192" rx="145.67" ry="18"/>
<text text-anchor="middle" x="205.44" y="-188.3" font-family="Times,serif" font-size="14.00">dre.EntitySuccubusCutscene</text>
</a>
</g>
</g>
<!-- dre.EntitySuccubusCutscene&#45;&gt;dre.func_80194AA0 -->
<g id="edge3" class="edge">
<title>dre.EntitySuccubusCutscene&#45;&gt;dre.func_80194AA0</title>
<path fill="none" stroke="black" d="M205.44,-173.8C205.44,-162.16 205.44,-146.55 205.44,-133.24"/>
<polygon fill="black" stroke="black" points="208.94,-133.18 205.44,-123.18 201.94,-133.18 208.94,-133.18"/>
<text text-anchor="middle" x="210.44" y="-144.8" font-family="Times,serif" font-size="14.00">1</text>
</g>
</g>
</svg>
