<?xml version="1.0" encoding="UTF-8" standalone="no"?>
<!DOCTYPE svg PUBLIC "-//W3C//DTD SVG 1.1//EN"
 "http://www.w3.org/Graphics/SVG/1.1/DTD/svg11.dtd">
<!-- Generated by graphviz version 2.43.0 (0)
 -->
<!-- Title: dre.AllocEntity Pages: 1 -->
<svg width="2285pt" height="218pt"
 viewBox="0.00 0.00 2284.63 218.00" xmlns="http://www.w3.org/2000/svg" xmlns:xlink="http://www.w3.org/1999/xlink">
<g id="graph0" class="graph" transform="scale(1 1) rotate(0) translate(4 214)">
<title>dre.AllocEntity</title>
<polygon fill="white" stroke="transparent" points="-4,4 -4,-214 2280.63,-214 2280.63,4 -4,4"/>
<!-- dre.AllocEntity -->
<g id="node1" class="node">
<title>dre.AllocEntity</title>
<ellipse fill="green" stroke="black" cx="1177.59" cy="-105" rx="80.69" ry="18"/>
<text text-anchor="middle" x="1177.59" y="-101.3" font-family="Times,serif" font-size="14.00">dre.AllocEntity</text>
</g>
<!-- dre.DestroyEntity -->
<g id="node2" class="node">
<title>dre.DestroyEntity</title>
<g id="a_node2"><a xlink:href="dre.DestroyEntity.svg" xlink:title="dre.DestroyEntity">
<ellipse fill="green" stroke="black" cx="1177.59" cy="-18" rx="94.78" ry="18"/>
<text text-anchor="middle" x="1177.59" y="-14.3" font-family="Times,serif" font-size="14.00">dre.DestroyEntity</text>
</a>
</g>
</g>
<!-- dre.AllocEntity&#45;&gt;dre.DestroyEntity -->
<g id="edge1" class="edge">
<title>dre.AllocEntity&#45;&gt;dre.DestroyEntity</title>
<path fill="none" stroke="black" d="M1177.59,-86.8C1177.59,-75.16 1177.59,-59.55 1177.59,-46.24"/>
<polygon fill="black" stroke="black" points="1181.09,-46.18 1177.59,-36.18 1174.09,-46.18 1181.09,-46.18"/>
<text text-anchor="middle" x="1182.59" y="-57.8" font-family="Times,serif" font-size="14.00">1</text>
</g>
<!-- dre.TestCollisions -->
<g id="node3" class="node">
<title>dre.TestCollisions</title>
<g id="a_node3"><a xlink:href="dre.TestCollisions.svg" xlink:title="dre.TestCollisions">
<ellipse fill="red" stroke="black" cx="93.59" cy="-192" rx="93.68" ry="18"/>
<text text-anchor="middle" x="93.59" y="-188.3" font-family="Times,serif" font-size="14.00">dre.TestCollisions</text>
</a>
</g>
</g>
<!-- dre.TestCollisions&#45;&gt;dre.AllocEntity -->
<g id="edge2" class="edge">
<title>dre.TestCollisions&#45;&gt;dre.AllocEntity</title>
<path fill="none" stroke="black" d="M159.6,-179.22C171.55,-177.31 183.93,-175.48 195.59,-174 523.06,-132.52 915.4,-114.92 1088.31,-108.78"/>
<polygon fill="black" stroke="black" points="1088.5,-112.28 1098.38,-108.43 1088.26,-105.28 1088.5,-112.28"/>
<text text-anchor="middle" x="524.59" y="-144.8" font-family="Times,serif" font-size="14.00">4</text>
</g>
<!-- dre.EntityBreakable -->
<g id="node4" class="node">
<title>dre.EntityBreakable</title>
<g id="a_node4"><a xlink:href="dre.EntityBreakable.svg" xlink:title="dre.EntityBreakable">
<ellipse fill="green" stroke="black" cx="309.59" cy="-192" rx="104.78" ry="18"/>
<text text-anchor="middle" x="309.59" y="-188.3" font-family="Times,serif" font-size="14.00">dre.EntityBreakable</text>
</a>
</g>
</g>
<!-- dre.EntityBreakable&#45;&gt;dre.AllocEntity -->
<g id="edge3" class="edge">
<title>dre.EntityBreakable&#45;&gt;dre.AllocEntity</title>
<path fill="none" stroke="black" d="M383.67,-179.24C396.62,-177.36 409.99,-175.53 422.59,-174 664.44,-144.62 951.31,-122.17 1091.62,-112"/>
<polygon fill="black" stroke="black" points="1092.16,-115.47 1101.88,-111.26 1091.65,-108.48 1092.16,-115.47"/>
<text text-anchor="middle" x="738.59" y="-144.8" font-family="Times,serif" font-size="14.00">1</text>
</g>
<!-- dre.EntitySuccubus -->
<g id="node5" class="node">
<title>dre.EntitySuccubus</title>
<g id="a_node5"><a xlink:href="dre.EntitySuccubus.svg" xlink:title="dre.EntitySuccubus">
<ellipse fill="green" stroke="black" cx="534.59" cy="-192" rx="102.88" ry="18"/>
<text text-anchor="middle" x="534.59" y="-188.3" font-family="Times,serif" font-size="14.00">dre.EntitySuccubus</text>
</a>
</g>
</g>
<!-- dre.EntitySuccubus&#45;&gt;dre.AllocEntity -->
<g id="edge4" class="edge">
<title>dre.EntitySuccubus&#45;&gt;dre.AllocEntity</title>
<path fill="none" stroke="black" d="M608.66,-179.51C621.31,-177.62 634.32,-175.72 646.59,-174 806.71,-151.6 994.41,-128.24 1098.27,-115.57"/>
<polygon fill="black" stroke="black" points="1098.86,-119.03 1108.36,-114.34 1098.01,-112.08 1098.86,-119.03"/>
<text text-anchor="middle" x="899.59" y="-144.8" font-family="Times,serif" font-size="14.00">2</text>
</g>
<!-- dre.EntitySuccubusPetal -->
<g id="node6" class="node">
<title>dre.EntitySuccubusPetal</title>
<g id="a_node6"><a xlink:href="dre.EntitySuccubusPetal.svg" xlink:title="dre.EntitySuccubusPetal">
<ellipse fill="green" stroke="black" cx="781.59" cy="-192" rx="126.18" ry="18"/>
<text text-anchor="middle" x="781.59" y="-188.3" font-family="Times,serif" font-size="14.00">dre.EntitySuccubusPetal</text>
</a>
</g>
</g>
<!-- dre.EntitySuccubusPetal&#45;&gt;dre.AllocEntity -->
<g id="edge5" class="edge">
<title>dre.EntitySuccubusPetal&#45;&gt;dre.AllocEntity</title>
<path fill="none" stroke="black" d="M848.32,-176.68C921.58,-160.95 1038.48,-135.86 1111.49,-120.19"/>
<polygon fill="black" stroke="black" points="1112.45,-123.56 1121.49,-118.04 1110.98,-116.72 1112.45,-123.56"/>
<text text-anchor="middle" x="1008.59" y="-144.8" font-family="Times,serif" font-size="14.00">1</text>
</g>
<!-- dre.EntitySuccubusClone -->
<g id="node7" class="node">
<title>dre.EntitySuccubusClone</title>
<g id="a_node7"><a xlink:href="dre.EntitySuccubusClone.svg" xlink:title="dre.EntitySuccubusClone">
<ellipse fill="green" stroke="black" cx="1054.59" cy="-192" rx="128.88" ry="18"/>
<text text-anchor="middle" x="1054.59" y="-188.3" font-family="Times,serif" font-size="14.00">dre.EntitySuccubusClone</text>
</a>
</g>
</g>
<!-- dre.EntitySuccubusClone&#45;&gt;dre.AllocEntity -->
<g id="edge6" class="edge">
<title>dre.EntitySuccubusClone&#45;&gt;dre.AllocEntity</title>
<path fill="none" stroke="black" d="M1078.89,-174.21C1097.97,-161.02 1124.69,-142.56 1145.52,-128.16"/>
<polygon fill="black" stroke="black" points="1147.52,-131.03 1153.76,-122.47 1143.54,-125.27 1147.52,-131.03"/>
<text text-anchor="middle" x="1128.59" y="-144.8" font-family="Times,serif" font-size="14.00">1</text>
</g>
<!-- dre.func_8019F304 -->
<g id="node8" class="node">
<title>dre.func_8019F304</title>
<g id="a_node8"><a xlink:href="dre.func_8019F304.svg" xlink:title="dre.func_8019F304">
<ellipse fill="green" stroke="black" cx="1301.59" cy="-192" rx="100.98" ry="18"/>
<text text-anchor="middle" x="1301.59" y="-188.3" font-family="Times,serif" font-size="14.00">dre.func_8019F304</text>
</a>
</g>
</g>
<!-- dre.func_8019F304&#45;&gt;dre.AllocEntity -->
<g id="edge7" class="edge">
<title>dre.func_8019F304&#45;&gt;dre.AllocEntity</title>
<path fill="none" stroke="black" d="M1277.39,-174.41C1258.06,-161.16 1230.81,-142.48 1209.67,-127.99"/>
<polygon fill="black" stroke="black" points="1211.54,-125.03 1201.31,-122.26 1207.58,-130.8 1211.54,-125.03"/>
<text text-anchor="middle" x="1252.59" y="-144.8" font-family="Times,serif" font-size="14.00">1</text>
</g>
<!-- dre.EntityUnkId13 -->
<g id="node9" class="node">
<title>dre.EntityUnkId13</title>
<g id="a_node9"><a xlink:href="dre.EntityUnkId13.svg" xlink:title="dre.EntityUnkId13">
<ellipse fill="green" stroke="black" cx="1518.59" cy="-192" rx="98.28" ry="18"/>
<text text-anchor="middle" x="1518.59" y="-188.3" font-family="Times,serif" font-size="14.00">dre.EntityUnkId13</text>
</a>
</g>
</g>
<!-- dre.EntityUnkId13&#45;&gt;dre.AllocEntity -->
<g id="edge8" class="edge">
<title>dre.EntityUnkId13&#45;&gt;dre.AllocEntity</title>
<path fill="none" stroke="black" d="M1463.05,-177.15C1401.6,-161.84 1302.87,-137.23 1239.12,-121.34"/>
<polygon fill="black" stroke="black" points="1239.75,-117.89 1229.2,-118.87 1238.06,-124.68 1239.75,-117.89"/>
<text text-anchor="middle" x="1373.59" y="-144.8" font-family="Times,serif" font-size="14.00">1</text>
</g>
<!-- dre.func_8019E3C8 -->
<g id="node10" class="node">
<title>dre.func_8019E3C8</title>
<g id="a_node10"><a xlink:href="dre.func_8019E3C8.svg" xlink:title="dre.func_8019E3C8">
<ellipse fill="red" stroke="black" cx="1737.59" cy="-192" rx="102.88" ry="18"/>
<text text-anchor="middle" x="1737.59" y="-188.3" font-family="Times,serif" font-size="14.00">dre.func_8019E3C8</text>
</a>
</g>
</g>
<!-- dre.func_8019E3C8&#45;&gt;dre.AllocEntity -->
<g id="edge9" class="edge">
<title>dre.func_8019E3C8&#45;&gt;dre.AllocEntity</title>
<path fill="none" stroke="black" d="M1662.65,-179.62C1555.39,-163.34 1359.26,-133.57 1252.19,-117.32"/>
<polygon fill="black" stroke="black" points="1252.52,-113.83 1242.11,-115.79 1251.47,-120.75 1252.52,-113.83"/>
<text text-anchor="middle" x="1496.59" y="-144.8" font-family="Times,serif" font-size="14.00">1</text>
</g>
<!-- dre.EntityUnkId17 -->
<g id="node11" class="node">
<title>dre.EntityUnkId17</title>
<g id="a_node11"><a xlink:href="dre.EntityUnkId17.svg" xlink:title="dre.EntityUnkId17">
<ellipse fill="red" stroke="black" cx="1956.59" cy="-192" rx="98.28" ry="18"/>
<text text-anchor="middle" x="1956.59" y="-188.3" font-family="Times,serif" font-size="14.00">dre.EntityUnkId17</text>
</a>
</g>
</g>
<!-- dre.EntityUnkId17&#45;&gt;dre.AllocEntity -->
<g id="edge10" class="edge">
<title>dre.EntityUnkId17&#45;&gt;dre.AllocEntity</title>
<path fill="none" stroke="black" d="M1886.74,-179.32C1874.38,-177.42 1861.62,-175.56 1849.59,-174 1638.72,-146.6 1389.41,-123.9 1261.92,-112.99"/>
<polygon fill="black" stroke="black" points="1262.09,-109.49 1251.83,-112.13 1261.5,-116.46 1262.09,-109.49"/>
<text text-anchor="middle" x="1689.59" y="-144.8" font-family="Times,serif" font-size="14.00">1</text>
</g>
<!-- dre.func_8019E4F8 -->
<g id="node12" class="node">
<title>dre.func_8019E4F8</title>
<g id="a_node12"><a xlink:href="dre.func_8019E4F8.svg" xlink:title="dre.func_8019E4F8">
<ellipse fill="red" stroke="black" cx="2174.59" cy="-192" rx="102.08" ry="18"/>
<text text-anchor="middle" x="2174.59" y="-188.3" font-family="Times,serif" font-size="14.00">dre.func_8019E4F8</text>
</a>
</g>
</g>
<!-- dre.func_8019E4F8&#45;&gt;dre.AllocEntity -->
<g id="edge11" class="edge">
<title>dre.func_8019E4F8&#45;&gt;dre.AllocEntity</title>
<path fill="none" stroke="black" d="M2102.13,-179.24C2089.31,-177.35 2076.07,-175.52 2063.59,-174 1772.69,-138.61 1425.68,-118.3 1265.99,-110.18"/>
<polygon fill="black" stroke="black" points="1265.91,-106.67 1255.75,-109.66 1265.56,-113.66 1265.91,-106.67"/>
<text text-anchor="middle" x="1898.59" y="-144.8" font-family="Times,serif" font-size="14.00">1</text>
</g>
</g>
</svg>
