<?xml version="1.0" encoding="UTF-8" standalone="no"?>
<!DOCTYPE svg PUBLIC "-//W3C//DTD SVG 1.1//EN"
 "http://www.w3.org/Graphics/SVG/1.1/DTD/svg11.dtd">
<!-- Generated by graphviz version 2.43.0 (0)
 -->
<!-- Title: dre.func_8019E7C4 Pages: 1 -->
<svg width="1292pt" height="224pt"
 viewBox="0.00 0.00 1291.68 224.00" xmlns="http://www.w3.org/2000/svg" xmlns:xlink="http://www.w3.org/1999/xlink">
<g id="graph0" class="graph" transform="scale(1 1) rotate(0) translate(4 220)">
<title>dre.func_8019E7C4</title>
<polygon fill="white" stroke="transparent" points="-4,4 -4,-220 1287.68,-220 1287.68,4 -4,4"/>
<!-- dre.func_8019E7C4 -->
<g id="node1" class="node">
<title>dre.func_8019E7C4</title>
<ellipse fill="red" stroke="black" cx="645.79" cy="-198" rx="102.88" ry="18"/>
<text text-anchor="middle" x="645.79" y="-194.3" font-family="Times,serif" font-size="14.00">dre.func_8019E7C4</text>
</g>
<!-- dre.InitializeEntity -->
<g id="node2" class="node">
<title>dre.InitializeEntity</title>
<g id="a_node2"><a xlink:href="dre.InitializeEntity.svg" xlink:title="dre.InitializeEntity">
<ellipse fill="green" stroke="black" cx="98.79" cy="-18" rx="98.58" ry="18"/>
<text text-anchor="middle" x="98.79" y="-14.3" font-family="Times,serif" font-size="14.00">dre.InitializeEntity</text>
</a>
</g>
</g>
<!-- dre.func_8019E7C4&#45;&gt;dre.InitializeEntity -->
<g id="edge1" class="edge">
<title>dre.func_8019E7C4&#45;&gt;dre.InitializeEntity</title>
<path fill="none" stroke="black" d="M599.15,-181.82C498.81,-149.17 262.79,-72.37 154.67,-37.18"/>
<polygon fill="black" stroke="black" points="155.52,-33.78 144.92,-34.01 153.35,-40.43 155.52,-33.78"/>
<text text-anchor="middle" x="139.92" y="-37.81" font-family="Times,serif" font-size="14.00">1</text>
</g>
<!-- dra.AllocPrimitives -->
<g id="node3" class="node">
<title>dra.AllocPrimitives</title>
<g id="a_node3"><a xlink:href="dra.AllocPrimitives.svg" xlink:title="dra.AllocPrimitives">
<ellipse fill="green" stroke="black" cx="314.79" cy="-18" rx="99.38" ry="18"/>
<text text-anchor="middle" x="314.79" y="-14.3" font-family="Times,serif" font-size="14.00">dra.AllocPrimitives</text>
</a>
</g>
</g>
<!-- dre.func_8019E7C4&#45;&gt;dra.AllocPrimitives -->
<g id="edge2" class="edge">
<title>dre.func_8019E7C4&#45;&gt;dra.AllocPrimitives</title>
<path fill="none" stroke="black" d="M615.54,-180.73C555.33,-148.35 420.57,-75.88 353.81,-39.98"/>
<polygon fill="black" stroke="black" points="355.32,-36.82 344.85,-35.17 352,-42.98 355.32,-36.82"/>
<text text-anchor="middle" x="339.85" y="-38.97" font-family="Times,serif" font-size="14.00">1</text>
</g>
<!-- dre.func_8019E1C8 -->
<g id="node4" class="node">
<title>dre.func_8019E1C8</title>
<g id="a_node4"><a xlink:href="dre.func_8019E1C8.svg" xlink:title="dre.func_8019E1C8">
<ellipse fill="red" stroke="black" cx="534.79" cy="-18" rx="102.88" ry="18"/>
<text text-anchor="middle" x="534.79" y="-14.3" font-family="Times,serif" font-size="14.00">dre.func_8019E1C8</text>
</a>
</g>
</g>
<!-- dre.func_8019E7C4&#45;&gt;dre.func_8019E1C8 -->
<g id="edge3" class="edge">
<title>dre.func_8019E7C4&#45;&gt;dre.func_8019E1C8</title>
<path fill="none" stroke="black" d="M635.15,-179.93C615.59,-148.57 573.83,-81.6 550.82,-44.71"/>
<polygon fill="black" stroke="black" points="553.66,-42.65 545.4,-36.02 547.72,-46.35 553.66,-42.65"/>
<text text-anchor="middle" x="540.4" y="-39.82" font-family="Times,serif" font-size="14.00">1</text>
</g>
<!-- dre.func_8019E3C8 -->
<g id="node5" class="node">
<title>dre.func_8019E3C8</title>
<g id="a_node5"><a xlink:href="dre.func_8019E3C8.svg" xlink:title="dre.func_8019E3C8">
<ellipse fill="red" stroke="black" cx="757.79" cy="-18" rx="102.88" ry="18"/>
<text text-anchor="middle" x="757.79" y="-14.3" font-family="Times,serif" font-size="14.00">dre.func_8019E3C8</text>
</a>
</g>
</g>
<!-- dre.func_8019E7C4&#45;&gt;dre.func_8019E3C8 -->
<g id="edge4" class="edge">
<title>dre.func_8019E7C4&#45;&gt;dre.func_8019E3C8</title>
<path fill="none" stroke="black" d="M656.53,-179.93C676.27,-148.57 718.4,-81.6 741.62,-44.71"/>
<polygon fill="black" stroke="black" points="744.72,-46.34 747.08,-36.02 738.8,-42.62 744.72,-46.34"/>
<text text-anchor="middle" x="742.08" y="-39.82" font-family="Times,serif" font-size="14.00">1</text>
</g>
<!-- dra.FreePrimitives -->
<g id="node6" class="node">
<title>dra.FreePrimitives</title>
<g id="a_node6"><a xlink:href="dra.FreePrimitives.svg" xlink:title="dra.FreePrimitives">
<ellipse fill="green" stroke="black" cx="976.79" cy="-18" rx="98.58" ry="18"/>
<text text-anchor="middle" x="976.79" y="-14.3" font-family="Times,serif" font-size="14.00">dra.FreePrimitives</text>
</a>
</g>
</g>
<!-- dre.func_8019E7C4&#45;&gt;dra.FreePrimitives -->
<g id="edge5" class="edge">
<title>dre.func_8019E7C4&#45;&gt;dra.FreePrimitives</title>
<path fill="none" stroke="black" d="M676.04,-180.73C736.25,-148.35 871.01,-75.88 937.78,-39.98"/>
<polygon fill="black" stroke="black" points="939.58,-42.98 946.73,-35.17 936.26,-36.82 939.58,-42.98"/>
<text text-anchor="middle" x="941.73" y="-38.97" font-family="Times,serif" font-size="14.00">1</text>
</g>
<!-- dre.DestroyEntity -->
<g id="node7" class="node">
<title>dre.DestroyEntity</title>
<g id="a_node7"><a xlink:href="dre.DestroyEntity.svg" xlink:title="dre.DestroyEntity">
<ellipse fill="green" stroke="black" cx="1188.79" cy="-18" rx="94.78" ry="18"/>
<text text-anchor="middle" x="1188.79" y="-14.3" font-family="Times,serif" font-size="14.00">dre.DestroyEntity</text>
</a>
</g>
</g>
<!-- dre.func_8019E7C4&#45;&gt;dre.DestroyEntity -->
<g id="edge6" class="edge">
<title>dre.func_8019E7C4&#45;&gt;dre.DestroyEntity</title>
<path fill="none" stroke="black" d="M692.09,-181.82C791.82,-149.13 1026.57,-72.18 1133.72,-37.05"/>
<polygon fill="black" stroke="black" points="1134.97,-40.33 1143.38,-33.89 1132.79,-33.68 1134.97,-40.33"/>
<text text-anchor="middle" x="1138.38" y="-37.69" font-family="Times,serif" font-size="14.00">1</text>
</g>
</g>
</svg>
