<?xml version="1.0" encoding="UTF-8" standalone="no"?>
<!DOCTYPE svg PUBLIC "-//W3C//DTD SVG 1.1//EN"
 "http://www.w3.org/Graphics/SVG/1.1/DTD/svg11.dtd">
<!-- Generated by graphviz version 2.43.0 (0)
 -->
<!-- Title: dre.func_8019F3BC Pages: 1 -->
<svg width="1066pt" height="224pt"
 viewBox="0.00 0.00 1066.44 224.00" xmlns="http://www.w3.org/2000/svg" xmlns:xlink="http://www.w3.org/1999/xlink">
<g id="graph0" class="graph" transform="scale(1 1) rotate(0) translate(4 220)">
<title>dre.func_8019F3BC</title>
<polygon fill="white" stroke="transparent" points="-4,4 -4,-220 1062.44,-220 1062.44,4 -4,4"/>
<!-- dre.func_8019F3BC -->
<g id="node1" class="node">
<title>dre.func_8019F3BC</title>
<ellipse fill="red" stroke="black" cx="618.84" cy="-198" rx="102.88" ry="18"/>
<text text-anchor="middle" x="618.84" y="-194.3" font-family="Times,serif" font-size="14.00">dre.func_8019F3BC</text>
</g>
<!-- dre.AnimateEntity -->
<g id="node2" class="node">
<title>dre.AnimateEntity</title>
<g id="a_node2"><a xlink:href="dre.AnimateEntity.svg" xlink:title="dre.AnimateEntity">
<ellipse fill="green" stroke="black" cx="96.84" cy="-18" rx="96.68" ry="18"/>
<text text-anchor="middle" x="96.84" y="-14.3" font-family="Times,serif" font-size="14.00">dre.AnimateEntity</text>
</a>
</g>
</g>
<!-- dre.func_8019F3BC&#45;&gt;dre.AnimateEntity -->
<g id="edge1" class="edge">
<title>dre.func_8019F3BC&#45;&gt;dre.AnimateEntity</title>
<path fill="none" stroke="black" d="M573.88,-181.67C478.05,-148.99 254.03,-72.6 150.75,-37.38"/>
<polygon fill="black" stroke="black" points="151.73,-34.02 141.14,-34.1 149.47,-40.64 151.73,-34.02"/>
<text text-anchor="middle" x="136.14" y="-37.9" font-family="Times,serif" font-size="14.00">1</text>
</g>
<!-- dre.DestroyEntity -->
<g id="node3" class="node">
<title>dre.DestroyEntity</title>
<g id="a_node3"><a xlink:href="dre.DestroyEntity.svg" xlink:title="dre.DestroyEntity">
<ellipse fill="green" stroke="black" cx="306.84" cy="-18" rx="94.78" ry="18"/>
<text text-anchor="middle" x="306.84" y="-14.3" font-family="Times,serif" font-size="14.00">dre.DestroyEntity</text>
</a>
</g>
</g>
<!-- dre.func_8019F3BC&#45;&gt;dre.DestroyEntity -->
<g id="edge2" class="edge">
<title>dre.func_8019F3BC&#45;&gt;dre.DestroyEntity</title>
<path fill="none" stroke="black" d="M590.05,-180.57C533.4,-148.25 407.49,-76.42 344.4,-40.43"/>
<polygon fill="black" stroke="black" points="345.99,-37.3 335.56,-35.39 342.52,-43.38 345.99,-37.3"/>
<text text-anchor="middle" x="330.56" y="-39.19" font-family="Times,serif" font-size="14.00">1</text>
</g>
<!-- dre.InitializeEntity -->
<g id="node4" class="node">
<title>dre.InitializeEntity</title>
<g id="a_node4"><a xlink:href="dre.InitializeEntity.svg" xlink:title="dre.InitializeEntity">
<ellipse fill="green" stroke="black" cx="518.84" cy="-18" rx="98.58" ry="18"/>
<text text-anchor="middle" x="518.84" y="-14.3" font-family="Times,serif" font-size="14.00">dre.InitializeEntity</text>
</a>
</g>
</g>
<!-- dre.func_8019F3BC&#45;&gt;dre.InitializeEntity -->
<g id="edge3" class="edge">
<title>dre.func_8019F3BC&#45;&gt;dre.InitializeEntity</title>
<path fill="none" stroke="black" d="M609.25,-179.93C591.71,-148.7 554.33,-82.17 533.55,-45.18"/>
<polygon fill="black" stroke="black" points="536.35,-43.02 528.4,-36.02 530.25,-46.45 536.35,-43.02"/>
<text text-anchor="middle" x="523.4" y="-39.82" font-family="Times,serif" font-size="14.00">1</text>
</g>
<!-- dre.MoveEntity -->
<g id="node5" class="node">
<title>dre.MoveEntity</title>
<g id="a_node5"><a xlink:href="dre.MoveEntity.svg" xlink:title="dre.MoveEntity">
<ellipse fill="green" stroke="black" cx="718.84" cy="-18" rx="83.39" ry="18"/>
<text text-anchor="middle" x="718.84" y="-14.3" font-family="Times,serif" font-size="14.00">dre.MoveEntity</text>
</a>
</g>
</g>
<!-- dre.func_8019F3BC&#45;&gt;dre.MoveEntity -->
<g id="edge4" class="edge">
<title>dre.func_8019F3BC&#45;&gt;dre.MoveEntity</title>
<path fill="none" stroke="black" d="M628.43,-179.93C645.98,-148.7 683.35,-82.17 704.13,-45.18"/>
<polygon fill="black" stroke="black" points="707.44,-46.45 709.28,-36.02 701.33,-43.02 707.44,-46.45"/>
<text text-anchor="middle" x="704.28" y="-39.82" font-family="Times,serif" font-size="14.00">1</text>
</g>
<!-- main.rcos -->
<g id="node6" class="node">
<title>main.rcos</title>
<g id="a_node6"><a xlink:href="main.rcos.svg" xlink:title="main.rcos">
<ellipse fill="red" stroke="black" cx="875.84" cy="-18" rx="55.79" ry="18"/>
<text text-anchor="middle" x="875.84" y="-14.3" font-family="Times,serif" font-size="14.00">main.rcos</text>
</a>
</g>
</g>
<!-- dre.func_8019F3BC&#45;&gt;main.rcos -->
<g id="edge5" class="edge">
<title>dre.func_8019F3BC&#45;&gt;main.rcos</title>
<path fill="none" stroke="black" d="M643.02,-180.25C689.91,-147.78 793.15,-76.27 844.94,-40.4"/>
<polygon fill="black" stroke="black" points="847.16,-43.12 853.39,-34.55 843.17,-37.37 847.16,-43.12"/>
<text text-anchor="middle" x="848.39" y="-38.35" font-family="Times,serif" font-size="14.00">1</text>
</g>
<!-- main.rsin -->
<g id="node7" class="node">
<title>main.rsin</title>
<g id="a_node7"><a xlink:href="main.rsin.svg" xlink:title="main.rsin">
<ellipse fill="green" stroke="black" cx="1003.84" cy="-18" rx="54.69" ry="18"/>
<text text-anchor="middle" x="1003.84" y="-14.3" font-family="Times,serif" font-size="14.00">main.rsin</text>
</a>
</g>
</g>
<!-- dre.func_8019F3BC&#45;&gt;main.rsin -->
<g id="edge6" class="edge">
<title>dre.func_8019F3BC&#45;&gt;main.rsin</title>
<path fill="none" stroke="black" d="M653.69,-180.89C725.31,-147.78 888.67,-72.25 964.2,-37.33"/>
<polygon fill="black" stroke="black" points="965.79,-40.45 973.39,-33.08 962.85,-34.1 965.79,-40.45"/>
<text text-anchor="middle" x="968.39" y="-36.88" font-family="Times,serif" font-size="14.00">1</text>
</g>
</g>
</svg>
