<?xml version="1.0" encoding="UTF-8" standalone="no"?>
<!DOCTYPE svg PUBLIC "-//W3C//DTD SVG 1.1//EN"
 "http://www.w3.org/Graphics/SVG/1.1/DTD/svg11.dtd">
<!-- Generated by graphviz version 2.43.0 (0)
 -->
<!-- Title: dre.EntityPrizeDrop Pages: 1 -->
<svg width="3754pt" height="404pt"
 viewBox="0.00 0.00 3753.63 404.00" xmlns="http://www.w3.org/2000/svg" xmlns:xlink="http://www.w3.org/1999/xlink">
<g id="graph0" class="graph" transform="scale(1 1) rotate(0) translate(4 400)">
<title>dre.EntityPrizeDrop</title>
<polygon fill="white" stroke="transparent" points="-4,4 -4,-400 3749.63,-400 3749.63,4 -4,4"/>
<!-- dre.EntityPrizeDrop -->
<g id="node1" class="node">
<title>dre.EntityPrizeDrop</title>
<ellipse fill="red" stroke="black" cx="1746.84" cy="-198" rx="104.78" ry="18"/>
<text text-anchor="middle" x="1746.84" y="-194.3" font-family="Times,serif" font-size="14.00">dre.EntityPrizeDrop</text>
</g>
<!-- dre.AnimateEntity -->
<g id="node2" class="node">
<title>dre.AnimateEntity</title>
<g id="a_node2"><a xlink:href="dre.AnimateEntity.svg" xlink:title="dre.AnimateEntity">
<ellipse fill="green" stroke="black" cx="96.84" cy="-18" rx="96.68" ry="18"/>
<text text-anchor="middle" x="96.84" y="-14.3" font-family="Times,serif" font-size="14.00">dre.AnimateEntity</text>
</a>
</g>
</g>
<!-- dre.EntityPrizeDrop&#45;&gt;dre.AnimateEntity -->
<g id="edge1" class="edge">
<title>dre.EntityPrizeDrop&#45;&gt;dre.AnimateEntity</title>
<path fill="none" stroke="black" d="M1655.27,-189.23C1416,-168.53 752.57,-108.69 202.84,-36 194.18,-34.86 185.14,-33.56 176.15,-32.21"/>
<polygon fill="black" stroke="black" points="176.45,-28.71 166.04,-30.66 175.39,-35.63 176.45,-28.71"/>
<text text-anchor="middle" x="161.04" y="-34.46" font-family="Times,serif" font-size="14.00">1</text>
</g>
<!-- dre.InitializeEntity -->
<g id="node3" class="node">
<title>dre.InitializeEntity</title>
<g id="a_node3"><a xlink:href="dre.InitializeEntity.svg" xlink:title="dre.InitializeEntity">
<ellipse fill="green" stroke="black" cx="310.84" cy="-18" rx="98.58" ry="18"/>
<text text-anchor="middle" x="310.84" y="-14.3" font-family="Times,serif" font-size="14.00">dre.InitializeEntity</text>
</a>
</g>
</g>
<!-- dre.EntityPrizeDrop&#45;&gt;dre.InitializeEntity -->
<g id="edge2" class="edge">
<title>dre.EntityPrizeDrop&#45;&gt;dre.InitializeEntity</title>
<path fill="none" stroke="black" d="M1660.86,-187.65C1449.31,-164.4 886.65,-101.15 418.84,-36 410.17,-34.79 401.11,-33.47 392.1,-32.11"/>
<polygon fill="black" stroke="black" points="392.37,-28.61 381.95,-30.56 391.31,-35.53 392.37,-28.61"/>
<text text-anchor="middle" x="376.95" y="-34.36" font-family="Times,serif" font-size="14.00">1</text>
</g>
<!-- dra.CheckCollision -->
<g id="node4" class="node">
<title>dra.CheckCollision</title>
<g id="a_node4"><a xlink:href="dra.CheckCollision.svg" xlink:title="dra.CheckCollision">
<ellipse fill="green" stroke="black" cx="524.84" cy="-18" rx="97.48" ry="18"/>
<text text-anchor="middle" x="524.84" y="-14.3" font-family="Times,serif" font-size="14.00">dra.CheckCollision</text>
</a>
</g>
</g>
<!-- dre.EntityPrizeDrop&#45;&gt;dra.CheckCollision -->
<g id="edge3" class="edge">
<title>dre.EntityPrizeDrop&#45;&gt;dra.CheckCollision</title>
<path fill="none" stroke="black" d="M1668.3,-186.1C1485.96,-160.71 1019.82,-95.25 630.84,-36 622.63,-34.75 614.07,-33.42 605.52,-32.07"/>
<polygon fill="black" stroke="black" points="605.94,-28.6 595.52,-30.49 604.85,-35.51 605.94,-28.6"/>
<text text-anchor="middle" x="590.52" y="-34.29" font-family="Times,serif" font-size="14.00">4</text>
</g>
<!-- dre.DestroyEntity -->
<g id="node5" class="node">
<title>dre.DestroyEntity</title>
<g id="a_node5"><a xlink:href="dre.DestroyEntity.svg" xlink:title="dre.DestroyEntity">
<ellipse fill="green" stroke="black" cx="734.84" cy="-18" rx="94.78" ry="18"/>
<text text-anchor="middle" x="734.84" y="-14.3" font-family="Times,serif" font-size="14.00">dre.DestroyEntity</text>
</a>
</g>
</g>
<!-- dre.EntityPrizeDrop&#45;&gt;dre.DestroyEntity -->
<g id="edge4" class="edge">
<title>dre.EntityPrizeDrop&#45;&gt;dre.DestroyEntity</title>
<path fill="none" stroke="black" d="M1676.48,-184.62C1493.18,-152.38 1002,-65.99 811.67,-32.51"/>
<polygon fill="black" stroke="black" points="812.2,-29.05 801.75,-30.77 810.99,-35.95 812.2,-29.05"/>
<text text-anchor="middle" x="796.75" y="-34.57" font-family="Times,serif" font-size="14.00">2</text>
</g>
<!-- dre.MoveEntity -->
<g id="node6" class="node">
<title>dre.MoveEntity</title>
<g id="a_node6"><a xlink:href="dre.MoveEntity.svg" xlink:title="dre.MoveEntity">
<ellipse fill="green" stroke="black" cx="930.84" cy="-18" rx="83.39" ry="18"/>
<text text-anchor="middle" x="930.84" y="-14.3" font-family="Times,serif" font-size="14.00">dre.MoveEntity</text>
</a>
</g>
</g>
<!-- dre.EntityPrizeDrop&#45;&gt;dre.MoveEntity -->
<g id="edge5" class="edge">
<title>dre.EntityPrizeDrop&#45;&gt;dre.MoveEntity</title>
<path fill="none" stroke="black" d="M1684.84,-183.47C1534.53,-150.69 1151.75,-67.19 997.13,-33.46"/>
<polygon fill="black" stroke="black" points="997.8,-30.02 987.28,-31.31 996.31,-36.86 997.8,-30.02"/>
<text text-anchor="middle" x="982.28" y="-35.11" font-family="Times,serif" font-size="14.00">2</text>
</g>
<!-- dre.FallEntity -->
<g id="node7" class="node">
<title>dre.FallEntity</title>
<g id="a_node7"><a xlink:href="dre.FallEntity.svg" xlink:title="dre.FallEntity">
<ellipse fill="green" stroke="black" cx="1107.84" cy="-18" rx="75.29" ry="18"/>
<text text-anchor="middle" x="1107.84" y="-14.3" font-family="Times,serif" font-size="14.00">dre.FallEntity</text>
</a>
</g>
</g>
<!-- dre.EntityPrizeDrop&#45;&gt;dre.FallEntity -->
<g id="edge6" class="edge">
<title>dre.EntityPrizeDrop&#45;&gt;dre.FallEntity</title>
<path fill="none" stroke="black" d="M1694.28,-182.36C1575.66,-149.31 1287.97,-69.18 1165.06,-34.94"/>
<polygon fill="black" stroke="black" points="1165.67,-31.47 1155.09,-32.16 1163.79,-38.22 1165.67,-31.47"/>
<text text-anchor="middle" x="1150.09" y="-35.96" font-family="Times,serif" font-size="14.00">2</text>
</g>
<!-- dre.func_8019B304 -->
<g id="node8" class="node">
<title>dre.func_8019B304</title>
<g id="a_node8"><a xlink:href="dre.func_8019B304.svg" xlink:title="dre.func_8019B304">
<ellipse fill="green" stroke="black" cx="1302.84" cy="-18" rx="101.28" ry="18"/>
<text text-anchor="middle" x="1302.84" y="-14.3" font-family="Times,serif" font-size="14.00">dre.func_8019B304</text>
</a>
</g>
</g>
<!-- dre.EntityPrizeDrop&#45;&gt;dre.func_8019B304 -->
<g id="edge7" class="edge">
<title>dre.EntityPrizeDrop&#45;&gt;dre.func_8019B304</title>
<path fill="none" stroke="black" d="M1707.44,-181.2C1626.12,-148.6 1439.94,-73.96 1351.38,-38.46"/>
<polygon fill="black" stroke="black" points="1352.42,-35.11 1341.84,-34.63 1349.82,-41.6 1352.42,-35.11"/>
<text text-anchor="middle" x="1336.84" y="-38.43" font-family="Times,serif" font-size="14.00">2</text>
</g>
<!-- dre.func_8019B858 -->
<g id="node9" class="node">
<title>dre.func_8019B858</title>
<g id="a_node9"><a xlink:href="dre.func_8019B858.svg" xlink:title="dre.func_8019B858">
<ellipse fill="green" stroke="black" cx="1523.84" cy="-18" rx="101.28" ry="18"/>
<text text-anchor="middle" x="1523.84" y="-14.3" font-family="Times,serif" font-size="14.00">dre.func_8019B858</text>
</a>
</g>
</g>
<!-- dre.EntityPrizeDrop&#45;&gt;dre.func_8019B858 -->
<g id="edge8" class="edge">
<title>dre.EntityPrizeDrop&#45;&gt;dre.func_8019B858</title>
<path fill="none" stroke="black" d="M1725.86,-180.25C1685.85,-148.32 1598.57,-78.65 1552.94,-42.23"/>
<polygon fill="black" stroke="black" points="1554.93,-39.33 1544.93,-35.83 1550.56,-44.8 1554.93,-39.33"/>
<text text-anchor="middle" x="1539.93" y="-39.63" font-family="Times,serif" font-size="14.00">1</text>
</g>
<!-- dre.func_8019B8DC -->
<g id="node10" class="node">
<title>dre.func_8019B8DC</title>
<g id="a_node10"><a xlink:href="dre.func_8019B8DC.svg" xlink:title="dre.func_8019B8DC">
<ellipse fill="green" stroke="black" cx="1746.84" cy="-18" rx="103.98" ry="18"/>
<text text-anchor="middle" x="1746.84" y="-14.3" font-family="Times,serif" font-size="14.00">dre.func_8019B8DC</text>
</a>
</g>
</g>
<!-- dre.EntityPrizeDrop&#45;&gt;dre.func_8019B8DC -->
<g id="edge9" class="edge">
<title>dre.EntityPrizeDrop&#45;&gt;dre.func_8019B8DC</title>
<path fill="none" stroke="black" d="M1746.84,-179.93C1746.84,-148.97 1746.84,-83.3 1746.84,-46.13"/>
<polygon fill="black" stroke="black" points="1750.34,-46.02 1746.84,-36.02 1743.34,-46.02 1750.34,-46.02"/>
<text text-anchor="middle" x="1741.84" y="-39.82" font-family="Times,serif" font-size="14.00">3</text>
</g>
<!-- dre.func_8019BA38 -->
<g id="node11" class="node">
<title>dre.func_8019BA38</title>
<g id="a_node11"><a xlink:href="dre.func_8019BA38.svg" xlink:title="dre.func_8019BA38">
<ellipse fill="green" stroke="black" cx="1970.84" cy="-18" rx="102.08" ry="18"/>
<text text-anchor="middle" x="1970.84" y="-14.3" font-family="Times,serif" font-size="14.00">dre.func_8019BA38</text>
</a>
</g>
</g>
<!-- dre.EntityPrizeDrop&#45;&gt;dre.func_8019BA38 -->
<g id="edge10" class="edge">
<title>dre.EntityPrizeDrop&#45;&gt;dre.func_8019BA38</title>
<path fill="none" stroke="black" d="M1767.91,-180.25C1808.11,-148.32 1895.78,-78.65 1941.61,-42.23"/>
<polygon fill="black" stroke="black" points="1944.01,-44.79 1949.66,-35.83 1939.65,-39.31 1944.01,-44.79"/>
<text text-anchor="middle" x="1944.66" y="-39.63" font-family="Times,serif" font-size="14.00">1</text>
</g>
<!-- dre.func_8019BAB8 -->
<g id="node12" class="node">
<title>dre.func_8019BAB8</title>
<g id="a_node12"><a xlink:href="dre.func_8019BAB8.svg" xlink:title="dre.func_8019BAB8">
<ellipse fill="red" stroke="black" cx="2193.84" cy="-18" rx="102.88" ry="18"/>
<text text-anchor="middle" x="2193.84" y="-14.3" font-family="Times,serif" font-size="14.00">dre.func_8019BAB8</text>
</a>
</g>
</g>
<!-- dre.EntityPrizeDrop&#45;&gt;dre.func_8019BAB8 -->
<g id="edge11" class="edge">
<title>dre.EntityPrizeDrop&#45;&gt;dre.func_8019BAB8</title>
<path fill="none" stroke="black" d="M1786.51,-181.2C1868.46,-148.57 2056.19,-73.81 2145.25,-38.35"/>
<polygon fill="black" stroke="black" points="2146.59,-41.58 2154.58,-34.63 2144,-35.08 2146.59,-41.58"/>
<text text-anchor="middle" x="2149.58" y="-38.43" font-family="Times,serif" font-size="14.00">1</text>
</g>
<!-- dre.CollectHeartVessel -->
<g id="node13" class="node">
<title>dre.CollectHeartVessel</title>
<g id="a_node13"><a xlink:href="dre.CollectHeartVessel.svg" xlink:title="dre.CollectHeartVessel">
<ellipse fill="green" stroke="black" cx="2431.84" cy="-18" rx="117.78" ry="18"/>
<text text-anchor="middle" x="2431.84" y="-14.3" font-family="Times,serif" font-size="14.00">dre.CollectHeartVessel</text>
</a>
</g>
</g>
<!-- dre.EntityPrizeDrop&#45;&gt;dre.CollectHeartVessel -->
<g id="edge12" class="edge">
<title>dre.EntityPrizeDrop&#45;&gt;dre.CollectHeartVessel</title>
<path fill="none" stroke="black" d="M1802.03,-182.66C1926.74,-150.25 2229.93,-71.47 2365,-36.37"/>
<polygon fill="black" stroke="black" points="2366.02,-39.72 2374.82,-33.82 2364.26,-32.94 2366.02,-39.72"/>
<text text-anchor="middle" x="2369.82" y="-37.62" font-family="Times,serif" font-size="14.00">1</text>
</g>
<!-- dre.DestroyCurrentEntity -->
<g id="node14" class="node">
<title>dre.DestroyCurrentEntity</title>
<g id="a_node14"><a xlink:href="dre.DestroyCurrentEntity.svg" xlink:title="dre.DestroyCurrentEntity">
<ellipse fill="green" stroke="black" cx="2698.84" cy="-18" rx="131.08" ry="18"/>
<text text-anchor="middle" x="2698.84" y="-14.3" font-family="Times,serif" font-size="14.00">dre.DestroyCurrentEntity</text>
</a>
</g>
</g>
<!-- dre.EntityPrizeDrop&#45;&gt;dre.DestroyCurrentEntity -->
<g id="edge13" class="edge">
<title>dre.EntityPrizeDrop&#45;&gt;dre.DestroyCurrentEntity</title>
<path fill="none" stroke="black" d="M1814.92,-184.27C1985,-152.47 2428.12,-69.62 2614.4,-34.79"/>
<polygon fill="black" stroke="black" points="2615.23,-38.19 2624.42,-32.92 2613.94,-31.31 2615.23,-38.19"/>
<text text-anchor="middle" x="2619.42" y="-36.72" font-family="Times,serif" font-size="14.00">1</text>
</g>
<!-- dre.CollectSubweapon -->
<g id="node15" class="node">
<title>dre.CollectSubweapon</title>
<g id="a_node15"><a xlink:href="dre.CollectSubweapon.svg" xlink:title="dre.CollectSubweapon">
<ellipse fill="green" stroke="black" cx="2962.84" cy="-18" rx="115.08" ry="18"/>
<text text-anchor="middle" x="2962.84" y="-14.3" font-family="Times,serif" font-size="14.00">dre.CollectSubweapon</text>
</a>
</g>
</g>
<!-- dre.EntityPrizeDrop&#45;&gt;dre.CollectSubweapon -->
<g id="edge14" class="edge">
<title>dre.EntityPrizeDrop&#45;&gt;dre.CollectSubweapon</title>
<path fill="none" stroke="black" d="M1823.83,-185.73C2038.22,-154.35 2641.4,-66.05 2871.81,-32.33"/>
<polygon fill="black" stroke="black" points="2872.45,-35.77 2881.84,-30.86 2871.44,-28.84 2872.45,-35.77"/>
<text text-anchor="middle" x="2876.84" y="-34.66" font-family="Times,serif" font-size="14.00">1</text>
</g>
<!-- dre.CollectLifeVessel -->
<g id="node16" class="node">
<title>dre.CollectLifeVessel</title>
<g id="a_node16"><a xlink:href="dre.CollectLifeVessel.svg" xlink:title="dre.CollectLifeVessel">
<ellipse fill="green" stroke="black" cx="3204.84" cy="-18" rx="108.58" ry="18"/>
<text text-anchor="middle" x="3204.84" y="-14.3" font-family="Times,serif" font-size="14.00">dre.CollectLifeVessel</text>
</a>
</g>
</g>
<!-- dre.EntityPrizeDrop&#45;&gt;dre.CollectLifeVessel -->
<g id="edge15" class="edge">
<title>dre.EntityPrizeDrop&#45;&gt;dre.CollectLifeVessel</title>
<path fill="none" stroke="black" d="M1831.98,-187.47C2044.11,-163.59 2613.25,-98.56 3086.84,-36 3096.46,-34.73 3106.51,-33.35 3116.52,-31.96"/>
<polygon fill="black" stroke="black" points="3117.07,-35.41 3126.49,-30.55 3116.1,-28.48 3117.07,-35.41"/>
<text text-anchor="middle" x="3121.49" y="-34.35" font-family="Times,serif" font-size="14.00">1</text>
</g>
<!-- dra.AllocPrimitives -->
<g id="node17" class="node">
<title>dra.AllocPrimitives</title>
<g id="a_node17"><a xlink:href="dra.AllocPrimitives.svg" xlink:title="dra.AllocPrimitives">
<ellipse fill="green" stroke="black" cx="3430.84" cy="-18" rx="99.38" ry="18"/>
<text text-anchor="middle" x="3430.84" y="-14.3" font-family="Times,serif" font-size="14.00">dra.AllocPrimitives</text>
</a>
</g>
</g>
<!-- dre.EntityPrizeDrop&#45;&gt;dra.AllocPrimitives -->
<g id="edge16" class="edge">
<title>dre.EntityPrizeDrop&#45;&gt;dra.AllocPrimitives</title>
<path fill="none" stroke="black" d="M1838.97,-189.35C2082.04,-168.79 2760.63,-108.91 3322.84,-36 3331.69,-34.85 3340.93,-33.55 3350.12,-32.2"/>
<polygon fill="black" stroke="black" points="3350.68,-35.65 3360.05,-30.71 3349.64,-28.73 3350.68,-35.65"/>
<text text-anchor="middle" x="3355.05" y="-34.51" font-family="Times,serif" font-size="14.00">1</text>
</g>
<!-- dra.FreePrimitives -->
<g id="node18" class="node">
<title>dra.FreePrimitives</title>
<g id="a_node18"><a xlink:href="dra.FreePrimitives.svg" xlink:title="dra.FreePrimitives">
<ellipse fill="green" stroke="black" cx="3646.84" cy="-18" rx="98.58" ry="18"/>
<text text-anchor="middle" x="3646.84" y="-14.3" font-family="Times,serif" font-size="14.00">dra.FreePrimitives</text>
</a>
</g>
</g>
<!-- dre.EntityPrizeDrop&#45;&gt;dra.FreePrimitives -->
<g id="edge17" class="edge">
<title>dre.EntityPrizeDrop&#45;&gt;dra.FreePrimitives</title>
<path fill="none" stroke="black" d="M1842.75,-190.64C2111.22,-172.35 2892.86,-115.77 3538.84,-36 3547.83,-34.89 3557.23,-33.6 3566.56,-32.24"/>
<polygon fill="black" stroke="black" points="3567.26,-35.68 3576.64,-30.74 3566.24,-28.75 3567.26,-35.68"/>
<text text-anchor="middle" x="3571.64" y="-34.54" font-family="Times,serif" font-size="14.00">1</text>
</g>
<!-- dre.EntityEquipItemDrop -->
<g id="node19" class="node">
<title>dre.EntityEquipItemDrop</title>
<g id="a_node19"><a xlink:href="dre.EntityEquipItemDrop.svg" xlink:title="dre.EntityEquipItemDrop">
<ellipse fill="green" stroke="black" cx="1746.84" cy="-378" rx="129.98" ry="18"/>
<text text-anchor="middle" x="1746.84" y="-374.3" font-family="Times,serif" font-size="14.00">dre.EntityEquipItemDrop</text>
</a>
</g>
</g>
<!-- dre.EntityEquipItemDrop&#45;&gt;dre.EntityPrizeDrop -->
<g id="edge18" class="edge">
<title>dre.EntityEquipItemDrop&#45;&gt;dre.EntityPrizeDrop</title>
<path fill="none" stroke="black" d="M1746.84,-359.93C1746.84,-328.97 1746.84,-263.3 1746.84,-226.13"/>
<polygon fill="black" stroke="black" points="1750.34,-226.02 1746.84,-216.02 1743.34,-226.02 1750.34,-226.02"/>
<text text-anchor="middle" x="1741.84" y="-348.73" font-family="Times,serif" font-size="14.00">1</text>
</g>
</g>
</svg>
