<?xml version="1.0" encoding="UTF-8" standalone="no"?>
<!DOCTYPE svg PUBLIC "-//W3C//DTD SVG 1.1//EN"
 "http://www.w3.org/Graphics/SVG/1.1/DTD/svg11.dtd">
<!-- Generated by graphviz version 2.43.0 (0)
 -->
<!-- Title: dre.func_8019A7B8 Pages: 1 -->
<svg width="790pt" height="131pt"
 viewBox="0.00 0.00 789.68 131.00" xmlns="http://www.w3.org/2000/svg" xmlns:xlink="http://www.w3.org/1999/xlink">
<g id="graph0" class="graph" transform="scale(1 1) rotate(0) translate(4 127)">
<title>dre.func_8019A7B8</title>
<polygon fill="white" stroke="transparent" points="-4,4 -4,-127 785.68,-127 785.68,4 -4,4"/>
<!-- dre.func_8019A7B8 -->
<g id="node1" class="node">
<title>dre.func_8019A7B8</title>
<ellipse fill="green" stroke="black" cx="360.19" cy="-105" rx="102.08" ry="18"/>
<text text-anchor="middle" x="360.19" y="-101.3" font-family="Times,serif" font-size="14.00">dre.func_8019A7B8</text>
</g>
<!-- dre.MoveEntity -->
<g id="node2" class="node">
<title>dre.MoveEntity</title>
<g id="a_node2"><a xlink:href="dre.MoveEntity.svg" xlink:title="dre.MoveEntity">
<ellipse fill="green" stroke="black" cx="83.19" cy="-18" rx="83.39" ry="18"/>
<text text-anchor="middle" x="83.19" y="-14.3" font-family="Times,serif" font-size="14.00">dre.MoveEntity</text>
</a>
</g>
</g>
<!-- dre.func_8019A7B8&#45;&gt;dre.MoveEntity -->
<g id="edge1" class="edge">
<title>dre.func_8019A7B8&#45;&gt;dre.MoveEntity</title>
<path fill="none" stroke="black" d="M311.63,-89.1C263.33,-74.28 189.34,-51.57 138.73,-36.04"/>
<polygon fill="black" stroke="black" points="139.53,-32.63 128.94,-33.04 137.47,-39.32 139.53,-32.63"/>
<text text-anchor="middle" x="244.19" y="-57.8" font-family="Times,serif" font-size="14.00">1</text>
</g>
<!-- dre.FallEntity -->
<g id="node3" class="node">
<title>dre.FallEntity</title>
<g id="a_node3"><a xlink:href="dre.FallEntity.svg" xlink:title="dre.FallEntity">
<ellipse fill="green" stroke="black" cx="260.19" cy="-18" rx="75.29" ry="18"/>
<text text-anchor="middle" x="260.19" y="-14.3" font-family="Times,serif" font-size="14.00">dre.FallEntity</text>
</a>
</g>
</g>
<!-- dre.func_8019A7B8&#45;&gt;dre.FallEntity -->
<g id="edge2" class="edge">
<title>dre.func_8019A7B8&#45;&gt;dre.FallEntity</title>
<path fill="none" stroke="black" d="M340.44,-87.21C325.27,-74.32 304.16,-56.38 287.4,-42.13"/>
<polygon fill="black" stroke="black" points="289.45,-39.28 279.57,-35.47 284.92,-44.61 289.45,-39.28"/>
<text text-anchor="middle" x="321.19" y="-57.8" font-family="Times,serif" font-size="14.00">1</text>
</g>
<!-- g_api_CheckCollision -->
<g id="node4" class="node">
<title>g_api_CheckCollision</title>
<g id="a_node4"><a xlink:href="g_api_CheckCollision.svg" xlink:title="g_api_CheckCollision">
<ellipse fill="lightblue" stroke="black" cx="461.19" cy="-18" rx="107.78" ry="18"/>
<text text-anchor="middle" x="461.19" y="-14.3" font-family="Times,serif" font-size="14.00">g_api_CheckCollision</text>
</a>
</g>
</g>
<!-- dre.func_8019A7B8&#45;&gt;g_api_CheckCollision -->
<g id="edge3" class="edge">
<title>dre.func_8019A7B8&#45;&gt;g_api_CheckCollision</title>
<path fill="none" stroke="black" d="M380.15,-87.21C395.36,-74.4 416.51,-56.61 433.38,-42.4"/>
<polygon fill="black" stroke="black" points="435.88,-44.88 441.28,-35.76 431.37,-39.52 435.88,-44.88"/>
<text text-anchor="middle" x="422.19" y="-57.8" font-family="Times,serif" font-size="14.00">2</text>
</g>
<!-- dra.CheckCollision -->
<g id="node5" class="node">
<title>dra.CheckCollision</title>
<g id="a_node5"><a xlink:href="dra.CheckCollision.svg" xlink:title="dra.CheckCollision">
<ellipse fill="green" stroke="black" cx="684.19" cy="-18" rx="97.48" ry="18"/>
<text text-anchor="middle" x="684.19" y="-14.3" font-family="Times,serif" font-size="14.00">dra.CheckCollision</text>
</a>
</g>
</g>
<!-- dre.func_8019A7B8&#45;&gt;dra.CheckCollision -->
<g id="edge4" class="edge">
<title>dre.func_8019A7B8&#45;&gt;dra.CheckCollision</title>
<path fill="none" stroke="black" d="M414.79,-89.68C471.68,-74.75 560.73,-51.39 620.71,-35.65"/>
<polygon fill="black" stroke="black" points="621.67,-39.02 630.45,-33.1 619.89,-32.25 621.67,-39.02"/>
<text text-anchor="middle" x="547.19" y="-57.8" font-family="Times,serif" font-size="14.00">1</text>
</g>
</g>
</svg>
