<?xml version="1.0" encoding="UTF-8" standalone="no"?>
<!DOCTYPE svg PUBLIC "-//W3C//DTD SVG 1.1//EN"
 "http://www.w3.org/Graphics/SVG/1.1/DTD/svg11.dtd">
<!-- Generated by graphviz version 2.43.0 (0)
 -->
<!-- Title: dre.func_801A1CE8 Pages: 1 -->
<svg width="697pt" height="404pt"
 viewBox="0.00 0.00 696.58 404.00" xmlns="http://www.w3.org/2000/svg" xmlns:xlink="http://www.w3.org/1999/xlink">
<g id="graph0" class="graph" transform="scale(1 1) rotate(0) translate(4 400)">
<title>dre.func_801A1CE8</title>
<polygon fill="white" stroke="transparent" points="-4,4 -4,-400 692.58,-400 692.58,4 -4,4"/>
<!-- dre.func_801A1CE8 -->
<g id="node1" class="node">
<title>dre.func_801A1CE8</title>
<ellipse fill="red" stroke="black" cx="380.99" cy="-198" rx="102.88" ry="18"/>
<text text-anchor="middle" x="380.99" y="-194.3" font-family="Times,serif" font-size="14.00">dre.func_801A1CE8</text>
</g>
<!-- dra.AllocPrimitives -->
<g id="node2" class="node">
<title>dra.AllocPrimitives</title>
<g id="a_node2"><a xlink:href="dra.AllocPrimitives.svg" xlink:title="dra.AllocPrimitives">
<ellipse fill="green" stroke="black" cx="380.99" cy="-18" rx="99.38" ry="18"/>
<text text-anchor="middle" x="380.99" y="-14.3" font-family="Times,serif" font-size="14.00">dra.AllocPrimitives</text>
</a>
</g>
</g>
<!-- dre.func_801A1CE8&#45;&gt;dra.AllocPrimitives -->
<g id="edge1" class="edge">
<title>dre.func_801A1CE8&#45;&gt;dra.AllocPrimitives</title>
<path fill="none" stroke="black" d="M380.99,-179.93C380.99,-148.97 380.99,-83.3 380.99,-46.13"/>
<polygon fill="black" stroke="black" points="384.49,-46.02 380.99,-36.02 377.49,-46.02 384.49,-46.02"/>
<text text-anchor="middle" x="375.99" y="-39.82" font-family="Times,serif" font-size="14.00">1</text>
</g>
<!-- dre.EntityEquipItemDrop -->
<g id="node3" class="node">
<title>dre.EntityEquipItemDrop</title>
<g id="a_node3"><a xlink:href="dre.EntityEquipItemDrop.svg" xlink:title="dre.EntityEquipItemDrop">
<ellipse fill="green" stroke="black" cx="129.99" cy="-378" rx="129.98" ry="18"/>
<text text-anchor="middle" x="129.99" y="-374.3" font-family="Times,serif" font-size="14.00">dre.EntityEquipItemDrop</text>
</a>
</g>
</g>
<!-- dre.EntityEquipItemDrop&#45;&gt;dre.func_801A1CE8 -->
<g id="edge2" class="edge">
<title>dre.EntityEquipItemDrop&#45;&gt;dre.func_801A1CE8</title>
<path fill="none" stroke="black" d="M153.6,-360.25C198.94,-328.1 298.2,-257.71 349.26,-221.5"/>
<polygon fill="black" stroke="black" points="351.49,-224.21 357.62,-215.57 347.44,-218.5 351.49,-224.21"/>
<text text-anchor="middle" x="148.6" y="-349.05" font-family="Times,serif" font-size="14.00">1</text>
</g>
<!-- dre.func_8019BAB8 -->
<g id="node4" class="node">
<title>dre.func_8019BAB8</title>
<g id="a_node4"><a xlink:href="dre.func_8019BAB8.svg" xlink:title="dre.func_8019BAB8">
<ellipse fill="red" stroke="black" cx="380.99" cy="-378" rx="102.88" ry="18"/>
<text text-anchor="middle" x="380.99" y="-374.3" font-family="Times,serif" font-size="14.00">dre.func_8019BAB8</text>
</a>
</g>
</g>
<!-- dre.func_8019BAB8&#45;&gt;dre.func_801A1CE8 -->
<g id="edge3" class="edge">
<title>dre.func_8019BAB8&#45;&gt;dre.func_801A1CE8</title>
<path fill="none" stroke="black" d="M380.99,-359.93C380.99,-328.97 380.99,-263.3 380.99,-226.13"/>
<polygon fill="black" stroke="black" points="384.49,-226.02 380.99,-216.02 377.49,-226.02 384.49,-226.02"/>
<text text-anchor="middle" x="375.99" y="-348.73" font-family="Times,serif" font-size="14.00">1</text>
</g>
<!-- dre.TestCollisions -->
<g id="node5" class="node">
<title>dre.TestCollisions</title>
<g id="a_node5"><a xlink:href="dre.TestCollisions.svg" xlink:title="dre.TestCollisions">
<ellipse fill="red" stroke="black" cx="594.99" cy="-378" rx="93.68" ry="18"/>
<text text-anchor="middle" x="594.99" y="-374.3" font-family="Times,serif" font-size="14.00">dre.TestCollisions</text>
</a>
</g>
</g>
<!-- dre.TestCollisions&#45;&gt;dre.func_801A1CE8 -->
<g id="edge4" class="edge">
<title>dre.TestCollisions&#45;&gt;dre.func_801A1CE8</title>
<path fill="none" stroke="black" d="M574.86,-360.25C536.46,-328.32 452.7,-258.65 408.91,-222.23"/>
<polygon fill="black" stroke="black" points="411.15,-219.53 401.22,-215.83 406.67,-224.92 411.15,-219.53"/>
<text text-anchor="middle" x="569.86" y="-349.05" font-family="Times,serif" font-size="14.00">1</text>
</g>
</g>
</svg>
