<?xml version="1.0" encoding="UTF-8" standalone="no"?>
<!DOCTYPE svg PUBLIC "-//W3C//DTD SVG 1.1//EN"
 "http://www.w3.org/Graphics/SVG/1.1/DTD/svg11.dtd">
<!-- Generated by graphviz version 2.43.0 (0)
 -->
<!-- Title: dre.func_801A1CE8 Pages: 1 -->
<svg width="697pt" height="218pt"
 viewBox="0.00 0.00 696.68 218.00" xmlns="http://www.w3.org/2000/svg" xmlns:xlink="http://www.w3.org/1999/xlink">
<g id="graph0" class="graph" transform="scale(1 1) rotate(0) translate(4 214)">
<title>dre.func_801A1CE8</title>
<polygon fill="white" stroke="transparent" points="-4,4 -4,-214 692.68,-214 692.68,4 -4,4"/>
<!-- dre.func_801A1CE8 -->
<g id="node1" class="node">
<title>dre.func_801A1CE8</title>
<ellipse fill="red" stroke="black" cx="316.69" cy="-105" rx="102.88" ry="18"/>
<text text-anchor="middle" x="316.69" y="-101.3" font-family="Times,serif" font-size="14.00">dre.func_801A1CE8</text>
</g>
<!-- dra.AllocPrimitives -->
<g id="node2" class="node">
<title>dra.AllocPrimitives</title>
<g id="a_node2"><a xlink:href="dra.AllocPrimitives.svg" xlink:title="dra.AllocPrimitives">
<ellipse fill="green" stroke="black" cx="316.69" cy="-18" rx="99.38" ry="18"/>
<text text-anchor="middle" x="316.69" y="-14.3" font-family="Times,serif" font-size="14.00">dra.AllocPrimitives</text>
</a>
</g>
</g>
<!-- dre.func_801A1CE8&#45;&gt;dra.AllocPrimitives -->
<g id="edge1" class="edge">
<title>dre.func_801A1CE8&#45;&gt;dra.AllocPrimitives</title>
<path fill="none" stroke="black" d="M316.69,-86.8C316.69,-75.16 316.69,-59.55 316.69,-46.24"/>
<polygon fill="black" stroke="black" points="320.19,-46.18 316.69,-36.18 313.19,-46.18 320.19,-46.18"/>
<text text-anchor="middle" x="321.69" y="-57.8" font-family="Times,serif" font-size="14.00">1</text>
</g>
<!-- dre.func_8019BAB8 -->
<g id="node3" class="node">
<title>dre.func_8019BAB8</title>
<g id="a_node3"><a xlink:href="dre.func_8019BAB8.svg" xlink:title="dre.func_8019BAB8">
<ellipse fill="red" stroke="black" cx="102.69" cy="-192" rx="102.88" ry="18"/>
<text text-anchor="middle" x="102.69" y="-188.3" font-family="Times,serif" font-size="14.00">dre.func_8019BAB8</text>
</a>
</g>
</g>
<!-- dre.func_8019BAB8&#45;&gt;dre.func_801A1CE8 -->
<g id="edge2" class="edge">
<title>dre.func_8019BAB8&#45;&gt;dre.func_801A1CE8</title>
<path fill="none" stroke="black" d="M142.19,-175.31C177.6,-161.25 229.66,-140.57 267.71,-125.46"/>
<polygon fill="black" stroke="black" points="269.06,-128.69 277.06,-121.74 266.47,-122.18 269.06,-128.69"/>
<text text-anchor="middle" x="227.69" y="-144.8" font-family="Times,serif" font-size="14.00">1</text>
</g>
<!-- dre.TestCollisions -->
<g id="node4" class="node">
<title>dre.TestCollisions</title>
<g id="a_node4"><a xlink:href="dre.TestCollisions.svg" xlink:title="dre.TestCollisions">
<ellipse fill="red" stroke="black" cx="316.69" cy="-192" rx="93.68" ry="18"/>
<text text-anchor="middle" x="316.69" y="-188.3" font-family="Times,serif" font-size="14.00">dre.TestCollisions</text>
</a>
</g>
</g>
<!-- dre.TestCollisions&#45;&gt;dre.func_801A1CE8 -->
<g id="edge3" class="edge">
<title>dre.TestCollisions&#45;&gt;dre.func_801A1CE8</title>
<path fill="none" stroke="black" d="M316.69,-173.8C316.69,-162.16 316.69,-146.55 316.69,-133.24"/>
<polygon fill="black" stroke="black" points="320.19,-133.18 316.69,-123.18 313.19,-133.18 320.19,-133.18"/>
<text text-anchor="middle" x="321.69" y="-144.8" font-family="Times,serif" font-size="14.00">1</text>
</g>
<!-- dre.EntityEquipItemDrop -->
<g id="node5" class="node">
<title>dre.EntityEquipItemDrop</title>
<g id="a_node5"><a xlink:href="dre.EntityEquipItemDrop.svg" xlink:title="dre.EntityEquipItemDrop">
<ellipse fill="green" stroke="black" cx="558.69" cy="-192" rx="129.98" ry="18"/>
<text text-anchor="middle" x="558.69" y="-188.3" font-family="Times,serif" font-size="14.00">dre.EntityEquipItemDrop</text>
</a>
</g>
</g>
<!-- dre.EntityEquipItemDrop&#45;&gt;dre.func_801A1CE8 -->
<g id="edge4" class="edge">
<title>dre.EntityEquipItemDrop&#45;&gt;dre.func_801A1CE8</title>
<path fill="none" stroke="black" d="M513.46,-175.11C472.76,-160.82 412.92,-139.8 369.93,-124.7"/>
<polygon fill="black" stroke="black" points="371.08,-121.39 360.48,-121.38 368.76,-128 371.08,-121.39"/>
<text text-anchor="middle" x="457.69" y="-144.8" font-family="Times,serif" font-size="14.00">1</text>
</g>
</g>
</svg>
