<?xml version="1.0" encoding="UTF-8" standalone="no"?>
<!DOCTYPE svg PUBLIC "-//W3C//DTD SVG 1.1//EN"
 "http://www.w3.org/Graphics/SVG/1.1/DTD/svg11.dtd">
<!-- Generated by graphviz version 2.43.0 (0)
 -->
<!-- Title: dre.EntityRelicOrb Pages: 1 -->
<svg width="1986pt" height="224pt"
 viewBox="0.00 0.00 1986.18 224.00" xmlns="http://www.w3.org/2000/svg" xmlns:xlink="http://www.w3.org/1999/xlink">
<g id="graph0" class="graph" transform="scale(1 1) rotate(0) translate(4 220)">
<title>dre.EntityRelicOrb</title>
<polygon fill="white" stroke="transparent" points="-4,4 -4,-220 1982.18,-220 1982.18,4 -4,4"/>
<!-- dre.EntityRelicOrb -->
<g id="node1" class="node">
<title>dre.EntityRelicOrb</title>
<ellipse fill="red" stroke="black" cx="1025.79" cy="-198" rx="98.58" ry="18"/>
<text text-anchor="middle" x="1025.79" y="-194.3" font-family="Times,serif" font-size="14.00">dre.EntityRelicOrb</text>
</g>
<!-- dre.InitializeEntity -->
<g id="node2" class="node">
<title>dre.InitializeEntity</title>
<g id="a_node2"><a xlink:href="dre.InitializeEntity.svg" xlink:title="dre.InitializeEntity">
<ellipse fill="green" stroke="black" cx="98.79" cy="-18" rx="98.58" ry="18"/>
<text text-anchor="middle" x="98.79" y="-14.3" font-family="Times,serif" font-size="14.00">dre.InitializeEntity</text>
</a>
</g>
</g>
<!-- dre.EntityRelicOrb&#45;&gt;dre.InitializeEntity -->
<g id="edge1" class="edge">
<title>dre.EntityRelicOrb&#45;&gt;dre.InitializeEntity</title>
<path fill="none" stroke="black" d="M960.24,-184.41C793.07,-152.31 351.57,-67.54 174.17,-33.47"/>
<polygon fill="black" stroke="black" points="174.62,-30 164.14,-31.55 173.3,-36.87 174.62,-30"/>
<text text-anchor="middle" x="159.14" y="-35.35" font-family="Times,serif" font-size="14.00">1</text>
</g>
<!-- dra.AllocPrimitives -->
<g id="node3" class="node">
<title>dra.AllocPrimitives</title>
<g id="a_node3"><a xlink:href="dra.AllocPrimitives.svg" xlink:title="dra.AllocPrimitives">
<ellipse fill="green" stroke="black" cx="314.79" cy="-18" rx="99.38" ry="18"/>
<text text-anchor="middle" x="314.79" y="-14.3" font-family="Times,serif" font-size="14.00">dra.AllocPrimitives</text>
</a>
</g>
</g>
<!-- dre.EntityRelicOrb&#45;&gt;dra.AllocPrimitives -->
<g id="edge2" class="edge">
<title>dre.EntityRelicOrb&#45;&gt;dra.AllocPrimitives</title>
<path fill="none" stroke="black" d="M970.3,-183.11C841.01,-150.74 520.17,-70.42 380.98,-35.57"/>
<polygon fill="black" stroke="black" points="381.43,-32.07 370.88,-33.04 379.73,-38.86 381.43,-32.07"/>
<text text-anchor="middle" x="365.88" y="-36.84" font-family="Times,serif" font-size="14.00">1</text>
</g>
<!-- dra.LoadEquipIcon -->
<g id="node4" class="node">
<title>dra.LoadEquipIcon</title>
<g id="a_node4"><a xlink:href="dra.LoadEquipIcon.svg" xlink:title="dra.LoadEquipIcon">
<ellipse fill="green" stroke="black" cx="530.79" cy="-18" rx="98.58" ry="18"/>
<text text-anchor="middle" x="530.79" y="-14.3" font-family="Times,serif" font-size="14.00">dra.LoadEquipIcon</text>
</a>
</g>
</g>
<!-- dre.EntityRelicOrb&#45;&gt;dra.LoadEquipIcon -->
<g id="edge3" class="edge">
<title>dre.EntityRelicOrb&#45;&gt;dra.LoadEquipIcon</title>
<path fill="none" stroke="black" d="M983.16,-181.67C892.61,-149.11 681.34,-73.14 582.94,-37.75"/>
<polygon fill="black" stroke="black" points="584.09,-34.45 573.5,-34.36 581.72,-41.03 584.09,-34.45"/>
<text text-anchor="middle" x="568.5" y="-38.16" font-family="Times,serif" font-size="14.00">1</text>
</g>
<!-- dre.MoveEntity -->
<g id="node5" class="node">
<title>dre.MoveEntity</title>
<g id="a_node5"><a xlink:href="dre.MoveEntity.svg" xlink:title="dre.MoveEntity">
<ellipse fill="green" stroke="black" cx="730.79" cy="-18" rx="83.39" ry="18"/>
<text text-anchor="middle" x="730.79" y="-14.3" font-family="Times,serif" font-size="14.00">dre.MoveEntity</text>
</a>
</g>
</g>
<!-- dre.EntityRelicOrb&#45;&gt;dre.MoveEntity -->
<g id="edge4" class="edge">
<title>dre.EntityRelicOrb&#45;&gt;dre.MoveEntity</title>
<path fill="none" stroke="black" d="M998.57,-180.57C944.98,-148.24 825.84,-76.35 766.22,-40.38"/>
<polygon fill="black" stroke="black" points="767.89,-37.3 757.52,-35.13 764.28,-43.29 767.89,-37.3"/>
<text text-anchor="middle" x="752.52" y="-38.93" font-family="Times,serif" font-size="14.00">1</text>
</g>
<!-- dra.func_800FE044 -->
<g id="node6" class="node">
<title>dra.func_800FE044</title>
<g id="a_node6"><a xlink:href="dra.func_800FE044.svg" xlink:title="dra.func_800FE044">
<ellipse fill="green" stroke="black" cx="933.79" cy="-18" rx="102.08" ry="18"/>
<text text-anchor="middle" x="933.79" y="-14.3" font-family="Times,serif" font-size="14.00">dra.func_800FE044</text>
</a>
</g>
</g>
<!-- dre.EntityRelicOrb&#45;&gt;dra.func_800FE044 -->
<g id="edge5" class="edge">
<title>dre.EntityRelicOrb&#45;&gt;dra.func_800FE044</title>
<path fill="none" stroke="black" d="M1016.97,-179.93C1000.83,-148.7 966.44,-82.17 947.32,-45.18"/>
<polygon fill="black" stroke="black" points="950.29,-43.29 942.59,-36.02 944.07,-46.51 950.29,-43.29"/>
<text text-anchor="middle" x="937.59" y="-39.82" font-family="Times,serif" font-size="14.00">1</text>
</g>
<!-- ClearImage -->
<g id="node7" class="node">
<title>ClearImage</title>
<g id="a_node7"><a xlink:href="ClearImage.svg" xlink:title="ClearImage">
<ellipse fill="lightblue" stroke="black" cx="1117.79" cy="-18" rx="64.19" ry="18"/>
<text text-anchor="middle" x="1117.79" y="-14.3" font-family="Times,serif" font-size="14.00">ClearImage</text>
</a>
</g>
</g>
<!-- dre.EntityRelicOrb&#45;&gt;ClearImage -->
<g id="edge6" class="edge">
<title>dre.EntityRelicOrb&#45;&gt;ClearImage</title>
<path fill="none" stroke="black" d="M1034.61,-179.93C1050.76,-148.7 1085.14,-82.17 1104.26,-45.18"/>
<polygon fill="black" stroke="black" points="1107.51,-46.51 1109,-36.02 1101.3,-43.29 1107.51,-46.51"/>
<text text-anchor="middle" x="1104" y="-39.82" font-family="Times,serif" font-size="14.00">1</text>
</g>
<!-- dre.func_8019CDC4 -->
<g id="node8" class="node">
<title>dre.func_8019CDC4</title>
<g id="a_node8"><a xlink:href="dre.func_8019CDC4.svg" xlink:title="dre.func_8019CDC4">
<ellipse fill="red" stroke="black" cx="1303.79" cy="-18" rx="103.98" ry="18"/>
<text text-anchor="middle" x="1303.79" y="-14.3" font-family="Times,serif" font-size="14.00">dre.func_8019CDC4</text>
</a>
</g>
</g>
<!-- dre.EntityRelicOrb&#45;&gt;dre.func_8019CDC4 -->
<g id="edge7" class="edge">
<title>dre.EntityRelicOrb&#45;&gt;dre.func_8019CDC4</title>
<path fill="none" stroke="black" d="M1051.45,-180.57C1101.59,-148.47 1212.62,-77.37 1269.2,-41.15"/>
<polygon fill="black" stroke="black" points="1271.26,-43.99 1277.79,-35.65 1267.48,-38.09 1271.26,-43.99"/>
<text text-anchor="middle" x="1272.79" y="-39.45" font-family="Times,serif" font-size="14.00">1</text>
</g>
<!-- LoadTPage -->
<g id="node9" class="node">
<title>LoadTPage</title>
<g id="a_node9"><a xlink:href="LoadTPage.svg" xlink:title="LoadTPage">
<ellipse fill="lightblue" stroke="black" cx="1487.79" cy="-18" rx="61.99" ry="18"/>
<text text-anchor="middle" x="1487.79" y="-14.3" font-family="Times,serif" font-size="14.00">LoadTPage</text>
</a>
</g>
</g>
<!-- dre.EntityRelicOrb&#45;&gt;LoadTPage -->
<g id="edge8" class="edge">
<title>dre.EntityRelicOrb&#45;&gt;LoadTPage</title>
<path fill="none" stroke="black" d="M1065.98,-181.52C1151.87,-148.42 1352.8,-71.01 1442.8,-36.33"/>
<polygon fill="black" stroke="black" points="1444.11,-39.58 1452.19,-32.72 1441.6,-33.05 1444.11,-39.58"/>
<text text-anchor="middle" x="1447.19" y="-36.52" font-family="Times,serif" font-size="14.00">1</text>
</g>
<!-- dre.DestroyEntity -->
<g id="node10" class="node">
<title>dre.DestroyEntity</title>
<g id="a_node10"><a xlink:href="dre.DestroyEntity.svg" xlink:title="dre.DestroyEntity">
<ellipse fill="green" stroke="black" cx="1662.79" cy="-18" rx="94.78" ry="18"/>
<text text-anchor="middle" x="1662.79" y="-14.3" font-family="Times,serif" font-size="14.00">dre.DestroyEntity</text>
</a>
</g>
</g>
<!-- dre.EntityRelicOrb&#45;&gt;dre.DestroyEntity -->
<g id="edge9" class="edge">
<title>dre.EntityRelicOrb&#45;&gt;dre.DestroyEntity</title>
<path fill="none" stroke="black" d="M1077.38,-182.58C1193.88,-150.03 1476.9,-70.94 1601.82,-36.04"/>
<polygon fill="black" stroke="black" points="1602.92,-39.36 1611.61,-33.3 1601.04,-32.62 1602.92,-39.36"/>
<text text-anchor="middle" x="1606.61" y="-37.1" font-family="Times,serif" font-size="14.00">1</text>
</g>
<!-- dre.func_8019C738 -->
<g id="node11" class="node">
<title>dre.func_8019C738</title>
<g id="a_node11"><a xlink:href="dre.func_8019C738.svg" xlink:title="dre.func_8019C738">
<ellipse fill="green" stroke="black" cx="1876.79" cy="-18" rx="101.28" ry="18"/>
<text text-anchor="middle" x="1876.79" y="-14.3" font-family="Times,serif" font-size="14.00">dre.func_8019C738</text>
</a>
</g>
</g>
<!-- dre.EntityRelicOrb&#45;&gt;dre.func_8019C738 -->
<g id="edge10" class="edge">
<title>dre.EntityRelicOrb&#45;&gt;dre.func_8019C738</title>
<path fill="none" stroke="black" d="M1088.02,-183.98C1241.8,-151.82 1639.17,-68.7 1803.74,-34.28"/>
<polygon fill="black" stroke="black" points="1804.69,-37.66 1813.77,-32.18 1803.26,-30.8 1804.69,-37.66"/>
<text text-anchor="middle" x="1808.77" y="-35.98" font-family="Times,serif" font-size="14.00">1</text>
</g>
</g>
</svg>
