<?xml version="1.0" encoding="UTF-8" standalone="no"?>
<!DOCTYPE svg PUBLIC "-//W3C//DTD SVG 1.1//EN"
 "http://www.w3.org/Graphics/SVG/1.1/DTD/svg11.dtd">
<!-- Generated by graphviz version 2.43.0 (0)
 -->
<!-- Title: dre.InitRoomEntities Pages: 1 -->
<svg width="802pt" height="131pt"
 viewBox="0.00 0.00 802.34 131.00" xmlns="http://www.w3.org/2000/svg" xmlns:xlink="http://www.w3.org/1999/xlink">
<g id="graph0" class="graph" transform="scale(1 1) rotate(0) translate(4 127)">
<title>dre.InitRoomEntities</title>
<polygon fill="white" stroke="transparent" points="-4,4 -4,-127 798.34,-127 798.34,4 -4,4"/>
<!-- dre.InitRoomEntities -->
<g id="node1" class="node">
<title>dre.InitRoomEntities</title>
<ellipse fill="green" stroke="black" cx="364.59" cy="-105" rx="108.58" ry="18"/>
<text text-anchor="middle" x="364.59" y="-101.3" font-family="Times,serif" font-size="14.00">dre.InitRoomEntities</text>
</g>
<!-- dre.Random -->
<g id="node2" class="node">
<title>dre.Random</title>
<g id="a_node2"><a xlink:href="dre.Random.svg" xlink:title="dre.Random">
<ellipse fill="green" stroke="black" cx="67.59" cy="-18" rx="67.69" ry="18"/>
<text text-anchor="middle" x="67.59" y="-14.3" font-family="Times,serif" font-size="14.00">dre.Random</text>
</a>
</g>
</g>
<!-- dre.InitRoomEntities&#45;&gt;dre.Random -->
<g id="edge1" class="edge">
<title>dre.InitRoomEntities&#45;&gt;dre.Random</title>
<path fill="none" stroke="black" d="M312.52,-89.1C258.96,-73.77 175.91,-50 121.64,-34.47"/>
<polygon fill="black" stroke="black" points="122.43,-31.05 111.85,-31.67 120.5,-37.78 122.43,-31.05"/>
<text text-anchor="middle" x="239.59" y="-57.8" font-family="Times,serif" font-size="14.00">1</text>
</g>
<!-- dre.func_80198E74 -->
<g id="node3" class="node">
<title>dre.func_80198E74</title>
<g id="a_node3"><a xlink:href="dre.func_80198E74.svg" xlink:title="dre.func_80198E74">
<ellipse fill="green" stroke="black" cx="254.59" cy="-18" rx="101.28" ry="18"/>
<text text-anchor="middle" x="254.59" y="-14.3" font-family="Times,serif" font-size="14.00">dre.func_80198E74</text>
</a>
</g>
</g>
<!-- dre.InitRoomEntities&#45;&gt;dre.func_80198E74 -->
<g id="edge2" class="edge">
<title>dre.InitRoomEntities&#45;&gt;dre.func_80198E74</title>
<path fill="none" stroke="black" d="M342.86,-87.21C326.14,-74.28 302.84,-56.28 284.38,-42.02"/>
<polygon fill="black" stroke="black" points="286.33,-39.1 276.28,-35.76 282.05,-44.64 286.33,-39.1"/>
<text text-anchor="middle" x="321.59" y="-57.8" font-family="Times,serif" font-size="14.00">1</text>
</g>
<!-- dre.func_80198F18 -->
<g id="node4" class="node">
<title>dre.func_80198F18</title>
<g id="a_node4"><a xlink:href="dre.func_80198F18.svg" xlink:title="dre.func_80198F18">
<ellipse fill="red" stroke="black" cx="474.59" cy="-18" rx="100.98" ry="18"/>
<text text-anchor="middle" x="474.59" y="-14.3" font-family="Times,serif" font-size="14.00">dre.func_80198F18</text>
</a>
</g>
</g>
<!-- dre.InitRoomEntities&#45;&gt;dre.func_80198F18 -->
<g id="edge3" class="edge">
<title>dre.InitRoomEntities&#45;&gt;dre.func_80198F18</title>
<path fill="none" stroke="black" d="M386.33,-87.21C403.05,-74.28 426.35,-56.28 444.81,-42.02"/>
<polygon fill="black" stroke="black" points="447.13,-44.64 452.91,-35.76 442.85,-39.1 447.13,-44.64"/>
<text text-anchor="middle" x="431.59" y="-57.8" font-family="Times,serif" font-size="14.00">1</text>
</g>
<!-- dre.func_80199128 -->
<g id="node5" class="node">
<title>dre.func_80199128</title>
<g id="a_node5"><a xlink:href="dre.func_80199128.svg" xlink:title="dre.func_80199128">
<ellipse fill="green" stroke="black" cx="693.59" cy="-18" rx="100.98" ry="18"/>
<text text-anchor="middle" x="693.59" y="-14.3" font-family="Times,serif" font-size="14.00">dre.func_80199128</text>
</a>
</g>
</g>
<!-- dre.InitRoomEntities&#45;&gt;dre.func_80199128 -->
<g id="edge4" class="edge">
<title>dre.InitRoomEntities&#45;&gt;dre.func_80199128</title>
<path fill="none" stroke="black" d="M420.78,-89.48C478.5,-74.57 568.24,-51.39 628.89,-35.72"/>
<polygon fill="black" stroke="black" points="629.93,-39.06 638.74,-33.17 628.18,-32.29 629.93,-39.06"/>
<text text-anchor="middle" x="554.59" y="-57.8" font-family="Times,serif" font-size="14.00">1</text>
</g>
</g>
</svg>
