<?xml version="1.0" encoding="UTF-8" standalone="no"?>
<!DOCTYPE svg PUBLIC "-//W3C//DTD SVG 1.1//EN"
 "http://www.w3.org/Graphics/SVG/1.1/DTD/svg11.dtd">
<!-- Generated by graphviz version 2.43.0 (0)
 -->
<!-- Title: dre.EntityStageNamePopup Pages: 1 -->
<svg width="1121pt" height="224pt"
 viewBox="0.00 0.00 1120.84 224.00" xmlns="http://www.w3.org/2000/svg" xmlns:xlink="http://www.w3.org/1999/xlink">
<g id="graph0" class="graph" transform="scale(1 1) rotate(0) translate(4 220)">
<title>dre.EntityStageNamePopup</title>
<polygon fill="white" stroke="transparent" points="-4,4 -4,-220 1116.84,-220 1116.84,4 -4,4"/>
<!-- dre.EntityStageNamePopup -->
<g id="node1" class="node">
<title>dre.EntityStageNamePopup</title>
<ellipse fill="red" stroke="black" cx="592.79" cy="-198" rx="141.07" ry="18"/>
<text text-anchor="middle" x="592.79" y="-194.3" font-family="Times,serif" font-size="14.00">dre.EntityStageNamePopup</text>
</g>
<!-- dre.InitializeEntity -->
<g id="node2" class="node">
<title>dre.InitializeEntity</title>
<g id="a_node2"><a xlink:href="dre.InitializeEntity.svg" xlink:title="dre.InitializeEntity">
<ellipse fill="green" stroke="black" cx="98.79" cy="-18" rx="98.58" ry="18"/>
<text text-anchor="middle" x="98.79" y="-14.3" font-family="Times,serif" font-size="14.00">dre.InitializeEntity</text>
</a>
</g>
</g>
<!-- dre.EntityStageNamePopup&#45;&gt;dre.InitializeEntity -->
<g id="edge1" class="edge">
<title>dre.EntityStageNamePopup&#45;&gt;dre.InitializeEntity</title>
<path fill="none" stroke="black" d="M548.08,-180.89C456.58,-147.92 248.38,-72.9 150.93,-37.79"/>
<polygon fill="black" stroke="black" points="151.88,-34.41 141.29,-34.31 149.51,-40.99 151.88,-34.41"/>
<text text-anchor="middle" x="136.29" y="-38.11" font-family="Times,serif" font-size="14.00">1</text>
</g>
<!-- dra.AllocPrimitives -->
<g id="node3" class="node">
<title>dra.AllocPrimitives</title>
<g id="a_node3"><a xlink:href="dra.AllocPrimitives.svg" xlink:title="dra.AllocPrimitives">
<ellipse fill="green" stroke="black" cx="314.79" cy="-18" rx="99.38" ry="18"/>
<text text-anchor="middle" x="314.79" y="-14.3" font-family="Times,serif" font-size="14.00">dra.AllocPrimitives</text>
</a>
</g>
</g>
<!-- dre.EntityStageNamePopup&#45;&gt;dra.AllocPrimitives -->
<g id="edge2" class="edge">
<title>dre.EntityStageNamePopup&#45;&gt;dra.AllocPrimitives</title>
<path fill="none" stroke="black" d="M566.64,-180.25C516.22,-147.97 405.57,-77.13 349.23,-41.05"/>
<polygon fill="black" stroke="black" points="350.98,-38.02 340.67,-35.57 347.21,-43.91 350.98,-38.02"/>
<text text-anchor="middle" x="335.67" y="-39.37" font-family="Times,serif" font-size="14.00">1</text>
</g>
<!-- dre.Random -->
<g id="node4" class="node">
<title>dre.Random</title>
<g id="a_node4"><a xlink:href="dre.Random.svg" xlink:title="dre.Random">
<ellipse fill="green" stroke="black" cx="499.79" cy="-18" rx="67.69" ry="18"/>
<text text-anchor="middle" x="499.79" y="-14.3" font-family="Times,serif" font-size="14.00">dre.Random</text>
</a>
</g>
</g>
<!-- dre.EntityStageNamePopup&#45;&gt;dre.Random -->
<g id="edge3" class="edge">
<title>dre.EntityStageNamePopup&#45;&gt;dre.Random</title>
<path fill="none" stroke="black" d="M583.87,-179.93C567.56,-148.7 532.8,-82.17 513.47,-45.18"/>
<polygon fill="black" stroke="black" points="516.41,-43.26 508.68,-36.02 510.21,-46.5 516.41,-43.26"/>
<text text-anchor="middle" x="503.68" y="-39.82" font-family="Times,serif" font-size="14.00">4</text>
</g>
<!-- dre.func_801A0564 -->
<g id="node5" class="node">
<title>dre.func_801A0564</title>
<g id="a_node5"><a xlink:href="dre.func_801A0564.svg" xlink:title="dre.func_801A0564">
<ellipse fill="green" stroke="black" cx="685.79" cy="-18" rx="100.98" ry="18"/>
<text text-anchor="middle" x="685.79" y="-14.3" font-family="Times,serif" font-size="14.00">dre.func_801A0564</text>
</a>
</g>
</g>
<!-- dre.EntityStageNamePopup&#45;&gt;dre.func_801A0564 -->
<g id="edge4" class="edge">
<title>dre.EntityStageNamePopup&#45;&gt;dre.func_801A0564</title>
<path fill="none" stroke="black" d="M601.71,-179.93C618.03,-148.7 652.79,-82.17 672.11,-45.18"/>
<polygon fill="black" stroke="black" points="675.37,-46.5 676.9,-36.02 669.17,-43.26 675.37,-46.5"/>
<text text-anchor="middle" x="671.9" y="-39.82" font-family="Times,serif" font-size="14.00">2</text>
</g>
<!-- dre.DestroyEntity -->
<g id="node6" class="node">
<title>dre.DestroyEntity</title>
<g id="a_node6"><a xlink:href="dre.DestroyEntity.svg" xlink:title="dre.DestroyEntity">
<ellipse fill="green" stroke="black" cx="899.79" cy="-18" rx="94.78" ry="18"/>
<text text-anchor="middle" x="899.79" y="-14.3" font-family="Times,serif" font-size="14.00">dre.DestroyEntity</text>
</a>
</g>
</g>
<!-- dre.EntityStageNamePopup&#45;&gt;dre.DestroyEntity -->
<g id="edge5" class="edge">
<title>dre.EntityStageNamePopup&#45;&gt;dre.DestroyEntity</title>
<path fill="none" stroke="black" d="M621.67,-180.25C677.73,-147.75 801.17,-76.18 863,-40.33"/>
<polygon fill="black" stroke="black" points="864.76,-43.36 871.65,-35.31 861.25,-37.3 864.76,-43.36"/>
<text text-anchor="middle" x="866.65" y="-39.11" font-family="Times,serif" font-size="14.00">1</text>
</g>
<!-- FntPrint -->
<g id="node7" class="node">
<title>FntPrint</title>
<g id="a_node7"><a xlink:href="FntPrint.svg" xlink:title="FntPrint">
<ellipse fill="lightblue" stroke="black" cx="1062.79" cy="-18" rx="50.09" ry="18"/>
<text text-anchor="middle" x="1062.79" y="-14.3" font-family="Times,serif" font-size="14.00">FntPrint</text>
</a>
</g>
</g>
<!-- dre.EntityStageNamePopup&#45;&gt;FntPrint -->
<g id="edge6" class="edge">
<title>dre.EntityStageNamePopup&#45;&gt;FntPrint</title>
<path fill="none" stroke="black" d="M635.75,-180.73C725.19,-146.86 930.52,-69.09 1019.9,-35.24"/>
<polygon fill="black" stroke="black" points="1021.34,-38.44 1029.46,-31.62 1018.86,-31.89 1021.34,-38.44"/>
<text text-anchor="middle" x="1024.46" y="-35.42" font-family="Times,serif" font-size="14.00">2</text>
</g>
</g>
</svg>
