<?xml version="1.0" encoding="UTF-8" standalone="no"?>
<!DOCTYPE svg PUBLIC "-//W3C//DTD SVG 1.1//EN"
 "http://www.w3.org/Graphics/SVG/1.1/DTD/svg11.dtd">
<!-- Generated by graphviz version 2.43.0 (0)
 -->
<!-- Title: dre.PreventEntityFromRespawning Pages: 1 -->
<svg width="418pt" height="224pt"
 viewBox="0.00 0.00 417.63 224.00" xmlns="http://www.w3.org/2000/svg" xmlns:xlink="http://www.w3.org/1999/xlink">
<g id="graph0" class="graph" transform="scale(1 1) rotate(0) translate(4 220)">
<title>dre.PreventEntityFromRespawning</title>
<polygon fill="white" stroke="transparent" points="-4,4 -4,-220 413.63,-220 413.63,4 -4,4"/>
<!-- dre.PreventEntityFromRespawning -->
<g id="node1" class="node">
<title>dre.PreventEntityFromRespawning</title>
<ellipse fill="green" stroke="black" cx="209.04" cy="-18" rx="176.27" ry="18"/>
<text text-anchor="middle" x="209.04" y="-14.3" font-family="Times,serif" font-size="14.00">dre.PreventEntityFromRespawning</text>
</g>
<!-- dre.func_8019B7A0 -->
<g id="node2" class="node">
<title>dre.func_8019B7A0</title>
<g id="a_node2"><a xlink:href="dre.func_8019B7A0.svg" xlink:title="dre.func_8019B7A0">
<ellipse fill="green" stroke="black" cx="102.04" cy="-198" rx="102.08" ry="18"/>
<text text-anchor="middle" x="102.04" y="-194.3" font-family="Times,serif" font-size="14.00">dre.func_8019B7A0</text>
</a>
</g>
</g>
<!-- dre.func_8019B7A0&#45;&gt;dre.PreventEntityFromRespawning -->
<g id="edge1" class="edge">
<title>dre.func_8019B7A0&#45;&gt;dre.PreventEntityFromRespawning</title>
<path fill="none" stroke="black" d="M112.3,-179.93C131.15,-148.57 171.41,-81.6 193.59,-44.71"/>
<polygon fill="black" stroke="black" points="196.66,-46.39 198.81,-36.02 190.66,-42.78 196.66,-46.39"/>
<text text-anchor="middle" x="107.3" y="-168.73" font-family="Times,serif" font-size="14.00">1</text>
</g>
<!-- dre.TestCollisions -->
<g id="node3" class="node">
<title>dre.TestCollisions</title>
<g id="a_node3"><a xlink:href="dre.TestCollisions.svg" xlink:title="dre.TestCollisions">
<ellipse fill="red" stroke="black" cx="316.04" cy="-198" rx="93.68" ry="18"/>
<text text-anchor="middle" x="316.04" y="-194.3" font-family="Times,serif" font-size="14.00">dre.TestCollisions</text>
</a>
</g>
</g>
<!-- dre.TestCollisions&#45;&gt;dre.PreventEntityFromRespawning -->
<g id="edge2" class="edge">
<title>dre.TestCollisions&#45;&gt;dre.PreventEntityFromRespawning</title>
<path fill="none" stroke="black" d="M305.78,-179.93C286.93,-148.57 246.67,-81.6 224.49,-44.71"/>
<polygon fill="black" stroke="black" points="227.42,-42.78 219.27,-36.02 221.42,-46.39 227.42,-42.78"/>
<text text-anchor="middle" x="300.78" y="-168.73" font-family="Times,serif" font-size="14.00">1</text>
</g>
</g>
</svg>
