<?xml version="1.0" encoding="UTF-8" standalone="no"?>
<!DOCTYPE svg PUBLIC "-//W3C//DTD SVG 1.1//EN"
 "http://www.w3.org/Graphics/SVG/1.1/DTD/svg11.dtd">
<!-- Generated by graphviz version 2.43.0 (0)
 -->
<!-- Title: EntityMagicallySealedDoor Pages: 1 -->
<svg width="2945pt" height="131pt"
 viewBox="0.00 0.00 2944.54 131.00" xmlns="http://www.w3.org/2000/svg" xmlns:xlink="http://www.w3.org/1999/xlink">
<g id="graph0" class="graph" transform="scale(1 1) rotate(0) translate(4 127)">
<title>EntityMagicallySealedDoor</title>
<polygon fill="white" stroke="transparent" points="-4,4 -4,-127 2940.54,-127 2940.54,4 -4,4"/>
<!-- nz0/EntityMagicallySealedDoor -->
<g id="node1" class="node">
<title>nz0/EntityMagicallySealedDoor</title>
<ellipse fill="red" stroke="black" cx="1472.44" cy="-105" rx="157.07" ry="18"/>
<text text-anchor="middle" x="1472.44" y="-101.3" font-family="Times,serif" font-size="14.00">nz0/EntityMagicallySealedDoor</text>
</g>
<!-- nz0/InitializeEntity -->
<g id="node2" class="node">
<title>nz0/InitializeEntity</title>
<g id="a_node2"><a xlink:href="InitializeEntity.svg" xlink:title="nz0/InitializeEntity">
<ellipse fill="green" stroke="black" cx="99.44" cy="-18" rx="99.38" ry="18"/>
<text text-anchor="middle" x="99.44" y="-14.3" font-family="Times,serif" font-size="14.00">nz0/InitializeEntity</text>
</a>
</g>
</g>
<!-- nz0/EntityMagicallySealedDoor&#45;&gt;nz0/InitializeEntity -->
<g id="edge1" class="edge">
<title>nz0/EntityMagicallySealedDoor&#45;&gt;nz0/InitializeEntity</title>
<path fill="none" stroke="black" d="M1317.73,-101.7C1078.97,-96.8 606.62,-81.71 208.44,-36 199.12,-34.93 189.38,-33.65 179.71,-32.27"/>
<polygon fill="black" stroke="black" points="180.09,-28.79 169.69,-30.81 179.08,-35.72 180.09,-28.79"/>
<text text-anchor="middle" x="560.44" y="-57.8" font-family="Times,serif" font-size="14.00">1</text>
</g>
<!-- nz0/g_api_AllocPrimitives -->
<g id="node3" class="node">
<title>nz0/g_api_AllocPrimitives</title>
<g id="a_node3"><a xlink:href="g_api_AllocPrimitives.svg" xlink:title="nz0/g_api_AllocPrimitives">
<ellipse fill="lightblue" stroke="black" cx="346.44" cy="-18" rx="129.18" ry="18"/>
<text text-anchor="middle" x="346.44" y="-14.3" font-family="Times,serif" font-size="14.00">nz0/g_api_AllocPrimitives</text>
</a>
</g>
</g>
<!-- nz0/EntityMagicallySealedDoor&#45;&gt;nz0/g_api_AllocPrimitives -->
<g id="edge2" class="edge">
<title>nz0/EntityMagicallySealedDoor&#45;&gt;nz0/g_api_AllocPrimitives</title>
<path fill="none" stroke="black" d="M1329.92,-97.32C1203.99,-91.1 1015.41,-80.99 851.44,-69 688.11,-57.06 647.29,-53.35 484.44,-36 472.72,-34.75 460.45,-33.36 448.27,-31.93"/>
<polygon fill="black" stroke="black" points="448.41,-28.42 438.07,-30.72 447.58,-35.37 448.41,-28.42"/>
<text text-anchor="middle" x="856.44" y="-57.8" font-family="Times,serif" font-size="14.00">1</text>
</g>
<!-- nz0/DestroyEntity -->
<g id="node4" class="node">
<title>nz0/DestroyEntity</title>
<g id="a_node4"><a xlink:href="DestroyEntity.svg" xlink:title="nz0/DestroyEntity">
<ellipse fill="green" stroke="black" cx="589.44" cy="-18" rx="95.58" ry="18"/>
<text text-anchor="middle" x="589.44" y="-14.3" font-family="Times,serif" font-size="14.00">nz0/DestroyEntity</text>
</a>
</g>
</g>
<!-- nz0/EntityMagicallySealedDoor&#45;&gt;nz0/DestroyEntity -->
<g id="edge3" class="edge">
<title>nz0/EntityMagicallySealedDoor&#45;&gt;nz0/DestroyEntity</title>
<path fill="none" stroke="black" d="M1338.92,-95.45C1183.69,-84.79 919.93,-64.44 694.44,-36 685.72,-34.9 676.62,-33.62 667.57,-32.27"/>
<polygon fill="black" stroke="black" points="667.82,-28.77 657.4,-30.72 666.76,-35.69 667.82,-28.77"/>
<text text-anchor="middle" x="998.44" y="-57.8" font-family="Times,serif" font-size="14.00">1</text>
</g>
<!-- nz0/func_801C7CF0 -->
<g id="node5" class="node">
<title>nz0/func_801C7CF0</title>
<g id="a_node5"><a xlink:href="func_801C7CF0.svg" xlink:title="nz0/func_801C7CF0">
<ellipse fill="green" stroke="black" cx="807.44" cy="-18" rx="103.98" ry="18"/>
<text text-anchor="middle" x="807.44" y="-14.3" font-family="Times,serif" font-size="14.00">nz0/func_801C7CF0</text>
</a>
</g>
</g>
<!-- nz0/EntityMagicallySealedDoor&#45;&gt;nz0/func_801C7CF0 -->
<g id="edge4" class="edge">
<title>nz0/EntityMagicallySealedDoor&#45;&gt;nz0/func_801C7CF0</title>
<path fill="none" stroke="black" d="M1365.99,-91.74C1254.75,-78.73 1075.18,-57.17 920.44,-36 911.25,-34.74 901.65,-33.38 892.09,-31.99"/>
<polygon fill="black" stroke="black" points="892.57,-28.52 882.16,-30.53 891.55,-35.44 892.57,-28.52"/>
<text text-anchor="middle" x="1168.44" y="-57.8" font-family="Times,serif" font-size="14.00">3</text>
</g>
<!-- nz0/func_801BD9A0 -->
<g id="node6" class="node">
<title>nz0/func_801BD9A0</title>
<g id="a_node6"><a xlink:href="func_801BD9A0.svg" xlink:title="nz0/func_801BD9A0">
<ellipse fill="red" stroke="black" cx="1034.44" cy="-18" rx="104.78" ry="18"/>
<text text-anchor="middle" x="1034.44" y="-14.3" font-family="Times,serif" font-size="14.00">nz0/func_801BD9A0</text>
</a>
</g>
</g>
<!-- nz0/EntityMagicallySealedDoor&#45;&gt;nz0/func_801BD9A0 -->
<g id="edge5" class="edge">
<title>nz0/EntityMagicallySealedDoor&#45;&gt;nz0/func_801BD9A0</title>
<path fill="none" stroke="black" d="M1396.15,-89.19C1316.23,-73.69 1191.41,-49.46 1111.29,-33.91"/>
<polygon fill="black" stroke="black" points="1111.75,-30.44 1101.26,-31.97 1110.41,-37.31 1111.75,-30.44"/>
<text text-anchor="middle" x="1285.44" y="-57.8" font-family="Times,serif" font-size="14.00">1</text>
</g>
<!-- nz0/GetSideToPlayer -->
<g id="node7" class="node">
<title>nz0/GetSideToPlayer</title>
<g id="a_node7"><a xlink:href="GetSideToPlayer.svg" xlink:title="nz0/GetSideToPlayer">
<ellipse fill="green" stroke="black" cx="1265.44" cy="-18" rx="107.78" ry="18"/>
<text text-anchor="middle" x="1265.44" y="-14.3" font-family="Times,serif" font-size="14.00">nz0/GetSideToPlayer</text>
</a>
</g>
</g>
<!-- nz0/EntityMagicallySealedDoor&#45;&gt;nz0/GetSideToPlayer -->
<g id="edge6" class="edge">
<title>nz0/EntityMagicallySealedDoor&#45;&gt;nz0/GetSideToPlayer</title>
<path fill="none" stroke="black" d="M1432.04,-87.41C1398.02,-73.44 1349.29,-53.43 1313.31,-38.66"/>
<polygon fill="black" stroke="black" points="1314.57,-35.39 1303.99,-34.83 1311.91,-41.87 1314.57,-35.39"/>
<text text-anchor="middle" x="1386.44" y="-57.8" font-family="Times,serif" font-size="14.00">2</text>
</g>
<!-- nz0/AllocEntity -->
<g id="node8" class="node">
<title>nz0/AllocEntity</title>
<g id="a_node8"><a xlink:href="AllocEntity.svg" xlink:title="nz0/AllocEntity">
<ellipse fill="green" stroke="black" cx="1472.44" cy="-18" rx="81.49" ry="18"/>
<text text-anchor="middle" x="1472.44" y="-14.3" font-family="Times,serif" font-size="14.00">nz0/AllocEntity</text>
</a>
</g>
</g>
<!-- nz0/EntityMagicallySealedDoor&#45;&gt;nz0/AllocEntity -->
<g id="edge7" class="edge">
<title>nz0/EntityMagicallySealedDoor&#45;&gt;nz0/AllocEntity</title>
<path fill="none" stroke="black" d="M1472.44,-86.8C1472.44,-75.16 1472.44,-59.55 1472.44,-46.24"/>
<polygon fill="black" stroke="black" points="1475.94,-46.18 1472.44,-36.18 1468.94,-46.18 1475.94,-46.18"/>
<text text-anchor="middle" x="1477.44" y="-57.8" font-family="Times,serif" font-size="14.00">1</text>
</g>
<!-- nz0/CreateEntityFromCurrentEntity -->
<g id="node9" class="node">
<title>nz0/CreateEntityFromCurrentEntity</title>
<g id="a_node9"><a xlink:href="CreateEntityFromCurrentEntity.svg" xlink:title="nz0/CreateEntityFromCurrentEntity">
<ellipse fill="green" stroke="black" cx="1752.44" cy="-18" rx="180.87" ry="18"/>
<text text-anchor="middle" x="1752.44" y="-14.3" font-family="Times,serif" font-size="14.00">nz0/CreateEntityFromCurrentEntity</text>
</a>
</g>
</g>
<!-- nz0/EntityMagicallySealedDoor&#45;&gt;nz0/CreateEntityFromCurrentEntity -->
<g id="edge8" class="edge">
<title>nz0/EntityMagicallySealedDoor&#45;&gt;nz0/CreateEntityFromCurrentEntity</title>
<path fill="none" stroke="black" d="M1525.11,-88.01C1571.74,-73.86 1639.9,-53.16 1689.42,-38.13"/>
<polygon fill="black" stroke="black" points="1690.51,-41.46 1699.06,-35.21 1688.47,-34.76 1690.51,-41.46"/>
<text text-anchor="middle" x="1634.44" y="-57.8" font-family="Times,serif" font-size="14.00">1</text>
</g>
<!-- nz0/g_api_PlaySfx -->
<g id="node10" class="node">
<title>nz0/g_api_PlaySfx</title>
<g id="a_node10"><a xlink:href="g_api_PlaySfx.svg" xlink:title="nz0/g_api_PlaySfx">
<ellipse fill="lightblue" stroke="black" cx="2045.44" cy="-18" rx="94.48" ry="18"/>
<text text-anchor="middle" x="2045.44" y="-14.3" font-family="Times,serif" font-size="14.00">nz0/g_api_PlaySfx</text>
</a>
</g>
</g>
<!-- nz0/EntityMagicallySealedDoor&#45;&gt;nz0/g_api_PlaySfx -->
<g id="edge9" class="edge">
<title>nz0/EntityMagicallySealedDoor&#45;&gt;nz0/g_api_PlaySfx</title>
<path fill="none" stroke="black" d="M1568.39,-90.69C1663.43,-77.37 1813.1,-56.03 1942.44,-36 1950.4,-34.77 1958.7,-33.45 1966.98,-32.12"/>
<polygon fill="black" stroke="black" points="1967.74,-35.54 1977.05,-30.48 1966.62,-28.63 1967.74,-35.54"/>
<text text-anchor="middle" x="1819.44" y="-57.8" font-family="Times,serif" font-size="14.00">2</text>
</g>
<!-- nz0/g_api_func_8010E168 -->
<g id="node11" class="node">
<title>nz0/g_api_func_8010E168</title>
<g id="a_node11"><a xlink:href="g_api_func_8010E168.svg" xlink:title="nz0/g_api_func_8010E168">
<ellipse fill="lightblue" stroke="black" cx="2289.44" cy="-18" rx="131.08" ry="18"/>
<text text-anchor="middle" x="2289.44" y="-14.3" font-family="Times,serif" font-size="14.00">nz0/g_api_func_8010E168</text>
</a>
</g>
</g>
<!-- nz0/EntityMagicallySealedDoor&#45;&gt;nz0/g_api_func_8010E168 -->
<g id="edge10" class="edge">
<title>nz0/EntityMagicallySealedDoor&#45;&gt;nz0/g_api_func_8010E168</title>
<path fill="none" stroke="black" d="M1589.76,-93C1724.65,-80.16 1952.68,-57.89 2148.44,-36 2160.43,-34.66 2172.98,-33.21 2185.45,-31.74"/>
<polygon fill="black" stroke="black" points="2185.9,-35.21 2195.42,-30.56 2185.08,-28.26 2185.9,-35.21"/>
<text text-anchor="middle" x="1987.44" y="-57.8" font-family="Times,serif" font-size="14.00">1</text>
</g>
<!-- nz0/g_api_func_8010DFF0 -->
<g id="node12" class="node">
<title>nz0/g_api_func_8010DFF0</title>
<g id="a_node12"><a xlink:href="g_api_func_8010DFF0.svg" xlink:title="nz0/g_api_func_8010DFF0">
<ellipse fill="lightblue" stroke="black" cx="2571.44" cy="-18" rx="132.68" ry="18"/>
<text text-anchor="middle" x="2571.44" y="-14.3" font-family="Times,serif" font-size="14.00">nz0/g_api_func_8010DFF0</text>
</a>
</g>
</g>
<!-- nz0/EntityMagicallySealedDoor&#45;&gt;nz0/g_api_func_8010DFF0 -->
<g id="edge11" class="edge">
<title>nz0/EntityMagicallySealedDoor&#45;&gt;nz0/g_api_func_8010DFF0</title>
<path fill="none" stroke="black" d="M1611.31,-96.46C1797.68,-85.81 2138.93,-64.45 2429.44,-36 2441.82,-34.79 2454.8,-33.4 2467.66,-31.95"/>
<polygon fill="black" stroke="black" points="2468.4,-35.39 2477.93,-30.77 2467.6,-28.43 2468.4,-35.39"/>
<text text-anchor="middle" x="2225.44" y="-57.8" font-family="Times,serif" font-size="14.00">1</text>
</g>
<!-- nz0/rcos -->
<g id="node13" class="node">
<title>nz0/rcos</title>
<g id="a_node13"><a xlink:href="rcos.svg" xlink:title="nz0/rcos">
<ellipse fill="red" stroke="black" cx="2772.44" cy="-18" rx="50.09" ry="18"/>
<text text-anchor="middle" x="2772.44" y="-14.3" font-family="Times,serif" font-size="14.00">nz0/rcos</text>
</a>
</g>
</g>
<!-- nz0/EntityMagicallySealedDoor&#45;&gt;nz0/rcos -->
<g id="edge12" class="edge">
<title>nz0/EntityMagicallySealedDoor&#45;&gt;nz0/rcos</title>
<path fill="none" stroke="black" d="M1618.57,-98.28C1772,-92.05 2020.26,-81.3 2234.44,-69 2447.48,-56.77 2503.29,-73.08 2713.44,-36 2717.81,-35.23 2722.32,-34.26 2726.81,-33.18"/>
<polygon fill="black" stroke="black" points="2727.73,-36.55 2736.53,-30.66 2725.97,-29.78 2727.73,-36.55"/>
<text text-anchor="middle" x="2590.44" y="-57.8" font-family="Times,serif" font-size="14.00">2</text>
</g>
<!-- nz0/rsin -->
<g id="node14" class="node">
<title>nz0/rsin</title>
<g id="a_node14"><a xlink:href="rsin.svg" xlink:title="nz0/rsin">
<ellipse fill="green" stroke="black" cx="2888.44" cy="-18" rx="48.19" ry="18"/>
<text text-anchor="middle" x="2888.44" y="-14.3" font-family="Times,serif" font-size="14.00">nz0/rsin</text>
</a>
</g>
</g>
<!-- nz0/EntityMagicallySealedDoor&#45;&gt;nz0/rsin -->
<g id="edge13" class="edge">
<title>nz0/EntityMagicallySealedDoor&#45;&gt;nz0/rsin</title>
<path fill="none" stroke="black" d="M1630.02,-104.58C1848.21,-104.13 2254.49,-98.8 2599.44,-69 2703.2,-60.04 2729.7,-58.28 2831.44,-36 2835.36,-35.14 2839.4,-34.15 2843.43,-33.09"/>
<polygon fill="black" stroke="black" points="2844.68,-36.38 2853.38,-30.35 2842.81,-29.63 2844.68,-36.38"/>
<text text-anchor="middle" x="2745.44" y="-57.8" font-family="Times,serif" font-size="14.00">2</text>
</g>
</g>
</svg>
