<?xml version="1.0" encoding="UTF-8" standalone="no"?>
<!DOCTYPE svg PUBLIC "-//W3C//DTD SVG 1.1//EN"
 "http://www.w3.org/Graphics/SVG/1.1/DTD/svg11.dtd">
<!-- Generated by graphviz version 2.43.0 (0)
 -->
<!-- Title: EntitySmallWaterSplash Pages: 1 -->
<svg width="826pt" height="131pt"
 viewBox="0.00 0.00 826.28 131.00" xmlns="http://www.w3.org/2000/svg" xmlns:xlink="http://www.w3.org/1999/xlink">
<g id="graph0" class="graph" transform="scale(1 1) rotate(0) translate(4 127)">
<title>EntitySmallWaterSplash</title>
<polygon fill="white" stroke="transparent" points="-4,4 -4,-127 822.28,-127 822.28,4 -4,4"/>
<!-- no3/EntitySmallWaterSplash -->
<g id="node1" class="node">
<title>no3/EntitySmallWaterSplash</title>
<ellipse fill="red" stroke="black" cx="454.09" cy="-105" rx="144.87" ry="18"/>
<text text-anchor="middle" x="454.09" y="-101.3" font-family="Times,serif" font-size="14.00">no3/EntitySmallWaterSplash</text>
</g>
<!-- no3/InitializeEntity -->
<g id="node2" class="node">
<title>no3/InitializeEntity</title>
<g id="a_node2"><a xlink:href="InitializeEntity.svg" xlink:title="no3/InitializeEntity">
<ellipse fill="green" stroke="black" cx="100.09" cy="-18" rx="100.18" ry="18"/>
<text text-anchor="middle" x="100.09" y="-14.3" font-family="Times,serif" font-size="14.00">no3/InitializeEntity</text>
</a>
</g>
</g>
<!-- no3/EntitySmallWaterSplash&#45;&gt;no3/InitializeEntity -->
<g id="edge1" class="edge">
<title>no3/EntitySmallWaterSplash&#45;&gt;no3/InitializeEntity</title>
<path fill="none" stroke="black" d="M390.8,-88.8C327.94,-73.71 231.9,-50.65 167.6,-35.21"/>
<polygon fill="black" stroke="black" points="168.1,-31.73 157.56,-32.8 166.47,-38.54 168.1,-31.73"/>
<text text-anchor="middle" x="304.09" y="-57.8" font-family="Times,serif" font-size="14.00">1</text>
</g>
<!-- no3/g_api_func_800EDB58 -->
<g id="node3" class="node">
<title>no3/g_api_func_800EDB58</title>
<g id="a_node3"><a xlink:href="g_api_func_800EDB58.svg" xlink:title="no3/g_api_func_800EDB58">
<ellipse fill="lightblue" stroke="black" cx="352.09" cy="-18" rx="133.78" ry="18"/>
<text text-anchor="middle" x="352.09" y="-14.3" font-family="Times,serif" font-size="14.00">no3/g_api_func_800EDB58</text>
</a>
</g>
</g>
<!-- no3/EntitySmallWaterSplash&#45;&gt;no3/g_api_func_800EDB58 -->
<g id="edge2" class="edge">
<title>no3/EntitySmallWaterSplash&#45;&gt;no3/g_api_func_800EDB58</title>
<path fill="none" stroke="black" d="M433.45,-86.8C418.14,-74.04 397.1,-56.5 380.25,-42.46"/>
<polygon fill="black" stroke="black" points="382.28,-39.6 372.35,-35.89 377.8,-44.98 382.28,-39.6"/>
<text text-anchor="middle" x="415.09" y="-57.8" font-family="Times,serif" font-size="14.00">1</text>
</g>
<!-- no3/rand -->
<g id="node4" class="node">
<title>no3/rand</title>
<g id="a_node4"><a xlink:href="rand.svg" xlink:title="no3/rand">
<ellipse fill="lightblue" stroke="black" cx="556.09" cy="-18" rx="51.99" ry="18"/>
<text text-anchor="middle" x="556.09" y="-14.3" font-family="Times,serif" font-size="14.00">no3/rand</text>
</a>
</g>
</g>
<!-- no3/EntitySmallWaterSplash&#45;&gt;no3/rand -->
<g id="edge3" class="edge">
<title>no3/EntitySmallWaterSplash&#45;&gt;no3/rand</title>
<path fill="none" stroke="black" d="M474.73,-86.8C490.34,-73.79 511.91,-55.81 528.92,-41.64"/>
<polygon fill="black" stroke="black" points="531.42,-44.12 536.86,-35.03 526.94,-38.74 531.42,-44.12"/>
<text text-anchor="middle" x="517.09" y="-57.8" font-family="Times,serif" font-size="14.00">4</text>
</g>
<!-- no3/DestroyEntity -->
<g id="node5" class="node">
<title>no3/DestroyEntity</title>
<g id="a_node5"><a xlink:href="DestroyEntity.svg" xlink:title="no3/DestroyEntity">
<ellipse fill="green" stroke="black" cx="722.09" cy="-18" rx="96.38" ry="18"/>
<text text-anchor="middle" x="722.09" y="-14.3" font-family="Times,serif" font-size="14.00">no3/DestroyEntity</text>
</a>
</g>
</g>
<!-- no3/EntitySmallWaterSplash&#45;&gt;no3/DestroyEntity -->
<g id="edge4" class="edge">
<title>no3/EntitySmallWaterSplash&#45;&gt;no3/DestroyEntity</title>
<path fill="none" stroke="black" d="M504.5,-88.01C550.46,-73.44 618.27,-51.93 665.94,-36.81"/>
<polygon fill="black" stroke="black" points="667.02,-40.14 675.5,-33.78 664.9,-33.47 667.02,-40.14"/>
<text text-anchor="middle" x="610.09" y="-57.8" font-family="Times,serif" font-size="14.00">1</text>
</g>
</g>
</svg>
