<?xml version="1.0" encoding="UTF-8" standalone="no"?>
<!DOCTYPE svg PUBLIC "-//W3C//DTD SVG 1.1//EN"
 "http://www.w3.org/Graphics/SVG/1.1/DTD/svg11.dtd">
<!-- Generated by graphviz version 2.43.0 (0)
 -->
<!-- Title: EntityAlucardSplash Pages: 1 -->
<svg width="1286pt" height="131pt"
 viewBox="0.00 0.00 1286.28 131.00" xmlns="http://www.w3.org/2000/svg" xmlns:xlink="http://www.w3.org/1999/xlink">
<g id="graph0" class="graph" transform="scale(1 1) rotate(0) translate(4 127)">
<title>EntityAlucardSplash</title>
<polygon fill="white" stroke="transparent" points="-4,4 -4,-127 1282.28,-127 1282.28,4 -4,4"/>
<!-- no3/EntityAlucardSplash -->
<g id="node1" class="node">
<title>no3/EntityAlucardSplash</title>
<ellipse fill="red" stroke="black" cx="727.09" cy="-105" rx="126.18" ry="18"/>
<text text-anchor="middle" x="727.09" y="-101.3" font-family="Times,serif" font-size="14.00">no3/EntityAlucardSplash</text>
</g>
<!-- no3/InitializeEntity -->
<g id="node2" class="node">
<title>no3/InitializeEntity</title>
<g id="a_node2"><a xlink:href="InitializeEntity.svg" xlink:title="no3/InitializeEntity">
<ellipse fill="green" stroke="black" cx="100.09" cy="-18" rx="100.18" ry="18"/>
<text text-anchor="middle" x="100.09" y="-14.3" font-family="Times,serif" font-size="14.00">no3/InitializeEntity</text>
</a>
</g>
</g>
<!-- no3/EntityAlucardSplash&#45;&gt;no3/InitializeEntity -->
<g id="edge1" class="edge">
<title>no3/EntityAlucardSplash&#45;&gt;no3/InitializeEntity</title>
<path fill="none" stroke="black" d="M635.3,-92.63C531.69,-79.64 358.13,-57.4 209.09,-36 200.41,-34.75 191.35,-33.41 182.33,-32.04"/>
<polygon fill="black" stroke="black" points="182.58,-28.54 172.17,-30.49 181.53,-35.46 182.58,-28.54"/>
<text text-anchor="middle" x="456.09" y="-57.8" font-family="Times,serif" font-size="14.00">1</text>
</g>
<!-- no3/g_api_AllocPrimitives -->
<g id="node3" class="node">
<title>no3/g_api_AllocPrimitives</title>
<g id="a_node3"><a xlink:href="g_api_AllocPrimitives.svg" xlink:title="no3/g_api_AllocPrimitives">
<ellipse fill="lightblue" stroke="black" cx="348.09" cy="-18" rx="129.98" ry="18"/>
<text text-anchor="middle" x="348.09" y="-14.3" font-family="Times,serif" font-size="14.00">no3/g_api_AllocPrimitives</text>
</a>
</g>
</g>
<!-- no3/EntityAlucardSplash&#45;&gt;no3/g_api_AllocPrimitives -->
<g id="edge2" class="edge">
<title>no3/EntityAlucardSplash&#45;&gt;no3/g_api_AllocPrimitives</title>
<path fill="none" stroke="black" d="M662.37,-89.48C596.07,-74.62 493.1,-51.52 423.24,-35.85"/>
<polygon fill="black" stroke="black" points="423.7,-32.37 413.18,-33.6 422.17,-39.2 423.7,-32.37"/>
<text text-anchor="middle" x="566.09" y="-57.8" font-family="Times,serif" font-size="14.00">1</text>
</g>
<!-- no3/g_api_func_80134714 -->
<g id="node4" class="node">
<title>no3/g_api_func_80134714</title>
<g id="a_node4"><a xlink:href="g_api_func_80134714.svg" xlink:title="no3/g_api_func_80134714">
<ellipse fill="lightblue" stroke="black" cx="627.09" cy="-18" rx="130.78" ry="18"/>
<text text-anchor="middle" x="627.09" y="-14.3" font-family="Times,serif" font-size="14.00">no3/g_api_func_80134714</text>
</a>
</g>
</g>
<!-- no3/EntityAlucardSplash&#45;&gt;no3/g_api_func_80134714 -->
<g id="edge3" class="edge">
<title>no3/EntityAlucardSplash&#45;&gt;no3/g_api_func_80134714</title>
<path fill="none" stroke="black" d="M707.33,-87.21C692.37,-74.48 671.61,-56.84 654.95,-42.68"/>
<polygon fill="black" stroke="black" points="657.04,-39.86 647.15,-36.05 652.5,-45.19 657.04,-39.86"/>
<text text-anchor="middle" x="688.09" y="-57.8" font-family="Times,serif" font-size="14.00">1</text>
</g>
<!-- no3/rand -->
<g id="node5" class="node">
<title>no3/rand</title>
<g id="a_node5"><a xlink:href="rand.svg" xlink:title="no3/rand">
<ellipse fill="lightblue" stroke="black" cx="828.09" cy="-18" rx="51.99" ry="18"/>
<text text-anchor="middle" x="828.09" y="-14.3" font-family="Times,serif" font-size="14.00">no3/rand</text>
</a>
</g>
</g>
<!-- no3/EntityAlucardSplash&#45;&gt;no3/rand -->
<g id="edge4" class="edge">
<title>no3/EntityAlucardSplash&#45;&gt;no3/rand</title>
<path fill="none" stroke="black" d="M747.05,-87.21C762.56,-74.15 784.23,-55.91 801.26,-41.58"/>
<polygon fill="black" stroke="black" points="803.81,-44.01 809.2,-34.9 799.3,-38.66 803.81,-44.01"/>
<text text-anchor="middle" x="789.09" y="-57.8" font-family="Times,serif" font-size="14.00">1</text>
</g>
<!-- no3/MoveEntity -->
<g id="node6" class="node">
<title>no3/MoveEntity</title>
<g id="a_node6"><a xlink:href="MoveEntity.svg" xlink:title="no3/MoveEntity">
<ellipse fill="green" stroke="black" cx="983.09" cy="-18" rx="85.29" ry="18"/>
<text text-anchor="middle" x="983.09" y="-14.3" font-family="Times,serif" font-size="14.00">no3/MoveEntity</text>
</a>
</g>
</g>
<!-- no3/EntityAlucardSplash&#45;&gt;no3/MoveEntity -->
<g id="edge5" class="edge">
<title>no3/EntityAlucardSplash&#45;&gt;no3/MoveEntity</title>
<path fill="none" stroke="black" d="M774.34,-88.31C818.22,-73.74 883.5,-52.07 929.34,-36.85"/>
<polygon fill="black" stroke="black" points="930.72,-40.08 939.11,-33.6 928.51,-33.43 930.72,-40.08"/>
<text text-anchor="middle" x="876.09" y="-57.8" font-family="Times,serif" font-size="14.00">1</text>
</g>
<!-- no3/DestroyEntity -->
<g id="node7" class="node">
<title>no3/DestroyEntity</title>
<g id="a_node7"><a xlink:href="DestroyEntity.svg" xlink:title="no3/DestroyEntity">
<ellipse fill="green" stroke="black" cx="1182.09" cy="-18" rx="96.38" ry="18"/>
<text text-anchor="middle" x="1182.09" y="-14.3" font-family="Times,serif" font-size="14.00">no3/DestroyEntity</text>
</a>
</g>
</g>
<!-- no3/EntityAlucardSplash&#45;&gt;no3/DestroyEntity -->
<g id="edge6" class="edge">
<title>no3/EntityAlucardSplash&#45;&gt;no3/DestroyEntity</title>
<path fill="none" stroke="black" d="M800.45,-90.3C884.59,-74.58 1021.84,-48.94 1106.79,-33.07"/>
<polygon fill="black" stroke="black" points="1107.44,-36.51 1116.63,-31.23 1106.16,-29.62 1107.44,-36.51"/>
<text text-anchor="middle" x="987.09" y="-57.8" font-family="Times,serif" font-size="14.00">1</text>
</g>
</g>
</svg>
