<?xml version="1.0" encoding="UTF-8" standalone="no"?>
<!DOCTYPE svg PUBLIC "-//W3C//DTD SVG 1.1//EN"
 "http://www.w3.org/Graphics/SVG/1.1/DTD/svg11.dtd">
<!-- Generated by graphviz version 2.43.0 (0)
 -->
<!-- Title: EntityDialogue Pages: 1 -->
<svg width="3115pt" height="131pt"
 viewBox="0.00 0.00 3114.68 131.00" xmlns="http://www.w3.org/2000/svg" xmlns:xlink="http://www.w3.org/1999/xlink">
<g id="graph0" class="graph" transform="scale(1 1) rotate(0) translate(4 127)">
<title>EntityDialogue</title>
<polygon fill="white" stroke="transparent" points="-4,4 -4,-127 3110.68,-127 3110.68,4 -4,4"/>
<!-- st0/EntityDialogue -->
<g id="node1" class="node">
<title>st0/EntityDialogue</title>
<ellipse fill="red" stroke="black" cx="1577.09" cy="-105" rx="98.28" ry="18"/>
<text text-anchor="middle" x="1577.09" y="-101.3" font-family="Times,serif" font-size="14.00">st0/EntityDialogue</text>
</g>
<!-- st0/g_api_FreePrimitives -->
<g id="node2" class="node">
<title>st0/g_api_FreePrimitives</title>
<g id="a_node2"><a xlink:href="g_api_FreePrimitives.svg" xlink:title="st0/g_api_FreePrimitives">
<ellipse fill="lightblue" stroke="black" cx="126.09" cy="-18" rx="126.18" ry="18"/>
<text text-anchor="middle" x="126.09" y="-14.3" font-family="Times,serif" font-size="14.00">st0/g_api_FreePrimitives</text>
</a>
</g>
</g>
<!-- st0/EntityDialogue&#45;&gt;st0/g_api_FreePrimitives -->
<g id="edge1" class="edge">
<title>st0/EntityDialogue&#45;&gt;st0/g_api_FreePrimitives</title>
<path fill="none" stroke="black" d="M1479.98,-102.07C1308.5,-98.3 940.89,-88.53 631.09,-69 466.32,-58.61 425.24,-53.65 261.09,-36 249.62,-34.77 237.62,-33.39 225.7,-31.96"/>
<polygon fill="black" stroke="black" points="226.07,-28.48 215.72,-30.75 225.22,-35.43 226.07,-28.48"/>
<text text-anchor="middle" x="636.09" y="-57.8" font-family="Times,serif" font-size="14.00">6</text>
</g>
<!-- st0/g_api_PlaySfx -->
<g id="node3" class="node">
<title>st0/g_api_PlaySfx</title>
<g id="a_node3"><a xlink:href="g_api_PlaySfx.svg" xlink:title="st0/g_api_PlaySfx">
<ellipse fill="lightblue" stroke="black" cx="362.09" cy="-18" rx="92.08" ry="18"/>
<text text-anchor="middle" x="362.09" y="-14.3" font-family="Times,serif" font-size="14.00">st0/g_api_PlaySfx</text>
</a>
</g>
</g>
<!-- st0/EntityDialogue&#45;&gt;st0/g_api_PlaySfx -->
<g id="edge2" class="edge">
<title>st0/EntityDialogue&#45;&gt;st0/g_api_PlaySfx</title>
<path fill="none" stroke="black" d="M1479.83,-102.38C1285.75,-98.19 836.92,-83.75 463.09,-36 454.79,-34.94 446.12,-33.69 437.51,-32.37"/>
<polygon fill="black" stroke="black" points="437.87,-28.88 427.44,-30.78 436.78,-35.8 437.87,-28.88"/>
<text text-anchor="middle" x="773.09" y="-57.8" font-family="Times,serif" font-size="14.00">2</text>
</g>
<!-- st0/func_801A8E60 -->
<g id="node4" class="node">
<title>st0/func_801A8E60</title>
<g id="a_node4"><a xlink:href="func_801A8E60.svg" xlink:title="st0/func_801A8E60">
<ellipse fill="green" stroke="black" cx="573.09" cy="-18" rx="100.98" ry="18"/>
<text text-anchor="middle" x="573.09" y="-14.3" font-family="Times,serif" font-size="14.00">st0/func_801A8E60</text>
</a>
</g>
</g>
<!-- st0/EntityDialogue&#45;&gt;st0/func_801A8E60 -->
<g id="edge3" class="edge">
<title>st0/EntityDialogue&#45;&gt;st0/func_801A8E60</title>
<path fill="none" stroke="black" d="M1483.18,-99.64C1320.02,-91.43 973.78,-71.28 683.09,-36 673.83,-34.88 664.16,-33.57 654.56,-32.2"/>
<polygon fill="black" stroke="black" points="654.99,-28.72 644.59,-30.74 653.98,-35.65 654.99,-28.72"/>
<text text-anchor="middle" x="1007.09" y="-57.8" font-family="Times,serif" font-size="14.00">1</text>
</g>
<!-- st0/func_801A89D8 -->
<g id="node5" class="node">
<title>st0/func_801A89D8</title>
<g id="a_node5"><a xlink:href="func_801A89D8.svg" xlink:title="st0/func_801A89D8">
<ellipse fill="green" stroke="black" cx="793.09" cy="-18" rx="101.28" ry="18"/>
<text text-anchor="middle" x="793.09" y="-14.3" font-family="Times,serif" font-size="14.00">st0/func_801A89D8</text>
</a>
</g>
</g>
<!-- st0/EntityDialogue&#45;&gt;st0/func_801A89D8 -->
<g id="edge4" class="edge">
<title>st0/EntityDialogue&#45;&gt;st0/func_801A89D8</title>
<path fill="none" stroke="black" d="M1490.08,-96.64C1361.66,-85.46 1113.93,-62.65 904.09,-36 894.83,-34.82 885.15,-33.49 875.54,-32.11"/>
<polygon fill="black" stroke="black" points="875.96,-28.63 865.56,-30.65 874.95,-35.56 875.96,-28.63"/>
<text text-anchor="middle" x="1186.09" y="-57.8" font-family="Times,serif" font-size="14.00">1</text>
</g>
<!-- st0/func_801A8BF8 -->
<g id="node6" class="node">
<title>st0/func_801A8BF8</title>
<g id="a_node6"><a xlink:href="func_801A8BF8.svg" xlink:title="st0/func_801A8BF8">
<ellipse fill="green" stroke="black" cx="1014.09" cy="-18" rx="101.28" ry="18"/>
<text text-anchor="middle" x="1014.09" y="-14.3" font-family="Times,serif" font-size="14.00">st0/func_801A8BF8</text>
</a>
</g>
</g>
<!-- st0/EntityDialogue&#45;&gt;st0/func_801A8BF8 -->
<g id="edge5" class="edge">
<title>st0/EntityDialogue&#45;&gt;st0/func_801A8BF8</title>
<path fill="none" stroke="black" d="M1503.32,-93.03C1413.65,-79.67 1257.74,-56.36 1124.09,-36 1115.55,-34.7 1106.65,-33.34 1097.76,-31.97"/>
<polygon fill="black" stroke="black" points="1098.16,-28.49 1087.75,-30.43 1097.1,-35.41 1098.16,-28.49"/>
<text text-anchor="middle" x="1340.09" y="-57.8" font-family="Times,serif" font-size="14.00">2</text>
</g>
<!-- st0/func_801A8984 -->
<g id="node7" class="node">
<title>st0/func_801A8984</title>
<g id="a_node7"><a xlink:href="func_801A8984.svg" xlink:title="st0/func_801A8984">
<ellipse fill="green" stroke="black" cx="1233.09" cy="-18" rx="100.18" ry="18"/>
<text text-anchor="middle" x="1233.09" y="-14.3" font-family="Times,serif" font-size="14.00">st0/func_801A8984</text>
</a>
</g>
</g>
<!-- st0/EntityDialogue&#45;&gt;st0/func_801A8984 -->
<g id="edge6" class="edge">
<title>st0/EntityDialogue&#45;&gt;st0/func_801A8984</title>
<path fill="none" stroke="black" d="M1521.05,-90.15C1460.42,-75.17 1363.81,-51.3 1299.43,-35.39"/>
<polygon fill="black" stroke="black" points="1299.93,-31.91 1289.39,-32.91 1298.25,-38.71 1299.93,-31.91"/>
<text text-anchor="middle" x="1431.09" y="-57.8" font-family="Times,serif" font-size="14.00">1</text>
</g>
<!-- st0/func_801A8CB0 -->
<g id="node8" class="node">
<title>st0/func_801A8CB0</title>
<g id="a_node8"><a xlink:href="func_801A8CB0.svg" xlink:title="st0/func_801A8CB0">
<ellipse fill="green" stroke="black" cx="1453.09" cy="-18" rx="102.08" ry="18"/>
<text text-anchor="middle" x="1453.09" y="-14.3" font-family="Times,serif" font-size="14.00">st0/func_801A8CB0</text>
</a>
</g>
</g>
<!-- st0/EntityDialogue&#45;&gt;st0/func_801A8CB0 -->
<g id="edge7" class="edge">
<title>st0/EntityDialogue&#45;&gt;st0/func_801A8CB0</title>
<path fill="none" stroke="black" d="M1552.89,-87.41C1533.68,-74.25 1506.66,-55.72 1485.57,-41.27"/>
<polygon fill="black" stroke="black" points="1487.46,-38.32 1477.23,-35.55 1483.5,-44.09 1487.46,-38.32"/>
<text text-anchor="middle" x="1528.09" y="-57.8" font-family="Times,serif" font-size="14.00">1</text>
</g>
<!-- st0/g_api_func_80131F68 -->
<g id="node9" class="node">
<title>st0/g_api_func_80131F68</title>
<g id="a_node9"><a xlink:href="g_api_func_80131F68.svg" xlink:title="st0/g_api_func_80131F68">
<ellipse fill="lightblue" stroke="black" cx="1702.09" cy="-18" rx="128.88" ry="18"/>
<text text-anchor="middle" x="1702.09" y="-14.3" font-family="Times,serif" font-size="14.00">st0/g_api_func_80131F68</text>
</a>
</g>
</g>
<!-- st0/EntityDialogue&#45;&gt;st0/g_api_func_80131F68 -->
<g id="edge8" class="edge">
<title>st0/EntityDialogue&#45;&gt;st0/g_api_func_80131F68</title>
<path fill="none" stroke="black" d="M1601.49,-87.41C1620.72,-74.33 1647.74,-55.96 1668.93,-41.55"/>
<polygon fill="black" stroke="black" points="1671.02,-44.36 1677.33,-35.84 1667.09,-38.57 1671.02,-44.36"/>
<text text-anchor="middle" x="1652.09" y="-57.8" font-family="Times,serif" font-size="14.00">2</text>
</g>
<!-- st0/func_801A8E34 -->
<g id="node10" class="node">
<title>st0/func_801A8E34</title>
<g id="a_node10"><a xlink:href="func_801A8E34.svg" xlink:title="st0/func_801A8E34">
<ellipse fill="green" stroke="black" cx="1949.09" cy="-18" rx="100.98" ry="18"/>
<text text-anchor="middle" x="1949.09" y="-14.3" font-family="Times,serif" font-size="14.00">st0/func_801A8E34</text>
</a>
</g>
</g>
<!-- st0/EntityDialogue&#45;&gt;st0/func_801A8E34 -->
<g id="edge9" class="edge">
<title>st0/EntityDialogue&#45;&gt;st0/func_801A8E34</title>
<path fill="none" stroke="black" d="M1636.03,-90.53C1702.13,-75.43 1809.23,-50.96 1879.42,-34.92"/>
<polygon fill="black" stroke="black" points="1880.53,-38.26 1889.5,-32.62 1878.97,-31.43 1880.53,-38.26"/>
<text text-anchor="middle" x="1791.09" y="-57.8" font-family="Times,serif" font-size="14.00">1</text>
</g>
<!-- st0/LoadTPage -->
<g id="node11" class="node">
<title>st0/LoadTPage</title>
<g id="a_node11"><a xlink:href="LoadTPage.svg" xlink:title="st0/LoadTPage">
<ellipse fill="lightblue" stroke="black" cx="2147.09" cy="-18" rx="79.09" ry="18"/>
<text text-anchor="middle" x="2147.09" y="-14.3" font-family="Times,serif" font-size="14.00">st0/LoadTPage</text>
</a>
</g>
</g>
<!-- st0/EntityDialogue&#45;&gt;st0/LoadTPage -->
<g id="edge10" class="edge">
<title>st0/EntityDialogue&#45;&gt;st0/LoadTPage</title>
<path fill="none" stroke="black" d="M1655.75,-94.15C1751.33,-81.89 1917.39,-59.67 2059.09,-36 2065.79,-34.88 2072.77,-33.65 2079.73,-32.37"/>
<polygon fill="black" stroke="black" points="2080.7,-35.75 2089.89,-30.49 2079.42,-28.87 2080.7,-35.75"/>
<text text-anchor="middle" x="1946.09" y="-57.8" font-family="Times,serif" font-size="14.00">1</text>
</g>
<!-- st0/MoveImage -->
<g id="node12" class="node">
<title>st0/MoveImage</title>
<g id="a_node12"><a xlink:href="MoveImage.svg" xlink:title="st0/MoveImage">
<ellipse fill="lightblue" stroke="black" cx="2327.09" cy="-18" rx="82.59" ry="18"/>
<text text-anchor="middle" x="2327.09" y="-14.3" font-family="Times,serif" font-size="14.00">st0/MoveImage</text>
</a>
</g>
</g>
<!-- st0/EntityDialogue&#45;&gt;st0/MoveImage -->
<g id="edge11" class="edge">
<title>st0/EntityDialogue&#45;&gt;st0/MoveImage</title>
<path fill="none" stroke="black" d="M1666.29,-97.46C1793.13,-87.55 2032.68,-66.6 2235.09,-36 2242.46,-34.89 2250.14,-33.63 2257.79,-32.31"/>
<polygon fill="black" stroke="black" points="2258.55,-35.73 2267.8,-30.55 2257.34,-28.83 2258.55,-35.73"/>
<text text-anchor="middle" x="2097.09" y="-57.8" font-family="Times,serif" font-size="14.00">1</text>
</g>
<!-- st0/func_801A910C -->
<g id="node13" class="node">
<title>st0/func_801A910C</title>
<g id="a_node13"><a xlink:href="func_801A910C.svg" xlink:title="st0/func_801A910C">
<ellipse fill="green" stroke="black" cx="2528.09" cy="-18" rx="100.98" ry="18"/>
<text text-anchor="middle" x="2528.09" y="-14.3" font-family="Times,serif" font-size="14.00">st0/func_801A910C</text>
</a>
</g>
</g>
<!-- st0/EntityDialogue&#45;&gt;st0/func_801A910C -->
<g id="edge12" class="edge">
<title>st0/EntityDialogue&#45;&gt;st0/func_801A910C</title>
<path fill="none" stroke="black" d="M1670.54,-99.47C1826.25,-91.24 2148.42,-71.35 2419.09,-36 2427.94,-34.84 2437.19,-33.54 2446.39,-32.19"/>
<polygon fill="black" stroke="black" points="2446.96,-35.65 2456.34,-30.71 2445.93,-28.72 2446.96,-35.65"/>
<text text-anchor="middle" x="2264.09" y="-57.8" font-family="Times,serif" font-size="14.00">1</text>
</g>
<!-- st0/g_api_AllocPrimitives -->
<g id="node14" class="node">
<title>st0/g_api_AllocPrimitives</title>
<g id="a_node14"><a xlink:href="g_api_AllocPrimitives.svg" xlink:title="st0/g_api_AllocPrimitives">
<ellipse fill="lightblue" stroke="black" cx="2774.09" cy="-18" rx="127.28" ry="18"/>
<text text-anchor="middle" x="2774.09" y="-14.3" font-family="Times,serif" font-size="14.00">st0/g_api_AllocPrimitives</text>
</a>
</g>
</g>
<!-- st0/EntityDialogue&#45;&gt;st0/g_api_AllocPrimitives -->
<g id="edge13" class="edge">
<title>st0/EntityDialogue&#45;&gt;st0/g_api_AllocPrimitives</title>
<path fill="none" stroke="black" d="M1672.29,-100.42C1806.4,-95.1 2058.57,-84.09 2273.09,-69 2435.57,-57.57 2476.14,-53.44 2638.09,-36 2649.64,-34.76 2661.73,-33.37 2673.74,-31.94"/>
<polygon fill="black" stroke="black" points="2674.28,-35.4 2683.79,-30.73 2673.45,-28.45 2674.28,-35.4"/>
<text text-anchor="middle" x="2467.09" y="-57.8" font-family="Times,serif" font-size="14.00">1</text>
</g>
<!-- st0/DestroyEntity -->
<g id="node15" class="node">
<title>st0/DestroyEntity</title>
<g id="a_node15"><a xlink:href="DestroyEntity.svg" xlink:title="st0/DestroyEntity">
<ellipse fill="red" stroke="black" cx="3013.09" cy="-18" rx="93.68" ry="18"/>
<text text-anchor="middle" x="3013.09" y="-14.3" font-family="Times,serif" font-size="14.00">st0/DestroyEntity</text>
</a>
</g>
</g>
<!-- st0/EntityDialogue&#45;&gt;st0/DestroyEntity -->
<g id="edge14" class="edge">
<title>st0/EntityDialogue&#45;&gt;st0/DestroyEntity</title>
<path fill="none" stroke="black" d="M1673.6,-101.41C1838.28,-96.74 2184.1,-85.78 2476.09,-69 2669.22,-57.9 2718.03,-59.11 2910.09,-36 2918.78,-34.95 2927.86,-33.7 2936.88,-32.35"/>
<polygon fill="black" stroke="black" points="2937.65,-35.77 2947,-30.79 2936.58,-28.85 2937.65,-35.77"/>
<text text-anchor="middle" x="2735.09" y="-57.8" font-family="Times,serif" font-size="14.00">1</text>
</g>
</g>
</svg>
