<?xml version="1.0" encoding="UTF-8" standalone="no"?>
<!DOCTYPE svg PUBLIC "-//W3C//DTD SVG 1.1//EN"
 "http://www.w3.org/Graphics/SVG/1.1/DTD/svg11.dtd">
<!-- Generated by graphviz version 2.43.0 (0)
 -->
<!-- Title: EntitySubWeaponContainer Pages: 1 -->
<svg width="2334pt" height="131pt"
 viewBox="0.00 0.00 2333.99 131.00" xmlns="http://www.w3.org/2000/svg" xmlns:xlink="http://www.w3.org/1999/xlink">
<g id="graph0" class="graph" transform="scale(1 1) rotate(0) translate(4 127)">
<title>EntitySubWeaponContainer</title>
<polygon fill="white" stroke="transparent" points="-4,4 -4,-127 2329.99,-127 2329.99,4 -4,4"/>
<!-- nz0/EntitySubWeaponContainer -->
<g id="node1" class="node">
<title>nz0/EntitySubWeaponContainer</title>
<ellipse fill="green" stroke="black" cx="1256.44" cy="-105" rx="159.47" ry="18"/>
<text text-anchor="middle" x="1256.44" y="-101.3" font-family="Times,serif" font-size="14.00">nz0/EntitySubWeaponContainer</text>
</g>
<!-- nz0/InitializeEntity -->
<g id="node2" class="node">
<title>nz0/InitializeEntity</title>
<g id="a_node2"><a xlink:href="InitializeEntity.svg" xlink:title="nz0/InitializeEntity">
<ellipse fill="green" stroke="black" cx="99.44" cy="-18" rx="99.38" ry="18"/>
<text text-anchor="middle" x="99.44" y="-14.3" font-family="Times,serif" font-size="14.00">nz0/InitializeEntity</text>
</a>
</g>
</g>
<!-- nz0/EntitySubWeaponContainer&#45;&gt;nz0/InitializeEntity -->
<g id="edge1" class="edge">
<title>nz0/EntitySubWeaponContainer&#45;&gt;nz0/InitializeEntity</title>
<path fill="none" stroke="black" d="M1107.1,-98.7C903.3,-90.46 526.88,-71.69 207.44,-36 198.2,-34.97 188.54,-33.71 178.96,-32.35"/>
<polygon fill="black" stroke="black" points="179.43,-28.88 169.03,-30.89 178.42,-35.8 179.43,-28.88"/>
<text text-anchor="middle" x="558.44" y="-57.8" font-family="Times,serif" font-size="14.00">1</text>
</g>
<!-- nz0/CreateEntityFromEntity -->
<g id="node3" class="node">
<title>nz0/CreateEntityFromEntity</title>
<g id="a_node3"><a xlink:href="CreateEntityFromEntity.svg" xlink:title="nz0/CreateEntityFromEntity">
<ellipse fill="green" stroke="black" cx="360.44" cy="-18" rx="143.77" ry="18"/>
<text text-anchor="middle" x="360.44" y="-14.3" font-family="Times,serif" font-size="14.00">nz0/CreateEntityFromEntity</text>
</a>
</g>
</g>
<!-- nz0/EntitySubWeaponContainer&#45;&gt;nz0/CreateEntityFromEntity -->
<g id="edge2" class="edge">
<title>nz0/EntitySubWeaponContainer&#45;&gt;nz0/CreateEntityFromEntity</title>
<path fill="none" stroke="black" d="M1133.77,-93.51C986.41,-80.73 731.72,-58.11 513.44,-36 500.41,-34.68 486.76,-33.24 473.21,-31.78"/>
<polygon fill="black" stroke="black" points="473.19,-28.26 462.88,-30.66 472.44,-35.22 473.19,-28.26"/>
<text text-anchor="middle" x="845.44" y="-57.8" font-family="Times,serif" font-size="14.00">4</text>
</g>
<!-- nz0/g_api_AllocPrimitives -->
<g id="node4" class="node">
<title>nz0/g_api_AllocPrimitives</title>
<g id="a_node4"><a xlink:href="g_api_AllocPrimitives.svg" xlink:title="nz0/g_api_AllocPrimitives">
<ellipse fill="lightblue" stroke="black" cx="651.44" cy="-18" rx="129.18" ry="18"/>
<text text-anchor="middle" x="651.44" y="-14.3" font-family="Times,serif" font-size="14.00">nz0/g_api_AllocPrimitives</text>
</a>
</g>
</g>
<!-- nz0/EntitySubWeaponContainer&#45;&gt;nz0/g_api_AllocPrimitives -->
<g id="edge3" class="edge">
<title>nz0/EntitySubWeaponContainer&#45;&gt;nz0/g_api_AllocPrimitives</title>
<path fill="none" stroke="black" d="M1160.91,-90.58C1048.43,-74.78 862.6,-48.67 749.17,-32.73"/>
<polygon fill="black" stroke="black" points="749.49,-29.24 739.1,-31.32 748.52,-36.17 749.49,-29.24"/>
<text text-anchor="middle" x="995.44" y="-57.8" font-family="Times,serif" font-size="14.00">1</text>
</g>
<!-- nz0/DestroyEntity -->
<g id="node5" class="node">
<title>nz0/DestroyEntity</title>
<g id="a_node5"><a xlink:href="DestroyEntity.svg" xlink:title="nz0/DestroyEntity">
<ellipse fill="red" stroke="black" cx="894.44" cy="-18" rx="95.58" ry="18"/>
<text text-anchor="middle" x="894.44" y="-14.3" font-family="Times,serif" font-size="14.00">nz0/DestroyEntity</text>
</a>
</g>
</g>
<!-- nz0/EntitySubWeaponContainer&#45;&gt;nz0/DestroyEntity -->
<g id="edge4" class="edge">
<title>nz0/EntitySubWeaponContainer&#45;&gt;nz0/DestroyEntity</title>
<path fill="none" stroke="black" d="M1190.47,-88.51C1125.48,-73.25 1026.73,-50.06 961.41,-34.72"/>
<polygon fill="black" stroke="black" points="962.16,-31.3 951.62,-32.43 960.56,-38.12 962.16,-31.3"/>
<text text-anchor="middle" x="1102.44" y="-57.8" font-family="Times,serif" font-size="14.00">1</text>
</g>
<!-- nz0/AllocEntity -->
<g id="node6" class="node">
<title>nz0/AllocEntity</title>
<g id="a_node6"><a xlink:href="AllocEntity.svg" xlink:title="nz0/AllocEntity">
<ellipse fill="green" stroke="black" cx="1089.44" cy="-18" rx="81.49" ry="18"/>
<text text-anchor="middle" x="1089.44" y="-14.3" font-family="Times,serif" font-size="14.00">nz0/AllocEntity</text>
</a>
</g>
</g>
<!-- nz0/EntitySubWeaponContainer&#45;&gt;nz0/AllocEntity -->
<g id="edge5" class="edge">
<title>nz0/EntitySubWeaponContainer&#45;&gt;nz0/AllocEntity</title>
<path fill="none" stroke="black" d="M1223.45,-87.21C1196.43,-73.45 1158.11,-53.95 1129.36,-39.32"/>
<polygon fill="black" stroke="black" points="1130.89,-36.17 1120.39,-34.75 1127.72,-42.41 1130.89,-36.17"/>
<text text-anchor="middle" x="1188.44" y="-57.8" font-family="Times,serif" font-size="14.00">3</text>
</g>
<!-- nz0/Random -->
<g id="node7" class="node">
<title>nz0/Random</title>
<g id="a_node7"><a xlink:href="Random.svg" xlink:title="nz0/Random">
<ellipse fill="green" stroke="black" cx="1256.44" cy="-18" rx="68.49" ry="18"/>
<text text-anchor="middle" x="1256.44" y="-14.3" font-family="Times,serif" font-size="14.00">nz0/Random</text>
</a>
</g>
</g>
<!-- nz0/EntitySubWeaponContainer&#45;&gt;nz0/Random -->
<g id="edge6" class="edge">
<title>nz0/EntitySubWeaponContainer&#45;&gt;nz0/Random</title>
<path fill="none" stroke="black" d="M1256.44,-86.8C1256.44,-75.16 1256.44,-59.55 1256.44,-46.24"/>
<polygon fill="black" stroke="black" points="1259.94,-46.18 1256.44,-36.18 1252.94,-46.18 1259.94,-46.18"/>
<text text-anchor="middle" x="1261.44" y="-57.8" font-family="Times,serif" font-size="14.00">4</text>
</g>
<!-- nz0/g_api_FreePrimitives -->
<g id="node8" class="node">
<title>nz0/g_api_FreePrimitives</title>
<g id="a_node8"><a xlink:href="g_api_FreePrimitives.svg" xlink:title="nz0/g_api_FreePrimitives">
<ellipse fill="lightblue" stroke="black" cx="1470.44" cy="-18" rx="128.08" ry="18"/>
<text text-anchor="middle" x="1470.44" y="-14.3" font-family="Times,serif" font-size="14.00">nz0/g_api_FreePrimitives</text>
</a>
</g>
</g>
<!-- nz0/EntitySubWeaponContainer&#45;&gt;nz0/g_api_FreePrimitives -->
<g id="edge7" class="edge">
<title>nz0/EntitySubWeaponContainer&#45;&gt;nz0/g_api_FreePrimitives</title>
<path fill="none" stroke="black" d="M1297.7,-87.61C1332.6,-73.75 1382.73,-53.84 1420,-39.03"/>
<polygon fill="black" stroke="black" points="1421.67,-42.14 1429.67,-35.19 1419.08,-35.63 1421.67,-42.14"/>
<text text-anchor="middle" x="1381.44" y="-57.8" font-family="Times,serif" font-size="14.00">1</text>
</g>
<!-- nz0/g_api_PlaySfx -->
<g id="node9" class="node">
<title>nz0/g_api_PlaySfx</title>
<g id="a_node9"><a xlink:href="g_api_PlaySfx.svg" xlink:title="nz0/g_api_PlaySfx">
<ellipse fill="lightblue" stroke="black" cx="1710.44" cy="-18" rx="94.48" ry="18"/>
<text text-anchor="middle" x="1710.44" y="-14.3" font-family="Times,serif" font-size="14.00">nz0/g_api_PlaySfx</text>
</a>
</g>
</g>
<!-- nz0/EntitySubWeaponContainer&#45;&gt;nz0/g_api_PlaySfx -->
<g id="edge8" class="edge">
<title>nz0/EntitySubWeaponContainer&#45;&gt;nz0/g_api_PlaySfx</title>
<path fill="none" stroke="black" d="M1335,-89.29C1419.51,-73.47 1552.88,-48.5 1635.82,-32.97"/>
<polygon fill="black" stroke="black" points="1636.5,-36.4 1645.68,-31.12 1635.21,-29.52 1636.5,-36.4"/>
<text text-anchor="middle" x="1516.44" y="-57.8" font-family="Times,serif" font-size="14.00">1</text>
</g>
<!-- nz0/ratan2 -->
<g id="node10" class="node">
<title>nz0/ratan2</title>
<g id="a_node10"><a xlink:href="ratan2.svg" xlink:title="nz0/ratan2">
<ellipse fill="lightblue" stroke="black" cx="1883.44" cy="-18" rx="61.19" ry="18"/>
<text text-anchor="middle" x="1883.44" y="-14.3" font-family="Times,serif" font-size="14.00">nz0/ratan2</text>
</a>
</g>
</g>
<!-- nz0/EntitySubWeaponContainer&#45;&gt;nz0/ratan2 -->
<g id="edge9" class="edge">
<title>nz0/EntitySubWeaponContainer&#45;&gt;nz0/ratan2</title>
<path fill="none" stroke="black" d="M1377.66,-93.32C1490.91,-82.37 1664.4,-63.1 1813.44,-36 1818.54,-35.07 1823.82,-34 1829.09,-32.85"/>
<polygon fill="black" stroke="black" points="1830.19,-36.2 1839.17,-30.58 1828.65,-29.37 1830.19,-36.2"/>
<text text-anchor="middle" x="1697.44" y="-57.8" font-family="Times,serif" font-size="14.00">1</text>
</g>
<!-- nz0/func_801C29B0 -->
<g id="node11" class="node">
<title>nz0/func_801C29B0</title>
<g id="a_node11"><a xlink:href="func_801C29B0.svg" xlink:title="nz0/func_801C29B0">
<ellipse fill="green" stroke="black" cx="2065.44" cy="-18" rx="103.18" ry="18"/>
<text text-anchor="middle" x="2065.44" y="-14.3" font-family="Times,serif" font-size="14.00">nz0/func_801C29B0</text>
</a>
</g>
</g>
<!-- nz0/EntitySubWeaponContainer&#45;&gt;nz0/func_801C29B0 -->
<g id="edge10" class="edge">
<title>nz0/EntitySubWeaponContainer&#45;&gt;nz0/func_801C29B0</title>
<path fill="none" stroke="black" d="M1391.5,-95.45C1480.97,-89.3 1600.85,-80.15 1706.44,-69 1816.58,-57.37 1843.8,-51.64 1953.44,-36 1962.31,-34.74 1971.56,-33.38 1980.79,-32.01"/>
<polygon fill="black" stroke="black" points="1981.39,-35.46 1990.76,-30.52 1980.36,-28.54 1981.39,-35.46"/>
<text text-anchor="middle" x="1835.44" y="-57.8" font-family="Times,serif" font-size="14.00">1</text>
</g>
<!-- nz0/FntPrint -->
<g id="node12" class="node">
<title>nz0/FntPrint</title>
<g id="a_node12"><a xlink:href="FntPrint.svg" xlink:title="nz0/FntPrint">
<ellipse fill="lightblue" stroke="black" cx="2256.44" cy="-18" rx="69.59" ry="18"/>
<text text-anchor="middle" x="2256.44" y="-14.3" font-family="Times,serif" font-size="14.00">nz0/FntPrint</text>
</a>
</g>
</g>
<!-- nz0/EntitySubWeaponContainer&#45;&gt;nz0/FntPrint -->
<g id="edge11" class="edge">
<title>nz0/EntitySubWeaponContainer&#45;&gt;nz0/FntPrint</title>
<path fill="none" stroke="black" d="M1410.5,-100.3C1594.11,-94.13 1909.75,-77.93 2177.44,-36 2183.63,-35.03 2190.06,-33.88 2196.46,-32.65"/>
<polygon fill="black" stroke="black" points="2197.33,-36.04 2206.45,-30.65 2195.96,-29.18 2197.33,-36.04"/>
<text text-anchor="middle" x="2033.44" y="-57.8" font-family="Times,serif" font-size="14.00">1</text>
</g>
</g>
</svg>
