<?xml version="1.0" encoding="UTF-8" standalone="no"?>
<!DOCTYPE svg PUBLIC "-//W3C//DTD SVG 1.1//EN"
 "http://www.w3.org/Graphics/SVG/1.1/DTD/svg11.dtd">
<!-- Generated by graphviz version 2.43.0 (0)
 -->
<!-- Title: EntityCutscenePhotograph Pages: 1 -->
<svg width="3276pt" height="131pt"
 viewBox="0.00 0.00 3276.23 131.00" xmlns="http://www.w3.org/2000/svg" xmlns:xlink="http://www.w3.org/1999/xlink">
<g id="graph0" class="graph" transform="scale(1 1) rotate(0) translate(4 127)">
<title>EntityCutscenePhotograph</title>
<polygon fill="white" stroke="transparent" points="-4,4 -4,-127 3272.23,-127 3272.23,4 -4,4"/>
<!-- st0/EntityCutscenePhotograph -->
<g id="node1" class="node">
<title>st0/EntityCutscenePhotograph</title>
<ellipse fill="red" stroke="black" cx="1689.49" cy="-105" rx="154.07" ry="18"/>
<text text-anchor="middle" x="1689.49" y="-101.3" font-family="Times,serif" font-size="14.00">st0/EntityCutscenePhotograph</text>
</g>
<!-- st0/InitializeEntity -->
<g id="node2" class="node">
<title>st0/InitializeEntity</title>
<g id="a_node2"><a xlink:href="InitializeEntity.svg" xlink:title="st0/InitializeEntity">
<ellipse fill="green" stroke="black" cx="97.49" cy="-18" rx="97.48" ry="18"/>
<text text-anchor="middle" x="97.49" y="-14.3" font-family="Times,serif" font-size="14.00">st0/InitializeEntity</text>
</a>
</g>
</g>
<!-- st0/EntityCutscenePhotograph&#45;&gt;st0/InitializeEntity -->
<g id="edge1" class="edge">
<title>st0/EntityCutscenePhotograph&#45;&gt;st0/InitializeEntity</title>
<path fill="none" stroke="black" d="M1540.66,-100.25C1346.07,-95.02 994.64,-84.38 694.49,-69 476.51,-57.83 421.39,-60.48 204.49,-36 195.27,-34.96 185.62,-33.69 176.06,-32.31"/>
<polygon fill="black" stroke="black" points="176.55,-28.85 166.15,-30.85 175.53,-35.77 176.55,-28.85"/>
<text text-anchor="middle" x="699.49" y="-57.8" font-family="Times,serif" font-size="14.00">1</text>
</g>
<!-- st0/g_api_AllocPrimitives -->
<g id="node3" class="node">
<title>st0/g_api_AllocPrimitives</title>
<g id="a_node3"><a xlink:href="g_api_AllocPrimitives.svg" xlink:title="st0/g_api_AllocPrimitives">
<ellipse fill="lightblue" stroke="black" cx="340.49" cy="-18" rx="127.28" ry="18"/>
<text text-anchor="middle" x="340.49" y="-14.3" font-family="Times,serif" font-size="14.00">st0/g_api_AllocPrimitives</text>
</a>
</g>
</g>
<!-- st0/EntityCutscenePhotograph&#45;&gt;st0/g_api_AllocPrimitives -->
<g id="edge2" class="edge">
<title>st0/EntityCutscenePhotograph&#45;&gt;st0/g_api_AllocPrimitives</title>
<path fill="none" stroke="black" d="M1541.66,-99.88C1312.89,-92.58 859.51,-74.34 476.49,-36 464.75,-34.82 452.44,-33.47 440.25,-32.04"/>
<polygon fill="black" stroke="black" points="440.38,-28.53 430.04,-30.83 439.55,-35.48 440.38,-28.53"/>
<text text-anchor="middle" x="881.49" y="-57.8" font-family="Times,serif" font-size="14.00">1</text>
</g>
<!-- st0/g_api_func_800EDB08 -->
<g id="node4" class="node">
<title>st0/g_api_func_800EDB08</title>
<g id="a_node4"><a xlink:href="g_api_func_800EDB08.svg" xlink:title="st0/g_api_func_800EDB08">
<ellipse fill="lightblue" stroke="black" cx="617.49" cy="-18" rx="131.88" ry="18"/>
<text text-anchor="middle" x="617.49" y="-14.3" font-family="Times,serif" font-size="14.00">st0/g_api_func_800EDB08</text>
</a>
</g>
</g>
<!-- st0/EntityCutscenePhotograph&#45;&gt;st0/g_api_func_800EDB08 -->
<g id="edge3" class="edge">
<title>st0/EntityCutscenePhotograph&#45;&gt;st0/g_api_func_800EDB08</title>
<path fill="none" stroke="black" d="M1550.28,-97.24C1430.45,-91.06 1252.97,-81.07 1098.49,-69 947.13,-57.18 909.42,-52.42 758.49,-36 746.5,-34.7 733.94,-33.27 721.47,-31.81"/>
<polygon fill="black" stroke="black" points="721.84,-28.33 711.5,-30.64 721.03,-35.29 721.84,-28.33"/>
<text text-anchor="middle" x="1103.49" y="-57.8" font-family="Times,serif" font-size="14.00">4</text>
</g>
<!-- st0/SetDrawEnv -->
<g id="node5" class="node">
<title>st0/SetDrawEnv</title>
<g id="a_node5"><a xlink:href="SetDrawEnv.svg" xlink:title="st0/SetDrawEnv">
<ellipse fill="lightblue" stroke="black" cx="854.49" cy="-18" rx="87.18" ry="18"/>
<text text-anchor="middle" x="854.49" y="-14.3" font-family="Times,serif" font-size="14.00">st0/SetDrawEnv</text>
</a>
</g>
</g>
<!-- st0/EntityCutscenePhotograph&#45;&gt;st0/SetDrawEnv -->
<g id="edge4" class="edge">
<title>st0/EntityCutscenePhotograph&#45;&gt;st0/SetDrawEnv</title>
<path fill="none" stroke="black" d="M1557.91,-95.61C1409.79,-85.31 1162.16,-65.48 950.49,-36 942.77,-34.92 934.72,-33.69 926.71,-32.38"/>
<polygon fill="black" stroke="black" points="927.05,-28.89 916.61,-30.69 925.9,-35.79 927.05,-28.89"/>
<text text-anchor="middle" x="1239.49" y="-57.8" font-family="Times,serif" font-size="14.00">3</text>
</g>
<!-- st0/DestroyEntity -->
<g id="node6" class="node">
<title>st0/DestroyEntity</title>
<g id="a_node6"><a xlink:href="DestroyEntity.svg" xlink:title="st0/DestroyEntity">
<ellipse fill="green" stroke="black" cx="1053.49" cy="-18" rx="93.68" ry="18"/>
<text text-anchor="middle" x="1053.49" y="-14.3" font-family="Times,serif" font-size="14.00">st0/DestroyEntity</text>
</a>
</g>
</g>
<!-- st0/EntityCutscenePhotograph&#45;&gt;st0/DestroyEntity -->
<g id="edge5" class="edge">
<title>st0/EntityCutscenePhotograph&#45;&gt;st0/DestroyEntity</title>
<path fill="none" stroke="black" d="M1584.66,-91.78C1477.06,-78.96 1304.87,-57.7 1156.49,-36 1148.24,-34.79 1139.63,-33.47 1131.06,-32.11"/>
<polygon fill="black" stroke="black" points="1131.46,-28.63 1121.03,-30.51 1130.35,-35.55 1131.46,-28.63"/>
<text text-anchor="middle" x="1395.49" y="-57.8" font-family="Times,serif" font-size="14.00">1</text>
</g>
<!-- st0/g_api_PlaySfx -->
<g id="node7" class="node">
<title>st0/g_api_PlaySfx</title>
<g id="a_node7"><a xlink:href="g_api_PlaySfx.svg" xlink:title="st0/g_api_PlaySfx">
<ellipse fill="lightblue" stroke="black" cx="1257.49" cy="-18" rx="92.08" ry="18"/>
<text text-anchor="middle" x="1257.49" y="-14.3" font-family="Times,serif" font-size="14.00">st0/g_api_PlaySfx</text>
</a>
</g>
</g>
<!-- st0/EntityCutscenePhotograph&#45;&gt;st0/g_api_PlaySfx -->
<g id="edge6" class="edge">
<title>st0/EntityCutscenePhotograph&#45;&gt;st0/g_api_PlaySfx</title>
<path fill="none" stroke="black" d="M1614.24,-89.19C1534.26,-73.46 1408.68,-48.75 1329.83,-33.23"/>
<polygon fill="black" stroke="black" points="1330.46,-29.79 1319.98,-31.29 1329.11,-36.66 1330.46,-29.79"/>
<text text-anchor="middle" x="1504.49" y="-57.8" font-family="Times,serif" font-size="14.00">2</text>
</g>
<!-- st0/SetGeomScreen -->
<g id="node8" class="node">
<title>st0/SetGeomScreen</title>
<g id="a_node8"><a xlink:href="SetGeomScreen.svg" xlink:title="st0/SetGeomScreen">
<ellipse fill="lightblue" stroke="black" cx="1470.49" cy="-18" rx="102.88" ry="18"/>
<text text-anchor="middle" x="1470.49" y="-14.3" font-family="Times,serif" font-size="14.00">st0/SetGeomScreen</text>
</a>
</g>
</g>
<!-- st0/EntityCutscenePhotograph&#45;&gt;st0/SetGeomScreen -->
<g id="edge7" class="edge">
<title>st0/EntityCutscenePhotograph&#45;&gt;st0/SetGeomScreen</title>
<path fill="none" stroke="black" d="M1647.27,-87.61C1610.94,-73.51 1558.49,-53.16 1520.16,-38.28"/>
<polygon fill="black" stroke="black" points="1521.33,-34.98 1510.74,-34.62 1518.8,-41.5 1521.33,-34.98"/>
<text text-anchor="middle" x="1598.49" y="-57.8" font-family="Times,serif" font-size="14.00">1</text>
</g>
<!-- st0/SetGeomOffset -->
<g id="node9" class="node">
<title>st0/SetGeomOffset</title>
<g id="a_node9"><a xlink:href="SetGeomOffset.svg" xlink:title="st0/SetGeomOffset">
<ellipse fill="lightblue" stroke="black" cx="1689.49" cy="-18" rx="98.58" ry="18"/>
<text text-anchor="middle" x="1689.49" y="-14.3" font-family="Times,serif" font-size="14.00">st0/SetGeomOffset</text>
</a>
</g>
</g>
<!-- st0/EntityCutscenePhotograph&#45;&gt;st0/SetGeomOffset -->
<g id="edge8" class="edge">
<title>st0/EntityCutscenePhotograph&#45;&gt;st0/SetGeomOffset</title>
<path fill="none" stroke="black" d="M1689.49,-86.8C1689.49,-75.16 1689.49,-59.55 1689.49,-46.24"/>
<polygon fill="black" stroke="black" points="1692.99,-46.18 1689.49,-36.18 1685.99,-46.18 1692.99,-46.18"/>
<text text-anchor="middle" x="1694.49" y="-57.8" font-family="Times,serif" font-size="14.00">1</text>
</g>
<!-- st0/RotMatrix -->
<g id="node10" class="node">
<title>st0/RotMatrix</title>
<g id="a_node10"><a xlink:href="RotMatrix.svg" xlink:title="st0/RotMatrix">
<ellipse fill="lightblue" stroke="black" cx="1881.49" cy="-18" rx="75.29" ry="18"/>
<text text-anchor="middle" x="1881.49" y="-14.3" font-family="Times,serif" font-size="14.00">st0/RotMatrix</text>
</a>
</g>
</g>
<!-- st0/EntityCutscenePhotograph&#45;&gt;st0/RotMatrix -->
<g id="edge9" class="edge">
<title>st0/EntityCutscenePhotograph&#45;&gt;st0/RotMatrix</title>
<path fill="none" stroke="black" d="M1726.97,-87.41C1758.75,-73.34 1804.38,-53.14 1837.81,-38.34"/>
<polygon fill="black" stroke="black" points="1839.6,-41.37 1847.33,-34.12 1836.77,-34.97 1839.6,-41.37"/>
<text text-anchor="middle" x="1802.49" y="-57.8" font-family="Times,serif" font-size="14.00">1</text>
</g>
<!-- st0/SetRotMatrix -->
<g id="node11" class="node">
<title>st0/SetRotMatrix</title>
<g id="a_node11"><a xlink:href="SetRotMatrix.svg" xlink:title="st0/SetRotMatrix">
<ellipse fill="lightblue" stroke="black" cx="2065.49" cy="-18" rx="90.98" ry="18"/>
<text text-anchor="middle" x="2065.49" y="-14.3" font-family="Times,serif" font-size="14.00">st0/SetRotMatrix</text>
</a>
</g>
</g>
<!-- st0/EntityCutscenePhotograph&#45;&gt;st0/SetRotMatrix -->
<g id="edge10" class="edge">
<title>st0/EntityCutscenePhotograph&#45;&gt;st0/SetRotMatrix</title>
<path fill="none" stroke="black" d="M1756.71,-88.8C1824.96,-73.37 1930.04,-49.62 1998.29,-34.19"/>
<polygon fill="black" stroke="black" points="1999.1,-37.6 2008.08,-31.98 1997.56,-30.77 1999.1,-37.6"/>
<text text-anchor="middle" x="1905.49" y="-57.8" font-family="Times,serif" font-size="14.00">1</text>
</g>
<!-- st0/TransMatrix -->
<g id="node12" class="node">
<title>st0/TransMatrix</title>
<g id="a_node12"><a xlink:href="TransMatrix.svg" xlink:title="st0/TransMatrix">
<ellipse fill="lightblue" stroke="black" cx="2260.49" cy="-18" rx="85.59" ry="18"/>
<text text-anchor="middle" x="2260.49" y="-14.3" font-family="Times,serif" font-size="14.00">st0/TransMatrix</text>
</a>
</g>
</g>
<!-- st0/EntityCutscenePhotograph&#45;&gt;st0/TransMatrix -->
<g id="edge11" class="edge">
<title>st0/EntityCutscenePhotograph&#45;&gt;st0/TransMatrix</title>
<path fill="none" stroke="black" d="M1787.19,-91.07C1883.52,-78.07 2034.86,-57.01 2165.49,-36 2172.85,-34.82 2180.53,-33.53 2188.18,-32.21"/>
<polygon fill="black" stroke="black" points="2188.95,-35.63 2198.2,-30.47 2187.75,-28.74 2188.95,-35.63"/>
<text text-anchor="middle" x="2053.49" y="-57.8" font-family="Times,serif" font-size="14.00">1</text>
</g>
<!-- st0/SetTransMatrix -->
<g id="node13" class="node">
<title>st0/SetTransMatrix</title>
<g id="a_node13"><a xlink:href="SetTransMatrix.svg" xlink:title="st0/SetTransMatrix">
<ellipse fill="lightblue" stroke="black" cx="2465.49" cy="-18" rx="101.28" ry="18"/>
<text text-anchor="middle" x="2465.49" y="-14.3" font-family="Times,serif" font-size="14.00">st0/SetTransMatrix</text>
</a>
</g>
</g>
<!-- st0/EntityCutscenePhotograph&#45;&gt;st0/SetTransMatrix -->
<g id="edge12" class="edge">
<title>st0/EntityCutscenePhotograph&#45;&gt;st0/SetTransMatrix</title>
<path fill="none" stroke="black" d="M1810.98,-93.87C1944.69,-82.2 2165.84,-61.32 2355.49,-36 2364.42,-34.81 2373.75,-33.49 2383.03,-32.12"/>
<polygon fill="black" stroke="black" points="2383.69,-35.56 2393.07,-30.63 2382.66,-28.64 2383.69,-35.56"/>
<text text-anchor="middle" x="2215.49" y="-57.8" font-family="Times,serif" font-size="14.00">1</text>
</g>
<!-- st0/SetStep -->
<g id="node14" class="node">
<title>st0/SetStep</title>
<g id="a_node14"><a xlink:href="SetStep.svg" xlink:title="st0/SetStep">
<ellipse fill="green" stroke="black" cx="2650.49" cy="-18" rx="65.79" ry="18"/>
<text text-anchor="middle" x="2650.49" y="-14.3" font-family="Times,serif" font-size="14.00">st0/SetStep</text>
</a>
</g>
</g>
<!-- st0/EntityCutscenePhotograph&#45;&gt;st0/SetStep -->
<g id="edge13" class="edge">
<title>st0/EntityCutscenePhotograph&#45;&gt;st0/SetStep</title>
<path fill="none" stroke="black" d="M1837.72,-100.02C2014.38,-93.57 2318.03,-77.11 2575.49,-36 2581.32,-35.07 2587.37,-33.95 2593.39,-32.74"/>
<polygon fill="black" stroke="black" points="2594.39,-36.11 2603.46,-30.64 2592.96,-29.26 2594.39,-36.11"/>
<text text-anchor="middle" x="2437.49" y="-57.8" font-family="Times,serif" font-size="14.00">1</text>
</g>
<!-- st0/AllocEntity -->
<g id="node15" class="node">
<title>st0/AllocEntity</title>
<g id="a_node15"><a xlink:href="AllocEntity.svg" xlink:title="st0/AllocEntity">
<ellipse fill="green" stroke="black" cx="2813.49" cy="-18" rx="79.09" ry="18"/>
<text text-anchor="middle" x="2813.49" y="-14.3" font-family="Times,serif" font-size="14.00">st0/AllocEntity</text>
</a>
</g>
</g>
<!-- st0/EntityCutscenePhotograph&#45;&gt;st0/AllocEntity -->
<g id="edge14" class="edge">
<title>st0/EntityCutscenePhotograph&#45;&gt;st0/AllocEntity</title>
<path fill="none" stroke="black" d="M1838.36,-100.26C1991.16,-95.69 2235.71,-86.32 2446.49,-69 2570.94,-58.78 2602.11,-55.19 2725.49,-36 2732.31,-34.94 2739.41,-33.74 2746.48,-32.47"/>
<polygon fill="black" stroke="black" points="2747.59,-35.83 2756.79,-30.58 2746.33,-28.94 2747.59,-35.83"/>
<text text-anchor="middle" x="2605.49" y="-57.8" font-family="Times,serif" font-size="14.00">2</text>
</g>
<!-- st0/CreateEntityFromCurrentEntity -->
<g id="node16" class="node">
<title>st0/CreateEntityFromCurrentEntity</title>
<g id="a_node16"><a xlink:href="CreateEntityFromCurrentEntity.svg" xlink:title="st0/CreateEntityFromCurrentEntity">
<ellipse fill="green" stroke="black" cx="3089.49" cy="-18" rx="178.97" ry="18"/>
<text text-anchor="middle" x="3089.49" y="-14.3" font-family="Times,serif" font-size="14.00">st0/CreateEntityFromCurrentEntity</text>
</a>
</g>
</g>
<!-- st0/EntityCutscenePhotograph&#45;&gt;st0/CreateEntityFromCurrentEntity -->
<g id="edge15" class="edge">
<title>st0/EntityCutscenePhotograph&#45;&gt;st0/CreateEntityFromCurrentEntity</title>
<path fill="none" stroke="black" d="M1840.67,-101.39C2023.97,-97.51 2342.19,-88.46 2614.49,-69 2736.51,-60.28 2875.65,-45 2971.64,-33.63"/>
<polygon fill="black" stroke="black" points="2972.15,-37.09 2981.67,-32.43 2971.33,-30.14 2972.15,-37.09"/>
<text text-anchor="middle" x="2790.49" y="-57.8" font-family="Times,serif" font-size="14.00">2</text>
</g>
</g>
</svg>
