<?xml version="1.0" encoding="UTF-8" standalone="no"?>
<!DOCTYPE svg PUBLIC "-//W3C//DTD SVG 1.1//EN"
 "http://www.w3.org/Graphics/SVG/1.1/DTD/svg11.dtd">
<!-- Generated by graphviz version 2.43.0 (0)
 -->
<!-- Title: EntityMerman2 Pages: 1 -->
<svg width="4778pt" height="131pt"
 viewBox="0.00 0.00 4778.09 131.00" xmlns="http://www.w3.org/2000/svg" xmlns:xlink="http://www.w3.org/1999/xlink">
<g id="graph0" class="graph" transform="scale(1 1) rotate(0) translate(4 127)">
<title>EntityMerman2</title>
<polygon fill="white" stroke="transparent" points="-4,4 -4,-127 4774.09,-127 4774.09,4 -4,4"/>
<!-- np3/EntityMerman2 -->
<g id="node1" class="node">
<title>np3/EntityMerman2</title>
<ellipse fill="green" stroke="black" cx="2365.24" cy="-105" rx="104.78" ry="18"/>
<text text-anchor="middle" x="2365.24" y="-101.3" font-family="Times,serif" font-size="14.00">np3/EntityMerman2</text>
</g>
<!-- np3/SetStep -->
<g id="node2" class="node">
<title>np3/SetStep</title>
<g id="a_node2"><a xlink:href="SetStep.svg" xlink:title="np3/SetStep">
<ellipse fill="green" stroke="black" cx="68.24" cy="-18" rx="68.49" ry="18"/>
<text text-anchor="middle" x="68.24" y="-14.3" font-family="Times,serif" font-size="14.00">np3/SetStep</text>
</a>
</g>
</g>
<!-- np3/EntityMerman2&#45;&gt;np3/SetStep -->
<g id="edge1" class="edge">
<title>np3/EntityMerman2&#45;&gt;np3/SetStep</title>
<path fill="none" stroke="black" d="M2260.63,-104.37C1980.98,-104.84 1192.88,-102.79 538.24,-69 363.64,-59.99 319.14,-62 146.24,-36 140.04,-35.07 133.59,-33.93 127.17,-32.7"/>
<polygon fill="black" stroke="black" points="127.65,-29.22 117.16,-30.68 126.28,-36.09 127.65,-29.22"/>
<text text-anchor="middle" x="543.24" y="-57.8" font-family="Times,serif" font-size="14.00">7</text>
</g>
<!-- np3/func_801C2598 -->
<g id="node3" class="node">
<title>np3/func_801C2598</title>
<g id="a_node3"><a xlink:href="func_801C2598.svg" xlink:title="np3/func_801C2598">
<ellipse fill="green" stroke="black" cx="258.24" cy="-18" rx="103.18" ry="18"/>
<text text-anchor="middle" x="258.24" y="-14.3" font-family="Times,serif" font-size="14.00">np3/func_801C2598</text>
</a>
</g>
</g>
<!-- np3/EntityMerman2&#45;&gt;np3/func_801C2598 -->
<g id="edge2" class="edge">
<title>np3/EntityMerman2&#45;&gt;np3/func_801C2598</title>
<path fill="none" stroke="black" d="M2260.65,-103.58C2009.54,-102.16 1352.82,-95.94 805.24,-69 612.03,-59.49 563.46,-57.74 371.24,-36 361.56,-34.9 351.43,-33.6 341.39,-32.22"/>
<polygon fill="black" stroke="black" points="341.78,-28.74 331.39,-30.81 340.8,-35.67 341.78,-28.74"/>
<text text-anchor="middle" x="810.24" y="-57.8" font-family="Times,serif" font-size="14.00">3</text>
</g>
<!-- np3/g_api_FreePrimitives -->
<g id="node4" class="node">
<title>np3/g_api_FreePrimitives</title>
<g id="a_node4"><a xlink:href="g_api_FreePrimitives.svg" xlink:title="np3/g_api_FreePrimitives">
<ellipse fill="lightblue" stroke="black" cx="509.24" cy="-18" rx="129.18" ry="18"/>
<text text-anchor="middle" x="509.24" y="-14.3" font-family="Times,serif" font-size="14.00">np3/g_api_FreePrimitives</text>
</a>
</g>
</g>
<!-- np3/EntityMerman2&#45;&gt;np3/g_api_FreePrimitives -->
<g id="edge3" class="edge">
<title>np3/EntityMerman2&#45;&gt;np3/g_api_FreePrimitives</title>
<path fill="none" stroke="black" d="M2260.63,-103.54C2033.77,-102.04 1479.64,-95.71 1016.24,-69 851.86,-59.53 810.98,-53.4 647.24,-36 635.52,-34.75 623.25,-33.37 611.07,-31.93"/>
<polygon fill="black" stroke="black" points="611.21,-28.43 600.87,-30.72 610.39,-35.38 611.21,-28.43"/>
<text text-anchor="middle" x="1021.24" y="-57.8" font-family="Times,serif" font-size="14.00">2</text>
</g>
<!-- np3/InitializeEntity -->
<g id="node5" class="node">
<title>np3/InitializeEntity</title>
<g id="a_node5"><a xlink:href="InitializeEntity.svg" xlink:title="np3/InitializeEntity">
<ellipse fill="green" stroke="black" cx="757.24" cy="-18" rx="100.98" ry="18"/>
<text text-anchor="middle" x="757.24" y="-14.3" font-family="Times,serif" font-size="14.00">np3/InitializeEntity</text>
</a>
</g>
</g>
<!-- np3/EntityMerman2&#45;&gt;np3/InitializeEntity -->
<g id="edge4" class="edge">
<title>np3/EntityMerman2&#45;&gt;np3/InitializeEntity</title>
<path fill="none" stroke="black" d="M2261.29,-102.9C2061.15,-100.31 1608.44,-92.21 1228.24,-69 1067.43,-59.18 1027.16,-55.65 867.24,-36 857.99,-34.86 848.32,-33.55 838.72,-32.17"/>
<polygon fill="black" stroke="black" points="839.15,-28.7 828.75,-30.71 838.14,-35.62 839.15,-28.7"/>
<text text-anchor="middle" x="1233.24" y="-57.8" font-family="Times,serif" font-size="14.00">1</text>
</g>
<!-- np3/AnimateEntity -->
<g id="node6" class="node">
<title>np3/AnimateEntity</title>
<g id="a_node6"><a xlink:href="AnimateEntity.svg" xlink:title="np3/AnimateEntity">
<ellipse fill="green" stroke="black" cx="975.24" cy="-18" rx="98.58" ry="18"/>
<text text-anchor="middle" x="975.24" y="-14.3" font-family="Times,serif" font-size="14.00">np3/AnimateEntity</text>
</a>
</g>
</g>
<!-- np3/EntityMerman2&#45;&gt;np3/AnimateEntity -->
<g id="edge5" class="edge">
<title>np3/EntityMerman2&#45;&gt;np3/AnimateEntity</title>
<path fill="none" stroke="black" d="M2262.04,-101.98C2090.48,-98.21 1735.8,-88.63 1436.24,-69 1279.01,-58.7 1239.59,-55.59 1083.24,-36 1074.25,-34.87 1064.86,-33.58 1055.53,-32.21"/>
<polygon fill="black" stroke="black" points="1055.86,-28.72 1045.45,-30.71 1054.82,-35.64 1055.86,-28.72"/>
<text text-anchor="middle" x="1441.24" y="-57.8" font-family="Times,serif" font-size="14.00">5</text>
</g>
<!-- np3/MoveEntity -->
<g id="node7" class="node">
<title>np3/MoveEntity</title>
<g id="a_node7"><a xlink:href="MoveEntity.svg" xlink:title="np3/MoveEntity">
<ellipse fill="green" stroke="black" cx="1177.24" cy="-18" rx="85.29" ry="18"/>
<text text-anchor="middle" x="1177.24" y="-14.3" font-family="Times,serif" font-size="14.00">np3/MoveEntity</text>
</a>
</g>
</g>
<!-- np3/EntityMerman2&#45;&gt;np3/MoveEntity -->
<g id="edge6" class="edge">
<title>np3/EntityMerman2&#45;&gt;np3/MoveEntity</title>
<path fill="none" stroke="black" d="M2261.47,-102.28C2066.62,-98.01 1633.03,-83.53 1271.24,-36 1263.56,-34.99 1255.54,-33.78 1247.57,-32.48"/>
<polygon fill="black" stroke="black" points="1247.98,-29 1237.54,-30.79 1246.82,-35.9 1247.98,-29"/>
<text text-anchor="middle" x="1576.24" y="-57.8" font-family="Times,serif" font-size="14.00">6</text>
</g>
<!-- np3/g_api_CheckCollision -->
<g id="node8" class="node">
<title>np3/g_api_CheckCollision</title>
<g id="a_node8"><a xlink:href="g_api_CheckCollision.svg" xlink:title="np3/g_api_CheckCollision">
<ellipse fill="lightblue" stroke="black" cx="1408.24" cy="-18" rx="128.08" ry="18"/>
<text text-anchor="middle" x="1408.24" y="-14.3" font-family="Times,serif" font-size="14.00">np3/g_api_CheckCollision</text>
</a>
</g>
</g>
<!-- np3/EntityMerman2&#45;&gt;np3/g_api_CheckCollision -->
<g id="edge7" class="edge">
<title>np3/EntityMerman2&#45;&gt;np3/g_api_CheckCollision</title>
<path fill="none" stroke="black" d="M2265.75,-99.41C2155.48,-93.92 1972.44,-83.6 1815.24,-69 1694.87,-57.82 1665.23,-50.78 1545.24,-36 1534.11,-34.63 1522.47,-33.19 1510.88,-31.76"/>
<polygon fill="black" stroke="black" points="1511.08,-28.25 1500.73,-30.5 1510.22,-35.2 1511.08,-28.25"/>
<text text-anchor="middle" x="1820.24" y="-57.8" font-family="Times,serif" font-size="14.00">4</text>
</g>
<!-- np3/Random -->
<g id="node9" class="node">
<title>np3/Random</title>
<g id="a_node9"><a xlink:href="Random.svg" xlink:title="np3/Random">
<ellipse fill="green" stroke="black" cx="1624.24" cy="-18" rx="69.59" ry="18"/>
<text text-anchor="middle" x="1624.24" y="-14.3" font-family="Times,serif" font-size="14.00">np3/Random</text>
</a>
</g>
</g>
<!-- np3/EntityMerman2&#45;&gt;np3/Random -->
<g id="edge8" class="edge">
<title>np3/EntityMerman2&#45;&gt;np3/Random</title>
<path fill="none" stroke="black" d="M2269.84,-97.6C2140.62,-88.16 1903.05,-68.08 1702.24,-36 1696.37,-35.06 1690.27,-33.96 1684.19,-32.78"/>
<polygon fill="black" stroke="black" points="1684.51,-29.27 1674.02,-30.72 1683.13,-36.13 1684.51,-29.27"/>
<text text-anchor="middle" x="1944.24" y="-57.8" font-family="Times,serif" font-size="14.00">5</text>
</g>
<!-- np3/GetSideToPlayer -->
<g id="node10" class="node">
<title>np3/GetSideToPlayer</title>
<g id="a_node10"><a xlink:href="GetSideToPlayer.svg" xlink:title="np3/GetSideToPlayer">
<ellipse fill="green" stroke="black" cx="1820.24" cy="-18" rx="108.58" ry="18"/>
<text text-anchor="middle" x="1820.24" y="-14.3" font-family="Times,serif" font-size="14.00">np3/GetSideToPlayer</text>
</a>
</g>
</g>
<!-- np3/EntityMerman2&#45;&gt;np3/GetSideToPlayer -->
<g id="edge9" class="edge">
<title>np3/EntityMerman2&#45;&gt;np3/GetSideToPlayer</title>
<path fill="none" stroke="black" d="M2290.61,-92.36C2190.35,-76.72 2012.56,-48.99 1906.63,-32.47"/>
<polygon fill="black" stroke="black" points="1907.03,-28.99 1896.61,-30.91 1905.95,-35.91 1907.03,-28.99"/>
<text text-anchor="middle" x="2131.24" y="-57.8" font-family="Times,serif" font-size="14.00">4</text>
</g>
<!-- np3/GetDistanceToPlayerX -->
<g id="node11" class="node">
<title>np3/GetDistanceToPlayerX</title>
<g id="a_node11"><a xlink:href="GetDistanceToPlayerX.svg" xlink:title="np3/GetDistanceToPlayerX">
<ellipse fill="green" stroke="black" cx="2082.24" cy="-18" rx="135.38" ry="18"/>
<text text-anchor="middle" x="2082.24" y="-14.3" font-family="Times,serif" font-size="14.00">np3/GetDistanceToPlayerX</text>
</a>
</g>
</g>
<!-- np3/EntityMerman2&#45;&gt;np3/GetDistanceToPlayerX -->
<g id="edge10" class="edge">
<title>np3/EntityMerman2&#45;&gt;np3/GetDistanceToPlayerX</title>
<path fill="none" stroke="black" d="M2315.63,-89.1C2267.97,-74.78 2195.82,-53.11 2144.36,-37.66"/>
<polygon fill="black" stroke="black" points="2145.27,-34.28 2134.69,-34.75 2143.26,-40.98 2145.27,-34.28"/>
<text text-anchor="middle" x="2246.24" y="-57.8" font-family="Times,serif" font-size="14.00">1</text>
</g>
<!-- np3/g_api_AllocPrimitives -->
<g id="node12" class="node">
<title>np3/g_api_AllocPrimitives</title>
<g id="a_node12"><a xlink:href="g_api_AllocPrimitives.svg" xlink:title="np3/g_api_AllocPrimitives">
<ellipse fill="lightblue" stroke="black" cx="2365.24" cy="-18" rx="129.98" ry="18"/>
<text text-anchor="middle" x="2365.24" y="-14.3" font-family="Times,serif" font-size="14.00">np3/g_api_AllocPrimitives</text>
</a>
</g>
</g>
<!-- np3/EntityMerman2&#45;&gt;np3/g_api_AllocPrimitives -->
<g id="edge11" class="edge">
<title>np3/EntityMerman2&#45;&gt;np3/g_api_AllocPrimitives</title>
<path fill="none" stroke="black" d="M2365.24,-86.8C2365.24,-75.16 2365.24,-59.55 2365.24,-46.24"/>
<polygon fill="black" stroke="black" points="2368.74,-46.18 2365.24,-36.18 2361.74,-46.18 2368.74,-46.18"/>
<text text-anchor="middle" x="2370.24" y="-57.8" font-family="Times,serif" font-size="14.00">2</text>
</g>
<!-- np3/g_api_PlaySfx -->
<g id="node13" class="node">
<title>np3/g_api_PlaySfx</title>
<g id="a_node13"><a xlink:href="g_api_PlaySfx.svg" xlink:title="np3/g_api_PlaySfx">
<ellipse fill="lightblue" stroke="black" cx="2608.24" cy="-18" rx="94.78" ry="18"/>
<text text-anchor="middle" x="2608.24" y="-14.3" font-family="Times,serif" font-size="14.00">np3/g_api_PlaySfx</text>
</a>
</g>
</g>
<!-- np3/EntityMerman2&#45;&gt;np3/g_api_PlaySfx -->
<g id="edge12" class="edge">
<title>np3/EntityMerman2&#45;&gt;np3/g_api_PlaySfx</title>
<path fill="none" stroke="black" d="M2409.25,-88.61C2450.32,-74.24 2511.67,-52.78 2555.38,-37.49"/>
<polygon fill="black" stroke="black" points="2556.69,-40.74 2564.97,-34.14 2554.38,-34.13 2556.69,-40.74"/>
<text text-anchor="middle" x="2507.24" y="-57.8" font-family="Times,serif" font-size="14.00">1</text>
</g>
<!-- np3/AllocEntity -->
<g id="node14" class="node">
<title>np3/AllocEntity</title>
<g id="a_node14"><a xlink:href="AllocEntity.svg" xlink:title="np3/AllocEntity">
<ellipse fill="green" stroke="black" cx="2803.24" cy="-18" rx="82.59" ry="18"/>
<text text-anchor="middle" x="2803.24" y="-14.3" font-family="Times,serif" font-size="14.00">np3/AllocEntity</text>
</a>
</g>
</g>
<!-- np3/EntityMerman2&#45;&gt;np3/AllocEntity -->
<g id="edge13" class="edge">
<title>np3/EntityMerman2&#45;&gt;np3/AllocEntity</title>
<path fill="none" stroke="black" d="M2431.77,-91.09C2513.4,-75.25 2651.16,-48.51 2734.02,-32.43"/>
<polygon fill="black" stroke="black" points="2734.69,-35.87 2743.84,-30.53 2733.36,-29 2734.69,-35.87"/>
<text text-anchor="middle" x="2616.24" y="-57.8" font-family="Times,serif" font-size="14.00">5</text>
</g>
<!-- np3/CreateEntityFromEntity -->
<g id="node15" class="node">
<title>np3/CreateEntityFromEntity</title>
<g id="a_node15"><a xlink:href="CreateEntityFromEntity.svg" xlink:title="np3/CreateEntityFromEntity">
<ellipse fill="green" stroke="black" cx="3048.24" cy="-18" rx="144.87" ry="18"/>
<text text-anchor="middle" x="3048.24" y="-14.3" font-family="Times,serif" font-size="14.00">np3/CreateEntityFromEntity</text>
</a>
</g>
</g>
<!-- np3/EntityMerman2&#45;&gt;np3/CreateEntityFromEntity -->
<g id="edge14" class="edge">
<title>np3/EntityMerman2&#45;&gt;np3/CreateEntityFromEntity</title>
<path fill="none" stroke="black" d="M2447.29,-93.79C2570.3,-78.48 2802.68,-49.56 2939.63,-32.52"/>
<polygon fill="black" stroke="black" points="2940.24,-35.97 2949.73,-31.26 2939.37,-29.02 2940.24,-35.97"/>
<text text-anchor="middle" x="2753.24" y="-57.8" font-family="Times,serif" font-size="14.00">5</text>
</g>
<!-- np3/func_801C6458 -->
<g id="node16" class="node">
<title>np3/func_801C6458</title>
<g id="a_node16"><a xlink:href="func_801C6458.svg" xlink:title="np3/func_801C6458">
<ellipse fill="green" stroke="black" cx="3314.24" cy="-18" rx="103.18" ry="18"/>
<text text-anchor="middle" x="3314.24" y="-14.3" font-family="Times,serif" font-size="14.00">np3/func_801C6458</text>
</a>
</g>
</g>
<!-- np3/EntityMerman2&#45;&gt;np3/func_801C6458 -->
<g id="edge15" class="edge">
<title>np3/EntityMerman2&#45;&gt;np3/func_801C6458</title>
<path fill="none" stroke="black" d="M2462.44,-98.31C2618.68,-88.66 2935.24,-67.07 3202.24,-36 3211.67,-34.9 3221.52,-33.62 3231.3,-32.25"/>
<polygon fill="black" stroke="black" points="3232.04,-35.68 3241.44,-30.8 3231.05,-28.75 3232.04,-35.68"/>
<text text-anchor="middle" x="3025.24" y="-57.8" font-family="Times,serif" font-size="14.00">5</text>
</g>
<!-- np3/func_801BC8E4 -->
<g id="node17" class="node">
<title>np3/func_801BC8E4</title>
<g id="a_node17"><a xlink:href="func_801BC8E4.svg" xlink:title="np3/func_801BC8E4">
<ellipse fill="green" stroke="black" cx="3541.24" cy="-18" rx="105.08" ry="18"/>
<text text-anchor="middle" x="3541.24" y="-14.3" font-family="Times,serif" font-size="14.00">np3/func_801BC8E4</text>
</a>
</g>
</g>
<!-- np3/EntityMerman2&#45;&gt;np3/func_801BC8E4 -->
<g id="edge16" class="edge">
<title>np3/EntityMerman2&#45;&gt;np3/func_801BC8E4</title>
<path fill="none" stroke="black" d="M2467.24,-100.95C2656.7,-94.51 3075.58,-76.64 3426.24,-36 3436.02,-34.87 3446.24,-33.55 3456.38,-32.16"/>
<polygon fill="black" stroke="black" points="3457.06,-35.6 3466.48,-30.75 3456.09,-28.66 3457.06,-35.6"/>
<text text-anchor="middle" x="3229.24" y="-57.8" font-family="Times,serif" font-size="14.00">3</text>
</g>
<!-- np3/func_801BCB5C -->
<g id="node18" class="node">
<title>np3/func_801BCB5C</title>
<g id="a_node18"><a xlink:href="func_801BCB5C.svg" xlink:title="np3/func_801BCB5C">
<ellipse fill="green" stroke="black" cx="3771.24" cy="-18" rx="106.68" ry="18"/>
<text text-anchor="middle" x="3771.24" y="-14.3" font-family="Times,serif" font-size="14.00">np3/func_801BCB5C</text>
</a>
</g>
</g>
<!-- np3/EntityMerman2&#45;&gt;np3/func_801BCB5C -->
<g id="edge17" class="edge">
<title>np3/EntityMerman2&#45;&gt;np3/func_801BCB5C</title>
<path fill="none" stroke="black" d="M2469.26,-102.71C2688.97,-99.08 3216.21,-85.49 3655.24,-36 3665.1,-34.89 3675.42,-33.58 3685.65,-32.2"/>
<polygon fill="black" stroke="black" points="3686.41,-35.63 3695.84,-30.79 3685.45,-28.69 3686.41,-35.63"/>
<text text-anchor="middle" x="3450.24" y="-57.8" font-family="Times,serif" font-size="14.00">1</text>
</g>
<!-- np3/func_801D2684 -->
<g id="node19" class="node">
<title>np3/func_801D2684</title>
<g id="a_node19"><a xlink:href="func_801D2684.svg" xlink:title="np3/func_801D2684">
<ellipse fill="green" stroke="black" cx="4000.24" cy="-18" rx="103.98" ry="18"/>
<text text-anchor="middle" x="4000.24" y="-14.3" font-family="Times,serif" font-size="14.00">np3/func_801D2684</text>
</a>
</g>
</g>
<!-- np3/EntityMerman2&#45;&gt;np3/func_801D2684 -->
<g id="edge18" class="edge">
<title>np3/EntityMerman2&#45;&gt;np3/func_801D2684</title>
<path fill="none" stroke="black" d="M2469.01,-102.23C2663.4,-98.58 3095.64,-88.82 3459.24,-69 3649.75,-58.61 3697.68,-57.54 3887.24,-36 3896.85,-34.91 3906.9,-33.62 3916.87,-32.24"/>
<polygon fill="black" stroke="black" points="3917.38,-35.7 3926.8,-30.84 3916.41,-28.77 3917.38,-35.7"/>
<text text-anchor="middle" x="3708.24" y="-57.8" font-family="Times,serif" font-size="14.00">1</text>
</g>
<!-- np3/func_801D1F38 -->
<g id="node20" class="node">
<title>np3/func_801D1F38</title>
<g id="a_node20"><a xlink:href="func_801D1F38.svg" xlink:title="np3/func_801D1F38">
<ellipse fill="red" stroke="black" cx="4227.24" cy="-18" rx="104.78" ry="18"/>
<text text-anchor="middle" x="4227.24" y="-14.3" font-family="Times,serif" font-size="14.00">np3/func_801D1F38</text>
</a>
</g>
</g>
<!-- np3/EntityMerman2&#45;&gt;np3/func_801D1F38 -->
<g id="edge19" class="edge">
<title>np3/EntityMerman2&#45;&gt;np3/func_801D1F38</title>
<path fill="none" stroke="black" d="M2469.65,-103.33C2696.72,-101.43 3252.44,-94.36 3717.24,-69 3893.59,-59.38 3937.81,-56.37 4113.24,-36 4122.93,-34.87 4133.07,-33.56 4143.12,-32.17"/>
<polygon fill="black" stroke="black" points="4143.72,-35.62 4153.14,-30.76 4142.75,-28.69 4143.72,-35.62"/>
<text text-anchor="middle" x="3947.24" y="-57.8" font-family="Times,serif" font-size="14.00">2</text>
</g>
<!-- np3/func_801B653C -->
<g id="node21" class="node">
<title>np3/func_801B653C</title>
<g id="a_node21"><a xlink:href="func_801B653C.svg" xlink:title="np3/func_801B653C">
<ellipse fill="green" stroke="black" cx="4454.24" cy="-18" rx="104.78" ry="18"/>
<text text-anchor="middle" x="4454.24" y="-14.3" font-family="Times,serif" font-size="14.00">np3/func_801B653C</text>
</a>
</g>
</g>
<!-- np3/EntityMerman2&#45;&gt;np3/func_801B653C -->
<g id="edge20" class="edge">
<title>np3/EntityMerman2&#45;&gt;np3/func_801B653C</title>
<path fill="none" stroke="black" d="M2470.04,-103.99C2724.76,-103.48 3396.55,-99.11 3956.24,-69 4127.73,-59.77 4170.69,-56.12 4341.24,-36 4350.68,-34.89 4360.53,-33.6 4370.32,-32.23"/>
<polygon fill="black" stroke="black" points="4371.07,-35.66 4380.48,-30.79 4370.09,-28.73 4371.07,-35.66"/>
<text text-anchor="middle" x="4180.24" y="-57.8" font-family="Times,serif" font-size="14.00">1</text>
</g>
<!-- np3/DestroyEntity -->
<g id="node22" class="node">
<title>np3/DestroyEntity</title>
<g id="a_node22"><a xlink:href="DestroyEntity.svg" xlink:title="np3/DestroyEntity">
<ellipse fill="green" stroke="black" cx="4673.24" cy="-18" rx="96.68" ry="18"/>
<text text-anchor="middle" x="4673.24" y="-14.3" font-family="Times,serif" font-size="14.00">np3/DestroyEntity</text>
</a>
</g>
</g>
<!-- np3/EntityMerman2&#45;&gt;np3/DestroyEntity -->
<g id="edge21" class="edge">
<title>np3/EntityMerman2&#45;&gt;np3/DestroyEntity</title>
<path fill="none" stroke="black" d="M2469.95,-104.47C2749.37,-105.18 3535.93,-103.67 4189.24,-69 4358.09,-60.04 4400.45,-56.86 4568.24,-36 4576.9,-34.92 4585.93,-33.67 4594.91,-32.33"/>
<polygon fill="black" stroke="black" points="4595.65,-35.76 4605.01,-30.8 4594.59,-28.84 4595.65,-35.76"/>
<text text-anchor="middle" x="4416.24" y="-57.8" font-family="Times,serif" font-size="14.00">1</text>
</g>
</g>
</svg>
