<?xml version="1.0" encoding="UTF-8" standalone="no"?>
<!DOCTYPE svg PUBLIC "-//W3C//DTD SVG 1.1//EN"
 "http://www.w3.org/Graphics/SVG/1.1/DTD/svg11.dtd">
<!-- Generated by graphviz version 2.43.0 (0)
 -->
<!-- Title: EntityGaibon Pages: 1 -->
<svg width="3667pt" height="131pt"
 viewBox="0.00 0.00 3667.14 131.00" xmlns="http://www.w3.org/2000/svg" xmlns:xlink="http://www.w3.org/1999/xlink">
<g id="graph0" class="graph" transform="scale(1 1) rotate(0) translate(4 127)">
<title>EntityGaibon</title>
<polygon fill="white" stroke="transparent" points="-4,4 -4,-127 3663.14,-127 3663.14,4 -4,4"/>
<!-- nz0/EntityGaibon -->
<g id="node1" class="node">
<title>nz0/EntityGaibon</title>
<ellipse fill="red" stroke="black" cx="1801.59" cy="-105" rx="91.78" ry="18"/>
<text text-anchor="middle" x="1801.59" y="-101.3" font-family="Times,serif" font-size="14.00">nz0/EntityGaibon</text>
</g>
<!-- nz0/SetStep -->
<g id="node2" class="node">
<title>nz0/SetStep</title>
<g id="a_node2"><a xlink:href="SetStep.svg" xlink:title="nz0/SetStep">
<ellipse fill="green" stroke="black" cx="67.59" cy="-18" rx="67.69" ry="18"/>
<text text-anchor="middle" x="67.59" y="-14.3" font-family="Times,serif" font-size="14.00">nz0/SetStep</text>
</a>
</g>
</g>
<!-- nz0/EntityGaibon&#45;&gt;nz0/SetStep -->
<g id="edge1" class="edge">
<title>nz0/EntityGaibon&#45;&gt;nz0/SetStep</title>
<path fill="none" stroke="black" d="M1710.02,-103.26C1501.23,-101.19 973.9,-93.73 533.59,-69 360.36,-59.27 316.13,-62.09 144.59,-36 138.47,-35.07 132.1,-33.93 125.76,-32.7"/>
<polygon fill="black" stroke="black" points="126.38,-29.25 115.88,-30.69 124.98,-36.11 126.38,-29.25"/>
<text text-anchor="middle" x="543.09" y="-57.8" font-family="Times,serif" font-size="14.00">12</text>
</g>
<!-- nz0/InitializeEntity -->
<g id="node3" class="node">
<title>nz0/InitializeEntity</title>
<g id="a_node3"><a xlink:href="InitializeEntity.svg" xlink:title="nz0/InitializeEntity">
<ellipse fill="green" stroke="black" cx="252.59" cy="-18" rx="99.38" ry="18"/>
<text text-anchor="middle" x="252.59" y="-14.3" font-family="Times,serif" font-size="14.00">nz0/InitializeEntity</text>
</a>
</g>
</g>
<!-- nz0/EntityGaibon&#45;&gt;nz0/InitializeEntity -->
<g id="edge2" class="edge">
<title>nz0/EntityGaibon&#45;&gt;nz0/InitializeEntity</title>
<path fill="none" stroke="black" d="M1709.83,-103.55C1481.24,-101.59 868.21,-91.16 360.59,-36 351.28,-34.99 341.54,-33.73 331.89,-32.37"/>
<polygon fill="black" stroke="black" points="332.29,-28.89 321.89,-30.91 331.28,-35.82 332.29,-28.89"/>
<text text-anchor="middle" x="720.59" y="-57.8" font-family="Times,serif" font-size="14.00">1</text>
</g>
<!-- nz0/CreateEntityFromCurrentEntity -->
<g id="node4" class="node">
<title>nz0/CreateEntityFromCurrentEntity</title>
<g id="a_node4"><a xlink:href="CreateEntityFromCurrentEntity.svg" xlink:title="nz0/CreateEntityFromCurrentEntity">
<ellipse fill="green" stroke="black" cx="550.59" cy="-18" rx="180.87" ry="18"/>
<text text-anchor="middle" x="550.59" y="-14.3" font-family="Times,serif" font-size="14.00">nz0/CreateEntityFromCurrentEntity</text>
</a>
</g>
</g>
<!-- nz0/EntityGaibon&#45;&gt;nz0/CreateEntityFromCurrentEntity -->
<g id="edge3" class="edge">
<title>nz0/EntityGaibon&#45;&gt;nz0/CreateEntityFromCurrentEntity</title>
<path fill="none" stroke="black" d="M1712.57,-100.71C1579.53,-95.52 1320.99,-84.43 1101.59,-69 957.78,-58.88 793.19,-43.44 681.63,-32.4"/>
<polygon fill="black" stroke="black" points="681.97,-28.91 671.68,-31.41 681.28,-35.88 681.97,-28.91"/>
<text text-anchor="middle" x="1106.59" y="-57.8" font-family="Times,serif" font-size="14.00">1</text>
</g>
<!-- nz0/AnimateEntity -->
<g id="node5" class="node">
<title>nz0/AnimateEntity</title>
<g id="a_node5"><a xlink:href="AnimateEntity.svg" xlink:title="nz0/AnimateEntity">
<ellipse fill="green" stroke="black" cx="846.59" cy="-18" rx="97.48" ry="18"/>
<text text-anchor="middle" x="846.59" y="-14.3" font-family="Times,serif" font-size="14.00">nz0/AnimateEntity</text>
</a>
</g>
</g>
<!-- nz0/EntityGaibon&#45;&gt;nz0/AnimateEntity -->
<g id="edge4" class="edge">
<title>nz0/EntityGaibon&#45;&gt;nz0/AnimateEntity</title>
<path fill="none" stroke="black" d="M1714.04,-99.59C1559.9,-91.24 1230.19,-70.79 953.59,-36 944.62,-34.87 935.24,-33.57 925.92,-32.19"/>
<polygon fill="black" stroke="black" points="926.27,-28.7 915.86,-30.68 925.23,-35.63 926.27,-28.7"/>
<text text-anchor="middle" x="1266.09" y="-57.8" font-family="Times,serif" font-size="14.00">13</text>
</g>
<!-- nz0/func_801C29B0 -->
<g id="node6" class="node">
<title>nz0/func_801C29B0</title>
<g id="a_node6"><a xlink:href="func_801C29B0.svg" xlink:title="nz0/func_801C29B0">
<ellipse fill="green" stroke="black" cx="1065.59" cy="-18" rx="103.18" ry="18"/>
<text text-anchor="middle" x="1065.59" y="-14.3" font-family="Times,serif" font-size="14.00">nz0/func_801C29B0</text>
</a>
</g>
</g>
<!-- nz0/EntityGaibon&#45;&gt;nz0/func_801C29B0 -->
<g id="edge5" class="edge">
<title>nz0/EntityGaibon&#45;&gt;nz0/func_801C29B0</title>
<path fill="none" stroke="black" d="M1721.18,-96.33C1602.22,-84.73 1372.37,-61.38 1177.59,-36 1168.4,-34.8 1158.8,-33.47 1149.25,-32.09"/>
<polygon fill="black" stroke="black" points="1149.73,-28.63 1139.33,-30.64 1148.72,-35.55 1149.73,-28.63"/>
<text text-anchor="middle" x="1461.09" y="-57.8" font-family="Times,serif" font-size="14.00">14</text>
</g>
<!-- nz0/GetSideToPlayer -->
<g id="node7" class="node">
<title>nz0/GetSideToPlayer</title>
<g id="a_node7"><a xlink:href="GetSideToPlayer.svg" xlink:title="nz0/GetSideToPlayer">
<ellipse fill="green" stroke="black" cx="1294.59" cy="-18" rx="107.78" ry="18"/>
<text text-anchor="middle" x="1294.59" y="-14.3" font-family="Times,serif" font-size="14.00">nz0/GetSideToPlayer</text>
</a>
</g>
</g>
<!-- nz0/EntityGaibon&#45;&gt;nz0/GetSideToPlayer -->
<g id="edge6" class="edge">
<title>nz0/EntityGaibon&#45;&gt;nz0/GetSideToPlayer</title>
<path fill="none" stroke="black" d="M1734.27,-92.71C1642.34,-77.3 1477.61,-49.68 1377.98,-32.98"/>
<polygon fill="black" stroke="black" points="1378.4,-29.5 1367.95,-31.3 1377.24,-36.4 1378.4,-29.5"/>
<text text-anchor="middle" x="1583.59" y="-57.8" font-family="Times,serif" font-size="14.00">6</text>
</g>
<!-- nz0/ratan2 -->
<g id="node8" class="node">
<title>nz0/ratan2</title>
<g id="a_node8"><a xlink:href="ratan2.svg" xlink:title="nz0/ratan2">
<ellipse fill="lightblue" stroke="black" cx="1481.59" cy="-18" rx="61.19" ry="18"/>
<text text-anchor="middle" x="1481.59" y="-14.3" font-family="Times,serif" font-size="14.00">nz0/ratan2</text>
</a>
</g>
</g>
<!-- nz0/EntityGaibon&#45;&gt;nz0/ratan2 -->
<g id="edge7" class="edge">
<title>nz0/EntityGaibon&#45;&gt;nz0/ratan2</title>
<path fill="none" stroke="black" d="M1749.47,-90.15C1690.54,-74.5 1595.06,-49.14 1535.43,-33.3"/>
<polygon fill="black" stroke="black" points="1536.02,-29.84 1525.46,-30.65 1534.23,-36.6 1536.02,-29.84"/>
<text text-anchor="middle" x="1666.59" y="-57.8" font-family="Times,serif" font-size="14.00">3</text>
</g>
<!-- nz0/rcos -->
<g id="node9" class="node">
<title>nz0/rcos</title>
<g id="a_node9"><a xlink:href="rcos.svg" xlink:title="nz0/rcos">
<ellipse fill="lightblue" stroke="black" cx="1610.59" cy="-18" rx="50.09" ry="18"/>
<text text-anchor="middle" x="1610.59" y="-14.3" font-family="Times,serif" font-size="14.00">nz0/rcos</text>
</a>
</g>
</g>
<!-- nz0/EntityGaibon&#45;&gt;nz0/rcos -->
<g id="edge8" class="edge">
<title>nz0/EntityGaibon&#45;&gt;nz0/rcos</title>
<path fill="none" stroke="black" d="M1766.12,-88.21C1733.18,-73.55 1684.23,-51.77 1650.07,-36.57"/>
<polygon fill="black" stroke="black" points="1651.41,-33.33 1640.85,-32.46 1648.56,-39.73 1651.41,-33.33"/>
<text text-anchor="middle" x="1722.59" y="-57.8" font-family="Times,serif" font-size="14.00">3</text>
</g>
<!-- nz0/rsin -->
<g id="node10" class="node">
<title>nz0/rsin</title>
<g id="a_node10"><a xlink:href="rsin.svg" xlink:title="nz0/rsin">
<ellipse fill="lightblue" stroke="black" cx="1726.59" cy="-18" rx="48.19" ry="18"/>
<text text-anchor="middle" x="1726.59" y="-14.3" font-family="Times,serif" font-size="14.00">nz0/rsin</text>
</a>
</g>
</g>
<!-- nz0/EntityGaibon&#45;&gt;nz0/rsin -->
<g id="edge9" class="edge">
<title>nz0/EntityGaibon&#45;&gt;nz0/rsin</title>
<path fill="none" stroke="black" d="M1786.78,-87.21C1775.71,-74.67 1760.43,-57.35 1748.04,-43.3"/>
<polygon fill="black" stroke="black" points="1750.37,-40.65 1741.13,-35.47 1745.12,-45.28 1750.37,-40.65"/>
<text text-anchor="middle" x="1773.59" y="-57.8" font-family="Times,serif" font-size="14.00">3</text>
</g>
<!-- nz0/MoveEntity -->
<g id="node11" class="node">
<title>nz0/MoveEntity</title>
<g id="a_node11"><a xlink:href="MoveEntity.svg" xlink:title="nz0/MoveEntity">
<ellipse fill="green" stroke="black" cx="1877.59" cy="-18" rx="84.49" ry="18"/>
<text text-anchor="middle" x="1877.59" y="-14.3" font-family="Times,serif" font-size="14.00">nz0/MoveEntity</text>
</a>
</g>
</g>
<!-- nz0/EntityGaibon&#45;&gt;nz0/MoveEntity -->
<g id="edge10" class="edge">
<title>nz0/EntityGaibon&#45;&gt;nz0/MoveEntity</title>
<path fill="none" stroke="black" d="M1816.61,-87.21C1827.75,-74.75 1843.1,-57.57 1855.62,-43.57"/>
<polygon fill="black" stroke="black" points="1858.55,-45.55 1862.61,-35.76 1853.34,-40.88 1858.55,-45.55"/>
<text text-anchor="middle" x="1854.09" y="-57.8" font-family="Times,serif" font-size="14.00">10</text>
</g>
<!-- nz0/AllocEntity -->
<g id="node12" class="node">
<title>nz0/AllocEntity</title>
<g id="a_node12"><a xlink:href="AllocEntity.svg" xlink:title="nz0/AllocEntity">
<ellipse fill="green" stroke="black" cx="2061.59" cy="-18" rx="81.49" ry="18"/>
<text text-anchor="middle" x="2061.59" y="-14.3" font-family="Times,serif" font-size="14.00">nz0/AllocEntity</text>
</a>
</g>
</g>
<!-- nz0/EntityGaibon&#45;&gt;nz0/AllocEntity -->
<g id="edge11" class="edge">
<title>nz0/EntityGaibon&#45;&gt;nz0/AllocEntity</title>
<path fill="none" stroke="black" d="M1846.59,-89.29C1891.59,-74.58 1960.81,-51.95 2008.49,-36.36"/>
<polygon fill="black" stroke="black" points="2009.6,-39.68 2018.02,-33.25 2007.43,-33.03 2009.6,-39.68"/>
<text text-anchor="middle" x="1952.59" y="-57.8" font-family="Times,serif" font-size="14.00">5</text>
</g>
<!-- nz0/CreateEntityFromEntity -->
<g id="node13" class="node">
<title>nz0/CreateEntityFromEntity</title>
<g id="a_node13"><a xlink:href="CreateEntityFromEntity.svg" xlink:title="nz0/CreateEntityFromEntity">
<ellipse fill="green" stroke="black" cx="2304.59" cy="-18" rx="143.77" ry="18"/>
<text text-anchor="middle" x="2304.59" y="-14.3" font-family="Times,serif" font-size="14.00">nz0/CreateEntityFromEntity</text>
</a>
</g>
</g>
<!-- nz0/EntityGaibon&#45;&gt;nz0/CreateEntityFromEntity -->
<g id="edge12" class="edge">
<title>nz0/EntityGaibon&#45;&gt;nz0/CreateEntityFromEntity</title>
<path fill="none" stroke="black" d="M1868.65,-92.67C1957.09,-77.72 2113.11,-51.36 2212.54,-34.56"/>
<polygon fill="black" stroke="black" points="2213.3,-37.98 2222.58,-32.86 2212.14,-31.07 2213.3,-37.98"/>
<text text-anchor="middle" x="2088.59" y="-57.8" font-family="Times,serif" font-size="14.00">5</text>
</g>
<!-- nz0/g_api_CheckCollision -->
<g id="node14" class="node">
<title>nz0/g_api_CheckCollision</title>
<g id="a_node14"><a xlink:href="g_api_CheckCollision.svg" xlink:title="nz0/g_api_CheckCollision">
<ellipse fill="lightblue" stroke="black" cx="2593.59" cy="-18" rx="127.28" ry="18"/>
<text text-anchor="middle" x="2593.59" y="-14.3" font-family="Times,serif" font-size="14.00">nz0/g_api_CheckCollision</text>
</a>
</g>
</g>
<!-- nz0/EntityGaibon&#45;&gt;nz0/g_api_CheckCollision -->
<g id="edge13" class="edge">
<title>nz0/EntityGaibon&#45;&gt;nz0/g_api_CheckCollision</title>
<path fill="none" stroke="black" d="M1881.68,-96.25C2005.33,-84.15 2250.13,-59.72 2457.59,-36 2468.84,-34.71 2480.6,-33.32 2492.3,-31.9"/>
<polygon fill="black" stroke="black" points="2493.05,-35.34 2502.55,-30.65 2492.2,-28.39 2493.05,-35.34"/>
<text text-anchor="middle" x="2282.59" y="-57.8" font-family="Times,serif" font-size="14.00">1</text>
</g>
<!-- nz0/func_801BCCFC -->
<g id="node15" class="node">
<title>nz0/func_801BCCFC</title>
<g id="a_node15"><a xlink:href="func_801BCCFC.svg" xlink:title="nz0/func_801BCCFC">
<ellipse fill="green" stroke="black" cx="2844.59" cy="-18" rx="105.88" ry="18"/>
<text text-anchor="middle" x="2844.59" y="-14.3" font-family="Times,serif" font-size="14.00">nz0/func_801BCCFC</text>
</a>
</g>
</g>
<!-- nz0/EntityGaibon&#45;&gt;nz0/func_801BCCFC -->
<g id="edge14" class="edge">
<title>nz0/EntityGaibon&#45;&gt;nz0/func_801BCCFC</title>
<path fill="none" stroke="black" d="M1889.44,-99.78C2054.42,-91.37 2421.74,-70.31 2729.59,-36 2739.37,-34.91 2749.6,-33.62 2759.74,-32.24"/>
<polygon fill="black" stroke="black" points="2760.42,-35.68 2769.84,-30.84 2759.46,-28.75 2760.42,-35.68"/>
<text text-anchor="middle" x="2532.59" y="-57.8" font-family="Times,serif" font-size="14.00">1</text>
</g>
<!-- nz0/SetSubStep -->
<g id="node16" class="node">
<title>nz0/SetSubStep</title>
<g id="a_node16"><a xlink:href="SetSubStep.svg" xlink:title="nz0/SetSubStep">
<ellipse fill="green" stroke="black" cx="3053.59" cy="-18" rx="85.29" ry="18"/>
<text text-anchor="middle" x="3053.59" y="-14.3" font-family="Times,serif" font-size="14.00">nz0/SetSubStep</text>
</a>
</g>
</g>
<!-- nz0/EntityGaibon&#45;&gt;nz0/SetSubStep -->
<g id="edge15" class="edge">
<title>nz0/EntityGaibon&#45;&gt;nz0/SetSubStep</title>
<path fill="none" stroke="black" d="M1892.83,-102.99C2088.89,-99.86 2564.65,-87.17 2959.59,-36 2967.34,-35 2975.42,-33.79 2983.45,-32.48"/>
<polygon fill="black" stroke="black" points="2984.28,-35.89 2993.56,-30.78 2983.12,-28.99 2984.28,-35.89"/>
<text text-anchor="middle" x="2808.59" y="-57.8" font-family="Times,serif" font-size="14.00">2</text>
</g>
<!-- nz0/Random -->
<g id="node17" class="node">
<title>nz0/Random</title>
<g id="a_node17"><a xlink:href="Random.svg" xlink:title="nz0/Random">
<ellipse fill="green" stroke="black" cx="3224.59" cy="-18" rx="68.49" ry="18"/>
<text text-anchor="middle" x="3224.59" y="-14.3" font-family="Times,serif" font-size="14.00">nz0/Random</text>
</a>
</g>
</g>
<!-- nz0/EntityGaibon&#45;&gt;nz0/Random -->
<g id="edge16" class="edge">
<title>nz0/EntityGaibon&#45;&gt;nz0/Random</title>
<path fill="none" stroke="black" d="M1892.77,-102.85C2070.75,-100.17 2476.85,-91.88 2817.59,-69 2964.66,-59.12 3002.04,-59.26 3147.59,-36 3153.48,-35.06 3159.6,-33.95 3165.69,-32.75"/>
<polygon fill="black" stroke="black" points="3166.78,-36.1 3175.88,-30.66 3165.38,-29.24 3166.78,-36.1"/>
<text text-anchor="middle" x="3021.59" y="-57.8" font-family="Times,serif" font-size="14.00">1</text>
</g>
<!-- nz0/DestroyEntity -->
<g id="node18" class="node">
<title>nz0/DestroyEntity</title>
<g id="a_node18"><a xlink:href="DestroyEntity.svg" xlink:title="nz0/DestroyEntity">
<ellipse fill="red" stroke="black" cx="3406.59" cy="-18" rx="95.58" ry="18"/>
<text text-anchor="middle" x="3406.59" y="-14.3" font-family="Times,serif" font-size="14.00">nz0/DestroyEntity</text>
</a>
</g>
</g>
<!-- nz0/EntityGaibon&#45;&gt;nz0/DestroyEntity -->
<g id="edge17" class="edge">
<title>nz0/EntityGaibon&#45;&gt;nz0/DestroyEntity</title>
<path fill="none" stroke="black" d="M1893.48,-104.29C2098.05,-104.3 2606.48,-100.79 3030.59,-69 3133.82,-61.26 3252.04,-44.17 3327.93,-32.14"/>
<polygon fill="black" stroke="black" points="3328.56,-35.58 3337.89,-30.55 3327.46,-28.67 3328.56,-35.58"/>
<text text-anchor="middle" x="3170.59" y="-57.8" font-family="Times,serif" font-size="14.00">1</text>
</g>
<!-- nz0/FntPrint -->
<g id="node19" class="node">
<title>nz0/FntPrint</title>
<g id="a_node19"><a xlink:href="FntPrint.svg" xlink:title="nz0/FntPrint">
<ellipse fill="lightblue" stroke="black" cx="3589.59" cy="-18" rx="69.59" ry="18"/>
<text text-anchor="middle" x="3589.59" y="-14.3" font-family="Times,serif" font-size="14.00">nz0/FntPrint</text>
</a>
</g>
</g>
<!-- nz0/EntityGaibon&#45;&gt;nz0/FntPrint -->
<g id="edge18" class="edge">
<title>nz0/EntityGaibon&#45;&gt;nz0/FntPrint</title>
<path fill="none" stroke="black" d="M1893.21,-104C2114.5,-103.5 2695.62,-99.16 3179.59,-69 3327.59,-59.78 3365.13,-59.16 3511.59,-36 3517.47,-35.07 3523.57,-33.98 3529.65,-32.8"/>
<polygon fill="black" stroke="black" points="3530.71,-36.15 3539.82,-30.74 3529.33,-29.29 3530.71,-36.15"/>
<text text-anchor="middle" x="3385.59" y="-57.8" font-family="Times,serif" font-size="14.00">1</text>
</g>
</g>
</svg>
