<?xml version="1.0" encoding="UTF-8" standalone="no"?>
<!DOCTYPE svg PUBLIC "-//W3C//DTD SVG 1.1//EN"
 "http://www.w3.org/Graphics/SVG/1.1/DTD/svg11.dtd">
<!-- Generated by graphviz version 2.43.0 (0)
 -->
<!-- Title: EntityIntenseExplosion Pages: 1 -->
<svg width="408pt" height="131pt"
 viewBox="0.00 0.00 408.08 131.00" xmlns="http://www.w3.org/2000/svg" xmlns:xlink="http://www.w3.org/1999/xlink">
<g id="graph0" class="graph" transform="scale(1 1) rotate(0) translate(4 127)">
<title>EntityIntenseExplosion</title>
<polygon fill="white" stroke="transparent" points="-4,4 -4,-127 404.08,-127 404.08,4 -4,4"/>
<!-- st0/EntityIntenseExplosion -->
<g id="node1" class="node">
<title>st0/EntityIntenseExplosion</title>
<ellipse fill="green" stroke="black" cx="201.49" cy="-105" rx="137.28" ry="18"/>
<text text-anchor="middle" x="201.49" y="-101.3" font-family="Times,serif" font-size="14.00">st0/EntityIntenseExplosion</text>
</g>
<!-- st0/InitializeEntity -->
<g id="node2" class="node">
<title>st0/InitializeEntity</title>
<g id="a_node2"><a xlink:href="InitializeEntity.svg" xlink:title="st0/InitializeEntity">
<ellipse fill="green" stroke="black" cx="97.49" cy="-18" rx="97.48" ry="18"/>
<text text-anchor="middle" x="97.49" y="-14.3" font-family="Times,serif" font-size="14.00">st0/InitializeEntity</text>
</a>
</g>
</g>
<!-- st0/EntityIntenseExplosion&#45;&gt;st0/InitializeEntity -->
<g id="edge1" class="edge">
<title>st0/EntityIntenseExplosion&#45;&gt;st0/InitializeEntity</title>
<path fill="none" stroke="black" d="M180.45,-86.8C164.84,-74.04 143.38,-56.5 126.2,-42.46"/>
<polygon fill="black" stroke="black" points="128.11,-39.5 118.15,-35.89 123.68,-44.92 128.11,-39.5"/>
<text text-anchor="middle" x="161.49" y="-57.8" font-family="Times,serif" font-size="14.00">1</text>
</g>
<!-- st0/DestroyEntity -->
<g id="node3" class="node">
<title>st0/DestroyEntity</title>
<g id="a_node3"><a xlink:href="DestroyEntity.svg" xlink:title="st0/DestroyEntity">
<ellipse fill="green" stroke="black" cx="306.49" cy="-18" rx="93.68" ry="18"/>
<text text-anchor="middle" x="306.49" y="-14.3" font-family="Times,serif" font-size="14.00">st0/DestroyEntity</text>
</a>
</g>
</g>
<!-- st0/EntityIntenseExplosion&#45;&gt;st0/DestroyEntity -->
<g id="edge2" class="edge">
<title>st0/EntityIntenseExplosion&#45;&gt;st0/DestroyEntity</title>
<path fill="none" stroke="black" d="M222.24,-87.21C238.06,-74.4 260.04,-56.61 277.58,-42.4"/>
<polygon fill="black" stroke="black" points="280.22,-44.77 285.79,-35.76 275.82,-39.33 280.22,-44.77"/>
<text text-anchor="middle" x="265.49" y="-57.8" font-family="Times,serif" font-size="14.00">1</text>
</g>
</g>
</svg>
