<?xml version="1.0" encoding="UTF-8" standalone="no"?>
<!DOCTYPE svg PUBLIC "-//W3C//DTD SVG 1.1//EN"
 "http://www.w3.org/Graphics/SVG/1.1/DTD/svg11.dtd">
<!-- Generated by graphviz version 2.43.0 (0)
 -->
<!-- Title: EntitySubwpnThrownVibhuti Pages: 1 -->
<svg width="1349pt" height="131pt"
 viewBox="0.00 0.00 1349.48 131.00" xmlns="http://www.w3.org/2000/svg" xmlns:xlink="http://www.w3.org/1999/xlink">
<g id="graph0" class="graph" transform="scale(1 1) rotate(0) translate(4 127)">
<title>EntitySubwpnThrownVibhuti</title>
<polygon fill="white" stroke="transparent" points="-4,4 -4,-127 1345.48,-127 1345.48,4 -4,4"/>
<!-- dra/EntitySubwpnThrownVibhuti -->
<g id="node1" class="node">
<title>dra/EntitySubwpnThrownVibhuti</title>
<ellipse fill="red" stroke="black" cx="669.99" cy="-105" rx="164.37" ry="18"/>
<text text-anchor="middle" x="669.99" y="-101.3" font-family="Times,serif" font-size="14.00">dra/EntitySubwpnThrownVibhuti</text>
</g>
<!-- dra/func_800EDB58 -->
<g id="node2" class="node">
<title>dra/func_800EDB58</title>
<g id="a_node2"><a xlink:href="func_800EDB58.svg" xlink:title="dra/func_800EDB58">
<ellipse fill="green" stroke="black" cx="103.99" cy="-18" rx="103.98" ry="18"/>
<text text-anchor="middle" x="103.99" y="-14.3" font-family="Times,serif" font-size="14.00">dra/func_800EDB58</text>
</a>
</g>
</g>
<!-- dra/EntitySubwpnThrownVibhuti&#45;&gt;dra/func_800EDB58 -->
<g id="edge1" class="edge">
<title>dra/EntitySubwpnThrownVibhuti&#45;&gt;dra/func_800EDB58</title>
<path fill="none" stroke="black" d="M577.16,-90.07C485.59,-76.34 341.64,-54.73 216.99,-36 208.13,-34.67 198.88,-33.28 189.65,-31.89"/>
<polygon fill="black" stroke="black" points="190.07,-28.41 179.67,-30.39 189.03,-35.34 190.07,-28.41"/>
<text text-anchor="middle" x="432.99" y="-57.8" font-family="Times,serif" font-size="14.00">1</text>
</g>
<!-- dra/func_8011A290 -->
<g id="node3" class="node">
<title>dra/func_8011A290</title>
<g id="a_node3"><a xlink:href="func_8011A290.svg" xlink:title="dra/func_8011A290">
<ellipse fill="green" stroke="black" cx="326.99" cy="-18" rx="100.98" ry="18"/>
<text text-anchor="middle" x="326.99" y="-14.3" font-family="Times,serif" font-size="14.00">dra/func_8011A290</text>
</a>
</g>
</g>
<!-- dra/EntitySubwpnThrownVibhuti&#45;&gt;dra/func_8011A290 -->
<g id="edge2" class="edge">
<title>dra/EntitySubwpnThrownVibhuti&#45;&gt;dra/func_8011A290</title>
<path fill="none" stroke="black" d="M606.68,-88.31C546.08,-73.29 455.01,-50.73 393.4,-35.46"/>
<polygon fill="black" stroke="black" points="393.94,-31.99 383.39,-32.98 392.26,-38.78 393.94,-31.99"/>
<text text-anchor="middle" x="524.99" y="-57.8" font-family="Times,serif" font-size="14.00">1</text>
</g>
<!-- dra/rand -->
<g id="node4" class="node">
<title>dra/rand</title>
<g id="a_node4"><a xlink:href="rand.svg" xlink:title="dra/rand">
<ellipse fill="lightblue" stroke="black" cx="495.99" cy="-18" rx="50.89" ry="18"/>
<text text-anchor="middle" x="495.99" y="-14.3" font-family="Times,serif" font-size="14.00">dra/rand</text>
</a>
</g>
</g>
<!-- dra/EntitySubwpnThrownVibhuti&#45;&gt;dra/rand -->
<g id="edge3" class="edge">
<title>dra/EntitySubwpnThrownVibhuti&#45;&gt;dra/rand</title>
<path fill="none" stroke="black" d="M635.61,-87.21C606.17,-72.83 563.86,-52.15 533.54,-37.34"/>
<polygon fill="black" stroke="black" points="535.06,-34.19 524.54,-32.95 531.99,-40.48 535.06,-34.19"/>
<text text-anchor="middle" x="598.99" y="-57.8" font-family="Times,serif" font-size="14.00">2</text>
</g>
<!-- dra/rcos -->
<g id="node5" class="node">
<title>dra/rcos</title>
<g id="a_node5"><a xlink:href="rcos.svg" xlink:title="dra/rcos">
<ellipse fill="lightblue" stroke="black" cx="612.99" cy="-18" rx="48.99" ry="18"/>
<text text-anchor="middle" x="612.99" y="-14.3" font-family="Times,serif" font-size="14.00">dra/rcos</text>
</a>
</g>
</g>
<!-- dra/EntitySubwpnThrownVibhuti&#45;&gt;dra/rcos -->
<g id="edge4" class="edge">
<title>dra/EntitySubwpnThrownVibhuti&#45;&gt;dra/rcos</title>
<path fill="none" stroke="black" d="M658.46,-86.8C650.24,-74.54 639.06,-57.87 629.84,-44.13"/>
<polygon fill="black" stroke="black" points="632.6,-41.95 624.12,-35.6 626.78,-45.85 632.6,-41.95"/>
<text text-anchor="middle" x="649.99" y="-57.8" font-family="Times,serif" font-size="14.00">1</text>
</g>
<!-- dra/rsin -->
<g id="node6" class="node">
<title>dra/rsin</title>
<g id="a_node6"><a xlink:href="rsin.svg" xlink:title="dra/rsin">
<ellipse fill="lightblue" stroke="black" cx="726.99" cy="-18" rx="47.39" ry="18"/>
<text text-anchor="middle" x="726.99" y="-14.3" font-family="Times,serif" font-size="14.00">dra/rsin</text>
</a>
</g>
</g>
<!-- dra/EntitySubwpnThrownVibhuti&#45;&gt;dra/rsin -->
<g id="edge5" class="edge">
<title>dra/EntitySubwpnThrownVibhuti&#45;&gt;dra/rsin</title>
<path fill="none" stroke="black" d="M681.53,-86.8C689.74,-74.54 700.92,-57.87 710.14,-44.13"/>
<polygon fill="black" stroke="black" points="713.2,-45.85 715.86,-35.6 707.38,-41.95 713.2,-45.85"/>
<text text-anchor="middle" x="706.99" y="-57.8" font-family="Times,serif" font-size="14.00">1</text>
</g>
<!-- dra/PlaySfx -->
<g id="node7" class="node">
<title>dra/PlaySfx</title>
<g id="a_node7"><a xlink:href="PlaySfx.svg" xlink:title="dra/PlaySfx">
<ellipse fill="green" stroke="black" cx="856.99" cy="-18" rx="64.19" ry="18"/>
<text text-anchor="middle" x="856.99" y="-14.3" font-family="Times,serif" font-size="14.00">dra/PlaySfx</text>
</a>
</g>
</g>
<!-- dra/EntitySubwpnThrownVibhuti&#45;&gt;dra/PlaySfx -->
<g id="edge6" class="edge">
<title>dra/EntitySubwpnThrownVibhuti&#45;&gt;dra/PlaySfx</title>
<path fill="none" stroke="black" d="M706.49,-87.41C737.74,-73.21 782.72,-52.76 815.36,-37.92"/>
<polygon fill="black" stroke="black" points="816.99,-41.03 824.64,-33.7 814.09,-34.66 816.99,-41.03"/>
<text text-anchor="middle" x="779.99" y="-57.8" font-family="Times,serif" font-size="14.00">1</text>
</g>
<!-- dra/DestroyEntity -->
<g id="node8" class="node">
<title>dra/DestroyEntity</title>
<g id="a_node8"><a xlink:href="DestroyEntity.svg" xlink:title="dra/DestroyEntity">
<ellipse fill="green" stroke="black" cx="1033.99" cy="-18" rx="94.78" ry="18"/>
<text text-anchor="middle" x="1033.99" y="-14.3" font-family="Times,serif" font-size="14.00">dra/DestroyEntity</text>
</a>
</g>
</g>
<!-- dra/EntitySubwpnThrownVibhuti&#45;&gt;dra/DestroyEntity -->
<g id="edge7" class="edge">
<title>dra/EntitySubwpnThrownVibhuti&#45;&gt;dra/DestroyEntity</title>
<path fill="none" stroke="black" d="M736.33,-88.51C801.67,-73.25 900.97,-50.06 966.65,-34.72"/>
<polygon fill="black" stroke="black" points="967.55,-38.11 976.5,-32.43 965.96,-31.29 967.55,-38.11"/>
<text text-anchor="middle" x="878.99" y="-57.8" font-family="Times,serif" font-size="14.00">1</text>
</g>
<!-- dra/CheckCollision -->
<g id="node9" class="node">
<title>dra/CheckCollision</title>
<g id="a_node9"><a xlink:href="CheckCollision.svg" xlink:title="dra/CheckCollision">
<ellipse fill="green" stroke="black" cx="1243.99" cy="-18" rx="97.48" ry="18"/>
<text text-anchor="middle" x="1243.99" y="-14.3" font-family="Times,serif" font-size="14.00">dra/CheckCollision</text>
</a>
</g>
</g>
<!-- dra/EntitySubwpnThrownVibhuti&#45;&gt;dra/CheckCollision -->
<g id="edge8" class="edge">
<title>dra/EntitySubwpnThrownVibhuti&#45;&gt;dra/CheckCollision</title>
<path fill="none" stroke="black" d="M766.41,-90.41C861.07,-76.97 1009.55,-55.63 1137.99,-36 1146.2,-34.75 1154.76,-33.41 1163.31,-32.07"/>
<polygon fill="black" stroke="black" points="1163.98,-35.5 1173.31,-30.48 1162.89,-28.59 1163.98,-35.5"/>
<text text-anchor="middle" x="1014.99" y="-57.8" font-family="Times,serif" font-size="14.00">2</text>
</g>
</g>
</svg>
