<?xml version="1.0" encoding="UTF-8" standalone="no"?>
<!DOCTYPE svg PUBLIC "-//W3C//DTD SVG 1.1//EN"
 "http://www.w3.org/Graphics/SVG/1.1/DTD/svg11.dtd">
<!-- Generated by graphviz version 2.43.0 (0)
 -->
<!-- Title: FreePrimitives Pages: 1 -->
<svg width="2182pt" height="131pt"
 viewBox="0.00 0.00 2182.18 131.00" xmlns="http://www.w3.org/2000/svg" xmlns:xlink="http://www.w3.org/1999/xlink">
<g id="graph0" class="graph" transform="scale(1 1) rotate(0) translate(4 127)">
<title>FreePrimitives</title>
<polygon fill="white" stroke="transparent" points="-4,4 -4,-127 2178.18,-127 2178.18,4 -4,4"/>
<!-- dra/FreePrimitives -->
<g id="node1" class="node">
<title>dra/FreePrimitives</title>
<ellipse fill="green" stroke="black" cx="1085.89" cy="-18" rx="98.58" ry="18"/>
<text text-anchor="middle" x="1085.89" y="-14.3" font-family="Times,serif" font-size="14.00">dra/FreePrimitives</text>
</g>
<!-- dra/DestroyEntity -->
<g id="node2" class="node">
<title>dra/DestroyEntity</title>
<g id="a_node2"><a xlink:href="DestroyEntity.svg" xlink:title="dra/DestroyEntity">
<ellipse fill="red" stroke="black" cx="94.89" cy="-105" rx="94.78" ry="18"/>
<text text-anchor="middle" x="94.89" y="-101.3" font-family="Times,serif" font-size="14.00">dra/DestroyEntity</text>
</a>
</g>
</g>
<!-- dra/DestroyEntity&#45;&gt;dra/FreePrimitives -->
<g id="edge1" class="edge">
<title>dra/DestroyEntity&#45;&gt;dra/FreePrimitives</title>
<path fill="none" stroke="black" d="M162.2,-92.26C174.39,-90.34 187,-88.5 198.89,-87 480.31,-51.57 814.46,-31.98 980.84,-23.73"/>
<polygon fill="black" stroke="black" points="981.25,-27.22 991.07,-23.23 980.91,-20.23 981.25,-27.22"/>
<text text-anchor="middle" x="520.89" y="-57.8" font-family="Times,serif" font-size="14.00">1</text>
</g>
<!-- dra/func_800F86E4 -->
<g id="node3" class="node">
<title>dra/func_800F86E4</title>
<g id="a_node3"><a xlink:href="func_800F86E4.svg" xlink:title="dra/func_800F86E4">
<ellipse fill="green" stroke="black" cx="309.89" cy="-105" rx="102.08" ry="18"/>
<text text-anchor="middle" x="309.89" y="-101.3" font-family="Times,serif" font-size="14.00">dra/func_800F86E4</text>
</a>
</g>
</g>
<!-- dra/func_800F86E4&#45;&gt;dra/FreePrimitives -->
<g id="edge2" class="edge">
<title>dra/func_800F86E4&#45;&gt;dra/FreePrimitives</title>
<path fill="none" stroke="black" d="M382.66,-92.32C395.39,-90.43 408.51,-88.58 420.89,-87 622.08,-61.32 858.5,-39.01 988.28,-27.44"/>
<polygon fill="black" stroke="black" points="988.94,-30.89 998.59,-26.52 988.32,-23.92 988.94,-30.89"/>
<text text-anchor="middle" x="699.89" y="-57.8" font-family="Times,serif" font-size="14.00">3</text>
</g>
<!-- dra/func_800F2404 -->
<g id="node4" class="node">
<title>dra/func_800F2404</title>
<g id="a_node4"><a xlink:href="func_800F2404.svg" xlink:title="dra/func_800F2404">
<ellipse fill="green" stroke="black" cx="530.89" cy="-105" rx="100.98" ry="18"/>
<text text-anchor="middle" x="530.89" y="-101.3" font-family="Times,serif" font-size="14.00">dra/func_800F2404</text>
</a>
</g>
</g>
<!-- dra/func_800F2404&#45;&gt;dra/FreePrimitives -->
<g id="edge3" class="edge">
<title>dra/func_800F2404&#45;&gt;dra/FreePrimitives</title>
<path fill="none" stroke="black" d="M604.26,-92.64C616.49,-90.76 629.05,-88.82 640.89,-87 766.97,-67.63 913.16,-45.32 1002.57,-31.69"/>
<polygon fill="black" stroke="black" points="1003.3,-35.12 1012.65,-30.15 1002.24,-28.2 1003.3,-35.12"/>
<text text-anchor="middle" x="853.89" y="-57.8" font-family="Times,serif" font-size="14.00">1</text>
</g>
<!-- dra/func_8010427C -->
<g id="node5" class="node">
<title>dra/func_8010427C</title>
<g id="a_node5"><a xlink:href="func_8010427C.svg" xlink:title="dra/func_8010427C">
<ellipse fill="green" stroke="black" cx="750.89" cy="-105" rx="101.28" ry="18"/>
<text text-anchor="middle" x="750.89" y="-101.3" font-family="Times,serif" font-size="14.00">dra/func_8010427C</text>
</a>
</g>
</g>
<!-- dra/func_8010427C&#45;&gt;dra/FreePrimitives -->
<g id="edge4" class="edge">
<title>dra/func_8010427C&#45;&gt;dra/FreePrimitives</title>
<path fill="none" stroke="black" d="M806.59,-89.87C865.57,-74.9 958.6,-51.3 1020.9,-35.49"/>
<polygon fill="black" stroke="black" points="1021.79,-38.88 1030.62,-33.02 1020.07,-32.09 1021.79,-38.88"/>
<text text-anchor="middle" x="943.89" y="-57.8" font-family="Times,serif" font-size="14.00">3</text>
</g>
<!-- dra/func_80103238 -->
<g id="node6" class="node">
<title>dra/func_80103238</title>
<g id="a_node6"><a xlink:href="func_80103238.svg" xlink:title="dra/func_80103238">
<ellipse fill="red" stroke="black" cx="970.89" cy="-105" rx="100.98" ry="18"/>
<text text-anchor="middle" x="970.89" y="-101.3" font-family="Times,serif" font-size="14.00">dra/func_80103238</text>
</a>
</g>
</g>
<!-- dra/func_80103238&#45;&gt;dra/FreePrimitives -->
<g id="edge5" class="edge">
<title>dra/func_80103238&#45;&gt;dra/FreePrimitives</title>
<path fill="none" stroke="black" d="M993.34,-87.41C1010.99,-74.36 1035.77,-56.05 1055.24,-41.65"/>
<polygon fill="black" stroke="black" points="1057.54,-44.31 1063.5,-35.55 1053.38,-38.68 1057.54,-44.31"/>
<text text-anchor="middle" x="1040.89" y="-57.8" font-family="Times,serif" font-size="14.00">9</text>
</g>
<!-- dra/HandleGameOver -->
<g id="node7" class="node">
<title>dra/HandleGameOver</title>
<g id="a_node7"><a xlink:href="HandleGameOver.svg" xlink:title="dra/HandleGameOver">
<ellipse fill="red" stroke="black" cx="1201.89" cy="-105" rx="111.58" ry="18"/>
<text text-anchor="middle" x="1201.89" y="-101.3" font-family="Times,serif" font-size="14.00">dra/HandleGameOver</text>
</a>
</g>
</g>
<!-- dra/HandleGameOver&#45;&gt;dra/FreePrimitives -->
<g id="edge6" class="edge">
<title>dra/HandleGameOver&#45;&gt;dra/FreePrimitives</title>
<path fill="none" stroke="black" d="M1178.97,-87.21C1161.26,-74.23 1136.55,-56.12 1117.04,-41.83"/>
<polygon fill="black" stroke="black" points="1118.9,-38.85 1108.76,-35.76 1114.76,-44.49 1118.9,-38.85"/>
<text text-anchor="middle" x="1155.89" y="-57.8" font-family="Times,serif" font-size="14.00">1</text>
</g>
<!-- dra/func_800E5D30 -->
<g id="node8" class="node">
<title>dra/func_800E5D30</title>
<g id="a_node8"><a xlink:href="func_800E5D30.svg" xlink:title="dra/func_800E5D30">
<ellipse fill="red" stroke="black" cx="1433.89" cy="-105" rx="102.88" ry="18"/>
<text text-anchor="middle" x="1433.89" y="-101.3" font-family="Times,serif" font-size="14.00">dra/func_800E5D30</text>
</a>
</g>
</g>
<!-- dra/func_800E5D30&#45;&gt;dra/FreePrimitives -->
<g id="edge7" class="edge">
<title>dra/func_800E5D30&#45;&gt;dra/FreePrimitives</title>
<path fill="none" stroke="black" d="M1376.43,-89.96C1314.82,-74.92 1217.14,-51.06 1152.29,-35.22"/>
<polygon fill="black" stroke="black" points="1153.12,-31.82 1142.58,-32.85 1151.46,-38.62 1153.12,-31.82"/>
<text text-anchor="middle" x="1285.89" y="-57.8" font-family="Times,serif" font-size="14.00">1</text>
</g>
<!-- dra/HandlePlay -->
<g id="node9" class="node">
<title>dra/HandlePlay</title>
<g id="a_node9"><a xlink:href="HandlePlay.svg" xlink:title="dra/HandlePlay">
<ellipse fill="green" stroke="black" cx="1636.89" cy="-105" rx="82.59" ry="18"/>
<text text-anchor="middle" x="1636.89" y="-101.3" font-family="Times,serif" font-size="14.00">dra/HandlePlay</text>
</a>
</g>
</g>
<!-- dra/HandlePlay&#45;&gt;dra/FreePrimitives -->
<g id="edge8" class="edge">
<title>dra/HandlePlay&#45;&gt;dra/FreePrimitives</title>
<path fill="none" stroke="black" d="M1577.23,-92.52C1566.8,-90.61 1556.04,-88.7 1545.89,-87 1416.19,-65.31 1265.3,-43.69 1172.7,-30.83"/>
<polygon fill="black" stroke="black" points="1172.93,-27.33 1162.54,-29.42 1171.96,-34.26 1172.93,-27.33"/>
<text text-anchor="middle" x="1437.89" y="-57.8" font-family="Times,serif" font-size="14.00">1</text>
</g>
<!-- dra/HandleVideoPlayback -->
<g id="node10" class="node">
<title>dra/HandleVideoPlayback</title>
<g id="a_node10"><a xlink:href="HandleVideoPlayback.svg" xlink:title="dra/HandleVideoPlayback">
<ellipse fill="green" stroke="black" cx="1867.89" cy="-105" rx="129.98" ry="18"/>
<text text-anchor="middle" x="1867.89" y="-101.3" font-family="Times,serif" font-size="14.00">dra/HandleVideoPlayback</text>
</a>
</g>
</g>
<!-- dra/HandleVideoPlayback&#45;&gt;dra/FreePrimitives -->
<g id="edge9" class="edge">
<title>dra/HandleVideoPlayback&#45;&gt;dra/FreePrimitives</title>
<path fill="none" stroke="black" d="M1774.06,-92.46C1758.96,-90.62 1743.5,-88.75 1728.89,-87 1603.6,-72.01 1572.36,-67.42 1446.89,-54 1357.2,-44.4 1254.84,-34.59 1182.08,-27.8"/>
<polygon fill="black" stroke="black" points="1182.29,-24.31 1172.01,-26.87 1181.64,-31.28 1182.29,-24.31"/>
<text text-anchor="middle" x="1583.89" y="-57.8" font-family="Times,serif" font-size="14.00">1</text>
</g>
<!-- dra/EntityMist -->
<g id="node11" class="node">
<title>dra/EntityMist</title>
<g id="a_node11"><a xlink:href="EntityMist.svg" xlink:title="dra/EntityMist">
<ellipse fill="red" stroke="black" cx="2094.89" cy="-105" rx="79.09" ry="18"/>
<text text-anchor="middle" x="2094.89" y="-101.3" font-family="Times,serif" font-size="14.00">dra/EntityMist</text>
</a>
</g>
</g>
<!-- dra/EntityMist&#45;&gt;dra/FreePrimitives -->
<g id="edge10" class="edge">
<title>dra/EntityMist&#45;&gt;dra/FreePrimitives</title>
<path fill="none" stroke="black" d="M2038.71,-92.18C2028.17,-90.24 2017.22,-88.41 2006.89,-87 1713.47,-47.09 1364.04,-29.37 1192.15,-22.6"/>
<polygon fill="black" stroke="black" points="1192.22,-19.1 1182.09,-22.21 1191.95,-26.09 1192.22,-19.1"/>
<text text-anchor="middle" x="1861.89" y="-57.8" font-family="Times,serif" font-size="14.00">3</text>
</g>
</g>
</svg>
