<?xml version="1.0" encoding="UTF-8" standalone="no"?>
<!DOCTYPE svg PUBLIC "-//W3C//DTD SVG 1.1//EN"
 "http://www.w3.org/Graphics/SVG/1.1/DTD/svg11.dtd">
<!-- Generated by graphviz version 2.43.0 (0)
 -->
<!-- Title: FreePrimitives Pages: 1 -->
<svg width="2183pt" height="131pt"
 viewBox="0.00 0.00 2182.68 131.00" xmlns="http://www.w3.org/2000/svg" xmlns:xlink="http://www.w3.org/1999/xlink">
<g id="graph0" class="graph" transform="scale(1 1) rotate(0) translate(4 127)">
<title>FreePrimitives</title>
<polygon fill="white" stroke="transparent" points="-4,4 -4,-127 2178.68,-127 2178.68,4 -4,4"/>
<!-- dra/FreePrimitives -->
<g id="node1" class="node">
<title>dra/FreePrimitives</title>
<ellipse fill="green" stroke="black" cx="1000.89" cy="-18" rx="98.58" ry="18"/>
<text text-anchor="middle" x="1000.89" y="-14.3" font-family="Times,serif" font-size="14.00">dra/FreePrimitives</text>
</g>
<!-- dra/DestroyEntity -->
<g id="node2" class="node">
<title>dra/DestroyEntity</title>
<g id="a_node2"><a xlink:href="DestroyEntity.svg" xlink:title="dra/DestroyEntity">
<ellipse fill="green" stroke="black" cx="94.89" cy="-105" rx="94.78" ry="18"/>
<text text-anchor="middle" x="94.89" y="-101.3" font-family="Times,serif" font-size="14.00">dra/DestroyEntity</text>
</a>
</g>
</g>
<!-- dra/DestroyEntity&#45;&gt;dra/FreePrimitives -->
<g id="edge1" class="edge">
<title>dra/DestroyEntity&#45;&gt;dra/FreePrimitives</title>
<path fill="none" stroke="black" d="M162.21,-92.31C174.39,-90.39 187.01,-88.53 198.89,-87 448.86,-54.86 744.68,-34.25 897.68,-24.88"/>
<polygon fill="black" stroke="black" points="898.23,-28.36 907.99,-24.26 897.8,-21.37 898.23,-28.36"/>
<text text-anchor="middle" x="511.89" y="-57.8" font-family="Times,serif" font-size="14.00">1</text>
</g>
<!-- dra/func_800F86E4 -->
<g id="node3" class="node">
<title>dra/func_800F86E4</title>
<g id="a_node3"><a xlink:href="func_800F86E4.svg" xlink:title="dra/func_800F86E4">
<ellipse fill="green" stroke="black" cx="309.89" cy="-105" rx="102.08" ry="18"/>
<text text-anchor="middle" x="309.89" y="-101.3" font-family="Times,serif" font-size="14.00">dra/func_800F86E4</text>
</a>
</g>
</g>
<!-- dra/func_800F86E4&#45;&gt;dra/FreePrimitives -->
<g id="edge2" class="edge">
<title>dra/func_800F86E4&#45;&gt;dra/FreePrimitives</title>
<path fill="none" stroke="black" d="M383.28,-92.4C395.82,-90.52 408.72,-88.65 420.89,-87 592.28,-63.75 792.82,-41.29 907.54,-28.89"/>
<polygon fill="black" stroke="black" points="908.12,-32.35 917.69,-27.79 907.37,-25.39 908.12,-32.35"/>
<text text-anchor="middle" x="680.89" y="-57.8" font-family="Times,serif" font-size="14.00">3</text>
</g>
<!-- dra/HandlePlay -->
<g id="node4" class="node">
<title>dra/HandlePlay</title>
<g id="a_node4"><a xlink:href="HandlePlay.svg" xlink:title="dra/HandlePlay">
<ellipse fill="green" stroke="black" cx="512.89" cy="-105" rx="82.59" ry="18"/>
<text text-anchor="middle" x="512.89" y="-101.3" font-family="Times,serif" font-size="14.00">dra/HandlePlay</text>
</a>
</g>
</g>
<!-- dra/HandlePlay&#45;&gt;dra/FreePrimitives -->
<g id="edge3" class="edge">
<title>dra/HandlePlay&#45;&gt;dra/FreePrimitives</title>
<path fill="none" stroke="black" d="M573.74,-92.64C584.13,-90.74 594.82,-88.8 604.89,-87 714.21,-67.51 840.7,-45.97 920.73,-32.46"/>
<polygon fill="black" stroke="black" points="921.46,-35.88 930.74,-30.77 920.3,-28.98 921.46,-35.88"/>
<text text-anchor="middle" x="794.89" y="-57.8" font-family="Times,serif" font-size="14.00">1</text>
</g>
<!-- dra/EntityMist -->
<g id="node5" class="node">
<title>dra/EntityMist</title>
<g id="a_node5"><a xlink:href="EntityMist.svg" xlink:title="dra/EntityMist">
<ellipse fill="red" stroke="black" cx="692.89" cy="-105" rx="79.09" ry="18"/>
<text text-anchor="middle" x="692.89" y="-101.3" font-family="Times,serif" font-size="14.00">dra/EntityMist</text>
</a>
</g>
</g>
<!-- dra/EntityMist&#45;&gt;dra/FreePrimitives -->
<g id="edge4" class="edge">
<title>dra/EntityMist&#45;&gt;dra/FreePrimitives</title>
<path fill="none" stroke="black" d="M741.36,-90.63C794.76,-75.89 880.8,-52.14 939.04,-36.07"/>
<polygon fill="black" stroke="black" points="940.14,-39.4 948.85,-33.36 938.28,-32.65 940.14,-39.4"/>
<text text-anchor="middle" x="870.89" y="-57.8" font-family="Times,serif" font-size="14.00">3</text>
</g>
<!-- dra/func_800F2404 -->
<g id="node6" class="node">
<title>dra/func_800F2404</title>
<g id="a_node6"><a xlink:href="func_800F2404.svg" xlink:title="dra/func_800F2404">
<ellipse fill="green" stroke="black" cx="890.89" cy="-105" rx="100.98" ry="18"/>
<text text-anchor="middle" x="890.89" y="-101.3" font-family="Times,serif" font-size="14.00">dra/func_800F2404</text>
</a>
</g>
</g>
<!-- dra/func_800F2404&#45;&gt;dra/FreePrimitives -->
<g id="edge5" class="edge">
<title>dra/func_800F2404&#45;&gt;dra/FreePrimitives</title>
<path fill="none" stroke="black" d="M912.36,-87.41C929.06,-74.51 952.43,-56.45 970.96,-42.13"/>
<polygon fill="black" stroke="black" points="973.33,-44.72 979.1,-35.84 969.05,-39.18 973.33,-44.72"/>
<text text-anchor="middle" x="957.89" y="-57.8" font-family="Times,serif" font-size="14.00">1</text>
</g>
<!-- dra/func_8010427C -->
<g id="node7" class="node">
<title>dra/func_8010427C</title>
<g id="a_node7"><a xlink:href="func_8010427C.svg" xlink:title="dra/func_8010427C">
<ellipse fill="green" stroke="black" cx="1110.89" cy="-105" rx="101.28" ry="18"/>
<text text-anchor="middle" x="1110.89" y="-101.3" font-family="Times,serif" font-size="14.00">dra/func_8010427C</text>
</a>
</g>
</g>
<!-- dra/func_8010427C&#45;&gt;dra/FreePrimitives -->
<g id="edge6" class="edge">
<title>dra/func_8010427C&#45;&gt;dra/FreePrimitives</title>
<path fill="none" stroke="black" d="M1089.16,-87.21C1072.44,-74.28 1049.14,-56.28 1030.68,-42.02"/>
<polygon fill="black" stroke="black" points="1032.63,-39.1 1022.58,-35.76 1028.35,-44.64 1032.63,-39.1"/>
<text text-anchor="middle" x="1067.89" y="-57.8" font-family="Times,serif" font-size="14.00">3</text>
</g>
<!-- dra/func_80103238 -->
<g id="node8" class="node">
<title>dra/func_80103238</title>
<g id="a_node8"><a xlink:href="func_80103238.svg" xlink:title="dra/func_80103238">
<ellipse fill="red" stroke="black" cx="1330.89" cy="-105" rx="100.98" ry="18"/>
<text text-anchor="middle" x="1330.89" y="-101.3" font-family="Times,serif" font-size="14.00">dra/func_80103238</text>
</a>
</g>
</g>
<!-- dra/func_80103238&#45;&gt;dra/FreePrimitives -->
<g id="edge7" class="edge">
<title>dra/func_80103238&#45;&gt;dra/FreePrimitives</title>
<path fill="none" stroke="black" d="M1276.03,-89.87C1218.04,-74.93 1126.66,-51.39 1065.29,-35.59"/>
<polygon fill="black" stroke="black" points="1065.89,-32.13 1055.34,-33.02 1064.15,-38.91 1065.89,-32.13"/>
<text text-anchor="middle" x="1190.89" y="-57.8" font-family="Times,serif" font-size="14.00">9</text>
</g>
<!-- dra/HandleVideoPlayback -->
<g id="node9" class="node">
<title>dra/HandleVideoPlayback</title>
<g id="a_node9"><a xlink:href="HandleVideoPlayback.svg" xlink:title="dra/HandleVideoPlayback">
<ellipse fill="green" stroke="black" cx="1579.89" cy="-105" rx="129.98" ry="18"/>
<text text-anchor="middle" x="1579.89" y="-101.3" font-family="Times,serif" font-size="14.00">dra/HandleVideoPlayback</text>
</a>
</g>
</g>
<!-- dra/HandleVideoPlayback&#45;&gt;dra/FreePrimitives -->
<g id="edge8" class="edge">
<title>dra/HandleVideoPlayback&#45;&gt;dra/FreePrimitives</title>
<path fill="none" stroke="black" d="M1494.15,-91.41C1384.1,-75.26 1194.38,-47.4 1085.08,-31.36"/>
<polygon fill="black" stroke="black" points="1085.49,-27.88 1075.09,-29.89 1084.47,-34.81 1085.49,-27.88"/>
<text text-anchor="middle" x="1330.89" y="-57.8" font-family="Times,serif" font-size="14.00">1</text>
</g>
<!-- dra/func_800E5D30 -->
<g id="node10" class="node">
<title>dra/func_800E5D30</title>
<g id="a_node10"><a xlink:href="func_800E5D30.svg" xlink:title="dra/func_800E5D30">
<ellipse fill="red" stroke="black" cx="1830.89" cy="-105" rx="102.88" ry="18"/>
<text text-anchor="middle" x="1830.89" y="-101.3" font-family="Times,serif" font-size="14.00">dra/func_800E5D30</text>
</a>
</g>
</g>
<!-- dra/func_800E5D30&#45;&gt;dra/FreePrimitives -->
<g id="edge9" class="edge">
<title>dra/func_800E5D30&#45;&gt;dra/FreePrimitives</title>
<path fill="none" stroke="black" d="M1757.77,-92.3C1744.84,-90.4 1731.48,-88.55 1718.89,-87 1498.54,-59.86 1238.98,-37.7 1100.24,-26.63"/>
<polygon fill="black" stroke="black" points="1100.3,-23.13 1090.05,-25.82 1099.75,-30.1 1100.3,-23.13"/>
<text text-anchor="middle" x="1547.89" y="-57.8" font-family="Times,serif" font-size="14.00">1</text>
</g>
<!-- dra/HandleGameOver -->
<g id="node11" class="node">
<title>dra/HandleGameOver</title>
<g id="a_node11"><a xlink:href="HandleGameOver.svg" xlink:title="dra/HandleGameOver">
<ellipse fill="red" stroke="black" cx="2062.89" cy="-105" rx="111.58" ry="18"/>
<text text-anchor="middle" x="2062.89" y="-101.3" font-family="Times,serif" font-size="14.00">dra/HandleGameOver</text>
</a>
</g>
</g>
<!-- dra/HandleGameOver&#45;&gt;dra/FreePrimitives -->
<g id="edge10" class="edge">
<title>dra/HandleGameOver&#45;&gt;dra/FreePrimitives</title>
<path fill="none" stroke="black" d="M1983.9,-92.17C1970.24,-90.31 1956.17,-88.51 1942.89,-87 1639.79,-52.6 1279.72,-32.29 1105.57,-23.75"/>
<polygon fill="black" stroke="black" points="1105.55,-20.25 1095.39,-23.26 1105.21,-27.24 1105.55,-20.25"/>
<text text-anchor="middle" x="1768.89" y="-57.8" font-family="Times,serif" font-size="14.00">1</text>
</g>
</g>
</svg>
