<?xml version="1.0" encoding="UTF-8" standalone="no"?>
<!DOCTYPE svg PUBLIC "-//W3C//DTD SVG 1.1//EN"
 "http://www.w3.org/Graphics/SVG/1.1/DTD/svg11.dtd">
<!-- Generated by graphviz version 2.43.0 (0)
 -->
<!-- Title: func_8018E290 Pages: 1 -->
<svg width="4686pt" height="131pt"
 viewBox="0.00 0.00 4685.78 131.00" xmlns="http://www.w3.org/2000/svg" xmlns:xlink="http://www.w3.org/1999/xlink">
<g id="graph0" class="graph" transform="scale(1 1) rotate(0) translate(4 127)">
<title>func_8018E290</title>
<polygon fill="white" stroke="transparent" points="-4,4 -4,-127 4681.78,-127 4681.78,4 -4,4"/>
<!-- rwrp/func_8018E290 -->
<g id="node1" class="node">
<title>rwrp/func_8018E290</title>
<ellipse fill="red" stroke="black" cx="2344.24" cy="-18" rx="108.58" ry="18"/>
<text text-anchor="middle" x="2344.24" y="-14.3" font-family="Times,serif" font-size="14.00">rwrp/func_8018E290</text>
</g>
<!-- rwrp/func_80192248 -->
<g id="node2" class="node">
<title>rwrp/func_80192248</title>
<g id="a_node2"><a xlink:href="func_80192248.svg" xlink:title="rwrp/func_80192248">
<ellipse fill="red" stroke="black" cx="107.24" cy="-105" rx="107.48" ry="18"/>
<text text-anchor="middle" x="107.24" y="-101.3" font-family="Times,serif" font-size="14.00">rwrp/func_80192248</text>
</a>
</g>
</g>
<!-- rwrp/func_80192248&#45;&gt;rwrp/func_8018E290 -->
<g id="edge1" class="edge">
<title>rwrp/func_80192248&#45;&gt;rwrp/func_8018E290</title>
<path fill="none" stroke="black" d="M182.97,-92.21C196.36,-90.32 210.2,-88.5 223.24,-87 397.81,-66.92 441.75,-63.12 617.24,-54 1221.28,-22.61 1945.53,-18.96 2225.62,-18.82"/>
<polygon fill="black" stroke="black" points="2225.8,-22.32 2235.8,-18.82 2225.79,-15.32 2225.8,-22.32"/>
<text text-anchor="middle" x="622.24" y="-57.8" font-family="Times,serif" font-size="14.00">1</text>
</g>
<!-- rwrp/func_8019024C -->
<g id="node3" class="node">
<title>rwrp/func_8019024C</title>
<g id="a_node3"><a xlink:href="func_8019024C.svg" xlink:title="rwrp/func_8019024C">
<ellipse fill="red" stroke="black" cx="341.24" cy="-105" rx="108.58" ry="18"/>
<text text-anchor="middle" x="341.24" y="-101.3" font-family="Times,serif" font-size="14.00">rwrp/func_8019024C</text>
</a>
</g>
</g>
<!-- rwrp/func_8019024C&#45;&gt;rwrp/func_8018E290 -->
<g id="edge2" class="edge">
<title>rwrp/func_8019024C&#45;&gt;rwrp/func_8018E290</title>
<path fill="none" stroke="black" d="M417.62,-92.21C431.13,-90.32 445.09,-88.5 458.24,-87 635.48,-66.83 680.11,-63.44 858.24,-54 1366.59,-27.07 1973.85,-20.86 2225.75,-19.43"/>
<polygon fill="black" stroke="black" points="2226.03,-22.93 2236.01,-19.37 2226,-15.93 2226.03,-22.93"/>
<text text-anchor="middle" x="863.24" y="-57.8" font-family="Times,serif" font-size="14.00">1</text>
</g>
<!-- rwrp/func_8019199C -->
<g id="node4" class="node">
<title>rwrp/func_8019199C</title>
<g id="a_node4"><a xlink:href="func_8019199C.svg" xlink:title="rwrp/func_8019199C">
<ellipse fill="red" stroke="black" cx="576.24" cy="-105" rx="108.58" ry="18"/>
<text text-anchor="middle" x="576.24" y="-101.3" font-family="Times,serif" font-size="14.00">rwrp/func_8019199C</text>
</a>
</g>
</g>
<!-- rwrp/func_8019199C&#45;&gt;rwrp/func_8018E290 -->
<g id="edge3" class="edge">
<title>rwrp/func_8019199C&#45;&gt;rwrp/func_8018E290</title>
<path fill="none" stroke="black" d="M652.95,-92.24C666.68,-90.33 680.87,-88.5 694.24,-87 875.91,-66.62 921.7,-63.92 1104.24,-54 1515.97,-31.63 2005.43,-23.15 2226.05,-20.29"/>
<polygon fill="black" stroke="black" points="2226.4,-23.78 2236.35,-20.16 2226.31,-16.78 2226.4,-23.78"/>
<text text-anchor="middle" x="1109.24" y="-57.8" font-family="Times,serif" font-size="14.00">1</text>
</g>
<!-- rwrp/func_80194DD4 -->
<g id="node5" class="node">
<title>rwrp/func_80194DD4</title>
<g id="a_node5"><a xlink:href="func_80194DD4.svg" xlink:title="rwrp/func_80194DD4">
<ellipse fill="green" stroke="black" cx="813.24" cy="-105" rx="110.48" ry="18"/>
<text text-anchor="middle" x="813.24" y="-101.3" font-family="Times,serif" font-size="14.00">rwrp/func_80194DD4</text>
</a>
</g>
</g>
<!-- rwrp/func_80194DD4&#45;&gt;rwrp/func_8018E290 -->
<g id="edge4" class="edge">
<title>rwrp/func_80194DD4&#45;&gt;rwrp/func_8018E290</title>
<path fill="none" stroke="black" d="M890.93,-92.19C904.67,-90.3 918.86,-88.49 932.24,-87 1115.69,-66.6 1161.96,-64.57 1346.24,-54 1664.49,-35.74 2040.41,-25.66 2226.99,-21.42"/>
<polygon fill="black" stroke="black" points="2227.17,-24.92 2237.09,-21.19 2227.02,-17.92 2227.17,-24.92"/>
<text text-anchor="middle" x="1351.24" y="-57.8" font-family="Times,serif" font-size="14.00">1</text>
</g>
<!-- rwrp/func_8018F9B4 -->
<g id="node6" class="node">
<title>rwrp/func_8018F9B4</title>
<g id="a_node6"><a xlink:href="func_8018F9B4.svg" xlink:title="rwrp/func_8018F9B4">
<ellipse fill="red" stroke="black" cx="1050.24" cy="-105" rx="108.58" ry="18"/>
<text text-anchor="middle" x="1050.24" y="-101.3" font-family="Times,serif" font-size="14.00">rwrp/func_8018F9B4</text>
</a>
</g>
</g>
<!-- rwrp/func_8018F9B4&#45;&gt;rwrp/func_8018E290 -->
<g id="edge5" class="edge">
<title>rwrp/func_8018F9B4&#45;&gt;rwrp/func_8018E290</title>
<path fill="none" stroke="black" d="M1126.96,-92.25C1140.69,-90.35 1154.87,-88.51 1168.24,-87 1554.38,-43.38 2015.18,-27.05 2227.08,-21.53"/>
<polygon fill="black" stroke="black" points="2227.39,-25.02 2237.29,-21.27 2227.21,-18.03 2227.39,-25.02"/>
<text text-anchor="middle" x="1528.24" y="-57.8" font-family="Times,serif" font-size="14.00">1</text>
</g>
<!-- rwrp/func_80188DF0 -->
<g id="node7" class="node">
<title>rwrp/func_80188DF0</title>
<g id="a_node7"><a xlink:href="func_80188DF0.svg" xlink:title="rwrp/func_80188DF0">
<ellipse fill="red" stroke="black" cx="1286.24" cy="-105" rx="109.38" ry="18"/>
<text text-anchor="middle" x="1286.24" y="-101.3" font-family="Times,serif" font-size="14.00">rwrp/func_80188DF0</text>
</a>
</g>
</g>
<!-- rwrp/func_80188DF0&#45;&gt;rwrp/func_8018E290 -->
<g id="edge6" class="edge">
<title>rwrp/func_80188DF0&#45;&gt;rwrp/func_8018E290</title>
<path fill="none" stroke="black" d="M1363.28,-92.22C1376.9,-90.33 1390.98,-88.51 1404.24,-87 1701.67,-53.24 2054.06,-33.01 2230.95,-24.21"/>
<polygon fill="black" stroke="black" points="2231.24,-27.7 2241.06,-23.71 2230.9,-20.7 2231.24,-27.7"/>
<text text-anchor="middle" x="1745.24" y="-57.8" font-family="Times,serif" font-size="14.00">1</text>
</g>
<!-- rwrp/func_80188ED0 -->
<g id="node8" class="node">
<title>rwrp/func_80188ED0</title>
<g id="a_node8"><a xlink:href="func_80188ED0.svg" xlink:title="rwrp/func_80188ED0">
<ellipse fill="red" stroke="black" cx="1523.24" cy="-105" rx="109.68" ry="18"/>
<text text-anchor="middle" x="1523.24" y="-101.3" font-family="Times,serif" font-size="14.00">rwrp/func_80188ED0</text>
</a>
</g>
</g>
<!-- rwrp/func_80188ED0&#45;&gt;rwrp/func_8018E290 -->
<g id="edge7" class="edge">
<title>rwrp/func_80188ED0&#45;&gt;rwrp/func_8018E290</title>
<path fill="none" stroke="black" d="M1601.24,-92.24C1614.57,-90.38 1628.29,-88.56 1641.24,-87 1852.94,-61.53 2101.42,-39.28 2239.02,-27.64"/>
<polygon fill="black" stroke="black" points="2239.47,-31.11 2249.14,-26.78 2238.88,-24.14 2239.47,-31.11"/>
<text text-anchor="middle" x="1936.24" y="-57.8" font-family="Times,serif" font-size="14.00">1</text>
</g>
<!-- rwrp/func_8018C948 -->
<g id="node9" class="node">
<title>rwrp/func_8018C948</title>
<g id="a_node9"><a xlink:href="func_8018C948.svg" xlink:title="rwrp/func_8018C948">
<ellipse fill="red" stroke="black" cx="1759.24" cy="-105" rx="108.58" ry="18"/>
<text text-anchor="middle" x="1759.24" y="-101.3" font-family="Times,serif" font-size="14.00">rwrp/func_8018C948</text>
</a>
</g>
</g>
<!-- rwrp/func_8018C948&#45;&gt;rwrp/func_8018E290 -->
<g id="edge8" class="edge">
<title>rwrp/func_8018C948&#45;&gt;rwrp/func_8018E290</title>
<path fill="none" stroke="black" d="M1837.83,-92.58C1946.42,-76.8 2141.79,-48.42 2255.5,-31.89"/>
<polygon fill="black" stroke="black" points="2256.18,-35.33 2265.57,-30.43 2255.17,-28.4 2256.18,-35.33"/>
<text text-anchor="middle" x="2092.24" y="-57.8" font-family="Times,serif" font-size="14.00">1</text>
</g>
<!-- rwrp/func_80190E44 -->
<g id="node10" class="node">
<title>rwrp/func_80190E44</title>
<g id="a_node10"><a xlink:href="func_80190E44.svg" xlink:title="rwrp/func_80190E44">
<ellipse fill="red" stroke="black" cx="1994.24" cy="-105" rx="108.58" ry="18"/>
<text text-anchor="middle" x="1994.24" y="-101.3" font-family="Times,serif" font-size="14.00">rwrp/func_80190E44</text>
</a>
</g>
</g>
<!-- rwrp/func_80190E44&#45;&gt;rwrp/func_8018E290 -->
<g id="edge9" class="edge">
<title>rwrp/func_80190E44&#45;&gt;rwrp/func_8018E290</title>
<path fill="none" stroke="black" d="M2052.82,-89.77C2114.37,-74.83 2211.07,-51.34 2276.02,-35.57"/>
<polygon fill="black" stroke="black" points="2276.87,-38.96 2285.76,-33.2 2275.22,-32.16 2276.87,-38.96"/>
<text text-anchor="middle" x="2195.24" y="-57.8" font-family="Times,serif" font-size="14.00">1</text>
</g>
<!-- rwrp/func_80192594 -->
<g id="node11" class="node">
<title>rwrp/func_80192594</title>
<g id="a_node11"><a xlink:href="func_80192594.svg" xlink:title="rwrp/func_80192594">
<ellipse fill="red" stroke="black" cx="2228.24" cy="-105" rx="107.48" ry="18"/>
<text text-anchor="middle" x="2228.24" y="-101.3" font-family="Times,serif" font-size="14.00">rwrp/func_80192594</text>
</a>
</g>
</g>
<!-- rwrp/func_80192594&#45;&gt;rwrp/func_8018E290 -->
<g id="edge10" class="edge">
<title>rwrp/func_80192594&#45;&gt;rwrp/func_8018E290</title>
<path fill="none" stroke="black" d="M2251.16,-87.21C2268.87,-74.23 2293.58,-56.12 2313.09,-41.83"/>
<polygon fill="black" stroke="black" points="2315.37,-44.49 2321.37,-35.76 2311.24,-38.85 2315.37,-44.49"/>
<text text-anchor="middle" x="2298.24" y="-57.8" font-family="Times,serif" font-size="14.00">1</text>
</g>
<!-- rwrp/func_80194924 -->
<g id="node12" class="node">
<title>rwrp/func_80194924</title>
<g id="a_node12"><a xlink:href="func_80194924.svg" xlink:title="rwrp/func_80194924">
<ellipse fill="red" stroke="black" cx="2460.24" cy="-105" rx="107.48" ry="18"/>
<text text-anchor="middle" x="2460.24" y="-101.3" font-family="Times,serif" font-size="14.00">rwrp/func_80194924</text>
</a>
</g>
</g>
<!-- rwrp/func_80194924&#45;&gt;rwrp/func_8018E290 -->
<g id="edge11" class="edge">
<title>rwrp/func_80194924&#45;&gt;rwrp/func_8018E290</title>
<path fill="none" stroke="black" d="M2437.32,-87.21C2419.61,-74.23 2394.9,-56.12 2375.39,-41.83"/>
<polygon fill="black" stroke="black" points="2377.25,-38.85 2367.11,-35.76 2373.11,-44.49 2377.25,-38.85"/>
<text text-anchor="middle" x="2414.24" y="-57.8" font-family="Times,serif" font-size="14.00">1</text>
</g>
<!-- rwrp/func_80191490 -->
<g id="node13" class="node">
<title>rwrp/func_80191490</title>
<g id="a_node13"><a xlink:href="func_80191490.svg" xlink:title="rwrp/func_80191490">
<ellipse fill="red" stroke="black" cx="2692.24" cy="-105" rx="107.48" ry="18"/>
<text text-anchor="middle" x="2692.24" y="-101.3" font-family="Times,serif" font-size="14.00">rwrp/func_80191490</text>
</a>
</g>
</g>
<!-- rwrp/func_80191490&#45;&gt;rwrp/func_8018E290 -->
<g id="edge12" class="edge">
<title>rwrp/func_80191490&#45;&gt;rwrp/func_8018E290</title>
<path fill="none" stroke="black" d="M2633.99,-89.77C2572.92,-74.86 2477.04,-51.44 2412.47,-35.67"/>
<polygon fill="black" stroke="black" points="2412.93,-32.18 2402.39,-33.2 2411.27,-38.98 2412.93,-32.18"/>
<text text-anchor="middle" x="2544.24" y="-57.8" font-family="Times,serif" font-size="14.00">1</text>
</g>
<!-- rwrp/func_80189E9C -->
<g id="node14" class="node">
<title>rwrp/func_80189E9C</title>
<g id="a_node14"><a xlink:href="func_80189E9C.svg" xlink:title="rwrp/func_80189E9C">
<ellipse fill="red" stroke="black" cx="2926.24" cy="-105" rx="109.38" ry="18"/>
<text text-anchor="middle" x="2926.24" y="-101.3" font-family="Times,serif" font-size="14.00">rwrp/func_80189E9C</text>
</a>
</g>
</g>
<!-- rwrp/func_80189E9C&#45;&gt;rwrp/func_8018E290 -->
<g id="edge13" class="edge">
<title>rwrp/func_80189E9C&#45;&gt;rwrp/func_8018E290</title>
<path fill="none" stroke="black" d="M2847.45,-92.49C2739.38,-76.71 2545.75,-48.43 2432.79,-31.93"/>
<polygon fill="black" stroke="black" points="2433.19,-28.45 2422.79,-30.47 2432.18,-35.38 2433.19,-28.45"/>
<text text-anchor="middle" x="2675.24" y="-57.8" font-family="Times,serif" font-size="14.00">1</text>
</g>
<!-- rwrp/func_80192348 -->
<g id="node15" class="node">
<title>rwrp/func_80192348</title>
<g id="a_node15"><a xlink:href="func_80192348.svg" xlink:title="rwrp/func_80192348">
<ellipse fill="red" stroke="black" cx="3160.24" cy="-105" rx="107.48" ry="18"/>
<text text-anchor="middle" x="3160.24" y="-101.3" font-family="Times,serif" font-size="14.00">rwrp/func_80192348</text>
</a>
</g>
</g>
<!-- rwrp/func_80192348&#45;&gt;rwrp/func_8018E290 -->
<g id="edge14" class="edge">
<title>rwrp/func_80192348&#45;&gt;rwrp/func_8018E290</title>
<path fill="none" stroke="black" d="M3083.87,-92.27C3070.67,-90.4 3057.07,-88.56 3044.24,-87 2833.62,-61.35 2586.39,-39.19 2449.31,-27.6"/>
<polygon fill="black" stroke="black" points="2449.48,-24.1 2439.22,-26.75 2448.89,-31.08 2449.48,-24.1"/>
<text text-anchor="middle" x="2877.24" y="-57.8" font-family="Times,serif" font-size="14.00">1</text>
</g>
<!-- rwrp/func_8019390C -->
<g id="node16" class="node">
<title>rwrp/func_8019390C</title>
<g id="a_node16"><a xlink:href="func_8019390C.svg" xlink:title="rwrp/func_8019390C">
<ellipse fill="red" stroke="black" cx="3394.24" cy="-105" rx="108.58" ry="18"/>
<text text-anchor="middle" x="3394.24" y="-101.3" font-family="Times,serif" font-size="14.00">rwrp/func_8019390C</text>
</a>
</g>
</g>
<!-- rwrp/func_8019390C&#45;&gt;rwrp/func_8018E290 -->
<g id="edge15" class="edge">
<title>rwrp/func_8019390C&#45;&gt;rwrp/func_8018E290</title>
<path fill="none" stroke="black" d="M3317.2,-92.24C3303.57,-90.35 3289.5,-88.52 3276.24,-87 2981.75,-53.36 2632.89,-33.1 2457.27,-24.26"/>
<polygon fill="black" stroke="black" points="2457.4,-20.76 2447.24,-23.76 2457.05,-27.75 2457.4,-20.76"/>
<text text-anchor="middle" x="3104.24" y="-57.8" font-family="Times,serif" font-size="14.00">1</text>
</g>
<!-- rwrp/func_8018B6B4 -->
<g id="node17" class="node">
<title>rwrp/func_8018B6B4</title>
<g id="a_node17"><a xlink:href="func_8018B6B4.svg" xlink:title="rwrp/func_8018B6B4">
<ellipse fill="red" stroke="black" cx="3630.24" cy="-105" rx="109.38" ry="18"/>
<text text-anchor="middle" x="3630.24" y="-101.3" font-family="Times,serif" font-size="14.00">rwrp/func_8018B6B4</text>
</a>
</g>
</g>
<!-- rwrp/func_8018B6B4&#45;&gt;rwrp/func_8018E290 -->
<g id="edge16" class="edge">
<title>rwrp/func_8018B6B4&#45;&gt;rwrp/func_8018E290</title>
<path fill="none" stroke="black" d="M3553.21,-92.22C3539.58,-90.33 3525.51,-88.5 3512.24,-87 3129.23,-43.61 2672.25,-27.18 2461.42,-21.59"/>
<polygon fill="black" stroke="black" points="2461.35,-18.08 2451.26,-21.32 2461.17,-25.08 2461.35,-18.08"/>
<text text-anchor="middle" x="3327.24" y="-57.8" font-family="Times,serif" font-size="14.00">1</text>
</g>
<!-- rwrp/func_8018F814 -->
<g id="node18" class="node">
<title>rwrp/func_8018F814</title>
<g id="a_node18"><a xlink:href="func_8018F814.svg" xlink:title="rwrp/func_8018F814">
<ellipse fill="red" stroke="black" cx="3865.24" cy="-105" rx="107.78" ry="18"/>
<text text-anchor="middle" x="3865.24" y="-101.3" font-family="Times,serif" font-size="14.00">rwrp/func_8018F814</text>
</a>
</g>
</g>
<!-- rwrp/func_8018F814&#45;&gt;rwrp/func_8018E290 -->
<g id="edge17" class="edge">
<title>rwrp/func_8018F814&#45;&gt;rwrp/func_8018E290</title>
<path fill="none" stroke="black" d="M3789.18,-92.22C3775.57,-90.32 3761.5,-88.49 3748.24,-87 3565.7,-66.45 3519.63,-64.57 3336.24,-54 3020.12,-35.77 2646.75,-25.68 2461.16,-21.43"/>
<polygon fill="black" stroke="black" points="2461.19,-17.93 2451.11,-21.21 2461.03,-24.93 2461.19,-17.93"/>
<text text-anchor="middle" x="3575.24" y="-57.8" font-family="Times,serif" font-size="14.00">1</text>
</g>
<!-- rwrp/func_801891C0 -->
<g id="node19" class="node">
<title>rwrp/func_801891C0</title>
<g id="a_node19"><a xlink:href="func_801891C0.svg" xlink:title="rwrp/func_801891C0">
<ellipse fill="red" stroke="black" cx="4099.24" cy="-105" rx="108.58" ry="18"/>
<text text-anchor="middle" x="4099.24" y="-101.3" font-family="Times,serif" font-size="14.00">rwrp/func_801891C0</text>
</a>
</g>
</g>
<!-- rwrp/func_801891C0&#45;&gt;rwrp/func_8018E290 -->
<g id="edge18" class="edge">
<title>rwrp/func_801891C0&#45;&gt;rwrp/func_8018E290</title>
<path fill="none" stroke="black" d="M4022.55,-92.17C4009.13,-90.29 3995.29,-88.49 3982.24,-87 3805.89,-66.9 3761.46,-63.84 3584.24,-54 3172.54,-31.14 2683.07,-22.9 2462.44,-20.19"/>
<polygon fill="black" stroke="black" points="2462.18,-16.69 2452.13,-20.07 2462.09,-23.69 2462.18,-16.69"/>
<text text-anchor="middle" x="3815.24" y="-57.8" font-family="Times,serif" font-size="14.00">1</text>
</g>
<!-- rwrp/func_8018908C -->
<g id="node20" class="node">
<title>rwrp/func_8018908C</title>
<g id="a_node20"><a xlink:href="func_8018908C.svg" xlink:title="rwrp/func_8018908C">
<ellipse fill="red" stroke="black" cx="4334.24" cy="-105" rx="108.58" ry="18"/>
<text text-anchor="middle" x="4334.24" y="-101.3" font-family="Times,serif" font-size="14.00">rwrp/func_8018908C</text>
</a>
</g>
</g>
<!-- rwrp/func_8018908C&#45;&gt;rwrp/func_8018E290 -->
<g id="edge19" class="edge">
<title>rwrp/func_8018908C&#45;&gt;rwrp/func_8018E290</title>
<path fill="none" stroke="black" d="M4257.55,-92.18C4244.13,-90.3 4230.29,-88.49 4217.24,-87 4043.1,-67.06 3999.27,-63.41 3824.24,-54 3318.28,-26.8 2713.9,-20.74 2462.73,-19.39"/>
<polygon fill="black" stroke="black" points="2462.51,-15.89 2452.49,-19.33 2462.47,-22.88 2462.51,-15.89"/>
<text text-anchor="middle" x="4052.24" y="-57.8" font-family="Times,serif" font-size="14.00">1</text>
</g>
<!-- rwrp/func_8018EFA0 -->
<g id="node21" class="node">
<title>rwrp/func_8018EFA0</title>
<g id="a_node21"><a xlink:href="func_8018EFA0.svg" xlink:title="rwrp/func_8018EFA0">
<ellipse fill="red" stroke="black" cx="4569.24" cy="-105" rx="108.58" ry="18"/>
<text text-anchor="middle" x="4569.24" y="-101.3" font-family="Times,serif" font-size="14.00">rwrp/func_8018EFA0</text>
</a>
</g>
</g>
<!-- rwrp/func_8018EFA0&#45;&gt;rwrp/func_8018E290 -->
<g id="edge20" class="edge">
<title>rwrp/func_8018EFA0&#45;&gt;rwrp/func_8018E290</title>
<path fill="none" stroke="black" d="M4492.55,-92.18C4479.13,-90.31 4465.29,-88.5 4452.24,-87 4278.98,-67.12 4235.4,-63.12 4061.24,-54 3461.26,-22.6 2741.97,-18.95 2462.95,-18.81"/>
<polygon fill="black" stroke="black" points="2462.81,-15.31 2452.81,-18.81 2462.8,-22.31 2462.81,-15.31"/>
<text text-anchor="middle" x="4288.24" y="-57.8" font-family="Times,serif" font-size="14.00">1</text>
</g>
</g>
</svg>
