<?xml version="1.0" encoding="UTF-8" standalone="no"?>
<!DOCTYPE svg PUBLIC "-//W3C//DTD SVG 1.1//EN"
 "http://www.w3.org/Graphics/SVG/1.1/DTD/svg11.dtd">
<!-- Generated by graphviz version 2.43.0 (0)
 -->
<!-- Title: func_8019390C Pages: 1 -->
<svg width="1305pt" height="131pt"
 viewBox="0.00 0.00 1304.93 131.00" xmlns="http://www.w3.org/2000/svg" xmlns:xlink="http://www.w3.org/1999/xlink">
<g id="graph0" class="graph" transform="scale(1 1) rotate(0) translate(4 127)">
<title>func_8019390C</title>
<polygon fill="white" stroke="transparent" points="-4,4 -4,-127 1300.93,-127 1300.93,4 -4,4"/>
<!-- rwrp/func_8019390C -->
<g id="node1" class="node">
<title>rwrp/func_8019390C</title>
<ellipse fill="red" stroke="black" cx="697.54" cy="-105" rx="108.58" ry="18"/>
<text text-anchor="middle" x="697.54" y="-101.3" font-family="Times,serif" font-size="14.00">rwrp/func_8019390C</text>
</g>
<!-- rwrp/func_8018E290 -->
<g id="node2" class="node">
<title>rwrp/func_8018E290</title>
<g id="a_node2"><a xlink:href="func_8018E290.svg" xlink:title="rwrp/func_8018E290">
<ellipse fill="red" stroke="black" cx="108.54" cy="-18" rx="108.58" ry="18"/>
<text text-anchor="middle" x="108.54" y="-14.3" font-family="Times,serif" font-size="14.00">rwrp/func_8018E290</text>
</a>
</g>
</g>
<!-- rwrp/func_8019390C&#45;&gt;rwrp/func_8018E290 -->
<g id="edge1" class="edge">
<title>rwrp/func_8019390C&#45;&gt;rwrp/func_8018E290</title>
<path fill="none" stroke="black" d="M618.72,-92.62C509.33,-76.84 312.05,-48.37 197.51,-31.84"/>
<polygon fill="black" stroke="black" points="197.76,-28.34 187.37,-30.38 196.76,-35.27 197.76,-28.34"/>
<text text-anchor="middle" x="443.54" y="-57.8" font-family="Times,serif" font-size="14.00">1</text>
</g>
<!-- rwrp/g_api_AllocPrimitives -->
<g id="node3" class="node">
<title>rwrp/g_api_AllocPrimitives</title>
<g id="a_node3"><a xlink:href="g_api_AllocPrimitives.svg" xlink:title="rwrp/g_api_AllocPrimitives">
<ellipse fill="lightblue" stroke="black" cx="370.54" cy="-18" rx="135.38" ry="18"/>
<text text-anchor="middle" x="370.54" y="-14.3" font-family="Times,serif" font-size="14.00">rwrp/g_api_AllocPrimitives</text>
</a>
</g>
</g>
<!-- rwrp/func_8019390C&#45;&gt;rwrp/g_api_AllocPrimitives -->
<g id="edge2" class="edge">
<title>rwrp/func_8019390C&#45;&gt;rwrp/g_api_AllocPrimitives</title>
<path fill="none" stroke="black" d="M641.7,-89.48C585.63,-74.91 499.15,-52.43 438.98,-36.79"/>
<polygon fill="black" stroke="black" points="439.75,-33.37 429.19,-34.24 437.98,-40.15 439.75,-33.37"/>
<text text-anchor="middle" x="559.54" y="-57.8" font-family="Times,serif" font-size="14.00">1</text>
</g>
<!-- rwrp/Random -->
<g id="node4" class="node">
<title>rwrp/Random</title>
<g id="a_node4"><a xlink:href="Random.svg" xlink:title="rwrp/Random">
<ellipse fill="green" stroke="black" cx="597.54" cy="-18" rx="74.19" ry="18"/>
<text text-anchor="middle" x="597.54" y="-14.3" font-family="Times,serif" font-size="14.00">rwrp/Random</text>
</a>
</g>
</g>
<!-- rwrp/func_8019390C&#45;&gt;rwrp/Random -->
<g id="edge3" class="edge">
<title>rwrp/func_8019390C&#45;&gt;rwrp/Random</title>
<path fill="none" stroke="black" d="M677.78,-87.21C662.62,-74.32 641.51,-56.38 624.75,-42.13"/>
<polygon fill="black" stroke="black" points="626.8,-39.28 616.92,-35.47 622.27,-44.61 626.8,-39.28"/>
<text text-anchor="middle" x="658.54" y="-57.8" font-family="Times,serif" font-size="14.00">4</text>
</g>
<!-- rwrp/func_8019373C -->
<g id="node5" class="node">
<title>rwrp/func_8019373C</title>
<g id="a_node5"><a xlink:href="func_8019373C.svg" xlink:title="rwrp/func_8019373C">
<ellipse fill="red" stroke="black" cx="798.54" cy="-18" rx="108.58" ry="18"/>
<text text-anchor="middle" x="798.54" y="-14.3" font-family="Times,serif" font-size="14.00">rwrp/func_8019373C</text>
</a>
</g>
</g>
<!-- rwrp/func_8019390C&#45;&gt;rwrp/func_8019373C -->
<g id="edge4" class="edge">
<title>rwrp/func_8019390C&#45;&gt;rwrp/func_8019373C</title>
<path fill="none" stroke="black" d="M717.49,-87.21C732.71,-74.4 753.85,-56.61 770.73,-42.4"/>
<polygon fill="black" stroke="black" points="773.23,-44.88 778.63,-35.76 768.72,-39.52 773.23,-44.88"/>
<text text-anchor="middle" x="759.54" y="-57.8" font-family="Times,serif" font-size="14.00">2</text>
</g>
<!-- rwrp/DestroyEntity -->
<g id="node6" class="node">
<title>rwrp/DestroyEntity</title>
<g id="a_node6"><a xlink:href="DestroyEntity.svg" xlink:title="rwrp/DestroyEntity">
<ellipse fill="green" stroke="black" cx="1026.54" cy="-18" rx="101.28" ry="18"/>
<text text-anchor="middle" x="1026.54" y="-14.3" font-family="Times,serif" font-size="14.00">rwrp/DestroyEntity</text>
</a>
</g>
</g>
<!-- rwrp/func_8019390C&#45;&gt;rwrp/DestroyEntity -->
<g id="edge5" class="edge">
<title>rwrp/func_8019390C&#45;&gt;rwrp/DestroyEntity</title>
<path fill="none" stroke="black" d="M753.72,-89.48C811.44,-74.57 901.19,-51.39 961.84,-35.72"/>
<polygon fill="black" stroke="black" points="962.88,-39.06 971.68,-33.17 961.13,-32.29 962.88,-39.06"/>
<text text-anchor="middle" x="887.54" y="-57.8" font-family="Times,serif" font-size="14.00">1</text>
</g>
<!-- rwrp/FntPrint -->
<g id="node7" class="node">
<title>rwrp/FntPrint</title>
<g id="a_node7"><a xlink:href="FntPrint.svg" xlink:title="rwrp/FntPrint">
<ellipse fill="lightblue" stroke="black" cx="1221.54" cy="-18" rx="75.29" ry="18"/>
<text text-anchor="middle" x="1221.54" y="-14.3" font-family="Times,serif" font-size="14.00">rwrp/FntPrint</text>
</a>
</g>
</g>
<!-- rwrp/func_8019390C&#45;&gt;rwrp/FntPrint -->
<g id="edge6" class="edge">
<title>rwrp/func_8019390C&#45;&gt;rwrp/FntPrint</title>
<path fill="none" stroke="black" d="M777.42,-92.7C865.53,-79.98 1011.43,-58.19 1136.54,-36 1142.86,-34.88 1149.44,-33.66 1156,-32.41"/>
<polygon fill="black" stroke="black" points="1157.13,-35.75 1166.28,-30.42 1155.8,-28.88 1157.13,-35.75"/>
<text text-anchor="middle" x="1033.54" y="-57.8" font-family="Times,serif" font-size="14.00">2</text>
</g>
</g>
</svg>
