<?xml version="1.0" encoding="UTF-8" standalone="no"?>
<!DOCTYPE svg PUBLIC "-//W3C//DTD SVG 1.1//EN"
 "http://www.w3.org/Graphics/SVG/1.1/DTD/svg11.dtd">
<!-- Generated by graphviz version 2.43.0 (0)
 -->
<!-- Title: func_800F99B8 Pages: 1 -->
<svg width="1101pt" height="218pt"
 viewBox="0.00 0.00 1100.73 218.00" xmlns="http://www.w3.org/2000/svg" xmlns:xlink="http://www.w3.org/1999/xlink">
<g id="graph0" class="graph" transform="scale(1 1) rotate(0) translate(4 214)">
<title>func_800F99B8</title>
<polygon fill="white" stroke="transparent" points="-4,4 -4,-214 1096.73,-214 1096.73,4 -4,4"/>
<!-- dra/func_800F99B8 -->
<g id="node1" class="node">
<title>dra/func_800F99B8</title>
<ellipse fill="red" stroke="black" cx="544.04" cy="-105" rx="102.08" ry="18"/>
<text text-anchor="middle" x="544.04" y="-101.3" font-family="Times,serif" font-size="14.00">dra/func_800F99B8</text>
</g>
<!-- dra/func_800F548C -->
<g id="node2" class="node">
<title>dra/func_800F548C</title>
<g id="a_node2"><a xlink:href="func_800F548C.svg" xlink:title="dra/func_800F548C">
<ellipse fill="green" stroke="black" cx="323.04" cy="-18" rx="102.08" ry="18"/>
<text text-anchor="middle" x="323.04" y="-14.3" font-family="Times,serif" font-size="14.00">dra/func_800F548C</text>
</a>
</g>
</g>
<!-- dra/func_800F99B8&#45;&gt;dra/func_800F548C -->
<g id="edge1" class="edge">
<title>dra/func_800F99B8&#45;&gt;dra/func_800F548C</title>
<path fill="none" stroke="black" d="M503.51,-88.41C466.86,-74.32 412.78,-53.51 373.37,-38.36"/>
<polygon fill="black" stroke="black" points="374.28,-34.96 363.69,-34.64 371.77,-41.49 374.28,-34.96"/>
<text text-anchor="middle" x="452.04" y="-57.8" font-family="Times,serif" font-size="14.00">1</text>
</g>
<!-- dra/func_80106A28 -->
<g id="node3" class="node">
<title>dra/func_80106A28</title>
<g id="a_node3"><a xlink:href="func_80106A28.svg" xlink:title="dra/func_80106A28">
<ellipse fill="red" stroke="black" cx="544.04" cy="-18" rx="100.98" ry="18"/>
<text text-anchor="middle" x="544.04" y="-14.3" font-family="Times,serif" font-size="14.00">dra/func_80106A28</text>
</a>
</g>
</g>
<!-- dra/func_800F99B8&#45;&gt;dra/func_80106A28 -->
<g id="edge2" class="edge">
<title>dra/func_800F99B8&#45;&gt;dra/func_80106A28</title>
<path fill="none" stroke="black" d="M544.04,-86.8C544.04,-75.16 544.04,-59.55 544.04,-46.24"/>
<polygon fill="black" stroke="black" points="547.54,-46.18 544.04,-36.18 540.54,-46.18 547.54,-46.18"/>
<text text-anchor="middle" x="549.04" y="-57.8" font-family="Times,serif" font-size="14.00">1</text>
</g>
<!-- dra/LoadTPage -->
<g id="node4" class="node">
<title>dra/LoadTPage</title>
<g id="a_node4"><a xlink:href="LoadTPage.svg" xlink:title="dra/LoadTPage">
<ellipse fill="lightblue" stroke="black" cx="743.04" cy="-18" rx="79.89" ry="18"/>
<text text-anchor="middle" x="743.04" y="-14.3" font-family="Times,serif" font-size="14.00">dra/LoadTPage</text>
</a>
</g>
</g>
<!-- dra/func_800F99B8&#45;&gt;dra/LoadTPage -->
<g id="edge3" class="edge">
<title>dra/func_800F99B8&#45;&gt;dra/LoadTPage</title>
<path fill="none" stroke="black" d="M581,-88.21C613.98,-74.12 662.38,-53.45 697.69,-38.37"/>
<polygon fill="black" stroke="black" points="699.46,-41.42 707.28,-34.27 696.71,-34.98 699.46,-41.42"/>
<text text-anchor="middle" x="661.04" y="-57.8" font-family="Times,serif" font-size="14.00">1</text>
</g>
<!-- dra/func_800FAD34 -->
<g id="node5" class="node">
<title>dra/func_800FAD34</title>
<g id="a_node5"><a xlink:href="func_800FAD34.svg" xlink:title="dra/func_800FAD34">
<ellipse fill="green" stroke="black" cx="102.04" cy="-192" rx="102.08" ry="18"/>
<text text-anchor="middle" x="102.04" y="-188.3" font-family="Times,serif" font-size="14.00">dra/func_800FAD34</text>
</a>
</g>
</g>
<!-- dra/func_800FAD34&#45;&gt;dra/func_800F99B8 -->
<g id="edge4" class="edge">
<title>dra/func_800FAD34&#45;&gt;dra/func_800F99B8</title>
<path fill="none" stroke="black" d="M168.21,-178.27C248.4,-162.85 383.24,-136.92 467.73,-120.67"/>
<polygon fill="black" stroke="black" points="468.62,-124.07 477.78,-118.74 467.3,-117.19 468.62,-124.07"/>
<text text-anchor="middle" x="355.04" y="-144.8" font-family="Times,serif" font-size="14.00">1</text>
</g>
<!-- dra/func_800F9F40 -->
<g id="node6" class="node">
<title>dra/func_800F9F40</title>
<g id="a_node6"><a xlink:href="func_800F9F40.svg" xlink:title="dra/func_800F9F40">
<ellipse fill="red" stroke="black" cx="323.04" cy="-192" rx="101.28" ry="18"/>
<text text-anchor="middle" x="323.04" y="-188.3" font-family="Times,serif" font-size="14.00">dra/func_800F9F40</text>
</a>
</g>
</g>
<!-- dra/func_800F9F40&#45;&gt;dra/func_800F99B8 -->
<g id="edge5" class="edge">
<title>dra/func_800F9F40&#45;&gt;dra/func_800F99B8</title>
<path fill="none" stroke="black" d="M363.58,-175.41C400.22,-161.32 454.31,-140.51 493.71,-125.36"/>
<polygon fill="black" stroke="black" points="495.31,-128.49 503.39,-121.64 492.8,-121.96 495.31,-128.49"/>
<text text-anchor="middle" x="452.04" y="-144.8" font-family="Times,serif" font-size="14.00">1</text>
</g>
<!-- dra/func_800F9E18 -->
<g id="node7" class="node">
<title>dra/func_800F9E18</title>
<g id="a_node7"><a xlink:href="func_800F9E18.svg" xlink:title="dra/func_800F9E18">
<ellipse fill="red" stroke="black" cx="544.04" cy="-192" rx="102.08" ry="18"/>
<text text-anchor="middle" x="544.04" y="-188.3" font-family="Times,serif" font-size="14.00">dra/func_800F9E18</text>
</a>
</g>
</g>
<!-- dra/func_800F9E18&#45;&gt;dra/func_800F99B8 -->
<g id="edge6" class="edge">
<title>dra/func_800F9E18&#45;&gt;dra/func_800F99B8</title>
<path fill="none" stroke="black" d="M544.04,-173.8C544.04,-162.16 544.04,-146.55 544.04,-133.24"/>
<polygon fill="black" stroke="black" points="547.54,-133.18 544.04,-123.18 540.54,-133.18 547.54,-133.18"/>
<text text-anchor="middle" x="549.04" y="-144.8" font-family="Times,serif" font-size="14.00">2</text>
</g>
<!-- dra/func_800F9D88 -->
<g id="node8" class="node">
<title>dra/func_800F9D88</title>
<g id="a_node8"><a xlink:href="func_800F9D88.svg" xlink:title="dra/func_800F9D88">
<ellipse fill="green" stroke="black" cx="767.04" cy="-192" rx="102.88" ry="18"/>
<text text-anchor="middle" x="767.04" y="-188.3" font-family="Times,serif" font-size="14.00">dra/func_800F9D88</text>
</a>
</g>
</g>
<!-- dra/func_800F9D88&#45;&gt;dra/func_800F99B8 -->
<g id="edge7" class="edge">
<title>dra/func_800F9D88&#45;&gt;dra/func_800F99B8</title>
<path fill="none" stroke="black" d="M726.14,-175.41C689.08,-161.29 634.36,-140.43 594.58,-125.26"/>
<polygon fill="black" stroke="black" points="595.65,-121.93 585.06,-121.64 593.16,-128.47 595.65,-121.93"/>
<text text-anchor="middle" x="674.04" y="-144.8" font-family="Times,serif" font-size="14.00">1</text>
</g>
<!-- dra/func_800FBC24 -->
<g id="node9" class="node">
<title>dra/func_800FBC24</title>
<g id="a_node9"><a xlink:href="func_800FBC24.svg" xlink:title="dra/func_800FBC24">
<ellipse fill="red" stroke="black" cx="990.04" cy="-192" rx="102.88" ry="18"/>
<text text-anchor="middle" x="990.04" y="-188.3" font-family="Times,serif" font-size="14.00">dra/func_800FBC24</text>
</a>
</g>
</g>
<!-- dra/func_800FBC24&#45;&gt;dra/func_800F99B8 -->
<g id="edge8" class="edge">
<title>dra/func_800FBC24&#45;&gt;dra/func_800F99B8</title>
<path fill="none" stroke="black" d="M923.27,-178.27C842.16,-162.82 705.63,-136.8 620.41,-120.56"/>
<polygon fill="black" stroke="black" points="621.02,-117.11 610.54,-118.67 619.71,-123.98 621.02,-117.11"/>
<text text-anchor="middle" x="799.04" y="-144.8" font-family="Times,serif" font-size="14.00">6</text>
</g>
</g>
</svg>
