<?xml version="1.0" encoding="UTF-8" standalone="no"?>
<!DOCTYPE svg PUBLIC "-//W3C//DTD SVG 1.1//EN"
 "http://www.w3.org/Graphics/SVG/1.1/DTD/svg11.dtd">
<!-- Generated by graphviz version 2.43.0 (0)
 -->
<!-- Title: func_801710E8 Pages: 1 -->
<svg width="735pt" height="131pt"
 viewBox="0.00 0.00 735.08 131.00" xmlns="http://www.w3.org/2000/svg" xmlns:xlink="http://www.w3.org/1999/xlink">
<g id="graph0" class="graph" transform="scale(1 1) rotate(0) translate(4 127)">
<title>func_801710E8</title>
<polygon fill="white" stroke="transparent" points="-4,4 -4,-127 731.08,-127 731.08,4 -4,4"/>
<!-- tt_000/func_801710E8 -->
<g id="node1" class="node">
<title>tt_000/func_801710E8</title>
<ellipse fill="green" stroke="black" cx="362.39" cy="-18" rx="115.88" ry="18"/>
<text text-anchor="middle" x="362.39" y="-14.3" font-family="Times,serif" font-size="14.00">tt_000/func_801710E8</text>
</g>
<!-- tt_000/func_80172120 -->
<g id="node2" class="node">
<title>tt_000/func_80172120</title>
<g id="a_node2"><a xlink:href="func_80172120.svg" xlink:title="tt_000/func_80172120">
<ellipse fill="red" stroke="black" cx="114.39" cy="-105" rx="114.28" ry="18"/>
<text text-anchor="middle" x="114.39" y="-101.3" font-family="Times,serif" font-size="14.00">tt_000/func_80172120</text>
</a>
</g>
</g>
<!-- tt_000/func_80172120&#45;&gt;tt_000/func_801710E8 -->
<g id="edge1" class="edge">
<title>tt_000/func_80172120&#45;&gt;tt_000/func_801710E8</title>
<path fill="none" stroke="black" d="M159.88,-88.41C201.43,-74.17 262.98,-53.07 307.31,-37.88"/>
<polygon fill="black" stroke="black" points="308.45,-41.19 316.77,-34.64 306.18,-34.57 308.45,-41.19"/>
<text text-anchor="middle" x="258.39" y="-57.8" font-family="Times,serif" font-size="14.00">4</text>
</g>
<!-- tt_000/func_801719E0 -->
<g id="node3" class="node">
<title>tt_000/func_801719E0</title>
<g id="a_node3"><a xlink:href="func_801719E0.svg" xlink:title="tt_000/func_801719E0">
<ellipse fill="green" stroke="black" cx="362.39" cy="-105" rx="115.88" ry="18"/>
<text text-anchor="middle" x="362.39" y="-101.3" font-family="Times,serif" font-size="14.00">tt_000/func_801719E0</text>
</a>
</g>
</g>
<!-- tt_000/func_801719E0&#45;&gt;tt_000/func_801710E8 -->
<g id="edge2" class="edge">
<title>tt_000/func_801719E0&#45;&gt;tt_000/func_801710E8</title>
<path fill="none" stroke="black" d="M362.39,-86.8C362.39,-75.16 362.39,-59.55 362.39,-46.24"/>
<polygon fill="black" stroke="black" points="365.89,-46.18 362.39,-36.18 358.89,-46.18 365.89,-46.18"/>
<text text-anchor="middle" x="367.39" y="-57.8" font-family="Times,serif" font-size="14.00">4</text>
</g>
<!-- tt_000/func_80172C30 -->
<g id="node4" class="node">
<title>tt_000/func_80172C30</title>
<g id="a_node4"><a xlink:href="func_80172C30.svg" xlink:title="tt_000/func_80172C30">
<ellipse fill="red" stroke="black" cx="611.39" cy="-105" rx="115.88" ry="18"/>
<text text-anchor="middle" x="611.39" y="-101.3" font-family="Times,serif" font-size="14.00">tt_000/func_80172C30</text>
</a>
</g>
</g>
<!-- tt_000/func_80172C30&#45;&gt;tt_000/func_801710E8 -->
<g id="edge3" class="edge">
<title>tt_000/func_80172C30&#45;&gt;tt_000/func_801710E8</title>
<path fill="none" stroke="black" d="M565.72,-88.41C523.99,-74.17 462.2,-53.07 417.69,-37.88"/>
<polygon fill="black" stroke="black" points="418.79,-34.55 408.19,-34.64 416.52,-41.18 418.79,-34.55"/>
<text text-anchor="middle" x="507.39" y="-57.8" font-family="Times,serif" font-size="14.00">3</text>
</g>
</g>
</svg>
