<?xml version="1.0" encoding="UTF-8" standalone="no"?>
<!DOCTYPE svg PUBLIC "-//W3C//DTD SVG 1.1//EN"
 "http://www.w3.org/Graphics/SVG/1.1/DTD/svg11.dtd">
<!-- Generated by graphviz version 2.43.0 (0)
 -->
<!-- Title: func_8011A9D8 Pages: 1 -->
<svg width="430pt" height="218pt"
 viewBox="0.00 0.00 430.13 218.00" xmlns="http://www.w3.org/2000/svg" xmlns:xlink="http://www.w3.org/1999/xlink">
<g id="graph0" class="graph" transform="scale(1 1) rotate(0) translate(4 214)">
<title>func_8011A9D8</title>
<polygon fill="white" stroke="transparent" points="-4,4 -4,-214 426.13,-214 426.13,4 -4,4"/>
<!-- dra/func_8011A9D8 -->
<g id="node1" class="node">
<title>dra/func_8011A9D8</title>
<ellipse fill="green" stroke="black" cx="204.89" cy="-105" rx="102.88" ry="18"/>
<text text-anchor="middle" x="204.89" y="-101.3" font-family="Times,serif" font-size="14.00">dra/func_8011A9D8</text>
</g>
<!-- dra/DestroyEntity -->
<g id="node2" class="node">
<title>dra/DestroyEntity</title>
<g id="a_node2"><a xlink:href="DestroyEntity.svg" xlink:title="dra/DestroyEntity">
<ellipse fill="green" stroke="black" cx="94.89" cy="-18" rx="94.78" ry="18"/>
<text text-anchor="middle" x="94.89" y="-14.3" font-family="Times,serif" font-size="14.00">dra/DestroyEntity</text>
</a>
</g>
</g>
<!-- dra/func_8011A9D8&#45;&gt;dra/DestroyEntity -->
<g id="edge1" class="edge">
<title>dra/func_8011A9D8&#45;&gt;dra/DestroyEntity</title>
<path fill="none" stroke="black" d="M183.16,-87.21C166.44,-74.28 143.14,-56.28 124.68,-42.02"/>
<polygon fill="black" stroke="black" points="126.63,-39.1 116.58,-35.76 122.35,-44.64 126.63,-39.1"/>
<text text-anchor="middle" x="161.89" y="-57.8" font-family="Times,serif" font-size="14.00">1</text>
</g>
<!-- dra/pfnEntityUpdate -->
<g id="node3" class="node">
<title>dra/pfnEntityUpdate</title>
<g id="a_node3"><a xlink:href="pfnEntityUpdate.svg" xlink:title="dra/pfnEntityUpdate">
<ellipse fill="lightblue" stroke="black" cx="314.89" cy="-18" rx="107.48" ry="18"/>
<text text-anchor="middle" x="314.89" y="-14.3" font-family="Times,serif" font-size="14.00">dra/pfnEntityUpdate</text>
</a>
</g>
</g>
<!-- dra/func_8011A9D8&#45;&gt;dra/pfnEntityUpdate -->
<g id="edge2" class="edge">
<title>dra/func_8011A9D8&#45;&gt;dra/pfnEntityUpdate</title>
<path fill="none" stroke="black" d="M226.62,-87.21C243.35,-74.28 266.64,-56.28 285.1,-42.02"/>
<polygon fill="black" stroke="black" points="287.43,-44.64 293.2,-35.76 283.15,-39.1 287.43,-44.64"/>
<text text-anchor="middle" x="270.89" y="-57.8" font-family="Times,serif" font-size="14.00">2</text>
</g>
<!-- dra/func_800F298C -->
<g id="node4" class="node">
<title>dra/func_800F298C</title>
<g id="a_node4"><a xlink:href="func_800F298C.svg" xlink:title="dra/func_800F298C">
<ellipse fill="red" stroke="black" cx="204.89" cy="-192" rx="102.08" ry="18"/>
<text text-anchor="middle" x="204.89" y="-188.3" font-family="Times,serif" font-size="14.00">dra/func_800F298C</text>
</a>
</g>
</g>
<!-- dra/func_800F298C&#45;&gt;dra/func_8011A9D8 -->
<g id="edge3" class="edge">
<title>dra/func_800F298C&#45;&gt;dra/func_8011A9D8</title>
<path fill="none" stroke="black" d="M204.89,-173.8C204.89,-162.16 204.89,-146.55 204.89,-133.24"/>
<polygon fill="black" stroke="black" points="208.39,-133.18 204.89,-123.18 201.39,-133.18 208.39,-133.18"/>
<text text-anchor="middle" x="209.89" y="-144.8" font-family="Times,serif" font-size="14.00">2</text>
</g>
</g>
</svg>
