<?xml version="1.0" encoding="UTF-8" standalone="no"?>
<!DOCTYPE svg PUBLIC "-//W3C//DTD SVG 1.1//EN"
 "http://www.w3.org/Graphics/SVG/1.1/DTD/svg11.dtd">
<!-- Generated by graphviz version 2.43.0 (0)
 -->
<!-- Title: func_801C16B4 Pages: 1 -->
<svg width="816pt" height="131pt"
 viewBox="0.00 0.00 815.98 131.00" xmlns="http://www.w3.org/2000/svg" xmlns:xlink="http://www.w3.org/1999/xlink">
<g id="graph0" class="graph" transform="scale(1 1) rotate(0) translate(4 127)">
<title>func_801C16B4</title>
<polygon fill="white" stroke="transparent" points="-4,4 -4,-127 811.98,-127 811.98,4 -4,4"/>
<!-- nz0/func_801C16B4 -->
<g id="node1" class="node">
<title>nz0/func_801C16B4</title>
<ellipse fill="green" stroke="black" cx="401.44" cy="-105" rx="103.18" ry="18"/>
<text text-anchor="middle" x="401.44" y="-101.3" font-family="Times,serif" font-size="14.00">nz0/func_801C16B4</text>
</g>
<!-- nz0/InitializeEntity -->
<g id="node2" class="node">
<title>nz0/InitializeEntity</title>
<g id="a_node2"><a xlink:href="InitializeEntity.svg" xlink:title="nz0/InitializeEntity">
<ellipse fill="green" stroke="black" cx="99.44" cy="-18" rx="99.38" ry="18"/>
<text text-anchor="middle" x="99.44" y="-14.3" font-family="Times,serif" font-size="14.00">nz0/InitializeEntity</text>
</a>
</g>
</g>
<!-- nz0/func_801C16B4&#45;&gt;nz0/InitializeEntity -->
<g id="edge1" class="edge">
<title>nz0/func_801C16B4&#45;&gt;nz0/InitializeEntity</title>
<path fill="none" stroke="black" d="M349.53,-89.39C297.1,-74.63 216.16,-51.85 160.64,-36.23"/>
<polygon fill="black" stroke="black" points="161.51,-32.83 150.93,-33.49 159.61,-39.57 161.51,-32.83"/>
<text text-anchor="middle" x="274.44" y="-57.8" font-family="Times,serif" font-size="14.00">1</text>
</g>
<!-- nz0/MoveEntity -->
<g id="node3" class="node">
<title>nz0/MoveEntity</title>
<g id="a_node3"><a xlink:href="MoveEntity.svg" xlink:title="nz0/MoveEntity">
<ellipse fill="green" stroke="black" cx="301.44" cy="-18" rx="84.49" ry="18"/>
<text text-anchor="middle" x="301.44" y="-14.3" font-family="Times,serif" font-size="14.00">nz0/MoveEntity</text>
</a>
</g>
</g>
<!-- nz0/func_801C16B4&#45;&gt;nz0/MoveEntity -->
<g id="edge2" class="edge">
<title>nz0/func_801C16B4&#45;&gt;nz0/MoveEntity</title>
<path fill="none" stroke="black" d="M381.68,-87.21C366.62,-74.4 345.68,-56.61 328.98,-42.4"/>
<polygon fill="black" stroke="black" points="331.04,-39.57 321.16,-35.76 326.51,-44.9 331.04,-39.57"/>
<text text-anchor="middle" x="362.44" y="-57.8" font-family="Times,serif" font-size="14.00">1</text>
</g>
<!-- nz0/AnimateEntity -->
<g id="node4" class="node">
<title>nz0/AnimateEntity</title>
<g id="a_node4"><a xlink:href="AnimateEntity.svg" xlink:title="nz0/AnimateEntity">
<ellipse fill="green" stroke="black" cx="501.44" cy="-18" rx="97.48" ry="18"/>
<text text-anchor="middle" x="501.44" y="-14.3" font-family="Times,serif" font-size="14.00">nz0/AnimateEntity</text>
</a>
</g>
</g>
<!-- nz0/func_801C16B4&#45;&gt;nz0/AnimateEntity -->
<g id="edge3" class="edge">
<title>nz0/func_801C16B4&#45;&gt;nz0/AnimateEntity</title>
<path fill="none" stroke="black" d="M421.2,-87.21C436.26,-74.4 457.2,-56.61 473.91,-42.4"/>
<polygon fill="black" stroke="black" points="476.37,-44.9 481.73,-35.76 471.84,-39.57 476.37,-44.9"/>
<text text-anchor="middle" x="462.44" y="-57.8" font-family="Times,serif" font-size="14.00">1</text>
</g>
<!-- nz0/DestroyEntity -->
<g id="node5" class="node">
<title>nz0/DestroyEntity</title>
<g id="a_node5"><a xlink:href="DestroyEntity.svg" xlink:title="nz0/DestroyEntity">
<ellipse fill="red" stroke="black" cx="712.44" cy="-18" rx="95.58" ry="18"/>
<text text-anchor="middle" x="712.44" y="-14.3" font-family="Times,serif" font-size="14.00">nz0/DestroyEntity</text>
</a>
</g>
</g>
<!-- nz0/func_801C16B4&#45;&gt;nz0/DestroyEntity -->
<g id="edge4" class="edge">
<title>nz0/func_801C16B4&#45;&gt;nz0/DestroyEntity</title>
<path fill="none" stroke="black" d="M454.55,-89.48C509,-74.6 593.6,-51.48 650.92,-35.81"/>
<polygon fill="black" stroke="black" points="651.86,-39.19 660.59,-33.17 650.02,-32.43 651.86,-39.19"/>
<text text-anchor="middle" x="581.44" y="-57.8" font-family="Times,serif" font-size="14.00">1</text>
</g>
</g>
</svg>
