<?xml version="1.0" encoding="UTF-8" standalone="no"?>
<!DOCTYPE svg PUBLIC "-//W3C//DTD SVG 1.1//EN"
 "http://www.w3.org/Graphics/SVG/1.1/DTD/svg11.dtd">
<!-- Generated by graphviz version 2.43.0 (0)
 -->
<!-- Title: func_8010FAF4 Pages: 1 -->
<svg width="2430pt" height="218pt"
 viewBox="0.00 0.00 2430.13 218.00" xmlns="http://www.w3.org/2000/svg" xmlns:xlink="http://www.w3.org/1999/xlink">
<g id="graph0" class="graph" transform="scale(1 1) rotate(0) translate(4 214)">
<title>func_8010FAF4</title>
<polygon fill="white" stroke="transparent" points="-4,4 -4,-214 2426.13,-214 2426.13,4 -4,4"/>
<!-- dra/func_8010FAF4 -->
<g id="node1" class="node">
<title>dra/func_8010FAF4</title>
<ellipse fill="green" stroke="black" cx="1206.39" cy="-105" rx="100.98" ry="18"/>
<text text-anchor="middle" x="1206.39" y="-101.3" font-family="Times,serif" font-size="14.00">dra/func_8010FAF4</text>
</g>
<!-- dra/DestroyEntity -->
<g id="node2" class="node">
<title>dra/DestroyEntity</title>
<g id="a_node2"><a xlink:href="DestroyEntity.svg" xlink:title="dra/DestroyEntity">
<ellipse fill="red" stroke="black" cx="1206.39" cy="-18" rx="94.78" ry="18"/>
<text text-anchor="middle" x="1206.39" y="-14.3" font-family="Times,serif" font-size="14.00">dra/DestroyEntity</text>
</a>
</g>
</g>
<!-- dra/func_8010FAF4&#45;&gt;dra/DestroyEntity -->
<g id="edge1" class="edge">
<title>dra/func_8010FAF4&#45;&gt;dra/DestroyEntity</title>
<path fill="none" stroke="black" d="M1206.39,-86.8C1206.39,-75.16 1206.39,-59.55 1206.39,-46.24"/>
<polygon fill="black" stroke="black" points="1209.89,-46.18 1206.39,-36.18 1202.89,-46.18 1209.89,-46.18"/>
<text text-anchor="middle" x="1211.39" y="-57.8" font-family="Times,serif" font-size="14.00">1</text>
</g>
<!-- dra/func_801120B4 -->
<g id="node3" class="node">
<title>dra/func_801120B4</title>
<g id="a_node3"><a xlink:href="func_801120B4.svg" xlink:title="dra/func_801120B4">
<ellipse fill="red" stroke="black" cx="101.39" cy="-192" rx="101.28" ry="18"/>
<text text-anchor="middle" x="101.39" y="-188.3" font-family="Times,serif" font-size="14.00">dra/func_801120B4</text>
</a>
</g>
</g>
<!-- dra/func_801120B4&#45;&gt;dra/func_8010FAF4 -->
<g id="edge2" class="edge">
<title>dra/func_801120B4&#45;&gt;dra/func_8010FAF4</title>
<path fill="none" stroke="black" d="M173.19,-179.21C185.9,-177.32 199.02,-175.5 211.39,-174 532.55,-135.09 914.94,-116.76 1098.1,-109.69"/>
<polygon fill="black" stroke="black" points="1098.41,-113.18 1108.27,-109.3 1098.14,-106.18 1098.41,-113.18"/>
<text text-anchor="middle" x="544.39" y="-144.8" font-family="Times,serif" font-size="14.00">1</text>
</g>
<!-- dra/func_8010A234 -->
<g id="node4" class="node">
<title>dra/func_8010A234</title>
<g id="a_node4"><a xlink:href="func_8010A234.svg" xlink:title="dra/func_8010A234">
<ellipse fill="red" stroke="black" cx="321.39" cy="-192" rx="100.98" ry="18"/>
<text text-anchor="middle" x="321.39" y="-188.3" font-family="Times,serif" font-size="14.00">dra/func_8010A234</text>
</a>
</g>
</g>
<!-- dra/func_8010A234&#45;&gt;dra/func_8010FAF4 -->
<g id="edge3" class="edge">
<title>dra/func_8010A234&#45;&gt;dra/func_8010FAF4</title>
<path fill="none" stroke="black" d="M392.84,-179.24C405.34,-177.36 418.23,-175.53 430.39,-174 670.42,-143.76 953.92,-122.58 1102.92,-112.56"/>
<polygon fill="black" stroke="black" points="1103.23,-116.05 1112.98,-111.89 1102.77,-109.06 1103.23,-116.05"/>
<text text-anchor="middle" x="734.39" y="-144.8" font-family="Times,serif" font-size="14.00">2</text>
</g>
<!-- dra/func_80109594 -->
<g id="node5" class="node">
<title>dra/func_80109594</title>
<g id="a_node5"><a xlink:href="func_80109594.svg" xlink:title="dra/func_80109594">
<ellipse fill="green" stroke="black" cx="540.39" cy="-192" rx="100.98" ry="18"/>
<text text-anchor="middle" x="540.39" y="-188.3" font-family="Times,serif" font-size="14.00">dra/func_80109594</text>
</a>
</g>
</g>
<!-- dra/func_80109594&#45;&gt;dra/func_8010FAF4 -->
<g id="edge4" class="edge">
<title>dra/func_80109594&#45;&gt;dra/func_8010FAF4</title>
<path fill="none" stroke="black" d="M612.46,-179.41C624.77,-177.53 637.44,-175.66 649.39,-174 812.2,-151.37 1002.37,-129.03 1113.1,-116.43"/>
<polygon fill="black" stroke="black" points="1113.69,-119.88 1123.24,-115.28 1112.9,-112.93 1113.69,-119.88"/>
<text text-anchor="middle" x="899.39" y="-144.8" font-family="Times,serif" font-size="14.00">1</text>
</g>
<!-- dra/func_8010FDF8 -->
<g id="node6" class="node">
<title>dra/func_8010FDF8</title>
<g id="a_node6"><a xlink:href="func_8010FDF8.svg" xlink:title="dra/func_8010FDF8">
<ellipse fill="green" stroke="black" cx="761.39" cy="-192" rx="102.88" ry="18"/>
<text text-anchor="middle" x="761.39" y="-188.3" font-family="Times,serif" font-size="14.00">dra/func_8010FDF8</text>
</a>
</g>
</g>
<!-- dra/func_8010FDF8&#45;&gt;dra/func_8010FAF4 -->
<g id="edge5" class="edge">
<title>dra/func_8010FDF8&#45;&gt;dra/func_8010FAF4</title>
<path fill="none" stroke="black" d="M828.01,-178.27C909.06,-162.79 1045.56,-136.72 1130.56,-120.49"/>
<polygon fill="black" stroke="black" points="1131.24,-123.92 1140.41,-118.6 1129.93,-117.04 1131.24,-123.92"/>
<text text-anchor="middle" x="1016.39" y="-144.8" font-family="Times,serif" font-size="14.00">2</text>
</g>
<!-- dra/func_80113EE0 -->
<g id="node7" class="node">
<title>dra/func_80113EE0</title>
<g id="a_node7"><a xlink:href="func_80113EE0.svg" xlink:title="dra/func_80113EE0">
<ellipse fill="green" stroke="black" cx="984.39" cy="-192" rx="102.88" ry="18"/>
<text text-anchor="middle" x="984.39" y="-188.3" font-family="Times,serif" font-size="14.00">dra/func_80113EE0</text>
</a>
</g>
</g>
<!-- dra/func_80113EE0&#45;&gt;dra/func_8010FAF4 -->
<g id="edge6" class="edge">
<title>dra/func_80113EE0&#45;&gt;dra/func_8010FAF4</title>
<path fill="none" stroke="black" d="M1025.11,-175.41C1062.11,-161.24 1116.82,-140.29 1156.45,-125.12"/>
<polygon fill="black" stroke="black" points="1157.84,-128.34 1165.93,-121.49 1155.34,-121.8 1157.84,-128.34"/>
<text text-anchor="middle" x="1114.39" y="-144.8" font-family="Times,serif" font-size="14.00">1</text>
</g>
<!-- dra/func_801131C4 -->
<g id="node8" class="node">
<title>dra/func_801131C4</title>
<g id="a_node8"><a xlink:href="func_801131C4.svg" xlink:title="dra/func_801131C4">
<ellipse fill="red" stroke="black" cx="1206.39" cy="-192" rx="101.28" ry="18"/>
<text text-anchor="middle" x="1206.39" y="-188.3" font-family="Times,serif" font-size="14.00">dra/func_801131C4</text>
</a>
</g>
</g>
<!-- dra/func_801131C4&#45;&gt;dra/func_8010FAF4 -->
<g id="edge7" class="edge">
<title>dra/func_801131C4&#45;&gt;dra/func_8010FAF4</title>
<path fill="none" stroke="black" d="M1206.39,-173.8C1206.39,-162.16 1206.39,-146.55 1206.39,-133.24"/>
<polygon fill="black" stroke="black" points="1209.89,-133.18 1206.39,-123.18 1202.89,-133.18 1209.89,-133.18"/>
<text text-anchor="middle" x="1211.39" y="-144.8" font-family="Times,serif" font-size="14.00">1</text>
</g>
<!-- dra/func_80112BB0 -->
<g id="node9" class="node">
<title>dra/func_80112BB0</title>
<g id="a_node9"><a xlink:href="func_80112BB0.svg" xlink:title="dra/func_80112BB0">
<ellipse fill="green" stroke="black" cx="1428.39" cy="-192" rx="102.88" ry="18"/>
<text text-anchor="middle" x="1428.39" y="-188.3" font-family="Times,serif" font-size="14.00">dra/func_80112BB0</text>
</a>
</g>
</g>
<!-- dra/func_80112BB0&#45;&gt;dra/func_8010FAF4 -->
<g id="edge8" class="edge">
<title>dra/func_80112BB0&#45;&gt;dra/func_8010FAF4</title>
<path fill="none" stroke="black" d="M1387.67,-175.41C1350.67,-161.24 1295.96,-140.29 1256.33,-125.12"/>
<polygon fill="black" stroke="black" points="1257.44,-121.8 1246.85,-121.49 1254.94,-128.34 1257.44,-121.8"/>
<text text-anchor="middle" x="1336.39" y="-144.8" font-family="Times,serif" font-size="14.00">2</text>
</g>
<!-- dra/func_80117DEC -->
<g id="node10" class="node">
<title>dra/func_80117DEC</title>
<g id="a_node10"><a xlink:href="func_80117DEC.svg" xlink:title="dra/func_80117DEC">
<ellipse fill="red" stroke="black" cx="1653.39" cy="-192" rx="103.98" ry="18"/>
<text text-anchor="middle" x="1653.39" y="-188.3" font-family="Times,serif" font-size="14.00">dra/func_80117DEC</text>
</a>
</g>
</g>
<!-- dra/func_80117DEC&#45;&gt;dra/func_8010FAF4 -->
<g id="edge9" class="edge">
<title>dra/func_80117DEC&#45;&gt;dra/func_8010FAF4</title>
<path fill="none" stroke="black" d="M1585.99,-178.18C1504.58,-162.7 1367.98,-136.73 1282.76,-120.52"/>
<polygon fill="black" stroke="black" points="1283.36,-117.07 1272.88,-118.64 1282.05,-123.95 1283.36,-117.07"/>
<text text-anchor="middle" x="1462.39" y="-144.8" font-family="Times,serif" font-size="14.00">1</text>
</g>
<!-- dra/func_8012E7A4 -->
<g id="node11" class="node">
<title>dra/func_8012E7A4</title>
<g id="a_node11"><a xlink:href="func_8012E7A4.svg" xlink:title="dra/func_8012E7A4">
<ellipse fill="red" stroke="black" cx="1877.39" cy="-192" rx="102.08" ry="18"/>
<text text-anchor="middle" x="1877.39" y="-188.3" font-family="Times,serif" font-size="14.00">dra/func_8012E7A4</text>
</a>
</g>
</g>
<!-- dra/func_8012E7A4&#45;&gt;dra/func_8010FAF4 -->
<g id="edge10" class="edge">
<title>dra/func_8012E7A4&#45;&gt;dra/func_8010FAF4</title>
<path fill="none" stroke="black" d="M1804,-179.43C1791.46,-177.55 1778.56,-175.67 1766.39,-174 1602.44,-151.5 1410.94,-129.07 1299.7,-116.43"/>
<polygon fill="black" stroke="black" points="1299.85,-112.92 1289.51,-115.27 1299.06,-119.88 1299.85,-112.92"/>
<text text-anchor="middle" x="1633.39" y="-144.8" font-family="Times,serif" font-size="14.00">1</text>
</g>
<!-- dra/func_80116B0C -->
<g id="node12" class="node">
<title>dra/func_80116B0C</title>
<g id="a_node12"><a xlink:href="func_80116B0C.svg" xlink:title="dra/func_80116B0C">
<ellipse fill="red" stroke="black" cx="2100.39" cy="-192" rx="102.88" ry="18"/>
<text text-anchor="middle" x="2100.39" y="-188.3" font-family="Times,serif" font-size="14.00">dra/func_80116B0C</text>
</a>
</g>
</g>
<!-- dra/func_80116B0C&#45;&gt;dra/func_8010FAF4 -->
<g id="edge11" class="edge">
<title>dra/func_80116B0C&#45;&gt;dra/func_8010FAF4</title>
<path fill="none" stroke="black" d="M2027.27,-179.3C2014.34,-177.41 2000.98,-175.55 1988.39,-174 1745.95,-144.06 1459.61,-122.71 1309.72,-112.6"/>
<polygon fill="black" stroke="black" points="1309.82,-109.1 1299.61,-111.92 1309.35,-116.08 1309.82,-109.1"/>
<text text-anchor="middle" x="1823.39" y="-144.8" font-family="Times,serif" font-size="14.00">1</text>
</g>
<!-- dra/func_801182F8 -->
<g id="node13" class="node">
<title>dra/func_801182F8</title>
<g id="a_node13"><a xlink:href="func_801182F8.svg" xlink:title="dra/func_801182F8">
<ellipse fill="red" stroke="black" cx="2321.39" cy="-192" rx="100.98" ry="18"/>
<text text-anchor="middle" x="2321.39" y="-188.3" font-family="Times,serif" font-size="14.00">dra/func_801182F8</text>
</a>
</g>
</g>
<!-- dra/func_801182F8&#45;&gt;dra/func_8010FAF4 -->
<g id="edge12" class="edge">
<title>dra/func_801182F8&#45;&gt;dra/func_8010FAF4</title>
<path fill="none" stroke="black" d="M2250.25,-179.19C2237.66,-177.3 2224.65,-175.49 2212.39,-174 1887.06,-134.55 1499.56,-116.43 1314.8,-109.55"/>
<polygon fill="black" stroke="black" points="1314.66,-106.04 1304.54,-109.17 1314.4,-113.03 1314.66,-106.04"/>
<text text-anchor="middle" x="2025.39" y="-144.8" font-family="Times,serif" font-size="14.00">1</text>
</g>
</g>
</svg>
