<?xml version="1.0" encoding="UTF-8" standalone="no"?>
<!DOCTYPE svg PUBLIC "-//W3C//DTD SVG 1.1//EN"
 "http://www.w3.org/Graphics/SVG/1.1/DTD/svg11.dtd">
<!-- Generated by graphviz version 2.43.0 (0)
 -->
<!-- Title: func_8015BE84 Pages: 1 -->
<svg width="1268pt" height="218pt"
 viewBox="0.00 0.00 1267.83 218.00" xmlns="http://www.w3.org/2000/svg" xmlns:xlink="http://www.w3.org/1999/xlink">
<g id="graph0" class="graph" transform="scale(1 1) rotate(0) translate(4 214)">
<title>func_8015BE84</title>
<polygon fill="white" stroke="transparent" points="-4,4 -4,-214 1263.83,-214 1263.83,4 -4,4"/>
<!-- ric/func_8015BE84 -->
<g id="node1" class="node">
<title>ric/func_8015BE84</title>
<ellipse fill="green" stroke="black" cx="637.14" cy="-105" rx="98.58" ry="18"/>
<text text-anchor="middle" x="637.14" y="-101.3" font-family="Times,serif" font-size="14.00">ric/func_8015BE84</text>
</g>
<!-- ric/func_8015C920 -->
<g id="node2" class="node">
<title>ric/func_8015C920</title>
<g id="a_node2"><a xlink:href="func_8015C920.svg" xlink:title="ric/func_8015C920">
<ellipse fill="green" stroke="black" cx="98.14" cy="-18" rx="98.28" ry="18"/>
<text text-anchor="middle" x="98.14" y="-14.3" font-family="Times,serif" font-size="14.00">ric/func_8015C920</text>
</a>
</g>
</g>
<!-- ric/func_8015BE84&#45;&gt;ric/func_8015C920 -->
<g id="edge1" class="edge">
<title>ric/func_8015BE84&#45;&gt;ric/func_8015C920</title>
<path fill="none" stroke="black" d="M564.9,-92.66C479.11,-79.19 331.69,-56.01 205.14,-36 196.93,-34.7 188.36,-33.34 179.81,-31.99"/>
<polygon fill="black" stroke="black" points="180.22,-28.51 169.8,-30.4 179.12,-35.42 180.22,-28.51"/>
<text text-anchor="middle" x="412.14" y="-57.8" font-family="Times,serif" font-size="14.00">3</text>
</g>
<!-- ric/func_8015CA84 -->
<g id="node3" class="node">
<title>ric/func_8015CA84</title>
<g id="a_node3"><a xlink:href="func_8015CA84.svg" xlink:title="ric/func_8015CA84">
<ellipse fill="green" stroke="black" cx="313.14" cy="-18" rx="98.58" ry="18"/>
<text text-anchor="middle" x="313.14" y="-14.3" font-family="Times,serif" font-size="14.00">ric/func_8015CA84</text>
</a>
</g>
</g>
<!-- ric/func_8015BE84&#45;&gt;ric/func_8015CA84 -->
<g id="edge2" class="edge">
<title>ric/func_8015BE84&#45;&gt;ric/func_8015CA84</title>
<path fill="none" stroke="black" d="M583.28,-89.87C526.51,-74.98 437.16,-51.54 376.92,-35.73"/>
<polygon fill="black" stroke="black" points="377.7,-32.32 367.14,-33.17 375.92,-39.09 377.7,-32.32"/>
<text text-anchor="middle" x="500.14" y="-57.8" font-family="Times,serif" font-size="14.00">1</text>
</g>
<!-- ric/func_8015C93C -->
<g id="node4" class="node">
<title>ric/func_8015C93C</title>
<g id="a_node4"><a xlink:href="func_8015C93C.svg" xlink:title="ric/func_8015C93C">
<ellipse fill="green" stroke="black" cx="529.14" cy="-18" rx="98.58" ry="18"/>
<text text-anchor="middle" x="529.14" y="-14.3" font-family="Times,serif" font-size="14.00">ric/func_8015C93C</text>
</a>
</g>
</g>
<!-- ric/func_8015BE84&#45;&gt;ric/func_8015C93C -->
<g id="edge3" class="edge">
<title>ric/func_8015BE84&#45;&gt;ric/func_8015C93C</title>
<path fill="none" stroke="black" d="M616.06,-87.41C599.67,-74.51 576.72,-56.45 558.52,-42.13"/>
<polygon fill="black" stroke="black" points="560.56,-39.27 550.54,-35.84 556.23,-44.77 560.56,-39.27"/>
<text text-anchor="middle" x="595.14" y="-57.8" font-family="Times,serif" font-size="14.00">3</text>
</g>
<!-- ric/func_801606BC -->
<g id="node5" class="node">
<title>ric/func_801606BC</title>
<g id="a_node5"><a xlink:href="func_801606BC.svg" xlink:title="ric/func_801606BC">
<ellipse fill="green" stroke="black" cx="745.14" cy="-18" rx="98.58" ry="18"/>
<text text-anchor="middle" x="745.14" y="-14.3" font-family="Times,serif" font-size="14.00">ric/func_801606BC</text>
</a>
</g>
</g>
<!-- ric/func_8015BE84&#45;&gt;ric/func_801606BC -->
<g id="edge4" class="edge">
<title>ric/func_8015BE84&#45;&gt;ric/func_801606BC</title>
<path fill="none" stroke="black" d="M658.22,-87.41C674.62,-74.51 697.56,-56.45 715.76,-42.13"/>
<polygon fill="black" stroke="black" points="718.05,-44.77 723.75,-35.84 713.72,-39.27 718.05,-44.77"/>
<text text-anchor="middle" x="703.14" y="-57.8" font-family="Times,serif" font-size="14.00">1</text>
</g>
<!-- ric/func_8015CCC8 -->
<g id="node6" class="node">
<title>ric/func_8015CCC8</title>
<g id="a_node6"><a xlink:href="func_8015CCC8.svg" xlink:title="ric/func_8015CCC8">
<ellipse fill="green" stroke="black" cx="962.14" cy="-18" rx="100.18" ry="18"/>
<text text-anchor="middle" x="962.14" y="-14.3" font-family="Times,serif" font-size="14.00">ric/func_8015CCC8</text>
</a>
</g>
</g>
<!-- ric/func_8015BE84&#45;&gt;ric/func_8015CCC8 -->
<g id="edge5" class="edge">
<title>ric/func_8015BE84&#45;&gt;ric/func_8015CCC8</title>
<path fill="none" stroke="black" d="M691.17,-89.87C748.11,-74.98 837.74,-51.54 898.17,-35.73"/>
<polygon fill="black" stroke="black" points="899.19,-39.08 907.98,-33.17 897.42,-32.31 899.19,-39.08"/>
<text text-anchor="middle" x="823.14" y="-57.8" font-family="Times,serif" font-size="14.00">1</text>
</g>
<!-- ric/g_api_PlaySfx -->
<g id="node7" class="node">
<title>ric/g_api_PlaySfx</title>
<g id="a_node7"><a xlink:href="g_api_PlaySfx.svg" xlink:title="ric/g_api_PlaySfx">
<ellipse fill="lightblue" stroke="black" cx="1170.14" cy="-18" rx="89.88" ry="18"/>
<text text-anchor="middle" x="1170.14" y="-14.3" font-family="Times,serif" font-size="14.00">ric/g_api_PlaySfx</text>
</a>
</g>
</g>
<!-- ric/func_8015BE84&#45;&gt;ric/g_api_PlaySfx -->
<g id="edge6" class="edge">
<title>ric/func_8015BE84&#45;&gt;ric/g_api_PlaySfx</title>
<path fill="none" stroke="black" d="M710.53,-92.84C796.87,-79.63 944.52,-56.79 1071.14,-36 1078.76,-34.75 1086.71,-33.42 1094.65,-32.08"/>
<polygon fill="black" stroke="black" points="1095.39,-35.51 1104.66,-30.38 1094.22,-28.6 1095.39,-35.51"/>
<text text-anchor="middle" x="956.14" y="-57.8" font-family="Times,serif" font-size="14.00">1</text>
</g>
<!-- ric/UpdateEntityRichter -->
<g id="node8" class="node">
<title>ric/UpdateEntityRichter</title>
<g id="a_node8"><a xlink:href="UpdateEntityRichter.svg" xlink:title="ric/UpdateEntityRichter">
<ellipse fill="red" stroke="black" cx="637.14" cy="-192" rx="122.68" ry="18"/>
<text text-anchor="middle" x="637.14" y="-188.3" font-family="Times,serif" font-size="14.00">ric/UpdateEntityRichter</text>
</a>
</g>
</g>
<!-- ric/UpdateEntityRichter&#45;&gt;ric/func_8015BE84 -->
<g id="edge7" class="edge">
<title>ric/UpdateEntityRichter&#45;&gt;ric/func_8015BE84</title>
<path fill="none" stroke="black" d="M637.14,-173.8C637.14,-162.16 637.14,-146.55 637.14,-133.24"/>
<polygon fill="black" stroke="black" points="640.64,-133.18 637.14,-123.18 633.64,-133.18 640.64,-133.18"/>
<text text-anchor="middle" x="642.14" y="-144.8" font-family="Times,serif" font-size="14.00">1</text>
</g>
</g>
</svg>
