<?xml version="1.0" encoding="UTF-8" standalone="no"?>
<!DOCTYPE svg PUBLIC "-//W3C//DTD SVG 1.1//EN"
 "http://www.w3.org/Graphics/SVG/1.1/DTD/svg11.dtd">
<!-- Generated by graphviz version 2.43.0 (0)
 -->
<!-- Title: func_800EDAE4 Pages: 1 -->
<svg width="1474pt" height="131pt"
 viewBox="0.00 0.00 1473.83 131.00" xmlns="http://www.w3.org/2000/svg" xmlns:xlink="http://www.w3.org/1999/xlink">
<g id="graph0" class="graph" transform="scale(1 1) rotate(0) translate(4 127)">
<title>func_800EDAE4</title>
<polygon fill="white" stroke="transparent" points="-4,4 -4,-127 1469.83,-127 1469.83,4 -4,4"/>
<!-- dra/func_800EDAE4 -->
<g id="node1" class="node">
<title>dra/func_800EDAE4</title>
<ellipse fill="green" stroke="black" cx="728.04" cy="-18" rx="104.78" ry="18"/>
<text text-anchor="middle" x="728.04" y="-14.3" font-family="Times,serif" font-size="14.00">dra/func_800EDAE4</text>
</g>
<!-- dra/func_800F298C -->
<g id="node2" class="node">
<title>dra/func_800F298C</title>
<g id="a_node2"><a xlink:href="func_800F298C.svg" xlink:title="dra/func_800F298C">
<ellipse fill="red" stroke="black" cx="102.04" cy="-105" rx="102.08" ry="18"/>
<text text-anchor="middle" x="102.04" y="-101.3" font-family="Times,serif" font-size="14.00">dra/func_800F298C</text>
</a>
</g>
</g>
<!-- dra/func_800F298C&#45;&gt;dra/func_800EDAE4 -->
<g id="edge1" class="edge">
<title>dra/func_800F298C&#45;&gt;dra/func_800EDAE4</title>
<path fill="none" stroke="black" d="M175.75,-92.49C188.19,-90.61 200.98,-88.72 213.04,-87 361.01,-65.9 533.23,-43.62 636.29,-30.53"/>
<polygon fill="black" stroke="black" points="636.88,-33.99 646.36,-29.26 635.99,-27.04 636.88,-33.99"/>
<text text-anchor="middle" x="458.04" y="-57.8" font-family="Times,serif" font-size="14.00">2</text>
</g>
<!-- dra/func_800E4970 -->
<g id="node3" class="node">
<title>dra/func_800E4970</title>
<g id="a_node3"><a xlink:href="func_800E4970.svg" xlink:title="dra/func_800E4970">
<ellipse fill="green" stroke="black" cx="323.04" cy="-105" rx="101.28" ry="18"/>
<text text-anchor="middle" x="323.04" y="-101.3" font-family="Times,serif" font-size="14.00">dra/func_800E4970</text>
</a>
</g>
</g>
<!-- dra/func_800E4970&#45;&gt;dra/func_800EDAE4 -->
<g id="edge2" class="edge">
<title>dra/func_800E4970&#45;&gt;dra/func_800EDAE4</title>
<path fill="none" stroke="black" d="M385.88,-90.81C458.39,-75.59 577.47,-50.6 654.3,-34.48"/>
<polygon fill="black" stroke="black" points="655.32,-37.84 664.39,-32.36 653.88,-30.99 655.32,-37.84"/>
<text text-anchor="middle" x="555.04" y="-57.8" font-family="Times,serif" font-size="14.00">1</text>
</g>
<!-- dra/HandlePlay -->
<g id="node4" class="node">
<title>dra/HandlePlay</title>
<g id="a_node4"><a xlink:href="HandlePlay.svg" xlink:title="dra/HandlePlay">
<ellipse fill="green" stroke="black" cx="525.04" cy="-105" rx="82.59" ry="18"/>
<text text-anchor="middle" x="525.04" y="-101.3" font-family="Times,serif" font-size="14.00">dra/HandlePlay</text>
</a>
</g>
</g>
<!-- dra/HandlePlay&#45;&gt;dra/func_800EDAE4 -->
<g id="edge3" class="edge">
<title>dra/HandlePlay&#45;&gt;dra/func_800EDAE4</title>
<path fill="none" stroke="black" d="M561.33,-88.8C594.62,-74.86 644.14,-54.13 680.57,-38.88"/>
<polygon fill="black" stroke="black" points="682.12,-42.02 690,-34.93 679.42,-35.56 682.12,-42.02"/>
<text text-anchor="middle" x="644.04" y="-57.8" font-family="Times,serif" font-size="14.00">1</text>
</g>
<!-- dra/entrypoint_sotn -->
<g id="node5" class="node">
<title>dra/entrypoint_sotn</title>
<g id="a_node5"><a xlink:href="entrypoint_sotn.svg" xlink:title="dra/entrypoint_sotn">
<ellipse fill="green" stroke="black" cx="728.04" cy="-105" rx="102.88" ry="18"/>
<text text-anchor="middle" x="728.04" y="-101.3" font-family="Times,serif" font-size="14.00">dra/entrypoint_sotn</text>
</a>
</g>
</g>
<!-- dra/entrypoint_sotn&#45;&gt;dra/func_800EDAE4 -->
<g id="edge4" class="edge">
<title>dra/entrypoint_sotn&#45;&gt;dra/func_800EDAE4</title>
<path fill="none" stroke="black" d="M728.04,-86.8C728.04,-75.16 728.04,-59.55 728.04,-46.24"/>
<polygon fill="black" stroke="black" points="731.54,-46.18 728.04,-36.18 724.54,-46.18 731.54,-46.18"/>
<text text-anchor="middle" x="733.04" y="-57.8" font-family="Times,serif" font-size="14.00">1</text>
</g>
<!-- dra/HandleTitle -->
<g id="node6" class="node">
<title>dra/HandleTitle</title>
<g id="a_node6"><a xlink:href="HandleTitle.svg" xlink:title="dra/HandleTitle">
<ellipse fill="green" stroke="black" cx="932.04" cy="-105" rx="83.39" ry="18"/>
<text text-anchor="middle" x="932.04" y="-101.3" font-family="Times,serif" font-size="14.00">dra/HandleTitle</text>
</a>
</g>
</g>
<!-- dra/HandleTitle&#45;&gt;dra/func_800EDAE4 -->
<g id="edge5" class="edge">
<title>dra/HandleTitle&#45;&gt;dra/func_800EDAE4</title>
<path fill="none" stroke="black" d="M895.57,-88.8C862.01,-74.82 812.04,-54 775.4,-38.73"/>
<polygon fill="black" stroke="black" points="776.5,-35.4 765.92,-34.78 773.81,-41.86 776.5,-35.4"/>
<text text-anchor="middle" x="848.04" y="-57.8" font-family="Times,serif" font-size="14.00">1</text>
</g>
<!-- dra/HandleEnding -->
<g id="node7" class="node">
<title>dra/HandleEnding</title>
<g id="a_node7"><a xlink:href="HandleEnding.svg" xlink:title="dra/HandleEnding">
<ellipse fill="green" stroke="black" cx="1129.04" cy="-105" rx="95.58" ry="18"/>
<text text-anchor="middle" x="1129.04" y="-101.3" font-family="Times,serif" font-size="14.00">dra/HandleEnding</text>
</a>
</g>
</g>
<!-- dra/HandleEnding&#45;&gt;dra/func_800EDAE4 -->
<g id="edge6" class="edge">
<title>dra/HandleEnding&#45;&gt;dra/func_800EDAE4</title>
<path fill="none" stroke="black" d="M1068.14,-91.09C996.53,-75.91 877.76,-50.74 801.22,-34.51"/>
<polygon fill="black" stroke="black" points="801.68,-31.03 791.17,-32.38 800.23,-37.88 801.68,-31.03"/>
<text text-anchor="middle" x="958.04" y="-57.8" font-family="Times,serif" font-size="14.00">1</text>
</g>
<!-- dra/HandleGameOver -->
<g id="node8" class="node">
<title>dra/HandleGameOver</title>
<g id="a_node8"><a xlink:href="HandleGameOver.svg" xlink:title="dra/HandleGameOver">
<ellipse fill="red" stroke="black" cx="1354.04" cy="-105" rx="111.58" ry="18"/>
<text text-anchor="middle" x="1354.04" y="-101.3" font-family="Times,serif" font-size="14.00">dra/HandleGameOver</text>
</a>
</g>
</g>
<!-- dra/HandleGameOver&#45;&gt;dra/func_800EDAE4 -->
<g id="edge7" class="edge">
<title>dra/HandleGameOver&#45;&gt;dra/func_800EDAE4</title>
<path fill="none" stroke="black" d="M1273.37,-92.49C1260.22,-90.64 1246.76,-88.75 1234.04,-87 1088.67,-66.93 919.69,-44.38 818.44,-30.95"/>
<polygon fill="black" stroke="black" points="818.63,-27.44 808.25,-29.6 817.71,-34.38 818.63,-27.44"/>
<text text-anchor="middle" x="1101.04" y="-57.8" font-family="Times,serif" font-size="14.00">1</text>
</g>
</g>
</svg>
