<?xml version="1.0" encoding="UTF-8" standalone="no"?>
<!DOCTYPE svg PUBLIC "-//W3C//DTD SVG 1.1//EN"
 "http://www.w3.org/Graphics/SVG/1.1/DTD/svg11.dtd">
<!-- Generated by graphviz version 2.43.0 (0)
 -->
<!-- Title: func_169000_8017AED4 Pages: 1 -->
<svg width="1016pt" height="218pt"
 viewBox="0.00 0.00 1015.97 218.00" xmlns="http://www.w3.org/2000/svg" xmlns:xlink="http://www.w3.org/1999/xlink">
<g id="graph0" class="graph" transform="scale(1 1) rotate(0) translate(4 214)">
<title>func_169000_8017AED4</title>
<polygon fill="white" stroke="transparent" points="-4,4 -4,-214 1011.97,-214 1011.97,4 -4,4"/>
<!-- weapon/func_169000_8017AED4 -->
<g id="node1" class="node">
<title>weapon/func_169000_8017AED4</title>
<ellipse fill="red" stroke="black" cx="505.14" cy="-105" rx="163.27" ry="18"/>
<text text-anchor="middle" x="505.14" y="-101.3" font-family="Times,serif" font-size="14.00">weapon/func_169000_8017AED4</text>
</g>
<!-- weapon/g_api_FreePrimitives -->
<g id="node2" class="node">
<title>weapon/g_api_FreePrimitives</title>
<g id="a_node2"><a xlink:href="g_api_FreePrimitives.svg" xlink:title="weapon/g_api_FreePrimitives">
<ellipse fill="lightblue" stroke="black" cx="505.14" cy="-18" rx="147.57" ry="18"/>
<text text-anchor="middle" x="505.14" y="-14.3" font-family="Times,serif" font-size="14.00">weapon/g_api_FreePrimitives</text>
</a>
</g>
</g>
<!-- weapon/func_169000_8017AED4&#45;&gt;weapon/g_api_FreePrimitives -->
<g id="edge1" class="edge">
<title>weapon/func_169000_8017AED4&#45;&gt;weapon/g_api_FreePrimitives</title>
<path fill="none" stroke="black" d="M505.14,-86.8C505.14,-75.16 505.14,-59.55 505.14,-46.24"/>
<polygon fill="black" stroke="black" points="508.64,-46.18 505.14,-36.18 501.64,-46.18 508.64,-46.18"/>
<text text-anchor="middle" x="510.14" y="-57.8" font-family="Times,serif" font-size="14.00">1</text>
</g>
<!-- weapon/func_169000_8017B7BC -->
<g id="node3" class="node">
<title>weapon/func_169000_8017B7BC</title>
<g id="a_node3"><a xlink:href="func_169000_8017B7BC.svg" xlink:title="weapon/func_169000_8017B7BC">
<ellipse fill="red" stroke="black" cx="163.14" cy="-192" rx="163.27" ry="18"/>
<text text-anchor="middle" x="163.14" y="-188.3" font-family="Times,serif" font-size="14.00">weapon/func_169000_8017B7BC</text>
</a>
</g>
</g>
<!-- weapon/func_169000_8017B7BC&#45;&gt;weapon/func_169000_8017AED4 -->
<g id="edge2" class="edge">
<title>weapon/func_169000_8017B7BC&#45;&gt;weapon/func_169000_8017AED4</title>
<path fill="none" stroke="black" d="M226.26,-175.31C284.49,-160.84 370.93,-139.35 432.11,-124.15"/>
<polygon fill="black" stroke="black" points="433.23,-127.48 442.09,-121.67 431.54,-120.69 433.23,-127.48"/>
<text text-anchor="middle" x="360.14" y="-144.8" font-family="Times,serif" font-size="14.00">1</text>
</g>
<!-- weapon/func_169000_8017BA64 -->
<g id="node4" class="node">
<title>weapon/func_169000_8017BA64</title>
<g id="a_node4"><a xlink:href="func_169000_8017BA64.svg" xlink:title="weapon/func_169000_8017BA64">
<ellipse fill="red" stroke="black" cx="505.14" cy="-192" rx="161.37" ry="18"/>
<text text-anchor="middle" x="505.14" y="-188.3" font-family="Times,serif" font-size="14.00">weapon/func_169000_8017BA64</text>
</a>
</g>
</g>
<!-- weapon/func_169000_8017BA64&#45;&gt;weapon/func_169000_8017AED4 -->
<g id="edge3" class="edge">
<title>weapon/func_169000_8017BA64&#45;&gt;weapon/func_169000_8017AED4</title>
<path fill="none" stroke="black" d="M505.14,-173.8C505.14,-162.16 505.14,-146.55 505.14,-133.24"/>
<polygon fill="black" stroke="black" points="508.64,-133.18 505.14,-123.18 501.64,-133.18 508.64,-133.18"/>
<text text-anchor="middle" x="510.14" y="-144.8" font-family="Times,serif" font-size="14.00">1</text>
</g>
<!-- weapon/func_169000_8017B51C -->
<g id="node5" class="node">
<title>weapon/func_169000_8017B51C</title>
<g id="a_node5"><a xlink:href="func_169000_8017B51C.svg" xlink:title="weapon/func_169000_8017B51C">
<ellipse fill="red" stroke="black" cx="846.14" cy="-192" rx="161.67" ry="18"/>
<text text-anchor="middle" x="846.14" y="-188.3" font-family="Times,serif" font-size="14.00">weapon/func_169000_8017B51C</text>
</a>
</g>
</g>
<!-- weapon/func_169000_8017B51C&#45;&gt;weapon/func_169000_8017AED4 -->
<g id="edge4" class="edge">
<title>weapon/func_169000_8017B51C&#45;&gt;weapon/func_169000_8017AED4</title>
<path fill="none" stroke="black" d="M783.19,-175.31C725.13,-160.84 638.95,-139.35 577.94,-124.15"/>
<polygon fill="black" stroke="black" points="578.55,-120.69 568,-121.67 576.86,-127.48 578.55,-120.69"/>
<text text-anchor="middle" x="701.14" y="-144.8" font-family="Times,serif" font-size="14.00">1</text>
</g>
</g>
</svg>
