<?xml version="1.0" encoding="UTF-8" standalone="no"?>
<!DOCTYPE svg PUBLIC "-//W3C//DTD SVG 1.1//EN"
 "http://www.w3.org/Graphics/SVG/1.1/DTD/svg11.dtd">
<!-- Generated by graphviz version 2.43.0 (0)
 -->
<!-- Title: func_154000_8017B050 Pages: 1 -->
<svg width="1354pt" height="218pt"
 viewBox="0.00 0.00 1354.37 218.00" xmlns="http://www.w3.org/2000/svg" xmlns:xlink="http://www.w3.org/1999/xlink">
<g id="graph0" class="graph" transform="scale(1 1) rotate(0) translate(4 214)">
<title>func_154000_8017B050</title>
<polygon fill="white" stroke="transparent" points="-4,4 -4,-214 1350.37,-214 1350.37,4 -4,4"/>
<!-- weapon/func_154000_8017B050 -->
<g id="node1" class="node">
<title>weapon/func_154000_8017B050</title>
<ellipse fill="red" stroke="black" cx="672.19" cy="-105" rx="161.37" ry="18"/>
<text text-anchor="middle" x="672.19" y="-101.3" font-family="Times,serif" font-size="14.00">weapon/func_154000_8017B050</text>
</g>
<!-- weapon/g_api_FreePrimitives -->
<g id="node2" class="node">
<title>weapon/g_api_FreePrimitives</title>
<g id="a_node2"><a xlink:href="g_api_FreePrimitives.svg" xlink:title="weapon/g_api_FreePrimitives">
<ellipse fill="lightblue" stroke="black" cx="672.19" cy="-18" rx="147.57" ry="18"/>
<text text-anchor="middle" x="672.19" y="-14.3" font-family="Times,serif" font-size="14.00">weapon/g_api_FreePrimitives</text>
</a>
</g>
</g>
<!-- weapon/func_154000_8017B050&#45;&gt;weapon/g_api_FreePrimitives -->
<g id="edge1" class="edge">
<title>weapon/func_154000_8017B050&#45;&gt;weapon/g_api_FreePrimitives</title>
<path fill="none" stroke="black" d="M672.19,-86.8C672.19,-75.16 672.19,-59.55 672.19,-46.24"/>
<polygon fill="black" stroke="black" points="675.69,-46.18 672.19,-36.18 668.69,-46.18 675.69,-46.18"/>
<text text-anchor="middle" x="677.19" y="-57.8" font-family="Times,serif" font-size="14.00">1</text>
</g>
<!-- weapon/func_154000_8017B980 -->
<g id="node3" class="node">
<title>weapon/func_154000_8017B980</title>
<g id="a_node3"><a xlink:href="func_154000_8017B980.svg" xlink:title="weapon/func_154000_8017B980">
<ellipse fill="red" stroke="black" cx="161.19" cy="-192" rx="161.37" ry="18"/>
<text text-anchor="middle" x="161.19" y="-188.3" font-family="Times,serif" font-size="14.00">weapon/func_154000_8017B980</text>
</a>
</g>
</g>
<!-- weapon/func_154000_8017B980&#45;&gt;weapon/func_154000_8017B050 -->
<g id="edge2" class="edge">
<title>weapon/func_154000_8017B980&#45;&gt;weapon/func_154000_8017B050</title>
<path fill="none" stroke="black" d="M247,-176.72C338.16,-161.56 481.9,-137.65 576.61,-121.9"/>
<polygon fill="black" stroke="black" points="577.19,-125.35 586.48,-120.26 576.04,-118.45 577.19,-125.35"/>
<text text-anchor="middle" x="453.19" y="-144.8" font-family="Times,serif" font-size="14.00">1</text>
</g>
<!-- weapon/func_154000_8017B284 -->
<g id="node4" class="node">
<title>weapon/func_154000_8017B284</title>
<g id="a_node4"><a xlink:href="func_154000_8017B284.svg" xlink:title="weapon/func_154000_8017B284">
<ellipse fill="red" stroke="black" cx="501.19" cy="-192" rx="161.37" ry="18"/>
<text text-anchor="middle" x="501.19" y="-188.3" font-family="Times,serif" font-size="14.00">weapon/func_154000_8017B284</text>
</a>
</g>
</g>
<!-- weapon/func_154000_8017B284&#45;&gt;weapon/func_154000_8017B050 -->
<g id="edge3" class="edge">
<title>weapon/func_154000_8017B284&#45;&gt;weapon/func_154000_8017B050</title>
<path fill="none" stroke="black" d="M534.97,-174.21C562.11,-160.72 600.38,-141.69 629.62,-127.16"/>
<polygon fill="black" stroke="black" points="631.37,-130.2 638.76,-122.61 628.25,-123.93 631.37,-130.2"/>
<text text-anchor="middle" x="602.19" y="-144.8" font-family="Times,serif" font-size="14.00">2</text>
</g>
<!-- weapon/func_154000_8017BF4C -->
<g id="node5" class="node">
<title>weapon/func_154000_8017BF4C</title>
<g id="a_node5"><a xlink:href="func_154000_8017BF4C.svg" xlink:title="weapon/func_154000_8017BF4C">
<ellipse fill="red" stroke="black" cx="843.19" cy="-192" rx="162.47" ry="18"/>
<text text-anchor="middle" x="843.19" y="-188.3" font-family="Times,serif" font-size="14.00">weapon/func_154000_8017BF4C</text>
</a>
</g>
</g>
<!-- weapon/func_154000_8017BF4C&#45;&gt;weapon/func_154000_8017B050 -->
<g id="edge4" class="edge">
<title>weapon/func_154000_8017BF4C&#45;&gt;weapon/func_154000_8017B050</title>
<path fill="none" stroke="black" d="M809.4,-174.21C782.26,-160.72 743.99,-141.69 714.76,-127.16"/>
<polygon fill="black" stroke="black" points="716.12,-123.93 705.61,-122.61 713.01,-130.2 716.12,-123.93"/>
<text text-anchor="middle" x="773.19" y="-144.8" font-family="Times,serif" font-size="14.00">1</text>
</g>
<!-- weapon/func_154000_8017B3F0 -->
<g id="node6" class="node">
<title>weapon/func_154000_8017B3F0</title>
<g id="a_node6"><a xlink:href="func_154000_8017B3F0.svg" xlink:title="weapon/func_154000_8017B3F0">
<ellipse fill="red" stroke="black" cx="1185.19" cy="-192" rx="161.37" ry="18"/>
<text text-anchor="middle" x="1185.19" y="-188.3" font-family="Times,serif" font-size="14.00">weapon/func_154000_8017B3F0</text>
</a>
</g>
</g>
<!-- weapon/func_154000_8017B3F0&#45;&gt;weapon/func_154000_8017B050 -->
<g id="edge5" class="edge">
<title>weapon/func_154000_8017B3F0&#45;&gt;weapon/func_154000_8017B050</title>
<path fill="none" stroke="black" d="M1099.03,-176.72C1007.52,-161.56 863.21,-137.65 768.13,-121.9"/>
<polygon fill="black" stroke="black" points="768.67,-118.44 758.23,-120.26 767.52,-125.34 768.67,-118.44"/>
<text text-anchor="middle" x="965.19" y="-144.8" font-family="Times,serif" font-size="14.00">1</text>
</g>
</g>
</svg>
