<?xml version="1.0" encoding="UTF-8" standalone="no"?>
<!DOCTYPE svg PUBLIC "-//W3C//DTD SVG 1.1//EN"
 "http://www.w3.org/Graphics/SVG/1.1/DTD/svg11.dtd">
<!-- Generated by graphviz version 2.43.0 (0)
 -->
<!-- Title: func_801C3E10 Pages: 1 -->
<svg width="895pt" height="131pt"
 viewBox="0.00 0.00 894.63 131.00" xmlns="http://www.w3.org/2000/svg" xmlns:xlink="http://www.w3.org/1999/xlink">
<g id="graph0" class="graph" transform="scale(1 1) rotate(0) translate(4 127)">
<title>func_801C3E10</title>
<polygon fill="white" stroke="transparent" points="-4,4 -4,-127 890.63,-127 890.63,4 -4,4"/>
<!-- no3/func_801C3E10 -->
<g id="node1" class="node">
<title>no3/func_801C3E10</title>
<ellipse fill="green" stroke="black" cx="444.64" cy="-105" rx="103.98" ry="18"/>
<text text-anchor="middle" x="444.64" y="-101.3" font-family="Times,serif" font-size="14.00">no3/func_801C3E10</text>
</g>
<!-- no3/func_801C37D4 -->
<g id="node2" class="node">
<title>no3/func_801C37D4</title>
<g id="a_node2"><a xlink:href="func_801C37D4.svg" xlink:title="no3/func_801C37D4">
<ellipse fill="red" stroke="black" cx="104.64" cy="-18" rx="104.78" ry="18"/>
<text text-anchor="middle" x="104.64" y="-14.3" font-family="Times,serif" font-size="14.00">no3/func_801C37D4</text>
</a>
</g>
</g>
<!-- no3/func_801C3E10&#45;&gt;no3/func_801C37D4 -->
<g id="edge1" class="edge">
<title>no3/func_801C3E10&#45;&gt;no3/func_801C37D4</title>
<path fill="none" stroke="black" d="M388.11,-89.87C328.43,-74.95 234.4,-51.44 171.17,-35.63"/>
<polygon fill="black" stroke="black" points="171.85,-32.2 161.3,-33.17 170.15,-38.99 171.85,-32.2"/>
<text text-anchor="middle" x="300.64" y="-57.8" font-family="Times,serif" font-size="14.00">1</text>
</g>
<!-- no3/func_801C38D0 -->
<g id="node3" class="node">
<title>no3/func_801C38D0</title>
<g id="a_node3"><a xlink:href="func_801C38D0.svg" xlink:title="no3/func_801C38D0">
<ellipse fill="red" stroke="black" cx="331.64" cy="-18" rx="104.78" ry="18"/>
<text text-anchor="middle" x="331.64" y="-14.3" font-family="Times,serif" font-size="14.00">no3/func_801C38D0</text>
</a>
</g>
</g>
<!-- no3/func_801C3E10&#45;&gt;no3/func_801C38D0 -->
<g id="edge2" class="edge">
<title>no3/func_801C3E10&#45;&gt;no3/func_801C38D0</title>
<path fill="none" stroke="black" d="M422.58,-87.41C405.35,-74.45 381.21,-56.28 362.13,-41.93"/>
<polygon fill="black" stroke="black" points="364.12,-39.05 354.03,-35.84 359.91,-44.65 364.12,-39.05"/>
<text text-anchor="middle" x="400.64" y="-57.8" font-family="Times,serif" font-size="14.00">1</text>
</g>
<!-- no3/func_801C3A88 -->
<g id="node4" class="node">
<title>no3/func_801C3A88</title>
<g id="a_node4"><a xlink:href="func_801C3A88.svg" xlink:title="no3/func_801C3A88">
<ellipse fill="red" stroke="black" cx="557.64" cy="-18" rx="103.18" ry="18"/>
<text text-anchor="middle" x="557.64" y="-14.3" font-family="Times,serif" font-size="14.00">no3/func_801C3A88</text>
</a>
</g>
</g>
<!-- no3/func_801C3E10&#45;&gt;no3/func_801C3A88 -->
<g id="edge3" class="edge">
<title>no3/func_801C3E10&#45;&gt;no3/func_801C3A88</title>
<path fill="none" stroke="black" d="M466.7,-87.41C483.93,-74.45 508.07,-56.28 527.15,-41.93"/>
<polygon fill="black" stroke="black" points="529.37,-44.65 535.25,-35.84 525.16,-39.05 529.37,-44.65"/>
<text text-anchor="middle" x="513.64" y="-57.8" font-family="Times,serif" font-size="14.00">1</text>
</g>
<!-- no3/func_801C3B84 -->
<g id="node5" class="node">
<title>no3/func_801C3B84</title>
<g id="a_node5"><a xlink:href="func_801C3B84.svg" xlink:title="no3/func_801C3B84">
<ellipse fill="red" stroke="black" cx="782.64" cy="-18" rx="103.98" ry="18"/>
<text text-anchor="middle" x="782.64" y="-14.3" font-family="Times,serif" font-size="14.00">no3/func_801C3B84</text>
</a>
</g>
</g>
<!-- no3/func_801C3E10&#45;&gt;no3/func_801C3B84 -->
<g id="edge4" class="edge">
<title>no3/func_801C3E10&#45;&gt;no3/func_801C3B84</title>
<path fill="none" stroke="black" d="M501.21,-89.77C560.53,-74.86 653.66,-51.44 716.37,-35.67"/>
<polygon fill="black" stroke="black" points="717.32,-39.04 726.16,-33.2 715.61,-32.25 717.32,-39.04"/>
<text text-anchor="middle" x="639.64" y="-57.8" font-family="Times,serif" font-size="14.00">1</text>
</g>
</g>
</svg>
