<?xml version="1.0" encoding="UTF-8" standalone="no"?>
<!DOCTYPE svg PUBLIC "-//W3C//DTD SVG 1.1//EN"
 "http://www.w3.org/Graphics/SVG/1.1/DTD/svg11.dtd">
<!-- Generated by graphviz version 2.43.0 (0)
 -->
<!-- Title: func_80156F40 Pages: 1 -->
<svg width="1665pt" height="131pt"
 viewBox="0.00 0.00 1664.93 131.00" xmlns="http://www.w3.org/2000/svg" xmlns:xlink="http://www.w3.org/1999/xlink">
<g id="graph0" class="graph" transform="scale(1 1) rotate(0) translate(4 127)">
<title>func_80156F40</title>
<polygon fill="white" stroke="transparent" points="-4,4 -4,-127 1660.93,-127 1660.93,4 -4,4"/>
<!-- ric/func_80156F40 -->
<g id="node1" class="node">
<title>ric/func_80156F40</title>
<ellipse fill="red" stroke="black" cx="805.14" cy="-105" rx="97.48" ry="18"/>
<text text-anchor="middle" x="805.14" y="-101.3" font-family="Times,serif" font-size="14.00">ric/func_80156F40</text>
</g>
<!-- ric/func_80156C60 -->
<g id="node2" class="node">
<title>ric/func_80156C60</title>
<g id="a_node2"><a xlink:href="func_80156C60.svg" xlink:title="ric/func_80156C60">
<ellipse fill="green" stroke="black" cx="98.14" cy="-18" rx="98.28" ry="18"/>
<text text-anchor="middle" x="98.14" y="-14.3" font-family="Times,serif" font-size="14.00">ric/func_80156C60</text>
</a>
</g>
</g>
<!-- ric/func_80156F40&#45;&gt;ric/func_80156C60 -->
<g id="edge1" class="edge">
<title>ric/func_80156F40&#45;&gt;ric/func_80156C60</title>
<path fill="none" stroke="black" d="M721.66,-95.67C605.79,-83.85 389.72,-60.86 206.14,-36 197.23,-34.79 187.92,-33.45 178.66,-32.07"/>
<polygon fill="black" stroke="black" points="179.07,-28.59 168.66,-30.55 178.02,-35.51 179.07,-28.59"/>
<text text-anchor="middle" x="474.14" y="-57.8" font-family="Times,serif" font-size="14.00">2</text>
</g>
<!-- ric/func_8015CD98 -->
<g id="node3" class="node">
<title>ric/func_8015CD98</title>
<g id="a_node3"><a xlink:href="func_8015CD98.svg" xlink:title="ric/func_8015CD98">
<ellipse fill="green" stroke="black" cx="314.14" cy="-18" rx="99.38" ry="18"/>
<text text-anchor="middle" x="314.14" y="-14.3" font-family="Times,serif" font-size="14.00">ric/func_8015CD98</text>
</a>
</g>
</g>
<!-- ric/func_80156F40&#45;&gt;ric/func_8015CD98 -->
<g id="edge2" class="edge">
<title>ric/func_80156F40&#45;&gt;ric/func_8015CD98</title>
<path fill="none" stroke="black" d="M736.61,-92.14C646.45,-76.53 488.31,-49.15 393.19,-32.68"/>
<polygon fill="black" stroke="black" points="393.79,-29.24 383.34,-30.98 392.59,-36.13 393.79,-29.24"/>
<text text-anchor="middle" x="594.14" y="-57.8" font-family="Times,serif" font-size="14.00">1</text>
</g>
<!-- ric/func_801587C0 -->
<g id="node4" class="node">
<title>ric/func_801587C0</title>
<g id="a_node4"><a xlink:href="func_801587C0.svg" xlink:title="ric/func_801587C0">
<ellipse fill="green" stroke="black" cx="530.14" cy="-18" rx="98.28" ry="18"/>
<text text-anchor="middle" x="530.14" y="-14.3" font-family="Times,serif" font-size="14.00">ric/func_801587C0</text>
</a>
</g>
</g>
<!-- ric/func_80156F40&#45;&gt;ric/func_801587C0 -->
<g id="edge3" class="edge">
<title>ric/func_80156F40&#45;&gt;ric/func_801587C0</title>
<path fill="none" stroke="black" d="M757.24,-89.19C710.06,-74.61 637.97,-52.33 587.7,-36.79"/>
<polygon fill="black" stroke="black" points="588.54,-33.39 577.95,-33.78 586.47,-40.08 588.54,-33.39"/>
<text text-anchor="middle" x="689.14" y="-57.8" font-family="Times,serif" font-size="14.00">1</text>
</g>
<!-- ric/rand -->
<g id="node5" class="node">
<title>ric/rand</title>
<g id="a_node5"><a xlink:href="rand.svg" xlink:title="ric/rand">
<ellipse fill="lightblue" stroke="black" cx="694.14" cy="-18" rx="47.39" ry="18"/>
<text text-anchor="middle" x="694.14" y="-14.3" font-family="Times,serif" font-size="14.00">ric/rand</text>
</a>
</g>
</g>
<!-- ric/func_80156F40&#45;&gt;ric/rand -->
<g id="edge4" class="edge">
<title>ric/func_80156F40&#45;&gt;ric/rand</title>
<path fill="none" stroke="black" d="M783.48,-87.41C766,-74.03 741.28,-55.1 722.28,-40.55"/>
<polygon fill="black" stroke="black" points="724.33,-37.71 714.26,-34.4 720.07,-43.26 724.33,-37.71"/>
<text text-anchor="middle" x="762.14" y="-57.8" font-family="Times,serif" font-size="14.00">2</text>
</g>
<!-- ric/rcos -->
<g id="node6" class="node">
<title>ric/rcos</title>
<g id="a_node6"><a xlink:href="rcos.svg" xlink:title="ric/rcos">
<ellipse fill="red" stroke="black" cx="805.14" cy="-18" rx="45.49" ry="18"/>
<text text-anchor="middle" x="805.14" y="-14.3" font-family="Times,serif" font-size="14.00">ric/rcos</text>
</a>
</g>
</g>
<!-- ric/func_80156F40&#45;&gt;ric/rcos -->
<g id="edge5" class="edge">
<title>ric/func_80156F40&#45;&gt;ric/rcos</title>
<path fill="none" stroke="black" d="M805.14,-86.8C805.14,-75.16 805.14,-59.55 805.14,-46.24"/>
<polygon fill="black" stroke="black" points="808.64,-46.18 805.14,-36.18 801.64,-46.18 808.64,-46.18"/>
<text text-anchor="middle" x="810.14" y="-57.8" font-family="Times,serif" font-size="14.00">1</text>
</g>
<!-- ric/rsin -->
<g id="node7" class="node">
<title>ric/rsin</title>
<g id="a_node7"><a xlink:href="rsin.svg" xlink:title="ric/rsin">
<ellipse fill="green" stroke="black" cx="913.14" cy="-18" rx="44.39" ry="18"/>
<text text-anchor="middle" x="913.14" y="-14.3" font-family="Times,serif" font-size="14.00">ric/rsin</text>
</a>
</g>
</g>
<!-- ric/func_80156F40&#45;&gt;ric/rsin -->
<g id="edge6" class="edge">
<title>ric/func_80156F40&#45;&gt;ric/rsin</title>
<path fill="none" stroke="black" d="M826.22,-87.41C843.15,-74.09 867.06,-55.27 885.52,-40.74"/>
<polygon fill="black" stroke="black" points="887.88,-43.34 893.57,-34.4 883.55,-37.84 887.88,-43.34"/>
<text text-anchor="middle" x="871.14" y="-57.8" font-family="Times,serif" font-size="14.00">1</text>
</g>
<!-- ric/g_api_AllocPrimitives -->
<g id="node8" class="node">
<title>ric/g_api_AllocPrimitives</title>
<g id="a_node8"><a xlink:href="g_api_AllocPrimitives.svg" xlink:title="ric/g_api_AllocPrimitives">
<ellipse fill="lightblue" stroke="black" cx="1100.14" cy="-18" rx="124.58" ry="18"/>
<text text-anchor="middle" x="1100.14" y="-14.3" font-family="Times,serif" font-size="14.00">ric/g_api_AllocPrimitives</text>
</a>
</g>
</g>
<!-- ric/func_80156F40&#45;&gt;ric/g_api_AllocPrimitives -->
<g id="edge7" class="edge">
<title>ric/func_80156F40&#45;&gt;ric/g_api_AllocPrimitives</title>
<path fill="none" stroke="black" d="M855.52,-89.48C905.71,-75.02 982.92,-52.78 1037.14,-37.15"/>
<polygon fill="black" stroke="black" points="1038.34,-40.45 1046.98,-34.32 1036.41,-33.72 1038.34,-40.45"/>
<text text-anchor="middle" x="976.14" y="-57.8" font-family="Times,serif" font-size="14.00">1</text>
</g>
<!-- ric/func_801606BC -->
<g id="node9" class="node">
<title>ric/func_801606BC</title>
<g id="a_node9"><a xlink:href="func_801606BC.svg" xlink:title="ric/func_801606BC">
<ellipse fill="green" stroke="black" cx="1342.14" cy="-18" rx="98.58" ry="18"/>
<text text-anchor="middle" x="1342.14" y="-14.3" font-family="Times,serif" font-size="14.00">ric/func_801606BC</text>
</a>
</g>
</g>
<!-- ric/func_80156F40&#45;&gt;ric/func_801606BC -->
<g id="edge8" class="edge">
<title>ric/func_80156F40&#45;&gt;ric/func_801606BC</title>
<path fill="none" stroke="black" d="M876.45,-92.71C975.81,-76.99 1155.47,-48.55 1260.21,-31.97"/>
<polygon fill="black" stroke="black" points="1260.78,-35.42 1270.11,-30.4 1259.68,-28.51 1260.78,-35.42"/>
<text text-anchor="middle" x="1111.14" y="-57.8" font-family="Times,serif" font-size="14.00">3</text>
</g>
<!-- ric/func_8015CC70 -->
<g id="node10" class="node">
<title>ric/func_8015CC70</title>
<g id="a_node10"><a xlink:href="func_8015CC70.svg" xlink:title="ric/func_8015CC70">
<ellipse fill="green" stroke="black" cx="1558.14" cy="-18" rx="98.58" ry="18"/>
<text text-anchor="middle" x="1558.14" y="-14.3" font-family="Times,serif" font-size="14.00">ric/func_8015CC70</text>
</a>
</g>
</g>
<!-- ric/func_80156F40&#45;&gt;ric/func_8015CC70 -->
<g id="edge9" class="edge">
<title>ric/func_80156F40&#45;&gt;ric/func_8015CC70</title>
<path fill="none" stroke="black" d="M890.86,-96.37C1014.58,-85.03 1250.3,-62.24 1450.14,-36 1459.06,-34.83 1468.37,-33.51 1477.63,-32.14"/>
<polygon fill="black" stroke="black" points="1478.26,-35.58 1487.63,-30.63 1477.22,-28.66 1478.26,-35.58"/>
<text text-anchor="middle" x="1297.14" y="-57.8" font-family="Times,serif" font-size="14.00">3</text>
</g>
</g>
</svg>
