<?xml version="1.0" encoding="UTF-8" standalone="no"?>
<!DOCTYPE svg PUBLIC "-//W3C//DTD SVG 1.1//EN"
 "http://www.w3.org/Graphics/SVG/1.1/DTD/svg11.dtd">
<!-- Generated by graphviz version 2.43.0 (0)
 -->
<!-- Title: func_801C6458 Pages: 1 -->
<svg width="963pt" height="218pt"
 viewBox="0.00 0.00 962.93 218.00" xmlns="http://www.w3.org/2000/svg" xmlns:xlink="http://www.w3.org/1999/xlink">
<g id="graph0" class="graph" transform="scale(1 1) rotate(0) translate(4 214)">
<title>func_801C6458</title>
<polygon fill="white" stroke="transparent" points="-4,4 -4,-214 958.93,-214 958.93,4 -4,4"/>
<!-- np3/func_801C6458 -->
<g id="node1" class="node">
<title>np3/func_801C6458</title>
<ellipse fill="green" stroke="black" cx="479.04" cy="-105" rx="103.18" ry="18"/>
<text text-anchor="middle" x="479.04" y="-101.3" font-family="Times,serif" font-size="14.00">np3/func_801C6458</text>
</g>
<!-- np3/g_api_CheckCollision -->
<g id="node2" class="node">
<title>np3/g_api_CheckCollision</title>
<g id="a_node2"><a xlink:href="g_api_CheckCollision.svg" xlink:title="np3/g_api_CheckCollision">
<ellipse fill="lightblue" stroke="black" cx="128.04" cy="-18" rx="128.08" ry="18"/>
<text text-anchor="middle" x="128.04" y="-14.3" font-family="Times,serif" font-size="14.00">np3/g_api_CheckCollision</text>
</a>
</g>
</g>
<!-- np3/func_801C6458&#45;&gt;np3/g_api_CheckCollision -->
<g id="edge1" class="edge">
<title>np3/func_801C6458&#45;&gt;np3/g_api_CheckCollision</title>
<path fill="none" stroke="black" d="M421.08,-89.96C360.24,-75.23 264.52,-52.05 199.15,-36.22"/>
<polygon fill="black" stroke="black" points="199.87,-32.8 189.33,-33.84 198.23,-39.6 199.87,-32.8"/>
<text text-anchor="middle" x="330.04" y="-57.8" font-family="Times,serif" font-size="14.00">1</text>
</g>
<!-- np3/AllocEntity -->
<g id="node3" class="node">
<title>np3/AllocEntity</title>
<g id="a_node3"><a xlink:href="AllocEntity.svg" xlink:title="np3/AllocEntity">
<ellipse fill="green" stroke="black" cx="357.04" cy="-18" rx="82.59" ry="18"/>
<text text-anchor="middle" x="357.04" y="-14.3" font-family="Times,serif" font-size="14.00">np3/AllocEntity</text>
</a>
</g>
</g>
<!-- np3/func_801C6458&#45;&gt;np3/AllocEntity -->
<g id="edge2" class="edge">
<title>np3/func_801C6458&#45;&gt;np3/AllocEntity</title>
<path fill="none" stroke="black" d="M455.23,-87.41C436.33,-74.25 409.74,-55.72 389,-41.27"/>
<polygon fill="black" stroke="black" points="391,-38.39 380.79,-35.55 387,-44.14 391,-38.39"/>
<text text-anchor="middle" x="431.04" y="-57.8" font-family="Times,serif" font-size="14.00">1</text>
</g>
<!-- np3/CreateEntityFromEntity -->
<g id="node4" class="node">
<title>np3/CreateEntityFromEntity</title>
<g id="a_node4"><a xlink:href="CreateEntityFromEntity.svg" xlink:title="np3/CreateEntityFromEntity">
<ellipse fill="green" stroke="black" cx="602.04" cy="-18" rx="144.87" ry="18"/>
<text text-anchor="middle" x="602.04" y="-14.3" font-family="Times,serif" font-size="14.00">np3/CreateEntityFromEntity</text>
</a>
</g>
</g>
<!-- np3/func_801C6458&#45;&gt;np3/CreateEntityFromEntity -->
<g id="edge3" class="edge">
<title>np3/func_801C6458&#45;&gt;np3/CreateEntityFromEntity</title>
<path fill="none" stroke="black" d="M503.05,-87.41C521.97,-74.33 548.56,-55.96 569.41,-41.55"/>
<polygon fill="black" stroke="black" points="571.43,-44.4 577.67,-35.84 567.45,-38.65 571.43,-44.4"/>
<text text-anchor="middle" x="553.04" y="-57.8" font-family="Times,serif" font-size="14.00">1</text>
</g>
<!-- np3/g_api_PlaySfx -->
<g id="node5" class="node">
<title>np3/g_api_PlaySfx</title>
<g id="a_node5"><a xlink:href="g_api_PlaySfx.svg" xlink:title="np3/g_api_PlaySfx">
<ellipse fill="lightblue" stroke="black" cx="860.04" cy="-18" rx="94.78" ry="18"/>
<text text-anchor="middle" x="860.04" y="-14.3" font-family="Times,serif" font-size="14.00">np3/g_api_PlaySfx</text>
</a>
</g>
</g>
<!-- np3/func_801C6458&#45;&gt;np3/g_api_PlaySfx -->
<g id="edge4" class="edge">
<title>np3/func_801C6458&#45;&gt;np3/g_api_PlaySfx</title>
<path fill="none" stroke="black" d="M539.83,-90.44C608.35,-75.15 719.52,-50.35 791.19,-34.36"/>
<polygon fill="black" stroke="black" points="792.03,-37.76 801.03,-32.16 790.51,-30.93 792.03,-37.76"/>
<text text-anchor="middle" x="697.04" y="-57.8" font-family="Times,serif" font-size="14.00">1</text>
</g>
<!-- np3/EntityMerman -->
<g id="node6" class="node">
<title>np3/EntityMerman</title>
<g id="a_node6"><a xlink:href="EntityMerman.svg" xlink:title="np3/EntityMerman">
<ellipse fill="red" stroke="black" cx="369.04" cy="-192" rx="98.58" ry="18"/>
<text text-anchor="middle" x="369.04" y="-188.3" font-family="Times,serif" font-size="14.00">np3/EntityMerman</text>
</a>
</g>
</g>
<!-- np3/EntityMerman&#45;&gt;np3/func_801C6458 -->
<g id="edge5" class="edge">
<title>np3/EntityMerman&#45;&gt;np3/func_801C6458</title>
<path fill="none" stroke="black" d="M390.51,-174.41C407.21,-161.51 430.58,-143.45 449.11,-129.13"/>
<polygon fill="black" stroke="black" points="451.47,-131.72 457.25,-122.84 447.19,-126.18 451.47,-131.72"/>
<text text-anchor="middle" x="436.04" y="-144.8" font-family="Times,serif" font-size="14.00">4</text>
</g>
<!-- np3/EntityMerman2 -->
<g id="node7" class="node">
<title>np3/EntityMerman2</title>
<g id="a_node7"><a xlink:href="EntityMerman2.svg" xlink:title="np3/EntityMerman2">
<ellipse fill="green" stroke="black" cx="590.04" cy="-192" rx="104.78" ry="18"/>
<text text-anchor="middle" x="590.04" y="-188.3" font-family="Times,serif" font-size="14.00">np3/EntityMerman2</text>
</a>
</g>
</g>
<!-- np3/EntityMerman2&#45;&gt;np3/func_801C6458 -->
<g id="edge6" class="edge">
<title>np3/EntityMerman2&#45;&gt;np3/func_801C6458</title>
<path fill="none" stroke="black" d="M568.11,-174.21C551.23,-161.28 527.73,-143.28 509.1,-129.02"/>
<polygon fill="black" stroke="black" points="510.99,-126.06 500.92,-122.76 506.73,-131.62 510.99,-126.06"/>
<text text-anchor="middle" x="547.04" y="-144.8" font-family="Times,serif" font-size="14.00">5</text>
</g>
</g>
</svg>
