<?xml version="1.0" encoding="UTF-8" standalone="no"?>
<!DOCTYPE svg PUBLIC "-//W3C//DTD SVG 1.1//EN"
 "http://www.w3.org/Graphics/SVG/1.1/DTD/svg11.dtd">
<!-- Generated by graphviz version 2.43.0 (0)
 -->
<!-- Title: func_13F000_8017ADC8 Pages: 1 -->
<svg width="1917pt" height="131pt"
 viewBox="0.00 0.00 1917.27 131.00" xmlns="http://www.w3.org/2000/svg" xmlns:xlink="http://www.w3.org/1999/xlink">
<g id="graph0" class="graph" transform="scale(1 1) rotate(0) translate(4 127)">
<title>func_13F000_8017ADC8</title>
<polygon fill="white" stroke="transparent" points="-4,4 -4,-127 1913.27,-127 1913.27,4 -4,4"/>
<!-- weapon/func_13F000_8017ADC8 -->
<g id="node1" class="node">
<title>weapon/func_13F000_8017ADC8</title>
<ellipse fill="red" stroke="black" cx="916.84" cy="-105" rx="163.27" ry="18"/>
<text text-anchor="middle" x="916.84" y="-101.3" font-family="Times,serif" font-size="14.00">weapon/func_13F000_8017ADC8</text>
</g>
<!-- weapon/func_13F000_8017A47C -->
<g id="node2" class="node">
<title>weapon/func_13F000_8017A47C</title>
<g id="a_node2"><a xlink:href="func_13F000_8017A47C.svg" xlink:title="weapon/func_13F000_8017A47C">
<ellipse fill="red" stroke="black" cx="161.84" cy="-18" rx="161.67" ry="18"/>
<text text-anchor="middle" x="161.84" y="-14.3" font-family="Times,serif" font-size="14.00">weapon/func_13F000_8017A47C</text>
</a>
</g>
</g>
<!-- weapon/func_13F000_8017ADC8&#45;&gt;weapon/func_13F000_8017A47C -->
<g id="edge1" class="edge">
<title>weapon/func_13F000_8017ADC8&#45;&gt;weapon/func_13F000_8017A47C</title>
<path fill="none" stroke="black" d="M807.05,-91.64C667.06,-75.88 425.88,-48.73 281.37,-32.46"/>
<polygon fill="black" stroke="black" points="281.47,-28.95 271.14,-31.31 280.68,-35.9 281.47,-28.95"/>
<text text-anchor="middle" x="589.84" y="-57.8" font-family="Times,serif" font-size="14.00">1</text>
</g>
<!-- weapon/g_api_PlaySfx -->
<g id="node3" class="node">
<title>weapon/g_api_PlaySfx</title>
<g id="a_node3"><a xlink:href="g_api_PlaySfx.svg" xlink:title="weapon/g_api_PlaySfx">
<ellipse fill="lightblue" stroke="black" cx="454.84" cy="-18" rx="113.18" ry="18"/>
<text text-anchor="middle" x="454.84" y="-14.3" font-family="Times,serif" font-size="14.00">weapon/g_api_PlaySfx</text>
</a>
</g>
</g>
<!-- weapon/func_13F000_8017ADC8&#45;&gt;weapon/g_api_PlaySfx -->
<g id="edge2" class="edge">
<title>weapon/func_13F000_8017ADC8&#45;&gt;weapon/g_api_PlaySfx</title>
<path fill="none" stroke="black" d="M836.89,-89.29C752.63,-73.79 620.64,-49.5 535.94,-33.92"/>
<polygon fill="black" stroke="black" points="536.33,-30.43 525.86,-32.07 535.06,-37.32 536.33,-30.43"/>
<text text-anchor="middle" x="718.84" y="-57.8" font-family="Times,serif" font-size="14.00">3</text>
</g>
<!-- weapon/func_13F000_8017A718 -->
<g id="node4" class="node">
<title>weapon/func_13F000_8017A718</title>
<g id="a_node4"><a xlink:href="func_13F000_8017A718.svg" xlink:title="weapon/func_13F000_8017A718">
<ellipse fill="red" stroke="black" cx="746.84" cy="-18" rx="161.37" ry="18"/>
<text text-anchor="middle" x="746.84" y="-14.3" font-family="Times,serif" font-size="14.00">weapon/func_13F000_8017A718</text>
</a>
</g>
</g>
<!-- weapon/func_13F000_8017ADC8&#45;&gt;weapon/func_13F000_8017A718 -->
<g id="edge3" class="edge">
<title>weapon/func_13F000_8017ADC8&#45;&gt;weapon/func_13F000_8017A718</title>
<path fill="none" stroke="black" d="M883.25,-87.21C856.27,-73.72 818.22,-54.69 789.16,-40.16"/>
<polygon fill="black" stroke="black" points="790.57,-36.96 780.06,-35.61 787.44,-43.22 790.57,-36.96"/>
<text text-anchor="middle" x="847.84" y="-57.8" font-family="Times,serif" font-size="14.00">2</text>
</g>
<!-- weapon/func_13F000_8017A584 -->
<g id="node5" class="node">
<title>weapon/func_13F000_8017A584</title>
<g id="a_node5"><a xlink:href="func_13F000_8017A584.svg" xlink:title="weapon/func_13F000_8017A584">
<ellipse fill="red" stroke="black" cx="1086.84" cy="-18" rx="161.37" ry="18"/>
<text text-anchor="middle" x="1086.84" y="-14.3" font-family="Times,serif" font-size="14.00">weapon/func_13F000_8017A584</text>
</a>
</g>
</g>
<!-- weapon/func_13F000_8017ADC8&#45;&gt;weapon/func_13F000_8017A584 -->
<g id="edge4" class="edge">
<title>weapon/func_13F000_8017ADC8&#45;&gt;weapon/func_13F000_8017A584</title>
<path fill="none" stroke="black" d="M950.42,-87.21C977.4,-73.72 1015.45,-54.69 1044.51,-40.16"/>
<polygon fill="black" stroke="black" points="1046.23,-43.22 1053.61,-35.61 1043.1,-36.96 1046.23,-43.22"/>
<text text-anchor="middle" x="1017.84" y="-57.8" font-family="Times,serif" font-size="14.00">2</text>
</g>
<!-- weapon/func_13F000_8017A4F4 -->
<g id="node6" class="node">
<title>weapon/func_13F000_8017A4F4</title>
<g id="a_node6"><a xlink:href="func_13F000_8017A4F4.svg" xlink:title="weapon/func_13F000_8017A4F4">
<ellipse fill="red" stroke="black" cx="1426.84" cy="-18" rx="161.37" ry="18"/>
<text text-anchor="middle" x="1426.84" y="-14.3" font-family="Times,serif" font-size="14.00">weapon/func_13F000_8017A4F4</text>
</a>
</g>
</g>
<!-- weapon/func_13F000_8017ADC8&#45;&gt;weapon/func_13F000_8017A4F4 -->
<g id="edge5" class="edge">
<title>weapon/func_13F000_8017ADC8&#45;&gt;weapon/func_13F000_8017A4F4</title>
<path fill="none" stroke="black" d="M1002.77,-89.68C1093.57,-74.54 1236.42,-50.74 1330.85,-35"/>
<polygon fill="black" stroke="black" points="1331.68,-38.41 1340.97,-33.31 1330.53,-31.5 1331.68,-38.41"/>
<text text-anchor="middle" x="1207.84" y="-57.8" font-family="Times,serif" font-size="14.00">1</text>
</g>
<!-- weapon/g_api_func_8011AAFC -->
<g id="node7" class="node">
<title>weapon/g_api_func_8011AAFC</title>
<g id="a_node7"><a xlink:href="g_api_func_8011AAFC.svg" xlink:title="weapon/g_api_func_8011AAFC">
<ellipse fill="lightblue" stroke="black" cx="1757.84" cy="-18" rx="151.37" ry="18"/>
<text text-anchor="middle" x="1757.84" y="-14.3" font-family="Times,serif" font-size="14.00">weapon/g_api_func_8011AAFC</text>
</a>
</g>
</g>
<!-- weapon/func_13F000_8017ADC8&#45;&gt;weapon/g_api_func_8011AAFC -->
<g id="edge6" class="edge">
<title>weapon/func_13F000_8017ADC8&#45;&gt;weapon/g_api_func_8011AAFC</title>
<path fill="none" stroke="black" d="M1034.18,-92.46C1169.73,-79.09 1399.44,-56.29 1596.84,-36 1610.45,-34.6 1624.7,-33.12 1638.87,-31.64"/>
<polygon fill="black" stroke="black" points="1639.58,-35.08 1649.16,-30.56 1638.85,-28.12 1639.58,-35.08"/>
<text text-anchor="middle" x="1415.84" y="-57.8" font-family="Times,serif" font-size="14.00">1</text>
</g>
</g>
</svg>
