<?xml version="1.0" encoding="UTF-8" standalone="no"?>
<!DOCTYPE svg PUBLIC "-//W3C//DTD SVG 1.1//EN"
 "http://www.w3.org/Graphics/SVG/1.1/DTD/svg11.dtd">
<!-- Generated by graphviz version 2.43.0 (0)
 -->
<!-- Title: func_B000_8017BCCC Pages: 1 -->
<svg width="1348pt" height="131pt"
 viewBox="0.00 0.00 1348.03 131.00" xmlns="http://www.w3.org/2000/svg" xmlns:xlink="http://www.w3.org/1999/xlink">
<g id="graph0" class="graph" transform="scale(1 1) rotate(0) translate(4 127)">
<title>func_B000_8017BCCC</title>
<polygon fill="white" stroke="transparent" points="-4,4 -4,-127 1344.03,-127 1344.03,4 -4,4"/>
<!-- weapon/func_B000_8017BCCC -->
<g id="node1" class="node">
<title>weapon/func_B000_8017BCCC</title>
<ellipse fill="red" stroke="black" cx="749.19" cy="-105" rx="153.27" ry="18"/>
<text text-anchor="middle" x="749.19" y="-101.3" font-family="Times,serif" font-size="14.00">weapon/func_B000_8017BCCC</text>
</g>
<!-- weapon/g_api_AllocPrimitives -->
<g id="node2" class="node">
<title>weapon/g_api_AllocPrimitives</title>
<g id="a_node2"><a xlink:href="g_api_AllocPrimitives.svg" xlink:title="weapon/g_api_AllocPrimitives">
<ellipse fill="lightblue" stroke="black" cx="148.19" cy="-18" rx="148.37" ry="18"/>
<text text-anchor="middle" x="148.19" y="-14.3" font-family="Times,serif" font-size="14.00">weapon/g_api_AllocPrimitives</text>
</a>
</g>
</g>
<!-- weapon/func_B000_8017BCCC&#45;&gt;weapon/g_api_AllocPrimitives -->
<g id="edge1" class="edge">
<title>weapon/func_B000_8017BCCC&#45;&gt;weapon/g_api_AllocPrimitives</title>
<path fill="none" stroke="black" d="M655.28,-90.72C545.52,-75.2 364.49,-49.59 251.03,-33.54"/>
<polygon fill="black" stroke="black" points="251.33,-30.05 240.94,-32.12 250.35,-36.98 251.33,-30.05"/>
<text text-anchor="middle" x="490.19" y="-57.8" font-family="Times,serif" font-size="14.00">1</text>
</g>
<!-- weapon/func_B000_8017B2B8 -->
<g id="node3" class="node">
<title>weapon/func_B000_8017B2B8</title>
<g id="a_node3"><a xlink:href="func_B000_8017B2B8.svg" xlink:title="weapon/func_B000_8017B2B8">
<ellipse fill="red" stroke="black" cx="466.19" cy="-18" rx="151.37" ry="18"/>
<text text-anchor="middle" x="466.19" y="-14.3" font-family="Times,serif" font-size="14.00">weapon/func_B000_8017B2B8</text>
</a>
</g>
</g>
<!-- weapon/func_B000_8017BCCC&#45;&gt;weapon/func_B000_8017B2B8 -->
<g id="edge2" class="edge">
<title>weapon/func_B000_8017BCCC&#45;&gt;weapon/func_B000_8017B2B8</title>
<path fill="none" stroke="black" d="M695.96,-88.01C648.52,-73.77 579.06,-52.9 528.93,-37.85"/>
<polygon fill="black" stroke="black" points="529.76,-34.44 519.18,-34.92 527.75,-41.14 529.76,-34.44"/>
<text text-anchor="middle" x="630.19" y="-57.8" font-family="Times,serif" font-size="14.00">1</text>
</g>
<!-- weapon/g_api_PlaySfx -->
<g id="node4" class="node">
<title>weapon/g_api_PlaySfx</title>
<g id="a_node4"><a xlink:href="g_api_PlaySfx.svg" xlink:title="weapon/g_api_PlaySfx">
<ellipse fill="lightblue" stroke="black" cx="749.19" cy="-18" rx="113.18" ry="18"/>
<text text-anchor="middle" x="749.19" y="-14.3" font-family="Times,serif" font-size="14.00">weapon/g_api_PlaySfx</text>
</a>
</g>
</g>
<!-- weapon/func_B000_8017BCCC&#45;&gt;weapon/g_api_PlaySfx -->
<g id="edge3" class="edge">
<title>weapon/func_B000_8017BCCC&#45;&gt;weapon/g_api_PlaySfx</title>
<path fill="none" stroke="black" d="M749.19,-86.8C749.19,-75.16 749.19,-59.55 749.19,-46.24"/>
<polygon fill="black" stroke="black" points="752.69,-46.18 749.19,-36.18 745.69,-46.18 752.69,-46.18"/>
<text text-anchor="middle" x="754.19" y="-57.8" font-family="Times,serif" font-size="14.00">2</text>
</g>
<!-- weapon/func_B000_8017B014 -->
<g id="node5" class="node">
<title>weapon/func_B000_8017B014</title>
<g id="a_node5"><a xlink:href="func_B000_8017B014.svg" xlink:title="weapon/func_B000_8017B014">
<ellipse fill="red" stroke="black" cx="1030.19" cy="-18" rx="150.27" ry="18"/>
<text text-anchor="middle" x="1030.19" y="-14.3" font-family="Times,serif" font-size="14.00">weapon/func_B000_8017B014</text>
</a>
</g>
</g>
<!-- weapon/func_B000_8017BCCC&#45;&gt;weapon/func_B000_8017B014 -->
<g id="edge4" class="edge">
<title>weapon/func_B000_8017BCCC&#45;&gt;weapon/func_B000_8017B014</title>
<path fill="none" stroke="black" d="M802.04,-88.01C849.14,-73.77 918.12,-52.9 967.88,-37.85"/>
<polygon fill="black" stroke="black" points="969.01,-41.16 977.57,-34.92 966.98,-34.46 969.01,-41.16"/>
<text text-anchor="middle" x="912.19" y="-57.8" font-family="Times,serif" font-size="14.00">1</text>
</g>
<!-- weapon/rand -->
<g id="node6" class="node">
<title>weapon/rand</title>
<g id="a_node6"><a xlink:href="rand.svg" xlink:title="weapon/rand">
<ellipse fill="lightblue" stroke="black" cx="1269.19" cy="-18" rx="70.69" ry="18"/>
<text text-anchor="middle" x="1269.19" y="-14.3" font-family="Times,serif" font-size="14.00">weapon/rand</text>
</a>
</g>
</g>
<!-- weapon/func_B000_8017BCCC&#45;&gt;weapon/rand -->
<g id="edge5" class="edge">
<title>weapon/func_B000_8017BCCC&#45;&gt;weapon/rand</title>
<path fill="none" stroke="black" d="M844.29,-90.87C933.58,-78.18 1070.77,-57.71 1189.19,-36 1195.24,-34.89 1201.53,-33.67 1207.81,-32.41"/>
<polygon fill="black" stroke="black" points="1208.53,-35.83 1217.63,-30.4 1207.13,-28.97 1208.53,-35.83"/>
<text text-anchor="middle" x="1086.19" y="-57.8" font-family="Times,serif" font-size="14.00">2</text>
</g>
</g>
</svg>
