<?xml version="1.0" encoding="UTF-8" standalone="no"?>
<!DOCTYPE svg PUBLIC "-//W3C//DTD SVG 1.1//EN"
 "http://www.w3.org/Graphics/SVG/1.1/DTD/svg11.dtd">
<!-- Generated by graphviz version 2.43.0 (0)
 -->
<!-- Title: func_8012CB4C Pages: 1 -->
<svg width="878pt" height="218pt"
 viewBox="0.00 0.00 878.08 218.00" xmlns="http://www.w3.org/2000/svg" xmlns:xlink="http://www.w3.org/1999/xlink">
<g id="graph0" class="graph" transform="scale(1 1) rotate(0) translate(4 214)">
<title>func_8012CB4C</title>
<polygon fill="white" stroke="transparent" points="-4,4 -4,-214 874.08,-214 874.08,4 -4,4"/>
<!-- dra/func_8012CB4C -->
<g id="node1" class="node">
<title>dra/func_8012CB4C</title>
<ellipse fill="green" stroke="black" cx="436.69" cy="-105" rx="103.18" ry="18"/>
<text text-anchor="middle" x="436.69" y="-101.3" font-family="Times,serif" font-size="14.00">dra/func_8012CB4C</text>
</g>
<!-- dra/func_8010DA48 -->
<g id="node2" class="node">
<title>dra/func_8010DA48</title>
<g id="a_node2"><a xlink:href="func_8010DA48.svg" xlink:title="dra/func_8010DA48">
<ellipse fill="green" stroke="black" cx="336.69" cy="-18" rx="102.88" ry="18"/>
<text text-anchor="middle" x="336.69" y="-14.3" font-family="Times,serif" font-size="14.00">dra/func_8010DA48</text>
</a>
</g>
</g>
<!-- dra/func_8012CB4C&#45;&gt;dra/func_8010DA48 -->
<g id="edge1" class="edge">
<title>dra/func_8012CB4C&#45;&gt;dra/func_8010DA48</title>
<path fill="none" stroke="black" d="M416.93,-87.21C401.87,-74.4 380.93,-56.61 364.23,-42.4"/>
<polygon fill="black" stroke="black" points="366.29,-39.57 356.41,-35.76 361.76,-44.9 366.29,-39.57"/>
<text text-anchor="middle" x="397.69" y="-57.8" font-family="Times,serif" font-size="14.00">3</text>
</g>
<!-- dra/SetSpeedX -->
<g id="node3" class="node">
<title>dra/SetSpeedX</title>
<g id="a_node3"><a xlink:href="SetSpeedX.svg" xlink:title="dra/SetSpeedX">
<ellipse fill="green" stroke="black" cx="537.69" cy="-18" rx="79.89" ry="18"/>
<text text-anchor="middle" x="537.69" y="-14.3" font-family="Times,serif" font-size="14.00">dra/SetSpeedX</text>
</a>
</g>
</g>
<!-- dra/func_8012CB4C&#45;&gt;dra/SetSpeedX -->
<g id="edge2" class="edge">
<title>dra/func_8012CB4C&#45;&gt;dra/SetSpeedX</title>
<path fill="none" stroke="black" d="M456.65,-87.21C471.96,-74.32 493.28,-56.38 510.21,-42.13"/>
<polygon fill="black" stroke="black" points="512.72,-44.59 518.12,-35.47 508.22,-39.23 512.72,-44.59"/>
<text text-anchor="middle" x="498.69" y="-57.8" font-family="Times,serif" font-size="14.00">1</text>
</g>
<!-- dra/func_8012D3E8 -->
<g id="node4" class="node">
<title>dra/func_8012D3E8</title>
<g id="a_node4"><a xlink:href="func_8012D3E8.svg" xlink:title="dra/func_8012D3E8">
<ellipse fill="red" stroke="black" cx="102.69" cy="-192" rx="102.88" ry="18"/>
<text text-anchor="middle" x="102.69" y="-188.3" font-family="Times,serif" font-size="14.00">dra/func_8012D3E8</text>
</a>
</g>
</g>
<!-- dra/func_8012D3E8&#45;&gt;dra/func_8012CB4C -->
<g id="edge3" class="edge">
<title>dra/func_8012D3E8&#45;&gt;dra/func_8012CB4C</title>
<path fill="none" stroke="black" d="M158.59,-176.77C217.09,-161.89 308.85,-138.53 370.82,-122.76"/>
<polygon fill="black" stroke="black" points="372.06,-126.06 380.88,-120.2 370.33,-119.28 372.06,-126.06"/>
<text text-anchor="middle" x="294.69" y="-144.8" font-family="Times,serif" font-size="14.00">1</text>
</g>
<!-- dra/func_8012D178 -->
<g id="node5" class="node">
<title>dra/func_8012D178</title>
<g id="a_node5"><a xlink:href="func_8012D178.svg" xlink:title="dra/func_8012D178">
<ellipse fill="green" stroke="black" cx="325.69" cy="-192" rx="102.08" ry="18"/>
<text text-anchor="middle" x="325.69" y="-188.3" font-family="Times,serif" font-size="14.00">dra/func_8012D178</text>
</a>
</g>
</g>
<!-- dra/func_8012D178&#45;&gt;dra/func_8012CB4C -->
<g id="edge4" class="edge">
<title>dra/func_8012D178&#45;&gt;dra/func_8012CB4C</title>
<path fill="none" stroke="black" d="M347.36,-174.41C364.28,-161.45 388,-143.28 406.74,-128.93"/>
<polygon fill="black" stroke="black" points="408.89,-131.7 414.7,-122.84 404.63,-126.14 408.89,-131.7"/>
<text text-anchor="middle" x="393.69" y="-144.8" font-family="Times,serif" font-size="14.00">1</text>
</g>
<!-- dra/func_8012D024 -->
<g id="node6" class="node">
<title>dra/func_8012D024</title>
<g id="a_node6"><a xlink:href="func_8012D024.svg" xlink:title="dra/func_8012D024">
<ellipse fill="red" stroke="black" cx="547.69" cy="-192" rx="102.08" ry="18"/>
<text text-anchor="middle" x="547.69" y="-188.3" font-family="Times,serif" font-size="14.00">dra/func_8012D024</text>
</a>
</g>
</g>
<!-- dra/func_8012D024&#45;&gt;dra/func_8012CB4C -->
<g id="edge5" class="edge">
<title>dra/func_8012D024&#45;&gt;dra/func_8012CB4C</title>
<path fill="none" stroke="black" d="M526.03,-174.41C509.1,-161.45 485.38,-143.28 466.64,-128.93"/>
<polygon fill="black" stroke="black" points="468.75,-126.14 458.68,-122.84 464.49,-131.7 468.75,-126.14"/>
<text text-anchor="middle" x="504.69" y="-144.8" font-family="Times,serif" font-size="14.00">1</text>
</g>
<!-- dra/func_8012E040 -->
<g id="node7" class="node">
<title>dra/func_8012E040</title>
<g id="a_node7"><a xlink:href="func_8012E040.svg" xlink:title="dra/func_8012E040">
<ellipse fill="red" stroke="black" cx="768.69" cy="-192" rx="101.28" ry="18"/>
<text text-anchor="middle" x="768.69" y="-188.3" font-family="Times,serif" font-size="14.00">dra/func_8012E040</text>
</a>
</g>
</g>
<!-- dra/func_8012E040&#45;&gt;dra/func_8012CB4C -->
<g id="edge6" class="edge">
<title>dra/func_8012E040&#45;&gt;dra/func_8012CB4C</title>
<path fill="none" stroke="black" d="M713.5,-176.87C655.42,-162 564.05,-138.61 502.32,-122.8"/>
<polygon fill="black" stroke="black" points="502.85,-119.33 492.3,-120.24 501.12,-126.11 502.85,-119.33"/>
<text text-anchor="middle" x="627.69" y="-144.8" font-family="Times,serif" font-size="14.00">1</text>
</g>
</g>
</svg>
