<?xml version="1.0" encoding="UTF-8" standalone="no"?>
<!DOCTYPE svg PUBLIC "-//W3C//DTD SVG 1.1//EN"
 "http://www.w3.org/Graphics/SVG/1.1/DTD/svg11.dtd">
<!-- Generated by graphviz version 2.43.0 (0)
 -->
<!-- Title: func_3C000_8017AEEC Pages: 1 -->
<svg width="1312pt" height="131pt"
 viewBox="0.00 0.00 1312.02 131.00" xmlns="http://www.w3.org/2000/svg" xmlns:xlink="http://www.w3.org/1999/xlink">
<g id="graph0" class="graph" transform="scale(1 1) rotate(0) translate(4 127)">
<title>func_3C000_8017AEEC</title>
<polygon fill="white" stroke="transparent" points="-4,4 -4,-127 1308.02,-127 1308.02,4 -4,4"/>
<!-- weapon/func_3C000_8017AEEC -->
<g id="node1" class="node">
<title>weapon/func_3C000_8017AEEC</title>
<ellipse fill="red" stroke="black" cx="654.64" cy="-105" rx="158.67" ry="18"/>
<text text-anchor="middle" x="654.64" y="-101.3" font-family="Times,serif" font-size="14.00">weapon/func_3C000_8017AEEC</text>
</g>
<!-- weapon/func_3C000_8017AC50 -->
<g id="node2" class="node">
<title>weapon/func_3C000_8017AC50</title>
<g id="a_node2"><a xlink:href="func_3C000_8017AC50.svg" xlink:title="weapon/func_3C000_8017AC50">
<ellipse fill="red" stroke="black" cx="156.64" cy="-18" rx="156.77" ry="18"/>
<text text-anchor="middle" x="156.64" y="-14.3" font-family="Times,serif" font-size="14.00">weapon/func_3C000_8017AC50</text>
</a>
</g>
</g>
<!-- weapon/func_3C000_8017AEEC&#45;&gt;weapon/func_3C000_8017AC50 -->
<g id="edge1" class="edge">
<title>weapon/func_3C000_8017AEEC&#45;&gt;weapon/func_3C000_8017AC50</title>
<path fill="none" stroke="black" d="M570.72,-89.68C481.93,-74.52 342.15,-50.66 249.95,-34.93"/>
<polygon fill="black" stroke="black" points="250.51,-31.47 240.06,-33.24 249.33,-38.37 250.51,-31.47"/>
<text text-anchor="middle" x="440.64" y="-57.8" font-family="Times,serif" font-size="14.00">1</text>
</g>
<!-- weapon/func_3C000_8017ADF0 -->
<g id="node3" class="node">
<title>weapon/func_3C000_8017ADF0</title>
<g id="a_node3"><a xlink:href="func_3C000_8017ADF0.svg" xlink:title="weapon/func_3C000_8017ADF0">
<ellipse fill="red" stroke="black" cx="488.64" cy="-18" rx="157.07" ry="18"/>
<text text-anchor="middle" x="488.64" y="-14.3" font-family="Times,serif" font-size="14.00">weapon/func_3C000_8017ADF0</text>
</a>
</g>
</g>
<!-- weapon/func_3C000_8017AEEC&#45;&gt;weapon/func_3C000_8017ADF0 -->
<g id="edge2" class="edge">
<title>weapon/func_3C000_8017AEEC&#45;&gt;weapon/func_3C000_8017ADF0</title>
<path fill="none" stroke="black" d="M621.84,-87.21C595.61,-73.78 558.66,-54.86 530.33,-40.35"/>
<polygon fill="black" stroke="black" points="531.58,-37.06 521.08,-35.61 528.39,-43.29 531.58,-37.06"/>
<text text-anchor="middle" x="586.64" y="-57.8" font-family="Times,serif" font-size="14.00">1</text>
</g>
<!-- weapon/func_3C000_8017AB4C -->
<g id="node4" class="node">
<title>weapon/func_3C000_8017AB4C</title>
<g id="a_node4"><a xlink:href="func_3C000_8017AB4C.svg" xlink:title="weapon/func_3C000_8017AB4C">
<ellipse fill="red" stroke="black" cx="821.64" cy="-18" rx="157.07" ry="18"/>
<text text-anchor="middle" x="821.64" y="-14.3" font-family="Times,serif" font-size="14.00">weapon/func_3C000_8017AB4C</text>
</a>
</g>
</g>
<!-- weapon/func_3C000_8017AEEC&#45;&gt;weapon/func_3C000_8017AB4C -->
<g id="edge3" class="edge">
<title>weapon/func_3C000_8017AEEC&#45;&gt;weapon/func_3C000_8017AB4C</title>
<path fill="none" stroke="black" d="M687.63,-87.21C714.13,-73.72 751.51,-54.69 780.06,-40.16"/>
<polygon fill="black" stroke="black" points="781.67,-43.27 789,-35.61 778.5,-37.03 781.67,-43.27"/>
<text text-anchor="middle" x="753.64" y="-57.8" font-family="Times,serif" font-size="14.00">1</text>
</g>
<!-- weapon/g_api_func_8010DBFC -->
<g id="node5" class="node">
<title>weapon/g_api_func_8010DBFC</title>
<g id="a_node5"><a xlink:href="g_api_func_8010DBFC.svg" xlink:title="weapon/g_api_func_8010DBFC">
<ellipse fill="lightblue" stroke="black" cx="1150.64" cy="-18" rx="153.27" ry="18"/>
<text text-anchor="middle" x="1150.64" y="-14.3" font-family="Times,serif" font-size="14.00">weapon/g_api_func_8010DBFC</text>
</a>
</g>
</g>
<!-- weapon/func_3C000_8017AEEC&#45;&gt;weapon/g_api_func_8010DBFC -->
<g id="edge4" class="edge">
<title>weapon/func_3C000_8017AEEC&#45;&gt;weapon/g_api_func_8010DBFC</title>
<path fill="none" stroke="black" d="M738.21,-89.68C826.7,-74.51 966,-50.64 1057.83,-34.9"/>
<polygon fill="black" stroke="black" points="1058.69,-38.31 1067.96,-33.17 1057.51,-31.41 1058.69,-38.31"/>
<text text-anchor="middle" x="937.64" y="-57.8" font-family="Times,serif" font-size="14.00">1</text>
</g>
</g>
</svg>
