<?xml version="1.0" encoding="UTF-8" standalone="no"?>
<!DOCTYPE svg PUBLIC "-//W3C//DTD SVG 1.1//EN"
 "http://www.w3.org/Graphics/SVG/1.1/DTD/svg11.dtd">
<!-- Generated by graphviz version 2.43.0 (0)
 -->
<!-- Title: func_80133960 Pages: 1 -->
<svg width="1007pt" height="218pt"
 viewBox="0.00 0.00 1006.78 218.00" xmlns="http://www.w3.org/2000/svg" xmlns:xlink="http://www.w3.org/1999/xlink">
<g id="graph0" class="graph" transform="scale(1 1) rotate(0) translate(4 214)">
<title>func_80133960</title>
<polygon fill="white" stroke="transparent" points="-4,4 -4,-214 1002.78,-214 1002.78,4 -4,4"/>
<!-- dra/func_80133960 -->
<g id="node1" class="node">
<title>dra/func_80133960</title>
<ellipse fill="red" stroke="black" cx="456.39" cy="-105" rx="100.98" ry="18"/>
<text text-anchor="middle" x="456.39" y="-101.3" font-family="Times,serif" font-size="14.00">dra/func_80133960</text>
</g>
<!-- dra/func_801324B4 -->
<g id="node2" class="node">
<title>dra/func_801324B4</title>
<g id="a_node2"><a xlink:href="func_801324B4.svg" xlink:title="dra/func_801324B4">
<ellipse fill="green" stroke="black" cx="101.39" cy="-18" rx="101.28" ry="18"/>
<text text-anchor="middle" x="101.39" y="-14.3" font-family="Times,serif" font-size="14.00">dra/func_801324B4</text>
</a>
</g>
</g>
<!-- dra/func_80133960&#45;&gt;dra/func_801324B4 -->
<g id="edge1" class="edge">
<title>dra/func_80133960&#45;&gt;dra/func_801324B4</title>
<path fill="none" stroke="black" d="M398.56,-90.15C335.77,-75.12 235.58,-51.13 169.15,-35.22"/>
<polygon fill="black" stroke="black" points="169.73,-31.76 159.19,-32.84 168.1,-38.57 169.73,-31.76"/>
<text text-anchor="middle" x="305.39" y="-57.8" font-family="Times,serif" font-size="14.00">1</text>
</g>
<!-- dra/VSync -->
<g id="node3" class="node">
<title>dra/VSync</title>
<g id="a_node3"><a xlink:href="VSync.svg" xlink:title="dra/VSync">
<ellipse fill="red" stroke="black" cx="278.39" cy="-18" rx="57.69" ry="18"/>
<text text-anchor="middle" x="278.39" y="-14.3" font-family="Times,serif" font-size="14.00">dra/VSync</text>
</a>
</g>
</g>
<!-- dra/func_80133960&#45;&gt;dra/VSync -->
<g id="edge2" class="edge">
<title>dra/func_80133960&#45;&gt;dra/VSync</title>
<path fill="none" stroke="black" d="M422.91,-88.01C393.16,-73.8 349.62,-53.01 318.12,-37.97"/>
<polygon fill="black" stroke="black" points="319.29,-34.65 308.75,-33.5 316.27,-40.97 319.29,-34.65"/>
<text text-anchor="middle" x="383.39" y="-57.8" font-family="Times,serif" font-size="14.00">1</text>
</g>
<!-- dra/SsSetSerialAttr -->
<g id="node4" class="node">
<title>dra/SsSetSerialAttr</title>
<g id="a_node4"><a xlink:href="SsSetSerialAttr.svg" xlink:title="dra/SsSetSerialAttr">
<ellipse fill="lightblue" stroke="black" cx="456.39" cy="-18" rx="102.08" ry="18"/>
<text text-anchor="middle" x="456.39" y="-14.3" font-family="Times,serif" font-size="14.00">dra/SsSetSerialAttr</text>
</a>
</g>
</g>
<!-- dra/func_80133960&#45;&gt;dra/SsSetSerialAttr -->
<g id="edge3" class="edge">
<title>dra/func_80133960&#45;&gt;dra/SsSetSerialAttr</title>
<path fill="none" stroke="black" d="M456.39,-86.8C456.39,-75.16 456.39,-59.55 456.39,-46.24"/>
<polygon fill="black" stroke="black" points="459.89,-46.18 456.39,-36.18 452.89,-46.18 459.89,-46.18"/>
<text text-anchor="middle" x="461.39" y="-57.8" font-family="Times,serif" font-size="14.00">1</text>
</g>
<!-- dra/func_80132028 -->
<g id="node5" class="node">
<title>dra/func_80132028</title>
<g id="a_node5"><a xlink:href="func_80132028.svg" xlink:title="dra/func_80132028">
<ellipse fill="green" stroke="black" cx="677.39" cy="-18" rx="100.98" ry="18"/>
<text text-anchor="middle" x="677.39" y="-14.3" font-family="Times,serif" font-size="14.00">dra/func_80132028</text>
</a>
</g>
</g>
<!-- dra/func_80133960&#45;&gt;dra/func_80132028 -->
<g id="edge4" class="edge">
<title>dra/func_80133960&#45;&gt;dra/func_80132028</title>
<path fill="none" stroke="black" d="M496.93,-88.41C533.57,-74.32 587.66,-53.51 627.06,-38.36"/>
<polygon fill="black" stroke="black" points="628.66,-41.49 636.74,-34.64 626.15,-34.96 628.66,-41.49"/>
<text text-anchor="middle" x="585.39" y="-57.8" font-family="Times,serif" font-size="14.00">1</text>
</g>
<!-- dra/func_80132E38 -->
<g id="node6" class="node">
<title>dra/func_80132E38</title>
<g id="a_node6"><a xlink:href="func_80132E38.svg" xlink:title="dra/func_80132E38">
<ellipse fill="green" stroke="black" cx="897.39" cy="-18" rx="101.28" ry="18"/>
<text text-anchor="middle" x="897.39" y="-14.3" font-family="Times,serif" font-size="14.00">dra/func_80132E38</text>
</a>
</g>
</g>
<!-- dra/func_80133960&#45;&gt;dra/func_80132E38 -->
<g id="edge5" class="edge">
<title>dra/func_80133960&#45;&gt;dra/func_80132E38</title>
<path fill="none" stroke="black" d="M522.41,-91.27C602.42,-75.85 736.95,-49.92 821.25,-33.67"/>
<polygon fill="black" stroke="black" points="822.12,-37.07 831.28,-31.74 820.8,-30.2 822.12,-37.07"/>
<text text-anchor="middle" x="707.39" y="-57.8" font-family="Times,serif" font-size="14.00">1</text>
</g>
<!-- dra/func_801353A0 -->
<g id="node7" class="node">
<title>dra/func_801353A0</title>
<g id="a_node7"><a xlink:href="func_801353A0.svg" xlink:title="dra/func_801353A0">
<ellipse fill="green" stroke="black" cx="456.39" cy="-192" rx="100.98" ry="18"/>
<text text-anchor="middle" x="456.39" y="-188.3" font-family="Times,serif" font-size="14.00">dra/func_801353A0</text>
</a>
</g>
</g>
<!-- dra/func_801353A0&#45;&gt;dra/func_80133960 -->
<g id="edge6" class="edge">
<title>dra/func_801353A0&#45;&gt;dra/func_80133960</title>
<path fill="none" stroke="black" d="M456.39,-173.8C456.39,-162.16 456.39,-146.55 456.39,-133.24"/>
<polygon fill="black" stroke="black" points="459.89,-133.18 456.39,-123.18 452.89,-133.18 459.89,-133.18"/>
<text text-anchor="middle" x="461.39" y="-144.8" font-family="Times,serif" font-size="14.00">1</text>
</g>
</g>
</svg>
