<?xml version="1.0" encoding="UTF-8" standalone="no"?>
<!DOCTYPE svg PUBLIC "-//W3C//DTD SVG 1.1//EN"
 "http://www.w3.org/Graphics/SVG/1.1/DTD/svg11.dtd">
<!-- Generated by graphviz version 2.43.0 (0)
 -->
<!-- Title: func_800EAD0C Pages: 1 -->
<svg width="217pt" height="218pt"
 viewBox="0.00 0.00 217.28 218.00" xmlns="http://www.w3.org/2000/svg" xmlns:xlink="http://www.w3.org/1999/xlink">
<g id="graph0" class="graph" transform="scale(1 1) rotate(0) translate(4 214)">
<title>func_800EAD0C</title>
<polygon fill="white" stroke="transparent" points="-4,4 -4,-214 213.28,-214 213.28,4 -4,4"/>
<!-- dra/func_800EAD0C -->
<g id="node1" class="node">
<title>dra/func_800EAD0C</title>
<ellipse fill="green" stroke="black" cx="104.64" cy="-105" rx="104.78" ry="18"/>
<text text-anchor="middle" x="104.64" y="-101.3" font-family="Times,serif" font-size="14.00">dra/func_800EAD0C</text>
</g>
<!-- dra/func_800EA5E4 -->
<g id="node2" class="node">
<title>dra/func_800EA5E4</title>
<g id="a_node2"><a xlink:href="func_800EA5E4.svg" xlink:title="dra/func_800EA5E4">
<ellipse fill="green" stroke="black" cx="104.64" cy="-18" rx="102.88" ry="18"/>
<text text-anchor="middle" x="104.64" y="-14.3" font-family="Times,serif" font-size="14.00">dra/func_800EA5E4</text>
</a>
</g>
</g>
<!-- dra/func_800EAD0C&#45;&gt;dra/func_800EA5E4 -->
<g id="edge1" class="edge">
<title>dra/func_800EAD0C&#45;&gt;dra/func_800EA5E4</title>
<path fill="none" stroke="black" d="M104.64,-86.8C104.64,-75.16 104.64,-59.55 104.64,-46.24"/>
<polygon fill="black" stroke="black" points="108.14,-46.18 104.64,-36.18 101.14,-46.18 108.14,-46.18"/>
<text text-anchor="middle" x="109.64" y="-57.8" font-family="Times,serif" font-size="14.00">6</text>
</g>
<!-- dra/HandlePlay -->
<g id="node3" class="node">
<title>dra/HandlePlay</title>
<g id="a_node3"><a xlink:href="HandlePlay.svg" xlink:title="dra/HandlePlay">
<ellipse fill="green" stroke="black" cx="104.64" cy="-192" rx="82.59" ry="18"/>
<text text-anchor="middle" x="104.64" y="-188.3" font-family="Times,serif" font-size="14.00">dra/HandlePlay</text>
</a>
</g>
</g>
<!-- dra/HandlePlay&#45;&gt;dra/func_800EAD0C -->
<g id="edge2" class="edge">
<title>dra/HandlePlay&#45;&gt;dra/func_800EAD0C</title>
<path fill="none" stroke="black" d="M104.64,-173.8C104.64,-162.16 104.64,-146.55 104.64,-133.24"/>
<polygon fill="black" stroke="black" points="108.14,-133.18 104.64,-123.18 101.14,-133.18 108.14,-133.18"/>
<text text-anchor="middle" x="109.64" y="-144.8" font-family="Times,serif" font-size="14.00">1</text>
</g>
</g>
</svg>
