<?xml version="1.0" encoding="UTF-8" standalone="no"?>
<!DOCTYPE svg PUBLIC "-//W3C//DTD SVG 1.1//EN"
 "http://www.w3.org/Graphics/SVG/1.1/DTD/svg11.dtd">
<!-- Generated by graphviz version 2.43.0 (0)
 -->
<!-- Title: func_801BD9A0 Pages: 1 -->
<svg width="1761pt" height="218pt"
 viewBox="0.00 0.00 1761.13 218.00" xmlns="http://www.w3.org/2000/svg" xmlns:xlink="http://www.w3.org/1999/xlink">
<g id="graph0" class="graph" transform="scale(1 1) rotate(0) translate(4 214)">
<title>func_801BD9A0</title>
<polygon fill="white" stroke="transparent" points="-4,4 -4,-214 1757.13,-214 1757.13,4 -4,4"/>
<!-- nz0/func_801BD9A0 -->
<g id="node1" class="node">
<title>nz0/func_801BD9A0</title>
<ellipse fill="red" stroke="black" cx="935.59" cy="-105" rx="104.78" ry="18"/>
<text text-anchor="middle" x="935.59" y="-101.3" font-family="Times,serif" font-size="14.00">nz0/func_801BD9A0</text>
</g>
<!-- nz0/g_api_func_8010BF64 -->
<g id="node2" class="node">
<title>nz0/g_api_func_8010BF64</title>
<g id="a_node2"><a xlink:href="g_api_func_8010BF64.svg" xlink:title="nz0/g_api_func_8010BF64">
<ellipse fill="lightblue" stroke="black" cx="935.59" cy="-18" rx="131.88" ry="18"/>
<text text-anchor="middle" x="935.59" y="-14.3" font-family="Times,serif" font-size="14.00">nz0/g_api_func_8010BF64</text>
</a>
</g>
</g>
<!-- nz0/func_801BD9A0&#45;&gt;nz0/g_api_func_8010BF64 -->
<g id="edge1" class="edge">
<title>nz0/func_801BD9A0&#45;&gt;nz0/g_api_func_8010BF64</title>
<path fill="none" stroke="black" d="M935.59,-86.8C935.59,-75.16 935.59,-59.55 935.59,-46.24"/>
<polygon fill="black" stroke="black" points="939.09,-46.18 935.59,-36.18 932.09,-46.18 939.09,-46.18"/>
<text text-anchor="middle" x="940.59" y="-57.8" font-family="Times,serif" font-size="14.00">1</text>
</g>
<!-- nz0/EntityBossRoomBlock -->
<g id="node3" class="node">
<title>nz0/EntityBossRoomBlock</title>
<g id="a_node3"><a xlink:href="EntityBossRoomBlock.svg" xlink:title="nz0/EntityBossRoomBlock">
<ellipse fill="green" stroke="black" cx="132.59" cy="-192" rx="132.68" ry="18"/>
<text text-anchor="middle" x="132.59" y="-188.3" font-family="Times,serif" font-size="14.00">nz0/EntityBossRoomBlock</text>
</a>
</g>
</g>
<!-- nz0/EntityBossRoomBlock&#45;&gt;nz0/func_801BD9A0 -->
<g id="edge2" class="edge">
<title>nz0/EntityBossRoomBlock&#45;&gt;nz0/func_801BD9A0</title>
<path fill="none" stroke="black" d="M227.66,-179.4C243.33,-177.55 259.41,-175.69 274.59,-174 473.99,-151.81 707.53,-128.39 836.8,-115.65"/>
<polygon fill="black" stroke="black" points="837.46,-119.1 847.07,-114.63 836.77,-112.13 837.46,-119.1"/>
<text text-anchor="middle" x="587.59" y="-144.8" font-family="Times,serif" font-size="14.00">2</text>
</g>
<!-- nz0/EntityMagicallySealedDoor -->
<g id="node4" class="node">
<title>nz0/EntityMagicallySealedDoor</title>
<g id="a_node4"><a xlink:href="EntityMagicallySealedDoor.svg" xlink:title="nz0/EntityMagicallySealedDoor">
<ellipse fill="red" stroke="black" cx="440.59" cy="-192" rx="157.07" ry="18"/>
<text text-anchor="middle" x="440.59" y="-188.3" font-family="Times,serif" font-size="14.00">nz0/EntityMagicallySealedDoor</text>
</a>
</g>
</g>
<!-- nz0/EntityMagicallySealedDoor&#45;&gt;nz0/func_801BD9A0 -->
<g id="edge3" class="edge">
<title>nz0/EntityMagicallySealedDoor&#45;&gt;nz0/func_801BD9A0</title>
<path fill="none" stroke="black" d="M524,-176.68C616.02,-160.88 763.12,-135.62 854.29,-119.96"/>
<polygon fill="black" stroke="black" points="855.04,-123.38 864.3,-118.24 853.85,-116.48 855.04,-123.38"/>
<text text-anchor="middle" x="723.59" y="-144.8" font-family="Times,serif" font-size="14.00">1</text>
</g>
<!-- nz0/EntityElevator -->
<g id="node5" class="node">
<title>nz0/EntityElevator</title>
<g id="a_node5"><a xlink:href="EntityElevator.svg" xlink:title="nz0/EntityElevator">
<ellipse fill="green" stroke="black" cx="714.59" cy="-192" rx="98.58" ry="18"/>
<text text-anchor="middle" x="714.59" y="-188.3" font-family="Times,serif" font-size="14.00">nz0/EntityElevator</text>
</a>
</g>
</g>
<!-- nz0/EntityElevator&#45;&gt;nz0/func_801BD9A0 -->
<g id="edge4" class="edge">
<title>nz0/EntityElevator&#45;&gt;nz0/func_801BD9A0</title>
<path fill="none" stroke="black" d="M754.87,-175.51C791.48,-161.43 845.65,-140.59 885.14,-125.4"/>
<polygon fill="black" stroke="black" points="886.76,-128.53 894.84,-121.67 884.25,-122 886.76,-128.53"/>
<text text-anchor="middle" x="843.59" y="-144.8" font-family="Times,serif" font-size="14.00">1</text>
</g>
<!-- nz0/EntityElevator2 -->
<g id="node6" class="node">
<title>nz0/EntityElevator2</title>
<g id="a_node6"><a xlink:href="EntityElevator2.svg" xlink:title="nz0/EntityElevator2">
<ellipse fill="green" stroke="black" cx="935.59" cy="-192" rx="104.78" ry="18"/>
<text text-anchor="middle" x="935.59" y="-188.3" font-family="Times,serif" font-size="14.00">nz0/EntityElevator2</text>
</a>
</g>
</g>
<!-- nz0/EntityElevator2&#45;&gt;nz0/func_801BD9A0 -->
<g id="edge5" class="edge">
<title>nz0/EntityElevator2&#45;&gt;nz0/func_801BD9A0</title>
<path fill="none" stroke="black" d="M935.59,-173.8C935.59,-162.16 935.59,-146.55 935.59,-133.24"/>
<polygon fill="black" stroke="black" points="939.09,-133.18 935.59,-123.18 932.09,-133.18 939.09,-133.18"/>
<text text-anchor="middle" x="940.59" y="-144.8" font-family="Times,serif" font-size="14.00">1</text>
</g>
<!-- nz0/func_801B1C18 -->
<g id="node7" class="node">
<title>nz0/func_801B1C18</title>
<g id="a_node7"><a xlink:href="func_801B1C18.svg" xlink:title="nz0/func_801B1C18">
<ellipse fill="green" stroke="black" cx="1161.59" cy="-192" rx="103.18" ry="18"/>
<text text-anchor="middle" x="1161.59" y="-188.3" font-family="Times,serif" font-size="14.00">nz0/func_801B1C18</text>
</a>
</g>
</g>
<!-- nz0/func_801B1C18&#45;&gt;nz0/func_801BD9A0 -->
<g id="edge6" class="edge">
<title>nz0/func_801B1C18&#45;&gt;nz0/func_801BD9A0</title>
<path fill="none" stroke="black" d="M1120.14,-175.41C1082.5,-161.26 1026.88,-140.34 986.55,-125.17"/>
<polygon fill="black" stroke="black" points="987.75,-121.88 977.16,-121.64 985.29,-128.43 987.75,-121.88"/>
<text text-anchor="middle" x="1067.59" y="-144.8" font-family="Times,serif" font-size="14.00">1</text>
</g>
<!-- nz0/func_801B2FD8 -->
<g id="node8" class="node">
<title>nz0/func_801B2FD8</title>
<g id="a_node8"><a xlink:href="func_801B2FD8.svg" xlink:title="nz0/func_801B2FD8">
<ellipse fill="green" stroke="black" cx="1387.59" cy="-192" rx="104.78" ry="18"/>
<text text-anchor="middle" x="1387.59" y="-188.3" font-family="Times,serif" font-size="14.00">nz0/func_801B2FD8</text>
</a>
</g>
</g>
<!-- nz0/func_801B2FD8&#45;&gt;nz0/func_801BD9A0 -->
<g id="edge7" class="edge">
<title>nz0/func_801B2FD8&#45;&gt;nz0/func_801BD9A0</title>
<path fill="none" stroke="black" d="M1319.43,-178.18C1237.35,-162.75 1099.79,-136.88 1013.56,-120.66"/>
<polygon fill="black" stroke="black" points="1014.04,-117.19 1003.56,-118.78 1012.74,-124.07 1014.04,-117.19"/>
<text text-anchor="middle" x="1194.59" y="-144.8" font-family="Times,serif" font-size="14.00">1</text>
</g>
<!-- nz0/EntityMoveableBox -->
<g id="node9" class="node">
<title>nz0/EntityMoveableBox</title>
<g id="a_node9"><a xlink:href="EntityMoveableBox.svg" xlink:title="nz0/EntityMoveableBox">
<ellipse fill="green" stroke="black" cx="1631.59" cy="-192" rx="121.58" ry="18"/>
<text text-anchor="middle" x="1631.59" y="-188.3" font-family="Times,serif" font-size="14.00">nz0/EntityMoveableBox</text>
</a>
</g>
</g>
<!-- nz0/EntityMoveableBox&#45;&gt;nz0/func_801BD9A0 -->
<g id="edge8" class="edge">
<title>nz0/EntityMoveableBox&#45;&gt;nz0/func_801BD9A0</title>
<path fill="none" stroke="black" d="M1544.19,-179.44C1529.96,-177.6 1515.36,-175.73 1501.59,-174 1335.49,-153.16 1141.79,-130.17 1029.47,-116.98"/>
<polygon fill="black" stroke="black" points="1029.87,-113.5 1019.53,-115.81 1029.05,-120.45 1029.87,-113.5"/>
<text text-anchor="middle" x="1351.59" y="-144.8" font-family="Times,serif" font-size="14.00">1</text>
</g>
</g>
</svg>
