<?xml version="1.0" encoding="UTF-8" standalone="no"?>
<!DOCTYPE svg PUBLIC "-//W3C//DTD SVG 1.1//EN"
 "http://www.w3.org/Graphics/SVG/1.1/DTD/svg11.dtd">
<!-- Generated by graphviz version 2.43.0 (0)
 -->
<!-- Title: func_177000_8017C28C Pages: 1 -->
<svg width="1859pt" height="131pt"
 viewBox="0.00 0.00 1858.78 131.00" xmlns="http://www.w3.org/2000/svg" xmlns:xlink="http://www.w3.org/1999/xlink">
<g id="graph0" class="graph" transform="scale(1 1) rotate(0) translate(4 127)">
<title>func_177000_8017C28C</title>
<polygon fill="white" stroke="transparent" points="-4,4 -4,-127 1854.78,-127 1854.78,4 -4,4"/>
<!-- weapon/func_177000_8017C28C -->
<g id="node1" class="node">
<title>weapon/func_177000_8017C28C</title>
<ellipse fill="red" stroke="black" cx="1050.19" cy="-105" rx="161.67" ry="18"/>
<text text-anchor="middle" x="1050.19" y="-101.3" font-family="Times,serif" font-size="14.00">weapon/func_177000_8017C28C</text>
</g>
<!-- weapon/g_api_AllocPrimitives -->
<g id="node2" class="node">
<title>weapon/g_api_AllocPrimitives</title>
<g id="a_node2"><a xlink:href="g_api_AllocPrimitives.svg" xlink:title="weapon/g_api_AllocPrimitives">
<ellipse fill="lightblue" stroke="black" cx="148.19" cy="-18" rx="148.37" ry="18"/>
<text text-anchor="middle" x="148.19" y="-14.3" font-family="Times,serif" font-size="14.00">weapon/g_api_AllocPrimitives</text>
</a>
</g>
</g>
<!-- weapon/func_177000_8017C28C&#45;&gt;weapon/g_api_AllocPrimitives -->
<g id="edge1" class="edge">
<title>weapon/func_177000_8017C28C&#45;&gt;weapon/g_api_AllocPrimitives</title>
<path fill="none" stroke="black" d="M926.54,-93.36C778.69,-80.48 523.76,-57.81 305.19,-36 291.8,-34.66 277.77,-33.22 263.84,-31.75"/>
<polygon fill="black" stroke="black" points="264.04,-28.25 253.73,-30.67 263.3,-35.21 264.04,-28.25"/>
<text text-anchor="middle" x="657.19" y="-57.8" font-family="Times,serif" font-size="14.00">1</text>
</g>
<!-- weapon/func_177000_8017B524 -->
<g id="node3" class="node">
<title>weapon/func_177000_8017B524</title>
<g id="a_node3"><a xlink:href="func_177000_8017B524.svg" xlink:title="weapon/func_177000_8017B524">
<ellipse fill="red" stroke="black" cx="475.19" cy="-18" rx="161.37" ry="18"/>
<text text-anchor="middle" x="475.19" y="-14.3" font-family="Times,serif" font-size="14.00">weapon/func_177000_8017B524</text>
</a>
</g>
</g>
<!-- weapon/func_177000_8017C28C&#45;&gt;weapon/func_177000_8017B524 -->
<g id="edge2" class="edge">
<title>weapon/func_177000_8017C28C&#45;&gt;weapon/func_177000_8017B524</title>
<path fill="none" stroke="black" d="M957.16,-90.25C853.29,-74.89 685.66,-50.11 577.98,-34.2"/>
<polygon fill="black" stroke="black" points="578.48,-30.73 568.08,-32.73 577.46,-37.66 578.48,-30.73"/>
<text text-anchor="middle" x="802.19" y="-57.8" font-family="Times,serif" font-size="14.00">1</text>
</g>
<!-- weapon/g_api_PlaySfx -->
<g id="node4" class="node">
<title>weapon/g_api_PlaySfx</title>
<g id="a_node4"><a xlink:href="g_api_PlaySfx.svg" xlink:title="weapon/g_api_PlaySfx">
<ellipse fill="lightblue" stroke="black" cx="767.19" cy="-18" rx="113.18" ry="18"/>
<text text-anchor="middle" x="767.19" y="-14.3" font-family="Times,serif" font-size="14.00">weapon/g_api_PlaySfx</text>
</a>
</g>
</g>
<!-- weapon/func_177000_8017C28C&#45;&gt;weapon/g_api_PlaySfx -->
<g id="edge3" class="edge">
<title>weapon/func_177000_8017C28C&#45;&gt;weapon/g_api_PlaySfx</title>
<path fill="none" stroke="black" d="M996.62,-87.91C948.4,-73.43 877.6,-52.16 827.43,-37.09"/>
<polygon fill="black" stroke="black" points="828.26,-33.69 817.68,-34.17 826.25,-40.39 828.26,-33.69"/>
<text text-anchor="middle" x="931.19" y="-57.8" font-family="Times,serif" font-size="14.00">1</text>
</g>
<!-- weapon/g_api_func_8011AAFC -->
<g id="node5" class="node">
<title>weapon/g_api_func_8011AAFC</title>
<g id="a_node5"><a xlink:href="g_api_func_8011AAFC.svg" xlink:title="weapon/g_api_func_8011AAFC">
<ellipse fill="lightblue" stroke="black" cx="1050.19" cy="-18" rx="151.37" ry="18"/>
<text text-anchor="middle" x="1050.19" y="-14.3" font-family="Times,serif" font-size="14.00">weapon/g_api_func_8011AAFC</text>
</a>
</g>
</g>
<!-- weapon/func_177000_8017C28C&#45;&gt;weapon/g_api_func_8011AAFC -->
<g id="edge4" class="edge">
<title>weapon/func_177000_8017C28C&#45;&gt;weapon/g_api_func_8011AAFC</title>
<path fill="none" stroke="black" d="M1050.19,-86.8C1050.19,-75.16 1050.19,-59.55 1050.19,-46.24"/>
<polygon fill="black" stroke="black" points="1053.69,-46.18 1050.19,-36.18 1046.69,-46.18 1053.69,-46.18"/>
<text text-anchor="middle" x="1055.19" y="-57.8" font-family="Times,serif" font-size="14.00">1</text>
</g>
<!-- weapon/func_177000_8017B280 -->
<g id="node6" class="node">
<title>weapon/func_177000_8017B280</title>
<g id="a_node6"><a xlink:href="func_177000_8017B280.svg" xlink:title="weapon/func_177000_8017B280">
<ellipse fill="red" stroke="black" cx="1381.19" cy="-18" rx="161.37" ry="18"/>
<text text-anchor="middle" x="1381.19" y="-14.3" font-family="Times,serif" font-size="14.00">weapon/func_177000_8017B280</text>
</a>
</g>
</g>
<!-- weapon/func_177000_8017C28C&#45;&gt;weapon/func_177000_8017B280 -->
<g id="edge5" class="edge">
<title>weapon/func_177000_8017C28C&#45;&gt;weapon/func_177000_8017B280</title>
<path fill="none" stroke="black" d="M1111.28,-88.31C1167.52,-73.87 1250.95,-52.44 1310.15,-37.24"/>
<polygon fill="black" stroke="black" points="1311.35,-40.55 1320.17,-34.67 1309.61,-33.77 1311.35,-40.55"/>
<text text-anchor="middle" x="1241.19" y="-57.8" font-family="Times,serif" font-size="14.00">1</text>
</g>
<!-- weapon/rcos -->
<g id="node7" class="node">
<title>weapon/rcos</title>
<g id="a_node7"><a xlink:href="rcos.svg" xlink:title="weapon/rcos">
<ellipse fill="lightblue" stroke="black" cx="1629.19" cy="-18" rx="68.79" ry="18"/>
<text text-anchor="middle" x="1629.19" y="-14.3" font-family="Times,serif" font-size="14.00">weapon/rcos</text>
</a>
</g>
</g>
<!-- weapon/func_177000_8017C28C&#45;&gt;weapon/rcos -->
<g id="edge6" class="edge">
<title>weapon/func_177000_8017C28C&#45;&gt;weapon/rcos</title>
<path fill="none" stroke="black" d="M1159.55,-91.7C1261.3,-79.66 1416.99,-59.69 1551.19,-36 1557.05,-34.97 1563.13,-33.8 1569.2,-32.58"/>
<polygon fill="black" stroke="black" points="1570.29,-35.93 1579.37,-30.48 1568.87,-29.07 1570.29,-35.93"/>
<text text-anchor="middle" x="1433.19" y="-57.8" font-family="Times,serif" font-size="14.00">8</text>
</g>
<!-- weapon/rsin -->
<g id="node8" class="node">
<title>weapon/rsin</title>
<g id="a_node8"><a xlink:href="rsin.svg" xlink:title="weapon/rsin">
<ellipse fill="lightblue" stroke="black" cx="1783.19" cy="-18" rx="67.69" ry="18"/>
<text text-anchor="middle" x="1783.19" y="-14.3" font-family="Times,serif" font-size="14.00">weapon/rsin</text>
</a>
</g>
</g>
<!-- weapon/func_177000_8017C28C&#45;&gt;weapon/rsin -->
<g id="edge7" class="edge">
<title>weapon/func_177000_8017C28C&#45;&gt;weapon/rsin</title>
<path fill="none" stroke="black" d="M1187.15,-95.34C1320.58,-85.61 1528.82,-66.98 1707.19,-36 1712.9,-35.01 1718.84,-33.87 1724.76,-32.66"/>
<polygon fill="black" stroke="black" points="1725.61,-36.06 1734.67,-30.58 1724.17,-29.21 1725.61,-36.06"/>
<text text-anchor="middle" x="1588.19" y="-57.8" font-family="Times,serif" font-size="14.00">4</text>
</g>
</g>
</svg>
