<?xml version="1.0" encoding="UTF-8" standalone="no"?>
<!DOCTYPE svg PUBLIC "-//W3C//DTD SVG 1.1//EN"
 "http://www.w3.org/Graphics/SVG/1.1/DTD/svg11.dtd">
<!-- Generated by graphviz version 2.43.0 (0)
 -->
<!-- Title: func_801325D8 Pages: 1 -->
<svg width="4265pt" height="218pt"
 viewBox="0.00 0.00 4265.13 218.00" xmlns="http://www.w3.org/2000/svg" xmlns:xlink="http://www.w3.org/1999/xlink">
<g id="graph0" class="graph" transform="scale(1 1) rotate(0) translate(4 214)">
<title>func_801325D8</title>
<polygon fill="white" stroke="transparent" points="-4,4 -4,-214 4261.13,-214 4261.13,4 -4,4"/>
<!-- dra/func_801325D8 -->
<g id="node1" class="node">
<title>dra/func_801325D8</title>
<ellipse fill="green" stroke="black" cx="2136.44" cy="-105" rx="102.08" ry="18"/>
<text text-anchor="middle" x="2136.44" y="-101.3" font-family="Times,serif" font-size="14.00">dra/func_801325D8</text>
</g>
<!-- dra/SsInitHot -->
<g id="node2" class="node">
<title>dra/SsInitHot</title>
<g id="a_node2"><a xlink:href="SsInitHot.svg" xlink:title="dra/SsInitHot">
<ellipse fill="lightblue" stroke="black" cx="73.44" cy="-18" rx="73.39" ry="18"/>
<text text-anchor="middle" x="73.44" y="-14.3" font-family="Times,serif" font-size="14.00">dra/SsInitHot</text>
</a>
</g>
</g>
<!-- dra/func_801325D8&#45;&gt;dra/SsInitHot -->
<g id="edge1" class="edge">
<title>dra/func_801325D8&#45;&gt;dra/SsInitHot</title>
<path fill="none" stroke="black" d="M2034.25,-104.21C1778.82,-104.22 1092.02,-100.99 520.44,-69 357.81,-59.9 316.56,-59.91 155.44,-36 149.12,-35.06 142.55,-33.94 136,-32.74"/>
<polygon fill="black" stroke="black" points="136.26,-29.22 125.78,-30.78 134.94,-36.1 136.26,-29.22"/>
<text text-anchor="middle" x="525.44" y="-57.8" font-family="Times,serif" font-size="14.00">1</text>
</g>
<!-- dra/SsSetTickMode -->
<g id="node3" class="node">
<title>dra/SsSetTickMode</title>
<g id="a_node3"><a xlink:href="SsSetTickMode.svg" xlink:title="dra/SsSetTickMode">
<ellipse fill="lightblue" stroke="black" cx="265.44" cy="-18" rx="100.98" ry="18"/>
<text text-anchor="middle" x="265.44" y="-14.3" font-family="Times,serif" font-size="14.00">dra/SsSetTickMode</text>
</a>
</g>
</g>
<!-- dra/func_801325D8&#45;&gt;dra/SsSetTickMode -->
<g id="edge2" class="edge">
<title>dra/func_801325D8&#45;&gt;dra/SsSetTickMode</title>
<path fill="none" stroke="black" d="M2034.62,-103.66C1804.51,-102.42 1226.84,-96.55 744.44,-69 579.61,-59.59 538.32,-56.06 374.44,-36 365.44,-34.9 356.03,-33.62 346.69,-32.27"/>
<polygon fill="black" stroke="black" points="346.99,-28.78 336.59,-30.79 345.97,-35.7 346.99,-28.78"/>
<text text-anchor="middle" x="749.44" y="-57.8" font-family="Times,serif" font-size="14.00">1</text>
</g>
<!-- dra/func_80132500 -->
<g id="node4" class="node">
<title>dra/func_80132500</title>
<g id="a_node4"><a xlink:href="func_80132500.svg" xlink:title="dra/func_80132500">
<ellipse fill="green" stroke="black" cx="484.44" cy="-18" rx="100.98" ry="18"/>
<text text-anchor="middle" x="484.44" y="-14.3" font-family="Times,serif" font-size="14.00">dra/func_80132500</text>
</a>
</g>
</g>
<!-- dra/func_801325D8&#45;&gt;dra/func_80132500 -->
<g id="edge3" class="edge">
<title>dra/func_801325D8&#45;&gt;dra/func_80132500</title>
<path fill="none" stroke="black" d="M2034.76,-102.89C1832.36,-100.25 1364.75,-92 972.44,-69 804.09,-59.13 761.87,-56.22 594.44,-36 585.19,-34.88 575.52,-33.58 565.91,-32.21"/>
<polygon fill="black" stroke="black" points="566.35,-28.73 555.95,-30.75 565.34,-35.66 566.35,-28.73"/>
<text text-anchor="middle" x="977.44" y="-57.8" font-family="Times,serif" font-size="14.00">1</text>
</g>
<!-- dra/SsSetReservedVoice -->
<g id="node5" class="node">
<title>dra/SsSetReservedVoice</title>
<g id="a_node5"><a xlink:href="SsSetReservedVoice.svg" xlink:title="dra/SsSetReservedVoice">
<ellipse fill="lightblue" stroke="black" cx="727.44" cy="-18" rx="124.28" ry="18"/>
<text text-anchor="middle" x="727.44" y="-14.3" font-family="Times,serif" font-size="14.00">dra/SsSetReservedVoice</text>
</a>
</g>
</g>
<!-- dra/func_801325D8&#45;&gt;dra/SsSetReservedVoice -->
<g id="edge4" class="edge">
<title>dra/func_801325D8&#45;&gt;dra/SsSetReservedVoice</title>
<path fill="none" stroke="black" d="M2034.54,-103.38C1852.69,-101.61 1460.38,-94.85 1130.44,-69 1023.78,-60.64 901.95,-44.62 820.43,-32.96"/>
<polygon fill="black" stroke="black" points="820.59,-29.45 810.19,-31.49 819.59,-36.38 820.59,-29.45"/>
<text text-anchor="middle" x="1135.44" y="-57.8" font-family="Times,serif" font-size="14.00">1</text>
</g>
<!-- dra/SsStart -->
<g id="node6" class="node">
<title>dra/SsStart</title>
<g id="a_node6"><a xlink:href="SsStart.svg" xlink:title="dra/SsStart">
<ellipse fill="lightblue" stroke="black" cx="933.44" cy="-18" rx="64.19" ry="18"/>
<text text-anchor="middle" x="933.44" y="-14.3" font-family="Times,serif" font-size="14.00">dra/SsStart</text>
</a>
</g>
</g>
<!-- dra/func_801325D8&#45;&gt;dra/SsStart -->
<g id="edge5" class="edge">
<title>dra/func_801325D8&#45;&gt;dra/SsStart</title>
<path fill="none" stroke="black" d="M2037.19,-100.63C1893.56,-95.47 1619.41,-84.55 1386.44,-69 1217.3,-57.71 1173.86,-62.63 1006.44,-36 1000.76,-35.1 994.87,-34 989,-32.8"/>
<polygon fill="black" stroke="black" points="989.71,-29.37 979.2,-30.7 988.25,-36.22 989.71,-29.37"/>
<text text-anchor="middle" x="1391.44" y="-57.8" font-family="Times,serif" font-size="14.00">1</text>
</g>
<!-- dra/SsSetTableSize -->
<g id="node7" class="node">
<title>dra/SsSetTableSize</title>
<g id="a_node7"><a xlink:href="SsSetTableSize.svg" xlink:title="dra/SsSetTableSize">
<ellipse fill="lightblue" stroke="black" cx="1116.44" cy="-18" rx="100.98" ry="18"/>
<text text-anchor="middle" x="1116.44" y="-14.3" font-family="Times,serif" font-size="14.00">dra/SsSetTableSize</text>
</a>
</g>
</g>
<!-- dra/func_801325D8&#45;&gt;dra/SsSetTableSize -->
<g id="edge6" class="edge">
<title>dra/func_801325D8&#45;&gt;dra/SsSetTableSize</title>
<path fill="none" stroke="black" d="M2039.56,-99.35C1872.99,-90.77 1521.72,-70.15 1226.44,-36 1217.11,-34.92 1207.36,-33.64 1197.68,-32.27"/>
<polygon fill="black" stroke="black" points="1198.04,-28.78 1187.64,-30.82 1197.03,-35.71 1198.04,-28.78"/>
<text text-anchor="middle" x="1556.44" y="-57.8" font-family="Times,serif" font-size="14.00">1</text>
</g>
<!-- dra/SsUtSetReverbType -->
<g id="node8" class="node">
<title>dra/SsUtSetReverbType</title>
<g id="a_node8"><a xlink:href="SsUtSetReverbType.svg" xlink:title="dra/SsUtSetReverbType">
<ellipse fill="lightblue" stroke="black" cx="1358.44" cy="-18" rx="123.48" ry="18"/>
<text text-anchor="middle" x="1358.44" y="-14.3" font-family="Times,serif" font-size="14.00">dra/SsUtSetReverbType</text>
</a>
</g>
</g>
<!-- dra/func_801325D8&#45;&gt;dra/SsUtSetReverbType -->
<g id="edge7" class="edge">
<title>dra/func_801325D8&#45;&gt;dra/SsUtSetReverbType</title>
<path fill="none" stroke="black" d="M2049.65,-95.51C1925.57,-83.22 1690.38,-59.39 1490.44,-36 1479.53,-34.72 1468.11,-33.33 1456.76,-31.92"/>
<polygon fill="black" stroke="black" points="1457.17,-28.44 1446.81,-30.67 1456.29,-35.39 1457.17,-28.44"/>
<text text-anchor="middle" x="1779.44" y="-57.8" font-family="Times,serif" font-size="14.00">1</text>
</g>
<!-- dra/SpuClearReverbWorkArea -->
<g id="node9" class="node">
<title>dra/SpuClearReverbWorkArea</title>
<g id="a_node9"><a xlink:href="SpuClearReverbWorkArea.svg" xlink:title="dra/SpuClearReverbWorkArea">
<ellipse fill="lightblue" stroke="black" cx="1650.44" cy="-18" rx="150.57" ry="18"/>
<text text-anchor="middle" x="1650.44" y="-14.3" font-family="Times,serif" font-size="14.00">dra/SpuClearReverbWorkArea</text>
</a>
</g>
</g>
<!-- dra/func_801325D8&#45;&gt;dra/SpuClearReverbWorkArea -->
<g id="edge8" class="edge">
<title>dra/func_801325D8&#45;&gt;dra/SpuClearReverbWorkArea</title>
<path fill="none" stroke="black" d="M2066.81,-91.82C1981.34,-76.87 1836.17,-51.48 1741.81,-34.98"/>
<polygon fill="black" stroke="black" points="1742.15,-31.49 1731.7,-33.21 1740.95,-38.38 1742.15,-31.49"/>
<text text-anchor="middle" x="1928.44" y="-57.8" font-family="Times,serif" font-size="14.00">1</text>
</g>
<!-- dra/SsUtReverbOn -->
<g id="node10" class="node">
<title>dra/SsUtReverbOn</title>
<g id="a_node10"><a xlink:href="SsUtReverbOn.svg" xlink:title="dra/SsUtReverbOn">
<ellipse fill="lightblue" stroke="black" cx="1918.44" cy="-18" rx="98.58" ry="18"/>
<text text-anchor="middle" x="1918.44" y="-14.3" font-family="Times,serif" font-size="14.00">dra/SsUtReverbOn</text>
</a>
</g>
</g>
<!-- dra/func_801325D8&#45;&gt;dra/SsUtReverbOn -->
<g id="edge9" class="edge">
<title>dra/func_801325D8&#45;&gt;dra/SsUtReverbOn</title>
<path fill="none" stroke="black" d="M2096.46,-88.41C2060.2,-74.27 2006.63,-53.38 1967.73,-38.22"/>
<polygon fill="black" stroke="black" points="1968.76,-34.86 1958.17,-34.49 1966.22,-41.39 1968.76,-34.86"/>
<text text-anchor="middle" x="2046.44" y="-57.8" font-family="Times,serif" font-size="14.00">1</text>
</g>
<!-- dra/func_80132134 -->
<g id="node11" class="node">
<title>dra/func_80132134</title>
<g id="a_node11"><a xlink:href="func_80132134.svg" xlink:title="dra/func_80132134">
<ellipse fill="green" stroke="black" cx="2136.44" cy="-18" rx="100.98" ry="18"/>
<text text-anchor="middle" x="2136.44" y="-14.3" font-family="Times,serif" font-size="14.00">dra/func_80132134</text>
</a>
</g>
</g>
<!-- dra/func_801325D8&#45;&gt;dra/func_80132134 -->
<g id="edge10" class="edge">
<title>dra/func_801325D8&#45;&gt;dra/func_80132134</title>
<path fill="none" stroke="black" d="M2136.44,-86.8C2136.44,-75.16 2136.44,-59.55 2136.44,-46.24"/>
<polygon fill="black" stroke="black" points="2139.94,-46.18 2136.44,-36.18 2132.94,-46.18 2139.94,-46.18"/>
<text text-anchor="middle" x="2141.44" y="-57.8" font-family="Times,serif" font-size="14.00">1</text>
</g>
<!-- dra/SsSetSerialAttr -->
<g id="node12" class="node">
<title>dra/SsSetSerialAttr</title>
<g id="a_node12"><a xlink:href="SsSetSerialAttr.svg" xlink:title="dra/SsSetSerialAttr">
<ellipse fill="lightblue" stroke="black" cx="2357.44" cy="-18" rx="102.08" ry="18"/>
<text text-anchor="middle" x="2357.44" y="-14.3" font-family="Times,serif" font-size="14.00">dra/SsSetSerialAttr</text>
</a>
</g>
</g>
<!-- dra/func_801325D8&#45;&gt;dra/SsSetSerialAttr -->
<g id="edge11" class="edge">
<title>dra/func_801325D8&#45;&gt;dra/SsSetSerialAttr</title>
<path fill="none" stroke="black" d="M2176.98,-88.41C2213.62,-74.32 2267.71,-53.51 2307.11,-38.36"/>
<polygon fill="black" stroke="black" points="2308.72,-41.49 2316.79,-34.64 2306.2,-34.96 2308.72,-41.49"/>
<text text-anchor="middle" x="2265.44" y="-57.8" font-family="Times,serif" font-size="14.00">1</text>
</g>
<!-- dra/func_801324B4 -->
<g id="node13" class="node">
<title>dra/func_801324B4</title>
<g id="a_node13"><a xlink:href="func_801324B4.svg" xlink:title="dra/func_801324B4">
<ellipse fill="green" stroke="black" cx="2578.44" cy="-18" rx="101.28" ry="18"/>
<text text-anchor="middle" x="2578.44" y="-14.3" font-family="Times,serif" font-size="14.00">dra/func_801324B4</text>
</a>
</g>
</g>
<!-- dra/func_801325D8&#45;&gt;dra/func_801324B4 -->
<g id="edge12" class="edge">
<title>dra/func_801325D8&#45;&gt;dra/func_801324B4</title>
<path fill="none" stroke="black" d="M2202.62,-91.27C2282.8,-75.85 2417.64,-49.92 2502.13,-33.67"/>
<polygon fill="black" stroke="black" points="2503.02,-37.07 2512.18,-31.74 2501.7,-30.19 2503.02,-37.07"/>
<text text-anchor="middle" x="2389.44" y="-57.8" font-family="Times,serif" font-size="14.00">1</text>
</g>
<!-- dra/func_80132028 -->
<g id="node14" class="node">
<title>dra/func_80132028</title>
<g id="a_node14"><a xlink:href="func_80132028.svg" xlink:title="dra/func_80132028">
<ellipse fill="green" stroke="black" cx="2798.44" cy="-18" rx="100.98" ry="18"/>
<text text-anchor="middle" x="2798.44" y="-14.3" font-family="Times,serif" font-size="14.00">dra/func_80132028</text>
</a>
</g>
</g>
<!-- dra/func_801325D8&#45;&gt;dra/func_80132028 -->
<g id="edge13" class="edge">
<title>dra/func_801325D8&#45;&gt;dra/func_80132028</title>
<path fill="none" stroke="black" d="M2219.78,-94.54C2327.95,-82.08 2522.51,-59.04 2688.44,-36 2697.37,-34.76 2706.69,-33.41 2715.97,-32.03"/>
<polygon fill="black" stroke="black" points="2716.64,-35.47 2726.01,-30.52 2715.6,-28.54 2716.64,-35.47"/>
<text text-anchor="middle" x="2557.44" y="-57.8" font-family="Times,serif" font-size="14.00">1</text>
</g>
<!-- dra/func_80132264 -->
<g id="node15" class="node">
<title>dra/func_80132264</title>
<g id="a_node15"><a xlink:href="func_80132264.svg" xlink:title="dra/func_80132264">
<ellipse fill="green" stroke="black" cx="3017.44" cy="-18" rx="100.98" ry="18"/>
<text text-anchor="middle" x="3017.44" y="-14.3" font-family="Times,serif" font-size="14.00">dra/func_80132264</text>
</a>
</g>
</g>
<!-- dra/func_801325D8&#45;&gt;dra/func_80132264 -->
<g id="edge14" class="edge">
<title>dra/func_801325D8&#45;&gt;dra/func_80132264</title>
<path fill="none" stroke="black" d="M2230.57,-98C2376.21,-88.2 2664.83,-66.72 2908.44,-36 2917.37,-34.87 2926.7,-33.59 2935.97,-32.24"/>
<polygon fill="black" stroke="black" points="2936.62,-35.68 2946,-30.76 2935.59,-28.76 2936.62,-35.68"/>
<text text-anchor="middle" x="2744.44" y="-57.8" font-family="Times,serif" font-size="14.00">1</text>
</g>
<!-- dra/SetReverbDepth -->
<g id="node16" class="node">
<title>dra/SetReverbDepth</title>
<g id="a_node16"><a xlink:href="SetReverbDepth.svg" xlink:title="dra/SetReverbDepth">
<ellipse fill="green" stroke="black" cx="3242.44" cy="-18" rx="106.68" ry="18"/>
<text text-anchor="middle" x="3242.44" y="-14.3" font-family="Times,serif" font-size="14.00">dra/SetReverbDepth</text>
</a>
</g>
</g>
<!-- dra/func_801325D8&#45;&gt;dra/SetReverbDepth -->
<g id="edge15" class="edge">
<title>dra/func_801325D8&#45;&gt;dra/SetReverbDepth</title>
<path fill="none" stroke="black" d="M2235.2,-100.42C2413.77,-93.24 2802.04,-74.37 3127.44,-36 3137.06,-34.87 3147.12,-33.56 3157.11,-32.18"/>
<polygon fill="black" stroke="black" points="3157.64,-35.64 3167.06,-30.79 3156.67,-28.71 3157.64,-35.64"/>
<text text-anchor="middle" x="2942.44" y="-57.8" font-family="Times,serif" font-size="14.00">1</text>
</g>
<!-- dra/func_8002ABF4 -->
<g id="node17" class="node">
<title>dra/func_8002ABF4</title>
<g id="a_node17"><a xlink:href="func_8002ABF4.svg" xlink:title="dra/func_8002ABF4">
<ellipse fill="lightblue" stroke="black" cx="3469.44" cy="-18" rx="102.88" ry="18"/>
<text text-anchor="middle" x="3469.44" y="-14.3" font-family="Times,serif" font-size="14.00">dra/func_8002ABF4</text>
</a>
</g>
</g>
<!-- dra/func_801325D8&#45;&gt;dra/func_8002ABF4 -->
<g id="edge16" class="edge">
<title>dra/func_801325D8&#45;&gt;dra/func_8002ABF4</title>
<path fill="none" stroke="black" d="M2237.79,-102.53C2447.6,-98.56 2944.54,-84.41 3358.44,-36 3367.78,-34.91 3377.55,-33.62 3387.24,-32.26"/>
<polygon fill="black" stroke="black" points="3387.9,-35.7 3397.3,-30.81 3386.9,-28.77 3387.9,-35.7"/>
<text text-anchor="middle" x="3163.44" y="-57.8" font-family="Times,serif" font-size="14.00">1</text>
</g>
<!-- dra/func_80029FBC -->
<g id="node18" class="node">
<title>dra/func_80029FBC</title>
<g id="a_node18"><a xlink:href="func_80029FBC.svg" xlink:title="dra/func_80029FBC">
<ellipse fill="lightblue" stroke="black" cx="3692.44" cy="-18" rx="102.88" ry="18"/>
<text text-anchor="middle" x="3692.44" y="-14.3" font-family="Times,serif" font-size="14.00">dra/func_80029FBC</text>
</a>
</g>
</g>
<!-- dra/func_801325D8&#45;&gt;dra/func_80029FBC -->
<g id="edge17" class="edge">
<title>dra/func_801325D8&#45;&gt;dra/func_80029FBC</title>
<path fill="none" stroke="black" d="M2237.25,-102.16C2422.55,-98.43 2829.72,-88.6 3172.44,-69 3354.51,-58.59 3400.31,-57.15 3581.44,-36 3590.79,-34.91 3600.55,-33.63 3610.24,-32.26"/>
<polygon fill="black" stroke="black" points="3610.9,-35.7 3620.3,-30.81 3609.9,-28.77 3610.9,-35.7"/>
<text text-anchor="middle" x="3409.44" y="-57.8" font-family="Times,serif" font-size="14.00">1</text>
</g>
<!-- dra/CdReadyCallback -->
<g id="node19" class="node">
<title>dra/CdReadyCallback</title>
<g id="a_node19"><a xlink:href="CdReadyCallback.svg" xlink:title="dra/CdReadyCallback">
<ellipse fill="lightblue" stroke="black" cx="3923.44" cy="-18" rx="110.48" ry="18"/>
<text text-anchor="middle" x="3923.44" y="-14.3" font-family="Times,serif" font-size="14.00">dra/CdReadyCallback</text>
</a>
</g>
</g>
<!-- dra/func_801325D8&#45;&gt;dra/CdReadyCallback -->
<g id="edge18" class="edge">
<title>dra/func_801325D8&#45;&gt;dra/CdReadyCallback</title>
<path fill="none" stroke="black" d="M2238.32,-103.22C2455.42,-101.13 2979.68,-93.72 3418.44,-69 3590.35,-59.31 3633.37,-55.52 3804.44,-36 3814.5,-34.85 3825.02,-33.53 3835.46,-32.14"/>
<polygon fill="black" stroke="black" points="3835.99,-35.6 3845.43,-30.79 3835.05,-28.66 3835.99,-35.6"/>
<text text-anchor="middle" x="3635.44" y="-57.8" font-family="Times,serif" font-size="14.00">1</text>
</g>
<!-- dra/func_80028D3C -->
<g id="node20" class="node">
<title>dra/func_80028D3C</title>
<g id="a_node20"><a xlink:href="func_80028D3C.svg" xlink:title="dra/func_80028D3C">
<ellipse fill="lightblue" stroke="black" cx="4154.44" cy="-18" rx="102.88" ry="18"/>
<text text-anchor="middle" x="4154.44" y="-14.3" font-family="Times,serif" font-size="14.00">dra/func_80028D3C</text>
</a>
</g>
</g>
<!-- dra/func_801325D8&#45;&gt;dra/func_80028D3C -->
<g id="edge19" class="edge">
<title>dra/func_801325D8&#45;&gt;dra/func_80028D3C</title>
<path fill="none" stroke="black" d="M2238.47,-103.73C2481.89,-102.61 3115.87,-97.02 3644.44,-69 3821.69,-59.6 3866.15,-56.66 4042.44,-36 4051.87,-34.9 4061.72,-33.6 4071.5,-32.23"/>
<polygon fill="black" stroke="black" points="4072.24,-35.66 4081.64,-30.78 4071.25,-28.73 4072.24,-35.66"/>
<text text-anchor="middle" x="3875.44" y="-57.8" font-family="Times,serif" font-size="14.00">1</text>
</g>
<!-- dra/entrypoint_sotn -->
<g id="node21" class="node">
<title>dra/entrypoint_sotn</title>
<g id="a_node21"><a xlink:href="entrypoint_sotn.svg" xlink:title="dra/entrypoint_sotn">
<ellipse fill="green" stroke="black" cx="2136.44" cy="-192" rx="102.88" ry="18"/>
<text text-anchor="middle" x="2136.44" y="-188.3" font-family="Times,serif" font-size="14.00">dra/entrypoint_sotn</text>
</a>
</g>
</g>
<!-- dra/entrypoint_sotn&#45;&gt;dra/func_801325D8 -->
<g id="edge20" class="edge">
<title>dra/entrypoint_sotn&#45;&gt;dra/func_801325D8</title>
<path fill="none" stroke="black" d="M2136.44,-173.8C2136.44,-162.16 2136.44,-146.55 2136.44,-133.24"/>
<polygon fill="black" stroke="black" points="2139.94,-133.18 2136.44,-123.18 2132.94,-133.18 2139.94,-133.18"/>
<text text-anchor="middle" x="2141.44" y="-144.8" font-family="Times,serif" font-size="14.00">1</text>
</g>
</g>
</svg>
