<?xml version="1.0" encoding="UTF-8" standalone="no"?>
<!DOCTYPE svg PUBLIC "-//W3C//DTD SVG 1.1//EN"
 "http://www.w3.org/Graphics/SVG/1.1/DTD/svg11.dtd">
<!-- Generated by graphviz version 2.43.0 (0)
 -->
<!-- Title: func_801B7308 Pages: 1 -->
<svg width="1787pt" height="131pt"
 viewBox="0.00 0.00 1787.08 131.00" xmlns="http://www.w3.org/2000/svg" xmlns:xlink="http://www.w3.org/1999/xlink">
<g id="graph0" class="graph" transform="scale(1 1) rotate(0) translate(4 127)">
<title>func_801B7308</title>
<polygon fill="white" stroke="transparent" points="-4,4 -4,-127 1783.08,-127 1783.08,4 -4,4"/>
<!-- st0/func_801B7308 -->
<g id="node1" class="node">
<title>st0/func_801B7308</title>
<ellipse fill="red" stroke="black" cx="943.49" cy="-105" rx="100.98" ry="18"/>
<text text-anchor="middle" x="943.49" y="-101.3" font-family="Times,serif" font-size="14.00">st0/func_801B7308</text>
</g>
<!-- st0/InitializeEntity -->
<g id="node2" class="node">
<title>st0/InitializeEntity</title>
<g id="a_node2"><a xlink:href="InitializeEntity.svg" xlink:title="st0/InitializeEntity">
<ellipse fill="green" stroke="black" cx="97.49" cy="-18" rx="97.48" ry="18"/>
<text text-anchor="middle" x="97.49" y="-14.3" font-family="Times,serif" font-size="14.00">st0/InitializeEntity</text>
</a>
</g>
</g>
<!-- st0/func_801B7308&#45;&gt;st0/InitializeEntity -->
<g id="edge1" class="edge">
<title>st0/func_801B7308&#45;&gt;st0/InitializeEntity</title>
<path fill="none" stroke="black" d="M851.69,-97.51C711.76,-87.16 436.84,-65.12 204.49,-36 195.51,-34.88 186.13,-33.57 176.82,-32.2"/>
<polygon fill="black" stroke="black" points="177.16,-28.71 166.75,-30.69 176.12,-35.63 177.16,-28.71"/>
<text text-anchor="middle" x="513.49" y="-57.8" font-family="Times,serif" font-size="14.00">1</text>
</g>
<!-- st0/g_api_AllocPrimitives -->
<g id="node3" class="node">
<title>st0/g_api_AllocPrimitives</title>
<g id="a_node3"><a xlink:href="g_api_AllocPrimitives.svg" xlink:title="st0/g_api_AllocPrimitives">
<ellipse fill="lightblue" stroke="black" cx="340.49" cy="-18" rx="127.28" ry="18"/>
<text text-anchor="middle" x="340.49" y="-14.3" font-family="Times,serif" font-size="14.00">st0/g_api_AllocPrimitives</text>
</a>
</g>
</g>
<!-- st0/func_801B7308&#45;&gt;st0/g_api_AllocPrimitives -->
<g id="edge2" class="edge">
<title>st0/func_801B7308&#45;&gt;st0/g_api_AllocPrimitives</title>
<path fill="none" stroke="black" d="M867.12,-93.23C757.96,-77.85 557.31,-49.56 437.69,-32.7"/>
<polygon fill="black" stroke="black" points="437.83,-29.19 427.44,-31.26 436.85,-36.12 437.83,-29.19"/>
<text text-anchor="middle" x="683.49" y="-57.8" font-family="Times,serif" font-size="14.00">1</text>
</g>
<!-- st0/g_api_LoadEquipIcon -->
<g id="node4" class="node">
<title>st0/g_api_LoadEquipIcon</title>
<g id="a_node4"><a xlink:href="g_api_LoadEquipIcon.svg" xlink:title="st0/g_api_LoadEquipIcon">
<ellipse fill="lightblue" stroke="black" cx="611.49" cy="-18" rx="126.18" ry="18"/>
<text text-anchor="middle" x="611.49" y="-14.3" font-family="Times,serif" font-size="14.00">st0/g_api_LoadEquipIcon</text>
</a>
</g>
</g>
<!-- st0/func_801B7308&#45;&gt;st0/g_api_LoadEquipIcon -->
<g id="edge3" class="edge">
<title>st0/func_801B7308&#45;&gt;st0/g_api_LoadEquipIcon</title>
<path fill="none" stroke="black" d="M888.3,-89.87C831.18,-75.25 741.86,-52.38 680.21,-36.59"/>
<polygon fill="black" stroke="black" points="680.73,-33.11 670.18,-34.02 679,-39.9 680.73,-33.11"/>
<text text-anchor="middle" x="802.49" y="-57.8" font-family="Times,serif" font-size="14.00">1</text>
</g>
<!-- st0/g_api_PlaySfx -->
<g id="node5" class="node">
<title>st0/g_api_PlaySfx</title>
<g id="a_node5"><a xlink:href="g_api_PlaySfx.svg" xlink:title="st0/g_api_PlaySfx">
<ellipse fill="lightblue" stroke="black" cx="847.49" cy="-18" rx="92.08" ry="18"/>
<text text-anchor="middle" x="847.49" y="-14.3" font-family="Times,serif" font-size="14.00">st0/g_api_PlaySfx</text>
</a>
</g>
</g>
<!-- st0/func_801B7308&#45;&gt;st0/g_api_PlaySfx -->
<g id="edge4" class="edge">
<title>st0/func_801B7308&#45;&gt;st0/g_api_PlaySfx</title>
<path fill="none" stroke="black" d="M924.52,-87.21C910.06,-74.4 889.96,-56.61 873.92,-42.4"/>
<polygon fill="black" stroke="black" points="876.23,-39.77 866.42,-35.76 871.59,-45.01 876.23,-39.77"/>
<text text-anchor="middle" x="906.49" y="-57.8" font-family="Times,serif" font-size="14.00">1</text>
</g>
<!-- st0/ClearImage -->
<g id="node6" class="node">
<title>st0/ClearImage</title>
<g id="a_node6"><a xlink:href="ClearImage.svg" xlink:title="st0/ClearImage">
<ellipse fill="lightblue" stroke="black" cx="1039.49" cy="-18" rx="81.79" ry="18"/>
<text text-anchor="middle" x="1039.49" y="-14.3" font-family="Times,serif" font-size="14.00">st0/ClearImage</text>
</a>
</g>
</g>
<!-- st0/func_801B7308&#45;&gt;st0/ClearImage -->
<g id="edge5" class="edge">
<title>st0/func_801B7308&#45;&gt;st0/ClearImage</title>
<path fill="none" stroke="black" d="M962.46,-87.21C976.92,-74.4 997.02,-56.61 1013.06,-42.4"/>
<polygon fill="black" stroke="black" points="1015.4,-45.01 1020.56,-35.76 1010.76,-39.77 1015.4,-45.01"/>
<text text-anchor="middle" x="1002.49" y="-57.8" font-family="Times,serif" font-size="14.00">1</text>
</g>
<!-- st0/g_api_func_80106A28 -->
<g id="node7" class="node">
<title>st0/g_api_func_80106A28</title>
<g id="a_node7"><a xlink:href="g_api_func_80106A28.svg" xlink:title="st0/g_api_func_80106A28">
<ellipse fill="lightblue" stroke="black" cx="1268.49" cy="-18" rx="128.88" ry="18"/>
<text text-anchor="middle" x="1268.49" y="-14.3" font-family="Times,serif" font-size="14.00">st0/g_api_func_80106A28</text>
</a>
</g>
</g>
<!-- st0/func_801B7308&#45;&gt;st0/g_api_func_80106A28 -->
<g id="edge6" class="edge">
<title>st0/func_801B7308&#45;&gt;st0/g_api_func_80106A28</title>
<path fill="none" stroke="black" d="M997.89,-89.77C1053.69,-75.18 1140.62,-52.44 1200.83,-36.7"/>
<polygon fill="black" stroke="black" points="1201.84,-40.05 1210.62,-34.13 1200.06,-33.28 1201.84,-40.05"/>
<text text-anchor="middle" x="1130.49" y="-57.8" font-family="Times,serif" font-size="14.00">1</text>
</g>
<!-- st0/LoadTPage -->
<g id="node8" class="node">
<title>st0/LoadTPage</title>
<g id="a_node8"><a xlink:href="LoadTPage.svg" xlink:title="st0/LoadTPage">
<ellipse fill="lightblue" stroke="black" cx="1494.49" cy="-18" rx="79.09" ry="18"/>
<text text-anchor="middle" x="1494.49" y="-14.3" font-family="Times,serif" font-size="14.00">st0/LoadTPage</text>
</a>
</g>
</g>
<!-- st0/func_801B7308&#45;&gt;st0/LoadTPage -->
<g id="edge7" class="edge">
<title>st0/func_801B7308&#45;&gt;st0/LoadTPage</title>
<path fill="none" stroke="black" d="M1021.9,-93.58C1114.11,-81.07 1271.73,-58.9 1406.49,-36 1413.09,-34.88 1419.95,-33.66 1426.81,-32.39"/>
<polygon fill="black" stroke="black" points="1427.62,-35.8 1436.81,-30.53 1426.34,-28.92 1427.62,-35.8"/>
<text text-anchor="middle" x="1297.49" y="-57.8" font-family="Times,serif" font-size="14.00">1</text>
</g>
<!-- st0/DestroyEntity -->
<g id="node9" class="node">
<title>st0/DestroyEntity</title>
<g id="a_node9"><a xlink:href="DestroyEntity.svg" xlink:title="st0/DestroyEntity">
<ellipse fill="red" stroke="black" cx="1685.49" cy="-18" rx="93.68" ry="18"/>
<text text-anchor="middle" x="1685.49" y="-14.3" font-family="Times,serif" font-size="14.00">st0/DestroyEntity</text>
</a>
</g>
</g>
<!-- st0/func_801B7308&#45;&gt;st0/DestroyEntity -->
<g id="edge8" class="edge">
<title>st0/func_801B7308&#45;&gt;st0/DestroyEntity</title>
<path fill="none" stroke="black" d="M1032.64,-96.51C1156.36,-85.67 1386.99,-63.81 1582.49,-36 1590.81,-34.82 1599.49,-33.5 1608.14,-32.15"/>
<polygon fill="black" stroke="black" points="1608.91,-35.57 1618.24,-30.54 1607.82,-28.66 1608.91,-35.57"/>
<text text-anchor="middle" x="1448.49" y="-57.8" font-family="Times,serif" font-size="14.00">1</text>
</g>
</g>
</svg>
