<?xml version="1.0" encoding="UTF-8" standalone="no"?>
<!DOCTYPE svg PUBLIC "-//W3C//DTD SVG 1.1//EN"
 "http://www.w3.org/Graphics/SVG/1.1/DTD/svg11.dtd">
<!-- Generated by graphviz version 2.43.0 (0)
 -->
<!-- Title: func_801B44B4 Pages: 1 -->
<svg width="666pt" height="131pt"
 viewBox="0.00 0.00 666.42 131.00" xmlns="http://www.w3.org/2000/svg" xmlns:xlink="http://www.w3.org/1999/xlink">
<g id="graph0" class="graph" transform="scale(1 1) rotate(0) translate(4 127)">
<title>func_801B44B4</title>
<polygon fill="white" stroke="transparent" points="-4,4 -4,-127 662.42,-127 662.42,4 -4,4"/>
<!-- np3/func_801B44B4 -->
<g id="node1" class="node">
<title>np3/func_801B44B4</title>
<ellipse fill="green" stroke="black" cx="324.34" cy="-18" rx="104.78" ry="18"/>
<text text-anchor="middle" x="324.34" y="-14.3" font-family="Times,serif" font-size="14.00">np3/func_801B44B4</text>
</g>
<!-- np3/EntityPathBlockTallWeight -->
<g id="node2" class="node">
<title>np3/EntityPathBlockTallWeight</title>
<g id="a_node2"><a xlink:href="EntityPathBlockTallWeight.svg" xlink:title="np3/EntityPathBlockTallWeight">
<ellipse fill="green" stroke="black" cx="155.34" cy="-105" rx="155.17" ry="18"/>
<text text-anchor="middle" x="155.34" y="-101.3" font-family="Times,serif" font-size="14.00">np3/EntityPathBlockTallWeight</text>
</a>
</g>
</g>
<!-- np3/EntityPathBlockTallWeight&#45;&gt;np3/func_801B44B4 -->
<g id="edge1" class="edge">
<title>np3/EntityPathBlockTallWeight&#45;&gt;np3/func_801B44B4</title>
<path fill="none" stroke="black" d="M188.32,-87.41C215.37,-73.81 253.79,-54.48 282.91,-39.84"/>
<polygon fill="black" stroke="black" points="284.65,-42.88 292.01,-35.26 281.5,-36.63 284.65,-42.88"/>
<text text-anchor="middle" x="255.34" y="-57.8" font-family="Times,serif" font-size="14.00">1</text>
</g>
<!-- np3/EntityPathBlockSmallWeight -->
<g id="node3" class="node">
<title>np3/EntityPathBlockSmallWeight</title>
<g id="a_node3"><a xlink:href="EntityPathBlockSmallWeight.svg" xlink:title="np3/EntityPathBlockSmallWeight">
<ellipse fill="green" stroke="black" cx="493.34" cy="-105" rx="165.17" ry="18"/>
<text text-anchor="middle" x="493.34" y="-101.3" font-family="Times,serif" font-size="14.00">np3/EntityPathBlockSmallWeight</text>
</a>
</g>
</g>
<!-- np3/EntityPathBlockSmallWeight&#45;&gt;np3/func_801B44B4 -->
<g id="edge2" class="edge">
<title>np3/EntityPathBlockSmallWeight&#45;&gt;np3/func_801B44B4</title>
<path fill="none" stroke="black" d="M459.95,-87.21C432.87,-73.59 394.56,-54.32 365.57,-39.74"/>
<polygon fill="black" stroke="black" points="367.02,-36.55 356.51,-35.18 363.87,-42.8 367.02,-36.55"/>
<text text-anchor="middle" x="424.34" y="-57.8" font-family="Times,serif" font-size="14.00">1</text>
</g>
</g>
</svg>
