<?xml version="1.0" encoding="UTF-8" standalone="no"?>
<!DOCTYPE svg PUBLIC "-//W3C//DTD SVG 1.1//EN"
 "http://www.w3.org/Graphics/SVG/1.1/DTD/svg11.dtd">
<!-- Generated by graphviz version 2.43.0 (0)
 -->
<!-- Title: func_801AD490 Pages: 1 -->
<svg width="714pt" height="131pt"
 viewBox="0.00 0.00 714.03 131.00" xmlns="http://www.w3.org/2000/svg" xmlns:xlink="http://www.w3.org/1999/xlink">
<g id="graph0" class="graph" transform="scale(1 1) rotate(0) translate(4 127)">
<title>func_801AD490</title>
<polygon fill="white" stroke="transparent" points="-4,4 -4,-127 710.03,-127 710.03,4 -4,4"/>
<!-- sel/func_801AD490 -->
<g id="node1" class="node">
<title>sel/func_801AD490</title>
<ellipse fill="green" stroke="black" cx="365.19" cy="-105" rx="100.18" ry="18"/>
<text text-anchor="middle" x="365.19" y="-101.3" font-family="Times,serif" font-size="14.00">sel/func_801AD490</text>
</g>
<!-- sel/DrawNavigationTips -->
<g id="node2" class="node">
<title>sel/DrawNavigationTips</title>
<g id="a_node2"><a xlink:href="DrawNavigationTips.svg" xlink:title="sel/DrawNavigationTips">
<ellipse fill="green" stroke="black" cx="122.19" cy="-18" rx="122.38" ry="18"/>
<text text-anchor="middle" x="122.19" y="-14.3" font-family="Times,serif" font-size="14.00">sel/DrawNavigationTips</text>
</a>
</g>
</g>
<!-- sel/func_801AD490&#45;&gt;sel/DrawNavigationTips -->
<g id="edge1" class="edge">
<title>sel/func_801AD490&#45;&gt;sel/DrawNavigationTips</title>
<path fill="none" stroke="black" d="M321.46,-88.71C280.94,-74.53 220.5,-53.39 176.82,-38.11"/>
<polygon fill="black" stroke="black" points="177.8,-34.75 167.21,-34.75 175.49,-41.35 177.8,-34.75"/>
<text text-anchor="middle" x="264.19" y="-57.8" font-family="Times,serif" font-size="14.00">1</text>
</g>
<!-- sel/DrawImages8x8 -->
<g id="node3" class="node">
<title>sel/DrawImages8x8</title>
<g id="a_node3"><a xlink:href="DrawImages8x8.svg" xlink:title="sel/DrawImages8x8">
<ellipse fill="green" stroke="black" cx="365.19" cy="-18" rx="102.88" ry="18"/>
<text text-anchor="middle" x="365.19" y="-14.3" font-family="Times,serif" font-size="14.00">sel/DrawImages8x8</text>
</a>
</g>
</g>
<!-- sel/func_801AD490&#45;&gt;sel/DrawImages8x8 -->
<g id="edge2" class="edge">
<title>sel/func_801AD490&#45;&gt;sel/DrawImages8x8</title>
<path fill="none" stroke="black" d="M365.19,-86.8C365.19,-75.16 365.19,-59.55 365.19,-46.24"/>
<polygon fill="black" stroke="black" points="368.69,-46.18 365.19,-36.18 361.69,-46.18 368.69,-46.18"/>
<text text-anchor="middle" x="370.19" y="-57.8" font-family="Times,serif" font-size="14.00">2</text>
</g>
<!-- sel/DrawString16x16 -->
<g id="node4" class="node">
<title>sel/DrawString16x16</title>
<g id="a_node4"><a xlink:href="DrawString16x16.svg" xlink:title="sel/DrawString16x16">
<ellipse fill="red" stroke="black" cx="596.19" cy="-18" rx="109.68" ry="18"/>
<text text-anchor="middle" x="596.19" y="-14.3" font-family="Times,serif" font-size="14.00">sel/DrawString16x16</text>
</a>
</g>
</g>
<!-- sel/func_801AD490&#45;&gt;sel/DrawString16x16 -->
<g id="edge3" class="edge">
<title>sel/func_801AD490&#45;&gt;sel/DrawString16x16</title>
<path fill="none" stroke="black" d="M407.02,-88.61C445.42,-74.48 502.46,-53.49 543.86,-38.26"/>
<polygon fill="black" stroke="black" points="545.32,-41.45 553.5,-34.71 542.9,-34.88 545.32,-41.45"/>
<text text-anchor="middle" x="500.19" y="-57.8" font-family="Times,serif" font-size="14.00">3</text>
</g>
</g>
</svg>
