<?xml version="1.0" encoding="UTF-8" standalone="no"?>
<!DOCTYPE svg PUBLIC "-//W3C//DTD SVG 1.1//EN"
 "http://www.w3.org/Graphics/SVG/1.1/DTD/svg11.dtd">
<!-- Generated by graphviz version 2.43.0 (0)
 -->
<!-- Title: func_8012D178 Pages: 1 -->
<svg width="1106pt" height="218pt"
 viewBox="0.00 0.00 1106.03 218.00" xmlns="http://www.w3.org/2000/svg" xmlns:xlink="http://www.w3.org/1999/xlink">
<g id="graph0" class="graph" transform="scale(1 1) rotate(0) translate(4 214)">
<title>func_8012D178</title>
<polygon fill="white" stroke="transparent" points="-4,4 -4,-214 1102.03,-214 1102.03,4 -4,4"/>
<!-- dra/func_8012D178 -->
<g id="node1" class="node">
<title>dra/func_8012D178</title>
<ellipse fill="green" stroke="black" cx="549.34" cy="-105" rx="102.08" ry="18"/>
<text text-anchor="middle" x="549.34" y="-101.3" font-family="Times,serif" font-size="14.00">dra/func_8012D178</text>
</g>
<!-- dra/func_8012CCE4 -->
<g id="node2" class="node">
<title>dra/func_8012CCE4</title>
<g id="a_node2"><a xlink:href="func_8012CCE4.svg" xlink:title="dra/func_8012CCE4">
<ellipse fill="red" stroke="black" cx="103.34" cy="-18" rx="103.18" ry="18"/>
<text text-anchor="middle" x="103.34" y="-14.3" font-family="Times,serif" font-size="14.00">dra/func_8012CCE4</text>
</a>
</g>
</g>
<!-- dra/func_8012D178&#45;&gt;dra/func_8012CCE4 -->
<g id="edge1" class="edge">
<title>dra/func_8012D178&#45;&gt;dra/func_8012CCE4</title>
<path fill="none" stroke="black" d="M482.57,-91.27C401.58,-75.84 265.32,-49.87 180.08,-33.63"/>
<polygon fill="black" stroke="black" points="180.68,-30.18 170.2,-31.74 179.37,-37.05 180.68,-30.18"/>
<text text-anchor="middle" x="358.34" y="-57.8" font-family="Times,serif" font-size="14.00">1</text>
</g>
<!-- dra/func_8012CFA8 -->
<g id="node3" class="node">
<title>dra/func_8012CFA8</title>
<g id="a_node3"><a xlink:href="func_8012CFA8.svg" xlink:title="dra/func_8012CFA8">
<ellipse fill="green" stroke="black" cx="326.34" cy="-18" rx="101.28" ry="18"/>
<text text-anchor="middle" x="326.34" y="-14.3" font-family="Times,serif" font-size="14.00">dra/func_8012CFA8</text>
</a>
</g>
</g>
<!-- dra/func_8012D178&#45;&gt;dra/func_8012CFA8 -->
<g id="edge2" class="edge">
<title>dra/func_8012D178&#45;&gt;dra/func_8012CFA8</title>
<path fill="none" stroke="black" d="M508.44,-88.41C471.27,-74.24 416.31,-53.29 376.5,-38.12"/>
<polygon fill="black" stroke="black" points="377.57,-34.78 366.98,-34.49 375.08,-41.32 377.57,-34.78"/>
<text text-anchor="middle" x="456.34" y="-57.8" font-family="Times,serif" font-size="14.00">1</text>
</g>
<!-- dra/func_8012CB4C -->
<g id="node4" class="node">
<title>dra/func_8012CB4C</title>
<g id="a_node4"><a xlink:href="func_8012CB4C.svg" xlink:title="dra/func_8012CB4C">
<ellipse fill="green" stroke="black" cx="549.34" cy="-18" rx="103.18" ry="18"/>
<text text-anchor="middle" x="549.34" y="-14.3" font-family="Times,serif" font-size="14.00">dra/func_8012CB4C</text>
</a>
</g>
</g>
<!-- dra/func_8012D178&#45;&gt;dra/func_8012CB4C -->
<g id="edge3" class="edge">
<title>dra/func_8012D178&#45;&gt;dra/func_8012CB4C</title>
<path fill="none" stroke="black" d="M549.34,-86.8C549.34,-75.16 549.34,-59.55 549.34,-46.24"/>
<polygon fill="black" stroke="black" points="552.84,-46.18 549.34,-36.18 545.84,-46.18 552.84,-46.18"/>
<text text-anchor="middle" x="554.34" y="-57.8" font-family="Times,serif" font-size="14.00">1</text>
</g>
<!-- dra/func_8012CA64 -->
<g id="node5" class="node">
<title>dra/func_8012CA64</title>
<g id="a_node5"><a xlink:href="func_8012CA64.svg" xlink:title="dra/func_8012CA64">
<ellipse fill="green" stroke="black" cx="772.34" cy="-18" rx="102.08" ry="18"/>
<text text-anchor="middle" x="772.34" y="-14.3" font-family="Times,serif" font-size="14.00">dra/func_8012CA64</text>
</a>
</g>
</g>
<!-- dra/func_8012D178&#45;&gt;dra/func_8012CA64 -->
<g id="edge4" class="edge">
<title>dra/func_8012D178&#45;&gt;dra/func_8012CA64</title>
<path fill="none" stroke="black" d="M590.24,-88.41C627.3,-74.29 682.03,-53.43 721.8,-38.26"/>
<polygon fill="black" stroke="black" points="723.22,-41.47 731.32,-34.64 720.73,-34.93 723.22,-41.47"/>
<text text-anchor="middle" x="679.34" y="-57.8" font-family="Times,serif" font-size="14.00">1</text>
</g>
<!-- dra/func_8011AAFC -->
<g id="node6" class="node">
<title>dra/func_8011AAFC</title>
<g id="a_node6"><a xlink:href="func_8011AAFC.svg" xlink:title="dra/func_8011AAFC">
<ellipse fill="green" stroke="black" cx="995.34" cy="-18" rx="102.88" ry="18"/>
<text text-anchor="middle" x="995.34" y="-14.3" font-family="Times,serif" font-size="14.00">dra/func_8011AAFC</text>
</a>
</g>
</g>
<!-- dra/func_8012D178&#45;&gt;dra/func_8011AAFC -->
<g id="edge5" class="edge">
<title>dra/func_8012D178&#45;&gt;dra/func_8011AAFC</title>
<path fill="none" stroke="black" d="M616.11,-91.27C697.11,-75.84 833.36,-49.87 918.6,-33.63"/>
<polygon fill="black" stroke="black" points="919.31,-37.05 928.48,-31.74 918,-30.18 919.31,-37.05"/>
<text text-anchor="middle" x="803.34" y="-57.8" font-family="Times,serif" font-size="14.00">1</text>
</g>
<!-- dra/func_8012EF2C -->
<g id="node7" class="node">
<title>dra/func_8012EF2C</title>
<g id="a_node7"><a xlink:href="func_8012EF2C.svg" xlink:title="dra/func_8012EF2C">
<ellipse fill="red" stroke="black" cx="549.34" cy="-192" rx="102.88" ry="18"/>
<text text-anchor="middle" x="549.34" y="-188.3" font-family="Times,serif" font-size="14.00">dra/func_8012EF2C</text>
</a>
</g>
</g>
<!-- dra/func_8012EF2C&#45;&gt;dra/func_8012D178 -->
<g id="edge6" class="edge">
<title>dra/func_8012EF2C&#45;&gt;dra/func_8012D178</title>
<path fill="none" stroke="black" d="M549.34,-173.8C549.34,-162.16 549.34,-146.55 549.34,-133.24"/>
<polygon fill="black" stroke="black" points="552.84,-133.18 549.34,-123.18 545.84,-133.18 552.84,-133.18"/>
<text text-anchor="middle" x="554.34" y="-144.8" font-family="Times,serif" font-size="14.00">1</text>
</g>
</g>
</svg>
