<?xml version="1.0" encoding="UTF-8" standalone="no"?>
<!DOCTYPE svg PUBLIC "-//W3C//DTD SVG 1.1//EN"
 "http://www.w3.org/Graphics/SVG/1.1/DTD/svg11.dtd">
<!-- Generated by graphviz version 2.43.0 (0)
 -->
<!-- Title: func_80169F04 Pages: 1 -->
<svg width="585pt" height="131pt"
 viewBox="0.00 0.00 585.23 131.00" xmlns="http://www.w3.org/2000/svg" xmlns:xlink="http://www.w3.org/1999/xlink">
<g id="graph0" class="graph" transform="scale(1 1) rotate(0) translate(4 127)">
<title>func_80169F04</title>
<polygon fill="white" stroke="transparent" points="-4,4 -4,-127 581.23,-127 581.23,4 -4,4"/>
<!-- ric/func_80169F04 -->
<g id="node1" class="node">
<title>ric/func_80169F04</title>
<ellipse fill="red" stroke="black" cx="365.79" cy="-105" rx="97.48" ry="18"/>
<text text-anchor="middle" x="365.79" y="-101.3" font-family="Times,serif" font-size="14.00">ric/func_80169F04</text>
</g>
<!-- ric/g_api_AllocPrimitives -->
<g id="node2" class="node">
<title>ric/g_api_AllocPrimitives</title>
<g id="a_node2"><a xlink:href="g_api_AllocPrimitives.svg" xlink:title="ric/g_api_AllocPrimitives">
<ellipse fill="lightblue" stroke="black" cx="124.79" cy="-18" rx="124.58" ry="18"/>
<text text-anchor="middle" x="124.79" y="-14.3" font-family="Times,serif" font-size="14.00">ric/g_api_AllocPrimitives</text>
</a>
</g>
</g>
<!-- ric/func_80169F04&#45;&gt;ric/g_api_AllocPrimitives -->
<g id="edge1" class="edge">
<title>ric/func_80169F04&#45;&gt;ric/g_api_AllocPrimitives</title>
<path fill="none" stroke="black" d="M322.7,-88.8C282.68,-74.69 222.89,-53.6 179.5,-38.3"/>
<polygon fill="black" stroke="black" points="180.55,-34.96 169.96,-34.93 178.22,-41.56 180.55,-34.96"/>
<text text-anchor="middle" x="264.79" y="-57.8" font-family="Times,serif" font-size="14.00">1</text>
</g>
<!-- ric/func_80156C60 -->
<g id="node3" class="node">
<title>ric/func_80156C60</title>
<g id="a_node3"><a xlink:href="func_80156C60.svg" xlink:title="ric/func_80156C60">
<ellipse fill="green" stroke="black" cx="365.79" cy="-18" rx="98.28" ry="18"/>
<text text-anchor="middle" x="365.79" y="-14.3" font-family="Times,serif" font-size="14.00">ric/func_80156C60</text>
</a>
</g>
</g>
<!-- ric/func_80169F04&#45;&gt;ric/func_80156C60 -->
<g id="edge2" class="edge">
<title>ric/func_80169F04&#45;&gt;ric/func_80156C60</title>
<path fill="none" stroke="black" d="M365.79,-86.8C365.79,-75.16 365.79,-59.55 365.79,-46.24"/>
<polygon fill="black" stroke="black" points="369.29,-46.18 365.79,-36.18 362.29,-46.18 369.29,-46.18"/>
<text text-anchor="middle" x="370.79" y="-57.8" font-family="Times,serif" font-size="14.00">1</text>
</g>
<!-- ric/rand -->
<g id="node4" class="node">
<title>ric/rand</title>
<g id="a_node4"><a xlink:href="rand.svg" xlink:title="ric/rand">
<ellipse fill="lightblue" stroke="black" cx="529.79" cy="-18" rx="47.39" ry="18"/>
<text text-anchor="middle" x="529.79" y="-14.3" font-family="Times,serif" font-size="14.00">ric/rand</text>
</a>
</g>
</g>
<!-- ric/func_80169F04&#45;&gt;ric/rand -->
<g id="edge3" class="edge">
<title>ric/func_80169F04&#45;&gt;ric/rand</title>
<path fill="none" stroke="black" d="M397.02,-87.81C424.7,-73.47 465.09,-52.53 494.04,-37.53"/>
<polygon fill="black" stroke="black" points="495.75,-40.59 503.01,-32.88 492.52,-34.37 495.75,-40.59"/>
<text text-anchor="middle" x="462.79" y="-57.8" font-family="Times,serif" font-size="14.00">3</text>
</g>
</g>
</svg>
