<?xml version="1.0" encoding="UTF-8" standalone="no"?>
<!DOCTYPE svg PUBLIC "-//W3C//DTD SVG 1.1//EN"
 "http://www.w3.org/Graphics/SVG/1.1/DTD/svg11.dtd">
<!-- Generated by graphviz version 2.43.0 (0)
 -->
<!-- Title: func_801ACFBC Pages: 1 -->
<svg width="986pt" height="218pt"
 viewBox="0.00 0.00 985.58 218.00" xmlns="http://www.w3.org/2000/svg" xmlns:xlink="http://www.w3.org/1999/xlink">
<g id="graph0" class="graph" transform="scale(1 1) rotate(0) translate(4 214)">
<title>func_801ACFBC</title>
<polygon fill="white" stroke="transparent" points="-4,4 -4,-214 981.58,-214 981.58,4 -4,4"/>
<!-- sel/func_801ACFBC -->
<g id="node1" class="node">
<title>sel/func_801ACFBC</title>
<ellipse fill="red" stroke="black" cx="441.79" cy="-105" rx="102.08" ry="18"/>
<text text-anchor="middle" x="441.79" y="-101.3" font-family="Times,serif" font-size="14.00">sel/func_801ACFBC</text>
</g>
<!-- sel/func_801B2984 -->
<g id="node2" class="node">
<title>sel/func_801B2984</title>
<g id="a_node2"><a xlink:href="func_801B2984.svg" xlink:title="sel/func_801B2984">
<ellipse fill="green" stroke="black" cx="98.79" cy="-18" rx="98.58" ry="18"/>
<text text-anchor="middle" x="98.79" y="-14.3" font-family="Times,serif" font-size="14.00">sel/func_801B2984</text>
</a>
</g>
</g>
<!-- sel/func_801ACFBC&#45;&gt;sel/func_801B2984 -->
<g id="edge1" class="edge">
<title>sel/func_801ACFBC&#45;&gt;sel/func_801B2984</title>
<path fill="none" stroke="black" d="M385.15,-89.96C324.56,-74.95 228.55,-51.16 164.63,-35.32"/>
<polygon fill="black" stroke="black" points="165.21,-31.85 154.66,-32.85 163.53,-38.65 165.21,-31.85"/>
<text text-anchor="middle" x="296.79" y="-57.8" font-family="Times,serif" font-size="14.00">1</text>
</g>
<!-- sel/strcat -->
<g id="node3" class="node">
<title>sel/strcat</title>
<g id="a_node3"><a xlink:href="strcat.svg" xlink:title="sel/strcat">
<ellipse fill="lightblue" stroke="black" cx="269.79" cy="-18" rx="53.89" ry="18"/>
<text text-anchor="middle" x="269.79" y="-14.3" font-family="Times,serif" font-size="14.00">sel/strcat</text>
</a>
</g>
</g>
<!-- sel/func_801ACFBC&#45;&gt;sel/strcat -->
<g id="edge2" class="edge">
<title>sel/func_801ACFBC&#45;&gt;sel/strcat</title>
<path fill="none" stroke="black" d="M409.03,-87.81C380.15,-73.54 338.05,-52.73 307.72,-37.74"/>
<polygon fill="black" stroke="black" points="309.22,-34.58 298.71,-33.29 306.12,-40.86 309.22,-34.58"/>
<text text-anchor="middle" x="371.79" y="-57.8" font-family="Times,serif" font-size="14.00">1</text>
</g>
<!-- sel/func_801B263C -->
<g id="node4" class="node">
<title>sel/func_801B263C</title>
<g id="a_node4"><a xlink:href="func_801B263C.svg" xlink:title="sel/func_801B263C">
<ellipse fill="green" stroke="black" cx="441.79" cy="-18" rx="100.18" ry="18"/>
<text text-anchor="middle" x="441.79" y="-14.3" font-family="Times,serif" font-size="14.00">sel/func_801B263C</text>
</a>
</g>
</g>
<!-- sel/func_801ACFBC&#45;&gt;sel/func_801B263C -->
<g id="edge3" class="edge">
<title>sel/func_801ACFBC&#45;&gt;sel/func_801B263C</title>
<path fill="none" stroke="black" d="M441.79,-86.8C441.79,-75.16 441.79,-59.55 441.79,-46.24"/>
<polygon fill="black" stroke="black" points="445.29,-46.18 441.79,-36.18 438.29,-46.18 445.29,-46.18"/>
<text text-anchor="middle" x="446.79" y="-57.8" font-family="Times,serif" font-size="14.00">1</text>
</g>
<!-- sel/func_801B25D4 -->
<g id="node5" class="node">
<title>sel/func_801B25D4</title>
<g id="a_node5"><a xlink:href="func_801B25D4.svg" xlink:title="sel/func_801B25D4">
<ellipse fill="green" stroke="black" cx="660.79" cy="-18" rx="100.98" ry="18"/>
<text text-anchor="middle" x="660.79" y="-14.3" font-family="Times,serif" font-size="14.00">sel/func_801B25D4</text>
</a>
</g>
</g>
<!-- sel/func_801ACFBC&#45;&gt;sel/func_801B25D4 -->
<g id="edge4" class="edge">
<title>sel/func_801ACFBC&#45;&gt;sel/func_801B25D4</title>
<path fill="none" stroke="black" d="M481.96,-88.41C518.27,-74.32 571.87,-53.51 610.91,-38.36"/>
<polygon fill="black" stroke="black" points="612.45,-41.52 620.51,-34.64 609.92,-34.99 612.45,-41.52"/>
<text text-anchor="middle" x="568.79" y="-57.8" font-family="Times,serif" font-size="14.00">1</text>
</g>
<!-- sel/func_801B2608 -->
<g id="node6" class="node">
<title>sel/func_801B2608</title>
<g id="a_node6"><a xlink:href="func_801B2608.svg" xlink:title="sel/func_801B2608">
<ellipse fill="green" stroke="black" cx="878.79" cy="-18" rx="98.58" ry="18"/>
<text text-anchor="middle" x="878.79" y="-14.3" font-family="Times,serif" font-size="14.00">sel/func_801B2608</text>
</a>
</g>
</g>
<!-- sel/func_801ACFBC&#45;&gt;sel/func_801B2608 -->
<g id="edge5" class="edge">
<title>sel/func_801ACFBC&#45;&gt;sel/func_801B2608</title>
<path fill="none" stroke="black" d="M507.69,-91.18C587.19,-75.72 720.54,-49.78 803.88,-33.57"/>
<polygon fill="black" stroke="black" points="804.64,-36.99 813.79,-31.64 803.3,-30.12 804.64,-36.99"/>
<text text-anchor="middle" x="690.79" y="-57.8" font-family="Times,serif" font-size="14.00">1</text>
</g>
<!-- sel/func_801AE6D0 -->
<g id="node7" class="node">
<title>sel/func_801AE6D0</title>
<g id="a_node7"><a xlink:href="func_801AE6D0.svg" xlink:title="sel/func_801AE6D0">
<ellipse fill="red" stroke="black" cx="332.79" cy="-192" rx="100.98" ry="18"/>
<text text-anchor="middle" x="332.79" y="-188.3" font-family="Times,serif" font-size="14.00">sel/func_801AE6D0</text>
</a>
</g>
</g>
<!-- sel/func_801AE6D0&#45;&gt;sel/func_801ACFBC -->
<g id="edge6" class="edge">
<title>sel/func_801AE6D0&#45;&gt;sel/func_801ACFBC</title>
<path fill="none" stroke="black" d="M354.33,-174.21C370.9,-161.28 393.98,-143.28 412.27,-129.02"/>
<polygon fill="black" stroke="black" points="414.57,-131.67 420.3,-122.76 410.26,-126.15 414.57,-131.67"/>
<text text-anchor="middle" x="399.79" y="-144.8" font-family="Times,serif" font-size="14.00">1</text>
</g>
<!-- sel/func_801ADF94 -->
<g id="node8" class="node">
<title>sel/func_801ADF94</title>
<g id="a_node8"><a xlink:href="func_801ADF94.svg" xlink:title="sel/func_801ADF94">
<ellipse fill="red" stroke="black" cx="551.79" cy="-192" rx="100.98" ry="18"/>
<text text-anchor="middle" x="551.79" y="-188.3" font-family="Times,serif" font-size="14.00">sel/func_801ADF94</text>
</a>
</g>
</g>
<!-- sel/func_801ADF94&#45;&gt;sel/func_801ACFBC -->
<g id="edge7" class="edge">
<title>sel/func_801ADF94&#45;&gt;sel/func_801ACFBC</title>
<path fill="none" stroke="black" d="M530.32,-174.41C513.62,-161.51 490.25,-143.45 471.72,-129.13"/>
<polygon fill="black" stroke="black" points="473.64,-126.18 463.58,-122.84 469.36,-131.72 473.64,-126.18"/>
<text text-anchor="middle" x="508.79" y="-144.8" font-family="Times,serif" font-size="14.00">1</text>
</g>
</g>
</svg>
