<?xml version="1.0" encoding="UTF-8" standalone="no"?>
<!DOCTYPE svg PUBLIC "-//W3C//DTD SVG 1.1//EN"
 "http://www.w3.org/Graphics/SVG/1.1/DTD/svg11.dtd">
<!-- Generated by graphviz version 2.43.0 (0)
 -->
<!-- Title: func_801071CC Pages: 1 -->
<svg width="890pt" height="131pt"
 viewBox="0.00 0.00 889.58 131.00" xmlns="http://www.w3.org/2000/svg" xmlns:xlink="http://www.w3.org/1999/xlink">
<g id="graph0" class="graph" transform="scale(1 1) rotate(0) translate(4 127)">
<title>func_801071CC</title>
<polygon fill="white" stroke="transparent" points="-4,4 -4,-127 885.58,-127 885.58,4 -4,4"/>
<!-- dra/func_801071CC -->
<g id="node1" class="node">
<title>dra/func_801071CC</title>
<ellipse fill="green" stroke="black" cx="449.19" cy="-18" rx="102.88" ry="18"/>
<text text-anchor="middle" x="449.19" y="-14.3" font-family="Times,serif" font-size="14.00">dra/func_801071CC</text>
</g>
<!-- dra/DrawMenuSprite -->
<g id="node2" class="node">
<title>dra/DrawMenuSprite</title>
<g id="a_node2"><a xlink:href="DrawMenuSprite.svg" xlink:title="dra/DrawMenuSprite">
<ellipse fill="green" stroke="black" cx="109.19" cy="-105" rx="109.38" ry="18"/>
<text text-anchor="middle" x="109.19" y="-101.3" font-family="Times,serif" font-size="14.00">dra/DrawMenuSprite</text>
</a>
</g>
</g>
<!-- dra/DrawMenuSprite&#45;&gt;dra/func_801071CC -->
<g id="edge1" class="edge">
<title>dra/DrawMenuSprite&#45;&gt;dra/func_801071CC</title>
<path fill="none" stroke="black" d="M166.87,-89.58C226.75,-74.61 320.3,-51.22 383.12,-35.52"/>
<polygon fill="black" stroke="black" points="384.08,-38.89 392.93,-33.07 382.38,-32.09 384.08,-38.89"/>
<text text-anchor="middle" x="305.19" y="-57.8" font-family="Times,serif" font-size="14.00">2</text>
</g>
<!-- dra/func_80102EB8 -->
<g id="node3" class="node">
<title>dra/func_80102EB8</title>
<g id="a_node3"><a xlink:href="func_80102EB8.svg" xlink:title="dra/func_80102EB8">
<ellipse fill="green" stroke="black" cx="339.19" cy="-105" rx="102.88" ry="18"/>
<text text-anchor="middle" x="339.19" y="-101.3" font-family="Times,serif" font-size="14.00">dra/func_80102EB8</text>
</a>
</g>
</g>
<!-- dra/func_80102EB8&#45;&gt;dra/func_801071CC -->
<g id="edge2" class="edge">
<title>dra/func_80102EB8&#45;&gt;dra/func_801071CC</title>
<path fill="none" stroke="black" d="M360.92,-87.21C377.65,-74.28 400.94,-56.28 419.4,-42.02"/>
<polygon fill="black" stroke="black" points="421.73,-44.64 427.5,-35.76 417.45,-39.1 421.73,-44.64"/>
<text text-anchor="middle" x="406.19" y="-57.8" font-family="Times,serif" font-size="14.00">2</text>
</g>
<!-- dra/func_80107250 -->
<g id="node4" class="node">
<title>dra/func_80107250</title>
<g id="a_node4"><a xlink:href="func_80107250.svg" xlink:title="dra/func_80107250">
<ellipse fill="green" stroke="black" cx="560.19" cy="-105" rx="100.98" ry="18"/>
<text text-anchor="middle" x="560.19" y="-101.3" font-family="Times,serif" font-size="14.00">dra/func_80107250</text>
</a>
</g>
</g>
<!-- dra/func_80107250&#45;&gt;dra/func_801071CC -->
<g id="edge3" class="edge">
<title>dra/func_80107250&#45;&gt;dra/func_801071CC</title>
<path fill="none" stroke="black" d="M538.52,-87.41C521.6,-74.45 497.88,-56.28 479.14,-41.93"/>
<polygon fill="black" stroke="black" points="481.25,-39.14 471.18,-35.84 476.99,-44.7 481.25,-39.14"/>
<text text-anchor="middle" x="517.19" y="-57.8" font-family="Times,serif" font-size="14.00">4</text>
</g>
<!-- dra/func_80100B50 -->
<g id="node5" class="node">
<title>dra/func_80100B50</title>
<g id="a_node5"><a xlink:href="func_80100B50.svg" xlink:title="dra/func_80100B50">
<ellipse fill="red" stroke="black" cx="780.19" cy="-105" rx="101.28" ry="18"/>
<text text-anchor="middle" x="780.19" y="-101.3" font-family="Times,serif" font-size="14.00">dra/func_80100B50</text>
</a>
</g>
</g>
<!-- dra/func_80100B50&#45;&gt;dra/func_801071CC -->
<g id="edge4" class="edge">
<title>dra/func_80100B50&#45;&gt;dra/func_801071CC</title>
<path fill="none" stroke="black" d="M725.16,-89.87C667.26,-75 576.16,-51.61 514.62,-35.8"/>
<polygon fill="black" stroke="black" points="515.18,-32.33 504.63,-33.24 513.44,-39.11 515.18,-32.33"/>
<text text-anchor="middle" x="640.19" y="-57.8" font-family="Times,serif" font-size="14.00">4</text>
</g>
</g>
</svg>
