<?xml version="1.0" encoding="UTF-8" standalone="no"?>
<!DOCTYPE svg PUBLIC "-//W3C//DTD SVG 1.1//EN"
 "http://www.w3.org/Graphics/SVG/1.1/DTD/svg11.dtd">
<!-- Generated by graphviz version 2.43.0 (0)
 -->
<!-- Title: func_8018D6B0 Pages: 1 -->
<svg width="1633pt" height="131pt"
 viewBox="0.00 0.00 1633.03 131.00" xmlns="http://www.w3.org/2000/svg" xmlns:xlink="http://www.w3.org/1999/xlink">
<g id="graph0" class="graph" transform="scale(1 1) rotate(0) translate(4 127)">
<title>func_8018D6B0</title>
<polygon fill="white" stroke="transparent" points="-4,4 -4,-127 1629.03,-127 1629.03,4 -4,4"/>
<!-- rwrp/func_8018D6B0 -->
<g id="node1" class="node">
<title>rwrp/func_8018D6B0</title>
<ellipse fill="red" stroke="black" cx="814.49" cy="-18" rx="109.68" ry="18"/>
<text text-anchor="middle" x="814.49" y="-14.3" font-family="Times,serif" font-size="14.00">rwrp/func_8018D6B0</text>
</g>
<!-- rwrp/func_80194DD4 -->
<g id="node2" class="node">
<title>rwrp/func_80194DD4</title>
<g id="a_node2"><a xlink:href="func_80194DD4.svg" xlink:title="rwrp/func_80194DD4">
<ellipse fill="green" stroke="black" cx="110.49" cy="-105" rx="110.48" ry="18"/>
<text text-anchor="middle" x="110.49" y="-101.3" font-family="Times,serif" font-size="14.00">rwrp/func_80194DD4</text>
</a>
</g>
</g>
<!-- rwrp/func_80194DD4&#45;&gt;rwrp/func_8018D6B0 -->
<g id="edge1" class="edge">
<title>rwrp/func_80194DD4&#45;&gt;rwrp/func_8018D6B0</title>
<path fill="none" stroke="black" d="M189.85,-92.47C203.4,-90.59 217.34,-88.7 230.49,-87 400.67,-65.04 599.16,-42.6 715.41,-29.78"/>
<polygon fill="black" stroke="black" points="715.8,-33.26 725.36,-28.68 715.04,-26.3 715.8,-33.26"/>
<text text-anchor="middle" x="492.49" y="-57.8" font-family="Times,serif" font-size="14.00">1</text>
</g>
<!-- rwrp/func_80188DF0 -->
<g id="node3" class="node">
<title>rwrp/func_80188DF0</title>
<g id="a_node3"><a xlink:href="func_80188DF0.svg" xlink:title="rwrp/func_80188DF0">
<ellipse fill="red" stroke="black" cx="348.49" cy="-105" rx="109.38" ry="18"/>
<text text-anchor="middle" x="348.49" y="-101.3" font-family="Times,serif" font-size="14.00">rwrp/func_80188DF0</text>
</a>
</g>
</g>
<!-- rwrp/func_80188DF0&#45;&gt;rwrp/func_8018D6B0 -->
<g id="edge2" class="edge">
<title>rwrp/func_80188DF0&#45;&gt;rwrp/func_8018D6B0</title>
<path fill="none" stroke="black" d="M418.76,-91.18C503.35,-75.75 645.08,-49.9 733.99,-33.68"/>
<polygon fill="black" stroke="black" points="734.82,-37.09 744.03,-31.85 733.56,-30.2 734.82,-37.09"/>
<text text-anchor="middle" x="614.49" y="-57.8" font-family="Times,serif" font-size="14.00">1</text>
</g>
<!-- rwrp/func_80192594 -->
<g id="node4" class="node">
<title>rwrp/func_80192594</title>
<g id="a_node4"><a xlink:href="func_80192594.svg" xlink:title="rwrp/func_80192594">
<ellipse fill="red" stroke="black" cx="582.49" cy="-105" rx="107.48" ry="18"/>
<text text-anchor="middle" x="582.49" y="-101.3" font-family="Times,serif" font-size="14.00">rwrp/func_80192594</text>
</a>
</g>
</g>
<!-- rwrp/func_80192594&#45;&gt;rwrp/func_8018D6B0 -->
<g id="edge3" class="edge">
<title>rwrp/func_80192594&#45;&gt;rwrp/func_8018D6B0</title>
<path fill="none" stroke="black" d="M625.04,-88.41C663.67,-74.26 720.77,-53.34 762.18,-38.17"/>
<polygon fill="black" stroke="black" points="763.63,-41.36 771.82,-34.64 761.22,-34.79 763.63,-41.36"/>
<text text-anchor="middle" x="717.49" y="-57.8" font-family="Times,serif" font-size="14.00">1</text>
</g>
<!-- rwrp/func_80192348 -->
<g id="node5" class="node">
<title>rwrp/func_80192348</title>
<g id="a_node5"><a xlink:href="func_80192348.svg" xlink:title="rwrp/func_80192348">
<ellipse fill="red" stroke="black" cx="814.49" cy="-105" rx="107.48" ry="18"/>
<text text-anchor="middle" x="814.49" y="-101.3" font-family="Times,serif" font-size="14.00">rwrp/func_80192348</text>
</a>
</g>
</g>
<!-- rwrp/func_80192348&#45;&gt;rwrp/func_8018D6B0 -->
<g id="edge4" class="edge">
<title>rwrp/func_80192348&#45;&gt;rwrp/func_8018D6B0</title>
<path fill="none" stroke="black" d="M814.49,-86.8C814.49,-75.16 814.49,-59.55 814.49,-46.24"/>
<polygon fill="black" stroke="black" points="817.99,-46.18 814.49,-36.18 810.99,-46.18 817.99,-46.18"/>
<text text-anchor="middle" x="819.49" y="-57.8" font-family="Times,serif" font-size="14.00">1</text>
</g>
<!-- rwrp/func_8018F814 -->
<g id="node6" class="node">
<title>rwrp/func_8018F814</title>
<g id="a_node6"><a xlink:href="func_8018F814.svg" xlink:title="rwrp/func_8018F814">
<ellipse fill="red" stroke="black" cx="1047.49" cy="-105" rx="107.78" ry="18"/>
<text text-anchor="middle" x="1047.49" y="-101.3" font-family="Times,serif" font-size="14.00">rwrp/func_8018F814</text>
</a>
</g>
</g>
<!-- rwrp/func_8018F814&#45;&gt;rwrp/func_8018D6B0 -->
<g id="edge5" class="edge">
<title>rwrp/func_8018F814&#45;&gt;rwrp/func_8018D6B0</title>
<path fill="none" stroke="black" d="M1004.75,-88.41C965.87,-74.23 908.37,-53.25 866.77,-38.07"/>
<polygon fill="black" stroke="black" points="867.94,-34.77 857.35,-34.64 865.54,-41.35 867.94,-34.77"/>
<text text-anchor="middle" x="950.49" y="-57.8" font-family="Times,serif" font-size="14.00">1</text>
</g>
<!-- rwrp/func_8018908C -->
<g id="node7" class="node">
<title>rwrp/func_8018908C</title>
<g id="a_node7"><a xlink:href="func_8018908C.svg" xlink:title="rwrp/func_8018908C">
<ellipse fill="red" stroke="black" cx="1281.49" cy="-105" rx="108.58" ry="18"/>
<text text-anchor="middle" x="1281.49" y="-101.3" font-family="Times,serif" font-size="14.00">rwrp/func_8018908C</text>
</a>
</g>
</g>
<!-- rwrp/func_8018908C&#45;&gt;rwrp/func_8018D6B0 -->
<g id="edge6" class="edge">
<title>rwrp/func_8018908C&#45;&gt;rwrp/func_8018D6B0</title>
<path fill="none" stroke="black" d="M1211.32,-91.23C1126.61,-75.81 984.45,-49.93 895.25,-33.7"/>
<polygon fill="black" stroke="black" points="895.65,-30.21 885.18,-31.87 894.39,-37.1 895.65,-30.21"/>
<text text-anchor="middle" x="1081.49" y="-57.8" font-family="Times,serif" font-size="14.00">1</text>
</g>
<!-- rwrp/func_8018EFA0 -->
<g id="node8" class="node">
<title>rwrp/func_8018EFA0</title>
<g id="a_node8"><a xlink:href="func_8018EFA0.svg" xlink:title="rwrp/func_8018EFA0">
<ellipse fill="red" stroke="black" cx="1516.49" cy="-105" rx="108.58" ry="18"/>
<text text-anchor="middle" x="1516.49" y="-101.3" font-family="Times,serif" font-size="14.00">rwrp/func_8018EFA0</text>
</a>
</g>
</g>
<!-- rwrp/func_8018EFA0&#45;&gt;rwrp/func_8018D6B0 -->
<g id="edge7" class="edge">
<title>rwrp/func_8018EFA0&#45;&gt;rwrp/func_8018D6B0</title>
<path fill="none" stroke="black" d="M1438.81,-92.4C1425.69,-90.53 1412.21,-88.66 1399.49,-87 1229.06,-64.72 1030.22,-42.38 913.76,-29.66"/>
<polygon fill="black" stroke="black" points="914.11,-26.18 903.79,-28.58 913.35,-33.14 914.11,-26.18"/>
<text text-anchor="middle" x="1260.49" y="-57.8" font-family="Times,serif" font-size="14.00">1</text>
</g>
</g>
</svg>
