<?xml version="1.0" encoding="UTF-8" standalone="no"?>
<!DOCTYPE svg PUBLIC "-//W3C//DTD SVG 1.1//EN"
 "http://www.w3.org/Graphics/SVG/1.1/DTD/svg11.dtd">
<!-- Generated by graphviz version 2.43.0 (0)
 -->
<!-- Title: func_4000_8017B474 Pages: 1 -->
<svg width="1567pt" height="131pt"
 viewBox="0.00 0.00 1566.57 131.00" xmlns="http://www.w3.org/2000/svg" xmlns:xlink="http://www.w3.org/1999/xlink">
<g id="graph0" class="graph" transform="scale(1 1) rotate(0) translate(4 127)">
<title>func_4000_8017B474</title>
<polygon fill="white" stroke="transparent" points="-4,4 -4,-127 1562.57,-127 1562.57,4 -4,4"/>
<!-- weapon/func_4000_8017B474 -->
<g id="node1" class="node">
<title>weapon/func_4000_8017B474</title>
<ellipse fill="red" stroke="black" cx="749.79" cy="-105" rx="149.47" ry="18"/>
<text text-anchor="middle" x="749.79" y="-101.3" font-family="Times,serif" font-size="14.00">weapon/func_4000_8017B474</text>
</g>
<!-- weapon/func_4000_8017B1D8 -->
<g id="node2" class="node">
<title>weapon/func_4000_8017B1D8</title>
<g id="a_node2"><a xlink:href="func_4000_8017B1D8.svg" xlink:title="weapon/func_4000_8017B1D8">
<ellipse fill="red" stroke="black" cx="150.79" cy="-18" rx="150.57" ry="18"/>
<text text-anchor="middle" x="150.79" y="-14.3" font-family="Times,serif" font-size="14.00">weapon/func_4000_8017B1D8</text>
</a>
</g>
</g>
<!-- weapon/func_4000_8017B474&#45;&gt;weapon/func_4000_8017B1D8 -->
<g id="edge1" class="edge">
<title>weapon/func_4000_8017B474&#45;&gt;weapon/func_4000_8017B1D8</title>
<path fill="none" stroke="black" d="M657.18,-90.86C548.16,-75.39 367.62,-49.77 254.14,-33.67"/>
<polygon fill="black" stroke="black" points="254.44,-30.17 244.05,-32.23 253.46,-37.1 254.44,-30.17"/>
<text text-anchor="middle" x="491.79" y="-57.8" font-family="Times,serif" font-size="14.00">1</text>
</g>
<!-- weapon/func_4000_8017B378 -->
<g id="node3" class="node">
<title>weapon/func_4000_8017B378</title>
<g id="a_node3"><a xlink:href="func_4000_8017B378.svg" xlink:title="weapon/func_4000_8017B378">
<ellipse fill="red" stroke="black" cx="468.79" cy="-18" rx="149.47" ry="18"/>
<text text-anchor="middle" x="468.79" y="-14.3" font-family="Times,serif" font-size="14.00">weapon/func_4000_8017B378</text>
</a>
</g>
</g>
<!-- weapon/func_4000_8017B474&#45;&gt;weapon/func_4000_8017B378 -->
<g id="edge2" class="edge">
<title>weapon/func_4000_8017B474&#45;&gt;weapon/func_4000_8017B378</title>
<path fill="none" stroke="black" d="M697.26,-88.11C650.2,-73.88 581.11,-52.98 531.24,-37.89"/>
<polygon fill="black" stroke="black" points="532.11,-34.5 521.53,-34.95 530.09,-41.2 532.11,-34.5"/>
<text text-anchor="middle" x="631.79" y="-57.8" font-family="Times,serif" font-size="14.00">1</text>
</g>
<!-- weapon/g_api_PlaySfx -->
<g id="node4" class="node">
<title>weapon/g_api_PlaySfx</title>
<g id="a_node4"><a xlink:href="g_api_PlaySfx.svg" xlink:title="weapon/g_api_PlaySfx">
<ellipse fill="lightblue" stroke="black" cx="749.79" cy="-18" rx="113.18" ry="18"/>
<text text-anchor="middle" x="749.79" y="-14.3" font-family="Times,serif" font-size="14.00">weapon/g_api_PlaySfx</text>
</a>
</g>
</g>
<!-- weapon/func_4000_8017B474&#45;&gt;weapon/g_api_PlaySfx -->
<g id="edge3" class="edge">
<title>weapon/func_4000_8017B474&#45;&gt;weapon/g_api_PlaySfx</title>
<path fill="none" stroke="black" d="M749.79,-86.8C749.79,-75.16 749.79,-59.55 749.79,-46.24"/>
<polygon fill="black" stroke="black" points="753.29,-46.18 749.79,-36.18 746.29,-46.18 753.29,-46.18"/>
<text text-anchor="middle" x="754.79" y="-57.8" font-family="Times,serif" font-size="14.00">1</text>
</g>
<!-- weapon/g_api_UpdateUnarmedAnim -->
<g id="node5" class="node">
<title>weapon/g_api_UpdateUnarmedAnim</title>
<g id="a_node5"><a xlink:href="g_api_UpdateUnarmedAnim.svg" xlink:title="weapon/g_api_UpdateUnarmedAnim">
<ellipse fill="lightblue" stroke="black" cx="1059.79" cy="-18" rx="179.27" ry="18"/>
<text text-anchor="middle" x="1059.79" y="-14.3" font-family="Times,serif" font-size="14.00">weapon/g_api_UpdateUnarmedAnim</text>
</a>
</g>
</g>
<!-- weapon/func_4000_8017B474&#45;&gt;weapon/g_api_UpdateUnarmedAnim -->
<g id="edge4" class="edge">
<title>weapon/func_4000_8017B474&#45;&gt;weapon/g_api_UpdateUnarmedAnim</title>
<path fill="none" stroke="black" d="M807.01,-88.31C859.16,-74.01 936.27,-52.87 991.6,-37.7"/>
<polygon fill="black" stroke="black" points="992.6,-41.05 1001.32,-35.03 990.75,-34.3 992.6,-41.05"/>
<text text-anchor="middle" x="928.79" y="-57.8" font-family="Times,serif" font-size="14.00">1</text>
</g>
<!-- weapon/func_4000_8017B0D4 -->
<g id="node6" class="node">
<title>weapon/func_4000_8017B0D4</title>
<g id="a_node6"><a xlink:href="func_4000_8017B0D4.svg" xlink:title="weapon/func_4000_8017B0D4">
<ellipse fill="red" stroke="black" cx="1407.79" cy="-18" rx="150.57" ry="18"/>
<text text-anchor="middle" x="1407.79" y="-14.3" font-family="Times,serif" font-size="14.00">weapon/func_4000_8017B0D4</text>
</a>
</g>
</g>
<!-- weapon/func_4000_8017B474&#45;&gt;weapon/func_4000_8017B0D4 -->
<g id="edge5" class="edge">
<title>weapon/func_4000_8017B474&#45;&gt;weapon/func_4000_8017B0D4</title>
<path fill="none" stroke="black" d="M847.59,-91.37C968.54,-75.74 1173.79,-49.23 1299.42,-33"/>
<polygon fill="black" stroke="black" points="1299.98,-36.46 1309.45,-31.7 1299.08,-29.51 1299.98,-36.46"/>
<text text-anchor="middle" x="1123.79" y="-57.8" font-family="Times,serif" font-size="14.00">1</text>
</g>
</g>
</svg>
