<?xml version="1.0" encoding="UTF-8" standalone="no"?>
<!DOCTYPE svg PUBLIC "-//W3C//DTD SVG 1.1//EN"
 "http://www.w3.org/Graphics/SVG/1.1/DTD/svg11.dtd">
<!-- Generated by graphviz version 2.43.0 (0)
 -->
<!-- Title: func_801CD540 Pages: 1 -->
<svg width="422pt" height="131pt"
 viewBox="0.00 0.00 421.58 131.00" xmlns="http://www.w3.org/2000/svg" xmlns:xlink="http://www.w3.org/1999/xlink">
<g id="graph0" class="graph" transform="scale(1 1) rotate(0) translate(4 127)">
<title>func_801CD540</title>
<polygon fill="white" stroke="transparent" points="-4,4 -4,-127 417.58,-127 417.58,4 -4,4"/>
<!-- np3/func_801CD540 -->
<g id="node1" class="node">
<title>np3/func_801CD540</title>
<ellipse fill="green" stroke="black" cx="208.74" cy="-105" rx="104.78" ry="18"/>
<text text-anchor="middle" x="208.74" y="-101.3" font-family="Times,serif" font-size="14.00">np3/func_801CD540</text>
</g>
<!-- np3/InitializeEntity -->
<g id="node2" class="node">
<title>np3/InitializeEntity</title>
<g id="a_node2"><a xlink:href="InitializeEntity.svg" xlink:title="np3/InitializeEntity">
<ellipse fill="green" stroke="black" cx="100.74" cy="-18" rx="100.98" ry="18"/>
<text text-anchor="middle" x="100.74" y="-14.3" font-family="Times,serif" font-size="14.00">np3/InitializeEntity</text>
</a>
</g>
</g>
<!-- np3/func_801CD540&#45;&gt;np3/InitializeEntity -->
<g id="edge1" class="edge">
<title>np3/func_801CD540&#45;&gt;np3/InitializeEntity</title>
<path fill="none" stroke="black" d="M187.4,-87.21C170.98,-74.28 148.11,-56.28 129.99,-42.02"/>
<polygon fill="black" stroke="black" points="132.06,-39.19 122.03,-35.76 127.73,-44.69 132.06,-39.19"/>
<text text-anchor="middle" x="166.74" y="-57.8" font-family="Times,serif" font-size="14.00">1</text>
</g>
<!-- np3/DestroyEntity -->
<g id="node3" class="node">
<title>np3/DestroyEntity</title>
<g id="a_node3"><a xlink:href="DestroyEntity.svg" xlink:title="np3/DestroyEntity">
<ellipse fill="green" stroke="black" cx="316.74" cy="-18" rx="96.68" ry="18"/>
<text text-anchor="middle" x="316.74" y="-14.3" font-family="Times,serif" font-size="14.00">np3/DestroyEntity</text>
</a>
</g>
</g>
<!-- np3/func_801CD540&#45;&gt;np3/DestroyEntity -->
<g id="edge2" class="edge">
<title>np3/func_801CD540&#45;&gt;np3/DestroyEntity</title>
<path fill="none" stroke="black" d="M230.08,-87.21C246.5,-74.28 269.37,-56.28 287.49,-42.02"/>
<polygon fill="black" stroke="black" points="289.75,-44.69 295.45,-35.76 285.43,-39.19 289.75,-44.69"/>
<text text-anchor="middle" x="274.74" y="-57.8" font-family="Times,serif" font-size="14.00">1</text>
</g>
</g>
</svg>
