<?xml version="1.0" encoding="UTF-8" standalone="no"?>
<!DOCTYPE svg PUBLIC "-//W3C//DTD SVG 1.1//EN"
 "http://www.w3.org/Graphics/SVG/1.1/DTD/svg11.dtd">
<!-- Generated by graphviz version 2.43.0 (0)
 -->
<!-- Title: func_80171560 Pages: 1 -->
<svg width="486pt" height="131pt"
 viewBox="0.00 0.00 486.08 131.00" xmlns="http://www.w3.org/2000/svg" xmlns:xlink="http://www.w3.org/1999/xlink">
<g id="graph0" class="graph" transform="scale(1 1) rotate(0) translate(4 127)">
<title>func_80171560</title>
<polygon fill="white" stroke="transparent" points="-4,4 -4,-127 482.08,-127 482.08,4 -4,4"/>
<!-- tt_000/func_80171560 -->
<g id="node1" class="node">
<title>tt_000/func_80171560</title>
<ellipse fill="green" stroke="black" cx="238.39" cy="-18" rx="114.28" ry="18"/>
<text text-anchor="middle" x="238.39" y="-14.3" font-family="Times,serif" font-size="14.00">tt_000/func_80171560</text>
</g>
<!-- tt_000/func_80172120 -->
<g id="node2" class="node">
<title>tt_000/func_80172120</title>
<g id="a_node2"><a xlink:href="func_80172120.svg" xlink:title="tt_000/func_80172120">
<ellipse fill="red" stroke="black" cx="114.39" cy="-105" rx="114.28" ry="18"/>
<text text-anchor="middle" x="114.39" y="-101.3" font-family="Times,serif" font-size="14.00">tt_000/func_80172120</text>
</a>
</g>
</g>
<!-- tt_000/func_80172120&#45;&gt;tt_000/func_80171560 -->
<g id="edge1" class="edge">
<title>tt_000/func_80172120&#45;&gt;tt_000/func_80171560</title>
<path fill="none" stroke="black" d="M138.89,-87.21C157.99,-74.11 184.71,-55.8 205.65,-41.44"/>
<polygon fill="black" stroke="black" points="207.67,-44.3 213.94,-35.76 203.72,-38.53 207.67,-44.3"/>
<text text-anchor="middle" x="189.39" y="-57.8" font-family="Times,serif" font-size="14.00">1</text>
</g>
<!-- tt_000/func_80172C30 -->
<g id="node3" class="node">
<title>tt_000/func_80172C30</title>
<g id="a_node3"><a xlink:href="func_80172C30.svg" xlink:title="tt_000/func_80172C30">
<ellipse fill="red" stroke="black" cx="362.39" cy="-105" rx="115.88" ry="18"/>
<text text-anchor="middle" x="362.39" y="-101.3" font-family="Times,serif" font-size="14.00">tt_000/func_80172C30</text>
</a>
</g>
</g>
<!-- tt_000/func_80172C30&#45;&gt;tt_000/func_80171560 -->
<g id="edge2" class="edge">
<title>tt_000/func_80172C30&#45;&gt;tt_000/func_80171560</title>
<path fill="none" stroke="black" d="M337.89,-87.21C318.78,-74.11 292.07,-55.8 271.13,-41.44"/>
<polygon fill="black" stroke="black" points="273.06,-38.53 262.84,-35.76 269.11,-44.3 273.06,-38.53"/>
<text text-anchor="middle" x="313.39" y="-57.8" font-family="Times,serif" font-size="14.00">1</text>
</g>
</g>
</svg>
