<?xml version="1.0" encoding="UTF-8" standalone="no"?>
<!DOCTYPE svg PUBLIC "-//W3C//DTD SVG 1.1//EN"
 "http://www.w3.org/Graphics/SVG/1.1/DTD/svg11.dtd">
<!-- Generated by graphviz version 2.43.0 (0)
 -->
<!-- Title: func_80109328 Pages: 1 -->
<svg width="633pt" height="218pt"
 viewBox="0.00 0.00 633.48 218.00" xmlns="http://www.w3.org/2000/svg" xmlns:xlink="http://www.w3.org/1999/xlink">
<g id="graph0" class="graph" transform="scale(1 1) rotate(0) translate(4 214)">
<title>func_80109328</title>
<polygon fill="white" stroke="transparent" points="-4,4 -4,-214 629.48,-214 629.48,4 -4,4"/>
<!-- dra/func_80109328 -->
<g id="node1" class="node">
<title>dra/func_80109328</title>
<ellipse fill="green" stroke="black" cx="312.74" cy="-105" rx="100.98" ry="18"/>
<text text-anchor="middle" x="312.74" y="-101.3" font-family="Times,serif" font-size="14.00">dra/func_80109328</text>
</g>
<!-- dra/func_801092E8 -->
<g id="node2" class="node">
<title>dra/func_801092E8</title>
<g id="a_node2"><a xlink:href="func_801092E8.svg" xlink:title="dra/func_801092E8">
<ellipse fill="green" stroke="black" cx="312.74" cy="-18" rx="101.28" ry="18"/>
<text text-anchor="middle" x="312.74" y="-14.3" font-family="Times,serif" font-size="14.00">dra/func_801092E8</text>
</a>
</g>
</g>
<!-- dra/func_80109328&#45;&gt;dra/func_801092E8 -->
<g id="edge1" class="edge">
<title>dra/func_80109328&#45;&gt;dra/func_801092E8</title>
<path fill="none" stroke="black" d="M312.74,-86.8C312.74,-75.16 312.74,-59.55 312.74,-46.24"/>
<polygon fill="black" stroke="black" points="316.24,-46.18 312.74,-36.18 309.24,-46.18 316.24,-46.18"/>
<text text-anchor="middle" x="317.74" y="-57.8" font-family="Times,serif" font-size="14.00">1</text>
</g>
<!-- dra/func_8010A234 -->
<g id="node3" class="node">
<title>dra/func_8010A234</title>
<g id="a_node3"><a xlink:href="func_8010A234.svg" xlink:title="dra/func_8010A234">
<ellipse fill="red" stroke="black" cx="100.74" cy="-192" rx="100.98" ry="18"/>
<text text-anchor="middle" x="100.74" y="-188.3" font-family="Times,serif" font-size="14.00">dra/func_8010A234</text>
</a>
</g>
</g>
<!-- dra/func_8010A234&#45;&gt;dra/func_80109328 -->
<g id="edge2" class="edge">
<title>dra/func_8010A234&#45;&gt;dra/func_80109328</title>
<path fill="none" stroke="black" d="M140.12,-175.21C175.07,-161.2 226.28,-140.66 263.85,-125.6"/>
<polygon fill="black" stroke="black" points="265.59,-128.67 273.57,-121.7 262.99,-122.18 265.59,-128.67"/>
<text text-anchor="middle" x="224.74" y="-144.8" font-family="Times,serif" font-size="14.00">1</text>
</g>
<!-- dra/EntityAlucard -->
<g id="node4" class="node">
<title>dra/EntityAlucard</title>
<g id="a_node4"><a xlink:href="EntityAlucard.svg" xlink:title="dra/EntityAlucard">
<ellipse fill="red" stroke="black" cx="312.74" cy="-192" rx="93.68" ry="18"/>
<text text-anchor="middle" x="312.74" y="-188.3" font-family="Times,serif" font-size="14.00">dra/EntityAlucard</text>
</a>
</g>
</g>
<!-- dra/EntityAlucard&#45;&gt;dra/func_80109328 -->
<g id="edge3" class="edge">
<title>dra/EntityAlucard&#45;&gt;dra/func_80109328</title>
<path fill="none" stroke="black" d="M312.74,-173.8C312.74,-162.16 312.74,-146.55 312.74,-133.24"/>
<polygon fill="black" stroke="black" points="316.24,-133.18 312.74,-123.18 309.24,-133.18 316.24,-133.18"/>
<text text-anchor="middle" x="317.74" y="-144.8" font-family="Times,serif" font-size="14.00">3</text>
</g>
<!-- dra/func_80109594 -->
<g id="node5" class="node">
<title>dra/func_80109594</title>
<g id="a_node5"><a xlink:href="func_80109594.svg" xlink:title="dra/func_80109594">
<ellipse fill="green" stroke="black" cx="524.74" cy="-192" rx="100.98" ry="18"/>
<text text-anchor="middle" x="524.74" y="-188.3" font-family="Times,serif" font-size="14.00">dra/func_80109594</text>
</a>
</g>
</g>
<!-- dra/func_80109594&#45;&gt;dra/func_80109328 -->
<g id="edge4" class="edge">
<title>dra/func_80109594&#45;&gt;dra/func_80109328</title>
<path fill="none" stroke="black" d="M485.36,-175.21C450.41,-161.2 399.2,-140.66 361.63,-125.6"/>
<polygon fill="black" stroke="black" points="362.49,-122.18 351.91,-121.7 359.89,-128.67 362.49,-122.18"/>
<text text-anchor="middle" x="436.74" y="-144.8" font-family="Times,serif" font-size="14.00">1</text>
</g>
</g>
</svg>
