<?xml version="1.0" encoding="UTF-8" standalone="no"?>
<!DOCTYPE svg PUBLIC "-//W3C//DTD SVG 1.1//EN"
 "http://www.w3.org/Graphics/SVG/1.1/DTD/svg11.dtd">
<!-- Generated by graphviz version 2.43.0 (0)
 -->
<!-- Title: func_8016D328 Pages: 1 -->
<svg width="1015pt" height="131pt"
 viewBox="0.00 0.00 1014.93 131.00" xmlns="http://www.w3.org/2000/svg" xmlns:xlink="http://www.w3.org/1999/xlink">
<g id="graph0" class="graph" transform="scale(1 1) rotate(0) translate(4 127)">
<title>func_8016D328</title>
<polygon fill="white" stroke="transparent" points="-4,4 -4,-127 1010.93,-127 1010.93,4 -4,4"/>
<!-- ric/func_8016D328 -->
<g id="node1" class="node">
<title>ric/func_8016D328</title>
<ellipse fill="green" stroke="black" cx="584.79" cy="-105" rx="98.58" ry="18"/>
<text text-anchor="middle" x="584.79" y="-101.3" font-family="Times,serif" font-size="14.00">ric/func_8016D328</text>
</g>
<!-- ric/g_api_AllocPrimitives -->
<g id="node2" class="node">
<title>ric/g_api_AllocPrimitives</title>
<g id="a_node2"><a xlink:href="g_api_AllocPrimitives.svg" xlink:title="ric/g_api_AllocPrimitives">
<ellipse fill="lightblue" stroke="black" cx="124.79" cy="-18" rx="124.58" ry="18"/>
<text text-anchor="middle" x="124.79" y="-14.3" font-family="Times,serif" font-size="14.00">ric/g_api_AllocPrimitives</text>
</a>
</g>
</g>
<!-- ric/func_8016D328&#45;&gt;ric/g_api_AllocPrimitives -->
<g id="edge1" class="edge">
<title>ric/func_8016D328&#45;&gt;ric/g_api_AllocPrimitives</title>
<path fill="none" stroke="black" d="M517.9,-91.64C435.96,-76.5 297.13,-50.84 208.27,-34.43"/>
<polygon fill="black" stroke="black" points="208.7,-30.95 198.23,-32.57 207.42,-37.83 208.7,-30.95"/>
<text text-anchor="middle" x="387.79" y="-57.8" font-family="Times,serif" font-size="14.00">1</text>
</g>
<!-- ric/func_8015FAB8 -->
<g id="node3" class="node">
<title>ric/func_8015FAB8</title>
<g id="a_node3"><a xlink:href="func_8015FAB8.svg" xlink:title="ric/func_8015FAB8">
<ellipse fill="green" stroke="black" cx="365.79" cy="-18" rx="98.28" ry="18"/>
<text text-anchor="middle" x="365.79" y="-14.3" font-family="Times,serif" font-size="14.00">ric/func_8015FAB8</text>
</a>
</g>
</g>
<!-- ric/func_8016D328&#45;&gt;ric/func_8015FAB8 -->
<g id="edge2" class="edge">
<title>ric/func_8016D328&#45;&gt;ric/func_8015FAB8</title>
<path fill="none" stroke="black" d="M544.88,-88.51C508.48,-74.38 454.57,-53.46 415.42,-38.26"/>
<polygon fill="black" stroke="black" points="416.39,-34.88 405.8,-34.53 413.85,-41.41 416.39,-34.88"/>
<text text-anchor="middle" x="493.79" y="-57.8" font-family="Times,serif" font-size="14.00">1</text>
</g>
<!-- ric/rand -->
<g id="node4" class="node">
<title>ric/rand</title>
<g id="a_node4"><a xlink:href="rand.svg" xlink:title="ric/rand">
<ellipse fill="lightblue" stroke="black" cx="529.79" cy="-18" rx="47.39" ry="18"/>
<text text-anchor="middle" x="529.79" y="-14.3" font-family="Times,serif" font-size="14.00">ric/rand</text>
</a>
</g>
</g>
<!-- ric/func_8016D328&#45;&gt;ric/rand -->
<g id="edge3" class="edge">
<title>ric/func_8016D328&#45;&gt;ric/rand</title>
<path fill="none" stroke="black" d="M573.66,-86.8C565.73,-74.54 554.94,-57.87 546.05,-44.13"/>
<polygon fill="black" stroke="black" points="548.9,-42.09 540.53,-35.6 543.02,-45.89 548.9,-42.09"/>
<text text-anchor="middle" x="565.79" y="-57.8" font-family="Times,serif" font-size="14.00">1</text>
</g>
<!-- ric/rcos -->
<g id="node5" class="node">
<title>ric/rcos</title>
<g id="a_node5"><a xlink:href="rcos.svg" xlink:title="ric/rcos">
<ellipse fill="red" stroke="black" cx="640.79" cy="-18" rx="45.49" ry="18"/>
<text text-anchor="middle" x="640.79" y="-14.3" font-family="Times,serif" font-size="14.00">ric/rcos</text>
</a>
</g>
</g>
<!-- ric/func_8016D328&#45;&gt;ric/rcos -->
<g id="edge4" class="edge">
<title>ric/func_8016D328&#45;&gt;ric/rcos</title>
<path fill="none" stroke="black" d="M596.12,-86.8C604.2,-74.54 615.18,-57.87 624.23,-44.13"/>
<polygon fill="black" stroke="black" points="627.28,-45.87 629.85,-35.6 621.43,-42.02 627.28,-45.87"/>
<text text-anchor="middle" x="621.79" y="-57.8" font-family="Times,serif" font-size="14.00">1</text>
</g>
<!-- ric/rsin -->
<g id="node6" class="node">
<title>ric/rsin</title>
<g id="a_node6"><a xlink:href="rsin.svg" xlink:title="ric/rsin">
<ellipse fill="green" stroke="black" cx="748.79" cy="-18" rx="44.39" ry="18"/>
<text text-anchor="middle" x="748.79" y="-14.3" font-family="Times,serif" font-size="14.00">ric/rsin</text>
</a>
</g>
</g>
<!-- ric/func_8016D328&#45;&gt;ric/rsin -->
<g id="edge5" class="edge">
<title>ric/func_8016D328&#45;&gt;ric/rsin</title>
<path fill="none" stroke="black" d="M616.02,-87.81C643.86,-73.38 684.58,-52.28 713.57,-37.25"/>
<polygon fill="black" stroke="black" points="715.27,-40.31 722.54,-32.61 712.05,-34.1 715.27,-40.31"/>
<text text-anchor="middle" x="681.79" y="-57.8" font-family="Times,serif" font-size="14.00">1</text>
</g>
<!-- ric/func_80156C60 -->
<g id="node7" class="node">
<title>ric/func_80156C60</title>
<g id="a_node7"><a xlink:href="func_80156C60.svg" xlink:title="ric/func_80156C60">
<ellipse fill="green" stroke="black" cx="908.79" cy="-18" rx="98.28" ry="18"/>
<text text-anchor="middle" x="908.79" y="-14.3" font-family="Times,serif" font-size="14.00">ric/func_80156C60</text>
</a>
</g>
</g>
<!-- ric/func_8016D328&#45;&gt;ric/func_80156C60 -->
<g id="edge6" class="edge">
<title>ric/func_8016D328&#45;&gt;ric/func_80156C60</title>
<path fill="none" stroke="black" d="M638.65,-89.87C695.5,-74.96 785.04,-51.47 845.29,-35.66"/>
<polygon fill="black" stroke="black" points="846.28,-39.02 855.06,-33.09 844.5,-32.25 846.28,-39.02"/>
<text text-anchor="middle" x="771.79" y="-57.8" font-family="Times,serif" font-size="14.00">1</text>
</g>
</g>
</svg>
