<?xml version="1.0" encoding="UTF-8" standalone="no"?>
<!DOCTYPE svg PUBLIC "-//W3C//DTD SVG 1.1//EN"
 "http://www.w3.org/Graphics/SVG/1.1/DTD/svg11.dtd">
<!-- Generated by graphviz version 2.43.0 (0)
 -->
<!-- Title: func_58000_8017AD00 Pages: 1 -->
<svg width="650pt" height="218pt"
 viewBox="0.00 0.00 649.97 218.00" xmlns="http://www.w3.org/2000/svg" xmlns:xlink="http://www.w3.org/1999/xlink">
<g id="graph0" class="graph" transform="scale(1 1) rotate(0) translate(4 214)">
<title>func_58000_8017AD00</title>
<polygon fill="white" stroke="transparent" points="-4,4 -4,-214 645.97,-214 645.97,4 -4,4"/>
<!-- weapon/func_58000_8017AD00 -->
<g id="node1" class="node">
<title>weapon/func_58000_8017AD00</title>
<ellipse fill="red" stroke="black" cx="320.34" cy="-105" rx="155.97" ry="18"/>
<text text-anchor="middle" x="320.34" y="-101.3" font-family="Times,serif" font-size="14.00">weapon/func_58000_8017AD00</text>
</g>
<!-- weapon/func_58000_8017AACC -->
<g id="node2" class="node">
<title>weapon/func_58000_8017AACC</title>
<g id="a_node2"><a xlink:href="func_58000_8017AACC.svg" xlink:title="weapon/func_58000_8017AACC">
<ellipse fill="red" stroke="black" cx="320.34" cy="-18" rx="157.07" ry="18"/>
<text text-anchor="middle" x="320.34" y="-14.3" font-family="Times,serif" font-size="14.00">weapon/func_58000_8017AACC</text>
</a>
</g>
</g>
<!-- weapon/func_58000_8017AD00&#45;&gt;weapon/func_58000_8017AACC -->
<g id="edge1" class="edge">
<title>weapon/func_58000_8017AD00&#45;&gt;weapon/func_58000_8017AACC</title>
<path fill="none" stroke="black" d="M320.34,-86.8C320.34,-75.16 320.34,-59.55 320.34,-46.24"/>
<polygon fill="black" stroke="black" points="323.84,-46.18 320.34,-36.18 316.84,-46.18 323.84,-46.18"/>
<text text-anchor="middle" x="325.34" y="-57.8" font-family="Times,serif" font-size="14.00">2</text>
</g>
<!-- weapon/func_58000_8017B484 -->
<g id="node3" class="node">
<title>weapon/func_58000_8017B484</title>
<g id="a_node3"><a xlink:href="func_58000_8017B484.svg" xlink:title="weapon/func_58000_8017B484">
<ellipse fill="red" stroke="black" cx="155.34" cy="-192" rx="155.17" ry="18"/>
<text text-anchor="middle" x="155.34" y="-188.3" font-family="Times,serif" font-size="14.00">weapon/func_58000_8017B484</text>
</a>
</g>
</g>
<!-- weapon/func_58000_8017B484&#45;&gt;weapon/func_58000_8017AD00 -->
<g id="edge2" class="edge">
<title>weapon/func_58000_8017B484&#45;&gt;weapon/func_58000_8017AD00</title>
<path fill="none" stroke="black" d="M187.93,-174.21C214.01,-160.78 250.73,-141.86 278.89,-127.35"/>
<polygon fill="black" stroke="black" points="280.8,-130.3 288.09,-122.61 277.59,-124.08 280.8,-130.3"/>
<text text-anchor="middle" x="253.34" y="-144.8" font-family="Times,serif" font-size="14.00">1</text>
</g>
<!-- weapon/func_58000_8017AE6C -->
<g id="node4" class="node">
<title>weapon/func_58000_8017AE6C</title>
<g id="a_node4"><a xlink:href="func_58000_8017AE6C.svg" xlink:title="weapon/func_58000_8017AE6C">
<ellipse fill="red" stroke="black" cx="485.34" cy="-192" rx="156.77" ry="18"/>
<text text-anchor="middle" x="485.34" y="-188.3" font-family="Times,serif" font-size="14.00">weapon/func_58000_8017AE6C</text>
</a>
</g>
</g>
<!-- weapon/func_58000_8017AE6C&#45;&gt;weapon/func_58000_8017AD00 -->
<g id="edge3" class="edge">
<title>weapon/func_58000_8017AE6C&#45;&gt;weapon/func_58000_8017AD00</title>
<path fill="none" stroke="black" d="M452.74,-174.21C426.66,-160.78 389.94,-141.86 361.78,-127.35"/>
<polygon fill="black" stroke="black" points="363.08,-124.08 352.59,-122.61 359.87,-130.3 363.08,-124.08"/>
<text text-anchor="middle" x="418.34" y="-144.8" font-family="Times,serif" font-size="14.00">1</text>
</g>
</g>
</svg>
