<?xml version="1.0" encoding="UTF-8" standalone="no"?>
<!DOCTYPE svg PUBLIC "-//W3C//DTD SVG 1.1//EN"
 "http://www.w3.org/Graphics/SVG/1.1/DTD/svg11.dtd">
<!-- Generated by graphviz version 2.43.0 (0)
 -->
<!-- Title: func_15B000_8017B4EC Pages: 1 -->
<svg width="1961pt" height="131pt"
 viewBox="0.00 0.00 1960.97 131.00" xmlns="http://www.w3.org/2000/svg" xmlns:xlink="http://www.w3.org/1999/xlink">
<g id="graph0" class="graph" transform="scale(1 1) rotate(0) translate(4 127)">
<title>func_15B000_8017B4EC</title>
<polygon fill="white" stroke="transparent" points="-4,4 -4,-127 1956.97,-127 1956.97,4 -4,4"/>
<!-- weapon/func_15B000_8017B4EC -->
<g id="node1" class="node">
<title>weapon/func_15B000_8017B4EC</title>
<ellipse fill="red" stroke="black" cx="971.84" cy="-105" rx="163.57" ry="18"/>
<text text-anchor="middle" x="971.84" y="-101.3" font-family="Times,serif" font-size="14.00">weapon/func_15B000_8017B4EC</text>
</g>
<!-- weapon/func_15B000_8017B250 -->
<g id="node2" class="node">
<title>weapon/func_15B000_8017B250</title>
<g id="a_node2"><a xlink:href="func_15B000_8017B250.svg" xlink:title="weapon/func_15B000_8017B250">
<ellipse fill="red" stroke="black" cx="161.84" cy="-18" rx="161.67" ry="18"/>
<text text-anchor="middle" x="161.84" y="-14.3" font-family="Times,serif" font-size="14.00">weapon/func_15B000_8017B250</text>
</a>
</g>
</g>
<!-- weapon/func_15B000_8017B4EC&#45;&gt;weapon/func_15B000_8017B250 -->
<g id="edge1" class="edge">
<title>weapon/func_15B000_8017B4EC&#45;&gt;weapon/func_15B000_8017B250</title>
<path fill="none" stroke="black" d="M857.93,-92.05C706.78,-76.19 440.92,-48.29 285.17,-31.94"/>
<polygon fill="black" stroke="black" points="285.38,-28.45 275.07,-30.88 284.65,-35.41 285.38,-28.45"/>
<text text-anchor="middle" x="620.84" y="-57.8" font-family="Times,serif" font-size="14.00">1</text>
</g>
<!-- weapon/g_api_func_8011AAFC -->
<g id="node3" class="node">
<title>weapon/g_api_func_8011AAFC</title>
<g id="a_node3"><a xlink:href="g_api_func_8011AAFC.svg" xlink:title="weapon/g_api_func_8011AAFC">
<ellipse fill="lightblue" stroke="black" cx="492.84" cy="-18" rx="151.37" ry="18"/>
<text text-anchor="middle" x="492.84" y="-14.3" font-family="Times,serif" font-size="14.00">weapon/g_api_func_8011AAFC</text>
</a>
</g>
</g>
<!-- weapon/func_15B000_8017B4EC&#45;&gt;weapon/g_api_func_8011AAFC -->
<g id="edge2" class="edge">
<title>weapon/func_15B000_8017B4EC&#45;&gt;weapon/g_api_func_8011AAFC</title>
<path fill="none" stroke="black" d="M889.49,-89.39C804.24,-74.26 671.42,-50.69 583.29,-35.05"/>
<polygon fill="black" stroke="black" points="583.76,-31.58 573.31,-33.28 582.54,-38.47 583.76,-31.58"/>
<text text-anchor="middle" x="766.84" y="-57.8" font-family="Times,serif" font-size="14.00">5</text>
</g>
<!-- weapon/func_15B000_8017B3F0 -->
<g id="node4" class="node">
<title>weapon/func_15B000_8017B3F0</title>
<g id="a_node4"><a xlink:href="func_15B000_8017B3F0.svg" xlink:title="weapon/func_15B000_8017B3F0">
<ellipse fill="red" stroke="black" cx="824.84" cy="-18" rx="162.47" ry="18"/>
<text text-anchor="middle" x="824.84" y="-14.3" font-family="Times,serif" font-size="14.00">weapon/func_15B000_8017B3F0</text>
</a>
</g>
</g>
<!-- weapon/func_15B000_8017B4EC&#45;&gt;weapon/func_15B000_8017B3F0 -->
<g id="edge3" class="edge">
<title>weapon/func_15B000_8017B4EC&#45;&gt;weapon/func_15B000_8017B3F0</title>
<path fill="none" stroke="black" d="M942.79,-87.21C919.84,-73.93 887.62,-55.31 862.66,-40.87"/>
<polygon fill="black" stroke="black" points="864.23,-37.73 853.82,-35.76 860.72,-43.79 864.23,-37.73"/>
<text text-anchor="middle" x="912.84" y="-57.8" font-family="Times,serif" font-size="14.00">1</text>
</g>
<!-- weapon/g_api_PlaySfx -->
<g id="node5" class="node">
<title>weapon/g_api_PlaySfx</title>
<g id="a_node5"><a xlink:href="g_api_PlaySfx.svg" xlink:title="weapon/g_api_PlaySfx">
<ellipse fill="lightblue" stroke="black" cx="1118.84" cy="-18" rx="113.18" ry="18"/>
<text text-anchor="middle" x="1118.84" y="-14.3" font-family="Times,serif" font-size="14.00">weapon/g_api_PlaySfx</text>
</a>
</g>
</g>
<!-- weapon/func_15B000_8017B4EC&#45;&gt;weapon/g_api_PlaySfx -->
<g id="edge4" class="edge">
<title>weapon/func_15B000_8017B4EC&#45;&gt;weapon/g_api_PlaySfx</title>
<path fill="none" stroke="black" d="M1000.88,-87.21C1023.98,-73.85 1056.47,-55.06 1081.5,-40.59"/>
<polygon fill="black" stroke="black" points="1083.45,-43.5 1090.35,-35.47 1079.94,-37.44 1083.45,-43.5"/>
<text text-anchor="middle" x="1059.84" y="-57.8" font-family="Times,serif" font-size="14.00">3</text>
</g>
<!-- weapon/g_api_UpdateUnarmedAnim -->
<g id="node6" class="node">
<title>weapon/g_api_UpdateUnarmedAnim</title>
<g id="a_node6"><a xlink:href="g_api_UpdateUnarmedAnim.svg" xlink:title="weapon/g_api_UpdateUnarmedAnim">
<ellipse fill="lightblue" stroke="black" cx="1428.84" cy="-18" rx="179.27" ry="18"/>
<text text-anchor="middle" x="1428.84" y="-14.3" font-family="Times,serif" font-size="14.00">weapon/g_api_UpdateUnarmedAnim</text>
</a>
</g>
</g>
<!-- weapon/func_15B000_8017B4EC&#45;&gt;weapon/g_api_UpdateUnarmedAnim -->
<g id="edge5" class="edge">
<title>weapon/func_15B000_8017B4EC&#45;&gt;weapon/g_api_UpdateUnarmedAnim</title>
<path fill="none" stroke="black" d="M1051.18,-89.24C1131,-74.4 1253.96,-51.53 1337.73,-35.95"/>
<polygon fill="black" stroke="black" points="1338.55,-39.35 1347.74,-34.08 1337.27,-32.47 1338.55,-39.35"/>
<text text-anchor="middle" x="1232.84" y="-57.8" font-family="Times,serif" font-size="14.00">1</text>
</g>
<!-- weapon/func_15B000_8017B14C -->
<g id="node7" class="node">
<title>weapon/func_15B000_8017B14C</title>
<g id="a_node7"><a xlink:href="func_15B000_8017B14C.svg" xlink:title="weapon/func_15B000_8017B14C">
<ellipse fill="red" stroke="black" cx="1789.84" cy="-18" rx="163.27" ry="18"/>
<text text-anchor="middle" x="1789.84" y="-14.3" font-family="Times,serif" font-size="14.00">weapon/func_15B000_8017B14C</text>
</a>
</g>
</g>
<!-- weapon/func_15B000_8017B4EC&#45;&gt;weapon/func_15B000_8017B14C -->
<g id="edge6" class="edge">
<title>weapon/func_15B000_8017B4EC&#45;&gt;weapon/func_15B000_8017B14C</title>
<path fill="none" stroke="black" d="M1086.44,-92.09C1239.07,-76.23 1508.06,-48.28 1665.48,-31.92"/>
<polygon fill="black" stroke="black" points="1666.1,-35.38 1675.68,-30.86 1665.37,-28.41 1666.1,-35.38"/>
<text text-anchor="middle" x="1434.84" y="-57.8" font-family="Times,serif" font-size="14.00">1</text>
</g>
</g>
</svg>
