<?xml version="1.0" encoding="UTF-8" standalone="no"?>
<!DOCTYPE svg PUBLIC "-//W3C//DTD SVG 1.1//EN"
 "http://www.w3.org/Graphics/SVG/1.1/DTD/svg11.dtd">
<!-- Generated by graphviz version 2.43.0 (0)
 -->
<!-- Title: func_801CBF18 Pages: 1 -->
<svg width="494pt" height="218pt"
 viewBox="0.00 0.00 493.98 218.00" xmlns="http://www.w3.org/2000/svg" xmlns:xlink="http://www.w3.org/1999/xlink">
<g id="graph0" class="graph" transform="scale(1 1) rotate(0) translate(4 214)">
<title>func_801CBF18</title>
<polygon fill="white" stroke="transparent" points="-4,4 -4,-214 489.98,-214 489.98,4 -4,4"/>
<!-- np3/func_801CBF18 -->
<g id="node1" class="node">
<title>np3/func_801CBF18</title>
<ellipse fill="red" stroke="black" cx="255.99" cy="-105" rx="104.78" ry="18"/>
<text text-anchor="middle" x="255.99" y="-101.3" font-family="Times,serif" font-size="14.00">np3/func_801CBF18</text>
</g>
<!-- np3/g_api_AllocPrimitives -->
<g id="node2" class="node">
<title>np3/g_api_AllocPrimitives</title>
<g id="a_node2"><a xlink:href="g_api_AllocPrimitives.svg" xlink:title="np3/g_api_AllocPrimitives">
<ellipse fill="lightblue" stroke="black" cx="129.99" cy="-18" rx="129.98" ry="18"/>
<text text-anchor="middle" x="129.99" y="-14.3" font-family="Times,serif" font-size="14.00">np3/g_api_AllocPrimitives</text>
</a>
</g>
</g>
<!-- np3/func_801CBF18&#45;&gt;np3/g_api_AllocPrimitives -->
<g id="edge1" class="edge">
<title>np3/func_801CBF18&#45;&gt;np3/g_api_AllocPrimitives</title>
<path fill="none" stroke="black" d="M231.4,-87.41C212.01,-74.33 184.77,-55.96 163.41,-41.55"/>
<polygon fill="black" stroke="black" points="165.2,-38.53 154.95,-35.84 161.28,-44.33 165.2,-38.53"/>
<text text-anchor="middle" x="205.99" y="-57.8" font-family="Times,serif" font-size="14.00">1</text>
</g>
<!-- np3/func_801D2704 -->
<g id="node3" class="node">
<title>np3/func_801D2704</title>
<g id="a_node3"><a xlink:href="func_801D2704.svg" xlink:title="np3/func_801D2704">
<ellipse fill="green" stroke="black" cx="381.99" cy="-18" rx="103.98" ry="18"/>
<text text-anchor="middle" x="381.99" y="-14.3" font-family="Times,serif" font-size="14.00">np3/func_801D2704</text>
</a>
</g>
</g>
<!-- np3/func_801CBF18&#45;&gt;np3/func_801D2704 -->
<g id="edge2" class="edge">
<title>np3/func_801CBF18&#45;&gt;np3/func_801D2704</title>
<path fill="none" stroke="black" d="M280.58,-87.41C300.09,-74.25 327.56,-55.72 348.98,-41.27"/>
<polygon fill="black" stroke="black" points="351.12,-44.04 357.46,-35.55 347.21,-38.24 351.12,-44.04"/>
<text text-anchor="middle" x="330.99" y="-57.8" font-family="Times,serif" font-size="14.00">1</text>
</g>
<!-- np3/func_801CC2E0 -->
<g id="node4" class="node">
<title>np3/func_801CC2E0</title>
<g id="a_node4"><a xlink:href="func_801CC2E0.svg" xlink:title="np3/func_801CC2E0">
<ellipse fill="red" stroke="black" cx="255.99" cy="-192" rx="105.08" ry="18"/>
<text text-anchor="middle" x="255.99" y="-188.3" font-family="Times,serif" font-size="14.00">np3/func_801CC2E0</text>
</a>
</g>
</g>
<!-- np3/func_801CC2E0&#45;&gt;np3/func_801CBF18 -->
<g id="edge3" class="edge">
<title>np3/func_801CC2E0&#45;&gt;np3/func_801CBF18</title>
<path fill="none" stroke="black" d="M255.99,-173.8C255.99,-162.16 255.99,-146.55 255.99,-133.24"/>
<polygon fill="black" stroke="black" points="259.49,-133.18 255.99,-123.18 252.49,-133.18 259.49,-133.18"/>
<text text-anchor="middle" x="260.99" y="-144.8" font-family="Times,serif" font-size="14.00">1</text>
</g>
</g>
</svg>
