<?xml version="1.0" encoding="UTF-8" standalone="no"?>
<!DOCTYPE svg PUBLIC "-//W3C//DTD SVG 1.1//EN"
 "http://www.w3.org/Graphics/SVG/1.1/DTD/svg11.dtd">
<!-- Generated by graphviz version 2.43.0 (0)
 -->
<!-- Title: func_F2000_8017ABF4 Pages: 1 -->
<svg width="671pt" height="218pt"
 viewBox="0.00 0.00 670.57 218.00" xmlns="http://www.w3.org/2000/svg" xmlns:xlink="http://www.w3.org/1999/xlink">
<g id="graph0" class="graph" transform="scale(1 1) rotate(0) translate(4 214)">
<title>func_F2000_8017ABF4</title>
<polygon fill="white" stroke="transparent" points="-4,4 -4,-214 666.57,-214 666.57,4 -4,4"/>
<!-- weapon/func_F2000_8017ABF4 -->
<g id="node1" class="node">
<title>weapon/func_F2000_8017ABF4</title>
<ellipse fill="red" stroke="black" cx="339.93" cy="-105" rx="156.77" ry="18"/>
<text text-anchor="middle" x="339.93" y="-101.3" font-family="Times,serif" font-size="14.00">weapon/func_F2000_8017ABF4</text>
</g>
<!-- weapon/g_api_GetEquipProperties -->
<g id="node2" class="node">
<title>weapon/g_api_GetEquipProperties</title>
<g id="a_node2"><a xlink:href="g_api_GetEquipProperties.svg" xlink:title="weapon/g_api_GetEquipProperties">
<ellipse fill="lightblue" stroke="black" cx="170.93" cy="-18" rx="170.87" ry="18"/>
<text text-anchor="middle" x="170.93" y="-14.3" font-family="Times,serif" font-size="14.00">weapon/g_api_GetEquipProperties</text>
</a>
</g>
</g>
<!-- weapon/func_F2000_8017ABF4&#45;&gt;weapon/g_api_GetEquipProperties -->
<g id="edge1" class="edge">
<title>weapon/func_F2000_8017ABF4&#45;&gt;weapon/g_api_GetEquipProperties</title>
<path fill="none" stroke="black" d="M306.55,-87.21C279.81,-73.76 242.14,-54.81 213.29,-40.3"/>
<polygon fill="black" stroke="black" points="214.76,-37.12 204.25,-35.76 211.62,-43.38 214.76,-37.12"/>
<text text-anchor="middle" x="270.93" y="-57.8" font-family="Times,serif" font-size="14.00">1</text>
</g>
<!-- weapon/g_api_func_80118894 -->
<g id="node3" class="node">
<title>weapon/g_api_func_80118894</title>
<g id="a_node3"><a xlink:href="g_api_func_80118894.svg" xlink:title="weapon/g_api_func_80118894">
<ellipse fill="lightblue" stroke="black" cx="508.93" cy="-18" rx="149.47" ry="18"/>
<text text-anchor="middle" x="508.93" y="-14.3" font-family="Times,serif" font-size="14.00">weapon/g_api_func_80118894</text>
</a>
</g>
</g>
<!-- weapon/func_F2000_8017ABF4&#45;&gt;weapon/g_api_func_80118894 -->
<g id="edge2" class="edge">
<title>weapon/func_F2000_8017ABF4&#45;&gt;weapon/g_api_func_80118894</title>
<path fill="none" stroke="black" d="M373.32,-87.21C400.15,-73.72 437.97,-54.69 466.86,-40.16"/>
<polygon fill="black" stroke="black" points="468.54,-43.23 475.9,-35.61 465.4,-36.98 468.54,-43.23"/>
<text text-anchor="middle" x="439.93" y="-57.8" font-family="Times,serif" font-size="14.00">1</text>
</g>
<!-- weapon/func_F2000_8017AF0C -->
<g id="node4" class="node">
<title>weapon/func_F2000_8017AF0C</title>
<g id="a_node4"><a xlink:href="func_F2000_8017AF0C.svg" xlink:title="weapon/func_F2000_8017AF0C">
<ellipse fill="red" stroke="black" cx="174.93" cy="-192" rx="156.77" ry="18"/>
<text text-anchor="middle" x="174.93" y="-188.3" font-family="Times,serif" font-size="14.00">weapon/func_F2000_8017AF0C</text>
</a>
</g>
</g>
<!-- weapon/func_F2000_8017AF0C&#45;&gt;weapon/func_F2000_8017ABF4 -->
<g id="edge3" class="edge">
<title>weapon/func_F2000_8017AF0C&#45;&gt;weapon/func_F2000_8017ABF4</title>
<path fill="none" stroke="black" d="M207.53,-174.21C233.52,-160.82 270.09,-141.98 298.22,-127.49"/>
<polygon fill="black" stroke="black" points="300.12,-130.45 307.4,-122.76 296.91,-124.23 300.12,-130.45"/>
<text text-anchor="middle" x="272.93" y="-144.8" font-family="Times,serif" font-size="14.00">1</text>
</g>
<!-- weapon/func_F2000_8017ACF0 -->
<g id="node5" class="node">
<title>weapon/func_F2000_8017ACF0</title>
<g id="a_node5"><a xlink:href="func_F2000_8017ACF0.svg" xlink:title="weapon/func_F2000_8017ACF0">
<ellipse fill="red" stroke="black" cx="505.93" cy="-192" rx="156.77" ry="18"/>
<text text-anchor="middle" x="505.93" y="-188.3" font-family="Times,serif" font-size="14.00">weapon/func_F2000_8017ACF0</text>
</a>
</g>
</g>
<!-- weapon/func_F2000_8017ACF0&#45;&gt;weapon/func_F2000_8017ABF4 -->
<g id="edge4" class="edge">
<title>weapon/func_F2000_8017ACF0&#45;&gt;weapon/func_F2000_8017ABF4</title>
<path fill="none" stroke="black" d="M473.14,-174.21C446.91,-160.78 409.96,-141.86 381.63,-127.35"/>
<polygon fill="black" stroke="black" points="382.88,-124.06 372.38,-122.61 379.69,-130.29 382.88,-124.06"/>
<text text-anchor="middle" x="437.93" y="-144.8" font-family="Times,serif" font-size="14.00">1</text>
</g>
</g>
</svg>
