<?xml version="1.0" encoding="UTF-8" standalone="no"?>
<!DOCTYPE svg PUBLIC "-//W3C//DTD SVG 1.1//EN"
 "http://www.w3.org/Graphics/SVG/1.1/DTD/svg11.dtd">
<!-- Generated by graphviz version 2.43.0 (0)
 -->
<!-- Title: func_801B69F8 Pages: 1 -->
<svg width="2387pt" height="218pt"
 viewBox="0.00 0.00 2386.88 218.00" xmlns="http://www.w3.org/2000/svg" xmlns:xlink="http://www.w3.org/1999/xlink">
<g id="graph0" class="graph" transform="scale(1 1) rotate(0) translate(4 214)">
<title>func_801B69F8</title>
<polygon fill="white" stroke="transparent" points="-4,4 -4,-214 2382.88,-214 2382.88,4 -4,4"/>
<!-- sel/func_801B69F8 -->
<g id="node1" class="node">
<title>sel/func_801B69F8</title>
<ellipse fill="red" stroke="black" cx="1263.79" cy="-105" rx="99.38" ry="18"/>
<text text-anchor="middle" x="1263.79" y="-101.3" font-family="Times,serif" font-size="14.00">sel/func_801B69F8</text>
</g>
<!-- sel/func_801B6480 -->
<g id="node2" class="node">
<title>sel/func_801B6480</title>
<g id="a_node2"><a xlink:href="func_801B6480.svg" xlink:title="sel/func_801B6480">
<ellipse fill="red" stroke="black" cx="98.79" cy="-18" rx="98.58" ry="18"/>
<text text-anchor="middle" x="98.79" y="-14.3" font-family="Times,serif" font-size="14.00">sel/func_801B6480</text>
</a>
</g>
</g>
<!-- sel/func_801B69F8&#45;&gt;sel/func_801B6480 -->
<g id="edge1" class="edge">
<title>sel/func_801B69F8&#45;&gt;sel/func_801B6480</title>
<path fill="none" stroke="black" d="M1166.18,-101.4C979.33,-95.6 558.43,-78.61 206.79,-36 197.73,-34.9 188.26,-33.62 178.85,-32.25"/>
<polygon fill="black" stroke="black" points="179.1,-28.75 168.7,-30.75 178.07,-35.67 179.1,-28.75"/>
<text text-anchor="middle" x="530.79" y="-57.8" font-family="Times,serif" font-size="14.00">1</text>
</g>
<!-- sel/func_801B66A4 -->
<g id="node3" class="node">
<title>sel/func_801B66A4</title>
<g id="a_node3"><a xlink:href="func_801B66A4.svg" xlink:title="sel/func_801B66A4">
<ellipse fill="red" stroke="black" cx="314.79" cy="-18" rx="99.38" ry="18"/>
<text text-anchor="middle" x="314.79" y="-14.3" font-family="Times,serif" font-size="14.00">sel/func_801B66A4</text>
</a>
</g>
</g>
<!-- sel/func_801B69F8&#45;&gt;sel/func_801B66A4 -->
<g id="edge2" class="edge">
<title>sel/func_801B69F8&#45;&gt;sel/func_801B66A4</title>
<path fill="none" stroke="black" d="M1169.99,-99.02C1014.48,-90.18 693.68,-69.45 423.79,-36 414.72,-34.88 405.24,-33.58 395.82,-32.21"/>
<polygon fill="black" stroke="black" points="396.05,-28.71 385.65,-30.71 395.03,-35.64 396.05,-28.71"/>
<text text-anchor="middle" x="728.79" y="-57.8" font-family="Times,serif" font-size="14.00">2</text>
</g>
<!-- sel/func_801B642C -->
<g id="node4" class="node">
<title>sel/func_801B642C</title>
<g id="a_node4"><a xlink:href="func_801B642C.svg" xlink:title="sel/func_801B642C">
<ellipse fill="green" stroke="black" cx="532.79" cy="-18" rx="100.18" ry="18"/>
<text text-anchor="middle" x="532.79" y="-14.3" font-family="Times,serif" font-size="14.00">sel/func_801B642C</text>
</a>
</g>
</g>
<!-- sel/func_801B69F8&#45;&gt;sel/func_801B642C -->
<g id="edge3" class="edge">
<title>sel/func_801B69F8&#45;&gt;sel/func_801B642C</title>
<path fill="none" stroke="black" d="M1177.87,-95.86C1057.72,-84.2 832.8,-61.32 641.79,-36 632.87,-34.82 623.55,-33.5 614.28,-32.13"/>
<polygon fill="black" stroke="black" points="614.66,-28.64 604.25,-30.63 613.63,-35.57 614.66,-28.64"/>
<text text-anchor="middle" x="919.79" y="-57.8" font-family="Times,serif" font-size="14.00">1</text>
</g>
<!-- sel/func_801B675C -->
<g id="node5" class="node">
<title>sel/func_801B675C</title>
<g id="a_node5"><a xlink:href="func_801B675C.svg" xlink:title="sel/func_801B675C">
<ellipse fill="red" stroke="black" cx="750.79" cy="-18" rx="100.18" ry="18"/>
<text text-anchor="middle" x="750.79" y="-14.3" font-family="Times,serif" font-size="14.00">sel/func_801B675C</text>
</a>
</g>
</g>
<!-- sel/func_801B69F8&#45;&gt;sel/func_801B675C -->
<g id="edge4" class="edge">
<title>sel/func_801B69F8&#45;&gt;sel/func_801B675C</title>
<path fill="none" stroke="black" d="M1193,-92.27C1098.4,-76.6 931.15,-48.88 831.68,-32.4"/>
<polygon fill="black" stroke="black" points="832.12,-28.93 821.68,-30.75 830.97,-35.83 832.12,-28.93"/>
<text text-anchor="middle" x="1043.79" y="-57.8" font-family="Times,serif" font-size="14.00">1</text>
</g>
<!-- sel/g_api_FreePrimitives -->
<g id="node6" class="node">
<title>sel/g_api_FreePrimitives</title>
<g id="a_node6"><a xlink:href="g_api_FreePrimitives.svg" xlink:title="sel/g_api_FreePrimitives">
<ellipse fill="lightblue" stroke="black" cx="993.79" cy="-18" rx="124.58" ry="18"/>
<text text-anchor="middle" x="993.79" y="-14.3" font-family="Times,serif" font-size="14.00">sel/g_api_FreePrimitives</text>
</a>
</g>
</g>
<!-- sel/func_801B69F8&#45;&gt;sel/g_api_FreePrimitives -->
<g id="edge5" class="edge">
<title>sel/func_801B69F8&#45;&gt;sel/g_api_FreePrimitives</title>
<path fill="none" stroke="black" d="M1216.45,-89.1C1170.94,-74.77 1102,-53.07 1052.91,-37.61"/>
<polygon fill="black" stroke="black" points="1053.95,-34.27 1043.36,-34.61 1051.85,-40.95 1053.95,-34.27"/>
<text text-anchor="middle" x="1150.79" y="-57.8" font-family="Times,serif" font-size="14.00">1</text>
</g>
<!-- sel/g_api_func_80131F68 -->
<g id="node7" class="node">
<title>sel/g_api_func_80131F68</title>
<g id="a_node7"><a xlink:href="g_api_func_80131F68.svg" xlink:title="sel/g_api_func_80131F68">
<ellipse fill="lightblue" stroke="black" cx="1263.79" cy="-18" rx="127.28" ry="18"/>
<text text-anchor="middle" x="1263.79" y="-14.3" font-family="Times,serif" font-size="14.00">sel/g_api_func_80131F68</text>
</a>
</g>
</g>
<!-- sel/func_801B69F8&#45;&gt;sel/g_api_func_80131F68 -->
<g id="edge6" class="edge">
<title>sel/func_801B69F8&#45;&gt;sel/g_api_func_80131F68</title>
<path fill="none" stroke="black" d="M1263.79,-86.8C1263.79,-75.16 1263.79,-59.55 1263.79,-46.24"/>
<polygon fill="black" stroke="black" points="1267.29,-46.18 1263.79,-36.18 1260.29,-46.18 1267.29,-46.18"/>
<text text-anchor="middle" x="1268.79" y="-57.8" font-family="Times,serif" font-size="14.00">2</text>
</g>
<!-- sel/func_801B68E0 -->
<g id="node8" class="node">
<title>sel/func_801B68E0</title>
<g id="a_node8"><a xlink:href="func_801B68E0.svg" xlink:title="sel/func_801B68E0">
<ellipse fill="green" stroke="black" cx="1508.79" cy="-18" rx="100.18" ry="18"/>
<text text-anchor="middle" x="1508.79" y="-14.3" font-family="Times,serif" font-size="14.00">sel/func_801B68E0</text>
</a>
</g>
</g>
<!-- sel/func_801B69F8&#45;&gt;sel/func_801B68E0 -->
<g id="edge7" class="edge">
<title>sel/func_801B69F8&#45;&gt;sel/func_801B68E0</title>
<path fill="none" stroke="black" d="M1307.59,-88.8C1348.92,-74.46 1410.98,-52.93 1455.24,-37.58"/>
<polygon fill="black" stroke="black" points="1456.66,-40.79 1464.96,-34.21 1454.36,-34.18 1456.66,-40.79"/>
<text text-anchor="middle" x="1406.79" y="-57.8" font-family="Times,serif" font-size="14.00">1</text>
</g>
<!-- sel/LoadTPage -->
<g id="node9" class="node">
<title>sel/LoadTPage</title>
<g id="a_node9"><a xlink:href="LoadTPage.svg" xlink:title="sel/LoadTPage">
<ellipse fill="lightblue" stroke="black" cx="1703.79" cy="-18" rx="77.19" ry="18"/>
<text text-anchor="middle" x="1703.79" y="-14.3" font-family="Times,serif" font-size="14.00">sel/LoadTPage</text>
</a>
</g>
</g>
<!-- sel/func_801B69F8&#45;&gt;sel/LoadTPage -->
<g id="edge8" class="edge">
<title>sel/func_801B69F8&#45;&gt;sel/LoadTPage</title>
<path fill="none" stroke="black" d="M1329.71,-91.45C1400.82,-77.88 1517.36,-55.57 1617.79,-36 1623.97,-34.8 1630.39,-33.54 1636.82,-32.27"/>
<polygon fill="black" stroke="black" points="1637.76,-35.66 1646.9,-30.29 1636.41,-28.79 1637.76,-35.66"/>
<text text-anchor="middle" x="1525.79" y="-57.8" font-family="Times,serif" font-size="14.00">1</text>
</g>
<!-- sel/g_api_PlaySfx -->
<g id="node10" class="node">
<title>sel/g_api_PlaySfx</title>
<g id="a_node10"><a xlink:href="g_api_PlaySfx.svg" xlink:title="sel/g_api_PlaySfx">
<ellipse fill="lightblue" stroke="black" cx="1889.79" cy="-18" rx="90.98" ry="18"/>
<text text-anchor="middle" x="1889.79" y="-14.3" font-family="Times,serif" font-size="14.00">sel/g_api_PlaySfx</text>
</a>
</g>
</g>
<!-- sel/func_801B69F8&#45;&gt;sel/g_api_PlaySfx -->
<g id="edge9" class="edge">
<title>sel/func_801B69F8&#45;&gt;sel/g_api_PlaySfx</title>
<path fill="none" stroke="black" d="M1345.03,-94.52C1448.49,-82.21 1632.7,-59.51 1789.79,-36 1797.72,-34.81 1805.98,-33.51 1814.22,-32.17"/>
<polygon fill="black" stroke="black" points="1814.93,-35.61 1824.23,-30.53 1813.79,-28.7 1814.93,-35.61"/>
<text text-anchor="middle" x="1664.79" y="-57.8" font-family="Times,serif" font-size="14.00">1</text>
</g>
<!-- sel/MoveImage -->
<g id="node11" class="node">
<title>sel/MoveImage</title>
<g id="a_node11"><a xlink:href="MoveImage.svg" xlink:title="sel/MoveImage">
<ellipse fill="lightblue" stroke="black" cx="2079.79" cy="-18" rx="81.49" ry="18"/>
<text text-anchor="middle" x="2079.79" y="-14.3" font-family="Times,serif" font-size="14.00">sel/MoveImage</text>
</a>
</g>
</g>
<!-- sel/func_801B69F8&#45;&gt;sel/MoveImage -->
<g id="edge10" class="edge">
<title>sel/func_801B69F8&#45;&gt;sel/MoveImage</title>
<path fill="none" stroke="black" d="M1356.41,-98.42C1494.77,-89.39 1763.39,-69.15 1989.79,-36 1996.93,-34.95 2004.37,-33.75 2011.77,-32.46"/>
<polygon fill="black" stroke="black" points="2012.58,-35.88 2021.81,-30.68 2011.35,-28.98 2012.58,-35.88"/>
<text text-anchor="middle" x="1855.79" y="-57.8" font-family="Times,serif" font-size="14.00">1</text>
</g>
<!-- sel/func_801B690C -->
<g id="node12" class="node">
<title>sel/func_801B690C</title>
<g id="a_node12"><a xlink:href="func_801B690C.svg" xlink:title="sel/func_801B690C">
<ellipse fill="red" stroke="black" cx="2278.79" cy="-18" rx="100.18" ry="18"/>
<text text-anchor="middle" x="2278.79" y="-14.3" font-family="Times,serif" font-size="14.00">sel/func_801B690C</text>
</a>
</g>
</g>
<!-- sel/func_801B69F8&#45;&gt;sel/func_801B690C -->
<g id="edge11" class="edge">
<title>sel/func_801B69F8&#45;&gt;sel/func_801B690C</title>
<path fill="none" stroke="black" d="M1359.4,-99.9C1478.06,-94.47 1686.55,-83.82 1864.79,-69 2000.67,-57.7 2034.62,-53.84 2169.79,-36 2178.72,-34.82 2188.04,-33.5 2197.31,-32.14"/>
<polygon fill="black" stroke="black" points="2197.96,-35.58 2207.33,-30.64 2196.92,-28.65 2197.96,-35.58"/>
<text text-anchor="middle" x="2026.79" y="-57.8" font-family="Times,serif" font-size="14.00">1</text>
</g>
<!-- sel/func_801B60D4 -->
<g id="node13" class="node">
<title>sel/func_801B60D4</title>
<g id="a_node13"><a xlink:href="func_801B60D4.svg" xlink:title="sel/func_801B60D4">
<ellipse fill="green" stroke="black" cx="1263.79" cy="-192" rx="100.98" ry="18"/>
<text text-anchor="middle" x="1263.79" y="-188.3" font-family="Times,serif" font-size="14.00">sel/func_801B60D4</text>
</a>
</g>
</g>
<!-- sel/func_801B60D4&#45;&gt;sel/func_801B69F8 -->
<g id="edge12" class="edge">
<title>sel/func_801B60D4&#45;&gt;sel/func_801B69F8</title>
<path fill="none" stroke="black" d="M1263.79,-173.8C1263.79,-162.16 1263.79,-146.55 1263.79,-133.24"/>
<polygon fill="black" stroke="black" points="1267.29,-133.18 1263.79,-123.18 1260.29,-133.18 1267.29,-133.18"/>
<text text-anchor="middle" x="1268.79" y="-144.8" font-family="Times,serif" font-size="14.00">1</text>
</g>
</g>
</svg>
