<?xml version="1.0" encoding="UTF-8" standalone="no"?>
<!DOCTYPE svg PUBLIC "-//W3C//DTD SVG 1.1//EN"
 "http://www.w3.org/Graphics/SVG/1.1/DTD/svg11.dtd">
<!-- Generated by graphviz version 2.43.0 (0)
 -->
<!-- Title: func_162000_8017B324 Pages: 1 -->
<svg width="1016pt" height="218pt"
 viewBox="0.00 0.00 1016.37 218.00" xmlns="http://www.w3.org/2000/svg" xmlns:xlink="http://www.w3.org/1999/xlink">
<g id="graph0" class="graph" transform="scale(1 1) rotate(0) translate(4 214)">
<title>func_162000_8017B324</title>
<polygon fill="white" stroke="transparent" points="-4,4 -4,-214 1012.37,-214 1012.37,4 -4,4"/>
<!-- weapon/func_162000_8017B324 -->
<g id="node1" class="node">
<title>weapon/func_162000_8017B324</title>
<ellipse fill="red" stroke="black" cx="504.19" cy="-105" rx="161.37" ry="18"/>
<text text-anchor="middle" x="504.19" y="-101.3" font-family="Times,serif" font-size="14.00">weapon/func_162000_8017B324</text>
</g>
<!-- weapon/g_api_GetEquipProperties -->
<g id="node2" class="node">
<title>weapon/g_api_GetEquipProperties</title>
<g id="a_node2"><a xlink:href="g_api_GetEquipProperties.svg" xlink:title="weapon/g_api_GetEquipProperties">
<ellipse fill="lightblue" stroke="black" cx="335.19" cy="-18" rx="170.87" ry="18"/>
<text text-anchor="middle" x="335.19" y="-14.3" font-family="Times,serif" font-size="14.00">weapon/g_api_GetEquipProperties</text>
</a>
</g>
</g>
<!-- weapon/func_162000_8017B324&#45;&gt;weapon/g_api_GetEquipProperties -->
<g id="edge1" class="edge">
<title>weapon/func_162000_8017B324&#45;&gt;weapon/g_api_GetEquipProperties</title>
<path fill="none" stroke="black" d="M470.8,-87.21C444.06,-73.76 406.39,-54.81 377.54,-40.3"/>
<polygon fill="black" stroke="black" points="379.01,-37.12 368.51,-35.76 375.87,-43.38 379.01,-37.12"/>
<text text-anchor="middle" x="435.19" y="-57.8" font-family="Times,serif" font-size="14.00">1</text>
</g>
<!-- weapon/g_api_func_80118894 -->
<g id="node3" class="node">
<title>weapon/g_api_func_80118894</title>
<g id="a_node3"><a xlink:href="g_api_func_80118894.svg" xlink:title="weapon/g_api_func_80118894">
<ellipse fill="lightblue" stroke="black" cx="673.19" cy="-18" rx="149.47" ry="18"/>
<text text-anchor="middle" x="673.19" y="-14.3" font-family="Times,serif" font-size="14.00">weapon/g_api_func_80118894</text>
</a>
</g>
</g>
<!-- weapon/func_162000_8017B324&#45;&gt;weapon/g_api_func_80118894 -->
<g id="edge2" class="edge">
<title>weapon/func_162000_8017B324&#45;&gt;weapon/g_api_func_80118894</title>
<path fill="none" stroke="black" d="M537.57,-87.21C564.4,-73.72 602.22,-54.69 631.11,-40.16"/>
<polygon fill="black" stroke="black" points="632.79,-43.23 640.15,-35.61 629.65,-36.98 632.79,-43.23"/>
<text text-anchor="middle" x="604.19" y="-57.8" font-family="Times,serif" font-size="14.00">1</text>
</g>
<!-- weapon/func_162000_8017B420 -->
<g id="node4" class="node">
<title>weapon/func_162000_8017B420</title>
<g id="a_node4"><a xlink:href="func_162000_8017B420.svg" xlink:title="weapon/func_162000_8017B420">
<ellipse fill="red" stroke="black" cx="161.19" cy="-192" rx="161.37" ry="18"/>
<text text-anchor="middle" x="161.19" y="-188.3" font-family="Times,serif" font-size="14.00">weapon/func_162000_8017B420</text>
</a>
</g>
</g>
<!-- weapon/func_162000_8017B420&#45;&gt;weapon/func_162000_8017B324 -->
<g id="edge3" class="edge">
<title>weapon/func_162000_8017B420&#45;&gt;weapon/func_162000_8017B324</title>
<path fill="none" stroke="black" d="M224.1,-175.41C282.54,-160.93 369.56,-139.36 431.07,-124.12"/>
<polygon fill="black" stroke="black" points="432.23,-127.44 441.09,-121.64 430.54,-120.64 432.23,-127.44"/>
<text text-anchor="middle" x="359.19" y="-144.8" font-family="Times,serif" font-size="14.00">1</text>
</g>
<!-- weapon/func_162000_8017BFDC -->
<g id="node5" class="node">
<title>weapon/func_162000_8017BFDC</title>
<g id="a_node5"><a xlink:href="func_162000_8017BFDC.svg" xlink:title="weapon/func_162000_8017BFDC">
<ellipse fill="red" stroke="black" cx="504.19" cy="-192" rx="163.57" ry="18"/>
<text text-anchor="middle" x="504.19" y="-188.3" font-family="Times,serif" font-size="14.00">weapon/func_162000_8017BFDC</text>
</a>
</g>
</g>
<!-- weapon/func_162000_8017BFDC&#45;&gt;weapon/func_162000_8017B324 -->
<g id="edge4" class="edge">
<title>weapon/func_162000_8017BFDC&#45;&gt;weapon/func_162000_8017B324</title>
<path fill="none" stroke="black" d="M504.19,-173.8C504.19,-162.16 504.19,-146.55 504.19,-133.24"/>
<polygon fill="black" stroke="black" points="507.69,-133.18 504.19,-123.18 500.69,-133.18 507.69,-133.18"/>
<text text-anchor="middle" x="509.19" y="-144.8" font-family="Times,serif" font-size="14.00">1</text>
</g>
<!-- weapon/func_162000_8017C428 -->
<g id="node6" class="node">
<title>weapon/func_162000_8017C428</title>
<g id="a_node6"><a xlink:href="func_162000_8017C428.svg" xlink:title="weapon/func_162000_8017C428">
<ellipse fill="red" stroke="black" cx="847.19" cy="-192" rx="161.37" ry="18"/>
<text text-anchor="middle" x="847.19" y="-188.3" font-family="Times,serif" font-size="14.00">weapon/func_162000_8017C428</text>
</a>
</g>
</g>
<!-- weapon/func_162000_8017C428&#45;&gt;weapon/func_162000_8017B324 -->
<g id="edge5" class="edge">
<title>weapon/func_162000_8017C428&#45;&gt;weapon/func_162000_8017B324</title>
<path fill="none" stroke="black" d="M784.27,-175.41C725.83,-160.93 638.81,-139.36 577.3,-124.12"/>
<polygon fill="black" stroke="black" points="577.83,-120.64 567.28,-121.64 576.14,-127.44 577.83,-120.64"/>
<text text-anchor="middle" x="702.19" y="-144.8" font-family="Times,serif" font-size="14.00">1</text>
</g>
</g>
</svg>
