<?xml version="1.0" encoding="UTF-8" standalone="no"?>
<!DOCTYPE svg PUBLIC "-//W3C//DTD SVG 1.1//EN"
 "http://www.w3.org/Graphics/SVG/1.1/DTD/svg11.dtd">
<!-- Generated by graphviz version 2.43.0 (0)
 -->
<!-- Title: func_8018FA1C Pages: 1 -->
<svg width="1428pt" height="131pt"
 viewBox="0.00 0.00 1427.58 131.00" xmlns="http://www.w3.org/2000/svg" xmlns:xlink="http://www.w3.org/1999/xlink">
<g id="graph0" class="graph" transform="scale(1 1) rotate(0) translate(4 127)">
<title>func_8018FA1C</title>
<polygon fill="white" stroke="transparent" points="-4,4 -4,-127 1423.58,-127 1423.58,4 -4,4"/>
<!-- wrp/func_8018FA1C -->
<g id="node1" class="node">
<title>wrp/func_8018FA1C</title>
<ellipse fill="green" stroke="black" cx="713.74" cy="-105" rx="103.98" ry="18"/>
<text text-anchor="middle" x="713.74" y="-101.3" font-family="Times,serif" font-size="14.00">wrp/func_8018FA1C</text>
</g>
<!-- wrp/InitializeEntity -->
<g id="node2" class="node">
<title>wrp/InitializeEntity</title>
<g id="a_node2"><a xlink:href="InitializeEntity.svg" xlink:title="wrp/InitializeEntity">
<ellipse fill="green" stroke="black" cx="100.74" cy="-18" rx="100.98" ry="18"/>
<text text-anchor="middle" x="100.74" y="-14.3" font-family="Times,serif" font-size="14.00">wrp/InitializeEntity</text>
</a>
</g>
</g>
<!-- wrp/func_8018FA1C&#45;&gt;wrp/InitializeEntity -->
<g id="edge1" class="edge">
<title>wrp/func_8018FA1C&#45;&gt;wrp/InitializeEntity</title>
<path fill="none" stroke="black" d="M632.93,-93.62C533.32,-80.7 358.93,-57.7 209.74,-36 201.2,-34.76 192.3,-33.43 183.41,-32.08"/>
<polygon fill="black" stroke="black" points="183.83,-28.6 173.41,-30.55 182.77,-35.52 183.83,-28.6"/>
<text text-anchor="middle" x="449.74" y="-57.8" font-family="Times,serif" font-size="14.00">1</text>
</g>
<!-- wrp/g_api_AllocPrimitives -->
<g id="node3" class="node">
<title>wrp/g_api_AllocPrimitives</title>
<g id="a_node3"><a xlink:href="g_api_AllocPrimitives.svg" xlink:title="wrp/g_api_AllocPrimitives">
<ellipse fill="lightblue" stroke="black" cx="349.74" cy="-18" rx="130.78" ry="18"/>
<text text-anchor="middle" x="349.74" y="-14.3" font-family="Times,serif" font-size="14.00">wrp/g_api_AllocPrimitives</text>
</a>
</g>
</g>
<!-- wrp/func_8018FA1C&#45;&gt;wrp/g_api_AllocPrimitives -->
<g id="edge2" class="edge">
<title>wrp/func_8018FA1C&#45;&gt;wrp/g_api_AllocPrimitives</title>
<path fill="none" stroke="black" d="M654.45,-90.15C591.18,-75.38 490.88,-51.96 422.79,-36.06"/>
<polygon fill="black" stroke="black" points="423.52,-32.63 412.98,-33.77 421.93,-39.45 423.52,-32.63"/>
<text text-anchor="middle" x="558.74" y="-57.8" font-family="Times,serif" font-size="14.00">1</text>
</g>
<!-- wrp/func_8018F420 -->
<g id="node4" class="node">
<title>wrp/func_8018F420</title>
<g id="a_node4"><a xlink:href="func_8018F420.svg" xlink:title="wrp/func_8018F420">
<ellipse fill="green" stroke="black" cx="601.74" cy="-18" rx="103.18" ry="18"/>
<text text-anchor="middle" x="601.74" y="-14.3" font-family="Times,serif" font-size="14.00">wrp/func_8018F420</text>
</a>
</g>
</g>
<!-- wrp/func_8018FA1C&#45;&gt;wrp/func_8018F420 -->
<g id="edge3" class="edge">
<title>wrp/func_8018FA1C&#45;&gt;wrp/func_8018F420</title>
<path fill="none" stroke="black" d="M691.61,-87.21C674.51,-74.23 650.65,-56.12 631.82,-41.83"/>
<polygon fill="black" stroke="black" points="633.9,-39.02 623.82,-35.76 629.67,-44.59 633.9,-39.02"/>
<text text-anchor="middle" x="669.74" y="-57.8" font-family="Times,serif" font-size="14.00">1</text>
</g>
<!-- wrp/func_8018F620 -->
<g id="node5" class="node">
<title>wrp/func_8018F620</title>
<g id="a_node5"><a xlink:href="func_8018F620.svg" xlink:title="wrp/func_8018F620">
<ellipse fill="green" stroke="black" cx="826.74" cy="-18" rx="103.18" ry="18"/>
<text text-anchor="middle" x="826.74" y="-14.3" font-family="Times,serif" font-size="14.00">wrp/func_8018F620</text>
</a>
</g>
</g>
<!-- wrp/func_8018FA1C&#45;&gt;wrp/func_8018F620 -->
<g id="edge4" class="edge">
<title>wrp/func_8018FA1C&#45;&gt;wrp/func_8018F620</title>
<path fill="none" stroke="black" d="M735.8,-87.41C753.03,-74.45 777.17,-56.28 796.26,-41.93"/>
<polygon fill="black" stroke="black" points="798.47,-44.65 804.35,-35.84 794.26,-39.05 798.47,-44.65"/>
<text text-anchor="middle" x="782.74" y="-57.8" font-family="Times,serif" font-size="14.00">1</text>
</g>
<!-- wrp/g_api_FreePrimitives -->
<g id="node6" class="node">
<title>wrp/g_api_FreePrimitives</title>
<g id="a_node6"><a xlink:href="g_api_FreePrimitives.svg" xlink:title="wrp/g_api_FreePrimitives">
<ellipse fill="lightblue" stroke="black" cx="1077.74" cy="-18" rx="129.98" ry="18"/>
<text text-anchor="middle" x="1077.74" y="-14.3" font-family="Times,serif" font-size="14.00">wrp/g_api_FreePrimitives</text>
</a>
</g>
</g>
<!-- wrp/func_8018FA1C&#45;&gt;wrp/g_api_FreePrimitives -->
<g id="edge5" class="edge">
<title>wrp/func_8018FA1C&#45;&gt;wrp/g_api_FreePrimitives</title>
<path fill="none" stroke="black" d="M773.03,-90.15C836.3,-75.38 936.6,-51.96 1004.69,-36.06"/>
<polygon fill="black" stroke="black" points="1005.56,-39.45 1014.5,-33.77 1003.96,-32.63 1005.56,-39.45"/>
<text text-anchor="middle" x="922.74" y="-57.8" font-family="Times,serif" font-size="14.00">1</text>
</g>
<!-- wrp/DestroyEntity -->
<g id="node7" class="node">
<title>wrp/DestroyEntity</title>
<g id="a_node7"><a xlink:href="DestroyEntity.svg" xlink:title="wrp/DestroyEntity">
<ellipse fill="green" stroke="black" cx="1322.74" cy="-18" rx="96.68" ry="18"/>
<text text-anchor="middle" x="1322.74" y="-14.3" font-family="Times,serif" font-size="14.00">wrp/DestroyEntity</text>
</a>
</g>
</g>
<!-- wrp/func_8018FA1C&#45;&gt;wrp/DestroyEntity -->
<g id="edge6" class="edge">
<title>wrp/func_8018FA1C&#45;&gt;wrp/DestroyEntity</title>
<path fill="none" stroke="black" d="M794.85,-93.66C894.34,-80.83 1068.11,-57.96 1216.74,-36 1225.09,-34.77 1233.8,-33.44 1242.49,-32.09"/>
<polygon fill="black" stroke="black" points="1243.31,-35.5 1252.65,-30.49 1242.22,-28.58 1243.31,-35.5"/>
<text text-anchor="middle" x="1083.74" y="-57.8" font-family="Times,serif" font-size="14.00">1</text>
</g>
</g>
</svg>
