<?xml version="1.0" encoding="UTF-8" standalone="no"?>
<!DOCTYPE svg PUBLIC "-//W3C//DTD SVG 1.1//EN"
 "http://www.w3.org/Graphics/SVG/1.1/DTD/svg11.dtd">
<!-- Generated by graphviz version 2.43.0 (0)
 -->
<!-- Title: func_8015CC70 Pages: 1 -->
<svg width="466pt" height="131pt"
 viewBox="0.00 0.00 466.33 131.00" xmlns="http://www.w3.org/2000/svg" xmlns:xlink="http://www.w3.org/1999/xlink">
<g id="graph0" class="graph" transform="scale(1 1) rotate(0) translate(4 127)">
<title>func_8015CC70</title>
<polygon fill="white" stroke="transparent" points="-4,4 -4,-127 462.33,-127 462.33,4 -4,4"/>
<!-- ric/func_8015CC70 -->
<g id="node1" class="node">
<title>ric/func_8015CC70</title>
<ellipse fill="green" stroke="black" cx="216.49" cy="-18" rx="98.58" ry="18"/>
<text text-anchor="middle" x="216.49" y="-14.3" font-family="Times,serif" font-size="14.00">ric/func_8015CC70</text>
</g>
<!-- ric/func_80156F40 -->
<g id="node2" class="node">
<title>ric/func_80156F40</title>
<g id="a_node2"><a xlink:href="func_80156F40.svg" xlink:title="ric/func_80156F40">
<ellipse fill="red" stroke="black" cx="97.49" cy="-105" rx="97.48" ry="18"/>
<text text-anchor="middle" x="97.49" y="-101.3" font-family="Times,serif" font-size="14.00">ric/func_80156F40</text>
</a>
</g>
</g>
<!-- ric/func_80156F40&#45;&gt;ric/func_8015CC70 -->
<g id="edge1" class="edge">
<title>ric/func_80156F40&#45;&gt;ric/func_8015CC70</title>
<path fill="none" stroke="black" d="M120.72,-87.41C139.07,-74.3 164.85,-55.88 185.05,-41.46"/>
<polygon fill="black" stroke="black" points="187.22,-44.21 193.32,-35.55 183.15,-38.51 187.22,-44.21"/>
<text text-anchor="middle" x="169.49" y="-57.8" font-family="Times,serif" font-size="14.00">3</text>
</g>
<!-- ric/UpdateEntityRichter -->
<g id="node3" class="node">
<title>ric/UpdateEntityRichter</title>
<g id="a_node3"><a xlink:href="UpdateEntityRichter.svg" xlink:title="ric/UpdateEntityRichter">
<ellipse fill="red" stroke="black" cx="335.49" cy="-105" rx="122.68" ry="18"/>
<text text-anchor="middle" x="335.49" y="-101.3" font-family="Times,serif" font-size="14.00">ric/UpdateEntityRichter</text>
</a>
</g>
</g>
<!-- ric/UpdateEntityRichter&#45;&gt;ric/func_8015CC70 -->
<g id="edge2" class="edge">
<title>ric/UpdateEntityRichter&#45;&gt;ric/func_8015CC70</title>
<path fill="none" stroke="black" d="M311.98,-87.21C293.73,-74.17 268.23,-55.96 248.18,-41.63"/>
<polygon fill="black" stroke="black" points="250.12,-38.72 239.95,-35.76 246.06,-44.42 250.12,-38.72"/>
<text text-anchor="middle" x="288.49" y="-57.8" font-family="Times,serif" font-size="14.00">1</text>
</g>
</g>
</svg>
