<?xml version="1.0" encoding="UTF-8" standalone="no"?>
<!DOCTYPE svg PUBLIC "-//W3C//DTD SVG 1.1//EN"
 "http://www.w3.org/Graphics/SVG/1.1/DTD/svg11.dtd">
<!-- Generated by graphviz version 2.43.0 (0)
 -->
<!-- Title: func_C1000_8017B1F8 Pages: 1 -->
<svg width="1310pt" height="131pt"
 viewBox="0.00 0.00 1310.02 131.00" xmlns="http://www.w3.org/2000/svg" xmlns:xlink="http://www.w3.org/1999/xlink">
<g id="graph0" class="graph" transform="scale(1 1) rotate(0) translate(4 127)">
<title>func_C1000_8017B1F8</title>
<polygon fill="white" stroke="transparent" points="-4,4 -4,-127 1306.02,-127 1306.02,4 -4,4"/>
<!-- weapon/func_C1000_8017B1F8 -->
<g id="node1" class="node">
<title>weapon/func_C1000_8017B1F8</title>
<ellipse fill="red" stroke="black" cx="653.64" cy="-105" rx="156.77" ry="18"/>
<text text-anchor="middle" x="653.64" y="-101.3" font-family="Times,serif" font-size="14.00">weapon/func_C1000_8017B1F8</text>
</g>
<!-- weapon/func_C1000_8017AE58 -->
<g id="node2" class="node">
<title>weapon/func_C1000_8017AE58</title>
<g id="a_node2"><a xlink:href="func_C1000_8017AE58.svg" xlink:title="weapon/func_C1000_8017AE58">
<ellipse fill="red" stroke="black" cx="156.64" cy="-18" rx="156.77" ry="18"/>
<text text-anchor="middle" x="156.64" y="-14.3" font-family="Times,serif" font-size="14.00">weapon/func_C1000_8017AE58</text>
</a>
</g>
</g>
<!-- weapon/func_C1000_8017B1F8&#45;&gt;weapon/func_C1000_8017AE58 -->
<g id="edge1" class="edge">
<title>weapon/func_C1000_8017B1F8&#45;&gt;weapon/func_C1000_8017AE58</title>
<path fill="none" stroke="black" d="M570.17,-89.72C481.6,-74.58 341.99,-50.7 249.87,-34.95"/>
<polygon fill="black" stroke="black" points="250.44,-31.49 240,-33.26 249.26,-38.39 250.44,-31.49"/>
<text text-anchor="middle" x="440.64" y="-57.8" font-family="Times,serif" font-size="14.00">1</text>
</g>
<!-- weapon/func_C1000_8017AFF8 -->
<g id="node3" class="node">
<title>weapon/func_C1000_8017AFF8</title>
<g id="a_node3"><a xlink:href="func_C1000_8017AFF8.svg" xlink:title="weapon/func_C1000_8017AFF8">
<ellipse fill="red" stroke="black" cx="487.64" cy="-18" rx="156.77" ry="18"/>
<text text-anchor="middle" x="487.64" y="-14.3" font-family="Times,serif" font-size="14.00">weapon/func_C1000_8017AFF8</text>
</a>
</g>
</g>
<!-- weapon/func_C1000_8017B1F8&#45;&gt;weapon/func_C1000_8017AFF8 -->
<g id="edge2" class="edge">
<title>weapon/func_C1000_8017B1F8&#45;&gt;weapon/func_C1000_8017AFF8</title>
<path fill="none" stroke="black" d="M620.84,-87.21C594.61,-73.78 557.66,-54.86 529.33,-40.35"/>
<polygon fill="black" stroke="black" points="530.58,-37.06 520.08,-35.61 527.39,-43.29 530.58,-37.06"/>
<text text-anchor="middle" x="585.64" y="-57.8" font-family="Times,serif" font-size="14.00">1</text>
</g>
<!-- weapon/func_C1000_8017AD54 -->
<g id="node4" class="node">
<title>weapon/func_C1000_8017AD54</title>
<g id="a_node4"><a xlink:href="func_C1000_8017AD54.svg" xlink:title="weapon/func_C1000_8017AD54">
<ellipse fill="red" stroke="black" cx="819.64" cy="-18" rx="157.07" ry="18"/>
<text text-anchor="middle" x="819.64" y="-14.3" font-family="Times,serif" font-size="14.00">weapon/func_C1000_8017AD54</text>
</a>
</g>
</g>
<!-- weapon/func_C1000_8017B1F8&#45;&gt;weapon/func_C1000_8017AD54 -->
<g id="edge3" class="edge">
<title>weapon/func_C1000_8017B1F8&#45;&gt;weapon/func_C1000_8017AD54</title>
<path fill="none" stroke="black" d="M686.43,-87.21C712.66,-73.78 749.61,-54.86 777.94,-40.35"/>
<polygon fill="black" stroke="black" points="779.89,-43.29 787.19,-35.61 776.69,-37.06 779.89,-43.29"/>
<text text-anchor="middle" x="751.64" y="-57.8" font-family="Times,serif" font-size="14.00">1</text>
</g>
<!-- weapon/g_api_func_8010DBFC -->
<g id="node5" class="node">
<title>weapon/g_api_func_8010DBFC</title>
<g id="a_node5"><a xlink:href="g_api_func_8010DBFC.svg" xlink:title="weapon/g_api_func_8010DBFC">
<ellipse fill="lightblue" stroke="black" cx="1148.64" cy="-18" rx="153.27" ry="18"/>
<text text-anchor="middle" x="1148.64" y="-14.3" font-family="Times,serif" font-size="14.00">weapon/g_api_func_8010DBFC</text>
</a>
</g>
</g>
<!-- weapon/func_C1000_8017B1F8&#45;&gt;weapon/g_api_func_8010DBFC -->
<g id="edge4" class="edge">
<title>weapon/func_C1000_8017B1F8&#45;&gt;weapon/g_api_func_8010DBFC</title>
<path fill="none" stroke="black" d="M736.77,-89.72C825.02,-74.57 964.17,-50.68 1055.91,-34.92"/>
<polygon fill="black" stroke="black" points="1056.76,-38.33 1066.02,-33.19 1055.58,-31.43 1056.76,-38.33"/>
<text text-anchor="middle" x="936.64" y="-57.8" font-family="Times,serif" font-size="14.00">1</text>
</g>
</g>
</svg>
