<?xml version="1.0" encoding="UTF-8" standalone="no"?>
<!DOCTYPE svg PUBLIC "-//W3C//DTD SVG 1.1//EN"
 "http://www.w3.org/Graphics/SVG/1.1/DTD/svg11.dtd">
<!-- Generated by graphviz version 2.43.0 (0)
 -->
<!-- Title: func_8015D9B4 Pages: 1 -->
<svg width="690pt" height="218pt"
 viewBox="0.00 0.00 689.53 218.00" xmlns="http://www.w3.org/2000/svg" xmlns:xlink="http://www.w3.org/1999/xlink">
<g id="graph0" class="graph" transform="scale(1 1) rotate(0) translate(4 214)">
<title>func_8015D9B4</title>
<polygon fill="white" stroke="transparent" points="-4,4 -4,-214 685.53,-214 685.53,4 -4,4"/>
<!-- ric/func_8015D9B4 -->
<g id="node1" class="node">
<title>ric/func_8015D9B4</title>
<ellipse fill="green" stroke="black" cx="342.74" cy="-105" rx="99.38" ry="18"/>
<text text-anchor="middle" x="342.74" y="-101.3" font-family="Times,serif" font-size="14.00">ric/func_8015D9B4</text>
</g>
<!-- ric/SetPlayerStep -->
<g id="node2" class="node">
<title>ric/SetPlayerStep</title>
<g id="a_node2"><a xlink:href="SetPlayerStep.svg" xlink:title="ric/SetPlayerStep">
<ellipse fill="green" stroke="black" cx="342.74" cy="-18" rx="92.88" ry="18"/>
<text text-anchor="middle" x="342.74" y="-14.3" font-family="Times,serif" font-size="14.00">ric/SetPlayerStep</text>
</a>
</g>
</g>
<!-- ric/func_8015D9B4&#45;&gt;ric/SetPlayerStep -->
<g id="edge1" class="edge">
<title>ric/func_8015D9B4&#45;&gt;ric/SetPlayerStep</title>
<path fill="none" stroke="black" d="M342.74,-86.8C342.74,-75.16 342.74,-59.55 342.74,-46.24"/>
<polygon fill="black" stroke="black" points="346.24,-46.18 342.74,-36.18 339.24,-46.18 346.24,-46.18"/>
<text text-anchor="middle" x="347.74" y="-57.8" font-family="Times,serif" font-size="14.00">1</text>
</g>
<!-- ric/func_8015DBB0 -->
<g id="node3" class="node">
<title>ric/func_8015DBB0</title>
<g id="a_node3"><a xlink:href="func_8015DBB0.svg" xlink:title="ric/func_8015DBB0">
<ellipse fill="red" stroke="black" cx="100.74" cy="-192" rx="100.98" ry="18"/>
<text text-anchor="middle" x="100.74" y="-188.3" font-family="Times,serif" font-size="14.00">ric/func_8015DBB0</text>
</a>
</g>
</g>
<!-- ric/func_8015DBB0&#45;&gt;ric/func_8015D9B4 -->
<g id="edge2" class="edge">
<title>ric/func_8015DBB0&#45;&gt;ric/func_8015D9B4</title>
<path fill="none" stroke="black" d="M144.29,-175.71C185.02,-161.4 245.97,-139.99 289.56,-124.68"/>
<polygon fill="black" stroke="black" points="290.86,-127.93 299.14,-121.31 288.54,-121.33 290.86,-127.93"/>
<text text-anchor="middle" x="241.74" y="-144.8" font-family="Times,serif" font-size="14.00">1</text>
</g>
<!-- ric/UpdateEntityRichter -->
<g id="node4" class="node">
<title>ric/UpdateEntityRichter</title>
<g id="a_node4"><a xlink:href="UpdateEntityRichter.svg" xlink:title="ric/UpdateEntityRichter">
<ellipse fill="red" stroke="black" cx="342.74" cy="-192" rx="122.68" ry="18"/>
<text text-anchor="middle" x="342.74" y="-188.3" font-family="Times,serif" font-size="14.00">ric/UpdateEntityRichter</text>
</a>
</g>
</g>
<!-- ric/UpdateEntityRichter&#45;&gt;ric/func_8015D9B4 -->
<g id="edge3" class="edge">
<title>ric/UpdateEntityRichter&#45;&gt;ric/func_8015D9B4</title>
<path fill="none" stroke="black" d="M342.74,-173.8C342.74,-162.16 342.74,-146.55 342.74,-133.24"/>
<polygon fill="black" stroke="black" points="346.24,-133.18 342.74,-123.18 339.24,-133.18 346.24,-133.18"/>
<text text-anchor="middle" x="347.74" y="-144.8" font-family="Times,serif" font-size="14.00">1</text>
</g>
<!-- ric/func_80159CE4 -->
<g id="node5" class="node">
<title>ric/func_80159CE4</title>
<g id="a_node5"><a xlink:href="func_80159CE4.svg" xlink:title="ric/func_80159CE4">
<ellipse fill="red" stroke="black" cx="582.74" cy="-192" rx="98.58" ry="18"/>
<text text-anchor="middle" x="582.74" y="-188.3" font-family="Times,serif" font-size="14.00">ric/func_80159CE4</text>
</a>
</g>
</g>
<!-- ric/func_80159CE4&#45;&gt;ric/func_8015D9B4 -->
<g id="edge4" class="edge">
<title>ric/func_80159CE4&#45;&gt;ric/func_8015D9B4</title>
<path fill="none" stroke="black" d="M539.56,-175.71C499.16,-161.4 438.72,-139.99 395.48,-124.68"/>
<polygon fill="black" stroke="black" points="396.58,-121.35 385.98,-121.31 394.24,-127.95 396.58,-121.35"/>
<text text-anchor="middle" x="482.74" y="-144.8" font-family="Times,serif" font-size="14.00">1</text>
</g>
</g>
</svg>
