<?xml version="1.0" encoding="UTF-8" standalone="no"?>
<!DOCTYPE svg PUBLIC "-//W3C//DTD SVG 1.1//EN"
 "http://www.w3.org/Graphics/SVG/1.1/DTD/svg11.dtd">
<!-- Generated by graphviz version 2.43.0 (0)
 -->
<!-- Title: func_8018DF60 Pages: 1 -->
<svg width="492pt" height="131pt"
 viewBox="0.00 0.00 491.68 131.00" xmlns="http://www.w3.org/2000/svg" xmlns:xlink="http://www.w3.org/1999/xlink">
<g id="graph0" class="graph" transform="scale(1 1) rotate(0) translate(4 127)">
<title>func_8018DF60</title>
<polygon fill="white" stroke="transparent" points="-4,4 -4,-127 487.68,-127 487.68,4 -4,4"/>
<!-- cen/func_8018DF60 -->
<g id="node1" class="node">
<title>cen/func_8018DF60</title>
<ellipse fill="red" stroke="black" cx="253.69" cy="-105" rx="102.88" ry="18"/>
<text text-anchor="middle" x="253.69" y="-101.3" font-family="Times,serif" font-size="14.00">cen/func_8018DF60</text>
</g>
<!-- cen/g_api_AllocPrimitives -->
<g id="node2" class="node">
<title>cen/g_api_AllocPrimitives</title>
<g id="a_node2"><a xlink:href="g_api_AllocPrimitives.svg" xlink:title="cen/g_api_AllocPrimitives">
<ellipse fill="lightblue" stroke="black" cx="128.69" cy="-18" rx="128.88" ry="18"/>
<text text-anchor="middle" x="128.69" y="-14.3" font-family="Times,serif" font-size="14.00">cen/g_api_AllocPrimitives</text>
</a>
</g>
</g>
<!-- cen/func_8018DF60&#45;&gt;cen/g_api_AllocPrimitives -->
<g id="edge1" class="edge">
<title>cen/func_8018DF60&#45;&gt;cen/g_api_AllocPrimitives</title>
<path fill="none" stroke="black" d="M229.29,-87.41C210.06,-74.33 183.04,-55.96 161.85,-41.55"/>
<polygon fill="black" stroke="black" points="163.69,-38.57 153.45,-35.84 159.75,-44.36 163.69,-38.57"/>
<text text-anchor="middle" x="203.69" y="-57.8" font-family="Times,serif" font-size="14.00">1</text>
</g>
<!-- cen/func_8018DF0C -->
<g id="node3" class="node">
<title>cen/func_8018DF0C</title>
<g id="a_node3"><a xlink:href="func_8018DF0C.svg" xlink:title="cen/func_8018DF0C">
<ellipse fill="green" stroke="black" cx="379.69" cy="-18" rx="103.98" ry="18"/>
<text text-anchor="middle" x="379.69" y="-14.3" font-family="Times,serif" font-size="14.00">cen/func_8018DF0C</text>
</a>
</g>
</g>
<!-- cen/func_8018DF60&#45;&gt;cen/func_8018DF0C -->
<g id="edge2" class="edge">
<title>cen/func_8018DF60&#45;&gt;cen/func_8018DF0C</title>
<path fill="none" stroke="black" d="M278.28,-87.41C297.79,-74.25 325.26,-55.72 346.68,-41.27"/>
<polygon fill="black" stroke="black" points="348.82,-44.04 355.16,-35.55 344.91,-38.24 348.82,-44.04"/>
<text text-anchor="middle" x="329.69" y="-57.8" font-family="Times,serif" font-size="14.00">1</text>
</g>
</g>
</svg>
