<?xml version="1.0" encoding="UTF-8" standalone="no"?>
<!DOCTYPE svg PUBLIC "-//W3C//DTD SVG 1.1//EN"
 "http://www.w3.org/Graphics/SVG/1.1/DTD/svg11.dtd">
<!-- Generated by graphviz version 2.43.0 (0)
 -->
<!-- Title: func_801706C0 Pages: 1 -->
<svg width="321pt" height="218pt"
 viewBox="0.00 0.00 320.59 218.00" xmlns="http://www.w3.org/2000/svg" xmlns:xlink="http://www.w3.org/1999/xlink">
<g id="graph0" class="graph" transform="scale(1 1) rotate(0) translate(4 214)">
<title>func_801706C0</title>
<polygon fill="white" stroke="transparent" points="-4,4 -4,-214 316.59,-214 316.59,4 -4,4"/>
<!-- ric/func_801706C0 -->
<g id="node1" class="node">
<title>ric/func_801706C0</title>
<g id="a_node1"><a xlink:href="func_801706C0.svg" xlink:title="ric/func_801706C0">
<ellipse fill="red" stroke="black" cx="158.45" cy="-105" rx="98.28" ry="18"/>
<text text-anchor="middle" x="158.45" y="-101.3" font-family="Times,serif" font-size="14.00">ric/func_801706C0</text>
</a>
</g>
</g>
<!-- ric/func_801706C0&#45;&gt;ric/func_801706C0 -->
<g id="edge4" class="edge">
<title>ric/func_801706C0&#45;&gt;ric/func_801706C0</title>
<path fill="none" stroke="black" d="M255.01,-108.41C266.84,-107.8 274.59,-106.66 274.59,-105 274.59,-103.88 271.09,-103.01 265.21,-102.36"/>
<polygon fill="black" stroke="black" points="265.25,-98.86 255.01,-101.59 264.72,-105.84 265.25,-98.86"/>
<text text-anchor="middle" x="279.59" y="-101.3" font-family="Times,serif" font-size="14.00">2</text>
</g>
<!-- ric/func_801706C0&#45;&gt;ric/func_801706C0 -->
<g id="edge5" class="edge">
<title>ric/func_801706C0&#45;&gt;ric/func_801706C0</title>
<path fill="none" stroke="black" d="M246.82,-112.85C272.61,-112.58 292.59,-109.96 292.59,-105 292.59,-100.72 277.7,-98.18 257.03,-97.39"/>
<polygon fill="black" stroke="black" points="256.9,-93.89 246.82,-97.15 256.73,-100.89 256.9,-93.89"/>
<text text-anchor="middle" x="297.59" y="-101.3" font-family="Times,serif" font-size="14.00">2</text>
</g>
<!-- ric/rand -->
<g id="node2" class="node">
<title>ric/rand</title>
<g id="a_node2"><a xlink:href="rand.svg" xlink:title="ric/rand">
<ellipse fill="lightblue" stroke="black" cx="47.45" cy="-18" rx="47.39" ry="18"/>
<text text-anchor="middle" x="47.45" y="-14.3" font-family="Times,serif" font-size="14.00">ric/rand</text>
</a>
</g>
</g>
<!-- ric/func_801706C0&#45;&gt;ric/rand -->
<g id="edge1" class="edge">
<title>ric/func_801706C0&#45;&gt;ric/rand</title>
<path fill="none" stroke="black" d="M136.78,-87.41C119.3,-74.03 94.59,-55.1 75.58,-40.55"/>
<polygon fill="black" stroke="black" points="77.63,-37.71 67.56,-34.4 73.37,-43.26 77.63,-37.71"/>
<text text-anchor="middle" x="115.45" y="-57.8" font-family="Times,serif" font-size="14.00">4</text>
</g>
<!-- ric/rcos -->
<g id="node3" class="node">
<title>ric/rcos</title>
<g id="a_node3"><a xlink:href="rcos.svg" xlink:title="ric/rcos">
<ellipse fill="red" stroke="black" cx="158.45" cy="-18" rx="45.49" ry="18"/>
<text text-anchor="middle" x="158.45" y="-14.3" font-family="Times,serif" font-size="14.00">ric/rcos</text>
</a>
</g>
</g>
<!-- ric/func_801706C0&#45;&gt;ric/rcos -->
<g id="edge2" class="edge">
<title>ric/func_801706C0&#45;&gt;ric/rcos</title>
<path fill="none" stroke="black" d="M158.45,-86.8C158.45,-75.16 158.45,-59.55 158.45,-46.24"/>
<polygon fill="black" stroke="black" points="161.95,-46.18 158.45,-36.18 154.95,-46.18 161.95,-46.18"/>
<text text-anchor="middle" x="163.45" y="-57.8" font-family="Times,serif" font-size="14.00">1</text>
</g>
<!-- ric/rsin -->
<g id="node4" class="node">
<title>ric/rsin</title>
<g id="a_node4"><a xlink:href="rsin.svg" xlink:title="ric/rsin">
<ellipse fill="green" stroke="black" cx="266.45" cy="-18" rx="44.39" ry="18"/>
<text text-anchor="middle" x="266.45" y="-14.3" font-family="Times,serif" font-size="14.00">ric/rsin</text>
</a>
</g>
</g>
<!-- ric/func_801706C0&#45;&gt;ric/rsin -->
<g id="edge3" class="edge">
<title>ric/func_801706C0&#45;&gt;ric/rsin</title>
<path fill="none" stroke="black" d="M179.53,-87.41C196.45,-74.09 220.36,-55.27 238.82,-40.74"/>
<polygon fill="black" stroke="black" points="241.18,-43.34 246.87,-34.4 236.85,-37.84 241.18,-43.34"/>
<text text-anchor="middle" x="224.45" y="-57.8" font-family="Times,serif" font-size="14.00">1</text>
</g>
<!-- ric/func_8017091C -->
<g id="node5" class="node">
<title>ric/func_8017091C</title>
<g id="a_node5"><a xlink:href="func_8017091C.svg" xlink:title="ric/func_8017091C">
<ellipse fill="red" stroke="black" cx="158.45" cy="-192" rx="98.28" ry="18"/>
<text text-anchor="middle" x="158.45" y="-188.3" font-family="Times,serif" font-size="14.00">ric/func_8017091C</text>
</a>
</g>
</g>
<!-- ric/func_8017091C&#45;&gt;ric/func_801706C0 -->
<g id="edge6" class="edge">
<title>ric/func_8017091C&#45;&gt;ric/func_801706C0</title>
<path fill="none" stroke="black" d="M158.45,-173.8C158.45,-162.16 158.45,-146.55 158.45,-133.24"/>
<polygon fill="black" stroke="black" points="161.95,-133.18 158.45,-123.18 154.95,-133.18 161.95,-133.18"/>
<text text-anchor="middle" x="163.45" y="-144.8" font-family="Times,serif" font-size="14.00">1</text>
</g>
</g>
</svg>
