<?xml version="1.0" encoding="UTF-8" standalone="no"?>
<!DOCTYPE svg PUBLIC "-//W3C//DTD SVG 1.1//EN"
 "http://www.w3.org/Graphics/SVG/1.1/DTD/svg11.dtd">
<!-- Generated by graphviz version 2.43.0 (0)
 -->
<!-- Title: func_801B37C0 Pages: 1 -->
<svg width="1441pt" height="131pt"
 viewBox="0.00 0.00 1440.99 131.00" xmlns="http://www.w3.org/2000/svg" xmlns:xlink="http://www.w3.org/1999/xlink">
<g id="graph0" class="graph" transform="scale(1 1) rotate(0) translate(4 127)">
<title>func_801B37C0</title>
<polygon fill="white" stroke="transparent" points="-4,4 -4,-127 1436.99,-127 1436.99,4 -4,4"/>
<!-- nz0/func_801B37C0 -->
<g id="node1" class="node">
<title>nz0/func_801B37C0</title>
<ellipse fill="green" stroke="black" cx="802.44" cy="-105" rx="103.18" ry="18"/>
<text text-anchor="middle" x="802.44" y="-101.3" font-family="Times,serif" font-size="14.00">nz0/func_801B37C0</text>
</g>
<!-- nz0/InitializeEntity -->
<g id="node2" class="node">
<title>nz0/InitializeEntity</title>
<g id="a_node2"><a xlink:href="InitializeEntity.svg" xlink:title="nz0/InitializeEntity">
<ellipse fill="green" stroke="black" cx="99.44" cy="-18" rx="99.38" ry="18"/>
<text text-anchor="middle" x="99.44" y="-14.3" font-family="Times,serif" font-size="14.00">nz0/InitializeEntity</text>
</a>
</g>
</g>
<!-- nz0/func_801B37C0&#45;&gt;nz0/InitializeEntity -->
<g id="edge1" class="edge">
<title>nz0/func_801B37C0&#45;&gt;nz0/InitializeEntity</title>
<path fill="none" stroke="black" d="M715.58,-95.24C599.58,-83.27 387.74,-60.48 207.44,-36 198.76,-34.82 189.71,-33.52 180.69,-32.17"/>
<polygon fill="black" stroke="black" points="180.96,-28.67 170.54,-30.63 179.91,-35.59 180.96,-28.67"/>
<text text-anchor="middle" x="473.44" y="-57.8" font-family="Times,serif" font-size="14.00">1</text>
</g>
<!-- nz0/CreateEntityFromEntity -->
<g id="node3" class="node">
<title>nz0/CreateEntityFromEntity</title>
<g id="a_node3"><a xlink:href="CreateEntityFromEntity.svg" xlink:title="nz0/CreateEntityFromEntity">
<ellipse fill="green" stroke="black" cx="360.44" cy="-18" rx="143.77" ry="18"/>
<text text-anchor="middle" x="360.44" y="-14.3" font-family="Times,serif" font-size="14.00">nz0/CreateEntityFromEntity</text>
</a>
</g>
</g>
<!-- nz0/func_801B37C0&#45;&gt;nz0/CreateEntityFromEntity -->
<g id="edge2" class="edge">
<title>nz0/func_801B37C0&#45;&gt;nz0/CreateEntityFromEntity</title>
<path fill="none" stroke="black" d="M735.79,-91.18C658.19,-76.26 529.89,-51.59 445.25,-35.31"/>
<polygon fill="black" stroke="black" points="445.89,-31.87 435.41,-33.42 444.57,-38.74 445.89,-31.87"/>
<text text-anchor="middle" x="613.44" y="-57.8" font-family="Times,serif" font-size="14.00">3</text>
</g>
<!-- nz0/AnimateEntity -->
<g id="node4" class="node">
<title>nz0/AnimateEntity</title>
<g id="a_node4"><a xlink:href="AnimateEntity.svg" xlink:title="nz0/AnimateEntity">
<ellipse fill="green" stroke="black" cx="619.44" cy="-18" rx="97.48" ry="18"/>
<text text-anchor="middle" x="619.44" y="-14.3" font-family="Times,serif" font-size="14.00">nz0/AnimateEntity</text>
</a>
</g>
</g>
<!-- nz0/func_801B37C0&#45;&gt;nz0/AnimateEntity -->
<g id="edge3" class="edge">
<title>nz0/func_801B37C0&#45;&gt;nz0/AnimateEntity</title>
<path fill="none" stroke="black" d="M768.02,-88.01C738.24,-74.18 695.04,-54.11 662.88,-39.18"/>
<polygon fill="black" stroke="black" points="664.25,-35.95 653.71,-34.92 661.3,-42.3 664.25,-35.95"/>
<text text-anchor="middle" x="727.44" y="-57.8" font-family="Times,serif" font-size="14.00">2</text>
</g>
<!-- nz0/SetStep -->
<g id="node5" class="node">
<title>nz0/SetStep</title>
<g id="a_node5"><a xlink:href="SetStep.svg" xlink:title="nz0/SetStep">
<ellipse fill="green" stroke="black" cx="802.44" cy="-18" rx="67.69" ry="18"/>
<text text-anchor="middle" x="802.44" y="-14.3" font-family="Times,serif" font-size="14.00">nz0/SetStep</text>
</a>
</g>
</g>
<!-- nz0/func_801B37C0&#45;&gt;nz0/SetStep -->
<g id="edge4" class="edge">
<title>nz0/func_801B37C0&#45;&gt;nz0/SetStep</title>
<path fill="none" stroke="black" d="M802.44,-86.8C802.44,-75.16 802.44,-59.55 802.44,-46.24"/>
<polygon fill="black" stroke="black" points="805.94,-46.18 802.44,-36.18 798.94,-46.18 805.94,-46.18"/>
<text text-anchor="middle" x="807.44" y="-57.8" font-family="Times,serif" font-size="14.00">1</text>
</g>
<!-- nz0/AllocEntity -->
<g id="node6" class="node">
<title>nz0/AllocEntity</title>
<g id="a_node6"><a xlink:href="AllocEntity.svg" xlink:title="nz0/AllocEntity">
<ellipse fill="green" stroke="black" cx="969.44" cy="-18" rx="81.49" ry="18"/>
<text text-anchor="middle" x="969.44" y="-14.3" font-family="Times,serif" font-size="14.00">nz0/AllocEntity</text>
</a>
</g>
</g>
<!-- nz0/func_801B37C0&#45;&gt;nz0/AllocEntity -->
<g id="edge5" class="edge">
<title>nz0/func_801B37C0&#45;&gt;nz0/AllocEntity</title>
<path fill="none" stroke="black" d="M834.25,-87.81C861.32,-74.03 900.34,-54.17 929.51,-39.33"/>
<polygon fill="black" stroke="black" points="931.28,-42.35 938.6,-34.7 928.1,-36.11 931.28,-42.35"/>
<text text-anchor="middle" x="901.44" y="-57.8" font-family="Times,serif" font-size="14.00">1</text>
</g>
<!-- nz0/func_801C29B0 -->
<g id="node7" class="node">
<title>nz0/func_801C29B0</title>
<g id="a_node7"><a xlink:href="func_801C29B0.svg" xlink:title="nz0/func_801C29B0">
<ellipse fill="green" stroke="black" cx="1172.44" cy="-18" rx="103.18" ry="18"/>
<text text-anchor="middle" x="1172.44" y="-14.3" font-family="Times,serif" font-size="14.00">nz0/func_801C29B0</text>
</a>
</g>
</g>
<!-- nz0/func_801B37C0&#45;&gt;nz0/func_801C29B0 -->
<g id="edge6" class="edge">
<title>nz0/func_801B37C0&#45;&gt;nz0/func_801C29B0</title>
<path fill="none" stroke="black" d="M862.3,-90.25C927.99,-75.16 1033.32,-50.96 1102.7,-35.02"/>
<polygon fill="black" stroke="black" points="1103.71,-38.38 1112.67,-32.73 1102.14,-31.56 1103.71,-38.38"/>
<text text-anchor="middle" x="1015.44" y="-57.8" font-family="Times,serif" font-size="14.00">1</text>
</g>
<!-- nz0/FntPrint -->
<g id="node8" class="node">
<title>nz0/FntPrint</title>
<g id="a_node8"><a xlink:href="FntPrint.svg" xlink:title="nz0/FntPrint">
<ellipse fill="lightblue" stroke="black" cx="1363.44" cy="-18" rx="69.59" ry="18"/>
<text text-anchor="middle" x="1363.44" y="-14.3" font-family="Times,serif" font-size="14.00">nz0/FntPrint</text>
</a>
</g>
</g>
<!-- nz0/func_801B37C0&#45;&gt;nz0/FntPrint -->
<g id="edge7" class="edge">
<title>nz0/func_801B37C0&#45;&gt;nz0/FntPrint</title>
<path fill="none" stroke="black" d="M885.46,-94.13C981.74,-82.25 1145.08,-60.79 1284.44,-36 1290.51,-34.92 1296.83,-33.71 1303.13,-32.44"/>
<polygon fill="black" stroke="black" points="1303.88,-35.86 1312.97,-30.42 1302.48,-29.01 1303.88,-35.86"/>
<text text-anchor="middle" x="1171.44" y="-57.8" font-family="Times,serif" font-size="14.00">1</text>
</g>
</g>
</svg>
