<?xml version="1.0" encoding="UTF-8" standalone="no"?>
<!DOCTYPE svg PUBLIC "-//W3C//DTD SVG 1.1//EN"
 "http://www.w3.org/Graphics/SVG/1.1/DTD/svg11.dtd">
<!-- Generated by graphviz version 2.43.0 (0)
 -->
<!-- Title: func_80118894 Pages: 1 -->
<svg width="1153pt" height="131pt"
 viewBox="0.00 0.00 1153.08 131.00" xmlns="http://www.w3.org/2000/svg" xmlns:xlink="http://www.w3.org/1999/xlink">
<g id="graph0" class="graph" transform="scale(1 1) rotate(0) translate(4 127)">
<title>func_80118894</title>
<polygon fill="white" stroke="transparent" points="-4,4 -4,-127 1149.08,-127 1149.08,4 -4,4"/>
<!-- dra/func_80118894 -->
<g id="node1" class="node">
<title>dra/func_80118894</title>
<ellipse fill="green" stroke="black" cx="540.39" cy="-18" rx="100.98" ry="18"/>
<text text-anchor="middle" x="540.39" y="-14.3" font-family="Times,serif" font-size="14.00">dra/func_80118894</text>
</g>
<!-- dra/func_8011B334 -->
<g id="node2" class="node">
<title>dra/func_8011B334</title>
<g id="a_node2"><a xlink:href="func_8011B334.svg" xlink:title="dra/func_8011B334">
<ellipse fill="green" stroke="black" cx="101.39" cy="-105" rx="101.28" ry="18"/>
<text text-anchor="middle" x="101.39" y="-101.3" font-family="Times,serif" font-size="14.00">dra/func_8011B334</text>
</a>
</g>
</g>
<!-- dra/func_8011B334&#45;&gt;dra/func_80118894 -->
<g id="edge1" class="edge">
<title>dra/func_8011B334&#45;&gt;dra/func_80118894</title>
<path fill="none" stroke="black" d="M167.11,-91.27C246.76,-75.85 380.68,-49.92 464.6,-33.67"/>
<polygon fill="black" stroke="black" points="465.43,-37.08 474.58,-31.74 464.1,-30.21 465.43,-37.08"/>
<text text-anchor="middle" x="352.39" y="-57.8" font-family="Times,serif" font-size="14.00">1</text>
</g>
<!-- dra/func_8011A328 -->
<g id="node3" class="node">
<title>dra/func_8011A328</title>
<g id="a_node3"><a xlink:href="func_8011A328.svg" xlink:title="dra/func_8011A328">
<ellipse fill="green" stroke="black" cx="321.39" cy="-105" rx="100.98" ry="18"/>
<text text-anchor="middle" x="321.39" y="-101.3" font-family="Times,serif" font-size="14.00">dra/func_8011A328</text>
</a>
</g>
</g>
<!-- dra/func_8011A328&#45;&gt;dra/func_80118894 -->
<g id="edge2" class="edge">
<title>dra/func_8011A328&#45;&gt;dra/func_80118894</title>
<path fill="none" stroke="black" d="M361.56,-88.41C397.87,-74.32 451.47,-53.51 490.51,-38.36"/>
<polygon fill="black" stroke="black" points="492.05,-41.52 500.11,-34.64 489.52,-34.99 492.05,-41.52"/>
<text text-anchor="middle" x="449.39" y="-57.8" font-family="Times,serif" font-size="14.00">1</text>
</g>
<!-- dra/func_8011A290 -->
<g id="node4" class="node">
<title>dra/func_8011A290</title>
<g id="a_node4"><a xlink:href="func_8011A290.svg" xlink:title="dra/func_8011A290">
<ellipse fill="green" stroke="black" cx="540.39" cy="-105" rx="100.98" ry="18"/>
<text text-anchor="middle" x="540.39" y="-101.3" font-family="Times,serif" font-size="14.00">dra/func_8011A290</text>
</a>
</g>
</g>
<!-- dra/func_8011A290&#45;&gt;dra/func_80118894 -->
<g id="edge3" class="edge">
<title>dra/func_8011A290&#45;&gt;dra/func_80118894</title>
<path fill="none" stroke="black" d="M540.39,-86.8C540.39,-75.16 540.39,-59.55 540.39,-46.24"/>
<polygon fill="black" stroke="black" points="543.89,-46.18 540.39,-36.18 536.89,-46.18 543.89,-46.18"/>
<text text-anchor="middle" x="545.39" y="-57.8" font-family="Times,serif" font-size="14.00">1</text>
</g>
<!-- dra/EntityUnarmedAttack -->
<g id="node5" class="node">
<title>dra/EntityUnarmedAttack</title>
<g id="a_node5"><a xlink:href="EntityUnarmedAttack.svg" xlink:title="dra/EntityUnarmedAttack">
<ellipse fill="green" stroke="black" cx="790.39" cy="-105" rx="131.08" ry="18"/>
<text text-anchor="middle" x="790.39" y="-101.3" font-family="Times,serif" font-size="14.00">dra/EntityUnarmedAttack</text>
</a>
</g>
</g>
<!-- dra/EntityUnarmedAttack&#45;&gt;dra/func_80118894 -->
<g id="edge4" class="edge">
<title>dra/EntityUnarmedAttack&#45;&gt;dra/func_80118894</title>
<path fill="none" stroke="black" d="M743.66,-88.11C701.4,-73.74 639.16,-52.58 594.69,-37.46"/>
<polygon fill="black" stroke="black" points="595.8,-34.14 585.21,-34.24 593.55,-40.77 595.8,-34.14"/>
<text text-anchor="middle" x="685.39" y="-57.8" font-family="Times,serif" font-size="14.00">1</text>
</g>
<!-- dra/func_8011A3AC -->
<g id="node6" class="node">
<title>dra/func_8011A3AC</title>
<g id="a_node6"><a xlink:href="func_8011A3AC.svg" xlink:title="dra/func_8011A3AC">
<ellipse fill="green" stroke="black" cx="1042.39" cy="-105" rx="102.88" ry="18"/>
<text text-anchor="middle" x="1042.39" y="-101.3" font-family="Times,serif" font-size="14.00">dra/func_8011A3AC</text>
</a>
</g>
</g>
<!-- dra/func_8011A3AC&#45;&gt;dra/func_80118894 -->
<g id="edge5" class="edge">
<title>dra/func_8011A3AC&#45;&gt;dra/func_80118894</title>
<path fill="none" stroke="black" d="M971.27,-91.96C878.79,-76.3 717.68,-49.02 620.84,-32.62"/>
<polygon fill="black" stroke="black" points="621.25,-29.14 610.81,-30.92 620.08,-36.04 621.25,-29.14"/>
<text text-anchor="middle" x="827.39" y="-57.8" font-family="Times,serif" font-size="14.00">1</text>
</g>
</g>
</svg>
