<?xml version="1.0" encoding="UTF-8" standalone="no"?>
<!DOCTYPE svg PUBLIC "-//W3C//DTD SVG 1.1//EN"
 "http://www.w3.org/Graphics/SVG/1.1/DTD/svg11.dtd">
<!-- Generated by graphviz version 2.43.0 (0)
 -->
<!-- Title: func_82000_8017A844 Pages: 1 -->
<svg width="650pt" height="131pt"
 viewBox="0.00 0.00 649.97 131.00" xmlns="http://www.w3.org/2000/svg" xmlns:xlink="http://www.w3.org/1999/xlink">
<g id="graph0" class="graph" transform="scale(1 1) rotate(0) translate(4 127)">
<title>func_82000_8017A844</title>
<polygon fill="white" stroke="transparent" points="-4,4 -4,-127 645.97,-127 645.97,4 -4,4"/>
<!-- weapon/func_82000_8017A844 -->
<g id="node1" class="node">
<title>weapon/func_82000_8017A844</title>
<ellipse fill="red" stroke="black" cx="320.34" cy="-18" rx="154.87" ry="18"/>
<text text-anchor="middle" x="320.34" y="-14.3" font-family="Times,serif" font-size="14.00">weapon/func_82000_8017A844</text>
</g>
<!-- weapon/func_82000_8017AF10 -->
<g id="node2" class="node">
<title>weapon/func_82000_8017AF10</title>
<g id="a_node2"><a xlink:href="func_82000_8017AF10.svg" xlink:title="weapon/func_82000_8017AF10">
<ellipse fill="red" stroke="black" cx="155.34" cy="-105" rx="155.17" ry="18"/>
<text text-anchor="middle" x="155.34" y="-101.3" font-family="Times,serif" font-size="14.00">weapon/func_82000_8017AF10</text>
</a>
</g>
</g>
<!-- weapon/func_82000_8017AF10&#45;&gt;weapon/func_82000_8017A844 -->
<g id="edge1" class="edge">
<title>weapon/func_82000_8017AF10&#45;&gt;weapon/func_82000_8017A844</title>
<path fill="none" stroke="black" d="M187.93,-87.21C214.01,-73.78 250.73,-54.86 278.89,-40.35"/>
<polygon fill="black" stroke="black" points="280.8,-43.3 288.09,-35.61 277.59,-37.08 280.8,-43.3"/>
<text text-anchor="middle" x="253.34" y="-57.8" font-family="Times,serif" font-size="14.00">1</text>
</g>
<!-- weapon/func_82000_8017ABE4 -->
<g id="node3" class="node">
<title>weapon/func_82000_8017ABE4</title>
<g id="a_node3"><a xlink:href="func_82000_8017ABE4.svg" xlink:title="weapon/func_82000_8017ABE4">
<ellipse fill="red" stroke="black" cx="485.34" cy="-105" rx="156.77" ry="18"/>
<text text-anchor="middle" x="485.34" y="-101.3" font-family="Times,serif" font-size="14.00">weapon/func_82000_8017ABE4</text>
</a>
</g>
</g>
<!-- weapon/func_82000_8017ABE4&#45;&gt;weapon/func_82000_8017A844 -->
<g id="edge2" class="edge">
<title>weapon/func_82000_8017ABE4&#45;&gt;weapon/func_82000_8017A844</title>
<path fill="none" stroke="black" d="M452.74,-87.21C426.66,-73.78 389.94,-54.86 361.78,-40.35"/>
<polygon fill="black" stroke="black" points="363.08,-37.08 352.59,-35.61 359.87,-43.3 363.08,-37.08"/>
<text text-anchor="middle" x="418.34" y="-57.8" font-family="Times,serif" font-size="14.00">1</text>
</g>
</g>
</svg>
