<?xml version="1.0" encoding="UTF-8" standalone="no"?>
<!DOCTYPE svg PUBLIC "-//W3C//DTD SVG 1.1//EN"
 "http://www.w3.org/Graphics/SVG/1.1/DTD/svg11.dtd">
<!-- Generated by graphviz version 2.43.0 (0)
 -->
<!-- Title: func_35000_8017B6FC Pages: 1 -->
<svg width="1122pt" height="131pt"
 viewBox="0.00 0.00 1122.17 131.00" xmlns="http://www.w3.org/2000/svg" xmlns:xlink="http://www.w3.org/1999/xlink">
<g id="graph0" class="graph" transform="scale(1 1) rotate(0) translate(4 127)">
<title>func_35000_8017B6FC</title>
<polygon fill="white" stroke="transparent" points="-4,4 -4,-127 1118.17,-127 1118.17,4 -4,4"/>
<!-- weapon/func_35000_8017B6FC -->
<g id="node1" class="node">
<title>weapon/func_35000_8017B6FC</title>
<ellipse fill="red" stroke="black" cx="507.19" cy="-105" rx="156.77" ry="18"/>
<text text-anchor="middle" x="507.19" y="-101.3" font-family="Times,serif" font-size="14.00">weapon/func_35000_8017B6FC</text>
</g>
<!-- weapon/g_api_AllocPrimitives -->
<g id="node2" class="node">
<title>weapon/g_api_AllocPrimitives</title>
<g id="a_node2"><a xlink:href="g_api_AllocPrimitives.svg" xlink:title="weapon/g_api_AllocPrimitives">
<ellipse fill="lightblue" stroke="black" cx="148.19" cy="-18" rx="148.37" ry="18"/>
<text text-anchor="middle" x="148.19" y="-14.3" font-family="Times,serif" font-size="14.00">weapon/g_api_AllocPrimitives</text>
</a>
</g>
</g>
<!-- weapon/func_35000_8017B6FC&#45;&gt;weapon/g_api_AllocPrimitives -->
<g id="edge1" class="edge">
<title>weapon/func_35000_8017B6FC&#45;&gt;weapon/g_api_AllocPrimitives</title>
<path fill="none" stroke="black" d="M442.17,-88.61C380.29,-73.95 287.24,-51.92 222.46,-36.59"/>
<polygon fill="black" stroke="black" points="223.25,-33.18 212.72,-34.28 221.64,-39.99 223.25,-33.18"/>
<text text-anchor="middle" x="354.19" y="-57.8" font-family="Times,serif" font-size="14.00">1</text>
</g>
<!-- weapon/rand -->
<g id="node3" class="node">
<title>weapon/rand</title>
<g id="a_node3"><a xlink:href="rand.svg" xlink:title="weapon/rand">
<ellipse fill="lightblue" stroke="black" cx="385.19" cy="-18" rx="70.69" ry="18"/>
<text text-anchor="middle" x="385.19" y="-14.3" font-family="Times,serif" font-size="14.00">weapon/rand</text>
</a>
</g>
</g>
<!-- weapon/func_35000_8017B6FC&#45;&gt;weapon/rand -->
<g id="edge2" class="edge">
<title>weapon/func_35000_8017B6FC&#45;&gt;weapon/rand</title>
<path fill="none" stroke="black" d="M483.08,-87.21C464.13,-74 437.55,-55.48 416.87,-41.08"/>
<polygon fill="black" stroke="black" points="418.62,-38.03 408.41,-35.18 414.62,-43.77 418.62,-38.03"/>
<text text-anchor="middle" x="459.19" y="-57.8" font-family="Times,serif" font-size="14.00">2</text>
</g>
<!-- weapon/func_35000_8017B604 -->
<g id="node4" class="node">
<title>weapon/func_35000_8017B604</title>
<g id="a_node4"><a xlink:href="func_35000_8017B604.svg" xlink:title="weapon/func_35000_8017B604">
<ellipse fill="red" stroke="black" cx="629.19" cy="-18" rx="155.17" ry="18"/>
<text text-anchor="middle" x="629.19" y="-14.3" font-family="Times,serif" font-size="14.00">weapon/func_35000_8017B604</text>
</a>
</g>
</g>
<!-- weapon/func_35000_8017B6FC&#45;&gt;weapon/func_35000_8017B604 -->
<g id="edge3" class="edge">
<title>weapon/func_35000_8017B6FC&#45;&gt;weapon/func_35000_8017B604</title>
<path fill="none" stroke="black" d="M531.29,-87.21C549.88,-74.25 575.8,-56.19 596.3,-41.91"/>
<polygon fill="black" stroke="black" points="598.51,-44.64 604.72,-36.05 594.51,-38.89 598.51,-44.64"/>
<text text-anchor="middle" x="581.19" y="-57.8" font-family="Times,serif" font-size="14.00">2</text>
</g>
<!-- weapon/func_35000_8017ACA0 -->
<g id="node5" class="node">
<title>weapon/func_35000_8017ACA0</title>
<g id="a_node5"><a xlink:href="func_35000_8017ACA0.svg" xlink:title="weapon/func_35000_8017ACA0">
<ellipse fill="red" stroke="black" cx="958.19" cy="-18" rx="155.97" ry="18"/>
<text text-anchor="middle" x="958.19" y="-14.3" font-family="Times,serif" font-size="14.00">weapon/func_35000_8017ACA0</text>
</a>
</g>
</g>
<!-- weapon/func_35000_8017B6FC&#45;&gt;weapon/func_35000_8017ACA0 -->
<g id="edge4" class="edge">
<title>weapon/func_35000_8017B6FC&#45;&gt;weapon/func_35000_8017ACA0</title>
<path fill="none" stroke="black" d="M584.97,-89.34C664.39,-74.37 787.47,-51.18 870.35,-35.55"/>
<polygon fill="black" stroke="black" points="871.07,-38.98 880.25,-33.69 869.78,-32.1 871.07,-38.98"/>
<text text-anchor="middle" x="765.19" y="-57.8" font-family="Times,serif" font-size="14.00">1</text>
</g>
</g>
</svg>
