<?xml version="1.0" encoding="UTF-8" standalone="no"?>
<!DOCTYPE svg PUBLIC "-//W3C//DTD SVG 1.1//EN"
 "http://www.w3.org/Graphics/SVG/1.1/DTD/svg11.dtd">
<!-- Generated by graphviz version 2.43.0 (0)
 -->
<!-- Title: func_801027C4 Pages: 1 -->
<svg width="655pt" height="131pt"
 viewBox="0.00 0.00 654.78 131.00" xmlns="http://www.w3.org/2000/svg" xmlns:xlink="http://www.w3.org/1999/xlink">
<g id="graph0" class="graph" transform="scale(1 1) rotate(0) translate(4 127)">
<title>func_801027C4</title>
<polygon fill="white" stroke="transparent" points="-4,4 -4,-127 650.78,-127 650.78,4 -4,4"/>
<!-- dra/func_801027C4 -->
<g id="node1" class="node">
<title>dra/func_801027C4</title>
<ellipse fill="green" stroke="black" cx="325.04" cy="-18" rx="101.28" ry="18"/>
<text text-anchor="middle" x="325.04" y="-14.3" font-family="Times,serif" font-size="14.00">dra/func_801027C4</text>
</g>
<!-- dra/func_800F298C -->
<g id="node2" class="node">
<title>dra/func_800F298C</title>
<g id="a_node2"><a xlink:href="func_800F298C.svg" xlink:title="dra/func_800F298C">
<ellipse fill="red" stroke="black" cx="102.04" cy="-105" rx="102.08" ry="18"/>
<text text-anchor="middle" x="102.04" y="-101.3" font-family="Times,serif" font-size="14.00">dra/func_800F298C</text>
</a>
</g>
</g>
<!-- dra/func_800F298C&#45;&gt;dra/func_801027C4 -->
<g id="edge1" class="edge">
<title>dra/func_800F298C&#45;&gt;dra/func_801027C4</title>
<path fill="none" stroke="black" d="M142.94,-88.41C180.11,-74.24 235.07,-53.29 274.88,-38.12"/>
<polygon fill="black" stroke="black" points="276.3,-41.32 284.4,-34.49 273.81,-34.78 276.3,-41.32"/>
<text text-anchor="middle" x="232.04" y="-57.8" font-family="Times,serif" font-size="14.00">6</text>
</g>
<!-- dra/func_800FBC24 -->
<g id="node3" class="node">
<title>dra/func_800FBC24</title>
<g id="a_node3"><a xlink:href="func_800FBC24.svg" xlink:title="dra/func_800FBC24">
<ellipse fill="red" stroke="black" cx="325.04" cy="-105" rx="102.88" ry="18"/>
<text text-anchor="middle" x="325.04" y="-101.3" font-family="Times,serif" font-size="14.00">dra/func_800FBC24</text>
</a>
</g>
</g>
<!-- dra/func_800FBC24&#45;&gt;dra/func_801027C4 -->
<g id="edge2" class="edge">
<title>dra/func_800FBC24&#45;&gt;dra/func_801027C4</title>
<path fill="none" stroke="black" d="M325.04,-86.8C325.04,-75.16 325.04,-59.55 325.04,-46.24"/>
<polygon fill="black" stroke="black" points="328.54,-46.18 325.04,-36.18 321.54,-46.18 328.54,-46.18"/>
<text text-anchor="middle" x="330.04" y="-57.8" font-family="Times,serif" font-size="14.00">4</text>
</g>
<!-- dra/func_80105428 -->
<g id="node4" class="node">
<title>dra/func_80105428</title>
<g id="a_node4"><a xlink:href="func_80105428.svg" xlink:title="dra/func_80105428">
<ellipse fill="red" stroke="black" cx="546.04" cy="-105" rx="100.98" ry="18"/>
<text text-anchor="middle" x="546.04" y="-101.3" font-family="Times,serif" font-size="14.00">dra/func_80105428</text>
</a>
</g>
</g>
<!-- dra/func_80105428&#45;&gt;dra/func_801027C4 -->
<g id="edge3" class="edge">
<title>dra/func_80105428&#45;&gt;dra/func_801027C4</title>
<path fill="none" stroke="black" d="M505.51,-88.41C468.86,-74.32 414.78,-53.51 375.37,-38.36"/>
<polygon fill="black" stroke="black" points="376.28,-34.96 365.69,-34.64 373.77,-41.49 376.28,-34.96"/>
<text text-anchor="middle" x="454.04" y="-57.8" font-family="Times,serif" font-size="14.00">1</text>
</g>
</g>
</svg>
