<?xml version="1.0" encoding="UTF-8" standalone="no"?>
<!DOCTYPE svg PUBLIC "-//W3C//DTD SVG 1.1//EN"
 "http://www.w3.org/Graphics/SVG/1.1/DTD/svg11.dtd">
<!-- Generated by graphviz version 2.43.0 (0)
 -->
<!-- Title: func_801B80F0 Pages: 1 -->
<svg width="866pt" height="131pt"
 viewBox="0.00 0.00 865.63 131.00" xmlns="http://www.w3.org/2000/svg" xmlns:xlink="http://www.w3.org/1999/xlink">
<g id="graph0" class="graph" transform="scale(1 1) rotate(0) translate(4 127)">
<title>func_801B80F0</title>
<polygon fill="white" stroke="transparent" points="-4,4 -4,-127 861.63,-127 861.63,4 -4,4"/>
<!-- sel/func_801B80F0 -->
<g id="node1" class="node">
<title>sel/func_801B80F0</title>
<ellipse fill="green" stroke="black" cx="446.19" cy="-105" rx="99.38" ry="18"/>
<text text-anchor="middle" x="446.19" y="-101.3" font-family="Times,serif" font-size="14.00">sel/func_801B80F0</text>
</g>
<!-- sel/EnterCriticalSection -->
<g id="node2" class="node">
<title>sel/EnterCriticalSection</title>
<g id="a_node2"><a xlink:href="EnterCriticalSection.svg" xlink:title="sel/EnterCriticalSection">
<ellipse fill="lightblue" stroke="black" cx="122.19" cy="-18" rx="122.38" ry="18"/>
<text text-anchor="middle" x="122.19" y="-14.3" font-family="Times,serif" font-size="14.00">sel/EnterCriticalSection</text>
</a>
</g>
</g>
<!-- sel/func_801B80F0&#45;&gt;sel/EnterCriticalSection -->
<g id="edge1" class="edge">
<title>sel/func_801B80F0&#45;&gt;sel/EnterCriticalSection</title>
<path fill="none" stroke="black" d="M392.32,-89.87C336.5,-75.22 249.15,-52.31 188.97,-36.52"/>
<polygon fill="black" stroke="black" points="189.75,-33.1 179.18,-33.95 187.97,-39.88 189.75,-33.1"/>
<text text-anchor="middle" x="309.19" y="-57.8" font-family="Times,serif" font-size="14.00">1</text>
</g>
<!-- sel/OpenEvent -->
<g id="node3" class="node">
<title>sel/OpenEvent</title>
<g id="a_node3"><a xlink:href="OpenEvent.svg" xlink:title="sel/OpenEvent">
<ellipse fill="lightblue" stroke="black" cx="341.19" cy="-18" rx="78.79" ry="18"/>
<text text-anchor="middle" x="341.19" y="-14.3" font-family="Times,serif" font-size="14.00">sel/OpenEvent</text>
</a>
</g>
</g>
<!-- sel/func_801B80F0&#45;&gt;sel/OpenEvent -->
<g id="edge2" class="edge">
<title>sel/func_801B80F0&#45;&gt;sel/OpenEvent</title>
<path fill="none" stroke="black" d="M425.44,-87.21C409.52,-74.32 387.36,-56.38 369.76,-42.13"/>
<polygon fill="black" stroke="black" points="371.51,-39.04 361.53,-35.47 367.1,-44.48 371.51,-39.04"/>
<text text-anchor="middle" x="405.19" y="-57.8" font-family="Times,serif" font-size="14.00">8</text>
</g>
<!-- sel/ExitCriticalSection -->
<g id="node4" class="node">
<title>sel/ExitCriticalSection</title>
<g id="a_node4"><a xlink:href="ExitCriticalSection.svg" xlink:title="sel/ExitCriticalSection">
<ellipse fill="lightblue" stroke="black" cx="552.19" cy="-18" rx="114.28" ry="18"/>
<text text-anchor="middle" x="552.19" y="-14.3" font-family="Times,serif" font-size="14.00">sel/ExitCriticalSection</text>
</a>
</g>
</g>
<!-- sel/func_801B80F0&#45;&gt;sel/ExitCriticalSection -->
<g id="edge3" class="edge">
<title>sel/func_801B80F0&#45;&gt;sel/ExitCriticalSection</title>
<path fill="none" stroke="black" d="M467.13,-87.21C483.25,-74.28 505.7,-56.28 523.48,-42.02"/>
<polygon fill="black" stroke="black" points="525.68,-44.74 531.29,-35.76 521.3,-39.28 525.68,-44.74"/>
<text text-anchor="middle" x="511.19" y="-57.8" font-family="Times,serif" font-size="14.00">1</text>
</g>
<!-- sel/EnableEvent -->
<g id="node5" class="node">
<title>sel/EnableEvent</title>
<g id="a_node5"><a xlink:href="EnableEvent.svg" xlink:title="sel/EnableEvent">
<ellipse fill="lightblue" stroke="black" cx="771.19" cy="-18" rx="86.38" ry="18"/>
<text text-anchor="middle" x="771.19" y="-14.3" font-family="Times,serif" font-size="14.00">sel/EnableEvent</text>
</a>
</g>
</g>
<!-- sel/func_801B80F0&#45;&gt;sel/EnableEvent -->
<g id="edge4" class="edge">
<title>sel/func_801B80F0&#45;&gt;sel/EnableEvent</title>
<path fill="none" stroke="black" d="M500.22,-89.87C558.01,-74.75 649.49,-50.83 709.92,-35.02"/>
<polygon fill="black" stroke="black" points="710.92,-38.38 719.71,-32.46 709.15,-31.61 710.92,-38.38"/>
<text text-anchor="middle" x="633.19" y="-57.8" font-family="Times,serif" font-size="14.00">8</text>
</g>
</g>
</svg>
