<?xml version="1.0" encoding="UTF-8" standalone="no"?>
<!DOCTYPE svg PUBLIC "-//W3C//DTD SVG 1.1//EN"
 "http://www.w3.org/Graphics/SVG/1.1/DTD/svg11.dtd">
<!-- Generated by graphviz version 2.43.0 (0)
 -->
<!-- Title: func_8018D6B0 Pages: 1 -->
<svg width="1634pt" height="131pt"
 viewBox="0.00 0.00 1634.03 131.00" xmlns="http://www.w3.org/2000/svg" xmlns:xlink="http://www.w3.org/1999/xlink">
<g id="graph0" class="graph" transform="scale(1 1) rotate(0) translate(4 127)">
<title>func_8018D6B0</title>
<polygon fill="white" stroke="transparent" points="-4,4 -4,-127 1630.03,-127 1630.03,4 -4,4"/>
<!-- rwrp/func_8018D6B0 -->
<g id="node1" class="node">
<title>rwrp/func_8018D6B0</title>
<ellipse fill="red" stroke="black" cx="813.49" cy="-18" rx="109.68" ry="18"/>
<text text-anchor="middle" x="813.49" y="-14.3" font-family="Times,serif" font-size="14.00">rwrp/func_8018D6B0</text>
</g>
<!-- rwrp/func_80194DD4 -->
<g id="node2" class="node">
<title>rwrp/func_80194DD4</title>
<g id="a_node2"><a xlink:href="func_80194DD4.svg" xlink:title="rwrp/func_80194DD4">
<ellipse fill="green" stroke="black" cx="110.49" cy="-105" rx="110.48" ry="18"/>
<text text-anchor="middle" x="110.49" y="-101.3" font-family="Times,serif" font-size="14.00">rwrp/func_80194DD4</text>
</a>
</g>
</g>
<!-- rwrp/func_80194DD4&#45;&gt;rwrp/func_8018D6B0 -->
<g id="edge1" class="edge">
<title>rwrp/func_80194DD4&#45;&gt;rwrp/func_8018D6B0</title>
<path fill="none" stroke="black" d="M189.82,-92.37C203.06,-90.52 216.66,-88.66 229.49,-87 399.65,-64.94 598.15,-42.53 714.4,-29.74"/>
<polygon fill="black" stroke="black" points="714.8,-33.22 724.36,-28.65 714.03,-26.26 714.8,-33.22"/>
<text text-anchor="middle" x="491.49" y="-57.8" font-family="Times,serif" font-size="14.00">1</text>
</g>
<!-- rwrp/func_8018EFA0 -->
<g id="node3" class="node">
<title>rwrp/func_8018EFA0</title>
<g id="a_node3"><a xlink:href="func_8018EFA0.svg" xlink:title="rwrp/func_8018EFA0">
<ellipse fill="red" stroke="black" cx="347.49" cy="-105" rx="108.58" ry="18"/>
<text text-anchor="middle" x="347.49" y="-101.3" font-family="Times,serif" font-size="14.00">rwrp/func_8018EFA0</text>
</a>
</g>
</g>
<!-- rwrp/func_8018EFA0&#45;&gt;rwrp/func_8018D6B0 -->
<g id="edge2" class="edge">
<title>rwrp/func_8018EFA0&#45;&gt;rwrp/func_8018D6B0</title>
<path fill="none" stroke="black" d="M417.51,-91.23C502.03,-75.81 643.9,-49.93 732.9,-33.7"/>
<polygon fill="black" stroke="black" points="733.74,-37.1 742.95,-31.87 732.48,-30.22 733.74,-37.1"/>
<text text-anchor="middle" x="613.49" y="-57.8" font-family="Times,serif" font-size="14.00">1</text>
</g>
<!-- rwrp/func_80192594 -->
<g id="node4" class="node">
<title>rwrp/func_80192594</title>
<g id="a_node4"><a xlink:href="func_80192594.svg" xlink:title="rwrp/func_80192594">
<ellipse fill="red" stroke="black" cx="581.49" cy="-105" rx="107.48" ry="18"/>
<text text-anchor="middle" x="581.49" y="-101.3" font-family="Times,serif" font-size="14.00">rwrp/func_80192594</text>
</a>
</g>
</g>
<!-- rwrp/func_80192594&#45;&gt;rwrp/func_8018D6B0 -->
<g id="edge3" class="edge">
<title>rwrp/func_80192594&#45;&gt;rwrp/func_8018D6B0</title>
<path fill="none" stroke="black" d="M624.04,-88.41C662.67,-74.26 719.77,-53.34 761.18,-38.17"/>
<polygon fill="black" stroke="black" points="762.63,-41.36 770.82,-34.64 760.22,-34.79 762.63,-41.36"/>
<text text-anchor="middle" x="716.49" y="-57.8" font-family="Times,serif" font-size="14.00">1</text>
</g>
<!-- rwrp/func_80192348 -->
<g id="node5" class="node">
<title>rwrp/func_80192348</title>
<g id="a_node5"><a xlink:href="func_80192348.svg" xlink:title="rwrp/func_80192348">
<ellipse fill="red" stroke="black" cx="813.49" cy="-105" rx="107.48" ry="18"/>
<text text-anchor="middle" x="813.49" y="-101.3" font-family="Times,serif" font-size="14.00">rwrp/func_80192348</text>
</a>
</g>
</g>
<!-- rwrp/func_80192348&#45;&gt;rwrp/func_8018D6B0 -->
<g id="edge4" class="edge">
<title>rwrp/func_80192348&#45;&gt;rwrp/func_8018D6B0</title>
<path fill="none" stroke="black" d="M813.49,-86.8C813.49,-75.16 813.49,-59.55 813.49,-46.24"/>
<polygon fill="black" stroke="black" points="816.99,-46.18 813.49,-36.18 809.99,-46.18 816.99,-46.18"/>
<text text-anchor="middle" x="818.49" y="-57.8" font-family="Times,serif" font-size="14.00">1</text>
</g>
<!-- rwrp/func_8018F814 -->
<g id="node6" class="node">
<title>rwrp/func_8018F814</title>
<g id="a_node6"><a xlink:href="func_8018F814.svg" xlink:title="rwrp/func_8018F814">
<ellipse fill="red" stroke="black" cx="1046.49" cy="-105" rx="107.78" ry="18"/>
<text text-anchor="middle" x="1046.49" y="-101.3" font-family="Times,serif" font-size="14.00">rwrp/func_8018F814</text>
</a>
</g>
</g>
<!-- rwrp/func_8018F814&#45;&gt;rwrp/func_8018D6B0 -->
<g id="edge5" class="edge">
<title>rwrp/func_8018F814&#45;&gt;rwrp/func_8018D6B0</title>
<path fill="none" stroke="black" d="M1003.75,-88.41C964.87,-74.23 907.37,-53.25 865.77,-38.07"/>
<polygon fill="black" stroke="black" points="866.94,-34.77 856.35,-34.64 864.54,-41.35 866.94,-34.77"/>
<text text-anchor="middle" x="949.49" y="-57.8" font-family="Times,serif" font-size="14.00">1</text>
</g>
<!-- rwrp/func_80188DF0 -->
<g id="node7" class="node">
<title>rwrp/func_80188DF0</title>
<g id="a_node7"><a xlink:href="func_80188DF0.svg" xlink:title="rwrp/func_80188DF0">
<ellipse fill="red" stroke="black" cx="1281.49" cy="-105" rx="109.38" ry="18"/>
<text text-anchor="middle" x="1281.49" y="-101.3" font-family="Times,serif" font-size="14.00">rwrp/func_80188DF0</text>
</a>
</g>
</g>
<!-- rwrp/func_80188DF0&#45;&gt;rwrp/func_8018D6B0 -->
<g id="edge6" class="edge">
<title>rwrp/func_80188DF0&#45;&gt;rwrp/func_8018D6B0</title>
<path fill="none" stroke="black" d="M1211.17,-91.23C1126.28,-75.81 983.81,-49.93 894.43,-33.7"/>
<polygon fill="black" stroke="black" points="894.8,-30.21 884.33,-31.87 893.55,-37.1 894.8,-30.21"/>
<text text-anchor="middle" x="1081.49" y="-57.8" font-family="Times,serif" font-size="14.00">1</text>
</g>
<!-- rwrp/func_8018908C -->
<g id="node8" class="node">
<title>rwrp/func_8018908C</title>
<g id="a_node8"><a xlink:href="func_8018908C.svg" xlink:title="rwrp/func_8018908C">
<ellipse fill="red" stroke="black" cx="1517.49" cy="-105" rx="108.58" ry="18"/>
<text text-anchor="middle" x="1517.49" y="-101.3" font-family="Times,serif" font-size="14.00">rwrp/func_8018908C</text>
</a>
</g>
</g>
<!-- rwrp/func_8018908C&#45;&gt;rwrp/func_8018D6B0 -->
<g id="edge7" class="edge">
<title>rwrp/func_8018908C&#45;&gt;rwrp/func_8018D6B0</title>
<path fill="none" stroke="black" d="M1439.46,-92.45C1426.13,-90.56 1412.42,-88.68 1399.49,-87 1228.76,-64.8 1029.58,-42.43 912.92,-29.69"/>
<polygon fill="black" stroke="black" points="913.26,-26.21 902.93,-28.6 912.5,-33.17 913.26,-26.21"/>
<text text-anchor="middle" x="1260.49" y="-57.8" font-family="Times,serif" font-size="14.00">1</text>
</g>
</g>
</svg>
