<?xml version="1.0" encoding="UTF-8" standalone="no"?>
<!DOCTYPE svg PUBLIC "-//W3C//DTD SVG 1.1//EN"
 "http://www.w3.org/Graphics/SVG/1.1/DTD/svg11.dtd">
<!-- Generated by graphviz version 2.43.0 (0)
 -->
<!-- Title: func_801B27A8 Pages: 1 -->
<svg width="1324pt" height="218pt"
 viewBox="0.00 0.00 1323.83 218.00" xmlns="http://www.w3.org/2000/svg" xmlns:xlink="http://www.w3.org/1999/xlink">
<g id="graph0" class="graph" transform="scale(1 1) rotate(0) translate(4 214)">
<title>func_801B27A8</title>
<polygon fill="white" stroke="transparent" points="-4,4 -4,-214 1319.83,-214 1319.83,4 -4,4"/>
<!-- sel/func_801B27A8 -->
<g id="node1" class="node">
<title>sel/func_801B27A8</title>
<ellipse fill="red" stroke="black" cx="652.74" cy="-105" rx="99.38" ry="18"/>
<text text-anchor="middle" x="652.74" y="-101.3" font-family="Times,serif" font-size="14.00">sel/func_801B27A8</text>
</g>
<!-- sel/SetSemiTrans -->
<g id="node2" class="node">
<title>sel/SetSemiTrans</title>
<g id="a_node2"><a xlink:href="SetSemiTrans.svg" xlink:title="sel/SetSemiTrans">
<ellipse fill="lightblue" stroke="black" cx="369.74" cy="-18" rx="92.08" ry="18"/>
<text text-anchor="middle" x="369.74" y="-14.3" font-family="Times,serif" font-size="14.00">sel/SetSemiTrans</text>
</a>
</g>
</g>
<!-- sel/func_801B27A8&#45;&gt;sel/SetSemiTrans -->
<g id="edge1" class="edge">
<title>sel/func_801B27A8&#45;&gt;sel/SetSemiTrans</title>
<path fill="none" stroke="black" d="M603.77,-89.29C554.72,-74.56 479.27,-51.9 427.37,-36.31"/>
<polygon fill="black" stroke="black" points="428.23,-32.91 417.64,-33.39 426.21,-39.62 428.23,-32.91"/>
<text text-anchor="middle" x="533.74" y="-57.8" font-family="Times,serif" font-size="14.00">1</text>
</g>
<!-- sel/SetShadeTex -->
<g id="node3" class="node">
<title>sel/SetShadeTex</title>
<g id="a_node3"><a xlink:href="SetShadeTex.svg" xlink:title="sel/SetShadeTex">
<ellipse fill="lightblue" stroke="black" cx="566.74" cy="-18" rx="87.18" ry="18"/>
<text text-anchor="middle" x="566.74" y="-14.3" font-family="Times,serif" font-size="14.00">sel/SetShadeTex</text>
</a>
</g>
</g>
<!-- sel/func_801B27A8&#45;&gt;sel/SetShadeTex -->
<g id="edge2" class="edge">
<title>sel/func_801B27A8&#45;&gt;sel/SetShadeTex</title>
<path fill="none" stroke="black" d="M635.75,-87.21C622.91,-74.52 605.12,-56.93 590.81,-42.79"/>
<polygon fill="black" stroke="black" points="593.27,-40.3 583.7,-35.76 588.35,-45.28 593.27,-40.3"/>
<text text-anchor="middle" x="620.74" y="-57.8" font-family="Times,serif" font-size="14.00">1</text>
</g>
<!-- sel/AddPrim -->
<g id="node4" class="node">
<title>sel/AddPrim</title>
<g id="a_node4"><a xlink:href="AddPrim.svg" xlink:title="sel/AddPrim">
<ellipse fill="lightblue" stroke="black" cx="739.74" cy="-18" rx="67.69" ry="18"/>
<text text-anchor="middle" x="739.74" y="-14.3" font-family="Times,serif" font-size="14.00">sel/AddPrim</text>
</a>
</g>
</g>
<!-- sel/func_801B27A8&#45;&gt;sel/AddPrim -->
<g id="edge3" class="edge">
<title>sel/func_801B27A8&#45;&gt;sel/AddPrim</title>
<path fill="none" stroke="black" d="M669.93,-87.21C683,-74.43 701.15,-56.7 715.67,-42.52"/>
<polygon fill="black" stroke="black" points="718.18,-44.96 722.88,-35.47 713.29,-39.95 718.18,-44.96"/>
<text text-anchor="middle" x="706.74" y="-57.8" font-family="Times,serif" font-size="14.00">1</text>
</g>
<!-- sel/func_801B2700 -->
<g id="node5" class="node">
<title>sel/func_801B2700</title>
<g id="a_node5"><a xlink:href="func_801B2700.svg" xlink:title="sel/func_801B2700">
<ellipse fill="red" stroke="black" cx="923.74" cy="-18" rx="98.58" ry="18"/>
<text text-anchor="middle" x="923.74" y="-14.3" font-family="Times,serif" font-size="14.00">sel/func_801B2700</text>
</a>
</g>
</g>
<!-- sel/func_801B27A8&#45;&gt;sel/func_801B2700 -->
<g id="edge4" class="edge">
<title>sel/func_801B27A8&#45;&gt;sel/func_801B2700</title>
<path fill="none" stroke="black" d="M700.26,-89.1C746.65,-74.55 817.29,-52.39 866.7,-36.89"/>
<polygon fill="black" stroke="black" points="867.79,-40.22 876.28,-33.89 865.69,-33.54 867.79,-40.22"/>
<text text-anchor="middle" x="809.74" y="-57.8" font-family="Times,serif" font-size="14.00">1</text>
</g>
<!-- sel/func_801AE6D0 -->
<g id="node6" class="node">
<title>sel/func_801AE6D0</title>
<g id="a_node6"><a xlink:href="func_801AE6D0.svg" xlink:title="sel/func_801AE6D0">
<ellipse fill="red" stroke="black" cx="100.74" cy="-192" rx="100.98" ry="18"/>
<text text-anchor="middle" x="100.74" y="-188.3" font-family="Times,serif" font-size="14.00">sel/func_801AE6D0</text>
</a>
</g>
</g>
<!-- sel/func_801AE6D0&#45;&gt;sel/func_801B27A8 -->
<g id="edge5" class="edge">
<title>sel/func_801AE6D0&#45;&gt;sel/func_801B27A8</title>
<path fill="none" stroke="black" d="M173.73,-179.59C185.76,-177.72 198.1,-175.8 209.74,-174 335.06,-154.61 480.35,-132.35 569.4,-118.73"/>
<polygon fill="black" stroke="black" points="570.09,-122.17 579.44,-117.2 569.03,-115.25 570.09,-122.17"/>
<text text-anchor="middle" x="421.74" y="-144.8" font-family="Times,serif" font-size="14.00">1</text>
</g>
<!-- sel/func_801B2A9C -->
<g id="node7" class="node">
<title>sel/func_801B2A9C</title>
<g id="a_node7"><a xlink:href="func_801B2A9C.svg" xlink:title="sel/func_801B2A9C">
<ellipse fill="green" stroke="black" cx="319.74" cy="-192" rx="100.98" ry="18"/>
<text text-anchor="middle" x="319.74" y="-188.3" font-family="Times,serif" font-size="14.00">sel/func_801B2A9C</text>
</a>
</g>
</g>
<!-- sel/func_801B2A9C&#45;&gt;sel/func_801B27A8 -->
<g id="edge6" class="edge">
<title>sel/func_801B2A9C&#45;&gt;sel/func_801B27A8</title>
<path fill="none" stroke="black" d="M375.1,-176.87C433.62,-161.93 525.83,-138.39 587.75,-122.59"/>
<polygon fill="black" stroke="black" points="588.98,-125.89 597.8,-120.02 587.25,-119.11 588.98,-125.89"/>
<text text-anchor="middle" x="511.74" y="-144.8" font-family="Times,serif" font-size="14.00">1</text>
</g>
<!-- sel/func_801B28D4 -->
<g id="node8" class="node">
<title>sel/func_801B28D4</title>
<g id="a_node8"><a xlink:href="func_801B28D4.svg" xlink:title="sel/func_801B28D4">
<ellipse fill="green" stroke="black" cx="538.74" cy="-192" rx="100.98" ry="18"/>
<text text-anchor="middle" x="538.74" y="-188.3" font-family="Times,serif" font-size="14.00">sel/func_801B28D4</text>
</a>
</g>
</g>
<!-- sel/func_801B28D4&#45;&gt;sel/func_801B27A8 -->
<g id="edge7" class="edge">
<title>sel/func_801B28D4&#45;&gt;sel/func_801B27A8</title>
<path fill="none" stroke="black" d="M560.99,-174.41C578.49,-161.36 603.05,-143.05 622.36,-128.65"/>
<polygon fill="black" stroke="black" points="624.62,-131.33 630.55,-122.55 620.44,-125.72 624.62,-131.33"/>
<text text-anchor="middle" x="607.74" y="-144.8" font-family="Times,serif" font-size="14.00">1</text>
</g>
<!-- sel/DrawString16x16 -->
<g id="node9" class="node">
<title>sel/DrawString16x16</title>
<g id="a_node9"><a xlink:href="DrawString16x16.svg" xlink:title="sel/DrawString16x16">
<ellipse fill="red" stroke="black" cx="767.74" cy="-192" rx="109.68" ry="18"/>
<text text-anchor="middle" x="767.74" y="-188.3" font-family="Times,serif" font-size="14.00">sel/DrawString16x16</text>
</a>
</g>
</g>
<!-- sel/DrawString16x16&#45;&gt;sel/func_801B27A8 -->
<g id="edge8" class="edge">
<title>sel/DrawString16x16&#45;&gt;sel/func_801B27A8</title>
<path fill="none" stroke="black" d="M745.02,-174.21C727.46,-161.23 702.96,-143.12 683.62,-128.83"/>
<polygon fill="black" stroke="black" points="685.54,-125.89 675.41,-122.76 681.38,-131.52 685.54,-125.89"/>
<text text-anchor="middle" x="722.74" y="-144.8" font-family="Times,serif" font-size="14.00">1</text>
</g>
<!-- sel/func_801ADF94 -->
<g id="node10" class="node">
<title>sel/func_801ADF94</title>
<g id="a_node10"><a xlink:href="func_801ADF94.svg" xlink:title="sel/func_801ADF94">
<ellipse fill="red" stroke="black" cx="996.74" cy="-192" rx="100.98" ry="18"/>
<text text-anchor="middle" x="996.74" y="-188.3" font-family="Times,serif" font-size="14.00">sel/func_801ADF94</text>
</a>
</g>
</g>
<!-- sel/func_801ADF94&#45;&gt;sel/func_801B27A8 -->
<g id="edge9" class="edge">
<title>sel/func_801ADF94&#45;&gt;sel/func_801B27A8</title>
<path fill="none" stroke="black" d="M940.32,-177.06C879.62,-162.06 783.17,-138.23 718.93,-122.35"/>
<polygon fill="black" stroke="black" points="719.45,-118.88 708.91,-119.88 717.77,-125.67 719.45,-118.88"/>
<text text-anchor="middle" x="850.74" y="-144.8" font-family="Times,serif" font-size="14.00">4</text>
</g>
<!-- sel/func_801B2B78 -->
<g id="node11" class="node">
<title>sel/func_801B2B78</title>
<g id="a_node11"><a xlink:href="func_801B2B78.svg" xlink:title="sel/func_801B2B78">
<ellipse fill="green" stroke="black" cx="1215.74" cy="-192" rx="100.18" ry="18"/>
<text text-anchor="middle" x="1215.74" y="-188.3" font-family="Times,serif" font-size="14.00">sel/func_801B2B78</text>
</a>
</g>
</g>
<!-- sel/func_801B2B78&#45;&gt;sel/func_801B27A8 -->
<g id="edge10" class="edge">
<title>sel/func_801B2B78&#45;&gt;sel/func_801B27A8</title>
<path fill="none" stroke="black" d="M1143.05,-179.6C1130.93,-177.72 1118.48,-175.79 1106.74,-174 977.84,-154.29 828.25,-132 737.08,-118.48"/>
<polygon fill="black" stroke="black" points="737.48,-115 727.08,-116.99 736.46,-121.92 737.48,-115"/>
<text text-anchor="middle" x="987.74" y="-144.8" font-family="Times,serif" font-size="14.00">1</text>
</g>
</g>
</svg>
