<?xml version="1.0" encoding="UTF-8" standalone="no"?>
<!DOCTYPE svg PUBLIC "-//W3C//DTD SVG 1.1//EN"
 "http://www.w3.org/Graphics/SVG/1.1/DTD/svg11.dtd">
<!-- Generated by graphviz version 2.43.0 (0)
 -->
<!-- Title: func_8015AFE0 Pages: 1 -->
<svg width="408pt" height="218pt"
 viewBox="0.00 0.00 408.08 218.00" xmlns="http://www.w3.org/2000/svg" xmlns:xlink="http://www.w3.org/1999/xlink">
<g id="graph0" class="graph" transform="scale(1 1) rotate(0) translate(4 214)">
<title>func_8015AFE0</title>
<polygon fill="white" stroke="transparent" points="-4,4 -4,-214 404.08,-214 404.08,4 -4,4"/>
<!-- ric/func_8015AFE0 -->
<g id="node1" class="node">
<title>ric/func_8015AFE0</title>
<ellipse fill="green" stroke="black" cx="196.94" cy="-105" rx="98.58" ry="18"/>
<text text-anchor="middle" x="196.94" y="-101.3" font-family="Times,serif" font-size="14.00">ric/func_8015AFE0</text>
</g>
<!-- ric/SetPlayerStep -->
<g id="node2" class="node">
<title>ric/SetPlayerStep</title>
<g id="a_node2"><a xlink:href="SetPlayerStep.svg" xlink:title="ric/SetPlayerStep">
<ellipse fill="green" stroke="black" cx="92.94" cy="-18" rx="92.88" ry="18"/>
<text text-anchor="middle" x="92.94" y="-14.3" font-family="Times,serif" font-size="14.00">ric/SetPlayerStep</text>
</a>
</g>
</g>
<!-- ric/func_8015AFE0&#45;&gt;ric/SetPlayerStep -->
<g id="edge1" class="edge">
<title>ric/func_8015AFE0&#45;&gt;ric/SetPlayerStep</title>
<path fill="none" stroke="black" d="M176.39,-87.21C160.73,-74.4 138.95,-56.61 121.58,-42.4"/>
<polygon fill="black" stroke="black" points="123.4,-39.38 113.45,-35.76 118.97,-44.8 123.4,-39.38"/>
<text text-anchor="middle" x="156.94" y="-57.8" font-family="Times,serif" font-size="14.00">1</text>
</g>
<!-- ric/func_8015C920 -->
<g id="node3" class="node">
<title>ric/func_8015C920</title>
<g id="a_node3"><a xlink:href="func_8015C920.svg" xlink:title="ric/func_8015C920">
<ellipse fill="green" stroke="black" cx="301.94" cy="-18" rx="98.28" ry="18"/>
<text text-anchor="middle" x="301.94" y="-14.3" font-family="Times,serif" font-size="14.00">ric/func_8015C920</text>
</a>
</g>
</g>
<!-- ric/func_8015AFE0&#45;&gt;ric/func_8015C920 -->
<g id="edge2" class="edge">
<title>ric/func_8015AFE0&#45;&gt;ric/func_8015C920</title>
<path fill="none" stroke="black" d="M217.69,-87.21C233.51,-74.4 255.49,-56.61 273.03,-42.4"/>
<polygon fill="black" stroke="black" points="275.67,-44.77 281.24,-35.76 271.27,-39.33 275.67,-44.77"/>
<text text-anchor="middle" x="259.94" y="-57.8" font-family="Times,serif" font-size="14.00">1</text>
</g>
<!-- ric/UpdateEntityRichter -->
<g id="node4" class="node">
<title>ric/UpdateEntityRichter</title>
<g id="a_node4"><a xlink:href="UpdateEntityRichter.svg" xlink:title="ric/UpdateEntityRichter">
<ellipse fill="red" stroke="black" cx="196.94" cy="-192" rx="122.68" ry="18"/>
<text text-anchor="middle" x="196.94" y="-188.3" font-family="Times,serif" font-size="14.00">ric/UpdateEntityRichter</text>
</a>
</g>
</g>
<!-- ric/UpdateEntityRichter&#45;&gt;ric/func_8015AFE0 -->
<g id="edge3" class="edge">
<title>ric/UpdateEntityRichter&#45;&gt;ric/func_8015AFE0</title>
<path fill="none" stroke="black" d="M196.94,-173.8C196.94,-162.16 196.94,-146.55 196.94,-133.24"/>
<polygon fill="black" stroke="black" points="200.44,-133.18 196.94,-123.18 193.44,-133.18 200.44,-133.18"/>
<text text-anchor="middle" x="201.94" y="-144.8" font-family="Times,serif" font-size="14.00">1</text>
</g>
</g>
</svg>
