<?xml version="1.0" encoding="UTF-8" standalone="no"?>
<!DOCTYPE svg PUBLIC "-//W3C//DTD SVG 1.1//EN"
 "http://www.w3.org/Graphics/SVG/1.1/DTD/svg11.dtd">
<!-- Generated by graphviz version 2.43.0 (0)
 -->
<!-- Title: func_801BDE20 Pages: 1 -->
<svg width="852pt" height="131pt"
 viewBox="0.00 0.00 851.98 131.00" xmlns="http://www.w3.org/2000/svg" xmlns:xlink="http://www.w3.org/1999/xlink">
<g id="graph0" class="graph" transform="scale(1 1) rotate(0) translate(4 127)">
<title>func_801BDE20</title>
<polygon fill="white" stroke="transparent" points="-4,4 -4,-127 847.98,-127 847.98,4 -4,4"/>
<!-- nz0/func_801BDE20 -->
<g id="node1" class="node">
<title>nz0/func_801BDE20</title>
<ellipse fill="green" stroke="black" cx="446.39" cy="-105" rx="104.78" ry="18"/>
<text text-anchor="middle" x="446.39" y="-101.3" font-family="Times,serif" font-size="14.00">nz0/func_801BDE20</text>
</g>
<!-- nz0/g_api_CheckCollision -->
<g id="node2" class="node">
<title>nz0/g_api_CheckCollision</title>
<g id="a_node2"><a xlink:href="g_api_CheckCollision.svg" xlink:title="nz0/g_api_CheckCollision">
<ellipse fill="lightblue" stroke="black" cx="127.39" cy="-18" rx="127.28" ry="18"/>
<text text-anchor="middle" x="127.39" y="-14.3" font-family="Times,serif" font-size="14.00">nz0/g_api_CheckCollision</text>
</a>
</g>
</g>
<!-- nz0/func_801BDE20&#45;&gt;nz0/g_api_CheckCollision -->
<g id="edge1" class="edge">
<title>nz0/func_801BDE20&#45;&gt;nz0/g_api_CheckCollision</title>
<path fill="none" stroke="black" d="M392.27,-89.58C337.58,-75.01 252.96,-52.46 194.13,-36.78"/>
<polygon fill="black" stroke="black" points="194.76,-33.33 184.19,-34.14 192.95,-40.09 194.76,-33.33"/>
<text text-anchor="middle" x="311.39" y="-57.8" font-family="Times,serif" font-size="14.00">2</text>
</g>
<!-- nz0/MoveEntity -->
<g id="node3" class="node">
<title>nz0/MoveEntity</title>
<g id="a_node3"><a xlink:href="MoveEntity.svg" xlink:title="nz0/MoveEntity">
<ellipse fill="green" stroke="black" cx="357.39" cy="-18" rx="84.49" ry="18"/>
<text text-anchor="middle" x="357.39" y="-14.3" font-family="Times,serif" font-size="14.00">nz0/MoveEntity</text>
</a>
</g>
</g>
<!-- nz0/func_801BDE20&#45;&gt;nz0/MoveEntity -->
<g id="edge2" class="edge">
<title>nz0/func_801BDE20&#45;&gt;nz0/MoveEntity</title>
<path fill="none" stroke="black" d="M428.81,-87.21C415.52,-74.52 397.1,-56.93 382.3,-42.79"/>
<polygon fill="black" stroke="black" points="384.58,-40.13 374.94,-35.76 379.75,-45.2 384.58,-40.13"/>
<text text-anchor="middle" x="412.39" y="-57.8" font-family="Times,serif" font-size="14.00">2</text>
</g>
<!-- nz0/FallEntity -->
<g id="node4" class="node">
<title>nz0/FallEntity</title>
<g id="a_node4"><a xlink:href="FallEntity.svg" xlink:title="nz0/FallEntity">
<ellipse fill="green" stroke="black" cx="536.39" cy="-18" rx="76.09" ry="18"/>
<text text-anchor="middle" x="536.39" y="-14.3" font-family="Times,serif" font-size="14.00">nz0/FallEntity</text>
</a>
</g>
</g>
<!-- nz0/func_801BDE20&#45;&gt;nz0/FallEntity -->
<g id="edge3" class="edge">
<title>nz0/func_801BDE20&#45;&gt;nz0/FallEntity</title>
<path fill="none" stroke="black" d="M464.17,-87.21C477.61,-74.52 496.23,-56.93 511.2,-42.79"/>
<polygon fill="black" stroke="black" points="513.78,-45.17 518.64,-35.76 508.97,-40.08 513.78,-45.17"/>
<text text-anchor="middle" x="502.39" y="-57.8" font-family="Times,serif" font-size="14.00">1</text>
</g>
<!-- nz0/func_801BDD9C -->
<g id="node5" class="node">
<title>nz0/func_801BDD9C</title>
<g id="a_node5"><a xlink:href="func_801BDD9C.svg" xlink:title="nz0/func_801BDD9C">
<ellipse fill="green" stroke="black" cx="737.39" cy="-18" rx="106.68" ry="18"/>
<text text-anchor="middle" x="737.39" y="-14.3" font-family="Times,serif" font-size="14.00">nz0/func_801BDD9C</text>
</a>
</g>
</g>
<!-- nz0/func_801BDE20&#45;&gt;nz0/func_801BDD9C -->
<g id="edge4" class="edge">
<title>nz0/func_801BDE20&#45;&gt;nz0/func_801BDD9C</title>
<path fill="none" stroke="black" d="M497.08,-89.19C547.05,-74.6 623.46,-52.28 676.65,-36.74"/>
<polygon fill="black" stroke="black" points="677.69,-40.08 686.3,-33.92 675.72,-33.37 677.69,-40.08"/>
<text text-anchor="middle" x="614.39" y="-57.8" font-family="Times,serif" font-size="14.00">1</text>
</g>
</g>
</svg>
