<?xml version="1.0" encoding="UTF-8" standalone="no"?>
<!DOCTYPE svg PUBLIC "-//W3C//DTD SVG 1.1//EN"
 "http://www.w3.org/Graphics/SVG/1.1/DTD/svg11.dtd">
<!-- Generated by graphviz version 2.43.0 (0)
 -->
<!-- Title: func_80100B50 Pages: 1 -->
<svg width="805pt" height="218pt"
 viewBox="0.00 0.00 805.38 218.00" xmlns="http://www.w3.org/2000/svg" xmlns:xlink="http://www.w3.org/1999/xlink">
<g id="graph0" class="graph" transform="scale(1 1) rotate(0) translate(4 214)">
<title>func_80100B50</title>
<polygon fill="white" stroke="transparent" points="-4,4 -4,-214 801.38,-214 801.38,4 -4,4"/>
<!-- dra/func_80100B50 -->
<g id="node1" class="node">
<title>dra/func_80100B50</title>
<ellipse fill="red" stroke="black" cx="330.39" cy="-105" rx="101.28" ry="18"/>
<text text-anchor="middle" x="330.39" y="-101.3" font-family="Times,serif" font-size="14.00">dra/func_80100B50</text>
</g>
<!-- dra/SetPrimRect -->
<g id="node2" class="node">
<title>dra/SetPrimRect</title>
<g id="a_node2"><a xlink:href="SetPrimRect.svg" xlink:title="dra/SetPrimRect">
<ellipse fill="green" stroke="black" cx="88.39" cy="-18" rx="88.28" ry="18"/>
<text text-anchor="middle" x="88.39" y="-14.3" font-family="Times,serif" font-size="14.00">dra/SetPrimRect</text>
</a>
</g>
</g>
<!-- dra/func_80100B50&#45;&gt;dra/SetPrimRect -->
<g id="edge1" class="edge">
<title>dra/func_80100B50&#45;&gt;dra/SetPrimRect</title>
<path fill="none" stroke="black" d="M286.85,-88.71C245.73,-74.26 184.03,-52.59 140.36,-37.25"/>
<polygon fill="black" stroke="black" points="141.37,-33.9 130.78,-33.89 139.05,-40.5 141.37,-33.9"/>
<text text-anchor="middle" x="229.39" y="-57.8" font-family="Times,serif" font-size="14.00">3</text>
</g>
<!-- dra/rand -->
<g id="node3" class="node">
<title>dra/rand</title>
<g id="a_node3"><a xlink:href="rand.svg" xlink:title="dra/rand">
<ellipse fill="lightblue" stroke="black" cx="245.39" cy="-18" rx="50.89" ry="18"/>
<text text-anchor="middle" x="245.39" y="-14.3" font-family="Times,serif" font-size="14.00">dra/rand</text>
</a>
</g>
</g>
<!-- dra/func_80100B50&#45;&gt;dra/rand -->
<g id="edge2" class="edge">
<title>dra/func_80100B50&#45;&gt;dra/rand</title>
<path fill="none" stroke="black" d="M313.6,-87.21C300.86,-74.47 283.19,-56.8 269.03,-42.64"/>
<polygon fill="black" stroke="black" points="271.12,-39.78 261.57,-35.18 266.17,-44.73 271.12,-39.78"/>
<text text-anchor="middle" x="298.39" y="-57.8" font-family="Times,serif" font-size="14.00">2</text>
</g>
<!-- dra/func_801071CC -->
<g id="node4" class="node">
<title>dra/func_801071CC</title>
<g id="a_node4"><a xlink:href="func_801071CC.svg" xlink:title="dra/func_801071CC">
<ellipse fill="green" stroke="black" cx="416.39" cy="-18" rx="102.88" ry="18"/>
<text text-anchor="middle" x="416.39" y="-14.3" font-family="Times,serif" font-size="14.00">dra/func_801071CC</text>
</a>
</g>
</g>
<!-- dra/func_80100B50&#45;&gt;dra/func_801071CC -->
<g id="edge3" class="edge">
<title>dra/func_80100B50&#45;&gt;dra/func_801071CC</title>
<path fill="none" stroke="black" d="M347.38,-87.21C360.22,-74.52 378.02,-56.93 392.32,-42.79"/>
<polygon fill="black" stroke="black" points="394.78,-45.28 399.44,-35.76 389.86,-40.3 394.78,-45.28"/>
<text text-anchor="middle" x="384.39" y="-57.8" font-family="Times,serif" font-size="14.00">4</text>
</g>
<!-- dra/SetTexturedPrimRect -->
<g id="node5" class="node">
<title>dra/SetTexturedPrimRect</title>
<g id="a_node5"><a xlink:href="SetTexturedPrimRect.svg" xlink:title="dra/SetTexturedPrimRect">
<ellipse fill="green" stroke="black" cx="667.39" cy="-18" rx="129.98" ry="18"/>
<text text-anchor="middle" x="667.39" y="-14.3" font-family="Times,serif" font-size="14.00">dra/SetTexturedPrimRect</text>
</a>
</g>
</g>
<!-- dra/func_80100B50&#45;&gt;dra/SetTexturedPrimRect -->
<g id="edge4" class="edge">
<title>dra/func_80100B50&#45;&gt;dra/SetTexturedPrimRect</title>
<path fill="none" stroke="black" d="M386.42,-89.87C444.51,-75.22 535.43,-52.28 598.03,-36.5"/>
<polygon fill="black" stroke="black" points="598.98,-39.86 607.82,-34.02 597.27,-33.08 598.98,-39.86"/>
<text text-anchor="middle" x="523.39" y="-57.8" font-family="Times,serif" font-size="14.00">9</text>
</g>
<!-- dra/func_80101A80 -->
<g id="node6" class="node">
<title>dra/func_80101A80</title>
<g id="a_node6"><a xlink:href="func_80101A80.svg" xlink:title="dra/func_80101A80">
<ellipse fill="red" stroke="black" cx="330.39" cy="-192" rx="100.98" ry="18"/>
<text text-anchor="middle" x="330.39" y="-188.3" font-family="Times,serif" font-size="14.00">dra/func_80101A80</text>
</a>
</g>
</g>
<!-- dra/func_80101A80&#45;&gt;dra/func_80100B50 -->
<g id="edge5" class="edge">
<title>dra/func_80101A80&#45;&gt;dra/func_80100B50</title>
<path fill="none" stroke="black" d="M330.39,-173.8C330.39,-162.16 330.39,-146.55 330.39,-133.24"/>
<polygon fill="black" stroke="black" points="333.89,-133.18 330.39,-123.18 326.89,-133.18 333.89,-133.18"/>
<text text-anchor="middle" x="335.39" y="-144.8" font-family="Times,serif" font-size="14.00">1</text>
</g>
</g>
</svg>
