<?xml version="1.0" encoding="UTF-8" standalone="no"?>
<!DOCTYPE svg PUBLIC "-//W3C//DTD SVG 1.1//EN"
 "http://www.w3.org/Graphics/SVG/1.1/DTD/svg11.dtd">
<!-- Generated by graphviz version 2.43.0 (0)
 -->
<!-- Title: func_800E2B00 Pages: 1 -->
<svg width="917pt" height="131pt"
 viewBox="0.00 0.00 917.44 131.00" xmlns="http://www.w3.org/2000/svg" xmlns:xlink="http://www.w3.org/1999/xlink">
<g id="graph0" class="graph" transform="scale(1 1) rotate(0) translate(4 127)">
<title>func_800E2B00</title>
<polygon fill="white" stroke="transparent" points="-4,4 -4,-127 913.44,-127 913.44,4 -4,4"/>
<!-- dra/func_800E2B00 -->
<g id="node1" class="node">
<title>dra/func_800E2B00</title>
<ellipse fill="green" stroke="black" cx="453.89" cy="-105" rx="102.88" ry="18"/>
<text text-anchor="middle" x="453.89" y="-101.3" font-family="Times,serif" font-size="14.00">dra/func_800E2B00</text>
</g>
<!-- dra/FntPrint -->
<g id="node2" class="node">
<title>dra/FntPrint</title>
<g id="a_node2"><a xlink:href="FntPrint.svg" xlink:title="dra/FntPrint">
<ellipse fill="lightblue" stroke="black" cx="68.89" cy="-18" rx="68.79" ry="18"/>
<text text-anchor="middle" x="68.89" y="-14.3" font-family="Times,serif" font-size="14.00">dra/FntPrint</text>
</a>
</g>
</g>
<!-- dra/func_800E2B00&#45;&gt;dra/FntPrint -->
<g id="edge1" class="edge">
<title>dra/func_800E2B00&#45;&gt;dra/FntPrint</title>
<path fill="none" stroke="black" d="M392.46,-90.44C320.28,-74.5 201.27,-48.23 129.47,-32.37"/>
<polygon fill="black" stroke="black" points="130.18,-28.95 119.66,-30.21 128.67,-35.78 130.18,-28.95"/>
<text text-anchor="middle" x="289.89" y="-57.8" font-family="Times,serif" font-size="14.00">2</text>
</g>
<!-- dra/SetSemiTrans -->
<g id="node3" class="node">
<title>dra/SetSemiTrans</title>
<g id="a_node3"><a xlink:href="SetSemiTrans.svg" xlink:title="dra/SetSemiTrans">
<ellipse fill="lightblue" stroke="black" cx="250.89" cy="-18" rx="94.78" ry="18"/>
<text text-anchor="middle" x="250.89" y="-14.3" font-family="Times,serif" font-size="14.00">dra/SetSemiTrans</text>
</a>
</g>
</g>
<!-- dra/func_800E2B00&#45;&gt;dra/SetSemiTrans -->
<g id="edge2" class="edge">
<title>dra/func_800E2B00&#45;&gt;dra/SetSemiTrans</title>
<path fill="none" stroke="black" d="M416.19,-88.21C382.72,-74.2 333.68,-53.66 297.71,-38.6"/>
<polygon fill="black" stroke="black" points="298.97,-35.34 288.4,-34.7 296.27,-41.79 298.97,-35.34"/>
<text text-anchor="middle" x="369.89" y="-57.8" font-family="Times,serif" font-size="14.00">3</text>
</g>
<!-- dra/SetShadeTex -->
<g id="node4" class="node">
<title>dra/SetShadeTex</title>
<g id="a_node4"><a xlink:href="SetShadeTex.svg" xlink:title="dra/SetShadeTex">
<ellipse fill="lightblue" stroke="black" cx="453.89" cy="-18" rx="89.88" ry="18"/>
<text text-anchor="middle" x="453.89" y="-14.3" font-family="Times,serif" font-size="14.00">dra/SetShadeTex</text>
</a>
</g>
</g>
<!-- dra/func_800E2B00&#45;&gt;dra/SetShadeTex -->
<g id="edge3" class="edge">
<title>dra/func_800E2B00&#45;&gt;dra/SetShadeTex</title>
<path fill="none" stroke="black" d="M453.89,-86.8C453.89,-75.16 453.89,-59.55 453.89,-46.24"/>
<polygon fill="black" stroke="black" points="457.39,-46.18 453.89,-36.18 450.39,-46.18 457.39,-46.18"/>
<text text-anchor="middle" x="458.89" y="-57.8" font-family="Times,serif" font-size="14.00">1</text>
</g>
<!-- dra/AddPrim -->
<g id="node5" class="node">
<title>dra/AddPrim</title>
<g id="a_node5"><a xlink:href="AddPrim.svg" xlink:title="dra/AddPrim">
<ellipse fill="lightblue" stroke="black" cx="630.89" cy="-18" rx="69.59" ry="18"/>
<text text-anchor="middle" x="630.89" y="-14.3" font-family="Times,serif" font-size="14.00">dra/AddPrim</text>
</a>
</g>
</g>
<!-- dra/func_800E2B00&#45;&gt;dra/AddPrim -->
<g id="edge4" class="edge">
<title>dra/func_800E2B00&#45;&gt;dra/AddPrim</title>
<path fill="none" stroke="black" d="M487.6,-87.81C516.78,-73.8 559.06,-53.5 590.13,-38.57"/>
<polygon fill="black" stroke="black" points="591.89,-41.61 599.39,-34.13 588.86,-35.3 591.89,-41.61"/>
<text text-anchor="middle" x="558.89" y="-57.8" font-family="Times,serif" font-size="14.00">4</text>
</g>
<!-- dra/SetDrawMode -->
<g id="node6" class="node">
<title>dra/SetDrawMode</title>
<g id="a_node6"><a xlink:href="SetDrawMode.svg" xlink:title="dra/SetDrawMode">
<ellipse fill="lightblue" stroke="black" cx="813.89" cy="-18" rx="95.58" ry="18"/>
<text text-anchor="middle" x="813.89" y="-14.3" font-family="Times,serif" font-size="14.00">dra/SetDrawMode</text>
</a>
</g>
</g>
<!-- dra/func_800E2B00&#45;&gt;dra/SetDrawMode -->
<g id="edge5" class="edge">
<title>dra/func_800E2B00&#45;&gt;dra/SetDrawMode</title>
<path fill="none" stroke="black" d="M512.54,-90.15C576.68,-75.01 679.33,-50.77 746.68,-34.87"/>
<polygon fill="black" stroke="black" points="747.84,-38.19 756.76,-32.49 746.23,-31.38 747.84,-38.19"/>
<text text-anchor="middle" x="660.89" y="-57.8" font-family="Times,serif" font-size="14.00">2</text>
</g>
</g>
</svg>
