<?xml version="1.0" encoding="UTF-8" standalone="no"?>
<!DOCTYPE svg PUBLIC "-//W3C//DTD SVG 1.1//EN"
 "http://www.w3.org/Graphics/SVG/1.1/DTD/svg11.dtd">
<!-- Generated by graphviz version 2.43.0 (0)
 -->
<!-- Title: func_801093C4 Pages: 1 -->
<svg width="424pt" height="218pt"
 viewBox="0.00 0.00 423.73 218.00" xmlns="http://www.w3.org/2000/svg" xmlns:xlink="http://www.w3.org/1999/xlink">
<g id="graph0" class="graph" transform="scale(1 1) rotate(0) translate(4 214)">
<title>func_801093C4</title>
<polygon fill="white" stroke="transparent" points="-4,4 -4,-214 419.73,-214 419.73,4 -4,4"/>
<!-- dra/func_801093C4 -->
<g id="node1" class="node">
<title>dra/func_801093C4</title>
<ellipse fill="red" stroke="black" cx="208.99" cy="-105" rx="101.28" ry="18"/>
<text text-anchor="middle" x="208.99" y="-101.3" font-family="Times,serif" font-size="14.00">dra/func_801093C4</text>
</g>
<!-- dra/func_800EDB08 -->
<g id="node2" class="node">
<title>dra/func_800EDB08</title>
<g id="a_node2"><a xlink:href="func_800EDB08.svg" xlink:title="dra/func_800EDB08">
<ellipse fill="green" stroke="black" cx="103.99" cy="-18" rx="103.98" ry="18"/>
<text text-anchor="middle" x="103.99" y="-14.3" font-family="Times,serif" font-size="14.00">dra/func_800EDB08</text>
</a>
</g>
</g>
<!-- dra/func_801093C4&#45;&gt;dra/func_800EDB08 -->
<g id="edge1" class="edge">
<title>dra/func_801093C4&#45;&gt;dra/func_800EDB08</title>
<path fill="none" stroke="black" d="M188.25,-87.21C172.43,-74.4 150.45,-56.61 132.9,-42.4"/>
<polygon fill="black" stroke="black" points="134.67,-39.33 124.69,-35.76 130.26,-44.77 134.67,-39.33"/>
<text text-anchor="middle" x="167.99" y="-57.8" font-family="Times,serif" font-size="14.00">2</text>
</g>
<!-- dra/SetDrawEnv -->
<g id="node3" class="node">
<title>dra/SetDrawEnv</title>
<g id="a_node3"><a xlink:href="SetDrawEnv.svg" xlink:title="dra/SetDrawEnv">
<ellipse fill="lightblue" stroke="black" cx="313.99" cy="-18" rx="87.99" ry="18"/>
<text text-anchor="middle" x="313.99" y="-14.3" font-family="Times,serif" font-size="14.00">dra/SetDrawEnv</text>
</a>
</g>
</g>
<!-- dra/func_801093C4&#45;&gt;dra/SetDrawEnv -->
<g id="edge2" class="edge">
<title>dra/func_801093C4&#45;&gt;dra/SetDrawEnv</title>
<path fill="none" stroke="black" d="M229.74,-87.21C245.55,-74.4 267.54,-56.61 285.08,-42.4"/>
<polygon fill="black" stroke="black" points="287.72,-44.77 293.29,-35.76 283.31,-39.33 287.72,-44.77"/>
<text text-anchor="middle" x="272.99" y="-57.8" font-family="Times,serif" font-size="14.00">1</text>
</g>
<!-- dra/EntityAlucard -->
<g id="node4" class="node">
<title>dra/EntityAlucard</title>
<g id="a_node4"><a xlink:href="EntityAlucard.svg" xlink:title="dra/EntityAlucard">
<ellipse fill="red" stroke="black" cx="102.99" cy="-192" rx="93.68" ry="18"/>
<text text-anchor="middle" x="102.99" y="-188.3" font-family="Times,serif" font-size="14.00">dra/EntityAlucard</text>
</a>
</g>
</g>
<!-- dra/EntityAlucard&#45;&gt;dra/func_801093C4 -->
<g id="edge3" class="edge">
<title>dra/EntityAlucard&#45;&gt;dra/func_801093C4</title>
<path fill="none" stroke="black" d="M123.68,-174.41C139.77,-161.51 162.29,-143.45 180.15,-129.13"/>
<polygon fill="black" stroke="black" points="182.38,-131.83 187.99,-122.84 178,-126.36 182.38,-131.83"/>
<text text-anchor="middle" x="167.99" y="-144.8" font-family="Times,serif" font-size="14.00">1</text>
</g>
<!-- dra/func_80109594 -->
<g id="node5" class="node">
<title>dra/func_80109594</title>
<g id="a_node5"><a xlink:href="func_80109594.svg" xlink:title="dra/func_80109594">
<ellipse fill="green" stroke="black" cx="314.99" cy="-192" rx="100.98" ry="18"/>
<text text-anchor="middle" x="314.99" y="-188.3" font-family="Times,serif" font-size="14.00">dra/func_80109594</text>
</a>
</g>
</g>
<!-- dra/func_80109594&#45;&gt;dra/func_801093C4 -->
<g id="edge4" class="edge">
<title>dra/func_80109594&#45;&gt;dra/func_801093C4</title>
<path fill="none" stroke="black" d="M294.05,-174.21C277.93,-161.28 255.48,-143.28 237.7,-129.02"/>
<polygon fill="black" stroke="black" points="239.88,-126.28 229.89,-122.76 235.5,-131.74 239.88,-126.28"/>
<text text-anchor="middle" x="273.99" y="-144.8" font-family="Times,serif" font-size="14.00">1</text>
</g>
</g>
</svg>
