<?xml version="1.0" encoding="UTF-8" standalone="no"?>
<!DOCTYPE svg PUBLIC "-//W3C//DTD SVG 1.1//EN"
 "http://www.w3.org/Graphics/SVG/1.1/DTD/svg11.dtd">
<!-- Generated by graphviz version 2.43.0 (0)
 -->
<!-- Title: func_7B000_8017A74C Pages: 1 -->
<svg width="4074pt" height="131pt"
 viewBox="0.00 0.00 4074.07 131.00" xmlns="http://www.w3.org/2000/svg" xmlns:xlink="http://www.w3.org/1999/xlink">
<g id="graph0" class="graph" transform="scale(1 1) rotate(0) translate(4 127)">
<title>func_7B000_8017A74C</title>
<polygon fill="white" stroke="transparent" points="-4,4 -4,-127 4070.07,-127 4070.07,4 -4,4"/>
<!-- weapon/func_7B000_8017A74C -->
<g id="node1" class="node">
<title>weapon/func_7B000_8017A74C</title>
<ellipse fill="red" stroke="black" cx="2030.19" cy="-105" rx="156.77" ry="18"/>
<text text-anchor="middle" x="2030.19" y="-101.3" font-family="Times,serif" font-size="14.00">weapon/func_7B000_8017A74C</text>
</g>
<!-- weapon/g_api_AllocPrimitives -->
<g id="node2" class="node">
<title>weapon/g_api_AllocPrimitives</title>
<g id="a_node2"><a xlink:href="g_api_AllocPrimitives.svg" xlink:title="weapon/g_api_AllocPrimitives">
<ellipse fill="lightblue" stroke="black" cx="148.19" cy="-18" rx="148.37" ry="18"/>
<text text-anchor="middle" x="148.19" y="-14.3" font-family="Times,serif" font-size="14.00">weapon/g_api_AllocPrimitives</text>
</a>
</g>
</g>
<!-- weapon/func_7B000_8017A74C&#45;&gt;weapon/g_api_AllocPrimitives -->
<g id="edge1" class="edge">
<title>weapon/func_7B000_8017A74C&#45;&gt;weapon/g_api_AllocPrimitives</title>
<path fill="none" stroke="black" d="M1876.49,-101.27C1646.78,-96.8 1200.32,-86.61 821.19,-69 591.63,-58.34 534.14,-55.71 305.19,-36 291.2,-34.8 276.54,-33.39 262.02,-31.92"/>
<polygon fill="black" stroke="black" points="262.3,-28.43 252,-30.89 261.59,-35.4 262.3,-28.43"/>
<text text-anchor="middle" x="826.19" y="-57.8" font-family="Times,serif" font-size="14.00">1</text>
</g>
<!-- weapon/g_api_func_80118C28 -->
<g id="node3" class="node">
<title>weapon/g_api_func_80118C28</title>
<g id="a_node3"><a xlink:href="g_api_func_80118C28.svg" xlink:title="weapon/g_api_func_80118C28">
<ellipse fill="lightblue" stroke="black" cx="464.19" cy="-18" rx="150.27" ry="18"/>
<text text-anchor="middle" x="464.19" y="-14.3" font-family="Times,serif" font-size="14.00">weapon/g_api_func_80118C28</text>
</a>
</g>
</g>
<!-- weapon/func_7B000_8017A74C&#45;&gt;weapon/g_api_func_80118C28 -->
<g id="edge2" class="edge">
<title>weapon/func_7B000_8017A74C&#45;&gt;weapon/g_api_func_80118C28</title>
<path fill="none" stroke="black" d="M1879.34,-100.15C1691.21,-94.95 1359.79,-84.53 1076.19,-69 874.62,-57.96 824.24,-54.07 623.19,-36 609.26,-34.75 594.65,-33.33 580.18,-31.86"/>
<polygon fill="black" stroke="black" points="580.5,-28.38 570.19,-30.84 579.78,-35.34 580.5,-28.38"/>
<text text-anchor="middle" x="1081.19" y="-57.8" font-family="Times,serif" font-size="14.00">1</text>
</g>
<!-- weapon/g_api_PlaySfx -->
<g id="node4" class="node">
<title>weapon/g_api_PlaySfx</title>
<g id="a_node4"><a xlink:href="g_api_PlaySfx.svg" xlink:title="weapon/g_api_PlaySfx">
<ellipse fill="lightblue" stroke="black" cx="745.19" cy="-18" rx="113.18" ry="18"/>
<text text-anchor="middle" x="745.19" y="-14.3" font-family="Times,serif" font-size="14.00">weapon/g_api_PlaySfx</text>
</a>
</g>
</g>
<!-- weapon/func_7B000_8017A74C&#45;&gt;weapon/g_api_PlaySfx -->
<g id="edge3" class="edge">
<title>weapon/func_7B000_8017A74C&#45;&gt;weapon/g_api_PlaySfx</title>
<path fill="none" stroke="black" d="M1881.29,-99.31C1659.92,-91.43 1231.1,-72.66 868.19,-36 857.43,-34.91 846.17,-33.6 835.01,-32.19"/>
<polygon fill="black" stroke="black" points="835.18,-28.68 824.81,-30.87 834.28,-35.63 835.18,-28.68"/>
<text text-anchor="middle" x="1256.19" y="-57.8" font-family="Times,serif" font-size="14.00">1</text>
</g>
<!-- weapon/g_api_func_80102CD8 -->
<g id="node5" class="node">
<title>weapon/g_api_func_80102CD8</title>
<g id="a_node5"><a xlink:href="g_api_func_80102CD8.svg" xlink:title="weapon/g_api_func_80102CD8">
<ellipse fill="lightblue" stroke="black" cx="1028.19" cy="-18" rx="151.37" ry="18"/>
<text text-anchor="middle" x="1028.19" y="-14.3" font-family="Times,serif" font-size="14.00">weapon/g_api_func_80102CD8</text>
</a>
</g>
</g>
<!-- weapon/func_7B000_8017A74C&#45;&gt;weapon/g_api_func_80102CD8 -->
<g id="edge4" class="edge">
<title>weapon/func_7B000_8017A74C&#45;&gt;weapon/g_api_func_80102CD8</title>
<path fill="none" stroke="black" d="M1901.87,-94.61C1736.87,-82.3 1441.51,-59.52 1189.19,-36 1175.09,-34.69 1160.31,-33.23 1145.65,-31.74"/>
<polygon fill="black" stroke="black" points="1145.84,-28.24 1135.54,-30.71 1145.13,-35.21 1145.84,-28.24"/>
<text text-anchor="middle" x="1563.19" y="-57.8" font-family="Times,serif" font-size="14.00">1</text>
</g>
<!-- weapon/func_7B000_8017A650 -->
<g id="node6" class="node">
<title>weapon/func_7B000_8017A650</title>
<g id="a_node6"><a xlink:href="func_7B000_8017A650.svg" xlink:title="weapon/func_7B000_8017A650">
<ellipse fill="red" stroke="black" cx="1353.19" cy="-18" rx="155.17" ry="18"/>
<text text-anchor="middle" x="1353.19" y="-14.3" font-family="Times,serif" font-size="14.00">weapon/func_7B000_8017A650</text>
</a>
</g>
</g>
<!-- weapon/func_7B000_8017A74C&#45;&gt;weapon/func_7B000_8017A650 -->
<g id="edge5" class="edge">
<title>weapon/func_7B000_8017A74C&#45;&gt;weapon/func_7B000_8017A650</title>
<path fill="none" stroke="black" d="M1928.83,-91.27C1804.3,-75.64 1593.71,-49.2 1464.7,-33"/>
<polygon fill="black" stroke="black" points="1464.76,-29.48 1454.4,-31.71 1463.89,-36.43 1464.76,-29.48"/>
<text text-anchor="middle" x="1738.19" y="-57.8" font-family="Times,serif" font-size="14.00">1</text>
</g>
<!-- weapon/rand -->
<g id="node7" class="node">
<title>weapon/rand</title>
<g id="a_node7"><a xlink:href="rand.svg" xlink:title="weapon/rand">
<ellipse fill="lightblue" stroke="black" cx="1597.19" cy="-18" rx="70.69" ry="18"/>
<text text-anchor="middle" x="1597.19" y="-14.3" font-family="Times,serif" font-size="14.00">weapon/rand</text>
</a>
</g>
</g>
<!-- weapon/func_7B000_8017A74C&#45;&gt;weapon/rand -->
<g id="edge6" class="edge">
<title>weapon/func_7B000_8017A74C&#45;&gt;weapon/rand</title>
<path fill="none" stroke="black" d="M1951.94,-89.37C1880.35,-75.88 1771.54,-55.11 1677.19,-36 1671.48,-34.84 1665.55,-33.62 1659.61,-32.39"/>
<polygon fill="black" stroke="black" points="1660.16,-28.92 1649.66,-30.3 1658.73,-35.78 1660.16,-28.92"/>
<text text-anchor="middle" x="1847.19" y="-57.8" font-family="Times,serif" font-size="14.00">4</text>
</g>
<!-- weapon/rcos -->
<g id="node8" class="node">
<title>weapon/rcos</title>
<g id="a_node8"><a xlink:href="rcos.svg" xlink:title="weapon/rcos">
<ellipse fill="lightblue" stroke="black" cx="1755.19" cy="-18" rx="68.79" ry="18"/>
<text text-anchor="middle" x="1755.19" y="-14.3" font-family="Times,serif" font-size="14.00">weapon/rcos</text>
</a>
</g>
</g>
<!-- weapon/func_7B000_8017A74C&#45;&gt;weapon/rcos -->
<g id="edge7" class="edge">
<title>weapon/func_7B000_8017A74C&#45;&gt;weapon/rcos</title>
<path fill="none" stroke="black" d="M1978.14,-87.91C1929.34,-72.83 1856.74,-50.39 1807.77,-35.25"/>
<polygon fill="black" stroke="black" points="1808.58,-31.84 1798,-32.23 1806.52,-38.53 1808.58,-31.84"/>
<text text-anchor="middle" x="1914.19" y="-57.8" font-family="Times,serif" font-size="14.00">2</text>
</g>
<!-- weapon/rsin -->
<g id="node9" class="node">
<title>weapon/rsin</title>
<g id="a_node9"><a xlink:href="rsin.svg" xlink:title="weapon/rsin">
<ellipse fill="lightblue" stroke="black" cx="1909.19" cy="-18" rx="67.69" ry="18"/>
<text text-anchor="middle" x="1909.19" y="-14.3" font-family="Times,serif" font-size="14.00">weapon/rsin</text>
</a>
</g>
</g>
<!-- weapon/func_7B000_8017A74C&#45;&gt;weapon/rsin -->
<g id="edge8" class="edge">
<title>weapon/func_7B000_8017A74C&#45;&gt;weapon/rsin</title>
<path fill="none" stroke="black" d="M2006.28,-87.21C1987.48,-74 1961.12,-55.48 1940.61,-41.08"/>
<polygon fill="black" stroke="black" points="1942.42,-38.07 1932.22,-35.18 1938.39,-43.79 1942.42,-38.07"/>
<text text-anchor="middle" x="1982.19" y="-57.8" font-family="Times,serif" font-size="14.00">1</text>
</g>
<!-- weapon/func_7B000_8017A3AC -->
<g id="node10" class="node">
<title>weapon/func_7B000_8017A3AC</title>
<g id="a_node10"><a xlink:href="func_7B000_8017A3AC.svg" xlink:title="weapon/func_7B000_8017A3AC">
<ellipse fill="red" stroke="black" cx="2152.19" cy="-18" rx="157.07" ry="18"/>
<text text-anchor="middle" x="2152.19" y="-14.3" font-family="Times,serif" font-size="14.00">weapon/func_7B000_8017A3AC</text>
</a>
</g>
</g>
<!-- weapon/func_7B000_8017A74C&#45;&gt;weapon/func_7B000_8017A3AC -->
<g id="edge9" class="edge">
<title>weapon/func_7B000_8017A74C&#45;&gt;weapon/func_7B000_8017A3AC</title>
<path fill="none" stroke="black" d="M2054.29,-87.21C2072.88,-74.25 2098.8,-56.19 2119.3,-41.91"/>
<polygon fill="black" stroke="black" points="2121.51,-44.64 2127.72,-36.05 2117.51,-38.89 2121.51,-44.64"/>
<text text-anchor="middle" x="2104.19" y="-57.8" font-family="Times,serif" font-size="14.00">1</text>
</g>
<!-- weapon/SetGeomScreen -->
<g id="node11" class="node">
<title>weapon/SetGeomScreen</title>
<g id="a_node11"><a xlink:href="SetGeomScreen.svg" xlink:title="weapon/SetGeomScreen">
<ellipse fill="lightblue" stroke="black" cx="2451.19" cy="-18" rx="124.28" ry="18"/>
<text text-anchor="middle" x="2451.19" y="-14.3" font-family="Times,serif" font-size="14.00">weapon/SetGeomScreen</text>
</a>
</g>
</g>
<!-- weapon/func_7B000_8017A74C&#45;&gt;weapon/SetGeomScreen -->
<g id="edge10" class="edge">
<title>weapon/func_7B000_8017A74C&#45;&gt;weapon/SetGeomScreen</title>
<path fill="none" stroke="black" d="M2104,-89.1C2179.04,-73.95 2294.92,-50.55 2371.88,-35.01"/>
<polygon fill="black" stroke="black" points="2372.89,-38.38 2382,-32.97 2371.51,-31.52 2372.89,-38.38"/>
<text text-anchor="middle" x="2271.19" y="-57.8" font-family="Times,serif" font-size="14.00">1</text>
</g>
<!-- weapon/SetGeomOffset -->
<g id="node12" class="node">
<title>weapon/SetGeomOffset</title>
<g id="a_node12"><a xlink:href="SetGeomOffset.svg" xlink:title="weapon/SetGeomOffset">
<ellipse fill="lightblue" stroke="black" cx="2713.19" cy="-18" rx="119.68" ry="18"/>
<text text-anchor="middle" x="2713.19" y="-14.3" font-family="Times,serif" font-size="14.00">weapon/SetGeomOffset</text>
</a>
</g>
</g>
<!-- weapon/func_7B000_8017A74C&#45;&gt;weapon/SetGeomOffset -->
<g id="edge11" class="edge">
<title>weapon/func_7B000_8017A74C&#45;&gt;weapon/SetGeomOffset</title>
<path fill="none" stroke="black" d="M2134.11,-91.52C2245.47,-78.09 2427.38,-55.96 2584.19,-36 2594.74,-34.66 2605.77,-33.23 2616.75,-31.8"/>
<polygon fill="black" stroke="black" points="2617.35,-35.26 2626.81,-30.49 2616.44,-28.31 2617.35,-35.26"/>
<text text-anchor="middle" x="2437.19" y="-57.8" font-family="Times,serif" font-size="14.00">1</text>
</g>
<!-- weapon/RotMatrix -->
<g id="node13" class="node">
<title>weapon/RotMatrix</title>
<g id="a_node13"><a xlink:href="RotMatrix.svg" xlink:title="weapon/RotMatrix">
<ellipse fill="lightblue" stroke="black" cx="2947.19" cy="-18" rx="96.68" ry="18"/>
<text text-anchor="middle" x="2947.19" y="-14.3" font-family="Times,serif" font-size="14.00">weapon/RotMatrix</text>
</a>
</g>
</g>
<!-- weapon/func_7B000_8017A74C&#45;&gt;weapon/RotMatrix -->
<g id="edge12" class="edge">
<title>weapon/func_7B000_8017A74C&#45;&gt;weapon/RotMatrix</title>
<path fill="none" stroke="black" d="M2165.57,-95.86C2327.02,-85.42 2604.89,-65.1 2842.19,-36 2850.84,-34.94 2859.88,-33.69 2868.86,-32.36"/>
<polygon fill="black" stroke="black" points="2869.59,-35.79 2878.95,-30.83 2868.54,-28.87 2869.59,-35.79"/>
<text text-anchor="middle" x="2670.19" y="-57.8" font-family="Times,serif" font-size="14.00">1</text>
</g>
<!-- weapon/TransMatrix -->
<g id="node14" class="node">
<title>weapon/TransMatrix</title>
<g id="a_node14"><a xlink:href="TransMatrix.svg" xlink:title="weapon/TransMatrix">
<ellipse fill="lightblue" stroke="black" cx="3168.19" cy="-18" rx="106.68" ry="18"/>
<text text-anchor="middle" x="3168.19" y="-14.3" font-family="Times,serif" font-size="14.00">weapon/TransMatrix</text>
</a>
</g>
</g>
<!-- weapon/func_7B000_8017A74C&#45;&gt;weapon/TransMatrix -->
<g id="edge13" class="edge">
<title>weapon/func_7B000_8017A74C&#45;&gt;weapon/TransMatrix</title>
<path fill="none" stroke="black" d="M2178.01,-98.91C2377.3,-90.97 2742.95,-72.59 3053.19,-36 3062.81,-34.87 3072.86,-33.56 3082.85,-32.18"/>
<polygon fill="black" stroke="black" points="3083.38,-35.64 3092.8,-30.79 3082.41,-28.71 3083.38,-35.64"/>
<text text-anchor="middle" x="2863.19" y="-57.8" font-family="Times,serif" font-size="14.00">1</text>
</g>
<!-- weapon/SetRotMatrix -->
<g id="node15" class="node">
<title>weapon/SetRotMatrix</title>
<g id="a_node15"><a xlink:href="SetRotMatrix.svg" xlink:title="weapon/SetRotMatrix">
<ellipse fill="lightblue" stroke="black" cx="3405.19" cy="-18" rx="112.38" ry="18"/>
<text text-anchor="middle" x="3405.19" y="-14.3" font-family="Times,serif" font-size="14.00">weapon/SetRotMatrix</text>
</a>
</g>
</g>
<!-- weapon/func_7B000_8017A74C&#45;&gt;weapon/SetRotMatrix -->
<g id="edge14" class="edge">
<title>weapon/func_7B000_8017A74C&#45;&gt;weapon/SetRotMatrix</title>
<path fill="none" stroke="black" d="M2183.62,-101.17C2420.42,-95.56 2888.95,-79.55 3284.19,-36 3294.41,-34.87 3305.11,-33.56 3315.73,-32.18"/>
<polygon fill="black" stroke="black" points="3316.41,-35.62 3325.87,-30.83 3315.49,-28.68 3316.41,-35.62"/>
<text text-anchor="middle" x="3085.19" y="-57.8" font-family="Times,serif" font-size="14.00">2</text>
</g>
<!-- weapon/SetTransMatrix -->
<g id="node16" class="node">
<title>weapon/SetTransMatrix</title>
<g id="a_node16"><a xlink:href="SetTransMatrix.svg" xlink:title="weapon/SetTransMatrix">
<ellipse fill="lightblue" stroke="black" cx="3658.19" cy="-18" rx="122.38" ry="18"/>
<text text-anchor="middle" x="3658.19" y="-14.3" font-family="Times,serif" font-size="14.00">weapon/SetTransMatrix</text>
</a>
</g>
</g>
<!-- weapon/func_7B000_8017A74C&#45;&gt;weapon/SetTransMatrix -->
<g id="edge15" class="edge">
<title>weapon/func_7B000_8017A74C&#45;&gt;weapon/SetTransMatrix</title>
<path fill="none" stroke="black" d="M2183.13,-101.05C2389.9,-96.59 2770.08,-86.7 3094.19,-69 3286.46,-58.5 3334.63,-55.64 3526.19,-36 3537.68,-34.82 3549.72,-33.46 3561.65,-32.02"/>
<polygon fill="black" stroke="black" points="3562.13,-35.49 3571.64,-30.8 3561.29,-28.54 3562.13,-35.49"/>
<text text-anchor="middle" x="3337.19" y="-57.8" font-family="Times,serif" font-size="14.00">2</text>
</g>
<!-- weapon/RotAverageNclip3 -->
<g id="node17" class="node">
<title>weapon/RotAverageNclip3</title>
<g id="a_node17"><a xlink:href="RotAverageNclip3.svg" xlink:title="weapon/RotAverageNclip3">
<ellipse fill="lightblue" stroke="black" cx="3932.19" cy="-18" rx="133.78" ry="18"/>
<text text-anchor="middle" x="3932.19" y="-14.3" font-family="Times,serif" font-size="14.00">weapon/RotAverageNclip3</text>
</a>
</g>
</g>
<!-- weapon/func_7B000_8017A74C&#45;&gt;weapon/RotAverageNclip3 -->
<g id="edge16" class="edge">
<title>weapon/func_7B000_8017A74C&#45;&gt;weapon/RotAverageNclip3</title>
<path fill="none" stroke="black" d="M2185.26,-102.27C2431.44,-98.99 2926.76,-90.19 3346.19,-69 3543.37,-59.04 3592.67,-54.99 3789.19,-36 3801.56,-34.8 3814.52,-33.43 3827.37,-32"/>
<polygon fill="black" stroke="black" points="3828.1,-35.44 3837.64,-30.83 3827.31,-28.48 3828.1,-35.44"/>
<text text-anchor="middle" x="3595.19" y="-57.8" font-family="Times,serif" font-size="14.00">2</text>
</g>
</g>
</svg>
