<?xml version="1.0" encoding="UTF-8" standalone="no"?>
<!DOCTYPE svg PUBLIC "-//W3C//DTD SVG 1.1//EN"
 "http://www.w3.org/Graphics/SVG/1.1/DTD/svg11.dtd">
<!-- Generated by graphviz version 2.43.0 (0)
 -->
<!-- Title: func_170000_8017B050 Pages: 1 -->
<svg width="2256pt" height="131pt"
 viewBox="0.00 0.00 2255.57 131.00" xmlns="http://www.w3.org/2000/svg" xmlns:xlink="http://www.w3.org/1999/xlink">
<g id="graph0" class="graph" transform="scale(1 1) rotate(0) translate(4 127)">
<title>func_170000_8017B050</title>
<polygon fill="white" stroke="transparent" points="-4,4 -4,-127 2251.57,-127 2251.57,4 -4,4"/>
<!-- weapon/func_170000_8017B050 -->
<g id="node1" class="node">
<title>weapon/func_170000_8017B050</title>
<ellipse fill="red" stroke="black" cx="1097.14" cy="-105" rx="161.37" ry="18"/>
<text text-anchor="middle" x="1097.14" y="-101.3" font-family="Times,serif" font-size="14.00">weapon/func_170000_8017B050</text>
</g>
<!-- weapon/g_api_func_8010E168 -->
<g id="node2" class="node">
<title>weapon/g_api_func_8010E168</title>
<g id="a_node2"><a xlink:href="g_api_func_8010E168.svg" xlink:title="weapon/g_api_func_8010E168">
<ellipse fill="lightblue" stroke="black" cx="150.14" cy="-18" rx="150.27" ry="18"/>
<text text-anchor="middle" x="150.14" y="-14.3" font-family="Times,serif" font-size="14.00">weapon/g_api_func_8010E168</text>
</a>
</g>
</g>
<!-- weapon/func_170000_8017B050&#45;&gt;weapon/g_api_func_8010E168 -->
<g id="edge1" class="edge">
<title>weapon/func_170000_8017B050&#45;&gt;weapon/g_api_func_8010E168</title>
<path fill="none" stroke="black" d="M970.14,-93.84C814.34,-81.2 542.17,-58.51 309.14,-36 295.57,-34.69 281.36,-33.26 267.26,-31.8"/>
<polygon fill="black" stroke="black" points="267.32,-28.28 257.02,-30.73 266.6,-35.25 267.32,-28.28"/>
<text text-anchor="middle" x="660.14" y="-57.8" font-family="Times,serif" font-size="14.00">1</text>
</g>
<!-- weapon/g_api_AddHearts -->
<g id="node3" class="node">
<title>weapon/g_api_AddHearts</title>
<g id="a_node3"><a xlink:href="g_api_AddHearts.svg" xlink:title="weapon/g_api_AddHearts">
<ellipse fill="lightblue" stroke="black" cx="446.14" cy="-18" rx="128.08" ry="18"/>
<text text-anchor="middle" x="446.14" y="-14.3" font-family="Times,serif" font-size="14.00">weapon/g_api_AddHearts</text>
</a>
</g>
</g>
<!-- weapon/func_170000_8017B050&#45;&gt;weapon/g_api_AddHearts -->
<g id="edge2" class="edge">
<title>weapon/func_170000_8017B050&#45;&gt;weapon/g_api_AddHearts</title>
<path fill="none" stroke="black" d="M996.84,-90.91C874.56,-74.94 669.1,-48.11 546.69,-32.13"/>
<polygon fill="black" stroke="black" points="546.94,-28.63 536.57,-30.81 546.03,-35.57 546.94,-28.63"/>
<text text-anchor="middle" x="816.14" y="-57.8" font-family="Times,serif" font-size="14.00">1</text>
</g>
<!-- weapon/func_170000_8017ADB4 -->
<g id="node4" class="node">
<title>weapon/func_170000_8017ADB4</title>
<g id="a_node4"><a xlink:href="func_170000_8017ADB4.svg" xlink:title="weapon/func_170000_8017ADB4">
<ellipse fill="red" stroke="black" cx="755.14" cy="-18" rx="163.27" ry="18"/>
<text text-anchor="middle" x="755.14" y="-14.3" font-family="Times,serif" font-size="14.00">weapon/func_170000_8017ADB4</text>
</a>
</g>
</g>
<!-- weapon/func_170000_8017B050&#45;&gt;weapon/func_170000_8017ADB4 -->
<g id="edge3" class="edge">
<title>weapon/func_170000_8017B050&#45;&gt;weapon/func_170000_8017ADB4</title>
<path fill="none" stroke="black" d="M1034.41,-88.41C976.14,-73.93 889.37,-52.36 828.04,-37.12"/>
<polygon fill="black" stroke="black" points="828.59,-33.65 818.05,-34.64 826.91,-40.44 828.59,-33.65"/>
<text text-anchor="middle" x="952.14" y="-57.8" font-family="Times,serif" font-size="14.00">1</text>
</g>
<!-- weapon/func_170000_8017AF54 -->
<g id="node5" class="node">
<title>weapon/func_170000_8017AF54</title>
<g id="a_node5"><a xlink:href="func_170000_8017AF54.svg" xlink:title="weapon/func_170000_8017AF54">
<ellipse fill="red" stroke="black" cx="1097.14" cy="-18" rx="161.37" ry="18"/>
<text text-anchor="middle" x="1097.14" y="-14.3" font-family="Times,serif" font-size="14.00">weapon/func_170000_8017AF54</text>
</a>
</g>
</g>
<!-- weapon/func_170000_8017B050&#45;&gt;weapon/func_170000_8017AF54 -->
<g id="edge4" class="edge">
<title>weapon/func_170000_8017B050&#45;&gt;weapon/func_170000_8017AF54</title>
<path fill="none" stroke="black" d="M1097.14,-86.8C1097.14,-75.16 1097.14,-59.55 1097.14,-46.24"/>
<polygon fill="black" stroke="black" points="1100.64,-46.18 1097.14,-36.18 1093.64,-46.18 1100.64,-46.18"/>
<text text-anchor="middle" x="1102.14" y="-57.8" font-family="Times,serif" font-size="14.00">2</text>
</g>
<!-- weapon/func_170000_8017ACB0 -->
<g id="node6" class="node">
<title>weapon/func_170000_8017ACB0</title>
<g id="a_node6"><a xlink:href="func_170000_8017ACB0.svg" xlink:title="weapon/func_170000_8017ACB0">
<ellipse fill="red" stroke="black" cx="1439.14" cy="-18" rx="162.47" ry="18"/>
<text text-anchor="middle" x="1439.14" y="-14.3" font-family="Times,serif" font-size="14.00">weapon/func_170000_8017ACB0</text>
</a>
</g>
</g>
<!-- weapon/func_170000_8017B050&#45;&gt;weapon/func_170000_8017ACB0 -->
<g id="edge5" class="edge">
<title>weapon/func_170000_8017B050&#45;&gt;weapon/func_170000_8017ACB0</title>
<path fill="none" stroke="black" d="M1159.86,-88.41C1218.14,-73.93 1304.9,-52.36 1366.23,-37.12"/>
<polygon fill="black" stroke="black" points="1367.37,-40.44 1376.23,-34.64 1365.68,-33.65 1367.37,-40.44"/>
<text text-anchor="middle" x="1294.14" y="-57.8" font-family="Times,serif" font-size="14.00">1</text>
</g>
<!-- weapon/g_api_func_8010DBFC -->
<g id="node7" class="node">
<title>weapon/g_api_func_8010DBFC</title>
<g id="a_node7"><a xlink:href="g_api_func_8010DBFC.svg" xlink:title="weapon/g_api_func_8010DBFC">
<ellipse fill="lightblue" stroke="black" cx="1773.14" cy="-18" rx="153.27" ry="18"/>
<text text-anchor="middle" x="1773.14" y="-14.3" font-family="Times,serif" font-size="14.00">weapon/g_api_func_8010DBFC</text>
</a>
</g>
</g>
<!-- weapon/func_170000_8017B050&#45;&gt;weapon/g_api_func_8010DBFC -->
<g id="edge6" class="edge">
<title>weapon/func_170000_8017B050&#45;&gt;weapon/g_api_func_8010DBFC</title>
<path fill="none" stroke="black" d="M1199.81,-91.09C1324.5,-75.41 1534.03,-49.06 1662.3,-32.94"/>
<polygon fill="black" stroke="black" points="1663.06,-36.37 1672.54,-31.65 1662.18,-29.42 1663.06,-36.37"/>
<text text-anchor="middle" x="1481.14" y="-57.8" font-family="Times,serif" font-size="14.00">1</text>
</g>
<!-- weapon/g_api_func_8011AAFC -->
<g id="node8" class="node">
<title>weapon/g_api_func_8011AAFC</title>
<g id="a_node8"><a xlink:href="g_api_func_8011AAFC.svg" xlink:title="weapon/g_api_func_8011AAFC">
<ellipse fill="lightblue" stroke="black" cx="2096.14" cy="-18" rx="151.37" ry="18"/>
<text text-anchor="middle" x="2096.14" y="-14.3" font-family="Times,serif" font-size="14.00">weapon/g_api_func_8011AAFC</text>
</a>
</g>
</g>
<!-- weapon/func_170000_8017B050&#45;&gt;weapon/g_api_func_8011AAFC -->
<g id="edge7" class="edge">
<title>weapon/func_170000_8017B050&#45;&gt;weapon/g_api_func_8011AAFC</title>
<path fill="none" stroke="black" d="M1227.5,-94.41C1392.38,-82.04 1684.98,-59.35 1935.14,-36 1949.23,-34.68 1964.02,-33.23 1978.67,-31.74"/>
<polygon fill="black" stroke="black" points="1979.19,-35.2 1988.79,-30.7 1978.48,-28.24 1979.19,-35.2"/>
<text text-anchor="middle" x="1734.14" y="-57.8" font-family="Times,serif" font-size="14.00">1</text>
</g>
</g>
</svg>
