<?xml version="1.0" encoding="UTF-8" standalone="no"?>
<!DOCTYPE svg PUBLIC "-//W3C//DTD SVG 1.1//EN"
 "http://www.w3.org/Graphics/SVG/1.1/DTD/svg11.dtd">
<!-- Generated by graphviz version 2.43.0 (0)
 -->
<!-- Title: func_DD000_8017ACB8 Pages: 1 -->
<svg width="1620pt" height="131pt"
 viewBox="0.00 0.00 1619.52 131.00" xmlns="http://www.w3.org/2000/svg" xmlns:xlink="http://www.w3.org/1999/xlink">
<g id="graph0" class="graph" transform="scale(1 1) rotate(0) translate(4 127)">
<title>func_DD000_8017ACB8</title>
<polygon fill="white" stroke="transparent" points="-4,4 -4,-127 1615.52,-127 1615.52,4 -4,4"/>
<!-- weapon/func_DD000_8017ACB8 -->
<g id="node1" class="node">
<title>weapon/func_DD000_8017ACB8</title>
<ellipse fill="red" stroke="black" cx="789.24" cy="-105" rx="159.47" ry="18"/>
<text text-anchor="middle" x="789.24" y="-101.3" font-family="Times,serif" font-size="14.00">weapon/func_DD000_8017ACB8</text>
</g>
<!-- weapon/func_DD000_8017AA1C -->
<g id="node2" class="node">
<title>weapon/func_DD000_8017AA1C</title>
<g id="a_node2"><a xlink:href="func_DD000_8017AA1C.svg" xlink:title="weapon/func_DD000_8017AA1C">
<ellipse fill="red" stroke="black" cx="159.24" cy="-18" rx="159.47" ry="18"/>
<text text-anchor="middle" x="159.24" y="-14.3" font-family="Times,serif" font-size="14.00">weapon/func_DD000_8017AA1C</text>
</a>
</g>
</g>
<!-- weapon/func_DD000_8017ACB8&#45;&gt;weapon/func_DD000_8017AA1C -->
<g id="edge1" class="edge">
<title>weapon/func_DD000_8017ACB8&#45;&gt;weapon/func_DD000_8017AA1C</title>
<path fill="none" stroke="black" d="M691.14,-90.77C576.22,-75.26 386.4,-49.65 267.32,-33.58"/>
<polygon fill="black" stroke="black" points="267.47,-30.07 257.1,-32.2 266.54,-37.01 267.47,-30.07"/>
<text text-anchor="middle" x="517.24" y="-57.8" font-family="Times,serif" font-size="14.00">1</text>
</g>
<!-- weapon/func_DD000_8017ABBC -->
<g id="node3" class="node">
<title>weapon/func_DD000_8017ABBC</title>
<g id="a_node3"><a xlink:href="func_DD000_8017ABBC.svg" xlink:title="weapon/func_DD000_8017ABBC">
<ellipse fill="red" stroke="black" cx="497.24" cy="-18" rx="160.57" ry="18"/>
<text text-anchor="middle" x="497.24" y="-14.3" font-family="Times,serif" font-size="14.00">weapon/func_DD000_8017ABBC</text>
</a>
</g>
</g>
<!-- weapon/func_DD000_8017ACB8&#45;&gt;weapon/func_DD000_8017ABBC -->
<g id="edge2" class="edge">
<title>weapon/func_DD000_8017ACB8&#45;&gt;weapon/func_DD000_8017ABBC</title>
<path fill="none" stroke="black" d="M734.31,-88.01C685.42,-73.78 613.85,-52.95 562.15,-37.9"/>
<polygon fill="black" stroke="black" points="562.99,-34.49 552.41,-35.06 561.03,-41.22 562.99,-34.49"/>
<text text-anchor="middle" x="666.24" y="-57.8" font-family="Times,serif" font-size="14.00">1</text>
</g>
<!-- weapon/g_api_PlaySfx -->
<g id="node4" class="node">
<title>weapon/g_api_PlaySfx</title>
<g id="a_node4"><a xlink:href="g_api_PlaySfx.svg" xlink:title="weapon/g_api_PlaySfx">
<ellipse fill="lightblue" stroke="black" cx="789.24" cy="-18" rx="113.18" ry="18"/>
<text text-anchor="middle" x="789.24" y="-14.3" font-family="Times,serif" font-size="14.00">weapon/g_api_PlaySfx</text>
</a>
</g>
</g>
<!-- weapon/func_DD000_8017ACB8&#45;&gt;weapon/g_api_PlaySfx -->
<g id="edge3" class="edge">
<title>weapon/func_DD000_8017ACB8&#45;&gt;weapon/g_api_PlaySfx</title>
<path fill="none" stroke="black" d="M789.24,-86.8C789.24,-75.16 789.24,-59.55 789.24,-46.24"/>
<polygon fill="black" stroke="black" points="792.74,-46.18 789.24,-36.18 785.74,-46.18 792.74,-46.18"/>
<text text-anchor="middle" x="794.24" y="-57.8" font-family="Times,serif" font-size="14.00">1</text>
</g>
<!-- weapon/g_api_UpdateUnarmedAnim -->
<g id="node5" class="node">
<title>weapon/g_api_UpdateUnarmedAnim</title>
<g id="a_node5"><a xlink:href="g_api_UpdateUnarmedAnim.svg" xlink:title="weapon/g_api_UpdateUnarmedAnim">
<ellipse fill="lightblue" stroke="black" cx="1099.24" cy="-18" rx="179.27" ry="18"/>
<text text-anchor="middle" x="1099.24" y="-14.3" font-family="Times,serif" font-size="14.00">weapon/g_api_UpdateUnarmedAnim</text>
</a>
</g>
</g>
<!-- weapon/func_DD000_8017ACB8&#45;&gt;weapon/g_api_UpdateUnarmedAnim -->
<g id="edge4" class="edge">
<title>weapon/func_DD000_8017ACB8&#45;&gt;weapon/g_api_UpdateUnarmedAnim</title>
<path fill="none" stroke="black" d="M846.82,-88.21C898.93,-73.92 975.75,-52.86 1030.95,-37.72"/>
<polygon fill="black" stroke="black" points="1031.93,-41.08 1040.65,-35.06 1030.08,-34.33 1031.93,-41.08"/>
<text text-anchor="middle" x="968.24" y="-57.8" font-family="Times,serif" font-size="14.00">1</text>
</g>
<!-- weapon/func_DD000_8017A918 -->
<g id="node6" class="node">
<title>weapon/func_DD000_8017A918</title>
<g id="a_node6"><a xlink:href="func_DD000_8017A918.svg" xlink:title="weapon/func_DD000_8017A918">
<ellipse fill="red" stroke="black" cx="1454.24" cy="-18" rx="157.07" ry="18"/>
<text text-anchor="middle" x="1454.24" y="-14.3" font-family="Times,serif" font-size="14.00">weapon/func_DD000_8017A918</text>
</a>
</g>
</g>
<!-- weapon/func_DD000_8017ACB8&#45;&gt;weapon/func_DD000_8017A918 -->
<g id="edge5" class="edge">
<title>weapon/func_DD000_8017ACB8&#45;&gt;weapon/func_DD000_8017A918</title>
<path fill="none" stroke="black" d="M890.6,-91.04C1012.73,-75.43 1217.21,-49.3 1343.42,-33.16"/>
<polygon fill="black" stroke="black" points="1344.02,-36.62 1353.5,-31.88 1343.13,-29.67 1344.02,-36.62"/>
<text text-anchor="middle" x="1167.24" y="-57.8" font-family="Times,serif" font-size="14.00">1</text>
</g>
</g>
</svg>
