<?xml version="1.0" encoding="UTF-8" standalone="no"?>
<!DOCTYPE svg PUBLIC "-//W3C//DTD SVG 1.1//EN"
 "http://www.w3.org/Graphics/SVG/1.1/DTD/svg11.dtd">
<!-- Generated by graphviz version 2.43.0 (0)
 -->
<!-- Title: func_15B000_8017BA48 Pages: 1 -->
<svg width="1459pt" height="131pt"
 viewBox="0.00 0.00 1459.43 131.00" xmlns="http://www.w3.org/2000/svg" xmlns:xlink="http://www.w3.org/1999/xlink">
<g id="graph0" class="graph" transform="scale(1 1) rotate(0) translate(4 127)">
<title>func_15B000_8017BA48</title>
<polygon fill="white" stroke="transparent" points="-4,4 -4,-127 1455.43,-127 1455.43,4 -4,4"/>
<!-- weapon/func_15B000_8017BA48 -->
<g id="node1" class="node">
<title>weapon/func_15B000_8017BA48</title>
<ellipse fill="red" stroke="black" cx="926.49" cy="-105" rx="162.47" ry="18"/>
<text text-anchor="middle" x="926.49" y="-101.3" font-family="Times,serif" font-size="14.00">weapon/func_15B000_8017BA48</text>
</g>
<!-- weapon/g_api_func_80118894 -->
<g id="node2" class="node">
<title>weapon/g_api_func_80118894</title>
<g id="a_node2"><a xlink:href="g_api_func_80118894.svg" xlink:title="weapon/g_api_func_80118894">
<ellipse fill="lightblue" stroke="black" cx="149.49" cy="-18" rx="149.47" ry="18"/>
<text text-anchor="middle" x="149.49" y="-14.3" font-family="Times,serif" font-size="14.00">weapon/g_api_func_80118894</text>
</a>
</g>
</g>
<!-- weapon/func_15B000_8017BA48&#45;&gt;weapon/g_api_func_80118894 -->
<g id="edge1" class="edge">
<title>weapon/func_15B000_8017BA48&#45;&gt;weapon/g_api_func_80118894</title>
<path fill="none" stroke="black" d="M815.16,-91.82C669.23,-75.86 414.44,-47.98 265.99,-31.74"/>
<polygon fill="black" stroke="black" points="266.25,-28.25 255.93,-30.64 265.49,-35.21 266.25,-28.25"/>
<text text-anchor="middle" x="590.49" y="-57.8" font-family="Times,serif" font-size="14.00">1</text>
</g>
<!-- weapon/g_api_func_8011AAFC -->
<g id="node3" class="node">
<title>weapon/g_api_func_8011AAFC</title>
<g id="a_node3"><a xlink:href="g_api_func_8011AAFC.svg" xlink:title="weapon/g_api_func_8011AAFC">
<ellipse fill="lightblue" stroke="black" cx="468.49" cy="-18" rx="151.37" ry="18"/>
<text text-anchor="middle" x="468.49" y="-14.3" font-family="Times,serif" font-size="14.00">weapon/g_api_func_8011AAFC</text>
</a>
</g>
</g>
<!-- weapon/func_15B000_8017BA48&#45;&gt;weapon/g_api_func_8011AAFC -->
<g id="edge2" class="edge">
<title>weapon/func_15B000_8017BA48&#45;&gt;weapon/g_api_func_8011AAFC</title>
<path fill="none" stroke="black" d="M846.97,-89.24C765.99,-74.21 640.71,-50.96 556.71,-35.37"/>
<polygon fill="black" stroke="black" points="557.15,-31.9 546.68,-33.51 555.87,-38.78 557.15,-31.9"/>
<text text-anchor="middle" x="730.49" y="-57.8" font-family="Times,serif" font-size="14.00">1</text>
</g>
<!-- weapon/func_15B000_8017B14C -->
<g id="node4" class="node">
<title>weapon/func_15B000_8017B14C</title>
<g id="a_node4"><a xlink:href="func_15B000_8017B14C.svg" xlink:title="weapon/func_15B000_8017B14C">
<ellipse fill="red" stroke="black" cx="801.49" cy="-18" rx="163.27" ry="18"/>
<text text-anchor="middle" x="801.49" y="-14.3" font-family="Times,serif" font-size="14.00">weapon/func_15B000_8017B14C</text>
</a>
</g>
</g>
<!-- weapon/func_15B000_8017BA48&#45;&gt;weapon/func_15B000_8017B14C -->
<g id="edge3" class="edge">
<title>weapon/func_15B000_8017BA48&#45;&gt;weapon/func_15B000_8017B14C</title>
<path fill="none" stroke="black" d="M901.79,-87.21C882.66,-74.19 855.95,-56.03 834.9,-41.72"/>
<polygon fill="black" stroke="black" points="836.8,-38.78 826.56,-36.05 832.86,-44.57 836.8,-38.78"/>
<text text-anchor="middle" x="876.49" y="-57.8" font-family="Times,serif" font-size="14.00">1</text>
</g>
<!-- weapon/rcos -->
<g id="node5" class="node">
<title>weapon/rcos</title>
<g id="a_node5"><a xlink:href="rcos.svg" xlink:title="weapon/rcos">
<ellipse fill="lightblue" stroke="black" cx="1051.49" cy="-18" rx="68.79" ry="18"/>
<text text-anchor="middle" x="1051.49" y="-14.3" font-family="Times,serif" font-size="14.00">weapon/rcos</text>
</a>
</g>
</g>
<!-- weapon/func_15B000_8017BA48&#45;&gt;weapon/rcos -->
<g id="edge4" class="edge">
<title>weapon/func_15B000_8017BA48&#45;&gt;weapon/rcos</title>
<path fill="none" stroke="black" d="M951.18,-87.21C970.69,-73.94 998.08,-55.32 1019.3,-40.88"/>
<polygon fill="black" stroke="black" points="1021.39,-43.7 1027.69,-35.18 1017.45,-37.91 1021.39,-43.7"/>
<text text-anchor="middle" x="1001.49" y="-57.8" font-family="Times,serif" font-size="14.00">1</text>
</g>
<!-- weapon/rsin -->
<g id="node6" class="node">
<title>weapon/rsin</title>
<g id="a_node6"><a xlink:href="rsin.svg" xlink:title="weapon/rsin">
<ellipse fill="lightblue" stroke="black" cx="1205.49" cy="-18" rx="67.69" ry="18"/>
<text text-anchor="middle" x="1205.49" y="-14.3" font-family="Times,serif" font-size="14.00">weapon/rsin</text>
</a>
</g>
</g>
<!-- weapon/func_15B000_8017BA48&#45;&gt;weapon/rsin -->
<g id="edge5" class="edge">
<title>weapon/func_15B000_8017BA48&#45;&gt;weapon/rsin</title>
<path fill="none" stroke="black" d="M979.29,-87.91C1029.06,-72.75 1103.2,-50.16 1152.9,-35.02"/>
<polygon fill="black" stroke="black" points="1153.95,-38.36 1162.49,-32.1 1151.91,-31.66 1153.95,-38.36"/>
<text text-anchor="middle" x="1088.49" y="-57.8" font-family="Times,serif" font-size="14.00">1</text>
</g>
<!-- weapon/ratan2 -->
<g id="node7" class="node">
<title>weapon/ratan2</title>
<g id="a_node7"><a xlink:href="ratan2.svg" xlink:title="weapon/ratan2">
<ellipse fill="lightblue" stroke="black" cx="1371.49" cy="-18" rx="79.89" ry="18"/>
<text text-anchor="middle" x="1371.49" y="-14.3" font-family="Times,serif" font-size="14.00">weapon/ratan2</text>
</a>
</g>
</g>
<!-- weapon/func_15B000_8017BA48&#45;&gt;weapon/ratan2 -->
<g id="edge6" class="edge">
<title>weapon/func_15B000_8017BA48&#45;&gt;weapon/ratan2</title>
<path fill="none" stroke="black" d="M1004.25,-89.15C1088.59,-73.04 1221.94,-47.56 1302.63,-32.15"/>
<polygon fill="black" stroke="black" points="1303.52,-35.55 1312.68,-30.23 1302.2,-28.67 1303.52,-35.55"/>
<text text-anchor="middle" x="1181.49" y="-57.8" font-family="Times,serif" font-size="14.00">1</text>
</g>
</g>
</svg>
