<?xml version="1.0" encoding="UTF-8" standalone="no"?>
<!DOCTYPE svg PUBLIC "-//W3C//DTD SVG 1.1//EN"
 "http://www.w3.org/Graphics/SVG/1.1/DTD/svg11.dtd">
<!-- Generated by graphviz version 2.43.0 (0)
 -->
<!-- Title: func_8019F304 Pages: 1 -->
<svg width="627pt" height="131pt"
 viewBox="0.00 0.00 626.58 131.00" xmlns="http://www.w3.org/2000/svg" xmlns:xlink="http://www.w3.org/1999/xlink">
<g id="graph0" class="graph" transform="scale(1 1) rotate(0) translate(4 127)">
<title>func_8019F304</title>
<polygon fill="white" stroke="transparent" points="-4,4 -4,-127 622.58,-127 622.58,4 -4,4"/>
<!-- dre/func_8019F304 -->
<g id="node1" class="node">
<title>dre/func_8019F304</title>
<ellipse fill="green" stroke="black" cx="233.59" cy="-105" rx="100.98" ry="18"/>
<text text-anchor="middle" x="233.59" y="-101.3" font-family="Times,serif" font-size="14.00">dre/func_8019F304</text>
</g>
<!-- dre/Random -->
<g id="node2" class="node">
<title>dre/Random</title>
<g id="a_node2"><a xlink:href="Random.svg" xlink:title="dre/Random">
<ellipse fill="green" stroke="black" cx="67.59" cy="-18" rx="67.69" ry="18"/>
<text text-anchor="middle" x="67.59" y="-14.3" font-family="Times,serif" font-size="14.00">dre/Random</text>
</a>
</g>
</g>
<!-- dre/func_8019F304&#45;&gt;dre/Random -->
<g id="edge1" class="edge">
<title>dre/func_8019F304&#45;&gt;dre/Random</title>
<path fill="none" stroke="black" d="M201.98,-87.81C174.82,-73.9 135.55,-53.8 106.47,-38.91"/>
<polygon fill="black" stroke="black" points="107.91,-35.71 97.42,-34.27 104.72,-41.94 107.91,-35.71"/>
<text text-anchor="middle" x="165.59" y="-57.8" font-family="Times,serif" font-size="14.00">2</text>
</g>
<!-- dre/AllocEntity -->
<g id="node3" class="node">
<title>dre/AllocEntity</title>
<g id="a_node3"><a xlink:href="AllocEntity.svg" xlink:title="dre/AllocEntity">
<ellipse fill="green" stroke="black" cx="233.59" cy="-18" rx="80.69" ry="18"/>
<text text-anchor="middle" x="233.59" y="-14.3" font-family="Times,serif" font-size="14.00">dre/AllocEntity</text>
</a>
</g>
</g>
<!-- dre/func_8019F304&#45;&gt;dre/AllocEntity -->
<g id="edge2" class="edge">
<title>dre/func_8019F304&#45;&gt;dre/AllocEntity</title>
<path fill="none" stroke="black" d="M233.59,-86.8C233.59,-75.16 233.59,-59.55 233.59,-46.24"/>
<polygon fill="black" stroke="black" points="237.09,-46.18 233.59,-36.18 230.09,-46.18 237.09,-46.18"/>
<text text-anchor="middle" x="238.59" y="-57.8" font-family="Times,serif" font-size="14.00">1</text>
</g>
<!-- dre/CreateEntityFromEntity -->
<g id="node4" class="node">
<title>dre/CreateEntityFromEntity</title>
<g id="a_node4"><a xlink:href="CreateEntityFromEntity.svg" xlink:title="dre/CreateEntityFromEntity">
<ellipse fill="green" stroke="black" cx="475.59" cy="-18" rx="142.97" ry="18"/>
<text text-anchor="middle" x="475.59" y="-14.3" font-family="Times,serif" font-size="14.00">dre/CreateEntityFromEntity</text>
</a>
</g>
</g>
<!-- dre/func_8019F304&#45;&gt;dre/CreateEntityFromEntity -->
<g id="edge3" class="edge">
<title>dre/func_8019F304&#45;&gt;dre/CreateEntityFromEntity</title>
<path fill="none" stroke="black" d="M277.14,-88.71C317.12,-74.66 376.56,-53.79 419.96,-38.54"/>
<polygon fill="black" stroke="black" points="421.24,-41.8 429.52,-35.18 418.92,-35.2 421.24,-41.8"/>
<text text-anchor="middle" x="374.59" y="-57.8" font-family="Times,serif" font-size="14.00">1</text>
</g>
</g>
</svg>
