<?xml version="1.0" encoding="UTF-8" standalone="no"?>
<!DOCTYPE svg PUBLIC "-//W3C//DTD SVG 1.1//EN"
 "http://www.w3.org/Graphics/SVG/1.1/DTD/svg11.dtd">
<!-- Generated by graphviz version 2.43.0 (0)
 -->
<!-- Title: func_800F53D4 Pages: 1 -->
<svg width="875pt" height="218pt"
 viewBox="0.00 0.00 874.63 218.00" xmlns="http://www.w3.org/2000/svg" xmlns:xlink="http://www.w3.org/1999/xlink">
<g id="graph0" class="graph" transform="scale(1 1) rotate(0) translate(4 214)">
<title>func_800F53D4</title>
<polygon fill="white" stroke="transparent" points="-4,4 -4,-214 870.63,-214 870.63,4 -4,4"/>
<!-- dra/func_800F53D4 -->
<g id="node1" class="node">
<title>dra/func_800F53D4</title>
<ellipse fill="green" stroke="black" cx="434.74" cy="-105" rx="102.88" ry="18"/>
<text text-anchor="middle" x="434.74" y="-101.3" font-family="Times,serif" font-size="14.00">dra/func_800F53D4</text>
</g>
<!-- dra/SetDrawMode -->
<g id="node2" class="node">
<title>dra/SetDrawMode</title>
<g id="a_node2"><a xlink:href="SetDrawMode.svg" xlink:title="dra/SetDrawMode">
<ellipse fill="lightblue" stroke="black" cx="343.74" cy="-18" rx="95.58" ry="18"/>
<text text-anchor="middle" x="343.74" y="-14.3" font-family="Times,serif" font-size="14.00">dra/SetDrawMode</text>
</a>
</g>
</g>
<!-- dra/func_800F53D4&#45;&gt;dra/SetDrawMode -->
<g id="edge1" class="edge">
<title>dra/func_800F53D4&#45;&gt;dra/SetDrawMode</title>
<path fill="none" stroke="black" d="M416.76,-87.21C403.18,-74.52 384.35,-56.93 369.21,-42.79"/>
<polygon fill="black" stroke="black" points="371.38,-40.03 361.68,-35.76 366.6,-45.14 371.38,-40.03"/>
<text text-anchor="middle" x="399.74" y="-57.8" font-family="Times,serif" font-size="14.00">1</text>
</g>
<!-- dra/AddPrim -->
<g id="node3" class="node">
<title>dra/AddPrim</title>
<g id="a_node3"><a xlink:href="AddPrim.svg" xlink:title="dra/AddPrim">
<ellipse fill="lightblue" stroke="black" cx="526.74" cy="-18" rx="69.59" ry="18"/>
<text text-anchor="middle" x="526.74" y="-14.3" font-family="Times,serif" font-size="14.00">dra/AddPrim</text>
</a>
</g>
</g>
<!-- dra/func_800F53D4&#45;&gt;dra/AddPrim -->
<g id="edge2" class="edge">
<title>dra/func_800F53D4&#45;&gt;dra/AddPrim</title>
<path fill="none" stroke="black" d="M452.92,-87.21C466.74,-74.43 485.94,-56.7 501.29,-42.52"/>
<polygon fill="black" stroke="black" points="503.95,-44.83 508.92,-35.47 499.2,-39.68 503.95,-44.83"/>
<text text-anchor="middle" x="491.74" y="-57.8" font-family="Times,serif" font-size="14.00">1</text>
</g>
<!-- dra/func_800F5904 -->
<g id="node4" class="node">
<title>dra/func_800F5904</title>
<g id="a_node4"><a xlink:href="func_800F5904.svg" xlink:title="dra/func_800F5904">
<ellipse fill="red" stroke="black" cx="100.74" cy="-192" rx="100.98" ry="18"/>
<text text-anchor="middle" x="100.74" y="-188.3" font-family="Times,serif" font-size="14.00">dra/func_800F5904</text>
</a>
</g>
</g>
<!-- dra/func_800F5904&#45;&gt;dra/func_800F53D4 -->
<g id="edge3" class="edge">
<title>dra/func_800F5904&#45;&gt;dra/func_800F53D4</title>
<path fill="none" stroke="black" d="M156.27,-176.87C214.9,-161.95 307.28,-138.44 369.38,-122.63"/>
<polygon fill="black" stroke="black" points="370.25,-126.02 379.08,-120.17 368.53,-119.24 370.25,-126.02"/>
<text text-anchor="middle" x="292.74" y="-144.8" font-family="Times,serif" font-size="14.00">1</text>
</g>
<!-- dra/DrawMenuRect -->
<g id="node5" class="node">
<title>dra/DrawMenuRect</title>
<g id="a_node5"><a xlink:href="DrawMenuRect.svg" xlink:title="dra/DrawMenuRect">
<ellipse fill="green" stroke="black" cx="320.74" cy="-192" rx="101.28" ry="18"/>
<text text-anchor="middle" x="320.74" y="-188.3" font-family="Times,serif" font-size="14.00">dra/DrawMenuRect</text>
</a>
</g>
</g>
<!-- dra/DrawMenuRect&#45;&gt;dra/func_800F53D4 -->
<g id="edge4" class="edge">
<title>dra/DrawMenuRect&#45;&gt;dra/func_800F53D4</title>
<path fill="none" stroke="black" d="M342.99,-174.41C360.38,-161.45 384.74,-143.28 403.99,-128.93"/>
<polygon fill="black" stroke="black" points="406.23,-131.62 412.16,-122.84 402.05,-126.01 406.23,-131.62"/>
<text text-anchor="middle" x="389.74" y="-144.8" font-family="Times,serif" font-size="14.00">1</text>
</g>
<!-- dra/DrawMenuSprite -->
<g id="node6" class="node">
<title>dra/DrawMenuSprite</title>
<g id="a_node6"><a xlink:href="DrawMenuSprite.svg" xlink:title="dra/DrawMenuSprite">
<ellipse fill="green" stroke="black" cx="549.74" cy="-192" rx="109.38" ry="18"/>
<text text-anchor="middle" x="549.74" y="-188.3" font-family="Times,serif" font-size="14.00">dra/DrawMenuSprite</text>
</a>
</g>
</g>
<!-- dra/DrawMenuSprite&#45;&gt;dra/func_800F53D4 -->
<g id="edge5" class="edge">
<title>dra/DrawMenuSprite&#45;&gt;dra/func_800F53D4</title>
<path fill="none" stroke="black" d="M527.02,-174.21C509.46,-161.23 484.96,-143.12 465.62,-128.83"/>
<polygon fill="black" stroke="black" points="467.54,-125.89 457.41,-122.76 463.38,-131.52 467.54,-125.89"/>
<text text-anchor="middle" x="504.74" y="-144.8" font-family="Times,serif" font-size="14.00">1</text>
</g>
<!-- dra/DrawMenuStr -->
<g id="node7" class="node">
<title>dra/DrawMenuStr</title>
<g id="a_node7"><a xlink:href="DrawMenuStr.svg" xlink:title="dra/DrawMenuStr">
<ellipse fill="green" stroke="black" cx="771.74" cy="-192" rx="94.78" ry="18"/>
<text text-anchor="middle" x="771.74" y="-188.3" font-family="Times,serif" font-size="14.00">dra/DrawMenuStr</text>
</a>
</g>
</g>
<!-- dra/DrawMenuStr&#45;&gt;dra/func_800F53D4 -->
<g id="edge6" class="edge">
<title>dra/DrawMenuStr&#45;&gt;dra/func_800F53D4</title>
<path fill="none" stroke="black" d="M717.22,-177.25C658.16,-162.35 563.93,-138.59 500.73,-122.65"/>
<polygon fill="black" stroke="black" points="501.42,-119.21 490.87,-120.16 499.71,-126 501.42,-119.21"/>
<text text-anchor="middle" x="628.74" y="-144.8" font-family="Times,serif" font-size="14.00">1</text>
</g>
</g>
</svg>
