<?xml version="1.0" encoding="UTF-8" standalone="no"?>
<!DOCTYPE svg PUBLIC "-//W3C//DTD SVG 1.1//EN"
 "http://www.w3.org/Graphics/SVG/1.1/DTD/svg11.dtd">
<!-- Generated by graphviz version 2.43.0 (0)
 -->
<!-- Title: func_9E000_8017ADB0 Pages: 1 -->
<svg width="981pt" height="131pt"
 viewBox="0.00 0.00 981.32 131.00" xmlns="http://www.w3.org/2000/svg" xmlns:xlink="http://www.w3.org/1999/xlink">
<g id="graph0" class="graph" transform="scale(1 1) rotate(0) translate(4 127)">
<title>func_9E000_8017ADB0</title>
<polygon fill="white" stroke="transparent" points="-4,4 -4,-127 977.32,-127 977.32,4 -4,4"/>
<!-- weapon/func_9E000_8017ADB0 -->
<g id="node1" class="node">
<title>weapon/func_9E000_8017ADB0</title>
<ellipse fill="red" stroke="black" cx="486.99" cy="-105" rx="157.87" ry="18"/>
<text text-anchor="middle" x="486.99" y="-101.3" font-family="Times,serif" font-size="14.00">weapon/func_9E000_8017ADB0</text>
</g>
<!-- weapon/func_9E000_8017AA20 -->
<g id="node2" class="node">
<title>weapon/func_9E000_8017AA20</title>
<g id="a_node2"><a xlink:href="func_9E000_8017AA20.svg" xlink:title="weapon/func_9E000_8017AA20">
<ellipse fill="red" stroke="black" cx="155.99" cy="-18" rx="155.97" ry="18"/>
<text text-anchor="middle" x="155.99" y="-14.3" font-family="Times,serif" font-size="14.00">weapon/func_9E000_8017AA20</text>
</a>
</g>
</g>
<!-- weapon/func_9E000_8017ADB0&#45;&gt;weapon/func_9E000_8017AA20 -->
<g id="edge1" class="edge">
<title>weapon/func_9E000_8017ADB0&#45;&gt;weapon/func_9E000_8017AA20</title>
<path fill="none" stroke="black" d="M425.89,-88.31C369.56,-73.85 285.96,-52.38 226.75,-37.17"/>
<polygon fill="black" stroke="black" points="227.28,-33.7 216.73,-34.6 225.54,-40.48 227.28,-33.7"/>
<text text-anchor="middle" x="346.99" y="-57.8" font-family="Times,serif" font-size="14.00">1</text>
</g>
<!-- weapon/func_9E000_8017AAB8 -->
<g id="node3" class="node">
<title>weapon/func_9E000_8017AAB8</title>
<g id="a_node3"><a xlink:href="func_9E000_8017AAB8.svg" xlink:title="weapon/func_9E000_8017AAB8">
<ellipse fill="red" stroke="black" cx="486.99" cy="-18" rx="157.07" ry="18"/>
<text text-anchor="middle" x="486.99" y="-14.3" font-family="Times,serif" font-size="14.00">weapon/func_9E000_8017AAB8</text>
</a>
</g>
</g>
<!-- weapon/func_9E000_8017ADB0&#45;&gt;weapon/func_9E000_8017AAB8 -->
<g id="edge2" class="edge">
<title>weapon/func_9E000_8017ADB0&#45;&gt;weapon/func_9E000_8017AAB8</title>
<path fill="none" stroke="black" d="M486.99,-86.8C486.99,-75.16 486.99,-59.55 486.99,-46.24"/>
<polygon fill="black" stroke="black" points="490.49,-46.18 486.99,-36.18 483.49,-46.18 490.49,-46.18"/>
<text text-anchor="middle" x="491.99" y="-57.8" font-family="Times,serif" font-size="14.00">1</text>
</g>
<!-- weapon/func_9E000_8017A814 -->
<g id="node4" class="node">
<title>weapon/func_9E000_8017A814</title>
<g id="a_node4"><a xlink:href="func_9E000_8017A814.svg" xlink:title="weapon/func_9E000_8017A814">
<ellipse fill="red" stroke="black" cx="817.99" cy="-18" rx="155.17" ry="18"/>
<text text-anchor="middle" x="817.99" y="-14.3" font-family="Times,serif" font-size="14.00">weapon/func_9E000_8017A814</text>
</a>
</g>
</g>
<!-- weapon/func_9E000_8017ADB0&#45;&gt;weapon/func_9E000_8017A814 -->
<g id="edge3" class="edge">
<title>weapon/func_9E000_8017ADB0&#45;&gt;weapon/func_9E000_8017A814</title>
<path fill="none" stroke="black" d="M548.08,-88.31C604.41,-73.85 688.02,-52.38 747.23,-37.17"/>
<polygon fill="black" stroke="black" points="748.43,-40.48 757.25,-34.6 746.69,-33.7 748.43,-40.48"/>
<text text-anchor="middle" x="677.99" y="-57.8" font-family="Times,serif" font-size="14.00">1</text>
</g>
</g>
</svg>
