<?xml version="1.0" encoding="UTF-8" standalone="no"?>
<!DOCTYPE svg PUBLIC "-//W3C//DTD SVG 1.1//EN"
 "http://www.w3.org/Graphics/SVG/1.1/DTD/svg11.dtd">
<!-- Generated by graphviz version 2.43.0 (0)
 -->
<!-- Title: func_801CE04C Pages: 1 -->
<svg width="870pt" height="218pt"
 viewBox="0.00 0.00 870.28 218.00" xmlns="http://www.w3.org/2000/svg" xmlns:xlink="http://www.w3.org/1999/xlink">
<g id="graph0" class="graph" transform="scale(1 1) rotate(0) translate(4 214)">
<title>func_801CE04C</title>
<polygon fill="white" stroke="transparent" points="-4,4 -4,-214 866.28,-214 866.28,4 -4,4"/>
<!-- np3/func_801CE04C -->
<g id="node1" class="node">
<title>np3/func_801CE04C</title>
<ellipse fill="green" stroke="black" cx="435.29" cy="-105" rx="105.08" ry="18"/>
<text text-anchor="middle" x="435.29" y="-101.3" font-family="Times,serif" font-size="14.00">np3/func_801CE04C</text>
</g>
<!-- np3/g_api_CheckCollision -->
<g id="node2" class="node">
<title>np3/g_api_CheckCollision</title>
<g id="a_node2"><a xlink:href="g_api_CheckCollision.svg" xlink:title="np3/g_api_CheckCollision">
<ellipse fill="lightblue" stroke="black" cx="435.29" cy="-18" rx="128.08" ry="18"/>
<text text-anchor="middle" x="435.29" y="-14.3" font-family="Times,serif" font-size="14.00">np3/g_api_CheckCollision</text>
</a>
</g>
</g>
<!-- np3/func_801CE04C&#45;&gt;np3/g_api_CheckCollision -->
<g id="edge1" class="edge">
<title>np3/func_801CE04C&#45;&gt;np3/g_api_CheckCollision</title>
<path fill="none" stroke="black" d="M435.29,-86.8C435.29,-75.16 435.29,-59.55 435.29,-46.24"/>
<polygon fill="black" stroke="black" points="438.79,-46.18 435.29,-36.18 431.79,-46.18 438.79,-46.18"/>
<text text-anchor="middle" x="440.29" y="-57.8" font-family="Times,serif" font-size="14.00">1</text>
</g>
<!-- np3/func_801D0D40 -->
<g id="node3" class="node">
<title>np3/func_801D0D40</title>
<g id="a_node3"><a xlink:href="func_801D0D40.svg" xlink:title="np3/func_801D0D40">
<ellipse fill="red" stroke="black" cx="105.29" cy="-192" rx="105.08" ry="18"/>
<text text-anchor="middle" x="105.29" y="-188.3" font-family="Times,serif" font-size="14.00">np3/func_801D0D40</text>
</a>
</g>
</g>
<!-- np3/func_801D0D40&#45;&gt;np3/func_801CE04C -->
<g id="edge2" class="edge">
<title>np3/func_801D0D40&#45;&gt;np3/func_801CE04C</title>
<path fill="none" stroke="black" d="M160.9,-176.68C218.58,-161.82 308.72,-138.6 369.81,-122.87"/>
<polygon fill="black" stroke="black" points="370.92,-126.19 379.73,-120.31 369.17,-119.42 370.92,-126.19"/>
<text text-anchor="middle" x="295.29" y="-144.8" font-family="Times,serif" font-size="14.00">3</text>
</g>
<!-- np3/EntityHammer -->
<g id="node4" class="node">
<title>np3/EntityHammer</title>
<g id="a_node4"><a xlink:href="EntityHammer.svg" xlink:title="np3/EntityHammer">
<ellipse fill="red" stroke="black" cx="329.29" cy="-192" rx="100.98" ry="18"/>
<text text-anchor="middle" x="329.29" y="-188.3" font-family="Times,serif" font-size="14.00">np3/EntityHammer</text>
</a>
</g>
</g>
<!-- np3/EntityHammer&#45;&gt;np3/func_801CE04C -->
<g id="edge3" class="edge">
<title>np3/EntityHammer&#45;&gt;np3/func_801CE04C</title>
<path fill="none" stroke="black" d="M350.23,-174.21C366.35,-161.28 388.8,-143.28 406.59,-129.02"/>
<polygon fill="black" stroke="black" points="408.78,-131.74 414.39,-122.76 404.4,-126.28 408.78,-131.74"/>
<text text-anchor="middle" x="394.29" y="-144.8" font-family="Times,serif" font-size="14.00">3</text>
</g>
<!-- np3/EntityGurkha -->
<g id="node5" class="node">
<title>np3/EntityGurkha</title>
<g id="a_node5"><a xlink:href="EntityGurkha.svg" xlink:title="np3/EntityGurkha">
<ellipse fill="red" stroke="black" cx="542.29" cy="-192" rx="94.48" ry="18"/>
<text text-anchor="middle" x="542.29" y="-188.3" font-family="Times,serif" font-size="14.00">np3/EntityGurkha</text>
</a>
</g>
</g>
<!-- np3/EntityGurkha&#45;&gt;np3/func_801CE04C -->
<g id="edge4" class="edge">
<title>np3/EntityGurkha&#45;&gt;np3/func_801CE04C</title>
<path fill="none" stroke="black" d="M521.41,-174.41C505.16,-161.51 482.43,-143.45 464.4,-129.13"/>
<polygon fill="black" stroke="black" points="466.5,-126.32 456.49,-122.84 462.14,-131.8 466.5,-126.32"/>
<text text-anchor="middle" x="500.29" y="-144.8" font-family="Times,serif" font-size="14.00">3</text>
</g>
<!-- np3/func_801CF254 -->
<g id="node6" class="node">
<title>np3/func_801CF254</title>
<g id="a_node6"><a xlink:href="func_801CF254.svg" xlink:title="np3/func_801CF254">
<ellipse fill="red" stroke="black" cx="758.29" cy="-192" rx="103.98" ry="18"/>
<text text-anchor="middle" x="758.29" y="-188.3" font-family="Times,serif" font-size="14.00">np3/func_801CF254</text>
</a>
</g>
</g>
<!-- np3/func_801CF254&#45;&gt;np3/func_801CE04C -->
<g id="edge5" class="edge">
<title>np3/func_801CF254&#45;&gt;np3/func_801CE04C</title>
<path fill="none" stroke="black" d="M703.5,-176.58C647.15,-161.75 559.43,-138.67 499.77,-122.97"/>
<polygon fill="black" stroke="black" points="500.64,-119.58 490.08,-120.42 498.86,-126.35 500.64,-119.58"/>
<text text-anchor="middle" x="621.29" y="-144.8" font-family="Times,serif" font-size="14.00">1</text>
</g>
</g>
</svg>
