<?xml version="1.0" encoding="UTF-8" standalone="no"?>
<!DOCTYPE svg PUBLIC "-//W3C//DTD SVG 1.1//EN"
 "http://www.w3.org/Graphics/SVG/1.1/DTD/svg11.dtd">
<!-- Generated by graphviz version 2.43.0 (0)
 -->
<!-- Title: func_800F2014 Pages: 1 -->
<svg width="436pt" height="218pt"
 viewBox="0.00 0.00 435.73 218.00" xmlns="http://www.w3.org/2000/svg" xmlns:xlink="http://www.w3.org/1999/xlink">
<g id="graph0" class="graph" transform="scale(1 1) rotate(0) translate(4 214)">
<title>func_800F2014</title>
<polygon fill="white" stroke="transparent" points="-4,4 -4,-214 431.73,-214 431.73,4 -4,4"/>
<!-- dra/func_800F2014 -->
<g id="node1" class="node">
<title>dra/func_800F2014</title>
<ellipse fill="red" stroke="black" cx="213.04" cy="-105" rx="100.98" ry="18"/>
<text text-anchor="middle" x="213.04" y="-101.3" font-family="Times,serif" font-size="14.00">dra/func_800F2014</text>
</g>
<!-- dra/func_800F1B08 -->
<g id="node2" class="node">
<title>dra/func_800F1B08</title>
<g id="a_node2"><a xlink:href="func_800F1B08.svg" xlink:title="dra/func_800F1B08">
<ellipse fill="red" stroke="black" cx="102.04" cy="-18" rx="102.08" ry="18"/>
<text text-anchor="middle" x="102.04" y="-14.3" font-family="Times,serif" font-size="14.00">dra/func_800F1B08</text>
</a>
</g>
</g>
<!-- dra/func_800F2014&#45;&gt;dra/func_800F1B08 -->
<g id="edge1" class="edge">
<title>dra/func_800F2014&#45;&gt;dra/func_800F1B08</title>
<path fill="none" stroke="black" d="M191.38,-87.41C174.45,-74.45 150.73,-56.28 131.99,-41.93"/>
<polygon fill="black" stroke="black" points="134.1,-39.14 124.03,-35.84 129.84,-44.7 134.1,-39.14"/>
<text text-anchor="middle" x="170.04" y="-57.8" font-family="Times,serif" font-size="14.00">1</text>
</g>
<!-- dra/func_800F1EB0 -->
<g id="node3" class="node">
<title>dra/func_800F1EB0</title>
<g id="a_node3"><a xlink:href="func_800F1EB0.svg" xlink:title="dra/func_800F1EB0">
<ellipse fill="red" stroke="black" cx="325.04" cy="-18" rx="102.88" ry="18"/>
<text text-anchor="middle" x="325.04" y="-14.3" font-family="Times,serif" font-size="14.00">dra/func_800F1EB0</text>
</a>
</g>
</g>
<!-- dra/func_800F2014&#45;&gt;dra/func_800F1EB0 -->
<g id="edge2" class="edge">
<title>dra/func_800F2014&#45;&gt;dra/func_800F1EB0</title>
<path fill="none" stroke="black" d="M234.9,-87.41C251.98,-74.45 275.91,-56.28 294.82,-41.93"/>
<polygon fill="black" stroke="black" points="297,-44.67 302.85,-35.84 292.77,-39.1 297,-44.67"/>
<text text-anchor="middle" x="280.04" y="-57.8" font-family="Times,serif" font-size="14.00">1</text>
</g>
<!-- dra/func_800F298C -->
<g id="node4" class="node">
<title>dra/func_800F298C</title>
<g id="a_node4"><a xlink:href="func_800F298C.svg" xlink:title="dra/func_800F298C">
<ellipse fill="red" stroke="black" cx="213.04" cy="-192" rx="102.08" ry="18"/>
<text text-anchor="middle" x="213.04" y="-188.3" font-family="Times,serif" font-size="14.00">dra/func_800F298C</text>
</a>
</g>
</g>
<!-- dra/func_800F298C&#45;&gt;dra/func_800F2014 -->
<g id="edge3" class="edge">
<title>dra/func_800F298C&#45;&gt;dra/func_800F2014</title>
<path fill="none" stroke="black" d="M213.04,-173.8C213.04,-162.16 213.04,-146.55 213.04,-133.24"/>
<polygon fill="black" stroke="black" points="216.54,-133.18 213.04,-123.18 209.54,-133.18 216.54,-133.18"/>
<text text-anchor="middle" x="218.04" y="-144.8" font-family="Times,serif" font-size="14.00">1</text>
</g>
</g>
</svg>
