<?xml version="1.0" encoding="UTF-8" standalone="no"?>
<!DOCTYPE svg PUBLIC "-//W3C//DTD SVG 1.1//EN"
 "http://www.w3.org/Graphics/SVG/1.1/DTD/svg11.dtd">
<!-- Generated by graphviz version 2.43.0 (0)
 -->
<!-- Title: func_801BCB5C Pages: 1 -->
<svg width="1097pt" height="218pt"
 viewBox="0.00 0.00 1097.43 218.00" xmlns="http://www.w3.org/2000/svg" xmlns:xlink="http://www.w3.org/1999/xlink">
<g id="graph0" class="graph" transform="scale(1 1) rotate(0) translate(4 214)">
<title>func_801BCB5C</title>
<polygon fill="white" stroke="transparent" points="-4,4 -4,-214 1093.43,-214 1093.43,4 -4,4"/>
<!-- np3/func_801BCB5C -->
<g id="node1" class="node">
<title>np3/func_801BCB5C</title>
<ellipse fill="green" stroke="black" cx="528.79" cy="-105" rx="106.68" ry="18"/>
<text text-anchor="middle" x="528.79" y="-101.3" font-family="Times,serif" font-size="14.00">np3/func_801BCB5C</text>
</g>
<!-- np3/g_api_CheckCollision -->
<g id="node2" class="node">
<title>np3/g_api_CheckCollision</title>
<g id="a_node2"><a xlink:href="g_api_CheckCollision.svg" xlink:title="np3/g_api_CheckCollision">
<ellipse fill="lightblue" stroke="black" cx="528.79" cy="-18" rx="128.08" ry="18"/>
<text text-anchor="middle" x="528.79" y="-14.3" font-family="Times,serif" font-size="14.00">np3/g_api_CheckCollision</text>
</a>
</g>
</g>
<!-- np3/func_801BCB5C&#45;&gt;np3/g_api_CheckCollision -->
<g id="edge1" class="edge">
<title>np3/func_801BCB5C&#45;&gt;np3/g_api_CheckCollision</title>
<path fill="none" stroke="black" d="M528.79,-86.8C528.79,-75.16 528.79,-59.55 528.79,-46.24"/>
<polygon fill="black" stroke="black" points="532.29,-46.18 528.79,-36.18 525.29,-46.18 532.29,-46.18"/>
<text text-anchor="middle" x="533.79" y="-57.8" font-family="Times,serif" font-size="14.00">3</text>
</g>
<!-- np3/EntityMerman -->
<g id="node3" class="node">
<title>np3/EntityMerman</title>
<g id="a_node3"><a xlink:href="EntityMerman.svg" xlink:title="np3/EntityMerman">
<ellipse fill="red" stroke="black" cx="98.79" cy="-192" rx="98.58" ry="18"/>
<text text-anchor="middle" x="98.79" y="-188.3" font-family="Times,serif" font-size="14.00">np3/EntityMerman</text>
</a>
</g>
</g>
<!-- np3/EntityMerman&#45;&gt;np3/func_801BCB5C -->
<g id="edge2" class="edge">
<title>np3/EntityMerman&#45;&gt;np3/func_801BCB5C</title>
<path fill="none" stroke="black" d="M163.17,-178.27C240.42,-163 369.82,-137.42 452.16,-121.15"/>
<polygon fill="black" stroke="black" points="453.07,-124.54 462.21,-119.16 451.72,-117.67 453.07,-124.54"/>
<text text-anchor="middle" x="344.79" y="-144.8" font-family="Times,serif" font-size="14.00">1</text>
</g>
<!-- np3/EntityZombie -->
<g id="node4" class="node">
<title>np3/EntityZombie</title>
<g id="a_node4"><a xlink:href="EntityZombie.svg" xlink:title="np3/EntityZombie">
<ellipse fill="green" stroke="black" cx="310.79" cy="-192" rx="94.78" ry="18"/>
<text text-anchor="middle" x="310.79" y="-188.3" font-family="Times,serif" font-size="14.00">np3/EntityZombie</text>
</a>
</g>
</g>
<!-- np3/EntityZombie&#45;&gt;np3/func_801BCB5C -->
<g id="edge3" class="edge">
<title>np3/EntityZombie&#45;&gt;np3/func_801BCB5C</title>
<path fill="none" stroke="black" d="M350.27,-175.61C386.35,-161.54 439.88,-140.67 478.91,-125.45"/>
<polygon fill="black" stroke="black" points="480.45,-128.6 488.5,-121.71 477.91,-122.08 480.45,-128.6"/>
<text text-anchor="middle" x="438.79" y="-144.8" font-family="Times,serif" font-size="14.00">1</text>
</g>
<!-- np3/func_801C90E8 -->
<g id="node5" class="node">
<title>np3/func_801C90E8</title>
<g id="a_node5"><a xlink:href="func_801C90E8.svg" xlink:title="np3/func_801C90E8">
<ellipse fill="green" stroke="black" cx="528.79" cy="-192" rx="104.78" ry="18"/>
<text text-anchor="middle" x="528.79" y="-188.3" font-family="Times,serif" font-size="14.00">np3/func_801C90E8</text>
</a>
</g>
</g>
<!-- np3/func_801C90E8&#45;&gt;np3/func_801BCB5C -->
<g id="edge4" class="edge">
<title>np3/func_801C90E8&#45;&gt;np3/func_801BCB5C</title>
<path fill="none" stroke="black" d="M528.79,-173.8C528.79,-162.16 528.79,-146.55 528.79,-133.24"/>
<polygon fill="black" stroke="black" points="532.29,-133.18 528.79,-123.18 525.29,-133.18 532.29,-133.18"/>
<text text-anchor="middle" x="533.79" y="-144.8" font-family="Times,serif" font-size="14.00">1</text>
</g>
<!-- np3/func_801CC2E0 -->
<g id="node6" class="node">
<title>np3/func_801CC2E0</title>
<g id="a_node6"><a xlink:href="func_801CC2E0.svg" xlink:title="np3/func_801CC2E0">
<ellipse fill="red" stroke="black" cx="756.79" cy="-192" rx="105.08" ry="18"/>
<text text-anchor="middle" x="756.79" y="-188.3" font-family="Times,serif" font-size="14.00">np3/func_801CC2E0</text>
</a>
</g>
</g>
<!-- np3/func_801CC2E0&#45;&gt;np3/func_801BCB5C -->
<g id="edge5" class="edge">
<title>np3/func_801CC2E0&#45;&gt;np3/func_801BCB5C</title>
<path fill="none" stroke="black" d="M714.97,-175.41C677.01,-161.26 620.89,-140.34 580.2,-125.17"/>
<polygon fill="black" stroke="black" points="581.32,-121.85 570.73,-121.64 578.88,-128.41 581.32,-121.85"/>
<text text-anchor="middle" x="661.79" y="-144.8" font-family="Times,serif" font-size="14.00">9</text>
</g>
<!-- np3/EntityMerman2 -->
<g id="node7" class="node">
<title>np3/EntityMerman2</title>
<g id="a_node7"><a xlink:href="EntityMerman2.svg" xlink:title="np3/EntityMerman2">
<ellipse fill="green" stroke="black" cx="984.79" cy="-192" rx="104.78" ry="18"/>
<text text-anchor="middle" x="984.79" y="-188.3" font-family="Times,serif" font-size="14.00">np3/EntityMerman2</text>
</a>
</g>
</g>
<!-- np3/EntityMerman2&#45;&gt;np3/func_801BCB5C -->
<g id="edge6" class="edge">
<title>np3/EntityMerman2&#45;&gt;np3/func_801BCB5C</title>
<path fill="none" stroke="black" d="M916.52,-178.27C833.75,-162.85 694.53,-136.89 607.36,-120.65"/>
<polygon fill="black" stroke="black" points="608,-117.2 597.53,-118.81 606.72,-124.09 608,-117.2"/>
<text text-anchor="middle" x="789.79" y="-144.8" font-family="Times,serif" font-size="14.00">1</text>
</g>
</g>
</svg>
