<?xml version="1.0" encoding="UTF-8" standalone="no"?>
<!DOCTYPE svg PUBLIC "-//W3C//DTD SVG 1.1//EN"
 "http://www.w3.org/Graphics/SVG/1.1/DTD/svg11.dtd">
<!-- Generated by graphviz version 2.43.0 (0)
 -->
<!-- Title: func_800EAD7C Pages: 1 -->
<svg width="1475pt" height="218pt"
 viewBox="0.00 0.00 1474.58 218.00" xmlns="http://www.w3.org/2000/svg" xmlns:xlink="http://www.w3.org/1999/xlink">
<g id="graph0" class="graph" transform="scale(1 1) rotate(0) translate(4 214)">
<title>func_800EAD7C</title>
<polygon fill="white" stroke="transparent" points="-4,4 -4,-214 1470.58,-214 1470.58,4 -4,4"/>
<!-- dra/func_800EAD7C -->
<g id="node1" class="node">
<title>dra/func_800EAD7C</title>
<ellipse fill="green" stroke="black" cx="742.04" cy="-105" rx="104.78" ry="18"/>
<text text-anchor="middle" x="742.04" y="-101.3" font-family="Times,serif" font-size="14.00">dra/func_800EAD7C</text>
</g>
<!-- dra/GetClut -->
<g id="node2" class="node">
<title>dra/GetClut</title>
<g id="a_node2"><a xlink:href="GetClut.svg" xlink:title="dra/GetClut">
<ellipse fill="lightblue" stroke="black" cx="742.04" cy="-18" rx="65.79" ry="18"/>
<text text-anchor="middle" x="742.04" y="-14.3" font-family="Times,serif" font-size="14.00">dra/GetClut</text>
</a>
</g>
</g>
<!-- dra/func_800EAD7C&#45;&gt;dra/GetClut -->
<g id="edge1" class="edge">
<title>dra/func_800EAD7C&#45;&gt;dra/GetClut</title>
<path fill="none" stroke="black" d="M742.04,-86.8C742.04,-75.16 742.04,-59.55 742.04,-46.24"/>
<polygon fill="black" stroke="black" points="745.54,-46.18 742.04,-36.18 738.54,-46.18 745.54,-46.18"/>
<text text-anchor="middle" x="747.04" y="-57.8" font-family="Times,serif" font-size="14.00">3</text>
</g>
<!-- dra/func_800F298C -->
<g id="node3" class="node">
<title>dra/func_800F298C</title>
<g id="a_node3"><a xlink:href="func_800F298C.svg" xlink:title="dra/func_800F298C">
<ellipse fill="red" stroke="black" cx="102.04" cy="-192" rx="102.08" ry="18"/>
<text text-anchor="middle" x="102.04" y="-188.3" font-family="Times,serif" font-size="14.00">dra/func_800F298C</text>
</a>
</g>
</g>
<!-- dra/func_800F298C&#45;&gt;dra/func_800EAD7C -->
<g id="edge2" class="edge">
<title>dra/func_800F298C&#45;&gt;dra/func_800EAD7C</title>
<path fill="none" stroke="black" d="M175.74,-179.46C188.18,-177.58 200.98,-175.7 213.04,-174 365.6,-152.52 543.31,-130.23 649.03,-117.27"/>
<polygon fill="black" stroke="black" points="649.54,-120.73 659.04,-116.04 648.69,-113.78 649.54,-120.73"/>
<text text-anchor="middle" x="465.04" y="-144.8" font-family="Times,serif" font-size="14.00">1</text>
</g>
<!-- dra/entrypoint_sotn -->
<g id="node4" class="node">
<title>dra/entrypoint_sotn</title>
<g id="a_node4"><a xlink:href="entrypoint_sotn.svg" xlink:title="dra/entrypoint_sotn">
<ellipse fill="green" stroke="black" cx="325.04" cy="-192" rx="102.88" ry="18"/>
<text text-anchor="middle" x="325.04" y="-188.3" font-family="Times,serif" font-size="14.00">dra/entrypoint_sotn</text>
</a>
</g>
</g>
<!-- dra/entrypoint_sotn&#45;&gt;dra/func_800EAD7C -->
<g id="edge3" class="edge">
<title>dra/entrypoint_sotn&#45;&gt;dra/func_800EAD7C</title>
<path fill="none" stroke="black" d="M389.28,-177.91C464.32,-162.61 588.26,-137.35 667.47,-121.2"/>
<polygon fill="black" stroke="black" points="668.28,-124.61 677.38,-119.18 666.88,-117.75 668.28,-124.61"/>
<text text-anchor="middle" x="564.04" y="-144.8" font-family="Times,serif" font-size="14.00">1</text>
</g>
<!-- dra/HandleTitle -->
<g id="node5" class="node">
<title>dra/HandleTitle</title>
<g id="a_node5"><a xlink:href="HandleTitle.svg" xlink:title="dra/HandleTitle">
<ellipse fill="green" stroke="black" cx="529.04" cy="-192" rx="83.39" ry="18"/>
<text text-anchor="middle" x="529.04" y="-188.3" font-family="Times,serif" font-size="14.00">dra/HandleTitle</text>
</a>
</g>
</g>
<!-- dra/HandleTitle&#45;&gt;dra/func_800EAD7C -->
<g id="edge4" class="edge">
<title>dra/HandleTitle&#45;&gt;dra/func_800EAD7C</title>
<path fill="none" stroke="black" d="M567.12,-175.8C602.31,-161.76 654.78,-140.82 693.08,-125.54"/>
<polygon fill="black" stroke="black" points="694.5,-128.74 702.49,-121.78 691.9,-122.24 694.5,-128.74"/>
<text text-anchor="middle" x="654.04" y="-144.8" font-family="Times,serif" font-size="14.00">1</text>
</g>
<!-- dra/HandleGameOver -->
<g id="node6" class="node">
<title>dra/HandleGameOver</title>
<g id="a_node6"><a xlink:href="HandleGameOver.svg" xlink:title="dra/HandleGameOver">
<ellipse fill="red" stroke="black" cx="742.04" cy="-192" rx="111.58" ry="18"/>
<text text-anchor="middle" x="742.04" y="-188.3" font-family="Times,serif" font-size="14.00">dra/HandleGameOver</text>
</a>
</g>
</g>
<!-- dra/HandleGameOver&#45;&gt;dra/func_800EAD7C -->
<g id="edge5" class="edge">
<title>dra/HandleGameOver&#45;&gt;dra/func_800EAD7C</title>
<path fill="none" stroke="black" d="M742.04,-173.8C742.04,-162.16 742.04,-146.55 742.04,-133.24"/>
<polygon fill="black" stroke="black" points="745.54,-133.18 742.04,-123.18 738.54,-133.18 745.54,-133.18"/>
<text text-anchor="middle" x="747.04" y="-144.8" font-family="Times,serif" font-size="14.00">1</text>
</g>
<!-- dra/func_800E4970 -->
<g id="node7" class="node">
<title>dra/func_800E4970</title>
<g id="a_node7"><a xlink:href="func_800E4970.svg" xlink:title="dra/func_800E4970">
<ellipse fill="green" stroke="black" cx="973.04" cy="-192" rx="101.28" ry="18"/>
<text text-anchor="middle" x="973.04" y="-188.3" font-family="Times,serif" font-size="14.00">dra/func_800E4970</text>
</a>
</g>
</g>
<!-- dra/func_800E4970&#45;&gt;dra/func_800EAD7C -->
<g id="edge6" class="edge">
<title>dra/func_800E4970&#45;&gt;dra/func_800EAD7C</title>
<path fill="none" stroke="black" d="M930.94,-175.51C892.39,-161.32 835.21,-140.28 793.86,-125.07"/>
<polygon fill="black" stroke="black" points="794.84,-121.7 784.24,-121.53 792.42,-128.27 794.84,-121.7"/>
<text text-anchor="middle" x="877.04" y="-144.8" font-family="Times,serif" font-size="14.00">1</text>
</g>
<!-- dra/HandlePlay -->
<g id="node8" class="node">
<title>dra/HandlePlay</title>
<g id="a_node8"><a xlink:href="HandlePlay.svg" xlink:title="dra/HandlePlay">
<ellipse fill="green" stroke="black" cx="1175.04" cy="-192" rx="82.59" ry="18"/>
<text text-anchor="middle" x="1175.04" y="-188.3" font-family="Times,serif" font-size="14.00">dra/HandlePlay</text>
</a>
</g>
</g>
<!-- dra/HandlePlay&#45;&gt;dra/func_800EAD7C -->
<g id="edge7" class="edge">
<title>dra/HandlePlay&#45;&gt;dra/func_800EAD7C</title>
<path fill="none" stroke="black" d="M1115.74,-179.36C1038.43,-164.18 903.1,-137.62 818.25,-120.96"/>
<polygon fill="black" stroke="black" points="818.9,-117.52 808.42,-119.03 817.56,-124.39 818.9,-117.52"/>
<text text-anchor="middle" x="990.04" y="-144.8" font-family="Times,serif" font-size="14.00">1</text>
</g>
<!-- dra/HandleEnding -->
<g id="node9" class="node">
<title>dra/HandleEnding</title>
<g id="a_node9"><a xlink:href="HandleEnding.svg" xlink:title="dra/HandleEnding">
<ellipse fill="green" stroke="black" cx="1371.04" cy="-192" rx="95.58" ry="18"/>
<text text-anchor="middle" x="1371.04" y="-188.3" font-family="Times,serif" font-size="14.00">dra/HandleEnding</text>
</a>
</g>
</g>
<!-- dra/HandleEnding&#45;&gt;dra/func_800EAD7C -->
<g id="edge8" class="edge">
<title>dra/HandleEnding&#45;&gt;dra/func_800EAD7C</title>
<path fill="none" stroke="black" d="M1302.28,-179.43C1290.53,-177.55 1278.45,-175.67 1267.04,-174 1116.18,-151.91 940.37,-129.89 835.3,-117.13"/>
<polygon fill="black" stroke="black" points="835.71,-113.65 825.36,-115.92 834.86,-120.6 835.71,-113.65"/>
<text text-anchor="middle" x="1143.04" y="-144.8" font-family="Times,serif" font-size="14.00">1</text>
</g>
</g>
</svg>
