<?xml version="1.0" encoding="UTF-8" standalone="no"?>
<!DOCTYPE svg PUBLIC "-//W3C//DTD SVG 1.1//EN"
 "http://www.w3.org/Graphics/SVG/1.1/DTD/svg11.dtd">
<!-- Generated by graphviz version 2.43.0 (0)
 -->
<!-- Title: func_8010E3E0 Pages: 1 -->
<svg width="1326pt" height="218pt"
 viewBox="0.00 0.00 1326.38 218.00" xmlns="http://www.w3.org/2000/svg" xmlns:xlink="http://www.w3.org/1999/xlink">
<g id="graph0" class="graph" transform="scale(1 1) rotate(0) translate(4 214)">
<title>func_8010E3E0</title>
<polygon fill="white" stroke="transparent" points="-4,4 -4,-214 1322.38,-214 1322.38,4 -4,4"/>
<!-- dra/func_8010E3E0 -->
<g id="node1" class="node">
<title>dra/func_8010E3E0</title>
<ellipse fill="green" stroke="black" cx="658.69" cy="-105" rx="102.88" ry="18"/>
<text text-anchor="middle" x="658.69" y="-101.3" font-family="Times,serif" font-size="14.00">dra/func_8010E3E0</text>
</g>
<!-- dra/DestroyEntity -->
<g id="node2" class="node">
<title>dra/DestroyEntity</title>
<g id="a_node2"><a xlink:href="DestroyEntity.svg" xlink:title="dra/DestroyEntity">
<ellipse fill="red" stroke="black" cx="658.69" cy="-18" rx="94.78" ry="18"/>
<text text-anchor="middle" x="658.69" y="-14.3" font-family="Times,serif" font-size="14.00">dra/DestroyEntity</text>
</a>
</g>
</g>
<!-- dra/func_8010E3E0&#45;&gt;dra/DestroyEntity -->
<g id="edge1" class="edge">
<title>dra/func_8010E3E0&#45;&gt;dra/DestroyEntity</title>
<path fill="none" stroke="black" d="M658.69,-86.8C658.69,-75.16 658.69,-59.55 658.69,-46.24"/>
<polygon fill="black" stroke="black" points="662.19,-46.18 658.69,-36.18 655.19,-46.18 662.19,-46.18"/>
<text text-anchor="middle" x="663.69" y="-57.8" font-family="Times,serif" font-size="14.00">1</text>
</g>
<!-- dra/func_8010FD24 -->
<g id="node3" class="node">
<title>dra/func_8010FD24</title>
<g id="a_node3"><a xlink:href="func_8010FD24.svg" xlink:title="dra/func_8010FD24">
<ellipse fill="green" stroke="black" cx="102.69" cy="-192" rx="102.88" ry="18"/>
<text text-anchor="middle" x="102.69" y="-188.3" font-family="Times,serif" font-size="14.00">dra/func_8010FD24</text>
</a>
</g>
</g>
<!-- dra/func_8010FD24&#45;&gt;dra/func_8010E3E0 -->
<g id="edge2" class="edge">
<title>dra/func_8010FD24&#45;&gt;dra/func_8010E3E0</title>
<path fill="none" stroke="black" d="M177.39,-179.58C280.49,-163.82 465.9,-135.47 574.03,-118.94"/>
<polygon fill="black" stroke="black" points="574.57,-122.4 583.92,-117.43 573.51,-115.48 574.57,-122.4"/>
<text text-anchor="middle" x="419.69" y="-144.8" font-family="Times,serif" font-size="14.00">1</text>
</g>
<!-- dra/func_8010FC50 -->
<g id="node4" class="node">
<title>dra/func_8010FC50</title>
<g id="a_node4"><a xlink:href="func_8010FC50.svg" xlink:title="dra/func_8010FC50">
<ellipse fill="green" stroke="black" cx="325.69" cy="-192" rx="102.08" ry="18"/>
<text text-anchor="middle" x="325.69" y="-188.3" font-family="Times,serif" font-size="14.00">dra/func_8010FC50</text>
</a>
</g>
</g>
<!-- dra/func_8010FC50&#45;&gt;dra/func_8010E3E0 -->
<g id="edge3" class="edge">
<title>dra/func_8010FC50&#45;&gt;dra/func_8010E3E0</title>
<path fill="none" stroke="black" d="M381.05,-176.87C439.39,-161.98 531.23,-138.54 593.14,-122.73"/>
<polygon fill="black" stroke="black" points="594.37,-126.03 603.2,-120.17 592.64,-119.25 594.37,-126.03"/>
<text text-anchor="middle" x="517.69" y="-144.8" font-family="Times,serif" font-size="14.00">1</text>
</g>
<!-- dra/func_8010FB68 -->
<g id="node5" class="node">
<title>dra/func_8010FB68</title>
<g id="a_node5"><a xlink:href="func_8010FB68.svg" xlink:title="dra/func_8010FB68">
<ellipse fill="green" stroke="black" cx="547.69" cy="-192" rx="102.08" ry="18"/>
<text text-anchor="middle" x="547.69" y="-188.3" font-family="Times,serif" font-size="14.00">dra/func_8010FB68</text>
</a>
</g>
</g>
<!-- dra/func_8010FB68&#45;&gt;dra/func_8010E3E0 -->
<g id="edge4" class="edge">
<title>dra/func_8010FB68&#45;&gt;dra/func_8010E3E0</title>
<path fill="none" stroke="black" d="M569.36,-174.41C586.28,-161.45 610,-143.28 628.74,-128.93"/>
<polygon fill="black" stroke="black" points="630.89,-131.7 636.7,-122.84 626.63,-126.14 630.89,-131.7"/>
<text text-anchor="middle" x="615.69" y="-144.8" font-family="Times,serif" font-size="14.00">1</text>
</g>
<!-- dra/func_8010FB24 -->
<g id="node6" class="node">
<title>dra/func_8010FB24</title>
<g id="a_node6"><a xlink:href="func_8010FB24.svg" xlink:title="dra/func_8010FB24">
<ellipse fill="green" stroke="black" cx="769.69" cy="-192" rx="102.08" ry="18"/>
<text text-anchor="middle" x="769.69" y="-188.3" font-family="Times,serif" font-size="14.00">dra/func_8010FB24</text>
</a>
</g>
</g>
<!-- dra/func_8010FB24&#45;&gt;dra/func_8010E3E0 -->
<g id="edge5" class="edge">
<title>dra/func_8010FB24&#45;&gt;dra/func_8010E3E0</title>
<path fill="none" stroke="black" d="M748.03,-174.41C731.1,-161.45 707.38,-143.28 688.64,-128.93"/>
<polygon fill="black" stroke="black" points="690.75,-126.14 680.68,-122.84 686.49,-131.7 690.75,-126.14"/>
<text text-anchor="middle" x="726.69" y="-144.8" font-family="Times,serif" font-size="14.00">1</text>
</g>
<!-- dra/func_8010FCB8 -->
<g id="node7" class="node">
<title>dra/func_8010FCB8</title>
<g id="a_node7"><a xlink:href="func_8010FCB8.svg" xlink:title="dra/func_8010FCB8">
<ellipse fill="green" stroke="black" cx="992.69" cy="-192" rx="102.88" ry="18"/>
<text text-anchor="middle" x="992.69" y="-188.3" font-family="Times,serif" font-size="14.00">dra/func_8010FCB8</text>
</a>
</g>
</g>
<!-- dra/func_8010FCB8&#45;&gt;dra/func_8010E3E0 -->
<g id="edge6" class="edge">
<title>dra/func_8010FCB8&#45;&gt;dra/func_8010E3E0</title>
<path fill="none" stroke="black" d="M936.79,-176.77C878.3,-161.89 786.53,-138.53 724.56,-122.76"/>
<polygon fill="black" stroke="black" points="725.05,-119.28 714.5,-120.2 723.33,-126.06 725.05,-119.28"/>
<text text-anchor="middle" x="850.69" y="-144.8" font-family="Times,serif" font-size="14.00">1</text>
</g>
<!-- dra/func_8010FBF4 -->
<g id="node8" class="node">
<title>dra/func_8010FBF4</title>
<g id="a_node8"><a xlink:href="func_8010FBF4.svg" xlink:title="dra/func_8010FBF4">
<ellipse fill="green" stroke="black" cx="1215.69" cy="-192" rx="102.88" ry="18"/>
<text text-anchor="middle" x="1215.69" y="-188.3" font-family="Times,serif" font-size="14.00">dra/func_8010FBF4</text>
</a>
</g>
</g>
<!-- dra/func_8010FBF4&#45;&gt;dra/func_8010E3E0 -->
<g id="edge7" class="edge">
<title>dra/func_8010FBF4&#45;&gt;dra/func_8010E3E0</title>
<path fill="none" stroke="black" d="M1141.06,-179.56C1128.9,-177.7 1116.45,-175.8 1104.69,-174 979.07,-154.8 833.53,-132.63 743.78,-118.96"/>
<polygon fill="black" stroke="black" points="744.07,-115.46 733.66,-117.41 743.02,-122.38 744.07,-115.46"/>
<text text-anchor="middle" x="987.69" y="-144.8" font-family="Times,serif" font-size="14.00">1</text>
</g>
</g>
</svg>
