<?xml version="1.0" encoding="UTF-8" standalone="no"?>
<!DOCTYPE svg PUBLIC "-//W3C//DTD SVG 1.1//EN"
 "http://www.w3.org/Graphics/SVG/1.1/DTD/svg11.dtd">
<!-- Generated by graphviz version 2.43.0 (0)
 -->
<!-- Title: func_6D000_8017BA04 Pages: 1 -->
<svg width="1452pt" height="131pt"
 viewBox="0.00 0.00 1451.92 131.00" xmlns="http://www.w3.org/2000/svg" xmlns:xlink="http://www.w3.org/1999/xlink">
<g id="graph0" class="graph" transform="scale(1 1) rotate(0) translate(4 127)">
<title>func_6D000_8017BA04</title>
<polygon fill="white" stroke="transparent" points="-4,4 -4,-127 1447.92,-127 1447.92,4 -4,4"/>
<!-- weapon/func_6D000_8017BA04 -->
<g id="node1" class="node">
<title>weapon/func_6D000_8017BA04</title>
<ellipse fill="red" stroke="black" cx="812.29" cy="-105" rx="157.07" ry="18"/>
<text text-anchor="middle" x="812.29" y="-101.3" font-family="Times,serif" font-size="14.00">weapon/func_6D000_8017BA04</text>
</g>
<!-- weapon/func_6D000_8017A7E4 -->
<g id="node2" class="node">
<title>weapon/func_6D000_8017A7E4</title>
<g id="a_node2"><a xlink:href="func_6D000_8017A7E4.svg" xlink:title="weapon/func_6D000_8017A7E4">
<ellipse fill="red" stroke="black" cx="157.29" cy="-18" rx="157.07" ry="18"/>
<text text-anchor="middle" x="157.29" y="-14.3" font-family="Times,serif" font-size="14.00">weapon/func_6D000_8017A7E4</text>
</a>
</g>
</g>
<!-- weapon/func_6D000_8017BA04&#45;&gt;weapon/func_6D000_8017A7E4 -->
<g id="edge1" class="edge">
<title>weapon/func_6D000_8017BA04&#45;&gt;weapon/func_6D000_8017A7E4</title>
<path fill="none" stroke="black" d="M712.45,-91.04C592.33,-75.46 391.33,-49.37 266.98,-33.23"/>
<polygon fill="black" stroke="black" points="267.42,-29.76 257.05,-31.95 266.51,-36.7 267.42,-29.76"/>
<text text-anchor="middle" x="529.29" y="-57.8" font-family="Times,serif" font-size="14.00">2</text>
</g>
<!-- weapon/func_6D000_8017A910 -->
<g id="node3" class="node">
<title>weapon/func_6D000_8017A910</title>
<g id="a_node3"><a xlink:href="func_6D000_8017A910.svg" xlink:title="weapon/func_6D000_8017A910">
<ellipse fill="red" stroke="black" cx="488.29" cy="-18" rx="155.97" ry="18"/>
<text text-anchor="middle" x="488.29" y="-14.3" font-family="Times,serif" font-size="14.00">weapon/func_6D000_8017A910</text>
</a>
</g>
</g>
<!-- weapon/func_6D000_8017BA04&#45;&gt;weapon/func_6D000_8017A910 -->
<g id="edge2" class="edge">
<title>weapon/func_6D000_8017BA04&#45;&gt;weapon/func_6D000_8017A910</title>
<path fill="none" stroke="black" d="M752.48,-88.31C697.43,-73.87 615.76,-52.44 557.82,-37.24"/>
<polygon fill="black" stroke="black" points="558.58,-33.82 548.02,-34.67 556.8,-40.59 558.58,-33.82"/>
<text text-anchor="middle" x="675.29" y="-57.8" font-family="Times,serif" font-size="14.00">1</text>
</g>
<!-- weapon/rand -->
<g id="node4" class="node">
<title>weapon/rand</title>
<g id="a_node4"><a xlink:href="rand.svg" xlink:title="weapon/rand">
<ellipse fill="lightblue" stroke="black" cx="733.29" cy="-18" rx="70.69" ry="18"/>
<text text-anchor="middle" x="733.29" y="-14.3" font-family="Times,serif" font-size="14.00">weapon/rand</text>
</a>
</g>
</g>
<!-- weapon/func_6D000_8017BA04&#45;&gt;weapon/rand -->
<g id="edge3" class="edge">
<title>weapon/func_6D000_8017BA04&#45;&gt;weapon/rand</title>
<path fill="none" stroke="black" d="M796.3,-86.8C784.58,-74.19 768.53,-56.92 755.55,-42.96"/>
<polygon fill="black" stroke="black" points="758.08,-40.54 748.71,-35.6 752.96,-45.3 758.08,-40.54"/>
<text text-anchor="middle" x="783.29" y="-57.8" font-family="Times,serif" font-size="14.00">3</text>
</g>
<!-- weapon/rcos -->
<g id="node5" class="node">
<title>weapon/rcos</title>
<g id="a_node5"><a xlink:href="rcos.svg" xlink:title="weapon/rcos">
<ellipse fill="lightblue" stroke="black" cx="891.29" cy="-18" rx="68.79" ry="18"/>
<text text-anchor="middle" x="891.29" y="-14.3" font-family="Times,serif" font-size="14.00">weapon/rcos</text>
</a>
</g>
</g>
<!-- weapon/func_6D000_8017BA04&#45;&gt;weapon/rcos -->
<g id="edge4" class="edge">
<title>weapon/func_6D000_8017BA04&#45;&gt;weapon/rcos</title>
<path fill="none" stroke="black" d="M828.27,-86.8C839.99,-74.19 856.05,-56.92 869.02,-42.96"/>
<polygon fill="black" stroke="black" points="871.62,-45.3 875.86,-35.6 866.49,-40.54 871.62,-45.3"/>
<text text-anchor="middle" x="862.29" y="-57.8" font-family="Times,serif" font-size="14.00">1</text>
</g>
<!-- weapon/rsin -->
<g id="node6" class="node">
<title>weapon/rsin</title>
<g id="a_node6"><a xlink:href="rsin.svg" xlink:title="weapon/rsin">
<ellipse fill="lightblue" stroke="black" cx="1045.29" cy="-18" rx="67.69" ry="18"/>
<text text-anchor="middle" x="1045.29" y="-14.3" font-family="Times,serif" font-size="14.00">weapon/rsin</text>
</a>
</g>
</g>
<!-- weapon/func_6D000_8017BA04&#45;&gt;weapon/rsin -->
<g id="edge5" class="edge">
<title>weapon/func_6D000_8017BA04&#45;&gt;weapon/rsin</title>
<path fill="none" stroke="black" d="M856.94,-87.71C897.18,-73.03 956.2,-51.5 997.41,-36.46"/>
<polygon fill="black" stroke="black" points="998.77,-39.7 1006.96,-32.98 996.37,-33.12 998.77,-39.7"/>
<text text-anchor="middle" x="948.29" y="-57.8" font-family="Times,serif" font-size="14.00">1</text>
</g>
<!-- weapon/func_6D000_8017AA88 -->
<g id="node7" class="node">
<title>weapon/func_6D000_8017AA88</title>
<g id="a_node7"><a xlink:href="func_6D000_8017AA88.svg" xlink:title="weapon/func_6D000_8017AA88">
<ellipse fill="red" stroke="black" cx="1287.29" cy="-18" rx="156.77" ry="18"/>
<text text-anchor="middle" x="1287.29" y="-14.3" font-family="Times,serif" font-size="14.00">weapon/func_6D000_8017AA88</text>
</a>
</g>
</g>
<!-- weapon/func_6D000_8017BA04&#45;&gt;weapon/func_6D000_8017AA88 -->
<g id="edge6" class="edge">
<title>weapon/func_6D000_8017BA04&#45;&gt;weapon/func_6D000_8017AA88</title>
<path fill="none" stroke="black" d="M893.13,-89.53C977.28,-74.47 1108.8,-50.94 1196.47,-35.25"/>
<polygon fill="black" stroke="black" points="1197.18,-38.68 1206.41,-33.47 1195.95,-31.79 1197.18,-38.68"/>
<text text-anchor="middle" x="1083.29" y="-57.8" font-family="Times,serif" font-size="14.00">1</text>
</g>
</g>
</svg>
