<?xml version="1.0" encoding="UTF-8" standalone="no"?>
<!DOCTYPE svg PUBLIC "-//W3C//DTD SVG 1.1//EN"
 "http://www.w3.org/Graphics/SVG/1.1/DTD/svg11.dtd">
<!-- Generated by graphviz version 2.43.0 (0)
 -->
<!-- Title: func_8019BAB8 Pages: 1 -->
<svg width="898pt" height="131pt"
 viewBox="0.00 0.00 897.83 131.00" xmlns="http://www.w3.org/2000/svg" xmlns:xlink="http://www.w3.org/1999/xlink">
<g id="graph0" class="graph" transform="scale(1 1) rotate(0) translate(4 127)">
<title>func_8019BAB8</title>
<polygon fill="white" stroke="transparent" points="-4,4 -4,-127 893.83,-127 893.83,4 -4,4"/>
<!-- dre/func_8019BAB8 -->
<g id="node1" class="node">
<title>dre/func_8019BAB8</title>
<ellipse fill="red" stroke="black" cx="454.94" cy="-105" rx="102.88" ry="18"/>
<text text-anchor="middle" x="454.94" y="-101.3" font-family="Times,serif" font-size="14.00">dre/func_8019BAB8</text>
</g>
<!-- dre/g_api_PlaySfx -->
<g id="node2" class="node">
<title>dre/g_api_PlaySfx</title>
<g id="a_node2"><a xlink:href="g_api_PlaySfx.svg" xlink:title="dre/g_api_PlaySfx">
<ellipse fill="lightblue" stroke="black" cx="92.94" cy="-18" rx="92.88" ry="18"/>
<text text-anchor="middle" x="92.94" y="-14.3" font-family="Times,serif" font-size="14.00">dre/g_api_PlaySfx</text>
</a>
</g>
</g>
<!-- dre/func_8019BAB8&#45;&gt;dre/g_api_PlaySfx -->
<g id="edge1" class="edge">
<title>dre/func_8019BAB8&#45;&gt;dre/g_api_PlaySfx</title>
<path fill="none" stroke="black" d="M395.97,-90.15C331.28,-74.96 227.65,-50.63 159.93,-34.73"/>
<polygon fill="black" stroke="black" points="160.33,-31.23 149.79,-32.35 158.73,-38.04 160.33,-31.23"/>
<text text-anchor="middle" x="300.94" y="-57.8" font-family="Times,serif" font-size="14.00">1</text>
</g>
<!-- dre/g_api_FreePrimitives -->
<g id="node3" class="node">
<title>dre/g_api_FreePrimitives</title>
<g id="a_node3"><a xlink:href="g_api_FreePrimitives.svg" xlink:title="dre/g_api_FreePrimitives">
<ellipse fill="lightblue" stroke="black" cx="330.94" cy="-18" rx="127.28" ry="18"/>
<text text-anchor="middle" x="330.94" y="-14.3" font-family="Times,serif" font-size="14.00">dre/g_api_FreePrimitives</text>
</a>
</g>
</g>
<!-- dre/func_8019BAB8&#45;&gt;dre/g_api_FreePrimitives -->
<g id="edge2" class="edge">
<title>dre/func_8019BAB8&#45;&gt;dre/g_api_FreePrimitives</title>
<path fill="none" stroke="black" d="M430.74,-87.41C411.66,-74.33 384.86,-55.96 363.83,-41.55"/>
<polygon fill="black" stroke="black" points="365.73,-38.61 355.51,-35.84 361.78,-44.38 365.73,-38.61"/>
<text text-anchor="middle" x="405.94" y="-57.8" font-family="Times,serif" font-size="14.00">1</text>
</g>
<!-- dre/func_801A1CE8 -->
<g id="node4" class="node">
<title>dre/func_801A1CE8</title>
<g id="a_node4"><a xlink:href="func_801A1CE8.svg" xlink:title="dre/func_801A1CE8">
<ellipse fill="red" stroke="black" cx="578.94" cy="-18" rx="102.88" ry="18"/>
<text text-anchor="middle" x="578.94" y="-14.3" font-family="Times,serif" font-size="14.00">dre/func_801A1CE8</text>
</a>
</g>
</g>
<!-- dre/func_8019BAB8&#45;&gt;dre/func_801A1CE8 -->
<g id="edge3" class="edge">
<title>dre/func_8019BAB8&#45;&gt;dre/func_801A1CE8</title>
<path fill="none" stroke="black" d="M479.14,-87.41C498.35,-74.25 525.37,-55.72 546.46,-41.27"/>
<polygon fill="black" stroke="black" points="548.53,-44.09 554.8,-35.55 544.57,-38.32 548.53,-44.09"/>
<text text-anchor="middle" x="529.94" y="-57.8" font-family="Times,serif" font-size="14.00">1</text>
</g>
<!-- dre/DestroyEntity -->
<g id="node5" class="node">
<title>dre/DestroyEntity</title>
<g id="a_node5"><a xlink:href="DestroyEntity.svg" xlink:title="dre/DestroyEntity">
<ellipse fill="green" stroke="black" cx="794.94" cy="-18" rx="94.78" ry="18"/>
<text text-anchor="middle" x="794.94" y="-14.3" font-family="Times,serif" font-size="14.00">dre/DestroyEntity</text>
</a>
</g>
</g>
<!-- dre/func_8019BAB8&#45;&gt;dre/DestroyEntity -->
<g id="edge4" class="edge">
<title>dre/func_8019BAB8&#45;&gt;dre/DestroyEntity</title>
<path fill="none" stroke="black" d="M511.47,-89.87C571.69,-74.81 666.88,-51.01 730.11,-35.21"/>
<polygon fill="black" stroke="black" points="731.12,-38.56 739.97,-32.74 729.42,-31.77 731.12,-38.56"/>
<text text-anchor="middle" x="650.94" y="-57.8" font-family="Times,serif" font-size="14.00">1</text>
</g>
</g>
</svg>
