<?xml version="1.0" encoding="UTF-8" standalone="no"?>
<!DOCTYPE svg PUBLIC "-//W3C//DTD SVG 1.1//EN"
 "http://www.w3.org/Graphics/SVG/1.1/DTD/svg11.dtd">
<!-- Generated by graphviz version 2.43.0 (0)
 -->
<!-- Title: func_146000_8017B004 Pages: 1 -->
<svg width="2516pt" height="131pt"
 viewBox="0.00 0.00 2515.78 131.00" xmlns="http://www.w3.org/2000/svg" xmlns:xlink="http://www.w3.org/1999/xlink">
<g id="graph0" class="graph" transform="scale(1 1) rotate(0) translate(4 127)">
<title>func_146000_8017B004</title>
<polygon fill="white" stroke="transparent" points="-4,4 -4,-127 2511.78,-127 2511.78,4 -4,4"/>
<!-- weapon/func_146000_8017B004 -->
<g id="node1" class="node">
<title>weapon/func_146000_8017B004</title>
<ellipse fill="red" stroke="black" cx="1390.19" cy="-105" rx="161.37" ry="18"/>
<text text-anchor="middle" x="1390.19" y="-101.3" font-family="Times,serif" font-size="14.00">weapon/func_146000_8017B004</text>
</g>
<!-- weapon/g_api_AllocPrimitives -->
<g id="node2" class="node">
<title>weapon/g_api_AllocPrimitives</title>
<g id="a_node2"><a xlink:href="g_api_AllocPrimitives.svg" xlink:title="weapon/g_api_AllocPrimitives">
<ellipse fill="lightblue" stroke="black" cx="148.19" cy="-18" rx="148.37" ry="18"/>
<text text-anchor="middle" x="148.19" y="-14.3" font-family="Times,serif" font-size="14.00">weapon/g_api_AllocPrimitives</text>
</a>
</g>
</g>
<!-- weapon/func_146000_8017B004&#45;&gt;weapon/g_api_AllocPrimitives -->
<g id="edge1" class="edge">
<title>weapon/func_146000_8017B004&#45;&gt;weapon/g_api_AllocPrimitives</title>
<path fill="none" stroke="black" d="M1245.25,-97.01C1037.04,-86.48 641.33,-64.72 305.19,-36 291.2,-34.81 276.54,-33.41 262.02,-31.94"/>
<polygon fill="black" stroke="black" points="262.3,-28.45 252,-30.91 261.59,-35.41 262.3,-28.45"/>
<text text-anchor="middle" x="757.19" y="-57.8" font-family="Times,serif" font-size="14.00">1</text>
</g>
<!-- weapon/func_146000_8017AF08 -->
<g id="node3" class="node">
<title>weapon/func_146000_8017AF08</title>
<g id="a_node3"><a xlink:href="func_146000_8017AF08.svg" xlink:title="weapon/func_146000_8017AF08">
<ellipse fill="red" stroke="black" cx="475.19" cy="-18" rx="161.37" ry="18"/>
<text text-anchor="middle" x="475.19" y="-14.3" font-family="Times,serif" font-size="14.00">weapon/func_146000_8017AF08</text>
</a>
</g>
</g>
<!-- weapon/func_146000_8017B004&#45;&gt;weapon/func_146000_8017AF08 -->
<g id="edge2" class="edge">
<title>weapon/func_146000_8017B004&#45;&gt;weapon/func_146000_8017AF08</title>
<path fill="none" stroke="black" d="M1268.21,-93.19C1120.63,-80.04 864.65,-56.99 645.19,-36 630.79,-34.62 615.72,-33.15 600.74,-31.68"/>
<polygon fill="black" stroke="black" points="600.69,-28.16 590.4,-30.66 600,-35.12 600.69,-28.16"/>
<text text-anchor="middle" x="997.19" y="-57.8" font-family="Times,serif" font-size="14.00">1</text>
</g>
<!-- weapon/func_146000_8017AE98 -->
<g id="node4" class="node">
<title>weapon/func_146000_8017AE98</title>
<g id="a_node4"><a xlink:href="func_146000_8017AE98.svg" xlink:title="weapon/func_146000_8017AE98">
<ellipse fill="red" stroke="black" cx="815.19" cy="-18" rx="161.37" ry="18"/>
<text text-anchor="middle" x="815.19" y="-14.3" font-family="Times,serif" font-size="14.00">weapon/func_146000_8017AE98</text>
</a>
</g>
</g>
<!-- weapon/func_146000_8017B004&#45;&gt;weapon/func_146000_8017AE98 -->
<g id="edge3" class="edge">
<title>weapon/func_146000_8017B004&#45;&gt;weapon/func_146000_8017AE98</title>
<path fill="none" stroke="black" d="M1297.16,-90.25C1193.29,-74.89 1025.66,-50.11 917.98,-34.2"/>
<polygon fill="black" stroke="black" points="918.48,-30.73 908.08,-32.73 917.46,-37.66 918.48,-30.73"/>
<text text-anchor="middle" x="1142.19" y="-57.8" font-family="Times,serif" font-size="14.00">1</text>
</g>
<!-- weapon/g_api_PlaySfx -->
<g id="node5" class="node">
<title>weapon/g_api_PlaySfx</title>
<g id="a_node5"><a xlink:href="g_api_PlaySfx.svg" xlink:title="weapon/g_api_PlaySfx">
<ellipse fill="lightblue" stroke="black" cx="1107.19" cy="-18" rx="113.18" ry="18"/>
<text text-anchor="middle" x="1107.19" y="-14.3" font-family="Times,serif" font-size="14.00">weapon/g_api_PlaySfx</text>
</a>
</g>
</g>
<!-- weapon/func_146000_8017B004&#45;&gt;weapon/g_api_PlaySfx -->
<g id="edge4" class="edge">
<title>weapon/func_146000_8017B004&#45;&gt;weapon/g_api_PlaySfx</title>
<path fill="none" stroke="black" d="M1336.62,-87.91C1288.4,-73.43 1217.6,-52.16 1167.43,-37.09"/>
<polygon fill="black" stroke="black" points="1168.26,-33.69 1157.68,-34.17 1166.25,-40.39 1168.26,-33.69"/>
<text text-anchor="middle" x="1271.19" y="-57.8" font-family="Times,serif" font-size="14.00">1</text>
</g>
<!-- weapon/g_api_func_8011AAFC -->
<g id="node6" class="node">
<title>weapon/g_api_func_8011AAFC</title>
<g id="a_node6"><a xlink:href="g_api_func_8011AAFC.svg" xlink:title="weapon/g_api_func_8011AAFC">
<ellipse fill="lightblue" stroke="black" cx="1390.19" cy="-18" rx="151.37" ry="18"/>
<text text-anchor="middle" x="1390.19" y="-14.3" font-family="Times,serif" font-size="14.00">weapon/g_api_func_8011AAFC</text>
</a>
</g>
</g>
<!-- weapon/func_146000_8017B004&#45;&gt;weapon/g_api_func_8011AAFC -->
<g id="edge5" class="edge">
<title>weapon/func_146000_8017B004&#45;&gt;weapon/g_api_func_8011AAFC</title>
<path fill="none" stroke="black" d="M1390.19,-86.8C1390.19,-75.16 1390.19,-59.55 1390.19,-46.24"/>
<polygon fill="black" stroke="black" points="1393.69,-46.18 1390.19,-36.18 1386.69,-46.18 1393.69,-46.18"/>
<text text-anchor="middle" x="1395.19" y="-57.8" font-family="Times,serif" font-size="14.00">2</text>
</g>
<!-- weapon/g_api_func_80134714 -->
<g id="node7" class="node">
<title>weapon/g_api_func_80134714</title>
<g id="a_node7"><a xlink:href="g_api_func_80134714.svg" xlink:title="weapon/g_api_func_80134714">
<ellipse fill="lightblue" stroke="black" cx="1709.19" cy="-18" rx="149.47" ry="18"/>
<text text-anchor="middle" x="1709.19" y="-14.3" font-family="Times,serif" font-size="14.00">weapon/g_api_func_80134714</text>
</a>
</g>
</g>
<!-- weapon/func_146000_8017B004&#45;&gt;weapon/g_api_func_80134714 -->
<g id="edge6" class="edge">
<title>weapon/func_146000_8017B004&#45;&gt;weapon/g_api_func_80134714</title>
<path fill="none" stroke="black" d="M1449.44,-88.21C1503.58,-73.79 1583.63,-52.46 1640.53,-37.29"/>
<polygon fill="black" stroke="black" points="1641.76,-40.59 1650.52,-34.63 1639.96,-33.83 1641.76,-40.59"/>
<text text-anchor="middle" x="1574.19" y="-57.8" font-family="Times,serif" font-size="14.00">1</text>
</g>
<!-- weapon/func_146000_8017AC64 -->
<g id="node8" class="node">
<title>weapon/func_146000_8017AC64</title>
<g id="a_node8"><a xlink:href="func_146000_8017AC64.svg" xlink:title="weapon/func_146000_8017AC64">
<ellipse fill="red" stroke="black" cx="2038.19" cy="-18" rx="161.37" ry="18"/>
<text text-anchor="middle" x="2038.19" y="-14.3" font-family="Times,serif" font-size="14.00">weapon/func_146000_8017AC64</text>
</a>
</g>
</g>
<!-- weapon/func_146000_8017B004&#45;&gt;weapon/func_146000_8017AC64 -->
<g id="edge7" class="edge">
<title>weapon/func_146000_8017B004&#45;&gt;weapon/func_146000_8017AC64</title>
<path fill="none" stroke="black" d="M1490.37,-90.86C1608.81,-75.32 1805.26,-49.55 1927.93,-33.46"/>
<polygon fill="black" stroke="black" points="1928.63,-36.9 1938.09,-32.13 1927.72,-29.96 1928.63,-36.9"/>
<text text-anchor="middle" x="1758.19" y="-57.8" font-family="Times,serif" font-size="14.00">1</text>
</g>
<!-- weapon/rcos -->
<g id="node9" class="node">
<title>weapon/rcos</title>
<g id="a_node9"><a xlink:href="rcos.svg" xlink:title="weapon/rcos">
<ellipse fill="lightblue" stroke="black" cx="2286.19" cy="-18" rx="68.79" ry="18"/>
<text text-anchor="middle" x="2286.19" y="-14.3" font-family="Times,serif" font-size="14.00">weapon/rcos</text>
</a>
</g>
</g>
<!-- weapon/func_146000_8017B004&#45;&gt;weapon/rcos -->
<g id="edge8" class="edge">
<title>weapon/func_146000_8017B004&#45;&gt;weapon/rcos</title>
<path fill="none" stroke="black" d="M1537.52,-97.6C1701.82,-89.11 1975.12,-70.93 2208.19,-36 2214.39,-35.07 2220.84,-33.94 2227.26,-32.7"/>
<polygon fill="black" stroke="black" points="2228.16,-36.09 2237.27,-30.69 2226.78,-29.23 2228.16,-36.09"/>
<text text-anchor="middle" x="2058.19" y="-57.8" font-family="Times,serif" font-size="14.00">8</text>
</g>
<!-- weapon/rsin -->
<g id="node10" class="node">
<title>weapon/rsin</title>
<g id="a_node10"><a xlink:href="rsin.svg" xlink:title="weapon/rsin">
<ellipse fill="lightblue" stroke="black" cx="2440.19" cy="-18" rx="67.69" ry="18"/>
<text text-anchor="middle" x="2440.19" y="-14.3" font-family="Times,serif" font-size="14.00">weapon/rsin</text>
</a>
</g>
</g>
<!-- weapon/func_146000_8017B004&#45;&gt;weapon/rsin -->
<g id="edge9" class="edge">
<title>weapon/func_146000_8017B004&#45;&gt;weapon/rsin</title>
<path fill="none" stroke="black" d="M1541.6,-98.73C1678.92,-93.34 1886.83,-83.67 2067.19,-69 2199.56,-58.23 2233.19,-57.86 2364.19,-36 2369.91,-35.04 2375.85,-33.93 2381.78,-32.74"/>
<polygon fill="black" stroke="black" points="2382.61,-36.14 2391.69,-30.68 2381.19,-29.29 2382.61,-36.14"/>
<text text-anchor="middle" x="2241.19" y="-57.8" font-family="Times,serif" font-size="14.00">4</text>
</g>
</g>
</svg>
