<?xml version="1.0" encoding="UTF-8" standalone="no"?>
<!DOCTYPE svg PUBLIC "-//W3C//DTD SVG 1.1//EN"
 "http://www.w3.org/Graphics/SVG/1.1/DTD/svg11.dtd">
<!-- Generated by graphviz version 2.43.0 (0)
 -->
<!-- Title: func_80133BDC Pages: 1 -->
<svg width="1007pt" height="218pt"
 viewBox="0.00 0.00 1006.78 218.00" xmlns="http://www.w3.org/2000/svg" xmlns:xlink="http://www.w3.org/1999/xlink">
<g id="graph0" class="graph" transform="scale(1 1) rotate(0) translate(4 214)">
<title>func_80133BDC</title>
<polygon fill="white" stroke="transparent" points="-4,4 -4,-214 1002.78,-214 1002.78,4 -4,4"/>
<!-- dra/func_80133BDC -->
<g id="node1" class="node">
<title>dra/func_80133BDC</title>
<ellipse fill="red" stroke="black" cx="498.39" cy="-105" rx="103.98" ry="18"/>
<text text-anchor="middle" x="498.39" y="-101.3" font-family="Times,serif" font-size="14.00">dra/func_80133BDC</text>
</g>
<!-- dra/func_801324B4 -->
<g id="node2" class="node">
<title>dra/func_801324B4</title>
<g id="a_node2"><a xlink:href="func_801324B4.svg" xlink:title="dra/func_801324B4">
<ellipse fill="green" stroke="black" cx="101.39" cy="-18" rx="101.28" ry="18"/>
<text text-anchor="middle" x="101.39" y="-14.3" font-family="Times,serif" font-size="14.00">dra/func_801324B4</text>
</a>
</g>
</g>
<!-- dra/func_80133BDC&#45;&gt;dra/func_801324B4 -->
<g id="edge1" class="edge">
<title>dra/func_80133BDC&#45;&gt;dra/func_801324B4</title>
<path fill="none" stroke="black" d="M435.49,-90.53C364.13,-75.25 248.01,-50.39 173.17,-34.37"/>
<polygon fill="black" stroke="black" points="173.86,-30.94 163.35,-32.27 172.39,-37.78 173.86,-30.94"/>
<text text-anchor="middle" x="329.39" y="-57.8" font-family="Times,serif" font-size="14.00">2</text>
</g>
<!-- dra/func_80132028 -->
<g id="node3" class="node">
<title>dra/func_80132028</title>
<g id="a_node3"><a xlink:href="func_80132028.svg" xlink:title="dra/func_80132028">
<ellipse fill="green" stroke="black" cx="321.39" cy="-18" rx="100.98" ry="18"/>
<text text-anchor="middle" x="321.39" y="-14.3" font-family="Times,serif" font-size="14.00">dra/func_80132028</text>
</a>
</g>
</g>
<!-- dra/func_80133BDC&#45;&gt;dra/func_80132028 -->
<g id="edge2" class="edge">
<title>dra/func_80133BDC&#45;&gt;dra/func_80132028</title>
<path fill="none" stroke="black" d="M464.68,-87.81C436.14,-74.11 395.06,-54.38 364.2,-39.56"/>
<polygon fill="black" stroke="black" points="365.5,-36.3 354.97,-35.13 362.47,-42.61 365.5,-36.3"/>
<text text-anchor="middle" x="426.39" y="-57.8" font-family="Times,serif" font-size="14.00">5</text>
</g>
<!-- dra/VSync -->
<g id="node4" class="node">
<title>dra/VSync</title>
<g id="a_node4"><a xlink:href="VSync.svg" xlink:title="dra/VSync">
<ellipse fill="red" stroke="black" cx="498.39" cy="-18" rx="57.69" ry="18"/>
<text text-anchor="middle" x="498.39" y="-14.3" font-family="Times,serif" font-size="14.00">dra/VSync</text>
</a>
</g>
</g>
<!-- dra/func_80133BDC&#45;&gt;dra/VSync -->
<g id="edge3" class="edge">
<title>dra/func_80133BDC&#45;&gt;dra/VSync</title>
<path fill="none" stroke="black" d="M498.39,-86.8C498.39,-75.16 498.39,-59.55 498.39,-46.24"/>
<polygon fill="black" stroke="black" points="501.89,-46.18 498.39,-36.18 494.89,-46.18 501.89,-46.18"/>
<text text-anchor="middle" x="503.39" y="-57.8" font-family="Times,serif" font-size="14.00">1</text>
</g>
<!-- dra/SsSetSerialAttr -->
<g id="node5" class="node">
<title>dra/SsSetSerialAttr</title>
<g id="a_node5"><a xlink:href="SsSetSerialAttr.svg" xlink:title="dra/SsSetSerialAttr">
<ellipse fill="lightblue" stroke="black" cx="676.39" cy="-18" rx="102.08" ry="18"/>
<text text-anchor="middle" x="676.39" y="-14.3" font-family="Times,serif" font-size="14.00">dra/SsSetSerialAttr</text>
</a>
</g>
</g>
<!-- dra/func_80133BDC&#45;&gt;dra/SsSetSerialAttr -->
<g id="edge4" class="edge">
<title>dra/func_80133BDC&#45;&gt;dra/SsSetSerialAttr</title>
<path fill="none" stroke="black" d="M532.29,-87.81C560.99,-74.11 602.3,-54.38 633.34,-39.56"/>
<polygon fill="black" stroke="black" points="635.1,-42.6 642.62,-35.13 632.09,-36.28 635.1,-42.6"/>
<text text-anchor="middle" x="603.39" y="-57.8" font-family="Times,serif" font-size="14.00">1</text>
</g>
<!-- dra/func_80132E38 -->
<g id="node6" class="node">
<title>dra/func_80132E38</title>
<g id="a_node6"><a xlink:href="func_80132E38.svg" xlink:title="dra/func_80132E38">
<ellipse fill="green" stroke="black" cx="897.39" cy="-18" rx="101.28" ry="18"/>
<text text-anchor="middle" x="897.39" y="-14.3" font-family="Times,serif" font-size="14.00">dra/func_80132E38</text>
</a>
</g>
</g>
<!-- dra/func_80133BDC&#45;&gt;dra/func_80132E38 -->
<g id="edge5" class="edge">
<title>dra/func_80133BDC&#45;&gt;dra/func_80132E38</title>
<path fill="none" stroke="black" d="M561.17,-90.63C632.79,-75.37 749.71,-50.46 825.08,-34.4"/>
<polygon fill="black" stroke="black" points="825.92,-37.8 834.97,-32.3 824.46,-30.96 825.92,-37.8"/>
<text text-anchor="middle" x="726.39" y="-57.8" font-family="Times,serif" font-size="14.00">1</text>
</g>
<!-- dra/func_801353A0 -->
<g id="node7" class="node">
<title>dra/func_801353A0</title>
<g id="a_node7"><a xlink:href="func_801353A0.svg" xlink:title="dra/func_801353A0">
<ellipse fill="green" stroke="black" cx="498.39" cy="-192" rx="100.98" ry="18"/>
<text text-anchor="middle" x="498.39" y="-188.3" font-family="Times,serif" font-size="14.00">dra/func_801353A0</text>
</a>
</g>
</g>
<!-- dra/func_801353A0&#45;&gt;dra/func_80133BDC -->
<g id="edge6" class="edge">
<title>dra/func_801353A0&#45;&gt;dra/func_80133BDC</title>
<path fill="none" stroke="black" d="M498.39,-173.8C498.39,-162.16 498.39,-146.55 498.39,-133.24"/>
<polygon fill="black" stroke="black" points="501.89,-133.18 498.39,-123.18 494.89,-133.18 501.89,-133.18"/>
<text text-anchor="middle" x="503.39" y="-144.8" font-family="Times,serif" font-size="14.00">1</text>
</g>
</g>
</svg>
