<?xml version="1.0" encoding="UTF-8" standalone="no"?>
<!DOCTYPE svg PUBLIC "-//W3C//DTD SVG 1.1//EN"
 "http://www.w3.org/Graphics/SVG/1.1/DTD/svg11.dtd">
<!-- Generated by graphviz version 2.43.0 (0)
 -->
<!-- Title: func_800F9808 Pages: 1 -->
<svg width="656pt" height="218pt"
 viewBox="0.00 0.00 656.43 218.00" xmlns="http://www.w3.org/2000/svg" xmlns:xlink="http://www.w3.org/1999/xlink">
<g id="graph0" class="graph" transform="scale(1 1) rotate(0) translate(4 214)">
<title>func_800F9808</title>
<polygon fill="white" stroke="transparent" points="-4,4 -4,-214 652.43,-214 652.43,4 -4,4"/>
<!-- dra/func_800F9808 -->
<g id="node1" class="node">
<title>dra/func_800F9808</title>
<ellipse fill="green" stroke="black" cx="325.04" cy="-105" rx="100.98" ry="18"/>
<text text-anchor="middle" x="325.04" y="-101.3" font-family="Times,serif" font-size="14.00">dra/func_800F9808</text>
</g>
<!-- dra/func_800F548C -->
<g id="node2" class="node">
<title>dra/func_800F548C</title>
<g id="a_node2"><a xlink:href="func_800F548C.svg" xlink:title="dra/func_800F548C">
<ellipse fill="green" stroke="black" cx="225.04" cy="-18" rx="102.08" ry="18"/>
<text text-anchor="middle" x="225.04" y="-14.3" font-family="Times,serif" font-size="14.00">dra/func_800F548C</text>
</a>
</g>
</g>
<!-- dra/func_800F9808&#45;&gt;dra/func_800F548C -->
<g id="edge1" class="edge">
<title>dra/func_800F9808&#45;&gt;dra/func_800F548C</title>
<path fill="none" stroke="black" d="M305.28,-87.21C290.22,-74.4 269.28,-56.61 252.58,-42.4"/>
<polygon fill="black" stroke="black" points="254.64,-39.57 244.76,-35.76 250.11,-44.9 254.64,-39.57"/>
<text text-anchor="middle" x="286.04" y="-57.8" font-family="Times,serif" font-size="14.00">1</text>
</g>
<!-- dra/LoadTPage -->
<g id="node3" class="node">
<title>dra/LoadTPage</title>
<g id="a_node3"><a xlink:href="LoadTPage.svg" xlink:title="dra/LoadTPage">
<ellipse fill="lightblue" stroke="black" cx="425.04" cy="-18" rx="79.89" ry="18"/>
<text text-anchor="middle" x="425.04" y="-14.3" font-family="Times,serif" font-size="14.00">dra/LoadTPage</text>
</a>
</g>
</g>
<!-- dra/func_800F9808&#45;&gt;dra/LoadTPage -->
<g id="edge2" class="edge">
<title>dra/func_800F9808&#45;&gt;dra/LoadTPage</title>
<path fill="none" stroke="black" d="M344.8,-87.21C359.96,-74.32 381.07,-56.38 397.83,-42.13"/>
<polygon fill="black" stroke="black" points="400.31,-44.61 405.67,-35.47 395.78,-39.28 400.31,-44.61"/>
<text text-anchor="middle" x="386.04" y="-57.8" font-family="Times,serif" font-size="14.00">1</text>
</g>
<!-- dra/func_800FAD34 -->
<g id="node4" class="node">
<title>dra/func_800FAD34</title>
<g id="a_node4"><a xlink:href="func_800FAD34.svg" xlink:title="dra/func_800FAD34">
<ellipse fill="green" stroke="black" cx="102.04" cy="-192" rx="102.08" ry="18"/>
<text text-anchor="middle" x="102.04" y="-188.3" font-family="Times,serif" font-size="14.00">dra/func_800FAD34</text>
</a>
</g>
</g>
<!-- dra/func_800FAD34&#45;&gt;dra/func_800F9808 -->
<g id="edge3" class="edge">
<title>dra/func_800FAD34&#45;&gt;dra/func_800F9808</title>
<path fill="none" stroke="black" d="M142.94,-175.41C180.11,-161.24 235.07,-140.29 274.88,-125.12"/>
<polygon fill="black" stroke="black" points="276.3,-128.32 284.4,-121.49 273.81,-121.78 276.3,-128.32"/>
<text text-anchor="middle" x="232.04" y="-144.8" font-family="Times,serif" font-size="14.00">1</text>
</g>
<!-- dra/func_800FBC24 -->
<g id="node5" class="node">
<title>dra/func_800FBC24</title>
<g id="a_node5"><a xlink:href="func_800FBC24.svg" xlink:title="dra/func_800FBC24">
<ellipse fill="red" stroke="black" cx="325.04" cy="-192" rx="102.88" ry="18"/>
<text text-anchor="middle" x="325.04" y="-188.3" font-family="Times,serif" font-size="14.00">dra/func_800FBC24</text>
</a>
</g>
</g>
<!-- dra/func_800FBC24&#45;&gt;dra/func_800F9808 -->
<g id="edge4" class="edge">
<title>dra/func_800FBC24&#45;&gt;dra/func_800F9808</title>
<path fill="none" stroke="black" d="M325.04,-173.8C325.04,-162.16 325.04,-146.55 325.04,-133.24"/>
<polygon fill="black" stroke="black" points="328.54,-133.18 325.04,-123.18 321.54,-133.18 328.54,-133.18"/>
<text text-anchor="middle" x="330.04" y="-144.8" font-family="Times,serif" font-size="14.00">8</text>
</g>
<!-- dra/func_800FAC98 -->
<g id="node6" class="node">
<title>dra/func_800FAC98</title>
<g id="a_node6"><a xlink:href="func_800FAC98.svg" xlink:title="dra/func_800FAC98">
<ellipse fill="green" stroke="black" cx="547.04" cy="-192" rx="101.28" ry="18"/>
<text text-anchor="middle" x="547.04" y="-188.3" font-family="Times,serif" font-size="14.00">dra/func_800FAC98</text>
</a>
</g>
</g>
<!-- dra/func_800FAC98&#45;&gt;dra/func_800F9808 -->
<g id="edge5" class="edge">
<title>dra/func_800FAC98&#45;&gt;dra/func_800F9808</title>
<path fill="none" stroke="black" d="M506.32,-175.41C469.32,-161.24 414.61,-140.29 374.98,-125.12"/>
<polygon fill="black" stroke="black" points="376.09,-121.8 365.5,-121.49 373.59,-128.34 376.09,-121.8"/>
<text text-anchor="middle" x="455.04" y="-144.8" font-family="Times,serif" font-size="14.00">1</text>
</g>
</g>
</svg>
