<?xml version="1.0" encoding="UTF-8" standalone="no"?>
<!DOCTYPE svg PUBLIC "-//W3C//DTD SVG 1.1//EN"
 "http://www.w3.org/Graphics/SVG/1.1/DTD/svg11.dtd">
<!-- Generated by graphviz version 2.43.0 (0)
 -->
<!-- Title: func_8019BED4 Pages: 1 -->
<svg width="1970pt" height="218pt"
 viewBox="0.00 0.00 1970.43 218.00" xmlns="http://www.w3.org/2000/svg" xmlns:xlink="http://www.w3.org/1999/xlink">
<g id="graph0" class="graph" transform="scale(1 1) rotate(0) translate(4 214)">
<title>func_8019BED4</title>
<polygon fill="white" stroke="transparent" points="-4,4 -4,-214 1966.43,-214 1966.43,4 -4,4"/>
<!-- cen/func_8019BED4 -->
<g id="node1" class="node">
<title>cen/func_8019BED4</title>
<ellipse fill="red" stroke="black" cx="907.34" cy="-105" rx="104.78" ry="18"/>
<text text-anchor="middle" x="907.34" y="-101.3" font-family="Times,serif" font-size="14.00">cen/func_8019BED4</text>
</g>
<!-- cen/RotMatrix -->
<g id="node2" class="node">
<title>cen/RotMatrix</title>
<g id="a_node2"><a xlink:href="RotMatrix.svg" xlink:title="cen/RotMatrix">
<ellipse fill="red" stroke="black" cx="77.34" cy="-18" rx="77.19" ry="18"/>
<text text-anchor="middle" x="77.34" y="-14.3" font-family="Times,serif" font-size="14.00">cen/RotMatrix</text>
</a>
</g>
</g>
<!-- cen/func_8019BED4&#45;&gt;cen/RotMatrix -->
<g id="edge1" class="edge">
<title>cen/func_8019BED4&#45;&gt;cen/RotMatrix</title>
<path fill="none" stroke="black" d="M809.24,-98.69C666.66,-90.15 394.09,-70.69 164.34,-36 157.33,-34.94 150.03,-33.71 142.76,-32.41"/>
<polygon fill="black" stroke="black" points="143.38,-28.97 132.91,-30.6 142.11,-35.85 143.38,-28.97"/>
<text text-anchor="middle" x="434.34" y="-57.8" font-family="Times,serif" font-size="14.00">1</text>
</g>
<!-- cen/RotMatrixX -->
<g id="node3" class="node">
<title>cen/RotMatrixX</title>
<g id="a_node3"><a xlink:href="RotMatrixX.svg" xlink:title="cen/RotMatrixX">
<ellipse fill="red" stroke="black" cx="256.34" cy="-18" rx="83.39" ry="18"/>
<text text-anchor="middle" x="256.34" y="-14.3" font-family="Times,serif" font-size="14.00">cen/RotMatrixX</text>
</a>
</g>
</g>
<!-- cen/func_8019BED4&#45;&gt;cen/RotMatrixX -->
<g id="edge2" class="edge">
<title>cen/func_8019BED4&#45;&gt;cen/RotMatrixX</title>
<path fill="none" stroke="black" d="M819.97,-95.06C709.77,-83.39 514.56,-61.44 348.34,-36 341.09,-34.89 333.53,-33.64 325.99,-32.34"/>
<polygon fill="black" stroke="black" points="326.59,-28.89 316.13,-30.6 325.37,-35.78 326.59,-28.89"/>
<text text-anchor="middle" x="583.34" y="-57.8" font-family="Times,serif" font-size="14.00">1</text>
</g>
<!-- cen/RotMatrixY -->
<g id="node4" class="node">
<title>cen/RotMatrixY</title>
<g id="a_node4"><a xlink:href="RotMatrixY.svg" xlink:title="cen/RotMatrixY">
<ellipse fill="red" stroke="black" cx="440.34" cy="-18" rx="83.39" ry="18"/>
<text text-anchor="middle" x="440.34" y="-14.3" font-family="Times,serif" font-size="14.00">cen/RotMatrixY</text>
</a>
</g>
</g>
<!-- cen/func_8019BED4&#45;&gt;cen/RotMatrixY -->
<g id="edge3" class="edge">
<title>cen/func_8019BED4&#45;&gt;cen/RotMatrixY</title>
<path fill="none" stroke="black" d="M837.87,-91.47C762.58,-77.88 638.92,-55.51 532.34,-36 525.58,-34.76 518.54,-33.47 511.5,-32.17"/>
<polygon fill="black" stroke="black" points="511.68,-28.65 501.21,-30.28 510.41,-35.53 511.68,-28.65"/>
<text text-anchor="middle" x="712.34" y="-57.8" font-family="Times,serif" font-size="14.00">1</text>
</g>
<!-- cen/RotMatrixZ -->
<g id="node5" class="node">
<title>cen/RotMatrixZ</title>
<g id="a_node5"><a xlink:href="RotMatrixZ.svg" xlink:title="cen/RotMatrixZ">
<ellipse fill="red" stroke="black" cx="624.34" cy="-18" rx="83.39" ry="18"/>
<text text-anchor="middle" x="624.34" y="-14.3" font-family="Times,serif" font-size="14.00">cen/RotMatrixZ</text>
</a>
</g>
</g>
<!-- cen/func_8019BED4&#45;&gt;cen/RotMatrixZ -->
<g id="edge4" class="edge">
<title>cen/func_8019BED4&#45;&gt;cen/RotMatrixZ</title>
<path fill="none" stroke="black" d="M857.72,-89.1C808.28,-74.25 732.47,-51.48 680.77,-35.95"/>
<polygon fill="black" stroke="black" points="681.67,-32.56 671.08,-33.04 679.65,-39.27 681.67,-32.56"/>
<text text-anchor="middle" x="788.34" y="-57.8" font-family="Times,serif" font-size="14.00">1</text>
</g>
<!-- cen/TransMatrix -->
<g id="node6" class="node">
<title>cen/TransMatrix</title>
<g id="a_node6"><a xlink:href="TransMatrix.svg" xlink:title="cen/TransMatrix">
<ellipse fill="red" stroke="black" cx="812.34" cy="-18" rx="87.18" ry="18"/>
<text text-anchor="middle" x="812.34" y="-14.3" font-family="Times,serif" font-size="14.00">cen/TransMatrix</text>
</a>
</g>
</g>
<!-- cen/func_8019BED4&#45;&gt;cen/TransMatrix -->
<g id="edge5" class="edge">
<title>cen/func_8019BED4&#45;&gt;cen/TransMatrix</title>
<path fill="none" stroke="black" d="M888.57,-87.21C874.39,-74.52 854.74,-56.93 838.93,-42.79"/>
<polygon fill="black" stroke="black" points="840.86,-39.82 831.07,-35.76 836.19,-45.03 840.86,-39.82"/>
<text text-anchor="middle" x="871.34" y="-57.8" font-family="Times,serif" font-size="14.00">1</text>
</g>
<!-- cen/ScaleMatrix -->
<g id="node7" class="node">
<title>cen/ScaleMatrix</title>
<g id="a_node7"><a xlink:href="ScaleMatrix.svg" xlink:title="cen/ScaleMatrix">
<ellipse fill="red" stroke="black" cx="1003.34" cy="-18" rx="85.59" ry="18"/>
<text text-anchor="middle" x="1003.34" y="-14.3" font-family="Times,serif" font-size="14.00">cen/ScaleMatrix</text>
</a>
</g>
</g>
<!-- cen/func_8019BED4&#45;&gt;cen/ScaleMatrix -->
<g id="edge6" class="edge">
<title>cen/func_8019BED4&#45;&gt;cen/ScaleMatrix</title>
<path fill="none" stroke="black" d="M926.31,-87.21C940.77,-74.4 960.87,-56.61 976.91,-42.4"/>
<polygon fill="black" stroke="black" points="979.25,-45.01 984.42,-35.76 974.61,-39.77 979.25,-45.01"/>
<text text-anchor="middle" x="966.34" y="-57.8" font-family="Times,serif" font-size="14.00">1</text>
</g>
<!-- cen/SetRotMatrix -->
<g id="node8" class="node">
<title>cen/SetRotMatrix</title>
<g id="a_node8"><a xlink:href="SetRotMatrix.svg" xlink:title="cen/SetRotMatrix">
<ellipse fill="red" stroke="black" cx="1200.34" cy="-18" rx="92.88" ry="18"/>
<text text-anchor="middle" x="1200.34" y="-14.3" font-family="Times,serif" font-size="14.00">cen/SetRotMatrix</text>
</a>
</g>
</g>
<!-- cen/func_8019BED4&#45;&gt;cen/SetRotMatrix -->
<g id="edge7" class="edge">
<title>cen/func_8019BED4&#45;&gt;cen/SetRotMatrix</title>
<path fill="none" stroke="black" d="M958.38,-89.19C1009.32,-74.42 1087.52,-51.73 1141.15,-36.17"/>
<polygon fill="black" stroke="black" points="1142.24,-39.5 1150.87,-33.35 1140.29,-32.78 1142.24,-39.5"/>
<text text-anchor="middle" x="1077.34" y="-57.8" font-family="Times,serif" font-size="14.00">1</text>
</g>
<!-- cen/SetTransMatrix -->
<g id="node9" class="node">
<title>cen/SetTransMatrix</title>
<g id="a_node9"><a xlink:href="SetTransMatrix.svg" xlink:title="cen/SetTransMatrix">
<ellipse fill="red" stroke="black" cx="1414.34" cy="-18" rx="102.88" ry="18"/>
<text text-anchor="middle" x="1414.34" y="-14.3" font-family="Times,serif" font-size="14.00">cen/SetTransMatrix</text>
</a>
</g>
</g>
<!-- cen/func_8019BED4&#45;&gt;cen/SetTransMatrix -->
<g id="edge8" class="edge">
<title>cen/func_8019BED4&#45;&gt;cen/SetTransMatrix</title>
<path fill="none" stroke="black" d="M979.45,-91.91C1072.78,-76.26 1235.02,-49.06 1332.77,-32.68"/>
<polygon fill="black" stroke="black" points="1333.62,-36.08 1342.9,-30.98 1332.46,-29.18 1333.62,-36.08"/>
<text text-anchor="middle" x="1196.34" y="-57.8" font-family="Times,serif" font-size="14.00">1</text>
</g>
<!-- cen/SetGeomScreen -->
<g id="node10" class="node">
<title>cen/SetGeomScreen</title>
<g id="a_node10"><a xlink:href="SetGeomScreen.svg" xlink:title="cen/SetGeomScreen">
<ellipse fill="red" stroke="black" cx="1639.34" cy="-18" rx="104.78" ry="18"/>
<text text-anchor="middle" x="1639.34" y="-14.3" font-family="Times,serif" font-size="14.00">cen/SetGeomScreen</text>
</a>
</g>
</g>
<!-- cen/func_8019BED4&#45;&gt;cen/SetGeomScreen -->
<g id="edge9" class="edge">
<title>cen/func_8019BED4&#45;&gt;cen/SetGeomScreen</title>
<path fill="none" stroke="black" d="M995.89,-95.39C1116.15,-83.45 1337.79,-60.53 1526.34,-36 1535.54,-34.8 1545.15,-33.48 1554.71,-32.11"/>
<polygon fill="black" stroke="black" points="1555.24,-35.57 1564.64,-30.67 1554.24,-28.64 1555.24,-35.57"/>
<text text-anchor="middle" x="1378.34" y="-57.8" font-family="Times,serif" font-size="14.00">1</text>
</g>
<!-- cen/SetGeomOffset -->
<g id="node11" class="node">
<title>cen/SetGeomOffset</title>
<g id="a_node11"><a xlink:href="SetGeomOffset.svg" xlink:title="cen/SetGeomOffset">
<ellipse fill="red" stroke="black" cx="1862.34" cy="-18" rx="100.18" ry="18"/>
<text text-anchor="middle" x="1862.34" y="-14.3" font-family="Times,serif" font-size="14.00">cen/SetGeomOffset</text>
</a>
</g>
</g>
<!-- cen/func_8019BED4&#45;&gt;cen/SetGeomOffset -->
<g id="edge10" class="edge">
<title>cen/func_8019BED4&#45;&gt;cen/SetGeomOffset</title>
<path fill="none" stroke="black" d="M1005.64,-98.79C1163.63,-89.82 1483.7,-69.15 1753.34,-36 1762.42,-34.88 1771.9,-33.59 1781.32,-32.23"/>
<polygon fill="black" stroke="black" points="1782.11,-35.65 1791.49,-30.73 1781.09,-28.73 1782.11,-35.65"/>
<text text-anchor="middle" x="1573.34" y="-57.8" font-family="Times,serif" font-size="14.00">1</text>
</g>
<!-- cen/func_8018DB18 -->
<g id="node12" class="node">
<title>cen/func_8018DB18</title>
<g id="a_node12"><a xlink:href="func_8018DB18.svg" xlink:title="cen/func_8018DB18">
<ellipse fill="green" stroke="black" cx="907.34" cy="-192" rx="103.18" ry="18"/>
<text text-anchor="middle" x="907.34" y="-188.3" font-family="Times,serif" font-size="14.00">cen/func_8018DB18</text>
</a>
</g>
</g>
<!-- cen/func_8018DB18&#45;&gt;cen/func_8019BED4 -->
<g id="edge11" class="edge">
<title>cen/func_8018DB18&#45;&gt;cen/func_8019BED4</title>
<path fill="none" stroke="black" d="M907.34,-173.8C907.34,-162.16 907.34,-146.55 907.34,-133.24"/>
<polygon fill="black" stroke="black" points="910.84,-133.18 907.34,-123.18 903.84,-133.18 910.84,-133.18"/>
<text text-anchor="middle" x="912.34" y="-144.8" font-family="Times,serif" font-size="14.00">1</text>
</g>
</g>
</svg>
