<?xml version="1.0" encoding="UTF-8" standalone="no"?>
<!DOCTYPE svg PUBLIC "-//W3C//DTD SVG 1.1//EN"
 "http://www.w3.org/Graphics/SVG/1.1/DTD/svg11.dtd">
<!-- Generated by graphviz version 2.43.0 (0)
 -->
<!-- Title: func_8019A7B8 Pages: 1 -->
<svg width="613pt" height="131pt"
 viewBox="0.00 0.00 613.28 131.00" xmlns="http://www.w3.org/2000/svg" xmlns:xlink="http://www.w3.org/1999/xlink">
<g id="graph0" class="graph" transform="scale(1 1) rotate(0) translate(4 127)">
<title>func_8019A7B8</title>
<polygon fill="white" stroke="transparent" points="-4,4 -4,-127 609.28,-127 609.28,4 -4,4"/>
<!-- dre/func_8019A7B8 -->
<g id="node1" class="node">
<title>dre/func_8019A7B8</title>
<ellipse fill="green" stroke="black" cx="260.19" cy="-105" rx="102.08" ry="18"/>
<text text-anchor="middle" x="260.19" y="-101.3" font-family="Times,serif" font-size="14.00">dre/func_8019A7B8</text>
</g>
<!-- dre/MoveEntity -->
<g id="node2" class="node">
<title>dre/MoveEntity</title>
<g id="a_node2"><a xlink:href="MoveEntity.svg" xlink:title="dre/MoveEntity">
<ellipse fill="green" stroke="black" cx="83.19" cy="-18" rx="83.39" ry="18"/>
<text text-anchor="middle" x="83.19" y="-14.3" font-family="Times,serif" font-size="14.00">dre/MoveEntity</text>
</a>
</g>
</g>
<!-- dre/func_8019A7B8&#45;&gt;dre/MoveEntity -->
<g id="edge1" class="edge">
<title>dre/func_8019A7B8&#45;&gt;dre/MoveEntity</title>
<path fill="none" stroke="black" d="M226.48,-87.81C197.67,-73.97 156.08,-54 125.12,-39.13"/>
<polygon fill="black" stroke="black" points="126.41,-35.87 115.88,-34.7 123.38,-42.18 126.41,-35.87"/>
<text text-anchor="middle" x="188.19" y="-57.8" font-family="Times,serif" font-size="14.00">1</text>
</g>
<!-- dre/FallEntity -->
<g id="node3" class="node">
<title>dre/FallEntity</title>
<g id="a_node3"><a xlink:href="FallEntity.svg" xlink:title="dre/FallEntity">
<ellipse fill="green" stroke="black" cx="260.19" cy="-18" rx="75.29" ry="18"/>
<text text-anchor="middle" x="260.19" y="-14.3" font-family="Times,serif" font-size="14.00">dre/FallEntity</text>
</a>
</g>
</g>
<!-- dre/func_8019A7B8&#45;&gt;dre/FallEntity -->
<g id="edge2" class="edge">
<title>dre/func_8019A7B8&#45;&gt;dre/FallEntity</title>
<path fill="none" stroke="black" d="M260.19,-86.8C260.19,-75.16 260.19,-59.55 260.19,-46.24"/>
<polygon fill="black" stroke="black" points="263.69,-46.18 260.19,-36.18 256.69,-46.18 263.69,-46.18"/>
<text text-anchor="middle" x="265.19" y="-57.8" font-family="Times,serif" font-size="14.00">1</text>
</g>
<!-- dre/g_api_CheckCollision -->
<g id="node4" class="node">
<title>dre/g_api_CheckCollision</title>
<g id="a_node4"><a xlink:href="g_api_CheckCollision.svg" xlink:title="dre/g_api_CheckCollision">
<ellipse fill="lightblue" stroke="black" cx="479.19" cy="-18" rx="126.18" ry="18"/>
<text text-anchor="middle" x="479.19" y="-14.3" font-family="Times,serif" font-size="14.00">dre/g_api_CheckCollision</text>
</a>
</g>
</g>
<!-- dre/func_8019A7B8&#45;&gt;dre/g_api_CheckCollision -->
<g id="edge3" class="edge">
<title>dre/func_8019A7B8&#45;&gt;dre/g_api_CheckCollision</title>
<path fill="none" stroke="black" d="M300.36,-88.41C336.33,-74.45 389.26,-53.9 428.21,-38.79"/>
<polygon fill="black" stroke="black" points="429.74,-41.95 437.79,-35.07 427.2,-35.42 429.74,-41.95"/>
<text text-anchor="middle" x="388.19" y="-57.8" font-family="Times,serif" font-size="14.00">3</text>
</g>
</g>
</svg>
