<?xml version="1.0" encoding="UTF-8" standalone="no"?>
<!DOCTYPE svg PUBLIC "-//W3C//DTD SVG 1.1//EN"
 "http://www.w3.org/Graphics/SVG/1.1/DTD/svg11.dtd">
<!-- Generated by graphviz version 2.43.0 (0)
 -->
<!-- Title: func_8010DFF0 Pages: 1 -->
<svg width="3502pt" height="131pt"
 viewBox="0.00 0.00 3502.03 131.00" xmlns="http://www.w3.org/2000/svg" xmlns:xlink="http://www.w3.org/1999/xlink">
<g id="graph0" class="graph" transform="scale(1 1) rotate(0) translate(4 127)">
<title>func_8010DFF0</title>
<polygon fill="white" stroke="transparent" points="-4,4 -4,-127 3498.03,-127 3498.03,4 -4,4"/>
<!-- dra/func_8010DFF0 -->
<g id="node1" class="node">
<title>dra/func_8010DFF0</title>
<ellipse fill="green" stroke="black" cx="1527.39" cy="-18" rx="102.88" ry="18"/>
<text text-anchor="middle" x="1527.39" y="-14.3" font-family="Times,serif" font-size="14.00">dra/func_8010DFF0</text>
</g>
<!-- dra/func_801120B4 -->
<g id="node2" class="node">
<title>dra/func_801120B4</title>
<g id="a_node2"><a xlink:href="func_801120B4.svg" xlink:title="dra/func_801120B4">
<ellipse fill="red" stroke="black" cx="101.39" cy="-105" rx="101.28" ry="18"/>
<text text-anchor="middle" x="101.39" y="-101.3" font-family="Times,serif" font-size="14.00">dra/func_801120B4</text>
</a>
</g>
</g>
<!-- dra/func_801120B4&#45;&gt;dra/func_8010DFF0 -->
<g id="edge1" class="edge">
<title>dra/func_801120B4&#45;&gt;dra/func_8010DFF0</title>
<path fill="none" stroke="black" d="M172.89,-92.23C185.69,-90.33 198.92,-88.5 211.39,-87 381.91,-66.54 424.98,-64.56 596.39,-54 891.99,-35.79 1241.01,-25.72 1415.82,-21.47"/>
<polygon fill="black" stroke="black" points="1416.14,-24.96 1426.06,-21.22 1415.97,-17.96 1416.14,-24.96"/>
<text text-anchor="middle" x="601.39" y="-57.8" font-family="Times,serif" font-size="14.00">7</text>
</g>
<!-- dra/func_8010A234 -->
<g id="node3" class="node">
<title>dra/func_8010A234</title>
<g id="a_node3"><a xlink:href="func_8010A234.svg" xlink:title="dra/func_8010A234">
<ellipse fill="red" stroke="black" cx="321.39" cy="-105" rx="100.98" ry="18"/>
<text text-anchor="middle" x="321.39" y="-101.3" font-family="Times,serif" font-size="14.00">dra/func_8010A234</text>
</a>
</g>
</g>
<!-- dra/func_8010A234&#45;&gt;dra/func_8010DFF0 -->
<g id="edge2" class="edge">
<title>dra/func_8010A234&#45;&gt;dra/func_8010DFF0</title>
<path fill="none" stroke="black" d="M392.89,-92.25C405.69,-90.34 418.92,-88.51 431.39,-87 789.74,-43.72 1217.52,-27.26 1416.03,-21.63"/>
<polygon fill="black" stroke="black" points="1416.27,-25.12 1426.17,-21.34 1416.08,-18.12 1416.27,-25.12"/>
<text text-anchor="middle" x="767.39" y="-57.8" font-family="Times,serif" font-size="14.00">1</text>
</g>
<!-- dra/func_8010EDB8 -->
<g id="node4" class="node">
<title>dra/func_8010EDB8</title>
<g id="a_node4"><a xlink:href="func_8010EDB8.svg" xlink:title="dra/func_8010EDB8">
<ellipse fill="red" stroke="black" cx="544.39" cy="-105" rx="103.98" ry="18"/>
<text text-anchor="middle" x="544.39" y="-101.3" font-family="Times,serif" font-size="14.00">dra/func_8010EDB8</text>
</a>
</g>
</g>
<!-- dra/func_8010EDB8&#45;&gt;dra/func_8010DFF0 -->
<g id="edge3" class="edge">
<title>dra/func_8010EDB8&#45;&gt;dra/func_8010DFF0</title>
<path fill="none" stroke="black" d="M618.47,-92.29C631.43,-90.41 644.79,-88.56 657.39,-87 930.94,-53.05 1255.1,-33.01 1419.77,-24.26"/>
<polygon fill="black" stroke="black" points="1420.09,-27.74 1429.9,-23.72 1419.73,-20.75 1420.09,-27.74"/>
<text text-anchor="middle" x="973.39" y="-57.8" font-family="Times,serif" font-size="14.00">1</text>
</g>
<!-- dra/EntityAlucard -->
<g id="node5" class="node">
<title>dra/EntityAlucard</title>
<g id="a_node5"><a xlink:href="EntityAlucard.svg" xlink:title="dra/EntityAlucard">
<ellipse fill="red" stroke="black" cx="760.39" cy="-105" rx="93.68" ry="18"/>
<text text-anchor="middle" x="760.39" y="-101.3" font-family="Times,serif" font-size="14.00">dra/EntityAlucard</text>
</a>
</g>
</g>
<!-- dra/EntityAlucard&#45;&gt;dra/func_8010DFF0 -->
<g id="edge4" class="edge">
<title>dra/EntityAlucard&#45;&gt;dra/func_8010DFF0</title>
<path fill="none" stroke="black" d="M826.96,-92.28C838.75,-90.39 850.91,-88.54 862.39,-87 1061.79,-60.22 1296.08,-38.52 1426.57,-27.31"/>
<polygon fill="black" stroke="black" points="1426.89,-30.8 1436.56,-26.46 1426.29,-23.82 1426.89,-30.8"/>
<text text-anchor="middle" x="1141.39" y="-57.8" font-family="Times,serif" font-size="14.00">2</text>
</g>
<!-- dra/func_8010E0D0 -->
<g id="node6" class="node">
<title>dra/func_8010E0D0</title>
<g id="a_node6"><a xlink:href="func_8010E0D0.svg" xlink:title="dra/func_8010E0D0">
<ellipse fill="green" stroke="black" cx="974.39" cy="-105" rx="102.88" ry="18"/>
<text text-anchor="middle" x="974.39" y="-101.3" font-family="Times,serif" font-size="14.00">dra/func_8010E0D0</text>
</a>
</g>
</g>
<!-- dra/func_8010E0D0&#45;&gt;dra/func_8010DFF0 -->
<g id="edge5" class="edge">
<title>dra/func_8010E0D0&#45;&gt;dra/func_8010DFF0</title>
<path fill="none" stroke="black" d="M1048.97,-92.54C1151.36,-76.8 1334.97,-48.58 1442.51,-32.05"/>
<polygon fill="black" stroke="black" points="1443.32,-35.46 1452.67,-30.49 1442.25,-28.55 1443.32,-35.46"/>
<text text-anchor="middle" x="1289.39" y="-57.8" font-family="Times,serif" font-size="14.00">1</text>
</g>
<!-- dra/func_80109594 -->
<g id="node7" class="node">
<title>dra/func_80109594</title>
<g id="a_node7"><a xlink:href="func_80109594.svg" xlink:title="dra/func_80109594">
<ellipse fill="green" stroke="black" cx="1195.39" cy="-105" rx="100.98" ry="18"/>
<text text-anchor="middle" x="1195.39" y="-101.3" font-family="Times,serif" font-size="14.00">dra/func_80109594</text>
</a>
</g>
</g>
<!-- dra/func_80109594&#45;&gt;dra/func_8010DFF0 -->
<g id="edge6" class="edge">
<title>dra/func_80109594&#45;&gt;dra/func_8010DFF0</title>
<path fill="none" stroke="black" d="M1250.59,-89.87C1308.75,-74.98 1400.31,-51.54 1462.04,-35.73"/>
<polygon fill="black" stroke="black" points="1463.24,-39.04 1472.06,-33.17 1461.51,-32.25 1463.24,-39.04"/>
<text text-anchor="middle" x="1386.39" y="-57.8" font-family="Times,serif" font-size="14.00">1</text>
</g>
<!-- dra/func_800E414C -->
<g id="node8" class="node">
<title>dra/func_800E414C</title>
<g id="a_node8"><a xlink:href="func_800E414C.svg" xlink:title="dra/func_800E414C">
<ellipse fill="green" stroke="black" cx="1416.39" cy="-105" rx="102.88" ry="18"/>
<text text-anchor="middle" x="1416.39" y="-101.3" font-family="Times,serif" font-size="14.00">dra/func_800E414C</text>
</a>
</g>
</g>
<!-- dra/func_800E414C&#45;&gt;dra/func_8010DFF0 -->
<g id="edge7" class="edge">
<title>dra/func_800E414C&#45;&gt;dra/func_8010DFF0</title>
<path fill="none" stroke="black" d="M1438.32,-87.21C1455.2,-74.28 1478.7,-56.28 1497.33,-42.02"/>
<polygon fill="black" stroke="black" points="1499.69,-44.62 1505.51,-35.76 1495.44,-39.06 1499.69,-44.62"/>
<text text-anchor="middle" x="1484.39" y="-57.8" font-family="Times,serif" font-size="14.00">1</text>
</g>
<!-- dra/func_801131C4 -->
<g id="node9" class="node">
<title>dra/func_801131C4</title>
<g id="a_node9"><a xlink:href="func_801131C4.svg" xlink:title="dra/func_801131C4">
<ellipse fill="red" stroke="black" cx="1638.39" cy="-105" rx="101.28" ry="18"/>
<text text-anchor="middle" x="1638.39" y="-101.3" font-family="Times,serif" font-size="14.00">dra/func_801131C4</text>
</a>
</g>
</g>
<!-- dra/func_801131C4&#45;&gt;dra/func_8010DFF0 -->
<g id="edge8" class="edge">
<title>dra/func_801131C4&#45;&gt;dra/func_8010DFF0</title>
<path fill="none" stroke="black" d="M1616.73,-87.41C1599.8,-74.45 1576.08,-56.28 1557.34,-41.93"/>
<polygon fill="black" stroke="black" points="1559.45,-39.14 1549.38,-35.84 1555.19,-44.7 1559.45,-39.14"/>
<text text-anchor="middle" x="1595.39" y="-57.8" font-family="Times,serif" font-size="14.00">6</text>
</g>
<!-- dra/func_80112BB0 -->
<g id="node10" class="node">
<title>dra/func_80112BB0</title>
<g id="a_node10"><a xlink:href="func_80112BB0.svg" xlink:title="dra/func_80112BB0">
<ellipse fill="green" stroke="black" cx="1860.39" cy="-105" rx="102.88" ry="18"/>
<text text-anchor="middle" x="1860.39" y="-101.3" font-family="Times,serif" font-size="14.00">dra/func_80112BB0</text>
</a>
</g>
</g>
<!-- dra/func_80112BB0&#45;&gt;dra/func_8010DFF0 -->
<g id="edge9" class="edge">
<title>dra/func_80112BB0&#45;&gt;dra/func_8010DFF0</title>
<path fill="none" stroke="black" d="M1804.65,-89.77C1746.34,-74.89 1654.85,-51.53 1593.06,-35.76"/>
<polygon fill="black" stroke="black" points="1593.59,-32.28 1583.03,-33.2 1591.86,-39.07 1593.59,-32.28"/>
<text text-anchor="middle" x="1719.39" y="-57.8" font-family="Times,serif" font-size="14.00">4</text>
</g>
<!-- dra/EntityMpReplenished -->
<g id="node11" class="node">
<title>dra/EntityMpReplenished</title>
<g id="a_node11"><a xlink:href="EntityMpReplenished.svg" xlink:title="dra/EntityMpReplenished">
<ellipse fill="red" stroke="black" cx="2111.39" cy="-105" rx="129.98" ry="18"/>
<text text-anchor="middle" x="2111.39" y="-101.3" font-family="Times,serif" font-size="14.00">dra/EntityMpReplenished</text>
</a>
</g>
</g>
<!-- dra/EntityMpReplenished&#45;&gt;dra/func_8010DFF0 -->
<g id="edge10" class="edge">
<title>dra/EntityMpReplenished&#45;&gt;dra/func_8010DFF0</title>
<path fill="none" stroke="black" d="M2025.22,-91.46C1914.76,-75.38 1724.36,-47.67 1613.79,-31.58"/>
<polygon fill="black" stroke="black" points="1614.07,-28.08 1603.67,-30.1 1613.06,-35.01 1614.07,-28.08"/>
<text text-anchor="middle" x="1859.39" y="-57.8" font-family="Times,serif" font-size="14.00">1</text>
</g>
<!-- dra/EntityPlayerDissolves -->
<g id="node12" class="node">
<title>dra/EntityPlayerDissolves</title>
<g id="a_node12"><a xlink:href="EntityPlayerDissolves.svg" xlink:title="dra/EntityPlayerDissolves">
<ellipse fill="red" stroke="black" cx="2391.39" cy="-105" rx="131.88" ry="18"/>
<text text-anchor="middle" x="2391.39" y="-101.3" font-family="Times,serif" font-size="14.00">dra/EntityPlayerDissolves</text>
</a>
</g>
</g>
<!-- dra/EntityPlayerDissolves&#45;&gt;dra/func_8010DFF0 -->
<g id="edge11" class="edge">
<title>dra/EntityPlayerDissolves&#45;&gt;dra/func_8010DFF0</title>
<path fill="none" stroke="black" d="M2297.38,-92.32C2281.7,-90.47 2265.59,-88.63 2250.39,-87 2028.27,-63.17 1767.26,-39.75 1627.61,-27.59"/>
<polygon fill="black" stroke="black" points="1627.62,-24.08 1617.36,-26.7 1627.02,-31.05 1627.62,-24.08"/>
<text text-anchor="middle" x="2077.39" y="-57.8" font-family="Times,serif" font-size="14.00">1</text>
</g>
<!-- dra/EntityPlayerBlinkWhite -->
<g id="node13" class="node">
<title>dra/EntityPlayerBlinkWhite</title>
<g id="a_node13"><a xlink:href="EntityPlayerBlinkWhite.svg" xlink:title="dra/EntityPlayerBlinkWhite">
<ellipse fill="red" stroke="black" cx="2680.39" cy="-105" rx="139.18" ry="18"/>
<text text-anchor="middle" x="2680.39" y="-101.3" font-family="Times,serif" font-size="14.00">dra/EntityPlayerBlinkWhite</text>
</a>
</g>
</g>
<!-- dra/EntityPlayerBlinkWhite&#45;&gt;dra/func_8010DFF0 -->
<g id="edge12" class="edge">
<title>dra/EntityPlayerBlinkWhite&#45;&gt;dra/func_8010DFF0</title>
<path fill="none" stroke="black" d="M2582.53,-92.19C2565.81,-90.34 2548.61,-88.53 2532.39,-87 2206.02,-56.19 1818.75,-34.04 1634.76,-24.39"/>
<polygon fill="black" stroke="black" points="1634.72,-20.88 1624.55,-23.85 1634.35,-27.87 1634.72,-20.88"/>
<text text-anchor="middle" x="2318.39" y="-57.8" font-family="Times,serif" font-size="14.00">1</text>
</g>
<!-- dra/EntitySubwpnCrashCross -->
<g id="node14" class="node">
<title>dra/EntitySubwpnCrashCross</title>
<g id="a_node14"><a xlink:href="EntitySubwpnCrashCross.svg" xlink:title="dra/EntitySubwpnCrashCross">
<ellipse fill="red" stroke="black" cx="2987.39" cy="-105" rx="149.47" ry="18"/>
<text text-anchor="middle" x="2987.39" y="-101.3" font-family="Times,serif" font-size="14.00">dra/EntitySubwpnCrashCross</text>
</a>
</g>
</g>
<!-- dra/EntitySubwpnCrashCross&#45;&gt;dra/func_8010DFF0 -->
<g id="edge13" class="edge">
<title>dra/EntitySubwpnCrashCross&#45;&gt;dra/func_8010DFF0</title>
<path fill="none" stroke="black" d="M2882.25,-92.15C2864.29,-90.3 2845.82,-88.5 2828.39,-87 2388.42,-49.01 1862.78,-29.41 1638.08,-22.25"/>
<polygon fill="black" stroke="black" points="1638.04,-18.75 1627.94,-21.93 1637.82,-25.75 1638.04,-18.75"/>
<text text-anchor="middle" x="2585.39" y="-57.8" font-family="Times,serif" font-size="14.00">1</text>
</g>
<!-- dra/EntityTransparentWhiteCircle -->
<g id="node15" class="node">
<title>dra/EntityTransparentWhiteCircle</title>
<g id="a_node15"><a xlink:href="EntityTransparentWhiteCircle.svg" xlink:title="dra/EntityTransparentWhiteCircle">
<ellipse fill="red" stroke="black" cx="3324.39" cy="-105" rx="169.77" ry="18"/>
<text text-anchor="middle" x="3324.39" y="-101.3" font-family="Times,serif" font-size="14.00">dra/EntityTransparentWhiteCircle</text>
</a>
</g>
</g>
<!-- dra/EntityTransparentWhiteCircle&#45;&gt;dra/func_8010DFF0 -->
<g id="edge14" class="edge">
<title>dra/EntityTransparentWhiteCircle&#45;&gt;dra/func_8010DFF0</title>
<path fill="none" stroke="black" d="M3205.53,-92.13C3185.47,-90.29 3164.84,-88.51 3145.39,-87 2580.75,-43.29 1902.92,-26.27 1639.62,-20.99"/>
<polygon fill="black" stroke="black" points="1639.36,-17.49 1629.29,-20.79 1639.22,-24.49 1639.36,-17.49"/>
<text text-anchor="middle" x="2886.39" y="-57.8" font-family="Times,serif" font-size="14.00">1</text>
</g>
</g>
</svg>
