<?xml version="1.0" encoding="UTF-8" standalone="no"?>
<!DOCTYPE svg PUBLIC "-//W3C//DTD SVG 1.1//EN"
 "http://www.w3.org/Graphics/SVG/1.1/DTD/svg11.dtd">
<!-- Generated by graphviz version 2.43.0 (0)
 -->
<!-- Title: func_80103238 Pages: 1 -->
<svg width="1488pt" height="218pt"
 viewBox="0.00 0.00 1488.14 218.00" xmlns="http://www.w3.org/2000/svg" xmlns:xlink="http://www.w3.org/1999/xlink">
<g id="graph0" class="graph" transform="scale(1 1) rotate(0) translate(4 214)">
<title>func_80103238</title>
<polygon fill="white" stroke="transparent" points="-4,4 -4,-214 1484.14,-214 1484.14,4 -4,4"/>
<!-- dra/func_80103238 -->
<g id="node1" class="node">
<title>dra/func_80103238</title>
<ellipse fill="red" stroke="black" cx="736.34" cy="-105" rx="100.98" ry="18"/>
<text text-anchor="middle" x="736.34" y="-101.3" font-family="Times,serif" font-size="14.00">dra/func_80103238</text>
</g>
<!-- dra/PlaySfx -->
<g id="node2" class="node">
<title>dra/PlaySfx</title>
<g id="a_node2"><a xlink:href="PlaySfx.svg" xlink:title="dra/PlaySfx">
<ellipse fill="green" stroke="black" cx="64.34" cy="-18" rx="64.19" ry="18"/>
<text text-anchor="middle" x="64.34" y="-14.3" font-family="Times,serif" font-size="14.00">dra/PlaySfx</text>
</a>
</g>
</g>
<!-- dra/func_80103238&#45;&gt;dra/PlaySfx -->
<g id="edge1" class="edge">
<title>dra/func_80103238&#45;&gt;dra/PlaySfx</title>
<path fill="none" stroke="black" d="M645.82,-97.01C528.12,-87.17 316.41,-66.91 137.34,-36 131.89,-35.06 126.24,-33.96 120.6,-32.79"/>
<polygon fill="black" stroke="black" points="121.04,-29.3 110.52,-30.6 119.55,-36.14 121.04,-29.3"/>
<text text-anchor="middle" x="372.34" y="-57.8" font-family="Times,serif" font-size="14.00">9</text>
</g>
<!-- dra/func_800F9D88 -->
<g id="node3" class="node">
<title>dra/func_800F9D88</title>
<g id="a_node3"><a xlink:href="func_800F9D88.svg" xlink:title="dra/func_800F9D88">
<ellipse fill="green" stroke="black" cx="249.34" cy="-18" rx="102.88" ry="18"/>
<text text-anchor="middle" x="249.34" y="-14.3" font-family="Times,serif" font-size="14.00">dra/func_800F9D88</text>
</a>
</g>
</g>
<!-- dra/func_80103238&#45;&gt;dra/func_800F9D88 -->
<g id="edge2" class="edge">
<title>dra/func_80103238&#45;&gt;dra/func_800F9D88</title>
<path fill="none" stroke="black" d="M667.09,-91.91C578.03,-76.37 423.66,-49.43 329.59,-33.01"/>
<polygon fill="black" stroke="black" points="330,-29.52 319.55,-31.25 328.8,-36.42 330,-29.52"/>
<text text-anchor="middle" x="531.84" y="-57.8" font-family="Times,serif" font-size="14.00">21</text>
</g>
<!-- dra/SetTexturedPrimRect -->
<g id="node4" class="node">
<title>dra/SetTexturedPrimRect</title>
<g id="a_node4"><a xlink:href="SetTexturedPrimRect.svg" xlink:title="dra/SetTexturedPrimRect">
<ellipse fill="green" stroke="black" cx="500.34" cy="-18" rx="129.98" ry="18"/>
<text text-anchor="middle" x="500.34" y="-14.3" font-family="Times,serif" font-size="14.00">dra/SetTexturedPrimRect</text>
</a>
</g>
</g>
<!-- dra/func_80103238&#45;&gt;dra/SetTexturedPrimRect -->
<g id="edge3" class="edge">
<title>dra/func_80103238&#45;&gt;dra/SetTexturedPrimRect</title>
<path fill="none" stroke="black" d="M693.61,-88.61C654.54,-74.54 596.59,-53.67 554.34,-38.45"/>
<polygon fill="black" stroke="black" points="555.36,-35.1 544.77,-35 552.99,-41.68 555.36,-35.1"/>
<text text-anchor="middle" x="642.84" y="-57.8" font-family="Times,serif" font-size="14.00">12</text>
</g>
<!-- dra/SetPrimRect -->
<g id="node5" class="node">
<title>dra/SetPrimRect</title>
<g id="a_node5"><a xlink:href="SetPrimRect.svg" xlink:title="dra/SetPrimRect">
<ellipse fill="green" stroke="black" cx="736.34" cy="-18" rx="88.28" ry="18"/>
<text text-anchor="middle" x="736.34" y="-14.3" font-family="Times,serif" font-size="14.00">dra/SetPrimRect</text>
</a>
</g>
</g>
<!-- dra/func_80103238&#45;&gt;dra/SetPrimRect -->
<g id="edge4" class="edge">
<title>dra/func_80103238&#45;&gt;dra/SetPrimRect</title>
<path fill="none" stroke="black" d="M736.34,-86.8C736.34,-75.16 736.34,-59.55 736.34,-46.24"/>
<polygon fill="black" stroke="black" points="739.84,-46.18 736.34,-36.18 732.84,-46.18 739.84,-46.18"/>
<text text-anchor="middle" x="741.34" y="-57.8" font-family="Times,serif" font-size="14.00">7</text>
</g>
<!-- dra/func_80103148 -->
<g id="node6" class="node">
<title>dra/func_80103148</title>
<g id="a_node6"><a xlink:href="func_80103148.svg" xlink:title="dra/func_80103148">
<ellipse fill="green" stroke="black" cx="943.34" cy="-18" rx="100.98" ry="18"/>
<text text-anchor="middle" x="943.34" y="-14.3" font-family="Times,serif" font-size="14.00">dra/func_80103148</text>
</a>
</g>
</g>
<!-- dra/func_80103238&#45;&gt;dra/func_80103148 -->
<g id="edge5" class="edge">
<title>dra/func_80103238&#45;&gt;dra/func_80103148</title>
<path fill="none" stroke="black" d="M774.79,-88.21C808.92,-74.2 858.93,-53.66 895.61,-38.6"/>
<polygon fill="black" stroke="black" points="897.18,-41.74 905.1,-34.7 894.52,-35.26 897.18,-41.74"/>
<text text-anchor="middle" x="861.84" y="-57.8" font-family="Times,serif" font-size="14.00">12</text>
</g>
<!-- dra/func_801030B4 -->
<g id="node7" class="node">
<title>dra/func_801030B4</title>
<g id="a_node7"><a xlink:href="func_801030B4.svg" xlink:title="dra/func_801030B4">
<ellipse fill="green" stroke="black" cx="1163.34" cy="-18" rx="101.28" ry="18"/>
<text text-anchor="middle" x="1163.34" y="-14.3" font-family="Times,serif" font-size="14.00">dra/func_801030B4</text>
</a>
</g>
</g>
<!-- dra/func_80103238&#45;&gt;dra/func_801030B4 -->
<g id="edge6" class="edge">
<title>dra/func_80103238&#45;&gt;dra/func_801030B4</title>
<path fill="none" stroke="black" d="M801.2,-91.09C878.39,-75.72 1007.04,-50.12 1088.41,-33.92"/>
<polygon fill="black" stroke="black" points="1089.46,-37.28 1098.58,-31.89 1088.09,-30.41 1089.46,-37.28"/>
<text text-anchor="middle" x="984.84" y="-57.8" font-family="Times,serif" font-size="14.00">10</text>
</g>
<!-- dra/FreePrimitives -->
<g id="node8" class="node">
<title>dra/FreePrimitives</title>
<g id="a_node8"><a xlink:href="FreePrimitives.svg" xlink:title="dra/FreePrimitives">
<ellipse fill="green" stroke="black" cx="1381.34" cy="-18" rx="98.58" ry="18"/>
<text text-anchor="middle" x="1381.34" y="-14.3" font-family="Times,serif" font-size="14.00">dra/FreePrimitives</text>
</a>
</g>
</g>
<!-- dra/func_80103238&#45;&gt;dra/FreePrimitives -->
<g id="edge7" class="edge">
<title>dra/func_80103238&#45;&gt;dra/FreePrimitives</title>
<path fill="none" stroke="black" d="M818.33,-94.4C923.73,-81.87 1112.38,-58.85 1273.34,-36 1282.01,-34.77 1291.07,-33.43 1300.08,-32.06"/>
<polygon fill="black" stroke="black" points="1300.87,-35.48 1310.22,-30.51 1299.81,-28.56 1300.87,-35.48"/>
<text text-anchor="middle" x="1145.34" y="-57.8" font-family="Times,serif" font-size="14.00">9</text>
</g>
<!-- dra/func_80105428 -->
<g id="node9" class="node">
<title>dra/func_80105428</title>
<g id="a_node9"><a xlink:href="func_80105428.svg" xlink:title="dra/func_80105428">
<ellipse fill="red" stroke="black" cx="736.34" cy="-192" rx="100.98" ry="18"/>
<text text-anchor="middle" x="736.34" y="-188.3" font-family="Times,serif" font-size="14.00">dra/func_80105428</text>
</a>
</g>
</g>
<!-- dra/func_80105428&#45;&gt;dra/func_80103238 -->
<g id="edge8" class="edge">
<title>dra/func_80105428&#45;&gt;dra/func_80103238</title>
<path fill="none" stroke="black" d="M736.34,-173.8C736.34,-162.16 736.34,-146.55 736.34,-133.24"/>
<polygon fill="black" stroke="black" points="739.84,-133.18 736.34,-123.18 732.84,-133.18 739.84,-133.18"/>
<text text-anchor="middle" x="741.34" y="-144.8" font-family="Times,serif" font-size="14.00">6</text>
</g>
</g>
</svg>
