<?xml version="1.0" encoding="UTF-8" standalone="no"?>
<!DOCTYPE svg PUBLIC "-//W3C//DTD SVG 1.1//EN"
 "http://www.w3.org/Graphics/SVG/1.1/DTD/svg11.dtd">
<!-- Generated by graphviz version 2.43.0 (0)
 -->
<!-- Title: func_80194D08 Pages: 1 -->
<svg width="220pt" height="131pt"
 viewBox="0.00 0.00 220.49 131.00" xmlns="http://www.w3.org/2000/svg" xmlns:xlink="http://www.w3.org/1999/xlink">
<g id="graph0" class="graph" transform="scale(1 1) rotate(0) translate(4 127)">
<title>func_80194D08</title>
<polygon fill="white" stroke="transparent" points="-4,4 -4,-127 216.49,-127 216.49,4 -4,4"/>
<!-- cen/func_80194D08 -->
<g id="node1" class="node">
<title>cen/func_80194D08</title>
<ellipse fill="green" stroke="black" cx="106.4" cy="-105" rx="102.88" ry="18"/>
<text text-anchor="middle" x="106.4" y="-101.3" font-family="Times,serif" font-size="14.00">cen/func_80194D08</text>
</g>
<!-- cen/rcos -->
<g id="node2" class="node">
<title>cen/rcos</title>
<g id="a_node2"><a xlink:href="rcos.svg" xlink:title="cen/rcos">
<ellipse fill="red" stroke="black" cx="49.4" cy="-18" rx="49.29" ry="18"/>
<text text-anchor="middle" x="49.4" y="-14.3" font-family="Times,serif" font-size="14.00">cen/rcos</text>
</a>
</g>
</g>
<!-- cen/func_80194D08&#45;&gt;cen/rcos -->
<g id="edge1" class="edge">
<title>cen/func_80194D08&#45;&gt;cen/rcos</title>
<path fill="none" stroke="black" d="M94.86,-86.8C86.64,-74.54 75.46,-57.87 66.25,-44.13"/>
<polygon fill="black" stroke="black" points="69,-41.95 60.53,-35.6 63.19,-45.85 69,-41.95"/>
<text text-anchor="middle" x="86.4" y="-57.8" font-family="Times,serif" font-size="14.00">1</text>
</g>
<!-- cen/rsin -->
<g id="node3" class="node">
<title>cen/rsin</title>
<g id="a_node3"><a xlink:href="rsin.svg" xlink:title="cen/rsin">
<ellipse fill="green" stroke="black" cx="164.4" cy="-18" rx="48.19" ry="18"/>
<text text-anchor="middle" x="164.4" y="-14.3" font-family="Times,serif" font-size="14.00">cen/rsin</text>
</a>
</g>
</g>
<!-- cen/func_80194D08&#45;&gt;cen/rsin -->
<g id="edge2" class="edge">
<title>cen/func_80194D08&#45;&gt;cen/rsin</title>
<path fill="none" stroke="black" d="M118.13,-86.8C126.5,-74.54 137.87,-57.87 147.25,-44.13"/>
<polygon fill="black" stroke="black" points="150.33,-45.83 153.07,-35.6 144.54,-41.88 150.33,-45.83"/>
<text text-anchor="middle" x="143.4" y="-57.8" font-family="Times,serif" font-size="14.00">1</text>
</g>
</g>
</svg>
