<?xml version="1.0" encoding="UTF-8" standalone="no"?>
<!DOCTYPE svg PUBLIC "-//W3C//DTD SVG 1.1//EN"
 "http://www.w3.org/Graphics/SVG/1.1/DTD/svg11.dtd">
<!-- Generated by graphviz version 2.43.0 (0)
 -->
<!-- Title: func_801BCCFC Pages: 1 -->
<svg width="955pt" height="218pt"
 viewBox="0.00 0.00 954.53 218.00" xmlns="http://www.w3.org/2000/svg" xmlns:xlink="http://www.w3.org/1999/xlink">
<g id="graph0" class="graph" transform="scale(1 1) rotate(0) translate(4 214)">
<title>func_801BCCFC</title>
<polygon fill="white" stroke="transparent" points="-4,4 -4,-214 950.53,-214 950.53,4 -4,4"/>
<!-- nz0/func_801BCCFC -->
<g id="node1" class="node">
<title>nz0/func_801BCCFC</title>
<ellipse fill="green" stroke="black" cx="449.44" cy="-105" rx="105.88" ry="18"/>
<text text-anchor="middle" x="449.44" y="-101.3" font-family="Times,serif" font-size="14.00">nz0/func_801BCCFC</text>
</g>
<!-- nz0/MoveEntity -->
<g id="node2" class="node">
<title>nz0/MoveEntity</title>
<g id="a_node2"><a xlink:href="MoveEntity.svg" xlink:title="nz0/MoveEntity">
<ellipse fill="green" stroke="black" cx="270.44" cy="-18" rx="84.49" ry="18"/>
<text text-anchor="middle" x="270.44" y="-14.3" font-family="Times,serif" font-size="14.00">nz0/MoveEntity</text>
</a>
</g>
</g>
<!-- nz0/func_801BCCFC&#45;&gt;nz0/MoveEntity -->
<g id="edge1" class="edge">
<title>nz0/func_801BCCFC&#45;&gt;nz0/MoveEntity</title>
<path fill="none" stroke="black" d="M415.35,-87.81C386.21,-73.97 344.15,-54 312.84,-39.13"/>
<polygon fill="black" stroke="black" points="314.03,-35.82 303.5,-34.7 311.03,-42.15 314.03,-35.82"/>
<text text-anchor="middle" x="376.44" y="-57.8" font-family="Times,serif" font-size="14.00">1</text>
</g>
<!-- nz0/FallEntity -->
<g id="node3" class="node">
<title>nz0/FallEntity</title>
<g id="a_node3"><a xlink:href="FallEntity.svg" xlink:title="nz0/FallEntity">
<ellipse fill="green" stroke="black" cx="449.44" cy="-18" rx="76.09" ry="18"/>
<text text-anchor="middle" x="449.44" y="-14.3" font-family="Times,serif" font-size="14.00">nz0/FallEntity</text>
</a>
</g>
</g>
<!-- nz0/func_801BCCFC&#45;&gt;nz0/FallEntity -->
<g id="edge2" class="edge">
<title>nz0/func_801BCCFC&#45;&gt;nz0/FallEntity</title>
<path fill="none" stroke="black" d="M449.44,-86.8C449.44,-75.16 449.44,-59.55 449.44,-46.24"/>
<polygon fill="black" stroke="black" points="452.94,-46.18 449.44,-36.18 445.94,-46.18 452.94,-46.18"/>
<text text-anchor="middle" x="454.44" y="-57.8" font-family="Times,serif" font-size="14.00">1</text>
</g>
<!-- nz0/g_api_CheckCollision -->
<g id="node4" class="node">
<title>nz0/g_api_CheckCollision</title>
<g id="a_node4"><a xlink:href="g_api_CheckCollision.svg" xlink:title="nz0/g_api_CheckCollision">
<ellipse fill="lightblue" stroke="black" cx="670.44" cy="-18" rx="127.28" ry="18"/>
<text text-anchor="middle" x="670.44" y="-14.3" font-family="Times,serif" font-size="14.00">nz0/g_api_CheckCollision</text>
</a>
</g>
</g>
<!-- nz0/func_801BCCFC&#45;&gt;nz0/g_api_CheckCollision -->
<g id="edge3" class="edge">
<title>nz0/func_801BCCFC&#45;&gt;nz0/g_api_CheckCollision</title>
<path fill="none" stroke="black" d="M490.23,-88.31C526.57,-74.34 579.89,-53.83 619.11,-38.74"/>
<polygon fill="black" stroke="black" points="620.68,-41.89 628.76,-35.03 618.17,-35.35 620.68,-41.89"/>
<text text-anchor="middle" x="578.44" y="-57.8" font-family="Times,serif" font-size="14.00">3</text>
</g>
<!-- nz0/EntitySkeleton -->
<g id="node5" class="node">
<title>nz0/EntitySkeleton</title>
<g id="a_node5"><a xlink:href="EntitySkeleton.svg" xlink:title="nz0/EntitySkeleton">
<ellipse fill="green" stroke="black" cx="99.44" cy="-192" rx="99.38" ry="18"/>
<text text-anchor="middle" x="99.44" y="-188.3" font-family="Times,serif" font-size="14.00">nz0/EntitySkeleton</text>
</a>
</g>
</g>
<!-- nz0/EntitySkeleton&#45;&gt;nz0/func_801BCCFC -->
<g id="edge4" class="edge">
<title>nz0/EntitySkeleton&#45;&gt;nz0/func_801BCCFC</title>
<path fill="none" stroke="black" d="M156.45,-177.15C217.99,-162.21 315.97,-138.42 381.47,-122.51"/>
<polygon fill="black" stroke="black" points="382.4,-125.88 391.29,-120.12 380.74,-119.08 382.4,-125.88"/>
<text text-anchor="middle" x="300.44" y="-144.8" font-family="Times,serif" font-size="14.00">2</text>
</g>
<!-- nz0/EntitySpittleBone -->
<g id="node6" class="node">
<title>nz0/EntitySpittleBone</title>
<g id="a_node6"><a xlink:href="EntitySpittleBone.svg" xlink:title="nz0/EntitySpittleBone">
<ellipse fill="green" stroke="black" cx="330.44" cy="-192" rx="113.98" ry="18"/>
<text text-anchor="middle" x="330.44" y="-188.3" font-family="Times,serif" font-size="14.00">nz0/EntitySpittleBone</text>
</a>
</g>
</g>
<!-- nz0/EntitySpittleBone&#45;&gt;nz0/func_801BCCFC -->
<g id="edge5" class="edge">
<title>nz0/EntitySpittleBone&#45;&gt;nz0/func_801BCCFC</title>
<path fill="none" stroke="black" d="M353.95,-174.21C372.21,-161.17 397.7,-142.96 417.75,-128.63"/>
<polygon fill="black" stroke="black" points="419.88,-131.42 425.98,-122.76 415.81,-125.72 419.88,-131.42"/>
<text text-anchor="middle" x="402.44" y="-144.8" font-family="Times,serif" font-size="14.00">1</text>
</g>
<!-- nz0/EntityAxeKnight -->
<g id="node7" class="node">
<title>nz0/EntityAxeKnight</title>
<g id="a_node7"><a xlink:href="EntityAxeKnight.svg" xlink:title="nz0/EntityAxeKnight">
<ellipse fill="green" stroke="black" cx="569.44" cy="-192" rx="107.48" ry="18"/>
<text text-anchor="middle" x="569.44" y="-188.3" font-family="Times,serif" font-size="14.00">nz0/EntityAxeKnight</text>
</a>
</g>
</g>
<!-- nz0/EntityAxeKnight&#45;&gt;nz0/func_801BCCFC -->
<g id="edge6" class="edge">
<title>nz0/EntityAxeKnight&#45;&gt;nz0/func_801BCCFC</title>
<path fill="none" stroke="black" d="M546.02,-174.41C527.64,-161.39 501.85,-143.12 481.54,-128.74"/>
<polygon fill="black" stroke="black" points="483.4,-125.76 473.21,-122.84 479.35,-131.48 483.4,-125.76"/>
<text text-anchor="middle" x="522.44" y="-144.8" font-family="Times,serif" font-size="14.00">1</text>
</g>
<!-- nz0/EntityBloodSkeleton -->
<g id="node8" class="node">
<title>nz0/EntityBloodSkeleton</title>
<g id="a_node8"><a xlink:href="EntityBloodSkeleton.svg" xlink:title="nz0/EntityBloodSkeleton">
<ellipse fill="green" stroke="black" cx="820.44" cy="-192" rx="126.18" ry="18"/>
<text text-anchor="middle" x="820.44" y="-188.3" font-family="Times,serif" font-size="14.00">nz0/EntityBloodSkeleton</text>
</a>
</g>
</g>
<!-- nz0/EntityBloodSkeleton&#45;&gt;nz0/func_801BCCFC -->
<g id="edge7" class="edge">
<title>nz0/EntityBloodSkeleton&#45;&gt;nz0/func_801BCCFC</title>
<path fill="none" stroke="black" d="M756.66,-176.39C690.71,-161.28 588,-137.75 519.74,-122.11"/>
<polygon fill="black" stroke="black" points="520.46,-118.68 509.93,-119.86 518.9,-125.5 520.46,-118.68"/>
<text text-anchor="middle" x="662.44" y="-144.8" font-family="Times,serif" font-size="14.00">1</text>
</g>
</g>
</svg>
