<?xml version="1.0" encoding="UTF-8" standalone="no"?>
<!DOCTYPE svg PUBLIC "-//W3C//DTD SVG 1.1//EN"
 "http://www.w3.org/Graphics/SVG/1.1/DTD/svg11.dtd">
<!-- Generated by graphviz version 2.43.0 (0)
 -->
<!-- Title: func_801CE120 Pages: 1 -->
<svg width="1103pt" height="218pt"
 viewBox="0.00 0.00 1103.03 218.00" xmlns="http://www.w3.org/2000/svg" xmlns:xlink="http://www.w3.org/1999/xlink">
<g id="graph0" class="graph" transform="scale(1 1) rotate(0) translate(4 214)">
<title>func_801CE120</title>
<polygon fill="white" stroke="transparent" points="-4,4 -4,-214 1099.03,-214 1099.03,4 -4,4"/>
<!-- np3/func_801CE120 -->
<g id="node1" class="node">
<title>np3/func_801CE120</title>
<ellipse fill="red" stroke="black" cx="552.74" cy="-105" rx="104.78" ry="18"/>
<text text-anchor="middle" x="552.74" y="-101.3" font-family="Times,serif" font-size="14.00">np3/func_801CE120</text>
</g>
<!-- np3/g_api_CheckCollision -->
<g id="node2" class="node">
<title>np3/g_api_CheckCollision</title>
<g id="a_node2"><a xlink:href="g_api_CheckCollision.svg" xlink:title="np3/g_api_CheckCollision">
<ellipse fill="lightblue" stroke="black" cx="552.74" cy="-18" rx="128.08" ry="18"/>
<text text-anchor="middle" x="552.74" y="-14.3" font-family="Times,serif" font-size="14.00">np3/g_api_CheckCollision</text>
</a>
</g>
</g>
<!-- np3/func_801CE120&#45;&gt;np3/g_api_CheckCollision -->
<g id="edge1" class="edge">
<title>np3/func_801CE120&#45;&gt;np3/g_api_CheckCollision</title>
<path fill="none" stroke="black" d="M552.74,-86.8C552.74,-75.16 552.74,-59.55 552.74,-46.24"/>
<polygon fill="black" stroke="black" points="556.24,-46.18 552.74,-36.18 549.24,-46.18 556.24,-46.18"/>
<text text-anchor="middle" x="557.74" y="-57.8" font-family="Times,serif" font-size="14.00">2</text>
</g>
<!-- np3/EntityHammer -->
<g id="node3" class="node">
<title>np3/EntityHammer</title>
<g id="a_node3"><a xlink:href="EntityHammer.svg" xlink:title="np3/EntityHammer">
<ellipse fill="red" stroke="black" cx="100.74" cy="-192" rx="100.98" ry="18"/>
<text text-anchor="middle" x="100.74" y="-188.3" font-family="Times,serif" font-size="14.00">np3/EntityHammer</text>
</a>
</g>
</g>
<!-- np3/EntityHammer&#45;&gt;np3/func_801CE120 -->
<g id="edge2" class="edge">
<title>np3/EntityHammer&#45;&gt;np3/func_801CE120</title>
<path fill="none" stroke="black" d="M167.44,-178.46C249.4,-163.04 388.25,-136.93 474.98,-120.62"/>
<polygon fill="black" stroke="black" points="475.85,-124.02 485.03,-118.73 474.56,-117.14 475.85,-124.02"/>
<text text-anchor="middle" x="359.74" y="-144.8" font-family="Times,serif" font-size="14.00">1</text>
</g>
<!-- np3/func_801CF7A0 -->
<g id="node4" class="node">
<title>np3/func_801CF7A0</title>
<g id="a_node4"><a xlink:href="func_801CF7A0.svg" xlink:title="np3/func_801CF7A0">
<ellipse fill="red" stroke="black" cx="323.74" cy="-192" rx="104.78" ry="18"/>
<text text-anchor="middle" x="323.74" y="-188.3" font-family="Times,serif" font-size="14.00">np3/func_801CF7A0</text>
</a>
</g>
</g>
<!-- np3/func_801CF7A0&#45;&gt;np3/func_801CE120 -->
<g id="edge3" class="edge">
<title>np3/func_801CF7A0&#45;&gt;np3/func_801CE120</title>
<path fill="none" stroke="black" d="M365.74,-175.41C403.88,-161.26 460.23,-140.34 501.1,-125.17"/>
<polygon fill="black" stroke="black" points="502.46,-128.4 510.62,-121.64 500.03,-121.83 502.46,-128.4"/>
<text text-anchor="middle" x="457.74" y="-144.8" font-family="Times,serif" font-size="14.00">1</text>
</g>
<!-- np3/func_801CE4CC -->
<g id="node5" class="node">
<title>np3/func_801CE4CC</title>
<g id="a_node5"><a xlink:href="func_801CE4CC.svg" xlink:title="np3/func_801CE4CC">
<ellipse fill="red" stroke="black" cx="552.74" cy="-192" rx="106.68" ry="18"/>
<text text-anchor="middle" x="552.74" y="-188.3" font-family="Times,serif" font-size="14.00">np3/func_801CE4CC</text>
</a>
</g>
</g>
<!-- np3/func_801CE4CC&#45;&gt;np3/func_801CE120 -->
<g id="edge4" class="edge">
<title>np3/func_801CE4CC&#45;&gt;np3/func_801CE120</title>
<path fill="none" stroke="black" d="M552.74,-173.8C552.74,-162.16 552.74,-146.55 552.74,-133.24"/>
<polygon fill="black" stroke="black" points="556.24,-133.18 552.74,-123.18 549.24,-133.18 556.24,-133.18"/>
<text text-anchor="middle" x="557.74" y="-144.8" font-family="Times,serif" font-size="14.00">2</text>
</g>
<!-- np3/EntityGurkha -->
<g id="node6" class="node">
<title>np3/EntityGurkha</title>
<g id="a_node6"><a xlink:href="EntityGurkha.svg" xlink:title="np3/EntityGurkha">
<ellipse fill="red" stroke="black" cx="771.74" cy="-192" rx="94.48" ry="18"/>
<text text-anchor="middle" x="771.74" y="-188.3" font-family="Times,serif" font-size="14.00">np3/EntityGurkha</text>
</a>
</g>
</g>
<!-- np3/EntityGurkha&#45;&gt;np3/func_801CE120 -->
<g id="edge5" class="edge">
<title>np3/EntityGurkha&#45;&gt;np3/func_801CE120</title>
<path fill="none" stroke="black" d="M732.08,-175.61C695.83,-161.54 642.06,-140.67 602.85,-125.45"/>
<polygon fill="black" stroke="black" points="603.81,-122.07 593.22,-121.71 601.27,-128.59 603.81,-122.07"/>
<text text-anchor="middle" x="680.74" y="-144.8" font-family="Times,serif" font-size="14.00">1</text>
</g>
<!-- np3/func_801D0D40 -->
<g id="node7" class="node">
<title>np3/func_801D0D40</title>
<g id="a_node7"><a xlink:href="func_801D0D40.svg" xlink:title="np3/func_801D0D40">
<ellipse fill="red" stroke="black" cx="989.74" cy="-192" rx="105.08" ry="18"/>
<text text-anchor="middle" x="989.74" y="-188.3" font-family="Times,serif" font-size="14.00">np3/func_801D0D40</text>
</a>
</g>
</g>
<!-- np3/func_801D0D40&#45;&gt;np3/func_801CE120 -->
<g id="edge6" class="edge">
<title>np3/func_801D0D40&#45;&gt;np3/func_801CE120</title>
<path fill="none" stroke="black" d="M922.89,-178C843.74,-162.6 712.2,-137.02 629.11,-120.85"/>
<polygon fill="black" stroke="black" points="629.71,-117.4 619.22,-118.93 628.37,-124.28 629.71,-117.4"/>
<text text-anchor="middle" x="802.74" y="-144.8" font-family="Times,serif" font-size="14.00">4</text>
</g>
</g>
</svg>
