<?xml version="1.0" encoding="UTF-8" standalone="no"?>
<!DOCTYPE svg PUBLIC "-//W3C//DTD SVG 1.1//EN"
 "http://www.w3.org/Graphics/SVG/1.1/DTD/svg11.dtd">
<!-- Generated by graphviz version 2.43.0 (0)
 -->
<!-- Title: func_80174210 Pages: 1 -->
<svg width="738pt" height="218pt"
 viewBox="0.00 0.00 738.08 218.00" xmlns="http://www.w3.org/2000/svg" xmlns:xlink="http://www.w3.org/1999/xlink">
<g id="graph0" class="graph" transform="scale(1 1) rotate(0) translate(4 214)">
<title>func_80174210</title>
<polygon fill="white" stroke="transparent" points="-4,4 -4,-214 734.08,-214 734.08,4 -4,4"/>
<!-- tt_000/func_80174210 -->
<g id="node1" class="node">
<title>tt_000/func_80174210</title>
<ellipse fill="red" stroke="black" cx="366.69" cy="-105" rx="114.28" ry="18"/>
<text text-anchor="middle" x="366.69" y="-101.3" font-family="Times,serif" font-size="14.00">tt_000/func_80174210</text>
</g>
<!-- tt_000/func_801745E4 -->
<g id="node2" class="node">
<title>tt_000/func_801745E4</title>
<g id="a_node2"><a xlink:href="func_801745E4.svg" xlink:title="tt_000/func_801745E4">
<ellipse fill="green" stroke="black" cx="366.69" cy="-18" rx="115.88" ry="18"/>
<text text-anchor="middle" x="366.69" y="-14.3" font-family="Times,serif" font-size="14.00">tt_000/func_801745E4</text>
</a>
</g>
</g>
<!-- tt_000/func_80174210&#45;&gt;tt_000/func_801745E4 -->
<g id="edge1" class="edge">
<title>tt_000/func_80174210&#45;&gt;tt_000/func_801745E4</title>
<path fill="none" stroke="black" d="M366.69,-86.8C366.69,-75.16 366.69,-59.55 366.69,-46.24"/>
<polygon fill="black" stroke="black" points="370.19,-46.18 366.69,-36.18 363.19,-46.18 370.19,-46.18"/>
<text text-anchor="middle" x="371.69" y="-57.8" font-family="Times,serif" font-size="14.00">2</text>
</g>
<!-- tt_000/func_80172C30 -->
<g id="node3" class="node">
<title>tt_000/func_80172C30</title>
<g id="a_node3"><a xlink:href="func_80172C30.svg" xlink:title="tt_000/func_80172C30">
<ellipse fill="red" stroke="black" cx="115.69" cy="-192" rx="115.88" ry="18"/>
<text text-anchor="middle" x="115.69" y="-188.3" font-family="Times,serif" font-size="14.00">tt_000/func_80172C30</text>
</a>
</g>
</g>
<!-- tt_000/func_80172C30&#45;&gt;tt_000/func_80174210 -->
<g id="edge2" class="edge">
<title>tt_000/func_80172C30&#45;&gt;tt_000/func_80174210</title>
<path fill="none" stroke="black" d="M161.73,-175.41C203.79,-161.17 266.08,-140.07 310.94,-124.88"/>
<polygon fill="black" stroke="black" points="312.17,-128.16 320.52,-121.64 309.93,-121.53 312.17,-128.16"/>
<text text-anchor="middle" x="261.69" y="-144.8" font-family="Times,serif" font-size="14.00">1</text>
</g>
<!-- tt_000/func_80171ED4 -->
<g id="node4" class="node">
<title>tt_000/func_80171ED4</title>
<g id="a_node4"><a xlink:href="func_80171ED4.svg" xlink:title="tt_000/func_80171ED4">
<ellipse fill="green" stroke="black" cx="366.69" cy="-192" rx="116.98" ry="18"/>
<text text-anchor="middle" x="366.69" y="-188.3" font-family="Times,serif" font-size="14.00">tt_000/func_80171ED4</text>
</a>
</g>
</g>
<!-- tt_000/func_80171ED4&#45;&gt;tt_000/func_80174210 -->
<g id="edge3" class="edge">
<title>tt_000/func_80171ED4&#45;&gt;tt_000/func_80174210</title>
<path fill="none" stroke="black" d="M366.69,-173.8C366.69,-162.16 366.69,-146.55 366.69,-133.24"/>
<polygon fill="black" stroke="black" points="370.19,-133.18 366.69,-123.18 363.19,-133.18 370.19,-133.18"/>
<text text-anchor="middle" x="371.69" y="-144.8" font-family="Times,serif" font-size="14.00">1</text>
</g>
<!-- tt_000/func_80172120 -->
<g id="node5" class="node">
<title>tt_000/func_80172120</title>
<g id="a_node5"><a xlink:href="func_80172120.svg" xlink:title="tt_000/func_80172120">
<ellipse fill="red" stroke="black" cx="615.69" cy="-192" rx="114.28" ry="18"/>
<text text-anchor="middle" x="615.69" y="-188.3" font-family="Times,serif" font-size="14.00">tt_000/func_80172120</text>
</a>
</g>
</g>
<!-- tt_000/func_80172120&#45;&gt;tt_000/func_80174210 -->
<g id="edge4" class="edge">
<title>tt_000/func_80172120&#45;&gt;tt_000/func_80174210</title>
<path fill="none" stroke="black" d="M570.02,-175.41C528.29,-161.17 466.5,-140.07 421.99,-124.88"/>
<polygon fill="black" stroke="black" points="423.09,-121.55 412.49,-121.64 420.82,-128.18 423.09,-121.55"/>
<text text-anchor="middle" x="511.69" y="-144.8" font-family="Times,serif" font-size="14.00">1</text>
</g>
</g>
</svg>
