<?xml version="1.0" encoding="UTF-8" standalone="no"?>
<!DOCTYPE svg PUBLIC "-//W3C//DTD SVG 1.1//EN"
 "http://www.w3.org/Graphics/SVG/1.1/DTD/svg11.dtd">
<!-- Generated by graphviz version 2.43.0 (0)
 -->
<!-- Title: func_800E34DC Pages: 1 -->
<svg width="832pt" height="218pt"
 viewBox="0.00 0.00 831.68 218.00" xmlns="http://www.w3.org/2000/svg" xmlns:xlink="http://www.w3.org/1999/xlink">
<g id="graph0" class="graph" transform="scale(1 1) rotate(0) translate(4 214)">
<title>func_800E34DC</title>
<polygon fill="white" stroke="transparent" points="-4,4 -4,-214 827.68,-214 827.68,4 -4,4"/>
<!-- dra/func_800E34DC -->
<g id="node1" class="node">
<title>dra/func_800E34DC</title>
<ellipse fill="green" stroke="black" cx="422.54" cy="-105" rx="103.98" ry="18"/>
<text text-anchor="middle" x="422.54" y="-101.3" font-family="Times,serif" font-size="14.00">dra/func_800E34DC</text>
</g>
<!-- dra/func_800E346C -->
<g id="node2" class="node">
<title>dra/func_800E346C</title>
<g id="a_node2"><a xlink:href="func_800E346C.svg" xlink:title="dra/func_800E346C">
<ellipse fill="green" stroke="black" cx="422.54" cy="-18" rx="102.88" ry="18"/>
<text text-anchor="middle" x="422.54" y="-14.3" font-family="Times,serif" font-size="14.00">dra/func_800E346C</text>
</a>
</g>
</g>
<!-- dra/func_800E34DC&#45;&gt;dra/func_800E346C -->
<g id="edge1" class="edge">
<title>dra/func_800E34DC&#45;&gt;dra/func_800E346C</title>
<path fill="none" stroke="black" d="M422.54,-86.8C422.54,-75.16 422.54,-59.55 422.54,-46.24"/>
<polygon fill="black" stroke="black" points="426.04,-46.18 422.54,-36.18 419.04,-46.18 426.04,-46.18"/>
<text text-anchor="middle" x="427.54" y="-57.8" font-family="Times,serif" font-size="14.00">1</text>
</g>
<!-- dra/SetMenuDisplayBuffer -->
<g id="node3" class="node">
<title>dra/SetMenuDisplayBuffer</title>
<g id="a_node3"><a xlink:href="SetMenuDisplayBuffer.svg" xlink:title="dra/SetMenuDisplayBuffer">
<ellipse fill="green" stroke="black" cx="134.54" cy="-192" rx="134.58" ry="18"/>
<text text-anchor="middle" x="134.54" y="-188.3" font-family="Times,serif" font-size="14.00">dra/SetMenuDisplayBuffer</text>
</a>
</g>
</g>
<!-- dra/SetMenuDisplayBuffer&#45;&gt;dra/func_800E34DC -->
<g id="edge2" class="edge">
<title>dra/SetMenuDisplayBuffer&#45;&gt;dra/func_800E34DC</title>
<path fill="none" stroke="black" d="M187.36,-175.41C236.94,-160.78 311.02,-138.91 362.75,-123.65"/>
<polygon fill="black" stroke="black" points="363.86,-126.97 372.46,-120.78 361.88,-120.25 363.86,-126.97"/>
<text text-anchor="middle" x="301.54" y="-144.8" font-family="Times,serif" font-size="14.00">1</text>
</g>
<!-- dra/SetStageDisplayBuffer -->
<g id="node4" class="node">
<title>dra/SetStageDisplayBuffer</title>
<g id="a_node4"><a xlink:href="SetStageDisplayBuffer.svg" xlink:title="dra/SetStageDisplayBuffer">
<ellipse fill="green" stroke="black" cx="422.54" cy="-192" rx="135.38" ry="18"/>
<text text-anchor="middle" x="422.54" y="-188.3" font-family="Times,serif" font-size="14.00">dra/SetStageDisplayBuffer</text>
</a>
</g>
</g>
<!-- dra/SetStageDisplayBuffer&#45;&gt;dra/func_800E34DC -->
<g id="edge3" class="edge">
<title>dra/SetStageDisplayBuffer&#45;&gt;dra/func_800E34DC</title>
<path fill="none" stroke="black" d="M422.54,-173.8C422.54,-162.16 422.54,-146.55 422.54,-133.24"/>
<polygon fill="black" stroke="black" points="426.04,-133.18 422.54,-123.18 419.04,-133.18 426.04,-133.18"/>
<text text-anchor="middle" x="427.54" y="-144.8" font-family="Times,serif" font-size="14.00">1</text>
</g>
<!-- dra/SetCgiDisplayBuffer -->
<g id="node5" class="node">
<title>dra/SetCgiDisplayBuffer</title>
<g id="a_node5"><a xlink:href="SetCgiDisplayBuffer.svg" xlink:title="dra/SetCgiDisplayBuffer">
<ellipse fill="green" stroke="black" cx="699.54" cy="-192" rx="124.28" ry="18"/>
<text text-anchor="middle" x="699.54" y="-188.3" font-family="Times,serif" font-size="14.00">dra/SetCgiDisplayBuffer</text>
</a>
</g>
</g>
<!-- dra/SetCgiDisplayBuffer&#45;&gt;dra/func_800E34DC -->
<g id="edge4" class="edge">
<title>dra/SetCgiDisplayBuffer&#45;&gt;dra/func_800E34DC</title>
<path fill="none" stroke="black" d="M649.05,-175.51C601.65,-160.96 530.77,-139.21 480.95,-123.92"/>
<polygon fill="black" stroke="black" points="481.87,-120.54 471.28,-120.96 479.81,-127.24 481.87,-120.54"/>
<text text-anchor="middle" x="583.54" y="-144.8" font-family="Times,serif" font-size="14.00">1</text>
</g>
</g>
</svg>
