<?xml version="1.0" encoding="UTF-8" standalone="no"?>
<!DOCTYPE svg PUBLIC "-//W3C//DTD SVG 1.1//EN"
 "http://www.w3.org/Graphics/SVG/1.1/DTD/svg11.dtd">
<!-- Generated by graphviz version 2.43.0 (0)
 -->
<!-- Title: func_8015BCD0 Pages: 1 -->
<svg width="638pt" height="218pt"
 viewBox="0.00 0.00 638.23 218.00" xmlns="http://www.w3.org/2000/svg" xmlns:xlink="http://www.w3.org/1999/xlink">
<g id="graph0" class="graph" transform="scale(1 1) rotate(0) translate(4 214)">
<title>func_8015BCD0</title>
<polygon fill="white" stroke="transparent" points="-4,4 -4,-214 634.23,-214 634.23,4 -4,4"/>
<!-- ric/func_8015BCD0 -->
<g id="node1" class="node">
<title>ric/func_8015BCD0</title>
<ellipse fill="green" stroke="black" cx="314.79" cy="-105" rx="100.98" ry="18"/>
<text text-anchor="middle" x="314.79" y="-101.3" font-family="Times,serif" font-size="14.00">ric/func_8015BCD0</text>
</g>
<!-- ric/func_801606BC -->
<g id="node2" class="node">
<title>ric/func_801606BC</title>
<g id="a_node2"><a xlink:href="func_801606BC.svg" xlink:title="ric/func_801606BC">
<ellipse fill="green" stroke="black" cx="98.79" cy="-18" rx="98.58" ry="18"/>
<text text-anchor="middle" x="98.79" y="-14.3" font-family="Times,serif" font-size="14.00">ric/func_801606BC</text>
</a>
</g>
</g>
<!-- ric/func_8015BCD0&#45;&gt;ric/func_801606BC -->
<g id="edge1" class="edge">
<title>ric/func_8015BCD0&#45;&gt;ric/func_801606BC</title>
<path fill="none" stroke="black" d="M275.17,-88.41C239.36,-74.32 186.5,-53.51 147.99,-38.36"/>
<polygon fill="black" stroke="black" points="149.11,-35.04 138.52,-34.64 146.55,-41.55 149.11,-35.04"/>
<text text-anchor="middle" x="224.79" y="-57.8" font-family="Times,serif" font-size="14.00">3</text>
</g>
<!-- ric/func_8015BB80 -->
<g id="node3" class="node">
<title>ric/func_8015BB80</title>
<g id="a_node3"><a xlink:href="func_8015BB80.svg" xlink:title="ric/func_8015BB80">
<ellipse fill="green" stroke="black" cx="314.79" cy="-18" rx="98.58" ry="18"/>
<text text-anchor="middle" x="314.79" y="-14.3" font-family="Times,serif" font-size="14.00">ric/func_8015BB80</text>
</a>
</g>
</g>
<!-- ric/func_8015BCD0&#45;&gt;ric/func_8015BB80 -->
<g id="edge2" class="edge">
<title>ric/func_8015BCD0&#45;&gt;ric/func_8015BB80</title>
<path fill="none" stroke="black" d="M314.79,-86.8C314.79,-75.16 314.79,-59.55 314.79,-46.24"/>
<polygon fill="black" stroke="black" points="318.29,-46.18 314.79,-36.18 311.29,-46.18 318.29,-46.18"/>
<text text-anchor="middle" x="319.79" y="-57.8" font-family="Times,serif" font-size="14.00">2</text>
</g>
<!-- ric/func_8015CD98 -->
<g id="node4" class="node">
<title>ric/func_8015CD98</title>
<g id="a_node4"><a xlink:href="func_8015CD98.svg" xlink:title="ric/func_8015CD98">
<ellipse fill="green" stroke="black" cx="530.79" cy="-18" rx="99.38" ry="18"/>
<text text-anchor="middle" x="530.79" y="-14.3" font-family="Times,serif" font-size="14.00">ric/func_8015CD98</text>
</a>
</g>
</g>
<!-- ric/func_8015BCD0&#45;&gt;ric/func_8015CD98 -->
<g id="edge3" class="edge">
<title>ric/func_8015BCD0&#45;&gt;ric/func_8015CD98</title>
<path fill="none" stroke="black" d="M354.41,-88.41C390.23,-74.32 443.09,-53.51 481.6,-38.36"/>
<polygon fill="black" stroke="black" points="483.04,-41.55 491.06,-34.64 480.47,-35.04 483.04,-41.55"/>
<text text-anchor="middle" x="439.79" y="-57.8" font-family="Times,serif" font-size="14.00">2</text>
</g>
<!-- ric/UpdateEntityRichter -->
<g id="node5" class="node">
<title>ric/UpdateEntityRichter</title>
<g id="a_node5"><a xlink:href="UpdateEntityRichter.svg" xlink:title="ric/UpdateEntityRichter">
<ellipse fill="red" stroke="black" cx="314.79" cy="-192" rx="122.68" ry="18"/>
<text text-anchor="middle" x="314.79" y="-188.3" font-family="Times,serif" font-size="14.00">ric/UpdateEntityRichter</text>
</a>
</g>
</g>
<!-- ric/UpdateEntityRichter&#45;&gt;ric/func_8015BCD0 -->
<g id="edge4" class="edge">
<title>ric/UpdateEntityRichter&#45;&gt;ric/func_8015BCD0</title>
<path fill="none" stroke="black" d="M314.79,-173.8C314.79,-162.16 314.79,-146.55 314.79,-133.24"/>
<polygon fill="black" stroke="black" points="318.29,-133.18 314.79,-123.18 311.29,-133.18 318.29,-133.18"/>
<text text-anchor="middle" x="319.79" y="-144.8" font-family="Times,serif" font-size="14.00">1</text>
</g>
</g>
</svg>
