<?xml version="1.0" encoding="UTF-8" standalone="no"?>
<!DOCTYPE svg PUBLIC "-//W3C//DTD SVG 1.1//EN"
 "http://www.w3.org/Graphics/SVG/1.1/DTD/svg11.dtd">
<!-- Generated by graphviz version 2.43.0 (0)
 -->
<!-- Title: func_10E000_8017B3E8 Pages: 1 -->
<svg width="1398pt" height="131pt"
 viewBox="0.00 0.00 1398.27 131.00" xmlns="http://www.w3.org/2000/svg" xmlns:xlink="http://www.w3.org/1999/xlink">
<g id="graph0" class="graph" transform="scale(1 1) rotate(0) translate(4 127)">
<title>func_10E000_8017B3E8</title>
<polygon fill="white" stroke="transparent" points="-4,4 -4,-127 1394.27,-127 1394.27,4 -4,4"/>
<!-- weapon/func_10E000_8017B3E8 -->
<g id="node1" class="node">
<title>weapon/func_10E000_8017B3E8</title>
<ellipse fill="red" stroke="black" cx="636.19" cy="-105" rx="163.27" ry="18"/>
<text text-anchor="middle" x="636.19" y="-101.3" font-family="Times,serif" font-size="14.00">weapon/func_10E000_8017B3E8</text>
</g>
<!-- weapon/g_api_AllocPrimitives -->
<g id="node2" class="node">
<title>weapon/g_api_AllocPrimitives</title>
<g id="a_node2"><a xlink:href="g_api_AllocPrimitives.svg" xlink:title="weapon/g_api_AllocPrimitives">
<ellipse fill="lightblue" stroke="black" cx="148.19" cy="-18" rx="148.37" ry="18"/>
<text text-anchor="middle" x="148.19" y="-14.3" font-family="Times,serif" font-size="14.00">weapon/g_api_AllocPrimitives</text>
</a>
</g>
</g>
<!-- weapon/func_10E000_8017B3E8&#45;&gt;weapon/g_api_AllocPrimitives -->
<g id="edge1" class="edge">
<title>weapon/func_10E000_8017B3E8&#45;&gt;weapon/g_api_AllocPrimitives</title>
<path fill="none" stroke="black" d="M552.85,-89.48C465.61,-74.29 329.03,-50.5 239.07,-34.83"/>
<polygon fill="black" stroke="black" points="239.6,-31.37 229.15,-33.1 238.4,-38.27 239.6,-31.37"/>
<text text-anchor="middle" x="427.19" y="-57.8" font-family="Times,serif" font-size="14.00">1</text>
</g>
<!-- weapon/rand -->
<g id="node3" class="node">
<title>weapon/rand</title>
<g id="a_node3"><a xlink:href="rand.svg" xlink:title="weapon/rand">
<ellipse fill="lightblue" stroke="black" cx="385.19" cy="-18" rx="70.69" ry="18"/>
<text text-anchor="middle" x="385.19" y="-14.3" font-family="Times,serif" font-size="14.00">weapon/rand</text>
</a>
</g>
</g>
<!-- weapon/func_10E000_8017B3E8&#45;&gt;weapon/rand -->
<g id="edge2" class="edge">
<title>weapon/func_10E000_8017B3E8&#45;&gt;weapon/rand</title>
<path fill="none" stroke="black" d="M588.09,-87.71C544.42,-72.92 480.23,-51.19 435.79,-36.14"/>
<polygon fill="black" stroke="black" points="436.66,-32.74 426.07,-32.84 434.42,-39.37 436.66,-32.74"/>
<text text-anchor="middle" x="531.19" y="-57.8" font-family="Times,serif" font-size="14.00">3</text>
</g>
<!-- weapon/func_10E000_8017B090 -->
<g id="node4" class="node">
<title>weapon/func_10E000_8017B090</title>
<g id="a_node4"><a xlink:href="func_10E000_8017B090.svg" xlink:title="weapon/func_10E000_8017B090">
<ellipse fill="red" stroke="black" cx="636.19" cy="-18" rx="161.67" ry="18"/>
<text text-anchor="middle" x="636.19" y="-14.3" font-family="Times,serif" font-size="14.00">weapon/func_10E000_8017B090</text>
</a>
</g>
</g>
<!-- weapon/func_10E000_8017B3E8&#45;&gt;weapon/func_10E000_8017B090 -->
<g id="edge3" class="edge">
<title>weapon/func_10E000_8017B3E8&#45;&gt;weapon/func_10E000_8017B090</title>
<path fill="none" stroke="black" d="M636.19,-86.8C636.19,-75.16 636.19,-59.55 636.19,-46.24"/>
<polygon fill="black" stroke="black" points="639.69,-46.18 636.19,-36.18 632.69,-46.18 639.69,-46.18"/>
<text text-anchor="middle" x="641.19" y="-57.8" font-family="Times,serif" font-size="14.00">1</text>
</g>
<!-- weapon/g_api_PlaySfx -->
<g id="node5" class="node">
<title>weapon/g_api_PlaySfx</title>
<g id="a_node5"><a xlink:href="g_api_PlaySfx.svg" xlink:title="weapon/g_api_PlaySfx">
<ellipse fill="lightblue" stroke="black" cx="929.19" cy="-18" rx="113.18" ry="18"/>
<text text-anchor="middle" x="929.19" y="-14.3" font-family="Times,serif" font-size="14.00">weapon/g_api_PlaySfx</text>
</a>
</g>
</g>
<!-- weapon/func_10E000_8017B3E8&#45;&gt;weapon/g_api_PlaySfx -->
<g id="edge4" class="edge">
<title>weapon/func_10E000_8017B3E8&#45;&gt;weapon/g_api_PlaySfx</title>
<path fill="none" stroke="black" d="M691.3,-88.01C741.44,-73.46 815.38,-52.02 867.48,-36.9"/>
<polygon fill="black" stroke="black" points="868.64,-40.21 877.27,-34.06 866.69,-33.48 868.64,-40.21"/>
<text text-anchor="middle" x="806.19" y="-57.8" font-family="Times,serif" font-size="14.00">2</text>
</g>
<!-- weapon/func_10E000_8017ADEC -->
<g id="node6" class="node">
<title>weapon/func_10E000_8017ADEC</title>
<g id="a_node6"><a xlink:href="func_10E000_8017ADEC.svg" xlink:title="weapon/func_10E000_8017ADEC">
<ellipse fill="red" stroke="black" cx="1225.19" cy="-18" rx="165.17" ry="18"/>
<text text-anchor="middle" x="1225.19" y="-14.3" font-family="Times,serif" font-size="14.00">weapon/func_10E000_8017ADEC</text>
</a>
</g>
</g>
<!-- weapon/func_10E000_8017B3E8&#45;&gt;weapon/func_10E000_8017ADEC -->
<g id="edge5" class="edge">
<title>weapon/func_10E000_8017B3E8&#45;&gt;weapon/func_10E000_8017ADEC</title>
<path fill="none" stroke="black" d="M731.15,-90.3C837.48,-74.95 1009.35,-50.15 1119.77,-34.21"/>
<polygon fill="black" stroke="black" points="1120.53,-37.64 1129.92,-32.75 1119.53,-30.71 1120.53,-37.64"/>
<text text-anchor="middle" x="971.19" y="-57.8" font-family="Times,serif" font-size="14.00">1</text>
</g>
</g>
</svg>
