<?xml version="1.0" encoding="UTF-8" standalone="no"?>
<!DOCTYPE svg PUBLIC "-//W3C//DTD SVG 1.1//EN"
 "http://www.w3.org/Graphics/SVG/1.1/DTD/svg11.dtd">
<!-- Generated by graphviz version 2.43.0 (0)
 -->
<!-- Title: func_8010EB5C Pages: 1 -->
<svg width="1109pt" height="218pt"
 viewBox="0.00 0.00 1108.73 218.00" xmlns="http://www.w3.org/2000/svg" xmlns:xlink="http://www.w3.org/1999/xlink">
<g id="graph0" class="graph" transform="scale(1 1) rotate(0) translate(4 214)">
<title>func_8010EB5C</title>
<polygon fill="white" stroke="transparent" points="-4,4 -4,-214 1104.73,-214 1104.73,4 -4,4"/>
<!-- dra/func_8010EB5C -->
<g id="node1" class="node">
<title>dra/func_8010EB5C</title>
<ellipse fill="green" stroke="black" cx="552.69" cy="-105" rx="103.18" ry="18"/>
<text text-anchor="middle" x="552.69" y="-101.3" font-family="Times,serif" font-size="14.00">dra/func_8010EB5C</text>
</g>
<!-- dra/func_800FE3C4 -->
<g id="node2" class="node">
<title>dra/func_800FE3C4</title>
<g id="a_node2"><a xlink:href="func_800FE3C4.svg" xlink:title="dra/func_800FE3C4">
<ellipse fill="green" stroke="black" cx="102.69" cy="-18" rx="102.88" ry="18"/>
<text text-anchor="middle" x="102.69" y="-14.3" font-family="Times,serif" font-size="14.00">dra/func_800FE3C4</text>
</a>
</g>
</g>
<!-- dra/func_8010EB5C&#45;&gt;dra/func_800FE3C4 -->
<g id="edge1" class="edge">
<title>dra/func_8010EB5C&#45;&gt;dra/func_800FE3C4</title>
<path fill="none" stroke="black" d="M485.32,-91.27C403.48,-75.82 265.73,-49.8 179.75,-33.56"/>
<polygon fill="black" stroke="black" points="180.26,-30.09 169.79,-31.67 178.96,-36.97 180.26,-30.09"/>
<text text-anchor="middle" x="359.69" y="-57.8" font-family="Times,serif" font-size="14.00">2</text>
</g>
<!-- dra/func_8010EADC -->
<g id="node3" class="node">
<title>dra/func_8010EADC</title>
<g id="a_node3"><a xlink:href="func_8010EADC.svg" xlink:title="dra/func_8010EADC">
<ellipse fill="green" stroke="black" cx="327.69" cy="-18" rx="104.78" ry="18"/>
<text text-anchor="middle" x="327.69" y="-14.3" font-family="Times,serif" font-size="14.00">dra/func_8010EADC</text>
</a>
</g>
</g>
<!-- dra/func_8010EB5C&#45;&gt;dra/func_8010EADC -->
<g id="edge2" class="edge">
<title>dra/func_8010EB5C&#45;&gt;dra/func_8010EADC</title>
<path fill="none" stroke="black" d="M511.42,-88.41C474.03,-74.29 418.82,-53.43 378.68,-38.26"/>
<polygon fill="black" stroke="black" points="379.67,-34.9 369.08,-34.64 377.2,-41.44 379.67,-34.9"/>
<text text-anchor="middle" x="458.69" y="-57.8" font-family="Times,serif" font-size="14.00">1</text>
</g>
<!-- dra/func_8011AAFC -->
<g id="node4" class="node">
<title>dra/func_8011AAFC</title>
<g id="a_node4"><a xlink:href="func_8011AAFC.svg" xlink:title="dra/func_8011AAFC">
<ellipse fill="green" stroke="black" cx="552.69" cy="-18" rx="102.88" ry="18"/>
<text text-anchor="middle" x="552.69" y="-14.3" font-family="Times,serif" font-size="14.00">dra/func_8011AAFC</text>
</a>
</g>
</g>
<!-- dra/func_8010EB5C&#45;&gt;dra/func_8011AAFC -->
<g id="edge3" class="edge">
<title>dra/func_8010EB5C&#45;&gt;dra/func_8011AAFC</title>
<path fill="none" stroke="black" d="M552.69,-86.8C552.69,-75.16 552.69,-59.55 552.69,-46.24"/>
<polygon fill="black" stroke="black" points="556.19,-46.18 552.69,-36.18 549.19,-46.18 556.19,-46.18"/>
<text text-anchor="middle" x="557.69" y="-57.8" font-family="Times,serif" font-size="14.00">1</text>
</g>
<!-- dra/func_8010DA48 -->
<g id="node5" class="node">
<title>dra/func_8010DA48</title>
<g id="a_node5"><a xlink:href="func_8010DA48.svg" xlink:title="dra/func_8010DA48">
<ellipse fill="green" stroke="black" cx="775.69" cy="-18" rx="102.88" ry="18"/>
<text text-anchor="middle" x="775.69" y="-14.3" font-family="Times,serif" font-size="14.00">dra/func_8010DA48</text>
</a>
</g>
</g>
<!-- dra/func_8010EB5C&#45;&gt;dra/func_8010DA48 -->
<g id="edge4" class="edge">
<title>dra/func_8010EB5C&#45;&gt;dra/func_8010DA48</title>
<path fill="none" stroke="black" d="M593.59,-88.41C630.65,-74.29 685.38,-53.43 725.15,-38.26"/>
<polygon fill="black" stroke="black" points="726.57,-41.47 734.67,-34.64 724.08,-34.93 726.57,-41.47"/>
<text text-anchor="middle" x="682.69" y="-57.8" font-family="Times,serif" font-size="14.00">1</text>
</g>
<!-- dra/func_8010EA54 -->
<g id="node6" class="node">
<title>dra/func_8010EA54</title>
<g id="a_node6"><a xlink:href="func_8010EA54.svg" xlink:title="dra/func_8010EA54">
<ellipse fill="green" stroke="black" cx="998.69" cy="-18" rx="102.08" ry="18"/>
<text text-anchor="middle" x="998.69" y="-14.3" font-family="Times,serif" font-size="14.00">dra/func_8010EA54</text>
</a>
</g>
</g>
<!-- dra/func_8010EB5C&#45;&gt;dra/func_8010EA54 -->
<g id="edge5" class="edge">
<title>dra/func_8010EB5C&#45;&gt;dra/func_8010EA54</title>
<path fill="none" stroke="black" d="M619.94,-91.18C701.05,-75.72 837.07,-49.8 922.13,-33.59"/>
<polygon fill="black" stroke="black" points="922.82,-37.02 931.98,-31.71 921.51,-30.15 922.82,-37.02"/>
<text text-anchor="middle" x="806.69" y="-57.8" font-family="Times,serif" font-size="14.00">1</text>
</g>
<!-- dra/func_8010EDB8 -->
<g id="node7" class="node">
<title>dra/func_8010EDB8</title>
<g id="a_node7"><a xlink:href="func_8010EDB8.svg" xlink:title="dra/func_8010EDB8">
<ellipse fill="red" stroke="black" cx="552.69" cy="-192" rx="103.98" ry="18"/>
<text text-anchor="middle" x="552.69" y="-188.3" font-family="Times,serif" font-size="14.00">dra/func_8010EDB8</text>
</a>
</g>
</g>
<!-- dra/func_8010EDB8&#45;&gt;dra/func_8010EB5C -->
<g id="edge6" class="edge">
<title>dra/func_8010EDB8&#45;&gt;dra/func_8010EB5C</title>
<path fill="none" stroke="black" d="M552.69,-173.8C552.69,-162.16 552.69,-146.55 552.69,-133.24"/>
<polygon fill="black" stroke="black" points="556.19,-133.18 552.69,-123.18 549.19,-133.18 556.19,-133.18"/>
<text text-anchor="middle" x="557.69" y="-144.8" font-family="Times,serif" font-size="14.00">1</text>
</g>
</g>
</svg>
