<?xml version="1.0" encoding="UTF-8" standalone="no"?>
<!DOCTYPE svg PUBLIC "-//W3C//DTD SVG 1.1//EN"
 "http://www.w3.org/Graphics/SVG/1.1/DTD/svg11.dtd">
<!-- Generated by graphviz version 2.43.0 (0)
 -->
<!-- Title: func_800FAF44 Pages: 1 -->
<svg width="438pt" height="131pt"
 viewBox="0.00 0.00 438.03 131.00" xmlns="http://www.w3.org/2000/svg" xmlns:xlink="http://www.w3.org/1999/xlink">
<g id="graph0" class="graph" transform="scale(1 1) rotate(0) translate(4 127)">
<title>func_800FAF44</title>
<polygon fill="white" stroke="transparent" points="-4,4 -4,-127 434.03,-127 434.03,4 -4,4"/>
<!-- dra/func_800FAF44 -->
<g id="node1" class="node">
<title>dra/func_800FAF44</title>
<ellipse fill="green" stroke="black" cx="214.69" cy="-18" rx="100.98" ry="18"/>
<text text-anchor="middle" x="214.69" y="-14.3" font-family="Times,serif" font-size="14.00">dra/func_800FAF44</text>
</g>
<!-- dra/func_800FBC24 -->
<g id="node2" class="node">
<title>dra/func_800FBC24</title>
<g id="a_node2"><a xlink:href="func_800FBC24.svg" xlink:title="dra/func_800FBC24">
<ellipse fill="red" stroke="black" cx="102.69" cy="-105" rx="102.88" ry="18"/>
<text text-anchor="middle" x="102.69" y="-101.3" font-family="Times,serif" font-size="14.00">dra/func_800FBC24</text>
</a>
</g>
</g>
<!-- dra/func_800FBC24&#45;&gt;dra/func_800FAF44 -->
<g id="edge1" class="edge">
<title>dra/func_800FBC24&#45;&gt;dra/func_800FAF44</title>
<path fill="none" stroke="black" d="M124.55,-87.41C141.63,-74.45 165.56,-56.28 184.47,-41.93"/>
<polygon fill="black" stroke="black" points="186.65,-44.67 192.5,-35.84 182.42,-39.1 186.65,-44.67"/>
<text text-anchor="middle" x="170.69" y="-57.8" font-family="Times,serif" font-size="14.00">2</text>
</g>
<!-- dra/func_800FB0FC -->
<g id="node3" class="node">
<title>dra/func_800FB0FC</title>
<g id="a_node3"><a xlink:href="func_800FB0FC.svg" xlink:title="dra/func_800FB0FC">
<ellipse fill="green" stroke="black" cx="326.69" cy="-105" rx="103.18" ry="18"/>
<text text-anchor="middle" x="326.69" y="-101.3" font-family="Times,serif" font-size="14.00">dra/func_800FB0FC</text>
</a>
</g>
</g>
<!-- dra/func_800FB0FC&#45;&gt;dra/func_800FAF44 -->
<g id="edge2" class="edge">
<title>dra/func_800FB0FC&#45;&gt;dra/func_800FAF44</title>
<path fill="none" stroke="black" d="M304.56,-87.21C287.46,-74.23 263.6,-56.12 244.77,-41.83"/>
<polygon fill="black" stroke="black" points="246.85,-39.02 236.77,-35.76 242.62,-44.59 246.85,-39.02"/>
<text text-anchor="middle" x="282.69" y="-57.8" font-family="Times,serif" font-size="14.00">1</text>
</g>
</g>
</svg>
