<?xml version="1.0" encoding="UTF-8" standalone="no"?>
<!DOCTYPE svg PUBLIC "-//W3C//DTD SVG 1.1//EN"
 "http://www.w3.org/Graphics/SVG/1.1/DTD/svg11.dtd">
<!-- Generated by graphviz version 2.43.0 (0)
 -->
<!-- Title: GetStatusAilmentTimer Pages: 1 -->
<svg width="1016pt" height="218pt"
 viewBox="0.00 0.00 1015.88 218.00" xmlns="http://www.w3.org/2000/svg" xmlns:xlink="http://www.w3.org/1999/xlink">
<g id="graph0" class="graph" transform="scale(1 1) rotate(0) translate(4 214)">
<title>GetStatusAilmentTimer</title>
<polygon fill="white" stroke="transparent" points="-4,4 -4,-214 1011.88,-214 1011.88,4 -4,4"/>
<!-- dra/GetStatusAilmentTimer -->
<g id="node1" class="node">
<title>dra/GetStatusAilmentTimer</title>
<ellipse fill="green" stroke="black" cx="486.04" cy="-105" rx="139.98" ry="18"/>
<text text-anchor="middle" x="486.04" y="-101.3" font-family="Times,serif" font-size="14.00">dra/GetStatusAilmentTimer</text>
</g>
<!-- dra/rand -->
<g id="node2" class="node">
<title>dra/rand</title>
<g id="a_node2"><a xlink:href="rand.svg" xlink:title="dra/rand">
<ellipse fill="lightblue" stroke="black" cx="373.04" cy="-18" rx="50.89" ry="18"/>
<text text-anchor="middle" x="373.04" y="-14.3" font-family="Times,serif" font-size="14.00">dra/rand</text>
</a>
</g>
</g>
<!-- dra/GetStatusAilmentTimer&#45;&gt;dra/rand -->
<g id="edge1" class="edge">
<title>dra/GetStatusAilmentTimer&#45;&gt;dra/rand</title>
<path fill="none" stroke="black" d="M463.72,-87.21C446.01,-73.89 421.13,-55.18 401.91,-40.72"/>
<polygon fill="black" stroke="black" points="403.89,-37.83 393.8,-34.61 399.68,-43.42 403.89,-37.83"/>
<text text-anchor="middle" x="442.04" y="-57.8" font-family="Times,serif" font-size="14.00">1</text>
</g>
<!-- dra/CheckEquipmentItemCount -->
<g id="node3" class="node">
<title>dra/CheckEquipmentItemCount</title>
<g id="a_node3"><a xlink:href="CheckEquipmentItemCount.svg" xlink:title="dra/CheckEquipmentItemCount">
<ellipse fill="green" stroke="black" cx="600.04" cy="-18" rx="157.87" ry="18"/>
<text text-anchor="middle" x="600.04" y="-14.3" font-family="Times,serif" font-size="14.00">dra/CheckEquipmentItemCount</text>
</a>
</g>
</g>
<!-- dra/GetStatusAilmentTimer&#45;&gt;dra/CheckEquipmentItemCount -->
<g id="edge2" class="edge">
<title>dra/GetStatusAilmentTimer&#45;&gt;dra/CheckEquipmentItemCount</title>
<path fill="none" stroke="black" d="M508.56,-87.21C525.86,-74.31 549.94,-56.36 569.05,-42.1"/>
<polygon fill="black" stroke="black" points="571.25,-44.83 577.17,-36.05 567.07,-39.22 571.25,-44.83"/>
<text text-anchor="middle" x="555.04" y="-57.8" font-family="Times,serif" font-size="14.00">1</text>
</g>
<!-- dra/func_8010FB68 -->
<g id="node4" class="node">
<title>dra/func_8010FB68</title>
<g id="a_node4"><a xlink:href="func_8010FB68.svg" xlink:title="dra/func_8010FB68">
<ellipse fill="green" stroke="black" cx="102.04" cy="-192" rx="102.08" ry="18"/>
<text text-anchor="middle" x="102.04" y="-188.3" font-family="Times,serif" font-size="14.00">dra/func_8010FB68</text>
</a>
</g>
</g>
<!-- dra/func_8010FB68&#45;&gt;dra/GetStatusAilmentTimer -->
<g id="edge3" class="edge">
<title>dra/func_8010FB68&#45;&gt;dra/GetStatusAilmentTimer</title>
<path fill="none" stroke="black" d="M162.89,-177.53C229.54,-162.78 336.59,-139.08 409.04,-123.04"/>
<polygon fill="black" stroke="black" points="410.02,-126.41 419.03,-120.83 408.51,-119.58 410.02,-126.41"/>
<text text-anchor="middle" x="322.04" y="-144.8" font-family="Times,serif" font-size="14.00">1</text>
</g>
<!-- dra/AlucardHandleDamage -->
<g id="node5" class="node">
<title>dra/AlucardHandleDamage</title>
<g id="a_node5"><a xlink:href="AlucardHandleDamage.svg" xlink:title="dra/AlucardHandleDamage">
<ellipse fill="red" stroke="black" cx="358.04" cy="-192" rx="135.68" ry="18"/>
<text text-anchor="middle" x="358.04" y="-188.3" font-family="Times,serif" font-size="14.00">dra/AlucardHandleDamage</text>
</a>
</g>
</g>
<!-- dra/AlucardHandleDamage&#45;&gt;dra/GetStatusAilmentTimer -->
<g id="edge4" class="edge">
<title>dra/AlucardHandleDamage&#45;&gt;dra/GetStatusAilmentTimer</title>
<path fill="none" stroke="black" d="M383.33,-174.21C403.05,-161.11 430.63,-142.8 452.25,-128.44"/>
<polygon fill="black" stroke="black" points="454.41,-131.21 460.8,-122.76 450.54,-125.37 454.41,-131.21"/>
<text text-anchor="middle" x="435.04" y="-144.8" font-family="Times,serif" font-size="14.00">2</text>
</g>
<!-- dra/func_80114DF4 -->
<g id="node6" class="node">
<title>dra/func_80114DF4</title>
<g id="a_node6"><a xlink:href="func_80114DF4.svg" xlink:title="dra/func_80114DF4">
<ellipse fill="red" stroke="black" cx="615.04" cy="-192" rx="102.88" ry="18"/>
<text text-anchor="middle" x="615.04" y="-188.3" font-family="Times,serif" font-size="14.00">dra/func_80114DF4</text>
</a>
</g>
</g>
<!-- dra/func_80114DF4&#45;&gt;dra/GetStatusAilmentTimer -->
<g id="edge5" class="edge">
<title>dra/func_80114DF4&#45;&gt;dra/GetStatusAilmentTimer</title>
<path fill="none" stroke="black" d="M589.86,-174.41C569.93,-161.27 541.88,-142.8 519.97,-128.35"/>
<polygon fill="black" stroke="black" points="521.87,-125.42 511.6,-122.84 518.02,-131.26 521.87,-125.42"/>
<text text-anchor="middle" x="564.04" y="-144.8" font-family="Times,serif" font-size="14.00">1</text>
</g>
<!-- dra/EntityPlayerPinkEffect -->
<g id="node7" class="node">
<title>dra/EntityPlayerPinkEffect</title>
<g id="a_node7"><a xlink:href="EntityPlayerPinkEffect.svg" xlink:title="dra/EntityPlayerPinkEffect">
<ellipse fill="red" stroke="black" cx="872.04" cy="-192" rx="135.68" ry="18"/>
<text text-anchor="middle" x="872.04" y="-188.3" font-family="Times,serif" font-size="14.00">dra/EntityPlayerPinkEffect</text>
</a>
</g>
</g>
<!-- dra/EntityPlayerPinkEffect&#45;&gt;dra/GetStatusAilmentTimer -->
<g id="edge6" class="edge">
<title>dra/EntityPlayerPinkEffect&#45;&gt;dra/GetStatusAilmentTimer</title>
<path fill="none" stroke="black" d="M805.25,-176.29C737.86,-161.45 633.91,-138.56 563.08,-122.96"/>
<polygon fill="black" stroke="black" points="563.83,-119.55 553.31,-120.81 562.33,-126.38 563.83,-119.55"/>
<text text-anchor="middle" x="708.04" y="-144.8" font-family="Times,serif" font-size="14.00">1</text>
</g>
</g>
</svg>
