<?xml version="1.0" encoding="UTF-8" standalone="no"?>
<!DOCTYPE svg PUBLIC "-//W3C//DTD SVG 1.1//EN"
 "http://www.w3.org/Graphics/SVG/1.1/DTD/svg11.dtd">
<!-- Generated by graphviz version 2.43.0 (0)
 -->
<!-- Title: HandleMainMenu Pages: 1 -->
<svg width="656pt" height="218pt"
 viewBox="0.00 0.00 656.08 218.00" xmlns="http://www.w3.org/2000/svg" xmlns:xlink="http://www.w3.org/1999/xlink">
<g id="graph0" class="graph" transform="scale(1 1) rotate(0) translate(4 214)">
<title>HandleMainMenu</title>
<polygon fill="white" stroke="transparent" points="-4,4 -4,-214 652.08,-214 652.08,4 -4,4"/>
<!-- dra/HandleMainMenu -->
<g id="node1" class="node">
<title>dra/HandleMainMenu</title>
<ellipse fill="green" stroke="black" cx="325.69" cy="-105" rx="112.38" ry="18"/>
<text text-anchor="middle" x="325.69" y="-101.3" font-family="Times,serif" font-size="14.00">dra/HandleMainMenu</text>
</g>
<!-- dra/func_800E81FC -->
<g id="node2" class="node">
<title>dra/func_800E81FC</title>
<g id="a_node2"><a xlink:href="func_800E81FC.svg" xlink:title="dra/func_800E81FC">
<ellipse fill="green" stroke="black" cx="102.69" cy="-18" rx="102.88" ry="18"/>
<text text-anchor="middle" x="102.69" y="-14.3" font-family="Times,serif" font-size="14.00">dra/func_800E81FC</text>
</a>
</g>
</g>
<!-- dra/HandleMainMenu&#45;&gt;dra/func_800E81FC -->
<g id="edge1" class="edge">
<title>dra/HandleMainMenu&#45;&gt;dra/func_800E81FC</title>
<path fill="none" stroke="black" d="M284.27,-88.21C247.15,-74.06 192.6,-53.27 152.99,-38.17"/>
<polygon fill="black" stroke="black" points="154.11,-34.85 143.51,-34.56 151.61,-41.39 154.11,-34.85"/>
<text text-anchor="middle" x="232.69" y="-57.8" font-family="Times,serif" font-size="14.00">4</text>
</g>
<!-- dra/g_api_o_Update -->
<g id="node3" class="node">
<title>dra/g_api_o_Update</title>
<g id="a_node3"><a xlink:href="g_api_o_Update.svg" xlink:title="dra/g_api_o_Update">
<ellipse fill="lightblue" stroke="black" cx="325.69" cy="-18" rx="102.08" ry="18"/>
<text text-anchor="middle" x="325.69" y="-14.3" font-family="Times,serif" font-size="14.00">dra/g_api_o_Update</text>
</a>
</g>
</g>
<!-- dra/HandleMainMenu&#45;&gt;dra/g_api_o_Update -->
<g id="edge2" class="edge">
<title>dra/HandleMainMenu&#45;&gt;dra/g_api_o_Update</title>
<path fill="none" stroke="black" d="M325.69,-86.8C325.69,-75.16 325.69,-59.55 325.69,-46.24"/>
<polygon fill="black" stroke="black" points="329.19,-46.18 325.69,-36.18 322.19,-46.18 329.19,-46.18"/>
<text text-anchor="middle" x="330.69" y="-57.8" font-family="Times,serif" font-size="14.00">1</text>
</g>
<!-- dra/func_800E4970 -->
<g id="node4" class="node">
<title>dra/func_800E4970</title>
<g id="a_node4"><a xlink:href="func_800E4970.svg" xlink:title="dra/func_800E4970">
<ellipse fill="green" stroke="black" cx="546.69" cy="-18" rx="101.28" ry="18"/>
<text text-anchor="middle" x="546.69" y="-14.3" font-family="Times,serif" font-size="14.00">dra/func_800E4970</text>
</a>
</g>
</g>
<!-- dra/HandleMainMenu&#45;&gt;dra/func_800E4970 -->
<g id="edge3" class="edge">
<title>dra/HandleMainMenu&#45;&gt;dra/func_800E4970</title>
<path fill="none" stroke="black" d="M366.74,-88.21C403.45,-74.09 457.36,-53.36 496.59,-38.27"/>
<polygon fill="black" stroke="black" points="498.16,-41.42 506.23,-34.56 495.64,-34.88 498.16,-41.42"/>
<text text-anchor="middle" x="453.69" y="-57.8" font-family="Times,serif" font-size="14.00">1</text>
</g>
<!-- dra/UpdateGame -->
<g id="node5" class="node">
<title>dra/UpdateGame</title>
<g id="a_node5"><a xlink:href="UpdateGame.svg" xlink:title="dra/UpdateGame">
<ellipse fill="green" stroke="black" cx="325.69" cy="-192" rx="90.18" ry="18"/>
<text text-anchor="middle" x="325.69" y="-188.3" font-family="Times,serif" font-size="14.00">dra/UpdateGame</text>
</a>
</g>
</g>
<!-- dra/UpdateGame&#45;&gt;dra/HandleMainMenu -->
<g id="edge4" class="edge">
<title>dra/UpdateGame&#45;&gt;dra/HandleMainMenu</title>
<path fill="none" stroke="black" d="M325.69,-173.8C325.69,-162.16 325.69,-146.55 325.69,-133.24"/>
<polygon fill="black" stroke="black" points="329.19,-133.18 325.69,-123.18 322.19,-133.18 329.19,-133.18"/>
<text text-anchor="middle" x="330.69" y="-144.8" font-family="Times,serif" font-size="14.00">1</text>
</g>
</g>
</svg>
