<?xml version="1.0" encoding="UTF-8" standalone="no"?>
<!DOCTYPE svg PUBLIC "-//W3C//DTD SVG 1.1//EN"
 "http://www.w3.org/Graphics/SVG/1.1/DTD/svg11.dtd">
<!-- Generated by graphviz version 2.43.0 (0)
 -->
<!-- Title: InitGeom Pages: 1 -->
<svg width="393pt" height="131pt"
 viewBox="0.00 0.00 392.58 131.00" xmlns="http://www.w3.org/2000/svg" xmlns:xlink="http://www.w3.org/1999/xlink">
<g id="graph0" class="graph" transform="scale(1 1) rotate(0) translate(4 127)">
<title>InitGeom</title>
<polygon fill="white" stroke="transparent" points="-4,4 -4,-127 388.58,-127 388.58,4 -4,4"/>
<!-- main/InitGeom -->
<g id="node1" class="node">
<title>main/InitGeom</title>
<ellipse fill="red" stroke="black" cx="81.89" cy="-105" rx="79.09" ry="18"/>
<text text-anchor="middle" x="81.89" y="-101.3" font-family="Times,serif" font-size="14.00">main/InitGeom</text>
</g>
<!-- main/patch_gte -->
<g id="node2" class="node">
<title>main/patch_gte</title>
<g id="a_node2"><a xlink:href="patch_gte.svg" xlink:title="main/patch_gte">
<ellipse fill="lightblue" stroke="black" cx="81.89" cy="-18" rx="81.79" ry="18"/>
<text text-anchor="middle" x="81.89" y="-14.3" font-family="Times,serif" font-size="14.00">main/patch_gte</text>
</a>
</g>
</g>
<!-- main/InitGeom&#45;&gt;main/patch_gte -->
<g id="edge1" class="edge">
<title>main/InitGeom&#45;&gt;main/patch_gte</title>
<path fill="none" stroke="black" d="M81.89,-86.8C81.89,-75.16 81.89,-59.55 81.89,-46.24"/>
<polygon fill="black" stroke="black" points="85.39,-46.18 81.89,-36.18 78.39,-46.18 85.39,-46.18"/>
<text text-anchor="middle" x="86.89" y="-57.8" font-family="Times,serif" font-size="14.00">1</text>
</g>
<!-- dra/entrypoint_sotn -->
<g id="node3" class="node">
<title>dra/entrypoint_sotn</title>
<g id="a_node3"><a xlink:href="entrypoint_sotn.svg" xlink:title="dra/entrypoint_sotn">
<ellipse fill="green" stroke="black" cx="281.89" cy="-105" rx="102.88" ry="18"/>
<text text-anchor="middle" x="281.89" y="-101.3" font-family="Times,serif" font-size="14.00">dra/entrypoint_sotn</text>
</a>
</g>
</g>
<!-- dra/InitGeom -->
<g id="node4" class="node">
<title>dra/InitGeom</title>
<ellipse fill="none" stroke="black" cx="281.89" cy="-18" rx="72.29" ry="18"/>
<text text-anchor="middle" x="281.89" y="-14.3" font-family="Times,serif" font-size="14.00">dra/InitGeom</text>
</g>
<!-- dra/entrypoint_sotn&#45;&gt;dra/InitGeom -->
<g id="edge2" class="edge">
<title>dra/entrypoint_sotn&#45;&gt;dra/InitGeom</title>
<path fill="none" stroke="black" d="M281.89,-86.8C281.89,-75.16 281.89,-59.55 281.89,-46.24"/>
<polygon fill="black" stroke="black" points="285.39,-46.18 281.89,-36.18 278.39,-46.18 285.39,-46.18"/>
<text text-anchor="middle" x="286.89" y="-57.8" font-family="Times,serif" font-size="14.00">1</text>
</g>
</g>
</svg>
