<?xml version="1.0" encoding="UTF-8" standalone="no"?>
<!DOCTYPE svg PUBLIC "-//W3C//DTD SVG 1.1//EN"
 "http://www.w3.org/Graphics/SVG/1.1/DTD/svg11.dtd">
<!-- Generated by graphviz version 2.43.0 (0)
 -->
<!-- Title: InitRoomEntities Pages: 1 -->
<svg width="826pt" height="131pt"
 viewBox="0.00 0.00 825.88 131.00" xmlns="http://www.w3.org/2000/svg" xmlns:xlink="http://www.w3.org/1999/xlink">
<g id="graph0" class="graph" transform="scale(1 1) rotate(0) translate(4 127)">
<title>InitRoomEntities</title>
<polygon fill="white" stroke="transparent" points="-4,4 -4,-127 821.88,-127 821.88,4 -4,4"/>
<!-- wrp/InitRoomEntities -->
<g id="node1" class="node">
<title>wrp/InitRoomEntities</title>
<ellipse fill="green" stroke="black" cx="375.54" cy="-105" rx="110.48" ry="18"/>
<text text-anchor="middle" x="375.54" y="-101.3" font-family="Times,serif" font-size="14.00">wrp/InitRoomEntities</text>
</g>
<!-- wrp/Random -->
<g id="node2" class="node">
<title>wrp/Random</title>
<g id="a_node2"><a xlink:href="Random.svg" xlink:title="wrp/Random">
<ellipse fill="green" stroke="black" cx="69.54" cy="-18" rx="69.59" ry="18"/>
<text text-anchor="middle" x="69.54" y="-14.3" font-family="Times,serif" font-size="14.00">wrp/Random</text>
</a>
</g>
</g>
<!-- wrp/InitRoomEntities&#45;&gt;wrp/Random -->
<g id="edge1" class="edge">
<title>wrp/InitRoomEntities&#45;&gt;wrp/Random</title>
<path fill="none" stroke="black" d="M322.24,-89.19C267,-73.85 181.04,-49.97 125.01,-34.41"/>
<polygon fill="black" stroke="black" points="125.82,-31 115.25,-31.7 123.95,-37.75 125.82,-31"/>
<text text-anchor="middle" x="246.54" y="-57.8" font-family="Times,serif" font-size="14.00">1</text>
</g>
<!-- wrp/func_8018A0CC -->
<g id="node3" class="node">
<title>wrp/func_8018A0CC</title>
<g id="a_node3"><a xlink:href="func_8018A0CC.svg" xlink:title="wrp/func_8018A0CC">
<ellipse fill="green" stroke="black" cx="262.54" cy="-18" rx="105.08" ry="18"/>
<text text-anchor="middle" x="262.54" y="-14.3" font-family="Times,serif" font-size="14.00">wrp/func_8018A0CC</text>
</a>
</g>
</g>
<!-- wrp/InitRoomEntities&#45;&gt;wrp/func_8018A0CC -->
<g id="edge2" class="edge">
<title>wrp/InitRoomEntities&#45;&gt;wrp/func_8018A0CC</title>
<path fill="none" stroke="black" d="M353.22,-87.21C335.96,-74.23 311.89,-56.12 292.89,-41.83"/>
<polygon fill="black" stroke="black" points="294.92,-38.97 284.82,-35.76 290.71,-44.57 294.92,-38.97"/>
<text text-anchor="middle" x="331.54" y="-57.8" font-family="Times,serif" font-size="14.00">1</text>
</g>
<!-- wrp/func_8018A170 -->
<g id="node4" class="node">
<title>wrp/func_8018A170</title>
<g id="a_node4"><a xlink:href="func_8018A170.svg" xlink:title="wrp/func_8018A170">
<ellipse fill="green" stroke="black" cx="489.54" cy="-18" rx="103.18" ry="18"/>
<text text-anchor="middle" x="489.54" y="-14.3" font-family="Times,serif" font-size="14.00">wrp/func_8018A170</text>
</a>
</g>
</g>
<!-- wrp/InitRoomEntities&#45;&gt;wrp/func_8018A170 -->
<g id="edge3" class="edge">
<title>wrp/InitRoomEntities&#45;&gt;wrp/func_8018A170</title>
<path fill="none" stroke="black" d="M398.07,-87.21C415.48,-74.23 439.76,-56.12 458.93,-41.83"/>
<polygon fill="black" stroke="black" points="461.14,-44.54 467.07,-35.76 456.96,-38.93 461.14,-44.54"/>
<text text-anchor="middle" x="444.54" y="-57.8" font-family="Times,serif" font-size="14.00">1</text>
</g>
<!-- wrp/func_8018A380 -->
<g id="node5" class="node">
<title>wrp/func_8018A380</title>
<g id="a_node5"><a xlink:href="func_8018A380.svg" xlink:title="wrp/func_8018A380">
<ellipse fill="green" stroke="black" cx="714.54" cy="-18" rx="103.18" ry="18"/>
<text text-anchor="middle" x="714.54" y="-14.3" font-family="Times,serif" font-size="14.00">wrp/func_8018A380</text>
</a>
</g>
</g>
<!-- wrp/InitRoomEntities&#45;&gt;wrp/func_8018A380 -->
<g id="edge4" class="edge">
<title>wrp/InitRoomEntities&#45;&gt;wrp/func_8018A380</title>
<path fill="none" stroke="black" d="M433.05,-89.58C492.67,-74.63 585.75,-51.29 648.39,-35.59"/>
<polygon fill="black" stroke="black" points="649.32,-38.96 658.17,-33.14 647.62,-32.17 649.32,-38.96"/>
<text text-anchor="middle" x="570.54" y="-57.8" font-family="Times,serif" font-size="14.00">1</text>
</g>
</g>
</svg>
