<?xml version="1.0" encoding="UTF-8" standalone="no"?>
<!DOCTYPE svg PUBLIC "-//W3C//DTD SVG 1.1//EN"
 "http://www.w3.org/Graphics/SVG/1.1/DTD/svg11.dtd">
<!-- Generated by graphviz version 2.43.0 (0)
 -->
<!-- Title: InitializePads Pages: 1 -->
<svg width="356pt" height="218pt"
 viewBox="0.00 0.00 356.09 218.00" xmlns="http://www.w3.org/2000/svg" xmlns:xlink="http://www.w3.org/1999/xlink">
<g id="graph0" class="graph" transform="scale(1 1) rotate(0) translate(4 214)">
<title>InitializePads</title>
<polygon fill="white" stroke="transparent" points="-4,4 -4,-214 352.09,-214 352.09,4 -4,4"/>
<!-- dra/InitializePads -->
<g id="node1" class="node">
<title>dra/InitializePads</title>
<ellipse fill="green" stroke="black" cx="153.39" cy="-105" rx="91.78" ry="18"/>
<text text-anchor="middle" x="153.39" y="-101.3" font-family="Times,serif" font-size="14.00">dra/InitializePads</text>
</g>
<!-- dra/PadInit -->
<g id="node2" class="node">
<title>dra/PadInit</title>
<g id="a_node2"><a xlink:href="PadInit.svg" xlink:title="dra/PadInit">
<ellipse fill="lightblue" stroke="black" cx="62.39" cy="-18" rx="62.29" ry="18"/>
<text text-anchor="middle" x="62.39" y="-14.3" font-family="Times,serif" font-size="14.00">dra/PadInit</text>
</a>
</g>
</g>
<!-- dra/InitializePads&#45;&gt;dra/PadInit -->
<g id="edge1" class="edge">
<title>dra/InitializePads&#45;&gt;dra/PadInit</title>
<path fill="none" stroke="black" d="M135.42,-87.21C121.74,-74.43 102.76,-56.7 87.57,-42.52"/>
<polygon fill="black" stroke="black" points="89.72,-39.74 80.03,-35.47 84.94,-44.85 89.72,-39.74"/>
<text text-anchor="middle" x="118.39" y="-57.8" font-family="Times,serif" font-size="14.00">1</text>
</g>
<!-- dra/func_800E8D24 -->
<g id="node3" class="node">
<title>dra/func_800E8D24</title>
<g id="a_node3"><a xlink:href="func_800E8D24.svg" xlink:title="dra/func_800E8D24">
<ellipse fill="green" stroke="black" cx="245.39" cy="-18" rx="102.88" ry="18"/>
<text text-anchor="middle" x="245.39" y="-14.3" font-family="Times,serif" font-size="14.00">dra/func_800E8D24</text>
</a>
</g>
</g>
<!-- dra/InitializePads&#45;&gt;dra/func_800E8D24 -->
<g id="edge2" class="edge">
<title>dra/InitializePads&#45;&gt;dra/func_800E8D24</title>
<path fill="none" stroke="black" d="M171.57,-87.21C185.31,-74.52 204.34,-56.93 219.64,-42.79"/>
<polygon fill="black" stroke="black" points="222.29,-45.12 227.26,-35.76 217.54,-39.97 222.29,-45.12"/>
<text text-anchor="middle" x="209.39" y="-57.8" font-family="Times,serif" font-size="14.00">1</text>
</g>
<!-- dra/entrypoint_sotn -->
<g id="node4" class="node">
<title>dra/entrypoint_sotn</title>
<g id="a_node4"><a xlink:href="entrypoint_sotn.svg" xlink:title="dra/entrypoint_sotn">
<ellipse fill="green" stroke="black" cx="153.39" cy="-192" rx="102.88" ry="18"/>
<text text-anchor="middle" x="153.39" y="-188.3" font-family="Times,serif" font-size="14.00">dra/entrypoint_sotn</text>
</a>
</g>
</g>
<!-- dra/entrypoint_sotn&#45;&gt;dra/InitializePads -->
<g id="edge3" class="edge">
<title>dra/entrypoint_sotn&#45;&gt;dra/InitializePads</title>
<path fill="none" stroke="black" d="M153.39,-173.8C153.39,-162.16 153.39,-146.55 153.39,-133.24"/>
<polygon fill="black" stroke="black" points="156.89,-133.18 153.39,-123.18 149.89,-133.18 156.89,-133.18"/>
<text text-anchor="middle" x="158.39" y="-144.8" font-family="Times,serif" font-size="14.00">1</text>
</g>
</g>
</svg>
