<?xml version="1.0" encoding="UTF-8" standalone="no"?>
<!DOCTYPE svg PUBLIC "-//W3C//DTD SVG 1.1//EN"
 "http://www.w3.org/Graphics/SVG/1.1/DTD/svg11.dtd">
<!-- Generated by graphviz version 2.43.0 (0)
 -->
<!-- Title: LoadSaveData Pages: 1 -->
<svg width="644pt" height="131pt"
 viewBox="0.00 0.00 644.48 131.00" xmlns="http://www.w3.org/2000/svg" xmlns:xlink="http://www.w3.org/1999/xlink">
<g id="graph0" class="graph" transform="scale(1 1) rotate(0) translate(4 127)">
<title>LoadSaveData</title>
<polygon fill="white" stroke="transparent" points="-4,4 -4,-127 640.48,-127 640.48,4 -4,4"/>
<!-- dra/LoadSaveData -->
<g id="node1" class="node">
<title>dra/LoadSaveData</title>
<ellipse fill="green" stroke="black" cx="102.04" cy="-18" rx="96.38" ry="18"/>
<text text-anchor="middle" x="102.04" y="-14.3" font-family="Times,serif" font-size="14.00">dra/LoadSaveData</text>
</g>
<!-- sel/func_801B3694 -->
<g id="node2" class="node">
<title>sel/func_801B3694</title>
<g id="a_node2"><a xlink:href="func_801B3694.svg" xlink:title="sel/func_801B3694">
<ellipse fill="red" stroke="black" cx="321.04" cy="-105" rx="98.58" ry="18"/>
<text text-anchor="middle" x="321.04" y="-101.3" font-family="Times,serif" font-size="14.00">sel/func_801B3694</text>
</a>
</g>
</g>
<!-- sel/LoadSaveData -->
<g id="node3" class="node">
<title>sel/LoadSaveData</title>
<ellipse fill="none" stroke="black" cx="429.04" cy="-18" rx="93.68" ry="18"/>
<text text-anchor="middle" x="429.04" y="-14.3" font-family="Times,serif" font-size="14.00">sel/LoadSaveData</text>
</g>
<!-- sel/func_801B3694&#45;&gt;sel/LoadSaveData -->
<g id="edge1" class="edge">
<title>sel/func_801B3694&#45;&gt;sel/LoadSaveData</title>
<path fill="none" stroke="black" d="M342.12,-87.41C358.62,-74.42 381.76,-56.21 400.01,-41.85"/>
<polygon fill="black" stroke="black" points="402.32,-44.48 408.01,-35.55 397.99,-38.98 402.32,-44.48"/>
<text text-anchor="middle" x="387.04" y="-57.8" font-family="Times,serif" font-size="14.00">1</text>
</g>
<!-- sel/func_801B3A94 -->
<g id="node4" class="node">
<title>sel/func_801B3A94</title>
<g id="a_node4"><a xlink:href="func_801B3A94.svg" xlink:title="sel/func_801B3A94">
<ellipse fill="red" stroke="black" cx="537.04" cy="-105" rx="99.38" ry="18"/>
<text text-anchor="middle" x="537.04" y="-101.3" font-family="Times,serif" font-size="14.00">sel/func_801B3A94</text>
</a>
</g>
</g>
<!-- sel/func_801B3A94&#45;&gt;sel/LoadSaveData -->
<g id="edge2" class="edge">
<title>sel/func_801B3A94&#45;&gt;sel/LoadSaveData</title>
<path fill="none" stroke="black" d="M515.7,-87.21C499.28,-74.28 476.41,-56.28 458.29,-42.02"/>
<polygon fill="black" stroke="black" points="460.36,-39.19 450.33,-35.76 456.03,-44.69 460.36,-39.19"/>
<text text-anchor="middle" x="495.04" y="-57.8" font-family="Times,serif" font-size="14.00">1</text>
</g>
<!-- dra/func_800F298C -->
<g id="node5" class="node">
<title>dra/func_800F298C</title>
<g id="a_node5"><a xlink:href="func_800F298C.svg" xlink:title="dra/func_800F298C">
<ellipse fill="red" stroke="black" cx="102.04" cy="-105" rx="102.08" ry="18"/>
<text text-anchor="middle" x="102.04" y="-101.3" font-family="Times,serif" font-size="14.00">dra/func_800F298C</text>
</a>
</g>
</g>
<!-- dra/func_800F298C&#45;&gt;dra/LoadSaveData -->
<g id="edge3" class="edge">
<title>dra/func_800F298C&#45;&gt;dra/LoadSaveData</title>
<path fill="none" stroke="black" d="M102.04,-86.8C102.04,-75.16 102.04,-59.55 102.04,-46.24"/>
<polygon fill="black" stroke="black" points="105.54,-46.18 102.04,-36.18 98.54,-46.18 105.54,-46.18"/>
<text text-anchor="middle" x="107.04" y="-57.8" font-family="Times,serif" font-size="14.00">1</text>
</g>
</g>
</svg>
