<?xml version="1.0" encoding="UTF-8" standalone="no"?>
<!DOCTYPE svg PUBLIC "-//W3C//DTD SVG 1.1//EN"
 "http://www.w3.org/Graphics/SVG/1.1/DTD/svg11.dtd">
<!-- Generated by graphviz version 2.43.0 (0)
 -->
<!-- Title: LoadStageTileset Pages: 1 -->
<svg width="340pt" height="218pt"
 viewBox="0.00 0.00 340.29 218.00" xmlns="http://www.w3.org/2000/svg" xmlns:xlink="http://www.w3.org/1999/xlink">
<g id="graph0" class="graph" transform="scale(1 1) rotate(0) translate(4 214)">
<title>LoadStageTileset</title>
<polygon fill="white" stroke="transparent" points="-4,4 -4,-214 336.29,-214 336.29,4 -4,4"/>
<!-- dra/LoadStageTileset -->
<g id="node1" class="node">
<title>dra/LoadStageTileset</title>
<ellipse fill="green" stroke="black" cx="167.59" cy="-105" rx="109.68" ry="18"/>
<text text-anchor="middle" x="167.59" y="-101.3" font-family="Times,serif" font-size="14.00">dra/LoadStageTileset</text>
</g>
<!-- dra/LoadImage -->
<g id="node2" class="node">
<title>dra/LoadImage</title>
<g id="a_node2"><a xlink:href="LoadImage.svg" xlink:title="dra/LoadImage">
<ellipse fill="lightblue" stroke="black" cx="80.59" cy="-18" rx="80.69" ry="18"/>
<text text-anchor="middle" x="80.59" y="-14.3" font-family="Times,serif" font-size="14.00">dra/LoadImage</text>
</a>
</g>
</g>
<!-- dra/LoadStageTileset&#45;&gt;dra/LoadImage -->
<g id="edge1" class="edge">
<title>dra/LoadStageTileset&#45;&gt;dra/LoadImage</title>
<path fill="none" stroke="black" d="M150.4,-87.21C137.42,-74.52 119.41,-56.93 104.95,-42.79"/>
<polygon fill="black" stroke="black" points="107.34,-40.24 97.75,-35.76 102.45,-45.25 107.34,-40.24"/>
<text text-anchor="middle" x="134.59" y="-57.8" font-family="Times,serif" font-size="14.00">1</text>
</g>
<!-- dra/DrawSync -->
<g id="node3" class="node">
<title>dra/DrawSync</title>
<g id="a_node3"><a xlink:href="DrawSync.svg" xlink:title="dra/DrawSync">
<ellipse fill="lightblue" stroke="black" cx="255.59" cy="-18" rx="76.89" ry="18"/>
<text text-anchor="middle" x="255.59" y="-14.3" font-family="Times,serif" font-size="14.00">dra/DrawSync</text>
</a>
</g>
</g>
<!-- dra/LoadStageTileset&#45;&gt;dra/DrawSync -->
<g id="edge2" class="edge">
<title>dra/LoadStageTileset&#45;&gt;dra/DrawSync</title>
<path fill="none" stroke="black" d="M184.98,-87.21C198.12,-74.52 216.32,-56.93 230.96,-42.79"/>
<polygon fill="black" stroke="black" points="233.48,-45.22 238.24,-35.76 228.62,-40.19 233.48,-45.22"/>
<text text-anchor="middle" x="221.59" y="-57.8" font-family="Times,serif" font-size="14.00">1</text>
</g>
<!-- dra/func_800E7E08 -->
<g id="node4" class="node">
<title>dra/func_800E7E08</title>
<g id="a_node4"><a xlink:href="func_800E7E08.svg" xlink:title="dra/func_800E7E08">
<ellipse fill="red" stroke="black" cx="167.59" cy="-192" rx="102.88" ry="18"/>
<text text-anchor="middle" x="167.59" y="-188.3" font-family="Times,serif" font-size="14.00">dra/func_800E7E08</text>
</a>
</g>
</g>
<!-- dra/func_800E7E08&#45;&gt;dra/LoadStageTileset -->
<g id="edge3" class="edge">
<title>dra/func_800E7E08&#45;&gt;dra/LoadStageTileset</title>
<path fill="none" stroke="black" d="M167.59,-173.8C167.59,-162.16 167.59,-146.55 167.59,-133.24"/>
<polygon fill="black" stroke="black" points="171.09,-133.18 167.59,-123.18 164.09,-133.18 171.09,-133.18"/>
<text text-anchor="middle" x="172.59" y="-144.8" font-family="Times,serif" font-size="14.00">3</text>
</g>
</g>
</svg>
