<?xml version="1.0" encoding="UTF-8" standalone="no"?>
<!DOCTYPE svg PUBLIC "-//W3C//DTD SVG 1.1//EN"
 "http://www.w3.org/Graphics/SVG/1.1/DTD/svg11.dtd">
<!-- Generated by graphviz version 2.43.0 (0)
 -->
<!-- Title: main.SsVabClose Pages: 1 -->
<svg width="653pt" height="224pt"
 viewBox="0.00 0.00 653.13 224.00" xmlns="http://www.w3.org/2000/svg" xmlns:xlink="http://www.w3.org/1999/xlink">
<g id="graph0" class="graph" transform="scale(1 1) rotate(0) translate(4 220)">
<title>main.SsVabClose</title>
<polygon fill="white" stroke="transparent" points="-4,4 -4,-220 649.13,-220 649.13,4 -4,4"/>
<!-- main.SsVabClose -->
<g id="node1" class="node">
<title>main.SsVabClose</title>
<ellipse fill="green" stroke="black" cx="323.39" cy="-18" rx="90.18" ry="18"/>
<text text-anchor="middle" x="323.39" y="-14.3" font-family="Times,serif" font-size="14.00">main.SsVabClose</text>
</g>
<!-- dra.func_800E3278 -->
<g id="node2" class="node">
<title>dra.func_800E3278</title>
<g id="a_node2"><a xlink:href="dra.func_800E3278.svg" xlink:title="dra.func_800E3278">
<ellipse fill="green" stroke="black" cx="101.39" cy="-198" rx="101.28" ry="18"/>
<text text-anchor="middle" x="101.39" y="-194.3" font-family="Times,serif" font-size="14.00">dra.func_800E3278</text>
</a>
</g>
</g>
<!-- dra.func_800E3278&#45;&gt;main.SsVabClose -->
<g id="edge1" class="edge">
<title>dra.func_800E3278&#45;&gt;main.SsVabClose</title>
<path fill="none" stroke="black" d="M122.28,-180.25C162.21,-148.24 249.44,-78.29 294.77,-41.95"/>
<polygon fill="black" stroke="black" points="297.11,-44.56 302.72,-35.57 292.73,-39.1 297.11,-44.56"/>
<text text-anchor="middle" x="117.28" y="-169.05" font-family="Times,serif" font-size="14.00">4</text>
</g>
<!-- dra.func_800E81FC -->
<g id="node3" class="node">
<title>dra.func_800E81FC</title>
<g id="a_node3"><a xlink:href="dra.func_800E81FC.svg" xlink:title="dra.func_800E81FC">
<ellipse fill="green" stroke="black" cx="323.39" cy="-198" rx="102.88" ry="18"/>
<text text-anchor="middle" x="323.39" y="-194.3" font-family="Times,serif" font-size="14.00">dra.func_800E81FC</text>
</a>
</g>
</g>
<!-- dra.func_800E81FC&#45;&gt;main.SsVabClose -->
<g id="edge2" class="edge">
<title>dra.func_800E81FC&#45;&gt;main.SsVabClose</title>
<path fill="none" stroke="black" d="M323.39,-179.93C323.39,-148.97 323.39,-83.3 323.39,-46.13"/>
<polygon fill="black" stroke="black" points="326.89,-46.02 323.39,-36.02 319.89,-46.02 326.89,-46.02"/>
<text text-anchor="middle" x="318.39" y="-168.73" font-family="Times,serif" font-size="14.00">1</text>
</g>
<!-- dra.func_80108448 -->
<g id="node4" class="node">
<title>dra.func_80108448</title>
<g id="a_node4"><a xlink:href="dra.func_80108448.svg" xlink:title="dra.func_80108448">
<ellipse fill="green" stroke="black" cx="544.39" cy="-198" rx="100.98" ry="18"/>
<text text-anchor="middle" x="544.39" y="-194.3" font-family="Times,serif" font-size="14.00">dra.func_80108448</text>
</a>
</g>
</g>
<!-- dra.func_80108448&#45;&gt;main.SsVabClose -->
<g id="edge3" class="edge">
<title>dra.func_80108448&#45;&gt;main.SsVabClose</title>
<path fill="none" stroke="black" d="M523.6,-180.25C483.85,-148.24 397,-78.29 351.88,-41.95"/>
<polygon fill="black" stroke="black" points="353.95,-39.12 343.97,-35.57 349.56,-44.57 353.95,-39.12"/>
<text text-anchor="middle" x="518.6" y="-169.05" font-family="Times,serif" font-size="14.00">1</text>
</g>
</g>
</svg>
