<?xml version="1.0" encoding="UTF-8" standalone="no"?>
<!DOCTYPE svg PUBLIC "-//W3C//DTD SVG 1.1//EN"
 "http://www.w3.org/Graphics/SVG/1.1/DTD/svg11.dtd">
<!-- Generated by graphviz version 2.43.0 (0)
 -->
<!-- Title: main.startIntrVSync Pages: 1 -->
<svg width="474pt" height="404pt"
 viewBox="0.00 0.00 473.58 404.00" xmlns="http://www.w3.org/2000/svg" xmlns:xlink="http://www.w3.org/1999/xlink">
<g id="graph0" class="graph" transform="scale(1 1) rotate(0) translate(4 400)">
<title>main.startIntrVSync</title>
<polygon fill="white" stroke="transparent" points="-4,4 -4,-400 469.58,-400 469.58,4 -4,4"/>
<!-- main.startIntrVSync -->
<g id="node1" class="node">
<title>main.startIntrVSync</title>
<ellipse fill="red" stroke="black" cx="239.94" cy="-198" rx="105.08" ry="18"/>
<text text-anchor="middle" x="239.94" y="-194.3" font-family="Times,serif" font-size="14.00">main.startIntrVSync</text>
</g>
<!-- main.InterruptCallback -->
<g id="node2" class="node">
<title>main.InterruptCallback</title>
<g id="a_node2"><a xlink:href="main.InterruptCallback.svg" xlink:title="main.InterruptCallback">
<ellipse fill="red" stroke="black" cx="118.94" cy="-18" rx="118.88" ry="18"/>
<text text-anchor="middle" x="118.94" y="-14.3" font-family="Times,serif" font-size="14.00">main.InterruptCallback</text>
</a>
</g>
</g>
<!-- main.startIntrVSync&#45;&gt;main.InterruptCallback -->
<g id="edge1" class="edge">
<title>main.startIntrVSync&#45;&gt;main.InterruptCallback</title>
<path fill="none" stroke="black" d="M228.34,-179.93C207.02,-148.57 161.49,-81.6 136.41,-44.71"/>
<polygon fill="black" stroke="black" points="139.02,-42.32 130.51,-36.02 133.23,-46.25 139.02,-42.32"/>
<text text-anchor="middle" x="125.51" y="-39.82" font-family="Times,serif" font-size="14.00">1</text>
</g>
<!-- main.VSync_memclr -->
<g id="node3" class="node">
<title>main.VSync_memclr</title>
<g id="a_node3"><a xlink:href="main.VSync_memclr.svg" xlink:title="main.VSync_memclr">
<ellipse fill="red" stroke="black" cx="360.94" cy="-18" rx="104.78" ry="18"/>
<text text-anchor="middle" x="360.94" y="-14.3" font-family="Times,serif" font-size="14.00">main.VSync_memclr</text>
</a>
</g>
</g>
<!-- main.startIntrVSync&#45;&gt;main.VSync_memclr -->
<g id="edge2" class="edge">
<title>main.startIntrVSync&#45;&gt;main.VSync_memclr</title>
<path fill="none" stroke="black" d="M251.54,-179.93C272.86,-148.57 318.38,-81.6 343.46,-44.71"/>
<polygon fill="black" stroke="black" points="346.65,-46.25 349.37,-36.02 340.86,-42.32 346.65,-46.25"/>
<text text-anchor="middle" x="344.37" y="-39.82" font-family="Times,serif" font-size="14.00">1</text>
</g>
<!-- main.startIntr -->
<g id="node4" class="node">
<title>main.startIntr</title>
<g id="a_node4"><a xlink:href="main.startIntr.svg" xlink:title="main.startIntr">
<ellipse fill="red" stroke="black" cx="239.94" cy="-378" rx="76.89" ry="18"/>
<text text-anchor="middle" x="239.94" y="-374.3" font-family="Times,serif" font-size="14.00">main.startIntr</text>
</a>
</g>
</g>
<!-- main.startIntr&#45;&gt;main.startIntrVSync -->
<g id="edge3" class="edge">
<title>main.startIntr&#45;&gt;main.startIntrVSync</title>
<path fill="none" stroke="black" d="M239.94,-359.93C239.94,-328.97 239.94,-263.3 239.94,-226.13"/>
<polygon fill="black" stroke="black" points="243.44,-226.02 239.94,-216.02 236.44,-226.02 243.44,-226.02"/>
<text text-anchor="middle" x="234.94" y="-348.73" font-family="Times,serif" font-size="14.00">1</text>
</g>
</g>
</svg>
