<?xml version="1.0" encoding="UTF-8" standalone="no"?>
<!DOCTYPE svg PUBLIC "-//W3C//DTD SVG 1.1//EN"
 "http://www.w3.org/Graphics/SVG/1.1/DTD/svg11.dtd">
<!-- Generated by graphviz version 2.43.0 (0)
 -->
<!-- Title: main.trapIntr Pages: 1 -->
<svg width="630pt" height="404pt"
 viewBox="0.00 0.00 630.39 404.00" xmlns="http://www.w3.org/2000/svg" xmlns:xlink="http://www.w3.org/1999/xlink">
<g id="graph0" class="graph" transform="scale(1 1) rotate(0) translate(4 400)">
<title>main.trapIntr</title>
<polygon fill="white" stroke="transparent" points="-4,4 -4,-400 626.39,-400 626.39,4 -4,4"/>
<!-- main.trapIntr -->
<g id="node1" class="node">
<title>main.trapIntr</title>
<ellipse fill="red" stroke="black" cx="390.34" cy="-198" rx="73.39" ry="18"/>
<text text-anchor="middle" x="390.34" y="-194.3" font-family="Times,serif" font-size="14.00">main.trapIntr</text>
</g>
<!-- UnknownSDKFunction -->
<g id="node2" class="node">
<title>UnknownSDKFunction</title>
<g id="a_node2"><a xlink:href="UnknownSDKFunction.svg" xlink:title="UnknownSDKFunction">
<ellipse fill="lightblue" stroke="black" cx="116.34" cy="-18" rx="116.18" ry="18"/>
<text text-anchor="middle" x="116.34" y="-14.3" font-family="Times,serif" font-size="14.00">UnknownSDKFunction</text>
</a>
</g>
</g>
<!-- main.trapIntr&#45;&gt;UnknownSDKFunction -->
<g id="edge1" class="edge">
<title>main.trapIntr&#45;&gt;UnknownSDKFunction</title>
<path fill="none" stroke="black" d="M365.54,-180.89C316.4,-148.97 206.58,-77.62 150.58,-41.25"/>
<polygon fill="black" stroke="black" points="152.37,-38.23 142.08,-35.72 148.56,-44.1 152.37,-38.23"/>
<text text-anchor="middle" x="137.08" y="-39.52" font-family="Times,serif" font-size="14.00">1</text>
</g>
<!-- main.ReturnFromException -->
<g id="node3" class="node">
<title>main.ReturnFromException</title>
<g id="a_node3"><a xlink:href="main.ReturnFromException.svg" xlink:title="main.ReturnFromException">
<ellipse fill="red" stroke="black" cx="390.34" cy="-18" rx="139.98" ry="18"/>
<text text-anchor="middle" x="390.34" y="-14.3" font-family="Times,serif" font-size="14.00">main.ReturnFromException</text>
</a>
</g>
</g>
<!-- main.trapIntr&#45;&gt;main.ReturnFromException -->
<g id="edge2" class="edge">
<title>main.trapIntr&#45;&gt;main.ReturnFromException</title>
<path fill="none" stroke="black" d="M390.34,-179.93C390.34,-148.97 390.34,-83.3 390.34,-46.13"/>
<polygon fill="black" stroke="black" points="393.84,-46.02 390.34,-36.02 386.84,-46.02 393.84,-46.02"/>
<text text-anchor="middle" x="385.34" y="-39.82" font-family="Times,serif" font-size="14.00">2</text>
</g>
<!-- printf -->
<g id="node4" class="node">
<title>printf</title>
<g id="a_node4"><a xlink:href="printf.svg" xlink:title="printf">
<ellipse fill="lightblue" stroke="black" cx="585.34" cy="-18" rx="37.09" ry="18"/>
<text text-anchor="middle" x="585.34" y="-14.3" font-family="Times,serif" font-size="14.00">printf</text>
</a>
</g>
</g>
<!-- main.trapIntr&#45;&gt;printf -->
<g id="edge3" class="edge">
<title>main.trapIntr&#45;&gt;printf</title>
<path fill="none" stroke="black" d="M408.68,-180.25C443.91,-148.1 521.05,-77.69 560.71,-41.48"/>
<polygon fill="black" stroke="black" points="563.55,-43.63 568.58,-34.3 558.83,-38.46 563.55,-43.63"/>
<text text-anchor="middle" x="563.58" y="-38.1" font-family="Times,serif" font-size="14.00">2</text>
</g>
<!-- main.startIntr -->
<g id="node5" class="node">
<title>main.startIntr</title>
<g id="a_node5"><a xlink:href="main.startIntr.svg" xlink:title="main.startIntr">
<ellipse fill="red" stroke="black" cx="390.34" cy="-378" rx="76.89" ry="18"/>
<text text-anchor="middle" x="390.34" y="-374.3" font-family="Times,serif" font-size="14.00">main.startIntr</text>
</a>
</g>
</g>
<!-- main.startIntr&#45;&gt;main.trapIntr -->
<g id="edge4" class="edge">
<title>main.startIntr&#45;&gt;main.trapIntr</title>
<path fill="none" stroke="black" d="M390.34,-359.93C390.34,-328.97 390.34,-263.3 390.34,-226.13"/>
<polygon fill="black" stroke="black" points="393.84,-226.02 390.34,-216.02 386.84,-226.02 393.84,-226.02"/>
<text text-anchor="middle" x="385.34" y="-348.73" font-family="Times,serif" font-size="14.00">1</text>
</g>
</g>
</svg>
