<?xml version="1.0" encoding="UTF-8" standalone="no"?>
<!DOCTYPE svg PUBLIC "-//W3C//DTD SVG 1.1//EN"
 "http://www.w3.org/Graphics/SVG/1.1/DTD/svg11.dtd">
<!-- Generated by graphviz version 2.43.0 (0)
 -->
<!-- Title: main.startIntr Pages: 1 -->
<svg width="1188pt" height="131pt"
 viewBox="0.00 0.00 1187.94 131.00" xmlns="http://www.w3.org/2000/svg" xmlns:xlink="http://www.w3.org/1999/xlink">
<g id="graph0" class="graph" transform="scale(1 1) rotate(0) translate(4 127)">
<title>main.startIntr</title>
<polygon fill="white" stroke="transparent" points="-4,4 -4,-127 1183.94,-127 1183.94,4 -4,4"/>
<!-- main.startIntr -->
<g id="node1" class="node">
<title>main.startIntr</title>
<ellipse fill="red" stroke="black" cx="485.15" cy="-105" rx="76.89" ry="18"/>
<text text-anchor="middle" x="485.15" y="-101.3" font-family="Times,serif" font-size="14.00">main.startIntr</text>
</g>
<!-- memclr -->
<g id="node2" class="node">
<title>memclr</title>
<g id="a_node2"><a xlink:href="memclr.svg" xlink:title="memclr">
<ellipse fill="lightblue" stroke="black" cx="46.15" cy="-18" rx="46.29" ry="18"/>
<text text-anchor="middle" x="46.15" y="-14.3" font-family="Times,serif" font-size="14.00">memclr</text>
</a>
</g>
</g>
<!-- main.startIntr&#45;&gt;memclr -->
<g id="edge1" class="edge">
<title>main.startIntr&#45;&gt;memclr</title>
<path fill="none" stroke="black" d="M419.6,-95.55C342.62,-84.91 211.44,-64.5 101.15,-36 97.55,-35.07 93.83,-34.05 90.11,-32.99"/>
<polygon fill="black" stroke="black" points="90.91,-29.58 80.33,-30.11 88.94,-36.29 90.91,-29.58"/>
<text text-anchor="middle" x="253.15" y="-57.8" font-family="Times,serif" font-size="14.00">1</text>
</g>
<!-- setjmp -->
<g id="node3" class="node">
<title>setjmp</title>
<g id="a_node3"><a xlink:href="setjmp.svg" xlink:title="setjmp">
<ellipse fill="lightblue" stroke="black" cx="152.15" cy="-18" rx="42.49" ry="18"/>
<text text-anchor="middle" x="152.15" y="-14.3" font-family="Times,serif" font-size="14.00">setjmp</text>
</a>
</g>
</g>
<!-- main.startIntr&#45;&gt;setjmp -->
<g id="edge2" class="edge">
<title>main.startIntr&#45;&gt;setjmp</title>
<path fill="none" stroke="black" d="M430.46,-92.26C373.38,-79.68 281.45,-58.45 203.15,-36 200.01,-35.1 196.77,-34.13 193.53,-33.12"/>
<polygon fill="black" stroke="black" points="194.44,-29.74 183.85,-30.03 192.31,-36.41 194.44,-29.74"/>
<text text-anchor="middle" x="332.15" y="-57.8" font-family="Times,serif" font-size="14.00">1</text>
</g>
<!-- trapIntr -->
<g id="node4" class="node">
<title>trapIntr</title>
<g id="a_node4"><a xlink:href="trapIntr.svg" xlink:title="trapIntr">
<ellipse fill="lightblue" stroke="black" cx="260.15" cy="-18" rx="48.19" ry="18"/>
<text text-anchor="middle" x="260.15" y="-14.3" font-family="Times,serif" font-size="14.00">trapIntr</text>
</a>
</g>
</g>
<!-- main.startIntr&#45;&gt;trapIntr -->
<g id="edge3" class="edge">
<title>main.startIntr&#45;&gt;trapIntr</title>
<path fill="none" stroke="black" d="M446.47,-89.39C406.34,-74.23 343.77,-50.59 302.37,-34.95"/>
<polygon fill="black" stroke="black" points="303.44,-31.61 292.85,-31.35 300.96,-38.16 303.44,-31.61"/>
<text text-anchor="middle" x="391.15" y="-57.8" font-family="Times,serif" font-size="14.00">1</text>
</g>
<!-- HookEntryInt -->
<g id="node5" class="node">
<title>HookEntryInt</title>
<g id="a_node5"><a xlink:href="HookEntryInt.svg" xlink:title="HookEntryInt">
<ellipse fill="lightblue" stroke="black" cx="400.15" cy="-18" rx="74.19" ry="18"/>
<text text-anchor="middle" x="400.15" y="-14.3" font-family="Times,serif" font-size="14.00">HookEntryInt</text>
</a>
</g>
</g>
<!-- main.startIntr&#45;&gt;HookEntryInt -->
<g id="edge4" class="edge">
<title>main.startIntr&#45;&gt;HookEntryInt</title>
<path fill="none" stroke="black" d="M468.35,-87.21C455.78,-74.63 438.4,-57.25 424.33,-43.18"/>
<polygon fill="black" stroke="black" points="426.45,-40.35 416.9,-35.76 421.5,-45.3 426.45,-40.35"/>
<text text-anchor="middle" x="453.15" y="-57.8" font-family="Times,serif" font-size="14.00">1</text>
</g>
<!-- startIntrVSync -->
<g id="node6" class="node">
<title>startIntrVSync</title>
<g id="a_node6"><a xlink:href="startIntrVSync.svg" xlink:title="startIntrVSync">
<ellipse fill="lightblue" stroke="black" cx="571.15" cy="-18" rx="79.09" ry="18"/>
<text text-anchor="middle" x="571.15" y="-14.3" font-family="Times,serif" font-size="14.00">startIntrVSync</text>
</a>
</g>
</g>
<!-- main.startIntr&#45;&gt;startIntrVSync -->
<g id="edge5" class="edge">
<title>main.startIntr&#45;&gt;startIntrVSync</title>
<path fill="none" stroke="black" d="M502.14,-87.21C514.98,-74.52 532.77,-56.93 547.07,-42.79"/>
<polygon fill="black" stroke="black" points="549.54,-45.28 554.19,-35.76 544.62,-40.3 549.54,-45.28"/>
<text text-anchor="middle" x="539.15" y="-57.8" font-family="Times,serif" font-size="14.00">1</text>
</g>
<!-- startIntrDMA -->
<g id="node7" class="node">
<title>startIntrDMA</title>
<g id="a_node7"><a xlink:href="startIntrDMA.svg" xlink:title="startIntrDMA">
<ellipse fill="lightblue" stroke="black" cx="742.15" cy="-18" rx="73.39" ry="18"/>
<text text-anchor="middle" x="742.15" y="-14.3" font-family="Times,serif" font-size="14.00">startIntrDMA</text>
</a>
</g>
</g>
<!-- main.startIntr&#45;&gt;startIntrDMA -->
<g id="edge6" class="edge">
<title>main.startIntr&#45;&gt;startIntrDMA</title>
<path fill="none" stroke="black" d="M527.58,-89.96C572.27,-75.19 642.64,-51.91 690.51,-36.08"/>
<polygon fill="black" stroke="black" points="691.68,-39.38 700.07,-32.92 689.48,-32.73 691.68,-39.38"/>
<text text-anchor="middle" x="634.15" y="-57.8" font-family="Times,serif" font-size="14.00">1</text>
</g>
<!-- _96_remove -->
<g id="node8" class="node">
<title>_96_remove</title>
<g id="a_node8"><a xlink:href="_96_remove.svg" xlink:title="_96_remove">
<ellipse fill="lightblue" stroke="black" cx="899.15" cy="-18" rx="65.79" ry="18"/>
<text text-anchor="middle" x="899.15" y="-14.3" font-family="Times,serif" font-size="14.00">_96_remove</text>
</a>
</g>
</g>
<!-- main.startIntr&#45;&gt;_96_remove -->
<g id="edge7" class="edge">
<title>main.startIntr&#45;&gt;_96_remove</title>
<path fill="none" stroke="black" d="M542.52,-92.94C610.01,-79.83 725.38,-57.1 824.15,-36 829.45,-34.87 834.96,-33.67 840.48,-32.45"/>
<polygon fill="black" stroke="black" points="841.37,-35.83 850.37,-30.24 839.85,-29 841.37,-35.83"/>
<text text-anchor="middle" x="737.15" y="-57.8" font-family="Times,serif" font-size="14.00">1</text>
</g>
<!-- ExitCriticalSection -->
<g id="node9" class="node">
<title>ExitCriticalSection</title>
<g id="a_node9"><a xlink:href="ExitCriticalSection.svg" xlink:title="ExitCriticalSection">
<ellipse fill="lightblue" stroke="black" cx="1081.15" cy="-18" rx="98.58" ry="18"/>
<text text-anchor="middle" x="1081.15" y="-14.3" font-family="Times,serif" font-size="14.00">ExitCriticalSection</text>
</a>
</g>
</g>
<!-- main.startIntr&#45;&gt;ExitCriticalSection -->
<g id="edge8" class="edge">
<title>main.startIntr&#45;&gt;ExitCriticalSection</title>
<path fill="none" stroke="black" d="M550.33,-95.45C603.15,-88.48 679.47,-78.3 746.15,-69 847.55,-54.86 872.92,-51.37 974.15,-36 982.43,-34.74 991.08,-33.41 999.7,-32.06"/>
<polygon fill="black" stroke="black" points="1000.46,-35.48 1009.8,-30.48 999.38,-28.57 1000.46,-35.48"/>
<text text-anchor="middle" x="858.15" y="-57.8" font-family="Times,serif" font-size="14.00">1</text>
</g>
</g>
</svg>
