<?xml version="1.0" encoding="UTF-8" standalone="no"?>
<!DOCTYPE svg PUBLIC "-//W3C//DTD SVG 1.1//EN"
 "http://www.w3.org/Graphics/SVG/1.1/DTD/svg11.dtd">
<!-- Generated by graphviz version 2.43.0 (0)
 -->
<!-- Title: main.SetFogNear Pages: 1 -->
<svg width="793pt" height="404pt"
 viewBox="0.00 0.00 793.38 404.00" xmlns="http://www.w3.org/2000/svg" xmlns:xlink="http://www.w3.org/1999/xlink">
<g id="graph0" class="graph" transform="scale(1 1) rotate(0) translate(4 400)">
<title>main.SetFogNear</title>
<polygon fill="white" stroke="transparent" points="-4,4 -4,-400 789.38,-400 789.38,4 -4,4"/>
<!-- main.SetFogNear -->
<g id="node1" class="node">
<title>main.SetFogNear</title>
<ellipse fill="red" stroke="black" cx="418.69" cy="-198" rx="92.08" ry="18"/>
<text text-anchor="middle" x="418.69" y="-194.3" font-family="Times,serif" font-size="14.00">main.SetFogNear</text>
</g>
<!-- main.SetDQA -->
<g id="node2" class="node">
<title>main.SetDQA</title>
<g id="a_node2"><a xlink:href="main.SetDQA.svg" xlink:title="main.SetDQA">
<ellipse fill="red" stroke="black" cx="336.69" cy="-18" rx="73.39" ry="18"/>
<text text-anchor="middle" x="336.69" y="-14.3" font-family="Times,serif" font-size="14.00">main.SetDQA</text>
</a>
</g>
</g>
<!-- main.SetFogNear&#45;&gt;main.SetDQA -->
<g id="edge1" class="edge">
<title>main.SetFogNear&#45;&gt;main.SetDQA</title>
<path fill="none" stroke="black" d="M410.83,-179.93C396.44,-148.7 365.79,-82.17 348.75,-45.18"/>
<polygon fill="black" stroke="black" points="351.89,-43.63 344.53,-36.02 345.53,-46.56 351.89,-43.63"/>
<text text-anchor="middle" x="339.53" y="-39.82" font-family="Times,serif" font-size="14.00">1</text>
</g>
<!-- main.SetDQB -->
<g id="node3" class="node">
<title>main.SetDQB</title>
<g id="a_node3"><a xlink:href="main.SetDQB.svg" xlink:title="main.SetDQB">
<ellipse fill="red" stroke="black" cx="501.69" cy="-18" rx="73.39" ry="18"/>
<text text-anchor="middle" x="501.69" y="-14.3" font-family="Times,serif" font-size="14.00">main.SetDQB</text>
</a>
</g>
</g>
<!-- main.SetFogNear&#45;&gt;main.SetDQB -->
<g id="edge2" class="edge">
<title>main.SetFogNear&#45;&gt;main.SetDQB</title>
<path fill="none" stroke="black" d="M426.65,-179.93C441.21,-148.7 472.23,-82.17 489.48,-45.18"/>
<polygon fill="black" stroke="black" points="492.7,-46.56 493.75,-36.02 486.36,-43.6 492.7,-46.56"/>
<text text-anchor="middle" x="488.75" y="-39.82" font-family="Times,serif" font-size="14.00">1</text>
</g>
<!-- no3.EntityDeathSkySwirl -->
<g id="node4" class="node">
<title>no3.EntityDeathSkySwirl</title>
<g id="a_node4"><a xlink:href="no3.EntityDeathSkySwirl.svg" xlink:title="no3.EntityDeathSkySwirl">
<ellipse fill="green" stroke="black" cx="128.69" cy="-378" rx="128.88" ry="18"/>
<text text-anchor="middle" x="128.69" y="-374.3" font-family="Times,serif" font-size="14.00">no3.EntityDeathSkySwirl</text>
</a>
</g>
</g>
<!-- no3.EntityDeathSkySwirl&#45;&gt;main.SetFogNear -->
<g id="edge3" class="edge">
<title>no3.EntityDeathSkySwirl&#45;&gt;main.SetFogNear</title>
<path fill="none" stroke="black" d="M155.97,-360.25C208.81,-327.82 325.05,-256.47 383.57,-220.56"/>
<polygon fill="black" stroke="black" points="385.42,-223.53 392.11,-215.31 381.76,-217.56 385.42,-223.53"/>
<text text-anchor="middle" x="150.97" y="-349.05" font-family="Times,serif" font-size="14.00">1</text>
</g>
<!-- st0.EntityBackgroundVortex -->
<g id="node5" class="node">
<title>st0.EntityBackgroundVortex</title>
<g id="a_node5"><a xlink:href="st0.EntityBackgroundVortex.svg" xlink:title="st0.EntityBackgroundVortex">
<ellipse fill="red" stroke="black" cx="418.69" cy="-378" rx="142.97" ry="18"/>
<text text-anchor="middle" x="418.69" y="-374.3" font-family="Times,serif" font-size="14.00">st0.EntityBackgroundVortex</text>
</a>
</g>
</g>
<!-- st0.EntityBackgroundVortex&#45;&gt;main.SetFogNear -->
<g id="edge4" class="edge">
<title>st0.EntityBackgroundVortex&#45;&gt;main.SetFogNear</title>
<path fill="none" stroke="black" d="M418.69,-359.93C418.69,-328.97 418.69,-263.3 418.69,-226.13"/>
<polygon fill="black" stroke="black" points="422.19,-226.02 418.69,-216.02 415.19,-226.02 422.19,-226.02"/>
<text text-anchor="middle" x="413.69" y="-348.73" font-family="Times,serif" font-size="14.00">1</text>
</g>
<!-- st0.func_801BC5C0 -->
<g id="node6" class="node">
<title>st0.func_801BC5C0</title>
<g id="a_node6"><a xlink:href="st0.func_801BC5C0.svg" xlink:title="st0.func_801BC5C0">
<ellipse fill="red" stroke="black" cx="682.69" cy="-378" rx="102.88" ry="18"/>
<text text-anchor="middle" x="682.69" y="-374.3" font-family="Times,serif" font-size="14.00">st0.func_801BC5C0</text>
</a>
</g>
</g>
<!-- st0.func_801BC5C0&#45;&gt;main.SetFogNear -->
<g id="edge5" class="edge">
<title>st0.func_801BC5C0&#45;&gt;main.SetFogNear</title>
<path fill="none" stroke="black" d="M657.85,-360.25C610.07,-328.04 505.33,-257.42 451.73,-221.27"/>
<polygon fill="black" stroke="black" points="453.51,-218.26 443.27,-215.57 449.6,-224.06 453.51,-218.26"/>
<text text-anchor="middle" x="652.85" y="-349.05" font-family="Times,serif" font-size="14.00">1</text>
</g>
</g>
</svg>
