<?xml version="1.0" encoding="UTF-8" standalone="no"?>
<!DOCTYPE svg PUBLIC "-//W3C//DTD SVG 1.1//EN"
 "http://www.w3.org/Graphics/SVG/1.1/DTD/svg11.dtd">
<!-- Generated by graphviz version 2.43.0 (0)
 -->
<!-- Title: main.func_80017078 Pages: 1 -->
<svg width="458pt" height="131pt"
 viewBox="0.00 0.00 457.78 131.00" xmlns="http://www.w3.org/2000/svg" xmlns:xlink="http://www.w3.org/1999/xlink">
<g id="graph0" class="graph" transform="scale(1 1) rotate(0) translate(4 127)">
<title>main.func_80017078</title>
<polygon fill="white" stroke="transparent" points="-4,4 -4,-127 453.78,-127 453.78,4 -4,4"/>
<!-- main.func_80017078 -->
<g id="node1" class="node">
<title>main.func_80017078</title>
<ellipse fill="red" stroke="black" cx="224.89" cy="-18" rx="107.78" ry="18"/>
<text text-anchor="middle" x="224.89" y="-14.3" font-family="Times,serif" font-size="14.00">main.func_80017078</text>
</g>
<!-- main.func_80017134 -->
<g id="node2" class="node">
<title>main.func_80017134</title>
<g id="a_node2"><a xlink:href="main.func_80017134.svg" xlink:title="main.func_80017134">
<ellipse fill="red" stroke="black" cx="107.89" cy="-105" rx="107.78" ry="18"/>
<text text-anchor="middle" x="107.89" y="-101.3" font-family="Times,serif" font-size="14.00">main.func_80017134</text>
</a>
</g>
</g>
<!-- main.func_80017134&#45;&gt;main.func_80017078 -->
<g id="edge1" class="edge">
<title>main.func_80017134&#45;&gt;main.func_80017078</title>
<path fill="none" stroke="black" d="M131.01,-87.21C148.87,-74.23 173.8,-56.12 193.47,-41.83"/>
<polygon fill="black" stroke="black" points="195.79,-44.47 201.82,-35.76 191.68,-38.8 195.79,-44.47"/>
<text text-anchor="middle" x="178.89" y="-57.8" font-family="Times,serif" font-size="14.00">3</text>
</g>
<!-- main.func_80017008 -->
<g id="node3" class="node">
<title>main.func_80017008</title>
<g id="a_node3"><a xlink:href="main.func_80017008.svg" xlink:title="main.func_80017008">
<ellipse fill="red" stroke="black" cx="341.89" cy="-105" rx="107.78" ry="18"/>
<text text-anchor="middle" x="341.89" y="-101.3" font-family="Times,serif" font-size="14.00">main.func_80017008</text>
</a>
</g>
</g>
<!-- main.func_80017008&#45;&gt;main.func_80017078 -->
<g id="edge2" class="edge">
<title>main.func_80017008&#45;&gt;main.func_80017078</title>
<path fill="none" stroke="black" d="M318.77,-87.21C300.91,-74.23 275.99,-56.12 256.31,-41.83"/>
<polygon fill="black" stroke="black" points="258.11,-38.8 247.96,-35.76 253.99,-44.47 258.11,-38.8"/>
<text text-anchor="middle" x="295.89" y="-57.8" font-family="Times,serif" font-size="14.00">2</text>
</g>
</g>
</svg>
