<?xml version="1.0" encoding="UTF-8" standalone="no"?>
<!DOCTYPE svg PUBLIC "-//W3C//DTD SVG 1.1//EN"
 "http://www.w3.org/Graphics/SVG/1.1/DTD/svg11.dtd">
<!-- Generated by graphviz version 2.43.0 (0)
 -->
<!-- Title: main.trapIntr Pages: 1 -->
<svg width="579pt" height="224pt"
 viewBox="0.00 0.00 579.39 224.00" xmlns="http://www.w3.org/2000/svg" xmlns:xlink="http://www.w3.org/1999/xlink">
<g id="graph0" class="graph" transform="scale(1 1) rotate(0) translate(4 220)">
<title>main.trapIntr</title>
<polygon fill="white" stroke="transparent" points="-4,4 -4,-220 575.39,-220 575.39,4 -4,4"/>
<!-- main.trapIntr -->
<g id="node1" class="node">
<title>main.trapIntr</title>
<ellipse fill="red" stroke="black" cx="206.05" cy="-198" rx="73.39" ry="18"/>
<text text-anchor="middle" x="206.05" y="-194.3" font-family="Times,serif" font-size="14.00">main.trapIntr</text>
</g>
<!-- printf -->
<g id="node2" class="node">
<title>printf</title>
<g id="a_node2"><a xlink:href="printf.svg" xlink:title="printf">
<ellipse fill="lightblue" stroke="black" cx="37.05" cy="-18" rx="37.09" ry="18"/>
<text text-anchor="middle" x="37.05" y="-14.3" font-family="Times,serif" font-size="14.00">printf</text>
</a>
</g>
</g>
<!-- main.trapIntr&#45;&gt;printf -->
<g id="edge1" class="edge">
<title>main.trapIntr&#45;&gt;printf</title>
<path fill="none" stroke="black" d="M190.15,-180.25C159.82,-148.31 93.66,-78.63 59.08,-42.21"/>
<polygon fill="black" stroke="black" points="61.24,-39.39 51.81,-34.55 56.16,-44.21 61.24,-39.39"/>
<text text-anchor="middle" x="46.81" y="-38.35" font-family="Times,serif" font-size="14.00">2</text>
</g>
<!-- ReturnFromException -->
<g id="node3" class="node">
<title>ReturnFromException</title>
<g id="a_node3"><a xlink:href="ReturnFromException.svg" xlink:title="ReturnFromException">
<ellipse fill="lightblue" stroke="black" cx="206.05" cy="-18" rx="114.28" ry="18"/>
<text text-anchor="middle" x="206.05" y="-14.3" font-family="Times,serif" font-size="14.00">ReturnFromException</text>
</a>
</g>
</g>
<!-- main.trapIntr&#45;&gt;ReturnFromException -->
<g id="edge2" class="edge">
<title>main.trapIntr&#45;&gt;ReturnFromException</title>
<path fill="none" stroke="black" d="M206.05,-179.93C206.05,-148.97 206.05,-83.3 206.05,-46.13"/>
<polygon fill="black" stroke="black" points="209.55,-46.02 206.05,-36.02 202.55,-46.02 209.55,-46.02"/>
<text text-anchor="middle" x="201.05" y="-39.82" font-family="Times,serif" font-size="14.00">2</text>
</g>
<!-- UnknownSDKFunction -->
<g id="node4" class="node">
<title>UnknownSDKFunction</title>
<g id="a_node4"><a xlink:href="UnknownSDKFunction.svg" xlink:title="UnknownSDKFunction">
<ellipse fill="lightblue" stroke="black" cx="455.05" cy="-18" rx="116.18" ry="18"/>
<text text-anchor="middle" x="455.05" y="-14.3" font-family="Times,serif" font-size="14.00">UnknownSDKFunction</text>
</a>
</g>
</g>
<!-- main.trapIntr&#45;&gt;UnknownSDKFunction -->
<g id="edge3" class="edge">
<title>main.trapIntr&#45;&gt;UnknownSDKFunction</title>
<path fill="none" stroke="black" d="M229.03,-180.57C273.75,-148.6 372.57,-77.96 423.43,-41.6"/>
<polygon fill="black" stroke="black" points="425.66,-44.31 431.76,-35.65 421.59,-38.61 425.66,-44.31"/>
<text text-anchor="middle" x="426.76" y="-39.45" font-family="Times,serif" font-size="14.00">1</text>
</g>
</g>
</svg>
