<?xml version="1.0" encoding="UTF-8" standalone="no"?>
<!DOCTYPE svg PUBLIC "-//W3C//DTD SVG 1.1//EN"
 "http://www.w3.org/Graphics/SVG/1.1/DTD/svg11.dtd">
<!-- Generated by graphviz version 2.43.0 (0)
 -->
<!-- Title: main.NormalClip Pages: 1 -->
<svg width="653pt" height="224pt"
 viewBox="0.00 0.00 653.43 224.00" xmlns="http://www.w3.org/2000/svg" xmlns:xlink="http://www.w3.org/1999/xlink">
<g id="graph0" class="graph" transform="scale(1 1) rotate(0) translate(4 220)">
<title>main.NormalClip</title>
<polygon fill="white" stroke="transparent" points="-4,4 -4,-220 649.43,-220 649.43,4 -4,4"/>
<!-- main.NormalClip -->
<g id="node1" class="node">
<title>main.NormalClip</title>
<ellipse fill="red" stroke="black" cx="320.74" cy="-18" rx="89.88" ry="18"/>
<text text-anchor="middle" x="320.74" y="-14.3" font-family="Times,serif" font-size="14.00">main.NormalClip</text>
</g>
<!-- dre.func_801A2848 -->
<g id="node2" class="node">
<title>dre.func_801A2848</title>
<g id="a_node2"><a xlink:href="dre.func_801A2848.svg" xlink:title="dre.func_801A2848">
<ellipse fill="red" stroke="black" cx="100.74" cy="-198" rx="100.98" ry="18"/>
<text text-anchor="middle" x="100.74" y="-194.3" font-family="Times,serif" font-size="14.00">dre.func_801A2848</text>
</a>
</g>
</g>
<!-- dre.func_801A2848&#45;&gt;main.NormalClip -->
<g id="edge1" class="edge">
<title>dre.func_801A2848&#45;&gt;main.NormalClip</title>
<path fill="none" stroke="black" d="M121.44,-180.25C161.01,-148.24 247.46,-78.29 292.38,-41.95"/>
<polygon fill="black" stroke="black" points="294.69,-44.58 300.26,-35.57 290.28,-39.14 294.69,-44.58"/>
<text text-anchor="middle" x="116.44" y="-169.05" font-family="Times,serif" font-size="14.00">1</text>
</g>
<!-- dre.func_801A2A58 -->
<g id="node3" class="node">
<title>dre.func_801A2A58</title>
<g id="a_node3"><a xlink:href="dre.func_801A2A58.svg" xlink:title="dre.func_801A2A58">
<ellipse fill="red" stroke="black" cx="320.74" cy="-198" rx="101.28" ry="18"/>
<text text-anchor="middle" x="320.74" y="-194.3" font-family="Times,serif" font-size="14.00">dre.func_801A2A58</text>
</a>
</g>
</g>
<!-- dre.func_801A2A58&#45;&gt;main.NormalClip -->
<g id="edge2" class="edge">
<title>dre.func_801A2A58&#45;&gt;main.NormalClip</title>
<path fill="none" stroke="black" d="M320.74,-179.93C320.74,-148.97 320.74,-83.3 320.74,-46.13"/>
<polygon fill="black" stroke="black" points="324.24,-46.02 320.74,-36.02 317.24,-46.02 324.24,-46.02"/>
<text text-anchor="middle" x="315.74" y="-168.73" font-family="Times,serif" font-size="14.00">1</text>
</g>
<!-- dre.func_801A2C9C -->
<g id="node4" class="node">
<title>dre.func_801A2C9C</title>
<g id="a_node4"><a xlink:href="dre.func_801A2C9C.svg" xlink:title="dre.func_801A2C9C">
<ellipse fill="red" stroke="black" cx="542.74" cy="-198" rx="102.88" ry="18"/>
<text text-anchor="middle" x="542.74" y="-194.3" font-family="Times,serif" font-size="14.00">dre.func_801A2C9C</text>
</a>
</g>
</g>
<!-- dre.func_801A2C9C&#45;&gt;main.NormalClip -->
<g id="edge3" class="edge">
<title>dre.func_801A2C9C&#45;&gt;main.NormalClip</title>
<path fill="none" stroke="black" d="M521.86,-180.25C481.92,-148.24 394.69,-78.29 349.36,-41.95"/>
<polygon fill="black" stroke="black" points="351.4,-39.1 341.41,-35.57 347.02,-44.56 351.4,-39.1"/>
<text text-anchor="middle" x="516.86" y="-169.05" font-family="Times,serif" font-size="14.00">1</text>
</g>
</g>
</svg>
