<?xml version="1.0" encoding="UTF-8" standalone="no"?>
<!DOCTYPE svg PUBLIC "-//W3C//DTD SVG 1.1//EN"
 "http://www.w3.org/Graphics/SVG/1.1/DTD/svg11.dtd">
<!-- Generated by graphviz version 2.43.0 (0)
 -->
<!-- Title: main.VSync Pages: 1 -->
<svg width="4026pt" height="404pt"
 viewBox="0.00 0.00 4025.68 404.00" xmlns="http://www.w3.org/2000/svg" xmlns:xlink="http://www.w3.org/1999/xlink">
<g id="graph0" class="graph" transform="scale(1 1) rotate(0) translate(4 400)">
<title>main.VSync</title>
<polygon fill="white" stroke="transparent" points="-4,4 -4,-400 4021.68,-400 4021.68,4 -4,4"/>
<!-- main.VSync -->
<g id="node1" class="node">
<title>main.VSync</title>
<ellipse fill="red" stroke="black" cx="1763.69" cy="-198" rx="65.79" ry="18"/>
<text text-anchor="middle" x="1763.69" y="-194.3" font-family="Times,serif" font-size="14.00">main.VSync</text>
</g>
<!-- main.v_wait -->
<g id="node2" class="node">
<title>main.v_wait</title>
<g id="a_node2"><a xlink:href="main.v_wait.svg" xlink:title="main.v_wait">
<ellipse fill="red" stroke="black" cx="1763.69" cy="-18" rx="66.09" ry="18"/>
<text text-anchor="middle" x="1763.69" y="-14.3" font-family="Times,serif" font-size="14.00">main.v_wait</text>
</a>
</g>
</g>
<!-- main.VSync&#45;&gt;main.v_wait -->
<g id="edge1" class="edge">
<title>main.VSync&#45;&gt;main.v_wait</title>
<path fill="none" stroke="black" d="M1763.69,-179.93C1763.69,-148.97 1763.69,-83.3 1763.69,-46.13"/>
<polygon fill="black" stroke="black" points="1767.19,-46.02 1763.69,-36.02 1760.19,-46.02 1767.19,-46.02"/>
<text text-anchor="middle" x="1758.69" y="-39.82" font-family="Times,serif" font-size="14.00">2</text>
</g>
<!-- dra.entrypoint_sotn -->
<g id="node3" class="node">
<title>dra.entrypoint_sotn</title>
<g id="a_node3"><a xlink:href="dra.entrypoint_sotn.svg" xlink:title="dra.entrypoint_sotn">
<ellipse fill="green" stroke="black" cx="102.69" cy="-378" rx="102.88" ry="18"/>
<text text-anchor="middle" x="102.69" y="-374.3" font-family="Times,serif" font-size="14.00">dra.entrypoint_sotn</text>
</a>
</g>
</g>
<!-- dra.entrypoint_sotn&#45;&gt;main.VSync -->
<g id="edge2" class="edge">
<title>dra.entrypoint_sotn&#45;&gt;main.VSync</title>
<path fill="none" stroke="black" d="M176.12,-365.35C188.96,-363.46 202.21,-361.6 214.69,-360 782.62,-287.42 1470.89,-224.75 1691.79,-205.26"/>
<polygon fill="black" stroke="black" points="1692.3,-208.73 1701.96,-204.36 1691.69,-201.76 1692.3,-208.73"/>
<text text-anchor="middle" x="171.12" y="-354.15" font-family="Times,serif" font-size="14.00">2</text>
</g>
<!-- dra.func_800E2398 -->
<g id="node4" class="node">
<title>dra.func_800E2398</title>
<g id="a_node4"><a xlink:href="dra.func_800E2398.svg" xlink:title="dra.func_800E2398">
<ellipse fill="green" stroke="black" cx="324.69" cy="-378" rx="101.28" ry="18"/>
<text text-anchor="middle" x="324.69" y="-374.3" font-family="Times,serif" font-size="14.00">dra.func_800E2398</text>
</a>
</g>
</g>
<!-- dra.func_800E2398&#45;&gt;main.VSync -->
<g id="edge3" class="edge">
<title>dra.func_800E2398&#45;&gt;main.VSync</title>
<path fill="none" stroke="black" d="M397.79,-365.47C410.42,-363.58 423.43,-361.68 435.69,-360 916.28,-294.08 1496.67,-228.55 1694.09,-206.66"/>
<polygon fill="black" stroke="black" points="1694.49,-210.14 1704.04,-205.56 1693.72,-203.18 1694.49,-210.14"/>
<text text-anchor="middle" x="392.79" y="-354.27" font-family="Times,serif" font-size="14.00">1</text>
</g>
<!-- dra.func_8013271C -->
<g id="node5" class="node">
<title>dra.func_8013271C</title>
<g id="a_node5"><a xlink:href="dra.func_8013271C.svg" xlink:title="dra.func_8013271C">
<ellipse fill="green" stroke="black" cx="545.69" cy="-378" rx="101.28" ry="18"/>
<text text-anchor="middle" x="545.69" y="-374.3" font-family="Times,serif" font-size="14.00">dra.func_8013271C</text>
</a>
</g>
</g>
<!-- dra.func_8013271C&#45;&gt;main.VSync -->
<g id="edge4" class="edge">
<title>dra.func_8013271C&#45;&gt;main.VSync</title>
<path fill="none" stroke="black" d="M619.05,-365.57C631.28,-363.69 643.84,-361.78 655.69,-360 1050.32,-300.84 1524.53,-233.03 1696.93,-208.49"/>
<polygon fill="black" stroke="black" points="1697.46,-211.95 1706.87,-207.07 1696.48,-205.02 1697.46,-211.95"/>
<text text-anchor="middle" x="614.05" y="-354.37" font-family="Times,serif" font-size="14.00">1</text>
</g>
<!-- dra.func_80132F60 -->
<g id="node6" class="node">
<title>dra.func_80132F60</title>
<g id="a_node6"><a xlink:href="dra.func_80132F60.svg" xlink:title="dra.func_80132F60">
<ellipse fill="red" stroke="black" cx="765.69" cy="-378" rx="100.98" ry="18"/>
<text text-anchor="middle" x="765.69" y="-374.3" font-family="Times,serif" font-size="14.00">dra.func_80132F60</text>
</a>
</g>
</g>
<!-- dra.func_80132F60&#45;&gt;main.VSync -->
<g id="edge5" class="edge">
<title>dra.func_80132F60&#45;&gt;main.VSync</title>
<path fill="none" stroke="black" d="M834.29,-364.77C1018.53,-331.9 1522.26,-242.06 1700.31,-210.3"/>
<polygon fill="black" stroke="black" points="1701.08,-213.72 1710.31,-208.52 1699.85,-206.83 1701.08,-213.72"/>
<text text-anchor="middle" x="829.29" y="-353.57" font-family="Times,serif" font-size="14.00">1</text>
</g>
<!-- dra.func_80133290 -->
<g id="node7" class="node">
<title>dra.func_80133290</title>
<g id="a_node7"><a xlink:href="dra.func_80133290.svg" xlink:title="dra.func_80133290">
<ellipse fill="red" stroke="black" cx="984.69" cy="-378" rx="100.98" ry="18"/>
<text text-anchor="middle" x="984.69" y="-374.3" font-family="Times,serif" font-size="14.00">dra.func_80133290</text>
</a>
</g>
</g>
<!-- dra.func_80133290&#45;&gt;main.VSync -->
<g id="edge6" class="edge">
<title>dra.func_80133290&#45;&gt;main.VSync</title>
<path fill="none" stroke="black" d="M1044.2,-363.4C1189.39,-330.23 1560.41,-245.45 1704.87,-212.44"/>
<polygon fill="black" stroke="black" points="1705.91,-215.79 1714.87,-210.15 1704.35,-208.97 1705.91,-215.79"/>
<text text-anchor="middle" x="1039.2" y="-352.2" font-family="Times,serif" font-size="14.00">1</text>
</g>
<!-- dra.func_80133960 -->
<g id="node8" class="node">
<title>dra.func_80133960</title>
<g id="a_node8"><a xlink:href="dra.func_80133960.svg" xlink:title="dra.func_80133960">
<ellipse fill="red" stroke="black" cx="1203.69" cy="-378" rx="100.98" ry="18"/>
<text text-anchor="middle" x="1203.69" y="-374.3" font-family="Times,serif" font-size="14.00">dra.func_80133960</text>
</a>
</g>
</g>
<!-- dra.func_80133960&#45;&gt;main.VSync -->
<g id="edge7" class="edge">
<title>dra.func_80133960&#45;&gt;main.VSync</title>
<path fill="none" stroke="black" d="M1250.95,-361.98C1355.41,-328.78 1605.16,-249.39 1712.85,-215.16"/>
<polygon fill="black" stroke="black" points="1714.04,-218.45 1722.51,-212.09 1711.92,-211.78 1714.04,-218.45"/>
<text text-anchor="middle" x="1245.95" y="-350.78" font-family="Times,serif" font-size="14.00">1</text>
</g>
<!-- dra.func_80133BDC -->
<g id="node9" class="node">
<title>dra.func_80133BDC</title>
<g id="a_node9"><a xlink:href="dra.func_80133BDC.svg" xlink:title="dra.func_80133BDC">
<ellipse fill="red" stroke="black" cx="1426.69" cy="-378" rx="103.98" ry="18"/>
<text text-anchor="middle" x="1426.69" y="-374.3" font-family="Times,serif" font-size="14.00">dra.func_80133BDC</text>
</a>
</g>
</g>
<!-- dra.func_80133BDC&#45;&gt;main.VSync -->
<g id="edge8" class="edge">
<title>dra.func_80133BDC&#45;&gt;main.VSync</title>
<path fill="none" stroke="black" d="M1457.49,-360.73C1519.25,-328.11 1658.08,-254.78 1725.5,-219.17"/>
<polygon fill="black" stroke="black" points="1727.32,-222.17 1734.53,-214.4 1724.05,-215.98 1727.32,-222.17"/>
<text text-anchor="middle" x="1452.49" y="-349.53" font-family="Times,serif" font-size="14.00">1</text>
</g>
<!-- dra.func_80133FCC -->
<g id="node10" class="node">
<title>dra.func_80133FCC</title>
<g id="a_node10"><a xlink:href="dra.func_80133FCC.svg" xlink:title="dra.func_80133FCC">
<ellipse fill="red" stroke="black" cx="1651.69" cy="-378" rx="102.88" ry="18"/>
<text text-anchor="middle" x="1651.69" y="-374.3" font-family="Times,serif" font-size="14.00">dra.func_80133FCC</text>
</a>
</g>
</g>
<!-- dra.func_80133FCC&#45;&gt;main.VSync -->
<g id="edge9" class="edge">
<title>dra.func_80133FCC&#45;&gt;main.VSync</title>
<path fill="none" stroke="black" d="M1662.43,-359.93C1682.17,-328.57 1724.3,-261.6 1747.52,-224.71"/>
<polygon fill="black" stroke="black" points="1750.62,-226.34 1752.98,-216.02 1744.7,-222.62 1750.62,-226.34"/>
<text text-anchor="middle" x="1657.43" y="-348.73" font-family="Times,serif" font-size="14.00">2</text>
</g>
<!-- np3.func_801CD658 -->
<g id="node11" class="node">
<title>np3.func_801CD658</title>
<g id="a_node11"><a xlink:href="np3.func_801CD658.svg" xlink:title="np3.func_801CD658">
<ellipse fill="green" stroke="black" cx="1876.69" cy="-378" rx="104.78" ry="18"/>
<text text-anchor="middle" x="1876.69" y="-374.3" font-family="Times,serif" font-size="14.00">np3.func_801CD658</text>
</a>
</g>
</g>
<!-- np3.func_801CD658&#45;&gt;main.VSync -->
<g id="edge10" class="edge">
<title>np3.func_801CD658&#45;&gt;main.VSync</title>
<path fill="none" stroke="black" d="M1865.86,-359.93C1845.94,-328.57 1803.43,-261.6 1780.01,-224.71"/>
<polygon fill="black" stroke="black" points="1782.81,-222.58 1774.49,-216.02 1776.9,-226.33 1782.81,-222.58"/>
<text text-anchor="middle" x="1860.86" y="-348.73" font-family="Times,serif" font-size="14.00">1</text>
</g>
<!-- ric.func_8015E380 -->
<g id="node12" class="node">
<title>ric.func_8015E380</title>
<g id="a_node12"><a xlink:href="ric.func_8015E380.svg" xlink:title="ric.func_8015E380">
<ellipse fill="green" stroke="black" cx="2097.69" cy="-378" rx="98.28" ry="18"/>
<text text-anchor="middle" x="2097.69" y="-374.3" font-family="Times,serif" font-size="14.00">ric.func_8015E380</text>
</a>
</g>
</g>
<!-- ric.func_8015E380&#45;&gt;main.VSync -->
<g id="edge11" class="edge">
<title>ric.func_8015E380&#45;&gt;main.VSync</title>
<path fill="none" stroke="black" d="M2067.17,-360.73C2005.95,-328.11 1868.36,-254.78 1801.54,-219.17"/>
<polygon fill="black" stroke="black" points="1803.06,-216.02 1792.59,-214.4 1799.77,-222.2 1803.06,-216.02"/>
<text text-anchor="middle" x="2062.17" y="-349.53" font-family="Times,serif" font-size="14.00">1</text>
</g>
<!-- sel.func_801B9C80 -->
<g id="node13" class="node">
<title>sel.func_801B9C80</title>
<g id="a_node13"><a xlink:href="sel.func_801B9C80.svg" xlink:title="sel.func_801B9C80">
<ellipse fill="red" stroke="black" cx="2313.69" cy="-378" rx="100.18" ry="18"/>
<text text-anchor="middle" x="2313.69" y="-374.3" font-family="Times,serif" font-size="14.00">sel.func_801B9C80</text>
</a>
</g>
</g>
<!-- sel.func_801B9C80&#45;&gt;main.VSync -->
<g id="edge12" class="edge">
<title>sel.func_801B9C80&#45;&gt;main.VSync</title>
<path fill="none" stroke="black" d="M2267.27,-361.98C2164.91,-328.85 1920.48,-249.74 1814.34,-215.39"/>
<polygon fill="black" stroke="black" points="1815.1,-211.96 1804.5,-212.21 1812.94,-218.62 1815.1,-211.96"/>
<text text-anchor="middle" x="2262.27" y="-350.78" font-family="Times,serif" font-size="14.00">5</text>
</g>
<!-- w_010.func_4A000_8017B060 -->
<g id="node14" class="node">
<title>w_010.func_4A000_8017B060</title>
<g id="a_node14"><a xlink:href="w_010.func_4A000_8017B060.svg" xlink:title="w_010.func_4A000_8017B060">
<ellipse fill="green" stroke="black" cx="2581.69" cy="-378" rx="149.47" ry="18"/>
<text text-anchor="middle" x="2581.69" y="-374.3" font-family="Times,serif" font-size="14.00">w_010.func_4A000_8017B060</text>
</a>
</g>
</g>
<!-- w_010.func_4A000_8017B060&#45;&gt;main.VSync -->
<g id="edge13" class="edge">
<title>w_010.func_4A000_8017B060&#45;&gt;main.VSync</title>
<path fill="none" stroke="black" d="M2512.65,-361.98C2355.08,-327.69 1971.15,-244.14 1823.19,-211.95"/>
<polygon fill="black" stroke="black" points="1823.89,-208.52 1813.37,-209.81 1822.4,-215.36 1823.89,-208.52"/>
<text text-anchor="middle" x="2507.65" y="-350.78" font-family="Times,serif" font-size="14.00">1</text>
</g>
<!-- w_018.func_82000_8017AAE0 -->
<g id="node15" class="node">
<title>w_018.func_82000_8017AAE0</title>
<g id="a_node15"><a xlink:href="w_018.func_82000_8017AAE0.svg" xlink:title="w_018.func_82000_8017AAE0">
<ellipse fill="green" stroke="black" cx="2899.69" cy="-378" rx="150.27" ry="18"/>
<text text-anchor="middle" x="2899.69" y="-374.3" font-family="Times,serif" font-size="14.00">w_018.func_82000_8017AAE0</text>
</a>
</g>
</g>
<!-- w_018.func_82000_8017AAE0&#45;&gt;main.VSync -->
<g id="edge14" class="edge">
<title>w_018.func_82000_8017AAE0&#45;&gt;main.VSync</title>
<path fill="none" stroke="black" d="M2812.44,-363.33C2593.21,-328.98 2023.04,-239.64 1829.26,-209.27"/>
<polygon fill="black" stroke="black" points="1829.64,-205.79 1819.22,-207.7 1828.56,-212.71 1829.64,-205.79"/>
<text text-anchor="middle" x="2807.44" y="-352.13" font-family="Times,serif" font-size="14.00">1</text>
</g>
<!-- w_025.func_B3000_8017AF14 -->
<g id="node16" class="node">
<title>w_025.func_B3000_8017AF14</title>
<g id="a_node16"><a xlink:href="w_025.func_B3000_8017AF14.svg" xlink:title="w_025.func_B3000_8017AF14">
<ellipse fill="red" stroke="black" cx="3217.69" cy="-378" rx="150.27" ry="18"/>
<text text-anchor="middle" x="3217.69" y="-374.3" font-family="Times,serif" font-size="14.00">w_025.func_B3000_8017AF14</text>
</a>
</g>
</g>
<!-- w_025.func_B3000_8017AF14&#45;&gt;main.VSync -->
<g id="edge15" class="edge">
<title>w_025.func_B3000_8017AF14&#45;&gt;main.VSync</title>
<path fill="none" stroke="black" d="M3116.89,-364.66C2839.05,-330.65 2067.27,-236.16 1832.4,-207.41"/>
<polygon fill="black" stroke="black" points="1832.63,-203.91 1822.28,-206.17 1831.78,-210.86 1832.63,-203.91"/>
<text text-anchor="middle" x="3111.89" y="-353.46" font-family="Times,serif" font-size="14.00">1</text>
</g>
<!-- w_027.func_C1000_8017B0F4 -->
<g id="node17" class="node">
<title>w_027.func_C1000_8017B0F4</title>
<g id="a_node17"><a xlink:href="w_027.func_C1000_8017B0F4.svg" xlink:title="w_027.func_C1000_8017B0F4">
<ellipse fill="green" stroke="black" cx="3536.69" cy="-378" rx="150.57" ry="18"/>
<text text-anchor="middle" x="3536.69" y="-374.3" font-family="Times,serif" font-size="14.00">w_027.func_C1000_8017B0F4</text>
</a>
</g>
</g>
<!-- w_027.func_C1000_8017B0F4&#45;&gt;main.VSync -->
<g id="edge16" class="edge">
<title>w_027.func_C1000_8017B0F4&#45;&gt;main.VSync</title>
<path fill="none" stroke="black" d="M3428.69,-365.43C3411.3,-363.59 3393.5,-361.73 3376.69,-360 2780.47,-298.57 2059.89,-227.92 1834.53,-205.91"/>
<polygon fill="black" stroke="black" points="1834.79,-202.42 1824.49,-204.93 1834.11,-209.38 1834.79,-202.42"/>
<text text-anchor="middle" x="3423.69" y="-354.23" font-family="Times,serif" font-size="14.00">1</text>
</g>
<!-- w_042.func_12A000_8017AB04 -->
<g id="node18" class="node">
<title>w_042.func_12A000_8017AB04</title>
<g id="a_node18"><a xlink:href="w_042.func_12A000_8017AB04.svg" xlink:title="w_042.func_12A000_8017AB04">
<ellipse fill="green" stroke="black" cx="3861.69" cy="-378" rx="155.97" ry="18"/>
<text text-anchor="middle" x="3861.69" y="-374.3" font-family="Times,serif" font-size="14.00">w_042.func_12A000_8017AB04</text>
</a>
</g>
</g>
<!-- w_042.func_12A000_8017AB04&#45;&gt;main.VSync -->
<g id="edge17" class="edge">
<title>w_042.func_12A000_8017AB04&#45;&gt;main.VSync</title>
<path fill="none" stroke="black" d="M3750.78,-365.27C3732.71,-363.45 3714.18,-361.63 3696.69,-360 2971.59,-292.46 2092.18,-224.14 1836.58,-204.55"/>
<polygon fill="black" stroke="black" points="1836.55,-201.04 1826.31,-203.77 1836.01,-208.02 1836.55,-201.04"/>
<text text-anchor="middle" x="3745.78" y="-354.07" font-family="Times,serif" font-size="14.00">1</text>
</g>
</g>
</svg>
