<?xml version="1.0" encoding="UTF-8" standalone="no"?>
<!DOCTYPE svg PUBLIC "-//W3C//DTD SVG 1.1//EN"
 "http://www.w3.org/Graphics/SVG/1.1/DTD/svg11.dtd">
<!-- Generated by graphviz version 2.43.0 (0)
 -->
<!-- Title: main.ScaleMatrix Pages: 1 -->
<svg width="2053pt" height="224pt"
 viewBox="0.00 0.00 2053.33 224.00" xmlns="http://www.w3.org/2000/svg" xmlns:xlink="http://www.w3.org/1999/xlink">
<g id="graph0" class="graph" transform="scale(1 1) rotate(0) translate(4 220)">
<title>main.ScaleMatrix</title>
<polygon fill="white" stroke="transparent" points="-4,4 -4,-220 2049.33,-220 2049.33,4 -4,4"/>
<!-- main.ScaleMatrix -->
<g id="node1" class="node">
<title>main.ScaleMatrix</title>
<ellipse fill="red" stroke="black" cx="1019.64" cy="-18" rx="92.88" ry="18"/>
<text text-anchor="middle" x="1019.64" y="-14.3" font-family="Times,serif" font-size="14.00">main.ScaleMatrix</text>
</g>
<!-- cen.func_8019BED4 -->
<g id="node2" class="node">
<title>cen.func_8019BED4</title>
<g id="a_node2"><a xlink:href="cen.func_8019BED4.svg" xlink:title="cen.func_8019BED4">
<ellipse fill="red" stroke="black" cx="104.64" cy="-198" rx="104.78" ry="18"/>
<text text-anchor="middle" x="104.64" y="-194.3" font-family="Times,serif" font-size="14.00">cen.func_8019BED4</text>
</a>
</g>
</g>
<!-- cen.func_8019BED4&#45;&gt;main.ScaleMatrix -->
<g id="edge1" class="edge">
<title>cen.func_8019BED4&#45;&gt;main.ScaleMatrix</title>
<path fill="none" stroke="black" d="M171.18,-184.06C338.01,-151.6 773.12,-66.96 946.64,-33.2"/>
<polygon fill="black" stroke="black" points="947.55,-36.59 956.7,-31.24 946.21,-29.72 947.55,-36.59"/>
<text text-anchor="middle" x="166.18" y="-172.86" font-family="Times,serif" font-size="14.00">1</text>
</g>
<!-- dre.func_801A2018 -->
<g id="node3" class="node">
<title>dre.func_801A2018</title>
<g id="a_node3"><a xlink:href="dre.func_801A2018.svg" xlink:title="dre.func_801A2018">
<ellipse fill="red" stroke="black" cx="327.64" cy="-198" rx="100.98" ry="18"/>
<text text-anchor="middle" x="327.64" y="-194.3" font-family="Times,serif" font-size="14.00">dre.func_801A2018</text>
</a>
</g>
</g>
<!-- dre.func_801A2018&#45;&gt;main.ScaleMatrix -->
<g id="edge2" class="edge">
<title>dre.func_801A2018&#45;&gt;main.ScaleMatrix</title>
<path fill="none" stroke="black" d="M382.52,-182.88C509.29,-150.27 821.92,-69.86 956.43,-35.26"/>
<polygon fill="black" stroke="black" points="957.37,-38.63 966.19,-32.75 955.63,-31.85 957.37,-38.63"/>
<text text-anchor="middle" x="377.52" y="-171.68" font-family="Times,serif" font-size="14.00">1</text>
</g>
<!-- no3.func_801D6880 -->
<g id="node4" class="node">
<title>no3.func_801D6880</title>
<g id="a_node4"><a xlink:href="no3.func_801D6880.svg" xlink:title="no3.func_801D6880">
<ellipse fill="red" stroke="black" cx="549.64" cy="-198" rx="103.18" ry="18"/>
<text text-anchor="middle" x="549.64" y="-194.3" font-family="Times,serif" font-size="14.00">no3.func_801D6880</text>
</a>
</g>
</g>
<!-- no3.func_801D6880&#45;&gt;main.ScaleMatrix -->
<g id="edge3" class="edge">
<title>no3.func_801D6880&#45;&gt;main.ScaleMatrix</title>
<path fill="none" stroke="black" d="M590.94,-181.36C677.26,-148.67 876.5,-73.21 969.78,-37.88"/>
<polygon fill="black" stroke="black" points="971.16,-41.1 979.27,-34.29 968.68,-34.56 971.16,-41.1"/>
<text text-anchor="middle" x="585.94" y="-170.16" font-family="Times,serif" font-size="14.00">1</text>
</g>
<!-- np3.func_801D1F38 -->
<g id="node5" class="node">
<title>np3.func_801D1F38</title>
<g id="a_node5"><a xlink:href="np3.func_801D1F38.svg" xlink:title="np3.func_801D1F38">
<ellipse fill="red" stroke="black" cx="775.64" cy="-198" rx="104.78" ry="18"/>
<text text-anchor="middle" x="775.64" y="-194.3" font-family="Times,serif" font-size="14.00">np3.func_801D1F38</text>
</a>
</g>
</g>
<!-- np3.func_801D1F38&#45;&gt;main.ScaleMatrix -->
<g id="edge4" class="edge">
<title>np3.func_801D1F38&#45;&gt;main.ScaleMatrix</title>
<path fill="none" stroke="black" d="M798.6,-180.25C842.67,-148.1 939.16,-77.71 988.8,-41.5"/>
<polygon fill="black" stroke="black" points="990.91,-44.29 996.92,-35.57 986.78,-38.64 990.91,-44.29"/>
<text text-anchor="middle" x="793.6" y="-169.05" font-family="Times,serif" font-size="14.00">1</text>
</g>
<!-- nz0.EntityLifeUpSpawn -->
<g id="node6" class="node">
<title>nz0.EntityLifeUpSpawn</title>
<g id="a_node6"><a xlink:href="nz0.EntityLifeUpSpawn.svg" xlink:title="nz0.EntityLifeUpSpawn">
<ellipse fill="red" stroke="black" cx="1019.64" cy="-198" rx="121.58" ry="18"/>
<text text-anchor="middle" x="1019.64" y="-194.3" font-family="Times,serif" font-size="14.00">nz0.EntityLifeUpSpawn</text>
</a>
</g>
</g>
<!-- nz0.EntityLifeUpSpawn&#45;&gt;main.ScaleMatrix -->
<g id="edge5" class="edge">
<title>nz0.EntityLifeUpSpawn&#45;&gt;main.ScaleMatrix</title>
<path fill="none" stroke="black" d="M1019.64,-179.93C1019.64,-148.97 1019.64,-83.3 1019.64,-46.13"/>
<polygon fill="black" stroke="black" points="1023.14,-46.02 1019.64,-36.02 1016.14,-46.02 1023.14,-46.02"/>
<text text-anchor="middle" x="1014.64" y="-168.73" font-family="Times,serif" font-size="14.00">1</text>
</g>
<!-- nz0.func_801C9930 -->
<g id="node7" class="node">
<title>nz0.func_801C9930</title>
<g id="a_node7"><a xlink:href="nz0.func_801C9930.svg" xlink:title="nz0.func_801C9930">
<ellipse fill="red" stroke="black" cx="1261.64" cy="-198" rx="102.88" ry="18"/>
<text text-anchor="middle" x="1261.64" y="-194.3" font-family="Times,serif" font-size="14.00">nz0.func_801C9930</text>
</a>
</g>
</g>
<!-- nz0.func_801C9930&#45;&gt;main.ScaleMatrix -->
<g id="edge6" class="edge">
<title>nz0.func_801C9930&#45;&gt;main.ScaleMatrix</title>
<path fill="none" stroke="black" d="M1238.87,-180.25C1195.16,-148.1 1099.46,-77.71 1050.23,-41.5"/>
<polygon fill="black" stroke="black" points="1052.3,-38.68 1042.17,-35.57 1048.15,-44.32 1052.3,-38.68"/>
<text text-anchor="middle" x="1233.87" y="-169.05" font-family="Times,serif" font-size="14.00">1</text>
</g>
<!-- rwrp.func_801951F0 -->
<g id="node8" class="node">
<title>rwrp.func_801951F0</title>
<g id="a_node8"><a xlink:href="rwrp.func_801951F0.svg" xlink:title="rwrp.func_801951F0">
<ellipse fill="red" stroke="black" cx="1490.64" cy="-198" rx="107.78" ry="18"/>
<text text-anchor="middle" x="1490.64" y="-194.3" font-family="Times,serif" font-size="14.00">rwrp.func_801951F0</text>
</a>
</g>
</g>
<!-- rwrp.func_801951F0&#45;&gt;main.ScaleMatrix -->
<g id="edge7" class="edge">
<title>rwrp.func_801951F0&#45;&gt;main.ScaleMatrix</title>
<path fill="none" stroke="black" d="M1449.26,-181.36C1362.75,-148.67 1163.09,-73.21 1069.61,-37.88"/>
<polygon fill="black" stroke="black" points="1070.69,-34.55 1060.09,-34.29 1068.21,-41.1 1070.69,-34.55"/>
<text text-anchor="middle" x="1444.26" y="-170.16" font-family="Times,serif" font-size="14.00">1</text>
</g>
<!-- st0.func_801BD0C0 -->
<g id="node9" class="node">
<title>st0.func_801BD0C0</title>
<g id="a_node9"><a xlink:href="st0.func_801BD0C0.svg" xlink:title="st0.func_801BD0C0">
<ellipse fill="red" stroke="black" cx="1719.64" cy="-198" rx="102.88" ry="18"/>
<text text-anchor="middle" x="1719.64" y="-194.3" font-family="Times,serif" font-size="14.00">st0.func_801BD0C0</text>
</a>
</g>
</g>
<!-- st0.func_801BD0C0&#45;&gt;main.ScaleMatrix -->
<g id="edge8" class="edge">
<title>st0.func_801BD0C0&#45;&gt;main.ScaleMatrix</title>
<path fill="none" stroke="black" d="M1663.83,-182.81C1535.38,-150.15 1219.44,-69.81 1083.51,-35.24"/>
<polygon fill="black" stroke="black" points="1084.21,-31.81 1073.65,-32.73 1082.48,-38.59 1084.21,-31.81"/>
<text text-anchor="middle" x="1658.83" y="-171.61" font-family="Times,serif" font-size="14.00">1</text>
</g>
<!-- wrp.func_80193270 -->
<g id="node10" class="node">
<title>wrp.func_80193270</title>
<g id="a_node10"><a xlink:href="wrp.func_80193270.svg" xlink:title="wrp.func_80193270">
<ellipse fill="red" stroke="black" cx="1942.64" cy="-198" rx="102.88" ry="18"/>
<text text-anchor="middle" x="1942.64" y="-194.3" font-family="Times,serif" font-size="14.00">wrp.func_80193270</text>
</a>
</g>
</g>
<!-- wrp.func_80193270&#45;&gt;main.ScaleMatrix -->
<g id="edge9" class="edge">
<title>wrp.func_80193270&#45;&gt;main.ScaleMatrix</title>
<path fill="none" stroke="black" d="M1876.26,-184.2C1708.39,-151.83 1267.88,-66.87 1092.86,-33.12"/>
<polygon fill="black" stroke="black" points="1093.45,-29.67 1082.97,-31.21 1092.12,-36.54 1093.45,-29.67"/>
<text text-anchor="middle" x="1871.26" y="-173" font-family="Times,serif" font-size="14.00">1</text>
</g>
</g>
</svg>
