<?xml version="1.0" encoding="UTF-8" standalone="no"?>
<!DOCTYPE svg PUBLIC "-//W3C//DTD SVG 1.1//EN"
 "http://www.w3.org/Graphics/SVG/1.1/DTD/svg11.dtd">
<!-- Generated by graphviz version 2.43.0 (0)
 -->
<!-- Title: main.CdInit Pages: 1 -->
<svg width="780pt" height="224pt"
 viewBox="0.00 0.00 780.09 224.00" xmlns="http://www.w3.org/2000/svg" xmlns:xlink="http://www.w3.org/1999/xlink">
<g id="graph0" class="graph" transform="scale(1 1) rotate(0) translate(4 220)">
<title>main.CdInit</title>
<polygon fill="white" stroke="transparent" points="-4,4 -4,-220 776.09,-220 776.09,4 -4,4"/>
<!-- main.CdInit -->
<g id="node1" class="node">
<title>main.CdInit</title>
<ellipse fill="red" stroke="black" cx="398.05" cy="-198" rx="65.79" ry="18"/>
<text text-anchor="middle" x="398.05" y="-194.3" font-family="Times,serif" font-size="14.00">main.CdInit</text>
</g>
<!-- CdReset -->
<g id="node2" class="node">
<title>CdReset</title>
<g id="a_node2"><a xlink:href="CdReset.svg" xlink:title="CdReset">
<ellipse fill="lightblue" stroke="black" cx="50.05" cy="-18" rx="50.09" ry="18"/>
<text text-anchor="middle" x="50.05" y="-14.3" font-family="Times,serif" font-size="14.00">CdReset</text>
</a>
</g>
</g>
<!-- main.CdInit&#45;&gt;CdReset -->
<g id="edge1" class="edge">
<title>main.CdInit&#45;&gt;CdReset</title>
<path fill="none" stroke="black" d="M368.38,-181.82C304.95,-149.38 156.33,-73.36 86.95,-37.87"/>
<polygon fill="black" stroke="black" points="88.19,-34.58 77.7,-33.14 85.01,-40.81 88.19,-34.58"/>
<text text-anchor="middle" x="72.7" y="-36.94" font-family="Times,serif" font-size="14.00">1</text>
</g>
<!-- CdSyncCallback -->
<g id="node3" class="node">
<title>CdSyncCallback</title>
<g id="a_node3"><a xlink:href="CdSyncCallback.svg" xlink:title="CdSyncCallback">
<ellipse fill="lightblue" stroke="black" cx="203.05" cy="-18" rx="85.29" ry="18"/>
<text text-anchor="middle" x="203.05" y="-14.3" font-family="Times,serif" font-size="14.00">CdSyncCallback</text>
</a>
</g>
</g>
<!-- main.CdInit&#45;&gt;CdSyncCallback -->
<g id="edge2" class="edge">
<title>main.CdInit&#45;&gt;CdSyncCallback</title>
<path fill="none" stroke="black" d="M380.05,-180.57C345.31,-148.86 268.91,-79.12 228.8,-42.51"/>
<polygon fill="black" stroke="black" points="231.03,-39.8 221.28,-35.65 226.31,-44.97 231.03,-39.8"/>
<text text-anchor="middle" x="216.28" y="-39.45" font-family="Times,serif" font-size="14.00">1</text>
</g>
<!-- CdReadyCallback -->
<g id="node4" class="node">
<title>CdReadyCallback</title>
<g id="a_node4"><a xlink:href="CdReadyCallback.svg" xlink:title="CdReadyCallback">
<ellipse fill="lightblue" stroke="black" cx="398.05" cy="-18" rx="91.78" ry="18"/>
<text text-anchor="middle" x="398.05" y="-14.3" font-family="Times,serif" font-size="14.00">CdReadyCallback</text>
</a>
</g>
</g>
<!-- main.CdInit&#45;&gt;CdReadyCallback -->
<g id="edge3" class="edge">
<title>main.CdInit&#45;&gt;CdReadyCallback</title>
<path fill="none" stroke="black" d="M398.05,-179.93C398.05,-148.97 398.05,-83.3 398.05,-46.13"/>
<polygon fill="black" stroke="black" points="401.55,-46.02 398.05,-36.02 394.55,-46.02 401.55,-46.02"/>
<text text-anchor="middle" x="393.05" y="-39.82" font-family="Times,serif" font-size="14.00">1</text>
</g>
<!-- CdReadCallback -->
<g id="node5" class="node">
<title>CdReadCallback</title>
<g id="a_node5"><a xlink:href="CdReadCallback.svg" xlink:title="CdReadCallback">
<ellipse fill="lightblue" stroke="black" cx="594.05" cy="-18" rx="86.38" ry="18"/>
<text text-anchor="middle" x="594.05" y="-14.3" font-family="Times,serif" font-size="14.00">CdReadCallback</text>
</a>
</g>
</g>
<!-- main.CdInit&#45;&gt;CdReadCallback -->
<g id="edge4" class="edge">
<title>main.CdInit&#45;&gt;CdReadCallback</title>
<path fill="none" stroke="black" d="M416.13,-180.57C451.05,-148.86 527.84,-79.12 568.16,-42.51"/>
<polygon fill="black" stroke="black" points="570.67,-44.96 575.72,-35.65 565.96,-39.78 570.67,-44.96"/>
<text text-anchor="middle" x="570.72" y="-39.45" font-family="Times,serif" font-size="14.00">1</text>
</g>
<!-- printf -->
<g id="node6" class="node">
<title>printf</title>
<g id="a_node6"><a xlink:href="printf.svg" xlink:title="printf">
<ellipse fill="lightblue" stroke="black" cx="735.05" cy="-18" rx="37.09" ry="18"/>
<text text-anchor="middle" x="735.05" y="-14.3" font-family="Times,serif" font-size="14.00">printf</text>
</a>
</g>
</g>
<!-- main.CdInit&#45;&gt;printf -->
<g id="edge5" class="edge">
<title>main.CdInit&#45;&gt;printf</title>
<path fill="none" stroke="black" d="M427.07,-181.67C489.31,-148.8 635.31,-71.68 701.44,-36.75"/>
<polygon fill="black" stroke="black" points="703.39,-39.68 710.6,-31.91 700.12,-33.49 703.39,-39.68"/>
<text text-anchor="middle" x="705.6" y="-35.71" font-family="Times,serif" font-size="14.00">1</text>
</g>
</g>
</svg>
