<?xml version="1.0" encoding="UTF-8" standalone="no"?>
<!DOCTYPE svg PUBLIC "-//W3C//DTD SVG 1.1//EN"
 "http://www.w3.org/Graphics/SVG/1.1/DTD/svg11.dtd">
<!-- Generated by graphviz version 2.43.0 (0)
 -->
<!-- Title: MemcardFormat Pages: 1 -->
<svg width="712pt" height="218pt"
 viewBox="0.00 0.00 711.84 218.00" xmlns="http://www.w3.org/2000/svg" xmlns:xlink="http://www.w3.org/1999/xlink">
<g id="graph0" class="graph" transform="scale(1 1) rotate(0) translate(4 214)">
<title>MemcardFormat</title>
<polygon fill="white" stroke="transparent" points="-4,4 -4,-214 707.84,-214 707.84,4 -4,4"/>
<!-- dra/MemcardFormat -->
<g id="node1" class="node">
<title>dra/MemcardFormat</title>
<ellipse fill="red" stroke="black" cx="331.44" cy="-105" rx="106.68" ry="18"/>
<text text-anchor="middle" x="331.44" y="-101.3" font-family="Times,serif" font-size="14.00">dra/MemcardFormat</text>
</g>
<!-- dra/sprintf -->
<g id="node2" class="node">
<title>dra/sprintf</title>
<g id="a_node2"><a xlink:href="sprintf.svg" xlink:title="dra/sprintf">
<ellipse fill="red" stroke="black" cx="60.44" cy="-18" rx="60.39" ry="18"/>
<text text-anchor="middle" x="60.44" y="-14.3" font-family="Times,serif" font-size="14.00">dra/sprintf</text>
</a>
</g>
</g>
<!-- dra/MemcardFormat&#45;&gt;dra/sprintf -->
<g id="edge1" class="edge">
<title>dra/MemcardFormat&#45;&gt;dra/sprintf</title>
<path fill="none" stroke="black" d="M283.31,-88.9C234.64,-73.64 159.77,-50.15 110.45,-34.68"/>
<polygon fill="black" stroke="black" points="111.22,-31.26 100.63,-31.61 109.13,-37.94 111.22,-31.26"/>
<text text-anchor="middle" x="217.44" y="-57.8" font-family="Times,serif" font-size="14.00">1</text>
</g>
<!-- dra/func_800E928C -->
<g id="node3" class="node">
<title>dra/func_800E928C</title>
<g id="a_node3"><a xlink:href="func_800E928C.svg" xlink:title="dra/func_800E928C">
<ellipse fill="green" stroke="black" cx="241.44" cy="-18" rx="102.88" ry="18"/>
<text text-anchor="middle" x="241.44" y="-14.3" font-family="Times,serif" font-size="14.00">dra/func_800E928C</text>
</a>
</g>
</g>
<!-- dra/MemcardFormat&#45;&gt;dra/func_800E928C -->
<g id="edge2" class="edge">
<title>dra/MemcardFormat&#45;&gt;dra/func_800E928C</title>
<path fill="none" stroke="black" d="M313.66,-87.21C300.23,-74.52 281.61,-56.93 266.64,-42.79"/>
<polygon fill="black" stroke="black" points="268.86,-40.08 259.19,-35.76 264.06,-45.17 268.86,-40.08"/>
<text text-anchor="middle" x="297.44" y="-57.8" font-family="Times,serif" font-size="14.00">1</text>
</g>
<!-- dra/format -->
<g id="node4" class="node">
<title>dra/format</title>
<g id="a_node4"><a xlink:href="format.svg" xlink:title="dra/format">
<ellipse fill="lightblue" stroke="black" cx="422.44" cy="-18" rx="60.39" ry="18"/>
<text text-anchor="middle" x="422.44" y="-14.3" font-family="Times,serif" font-size="14.00">dra/format</text>
</a>
</g>
</g>
<!-- dra/MemcardFormat&#45;&gt;dra/format -->
<g id="edge3" class="edge">
<title>dra/MemcardFormat&#45;&gt;dra/format</title>
<path fill="none" stroke="black" d="M349.42,-87.21C363.1,-74.43 382.08,-56.7 397.27,-42.52"/>
<polygon fill="black" stroke="black" points="399.89,-44.85 404.81,-35.47 395.12,-39.74 399.89,-44.85"/>
<text text-anchor="middle" x="387.44" y="-57.8" font-family="Times,serif" font-size="14.00">1</text>
</g>
<!-- dra/func_800E9208 -->
<g id="node5" class="node">
<title>dra/func_800E9208</title>
<g id="a_node5"><a xlink:href="func_800E9208.svg" xlink:title="dra/func_800E9208">
<ellipse fill="green" stroke="black" cx="602.44" cy="-18" rx="101.28" ry="18"/>
<text text-anchor="middle" x="602.44" y="-14.3" font-family="Times,serif" font-size="14.00">dra/func_800E9208</text>
</a>
</g>
</g>
<!-- dra/MemcardFormat&#45;&gt;dra/func_800E9208 -->
<g id="edge4" class="edge">
<title>dra/MemcardFormat&#45;&gt;dra/func_800E9208</title>
<path fill="none" stroke="black" d="M379.58,-88.9C425.92,-74.37 496.03,-52.38 545.21,-36.95"/>
<polygon fill="black" stroke="black" points="546.26,-40.29 554.76,-33.96 544.17,-33.61 546.26,-40.29"/>
<text text-anchor="middle" x="488.44" y="-57.8" font-family="Times,serif" font-size="14.00">1</text>
</g>
<!-- sel/func_801B3F94 -->
<g id="node6" class="node">
<title>sel/func_801B3F94</title>
<g id="a_node6"><a xlink:href="func_801B3F94.svg" xlink:title="sel/func_801B3F94">
<ellipse fill="red" stroke="black" cx="560.44" cy="-192" rx="99.38" ry="18"/>
<text text-anchor="middle" x="560.44" y="-188.3" font-family="Times,serif" font-size="14.00">sel/func_801B3F94</text>
</a>
</g>
</g>
<!-- sel/MemcardFormat -->
<g id="node7" class="node">
<title>sel/MemcardFormat</title>
<ellipse fill="none" stroke="black" cx="560.44" cy="-105" rx="104.78" ry="18"/>
<text text-anchor="middle" x="560.44" y="-101.3" font-family="Times,serif" font-size="14.00">sel/MemcardFormat</text>
</g>
<!-- sel/func_801B3F94&#45;&gt;sel/MemcardFormat -->
<g id="edge5" class="edge">
<title>sel/func_801B3F94&#45;&gt;sel/MemcardFormat</title>
<path fill="none" stroke="black" d="M560.44,-173.8C560.44,-162.16 560.44,-146.55 560.44,-133.24"/>
<polygon fill="black" stroke="black" points="563.94,-133.18 560.44,-123.18 556.94,-133.18 563.94,-133.18"/>
<text text-anchor="middle" x="565.44" y="-144.8" font-family="Times,serif" font-size="14.00">1</text>
</g>
<!-- dra/func_80102E04 -->
<g id="node8" class="node">
<title>dra/func_80102E04</title>
<g id="a_node8"><a xlink:href="func_80102E04.svg" xlink:title="dra/func_80102E04">
<ellipse fill="green" stroke="black" cx="331.44" cy="-192" rx="101.28" ry="18"/>
<text text-anchor="middle" x="331.44" y="-188.3" font-family="Times,serif" font-size="14.00">dra/func_80102E04</text>
</a>
</g>
</g>
<!-- dra/func_80102E04&#45;&gt;dra/MemcardFormat -->
<g id="edge6" class="edge">
<title>dra/func_80102E04&#45;&gt;dra/MemcardFormat</title>
<path fill="none" stroke="black" d="M331.44,-173.8C331.44,-162.16 331.44,-146.55 331.44,-133.24"/>
<polygon fill="black" stroke="black" points="334.94,-133.18 331.44,-123.18 327.94,-133.18 334.94,-133.18"/>
<text text-anchor="middle" x="336.44" y="-144.8" font-family="Times,serif" font-size="14.00">1</text>
</g>
</g>
</svg>
