<?xml version="1.0" encoding="UTF-8" standalone="no"?>
<!DOCTYPE svg PUBLIC "-//W3C//DTD SVG 1.1//EN"
 "http://www.w3.org/Graphics/SVG/1.1/DTD/svg11.dtd">
<!-- Generated by graphviz version 2.43.0 (0)
 -->
<!-- Title: no3.CollectLifeVessel Pages: 1 -->
<svg width="569pt" height="218pt"
 viewBox="0.00 0.00 568.54 218.00" xmlns="http://www.w3.org/2000/svg" xmlns:xlink="http://www.w3.org/1999/xlink">
<g id="graph0" class="graph" transform="scale(1 1) rotate(0) translate(4 214)">
<title>no3.CollectLifeVessel</title>
<polygon fill="white" stroke="transparent" points="-4,4 -4,-214 564.54,-214 564.54,4 -4,4"/>
<!-- no3.CollectLifeVessel -->
<g id="node1" class="node">
<title>no3.CollectLifeVessel</title>
<ellipse fill="green" stroke="black" cx="248.34" cy="-105" rx="109.68" ry="18"/>
<text text-anchor="middle" x="248.34" y="-101.3" font-family="Times,serif" font-size="14.00">no3.CollectLifeVessel</text>
</g>
<!-- dra.PlaySfx -->
<g id="node2" class="node">
<title>dra.PlaySfx</title>
<g id="a_node2"><a xlink:href="dra.PlaySfx.svg" xlink:title="dra.PlaySfx">
<ellipse fill="green" stroke="black" cx="64.34" cy="-18" rx="64.19" ry="18"/>
<text text-anchor="middle" x="64.34" y="-14.3" font-family="Times,serif" font-size="14.00">dra.PlaySfx</text>
</a>
</g>
</g>
<!-- no3.CollectLifeVessel&#45;&gt;dra.PlaySfx -->
<g id="edge1" class="edge">
<title>no3.CollectLifeVessel&#45;&gt;dra.PlaySfx</title>
<path fill="none" stroke="black" d="M213.3,-87.81C182.55,-73.61 137.81,-52.94 105.4,-37.96"/>
<polygon fill="black" stroke="black" points="106.73,-34.72 96.18,-33.71 103.79,-41.08 106.73,-34.72"/>
<text text-anchor="middle" x="173.34" y="-57.8" font-family="Times,serif" font-size="14.00">1</text>
</g>
<!-- dra.func_800FE044 -->
<g id="node3" class="node">
<title>dra.func_800FE044</title>
<g id="a_node3"><a xlink:href="dra.func_800FE044.svg" xlink:title="dra.func_800FE044">
<ellipse fill="green" stroke="black" cx="248.34" cy="-18" rx="102.08" ry="18"/>
<text text-anchor="middle" x="248.34" y="-14.3" font-family="Times,serif" font-size="14.00">dra.func_800FE044</text>
</a>
</g>
</g>
<!-- no3.CollectLifeVessel&#45;&gt;dra.func_800FE044 -->
<g id="edge2" class="edge">
<title>no3.CollectLifeVessel&#45;&gt;dra.func_800FE044</title>
<path fill="none" stroke="black" d="M248.34,-86.8C248.34,-75.16 248.34,-59.55 248.34,-46.24"/>
<polygon fill="black" stroke="black" points="251.84,-46.18 248.34,-36.18 244.84,-46.18 251.84,-46.18"/>
<text text-anchor="middle" x="253.34" y="-57.8" font-family="Times,serif" font-size="14.00">1</text>
</g>
<!-- no3.DestroyEntity -->
<g id="node4" class="node">
<title>no3.DestroyEntity</title>
<g id="a_node4"><a xlink:href="no3.DestroyEntity.svg" xlink:title="no3.DestroyEntity">
<ellipse fill="green" stroke="black" cx="464.34" cy="-18" rx="96.38" ry="18"/>
<text text-anchor="middle" x="464.34" y="-14.3" font-family="Times,serif" font-size="14.00">no3.DestroyEntity</text>
</a>
</g>
</g>
<!-- no3.CollectLifeVessel&#45;&gt;no3.DestroyEntity -->
<g id="edge3" class="edge">
<title>no3.CollectLifeVessel&#45;&gt;no3.DestroyEntity</title>
<path fill="none" stroke="black" d="M288.47,-88.21C324.34,-74.09 377.03,-53.36 415.38,-38.27"/>
<polygon fill="black" stroke="black" points="416.78,-41.48 424.8,-34.56 414.22,-34.97 416.78,-41.48"/>
<text text-anchor="middle" x="373.34" y="-57.8" font-family="Times,serif" font-size="14.00">1</text>
</g>
<!-- no3.EntityPrizeDrop -->
<g id="node5" class="node">
<title>no3.EntityPrizeDrop</title>
<g id="a_node5"><a xlink:href="no3.EntityPrizeDrop.svg" xlink:title="no3.EntityPrizeDrop">
<ellipse fill="green" stroke="black" cx="248.34" cy="-192" rx="106.68" ry="18"/>
<text text-anchor="middle" x="248.34" y="-188.3" font-family="Times,serif" font-size="14.00">no3.EntityPrizeDrop</text>
</a>
</g>
</g>
<!-- no3.EntityPrizeDrop&#45;&gt;no3.CollectLifeVessel -->
<g id="edge4" class="edge">
<title>no3.EntityPrizeDrop&#45;&gt;no3.CollectLifeVessel</title>
<path fill="none" stroke="black" d="M248.34,-173.8C248.34,-162.16 248.34,-146.55 248.34,-133.24"/>
<polygon fill="black" stroke="black" points="251.84,-133.18 248.34,-123.18 244.84,-133.18 251.84,-133.18"/>
<text text-anchor="middle" x="253.34" y="-144.8" font-family="Times,serif" font-size="14.00">1</text>
</g>
</g>
</svg>
