<?xml version="1.0" encoding="UTF-8" standalone="no"?>
<!DOCTYPE svg PUBLIC "-//W3C//DTD SVG 1.1//EN"
 "http://www.w3.org/Graphics/SVG/1.1/DTD/svg11.dtd">
<!-- Generated by graphviz version 2.43.0 (0)
 -->
<!-- Title: no3.func_801D2D40 Pages: 1 -->
<svg width="838pt" height="404pt"
 viewBox="0.00 0.00 837.84 404.00" xmlns="http://www.w3.org/2000/svg" xmlns:xlink="http://www.w3.org/1999/xlink">
<g id="graph0" class="graph" transform="scale(1 1) rotate(0) translate(4 400)">
<title>no3.func_801D2D40</title>
<polygon fill="white" stroke="transparent" points="-4,4 -4,-400 833.84,-400 833.84,4 -4,4"/>
<!-- no3.func_801D2D40 -->
<g id="node1" class="node">
<title>no3.func_801D2D40</title>
<ellipse fill="green" stroke="black" cx="416.49" cy="-198" rx="104.78" ry="18"/>
<text text-anchor="middle" x="416.49" y="-194.3" font-family="Times,serif" font-size="14.00">no3.func_801D2D40</text>
</g>
<!-- dra.CheckCollision -->
<g id="node2" class="node">
<title>dra.CheckCollision</title>
<g id="a_node2"><a xlink:href="dra.CheckCollision.svg" xlink:title="dra.CheckCollision">
<ellipse fill="green" stroke="black" cx="97.49" cy="-18" rx="97.48" ry="18"/>
<text text-anchor="middle" x="97.49" y="-14.3" font-family="Times,serif" font-size="14.00">dra.CheckCollision</text>
</a>
</g>
</g>
<!-- no3.func_801D2D40&#45;&gt;dra.CheckCollision -->
<g id="edge1" class="edge">
<title>no3.func_801D2D40&#45;&gt;dra.CheckCollision</title>
<path fill="none" stroke="black" d="M387.05,-180.57C329.13,-148.25 200.4,-76.42 135.89,-40.43"/>
<polygon fill="black" stroke="black" points="137.3,-37.2 126.86,-35.39 133.89,-43.32 137.3,-37.2"/>
<text text-anchor="middle" x="121.86" y="-39.19" font-family="Times,serif" font-size="14.00">1</text>
</g>
<!-- no3.AllocEntity -->
<g id="node3" class="node">
<title>no3.AllocEntity</title>
<g id="a_node3"><a xlink:href="no3.AllocEntity.svg" xlink:title="no3.AllocEntity">
<ellipse fill="green" stroke="black" cx="294.49" cy="-18" rx="81.79" ry="18"/>
<text text-anchor="middle" x="294.49" y="-14.3" font-family="Times,serif" font-size="14.00">no3.AllocEntity</text>
</a>
</g>
</g>
<!-- no3.func_801D2D40&#45;&gt;no3.AllocEntity -->
<g id="edge2" class="edge">
<title>no3.func_801D2D40&#45;&gt;no3.AllocEntity</title>
<path fill="none" stroke="black" d="M404.79,-179.93C383.3,-148.57 337.4,-81.6 312.11,-44.71"/>
<polygon fill="black" stroke="black" points="314.69,-42.29 306.15,-36.02 308.92,-46.24 314.69,-42.29"/>
<text text-anchor="middle" x="301.15" y="-39.82" font-family="Times,serif" font-size="14.00">1</text>
</g>
<!-- no3.CreateEntityFromEntity -->
<g id="node4" class="node">
<title>no3.CreateEntityFromEntity</title>
<g id="a_node4"><a xlink:href="no3.CreateEntityFromEntity.svg" xlink:title="no3.CreateEntityFromEntity">
<ellipse fill="green" stroke="black" cx="538.49" cy="-18" rx="144.07" ry="18"/>
<text text-anchor="middle" x="538.49" y="-14.3" font-family="Times,serif" font-size="14.00">no3.CreateEntityFromEntity</text>
</a>
</g>
</g>
<!-- no3.func_801D2D40&#45;&gt;no3.CreateEntityFromEntity -->
<g id="edge3" class="edge">
<title>no3.func_801D2D40&#45;&gt;no3.CreateEntityFromEntity</title>
<path fill="none" stroke="black" d="M428.19,-179.93C449.69,-148.57 495.58,-81.6 520.87,-44.71"/>
<polygon fill="black" stroke="black" points="524.06,-46.24 526.83,-36.02 518.29,-42.29 524.06,-46.24"/>
<text text-anchor="middle" x="521.83" y="-39.82" font-family="Times,serif" font-size="14.00">1</text>
</g>
<!-- dra.PlaySfx -->
<g id="node5" class="node">
<title>dra.PlaySfx</title>
<g id="a_node5"><a xlink:href="dra.PlaySfx.svg" xlink:title="dra.PlaySfx">
<ellipse fill="green" stroke="black" cx="765.49" cy="-18" rx="64.19" ry="18"/>
<text text-anchor="middle" x="765.49" y="-14.3" font-family="Times,serif" font-size="14.00">dra.PlaySfx</text>
</a>
</g>
</g>
<!-- no3.func_801D2D40&#45;&gt;dra.PlaySfx -->
<g id="edge4" class="edge">
<title>no3.func_801D2D40&#45;&gt;dra.PlaySfx</title>
<path fill="none" stroke="black" d="M448.39,-180.73C512.51,-148.03 656.85,-74.41 726.47,-38.9"/>
<polygon fill="black" stroke="black" points="728.46,-41.81 735.78,-34.15 725.28,-35.58 728.46,-41.81"/>
<text text-anchor="middle" x="730.78" y="-37.95" font-family="Times,serif" font-size="14.00">1</text>
</g>
<!-- no3.EntityMerman3 -->
<g id="node6" class="node">
<title>no3.EntityMerman3</title>
<g id="a_node6"><a xlink:href="no3.EntityMerman3.svg" xlink:title="no3.EntityMerman3">
<ellipse fill="red" stroke="black" cx="306.49" cy="-378" rx="104.78" ry="18"/>
<text text-anchor="middle" x="306.49" y="-374.3" font-family="Times,serif" font-size="14.00">no3.EntityMerman3</text>
</a>
</g>
</g>
<!-- no3.EntityMerman3&#45;&gt;no3.func_801D2D40 -->
<g id="edge5" class="edge">
<title>no3.EntityMerman3&#45;&gt;no3.func_801D2D40</title>
<path fill="none" stroke="black" d="M317.04,-359.93C336.42,-328.57 377.8,-261.6 400.6,-224.71"/>
<polygon fill="black" stroke="black" points="403.7,-226.36 405.98,-216.02 397.74,-222.68 403.7,-226.36"/>
<text text-anchor="middle" x="312.04" y="-348.73" font-family="Times,serif" font-size="14.00">5</text>
</g>
<!-- no3.EntityMerman -->
<g id="node7" class="node">
<title>no3.EntityMerman</title>
<g id="a_node7"><a xlink:href="no3.EntityMerman.svg" xlink:title="no3.EntityMerman">
<ellipse fill="red" stroke="black" cx="527.49" cy="-378" rx="98.58" ry="18"/>
<text text-anchor="middle" x="527.49" y="-374.3" font-family="Times,serif" font-size="14.00">no3.EntityMerman</text>
</a>
</g>
</g>
<!-- no3.EntityMerman&#45;&gt;no3.func_801D2D40 -->
<g id="edge6" class="edge">
<title>no3.EntityMerman&#45;&gt;no3.func_801D2D40</title>
<path fill="none" stroke="black" d="M516.85,-359.93C497.29,-328.57 455.53,-261.6 432.52,-224.71"/>
<polygon fill="black" stroke="black" points="435.36,-222.65 427.1,-216.02 429.42,-226.35 435.36,-222.65"/>
<text text-anchor="middle" x="511.85" y="-348.73" font-family="Times,serif" font-size="14.00">4</text>
</g>
</g>
</svg>
