<?xml version="1.0" encoding="UTF-8" standalone="no"?>
<!DOCTYPE svg PUBLIC "-//W3C//DTD SVG 1.1//EN"
 "http://www.w3.org/Graphics/SVG/1.1/DTD/svg11.dtd">
<!-- Generated by graphviz version 2.43.0 (0)
 -->
<!-- Title: no3.PreventEntityFromRespawning Pages: 1 -->
<svg width="578pt" height="224pt"
 viewBox="0.00 0.00 577.58 224.00" xmlns="http://www.w3.org/2000/svg" xmlns:xlink="http://www.w3.org/1999/xlink">
<g id="graph0" class="graph" transform="scale(1 1) rotate(0) translate(4 220)">
<title>no3.PreventEntityFromRespawning</title>
<polygon fill="white" stroke="transparent" points="-4,4 -4,-220 573.58,-220 573.58,4 -4,4"/>
<!-- no3.PreventEntityFromRespawning -->
<g id="node1" class="node">
<title>no3.PreventEntityFromRespawning</title>
<ellipse fill="green" stroke="black" cx="241.89" cy="-18" rx="177.37" ry="18"/>
<text text-anchor="middle" x="241.89" y="-14.3" font-family="Times,serif" font-size="14.00">no3.PreventEntityFromRespawning</text>
</g>
<!-- no3.TestCollisions -->
<g id="node2" class="node">
<title>no3.TestCollisions</title>
<g id="a_node2"><a xlink:href="no3.TestCollisions.svg" xlink:title="no3.TestCollisions">
<ellipse fill="red" stroke="black" cx="94.89" cy="-198" rx="94.78" ry="18"/>
<text text-anchor="middle" x="94.89" y="-194.3" font-family="Times,serif" font-size="14.00">no3.TestCollisions</text>
</a>
</g>
</g>
<!-- no3.TestCollisions&#45;&gt;no3.PreventEntityFromRespawning -->
<g id="edge1" class="edge">
<title>no3.TestCollisions&#45;&gt;no3.PreventEntityFromRespawning</title>
<path fill="none" stroke="black" d="M108.99,-179.93C135.11,-148.3 191.13,-80.46 221.43,-43.78"/>
<polygon fill="black" stroke="black" points="224.17,-45.95 227.84,-36.02 218.77,-41.5 224.17,-45.95"/>
<text text-anchor="middle" x="103.99" y="-168.73" font-family="Times,serif" font-size="14.00">1</text>
</g>
<!-- no3.ReplaceBreakableWithItemDrop -->
<g id="node3" class="node">
<title>no3.ReplaceBreakableWithItemDrop</title>
<g id="a_node3"><a xlink:href="no3.ReplaceBreakableWithItemDrop.svg" xlink:title="no3.ReplaceBreakableWithItemDrop">
<ellipse fill="green" stroke="black" cx="388.89" cy="-198" rx="180.87" ry="18"/>
<text text-anchor="middle" x="388.89" y="-194.3" font-family="Times,serif" font-size="14.00">no3.ReplaceBreakableWithItemDrop</text>
</a>
</g>
</g>
<!-- no3.ReplaceBreakableWithItemDrop&#45;&gt;no3.PreventEntityFromRespawning -->
<g id="edge2" class="edge">
<title>no3.ReplaceBreakableWithItemDrop&#45;&gt;no3.PreventEntityFromRespawning</title>
<path fill="none" stroke="black" d="M374.8,-179.93C348.67,-148.3 292.65,-80.46 262.35,-43.78"/>
<polygon fill="black" stroke="black" points="265.01,-41.5 255.94,-36.02 259.61,-45.95 265.01,-41.5"/>
<text text-anchor="middle" x="369.8" y="-168.73" font-family="Times,serif" font-size="14.00">1</text>
</g>
</g>
</svg>
