<?xml version="1.0" encoding="UTF-8" standalone="no"?>
<!DOCTYPE svg PUBLIC "-//W3C//DTD SVG 1.1//EN"
 "http://www.w3.org/Graphics/SVG/1.1/DTD/svg11.dtd">
<!-- Generated by graphviz version 2.43.0 (0)
 -->
<!-- Title: no3.EntityStrongWargWaveAttack Pages: 1 -->
<svg width="1650pt" height="131pt"
 viewBox="0.00 0.00 1650.08 131.00" xmlns="http://www.w3.org/2000/svg" xmlns:xlink="http://www.w3.org/1999/xlink">
<g id="graph0" class="graph" transform="scale(1 1) rotate(0) translate(4 127)">
<title>no3.EntityStrongWargWaveAttack</title>
<polygon fill="white" stroke="transparent" points="-4,4 -4,-127 1646.08,-127 1646.08,4 -4,4"/>
<!-- no3.EntityStrongWargWaveAttack -->
<g id="node1" class="node">
<title>no3.EntityStrongWargWaveAttack</title>
<ellipse fill="red" stroke="black" cx="888.89" cy="-105" rx="170.07" ry="18"/>
<text text-anchor="middle" x="888.89" y="-101.3" font-family="Times,serif" font-size="14.00">no3.EntityStrongWargWaveAttack</text>
</g>
<!-- no3.AllocEntity -->
<g id="node2" class="node">
<title>no3.AllocEntity</title>
<g id="a_node2"><a xlink:href="no3.AllocEntity.svg" xlink:title="no3.AllocEntity">
<ellipse fill="green" stroke="black" cx="81.89" cy="-18" rx="81.79" ry="18"/>
<text text-anchor="middle" x="81.89" y="-14.3" font-family="Times,serif" font-size="14.00">no3.AllocEntity</text>
</a>
</g>
</g>
<!-- no3.EntityStrongWargWaveAttack&#45;&gt;no3.AllocEntity -->
<g id="edge1" class="edge">
<title>no3.EntityStrongWargWaveAttack&#45;&gt;no3.AllocEntity</title>
<path fill="none" stroke="black" d="M750.2,-94.55C605.64,-83.82 372.74,-64.1 172.89,-36 165.59,-34.97 157.98,-33.77 150.41,-32.48"/>
<polygon fill="black" stroke="black" points="150.96,-29.03 140.51,-30.75 149.76,-35.92 150.96,-29.03"/>
<text text-anchor="middle" x="452.89" y="-57.8" font-family="Times,serif" font-size="14.00">1</text>
</g>
<!-- no3.func_801CAD28 -->
<g id="node3" class="node">
<title>no3.func_801CAD28</title>
<g id="a_node3"><a xlink:href="no3.func_801CAD28.svg" xlink:title="no3.func_801CAD28">
<ellipse fill="green" stroke="black" cx="286.89" cy="-18" rx="104.78" ry="18"/>
<text text-anchor="middle" x="286.89" y="-14.3" font-family="Times,serif" font-size="14.00">no3.func_801CAD28</text>
</a>
</g>
</g>
<!-- no3.EntityStrongWargWaveAttack&#45;&gt;no3.func_801CAD28 -->
<g id="edge2" class="edge">
<title>no3.EntityStrongWargWaveAttack&#45;&gt;no3.func_801CAD28</title>
<path fill="none" stroke="black" d="M788.64,-90.39C689.76,-76.89 534.35,-55.46 399.89,-36 391.03,-34.72 381.77,-33.36 372.54,-31.99"/>
<polygon fill="black" stroke="black" points="372.96,-28.51 362.55,-30.5 371.93,-35.44 372.96,-28.51"/>
<text text-anchor="middle" x="632.89" y="-57.8" font-family="Times,serif" font-size="14.00">1</text>
</g>
<!-- no3.CreateEntityFromCurrentEntity -->
<g id="node4" class="node">
<title>no3.CreateEntityFromCurrentEntity</title>
<g id="a_node4"><a xlink:href="no3.CreateEntityFromCurrentEntity.svg" xlink:title="no3.CreateEntityFromCurrentEntity">
<ellipse fill="green" stroke="black" cx="589.89" cy="-18" rx="180.87" ry="18"/>
<text text-anchor="middle" x="589.89" y="-14.3" font-family="Times,serif" font-size="14.00">no3.CreateEntityFromCurrentEntity</text>
</a>
</g>
</g>
<!-- no3.EntityStrongWargWaveAttack&#45;&gt;no3.CreateEntityFromCurrentEntity -->
<g id="edge3" class="edge">
<title>no3.EntityStrongWargWaveAttack&#45;&gt;no3.CreateEntityFromCurrentEntity</title>
<path fill="none" stroke="black" d="M832.3,-87.91C782.28,-73.69 709.27,-52.94 656.45,-37.92"/>
<polygon fill="black" stroke="black" points="657.08,-34.46 646.51,-35.09 655.17,-41.2 657.08,-34.46"/>
<text text-anchor="middle" x="762.89" y="-57.8" font-family="Times,serif" font-size="14.00">1</text>
</g>
<!-- no3.InitializeEntity -->
<g id="node5" class="node">
<title>no3.InitializeEntity</title>
<g id="a_node5"><a xlink:href="no3.InitializeEntity.svg" xlink:title="no3.InitializeEntity">
<ellipse fill="green" stroke="black" cx="888.89" cy="-18" rx="100.18" ry="18"/>
<text text-anchor="middle" x="888.89" y="-14.3" font-family="Times,serif" font-size="14.00">no3.InitializeEntity</text>
</a>
</g>
</g>
<!-- no3.EntityStrongWargWaveAttack&#45;&gt;no3.InitializeEntity -->
<g id="edge4" class="edge">
<title>no3.EntityStrongWargWaveAttack&#45;&gt;no3.InitializeEntity</title>
<path fill="none" stroke="black" d="M888.89,-86.8C888.89,-75.16 888.89,-59.55 888.89,-46.24"/>
<polygon fill="black" stroke="black" points="892.39,-46.18 888.89,-36.18 885.39,-46.18 892.39,-46.18"/>
<text text-anchor="middle" x="893.89" y="-57.8" font-family="Times,serif" font-size="14.00">1</text>
</g>
<!-- dra.AllocPrimitives -->
<g id="node6" class="node">
<title>dra.AllocPrimitives</title>
<g id="a_node6"><a xlink:href="dra.AllocPrimitives.svg" xlink:title="dra.AllocPrimitives">
<ellipse fill="green" stroke="black" cx="1106.89" cy="-18" rx="99.38" ry="18"/>
<text text-anchor="middle" x="1106.89" y="-14.3" font-family="Times,serif" font-size="14.00">dra.AllocPrimitives</text>
</a>
</g>
</g>
<!-- no3.EntityStrongWargWaveAttack&#45;&gt;dra.AllocPrimitives -->
<g id="edge5" class="edge">
<title>no3.EntityStrongWargWaveAttack&#45;&gt;dra.AllocPrimitives</title>
<path fill="none" stroke="black" d="M931.18,-87.51C967.37,-73.4 1019.49,-53.08 1057.57,-38.23"/>
<polygon fill="black" stroke="black" points="1058.88,-41.48 1066.93,-34.58 1056.34,-34.96 1058.88,-41.48"/>
<text text-anchor="middle" x="1016.89" y="-57.8" font-family="Times,serif" font-size="14.00">1</text>
</g>
<!-- no3.func_801CE740 -->
<g id="node7" class="node">
<title>no3.func_801CE740</title>
<g id="a_node7"><a xlink:href="no3.func_801CE740.svg" xlink:title="no3.func_801CE740">
<ellipse fill="red" stroke="black" cx="1327.89" cy="-18" rx="103.98" ry="18"/>
<text text-anchor="middle" x="1327.89" y="-14.3" font-family="Times,serif" font-size="14.00">no3.func_801CE740</text>
</a>
</g>
</g>
<!-- no3.EntityStrongWargWaveAttack&#45;&gt;no3.func_801CE740 -->
<g id="edge6" class="edge">
<title>no3.EntityStrongWargWaveAttack&#45;&gt;no3.func_801CE740</title>
<path fill="none" stroke="black" d="M966.62,-88.95C1046.92,-73.4 1171.46,-49.29 1251.32,-33.83"/>
<polygon fill="black" stroke="black" points="1252.17,-37.23 1261.32,-31.89 1250.84,-30.35 1252.17,-37.23"/>
<text text-anchor="middle" x="1139.89" y="-57.8" font-family="Times,serif" font-size="14.00">4</text>
</g>
<!-- no3.DestroyEntity -->
<g id="node8" class="node">
<title>no3.DestroyEntity</title>
<g id="a_node8"><a xlink:href="no3.DestroyEntity.svg" xlink:title="no3.DestroyEntity">
<ellipse fill="green" stroke="black" cx="1545.89" cy="-18" rx="96.38" ry="18"/>
<text text-anchor="middle" x="1545.89" y="-14.3" font-family="Times,serif" font-size="14.00">no3.DestroyEntity</text>
</a>
</g>
</g>
<!-- no3.EntityStrongWargWaveAttack&#45;&gt;no3.DestroyEntity -->
<g id="edge7" class="edge">
<title>no3.EntityStrongWargWaveAttack&#45;&gt;no3.DestroyEntity</title>
<path fill="none" stroke="black" d="M1001.12,-91.44C1112.77,-78.64 1288.9,-57.66 1440.89,-36 1449.24,-34.81 1457.94,-33.51 1466.62,-32.16"/>
<polygon fill="black" stroke="black" points="1467.42,-35.58 1476.76,-30.57 1466.34,-28.66 1467.42,-35.58"/>
<text text-anchor="middle" x="1309.89" y="-57.8" font-family="Times,serif" font-size="14.00">1</text>
</g>
</g>
</svg>
