<?xml version="1.0" encoding="UTF-8" standalone="no"?>
<!DOCTYPE svg PUBLIC "-//W3C//DTD SVG 1.1//EN"
 "http://www.w3.org/Graphics/SVG/1.1/DTD/svg11.dtd">
<!-- Generated by graphviz version 2.43.0 (0)
 -->
<!-- Title: no3.FallEntity Pages: 1 -->
<svg width="1725pt" height="224pt"
 viewBox="0.00 0.00 1724.98 224.00" xmlns="http://www.w3.org/2000/svg" xmlns:xlink="http://www.w3.org/1999/xlink">
<g id="graph0" class="graph" transform="scale(1 1) rotate(0) translate(4 220)">
<title>no3.FallEntity</title>
<polygon fill="white" stroke="transparent" points="-4,4 -4,-220 1720.98,-220 1720.98,4 -4,4"/>
<!-- no3.FallEntity -->
<g id="node1" class="node">
<title>no3.FallEntity</title>
<ellipse fill="green" stroke="black" cx="937.29" cy="-18" rx="76.89" ry="18"/>
<text text-anchor="middle" x="937.29" y="-14.3" font-family="Times,serif" font-size="14.00">no3.FallEntity</text>
</g>
<!-- no3.EntityEquipItemDrop -->
<g id="node2" class="node">
<title>no3.EntityEquipItemDrop</title>
<g id="a_node2"><a xlink:href="no3.EntityEquipItemDrop.svg" xlink:title="no3.EntityEquipItemDrop">
<ellipse fill="green" stroke="black" cx="131.29" cy="-198" rx="131.08" ry="18"/>
<text text-anchor="middle" x="131.29" y="-194.3" font-family="Times,serif" font-size="14.00">no3.EntityEquipItemDrop</text>
</a>
</g>
</g>
<!-- no3.EntityEquipItemDrop&#45;&gt;no3.FallEntity -->
<g id="edge1" class="edge">
<title>no3.EntityEquipItemDrop&#45;&gt;no3.FallEntity</title>
<path fill="none" stroke="black" d="M197.25,-182.43C349.4,-148.83 723.39,-66.24 873.45,-33.1"/>
<polygon fill="black" stroke="black" points="874.43,-36.47 883.44,-30.89 872.92,-29.63 874.43,-36.47"/>
<text text-anchor="middle" x="192.25" y="-171.23" font-family="Times,serif" font-size="14.00">1</text>
</g>
<!-- no3.EntityExplosion3 -->
<g id="node3" class="node">
<title>no3.EntityExplosion3</title>
<g id="a_node3"><a xlink:href="no3.EntityExplosion3.svg" xlink:title="no3.EntityExplosion3">
<ellipse fill="red" stroke="black" cx="391.29" cy="-198" rx="110.48" ry="18"/>
<text text-anchor="middle" x="391.29" y="-194.3" font-family="Times,serif" font-size="14.00">no3.EntityExplosion3</text>
</a>
</g>
</g>
<!-- no3.EntityExplosion3&#45;&gt;no3.FallEntity -->
<g id="edge2" class="edge">
<title>no3.EntityExplosion3&#45;&gt;no3.FallEntity</title>
<path fill="none" stroke="black" d="M438.31,-181.67C539.78,-148.59 778.64,-70.72 884.82,-36.1"/>
<polygon fill="black" stroke="black" points="885.95,-39.42 894.37,-32.99 883.78,-32.76 885.95,-39.42"/>
<text text-anchor="middle" x="433.31" y="-170.47" font-family="Times,serif" font-size="14.00">1</text>
</g>
<!-- no3.EntityBoneScimitarParts -->
<g id="node4" class="node">
<title>no3.EntityBoneScimitarParts</title>
<g id="a_node4"><a xlink:href="no3.EntityBoneScimitarParts.svg" xlink:title="no3.EntityBoneScimitarParts">
<ellipse fill="green" stroke="black" cx="666.29" cy="-198" rx="146.77" ry="18"/>
<text text-anchor="middle" x="666.29" y="-194.3" font-family="Times,serif" font-size="14.00">no3.EntityBoneScimitarParts</text>
</a>
</g>
</g>
<!-- no3.EntityBoneScimitarParts&#45;&gt;no3.FallEntity -->
<g id="edge3" class="edge">
<title>no3.EntityBoneScimitarParts&#45;&gt;no3.FallEntity</title>
<path fill="none" stroke="black" d="M691.78,-180.25C740.96,-147.95 848.9,-77.06 903.79,-41"/>
<polygon fill="black" stroke="black" points="906.01,-43.73 912.45,-35.31 902.17,-37.88 906.01,-43.73"/>
<text text-anchor="middle" x="686.78" y="-169.05" font-family="Times,serif" font-size="14.00">1</text>
</g>
<!-- no3.EntityPrizeDrop -->
<g id="node5" class="node">
<title>no3.EntityPrizeDrop</title>
<g id="a_node5"><a xlink:href="no3.EntityPrizeDrop.svg" xlink:title="no3.EntityPrizeDrop">
<ellipse fill="green" stroke="black" cx="937.29" cy="-198" rx="106.68" ry="18"/>
<text text-anchor="middle" x="937.29" y="-194.3" font-family="Times,serif" font-size="14.00">no3.EntityPrizeDrop</text>
</a>
</g>
</g>
<!-- no3.EntityPrizeDrop&#45;&gt;no3.FallEntity -->
<g id="edge4" class="edge">
<title>no3.EntityPrizeDrop&#45;&gt;no3.FallEntity</title>
<path fill="none" stroke="black" d="M937.29,-179.93C937.29,-148.97 937.29,-83.3 937.29,-46.13"/>
<polygon fill="black" stroke="black" points="940.79,-46.02 937.29,-36.02 933.79,-46.02 940.79,-46.02"/>
<text text-anchor="middle" x="932.29" y="-168.73" font-family="Times,serif" font-size="14.00">2</text>
</g>
<!-- no3.func_801C92B0 -->
<g id="node6" class="node">
<title>no3.func_801C92B0</title>
<g id="a_node6"><a xlink:href="no3.func_801C92B0.svg" xlink:title="no3.func_801C92B0">
<ellipse fill="green" stroke="black" cx="1166.29" cy="-198" rx="103.98" ry="18"/>
<text text-anchor="middle" x="1166.29" y="-194.3" font-family="Times,serif" font-size="14.00">no3.func_801C92B0</text>
</a>
</g>
</g>
<!-- no3.func_801C92B0&#45;&gt;no3.FallEntity -->
<g id="edge5" class="edge">
<title>no3.func_801C92B0&#45;&gt;no3.FallEntity</title>
<path fill="none" stroke="black" d="M1144.74,-180.25C1103.45,-148.15 1013.11,-77.93 966.46,-41.67"/>
<polygon fill="black" stroke="black" points="968.32,-38.69 958.28,-35.31 964.02,-44.21 968.32,-38.69"/>
<text text-anchor="middle" x="1139.74" y="-169.05" font-family="Times,serif" font-size="14.00">1</text>
</g>
<!-- no3.func_801C6198 -->
<g id="node7" class="node">
<title>no3.func_801C6198</title>
<g id="a_node7"><a xlink:href="no3.func_801C6198.svg" xlink:title="no3.func_801C6198">
<ellipse fill="green" stroke="black" cx="1391.29" cy="-198" rx="102.88" ry="18"/>
<text text-anchor="middle" x="1391.29" y="-194.3" font-family="Times,serif" font-size="14.00">no3.func_801C6198</text>
</a>
</g>
</g>
<!-- no3.func_801C6198&#45;&gt;no3.FallEntity -->
<g id="edge6" class="edge">
<title>no3.func_801C6198&#45;&gt;no3.FallEntity</title>
<path fill="none" stroke="black" d="M1351.4,-181.36C1267.68,-148.54 1074.02,-72.61 984.38,-37.46"/>
<polygon fill="black" stroke="black" points="985.59,-34.18 975.01,-33.79 983.04,-40.7 985.59,-34.18"/>
<text text-anchor="middle" x="1346.4" y="-170.16" font-family="Times,serif" font-size="14.00">1</text>
</g>
<!-- no3.func_801C5074 -->
<g id="node8" class="node">
<title>no3.func_801C5074</title>
<g id="a_node8"><a xlink:href="no3.func_801C5074.svg" xlink:title="no3.func_801C5074">
<ellipse fill="green" stroke="black" cx="1614.29" cy="-198" rx="102.88" ry="18"/>
<text text-anchor="middle" x="1614.29" y="-194.3" font-family="Times,serif" font-size="14.00">no3.func_801C5074</text>
</a>
</g>
</g>
<!-- no3.func_801C5074&#45;&gt;no3.FallEntity -->
<g id="edge7" class="edge">
<title>no3.func_801C5074&#45;&gt;no3.FallEntity</title>
<path fill="none" stroke="black" d="M1559.75,-182.66C1434.16,-149.64 1125.46,-68.48 995.97,-34.43"/>
<polygon fill="black" stroke="black" points="996.78,-31.02 986.22,-31.86 995,-37.79 996.78,-31.02"/>
<text text-anchor="middle" x="1554.75" y="-171.46" font-family="Times,serif" font-size="14.00">1</text>
</g>
</g>
</svg>
