<?xml version="1.0" encoding="UTF-8" standalone="no"?>
<!DOCTYPE svg PUBLIC "-//W3C//DTD SVG 1.1//EN"
 "http://www.w3.org/Graphics/SVG/1.1/DTD/svg11.dtd">
<!-- Generated by graphviz version 2.43.0 (0)
 -->
<!-- Title: no3.CollectGold Pages: 1 -->
<svg width="790pt" height="404pt"
 viewBox="0.00 0.00 790.43 404.00" xmlns="http://www.w3.org/2000/svg" xmlns:xlink="http://www.w3.org/1999/xlink">
<g id="graph0" class="graph" transform="scale(1 1) rotate(0) translate(4 400)">
<title>no3.CollectGold</title>
<polygon fill="white" stroke="transparent" points="-4,4 -4,-400 786.43,-400 786.43,4 -4,4"/>
<!-- no3.CollectGold -->
<g id="node1" class="node">
<title>no3.CollectGold</title>
<ellipse fill="green" stroke="black" cx="368.79" cy="-198" rx="84.49" ry="18"/>
<text text-anchor="middle" x="368.79" y="-194.3" font-family="Times,serif" font-size="14.00">no3.CollectGold</text>
</g>
<!-- dra.FreePrimitives -->
<g id="node2" class="node">
<title>dra.FreePrimitives</title>
<g id="a_node2"><a xlink:href="dra.FreePrimitives.svg" xlink:title="dra.FreePrimitives">
<ellipse fill="green" stroke="black" cx="98.79" cy="-18" rx="98.58" ry="18"/>
<text text-anchor="middle" x="98.79" y="-14.3" font-family="Times,serif" font-size="14.00">dra.FreePrimitives</text>
</a>
</g>
</g>
<!-- no3.CollectGold&#45;&gt;dra.FreePrimitives -->
<g id="edge1" class="edge">
<title>no3.CollectGold&#45;&gt;dra.FreePrimitives</title>
<path fill="none" stroke="black" d="M343.87,-180.57C295.27,-148.53 187.78,-77.67 132.73,-41.37"/>
<polygon fill="black" stroke="black" points="134.32,-38.23 124.04,-35.65 130.46,-44.07 134.32,-38.23"/>
<text text-anchor="middle" x="119.04" y="-39.45" font-family="Times,serif" font-size="14.00">1</text>
</g>
<!-- dra.PlaySfx -->
<g id="node3" class="node">
<title>dra.PlaySfx</title>
<g id="a_node3"><a xlink:href="dra.PlaySfx.svg" xlink:title="dra.PlaySfx">
<ellipse fill="green" stroke="black" cx="279.79" cy="-18" rx="64.19" ry="18"/>
<text text-anchor="middle" x="279.79" y="-14.3" font-family="Times,serif" font-size="14.00">dra.PlaySfx</text>
</a>
</g>
</g>
<!-- no3.CollectGold&#45;&gt;dra.PlaySfx -->
<g id="edge2" class="edge">
<title>no3.CollectGold&#45;&gt;dra.PlaySfx</title>
<path fill="none" stroke="black" d="M360.26,-179.93C344.64,-148.7 311.38,-82.17 292.88,-45.18"/>
<polygon fill="black" stroke="black" points="295.9,-43.39 288.3,-36.02 289.64,-46.53 295.9,-43.39"/>
<text text-anchor="middle" x="283.3" y="-39.82" font-family="Times,serif" font-size="14.00">1</text>
</g>
<!-- no3.DestroyEntity -->
<g id="node4" class="node">
<title>no3.DestroyEntity</title>
<g id="a_node4"><a xlink:href="no3.DestroyEntity.svg" xlink:title="no3.DestroyEntity">
<ellipse fill="green" stroke="black" cx="458.79" cy="-18" rx="96.38" ry="18"/>
<text text-anchor="middle" x="458.79" y="-14.3" font-family="Times,serif" font-size="14.00">no3.DestroyEntity</text>
</a>
</g>
</g>
<!-- no3.CollectGold&#45;&gt;no3.DestroyEntity -->
<g id="edge3" class="edge">
<title>no3.CollectGold&#45;&gt;no3.DestroyEntity</title>
<path fill="none" stroke="black" d="M377.42,-179.93C393.21,-148.7 426.85,-82.17 445.55,-45.18"/>
<polygon fill="black" stroke="black" points="448.8,-46.52 450.19,-36.02 442.55,-43.36 448.8,-46.52"/>
<text text-anchor="middle" x="445.19" y="-39.82" font-family="Times,serif" font-size="14.00">1</text>
</g>
<!-- no3.func_801D06FC -->
<g id="node5" class="node">
<title>no3.func_801D06FC</title>
<g id="a_node5"><a xlink:href="no3.func_801D06FC.svg" xlink:title="no3.func_801D06FC">
<ellipse fill="red" stroke="black" cx="677.79" cy="-18" rx="104.78" ry="18"/>
<text text-anchor="middle" x="677.79" y="-14.3" font-family="Times,serif" font-size="14.00">no3.func_801D06FC</text>
</a>
</g>
</g>
<!-- no3.CollectGold&#45;&gt;no3.func_801D06FC -->
<g id="edge4" class="edge">
<title>no3.CollectGold&#45;&gt;no3.func_801D06FC</title>
<path fill="none" stroke="black" d="M396.76,-180.89C452.55,-148.75 577.68,-76.67 640.43,-40.52"/>
<polygon fill="black" stroke="black" points="642.3,-43.48 649.22,-35.46 638.8,-37.42 642.3,-43.48"/>
<text text-anchor="middle" x="644.22" y="-39.26" font-family="Times,serif" font-size="14.00">1</text>
</g>
<!-- no3.EntityPrizeDrop -->
<g id="node6" class="node">
<title>no3.EntityPrizeDrop</title>
<g id="a_node6"><a xlink:href="no3.EntityPrizeDrop.svg" xlink:title="no3.EntityPrizeDrop">
<ellipse fill="green" stroke="black" cx="368.79" cy="-378" rx="106.68" ry="18"/>
<text text-anchor="middle" x="368.79" y="-374.3" font-family="Times,serif" font-size="14.00">no3.EntityPrizeDrop</text>
</a>
</g>
</g>
<!-- no3.EntityPrizeDrop&#45;&gt;no3.CollectGold -->
<g id="edge5" class="edge">
<title>no3.EntityPrizeDrop&#45;&gt;no3.CollectGold</title>
<path fill="none" stroke="black" d="M368.79,-359.93C368.79,-328.97 368.79,-263.3 368.79,-226.13"/>
<polygon fill="black" stroke="black" points="372.29,-226.02 368.79,-216.02 365.29,-226.02 372.29,-226.02"/>
<text text-anchor="middle" x="363.79" y="-348.73" font-family="Times,serif" font-size="14.00">1</text>
</g>
</g>
</svg>
