<?xml version="1.0" encoding="UTF-8" standalone="no"?>
<!DOCTYPE svg PUBLIC "-//W3C//DTD SVG 1.1//EN"
 "http://www.w3.org/Graphics/SVG/1.1/DTD/svg11.dtd">
<!-- Generated by graphviz version 2.43.0 (0)
 -->
<!-- Title: no3.func_801C6FF4 Pages: 1 -->
<svg width="488pt" height="131pt"
 viewBox="0.00 0.00 488.38 131.00" xmlns="http://www.w3.org/2000/svg" xmlns:xlink="http://www.w3.org/1999/xlink">
<g id="graph0" class="graph" transform="scale(1 1) rotate(0) translate(4 127)">
<title>no3.func_801C6FF4</title>
<polygon fill="white" stroke="transparent" points="-4,4 -4,-127 484.38,-127 484.38,4 -4,4"/>
<!-- no3.func_801C6FF4 -->
<g id="node1" class="node">
<title>no3.func_801C6FF4</title>
<ellipse fill="green" stroke="black" cx="224.09" cy="-18" rx="103.98" ry="18"/>
<text text-anchor="middle" x="224.09" y="-14.3" font-family="Times,serif" font-size="14.00">no3.func_801C6FF4</text>
</g>
<!-- no3.EntityRelicOrb -->
<g id="node2" class="node">
<title>no3.EntityRelicOrb</title>
<g id="a_node2"><a xlink:href="no3.EntityRelicOrb.svg" xlink:title="no3.EntityRelicOrb">
<ellipse fill="red" stroke="black" cx="100.09" cy="-105" rx="100.18" ry="18"/>
<text text-anchor="middle" x="100.09" y="-101.3" font-family="Times,serif" font-size="14.00">no3.EntityRelicOrb</text>
</a>
</g>
</g>
<!-- no3.EntityRelicOrb&#45;&gt;no3.func_801C6FF4 -->
<g id="edge1" class="edge">
<title>no3.EntityRelicOrb&#45;&gt;no3.func_801C6FF4</title>
<path fill="none" stroke="black" d="M124.29,-87.41C143.5,-74.25 170.52,-55.72 191.61,-41.27"/>
<polygon fill="black" stroke="black" points="193.68,-44.09 199.95,-35.55 189.72,-38.32 193.68,-44.09"/>
<text text-anchor="middle" x="175.09" y="-57.8" font-family="Times,serif" font-size="14.00">1</text>
</g>
<!-- no3.EntityEquipItemDrop -->
<g id="node3" class="node">
<title>no3.EntityEquipItemDrop</title>
<g id="a_node3"><a xlink:href="no3.EntityEquipItemDrop.svg" xlink:title="no3.EntityEquipItemDrop">
<ellipse fill="green" stroke="black" cx="349.09" cy="-105" rx="131.08" ry="18"/>
<text text-anchor="middle" x="349.09" y="-101.3" font-family="Times,serif" font-size="14.00">no3.EntityEquipItemDrop</text>
</a>
</g>
</g>
<!-- no3.EntityEquipItemDrop&#45;&gt;no3.func_801C6FF4 -->
<g id="edge2" class="edge">
<title>no3.EntityEquipItemDrop&#45;&gt;no3.func_801C6FF4</title>
<path fill="none" stroke="black" d="M324.4,-87.21C305.13,-74.11 278.2,-55.8 257.09,-41.44"/>
<polygon fill="black" stroke="black" points="258.97,-38.49 248.74,-35.76 255.04,-44.28 258.97,-38.49"/>
<text text-anchor="middle" x="299.09" y="-57.8" font-family="Times,serif" font-size="14.00">1</text>
</g>
</g>
</svg>
