<?xml version="1.0" encoding="UTF-8" standalone="no"?>
<!DOCTYPE svg PUBLIC "-//W3C//DTD SVG 1.1//EN"
 "http://www.w3.org/Graphics/SVG/1.1/DTD/svg11.dtd">
<!-- Generated by graphviz version 2.43.0 (0)
 -->
<!-- Title: no3.FallEntity Pages: 1 -->
<svg width="1724pt" height="224pt"
 viewBox="0.00 0.00 1723.68 224.00" xmlns="http://www.w3.org/2000/svg" xmlns:xlink="http://www.w3.org/1999/xlink">
<g id="graph0" class="graph" transform="scale(1 1) rotate(0) translate(4 220)">
<title>no3.FallEntity</title>
<polygon fill="white" stroke="transparent" points="-4,4 -4,-220 1719.68,-220 1719.68,4 -4,4"/>
<!-- no3.FallEntity -->
<g id="node1" class="node">
<title>no3.FallEntity</title>
<ellipse fill="green" stroke="black" cx="891.99" cy="-18" rx="76.89" ry="18"/>
<text text-anchor="middle" x="891.99" y="-14.3" font-family="Times,serif" font-size="14.00">no3.FallEntity</text>
</g>
<!-- no3.func_801C92B0 -->
<g id="node2" class="node">
<title>no3.func_801C92B0</title>
<g id="a_node2"><a xlink:href="no3.func_801C92B0.svg" xlink:title="no3.func_801C92B0">
<ellipse fill="green" stroke="black" cx="103.99" cy="-198" rx="103.98" ry="18"/>
<text text-anchor="middle" x="103.99" y="-194.3" font-family="Times,serif" font-size="14.00">no3.func_801C92B0</text>
</a>
</g>
</g>
<!-- no3.func_801C92B0&#45;&gt;no3.FallEntity -->
<g id="edge1" class="edge">
<title>no3.func_801C92B0&#45;&gt;no3.FallEntity</title>
<path fill="none" stroke="black" d="M164.52,-183.33C310.45,-150.36 680.61,-66.75 829.02,-33.22"/>
<polygon fill="black" stroke="black" points="829.91,-36.61 838.89,-30.99 828.37,-29.78 829.91,-36.61"/>
<text text-anchor="middle" x="159.52" y="-172.13" font-family="Times,serif" font-size="14.00">1</text>
</g>
<!-- no3.EntityEquipItemDrop -->
<g id="node3" class="node">
<title>no3.EntityEquipItemDrop</title>
<g id="a_node3"><a xlink:href="no3.EntityEquipItemDrop.svg" xlink:title="no3.EntityEquipItemDrop">
<ellipse fill="green" stroke="black" cx="356.99" cy="-198" rx="131.08" ry="18"/>
<text text-anchor="middle" x="356.99" y="-194.3" font-family="Times,serif" font-size="14.00">no3.EntityEquipItemDrop</text>
</a>
</g>
</g>
<!-- no3.EntityEquipItemDrop&#45;&gt;no3.FallEntity -->
<g id="edge2" class="edge">
<title>no3.EntityEquipItemDrop&#45;&gt;no3.FallEntity</title>
<path fill="none" stroke="black" d="M404.47,-181.2C504.43,-147.94 735.92,-70.93 839.84,-36.35"/>
<polygon fill="black" stroke="black" points="841.11,-39.62 849.49,-33.14 838.9,-32.98 841.11,-39.62"/>
<text text-anchor="middle" x="399.47" y="-170" font-family="Times,serif" font-size="14.00">1</text>
</g>
<!-- no3.EntityExplosion3 -->
<g id="node4" class="node">
<title>no3.EntityExplosion3</title>
<g id="a_node4"><a xlink:href="no3.EntityExplosion3.svg" xlink:title="no3.EntityExplosion3">
<ellipse fill="red" stroke="black" cx="616.99" cy="-198" rx="110.48" ry="18"/>
<text text-anchor="middle" x="616.99" y="-194.3" font-family="Times,serif" font-size="14.00">no3.EntityExplosion3</text>
</a>
</g>
</g>
<!-- no3.EntityExplosion3&#45;&gt;no3.FallEntity -->
<g id="edge3" class="edge">
<title>no3.EntityExplosion3&#45;&gt;no3.FallEntity</title>
<path fill="none" stroke="black" d="M642.86,-180.25C692.99,-147.81 803.3,-76.41 858.77,-40.5"/>
<polygon fill="black" stroke="black" points="860.69,-43.43 867.18,-35.06 856.89,-37.55 860.69,-43.43"/>
<text text-anchor="middle" x="637.86" y="-169.05" font-family="Times,serif" font-size="14.00">1</text>
</g>
<!-- no3.EntityBoneScimitarParts -->
<g id="node5" class="node">
<title>no3.EntityBoneScimitarParts</title>
<g id="a_node5"><a xlink:href="no3.EntityBoneScimitarParts.svg" xlink:title="no3.EntityBoneScimitarParts">
<ellipse fill="green" stroke="black" cx="891.99" cy="-198" rx="146.77" ry="18"/>
<text text-anchor="middle" x="891.99" y="-194.3" font-family="Times,serif" font-size="14.00">no3.EntityBoneScimitarParts</text>
</a>
</g>
</g>
<!-- no3.EntityBoneScimitarParts&#45;&gt;no3.FallEntity -->
<g id="edge4" class="edge">
<title>no3.EntityBoneScimitarParts&#45;&gt;no3.FallEntity</title>
<path fill="none" stroke="black" d="M891.99,-179.93C891.99,-148.97 891.99,-83.3 891.99,-46.13"/>
<polygon fill="black" stroke="black" points="895.49,-46.02 891.99,-36.02 888.49,-46.02 895.49,-46.02"/>
<text text-anchor="middle" x="886.99" y="-168.73" font-family="Times,serif" font-size="14.00">1</text>
</g>
<!-- no3.EntityPrizeDrop -->
<g id="node6" class="node">
<title>no3.EntityPrizeDrop</title>
<g id="a_node6"><a xlink:href="no3.EntityPrizeDrop.svg" xlink:title="no3.EntityPrizeDrop">
<ellipse fill="green" stroke="black" cx="1162.99" cy="-198" rx="106.68" ry="18"/>
<text text-anchor="middle" x="1162.99" y="-194.3" font-family="Times,serif" font-size="14.00">no3.EntityPrizeDrop</text>
</a>
</g>
</g>
<!-- no3.EntityPrizeDrop&#45;&gt;no3.FallEntity -->
<g id="edge5" class="edge">
<title>no3.EntityPrizeDrop&#45;&gt;no3.FallEntity</title>
<path fill="none" stroke="black" d="M1137.5,-180.25C1088.32,-147.95 980.38,-77.06 925.48,-41"/>
<polygon fill="black" stroke="black" points="927.11,-37.88 916.83,-35.31 923.27,-43.73 927.11,-37.88"/>
<text text-anchor="middle" x="1132.5" y="-169.05" font-family="Times,serif" font-size="14.00">2</text>
</g>
<!-- no3.func_801C6198 -->
<g id="node7" class="node">
<title>no3.func_801C6198</title>
<g id="a_node7"><a xlink:href="no3.func_801C6198.svg" xlink:title="no3.func_801C6198">
<ellipse fill="green" stroke="black" cx="1389.99" cy="-198" rx="102.88" ry="18"/>
<text text-anchor="middle" x="1389.99" y="-194.3" font-family="Times,serif" font-size="14.00">no3.func_801C6198</text>
</a>
</g>
</g>
<!-- no3.func_801C6198&#45;&gt;no3.FallEntity -->
<g id="edge6" class="edge">
<title>no3.func_801C6198&#45;&gt;no3.FallEntity</title>
<path fill="none" stroke="black" d="M1346.67,-181.52C1254.58,-148.6 1039.83,-71.84 942.06,-36.9"/>
<polygon fill="black" stroke="black" points="943.01,-33.52 932.42,-33.45 940.65,-40.11 943.01,-33.52"/>
<text text-anchor="middle" x="1341.67" y="-170.32" font-family="Times,serif" font-size="14.00">1</text>
</g>
<!-- no3.func_801C5074 -->
<g id="node8" class="node">
<title>no3.func_801C5074</title>
<g id="a_node8"><a xlink:href="no3.func_801C5074.svg" xlink:title="no3.func_801C5074">
<ellipse fill="green" stroke="black" cx="1612.99" cy="-198" rx="102.88" ry="18"/>
<text text-anchor="middle" x="1612.99" y="-194.3" font-family="Times,serif" font-size="14.00">no3.func_801C5074</text>
</a>
</g>
</g>
<!-- no3.func_801C5074&#45;&gt;no3.FallEntity -->
<g id="edge7" class="edge">
<title>no3.func_801C5074&#45;&gt;no3.FallEntity</title>
<path fill="none" stroke="black" d="M1556.11,-182.96C1422.62,-150 1090.17,-67.93 952.83,-34.02"/>
<polygon fill="black" stroke="black" points="953.44,-30.57 942.89,-31.57 951.76,-37.36 953.44,-30.57"/>
<text text-anchor="middle" x="1551.11" y="-171.76" font-family="Times,serif" font-size="14.00">1</text>
</g>
</g>
</svg>
