<?xml version="1.0" encoding="UTF-8" standalone="no"?>
<!DOCTYPE svg PUBLIC "-//W3C//DTD SVG 1.1//EN"
 "http://www.w3.org/Graphics/SVG/1.1/DTD/svg11.dtd">
<!-- Generated by graphviz version 2.43.0 (0)
 -->
<!-- Title: no3.EntityRoomTransition2 Pages: 1 -->
<svg width="2056pt" height="224pt"
 viewBox="0.00 0.00 2056.03 224.00" xmlns="http://www.w3.org/2000/svg" xmlns:xlink="http://www.w3.org/1999/xlink">
<g id="graph0" class="graph" transform="scale(1 1) rotate(0) translate(4 220)">
<title>no3.EntityRoomTransition2</title>
<polygon fill="white" stroke="transparent" points="-4,4 -4,-220 2052.03,-220 2052.03,4 -4,4"/>
<!-- no3.EntityRoomTransition2 -->
<g id="node1" class="node">
<title>no3.EntityRoomTransition2</title>
<ellipse fill="green" stroke="black" cx="929.34" cy="-198" rx="139.18" ry="18"/>
<text text-anchor="middle" x="929.34" y="-194.3" font-family="Times,serif" font-size="14.00">no3.EntityRoomTransition2</text>
</g>
<!-- dra.PlaySfx -->
<g id="node2" class="node">
<title>dra.PlaySfx</title>
<g id="a_node2"><a xlink:href="dra.PlaySfx.svg" xlink:title="dra.PlaySfx">
<ellipse fill="green" stroke="black" cx="64.34" cy="-18" rx="64.19" ry="18"/>
<text text-anchor="middle" x="64.34" y="-14.3" font-family="Times,serif" font-size="14.00">dra.PlaySfx</text>
</a>
</g>
</g>
<!-- no3.EntityRoomTransition2&#45;&gt;dra.PlaySfx -->
<g id="edge1" class="edge">
<title>no3.EntityRoomTransition2&#45;&gt;dra.PlaySfx</title>
<path fill="none" stroke="black" d="M855.5,-182.71C715.27,-155.42 400.9,-93.46 137.34,-36 132.31,-34.9 127.08,-33.74 121.85,-32.55"/>
<polygon fill="black" stroke="black" points="122.34,-29.07 111.81,-30.26 120.78,-35.9 122.34,-29.07"/>
<text text-anchor="middle" x="106.81" y="-34.06" font-family="Times,serif" font-size="14.00">2</text>
</g>
<!-- no3.InitializeEntity -->
<g id="node3" class="node">
<title>no3.InitializeEntity</title>
<g id="a_node3"><a xlink:href="no3.InitializeEntity.svg" xlink:title="no3.InitializeEntity">
<ellipse fill="green" stroke="black" cx="246.34" cy="-18" rx="100.18" ry="18"/>
<text text-anchor="middle" x="246.34" y="-14.3" font-family="Times,serif" font-size="14.00">no3.InitializeEntity</text>
</a>
</g>
</g>
<!-- no3.EntityRoomTransition2&#45;&gt;no3.InitializeEntity -->
<g id="edge2" class="edge">
<title>no3.EntityRoomTransition2&#45;&gt;no3.InitializeEntity</title>
<path fill="none" stroke="black" d="M870.52,-181.67C743.27,-148.51 443.27,-70.32 310.96,-35.84"/>
<polygon fill="black" stroke="black" points="311.52,-32.37 300.97,-33.24 309.76,-39.14 311.52,-32.37"/>
<text text-anchor="middle" x="295.97" y="-37.04" font-family="Times,serif" font-size="14.00">1</text>
</g>
<!-- dra.InitStatsAndGear -->
<g id="node4" class="node">
<title>dra.InitStatsAndGear</title>
<g id="a_node4"><a xlink:href="dra.InitStatsAndGear.svg" xlink:title="dra.InitStatsAndGear">
<ellipse fill="green" stroke="black" cx="475.34" cy="-18" rx="110.48" ry="18"/>
<text text-anchor="middle" x="475.34" y="-14.3" font-family="Times,serif" font-size="14.00">dra.InitStatsAndGear</text>
</a>
</g>
</g>
<!-- no3.EntityRoomTransition2&#45;&gt;dra.InitStatsAndGear -->
<g id="edge3" class="edge">
<title>no3.EntityRoomTransition2&#45;&gt;dra.InitStatsAndGear</title>
<path fill="none" stroke="black" d="M887.85,-180.73C804.11,-147.9 615.21,-73.84 525.05,-38.49"/>
<polygon fill="black" stroke="black" points="526.19,-35.17 515.6,-34.78 523.63,-41.69 526.19,-35.17"/>
<text text-anchor="middle" x="510.6" y="-38.58" font-family="Times,serif" font-size="14.00">1</text>
</g>
<!-- no3.AllocEntity -->
<g id="node5" class="node">
<title>no3.AllocEntity</title>
<g id="a_node5"><a xlink:href="no3.AllocEntity.svg" xlink:title="no3.AllocEntity">
<ellipse fill="green" stroke="black" cx="685.34" cy="-18" rx="81.79" ry="18"/>
<text text-anchor="middle" x="685.34" y="-14.3" font-family="Times,serif" font-size="14.00">no3.AllocEntity</text>
</a>
</g>
</g>
<!-- no3.EntityRoomTransition2&#45;&gt;no3.AllocEntity -->
<g id="edge4" class="edge">
<title>no3.EntityRoomTransition2&#45;&gt;no3.AllocEntity</title>
<path fill="none" stroke="black" d="M905.95,-179.93C861.64,-147.61 765.48,-77.46 716.05,-41.4"/>
<polygon fill="black" stroke="black" points="718.1,-38.56 707.96,-35.5 713.97,-44.22 718.1,-38.56"/>
<text text-anchor="middle" x="702.96" y="-39.3" font-family="Times,serif" font-size="14.00">1</text>
</g>
<!-- no3.CreateEntityFromEntity -->
<g id="node6" class="node">
<title>no3.CreateEntityFromEntity</title>
<g id="a_node6"><a xlink:href="no3.CreateEntityFromEntity.svg" xlink:title="no3.CreateEntityFromEntity">
<ellipse fill="green" stroke="black" cx="929.34" cy="-18" rx="144.07" ry="18"/>
<text text-anchor="middle" x="929.34" y="-14.3" font-family="Times,serif" font-size="14.00">no3.CreateEntityFromEntity</text>
</a>
</g>
</g>
<!-- no3.EntityRoomTransition2&#45;&gt;no3.CreateEntityFromEntity -->
<g id="edge5" class="edge">
<title>no3.EntityRoomTransition2&#45;&gt;no3.CreateEntityFromEntity</title>
<path fill="none" stroke="black" d="M929.34,-179.93C929.34,-148.97 929.34,-83.3 929.34,-46.13"/>
<polygon fill="black" stroke="black" points="932.84,-46.02 929.34,-36.02 925.84,-46.02 932.84,-46.02"/>
<text text-anchor="middle" x="924.34" y="-39.82" font-family="Times,serif" font-size="14.00">1</text>
</g>
<!-- dra.AllocPrimitives -->
<g id="node7" class="node">
<title>dra.AllocPrimitives</title>
<g id="a_node7"><a xlink:href="dra.AllocPrimitives.svg" xlink:title="dra.AllocPrimitives">
<ellipse fill="green" stroke="black" cx="1191.34" cy="-18" rx="99.38" ry="18"/>
<text text-anchor="middle" x="1191.34" y="-14.3" font-family="Times,serif" font-size="14.00">dra.AllocPrimitives</text>
</a>
</g>
</g>
<!-- no3.EntityRoomTransition2&#45;&gt;dra.AllocPrimitives -->
<g id="edge6" class="edge">
<title>no3.EntityRoomTransition2&#45;&gt;dra.AllocPrimitives</title>
<path fill="none" stroke="black" d="M953.99,-180.25C1001.42,-148.04 1105.36,-77.42 1158.56,-41.27"/>
<polygon fill="black" stroke="black" points="1160.65,-44.09 1166.95,-35.57 1156.71,-38.3 1160.65,-44.09"/>
<text text-anchor="middle" x="1161.95" y="-39.37" font-family="Times,serif" font-size="14.00">1</text>
</g>
<!-- no3.DestroyEntity -->
<g id="node8" class="node">
<title>no3.DestroyEntity</title>
<g id="a_node8"><a xlink:href="no3.DestroyEntity.svg" xlink:title="no3.DestroyEntity">
<ellipse fill="green" stroke="black" cx="1405.34" cy="-18" rx="96.38" ry="18"/>
<text text-anchor="middle" x="1405.34" y="-14.3" font-family="Times,serif" font-size="14.00">no3.DestroyEntity</text>
</a>
</g>
</g>
<!-- no3.EntityRoomTransition2&#45;&gt;no3.DestroyEntity -->
<g id="edge7" class="edge">
<title>no3.EntityRoomTransition2&#45;&gt;no3.DestroyEntity</title>
<path fill="none" stroke="black" d="M972.85,-180.73C1061.07,-147.74 1260.6,-73.13 1354.58,-37.98"/>
<polygon fill="black" stroke="black" points="1356.01,-41.18 1364.15,-34.4 1353.56,-34.63 1356.01,-41.18"/>
<text text-anchor="middle" x="1359.15" y="-38.2" font-family="Times,serif" font-size="14.00">3</text>
</g>
<!-- g_api_PlaySfx -->
<g id="node9" class="node">
<title>g_api_PlaySfx</title>
<g id="a_node9"><a xlink:href="g_api_PlaySfx.svg" xlink:title="g_api_PlaySfx">
<ellipse fill="lightblue" stroke="black" cx="1594.34" cy="-18" rx="74.99" ry="18"/>
<text text-anchor="middle" x="1594.34" y="-14.3" font-family="Times,serif" font-size="14.00">g_api_PlaySfx</text>
</a>
</g>
</g>
<!-- no3.EntityRoomTransition2&#45;&gt;g_api_PlaySfx -->
<g id="edge8" class="edge">
<title>no3.EntityRoomTransition2&#45;&gt;g_api_PlaySfx</title>
<path fill="none" stroke="black" d="M986.91,-181.59C1112.55,-147.96 1410.2,-68.29 1536.29,-34.54"/>
<polygon fill="black" stroke="black" points="1537.4,-37.87 1546.15,-31.9 1535.59,-31.1 1537.4,-37.87"/>
<text text-anchor="middle" x="1541.15" y="-35.7" font-family="Times,serif" font-size="14.00">2</text>
</g>
<!-- no3.CreateEntityFromCurrentEntity -->
<g id="node10" class="node">
<title>no3.CreateEntityFromCurrentEntity</title>
<g id="a_node10"><a xlink:href="no3.CreateEntityFromCurrentEntity.svg" xlink:title="no3.CreateEntityFromCurrentEntity">
<ellipse fill="green" stroke="black" cx="1867.34" cy="-18" rx="180.87" ry="18"/>
<text text-anchor="middle" x="1867.34" y="-14.3" font-family="Times,serif" font-size="14.00">no3.CreateEntityFromCurrentEntity</text>
</a>
</g>
</g>
<!-- no3.EntityRoomTransition2&#45;&gt;no3.CreateEntityFromCurrentEntity -->
<g id="edge9" class="edge">
<title>no3.EntityRoomTransition2&#45;&gt;no3.CreateEntityFromCurrentEntity</title>
<path fill="none" stroke="black" d="M1004.12,-182.81C1174.92,-150.4 1593.09,-71.04 1777.49,-36.05"/>
<polygon fill="black" stroke="black" points="1778.25,-39.47 1787.43,-34.17 1776.95,-32.59 1778.25,-39.47"/>
<text text-anchor="middle" x="1782.43" y="-37.97" font-family="Times,serif" font-size="14.00">1</text>
</g>
</g>
</svg>
