<?xml version="1.0" encoding="UTF-8" standalone="no"?>
<!DOCTYPE svg PUBLIC "-//W3C//DTD SVG 1.1//EN"
 "http://www.w3.org/Graphics/SVG/1.1/DTD/svg11.dtd">
<!-- Generated by graphviz version 2.43.0 (0)
 -->
<!-- Title: no3.EntityBreakable Pages: 1 -->
<svg width="1509pt" height="131pt"
 viewBox="0.00 0.00 1509.23 131.00" xmlns="http://www.w3.org/2000/svg" xmlns:xlink="http://www.w3.org/1999/xlink">
<g id="graph0" class="graph" transform="scale(1 1) rotate(0) translate(4 127)">
<title>no3.EntityBreakable</title>
<polygon fill="white" stroke="transparent" points="-4,4 -4,-127 1505.23,-127 1505.23,4 -4,4"/>
<!-- no3.EntityBreakable -->
<g id="node1" class="node">
<title>no3.EntityBreakable</title>
<ellipse fill="green" stroke="black" cx="582.14" cy="-105" rx="106.68" ry="18"/>
<text text-anchor="middle" x="582.14" y="-101.3" font-family="Times,serif" font-size="14.00">no3.EntityBreakable</text>
</g>
<!-- no3.AnimateEntity -->
<g id="node2" class="node">
<title>no3.AnimateEntity</title>
<g id="a_node2"><a xlink:href="no3.AnimateEntity.svg" xlink:title="no3.AnimateEntity">
<ellipse fill="green" stroke="black" cx="98.14" cy="-18" rx="98.28" ry="18"/>
<text text-anchor="middle" x="98.14" y="-14.3" font-family="Times,serif" font-size="14.00">no3.AnimateEntity</text>
</a>
</g>
</g>
<!-- no3.EntityBreakable&#45;&gt;no3.AnimateEntity -->
<g id="edge1" class="edge">
<title>no3.EntityBreakable&#45;&gt;no3.AnimateEntity</title>
<path fill="none" stroke="black" d="M511.25,-91.55C421.94,-75.87 269,-49.01 176.37,-32.74"/>
<polygon fill="black" stroke="black" points="176.94,-29.29 166.49,-31 175.73,-36.18 176.94,-29.29"/>
<text text-anchor="middle" x="374.14" y="-57.8" font-family="Times,serif" font-size="14.00">1</text>
</g>
<!-- dra.PlaySfx -->
<g id="node3" class="node">
<title>dra.PlaySfx</title>
<g id="a_node3"><a xlink:href="dra.PlaySfx.svg" xlink:title="dra.PlaySfx">
<ellipse fill="green" stroke="black" cx="278.14" cy="-18" rx="64.19" ry="18"/>
<text text-anchor="middle" x="278.14" y="-14.3" font-family="Times,serif" font-size="14.00">dra.PlaySfx</text>
</a>
</g>
</g>
<!-- no3.EntityBreakable&#45;&gt;dra.PlaySfx -->
<g id="edge2" class="edge">
<title>no3.EntityBreakable&#45;&gt;dra.PlaySfx</title>
<path fill="none" stroke="black" d="M529.54,-89.29C474.23,-73.83 387.65,-49.62 331.91,-34.03"/>
<polygon fill="black" stroke="black" points="332.79,-30.65 322.22,-31.32 330.91,-37.39 332.79,-30.65"/>
<text text-anchor="middle" x="454.14" y="-57.8" font-family="Times,serif" font-size="14.00">1</text>
</g>
<!-- no3.AllocEntity -->
<g id="node4" class="node">
<title>no3.AllocEntity</title>
<g id="a_node4"><a xlink:href="no3.AllocEntity.svg" xlink:title="no3.AllocEntity">
<ellipse fill="green" stroke="black" cx="442.14" cy="-18" rx="81.79" ry="18"/>
<text text-anchor="middle" x="442.14" y="-14.3" font-family="Times,serif" font-size="14.00">no3.AllocEntity</text>
</a>
</g>
</g>
<!-- no3.EntityBreakable&#45;&gt;no3.AllocEntity -->
<g id="edge3" class="edge">
<title>no3.EntityBreakable&#45;&gt;no3.AllocEntity</title>
<path fill="none" stroke="black" d="M554.82,-87.41C532.8,-74.04 501.68,-55.15 477.72,-40.6"/>
<polygon fill="black" stroke="black" points="479.29,-37.46 468.92,-35.26 475.65,-43.44 479.29,-37.46"/>
<text text-anchor="middle" x="526.14" y="-57.8" font-family="Times,serif" font-size="14.00">1</text>
</g>
<!-- no3.CreateEntityFromCurrentEntity -->
<g id="node5" class="node">
<title>no3.CreateEntityFromCurrentEntity</title>
<g id="a_node5"><a xlink:href="no3.CreateEntityFromCurrentEntity.svg" xlink:title="no3.CreateEntityFromCurrentEntity">
<ellipse fill="green" stroke="black" cx="723.14" cy="-18" rx="180.87" ry="18"/>
<text text-anchor="middle" x="723.14" y="-14.3" font-family="Times,serif" font-size="14.00">no3.CreateEntityFromCurrentEntity</text>
</a>
</g>
</g>
<!-- no3.EntityBreakable&#45;&gt;no3.CreateEntityFromCurrentEntity -->
<g id="edge4" class="edge">
<title>no3.EntityBreakable&#45;&gt;no3.CreateEntityFromCurrentEntity</title>
<path fill="none" stroke="black" d="M609.66,-87.41C631.55,-74.21 662.38,-55.63 686.38,-41.16"/>
<polygon fill="black" stroke="black" points="688.45,-44 695.21,-35.84 684.84,-38 688.45,-44"/>
<text text-anchor="middle" x="666.14" y="-57.8" font-family="Times,serif" font-size="14.00">1</text>
</g>
<!-- no3.ReplaceBreakableWithItemDrop -->
<g id="node6" class="node">
<title>no3.ReplaceBreakableWithItemDrop</title>
<g id="a_node6"><a xlink:href="no3.ReplaceBreakableWithItemDrop.svg" xlink:title="no3.ReplaceBreakableWithItemDrop">
<ellipse fill="green" stroke="black" cx="1102.14" cy="-18" rx="180.87" ry="18"/>
<text text-anchor="middle" x="1102.14" y="-14.3" font-family="Times,serif" font-size="14.00">no3.ReplaceBreakableWithItemDrop</text>
</a>
</g>
</g>
<!-- no3.EntityBreakable&#45;&gt;no3.ReplaceBreakableWithItemDrop -->
<g id="edge5" class="edge">
<title>no3.EntityBreakable&#45;&gt;no3.ReplaceBreakableWithItemDrop</title>
<path fill="none" stroke="black" d="M655.82,-91.96C746.52,-77.13 900.95,-51.89 1002.26,-35.33"/>
<polygon fill="black" stroke="black" points="1002.89,-38.77 1012.2,-33.7 1001.77,-31.86 1002.89,-38.77"/>
<text text-anchor="middle" x="879.14" y="-57.8" font-family="Times,serif" font-size="14.00">1</text>
</g>
<!-- no3.InitializeEntity -->
<g id="node7" class="node">
<title>no3.InitializeEntity</title>
<g id="a_node7"><a xlink:href="no3.InitializeEntity.svg" xlink:title="no3.InitializeEntity">
<ellipse fill="green" stroke="black" cx="1401.14" cy="-18" rx="100.18" ry="18"/>
<text text-anchor="middle" x="1401.14" y="-14.3" font-family="Times,serif" font-size="14.00">no3.InitializeEntity</text>
</a>
</g>
</g>
<!-- no3.EntityBreakable&#45;&gt;no3.InitializeEntity -->
<g id="edge6" class="edge">
<title>no3.EntityBreakable&#45;&gt;no3.InitializeEntity</title>
<path fill="none" stroke="black" d="M677.08,-96.71C813.45,-85.82 1072.53,-63.62 1292.14,-36 1301.14,-34.87 1310.54,-33.57 1319.89,-32.21"/>
<polygon fill="black" stroke="black" points="1320.61,-35.65 1329.99,-30.72 1319.58,-28.72 1320.61,-35.65"/>
<text text-anchor="middle" x="1142.14" y="-57.8" font-family="Times,serif" font-size="14.00">1</text>
</g>
</g>
</svg>
