<?xml version="1.0" encoding="UTF-8" standalone="no"?>
<!DOCTYPE svg PUBLIC "-//W3C//DTD SVG 1.1//EN"
 "http://www.w3.org/Graphics/SVG/1.1/DTD/svg11.dtd">
<!-- Generated by graphviz version 2.43.0 (0)
 -->
<!-- Title: no3.EntityBoneScimitarParts Pages: 1 -->
<svg width="568pt" height="224pt"
 viewBox="0.00 0.00 567.78 224.00" xmlns="http://www.w3.org/2000/svg" xmlns:xlink="http://www.w3.org/1999/xlink">
<g id="graph0" class="graph" transform="scale(1 1) rotate(0) translate(4 220)">
<title>no3.EntityBoneScimitarParts</title>
<polygon fill="white" stroke="transparent" points="-4,4 -4,-220 563.78,-220 563.78,4 -4,4"/>
<!-- no3.EntityBoneScimitarParts -->
<g id="node1" class="node">
<title>no3.EntityBoneScimitarParts</title>
<ellipse fill="green" stroke="black" cx="256.69" cy="-198" rx="146.77" ry="18"/>
<text text-anchor="middle" x="256.69" y="-194.3" font-family="Times,serif" font-size="14.00">no3.EntityBoneScimitarParts</text>
</g>
<!-- no3.FallEntity -->
<g id="node2" class="node">
<title>no3.FallEntity</title>
<g id="a_node2"><a xlink:href="no3.FallEntity.svg" xlink:title="no3.FallEntity">
<ellipse fill="green" stroke="black" cx="76.69" cy="-18" rx="76.89" ry="18"/>
<text text-anchor="middle" x="76.69" y="-14.3" font-family="Times,serif" font-size="14.00">no3.FallEntity</text>
</a>
</g>
</g>
<!-- no3.EntityBoneScimitarParts&#45;&gt;no3.FallEntity -->
<g id="edge1" class="edge">
<title>no3.EntityBoneScimitarParts&#45;&gt;no3.FallEntity</title>
<path fill="none" stroke="black" d="M239.43,-179.93C207.23,-148.09 137.92,-79.54 101,-43.04"/>
<polygon fill="black" stroke="black" points="103.21,-40.3 93.64,-35.76 98.29,-45.28 103.21,-40.3"/>
<text text-anchor="middle" x="88.64" y="-39.56" font-family="Times,serif" font-size="14.00">1</text>
</g>
<!-- no3.MoveEntity -->
<g id="node3" class="node">
<title>no3.MoveEntity</title>
<g id="a_node3"><a xlink:href="no3.MoveEntity.svg" xlink:title="no3.MoveEntity">
<ellipse fill="green" stroke="black" cx="256.69" cy="-18" rx="85.29" ry="18"/>
<text text-anchor="middle" x="256.69" y="-14.3" font-family="Times,serif" font-size="14.00">no3.MoveEntity</text>
</a>
</g>
</g>
<!-- no3.EntityBoneScimitarParts&#45;&gt;no3.MoveEntity -->
<g id="edge2" class="edge">
<title>no3.EntityBoneScimitarParts&#45;&gt;no3.MoveEntity</title>
<path fill="none" stroke="black" d="M256.69,-179.93C256.69,-148.97 256.69,-83.3 256.69,-46.13"/>
<polygon fill="black" stroke="black" points="260.19,-46.02 256.69,-36.02 253.19,-46.02 260.19,-46.02"/>
<text text-anchor="middle" x="251.69" y="-39.82" font-family="Times,serif" font-size="14.00">1</text>
</g>
<!-- no3.InitializeEntity -->
<g id="node4" class="node">
<title>no3.InitializeEntity</title>
<g id="a_node4"><a xlink:href="no3.InitializeEntity.svg" xlink:title="no3.InitializeEntity">
<ellipse fill="green" stroke="black" cx="459.69" cy="-18" rx="100.18" ry="18"/>
<text text-anchor="middle" x="459.69" y="-14.3" font-family="Times,serif" font-size="14.00">no3.InitializeEntity</text>
</a>
</g>
</g>
<!-- no3.EntityBoneScimitarParts&#45;&gt;no3.InitializeEntity -->
<g id="edge3" class="edge">
<title>no3.EntityBoneScimitarParts&#45;&gt;no3.InitializeEntity</title>
<path fill="none" stroke="black" d="M276.16,-179.93C312.7,-147.89 391.63,-78.68 433.06,-42.35"/>
<polygon fill="black" stroke="black" points="435.37,-44.98 440.58,-35.76 430.76,-39.72 435.37,-44.98"/>
<text text-anchor="middle" x="435.58" y="-39.56" font-family="Times,serif" font-size="14.00">1</text>
</g>
</g>
</svg>
