<?xml version="1.0" encoding="UTF-8" standalone="no"?>
<!DOCTYPE svg PUBLIC "-//W3C//DTD SVG 1.1//EN"
 "http://www.w3.org/Graphics/SVG/1.1/DTD/svg11.dtd">
<!-- Generated by graphviz version 2.43.0 (0)
 -->
<!-- Title: no3.func_801C37D4 Pages: 1 -->
<svg width="454pt" height="404pt"
 viewBox="0.00 0.00 453.83 404.00" xmlns="http://www.w3.org/2000/svg" xmlns:xlink="http://www.w3.org/1999/xlink">
<g id="graph0" class="graph" transform="scale(1 1) rotate(0) translate(4 400)">
<title>no3.func_801C37D4</title>
<polygon fill="white" stroke="transparent" points="-4,4 -4,-400 449.83,-400 449.83,4 -4,4"/>
<!-- no3.func_801C37D4 -->
<g id="node1" class="node">
<title>no3.func_801C37D4</title>
<ellipse fill="green" stroke="black" cx="225.84" cy="-198" rx="104.78" ry="18"/>
<text text-anchor="middle" x="225.84" y="-194.3" font-family="Times,serif" font-size="14.00">no3.func_801C37D4</text>
</g>
<!-- no3.func_801C3500 -->
<g id="node2" class="node">
<title>no3.func_801C3500</title>
<g id="a_node2"><a xlink:href="no3.func_801C3500.svg" xlink:title="no3.func_801C3500">
<ellipse fill="green" stroke="black" cx="114.84" cy="-18" rx="102.88" ry="18"/>
<text text-anchor="middle" x="114.84" y="-14.3" font-family="Times,serif" font-size="14.00">no3.func_801C3500</text>
</a>
</g>
</g>
<!-- no3.func_801C37D4&#45;&gt;no3.func_801C3500 -->
<g id="edge1" class="edge">
<title>no3.func_801C37D4&#45;&gt;no3.func_801C3500</title>
<path fill="none" stroke="black" d="M215.2,-179.93C195.64,-148.57 153.88,-81.6 130.87,-44.71"/>
<polygon fill="black" stroke="black" points="133.71,-42.65 125.45,-36.02 127.77,-46.35 133.71,-42.65"/>
<text text-anchor="middle" x="120.45" y="-39.82" font-family="Times,serif" font-size="14.00">1</text>
</g>
<!-- no3.func_801C3730 -->
<g id="node3" class="node">
<title>no3.func_801C3730</title>
<g id="a_node3"><a xlink:href="no3.func_801C3730.svg" xlink:title="no3.func_801C3730">
<ellipse fill="green" stroke="black" cx="337.84" cy="-18" rx="102.88" ry="18"/>
<text text-anchor="middle" x="337.84" y="-14.3" font-family="Times,serif" font-size="14.00">no3.func_801C3730</text>
</a>
</g>
</g>
<!-- no3.func_801C37D4&#45;&gt;no3.func_801C3730 -->
<g id="edge2" class="edge">
<title>no3.func_801C37D4&#45;&gt;no3.func_801C3730</title>
<path fill="none" stroke="black" d="M236.58,-179.93C256.31,-148.57 298.45,-81.6 321.66,-44.71"/>
<polygon fill="black" stroke="black" points="324.77,-46.34 327.13,-36.02 318.85,-42.62 324.77,-46.34"/>
<text text-anchor="middle" x="322.13" y="-39.82" font-family="Times,serif" font-size="14.00">1</text>
</g>
<!-- no3.InitRoomEntities -->
<g id="node4" class="node">
<title>no3.InitRoomEntities</title>
<g id="a_node4"><a xlink:href="no3.InitRoomEntities.svg" xlink:title="no3.InitRoomEntities">
<ellipse fill="green" stroke="black" cx="109.84" cy="-378" rx="109.68" ry="18"/>
<text text-anchor="middle" x="109.84" y="-374.3" font-family="Times,serif" font-size="14.00">no3.InitRoomEntities</text>
</a>
</g>
</g>
<!-- no3.InitRoomEntities&#45;&gt;no3.func_801C37D4 -->
<g id="edge3" class="edge">
<title>no3.InitRoomEntities&#45;&gt;no3.func_801C37D4</title>
<path fill="none" stroke="black" d="M120.96,-359.93C141.4,-328.57 185.04,-261.6 209.09,-224.71"/>
<polygon fill="black" stroke="black" points="212.22,-226.3 214.75,-216.02 206.36,-222.48 212.22,-226.3"/>
<text text-anchor="middle" x="115.96" y="-348.73" font-family="Times,serif" font-size="14.00">1</text>
</g>
<!-- no3.func_801C3E10 -->
<g id="node5" class="node">
<title>no3.func_801C3E10</title>
<g id="a_node5"><a xlink:href="no3.func_801C3E10.svg" xlink:title="no3.func_801C3E10">
<ellipse fill="green" stroke="black" cx="341.84" cy="-378" rx="103.98" ry="18"/>
<text text-anchor="middle" x="341.84" y="-374.3" font-family="Times,serif" font-size="14.00">no3.func_801C3E10</text>
</a>
</g>
</g>
<!-- no3.func_801C3E10&#45;&gt;no3.func_801C37D4 -->
<g id="edge4" class="edge">
<title>no3.func_801C3E10&#45;&gt;no3.func_801C37D4</title>
<path fill="none" stroke="black" d="M330.72,-359.93C310.28,-328.57 266.64,-261.6 242.59,-224.71"/>
<polygon fill="black" stroke="black" points="245.32,-222.48 236.93,-216.02 239.46,-226.3 245.32,-222.48"/>
<text text-anchor="middle" x="325.72" y="-348.73" font-family="Times,serif" font-size="14.00">1</text>
</g>
</g>
</svg>
