<?xml version="1.0" encoding="UTF-8" standalone="no"?>
<!DOCTYPE svg PUBLIC "-//W3C//DTD SVG 1.1//EN"
 "http://www.w3.org/Graphics/SVG/1.1/DTD/svg11.dtd">
<!-- Generated by graphviz version 2.43.0 (0)
 -->
<!-- Title: no3.EntityAlucardWaterEffect Pages: 1 -->
<svg width="924pt" height="224pt"
 viewBox="0.00 0.00 923.73 224.00" xmlns="http://www.w3.org/2000/svg" xmlns:xlink="http://www.w3.org/1999/xlink">
<g id="graph0" class="graph" transform="scale(1 1) rotate(0) translate(4 220)">
<title>no3.EntityAlucardWaterEffect</title>
<polygon fill="white" stroke="transparent" points="-4,4 -4,-220 919.73,-220 919.73,4 -4,4"/>
<!-- no3.EntityAlucardWaterEffect -->
<g id="node1" class="node">
<title>no3.EntityAlucardWaterEffect</title>
<ellipse fill="red" stroke="black" cx="431.64" cy="-198" rx="150.27" ry="18"/>
<text text-anchor="middle" x="431.64" y="-194.3" font-family="Times,serif" font-size="14.00">no3.EntityAlucardWaterEffect</text>
</g>
<!-- no3.func_801D0A2C -->
<g id="node2" class="node">
<title>no3.func_801D0A2C</title>
<g id="a_node2"><a xlink:href="no3.func_801D0A2C.svg" xlink:title="no3.func_801D0A2C">
<ellipse fill="red" stroke="black" cx="104.64" cy="-18" rx="104.78" ry="18"/>
<text text-anchor="middle" x="104.64" y="-14.3" font-family="Times,serif" font-size="14.00">no3.func_801D0A2C</text>
</a>
</g>
</g>
<!-- no3.EntityAlucardWaterEffect&#45;&gt;no3.func_801D0A2C -->
<g id="edge1" class="edge">
<title>no3.EntityAlucardWaterEffect&#45;&gt;no3.func_801D0A2C</title>
<path fill="none" stroke="black" d="M400.88,-180.25C341.05,-147.69 209.15,-75.89 143.43,-40.11"/>
<polygon fill="black" stroke="black" points="145.07,-37.02 134.61,-35.31 141.72,-43.17 145.07,-37.02"/>
<text text-anchor="middle" x="129.61" y="-39.11" font-family="Times,serif" font-size="14.00">1</text>
</g>
<!-- no3.AllocEntity -->
<g id="node3" class="node">
<title>no3.AllocEntity</title>
<g id="a_node3"><a xlink:href="no3.AllocEntity.svg" xlink:title="no3.AllocEntity">
<ellipse fill="green" stroke="black" cx="309.64" cy="-18" rx="81.79" ry="18"/>
<text text-anchor="middle" x="309.64" y="-14.3" font-family="Times,serif" font-size="14.00">no3.AllocEntity</text>
</a>
</g>
</g>
<!-- no3.EntityAlucardWaterEffect&#45;&gt;no3.AllocEntity -->
<g id="edge2" class="edge">
<title>no3.EntityAlucardWaterEffect&#45;&gt;no3.AllocEntity</title>
<path fill="none" stroke="black" d="M419.94,-179.93C398.45,-148.57 352.55,-81.6 327.26,-44.71"/>
<polygon fill="black" stroke="black" points="329.84,-42.29 321.3,-36.02 324.07,-46.24 329.84,-42.29"/>
<text text-anchor="middle" x="316.3" y="-39.82" font-family="Times,serif" font-size="14.00">6</text>
</g>
<!-- no3.CreateEntityFromEntity -->
<g id="node4" class="node">
<title>no3.CreateEntityFromEntity</title>
<g id="a_node4"><a xlink:href="no3.CreateEntityFromEntity.svg" xlink:title="no3.CreateEntityFromEntity">
<ellipse fill="green" stroke="black" cx="553.64" cy="-18" rx="144.07" ry="18"/>
<text text-anchor="middle" x="553.64" y="-14.3" font-family="Times,serif" font-size="14.00">no3.CreateEntityFromEntity</text>
</a>
</g>
</g>
<!-- no3.EntityAlucardWaterEffect&#45;&gt;no3.CreateEntityFromEntity -->
<g id="edge3" class="edge">
<title>no3.EntityAlucardWaterEffect&#45;&gt;no3.CreateEntityFromEntity</title>
<path fill="none" stroke="black" d="M443.34,-179.93C464.84,-148.57 510.73,-81.6 536.02,-44.71"/>
<polygon fill="black" stroke="black" points="539.21,-46.24 541.98,-36.02 533.44,-42.29 539.21,-46.24"/>
<text text-anchor="middle" x="536.98" y="-39.82" font-family="Times,serif" font-size="14.00">6</text>
</g>
<!-- no3.InitializeEntity -->
<g id="node5" class="node">
<title>no3.InitializeEntity</title>
<g id="a_node5"><a xlink:href="no3.InitializeEntity.svg" xlink:title="no3.InitializeEntity">
<ellipse fill="green" stroke="black" cx="815.64" cy="-18" rx="100.18" ry="18"/>
<text text-anchor="middle" x="815.64" y="-14.3" font-family="Times,serif" font-size="14.00">no3.InitializeEntity</text>
</a>
</g>
</g>
<!-- no3.EntityAlucardWaterEffect&#45;&gt;no3.InitializeEntity -->
<g id="edge4" class="edge">
<title>no3.EntityAlucardWaterEffect&#45;&gt;no3.InitializeEntity</title>
<path fill="none" stroke="black" d="M467.42,-180.41C538.04,-147.68 695.12,-74.87 771.81,-39.32"/>
<polygon fill="black" stroke="black" points="773.6,-42.35 781.2,-34.97 770.65,-36 773.6,-42.35"/>
<text text-anchor="middle" x="776.2" y="-38.77" font-family="Times,serif" font-size="14.00">1</text>
</g>
</g>
</svg>
