<?xml version="1.0" encoding="UTF-8" standalone="no"?>
<!DOCTYPE svg PUBLIC "-//W3C//DTD SVG 1.1//EN"
 "http://www.w3.org/Graphics/SVG/1.1/DTD/svg11.dtd">
<!-- Generated by graphviz version 2.43.0 (0)
 -->
<!-- Title: no3.SetStep Pages: 1 -->
<svg width="3891pt" height="224pt"
 viewBox="0.00 0.00 3890.98 224.00" xmlns="http://www.w3.org/2000/svg" xmlns:xlink="http://www.w3.org/1999/xlink">
<g id="graph0" class="graph" transform="scale(1 1) rotate(0) translate(4 220)">
<title>no3.SetStep</title>
<polygon fill="white" stroke="transparent" points="-4,4 -4,-220 3886.98,-220 3886.98,4 -4,4"/>
<!-- no3.SetStep -->
<g id="node1" class="node">
<title>no3.SetStep</title>
<ellipse fill="green" stroke="black" cx="2138.34" cy="-18" rx="67.69" ry="18"/>
<text text-anchor="middle" x="2138.34" y="-14.3" font-family="Times,serif" font-size="14.00">no3.SetStep</text>
</g>
<!-- no3.CollectSubweapon -->
<g id="node2" class="node">
<title>no3.CollectSubweapon</title>
<g id="a_node2"><a xlink:href="no3.CollectSubweapon.svg" xlink:title="no3.CollectSubweapon">
<ellipse fill="green" stroke="black" cx="116.34" cy="-198" rx="116.18" ry="18"/>
<text text-anchor="middle" x="116.34" y="-194.3" font-family="Times,serif" font-size="14.00">no3.CollectSubweapon</text>
</a>
</g>
</g>
<!-- no3.CollectSubweapon&#45;&gt;no3.SetStep -->
<g id="edge1" class="edge">
<title>no3.CollectSubweapon&#45;&gt;no3.SetStep</title>
<path fill="none" stroke="black" d="M198.63,-185.21C212.86,-183.34 227.52,-181.53 241.34,-180 948.55,-101.95 1807.74,-41.32 2063.25,-24"/>
<polygon fill="black" stroke="black" points="2063.79,-27.48 2073.53,-23.31 2063.32,-20.49 2063.79,-27.48"/>
<text text-anchor="middle" x="193.63" y="-174.01" font-family="Times,serif" font-size="14.00">1</text>
</g>
<!-- no3.EntityBackgroundLightning -->
<g id="node3" class="node">
<title>no3.EntityBackgroundLightning</title>
<g id="a_node3"><a xlink:href="no3.EntityBackgroundLightning.svg" xlink:title="no3.EntityBackgroundLightning">
<ellipse fill="red" stroke="black" cx="410.34" cy="-198" rx="159.77" ry="18"/>
<text text-anchor="middle" x="410.34" y="-194.3" font-family="Times,serif" font-size="14.00">no3.EntityBackgroundLightning</text>
</a>
</g>
</g>
<!-- no3.EntityBackgroundLightning&#45;&gt;no3.SetStep -->
<g id="edge2" class="edge">
<title>no3.EntityBackgroundLightning&#45;&gt;no3.SetStep</title>
<path fill="none" stroke="black" d="M524.05,-185.29C852.78,-151.42 1797.89,-54.07 2066.41,-26.41"/>
<polygon fill="black" stroke="black" points="2066.84,-29.88 2076.43,-25.38 2066.12,-22.92 2066.84,-29.88"/>
<text text-anchor="middle" x="519.05" y="-174.09" font-family="Times,serif" font-size="14.00">2</text>
</g>
<!-- no3.EntityBoneScimitar -->
<g id="node4" class="node">
<title>no3.EntityBoneScimitar</title>
<g id="a_node4"><a xlink:href="no3.EntityBoneScimitar.svg" xlink:title="no3.EntityBoneScimitar">
<ellipse fill="red" stroke="black" cx="710.34" cy="-198" rx="122.38" ry="18"/>
<text text-anchor="middle" x="710.34" y="-194.3" font-family="Times,serif" font-size="14.00">no3.EntityBoneScimitar</text>
</a>
</g>
</g>
<!-- no3.EntityBoneScimitar&#45;&gt;no3.SetStep -->
<g id="edge3" class="edge">
<title>no3.EntityBoneScimitar&#45;&gt;no3.SetStep</title>
<path fill="none" stroke="black" d="M798.41,-185.5C812.76,-183.65 827.46,-181.76 841.34,-180 1309.6,-120.55 1873.29,-51.41 2068.1,-27.58"/>
<polygon fill="black" stroke="black" points="2068.7,-31.03 2078.2,-26.34 2067.85,-24.08 2068.7,-31.03"/>
<text text-anchor="middle" x="793.41" y="-174.3" font-family="Times,serif" font-size="14.00">4</text>
</g>
<!-- no3.EntityEquipItemDrop -->
<g id="node5" class="node">
<title>no3.EntityEquipItemDrop</title>
<g id="a_node5"><a xlink:href="no3.EntityEquipItemDrop.svg" xlink:title="no3.EntityEquipItemDrop">
<ellipse fill="green" stroke="black" cx="981.34" cy="-198" rx="131.08" ry="18"/>
<text text-anchor="middle" x="981.34" y="-194.3" font-family="Times,serif" font-size="14.00">no3.EntityEquipItemDrop</text>
</a>
</g>
</g>
<!-- no3.EntityEquipItemDrop&#45;&gt;no3.SetStep -->
<g id="edge4" class="edge">
<title>no3.EntityEquipItemDrop&#45;&gt;no3.SetStep</title>
<path fill="none" stroke="black" d="M1065.01,-184.13C1284.28,-150.39 1872.3,-59.93 2071.38,-29.3"/>
<polygon fill="black" stroke="black" points="2072.06,-32.74 2081.41,-27.76 2071,-25.82 2072.06,-32.74"/>
<text text-anchor="middle" x="1060.01" y="-172.93" font-family="Times,serif" font-size="14.00">1</text>
</g>
<!-- no3.EntityFlyingOwlAndLeaves -->
<g id="node6" class="node">
<title>no3.EntityFlyingOwlAndLeaves</title>
<g id="a_node6"><a xlink:href="no3.EntityFlyingOwlAndLeaves.svg" xlink:title="no3.EntityFlyingOwlAndLeaves">
<ellipse fill="green" stroke="black" cx="1288.34" cy="-198" rx="157.07" ry="18"/>
<text text-anchor="middle" x="1288.34" y="-194.3" font-family="Times,serif" font-size="14.00">no3.EntityFlyingOwlAndLeaves</text>
</a>
</g>
</g>
<!-- no3.EntityFlyingOwlAndLeaves&#45;&gt;no3.SetStep -->
<g id="edge5" class="edge">
<title>no3.EntityFlyingOwlAndLeaves&#45;&gt;no3.SetStep</title>
<path fill="none" stroke="black" d="M1360.08,-181.98C1523.91,-147.67 1923.24,-64.04 2076.79,-31.89"/>
<polygon fill="black" stroke="black" points="2077.9,-35.23 2086.97,-29.76 2076.47,-28.38 2077.9,-35.23"/>
<text text-anchor="middle" x="1355.08" y="-170.78" font-family="Times,serif" font-size="14.00">1</text>
</g>
<!-- no3.EntityMerman -->
<g id="node7" class="node">
<title>no3.EntityMerman</title>
<g id="a_node7"><a xlink:href="no3.EntityMerman.svg" xlink:title="no3.EntityMerman">
<ellipse fill="red" stroke="black" cx="1562.34" cy="-198" rx="98.58" ry="18"/>
<text text-anchor="middle" x="1562.34" y="-194.3" font-family="Times,serif" font-size="14.00">no3.EntityMerman</text>
</a>
</g>
</g>
<!-- no3.EntityMerman&#45;&gt;no3.SetStep -->
<g id="edge6" class="edge">
<title>no3.EntityMerman&#45;&gt;no3.SetStep</title>
<path fill="none" stroke="black" d="M1610.46,-182.13C1717.67,-149 1975.45,-69.34 2086.26,-35.09"/>
<polygon fill="black" stroke="black" points="2087.37,-38.42 2095.89,-32.12 2085.3,-31.73 2087.37,-38.42"/>
<text text-anchor="middle" x="1605.46" y="-170.93" font-family="Times,serif" font-size="14.00">8</text>
</g>
<!-- no3.EntityMerman3 -->
<g id="node8" class="node">
<title>no3.EntityMerman3</title>
<g id="a_node8"><a xlink:href="no3.EntityMerman3.svg" xlink:title="no3.EntityMerman3">
<ellipse fill="red" stroke="black" cx="1783.34" cy="-198" rx="104.78" ry="18"/>
<text text-anchor="middle" x="1783.34" y="-194.3" font-family="Times,serif" font-size="14.00">no3.EntityMerman3</text>
</a>
</g>
</g>
<!-- no3.EntityMerman3&#45;&gt;no3.SetStep -->
<g id="edge7" class="edge">
<title>no3.EntityMerman3&#45;&gt;no3.SetStep</title>
<path fill="none" stroke="black" d="M1815.78,-180.73C1881.14,-147.96 2028.43,-74.11 2099.08,-38.68"/>
<polygon fill="black" stroke="black" points="2100.75,-41.76 2108.12,-34.15 2097.61,-35.51 2100.75,-41.76"/>
<text text-anchor="middle" x="1810.78" y="-169.53" font-family="Times,serif" font-size="14.00">7</text>
</g>
<!-- no3.EntityStrongWarg -->
<g id="node9" class="node">
<title>no3.EntityStrongWarg</title>
<g id="a_node9"><a xlink:href="no3.EntityStrongWarg.svg" xlink:title="no3.EntityStrongWarg">
<ellipse fill="red" stroke="black" cx="2021.34" cy="-198" rx="115.88" ry="18"/>
<text text-anchor="middle" x="2021.34" y="-194.3" font-family="Times,serif" font-size="14.00">no3.EntityStrongWarg</text>
</a>
</g>
</g>
<!-- no3.EntityStrongWarg&#45;&gt;no3.SetStep -->
<g id="edge8" class="edge">
<title>no3.EntityStrongWarg&#45;&gt;no3.SetStep</title>
<path fill="none" stroke="black" d="M2032.56,-179.93C2053.17,-148.57 2097.19,-81.6 2121.44,-44.71"/>
<polygon fill="black" stroke="black" points="2124.59,-46.29 2127.16,-36.02 2118.74,-42.45 2124.59,-46.29"/>
<text text-anchor="middle" x="2027.56" y="-168.73" font-family="Times,serif" font-size="14.00">6</text>
</g>
<!-- no3.EntityUnkId5A -->
<g id="node10" class="node">
<title>no3.EntityUnkId5A</title>
<g id="a_node10"><a xlink:href="no3.EntityUnkId5A.svg" xlink:title="no3.EntityUnkId5A">
<ellipse fill="red" stroke="black" cx="2255.34" cy="-198" rx="100.18" ry="18"/>
<text text-anchor="middle" x="2255.34" y="-194.3" font-family="Times,serif" font-size="14.00">no3.EntityUnkId5A</text>
</a>
</g>
</g>
<!-- no3.EntityUnkId5A&#45;&gt;no3.SetStep -->
<g id="edge9" class="edge">
<title>no3.EntityUnkId5A&#45;&gt;no3.SetStep</title>
<path fill="none" stroke="black" d="M2244.12,-179.93C2223.5,-148.57 2179.49,-81.6 2155.24,-44.71"/>
<polygon fill="black" stroke="black" points="2157.94,-42.45 2149.52,-36.02 2152.09,-46.29 2157.94,-42.45"/>
<text text-anchor="middle" x="2234.62" y="-168.73" font-family="Times,serif" font-size="14.00">17</text>
</g>
<!-- no3.EntityWarg -->
<g id="node11" class="node">
<title>no3.EntityWarg</title>
<g id="a_node11"><a xlink:href="no3.EntityWarg.svg" xlink:title="no3.EntityWarg">
<ellipse fill="red" stroke="black" cx="2457.34" cy="-198" rx="83.69" ry="18"/>
<text text-anchor="middle" x="2457.34" y="-194.3" font-family="Times,serif" font-size="14.00">no3.EntityWarg</text>
</a>
</g>
</g>
<!-- no3.EntityWarg&#45;&gt;no3.SetStep -->
<g id="edge10" class="edge">
<title>no3.EntityWarg&#45;&gt;no3.SetStep</title>
<path fill="none" stroke="black" d="M2428.75,-181.05C2370.74,-148.68 2239.27,-75.32 2175.04,-39.48"/>
<polygon fill="black" stroke="black" points="2176.51,-36.29 2166.07,-34.47 2173.1,-42.4 2176.51,-36.29"/>
<text text-anchor="middle" x="2423.75" y="-169.85" font-family="Times,serif" font-size="14.00">4</text>
</g>
<!-- no3.EntityZombie -->
<g id="node12" class="node">
<title>no3.EntityZombie</title>
<g id="a_node12"><a xlink:href="no3.EntityZombie.svg" xlink:title="no3.EntityZombie">
<ellipse fill="green" stroke="black" cx="2653.34" cy="-198" rx="94.48" ry="18"/>
<text text-anchor="middle" x="2653.34" y="-194.3" font-family="Times,serif" font-size="14.00">no3.EntityZombie</text>
</a>
</g>
</g>
<!-- no3.EntityZombie&#45;&gt;no3.SetStep -->
<g id="edge11" class="edge">
<title>no3.EntityZombie&#45;&gt;no3.SetStep</title>
<path fill="none" stroke="black" d="M2609.87,-181.98C2514.59,-149.04 2287.85,-70.68 2187.54,-36"/>
<polygon fill="black" stroke="black" points="2188.54,-32.65 2177.94,-32.69 2186.25,-39.26 2188.54,-32.65"/>
<text text-anchor="middle" x="2604.87" y="-170.78" font-family="Times,serif" font-size="14.00">2</text>
</g>
<!-- no3.func_801CC6F8 -->
<g id="node13" class="node">
<title>no3.func_801CC6F8</title>
<g id="a_node13"><a xlink:href="no3.func_801CC6F8.svg" xlink:title="no3.func_801CC6F8">
<ellipse fill="red" stroke="black" cx="2870.34" cy="-198" rx="104.78" ry="18"/>
<text text-anchor="middle" x="2870.34" y="-194.3" font-family="Times,serif" font-size="14.00">no3.func_801CC6F8</text>
</a>
</g>
</g>
<!-- no3.func_801CC6F8&#45;&gt;no3.SetStep -->
<g id="edge12" class="edge">
<title>no3.func_801CC6F8&#45;&gt;no3.SetStep</title>
<path fill="none" stroke="black" d="M2812.6,-182.96C2675.91,-149.72 2333.79,-66.53 2196.59,-33.17"/>
<polygon fill="black" stroke="black" points="2197.23,-29.72 2186.69,-30.76 2195.58,-36.52 2197.23,-29.72"/>
<text text-anchor="middle" x="2807.6" y="-171.76" font-family="Times,serif" font-size="14.00">4</text>
</g>
<!-- no3.func_801CC820 -->
<g id="node14" class="node">
<title>no3.func_801CC820</title>
<g id="a_node14"><a xlink:href="no3.func_801CC820.svg" xlink:title="no3.func_801CC820">
<ellipse fill="red" stroke="black" cx="3097.34" cy="-198" rx="103.98" ry="18"/>
<text text-anchor="middle" x="3097.34" y="-194.3" font-family="Times,serif" font-size="14.00">no3.func_801CC820</text>
</a>
</g>
</g>
<!-- no3.func_801CC820&#45;&gt;no3.SetStep -->
<g id="edge13" class="edge">
<title>no3.func_801CC820&#45;&gt;no3.SetStep</title>
<path fill="none" stroke="black" d="M3029.14,-184.34C2851.25,-151.32 2374.96,-62.92 2202.12,-30.84"/>
<polygon fill="black" stroke="black" points="2202.63,-27.37 2192.16,-28.99 2201.35,-34.26 2202.63,-27.37"/>
<text text-anchor="middle" x="3024.14" y="-173.14" font-family="Times,serif" font-size="14.00">3</text>
</g>
<!-- no3.func_801CF58C -->
<g id="node15" class="node">
<title>no3.func_801CF58C</title>
<g id="a_node15"><a xlink:href="no3.func_801CF58C.svg" xlink:title="no3.func_801CF58C">
<ellipse fill="green" stroke="black" cx="3324.34" cy="-198" rx="104.78" ry="18"/>
<text text-anchor="middle" x="3324.34" y="-194.3" font-family="Times,serif" font-size="14.00">no3.func_801CF58C</text>
</a>
</g>
</g>
<!-- no3.func_801CF58C&#45;&gt;no3.SetStep -->
<g id="edge14" class="edge">
<title>no3.func_801CF58C&#45;&gt;no3.SetStep</title>
<path fill="none" stroke="black" d="M3248.35,-185.59C3031.4,-153.03 2411.62,-60.01 2205.74,-29.12"/>
<polygon fill="black" stroke="black" points="2206.08,-25.63 2195.67,-27.6 2205.04,-32.55 2206.08,-25.63"/>
<text text-anchor="middle" x="3243.35" y="-174.39" font-family="Times,serif" font-size="14.00">1</text>
</g>
<!-- no3.func_801CF5E0 -->
<g id="node16" class="node">
<title>no3.func_801CF5E0</title>
<g id="a_node16"><a xlink:href="no3.func_801CF5E0.svg" xlink:title="no3.func_801CF5E0">
<ellipse fill="green" stroke="black" cx="3551.34" cy="-198" rx="104.78" ry="18"/>
<text text-anchor="middle" x="3551.34" y="-194.3" font-family="Times,serif" font-size="14.00">no3.func_801CF5E0</text>
</a>
</g>
</g>
<!-- no3.func_801CF5E0&#45;&gt;no3.SetStep -->
<g id="edge15" class="edge">
<title>no3.func_801CF5E0&#45;&gt;no3.SetStep</title>
<path fill="none" stroke="black" d="M3476.31,-185.43C3463.65,-183.56 3450.62,-181.68 3438.34,-180 2969.91,-115.77 2404.91,-49.68 2209.15,-27.11"/>
<polygon fill="black" stroke="black" points="2209.34,-23.61 2199,-25.94 2208.53,-30.56 2209.34,-23.61"/>
<text text-anchor="middle" x="3471.31" y="-174.23" font-family="Times,serif" font-size="14.00">4</text>
</g>
<!-- no3.func_801D59D0 -->
<g id="node17" class="node">
<title>no3.func_801D59D0</title>
<g id="a_node17"><a xlink:href="no3.func_801D59D0.svg" xlink:title="no3.func_801D59D0">
<ellipse fill="green" stroke="black" cx="3778.34" cy="-198" rx="104.78" ry="18"/>
<text text-anchor="middle" x="3778.34" y="-194.3" font-family="Times,serif" font-size="14.00">no3.func_801D59D0</text>
</a>
</g>
</g>
<!-- no3.func_801D59D0&#45;&gt;no3.SetStep -->
<g id="edge16" class="edge">
<title>no3.func_801D59D0&#45;&gt;no3.SetStep</title>
<path fill="none" stroke="black" d="M3703.95,-185.33C3691.08,-183.45 3677.84,-181.6 3665.34,-180 3107.35,-108.65 2431.68,-45.53 2211.5,-25.55"/>
<polygon fill="black" stroke="black" points="2211.64,-22.05 2201.36,-24.64 2211.01,-29.02 2211.64,-22.05"/>
<text text-anchor="middle" x="3698.95" y="-174.13" font-family="Times,serif" font-size="14.00">2</text>
</g>
</g>
</svg>
