<?xml version="1.0" encoding="UTF-8" standalone="no"?>
<!DOCTYPE svg PUBLIC "-//W3C//DTD SVG 1.1//EN"
 "http://www.w3.org/Graphics/SVG/1.1/DTD/svg11.dtd">
<!-- Generated by graphviz version 2.43.0 (0)
 -->
<!-- Title: no3.CreateEntityFromCurrentEntity Pages: 1 -->
<svg width="5134pt" height="218pt"
 viewBox="0.00 0.00 5133.53 218.00" xmlns="http://www.w3.org/2000/svg" xmlns:xlink="http://www.w3.org/1999/xlink">
<g id="graph0" class="graph" transform="scale(1 1) rotate(0) translate(4 214)">
<title>no3.CreateEntityFromCurrentEntity</title>
<polygon fill="white" stroke="transparent" points="-4,4 -4,-214 5129.53,-214 5129.53,4 -4,4"/>
<!-- no3.CreateEntityFromCurrentEntity -->
<g id="node1" class="node">
<title>no3.CreateEntityFromCurrentEntity</title>
<ellipse fill="green" stroke="black" cx="2614.09" cy="-105" rx="180.87" ry="18"/>
<text text-anchor="middle" x="2614.09" y="-101.3" font-family="Times,serif" font-size="14.00">no3.CreateEntityFromCurrentEntity</text>
</g>
<!-- no3.DestroyEntity -->
<g id="node2" class="node">
<title>no3.DestroyEntity</title>
<g id="a_node2"><a xlink:href="no3.DestroyEntity.svg" xlink:title="no3.DestroyEntity">
<ellipse fill="green" stroke="black" cx="2614.09" cy="-18" rx="96.38" ry="18"/>
<text text-anchor="middle" x="2614.09" y="-14.3" font-family="Times,serif" font-size="14.00">no3.DestroyEntity</text>
</a>
</g>
</g>
<!-- no3.CreateEntityFromCurrentEntity&#45;&gt;no3.DestroyEntity -->
<g id="edge1" class="edge">
<title>no3.CreateEntityFromCurrentEntity&#45;&gt;no3.DestroyEntity</title>
<path fill="none" stroke="black" d="M2614.09,-86.8C2614.09,-75.16 2614.09,-59.55 2614.09,-46.24"/>
<polygon fill="black" stroke="black" points="2617.59,-46.18 2614.09,-36.18 2610.59,-46.18 2617.59,-46.18"/>
<text text-anchor="middle" x="2619.09" y="-57.8" font-family="Times,serif" font-size="14.00">1</text>
</g>
<!-- no3.EntityUnkId5A -->
<g id="node3" class="node">
<title>no3.EntityUnkId5A</title>
<g id="a_node3"><a xlink:href="no3.EntityUnkId5A.svg" xlink:title="no3.EntityUnkId5A">
<ellipse fill="red" stroke="black" cx="100.09" cy="-192" rx="100.18" ry="18"/>
<text text-anchor="middle" x="100.09" y="-188.3" font-family="Times,serif" font-size="14.00">no3.EntityUnkId5A</text>
</a>
</g>
</g>
<!-- no3.EntityUnkId5A&#45;&gt;no3.CreateEntityFromCurrentEntity -->
<g id="edge2" class="edge">
<title>no3.EntityUnkId5A&#45;&gt;no3.CreateEntityFromCurrentEntity</title>
<path fill="none" stroke="black" d="M170.33,-179.14C183.2,-177.23 196.53,-175.41 209.09,-174 419.83,-150.31 473.23,-150.26 685.09,-141 1321.52,-113.18 2076.98,-107.38 2423.36,-106.23"/>
<polygon fill="black" stroke="black" points="2423.5,-109.73 2433.49,-106.2 2423.47,-102.73 2423.5,-109.73"/>
<text text-anchor="middle" x="690.09" y="-144.8" font-family="Times,serif" font-size="14.00">3</text>
</g>
<!-- no3.EntityRoomTransition2 -->
<g id="node4" class="node">
<title>no3.EntityRoomTransition2</title>
<g id="a_node4"><a xlink:href="no3.EntityRoomTransition2.svg" xlink:title="no3.EntityRoomTransition2">
<ellipse fill="green" stroke="black" cx="357.09" cy="-192" rx="139.18" ry="18"/>
<text text-anchor="middle" x="357.09" y="-188.3" font-family="Times,serif" font-size="14.00">no3.EntityRoomTransition2</text>
</a>
</g>
</g>
<!-- no3.EntityRoomTransition2&#45;&gt;no3.CreateEntityFromCurrentEntity -->
<g id="edge3" class="edge">
<title>no3.EntityRoomTransition2&#45;&gt;no3.CreateEntityFromCurrentEntity</title>
<path fill="none" stroke="black" d="M455.36,-179.22C471.95,-177.38 489,-175.56 505.09,-174 689.25,-156.11 735.3,-150.25 920.09,-141 1465.22,-113.72 2110.04,-107.6 2423.67,-106.29"/>
<polygon fill="black" stroke="black" points="2423.78,-109.79 2433.77,-106.25 2423.75,-102.79 2423.78,-109.79"/>
<text text-anchor="middle" x="925.09" y="-144.8" font-family="Times,serif" font-size="14.00">1</text>
</g>
<!-- no3.EntityUnkId5B -->
<g id="node5" class="node">
<title>no3.EntityUnkId5B</title>
<g id="a_node5"><a xlink:href="no3.EntityUnkId5B.svg" xlink:title="no3.EntityUnkId5B">
<ellipse fill="green" stroke="black" cx="615.09" cy="-192" rx="100.98" ry="18"/>
<text text-anchor="middle" x="615.09" y="-188.3" font-family="Times,serif" font-size="14.00">no3.EntityUnkId5B</text>
</a>
</g>
</g>
<!-- no3.EntityUnkId5B&#45;&gt;no3.CreateEntityFromCurrentEntity -->
<g id="edge4" class="edge">
<title>no3.EntityUnkId5B&#45;&gt;no3.CreateEntityFromCurrentEntity</title>
<path fill="none" stroke="black" d="M685.67,-179.07C698.75,-177.15 712.31,-175.35 725.09,-174 978.76,-147.16 1043.23,-151.73 1298.09,-141 1700.46,-124.07 2172.41,-113.86 2427.52,-109.15"/>
<polygon fill="black" stroke="black" points="2427.69,-112.64 2437.62,-108.96 2427.56,-105.64 2427.69,-112.64"/>
<text text-anchor="middle" x="1303.09" y="-144.8" font-family="Times,serif" font-size="14.00">1</text>
</g>
<!-- no3.EntityFlyingOwlAndLeaves -->
<g id="node6" class="node">
<title>no3.EntityFlyingOwlAndLeaves</title>
<g id="a_node6"><a xlink:href="no3.EntityFlyingOwlAndLeaves.svg" xlink:title="no3.EntityFlyingOwlAndLeaves">
<ellipse fill="green" stroke="black" cx="891.09" cy="-192" rx="157.07" ry="18"/>
<text text-anchor="middle" x="891.09" y="-188.3" font-family="Times,serif" font-size="14.00">no3.EntityFlyingOwlAndLeaves</text>
</a>
</g>
</g>
<!-- no3.EntityFlyingOwlAndLeaves&#45;&gt;no3.CreateEntityFromCurrentEntity -->
<g id="edge5" class="edge">
<title>no3.EntityFlyingOwlAndLeaves&#45;&gt;no3.CreateEntityFromCurrentEntity</title>
<path fill="none" stroke="black" d="M1001.31,-179.1C1019.92,-177.27 1039.05,-175.49 1057.09,-174 1551.26,-133.12 2135.83,-115.92 2428.12,-109.45"/>
<polygon fill="black" stroke="black" points="2428.47,-112.94 2438.39,-109.22 2428.32,-105.94 2428.47,-112.94"/>
<text text-anchor="middle" x="1533.09" y="-144.8" font-family="Times,serif" font-size="14.00">1</text>
</g>
<!-- no3.EntityRoomTransition1 -->
<g id="node7" class="node">
<title>no3.EntityRoomTransition1</title>
<g id="a_node7"><a xlink:href="no3.EntityRoomTransition1.svg" xlink:title="no3.EntityRoomTransition1">
<ellipse fill="red" stroke="black" cx="1205.09" cy="-192" rx="139.18" ry="18"/>
<text text-anchor="middle" x="1205.09" y="-188.3" font-family="Times,serif" font-size="14.00">no3.EntityRoomTransition1</text>
</a>
</g>
</g>
<!-- no3.EntityRoomTransition1&#45;&gt;no3.CreateEntityFromCurrentEntity -->
<g id="edge6" class="edge">
<title>no3.EntityRoomTransition1&#45;&gt;no3.CreateEntityFromCurrentEntity</title>
<path fill="none" stroke="black" d="M1302.54,-179.12C1319.39,-177.26 1336.73,-175.47 1353.09,-174 1737.53,-139.41 2189.61,-120.23 2434.46,-111.63"/>
<polygon fill="black" stroke="black" points="2434.65,-115.13 2444.52,-111.28 2434.41,-108.13 2434.65,-115.13"/>
<text text-anchor="middle" x="1809.09" y="-144.8" font-family="Times,serif" font-size="14.00">1</text>
</g>
<!-- no3.EntityStrongWargWaveAttack -->
<g id="node8" class="node">
<title>no3.EntityStrongWargWaveAttack</title>
<g id="a_node8"><a xlink:href="no3.EntityStrongWargWaveAttack.svg" xlink:title="no3.EntityStrongWargWaveAttack">
<ellipse fill="red" stroke="black" cx="1532.09" cy="-192" rx="170.07" ry="18"/>
<text text-anchor="middle" x="1532.09" y="-188.3" font-family="Times,serif" font-size="14.00">no3.EntityStrongWargWaveAttack</text>
</a>
</g>
</g>
<!-- no3.EntityStrongWargWaveAttack&#45;&gt;no3.CreateEntityFromCurrentEntity -->
<g id="edge7" class="edge">
<title>no3.EntityStrongWargWaveAttack&#45;&gt;no3.CreateEntityFromCurrentEntity</title>
<path fill="none" stroke="black" d="M1645.98,-178.57C1748.86,-167.63 1904.49,-151.8 2040.09,-141 2177.03,-130.09 2332.59,-120.8 2447.19,-114.53"/>
<polygon fill="black" stroke="black" points="2447.66,-118.01 2457.45,-113.98 2447.28,-111.02 2447.66,-118.01"/>
<text text-anchor="middle" x="2045.09" y="-144.8" font-family="Times,serif" font-size="14.00">1</text>
</g>
<!-- no3.EntityWarg -->
<g id="node9" class="node">
<title>no3.EntityWarg</title>
<g id="a_node9"><a xlink:href="no3.EntityWarg.svg" xlink:title="no3.EntityWarg">
<ellipse fill="red" stroke="black" cx="1804.09" cy="-192" rx="83.69" ry="18"/>
<text text-anchor="middle" x="1804.09" y="-188.3" font-family="Times,serif" font-size="14.00">no3.EntityWarg</text>
</a>
</g>
</g>
<!-- no3.EntityWarg&#45;&gt;no3.CreateEntityFromCurrentEntity -->
<g id="edge8" class="edge">
<title>no3.EntityWarg&#45;&gt;no3.CreateEntityFromCurrentEntity</title>
<path fill="none" stroke="black" d="M1864,-179.26C1874.98,-177.34 1886.36,-175.49 1897.09,-174 2090.46,-147.21 2314.66,-127.8 2460.15,-116.74"/>
<polygon fill="black" stroke="black" points="2460.78,-120.2 2470.49,-115.96 2460.25,-113.22 2460.78,-120.2"/>
<text text-anchor="middle" x="2178.09" y="-144.8" font-family="Times,serif" font-size="14.00">2</text>
</g>
<!-- no3.EntityStrongWarg -->
<g id="node10" class="node">
<title>no3.EntityStrongWarg</title>
<g id="a_node10"><a xlink:href="no3.EntityStrongWarg.svg" xlink:title="no3.EntityStrongWarg">
<ellipse fill="red" stroke="black" cx="2022.09" cy="-192" rx="115.88" ry="18"/>
<text text-anchor="middle" x="2022.09" y="-188.3" font-family="Times,serif" font-size="14.00">no3.EntityStrongWarg</text>
</a>
</g>
</g>
<!-- no3.EntityStrongWarg&#45;&gt;no3.CreateEntityFromCurrentEntity -->
<g id="edge9" class="edge">
<title>no3.EntityStrongWarg&#45;&gt;no3.CreateEntityFromCurrentEntity</title>
<path fill="none" stroke="black" d="M2104.1,-179.23C2208.66,-164.21 2389.77,-138.21 2505.66,-121.57"/>
<polygon fill="black" stroke="black" points="2506.22,-125.02 2515.62,-120.14 2505.22,-118.1 2506.22,-125.02"/>
<text text-anchor="middle" x="2359.09" y="-144.8" font-family="Times,serif" font-size="14.00">4</text>
</g>
<!-- no3.EntityLargeUpwardsSplash -->
<g id="node11" class="node">
<title>no3.EntityLargeUpwardsSplash</title>
<g id="a_node11"><a xlink:href="no3.EntityLargeUpwardsSplash.svg" xlink:title="no3.EntityLargeUpwardsSplash">
<ellipse fill="red" stroke="black" cx="2315.09" cy="-192" rx="159.47" ry="18"/>
<text text-anchor="middle" x="2315.09" y="-188.3" font-family="Times,serif" font-size="14.00">no3.EntityLargeUpwardsSplash</text>
</a>
</g>
</g>
<!-- no3.EntityLargeUpwardsSplash&#45;&gt;no3.CreateEntityFromCurrentEntity -->
<g id="edge10" class="edge">
<title>no3.EntityLargeUpwardsSplash&#45;&gt;no3.CreateEntityFromCurrentEntity</title>
<path fill="none" stroke="black" d="M2370.98,-175.11C2421.1,-160.86 2494.72,-139.94 2547.8,-124.85"/>
<polygon fill="black" stroke="black" points="2548.8,-128.2 2557.46,-122.1 2546.88,-121.47 2548.8,-128.2"/>
<text text-anchor="middle" x="2488.09" y="-144.8" font-family="Times,serif" font-size="14.00">1</text>
</g>
<!-- no3.EntityBoneScimitar -->
<g id="node12" class="node">
<title>no3.EntityBoneScimitar</title>
<g id="a_node12"><a xlink:href="no3.EntityBoneScimitar.svg" xlink:title="no3.EntityBoneScimitar">
<ellipse fill="red" stroke="black" cx="2614.09" cy="-192" rx="122.38" ry="18"/>
<text text-anchor="middle" x="2614.09" y="-188.3" font-family="Times,serif" font-size="14.00">no3.EntityBoneScimitar</text>
</a>
</g>
</g>
<!-- no3.EntityBoneScimitar&#45;&gt;no3.CreateEntityFromCurrentEntity -->
<g id="edge11" class="edge">
<title>no3.EntityBoneScimitar&#45;&gt;no3.CreateEntityFromCurrentEntity</title>
<path fill="none" stroke="black" d="M2614.09,-173.8C2614.09,-162.16 2614.09,-146.55 2614.09,-133.24"/>
<polygon fill="black" stroke="black" points="2617.59,-133.18 2614.09,-123.18 2610.59,-133.18 2617.59,-133.18"/>
<text text-anchor="middle" x="2619.09" y="-144.8" font-family="Times,serif" font-size="14.00">1</text>
</g>
<!-- no3.EntityExplosion3 -->
<g id="node13" class="node">
<title>no3.EntityExplosion3</title>
<g id="a_node13"><a xlink:href="no3.EntityExplosion3.svg" xlink:title="no3.EntityExplosion3">
<ellipse fill="red" stroke="black" cx="2865.09" cy="-192" rx="110.48" ry="18"/>
<text text-anchor="middle" x="2865.09" y="-188.3" font-family="Times,serif" font-size="14.00">no3.EntityExplosion3</text>
</a>
</g>
</g>
<!-- no3.EntityExplosion3&#45;&gt;no3.CreateEntityFromCurrentEntity -->
<g id="edge12" class="edge">
<title>no3.EntityExplosion3&#45;&gt;no3.CreateEntityFromCurrentEntity</title>
<path fill="none" stroke="black" d="M2819.35,-175.51C2777.98,-161.5 2716.88,-140.81 2672.1,-125.64"/>
<polygon fill="black" stroke="black" points="2673.11,-122.29 2662.52,-122.4 2670.87,-128.92 2673.11,-122.29"/>
<text text-anchor="middle" x="2760.09" y="-144.8" font-family="Times,serif" font-size="14.00">2</text>
</g>
<!-- no3.EntityMermanSpawner -->
<g id="node14" class="node">
<title>no3.EntityMermanSpawner</title>
<g id="a_node14"><a xlink:href="no3.EntityMermanSpawner.svg" xlink:title="no3.EntityMermanSpawner">
<ellipse fill="red" stroke="black" cx="3133.09" cy="-192" rx="139.98" ry="18"/>
<text text-anchor="middle" x="3133.09" y="-188.3" font-family="Times,serif" font-size="14.00">no3.EntityMermanSpawner</text>
</a>
</g>
</g>
<!-- no3.EntityMermanSpawner&#45;&gt;no3.CreateEntityFromCurrentEntity -->
<g id="edge13" class="edge">
<title>no3.EntityMermanSpawner&#45;&gt;no3.CreateEntityFromCurrentEntity</title>
<path fill="none" stroke="black" d="M3050.28,-177.44C2958.7,-162.44 2811.2,-138.28 2713.46,-122.27"/>
<polygon fill="black" stroke="black" points="2714,-118.82 2703.57,-120.65 2712.87,-125.72 2714,-118.82"/>
<text text-anchor="middle" x="2910.09" y="-144.8" font-family="Times,serif" font-size="14.00">2</text>
</g>
<!-- no3.EntityUnkId31 -->
<g id="node15" class="node">
<title>no3.EntityUnkId31</title>
<g id="a_node15"><a xlink:href="no3.EntityUnkId31.svg" xlink:title="no3.EntityUnkId31">
<ellipse fill="red" stroke="black" cx="3390.09" cy="-192" rx="99.38" ry="18"/>
<text text-anchor="middle" x="3390.09" y="-188.3" font-family="Times,serif" font-size="14.00">no3.EntityUnkId31</text>
</a>
</g>
</g>
<!-- no3.EntityUnkId31&#45;&gt;no3.CreateEntityFromCurrentEntity -->
<g id="edge14" class="edge">
<title>no3.EntityUnkId31&#45;&gt;no3.CreateEntityFromCurrentEntity</title>
<path fill="none" stroke="black" d="M3319.3,-179.29C3306.91,-177.4 3294.14,-175.56 3282.09,-174 3101.07,-150.56 2891.59,-130.35 2756.18,-118.19"/>
<polygon fill="black" stroke="black" points="2756.43,-114.7 2746.15,-117.3 2755.8,-121.67 2756.43,-114.7"/>
<text text-anchor="middle" x="3123.09" y="-144.8" font-family="Times,serif" font-size="14.00">3</text>
</g>
<!-- no3.EntityBreakable -->
<g id="node16" class="node">
<title>no3.EntityBreakable</title>
<g id="a_node16"><a xlink:href="no3.EntityBreakable.svg" xlink:title="no3.EntityBreakable">
<ellipse fill="green" stroke="black" cx="3614.09" cy="-192" rx="106.68" ry="18"/>
<text text-anchor="middle" x="3614.09" y="-188.3" font-family="Times,serif" font-size="14.00">no3.EntityBreakable</text>
</a>
</g>
</g>
<!-- no3.EntityBreakable&#45;&gt;no3.CreateEntityFromCurrentEntity -->
<g id="edge15" class="edge">
<title>no3.EntityBreakable&#45;&gt;no3.CreateEntityFromCurrentEntity</title>
<path fill="none" stroke="black" d="M3538.36,-179.28C3524.96,-177.39 3511.13,-175.54 3498.09,-174 3248.8,-144.52 2958.38,-125 2780.4,-114.72"/>
<polygon fill="black" stroke="black" points="2780.34,-111.21 2770.16,-114.13 2779.94,-118.2 2780.34,-111.21"/>
<text text-anchor="middle" x="3335.09" y="-144.8" font-family="Times,serif" font-size="14.00">1</text>
</g>
<!-- no3.EntityBackgroundLightning -->
<g id="node17" class="node">
<title>no3.EntityBackgroundLightning</title>
<g id="a_node17"><a xlink:href="no3.EntityBackgroundLightning.svg" xlink:title="no3.EntityBackgroundLightning">
<ellipse fill="red" stroke="black" cx="3898.09" cy="-192" rx="159.77" ry="18"/>
<text text-anchor="middle" x="3898.09" y="-188.3" font-family="Times,serif" font-size="14.00">no3.EntityBackgroundLightning</text>
</a>
</g>
</g>
<!-- no3.EntityBackgroundLightning&#45;&gt;no3.CreateEntityFromCurrentEntity -->
<g id="edge16" class="edge">
<title>no3.EntityBackgroundLightning&#45;&gt;no3.CreateEntityFromCurrentEntity</title>
<path fill="none" stroke="black" d="M3784.7,-179.28C3766.45,-177.47 3747.75,-175.65 3730.09,-174 3558.65,-158 3515.89,-152.46 3344.09,-141 3154.9,-128.38 2937.83,-118.57 2789.9,-112.59"/>
<polygon fill="black" stroke="black" points="2789.94,-109.08 2779.81,-112.18 2789.66,-116.08 2789.94,-109.08"/>
<text text-anchor="middle" x="3543.09" y="-144.8" font-family="Times,serif" font-size="14.00">2</text>
</g>
<!-- no3.EntityForegroundTree -->
<g id="node18" class="node">
<title>no3.EntityForegroundTree</title>
<g id="a_node18"><a xlink:href="no3.EntityForegroundTree.svg" xlink:title="no3.EntityForegroundTree">
<ellipse fill="red" stroke="black" cx="4210.09" cy="-192" rx="134.58" ry="18"/>
<text text-anchor="middle" x="4210.09" y="-188.3" font-family="Times,serif" font-size="14.00">no3.EntityForegroundTree</text>
</a>
</g>
</g>
<!-- no3.EntityForegroundTree&#45;&gt;no3.CreateEntityFromCurrentEntity -->
<g id="edge17" class="edge">
<title>no3.EntityForegroundTree&#45;&gt;no3.CreateEntityFromCurrentEntity</title>
<path fill="none" stroke="black" d="M4115.94,-179.07C4099.67,-177.22 4082.9,-175.45 4067.09,-174 3613.11,-132.5 3076.89,-115.72 2800.15,-109.43"/>
<polygon fill="black" stroke="black" points="2800.09,-105.92 2790.01,-109.2 2799.93,-112.92 2800.09,-105.92"/>
<text text-anchor="middle" x="3835.09" y="-144.8" font-family="Times,serif" font-size="14.00">2</text>
</g>
<!-- no3.EntityUnkId52 -->
<g id="node19" class="node">
<title>no3.EntityUnkId52</title>
<g id="a_node19"><a xlink:href="no3.EntityUnkId52.svg" xlink:title="no3.EntityUnkId52">
<ellipse fill="green" stroke="black" cx="4462.09" cy="-192" rx="99.38" ry="18"/>
<text text-anchor="middle" x="4462.09" y="-188.3" font-family="Times,serif" font-size="14.00">no3.EntityUnkId52</text>
</a>
</g>
</g>
<!-- no3.EntityUnkId52&#45;&gt;no3.CreateEntityFromCurrentEntity -->
<g id="edge18" class="edge">
<title>no3.EntityUnkId52&#45;&gt;no3.CreateEntityFromCurrentEntity</title>
<path fill="none" stroke="black" d="M4392.5,-179.09C4379.75,-177.18 4366.54,-175.38 4354.09,-174 4128.33,-148.98 4070.99,-151.57 3844.09,-141 3474.36,-123.78 3041.68,-113.84 2800.62,-109.21"/>
<polygon fill="black" stroke="black" points="2800.42,-105.71 2790.35,-109.01 2800.29,-112.7 2800.42,-105.71"/>
<text text-anchor="middle" x="4165.09" y="-144.8" font-family="Times,serif" font-size="14.00">2</text>
</g>
<!-- no3.EntityBackgroundCastleWall -->
<g id="node20" class="node">
<title>no3.EntityBackgroundCastleWall</title>
<g id="a_node20"><a xlink:href="no3.EntityBackgroundCastleWall.svg" xlink:title="no3.EntityBackgroundCastleWall">
<ellipse fill="green" stroke="black" cx="4744.09" cy="-192" rx="164.37" ry="18"/>
<text text-anchor="middle" x="4744.09" y="-188.3" font-family="Times,serif" font-size="14.00">no3.EntityBackgroundCastleWall</text>
</a>
</g>
</g>
<!-- no3.EntityBackgroundCastleWall&#45;&gt;no3.CreateEntityFromCurrentEntity -->
<g id="edge19" class="edge">
<title>no3.EntityBackgroundCastleWall&#45;&gt;no3.CreateEntityFromCurrentEntity</title>
<path fill="none" stroke="black" d="M4631.77,-178.83C4516.93,-166.93 4333.31,-149.41 4174.09,-141 3680.82,-114.94 3098.82,-108.25 2804.72,-106.55"/>
<polygon fill="black" stroke="black" points="2804.4,-103.05 2794.38,-106.49 2804.36,-110.05 2804.4,-103.05"/>
<text text-anchor="middle" x="4384.09" y="-144.8" font-family="Times,serif" font-size="14.00">2</text>
</g>
<!-- no3.EntityUnkId50 -->
<g id="node21" class="node">
<title>no3.EntityUnkId50</title>
<g id="a_node21"><a xlink:href="no3.EntityUnkId50.svg" xlink:title="no3.EntityUnkId50">
<ellipse fill="green" stroke="black" cx="5026.09" cy="-192" rx="99.38" ry="18"/>
<text text-anchor="middle" x="5026.09" y="-188.3" font-family="Times,serif" font-size="14.00">no3.EntityUnkId50</text>
</a>
</g>
</g>
<!-- no3.EntityUnkId50&#45;&gt;no3.CreateEntityFromCurrentEntity -->
<g id="edge20" class="edge">
<title>no3.EntityUnkId50&#45;&gt;no3.CreateEntityFromCurrentEntity</title>
<path fill="none" stroke="black" d="M4956.15,-179.12C4943.19,-177.19 4929.75,-175.38 4917.09,-174 4685.12,-148.66 4626.24,-150.63 4393.09,-141 3814.67,-117.11 3129.77,-109.44 2804.25,-107.05"/>
<polygon fill="black" stroke="black" points="2803.8,-103.54 2793.77,-106.97 2803.75,-110.54 2803.8,-103.54"/>
<text text-anchor="middle" x="4722.09" y="-144.8" font-family="Times,serif" font-size="14.00">2</text>
</g>
</g>
</svg>
