<?xml version="1.0" encoding="UTF-8" standalone="no"?>
<!DOCTYPE svg PUBLIC "-//W3C//DTD SVG 1.1//EN"
 "http://www.w3.org/Graphics/SVG/1.1/DTD/svg11.dtd">
<!-- Generated by graphviz version 2.43.0 (0)
 -->
<!-- Title: no3.EntityMermanRockLeftSide Pages: 1 -->
<svg width="998pt" height="224pt"
 viewBox="0.00 0.00 997.99 224.00" xmlns="http://www.w3.org/2000/svg" xmlns:xlink="http://www.w3.org/1999/xlink">
<g id="graph0" class="graph" transform="scale(1 1) rotate(0) translate(4 220)">
<title>no3.EntityMermanRockLeftSide</title>
<polygon fill="white" stroke="transparent" points="-4,4 -4,-220 993.99,-220 993.99,4 -4,4"/>
<!-- no3.EntityMermanRockLeftSide -->
<g id="node1" class="node">
<title>no3.EntityMermanRockLeftSide</title>
<ellipse fill="green" stroke="black" cx="446.09" cy="-198" rx="159.77" ry="18"/>
<text text-anchor="middle" x="446.09" y="-194.3" font-family="Times,serif" font-size="14.00">no3.EntityMermanRockLeftSide</text>
</g>
<!-- no3.InitializeEntity -->
<g id="node2" class="node">
<title>no3.InitializeEntity</title>
<g id="a_node2"><a xlink:href="no3.InitializeEntity.svg" xlink:title="no3.InitializeEntity">
<ellipse fill="green" stroke="black" cx="100.09" cy="-18" rx="100.18" ry="18"/>
<text text-anchor="middle" x="100.09" y="-14.3" font-family="Times,serif" font-size="14.00">no3.InitializeEntity</text>
</a>
</g>
</g>
<!-- no3.EntityMermanRockLeftSide&#45;&gt;no3.InitializeEntity -->
<g id="edge1" class="edge">
<title>no3.EntityMermanRockLeftSide&#45;&gt;no3.InitializeEntity</title>
<path fill="none" stroke="black" d="M413.54,-180.25C350.11,-147.62 210.1,-75.59 140.71,-39.9"/>
<polygon fill="black" stroke="black" points="142.3,-36.78 131.8,-35.31 139.09,-43 142.3,-36.78"/>
<text text-anchor="middle" x="126.8" y="-39.11" font-family="Times,serif" font-size="14.00">1</text>
</g>
<!-- dra.PlaySfx -->
<g id="node3" class="node">
<title>dra.PlaySfx</title>
<g id="a_node3"><a xlink:href="dra.PlaySfx.svg" xlink:title="dra.PlaySfx">
<ellipse fill="green" stroke="black" cx="282.09" cy="-18" rx="64.19" ry="18"/>
<text text-anchor="middle" x="282.09" y="-14.3" font-family="Times,serif" font-size="14.00">dra.PlaySfx</text>
</a>
</g>
</g>
<!-- no3.EntityMermanRockLeftSide&#45;&gt;dra.PlaySfx -->
<g id="edge2" class="edge">
<title>no3.EntityMermanRockLeftSide&#45;&gt;dra.PlaySfx</title>
<path fill="none" stroke="black" d="M430.37,-179.93C401.07,-148.14 338.08,-79.77 304.4,-43.22"/>
<polygon fill="black" stroke="black" points="306.64,-40.48 297.29,-35.5 301.49,-45.22 306.64,-40.48"/>
<text text-anchor="middle" x="292.29" y="-39.3" font-family="Times,serif" font-size="14.00">1</text>
</g>
<!-- no3.AllocEntity -->
<g id="node4" class="node">
<title>no3.AllocEntity</title>
<g id="a_node4"><a xlink:href="no3.AllocEntity.svg" xlink:title="no3.AllocEntity">
<ellipse fill="green" stroke="black" cx="446.09" cy="-18" rx="81.79" ry="18"/>
<text text-anchor="middle" x="446.09" y="-14.3" font-family="Times,serif" font-size="14.00">no3.AllocEntity</text>
</a>
</g>
</g>
<!-- no3.EntityMermanRockLeftSide&#45;&gt;no3.AllocEntity -->
<g id="edge3" class="edge">
<title>no3.EntityMermanRockLeftSide&#45;&gt;no3.AllocEntity</title>
<path fill="none" stroke="black" d="M446.09,-179.93C446.09,-148.97 446.09,-83.3 446.09,-46.13"/>
<polygon fill="black" stroke="black" points="449.59,-46.02 446.09,-36.02 442.59,-46.02 449.59,-46.02"/>
<text text-anchor="middle" x="441.09" y="-39.82" font-family="Times,serif" font-size="14.00">3</text>
</g>
<!-- no3.CreateEntityFromEntity -->
<g id="node5" class="node">
<title>no3.CreateEntityFromEntity</title>
<g id="a_node5"><a xlink:href="no3.CreateEntityFromEntity.svg" xlink:title="no3.CreateEntityFromEntity">
<ellipse fill="green" stroke="black" cx="690.09" cy="-18" rx="144.07" ry="18"/>
<text text-anchor="middle" x="690.09" y="-14.3" font-family="Times,serif" font-size="14.00">no3.CreateEntityFromEntity</text>
</a>
</g>
</g>
<!-- no3.EntityMermanRockLeftSide&#45;&gt;no3.CreateEntityFromEntity -->
<g id="edge4" class="edge">
<title>no3.EntityMermanRockLeftSide&#45;&gt;no3.CreateEntityFromEntity</title>
<path fill="none" stroke="black" d="M469.49,-179.93C513.57,-147.77 608.98,-78.17 658.63,-41.95"/>
<polygon fill="black" stroke="black" points="660.75,-44.74 666.77,-36.02 656.62,-39.08 660.75,-44.74"/>
<text text-anchor="middle" x="661.77" y="-39.82" font-family="Times,serif" font-size="14.00">3</text>
</g>
<!-- no3.Random -->
<g id="node6" class="node">
<title>no3.Random</title>
<g id="a_node6"><a xlink:href="no3.Random.svg" xlink:title="no3.Random">
<ellipse fill="green" stroke="black" cx="921.09" cy="-18" rx="68.79" ry="18"/>
<text text-anchor="middle" x="921.09" y="-14.3" font-family="Times,serif" font-size="14.00">no3.Random</text>
</a>
</g>
</g>
<!-- no3.EntityMermanRockLeftSide&#45;&gt;no3.Random -->
<g id="edge5" class="edge">
<title>no3.EntityMermanRockLeftSide&#45;&gt;no3.Random</title>
<path fill="none" stroke="black" d="M489.93,-180.57C579.23,-147.11 781.56,-71.29 873.74,-36.74"/>
<polygon fill="black" stroke="black" points="875.24,-39.92 883.37,-33.13 872.78,-33.37 875.24,-39.92"/>
<text text-anchor="middle" x="878.37" y="-36.93" font-family="Times,serif" font-size="14.00">2</text>
</g>
</g>
</svg>
