<?xml version="1.0" encoding="UTF-8" standalone="no"?>
<!DOCTYPE svg PUBLIC "-//W3C//DTD SVG 1.1//EN"
 "http://www.w3.org/Graphics/SVG/1.1/DTD/svg11.dtd">
<!-- Generated by graphviz version 2.43.0 (0)
 -->
<!-- Title: no3.func_801C7680 Pages: 1 -->
<svg width="428pt" height="218pt"
 viewBox="0.00 0.00 427.83 218.00" xmlns="http://www.w3.org/2000/svg" xmlns:xlink="http://www.w3.org/1999/xlink">
<g id="graph0" class="graph" transform="scale(1 1) rotate(0) translate(4 214)">
<title>no3.func_801C7680</title>
<polygon fill="white" stroke="transparent" points="-4,4 -4,-214 423.83,-214 423.83,4 -4,4"/>
<!-- no3.func_801C7680 -->
<g id="node1" class="node">
<title>no3.func_801C7680</title>
<ellipse fill="red" stroke="black" cx="209.09" cy="-105" rx="102.88" ry="18"/>
<text text-anchor="middle" x="209.09" y="-101.3" font-family="Times,serif" font-size="14.00">no3.func_801C7680</text>
</g>
<!-- dra.func_80106A28 -->
<g id="node2" class="node">
<title>dra.func_80106A28</title>
<g id="a_node2"><a xlink:href="dra.func_80106A28.svg" xlink:title="dra.func_80106A28">
<ellipse fill="red" stroke="black" cx="209.09" cy="-18" rx="100.98" ry="18"/>
<text text-anchor="middle" x="209.09" y="-14.3" font-family="Times,serif" font-size="14.00">dra.func_80106A28</text>
</a>
</g>
</g>
<!-- no3.func_801C7680&#45;&gt;dra.func_80106A28 -->
<g id="edge1" class="edge">
<title>no3.func_801C7680&#45;&gt;dra.func_80106A28</title>
<path fill="none" stroke="black" d="M209.09,-86.8C209.09,-75.16 209.09,-59.55 209.09,-46.24"/>
<polygon fill="black" stroke="black" points="212.59,-46.18 209.09,-36.18 205.59,-46.18 212.59,-46.18"/>
<text text-anchor="middle" x="214.09" y="-57.8" font-family="Times,serif" font-size="14.00">1</text>
</g>
<!-- no3.EntityRelicOrb -->
<g id="node3" class="node">
<title>no3.EntityRelicOrb</title>
<g id="a_node3"><a xlink:href="no3.EntityRelicOrb.svg" xlink:title="no3.EntityRelicOrb">
<ellipse fill="red" stroke="black" cx="100.09" cy="-192" rx="100.18" ry="18"/>
<text text-anchor="middle" x="100.09" y="-188.3" font-family="Times,serif" font-size="14.00">no3.EntityRelicOrb</text>
</a>
</g>
</g>
<!-- no3.EntityRelicOrb&#45;&gt;no3.func_801C7680 -->
<g id="edge2" class="edge">
<title>no3.EntityRelicOrb&#45;&gt;no3.func_801C7680</title>
<path fill="none" stroke="black" d="M121.37,-174.41C137.91,-161.51 161.07,-143.45 179.44,-129.13"/>
<polygon fill="black" stroke="black" points="181.76,-131.75 187.5,-122.84 177.46,-126.23 181.76,-131.75"/>
<text text-anchor="middle" x="167.09" y="-144.8" font-family="Times,serif" font-size="14.00">1</text>
</g>
<!-- no3.EntityUnkId0E -->
<g id="node4" class="node">
<title>no3.EntityUnkId0E</title>
<g id="a_node4"><a xlink:href="no3.EntityUnkId0E.svg" xlink:title="no3.EntityUnkId0E">
<ellipse fill="red" stroke="black" cx="319.09" cy="-192" rx="100.98" ry="18"/>
<text text-anchor="middle" x="319.09" y="-188.3" font-family="Times,serif" font-size="14.00">no3.EntityUnkId0E</text>
</a>
</g>
</g>
<!-- no3.EntityUnkId0E&#45;&gt;no3.func_801C7680 -->
<g id="edge3" class="edge">
<title>no3.EntityUnkId0E&#45;&gt;no3.func_801C7680</title>
<path fill="none" stroke="black" d="M297.62,-174.41C280.92,-161.51 257.55,-143.45 239.02,-129.13"/>
<polygon fill="black" stroke="black" points="240.94,-126.18 230.88,-122.84 236.66,-131.72 240.94,-126.18"/>
<text text-anchor="middle" x="276.09" y="-144.8" font-family="Times,serif" font-size="14.00">1</text>
</g>
</g>
</svg>
