<?xml version="1.0" encoding="UTF-8" standalone="no"?>
<!DOCTYPE svg PUBLIC "-//W3C//DTD SVG 1.1//EN"
 "http://www.w3.org/Graphics/SVG/1.1/DTD/svg11.dtd">
<!-- Generated by graphviz version 2.43.0 (0)
 -->
<!-- Title: no3.FallEntity Pages: 1 -->
<svg width="1724pt" height="131pt"
 viewBox="0.00 0.00 1723.68 131.00" xmlns="http://www.w3.org/2000/svg" xmlns:xlink="http://www.w3.org/1999/xlink">
<g id="graph0" class="graph" transform="scale(1 1) rotate(0) translate(4 127)">
<title>no3.FallEntity</title>
<polygon fill="white" stroke="transparent" points="-4,4 -4,-127 1719.68,-127 1719.68,4 -4,4"/>
<!-- no3.FallEntity -->
<g id="node1" class="node">
<title>no3.FallEntity</title>
<ellipse fill="green" stroke="black" cx="891.99" cy="-18" rx="76.89" ry="18"/>
<text text-anchor="middle" x="891.99" y="-14.3" font-family="Times,serif" font-size="14.00">no3.FallEntity</text>
</g>
<!-- no3.func_801C92B0 -->
<g id="node2" class="node">
<title>no3.func_801C92B0</title>
<g id="a_node2"><a xlink:href="no3.func_801C92B0.svg" xlink:title="no3.func_801C92B0">
<ellipse fill="green" stroke="black" cx="103.99" cy="-105" rx="103.98" ry="18"/>
<text text-anchor="middle" x="103.99" y="-101.3" font-family="Times,serif" font-size="14.00">no3.func_801C92B0</text>
</a>
</g>
</g>
<!-- no3.func_801C92B0&#45;&gt;no3.FallEntity -->
<g id="edge1" class="edge">
<title>no3.func_801C92B0&#45;&gt;no3.FallEntity</title>
<path fill="none" stroke="black" d="M178.08,-92.32C191.03,-90.43 204.39,-88.58 216.99,-87 430.9,-60.15 684,-36.93 810.89,-25.88"/>
<polygon fill="black" stroke="black" points="811.26,-29.36 820.92,-25.01 810.65,-22.39 811.26,-29.36"/>
<text text-anchor="middle" x="499.99" y="-57.8" font-family="Times,serif" font-size="14.00">1</text>
</g>
<!-- no3.EntityEquipItemDrop -->
<g id="node3" class="node">
<title>no3.EntityEquipItemDrop</title>
<g id="a_node3"><a xlink:href="no3.EntityEquipItemDrop.svg" xlink:title="no3.EntityEquipItemDrop">
<ellipse fill="green" stroke="black" cx="356.99" cy="-105" rx="131.08" ry="18"/>
<text text-anchor="middle" x="356.99" y="-101.3" font-family="Times,serif" font-size="14.00">no3.EntityEquipItemDrop</text>
</a>
</g>
</g>
<!-- no3.EntityEquipItemDrop&#45;&gt;no3.FallEntity -->
<g id="edge2" class="edge">
<title>no3.EntityEquipItemDrop&#45;&gt;no3.FallEntity</title>
<path fill="none" stroke="black" d="M439.12,-90.95C543.33,-74.39 721.39,-46.1 820.34,-30.38"/>
<polygon fill="black" stroke="black" points="820.93,-33.83 830.25,-28.81 819.83,-26.92 820.93,-33.83"/>
<text text-anchor="middle" x="661.99" y="-57.8" font-family="Times,serif" font-size="14.00">1</text>
</g>
<!-- no3.EntityExplosion3 -->
<g id="node4" class="node">
<title>no3.EntityExplosion3</title>
<g id="a_node4"><a xlink:href="no3.EntityExplosion3.svg" xlink:title="no3.EntityExplosion3">
<ellipse fill="red" stroke="black" cx="616.99" cy="-105" rx="110.48" ry="18"/>
<text text-anchor="middle" x="616.99" y="-101.3" font-family="Times,serif" font-size="14.00">no3.EntityExplosion3</text>
</a>
</g>
</g>
<!-- no3.EntityExplosion3&#45;&gt;no3.FallEntity -->
<g id="edge3" class="edge">
<title>no3.EntityExplosion3&#45;&gt;no3.FallEntity</title>
<path fill="none" stroke="black" d="M666.16,-88.8C714.39,-73.9 787.76,-51.22 837.69,-35.78"/>
<polygon fill="black" stroke="black" points="838.83,-39.1 847.35,-32.8 836.76,-32.41 838.83,-39.1"/>
<text text-anchor="middle" x="775.99" y="-57.8" font-family="Times,serif" font-size="14.00">1</text>
</g>
<!-- no3.EntityBoneScimitarParts -->
<g id="node5" class="node">
<title>no3.EntityBoneScimitarParts</title>
<g id="a_node5"><a xlink:href="no3.EntityBoneScimitarParts.svg" xlink:title="no3.EntityBoneScimitarParts">
<ellipse fill="green" stroke="black" cx="891.99" cy="-105" rx="146.77" ry="18"/>
<text text-anchor="middle" x="891.99" y="-101.3" font-family="Times,serif" font-size="14.00">no3.EntityBoneScimitarParts</text>
</a>
</g>
</g>
<!-- no3.EntityBoneScimitarParts&#45;&gt;no3.FallEntity -->
<g id="edge4" class="edge">
<title>no3.EntityBoneScimitarParts&#45;&gt;no3.FallEntity</title>
<path fill="none" stroke="black" d="M891.99,-86.8C891.99,-75.16 891.99,-59.55 891.99,-46.24"/>
<polygon fill="black" stroke="black" points="895.49,-46.18 891.99,-36.18 888.49,-46.18 895.49,-46.18"/>
<text text-anchor="middle" x="896.99" y="-57.8" font-family="Times,serif" font-size="14.00">1</text>
</g>
<!-- no3.EntityPrizeDrop -->
<g id="node6" class="node">
<title>no3.EntityPrizeDrop</title>
<g id="a_node6"><a xlink:href="no3.EntityPrizeDrop.svg" xlink:title="no3.EntityPrizeDrop">
<ellipse fill="green" stroke="black" cx="1162.99" cy="-105" rx="106.68" ry="18"/>
<text text-anchor="middle" x="1162.99" y="-101.3" font-family="Times,serif" font-size="14.00">no3.EntityPrizeDrop</text>
</a>
</g>
</g>
<!-- no3.EntityPrizeDrop&#45;&gt;no3.FallEntity -->
<g id="edge5" class="edge">
<title>no3.EntityPrizeDrop&#45;&gt;no3.FallEntity</title>
<path fill="none" stroke="black" d="M1114.85,-88.9C1067.47,-74.04 995.24,-51.38 945.94,-35.92"/>
<polygon fill="black" stroke="black" points="946.68,-32.49 936.09,-32.83 944.59,-39.16 946.68,-32.49"/>
<text text-anchor="middle" x="1048.99" y="-57.8" font-family="Times,serif" font-size="14.00">2</text>
</g>
<!-- no3.func_801C6198 -->
<g id="node7" class="node">
<title>no3.func_801C6198</title>
<g id="a_node7"><a xlink:href="no3.func_801C6198.svg" xlink:title="no3.func_801C6198">
<ellipse fill="green" stroke="black" cx="1389.99" cy="-105" rx="102.88" ry="18"/>
<text text-anchor="middle" x="1389.99" y="-101.3" font-family="Times,serif" font-size="14.00">no3.func_801C6198</text>
</a>
</g>
</g>
<!-- no3.func_801C6198&#45;&gt;no3.FallEntity -->
<g id="edge6" class="edge">
<title>no3.func_801C6198&#45;&gt;no3.FallEntity</title>
<path fill="none" stroke="black" d="M1319.17,-91.91C1224.21,-75.7 1056.65,-47.11 962.07,-30.96"/>
<polygon fill="black" stroke="black" points="962.48,-27.48 952.03,-29.25 961.3,-34.38 962.48,-27.48"/>
<text text-anchor="middle" x="1175.99" y="-57.8" font-family="Times,serif" font-size="14.00">1</text>
</g>
<!-- no3.func_801C5074 -->
<g id="node8" class="node">
<title>no3.func_801C5074</title>
<g id="a_node8"><a xlink:href="no3.func_801C5074.svg" xlink:title="no3.func_801C5074">
<ellipse fill="green" stroke="black" cx="1612.99" cy="-105" rx="102.88" ry="18"/>
<text text-anchor="middle" x="1612.99" y="-101.3" font-family="Times,serif" font-size="14.00">no3.func_801C5074</text>
</a>
</g>
</g>
<!-- no3.func_801C5074&#45;&gt;no3.FallEntity -->
<g id="edge7" class="edge">
<title>no3.func_801C5074&#45;&gt;no3.FallEntity</title>
<path fill="none" stroke="black" d="M1539.61,-92.33C1527.07,-90.46 1514.17,-88.61 1501.99,-87 1312.03,-61.88 1087.96,-38.5 971.42,-26.81"/>
<polygon fill="black" stroke="black" points="971.47,-23.29 961.17,-25.78 970.77,-30.26 971.47,-23.29"/>
<text text-anchor="middle" x="1356.99" y="-57.8" font-family="Times,serif" font-size="14.00">1</text>
</g>
</g>
</svg>
