<?xml version="1.0" encoding="UTF-8" standalone="no"?>
<!DOCTYPE svg PUBLIC "-//W3C//DTD SVG 1.1//EN"
 "http://www.w3.org/Graphics/SVG/1.1/DTD/svg11.dtd">
<!-- Generated by graphviz version 2.43.0 (0)
 -->
<!-- Title: no3.func_801C39E4 Pages: 1 -->
<svg width="452pt" height="131pt"
 viewBox="0.00 0.00 452.18 131.00" xmlns="http://www.w3.org/2000/svg" xmlns:xlink="http://www.w3.org/1999/xlink">
<g id="graph0" class="graph" transform="scale(1 1) rotate(0) translate(4 127)">
<title>no3.func_801C39E4</title>
<polygon fill="white" stroke="transparent" points="-4,4 -4,-127 448.18,-127 448.18,4 -4,4"/>
<!-- no3.func_801C39E4 -->
<g id="node1" class="node">
<title>no3.func_801C39E4</title>
<ellipse fill="green" stroke="black" cx="218.34" cy="-18" rx="103.98" ry="18"/>
<text text-anchor="middle" x="218.34" y="-14.3" font-family="Times,serif" font-size="14.00">no3.func_801C39E4</text>
</g>
<!-- no3.func_801C3A88 -->
<g id="node2" class="node">
<title>no3.func_801C3A88</title>
<g id="a_node2"><a xlink:href="no3.func_801C3A88.svg" xlink:title="no3.func_801C3A88">
<ellipse fill="red" stroke="black" cx="103.34" cy="-105" rx="103.18" ry="18"/>
<text text-anchor="middle" x="103.34" y="-101.3" font-family="Times,serif" font-size="14.00">no3.func_801C3A88</text>
</a>
</g>
</g>
<!-- no3.func_801C3A88&#45;&gt;no3.func_801C39E4 -->
<g id="edge1" class="edge">
<title>no3.func_801C3A88&#45;&gt;no3.func_801C39E4</title>
<path fill="none" stroke="black" d="M125.79,-87.41C143.32,-74.45 167.9,-56.28 187.32,-41.93"/>
<polygon fill="black" stroke="black" points="189.6,-44.6 195.56,-35.84 185.44,-38.97 189.6,-44.6"/>
<text text-anchor="middle" x="173.34" y="-57.8" font-family="Times,serif" font-size="14.00">1</text>
</g>
<!-- no3.InitRoomEntities -->
<g id="node3" class="node">
<title>no3.InitRoomEntities</title>
<g id="a_node3"><a xlink:href="no3.InitRoomEntities.svg" xlink:title="no3.InitRoomEntities">
<ellipse fill="green" stroke="black" cx="334.34" cy="-105" rx="109.68" ry="18"/>
<text text-anchor="middle" x="334.34" y="-101.3" font-family="Times,serif" font-size="14.00">no3.InitRoomEntities</text>
</a>
</g>
</g>
<!-- no3.InitRoomEntities&#45;&gt;no3.func_801C39E4 -->
<g id="edge2" class="edge">
<title>no3.InitRoomEntities&#45;&gt;no3.func_801C39E4</title>
<path fill="none" stroke="black" d="M311.42,-87.21C293.71,-74.23 269,-56.12 249.49,-41.83"/>
<polygon fill="black" stroke="black" points="251.35,-38.85 241.21,-35.76 247.21,-44.49 251.35,-38.85"/>
<text text-anchor="middle" x="288.34" y="-57.8" font-family="Times,serif" font-size="14.00">1</text>
</g>
</g>
</svg>
