<?xml version="1.0" encoding="UTF-8" standalone="no"?>
<!DOCTYPE svg PUBLIC "-//W3C//DTD SVG 1.1//EN"
 "http://www.w3.org/Graphics/SVG/1.1/DTD/svg11.dtd">
<!-- Generated by graphviz version 2.43.0 (0)
 -->
<!-- Title: no3.ClutLerp Pages: 1 -->
<svg width="244pt" height="224pt"
 viewBox="0.00 0.00 243.54 224.00" xmlns="http://www.w3.org/2000/svg" xmlns:xlink="http://www.w3.org/1999/xlink">
<g id="graph0" class="graph" transform="scale(1 1) rotate(0) translate(4 220)">
<title>no3.ClutLerp</title>
<polygon fill="white" stroke="transparent" points="-4,4 -4,-220 239.54,-220 239.54,4 -4,4"/>
<!-- no3.ClutLerp -->
<g id="node1" class="node">
<title>no3.ClutLerp</title>
<ellipse fill="green" stroke="black" cx="124.74" cy="-198" rx="71.49" ry="18"/>
<text text-anchor="middle" x="124.74" y="-194.3" font-family="Times,serif" font-size="14.00">no3.ClutLerp</text>
</g>
<!-- LoadImage -->
<g id="node2" class="node">
<title>LoadImage</title>
<g id="a_node2"><a xlink:href="LoadImage.svg" xlink:title="LoadImage">
<ellipse fill="lightblue" stroke="black" cx="61.74" cy="-18" rx="61.99" ry="18"/>
<text text-anchor="middle" x="61.74" y="-14.3" font-family="Times,serif" font-size="14.00">LoadImage</text>
</a>
</g>
</g>
<!-- no3.ClutLerp&#45;&gt;LoadImage -->
<g id="edge1" class="edge">
<title>no3.ClutLerp&#45;&gt;LoadImage</title>
<path fill="none" stroke="black" d="M118.7,-179.93C107.7,-148.83 84.3,-82.73 71.18,-45.65"/>
<polygon fill="black" stroke="black" points="74.4,-44.27 67.77,-36.02 67.8,-46.61 74.4,-44.27"/>
<text text-anchor="middle" x="62.77" y="-39.82" font-family="Times,serif" font-size="14.00">1</text>
</g>
<!-- GetClut -->
<g id="node3" class="node">
<title>GetClut</title>
<g id="a_node3"><a xlink:href="GetClut.svg" xlink:title="GetClut">
<ellipse fill="lightblue" stroke="black" cx="188.74" cy="-18" rx="46.59" ry="18"/>
<text text-anchor="middle" x="188.74" y="-14.3" font-family="Times,serif" font-size="14.00">GetClut</text>
</a>
</g>
</g>
<!-- no3.ClutLerp&#45;&gt;GetClut -->
<g id="edge2" class="edge">
<title>no3.ClutLerp&#45;&gt;GetClut</title>
<path fill="none" stroke="black" d="M130.88,-179.93C142.06,-148.83 165.83,-82.73 179.16,-45.65"/>
<polygon fill="black" stroke="black" points="182.54,-46.61 182.63,-36.02 175.95,-44.24 182.54,-46.61"/>
<text text-anchor="middle" x="177.63" y="-39.82" font-family="Times,serif" font-size="14.00">1</text>
</g>
</g>
</svg>
