<?xml version="1.0" encoding="UTF-8" standalone="no"?>
<!DOCTYPE svg PUBLIC "-//W3C//DTD SVG 1.1//EN"
 "http://www.w3.org/Graphics/SVG/1.1/DTD/svg11.dtd">
<!-- Generated by graphviz version 2.43.0 (0)
 -->
<!-- Title: no3.func_801C6198 Pages: 1 -->
<svg width="786pt" height="218pt"
 viewBox="0.00 0.00 786.18 218.00" xmlns="http://www.w3.org/2000/svg" xmlns:xlink="http://www.w3.org/1999/xlink">
<g id="graph0" class="graph" transform="scale(1 1) rotate(0) translate(4 214)">
<title>no3.func_801C6198</title>
<polygon fill="white" stroke="transparent" points="-4,4 -4,-214 782.18,-214 782.18,4 -4,4"/>
<!-- no3.func_801C6198 -->
<g id="node1" class="node">
<title>no3.func_801C6198</title>
<ellipse fill="green" stroke="black" cx="388.49" cy="-105" rx="102.88" ry="18"/>
<text text-anchor="middle" x="388.49" y="-101.3" font-family="Times,serif" font-size="14.00">no3.func_801C6198</text>
</g>
<!-- dra.CheckCollision -->
<g id="node2" class="node">
<title>dra.CheckCollision</title>
<g id="a_node2"><a xlink:href="dra.CheckCollision.svg" xlink:title="dra.CheckCollision">
<ellipse fill="green" stroke="black" cx="97.49" cy="-18" rx="97.48" ry="18"/>
<text text-anchor="middle" x="97.49" y="-14.3" font-family="Times,serif" font-size="14.00">dra.CheckCollision</text>
</a>
</g>
</g>
<!-- no3.func_801C6198&#45;&gt;dra.CheckCollision -->
<g id="edge1" class="edge">
<title>no3.func_801C6198&#45;&gt;dra.CheckCollision</title>
<path fill="none" stroke="black" d="M338.14,-89.29C287.75,-74.57 210.26,-51.94 156.9,-36.35"/>
<polygon fill="black" stroke="black" points="157.81,-32.97 147.23,-33.53 155.85,-39.69 157.81,-32.97"/>
<text text-anchor="middle" x="265.49" y="-57.8" font-family="Times,serif" font-size="14.00">2</text>
</g>
<!-- no3.MoveEntity -->
<g id="node3" class="node">
<title>no3.MoveEntity</title>
<g id="a_node3"><a xlink:href="no3.MoveEntity.svg" xlink:title="no3.MoveEntity">
<ellipse fill="green" stroke="black" cx="298.49" cy="-18" rx="85.29" ry="18"/>
<text text-anchor="middle" x="298.49" y="-14.3" font-family="Times,serif" font-size="14.00">no3.MoveEntity</text>
</a>
</g>
</g>
<!-- no3.func_801C6198&#45;&gt;no3.MoveEntity -->
<g id="edge2" class="edge">
<title>no3.func_801C6198&#45;&gt;no3.MoveEntity</title>
<path fill="none" stroke="black" d="M370.71,-87.21C357.27,-74.52 338.65,-56.93 323.68,-42.79"/>
<polygon fill="black" stroke="black" points="325.91,-40.08 316.24,-35.76 321.1,-45.17 325.91,-40.08"/>
<text text-anchor="middle" x="354.49" y="-57.8" font-family="Times,serif" font-size="14.00">2</text>
</g>
<!-- no3.FallEntity -->
<g id="node4" class="node">
<title>no3.FallEntity</title>
<g id="a_node4"><a xlink:href="no3.FallEntity.svg" xlink:title="no3.FallEntity">
<ellipse fill="green" stroke="black" cx="478.49" cy="-18" rx="76.89" ry="18"/>
<text text-anchor="middle" x="478.49" y="-14.3" font-family="Times,serif" font-size="14.00">no3.FallEntity</text>
</a>
</g>
</g>
<!-- no3.func_801C6198&#45;&gt;no3.FallEntity -->
<g id="edge3" class="edge">
<title>no3.func_801C6198&#45;&gt;no3.FallEntity</title>
<path fill="none" stroke="black" d="M406.27,-87.21C419.71,-74.52 438.33,-56.93 453.3,-42.79"/>
<polygon fill="black" stroke="black" points="455.88,-45.17 460.75,-35.76 451.07,-40.08 455.88,-45.17"/>
<text text-anchor="middle" x="444.49" y="-57.8" font-family="Times,serif" font-size="14.00">1</text>
</g>
<!-- no3.func_801C6114 -->
<g id="node5" class="node">
<title>no3.func_801C6114</title>
<g id="a_node5"><a xlink:href="no3.func_801C6114.svg" xlink:title="no3.func_801C6114">
<ellipse fill="green" stroke="black" cx="675.49" cy="-18" rx="102.88" ry="18"/>
<text text-anchor="middle" x="675.49" y="-14.3" font-family="Times,serif" font-size="14.00">no3.func_801C6114</text>
</a>
</g>
</g>
<!-- no3.func_801C6198&#45;&gt;no3.func_801C6114 -->
<g id="edge4" class="edge">
<title>no3.func_801C6198&#45;&gt;no3.func_801C6114</title>
<path fill="none" stroke="black" d="M438.48,-89.19C487.82,-74.58 563.28,-52.23 615.75,-36.69"/>
<polygon fill="black" stroke="black" points="617,-39.97 625.59,-33.78 615.01,-33.26 617,-39.97"/>
<text text-anchor="middle" x="553.49" y="-57.8" font-family="Times,serif" font-size="14.00">1</text>
</g>
<!-- no3.EntityEquipItemDrop -->
<g id="node6" class="node">
<title>no3.EntityEquipItemDrop</title>
<g id="a_node6"><a xlink:href="no3.EntityEquipItemDrop.svg" xlink:title="no3.EntityEquipItemDrop">
<ellipse fill="green" stroke="black" cx="260.49" cy="-192" rx="131.08" ry="18"/>
<text text-anchor="middle" x="260.49" y="-188.3" font-family="Times,serif" font-size="14.00">no3.EntityEquipItemDrop</text>
</a>
</g>
</g>
<!-- no3.EntityEquipItemDrop&#45;&gt;no3.func_801C6198 -->
<g id="edge5" class="edge">
<title>no3.EntityEquipItemDrop&#45;&gt;no3.func_801C6198</title>
<path fill="none" stroke="black" d="M285.78,-174.21C305.63,-161.02 333.44,-142.56 355.12,-128.16"/>
<polygon fill="black" stroke="black" points="357.3,-130.92 363.69,-122.47 353.42,-125.09 357.3,-130.92"/>
<text text-anchor="middle" x="337.49" y="-144.8" font-family="Times,serif" font-size="14.00">2</text>
</g>
<!-- no3.EntityPrizeDrop -->
<g id="node7" class="node">
<title>no3.EntityPrizeDrop</title>
<g id="a_node7"><a xlink:href="no3.EntityPrizeDrop.svg" xlink:title="no3.EntityPrizeDrop">
<ellipse fill="green" stroke="black" cx="516.49" cy="-192" rx="106.68" ry="18"/>
<text text-anchor="middle" x="516.49" y="-188.3" font-family="Times,serif" font-size="14.00">no3.EntityPrizeDrop</text>
</a>
</g>
</g>
<!-- no3.EntityPrizeDrop&#45;&gt;no3.func_801C6198 -->
<g id="edge6" class="edge">
<title>no3.EntityPrizeDrop&#45;&gt;no3.func_801C6198</title>
<path fill="none" stroke="black" d="M491.51,-174.41C471.69,-161.25 443.79,-142.72 422.02,-128.27"/>
<polygon fill="black" stroke="black" points="423.68,-125.17 413.41,-122.55 419.81,-131 423.68,-125.17"/>
<text text-anchor="middle" x="465.49" y="-144.8" font-family="Times,serif" font-size="14.00">3</text>
</g>
</g>
</svg>
