<?xml version="1.0" encoding="UTF-8" standalone="no"?>
<!DOCTYPE svg PUBLIC "-//W3C//DTD SVG 1.1//EN"
 "http://www.w3.org/Graphics/SVG/1.1/DTD/svg11.dtd">
<!-- Generated by graphviz version 2.43.0 (0)
 -->
<!-- Title: no3.func_801C8A84 Pages: 1 -->
<svg width="215pt" height="218pt"
 viewBox="0.00 0.00 214.68 218.00" xmlns="http://www.w3.org/2000/svg" xmlns:xlink="http://www.w3.org/1999/xlink">
<g id="graph0" class="graph" transform="scale(1 1) rotate(0) translate(4 214)">
<title>no3.func_801C8A84</title>
<polygon fill="white" stroke="transparent" points="-4,4 -4,-214 210.68,-214 210.68,4 -4,4"/>
<!-- no3.func_801C8A84 -->
<g id="node1" class="node">
<title>no3.func_801C8A84</title>
<ellipse fill="green" stroke="black" cx="103.34" cy="-105" rx="103.18" ry="18"/>
<text text-anchor="middle" x="103.34" y="-101.3" font-family="Times,serif" font-size="14.00">no3.func_801C8A84</text>
</g>
<!-- dra.CheckCollision -->
<g id="node2" class="node">
<title>dra.CheckCollision</title>
<g id="a_node2"><a xlink:href="dra.CheckCollision.svg" xlink:title="dra.CheckCollision">
<ellipse fill="green" stroke="black" cx="103.34" cy="-18" rx="97.48" ry="18"/>
<text text-anchor="middle" x="103.34" y="-14.3" font-family="Times,serif" font-size="14.00">dra.CheckCollision</text>
</a>
</g>
</g>
<!-- no3.func_801C8A84&#45;&gt;dra.CheckCollision -->
<g id="edge1" class="edge">
<title>no3.func_801C8A84&#45;&gt;dra.CheckCollision</title>
<path fill="none" stroke="black" d="M103.34,-86.8C103.34,-75.16 103.34,-59.55 103.34,-46.24"/>
<polygon fill="black" stroke="black" points="106.84,-46.18 103.34,-36.18 99.84,-46.18 106.84,-46.18"/>
<text text-anchor="middle" x="108.34" y="-57.8" font-family="Times,serif" font-size="14.00">1</text>
</g>
<!-- no3.func_801C9080 -->
<g id="node3" class="node">
<title>no3.func_801C9080</title>
<g id="a_node3"><a xlink:href="no3.func_801C9080.svg" xlink:title="no3.func_801C9080">
<ellipse fill="red" stroke="black" cx="103.34" cy="-192" rx="102.88" ry="18"/>
<text text-anchor="middle" x="103.34" y="-188.3" font-family="Times,serif" font-size="14.00">no3.func_801C9080</text>
</a>
</g>
</g>
<!-- no3.func_801C9080&#45;&gt;no3.func_801C8A84 -->
<g id="edge2" class="edge">
<title>no3.func_801C9080&#45;&gt;no3.func_801C8A84</title>
<path fill="none" stroke="black" d="M103.34,-173.8C103.34,-162.16 103.34,-146.55 103.34,-133.24"/>
<polygon fill="black" stroke="black" points="106.84,-133.18 103.34,-123.18 99.84,-133.18 106.84,-133.18"/>
<text text-anchor="middle" x="108.34" y="-144.8" font-family="Times,serif" font-size="14.00">1</text>
</g>
</g>
</svg>
