<?xml version="1.0" encoding="UTF-8" standalone="no"?>
<!DOCTYPE svg PUBLIC "-//W3C//DTD SVG 1.1//EN"
 "http://www.w3.org/Graphics/SVG/1.1/DTD/svg11.dtd">
<!-- Generated by graphviz version 2.43.0 (0)
 -->
<!-- Title: no3.EntitySmallUpwardsSplash Pages: 1 -->
<svg width="979pt" height="224pt"
 viewBox="0.00 0.00 979.28 224.00" xmlns="http://www.w3.org/2000/svg" xmlns:xlink="http://www.w3.org/1999/xlink">
<g id="graph0" class="graph" transform="scale(1 1) rotate(0) translate(4 220)">
<title>no3.EntitySmallUpwardsSplash</title>
<polygon fill="white" stroke="transparent" points="-4,4 -4,-220 975.28,-220 975.28,4 -4,4"/>
<!-- no3.EntitySmallUpwardsSplash -->
<g id="node1" class="node">
<title>no3.EntitySmallUpwardsSplash</title>
<ellipse fill="red" stroke="black" cx="504.09" cy="-198" rx="159.47" ry="18"/>
<text text-anchor="middle" x="504.09" y="-194.3" font-family="Times,serif" font-size="14.00">no3.EntitySmallUpwardsSplash</text>
</g>
<!-- no3.InitializeEntity -->
<g id="node2" class="node">
<title>no3.InitializeEntity</title>
<g id="a_node2"><a xlink:href="no3.InitializeEntity.svg" xlink:title="no3.InitializeEntity">
<ellipse fill="green" stroke="black" cx="100.09" cy="-18" rx="100.18" ry="18"/>
<text text-anchor="middle" x="100.09" y="-14.3" font-family="Times,serif" font-size="14.00">no3.InitializeEntity</text>
</a>
</g>
</g>
<!-- no3.EntitySmallUpwardsSplash&#45;&gt;no3.InitializeEntity -->
<g id="edge1" class="edge">
<title>no3.EntitySmallUpwardsSplash&#45;&gt;no3.InitializeEntity</title>
<path fill="none" stroke="black" d="M466.45,-180.41C391.91,-147.57 225.8,-74.39 145.41,-38.97"/>
<polygon fill="black" stroke="black" points="146.6,-35.67 136.04,-34.84 143.78,-42.07 146.6,-35.67"/>
<text text-anchor="middle" x="131.04" y="-38.64" font-family="Times,serif" font-size="14.00">1</text>
</g>
<!-- dra.AllocPrimitives -->
<g id="node3" class="node">
<title>dra.AllocPrimitives</title>
<g id="a_node3"><a xlink:href="dra.AllocPrimitives.svg" xlink:title="dra.AllocPrimitives">
<ellipse fill="green" stroke="black" cx="318.09" cy="-18" rx="99.38" ry="18"/>
<text text-anchor="middle" x="318.09" y="-14.3" font-family="Times,serif" font-size="14.00">dra.AllocPrimitives</text>
</a>
</g>
</g>
<!-- no3.EntitySmallUpwardsSplash&#45;&gt;dra.AllocPrimitives -->
<g id="edge2" class="edge">
<title>no3.EntitySmallUpwardsSplash&#45;&gt;dra.AllocPrimitives</title>
<path fill="none" stroke="black" d="M486.26,-179.93C452.98,-148.09 381.36,-79.54 343.21,-43.04"/>
<polygon fill="black" stroke="black" points="345.24,-40.14 335.6,-35.76 340.4,-45.2 345.24,-40.14"/>
<text text-anchor="middle" x="330.6" y="-39.56" font-family="Times,serif" font-size="14.00">1</text>
</g>
<!-- no3.Random -->
<g id="node4" class="node">
<title>no3.Random</title>
<g id="a_node4"><a xlink:href="no3.Random.svg" xlink:title="no3.Random">
<ellipse fill="green" stroke="black" cx="504.09" cy="-18" rx="68.79" ry="18"/>
<text text-anchor="middle" x="504.09" y="-14.3" font-family="Times,serif" font-size="14.00">no3.Random</text>
</a>
</g>
</g>
<!-- no3.EntitySmallUpwardsSplash&#45;&gt;no3.Random -->
<g id="edge3" class="edge">
<title>no3.EntitySmallUpwardsSplash&#45;&gt;no3.Random</title>
<path fill="none" stroke="black" d="M504.09,-179.93C504.09,-148.97 504.09,-83.3 504.09,-46.13"/>
<polygon fill="black" stroke="black" points="507.59,-46.02 504.09,-36.02 500.59,-46.02 507.59,-46.02"/>
<text text-anchor="middle" x="499.09" y="-39.82" font-family="Times,serif" font-size="14.00">3</text>
</g>
<!-- no3.MoveEntity -->
<g id="node5" class="node">
<title>no3.MoveEntity</title>
<g id="a_node5"><a xlink:href="no3.MoveEntity.svg" xlink:title="no3.MoveEntity">
<ellipse fill="green" stroke="black" cx="676.09" cy="-18" rx="85.29" ry="18"/>
<text text-anchor="middle" x="676.09" y="-14.3" font-family="Times,serif" font-size="14.00">no3.MoveEntity</text>
</a>
</g>
</g>
<!-- no3.EntitySmallUpwardsSplash&#45;&gt;no3.MoveEntity -->
<g id="edge4" class="edge">
<title>no3.EntitySmallUpwardsSplash&#45;&gt;no3.MoveEntity</title>
<path fill="none" stroke="black" d="M520.58,-179.93C551.35,-148.09 617.59,-79.54 652.87,-43.04"/>
<polygon fill="black" stroke="black" points="655.47,-45.38 659.9,-35.76 650.43,-40.51 655.47,-45.38"/>
<text text-anchor="middle" x="654.9" y="-39.56" font-family="Times,serif" font-size="14.00">1</text>
</g>
<!-- no3.DestroyEntity -->
<g id="node6" class="node">
<title>no3.DestroyEntity</title>
<g id="a_node6"><a xlink:href="no3.DestroyEntity.svg" xlink:title="no3.DestroyEntity">
<ellipse fill="green" stroke="black" cx="875.09" cy="-18" rx="96.38" ry="18"/>
<text text-anchor="middle" x="875.09" y="-14.3" font-family="Times,serif" font-size="14.00">no3.DestroyEntity</text>
</a>
</g>
</g>
<!-- no3.EntitySmallUpwardsSplash&#45;&gt;no3.DestroyEntity -->
<g id="edge5" class="edge">
<title>no3.EntitySmallUpwardsSplash&#45;&gt;no3.DestroyEntity</title>
<path fill="none" stroke="black" d="M538.66,-180.41C606.89,-147.68 758.65,-74.87 832.74,-39.32"/>
<polygon fill="black" stroke="black" points="834.31,-42.45 841.81,-34.97 831.28,-36.14 834.31,-42.45"/>
<text text-anchor="middle" x="836.81" y="-38.77" font-family="Times,serif" font-size="14.00">1</text>
</g>
</g>
</svg>
