<?xml version="1.0" encoding="UTF-8" standalone="no"?>
<!DOCTYPE svg PUBLIC "-//W3C//DTD SVG 1.1//EN"
 "http://www.w3.org/Graphics/SVG/1.1/DTD/svg11.dtd">
<!-- Generated by graphviz version 2.43.0 (0)
 -->
<!-- Title: no3.EntityUnkId0E Pages: 1 -->
<svg width="1147pt" height="131pt"
 viewBox="0.00 0.00 1147.28 131.00" xmlns="http://www.w3.org/2000/svg" xmlns:xlink="http://www.w3.org/1999/xlink">
<g id="graph0" class="graph" transform="scale(1 1) rotate(0) translate(4 127)">
<title>no3.EntityUnkId0E</title>
<polygon fill="white" stroke="transparent" points="-4,4 -4,-127 1143.28,-127 1143.28,4 -4,4"/>
<!-- no3.EntityUnkId0E -->
<g id="node1" class="node">
<title>no3.EntityUnkId0E</title>
<ellipse fill="red" stroke="black" cx="592.09" cy="-105" rx="100.98" ry="18"/>
<text text-anchor="middle" x="592.09" y="-101.3" font-family="Times,serif" font-size="14.00">no3.EntityUnkId0E</text>
</g>
<!-- no3.InitializeEntity -->
<g id="node2" class="node">
<title>no3.InitializeEntity</title>
<g id="a_node2"><a xlink:href="no3.InitializeEntity.svg" xlink:title="no3.InitializeEntity">
<ellipse fill="green" stroke="black" cx="100.09" cy="-18" rx="100.18" ry="18"/>
<text text-anchor="middle" x="100.09" y="-14.3" font-family="Times,serif" font-size="14.00">no3.InitializeEntity</text>
</a>
</g>
</g>
<!-- no3.EntityUnkId0E&#45;&gt;no3.InitializeEntity -->
<g id="edge1" class="edge">
<title>no3.EntityUnkId0E&#45;&gt;no3.InitializeEntity</title>
<path fill="none" stroke="black" d="M522.38,-91.96C431.97,-76.34 274.62,-49.15 179.63,-32.74"/>
<polygon fill="black" stroke="black" points="179.95,-29.25 169.5,-30.99 178.76,-36.14 179.95,-29.25"/>
<text text-anchor="middle" x="381.09" y="-57.8" font-family="Times,serif" font-size="14.00">1</text>
</g>
<!-- dra.AllocPrimitives -->
<g id="node3" class="node">
<title>dra.AllocPrimitives</title>
<g id="a_node3"><a xlink:href="dra.AllocPrimitives.svg" xlink:title="dra.AllocPrimitives">
<ellipse fill="green" stroke="black" cx="318.09" cy="-18" rx="99.38" ry="18"/>
<text text-anchor="middle" x="318.09" y="-14.3" font-family="Times,serif" font-size="14.00">dra.AllocPrimitives</text>
</a>
</g>
</g>
<!-- no3.EntityUnkId0E&#45;&gt;dra.AllocPrimitives -->
<g id="edge2" class="edge">
<title>no3.EntityUnkId0E&#45;&gt;dra.AllocPrimitives</title>
<path fill="none" stroke="black" d="M544.05,-89.1C497.14,-74.55 425.72,-52.39 375.77,-36.89"/>
<polygon fill="black" stroke="black" points="376.66,-33.51 366.08,-33.89 374.59,-40.19 376.66,-33.51"/>
<text text-anchor="middle" x="477.09" y="-57.8" font-family="Times,serif" font-size="14.00">1</text>
</g>
<!-- ClearImage -->
<g id="node4" class="node">
<title>ClearImage</title>
<g id="a_node4"><a xlink:href="ClearImage.svg" xlink:title="ClearImage">
<ellipse fill="lightblue" stroke="black" cx="500.09" cy="-18" rx="64.19" ry="18"/>
<text text-anchor="middle" x="500.09" y="-14.3" font-family="Times,serif" font-size="14.00">ClearImage</text>
</a>
</g>
</g>
<!-- no3.EntityUnkId0E&#45;&gt;ClearImage -->
<g id="edge3" class="edge">
<title>no3.EntityUnkId0E&#45;&gt;ClearImage</title>
<path fill="none" stroke="black" d="M573.91,-87.21C560.09,-74.43 540.9,-56.7 525.55,-42.52"/>
<polygon fill="black" stroke="black" points="527.64,-39.68 517.92,-35.47 522.89,-44.83 527.64,-39.68"/>
<text text-anchor="middle" x="557.09" y="-57.8" font-family="Times,serif" font-size="14.00">1</text>
</g>
<!-- no3.func_801C7680 -->
<g id="node5" class="node">
<title>no3.func_801C7680</title>
<g id="a_node5"><a xlink:href="no3.func_801C7680.svg" xlink:title="no3.func_801C7680">
<ellipse fill="red" stroke="black" cx="685.09" cy="-18" rx="102.88" ry="18"/>
<text text-anchor="middle" x="685.09" y="-14.3" font-family="Times,serif" font-size="14.00">no3.func_801C7680</text>
</a>
</g>
</g>
<!-- no3.EntityUnkId0E&#45;&gt;no3.func_801C7680 -->
<g id="edge4" class="edge">
<title>no3.EntityUnkId0E&#45;&gt;no3.func_801C7680</title>
<path fill="none" stroke="black" d="M610.46,-87.21C624.35,-74.52 643.59,-56.93 659.06,-42.79"/>
<polygon fill="black" stroke="black" points="661.74,-45.09 666.76,-35.76 657.01,-39.92 661.74,-45.09"/>
<text text-anchor="middle" x="650.09" y="-57.8" font-family="Times,serif" font-size="14.00">1</text>
</g>
<!-- LoadTPage -->
<g id="node6" class="node">
<title>LoadTPage</title>
<g id="a_node6"><a xlink:href="LoadTPage.svg" xlink:title="LoadTPage">
<ellipse fill="lightblue" stroke="black" cx="867.09" cy="-18" rx="61.99" ry="18"/>
<text text-anchor="middle" x="867.09" y="-14.3" font-family="Times,serif" font-size="14.00">LoadTPage</text>
</a>
</g>
</g>
<!-- no3.EntityUnkId0E&#45;&gt;LoadTPage -->
<g id="edge5" class="edge">
<title>no3.EntityUnkId0E&#45;&gt;LoadTPage</title>
<path fill="none" stroke="black" d="M640.31,-89.1C689.7,-73.83 766.16,-50.2 816.42,-34.66"/>
<polygon fill="black" stroke="black" points="817.59,-37.96 826.11,-31.67 815.52,-31.28 817.59,-37.96"/>
<text text-anchor="middle" x="751.09" y="-57.8" font-family="Times,serif" font-size="14.00">1</text>
</g>
<!-- no3.DestroyEntity -->
<g id="node7" class="node">
<title>no3.DestroyEntity</title>
<g id="a_node7"><a xlink:href="no3.DestroyEntity.svg" xlink:title="no3.DestroyEntity">
<ellipse fill="green" stroke="black" cx="1043.09" cy="-18" rx="96.38" ry="18"/>
<text text-anchor="middle" x="1043.09" y="-14.3" font-family="Times,serif" font-size="14.00">no3.DestroyEntity</text>
</a>
</g>
</g>
<!-- no3.EntityUnkId0E&#45;&gt;no3.DestroyEntity -->
<g id="edge6" class="edge">
<title>no3.EntityUnkId0E&#45;&gt;no3.DestroyEntity</title>
<path fill="none" stroke="black" d="M658.64,-91.46C741.13,-75.91 881.37,-49.48 967.74,-33.2"/>
<polygon fill="black" stroke="black" points="968.56,-36.61 977.74,-31.32 967.26,-29.73 968.56,-36.61"/>
<text text-anchor="middle" x="850.09" y="-57.8" font-family="Times,serif" font-size="14.00">1</text>
</g>
</g>
</svg>
