<?xml version="1.0" encoding="UTF-8" standalone="no"?>
<!DOCTYPE svg PUBLIC "-//W3C//DTD SVG 1.1//EN"
 "http://www.w3.org/Graphics/SVG/1.1/DTD/svg11.dtd">
<!-- Generated by graphviz version 2.43.0 (0)
 -->
<!-- Title: no3.EntityFallingRock Pages: 1 -->
<svg width="1617pt" height="131pt"
 viewBox="0.00 0.00 1617.28 131.00" xmlns="http://www.w3.org/2000/svg" xmlns:xlink="http://www.w3.org/1999/xlink">
<g id="graph0" class="graph" transform="scale(1 1) rotate(0) translate(4 127)">
<title>no3.EntityFallingRock</title>
<polygon fill="white" stroke="transparent" points="-4,4 -4,-127 1613.28,-127 1613.28,4 -4,4"/>
<!-- no3.EntityFallingRock -->
<g id="node1" class="node">
<title>no3.EntityFallingRock</title>
<ellipse fill="green" stroke="black" cx="613.09" cy="-105" rx="113.98" ry="18"/>
<text text-anchor="middle" x="613.09" y="-101.3" font-family="Times,serif" font-size="14.00">no3.EntityFallingRock</text>
</g>
<!-- no3.InitializeEntity -->
<g id="node2" class="node">
<title>no3.InitializeEntity</title>
<g id="a_node2"><a xlink:href="no3.InitializeEntity.svg" xlink:title="no3.InitializeEntity">
<ellipse fill="green" stroke="black" cx="100.09" cy="-18" rx="100.18" ry="18"/>
<text text-anchor="middle" x="100.09" y="-14.3" font-family="Times,serif" font-size="14.00">no3.InitializeEntity</text>
</a>
</g>
</g>
<!-- no3.EntityFallingRock&#45;&gt;no3.InitializeEntity -->
<g id="edge1" class="edge">
<title>no3.EntityFallingRock&#45;&gt;no3.InitializeEntity</title>
<path fill="none" stroke="black" d="M537.67,-91.5C442.45,-75.73 279.27,-48.69 181.36,-32.47"/>
<polygon fill="black" stroke="black" points="181.66,-28.97 171.22,-30.79 180.51,-35.87 181.66,-28.97"/>
<text text-anchor="middle" x="393.09" y="-57.8" font-family="Times,serif" font-size="14.00">1</text>
</g>
<!-- no3.Random -->
<g id="node3" class="node">
<title>no3.Random</title>
<g id="a_node3"><a xlink:href="no3.Random.svg" xlink:title="no3.Random">
<ellipse fill="green" stroke="black" cx="287.09" cy="-18" rx="68.79" ry="18"/>
<text text-anchor="middle" x="287.09" y="-14.3" font-family="Times,serif" font-size="14.00">no3.Random</text>
</a>
</g>
</g>
<!-- no3.EntityFallingRock&#45;&gt;no3.Random -->
<g id="edge2" class="edge">
<title>no3.EntityFallingRock&#45;&gt;no3.Random</title>
<path fill="none" stroke="black" d="M555.4,-89.38C530.93,-83.15 502.11,-75.76 476.09,-69 431.46,-57.4 380.97,-44.03 343.41,-34.03"/>
<polygon fill="black" stroke="black" points="344.23,-30.63 333.66,-31.44 342.43,-37.39 344.23,-30.63"/>
<text text-anchor="middle" x="481.09" y="-57.8" font-family="Times,serif" font-size="14.00">2</text>
</g>
<!-- rcos -->
<g id="node4" class="node">
<title>rcos</title>
<g id="a_node4"><a xlink:href="rcos.svg" xlink:title="rcos">
<ellipse fill="lightblue" stroke="black" cx="404.09" cy="-18" rx="30.59" ry="18"/>
<text text-anchor="middle" x="404.09" y="-14.3" font-family="Times,serif" font-size="14.00">rcos</text>
</a>
</g>
</g>
<!-- no3.EntityFallingRock&#45;&gt;rcos -->
<g id="edge3" class="edge">
<title>no3.EntityFallingRock&#45;&gt;rcos</title>
<path fill="none" stroke="black" d="M572.42,-88.13C537.89,-74.57 487.09,-54.38 443.09,-36 441.25,-35.23 439.37,-34.44 437.46,-33.63"/>
<polygon fill="black" stroke="black" points="438.54,-30.28 427.97,-29.54 435.77,-36.71 438.54,-30.28"/>
<text text-anchor="middle" x="527.09" y="-57.8" font-family="Times,serif" font-size="14.00">1</text>
</g>
<!-- rsin -->
<g id="node5" class="node">
<title>rsin</title>
<g id="a_node5"><a xlink:href="rsin.svg" xlink:title="rsin">
<ellipse fill="lightblue" stroke="black" cx="481.09" cy="-18" rx="28.7" ry="18"/>
<text text-anchor="middle" x="481.09" y="-14.3" font-family="Times,serif" font-size="14.00">rsin</text>
</a>
</g>
</g>
<!-- no3.EntityFallingRock&#45;&gt;rsin -->
<g id="edge4" class="edge">
<title>no3.EntityFallingRock&#45;&gt;rsin</title>
<path fill="none" stroke="black" d="M587.33,-87.41C564.81,-72.91 532.18,-51.9 509.04,-36.99"/>
<polygon fill="black" stroke="black" points="510.67,-33.88 500.37,-31.41 506.88,-39.77 510.67,-33.88"/>
<text text-anchor="middle" x="560.09" y="-57.8" font-family="Times,serif" font-size="14.00">1</text>
</g>
<!-- no3.MoveEntity -->
<g id="node6" class="node">
<title>no3.MoveEntity</title>
<g id="a_node6"><a xlink:href="no3.MoveEntity.svg" xlink:title="no3.MoveEntity">
<ellipse fill="green" stroke="black" cx="613.09" cy="-18" rx="85.29" ry="18"/>
<text text-anchor="middle" x="613.09" y="-14.3" font-family="Times,serif" font-size="14.00">no3.MoveEntity</text>
</a>
</g>
</g>
<!-- no3.EntityFallingRock&#45;&gt;no3.MoveEntity -->
<g id="edge5" class="edge">
<title>no3.EntityFallingRock&#45;&gt;no3.MoveEntity</title>
<path fill="none" stroke="black" d="M613.09,-86.8C613.09,-75.16 613.09,-59.55 613.09,-46.24"/>
<polygon fill="black" stroke="black" points="616.59,-46.18 613.09,-36.18 609.59,-46.18 616.59,-46.18"/>
<text text-anchor="middle" x="618.09" y="-57.8" font-family="Times,serif" font-size="14.00">1</text>
</g>
<!-- dra.CheckCollision -->
<g id="node7" class="node">
<title>dra.CheckCollision</title>
<g id="a_node7"><a xlink:href="dra.CheckCollision.svg" xlink:title="dra.CheckCollision">
<ellipse fill="green" stroke="black" cx="814.09" cy="-18" rx="97.48" ry="18"/>
<text text-anchor="middle" x="814.09" y="-14.3" font-family="Times,serif" font-size="14.00">dra.CheckCollision</text>
</a>
</g>
</g>
<!-- no3.EntityFallingRock&#45;&gt;dra.CheckCollision -->
<g id="edge6" class="edge">
<title>no3.EntityFallingRock&#45;&gt;dra.CheckCollision</title>
<path fill="none" stroke="black" d="M650.9,-88.01C683.85,-74.08 731.77,-53.81 767.17,-38.84"/>
<polygon fill="black" stroke="black" points="768.95,-41.89 776.79,-34.77 766.22,-35.44 768.95,-41.89"/>
<text text-anchor="middle" x="731.09" y="-57.8" font-family="Times,serif" font-size="14.00">1</text>
</g>
<!-- no3.AllocEntity -->
<g id="node8" class="node">
<title>no3.AllocEntity</title>
<g id="a_node8"><a xlink:href="no3.AllocEntity.svg" xlink:title="no3.AllocEntity">
<ellipse fill="green" stroke="black" cx="1011.09" cy="-18" rx="81.79" ry="18"/>
<text text-anchor="middle" x="1011.09" y="-14.3" font-family="Times,serif" font-size="14.00">no3.AllocEntity</text>
</a>
</g>
</g>
<!-- no3.EntityFallingRock&#45;&gt;no3.AllocEntity -->
<g id="edge7" class="edge">
<title>no3.EntityFallingRock&#45;&gt;no3.AllocEntity</title>
<path fill="none" stroke="black" d="M677.92,-90.15C751.34,-74.47 870.37,-49.05 944.51,-33.22"/>
<polygon fill="black" stroke="black" points="945.61,-36.56 954.66,-31.05 944.15,-29.72 945.61,-36.56"/>
<text text-anchor="middle" x="841.09" y="-57.8" font-family="Times,serif" font-size="14.00">1</text>
</g>
<!-- no3.CreateEntityFromEntity -->
<g id="node9" class="node">
<title>no3.CreateEntityFromEntity</title>
<g id="a_node9"><a xlink:href="no3.CreateEntityFromEntity.svg" xlink:title="no3.CreateEntityFromEntity">
<ellipse fill="green" stroke="black" cx="1255.09" cy="-18" rx="144.07" ry="18"/>
<text text-anchor="middle" x="1255.09" y="-14.3" font-family="Times,serif" font-size="14.00">no3.CreateEntityFromEntity</text>
</a>
</g>
</g>
<!-- no3.EntityFallingRock&#45;&gt;no3.CreateEntityFromEntity -->
<g id="edge8" class="edge">
<title>no3.EntityFallingRock&#45;&gt;no3.CreateEntityFromEntity</title>
<path fill="none" stroke="black" d="M697.35,-92.84C813.69,-77.44 1023.45,-49.67 1149.93,-32.92"/>
<polygon fill="black" stroke="black" points="1150.56,-36.37 1160.01,-31.59 1149.64,-29.43 1150.56,-36.37"/>
<text text-anchor="middle" x="978.09" y="-57.8" font-family="Times,serif" font-size="14.00">1</text>
</g>
<!-- no3.DestroyEntity -->
<g id="node10" class="node">
<title>no3.DestroyEntity</title>
<g id="a_node10"><a xlink:href="no3.DestroyEntity.svg" xlink:title="no3.DestroyEntity">
<ellipse fill="green" stroke="black" cx="1513.09" cy="-18" rx="96.38" ry="18"/>
<text text-anchor="middle" x="1513.09" y="-14.3" font-family="Times,serif" font-size="14.00">no3.DestroyEntity</text>
</a>
</g>
</g>
<!-- no3.EntityFallingRock&#45;&gt;no3.DestroyEntity -->
<g id="edge9" class="edge">
<title>no3.EntityFallingRock&#45;&gt;no3.DestroyEntity</title>
<path fill="none" stroke="black" d="M716.89,-97.62C868.94,-87.71 1160.97,-66.53 1408.09,-36 1416.81,-34.92 1425.92,-33.66 1434.97,-32.31"/>
<polygon fill="black" stroke="black" points="1435.78,-35.73 1445.14,-30.77 1434.72,-28.81 1435.78,-35.73"/>
<text text-anchor="middle" x="1240.09" y="-57.8" font-family="Times,serif" font-size="14.00">1</text>
</g>
</g>
</svg>
