<?xml version="1.0" encoding="UTF-8" standalone="no"?>
<!DOCTYPE svg PUBLIC "-//W3C//DTD SVG 1.1//EN"
 "http://www.w3.org/Graphics/SVG/1.1/DTD/svg11.dtd">
<!-- Generated by graphviz version 2.43.0 (0)
 -->
<!-- Title: no3.func_801C38D0 Pages: 1 -->
<svg width="440pt" height="404pt"
 viewBox="0.00 0.00 439.68 404.00" xmlns="http://www.w3.org/2000/svg" xmlns:xlink="http://www.w3.org/1999/xlink">
<g id="graph0" class="graph" transform="scale(1 1) rotate(0) translate(4 400)">
<title>no3.func_801C38D0</title>
<polygon fill="white" stroke="transparent" points="-4,4 -4,-400 435.68,-400 435.68,4 -4,4"/>
<!-- no3.func_801C38D0 -->
<g id="node1" class="node">
<title>no3.func_801C38D0</title>
<ellipse fill="green" stroke="black" cx="214.69" cy="-198" rx="104.78" ry="18"/>
<text text-anchor="middle" x="214.69" y="-194.3" font-family="Times,serif" font-size="14.00">no3.func_801C38D0</text>
</g>
<!-- no3.func_801C3500 -->
<g id="node2" class="node">
<title>no3.func_801C3500</title>
<g id="a_node2"><a xlink:href="no3.func_801C3500.svg" xlink:title="no3.func_801C3500">
<ellipse fill="green" stroke="black" cx="102.69" cy="-18" rx="102.88" ry="18"/>
<text text-anchor="middle" x="102.69" y="-14.3" font-family="Times,serif" font-size="14.00">no3.func_801C3500</text>
</a>
</g>
</g>
<!-- no3.func_801C38D0&#45;&gt;no3.func_801C3500 -->
<g id="edge1" class="edge">
<title>no3.func_801C38D0&#45;&gt;no3.func_801C3500</title>
<path fill="none" stroke="black" d="M203.95,-179.93C184.22,-148.57 142.08,-81.6 118.87,-44.71"/>
<polygon fill="black" stroke="black" points="121.69,-42.62 113.4,-36.02 115.76,-46.34 121.69,-42.62"/>
<text text-anchor="middle" x="108.4" y="-39.82" font-family="Times,serif" font-size="14.00">1</text>
</g>
<!-- no3.func_801C377C -->
<g id="node3" class="node">
<title>no3.func_801C377C</title>
<g id="a_node3"><a xlink:href="no3.func_801C377C.svg" xlink:title="no3.func_801C377C">
<ellipse fill="green" stroke="black" cx="327.69" cy="-18" rx="103.98" ry="18"/>
<text text-anchor="middle" x="327.69" y="-14.3" font-family="Times,serif" font-size="14.00">no3.func_801C377C</text>
</a>
</g>
</g>
<!-- no3.func_801C38D0&#45;&gt;no3.func_801C377C -->
<g id="edge2" class="edge">
<title>no3.func_801C38D0&#45;&gt;no3.func_801C377C</title>
<path fill="none" stroke="black" d="M225.53,-179.93C245.44,-148.57 287.95,-81.6 311.37,-44.71"/>
<polygon fill="black" stroke="black" points="314.48,-46.33 316.89,-36.02 308.57,-42.58 314.48,-46.33"/>
<text text-anchor="middle" x="311.89" y="-39.82" font-family="Times,serif" font-size="14.00">1</text>
</g>
<!-- no3.func_801C3E10 -->
<g id="node4" class="node">
<title>no3.func_801C3E10</title>
<g id="a_node4"><a xlink:href="no3.func_801C3E10.svg" xlink:title="no3.func_801C3E10">
<ellipse fill="green" stroke="black" cx="214.69" cy="-378" rx="103.98" ry="18"/>
<text text-anchor="middle" x="214.69" y="-374.3" font-family="Times,serif" font-size="14.00">no3.func_801C3E10</text>
</a>
</g>
</g>
<!-- no3.func_801C3E10&#45;&gt;no3.func_801C38D0 -->
<g id="edge3" class="edge">
<title>no3.func_801C3E10&#45;&gt;no3.func_801C38D0</title>
<path fill="none" stroke="black" d="M214.69,-359.93C214.69,-328.97 214.69,-263.3 214.69,-226.13"/>
<polygon fill="black" stroke="black" points="218.19,-226.02 214.69,-216.02 211.19,-226.02 218.19,-226.02"/>
<text text-anchor="middle" x="209.69" y="-348.73" font-family="Times,serif" font-size="14.00">1</text>
</g>
</g>
</svg>
