<?xml version="1.0" encoding="UTF-8" standalone="no"?>
<!DOCTYPE svg PUBLIC "-//W3C//DTD SVG 1.1//EN"
 "http://www.w3.org/Graphics/SVG/1.1/DTD/svg11.dtd">
<!-- Generated by graphviz version 2.43.0 (0)
 -->
<!-- Title: no3.AllocEntity Pages: 1 -->
<svg width="11133pt" height="404pt"
 viewBox="0.00 0.00 11132.78 404.00" xmlns="http://www.w3.org/2000/svg" xmlns:xlink="http://www.w3.org/1999/xlink">
<g id="graph0" class="graph" transform="scale(1 1) rotate(0) translate(4 400)">
<title>no3.AllocEntity</title>
<polygon fill="white" stroke="transparent" points="-4,4 -4,-400 11128.78,-400 11128.78,4 -4,4"/>
<!-- no3.AllocEntity -->
<g id="node1" class="node">
<title>no3.AllocEntity</title>
<ellipse fill="green" stroke="black" cx="6125.14" cy="-198" rx="81.79" ry="18"/>
<text text-anchor="middle" x="6125.14" y="-194.3" font-family="Times,serif" font-size="14.00">no3.AllocEntity</text>
</g>
<!-- no3.DestroyEntity -->
<g id="node2" class="node">
<title>no3.DestroyEntity</title>
<g id="a_node2"><a xlink:href="no3.DestroyEntity.svg" xlink:title="no3.DestroyEntity">
<ellipse fill="green" stroke="black" cx="6125.14" cy="-18" rx="96.38" ry="18"/>
<text text-anchor="middle" x="6125.14" y="-14.3" font-family="Times,serif" font-size="14.00">no3.DestroyEntity</text>
</a>
</g>
</g>
<!-- no3.AllocEntity&#45;&gt;no3.DestroyEntity -->
<g id="edge1" class="edge">
<title>no3.AllocEntity&#45;&gt;no3.DestroyEntity</title>
<path fill="none" stroke="black" d="M6125.14,-179.93C6125.14,-148.97 6125.14,-83.3 6125.14,-46.13"/>
<polygon fill="black" stroke="black" points="6128.64,-46.02 6125.14,-36.02 6121.64,-46.02 6128.64,-46.02"/>
<text text-anchor="middle" x="6120.14" y="-39.82" font-family="Times,serif" font-size="14.00">1</text>
</g>
<!-- no3.EntityAlucardWaterEffect -->
<g id="node3" class="node">
<title>no3.EntityAlucardWaterEffect</title>
<g id="a_node3"><a xlink:href="no3.EntityAlucardWaterEffect.svg" xlink:title="no3.EntityAlucardWaterEffect">
<ellipse fill="red" stroke="black" cx="150.14" cy="-378" rx="150.27" ry="18"/>
<text text-anchor="middle" x="150.14" y="-374.3" font-family="Times,serif" font-size="14.00">no3.EntityAlucardWaterEffect</text>
</a>
</g>
</g>
<!-- no3.EntityAlucardWaterEffect&#45;&gt;no3.AllocEntity -->
<g id="edge2" class="edge">
<title>no3.EntityAlucardWaterEffect&#45;&gt;no3.AllocEntity</title>
<path fill="none" stroke="black" d="M253.32,-364.84C272.2,-362.96 291.74,-361.23 310.14,-360 2633.13,-204.67 5487.78,-198.53 6032.87,-198.85"/>
<polygon fill="black" stroke="black" points="6033.03,-202.35 6043.04,-198.86 6033.04,-195.35 6033.03,-202.35"/>
<text text-anchor="middle" x="248.32" y="-353.64" font-family="Times,serif" font-size="14.00">6</text>
</g>
<!-- no3.EntityBackgroundCastleWall -->
<g id="node4" class="node">
<title>no3.EntityBackgroundCastleWall</title>
<g id="a_node4"><a xlink:href="no3.EntityBackgroundCastleWall.svg" xlink:title="no3.EntityBackgroundCastleWall">
<ellipse fill="green" stroke="black" cx="483.14" cy="-378" rx="164.37" ry="18"/>
<text text-anchor="middle" x="483.14" y="-374.3" font-family="Times,serif" font-size="14.00">no3.EntityBackgroundCastleWall</text>
</a>
</g>
</g>
<!-- no3.EntityBackgroundCastleWall&#45;&gt;no3.AllocEntity -->
<g id="edge3" class="edge">
<title>no3.EntityBackgroundCastleWall&#45;&gt;no3.AllocEntity</title>
<path fill="none" stroke="black" d="M595.65,-364.82C615.77,-362.96 636.56,-361.25 656.14,-360 2833.85,-221.11 5507.15,-201.84 6032.95,-199.35"/>
<polygon fill="black" stroke="black" points="6033.15,-202.85 6043.14,-199.3 6033.12,-195.85 6033.15,-202.85"/>
<text text-anchor="middle" x="590.65" y="-353.62" font-family="Times,serif" font-size="14.00">2</text>
</g>
<!-- no3.EntityBackgroundLightning -->
<g id="node5" class="node">
<title>no3.EntityBackgroundLightning</title>
<g id="a_node5"><a xlink:href="no3.EntityBackgroundLightning.svg" xlink:title="no3.EntityBackgroundLightning">
<ellipse fill="red" stroke="black" cx="825.14" cy="-378" rx="159.77" ry="18"/>
<text text-anchor="middle" x="825.14" y="-374.3" font-family="Times,serif" font-size="14.00">no3.EntityBackgroundLightning</text>
</a>
</g>
</g>
<!-- no3.EntityBackgroundLightning&#45;&gt;no3.AllocEntity -->
<g id="edge4" class="edge">
<title>no3.EntityBackgroundLightning&#45;&gt;no3.AllocEntity</title>
<path fill="none" stroke="black" d="M935.04,-364.84C954.7,-362.98 975.01,-361.26 994.14,-360 3029.43,-225.86 5526.46,-202.89 6033,-199.52"/>
<polygon fill="black" stroke="black" points="6033.2,-203.02 6043.17,-199.46 6033.15,-196.02 6033.2,-203.02"/>
<text text-anchor="middle" x="930.04" y="-353.64" font-family="Times,serif" font-size="14.00">2</text>
</g>
<!-- no3.EntityBat -->
<g id="node6" class="node">
<title>no3.EntityBat</title>
<g id="a_node6"><a xlink:href="no3.EntityBat.svg" xlink:title="no3.EntityBat">
<ellipse fill="green" stroke="black" cx="1078.14" cy="-378" rx="75.29" ry="18"/>
<text text-anchor="middle" x="1078.14" y="-374.3" font-family="Times,serif" font-size="14.00">no3.EntityBat</text>
</a>
</g>
</g>
<!-- no3.EntityBat&#45;&gt;no3.AllocEntity -->
<g id="edge5" class="edge">
<title>no3.EntityBat&#45;&gt;no3.AllocEntity</title>
<path fill="none" stroke="black" d="M1130.97,-365.03C1141.57,-363.03 1152.67,-361.21 1163.14,-360 2158.79,-245.08 5440.58,-206.09 6033.05,-199.91"/>
<polygon fill="black" stroke="black" points="6033.28,-203.41 6043.24,-199.81 6033.21,-196.41 6033.28,-203.41"/>
<text text-anchor="middle" x="1125.97" y="-353.83" font-family="Times,serif" font-size="14.00">1</text>
</g>
<!-- no3.EntityBoneScimitar -->
<g id="node7" class="node">
<title>no3.EntityBoneScimitar</title>
<g id="a_node7"><a xlink:href="no3.EntityBoneScimitar.svg" xlink:title="no3.EntityBoneScimitar">
<ellipse fill="red" stroke="black" cx="1294.14" cy="-378" rx="122.38" ry="18"/>
<text text-anchor="middle" x="1294.14" y="-374.3" font-family="Times,serif" font-size="14.00">no3.EntityBoneScimitar</text>
</a>
</g>
</g>
<!-- no3.EntityBoneScimitar&#45;&gt;no3.AllocEntity -->
<g id="edge6" class="edge">
<title>no3.EntityBoneScimitar&#45;&gt;no3.AllocEntity</title>
<path fill="none" stroke="black" d="M1378.22,-364.89C1393.79,-362.99 1409.94,-361.24 1425.14,-360 3277.41,-208.43 5551.63,-199.11 6032.99,-198.91"/>
<polygon fill="black" stroke="black" points="6033.02,-202.41 6043.01,-198.91 6033.01,-195.41 6033.02,-202.41"/>
<text text-anchor="middle" x="1373.22" y="-353.69" font-family="Times,serif" font-size="14.00">1</text>
</g>
<!-- no3.EntityBreakable -->
<g id="node8" class="node">
<title>no3.EntityBreakable</title>
<g id="a_node8"><a xlink:href="no3.EntityBreakable.svg" xlink:title="no3.EntityBreakable">
<ellipse fill="green" stroke="black" cx="1541.14" cy="-378" rx="106.68" ry="18"/>
<text text-anchor="middle" x="1541.14" y="-374.3" font-family="Times,serif" font-size="14.00">no3.EntityBreakable</text>
</a>
</g>
</g>
<!-- no3.EntityBreakable&#45;&gt;no3.AllocEntity -->
<g id="edge7" class="edge">
<title>no3.EntityBreakable&#45;&gt;no3.AllocEntity</title>
<path fill="none" stroke="black" d="M1614.94,-364.95C1628.92,-363.02 1643.45,-361.25 1657.14,-360 3410.99,-200.37 5565.63,-197.23 6032.98,-198.58"/>
<polygon fill="black" stroke="black" points="6033.04,-202.08 6043.05,-198.61 6033.06,-195.08 6033.04,-202.08"/>
<text text-anchor="middle" x="1609.94" y="-353.75" font-family="Times,serif" font-size="14.00">1</text>
</g>
<!-- no3.EntityCavernDoor -->
<g id="node9" class="node">
<title>no3.EntityCavernDoor</title>
<g id="a_node9"><a xlink:href="no3.EntityCavernDoor.svg" xlink:title="no3.EntityCavernDoor">
<ellipse fill="green" stroke="black" cx="1781.14" cy="-378" rx="115.08" ry="18"/>
<text text-anchor="middle" x="1781.14" y="-374.3" font-family="Times,serif" font-size="14.00">no3.EntityCavernDoor</text>
</a>
</g>
</g>
<!-- no3.EntityCavernDoor&#45;&gt;no3.AllocEntity -->
<g id="edge8" class="edge">
<title>no3.EntityCavernDoor&#45;&gt;no3.AllocEntity</title>
<path fill="none" stroke="black" d="M1861.03,-364.96C1875.99,-363.04 1891.52,-361.27 1906.14,-360 3556.69,-216.61 5581.52,-200.92 6033.05,-199.21"/>
<polygon fill="black" stroke="black" points="6033.12,-202.71 6043.1,-199.17 6033.09,-195.71 6033.12,-202.71"/>
<text text-anchor="middle" x="1856.03" y="-353.76" font-family="Times,serif" font-size="14.00">1</text>
</g>
<!-- no3.EntityExplosion3 -->
<g id="node10" class="node">
<title>no3.EntityExplosion3</title>
<g id="a_node10"><a xlink:href="no3.EntityExplosion3.svg" xlink:title="no3.EntityExplosion3">
<ellipse fill="red" stroke="black" cx="2025.14" cy="-378" rx="110.48" ry="18"/>
<text text-anchor="middle" x="2025.14" y="-374.3" font-family="Times,serif" font-size="14.00">no3.EntityExplosion3</text>
</a>
</g>
</g>
<!-- no3.EntityExplosion3&#45;&gt;no3.AllocEntity -->
<g id="edge9" class="edge">
<title>no3.EntityExplosion3&#45;&gt;no3.AllocEntity</title>
<path fill="none" stroke="black" d="M2101.5,-364.92C2115.65,-363.02 2130.32,-361.26 2144.14,-360 3695.16,-218.22 5597.51,-201.29 6033.29,-199.27"/>
<polygon fill="black" stroke="black" points="6033.32,-202.77 6043.31,-199.23 6033.29,-195.77 6033.32,-202.77"/>
<text text-anchor="middle" x="2096.5" y="-353.72" font-family="Times,serif" font-size="14.00">1</text>
</g>
<!-- no3.EntityFallingRock -->
<g id="node11" class="node">
<title>no3.EntityFallingRock</title>
<g id="a_node11"><a xlink:href="no3.EntityFallingRock.svg" xlink:title="no3.EntityFallingRock">
<ellipse fill="green" stroke="black" cx="2267.14" cy="-378" rx="113.98" ry="18"/>
<text text-anchor="middle" x="2267.14" y="-374.3" font-family="Times,serif" font-size="14.00">no3.EntityFallingRock</text>
</a>
</g>
</g>
<!-- no3.EntityFallingRock&#45;&gt;no3.AllocEntity -->
<g id="edge10" class="edge">
<title>no3.EntityFallingRock&#45;&gt;no3.AllocEntity</title>
<path fill="none" stroke="black" d="M2345.76,-364.92C2360.16,-363.03 2375.08,-361.28 2389.14,-360 3838.19,-228.12 5613.54,-203.76 6033.19,-199.73"/>
<polygon fill="black" stroke="black" points="6033.48,-203.23 6043.44,-199.64 6033.41,-196.23 6033.48,-203.23"/>
<text text-anchor="middle" x="2340.76" y="-353.72" font-family="Times,serif" font-size="14.00">1</text>
</g>
<!-- no3.EntityFallingRock2 -->
<g id="node12" class="node">
<title>no3.EntityFallingRock2</title>
<g id="a_node12"><a xlink:href="no3.EntityFallingRock2.svg" xlink:title="no3.EntityFallingRock2">
<ellipse fill="green" stroke="black" cx="2518.14" cy="-378" rx="119.68" ry="18"/>
<text text-anchor="middle" x="2518.14" y="-374.3" font-family="Times,serif" font-size="14.00">no3.EntityFallingRock2</text>
</a>
</g>
</g>
<!-- no3.EntityFallingRock2&#45;&gt;no3.AllocEntity -->
<g id="edge11" class="edge">
<title>no3.EntityFallingRock2&#45;&gt;no3.AllocEntity</title>
<path fill="none" stroke="black" d="M2601.29,-364.99C2616.52,-363.09 2632.29,-361.32 2647.14,-360 3989.9,-240.66 5632.64,-207.06 6033.67,-200.39"/>
<polygon fill="black" stroke="black" points="6033.82,-203.88 6043.76,-200.22 6033.71,-196.89 6033.82,-203.88"/>
<text text-anchor="middle" x="2596.29" y="-353.79" font-family="Times,serif" font-size="14.00">1</text>
</g>
<!-- no3.EntityFlyingOwlAndLeaves -->
<g id="node13" class="node">
<title>no3.EntityFlyingOwlAndLeaves</title>
<g id="a_node13"><a xlink:href="no3.EntityFlyingOwlAndLeaves.svg" xlink:title="no3.EntityFlyingOwlAndLeaves">
<ellipse fill="green" stroke="black" cx="2813.14" cy="-378" rx="157.07" ry="18"/>
<text text-anchor="middle" x="2813.14" y="-374.3" font-family="Times,serif" font-size="14.00">no3.EntityFlyingOwlAndLeaves</text>
</a>
</g>
</g>
<!-- no3.EntityFlyingOwlAndLeaves&#45;&gt;no3.AllocEntity -->
<g id="edge12" class="edge">
<title>no3.EntityFlyingOwlAndLeaves&#45;&gt;no3.AllocEntity</title>
<path fill="none" stroke="black" d="M2922.45,-365.01C2941.34,-363.16 2960.79,-361.41 2979.14,-360 4186.56,-267.34 5658.9,-214.52 6034.56,-201.95"/>
<polygon fill="black" stroke="black" points="6034.95,-205.44 6044.82,-201.6 6034.71,-198.44 6034.95,-205.44"/>
<text text-anchor="middle" x="2917.45" y="-353.81" font-family="Times,serif" font-size="14.00">1</text>
</g>
<!-- no3.EntityForegroundTree -->
<g id="node14" class="node">
<title>no3.EntityForegroundTree</title>
<g id="a_node14"><a xlink:href="no3.EntityForegroundTree.svg" xlink:title="no3.EntityForegroundTree">
<ellipse fill="red" stroke="black" cx="3123.14" cy="-378" rx="134.58" ry="18"/>
<text text-anchor="middle" x="3123.14" y="-374.3" font-family="Times,serif" font-size="14.00">no3.EntityForegroundTree</text>
</a>
</g>
</g>
<!-- no3.EntityForegroundTree&#45;&gt;no3.AllocEntity -->
<g id="edge13" class="edge">
<title>no3.EntityForegroundTree&#45;&gt;no3.AllocEntity</title>
<path fill="none" stroke="black" d="M3216.89,-365.01C3233.29,-363.15 3250.2,-361.39 3266.14,-360 4354.24,-264.78 5680.49,-214.41 6034.66,-202.05"/>
<polygon fill="black" stroke="black" points="6034.98,-205.54 6044.85,-201.69 6034.73,-198.54 6034.98,-205.54"/>
<text text-anchor="middle" x="3211.89" y="-353.81" font-family="Times,serif" font-size="14.00">5</text>
</g>
<!-- no3.EntityHeartRoomGoldDoor -->
<g id="node15" class="node">
<title>no3.EntityHeartRoomGoldDoor</title>
<g id="a_node15"><a xlink:href="no3.EntityHeartRoomGoldDoor.svg" xlink:title="no3.EntityHeartRoomGoldDoor">
<ellipse fill="green" stroke="black" cx="3432.14" cy="-378" rx="156.77" ry="18"/>
<text text-anchor="middle" x="3432.14" y="-374.3" font-family="Times,serif" font-size="14.00">no3.EntityHeartRoomGoldDoor</text>
</a>
</g>
</g>
<!-- no3.EntityHeartRoomGoldDoor&#45;&gt;no3.AllocEntity -->
<g id="edge14" class="edge">
<title>no3.EntityHeartRoomGoldDoor&#45;&gt;no3.AllocEntity</title>
<path fill="none" stroke="black" d="M3541.69,-365.11C3560.19,-363.27 3579.2,-361.49 3597.14,-360 4550.68,-280.54 5709.44,-219.85 6035.82,-203.42"/>
<polygon fill="black" stroke="black" points="6036.34,-206.9 6046.16,-202.9 6035.99,-199.91 6036.34,-206.9"/>
<text text-anchor="middle" x="3536.69" y="-353.91" font-family="Times,serif" font-size="14.00">1</text>
</g>
<!-- no3.EntityMediumWaterSplash -->
<g id="node16" class="node">
<title>no3.EntityMediumWaterSplash</title>
<g id="a_node16"><a xlink:href="no3.EntityMediumWaterSplash.svg" xlink:title="no3.EntityMediumWaterSplash">
<ellipse fill="green" stroke="black" cx="3763.14" cy="-378" rx="156.77" ry="18"/>
<text text-anchor="middle" x="3763.14" y="-374.3" font-family="Times,serif" font-size="14.00">no3.EntityMediumWaterSplash</text>
</a>
</g>
</g>
<!-- no3.EntityMediumWaterSplash&#45;&gt;no3.AllocEntity -->
<g id="edge15" class="edge">
<title>no3.EntityMediumWaterSplash&#45;&gt;no3.AllocEntity</title>
<path fill="none" stroke="black" d="M3873.59,-365.16C3891.81,-363.34 3910.49,-361.55 3928.14,-360 4747.04,-287.83 5739.68,-223.35 6036.95,-204.52"/>
<polygon fill="black" stroke="black" points="6037.48,-208 6047.23,-203.87 6037.03,-201.01 6037.48,-208"/>
<text text-anchor="middle" x="3868.59" y="-353.96" font-family="Times,serif" font-size="14.00">1</text>
</g>
<!-- no3.EntityMerman -->
<g id="node17" class="node">
<title>no3.EntityMerman</title>
<g id="a_node17"><a xlink:href="no3.EntityMerman.svg" xlink:title="no3.EntityMerman">
<ellipse fill="red" stroke="black" cx="4036.14" cy="-378" rx="98.58" ry="18"/>
<text text-anchor="middle" x="4036.14" y="-374.3" font-family="Times,serif" font-size="14.00">no3.EntityMerman</text>
</a>
</g>
</g>
<!-- no3.EntityMerman&#45;&gt;no3.AllocEntity -->
<g id="edge16" class="edge">
<title>no3.EntityMerman&#45;&gt;no3.AllocEntity</title>
<path fill="none" stroke="black" d="M4105.67,-365.16C4118.12,-363.27 4131,-361.46 4143.14,-360 4871.96,-272.63 5757.36,-219.33 6036.48,-203.78"/>
<polygon fill="black" stroke="black" points="6036.76,-207.27 6046.55,-203.22 6036.37,-200.28 6036.76,-207.27"/>
<text text-anchor="middle" x="4100.67" y="-353.96" font-family="Times,serif" font-size="14.00">5</text>
</g>
<!-- no3.EntityMerman3 -->
<g id="node18" class="node">
<title>no3.EntityMerman3</title>
<g id="a_node18"><a xlink:href="no3.EntityMerman3.svg" xlink:title="no3.EntityMerman3">
<ellipse fill="red" stroke="black" cx="4257.14" cy="-378" rx="104.78" ry="18"/>
<text text-anchor="middle" x="4257.14" y="-374.3" font-family="Times,serif" font-size="14.00">no3.EntityMerman3</text>
</a>
</g>
</g>
<!-- no3.EntityMerman3&#45;&gt;no3.AllocEntity -->
<g id="edge17" class="edge">
<title>no3.EntityMerman3&#45;&gt;no3.AllocEntity</title>
<path fill="none" stroke="black" d="M4331.21,-365.23C4344.17,-363.35 4357.53,-361.53 4370.14,-360 5008.66,-282.75 5781.89,-223.81 6038.07,-205.2"/>
<polygon fill="black" stroke="black" points="6038.7,-208.66 6048.42,-204.44 6038.19,-201.68 6038.7,-208.66"/>
<text text-anchor="middle" x="4326.21" y="-354.03" font-family="Times,serif" font-size="14.00">5</text>
</g>
<!-- no3.EntityMermanFireball -->
<g id="node19" class="node">
<title>no3.EntityMermanFireball</title>
<g id="a_node19"><a xlink:href="no3.EntityMermanFireball.svg" xlink:title="no3.EntityMermanFireball">
<ellipse fill="green" stroke="black" cx="4514.14" cy="-378" rx="134.58" ry="18"/>
<text text-anchor="middle" x="4514.14" y="-374.3" font-family="Times,serif" font-size="14.00">no3.EntityMermanFireball</text>
</a>
</g>
</g>
<!-- no3.EntityMermanFireball&#45;&gt;no3.AllocEntity -->
<g id="edge18" class="edge">
<title>no3.EntityMermanFireball&#45;&gt;no3.AllocEntity</title>
<path fill="none" stroke="black" d="M4610.66,-365.4C4626.2,-363.57 4642.11,-361.72 4657.14,-360 5184.92,-299.69 5819.97,-231.54 6042.95,-207.75"/>
<polygon fill="black" stroke="black" points="6043.36,-211.22 6052.94,-206.68 6042.62,-204.26 6043.36,-211.22"/>
<text text-anchor="middle" x="4605.66" y="-354.2" font-family="Times,serif" font-size="14.00">2</text>
</g>
<!-- no3.EntityMermanRockLeftSide -->
<g id="node20" class="node">
<title>no3.EntityMermanRockLeftSide</title>
<g id="a_node20"><a xlink:href="no3.EntityMermanRockLeftSide.svg" xlink:title="no3.EntityMermanRockLeftSide">
<ellipse fill="green" stroke="black" cx="4826.14" cy="-378" rx="159.77" ry="18"/>
<text text-anchor="middle" x="4826.14" y="-374.3" font-family="Times,serif" font-size="14.00">no3.EntityMermanRockLeftSide</text>
</a>
</g>
</g>
<!-- no3.EntityMermanRockLeftSide&#45;&gt;no3.AllocEntity -->
<g id="edge19" class="edge">
<title>no3.EntityMermanRockLeftSide&#45;&gt;no3.AllocEntity</title>
<path fill="none" stroke="black" d="M4923.24,-363.69C5170.94,-329.75 5822.58,-240.46 6047.49,-209.64"/>
<polygon fill="black" stroke="black" points="6048.12,-213.09 6057.55,-208.26 6047.17,-206.15 6048.12,-213.09"/>
<text text-anchor="middle" x="4918.24" y="-352.49" font-family="Times,serif" font-size="14.00">3</text>
</g>
<!-- no3.EntityMermanRockRightSide -->
<g id="node21" class="node">
<title>no3.EntityMermanRockRightSide</title>
<g id="a_node21"><a xlink:href="no3.EntityMermanRockRightSide.svg" xlink:title="no3.EntityMermanRockRightSide">
<ellipse fill="green" stroke="black" cx="5171.14" cy="-378" rx="167.07" ry="18"/>
<text text-anchor="middle" x="5171.14" y="-374.3" font-family="Times,serif" font-size="14.00">no3.EntityMermanRockRightSide</text>
</a>
</g>
</g>
<!-- no3.EntityMermanRockRightSide&#45;&gt;no3.AllocEntity -->
<g id="edge20" class="edge">
<title>no3.EntityMermanRockRightSide&#45;&gt;no3.AllocEntity</title>
<path fill="none" stroke="black" d="M5250.83,-362.13C5433.82,-327.99 5881.59,-244.44 6054.97,-212.09"/>
<polygon fill="black" stroke="black" points="6055.81,-215.5 6065,-210.22 6054.52,-208.61 6055.81,-215.5"/>
<text text-anchor="middle" x="5245.83" y="-350.93" font-family="Times,serif" font-size="14.00">2</text>
</g>
<!-- no3.EntityMermanSpawner -->
<g id="node22" class="node">
<title>no3.EntityMermanSpawner</title>
<g id="a_node22"><a xlink:href="no3.EntityMermanSpawner.svg" xlink:title="no3.EntityMermanSpawner">
<ellipse fill="red" stroke="black" cx="5496.14" cy="-378" rx="139.98" ry="18"/>
<text text-anchor="middle" x="5496.14" y="-374.3" font-family="Times,serif" font-size="14.00">no3.EntityMermanSpawner</text>
</a>
</g>
</g>
<!-- no3.EntityMermanSpawner&#45;&gt;no3.AllocEntity -->
<g id="edge21" class="edge">
<title>no3.EntityMermanSpawner&#45;&gt;no3.AllocEntity</title>
<path fill="none" stroke="black" d="M5551.13,-361.44C5669.19,-328.03 5945.98,-249.7 6066.9,-215.48"/>
<polygon fill="black" stroke="black" points="6068.05,-218.79 6076.72,-212.7 6066.14,-212.06 6068.05,-218.79"/>
<text text-anchor="middle" x="5546.13" y="-350.24" font-family="Times,serif" font-size="14.00">1</text>
</g>
<!-- no3.EntityMermanWaterSplash -->
<g id="node23" class="node">
<title>no3.EntityMermanWaterSplash</title>
<g id="a_node23"><a xlink:href="no3.EntityMermanWaterSplash.svg" xlink:title="no3.EntityMermanWaterSplash">
<ellipse fill="green" stroke="black" cx="5811.14" cy="-378" rx="157.07" ry="18"/>
<text text-anchor="middle" x="5811.14" y="-374.3" font-family="Times,serif" font-size="14.00">no3.EntityMermanWaterSplash</text>
</a>
</g>
</g>
<!-- no3.EntityMermanWaterSplash&#45;&gt;no3.AllocEntity -->
<g id="edge22" class="edge">
<title>no3.EntityMermanWaterSplash&#45;&gt;no3.AllocEntity</title>
<path fill="none" stroke="black" d="M5840.68,-360.25C5898.15,-327.67 6024.91,-255.82 6087.98,-220.06"/>
<polygon fill="black" stroke="black" points="6089.84,-223.03 6096.81,-215.06 6086.38,-216.94 6089.84,-223.03"/>
<text text-anchor="middle" x="5835.68" y="-349.05" font-family="Times,serif" font-size="14.00">1</text>
</g>
<!-- no3.EntityRoomTransition2 -->
<g id="node24" class="node">
<title>no3.EntityRoomTransition2</title>
<g id="a_node24"><a xlink:href="no3.EntityRoomTransition2.svg" xlink:title="no3.EntityRoomTransition2">
<ellipse fill="green" stroke="black" cx="6125.14" cy="-378" rx="139.18" ry="18"/>
<text text-anchor="middle" x="6125.14" y="-374.3" font-family="Times,serif" font-size="14.00">no3.EntityRoomTransition2</text>
</a>
</g>
</g>
<!-- no3.EntityRoomTransition2&#45;&gt;no3.AllocEntity -->
<g id="edge23" class="edge">
<title>no3.EntityRoomTransition2&#45;&gt;no3.AllocEntity</title>
<path fill="none" stroke="black" d="M6125.14,-359.93C6125.14,-328.97 6125.14,-263.3 6125.14,-226.13"/>
<polygon fill="black" stroke="black" points="6128.64,-226.02 6125.14,-216.02 6121.64,-226.02 6128.64,-226.02"/>
<text text-anchor="middle" x="6120.14" y="-348.73" font-family="Times,serif" font-size="14.00">1</text>
</g>
<!-- no3.EntitySplashWater -->
<g id="node25" class="node">
<title>no3.EntitySplashWater</title>
<g id="a_node25"><a xlink:href="no3.EntitySplashWater.svg" xlink:title="no3.EntitySplashWater">
<ellipse fill="green" stroke="black" cx="6400.14" cy="-378" rx="118.08" ry="18"/>
<text text-anchor="middle" x="6400.14" y="-374.3" font-family="Times,serif" font-size="14.00">no3.EntitySplashWater</text>
</a>
</g>
</g>
<!-- no3.EntitySplashWater&#45;&gt;no3.AllocEntity -->
<g id="edge24" class="edge">
<title>no3.EntitySplashWater&#45;&gt;no3.AllocEntity</title>
<path fill="none" stroke="black" d="M6374.27,-360.25C6324.26,-327.89 6214.38,-256.77 6158.78,-220.78"/>
<polygon fill="black" stroke="black" points="6160.64,-217.81 6150.34,-215.31 6156.83,-223.69 6160.64,-217.81"/>
<text text-anchor="middle" x="6369.27" y="-349.05" font-family="Times,serif" font-size="14.00">1</text>
</g>
<!-- no3.EntityStrongWarg -->
<g id="node26" class="node">
<title>no3.EntityStrongWarg</title>
<g id="a_node26"><a xlink:href="no3.EntityStrongWarg.svg" xlink:title="no3.EntityStrongWarg">
<ellipse fill="red" stroke="black" cx="6652.14" cy="-378" rx="115.88" ry="18"/>
<text text-anchor="middle" x="6652.14" y="-374.3" font-family="Times,serif" font-size="14.00">no3.EntityStrongWarg</text>
</a>
</g>
</g>
<!-- no3.EntityStrongWarg&#45;&gt;no3.AllocEntity -->
<g id="edge25" class="edge">
<title>no3.EntityStrongWarg&#45;&gt;no3.AllocEntity</title>
<path fill="none" stroke="black" d="M6605.83,-361.36C6507.9,-328.28 6280.33,-251.42 6177.39,-216.65"/>
<polygon fill="black" stroke="black" points="6178.41,-213.3 6167.82,-213.42 6176.17,-219.93 6178.41,-213.3"/>
<text text-anchor="middle" x="6600.83" y="-350.16" font-family="Times,serif" font-size="14.00">2</text>
</g>
<!-- no3.EntityStrongWargWaveAttack -->
<g id="node27" class="node">
<title>no3.EntityStrongWargWaveAttack</title>
<g id="a_node27"><a xlink:href="no3.EntityStrongWargWaveAttack.svg" xlink:title="no3.EntityStrongWargWaveAttack">
<ellipse fill="red" stroke="black" cx="6956.14" cy="-378" rx="170.07" ry="18"/>
<text text-anchor="middle" x="6956.14" y="-374.3" font-family="Times,serif" font-size="14.00">no3.EntityStrongWargWaveAttack</text>
</a>
</g>
</g>
<!-- no3.EntityStrongWargWaveAttack&#45;&gt;no3.AllocEntity -->
<g id="edge26" class="edge">
<title>no3.EntityStrongWargWaveAttack&#45;&gt;no3.AllocEntity</title>
<path fill="none" stroke="black" d="M6884.21,-361.59C6725.06,-327.5 6345.08,-246.11 6191.36,-213.19"/>
<polygon fill="black" stroke="black" points="6192.08,-209.76 6181.57,-211.09 6190.61,-216.6 6192.08,-209.76"/>
<text text-anchor="middle" x="6879.21" y="-350.39" font-family="Times,serif" font-size="14.00">1</text>
</g>
<!-- no3.EntityUnkId13 -->
<g id="node28" class="node">
<title>no3.EntityUnkId13</title>
<g id="a_node28"><a xlink:href="no3.EntityUnkId13.svg" xlink:title="no3.EntityUnkId13">
<ellipse fill="green" stroke="black" cx="7244.14" cy="-378" rx="99.38" ry="18"/>
<text text-anchor="middle" x="7244.14" y="-374.3" font-family="Times,serif" font-size="14.00">no3.EntityUnkId13</text>
</a>
</g>
</g>
<!-- no3.EntityUnkId13&#45;&gt;no3.AllocEntity -->
<g id="edge27" class="edge">
<title>no3.EntityUnkId13&#45;&gt;no3.AllocEntity</title>
<path fill="none" stroke="black" d="M7172.01,-365.53C6970.59,-333.49 6403.56,-243.29 6199.49,-210.83"/>
<polygon fill="black" stroke="black" points="6199.89,-207.35 6189.47,-209.23 6198.79,-214.26 6199.89,-207.35"/>
<text text-anchor="middle" x="7167.01" y="-354.33" font-family="Times,serif" font-size="14.00">1</text>
</g>
<!-- no3.EntityUnkId31 -->
<g id="node29" class="node">
<title>no3.EntityUnkId31</title>
<g id="a_node29"><a xlink:href="no3.EntityUnkId31.svg" xlink:title="no3.EntityUnkId31">
<ellipse fill="red" stroke="black" cx="7461.14" cy="-378" rx="99.38" ry="18"/>
<text text-anchor="middle" x="7461.14" y="-374.3" font-family="Times,serif" font-size="14.00">no3.EntityUnkId31</text>
</a>
</g>
</g>
<!-- no3.EntityUnkId31&#45;&gt;no3.AllocEntity -->
<g id="edge28" class="edge">
<title>no3.EntityUnkId31&#45;&gt;no3.AllocEntity</title>
<path fill="none" stroke="black" d="M7389.06,-365.51C7376.75,-363.62 7364.08,-361.71 7352.14,-360 6919.92,-297.95 6400.62,-232.95 6204.93,-208.79"/>
<polygon fill="black" stroke="black" points="6205.09,-205.28 6194.74,-207.53 6204.24,-212.23 6205.09,-205.28"/>
<text text-anchor="middle" x="7384.06" y="-354.31" font-family="Times,serif" font-size="14.00">2</text>
</g>
<!-- no3.EntityUnkId50 -->
<g id="node30" class="node">
<title>no3.EntityUnkId50</title>
<g id="a_node30"><a xlink:href="no3.EntityUnkId50.svg" xlink:title="no3.EntityUnkId50">
<ellipse fill="green" stroke="black" cx="7678.14" cy="-378" rx="99.38" ry="18"/>
<text text-anchor="middle" x="7678.14" y="-374.3" font-family="Times,serif" font-size="14.00">no3.EntityUnkId50</text>
</a>
</g>
</g>
<!-- no3.EntityUnkId50&#45;&gt;no3.AllocEntity -->
<g id="edge29" class="edge">
<title>no3.EntityUnkId50&#45;&gt;no3.AllocEntity</title>
<path fill="none" stroke="black" d="M7606.67,-365.4C7594.17,-363.5 7581.29,-361.62 7569.14,-360 7053.21,-291.04 6430.81,-228.65 6208.8,-207.04"/>
<polygon fill="black" stroke="black" points="6208.82,-203.52 6198.53,-206.04 6208.14,-210.49 6208.82,-203.52"/>
<text text-anchor="middle" x="7601.67" y="-354.2" font-family="Times,serif" font-size="14.00">2</text>
</g>
<!-- no3.EntityUnkId52 -->
<g id="node31" class="node">
<title>no3.EntityUnkId52</title>
<g id="a_node31"><a xlink:href="no3.EntityUnkId52.svg" xlink:title="no3.EntityUnkId52">
<ellipse fill="green" stroke="black" cx="7895.14" cy="-378" rx="99.38" ry="18"/>
<text text-anchor="middle" x="7895.14" y="-374.3" font-family="Times,serif" font-size="14.00">no3.EntityUnkId52</text>
</a>
</g>
</g>
<!-- no3.EntityUnkId52&#45;&gt;no3.AllocEntity -->
<g id="edge30" class="edge">
<title>no3.EntityUnkId52&#45;&gt;no3.AllocEntity</title>
<path fill="none" stroke="black" d="M7824.27,-365.34C7811.59,-363.42 7798.49,-361.56 7786.14,-360 7185.05,-284.06 6457.62,-224.75 6211.36,-205.58"/>
<polygon fill="black" stroke="black" points="6211.29,-202.06 6201.05,-204.78 6210.75,-209.04 6211.29,-202.06"/>
<text text-anchor="middle" x="7819.27" y="-354.14" font-family="Times,serif" font-size="14.00">2</text>
</g>
<!-- no3.EntityUnkId5A -->
<g id="node32" class="node">
<title>no3.EntityUnkId5A</title>
<g id="a_node32"><a xlink:href="no3.EntityUnkId5A.svg" xlink:title="no3.EntityUnkId5A">
<ellipse fill="red" stroke="black" cx="8113.14" cy="-378" rx="100.18" ry="18"/>
<text text-anchor="middle" x="8113.14" y="-374.3" font-family="Times,serif" font-size="14.00">no3.EntityUnkId5A</text>
</a>
</g>
</g>
<!-- no3.EntityUnkId5A&#45;&gt;no3.AllocEntity -->
<g id="edge31" class="edge">
<title>no3.EntityUnkId5A&#45;&gt;no3.AllocEntity</title>
<path fill="none" stroke="black" d="M8041.93,-365.27C8029.04,-363.36 8015.7,-361.51 8003.14,-360 7315.86,-277.53 6482.15,-221.42 6213.24,-204.42"/>
<polygon fill="black" stroke="black" points="6213.35,-200.92 6203.15,-203.78 6212.91,-207.91 6213.35,-200.92"/>
<text text-anchor="middle" x="8036.93" y="-354.07" font-family="Times,serif" font-size="14.00">2</text>
</g>
<!-- no3.EntityUnkId5B -->
<g id="node33" class="node">
<title>no3.EntityUnkId5B</title>
<g id="a_node33"><a xlink:href="no3.EntityUnkId5B.svg" xlink:title="no3.EntityUnkId5B">
<ellipse fill="green" stroke="black" cx="8332.14" cy="-378" rx="100.98" ry="18"/>
<text text-anchor="middle" x="8332.14" y="-374.3" font-family="Times,serif" font-size="14.00">no3.EntityUnkId5B</text>
</a>
</g>
</g>
<!-- no3.EntityUnkId5B&#45;&gt;no3.AllocEntity -->
<g id="edge32" class="edge">
<title>no3.EntityUnkId5B&#45;&gt;no3.AllocEntity</title>
<path fill="none" stroke="black" d="M8260.94,-365.18C8248.05,-363.27 8234.71,-361.45 8222.14,-360 7446.94,-270.47 6504.58,-218.22 6214.42,-203.4"/>
<polygon fill="black" stroke="black" points="6214.54,-199.9 6204.38,-202.89 6214.19,-206.89 6214.54,-199.9"/>
<text text-anchor="middle" x="8255.94" y="-353.98" font-family="Times,serif" font-size="14.00">1</text>
</g>
<!-- no3.EntityUnkId5C -->
<g id="node34" class="node">
<title>no3.EntityUnkId5C</title>
<g id="a_node34"><a xlink:href="no3.EntityUnkId5C.svg" xlink:title="no3.EntityUnkId5C">
<ellipse fill="red" stroke="black" cx="8551.14" cy="-378" rx="100.98" ry="18"/>
<text text-anchor="middle" x="8551.14" y="-374.3" font-family="Times,serif" font-size="14.00">no3.EntityUnkId5C</text>
</a>
</g>
</g>
<!-- no3.EntityUnkId5C&#45;&gt;no3.AllocEntity -->
<g id="edge33" class="edge">
<title>no3.EntityUnkId5C&#45;&gt;no3.AllocEntity</title>
<path fill="none" stroke="black" d="M8480.6,-365.1C8467.83,-363.2 8454.6,-361.4 8442.14,-360 7578.18,-262.79 6525.93,-215.12 6215.43,-202.5"/>
<polygon fill="black" stroke="black" points="6215.27,-198.99 6205.14,-202.08 6214.99,-205.98 6215.27,-198.99"/>
<text text-anchor="middle" x="8475.6" y="-353.9" font-family="Times,serif" font-size="14.00">4</text>
</g>
<!-- no3.EntityWarg -->
<g id="node35" class="node">
<title>no3.EntityWarg</title>
<g id="a_node35"><a xlink:href="no3.EntityWarg.svg" xlink:title="no3.EntityWarg">
<ellipse fill="red" stroke="black" cx="8754.14" cy="-378" rx="83.69" ry="18"/>
<text text-anchor="middle" x="8754.14" y="-374.3" font-family="Times,serif" font-size="14.00">no3.EntityWarg</text>
</a>
</g>
</g>
<!-- no3.EntityWarg&#45;&gt;no3.AllocEntity -->
<g id="edge34" class="edge">
<title>no3.EntityWarg&#45;&gt;no3.AllocEntity</title>
<path fill="none" stroke="black" d="M8695.26,-365.16C8683.97,-363.2 8672.21,-361.36 8661.14,-360 7710.04,-243.29 6547.27,-208.73 6216.68,-200.93"/>
<polygon fill="black" stroke="black" points="6216.29,-197.42 6206.21,-200.69 6216.13,-204.42 6216.29,-197.42"/>
<text text-anchor="middle" x="8690.26" y="-353.96" font-family="Times,serif" font-size="14.00">1</text>
</g>
<!-- no3.EntityZombie -->
<g id="node36" class="node">
<title>no3.EntityZombie</title>
<g id="a_node36"><a xlink:href="no3.EntityZombie.svg" xlink:title="no3.EntityZombie">
<ellipse fill="green" stroke="black" cx="8950.14" cy="-378" rx="94.48" ry="18"/>
<text text-anchor="middle" x="8950.14" y="-374.3" font-family="Times,serif" font-size="14.00">no3.EntityZombie</text>
</a>
</g>
</g>
<!-- no3.EntityZombie&#45;&gt;no3.AllocEntity -->
<g id="edge35" class="edge">
<title>no3.EntityZombie&#45;&gt;no3.AllocEntity</title>
<path fill="none" stroke="black" d="M8884.34,-365.09C8872.01,-363.16 8859.2,-361.35 8847.14,-360 7818.4,-245 6561.14,-208.99 6216.3,-200.94"/>
<polygon fill="black" stroke="black" points="6216.2,-197.43 6206.12,-200.7 6216.03,-204.43 6216.2,-197.43"/>
<text text-anchor="middle" x="8879.34" y="-353.89" font-family="Times,serif" font-size="14.00">1</text>
</g>
<!-- no3.EntityZombieSpawner -->
<g id="node37" class="node">
<title>no3.EntityZombieSpawner</title>
<g id="a_node37"><a xlink:href="no3.EntityZombieSpawner.svg" xlink:title="no3.EntityZombieSpawner">
<ellipse fill="green" stroke="black" cx="9197.14" cy="-378" rx="135.38" ry="18"/>
<text text-anchor="middle" x="9197.14" y="-374.3" font-family="Times,serif" font-size="14.00">no3.EntityZombieSpawner</text>
</a>
</g>
</g>
<!-- no3.EntityZombieSpawner&#45;&gt;no3.AllocEntity -->
<g id="edge36" class="edge">
<title>no3.EntityZombieSpawner&#45;&gt;no3.AllocEntity</title>
<path fill="none" stroke="black" d="M9103.11,-365.04C9086.48,-363.17 9069.31,-361.4 9053.14,-360 7936.6,-263.49 6575.24,-213.91 6215.7,-201.91"/>
<polygon fill="black" stroke="black" points="6215.72,-198.41 6205.61,-201.58 6215.49,-205.41 6215.72,-198.41"/>
<text text-anchor="middle" x="9098.11" y="-353.84" font-family="Times,serif" font-size="14.00">1</text>
</g>
<!-- no3.TestCollisions -->
<g id="node38" class="node">
<title>no3.TestCollisions</title>
<g id="a_node38"><a xlink:href="no3.TestCollisions.svg" xlink:title="no3.TestCollisions">
<ellipse fill="red" stroke="black" cx="9445.14" cy="-378" rx="94.78" ry="18"/>
<text text-anchor="middle" x="9445.14" y="-374.3" font-family="Times,serif" font-size="14.00">no3.TestCollisions</text>
</a>
</g>
</g>
<!-- no3.TestCollisions&#45;&gt;no3.AllocEntity -->
<g id="edge37" class="edge">
<title>no3.TestCollisions&#45;&gt;no3.AllocEntity</title>
<path fill="none" stroke="black" d="M9378.99,-365.05C9366.45,-363.11 9353.42,-361.31 9341.14,-360 8109.25,-228.9 6600.24,-204.13 6216.99,-199.84"/>
<polygon fill="black" stroke="black" points="6216.82,-196.34 6206.79,-199.73 6216.75,-203.34 6216.82,-196.34"/>
<text text-anchor="middle" x="9373.99" y="-353.85" font-family="Times,serif" font-size="14.00">4</text>
</g>
<!-- no3.func_801C13F8 -->
<g id="node39" class="node">
<title>no3.func_801C13F8</title>
<g id="a_node39"><a xlink:href="no3.func_801C13F8.svg" xlink:title="no3.func_801C13F8">
<ellipse fill="green" stroke="black" cx="9661.14" cy="-378" rx="103.18" ry="18"/>
<text text-anchor="middle" x="9661.14" y="-374.3" font-family="Times,serif" font-size="14.00">no3.func_801C13F8</text>
</a>
</g>
</g>
<!-- no3.func_801C13F8&#45;&gt;no3.AllocEntity -->
<g id="edge38" class="edge">
<title>no3.func_801C13F8&#45;&gt;no3.AllocEntity</title>
<path fill="none" stroke="black" d="M9589.58,-365.01C9576.17,-363.08 9562.25,-361.3 9549.14,-360 8230.28,-229.26 6614.79,-204.15 6216.9,-199.83"/>
<polygon fill="black" stroke="black" points="6216.92,-196.33 6206.88,-199.72 6216.84,-203.33 6216.92,-196.33"/>
<text text-anchor="middle" x="9584.58" y="-353.81" font-family="Times,serif" font-size="14.00">1</text>
</g>
<!-- no3.func_801C8C84 -->
<g id="node40" class="node">
<title>no3.func_801C8C84</title>
<g id="a_node40"><a xlink:href="no3.func_801C8C84.svg" xlink:title="no3.func_801C8C84">
<ellipse fill="red" stroke="black" cx="9886.14" cy="-378" rx="103.98" ry="18"/>
<text text-anchor="middle" x="9886.14" y="-374.3" font-family="Times,serif" font-size="14.00">no3.func_801C8C84</text>
</a>
</g>
</g>
<!-- no3.func_801C8C84&#45;&gt;no3.AllocEntity -->
<g id="edge39" class="edge">
<title>no3.func_801C8C84&#45;&gt;no3.AllocEntity</title>
<path fill="none" stroke="black" d="M9813.94,-364.98C9800.41,-363.06 9786.37,-361.28 9773.14,-360 8361.29,-223.03 6630.62,-202.5 6217,-199.5"/>
<polygon fill="black" stroke="black" points="6216.92,-196 6206.89,-199.43 6216.87,-203 6216.92,-196"/>
<text text-anchor="middle" x="9808.94" y="-353.78" font-family="Times,serif" font-size="14.00">1</text>
</g>
<!-- no3.func_801C8DB4 -->
<g id="node41" class="node">
<title>no3.func_801C8DB4</title>
<g id="a_node41"><a xlink:href="no3.func_801C8DB4.svg" xlink:title="no3.func_801C8DB4">
<ellipse fill="red" stroke="black" cx="10113.14" cy="-378" rx="105.08" ry="18"/>
<text text-anchor="middle" x="10113.14" y="-374.3" font-family="Times,serif" font-size="14.00">no3.func_801C8DB4</text>
</a>
</g>
</g>
<!-- no3.func_801C8DB4&#45;&gt;no3.AllocEntity -->
<g id="edge40" class="edge">
<title>no3.func_801C8DB4&#45;&gt;no3.AllocEntity</title>
<path fill="none" stroke="black" d="M10040.3,-364.96C10026.65,-363.04 10012.48,-361.27 9999.14,-360 8493.52,-216.86 6646.74,-200.96 6217.32,-199.21"/>
<polygon fill="black" stroke="black" points="6217.16,-195.71 6207.14,-199.17 6217.13,-202.71 6217.16,-195.71"/>
<text text-anchor="middle" x="10035.3" y="-353.76" font-family="Times,serif" font-size="14.00">1</text>
</g>
<!-- no3.func_801C9BC0 -->
<g id="node42" class="node">
<title>no3.func_801C9BC0</title>
<g id="a_node42"><a xlink:href="no3.func_801C9BC0.svg" xlink:title="no3.func_801C9BC0">
<ellipse fill="green" stroke="black" cx="10341.14" cy="-378" rx="104.78" ry="18"/>
<text text-anchor="middle" x="10341.14" y="-374.3" font-family="Times,serif" font-size="14.00">no3.func_801C9BC0</text>
</a>
</g>
</g>
<!-- no3.func_801C9BC0&#45;&gt;no3.AllocEntity -->
<g id="edge41" class="edge">
<title>no3.func_801C9BC0&#45;&gt;no3.AllocEntity</title>
<path fill="none" stroke="black" d="M10268.61,-364.98C10254.87,-363.04 10240.58,-361.26 10227.14,-360 8626.34,-209.68 6661.35,-199.27 6217.22,-198.91"/>
<polygon fill="black" stroke="black" points="6217.01,-195.41 6207.01,-198.91 6217.01,-202.41 6217.01,-195.41"/>
<text text-anchor="middle" x="10263.61" y="-353.78" font-family="Times,serif" font-size="14.00">1</text>
</g>
<!-- no3.func_801CC5A4 -->
<g id="node43" class="node">
<title>no3.func_801CC5A4</title>
<g id="a_node43"><a xlink:href="no3.func_801CC5A4.svg" xlink:title="no3.func_801CC5A4">
<ellipse fill="red" stroke="black" cx="10568.14" cy="-378" rx="104.78" ry="18"/>
<text text-anchor="middle" x="10568.14" y="-374.3" font-family="Times,serif" font-size="14.00">no3.func_801CC5A4</text>
</a>
</g>
</g>
<!-- no3.func_801CC5A4&#45;&gt;no3.AllocEntity -->
<g id="edge42" class="edge">
<title>no3.func_801CC5A4&#45;&gt;no3.AllocEntity</title>
<path fill="none" stroke="black" d="M10495.95,-364.91C10482.42,-362.99 10468.37,-361.24 10455.14,-360 8759.44,-201.43 6676.46,-197.41 6217.41,-198.6"/>
<polygon fill="black" stroke="black" points="6217.19,-195.1 6207.2,-198.63 6217.21,-202.1 6217.19,-195.1"/>
<text text-anchor="middle" x="10490.95" y="-353.71" font-family="Times,serif" font-size="14.00">1</text>
</g>
<!-- no3.func_801CF438 -->
<g id="node44" class="node">
<title>no3.func_801CF438</title>
<g id="a_node44"><a xlink:href="no3.func_801CF438.svg" xlink:title="no3.func_801CF438">
<ellipse fill="red" stroke="black" cx="10794.14" cy="-378" rx="103.18" ry="18"/>
<text text-anchor="middle" x="10794.14" y="-374.3" font-family="Times,serif" font-size="14.00">no3.func_801CF438</text>
</a>
</g>
</g>
<!-- no3.func_801CF438&#45;&gt;no3.AllocEntity -->
<g id="edge43" class="edge">
<title>no3.func_801CF438&#45;&gt;no3.AllocEntity</title>
<path fill="none" stroke="black" d="M10722.89,-364.93C10709.39,-363 10695.35,-361.23 10682.14,-360 9769.22,-274.88 6777.39,-211.98 6216.27,-200.78"/>
<polygon fill="black" stroke="black" points="6216.28,-197.28 6206.21,-200.58 6216.14,-204.28 6216.28,-197.28"/>
<text text-anchor="middle" x="10717.89" y="-353.73" font-family="Times,serif" font-size="14.00">1</text>
</g>
<!-- no3.func_801D2D40 -->
<g id="node45" class="node">
<title>no3.func_801D2D40</title>
<g id="a_node45"><a xlink:href="no3.func_801D2D40.svg" xlink:title="no3.func_801D2D40">
<ellipse fill="green" stroke="black" cx="11020.14" cy="-378" rx="104.78" ry="18"/>
<text text-anchor="middle" x="11020.14" y="-374.3" font-family="Times,serif" font-size="14.00">no3.func_801D2D40</text>
</a>
</g>
</g>
<!-- no3.func_801D2D40&#45;&gt;no3.AllocEntity -->
<g id="edge44" class="edge">
<title>no3.func_801D2D40&#45;&gt;no3.AllocEntity</title>
<path fill="none" stroke="black" d="M10947.92,-364.96C10934.08,-363.01 10919.69,-361.23 10906.14,-360 9946.16,-272.55 6795.95,-211.31 6216.99,-200.66"/>
<polygon fill="black" stroke="black" points="6216.68,-197.15 6206.62,-200.47 6216.55,-204.15 6216.68,-197.15"/>
<text text-anchor="middle" x="10942.92" y="-353.76" font-family="Times,serif" font-size="14.00">1</text>
</g>
</g>
</svg>
