<?xml version="1.0" encoding="UTF-8" standalone="no"?>
<!DOCTYPE svg PUBLIC "-//W3C//DTD SVG 1.1//EN"
 "http://www.w3.org/Graphics/SVG/1.1/DTD/svg11.dtd">
<!-- Generated by graphviz version 2.43.0 (0)
 -->
<!-- Title: no3.EntityEnemyBlood Pages: 1 -->
<svg width="1546pt" height="131pt"
 viewBox="0.00 0.00 1545.93 131.00" xmlns="http://www.w3.org/2000/svg" xmlns:xlink="http://www.w3.org/1999/xlink">
<g id="graph0" class="graph" transform="scale(1 1) rotate(0) translate(4 127)">
<title>no3.EntityEnemyBlood</title>
<polygon fill="white" stroke="transparent" points="-4,4 -4,-127 1541.93,-127 1541.93,4 -4,4"/>
<!-- no3.EntityEnemyBlood -->
<g id="node1" class="node">
<title>no3.EntityEnemyBlood</title>
<ellipse fill="green" stroke="black" cx="702.99" cy="-105" rx="118.08" ry="18"/>
<text text-anchor="middle" x="702.99" y="-101.3" font-family="Times,serif" font-size="14.00">no3.EntityEnemyBlood</text>
</g>
<!-- dra.func_800EDB58 -->
<g id="node2" class="node">
<title>dra.func_800EDB58</title>
<g id="a_node2"><a xlink:href="dra.func_800EDB58.svg" xlink:title="dra.func_800EDB58">
<ellipse fill="green" stroke="black" cx="103.99" cy="-18" rx="103.98" ry="18"/>
<text text-anchor="middle" x="103.99" y="-14.3" font-family="Times,serif" font-size="14.00">dra.func_800EDB58</text>
</a>
</g>
</g>
<!-- no3.EntityEnemyBlood&#45;&gt;dra.func_800EDB58 -->
<g id="edge1" class="edge">
<title>no3.EntityEnemyBlood&#45;&gt;dra.func_800EDB58</title>
<path fill="none" stroke="black" d="M618.23,-92.41C521.22,-79.08 357.58,-56.41 216.99,-36 208.05,-34.7 198.72,-33.33 189.41,-31.95"/>
<polygon fill="black" stroke="black" points="189.75,-28.46 179.35,-30.45 188.72,-35.38 189.75,-28.46"/>
<text text-anchor="middle" x="448.99" y="-57.8" font-family="Times,serif" font-size="14.00">1</text>
</g>
<!-- no3.InitializeEntity -->
<g id="node3" class="node">
<title>no3.InitializeEntity</title>
<g id="a_node3"><a xlink:href="no3.InitializeEntity.svg" xlink:title="no3.InitializeEntity">
<ellipse fill="green" stroke="black" cx="325.99" cy="-18" rx="100.18" ry="18"/>
<text text-anchor="middle" x="325.99" y="-14.3" font-family="Times,serif" font-size="14.00">no3.InitializeEntity</text>
</a>
</g>
</g>
<!-- no3.EntityEnemyBlood&#45;&gt;no3.InitializeEntity -->
<g id="edge2" class="edge">
<title>no3.EntityEnemyBlood&#45;&gt;no3.InitializeEntity</title>
<path fill="none" stroke="black" d="M639.89,-89.77C572.46,-74.57 465.85,-50.53 395.91,-34.77"/>
<polygon fill="black" stroke="black" points="396.39,-31.29 385.87,-32.5 394.86,-38.11 396.39,-31.29"/>
<text text-anchor="middle" x="542.99" y="-57.8" font-family="Times,serif" font-size="14.00">1</text>
</g>
<!-- no3.Random -->
<g id="node4" class="node">
<title>no3.Random</title>
<g id="a_node4"><a xlink:href="no3.Random.svg" xlink:title="no3.Random">
<ellipse fill="green" stroke="black" cx="512.99" cy="-18" rx="68.79" ry="18"/>
<text text-anchor="middle" x="512.99" y="-14.3" font-family="Times,serif" font-size="14.00">no3.Random</text>
</a>
</g>
</g>
<!-- no3.EntityEnemyBlood&#45;&gt;no3.Random -->
<g id="edge3" class="edge">
<title>no3.EntityEnemyBlood&#45;&gt;no3.Random</title>
<path fill="none" stroke="black" d="M666.81,-87.81C635.15,-73.65 589.14,-53.07 555.69,-38.1"/>
<polygon fill="black" stroke="black" points="556.74,-34.74 546.18,-33.85 553.88,-41.13 556.74,-34.74"/>
<text text-anchor="middle" x="624.99" y="-57.8" font-family="Times,serif" font-size="14.00">5</text>
</g>
<!-- no3.func_801C5708 -->
<g id="node5" class="node">
<title>no3.func_801C5708</title>
<g id="a_node5"><a xlink:href="no3.func_801C5708.svg" xlink:title="no3.func_801C5708">
<ellipse fill="green" stroke="black" cx="702.99" cy="-18" rx="102.88" ry="18"/>
<text text-anchor="middle" x="702.99" y="-14.3" font-family="Times,serif" font-size="14.00">no3.func_801C5708</text>
</a>
</g>
</g>
<!-- no3.EntityEnemyBlood&#45;&gt;no3.func_801C5708 -->
<g id="edge4" class="edge">
<title>no3.EntityEnemyBlood&#45;&gt;no3.func_801C5708</title>
<path fill="none" stroke="black" d="M702.99,-86.8C702.99,-75.16 702.99,-59.55 702.99,-46.24"/>
<polygon fill="black" stroke="black" points="706.49,-46.18 702.99,-36.18 699.49,-46.18 706.49,-46.18"/>
<text text-anchor="middle" x="707.99" y="-57.8" font-family="Times,serif" font-size="14.00">1</text>
</g>
<!-- no3.DestroyEntity -->
<g id="node6" class="node">
<title>no3.DestroyEntity</title>
<g id="a_node6"><a xlink:href="no3.DestroyEntity.svg" xlink:title="no3.DestroyEntity">
<ellipse fill="green" stroke="black" cx="919.99" cy="-18" rx="96.38" ry="18"/>
<text text-anchor="middle" x="919.99" y="-14.3" font-family="Times,serif" font-size="14.00">no3.DestroyEntity</text>
</a>
</g>
</g>
<!-- no3.EntityEnemyBlood&#45;&gt;no3.DestroyEntity -->
<g id="edge5" class="edge">
<title>no3.EntityEnemyBlood&#45;&gt;no3.DestroyEntity</title>
<path fill="none" stroke="black" d="M743.81,-88.01C779.91,-73.87 832.66,-53.21 871.03,-38.18"/>
<polygon fill="black" stroke="black" points="872.42,-41.39 880.46,-34.49 869.87,-34.87 872.42,-41.39"/>
<text text-anchor="middle" x="829.99" y="-57.8" font-family="Times,serif" font-size="14.00">1</text>
</g>
<!-- no3.MoveEntity -->
<g id="node7" class="node">
<title>no3.MoveEntity</title>
<g id="a_node7"><a xlink:href="no3.MoveEntity.svg" xlink:title="no3.MoveEntity">
<ellipse fill="green" stroke="black" cx="1118.99" cy="-18" rx="85.29" ry="18"/>
<text text-anchor="middle" x="1118.99" y="-14.3" font-family="Times,serif" font-size="14.00">no3.MoveEntity</text>
</a>
</g>
</g>
<!-- no3.EntityEnemyBlood&#45;&gt;no3.MoveEntity -->
<g id="edge6" class="edge">
<title>no3.EntityEnemyBlood&#45;&gt;no3.MoveEntity</title>
<path fill="none" stroke="black" d="M770.75,-90.15C847.65,-74.44 972.42,-48.95 1049.87,-33.12"/>
<polygon fill="black" stroke="black" points="1050.91,-36.48 1060.01,-31.05 1049.51,-29.62 1050.91,-36.48"/>
<text text-anchor="middle" x="940.99" y="-57.8" font-family="Times,serif" font-size="14.00">1</text>
</g>
<!-- dra.CheckEquipmentItemCount -->
<g id="node8" class="node">
<title>dra.CheckEquipmentItemCount</title>
<g id="a_node8"><a xlink:href="dra.CheckEquipmentItemCount.svg" xlink:title="dra.CheckEquipmentItemCount">
<ellipse fill="green" stroke="black" cx="1379.99" cy="-18" rx="157.87" ry="18"/>
<text text-anchor="middle" x="1379.99" y="-14.3" font-family="Times,serif" font-size="14.00">dra.CheckEquipmentItemCount</text>
</a>
</g>
</g>
<!-- no3.EntityEnemyBlood&#45;&gt;dra.CheckEquipmentItemCount -->
<g id="edge7" class="edge">
<title>no3.EntityEnemyBlood&#45;&gt;dra.CheckEquipmentItemCount</title>
<path fill="none" stroke="black" d="M791.15,-92.93C913.3,-77.59 1134.06,-49.88 1267.81,-33.08"/>
<polygon fill="black" stroke="black" points="1268.6,-36.51 1278.09,-31.79 1267.73,-29.57 1268.6,-36.51"/>
<text text-anchor="middle" x="1087.99" y="-57.8" font-family="Times,serif" font-size="14.00">1</text>
</g>
</g>
</svg>
