<?xml version="1.0" encoding="UTF-8" standalone="no"?>
<!DOCTYPE svg PUBLIC "-//W3C//DTD SVG 1.1//EN"
 "http://www.w3.org/Graphics/SVG/1.1/DTD/svg11.dtd">
<!-- Generated by graphviz version 2.43.0 (0)
 -->
<!-- Title: no3.EntityShuttingWindow Pages: 1 -->
<svg width="2047pt" height="224pt"
 viewBox="0.00 0.00 2047.38 224.00" xmlns="http://www.w3.org/2000/svg" xmlns:xlink="http://www.w3.org/1999/xlink">
<g id="graph0" class="graph" transform="scale(1 1) rotate(0) translate(4 220)">
<title>no3.EntityShuttingWindow</title>
<polygon fill="white" stroke="transparent" points="-4,4 -4,-220 2043.38,-220 2043.38,4 -4,4"/>
<!-- no3.EntityShuttingWindow -->
<g id="node1" class="node">
<title>no3.EntityShuttingWindow</title>
<ellipse fill="green" stroke="black" cx="1143.09" cy="-198" rx="137.28" ry="18"/>
<text text-anchor="middle" x="1143.09" y="-194.3" font-family="Times,serif" font-size="14.00">no3.EntityShuttingWindow</text>
</g>
<!-- no3.InitializeEntity -->
<g id="node2" class="node">
<title>no3.InitializeEntity</title>
<g id="a_node2"><a xlink:href="no3.InitializeEntity.svg" xlink:title="no3.InitializeEntity">
<ellipse fill="green" stroke="black" cx="100.09" cy="-18" rx="100.18" ry="18"/>
<text text-anchor="middle" x="100.09" y="-14.3" font-family="Times,serif" font-size="14.00">no3.InitializeEntity</text>
</a>
</g>
</g>
<!-- no3.EntityShuttingWindow&#45;&gt;no3.InitializeEntity -->
<g id="edge1" class="edge">
<title>no3.EntityShuttingWindow&#45;&gt;no3.InitializeEntity</title>
<path fill="none" stroke="black" d="M1062.98,-183.33C868.73,-150.18 374.38,-65.81 180.17,-32.67"/>
<polygon fill="black" stroke="black" points="180.48,-29.17 170.04,-30.94 179.3,-36.07 180.48,-29.17"/>
<text text-anchor="middle" x="165.04" y="-34.74" font-family="Times,serif" font-size="14.00">1</text>
</g>
<!-- dra.AllocPrimitives -->
<g id="node3" class="node">
<title>dra.AllocPrimitives</title>
<g id="a_node3"><a xlink:href="dra.AllocPrimitives.svg" xlink:title="dra.AllocPrimitives">
<ellipse fill="green" stroke="black" cx="318.09" cy="-18" rx="99.38" ry="18"/>
<text text-anchor="middle" x="318.09" y="-14.3" font-family="Times,serif" font-size="14.00">dra.AllocPrimitives</text>
</a>
</g>
</g>
<!-- no3.EntityShuttingWindow&#45;&gt;dra.AllocPrimitives -->
<g id="edge2" class="edge">
<title>no3.EntityShuttingWindow&#45;&gt;dra.AllocPrimitives</title>
<path fill="none" stroke="black" d="M1075.23,-182.36C921.25,-149.14 546.63,-68.31 389.41,-34.39"/>
<polygon fill="black" stroke="black" points="389.89,-30.91 379.38,-32.22 388.41,-37.75 389.89,-30.91"/>
<text text-anchor="middle" x="374.38" y="-36.02" font-family="Times,serif" font-size="14.00">1</text>
</g>
<!-- no3.DestroyEntity -->
<g id="node4" class="node">
<title>no3.DestroyEntity</title>
<g id="a_node4"><a xlink:href="no3.DestroyEntity.svg" xlink:title="no3.DestroyEntity">
<ellipse fill="green" stroke="black" cx="532.09" cy="-18" rx="96.38" ry="18"/>
<text text-anchor="middle" x="532.09" y="-14.3" font-family="Times,serif" font-size="14.00">no3.DestroyEntity</text>
</a>
</g>
</g>
<!-- no3.EntityShuttingWindow&#45;&gt;no3.DestroyEntity -->
<g id="edge3" class="edge">
<title>no3.EntityShuttingWindow&#45;&gt;no3.DestroyEntity</title>
<path fill="none" stroke="black" d="M1089.4,-181.36C975.54,-148.19 710.56,-70.99 591.67,-36.36"/>
<polygon fill="black" stroke="black" points="592.58,-32.98 582,-33.54 590.62,-39.7 592.58,-32.98"/>
<text text-anchor="middle" x="577" y="-37.34" font-family="Times,serif" font-size="14.00">1</text>
</g>
<!-- no3.func_801CAD28 -->
<g id="node5" class="node">
<title>no3.func_801CAD28</title>
<g id="a_node5"><a xlink:href="no3.func_801CAD28.svg" xlink:title="no3.func_801CAD28">
<ellipse fill="green" stroke="black" cx="751.09" cy="-18" rx="104.78" ry="18"/>
<text text-anchor="middle" x="751.09" y="-14.3" font-family="Times,serif" font-size="14.00">no3.func_801CAD28</text>
</a>
</g>
</g>
<!-- no3.EntityShuttingWindow&#45;&gt;no3.func_801CAD28 -->
<g id="edge4" class="edge">
<title>no3.EntityShuttingWindow&#45;&gt;no3.func_801CAD28</title>
<path fill="none" stroke="black" d="M1106.92,-180.57C1034.88,-147.86 873.73,-74.69 795.46,-39.14"/>
<polygon fill="black" stroke="black" points="796.88,-35.95 786.33,-35 793.99,-42.32 796.88,-35.95"/>
<text text-anchor="middle" x="781.33" y="-38.8" font-family="Times,serif" font-size="14.00">1</text>
</g>
<!-- SetGeomScreen -->
<g id="node6" class="node">
<title>SetGeomScreen</title>
<g id="a_node6"><a xlink:href="SetGeomScreen.svg" xlink:title="SetGeomScreen">
<ellipse fill="lightblue" stroke="black" cx="959.09" cy="-18" rx="85.29" ry="18"/>
<text text-anchor="middle" x="959.09" y="-14.3" font-family="Times,serif" font-size="14.00">SetGeomScreen</text>
</a>
</g>
</g>
<!-- no3.EntityShuttingWindow&#45;&gt;SetGeomScreen -->
<g id="edge5" class="edge">
<title>no3.EntityShuttingWindow&#45;&gt;SetGeomScreen</title>
<path fill="none" stroke="black" d="M1125.45,-179.93C1092.53,-148.09 1021.68,-79.54 983.94,-43.04"/>
<polygon fill="black" stroke="black" points="986.03,-40.19 976.41,-35.76 981.17,-45.22 986.03,-40.19"/>
<text text-anchor="middle" x="971.41" y="-39.56" font-family="Times,serif" font-size="14.00">1</text>
</g>
<!-- SetGeomOffset -->
<g id="node7" class="node">
<title>SetGeomOffset</title>
<g id="a_node7"><a xlink:href="SetGeomOffset.svg" xlink:title="SetGeomOffset">
<ellipse fill="lightblue" stroke="black" cx="1143.09" cy="-18" rx="81.49" ry="18"/>
<text text-anchor="middle" x="1143.09" y="-14.3" font-family="Times,serif" font-size="14.00">SetGeomOffset</text>
</a>
</g>
</g>
<!-- no3.EntityShuttingWindow&#45;&gt;SetGeomOffset -->
<g id="edge6" class="edge">
<title>no3.EntityShuttingWindow&#45;&gt;SetGeomOffset</title>
<path fill="none" stroke="black" d="M1143.09,-179.93C1143.09,-148.97 1143.09,-83.3 1143.09,-46.13"/>
<polygon fill="black" stroke="black" points="1146.59,-46.02 1143.09,-36.02 1139.59,-46.02 1146.59,-46.02"/>
<text text-anchor="middle" x="1138.09" y="-39.82" font-family="Times,serif" font-size="14.00">1</text>
</g>
<!-- RotMatrix -->
<g id="node8" class="node">
<title>RotMatrix</title>
<g id="a_node8"><a xlink:href="RotMatrix.svg" xlink:title="RotMatrix">
<ellipse fill="lightblue" stroke="black" cx="1300.09" cy="-18" rx="57.69" ry="18"/>
<text text-anchor="middle" x="1300.09" y="-14.3" font-family="Times,serif" font-size="14.00">RotMatrix</text>
</a>
</g>
</g>
<!-- no3.EntityShuttingWindow&#45;&gt;RotMatrix -->
<g id="edge7" class="edge">
<title>no3.EntityShuttingWindow&#45;&gt;RotMatrix</title>
<path fill="none" stroke="black" d="M1158.14,-179.93C1186.19,-148.14 1246.49,-79.77 1278.73,-43.22"/>
<polygon fill="black" stroke="black" points="1281.55,-45.31 1285.54,-35.5 1276.3,-40.68 1281.55,-45.31"/>
<text text-anchor="middle" x="1280.54" y="-39.3" font-family="Times,serif" font-size="14.00">1</text>
</g>
<!-- TransMatrix -->
<g id="node9" class="node">
<title>TransMatrix</title>
<g id="a_node9"><a xlink:href="TransMatrix.svg" xlink:title="TransMatrix">
<ellipse fill="lightblue" stroke="black" cx="1444.09" cy="-18" rx="68.49" ry="18"/>
<text text-anchor="middle" x="1444.09" y="-14.3" font-family="Times,serif" font-size="14.00">TransMatrix</text>
</a>
</g>
</g>
<!-- no3.EntityShuttingWindow&#45;&gt;TransMatrix -->
<g id="edge8" class="edge">
<title>no3.EntityShuttingWindow&#45;&gt;TransMatrix</title>
<path fill="none" stroke="black" d="M1171.41,-180.25C1226.53,-147.66 1348.13,-75.75 1408.56,-40.01"/>
<polygon fill="black" stroke="black" points="1410.54,-42.91 1417.37,-34.8 1406.98,-36.88 1410.54,-42.91"/>
<text text-anchor="middle" x="1412.37" y="-38.6" font-family="Times,serif" font-size="14.00">1</text>
</g>
<!-- SetRotMatrix -->
<g id="node10" class="node">
<title>SetRotMatrix</title>
<g id="a_node10"><a xlink:href="SetRotMatrix.svg" xlink:title="SetRotMatrix">
<ellipse fill="lightblue" stroke="black" cx="1604.09" cy="-18" rx="73.39" ry="18"/>
<text text-anchor="middle" x="1604.09" y="-14.3" font-family="Times,serif" font-size="14.00">SetRotMatrix</text>
</a>
</g>
</g>
<!-- no3.EntityShuttingWindow&#45;&gt;SetRotMatrix -->
<g id="edge9" class="edge">
<title>no3.EntityShuttingWindow&#45;&gt;SetRotMatrix</title>
<path fill="none" stroke="black" d="M1185.22,-180.73C1271.33,-147.49 1466.92,-71.96 1557.03,-37.17"/>
<polygon fill="black" stroke="black" points="1558.38,-40.4 1566.45,-33.53 1555.86,-33.87 1558.38,-40.4"/>
<text text-anchor="middle" x="1561.45" y="-37.33" font-family="Times,serif" font-size="14.00">1</text>
</g>
<!-- SetTransMatrix -->
<g id="node11" class="node">
<title>SetTransMatrix</title>
<g id="a_node11"><a xlink:href="SetTransMatrix.svg" xlink:title="SetTransMatrix">
<ellipse fill="lightblue" stroke="black" cx="1779.09" cy="-18" rx="83.69" ry="18"/>
<text text-anchor="middle" x="1779.09" y="-14.3" font-family="Times,serif" font-size="14.00">SetTransMatrix</text>
</a>
</g>
</g>
<!-- no3.EntityShuttingWindow&#45;&gt;SetTransMatrix -->
<g id="edge10" class="edge">
<title>no3.EntityShuttingWindow&#45;&gt;SetTransMatrix</title>
<path fill="none" stroke="black" d="M1198.42,-181.52C1317.62,-148.15 1597.75,-69.75 1720.14,-35.5"/>
<polygon fill="black" stroke="black" points="1721.39,-38.78 1730.08,-32.72 1719.5,-32.04 1721.39,-38.78"/>
<text text-anchor="middle" x="1725.08" y="-36.52" font-family="Times,serif" font-size="14.00">1</text>
</g>
<!-- RotTransPers4 -->
<g id="node12" class="node">
<title>RotTransPers4</title>
<g id="a_node12"><a xlink:href="RotTransPers4.svg" xlink:title="RotTransPers4">
<ellipse fill="lightblue" stroke="black" cx="1960.09" cy="-18" rx="79.09" ry="18"/>
<text text-anchor="middle" x="1960.09" y="-14.3" font-family="Times,serif" font-size="14.00">RotTransPers4</text>
</a>
</g>
</g>
<!-- no3.EntityShuttingWindow&#45;&gt;RotTransPers4 -->
<g id="edge11" class="edge">
<title>no3.EntityShuttingWindow&#45;&gt;RotTransPers4</title>
<path fill="none" stroke="black" d="M1210.64,-182.28C1365.18,-148.61 1742.82,-66.34 1894.98,-33.19"/>
<polygon fill="black" stroke="black" points="1896.08,-36.53 1905.1,-30.98 1894.59,-29.69 1896.08,-36.53"/>
<text text-anchor="middle" x="1900.1" y="-34.78" font-family="Times,serif" font-size="14.00">1</text>
</g>
</g>
</svg>
