<?xml version="1.0" encoding="UTF-8" standalone="no"?>
<!DOCTYPE svg PUBLIC "-//W3C//DTD SVG 1.1//EN"
 "http://www.w3.org/Graphics/SVG/1.1/DTD/svg11.dtd">
<!-- Generated by graphviz version 2.43.0 (0)
 -->
<!-- Title: np3.AllocEntity Pages: 1 -->
<svg width="8617pt" height="218pt"
 viewBox="0.00 0.00 8617.23 218.00" xmlns="http://www.w3.org/2000/svg" xmlns:xlink="http://www.w3.org/1999/xlink">
<g id="graph0" class="graph" transform="scale(1 1) rotate(0) translate(4 214)">
<title>np3.AllocEntity</title>
<polygon fill="white" stroke="transparent" points="-4,4 -4,-214 8613.23,-214 8613.23,4 -4,4"/>
<!-- np3.AllocEntity -->
<g id="node1" class="node">
<title>np3.AllocEntity</title>
<ellipse fill="green" stroke="black" cx="4365.89" cy="-105" rx="82.59" ry="18"/>
<text text-anchor="middle" x="4365.89" y="-101.3" font-family="Times,serif" font-size="14.00">np3.AllocEntity</text>
</g>
<!-- np3.DestroyEntity -->
<g id="node2" class="node">
<title>np3.DestroyEntity</title>
<g id="a_node2"><a xlink:href="np3.DestroyEntity.svg" xlink:title="np3.DestroyEntity">
<ellipse fill="green" stroke="black" cx="4365.89" cy="-18" rx="96.68" ry="18"/>
<text text-anchor="middle" x="4365.89" y="-14.3" font-family="Times,serif" font-size="14.00">np3.DestroyEntity</text>
</a>
</g>
</g>
<!-- np3.AllocEntity&#45;&gt;np3.DestroyEntity -->
<g id="edge1" class="edge">
<title>np3.AllocEntity&#45;&gt;np3.DestroyEntity</title>
<path fill="none" stroke="black" d="M4365.89,-86.8C4365.89,-75.16 4365.89,-59.55 4365.89,-46.24"/>
<polygon fill="black" stroke="black" points="4369.39,-46.18 4365.89,-36.18 4362.39,-46.18 4369.39,-46.18"/>
<text text-anchor="middle" x="4370.89" y="-57.8" font-family="Times,serif" font-size="14.00">1</text>
</g>
<!-- np3.EntityZombie -->
<g id="node3" class="node">
<title>np3.EntityZombie</title>
<g id="a_node3"><a xlink:href="np3.EntityZombie.svg" xlink:title="np3.EntityZombie">
<ellipse fill="green" stroke="black" cx="94.89" cy="-192" rx="94.78" ry="18"/>
<text text-anchor="middle" x="94.89" y="-188.3" font-family="Times,serif" font-size="14.00">np3.EntityZombie</text>
</a>
</g>
</g>
<!-- np3.EntityZombie&#45;&gt;np3.AllocEntity -->
<g id="edge2" class="edge">
<title>np3.EntityZombie&#45;&gt;np3.AllocEntity</title>
<path fill="none" stroke="black" d="M161.62,-179.17C173.98,-177.24 186.81,-175.41 198.89,-174 405.12,-149.89 457.43,-149.32 664.89,-141 1398.8,-111.57 3773.43,-106.79 4273.09,-106.11"/>
<polygon fill="black" stroke="black" points="4273.14,-109.61 4283.14,-106.09 4273.13,-102.61 4273.14,-109.61"/>
<text text-anchor="middle" x="669.89" y="-144.8" font-family="Times,serif" font-size="14.00">1</text>
</g>
<!-- np3.EntityZombieSpawner -->
<g id="node4" class="node">
<title>np3.EntityZombieSpawner</title>
<g id="a_node4"><a xlink:href="np3.EntityZombieSpawner.svg" xlink:title="np3.EntityZombieSpawner">
<ellipse fill="green" stroke="black" cx="343.89" cy="-192" rx="135.68" ry="18"/>
<text text-anchor="middle" x="343.89" y="-188.3" font-family="Times,serif" font-size="14.00">np3.EntityZombieSpawner</text>
</a>
</g>
</g>
<!-- np3.EntityZombieSpawner&#45;&gt;np3.AllocEntity -->
<g id="edge3" class="edge">
<title>np3.EntityZombieSpawner&#45;&gt;np3.AllocEntity</title>
<path fill="none" stroke="black" d="M439.77,-179.23C456.15,-177.37 473,-175.55 488.89,-174 676.13,-155.71 722.95,-149.29 910.89,-141 1592.96,-110.91 3793.79,-106.66 4273.15,-106.09"/>
<polygon fill="black" stroke="black" points="4273.48,-109.59 4283.48,-106.07 4273.47,-102.59 4273.48,-109.59"/>
<text text-anchor="middle" x="915.89" y="-144.8" font-family="Times,serif" font-size="14.00">1</text>
</g>
<!-- np3.EntityBoneScimitar -->
<g id="node5" class="node">
<title>np3.EntityBoneScimitar</title>
<g id="a_node5"><a xlink:href="np3.EntityBoneScimitar.svg" xlink:title="np3.EntityBoneScimitar">
<ellipse fill="green" stroke="black" cx="620.89" cy="-192" rx="122.68" ry="18"/>
<text text-anchor="middle" x="620.89" y="-188.3" font-family="Times,serif" font-size="14.00">np3.EntityBoneScimitar</text>
</a>
</g>
</g>
<!-- np3.EntityBoneScimitar&#45;&gt;np3.AllocEntity -->
<g id="edge4" class="edge">
<title>np3.EntityBoneScimitar&#45;&gt;np3.AllocEntity</title>
<path fill="none" stroke="black" d="M708.17,-179.24C723.07,-177.38 738.42,-175.56 752.89,-174 921.88,-155.81 964.13,-149.26 1133.89,-141 1769.05,-110.1 3812.87,-106.48 4273.21,-106.06"/>
<polygon fill="black" stroke="black" points="4273.47,-109.56 4283.47,-106.05 4273.46,-102.56 4273.47,-109.56"/>
<text text-anchor="middle" x="1138.89" y="-144.8" font-family="Times,serif" font-size="14.00">1</text>
</g>
<!-- np3.func_801CC2E0 -->
<g id="node6" class="node">
<title>np3.func_801CC2E0</title>
<g id="a_node6"><a xlink:href="np3.func_801CC2E0.svg" xlink:title="np3.func_801CC2E0">
<ellipse fill="red" stroke="black" cx="866.89" cy="-192" rx="105.08" ry="18"/>
<text text-anchor="middle" x="866.89" y="-188.3" font-family="Times,serif" font-size="14.00">np3.func_801CC2E0</text>
</a>
</g>
</g>
<!-- np3.func_801CC2E0&#45;&gt;np3.AllocEntity -->
<g id="edge5" class="edge">
<title>np3.func_801CC2E0&#45;&gt;np3.AllocEntity</title>
<path fill="none" stroke="black" d="M941.3,-179.18C954.47,-177.29 968.07,-175.48 980.89,-174 1158.98,-153.44 1203.82,-149.39 1382.89,-141 1965.98,-113.68 3834.98,-107.34 4273.28,-106.21"/>
<polygon fill="black" stroke="black" points="4273.38,-109.71 4283.37,-106.18 4273.36,-102.71 4273.38,-109.71"/>
<text text-anchor="middle" x="1387.89" y="-144.8" font-family="Times,serif" font-size="14.00">1</text>
</g>
<!-- np3.func_801CB018 -->
<g id="node7" class="node">
<title>np3.func_801CB018</title>
<g id="a_node7"><a xlink:href="np3.func_801CB018.svg" xlink:title="np3.func_801CB018">
<ellipse fill="red" stroke="black" cx="1094.89" cy="-192" rx="104.78" ry="18"/>
<text text-anchor="middle" x="1094.89" y="-188.3" font-family="Times,serif" font-size="14.00">np3.func_801CB018</text>
</a>
</g>
</g>
<!-- np3.func_801CB018&#45;&gt;np3.AllocEntity -->
<g id="edge6" class="edge">
<title>np3.func_801CB018&#45;&gt;np3.AllocEntity</title>
<path fill="none" stroke="black" d="M1168.37,-179.18C1181.83,-177.26 1195.76,-175.44 1208.89,-174 1417.05,-151.21 1469.67,-149.7 1678.89,-141 2200.38,-119.31 3862.96,-108.8 4273.55,-106.49"/>
<polygon fill="black" stroke="black" points="4273.61,-109.99 4283.59,-106.44 4273.57,-102.99 4273.61,-109.99"/>
<text text-anchor="middle" x="1683.89" y="-144.8" font-family="Times,serif" font-size="14.00">1</text>
</g>
<!-- np3.EntityBloodyZombie -->
<g id="node8" class="node">
<title>np3.EntityBloodyZombie</title>
<g id="a_node8"><a xlink:href="np3.EntityBloodyZombie.svg" xlink:title="np3.EntityBloodyZombie">
<ellipse fill="green" stroke="black" cx="1343.89" cy="-192" rx="126.18" ry="18"/>
<text text-anchor="middle" x="1343.89" y="-188.3" font-family="Times,serif" font-size="14.00">np3.EntityBloodyZombie</text>
</a>
</g>
</g>
<!-- np3.EntityBloodyZombie&#45;&gt;np3.AllocEntity -->
<g id="edge7" class="edge">
<title>np3.EntityBloodyZombie&#45;&gt;np3.AllocEntity</title>
<path fill="none" stroke="black" d="M1432.04,-179.11C1447.63,-177.23 1463.72,-175.44 1478.89,-174 1707.22,-152.33 1764.71,-150.03 1993.89,-141 2880.88,-106.06 3955.69,-105.14 4273.32,-105.73"/>
<polygon fill="black" stroke="black" points="4273.39,-109.23 4283.39,-105.75 4273.4,-102.23 4273.39,-109.23"/>
<text text-anchor="middle" x="1998.89" y="-144.8" font-family="Times,serif" font-size="14.00">5</text>
</g>
<!-- np3.EntityMermanRockLeftSide -->
<g id="node9" class="node">
<title>np3.EntityMermanRockLeftSide</title>
<g id="a_node9"><a xlink:href="np3.EntityMermanRockLeftSide.svg" xlink:title="np3.EntityMermanRockLeftSide">
<ellipse fill="green" stroke="black" cx="1648.89" cy="-192" rx="160.57" ry="18"/>
<text text-anchor="middle" x="1648.89" y="-188.3" font-family="Times,serif" font-size="14.00">np3.EntityMermanRockLeftSide</text>
</a>
</g>
</g>
<!-- np3.EntityMermanRockLeftSide&#45;&gt;np3.AllocEntity -->
<g id="edge8" class="edge">
<title>np3.EntityMermanRockLeftSide&#45;&gt;np3.AllocEntity</title>
<path fill="none" stroke="black" d="M1757.51,-178.74C1869.84,-166.66 2050.38,-148.9 2206.89,-141 2618.4,-120.23 3915.12,-109.32 4273.39,-106.66"/>
<polygon fill="black" stroke="black" points="4273.49,-110.15 4283.46,-106.58 4273.43,-103.15 4273.49,-110.15"/>
<text text-anchor="middle" x="2211.89" y="-144.8" font-family="Times,serif" font-size="14.00">3</text>
</g>
<!-- np3.func_801B28E4 -->
<g id="node10" class="node">
<title>np3.func_801B28E4</title>
<g id="a_node10"><a xlink:href="np3.func_801B28E4.svg" xlink:title="np3.func_801B28E4">
<ellipse fill="red" stroke="black" cx="1931.89" cy="-192" rx="104.78" ry="18"/>
<text text-anchor="middle" x="1931.89" y="-188.3" font-family="Times,serif" font-size="14.00">np3.func_801B28E4</text>
</a>
</g>
</g>
<!-- np3.func_801B28E4&#45;&gt;np3.AllocEntity -->
<g id="edge9" class="edge">
<title>np3.func_801B28E4&#45;&gt;np3.AllocEntity</title>
<path fill="none" stroke="black" d="M2006,-179.22C2019.26,-177.32 2032.97,-175.49 2045.89,-174 2225.3,-153.34 2270.52,-149.99 2450.89,-141 3150.88,-106.12 3996.34,-104.95 4273.23,-105.63"/>
<polygon fill="black" stroke="black" points="4273.23,-109.13 4283.24,-105.65 4273.25,-102.13 4273.23,-109.13"/>
<text text-anchor="middle" x="2455.89" y="-144.8" font-family="Times,serif" font-size="14.00">2</text>
</g>
<!-- np3.EntityFallingRock -->
<g id="node11" class="node">
<title>np3.EntityFallingRock</title>
<g id="a_node11"><a xlink:href="np3.EntityFallingRock.svg" xlink:title="np3.EntityFallingRock">
<ellipse fill="green" stroke="black" cx="2168.89" cy="-192" rx="114.28" ry="18"/>
<text text-anchor="middle" x="2168.89" y="-188.3" font-family="Times,serif" font-size="14.00">np3.EntityFallingRock</text>
</a>
</g>
</g>
<!-- np3.EntityFallingRock&#45;&gt;np3.AllocEntity -->
<g id="edge10" class="edge">
<title>np3.EntityFallingRock&#45;&gt;np3.AllocEntity</title>
<path fill="none" stroke="black" d="M2249.87,-179.2C2263.86,-177.34 2278.29,-175.52 2291.89,-174 2462.57,-154.9 2505.4,-150.12 2676.89,-141 3284.97,-108.67 4017.67,-105.76 4272.88,-105.81"/>
<polygon fill="black" stroke="black" points="4273.22,-109.31 4283.22,-105.82 4273.22,-102.31 4273.22,-109.31"/>
<text text-anchor="middle" x="2681.89" y="-144.8" font-family="Times,serif" font-size="14.00">1</text>
</g>
<!-- np3.EntityBreakable -->
<g id="node12" class="node">
<title>np3.EntityBreakable</title>
<g id="a_node12"><a xlink:href="np3.EntityBreakable.svg" xlink:title="np3.EntityBreakable">
<ellipse fill="green" stroke="black" cx="2407.89" cy="-192" rx="106.68" ry="18"/>
<text text-anchor="middle" x="2407.89" y="-188.3" font-family="Times,serif" font-size="14.00">np3.EntityBreakable</text>
</a>
</g>
</g>
<!-- np3.EntityBreakable&#45;&gt;np3.AllocEntity -->
<g id="edge11" class="edge">
<title>np3.EntityBreakable&#45;&gt;np3.AllocEntity</title>
<path fill="none" stroke="black" d="M2483.31,-179.28C2496.8,-177.37 2510.75,-175.52 2523.89,-174 2694.49,-154.21 2737.41,-150.4 2908.89,-141 3423.89,-112.77 4042.54,-107.31 4273.24,-106.25"/>
<polygon fill="black" stroke="black" points="4273.28,-109.75 4283.27,-106.21 4273.25,-102.75 4273.28,-109.75"/>
<text text-anchor="middle" x="2913.89" y="-144.8" font-family="Times,serif" font-size="14.00">1</text>
</g>
<!-- np3.func_801B6084 -->
<g id="node13" class="node">
<title>np3.func_801B6084</title>
<g id="a_node13"><a xlink:href="np3.func_801B6084.svg" xlink:title="np3.func_801B6084">
<ellipse fill="red" stroke="black" cx="2635.89" cy="-192" rx="103.18" ry="18"/>
<text text-anchor="middle" x="2635.89" y="-188.3" font-family="Times,serif" font-size="14.00">np3.func_801B6084</text>
</a>
</g>
</g>
<!-- np3.func_801B6084&#45;&gt;np3.AllocEntity -->
<g id="edge12" class="edge">
<title>np3.func_801B6084&#45;&gt;np3.AllocEntity</title>
<path fill="none" stroke="black" d="M2708.69,-179.21C2721.72,-177.31 2735.19,-175.48 2747.89,-174 2926.39,-153.17 2971.46,-150.92 3150.89,-141 3569.7,-117.84 4070.63,-109.54 4273.67,-106.99"/>
<polygon fill="black" stroke="black" points="4273.74,-110.49 4283.69,-106.87 4273.65,-103.49 4273.74,-110.49"/>
<text text-anchor="middle" x="3155.89" y="-144.8" font-family="Times,serif" font-size="14.00">1</text>
</g>
<!-- np3.func_801B653C -->
<g id="node14" class="node">
<title>np3.func_801B653C</title>
<g id="a_node14"><a xlink:href="np3.func_801B653C.svg" xlink:title="np3.func_801B653C">
<ellipse fill="green" stroke="black" cx="2861.89" cy="-192" rx="104.78" ry="18"/>
<text text-anchor="middle" x="2861.89" y="-188.3" font-family="Times,serif" font-size="14.00">np3.func_801B653C</text>
</a>
</g>
</g>
<!-- np3.func_801B653C&#45;&gt;np3.AllocEntity -->
<g id="edge13" class="edge">
<title>np3.func_801B653C&#45;&gt;np3.AllocEntity</title>
<path fill="none" stroke="black" d="M2935.68,-179.15C2949.04,-177.25 2962.86,-175.44 2975.89,-174 3462.53,-120.38 4049.67,-109.04 4273.31,-106.64"/>
<polygon fill="black" stroke="black" points="4273.4,-110.14 4283.36,-106.54 4273.33,-103.14 4273.4,-110.14"/>
<text text-anchor="middle" x="3323.89" y="-144.8" font-family="Times,serif" font-size="14.00">1</text>
</g>
<!-- np3.EntityFallingRock2 -->
<g id="node15" class="node">
<title>np3.EntityFallingRock2</title>
<g id="a_node15"><a xlink:href="np3.EntityFallingRock2.svg" xlink:title="np3.EntityFallingRock2">
<ellipse fill="green" stroke="black" cx="3104.89" cy="-192" rx="120.48" ry="18"/>
<text text-anchor="middle" x="3104.89" y="-188.3" font-family="Times,serif" font-size="14.00">np3.EntityFallingRock2</text>
</a>
</g>
</g>
<!-- np3.EntityFallingRock2&#45;&gt;np3.AllocEntity -->
<g id="edge14" class="edge">
<title>np3.EntityFallingRock2&#45;&gt;np3.AllocEntity</title>
<path fill="none" stroke="black" d="M3189.11,-179.06C3204.01,-177.19 3219.39,-175.41 3233.89,-174 3620.12,-136.46 4082.64,-116.42 4275.03,-109.18"/>
<polygon fill="black" stroke="black" points="4275.23,-112.68 4285.09,-108.8 4274.97,-105.68 4275.23,-112.68"/>
<text text-anchor="middle" x="3643.89" y="-144.8" font-family="Times,serif" font-size="14.00">1</text>
</g>
<!-- np3.EntityMermanRockRightSide -->
<g id="node16" class="node">
<title>np3.EntityMermanRockRightSide</title>
<g id="a_node16"><a xlink:href="np3.EntityMermanRockRightSide.svg" xlink:title="np3.EntityMermanRockRightSide">
<ellipse fill="green" stroke="black" cx="3409.89" cy="-192" rx="167.07" ry="18"/>
<text text-anchor="middle" x="3409.89" y="-188.3" font-family="Times,serif" font-size="14.00">np3.EntityMermanRockRightSide</text>
</a>
</g>
</g>
<!-- np3.EntityMermanRockRightSide&#45;&gt;np3.AllocEntity -->
<g id="edge15" class="edge">
<title>np3.EntityMermanRockRightSide&#45;&gt;np3.AllocEntity</title>
<path fill="none" stroke="black" d="M3529.65,-179.4C3548.47,-177.59 3567.71,-175.74 3585.89,-174 3740.99,-159.18 3779.69,-154.64 3934.89,-141 4054.31,-130.51 4192.43,-119.49 4279.47,-112.68"/>
<polygon fill="black" stroke="black" points="4279.87,-116.16 4289.57,-111.89 4279.33,-109.18 4279.87,-116.16"/>
<text text-anchor="middle" x="3939.89" y="-144.8" font-family="Times,serif" font-size="14.00">2</text>
</g>
<!-- np3.func_801B40F8 -->
<g id="node17" class="node">
<title>np3.func_801B40F8</title>
<g id="a_node17"><a xlink:href="np3.func_801B40F8.svg" xlink:title="np3.func_801B40F8">
<ellipse fill="green" stroke="black" cx="3698.89" cy="-192" rx="103.98" ry="18"/>
<text text-anchor="middle" x="3698.89" y="-188.3" font-family="Times,serif" font-size="14.00">np3.func_801B40F8</text>
</a>
</g>
</g>
<!-- np3.func_801B40F8&#45;&gt;np3.AllocEntity -->
<g id="edge16" class="edge">
<title>np3.func_801B40F8&#45;&gt;np3.AllocEntity</title>
<path fill="none" stroke="black" d="M3773.61,-179.47C3786.38,-177.58 3799.51,-175.69 3811.89,-174 3979.54,-151.1 4176.24,-127.81 4284.35,-115.31"/>
<polygon fill="black" stroke="black" points="4285,-118.75 4294.54,-114.13 4284.2,-111.8 4285,-118.75"/>
<text text-anchor="middle" x="4059.89" y="-144.8" font-family="Times,serif" font-size="14.00">1</text>
</g>
<!-- np3.func_801B5790 -->
<g id="node18" class="node">
<title>np3.func_801B5790</title>
<g id="a_node18"><a xlink:href="np3.func_801B5790.svg" xlink:title="np3.func_801B5790">
<ellipse fill="red" stroke="black" cx="3923.89" cy="-192" rx="103.18" ry="18"/>
<text text-anchor="middle" x="3923.89" y="-188.3" font-family="Times,serif" font-size="14.00">np3.func_801B5790</text>
</a>
</g>
</g>
<!-- np3.func_801B5790&#45;&gt;np3.AllocEntity -->
<g id="edge17" class="edge">
<title>np3.func_801B5790&#45;&gt;np3.AllocEntity</title>
<path fill="none" stroke="black" d="M3990.54,-178.18C4072.93,-162.34 4212.47,-135.5 4296.22,-119.4"/>
<polygon fill="black" stroke="black" points="4296.99,-122.81 4306.15,-117.49 4295.67,-115.94 4296.99,-122.81"/>
<text text-anchor="middle" x="4176.89" y="-144.8" font-family="Times,serif" font-size="14.00">4</text>
</g>
<!-- np3.EntityMerman -->
<g id="node19" class="node">
<title>np3.EntityMerman</title>
<g id="a_node19"><a xlink:href="np3.EntityMerman.svg" xlink:title="np3.EntityMerman">
<ellipse fill="green" stroke="black" cx="4143.89" cy="-192" rx="98.58" ry="18"/>
<text text-anchor="middle" x="4143.89" y="-188.3" font-family="Times,serif" font-size="14.00">np3.EntityMerman</text>
</a>
</g>
</g>
<!-- np3.EntityMerman&#45;&gt;np3.AllocEntity -->
<g id="edge18" class="edge">
<title>np3.EntityMerman&#45;&gt;np3.AllocEntity</title>
<path fill="none" stroke="black" d="M4184.35,-175.51C4221.79,-161.18 4277.5,-139.85 4317.32,-124.6"/>
<polygon fill="black" stroke="black" points="4318.74,-127.8 4326.83,-120.96 4316.24,-121.26 4318.74,-127.8"/>
<text text-anchor="middle" x="4273.89" y="-144.8" font-family="Times,serif" font-size="14.00">5</text>
</g>
<!-- np3.func_801C8DF0 -->
<g id="node20" class="node">
<title>np3.func_801C8DF0</title>
<g id="a_node20"><a xlink:href="np3.func_801C8DF0.svg" xlink:title="np3.func_801C8DF0">
<ellipse fill="green" stroke="black" cx="4365.89" cy="-192" rx="105.08" ry="18"/>
<text text-anchor="middle" x="4365.89" y="-188.3" font-family="Times,serif" font-size="14.00">np3.func_801C8DF0</text>
</a>
</g>
</g>
<!-- np3.func_801C8DF0&#45;&gt;np3.AllocEntity -->
<g id="edge19" class="edge">
<title>np3.func_801C8DF0&#45;&gt;np3.AllocEntity</title>
<path fill="none" stroke="black" d="M4365.89,-173.8C4365.89,-162.16 4365.89,-146.55 4365.89,-133.24"/>
<polygon fill="black" stroke="black" points="4369.39,-133.18 4365.89,-123.18 4362.39,-133.18 4369.39,-133.18"/>
<text text-anchor="middle" x="4370.89" y="-144.8" font-family="Times,serif" font-size="14.00">2</text>
</g>
<!-- np3.EntityBat -->
<g id="node21" class="node">
<title>np3.EntityBat</title>
<g id="a_node21"><a xlink:href="np3.EntityBat.svg" xlink:title="np3.EntityBat">
<ellipse fill="green" stroke="black" cx="4564.89" cy="-192" rx="76.09" ry="18"/>
<text text-anchor="middle" x="4564.89" y="-188.3" font-family="Times,serif" font-size="14.00">np3.EntityBat</text>
</a>
</g>
</g>
<!-- np3.EntityBat&#45;&gt;np3.AllocEntity -->
<g id="edge20" class="edge">
<title>np3.EntityBat&#45;&gt;np3.AllocEntity</title>
<path fill="none" stroke="black" d="M4529.77,-176C4496.69,-161.87 4446.96,-140.63 4410.97,-125.25"/>
<polygon fill="black" stroke="black" points="4412.24,-121.99 4401.67,-121.28 4409.49,-128.43 4412.24,-121.99"/>
<text text-anchor="middle" x="4482.89" y="-144.8" font-family="Times,serif" font-size="14.00">1</text>
</g>
<!-- np3.TestCollisions -->
<g id="node22" class="node">
<title>np3.TestCollisions</title>
<g id="a_node22"><a xlink:href="np3.TestCollisions.svg" xlink:title="np3.TestCollisions">
<ellipse fill="red" stroke="black" cx="4754.89" cy="-192" rx="95.58" ry="18"/>
<text text-anchor="middle" x="4754.89" y="-188.3" font-family="Times,serif" font-size="14.00">np3.TestCollisions</text>
</a>
</g>
</g>
<!-- np3.TestCollisions&#45;&gt;np3.AllocEntity -->
<g id="edge21" class="edge">
<title>np3.TestCollisions&#45;&gt;np3.AllocEntity</title>
<path fill="none" stroke="black" d="M4694.96,-177.91C4623.93,-162.38 4505.91,-136.6 4432.2,-120.49"/>
<polygon fill="black" stroke="black" points="4432.61,-117 4422.1,-118.28 4431.12,-123.84 4432.61,-117"/>
<text text-anchor="middle" x="4588.89" y="-144.8" font-family="Times,serif" font-size="14.00">4</text>
</g>
<!-- np3.func_801C4DCC -->
<g id="node23" class="node">
<title>np3.func_801C4DCC</title>
<g id="a_node23"><a xlink:href="np3.func_801C4DCC.svg" xlink:title="np3.func_801C4DCC">
<ellipse fill="red" stroke="black" cx="4974.89" cy="-192" rx="106.68" ry="18"/>
<text text-anchor="middle" x="4974.89" y="-188.3" font-family="Times,serif" font-size="14.00">np3.func_801C4DCC</text>
</a>
</g>
</g>
<!-- np3.func_801C4DCC&#45;&gt;np3.AllocEntity -->
<g id="edge22" class="edge">
<title>np3.func_801C4DCC&#45;&gt;np3.AllocEntity</title>
<path fill="none" stroke="black" d="M4897.89,-179.51C4885.2,-177.65 4872.18,-175.75 4859.89,-174 4713.17,-153.06 4541.77,-129.72 4444.31,-116.55"/>
<polygon fill="black" stroke="black" points="4444.62,-113.06 4434.25,-115.19 4443.69,-120 4444.62,-113.06"/>
<text text-anchor="middle" x="4729.89" y="-144.8" font-family="Times,serif" font-size="14.00">1</text>
</g>
<!-- np3.func_801C7954 -->
<g id="node24" class="node">
<title>np3.func_801C7954</title>
<g id="a_node24"><a xlink:href="np3.func_801C7954.svg" xlink:title="np3.func_801C7954">
<ellipse fill="red" stroke="black" cx="5202.89" cy="-192" rx="103.18" ry="18"/>
<text text-anchor="middle" x="5202.89" y="-188.3" font-family="Times,serif" font-size="14.00">np3.func_801C7954</text>
</a>
</g>
</g>
<!-- np3.func_801C7954&#45;&gt;np3.AllocEntity -->
<g id="edge23" class="edge">
<title>np3.func_801C7954&#45;&gt;np3.AllocEntity</title>
<path fill="none" stroke="black" d="M5129.47,-179.24C5116.63,-177.36 5103.38,-175.53 5090.89,-174 4861.13,-145.81 4589.14,-123.16 4452.88,-112.54"/>
<polygon fill="black" stroke="black" points="4452.75,-109.02 4442.51,-111.74 4452.21,-116 4452.75,-109.02"/>
<text text-anchor="middle" x="4937.89" y="-144.8" font-family="Times,serif" font-size="14.00">1</text>
</g>
<!-- np3.EntityMermanSpawner -->
<g id="node25" class="node">
<title>np3.EntityMermanSpawner</title>
<g id="a_node25"><a xlink:href="np3.EntityMermanSpawner.svg" xlink:title="np3.EntityMermanSpawner">
<ellipse fill="green" stroke="black" cx="5463.89" cy="-192" rx="139.98" ry="18"/>
<text text-anchor="middle" x="5463.89" y="-188.3" font-family="Times,serif" font-size="14.00">np3.EntityMermanSpawner</text>
</a>
</g>
</g>
<!-- np3.EntityMermanSpawner&#45;&gt;np3.AllocEntity -->
<g id="edge24" class="edge">
<title>np3.EntityMermanSpawner&#45;&gt;np3.AllocEntity</title>
<path fill="none" stroke="black" d="M5364.54,-179.33C5347.97,-177.48 5330.95,-175.64 5314.89,-174 5151.53,-157.36 5110.64,-153.27 4946.89,-141 4773.02,-127.97 4569.6,-116.6 4455.44,-110.58"/>
<polygon fill="black" stroke="black" points="4455.52,-107.08 4445.35,-110.05 4455.15,-114.07 4455.52,-107.08"/>
<text text-anchor="middle" x="5136.89" y="-144.8" font-family="Times,serif" font-size="14.00">1</text>
</g>
<!-- np3.EntityMediumWaterSplash -->
<g id="node26" class="node">
<title>np3.EntityMediumWaterSplash</title>
<g id="a_node26"><a xlink:href="np3.EntityMediumWaterSplash.svg" xlink:title="np3.EntityMediumWaterSplash">
<ellipse fill="green" stroke="black" cx="5778.89" cy="-192" rx="157.07" ry="18"/>
<text text-anchor="middle" x="5778.89" y="-188.3" font-family="Times,serif" font-size="14.00">np3.EntityMediumWaterSplash</text>
</a>
</g>
</g>
<!-- np3.EntityMediumWaterSplash&#45;&gt;np3.AllocEntity -->
<g id="edge25" class="edge">
<title>np3.EntityMediumWaterSplash&#45;&gt;np3.AllocEntity</title>
<path fill="none" stroke="black" d="M5668.22,-179.18C5649.75,-177.34 5630.79,-175.55 5612.89,-174 5181.14,-136.65 4663.42,-116.17 4457.16,-108.99"/>
<polygon fill="black" stroke="black" points="4457.1,-105.48 4446.99,-108.63 4456.86,-112.48 4457.1,-105.48"/>
<text text-anchor="middle" x="5379.89" y="-144.8" font-family="Times,serif" font-size="14.00">1</text>
</g>
<!-- np3.EntityMerman2 -->
<g id="node27" class="node">
<title>np3.EntityMerman2</title>
<g id="a_node27"><a xlink:href="np3.EntityMerman2.svg" xlink:title="np3.EntityMerman2">
<ellipse fill="green" stroke="black" cx="6058.89" cy="-192" rx="104.78" ry="18"/>
<text text-anchor="middle" x="6058.89" y="-188.3" font-family="Times,serif" font-size="14.00">np3.EntityMerman2</text>
</a>
</g>
</g>
<!-- np3.EntityMerman2&#45;&gt;np3.AllocEntity -->
<g id="edge26" class="edge">
<title>np3.EntityMerman2&#45;&gt;np3.AllocEntity</title>
<path fill="none" stroke="black" d="M5985.73,-179.11C5972.18,-177.19 5958.13,-175.38 5944.89,-174 5382.58,-115.5 4702.58,-107.12 4458.58,-106.07"/>
<polygon fill="black" stroke="black" points="4458.35,-102.57 4448.34,-106.03 4458.33,-109.57 4458.35,-102.57"/>
<text text-anchor="middle" x="5736.89" y="-144.8" font-family="Times,serif" font-size="14.00">5</text>
</g>
<!-- np3.func_801C6458 -->
<g id="node28" class="node">
<title>np3.func_801C6458</title>
<g id="a_node28"><a xlink:href="np3.func_801C6458.svg" xlink:title="np3.func_801C6458">
<ellipse fill="green" stroke="black" cx="6284.89" cy="-192" rx="103.18" ry="18"/>
<text text-anchor="middle" x="6284.89" y="-188.3" font-family="Times,serif" font-size="14.00">np3.func_801C6458</text>
</a>
</g>
</g>
<!-- np3.func_801C6458&#45;&gt;np3.AllocEntity -->
<g id="edge27" class="edge">
<title>np3.func_801C6458&#45;&gt;np3.AllocEntity</title>
<path fill="none" stroke="black" d="M6212.1,-179.16C6199.06,-177.26 6185.59,-175.45 6172.89,-174 5983.78,-152.37 5935.99,-150.75 5745.89,-141 5261.72,-116.17 4681.05,-108.73 4458.7,-106.7"/>
<polygon fill="black" stroke="black" points="4458.42,-103.19 4448.39,-106.6 4458.36,-110.19 4458.42,-103.19"/>
<text text-anchor="middle" x="6000.89" y="-144.8" font-family="Times,serif" font-size="14.00">1</text>
</g>
<!-- np3.EntityLargeGaibonProjectile -->
<g id="node29" class="node">
<title>np3.EntityLargeGaibonProjectile</title>
<g id="a_node29"><a xlink:href="np3.EntityLargeGaibonProjectile.svg" xlink:title="np3.EntityLargeGaibonProjectile">
<ellipse fill="green" stroke="black" cx="6569.89" cy="-192" rx="163.57" ry="18"/>
<text text-anchor="middle" x="6569.89" y="-188.3" font-family="Times,serif" font-size="14.00">np3.EntityLargeGaibonProjectile</text>
</a>
</g>
</g>
<!-- np3.EntityLargeGaibonProjectile&#45;&gt;np3.AllocEntity -->
<g id="edge28" class="edge">
<title>np3.EntityLargeGaibonProjectile&#45;&gt;np3.AllocEntity</title>
<path fill="none" stroke="black" d="M6459.03,-178.74C6346.17,-166.81 6166.09,-149.31 6009.89,-141 5419.76,-109.59 4709.06,-106.09 4458.65,-105.9"/>
<polygon fill="black" stroke="black" points="4458.5,-102.4 4448.5,-105.9 4458.5,-109.4 4458.5,-102.4"/>
<text text-anchor="middle" x="6215.89" y="-144.8" font-family="Times,serif" font-size="14.00">1</text>
</g>
<!-- np3.EntityGaibon -->
<g id="node30" class="node">
<title>np3.EntityGaibon</title>
<g id="a_node30"><a xlink:href="np3.EntityGaibon.svg" xlink:title="np3.EntityGaibon">
<ellipse fill="red" stroke="black" cx="6844.89" cy="-192" rx="92.88" ry="18"/>
<text text-anchor="middle" x="6844.89" y="-188.3" font-family="Times,serif" font-size="14.00">np3.EntityGaibon</text>
</a>
</g>
</g>
<!-- np3.EntityGaibon&#45;&gt;np3.AllocEntity -->
<g id="edge29" class="edge">
<title>np3.EntityGaibon&#45;&gt;np3.AllocEntity</title>
<path fill="none" stroke="black" d="M6779.73,-179.13C6767.52,-177.19 6754.84,-175.37 6742.89,-174 6513.71,-147.67 6455.38,-150.51 6224.89,-141 5547.43,-113.06 4730.16,-107.41 4458.59,-106.28"/>
<polygon fill="black" stroke="black" points="4458.4,-102.78 4448.39,-106.24 4458.37,-109.78 4458.4,-102.78"/>
<text text-anchor="middle" x="6560.89" y="-144.8" font-family="Times,serif" font-size="14.00">5</text>
</g>
<!-- np3.EntitySlograSpearProjectile -->
<g id="node31" class="node">
<title>np3.EntitySlograSpearProjectile</title>
<g id="a_node31"><a xlink:href="np3.EntitySlograSpearProjectile.svg" xlink:title="np3.EntitySlograSpearProjectile">
<ellipse fill="green" stroke="black" cx="7117.89" cy="-192" rx="161.67" ry="18"/>
<text text-anchor="middle" x="7117.89" y="-188.3" font-family="Times,serif" font-size="14.00">np3.EntitySlograSpearProjectile</text>
</a>
</g>
</g>
<!-- np3.EntitySlograSpearProjectile&#45;&gt;np3.AllocEntity -->
<g id="edge30" class="edge">
<title>np3.EntitySlograSpearProjectile&#45;&gt;np3.AllocEntity</title>
<path fill="none" stroke="black" d="M7009.68,-178.59C6899.27,-166.53 6722.9,-148.9 6569.89,-141 6149.12,-119.27 4821.59,-109.03 4458.48,-106.59"/>
<polygon fill="black" stroke="black" points="4458.3,-103.09 4448.27,-106.52 4458.25,-110.09 4458.3,-103.09"/>
<text text-anchor="middle" x="6771.89" y="-144.8" font-family="Times,serif" font-size="14.00">1</text>
</g>
<!-- np3.EntitySlogra -->
<g id="node32" class="node">
<title>np3.EntitySlogra</title>
<g id="a_node32"><a xlink:href="np3.EntitySlogra.svg" xlink:title="np3.EntitySlogra">
<ellipse fill="green" stroke="black" cx="7387.89" cy="-192" rx="90.18" ry="18"/>
<text text-anchor="middle" x="7387.89" y="-188.3" font-family="Times,serif" font-size="14.00">np3.EntitySlogra</text>
</a>
</g>
</g>
<!-- np3.EntitySlogra&#45;&gt;np3.AllocEntity -->
<g id="edge31" class="edge">
<title>np3.EntitySlogra&#45;&gt;np3.AllocEntity</title>
<path fill="none" stroke="black" d="M7324.66,-179.12C7312.81,-177.19 7300.5,-175.37 7288.89,-174 7064.2,-147.48 7006.97,-149.98 6780.89,-141 5876.54,-105.1 4780.39,-104.86 4458.76,-105.66"/>
<polygon fill="black" stroke="black" points="4458.55,-102.16 4448.56,-105.69 4458.57,-109.16 4458.55,-102.16"/>
<text text-anchor="middle" x="7109.89" y="-144.8" font-family="Times,serif" font-size="14.00">3</text>
</g>
<!-- np3.func_801C0624 -->
<g id="node33" class="node">
<title>np3.func_801C0624</title>
<g id="a_node33"><a xlink:href="np3.func_801C0624.svg" xlink:title="np3.func_801C0624">
<ellipse fill="red" stroke="black" cx="7599.89" cy="-192" rx="103.18" ry="18"/>
<text text-anchor="middle" x="7599.89" y="-188.3" font-family="Times,serif" font-size="14.00">np3.func_801C0624</text>
</a>
</g>
</g>
<!-- np3.func_801C0624&#45;&gt;np3.AllocEntity -->
<g id="edge32" class="edge">
<title>np3.func_801C0624&#45;&gt;np3.AllocEntity</title>
<path fill="none" stroke="black" d="M7526.43,-179.3C7513.28,-177.39 7499.7,-175.54 7486.89,-174 7323.85,-154.44 7282.89,-149.38 7118.89,-141 6584.09,-113.66 4876.52,-107.37 4458.78,-106.22"/>
<polygon fill="black" stroke="black" points="4458.57,-102.72 4448.56,-106.19 4458.55,-109.72 4458.57,-102.72"/>
<text text-anchor="middle" x="7333.89" y="-144.8" font-family="Times,serif" font-size="14.00">1</text>
</g>
<!-- np3.func_801C424C -->
<g id="node34" class="node">
<title>np3.func_801C424C</title>
<g id="a_node34"><a xlink:href="np3.func_801C424C.svg" xlink:title="np3.func_801C424C">
<ellipse fill="red" stroke="black" cx="7825.89" cy="-192" rx="104.78" ry="18"/>
<text text-anchor="middle" x="7825.89" y="-188.3" font-family="Times,serif" font-size="14.00">np3.func_801C424C</text>
</a>
</g>
</g>
<!-- np3.func_801C424C&#45;&gt;np3.AllocEntity -->
<g id="edge33" class="edge">
<title>np3.func_801C424C&#45;&gt;np3.AllocEntity</title>
<path fill="none" stroke="black" d="M7751.47,-179.26C7738.3,-177.36 7724.71,-175.53 7711.89,-174 7548.39,-154.52 7507.34,-149.31 7342.89,-141 6761.24,-111.62 4896.78,-106.84 4458.68,-106.12"/>
<polygon fill="black" stroke="black" points="4458.6,-102.62 4448.6,-106.11 4458.59,-109.62 4458.6,-102.62"/>
<text text-anchor="middle" x="7556.89" y="-144.8" font-family="Times,serif" font-size="14.00">6</text>
</g>
<!-- np3.func_801C04F4 -->
<g id="node35" class="node">
<title>np3.func_801C04F4</title>
<g id="a_node35"><a xlink:href="np3.func_801C04F4.svg" xlink:title="np3.func_801C04F4">
<ellipse fill="red" stroke="black" cx="8052.89" cy="-192" rx="103.98" ry="18"/>
<text text-anchor="middle" x="8052.89" y="-188.3" font-family="Times,serif" font-size="14.00">np3.func_801C04F4</text>
</a>
</g>
</g>
<!-- np3.func_801C04F4&#45;&gt;np3.AllocEntity -->
<g id="edge34" class="edge">
<title>np3.func_801C04F4&#45;&gt;np3.AllocEntity</title>
<path fill="none" stroke="black" d="M7979.13,-179.24C7966.07,-177.35 7952.6,-175.51 7939.89,-174 7774.2,-154.25 7732.56,-149.25 7565.89,-141 6937.57,-109.89 4916.77,-106.43 4458.78,-106.05"/>
<polygon fill="black" stroke="black" points="4458.58,-102.55 4448.58,-106.04 4458.57,-109.55 4458.58,-102.55"/>
<text text-anchor="middle" x="7782.89" y="-144.8" font-family="Times,serif" font-size="14.00">1</text>
</g>
<!-- np3.func_801C03E4 -->
<g id="node36" class="node">
<title>np3.func_801C03E4</title>
<g id="a_node36"><a xlink:href="np3.func_801C03E4.svg" xlink:title="np3.func_801C03E4">
<ellipse fill="green" stroke="black" cx="8279.89" cy="-192" rx="104.78" ry="18"/>
<text text-anchor="middle" x="8279.89" y="-188.3" font-family="Times,serif" font-size="14.00">np3.func_801C03E4</text>
</a>
</g>
</g>
<!-- np3.func_801C03E4&#45;&gt;np3.AllocEntity -->
<g id="edge35" class="edge">
<title>np3.func_801C03E4&#45;&gt;np3.AllocEntity</title>
<path fill="none" stroke="black" d="M8205.78,-179.29C8192.51,-177.38 8178.81,-175.53 8165.89,-174 8000.18,-154.35 7958.56,-149.19 7791.89,-141 7116.07,-107.78 4935.61,-105.96 4458.64,-105.97"/>
<polygon fill="black" stroke="black" points="4458.36,-102.47 4448.36,-105.97 4458.36,-109.47 4458.36,-102.47"/>
<text text-anchor="middle" x="8008.89" y="-144.8" font-family="Times,serif" font-size="14.00">1</text>
</g>
<!-- np3.func_801C1430 -->
<g id="node37" class="node">
<title>np3.func_801C1430</title>
<g id="a_node37"><a xlink:href="np3.func_801C1430.svg" xlink:title="np3.func_801C1430">
<ellipse fill="green" stroke="black" cx="8505.89" cy="-192" rx="103.18" ry="18"/>
<text text-anchor="middle" x="8505.89" y="-188.3" font-family="Times,serif" font-size="14.00">np3.func_801C1430</text>
</a>
</g>
</g>
<!-- np3.func_801C1430&#45;&gt;np3.AllocEntity -->
<g id="edge36" class="edge">
<title>np3.func_801C1430&#45;&gt;np3.AllocEntity</title>
<path fill="none" stroke="black" d="M8432.78,-179.22C8419.85,-177.33 8406.49,-175.51 8393.89,-174 8227.33,-154.07 8185.45,-149.14 8017.89,-141 7294.74,-105.85 4955.54,-105.56 4459.05,-105.91"/>
<polygon fill="black" stroke="black" points="4458.71,-102.41 4448.71,-105.91 4458.72,-109.41 4458.71,-102.41"/>
<text text-anchor="middle" x="8235.89" y="-144.8" font-family="Times,serif" font-size="14.00">1</text>
</g>
</g>
</svg>
