<?xml version="1.0" encoding="UTF-8" standalone="no"?>
<!DOCTYPE svg PUBLIC "-//W3C//DTD SVG 1.1//EN"
 "http://www.w3.org/Graphics/SVG/1.1/DTD/svg11.dtd">
<!-- Generated by graphviz version 2.43.0 (0)
 -->
<!-- Title: np3.AllocEntity Pages: 1 -->
<svg width="8596pt" height="404pt"
 viewBox="0.00 0.00 8596.33 404.00" xmlns="http://www.w3.org/2000/svg" xmlns:xlink="http://www.w3.org/1999/xlink">
<g id="graph0" class="graph" transform="scale(1 1) rotate(0) translate(4 400)">
<title>np3.AllocEntity</title>
<polygon fill="white" stroke="transparent" points="-4,4 -4,-400 8592.33,-400 8592.33,4 -4,4"/>
<!-- np3.AllocEntity -->
<g id="node1" class="node">
<title>np3.AllocEntity</title>
<ellipse fill="green" stroke="black" cx="4525.04" cy="-198" rx="82.59" ry="18"/>
<text text-anchor="middle" x="4525.04" y="-194.3" font-family="Times,serif" font-size="14.00">np3.AllocEntity</text>
</g>
<!-- np3.DestroyEntity -->
<g id="node2" class="node">
<title>np3.DestroyEntity</title>
<g id="a_node2"><a xlink:href="np3.DestroyEntity.svg" xlink:title="np3.DestroyEntity">
<ellipse fill="green" stroke="black" cx="4525.04" cy="-18" rx="96.68" ry="18"/>
<text text-anchor="middle" x="4525.04" y="-14.3" font-family="Times,serif" font-size="14.00">np3.DestroyEntity</text>
</a>
</g>
</g>
<!-- np3.AllocEntity&#45;&gt;np3.DestroyEntity -->
<g id="edge1" class="edge">
<title>np3.AllocEntity&#45;&gt;np3.DestroyEntity</title>
<path fill="none" stroke="black" d="M4525.04,-179.93C4525.04,-148.97 4525.04,-83.3 4525.04,-46.13"/>
<polygon fill="black" stroke="black" points="4528.54,-46.02 4525.04,-36.02 4521.54,-46.02 4528.54,-46.02"/>
<text text-anchor="middle" x="4520.04" y="-39.82" font-family="Times,serif" font-size="14.00">1</text>
</g>
<!-- np3.EntityBat -->
<g id="node3" class="node">
<title>np3.EntityBat</title>
<g id="a_node3"><a xlink:href="np3.EntityBat.svg" xlink:title="np3.EntityBat">
<ellipse fill="green" stroke="black" cx="76.04" cy="-378" rx="76.09" ry="18"/>
<text text-anchor="middle" x="76.04" y="-374.3" font-family="Times,serif" font-size="14.00">np3.EntityBat</text>
</a>
</g>
</g>
<!-- np3.EntityBat&#45;&gt;np3.AllocEntity -->
<g id="edge2" class="edge">
<title>np3.EntityBat&#45;&gt;np3.AllocEntity</title>
<path fill="none" stroke="black" d="M129.34,-364.98C139.8,-363.01 150.73,-361.21 161.04,-360 1030.33,-257.71 3881.7,-208.96 4432.48,-200.39"/>
<polygon fill="black" stroke="black" points="4432.81,-203.89 4442.76,-200.23 4432.7,-196.89 4432.81,-203.89"/>
<text text-anchor="middle" x="124.34" y="-353.78" font-family="Times,serif" font-size="14.00">1</text>
</g>
<!-- np3.EntityBloodyZombie -->
<g id="node4" class="node">
<title>np3.EntityBloodyZombie</title>
<g id="a_node4"><a xlink:href="np3.EntityBloodyZombie.svg" xlink:title="np3.EntityBloodyZombie">
<ellipse fill="green" stroke="black" cx="296.04" cy="-378" rx="126.18" ry="18"/>
<text text-anchor="middle" x="296.04" y="-374.3" font-family="Times,serif" font-size="14.00">np3.EntityBloodyZombie</text>
</a>
</g>
</g>
<!-- np3.EntityBloodyZombie&#45;&gt;np3.AllocEntity -->
<g id="edge3" class="edge">
<title>np3.EntityBloodyZombie&#45;&gt;np3.AllocEntity</title>
<path fill="none" stroke="black" d="M383.07,-364.92C399.01,-363.03 415.51,-361.28 431.04,-360 2029.45,-228.18 3988.1,-203.67 4432.48,-199.7"/>
<polygon fill="black" stroke="black" points="4432.72,-203.2 4442.69,-199.61 4432.66,-196.2 4432.72,-203.2"/>
<text text-anchor="middle" x="378.07" y="-353.72" font-family="Times,serif" font-size="14.00">5</text>
</g>
<!-- np3.EntityBoneScimitar -->
<g id="node5" class="node">
<title>np3.EntityBoneScimitar</title>
<g id="a_node5"><a xlink:href="np3.EntityBoneScimitar.svg" xlink:title="np3.EntityBoneScimitar">
<ellipse fill="green" stroke="black" cx="563.04" cy="-378" rx="122.68" ry="18"/>
<text text-anchor="middle" x="563.04" y="-374.3" font-family="Times,serif" font-size="14.00">np3.EntityBoneScimitar</text>
</a>
</g>
</g>
<!-- np3.EntityBoneScimitar&#45;&gt;np3.AllocEntity -->
<g id="edge4" class="edge">
<title>np3.EntityBoneScimitar&#45;&gt;np3.AllocEntity</title>
<path fill="none" stroke="black" d="M647.84,-364.9C663.19,-363.02 679.08,-361.28 694.04,-360 2182.57,-232.38 4005.52,-204.79 4432.53,-199.92"/>
<polygon fill="black" stroke="black" points="4432.69,-203.42 4442.65,-199.81 4432.61,-196.42 4432.69,-203.42"/>
<text text-anchor="middle" x="642.84" y="-353.7" font-family="Times,serif" font-size="14.00">1</text>
</g>
<!-- np3.EntityBreakable -->
<g id="node6" class="node">
<title>np3.EntityBreakable</title>
<g id="a_node6"><a xlink:href="np3.EntityBreakable.svg" xlink:title="np3.EntityBreakable">
<ellipse fill="green" stroke="black" cx="810.04" cy="-378" rx="106.68" ry="18"/>
<text text-anchor="middle" x="810.04" y="-374.3" font-family="Times,serif" font-size="14.00">np3.EntityBreakable</text>
</a>
</g>
</g>
<!-- np3.EntityBreakable&#45;&gt;np3.AllocEntity -->
<g id="edge5" class="edge">
<title>np3.EntityBreakable&#45;&gt;np3.AllocEntity</title>
<path fill="none" stroke="black" d="M884.17,-365C898.05,-363.08 912.47,-361.3 926.04,-360 2317.25,-227.28 4021.69,-203.59 4432.72,-199.71"/>
<polygon fill="black" stroke="black" points="4432.8,-203.21 4442.77,-199.62 4432.74,-196.21 4432.8,-203.21"/>
<text text-anchor="middle" x="879.17" y="-353.8" font-family="Times,serif" font-size="14.00">1</text>
</g>
<!-- np3.EntityFallingRock -->
<g id="node7" class="node">
<title>np3.EntityFallingRock</title>
<g id="a_node7"><a xlink:href="np3.EntityFallingRock.svg" xlink:title="np3.EntityFallingRock">
<ellipse fill="green" stroke="black" cx="1049.04" cy="-378" rx="114.28" ry="18"/>
<text text-anchor="middle" x="1049.04" y="-374.3" font-family="Times,serif" font-size="14.00">np3.EntityFallingRock</text>
</a>
</g>
</g>
<!-- np3.EntityFallingRock&#45;&gt;np3.AllocEntity -->
<g id="edge6" class="edge">
<title>np3.EntityFallingRock&#45;&gt;np3.AllocEntity</title>
<path fill="none" stroke="black" d="M1128.64,-365.03C1143.37,-363.12 1158.65,-361.33 1173.04,-360 2462.22,-240.9 4038.98,-207.26 4432.68,-200.45"/>
<polygon fill="black" stroke="black" points="4432.93,-203.95 4442.87,-200.27 4432.81,-196.95 4432.93,-203.95"/>
<text text-anchor="middle" x="1123.64" y="-353.83" font-family="Times,serif" font-size="14.00">1</text>
</g>
<!-- np3.EntityFallingRock2 -->
<g id="node8" class="node">
<title>np3.EntityFallingRock2</title>
<g id="a_node8"><a xlink:href="np3.EntityFallingRock2.svg" xlink:title="np3.EntityFallingRock2">
<ellipse fill="green" stroke="black" cx="1302.04" cy="-378" rx="120.48" ry="18"/>
<text text-anchor="middle" x="1302.04" y="-374.3" font-family="Times,serif" font-size="14.00">np3.EntityFallingRock2</text>
</a>
</g>
</g>
<!-- np3.EntityFallingRock2&#45;&gt;np3.AllocEntity -->
<g id="edge7" class="edge">
<title>np3.EntityFallingRock2&#45;&gt;np3.AllocEntity</title>
<path fill="none" stroke="black" d="M1385.55,-365.02C1400.67,-363.13 1416.31,-361.35 1431.04,-360 2614.08,-251.44 4058.83,-210.36 4433.07,-201.13"/>
<polygon fill="black" stroke="black" points="4433.39,-204.62 4443.3,-200.88 4433.22,-197.63 4433.39,-204.62"/>
<text text-anchor="middle" x="1380.55" y="-353.82" font-family="Times,serif" font-size="14.00">1</text>
</g>
<!-- np3.EntityGaibon -->
<g id="node9" class="node">
<title>np3.EntityGaibon</title>
<g id="a_node9"><a xlink:href="np3.EntityGaibon.svg" xlink:title="np3.EntityGaibon">
<ellipse fill="red" stroke="black" cx="1533.04" cy="-378" rx="92.88" ry="18"/>
<text text-anchor="middle" x="1533.04" y="-374.3" font-family="Times,serif" font-size="14.00">np3.EntityGaibon</text>
</a>
</g>
</g>
<!-- np3.EntityGaibon&#45;&gt;np3.AllocEntity -->
<g id="edge8" class="edge">
<title>np3.EntityGaibon&#45;&gt;np3.AllocEntity</title>
<path fill="none" stroke="black" d="M1597.92,-365.09C1610.21,-363.15 1623,-361.34 1635.04,-360 2731.73,-238.43 4073.25,-206.96 4432.78,-200.47"/>
<polygon fill="black" stroke="black" points="4432.94,-203.97 4442.88,-200.29 4432.82,-196.97 4432.94,-203.97"/>
<text text-anchor="middle" x="1592.92" y="-353.89" font-family="Times,serif" font-size="14.00">5</text>
</g>
<!-- np3.EntityLargeGaibonProjectile -->
<g id="node10" class="node">
<title>np3.EntityLargeGaibonProjectile</title>
<g id="a_node10"><a xlink:href="np3.EntityLargeGaibonProjectile.svg" xlink:title="np3.EntityLargeGaibonProjectile">
<ellipse fill="green" stroke="black" cx="1808.04" cy="-378" rx="163.57" ry="18"/>
<text text-anchor="middle" x="1808.04" y="-374.3" font-family="Times,serif" font-size="14.00">np3.EntityLargeGaibonProjectile</text>
</a>
</g>
</g>
<!-- np3.EntityLargeGaibonProjectile&#45;&gt;np3.AllocEntity -->
<g id="edge9" class="edge">
<title>np3.EntityLargeGaibonProjectile&#45;&gt;np3.AllocEntity</title>
<path fill="none" stroke="black" d="M1922.92,-365.15C1942.31,-363.31 1962.24,-361.52 1981.04,-360 2940.8,-282.5 4106.77,-220.44 4435.17,-203.55"/>
<polygon fill="black" stroke="black" points="4435.77,-207.03 4445.57,-203.02 4435.41,-200.04 4435.77,-207.03"/>
<text text-anchor="middle" x="1917.92" y="-353.95" font-family="Times,serif" font-size="14.00">1</text>
</g>
<!-- np3.EntityMediumWaterSplash -->
<g id="node11" class="node">
<title>np3.EntityMediumWaterSplash</title>
<g id="a_node11"><a xlink:href="np3.EntityMediumWaterSplash.svg" xlink:title="np3.EntityMediumWaterSplash">
<ellipse fill="green" stroke="black" cx="2147.04" cy="-378" rx="157.07" ry="18"/>
<text text-anchor="middle" x="2147.04" y="-374.3" font-family="Times,serif" font-size="14.00">np3.EntityMediumWaterSplash</text>
</a>
</g>
</g>
<!-- np3.EntityMediumWaterSplash&#45;&gt;np3.AllocEntity -->
<g id="edge10" class="edge">
<title>np3.EntityMediumWaterSplash&#45;&gt;np3.AllocEntity</title>
<path fill="none" stroke="black" d="M2257.72,-365.21C2276.19,-363.37 2295.15,-361.57 2313.04,-360 3137.54,-287.79 4136.95,-223.34 4436.26,-204.52"/>
<polygon fill="black" stroke="black" points="4436.85,-207.99 4446.61,-203.87 4436.41,-201.01 4436.85,-207.99"/>
<text text-anchor="middle" x="2252.72" y="-354.01" font-family="Times,serif" font-size="14.00">1</text>
</g>
<!-- np3.EntityMerman -->
<g id="node12" class="node">
<title>np3.EntityMerman</title>
<g id="a_node12"><a xlink:href="np3.EntityMerman.svg" xlink:title="np3.EntityMerman">
<ellipse fill="green" stroke="black" cx="2421.04" cy="-378" rx="98.58" ry="18"/>
<text text-anchor="middle" x="2421.04" y="-374.3" font-family="Times,serif" font-size="14.00">np3.EntityMerman</text>
</a>
</g>
</g>
<!-- np3.EntityMerman&#45;&gt;np3.AllocEntity -->
<g id="edge11" class="edge">
<title>np3.EntityMerman&#45;&gt;np3.AllocEntity</title>
<path fill="none" stroke="black" d="M2490.58,-365.16C2503.03,-363.26 2515.9,-361.45 2528.04,-360 3262.37,-272.2 4154.48,-219.18 4435.72,-203.74"/>
<polygon fill="black" stroke="black" points="4436.07,-207.22 4445.86,-203.18 4435.68,-200.23 4436.07,-207.22"/>
<text text-anchor="middle" x="2485.58" y="-353.96" font-family="Times,serif" font-size="14.00">5</text>
</g>
<!-- np3.EntityMerman2 -->
<g id="node13" class="node">
<title>np3.EntityMerman2</title>
<g id="a_node13"><a xlink:href="np3.EntityMerman2.svg" xlink:title="np3.EntityMerman2">
<ellipse fill="green" stroke="black" cx="2642.04" cy="-378" rx="104.78" ry="18"/>
<text text-anchor="middle" x="2642.04" y="-374.3" font-family="Times,serif" font-size="14.00">np3.EntityMerman2</text>
</a>
</g>
</g>
<!-- np3.EntityMerman2&#45;&gt;np3.AllocEntity -->
<g id="edge12" class="edge">
<title>np3.EntityMerman2&#45;&gt;np3.AllocEntity</title>
<path fill="none" stroke="black" d="M2716.12,-365.22C2729.07,-363.34 2742.44,-361.52 2755.04,-360 3399.32,-282.3 4179.63,-223.6 4437.61,-205.13"/>
<polygon fill="black" stroke="black" points="4437.94,-208.61 4447.67,-204.41 4437.45,-201.63 4437.94,-208.61"/>
<text text-anchor="middle" x="2711.12" y="-354.02" font-family="Times,serif" font-size="14.00">5</text>
</g>
<!-- np3.EntityMermanRockLeftSide -->
<g id="node14" class="node">
<title>np3.EntityMermanRockLeftSide</title>
<g id="a_node14"><a xlink:href="np3.EntityMermanRockLeftSide.svg" xlink:title="np3.EntityMermanRockLeftSide">
<ellipse fill="green" stroke="black" cx="2925.04" cy="-378" rx="160.57" ry="18"/>
<text text-anchor="middle" x="2925.04" y="-374.3" font-family="Times,serif" font-size="14.00">np3.EntityMermanRockLeftSide</text>
</a>
</g>
</g>
<!-- np3.EntityMermanRockLeftSide&#45;&gt;np3.AllocEntity -->
<g id="edge13" class="edge">
<title>np3.EntityMermanRockLeftSide&#45;&gt;np3.AllocEntity</title>
<path fill="none" stroke="black" d="M3034.7,-364.8C3336.94,-331.18 4177.12,-237.71 4443.15,-208.11"/>
<polygon fill="black" stroke="black" points="4443.58,-211.58 4453.13,-207 4442.8,-204.63 4443.58,-211.58"/>
<text text-anchor="middle" x="3029.7" y="-353.6" font-family="Times,serif" font-size="14.00">3</text>
</g>
<!-- np3.EntityMermanRockRightSide -->
<g id="node15" class="node">
<title>np3.EntityMermanRockRightSide</title>
<g id="a_node15"><a xlink:href="np3.EntityMermanRockRightSide.svg" xlink:title="np3.EntityMermanRockRightSide">
<ellipse fill="green" stroke="black" cx="3271.04" cy="-378" rx="167.07" ry="18"/>
<text text-anchor="middle" x="3271.04" y="-374.3" font-family="Times,serif" font-size="14.00">np3.EntityMermanRockRightSide</text>
</a>
</g>
</g>
<!-- np3.EntityMermanRockRightSide&#45;&gt;np3.AllocEntity -->
<g id="edge14" class="edge">
<title>np3.EntityMermanRockRightSide&#45;&gt;np3.AllocEntity</title>
<path fill="none" stroke="black" d="M3367.62,-363.29C3608.04,-329.16 4229.69,-240.92 4447.93,-209.95"/>
<polygon fill="black" stroke="black" points="4448.6,-213.39 4458.01,-208.51 4447.62,-206.46 4448.6,-213.39"/>
<text text-anchor="middle" x="3362.62" y="-352.09" font-family="Times,serif" font-size="14.00">2</text>
</g>
<!-- np3.EntityMermanSpawner -->
<g id="node16" class="node">
<title>np3.EntityMermanSpawner</title>
<g id="a_node16"><a xlink:href="np3.EntityMermanSpawner.svg" xlink:title="np3.EntityMermanSpawner">
<ellipse fill="green" stroke="black" cx="3596.04" cy="-378" rx="139.98" ry="18"/>
<text text-anchor="middle" x="3596.04" y="-374.3" font-family="Times,serif" font-size="14.00">np3.EntityMermanSpawner</text>
</a>
</g>
</g>
<!-- np3.EntityMermanSpawner&#45;&gt;np3.AllocEntity -->
<g id="edge15" class="edge">
<title>np3.EntityMermanSpawner&#45;&gt;np3.AllocEntity</title>
<path fill="none" stroke="black" d="M3670.5,-362.73C3846.11,-329.09 4284.24,-245.14 4455.18,-212.39"/>
<polygon fill="black" stroke="black" points="4455.91,-215.81 4465.07,-210.49 4454.59,-208.94 4455.91,-215.81"/>
<text text-anchor="middle" x="3665.5" y="-351.53" font-family="Times,serif" font-size="14.00">1</text>
</g>
<!-- np3.EntityOwl -->
<g id="node17" class="node">
<title>np3.EntityOwl</title>
<g id="a_node17"><a xlink:href="np3.EntityOwl.svg" xlink:title="np3.EntityOwl">
<ellipse fill="red" stroke="black" cx="3832.04" cy="-378" rx="77.99" ry="18"/>
<text text-anchor="middle" x="3832.04" y="-374.3" font-family="Times,serif" font-size="14.00">np3.EntityOwl</text>
</a>
</g>
</g>
<!-- np3.EntityOwl&#45;&gt;np3.AllocEntity -->
<g id="edge16" class="edge">
<title>np3.EntityOwl&#45;&gt;np3.AllocEntity</title>
<path fill="none" stroke="black" d="M3882.16,-364.13C4006.52,-332.18 4328.94,-249.37 4464.06,-214.66"/>
<polygon fill="black" stroke="black" points="4465.03,-218.03 4473.84,-212.15 4463.29,-211.25 4465.03,-218.03"/>
<text text-anchor="middle" x="3877.16" y="-352.93" font-family="Times,serif" font-size="14.00">1</text>
</g>
<!-- np3.EntityOwlKnight -->
<g id="node18" class="node">
<title>np3.EntityOwlKnight</title>
<g id="a_node18"><a xlink:href="np3.EntityOwlKnight.svg" xlink:title="np3.EntityOwlKnight">
<ellipse fill="red" stroke="black" cx="4037.04" cy="-378" rx="109.38" ry="18"/>
<text text-anchor="middle" x="4037.04" y="-374.3" font-family="Times,serif" font-size="14.00">np3.EntityOwlKnight</text>
</a>
</g>
</g>
<!-- np3.EntityOwlKnight&#45;&gt;np3.AllocEntity -->
<g id="edge17" class="edge">
<title>np3.EntityOwlKnight&#45;&gt;np3.AllocEntity</title>
<path fill="none" stroke="black" d="M4079.92,-361.36C4170.09,-328.47 4378.92,-252.3 4475.01,-217.25"/>
<polygon fill="black" stroke="black" points="4476.31,-220.5 4484.5,-213.79 4473.91,-213.93 4476.31,-220.5"/>
<text text-anchor="middle" x="4074.92" y="-350.16" font-family="Times,serif" font-size="14.00">1</text>
</g>
<!-- np3.EntitySlogra -->
<g id="node19" class="node">
<title>np3.EntitySlogra</title>
<g id="a_node19"><a xlink:href="np3.EntitySlogra.svg" xlink:title="np3.EntitySlogra">
<ellipse fill="green" stroke="black" cx="4255.04" cy="-378" rx="90.18" ry="18"/>
<text text-anchor="middle" x="4255.04" y="-374.3" font-family="Times,serif" font-size="14.00">np3.EntitySlogra</text>
</a>
</g>
</g>
<!-- np3.EntitySlogra&#45;&gt;np3.AllocEntity -->
<g id="edge18" class="edge">
<title>np3.EntitySlogra&#45;&gt;np3.AllocEntity</title>
<path fill="none" stroke="black" d="M4279.96,-360.57C4328.68,-328.45 4436.6,-257.31 4491.53,-221.1"/>
<polygon fill="black" stroke="black" points="4493.76,-223.81 4500.19,-215.39 4489.91,-217.97 4493.76,-223.81"/>
<text text-anchor="middle" x="4274.96" y="-349.37" font-family="Times,serif" font-size="14.00">3</text>
</g>
<!-- np3.EntitySlograSpearProjectile -->
<g id="node20" class="node">
<title>np3.EntitySlograSpearProjectile</title>
<g id="a_node20"><a xlink:href="np3.EntitySlograSpearProjectile.svg" xlink:title="np3.EntitySlograSpearProjectile">
<ellipse fill="green" stroke="black" cx="4525.04" cy="-378" rx="161.67" ry="18"/>
<text text-anchor="middle" x="4525.04" y="-374.3" font-family="Times,serif" font-size="14.00">np3.EntitySlograSpearProjectile</text>
</a>
</g>
</g>
<!-- np3.EntitySlograSpearProjectile&#45;&gt;np3.AllocEntity -->
<g id="edge19" class="edge">
<title>np3.EntitySlograSpearProjectile&#45;&gt;np3.AllocEntity</title>
<path fill="none" stroke="black" d="M4525.04,-359.93C4525.04,-328.97 4525.04,-263.3 4525.04,-226.13"/>
<polygon fill="black" stroke="black" points="4528.54,-226.02 4525.04,-216.02 4521.54,-226.02 4528.54,-226.02"/>
<text text-anchor="middle" x="4520.04" y="-348.73" font-family="Times,serif" font-size="14.00">1</text>
</g>
<!-- np3.EntitySplashWater -->
<g id="node21" class="node">
<title>np3.EntitySplashWater</title>
<g id="a_node21"><a xlink:href="np3.EntitySplashWater.svg" xlink:title="np3.EntitySplashWater">
<ellipse fill="green" stroke="black" cx="4824.04" cy="-378" rx="118.88" ry="18"/>
<text text-anchor="middle" x="4824.04" y="-374.3" font-family="Times,serif" font-size="14.00">np3.EntitySplashWater</text>
</a>
</g>
</g>
<!-- np3.EntitySplashWater&#45;&gt;np3.AllocEntity -->
<g id="edge20" class="edge">
<title>np3.EntitySplashWater&#45;&gt;np3.AllocEntity</title>
<path fill="none" stroke="black" d="M4796.18,-360.41C4741.71,-327.99 4621.18,-256.23 4560.87,-220.33"/>
<polygon fill="black" stroke="black" points="4562.46,-217.2 4552.08,-215.09 4558.88,-223.22 4562.46,-217.2"/>
<text text-anchor="middle" x="4791.18" y="-349.21" font-family="Times,serif" font-size="14.00">1</text>
</g>
<!-- np3.EntityZombie -->
<g id="node22" class="node">
<title>np3.EntityZombie</title>
<g id="a_node22"><a xlink:href="np3.EntityZombie.svg" xlink:title="np3.EntityZombie">
<ellipse fill="green" stroke="black" cx="5056.04" cy="-378" rx="94.78" ry="18"/>
<text text-anchor="middle" x="5056.04" y="-374.3" font-family="Times,serif" font-size="14.00">np3.EntityZombie</text>
</a>
</g>
</g>
<!-- np3.EntityZombie&#45;&gt;np3.AllocEntity -->
<g id="edge21" class="edge">
<title>np3.EntityZombie&#45;&gt;np3.AllocEntity</title>
<path fill="none" stroke="black" d="M5011.23,-361.98C4913.61,-329.26 4682.18,-251.68 4577.77,-216.67"/>
<polygon fill="black" stroke="black" points="4578.66,-213.28 4568.07,-213.42 4576.43,-219.92 4578.66,-213.28"/>
<text text-anchor="middle" x="5006.23" y="-350.78" font-family="Times,serif" font-size="14.00">1</text>
</g>
<!-- np3.EntityZombieSpawner -->
<g id="node23" class="node">
<title>np3.EntityZombieSpawner</title>
<g id="a_node23"><a xlink:href="np3.EntityZombieSpawner.svg" xlink:title="np3.EntityZombieSpawner">
<ellipse fill="green" stroke="black" cx="5305.04" cy="-378" rx="135.68" ry="18"/>
<text text-anchor="middle" x="5305.04" y="-374.3" font-family="Times,serif" font-size="14.00">np3.EntityZombieSpawner</text>
</a>
</g>
</g>
<!-- np3.EntityZombieSpawner&#45;&gt;np3.AllocEntity -->
<g id="edge22" class="edge">
<title>np3.EntityZombieSpawner&#45;&gt;np3.AllocEntity</title>
<path fill="none" stroke="black" d="M5239.88,-362.13C5092.78,-328.56 4736.37,-247.23 4589.72,-213.76"/>
<polygon fill="black" stroke="black" points="4590.48,-210.34 4579.95,-211.53 4588.92,-217.17 4590.48,-210.34"/>
<text text-anchor="middle" x="5234.88" y="-350.93" font-family="Times,serif" font-size="14.00">1</text>
</g>
<!-- np3.TestCollisions -->
<g id="node24" class="node">
<title>np3.TestCollisions</title>
<g id="a_node24"><a xlink:href="np3.TestCollisions.svg" xlink:title="np3.TestCollisions">
<ellipse fill="red" stroke="black" cx="5554.04" cy="-378" rx="95.58" ry="18"/>
<text text-anchor="middle" x="5554.04" y="-374.3" font-family="Times,serif" font-size="14.00">np3.TestCollisions</text>
</a>
</g>
</g>
<!-- np3.TestCollisions&#45;&gt;np3.AllocEntity -->
<g id="edge23" class="edge">
<title>np3.TestCollisions&#45;&gt;np3.AllocEntity</title>
<path fill="none" stroke="black" d="M5486.13,-365.25C5300.84,-333.2 4787.74,-244.44 4597.36,-211.51"/>
<polygon fill="black" stroke="black" points="4597.91,-208.05 4587.46,-209.8 4596.71,-214.95 4597.91,-208.05"/>
<text text-anchor="middle" x="5481.13" y="-354.05" font-family="Times,serif" font-size="14.00">4</text>
</g>
<!-- np3.func_801B28E4 -->
<g id="node25" class="node">
<title>np3.func_801B28E4</title>
<g id="a_node25"><a xlink:href="np3.func_801B28E4.svg" xlink:title="np3.func_801B28E4">
<ellipse fill="red" stroke="black" cx="5772.04" cy="-378" rx="104.78" ry="18"/>
<text text-anchor="middle" x="5772.04" y="-374.3" font-family="Times,serif" font-size="14.00">np3.func_801B28E4</text>
</a>
</g>
</g>
<!-- np3.func_801B28E4&#45;&gt;np3.AllocEntity -->
<g id="edge24" class="edge">
<title>np3.func_801B28E4&#45;&gt;np3.AllocEntity</title>
<path fill="none" stroke="black" d="M5696.38,-365.53C5683.91,-363.66 5671.12,-361.77 5659.04,-360 5261.97,-301.95 4786.22,-235.37 4602.59,-209.78"/>
<polygon fill="black" stroke="black" points="4602.88,-206.29 4592.49,-208.38 4601.92,-213.22 4602.88,-206.29"/>
<text text-anchor="middle" x="5691.38" y="-354.33" font-family="Times,serif" font-size="14.00">2</text>
</g>
<!-- np3.func_801B40F8 -->
<g id="node26" class="node">
<title>np3.func_801B40F8</title>
<g id="a_node26"><a xlink:href="np3.func_801B40F8.svg" xlink:title="np3.func_801B40F8">
<ellipse fill="green" stroke="black" cx="5999.04" cy="-378" rx="103.98" ry="18"/>
<text text-anchor="middle" x="5999.04" y="-374.3" font-family="Times,serif" font-size="14.00">np3.func_801B40F8</text>
</a>
</g>
</g>
<!-- np3.func_801B40F8&#45;&gt;np3.AllocEntity -->
<g id="edge25" class="edge">
<title>np3.func_801B40F8&#45;&gt;np3.AllocEntity</title>
<path fill="none" stroke="black" d="M5924.33,-365.42C5911.56,-363.54 5898.43,-361.66 5886.04,-360 5402.29,-295.02 4819.89,-230.8 4607.57,-207.84"/>
<polygon fill="black" stroke="black" points="4607.76,-204.34 4597.44,-206.75 4607.01,-211.3 4607.76,-204.34"/>
<text text-anchor="middle" x="5919.33" y="-354.22" font-family="Times,serif" font-size="14.00">1</text>
</g>
<!-- np3.func_801B5790 -->
<g id="node27" class="node">
<title>np3.func_801B5790</title>
<g id="a_node27"><a xlink:href="np3.func_801B5790.svg" xlink:title="np3.func_801B5790">
<ellipse fill="red" stroke="black" cx="6224.04" cy="-378" rx="103.18" ry="18"/>
<text text-anchor="middle" x="6224.04" y="-374.3" font-family="Times,serif" font-size="14.00">np3.func_801B5790</text>
</a>
</g>
</g>
<!-- np3.func_801B5790&#45;&gt;np3.AllocEntity -->
<g id="edge26" class="edge">
<title>np3.func_801B5790&#45;&gt;np3.AllocEntity</title>
<path fill="none" stroke="black" d="M6150.62,-365.32C6137.77,-363.43 6124.53,-361.58 6112.04,-360 5540.2,-287.64 4849.18,-226.52 4610.76,-206.19"/>
<polygon fill="black" stroke="black" points="4611.03,-202.7 4600.77,-205.34 4610.44,-209.68 4611.03,-202.7"/>
<text text-anchor="middle" x="6145.62" y="-354.12" font-family="Times,serif" font-size="14.00">4</text>
</g>
<!-- np3.func_801B6084 -->
<g id="node28" class="node">
<title>np3.func_801B6084</title>
<g id="a_node28"><a xlink:href="np3.func_801B6084.svg" xlink:title="np3.func_801B6084">
<ellipse fill="red" stroke="black" cx="6449.04" cy="-378" rx="103.18" ry="18"/>
<text text-anchor="middle" x="6449.04" y="-374.3" font-family="Times,serif" font-size="14.00">np3.func_801B6084</text>
</a>
</g>
</g>
<!-- np3.func_801B6084&#45;&gt;np3.AllocEntity -->
<g id="edge27" class="edge">
<title>np3.func_801B6084&#45;&gt;np3.AllocEntity</title>
<path fill="none" stroke="black" d="M6375.58,-365.29C6362.43,-363.38 6348.85,-361.53 6336.04,-360 5675.72,-281.05 4875.66,-223 4613.12,-204.93"/>
<polygon fill="black" stroke="black" points="4613.1,-201.42 4602.88,-204.22 4612.62,-208.4 4613.1,-201.42"/>
<text text-anchor="middle" x="6370.58" y="-354.09" font-family="Times,serif" font-size="14.00">1</text>
</g>
<!-- np3.func_801B653C -->
<g id="node29" class="node">
<title>np3.func_801B653C</title>
<g id="a_node29"><a xlink:href="np3.func_801B653C.svg" xlink:title="np3.func_801B653C">
<ellipse fill="green" stroke="black" cx="6675.04" cy="-378" rx="104.78" ry="18"/>
<text text-anchor="middle" x="6675.04" y="-374.3" font-family="Times,serif" font-size="14.00">np3.func_801B653C</text>
</a>
</g>
</g>
<!-- np3.func_801B653C&#45;&gt;np3.AllocEntity -->
<g id="edge28" class="edge">
<title>np3.func_801B653C&#45;&gt;np3.AllocEntity</title>
<path fill="none" stroke="black" d="M6601.25,-365.23C6587.89,-363.32 6574.07,-361.48 6561.04,-360 5810.68,-274.49 4899.55,-219.82 4614.59,-203.86"/>
<polygon fill="black" stroke="black" points="4614.49,-200.35 4604.31,-203.29 4614.1,-207.34 4614.49,-200.35"/>
<text text-anchor="middle" x="6596.25" y="-354.03" font-family="Times,serif" font-size="14.00">1</text>
</g>
<!-- np3.func_801C03E4 -->
<g id="node30" class="node">
<title>np3.func_801C03E4</title>
<g id="a_node30"><a xlink:href="np3.func_801C03E4.svg" xlink:title="np3.func_801C03E4">
<ellipse fill="green" stroke="black" cx="6902.04" cy="-378" rx="104.78" ry="18"/>
<text text-anchor="middle" x="6902.04" y="-374.3" font-family="Times,serif" font-size="14.00">np3.func_801C03E4</text>
</a>
</g>
</g>
<!-- np3.func_801C03E4&#45;&gt;np3.AllocEntity -->
<g id="edge29" class="edge">
<title>np3.func_801C03E4&#45;&gt;np3.AllocEntity</title>
<path fill="none" stroke="black" d="M6828.6,-365.1C6815.45,-363.21 6801.86,-361.42 6789.04,-360 5946.51,-266.81 4921.3,-216.55 4615.35,-202.88"/>
<polygon fill="black" stroke="black" points="4615.35,-199.37 4605.21,-202.42 4615.04,-206.37 4615.35,-199.37"/>
<text text-anchor="middle" x="6823.6" y="-353.9" font-family="Times,serif" font-size="14.00">1</text>
</g>
<!-- np3.func_801C04F4 -->
<g id="node31" class="node">
<title>np3.func_801C04F4</title>
<g id="a_node31"><a xlink:href="np3.func_801C04F4.svg" xlink:title="np3.func_801C04F4">
<ellipse fill="red" stroke="black" cx="7129.04" cy="-378" rx="103.98" ry="18"/>
<text text-anchor="middle" x="7129.04" y="-374.3" font-family="Times,serif" font-size="14.00">np3.func_801C04F4</text>
</a>
</g>
</g>
<!-- np3.func_801C04F4&#45;&gt;np3.AllocEntity -->
<g id="edge30" class="edge">
<title>np3.func_801C04F4&#45;&gt;np3.AllocEntity</title>
<path fill="none" stroke="black" d="M7056.22,-365.12C7042.88,-363.2 7029.06,-361.4 7016.04,-360 6081.46,-259.68 4942.42,-213.78 4616.24,-202.1"/>
<polygon fill="black" stroke="black" points="4616.02,-198.59 4605.9,-201.73 4615.77,-205.59 4616.02,-198.59"/>
<text text-anchor="middle" x="7051.22" y="-353.92" font-family="Times,serif" font-size="14.00">1</text>
</g>
<!-- np3.func_801C0624 -->
<g id="node32" class="node">
<title>np3.func_801C0624</title>
<g id="a_node32"><a xlink:href="np3.func_801C0624.svg" xlink:title="np3.func_801C0624">
<ellipse fill="red" stroke="black" cx="7354.04" cy="-378" rx="103.18" ry="18"/>
<text text-anchor="middle" x="7354.04" y="-374.3" font-family="Times,serif" font-size="14.00">np3.func_801C0624</text>
</a>
</g>
</g>
<!-- np3.func_801C0624&#45;&gt;np3.AllocEntity -->
<g id="edge31" class="edge">
<title>np3.func_801C0624&#45;&gt;np3.AllocEntity</title>
<path fill="none" stroke="black" d="M7281.87,-365.05C7268.65,-363.15 7254.95,-361.36 7242.04,-360 6215.05,-251.86 4961.46,-211.02 4616.58,-201.39"/>
<polygon fill="black" stroke="black" points="4616.49,-197.88 4606.39,-201.1 4616.29,-204.88 4616.49,-197.88"/>
<text text-anchor="middle" x="7276.87" y="-353.85" font-family="Times,serif" font-size="14.00">1</text>
</g>
<!-- np3.func_801C1430 -->
<g id="node33" class="node">
<title>np3.func_801C1430</title>
<g id="a_node33"><a xlink:href="np3.func_801C1430.svg" xlink:title="np3.func_801C1430">
<ellipse fill="green" stroke="black" cx="7579.04" cy="-378" rx="103.18" ry="18"/>
<text text-anchor="middle" x="7579.04" y="-374.3" font-family="Times,serif" font-size="14.00">np3.func_801C1430</text>
</a>
</g>
</g>
<!-- np3.func_801C1430&#45;&gt;np3.AllocEntity -->
<g id="edge32" class="edge">
<title>np3.func_801C1430&#45;&gt;np3.AllocEntity</title>
<path fill="none" stroke="black" d="M7506.83,-365.1C7493.31,-363.16 7479.27,-361.35 7466.04,-360 6347.17,-245.47 4979.93,-208.9 4617.03,-200.87"/>
<polygon fill="black" stroke="black" points="4616.92,-197.36 4606.84,-200.64 4616.76,-204.36 4616.92,-197.36"/>
<text text-anchor="middle" x="7501.83" y="-353.9" font-family="Times,serif" font-size="14.00">1</text>
</g>
<!-- np3.func_801C424C -->
<g id="node34" class="node">
<title>np3.func_801C424C</title>
<g id="a_node34"><a xlink:href="np3.func_801C424C.svg" xlink:title="np3.func_801C424C">
<ellipse fill="red" stroke="black" cx="7805.04" cy="-378" rx="104.78" ry="18"/>
<text text-anchor="middle" x="7805.04" y="-374.3" font-family="Times,serif" font-size="14.00">np3.func_801C424C</text>
</a>
</g>
</g>
<!-- np3.func_801C424C&#45;&gt;np3.AllocEntity -->
<g id="edge33" class="edge">
<title>np3.func_801C424C&#45;&gt;np3.AllocEntity</title>
<path fill="none" stroke="black" d="M7732.2,-365.06C7718.55,-363.13 7704.38,-361.33 7691.04,-360 6479.47,-239.15 4997.5,-206.93 4617.32,-200.41"/>
<polygon fill="black" stroke="black" points="4617.26,-196.91 4607.2,-200.24 4617.14,-203.91 4617.26,-196.91"/>
<text text-anchor="middle" x="7727.2" y="-353.86" font-family="Times,serif" font-size="14.00">6</text>
</g>
<!-- np3.func_801C6458 -->
<g id="node35" class="node">
<title>np3.func_801C6458</title>
<g id="a_node35"><a xlink:href="np3.func_801C6458.svg" xlink:title="np3.func_801C6458">
<ellipse fill="green" stroke="black" cx="8031.04" cy="-378" rx="103.18" ry="18"/>
<text text-anchor="middle" x="8031.04" y="-374.3" font-family="Times,serif" font-size="14.00">np3.func_801C6458</text>
</a>
</g>
</g>
<!-- np3.func_801C6458&#45;&gt;np3.AllocEntity -->
<g id="edge34" class="edge">
<title>np3.func_801C6458&#45;&gt;np3.AllocEntity</title>
<path fill="none" stroke="black" d="M7959.18,-364.97C7945.87,-363.06 7932.06,-361.29 7919.04,-360 6613.52,-230.3 5014.76,-204.44 4617.61,-199.89"/>
<polygon fill="black" stroke="black" points="4617.37,-196.39 4607.33,-199.77 4617.29,-203.39 4617.37,-196.39"/>
<text text-anchor="middle" x="7954.18" y="-353.77" font-family="Times,serif" font-size="14.00">1</text>
</g>
<!-- np3.func_801C7954 -->
<g id="node36" class="node">
<title>np3.func_801C7954</title>
<g id="a_node36"><a xlink:href="np3.func_801C7954.svg" xlink:title="np3.func_801C7954">
<ellipse fill="red" stroke="black" cx="8256.04" cy="-378" rx="103.18" ry="18"/>
<text text-anchor="middle" x="8256.04" y="-374.3" font-family="Times,serif" font-size="14.00">np3.func_801C7954</text>
</a>
</g>
</g>
<!-- np3.func_801C7954&#45;&gt;np3.AllocEntity -->
<g id="edge35" class="edge">
<title>np3.func_801C7954&#45;&gt;np3.AllocEntity</title>
<path fill="none" stroke="black" d="M8184.15,-365.03C8170.53,-363.09 8156.37,-361.3 8143.04,-360 6744.36,-224.05 5030.17,-202.76 4617.52,-199.55"/>
<polygon fill="black" stroke="black" points="4617.46,-196.05 4607.43,-199.48 4617.41,-203.05 4617.46,-196.05"/>
<text text-anchor="middle" x="8179.15" y="-353.83" font-family="Times,serif" font-size="14.00">1</text>
</g>
<!-- np3.func_801C8DF0 -->
<g id="node37" class="node">
<title>np3.func_801C8DF0</title>
<g id="a_node37"><a xlink:href="np3.func_801C8DF0.svg" xlink:title="np3.func_801C8DF0">
<ellipse fill="green" stroke="black" cx="8483.04" cy="-378" rx="105.08" ry="18"/>
<text text-anchor="middle" x="8483.04" y="-374.3" font-family="Times,serif" font-size="14.00">np3.func_801C8DF0</text>
</a>
</g>
</g>
<!-- np3.func_801C8DF0&#45;&gt;np3.AllocEntity -->
<g id="edge36" class="edge">
<title>np3.func_801C8DF0&#45;&gt;np3.AllocEntity</title>
<path fill="none" stroke="black" d="M8409.87,-365.01C8396.01,-363.07 8381.61,-361.28 8368.04,-360 6875.63,-218.82 5045.48,-201.44 4617.55,-199.3"/>
<polygon fill="black" stroke="black" points="4617.42,-195.8 4607.4,-199.25 4617.38,-202.8 4617.42,-195.8"/>
<text text-anchor="middle" x="8404.87" y="-353.81" font-family="Times,serif" font-size="14.00">2</text>
</g>
</g>
</svg>
