<?xml version="1.0" encoding="UTF-8" standalone="no"?>
<!DOCTYPE svg PUBLIC "-//W3C//DTD SVG 1.1//EN"
 "http://www.w3.org/Graphics/SVG/1.1/DTD/svg11.dtd">
<!-- Generated by graphviz version 2.43.0 (0)
 -->
<!-- Title: np3.EntityEquipItemDrop Pages: 1 -->
<svg width="3334pt" height="224pt"
 viewBox="0.00 0.00 3334.33 224.00" xmlns="http://www.w3.org/2000/svg" xmlns:xlink="http://www.w3.org/1999/xlink">
<g id="graph0" class="graph" transform="scale(1 1) rotate(0) translate(4 220)">
<title>np3.EntityEquipItemDrop</title>
<polygon fill="white" stroke="transparent" points="-4,4 -4,-220 3330.33,-220 3330.33,4 -4,4"/>
<!-- np3.EntityEquipItemDrop -->
<g id="node1" class="node">
<title>np3.EntityEquipItemDrop</title>
<ellipse fill="green" stroke="black" cx="1690.69" cy="-198" rx="131.88" ry="18"/>
<text text-anchor="middle" x="1690.69" y="-194.3" font-family="Times,serif" font-size="14.00">np3.EntityEquipItemDrop</text>
</g>
<!-- dra.AddToInventory -->
<g id="node2" class="node">
<title>dra.AddToInventory</title>
<g id="a_node2"><a xlink:href="dra.AddToInventory.svg" xlink:title="dra.AddToInventory">
<ellipse fill="red" stroke="black" cx="102.69" cy="-18" rx="102.88" ry="18"/>
<text text-anchor="middle" x="102.69" y="-14.3" font-family="Times,serif" font-size="14.00">dra.AddToInventory</text>
</a>
</g>
</g>
<!-- np3.EntityEquipItemDrop&#45;&gt;dra.AddToInventory -->
<g id="edge1" class="edge">
<title>np3.EntityEquipItemDrop&#45;&gt;dra.AddToInventory</title>
<path fill="none" stroke="black" d="M1585.37,-187.04C1343.06,-163.81 727.5,-102.86 214.69,-36 205.43,-34.79 195.75,-33.45 186.12,-32.06"/>
<polygon fill="black" stroke="black" points="186.53,-28.58 176.13,-30.6 185.52,-35.51 186.53,-28.58"/>
<text text-anchor="middle" x="171.13" y="-34.4" font-family="Times,serif" font-size="14.00">1</text>
</g>
<!-- dra.AllocPrimitives -->
<g id="node3" class="node">
<title>dra.AllocPrimitives</title>
<g id="a_node3"><a xlink:href="dra.AllocPrimitives.svg" xlink:title="dra.AllocPrimitives">
<ellipse fill="green" stroke="black" cx="322.69" cy="-18" rx="99.38" ry="18"/>
<text text-anchor="middle" x="322.69" y="-14.3" font-family="Times,serif" font-size="14.00">dra.AllocPrimitives</text>
</a>
</g>
</g>
<!-- np3.EntityEquipItemDrop&#45;&gt;dra.AllocPrimitives -->
<g id="edge2" class="edge">
<title>np3.EntityEquipItemDrop&#45;&gt;dra.AllocPrimitives</title>
<path fill="none" stroke="black" d="M1594.62,-185.63C1383.84,-160.48 865.03,-97.49 431.69,-36 422.85,-34.75 413.61,-33.38 404.41,-32"/>
<polygon fill="black" stroke="black" points="404.89,-28.53 394.47,-30.48 403.83,-35.45 404.89,-28.53"/>
<text text-anchor="middle" x="389.47" y="-34.28" font-family="Times,serif" font-size="14.00">1</text>
</g>
<!-- dra.CheckCollision -->
<g id="node4" class="node">
<title>dra.CheckCollision</title>
<g id="a_node4"><a xlink:href="dra.CheckCollision.svg" xlink:title="dra.CheckCollision">
<ellipse fill="green" stroke="black" cx="537.69" cy="-18" rx="97.48" ry="18"/>
<text text-anchor="middle" x="537.69" y="-14.3" font-family="Times,serif" font-size="14.00">dra.CheckCollision</text>
</a>
</g>
</g>
<!-- np3.EntityEquipItemDrop&#45;&gt;dra.CheckCollision -->
<g id="edge3" class="edge">
<title>np3.EntityEquipItemDrop&#45;&gt;dra.CheckCollision</title>
<path fill="none" stroke="black" d="M1605.84,-184.14C1427.59,-157.09 1001.15,-92.15 643.69,-36 635.49,-34.71 626.93,-33.36 618.38,-32"/>
<polygon fill="black" stroke="black" points="618.81,-28.52 608.38,-30.4 617.71,-35.43 618.81,-28.52"/>
<text text-anchor="middle" x="603.38" y="-34.2" font-family="Times,serif" font-size="14.00">3</text>
</g>
<!-- dra.FreePrimitives -->
<g id="node5" class="node">
<title>dra.FreePrimitives</title>
<g id="a_node5"><a xlink:href="dra.FreePrimitives.svg" xlink:title="dra.FreePrimitives">
<ellipse fill="green" stroke="black" cx="751.69" cy="-18" rx="98.58" ry="18"/>
<text text-anchor="middle" x="751.69" y="-14.3" font-family="Times,serif" font-size="14.00">dra.FreePrimitives</text>
</a>
</g>
</g>
<!-- np3.EntityEquipItemDrop&#45;&gt;dra.FreePrimitives -->
<g id="edge4" class="edge">
<title>np3.EntityEquipItemDrop&#45;&gt;dra.FreePrimitives</title>
<path fill="none" stroke="black" d="M1617.01,-183.03C1442.28,-149.91 1004.22,-66.87 827.44,-33.36"/>
<polygon fill="black" stroke="black" points="827.92,-29.89 817.44,-31.46 826.61,-36.76 827.92,-29.89"/>
<text text-anchor="middle" x="812.44" y="-35.26" font-family="Times,serif" font-size="14.00">1</text>
</g>
<!-- dra.LoadEquipIcon -->
<g id="node6" class="node">
<title>dra.LoadEquipIcon</title>
<g id="a_node6"><a xlink:href="dra.LoadEquipIcon.svg" xlink:title="dra.LoadEquipIcon">
<ellipse fill="green" stroke="black" cx="967.69" cy="-18" rx="98.58" ry="18"/>
<text text-anchor="middle" x="967.69" y="-14.3" font-family="Times,serif" font-size="14.00">dra.LoadEquipIcon</text>
</a>
</g>
</g>
<!-- np3.EntityEquipItemDrop&#45;&gt;dra.LoadEquipIcon -->
<g id="edge5" class="edge">
<title>np3.EntityEquipItemDrop&#45;&gt;dra.LoadEquipIcon</title>
<path fill="none" stroke="black" d="M1629.67,-181.98C1495.02,-148.83 1173.38,-69.64 1033.99,-35.32"/>
<polygon fill="black" stroke="black" points="1034.82,-31.92 1024.28,-32.93 1033.15,-38.72 1034.82,-31.92"/>
<text text-anchor="middle" x="1019.28" y="-36.73" font-family="Times,serif" font-size="14.00">1</text>
</g>
<!-- dra.PlaySfx -->
<g id="node7" class="node">
<title>dra.PlaySfx</title>
<g id="a_node7"><a xlink:href="dra.PlaySfx.svg" xlink:title="dra.PlaySfx">
<ellipse fill="green" stroke="black" cx="1148.69" cy="-18" rx="64.19" ry="18"/>
<text text-anchor="middle" x="1148.69" y="-14.3" font-family="Times,serif" font-size="14.00">dra.PlaySfx</text>
</a>
</g>
</g>
<!-- np3.EntityEquipItemDrop&#45;&gt;dra.PlaySfx -->
<g id="edge6" class="edge">
<title>np3.EntityEquipItemDrop&#45;&gt;dra.PlaySfx</title>
<path fill="none" stroke="black" d="M1642.59,-181.2C1540.32,-147.62 1302.14,-69.39 1198.43,-35.33"/>
<polygon fill="black" stroke="black" points="1199.42,-31.97 1188.82,-32.18 1197.23,-38.63 1199.42,-31.97"/>
<text text-anchor="middle" x="1183.82" y="-35.98" font-family="Times,serif" font-size="14.00">1</text>
</g>
<!-- np3.BottomCornerText -->
<g id="node8" class="node">
<title>np3.BottomCornerText</title>
<g id="a_node8"><a xlink:href="np3.BottomCornerText.svg" xlink:title="np3.BottomCornerText">
<ellipse fill="green" stroke="black" cx="1348.69" cy="-18" rx="117.78" ry="18"/>
<text text-anchor="middle" x="1348.69" y="-14.3" font-family="Times,serif" font-size="14.00">np3.BottomCornerText</text>
</a>
</g>
</g>
<!-- np3.EntityEquipItemDrop&#45;&gt;np3.BottomCornerText -->
<g id="edge7" class="edge">
<title>np3.EntityEquipItemDrop&#45;&gt;np3.BottomCornerText</title>
<path fill="none" stroke="black" d="M1658.82,-180.41C1596.42,-147.94 1458.22,-76.01 1389.35,-40.16"/>
<polygon fill="black" stroke="black" points="1390.59,-36.86 1380.11,-35.35 1387.36,-43.07 1390.59,-36.86"/>
<text text-anchor="middle" x="1375.11" y="-39.15" font-family="Times,serif" font-size="14.00">1</text>
</g>
<!-- np3.DestroyEntity -->
<g id="node9" class="node">
<title>np3.DestroyEntity</title>
<g id="a_node9"><a xlink:href="np3.DestroyEntity.svg" xlink:title="np3.DestroyEntity">
<ellipse fill="green" stroke="black" cx="1580.69" cy="-18" rx="96.68" ry="18"/>
<text text-anchor="middle" x="1580.69" y="-14.3" font-family="Times,serif" font-size="14.00">np3.DestroyEntity</text>
</a>
</g>
</g>
<!-- np3.EntityEquipItemDrop&#45;&gt;np3.DestroyEntity -->
<g id="edge8" class="edge">
<title>np3.EntityEquipItemDrop&#45;&gt;np3.DestroyEntity</title>
<path fill="none" stroke="black" d="M1680.14,-179.93C1660.76,-148.57 1619.38,-81.6 1596.58,-44.71"/>
<polygon fill="black" stroke="black" points="1599.44,-42.68 1591.21,-36.02 1593.49,-46.36 1599.44,-42.68"/>
<text text-anchor="middle" x="1586.21" y="-39.82" font-family="Times,serif" font-size="14.00">2</text>
</g>
<!-- np3.EntityPrizeDrop -->
<g id="node10" class="node">
<title>np3.EntityPrizeDrop</title>
<g id="a_node10"><a xlink:href="np3.EntityPrizeDrop.svg" xlink:title="np3.EntityPrizeDrop">
<ellipse fill="green" stroke="black" cx="1801.69" cy="-18" rx="106.68" ry="18"/>
<text text-anchor="middle" x="1801.69" y="-14.3" font-family="Times,serif" font-size="14.00">np3.EntityPrizeDrop</text>
</a>
</g>
</g>
<!-- np3.EntityEquipItemDrop&#45;&gt;np3.EntityPrizeDrop -->
<g id="edge9" class="edge">
<title>np3.EntityEquipItemDrop&#45;&gt;np3.EntityPrizeDrop</title>
<path fill="none" stroke="black" d="M1701.33,-179.93C1720.89,-148.57 1762.65,-81.6 1785.66,-44.71"/>
<polygon fill="black" stroke="black" points="1788.76,-46.35 1791.08,-36.02 1782.82,-42.65 1788.76,-46.35"/>
<text text-anchor="middle" x="1786.08" y="-39.82" font-family="Times,serif" font-size="14.00">1</text>
</g>
<!-- np3.FallEntity -->
<g id="node11" class="node">
<title>np3.FallEntity</title>
<g id="a_node11"><a xlink:href="np3.FallEntity.svg" xlink:title="np3.FallEntity">
<ellipse fill="green" stroke="black" cx="2003.69" cy="-18" rx="77.19" ry="18"/>
<text text-anchor="middle" x="2003.69" y="-14.3" font-family="Times,serif" font-size="14.00">np3.FallEntity</text>
</a>
</g>
</g>
<!-- np3.EntityEquipItemDrop&#45;&gt;np3.FallEntity -->
<g id="edge10" class="edge">
<title>np3.EntityEquipItemDrop&#45;&gt;np3.FallEntity</title>
<path fill="none" stroke="black" d="M1719.86,-180.41C1777.14,-147.84 1904.21,-75.57 1967.05,-39.84"/>
<polygon fill="black" stroke="black" points="1968.88,-42.83 1975.84,-34.84 1965.42,-36.74 1968.88,-42.83"/>
<text text-anchor="middle" x="1970.84" y="-38.64" font-family="Times,serif" font-size="14.00">1</text>
</g>
<!-- np3.InitializeEntity -->
<g id="node12" class="node">
<title>np3.InitializeEntity</title>
<g id="a_node12"><a xlink:href="np3.InitializeEntity.svg" xlink:title="np3.InitializeEntity">
<ellipse fill="green" stroke="black" cx="2199.69" cy="-18" rx="100.98" ry="18"/>
<text text-anchor="middle" x="2199.69" y="-14.3" font-family="Times,serif" font-size="14.00">np3.InitializeEntity</text>
</a>
</g>
</g>
<!-- np3.EntityEquipItemDrop&#45;&gt;np3.InitializeEntity -->
<g id="edge11" class="edge">
<title>np3.EntityEquipItemDrop&#45;&gt;np3.InitializeEntity</title>
<path fill="none" stroke="black" d="M1736.31,-181.05C1830.41,-148.14 2045.66,-72.87 2146.16,-37.72"/>
<polygon fill="black" stroke="black" points="2147.52,-40.95 2155.81,-34.35 2145.21,-34.34 2147.52,-40.95"/>
<text text-anchor="middle" x="2150.81" y="-38.15" font-family="Times,serif" font-size="14.00">1</text>
</g>
<!-- np3.MoveEntity -->
<g id="node13" class="node">
<title>np3.MoveEntity</title>
<g id="a_node13"><a xlink:href="np3.MoveEntity.svg" xlink:title="np3.MoveEntity">
<ellipse fill="green" stroke="black" cx="2403.69" cy="-18" rx="85.29" ry="18"/>
<text text-anchor="middle" x="2403.69" y="-14.3" font-family="Times,serif" font-size="14.00">np3.MoveEntity</text>
</a>
</g>
</g>
<!-- np3.EntityEquipItemDrop&#45;&gt;np3.MoveEntity -->
<g id="edge12" class="edge">
<title>np3.EntityEquipItemDrop&#45;&gt;np3.MoveEntity</title>
<path fill="none" stroke="black" d="M1750.87,-181.98C1884.5,-148.62 2204.91,-68.63 2340.92,-34.67"/>
<polygon fill="black" stroke="black" points="2341.93,-38.03 2350.78,-32.21 2340.23,-31.24 2341.93,-38.03"/>
<text text-anchor="middle" x="2345.78" y="-36.01" font-family="Times,serif" font-size="14.00">1</text>
</g>
<!-- np3.SetStep -->
<g id="node14" class="node">
<title>np3.SetStep</title>
<g id="a_node14"><a xlink:href="np3.SetStep.svg" xlink:title="np3.SetStep">
<ellipse fill="green" stroke="black" cx="2574.69" cy="-18" rx="68.49" ry="18"/>
<text text-anchor="middle" x="2574.69" y="-14.3" font-family="Times,serif" font-size="14.00">np3.SetStep</text>
</a>
</g>
</g>
<!-- np3.EntityEquipItemDrop&#45;&gt;np3.SetStep -->
<g id="edge13" class="edge">
<title>np3.EntityEquipItemDrop&#45;&gt;np3.SetStep</title>
<path fill="none" stroke="black" d="M1763.68,-182.96C1905.37,-155.58 2227.5,-92.77 2497.69,-36 2503.05,-34.87 2508.61,-33.68 2514.19,-32.48"/>
<polygon fill="black" stroke="black" points="2515.16,-35.85 2524.19,-30.3 2513.68,-29.01 2515.16,-35.85"/>
<text text-anchor="middle" x="2519.19" y="-34.1" font-family="Times,serif" font-size="14.00">1</text>
</g>
<!-- np3.func_801BD430 -->
<g id="node15" class="node">
<title>np3.func_801BD430</title>
<g id="a_node15"><a xlink:href="np3.func_801BD430.svg" xlink:title="np3.func_801BD430">
<ellipse fill="green" stroke="black" cx="2765.69" cy="-18" rx="104.78" ry="18"/>
<text text-anchor="middle" x="2765.69" y="-14.3" font-family="Times,serif" font-size="14.00">np3.func_801BD430</text>
</a>
</g>
</g>
<!-- np3.EntityEquipItemDrop&#45;&gt;np3.func_801BD430 -->
<g id="edge14" class="edge">
<title>np3.EntityEquipItemDrop&#45;&gt;np3.func_801BD430</title>
<path fill="none" stroke="black" d="M1771.05,-183.69C1969.74,-150.79 2482.49,-65.89 2683.3,-32.64"/>
<polygon fill="black" stroke="black" points="2683.91,-36.09 2693.2,-31 2682.76,-29.18 2683.91,-36.09"/>
<text text-anchor="middle" x="2688.2" y="-34.8" font-family="Times,serif" font-size="14.00">1</text>
</g>
<!-- np3.func_801BDA08 -->
<g id="node16" class="node">
<title>np3.func_801BDA08</title>
<g id="a_node16"><a xlink:href="np3.func_801BDA08.svg" xlink:title="np3.func_801BDA08">
<ellipse fill="green" stroke="black" cx="2993.69" cy="-18" rx="105.08" ry="18"/>
<text text-anchor="middle" x="2993.69" y="-14.3" font-family="Times,serif" font-size="14.00">np3.func_801BDA08</text>
</a>
</g>
</g>
<!-- np3.EntityEquipItemDrop&#45;&gt;np3.func_801BDA08 -->
<g id="edge15" class="edge">
<title>np3.EntityEquipItemDrop&#45;&gt;np3.func_801BDA08</title>
<path fill="none" stroke="black" d="M1782.49,-185C1982.16,-158.8 2470.84,-94.16 2879.69,-36 2888.71,-34.72 2898.13,-33.35 2907.52,-31.98"/>
<polygon fill="black" stroke="black" points="2908.29,-35.4 2917.67,-30.48 2907.27,-28.47 2908.29,-35.4"/>
<text text-anchor="middle" x="2912.67" y="-34.28" font-family="Times,serif" font-size="14.00">2</text>
</g>
<!-- np3.func_801BE864 -->
<g id="node17" class="node">
<title>np3.func_801BE864</title>
<g id="a_node17"><a xlink:href="np3.func_801BE864.svg" xlink:title="np3.func_801BE864">
<ellipse fill="green" stroke="black" cx="3221.69" cy="-18" rx="104.78" ry="18"/>
<text text-anchor="middle" x="3221.69" y="-14.3" font-family="Times,serif" font-size="14.00">np3.func_801BE864</text>
</a>
</g>
</g>
<!-- np3.EntityEquipItemDrop&#45;&gt;np3.func_801BE864 -->
<g id="edge16" class="edge">
<title>np3.EntityEquipItemDrop&#45;&gt;np3.func_801BE864</title>
<path fill="none" stroke="black" d="M1793.09,-186.6C2026.55,-162.63 2616.11,-100.56 3107.69,-36 3117.04,-34.77 3126.81,-33.42 3136.53,-32.03"/>
<polygon fill="black" stroke="black" points="3137.23,-35.47 3146.62,-30.57 3136.23,-28.54 3137.23,-35.47"/>
<text text-anchor="middle" x="3141.62" y="-34.37" font-family="Times,serif" font-size="14.00">1</text>
</g>
</g>
</svg>
