<?xml version="1.0" encoding="UTF-8" standalone="no"?>
<!DOCTYPE svg PUBLIC "-//W3C//DTD SVG 1.1//EN"
 "http://www.w3.org/Graphics/SVG/1.1/DTD/svg11.dtd">
<!-- Generated by graphviz version 2.43.0 (0)
 -->
<!-- Title: np3.EntityCavernDoorLever Pages: 1 -->
<svg width="818pt" height="224pt"
 viewBox="0.00 0.00 818.34 224.00" xmlns="http://www.w3.org/2000/svg" xmlns:xlink="http://www.w3.org/1999/xlink">
<g id="graph0" class="graph" transform="scale(1 1) rotate(0) translate(4 220)">
<title>np3.EntityCavernDoorLever</title>
<polygon fill="white" stroke="transparent" points="-4,4 -4,-220 814.34,-220 814.34,4 -4,4"/>
<!-- np3.EntityCavernDoorLever -->
<g id="node1" class="node">
<title>np3.EntityCavernDoorLever</title>
<ellipse fill="green" stroke="black" cx="591.74" cy="-198" rx="141.88" ry="18"/>
<text text-anchor="middle" x="591.74" y="-194.3" font-family="Times,serif" font-size="14.00">np3.EntityCavernDoorLever</text>
</g>
<!-- np3.InitializeEntity -->
<g id="node2" class="node">
<title>np3.InitializeEntity</title>
<g id="a_node2"><a xlink:href="np3.InitializeEntity.svg" xlink:title="np3.InitializeEntity">
<ellipse fill="green" stroke="black" cx="100.74" cy="-18" rx="100.98" ry="18"/>
<text text-anchor="middle" x="100.74" y="-14.3" font-family="Times,serif" font-size="14.00">np3.InitializeEntity</text>
</a>
</g>
</g>
<!-- np3.EntityCavernDoorLever&#45;&gt;np3.InitializeEntity -->
<g id="edge1" class="edge">
<title>np3.EntityCavernDoorLever&#45;&gt;np3.InitializeEntity</title>
<path fill="none" stroke="black" d="M547.3,-180.89C456.47,-147.96 249.95,-73.09 152.92,-37.92"/>
<polygon fill="black" stroke="black" points="153.92,-34.56 143.32,-34.44 151.53,-41.14 153.92,-34.56"/>
<text text-anchor="middle" x="138.32" y="-38.24" font-family="Times,serif" font-size="14.00">1</text>
</g>
<!-- np3.CreateEntityFromEntity -->
<g id="node3" class="node">
<title>np3.CreateEntityFromEntity</title>
<g id="a_node3"><a xlink:href="np3.CreateEntityFromEntity.svg" xlink:title="np3.CreateEntityFromEntity">
<ellipse fill="green" stroke="black" cx="364.74" cy="-18" rx="144.87" ry="18"/>
<text text-anchor="middle" x="364.74" y="-14.3" font-family="Times,serif" font-size="14.00">np3.CreateEntityFromEntity</text>
</a>
</g>
</g>
<!-- np3.EntityCavernDoorLever&#45;&gt;np3.CreateEntityFromEntity -->
<g id="edge2" class="edge">
<title>np3.EntityCavernDoorLever&#45;&gt;np3.CreateEntityFromEntity</title>
<path fill="none" stroke="black" d="M569.98,-179.93C529.13,-147.9 440.94,-78.75 394.59,-42.4"/>
<polygon fill="black" stroke="black" points="396.47,-39.43 386.44,-36.02 392.15,-44.94 396.47,-39.43"/>
<text text-anchor="middle" x="381.44" y="-39.82" font-family="Times,serif" font-size="14.00">1</text>
</g>
<!-- dra.PlaySfx -->
<g id="node4" class="node">
<title>dra.PlaySfx</title>
<g id="a_node4"><a xlink:href="dra.PlaySfx.svg" xlink:title="dra.PlaySfx">
<ellipse fill="green" stroke="black" cx="591.74" cy="-18" rx="64.19" ry="18"/>
<text text-anchor="middle" x="591.74" y="-14.3" font-family="Times,serif" font-size="14.00">dra.PlaySfx</text>
</a>
</g>
</g>
<!-- np3.EntityCavernDoorLever&#45;&gt;dra.PlaySfx -->
<g id="edge3" class="edge">
<title>np3.EntityCavernDoorLever&#45;&gt;dra.PlaySfx</title>
<path fill="none" stroke="black" d="M591.74,-179.93C591.74,-148.97 591.74,-83.3 591.74,-46.13"/>
<polygon fill="black" stroke="black" points="595.24,-46.02 591.74,-36.02 588.24,-46.02 595.24,-46.02"/>
<text text-anchor="middle" x="586.74" y="-39.82" font-family="Times,serif" font-size="14.00">2</text>
</g>
<!-- rcos -->
<g id="node5" class="node">
<title>rcos</title>
<g id="a_node5"><a xlink:href="rcos.svg" xlink:title="rcos">
<ellipse fill="lightblue" stroke="black" cx="704.74" cy="-18" rx="30.59" ry="18"/>
<text text-anchor="middle" x="704.74" y="-14.3" font-family="Times,serif" font-size="14.00">rcos</text>
</a>
</g>
</g>
<!-- np3.EntityCavernDoorLever&#45;&gt;rcos -->
<g id="edge4" class="edge">
<title>np3.EntityCavernDoorLever&#45;&gt;rcos</title>
<path fill="none" stroke="black" d="M602.58,-179.93C622.69,-148.25 665.87,-80.23 689.13,-43.58"/>
<polygon fill="black" stroke="black" points="692.19,-45.3 694.59,-34.99 686.28,-41.55 692.19,-45.3"/>
<text text-anchor="middle" x="689.59" y="-38.79" font-family="Times,serif" font-size="14.00">1</text>
</g>
<!-- rsin -->
<g id="node6" class="node">
<title>rsin</title>
<g id="a_node6"><a xlink:href="rsin.svg" xlink:title="rsin">
<ellipse fill="lightblue" stroke="black" cx="781.74" cy="-18" rx="28.7" ry="18"/>
<text text-anchor="middle" x="781.74" y="-14.3" font-family="Times,serif" font-size="14.00">rsin</text>
</a>
</g>
</g>
<!-- np3.EntityCavernDoorLever&#45;&gt;rsin -->
<g id="edge5" class="edge">
<title>np3.EntityCavernDoorLever&#45;&gt;rsin</title>
<path fill="none" stroke="black" d="M609.96,-179.93C644.82,-147.28 720.87,-76.02 759,-40.31"/>
<polygon fill="black" stroke="black" points="761.63,-42.64 766.53,-33.25 756.84,-37.53 761.63,-42.64"/>
<text text-anchor="middle" x="761.53" y="-37.05" font-family="Times,serif" font-size="14.00">1</text>
</g>
</g>
</svg>
