<?xml version="1.0" encoding="UTF-8" standalone="no"?>
<!DOCTYPE svg PUBLIC "-//W3C//DTD SVG 1.1//EN"
 "http://www.w3.org/Graphics/SVG/1.1/DTD/svg11.dtd">
<!-- Generated by graphviz version 2.43.0 (0)
 -->
<!-- Title: np3.func_801BB044 Pages: 1 -->
<svg width="618pt" height="404pt"
 viewBox="0.00 0.00 617.72 404.00" xmlns="http://www.w3.org/2000/svg" xmlns:xlink="http://www.w3.org/1999/xlink">
<g id="graph0" class="graph" transform="scale(1 1) rotate(0) translate(4 400)">
<title>np3.func_801BB044</title>
<polygon fill="white" stroke="transparent" points="-4,4 -4,-400 613.72,-400 613.72,4 -4,4"/>
<!-- np3.func_801BB044 -->
<g id="node1" class="node">
<title>np3.func_801BB044</title>
<ellipse fill="green" stroke="black" cx="260.99" cy="-198" rx="104.78" ry="18"/>
<text text-anchor="middle" x="260.99" y="-194.3" font-family="Times,serif" font-size="14.00">np3.func_801BB044</text>
</g>
<!-- np3.func_801BAFA0 -->
<g id="node2" class="node">
<title>np3.func_801BAFA0</title>
<g id="a_node2"><a xlink:href="np3.func_801BAFA0.svg" xlink:title="np3.func_801BAFA0">
<ellipse fill="green" stroke="black" cx="103.99" cy="-18" rx="103.98" ry="18"/>
<text text-anchor="middle" x="103.99" y="-14.3" font-family="Times,serif" font-size="14.00">np3.func_801BAFA0</text>
</a>
</g>
</g>
<!-- np3.func_801BB044&#45;&gt;np3.func_801BAFA0 -->
<g id="edge1" class="edge">
<title>np3.func_801BB044&#45;&gt;np3.func_801BAFA0</title>
<path fill="none" stroke="black" d="M245.94,-179.93C218.04,-148.3 158.2,-80.46 125.84,-43.78"/>
<polygon fill="black" stroke="black" points="128.24,-41.2 119,-36.02 122.99,-45.83 128.24,-41.2"/>
<text text-anchor="middle" x="114" y="-39.82" font-family="Times,serif" font-size="14.00">1</text>
</g>
<!-- np3.CreateEntityWhenInVerticalRange -->
<g id="node3" class="node">
<title>np3.CreateEntityWhenInVerticalRange</title>
<g id="a_node3"><a xlink:href="np3.CreateEntityWhenInVerticalRange.svg" xlink:title="np3.CreateEntityWhenInVerticalRange">
<ellipse fill="green" stroke="black" cx="417.99" cy="-18" rx="191.97" ry="18"/>
<text text-anchor="middle" x="417.99" y="-14.3" font-family="Times,serif" font-size="14.00">np3.CreateEntityWhenInVerticalRange</text>
</a>
</g>
</g>
<!-- np3.func_801BB044&#45;&gt;np3.CreateEntityWhenInVerticalRange -->
<g id="edge2" class="edge">
<title>np3.func_801BB044&#45;&gt;np3.CreateEntityWhenInVerticalRange</title>
<path fill="none" stroke="black" d="M276.04,-179.93C303.94,-148.3 363.78,-80.46 396.14,-43.78"/>
<polygon fill="black" stroke="black" points="398.99,-45.83 402.98,-36.02 393.74,-41.2 398.99,-45.83"/>
<text text-anchor="middle" x="397.98" y="-39.82" font-family="Times,serif" font-size="14.00">1</text>
</g>
<!-- np3.func_801BB680 -->
<g id="node4" class="node">
<title>np3.func_801BB680</title>
<g id="a_node4"><a xlink:href="np3.func_801BB680.svg" xlink:title="np3.func_801BB680">
<ellipse fill="green" stroke="black" cx="144.99" cy="-378" rx="104.78" ry="18"/>
<text text-anchor="middle" x="144.99" y="-374.3" font-family="Times,serif" font-size="14.00">np3.func_801BB680</text>
</a>
</g>
</g>
<!-- np3.func_801BB680&#45;&gt;np3.func_801BB044 -->
<g id="edge3" class="edge">
<title>np3.func_801BB680&#45;&gt;np3.func_801BB044</title>
<path fill="none" stroke="black" d="M156.11,-359.93C176.55,-328.57 220.19,-261.6 244.24,-224.71"/>
<polygon fill="black" stroke="black" points="247.37,-226.3 249.9,-216.02 241.51,-222.48 247.37,-226.3"/>
<text text-anchor="middle" x="151.11" y="-348.73" font-family="Times,serif" font-size="14.00">1</text>
</g>
<!-- np3.InitRoomEntities -->
<g id="node5" class="node">
<title>np3.InitRoomEntities</title>
<g id="a_node5"><a xlink:href="np3.InitRoomEntities.svg" xlink:title="np3.InitRoomEntities">
<ellipse fill="red" stroke="black" cx="377.99" cy="-378" rx="110.48" ry="18"/>
<text text-anchor="middle" x="377.99" y="-374.3" font-family="Times,serif" font-size="14.00">np3.InitRoomEntities</text>
</a>
</g>
</g>
<!-- np3.InitRoomEntities&#45;&gt;np3.func_801BB044 -->
<g id="edge4" class="edge">
<title>np3.InitRoomEntities&#45;&gt;np3.func_801BB044</title>
<path fill="none" stroke="black" d="M366.77,-359.93C346.16,-328.57 302.14,-261.6 277.89,-224.71"/>
<polygon fill="black" stroke="black" points="280.59,-222.45 272.18,-216.02 274.74,-226.29 280.59,-222.45"/>
<text text-anchor="middle" x="361.77" y="-348.73" font-family="Times,serif" font-size="14.00">1</text>
</g>
</g>
</svg>
