<?xml version="1.0" encoding="UTF-8" standalone="no"?>
<!DOCTYPE svg PUBLIC "-//W3C//DTD SVG 1.1//EN"
 "http://www.w3.org/Graphics/SVG/1.1/DTD/svg11.dtd">
<!-- Generated by graphviz version 2.43.0 (0)
 -->
<!-- Title: np3.func_801CE3FC Pages: 1 -->
<svg width="645pt" height="218pt"
 viewBox="0.00 0.00 645.03 218.00" xmlns="http://www.w3.org/2000/svg" xmlns:xlink="http://www.w3.org/1999/xlink">
<g id="graph0" class="graph" transform="scale(1 1) rotate(0) translate(4 214)">
<title>np3.func_801CE3FC</title>
<polygon fill="white" stroke="transparent" points="-4,4 -4,-214 641.03,-214 641.03,4 -4,4"/>
<!-- np3.func_801CE3FC -->
<g id="node1" class="node">
<title>np3.func_801CE3FC</title>
<ellipse fill="red" stroke="black" cx="313.74" cy="-105" rx="105.88" ry="18"/>
<text text-anchor="middle" x="313.74" y="-101.3" font-family="Times,serif" font-size="14.00">np3.func_801CE3FC</text>
</g>
<!-- np3.func_801CD83C -->
<g id="node2" class="node">
<title>np3.func_801CD83C</title>
<g id="a_node2"><a xlink:href="np3.func_801CD83C.svg" xlink:title="np3.func_801CD83C">
<ellipse fill="red" stroke="black" cx="313.74" cy="-18" rx="105.88" ry="18"/>
<text text-anchor="middle" x="313.74" y="-14.3" font-family="Times,serif" font-size="14.00">np3.func_801CD83C</text>
</a>
</g>
</g>
<!-- np3.func_801CE3FC&#45;&gt;np3.func_801CD83C -->
<g id="edge1" class="edge">
<title>np3.func_801CE3FC&#45;&gt;np3.func_801CD83C</title>
<path fill="none" stroke="black" d="M313.74,-86.8C313.74,-75.16 313.74,-59.55 313.74,-46.24"/>
<polygon fill="black" stroke="black" points="317.24,-46.18 313.74,-36.18 310.24,-46.18 317.24,-46.18"/>
<text text-anchor="middle" x="318.74" y="-57.8" font-family="Times,serif" font-size="14.00">2</text>
</g>
<!-- np3.EntityHammer -->
<g id="node3" class="node">
<title>np3.EntityHammer</title>
<g id="a_node3"><a xlink:href="np3.EntityHammer.svg" xlink:title="np3.EntityHammer">
<ellipse fill="red" stroke="black" cx="100.74" cy="-192" rx="100.98" ry="18"/>
<text text-anchor="middle" x="100.74" y="-188.3" font-family="Times,serif" font-size="14.00">np3.EntityHammer</text>
</a>
</g>
</g>
<!-- np3.EntityHammer&#45;&gt;np3.func_801CE3FC -->
<g id="edge2" class="edge">
<title>np3.EntityHammer&#45;&gt;np3.func_801CE3FC</title>
<path fill="none" stroke="black" d="M140.31,-175.21C175.31,-161.24 226.55,-140.79 264.26,-125.74"/>
<polygon fill="black" stroke="black" points="266.04,-128.81 274.03,-121.85 263.44,-122.3 266.04,-128.81"/>
<text text-anchor="middle" x="225.74" y="-144.8" font-family="Times,serif" font-size="14.00">1</text>
</g>
<!-- np3.EntityGurkha -->
<g id="node4" class="node">
<title>np3.EntityGurkha</title>
<g id="a_node4"><a xlink:href="np3.EntityGurkha.svg" xlink:title="np3.EntityGurkha">
<ellipse fill="red" stroke="black" cx="313.74" cy="-192" rx="94.48" ry="18"/>
<text text-anchor="middle" x="313.74" y="-188.3" font-family="Times,serif" font-size="14.00">np3.EntityGurkha</text>
</a>
</g>
</g>
<!-- np3.EntityGurkha&#45;&gt;np3.func_801CE3FC -->
<g id="edge3" class="edge">
<title>np3.EntityGurkha&#45;&gt;np3.func_801CE3FC</title>
<path fill="none" stroke="black" d="M313.74,-173.8C313.74,-162.16 313.74,-146.55 313.74,-133.24"/>
<polygon fill="black" stroke="black" points="317.24,-133.18 313.74,-123.18 310.24,-133.18 317.24,-133.18"/>
<text text-anchor="middle" x="318.74" y="-144.8" font-family="Times,serif" font-size="14.00">1</text>
</g>
<!-- np3.func_801D0D40 -->
<g id="node5" class="node">
<title>np3.func_801D0D40</title>
<g id="a_node5"><a xlink:href="np3.func_801D0D40.svg" xlink:title="np3.func_801D0D40">
<ellipse fill="red" stroke="black" cx="531.74" cy="-192" rx="105.08" ry="18"/>
<text text-anchor="middle" x="531.74" y="-188.3" font-family="Times,serif" font-size="14.00">np3.func_801D0D40</text>
</a>
</g>
</g>
<!-- np3.func_801D0D40&#45;&gt;np3.func_801CE3FC -->
<g id="edge4" class="edge">
<title>np3.func_801D0D40&#45;&gt;np3.func_801CE3FC</title>
<path fill="none" stroke="black" d="M491.5,-175.31C455.44,-161.25 402.39,-140.57 363.64,-125.46"/>
<polygon fill="black" stroke="black" points="364.7,-122.11 354.11,-121.74 362.16,-128.64 364.7,-122.11"/>
<text text-anchor="middle" x="441.74" y="-144.8" font-family="Times,serif" font-size="14.00">1</text>
</g>
</g>
</svg>
