<?xml version="1.0" encoding="UTF-8" standalone="no"?>
<!DOCTYPE svg PUBLIC "-//W3C//DTD SVG 1.1//EN"
 "http://www.w3.org/Graphics/SVG/1.1/DTD/svg11.dtd">
<!-- Generated by graphviz version 2.43.0 (0)
 -->
<!-- Title: np3.func_801BC8B8 Pages: 1 -->
<svg width="1501pt" height="224pt"
 viewBox="0.00 0.00 1501.18 224.00" xmlns="http://www.w3.org/2000/svg" xmlns:xlink="http://www.w3.org/1999/xlink">
<g id="graph0" class="graph" transform="scale(1 1) rotate(0) translate(4 220)">
<title>np3.func_801BC8B8</title>
<polygon fill="white" stroke="transparent" points="-4,4 -4,-220 1497.18,-220 1497.18,4 -4,4"/>
<!-- np3.func_801BC8B8 -->
<g id="node1" class="node">
<title>np3.func_801BC8B8</title>
<ellipse fill="green" stroke="black" cx="816.54" cy="-18" rx="105.08" ry="18"/>
<text text-anchor="middle" x="816.54" y="-14.3" font-family="Times,serif" font-size="14.00">np3.func_801BC8B8</text>
</g>
<!-- np3.EntityBoneScimitarParts -->
<g id="node2" class="node">
<title>np3.EntityBoneScimitarParts</title>
<g id="a_node2"><a xlink:href="np3.EntityBoneScimitarParts.svg" xlink:title="np3.EntityBoneScimitarParts">
<ellipse fill="green" stroke="black" cx="147.54" cy="-198" rx="147.57" ry="18"/>
<text text-anchor="middle" x="147.54" y="-194.3" font-family="Times,serif" font-size="14.00">np3.EntityBoneScimitarParts</text>
</a>
</g>
</g>
<!-- np3.EntityBoneScimitarParts&#45;&gt;np3.func_801BC8B8 -->
<g id="edge1" class="edge">
<title>np3.EntityBoneScimitarParts&#45;&gt;np3.func_801BC8B8</title>
<path fill="none" stroke="black" d="M206.03,-181.44C330.92,-148.21 622.81,-70.54 752.49,-36.04"/>
<polygon fill="black" stroke="black" points="753.53,-39.39 762.29,-33.43 751.73,-32.62 753.53,-39.39"/>
<text text-anchor="middle" x="201.03" y="-170.24" font-family="Times,serif" font-size="14.00">1</text>
</g>
<!-- np3.EntityEquipItemDrop -->
<g id="node3" class="node">
<title>np3.EntityEquipItemDrop</title>
<g id="a_node3"><a xlink:href="np3.EntityEquipItemDrop.svg" xlink:title="np3.EntityEquipItemDrop">
<ellipse fill="green" stroke="black" cx="444.54" cy="-198" rx="131.88" ry="18"/>
<text text-anchor="middle" x="444.54" y="-194.3" font-family="Times,serif" font-size="14.00">np3.EntityEquipItemDrop</text>
</a>
</g>
</g>
<!-- np3.EntityEquipItemDrop&#45;&gt;np3.func_801BC8B8 -->
<g id="edge2" class="edge">
<title>np3.EntityEquipItemDrop&#45;&gt;np3.func_801BC8B8</title>
<path fill="none" stroke="black" d="M478.87,-180.57C547,-147.97 699.15,-75.17 773.7,-39.5"/>
<polygon fill="black" stroke="black" points="775.32,-42.6 782.83,-35.13 772.3,-36.29 775.32,-42.6"/>
<text text-anchor="middle" x="473.87" y="-169.37" font-family="Times,serif" font-size="14.00">1</text>
</g>
<!-- np3.EntityPrizeDrop -->
<g id="node4" class="node">
<title>np3.EntityPrizeDrop</title>
<g id="a_node4"><a xlink:href="np3.EntityPrizeDrop.svg" xlink:title="np3.EntityPrizeDrop">
<ellipse fill="green" stroke="black" cx="701.54" cy="-198" rx="106.68" ry="18"/>
<text text-anchor="middle" x="701.54" y="-194.3" font-family="Times,serif" font-size="14.00">np3.EntityPrizeDrop</text>
</a>
</g>
</g>
<!-- np3.EntityPrizeDrop&#45;&gt;np3.func_801BC8B8 -->
<g id="edge3" class="edge">
<title>np3.EntityPrizeDrop&#45;&gt;np3.func_801BC8B8</title>
<path fill="none" stroke="black" d="M712.56,-179.93C732.83,-148.57 776.09,-81.6 799.93,-44.71"/>
<polygon fill="black" stroke="black" points="803.06,-46.31 805.54,-36.02 797.18,-42.52 803.06,-46.31"/>
<text text-anchor="middle" x="707.56" y="-168.73" font-family="Times,serif" font-size="14.00">2</text>
</g>
<!-- np3.func_801BC8E4 -->
<g id="node5" class="node">
<title>np3.func_801BC8E4</title>
<g id="a_node5"><a xlink:href="np3.func_801BC8E4.svg" xlink:title="np3.func_801BC8E4">
<ellipse fill="green" stroke="black" cx="931.54" cy="-198" rx="105.08" ry="18"/>
<text text-anchor="middle" x="931.54" y="-194.3" font-family="Times,serif" font-size="14.00">np3.func_801BC8E4</text>
</a>
</g>
</g>
<!-- np3.func_801BC8E4&#45;&gt;np3.func_801BC8B8 -->
<g id="edge4" class="edge">
<title>np3.func_801BC8E4&#45;&gt;np3.func_801BC8B8</title>
<path fill="none" stroke="black" d="M920.51,-179.93C900.25,-148.57 856.98,-81.6 833.15,-44.71"/>
<polygon fill="black" stroke="black" points="835.9,-42.52 827.53,-36.02 830.02,-46.31 835.9,-42.52"/>
<text text-anchor="middle" x="915.51" y="-168.73" font-family="Times,serif" font-size="14.00">1</text>
</g>
<!-- np3.func_801BDA08 -->
<g id="node6" class="node">
<title>np3.func_801BDA08</title>
<g id="a_node6"><a xlink:href="np3.func_801BDA08.svg" xlink:title="np3.func_801BDA08">
<ellipse fill="green" stroke="black" cx="1160.54" cy="-198" rx="105.08" ry="18"/>
<text text-anchor="middle" x="1160.54" y="-194.3" font-family="Times,serif" font-size="14.00">np3.func_801BDA08</text>
</a>
</g>
</g>
<!-- np3.func_801BDA08&#45;&gt;np3.func_801BC8B8 -->
<g id="edge5" class="edge">
<title>np3.func_801BDA08&#45;&gt;np3.func_801BC8B8</title>
<path fill="none" stroke="black" d="M1129.1,-180.73C1066.56,-148.37 926.61,-75.95 857.19,-40.03"/>
<polygon fill="black" stroke="black" points="858.77,-36.91 848.28,-35.42 855.55,-43.13 858.77,-36.91"/>
<text text-anchor="middle" x="1124.1" y="-169.53" font-family="Times,serif" font-size="14.00">1</text>
</g>
<!-- np3.func_801C0B20 -->
<g id="node7" class="node">
<title>np3.func_801C0B20</title>
<g id="a_node7"><a xlink:href="np3.func_801C0B20.svg" xlink:title="np3.func_801C0B20">
<ellipse fill="green" stroke="black" cx="1388.54" cy="-198" rx="104.78" ry="18"/>
<text text-anchor="middle" x="1388.54" y="-194.3" font-family="Times,serif" font-size="14.00">np3.func_801C0B20</text>
</a>
</g>
</g>
<!-- np3.func_801C0B20&#45;&gt;np3.func_801BC8B8 -->
<g id="edge6" class="edge">
<title>np3.func_801C0B20&#45;&gt;np3.func_801BC8B8</title>
<path fill="none" stroke="black" d="M1340.26,-181.98C1235.55,-149.39 987.9,-72.33 874.75,-37.12"/>
<polygon fill="black" stroke="black" points="875.47,-33.67 864.88,-34.05 873.39,-40.36 875.47,-33.67"/>
<text text-anchor="middle" x="1335.26" y="-170.78" font-family="Times,serif" font-size="14.00">1</text>
</g>
</g>
</svg>
