<?xml version="1.0" encoding="UTF-8" standalone="no"?>
<!DOCTYPE svg PUBLIC "-//W3C//DTD SVG 1.1//EN"
 "http://www.w3.org/Graphics/SVG/1.1/DTD/svg11.dtd">
<!-- Generated by graphviz version 2.43.0 (0)
 -->
<!-- Title: np3.EntitySoulStealOrb Pages: 1 -->
<svg width="1883pt" height="131pt"
 viewBox="0.00 0.00 1883.23 131.00" xmlns="http://www.w3.org/2000/svg" xmlns:xlink="http://www.w3.org/1999/xlink">
<g id="graph0" class="graph" transform="scale(1 1) rotate(0) translate(4 127)">
<title>np3.EntitySoulStealOrb</title>
<polygon fill="white" stroke="transparent" points="-4,4 -4,-127 1879.23,-127 1879.23,4 -4,4"/>
<!-- np3.EntitySoulStealOrb -->
<g id="node1" class="node">
<title>np3.EntitySoulStealOrb</title>
<ellipse fill="green" stroke="black" cx="916.44" cy="-105" rx="122.38" ry="18"/>
<text text-anchor="middle" x="916.44" y="-101.3" font-family="Times,serif" font-size="14.00">np3.EntitySoulStealOrb</text>
</g>
<!-- dra.AllocPrimitives -->
<g id="node2" class="node">
<title>dra.AllocPrimitives</title>
<g id="a_node2"><a xlink:href="dra.AllocPrimitives.svg" xlink:title="dra.AllocPrimitives">
<ellipse fill="green" stroke="black" cx="99.44" cy="-18" rx="99.38" ry="18"/>
<text text-anchor="middle" x="99.44" y="-14.3" font-family="Times,serif" font-size="14.00">dra.AllocPrimitives</text>
</a>
</g>
</g>
<!-- np3.EntitySoulStealOrb&#45;&gt;dra.AllocPrimitives -->
<g id="edge1" class="edge">
<title>np3.EntitySoulStealOrb&#45;&gt;dra.AllocPrimitives</title>
<path fill="none" stroke="black" d="M810.81,-95.91C672.08,-84.83 421.04,-63.15 207.44,-36 198.52,-34.87 189.21,-33.57 179.95,-32.21"/>
<polygon fill="black" stroke="black" points="180.35,-28.73 169.94,-30.71 179.31,-35.65 180.35,-28.73"/>
<text text-anchor="middle" x="504.44" y="-57.8" font-family="Times,serif" font-size="14.00">1</text>
</g>
<!-- np3.InitializeEntity -->
<g id="node3" class="node">
<title>np3.InitializeEntity</title>
<g id="a_node3"><a xlink:href="np3.InitializeEntity.svg" xlink:title="np3.InitializeEntity">
<ellipse fill="green" stroke="black" cx="317.44" cy="-18" rx="100.98" ry="18"/>
<text text-anchor="middle" x="317.44" y="-14.3" font-family="Times,serif" font-size="14.00">np3.InitializeEntity</text>
</a>
</g>
</g>
<!-- np3.EntitySoulStealOrb&#45;&gt;np3.InitializeEntity -->
<g id="edge2" class="edge">
<title>np3.EntitySoulStealOrb&#45;&gt;np3.InitializeEntity</title>
<path fill="none" stroke="black" d="M829.19,-92.34C731.15,-79.14 567.27,-56.75 426.44,-36 417.91,-34.74 409,-33.4 400.12,-32.04"/>
<polygon fill="black" stroke="black" points="400.53,-28.57 390.12,-30.51 399.47,-35.49 400.53,-28.57"/>
<text text-anchor="middle" x="660.44" y="-57.8" font-family="Times,serif" font-size="14.00">1</text>
</g>
<!-- np3.func_801BD034 -->
<g id="node4" class="node">
<title>np3.func_801BD034</title>
<g id="a_node4"><a xlink:href="np3.func_801BD034.svg" xlink:title="np3.func_801BD034">
<ellipse fill="green" stroke="black" cx="540.44" cy="-18" rx="104.78" ry="18"/>
<text text-anchor="middle" x="540.44" y="-14.3" font-family="Times,serif" font-size="14.00">np3.func_801BD034</text>
</a>
</g>
</g>
<!-- np3.EntitySoulStealOrb&#45;&gt;np3.func_801BD034 -->
<g id="edge3" class="edge">
<title>np3.EntitySoulStealOrb&#45;&gt;np3.func_801BD034</title>
<path fill="none" stroke="black" d="M852.66,-89.58C785.66,-74.43 680.56,-50.68 611.09,-34.97"/>
<polygon fill="black" stroke="black" points="611.63,-31.51 601.11,-32.71 610.09,-38.33 611.63,-31.51"/>
<text text-anchor="middle" x="756.44" y="-57.8" font-family="Times,serif" font-size="14.00">2</text>
</g>
<!-- np3.Random -->
<g id="node5" class="node">
<title>np3.Random</title>
<g id="a_node5"><a xlink:href="np3.Random.svg" xlink:title="np3.Random">
<ellipse fill="green" stroke="black" cx="732.44" cy="-18" rx="69.59" ry="18"/>
<text text-anchor="middle" x="732.44" y="-14.3" font-family="Times,serif" font-size="14.00">np3.Random</text>
</a>
</g>
</g>
<!-- np3.EntitySoulStealOrb&#45;&gt;np3.Random -->
<g id="edge4" class="edge">
<title>np3.EntitySoulStealOrb&#45;&gt;np3.Random</title>
<path fill="none" stroke="black" d="M880.96,-87.61C850.45,-73.52 806.4,-53.17 774.2,-38.29"/>
<polygon fill="black" stroke="black" points="775.58,-35.07 765.03,-34.06 772.64,-41.43 775.58,-35.07"/>
<text text-anchor="middle" x="841.44" y="-57.8" font-family="Times,serif" font-size="14.00">2</text>
</g>
<!-- np3.DestroyEntity -->
<g id="node6" class="node">
<title>np3.DestroyEntity</title>
<g id="a_node6"><a xlink:href="np3.DestroyEntity.svg" xlink:title="np3.DestroyEntity">
<ellipse fill="green" stroke="black" cx="916.44" cy="-18" rx="96.68" ry="18"/>
<text text-anchor="middle" x="916.44" y="-14.3" font-family="Times,serif" font-size="14.00">np3.DestroyEntity</text>
</a>
</g>
</g>
<!-- np3.EntitySoulStealOrb&#45;&gt;np3.DestroyEntity -->
<g id="edge5" class="edge">
<title>np3.EntitySoulStealOrb&#45;&gt;np3.DestroyEntity</title>
<path fill="none" stroke="black" d="M916.44,-86.8C916.44,-75.16 916.44,-59.55 916.44,-46.24"/>
<polygon fill="black" stroke="black" points="919.94,-46.18 916.44,-36.18 912.94,-46.18 919.94,-46.18"/>
<text text-anchor="middle" x="921.44" y="-57.8" font-family="Times,serif" font-size="14.00">1</text>
</g>
<!-- np3.func_801BD0B4 -->
<g id="node7" class="node">
<title>np3.func_801BD0B4</title>
<g id="a_node7"><a xlink:href="np3.func_801BD0B4.svg" xlink:title="np3.func_801BD0B4">
<ellipse fill="green" stroke="black" cx="1137.44" cy="-18" rx="105.88" ry="18"/>
<text text-anchor="middle" x="1137.44" y="-14.3" font-family="Times,serif" font-size="14.00">np3.func_801BD0B4</text>
</a>
</g>
</g>
<!-- np3.EntitySoulStealOrb&#45;&gt;np3.func_801BD0B4 -->
<g id="edge6" class="edge">
<title>np3.EntitySoulStealOrb&#45;&gt;np3.func_801BD0B4</title>
<path fill="none" stroke="black" d="M958.01,-88.01C994.66,-73.91 1048.17,-53.34 1087.21,-38.32"/>
<polygon fill="black" stroke="black" points="1088.73,-41.49 1096.81,-34.63 1086.22,-34.95 1088.73,-41.49"/>
<text text-anchor="middle" x="1045.44" y="-57.8" font-family="Times,serif" font-size="14.00">1</text>
</g>
<!-- np3.func_801BCF78 -->
<g id="node8" class="node">
<title>np3.func_801BCF78</title>
<g id="a_node8"><a xlink:href="np3.func_801BCF78.svg" xlink:title="np3.func_801BCF78">
<ellipse fill="green" stroke="black" cx="1366.44" cy="-18" rx="104.78" ry="18"/>
<text text-anchor="middle" x="1366.44" y="-14.3" font-family="Times,serif" font-size="14.00">np3.func_801BCF78</text>
</a>
</g>
</g>
<!-- np3.EntitySoulStealOrb&#45;&gt;np3.func_801BCF78 -->
<g id="edge7" class="edge">
<title>np3.EntitySoulStealOrb&#45;&gt;np3.func_801BCF78</title>
<path fill="none" stroke="black" d="M988.74,-90.34C1070.87,-74.83 1204.39,-49.61 1288.7,-33.68"/>
<polygon fill="black" stroke="black" points="1289.56,-37.08 1298.74,-31.79 1288.26,-30.21 1289.56,-37.08"/>
<text text-anchor="middle" x="1173.44" y="-57.8" font-family="Times,serif" font-size="14.00">1</text>
</g>
<!-- np3.MoveEntity -->
<g id="node9" class="node">
<title>np3.MoveEntity</title>
<g id="a_node9"><a xlink:href="np3.MoveEntity.svg" xlink:title="np3.MoveEntity">
<ellipse fill="green" stroke="black" cx="1574.44" cy="-18" rx="85.29" ry="18"/>
<text text-anchor="middle" x="1574.44" y="-14.3" font-family="Times,serif" font-size="14.00">np3.MoveEntity</text>
</a>
</g>
</g>
<!-- np3.EntitySoulStealOrb&#45;&gt;np3.MoveEntity -->
<g id="edge8" class="edge">
<title>np3.EntitySoulStealOrb&#45;&gt;np3.MoveEntity</title>
<path fill="none" stroke="black" d="M1013.48,-94.06C1126.04,-82.12 1317.08,-60.6 1480.44,-36 1487.85,-34.88 1495.58,-33.63 1503.27,-32.33"/>
<polygon fill="black" stroke="black" points="1504.09,-35.74 1513.35,-30.59 1502.9,-28.84 1504.09,-35.74"/>
<text text-anchor="middle" x="1347.44" y="-57.8" font-family="Times,serif" font-size="14.00">1</text>
</g>
<!-- np3.AnimateEntity -->
<g id="node10" class="node">
<title>np3.AnimateEntity</title>
<g id="a_node10"><a xlink:href="np3.AnimateEntity.svg" xlink:title="np3.AnimateEntity">
<ellipse fill="green" stroke="black" cx="1776.44" cy="-18" rx="98.58" ry="18"/>
<text text-anchor="middle" x="1776.44" y="-14.3" font-family="Times,serif" font-size="14.00">np3.AnimateEntity</text>
</a>
</g>
</g>
<!-- np3.EntitySoulStealOrb&#45;&gt;np3.AnimateEntity -->
<g id="edge9" class="edge">
<title>np3.EntitySoulStealOrb&#45;&gt;np3.AnimateEntity</title>
<path fill="none" stroke="black" d="M1025.72,-96.91C1172.33,-86.76 1440.67,-65.95 1668.44,-36 1677.36,-34.83 1686.67,-33.51 1695.93,-32.13"/>
<polygon fill="black" stroke="black" points="1696.56,-35.58 1705.93,-30.63 1695.52,-28.66 1696.56,-35.58"/>
<text text-anchor="middle" x="1509.44" y="-57.8" font-family="Times,serif" font-size="14.00">1</text>
</g>
</g>
</svg>
