<?xml version="1.0" encoding="UTF-8" standalone="no"?>
<!DOCTYPE svg PUBLIC "-//W3C//DTD SVG 1.1//EN"
 "http://www.w3.org/Graphics/SVG/1.1/DTD/svg11.dtd">
<!-- Generated by graphviz version 2.43.0 (0)
 -->
<!-- Title: np3.EntityStairwayPiece Pages: 1 -->
<svg width="2099pt" height="224pt"
 viewBox="0.00 0.00 2099.43 224.00" xmlns="http://www.w3.org/2000/svg" xmlns:xlink="http://www.w3.org/1999/xlink">
<g id="graph0" class="graph" transform="scale(1 1) rotate(0) translate(4 220)">
<title>np3.EntityStairwayPiece</title>
<polygon fill="white" stroke="transparent" points="-4,4 -4,-220 2095.43,-220 2095.43,4 -4,4"/>
<!-- np3.EntityStairwayPiece -->
<g id="node1" class="node">
<title>np3.EntityStairwayPiece</title>
<ellipse fill="green" stroke="black" cx="1034.44" cy="-198" rx="126.18" ry="18"/>
<text text-anchor="middle" x="1034.44" y="-194.3" font-family="Times,serif" font-size="14.00">np3.EntityStairwayPiece</text>
</g>
<!-- dra.AllocPrimitives -->
<g id="node2" class="node">
<title>dra.AllocPrimitives</title>
<g id="a_node2"><a xlink:href="dra.AllocPrimitives.svg" xlink:title="dra.AllocPrimitives">
<ellipse fill="green" stroke="black" cx="99.44" cy="-18" rx="99.38" ry="18"/>
<text text-anchor="middle" x="99.44" y="-14.3" font-family="Times,serif" font-size="14.00">dra.AllocPrimitives</text>
</a>
</g>
</g>
<!-- np3.EntityStairwayPiece&#45;&gt;dra.AllocPrimitives -->
<g id="edge1" class="edge">
<title>np3.EntityStairwayPiece&#45;&gt;dra.AllocPrimitives</title>
<path fill="none" stroke="black" d="M961.85,-183.18C788.55,-150.19 351.97,-67.07 175.35,-33.45"/>
<polygon fill="black" stroke="black" points="175.84,-29.98 165.36,-31.55 174.53,-36.86 175.84,-29.98"/>
<text text-anchor="middle" x="160.36" y="-35.35" font-family="Times,serif" font-size="14.00">1</text>
</g>
<!-- dra.CheckCollision -->
<g id="node3" class="node">
<title>dra.CheckCollision</title>
<g id="a_node3"><a xlink:href="dra.CheckCollision.svg" xlink:title="dra.CheckCollision">
<ellipse fill="green" stroke="black" cx="314.44" cy="-18" rx="97.48" ry="18"/>
<text text-anchor="middle" x="314.44" y="-14.3" font-family="Times,serif" font-size="14.00">dra.CheckCollision</text>
</a>
</g>
</g>
<!-- np3.EntityStairwayPiece&#45;&gt;dra.CheckCollision -->
<g id="edge2" class="edge">
<title>np3.EntityStairwayPiece&#45;&gt;dra.CheckCollision</title>
<path fill="none" stroke="black" d="M974.29,-182.13C840.59,-149.08 519.57,-69.71 380.52,-35.34"/>
<polygon fill="black" stroke="black" points="380.97,-31.84 370.42,-32.84 379.29,-38.64 380.97,-31.84"/>
<text text-anchor="middle" x="365.42" y="-36.64" font-family="Times,serif" font-size="14.00">1</text>
</g>
<!-- dra.PlaySfx -->
<g id="node4" class="node">
<title>dra.PlaySfx</title>
<g id="a_node4"><a xlink:href="dra.PlaySfx.svg" xlink:title="dra.PlaySfx">
<ellipse fill="green" stroke="black" cx="494.44" cy="-18" rx="64.19" ry="18"/>
<text text-anchor="middle" x="494.44" y="-14.3" font-family="Times,serif" font-size="14.00">dra.PlaySfx</text>
</a>
</g>
</g>
<!-- np3.EntityStairwayPiece&#45;&gt;dra.PlaySfx -->
<g id="edge3" class="edge">
<title>np3.EntityStairwayPiece&#45;&gt;dra.PlaySfx</title>
<path fill="none" stroke="black" d="M986.52,-181.2C884.62,-147.62 647.32,-69.39 544,-35.33"/>
<polygon fill="black" stroke="black" points="545.02,-31.99 534.42,-32.18 542.83,-38.63 545.02,-31.99"/>
<text text-anchor="middle" x="529.42" y="-35.98" font-family="Times,serif" font-size="14.00">3</text>
</g>
<!-- np3.AllocEntity -->
<g id="node5" class="node">
<title>np3.AllocEntity</title>
<g id="a_node5"><a xlink:href="np3.AllocEntity.svg" xlink:title="np3.AllocEntity">
<ellipse fill="green" stroke="black" cx="659.44" cy="-18" rx="82.59" ry="18"/>
<text text-anchor="middle" x="659.44" y="-14.3" font-family="Times,serif" font-size="14.00">np3.AllocEntity</text>
</a>
</g>
</g>
<!-- np3.EntityStairwayPiece&#45;&gt;np3.AllocEntity -->
<g id="edge4" class="edge">
<title>np3.EntityStairwayPiece&#45;&gt;np3.AllocEntity</title>
<path fill="none" stroke="black" d="M999.83,-180.57C930.8,-147.81 776.22,-74.43 701.49,-38.96"/>
<polygon fill="black" stroke="black" points="702.89,-35.75 692.35,-34.62 699.88,-42.07 702.89,-35.75"/>
<text text-anchor="middle" x="687.35" y="-38.42" font-family="Times,serif" font-size="14.00">4</text>
</g>
<!-- np3.CreateEntityFromEntity -->
<g id="node6" class="node">
<title>np3.CreateEntityFromEntity</title>
<g id="a_node6"><a xlink:href="np3.CreateEntityFromEntity.svg" xlink:title="np3.CreateEntityFromEntity">
<ellipse fill="green" stroke="black" cx="904.44" cy="-18" rx="144.87" ry="18"/>
<text text-anchor="middle" x="904.44" y="-14.3" font-family="Times,serif" font-size="14.00">np3.CreateEntityFromEntity</text>
</a>
</g>
</g>
<!-- np3.EntityStairwayPiece&#45;&gt;np3.CreateEntityFromEntity -->
<g id="edge5" class="edge">
<title>np3.EntityStairwayPiece&#45;&gt;np3.CreateEntityFromEntity</title>
<path fill="none" stroke="black" d="M1021.98,-179.93C998.97,-148.43 949.75,-81.03 922.88,-44.24"/>
<polygon fill="black" stroke="black" points="925.59,-42.03 916.87,-36.02 919.94,-46.16 925.59,-42.03"/>
<text text-anchor="middle" x="911.87" y="-39.82" font-family="Times,serif" font-size="14.00">4</text>
</g>
<!-- np3.DestroyEntity -->
<g id="node7" class="node">
<title>np3.DestroyEntity</title>
<g id="a_node7"><a xlink:href="np3.DestroyEntity.svg" xlink:title="np3.DestroyEntity">
<ellipse fill="green" stroke="black" cx="1164.44" cy="-18" rx="96.68" ry="18"/>
<text text-anchor="middle" x="1164.44" y="-14.3" font-family="Times,serif" font-size="14.00">np3.DestroyEntity</text>
</a>
</g>
</g>
<!-- np3.EntityStairwayPiece&#45;&gt;np3.DestroyEntity -->
<g id="edge6" class="edge">
<title>np3.EntityStairwayPiece&#45;&gt;np3.DestroyEntity</title>
<path fill="none" stroke="black" d="M1046.91,-179.93C1069.91,-148.43 1119.14,-81.03 1146.01,-44.24"/>
<polygon fill="black" stroke="black" points="1148.94,-46.16 1152.01,-36.02 1143.29,-42.03 1148.94,-46.16"/>
<text text-anchor="middle" x="1147.01" y="-39.82" font-family="Times,serif" font-size="14.00">1</text>
</g>
<!-- np3.InitializeEntity -->
<g id="node8" class="node">
<title>np3.InitializeEntity</title>
<g id="a_node8"><a xlink:href="np3.InitializeEntity.svg" xlink:title="np3.InitializeEntity">
<ellipse fill="green" stroke="black" cx="1380.44" cy="-18" rx="100.98" ry="18"/>
<text text-anchor="middle" x="1380.44" y="-14.3" font-family="Times,serif" font-size="14.00">np3.InitializeEntity</text>
</a>
</g>
</g>
<!-- np3.EntityStairwayPiece&#45;&gt;np3.InitializeEntity -->
<g id="edge7" class="edge">
<title>np3.EntityStairwayPiece&#45;&gt;np3.InitializeEntity</title>
<path fill="none" stroke="black" d="M1066.37,-180.57C1129.61,-148.04 1270.68,-75.47 1340.17,-39.72"/>
<polygon fill="black" stroke="black" points="1341.8,-42.82 1349.09,-35.13 1338.59,-36.59 1341.8,-42.82"/>
<text text-anchor="middle" x="1344.09" y="-38.93" font-family="Times,serif" font-size="14.00">1</text>
</g>
<!-- np3.Random -->
<g id="node9" class="node">
<title>np3.Random</title>
<g id="a_node9"><a xlink:href="np3.Random.svg" xlink:title="np3.Random">
<ellipse fill="green" stroke="black" cx="1568.44" cy="-18" rx="69.59" ry="18"/>
<text text-anchor="middle" x="1568.44" y="-14.3" font-family="Times,serif" font-size="14.00">np3.Random</text>
</a>
</g>
</g>
<!-- np3.EntityStairwayPiece&#45;&gt;np3.Random -->
<g id="edge8" class="edge">
<title>np3.EntityStairwayPiece&#45;&gt;np3.Random</title>
<path fill="none" stroke="black" d="M1081.83,-181.2C1182.1,-147.78 1414.96,-70.16 1517.92,-35.84"/>
<polygon fill="black" stroke="black" points="1519.09,-39.14 1527.47,-32.66 1516.88,-32.5 1519.09,-39.14"/>
<text text-anchor="middle" x="1522.47" y="-36.46" font-family="Times,serif" font-size="14.00">1</text>
</g>
<!-- np3.func_801D1F38 -->
<g id="node10" class="node">
<title>np3.func_801D1F38</title>
<g id="a_node10"><a xlink:href="np3.func_801D1F38.svg" xlink:title="np3.func_801D1F38">
<ellipse fill="red" stroke="black" cx="1760.44" cy="-18" rx="104.78" ry="18"/>
<text text-anchor="middle" x="1760.44" y="-14.3" font-family="Times,serif" font-size="14.00">np3.func_801D1F38</text>
</a>
</g>
</g>
<!-- np3.EntityStairwayPiece&#45;&gt;np3.func_801D1F38 -->
<g id="edge9" class="edge">
<title>np3.EntityStairwayPiece&#45;&gt;np3.func_801D1F38</title>
<path fill="none" stroke="black" d="M1095.09,-182.13C1229.71,-149.12 1552.65,-69.95 1693.2,-35.49"/>
<polygon fill="black" stroke="black" points="1694.12,-38.87 1703,-33.08 1692.45,-32.07 1694.12,-38.87"/>
<text text-anchor="middle" x="1698" y="-36.88" font-family="Times,serif" font-size="14.00">1</text>
</g>
<!-- np3.func_801D2684 -->
<g id="node11" class="node">
<title>np3.func_801D2684</title>
<g id="a_node11"><a xlink:href="np3.func_801D2684.svg" xlink:title="np3.func_801D2684">
<ellipse fill="green" stroke="black" cx="1987.44" cy="-18" rx="103.98" ry="18"/>
<text text-anchor="middle" x="1987.44" y="-14.3" font-family="Times,serif" font-size="14.00">np3.func_801D2684</text>
</a>
</g>
</g>
<!-- np3.EntityStairwayPiece&#45;&gt;np3.func_801D2684 -->
<g id="edge10" class="edge">
<title>np3.EntityStairwayPiece&#45;&gt;np3.func_801D2684</title>
<path fill="none" stroke="black" d="M1107.64,-183.33C1283.56,-150.47 1728.87,-67.3 1909.51,-33.56"/>
<polygon fill="black" stroke="black" points="1910.28,-36.97 1919.47,-31.7 1909,-30.09 1910.28,-36.97"/>
<text text-anchor="middle" x="1914.47" y="-35.5" font-family="Times,serif" font-size="14.00">1</text>
</g>
</g>
</svg>
