<?xml version="1.0" encoding="UTF-8" standalone="no"?>
<!DOCTYPE svg PUBLIC "-//W3C//DTD SVG 1.1//EN"
 "http://www.w3.org/Graphics/SVG/1.1/DTD/svg11.dtd">
<!-- Generated by graphviz version 2.43.0 (0)
 -->
<!-- Title: np3.EntitySoulStealOrb Pages: 1 -->
<svg width="1889pt" height="224pt"
 viewBox="0.00 0.00 1889.23 224.00" xmlns="http://www.w3.org/2000/svg" xmlns:xlink="http://www.w3.org/1999/xlink">
<g id="graph0" class="graph" transform="scale(1 1) rotate(0) translate(4 220)">
<title>np3.EntitySoulStealOrb</title>
<polygon fill="white" stroke="transparent" points="-4,4 -4,-220 1885.23,-220 1885.23,4 -4,4"/>
<!-- np3.EntitySoulStealOrb -->
<g id="node1" class="node">
<title>np3.EntitySoulStealOrb</title>
<ellipse fill="green" stroke="black" cx="916.44" cy="-198" rx="122.38" ry="18"/>
<text text-anchor="middle" x="916.44" y="-194.3" font-family="Times,serif" font-size="14.00">np3.EntitySoulStealOrb</text>
</g>
<!-- dra.AllocPrimitives -->
<g id="node2" class="node">
<title>dra.AllocPrimitives</title>
<g id="a_node2"><a xlink:href="dra.AllocPrimitives.svg" xlink:title="dra.AllocPrimitives">
<ellipse fill="green" stroke="black" cx="99.44" cy="-18" rx="99.38" ry="18"/>
<text text-anchor="middle" x="99.44" y="-14.3" font-family="Times,serif" font-size="14.00">dra.AllocPrimitives</text>
</a>
</g>
</g>
<!-- np3.EntitySoulStealOrb&#45;&gt;dra.AllocPrimitives -->
<g id="edge1" class="edge">
<title>np3.EntitySoulStealOrb&#45;&gt;dra.AllocPrimitives</title>
<path fill="none" stroke="black" d="M850.96,-182.73C699.7,-149.78 326.98,-68.57 170.46,-34.47"/>
<polygon fill="black" stroke="black" points="170.98,-31.01 160.47,-32.3 169.49,-37.84 170.98,-31.01"/>
<text text-anchor="middle" x="155.47" y="-36.1" font-family="Times,serif" font-size="14.00">1</text>
</g>
<!-- np3.InitializeEntity -->
<g id="node3" class="node">
<title>np3.InitializeEntity</title>
<g id="a_node3"><a xlink:href="np3.InitializeEntity.svg" xlink:title="np3.InitializeEntity">
<ellipse fill="green" stroke="black" cx="317.44" cy="-18" rx="100.98" ry="18"/>
<text text-anchor="middle" x="317.44" y="-14.3" font-family="Times,serif" font-size="14.00">np3.InitializeEntity</text>
</a>
</g>
</g>
<!-- np3.EntitySoulStealOrb&#45;&gt;np3.InitializeEntity -->
<g id="edge2" class="edge">
<title>np3.EntitySoulStealOrb&#45;&gt;np3.InitializeEntity</title>
<path fill="none" stroke="black" d="M864.85,-181.67C754.14,-148.77 494.32,-71.56 376.9,-36.67"/>
<polygon fill="black" stroke="black" points="377.59,-33.22 367.01,-33.73 375.6,-39.93 377.59,-33.22"/>
<text text-anchor="middle" x="362.01" y="-37.53" font-family="Times,serif" font-size="14.00">1</text>
</g>
<!-- np3.func_801BD034 -->
<g id="node4" class="node">
<title>np3.func_801BD034</title>
<g id="a_node4"><a xlink:href="np3.func_801BD034.svg" xlink:title="np3.func_801BD034">
<ellipse fill="green" stroke="black" cx="540.44" cy="-18" rx="104.78" ry="18"/>
<text text-anchor="middle" x="540.44" y="-14.3" font-family="Times,serif" font-size="14.00">np3.func_801BD034</text>
</a>
</g>
</g>
<!-- np3.EntitySoulStealOrb&#45;&gt;np3.func_801BD034 -->
<g id="edge3" class="edge">
<title>np3.EntitySoulStealOrb&#45;&gt;np3.func_801BD034</title>
<path fill="none" stroke="black" d="M881.74,-180.57C812.88,-147.97 659.09,-75.17 583.74,-39.5"/>
<polygon fill="black" stroke="black" points="585.05,-36.25 574.51,-35.13 582.05,-42.57 585.05,-36.25"/>
<text text-anchor="middle" x="569.51" y="-38.93" font-family="Times,serif" font-size="14.00">2</text>
</g>
<!-- np3.Random -->
<g id="node5" class="node">
<title>np3.Random</title>
<g id="a_node5"><a xlink:href="np3.Random.svg" xlink:title="np3.Random">
<ellipse fill="green" stroke="black" cx="732.44" cy="-18" rx="69.59" ry="18"/>
<text text-anchor="middle" x="732.44" y="-14.3" font-family="Times,serif" font-size="14.00">np3.Random</text>
</a>
</g>
</g>
<!-- np3.EntitySoulStealOrb&#45;&gt;np3.Random -->
<g id="edge4" class="edge">
<title>np3.EntitySoulStealOrb&#45;&gt;np3.Random</title>
<path fill="none" stroke="black" d="M898.8,-179.93C865.8,-148.01 794.66,-79.19 757,-42.76"/>
<polygon fill="black" stroke="black" points="759.12,-39.93 749.49,-35.5 754.25,-44.97 759.12,-39.93"/>
<text text-anchor="middle" x="744.49" y="-39.3" font-family="Times,serif" font-size="14.00">2</text>
</g>
<!-- np3.DestroyEntity -->
<g id="node6" class="node">
<title>np3.DestroyEntity</title>
<g id="a_node6"><a xlink:href="np3.DestroyEntity.svg" xlink:title="np3.DestroyEntity">
<ellipse fill="green" stroke="black" cx="916.44" cy="-18" rx="96.68" ry="18"/>
<text text-anchor="middle" x="916.44" y="-14.3" font-family="Times,serif" font-size="14.00">np3.DestroyEntity</text>
</a>
</g>
</g>
<!-- np3.EntitySoulStealOrb&#45;&gt;np3.DestroyEntity -->
<g id="edge5" class="edge">
<title>np3.EntitySoulStealOrb&#45;&gt;np3.DestroyEntity</title>
<path fill="none" stroke="black" d="M916.44,-179.93C916.44,-148.97 916.44,-83.3 916.44,-46.13"/>
<polygon fill="black" stroke="black" points="919.94,-46.02 916.44,-36.02 912.94,-46.02 919.94,-46.02"/>
<text text-anchor="middle" x="911.44" y="-39.82" font-family="Times,serif" font-size="14.00">1</text>
</g>
<!-- np3.func_801BD0B4 -->
<g id="node7" class="node">
<title>np3.func_801BD0B4</title>
<g id="a_node7"><a xlink:href="np3.func_801BD0B4.svg" xlink:title="np3.func_801BD0B4">
<ellipse fill="green" stroke="black" cx="1137.44" cy="-18" rx="105.88" ry="18"/>
<text text-anchor="middle" x="1137.44" y="-14.3" font-family="Times,serif" font-size="14.00">np3.func_801BD0B4</text>
</a>
</g>
</g>
<!-- np3.EntitySoulStealOrb&#45;&gt;np3.func_801BD0B4 -->
<g id="edge6" class="edge">
<title>np3.EntitySoulStealOrb&#45;&gt;np3.func_801BD0B4</title>
<path fill="none" stroke="black" d="M937.23,-180.25C976.89,-148.32 1063.39,-78.65 1108.6,-42.23"/>
<polygon fill="black" stroke="black" points="1110.95,-44.83 1116.54,-35.83 1106.56,-39.38 1110.95,-44.83"/>
<text text-anchor="middle" x="1111.54" y="-39.63" font-family="Times,serif" font-size="14.00">1</text>
</g>
<!-- np3.UnkEntityFunc0 -->
<g id="node8" class="node">
<title>np3.UnkEntityFunc0</title>
<g id="a_node8"><a xlink:href="np3.UnkEntityFunc0.svg" xlink:title="np3.UnkEntityFunc0">
<ellipse fill="green" stroke="black" cx="1369.44" cy="-18" rx="107.78" ry="18"/>
<text text-anchor="middle" x="1369.44" y="-14.3" font-family="Times,serif" font-size="14.00">np3.UnkEntityFunc0</text>
</a>
</g>
</g>
<!-- np3.EntitySoulStealOrb&#45;&gt;np3.UnkEntityFunc0 -->
<g id="edge7" class="edge">
<title>np3.EntitySoulStealOrb&#45;&gt;np3.UnkEntityFunc0</title>
<path fill="none" stroke="black" d="M957.44,-180.89C1040.76,-148.15 1229.58,-73.95 1319.73,-38.53"/>
<polygon fill="black" stroke="black" points="1321.16,-41.73 1329.19,-34.82 1318.6,-35.22 1321.16,-41.73"/>
<text text-anchor="middle" x="1324.19" y="-38.62" font-family="Times,serif" font-size="14.00">1</text>
</g>
<!-- np3.MoveEntity -->
<g id="node9" class="node">
<title>np3.MoveEntity</title>
<g id="a_node9"><a xlink:href="np3.MoveEntity.svg" xlink:title="np3.MoveEntity">
<ellipse fill="green" stroke="black" cx="1580.44" cy="-18" rx="85.29" ry="18"/>
<text text-anchor="middle" x="1580.44" y="-14.3" font-family="Times,serif" font-size="14.00">np3.MoveEntity</text>
</a>
</g>
</g>
<!-- np3.EntitySoulStealOrb&#45;&gt;np3.MoveEntity -->
<g id="edge8" class="edge">
<title>np3.EntitySoulStealOrb&#45;&gt;np3.MoveEntity</title>
<path fill="none" stroke="black" d="M972.48,-181.98C1096.23,-148.8 1391.94,-69.53 1519.82,-35.25"/>
<polygon fill="black" stroke="black" points="1521.08,-38.54 1529.83,-32.57 1519.26,-31.78 1521.08,-38.54"/>
<text text-anchor="middle" x="1524.83" y="-36.37" font-family="Times,serif" font-size="14.00">1</text>
</g>
<!-- np3.AnimateEntity -->
<g id="node10" class="node">
<title>np3.AnimateEntity</title>
<g id="a_node10"><a xlink:href="np3.AnimateEntity.svg" xlink:title="np3.AnimateEntity">
<ellipse fill="green" stroke="black" cx="1782.44" cy="-18" rx="98.58" ry="18"/>
<text text-anchor="middle" x="1782.44" y="-14.3" font-family="Times,serif" font-size="14.00">np3.AnimateEntity</text>
</a>
</g>
</g>
<!-- np3.EntitySoulStealOrb&#45;&gt;np3.AnimateEntity -->
<g id="edge9" class="edge">
<title>np3.EntitySoulStealOrb&#45;&gt;np3.AnimateEntity</title>
<path fill="none" stroke="black" d="M984.39,-183.03C1144.52,-150.12 1544.43,-67.92 1709.45,-34"/>
<polygon fill="black" stroke="black" points="1710.42,-37.38 1719.51,-31.94 1709.01,-30.52 1710.42,-37.38"/>
<text text-anchor="middle" x="1714.51" y="-35.74" font-family="Times,serif" font-size="14.00">1</text>
</g>
</g>
</svg>
