<?xml version="1.0" encoding="UTF-8" standalone="no"?>
<!DOCTYPE svg PUBLIC "-//W3C//DTD SVG 1.1//EN"
 "http://www.w3.org/Graphics/SVG/1.1/DTD/svg11.dtd">
<!-- Generated by graphviz version 2.43.0 (0)
 -->
<!-- Title: np3.EntityUnkId0E Pages: 1 -->
<svg width="1156pt" height="224pt"
 viewBox="0.00 0.00 1156.28 224.00" xmlns="http://www.w3.org/2000/svg" xmlns:xlink="http://www.w3.org/1999/xlink">
<g id="graph0" class="graph" transform="scale(1 1) rotate(0) translate(4 220)">
<title>np3.EntityUnkId0E</title>
<polygon fill="white" stroke="transparent" points="-4,4 -4,-220 1152.28,-220 1152.28,4 -4,4"/>
<!-- np3.EntityUnkId0E -->
<g id="node1" class="node">
<title>np3.EntityUnkId0E</title>
<ellipse fill="red" stroke="black" cx="494.34" cy="-198" rx="100.98" ry="18"/>
<text text-anchor="middle" x="494.34" y="-194.3" font-family="Times,serif" font-size="14.00">np3.EntityUnkId0E</text>
</g>
<!-- ClearImage -->
<g id="node2" class="node">
<title>ClearImage</title>
<g id="a_node2"><a xlink:href="ClearImage.svg" xlink:title="ClearImage">
<ellipse fill="lightblue" stroke="black" cx="64.34" cy="-18" rx="64.19" ry="18"/>
<text text-anchor="middle" x="64.34" y="-14.3" font-family="Times,serif" font-size="14.00">ClearImage</text>
</a>
</g>
</g>
<!-- np3.EntityUnkId0E&#45;&gt;ClearImage -->
<g id="edge1" class="edge">
<title>np3.EntityUnkId0E&#45;&gt;ClearImage</title>
<path fill="none" stroke="black" d="M456.18,-181.2C376.43,-148.19 192.49,-72.05 108.1,-37.11"/>
<polygon fill="black" stroke="black" points="109.38,-33.85 98.8,-33.26 106.7,-40.32 109.38,-33.85"/>
<text text-anchor="middle" x="93.8" y="-37.06" font-family="Times,serif" font-size="14.00">1</text>
</g>
<!-- LoadTPage -->
<g id="node3" class="node">
<title>LoadTPage</title>
<g id="a_node3"><a xlink:href="LoadTPage.svg" xlink:title="LoadTPage">
<ellipse fill="lightblue" stroke="black" cx="208.34" cy="-18" rx="61.99" ry="18"/>
<text text-anchor="middle" x="208.34" y="-14.3" font-family="Times,serif" font-size="14.00">LoadTPage</text>
</a>
</g>
</g>
<!-- np3.EntityUnkId0E&#45;&gt;LoadTPage -->
<g id="edge2" class="edge">
<title>np3.EntityUnkId0E&#45;&gt;LoadTPage</title>
<path fill="none" stroke="black" d="M467.95,-180.57C415.84,-148.14 299.8,-75.92 242.17,-40.05"/>
<polygon fill="black" stroke="black" points="243.78,-36.93 233.44,-34.62 240.08,-42.88 243.78,-36.93"/>
<text text-anchor="middle" x="228.44" y="-38.42" font-family="Times,serif" font-size="14.00">1</text>
</g>
<!-- dra.AllocPrimitives -->
<g id="node4" class="node">
<title>dra.AllocPrimitives</title>
<g id="a_node4"><a xlink:href="dra.AllocPrimitives.svg" xlink:title="dra.AllocPrimitives">
<ellipse fill="green" stroke="black" cx="387.34" cy="-18" rx="99.38" ry="18"/>
<text text-anchor="middle" x="387.34" y="-14.3" font-family="Times,serif" font-size="14.00">dra.AllocPrimitives</text>
</a>
</g>
</g>
<!-- np3.EntityUnkId0E&#45;&gt;dra.AllocPrimitives -->
<g id="edge3" class="edge">
<title>np3.EntityUnkId0E&#45;&gt;dra.AllocPrimitives</title>
<path fill="none" stroke="black" d="M484.08,-179.93C465.23,-148.57 424.98,-81.6 402.8,-44.71"/>
<polygon fill="black" stroke="black" points="405.72,-42.78 397.57,-36.02 399.73,-46.39 405.72,-42.78"/>
<text text-anchor="middle" x="392.57" y="-39.82" font-family="Times,serif" font-size="14.00">1</text>
</g>
<!-- np3.DestroyEntity -->
<g id="node5" class="node">
<title>np3.DestroyEntity</title>
<g id="a_node5"><a xlink:href="np3.DestroyEntity.svg" xlink:title="np3.DestroyEntity">
<ellipse fill="green" stroke="black" cx="601.34" cy="-18" rx="96.68" ry="18"/>
<text text-anchor="middle" x="601.34" y="-14.3" font-family="Times,serif" font-size="14.00">np3.DestroyEntity</text>
</a>
</g>
</g>
<!-- np3.EntityUnkId0E&#45;&gt;np3.DestroyEntity -->
<g id="edge4" class="edge">
<title>np3.EntityUnkId0E&#45;&gt;np3.DestroyEntity</title>
<path fill="none" stroke="black" d="M504.6,-179.93C523.46,-148.57 563.71,-81.6 585.89,-44.71"/>
<polygon fill="black" stroke="black" points="588.96,-46.39 591.12,-36.02 582.96,-42.78 588.96,-46.39"/>
<text text-anchor="middle" x="586.12" y="-39.82" font-family="Times,serif" font-size="14.00">1</text>
</g>
<!-- np3.InitializeEntity -->
<g id="node6" class="node">
<title>np3.InitializeEntity</title>
<g id="a_node6"><a xlink:href="np3.InitializeEntity.svg" xlink:title="np3.InitializeEntity">
<ellipse fill="green" stroke="black" cx="817.34" cy="-18" rx="100.98" ry="18"/>
<text text-anchor="middle" x="817.34" y="-14.3" font-family="Times,serif" font-size="14.00">np3.InitializeEntity</text>
</a>
</g>
</g>
<!-- np3.EntityUnkId0E&#45;&gt;np3.InitializeEntity -->
<g id="edge5" class="edge">
<title>np3.EntityUnkId0E&#45;&gt;np3.InitializeEntity</title>
<path fill="none" stroke="black" d="M523.86,-180.73C582.47,-148.44 713.46,-76.25 778.78,-40.25"/>
<polygon fill="black" stroke="black" points="780.47,-43.32 787.54,-35.42 777.09,-37.18 780.47,-43.32"/>
<text text-anchor="middle" x="782.54" y="-39.22" font-family="Times,serif" font-size="14.00">1</text>
</g>
<!-- np3.func_801BEEF0 -->
<g id="node7" class="node">
<title>np3.func_801BEEF0</title>
<g id="a_node7"><a xlink:href="np3.func_801BEEF0.svg" xlink:title="np3.func_801BEEF0">
<ellipse fill="red" stroke="black" cx="1042.34" cy="-18" rx="105.88" ry="18"/>
<text text-anchor="middle" x="1042.34" y="-14.3" font-family="Times,serif" font-size="14.00">np3.func_801BEEF0</text>
</a>
</g>
</g>
<!-- np3.EntityUnkId0E&#45;&gt;np3.func_801BEEF0 -->
<g id="edge6" class="edge">
<title>np3.EntityUnkId0E&#45;&gt;np3.func_801BEEF0</title>
<path fill="none" stroke="black" d="M540.59,-181.98C640.68,-149.47 877.1,-72.67 985.83,-37.36"/>
<polygon fill="black" stroke="black" points="987.21,-40.59 995.64,-34.17 985.04,-33.93 987.21,-40.59"/>
<text text-anchor="middle" x="990.64" y="-37.97" font-family="Times,serif" font-size="14.00">1</text>
</g>
</g>
</svg>
