<?xml version="1.0" encoding="UTF-8" standalone="no"?>
<!DOCTYPE svg PUBLIC "-//W3C//DTD SVG 1.1//EN"
 "http://www.w3.org/Graphics/SVG/1.1/DTD/svg11.dtd">
<!-- Generated by graphviz version 2.43.0 (0)
 -->
<!-- Title: np3.func_801C4DCC Pages: 1 -->
<svg width="1609pt" height="224pt"
 viewBox="0.00 0.00 1608.58 224.00" xmlns="http://www.w3.org/2000/svg" xmlns:xlink="http://www.w3.org/1999/xlink">
<g id="graph0" class="graph" transform="scale(1 1) rotate(0) translate(4 220)">
<title>np3.func_801C4DCC</title>
<polygon fill="white" stroke="transparent" points="-4,4 -4,-220 1604.58,-220 1604.58,4 -4,4"/>
<!-- np3.func_801C4DCC -->
<g id="node1" class="node">
<title>np3.func_801C4DCC</title>
<ellipse fill="red" stroke="black" cx="737.74" cy="-198" rx="106.68" ry="18"/>
<text text-anchor="middle" x="737.74" y="-194.3" font-family="Times,serif" font-size="14.00">np3.func_801C4DCC</text>
</g>
<!-- np3.InitializeEntity -->
<g id="node2" class="node">
<title>np3.InitializeEntity</title>
<g id="a_node2"><a xlink:href="np3.InitializeEntity.svg" xlink:title="np3.InitializeEntity">
<ellipse fill="green" stroke="black" cx="100.74" cy="-18" rx="100.98" ry="18"/>
<text text-anchor="middle" x="100.74" y="-14.3" font-family="Times,serif" font-size="14.00">np3.InitializeEntity</text>
</a>
</g>
</g>
<!-- np3.func_801C4DCC&#45;&gt;np3.InitializeEntity -->
<g id="edge1" class="edge">
<title>np3.func_801C4DCC&#45;&gt;np3.InitializeEntity</title>
<path fill="none" stroke="black" d="M685.07,-182.28C568.11,-149.6 287.24,-71.11 162.38,-36.22"/>
<polygon fill="black" stroke="black" points="163.15,-32.81 152.58,-33.49 161.27,-39.55 163.15,-32.81"/>
<text text-anchor="middle" x="147.58" y="-37.29" font-family="Times,serif" font-size="14.00">1</text>
</g>
<!-- dra.AllocPrimitives -->
<g id="node3" class="node">
<title>dra.AllocPrimitives</title>
<g id="a_node3"><a xlink:href="dra.AllocPrimitives.svg" xlink:title="dra.AllocPrimitives">
<ellipse fill="green" stroke="black" cx="318.74" cy="-18" rx="99.38" ry="18"/>
<text text-anchor="middle" x="318.74" y="-14.3" font-family="Times,serif" font-size="14.00">dra.AllocPrimitives</text>
</a>
</g>
</g>
<!-- np3.func_801C4DCC&#45;&gt;dra.AllocPrimitives -->
<g id="edge2" class="edge">
<title>np3.func_801C4DCC&#45;&gt;dra.AllocPrimitives</title>
<path fill="none" stroke="black" d="M700.19,-181.05C623.4,-148.43 448.64,-74.19 365.01,-38.66"/>
<polygon fill="black" stroke="black" points="366.33,-35.41 355.76,-34.73 363.59,-41.86 366.33,-35.41"/>
<text text-anchor="middle" x="350.76" y="-38.53" font-family="Times,serif" font-size="14.00">1</text>
</g>
<!-- dra.func_80134714 -->
<g id="node4" class="node">
<title>dra.func_80134714</title>
<g id="a_node4"><a xlink:href="dra.func_80134714.svg" xlink:title="dra.func_80134714">
<ellipse fill="green" stroke="black" cx="536.74" cy="-18" rx="100.98" ry="18"/>
<text text-anchor="middle" x="536.74" y="-14.3" font-family="Times,serif" font-size="14.00">dra.func_80134714</text>
</a>
</g>
</g>
<!-- np3.func_801C4DCC&#45;&gt;dra.func_80134714 -->
<g id="edge3" class="edge">
<title>np3.func_801C4DCC&#45;&gt;dra.func_80134714</title>
<path fill="none" stroke="black" d="M718.83,-180.25C682.92,-148.45 604.75,-79.22 563.48,-42.68"/>
<polygon fill="black" stroke="black" points="565.55,-39.84 555.75,-35.83 560.91,-45.08 565.55,-39.84"/>
<text text-anchor="middle" x="550.75" y="-39.63" font-family="Times,serif" font-size="14.00">1</text>
</g>
<!-- np3.AllocEntity -->
<g id="node5" class="node">
<title>np3.AllocEntity</title>
<g id="a_node5"><a xlink:href="np3.AllocEntity.svg" xlink:title="np3.AllocEntity">
<ellipse fill="green" stroke="black" cx="737.74" cy="-18" rx="82.59" ry="18"/>
<text text-anchor="middle" x="737.74" y="-14.3" font-family="Times,serif" font-size="14.00">np3.AllocEntity</text>
</a>
</g>
</g>
<!-- np3.func_801C4DCC&#45;&gt;np3.AllocEntity -->
<g id="edge4" class="edge">
<title>np3.func_801C4DCC&#45;&gt;np3.AllocEntity</title>
<path fill="none" stroke="black" d="M737.74,-179.93C737.74,-148.97 737.74,-83.3 737.74,-46.13"/>
<polygon fill="black" stroke="black" points="741.24,-46.02 737.74,-36.02 734.24,-46.02 741.24,-46.02"/>
<text text-anchor="middle" x="732.74" y="-39.82" font-family="Times,serif" font-size="14.00">1</text>
</g>
<!-- np3.CreateEntityFromCurrentEntity -->
<g id="node6" class="node">
<title>np3.CreateEntityFromCurrentEntity</title>
<g id="a_node6"><a xlink:href="np3.CreateEntityFromCurrentEntity.svg" xlink:title="np3.CreateEntityFromCurrentEntity">
<ellipse fill="green" stroke="black" cx="1019.74" cy="-18" rx="181.17" ry="18"/>
<text text-anchor="middle" x="1019.74" y="-14.3" font-family="Times,serif" font-size="14.00">np3.CreateEntityFromCurrentEntity</text>
</a>
</g>
</g>
<!-- np3.func_801C4DCC&#45;&gt;np3.CreateEntityFromCurrentEntity -->
<g id="edge5" class="edge">
<title>np3.func_801C4DCC&#45;&gt;np3.CreateEntityFromCurrentEntity</title>
<path fill="none" stroke="black" d="M764.02,-180.41C814.89,-148.3 926.89,-77.61 984.29,-41.38"/>
<polygon fill="black" stroke="black" points="986.43,-44.17 993.02,-35.87 982.69,-38.25 986.43,-44.17"/>
<text text-anchor="middle" x="988.02" y="-39.67" font-family="Times,serif" font-size="14.00">1</text>
</g>
<!-- np3.MoveEntity -->
<g id="node7" class="node">
<title>np3.MoveEntity</title>
<g id="a_node7"><a xlink:href="np3.MoveEntity.svg" xlink:title="np3.MoveEntity">
<ellipse fill="green" stroke="black" cx="1303.74" cy="-18" rx="85.29" ry="18"/>
<text text-anchor="middle" x="1303.74" y="-14.3" font-family="Times,serif" font-size="14.00">np3.MoveEntity</text>
</a>
</g>
</g>
<!-- np3.func_801C4DCC&#45;&gt;np3.MoveEntity -->
<g id="edge6" class="edge">
<title>np3.func_801C4DCC&#45;&gt;np3.MoveEntity</title>
<path fill="none" stroke="black" d="M786,-181.82C890.71,-148.89 1138.21,-71.06 1248.75,-36.29"/>
<polygon fill="black" stroke="black" points="1249.89,-39.61 1258.38,-33.27 1247.79,-32.93 1249.89,-39.61"/>
<text text-anchor="middle" x="1253.38" y="-37.07" font-family="Times,serif" font-size="14.00">2</text>
</g>
<!-- np3.DestroyEntity -->
<g id="node8" class="node">
<title>np3.DestroyEntity</title>
<g id="a_node8"><a xlink:href="np3.DestroyEntity.svg" xlink:title="np3.DestroyEntity">
<ellipse fill="green" stroke="black" cx="1503.74" cy="-18" rx="96.68" ry="18"/>
<text text-anchor="middle" x="1503.74" y="-14.3" font-family="Times,serif" font-size="14.00">np3.DestroyEntity</text>
</a>
</g>
</g>
<!-- np3.func_801C4DCC&#45;&gt;np3.DestroyEntity -->
<g id="edge7" class="edge">
<title>np3.func_801C4DCC&#45;&gt;np3.DestroyEntity</title>
<path fill="none" stroke="black" d="M797.85,-183.03C938.43,-150.37 1287.94,-69.15 1435.88,-34.77"/>
<polygon fill="black" stroke="black" points="1436.8,-38.15 1445.75,-32.48 1435.22,-31.33 1436.8,-38.15"/>
<text text-anchor="middle" x="1440.75" y="-36.28" font-family="Times,serif" font-size="14.00">1</text>
</g>
</g>
</svg>
