<?xml version="1.0" encoding="UTF-8" standalone="no"?>
<!DOCTYPE svg PUBLIC "-//W3C//DTD SVG 1.1//EN"
 "http://www.w3.org/Graphics/SVG/1.1/DTD/svg11.dtd">
<!-- Generated by graphviz version 2.43.0 (0)
 -->
<!-- Title: np3.EntityPathBlockSmallWeight Pages: 1 -->
<svg width="1316pt" height="224pt"
 viewBox="0.00 0.00 1316.38 224.00" xmlns="http://www.w3.org/2000/svg" xmlns:xlink="http://www.w3.org/1999/xlink">
<g id="graph0" class="graph" transform="scale(1 1) rotate(0) translate(4 220)">
<title>np3.EntityPathBlockSmallWeight</title>
<polygon fill="white" stroke="transparent" points="-4,4 -4,-220 1312.38,-220 1312.38,4 -4,4"/>
<!-- np3.EntityPathBlockSmallWeight -->
<g id="node1" class="node">
<title>np3.EntityPathBlockSmallWeight</title>
<ellipse fill="green" stroke="black" cx="641.74" cy="-198" rx="165.17" ry="18"/>
<text text-anchor="middle" x="641.74" y="-194.3" font-family="Times,serif" font-size="14.00">np3.EntityPathBlockSmallWeight</text>
</g>
<!-- np3.InitializeEntity -->
<g id="node2" class="node">
<title>np3.InitializeEntity</title>
<g id="a_node2"><a xlink:href="np3.InitializeEntity.svg" xlink:title="np3.InitializeEntity">
<ellipse fill="green" stroke="black" cx="100.74" cy="-18" rx="100.98" ry="18"/>
<text text-anchor="middle" x="100.74" y="-14.3" font-family="Times,serif" font-size="14.00">np3.InitializeEntity</text>
</a>
</g>
</g>
<!-- np3.EntityPathBlockSmallWeight&#45;&gt;np3.InitializeEntity -->
<g id="edge1" class="edge">
<title>np3.EntityPathBlockSmallWeight&#45;&gt;np3.InitializeEntity</title>
<path fill="none" stroke="black" d="M592.3,-180.73C491.37,-147.53 262.26,-72.14 156.35,-37.3"/>
<polygon fill="black" stroke="black" points="157.39,-33.95 146.79,-34.15 155.2,-40.6 157.39,-33.95"/>
<text text-anchor="middle" x="141.79" y="-37.95" font-family="Times,serif" font-size="14.00">1</text>
</g>
<!-- dra.AllocPrimitives -->
<g id="node3" class="node">
<title>dra.AllocPrimitives</title>
<g id="a_node3"><a xlink:href="dra.AllocPrimitives.svg" xlink:title="dra.AllocPrimitives">
<ellipse fill="green" stroke="black" cx="318.74" cy="-18" rx="99.38" ry="18"/>
<text text-anchor="middle" x="318.74" y="-14.3" font-family="Times,serif" font-size="14.00">dra.AllocPrimitives</text>
</a>
</g>
</g>
<!-- np3.EntityPathBlockSmallWeight&#45;&gt;dra.AllocPrimitives -->
<g id="edge2" class="edge">
<title>np3.EntityPathBlockSmallWeight&#45;&gt;dra.AllocPrimitives</title>
<path fill="none" stroke="black" d="M611.35,-180.25C552.38,-147.75 422.5,-76.18 357.45,-40.33"/>
<polygon fill="black" stroke="black" points="358.79,-37.08 348.34,-35.31 355.41,-43.21 358.79,-37.08"/>
<text text-anchor="middle" x="343.34" y="-39.11" font-family="Times,serif" font-size="14.00">1</text>
</g>
<!-- np3.DestroyEntity -->
<g id="node4" class="node">
<title>np3.DestroyEntity</title>
<g id="a_node4"><a xlink:href="np3.DestroyEntity.svg" xlink:title="np3.DestroyEntity">
<ellipse fill="green" stroke="black" cx="532.74" cy="-18" rx="96.68" ry="18"/>
<text text-anchor="middle" x="532.74" y="-14.3" font-family="Times,serif" font-size="14.00">np3.DestroyEntity</text>
</a>
</g>
</g>
<!-- np3.EntityPathBlockSmallWeight&#45;&gt;np3.DestroyEntity -->
<g id="edge3" class="edge">
<title>np3.EntityPathBlockSmallWeight&#45;&gt;np3.DestroyEntity</title>
<path fill="none" stroke="black" d="M631.29,-179.93C612.08,-148.57 571.08,-81.6 548.48,-44.71"/>
<polygon fill="black" stroke="black" points="551.37,-42.72 543.16,-36.02 545.4,-46.37 551.37,-42.72"/>
<text text-anchor="middle" x="538.16" y="-39.82" font-family="Times,serif" font-size="14.00">1</text>
</g>
<!-- np3.func_801C2598 -->
<g id="node5" class="node">
<title>np3.func_801C2598</title>
<g id="a_node5"><a xlink:href="np3.func_801C2598.svg" xlink:title="np3.func_801C2598">
<ellipse fill="green" stroke="black" cx="750.74" cy="-18" rx="103.18" ry="18"/>
<text text-anchor="middle" x="750.74" y="-14.3" font-family="Times,serif" font-size="14.00">np3.func_801C2598</text>
</a>
</g>
</g>
<!-- np3.EntityPathBlockSmallWeight&#45;&gt;np3.func_801C2598 -->
<g id="edge4" class="edge">
<title>np3.EntityPathBlockSmallWeight&#45;&gt;np3.func_801C2598</title>
<path fill="none" stroke="black" d="M652.19,-179.93C671.4,-148.57 712.41,-81.6 735,-44.71"/>
<polygon fill="black" stroke="black" points="738.08,-46.37 740.32,-36.02 732.11,-42.72 738.08,-46.37"/>
<text text-anchor="middle" x="735.32" y="-39.82" font-family="Times,serif" font-size="14.00">1</text>
</g>
<!-- np3.func_801BD588 -->
<g id="node6" class="node">
<title>np3.func_801BD588</title>
<g id="a_node6"><a xlink:href="np3.func_801BD588.svg" xlink:title="np3.func_801BD588">
<ellipse fill="red" stroke="black" cx="976.74" cy="-18" rx="104.78" ry="18"/>
<text text-anchor="middle" x="976.74" y="-14.3" font-family="Times,serif" font-size="14.00">np3.func_801BD588</text>
</a>
</g>
</g>
<!-- np3.EntityPathBlockSmallWeight&#45;&gt;np3.func_801BD588 -->
<g id="edge5" class="edge">
<title>np3.EntityPathBlockSmallWeight&#45;&gt;np3.func_801BD588</title>
<path fill="none" stroke="black" d="M673.26,-180.25C734.55,-147.69 869.68,-75.89 937,-40.11"/>
<polygon fill="black" stroke="black" points="938.85,-43.1 946.04,-35.31 935.56,-36.92 938.85,-43.1"/>
<text text-anchor="middle" x="941.04" y="-39.11" font-family="Times,serif" font-size="14.00">1</text>
</g>
<!-- np3.func_801B44B4 -->
<g id="node7" class="node">
<title>np3.func_801B44B4</title>
<g id="a_node7"><a xlink:href="np3.func_801B44B4.svg" xlink:title="np3.func_801B44B4">
<ellipse fill="green" stroke="black" cx="1203.74" cy="-18" rx="104.78" ry="18"/>
<text text-anchor="middle" x="1203.74" y="-14.3" font-family="Times,serif" font-size="14.00">np3.func_801B44B4</text>
</a>
</g>
</g>
<!-- np3.EntityPathBlockSmallWeight&#45;&gt;np3.func_801B44B4 -->
<g id="edge6" class="edge">
<title>np3.EntityPathBlockSmallWeight&#45;&gt;np3.func_801B44B4</title>
<path fill="none" stroke="black" d="M693.1,-180.73C798.05,-147.49 1036.43,-71.99 1146.31,-37.19"/>
<polygon fill="black" stroke="black" points="1147.42,-40.51 1155.9,-34.15 1145.31,-33.84 1147.42,-40.51"/>
<text text-anchor="middle" x="1150.9" y="-37.95" font-family="Times,serif" font-size="14.00">1</text>
</g>
</g>
</svg>
