<?xml version="1.0" encoding="UTF-8" standalone="no"?>
<!DOCTYPE svg PUBLIC "-//W3C//DTD SVG 1.1//EN"
 "http://www.w3.org/Graphics/SVG/1.1/DTD/svg11.dtd">
<!-- Generated by graphviz version 2.43.0 (0)
 -->
<!-- Title: np3.EntitySoulStealOrb Pages: 1 -->
<svg width="1884pt" height="224pt"
 viewBox="0.00 0.00 1884.38 224.00" xmlns="http://www.w3.org/2000/svg" xmlns:xlink="http://www.w3.org/1999/xlink">
<g id="graph0" class="graph" transform="scale(1 1) rotate(0) translate(4 220)">
<title>np3.EntitySoulStealOrb</title>
<polygon fill="white" stroke="transparent" points="-4,4 -4,-220 1880.38,-220 1880.38,4 -4,4"/>
<!-- np3.EntitySoulStealOrb -->
<g id="node1" class="node">
<title>np3.EntitySoulStealOrb</title>
<ellipse fill="green" stroke="black" cx="949.44" cy="-198" rx="122.38" ry="18"/>
<text text-anchor="middle" x="949.44" y="-194.3" font-family="Times,serif" font-size="14.00">np3.EntitySoulStealOrb</text>
</g>
<!-- dra.AllocPrimitives -->
<g id="node2" class="node">
<title>dra.AllocPrimitives</title>
<g id="a_node2"><a xlink:href="dra.AllocPrimitives.svg" xlink:title="dra.AllocPrimitives">
<ellipse fill="green" stroke="black" cx="99.44" cy="-18" rx="99.38" ry="18"/>
<text text-anchor="middle" x="99.44" y="-14.3" font-family="Times,serif" font-size="14.00">dra.AllocPrimitives</text>
</a>
</g>
</g>
<!-- np3.EntitySoulStealOrb&#45;&gt;dra.AllocPrimitives -->
<g id="edge1" class="edge">
<title>np3.EntitySoulStealOrb&#45;&gt;dra.AllocPrimitives</title>
<path fill="none" stroke="black" d="M882.03,-182.88C724.63,-149.92 333.99,-68.12 171.81,-34.16"/>
<polygon fill="black" stroke="black" points="172.43,-30.71 161.93,-32.09 171,-37.56 172.43,-30.71"/>
<text text-anchor="middle" x="156.93" y="-35.89" font-family="Times,serif" font-size="14.00">1</text>
</g>
<!-- np3.AnimateEntity -->
<g id="node3" class="node">
<title>np3.AnimateEntity</title>
<g id="a_node3"><a xlink:href="np3.AnimateEntity.svg" xlink:title="np3.AnimateEntity">
<ellipse fill="green" stroke="black" cx="315.44" cy="-18" rx="98.58" ry="18"/>
<text text-anchor="middle" x="315.44" y="-14.3" font-family="Times,serif" font-size="14.00">np3.AnimateEntity</text>
</a>
</g>
</g>
<!-- np3.EntitySoulStealOrb&#45;&gt;np3.AnimateEntity -->
<g id="edge2" class="edge">
<title>np3.EntitySoulStealOrb&#45;&gt;np3.AnimateEntity</title>
<path fill="none" stroke="black" d="M895.39,-181.82C777.89,-148.84 499.88,-70.78 376.38,-36.11"/>
<polygon fill="black" stroke="black" points="377.27,-32.72 366.69,-33.39 375.38,-39.46 377.27,-32.72"/>
<text text-anchor="middle" x="361.69" y="-37.19" font-family="Times,serif" font-size="14.00">1</text>
</g>
<!-- np3.DestroyEntity -->
<g id="node4" class="node">
<title>np3.DestroyEntity</title>
<g id="a_node4"><a xlink:href="np3.DestroyEntity.svg" xlink:title="np3.DestroyEntity">
<ellipse fill="green" stroke="black" cx="529.44" cy="-18" rx="96.68" ry="18"/>
<text text-anchor="middle" x="529.44" y="-14.3" font-family="Times,serif" font-size="14.00">np3.DestroyEntity</text>
</a>
</g>
</g>
<!-- np3.EntitySoulStealOrb&#45;&gt;np3.DestroyEntity -->
<g id="edge3" class="edge">
<title>np3.EntitySoulStealOrb&#45;&gt;np3.DestroyEntity</title>
<path fill="none" stroke="black" d="M911.43,-180.89C834.24,-148.18 659.38,-74.07 575.72,-38.61"/>
<polygon fill="black" stroke="black" points="577.04,-35.37 566.46,-34.69 574.31,-41.82 577.04,-35.37"/>
<text text-anchor="middle" x="561.46" y="-38.49" font-family="Times,serif" font-size="14.00">1</text>
</g>
<!-- np3.InitializeEntity -->
<g id="node5" class="node">
<title>np3.InitializeEntity</title>
<g id="a_node5"><a xlink:href="np3.InitializeEntity.svg" xlink:title="np3.InitializeEntity">
<ellipse fill="green" stroke="black" cx="745.44" cy="-18" rx="100.98" ry="18"/>
<text text-anchor="middle" x="745.44" y="-14.3" font-family="Times,serif" font-size="14.00">np3.InitializeEntity</text>
</a>
</g>
</g>
<!-- np3.EntitySoulStealOrb&#45;&gt;np3.InitializeEntity -->
<g id="edge4" class="edge">
<title>np3.EntitySoulStealOrb&#45;&gt;np3.InitializeEntity</title>
<path fill="none" stroke="black" d="M929.88,-179.93C893.16,-147.89 813.84,-78.68 772.2,-42.35"/>
<polygon fill="black" stroke="black" points="774.48,-39.69 764.64,-35.76 769.88,-44.97 774.48,-39.69"/>
<text text-anchor="middle" x="759.64" y="-39.56" font-family="Times,serif" font-size="14.00">1</text>
</g>
<!-- np3.MoveEntity -->
<g id="node6" class="node">
<title>np3.MoveEntity</title>
<g id="a_node6"><a xlink:href="np3.MoveEntity.svg" xlink:title="np3.MoveEntity">
<ellipse fill="green" stroke="black" cx="949.44" cy="-18" rx="85.29" ry="18"/>
<text text-anchor="middle" x="949.44" y="-14.3" font-family="Times,serif" font-size="14.00">np3.MoveEntity</text>
</a>
</g>
</g>
<!-- np3.EntitySoulStealOrb&#45;&gt;np3.MoveEntity -->
<g id="edge5" class="edge">
<title>np3.EntitySoulStealOrb&#45;&gt;np3.MoveEntity</title>
<path fill="none" stroke="black" d="M949.44,-179.93C949.44,-148.97 949.44,-83.3 949.44,-46.13"/>
<polygon fill="black" stroke="black" points="952.94,-46.02 949.44,-36.02 945.94,-46.02 952.94,-46.02"/>
<text text-anchor="middle" x="944.44" y="-39.82" font-family="Times,serif" font-size="14.00">1</text>
</g>
<!-- np3.Random -->
<g id="node7" class="node">
<title>np3.Random</title>
<g id="a_node7"><a xlink:href="np3.Random.svg" xlink:title="np3.Random">
<ellipse fill="green" stroke="black" cx="1122.44" cy="-18" rx="69.59" ry="18"/>
<text text-anchor="middle" x="1122.44" y="-14.3" font-family="Times,serif" font-size="14.00">np3.Random</text>
</a>
</g>
</g>
<!-- np3.EntitySoulStealOrb&#45;&gt;np3.Random -->
<g id="edge6" class="edge">
<title>np3.EntitySoulStealOrb&#45;&gt;np3.Random</title>
<path fill="none" stroke="black" d="M966.03,-179.93C996.98,-148.09 1063.6,-79.54 1099.08,-43.04"/>
<polygon fill="black" stroke="black" points="1101.7,-45.37 1106.16,-35.76 1096.68,-40.49 1101.7,-45.37"/>
<text text-anchor="middle" x="1101.16" y="-39.56" font-family="Times,serif" font-size="14.00">2</text>
</g>
<!-- np3.func_801BCF78 -->
<g id="node8" class="node">
<title>np3.func_801BCF78</title>
<g id="a_node8"><a xlink:href="np3.func_801BCF78.svg" xlink:title="np3.func_801BCF78">
<ellipse fill="green" stroke="black" cx="1314.44" cy="-18" rx="104.78" ry="18"/>
<text text-anchor="middle" x="1314.44" y="-14.3" font-family="Times,serif" font-size="14.00">np3.func_801BCF78</text>
</a>
</g>
</g>
<!-- np3.EntitySoulStealOrb&#45;&gt;np3.func_801BCF78 -->
<g id="edge7" class="edge">
<title>np3.EntitySoulStealOrb&#45;&gt;np3.func_801BCF78</title>
<path fill="none" stroke="black" d="M983.13,-180.57C1049.84,-148.04 1198.65,-75.47 1271.96,-39.72"/>
<polygon fill="black" stroke="black" points="1273.91,-42.66 1281.37,-35.13 1270.84,-36.37 1273.91,-42.66"/>
<text text-anchor="middle" x="1276.37" y="-38.93" font-family="Times,serif" font-size="14.00">1</text>
</g>
<!-- np3.func_801BD034 -->
<g id="node9" class="node">
<title>np3.func_801BD034</title>
<g id="a_node9"><a xlink:href="np3.func_801BD034.svg" xlink:title="np3.func_801BD034">
<ellipse fill="green" stroke="black" cx="1541.44" cy="-18" rx="104.78" ry="18"/>
<text text-anchor="middle" x="1541.44" y="-14.3" font-family="Times,serif" font-size="14.00">np3.func_801BD034</text>
</a>
</g>
</g>
<!-- np3.EntitySoulStealOrb&#45;&gt;np3.func_801BD034 -->
<g id="edge8" class="edge">
<title>np3.EntitySoulStealOrb&#45;&gt;np3.func_801BD034</title>
<path fill="none" stroke="black" d="M1000.68,-181.59C1109.99,-148.73 1365.54,-71.89 1481.87,-36.91"/>
<polygon fill="black" stroke="black" points="1483.11,-40.19 1491.68,-33.96 1481.1,-33.49 1483.11,-40.19"/>
<text text-anchor="middle" x="1486.68" y="-37.76" font-family="Times,serif" font-size="14.00">2</text>
</g>
<!-- np3.func_801BD0B4 -->
<g id="node10" class="node">
<title>np3.func_801BD0B4</title>
<g id="a_node10"><a xlink:href="np3.func_801BD0B4.svg" xlink:title="np3.func_801BD0B4">
<ellipse fill="green" stroke="black" cx="1770.44" cy="-18" rx="105.88" ry="18"/>
<text text-anchor="middle" x="1770.44" y="-14.3" font-family="Times,serif" font-size="14.00">np3.func_801BD0B4</text>
</a>
</g>
</g>
<!-- np3.EntitySoulStealOrb&#45;&gt;np3.func_801BD0B4 -->
<g id="edge9" class="edge">
<title>np3.EntitySoulStealOrb&#45;&gt;np3.func_801BD0B4</title>
<path fill="none" stroke="black" d="M1015.24,-182.73C1166.78,-149.88 1539.5,-69.07 1697.62,-34.79"/>
<polygon fill="black" stroke="black" points="1698.69,-38.14 1707.72,-32.6 1697.21,-31.3 1698.69,-38.14"/>
<text text-anchor="middle" x="1702.72" y="-36.4" font-family="Times,serif" font-size="14.00">1</text>
</g>
</g>
</svg>
