<?xml version="1.0" encoding="UTF-8" standalone="no"?>
<!DOCTYPE svg PUBLIC "-//W3C//DTD SVG 1.1//EN"
 "http://www.w3.org/Graphics/SVG/1.1/DTD/svg11.dtd">
<!-- Generated by graphviz version 2.43.0 (0)
 -->
<!-- Title: np3.EntityFallingRock Pages: 1 -->
<svg width="1625pt" height="131pt"
 viewBox="0.00 0.00 1624.58 131.00" xmlns="http://www.w3.org/2000/svg" xmlns:xlink="http://www.w3.org/1999/xlink">
<g id="graph0" class="graph" transform="scale(1 1) rotate(0) translate(4 127)">
<title>np3.EntityFallingRock</title>
<polygon fill="white" stroke="transparent" points="-4,4 -4,-127 1620.58,-127 1620.58,4 -4,4"/>
<!-- np3.EntityFallingRock -->
<g id="node1" class="node">
<title>np3.EntityFallingRock</title>
<ellipse fill="green" stroke="black" cx="615.74" cy="-105" rx="114.28" ry="18"/>
<text text-anchor="middle" x="615.74" y="-101.3" font-family="Times,serif" font-size="14.00">np3.EntityFallingRock</text>
</g>
<!-- np3.InitializeEntity -->
<g id="node2" class="node">
<title>np3.InitializeEntity</title>
<g id="a_node2"><a xlink:href="np3.InitializeEntity.svg" xlink:title="np3.InitializeEntity">
<ellipse fill="green" stroke="black" cx="100.74" cy="-18" rx="100.98" ry="18"/>
<text text-anchor="middle" x="100.74" y="-14.3" font-family="Times,serif" font-size="14.00">np3.InitializeEntity</text>
</a>
</g>
</g>
<!-- np3.EntityFallingRock&#45;&gt;np3.InitializeEntity -->
<g id="edge1" class="edge">
<title>np3.EntityFallingRock&#45;&gt;np3.InitializeEntity</title>
<path fill="none" stroke="black" d="M540.03,-91.5C444.34,-75.71 280.29,-48.63 182.03,-32.42"/>
<polygon fill="black" stroke="black" points="182.58,-28.96 172.15,-30.79 181.44,-35.87 182.58,-28.96"/>
<text text-anchor="middle" x="394.74" y="-57.8" font-family="Times,serif" font-size="14.00">1</text>
</g>
<!-- np3.Random -->
<g id="node3" class="node">
<title>np3.Random</title>
<g id="a_node3"><a xlink:href="np3.Random.svg" xlink:title="np3.Random">
<ellipse fill="green" stroke="black" cx="288.74" cy="-18" rx="69.59" ry="18"/>
<text text-anchor="middle" x="288.74" y="-14.3" font-family="Times,serif" font-size="14.00">np3.Random</text>
</a>
</g>
</g>
<!-- np3.EntityFallingRock&#45;&gt;np3.Random -->
<g id="edge2" class="edge">
<title>np3.EntityFallingRock&#45;&gt;np3.Random</title>
<path fill="none" stroke="black" d="M558.06,-89.36C533.59,-83.13 504.76,-75.75 478.74,-69 433.88,-57.37 383.13,-44 345.36,-34.01"/>
<polygon fill="black" stroke="black" points="346.13,-30.6 335.57,-31.42 344.34,-37.36 346.13,-30.6"/>
<text text-anchor="middle" x="483.74" y="-57.8" font-family="Times,serif" font-size="14.00">2</text>
</g>
<!-- rcos -->
<g id="node4" class="node">
<title>rcos</title>
<g id="a_node4"><a xlink:href="rcos.svg" xlink:title="rcos">
<ellipse fill="lightblue" stroke="black" cx="406.74" cy="-18" rx="30.59" ry="18"/>
<text text-anchor="middle" x="406.74" y="-14.3" font-family="Times,serif" font-size="14.00">rcos</text>
</a>
</g>
</g>
<!-- np3.EntityFallingRock&#45;&gt;rcos -->
<g id="edge3" class="edge">
<title>np3.EntityFallingRock&#45;&gt;rcos</title>
<path fill="none" stroke="black" d="M575.07,-88.13C540.54,-74.57 489.74,-54.38 445.74,-36 443.9,-35.23 442.02,-34.44 440.11,-33.63"/>
<polygon fill="black" stroke="black" points="441.19,-30.28 430.62,-29.54 438.42,-36.71 441.19,-30.28"/>
<text text-anchor="middle" x="529.74" y="-57.8" font-family="Times,serif" font-size="14.00">1</text>
</g>
<!-- rsin -->
<g id="node5" class="node">
<title>rsin</title>
<g id="a_node5"><a xlink:href="rsin.svg" xlink:title="rsin">
<ellipse fill="lightblue" stroke="black" cx="483.74" cy="-18" rx="28.7" ry="18"/>
<text text-anchor="middle" x="483.74" y="-14.3" font-family="Times,serif" font-size="14.00">rsin</text>
</a>
</g>
</g>
<!-- np3.EntityFallingRock&#45;&gt;rsin -->
<g id="edge4" class="edge">
<title>np3.EntityFallingRock&#45;&gt;rsin</title>
<path fill="none" stroke="black" d="M589.98,-87.41C567.46,-72.91 534.83,-51.9 511.69,-36.99"/>
<polygon fill="black" stroke="black" points="513.32,-33.88 503.02,-31.41 509.53,-39.77 513.32,-33.88"/>
<text text-anchor="middle" x="562.74" y="-57.8" font-family="Times,serif" font-size="14.00">1</text>
</g>
<!-- np3.MoveEntity -->
<g id="node6" class="node">
<title>np3.MoveEntity</title>
<g id="a_node6"><a xlink:href="np3.MoveEntity.svg" xlink:title="np3.MoveEntity">
<ellipse fill="green" stroke="black" cx="615.74" cy="-18" rx="85.29" ry="18"/>
<text text-anchor="middle" x="615.74" y="-14.3" font-family="Times,serif" font-size="14.00">np3.MoveEntity</text>
</a>
</g>
</g>
<!-- np3.EntityFallingRock&#45;&gt;np3.MoveEntity -->
<g id="edge5" class="edge">
<title>np3.EntityFallingRock&#45;&gt;np3.MoveEntity</title>
<path fill="none" stroke="black" d="M615.74,-86.8C615.74,-75.16 615.74,-59.55 615.74,-46.24"/>
<polygon fill="black" stroke="black" points="619.24,-46.18 615.74,-36.18 612.24,-46.18 619.24,-46.18"/>
<text text-anchor="middle" x="620.74" y="-57.8" font-family="Times,serif" font-size="14.00">1</text>
</g>
<!-- dra.CheckCollision -->
<g id="node7" class="node">
<title>dra.CheckCollision</title>
<g id="a_node7"><a xlink:href="dra.CheckCollision.svg" xlink:title="dra.CheckCollision">
<ellipse fill="green" stroke="black" cx="816.74" cy="-18" rx="97.48" ry="18"/>
<text text-anchor="middle" x="816.74" y="-14.3" font-family="Times,serif" font-size="14.00">dra.CheckCollision</text>
</a>
</g>
</g>
<!-- np3.EntityFallingRock&#45;&gt;dra.CheckCollision -->
<g id="edge6" class="edge">
<title>np3.EntityFallingRock&#45;&gt;dra.CheckCollision</title>
<path fill="none" stroke="black" d="M654.02,-87.81C687.03,-73.86 734.79,-53.66 770.04,-38.75"/>
<polygon fill="black" stroke="black" points="771.78,-41.82 779.62,-34.7 769.05,-35.37 771.78,-41.82"/>
<text text-anchor="middle" x="733.74" y="-57.8" font-family="Times,serif" font-size="14.00">1</text>
</g>
<!-- np3.AllocEntity -->
<g id="node8" class="node">
<title>np3.AllocEntity</title>
<g id="a_node8"><a xlink:href="np3.AllocEntity.svg" xlink:title="np3.AllocEntity">
<ellipse fill="green" stroke="black" cx="1014.74" cy="-18" rx="82.59" ry="18"/>
<text text-anchor="middle" x="1014.74" y="-14.3" font-family="Times,serif" font-size="14.00">np3.AllocEntity</text>
</a>
</g>
</g>
<!-- np3.EntityFallingRock&#45;&gt;np3.AllocEntity -->
<g id="edge7" class="edge">
<title>np3.EntityFallingRock&#45;&gt;np3.AllocEntity</title>
<path fill="none" stroke="black" d="M680.74,-90.15C754.24,-74.5 873.33,-49.13 947.67,-33.29"/>
<polygon fill="black" stroke="black" points="948.81,-36.63 957.86,-31.12 947.35,-29.78 948.81,-36.63"/>
<text text-anchor="middle" x="844.74" y="-57.8" font-family="Times,serif" font-size="14.00">1</text>
</g>
<!-- np3.CreateEntityFromEntity -->
<g id="node9" class="node">
<title>np3.CreateEntityFromEntity</title>
<g id="a_node9"><a xlink:href="np3.CreateEntityFromEntity.svg" xlink:title="np3.CreateEntityFromEntity">
<ellipse fill="green" stroke="black" cx="1259.74" cy="-18" rx="144.87" ry="18"/>
<text text-anchor="middle" x="1259.74" y="-14.3" font-family="Times,serif" font-size="14.00">np3.CreateEntityFromEntity</text>
</a>
</g>
</g>
<!-- np3.EntityFallingRock&#45;&gt;np3.CreateEntityFromEntity -->
<g id="edge8" class="edge">
<title>np3.EntityFallingRock&#45;&gt;np3.CreateEntityFromEntity</title>
<path fill="none" stroke="black" d="M700.26,-92.84C816.97,-77.44 1027.38,-49.67 1154.25,-32.92"/>
<polygon fill="black" stroke="black" points="1154.91,-36.37 1164.37,-31.59 1154,-29.43 1154.91,-36.37"/>
<text text-anchor="middle" x="981.74" y="-57.8" font-family="Times,serif" font-size="14.00">1</text>
</g>
<!-- np3.DestroyEntity -->
<g id="node10" class="node">
<title>np3.DestroyEntity</title>
<g id="a_node10"><a xlink:href="np3.DestroyEntity.svg" xlink:title="np3.DestroyEntity">
<ellipse fill="green" stroke="black" cx="1519.74" cy="-18" rx="96.68" ry="18"/>
<text text-anchor="middle" x="1519.74" y="-14.3" font-family="Times,serif" font-size="14.00">np3.DestroyEntity</text>
</a>
</g>
</g>
<!-- np3.EntityFallingRock&#45;&gt;np3.DestroyEntity -->
<g id="edge9" class="edge">
<title>np3.EntityFallingRock&#45;&gt;np3.DestroyEntity</title>
<path fill="none" stroke="black" d="M720.25,-97.57C872.95,-87.62 1165.84,-66.4 1413.74,-36 1422.64,-34.91 1431.94,-33.63 1441.17,-32.27"/>
<polygon fill="black" stroke="black" points="1441.77,-35.71 1451.14,-30.76 1440.73,-28.79 1441.77,-35.71"/>
<text text-anchor="middle" x="1244.74" y="-57.8" font-family="Times,serif" font-size="14.00">1</text>
</g>
</g>
</svg>
