<?xml version="1.0" encoding="UTF-8" standalone="no"?>
<!DOCTYPE svg PUBLIC "-//W3C//DTD SVG 1.1//EN"
 "http://www.w3.org/Graphics/SVG/1.1/DTD/svg11.dtd">
<!-- Generated by graphviz version 2.43.0 (0)
 -->
<!-- Title: np3.func_801C56D8 Pages: 1 -->
<svg width="1129pt" height="131pt"
 viewBox="0.00 0.00 1128.58 131.00" xmlns="http://www.w3.org/2000/svg" xmlns:xlink="http://www.w3.org/1999/xlink">
<g id="graph0" class="graph" transform="scale(1 1) rotate(0) translate(4 127)">
<title>np3.func_801C56D8</title>
<polygon fill="white" stroke="transparent" points="-4,4 -4,-127 1124.58,-127 1124.58,4 -4,4"/>
<!-- np3.func_801C56D8 -->
<g id="node1" class="node">
<title>np3.func_801C56D8</title>
<ellipse fill="red" stroke="black" cx="611.74" cy="-105" rx="104.78" ry="18"/>
<text text-anchor="middle" x="611.74" y="-101.3" font-family="Times,serif" font-size="14.00">np3.func_801C56D8</text>
</g>
<!-- np3.InitializeEntity -->
<g id="node2" class="node">
<title>np3.InitializeEntity</title>
<g id="a_node2"><a xlink:href="np3.InitializeEntity.svg" xlink:title="np3.InitializeEntity">
<ellipse fill="green" stroke="black" cx="100.74" cy="-18" rx="100.98" ry="18"/>
<text text-anchor="middle" x="100.74" y="-14.3" font-family="Times,serif" font-size="14.00">np3.InitializeEntity</text>
</a>
</g>
</g>
<!-- np3.func_801C56D8&#45;&gt;np3.InitializeEntity -->
<g id="edge1" class="edge">
<title>np3.func_801C56D8&#45;&gt;np3.InitializeEntity</title>
<path fill="none" stroke="black" d="M539.34,-91.96C444.98,-76.26 280.42,-48.89 181.92,-32.5"/>
<polygon fill="black" stroke="black" points="182.45,-29.04 172.01,-30.85 181.3,-35.95 182.45,-29.04"/>
<text text-anchor="middle" x="392.74" y="-57.8" font-family="Times,serif" font-size="14.00">1</text>
</g>
<!-- dra.AllocPrimitives -->
<g id="node3" class="node">
<title>dra.AllocPrimitives</title>
<g id="a_node3"><a xlink:href="dra.AllocPrimitives.svg" xlink:title="dra.AllocPrimitives">
<ellipse fill="green" stroke="black" cx="318.74" cy="-18" rx="99.38" ry="18"/>
<text text-anchor="middle" x="318.74" y="-14.3" font-family="Times,serif" font-size="14.00">dra.AllocPrimitives</text>
</a>
</g>
</g>
<!-- np3.func_801C56D8&#45;&gt;dra.AllocPrimitives -->
<g id="edge2" class="edge">
<title>np3.func_801C56D8&#45;&gt;dra.AllocPrimitives</title>
<path fill="none" stroke="black" d="M560.7,-89.19C510.08,-74.51 432.51,-52 378.91,-36.46"/>
<polygon fill="black" stroke="black" points="379.77,-33.06 369.19,-33.64 377.82,-39.78 379.77,-33.06"/>
<text text-anchor="middle" x="488.74" y="-57.8" font-family="Times,serif" font-size="14.00">1</text>
</g>
<!-- dra.func_80134714 -->
<g id="node4" class="node">
<title>dra.func_80134714</title>
<g id="a_node4"><a xlink:href="dra.func_80134714.svg" xlink:title="dra.func_80134714">
<ellipse fill="green" stroke="black" cx="536.74" cy="-18" rx="100.98" ry="18"/>
<text text-anchor="middle" x="536.74" y="-14.3" font-family="Times,serif" font-size="14.00">dra.func_80134714</text>
</a>
</g>
</g>
<!-- np3.func_801C56D8&#45;&gt;dra.func_80134714 -->
<g id="edge3" class="edge">
<title>np3.func_801C56D8&#45;&gt;dra.func_80134714</title>
<path fill="none" stroke="black" d="M596.56,-86.8C585.61,-74.39 570.67,-57.46 558.46,-43.62"/>
<polygon fill="black" stroke="black" points="560.88,-41.07 551.64,-35.89 555.63,-45.7 560.88,-41.07"/>
<text text-anchor="middle" x="583.74" y="-57.8" font-family="Times,serif" font-size="14.00">1</text>
</g>
<!-- rand -->
<g id="node5" class="node">
<title>rand</title>
<g id="a_node5"><a xlink:href="rand.svg" xlink:title="rand">
<ellipse fill="lightblue" stroke="black" cx="687.74" cy="-18" rx="32.49" ry="18"/>
<text text-anchor="middle" x="687.74" y="-14.3" font-family="Times,serif" font-size="14.00">rand</text>
</a>
</g>
</g>
<!-- np3.func_801C56D8&#45;&gt;rand -->
<g id="edge4" class="edge">
<title>np3.func_801C56D8&#45;&gt;rand</title>
<path fill="none" stroke="black" d="M627.12,-86.8C638.58,-73.98 654.35,-56.35 666.93,-42.27"/>
<polygon fill="black" stroke="black" points="669.86,-44.25 673.92,-34.46 664.64,-39.58 669.86,-44.25"/>
<text text-anchor="middle" x="659.74" y="-57.8" font-family="Times,serif" font-size="14.00">1</text>
</g>
<!-- np3.MoveEntity -->
<g id="node6" class="node">
<title>np3.MoveEntity</title>
<g id="a_node6"><a xlink:href="np3.MoveEntity.svg" xlink:title="np3.MoveEntity">
<ellipse fill="green" stroke="black" cx="823.74" cy="-18" rx="85.29" ry="18"/>
<text text-anchor="middle" x="823.74" y="-14.3" font-family="Times,serif" font-size="14.00">np3.MoveEntity</text>
</a>
</g>
</g>
<!-- np3.func_801C56D8&#45;&gt;np3.MoveEntity -->
<g id="edge5" class="edge">
<title>np3.func_801C56D8&#45;&gt;np3.MoveEntity</title>
<path fill="none" stroke="black" d="M651.12,-88.21C686.4,-74.06 738.25,-53.28 775.91,-38.18"/>
<polygon fill="black" stroke="black" points="777.66,-41.25 785.64,-34.27 775.06,-34.75 777.66,-41.25"/>
<text text-anchor="middle" x="735.74" y="-57.8" font-family="Times,serif" font-size="14.00">1</text>
</g>
<!-- np3.DestroyEntity -->
<g id="node7" class="node">
<title>np3.DestroyEntity</title>
<g id="a_node7"><a xlink:href="np3.DestroyEntity.svg" xlink:title="np3.DestroyEntity">
<ellipse fill="green" stroke="black" cx="1023.74" cy="-18" rx="96.68" ry="18"/>
<text text-anchor="middle" x="1023.74" y="-14.3" font-family="Times,serif" font-size="14.00">np3.DestroyEntity</text>
</a>
</g>
</g>
<!-- np3.func_801C56D8&#45;&gt;np3.DestroyEntity -->
<g id="edge6" class="edge">
<title>np3.func_801C56D8&#45;&gt;np3.DestroyEntity</title>
<path fill="none" stroke="black" d="M676.12,-90.72C750.73,-75.32 873.4,-50.02 951.29,-33.95"/>
<polygon fill="black" stroke="black" points="952.42,-37.29 961.5,-31.84 951,-30.43 952.42,-37.29"/>
<text text-anchor="middle" x="847.74" y="-57.8" font-family="Times,serif" font-size="14.00">1</text>
</g>
</g>
</svg>
