<?xml version="1.0" encoding="UTF-8" standalone="no"?>
<!DOCTYPE svg PUBLIC "-//W3C//DTD SVG 1.1//EN"
 "http://www.w3.org/Graphics/SVG/1.1/DTD/svg11.dtd">
<!-- Generated by graphviz version 2.43.0 (0)
 -->
<!-- Title: np3.AnimateEntity Pages: 1 -->
<svg width="7743pt" height="224pt"
 viewBox="0.00 0.00 7743.48 224.00" xmlns="http://www.w3.org/2000/svg" xmlns:xlink="http://www.w3.org/1999/xlink">
<g id="graph0" class="graph" transform="scale(1 1) rotate(0) translate(4 220)">
<title>np3.AnimateEntity</title>
<polygon fill="white" stroke="transparent" points="-4,4 -4,-220 7739.48,-220 7739.48,4 -4,4"/>
<!-- np3.AnimateEntity -->
<g id="node1" class="node">
<title>np3.AnimateEntity</title>
<ellipse fill="green" stroke="black" cx="3593.89" cy="-18" rx="98.58" ry="18"/>
<text text-anchor="middle" x="3593.89" y="-14.3" font-family="Times,serif" font-size="14.00">np3.AnimateEntity</text>
</g>
<!-- np3.EntityZombie -->
<g id="node2" class="node">
<title>np3.EntityZombie</title>
<g id="a_node2"><a xlink:href="np3.EntityZombie.svg" xlink:title="np3.EntityZombie">
<ellipse fill="green" stroke="black" cx="94.89" cy="-198" rx="94.78" ry="18"/>
<text text-anchor="middle" x="94.89" y="-194.3" font-family="Times,serif" font-size="14.00">np3.EntityZombie</text>
</a>
</g>
</g>
<!-- np3.EntityZombie&#45;&gt;np3.AnimateEntity -->
<g id="edge1" class="edge">
<title>np3.EntityZombie&#45;&gt;np3.AnimateEntity</title>
<path fill="none" stroke="black" d="M161.04,-185.02C173.57,-183.08 186.61,-181.29 198.89,-180 1487.18,-44.61 3062.54,-23.03 3485.25,-19.63"/>
<polygon fill="black" stroke="black" points="3485.35,-23.13 3495.32,-19.55 3485.3,-16.13 3485.35,-23.13"/>
<text text-anchor="middle" x="156.04" y="-173.82" font-family="Times,serif" font-size="14.00">3</text>
</g>
<!-- np3.EntityBoneScimitar -->
<g id="node3" class="node">
<title>np3.EntityBoneScimitar</title>
<g id="a_node3"><a xlink:href="np3.EntityBoneScimitar.svg" xlink:title="np3.EntityBoneScimitar">
<ellipse fill="green" stroke="black" cx="330.89" cy="-198" rx="122.68" ry="18"/>
<text text-anchor="middle" x="330.89" y="-194.3" font-family="Times,serif" font-size="14.00">np3.EntityBoneScimitar</text>
</a>
</g>
</g>
<!-- np3.EntityBoneScimitar&#45;&gt;np3.AnimateEntity -->
<g id="edge2" class="edge">
<title>np3.EntityBoneScimitar&#45;&gt;np3.AnimateEntity</title>
<path fill="none" stroke="black" d="M416.35,-185.02C431.82,-183.13 447.82,-181.36 462.89,-180 1645.67,-73.58 3086.61,-31.61 3486.53,-21.54"/>
<polygon fill="black" stroke="black" points="3486.73,-25.03 3496.64,-21.28 3486.55,-18.03 3486.73,-25.03"/>
<text text-anchor="middle" x="411.35" y="-173.82" font-family="Times,serif" font-size="14.00">6</text>
</g>
<!-- np3.EntityOwlKnight -->
<g id="node4" class="node">
<title>np3.EntityOwlKnight</title>
<g id="a_node4"><a xlink:href="np3.EntityOwlKnight.svg" xlink:title="np3.EntityOwlKnight">
<ellipse fill="red" stroke="black" cx="580.89" cy="-198" rx="109.38" ry="18"/>
<text text-anchor="middle" x="580.89" y="-194.3" font-family="Times,serif" font-size="14.00">np3.EntityOwlKnight</text>
</a>
</g>
</g>
<!-- np3.EntityOwlKnight&#45;&gt;np3.AnimateEntity -->
<g id="edge3" class="edge">
<title>np3.EntityOwlKnight&#45;&gt;np3.AnimateEntity</title>
<path fill="none" stroke="black" d="M656.94,-185.05C670.87,-183.14 685.3,-181.35 698.89,-180 1783.78,-71.89 3105.17,-31.47 3486.31,-21.59"/>
<polygon fill="black" stroke="black" points="3486.59,-25.08 3496.5,-21.32 3486.41,-18.08 3486.59,-25.08"/>
<text text-anchor="middle" x="647.44" y="-173.85" font-family="Times,serif" font-size="14.00">19</text>
</g>
<!-- np3.EntityOwl -->
<g id="node5" class="node">
<title>np3.EntityOwl</title>
<g id="a_node5"><a xlink:href="np3.EntityOwl.svg" xlink:title="np3.EntityOwl">
<ellipse fill="red" stroke="black" cx="785.89" cy="-198" rx="77.99" ry="18"/>
<text text-anchor="middle" x="785.89" y="-194.3" font-family="Times,serif" font-size="14.00">np3.EntityOwl</text>
</a>
</g>
</g>
<!-- np3.EntityOwl&#45;&gt;np3.AnimateEntity -->
<g id="edge4" class="edge">
<title>np3.EntityOwl&#45;&gt;np3.AnimateEntity</title>
<path fill="none" stroke="black" d="M840.94,-185.09C851.5,-183.13 862.51,-181.32 872.89,-180 1883.06,-52 3117.4,-25.43 3485.42,-20.21"/>
<polygon fill="black" stroke="black" points="3485.58,-23.71 3495.53,-20.07 3485.49,-16.71 3485.58,-23.71"/>
<text text-anchor="middle" x="831.44" y="-173.89" font-family="Times,serif" font-size="14.00">12</text>
</g>
<!-- np3.EntityBloodyZombie -->
<g id="node6" class="node">
<title>np3.EntityBloodyZombie</title>
<g id="a_node6"><a xlink:href="np3.EntityBloodyZombie.svg" xlink:title="np3.EntityBloodyZombie">
<ellipse fill="green" stroke="black" cx="1007.89" cy="-198" rx="126.18" ry="18"/>
<text text-anchor="middle" x="1007.89" y="-194.3" font-family="Times,serif" font-size="14.00">np3.EntityBloodyZombie</text>
</a>
</g>
</g>
<!-- np3.EntityBloodyZombie&#45;&gt;np3.AnimateEntity -->
<g id="edge5" class="edge">
<title>np3.EntityBloodyZombie&#45;&gt;np3.AnimateEntity</title>
<path fill="none" stroke="black" d="M1096.4,-185.09C1111.88,-183.22 1127.84,-181.44 1142.89,-180 2049.58,-93.21 3149.49,-39.17 3489.03,-23.65"/>
<polygon fill="black" stroke="black" points="3489.27,-27.14 3499.1,-23.19 3488.95,-20.15 3489.27,-27.14"/>
<text text-anchor="middle" x="1091.4" y="-173.89" font-family="Times,serif" font-size="14.00">5</text>
</g>
<!-- np3.EntityTrapDoor -->
<g id="node7" class="node">
<title>np3.EntityTrapDoor</title>
<g id="a_node7"><a xlink:href="np3.EntityTrapDoor.svg" xlink:title="np3.EntityTrapDoor">
<ellipse fill="green" stroke="black" cx="1255.89" cy="-198" rx="103.98" ry="18"/>
<text text-anchor="middle" x="1255.89" y="-194.3" font-family="Times,serif" font-size="14.00">np3.EntityTrapDoor</text>
</a>
</g>
</g>
<!-- np3.EntityTrapDoor&#45;&gt;np3.AnimateEntity -->
<g id="edge6" class="edge">
<title>np3.EntityTrapDoor&#45;&gt;np3.AnimateEntity</title>
<path fill="none" stroke="black" d="M1329.03,-185.16C1342.27,-183.25 1355.98,-181.44 1368.89,-180 2182.82,-89.46 3170.19,-38.65 3489.16,-23.7"/>
<polygon fill="black" stroke="black" points="3489.49,-27.19 3499.31,-23.23 3489.16,-20.2 3489.49,-27.19"/>
<text text-anchor="middle" x="1324.03" y="-173.96" font-family="Times,serif" font-size="14.00">1</text>
</g>
<!-- np3.func_801B28E4 -->
<g id="node8" class="node">
<title>np3.func_801B28E4</title>
<g id="a_node8"><a xlink:href="np3.func_801B28E4.svg" xlink:title="np3.func_801B28E4">
<ellipse fill="red" stroke="black" cx="1482.89" cy="-198" rx="104.78" ry="18"/>
<text text-anchor="middle" x="1482.89" y="-194.3" font-family="Times,serif" font-size="14.00">np3.func_801B28E4</text>
</a>
</g>
</g>
<!-- np3.func_801B28E4&#45;&gt;np3.AnimateEntity -->
<g id="edge7" class="edge">
<title>np3.func_801B28E4&#45;&gt;np3.AnimateEntity</title>
<path fill="none" stroke="black" d="M1556.65,-185.16C1569.7,-183.27 1583.18,-181.47 1595.89,-180 2319.35,-96.53 3195.15,-41.94 3490.79,-24.79"/>
<polygon fill="black" stroke="black" points="3491.27,-28.27 3501.06,-24.2 3490.87,-21.28 3491.27,-28.27"/>
<text text-anchor="middle" x="1551.65" y="-173.96" font-family="Times,serif" font-size="14.00">1</text>
</g>
<!-- np3.EntityBreakable -->
<g id="node9" class="node">
<title>np3.EntityBreakable</title>
<g id="a_node9"><a xlink:href="np3.EntityBreakable.svg" xlink:title="np3.EntityBreakable">
<ellipse fill="green" stroke="black" cx="1711.89" cy="-198" rx="106.68" ry="18"/>
<text text-anchor="middle" x="1711.89" y="-194.3" font-family="Times,serif" font-size="14.00">np3.EntityBreakable</text>
</a>
</g>
</g>
<!-- np3.EntityBreakable&#45;&gt;np3.AnimateEntity -->
<g id="edge8" class="edge">
<title>np3.EntityBreakable&#45;&gt;np3.AnimateEntity</title>
<path fill="none" stroke="black" d="M1787.28,-185.24C1800.47,-183.36 1814.07,-181.53 1826.89,-180 2459.55,-104.48 3223.4,-45.89 3493.43,-26.18"/>
<polygon fill="black" stroke="black" points="3493.88,-29.65 3503.6,-25.43 3493.37,-22.67 3493.88,-29.65"/>
<text text-anchor="middle" x="1782.28" y="-174.04" font-family="Times,serif" font-size="14.00">1</text>
</g>
<!-- np3.func_801B246C -->
<g id="node10" class="node">
<title>np3.func_801B246C</title>
<g id="a_node10"><a xlink:href="np3.func_801B246C.svg" xlink:title="np3.func_801B246C">
<ellipse fill="green" stroke="black" cx="1940.89" cy="-198" rx="104.78" ry="18"/>
<text text-anchor="middle" x="1940.89" y="-194.3" font-family="Times,serif" font-size="14.00">np3.func_801B246C</text>
</a>
</g>
</g>
<!-- np3.func_801B246C&#45;&gt;np3.AnimateEntity -->
<g id="edge9" class="edge">
<title>np3.func_801B246C&#45;&gt;np3.AnimateEntity</title>
<path fill="none" stroke="black" d="M2015.28,-185.32C2028.15,-183.44 2041.39,-181.59 2053.89,-180 2598.07,-110.66 3253.24,-49.56 3496.67,-27.63"/>
<polygon fill="black" stroke="black" points="3497.25,-31.09 3506.9,-26.71 3496.63,-24.12 3497.25,-31.09"/>
<text text-anchor="middle" x="2010.28" y="-174.12" font-family="Times,serif" font-size="14.00">1</text>
</g>
<!-- np3.func_801B65FC -->
<g id="node11" class="node">
<title>np3.func_801B65FC</title>
<g id="a_node11"><a xlink:href="np3.func_801B65FC.svg" xlink:title="np3.func_801B65FC">
<ellipse fill="red" stroke="black" cx="2167.89" cy="-198" rx="104.78" ry="18"/>
<text text-anchor="middle" x="2167.89" y="-194.3" font-family="Times,serif" font-size="14.00">np3.func_801B65FC</text>
</a>
</g>
</g>
<!-- np3.func_801B65FC&#45;&gt;np3.AnimateEntity -->
<g id="edge10" class="edge">
<title>np3.func_801B65FC&#45;&gt;np3.AnimateEntity</title>
<path fill="none" stroke="black" d="M2243.28,-185.48C2256.15,-183.59 2269.4,-181.7 2281.89,-180 2739.42,-117.82 3288.21,-53.93 3502.18,-29.43"/>
<polygon fill="black" stroke="black" points="3502.89,-32.87 3512.42,-28.25 3502.09,-25.91 3502.89,-32.87"/>
<text text-anchor="middle" x="2238.28" y="-174.28" font-family="Times,serif" font-size="14.00">2</text>
</g>
<!-- np3.func_801B39CC -->
<g id="node12" class="node">
<title>np3.func_801B39CC</title>
<g id="a_node12"><a xlink:href="np3.func_801B39CC.svg" xlink:title="np3.func_801B39CC">
<ellipse fill="red" stroke="black" cx="2395.89" cy="-198" rx="105.08" ry="18"/>
<text text-anchor="middle" x="2395.89" y="-194.3" font-family="Times,serif" font-size="14.00">np3.func_801B39CC</text>
</a>
</g>
</g>
<!-- np3.func_801B39CC&#45;&gt;np3.AnimateEntity -->
<g id="edge11" class="edge">
<title>np3.func_801B39CC&#45;&gt;np3.AnimateEntity</title>
<path fill="none" stroke="black" d="M2472.54,-185.56C2485.03,-183.7 2497.82,-181.8 2509.89,-180 2882.74,-124.51 3327.77,-58.48 3509.91,-31.46"/>
<polygon fill="black" stroke="black" points="3510.58,-34.89 3519.96,-29.97 3509.55,-27.97 3510.58,-34.89"/>
<text text-anchor="middle" x="2467.54" y="-174.36" font-family="Times,serif" font-size="14.00">1</text>
</g>
<!-- np3.func_801B5DE8 -->
<g id="node13" class="node">
<title>np3.func_801B5DE8</title>
<g id="a_node13"><a xlink:href="np3.func_801B5DE8.svg" xlink:title="np3.func_801B5DE8">
<ellipse fill="green" stroke="black" cx="2624.89" cy="-198" rx="105.88" ry="18"/>
<text text-anchor="middle" x="2624.89" y="-194.3" font-family="Times,serif" font-size="14.00">np3.func_801B5DE8</text>
</a>
</g>
</g>
<!-- np3.func_801B5DE8&#45;&gt;np3.AnimateEntity -->
<g id="edge12" class="edge">
<title>np3.func_801B5DE8&#45;&gt;np3.AnimateEntity</title>
<path fill="none" stroke="black" d="M2694.19,-184.27C2870.17,-151.94 3333.37,-66.86 3517.16,-33.1"/>
<polygon fill="black" stroke="black" points="3517.81,-36.53 3527.01,-31.28 3516.55,-29.65 3517.81,-36.53"/>
<text text-anchor="middle" x="2689.19" y="-173.07" font-family="Times,serif" font-size="14.00">1</text>
</g>
<!-- np3.EntityMerman -->
<g id="node14" class="node">
<title>np3.EntityMerman</title>
<g id="a_node14"><a xlink:href="np3.EntityMerman.svg" xlink:title="np3.EntityMerman">
<ellipse fill="green" stroke="black" cx="2847.89" cy="-198" rx="98.58" ry="18"/>
<text text-anchor="middle" x="2847.89" y="-194.3" font-family="Times,serif" font-size="14.00">np3.EntityMerman</text>
</a>
</g>
</g>
<!-- np3.EntityMerman&#45;&gt;np3.AnimateEntity -->
<g id="edge13" class="edge">
<title>np3.EntityMerman&#45;&gt;np3.AnimateEntity</title>
<path fill="none" stroke="black" d="M2905.19,-183.33C3040.8,-150.97 3380.89,-69.82 3526.27,-35.13"/>
<polygon fill="black" stroke="black" points="3527.48,-38.44 3536.4,-32.72 3525.86,-31.63 3527.48,-38.44"/>
<text text-anchor="middle" x="2900.19" y="-172.13" font-family="Times,serif" font-size="14.00">9</text>
</g>
<!-- np3.func_801C8F54 -->
<g id="node15" class="node">
<title>np3.func_801C8F54</title>
<g id="a_node15"><a xlink:href="np3.func_801C8F54.svg" xlink:title="np3.func_801C8F54">
<ellipse fill="green" stroke="black" cx="3068.89" cy="-198" rx="103.98" ry="18"/>
<text text-anchor="middle" x="3068.89" y="-194.3" font-family="Times,serif" font-size="14.00">np3.func_801C8F54</text>
</a>
</g>
</g>
<!-- np3.func_801C8F54&#45;&gt;np3.AnimateEntity -->
<g id="edge14" class="edge">
<title>np3.func_801C8F54&#45;&gt;np3.AnimateEntity</title>
<path fill="none" stroke="black" d="M3114.11,-181.67C3210.49,-148.99 3435.8,-72.6 3539.68,-37.38"/>
<polygon fill="black" stroke="black" points="3541,-40.63 3549.34,-34.1 3538.75,-34 3541,-40.63"/>
<text text-anchor="middle" x="3109.11" y="-170.47" font-family="Times,serif" font-size="14.00">1</text>
</g>
<!-- np3.func_801C8DF0 -->
<g id="node16" class="node">
<title>np3.func_801C8DF0</title>
<g id="a_node16"><a xlink:href="np3.func_801C8DF0.svg" xlink:title="np3.func_801C8DF0">
<ellipse fill="green" stroke="black" cx="3295.89" cy="-198" rx="105.08" ry="18"/>
<text text-anchor="middle" x="3295.89" y="-194.3" font-family="Times,serif" font-size="14.00">np3.func_801C8DF0</text>
</a>
</g>
</g>
<!-- np3.func_801C8DF0&#45;&gt;np3.AnimateEntity -->
<g id="edge15" class="edge">
<title>np3.func_801C8DF0&#45;&gt;np3.AnimateEntity</title>
<path fill="none" stroke="black" d="M3323.39,-180.57C3377.39,-148.32 3497.26,-76.72 3557.65,-40.65"/>
<polygon fill="black" stroke="black" points="3559.67,-43.52 3566.46,-35.39 3556.08,-37.51 3559.67,-43.52"/>
<text text-anchor="middle" x="3318.39" y="-169.37" font-family="Times,serif" font-size="14.00">1</text>
</g>
<!-- np3.EntityBat -->
<g id="node17" class="node">
<title>np3.EntityBat</title>
<g id="a_node17"><a xlink:href="np3.EntityBat.svg" xlink:title="np3.EntityBat">
<ellipse fill="green" stroke="black" cx="3494.89" cy="-198" rx="76.09" ry="18"/>
<text text-anchor="middle" x="3494.89" y="-194.3" font-family="Times,serif" font-size="14.00">np3.EntityBat</text>
</a>
</g>
</g>
<!-- np3.EntityBat&#45;&gt;np3.AnimateEntity -->
<g id="edge16" class="edge">
<title>np3.EntityBat&#45;&gt;np3.AnimateEntity</title>
<path fill="none" stroke="black" d="M3504.38,-179.93C3521.75,-148.7 3558.76,-82.17 3579.33,-45.18"/>
<polygon fill="black" stroke="black" points="3582.63,-46.46 3584.43,-36.02 3576.51,-43.05 3582.63,-46.46"/>
<text text-anchor="middle" x="3499.38" y="-168.73" font-family="Times,serif" font-size="14.00">3</text>
</g>
<!-- np3.func_801C7E18 -->
<g id="node18" class="node">
<title>np3.func_801C7E18</title>
<g id="a_node18"><a xlink:href="np3.func_801C7E18.svg" xlink:title="np3.func_801C7E18">
<ellipse fill="green" stroke="black" cx="3693.89" cy="-198" rx="104.78" ry="18"/>
<text text-anchor="middle" x="3693.89" y="-194.3" font-family="Times,serif" font-size="14.00">np3.func_801C7E18</text>
</a>
</g>
</g>
<!-- np3.func_801C7E18&#45;&gt;np3.AnimateEntity -->
<g id="edge17" class="edge">
<title>np3.func_801C7E18&#45;&gt;np3.AnimateEntity</title>
<path fill="none" stroke="black" d="M3684.3,-179.93C3666.76,-148.7 3629.38,-82.17 3608.6,-45.18"/>
<polygon fill="black" stroke="black" points="3611.4,-43.02 3603.45,-36.02 3605.3,-46.45 3611.4,-43.02"/>
<text text-anchor="middle" x="3679.3" y="-168.73" font-family="Times,serif" font-size="14.00">2</text>
</g>
<!-- np3.EntityExplosion2 -->
<g id="node19" class="node">
<title>np3.EntityExplosion2</title>
<g id="a_node19"><a xlink:href="np3.EntityExplosion2.svg" xlink:title="np3.EntityExplosion2">
<ellipse fill="green" stroke="black" cx="3927.89" cy="-198" rx="111.28" ry="18"/>
<text text-anchor="middle" x="3927.89" y="-194.3" font-family="Times,serif" font-size="14.00">np3.EntityExplosion2</text>
</a>
</g>
</g>
<!-- np3.EntityExplosion2&#45;&gt;np3.AnimateEntity -->
<g id="edge18" class="edge">
<title>np3.EntityExplosion2&#45;&gt;np3.AnimateEntity</title>
<path fill="none" stroke="black" d="M3897.07,-180.57C3836.3,-148.19 3701.09,-76.13 3633.69,-40.21"/>
<polygon fill="black" stroke="black" points="3635.11,-37 3624.64,-35.39 3631.82,-43.18 3635.11,-37"/>
<text text-anchor="middle" x="3892.07" y="-169.37" font-family="Times,serif" font-size="14.00">1</text>
</g>
<!-- np3.func_801C7D80 -->
<g id="node20" class="node">
<title>np3.func_801C7D80</title>
<g id="a_node20"><a xlink:href="np3.func_801C7D80.svg" xlink:title="np3.func_801C7D80">
<ellipse fill="green" stroke="black" cx="4161.89" cy="-198" rx="104.78" ry="18"/>
<text text-anchor="middle" x="4161.89" y="-194.3" font-family="Times,serif" font-size="14.00">np3.func_801C7D80</text>
</a>
</g>
</g>
<!-- np3.func_801C7D80&#45;&gt;np3.AnimateEntity -->
<g id="edge19" class="edge">
<title>np3.func_801C7D80&#45;&gt;np3.AnimateEntity</title>
<path fill="none" stroke="black" d="M4113.95,-181.98C4009.85,-149.35 3763.44,-72.13 3651.28,-36.98"/>
<polygon fill="black" stroke="black" points="3652.09,-33.57 3641.5,-33.92 3650,-40.25 3652.09,-33.57"/>
<text text-anchor="middle" x="4108.95" y="-170.78" font-family="Times,serif" font-size="14.00">1</text>
</g>
<!-- np3.EntityMediumWaterSplash -->
<g id="node21" class="node">
<title>np3.EntityMediumWaterSplash</title>
<g id="a_node21"><a xlink:href="np3.EntityMediumWaterSplash.svg" xlink:title="np3.EntityMediumWaterSplash">
<ellipse fill="green" stroke="black" cx="4441.89" cy="-198" rx="157.07" ry="18"/>
<text text-anchor="middle" x="4441.89" y="-194.3" font-family="Times,serif" font-size="14.00">np3.EntityMediumWaterSplash</text>
</a>
</g>
</g>
<!-- np3.EntityMediumWaterSplash&#45;&gt;np3.AnimateEntity -->
<g id="edge20" class="edge">
<title>np3.EntityMediumWaterSplash&#45;&gt;np3.AnimateEntity</title>
<path fill="none" stroke="black" d="M4369.96,-181.9C4210,-148.33 3826.36,-67.8 3666.13,-34.16"/>
<polygon fill="black" stroke="black" points="3666.41,-30.64 3655.9,-32.02 3664.97,-37.5 3666.41,-30.64"/>
<text text-anchor="middle" x="4364.96" y="-170.7" font-family="Times,serif" font-size="14.00">1</text>
</g>
<!-- np3.EntityMerman2 -->
<g id="node22" class="node">
<title>np3.EntityMerman2</title>
<g id="a_node22"><a xlink:href="np3.EntityMerman2.svg" xlink:title="np3.EntityMerman2">
<ellipse fill="green" stroke="black" cx="4721.89" cy="-198" rx="104.78" ry="18"/>
<text text-anchor="middle" x="4721.89" y="-194.3" font-family="Times,serif" font-size="14.00">np3.EntityMerman2</text>
</a>
</g>
</g>
<!-- np3.EntityMerman2&#45;&gt;np3.AnimateEntity -->
<g id="edge21" class="edge">
<title>np3.EntityMerman2&#45;&gt;np3.AnimateEntity</title>
<path fill="none" stroke="black" d="M4647.44,-185.25C4445.23,-153.34 3886.87,-65.23 3675.98,-31.95"/>
<polygon fill="black" stroke="black" points="3676.33,-28.46 3665.9,-30.36 3675.23,-35.38 3676.33,-28.46"/>
<text text-anchor="middle" x="4642.44" y="-174.05" font-family="Times,serif" font-size="14.00">5</text>
</g>
<!-- np3.EntityLargeGaibonProjectile -->
<g id="node23" class="node">
<title>np3.EntityLargeGaibonProjectile</title>
<g id="a_node23"><a xlink:href="np3.EntityLargeGaibonProjectile.svg" xlink:title="np3.EntityLargeGaibonProjectile">
<ellipse fill="green" stroke="black" cx="5007.89" cy="-198" rx="163.57" ry="18"/>
<text text-anchor="middle" x="5007.89" y="-194.3" font-family="Times,serif" font-size="14.00">np3.EntityLargeGaibonProjectile</text>
</a>
</g>
</g>
<!-- np3.EntityLargeGaibonProjectile&#45;&gt;np3.AnimateEntity -->
<g id="edge22" class="edge">
<title>np3.EntityLargeGaibonProjectile&#45;&gt;np3.AnimateEntity</title>
<path fill="none" stroke="black" d="M4904.49,-183.98C4638.24,-150.47 3932.55,-61.63 3682.92,-30.21"/>
<polygon fill="black" stroke="black" points="3683.17,-26.71 3672.81,-28.93 3682.29,-33.66 3683.17,-26.71"/>
<text text-anchor="middle" x="4899.49" y="-172.78" font-family="Times,serif" font-size="14.00">2</text>
</g>
<!-- np3.EntityGaibon -->
<g id="node24" class="node">
<title>np3.EntityGaibon</title>
<g id="a_node24"><a xlink:href="np3.EntityGaibon.svg" xlink:title="np3.EntityGaibon">
<ellipse fill="red" stroke="black" cx="5282.89" cy="-198" rx="92.88" ry="18"/>
<text text-anchor="middle" x="5282.89" y="-194.3" font-family="Times,serif" font-size="14.00">np3.EntityGaibon</text>
</a>
</g>
</g>
<!-- np3.EntityGaibon&#45;&gt;np3.AnimateEntity -->
<g id="edge23" class="edge">
<title>np3.EntityGaibon&#45;&gt;np3.AnimateEntity</title>
<path fill="none" stroke="black" d="M5216.59,-185.32C5204.73,-183.41 5192.46,-181.55 5180.89,-180 4619.8,-104.86 3942.89,-47.06 3692.88,-26.82"/>
<polygon fill="black" stroke="black" points="3692.99,-23.32 3682.74,-26 3692.42,-30.3 3692.99,-23.32"/>
<text text-anchor="middle" x="5207.09" y="-174.12" font-family="Times,serif" font-size="14.00">14</text>
</g>
<!-- np3.EntitySlograSpearProjectile -->
<g id="node25" class="node">
<title>np3.EntitySlograSpearProjectile</title>
<g id="a_node25"><a xlink:href="np3.EntitySlograSpearProjectile.svg" xlink:title="np3.EntitySlograSpearProjectile">
<ellipse fill="green" stroke="black" cx="5555.89" cy="-198" rx="161.67" ry="18"/>
<text text-anchor="middle" x="5555.89" y="-194.3" font-family="Times,serif" font-size="14.00">np3.EntitySlograSpearProjectile</text>
</a>
</g>
</g>
<!-- np3.EntitySlograSpearProjectile&#45;&gt;np3.AnimateEntity -->
<g id="edge24" class="edge">
<title>np3.EntitySlograSpearProjectile&#45;&gt;np3.AnimateEntity</title>
<path fill="none" stroke="black" d="M5440.47,-185.38C5421.89,-183.55 5402.86,-181.7 5384.89,-180 4738.58,-118.82 3960.49,-50.8 3691.18,-27.42"/>
<polygon fill="black" stroke="black" points="3691.31,-23.92 3681.05,-26.54 3690.71,-30.89 3691.31,-23.92"/>
<text text-anchor="middle" x="5435.47" y="-174.18" font-family="Times,serif" font-size="14.00">2</text>
</g>
<!-- np3.EntitySlogra -->
<g id="node26" class="node">
<title>np3.EntitySlogra</title>
<g id="a_node26"><a xlink:href="np3.EntitySlogra.svg" xlink:title="np3.EntitySlogra">
<ellipse fill="green" stroke="black" cx="5825.89" cy="-198" rx="90.18" ry="18"/>
<text text-anchor="middle" x="5825.89" y="-194.3" font-family="Times,serif" font-size="14.00">np3.EntitySlogra</text>
</a>
</g>
</g>
<!-- np3.EntitySlogra&#45;&gt;np3.AnimateEntity -->
<g id="edge25" class="edge">
<title>np3.EntitySlogra&#45;&gt;np3.AnimateEntity</title>
<path fill="none" stroke="black" d="M5762.38,-185.18C5750.61,-183.25 5738.4,-181.42 5726.89,-180 4951.78,-84.42 4010.74,-37.23 3699.45,-23.42"/>
<polygon fill="black" stroke="black" points="3699.23,-19.91 3689.08,-22.96 3698.92,-26.9 3699.23,-19.91"/>
<text text-anchor="middle" x="5752.88" y="-173.98" font-family="Times,serif" font-size="14.00">14</text>
</g>
<!-- np3.EntitySmallGaibonProjectile -->
<g id="node27" class="node">
<title>np3.EntitySmallGaibonProjectile</title>
<g id="a_node27"><a xlink:href="np3.EntitySmallGaibonProjectile.svg" xlink:title="np3.EntitySmallGaibonProjectile">
<ellipse fill="green" stroke="black" cx="6096.89" cy="-198" rx="163.27" ry="18"/>
<text text-anchor="middle" x="6096.89" y="-194.3" font-family="Times,serif" font-size="14.00">np3.EntitySmallGaibonProjectile</text>
</a>
</g>
</g>
<!-- np3.EntitySmallGaibonProjectile&#45;&gt;np3.AnimateEntity -->
<g id="edge26" class="edge">
<title>np3.EntitySmallGaibonProjectile&#45;&gt;np3.AnimateEntity</title>
<path fill="none" stroke="black" d="M5982.21,-185.19C5963.08,-183.36 5943.43,-181.56 5924.89,-180 5064.38,-107.77 4023.16,-44.34 3696.79,-25.02"/>
<polygon fill="black" stroke="black" points="3696.6,-21.5 3686.41,-24.4 3696.19,-28.49 3696.6,-21.5"/>
<text text-anchor="middle" x="5977.21" y="-173.99" font-family="Times,serif" font-size="14.00">1</text>
</g>
<!-- np3.EntityRoomForeground -->
<g id="node28" class="node">
<title>np3.EntityRoomForeground</title>
<g id="a_node28"><a xlink:href="np3.EntityRoomForeground.svg" xlink:title="np3.EntityRoomForeground">
<ellipse fill="green" stroke="black" cx="6418.89" cy="-198" rx="140.28" ry="18"/>
<text text-anchor="middle" x="6418.89" y="-194.3" font-family="Times,serif" font-size="14.00">np3.EntityRoomForeground</text>
</a>
</g>
</g>
<!-- np3.EntityRoomForeground&#45;&gt;np3.AnimateEntity -->
<g id="edge27" class="edge">
<title>np3.EntityRoomForeground&#45;&gt;np3.AnimateEntity</title>
<path fill="none" stroke="black" d="M6320.53,-185.1C6303.33,-183.24 6285.6,-181.45 6268.89,-180 5270.64,-93.45 4058.77,-38.58 3699.22,-23.34"/>
<polygon fill="black" stroke="black" points="3699.23,-19.84 3689.09,-22.91 3698.94,-26.83 3699.23,-19.84"/>
<text text-anchor="middle" x="6315.53" y="-173.9" font-family="Times,serif" font-size="14.00">1</text>
</g>
<!-- np3.func_801C14E8 -->
<g id="node29" class="node">
<title>np3.func_801C14E8</title>
<g id="a_node29"><a xlink:href="np3.func_801C14E8.svg" xlink:title="np3.func_801C14E8">
<ellipse fill="green" stroke="black" cx="6681.89" cy="-198" rx="104.78" ry="18"/>
<text text-anchor="middle" x="6681.89" y="-194.3" font-family="Times,serif" font-size="14.00">np3.func_801C14E8</text>
</a>
</g>
</g>
<!-- np3.func_801C14E8&#45;&gt;np3.AnimateEntity -->
<g id="edge28" class="edge">
<title>np3.func_801C14E8&#45;&gt;np3.AnimateEntity</title>
<path fill="none" stroke="black" d="M6608.74,-185.05C6595.18,-183.13 6581.13,-181.34 6567.89,-180 5450.86,-66.73 4089.16,-29.78 3701.47,-21.17"/>
<polygon fill="black" stroke="black" points="3701.46,-17.67 3691.39,-20.95 3701.31,-24.67 3701.46,-17.67"/>
<text text-anchor="middle" x="6603.74" y="-173.85" font-family="Times,serif" font-size="14.00">1</text>
</g>
<!-- np3.func_801C129C -->
<g id="node30" class="node">
<title>np3.func_801C129C</title>
<g id="a_node30"><a xlink:href="np3.func_801C129C.svg" xlink:title="np3.func_801C129C">
<ellipse fill="green" stroke="black" cx="6908.89" cy="-198" rx="104.78" ry="18"/>
<text text-anchor="middle" x="6908.89" y="-194.3" font-family="Times,serif" font-size="14.00">np3.func_801C129C</text>
</a>
</g>
</g>
<!-- np3.func_801C129C&#45;&gt;np3.AnimateEntity -->
<g id="edge29" class="edge">
<title>np3.func_801C129C&#45;&gt;np3.AnimateEntity</title>
<path fill="none" stroke="black" d="M6836.38,-185.01C6822.95,-183.09 6809.02,-181.31 6795.89,-180 5586.15,-58.89 4109.69,-27.24 3702.38,-20.56"/>
<polygon fill="black" stroke="black" points="3702.14,-17.06 3692.08,-20.39 3702.03,-24.05 3702.14,-17.06"/>
<text text-anchor="middle" x="6831.38" y="-173.81" font-family="Times,serif" font-size="14.00">1</text>
</g>
<!-- np3.EntitySoulStealOrb -->
<g id="node31" class="node">
<title>np3.EntitySoulStealOrb</title>
<g id="a_node31"><a xlink:href="np3.EntitySoulStealOrb.svg" xlink:title="np3.EntitySoulStealOrb">
<ellipse fill="green" stroke="black" cx="7153.89" cy="-198" rx="122.38" ry="18"/>
<text text-anchor="middle" x="7153.89" y="-194.3" font-family="Times,serif" font-size="14.00">np3.EntitySoulStealOrb</text>
</a>
</g>
</g>
<!-- np3.EntitySoulStealOrb&#45;&gt;np3.AnimateEntity -->
<g id="edge30" class="edge">
<title>np3.EntitySoulStealOrb&#45;&gt;np3.AnimateEntity</title>
<path fill="none" stroke="black" d="M7069.09,-184.96C7053.74,-183.08 7037.86,-181.32 7022.89,-180 5718.15,-64.91 4126.38,-28.77 3702.05,-20.85"/>
<polygon fill="black" stroke="black" points="3702.01,-17.34 3691.94,-20.66 3701.88,-24.34 3702.01,-17.34"/>
<text text-anchor="middle" x="7064.09" y="-173.76" font-family="Times,serif" font-size="14.00">1</text>
</g>
<!-- np3.EntityExplosion -->
<g id="node32" class="node">
<title>np3.EntityExplosion</title>
<g id="a_node32"><a xlink:href="np3.EntityExplosion.svg" xlink:title="np3.EntityExplosion">
<ellipse fill="green" stroke="black" cx="7398.89" cy="-198" rx="105.08" ry="18"/>
<text text-anchor="middle" x="7398.89" y="-194.3" font-family="Times,serif" font-size="14.00">np3.EntityExplosion</text>
</a>
</g>
</g>
<!-- np3.EntityExplosion&#45;&gt;np3.AnimateEntity -->
<g id="edge31" class="edge">
<title>np3.EntityExplosion&#45;&gt;np3.AnimateEntity</title>
<path fill="none" stroke="black" d="M7326.05,-184.98C7312.41,-183.06 7298.24,-181.28 7284.89,-180 5873.82,-44.39 4148.18,-22.93 3702.82,-19.6"/>
<polygon fill="black" stroke="black" points="3702.56,-16.1 3692.54,-19.53 3702.51,-23.1 3702.56,-16.1"/>
<text text-anchor="middle" x="7321.05" y="-173.78" font-family="Times,serif" font-size="14.00">1</text>
</g>
<!-- np3.EntityPrizeDrop -->
<g id="node33" class="node">
<title>np3.EntityPrizeDrop</title>
<g id="a_node33"><a xlink:href="np3.EntityPrizeDrop.svg" xlink:title="np3.EntityPrizeDrop">
<ellipse fill="green" stroke="black" cx="7628.89" cy="-198" rx="106.68" ry="18"/>
<text text-anchor="middle" x="7628.89" y="-194.3" font-family="Times,serif" font-size="14.00">np3.EntityPrizeDrop</text>
</a>
</g>
</g>
<!-- np3.EntityPrizeDrop&#45;&gt;np3.AnimateEntity -->
<g id="edge32" class="edge">
<title>np3.EntityPrizeDrop&#45;&gt;np3.AnimateEntity</title>
<path fill="none" stroke="black" d="M7555.08,-185C7541.1,-183.07 7526.57,-181.28 7512.89,-180 6007.36,-39.14 4165,-21.51 3702.91,-19.31"/>
<polygon fill="black" stroke="black" points="3702.6,-15.81 3692.58,-19.26 3702.56,-22.81 3702.6,-15.81"/>
<text text-anchor="middle" x="7550.08" y="-173.8" font-family="Times,serif" font-size="14.00">1</text>
</g>
</g>
</svg>
