<?xml version="1.0" encoding="UTF-8" standalone="no"?>
<!DOCTYPE svg PUBLIC "-//W3C//DTD SVG 1.1//EN"
 "http://www.w3.org/Graphics/SVG/1.1/DTD/svg11.dtd">
<!-- Generated by graphviz version 2.43.0 (0)
 -->
<!-- Title: np3.EntityBloodSplatter Pages: 1 -->
<svg width="1774pt" height="224pt"
 viewBox="0.00 0.00 1773.73 224.00" xmlns="http://www.w3.org/2000/svg" xmlns:xlink="http://www.w3.org/1999/xlink">
<g id="graph0" class="graph" transform="scale(1 1) rotate(0) translate(4 220)">
<title>np3.EntityBloodSplatter</title>
<polygon fill="white" stroke="transparent" points="-4,4 -4,-220 1769.73,-220 1769.73,4 -4,4"/>
<!-- np3.EntityBloodSplatter -->
<g id="node1" class="node">
<title>np3.EntityBloodSplatter</title>
<ellipse fill="green" stroke="black" cx="865.44" cy="-198" rx="124.28" ry="18"/>
<text text-anchor="middle" x="865.44" y="-194.3" font-family="Times,serif" font-size="14.00">np3.EntityBloodSplatter</text>
</g>
<!-- dra.AllocPrimitives -->
<g id="node2" class="node">
<title>dra.AllocPrimitives</title>
<g id="a_node2"><a xlink:href="dra.AllocPrimitives.svg" xlink:title="dra.AllocPrimitives">
<ellipse fill="green" stroke="black" cx="99.44" cy="-18" rx="99.38" ry="18"/>
<text text-anchor="middle" x="99.44" y="-14.3" font-family="Times,serif" font-size="14.00">dra.AllocPrimitives</text>
</a>
</g>
</g>
<!-- np3.EntityBloodSplatter&#45;&gt;dra.AllocPrimitives -->
<g id="edge1" class="edge">
<title>np3.EntityBloodSplatter&#45;&gt;dra.AllocPrimitives</title>
<path fill="none" stroke="black" d="M802.76,-182.43C660.68,-149.42 315.11,-69.12 167.79,-34.88"/>
<polygon fill="black" stroke="black" points="168.49,-31.45 157.96,-32.6 166.91,-38.27 168.49,-31.45"/>
<text text-anchor="middle" x="152.96" y="-36.4" font-family="Times,serif" font-size="14.00">1</text>
</g>
<!-- np3.DestroyEntity -->
<g id="node3" class="node">
<title>np3.DestroyEntity</title>
<g id="a_node3"><a xlink:href="np3.DestroyEntity.svg" xlink:title="np3.DestroyEntity">
<ellipse fill="green" stroke="black" cx="313.44" cy="-18" rx="96.68" ry="18"/>
<text text-anchor="middle" x="313.44" y="-14.3" font-family="Times,serif" font-size="14.00">np3.DestroyEntity</text>
</a>
</g>
</g>
<!-- np3.EntityBloodSplatter&#45;&gt;np3.DestroyEntity -->
<g id="edge2" class="edge">
<title>np3.EntityBloodSplatter&#45;&gt;np3.DestroyEntity</title>
<path fill="none" stroke="black" d="M816.94,-181.36C714.76,-148.41 477.89,-72.03 369.46,-37.06"/>
<polygon fill="black" stroke="black" points="370.28,-33.65 359.69,-33.91 368.13,-40.31 370.28,-33.65"/>
<text text-anchor="middle" x="354.69" y="-37.71" font-family="Times,serif" font-size="14.00">1</text>
</g>
<!-- np3.InitializeEntity -->
<g id="node4" class="node">
<title>np3.InitializeEntity</title>
<g id="a_node4"><a xlink:href="np3.InitializeEntity.svg" xlink:title="np3.InitializeEntity">
<ellipse fill="green" stroke="black" cx="529.44" cy="-18" rx="100.98" ry="18"/>
<text text-anchor="middle" x="529.44" y="-14.3" font-family="Times,serif" font-size="14.00">np3.InitializeEntity</text>
</a>
</g>
</g>
<!-- np3.EntityBloodSplatter&#45;&gt;np3.InitializeEntity -->
<g id="edge3" class="edge">
<title>np3.EntityBloodSplatter&#45;&gt;np3.InitializeEntity</title>
<path fill="none" stroke="black" d="M834.13,-180.41C772.83,-147.94 637.05,-76.01 569.39,-40.16"/>
<polygon fill="black" stroke="black" points="570.78,-36.94 560.31,-35.35 567.5,-43.12 570.78,-36.94"/>
<text text-anchor="middle" x="555.31" y="-39.15" font-family="Times,serif" font-size="14.00">1</text>
</g>
<!-- np3.func_801D1F38 -->
<g id="node5" class="node">
<title>np3.func_801D1F38</title>
<g id="a_node5"><a xlink:href="np3.func_801D1F38.svg" xlink:title="np3.func_801D1F38">
<ellipse fill="red" stroke="black" cx="752.44" cy="-18" rx="104.78" ry="18"/>
<text text-anchor="middle" x="752.44" y="-14.3" font-family="Times,serif" font-size="14.00">np3.func_801D1F38</text>
</a>
</g>
</g>
<!-- np3.EntityBloodSplatter&#45;&gt;np3.func_801D1F38 -->
<g id="edge4" class="edge">
<title>np3.EntityBloodSplatter&#45;&gt;np3.func_801D1F38</title>
<path fill="none" stroke="black" d="M854.61,-179.93C834.69,-148.57 792.18,-81.6 768.76,-44.71"/>
<polygon fill="black" stroke="black" points="771.56,-42.58 763.24,-36.02 765.65,-46.33 771.56,-42.58"/>
<text text-anchor="middle" x="758.24" y="-39.82" font-family="Times,serif" font-size="14.00">2</text>
</g>
<!-- np3.func_801D2320 -->
<g id="node6" class="node">
<title>np3.func_801D2320</title>
<g id="a_node6"><a xlink:href="np3.func_801D2320.svg" xlink:title="np3.func_801D2320">
<ellipse fill="red" stroke="black" cx="979.44" cy="-18" rx="103.98" ry="18"/>
<text text-anchor="middle" x="979.44" y="-14.3" font-family="Times,serif" font-size="14.00">np3.func_801D2320</text>
</a>
</g>
</g>
<!-- np3.EntityBloodSplatter&#45;&gt;np3.func_801D2320 -->
<g id="edge5" class="edge">
<title>np3.EntityBloodSplatter&#45;&gt;np3.func_801D2320</title>
<path fill="none" stroke="black" d="M876.37,-179.93C896.46,-148.57 939.35,-81.6 962.98,-44.71"/>
<polygon fill="black" stroke="black" points="966.1,-46.32 968.54,-36.02 960.2,-42.55 966.1,-46.32"/>
<text text-anchor="middle" x="963.54" y="-39.82" font-family="Times,serif" font-size="14.00">2</text>
</g>
<!-- np3.func_801D24A0 -->
<g id="node7" class="node">
<title>np3.func_801D24A0</title>
<g id="a_node7"><a xlink:href="np3.func_801D24A0.svg" xlink:title="np3.func_801D24A0">
<ellipse fill="green" stroke="black" cx="1206.44" cy="-18" rx="104.78" ry="18"/>
<text text-anchor="middle" x="1206.44" y="-14.3" font-family="Times,serif" font-size="14.00">np3.func_801D24A0</text>
</a>
</g>
</g>
<!-- np3.EntityBloodSplatter&#45;&gt;np3.func_801D24A0 -->
<g id="edge6" class="edge">
<title>np3.EntityBloodSplatter&#45;&gt;np3.func_801D24A0</title>
<path fill="none" stroke="black" d="M896.91,-180.57C958.95,-148.19 1097,-76.13 1165.81,-40.21"/>
<polygon fill="black" stroke="black" points="1167.8,-43.12 1175.05,-35.39 1164.56,-36.91 1167.8,-43.12"/>
<text text-anchor="middle" x="1170.05" y="-39.19" font-family="Times,serif" font-size="14.00">2</text>
</g>
<!-- np3.func_801D2684 -->
<g id="node8" class="node">
<title>np3.func_801D2684</title>
<g id="a_node8"><a xlink:href="np3.func_801D2684.svg" xlink:title="np3.func_801D2684">
<ellipse fill="green" stroke="black" cx="1433.44" cy="-18" rx="103.98" ry="18"/>
<text text-anchor="middle" x="1433.44" y="-14.3" font-family="Times,serif" font-size="14.00">np3.func_801D2684</text>
</a>
</g>
</g>
<!-- np3.EntityBloodSplatter&#45;&gt;np3.func_801D2684 -->
<g id="edge7" class="edge">
<title>np3.EntityBloodSplatter&#45;&gt;np3.func_801D2684</title>
<path fill="none" stroke="black" d="M915.35,-181.36C1020.46,-148.42 1264.11,-72.07 1375.72,-37.09"/>
<polygon fill="black" stroke="black" points="1376.96,-40.37 1385.46,-34.04 1374.87,-33.69 1376.96,-40.37"/>
<text text-anchor="middle" x="1380.46" y="-37.84" font-family="Times,serif" font-size="14.00">2</text>
</g>
<!-- np3.func_801D26D8 -->
<g id="node9" class="node">
<title>np3.func_801D26D8</title>
<g id="a_node9"><a xlink:href="np3.func_801D26D8.svg" xlink:title="np3.func_801D26D8">
<ellipse fill="green" stroke="black" cx="1660.44" cy="-18" rx="105.08" ry="18"/>
<text text-anchor="middle" x="1660.44" y="-14.3" font-family="Times,serif" font-size="14.00">np3.func_801D26D8</text>
</a>
</g>
</g>
<!-- np3.EntityBloodSplatter&#45;&gt;np3.func_801D26D8 -->
<g id="edge8" class="edge">
<title>np3.EntityBloodSplatter&#45;&gt;np3.func_801D26D8</title>
<path fill="none" stroke="black" d="M929.83,-182.58C1076.86,-149.66 1436.4,-69.16 1589.52,-34.88"/>
<polygon fill="black" stroke="black" points="1590.31,-38.29 1599.3,-32.69 1588.78,-31.46 1590.31,-38.29"/>
<text text-anchor="middle" x="1594.3" y="-36.49" font-family="Times,serif" font-size="14.00">2</text>
</g>
</g>
</svg>
