<?xml version="1.0" encoding="UTF-8" standalone="no"?>
<!DOCTYPE svg PUBLIC "-//W3C//DTD SVG 1.1//EN"
 "http://www.w3.org/Graphics/SVG/1.1/DTD/svg11.dtd">
<!-- Generated by graphviz version 2.43.0 (0)
 -->
<!-- Title: np3.EntityPathBlockSmallWeight Pages: 1 -->
<svg width="1316pt" height="131pt"
 viewBox="0.00 0.00 1316.38 131.00" xmlns="http://www.w3.org/2000/svg" xmlns:xlink="http://www.w3.org/1999/xlink">
<g id="graph0" class="graph" transform="scale(1 1) rotate(0) translate(4 127)">
<title>np3.EntityPathBlockSmallWeight</title>
<polygon fill="white" stroke="transparent" points="-4,4 -4,-127 1312.38,-127 1312.38,4 -4,4"/>
<!-- np3.EntityPathBlockSmallWeight -->
<g id="node1" class="node">
<title>np3.EntityPathBlockSmallWeight</title>
<ellipse fill="green" stroke="black" cx="641.74" cy="-105" rx="165.17" ry="18"/>
<text text-anchor="middle" x="641.74" y="-101.3" font-family="Times,serif" font-size="14.00">np3.EntityPathBlockSmallWeight</text>
</g>
<!-- np3.InitializeEntity -->
<g id="node2" class="node">
<title>np3.InitializeEntity</title>
<g id="a_node2"><a xlink:href="np3.InitializeEntity.svg" xlink:title="np3.InitializeEntity">
<ellipse fill="green" stroke="black" cx="100.74" cy="-18" rx="100.98" ry="18"/>
<text text-anchor="middle" x="100.74" y="-14.3" font-family="Times,serif" font-size="14.00">np3.InitializeEntity</text>
</a>
</g>
</g>
<!-- np3.EntityPathBlockSmallWeight&#45;&gt;np3.InitializeEntity -->
<g id="edge1" class="edge">
<title>np3.EntityPathBlockSmallWeight&#45;&gt;np3.InitializeEntity</title>
<path fill="none" stroke="black" d="M551.8,-89.87C449.4,-73.78 283.48,-47.71 183.97,-32.08"/>
<polygon fill="black" stroke="black" points="184.38,-28.6 173.95,-30.5 183.29,-35.51 184.38,-28.6"/>
<text text-anchor="middle" x="408.74" y="-57.8" font-family="Times,serif" font-size="14.00">1</text>
</g>
<!-- dra.AllocPrimitives -->
<g id="node3" class="node">
<title>dra.AllocPrimitives</title>
<g id="a_node3"><a xlink:href="dra.AllocPrimitives.svg" xlink:title="dra.AllocPrimitives">
<ellipse fill="green" stroke="black" cx="318.74" cy="-18" rx="99.38" ry="18"/>
<text text-anchor="middle" x="318.74" y="-14.3" font-family="Times,serif" font-size="14.00">dra.AllocPrimitives</text>
</a>
</g>
</g>
<!-- np3.EntityPathBlockSmallWeight&#45;&gt;dra.AllocPrimitives -->
<g id="edge2" class="edge">
<title>np3.EntityPathBlockSmallWeight&#45;&gt;dra.AllocPrimitives</title>
<path fill="none" stroke="black" d="M581.74,-88.21C525,-73.28 440.15,-50.95 382.28,-35.72"/>
<polygon fill="black" stroke="black" points="383.08,-32.31 372.52,-33.15 381.3,-39.08 383.08,-32.31"/>
<text text-anchor="middle" x="504.74" y="-57.8" font-family="Times,serif" font-size="14.00">1</text>
</g>
<!-- np3.DestroyEntity -->
<g id="node4" class="node">
<title>np3.DestroyEntity</title>
<g id="a_node4"><a xlink:href="np3.DestroyEntity.svg" xlink:title="np3.DestroyEntity">
<ellipse fill="green" stroke="black" cx="532.74" cy="-18" rx="96.68" ry="18"/>
<text text-anchor="middle" x="532.74" y="-14.3" font-family="Times,serif" font-size="14.00">np3.DestroyEntity</text>
</a>
</g>
</g>
<!-- np3.EntityPathBlockSmallWeight&#45;&gt;np3.DestroyEntity -->
<g id="edge3" class="edge">
<title>np3.EntityPathBlockSmallWeight&#45;&gt;np3.DestroyEntity</title>
<path fill="none" stroke="black" d="M619.95,-87C603.35,-74.06 580.34,-56.12 562.12,-41.91"/>
<polygon fill="black" stroke="black" points="564.17,-39.07 554.13,-35.68 559.86,-44.59 564.17,-39.07"/>
<text text-anchor="middle" x="599.74" y="-57.8" font-family="Times,serif" font-size="14.00">1</text>
</g>
<!-- np3.func_801C2598 -->
<g id="node5" class="node">
<title>np3.func_801C2598</title>
<g id="a_node5"><a xlink:href="np3.func_801C2598.svg" xlink:title="np3.func_801C2598">
<ellipse fill="green" stroke="black" cx="750.74" cy="-18" rx="103.18" ry="18"/>
<text text-anchor="middle" x="750.74" y="-14.3" font-family="Times,serif" font-size="14.00">np3.func_801C2598</text>
</a>
</g>
</g>
<!-- np3.EntityPathBlockSmallWeight&#45;&gt;np3.func_801C2598 -->
<g id="edge4" class="edge">
<title>np3.EntityPathBlockSmallWeight&#45;&gt;np3.func_801C2598</title>
<path fill="none" stroke="black" d="M663.54,-87C680.13,-74.06 703.14,-56.12 721.36,-41.91"/>
<polygon fill="black" stroke="black" points="723.62,-44.59 729.35,-35.68 719.32,-39.07 723.62,-44.59"/>
<text text-anchor="middle" x="708.74" y="-57.8" font-family="Times,serif" font-size="14.00">1</text>
</g>
<!-- np3.func_801BD588 -->
<g id="node6" class="node">
<title>np3.func_801BD588</title>
<g id="a_node6"><a xlink:href="np3.func_801BD588.svg" xlink:title="np3.func_801BD588">
<ellipse fill="red" stroke="black" cx="976.74" cy="-18" rx="104.78" ry="18"/>
<text text-anchor="middle" x="976.74" y="-14.3" font-family="Times,serif" font-size="14.00">np3.func_801BD588</text>
</a>
</g>
</g>
<!-- np3.EntityPathBlockSmallWeight&#45;&gt;np3.func_801BD588 -->
<g id="edge5" class="edge">
<title>np3.EntityPathBlockSmallWeight&#45;&gt;np3.func_801BD588</title>
<path fill="none" stroke="black" d="M703.97,-88.21C762.85,-73.27 850.91,-50.93 910.94,-35.7"/>
<polygon fill="black" stroke="black" points="911.86,-39.07 920.7,-33.22 910.14,-32.29 911.86,-39.07"/>
<text text-anchor="middle" x="834.74" y="-57.8" font-family="Times,serif" font-size="14.00">1</text>
</g>
<!-- np3.func_801B44B4 -->
<g id="node7" class="node">
<title>np3.func_801B44B4</title>
<g id="a_node7"><a xlink:href="np3.func_801B44B4.svg" xlink:title="np3.func_801B44B4">
<ellipse fill="green" stroke="black" cx="1203.74" cy="-18" rx="104.78" ry="18"/>
<text text-anchor="middle" x="1203.74" y="-14.3" font-family="Times,serif" font-size="14.00">np3.func_801B44B4</text>
</a>
</g>
</g>
<!-- np3.EntityPathBlockSmallWeight&#45;&gt;np3.func_801B44B4 -->
<g id="edge6" class="edge">
<title>np3.EntityPathBlockSmallWeight&#45;&gt;np3.func_801B44B4</title>
<path fill="none" stroke="black" d="M733.91,-90.06C840.3,-73.97 1013.88,-47.72 1117.63,-32.02"/>
<polygon fill="black" stroke="black" points="1118.39,-35.45 1127.76,-30.49 1117.35,-28.53 1118.39,-35.45"/>
<text text-anchor="middle" x="961.74" y="-57.8" font-family="Times,serif" font-size="14.00">1</text>
</g>
</g>
</svg>
