<?xml version="1.0" encoding="UTF-8" standalone="no"?>
<!DOCTYPE svg PUBLIC "-//W3C//DTD SVG 1.1//EN"
 "http://www.w3.org/Graphics/SVG/1.1/DTD/svg11.dtd">
<!-- Generated by graphviz version 2.43.0 (0)
 -->
<!-- Title: np3.func_801D2470 Pages: 1 -->
<svg width="440pt" height="131pt"
 viewBox="0.00 0.00 440.33 131.00" xmlns="http://www.w3.org/2000/svg" xmlns:xlink="http://www.w3.org/1999/xlink">
<g id="graph0" class="graph" transform="scale(1 1) rotate(0) translate(4 127)">
<title>np3.func_801D2470</title>
<polygon fill="white" stroke="transparent" points="-4,4 -4,-127 436.33,-127 436.33,4 -4,4"/>
<!-- np3.func_801D2470 -->
<g id="node1" class="node">
<title>np3.func_801D2470</title>
<ellipse fill="green" stroke="black" cx="215.34" cy="-18" rx="103.98" ry="18"/>
<text text-anchor="middle" x="215.34" y="-14.3" font-family="Times,serif" font-size="14.00">np3.func_801D2470</text>
</g>
<!-- np3.func_801B6084 -->
<g id="node2" class="node">
<title>np3.func_801B6084</title>
<g id="a_node2"><a xlink:href="np3.func_801B6084.svg" xlink:title="np3.func_801B6084">
<ellipse fill="red" stroke="black" cx="103.34" cy="-105" rx="103.18" ry="18"/>
<text text-anchor="middle" x="103.34" y="-101.3" font-family="Times,serif" font-size="14.00">np3.func_801B6084</text>
</a>
</g>
</g>
<!-- np3.func_801B6084&#45;&gt;np3.func_801D2470 -->
<g id="edge1" class="edge">
<title>np3.func_801B6084&#45;&gt;np3.func_801D2470</title>
<path fill="none" stroke="black" d="M125.47,-87.21C142.57,-74.23 166.43,-56.12 185.27,-41.83"/>
<polygon fill="black" stroke="black" points="187.41,-44.59 193.26,-35.76 183.18,-39.02 187.41,-44.59"/>
<text text-anchor="middle" x="171.34" y="-57.8" font-family="Times,serif" font-size="14.00">1</text>
</g>
<!-- np3.func_801B40F8 -->
<g id="node3" class="node">
<title>np3.func_801B40F8</title>
<g id="a_node3"><a xlink:href="np3.func_801B40F8.svg" xlink:title="np3.func_801B40F8">
<ellipse fill="green" stroke="black" cx="328.34" cy="-105" rx="103.98" ry="18"/>
<text text-anchor="middle" x="328.34" y="-101.3" font-family="Times,serif" font-size="14.00">np3.func_801B40F8</text>
</a>
</g>
</g>
<!-- np3.func_801B40F8&#45;&gt;np3.func_801D2470 -->
<g id="edge2" class="edge">
<title>np3.func_801B40F8&#45;&gt;np3.func_801D2470</title>
<path fill="none" stroke="black" d="M306.29,-87.41C289.05,-74.45 264.91,-56.28 245.83,-41.93"/>
<polygon fill="black" stroke="black" points="247.82,-39.05 237.73,-35.84 243.61,-44.65 247.82,-39.05"/>
<text text-anchor="middle" x="284.34" y="-57.8" font-family="Times,serif" font-size="14.00">1</text>
</g>
</g>
</svg>
