<?xml version="1.0" encoding="UTF-8" standalone="no"?>
<!DOCTYPE svg PUBLIC "-//W3C//DTD SVG 1.1//EN"
 "http://www.w3.org/Graphics/SVG/1.1/DTD/svg11.dtd">
<!-- Generated by graphviz version 2.43.0 (0)
 -->
<!-- Title: np3.EntityGaibon Pages: 1 -->
<svg width="4204pt" height="224pt"
 viewBox="0.00 0.00 4204.39 224.00" xmlns="http://www.w3.org/2000/svg" xmlns:xlink="http://www.w3.org/1999/xlink">
<g id="graph0" class="graph" transform="scale(1 1) rotate(0) translate(4 220)">
<title>np3.EntityGaibon</title>
<polygon fill="white" stroke="transparent" points="-4,4 -4,-220 4200.39,-220 4200.39,4 -4,4"/>
<!-- np3.EntityGaibon -->
<g id="node1" class="node">
<title>np3.EntityGaibon</title>
<ellipse fill="red" stroke="black" cx="2049.05" cy="-198" rx="92.88" ry="18"/>
<text text-anchor="middle" x="2049.05" y="-194.3" font-family="Times,serif" font-size="14.00">np3.EntityGaibon</text>
</g>
<!-- FntPrint -->
<g id="node2" class="node">
<title>FntPrint</title>
<g id="a_node2"><a xlink:href="FntPrint.svg" xlink:title="FntPrint">
<ellipse fill="lightblue" stroke="black" cx="50.05" cy="-18" rx="50.09" ry="18"/>
<text text-anchor="middle" x="50.05" y="-14.3" font-family="Times,serif" font-size="14.00">FntPrint</text>
</a>
</g>
</g>
<!-- np3.EntityGaibon&#45;&gt;FntPrint -->
<g id="edge1" class="edge">
<title>np3.EntityGaibon&#45;&gt;FntPrint</title>
<path fill="none" stroke="black" d="M1956.87,-195.65C1676.89,-190.2 812.58,-163.46 110.05,-36 105.55,-35.18 100.91,-34.18 96.28,-33.06"/>
<polygon fill="black" stroke="black" points="96.83,-29.59 86.27,-30.48 95.08,-36.36 96.83,-29.59"/>
<text text-anchor="middle" x="81.27" y="-34.28" font-family="Times,serif" font-size="14.00">1</text>
</g>
<!-- dra.CheckCollision -->
<g id="node3" class="node">
<title>dra.CheckCollision</title>
<g id="a_node3"><a xlink:href="dra.CheckCollision.svg" xlink:title="dra.CheckCollision">
<ellipse fill="green" stroke="black" cx="216.05" cy="-18" rx="97.48" ry="18"/>
<text text-anchor="middle" x="216.05" y="-14.3" font-family="Times,serif" font-size="14.00">dra.CheckCollision</text>
</a>
</g>
</g>
<!-- np3.EntityGaibon&#45;&gt;dra.CheckCollision -->
<g id="edge2" class="edge">
<title>np3.EntityGaibon&#45;&gt;dra.CheckCollision</title>
<path fill="none" stroke="black" d="M1963.02,-191C1710.53,-172.96 949.77,-115.51 322.05,-36 313.38,-34.9 304.34,-33.64 295.34,-32.3"/>
<polygon fill="black" stroke="black" points="295.64,-28.81 285.23,-30.77 294.59,-35.73 295.64,-28.81"/>
<text text-anchor="middle" x="280.23" y="-34.57" font-family="Times,serif" font-size="14.00">1</text>
</g>
<!-- main.ratan2 -->
<g id="node4" class="node">
<title>main.ratan2</title>
<g id="a_node4"><a xlink:href="main.ratan2.svg" xlink:title="main.ratan2">
<ellipse fill="green" stroke="black" cx="399.05" cy="-18" rx="67.69" ry="18"/>
<text text-anchor="middle" x="399.05" y="-14.3" font-family="Times,serif" font-size="14.00">main.ratan2</text>
</a>
</g>
</g>
<!-- np3.EntityGaibon&#45;&gt;main.ratan2 -->
<g id="edge3" class="edge">
<title>np3.EntityGaibon&#45;&gt;main.ratan2</title>
<path fill="none" stroke="black" d="M1961.55,-191.69C1722.32,-176.4 1037.66,-127.37 475.05,-36 469.23,-35.06 463.2,-33.94 457.18,-32.74"/>
<polygon fill="black" stroke="black" points="457.63,-29.26 447.12,-30.65 456.21,-36.11 457.63,-29.26"/>
<text text-anchor="middle" x="442.12" y="-34.45" font-family="Times,serif" font-size="14.00">4</text>
</g>
<!-- main.rcos -->
<g id="node5" class="node">
<title>main.rcos</title>
<g id="a_node5"><a xlink:href="main.rcos.svg" xlink:title="main.rcos">
<ellipse fill="red" stroke="black" cx="540.05" cy="-18" rx="55.79" ry="18"/>
<text text-anchor="middle" x="540.05" y="-14.3" font-family="Times,serif" font-size="14.00">main.rcos</text>
</a>
</g>
</g>
<!-- np3.EntityGaibon&#45;&gt;main.rcos -->
<g id="edge4" class="edge">
<title>np3.EntityGaibon&#45;&gt;main.rcos</title>
<path fill="none" stroke="black" d="M1961.65,-191.81C1735.57,-177.39 1113.58,-131.51 604.05,-36 599.42,-35.13 594.63,-34.11 589.85,-33"/>
<polygon fill="black" stroke="black" points="590.67,-29.59 580.12,-30.62 589.01,-36.39 590.67,-29.59"/>
<text text-anchor="middle" x="575.12" y="-34.42" font-family="Times,serif" font-size="14.00">4</text>
</g>
<!-- main.rsin -->
<g id="node6" class="node">
<title>main.rsin</title>
<g id="a_node6"><a xlink:href="main.rsin.svg" xlink:title="main.rsin">
<ellipse fill="green" stroke="black" cx="668.05" cy="-18" rx="54.69" ry="18"/>
<text text-anchor="middle" x="668.05" y="-14.3" font-family="Times,serif" font-size="14.00">main.rsin</text>
</a>
</g>
</g>
<!-- np3.EntityGaibon&#45;&gt;main.rsin -->
<g id="edge5" class="edge">
<title>np3.EntityGaibon&#45;&gt;main.rsin</title>
<path fill="none" stroke="black" d="M1963.58,-190.79C1752.74,-174.56 1191.48,-125.77 731.05,-36 726.61,-35.14 722.03,-34.13 717.45,-33.04"/>
<polygon fill="black" stroke="black" points="718.05,-29.58 707.5,-30.57 716.36,-36.38 718.05,-29.58"/>
<text text-anchor="middle" x="702.5" y="-34.37" font-family="Times,serif" font-size="14.00">4</text>
</g>
<!-- np3.AllocEntity -->
<g id="node7" class="node">
<title>np3.AllocEntity</title>
<g id="a_node7"><a xlink:href="np3.AllocEntity.svg" xlink:title="np3.AllocEntity">
<ellipse fill="green" stroke="black" cx="823.05" cy="-18" rx="82.59" ry="18"/>
<text text-anchor="middle" x="823.05" y="-14.3" font-family="Times,serif" font-size="14.00">np3.AllocEntity</text>
</a>
</g>
</g>
<!-- np3.EntityGaibon&#45;&gt;np3.AllocEntity -->
<g id="edge6" class="edge">
<title>np3.EntityGaibon&#45;&gt;np3.AllocEntity</title>
<path fill="none" stroke="black" d="M1973.5,-187.45C1791.03,-164.12 1311.98,-101.36 914.05,-36 907.07,-34.85 899.8,-33.6 892.55,-32.31"/>
<polygon fill="black" stroke="black" points="893.16,-28.86 882.7,-30.53 891.92,-35.75 893.16,-28.86"/>
<text text-anchor="middle" x="877.7" y="-34.33" font-family="Times,serif" font-size="14.00">5</text>
</g>
<!-- np3.AnimateEntity -->
<g id="node8" class="node">
<title>np3.AnimateEntity</title>
<g id="a_node8"><a xlink:href="np3.AnimateEntity.svg" xlink:title="np3.AnimateEntity">
<ellipse fill="green" stroke="black" cx="1022.05" cy="-18" rx="98.58" ry="18"/>
<text text-anchor="middle" x="1022.05" y="-14.3" font-family="Times,serif" font-size="14.00">np3.AnimateEntity</text>
</a>
</g>
</g>
<!-- np3.EntityGaibon&#45;&gt;np3.AnimateEntity -->
<g id="edge7" class="edge">
<title>np3.EntityGaibon&#45;&gt;np3.AnimateEntity</title>
<path fill="none" stroke="black" d="M1982.06,-185.39C1799.95,-153.83 1296.43,-66.56 1101.01,-32.69"/>
<polygon fill="black" stroke="black" points="1101.55,-29.23 1091.1,-30.97 1100.36,-36.12 1101.55,-29.23"/>
<text text-anchor="middle" x="1081.6" y="-34.77" font-family="Times,serif" font-size="14.00">14</text>
</g>
<!-- np3.CreateEntityFromCurrentEntity -->
<g id="node9" class="node">
<title>np3.CreateEntityFromCurrentEntity</title>
<g id="a_node9"><a xlink:href="np3.CreateEntityFromCurrentEntity.svg" xlink:title="np3.CreateEntityFromCurrentEntity">
<ellipse fill="green" stroke="black" cx="1320.05" cy="-18" rx="181.17" ry="18"/>
<text text-anchor="middle" x="1320.05" y="-14.3" font-family="Times,serif" font-size="14.00">np3.CreateEntityFromCurrentEntity</text>
</a>
</g>
</g>
<!-- np3.EntityGaibon&#45;&gt;np3.CreateEntityFromCurrentEntity -->
<g id="edge8" class="edge">
<title>np3.EntityGaibon&#45;&gt;np3.CreateEntityFromCurrentEntity</title>
<path fill="none" stroke="black" d="M1993.65,-183.47C1864.14,-151.85 1541.4,-73.05 1394.72,-37.23"/>
<polygon fill="black" stroke="black" points="1395.43,-33.8 1384.89,-34.83 1393.77,-40.61 1395.43,-33.8"/>
<text text-anchor="middle" x="1379.89" y="-38.63" font-family="Times,serif" font-size="14.00">1</text>
</g>
<!-- np3.CreateEntityFromEntity -->
<g id="node10" class="node">
<title>np3.CreateEntityFromEntity</title>
<g id="a_node10"><a xlink:href="np3.CreateEntityFromEntity.svg" xlink:title="np3.CreateEntityFromEntity">
<ellipse fill="green" stroke="black" cx="1664.05" cy="-18" rx="144.87" ry="18"/>
<text text-anchor="middle" x="1664.05" y="-14.3" font-family="Times,serif" font-size="14.00">np3.CreateEntityFromEntity</text>
</a>
</g>
</g>
<!-- np3.EntityGaibon&#45;&gt;np3.CreateEntityFromEntity -->
<g id="edge9" class="edge">
<title>np3.EntityGaibon&#45;&gt;np3.CreateEntityFromEntity</title>
<path fill="none" stroke="black" d="M2014.88,-181.2C1945.2,-148.99 1786.73,-75.72 1708.89,-39.73"/>
<polygon fill="black" stroke="black" points="1710.35,-36.55 1699.81,-35.53 1707.41,-42.91 1710.35,-36.55"/>
<text text-anchor="middle" x="1694.81" y="-39.33" font-family="Times,serif" font-size="14.00">5</text>
</g>
<!-- np3.DestroyEntity -->
<g id="node11" class="node">
<title>np3.DestroyEntity</title>
<g id="a_node11"><a xlink:href="np3.DestroyEntity.svg" xlink:title="np3.DestroyEntity">
<ellipse fill="green" stroke="black" cx="1924.05" cy="-18" rx="96.68" ry="18"/>
<text text-anchor="middle" x="1924.05" y="-14.3" font-family="Times,serif" font-size="14.00">np3.DestroyEntity</text>
</a>
</g>
</g>
<!-- np3.EntityGaibon&#45;&gt;np3.DestroyEntity -->
<g id="edge10" class="edge">
<title>np3.EntityGaibon&#45;&gt;np3.DestroyEntity</title>
<path fill="none" stroke="black" d="M2037.06,-179.93C2014.94,-148.43 1967.61,-81.03 1941.77,-44.24"/>
<polygon fill="black" stroke="black" points="1944.61,-42.19 1935.99,-36.02 1938.88,-46.21 1944.61,-42.19"/>
<text text-anchor="middle" x="1930.99" y="-39.82" font-family="Times,serif" font-size="14.00">1</text>
</g>
<!-- np3.GetDistanceToPlayerX -->
<g id="node12" class="node">
<title>np3.GetDistanceToPlayerX</title>
<g id="a_node12"><a xlink:href="np3.GetDistanceToPlayerX.svg" xlink:title="np3.GetDistanceToPlayerX">
<ellipse fill="green" stroke="black" cx="2174.05" cy="-18" rx="135.38" ry="18"/>
<text text-anchor="middle" x="2174.05" y="-14.3" font-family="Times,serif" font-size="14.00">np3.GetDistanceToPlayerX</text>
</a>
</g>
</g>
<!-- np3.EntityGaibon&#45;&gt;np3.GetDistanceToPlayerX -->
<g id="edge11" class="edge">
<title>np3.EntityGaibon&#45;&gt;np3.GetDistanceToPlayerX</title>
<path fill="none" stroke="black" d="M2061.03,-179.93C2083.15,-148.43 2130.48,-81.03 2156.32,-44.24"/>
<polygon fill="black" stroke="black" points="2159.21,-46.21 2162.1,-36.02 2153.49,-42.19 2159.21,-46.21"/>
<text text-anchor="middle" x="2157.1" y="-39.82" font-family="Times,serif" font-size="14.00">1</text>
</g>
<!-- np3.GetDistanceToPlayerY -->
<g id="node13" class="node">
<title>np3.GetDistanceToPlayerY</title>
<g id="a_node13"><a xlink:href="np3.GetDistanceToPlayerY.svg" xlink:title="np3.GetDistanceToPlayerY">
<ellipse fill="green" stroke="black" cx="2462.05" cy="-18" rx="134.58" ry="18"/>
<text text-anchor="middle" x="2462.05" y="-14.3" font-family="Times,serif" font-size="14.00">np3.GetDistanceToPlayerY</text>
</a>
</g>
</g>
<!-- np3.EntityGaibon&#45;&gt;np3.GetDistanceToPlayerY -->
<g id="edge12" class="edge">
<title>np3.EntityGaibon&#45;&gt;np3.GetDistanceToPlayerY</title>
<path fill="none" stroke="black" d="M2085.33,-181.36C2160.2,-149.09 2331.72,-75.17 2414.98,-39.29"/>
<polygon fill="black" stroke="black" points="2416.4,-42.48 2424.2,-35.31 2413.63,-36.05 2416.4,-42.48"/>
<text text-anchor="middle" x="2419.2" y="-39.11" font-family="Times,serif" font-size="14.00">1</text>
</g>
<!-- np3.GetSideToPlayer -->
<g id="node14" class="node">
<title>np3.GetSideToPlayer</title>
<g id="a_node14"><a xlink:href="np3.GetSideToPlayer.svg" xlink:title="np3.GetSideToPlayer">
<ellipse fill="green" stroke="black" cx="2723.05" cy="-18" rx="108.58" ry="18"/>
<text text-anchor="middle" x="2723.05" y="-14.3" font-family="Times,serif" font-size="14.00">np3.GetSideToPlayer</text>
</a>
</g>
</g>
<!-- np3.EntityGaibon&#45;&gt;np3.GetSideToPlayer -->
<g id="edge13" class="edge">
<title>np3.EntityGaibon&#45;&gt;np3.GetSideToPlayer</title>
<path fill="none" stroke="black" d="M2101.65,-183.11C2223.49,-150.93 2524.75,-71.37 2657.94,-36.19"/>
<polygon fill="black" stroke="black" points="2659.22,-39.48 2668,-33.54 2657.44,-32.71 2659.22,-39.48"/>
<text text-anchor="middle" x="2663" y="-37.34" font-family="Times,serif" font-size="14.00">7</text>
</g>
<!-- np3.InitializeEntity -->
<g id="node15" class="node">
<title>np3.InitializeEntity</title>
<g id="a_node15"><a xlink:href="np3.InitializeEntity.svg" xlink:title="np3.InitializeEntity">
<ellipse fill="green" stroke="black" cx="2950.05" cy="-18" rx="100.98" ry="18"/>
<text text-anchor="middle" x="2950.05" y="-14.3" font-family="Times,serif" font-size="14.00">np3.InitializeEntity</text>
</a>
</g>
</g>
<!-- np3.EntityGaibon&#45;&gt;np3.InitializeEntity -->
<g id="edge14" class="edge">
<title>np3.EntityGaibon&#45;&gt;np3.InitializeEntity</title>
<path fill="none" stroke="black" d="M2111.69,-184.62C2272.88,-152.78 2701.49,-68.1 2875.28,-33.77"/>
<polygon fill="black" stroke="black" points="2875.98,-37.2 2885.11,-31.83 2874.62,-30.33 2875.98,-37.2"/>
<text text-anchor="middle" x="2880.11" y="-35.63" font-family="Times,serif" font-size="14.00">1</text>
</g>
<!-- np3.MoveEntity -->
<g id="node16" class="node">
<title>np3.MoveEntity</title>
<g id="a_node16"><a xlink:href="np3.MoveEntity.svg" xlink:title="np3.MoveEntity">
<ellipse fill="green" stroke="black" cx="3154.05" cy="-18" rx="85.29" ry="18"/>
<text text-anchor="middle" x="3154.05" y="-14.3" font-family="Times,serif" font-size="14.00">np3.MoveEntity</text>
</a>
</g>
</g>
<!-- np3.EntityGaibon&#45;&gt;np3.MoveEntity -->
<g id="edge15" class="edge">
<title>np3.EntityGaibon&#45;&gt;np3.MoveEntity</title>
<path fill="none" stroke="black" d="M2119.91,-186.24C2284.94,-161.06 2707.64,-95.92 3060.05,-36 3067.18,-34.79 3074.62,-33.49 3082.05,-32.18"/>
<polygon fill="black" stroke="black" points="3082.9,-35.58 3092.14,-30.39 3081.68,-28.69 3082.9,-35.58"/>
<text text-anchor="middle" x="3082.64" y="-34.19" font-family="Times,serif" font-size="14.00">12</text>
</g>
<!-- np3.Random -->
<g id="node17" class="node">
<title>np3.Random</title>
<g id="a_node17"><a xlink:href="np3.Random.svg" xlink:title="np3.Random">
<ellipse fill="green" stroke="black" cx="3327.05" cy="-18" rx="69.59" ry="18"/>
<text text-anchor="middle" x="3327.05" y="-14.3" font-family="Times,serif" font-size="14.00">np3.Random</text>
</a>
</g>
</g>
<!-- np3.EntityGaibon&#45;&gt;np3.Random -->
<g id="edge16" class="edge">
<title>np3.EntityGaibon&#45;&gt;np3.Random</title>
<path fill="none" stroke="black" d="M2128.29,-188.54C2320.83,-167.51 2828.29,-109.23 3248.05,-36 3254.12,-34.94 3260.44,-33.74 3266.74,-32.49"/>
<polygon fill="black" stroke="black" points="3267.49,-35.91 3276.59,-30.47 3266.09,-29.05 3267.49,-35.91"/>
<text text-anchor="middle" x="3271.59" y="-34.27" font-family="Times,serif" font-size="14.00">1</text>
</g>
<!-- np3.SetStep -->
<g id="node18" class="node">
<title>np3.SetStep</title>
<g id="a_node18"><a xlink:href="np3.SetStep.svg" xlink:title="np3.SetStep">
<ellipse fill="green" stroke="black" cx="3483.05" cy="-18" rx="68.49" ry="18"/>
<text text-anchor="middle" x="3483.05" y="-14.3" font-family="Times,serif" font-size="14.00">np3.SetStep</text>
</a>
</g>
</g>
<!-- np3.EntityGaibon&#45;&gt;np3.SetStep -->
<g id="edge17" class="edge">
<title>np3.EntityGaibon&#45;&gt;np3.SetStep</title>
<path fill="none" stroke="black" d="M2132.45,-190.01C2345.52,-171.52 2926.81,-117.13 3406.05,-36 3411.84,-35.02 3417.85,-33.89 3423.85,-32.69"/>
<polygon fill="black" stroke="black" points="3424.81,-36.06 3433.9,-30.61 3423.39,-29.21 3424.81,-36.06"/>
<text text-anchor="middle" x="3424.4" y="-34.41" font-family="Times,serif" font-size="14.00">12</text>
</g>
<!-- np3.SetSubStep -->
<g id="node19" class="node">
<title>np3.SetSubStep</title>
<g id="a_node19"><a xlink:href="np3.SetSubStep.svg" xlink:title="np3.SetSubStep">
<ellipse fill="green" stroke="black" cx="3656.05" cy="-18" rx="86.38" ry="18"/>
<text text-anchor="middle" x="3656.05" y="-14.3" font-family="Times,serif" font-size="14.00">np3.SetSubStep</text>
</a>
</g>
</g>
<!-- np3.EntityGaibon&#45;&gt;np3.SetSubStep -->
<g id="edge18" class="edge">
<title>np3.EntityGaibon&#45;&gt;np3.SetSubStep</title>
<path fill="none" stroke="black" d="M2132.84,-190.12C2361.97,-170.86 3018.05,-112.77 3560.05,-36 3567.91,-34.89 3576.12,-33.61 3584.27,-32.27"/>
<polygon fill="black" stroke="black" points="3584.89,-35.71 3594.18,-30.6 3583.73,-28.81 3584.89,-35.71"/>
<text text-anchor="middle" x="3589.18" y="-34.4" font-family="Times,serif" font-size="14.00">2</text>
</g>
<!-- np3.func_801BC8E4 -->
<g id="node20" class="node">
<title>np3.func_801BC8E4</title>
<g id="a_node20"><a xlink:href="np3.func_801BC8E4.svg" xlink:title="np3.func_801BC8E4">
<ellipse fill="green" stroke="black" cx="3866.05" cy="-18" rx="105.08" ry="18"/>
<text text-anchor="middle" x="3866.05" y="-14.3" font-family="Times,serif" font-size="14.00">np3.func_801BC8E4</text>
</a>
</g>
</g>
<!-- np3.EntityGaibon&#45;&gt;np3.func_801BC8E4 -->
<g id="edge19" class="edge">
<title>np3.EntityGaibon&#45;&gt;np3.func_801BC8E4</title>
<path fill="none" stroke="black" d="M2133.78,-190.57C2382.49,-171.35 3131.91,-110.99 3751.05,-36 3760.74,-34.83 3770.87,-33.49 3780.94,-32.09"/>
<polygon fill="black" stroke="black" points="3781.55,-35.54 3790.96,-30.68 3780.57,-28.61 3781.55,-35.54"/>
<text text-anchor="middle" x="3785.96" y="-34.48" font-family="Times,serif" font-size="14.00">1</text>
</g>
<!-- np3.func_801C2598 -->
<g id="node21" class="node">
<title>np3.func_801C2598</title>
<g id="a_node21"><a xlink:href="np3.func_801C2598.svg" xlink:title="np3.func_801C2598">
<ellipse fill="green" stroke="black" cx="4093.05" cy="-18" rx="103.18" ry="18"/>
<text text-anchor="middle" x="4093.05" y="-14.3" font-family="Times,serif" font-size="14.00">np3.func_801C2598</text>
</a>
</g>
</g>
<!-- np3.EntityGaibon&#45;&gt;np3.func_801C2598 -->
<g id="edge20" class="edge">
<title>np3.EntityGaibon&#45;&gt;np3.func_801C2598</title>
<path fill="none" stroke="black" d="M2136.34,-191.79C2409.24,-175.05 3270.43,-118.87 3980.05,-36 3989.73,-34.87 3999.85,-33.55 4009.9,-32.15"/>
<polygon fill="black" stroke="black" points="4010.49,-35.6 4019.89,-30.73 4009.5,-28.67 4010.49,-35.6"/>
<text text-anchor="middle" x="4014.89" y="-34.53" font-family="Times,serif" font-size="14.00">9</text>
</g>
</g>
</svg>
