<?xml version="1.0" encoding="UTF-8" standalone="no"?>
<!DOCTYPE svg PUBLIC "-//W3C//DTD SVG 1.1//EN"
 "http://www.w3.org/Graphics/SVG/1.1/DTD/svg11.dtd">
<!-- Generated by graphviz version 2.43.0 (0)
 -->
<!-- Title: np3.EntityBoneScimitarParts Pages: 1 -->
<svg width="570pt" height="224pt"
 viewBox="0.00 0.00 570.08 224.00" xmlns="http://www.w3.org/2000/svg" xmlns:xlink="http://www.w3.org/1999/xlink">
<g id="graph0" class="graph" transform="scale(1 1) rotate(0) translate(4 220)">
<title>np3.EntityBoneScimitarParts</title>
<polygon fill="white" stroke="transparent" points="-4,4 -4,-220 566.08,-220 566.08,4 -4,4"/>
<!-- np3.EntityBoneScimitarParts -->
<g id="node1" class="node">
<title>np3.EntityBoneScimitarParts</title>
<ellipse fill="green" stroke="black" cx="257.34" cy="-198" rx="147.57" ry="18"/>
<text text-anchor="middle" x="257.34" y="-194.3" font-family="Times,serif" font-size="14.00">np3.EntityBoneScimitarParts</text>
</g>
<!-- np3.FallEntity -->
<g id="node2" class="node">
<title>np3.FallEntity</title>
<g id="a_node2"><a xlink:href="np3.FallEntity.svg" xlink:title="np3.FallEntity">
<ellipse fill="green" stroke="black" cx="77.34" cy="-18" rx="77.19" ry="18"/>
<text text-anchor="middle" x="77.34" y="-14.3" font-family="Times,serif" font-size="14.00">np3.FallEntity</text>
</a>
</g>
</g>
<!-- np3.EntityBoneScimitarParts&#45;&gt;np3.FallEntity -->
<g id="edge1" class="edge">
<title>np3.EntityBoneScimitarParts&#45;&gt;np3.FallEntity</title>
<path fill="none" stroke="black" d="M240.08,-179.93C207.88,-148.09 138.57,-79.54 101.65,-43.04"/>
<polygon fill="black" stroke="black" points="103.86,-40.3 94.29,-35.76 98.94,-45.28 103.86,-40.3"/>
<text text-anchor="middle" x="89.29" y="-39.56" font-family="Times,serif" font-size="14.00">1</text>
</g>
<!-- np3.MoveEntity -->
<g id="node3" class="node">
<title>np3.MoveEntity</title>
<g id="a_node3"><a xlink:href="np3.MoveEntity.svg" xlink:title="np3.MoveEntity">
<ellipse fill="green" stroke="black" cx="257.34" cy="-18" rx="85.29" ry="18"/>
<text text-anchor="middle" x="257.34" y="-14.3" font-family="Times,serif" font-size="14.00">np3.MoveEntity</text>
</a>
</g>
</g>
<!-- np3.EntityBoneScimitarParts&#45;&gt;np3.MoveEntity -->
<g id="edge2" class="edge">
<title>np3.EntityBoneScimitarParts&#45;&gt;np3.MoveEntity</title>
<path fill="none" stroke="black" d="M257.34,-179.93C257.34,-148.97 257.34,-83.3 257.34,-46.13"/>
<polygon fill="black" stroke="black" points="260.84,-46.02 257.34,-36.02 253.84,-46.02 260.84,-46.02"/>
<text text-anchor="middle" x="252.34" y="-39.82" font-family="Times,serif" font-size="14.00">1</text>
</g>
<!-- np3.InitializeEntity -->
<g id="node4" class="node">
<title>np3.InitializeEntity</title>
<g id="a_node4"><a xlink:href="np3.InitializeEntity.svg" xlink:title="np3.InitializeEntity">
<ellipse fill="green" stroke="black" cx="461.34" cy="-18" rx="100.98" ry="18"/>
<text text-anchor="middle" x="461.34" y="-14.3" font-family="Times,serif" font-size="14.00">np3.InitializeEntity</text>
</a>
</g>
</g>
<!-- np3.EntityBoneScimitarParts&#45;&gt;np3.InitializeEntity -->
<g id="edge3" class="edge">
<title>np3.EntityBoneScimitarParts&#45;&gt;np3.InitializeEntity</title>
<path fill="none" stroke="black" d="M276.9,-179.93C313.63,-147.89 392.94,-78.68 434.58,-42.35"/>
<polygon fill="black" stroke="black" points="436.91,-44.97 442.14,-35.76 432.3,-39.69 436.91,-44.97"/>
<text text-anchor="middle" x="437.14" y="-39.56" font-family="Times,serif" font-size="14.00">1</text>
</g>
</g>
</svg>
