<?xml version="1.0" encoding="UTF-8" standalone="no"?>
<!DOCTYPE svg PUBLIC "-//W3C//DTD SVG 1.1//EN"
 "http://www.w3.org/Graphics/SVG/1.1/DTD/svg11.dtd">
<!-- Generated by graphviz version 2.43.0 (0)
 -->
<!-- Title: np3.func_801BB2F8 Pages: 1 -->
<svg width="644pt" height="218pt"
 viewBox="0.00 0.00 644.37 218.00" xmlns="http://www.w3.org/2000/svg" xmlns:xlink="http://www.w3.org/1999/xlink">
<g id="graph0" class="graph" transform="scale(1 1) rotate(0) translate(4 214)">
<title>np3.func_801BB2F8</title>
<polygon fill="white" stroke="transparent" points="-4,4 -4,-214 640.37,-214 640.37,4 -4,4"/>
<!-- np3.func_801BB2F8 -->
<g id="node1" class="node">
<title>np3.func_801BB2F8</title>
<ellipse fill="green" stroke="black" cx="267.64" cy="-105" rx="104.78" ry="18"/>
<text text-anchor="middle" x="267.64" y="-101.3" font-family="Times,serif" font-size="14.00">np3.func_801BB2F8</text>
</g>
<!-- np3.func_801BB254 -->
<g id="node2" class="node">
<title>np3.func_801BB254</title>
<g id="a_node2"><a xlink:href="np3.func_801BB254.svg" xlink:title="np3.func_801BB254">
<ellipse fill="green" stroke="black" cx="104.64" cy="-18" rx="104.78" ry="18"/>
<text text-anchor="middle" x="104.64" y="-14.3" font-family="Times,serif" font-size="14.00">np3.func_801BB254</text>
</a>
</g>
</g>
<!-- np3.func_801BB2F8&#45;&gt;np3.func_801BB254 -->
<g id="edge1" class="edge">
<title>np3.func_801BB2F8&#45;&gt;np3.func_801BB254</title>
<path fill="none" stroke="black" d="M236.21,-87.61C210.2,-74.04 173.07,-54.68 144.88,-39.98"/>
<polygon fill="black" stroke="black" points="146.18,-36.71 135.7,-35.19 142.94,-42.92 146.18,-36.71"/>
<text text-anchor="middle" x="201.64" y="-57.8" font-family="Times,serif" font-size="14.00">1</text>
</g>
<!-- np3.CreateEntityWhenInHorizontalRange -->
<g id="node3" class="node">
<title>np3.CreateEntityWhenInHorizontalRange</title>
<g id="a_node3"><a xlink:href="np3.CreateEntityWhenInHorizontalRange.svg" xlink:title="np3.CreateEntityWhenInHorizontalRange">
<ellipse fill="green" stroke="black" cx="431.64" cy="-18" rx="204.96" ry="18"/>
<text text-anchor="middle" x="431.64" y="-14.3" font-family="Times,serif" font-size="14.00">np3.CreateEntityWhenInHorizontalRange</text>
</a>
</g>
</g>
<!-- np3.func_801BB2F8&#45;&gt;np3.CreateEntityWhenInHorizontalRange -->
<g id="edge2" class="edge">
<title>np3.func_801BB2F8&#45;&gt;np3.CreateEntityWhenInHorizontalRange</title>
<path fill="none" stroke="black" d="M298.87,-87.81C324.79,-74.38 361.85,-55.17 390.24,-40.46"/>
<polygon fill="black" stroke="black" points="391.85,-43.56 399.12,-35.85 388.63,-37.35 391.85,-43.56"/>
<text text-anchor="middle" x="363.64" y="-57.8" font-family="Times,serif" font-size="14.00">1</text>
</g>
<!-- np3.func_801BB680 -->
<g id="node4" class="node">
<title>np3.func_801BB680</title>
<g id="a_node4"><a xlink:href="np3.func_801BB680.svg" xlink:title="np3.func_801BB680">
<ellipse fill="green" stroke="black" cx="267.64" cy="-192" rx="104.78" ry="18"/>
<text text-anchor="middle" x="267.64" y="-188.3" font-family="Times,serif" font-size="14.00">np3.func_801BB680</text>
</a>
</g>
</g>
<!-- np3.func_801BB680&#45;&gt;np3.func_801BB2F8 -->
<g id="edge3" class="edge">
<title>np3.func_801BB680&#45;&gt;np3.func_801BB2F8</title>
<path fill="none" stroke="black" d="M267.64,-173.8C267.64,-162.16 267.64,-146.55 267.64,-133.24"/>
<polygon fill="black" stroke="black" points="271.14,-133.18 267.64,-123.18 264.14,-133.18 271.14,-133.18"/>
<text text-anchor="middle" x="272.64" y="-144.8" font-family="Times,serif" font-size="14.00">1</text>
</g>
</g>
</svg>
