<?xml version="1.0" encoding="UTF-8" standalone="no"?>
<!DOCTYPE svg PUBLIC "-//W3C//DTD SVG 1.1//EN"
 "http://www.w3.org/Graphics/SVG/1.1/DTD/svg11.dtd">
<!-- Generated by graphviz version 2.43.0 (0)
 -->
<!-- Title: np3.func_801B65FC Pages: 1 -->
<svg width="1239pt" height="224pt"
 viewBox="0.00 0.00 1239.44 224.00" xmlns="http://www.w3.org/2000/svg" xmlns:xlink="http://www.w3.org/1999/xlink">
<g id="graph0" class="graph" transform="scale(1 1) rotate(0) translate(4 220)">
<title>np3.func_801B65FC</title>
<polygon fill="white" stroke="transparent" points="-4,4 -4,-220 1235.44,-220 1235.44,4 -4,4"/>
<!-- np3.func_801B65FC -->
<g id="node1" class="node">
<title>np3.func_801B65FC</title>
<ellipse fill="green" stroke="black" cx="568.9" cy="-198" rx="104.78" ry="18"/>
<text text-anchor="middle" x="568.9" y="-194.3" font-family="Times,serif" font-size="14.00">np3.func_801B65FC</text>
</g>
<!-- main.rcos -->
<g id="node2" class="node">
<title>main.rcos</title>
<g id="a_node2"><a xlink:href="main.rcos.svg" xlink:title="main.rcos">
<ellipse fill="red" stroke="black" cx="55.9" cy="-18" rx="55.79" ry="18"/>
<text text-anchor="middle" x="55.9" y="-14.3" font-family="Times,serif" font-size="14.00">main.rcos</text>
</a>
</g>
</g>
<!-- np3.func_801B65FC&#45;&gt;main.rcos -->
<g id="edge1" class="edge">
<title>np3.func_801B65FC&#45;&gt;main.rcos</title>
<path fill="none" stroke="black" d="M524.71,-181.67C428.38,-148.24 200.21,-69.07 102.08,-35.02"/>
<polygon fill="black" stroke="black" points="103.03,-31.65 92.44,-31.68 100.74,-38.26 103.03,-31.65"/>
<text text-anchor="middle" x="87.44" y="-35.48" font-family="Times,serif" font-size="14.00">1</text>
</g>
<!-- main.rsin -->
<g id="node3" class="node">
<title>main.rsin</title>
<g id="a_node3"><a xlink:href="main.rsin.svg" xlink:title="main.rsin">
<ellipse fill="green" stroke="black" cx="183.9" cy="-18" rx="54.69" ry="18"/>
<text text-anchor="middle" x="183.9" y="-14.3" font-family="Times,serif" font-size="14.00">main.rsin</text>
</a>
</g>
</g>
<!-- np3.func_801B65FC&#45;&gt;main.rsin -->
<g id="edge2" class="edge">
<title>np3.func_801B65FC&#45;&gt;main.rsin</title>
<path fill="none" stroke="black" d="M534.05,-180.89C462.43,-147.78 299.06,-72.25 223.54,-37.33"/>
<polygon fill="black" stroke="black" points="224.89,-34.1 214.34,-33.08 221.95,-40.45 224.89,-34.1"/>
<text text-anchor="middle" x="209.34" y="-36.88" font-family="Times,serif" font-size="14.00">1</text>
</g>
<!-- np3.AnimateEntity -->
<g id="node4" class="node">
<title>np3.AnimateEntity</title>
<g id="a_node4"><a xlink:href="np3.AnimateEntity.svg" xlink:title="np3.AnimateEntity">
<ellipse fill="green" stroke="black" cx="354.9" cy="-18" rx="98.58" ry="18"/>
<text text-anchor="middle" x="354.9" y="-14.3" font-family="Times,serif" font-size="14.00">np3.AnimateEntity</text>
</a>
</g>
</g>
<!-- np3.func_801B65FC&#45;&gt;np3.AnimateEntity -->
<g id="edge3" class="edge">
<title>np3.func_801B65FC&#45;&gt;np3.AnimateEntity</title>
<path fill="none" stroke="black" d="M548.76,-180.25C510.37,-148.32 426.6,-78.65 382.82,-42.23"/>
<polygon fill="black" stroke="black" points="385.06,-39.53 375.13,-35.83 380.58,-44.92 385.06,-39.53"/>
<text text-anchor="middle" x="370.13" y="-39.63" font-family="Times,serif" font-size="14.00">2</text>
</g>
<!-- np3.DestroyEntity -->
<g id="node5" class="node">
<title>np3.DestroyEntity</title>
<g id="a_node5"><a xlink:href="np3.DestroyEntity.svg" xlink:title="np3.DestroyEntity">
<ellipse fill="green" stroke="black" cx="568.9" cy="-18" rx="96.68" ry="18"/>
<text text-anchor="middle" x="568.9" y="-14.3" font-family="Times,serif" font-size="14.00">np3.DestroyEntity</text>
</a>
</g>
</g>
<!-- np3.func_801B65FC&#45;&gt;np3.DestroyEntity -->
<g id="edge4" class="edge">
<title>np3.func_801B65FC&#45;&gt;np3.DestroyEntity</title>
<path fill="none" stroke="black" d="M568.9,-179.93C568.9,-148.97 568.9,-83.3 568.9,-46.13"/>
<polygon fill="black" stroke="black" points="572.4,-46.02 568.9,-36.02 565.4,-46.02 572.4,-46.02"/>
<text text-anchor="middle" x="563.9" y="-39.82" font-family="Times,serif" font-size="14.00">1</text>
</g>
<!-- np3.InitializeEntity -->
<g id="node6" class="node">
<title>np3.InitializeEntity</title>
<g id="a_node6"><a xlink:href="np3.InitializeEntity.svg" xlink:title="np3.InitializeEntity">
<ellipse fill="green" stroke="black" cx="784.9" cy="-18" rx="100.98" ry="18"/>
<text text-anchor="middle" x="784.9" y="-14.3" font-family="Times,serif" font-size="14.00">np3.InitializeEntity</text>
</a>
</g>
</g>
<!-- np3.func_801B65FC&#45;&gt;np3.InitializeEntity -->
<g id="edge5" class="edge">
<title>np3.func_801B65FC&#45;&gt;np3.InitializeEntity</title>
<path fill="none" stroke="black" d="M589.22,-180.25C627.97,-148.32 712.52,-78.65 756.71,-42.23"/>
<polygon fill="black" stroke="black" points="758.98,-44.89 764.47,-35.83 754.53,-39.49 758.98,-44.89"/>
<text text-anchor="middle" x="759.47" y="-39.63" font-family="Times,serif" font-size="14.00">1</text>
</g>
<!-- np3.MoveEntity -->
<g id="node7" class="node">
<title>np3.MoveEntity</title>
<g id="a_node7"><a xlink:href="np3.MoveEntity.svg" xlink:title="np3.MoveEntity">
<ellipse fill="green" stroke="black" cx="988.9" cy="-18" rx="85.29" ry="18"/>
<text text-anchor="middle" x="988.9" y="-14.3" font-family="Times,serif" font-size="14.00">np3.MoveEntity</text>
</a>
</g>
</g>
<!-- np3.func_801B65FC&#45;&gt;np3.MoveEntity -->
<g id="edge6" class="edge">
<title>np3.func_801B65FC&#45;&gt;np3.MoveEntity</title>
<path fill="none" stroke="black" d="M606.54,-181.05C683.8,-148.3 860.01,-73.62 943.46,-38.26"/>
<polygon fill="black" stroke="black" points="944.84,-41.47 952.69,-34.35 942.11,-35.03 944.84,-41.47"/>
<text text-anchor="middle" x="947.69" y="-38.15" font-family="Times,serif" font-size="14.00">2</text>
</g>
<!-- np3.Random -->
<g id="node8" class="node">
<title>np3.Random</title>
<g id="a_node8"><a xlink:href="np3.Random.svg" xlink:title="np3.Random">
<ellipse fill="green" stroke="black" cx="1161.9" cy="-18" rx="69.59" ry="18"/>
<text text-anchor="middle" x="1161.9" y="-14.3" font-family="Times,serif" font-size="14.00">np3.Random</text>
</a>
</g>
</g>
<!-- np3.func_801B65FC&#45;&gt;np3.Random -->
<g id="edge7" class="edge">
<title>np3.func_801B65FC&#45;&gt;np3.Random</title>
<path fill="none" stroke="black" d="M618.43,-182.13C728.81,-149 994.2,-69.34 1108.28,-35.09"/>
<polygon fill="black" stroke="black" points="1109.62,-38.35 1118.19,-32.12 1107.61,-31.64 1109.62,-38.35"/>
<text text-anchor="middle" x="1113.19" y="-35.92" font-family="Times,serif" font-size="14.00">1</text>
</g>
</g>
</svg>
