<?xml version="1.0" encoding="UTF-8" standalone="no"?>
<!DOCTYPE svg PUBLIC "-//W3C//DTD SVG 1.1//EN"
 "http://www.w3.org/Graphics/SVG/1.1/DTD/svg11.dtd">
<!-- Generated by graphviz version 2.43.0 (0)
 -->
<!-- Title: np3.CreateEntityWhenInHorizontalRange Pages: 1 -->
<svg width="444pt" height="218pt"
 viewBox="0.00 0.00 444.28 218.00" xmlns="http://www.w3.org/2000/svg" xmlns:xlink="http://www.w3.org/1999/xlink">
<g id="graph0" class="graph" transform="scale(1 1) rotate(0) translate(4 214)">
<title>np3.CreateEntityWhenInHorizontalRange</title>
<polygon fill="white" stroke="transparent" points="-4,4 -4,-214 440.28,-214 440.28,4 -4,4"/>
<!-- np3.CreateEntityWhenInHorizontalRange -->
<g id="node1" class="node">
<title>np3.CreateEntityWhenInHorizontalRange</title>
<ellipse fill="green" stroke="black" cx="217.64" cy="-105" rx="204.96" ry="18"/>
<text text-anchor="middle" x="217.64" y="-101.3" font-family="Times,serif" font-size="14.00">np3.CreateEntityWhenInHorizontalRange</text>
</g>
<!-- np3.CreateEntityFromLayout -->
<g id="node2" class="node">
<title>np3.CreateEntityFromLayout</title>
<g id="a_node2"><a xlink:href="np3.CreateEntityFromLayout.svg" xlink:title="np3.CreateEntityFromLayout">
<ellipse fill="green" stroke="black" cx="217.64" cy="-18" rx="147.57" ry="18"/>
<text text-anchor="middle" x="217.64" y="-14.3" font-family="Times,serif" font-size="14.00">np3.CreateEntityFromLayout</text>
</a>
</g>
</g>
<!-- np3.CreateEntityWhenInHorizontalRange&#45;&gt;np3.CreateEntityFromLayout -->
<g id="edge1" class="edge">
<title>np3.CreateEntityWhenInHorizontalRange&#45;&gt;np3.CreateEntityFromLayout</title>
<path fill="none" stroke="black" d="M217.64,-86.8C217.64,-75.16 217.64,-59.55 217.64,-46.24"/>
<polygon fill="black" stroke="black" points="221.14,-46.18 217.64,-36.18 214.14,-46.18 221.14,-46.18"/>
<text text-anchor="middle" x="222.64" y="-57.8" font-family="Times,serif" font-size="14.00">1</text>
</g>
<!-- np3.func_801BB2F8 -->
<g id="node3" class="node">
<title>np3.func_801BB2F8</title>
<g id="a_node3"><a xlink:href="np3.func_801BB2F8.svg" xlink:title="np3.func_801BB2F8">
<ellipse fill="green" stroke="black" cx="104.64" cy="-192" rx="104.78" ry="18"/>
<text text-anchor="middle" x="104.64" y="-188.3" font-family="Times,serif" font-size="14.00">np3.func_801BB2F8</text>
</a>
</g>
</g>
<!-- np3.func_801BB2F8&#45;&gt;np3.CreateEntityWhenInHorizontalRange -->
<g id="edge2" class="edge">
<title>np3.func_801BB2F8&#45;&gt;np3.CreateEntityWhenInHorizontalRange</title>
<path fill="none" stroke="black" d="M126.97,-174.21C144.11,-161.31 167.98,-143.36 186.93,-129.1"/>
<polygon fill="black" stroke="black" points="189.09,-131.86 194.98,-123.05 184.88,-126.26 189.09,-131.86"/>
<text text-anchor="middle" x="173.64" y="-144.8" font-family="Times,serif" font-size="14.00">1</text>
</g>
<!-- np3.func_801BB3F4 -->
<g id="node4" class="node">
<title>np3.func_801BB3F4</title>
<g id="a_node4"><a xlink:href="np3.func_801BB3F4.svg" xlink:title="np3.func_801BB3F4">
<ellipse fill="green" stroke="black" cx="331.64" cy="-192" rx="104.78" ry="18"/>
<text text-anchor="middle" x="331.64" y="-188.3" font-family="Times,serif" font-size="14.00">np3.func_801BB3F4</text>
</a>
</g>
</g>
<!-- np3.func_801BB3F4&#45;&gt;np3.CreateEntityWhenInHorizontalRange -->
<g id="edge3" class="edge">
<title>np3.func_801BB3F4&#45;&gt;np3.CreateEntityWhenInHorizontalRange</title>
<path fill="none" stroke="black" d="M309.39,-174.41C292.12,-161.53 267.96,-143.52 248.77,-129.21"/>
<polygon fill="black" stroke="black" points="250.73,-126.3 240.62,-123.13 246.54,-131.91 250.73,-126.3"/>
<text text-anchor="middle" x="286.64" y="-144.8" font-family="Times,serif" font-size="14.00">1</text>
</g>
</g>
</svg>
