<?xml version="1.0" encoding="UTF-8" standalone="no"?>
<!DOCTYPE svg PUBLIC "-//W3C//DTD SVG 1.1//EN"
 "http://www.w3.org/Graphics/SVG/1.1/DTD/svg11.dtd">
<!-- Generated by graphviz version 2.43.0 (0)
 -->
<!-- Title: np3.EntityEquipItemDrop Pages: 1 -->
<svg width="3308pt" height="224pt"
 viewBox="0.00 0.00 3308.33 224.00" xmlns="http://www.w3.org/2000/svg" xmlns:xlink="http://www.w3.org/1999/xlink">
<g id="graph0" class="graph" transform="scale(1 1) rotate(0) translate(4 220)">
<title>np3.EntityEquipItemDrop</title>
<polygon fill="white" stroke="transparent" points="-4,4 -4,-220 3304.33,-220 3304.33,4 -4,4"/>
<!-- np3.EntityEquipItemDrop -->
<g id="node1" class="node">
<title>np3.EntityEquipItemDrop</title>
<ellipse fill="green" stroke="black" cx="1649.69" cy="-198" rx="131.88" ry="18"/>
<text text-anchor="middle" x="1649.69" y="-194.3" font-family="Times,serif" font-size="14.00">np3.EntityEquipItemDrop</text>
</g>
<!-- dra.AddToInventory -->
<g id="node2" class="node">
<title>dra.AddToInventory</title>
<g id="a_node2"><a xlink:href="dra.AddToInventory.svg" xlink:title="dra.AddToInventory">
<ellipse fill="red" stroke="black" cx="102.69" cy="-18" rx="102.88" ry="18"/>
<text text-anchor="middle" x="102.69" y="-14.3" font-family="Times,serif" font-size="14.00">dra.AddToInventory</text>
</a>
</g>
</g>
<!-- np3.EntityEquipItemDrop&#45;&gt;dra.AddToInventory -->
<g id="edge1" class="edge">
<title>np3.EntityEquipItemDrop&#45;&gt;dra.AddToInventory</title>
<path fill="none" stroke="black" d="M1545.98,-186.76C1309.51,-163.11 712.39,-101.67 214.69,-36 205.5,-34.79 195.9,-33.45 186.35,-32.06"/>
<polygon fill="black" stroke="black" points="186.84,-28.6 176.43,-30.61 185.82,-35.52 186.84,-28.6"/>
<text text-anchor="middle" x="171.43" y="-34.41" font-family="Times,serif" font-size="14.00">1</text>
</g>
<!-- dra.AllocPrimitives -->
<g id="node3" class="node">
<title>dra.AllocPrimitives</title>
<g id="a_node3"><a xlink:href="dra.AllocPrimitives.svg" xlink:title="dra.AllocPrimitives">
<ellipse fill="green" stroke="black" cx="322.69" cy="-18" rx="99.38" ry="18"/>
<text text-anchor="middle" x="322.69" y="-14.3" font-family="Times,serif" font-size="14.00">dra.AllocPrimitives</text>
</a>
</g>
</g>
<!-- np3.EntityEquipItemDrop&#45;&gt;dra.AllocPrimitives -->
<g id="edge2" class="edge">
<title>np3.EntityEquipItemDrop&#45;&gt;dra.AllocPrimitives</title>
<path fill="none" stroke="black" d="M1555.6,-185.32C1350.98,-159.76 850.23,-96.29 431.69,-36 423.01,-34.75 413.95,-33.4 404.93,-32.04"/>
<polygon fill="black" stroke="black" points="405.19,-28.53 394.77,-30.48 404.13,-35.45 405.19,-28.53"/>
<text text-anchor="middle" x="389.77" y="-34.28" font-family="Times,serif" font-size="14.00">1</text>
</g>
<!-- dra.CheckCollision -->
<g id="node4" class="node">
<title>dra.CheckCollision</title>
<g id="a_node4"><a xlink:href="dra.CheckCollision.svg" xlink:title="dra.CheckCollision">
<ellipse fill="green" stroke="black" cx="537.69" cy="-18" rx="97.48" ry="18"/>
<text text-anchor="middle" x="537.69" y="-14.3" font-family="Times,serif" font-size="14.00">dra.CheckCollision</text>
</a>
</g>
</g>
<!-- np3.EntityEquipItemDrop&#45;&gt;dra.CheckCollision -->
<g id="edge3" class="edge">
<title>np3.EntityEquipItemDrop&#45;&gt;dra.CheckCollision</title>
<path fill="none" stroke="black" d="M1567.54,-183.86C1395.93,-156.41 986.87,-90.98 643.69,-36 635.56,-34.7 627.07,-33.34 618.6,-31.98"/>
<polygon fill="black" stroke="black" points="619.11,-28.52 608.68,-30.39 618,-35.43 619.11,-28.52"/>
<text text-anchor="middle" x="603.68" y="-34.19" font-family="Times,serif" font-size="14.00">3</text>
</g>
<!-- dra.FreePrimitives -->
<g id="node5" class="node">
<title>dra.FreePrimitives</title>
<g id="a_node5"><a xlink:href="dra.FreePrimitives.svg" xlink:title="dra.FreePrimitives">
<ellipse fill="green" stroke="black" cx="751.69" cy="-18" rx="98.58" ry="18"/>
<text text-anchor="middle" x="751.69" y="-14.3" font-family="Times,serif" font-size="14.00">dra.FreePrimitives</text>
</a>
</g>
</g>
<!-- np3.EntityEquipItemDrop&#45;&gt;dra.FreePrimitives -->
<g id="edge4" class="edge">
<title>np3.EntityEquipItemDrop&#45;&gt;dra.FreePrimitives</title>
<path fill="none" stroke="black" d="M1578.1,-182.81C1410.76,-149.64 995.37,-67.3 825.68,-33.67"/>
<polygon fill="black" stroke="black" points="826.33,-30.23 815.84,-31.72 824.97,-37.09 826.33,-30.23"/>
<text text-anchor="middle" x="810.84" y="-35.52" font-family="Times,serif" font-size="14.00">1</text>
</g>
<!-- dra.LoadEquipIcon -->
<g id="node6" class="node">
<title>dra.LoadEquipIcon</title>
<g id="a_node6"><a xlink:href="dra.LoadEquipIcon.svg" xlink:title="dra.LoadEquipIcon">
<ellipse fill="green" stroke="black" cx="967.69" cy="-18" rx="98.58" ry="18"/>
<text text-anchor="middle" x="967.69" y="-14.3" font-family="Times,serif" font-size="14.00">dra.LoadEquipIcon</text>
</a>
</g>
</g>
<!-- np3.EntityEquipItemDrop&#45;&gt;dra.LoadEquipIcon -->
<g id="edge5" class="edge">
<title>np3.EntityEquipItemDrop&#45;&gt;dra.LoadEquipIcon</title>
<path fill="none" stroke="black" d="M1591.54,-181.82C1464.71,-148.72 1164.01,-70.24 1031.86,-35.75"/>
<polygon fill="black" stroke="black" points="1032.44,-32.28 1021.88,-33.14 1030.68,-39.06 1032.44,-32.28"/>
<text text-anchor="middle" x="1016.88" y="-36.94" font-family="Times,serif" font-size="14.00">1</text>
</g>
<!-- dra.PlaySfx -->
<g id="node7" class="node">
<title>dra.PlaySfx</title>
<g id="a_node7"><a xlink:href="dra.PlaySfx.svg" xlink:title="dra.PlaySfx">
<ellipse fill="green" stroke="black" cx="1148.69" cy="-18" rx="64.19" ry="18"/>
<text text-anchor="middle" x="1148.69" y="-14.3" font-family="Times,serif" font-size="14.00">dra.PlaySfx</text>
</a>
</g>
</g>
<!-- np3.EntityEquipItemDrop&#45;&gt;dra.PlaySfx -->
<g id="edge6" class="edge">
<title>np3.EntityEquipItemDrop&#45;&gt;dra.PlaySfx</title>
<path fill="none" stroke="black" d="M1604.79,-181.05C1510.63,-147.59 1293.26,-70.36 1196.57,-36.01"/>
<polygon fill="black" stroke="black" points="1197.64,-32.68 1187.04,-32.63 1195.29,-39.27 1197.64,-32.68"/>
<text text-anchor="middle" x="1182.04" y="-36.43" font-family="Times,serif" font-size="14.00">1</text>
</g>
<!-- np3.DestroyEntity -->
<g id="node8" class="node">
<title>np3.DestroyEntity</title>
<g id="a_node8"><a xlink:href="np3.DestroyEntity.svg" xlink:title="np3.DestroyEntity">
<ellipse fill="green" stroke="black" cx="1327.69" cy="-18" rx="96.68" ry="18"/>
<text text-anchor="middle" x="1327.69" y="-14.3" font-family="Times,serif" font-size="14.00">np3.DestroyEntity</text>
</a>
</g>
</g>
<!-- np3.EntityEquipItemDrop&#45;&gt;np3.DestroyEntity -->
<g id="edge7" class="edge">
<title>np3.EntityEquipItemDrop&#45;&gt;np3.DestroyEntity</title>
<path fill="none" stroke="black" d="M1619.69,-180.41C1561.06,-148 1431.35,-76.3 1366.37,-40.38"/>
<polygon fill="black" stroke="black" points="1367.71,-37.13 1357.27,-35.35 1364.33,-43.25 1367.71,-37.13"/>
<text text-anchor="middle" x="1352.27" y="-39.15" font-family="Times,serif" font-size="14.00">2</text>
</g>
<!-- np3.EntityPrizeDrop -->
<g id="node9" class="node">
<title>np3.EntityPrizeDrop</title>
<g id="a_node9"><a xlink:href="np3.EntityPrizeDrop.svg" xlink:title="np3.EntityPrizeDrop">
<ellipse fill="green" stroke="black" cx="1548.69" cy="-18" rx="106.68" ry="18"/>
<text text-anchor="middle" x="1548.69" y="-14.3" font-family="Times,serif" font-size="14.00">np3.EntityPrizeDrop</text>
</a>
</g>
</g>
<!-- np3.EntityEquipItemDrop&#45;&gt;np3.EntityPrizeDrop -->
<g id="edge8" class="edge">
<title>np3.EntityEquipItemDrop&#45;&gt;np3.EntityPrizeDrop</title>
<path fill="none" stroke="black" d="M1640.01,-179.93C1622.28,-148.7 1584.53,-82.17 1563.54,-45.18"/>
<polygon fill="black" stroke="black" points="1566.33,-42.99 1558.35,-36.02 1560.24,-46.44 1566.33,-42.99"/>
<text text-anchor="middle" x="1553.35" y="-39.82" font-family="Times,serif" font-size="14.00">1</text>
</g>
<!-- np3.FallEntity -->
<g id="node10" class="node">
<title>np3.FallEntity</title>
<g id="a_node10"><a xlink:href="np3.FallEntity.svg" xlink:title="np3.FallEntity">
<ellipse fill="green" stroke="black" cx="1750.69" cy="-18" rx="77.19" ry="18"/>
<text text-anchor="middle" x="1750.69" y="-14.3" font-family="Times,serif" font-size="14.00">np3.FallEntity</text>
</a>
</g>
</g>
<!-- np3.EntityEquipItemDrop&#45;&gt;np3.FallEntity -->
<g id="edge9" class="edge">
<title>np3.EntityEquipItemDrop&#45;&gt;np3.FallEntity</title>
<path fill="none" stroke="black" d="M1659.38,-179.93C1677.1,-148.7 1714.85,-82.17 1735.84,-45.18"/>
<polygon fill="black" stroke="black" points="1739.14,-46.44 1741.04,-36.02 1733.06,-42.99 1739.14,-46.44"/>
<text text-anchor="middle" x="1736.04" y="-39.82" font-family="Times,serif" font-size="14.00">1</text>
</g>
<!-- np3.InitializeEntity -->
<g id="node11" class="node">
<title>np3.InitializeEntity</title>
<g id="a_node11"><a xlink:href="np3.InitializeEntity.svg" xlink:title="np3.InitializeEntity">
<ellipse fill="green" stroke="black" cx="1946.69" cy="-18" rx="100.98" ry="18"/>
<text text-anchor="middle" x="1946.69" y="-14.3" font-family="Times,serif" font-size="14.00">np3.InitializeEntity</text>
</a>
</g>
</g>
<!-- np3.EntityEquipItemDrop&#45;&gt;np3.InitializeEntity -->
<g id="edge10" class="edge">
<title>np3.EntityEquipItemDrop&#45;&gt;np3.InitializeEntity</title>
<path fill="none" stroke="black" d="M1677.63,-180.25C1731.61,-147.9 1850.19,-76.84 1910.27,-40.83"/>
<polygon fill="black" stroke="black" points="1912.26,-43.71 1919.04,-35.57 1908.66,-37.71 1912.26,-43.71"/>
<text text-anchor="middle" x="1914.04" y="-39.37" font-family="Times,serif" font-size="14.00">1</text>
</g>
<!-- np3.MoveEntity -->
<g id="node12" class="node">
<title>np3.MoveEntity</title>
<g id="a_node12"><a xlink:href="np3.MoveEntity.svg" xlink:title="np3.MoveEntity">
<ellipse fill="green" stroke="black" cx="2150.69" cy="-18" rx="85.29" ry="18"/>
<text text-anchor="middle" x="2150.69" y="-14.3" font-family="Times,serif" font-size="14.00">np3.MoveEntity</text>
</a>
</g>
</g>
<!-- np3.EntityEquipItemDrop&#45;&gt;np3.MoveEntity -->
<g id="edge11" class="edge">
<title>np3.EntityEquipItemDrop&#45;&gt;np3.MoveEntity</title>
<path fill="none" stroke="black" d="M1694.59,-181.05C1787.68,-147.97 2001.21,-72.11 2099.48,-37.19"/>
<polygon fill="black" stroke="black" points="2100.65,-40.49 2108.91,-33.85 2098.31,-33.9 2100.65,-40.49"/>
<text text-anchor="middle" x="2103.91" y="-37.65" font-family="Times,serif" font-size="14.00">1</text>
</g>
<!-- np3.SetStep -->
<g id="node13" class="node">
<title>np3.SetStep</title>
<g id="a_node13"><a xlink:href="np3.SetStep.svg" xlink:title="np3.SetStep">
<ellipse fill="green" stroke="black" cx="2321.69" cy="-18" rx="68.49" ry="18"/>
<text text-anchor="middle" x="2321.69" y="-14.3" font-family="Times,serif" font-size="14.00">np3.SetStep</text>
</a>
</g>
</g>
<!-- np3.EntityEquipItemDrop&#45;&gt;np3.SetStep -->
<g id="edge12" class="edge">
<title>np3.EntityEquipItemDrop&#45;&gt;np3.SetStep</title>
<path fill="none" stroke="black" d="M1707.28,-181.75C1834.64,-148.01 2138.9,-67.42 2265.22,-33.96"/>
<polygon fill="black" stroke="black" points="2266.31,-37.29 2275.09,-31.34 2264.52,-30.52 2266.31,-37.29"/>
<text text-anchor="middle" x="2270.09" y="-35.14" font-family="Times,serif" font-size="14.00">1</text>
</g>
<!-- np3.func_801BD430 -->
<g id="node14" class="node">
<title>np3.func_801BD430</title>
<g id="a_node14"><a xlink:href="np3.func_801BD430.svg" xlink:title="np3.func_801BD430">
<ellipse fill="green" stroke="black" cx="2512.69" cy="-18" rx="104.78" ry="18"/>
<text text-anchor="middle" x="2512.69" y="-14.3" font-family="Times,serif" font-size="14.00">np3.func_801BD430</text>
</a>
</g>
</g>
<!-- np3.EntityEquipItemDrop&#45;&gt;np3.func_801BD430 -->
<g id="edge13" class="edge">
<title>np3.EntityEquipItemDrop&#45;&gt;np3.func_801BD430</title>
<path fill="none" stroke="black" d="M1719.22,-182.66C1879.42,-149.62 2273.38,-68.36 2438.25,-34.35"/>
<polygon fill="black" stroke="black" points="2439.21,-37.73 2448.3,-32.28 2437.8,-30.87 2439.21,-37.73"/>
<text text-anchor="middle" x="2443.3" y="-36.08" font-family="Times,serif" font-size="14.00">1</text>
</g>
<!-- np3.func_801BDA08 -->
<g id="node15" class="node">
<title>np3.func_801BDA08</title>
<g id="a_node15"><a xlink:href="np3.func_801BDA08.svg" xlink:title="np3.func_801BDA08">
<ellipse fill="green" stroke="black" cx="2740.69" cy="-18" rx="105.08" ry="18"/>
<text text-anchor="middle" x="2740.69" y="-14.3" font-family="Times,serif" font-size="14.00">np3.func_801BDA08</text>
</a>
</g>
</g>
<!-- np3.EntityEquipItemDrop&#45;&gt;np3.func_801BDA08 -->
<g id="edge14" class="edge">
<title>np3.EntityEquipItemDrop&#45;&gt;np3.func_801BDA08</title>
<path fill="none" stroke="black" d="M1730.8,-183.77C1932.22,-150.9 2453.6,-65.84 2657.35,-32.6"/>
<polygon fill="black" stroke="black" points="2658.09,-36.02 2667.4,-30.96 2656.96,-29.11 2658.09,-36.02"/>
<text text-anchor="middle" x="2662.4" y="-34.76" font-family="Times,serif" font-size="14.00">2</text>
</g>
<!-- np3.func_801BE864 -->
<g id="node16" class="node">
<title>np3.func_801BE864</title>
<g id="a_node16"><a xlink:href="np3.func_801BE864.svg" xlink:title="np3.func_801BE864">
<ellipse fill="green" stroke="black" cx="2968.69" cy="-18" rx="104.78" ry="18"/>
<text text-anchor="middle" x="2968.69" y="-14.3" font-family="Times,serif" font-size="14.00">np3.func_801BE864</text>
</a>
</g>
</g>
<!-- np3.EntityEquipItemDrop&#45;&gt;np3.func_801BE864 -->
<g id="edge15" class="edge">
<title>np3.EntityEquipItemDrop&#45;&gt;np3.func_801BE864</title>
<path fill="none" stroke="black" d="M1742.35,-185.11C1944.48,-159.06 2440.12,-94.6 2854.69,-36 2863.88,-34.7 2873.48,-33.31 2883.05,-31.91"/>
<polygon fill="black" stroke="black" points="2883.6,-35.37 2892.98,-30.45 2882.58,-28.45 2883.6,-35.37"/>
<text text-anchor="middle" x="2887.98" y="-34.25" font-family="Times,serif" font-size="14.00">1</text>
</g>
<!-- np3.func_801C3E14 -->
<g id="node17" class="node">
<title>np3.func_801C3E14</title>
<g id="a_node17"><a xlink:href="np3.func_801C3E14.svg" xlink:title="np3.func_801C3E14">
<ellipse fill="red" stroke="black" cx="3195.69" cy="-18" rx="104.78" ry="18"/>
<text text-anchor="middle" x="3195.69" y="-14.3" font-family="Times,serif" font-size="14.00">np3.func_801C3E14</text>
</a>
</g>
</g>
<!-- np3.EntityEquipItemDrop&#45;&gt;np3.func_801C3E14 -->
<g id="edge16" class="edge">
<title>np3.EntityEquipItemDrop&#45;&gt;np3.func_801C3E14</title>
<path fill="none" stroke="black" d="M1752.81,-186.75C1988.63,-163.03 2585.32,-101.33 3082.69,-36 3091.89,-34.79 3101.5,-33.46 3111.06,-32.08"/>
<polygon fill="black" stroke="black" points="3111.59,-35.54 3120.98,-30.64 3110.58,-28.62 3111.59,-35.54"/>
<text text-anchor="middle" x="3115.98" y="-34.44" font-family="Times,serif" font-size="14.00">1</text>
</g>
</g>
</svg>
