<?xml version="1.0" encoding="UTF-8" standalone="no"?>
<!DOCTYPE svg PUBLIC "-//W3C//DTD SVG 1.1//EN"
 "http://www.w3.org/Graphics/SVG/1.1/DTD/svg11.dtd">
<!-- Generated by graphviz version 2.43.0 (0)
 -->
<!-- Title: np3.func_801CE120 Pages: 1 -->
<svg width="1065pt" height="404pt"
 viewBox="0.00 0.00 1065.03 404.00" xmlns="http://www.w3.org/2000/svg" xmlns:xlink="http://www.w3.org/1999/xlink">
<g id="graph0" class="graph" transform="scale(1 1) rotate(0) translate(4 400)">
<title>np3.func_801CE120</title>
<polygon fill="white" stroke="transparent" points="-4,4 -4,-400 1061.03,-400 1061.03,4 -4,4"/>
<!-- np3.func_801CE120 -->
<g id="node1" class="node">
<title>np3.func_801CE120</title>
<ellipse fill="green" stroke="black" cx="558.59" cy="-198" rx="104.78" ry="18"/>
<text text-anchor="middle" x="558.59" y="-194.3" font-family="Times,serif" font-size="14.00">np3.func_801CE120</text>
</g>
<!-- g_api_CheckCollision -->
<g id="node2" class="node">
<title>g_api_CheckCollision</title>
<g id="a_node2"><a xlink:href="g_api_CheckCollision.svg" xlink:title="g_api_CheckCollision">
<ellipse fill="lightblue" stroke="black" cx="558.59" cy="-18" rx="107.78" ry="18"/>
<text text-anchor="middle" x="558.59" y="-14.3" font-family="Times,serif" font-size="14.00">g_api_CheckCollision</text>
</a>
</g>
</g>
<!-- np3.func_801CE120&#45;&gt;g_api_CheckCollision -->
<g id="edge1" class="edge">
<title>np3.func_801CE120&#45;&gt;g_api_CheckCollision</title>
<path fill="none" stroke="black" d="M558.59,-179.93C558.59,-148.97 558.59,-83.3 558.59,-46.13"/>
<polygon fill="black" stroke="black" points="562.09,-46.02 558.59,-36.02 555.09,-46.02 562.09,-46.02"/>
<text text-anchor="middle" x="553.59" y="-39.82" font-family="Times,serif" font-size="14.00">2</text>
</g>
<!-- np3.func_801CE4CC -->
<g id="node3" class="node">
<title>np3.func_801CE4CC</title>
<g id="a_node3"><a xlink:href="np3.func_801CE4CC.svg" xlink:title="np3.func_801CE4CC">
<ellipse fill="green" stroke="black" cx="106.59" cy="-378" rx="106.68" ry="18"/>
<text text-anchor="middle" x="106.59" y="-374.3" font-family="Times,serif" font-size="14.00">np3.func_801CE4CC</text>
</a>
</g>
</g>
<!-- np3.func_801CE4CC&#45;&gt;np3.func_801CE120 -->
<g id="edge2" class="edge">
<title>np3.func_801CE4CC&#45;&gt;np3.func_801CE120</title>
<path fill="none" stroke="black" d="M146.7,-361.2C229.46,-328.61 418.93,-254 509.12,-218.48"/>
<polygon fill="black" stroke="black" points="510.55,-221.68 518.57,-214.76 507.98,-215.17 510.55,-221.68"/>
<text text-anchor="middle" x="141.7" y="-350" font-family="Times,serif" font-size="14.00">2</text>
</g>
<!-- np3.func_801CF7A0 -->
<g id="node4" class="node">
<title>np3.func_801CF7A0</title>
<g id="a_node4"><a xlink:href="np3.func_801CF7A0.svg" xlink:title="np3.func_801CF7A0">
<ellipse fill="red" stroke="black" cx="335.59" cy="-378" rx="104.78" ry="18"/>
<text text-anchor="middle" x="335.59" y="-374.3" font-family="Times,serif" font-size="14.00">np3.func_801CF7A0</text>
</a>
</g>
</g>
<!-- np3.func_801CF7A0&#45;&gt;np3.func_801CE120 -->
<g id="edge3" class="edge">
<title>np3.func_801CF7A0&#45;&gt;np3.func_801CE120</title>
<path fill="none" stroke="black" d="M356.57,-360.25C396.58,-328.32 483.87,-258.65 529.49,-222.23"/>
<polygon fill="black" stroke="black" points="531.87,-224.8 537.5,-215.83 527.51,-219.33 531.87,-224.8"/>
<text text-anchor="middle" x="351.57" y="-349.05" font-family="Times,serif" font-size="14.00">1</text>
</g>
<!-- np3.EntityHammer -->
<g id="node5" class="node">
<title>np3.EntityHammer</title>
<g id="a_node5"><a xlink:href="np3.EntityHammer.svg" xlink:title="np3.EntityHammer">
<ellipse fill="red" stroke="black" cx="558.59" cy="-378" rx="100.98" ry="18"/>
<text text-anchor="middle" x="558.59" y="-374.3" font-family="Times,serif" font-size="14.00">np3.EntityHammer</text>
</a>
</g>
</g>
<!-- np3.EntityHammer&#45;&gt;np3.func_801CE120 -->
<g id="edge4" class="edge">
<title>np3.EntityHammer&#45;&gt;np3.func_801CE120</title>
<path fill="none" stroke="black" d="M558.59,-359.93C558.59,-328.97 558.59,-263.3 558.59,-226.13"/>
<polygon fill="black" stroke="black" points="562.09,-226.02 558.59,-216.02 555.09,-226.02 562.09,-226.02"/>
<text text-anchor="middle" x="553.59" y="-348.73" font-family="Times,serif" font-size="14.00">1</text>
</g>
<!-- np3.EntityGurkha -->
<g id="node6" class="node">
<title>np3.EntityGurkha</title>
<g id="a_node6"><a xlink:href="np3.EntityGurkha.svg" xlink:title="np3.EntityGurkha">
<ellipse fill="red" stroke="black" cx="771.59" cy="-378" rx="94.48" ry="18"/>
<text text-anchor="middle" x="771.59" y="-374.3" font-family="Times,serif" font-size="14.00">np3.EntityGurkha</text>
</a>
</g>
</g>
<!-- np3.EntityGurkha&#45;&gt;np3.func_801CE120 -->
<g id="edge5" class="edge">
<title>np3.EntityGurkha&#45;&gt;np3.func_801CE120</title>
<path fill="none" stroke="black" d="M751.55,-360.25C713.41,-328.38 630.31,-258.94 586.66,-222.45"/>
<polygon fill="black" stroke="black" points="588.65,-219.56 578.73,-215.83 584.16,-224.93 588.65,-219.56"/>
<text text-anchor="middle" x="746.55" y="-349.05" font-family="Times,serif" font-size="14.00">1</text>
</g>
<!-- np3.EntityBlade -->
<g id="node7" class="node">
<title>np3.EntityBlade</title>
<g id="a_node7"><a xlink:href="np3.EntityBlade.svg" xlink:title="np3.EntityBlade">
<ellipse fill="red" stroke="black" cx="970.59" cy="-378" rx="86.38" ry="18"/>
<text text-anchor="middle" x="970.59" y="-374.3" font-family="Times,serif" font-size="14.00">np3.EntityBlade</text>
</a>
</g>
</g>
<!-- np3.EntityBlade&#45;&gt;np3.func_801CE120 -->
<g id="edge6" class="edge">
<title>np3.EntityBlade&#45;&gt;np3.func_801CE120</title>
<path fill="none" stroke="black" d="M934.75,-361.52C860.08,-329.26 687.92,-254.88 604.95,-219.03"/>
<polygon fill="black" stroke="black" points="606.1,-215.71 595.53,-214.96 603.32,-222.14 606.1,-215.71"/>
<text text-anchor="middle" x="929.75" y="-350.32" font-family="Times,serif" font-size="14.00">4</text>
</g>
</g>
</svg>
