<?xml version="1.0" encoding="UTF-8" standalone="no"?>
<!DOCTYPE svg PUBLIC "-//W3C//DTD SVG 1.1//EN"
 "http://www.w3.org/Graphics/SVG/1.1/DTD/svg11.dtd">
<!-- Generated by graphviz version 2.43.0 (0)
 -->
<!-- Title: np3.EntitySmallGaibonProjectile Pages: 1 -->
<svg width="870pt" height="224pt"
 viewBox="0.00 0.00 870.04 224.00" xmlns="http://www.w3.org/2000/svg" xmlns:xlink="http://www.w3.org/1999/xlink">
<g id="graph0" class="graph" transform="scale(1 1) rotate(0) translate(4 220)">
<title>np3.EntitySmallGaibonProjectile</title>
<polygon fill="white" stroke="transparent" points="-4,4 -4,-220 866.04,-220 866.04,4 -4,4"/>
<!-- np3.EntitySmallGaibonProjectile -->
<g id="node1" class="node">
<title>np3.EntitySmallGaibonProjectile</title>
<ellipse fill="green" stroke="black" cx="354.9" cy="-198" rx="163.27" ry="18"/>
<text text-anchor="middle" x="354.9" y="-194.3" font-family="Times,serif" font-size="14.00">np3.EntitySmallGaibonProjectile</text>
</g>
<!-- main.rcos -->
<g id="node2" class="node">
<title>main.rcos</title>
<g id="a_node2"><a xlink:href="main.rcos.svg" xlink:title="main.rcos">
<ellipse fill="red" stroke="black" cx="55.9" cy="-18" rx="55.79" ry="18"/>
<text text-anchor="middle" x="55.9" y="-14.3" font-family="Times,serif" font-size="14.00">main.rcos</text>
</a>
</g>
</g>
<!-- np3.EntitySmallGaibonProjectile&#45;&gt;main.rcos -->
<g id="edge1" class="edge">
<title>np3.EntitySmallGaibonProjectile&#45;&gt;main.rcos</title>
<path fill="none" stroke="black" d="M326.77,-180.25C271.73,-147.49 150,-75.02 90.28,-39.47"/>
<polygon fill="black" stroke="black" points="91.98,-36.41 81.6,-34.3 88.4,-42.42 91.98,-36.41"/>
<text text-anchor="middle" x="76.6" y="-38.1" font-family="Times,serif" font-size="14.00">1</text>
</g>
<!-- main.rsin -->
<g id="node3" class="node">
<title>main.rsin</title>
<g id="a_node3"><a xlink:href="main.rsin.svg" xlink:title="main.rsin">
<ellipse fill="green" stroke="black" cx="183.9" cy="-18" rx="54.69" ry="18"/>
<text text-anchor="middle" x="183.9" y="-14.3" font-family="Times,serif" font-size="14.00">main.rsin</text>
</a>
</g>
</g>
<!-- np3.EntitySmallGaibonProjectile&#45;&gt;main.rsin -->
<g id="edge2" class="edge">
<title>np3.EntitySmallGaibonProjectile&#45;&gt;main.rsin</title>
<path fill="none" stroke="black" d="M338.5,-179.93C307.83,-148.01 241.72,-79.19 206.72,-42.76"/>
<polygon fill="black" stroke="black" points="209.2,-40.28 199.74,-35.5 204.15,-45.13 209.2,-40.28"/>
<text text-anchor="middle" x="194.74" y="-39.3" font-family="Times,serif" font-size="14.00">1</text>
</g>
<!-- np3.AnimateEntity -->
<g id="node4" class="node">
<title>np3.AnimateEntity</title>
<g id="a_node4"><a xlink:href="np3.AnimateEntity.svg" xlink:title="np3.AnimateEntity">
<ellipse fill="green" stroke="black" cx="354.9" cy="-18" rx="98.58" ry="18"/>
<text text-anchor="middle" x="354.9" y="-14.3" font-family="Times,serif" font-size="14.00">np3.AnimateEntity</text>
</a>
</g>
</g>
<!-- np3.EntitySmallGaibonProjectile&#45;&gt;np3.AnimateEntity -->
<g id="edge3" class="edge">
<title>np3.EntitySmallGaibonProjectile&#45;&gt;np3.AnimateEntity</title>
<path fill="none" stroke="black" d="M354.9,-179.93C354.9,-148.97 354.9,-83.3 354.9,-46.13"/>
<polygon fill="black" stroke="black" points="358.4,-46.02 354.9,-36.02 351.4,-46.02 358.4,-46.02"/>
<text text-anchor="middle" x="349.9" y="-39.82" font-family="Times,serif" font-size="14.00">1</text>
</g>
<!-- np3.InitializeEntity -->
<g id="node5" class="node">
<title>np3.InitializeEntity</title>
<g id="a_node5"><a xlink:href="np3.InitializeEntity.svg" xlink:title="np3.InitializeEntity">
<ellipse fill="green" stroke="black" cx="572.9" cy="-18" rx="100.98" ry="18"/>
<text text-anchor="middle" x="572.9" y="-14.3" font-family="Times,serif" font-size="14.00">np3.InitializeEntity</text>
</a>
</g>
</g>
<!-- np3.EntitySmallGaibonProjectile&#45;&gt;np3.InitializeEntity -->
<g id="edge4" class="edge">
<title>np3.EntitySmallGaibonProjectile&#45;&gt;np3.InitializeEntity</title>
<path fill="none" stroke="black" d="M375.8,-179.93C415.13,-147.82 500.15,-78.39 544.57,-42.13"/>
<polygon fill="black" stroke="black" points="546.84,-44.79 552.37,-35.76 542.41,-39.37 546.84,-44.79"/>
<text text-anchor="middle" x="547.37" y="-39.56" font-family="Times,serif" font-size="14.00">1</text>
</g>
<!-- np3.MoveEntity -->
<g id="node6" class="node">
<title>np3.MoveEntity</title>
<g id="a_node6"><a xlink:href="np3.MoveEntity.svg" xlink:title="np3.MoveEntity">
<ellipse fill="green" stroke="black" cx="776.9" cy="-18" rx="85.29" ry="18"/>
<text text-anchor="middle" x="776.9" y="-14.3" font-family="Times,serif" font-size="14.00">np3.MoveEntity</text>
</a>
</g>
</g>
<!-- np3.EntitySmallGaibonProjectile&#45;&gt;np3.MoveEntity -->
<g id="edge5" class="edge">
<title>np3.EntitySmallGaibonProjectile&#45;&gt;np3.MoveEntity</title>
<path fill="none" stroke="black" d="M394.22,-180.41C472.55,-147.37 647.7,-73.5 731.08,-38.33"/>
<polygon fill="black" stroke="black" points="732.69,-41.45 740.54,-34.33 729.97,-35 732.69,-41.45"/>
<text text-anchor="middle" x="735.54" y="-38.13" font-family="Times,serif" font-size="14.00">1</text>
</g>
</g>
</svg>
