<?xml version="1.0" encoding="UTF-8" standalone="no"?>
<!DOCTYPE svg PUBLIC "-//W3C//DTD SVG 1.1//EN"
 "http://www.w3.org/Graphics/SVG/1.1/DTD/svg11.dtd">
<!-- Generated by graphviz version 2.43.0 (0)
 -->
<!-- Title: np3.EntitySwitch Pages: 1 -->
<svg width="583pt" height="131pt"
 viewBox="0.00 0.00 582.99 131.00" xmlns="http://www.w3.org/2000/svg" xmlns:xlink="http://www.w3.org/1999/xlink">
<g id="graph0" class="graph" transform="scale(1 1) rotate(0) translate(4 127)">
<title>np3.EntitySwitch</title>
<polygon fill="white" stroke="transparent" points="-4,4 -4,-127 578.99,-127 578.99,4 -4,4"/>
<!-- np3.EntitySwitch -->
<g id="node1" class="node">
<title>np3.EntitySwitch</title>
<ellipse fill="red" stroke="black" cx="327.64" cy="-105" rx="91.78" ry="18"/>
<text text-anchor="middle" x="327.64" y="-101.3" font-family="Times,serif" font-size="14.00">np3.EntitySwitch</text>
</g>
<!-- np3.func_801BD588 -->
<g id="node2" class="node">
<title>np3.func_801BD588</title>
<g id="a_node2"><a xlink:href="np3.func_801BD588.svg" xlink:title="np3.func_801BD588">
<ellipse fill="red" stroke="black" cx="104.64" cy="-18" rx="104.78" ry="18"/>
<text text-anchor="middle" x="104.64" y="-14.3" font-family="Times,serif" font-size="14.00">np3.func_801BD588</text>
</a>
</g>
</g>
<!-- np3.EntitySwitch&#45;&gt;np3.func_801BD588 -->
<g id="edge1" class="edge">
<title>np3.EntitySwitch&#45;&gt;np3.func_801BD588</title>
<path fill="none" stroke="black" d="M287.52,-88.71C250.44,-74.58 195.22,-53.52 155.16,-38.25"/>
<polygon fill="black" stroke="black" points="156.17,-34.89 145.57,-34.6 153.67,-41.43 156.17,-34.89"/>
<text text-anchor="middle" x="234.64" y="-57.8" font-family="Times,serif" font-size="14.00">1</text>
</g>
<!-- np3.InitializeEntity -->
<g id="node3" class="node">
<title>np3.InitializeEntity</title>
<g id="a_node3"><a xlink:href="np3.InitializeEntity.svg" xlink:title="np3.InitializeEntity">
<ellipse fill="green" stroke="black" cx="327.64" cy="-18" rx="100.98" ry="18"/>
<text text-anchor="middle" x="327.64" y="-14.3" font-family="Times,serif" font-size="14.00">np3.InitializeEntity</text>
</a>
</g>
</g>
<!-- np3.EntitySwitch&#45;&gt;np3.InitializeEntity -->
<g id="edge2" class="edge">
<title>np3.EntitySwitch&#45;&gt;np3.InitializeEntity</title>
<path fill="none" stroke="black" d="M327.64,-86.8C327.64,-75.16 327.64,-59.55 327.64,-46.24"/>
<polygon fill="black" stroke="black" points="331.14,-46.18 327.64,-36.18 324.14,-46.18 331.14,-46.18"/>
<text text-anchor="middle" x="332.64" y="-57.8" font-family="Times,serif" font-size="14.00">1</text>
</g>
<!-- dra.PlaySfx -->
<g id="node4" class="node">
<title>dra.PlaySfx</title>
<g id="a_node4"><a xlink:href="dra.PlaySfx.svg" xlink:title="dra.PlaySfx">
<ellipse fill="green" stroke="black" cx="510.64" cy="-18" rx="64.19" ry="18"/>
<text text-anchor="middle" x="510.64" y="-14.3" font-family="Times,serif" font-size="14.00">dra.PlaySfx</text>
</a>
</g>
</g>
<!-- np3.EntitySwitch&#45;&gt;dra.PlaySfx -->
<g id="edge3" class="edge">
<title>np3.EntitySwitch&#45;&gt;dra.PlaySfx</title>
<path fill="none" stroke="black" d="M361.63,-88.21C392.21,-74.01 437.19,-53.12 469.73,-38"/>
<polygon fill="black" stroke="black" points="471.38,-41.1 478.97,-33.71 468.43,-34.75 471.38,-41.1"/>
<text text-anchor="middle" x="435.64" y="-57.8" font-family="Times,serif" font-size="14.00">1</text>
</g>
</g>
</svg>
