<?xml version="1.0" encoding="UTF-8" standalone="no"?>
<!DOCTYPE svg PUBLIC "-//W3C//DTD SVG 1.1//EN"
 "http://www.w3.org/Graphics/SVG/1.1/DTD/svg11.dtd">
<!-- Generated by graphviz version 2.43.0 (0)
 -->
<!-- Title: np3.func_801C5F58 Pages: 1 -->
<svg width="984pt" height="131pt"
 viewBox="0.00 0.00 983.58 131.00" xmlns="http://www.w3.org/2000/svg" xmlns:xlink="http://www.w3.org/1999/xlink">
<g id="graph0" class="graph" transform="scale(1 1) rotate(0) translate(4 127)">
<title>np3.func_801C5F58</title>
<polygon fill="white" stroke="transparent" points="-4,4 -4,-127 979.58,-127 979.58,4 -4,4"/>
<!-- np3.func_801C5F58 -->
<g id="node1" class="node">
<title>np3.func_801C5F58</title>
<ellipse fill="red" stroke="black" cx="505.74" cy="-105" rx="103.98" ry="18"/>
<text text-anchor="middle" x="505.74" y="-101.3" font-family="Times,serif" font-size="14.00">np3.func_801C5F58</text>
</g>
<!-- np3.InitializeEntity -->
<g id="node2" class="node">
<title>np3.InitializeEntity</title>
<g id="a_node2"><a xlink:href="np3.InitializeEntity.svg" xlink:title="np3.InitializeEntity">
<ellipse fill="green" stroke="black" cx="100.74" cy="-18" rx="100.98" ry="18"/>
<text text-anchor="middle" x="100.74" y="-14.3" font-family="Times,serif" font-size="14.00">np3.InitializeEntity</text>
</a>
</g>
</g>
<!-- np3.func_801C5F58&#45;&gt;np3.InitializeEntity -->
<g id="edge1" class="edge">
<title>np3.func_801C5F58&#45;&gt;np3.InitializeEntity</title>
<path fill="none" stroke="black" d="M442.01,-90.63C369.1,-75.32 249.95,-50.31 173.47,-34.26"/>
<polygon fill="black" stroke="black" points="173.94,-30.79 163.43,-32.16 172.5,-37.64 173.94,-30.79"/>
<text text-anchor="middle" x="332.74" y="-57.8" font-family="Times,serif" font-size="14.00">1</text>
</g>
<!-- dra.AllocPrimitives -->
<g id="node3" class="node">
<title>dra.AllocPrimitives</title>
<g id="a_node3"><a xlink:href="dra.AllocPrimitives.svg" xlink:title="dra.AllocPrimitives">
<ellipse fill="green" stroke="black" cx="318.74" cy="-18" rx="99.38" ry="18"/>
<text text-anchor="middle" x="318.74" y="-14.3" font-family="Times,serif" font-size="14.00">dra.AllocPrimitives</text>
</a>
</g>
</g>
<!-- np3.func_801C5F58&#45;&gt;dra.AllocPrimitives -->
<g id="edge2" class="edge">
<title>np3.func_801C5F58&#45;&gt;dra.AllocPrimitives</title>
<path fill="none" stroke="black" d="M470.57,-88.01C440.14,-74.18 395.99,-54.11 363.13,-39.18"/>
<polygon fill="black" stroke="black" points="364.31,-35.87 353.76,-34.92 361.41,-42.24 364.31,-35.87"/>
<text text-anchor="middle" x="428.74" y="-57.8" font-family="Times,serif" font-size="14.00">1</text>
</g>
<!-- np3.Random -->
<g id="node4" class="node">
<title>np3.Random</title>
<g id="a_node4"><a xlink:href="np3.Random.svg" xlink:title="np3.Random">
<ellipse fill="green" stroke="black" cx="505.74" cy="-18" rx="69.59" ry="18"/>
<text text-anchor="middle" x="505.74" y="-14.3" font-family="Times,serif" font-size="14.00">np3.Random</text>
</a>
</g>
</g>
<!-- np3.func_801C5F58&#45;&gt;np3.Random -->
<g id="edge3" class="edge">
<title>np3.func_801C5F58&#45;&gt;np3.Random</title>
<path fill="none" stroke="black" d="M505.74,-86.8C505.74,-75.16 505.74,-59.55 505.74,-46.24"/>
<polygon fill="black" stroke="black" points="509.24,-46.18 505.74,-36.18 502.24,-46.18 509.24,-46.18"/>
<text text-anchor="middle" x="510.74" y="-57.8" font-family="Times,serif" font-size="14.00">3</text>
</g>
<!-- np3.MoveEntity -->
<g id="node5" class="node">
<title>np3.MoveEntity</title>
<g id="a_node5"><a xlink:href="np3.MoveEntity.svg" xlink:title="np3.MoveEntity">
<ellipse fill="green" stroke="black" cx="678.74" cy="-18" rx="85.29" ry="18"/>
<text text-anchor="middle" x="678.74" y="-14.3" font-family="Times,serif" font-size="14.00">np3.MoveEntity</text>
</a>
</g>
</g>
<!-- np3.func_801C5F58&#45;&gt;np3.MoveEntity -->
<g id="edge4" class="edge">
<title>np3.func_801C5F58&#45;&gt;np3.MoveEntity</title>
<path fill="none" stroke="black" d="M538.69,-87.81C566.85,-73.97 607.5,-54 637.76,-39.13"/>
<polygon fill="black" stroke="black" points="639.36,-42.25 646.79,-34.7 636.27,-35.97 639.36,-42.25"/>
<text text-anchor="middle" x="607.74" y="-57.8" font-family="Times,serif" font-size="14.00">1</text>
</g>
<!-- np3.DestroyEntity -->
<g id="node6" class="node">
<title>np3.DestroyEntity</title>
<g id="a_node6"><a xlink:href="np3.DestroyEntity.svg" xlink:title="np3.DestroyEntity">
<ellipse fill="green" stroke="black" cx="878.74" cy="-18" rx="96.68" ry="18"/>
<text text-anchor="middle" x="878.74" y="-14.3" font-family="Times,serif" font-size="14.00">np3.DestroyEntity</text>
</a>
</g>
</g>
<!-- np3.func_801C5F58&#45;&gt;np3.DestroyEntity -->
<g id="edge5" class="edge">
<title>np3.func_801C5F58&#45;&gt;np3.DestroyEntity</title>
<path fill="none" stroke="black" d="M566.08,-90.25C632.8,-75.04 740.07,-50.6 809.99,-34.67"/>
<polygon fill="black" stroke="black" points="811.05,-38.02 820.02,-32.38 809.49,-31.19 811.05,-38.02"/>
<text text-anchor="middle" x="719.74" y="-57.8" font-family="Times,serif" font-size="14.00">1</text>
</g>
</g>
</svg>
