<?xml version="1.0" encoding="UTF-8" standalone="no"?>
<!DOCTYPE svg PUBLIC "-//W3C//DTD SVG 1.1//EN"
 "http://www.w3.org/Graphics/SVG/1.1/DTD/svg11.dtd">
<!-- Generated by graphviz version 2.43.0 (0)
 -->
<!-- Title: np3.func_801B653C Pages: 1 -->
<svg width="637pt" height="404pt"
 viewBox="0.00 0.00 637.48 404.00" xmlns="http://www.w3.org/2000/svg" xmlns:xlink="http://www.w3.org/1999/xlink">
<g id="graph0" class="graph" transform="scale(1 1) rotate(0) translate(4 400)">
<title>np3.func_801B653C</title>
<polygon fill="white" stroke="transparent" points="-4,4 -4,-400 633.48,-400 633.48,4 -4,4"/>
<!-- np3.func_801B653C -->
<g id="node1" class="node">
<title>np3.func_801B653C</title>
<ellipse fill="green" stroke="black" cx="239.54" cy="-198" rx="104.78" ry="18"/>
<text text-anchor="middle" x="239.54" y="-194.3" font-family="Times,serif" font-size="14.00">np3.func_801B653C</text>
</g>
<!-- np3.Random -->
<g id="node2" class="node">
<title>np3.Random</title>
<g id="a_node2"><a xlink:href="np3.Random.svg" xlink:title="np3.Random">
<ellipse fill="green" stroke="black" cx="69.54" cy="-18" rx="69.59" ry="18"/>
<text text-anchor="middle" x="69.54" y="-14.3" font-family="Times,serif" font-size="14.00">np3.Random</text>
</a>
</g>
</g>
<!-- np3.func_801B653C&#45;&gt;np3.Random -->
<g id="edge1" class="edge">
<title>np3.func_801B653C&#45;&gt;np3.Random</title>
<path fill="none" stroke="black" d="M223.24,-179.93C192.83,-148.09 127.37,-79.54 92.5,-43.04"/>
<polygon fill="black" stroke="black" points="94.98,-40.57 85.55,-35.76 89.92,-45.4 94.98,-40.57"/>
<text text-anchor="middle" x="80.55" y="-39.56" font-family="Times,serif" font-size="14.00">2</text>
</g>
<!-- np3.AllocEntity -->
<g id="node3" class="node">
<title>np3.AllocEntity</title>
<g id="a_node3"><a xlink:href="np3.AllocEntity.svg" xlink:title="np3.AllocEntity">
<ellipse fill="green" stroke="black" cx="239.54" cy="-18" rx="82.59" ry="18"/>
<text text-anchor="middle" x="239.54" y="-14.3" font-family="Times,serif" font-size="14.00">np3.AllocEntity</text>
</a>
</g>
</g>
<!-- np3.func_801B653C&#45;&gt;np3.AllocEntity -->
<g id="edge2" class="edge">
<title>np3.func_801B653C&#45;&gt;np3.AllocEntity</title>
<path fill="none" stroke="black" d="M239.54,-179.93C239.54,-148.97 239.54,-83.3 239.54,-46.13"/>
<polygon fill="black" stroke="black" points="243.04,-46.02 239.54,-36.02 236.04,-46.02 243.04,-46.02"/>
<text text-anchor="middle" x="234.54" y="-39.82" font-family="Times,serif" font-size="14.00">1</text>
</g>
<!-- np3.CreateEntityFromEntity -->
<g id="node4" class="node">
<title>np3.CreateEntityFromEntity</title>
<g id="a_node4"><a xlink:href="np3.CreateEntityFromEntity.svg" xlink:title="np3.CreateEntityFromEntity">
<ellipse fill="green" stroke="black" cx="484.54" cy="-18" rx="144.87" ry="18"/>
<text text-anchor="middle" x="484.54" y="-14.3" font-family="Times,serif" font-size="14.00">np3.CreateEntityFromEntity</text>
</a>
</g>
</g>
<!-- np3.func_801B653C&#45;&gt;np3.CreateEntityFromEntity -->
<g id="edge3" class="edge">
<title>np3.func_801B653C&#45;&gt;np3.CreateEntityFromEntity</title>
<path fill="none" stroke="black" d="M262.59,-180.25C306.73,-148.18 403.24,-78.07 453.19,-41.78"/>
<polygon fill="black" stroke="black" points="455.34,-44.54 461.38,-35.83 451.23,-38.88 455.34,-44.54"/>
<text text-anchor="middle" x="456.38" y="-39.63" font-family="Times,serif" font-size="14.00">1</text>
</g>
<!-- np3.EntityMerman2 -->
<g id="node5" class="node">
<title>np3.EntityMerman2</title>
<g id="a_node5"><a xlink:href="np3.EntityMerman2.svg" xlink:title="np3.EntityMerman2">
<ellipse fill="green" stroke="black" cx="239.54" cy="-378" rx="104.78" ry="18"/>
<text text-anchor="middle" x="239.54" y="-374.3" font-family="Times,serif" font-size="14.00">np3.EntityMerman2</text>
</a>
</g>
</g>
<!-- np3.EntityMerman2&#45;&gt;np3.func_801B653C -->
<g id="edge4" class="edge">
<title>np3.EntityMerman2&#45;&gt;np3.func_801B653C</title>
<path fill="none" stroke="black" d="M239.54,-359.93C239.54,-328.97 239.54,-263.3 239.54,-226.13"/>
<polygon fill="black" stroke="black" points="243.04,-226.02 239.54,-216.02 236.04,-226.02 243.04,-226.02"/>
<text text-anchor="middle" x="234.54" y="-348.73" font-family="Times,serif" font-size="14.00">1</text>
</g>
</g>
</svg>
