<?xml version="1.0" encoding="UTF-8" standalone="no"?>
<!DOCTYPE svg PUBLIC "-//W3C//DTD SVG 1.1//EN"
 "http://www.w3.org/Graphics/SVG/1.1/DTD/svg11.dtd">
<!-- Generated by graphviz version 2.43.0 (0)
 -->
<!-- Title: np3.EntityMerman Pages: 1 -->
<svg width="3649pt" height="131pt"
 viewBox="0.00 0.00 3649.09 131.00" xmlns="http://www.w3.org/2000/svg" xmlns:xlink="http://www.w3.org/1999/xlink">
<g id="graph0" class="graph" transform="scale(1 1) rotate(0) translate(4 127)">
<title>np3.EntityMerman</title>
<polygon fill="white" stroke="transparent" points="-4,4 -4,-127 3645.09,-127 3645.09,4 -4,4"/>
<!-- np3.EntityMerman -->
<g id="node1" class="node">
<title>np3.EntityMerman</title>
<ellipse fill="green" stroke="black" cx="1777.24" cy="-105" rx="98.58" ry="18"/>
<text text-anchor="middle" x="1777.24" y="-101.3" font-family="Times,serif" font-size="14.00">np3.EntityMerman</text>
</g>
<!-- np3.SetStep -->
<g id="node2" class="node">
<title>np3.SetStep</title>
<g id="a_node2"><a xlink:href="np3.SetStep.svg" xlink:title="np3.SetStep">
<ellipse fill="green" stroke="black" cx="68.24" cy="-18" rx="68.49" ry="18"/>
<text text-anchor="middle" x="68.24" y="-14.3" font-family="Times,serif" font-size="14.00">np3.SetStep</text>
</a>
</g>
</g>
<!-- np3.EntityMerman&#45;&gt;np3.SetStep -->
<g id="edge1" class="edge">
<title>np3.EntityMerman&#45;&gt;np3.SetStep</title>
<path fill="none" stroke="black" d="M1678.75,-103.42C1465.17,-101.68 943.48,-94.92 507.24,-69 346.41,-59.44 305.48,-60.53 146.24,-36 140.04,-35.04 133.59,-33.89 127.18,-32.65"/>
<polygon fill="black" stroke="black" points="127.66,-29.18 117.17,-30.63 126.28,-36.04 127.66,-29.18"/>
<text text-anchor="middle" x="512.24" y="-57.8" font-family="Times,serif" font-size="14.00">8</text>
</g>
<!-- np3.func_801C2598 -->
<g id="node3" class="node">
<title>np3.func_801C2598</title>
<g id="a_node3"><a xlink:href="np3.func_801C2598.svg" xlink:title="np3.func_801C2598">
<ellipse fill="green" stroke="black" cx="258.24" cy="-18" rx="103.18" ry="18"/>
<text text-anchor="middle" x="258.24" y="-14.3" font-family="Times,serif" font-size="14.00">np3.func_801C2598</text>
</a>
</g>
</g>
<!-- np3.EntityMerman&#45;&gt;np3.func_801C2598 -->
<g id="edge2" class="edge">
<title>np3.EntityMerman&#45;&gt;np3.func_801C2598</title>
<path fill="none" stroke="black" d="M1678.85,-102.94C1489.94,-100.44 1063.4,-92.46 705.24,-69 555.95,-59.22 518.7,-54.57 370.24,-36 360.97,-34.84 351.29,-33.53 341.66,-32.15"/>
<polygon fill="black" stroke="black" points="342.07,-28.68 331.67,-30.71 341.06,-35.6 342.07,-28.68"/>
<text text-anchor="middle" x="710.24" y="-57.8" font-family="Times,serif" font-size="14.00">3</text>
</g>
<!-- np3.AllocEntity -->
<g id="node4" class="node">
<title>np3.AllocEntity</title>
<g id="a_node4"><a xlink:href="np3.AllocEntity.svg" xlink:title="np3.AllocEntity">
<ellipse fill="green" stroke="black" cx="462.24" cy="-18" rx="82.59" ry="18"/>
<text text-anchor="middle" x="462.24" y="-14.3" font-family="Times,serif" font-size="14.00">np3.AllocEntity</text>
</a>
</g>
</g>
<!-- np3.EntityMerman&#45;&gt;np3.AllocEntity -->
<g id="edge3" class="edge">
<title>np3.EntityMerman&#45;&gt;np3.AllocEntity</title>
<path fill="none" stroke="black" d="M1678.85,-103.23C1470.43,-100.56 969.46,-88.71 553.24,-36 545.82,-35.06 538.08,-33.9 530.39,-32.63"/>
<polygon fill="black" stroke="black" points="530.79,-29.14 520.34,-30.9 529.6,-36.04 530.79,-29.14"/>
<text text-anchor="middle" x="859.24" y="-57.8" font-family="Times,serif" font-size="14.00">5</text>
</g>
<!-- np3.CreateEntityFromEntity -->
<g id="node5" class="node">
<title>np3.CreateEntityFromEntity</title>
<g id="a_node5"><a xlink:href="np3.CreateEntityFromEntity.svg" xlink:title="np3.CreateEntityFromEntity">
<ellipse fill="green" stroke="black" cx="707.24" cy="-18" rx="144.87" ry="18"/>
<text text-anchor="middle" x="707.24" y="-14.3" font-family="Times,serif" font-size="14.00">np3.CreateEntityFromEntity</text>
</a>
</g>
</g>
<!-- np3.EntityMerman&#45;&gt;np3.CreateEntityFromEntity -->
<g id="edge4" class="edge">
<title>np3.EntityMerman&#45;&gt;np3.CreateEntityFromEntity</title>
<path fill="none" stroke="black" d="M1684.86,-98.61C1577.65,-92.22 1395.57,-80.91 1239.24,-69 1071.09,-56.19 1029.07,-52.59 861.24,-36 848,-34.69 834.12,-33.25 820.34,-31.78"/>
<polygon fill="black" stroke="black" points="820.66,-28.3 810.34,-30.71 819.91,-35.26 820.66,-28.3"/>
<text text-anchor="middle" x="1244.24" y="-57.8" font-family="Times,serif" font-size="14.00">5</text>
</g>
<!-- np3.InitializeEntity -->
<g id="node6" class="node">
<title>np3.InitializeEntity</title>
<g id="a_node6"><a xlink:href="np3.InitializeEntity.svg" xlink:title="np3.InitializeEntity">
<ellipse fill="green" stroke="black" cx="971.24" cy="-18" rx="100.98" ry="18"/>
<text text-anchor="middle" x="971.24" y="-14.3" font-family="Times,serif" font-size="14.00">np3.InitializeEntity</text>
</a>
</g>
</g>
<!-- np3.EntityMerman&#45;&gt;np3.InitializeEntity -->
<g id="edge5" class="edge">
<title>np3.EntityMerman&#45;&gt;np3.InitializeEntity</title>
<path fill="none" stroke="black" d="M1688.62,-96.97C1556.2,-86.1 1298.95,-63.56 1081.24,-36 1072.16,-34.85 1062.68,-33.54 1053.25,-32.18"/>
<polygon fill="black" stroke="black" points="1053.46,-28.67 1043.06,-30.68 1052.44,-35.6 1053.46,-28.67"/>
<text text-anchor="middle" x="1373.24" y="-57.8" font-family="Times,serif" font-size="14.00">1</text>
</g>
<!-- np3.AnimateEntity -->
<g id="node7" class="node">
<title>np3.AnimateEntity</title>
<g id="a_node7"><a xlink:href="np3.AnimateEntity.svg" xlink:title="np3.AnimateEntity">
<ellipse fill="green" stroke="black" cx="1189.24" cy="-18" rx="98.58" ry="18"/>
<text text-anchor="middle" x="1189.24" y="-14.3" font-family="Times,serif" font-size="14.00">np3.AnimateEntity</text>
</a>
</g>
</g>
<!-- np3.EntityMerman&#45;&gt;np3.AnimateEntity -->
<g id="edge6" class="edge">
<title>np3.EntityMerman&#45;&gt;np3.AnimateEntity</title>
<path fill="none" stroke="black" d="M1700.71,-93.53C1605.93,-80.47 1439.58,-57.28 1297.24,-36 1288.72,-34.73 1279.82,-33.37 1270.95,-32"/>
<polygon fill="black" stroke="black" points="1271.38,-28.52 1260.97,-30.45 1270.31,-35.44 1271.38,-28.52"/>
<text text-anchor="middle" x="1526.24" y="-57.8" font-family="Times,serif" font-size="14.00">9</text>
</g>
<!-- np3.MoveEntity -->
<g id="node8" class="node">
<title>np3.MoveEntity</title>
<g id="a_node8"><a xlink:href="np3.MoveEntity.svg" xlink:title="np3.MoveEntity">
<ellipse fill="green" stroke="black" cx="1391.24" cy="-18" rx="85.29" ry="18"/>
<text text-anchor="middle" x="1391.24" y="-14.3" font-family="Times,serif" font-size="14.00">np3.MoveEntity</text>
</a>
</g>
</g>
<!-- np3.EntityMerman&#45;&gt;np3.MoveEntity -->
<g id="edge7" class="edge">
<title>np3.EntityMerman&#45;&gt;np3.MoveEntity</title>
<path fill="none" stroke="black" d="M1716.93,-90.72C1646.66,-75.24 1530.9,-49.75 1457.99,-33.7"/>
<polygon fill="black" stroke="black" points="1458.51,-30.23 1447.99,-31.5 1457.01,-37.07 1458.51,-30.23"/>
<text text-anchor="middle" x="1613.24" y="-57.8" font-family="Times,serif" font-size="14.00">6</text>
</g>
<!-- dra.CheckCollision -->
<g id="node9" class="node">
<title>dra.CheckCollision</title>
<g id="a_node9"><a xlink:href="dra.CheckCollision.svg" xlink:title="dra.CheckCollision">
<ellipse fill="green" stroke="black" cx="1592.24" cy="-18" rx="97.48" ry="18"/>
<text text-anchor="middle" x="1592.24" y="-14.3" font-family="Times,serif" font-size="14.00">dra.CheckCollision</text>
</a>
</g>
</g>
<!-- np3.EntityMerman&#45;&gt;dra.CheckCollision -->
<g id="edge8" class="edge">
<title>np3.EntityMerman&#45;&gt;dra.CheckCollision</title>
<path fill="none" stroke="black" d="M1742.45,-88.01C1712.34,-74.18 1668.66,-54.11 1636.16,-39.18"/>
<polygon fill="black" stroke="black" points="1637.43,-35.91 1626.88,-34.92 1634.51,-42.27 1637.43,-35.91"/>
<text text-anchor="middle" x="1701.24" y="-57.8" font-family="Times,serif" font-size="14.00">3</text>
</g>
<!-- np3.Random -->
<g id="node10" class="node">
<title>np3.Random</title>
<g id="a_node10"><a xlink:href="np3.Random.svg" xlink:title="np3.Random">
<ellipse fill="green" stroke="black" cx="1777.24" cy="-18" rx="69.59" ry="18"/>
<text text-anchor="middle" x="1777.24" y="-14.3" font-family="Times,serif" font-size="14.00">np3.Random</text>
</a>
</g>
</g>
<!-- np3.EntityMerman&#45;&gt;np3.Random -->
<g id="edge9" class="edge">
<title>np3.EntityMerman&#45;&gt;np3.Random</title>
<path fill="none" stroke="black" d="M1777.24,-86.8C1777.24,-75.16 1777.24,-59.55 1777.24,-46.24"/>
<polygon fill="black" stroke="black" points="1780.74,-46.18 1777.24,-36.18 1773.74,-46.18 1780.74,-46.18"/>
<text text-anchor="middle" x="1782.24" y="-57.8" font-family="Times,serif" font-size="14.00">5</text>
</g>
<!-- np3.GetSideToPlayer -->
<g id="node11" class="node">
<title>np3.GetSideToPlayer</title>
<g id="a_node11"><a xlink:href="np3.GetSideToPlayer.svg" xlink:title="np3.GetSideToPlayer">
<ellipse fill="green" stroke="black" cx="1973.24" cy="-18" rx="108.58" ry="18"/>
<text text-anchor="middle" x="1973.24" y="-14.3" font-family="Times,serif" font-size="14.00">np3.GetSideToPlayer</text>
</a>
</g>
</g>
<!-- np3.EntityMerman&#45;&gt;np3.GetSideToPlayer -->
<g id="edge10" class="edge">
<title>np3.EntityMerman&#45;&gt;np3.GetSideToPlayer</title>
<path fill="none" stroke="black" d="M1813.65,-88.21C1845.63,-74.34 1892.32,-54.1 1926.94,-39.08"/>
<polygon fill="black" stroke="black" points="1928.59,-42.18 1936.37,-34.99 1925.8,-35.76 1928.59,-42.18"/>
<text text-anchor="middle" x="1892.24" y="-57.8" font-family="Times,serif" font-size="14.00">4</text>
</g>
<!-- np3.GetDistanceToPlayerX -->
<g id="node12" class="node">
<title>np3.GetDistanceToPlayerX</title>
<g id="a_node12"><a xlink:href="np3.GetDistanceToPlayerX.svg" xlink:title="np3.GetDistanceToPlayerX">
<ellipse fill="green" stroke="black" cx="2235.24" cy="-18" rx="135.38" ry="18"/>
<text text-anchor="middle" x="2235.24" y="-14.3" font-family="Times,serif" font-size="14.00">np3.GetDistanceToPlayerX</text>
</a>
</g>
</g>
<!-- np3.EntityMerman&#45;&gt;np3.GetDistanceToPlayerX -->
<g id="edge11" class="edge">
<title>np3.EntityMerman&#45;&gt;np3.GetDistanceToPlayerX</title>
<path fill="none" stroke="black" d="M1843.84,-91.64C1924.71,-76.63 2061.23,-51.29 2149.78,-34.86"/>
<polygon fill="black" stroke="black" points="2150.61,-38.27 2159.8,-33 2149.33,-31.39 2150.61,-38.27"/>
<text text-anchor="middle" x="2039.24" y="-57.8" font-family="Times,serif" font-size="14.00">1</text>
</g>
<!-- dra.PlaySfx -->
<g id="node13" class="node">
<title>dra.PlaySfx</title>
<g id="a_node13"><a xlink:href="dra.PlaySfx.svg" xlink:title="dra.PlaySfx">
<ellipse fill="green" stroke="black" cx="2453.24" cy="-18" rx="64.19" ry="18"/>
<text text-anchor="middle" x="2453.24" y="-14.3" font-family="Times,serif" font-size="14.00">dra.PlaySfx</text>
</a>
</g>
</g>
<!-- np3.EntityMerman&#45;&gt;dra.PlaySfx -->
<g id="edge12" class="edge">
<title>np3.EntityMerman&#45;&gt;dra.PlaySfx</title>
<path fill="none" stroke="black" d="M1866.18,-97.13C1984.03,-87.3 2198.2,-66.92 2379.24,-36 2384.99,-35.02 2390.95,-33.87 2396.9,-32.64"/>
<polygon fill="black" stroke="black" points="2397.78,-36.03 2406.83,-30.51 2396.31,-29.19 2397.78,-36.03"/>
<text text-anchor="middle" x="2253.24" y="-57.8" font-family="Times,serif" font-size="14.00">1</text>
</g>
<!-- np3.func_801BC8E4 -->
<g id="node14" class="node">
<title>np3.func_801BC8E4</title>
<g id="a_node14"><a xlink:href="np3.func_801BC8E4.svg" xlink:title="np3.func_801BC8E4">
<ellipse fill="green" stroke="black" cx="2641.24" cy="-18" rx="105.08" ry="18"/>
<text text-anchor="middle" x="2641.24" y="-14.3" font-family="Times,serif" font-size="14.00">np3.func_801BC8E4</text>
</a>
</g>
</g>
<!-- np3.EntityMerman&#45;&gt;np3.func_801BC8E4 -->
<g id="edge13" class="edge">
<title>np3.EntityMerman&#45;&gt;np3.func_801BC8E4</title>
<path fill="none" stroke="black" d="M1870.34,-98.73C1968.07,-92.86 2126.14,-82.41 2262.24,-69 2379.92,-57.41 2409.08,-51.98 2526.24,-36 2535.59,-34.72 2545.37,-33.35 2555.09,-31.95"/>
<polygon fill="black" stroke="black" points="2555.8,-35.38 2565.19,-30.49 2554.79,-28.46 2555.8,-35.38"/>
<text text-anchor="middle" x="2400.24" y="-57.8" font-family="Times,serif" font-size="14.00">4</text>
</g>
<!-- np3.func_801C6458 -->
<g id="node15" class="node">
<title>np3.func_801C6458</title>
<g id="a_node15"><a xlink:href="np3.func_801C6458.svg" xlink:title="np3.func_801C6458">
<ellipse fill="green" stroke="black" cx="2868.24" cy="-18" rx="103.18" ry="18"/>
<text text-anchor="middle" x="2868.24" y="-14.3" font-family="Times,serif" font-size="14.00">np3.func_801C6458</text>
</a>
</g>
</g>
<!-- np3.EntityMerman&#45;&gt;np3.func_801C6458 -->
<g id="edge14" class="edge">
<title>np3.EntityMerman&#45;&gt;np3.func_801C6458</title>
<path fill="none" stroke="black" d="M1873.35,-100.69C2049,-93.88 2433.43,-75.52 2755.24,-36 2764.67,-34.84 2774.52,-33.52 2784.31,-32.14"/>
<polygon fill="black" stroke="black" points="2785.07,-35.57 2794.47,-30.69 2784.07,-28.64 2785.07,-35.57"/>
<text text-anchor="middle" x="2574.24" y="-57.8" font-family="Times,serif" font-size="14.00">4</text>
</g>
<!-- np3.func_801BCB5C -->
<g id="node16" class="node">
<title>np3.func_801BCB5C</title>
<g id="a_node16"><a xlink:href="np3.func_801BCB5C.svg" xlink:title="np3.func_801BCB5C">
<ellipse fill="green" stroke="black" cx="3096.24" cy="-18" rx="106.68" ry="18"/>
<text text-anchor="middle" x="3096.24" y="-14.3" font-family="Times,serif" font-size="14.00">np3.func_801BCB5C</text>
</a>
</g>
</g>
<!-- np3.EntityMerman&#45;&gt;np3.func_801BCB5C -->
<g id="edge15" class="edge">
<title>np3.EntityMerman&#45;&gt;np3.func_801BCB5C</title>
<path fill="none" stroke="black" d="M1875.03,-102.3C2080.39,-97.88 2571.35,-82.91 2980.24,-36 2990.1,-34.87 3000.41,-33.55 3010.64,-32.16"/>
<polygon fill="black" stroke="black" points="3011.41,-35.59 3020.83,-30.75 3010.45,-28.66 3011.41,-35.59"/>
<text text-anchor="middle" x="2789.24" y="-57.8" font-family="Times,serif" font-size="14.00">1</text>
</g>
<!-- np3.func_801C0B20 -->
<g id="node17" class="node">
<title>np3.func_801C0B20</title>
<g id="a_node17"><a xlink:href="np3.func_801C0B20.svg" xlink:title="np3.func_801C0B20">
<ellipse fill="green" stroke="black" cx="3325.24" cy="-18" rx="104.78" ry="18"/>
<text text-anchor="middle" x="3325.24" y="-14.3" font-family="Times,serif" font-size="14.00">np3.func_801C0B20</text>
</a>
</g>
</g>
<!-- np3.EntityMerman&#45;&gt;np3.func_801C0B20 -->
<g id="edge16" class="edge">
<title>np3.EntityMerman&#45;&gt;np3.func_801C0B20</title>
<path fill="none" stroke="black" d="M1874.8,-102.13C2056.57,-98.31 2459.37,-88.3 2798.24,-69 2982.53,-58.5 3028.87,-57.08 3212.24,-36 3221.68,-34.92 3231.54,-33.64 3241.33,-32.29"/>
<polygon fill="black" stroke="black" points="3242.08,-35.72 3251.49,-30.85 3241.1,-28.79 3242.08,-35.72"/>
<text text-anchor="middle" x="3039.24" y="-57.8" font-family="Times,serif" font-size="14.00">1</text>
</g>
<!-- np3.DestroyEntity -->
<g id="node18" class="node">
<title>np3.DestroyEntity</title>
<g id="a_node18"><a xlink:href="np3.DestroyEntity.svg" xlink:title="np3.DestroyEntity">
<ellipse fill="green" stroke="black" cx="3544.24" cy="-18" rx="96.68" ry="18"/>
<text text-anchor="middle" x="3544.24" y="-14.3" font-family="Times,serif" font-size="14.00">np3.DestroyEntity</text>
</a>
</g>
</g>
<!-- np3.EntityMerman&#45;&gt;np3.DestroyEntity -->
<g id="edge17" class="edge">
<title>np3.EntityMerman&#45;&gt;np3.DestroyEntity</title>
<path fill="none" stroke="black" d="M1875.8,-103.19C2089.53,-101 2611.58,-93.42 3048.24,-69 3222.37,-59.26 3266.15,-57.29 3439.24,-36 3447.9,-34.94 3456.94,-33.69 3465.92,-32.35"/>
<polygon fill="black" stroke="black" points="3466.65,-35.78 3476.01,-30.82 3465.6,-28.86 3466.65,-35.78"/>
<text text-anchor="middle" x="3282.24" y="-57.8" font-family="Times,serif" font-size="14.00">1</text>
</g>
</g>
</svg>
