<?xml version="1.0" encoding="UTF-8" standalone="no"?>
<!DOCTYPE svg PUBLIC "-//W3C//DTD SVG 1.1//EN"
 "http://www.w3.org/Graphics/SVG/1.1/DTD/svg11.dtd">
<!-- Generated by graphviz version 2.43.0 (0)
 -->
<!-- Title: np3.func_801C0B20 Pages: 1 -->
<svg width="376pt" height="218pt"
 viewBox="0.00 0.00 375.83 218.00" xmlns="http://www.w3.org/2000/svg" xmlns:xlink="http://www.w3.org/1999/xlink">
<g id="graph0" class="graph" transform="scale(1 1) rotate(0) translate(4 214)">
<title>np3.func_801C0B20</title>
<polygon fill="white" stroke="transparent" points="-4,4 -4,-214 371.83,-214 371.83,4 -4,4"/>
<!-- np3.func_801C0B20 -->
<g id="node1" class="node">
<title>np3.func_801C0B20</title>
<ellipse fill="green" stroke="black" cx="173.34" cy="-105" rx="104.78" ry="18"/>
<text text-anchor="middle" x="173.34" y="-101.3" font-family="Times,serif" font-size="14.00">np3.func_801C0B20</text>
</g>
<!-- np3.FallEntity -->
<g id="node2" class="node">
<title>np3.FallEntity</title>
<g id="a_node2"><a xlink:href="np3.FallEntity.svg" xlink:title="np3.FallEntity">
<ellipse fill="green" stroke="black" cx="77.34" cy="-18" rx="77.19" ry="18"/>
<text text-anchor="middle" x="77.34" y="-14.3" font-family="Times,serif" font-size="14.00">np3.FallEntity</text>
</a>
</g>
</g>
<!-- np3.func_801C0B20&#45;&gt;np3.FallEntity -->
<g id="edge1" class="edge">
<title>np3.func_801C0B20&#45;&gt;np3.FallEntity</title>
<path fill="none" stroke="black" d="M154.38,-87.21C139.91,-74.4 119.82,-56.61 103.78,-42.4"/>
<polygon fill="black" stroke="black" points="106.08,-39.77 96.27,-35.76 101.44,-45.01 106.08,-39.77"/>
<text text-anchor="middle" x="136.34" y="-57.8" font-family="Times,serif" font-size="14.00">1</text>
</g>
<!-- dra.CheckCollision -->
<g id="node3" class="node">
<title>dra.CheckCollision</title>
<g id="a_node3"><a xlink:href="dra.CheckCollision.svg" xlink:title="dra.CheckCollision">
<ellipse fill="green" stroke="black" cx="270.34" cy="-18" rx="97.48" ry="18"/>
<text text-anchor="middle" x="270.34" y="-14.3" font-family="Times,serif" font-size="14.00">dra.CheckCollision</text>
</a>
</g>
</g>
<!-- np3.func_801C0B20&#45;&gt;dra.CheckCollision -->
<g id="edge2" class="edge">
<title>np3.func_801C0B20&#45;&gt;dra.CheckCollision</title>
<path fill="none" stroke="black" d="M192.51,-87.21C207.12,-74.4 227.43,-56.61 243.63,-42.4"/>
<polygon fill="black" stroke="black" points="246,-44.98 251.22,-35.76 241.39,-39.72 246,-44.98"/>
<text text-anchor="middle" x="232.34" y="-57.8" font-family="Times,serif" font-size="14.00">1</text>
</g>
<!-- np3.EntityMerman -->
<g id="node4" class="node">
<title>np3.EntityMerman</title>
<g id="a_node4"><a xlink:href="np3.EntityMerman.svg" xlink:title="np3.EntityMerman">
<ellipse fill="green" stroke="black" cx="173.34" cy="-192" rx="98.58" ry="18"/>
<text text-anchor="middle" x="173.34" y="-188.3" font-family="Times,serif" font-size="14.00">np3.EntityMerman</text>
</a>
</g>
</g>
<!-- np3.EntityMerman&#45;&gt;np3.func_801C0B20 -->
<g id="edge3" class="edge">
<title>np3.EntityMerman&#45;&gt;np3.func_801C0B20</title>
<path fill="none" stroke="black" d="M173.34,-173.8C173.34,-162.16 173.34,-146.55 173.34,-133.24"/>
<polygon fill="black" stroke="black" points="176.84,-133.18 173.34,-123.18 169.84,-133.18 176.84,-133.18"/>
<text text-anchor="middle" x="178.34" y="-144.8" font-family="Times,serif" font-size="14.00">1</text>
</g>
</g>
</svg>
