<?xml version="1.0" encoding="UTF-8" standalone="no"?>
<!DOCTYPE svg PUBLIC "-//W3C//DTD SVG 1.1//EN"
 "http://www.w3.org/Graphics/SVG/1.1/DTD/svg11.dtd">
<!-- Generated by graphviz version 2.43.0 (0)
 -->
<!-- Title: nz0.EntityCannonShot Pages: 1 -->
<svg width="1312pt" height="224pt"
 viewBox="0.00 0.00 1311.98 224.00" xmlns="http://www.w3.org/2000/svg" xmlns:xlink="http://www.w3.org/1999/xlink">
<g id="graph0" class="graph" transform="scale(1 1) rotate(0) translate(4 220)">
<title>nz0.EntityCannonShot</title>
<polygon fill="white" stroke="transparent" points="-4,4 -4,-220 1307.98,-220 1307.98,4 -4,4"/>
<!-- nz0.EntityCannonShot -->
<g id="node1" class="node">
<title>nz0.EntityCannonShot</title>
<ellipse fill="green" stroke="black" cx="607.44" cy="-198" rx="115.88" ry="18"/>
<text text-anchor="middle" x="607.44" y="-194.3" font-family="Times,serif" font-size="14.00">nz0.EntityCannonShot</text>
</g>
<!-- nz0.InitializeEntity -->
<g id="node2" class="node">
<title>nz0.InitializeEntity</title>
<g id="a_node2"><a xlink:href="nz0.InitializeEntity.svg" xlink:title="nz0.InitializeEntity">
<ellipse fill="green" stroke="black" cx="99.44" cy="-18" rx="99.38" ry="18"/>
<text text-anchor="middle" x="99.44" y="-14.3" font-family="Times,serif" font-size="14.00">nz0.InitializeEntity</text>
</a>
</g>
</g>
<!-- nz0.EntityCannonShot&#45;&gt;nz0.InitializeEntity -->
<g id="edge1" class="edge">
<title>nz0.EntityCannonShot&#45;&gt;nz0.InitializeEntity</title>
<path fill="none" stroke="black" d="M562.8,-181.36C469.32,-148.6 253.28,-72.91 152.73,-37.67"/>
<polygon fill="black" stroke="black" points="153.67,-34.29 143.07,-34.29 151.35,-40.9 153.67,-34.29"/>
<text text-anchor="middle" x="138.07" y="-38.09" font-family="Times,serif" font-size="14.00">1</text>
</g>
<!-- nz0.MoveEntity -->
<g id="node3" class="node">
<title>nz0.MoveEntity</title>
<g id="a_node3"><a xlink:href="nz0.MoveEntity.svg" xlink:title="nz0.MoveEntity">
<ellipse fill="green" stroke="black" cx="301.44" cy="-18" rx="84.49" ry="18"/>
<text text-anchor="middle" x="301.44" y="-14.3" font-family="Times,serif" font-size="14.00">nz0.MoveEntity</text>
</a>
</g>
</g>
<!-- nz0.EntityCannonShot&#45;&gt;nz0.MoveEntity -->
<g id="edge2" class="edge">
<title>nz0.EntityCannonShot&#45;&gt;nz0.MoveEntity</title>
<path fill="none" stroke="black" d="M578.93,-180.41C523.18,-147.99 399.83,-76.23 338.11,-40.33"/>
<polygon fill="black" stroke="black" points="339.51,-37.1 329.11,-35.09 335.99,-43.15 339.51,-37.1"/>
<text text-anchor="middle" x="324.11" y="-38.89" font-family="Times,serif" font-size="14.00">1</text>
</g>
<!-- dra.func_80102CD8 -->
<g id="node4" class="node">
<title>dra.func_80102CD8</title>
<g id="a_node4"><a xlink:href="dra.func_80102CD8.svg" xlink:title="dra.func_80102CD8">
<ellipse fill="green" stroke="black" cx="506.44" cy="-18" rx="102.88" ry="18"/>
<text text-anchor="middle" x="506.44" y="-14.3" font-family="Times,serif" font-size="14.00">dra.func_80102CD8</text>
</a>
</g>
</g>
<!-- nz0.EntityCannonShot&#45;&gt;dra.func_80102CD8 -->
<g id="edge3" class="edge">
<title>nz0.EntityCannonShot&#45;&gt;dra.func_80102CD8</title>
<path fill="none" stroke="black" d="M597.76,-179.93C580.04,-148.7 542.28,-82.17 521.3,-45.18"/>
<polygon fill="black" stroke="black" points="524.08,-42.99 516.1,-36.02 517.99,-46.44 524.08,-42.99"/>
<text text-anchor="middle" x="511.1" y="-39.82" font-family="Times,serif" font-size="14.00">1</text>
</g>
<!-- nz0.AllocEntity -->
<g id="node5" class="node">
<title>nz0.AllocEntity</title>
<g id="a_node5"><a xlink:href="nz0.AllocEntity.svg" xlink:title="nz0.AllocEntity">
<ellipse fill="green" stroke="black" cx="708.44" cy="-18" rx="81.49" ry="18"/>
<text text-anchor="middle" x="708.44" y="-14.3" font-family="Times,serif" font-size="14.00">nz0.AllocEntity</text>
</a>
</g>
</g>
<!-- nz0.EntityCannonShot&#45;&gt;nz0.AllocEntity -->
<g id="edge4" class="edge">
<title>nz0.EntityCannonShot&#45;&gt;nz0.AllocEntity</title>
<path fill="none" stroke="black" d="M617.13,-179.93C634.85,-148.7 672.6,-82.17 693.59,-45.18"/>
<polygon fill="black" stroke="black" points="696.9,-46.44 698.79,-36.02 690.81,-42.99 696.9,-46.44"/>
<text text-anchor="middle" x="693.79" y="-39.82" font-family="Times,serif" font-size="14.00">1</text>
</g>
<!-- nz0.CreateEntityFromEntity -->
<g id="node6" class="node">
<title>nz0.CreateEntityFromEntity</title>
<g id="a_node6"><a xlink:href="nz0.CreateEntityFromEntity.svg" xlink:title="nz0.CreateEntityFromEntity">
<ellipse fill="green" stroke="black" cx="951.44" cy="-18" rx="143.77" ry="18"/>
<text text-anchor="middle" x="951.44" y="-14.3" font-family="Times,serif" font-size="14.00">nz0.CreateEntityFromEntity</text>
</a>
</g>
</g>
<!-- nz0.EntityCannonShot&#45;&gt;nz0.CreateEntityFromEntity -->
<g id="edge5" class="edge">
<title>nz0.EntityCannonShot&#45;&gt;nz0.CreateEntityFromEntity</title>
<path fill="none" stroke="black" d="M639.19,-180.57C701.75,-148.2 840.9,-76.2 910.35,-40.26"/>
<polygon fill="black" stroke="black" points="912,-43.35 919.27,-35.65 908.78,-37.13 912,-43.35"/>
<text text-anchor="middle" x="914.27" y="-39.45" font-family="Times,serif" font-size="14.00">1</text>
</g>
<!-- nz0.DestroyEntity -->
<g id="node7" class="node">
<title>nz0.DestroyEntity</title>
<g id="a_node7"><a xlink:href="nz0.DestroyEntity.svg" xlink:title="nz0.DestroyEntity">
<ellipse fill="green" stroke="black" cx="1208.44" cy="-18" rx="95.58" ry="18"/>
<text text-anchor="middle" x="1208.44" y="-14.3" font-family="Times,serif" font-size="14.00">nz0.DestroyEntity</text>
</a>
</g>
</g>
<!-- nz0.EntityCannonShot&#45;&gt;nz0.DestroyEntity -->
<g id="edge6" class="edge">
<title>nz0.EntityCannonShot&#45;&gt;nz0.DestroyEntity</title>
<path fill="none" stroke="black" d="M658.68,-181.82C769.7,-148.94 1031.89,-71.29 1149.53,-36.45"/>
<polygon fill="black" stroke="black" points="1150.84,-39.71 1159.44,-33.51 1148.86,-33 1150.84,-39.71"/>
<text text-anchor="middle" x="1154.44" y="-37.31" font-family="Times,serif" font-size="14.00">1</text>
</g>
</g>
</svg>
