<?xml version="1.0" encoding="UTF-8" standalone="no"?>
<!DOCTYPE svg PUBLIC "-//W3C//DTD SVG 1.1//EN"
 "http://www.w3.org/Graphics/SVG/1.1/DTD/svg11.dtd">
<!-- Generated by graphviz version 2.43.0 (0)
 -->
<!-- Title: nz0.EntityCannon Pages: 1 -->
<svg width="1676pt" height="224pt"
 viewBox="0.00 0.00 1675.93 224.00" xmlns="http://www.w3.org/2000/svg" xmlns:xlink="http://www.w3.org/1999/xlink">
<g id="graph0" class="graph" transform="scale(1 1) rotate(0) translate(4 220)">
<title>nz0.EntityCannon</title>
<polygon fill="white" stroke="transparent" points="-4,4 -4,-220 1671.93,-220 1671.93,4 -4,4"/>
<!-- nz0.EntityCannon -->
<g id="node1" class="node">
<title>nz0.EntityCannon</title>
<ellipse fill="green" stroke="black" cx="837.44" cy="-198" rx="94.48" ry="18"/>
<text text-anchor="middle" x="837.44" y="-194.3" font-family="Times,serif" font-size="14.00">nz0.EntityCannon</text>
</g>
<!-- nz0.InitializeEntity -->
<g id="node2" class="node">
<title>nz0.InitializeEntity</title>
<g id="a_node2"><a xlink:href="nz0.InitializeEntity.svg" xlink:title="nz0.InitializeEntity">
<ellipse fill="green" stroke="black" cx="99.44" cy="-18" rx="99.38" ry="18"/>
<text text-anchor="middle" x="99.44" y="-14.3" font-family="Times,serif" font-size="14.00">nz0.InitializeEntity</text>
</a>
</g>
</g>
<!-- nz0.EntityCannon&#45;&gt;nz0.InitializeEntity -->
<g id="edge1" class="edge">
<title>nz0.EntityCannon&#45;&gt;nz0.InitializeEntity</title>
<path fill="none" stroke="black" d="M781.37,-183.47C647.75,-151.25 311.02,-70.03 166.75,-35.23"/>
<polygon fill="black" stroke="black" points="167.24,-31.75 156.7,-32.81 165.6,-38.56 167.24,-31.75"/>
<text text-anchor="middle" x="151.7" y="-36.61" font-family="Times,serif" font-size="14.00">1</text>
</g>
<!-- dra.AllocPrimitives -->
<g id="node3" class="node">
<title>dra.AllocPrimitives</title>
<g id="a_node3"><a xlink:href="dra.AllocPrimitives.svg" xlink:title="dra.AllocPrimitives">
<ellipse fill="green" stroke="black" cx="316.44" cy="-18" rx="99.38" ry="18"/>
<text text-anchor="middle" x="316.44" y="-14.3" font-family="Times,serif" font-size="14.00">dra.AllocPrimitives</text>
</a>
</g>
</g>
<!-- nz0.EntityCannon&#45;&gt;dra.AllocPrimitives -->
<g id="edge2" class="edge">
<title>nz0.EntityCannon&#45;&gt;dra.AllocPrimitives</title>
<path fill="none" stroke="black" d="M793.47,-181.98C698.41,-149.5 474,-72.83 370.48,-37.46"/>
<polygon fill="black" stroke="black" points="371.44,-34.09 360.85,-34.17 369.18,-40.72 371.44,-34.09"/>
<text text-anchor="middle" x="355.85" y="-37.97" font-family="Times,serif" font-size="14.00">1</text>
</g>
<!-- nz0.DestroyEntity -->
<g id="node4" class="node">
<title>nz0.DestroyEntity</title>
<g id="a_node4"><a xlink:href="nz0.DestroyEntity.svg" xlink:title="nz0.DestroyEntity">
<ellipse fill="green" stroke="black" cx="529.44" cy="-18" rx="95.58" ry="18"/>
<text text-anchor="middle" x="529.44" y="-14.3" font-family="Times,serif" font-size="14.00">nz0.DestroyEntity</text>
</a>
</g>
</g>
<!-- nz0.EntityCannon&#45;&gt;nz0.DestroyEntity -->
<g id="edge3" class="edge">
<title>nz0.EntityCannon&#45;&gt;nz0.DestroyEntity</title>
<path fill="none" stroke="black" d="M809.29,-180.73C753.52,-148.5 629.01,-76.55 566.6,-40.48"/>
<polygon fill="black" stroke="black" points="568.27,-37.4 557.86,-35.42 564.77,-43.46 568.27,-37.4"/>
<text text-anchor="middle" x="552.86" y="-39.22" font-family="Times,serif" font-size="14.00">1</text>
</g>
<!-- dra.func_80102CD8 -->
<g id="node5" class="node">
<title>dra.func_80102CD8</title>
<g id="a_node5"><a xlink:href="dra.func_80102CD8.svg" xlink:title="dra.func_80102CD8">
<ellipse fill="green" stroke="black" cx="745.44" cy="-18" rx="102.88" ry="18"/>
<text text-anchor="middle" x="745.44" y="-14.3" font-family="Times,serif" font-size="14.00">dra.func_80102CD8</text>
</a>
</g>
</g>
<!-- nz0.EntityCannon&#45;&gt;dra.func_80102CD8 -->
<g id="edge4" class="edge">
<title>nz0.EntityCannon&#45;&gt;dra.func_80102CD8</title>
<path fill="none" stroke="black" d="M828.62,-179.93C812.48,-148.7 778.09,-82.17 758.97,-45.18"/>
<polygon fill="black" stroke="black" points="761.94,-43.29 754.24,-36.02 755.72,-46.51 761.94,-43.29"/>
<text text-anchor="middle" x="749.24" y="-39.82" font-family="Times,serif" font-size="14.00">1</text>
</g>
<!-- dra.PlaySfx -->
<g id="node6" class="node">
<title>dra.PlaySfx</title>
<g id="a_node6"><a xlink:href="dra.PlaySfx.svg" xlink:title="dra.PlaySfx">
<ellipse fill="green" stroke="black" cx="930.44" cy="-18" rx="64.19" ry="18"/>
<text text-anchor="middle" x="930.44" y="-14.3" font-family="Times,serif" font-size="14.00">dra.PlaySfx</text>
</a>
</g>
</g>
<!-- nz0.EntityCannon&#45;&gt;dra.PlaySfx -->
<g id="edge5" class="edge">
<title>nz0.EntityCannon&#45;&gt;dra.PlaySfx</title>
<path fill="none" stroke="black" d="M846.36,-179.93C862.68,-148.7 897.44,-82.17 916.76,-45.18"/>
<polygon fill="black" stroke="black" points="920.02,-46.5 921.55,-36.02 913.82,-43.26 920.02,-46.5"/>
<text text-anchor="middle" x="916.55" y="-39.82" font-family="Times,serif" font-size="14.00">1</text>
</g>
<!-- nz0.AllocEntity -->
<g id="node7" class="node">
<title>nz0.AllocEntity</title>
<g id="a_node7"><a xlink:href="nz0.AllocEntity.svg" xlink:title="nz0.AllocEntity">
<ellipse fill="green" stroke="black" cx="1094.44" cy="-18" rx="81.49" ry="18"/>
<text text-anchor="middle" x="1094.44" y="-14.3" font-family="Times,serif" font-size="14.00">nz0.AllocEntity</text>
</a>
</g>
</g>
<!-- nz0.EntityCannon&#45;&gt;nz0.AllocEntity -->
<g id="edge6" class="edge">
<title>nz0.EntityCannon&#45;&gt;nz0.AllocEntity</title>
<path fill="none" stroke="black" d="M861.16,-180.57C907.54,-148.45 1010.26,-77.31 1062.54,-41.1"/>
<polygon fill="black" stroke="black" points="1064.55,-43.96 1070.78,-35.39 1060.57,-38.2 1064.55,-43.96"/>
<text text-anchor="middle" x="1065.78" y="-39.19" font-family="Times,serif" font-size="14.00">1</text>
</g>
<!-- nz0.CreateEntityFromEntity -->
<g id="node8" class="node">
<title>nz0.CreateEntityFromEntity</title>
<g id="a_node8"><a xlink:href="nz0.CreateEntityFromEntity.svg" xlink:title="nz0.CreateEntityFromEntity">
<ellipse fill="green" stroke="black" cx="1337.44" cy="-18" rx="143.77" ry="18"/>
<text text-anchor="middle" x="1337.44" y="-14.3" font-family="Times,serif" font-size="14.00">nz0.CreateEntityFromEntity</text>
</a>
</g>
</g>
<!-- nz0.EntityCannon&#45;&gt;nz0.CreateEntityFromEntity -->
<g id="edge7" class="edge">
<title>nz0.EntityCannon&#45;&gt;nz0.CreateEntityFromEntity</title>
<path fill="none" stroke="black" d="M880.07,-181.82C970.58,-149.6 1181.84,-74.39 1282.38,-38.6"/>
<polygon fill="black" stroke="black" points="1283.8,-41.81 1292.05,-35.16 1281.45,-35.22 1283.8,-41.81"/>
<text text-anchor="middle" x="1287.05" y="-38.96" font-family="Times,serif" font-size="14.00">2</text>
</g>
<!-- nz0.MoveEntity -->
<g id="node9" class="node">
<title>nz0.MoveEntity</title>
<g id="a_node9"><a xlink:href="nz0.MoveEntity.svg" xlink:title="nz0.MoveEntity">
<ellipse fill="green" stroke="black" cx="1583.44" cy="-18" rx="84.49" ry="18"/>
<text text-anchor="middle" x="1583.44" y="-14.3" font-family="Times,serif" font-size="14.00">nz0.MoveEntity</text>
</a>
</g>
</g>
<!-- nz0.EntityCannon&#45;&gt;nz0.MoveEntity -->
<g id="edge8" class="edge">
<title>nz0.EntityCannon&#45;&gt;nz0.MoveEntity</title>
<path fill="none" stroke="black" d="M893.82,-183.55C1029.89,-151.08 1375.65,-68.58 1519.32,-34.3"/>
<polygon fill="black" stroke="black" points="1520.39,-37.64 1529.31,-31.92 1518.77,-30.83 1520.39,-37.64"/>
<text text-anchor="middle" x="1524.31" y="-35.72" font-family="Times,serif" font-size="14.00">1</text>
</g>
</g>
</svg>
