<?xml version="1.0" encoding="UTF-8" standalone="no"?>
<!DOCTYPE svg PUBLIC "-//W3C//DTD SVG 1.1//EN"
 "http://www.w3.org/Graphics/SVG/1.1/DTD/svg11.dtd">
<!-- Generated by graphviz version 2.43.0 (0)
 -->
<!-- Title: nz0.func_801B0AA4 Pages: 1 -->
<svg width="664pt" height="224pt"
 viewBox="0.00 0.00 664.33 224.00" xmlns="http://www.w3.org/2000/svg" xmlns:xlink="http://www.w3.org/1999/xlink">
<g id="graph0" class="graph" transform="scale(1 1) rotate(0) translate(4 220)">
<title>nz0.func_801B0AA4</title>
<polygon fill="white" stroke="transparent" points="-4,4 -4,-220 660.33,-220 660.33,4 -4,4"/>
<!-- nz0.func_801B0AA4 -->
<g id="node1" class="node">
<title>nz0.func_801B0AA4</title>
<ellipse fill="red" stroke="black" cx="319.44" cy="-198" rx="103.18" ry="18"/>
<text text-anchor="middle" x="319.44" y="-194.3" font-family="Times,serif" font-size="14.00">nz0.func_801B0AA4</text>
</g>
<!-- nz0.InitializeEntity -->
<g id="node2" class="node">
<title>nz0.InitializeEntity</title>
<g id="a_node2"><a xlink:href="nz0.InitializeEntity.svg" xlink:title="nz0.InitializeEntity">
<ellipse fill="green" stroke="black" cx="99.44" cy="-18" rx="99.38" ry="18"/>
<text text-anchor="middle" x="99.44" y="-14.3" font-family="Times,serif" font-size="14.00">nz0.InitializeEntity</text>
</a>
</g>
</g>
<!-- nz0.func_801B0AA4&#45;&gt;nz0.InitializeEntity -->
<g id="edge1" class="edge">
<title>nz0.func_801B0AA4&#45;&gt;nz0.InitializeEntity</title>
<path fill="none" stroke="black" d="M298.74,-180.25C259.27,-148.32 173.16,-78.65 128.15,-42.23"/>
<polygon fill="black" stroke="black" points="130.22,-39.4 120.24,-35.83 125.82,-44.84 130.22,-39.4"/>
<text text-anchor="middle" x="115.24" y="-39.63" font-family="Times,serif" font-size="14.00">1</text>
</g>
<!-- nz0.func_801B0A20 -->
<g id="node3" class="node">
<title>nz0.func_801B0A20</title>
<g id="a_node3"><a xlink:href="nz0.func_801B0A20.svg" xlink:title="nz0.func_801B0A20">
<ellipse fill="green" stroke="black" cx="319.44" cy="-18" rx="102.88" ry="18"/>
<text text-anchor="middle" x="319.44" y="-14.3" font-family="Times,serif" font-size="14.00">nz0.func_801B0A20</text>
</a>
</g>
</g>
<!-- nz0.func_801B0AA4&#45;&gt;nz0.func_801B0A20 -->
<g id="edge2" class="edge">
<title>nz0.func_801B0AA4&#45;&gt;nz0.func_801B0A20</title>
<path fill="none" stroke="black" d="M319.44,-179.93C319.44,-148.97 319.44,-83.3 319.44,-46.13"/>
<polygon fill="black" stroke="black" points="322.94,-46.02 319.44,-36.02 315.94,-46.02 322.94,-46.02"/>
<text text-anchor="middle" x="314.44" y="-39.82" font-family="Times,serif" font-size="14.00">1</text>
</g>
<!-- nz0.GetSideToPlayer -->
<g id="node4" class="node">
<title>nz0.GetSideToPlayer</title>
<g id="a_node4"><a xlink:href="nz0.GetSideToPlayer.svg" xlink:title="nz0.GetSideToPlayer">
<ellipse fill="green" stroke="black" cx="548.44" cy="-18" rx="107.78" ry="18"/>
<text text-anchor="middle" x="548.44" y="-14.3" font-family="Times,serif" font-size="14.00">nz0.GetSideToPlayer</text>
</a>
</g>
</g>
<!-- nz0.func_801B0AA4&#45;&gt;nz0.GetSideToPlayer -->
<g id="edge3" class="edge">
<title>nz0.func_801B0AA4&#45;&gt;nz0.GetSideToPlayer</title>
<path fill="none" stroke="black" d="M340.98,-180.25C382.16,-148.25 472.08,-78.36 518.85,-42"/>
<polygon fill="black" stroke="black" points="521.04,-44.73 526.79,-35.83 516.74,-39.2 521.04,-44.73"/>
<text text-anchor="middle" x="521.79" y="-39.63" font-family="Times,serif" font-size="14.00">1</text>
</g>
</g>
</svg>
