<?xml version="1.0" encoding="UTF-8" standalone="no"?>
<!DOCTYPE svg PUBLIC "-//W3C//DTD SVG 1.1//EN"
 "http://www.w3.org/Graphics/SVG/1.1/DTD/svg11.dtd">
<!-- Generated by graphviz version 2.43.0 (0)
 -->
<!-- Title: nz0.func_801C16B4 Pages: 1 -->
<svg width="816pt" height="224pt"
 viewBox="0.00 0.00 815.98 224.00" xmlns="http://www.w3.org/2000/svg" xmlns:xlink="http://www.w3.org/1999/xlink">
<g id="graph0" class="graph" transform="scale(1 1) rotate(0) translate(4 220)">
<title>nz0.func_801C16B4</title>
<polygon fill="white" stroke="transparent" points="-4,4 -4,-220 811.98,-220 811.98,4 -4,4"/>
<!-- nz0.func_801C16B4 -->
<g id="node1" class="node">
<title>nz0.func_801C16B4</title>
<ellipse fill="green" stroke="black" cx="401.44" cy="-198" rx="103.18" ry="18"/>
<text text-anchor="middle" x="401.44" y="-194.3" font-family="Times,serif" font-size="14.00">nz0.func_801C16B4</text>
</g>
<!-- nz0.InitializeEntity -->
<g id="node2" class="node">
<title>nz0.InitializeEntity</title>
<g id="a_node2"><a xlink:href="nz0.InitializeEntity.svg" xlink:title="nz0.InitializeEntity">
<ellipse fill="green" stroke="black" cx="99.44" cy="-18" rx="99.38" ry="18"/>
<text text-anchor="middle" x="99.44" y="-14.3" font-family="Times,serif" font-size="14.00">nz0.InitializeEntity</text>
</a>
</g>
</g>
<!-- nz0.func_801C16B4&#45;&gt;nz0.InitializeEntity -->
<g id="edge1" class="edge">
<title>nz0.func_801C16B4&#45;&gt;nz0.InitializeEntity</title>
<path fill="none" stroke="black" d="M373.57,-180.57C318.85,-148.32 197.37,-76.72 136.17,-40.65"/>
<polygon fill="black" stroke="black" points="137.64,-37.45 127.24,-35.39 134.08,-43.48 137.64,-37.45"/>
<text text-anchor="middle" x="122.24" y="-39.19" font-family="Times,serif" font-size="14.00">1</text>
</g>
<!-- nz0.MoveEntity -->
<g id="node3" class="node">
<title>nz0.MoveEntity</title>
<g id="a_node3"><a xlink:href="nz0.MoveEntity.svg" xlink:title="nz0.MoveEntity">
<ellipse fill="green" stroke="black" cx="301.44" cy="-18" rx="84.49" ry="18"/>
<text text-anchor="middle" x="301.44" y="-14.3" font-family="Times,serif" font-size="14.00">nz0.MoveEntity</text>
</a>
</g>
</g>
<!-- nz0.func_801C16B4&#45;&gt;nz0.MoveEntity -->
<g id="edge2" class="edge">
<title>nz0.func_801C16B4&#45;&gt;nz0.MoveEntity</title>
<path fill="none" stroke="black" d="M391.85,-179.93C374.31,-148.7 336.93,-82.17 316.15,-45.18"/>
<polygon fill="black" stroke="black" points="318.95,-43.02 311,-36.02 312.85,-46.45 318.95,-43.02"/>
<text text-anchor="middle" x="306" y="-39.82" font-family="Times,serif" font-size="14.00">1</text>
</g>
<!-- nz0.AnimateEntity -->
<g id="node4" class="node">
<title>nz0.AnimateEntity</title>
<g id="a_node4"><a xlink:href="nz0.AnimateEntity.svg" xlink:title="nz0.AnimateEntity">
<ellipse fill="green" stroke="black" cx="501.44" cy="-18" rx="97.48" ry="18"/>
<text text-anchor="middle" x="501.44" y="-14.3" font-family="Times,serif" font-size="14.00">nz0.AnimateEntity</text>
</a>
</g>
</g>
<!-- nz0.func_801C16B4&#45;&gt;nz0.AnimateEntity -->
<g id="edge3" class="edge">
<title>nz0.func_801C16B4&#45;&gt;nz0.AnimateEntity</title>
<path fill="none" stroke="black" d="M411.03,-179.93C428.58,-148.7 465.95,-82.17 486.73,-45.18"/>
<polygon fill="black" stroke="black" points="490.04,-46.45 491.88,-36.02 483.93,-43.02 490.04,-46.45"/>
<text text-anchor="middle" x="486.88" y="-39.82" font-family="Times,serif" font-size="14.00">1</text>
</g>
<!-- nz0.DestroyEntity -->
<g id="node5" class="node">
<title>nz0.DestroyEntity</title>
<g id="a_node5"><a xlink:href="nz0.DestroyEntity.svg" xlink:title="nz0.DestroyEntity">
<ellipse fill="green" stroke="black" cx="712.44" cy="-18" rx="95.58" ry="18"/>
<text text-anchor="middle" x="712.44" y="-14.3" font-family="Times,serif" font-size="14.00">nz0.DestroyEntity</text>
</a>
</g>
</g>
<!-- nz0.func_801C16B4&#45;&gt;nz0.DestroyEntity -->
<g id="edge4" class="edge">
<title>nz0.func_801C16B4&#45;&gt;nz0.DestroyEntity</title>
<path fill="none" stroke="black" d="M430.14,-180.57C486.61,-148.25 612.11,-76.42 675,-40.43"/>
<polygon fill="black" stroke="black" points="676.87,-43.39 683.81,-35.39 673.39,-37.32 676.87,-43.39"/>
<text text-anchor="middle" x="678.81" y="-39.19" font-family="Times,serif" font-size="14.00">1</text>
</g>
</g>
</svg>
