<?xml version="1.0" encoding="UTF-8" standalone="no"?>
<!DOCTYPE svg PUBLIC "-//W3C//DTD SVG 1.1//EN"
 "http://www.w3.org/Graphics/SVG/1.1/DTD/svg11.dtd">
<!-- Generated by graphviz version 2.43.0 (0)
 -->
<!-- Title: nz0.EntityElevator2 Pages: 1 -->
<svg width="860pt" height="131pt"
 viewBox="0.00 0.00 860.18 131.00" xmlns="http://www.w3.org/2000/svg" xmlns:xlink="http://www.w3.org/1999/xlink">
<g id="graph0" class="graph" transform="scale(1 1) rotate(0) translate(4 127)">
<title>nz0.EntityElevator2</title>
<polygon fill="white" stroke="transparent" points="-4,4 -4,-127 856.18,-127 856.18,4 -4,4"/>
<!-- nz0.EntityElevator2 -->
<g id="node1" class="node">
<title>nz0.EntityElevator2</title>
<ellipse fill="green" stroke="black" cx="434.64" cy="-105" rx="104.78" ry="18"/>
<text text-anchor="middle" x="434.64" y="-101.3" font-family="Times,serif" font-size="14.00">nz0.EntityElevator2</text>
</g>
<!-- nz0.func_801BD9A0 -->
<g id="node2" class="node">
<title>nz0.func_801BD9A0</title>
<g id="a_node2"><a xlink:href="nz0.func_801BD9A0.svg" xlink:title="nz0.func_801BD9A0">
<ellipse fill="red" stroke="black" cx="104.64" cy="-18" rx="104.78" ry="18"/>
<text text-anchor="middle" x="104.64" y="-14.3" font-family="Times,serif" font-size="14.00">nz0.func_801BD9A0</text>
</a>
</g>
</g>
<!-- nz0.EntityElevator2&#45;&gt;nz0.func_801BD9A0 -->
<g id="edge1" class="edge">
<title>nz0.EntityElevator2&#45;&gt;nz0.func_801BD9A0</title>
<path fill="none" stroke="black" d="M379.03,-89.68C321.35,-74.82 231.21,-51.6 170.12,-35.87"/>
<polygon fill="black" stroke="black" points="170.76,-32.42 160.2,-33.31 169.01,-39.19 170.76,-32.42"/>
<text text-anchor="middle" x="294.64" y="-57.8" font-family="Times,serif" font-size="14.00">1</text>
</g>
<!-- nz0.InitializeEntity -->
<g id="node3" class="node">
<title>nz0.InitializeEntity</title>
<g id="a_node3"><a xlink:href="nz0.InitializeEntity.svg" xlink:title="nz0.InitializeEntity">
<ellipse fill="green" stroke="black" cx="326.64" cy="-18" rx="99.38" ry="18"/>
<text text-anchor="middle" x="326.64" y="-14.3" font-family="Times,serif" font-size="14.00">nz0.InitializeEntity</text>
</a>
</g>
</g>
<!-- nz0.EntityElevator2&#45;&gt;nz0.InitializeEntity -->
<g id="edge2" class="edge">
<title>nz0.EntityElevator2&#45;&gt;nz0.InitializeEntity</title>
<path fill="none" stroke="black" d="M413.3,-87.21C396.88,-74.28 374.01,-56.28 355.89,-42.02"/>
<polygon fill="black" stroke="black" points="357.96,-39.19 347.93,-35.76 353.63,-44.69 357.96,-39.19"/>
<text text-anchor="middle" x="392.64" y="-57.8" font-family="Times,serif" font-size="14.00">1</text>
</g>
<!-- dra.AllocPrimitives -->
<g id="node4" class="node">
<title>dra.AllocPrimitives</title>
<g id="a_node4"><a xlink:href="dra.AllocPrimitives.svg" xlink:title="dra.AllocPrimitives">
<ellipse fill="green" stroke="black" cx="543.64" cy="-18" rx="99.38" ry="18"/>
<text text-anchor="middle" x="543.64" y="-14.3" font-family="Times,serif" font-size="14.00">dra.AllocPrimitives</text>
</a>
</g>
</g>
<!-- nz0.EntityElevator2&#45;&gt;dra.AllocPrimitives -->
<g id="edge3" class="edge">
<title>nz0.EntityElevator2&#45;&gt;dra.AllocPrimitives</title>
<path fill="none" stroke="black" d="M456.18,-87.21C472.75,-74.28 495.83,-56.28 514.12,-42.02"/>
<polygon fill="black" stroke="black" points="516.42,-44.67 522.15,-35.76 512.11,-39.15 516.42,-44.67"/>
<text text-anchor="middle" x="501.64" y="-57.8" font-family="Times,serif" font-size="14.00">1</text>
</g>
<!-- nz0.DestroyEntity -->
<g id="node5" class="node">
<title>nz0.DestroyEntity</title>
<g id="a_node5"><a xlink:href="nz0.DestroyEntity.svg" xlink:title="nz0.DestroyEntity">
<ellipse fill="green" stroke="black" cx="756.64" cy="-18" rx="95.58" ry="18"/>
<text text-anchor="middle" x="756.64" y="-14.3" font-family="Times,serif" font-size="14.00">nz0.DestroyEntity</text>
</a>
</g>
</g>
<!-- nz0.EntityElevator2&#45;&gt;nz0.DestroyEntity -->
<g id="edge4" class="edge">
<title>nz0.EntityElevator2&#45;&gt;nz0.DestroyEntity</title>
<path fill="none" stroke="black" d="M489.26,-89.58C545.83,-74.65 634.11,-51.35 693.6,-35.64"/>
<polygon fill="black" stroke="black" points="694.85,-38.93 703.63,-32.99 693.06,-32.16 694.85,-38.93"/>
<text text-anchor="middle" x="620.64" y="-57.8" font-family="Times,serif" font-size="14.00">1</text>
</g>
</g>
</svg>
