<?xml version="1.0" encoding="UTF-8" standalone="no"?>
<!DOCTYPE svg PUBLIC "-//W3C//DTD SVG 1.1//EN"
 "http://www.w3.org/Graphics/SVG/1.1/DTD/svg11.dtd">
<!-- Generated by graphviz version 2.43.0 (0)
 -->
<!-- Title: nz0.EntityStageNamePopup Pages: 1 -->
<svg width="1135pt" height="131pt"
 viewBox="0.00 0.00 1135.49 131.00" xmlns="http://www.w3.org/2000/svg" xmlns:xlink="http://www.w3.org/1999/xlink">
<g id="graph0" class="graph" transform="scale(1 1) rotate(0) translate(4 127)">
<title>nz0.EntityStageNamePopup</title>
<polygon fill="white" stroke="transparent" points="-4,4 -4,-127 1131.49,-127 1131.49,4 -4,4"/>
<!-- nz0.EntityStageNamePopup -->
<g id="node1" class="node">
<title>nz0.EntityStageNamePopup</title>
<ellipse fill="red" stroke="black" cx="598.44" cy="-105" rx="141.88" ry="18"/>
<text text-anchor="middle" x="598.44" y="-101.3" font-family="Times,serif" font-size="14.00">nz0.EntityStageNamePopup</text>
</g>
<!-- nz0.InitializeEntity -->
<g id="node2" class="node">
<title>nz0.InitializeEntity</title>
<g id="a_node2"><a xlink:href="nz0.InitializeEntity.svg" xlink:title="nz0.InitializeEntity">
<ellipse fill="green" stroke="black" cx="99.44" cy="-18" rx="99.38" ry="18"/>
<text text-anchor="middle" x="99.44" y="-14.3" font-family="Times,serif" font-size="14.00">nz0.InitializeEntity</text>
</a>
</g>
</g>
<!-- nz0.EntityStageNamePopup&#45;&gt;nz0.InitializeEntity -->
<g id="edge1" class="edge">
<title>nz0.EntityStageNamePopup&#45;&gt;nz0.InitializeEntity</title>
<path fill="none" stroke="black" d="M517.44,-90.2C424.1,-74.3 271.7,-48.34 178.99,-32.55"/>
<polygon fill="black" stroke="black" points="179.54,-29.09 169.1,-30.86 178.37,-35.99 179.54,-29.09"/>
<text text-anchor="middle" x="384.44" y="-57.8" font-family="Times,serif" font-size="14.00">1</text>
</g>
<!-- dra.AllocPrimitives -->
<g id="node3" class="node">
<title>dra.AllocPrimitives</title>
<g id="a_node3"><a xlink:href="dra.AllocPrimitives.svg" xlink:title="dra.AllocPrimitives">
<ellipse fill="green" stroke="black" cx="316.44" cy="-18" rx="99.38" ry="18"/>
<text text-anchor="middle" x="316.44" y="-14.3" font-family="Times,serif" font-size="14.00">dra.AllocPrimitives</text>
</a>
</g>
</g>
<!-- nz0.EntityStageNamePopup&#45;&gt;dra.AllocPrimitives -->
<g id="edge2" class="edge">
<title>nz0.EntityStageNamePopup&#45;&gt;dra.AllocPrimitives</title>
<path fill="none" stroke="black" d="M546.06,-88.21C497.53,-73.58 425.44,-51.86 375.02,-36.66"/>
<polygon fill="black" stroke="black" points="375.83,-33.24 365.24,-33.71 373.81,-39.95 375.83,-33.24"/>
<text text-anchor="middle" x="479.44" y="-57.8" font-family="Times,serif" font-size="14.00">1</text>
</g>
<!-- nz0.Random -->
<g id="node4" class="node">
<title>nz0.Random</title>
<g id="a_node4"><a xlink:href="nz0.Random.svg" xlink:title="nz0.Random">
<ellipse fill="green" stroke="black" cx="502.44" cy="-18" rx="68.49" ry="18"/>
<text text-anchor="middle" x="502.44" y="-14.3" font-family="Times,serif" font-size="14.00">nz0.Random</text>
</a>
</g>
</g>
<!-- nz0.EntityStageNamePopup&#45;&gt;nz0.Random -->
<g id="edge3" class="edge">
<title>nz0.EntityStageNamePopup&#45;&gt;nz0.Random</title>
<path fill="none" stroke="black" d="M579.01,-86.8C564.64,-74.08 544.9,-56.6 529.06,-42.57"/>
<polygon fill="black" stroke="black" points="530.99,-39.61 521.19,-35.6 526.35,-44.85 530.99,-39.61"/>
<text text-anchor="middle" x="561.44" y="-57.8" font-family="Times,serif" font-size="14.00">4</text>
</g>
<!-- nz0.func_801C8ADC -->
<g id="node5" class="node">
<title>nz0.func_801C8ADC</title>
<g id="a_node5"><a xlink:href="nz0.func_801C8ADC.svg" xlink:title="nz0.func_801C8ADC">
<ellipse fill="green" stroke="black" cx="694.44" cy="-18" rx="105.08" ry="18"/>
<text text-anchor="middle" x="694.44" y="-14.3" font-family="Times,serif" font-size="14.00">nz0.func_801C8ADC</text>
</a>
</g>
</g>
<!-- nz0.EntityStageNamePopup&#45;&gt;nz0.func_801C8ADC -->
<g id="edge4" class="edge">
<title>nz0.EntityStageNamePopup&#45;&gt;nz0.func_801C8ADC</title>
<path fill="none" stroke="black" d="M617.87,-86.8C632.14,-74.16 651.72,-56.82 667.51,-42.85"/>
<polygon fill="black" stroke="black" points="670.2,-45.13 675.37,-35.89 665.56,-39.89 670.2,-45.13"/>
<text text-anchor="middle" x="657.44" y="-57.8" font-family="Times,serif" font-size="14.00">2</text>
</g>
<!-- nz0.DestroyEntity -->
<g id="node6" class="node">
<title>nz0.DestroyEntity</title>
<g id="a_node6"><a xlink:href="nz0.DestroyEntity.svg" xlink:title="nz0.DestroyEntity">
<ellipse fill="green" stroke="black" cx="913.44" cy="-18" rx="95.58" ry="18"/>
<text text-anchor="middle" x="913.44" y="-14.3" font-family="Times,serif" font-size="14.00">nz0.DestroyEntity</text>
</a>
</g>
</g>
<!-- nz0.EntityStageNamePopup&#45;&gt;nz0.DestroyEntity -->
<g id="edge5" class="edge">
<title>nz0.EntityStageNamePopup&#45;&gt;nz0.DestroyEntity</title>
<path fill="none" stroke="black" d="M655.85,-88.51C711.09,-73.6 794.39,-51.13 851.2,-35.8"/>
<polygon fill="black" stroke="black" points="852.39,-39.1 861.13,-33.11 850.57,-32.34 852.39,-39.1"/>
<text text-anchor="middle" x="780.44" y="-57.8" font-family="Times,serif" font-size="14.00">1</text>
</g>
<!-- FntPrint -->
<g id="node7" class="node">
<title>FntPrint</title>
<g id="a_node7"><a xlink:href="FntPrint.svg" xlink:title="FntPrint">
<ellipse fill="lightblue" stroke="black" cx="1077.44" cy="-18" rx="50.09" ry="18"/>
<text text-anchor="middle" x="1077.44" y="-14.3" font-family="Times,serif" font-size="14.00">FntPrint</text>
</a>
</g>
</g>
<!-- nz0.EntityStageNamePopup&#45;&gt;FntPrint -->
<g id="edge6" class="edge">
<title>nz0.EntityStageNamePopup&#45;&gt;FntPrint</title>
<path fill="none" stroke="black" d="M694.98,-91.73C780.52,-80.05 908.52,-60.64 1018.44,-36 1022.54,-35.08 1026.77,-34.04 1031,-32.94"/>
<polygon fill="black" stroke="black" points="1032.05,-36.29 1040.79,-30.3 1030.23,-29.53 1032.05,-36.29"/>
<text text-anchor="middle" x="932.44" y="-57.8" font-family="Times,serif" font-size="14.00">2</text>
</g>
</g>
</svg>
