<?xml version="1.0" encoding="UTF-8" standalone="no"?>
<!DOCTYPE svg PUBLIC "-//W3C//DTD SVG 1.1//EN"
 "http://www.w3.org/Graphics/SVG/1.1/DTD/svg11.dtd">
<!-- Generated by graphviz version 2.43.0 (0)
 -->
<!-- Title: nz0.func_801B7520 Pages: 1 -->
<svg width="434pt" height="218pt"
 viewBox="0.00 0.00 434.08 218.00" xmlns="http://www.w3.org/2000/svg" xmlns:xlink="http://www.w3.org/1999/xlink">
<g id="graph0" class="graph" transform="scale(1 1) rotate(0) translate(4 214)">
<title>nz0.func_801B7520</title>
<polygon fill="white" stroke="transparent" points="-4,4 -4,-214 430.08,-214 430.08,4 -4,4"/>
<!-- nz0.func_801B7520 -->
<g id="node1" class="node">
<title>nz0.func_801B7520</title>
<ellipse fill="green" stroke="black" cx="210.44" cy="-105" rx="102.88" ry="18"/>
<text text-anchor="middle" x="210.44" y="-101.3" font-family="Times,serif" font-size="14.00">nz0.func_801B7520</text>
</g>
<!-- dra.AllocPrimitives -->
<g id="node2" class="node">
<title>dra.AllocPrimitives</title>
<g id="a_node2"><a xlink:href="dra.AllocPrimitives.svg" xlink:title="dra.AllocPrimitives">
<ellipse fill="green" stroke="black" cx="99.44" cy="-18" rx="99.38" ry="18"/>
<text text-anchor="middle" x="99.44" y="-14.3" font-family="Times,serif" font-size="14.00">dra.AllocPrimitives</text>
</a>
</g>
</g>
<!-- nz0.func_801B7520&#45;&gt;dra.AllocPrimitives -->
<g id="edge1" class="edge">
<title>nz0.func_801B7520&#45;&gt;dra.AllocPrimitives</title>
<path fill="none" stroke="black" d="M188.51,-87.21C171.64,-74.28 148.13,-56.28 129.5,-42.02"/>
<polygon fill="black" stroke="black" points="131.39,-39.06 121.33,-35.76 127.14,-44.62 131.39,-39.06"/>
<text text-anchor="middle" x="167.44" y="-57.8" font-family="Times,serif" font-size="14.00">1</text>
</g>
<!-- nz0.func_801B74CC -->
<g id="node3" class="node">
<title>nz0.func_801B74CC</title>
<g id="a_node3"><a xlink:href="nz0.func_801B74CC.svg" xlink:title="nz0.func_801B74CC">
<ellipse fill="green" stroke="black" cx="321.44" cy="-18" rx="104.78" ry="18"/>
<text text-anchor="middle" x="321.44" y="-14.3" font-family="Times,serif" font-size="14.00">nz0.func_801B74CC</text>
</a>
</g>
</g>
<!-- nz0.func_801B7520&#45;&gt;nz0.func_801B74CC -->
<g id="edge2" class="edge">
<title>nz0.func_801B7520&#45;&gt;nz0.func_801B74CC</title>
<path fill="none" stroke="black" d="M232.37,-87.21C249.25,-74.28 272.75,-56.28 291.38,-42.02"/>
<polygon fill="black" stroke="black" points="293.75,-44.62 299.56,-35.76 289.49,-39.06 293.75,-44.62"/>
<text text-anchor="middle" x="277.44" y="-57.8" font-family="Times,serif" font-size="14.00">1</text>
</g>
<!-- nz0.EntityMariaCutscene -->
<g id="node4" class="node">
<title>nz0.EntityMariaCutscene</title>
<g id="a_node4"><a xlink:href="nz0.EntityMariaCutscene.svg" xlink:title="nz0.EntityMariaCutscene">
<ellipse fill="red" stroke="black" cx="210.44" cy="-192" rx="129.18" ry="18"/>
<text text-anchor="middle" x="210.44" y="-188.3" font-family="Times,serif" font-size="14.00">nz0.EntityMariaCutscene</text>
</a>
</g>
</g>
<!-- nz0.EntityMariaCutscene&#45;&gt;nz0.func_801B7520 -->
<g id="edge3" class="edge">
<title>nz0.EntityMariaCutscene&#45;&gt;nz0.func_801B7520</title>
<path fill="none" stroke="black" d="M210.44,-173.8C210.44,-162.16 210.44,-146.55 210.44,-133.24"/>
<polygon fill="black" stroke="black" points="213.94,-133.18 210.44,-123.18 206.94,-133.18 213.94,-133.18"/>
<text text-anchor="middle" x="215.44" y="-144.8" font-family="Times,serif" font-size="14.00">1</text>
</g>
</g>
</svg>
