<?xml version="1.0" encoding="UTF-8" standalone="no"?>
<!DOCTYPE svg PUBLIC "-//W3C//DTD SVG 1.1//EN"
 "http://www.w3.org/Graphics/SVG/1.1/DTD/svg11.dtd">
<!-- Generated by graphviz version 2.43.0 (0)
 -->
<!-- Title: nz0.EntityPurpleBrickScrollingBackground Pages: 1 -->
<svg width="633pt" height="131pt"
 viewBox="0.00 0.00 632.98 131.00" xmlns="http://www.w3.org/2000/svg" xmlns:xlink="http://www.w3.org/1999/xlink">
<g id="graph0" class="graph" transform="scale(1 1) rotate(0) translate(4 127)">
<title>nz0.EntityPurpleBrickScrollingBackground</title>
<polygon fill="white" stroke="transparent" points="-4,4 -4,-127 628.98,-127 628.98,4 -4,4"/>
<!-- nz0.EntityPurpleBrickScrollingBackground -->
<g id="node1" class="node">
<title>nz0.EntityPurpleBrickScrollingBackground</title>
<ellipse fill="green" stroke="black" cx="316.44" cy="-105" rx="211.46" ry="18"/>
<text text-anchor="middle" x="316.44" y="-101.3" font-family="Times,serif" font-size="14.00">nz0.EntityPurpleBrickScrollingBackground</text>
</g>
<!-- nz0.InitializeEntity -->
<g id="node2" class="node">
<title>nz0.InitializeEntity</title>
<g id="a_node2"><a xlink:href="nz0.InitializeEntity.svg" xlink:title="nz0.InitializeEntity">
<ellipse fill="green" stroke="black" cx="99.44" cy="-18" rx="99.38" ry="18"/>
<text text-anchor="middle" x="99.44" y="-14.3" font-family="Times,serif" font-size="14.00">nz0.InitializeEntity</text>
</a>
</g>
</g>
<!-- nz0.EntityPurpleBrickScrollingBackground&#45;&gt;nz0.InitializeEntity -->
<g id="edge1" class="edge">
<title>nz0.EntityPurpleBrickScrollingBackground&#45;&gt;nz0.InitializeEntity</title>
<path fill="none" stroke="black" d="M273.83,-87.31C238.02,-73.28 186.81,-53.22 149.15,-38.47"/>
<polygon fill="black" stroke="black" points="149.98,-35.04 139.39,-34.65 147.43,-41.56 149.98,-35.04"/>
<text text-anchor="middle" x="226.44" y="-57.8" font-family="Times,serif" font-size="14.00">1</text>
</g>
<!-- dra.AllocPrimitives -->
<g id="node3" class="node">
<title>dra.AllocPrimitives</title>
<g id="a_node3"><a xlink:href="dra.AllocPrimitives.svg" xlink:title="dra.AllocPrimitives">
<ellipse fill="green" stroke="black" cx="316.44" cy="-18" rx="99.38" ry="18"/>
<text text-anchor="middle" x="316.44" y="-14.3" font-family="Times,serif" font-size="14.00">dra.AllocPrimitives</text>
</a>
</g>
</g>
<!-- nz0.EntityPurpleBrickScrollingBackground&#45;&gt;dra.AllocPrimitives -->
<g id="edge2" class="edge">
<title>nz0.EntityPurpleBrickScrollingBackground&#45;&gt;dra.AllocPrimitives</title>
<path fill="none" stroke="black" d="M316.44,-86.8C316.44,-75.16 316.44,-59.55 316.44,-46.24"/>
<polygon fill="black" stroke="black" points="319.94,-46.18 316.44,-36.18 312.94,-46.18 319.94,-46.18"/>
<text text-anchor="middle" x="321.44" y="-57.8" font-family="Times,serif" font-size="14.00">1</text>
</g>
<!-- nz0.DestroyEntity -->
<g id="node4" class="node">
<title>nz0.DestroyEntity</title>
<g id="a_node4"><a xlink:href="nz0.DestroyEntity.svg" xlink:title="nz0.DestroyEntity">
<ellipse fill="green" stroke="black" cx="529.44" cy="-18" rx="95.58" ry="18"/>
<text text-anchor="middle" x="529.44" y="-14.3" font-family="Times,serif" font-size="14.00">nz0.DestroyEntity</text>
</a>
</g>
</g>
<!-- nz0.EntityPurpleBrickScrollingBackground&#45;&gt;nz0.DestroyEntity -->
<g id="edge3" class="edge">
<title>nz0.EntityPurpleBrickScrollingBackground&#45;&gt;nz0.DestroyEntity</title>
<path fill="none" stroke="black" d="M358.27,-87.31C393.52,-73.24 444,-53.1 481,-38.33"/>
<polygon fill="black" stroke="black" points="482.59,-41.47 490.58,-34.51 479.99,-34.96 482.59,-41.47"/>
<text text-anchor="middle" x="441.44" y="-57.8" font-family="Times,serif" font-size="14.00">1</text>
</g>
</g>
</svg>
