<?xml version="1.0" encoding="UTF-8" standalone="no"?>
<!DOCTYPE svg PUBLIC "-//W3C//DTD SVG 1.1//EN"
 "http://www.w3.org/Graphics/SVG/1.1/DTD/svg11.dtd">
<!-- Generated by graphviz version 2.43.0 (0)
 -->
<!-- Title: nz0.EntityBloodSplatter Pages: 1 -->
<svg width="1760pt" height="224pt"
 viewBox="0.00 0.00 1760.08 224.00" xmlns="http://www.w3.org/2000/svg" xmlns:xlink="http://www.w3.org/1999/xlink">
<g id="graph0" class="graph" transform="scale(1 1) rotate(0) translate(4 220)">
<title>nz0.EntityBloodSplatter</title>
<polygon fill="white" stroke="transparent" points="-4,4 -4,-220 1756.08,-220 1756.08,4 -4,4"/>
<!-- nz0.EntityBloodSplatter -->
<g id="node1" class="node">
<title>nz0.EntityBloodSplatter</title>
<ellipse fill="green" stroke="black" cx="857.44" cy="-198" rx="123.48" ry="18"/>
<text text-anchor="middle" x="857.44" y="-194.3" font-family="Times,serif" font-size="14.00">nz0.EntityBloodSplatter</text>
</g>
<!-- dra.AllocPrimitives -->
<g id="node2" class="node">
<title>dra.AllocPrimitives</title>
<g id="a_node2"><a xlink:href="dra.AllocPrimitives.svg" xlink:title="dra.AllocPrimitives">
<ellipse fill="green" stroke="black" cx="99.44" cy="-18" rx="99.38" ry="18"/>
<text text-anchor="middle" x="99.44" y="-14.3" font-family="Times,serif" font-size="14.00">dra.AllocPrimitives</text>
</a>
</g>
</g>
<!-- nz0.EntityBloodSplatter&#45;&gt;dra.AllocPrimitives -->
<g id="edge1" class="edge">
<title>nz0.EntityBloodSplatter&#45;&gt;dra.AllocPrimitives</title>
<path fill="none" stroke="black" d="M795.41,-182.43C654.91,-149.44 313.28,-69.22 167.35,-34.95"/>
<polygon fill="black" stroke="black" points="168.14,-31.54 157.61,-32.66 166.54,-38.35 168.14,-31.54"/>
<text text-anchor="middle" x="152.61" y="-36.46" font-family="Times,serif" font-size="14.00">1</text>
</g>
<!-- nz0.DestroyEntity -->
<g id="node3" class="node">
<title>nz0.DestroyEntity</title>
<g id="a_node3"><a xlink:href="nz0.DestroyEntity.svg" xlink:title="nz0.DestroyEntity">
<ellipse fill="green" stroke="black" cx="312.44" cy="-18" rx="95.58" ry="18"/>
<text text-anchor="middle" x="312.44" y="-14.3" font-family="Times,serif" font-size="14.00">nz0.DestroyEntity</text>
</a>
</g>
</g>
<!-- nz0.EntityBloodSplatter&#45;&gt;nz0.DestroyEntity -->
<g id="edge2" class="edge">
<title>nz0.EntityBloodSplatter&#45;&gt;nz0.DestroyEntity</title>
<path fill="none" stroke="black" d="M809.55,-181.36C708.67,-148.41 474.8,-72.03 367.75,-37.06"/>
<polygon fill="black" stroke="black" points="368.69,-33.69 358.1,-33.91 366.52,-40.34 368.69,-33.69"/>
<text text-anchor="middle" x="353.1" y="-37.71" font-family="Times,serif" font-size="14.00">1</text>
</g>
<!-- nz0.InitializeEntity -->
<g id="node4" class="node">
<title>nz0.InitializeEntity</title>
<g id="a_node4"><a xlink:href="nz0.InitializeEntity.svg" xlink:title="nz0.InitializeEntity">
<ellipse fill="green" stroke="black" cx="525.44" cy="-18" rx="99.38" ry="18"/>
<text text-anchor="middle" x="525.44" y="-14.3" font-family="Times,serif" font-size="14.00">nz0.InitializeEntity</text>
</a>
</g>
</g>
<!-- nz0.EntityBloodSplatter&#45;&gt;nz0.InitializeEntity -->
<g id="edge3" class="edge">
<title>nz0.EntityBloodSplatter&#45;&gt;nz0.InitializeEntity</title>
<path fill="none" stroke="black" d="M826.51,-180.41C765.93,-147.94 631.77,-76.01 564.91,-40.16"/>
<polygon fill="black" stroke="black" points="566.4,-36.99 555.94,-35.35 563.1,-43.16 566.4,-36.99"/>
<text text-anchor="middle" x="550.94" y="-39.15" font-family="Times,serif" font-size="14.00">1</text>
</g>
<!-- nz0.func_801C9930 -->
<g id="node5" class="node">
<title>nz0.func_801C9930</title>
<g id="a_node5"><a xlink:href="nz0.func_801C9930.svg" xlink:title="nz0.func_801C9930">
<ellipse fill="red" stroke="black" cx="745.44" cy="-18" rx="102.88" ry="18"/>
<text text-anchor="middle" x="745.44" y="-14.3" font-family="Times,serif" font-size="14.00">nz0.func_801C9930</text>
</a>
</g>
</g>
<!-- nz0.EntityBloodSplatter&#45;&gt;nz0.func_801C9930 -->
<g id="edge4" class="edge">
<title>nz0.EntityBloodSplatter&#45;&gt;nz0.func_801C9930</title>
<path fill="none" stroke="black" d="M846.7,-179.93C826.97,-148.57 784.83,-81.6 761.62,-44.71"/>
<polygon fill="black" stroke="black" points="764.44,-42.62 756.15,-36.02 758.51,-46.34 764.44,-42.62"/>
<text text-anchor="middle" x="751.15" y="-39.82" font-family="Times,serif" font-size="14.00">2</text>
</g>
<!-- nz0.func_801C9D18 -->
<g id="node6" class="node">
<title>nz0.func_801C9D18</title>
<g id="a_node6"><a xlink:href="nz0.func_801C9D18.svg" xlink:title="nz0.func_801C9D18">
<ellipse fill="red" stroke="black" cx="970.44" cy="-18" rx="103.98" ry="18"/>
<text text-anchor="middle" x="970.44" y="-14.3" font-family="Times,serif" font-size="14.00">nz0.func_801C9D18</text>
</a>
</g>
</g>
<!-- nz0.EntityBloodSplatter&#45;&gt;nz0.func_801C9D18 -->
<g id="edge5" class="edge">
<title>nz0.EntityBloodSplatter&#45;&gt;nz0.func_801C9D18</title>
<path fill="none" stroke="black" d="M868.28,-179.93C888.19,-148.57 930.7,-81.6 954.12,-44.71"/>
<polygon fill="black" stroke="black" points="957.23,-46.33 959.64,-36.02 951.32,-42.58 957.23,-46.33"/>
<text text-anchor="middle" x="954.64" y="-39.82" font-family="Times,serif" font-size="14.00">2</text>
</g>
<!-- nz0.func_801C9E98 -->
<g id="node7" class="node">
<title>nz0.func_801C9E98</title>
<g id="a_node7"><a xlink:href="nz0.func_801C9E98.svg" xlink:title="nz0.func_801C9E98">
<ellipse fill="green" stroke="black" cx="1195.44" cy="-18" rx="103.18" ry="18"/>
<text text-anchor="middle" x="1195.44" y="-14.3" font-family="Times,serif" font-size="14.00">nz0.func_801C9E98</text>
</a>
</g>
</g>
<!-- nz0.EntityBloodSplatter&#45;&gt;nz0.func_801C9E98 -->
<g id="edge6" class="edge">
<title>nz0.EntityBloodSplatter&#45;&gt;nz0.func_801C9E98</title>
<path fill="none" stroke="black" d="M888.63,-180.57C950.13,-148.19 1086.96,-76.13 1155.17,-40.21"/>
<polygon fill="black" stroke="black" points="1157.11,-43.14 1164.32,-35.39 1153.85,-36.95 1157.11,-43.14"/>
<text text-anchor="middle" x="1159.32" y="-39.19" font-family="Times,serif" font-size="14.00">2</text>
</g>
<!-- nz0.func_801CA07C -->
<g id="node8" class="node">
<title>nz0.func_801CA07C</title>
<g id="a_node8"><a xlink:href="nz0.func_801CA07C.svg" xlink:title="nz0.func_801CA07C">
<ellipse fill="green" stroke="black" cx="1420.44" cy="-18" rx="103.98" ry="18"/>
<text text-anchor="middle" x="1420.44" y="-14.3" font-family="Times,serif" font-size="14.00">nz0.func_801CA07C</text>
</a>
</g>
</g>
<!-- nz0.EntityBloodSplatter&#45;&gt;nz0.func_801CA07C -->
<g id="edge7" class="edge">
<title>nz0.EntityBloodSplatter&#45;&gt;nz0.func_801CA07C</title>
<path fill="none" stroke="black" d="M906.91,-181.36C1011.1,-148.42 1252.6,-72.07 1363.23,-37.09"/>
<polygon fill="black" stroke="black" points="1364.4,-40.39 1372.88,-34.04 1362.29,-33.71 1364.4,-40.39"/>
<text text-anchor="middle" x="1367.88" y="-37.84" font-family="Times,serif" font-size="14.00">2</text>
</g>
<!-- nz0.func_801CA0D0 -->
<g id="node9" class="node">
<title>nz0.func_801CA0D0</title>
<g id="a_node9"><a xlink:href="nz0.func_801CA0D0.svg" xlink:title="nz0.func_801CA0D0">
<ellipse fill="green" stroke="black" cx="1647.44" cy="-18" rx="104.78" ry="18"/>
<text text-anchor="middle" x="1647.44" y="-14.3" font-family="Times,serif" font-size="14.00">nz0.func_801CA0D0</text>
</a>
</g>
</g>
<!-- nz0.EntityBloodSplatter&#45;&gt;nz0.func_801CA0D0 -->
<g id="edge8" class="edge">
<title>nz0.EntityBloodSplatter&#45;&gt;nz0.func_801CA0D0</title>
<path fill="none" stroke="black" d="M921.42,-182.58C1067.39,-149.7 1424.1,-69.32 1576.51,-34.98"/>
<polygon fill="black" stroke="black" points="1577.7,-38.3 1586.69,-32.69 1576.16,-31.47 1577.7,-38.3"/>
<text text-anchor="middle" x="1581.69" y="-36.49" font-family="Times,serif" font-size="14.00">2</text>
</g>
</g>
</svg>
