<?xml version="1.0" encoding="UTF-8" standalone="no"?>
<!DOCTYPE svg PUBLIC "-//W3C//DTD SVG 1.1//EN"
 "http://www.w3.org/Graphics/SVG/1.1/DTD/svg11.dtd">
<!-- Generated by graphviz version 2.43.0 (0)
 -->
<!-- Title: nz0.EntityStageNamePopup Pages: 1 -->
<svg width="1135pt" height="224pt"
 viewBox="0.00 0.00 1135.49 224.00" xmlns="http://www.w3.org/2000/svg" xmlns:xlink="http://www.w3.org/1999/xlink">
<g id="graph0" class="graph" transform="scale(1 1) rotate(0) translate(4 220)">
<title>nz0.EntityStageNamePopup</title>
<polygon fill="white" stroke="transparent" points="-4,4 -4,-220 1131.49,-220 1131.49,4 -4,4"/>
<!-- nz0.EntityStageNamePopup -->
<g id="node1" class="node">
<title>nz0.EntityStageNamePopup</title>
<ellipse fill="red" stroke="black" cx="598.44" cy="-198" rx="141.88" ry="18"/>
<text text-anchor="middle" x="598.44" y="-194.3" font-family="Times,serif" font-size="14.00">nz0.EntityStageNamePopup</text>
</g>
<!-- nz0.InitializeEntity -->
<g id="node2" class="node">
<title>nz0.InitializeEntity</title>
<g id="a_node2"><a xlink:href="nz0.InitializeEntity.svg" xlink:title="nz0.InitializeEntity">
<ellipse fill="green" stroke="black" cx="99.44" cy="-18" rx="99.38" ry="18"/>
<text text-anchor="middle" x="99.44" y="-14.3" font-family="Times,serif" font-size="14.00">nz0.InitializeEntity</text>
</a>
</g>
</g>
<!-- nz0.EntityStageNamePopup&#45;&gt;nz0.InitializeEntity -->
<g id="edge1" class="edge">
<title>nz0.EntityStageNamePopup&#45;&gt;nz0.InitializeEntity</title>
<path fill="none" stroke="black" d="M553.28,-180.89C460.76,-147.89 250.12,-72.75 151.81,-37.68"/>
<polygon fill="black" stroke="black" points="152.96,-34.38 142.37,-34.31 150.61,-40.97 152.96,-34.38"/>
<text text-anchor="middle" x="137.37" y="-38.11" font-family="Times,serif" font-size="14.00">1</text>
</g>
<!-- dra.AllocPrimitives -->
<g id="node3" class="node">
<title>dra.AllocPrimitives</title>
<g id="a_node3"><a xlink:href="dra.AllocPrimitives.svg" xlink:title="dra.AllocPrimitives">
<ellipse fill="green" stroke="black" cx="316.44" cy="-18" rx="99.38" ry="18"/>
<text text-anchor="middle" x="316.44" y="-14.3" font-family="Times,serif" font-size="14.00">dra.AllocPrimitives</text>
</a>
</g>
</g>
<!-- nz0.EntityStageNamePopup&#45;&gt;dra.AllocPrimitives -->
<g id="edge2" class="edge">
<title>nz0.EntityStageNamePopup&#45;&gt;dra.AllocPrimitives</title>
<path fill="none" stroke="black" d="M571.91,-180.25C520.76,-147.97 408.53,-77.13 351.38,-41.05"/>
<polygon fill="black" stroke="black" points="353.02,-37.95 342.7,-35.57 349.28,-43.87 353.02,-37.95"/>
<text text-anchor="middle" x="337.7" y="-39.37" font-family="Times,serif" font-size="14.00">1</text>
</g>
<!-- nz0.Random -->
<g id="node4" class="node">
<title>nz0.Random</title>
<g id="a_node4"><a xlink:href="nz0.Random.svg" xlink:title="nz0.Random">
<ellipse fill="green" stroke="black" cx="502.44" cy="-18" rx="68.49" ry="18"/>
<text text-anchor="middle" x="502.44" y="-14.3" font-family="Times,serif" font-size="14.00">nz0.Random</text>
</a>
</g>
</g>
<!-- nz0.EntityStageNamePopup&#45;&gt;nz0.Random -->
<g id="edge3" class="edge">
<title>nz0.EntityStageNamePopup&#45;&gt;nz0.Random</title>
<path fill="none" stroke="black" d="M589.24,-179.93C572.39,-148.7 536.51,-82.17 516.56,-45.18"/>
<polygon fill="black" stroke="black" points="519.45,-43.16 511.62,-36.02 513.28,-46.48 519.45,-43.16"/>
<text text-anchor="middle" x="506.62" y="-39.82" font-family="Times,serif" font-size="14.00">4</text>
</g>
<!-- nz0.func_801C8ADC -->
<g id="node5" class="node">
<title>nz0.func_801C8ADC</title>
<g id="a_node5"><a xlink:href="nz0.func_801C8ADC.svg" xlink:title="nz0.func_801C8ADC">
<ellipse fill="green" stroke="black" cx="694.44" cy="-18" rx="105.08" ry="18"/>
<text text-anchor="middle" x="694.44" y="-14.3" font-family="Times,serif" font-size="14.00">nz0.func_801C8ADC</text>
</a>
</g>
</g>
<!-- nz0.EntityStageNamePopup&#45;&gt;nz0.func_801C8ADC -->
<g id="edge4" class="edge">
<title>nz0.EntityStageNamePopup&#45;&gt;nz0.func_801C8ADC</title>
<path fill="none" stroke="black" d="M607.65,-179.93C624.49,-148.7 660.37,-82.17 680.32,-45.18"/>
<polygon fill="black" stroke="black" points="683.6,-46.48 685.26,-36.02 677.44,-43.16 683.6,-46.48"/>
<text text-anchor="middle" x="680.26" y="-39.82" font-family="Times,serif" font-size="14.00">2</text>
</g>
<!-- nz0.DestroyEntity -->
<g id="node6" class="node">
<title>nz0.DestroyEntity</title>
<g id="a_node6"><a xlink:href="nz0.DestroyEntity.svg" xlink:title="nz0.DestroyEntity">
<ellipse fill="green" stroke="black" cx="913.44" cy="-18" rx="95.58" ry="18"/>
<text text-anchor="middle" x="913.44" y="-14.3" font-family="Times,serif" font-size="14.00">nz0.DestroyEntity</text>
</a>
</g>
</g>
<!-- nz0.EntityStageNamePopup&#45;&gt;nz0.DestroyEntity -->
<g id="edge5" class="edge">
<title>nz0.EntityStageNamePopup&#45;&gt;nz0.DestroyEntity</title>
<path fill="none" stroke="black" d="M628.08,-180.25C685.59,-147.75 812.25,-76.18 875.69,-40.33"/>
<polygon fill="black" stroke="black" points="877.59,-43.28 884.57,-35.31 874.14,-37.19 877.59,-43.28"/>
<text text-anchor="middle" x="879.57" y="-39.11" font-family="Times,serif" font-size="14.00">1</text>
</g>
<!-- FntPrint -->
<g id="node7" class="node">
<title>FntPrint</title>
<g id="a_node7"><a xlink:href="FntPrint.svg" xlink:title="FntPrint">
<ellipse fill="lightblue" stroke="black" cx="1077.44" cy="-18" rx="50.09" ry="18"/>
<text text-anchor="middle" x="1077.44" y="-14.3" font-family="Times,serif" font-size="14.00">FntPrint</text>
</a>
</g>
</g>
<!-- nz0.EntityStageNamePopup&#45;&gt;FntPrint -->
<g id="edge6" class="edge">
<title>nz0.EntityStageNamePopup&#45;&gt;FntPrint</title>
<path fill="none" stroke="black" d="M642.22,-180.73C733.58,-146.78 943.57,-68.75 1034.34,-35.02"/>
<polygon fill="black" stroke="black" points="1035.62,-38.27 1043.78,-31.51 1033.19,-31.71 1035.62,-38.27"/>
<text text-anchor="middle" x="1038.78" y="-35.31" font-family="Times,serif" font-size="14.00">2</text>
</g>
</g>
</svg>
