<?xml version="1.0" encoding="UTF-8" standalone="no"?>
<!DOCTYPE svg PUBLIC "-//W3C//DTD SVG 1.1//EN"
 "http://www.w3.org/Graphics/SVG/1.1/DTD/svg11.dtd">
<!-- Generated by graphviz version 2.43.0 (0)
 -->
<!-- Title: nz0.Update Pages: 1 -->
<svg width="681pt" height="131pt"
 viewBox="0.00 0.00 680.93 131.00" xmlns="http://www.w3.org/2000/svg" xmlns:xlink="http://www.w3.org/1999/xlink">
<g id="graph0" class="graph" transform="scale(1 1) rotate(0) translate(4 127)">
<title>nz0.Update</title>
<polygon fill="white" stroke="transparent" points="-4,4 -4,-127 676.93,-127 676.93,4 -4,4"/>
<!-- nz0.Update -->
<g id="node1" class="node">
<title>nz0.Update</title>
<ellipse fill="green" stroke="black" cx="310.79" cy="-105" rx="64.19" ry="18"/>
<text text-anchor="middle" x="310.79" y="-101.3" font-family="Times,serif" font-size="14.00">nz0.Update</text>
</g>
<!-- dra.FreePrimitives -->
<g id="node2" class="node">
<title>dra.FreePrimitives</title>
<g id="a_node2"><a xlink:href="dra.FreePrimitives.svg" xlink:title="dra.FreePrimitives">
<ellipse fill="green" stroke="black" cx="98.79" cy="-18" rx="98.58" ry="18"/>
<text text-anchor="middle" x="98.79" y="-14.3" font-family="Times,serif" font-size="14.00">dra.FreePrimitives</text>
</a>
</g>
</g>
<!-- nz0.Update&#45;&gt;dra.FreePrimitives -->
<g id="edge1" class="edge">
<title>nz0.Update&#45;&gt;dra.FreePrimitives</title>
<path fill="none" stroke="black" d="M275.31,-89.77C240.21,-75.7 186.23,-54.06 147.21,-38.41"/>
<polygon fill="black" stroke="black" points="148.21,-35.04 137.63,-34.57 145.61,-41.54 148.21,-35.04"/>
<text text-anchor="middle" x="222.79" y="-57.8" font-family="Times,serif" font-size="14.00">1</text>
</g>
<!-- nz0.DestroyEntity -->
<g id="node3" class="node">
<title>nz0.DestroyEntity</title>
<g id="a_node3"><a xlink:href="nz0.DestroyEntity.svg" xlink:title="nz0.DestroyEntity">
<ellipse fill="green" stroke="black" cx="310.79" cy="-18" rx="95.58" ry="18"/>
<text text-anchor="middle" x="310.79" y="-14.3" font-family="Times,serif" font-size="14.00">nz0.DestroyEntity</text>
</a>
</g>
</g>
<!-- nz0.Update&#45;&gt;nz0.DestroyEntity -->
<g id="edge2" class="edge">
<title>nz0.Update&#45;&gt;nz0.DestroyEntity</title>
<path fill="none" stroke="black" d="M310.79,-86.8C310.79,-75.16 310.79,-59.55 310.79,-46.24"/>
<polygon fill="black" stroke="black" points="314.29,-46.18 310.79,-36.18 307.29,-46.18 314.29,-46.18"/>
<text text-anchor="middle" x="315.79" y="-57.8" font-family="Times,serif" font-size="14.00">1</text>
</g>
<!-- UnknownEntityFunction -->
<g id="node4" class="node">
<title>UnknownEntityFunction</title>
<g id="a_node4"><a xlink:href="UnknownEntityFunction.svg" xlink:title="UnknownEntityFunction">
<ellipse fill="lightblue" stroke="black" cx="548.79" cy="-18" rx="124.28" ry="18"/>
<text text-anchor="middle" x="548.79" y="-14.3" font-family="Times,serif" font-size="14.00">UnknownEntityFunction</text>
</a>
</g>
</g>
<!-- nz0.Update&#45;&gt;UnknownEntityFunction -->
<g id="edge3" class="edge">
<title>nz0.Update&#45;&gt;UnknownEntityFunction</title>
<path fill="none" stroke="black" d="M348.77,-90.44C388.26,-76.33 450.42,-54.13 494.97,-38.22"/>
<polygon fill="black" stroke="black" points="496.23,-41.49 504.47,-34.83 493.88,-34.9 496.23,-41.49"/>
<text text-anchor="middle" x="449.79" y="-57.8" font-family="Times,serif" font-size="14.00">1</text>
</g>
</g>
</svg>
