<?xml version="1.0" encoding="UTF-8" standalone="no"?>
<!DOCTYPE svg PUBLIC "-//W3C//DTD SVG 1.1//EN"
 "http://www.w3.org/Graphics/SVG/1.1/DTD/svg11.dtd">
<!-- Generated by graphviz version 2.43.0 (0)
 -->
<!-- Title: nz0.func_801BDFFC Pages: 1 -->
<svg width="812pt" height="404pt"
 viewBox="0.00 0.00 812.33 404.00" xmlns="http://www.w3.org/2000/svg" xmlns:xlink="http://www.w3.org/1999/xlink">
<g id="graph0" class="graph" transform="scale(1 1) rotate(0) translate(4 400)">
<title>nz0.func_801BDFFC</title>
<polygon fill="white" stroke="transparent" points="-4,4 -4,-400 808.33,-400 808.33,4 -4,4"/>
<!-- nz0.func_801BDFFC -->
<g id="node1" class="node">
<title>nz0.func_801BDFFC</title>
<ellipse fill="green" stroke="black" cx="378.79" cy="-198" rx="105.88" ry="18"/>
<text text-anchor="middle" x="378.79" y="-194.3" font-family="Times,serif" font-size="14.00">nz0.func_801BDFFC</text>
</g>
<!-- dra.FreePrimitives -->
<g id="node2" class="node">
<title>dra.FreePrimitives</title>
<g id="a_node2"><a xlink:href="dra.FreePrimitives.svg" xlink:title="dra.FreePrimitives">
<ellipse fill="green" stroke="black" cx="98.79" cy="-18" rx="98.58" ry="18"/>
<text text-anchor="middle" x="98.79" y="-14.3" font-family="Times,serif" font-size="14.00">dra.FreePrimitives</text>
</a>
</g>
</g>
<!-- nz0.func_801BDFFC&#45;&gt;dra.FreePrimitives -->
<g id="edge1" class="edge">
<title>nz0.func_801BDFFC&#45;&gt;dra.FreePrimitives</title>
<path fill="none" stroke="black" d="M352.7,-180.41C302.06,-148.22 190.42,-77.25 133.56,-41.1"/>
<polygon fill="black" stroke="black" points="135.23,-38.02 124.92,-35.61 131.48,-43.93 135.23,-38.02"/>
<text text-anchor="middle" x="119.92" y="-39.41" font-family="Times,serif" font-size="14.00">1</text>
</g>
<!-- dra.PlaySfx -->
<g id="node3" class="node">
<title>dra.PlaySfx</title>
<g id="a_node3"><a xlink:href="dra.PlaySfx.svg" xlink:title="dra.PlaySfx">
<ellipse fill="green" stroke="black" cx="279.79" cy="-18" rx="64.19" ry="18"/>
<text text-anchor="middle" x="279.79" y="-14.3" font-family="Times,serif" font-size="14.00">dra.PlaySfx</text>
</a>
</g>
</g>
<!-- nz0.func_801BDFFC&#45;&gt;dra.PlaySfx -->
<g id="edge2" class="edge">
<title>nz0.func_801BDFFC&#45;&gt;dra.PlaySfx</title>
<path fill="none" stroke="black" d="M369.3,-179.93C351.93,-148.7 314.92,-82.17 294.35,-45.18"/>
<polygon fill="black" stroke="black" points="297.17,-43.05 289.26,-36.02 291.06,-46.46 297.17,-43.05"/>
<text text-anchor="middle" x="284.26" y="-39.82" font-family="Times,serif" font-size="14.00">1</text>
</g>
<!-- nz0.BottomCornerText -->
<g id="node4" class="node">
<title>nz0.BottomCornerText</title>
<g id="a_node4"><a xlink:href="nz0.BottomCornerText.svg" xlink:title="nz0.BottomCornerText">
<ellipse fill="green" stroke="black" cx="478.79" cy="-18" rx="116.18" ry="18"/>
<text text-anchor="middle" x="478.79" y="-14.3" font-family="Times,serif" font-size="14.00">nz0.BottomCornerText</text>
</a>
</g>
</g>
<!-- nz0.func_801BDFFC&#45;&gt;nz0.BottomCornerText -->
<g id="edge3" class="edge">
<title>nz0.func_801BDFFC&#45;&gt;nz0.BottomCornerText</title>
<path fill="none" stroke="black" d="M388.38,-179.93C405.93,-148.7 443.3,-82.17 464.08,-45.18"/>
<polygon fill="black" stroke="black" points="467.39,-46.45 469.23,-36.02 461.28,-43.02 467.39,-46.45"/>
<text text-anchor="middle" x="464.23" y="-39.82" font-family="Times,serif" font-size="14.00">1</text>
</g>
<!-- nz0.DestroyEntity -->
<g id="node5" class="node">
<title>nz0.DestroyEntity</title>
<g id="a_node5"><a xlink:href="nz0.DestroyEntity.svg" xlink:title="nz0.DestroyEntity">
<ellipse fill="green" stroke="black" cx="708.79" cy="-18" rx="95.58" ry="18"/>
<text text-anchor="middle" x="708.79" y="-14.3" font-family="Times,serif" font-size="14.00">nz0.DestroyEntity</text>
</a>
</g>
</g>
<!-- nz0.func_801BDFFC&#45;&gt;nz0.DestroyEntity -->
<g id="edge4" class="edge">
<title>nz0.func_801BDFFC&#45;&gt;nz0.DestroyEntity</title>
<path fill="none" stroke="black" d="M408.95,-180.73C468.98,-148.35 603.33,-75.88 669.89,-39.98"/>
<polygon fill="black" stroke="black" points="671.68,-42.99 678.82,-35.17 668.36,-36.83 671.68,-42.99"/>
<text text-anchor="middle" x="673.82" y="-38.97" font-family="Times,serif" font-size="14.00">1</text>
</g>
<!-- nz0.EntityPrizeDrop -->
<g id="node6" class="node">
<title>nz0.EntityPrizeDrop</title>
<g id="a_node6"><a xlink:href="nz0.EntityPrizeDrop.svg" xlink:title="nz0.EntityPrizeDrop">
<ellipse fill="green" stroke="black" cx="378.79" cy="-378" rx="105.88" ry="18"/>
<text text-anchor="middle" x="378.79" y="-374.3" font-family="Times,serif" font-size="14.00">nz0.EntityPrizeDrop</text>
</a>
</g>
</g>
<!-- nz0.EntityPrizeDrop&#45;&gt;nz0.func_801BDFFC -->
<g id="edge5" class="edge">
<title>nz0.EntityPrizeDrop&#45;&gt;nz0.func_801BDFFC</title>
<path fill="none" stroke="black" d="M378.79,-359.93C378.79,-328.97 378.79,-263.3 378.79,-226.13"/>
<polygon fill="black" stroke="black" points="382.29,-226.02 378.79,-216.02 375.29,-226.02 382.29,-226.02"/>
<text text-anchor="middle" x="373.79" y="-348.73" font-family="Times,serif" font-size="14.00">1</text>
</g>
</g>
</svg>
