<?xml version="1.0" encoding="UTF-8" standalone="no"?>
<!DOCTYPE svg PUBLIC "-//W3C//DTD SVG 1.1//EN"
 "http://www.w3.org/Graphics/SVG/1.1/DTD/svg11.dtd">
<!-- Generated by graphviz version 2.43.0 (0)
 -->
<!-- Title: nz0.EntitySpittleBone Pages: 1 -->
<svg width="2511pt" height="224pt"
 viewBox="0.00 0.00 2510.98 224.00" xmlns="http://www.w3.org/2000/svg" xmlns:xlink="http://www.w3.org/1999/xlink">
<g id="graph0" class="graph" transform="scale(1 1) rotate(0) translate(4 220)">
<title>nz0.EntitySpittleBone</title>
<polygon fill="white" stroke="transparent" points="-4,4 -4,-220 2506.98,-220 2506.98,4 -4,4"/>
<!-- nz0.EntitySpittleBone -->
<g id="node1" class="node">
<title>nz0.EntitySpittleBone</title>
<ellipse fill="green" stroke="black" cx="1423.44" cy="-198" rx="113.98" ry="18"/>
<text text-anchor="middle" x="1423.44" y="-194.3" font-family="Times,serif" font-size="14.00">nz0.EntitySpittleBone</text>
</g>
<!-- nz0.InitializeEntity -->
<g id="node2" class="node">
<title>nz0.InitializeEntity</title>
<g id="a_node2"><a xlink:href="nz0.InitializeEntity.svg" xlink:title="nz0.InitializeEntity">
<ellipse fill="green" stroke="black" cx="99.44" cy="-18" rx="99.38" ry="18"/>
<text text-anchor="middle" x="99.44" y="-14.3" font-family="Times,serif" font-size="14.00">nz0.InitializeEntity</text>
</a>
</g>
</g>
<!-- nz0.EntitySpittleBone&#45;&gt;nz0.InitializeEntity -->
<g id="edge1" class="edge">
<title>nz0.EntitySpittleBone&#45;&gt;nz0.InitializeEntity</title>
<path fill="none" stroke="black" d="M1336.72,-186.26C1137.2,-161.38 630.26,-97.26 207.44,-36 198.91,-34.76 190.01,-33.43 181.14,-32.08"/>
<polygon fill="black" stroke="black" points="181.57,-28.6 171.15,-30.54 180.5,-35.52 181.57,-28.6"/>
<text text-anchor="middle" x="166.15" y="-34.34" font-family="Times,serif" font-size="14.00">1</text>
</g>
<!-- nz0.func_801BCCFC -->
<g id="node3" class="node">
<title>nz0.func_801BCCFC</title>
<g id="a_node3"><a xlink:href="nz0.func_801BCCFC.svg" xlink:title="nz0.func_801BCCFC">
<ellipse fill="green" stroke="black" cx="322.44" cy="-18" rx="105.88" ry="18"/>
<text text-anchor="middle" x="322.44" y="-14.3" font-family="Times,serif" font-size="14.00">nz0.func_801BCCFC</text>
</a>
</g>
</g>
<!-- nz0.EntitySpittleBone&#45;&gt;nz0.func_801BCCFC -->
<g id="edge2" class="edge">
<title>nz0.EntitySpittleBone&#45;&gt;nz0.func_801BCCFC</title>
<path fill="none" stroke="black" d="M1346.9,-184.62C1147.54,-152.39 613.43,-66.04 406.22,-32.54"/>
<polygon fill="black" stroke="black" points="406.74,-29.08 396.31,-30.94 405.62,-35.99 406.74,-29.08"/>
<text text-anchor="middle" x="391.31" y="-34.74" font-family="Times,serif" font-size="14.00">1</text>
</g>
<!-- nz0.CreateEntityFromEntity -->
<g id="node4" class="node">
<title>nz0.CreateEntityFromEntity</title>
<g id="a_node4"><a xlink:href="nz0.CreateEntityFromEntity.svg" xlink:title="nz0.CreateEntityFromEntity">
<ellipse fill="green" stroke="black" cx="590.44" cy="-18" rx="143.77" ry="18"/>
<text text-anchor="middle" x="590.44" y="-14.3" font-family="Times,serif" font-size="14.00">nz0.CreateEntityFromEntity</text>
</a>
</g>
</g>
<!-- nz0.EntitySpittleBone&#45;&gt;nz0.CreateEntityFromEntity -->
<g id="edge3" class="edge">
<title>nz0.EntitySpittleBone&#45;&gt;nz0.CreateEntityFromEntity</title>
<path fill="none" stroke="black" d="M1358.77,-183.18C1208.07,-150.98 833.89,-71.02 669.76,-35.95"/>
<polygon fill="black" stroke="black" points="670.24,-32.47 659.73,-33.81 668.77,-39.32 670.24,-32.47"/>
<text text-anchor="middle" x="654.73" y="-37.61" font-family="Times,serif" font-size="14.00">4</text>
</g>
<!-- nz0.AnimateEntity -->
<g id="node5" class="node">
<title>nz0.AnimateEntity</title>
<g id="a_node5"><a xlink:href="nz0.AnimateEntity.svg" xlink:title="nz0.AnimateEntity">
<ellipse fill="green" stroke="black" cx="849.44" cy="-18" rx="97.48" ry="18"/>
<text text-anchor="middle" x="849.44" y="-14.3" font-family="Times,serif" font-size="14.00">nz0.AnimateEntity</text>
</a>
</g>
</g>
<!-- nz0.EntitySpittleBone&#45;&gt;nz0.AnimateEntity -->
<g id="edge4" class="edge">
<title>nz0.EntitySpittleBone&#45;&gt;nz0.AnimateEntity</title>
<path fill="none" stroke="black" d="M1374.01,-181.67C1268.02,-148.8 1019.44,-71.72 906.76,-36.78"/>
<polygon fill="black" stroke="black" points="907.53,-33.35 896.94,-33.73 905.45,-40.03 907.53,-33.35"/>
<text text-anchor="middle" x="891.94" y="-37.53" font-family="Times,serif" font-size="14.00">1</text>
</g>
<!-- nz0.func_801C1034 -->
<g id="node6" class="node">
<title>nz0.func_801C1034</title>
<g id="a_node6"><a xlink:href="nz0.func_801C1034.svg" xlink:title="nz0.func_801C1034">
<ellipse fill="green" stroke="black" cx="1067.44" cy="-18" rx="102.88" ry="18"/>
<text text-anchor="middle" x="1067.44" y="-14.3" font-family="Times,serif" font-size="14.00">nz0.func_801C1034</text>
</a>
</g>
</g>
<!-- nz0.EntitySpittleBone&#45;&gt;nz0.func_801C1034 -->
<g id="edge5" class="edge">
<title>nz0.EntitySpittleBone&#45;&gt;nz0.func_801C1034</title>
<path fill="none" stroke="black" d="M1390.9,-180.73C1326.02,-148.29 1180.62,-75.59 1108.96,-39.76"/>
<polygon fill="black" stroke="black" points="1110.28,-36.51 1099.77,-35.17 1107.15,-42.77 1110.28,-36.51"/>
<text text-anchor="middle" x="1094.77" y="-38.97" font-family="Times,serif" font-size="14.00">1</text>
</g>
<!-- nz0.Random -->
<g id="node7" class="node">
<title>nz0.Random</title>
<g id="a_node7"><a xlink:href="nz0.Random.svg" xlink:title="nz0.Random">
<ellipse fill="green" stroke="black" cx="1256.44" cy="-18" rx="68.49" ry="18"/>
<text text-anchor="middle" x="1256.44" y="-14.3" font-family="Times,serif" font-size="14.00">nz0.Random</text>
</a>
</g>
</g>
<!-- nz0.EntitySpittleBone&#45;&gt;nz0.Random -->
<g id="edge6" class="edge">
<title>nz0.EntitySpittleBone&#45;&gt;nz0.Random</title>
<path fill="none" stroke="black" d="M1407.43,-179.93C1377.68,-148.22 1313.78,-80.12 1279.42,-43.5"/>
<polygon fill="black" stroke="black" points="1281.56,-40.65 1272.16,-35.76 1276.45,-45.44 1281.56,-40.65"/>
<text text-anchor="middle" x="1267.16" y="-39.56" font-family="Times,serif" font-size="14.00">2</text>
</g>
<!-- nz0.AllocEntity -->
<g id="node8" class="node">
<title>nz0.AllocEntity</title>
<g id="a_node8"><a xlink:href="nz0.AllocEntity.svg" xlink:title="nz0.AllocEntity">
<ellipse fill="green" stroke="black" cx="1423.44" cy="-18" rx="81.49" ry="18"/>
<text text-anchor="middle" x="1423.44" y="-14.3" font-family="Times,serif" font-size="14.00">nz0.AllocEntity</text>
</a>
</g>
</g>
<!-- nz0.EntitySpittleBone&#45;&gt;nz0.AllocEntity -->
<g id="edge7" class="edge">
<title>nz0.EntitySpittleBone&#45;&gt;nz0.AllocEntity</title>
<path fill="none" stroke="black" d="M1423.44,-179.93C1423.44,-148.97 1423.44,-83.3 1423.44,-46.13"/>
<polygon fill="black" stroke="black" points="1426.94,-46.02 1423.44,-36.02 1419.94,-46.02 1426.94,-46.02"/>
<text text-anchor="middle" x="1418.44" y="-39.82" font-family="Times,serif" font-size="14.00">4</text>
</g>
<!-- rsin -->
<g id="node9" class="node">
<title>rsin</title>
<g id="a_node9"><a xlink:href="rsin.svg" xlink:title="rsin">
<ellipse fill="lightblue" stroke="black" cx="1551.44" cy="-18" rx="28.7" ry="18"/>
<text text-anchor="middle" x="1551.44" y="-14.3" font-family="Times,serif" font-size="14.00">rsin</text>
</a>
</g>
</g>
<!-- nz0.EntitySpittleBone&#45;&gt;rsin -->
<g id="edge8" class="edge">
<title>nz0.EntitySpittleBone&#45;&gt;rsin</title>
<path fill="none" stroke="black" d="M1435.71,-179.93C1458.56,-148.17 1507.66,-79.88 1533.96,-43.31"/>
<polygon fill="black" stroke="black" points="1537.13,-44.9 1540.13,-34.73 1531.45,-40.81 1537.13,-44.9"/>
<text text-anchor="middle" x="1535.13" y="-38.53" font-family="Times,serif" font-size="14.00">2</text>
</g>
<!-- rcos -->
<g id="node10" class="node">
<title>rcos</title>
<g id="a_node10"><a xlink:href="rcos.svg" xlink:title="rcos">
<ellipse fill="lightblue" stroke="black" cx="1628.44" cy="-18" rx="30.59" ry="18"/>
<text text-anchor="middle" x="1628.44" y="-14.3" font-family="Times,serif" font-size="14.00">rcos</text>
</a>
</g>
</g>
<!-- nz0.EntitySpittleBone&#45;&gt;rcos -->
<g id="edge9" class="edge">
<title>nz0.EntitySpittleBone&#45;&gt;rcos</title>
<path fill="none" stroke="black" d="M1442.73,-180.25C1480.29,-147.64 1563.18,-75.67 1604.31,-39.95"/>
<polygon fill="black" stroke="black" points="1606.7,-42.51 1611.96,-33.31 1602.11,-37.23 1606.7,-42.51"/>
<text text-anchor="middle" x="1606.96" y="-37.11" font-family="Times,serif" font-size="14.00">2</text>
</g>
<!-- nz0.func_801C1780 -->
<g id="node11" class="node">
<title>nz0.func_801C1780</title>
<g id="a_node11"><a xlink:href="nz0.func_801C1780.svg" xlink:title="nz0.func_801C1780">
<ellipse fill="green" stroke="black" cx="1779.44" cy="-18" rx="102.88" ry="18"/>
<text text-anchor="middle" x="1779.44" y="-14.3" font-family="Times,serif" font-size="14.00">nz0.func_801C1780</text>
</a>
</g>
</g>
<!-- nz0.EntitySpittleBone&#45;&gt;nz0.func_801C1780 -->
<g id="edge10" class="edge">
<title>nz0.EntitySpittleBone&#45;&gt;nz0.func_801C1780</title>
<path fill="none" stroke="black" d="M1455.98,-180.73C1520.86,-148.29 1666.27,-75.59 1737.92,-39.76"/>
<polygon fill="black" stroke="black" points="1739.73,-42.77 1747.11,-35.17 1736.6,-36.51 1739.73,-42.77"/>
<text text-anchor="middle" x="1742.11" y="-38.97" font-family="Times,serif" font-size="14.00">1</text>
</g>
<!-- nz0.func_801C29B0 -->
<g id="node12" class="node">
<title>nz0.func_801C29B0</title>
<g id="a_node12"><a xlink:href="nz0.func_801C29B0.svg" xlink:title="nz0.func_801C29B0">
<ellipse fill="green" stroke="black" cx="2003.44" cy="-18" rx="103.18" ry="18"/>
<text text-anchor="middle" x="2003.44" y="-14.3" font-family="Times,serif" font-size="14.00">nz0.func_801C29B0</text>
</a>
</g>
</g>
<!-- nz0.EntitySpittleBone&#45;&gt;nz0.func_801C29B0 -->
<g id="edge11" class="edge">
<title>nz0.EntitySpittleBone&#45;&gt;nz0.func_801C29B0</title>
<path fill="none" stroke="black" d="M1473.14,-181.75C1579.91,-148.98 1830.74,-72 1944.95,-36.95"/>
<polygon fill="black" stroke="black" points="1946.05,-40.28 1954.58,-34 1943.99,-33.58 1946.05,-40.28"/>
<text text-anchor="middle" x="1949.58" y="-37.8" font-family="Times,serif" font-size="14.00">1</text>
</g>
<!-- nz0.MoveEntity -->
<g id="node13" class="node">
<title>nz0.MoveEntity</title>
<g id="a_node13"><a xlink:href="nz0.MoveEntity.svg" xlink:title="nz0.MoveEntity">
<ellipse fill="green" stroke="black" cx="2209.44" cy="-18" rx="84.49" ry="18"/>
<text text-anchor="middle" x="2209.44" y="-14.3" font-family="Times,serif" font-size="14.00">nz0.MoveEntity</text>
</a>
</g>
</g>
<!-- nz0.EntitySpittleBone&#45;&gt;nz0.MoveEntity -->
<g id="edge12" class="edge">
<title>nz0.EntitySpittleBone&#45;&gt;nz0.MoveEntity</title>
<path fill="none" stroke="black" d="M1485.77,-182.88C1631.74,-149.83 1994.64,-67.65 2143.81,-33.86"/>
<polygon fill="black" stroke="black" points="2144.77,-37.23 2153.75,-31.61 2143.23,-30.41 2144.77,-37.23"/>
<text text-anchor="middle" x="2148.75" y="-35.41" font-family="Times,serif" font-size="14.00">1</text>
</g>
<!-- nz0.DestroyEntity -->
<g id="node14" class="node">
<title>nz0.DestroyEntity</title>
<g id="a_node14"><a xlink:href="nz0.DestroyEntity.svg" xlink:title="nz0.DestroyEntity">
<ellipse fill="green" stroke="black" cx="2407.44" cy="-18" rx="95.58" ry="18"/>
<text text-anchor="middle" x="2407.44" y="-14.3" font-family="Times,serif" font-size="14.00">nz0.DestroyEntity</text>
</a>
</g>
</g>
<!-- nz0.EntitySpittleBone&#45;&gt;nz0.DestroyEntity -->
<g id="edge13" class="edge">
<title>nz0.EntitySpittleBone&#45;&gt;nz0.DestroyEntity</title>
<path fill="none" stroke="black" d="M1495.4,-183.98C1675.83,-151.34 2146.27,-66.24 2331.2,-32.79"/>
<polygon fill="black" stroke="black" points="2331.9,-36.22 2341.12,-31 2330.65,-29.33 2331.9,-36.22"/>
<text text-anchor="middle" x="2336.12" y="-34.8" font-family="Times,serif" font-size="14.00">1</text>
</g>
</g>
</svg>
