<?xml version="1.0" encoding="UTF-8" standalone="no"?>
<!DOCTYPE svg PUBLIC "-//W3C//DTD SVG 1.1//EN"
 "http://www.w3.org/Graphics/SVG/1.1/DTD/svg11.dtd">
<!-- Generated by graphviz version 2.43.0 (0)
 -->
<!-- Title: nz0.EntityMariaCutscene Pages: 1 -->
<svg width="3091pt" height="131pt"
 viewBox="0.00 0.00 3091.08 131.00" xmlns="http://www.w3.org/2000/svg" xmlns:xlink="http://www.w3.org/1999/xlink">
<g id="graph0" class="graph" transform="scale(1 1) rotate(0) translate(4 127)">
<title>nz0.EntityMariaCutscene</title>
<polygon fill="white" stroke="transparent" points="-4,4 -4,-127 3087.08,-127 3087.08,4 -4,4"/>
<!-- nz0.EntityMariaCutscene -->
<g id="node1" class="node">
<title>nz0.EntityMariaCutscene</title>
<ellipse fill="red" stroke="black" cx="1599.54" cy="-105" rx="129.18" ry="18"/>
<text text-anchor="middle" x="1599.54" y="-101.3" font-family="Times,serif" font-size="14.00">nz0.EntityMariaCutscene</text>
</g>
<!-- g_api_FreePrimitives -->
<g id="node2" class="node">
<title>g_api_FreePrimitives</title>
<g id="a_node2"><a xlink:href="g_api_FreePrimitives.svg" xlink:title="g_api_FreePrimitives">
<ellipse fill="lightblue" stroke="black" cx="108.54" cy="-18" rx="108.58" ry="18"/>
<text text-anchor="middle" x="108.54" y="-14.3" font-family="Times,serif" font-size="14.00">g_api_FreePrimitives</text>
</a>
</g>
</g>
<!-- nz0.EntityMariaCutscene&#45;&gt;g_api_FreePrimitives -->
<g id="edge1" class="edge">
<title>nz0.EntityMariaCutscene&#45;&gt;g_api_FreePrimitives</title>
<path fill="none" stroke="black" d="M1470.39,-103.47C1265.4,-101.82 853.05,-95.21 504.54,-69 397.35,-60.94 274.67,-44.29 194.63,-32.42"/>
<polygon fill="black" stroke="black" points="195,-28.94 184.59,-30.92 193.97,-35.86 195,-28.94"/>
<text text-anchor="middle" x="509.54" y="-57.8" font-family="Times,serif" font-size="14.00">3</text>
</g>
<!-- dra.PlaySfx -->
<g id="node3" class="node">
<title>dra.PlaySfx</title>
<g id="a_node3"><a xlink:href="dra.PlaySfx.svg" xlink:title="dra.PlaySfx">
<ellipse fill="green" stroke="black" cx="299.54" cy="-18" rx="64.19" ry="18"/>
<text text-anchor="middle" x="299.54" y="-14.3" font-family="Times,serif" font-size="14.00">dra.PlaySfx</text>
</a>
</g>
</g>
<!-- nz0.EntityMariaCutscene&#45;&gt;dra.PlaySfx -->
<g id="edge2" class="edge">
<title>nz0.EntityMariaCutscene&#45;&gt;dra.PlaySfx</title>
<path fill="none" stroke="black" d="M1474.57,-100.25C1312.72,-95.04 1021.91,-84.48 773.54,-69 595.06,-57.88 549.21,-63.69 372.54,-36 366.86,-35.11 360.96,-34.02 355.09,-32.83"/>
<polygon fill="black" stroke="black" points="355.8,-29.4 345.29,-30.74 354.34,-36.24 355.8,-29.4"/>
<text text-anchor="middle" x="778.54" y="-57.8" font-family="Times,serif" font-size="14.00">2</text>
</g>
<!-- nz0.func_801B79A8 -->
<g id="node4" class="node">
<title>nz0.func_801B79A8</title>
<g id="a_node4"><a xlink:href="nz0.func_801B79A8.svg" xlink:title="nz0.func_801B79A8">
<ellipse fill="red" stroke="black" cx="484.54" cy="-18" rx="102.88" ry="18"/>
<text text-anchor="middle" x="484.54" y="-14.3" font-family="Times,serif" font-size="14.00">nz0.func_801B79A8</text>
</a>
</g>
</g>
<!-- nz0.EntityMariaCutscene&#45;&gt;nz0.func_801B79A8 -->
<g id="edge3" class="edge">
<title>nz0.EntityMariaCutscene&#45;&gt;nz0.func_801B79A8</title>
<path fill="none" stroke="black" d="M1475.5,-99.73C1285.51,-92.25 911.24,-73.84 595.54,-36 586.27,-34.89 576.59,-33.6 566.97,-32.24"/>
<polygon fill="black" stroke="black" points="567.39,-28.76 556.99,-30.79 566.39,-35.69 567.39,-28.76"/>
<text text-anchor="middle" x="931.54" y="-57.8" font-family="Times,serif" font-size="14.00">1</text>
</g>
<!-- nz0.func_801B7520 -->
<g id="node5" class="node">
<title>nz0.func_801B7520</title>
<g id="a_node5"><a xlink:href="nz0.func_801B7520.svg" xlink:title="nz0.func_801B7520">
<ellipse fill="green" stroke="black" cx="707.54" cy="-18" rx="102.88" ry="18"/>
<text text-anchor="middle" x="707.54" y="-14.3" font-family="Times,serif" font-size="14.00">nz0.func_801B7520</text>
</a>
</g>
</g>
<!-- nz0.EntityMariaCutscene&#45;&gt;nz0.func_801B7520 -->
<g id="edge4" class="edge">
<title>nz0.EntityMariaCutscene&#45;&gt;nz0.func_801B7520</title>
<path fill="none" stroke="black" d="M1484.79,-96.65C1332.29,-86.27 1054.57,-65.27 818.54,-36 809.35,-34.86 799.75,-33.56 790.21,-32.19"/>
<polygon fill="black" stroke="black" points="790.7,-28.73 780.3,-30.75 789.69,-35.66 790.7,-28.73"/>
<text text-anchor="middle" x="1123.54" y="-57.8" font-family="Times,serif" font-size="14.00">1</text>
</g>
<!-- nz0.func_801B7740 -->
<g id="node6" class="node">
<title>nz0.func_801B7740</title>
<g id="a_node6"><a xlink:href="nz0.func_801B7740.svg" xlink:title="nz0.func_801B7740">
<ellipse fill="red" stroke="black" cx="930.54" cy="-18" rx="102.88" ry="18"/>
<text text-anchor="middle" x="930.54" y="-14.3" font-family="Times,serif" font-size="14.00">nz0.func_801B7740</text>
</a>
</g>
</g>
<!-- nz0.EntityMariaCutscene&#45;&gt;nz0.func_801B7740 -->
<g id="edge5" class="edge">
<title>nz0.EntityMariaCutscene&#45;&gt;nz0.func_801B7740</title>
<path fill="none" stroke="black" d="M1502.4,-93.08C1390.98,-80.34 1202.88,-58.18 1041.54,-36 1032.68,-34.78 1023.42,-33.45 1014.2,-32.09"/>
<polygon fill="black" stroke="black" points="1014.64,-28.62 1004.23,-30.61 1013.61,-35.54 1014.64,-28.62"/>
<text text-anchor="middle" x="1291.54" y="-57.8" font-family="Times,serif" font-size="14.00">2</text>
</g>
<!-- nz0.func_801B74CC -->
<g id="node7" class="node">
<title>nz0.func_801B74CC</title>
<g id="a_node7"><a xlink:href="nz0.func_801B74CC.svg" xlink:title="nz0.func_801B74CC">
<ellipse fill="green" stroke="black" cx="1155.54" cy="-18" rx="104.78" ry="18"/>
<text text-anchor="middle" x="1155.54" y="-14.3" font-family="Times,serif" font-size="14.00">nz0.func_801B74CC</text>
</a>
</g>
</g>
<!-- nz0.EntityMariaCutscene&#45;&gt;nz0.func_801B74CC -->
<g id="edge6" class="edge">
<title>nz0.EntityMariaCutscene&#45;&gt;nz0.func_801B74CC</title>
<path fill="none" stroke="black" d="M1526.72,-90.06C1445.63,-74.54 1315.12,-49.55 1232.43,-33.72"/>
<polygon fill="black" stroke="black" points="1233.06,-30.28 1222.58,-31.83 1231.75,-37.15 1233.06,-30.28"/>
<text text-anchor="middle" x="1409.54" y="-57.8" font-family="Times,serif" font-size="14.00">1</text>
</g>
<!-- nz0.func_801B77F8 -->
<g id="node8" class="node">
<title>nz0.func_801B77F8</title>
<g id="a_node8"><a xlink:href="nz0.func_801B77F8.svg" xlink:title="nz0.func_801B77F8">
<ellipse fill="red" stroke="black" cx="1380.54" cy="-18" rx="102.88" ry="18"/>
<text text-anchor="middle" x="1380.54" y="-14.3" font-family="Times,serif" font-size="14.00">nz0.func_801B77F8</text>
</a>
</g>
</g>
<!-- nz0.EntityMariaCutscene&#45;&gt;nz0.func_801B77F8 -->
<g id="edge7" class="edge">
<title>nz0.EntityMariaCutscene&#45;&gt;nz0.func_801B77F8</title>
<path fill="none" stroke="black" d="M1558.09,-87.91C1521.74,-73.8 1468.81,-53.26 1430.2,-38.27"/>
<polygon fill="black" stroke="black" points="1431.3,-34.95 1420.71,-34.59 1428.77,-41.47 1431.3,-34.95"/>
<text text-anchor="middle" x="1508.54" y="-57.8" font-family="Times,serif" font-size="14.00">1</text>
</g>
<!-- dra.FreePrimitives -->
<g id="node9" class="node">
<title>dra.FreePrimitives</title>
<g id="a_node9"><a xlink:href="dra.FreePrimitives.svg" xlink:title="dra.FreePrimitives">
<ellipse fill="green" stroke="black" cx="1599.54" cy="-18" rx="98.58" ry="18"/>
<text text-anchor="middle" x="1599.54" y="-14.3" font-family="Times,serif" font-size="14.00">dra.FreePrimitives</text>
</a>
</g>
</g>
<!-- nz0.EntityMariaCutscene&#45;&gt;dra.FreePrimitives -->
<g id="edge8" class="edge">
<title>nz0.EntityMariaCutscene&#45;&gt;dra.FreePrimitives</title>
<path fill="none" stroke="black" d="M1599.54,-86.8C1599.54,-75.16 1599.54,-59.55 1599.54,-46.24"/>
<polygon fill="black" stroke="black" points="1603.04,-46.18 1599.54,-36.18 1596.04,-46.18 1603.04,-46.18"/>
<text text-anchor="middle" x="1604.54" y="-57.8" font-family="Times,serif" font-size="14.00">2</text>
</g>
<!-- dra.func_80131F68 -->
<g id="node10" class="node">
<title>dra.func_80131F68</title>
<g id="a_node10"><a xlink:href="dra.func_80131F68.svg" xlink:title="dra.func_80131F68">
<ellipse fill="green" stroke="black" cx="1817.54" cy="-18" rx="100.98" ry="18"/>
<text text-anchor="middle" x="1817.54" y="-14.3" font-family="Times,serif" font-size="14.00">dra.func_80131F68</text>
</a>
</g>
</g>
<!-- nz0.EntityMariaCutscene&#45;&gt;dra.func_80131F68 -->
<g id="edge9" class="edge">
<title>nz0.EntityMariaCutscene&#45;&gt;dra.func_80131F68</title>
<path fill="none" stroke="black" d="M1640.8,-87.91C1676.99,-73.8 1729.68,-53.26 1768.11,-38.27"/>
<polygon fill="black" stroke="black" points="1769.51,-41.49 1777.55,-34.59 1766.96,-34.96 1769.51,-41.49"/>
<text text-anchor="middle" x="1727.54" y="-57.8" font-family="Times,serif" font-size="14.00">2</text>
</g>
<!-- nz0.func_801B797C -->
<g id="node11" class="node">
<title>nz0.func_801B797C</title>
<g id="a_node11"><a xlink:href="nz0.func_801B797C.svg" xlink:title="nz0.func_801B797C">
<ellipse fill="green" stroke="black" cx="2039.54" cy="-18" rx="103.18" ry="18"/>
<text text-anchor="middle" x="2039.54" y="-14.3" font-family="Times,serif" font-size="14.00">nz0.func_801B797C</text>
</a>
</g>
</g>
<!-- nz0.EntityMariaCutscene&#45;&gt;nz0.func_801B797C -->
<g id="edge10" class="edge">
<title>nz0.EntityMariaCutscene&#45;&gt;nz0.func_801B797C</title>
<path fill="none" stroke="black" d="M1671.7,-90.06C1751.98,-74.55 1881.13,-49.6 1963.1,-33.77"/>
<polygon fill="black" stroke="black" points="1963.95,-37.17 1973.1,-31.83 1962.62,-30.3 1963.95,-37.17"/>
<text text-anchor="middle" x="1851.54" y="-57.8" font-family="Times,serif" font-size="14.00">1</text>
</g>
<!-- LoadTPage -->
<g id="node12" class="node">
<title>LoadTPage</title>
<g id="a_node12"><a xlink:href="LoadTPage.svg" xlink:title="LoadTPage">
<ellipse fill="lightblue" stroke="black" cx="2222.54" cy="-18" rx="61.99" ry="18"/>
<text text-anchor="middle" x="2222.54" y="-14.3" font-family="Times,serif" font-size="14.00">LoadTPage</text>
</a>
</g>
</g>
<!-- nz0.EntityMariaCutscene&#45;&gt;LoadTPage -->
<g id="edge11" class="edge">
<title>nz0.EntityMariaCutscene&#45;&gt;LoadTPage</title>
<path fill="none" stroke="black" d="M1705.12,-94.56C1816.61,-83.75 1997.25,-63.88 2151.54,-36 2156.92,-35.03 2162.5,-33.9 2168.06,-32.7"/>
<polygon fill="black" stroke="black" points="2169.02,-36.07 2178.01,-30.47 2167.49,-29.24 2169.02,-36.07"/>
<text text-anchor="middle" x="2036.54" y="-57.8" font-family="Times,serif" font-size="14.00">1</text>
</g>
<!-- MoveImage -->
<g id="node13" class="node">
<title>MoveImage</title>
<g id="a_node13"><a xlink:href="MoveImage.svg" xlink:title="MoveImage">
<ellipse fill="lightblue" stroke="black" cx="2367.54" cy="-18" rx="64.99" ry="18"/>
<text text-anchor="middle" x="2367.54" y="-14.3" font-family="Times,serif" font-size="14.00">MoveImage</text>
</a>
</g>
</g>
<!-- nz0.EntityMariaCutscene&#45;&gt;MoveImage -->
<g id="edge12" class="edge">
<title>nz0.EntityMariaCutscene&#45;&gt;MoveImage</title>
<path fill="none" stroke="black" d="M1719.47,-98.19C1858.47,-90.08 2094,-72.11 2293.54,-36 2298.97,-35.02 2304.61,-33.9 2310.23,-32.72"/>
<polygon fill="black" stroke="black" points="2311.27,-36.08 2320.3,-30.54 2309.79,-29.24 2311.27,-36.08"/>
<text text-anchor="middle" x="2186.54" y="-57.8" font-family="Times,serif" font-size="14.00">1</text>
</g>
<!-- nz0.func_801B7C54 -->
<g id="node14" class="node">
<title>nz0.func_801B7C54</title>
<g id="a_node14"><a xlink:href="nz0.func_801B7C54.svg" xlink:title="nz0.func_801B7C54">
<ellipse fill="red" stroke="black" cx="2553.54" cy="-18" rx="103.18" ry="18"/>
<text text-anchor="middle" x="2553.54" y="-14.3" font-family="Times,serif" font-size="14.00">nz0.func_801B7C54</text>
</a>
</g>
</g>
<!-- nz0.EntityMariaCutscene&#45;&gt;nz0.func_801B7C54 -->
<g id="edge13" class="edge">
<title>nz0.EntityMariaCutscene&#45;&gt;nz0.func_801B7C54</title>
<path fill="none" stroke="black" d="M1722.74,-99.45C1843.41,-94.37 2032.4,-84.71 2195.54,-69 2305.35,-58.43 2332.34,-51.61 2441.54,-36 2450.4,-34.73 2459.66,-33.38 2468.88,-32.01"/>
<polygon fill="black" stroke="black" points="2469.49,-35.46 2478.86,-30.52 2468.46,-28.53 2469.49,-35.46"/>
<text text-anchor="middle" x="2324.54" y="-57.8" font-family="Times,serif" font-size="14.00">1</text>
</g>
<!-- dra.AllocPrimitives -->
<g id="node15" class="node">
<title>dra.AllocPrimitives</title>
<g id="a_node15"><a xlink:href="dra.AllocPrimitives.svg" xlink:title="dra.AllocPrimitives">
<ellipse fill="green" stroke="black" cx="2774.54" cy="-18" rx="99.38" ry="18"/>
<text text-anchor="middle" x="2774.54" y="-14.3" font-family="Times,serif" font-size="14.00">dra.AllocPrimitives</text>
</a>
</g>
</g>
<!-- nz0.EntityMariaCutscene&#45;&gt;dra.AllocPrimitives -->
<g id="edge14" class="edge">
<title>nz0.EntityMariaCutscene&#45;&gt;dra.AllocPrimitives</title>
<path fill="none" stroke="black" d="M1725.98,-101.1C1926.09,-95.35 2327.75,-79.09 2665.54,-36 2674.61,-34.84 2684.09,-33.53 2693.5,-32.15"/>
<polygon fill="black" stroke="black" points="2694.3,-35.57 2703.68,-30.64 2693.27,-28.65 2694.3,-35.57"/>
<text text-anchor="middle" x="2497.54" y="-57.8" font-family="Times,serif" font-size="14.00">1</text>
</g>
<!-- nz0.DestroyEntity -->
<g id="node16" class="node">
<title>nz0.DestroyEntity</title>
<g id="a_node16"><a xlink:href="nz0.DestroyEntity.svg" xlink:title="nz0.DestroyEntity">
<ellipse fill="green" stroke="black" cx="2987.54" cy="-18" rx="95.58" ry="18"/>
<text text-anchor="middle" x="2987.54" y="-14.3" font-family="Times,serif" font-size="14.00">nz0.DestroyEntity</text>
</a>
</g>
</g>
<!-- nz0.EntityMariaCutscene&#45;&gt;nz0.DestroyEntity -->
<g id="edge15" class="edge">
<title>nz0.EntityMariaCutscene&#45;&gt;nz0.DestroyEntity</title>
<path fill="none" stroke="black" d="M1725.83,-101.08C1901.15,-96.58 2228.17,-86.58 2506.54,-69 2673.96,-58.43 2716.08,-56.75 2882.54,-36 2891.26,-34.91 2900.37,-33.64 2909.42,-32.29"/>
<polygon fill="black" stroke="black" points="2910.22,-35.71 2919.58,-30.75 2909.17,-28.79 2910.22,-35.71"/>
<text text-anchor="middle" x="2725.54" y="-57.8" font-family="Times,serif" font-size="14.00">2</text>
</g>
</g>
</svg>
