<?xml version="1.0" encoding="UTF-8" standalone="no"?>
<!DOCTYPE svg PUBLIC "-//W3C//DTD SVG 1.1//EN"
 "http://www.w3.org/Graphics/SVG/1.1/DTD/svg11.dtd">
<!-- Generated by graphviz version 2.43.0 (0)
 -->
<!-- Title: nz0.func_801BCCFC Pages: 1 -->
<svg width="1688pt" height="404pt"
 viewBox="0.00 0.00 1688.33 404.00" xmlns="http://www.w3.org/2000/svg" xmlns:xlink="http://www.w3.org/1999/xlink">
<g id="graph0" class="graph" transform="scale(1 1) rotate(0) translate(4 400)">
<title>nz0.func_801BCCFC</title>
<polygon fill="white" stroke="transparent" points="-4,4 -4,-400 1684.33,-400 1684.33,4 -4,4"/>
<!-- nz0.func_801BCCFC -->
<g id="node1" class="node">
<title>nz0.func_801BCCFC</title>
<ellipse fill="green" stroke="black" cx="825.24" cy="-198" rx="105.88" ry="18"/>
<text text-anchor="middle" x="825.24" y="-194.3" font-family="Times,serif" font-size="14.00">nz0.func_801BCCFC</text>
</g>
<!-- nz0.MoveEntity -->
<g id="node2" class="node">
<title>nz0.MoveEntity</title>
<g id="a_node2"><a xlink:href="nz0.MoveEntity.svg" xlink:title="nz0.MoveEntity">
<ellipse fill="green" stroke="black" cx="545.24" cy="-18" rx="84.49" ry="18"/>
<text text-anchor="middle" x="545.24" y="-14.3" font-family="Times,serif" font-size="14.00">nz0.MoveEntity</text>
</a>
</g>
</g>
<!-- nz0.func_801BCCFC&#45;&gt;nz0.MoveEntity -->
<g id="edge1" class="edge">
<title>nz0.func_801BCCFC&#45;&gt;nz0.MoveEntity</title>
<path fill="none" stroke="black" d="M799.15,-180.41C748.38,-148.14 636.3,-76.89 579.57,-40.83"/>
<polygon fill="black" stroke="black" points="581.28,-37.76 570.96,-35.35 577.52,-43.67 581.28,-37.76"/>
<text text-anchor="middle" x="565.96" y="-39.15" font-family="Times,serif" font-size="14.00">1</text>
</g>
<!-- nz0.FallEntity -->
<g id="node3" class="node">
<title>nz0.FallEntity</title>
<g id="a_node3"><a xlink:href="nz0.FallEntity.svg" xlink:title="nz0.FallEntity">
<ellipse fill="green" stroke="black" cx="724.24" cy="-18" rx="76.09" ry="18"/>
<text text-anchor="middle" x="724.24" y="-14.3" font-family="Times,serif" font-size="14.00">nz0.FallEntity</text>
</a>
</g>
</g>
<!-- nz0.func_801BCCFC&#45;&gt;nz0.FallEntity -->
<g id="edge2" class="edge">
<title>nz0.func_801BCCFC&#45;&gt;nz0.FallEntity</title>
<path fill="none" stroke="black" d="M815.56,-179.93C797.83,-148.7 760.08,-82.17 739.09,-45.18"/>
<polygon fill="black" stroke="black" points="741.87,-42.99 733.9,-36.02 735.79,-46.44 741.87,-42.99"/>
<text text-anchor="middle" x="728.9" y="-39.82" font-family="Times,serif" font-size="14.00">1</text>
</g>
<!-- g_api_CheckCollision -->
<g id="node4" class="node">
<title>g_api_CheckCollision</title>
<g id="a_node4"><a xlink:href="g_api_CheckCollision.svg" xlink:title="g_api_CheckCollision">
<ellipse fill="lightblue" stroke="black" cx="926.24" cy="-18" rx="107.78" ry="18"/>
<text text-anchor="middle" x="926.24" y="-14.3" font-family="Times,serif" font-size="14.00">g_api_CheckCollision</text>
</a>
</g>
</g>
<!-- nz0.func_801BCCFC&#45;&gt;g_api_CheckCollision -->
<g id="edge3" class="edge">
<title>nz0.func_801BCCFC&#45;&gt;g_api_CheckCollision</title>
<path fill="none" stroke="black" d="M834.92,-179.93C852.65,-148.7 890.4,-82.17 911.39,-45.18"/>
<polygon fill="black" stroke="black" points="914.69,-46.44 916.59,-36.02 908.61,-42.99 914.69,-46.44"/>
<text text-anchor="middle" x="911.59" y="-39.82" font-family="Times,serif" font-size="14.00">2</text>
</g>
<!-- dra.CheckCollision -->
<g id="node5" class="node">
<title>dra.CheckCollision</title>
<g id="a_node5"><a xlink:href="dra.CheckCollision.svg" xlink:title="dra.CheckCollision">
<ellipse fill="green" stroke="black" cx="1149.24" cy="-18" rx="97.48" ry="18"/>
<text text-anchor="middle" x="1149.24" y="-14.3" font-family="Times,serif" font-size="14.00">dra.CheckCollision</text>
</a>
</g>
</g>
<!-- nz0.func_801BCCFC&#45;&gt;dra.CheckCollision -->
<g id="edge4" class="edge">
<title>nz0.func_801BCCFC&#45;&gt;dra.CheckCollision</title>
<path fill="none" stroke="black" d="M855.14,-180.57C914.09,-148.19 1045.25,-76.13 1110.64,-40.21"/>
<polygon fill="black" stroke="black" points="1112.33,-43.27 1119.41,-35.39 1108.96,-37.13 1112.33,-43.27"/>
<text text-anchor="middle" x="1114.41" y="-39.19" font-family="Times,serif" font-size="14.00">1</text>
</g>
<!-- nz0.EntityAxeKnight -->
<g id="node6" class="node">
<title>nz0.EntityAxeKnight</title>
<g id="a_node6"><a xlink:href="nz0.EntityAxeKnight.svg" xlink:title="nz0.EntityAxeKnight">
<ellipse fill="green" stroke="black" cx="107.24" cy="-378" rx="107.48" ry="18"/>
<text text-anchor="middle" x="107.24" y="-374.3" font-family="Times,serif" font-size="14.00">nz0.EntityAxeKnight</text>
</a>
</g>
</g>
<!-- nz0.EntityAxeKnight&#45;&gt;nz0.func_801BCCFC -->
<g id="edge5" class="edge">
<title>nz0.EntityAxeKnight&#45;&gt;nz0.func_801BCCFC</title>
<path fill="none" stroke="black" d="M164.78,-362.73C296.23,-330.15 617.99,-250.38 758.15,-215.63"/>
<polygon fill="black" stroke="black" points="759.06,-219.01 767.92,-213.21 757.37,-212.22 759.06,-219.01"/>
<text text-anchor="middle" x="159.78" y="-351.53" font-family="Times,serif" font-size="14.00">1</text>
</g>
<!-- nz0.EntityGaibon -->
<g id="node7" class="node">
<title>nz0.EntityGaibon</title>
<g id="a_node7"><a xlink:href="nz0.EntityGaibon.svg" xlink:title="nz0.EntityGaibon">
<ellipse fill="red" stroke="black" cx="324.24" cy="-378" rx="91.78" ry="18"/>
<text text-anchor="middle" x="324.24" y="-374.3" font-family="Times,serif" font-size="14.00">nz0.EntityGaibon</text>
</a>
</g>
</g>
<!-- nz0.EntityGaibon&#45;&gt;nz0.func_801BCCFC -->
<g id="edge6" class="edge">
<title>nz0.EntityGaibon&#45;&gt;nz0.func_801BCCFC</title>
<path fill="none" stroke="black" d="M366.52,-361.98C457.62,-329.61 672.22,-253.37 772.23,-217.84"/>
<polygon fill="black" stroke="black" points="773.57,-221.07 781.83,-214.42 771.23,-214.47 773.57,-221.07"/>
<text text-anchor="middle" x="361.52" y="-350.78" font-family="Times,serif" font-size="14.00">1</text>
</g>
<!-- nz0.EntityBloodyZombie -->
<g id="node8" class="node">
<title>nz0.EntityBloodyZombie</title>
<g id="a_node8"><a xlink:href="nz0.EntityBloodyZombie.svg" xlink:title="nz0.EntityBloodyZombie">
<ellipse fill="green" stroke="black" cx="559.24" cy="-378" rx="125.38" ry="18"/>
<text text-anchor="middle" x="559.24" y="-374.3" font-family="Times,serif" font-size="14.00">nz0.EntityBloodyZombie</text>
</a>
</g>
</g>
<!-- nz0.EntityBloodyZombie&#45;&gt;nz0.func_801BCCFC -->
<g id="edge7" class="edge">
<title>nz0.EntityBloodyZombie&#45;&gt;nz0.func_801BCCFC</title>
<path fill="none" stroke="black" d="M584.27,-360.25C632.41,-328.04 737.94,-257.42 791.95,-221.27"/>
<polygon fill="black" stroke="black" points="794.11,-224.04 800.48,-215.57 790.22,-218.22 794.11,-224.04"/>
<text text-anchor="middle" x="579.27" y="-349.05" font-family="Times,serif" font-size="14.00">1</text>
</g>
<!-- nz0.EntityBoneScimitar -->
<g id="node9" class="node">
<title>nz0.EntityBoneScimitar</title>
<g id="a_node9"><a xlink:href="nz0.EntityBoneScimitar.svg" xlink:title="nz0.EntityBoneScimitar">
<ellipse fill="green" stroke="black" cx="825.24" cy="-378" rx="122.38" ry="18"/>
<text text-anchor="middle" x="825.24" y="-374.3" font-family="Times,serif" font-size="14.00">nz0.EntityBoneScimitar</text>
</a>
</g>
</g>
<!-- nz0.EntityBoneScimitar&#45;&gt;nz0.func_801BCCFC -->
<g id="edge8" class="edge">
<title>nz0.EntityBoneScimitar&#45;&gt;nz0.func_801BCCFC</title>
<path fill="none" stroke="black" d="M825.24,-359.93C825.24,-328.97 825.24,-263.3 825.24,-226.13"/>
<polygon fill="black" stroke="black" points="828.74,-226.02 825.24,-216.02 821.74,-226.02 828.74,-226.02"/>
<text text-anchor="middle" x="820.24" y="-348.73" font-family="Times,serif" font-size="14.00">2</text>
</g>
<!-- nz0.EntitySpittleBone -->
<g id="node10" class="node">
<title>nz0.EntitySpittleBone</title>
<g id="a_node10"><a xlink:href="nz0.EntitySpittleBone.svg" xlink:title="nz0.EntitySpittleBone">
<ellipse fill="green" stroke="black" cx="1079.24" cy="-378" rx="113.98" ry="18"/>
<text text-anchor="middle" x="1079.24" y="-374.3" font-family="Times,serif" font-size="14.00">nz0.EntitySpittleBone</text>
</a>
</g>
</g>
<!-- nz0.EntitySpittleBone&#45;&gt;nz0.func_801BCCFC -->
<g id="edge9" class="edge">
<title>nz0.EntitySpittleBone&#45;&gt;nz0.func_801BCCFC</title>
<path fill="none" stroke="black" d="M1055.34,-360.25C1009.47,-328.1 909.02,-257.71 857.35,-221.5"/>
<polygon fill="black" stroke="black" points="859.09,-218.44 848.89,-215.57 855.07,-224.18 859.09,-218.44"/>
<text text-anchor="middle" x="1050.34" y="-349.05" font-family="Times,serif" font-size="14.00">1</text>
</g>
<!-- nz0.EntitySkeleton -->
<g id="node11" class="node">
<title>nz0.EntitySkeleton</title>
<g id="a_node11"><a xlink:href="nz0.EntitySkeleton.svg" xlink:title="nz0.EntitySkeleton">
<ellipse fill="green" stroke="black" cx="1310.24" cy="-378" rx="99.38" ry="18"/>
<text text-anchor="middle" x="1310.24" y="-374.3" font-family="Times,serif" font-size="14.00">nz0.EntitySkeleton</text>
</a>
</g>
</g>
<!-- nz0.EntitySkeleton&#45;&gt;nz0.func_801BCCFC -->
<g id="edge10" class="edge">
<title>nz0.EntitySkeleton&#45;&gt;nz0.func_801BCCFC</title>
<path fill="none" stroke="black" d="M1268.05,-361.52C1179.37,-328.97 973.88,-253.55 877.24,-218.09"/>
<polygon fill="black" stroke="black" points="878.27,-214.74 867.68,-214.58 875.86,-221.31 878.27,-214.74"/>
<text text-anchor="middle" x="1263.05" y="-350.32" font-family="Times,serif" font-size="14.00">2</text>
</g>
<!-- nz0.EntityBloodSkeleton -->
<g id="node12" class="node">
<title>nz0.EntityBloodSkeleton</title>
<g id="a_node12"><a xlink:href="nz0.EntityBloodSkeleton.svg" xlink:title="nz0.EntityBloodSkeleton">
<ellipse fill="green" stroke="black" cx="1554.24" cy="-378" rx="126.18" ry="18"/>
<text text-anchor="middle" x="1554.24" y="-374.3" font-family="Times,serif" font-size="14.00">nz0.EntityBloodSkeleton</text>
</a>
</g>
</g>
<!-- nz0.EntityBloodSkeleton&#45;&gt;nz0.func_801BCCFC -->
<g id="edge11" class="edge">
<title>nz0.EntityBloodSkeleton&#45;&gt;nz0.func_801BCCFC</title>
<path fill="none" stroke="black" d="M1493.65,-362.21C1358.69,-329.25 1034.11,-250 892.84,-215.51"/>
<polygon fill="black" stroke="black" points="893.53,-212.07 882.99,-213.1 891.87,-218.87 893.53,-212.07"/>
<text text-anchor="middle" x="1488.65" y="-351.01" font-family="Times,serif" font-size="14.00">1</text>
</g>
</g>
</svg>
