<?xml version="1.0" encoding="UTF-8" standalone="no"?>
<!DOCTYPE svg PUBLIC "-//W3C//DTD SVG 1.1//EN"
 "http://www.w3.org/Graphics/SVG/1.1/DTD/svg11.dtd">
<!-- Generated by graphviz version 2.43.0 (0)
 -->
<!-- Title: nz0.func_801BD848 Pages: 1 -->
<svg width="979pt" height="218pt"
 viewBox="0.00 0.00 979.08 218.00" xmlns="http://www.w3.org/2000/svg" xmlns:xlink="http://www.w3.org/1999/xlink">
<g id="graph0" class="graph" transform="scale(1 1) rotate(0) translate(4 214)">
<title>nz0.func_801BD848</title>
<polygon fill="white" stroke="transparent" points="-4,4 -4,-214 975.08,-214 975.08,4 -4,4"/>
<!-- nz0.func_801BD848 -->
<g id="node1" class="node">
<title>nz0.func_801BD848</title>
<ellipse fill="green" stroke="black" cx="508.64" cy="-105" rx="103.98" ry="18"/>
<text text-anchor="middle" x="508.64" y="-101.3" font-family="Times,serif" font-size="14.00">nz0.func_801BD848</text>
</g>
<!-- dra.CheckCollision -->
<g id="node2" class="node">
<title>dra.CheckCollision</title>
<g id="a_node2"><a xlink:href="dra.CheckCollision.svg" xlink:title="dra.CheckCollision">
<ellipse fill="green" stroke="black" cx="508.64" cy="-18" rx="97.48" ry="18"/>
<text text-anchor="middle" x="508.64" y="-14.3" font-family="Times,serif" font-size="14.00">dra.CheckCollision</text>
</a>
</g>
</g>
<!-- nz0.func_801BD848&#45;&gt;dra.CheckCollision -->
<g id="edge1" class="edge">
<title>nz0.func_801BD848&#45;&gt;dra.CheckCollision</title>
<path fill="none" stroke="black" d="M508.64,-86.8C508.64,-75.16 508.64,-59.55 508.64,-46.24"/>
<polygon fill="black" stroke="black" points="512.14,-46.18 508.64,-36.18 505.14,-46.18 512.14,-46.18"/>
<text text-anchor="middle" x="513.64" y="-57.8" font-family="Times,serif" font-size="14.00">1</text>
</g>
<!-- nz0.EntityEquipItemDrop -->
<g id="node3" class="node">
<title>nz0.EntityEquipItemDrop</title>
<g id="a_node3"><a xlink:href="nz0.EntityEquipItemDrop.svg" xlink:title="nz0.EntityEquipItemDrop">
<ellipse fill="green" stroke="black" cx="130.64" cy="-192" rx="130.78" ry="18"/>
<text text-anchor="middle" x="130.64" y="-188.3" font-family="Times,serif" font-size="14.00">nz0.EntityEquipItemDrop</text>
</a>
</g>
</g>
<!-- nz0.EntityEquipItemDrop&#45;&gt;nz0.func_801BD848 -->
<g id="edge2" class="edge">
<title>nz0.EntityEquipItemDrop&#45;&gt;nz0.func_801BD848</title>
<path fill="none" stroke="black" d="M196.05,-176.29C263.52,-161.12 368.41,-137.53 437.8,-121.93"/>
<polygon fill="black" stroke="black" points="438.79,-125.3 447.77,-119.69 437.25,-118.47 438.79,-125.3"/>
<text text-anchor="middle" x="347.64" y="-144.8" font-family="Times,serif" font-size="14.00">1</text>
</g>
<!-- nz0.EntityPrizeDrop -->
<g id="node4" class="node">
<title>nz0.EntityPrizeDrop</title>
<g id="a_node4"><a xlink:href="nz0.EntityPrizeDrop.svg" xlink:title="nz0.EntityPrizeDrop">
<ellipse fill="green" stroke="black" cx="385.64" cy="-192" rx="105.88" ry="18"/>
<text text-anchor="middle" x="385.64" y="-188.3" font-family="Times,serif" font-size="14.00">nz0.EntityPrizeDrop</text>
</a>
</g>
</g>
<!-- nz0.EntityPrizeDrop&#45;&gt;nz0.func_801BD848 -->
<g id="edge3" class="edge">
<title>nz0.EntityPrizeDrop&#45;&gt;nz0.func_801BD848</title>
<path fill="none" stroke="black" d="M409.65,-174.41C428.69,-161.25 455.5,-142.72 476.42,-128.27"/>
<polygon fill="black" stroke="black" points="478.45,-131.11 484.69,-122.55 474.47,-125.35 478.45,-131.11"/>
<text text-anchor="middle" x="459.64" y="-144.8" font-family="Times,serif" font-size="14.00">2</text>
</g>
<!-- nz0.EntityBoneScimitar -->
<g id="node5" class="node">
<title>nz0.EntityBoneScimitar</title>
<g id="a_node5"><a xlink:href="nz0.EntityBoneScimitar.svg" xlink:title="nz0.EntityBoneScimitar">
<ellipse fill="green" stroke="black" cx="631.64" cy="-192" rx="122.38" ry="18"/>
<text text-anchor="middle" x="631.64" y="-188.3" font-family="Times,serif" font-size="14.00">nz0.EntityBoneScimitar</text>
</a>
</g>
</g>
<!-- nz0.EntityBoneScimitar&#45;&gt;nz0.func_801BD848 -->
<g id="edge4" class="edge">
<title>nz0.EntityBoneScimitar&#45;&gt;nz0.func_801BD848</title>
<path fill="none" stroke="black" d="M607.34,-174.21C588.47,-161.17 562.12,-142.96 541.39,-128.63"/>
<polygon fill="black" stroke="black" points="543.11,-125.56 532.89,-122.76 539.13,-131.32 543.11,-125.56"/>
<text text-anchor="middle" x="582.64" y="-144.8" font-family="Times,serif" font-size="14.00">1</text>
</g>
<!-- nz0.EntitySkeleton -->
<g id="node6" class="node">
<title>nz0.EntitySkeleton</title>
<g id="a_node6"><a xlink:href="nz0.EntitySkeleton.svg" xlink:title="nz0.EntitySkeleton">
<ellipse fill="green" stroke="black" cx="871.64" cy="-192" rx="99.38" ry="18"/>
<text text-anchor="middle" x="871.64" y="-188.3" font-family="Times,serif" font-size="14.00">nz0.EntitySkeleton</text>
</a>
</g>
</g>
<!-- nz0.EntitySkeleton&#45;&gt;nz0.func_801BD848 -->
<g id="edge5" class="edge">
<title>nz0.EntitySkeleton&#45;&gt;nz0.func_801BD848</title>
<path fill="none" stroke="black" d="M813.32,-177.34C749.04,-162.29 645.73,-138.1 577.52,-122.13"/>
<polygon fill="black" stroke="black" points="578.25,-118.71 567.72,-119.83 576.66,-125.52 578.25,-118.71"/>
<text text-anchor="middle" x="717.64" y="-144.8" font-family="Times,serif" font-size="14.00">1</text>
</g>
</g>
</svg>
