<?xml version="1.0" encoding="UTF-8" standalone="no"?>
<!DOCTYPE svg PUBLIC "-//W3C//DTD SVG 1.1//EN"
 "http://www.w3.org/Graphics/SVG/1.1/DTD/svg11.dtd">
<!-- Generated by graphviz version 2.43.0 (0)
 -->
<!-- Title: nz0.func_801BD390 Pages: 1 -->
<svg width="504pt" height="218pt"
 viewBox="0.00 0.00 503.53 218.00" xmlns="http://www.w3.org/2000/svg" xmlns:xlink="http://www.w3.org/1999/xlink">
<g id="graph0" class="graph" transform="scale(1 1) rotate(0) translate(4 214)">
<title>nz0.func_801BD390</title>
<polygon fill="white" stroke="transparent" points="-4,4 -4,-214 499.53,-214 499.53,4 -4,4"/>
<!-- nz0.func_801BD390 -->
<g id="node1" class="node">
<title>nz0.func_801BD390</title>
<ellipse fill="green" stroke="black" cx="245.64" cy="-105" rx="103.98" ry="18"/>
<text text-anchor="middle" x="245.64" y="-101.3" font-family="Times,serif" font-size="14.00">nz0.func_801BD390</text>
</g>
<!-- rcos -->
<g id="node2" class="node">
<title>rcos</title>
<g id="a_node2"><a xlink:href="rcos.svg" xlink:title="rcos">
<ellipse fill="lightblue" stroke="black" cx="207.64" cy="-18" rx="30.59" ry="18"/>
<text text-anchor="middle" x="207.64" y="-14.3" font-family="Times,serif" font-size="14.00">rcos</text>
</a>
</g>
</g>
<!-- nz0.func_801BD390&#45;&gt;rcos -->
<g id="edge1" class="edge">
<title>nz0.func_801BD390&#45;&gt;rcos</title>
<path fill="none" stroke="black" d="M237.95,-86.8C232.57,-74.78 225.3,-58.51 219.23,-44.92"/>
<polygon fill="black" stroke="black" points="222.34,-43.3 215.06,-35.6 215.95,-46.15 222.34,-43.3"/>
<text text-anchor="middle" x="234.64" y="-57.8" font-family="Times,serif" font-size="14.00">1</text>
</g>
<!-- rsin -->
<g id="node3" class="node">
<title>rsin</title>
<g id="a_node3"><a xlink:href="rsin.svg" xlink:title="rsin">
<ellipse fill="lightblue" stroke="black" cx="284.64" cy="-18" rx="28.7" ry="18"/>
<text text-anchor="middle" x="284.64" y="-14.3" font-family="Times,serif" font-size="14.00">rsin</text>
</a>
</g>
</g>
<!-- nz0.func_801BD390&#45;&gt;rsin -->
<g id="edge2" class="edge">
<title>nz0.func_801BD390&#45;&gt;rsin</title>
<path fill="none" stroke="black" d="M253.53,-86.8C259.05,-74.78 266.51,-58.51 272.75,-44.92"/>
<polygon fill="black" stroke="black" points="276.04,-46.15 277.02,-35.6 269.67,-43.23 276.04,-46.15"/>
<text text-anchor="middle" x="272.64" y="-57.8" font-family="Times,serif" font-size="14.00">1</text>
</g>
<!-- nz0.EntityEnemyBlood -->
<g id="node4" class="node">
<title>nz0.EntityEnemyBlood</title>
<g id="a_node4"><a xlink:href="nz0.EntityEnemyBlood.svg" xlink:title="nz0.EntityEnemyBlood">
<ellipse fill="green" stroke="black" cx="117.64" cy="-192" rx="117.78" ry="18"/>
<text text-anchor="middle" x="117.64" y="-188.3" font-family="Times,serif" font-size="14.00">nz0.EntityEnemyBlood</text>
</a>
</g>
</g>
<!-- nz0.EntityEnemyBlood&#45;&gt;nz0.func_801BD390 -->
<g id="edge3" class="edge">
<title>nz0.EntityEnemyBlood&#45;&gt;nz0.func_801BD390</title>
<path fill="none" stroke="black" d="M142.62,-174.41C162.45,-161.25 190.34,-142.72 212.11,-128.27"/>
<polygon fill="black" stroke="black" points="214.32,-131 220.72,-122.55 210.45,-125.17 214.32,-131"/>
<text text-anchor="middle" x="194.64" y="-144.8" font-family="Times,serif" font-size="14.00">1</text>
</g>
<!-- nz0.EntitySoulStealOrb -->
<g id="node5" class="node">
<title>nz0.EntitySoulStealOrb</title>
<g id="a_node5"><a xlink:href="nz0.EntitySoulStealOrb.svg" xlink:title="nz0.EntitySoulStealOrb">
<ellipse fill="green" stroke="black" cx="374.64" cy="-192" rx="120.78" ry="18"/>
<text text-anchor="middle" x="374.64" y="-188.3" font-family="Times,serif" font-size="14.00">nz0.EntitySoulStealOrb</text>
</a>
</g>
</g>
<!-- nz0.EntitySoulStealOrb&#45;&gt;nz0.func_801BD390 -->
<g id="edge4" class="edge">
<title>nz0.EntitySoulStealOrb&#45;&gt;nz0.func_801BD390</title>
<path fill="none" stroke="black" d="M349.15,-174.21C329.28,-161.11 301.48,-142.8 279.7,-128.44"/>
<polygon fill="black" stroke="black" points="281.35,-125.34 271.07,-122.76 277.5,-131.18 281.35,-125.34"/>
<text text-anchor="middle" x="323.64" y="-144.8" font-family="Times,serif" font-size="14.00">1</text>
</g>
</g>
</svg>
