<?xml version="1.0" encoding="UTF-8" standalone="no"?>
<!DOCTYPE svg PUBLIC "-//W3C//DTD SVG 1.1//EN"
 "http://www.w3.org/Graphics/SVG/1.1/DTD/svg11.dtd">
<!-- Generated by graphviz version 2.43.0 (0)
 -->
<!-- Title: nz0.func_801C7654 Pages: 1 -->
<svg width="1183pt" height="224pt"
 viewBox="0.00 0.00 1182.98 224.00" xmlns="http://www.w3.org/2000/svg" xmlns:xlink="http://www.w3.org/1999/xlink">
<g id="graph0" class="graph" transform="scale(1 1) rotate(0) translate(4 220)">
<title>nz0.func_801C7654</title>
<polygon fill="white" stroke="transparent" points="-4,4 -4,-220 1178.98,-220 1178.98,4 -4,4"/>
<!-- nz0.func_801C7654 -->
<g id="node1" class="node">
<title>nz0.func_801C7654</title>
<ellipse fill="green" stroke="black" cx="468.44" cy="-198" rx="102.88" ry="18"/>
<text text-anchor="middle" x="468.44" y="-194.3" font-family="Times,serif" font-size="14.00">nz0.func_801C7654</text>
</g>
<!-- nz0.InitializeEntity -->
<g id="node2" class="node">
<title>nz0.InitializeEntity</title>
<g id="a_node2"><a xlink:href="nz0.InitializeEntity.svg" xlink:title="nz0.InitializeEntity">
<ellipse fill="green" stroke="black" cx="99.44" cy="-18" rx="99.38" ry="18"/>
<text text-anchor="middle" x="99.44" y="-14.3" font-family="Times,serif" font-size="14.00">nz0.InitializeEntity</text>
</a>
</g>
</g>
<!-- nz0.func_801C7654&#45;&gt;nz0.InitializeEntity -->
<g id="edge1" class="edge">
<title>nz0.func_801C7654&#45;&gt;nz0.InitializeEntity</title>
<path fill="none" stroke="black" d="M435.04,-180.89C367.76,-148.43 216,-75.22 141.84,-39.45"/>
<polygon fill="black" stroke="black" points="143.29,-36.27 132.76,-35.07 140.25,-42.57 143.29,-36.27"/>
<text text-anchor="middle" x="127.76" y="-38.87" font-family="Times,serif" font-size="14.00">1</text>
</g>
<!-- rcos -->
<g id="node3" class="node">
<title>rcos</title>
<g id="a_node3"><a xlink:href="rcos.svg" xlink:title="rcos">
<ellipse fill="lightblue" stroke="black" cx="247.44" cy="-18" rx="30.59" ry="18"/>
<text text-anchor="middle" x="247.44" y="-14.3" font-family="Times,serif" font-size="14.00">rcos</text>
</a>
</g>
</g>
<!-- nz0.func_801C7654&#45;&gt;rcos -->
<g id="edge2" class="edge">
<title>nz0.func_801C7654&#45;&gt;rcos</title>
<path fill="none" stroke="black" d="M447.65,-180.25C406.97,-147.49 316.98,-75.01 272.85,-39.46"/>
<polygon fill="black" stroke="black" points="274.9,-36.62 264.91,-33.07 270.5,-42.07 274.9,-36.62"/>
<text text-anchor="middle" x="259.91" y="-36.87" font-family="Times,serif" font-size="14.00">1</text>
</g>
<!-- rsin -->
<g id="node4" class="node">
<title>rsin</title>
<g id="a_node4"><a xlink:href="rsin.svg" xlink:title="rsin">
<ellipse fill="lightblue" stroke="black" cx="324.44" cy="-18" rx="28.7" ry="18"/>
<text text-anchor="middle" x="324.44" y="-14.3" font-family="Times,serif" font-size="14.00">rsin</text>
</a>
</g>
</g>
<!-- nz0.func_801C7654&#45;&gt;rsin -->
<g id="edge3" class="edge">
<title>nz0.func_801C7654&#45;&gt;rsin</title>
<path fill="none" stroke="black" d="M454.63,-179.93C428.76,-147.95 372.95,-78.96 343.51,-42.57"/>
<polygon fill="black" stroke="black" points="345.98,-40.05 336.97,-34.48 340.53,-44.46 345.98,-40.05"/>
<text text-anchor="middle" x="331.97" y="-38.28" font-family="Times,serif" font-size="14.00">1</text>
</g>
<!-- nz0.AnimateEntity -->
<g id="node5" class="node">
<title>nz0.AnimateEntity</title>
<g id="a_node5"><a xlink:href="nz0.AnimateEntity.svg" xlink:title="nz0.AnimateEntity">
<ellipse fill="green" stroke="black" cx="468.44" cy="-18" rx="97.48" ry="18"/>
<text text-anchor="middle" x="468.44" y="-14.3" font-family="Times,serif" font-size="14.00">nz0.AnimateEntity</text>
</a>
</g>
</g>
<!-- nz0.func_801C7654&#45;&gt;nz0.AnimateEntity -->
<g id="edge4" class="edge">
<title>nz0.func_801C7654&#45;&gt;nz0.AnimateEntity</title>
<path fill="none" stroke="black" d="M468.44,-179.93C468.44,-148.97 468.44,-83.3 468.44,-46.13"/>
<polygon fill="black" stroke="black" points="471.94,-46.02 468.44,-36.02 464.94,-46.02 471.94,-46.02"/>
<text text-anchor="middle" x="463.44" y="-39.82" font-family="Times,serif" font-size="14.00">1</text>
</g>
<!-- nz0.MoveEntity -->
<g id="node6" class="node">
<title>nz0.MoveEntity</title>
<g id="a_node6"><a xlink:href="nz0.MoveEntity.svg" xlink:title="nz0.MoveEntity">
<ellipse fill="green" stroke="black" cx="668.44" cy="-18" rx="84.49" ry="18"/>
<text text-anchor="middle" x="668.44" y="-14.3" font-family="Times,serif" font-size="14.00">nz0.MoveEntity</text>
</a>
</g>
</g>
<!-- nz0.func_801C7654&#45;&gt;nz0.MoveEntity -->
<g id="edge5" class="edge">
<title>nz0.func_801C7654&#45;&gt;nz0.MoveEntity</title>
<path fill="none" stroke="black" d="M487.26,-180.25C523.08,-148.37 601.17,-78.87 642.14,-42.4"/>
<polygon fill="black" stroke="black" points="644.68,-44.83 649.82,-35.57 640.02,-39.61 644.68,-44.83"/>
<text text-anchor="middle" x="644.82" y="-39.37" font-family="Times,serif" font-size="14.00">2</text>
</g>
<!-- dra.CheckCollision -->
<g id="node7" class="node">
<title>dra.CheckCollision</title>
<g id="a_node7"><a xlink:href="dra.CheckCollision.svg" xlink:title="dra.CheckCollision">
<ellipse fill="green" stroke="black" cx="868.44" cy="-18" rx="97.48" ry="18"/>
<text text-anchor="middle" x="868.44" y="-14.3" font-family="Times,serif" font-size="14.00">dra.CheckCollision</text>
</a>
</g>
</g>
<!-- nz0.func_801C7654&#45;&gt;dra.CheckCollision -->
<g id="edge6" class="edge">
<title>nz0.func_801C7654&#45;&gt;dra.CheckCollision</title>
<path fill="none" stroke="black" d="M504.29,-181.05C577.35,-148.53 743.33,-74.67 823.48,-39.01"/>
<polygon fill="black" stroke="black" points="825.1,-42.12 832.82,-34.85 822.26,-35.72 825.1,-42.12"/>
<text text-anchor="middle" x="827.82" y="-38.65" font-family="Times,serif" font-size="14.00">1</text>
</g>
<!-- nz0.DestroyEntity -->
<g id="node8" class="node">
<title>nz0.DestroyEntity</title>
<g id="a_node8"><a xlink:href="nz0.DestroyEntity.svg" xlink:title="nz0.DestroyEntity">
<ellipse fill="green" stroke="black" cx="1079.44" cy="-18" rx="95.58" ry="18"/>
<text text-anchor="middle" x="1079.44" y="-14.3" font-family="Times,serif" font-size="14.00">nz0.DestroyEntity</text>
</a>
</g>
</g>
<!-- nz0.func_801C7654&#45;&gt;nz0.DestroyEntity -->
<g id="edge7" class="edge">
<title>nz0.func_801C7654&#45;&gt;nz0.DestroyEntity</title>
<path fill="none" stroke="black" d="M518.96,-182.28C631.03,-149.63 900.01,-71.27 1019.96,-36.33"/>
<polygon fill="black" stroke="black" points="1021.09,-39.64 1029.72,-33.49 1019.14,-32.92 1021.09,-39.64"/>
<text text-anchor="middle" x="1024.72" y="-37.29" font-family="Times,serif" font-size="14.00">1</text>
</g>
</g>
</svg>
