<?xml version="1.0" encoding="UTF-8" standalone="no"?>
<!DOCTYPE svg PUBLIC "-//W3C//DTD SVG 1.1//EN"
 "http://www.w3.org/Graphics/SVG/1.1/DTD/svg11.dtd">
<!-- Generated by graphviz version 2.43.0 (0)
 -->
<!-- Title: nz0.func_801CA0D0 Pages: 1 -->
<svg width="706pt" height="131pt"
 viewBox="0.00 0.00 706.48 131.00" xmlns="http://www.w3.org/2000/svg" xmlns:xlink="http://www.w3.org/1999/xlink">
<g id="graph0" class="graph" transform="scale(1 1) rotate(0) translate(4 127)">
<title>nz0.func_801CA0D0</title>
<polygon fill="white" stroke="transparent" points="-4,4 -4,-127 702.48,-127 702.48,4 -4,4"/>
<!-- nz0.func_801CA0D0 -->
<g id="node1" class="node">
<title>nz0.func_801CA0D0</title>
<ellipse fill="green" stroke="black" cx="329.99" cy="-18" rx="104.78" ry="18"/>
<text text-anchor="middle" x="329.99" y="-14.3" font-family="Times,serif" font-size="14.00">nz0.func_801CA0D0</text>
</g>
<!-- nz0.func_801C3F9C -->
<g id="node2" class="node">
<title>nz0.func_801C3F9C</title>
<g id="a_node2"><a xlink:href="nz0.func_801C3F9C.svg" xlink:title="nz0.func_801C3F9C">
<ellipse fill="green" stroke="black" cx="103.99" cy="-105" rx="103.98" ry="18"/>
<text text-anchor="middle" x="103.99" y="-101.3" font-family="Times,serif" font-size="14.00">nz0.func_801C3F9C</text>
</a>
</g>
</g>
<!-- nz0.func_801C3F9C&#45;&gt;nz0.func_801CA0D0 -->
<g id="edge1" class="edge">
<title>nz0.func_801C3F9C&#45;&gt;nz0.func_801CA0D0</title>
<path fill="none" stroke="black" d="M145.44,-88.41C183.08,-74.26 238.69,-53.34 279.03,-38.17"/>
<polygon fill="black" stroke="black" points="280.29,-41.43 288.42,-34.64 277.83,-34.88 280.29,-41.43"/>
<text text-anchor="middle" x="235.99" y="-57.8" font-family="Times,serif" font-size="14.00">1</text>
</g>
<!-- nz0.func_801C53AC -->
<g id="node3" class="node">
<title>nz0.func_801C53AC</title>
<g id="a_node3"><a xlink:href="nz0.func_801C53AC.svg" xlink:title="nz0.func_801C53AC">
<ellipse fill="green" stroke="black" cx="329.99" cy="-105" rx="103.98" ry="18"/>
<text text-anchor="middle" x="329.99" y="-101.3" font-family="Times,serif" font-size="14.00">nz0.func_801C53AC</text>
</a>
</g>
</g>
<!-- nz0.func_801C53AC&#45;&gt;nz0.func_801CA0D0 -->
<g id="edge2" class="edge">
<title>nz0.func_801C53AC&#45;&gt;nz0.func_801CA0D0</title>
<path fill="none" stroke="black" d="M329.99,-86.8C329.99,-75.16 329.99,-59.55 329.99,-46.24"/>
<polygon fill="black" stroke="black" points="333.49,-46.18 329.99,-36.18 326.49,-46.18 333.49,-46.18"/>
<text text-anchor="middle" x="334.99" y="-57.8" font-family="Times,serif" font-size="14.00">1</text>
</g>
<!-- nz0.EntityBloodSplatter -->
<g id="node4" class="node">
<title>nz0.EntityBloodSplatter</title>
<g id="a_node4"><a xlink:href="nz0.EntityBloodSplatter.svg" xlink:title="nz0.EntityBloodSplatter">
<ellipse fill="green" stroke="black" cx="574.99" cy="-105" rx="123.48" ry="18"/>
<text text-anchor="middle" x="574.99" y="-101.3" font-family="Times,serif" font-size="14.00">nz0.EntityBloodSplatter</text>
</a>
</g>
</g>
<!-- nz0.EntityBloodSplatter&#45;&gt;nz0.func_801CA0D0 -->
<g id="edge3" class="edge">
<title>nz0.EntityBloodSplatter&#45;&gt;nz0.func_801CA0D0</title>
<path fill="none" stroke="black" d="M529.48,-88.21C488.31,-73.93 427.63,-52.88 384.02,-37.74"/>
<polygon fill="black" stroke="black" points="385.02,-34.39 374.43,-34.42 382.73,-41 385.02,-34.39"/>
<text text-anchor="middle" x="472.99" y="-57.8" font-family="Times,serif" font-size="14.00">2</text>
</g>
</g>
</svg>
