<?xml version="1.0" encoding="UTF-8" standalone="no"?>
<!DOCTYPE svg PUBLIC "-//W3C//DTD SVG 1.1//EN"
 "http://www.w3.org/Graphics/SVG/1.1/DTD/svg11.dtd">
<!-- Generated by graphviz version 2.43.0 (0)
 -->
<!-- Title: nz0.func_801C6574 Pages: 1 -->
<svg width="1061pt" height="224pt"
 viewBox="0.00 0.00 1060.53 224.00" xmlns="http://www.w3.org/2000/svg" xmlns:xlink="http://www.w3.org/1999/xlink">
<g id="graph0" class="graph" transform="scale(1 1) rotate(0) translate(4 220)">
<title>nz0.func_801C6574</title>
<polygon fill="white" stroke="transparent" points="-4,4 -4,-220 1056.53,-220 1056.53,4 -4,4"/>
<!-- nz0.func_801C6574 -->
<g id="node1" class="node">
<title>nz0.func_801C6574</title>
<ellipse fill="green" stroke="black" cx="510.54" cy="-198" rx="102.88" ry="18"/>
<text text-anchor="middle" x="510.54" y="-194.3" font-family="Times,serif" font-size="14.00">nz0.func_801C6574</text>
</g>
<!-- nz0.DestroyEntity -->
<g id="node2" class="node">
<title>nz0.DestroyEntity</title>
<g id="a_node2"><a xlink:href="nz0.DestroyEntity.svg" xlink:title="nz0.DestroyEntity">
<ellipse fill="green" stroke="black" cx="95.54" cy="-18" rx="95.58" ry="18"/>
<text text-anchor="middle" x="95.54" y="-14.3" font-family="Times,serif" font-size="14.00">nz0.DestroyEntity</text>
</a>
</g>
</g>
<!-- nz0.func_801C6574&#45;&gt;nz0.DestroyEntity -->
<g id="edge1" class="edge">
<title>nz0.func_801C6574&#45;&gt;nz0.DestroyEntity</title>
<path fill="none" stroke="black" d="M473.35,-181.05C397.37,-148.46 224.56,-74.34 141.62,-38.76"/>
<polygon fill="black" stroke="black" points="142.78,-35.45 132.21,-34.73 140.02,-41.88 142.78,-35.45"/>
<text text-anchor="middle" x="127.21" y="-38.53" font-family="Times,serif" font-size="14.00">1</text>
</g>
<!-- nz0.InitializeEntity -->
<g id="node3" class="node">
<title>nz0.InitializeEntity</title>
<g id="a_node3"><a xlink:href="nz0.InitializeEntity.svg" xlink:title="nz0.InitializeEntity">
<ellipse fill="green" stroke="black" cx="308.54" cy="-18" rx="99.38" ry="18"/>
<text text-anchor="middle" x="308.54" y="-14.3" font-family="Times,serif" font-size="14.00">nz0.InitializeEntity</text>
</a>
</g>
</g>
<!-- nz0.func_801C6574&#45;&gt;nz0.InitializeEntity -->
<g id="edge2" class="edge">
<title>nz0.func_801C6574&#45;&gt;nz0.InitializeEntity</title>
<path fill="none" stroke="black" d="M491.54,-180.25C455.37,-148.38 376.56,-78.94 335.16,-42.45"/>
<polygon fill="black" stroke="black" points="337.46,-39.82 327.64,-35.83 332.83,-45.07 337.46,-39.82"/>
<text text-anchor="middle" x="322.64" y="-39.63" font-family="Times,serif" font-size="14.00">1</text>
</g>
<!-- nz0.MoveEntity -->
<g id="node4" class="node">
<title>nz0.MoveEntity</title>
<g id="a_node4"><a xlink:href="nz0.MoveEntity.svg" xlink:title="nz0.MoveEntity">
<ellipse fill="green" stroke="black" cx="510.54" cy="-18" rx="84.49" ry="18"/>
<text text-anchor="middle" x="510.54" y="-14.3" font-family="Times,serif" font-size="14.00">nz0.MoveEntity</text>
</a>
</g>
</g>
<!-- nz0.func_801C6574&#45;&gt;nz0.MoveEntity -->
<g id="edge3" class="edge">
<title>nz0.func_801C6574&#45;&gt;nz0.MoveEntity</title>
<path fill="none" stroke="black" d="M510.54,-179.93C510.54,-148.97 510.54,-83.3 510.54,-46.13"/>
<polygon fill="black" stroke="black" points="514.04,-46.02 510.54,-36.02 507.04,-46.02 514.04,-46.02"/>
<text text-anchor="middle" x="505.54" y="-39.82" font-family="Times,serif" font-size="14.00">1</text>
</g>
<!-- nz0.func_801BCBEC -->
<g id="node5" class="node">
<title>nz0.func_801BCBEC</title>
<g id="a_node5"><a xlink:href="nz0.func_801BCBEC.svg" xlink:title="nz0.func_801BCBEC">
<ellipse fill="green" stroke="black" cx="719.54" cy="-18" rx="106.68" ry="18"/>
<text text-anchor="middle" x="719.54" y="-14.3" font-family="Times,serif" font-size="14.00">nz0.func_801BCBEC</text>
</a>
</g>
</g>
<!-- nz0.func_801C6574&#45;&gt;nz0.func_801BCBEC -->
<g id="edge4" class="edge">
<title>nz0.func_801C6574&#45;&gt;nz0.func_801BCBEC</title>
<path fill="none" stroke="black" d="M530.2,-180.25C567.63,-148.38 649.17,-78.94 692,-42.45"/>
<polygon fill="black" stroke="black" points="694.44,-44.98 699.78,-35.83 689.9,-39.65 694.44,-44.98"/>
<text text-anchor="middle" x="694.78" y="-39.63" font-family="Times,serif" font-size="14.00">1</text>
</g>
<!-- nz0.func_801BD568 -->
<g id="node6" class="node">
<title>nz0.func_801BD568</title>
<g id="a_node6"><a xlink:href="nz0.func_801BD568.svg" xlink:title="nz0.func_801BD568">
<ellipse fill="green" stroke="black" cx="948.54" cy="-18" rx="103.98" ry="18"/>
<text text-anchor="middle" x="948.54" y="-14.3" font-family="Times,serif" font-size="14.00">nz0.func_801BD568</text>
</a>
</g>
</g>
<!-- nz0.func_801C6574&#45;&gt;nz0.func_801BD568 -->
<g id="edge5" class="edge">
<title>nz0.func_801C6574&#45;&gt;nz0.func_801BD568</title>
<path fill="none" stroke="black" d="M549.41,-181.2C629.53,-148.65 812.83,-74.15 900.33,-38.59"/>
<polygon fill="black" stroke="black" points="901.81,-41.77 909.76,-34.76 899.18,-35.28 901.81,-41.77"/>
<text text-anchor="middle" x="904.76" y="-38.56" font-family="Times,serif" font-size="14.00">1</text>
</g>
</g>
</svg>
