<?xml version="1.0" encoding="UTF-8" standalone="no"?>
<!DOCTYPE svg PUBLIC "-//W3C//DTD SVG 1.1//EN"
 "http://www.w3.org/Graphics/SVG/1.1/DTD/svg11.dtd">
<!-- Generated by graphviz version 2.43.0 (0)
 -->
<!-- Title: nz0.EntityCloseBossRoom Pages: 1 -->
<svg width="2042pt" height="131pt"
 viewBox="0.00 0.00 2041.68 131.00" xmlns="http://www.w3.org/2000/svg" xmlns:xlink="http://www.w3.org/1999/xlink">
<g id="graph0" class="graph" transform="scale(1 1) rotate(0) translate(4 127)">
<title>nz0.EntityCloseBossRoom</title>
<polygon fill="white" stroke="transparent" points="-4,4 -4,-127 2037.68,-127 2037.68,4 -4,4"/>
<!-- nz0.EntityCloseBossRoom -->
<g id="node1" class="node">
<title>nz0.EntityCloseBossRoom</title>
<ellipse fill="red" stroke="black" cx="1001.05" cy="-105" rx="132.68" ry="18"/>
<text text-anchor="middle" x="1001.05" y="-101.3" font-family="Times,serif" font-size="14.00">nz0.EntityCloseBossRoom</text>
</g>
<!-- FntPrint -->
<g id="node2" class="node">
<title>FntPrint</title>
<g id="a_node2"><a xlink:href="FntPrint.svg" xlink:title="FntPrint">
<ellipse fill="lightblue" stroke="black" cx="50.05" cy="-18" rx="50.09" ry="18"/>
<text text-anchor="middle" x="50.05" y="-14.3" font-family="Times,serif" font-size="14.00">FntPrint</text>
</a>
</g>
</g>
<!-- nz0.EntityCloseBossRoom&#45;&gt;FntPrint -->
<g id="edge1" class="edge">
<title>nz0.EntityCloseBossRoom&#45;&gt;FntPrint</title>
<path fill="none" stroke="black" d="M869.61,-102.36C694.69,-98.28 376.33,-84.19 109.05,-36 104.68,-35.21 100.17,-34.23 95.69,-33.14"/>
<polygon fill="black" stroke="black" points="96.52,-29.74 85.96,-30.61 94.76,-36.52 96.52,-29.74"/>
<text text-anchor="middle" x="333.05" y="-57.8" font-family="Times,serif" font-size="14.00">3</text>
</g>
<!-- dra.TimeAttackController -->
<g id="node3" class="node">
<title>dra.TimeAttackController</title>
<g id="a_node3"><a xlink:href="dra.TimeAttackController.svg" xlink:title="dra.TimeAttackController">
<ellipse fill="green" stroke="black" cx="247.05" cy="-18" rx="129.18" ry="18"/>
<text text-anchor="middle" x="247.05" y="-14.3" font-family="Times,serif" font-size="14.00">dra.TimeAttackController</text>
</a>
</g>
</g>
<!-- nz0.EntityCloseBossRoom&#45;&gt;dra.TimeAttackController -->
<g id="edge2" class="edge">
<title>nz0.EntityCloseBossRoom&#45;&gt;dra.TimeAttackController</title>
<path fill="none" stroke="black" d="M900.17,-93.26C778.13,-80.17 566.45,-57.19 385.05,-36 373.62,-34.67 361.66,-33.24 349.77,-31.8"/>
<polygon fill="black" stroke="black" points="350.16,-28.32 339.82,-30.59 349.32,-35.27 350.16,-28.32"/>
<text text-anchor="middle" x="677.05" y="-57.8" font-family="Times,serif" font-size="14.00">3</text>
</g>
<!-- nz0.DestroyEntity -->
<g id="node4" class="node">
<title>nz0.DestroyEntity</title>
<g id="a_node4"><a xlink:href="nz0.DestroyEntity.svg" xlink:title="nz0.DestroyEntity">
<ellipse fill="green" stroke="black" cx="490.05" cy="-18" rx="95.58" ry="18"/>
<text text-anchor="middle" x="490.05" y="-14.3" font-family="Times,serif" font-size="14.00">nz0.DestroyEntity</text>
</a>
</g>
</g>
<!-- nz0.EntityCloseBossRoom&#45;&gt;nz0.DestroyEntity -->
<g id="edge3" class="edge">
<title>nz0.EntityCloseBossRoom&#45;&gt;nz0.DestroyEntity</title>
<path fill="none" stroke="black" d="M920.64,-90.63C824.54,-74.64 664.78,-48.06 569.23,-32.17"/>
<polygon fill="black" stroke="black" points="569.77,-28.71 559.33,-30.52 568.62,-35.62 569.77,-28.71"/>
<text text-anchor="middle" x="782.05" y="-57.8" font-family="Times,serif" font-size="14.00">1</text>
</g>
<!-- nz0.InitializeEntity -->
<g id="node5" class="node">
<title>nz0.InitializeEntity</title>
<g id="a_node5"><a xlink:href="nz0.InitializeEntity.svg" xlink:title="nz0.InitializeEntity">
<ellipse fill="green" stroke="black" cx="703.05" cy="-18" rx="99.38" ry="18"/>
<text text-anchor="middle" x="703.05" y="-14.3" font-family="Times,serif" font-size="14.00">nz0.InitializeEntity</text>
</a>
</g>
</g>
<!-- nz0.EntityCloseBossRoom&#45;&gt;nz0.InitializeEntity -->
<g id="edge4" class="edge">
<title>nz0.EntityCloseBossRoom&#45;&gt;nz0.InitializeEntity</title>
<path fill="none" stroke="black" d="M946.73,-88.51C895.05,-73.77 817.43,-51.63 763.73,-36.31"/>
<polygon fill="black" stroke="black" points="764.58,-32.91 754,-33.53 762.66,-39.64 764.58,-32.91"/>
<text text-anchor="middle" x="875.05" y="-57.8" font-family="Times,serif" font-size="14.00">1</text>
</g>
<!-- nz0.CreateEntityFromCurrentEntity -->
<g id="node6" class="node">
<title>nz0.CreateEntityFromCurrentEntity</title>
<g id="a_node6"><a xlink:href="nz0.CreateEntityFromCurrentEntity.svg" xlink:title="nz0.CreateEntityFromCurrentEntity">
<ellipse fill="green" stroke="black" cx="1001.05" cy="-18" rx="180.87" ry="18"/>
<text text-anchor="middle" x="1001.05" y="-14.3" font-family="Times,serif" font-size="14.00">nz0.CreateEntityFromCurrentEntity</text>
</a>
</g>
</g>
<!-- nz0.EntityCloseBossRoom&#45;&gt;nz0.CreateEntityFromCurrentEntity -->
<g id="edge5" class="edge">
<title>nz0.EntityCloseBossRoom&#45;&gt;nz0.CreateEntityFromCurrentEntity</title>
<path fill="none" stroke="black" d="M1001.05,-86.8C1001.05,-75.16 1001.05,-59.55 1001.05,-46.24"/>
<polygon fill="black" stroke="black" points="1004.55,-46.18 1001.05,-36.18 997.55,-46.18 1004.55,-46.18"/>
<text text-anchor="middle" x="1006.05" y="-57.8" font-family="Times,serif" font-size="14.00">3</text>
</g>
<!-- dra.PlaySfx -->
<g id="node7" class="node">
<title>dra.PlaySfx</title>
<g id="a_node7"><a xlink:href="dra.PlaySfx.svg" xlink:title="dra.PlaySfx">
<ellipse fill="green" stroke="black" cx="1264.05" cy="-18" rx="64.19" ry="18"/>
<text text-anchor="middle" x="1264.05" y="-14.3" font-family="Times,serif" font-size="14.00">dra.PlaySfx</text>
</a>
</g>
</g>
<!-- nz0.EntityCloseBossRoom&#45;&gt;dra.PlaySfx -->
<g id="edge6" class="edge">
<title>nz0.EntityCloseBossRoom&#45;&gt;dra.PlaySfx</title>
<path fill="none" stroke="black" d="M1049.9,-88.21C1096.63,-73.11 1166.8,-50.43 1213.94,-35.19"/>
<polygon fill="black" stroke="black" points="1215.2,-38.46 1223.64,-32.06 1213.05,-31.8 1215.2,-38.46"/>
<text text-anchor="middle" x="1154.05" y="-57.8" font-family="Times,serif" font-size="14.00">4</text>
</g>
<!-- dra.func_80131F68 -->
<g id="node8" class="node">
<title>dra.func_80131F68</title>
<g id="a_node8"><a xlink:href="dra.func_80131F68.svg" xlink:title="dra.func_80131F68">
<ellipse fill="green" stroke="black" cx="1447.05" cy="-18" rx="100.98" ry="18"/>
<text text-anchor="middle" x="1447.05" y="-14.3" font-family="Times,serif" font-size="14.00">dra.func_80131F68</text>
</a>
</g>
</g>
<!-- nz0.EntityCloseBossRoom&#45;&gt;dra.func_80131F68 -->
<g id="edge7" class="edge">
<title>nz0.EntityCloseBossRoom&#45;&gt;dra.func_80131F68</title>
<path fill="none" stroke="black" d="M1074.69,-89.96C1156.6,-74.35 1288.25,-49.26 1371.08,-33.48"/>
<polygon fill="black" stroke="black" points="1371.77,-36.91 1380.93,-31.6 1370.45,-30.03 1371.77,-36.91"/>
<text text-anchor="middle" x="1256.05" y="-57.8" font-family="Times,serif" font-size="14.00">3</text>
</g>
<!-- nz0.AllocEntity -->
<g id="node9" class="node">
<title>nz0.AllocEntity</title>
<g id="a_node9"><a xlink:href="nz0.AllocEntity.svg" xlink:title="nz0.AllocEntity">
<ellipse fill="green" stroke="black" cx="1647.05" cy="-18" rx="81.49" ry="18"/>
<text text-anchor="middle" x="1647.05" y="-14.3" font-family="Times,serif" font-size="14.00">nz0.AllocEntity</text>
</a>
</g>
</g>
<!-- nz0.EntityCloseBossRoom&#45;&gt;nz0.AllocEntity -->
<g id="edge8" class="edge">
<title>nz0.EntityCloseBossRoom&#45;&gt;nz0.AllocEntity</title>
<path fill="none" stroke="black" d="M1103.29,-93.51C1215.03,-81.58 1399.21,-60.53 1557.05,-36 1564.07,-34.91 1571.38,-33.68 1578.67,-32.4"/>
<polygon fill="black" stroke="black" points="1579.34,-35.83 1588.56,-30.62 1578.1,-28.94 1579.34,-35.83"/>
<text text-anchor="middle" x="1426.05" y="-57.8" font-family="Times,serif" font-size="14.00">1</text>
</g>
<!-- nz0.CreateEntityFromEntity -->
<g id="node10" class="node">
<title>nz0.CreateEntityFromEntity</title>
<g id="a_node10"><a xlink:href="nz0.CreateEntityFromEntity.svg" xlink:title="nz0.CreateEntityFromEntity">
<ellipse fill="green" stroke="black" cx="1890.05" cy="-18" rx="143.77" ry="18"/>
<text text-anchor="middle" x="1890.05" y="-14.3" font-family="Times,serif" font-size="14.00">nz0.CreateEntityFromEntity</text>
</a>
</g>
</g>
<!-- nz0.EntityCloseBossRoom&#45;&gt;nz0.CreateEntityFromEntity -->
<g id="edge9" class="edge">
<title>nz0.EntityCloseBossRoom&#45;&gt;nz0.CreateEntityFromEntity</title>
<path fill="none" stroke="black" d="M1114.89,-95.71C1202.48,-89.11 1326.49,-79.31 1435.05,-69 1569.46,-56.24 1602.84,-50.79 1737.05,-36 1749.75,-34.6 1763.04,-33.13 1776.26,-31.67"/>
<polygon fill="black" stroke="black" points="1776.8,-35.13 1786.35,-30.55 1776.02,-28.17 1776.8,-35.13"/>
<text text-anchor="middle" x="1582.05" y="-57.8" font-family="Times,serif" font-size="14.00">1</text>
</g>
</g>
</svg>
