<?xml version="1.0" encoding="UTF-8" standalone="no"?>
<!DOCTYPE svg PUBLIC "-//W3C//DTD SVG 1.1//EN"
 "http://www.w3.org/Graphics/SVG/1.1/DTD/svg11.dtd">
<!-- Generated by graphviz version 2.43.0 (0)
 -->
<!-- Title: nz0.EntityMagicallySealedDoor Pages: 1 -->
<svg width="2626pt" height="224pt"
 viewBox="0.00 0.00 2626.04 224.00" xmlns="http://www.w3.org/2000/svg" xmlns:xlink="http://www.w3.org/1999/xlink">
<g id="graph0" class="graph" transform="scale(1 1) rotate(0) translate(4 220)">
<title>nz0.EntityMagicallySealedDoor</title>
<polygon fill="white" stroke="transparent" points="-4,4 -4,-220 2622.04,-220 2622.04,4 -4,4"/>
<!-- nz0.EntityMagicallySealedDoor -->
<g id="node1" class="node">
<title>nz0.EntityMagicallySealedDoor</title>
<ellipse fill="red" stroke="black" cx="1412.44" cy="-198" rx="157.07" ry="18"/>
<text text-anchor="middle" x="1412.44" y="-194.3" font-family="Times,serif" font-size="14.00">nz0.EntityMagicallySealedDoor</text>
</g>
<!-- nz0.InitializeEntity -->
<g id="node2" class="node">
<title>nz0.InitializeEntity</title>
<g id="a_node2"><a xlink:href="nz0.InitializeEntity.svg" xlink:title="nz0.InitializeEntity">
<ellipse fill="green" stroke="black" cx="99.44" cy="-18" rx="99.38" ry="18"/>
<text text-anchor="middle" x="99.44" y="-14.3" font-family="Times,serif" font-size="14.00">nz0.InitializeEntity</text>
</a>
</g>
</g>
<!-- nz0.EntityMagicallySealedDoor&#45;&gt;nz0.InitializeEntity -->
<g id="edge1" class="edge">
<title>nz0.EntityMagicallySealedDoor&#45;&gt;nz0.InitializeEntity</title>
<path fill="none" stroke="black" d="M1310.86,-184.18C1103.47,-157.82 616.47,-95.09 208.44,-36 199.76,-34.74 190.71,-33.39 181.68,-32.02"/>
<polygon fill="black" stroke="black" points="181.94,-28.52 171.52,-30.47 180.88,-35.44 181.94,-28.52"/>
<text text-anchor="middle" x="166.52" y="-34.27" font-family="Times,serif" font-size="14.00">1</text>
</g>
<!-- dra.AllocPrimitives -->
<g id="node3" class="node">
<title>dra.AllocPrimitives</title>
<g id="a_node3"><a xlink:href="dra.AllocPrimitives.svg" xlink:title="dra.AllocPrimitives">
<ellipse fill="green" stroke="black" cx="316.44" cy="-18" rx="99.38" ry="18"/>
<text text-anchor="middle" x="316.44" y="-14.3" font-family="Times,serif" font-size="14.00">dra.AllocPrimitives</text>
</a>
</g>
</g>
<!-- nz0.EntityMagicallySealedDoor&#45;&gt;dra.AllocPrimitives -->
<g id="edge2" class="edge">
<title>nz0.EntityMagicallySealedDoor&#45;&gt;dra.AllocPrimitives</title>
<path fill="none" stroke="black" d="M1325.98,-182.96C1119.32,-149.39 598.98,-64.89 397.7,-32.2"/>
<polygon fill="black" stroke="black" points="398.21,-28.73 387.78,-30.59 397.09,-35.64 398.21,-28.73"/>
<text text-anchor="middle" x="382.78" y="-34.39" font-family="Times,serif" font-size="14.00">1</text>
</g>
<!-- nz0.DestroyEntity -->
<g id="node4" class="node">
<title>nz0.DestroyEntity</title>
<g id="a_node4"><a xlink:href="nz0.DestroyEntity.svg" xlink:title="nz0.DestroyEntity">
<ellipse fill="green" stroke="black" cx="529.44" cy="-18" rx="95.58" ry="18"/>
<text text-anchor="middle" x="529.44" y="-14.3" font-family="Times,serif" font-size="14.00">nz0.DestroyEntity</text>
</a>
</g>
</g>
<!-- nz0.EntityMagicallySealedDoor&#45;&gt;nz0.DestroyEntity -->
<g id="edge3" class="edge">
<title>nz0.EntityMagicallySealedDoor&#45;&gt;nz0.DestroyEntity</title>
<path fill="none" stroke="black" d="M1338.3,-182.05C1171.38,-148.41 767.79,-67.05 602.19,-33.67"/>
<polygon fill="black" stroke="black" points="602.6,-30.18 592.11,-31.63 601.22,-37.04 602.6,-30.18"/>
<text text-anchor="middle" x="587.11" y="-35.43" font-family="Times,serif" font-size="14.00">1</text>
</g>
<!-- nz0.func_801C7CF0 -->
<g id="node5" class="node">
<title>nz0.func_801C7CF0</title>
<g id="a_node5"><a xlink:href="nz0.func_801C7CF0.svg" xlink:title="nz0.func_801C7CF0">
<ellipse fill="green" stroke="black" cx="747.44" cy="-18" rx="103.98" ry="18"/>
<text text-anchor="middle" x="747.44" y="-14.3" font-family="Times,serif" font-size="14.00">nz0.func_801C7CF0</text>
</a>
</g>
</g>
<!-- nz0.EntityMagicallySealedDoor&#45;&gt;nz0.func_801C7CF0 -->
<g id="edge4" class="edge">
<title>nz0.EntityMagicallySealedDoor&#45;&gt;nz0.func_801C7CF0</title>
<path fill="none" stroke="black" d="M1353.72,-181.28C1229.36,-148 940.31,-70.63 811.44,-36.13"/>
<polygon fill="black" stroke="black" points="812.27,-32.73 801.7,-33.52 810.46,-39.49 812.27,-32.73"/>
<text text-anchor="middle" x="796.7" y="-37.32" font-family="Times,serif" font-size="14.00">3</text>
</g>
<!-- nz0.func_801BD9A0 -->
<g id="node6" class="node">
<title>nz0.func_801BD9A0</title>
<g id="a_node6"><a xlink:href="nz0.func_801BD9A0.svg" xlink:title="nz0.func_801BD9A0">
<ellipse fill="red" stroke="black" cx="974.44" cy="-18" rx="104.78" ry="18"/>
<text text-anchor="middle" x="974.44" y="-14.3" font-family="Times,serif" font-size="14.00">nz0.func_801BD9A0</text>
</a>
</g>
</g>
<!-- nz0.EntityMagicallySealedDoor&#45;&gt;nz0.func_801BD9A0 -->
<g id="edge5" class="edge">
<title>nz0.EntityMagicallySealedDoor&#45;&gt;nz0.func_801BD9A0</title>
<path fill="none" stroke="black" d="M1372.02,-180.57C1291.08,-147.68 1109.46,-73.87 1022.55,-38.55"/>
<polygon fill="black" stroke="black" points="1023.77,-35.27 1013.19,-34.75 1021.14,-41.75 1023.77,-35.27"/>
<text text-anchor="middle" x="1008.19" y="-38.55" font-family="Times,serif" font-size="14.00">1</text>
</g>
<!-- nz0.GetSideToPlayer -->
<g id="node7" class="node">
<title>nz0.GetSideToPlayer</title>
<g id="a_node7"><a xlink:href="nz0.GetSideToPlayer.svg" xlink:title="nz0.GetSideToPlayer">
<ellipse fill="green" stroke="black" cx="1205.44" cy="-18" rx="107.78" ry="18"/>
<text text-anchor="middle" x="1205.44" y="-14.3" font-family="Times,serif" font-size="14.00">nz0.GetSideToPlayer</text>
</a>
</g>
</g>
<!-- nz0.EntityMagicallySealedDoor&#45;&gt;nz0.GetSideToPlayer -->
<g id="edge6" class="edge">
<title>nz0.EntityMagicallySealedDoor&#45;&gt;nz0.GetSideToPlayer</title>
<path fill="none" stroke="black" d="M1392.59,-179.93C1355.33,-147.89 1274.85,-78.68 1232.6,-42.35"/>
<polygon fill="black" stroke="black" points="1234.79,-39.62 1224.93,-35.76 1230.23,-44.93 1234.79,-39.62"/>
<text text-anchor="middle" x="1219.93" y="-39.56" font-family="Times,serif" font-size="14.00">2</text>
</g>
<!-- nz0.AllocEntity -->
<g id="node8" class="node">
<title>nz0.AllocEntity</title>
<g id="a_node8"><a xlink:href="nz0.AllocEntity.svg" xlink:title="nz0.AllocEntity">
<ellipse fill="green" stroke="black" cx="1412.44" cy="-18" rx="81.49" ry="18"/>
<text text-anchor="middle" x="1412.44" y="-14.3" font-family="Times,serif" font-size="14.00">nz0.AllocEntity</text>
</a>
</g>
</g>
<!-- nz0.EntityMagicallySealedDoor&#45;&gt;nz0.AllocEntity -->
<g id="edge7" class="edge">
<title>nz0.EntityMagicallySealedDoor&#45;&gt;nz0.AllocEntity</title>
<path fill="none" stroke="black" d="M1412.44,-179.93C1412.44,-148.97 1412.44,-83.3 1412.44,-46.13"/>
<polygon fill="black" stroke="black" points="1415.94,-46.02 1412.44,-36.02 1408.94,-46.02 1415.94,-46.02"/>
<text text-anchor="middle" x="1407.44" y="-39.82" font-family="Times,serif" font-size="14.00">1</text>
</g>
<!-- nz0.CreateEntityFromCurrentEntity -->
<g id="node9" class="node">
<title>nz0.CreateEntityFromCurrentEntity</title>
<g id="a_node9"><a xlink:href="nz0.CreateEntityFromCurrentEntity.svg" xlink:title="nz0.CreateEntityFromCurrentEntity">
<ellipse fill="green" stroke="black" cx="1692.44" cy="-18" rx="180.87" ry="18"/>
<text text-anchor="middle" x="1692.44" y="-14.3" font-family="Times,serif" font-size="14.00">nz0.CreateEntityFromCurrentEntity</text>
</a>
</g>
</g>
<!-- nz0.EntityMagicallySealedDoor&#45;&gt;nz0.CreateEntityFromCurrentEntity -->
<g id="edge8" class="edge">
<title>nz0.EntityMagicallySealedDoor&#45;&gt;nz0.CreateEntityFromCurrentEntity</title>
<path fill="none" stroke="black" d="M1438.78,-180.25C1489.44,-148.05 1600.44,-77.49 1657.32,-41.33"/>
<polygon fill="black" stroke="black" points="1659.4,-44.15 1665.97,-35.83 1655.65,-38.24 1659.4,-44.15"/>
<text text-anchor="middle" x="1660.97" y="-39.63" font-family="Times,serif" font-size="14.00">1</text>
</g>
<!-- dra.PlaySfx -->
<g id="node10" class="node">
<title>dra.PlaySfx</title>
<g id="a_node10"><a xlink:href="dra.PlaySfx.svg" xlink:title="dra.PlaySfx">
<ellipse fill="green" stroke="black" cx="1955.44" cy="-18" rx="64.19" ry="18"/>
<text text-anchor="middle" x="1955.44" y="-14.3" font-family="Times,serif" font-size="14.00">dra.PlaySfx</text>
</a>
</g>
</g>
<!-- nz0.EntityMagicallySealedDoor&#45;&gt;dra.PlaySfx -->
<g id="edge9" class="edge">
<title>nz0.EntityMagicallySealedDoor&#45;&gt;dra.PlaySfx</title>
<path fill="none" stroke="black" d="M1461.59,-180.89C1564.65,-147.11 1802.37,-69.18 1905.83,-35.26"/>
<polygon fill="black" stroke="black" points="1907,-38.56 1915.42,-32.12 1904.82,-31.91 1907,-38.56"/>
<text text-anchor="middle" x="1910.42" y="-35.92" font-family="Times,serif" font-size="14.00">2</text>
</g>
<!-- dra.func_8010E168 -->
<g id="node11" class="node">
<title>dra.func_8010E168</title>
<g id="a_node11"><a xlink:href="dra.func_8010E168.svg" xlink:title="dra.func_8010E168">
<ellipse fill="green" stroke="black" cx="2139.44" cy="-18" rx="101.28" ry="18"/>
<text text-anchor="middle" x="2139.44" y="-14.3" font-family="Times,serif" font-size="14.00">dra.func_8010E168</text>
</a>
</g>
</g>
<!-- nz0.EntityMagicallySealedDoor&#45;&gt;dra.func_8010E168 -->
<g id="edge10" class="edge">
<title>nz0.EntityMagicallySealedDoor&#45;&gt;dra.func_8010E168</title>
<path fill="none" stroke="black" d="M1475.69,-181.52C1612.15,-148.1 1933.14,-69.51 2072.7,-35.34"/>
<polygon fill="black" stroke="black" points="2073.55,-38.74 2082.43,-32.96 2071.88,-31.94 2073.55,-38.74"/>
<text text-anchor="middle" x="2077.43" y="-36.76" font-family="Times,serif" font-size="14.00">1</text>
</g>
<!-- dra.func_8010DFF0 -->
<g id="node12" class="node">
<title>dra.func_8010DFF0</title>
<g id="a_node12"><a xlink:href="dra.func_8010DFF0.svg" xlink:title="dra.func_8010DFF0">
<ellipse fill="green" stroke="black" cx="2361.44" cy="-18" rx="102.88" ry="18"/>
<text text-anchor="middle" x="2361.44" y="-14.3" font-family="Times,serif" font-size="14.00">dra.func_8010DFF0</text>
</a>
</g>
</g>
<!-- nz0.EntityMagicallySealedDoor&#45;&gt;dra.func_8010DFF0 -->
<g id="edge11" class="edge">
<title>nz0.EntityMagicallySealedDoor&#45;&gt;dra.func_8010DFF0</title>
<path fill="none" stroke="black" d="M1490.51,-182.36C1669.15,-148.85 2106.01,-66.91 2284.03,-33.52"/>
<polygon fill="black" stroke="black" points="2284.92,-36.91 2294.1,-31.63 2283.63,-30.03 2284.92,-36.91"/>
<text text-anchor="middle" x="2289.1" y="-35.43" font-family="Times,serif" font-size="14.00">1</text>
</g>
<!-- rcos -->
<g id="node13" class="node">
<title>rcos</title>
<g id="a_node13"><a xlink:href="rcos.svg" xlink:title="rcos">
<ellipse fill="lightblue" stroke="black" cx="2512.44" cy="-18" rx="30.59" ry="18"/>
<text text-anchor="middle" x="2512.44" y="-14.3" font-family="Times,serif" font-size="14.00">rcos</text>
</a>
</g>
</g>
<!-- nz0.EntityMagicallySealedDoor&#45;&gt;rcos -->
<g id="edge12" class="edge">
<title>nz0.EntityMagicallySealedDoor&#45;&gt;rcos</title>
<path fill="none" stroke="black" d="M1544.23,-188.08C1747.18,-171.88 2146.97,-130.17 2473.44,-36 2475.72,-35.34 2478.03,-34.59 2480.35,-33.76"/>
<polygon fill="black" stroke="black" points="2481.68,-37 2489.71,-30.09 2479.12,-30.48 2481.68,-37"/>
<text text-anchor="middle" x="2484.71" y="-33.89" font-family="Times,serif" font-size="14.00">2</text>
</g>
<!-- rsin -->
<g id="node14" class="node">
<title>rsin</title>
<g id="a_node14"><a xlink:href="rsin.svg" xlink:title="rsin">
<ellipse fill="lightblue" stroke="black" cx="2589.44" cy="-18" rx="28.7" ry="18"/>
<text text-anchor="middle" x="2589.44" y="-14.3" font-family="Times,serif" font-size="14.00">rsin</text>
</a>
</g>
</g>
<!-- nz0.EntityMagicallySealedDoor&#45;&gt;rsin -->
<g id="edge13" class="edge">
<title>nz0.EntityMagicallySealedDoor&#45;&gt;rsin</title>
<path fill="none" stroke="black" d="M1554.29,-190.18C1772.68,-176.76 2202.66,-138.66 2552.44,-36 2554.37,-35.43 2556.34,-34.78 2558.29,-34.07"/>
<polygon fill="black" stroke="black" points="2559.99,-37.16 2567.93,-30.15 2557.35,-30.68 2559.99,-37.16"/>
<text text-anchor="middle" x="2562.93" y="-33.95" font-family="Times,serif" font-size="14.00">2</text>
</g>
</g>
</svg>
