<?xml version="1.0" encoding="UTF-8" standalone="no"?>
<!DOCTYPE svg PUBLIC "-//W3C//DTD SVG 1.1//EN"
 "http://www.w3.org/Graphics/SVG/1.1/DTD/svg11.dtd">
<!-- Generated by graphviz version 2.43.0 (0)
 -->
<!-- Title: RenderPrimitives Pages: 1 -->
<svg width="392pt" height="218pt"
 viewBox="0.00 0.00 392.28 218.00" xmlns="http://www.w3.org/2000/svg" xmlns:xlink="http://www.w3.org/1999/xlink">
<g id="graph0" class="graph" transform="scale(1 1) rotate(0) translate(4 214)">
<title>RenderPrimitives</title>
<polygon fill="white" stroke="transparent" points="-4,4 -4,-214 388.28,-214 388.28,4 -4,4"/>
<!-- dra/RenderPrimitives -->
<g id="node1" class="node">
<title>dra/RenderPrimitives</title>
<ellipse fill="red" stroke="black" cx="195.54" cy="-105" rx="110.48" ry="18"/>
<text text-anchor="middle" x="195.54" y="-101.3" font-family="Times,serif" font-size="14.00">dra/RenderPrimitives</text>
</g>
<!-- dra/SetDrawMode -->
<g id="node2" class="node">
<title>dra/SetDrawMode</title>
<g id="a_node2"><a xlink:href="SetDrawMode.svg" xlink:title="dra/SetDrawMode">
<ellipse fill="lightblue" stroke="black" cx="95.54" cy="-18" rx="95.58" ry="18"/>
<text text-anchor="middle" x="95.54" y="-14.3" font-family="Times,serif" font-size="14.00">dra/SetDrawMode</text>
</a>
</g>
</g>
<!-- dra/RenderPrimitives&#45;&gt;dra/SetDrawMode -->
<g id="edge1" class="edge">
<title>dra/RenderPrimitives&#45;&gt;dra/SetDrawMode</title>
<path fill="none" stroke="black" d="M175.78,-87.21C160.72,-74.4 139.78,-56.61 123.08,-42.4"/>
<polygon fill="black" stroke="black" points="125.14,-39.57 115.26,-35.76 120.61,-44.9 125.14,-39.57"/>
<text text-anchor="middle" x="156.54" y="-57.8" font-family="Times,serif" font-size="14.00">2</text>
</g>
<!-- dra/SetDrawEnv -->
<g id="node3" class="node">
<title>dra/SetDrawEnv</title>
<g id="a_node3"><a xlink:href="SetDrawEnv.svg" xlink:title="dra/SetDrawEnv">
<ellipse fill="lightblue" stroke="black" cx="296.54" cy="-18" rx="87.99" ry="18"/>
<text text-anchor="middle" x="296.54" y="-14.3" font-family="Times,serif" font-size="14.00">dra/SetDrawEnv</text>
</a>
</g>
</g>
<!-- dra/RenderPrimitives&#45;&gt;dra/SetDrawEnv -->
<g id="edge2" class="edge">
<title>dra/RenderPrimitives&#45;&gt;dra/SetDrawEnv</title>
<path fill="none" stroke="black" d="M215.5,-87.21C230.71,-74.4 251.86,-56.61 268.73,-42.4"/>
<polygon fill="black" stroke="black" points="271.23,-44.88 276.63,-35.76 266.72,-39.52 271.23,-44.88"/>
<text text-anchor="middle" x="256.54" y="-57.8" font-family="Times,serif" font-size="14.00">1</text>
</g>
<!-- dra/entrypoint_sotn -->
<g id="node4" class="node">
<title>dra/entrypoint_sotn</title>
<g id="a_node4"><a xlink:href="entrypoint_sotn.svg" xlink:title="dra/entrypoint_sotn">
<ellipse fill="green" stroke="black" cx="195.54" cy="-192" rx="102.88" ry="18"/>
<text text-anchor="middle" x="195.54" y="-188.3" font-family="Times,serif" font-size="14.00">dra/entrypoint_sotn</text>
</a>
</g>
</g>
<!-- dra/entrypoint_sotn&#45;&gt;dra/RenderPrimitives -->
<g id="edge3" class="edge">
<title>dra/entrypoint_sotn&#45;&gt;dra/RenderPrimitives</title>
<path fill="none" stroke="black" d="M195.54,-173.8C195.54,-162.16 195.54,-146.55 195.54,-133.24"/>
<polygon fill="black" stroke="black" points="199.04,-133.18 195.54,-123.18 192.04,-133.18 199.04,-133.18"/>
<text text-anchor="middle" x="200.54" y="-144.8" font-family="Times,serif" font-size="14.00">1</text>
</g>
</g>
</svg>
