<?xml version="1.0" encoding="UTF-8" standalone="no"?>
<!DOCTYPE svg PUBLIC "-//W3C//DTD SVG 1.1//EN"
 "http://www.w3.org/Graphics/SVG/1.1/DTD/svg11.dtd">
<!-- Generated by graphviz version 2.43.0 (0)
 -->
<!-- Title: restartIntr Pages: 1 -->
<svg width="474pt" height="131pt"
 viewBox="0.00 0.00 474.23 131.00" xmlns="http://www.w3.org/2000/svg" xmlns:xlink="http://www.w3.org/1999/xlink">
<g id="graph0" class="graph" transform="scale(1 1) rotate(0) translate(4 127)">
<title>restartIntr</title>
<polygon fill="white" stroke="transparent" points="-4,4 -4,-127 470.23,-127 470.23,4 -4,4"/>
<!-- main/restartIntr -->
<g id="node1" class="node">
<title>main/restartIntr</title>
<ellipse fill="red" stroke="black" cx="221.09" cy="-105" rx="86.38" ry="18"/>
<text text-anchor="middle" x="221.09" y="-101.3" font-family="Times,serif" font-size="14.00">main/restartIntr</text>
</g>
<!-- main/HookEntryInt -->
<g id="node2" class="node">
<title>main/HookEntryInt</title>
<g id="a_node2"><a xlink:href="HookEntryInt.svg" xlink:title="main/HookEntryInt">
<ellipse fill="red" stroke="black" cx="100.09" cy="-18" rx="100.18" ry="18"/>
<text text-anchor="middle" x="100.09" y="-14.3" font-family="Times,serif" font-size="14.00">main/HookEntryInt</text>
</a>
</g>
</g>
<!-- main/restartIntr&#45;&gt;main/HookEntryInt -->
<g id="edge1" class="edge">
<title>main/restartIntr&#45;&gt;main/HookEntryInt</title>
<path fill="none" stroke="black" d="M197.76,-87.61C179.13,-74.53 152.83,-56.05 132.21,-41.56"/>
<polygon fill="black" stroke="black" points="133.96,-38.51 123.76,-35.63 129.93,-44.24 133.96,-38.51"/>
<text text-anchor="middle" x="173.09" y="-57.8" font-family="Times,serif" font-size="14.00">1</text>
</g>
<!-- main/ExitCriticalSection -->
<g id="node3" class="node">
<title>main/ExitCriticalSection</title>
<g id="a_node3"><a xlink:href="ExitCriticalSection.svg" xlink:title="main/ExitCriticalSection">
<ellipse fill="lightblue" stroke="black" cx="342.09" cy="-18" rx="124.28" ry="18"/>
<text text-anchor="middle" x="342.09" y="-14.3" font-family="Times,serif" font-size="14.00">main/ExitCriticalSection</text>
</a>
</g>
</g>
<!-- main/restartIntr&#45;&gt;main/ExitCriticalSection -->
<g id="edge2" class="edge">
<title>main/restartIntr&#45;&gt;main/ExitCriticalSection</title>
<path fill="none" stroke="black" d="M244.42,-87.61C262.93,-74.61 289.01,-56.29 309.57,-41.84"/>
<polygon fill="black" stroke="black" points="311.83,-44.53 318,-35.92 307.81,-38.8 311.83,-44.53"/>
<text text-anchor="middle" x="294.09" y="-57.8" font-family="Times,serif" font-size="14.00">1</text>
</g>
</g>
</svg>
