<?xml version="1.0" encoding="UTF-8" standalone="no"?>
<!DOCTYPE svg PUBLIC "-//W3C//DTD SVG 1.1//EN"
 "http://www.w3.org/Graphics/SVG/1.1/DTD/svg11.dtd">
<!-- Generated by graphviz version 2.43.0 (0)
 -->
<!-- Title: ric.func_801705EC Pages: 1 -->
<svg width="420pt" height="224pt"
 viewBox="0.00 0.00 419.93 224.00" xmlns="http://www.w3.org/2000/svg" xmlns:xlink="http://www.w3.org/1999/xlink">
<g id="graph0" class="graph" transform="scale(1 1) rotate(0) translate(4 220)">
<title>ric.func_801705EC</title>
<polygon fill="white" stroke="transparent" points="-4,4 -4,-220 415.93,-220 415.93,4 -4,4"/>
<!-- ric.func_801705EC -->
<g id="node1" class="node">
<title>ric.func_801705EC</title>
<ellipse fill="green" stroke="black" cx="205.14" cy="-198" rx="98.58" ry="18"/>
<text text-anchor="middle" x="205.14" y="-194.3" font-family="Times,serif" font-size="14.00">ric.func_801705EC</text>
</g>
<!-- ric.func_80156C60 -->
<g id="node2" class="node">
<title>ric.func_80156C60</title>
<g id="a_node2"><a xlink:href="ric.func_80156C60.svg" xlink:title="ric.func_80156C60">
<ellipse fill="green" stroke="black" cx="98.14" cy="-18" rx="98.28" ry="18"/>
<text text-anchor="middle" x="98.14" y="-14.3" font-family="Times,serif" font-size="14.00">ric.func_80156C60</text>
</a>
</g>
</g>
<!-- ric.func_801705EC&#45;&gt;ric.func_80156C60 -->
<g id="edge1" class="edge">
<title>ric.func_801705EC&#45;&gt;ric.func_80156C60</title>
<path fill="none" stroke="black" d="M194.88,-179.93C176.03,-148.57 135.77,-81.6 113.59,-44.71"/>
<polygon fill="black" stroke="black" points="116.52,-42.78 108.37,-36.02 110.52,-46.39 116.52,-42.78"/>
<text text-anchor="middle" x="103.37" y="-39.82" font-family="Times,serif" font-size="14.00">1</text>
</g>
<!-- ric.func_801606BC -->
<g id="node3" class="node">
<title>ric.func_801606BC</title>
<g id="a_node3"><a xlink:href="ric.func_801606BC.svg" xlink:title="ric.func_801606BC">
<ellipse fill="green" stroke="black" cx="313.14" cy="-18" rx="98.58" ry="18"/>
<text text-anchor="middle" x="313.14" y="-14.3" font-family="Times,serif" font-size="14.00">ric.func_801606BC</text>
</a>
</g>
</g>
<!-- ric.func_801705EC&#45;&gt;ric.func_801606BC -->
<g id="edge2" class="edge">
<title>ric.func_801705EC&#45;&gt;ric.func_801606BC</title>
<path fill="none" stroke="black" d="M215.5,-179.93C234.53,-148.57 275.16,-81.6 297.54,-44.71"/>
<polygon fill="black" stroke="black" points="300.62,-46.38 302.82,-36.02 294.64,-42.75 300.62,-46.38"/>
<text text-anchor="middle" x="297.82" y="-39.82" font-family="Times,serif" font-size="14.00">1</text>
</g>
</g>
</svg>
