<?xml version="1.0" encoding="UTF-8" standalone="no"?>
<!DOCTYPE svg PUBLIC "-//W3C//DTD SVG 1.1//EN"
 "http://www.w3.org/Graphics/SVG/1.1/DTD/svg11.dtd">
<!-- Generated by graphviz version 2.43.0 (0)
 -->
<!-- Title: ric.func_8016902C Pages: 1 -->
<svg width="1361pt" height="224pt"
 viewBox="0.00 0.00 1360.58 224.00" xmlns="http://www.w3.org/2000/svg" xmlns:xlink="http://www.w3.org/1999/xlink">
<g id="graph0" class="graph" transform="scale(1 1) rotate(0) translate(4 220)">
<title>ric.func_8016902C</title>
<polygon fill="white" stroke="transparent" points="-4,4 -4,-220 1356.58,-220 1356.58,4 -4,4"/>
<!-- ric.func_8016902C -->
<g id="node1" class="node">
<title>ric.func_8016902C</title>
<ellipse fill="red" stroke="black" cx="637.44" cy="-198" rx="98.28" ry="18"/>
<text text-anchor="middle" x="637.44" y="-194.3" font-family="Times,serif" font-size="14.00">ric.func_8016902C</text>
</g>
<!-- dra.AllocPrimitives -->
<g id="node2" class="node">
<title>dra.AllocPrimitives</title>
<g id="a_node2"><a xlink:href="dra.AllocPrimitives.svg" xlink:title="dra.AllocPrimitives">
<ellipse fill="green" stroke="black" cx="99.44" cy="-18" rx="99.38" ry="18"/>
<text text-anchor="middle" x="99.44" y="-14.3" font-family="Times,serif" font-size="14.00">dra.AllocPrimitives</text>
</a>
</g>
</g>
<!-- ric.func_8016902C&#45;&gt;dra.AllocPrimitives -->
<g id="edge1" class="edge">
<title>ric.func_8016902C&#45;&gt;dra.AllocPrimitives</title>
<path fill="none" stroke="black" d="M592.04,-181.98C493.65,-149.43 261.09,-72.48 154.52,-37.22"/>
<polygon fill="black" stroke="black" points="155.51,-33.86 144.92,-34.05 153.31,-40.51 155.51,-33.86"/>
<text text-anchor="middle" x="139.92" y="-37.85" font-family="Times,serif" font-size="14.00">1</text>
</g>
<!-- ric.func_8015FAB8 -->
<g id="node3" class="node">
<title>ric.func_8015FAB8</title>
<g id="a_node3"><a xlink:href="ric.func_8015FAB8.svg" xlink:title="ric.func_8015FAB8">
<ellipse fill="green" stroke="black" cx="315.44" cy="-18" rx="98.28" ry="18"/>
<text text-anchor="middle" x="315.44" y="-14.3" font-family="Times,serif" font-size="14.00">ric.func_8015FAB8</text>
</a>
</g>
</g>
<!-- ric.func_8016902C&#45;&gt;ric.func_8015FAB8 -->
<g id="edge2" class="edge">
<title>ric.func_8016902C&#45;&gt;ric.func_8015FAB8</title>
<path fill="none" stroke="black" d="M608.01,-180.73C549.71,-148.5 419.54,-76.55 354.29,-40.48"/>
<polygon fill="black" stroke="black" points="355.6,-37.2 345.15,-35.42 352.21,-43.32 355.6,-37.2"/>
<text text-anchor="middle" x="340.15" y="-39.22" font-family="Times,serif" font-size="14.00">1</text>
</g>
<!-- LoadImage -->
<g id="node4" class="node">
<title>LoadImage</title>
<g id="a_node4"><a xlink:href="LoadImage.svg" xlink:title="LoadImage">
<ellipse fill="lightblue" stroke="black" cx="493.44" cy="-18" rx="61.99" ry="18"/>
<text text-anchor="middle" x="493.44" y="-14.3" font-family="Times,serif" font-size="14.00">LoadImage</text>
</a>
</g>
</g>
<!-- ric.func_8016902C&#45;&gt;LoadImage -->
<g id="edge3" class="edge">
<title>ric.func_8016902C&#45;&gt;LoadImage</title>
<path fill="none" stroke="black" d="M623.63,-179.93C598.09,-148.35 543.35,-80.69 513.63,-43.96"/>
<polygon fill="black" stroke="black" points="516.01,-41.33 507,-35.76 510.56,-45.73 516.01,-41.33"/>
<text text-anchor="middle" x="502" y="-39.56" font-family="Times,serif" font-size="14.00">1</text>
</g>
<!-- dra.PlaySfx -->
<g id="node5" class="node">
<title>dra.PlaySfx</title>
<g id="a_node5"><a xlink:href="dra.PlaySfx.svg" xlink:title="dra.PlaySfx">
<ellipse fill="green" stroke="black" cx="637.44" cy="-18" rx="64.19" ry="18"/>
<text text-anchor="middle" x="637.44" y="-14.3" font-family="Times,serif" font-size="14.00">dra.PlaySfx</text>
</a>
</g>
</g>
<!-- ric.func_8016902C&#45;&gt;dra.PlaySfx -->
<g id="edge4" class="edge">
<title>ric.func_8016902C&#45;&gt;dra.PlaySfx</title>
<path fill="none" stroke="black" d="M637.44,-179.93C637.44,-148.97 637.44,-83.3 637.44,-46.13"/>
<polygon fill="black" stroke="black" points="640.94,-46.02 637.44,-36.02 633.94,-46.02 640.94,-46.02"/>
<text text-anchor="middle" x="632.44" y="-39.82" font-family="Times,serif" font-size="14.00">2</text>
</g>
<!-- ric.func_801606BC -->
<g id="node6" class="node">
<title>ric.func_801606BC</title>
<g id="a_node6"><a xlink:href="ric.func_801606BC.svg" xlink:title="ric.func_801606BC">
<ellipse fill="green" stroke="black" cx="818.44" cy="-18" rx="98.58" ry="18"/>
<text text-anchor="middle" x="818.44" y="-14.3" font-family="Times,serif" font-size="14.00">ric.func_801606BC</text>
</a>
</g>
</g>
<!-- ric.func_8016902C&#45;&gt;ric.func_801606BC -->
<g id="edge5" class="edge">
<title>ric.func_8016902C&#45;&gt;ric.func_801606BC</title>
<path fill="none" stroke="black" d="M654.47,-180.25C686.68,-148.58 756.62,-79.8 793.89,-43.14"/>
<polygon fill="black" stroke="black" points="796.65,-45.34 801.33,-35.83 791.74,-40.35 796.65,-45.34"/>
<text text-anchor="middle" x="796.33" y="-39.63" font-family="Times,serif" font-size="14.00">2</text>
</g>
<!-- dra.func_801027C4 -->
<g id="node7" class="node">
<title>dra.func_801027C4</title>
<g id="a_node7"><a xlink:href="dra.func_801027C4.svg" xlink:title="dra.func_801027C4">
<ellipse fill="green" stroke="black" cx="1036.44" cy="-18" rx="101.28" ry="18"/>
<text text-anchor="middle" x="1036.44" y="-14.3" font-family="Times,serif" font-size="14.00">dra.func_801027C4</text>
</a>
</g>
</g>
<!-- ric.func_8016902C&#45;&gt;dra.func_801027C4 -->
<g id="edge6" class="edge">
<title>ric.func_8016902C&#45;&gt;dra.func_801027C4</title>
<path fill="none" stroke="black" d="M672.85,-181.2C745.52,-148.79 911.38,-74.79 991.49,-39.05"/>
<polygon fill="black" stroke="black" points="993.12,-42.16 1000.83,-34.89 990.27,-35.77 993.12,-42.16"/>
<text text-anchor="middle" x="995.83" y="-38.69" font-family="Times,serif" font-size="14.00">1</text>
</g>
<!-- ric.func_80156C60 -->
<g id="node8" class="node">
<title>ric.func_80156C60</title>
<g id="a_node8"><a xlink:href="ric.func_80156C60.svg" xlink:title="ric.func_80156C60">
<ellipse fill="green" stroke="black" cx="1254.44" cy="-18" rx="98.28" ry="18"/>
<text text-anchor="middle" x="1254.44" y="-14.3" font-family="Times,serif" font-size="14.00">ric.func_80156C60</text>
</a>
</g>
</g>
<!-- ric.func_8016902C&#45;&gt;ric.func_80156C60 -->
<g id="edge7" class="edge">
<title>ric.func_8016902C&#45;&gt;ric.func_80156C60</title>
<path fill="none" stroke="black" d="M687.67,-182.51C800.31,-150.01 1072.67,-71.44 1194.18,-36.39"/>
<polygon fill="black" stroke="black" points="1195.42,-39.67 1204.06,-33.53 1193.48,-32.94 1195.42,-39.67"/>
<text text-anchor="middle" x="1199.06" y="-37.33" font-family="Times,serif" font-size="14.00">1</text>
</g>
</g>
</svg>
