<?xml version="1.0" encoding="UTF-8" standalone="no"?>
<!DOCTYPE svg PUBLIC "-//W3C//DTD SVG 1.1//EN"
 "http://www.w3.org/Graphics/SVG/1.1/DTD/svg11.dtd">
<!-- Generated by graphviz version 2.43.0 (0)
 -->
<!-- Title: ric.func_801656B0 Pages: 1 -->
<svg width="745pt" height="224pt"
 viewBox="0.00 0.00 745.43 224.00" xmlns="http://www.w3.org/2000/svg" xmlns:xlink="http://www.w3.org/1999/xlink">
<g id="graph0" class="graph" transform="scale(1 1) rotate(0) translate(4 220)">
<title>ric.func_801656B0</title>
<polygon fill="white" stroke="transparent" points="-4,4 -4,-220 741.43,-220 741.43,4 -4,4"/>
<!-- ric.func_801656B0 -->
<g id="node1" class="node">
<title>ric.func_801656B0</title>
<ellipse fill="red" stroke="black" cx="400.44" cy="-198" rx="98.28" ry="18"/>
<text text-anchor="middle" x="400.44" y="-194.3" font-family="Times,serif" font-size="14.00">ric.func_801656B0</text>
</g>
<!-- dra.AllocPrimitives -->
<g id="node2" class="node">
<title>dra.AllocPrimitives</title>
<g id="a_node2"><a xlink:href="dra.AllocPrimitives.svg" xlink:title="dra.AllocPrimitives">
<ellipse fill="green" stroke="black" cx="99.44" cy="-18" rx="99.38" ry="18"/>
<text text-anchor="middle" x="99.44" y="-14.3" font-family="Times,serif" font-size="14.00">dra.AllocPrimitives</text>
</a>
</g>
</g>
<!-- ric.func_801656B0&#45;&gt;dra.AllocPrimitives -->
<g id="edge1" class="edge">
<title>ric.func_801656B0&#45;&gt;dra.AllocPrimitives</title>
<path fill="none" stroke="black" d="M372.66,-180.57C318.12,-148.32 197.04,-76.72 136.05,-40.65"/>
<polygon fill="black" stroke="black" points="137.54,-37.46 127.15,-35.39 133.98,-43.49 137.54,-37.46"/>
<text text-anchor="middle" x="122.15" y="-39.19" font-family="Times,serif" font-size="14.00">1</text>
</g>
<!-- main.rcos -->
<g id="node3" class="node">
<title>main.rcos</title>
<g id="a_node3"><a xlink:href="main.rcos.svg" xlink:title="main.rcos">
<ellipse fill="red" stroke="black" cx="272.44" cy="-18" rx="55.79" ry="18"/>
<text text-anchor="middle" x="272.44" y="-14.3" font-family="Times,serif" font-size="14.00">main.rcos</text>
</a>
</g>
</g>
<!-- ric.func_801656B0&#45;&gt;main.rcos -->
<g id="edge2" class="edge">
<title>ric.func_801656B0&#45;&gt;main.rcos</title>
<path fill="none" stroke="black" d="M388.17,-179.93C365.46,-148.35 316.8,-80.69 290.39,-43.96"/>
<polygon fill="black" stroke="black" points="293.17,-41.83 284.49,-35.76 287.49,-45.92 293.17,-41.83"/>
<text text-anchor="middle" x="279.49" y="-39.56" font-family="Times,serif" font-size="14.00">4</text>
</g>
<!-- main.rsin -->
<g id="node4" class="node">
<title>main.rsin</title>
<g id="a_node4"><a xlink:href="main.rsin.svg" xlink:title="main.rsin">
<ellipse fill="green" stroke="black" cx="400.44" cy="-18" rx="54.69" ry="18"/>
<text text-anchor="middle" x="400.44" y="-14.3" font-family="Times,serif" font-size="14.00">main.rsin</text>
</a>
</g>
</g>
<!-- ric.func_801656B0&#45;&gt;main.rsin -->
<g id="edge3" class="edge">
<title>ric.func_801656B0&#45;&gt;main.rsin</title>
<path fill="none" stroke="black" d="M400.44,-179.93C400.44,-148.97 400.44,-83.3 400.44,-46.13"/>
<polygon fill="black" stroke="black" points="403.94,-46.02 400.44,-36.02 396.94,-46.02 403.94,-46.02"/>
<text text-anchor="middle" x="395.44" y="-39.82" font-family="Times,serif" font-size="14.00">7</text>
</g>
<!-- rand -->
<g id="node5" class="node">
<title>rand</title>
<g id="a_node5"><a xlink:href="rand.svg" xlink:title="rand">
<ellipse fill="lightblue" stroke="black" cx="505.44" cy="-18" rx="32.49" ry="18"/>
<text text-anchor="middle" x="505.44" y="-14.3" font-family="Times,serif" font-size="14.00">rand</text>
</a>
</g>
</g>
<!-- ric.func_801656B0&#45;&gt;rand -->
<g id="edge4" class="edge">
<title>ric.func_801656B0&#45;&gt;rand</title>
<path fill="none" stroke="black" d="M410.51,-179.93C429.15,-148.33 469.12,-80.57 490.77,-43.86"/>
<polygon fill="black" stroke="black" points="493.79,-45.63 495.86,-35.24 487.77,-42.08 493.79,-45.63"/>
<text text-anchor="middle" x="486.36" y="-39.04" font-family="Times,serif" font-size="14.00">11</text>
</g>
<!-- ric.DestroyEntity -->
<g id="node6" class="node">
<title>ric.DestroyEntity</title>
<g id="a_node6"><a xlink:href="ric.DestroyEntity.svg" xlink:title="ric.DestroyEntity">
<ellipse fill="green" stroke="black" cx="646.44" cy="-18" rx="90.98" ry="18"/>
<text text-anchor="middle" x="646.44" y="-14.3" font-family="Times,serif" font-size="14.00">ric.DestroyEntity</text>
</a>
</g>
</g>
<!-- ric.func_801656B0&#45;&gt;ric.DestroyEntity -->
<g id="edge5" class="edge">
<title>ric.func_801656B0&#45;&gt;ric.DestroyEntity</title>
<path fill="none" stroke="black" d="M423.58,-180.25C468.02,-148.1 565.3,-77.71 615.35,-41.5"/>
<polygon fill="black" stroke="black" points="617.49,-44.27 623.54,-35.57 613.39,-38.6 617.49,-44.27"/>
<text text-anchor="middle" x="618.54" y="-39.37" font-family="Times,serif" font-size="14.00">1</text>
</g>
</g>
</svg>
