<?xml version="1.0" encoding="UTF-8" standalone="no"?>
<!DOCTYPE svg PUBLIC "-//W3C//DTD SVG 1.1//EN"
 "http://www.w3.org/Graphics/SVG/1.1/DTD/svg11.dtd">
<!-- Generated by graphviz version 2.43.0 (0)
 -->
<!-- Title: ric.func_80166784 Pages: 1 -->
<svg width="1551pt" height="240pt"
 viewBox="0.00 0.00 1551.04 240.41" xmlns="http://www.w3.org/2000/svg" xmlns:xlink="http://www.w3.org/1999/xlink">
<g id="graph0" class="graph" transform="scale(1 1) rotate(0) translate(4 236.41)">
<title>ric.func_80166784</title>
<polygon fill="white" stroke="transparent" points="-4,4 -4,-236.41 1547.04,-236.41 1547.04,4 -4,4"/>
<!-- ric.func_80166784 -->
<g id="node1" class="node">
<title>ric.func_80166784</title>
<g id="a_node1"><a xlink:href="ric.func_80166784.svg" xlink:title="ric.func_80166784">
<ellipse fill="red" stroke="black" cx="748.44" cy="-198" rx="96.68" ry="18"/>
<text text-anchor="middle" x="748.44" y="-194.3" font-family="Times,serif" font-size="14.00">ric.func_80166784</text>
</a>
</g>
</g>
<!-- ric.func_80166784&#45;&gt;ric.func_80166784 -->
<g id="edge10" class="edge">
<title>ric.func_80166784&#45;&gt;ric.func_80166784</title>
<path fill="none" stroke="black" d="M798.62,-213.46C831.48,-217.66 863.28,-212.5 863.28,-198 863.28,-185.03 837.83,-179.53 808.94,-181.52"/>
<polygon fill="black" stroke="black" points="808.23,-178.07 798.62,-182.54 808.91,-185.04 808.23,-178.07"/>
<text text-anchor="middle" x="793.62" y="-171.34" font-family="Times,serif" font-size="14.00">1</text>
</g>
<!-- ric.func_80166784&#45;&gt;ric.func_80166784 -->
<g id="edge12" class="edge">
<title>ric.func_80166784&#45;&gt;ric.func_80166784</title>
<path fill="none" stroke="black" d="M771.61,-215.62C817.94,-241.93 881.28,-236.06 881.28,-198 881.28,-162.4 825.84,-154.96 780.76,-175.7"/>
<polygon fill="black" stroke="black" points="778.92,-172.71 771.61,-180.38 782.11,-178.94 778.92,-172.71"/>
<text text-anchor="middle" x="766.61" y="-219.42" font-family="Times,serif" font-size="14.00">1</text>
</g>
<!-- dra.AllocPrimitives -->
<g id="node2" class="node">
<title>dra.AllocPrimitives</title>
<g id="a_node2"><a xlink:href="dra.AllocPrimitives.svg" xlink:title="dra.AllocPrimitives">
<ellipse fill="green" stroke="black" cx="99.44" cy="-18" rx="99.38" ry="18"/>
<text text-anchor="middle" x="99.44" y="-14.3" font-family="Times,serif" font-size="14.00">dra.AllocPrimitives</text>
</a>
</g>
</g>
<!-- ric.func_80166784&#45;&gt;dra.AllocPrimitives -->
<g id="edge1" class="edge">
<title>ric.func_80166784&#45;&gt;dra.AllocPrimitives</title>
<path fill="none" stroke="black" d="M696.43,-182.73C578.11,-150.28 289.24,-71.06 161.7,-36.08"/>
<polygon fill="black" stroke="black" points="162.27,-32.6 151.7,-33.33 160.42,-39.35 162.27,-32.6"/>
<text text-anchor="middle" x="146.7" y="-37.13" font-family="Times,serif" font-size="14.00">1</text>
</g>
<!-- dra.FreePrimitives -->
<g id="node3" class="node">
<title>dra.FreePrimitives</title>
<g id="a_node3"><a xlink:href="dra.FreePrimitives.svg" xlink:title="dra.FreePrimitives">
<ellipse fill="green" stroke="black" cx="315.44" cy="-18" rx="98.58" ry="18"/>
<text text-anchor="middle" x="315.44" y="-14.3" font-family="Times,serif" font-size="14.00">dra.FreePrimitives</text>
</a>
</g>
</g>
<!-- ric.func_80166784&#45;&gt;dra.FreePrimitives -->
<g id="edge2" class="edge">
<title>ric.func_80166784&#45;&gt;dra.FreePrimitives</title>
<path fill="none" stroke="black" d="M710.39,-181.36C631.33,-148.86 449.43,-74.08 362.88,-38.5"/>
<polygon fill="black" stroke="black" points="364.14,-35.23 353.56,-34.67 361.47,-41.71 364.14,-35.23"/>
<text text-anchor="middle" x="348.56" y="-38.47" font-family="Times,serif" font-size="14.00">2</text>
</g>
<!-- dra.PlaySfx -->
<g id="node4" class="node">
<title>dra.PlaySfx</title>
<g id="a_node4"><a xlink:href="dra.PlaySfx.svg" xlink:title="dra.PlaySfx">
<ellipse fill="green" stroke="black" cx="496.44" cy="-18" rx="64.19" ry="18"/>
<text text-anchor="middle" x="496.44" y="-14.3" font-family="Times,serif" font-size="14.00">dra.PlaySfx</text>
</a>
</g>
</g>
<!-- ric.func_80166784&#45;&gt;dra.PlaySfx -->
<g id="edge3" class="edge">
<title>ric.func_80166784&#45;&gt;dra.PlaySfx</title>
<path fill="none" stroke="black" d="M724.73,-180.25C678.98,-147.94 578.54,-76.99 527.51,-40.95"/>
<polygon fill="black" stroke="black" points="529.36,-37.97 519.17,-35.06 525.32,-43.69 529.36,-37.97"/>
<text text-anchor="middle" x="514.17" y="-38.86" font-family="Times,serif" font-size="14.00">1</text>
</g>
<!-- rand -->
<g id="node5" class="node">
<title>rand</title>
<g id="a_node5"><a xlink:href="rand.svg" xlink:title="rand">
<ellipse fill="lightblue" stroke="black" cx="611.44" cy="-18" rx="32.49" ry="18"/>
<text text-anchor="middle" x="611.44" y="-14.3" font-family="Times,serif" font-size="14.00">rand</text>
</a>
</g>
</g>
<!-- ric.func_80166784&#45;&gt;rand -->
<g id="edge4" class="edge">
<title>ric.func_80166784&#45;&gt;rand</title>
<path fill="none" stroke="black" d="M735.31,-179.93C710.75,-148.03 657.86,-79.3 629.79,-42.84"/>
<polygon fill="black" stroke="black" points="632.42,-40.52 623.55,-34.73 626.88,-44.79 632.42,-40.52"/>
<text text-anchor="middle" x="618.55" y="-38.53" font-family="Times,serif" font-size="14.00">2</text>
</g>
<!-- ratan2 -->
<g id="node6" class="node">
<title>ratan2</title>
<g id="a_node6"><a xlink:href="ratan2.svg" xlink:title="ratan2">
<ellipse fill="lightblue" stroke="black" cx="703.44" cy="-18" rx="41.69" ry="18"/>
<text text-anchor="middle" x="703.44" y="-14.3" font-family="Times,serif" font-size="14.00">ratan2</text>
</a>
</g>
</g>
<!-- ric.func_80166784&#45;&gt;ratan2 -->
<g id="edge5" class="edge">
<title>ric.func_80166784&#45;&gt;ratan2</title>
<path fill="none" stroke="black" d="M744.13,-179.93C736.3,-148.97 719.7,-83.3 710.3,-46.13"/>
<polygon fill="black" stroke="black" points="713.59,-44.85 707.74,-36.02 706.8,-46.57 713.59,-44.85"/>
<text text-anchor="middle" x="702.74" y="-39.82" font-family="Times,serif" font-size="14.00">2</text>
</g>
<!-- rcos -->
<g id="node7" class="node">
<title>rcos</title>
<g id="a_node7"><a xlink:href="rcos.svg" xlink:title="rcos">
<ellipse fill="lightblue" stroke="black" cx="793.44" cy="-18" rx="30.59" ry="18"/>
<text text-anchor="middle" x="793.44" y="-14.3" font-family="Times,serif" font-size="14.00">rcos</text>
</a>
</g>
</g>
<!-- ric.func_80166784&#45;&gt;rcos -->
<g id="edge6" class="edge">
<title>ric.func_80166784&#45;&gt;rcos</title>
<path fill="none" stroke="black" d="M752.76,-179.93C760.58,-148.97 777.19,-83.3 786.58,-46.13"/>
<polygon fill="black" stroke="black" points="790.08,-46.57 789.14,-36.02 783.3,-44.85 790.08,-46.57"/>
<text text-anchor="middle" x="784.14" y="-39.82" font-family="Times,serif" font-size="14.00">4</text>
</g>
<!-- ric.func_80156C60 -->
<g id="node8" class="node">
<title>ric.func_80156C60</title>
<g id="a_node8"><a xlink:href="ric.func_80156C60.svg" xlink:title="ric.func_80156C60">
<ellipse fill="green" stroke="black" cx="940.44" cy="-18" rx="98.28" ry="18"/>
<text text-anchor="middle" x="940.44" y="-14.3" font-family="Times,serif" font-size="14.00">ric.func_80156C60</text>
</a>
</g>
</g>
<!-- ric.func_80166784&#45;&gt;ric.func_80156C60 -->
<g id="edge7" class="edge">
<title>ric.func_80166784&#45;&gt;ric.func_80156C60</title>
<path fill="none" stroke="black" d="M766.5,-180.25C800.81,-148.45 875.48,-79.22 914.9,-42.68"/>
<polygon fill="black" stroke="black" points="917.33,-45.2 922.29,-35.83 912.57,-40.06 917.33,-45.2"/>
<text text-anchor="middle" x="917.29" y="-39.63" font-family="Times,serif" font-size="14.00">1</text>
</g>
<!-- ric.func_8015FAB8 -->
<g id="node9" class="node">
<title>ric.func_8015FAB8</title>
<g id="a_node9"><a xlink:href="ric.func_8015FAB8.svg" xlink:title="ric.func_8015FAB8">
<ellipse fill="green" stroke="black" cx="1154.44" cy="-18" rx="98.28" ry="18"/>
<text text-anchor="middle" x="1154.44" y="-14.3" font-family="Times,serif" font-size="14.00">ric.func_8015FAB8</text>
</a>
</g>
</g>
<!-- ric.func_80166784&#45;&gt;ric.func_8015FAB8 -->
<g id="edge8" class="edge">
<title>ric.func_80166784&#45;&gt;ric.func_8015FAB8</title>
<path fill="none" stroke="black" d="M784.47,-181.2C858.51,-148.74 1027.61,-74.6 1109.01,-38.92"/>
<polygon fill="black" stroke="black" points="1110.74,-41.98 1118.49,-34.76 1107.93,-35.57 1110.74,-41.98"/>
<text text-anchor="middle" x="1113.49" y="-38.56" font-family="Times,serif" font-size="14.00">1</text>
</g>
<!-- ric.func_801606BC -->
<g id="node10" class="node">
<title>ric.func_801606BC</title>
<g id="a_node10"><a xlink:href="ric.func_801606BC.svg" xlink:title="ric.func_801606BC">
<ellipse fill="green" stroke="black" cx="1369.44" cy="-18" rx="98.58" ry="18"/>
<text text-anchor="middle" x="1369.44" y="-14.3" font-family="Times,serif" font-size="14.00">ric.func_801606BC</text>
</a>
</g>
</g>
<!-- ric.func_80166784&#45;&gt;ric.func_801606BC -->
<g id="edge9" class="edge">
<title>ric.func_80166784&#45;&gt;ric.func_801606BC</title>
<path fill="none" stroke="black" d="M798.73,-182.58C911.92,-150.14 1186.3,-71.49 1308.72,-36.4"/>
<polygon fill="black" stroke="black" points="1310.03,-39.67 1318.68,-33.55 1308.1,-32.94 1310.03,-39.67"/>
<text text-anchor="middle" x="1313.68" y="-37.35" font-family="Times,serif" font-size="14.00">3</text>
</g>
<!-- rsin -->
<g id="node11" class="node">
<title>rsin</title>
<g id="a_node11"><a xlink:href="rsin.svg" xlink:title="rsin">
<ellipse fill="lightblue" stroke="black" cx="1514.44" cy="-18" rx="28.7" ry="18"/>
<text text-anchor="middle" x="1514.44" y="-14.3" font-family="Times,serif" font-size="14.00">rsin</text>
</a>
</g>
</g>
<!-- ric.func_80166784&#45;&gt;rsin -->
<g id="edge11" class="edge">
<title>ric.func_80166784&#45;&gt;rsin</title>
<path fill="none" stroke="black" d="M821.48,-186.17C954.37,-165.31 1243.53,-114.56 1477.44,-36 1479.35,-35.36 1481.29,-34.65 1483.24,-33.9"/>
<polygon fill="black" stroke="black" points="1484.98,-36.96 1492.84,-29.86 1482.27,-30.51 1484.98,-36.96"/>
<text text-anchor="middle" x="1487.84" y="-33.66" font-family="Times,serif" font-size="14.00">5</text>
</g>
</g>
</svg>
