<?xml version="1.0" encoding="UTF-8" standalone="no"?>
<!DOCTYPE svg PUBLIC "-//W3C//DTD SVG 1.1//EN"
 "http://www.w3.org/Graphics/SVG/1.1/DTD/svg11.dtd">
<!-- Generated by graphviz version 2.43.0 (0)
 -->
<!-- Title: ric.func_8015D3CC Pages: 1 -->
<svg width="1079pt" height="404pt"
 viewBox="0.00 0.00 1078.64 404.00" xmlns="http://www.w3.org/2000/svg" xmlns:xlink="http://www.w3.org/1999/xlink">
<g id="graph0" class="graph" transform="scale(1 1) rotate(0) translate(4 400)">
<title>ric.func_8015D3CC</title>
<polygon fill="white" stroke="transparent" points="-4,4 -4,-400 1074.64,-400 1074.64,4 -4,4"/>
<!-- ric.func_8015D3CC -->
<g id="node1" class="node">
<title>ric.func_8015D3CC</title>
<ellipse fill="red" stroke="black" cx="452.5" cy="-198" rx="100.98" ry="18"/>
<text text-anchor="middle" x="452.5" y="-194.3" font-family="Times,serif" font-size="14.00">ric.func_8015D3CC</text>
</g>
<!-- rand -->
<g id="node2" class="node">
<title>rand</title>
<g id="a_node2"><a xlink:href="rand.svg" xlink:title="rand">
<ellipse fill="lightblue" stroke="black" cx="32.5" cy="-18" rx="32.49" ry="18"/>
<text text-anchor="middle" x="32.5" y="-14.3" font-family="Times,serif" font-size="14.00">rand</text>
</a>
</g>
</g>
<!-- ric.func_8015D3CC&#45;&gt;rand -->
<g id="edge1" class="edge">
<title>ric.func_8015D3CC&#45;&gt;rand</title>
<path fill="none" stroke="black" d="M415.22,-181.2C334.56,-147.02 144.78,-66.59 66.84,-33.55"/>
<polygon fill="black" stroke="black" points="68.04,-30.26 57.47,-29.58 65.31,-36.71 68.04,-30.26"/>
<text text-anchor="middle" x="62.47" y="-33.38" font-family="Times,serif" font-size="14.00">1</text>
</g>
<!-- ric.func_8015D250 -->
<g id="node3" class="node">
<title>ric.func_8015D250</title>
<g id="a_node3"><a xlink:href="ric.func_8015D250.svg" xlink:title="ric.func_8015D250">
<ellipse fill="green" stroke="black" cx="181.5" cy="-18" rx="98.58" ry="18"/>
<text text-anchor="middle" x="181.5" y="-14.3" font-family="Times,serif" font-size="14.00">ric.func_8015D250</text>
</a>
</g>
</g>
<!-- ric.func_8015D3CC&#45;&gt;ric.func_8015D250 -->
<g id="edge2" class="edge">
<title>ric.func_8015D3CC&#45;&gt;ric.func_8015D250</title>
<path fill="none" stroke="black" d="M427,-180.25C377.95,-148.04 270.44,-77.42 215.41,-41.27"/>
<polygon fill="black" stroke="black" points="217.01,-38.14 206.73,-35.57 213.16,-43.99 217.01,-38.14"/>
<text text-anchor="middle" x="201.73" y="-39.37" font-family="Times,serif" font-size="14.00">1</text>
</g>
<!-- dra.PlaySfx -->
<g id="node4" class="node">
<title>dra.PlaySfx</title>
<g id="a_node4"><a xlink:href="dra.PlaySfx.svg" xlink:title="dra.PlaySfx">
<ellipse fill="green" stroke="black" cx="362.5" cy="-18" rx="64.19" ry="18"/>
<text text-anchor="middle" x="362.5" y="-14.3" font-family="Times,serif" font-size="14.00">dra.PlaySfx</text>
</a>
</g>
</g>
<!-- ric.func_8015D3CC&#45;&gt;dra.PlaySfx -->
<g id="edge3" class="edge">
<title>ric.func_8015D3CC&#45;&gt;dra.PlaySfx</title>
<path fill="none" stroke="black" d="M443.87,-179.93C428.08,-148.7 394.44,-82.17 375.73,-45.18"/>
<polygon fill="black" stroke="black" points="378.74,-43.36 371.1,-36.02 372.49,-46.52 378.74,-43.36"/>
<text text-anchor="middle" x="366.1" y="-39.82" font-family="Times,serif" font-size="14.00">7</text>
</g>
<!-- ric.func_80156C60 -->
<g id="node5" class="node">
<title>ric.func_80156C60</title>
<g id="a_node5"><a xlink:href="ric.func_80156C60.svg" xlink:title="ric.func_80156C60">
<ellipse fill="green" stroke="black" cx="542.5" cy="-18" rx="98.28" ry="18"/>
<text text-anchor="middle" x="542.5" y="-14.3" font-family="Times,serif" font-size="14.00">ric.func_80156C60</text>
</a>
</g>
</g>
<!-- ric.func_8015D3CC&#45;&gt;ric.func_80156C60 -->
<g id="edge4" class="edge">
<title>ric.func_8015D3CC&#45;&gt;ric.func_80156C60</title>
<path fill="none" stroke="black" d="M461.13,-179.93C476.92,-148.7 510.56,-82.17 529.26,-45.18"/>
<polygon fill="black" stroke="black" points="532.5,-46.52 533.89,-36.02 526.26,-43.36 532.5,-46.52"/>
<text text-anchor="middle" x="528.89" y="-39.82" font-family="Times,serif" font-size="14.00">1</text>
</g>
<!-- ric.func_801606BC -->
<g id="node6" class="node">
<title>ric.func_801606BC</title>
<g id="a_node6"><a xlink:href="ric.func_801606BC.svg" xlink:title="ric.func_801606BC">
<ellipse fill="green" stroke="black" cx="757.5" cy="-18" rx="98.58" ry="18"/>
<text text-anchor="middle" x="757.5" y="-14.3" font-family="Times,serif" font-size="14.00">ric.func_801606BC</text>
</a>
</g>
</g>
<!-- ric.func_8015D3CC&#45;&gt;ric.func_801606BC -->
<g id="edge5" class="edge">
<title>ric.func_8015D3CC&#45;&gt;ric.func_801606BC</title>
<path fill="none" stroke="black" d="M480.64,-180.57C536.02,-148.25 659.1,-76.42 720.78,-40.43"/>
<polygon fill="black" stroke="black" points="722.55,-43.45 729.42,-35.39 719.02,-37.4 722.55,-43.45"/>
<text text-anchor="middle" x="724.42" y="-39.19" font-family="Times,serif" font-size="14.00">2</text>
</g>
<!-- ric.func_8015C920 -->
<g id="node7" class="node">
<title>ric.func_8015C920</title>
<g id="a_node7"><a xlink:href="ric.func_8015C920.svg" xlink:title="ric.func_8015C920">
<ellipse fill="green" stroke="black" cx="972.5" cy="-18" rx="98.28" ry="18"/>
<text text-anchor="middle" x="972.5" y="-14.3" font-family="Times,serif" font-size="14.00">ric.func_8015C920</text>
</a>
</g>
</g>
<!-- ric.func_8015D3CC&#45;&gt;ric.func_8015C920 -->
<g id="edge6" class="edge">
<title>ric.func_8015D3CC&#45;&gt;ric.func_8015C920</title>
<path fill="none" stroke="black" d="M496.83,-181.82C592,-149.25 815.58,-72.71 918.68,-37.42"/>
<polygon fill="black" stroke="black" points="919.95,-40.69 928.27,-34.14 917.68,-34.07 919.95,-40.69"/>
<text text-anchor="middle" x="923.27" y="-37.94" font-family="Times,serif" font-size="14.00">3</text>
</g>
<!-- ric.func_8015DBB0 -->
<g id="node8" class="node">
<title>ric.func_8015DBB0</title>
<g id="a_node8"><a xlink:href="ric.func_8015DBB0.svg" xlink:title="ric.func_8015DBB0">
<ellipse fill="red" stroke="black" cx="452.5" cy="-378" rx="100.98" ry="18"/>
<text text-anchor="middle" x="452.5" y="-374.3" font-family="Times,serif" font-size="14.00">ric.func_8015DBB0</text>
</a>
</g>
</g>
<!-- ric.func_8015DBB0&#45;&gt;ric.func_8015D3CC -->
<g id="edge7" class="edge">
<title>ric.func_8015DBB0&#45;&gt;ric.func_8015D3CC</title>
<path fill="none" stroke="black" d="M452.5,-359.93C452.5,-328.97 452.5,-263.3 452.5,-226.13"/>
<polygon fill="black" stroke="black" points="456,-226.02 452.5,-216.02 449,-226.02 456,-226.02"/>
<text text-anchor="middle" x="447.5" y="-348.73" font-family="Times,serif" font-size="14.00">1</text>
</g>
</g>
</svg>
