<?xml version="1.0" encoding="UTF-8" standalone="no"?>
<!DOCTYPE svg PUBLIC "-//W3C//DTD SVG 1.1//EN"
 "http://www.w3.org/Graphics/SVG/1.1/DTD/svg11.dtd">
<!-- Generated by graphviz version 2.43.0 (0)
 -->
<!-- Title: ric.func_8016D328 Pages: 1 -->
<svg width="960pt" height="224pt"
 viewBox="0.00 0.00 959.58 224.00" xmlns="http://www.w3.org/2000/svg" xmlns:xlink="http://www.w3.org/1999/xlink">
<g id="graph0" class="graph" transform="scale(1 1) rotate(0) translate(4 220)">
<title>ric.func_8016D328</title>
<polygon fill="white" stroke="transparent" points="-4,4 -4,-220 955.58,-220 955.58,4 -4,4"/>
<!-- ric.func_8016D328 -->
<g id="node1" class="node">
<title>ric.func_8016D328</title>
<ellipse fill="green" stroke="black" cx="452.44" cy="-198" rx="98.58" ry="18"/>
<text text-anchor="middle" x="452.44" y="-194.3" font-family="Times,serif" font-size="14.00">ric.func_8016D328</text>
</g>
<!-- dra.AllocPrimitives -->
<g id="node2" class="node">
<title>dra.AllocPrimitives</title>
<g id="a_node2"><a xlink:href="dra.AllocPrimitives.svg" xlink:title="dra.AllocPrimitives">
<ellipse fill="green" stroke="black" cx="99.44" cy="-18" rx="99.38" ry="18"/>
<text text-anchor="middle" x="99.44" y="-14.3" font-family="Times,serif" font-size="14.00">dra.AllocPrimitives</text>
</a>
</g>
</g>
<!-- ric.func_8016D328&#45;&gt;dra.AllocPrimitives -->
<g id="edge1" class="edge">
<title>ric.func_8016D328&#45;&gt;dra.AllocPrimitives</title>
<path fill="none" stroke="black" d="M420.49,-180.89C356.25,-148.5 211.53,-75.52 140.43,-39.67"/>
<polygon fill="black" stroke="black" points="141.82,-36.45 131.32,-35.07 138.67,-42.7 141.82,-36.45"/>
<text text-anchor="middle" x="126.32" y="-38.87" font-family="Times,serif" font-size="14.00">1</text>
</g>
<!-- main.rcos -->
<g id="node3" class="node">
<title>main.rcos</title>
<g id="a_node3"><a xlink:href="main.rcos.svg" xlink:title="main.rcos">
<ellipse fill="red" stroke="black" cx="272.44" cy="-18" rx="55.79" ry="18"/>
<text text-anchor="middle" x="272.44" y="-14.3" font-family="Times,serif" font-size="14.00">main.rcos</text>
</a>
</g>
</g>
<!-- ric.func_8016D328&#45;&gt;main.rcos -->
<g id="edge2" class="edge">
<title>ric.func_8016D328&#45;&gt;main.rcos</title>
<path fill="none" stroke="black" d="M435.51,-180.25C403.32,-148.42 333.21,-79.1 296.29,-42.58"/>
<polygon fill="black" stroke="black" points="298.51,-39.86 288.94,-35.31 293.59,-44.83 298.51,-39.86"/>
<text text-anchor="middle" x="283.94" y="-39.11" font-family="Times,serif" font-size="14.00">1</text>
</g>
<!-- main.rsin -->
<g id="node4" class="node">
<title>main.rsin</title>
<g id="a_node4"><a xlink:href="main.rsin.svg" xlink:title="main.rsin">
<ellipse fill="green" stroke="black" cx="400.44" cy="-18" rx="54.69" ry="18"/>
<text text-anchor="middle" x="400.44" y="-14.3" font-family="Times,serif" font-size="14.00">main.rsin</text>
</a>
</g>
</g>
<!-- ric.func_8016D328&#45;&gt;main.rsin -->
<g id="edge3" class="edge">
<title>ric.func_8016D328&#45;&gt;main.rsin</title>
<path fill="none" stroke="black" d="M447.46,-179.93C438.37,-148.83 419.06,-82.73 408.23,-45.65"/>
<polygon fill="black" stroke="black" points="411.58,-44.63 405.41,-36.02 404.86,-46.6 411.58,-44.63"/>
<text text-anchor="middle" x="400.41" y="-39.82" font-family="Times,serif" font-size="14.00">1</text>
</g>
<!-- rand -->
<g id="node5" class="node">
<title>rand</title>
<g id="a_node5"><a xlink:href="rand.svg" xlink:title="rand">
<ellipse fill="lightblue" stroke="black" cx="505.44" cy="-18" rx="32.49" ry="18"/>
<text text-anchor="middle" x="505.44" y="-14.3" font-family="Times,serif" font-size="14.00">rand</text>
</a>
</g>
</g>
<!-- ric.func_8016D328&#45;&gt;rand -->
<g id="edge4" class="edge">
<title>ric.func_8016D328&#45;&gt;rand</title>
<path fill="none" stroke="black" d="M457.52,-179.93C466.78,-148.83 486.46,-82.73 497.51,-45.65"/>
<polygon fill="black" stroke="black" points="500.88,-46.6 500.37,-36.02 494.17,-44.6 500.88,-46.6"/>
<text text-anchor="middle" x="495.37" y="-39.82" font-family="Times,serif" font-size="14.00">1</text>
</g>
<!-- ric.DestroyEntity -->
<g id="node6" class="node">
<title>ric.DestroyEntity</title>
<g id="a_node6"><a xlink:href="ric.DestroyEntity.svg" xlink:title="ric.DestroyEntity">
<ellipse fill="green" stroke="black" cx="646.44" cy="-18" rx="90.98" ry="18"/>
<text text-anchor="middle" x="646.44" y="-14.3" font-family="Times,serif" font-size="14.00">ric.DestroyEntity</text>
</a>
</g>
</g>
<!-- ric.func_8016D328&#45;&gt;ric.DestroyEntity -->
<g id="edge5" class="edge">
<title>ric.func_8016D328&#45;&gt;ric.DestroyEntity</title>
<path fill="none" stroke="black" d="M470.69,-180.25C505.36,-148.45 580.8,-79.22 620.63,-42.68"/>
<polygon fill="black" stroke="black" points="623.1,-45.17 628.1,-35.83 618.36,-40.01 623.1,-45.17"/>
<text text-anchor="middle" x="623.1" y="-39.63" font-family="Times,serif" font-size="14.00">1</text>
</g>
<!-- ric.func_8015FAB8 -->
<g id="node7" class="node">
<title>ric.func_8015FAB8</title>
<g id="a_node7"><a xlink:href="ric.func_8015FAB8.svg" xlink:title="ric.func_8015FAB8">
<ellipse fill="green" stroke="black" cx="853.44" cy="-18" rx="98.28" ry="18"/>
<text text-anchor="middle" x="853.44" y="-14.3" font-family="Times,serif" font-size="14.00">ric.func_8015FAB8</text>
</a>
</g>
</g>
<!-- ric.func_8016D328&#45;&gt;ric.func_8015FAB8 -->
<g id="edge6" class="edge">
<title>ric.func_8016D328&#45;&gt;ric.func_8015FAB8</title>
<path fill="none" stroke="black" d="M488.03,-181.2C561.06,-148.79 727.75,-74.79 808.27,-39.05"/>
<polygon fill="black" stroke="black" points="809.93,-42.14 817.65,-34.89 807.09,-35.75 809.93,-42.14"/>
<text text-anchor="middle" x="812.65" y="-38.69" font-family="Times,serif" font-size="14.00">1</text>
</g>
</g>
</svg>
