<?xml version="1.0" encoding="UTF-8" standalone="no"?>
<!DOCTYPE svg PUBLIC "-//W3C//DTD SVG 1.1//EN"
 "http://www.w3.org/Graphics/SVG/1.1/DTD/svg11.dtd">
<!-- Generated by graphviz version 2.43.0 (0)
 -->
<!-- Title: ric.func_8015D9B4 Pages: 1 -->
<svg width="690pt" height="404pt"
 viewBox="0.00 0.00 689.58 404.00" xmlns="http://www.w3.org/2000/svg" xmlns:xlink="http://www.w3.org/1999/xlink">
<g id="graph0" class="graph" transform="scale(1 1) rotate(0) translate(4 400)">
<title>ric.func_8015D9B4</title>
<polygon fill="white" stroke="transparent" points="-4,4 -4,-400 685.58,-400 685.58,4 -4,4"/>
<!-- ric.func_8015D9B4 -->
<g id="node1" class="node">
<title>ric.func_8015D9B4</title>
<ellipse fill="green" stroke="black" cx="362.84" cy="-198" rx="99.38" ry="18"/>
<text text-anchor="middle" x="362.84" y="-194.3" font-family="Times,serif" font-size="14.00">ric.func_8015D9B4</text>
</g>
<!-- ric.SetPlayerStep -->
<g id="node2" class="node">
<title>ric.SetPlayerStep</title>
<g id="a_node2"><a xlink:href="ric.SetPlayerStep.svg" xlink:title="ric.SetPlayerStep">
<ellipse fill="green" stroke="black" cx="362.84" cy="-18" rx="92.88" ry="18"/>
<text text-anchor="middle" x="362.84" y="-14.3" font-family="Times,serif" font-size="14.00">ric.SetPlayerStep</text>
</a>
</g>
</g>
<!-- ric.func_8015D9B4&#45;&gt;ric.SetPlayerStep -->
<g id="edge1" class="edge">
<title>ric.func_8015D9B4&#45;&gt;ric.SetPlayerStep</title>
<path fill="none" stroke="black" d="M362.84,-179.93C362.84,-148.97 362.84,-83.3 362.84,-46.13"/>
<polygon fill="black" stroke="black" points="366.34,-46.02 362.84,-36.02 359.34,-46.02 366.34,-46.02"/>
<text text-anchor="middle" x="357.84" y="-39.82" font-family="Times,serif" font-size="14.00">1</text>
</g>
<!-- ric.UpdateEntityRichter -->
<g id="node3" class="node">
<title>ric.UpdateEntityRichter</title>
<g id="a_node3"><a xlink:href="ric.UpdateEntityRichter.svg" xlink:title="ric.UpdateEntityRichter">
<ellipse fill="red" stroke="black" cx="122.84" cy="-378" rx="122.68" ry="18"/>
<text text-anchor="middle" x="122.84" y="-374.3" font-family="Times,serif" font-size="14.00">ric.UpdateEntityRichter</text>
</a>
</g>
</g>
<!-- ric.UpdateEntityRichter&#45;&gt;ric.func_8015D9B4 -->
<g id="edge2" class="edge">
<title>ric.UpdateEntityRichter&#45;&gt;ric.func_8015D9B4</title>
<path fill="none" stroke="black" d="M145.42,-360.25C188.68,-328.17 283.29,-258 332.2,-221.72"/>
<polygon fill="black" stroke="black" points="334.55,-224.34 340.5,-215.57 330.38,-218.72 334.55,-224.34"/>
<text text-anchor="middle" x="140.42" y="-349.05" font-family="Times,serif" font-size="14.00">1</text>
</g>
<!-- ric.func_80159CE4 -->
<g id="node4" class="node">
<title>ric.func_80159CE4</title>
<g id="a_node4"><a xlink:href="ric.func_80159CE4.svg" xlink:title="ric.func_80159CE4">
<ellipse fill="red" stroke="black" cx="362.84" cy="-378" rx="98.58" ry="18"/>
<text text-anchor="middle" x="362.84" y="-374.3" font-family="Times,serif" font-size="14.00">ric.func_80159CE4</text>
</a>
</g>
</g>
<!-- ric.func_80159CE4&#45;&gt;ric.func_8015D9B4 -->
<g id="edge3" class="edge">
<title>ric.func_80159CE4&#45;&gt;ric.func_8015D9B4</title>
<path fill="none" stroke="black" d="M362.84,-359.93C362.84,-328.97 362.84,-263.3 362.84,-226.13"/>
<polygon fill="black" stroke="black" points="366.34,-226.02 362.84,-216.02 359.34,-226.02 366.34,-226.02"/>
<text text-anchor="middle" x="357.84" y="-348.73" font-family="Times,serif" font-size="14.00">1</text>
</g>
<!-- ric.func_8015DBB0 -->
<g id="node5" class="node">
<title>ric.func_8015DBB0</title>
<g id="a_node5"><a xlink:href="ric.func_8015DBB0.svg" xlink:title="ric.func_8015DBB0">
<ellipse fill="red" stroke="black" cx="580.84" cy="-378" rx="100.98" ry="18"/>
<text text-anchor="middle" x="580.84" y="-374.3" font-family="Times,serif" font-size="14.00">ric.func_8015DBB0</text>
</a>
</g>
</g>
<!-- ric.func_8015DBB0&#45;&gt;ric.func_8015D9B4 -->
<g id="edge4" class="edge">
<title>ric.func_8015DBB0&#45;&gt;ric.func_8015D9B4</title>
<path fill="none" stroke="black" d="M560.33,-360.25C521.22,-328.32 435.89,-258.65 391.29,-222.23"/>
<polygon fill="black" stroke="black" points="393.41,-219.44 383.45,-215.83 388.98,-224.87 393.41,-219.44"/>
<text text-anchor="middle" x="555.33" y="-349.05" font-family="Times,serif" font-size="14.00">1</text>
</g>
</g>
</svg>
