<?xml version="1.0" encoding="UTF-8" standalone="no"?>
<!DOCTYPE svg PUBLIC "-//W3C//DTD SVG 1.1//EN"
 "http://www.w3.org/Graphics/SVG/1.1/DTD/svg11.dtd">
<!-- Generated by graphviz version 2.43.0 (0)
 -->
<!-- Title: ric.func_801719A4 Pages: 1 -->
<svg width="1234pt" height="224pt"
 viewBox="0.00 0.00 1233.94 224.00" xmlns="http://www.w3.org/2000/svg" xmlns:xlink="http://www.w3.org/1999/xlink">
<g id="graph0" class="graph" transform="scale(1 1) rotate(0) translate(4 220)">
<title>ric.func_801719A4</title>
<polygon fill="white" stroke="transparent" points="-4,4 -4,-220 1229.94,-220 1229.94,4 -4,4"/>
<!-- ric.func_801719A4 -->
<g id="node1" class="node">
<title>ric.func_801719A4</title>
<ellipse fill="red" stroke="black" cx="800.44" cy="-198" rx="97.48" ry="18"/>
<text text-anchor="middle" x="800.44" y="-194.3" font-family="Times,serif" font-size="14.00">ric.func_801719A4</text>
</g>
<!-- dra.AllocPrimitives -->
<g id="node2" class="node">
<title>dra.AllocPrimitives</title>
<g id="a_node2"><a xlink:href="dra.AllocPrimitives.svg" xlink:title="dra.AllocPrimitives">
<ellipse fill="green" stroke="black" cx="99.44" cy="-18" rx="99.38" ry="18"/>
<text text-anchor="middle" x="99.44" y="-14.3" font-family="Times,serif" font-size="14.00">dra.AllocPrimitives</text>
</a>
</g>
</g>
<!-- ric.func_801719A4&#45;&gt;dra.AllocPrimitives -->
<g id="edge1" class="edge">
<title>ric.func_801719A4&#45;&gt;dra.AllocPrimitives</title>
<path fill="none" stroke="black" d="M745.43,-183.03C617.75,-150.61 301.72,-70.36 164.63,-35.55"/>
<polygon fill="black" stroke="black" points="165.23,-32.09 154.68,-33.03 163.51,-38.88 165.23,-32.09"/>
<text text-anchor="middle" x="149.68" y="-36.83" font-family="Times,serif" font-size="14.00">1</text>
</g>
<!-- ric.func_801606BC -->
<g id="node3" class="node">
<title>ric.func_801606BC</title>
<g id="a_node3"><a xlink:href="ric.func_801606BC.svg" xlink:title="ric.func_801606BC">
<ellipse fill="green" stroke="black" cx="315.44" cy="-18" rx="98.58" ry="18"/>
<text text-anchor="middle" x="315.44" y="-14.3" font-family="Times,serif" font-size="14.00">ric.func_801606BC</text>
</a>
</g>
</g>
<!-- ric.func_801719A4&#45;&gt;ric.func_801606BC -->
<g id="edge2" class="edge">
<title>ric.func_801719A4&#45;&gt;ric.func_801606BC</title>
<path fill="none" stroke="black" d="M758.67,-181.67C670.04,-149.14 463.36,-73.29 366.83,-37.86"/>
<polygon fill="black" stroke="black" points="367.88,-34.52 357.28,-34.36 365.47,-41.09 367.88,-34.52"/>
<text text-anchor="middle" x="352.28" y="-38.16" font-family="Times,serif" font-size="14.00">4</text>
</g>
<!-- ric.func_8015FAB8 -->
<g id="node4" class="node">
<title>ric.func_8015FAB8</title>
<g id="a_node4"><a xlink:href="ric.func_8015FAB8.svg" xlink:title="ric.func_8015FAB8">
<ellipse fill="green" stroke="black" cx="530.44" cy="-18" rx="98.28" ry="18"/>
<text text-anchor="middle" x="530.44" y="-14.3" font-family="Times,serif" font-size="14.00">ric.func_8015FAB8</text>
</a>
</g>
</g>
<!-- ric.func_801719A4&#45;&gt;ric.func_8015FAB8 -->
<g id="edge3" class="edge">
<title>ric.func_801719A4&#45;&gt;ric.func_8015FAB8</title>
<path fill="none" stroke="black" d="M775.52,-180.57C726.92,-148.53 619.43,-77.67 564.38,-41.37"/>
<polygon fill="black" stroke="black" points="565.97,-38.23 555.69,-35.65 562.11,-44.07 565.97,-38.23"/>
<text text-anchor="middle" x="550.69" y="-39.45" font-family="Times,serif" font-size="14.00">1</text>
</g>
<!-- dra.PlaySfx -->
<g id="node5" class="node">
<title>dra.PlaySfx</title>
<g id="a_node5"><a xlink:href="dra.PlaySfx.svg" xlink:title="dra.PlaySfx">
<ellipse fill="green" stroke="black" cx="710.44" cy="-18" rx="64.19" ry="18"/>
<text text-anchor="middle" x="710.44" y="-14.3" font-family="Times,serif" font-size="14.00">dra.PlaySfx</text>
</a>
</g>
</g>
<!-- ric.func_801719A4&#45;&gt;dra.PlaySfx -->
<g id="edge4" class="edge">
<title>ric.func_801719A4&#45;&gt;dra.PlaySfx</title>
<path fill="none" stroke="black" d="M791.81,-179.93C776.02,-148.7 742.38,-82.17 723.68,-45.18"/>
<polygon fill="black" stroke="black" points="726.68,-43.36 719.04,-36.02 720.43,-46.52 726.68,-43.36"/>
<text text-anchor="middle" x="714.04" y="-39.82" font-family="Times,serif" font-size="14.00">4</text>
</g>
<!-- ric.func_80156C60 -->
<g id="node6" class="node">
<title>ric.func_80156C60</title>
<g id="a_node6"><a xlink:href="ric.func_80156C60.svg" xlink:title="ric.func_80156C60">
<ellipse fill="green" stroke="black" cx="890.44" cy="-18" rx="98.28" ry="18"/>
<text text-anchor="middle" x="890.44" y="-14.3" font-family="Times,serif" font-size="14.00">ric.func_80156C60</text>
</a>
</g>
</g>
<!-- ric.func_801719A4&#45;&gt;ric.func_80156C60 -->
<g id="edge5" class="edge">
<title>ric.func_801719A4&#45;&gt;ric.func_80156C60</title>
<path fill="none" stroke="black" d="M809.07,-179.93C824.86,-148.7 858.5,-82.17 877.2,-45.18"/>
<polygon fill="black" stroke="black" points="880.45,-46.52 881.84,-36.02 874.2,-43.36 880.45,-46.52"/>
<text text-anchor="middle" x="876.84" y="-39.82" font-family="Times,serif" font-size="14.00">1</text>
</g>
<!-- rsin -->
<g id="node7" class="node">
<title>rsin</title>
<g id="a_node7"><a xlink:href="rsin.svg" xlink:title="rsin">
<ellipse fill="lightblue" stroke="black" cx="1035.44" cy="-18" rx="28.7" ry="18"/>
<text text-anchor="middle" x="1035.44" y="-14.3" font-family="Times,serif" font-size="14.00">rsin</text>
</a>
</g>
</g>
<!-- ric.func_801719A4&#45;&gt;rsin -->
<g id="edge6" class="edge">
<title>ric.func_801719A4&#45;&gt;rsin</title>
<path fill="none" stroke="black" d="M822.55,-180.25C866.22,-147.18 963.33,-73.62 1009.75,-38.46"/>
<polygon fill="black" stroke="black" points="1011.95,-41.18 1017.81,-32.36 1007.72,-35.6 1011.95,-41.18"/>
<text text-anchor="middle" x="1012.81" y="-36.16" font-family="Times,serif" font-size="14.00">2</text>
</g>
<!-- rcos -->
<g id="node8" class="node">
<title>rcos</title>
<g id="a_node8"><a xlink:href="rcos.svg" xlink:title="rcos">
<ellipse fill="lightblue" stroke="black" cx="1112.44" cy="-18" rx="30.59" ry="18"/>
<text text-anchor="middle" x="1112.44" y="-14.3" font-family="Times,serif" font-size="14.00">rcos</text>
</a>
</g>
</g>
<!-- ric.func_801719A4&#45;&gt;rcos -->
<g id="edge7" class="edge">
<title>ric.func_801719A4&#45;&gt;rcos</title>
<path fill="none" stroke="black" d="M828.96,-180.73C887.79,-147.17 1022.14,-70.52 1082.32,-36.19"/>
<polygon fill="black" stroke="black" points="1084.36,-39.05 1091.32,-31.05 1080.9,-32.97 1084.36,-39.05"/>
<text text-anchor="middle" x="1086.32" y="-34.85" font-family="Times,serif" font-size="14.00">2</text>
</g>
<!-- rand -->
<g id="node9" class="node">
<title>rand</title>
<g id="a_node9"><a xlink:href="rand.svg" xlink:title="rand">
<ellipse fill="lightblue" stroke="black" cx="1193.44" cy="-18" rx="32.49" ry="18"/>
<text text-anchor="middle" x="1193.44" y="-14.3" font-family="Times,serif" font-size="14.00">rand</text>
</a>
</g>
</g>
<!-- ric.func_801719A4&#45;&gt;rand -->
<g id="edge8" class="edge">
<title>ric.func_801719A4&#45;&gt;rand</title>
<path fill="none" stroke="black" d="M835.66,-181.05C910.85,-146.99 1086.2,-67.57 1159.88,-34.2"/>
<polygon fill="black" stroke="black" points="1161.51,-37.31 1169.17,-29.99 1158.62,-30.93 1161.51,-37.31"/>
<text text-anchor="middle" x="1164.17" y="-33.79" font-family="Times,serif" font-size="14.00">4</text>
</g>
</g>
</svg>
