<?xml version="1.0" encoding="UTF-8" standalone="no"?>
<!DOCTYPE svg PUBLIC "-//W3C//DTD SVG 1.1//EN"
 "http://www.w3.org/Graphics/SVG/1.1/DTD/svg11.dtd">
<!-- Generated by graphviz version 2.43.0 (0)
 -->
<!-- Title: ric.func_8017328C Pages: 1 -->
<svg width="1413pt" height="224pt"
 viewBox="0.00 0.00 1413.23 224.00" xmlns="http://www.w3.org/2000/svg" xmlns:xlink="http://www.w3.org/1999/xlink">
<g id="graph0" class="graph" transform="scale(1 1) rotate(0) translate(4 220)">
<title>ric.func_8017328C</title>
<polygon fill="white" stroke="transparent" points="-4,4 -4,-220 1409.23,-220 1409.23,4 -4,4"/>
<!-- ric.func_8017328C -->
<g id="node1" class="node">
<title>ric.func_8017328C</title>
<ellipse fill="red" stroke="black" cx="830.99" cy="-198" rx="98.28" ry="18"/>
<text text-anchor="middle" x="830.99" y="-194.3" font-family="Times,serif" font-size="14.00">ric.func_8017328C</text>
</g>
<!-- dra.func_800EDB58 -->
<g id="node2" class="node">
<title>dra.func_800EDB58</title>
<g id="a_node2"><a xlink:href="dra.func_800EDB58.svg" xlink:title="dra.func_800EDB58">
<ellipse fill="green" stroke="black" cx="103.99" cy="-18" rx="103.98" ry="18"/>
<text text-anchor="middle" x="103.99" y="-14.3" font-family="Times,serif" font-size="14.00">dra.func_800EDB58</text>
</a>
</g>
</g>
<!-- ric.func_8017328C&#45;&gt;dra.func_800EDB58 -->
<g id="edge1" class="edge">
<title>ric.func_8017328C&#45;&gt;dra.func_800EDB58</title>
<path fill="none" stroke="black" d="M774.55,-183.18C642.44,-150.83 313.56,-70.31 171.31,-35.48"/>
<polygon fill="black" stroke="black" points="171.95,-32.04 161.4,-33.06 170.28,-38.83 171.95,-32.04"/>
<text text-anchor="middle" x="156.4" y="-36.86" font-family="Times,serif" font-size="14.00">1</text>
</g>
<!-- ric.func_8015FAB8 -->
<g id="node3" class="node">
<title>ric.func_8015FAB8</title>
<g id="a_node3"><a xlink:href="ric.func_8015FAB8.svg" xlink:title="ric.func_8015FAB8">
<ellipse fill="green" stroke="black" cx="323.99" cy="-18" rx="98.28" ry="18"/>
<text text-anchor="middle" x="323.99" y="-14.3" font-family="Times,serif" font-size="14.00">ric.func_8015FAB8</text>
</a>
</g>
</g>
<!-- ric.func_8017328C&#45;&gt;ric.func_8015FAB8 -->
<g id="edge2" class="edge">
<title>ric.func_8017328C&#45;&gt;ric.func_8015FAB8</title>
<path fill="none" stroke="black" d="M787.76,-181.82C695.18,-149.32 477.97,-73.06 377.14,-37.66"/>
<polygon fill="black" stroke="black" points="378.06,-34.27 367.47,-34.26 375.74,-40.88 378.06,-34.27"/>
<text text-anchor="middle" x="362.47" y="-38.06" font-family="Times,serif" font-size="14.00">1</text>
</g>
<!-- dra.PlaySfx -->
<g id="node4" class="node">
<title>dra.PlaySfx</title>
<g id="a_node4"><a xlink:href="dra.PlaySfx.svg" xlink:title="dra.PlaySfx">
<ellipse fill="green" stroke="black" cx="503.99" cy="-18" rx="64.19" ry="18"/>
<text text-anchor="middle" x="503.99" y="-14.3" font-family="Times,serif" font-size="14.00">dra.PlaySfx</text>
</a>
</g>
</g>
<!-- ric.func_8017328C&#45;&gt;dra.PlaySfx -->
<g id="edge3" class="edge">
<title>ric.func_8017328C&#45;&gt;dra.PlaySfx</title>
<path fill="none" stroke="black" d="M801.1,-180.73C741.3,-148.18 607.01,-75.08 541.45,-39.39"/>
<polygon fill="black" stroke="black" points="542.74,-36.11 532.29,-34.4 539.4,-42.26 542.74,-36.11"/>
<text text-anchor="middle" x="527.29" y="-38.2" font-family="Times,serif" font-size="14.00">1</text>
</g>
<!-- ric.func_80156C60 -->
<g id="node5" class="node">
<title>ric.func_80156C60</title>
<g id="a_node5"><a xlink:href="ric.func_80156C60.svg" xlink:title="ric.func_80156C60">
<ellipse fill="green" stroke="black" cx="683.99" cy="-18" rx="98.28" ry="18"/>
<text text-anchor="middle" x="683.99" y="-14.3" font-family="Times,serif" font-size="14.00">ric.func_80156C60</text>
</a>
</g>
</g>
<!-- ric.func_8017328C&#45;&gt;ric.func_80156C60 -->
<g id="edge4" class="edge">
<title>ric.func_8017328C&#45;&gt;ric.func_80156C60</title>
<path fill="none" stroke="black" d="M816.9,-179.93C790.77,-148.3 734.75,-80.46 704.45,-43.78"/>
<polygon fill="black" stroke="black" points="707.11,-41.5 698.04,-36.02 701.71,-45.95 707.11,-41.5"/>
<text text-anchor="middle" x="693.04" y="-39.82" font-family="Times,serif" font-size="14.00">1</text>
</g>
<!-- rcos -->
<g id="node6" class="node">
<title>rcos</title>
<g id="a_node6"><a xlink:href="rcos.svg" xlink:title="rcos">
<ellipse fill="lightblue" stroke="black" cx="830.99" cy="-18" rx="30.59" ry="18"/>
<text text-anchor="middle" x="830.99" y="-14.3" font-family="Times,serif" font-size="14.00">rcos</text>
</a>
</g>
</g>
<!-- ric.func_8017328C&#45;&gt;rcos -->
<g id="edge5" class="edge">
<title>ric.func_8017328C&#45;&gt;rcos</title>
<path fill="none" stroke="black" d="M830.99,-179.93C830.99,-148.97 830.99,-83.3 830.99,-46.13"/>
<polygon fill="black" stroke="black" points="834.49,-46.02 830.99,-36.02 827.49,-46.02 834.49,-46.02"/>
<text text-anchor="middle" x="825.99" y="-39.82" font-family="Times,serif" font-size="14.00">1</text>
</g>
<!-- rsin -->
<g id="node7" class="node">
<title>rsin</title>
<g id="a_node7"><a xlink:href="rsin.svg" xlink:title="rsin">
<ellipse fill="lightblue" stroke="black" cx="907.99" cy="-18" rx="28.7" ry="18"/>
<text text-anchor="middle" x="907.99" y="-14.3" font-family="Times,serif" font-size="14.00">rsin</text>
</a>
</g>
</g>
<!-- ric.func_8017328C&#45;&gt;rsin -->
<g id="edge6" class="edge">
<title>ric.func_8017328C&#45;&gt;rsin</title>
<path fill="none" stroke="black" d="M838.37,-179.93C851.9,-148.67 880.71,-82.06 896.71,-45.09"/>
<polygon fill="black" stroke="black" points="900.1,-46.07 900.85,-35.5 893.67,-43.29 900.1,-46.07"/>
<text text-anchor="middle" x="895.85" y="-39.3" font-family="Times,serif" font-size="14.00">1</text>
</g>
<!-- SetGeomOffset -->
<g id="node8" class="node">
<title>SetGeomOffset</title>
<g id="a_node8"><a xlink:href="SetGeomOffset.svg" xlink:title="SetGeomOffset">
<ellipse fill="lightblue" stroke="black" cx="1035.99" cy="-18" rx="81.49" ry="18"/>
<text text-anchor="middle" x="1035.99" y="-14.3" font-family="Times,serif" font-size="14.00">SetGeomOffset</text>
</a>
</g>
</g>
<!-- ric.func_8017328C&#45;&gt;SetGeomOffset -->
<g id="edge7" class="edge">
<title>ric.func_8017328C&#45;&gt;SetGeomOffset</title>
<path fill="none" stroke="black" d="M850.28,-180.25C887.08,-148.3 967.37,-78.58 1009.3,-42.18"/>
<polygon fill="black" stroke="black" points="1011.65,-44.77 1016.91,-35.57 1007.06,-39.49 1011.65,-44.77"/>
<text text-anchor="middle" x="1011.91" y="-39.37" font-family="Times,serif" font-size="14.00">1</text>
</g>
<!-- RotMatrix -->
<g id="node9" class="node">
<title>RotMatrix</title>
<g id="a_node9"><a xlink:href="RotMatrix.svg" xlink:title="RotMatrix">
<ellipse fill="lightblue" stroke="black" cx="1192.99" cy="-18" rx="57.69" ry="18"/>
<text text-anchor="middle" x="1192.99" y="-14.3" font-family="Times,serif" font-size="14.00">RotMatrix</text>
</a>
</g>
</g>
<!-- ric.func_8017328C&#45;&gt;RotMatrix -->
<g id="edge8" class="edge">
<title>ric.func_8017328C&#45;&gt;RotMatrix</title>
<path fill="none" stroke="black" d="M863.75,-180.89C930.63,-148.01 1082.56,-73.3 1154.22,-38.07"/>
<polygon fill="black" stroke="black" points="1155.94,-41.12 1163.37,-33.57 1152.85,-34.84 1155.94,-41.12"/>
<text text-anchor="middle" x="1158.37" y="-37.37" font-family="Times,serif" font-size="14.00">1</text>
</g>
<!-- TransMatrix -->
<g id="node10" class="node">
<title>TransMatrix</title>
<g id="a_node10"><a xlink:href="TransMatrix.svg" xlink:title="TransMatrix">
<ellipse fill="lightblue" stroke="black" cx="1336.99" cy="-18" rx="68.49" ry="18"/>
<text text-anchor="middle" x="1336.99" y="-14.3" font-family="Times,serif" font-size="14.00">TransMatrix</text>
</a>
</g>
</g>
<!-- ric.func_8017328C&#45;&gt;TransMatrix -->
<g id="edge9" class="edge">
<title>ric.func_8017328C&#45;&gt;TransMatrix</title>
<path fill="none" stroke="black" d="M874.13,-181.82C967.83,-148.86 1189.41,-70.92 1288.1,-36.2"/>
<polygon fill="black" stroke="black" points="1289.55,-39.4 1297.82,-32.78 1287.23,-32.8 1289.55,-39.4"/>
<text text-anchor="middle" x="1292.82" y="-36.58" font-family="Times,serif" font-size="14.00">1</text>
</g>
</g>
</svg>
