<?xml version="1.0" encoding="UTF-8" standalone="no"?>
<!DOCTYPE svg PUBLIC "-//W3C//DTD SVG 1.1//EN"
 "http://www.w3.org/Graphics/SVG/1.1/DTD/svg11.dtd">
<!-- Generated by graphviz version 2.43.0 (0)
 -->
<!-- Title: ric.func_801572A8 Pages: 1 -->
<svg width="1292pt" height="218pt"
 viewBox="0.00 0.00 1292.38 218.00" xmlns="http://www.w3.org/2000/svg" xmlns:xlink="http://www.w3.org/1999/xlink">
<g id="graph0" class="graph" transform="scale(1 1) rotate(0) translate(4 214)">
<title>ric.func_801572A8</title>
<polygon fill="white" stroke="transparent" points="-4,4 -4,-214 1288.38,-214 1288.38,4 -4,4"/>
<!-- ric.func_801572A8 -->
<g id="node1" class="node">
<title>ric.func_801572A8</title>
<ellipse fill="red" stroke="black" cx="652.89" cy="-105" rx="97.48" ry="18"/>
<text text-anchor="middle" x="652.89" y="-101.3" font-family="Times,serif" font-size="14.00">ric.func_801572A8</text>
</g>
<!-- g_api_CheckCollision -->
<g id="node2" class="node">
<title>g_api_CheckCollision</title>
<g id="a_node2"><a xlink:href="g_api_CheckCollision.svg" xlink:title="g_api_CheckCollision">
<ellipse fill="lightblue" stroke="black" cx="107.89" cy="-18" rx="107.78" ry="18"/>
<text text-anchor="middle" x="107.89" y="-14.3" font-family="Times,serif" font-size="14.00">g_api_CheckCollision</text>
</a>
</g>
</g>
<!-- ric.func_801572A8&#45;&gt;g_api_CheckCollision -->
<g id="edge1" class="edge">
<title>ric.func_801572A8&#45;&gt;g_api_CheckCollision</title>
<path fill="none" stroke="black" d="M581.08,-92.8C481.26,-77.23 300.8,-49.09 193.91,-32.42"/>
<polygon fill="black" stroke="black" points="194.23,-28.92 183.81,-30.84 193.15,-35.84 194.23,-28.92"/>
<text text-anchor="middle" x="418.89" y="-57.8" font-family="Times,serif" font-size="14.00">2</text>
</g>
<!-- ric.func_8015E800 -->
<g id="node3" class="node">
<title>ric.func_8015E800</title>
<g id="a_node3"><a xlink:href="ric.func_8015E800.svg" xlink:title="ric.func_8015E800">
<ellipse fill="red" stroke="black" cx="331.89" cy="-18" rx="98.28" ry="18"/>
<text text-anchor="middle" x="331.89" y="-14.3" font-family="Times,serif" font-size="14.00">ric.func_8015E800</text>
</a>
</g>
</g>
<!-- ric.func_801572A8&#45;&gt;ric.func_8015E800 -->
<g id="edge2" class="edge">
<title>ric.func_801572A8&#45;&gt;ric.func_8015E800</title>
<path fill="none" stroke="black" d="M599.52,-89.87C543.29,-74.98 454.76,-51.54 395.07,-35.73"/>
<polygon fill="black" stroke="black" points="395.95,-32.34 385.38,-33.17 394.16,-39.11 395.95,-32.34"/>
<text text-anchor="middle" x="516.89" y="-57.8" font-family="Times,serif" font-size="14.00">1</text>
</g>
<!-- dra.CheckCollision -->
<g id="node4" class="node">
<title>dra.CheckCollision</title>
<g id="a_node4"><a xlink:href="dra.CheckCollision.svg" xlink:title="dra.CheckCollision">
<ellipse fill="green" stroke="black" cx="545.89" cy="-18" rx="97.48" ry="18"/>
<text text-anchor="middle" x="545.89" y="-14.3" font-family="Times,serif" font-size="14.00">dra.CheckCollision</text>
</a>
</g>
</g>
<!-- ric.func_801572A8&#45;&gt;dra.CheckCollision -->
<g id="edge3" class="edge">
<title>ric.func_801572A8&#45;&gt;dra.CheckCollision</title>
<path fill="none" stroke="black" d="M632.01,-87.41C615.76,-74.51 593.03,-56.45 575,-42.13"/>
<polygon fill="black" stroke="black" points="577.1,-39.32 567.09,-35.84 572.74,-44.8 577.1,-39.32"/>
<text text-anchor="middle" x="610.89" y="-57.8" font-family="Times,serif" font-size="14.00">2</text>
</g>
<!-- ric.func_8015EE28 -->
<g id="node5" class="node">
<title>ric.func_8015EE28</title>
<g id="a_node5"><a xlink:href="ric.func_8015EE28.svg" xlink:title="ric.func_8015EE28">
<ellipse fill="red" stroke="black" cx="759.89" cy="-18" rx="98.58" ry="18"/>
<text text-anchor="middle" x="759.89" y="-14.3" font-family="Times,serif" font-size="14.00">ric.func_8015EE28</text>
</a>
</g>
</g>
<!-- ric.func_801572A8&#45;&gt;ric.func_8015EE28 -->
<g id="edge4" class="edge">
<title>ric.func_801572A8&#45;&gt;ric.func_8015EE28</title>
<path fill="none" stroke="black" d="M673.78,-87.41C690.02,-74.51 712.75,-56.45 730.78,-42.13"/>
<polygon fill="black" stroke="black" points="733.04,-44.8 738.69,-35.84 728.69,-39.32 733.04,-44.8"/>
<text text-anchor="middle" x="717.89" y="-57.8" font-family="Times,serif" font-size="14.00">1</text>
</g>
<!-- ric.func_8015F414 -->
<g id="node6" class="node">
<title>ric.func_8015F414</title>
<g id="a_node6"><a xlink:href="ric.func_8015F414.svg" xlink:title="ric.func_8015F414">
<ellipse fill="red" stroke="black" cx="973.89" cy="-18" rx="97.48" ry="18"/>
<text text-anchor="middle" x="973.89" y="-14.3" font-family="Times,serif" font-size="14.00">ric.func_8015F414</text>
</a>
</g>
</g>
<!-- ric.func_801572A8&#45;&gt;ric.func_8015F414 -->
<g id="edge5" class="edge">
<title>ric.func_801572A8&#45;&gt;ric.func_8015F414</title>
<path fill="none" stroke="black" d="M706.26,-89.87C762.58,-74.96 851.29,-51.47 910.98,-35.66"/>
<polygon fill="black" stroke="black" points="911.89,-39.04 920.66,-33.09 910.1,-32.27 911.89,-39.04"/>
<text text-anchor="middle" x="836.89" y="-57.8" font-family="Times,serif" font-size="14.00">1</text>
</g>
<!-- ric.func_8015F680 -->
<g id="node7" class="node">
<title>ric.func_8015F680</title>
<g id="a_node7"><a xlink:href="ric.func_8015F680.svg" xlink:title="ric.func_8015F680">
<ellipse fill="red" stroke="black" cx="1186.89" cy="-18" rx="97.48" ry="18"/>
<text text-anchor="middle" x="1186.89" y="-14.3" font-family="Times,serif" font-size="14.00">ric.func_8015F680</text>
</a>
</g>
</g>
<!-- ric.func_801572A8&#45;&gt;ric.func_8015F680 -->
<g id="edge6" class="edge">
<title>ric.func_801572A8&#45;&gt;ric.func_8015F680</title>
<path fill="none" stroke="black" d="M724.08,-92.67C823.01,-76.92 1001.6,-48.49 1105.63,-31.93"/>
<polygon fill="black" stroke="black" points="1106.44,-35.35 1115.77,-30.32 1105.34,-28.44 1106.44,-35.35"/>
<text text-anchor="middle" x="955.89" y="-57.8" font-family="Times,serif" font-size="14.00">1</text>
</g>
<!-- ric.UpdateEntityRichter -->
<g id="node8" class="node">
<title>ric.UpdateEntityRichter</title>
<g id="a_node8"><a xlink:href="ric.UpdateEntityRichter.svg" xlink:title="ric.UpdateEntityRichter">
<ellipse fill="red" stroke="black" cx="652.89" cy="-192" rx="122.68" ry="18"/>
<text text-anchor="middle" x="652.89" y="-188.3" font-family="Times,serif" font-size="14.00">ric.UpdateEntityRichter</text>
</a>
</g>
</g>
<!-- ric.UpdateEntityRichter&#45;&gt;ric.func_801572A8 -->
<g id="edge7" class="edge">
<title>ric.UpdateEntityRichter&#45;&gt;ric.func_801572A8</title>
<path fill="none" stroke="black" d="M652.89,-173.8C652.89,-162.16 652.89,-146.55 652.89,-133.24"/>
<polygon fill="black" stroke="black" points="656.39,-133.18 652.89,-123.18 649.39,-133.18 656.39,-133.18"/>
<text text-anchor="middle" x="657.89" y="-144.8" font-family="Times,serif" font-size="14.00">5</text>
</g>
</g>
</svg>
