<?xml version="1.0" encoding="UTF-8" standalone="no"?>
<!DOCTYPE svg PUBLIC "-//W3C//DTD SVG 1.1//EN"
 "http://www.w3.org/Graphics/SVG/1.1/DTD/svg11.dtd">
<!-- Generated by graphviz version 2.43.0 (0)
 -->
<!-- Title: ric.func_801684D8 Pages: 1 -->
<svg width="1670pt" height="131pt"
 viewBox="0.00 0.00 1669.64 131.00" xmlns="http://www.w3.org/2000/svg" xmlns:xlink="http://www.w3.org/1999/xlink">
<g id="graph0" class="graph" transform="scale(1 1) rotate(0) translate(4 127)">
<title>ric.func_801684D8</title>
<polygon fill="white" stroke="transparent" points="-4,4 -4,-127 1665.64,-127 1665.64,4 -4,4"/>
<!-- ric.func_801684D8 -->
<g id="node1" class="node">
<title>ric.func_801684D8</title>
<ellipse fill="red" stroke="black" cx="656.5" cy="-105" rx="98.58" ry="18"/>
<text text-anchor="middle" x="656.5" y="-101.3" font-family="Times,serif" font-size="14.00">ric.func_801684D8</text>
</g>
<!-- rand -->
<g id="node2" class="node">
<title>rand</title>
<g id="a_node2"><a xlink:href="rand.svg" xlink:title="rand">
<ellipse fill="lightblue" stroke="black" cx="32.5" cy="-18" rx="32.49" ry="18"/>
<text text-anchor="middle" x="32.5" y="-14.3" font-family="Times,serif" font-size="14.00">rand</text>
</a>
</g>
</g>
<!-- ric.func_801684D8&#45;&gt;rand -->
<g id="edge1" class="edge">
<title>ric.func_801684D8&#45;&gt;rand</title>
<path fill="none" stroke="black" d="M559.16,-101.76C465.81,-98.4 321.2,-89.99 197.5,-69 141.27,-59.46 127.51,-54.3 73.5,-36 71.36,-35.28 69.18,-34.5 66.99,-33.68"/>
<polygon fill="black" stroke="black" points="68.04,-30.33 57.45,-29.96 65.49,-36.86 68.04,-30.33"/>
<text text-anchor="middle" x="202.5" y="-57.8" font-family="Times,serif" font-size="14.00">2</text>
</g>
<!-- rcos -->
<g id="node3" class="node">
<title>rcos</title>
<g id="a_node3"><a xlink:href="rcos.svg" xlink:title="rcos">
<ellipse fill="lightblue" stroke="black" cx="113.5" cy="-18" rx="30.59" ry="18"/>
<text text-anchor="middle" x="113.5" y="-14.3" font-family="Times,serif" font-size="14.00">rcos</text>
</a>
</g>
</g>
<!-- ric.func_801684D8&#45;&gt;rcos -->
<g id="edge2" class="edge">
<title>ric.func_801684D8&#45;&gt;rcos</title>
<path fill="none" stroke="black" d="M562.85,-99.2C487.1,-94.36 377.89,-85.22 283.5,-69 224.32,-58.83 209.32,-55.39 152.5,-36 150.4,-35.28 148.25,-34.5 146.1,-33.68"/>
<polygon fill="black" stroke="black" points="147.34,-30.4 136.76,-29.88 144.71,-36.89 147.34,-30.4"/>
<text text-anchor="middle" x="288.5" y="-57.8" font-family="Times,serif" font-size="14.00">1</text>
</g>
<!-- rsin -->
<g id="node4" class="node">
<title>rsin</title>
<g id="a_node4"><a xlink:href="rsin.svg" xlink:title="rsin">
<ellipse fill="lightblue" stroke="black" cx="190.5" cy="-18" rx="28.7" ry="18"/>
<text text-anchor="middle" x="190.5" y="-14.3" font-family="Times,serif" font-size="14.00">rsin</text>
</a>
</g>
</g>
<!-- ric.func_801684D8&#45;&gt;rsin -->
<g id="edge3" class="edge">
<title>ric.func_801684D8&#45;&gt;rsin</title>
<path fill="none" stroke="black" d="M568.11,-96.8C480.49,-88.08 343.16,-70.11 228.5,-36 226.22,-35.32 223.9,-34.54 221.58,-33.68"/>
<polygon fill="black" stroke="black" points="222.81,-30.41 212.23,-29.9 220.18,-36.89 222.81,-30.41"/>
<text text-anchor="middle" x="372.5" y="-57.8" font-family="Times,serif" font-size="14.00">1</text>
</g>
<!-- ric.func_8015FAB8 -->
<g id="node5" class="node">
<title>ric.func_8015FAB8</title>
<g id="a_node5"><a xlink:href="ric.func_8015FAB8.svg" xlink:title="ric.func_8015FAB8">
<ellipse fill="green" stroke="black" cx="335.5" cy="-18" rx="98.28" ry="18"/>
<text text-anchor="middle" x="335.5" y="-14.3" font-family="Times,serif" font-size="14.00">ric.func_8015FAB8</text>
</a>
</g>
</g>
<!-- ric.func_801684D8&#45;&gt;ric.func_8015FAB8 -->
<g id="edge4" class="edge">
<title>ric.func_801684D8&#45;&gt;ric.func_8015FAB8</title>
<path fill="none" stroke="black" d="M602.77,-89.77C546.47,-74.87 458.09,-51.46 398.53,-35.69"/>
<polygon fill="black" stroke="black" points="399.43,-32.31 388.87,-33.13 397.64,-39.08 399.43,-32.31"/>
<text text-anchor="middle" x="520.5" y="-57.8" font-family="Times,serif" font-size="14.00">1</text>
</g>
<!-- ric.func_801682B4 -->
<g id="node6" class="node">
<title>ric.func_801682B4</title>
<g id="a_node6"><a xlink:href="ric.func_801682B4.svg" xlink:title="ric.func_801682B4">
<ellipse fill="red" stroke="black" cx="549.5" cy="-18" rx="98.28" ry="18"/>
<text text-anchor="middle" x="549.5" y="-14.3" font-family="Times,serif" font-size="14.00">ric.func_801682B4</text>
</a>
</g>
</g>
<!-- ric.func_801684D8&#45;&gt;ric.func_801682B4 -->
<g id="edge5" class="edge">
<title>ric.func_801684D8&#45;&gt;ric.func_801682B4</title>
<path fill="none" stroke="black" d="M635.36,-87.21C619.09,-74.28 596.43,-56.28 578.47,-42.02"/>
<polygon fill="black" stroke="black" points="580.6,-39.24 570.59,-35.76 576.25,-44.72 580.6,-39.24"/>
<text text-anchor="middle" x="614.5" y="-57.8" font-family="Times,serif" font-size="14.00">3</text>
</g>
<!-- ric.func_8016840C -->
<g id="node7" class="node">
<title>ric.func_8016840C</title>
<g id="a_node7"><a xlink:href="ric.func_8016840C.svg" xlink:title="ric.func_8016840C">
<ellipse fill="green" stroke="black" cx="763.5" cy="-18" rx="98.28" ry="18"/>
<text text-anchor="middle" x="763.5" y="-14.3" font-family="Times,serif" font-size="14.00">ric.func_8016840C</text>
</a>
</g>
</g>
<!-- ric.func_801684D8&#45;&gt;ric.func_8016840C -->
<g id="edge6" class="edge">
<title>ric.func_801684D8&#45;&gt;ric.func_8016840C</title>
<path fill="none" stroke="black" d="M677.64,-87.21C693.9,-74.28 716.56,-56.28 734.52,-42.02"/>
<polygon fill="black" stroke="black" points="736.75,-44.72 742.4,-35.76 732.39,-39.24 736.75,-44.72"/>
<text text-anchor="middle" x="721.5" y="-57.8" font-family="Times,serif" font-size="14.00">3</text>
</g>
<!-- dra.func_8011AAFC -->
<g id="node8" class="node">
<title>dra.func_8011AAFC</title>
<g id="a_node8"><a xlink:href="dra.func_8011AAFC.svg" xlink:title="dra.func_8011AAFC">
<ellipse fill="green" stroke="black" cx="982.5" cy="-18" rx="102.88" ry="18"/>
<text text-anchor="middle" x="982.5" y="-14.3" font-family="Times,serif" font-size="14.00">dra.func_8011AAFC</text>
</a>
</g>
</g>
<!-- ric.func_801684D8&#45;&gt;dra.func_8011AAFC -->
<g id="edge7" class="edge">
<title>ric.func_801684D8&#45;&gt;dra.func_8011AAFC</title>
<path fill="none" stroke="black" d="M710.7,-89.87C767.64,-75.02 857.17,-51.68 917.78,-35.87"/>
<polygon fill="black" stroke="black" points="918.83,-39.22 927.62,-33.31 917.07,-32.44 918.83,-39.22"/>
<text text-anchor="middle" x="844.5" y="-57.8" font-family="Times,serif" font-size="14.00">1</text>
</g>
<!-- dra.PlaySfx -->
<g id="node9" class="node">
<title>dra.PlaySfx</title>
<g id="a_node9"><a xlink:href="dra.PlaySfx.svg" xlink:title="dra.PlaySfx">
<ellipse fill="green" stroke="black" cx="1167.5" cy="-18" rx="64.19" ry="18"/>
<text text-anchor="middle" x="1167.5" y="-14.3" font-family="Times,serif" font-size="14.00">dra.PlaySfx</text>
</a>
</g>
</g>
<!-- ric.func_801684D8&#45;&gt;dra.PlaySfx -->
<g id="edge8" class="edge">
<title>ric.func_801684D8&#45;&gt;dra.PlaySfx</title>
<path fill="none" stroke="black" d="M733.94,-93.76C821.71,-81.74 968.9,-60.34 1094.5,-36 1099.77,-34.98 1105.23,-33.85 1110.7,-32.66"/>
<polygon fill="black" stroke="black" points="1111.48,-36.07 1120.48,-30.49 1109.96,-29.24 1111.48,-36.07"/>
<text text-anchor="middle" x="992.5" y="-57.8" font-family="Times,serif" font-size="14.00">1</text>
</g>
<!-- ric.func_801606BC -->
<g id="node10" class="node">
<title>ric.func_801606BC</title>
<g id="a_node10"><a xlink:href="ric.func_801606BC.svg" xlink:title="ric.func_801606BC">
<ellipse fill="green" stroke="black" cx="1348.5" cy="-18" rx="98.58" ry="18"/>
<text text-anchor="middle" x="1348.5" y="-14.3" font-family="Times,serif" font-size="14.00">ric.func_801606BC</text>
</a>
</g>
</g>
<!-- ric.func_801684D8&#45;&gt;ric.func_801606BC -->
<g id="edge9" class="edge">
<title>ric.func_801684D8&#45;&gt;ric.func_801606BC</title>
<path fill="none" stroke="black" d="M742.72,-96.12C812.57,-89.53 913.48,-79.54 1001.5,-69 1107.97,-56.25 1134.42,-51.67 1240.5,-36 1249.09,-34.73 1258.07,-33.37 1267.01,-32"/>
<polygon fill="black" stroke="black" points="1267.72,-35.43 1277.07,-30.44 1266.65,-28.51 1267.72,-35.43"/>
<text text-anchor="middle" x="1122.5" y="-57.8" font-family="Times,serif" font-size="14.00">2</text>
</g>
<!-- ric.func_80156C60 -->
<g id="node11" class="node">
<title>ric.func_80156C60</title>
<g id="a_node11"><a xlink:href="ric.func_80156C60.svg" xlink:title="ric.func_80156C60">
<ellipse fill="green" stroke="black" cx="1563.5" cy="-18" rx="98.28" ry="18"/>
<text text-anchor="middle" x="1563.5" y="-14.3" font-family="Times,serif" font-size="14.00">ric.func_80156C60</text>
</a>
</g>
</g>
<!-- ric.func_801684D8&#45;&gt;ric.func_80156C60 -->
<g id="edge10" class="edge">
<title>ric.func_801684D8&#45;&gt;ric.func_80156C60</title>
<path fill="none" stroke="black" d="M749.48,-98.8C898.92,-89.83 1201.65,-69.16 1456.5,-36 1465.33,-34.85 1474.56,-33.54 1483.74,-32.18"/>
<polygon fill="black" stroke="black" points="1484.28,-35.64 1493.65,-30.68 1483.24,-28.71 1484.28,-35.64"/>
<text text-anchor="middle" x="1287.5" y="-57.8" font-family="Times,serif" font-size="14.00">1</text>
</g>
</g>
</svg>
