<?xml version="1.0" encoding="UTF-8" standalone="no"?>
<!DOCTYPE svg PUBLIC "-//W3C//DTD SVG 1.1//EN"
 "http://www.w3.org/Graphics/SVG/1.1/DTD/svg11.dtd">
<!-- Generated by graphviz version 2.43.0 (0)
 -->
<!-- Title: ric.func_801719A4 Pages: 1 -->
<svg width="1234pt" height="131pt"
 viewBox="0.00 0.00 1233.94 131.00" xmlns="http://www.w3.org/2000/svg" xmlns:xlink="http://www.w3.org/1999/xlink">
<g id="graph0" class="graph" transform="scale(1 1) rotate(0) translate(4 127)">
<title>ric.func_801719A4</title>
<polygon fill="white" stroke="transparent" points="-4,4 -4,-127 1229.94,-127 1229.94,4 -4,4"/>
<!-- ric.func_801719A4 -->
<g id="node1" class="node">
<title>ric.func_801719A4</title>
<ellipse fill="red" stroke="black" cx="800.44" cy="-105" rx="97.48" ry="18"/>
<text text-anchor="middle" x="800.44" y="-101.3" font-family="Times,serif" font-size="14.00">ric.func_801719A4</text>
</g>
<!-- dra.AllocPrimitives -->
<g id="node2" class="node">
<title>dra.AllocPrimitives</title>
<g id="a_node2"><a xlink:href="dra.AllocPrimitives.svg" xlink:title="dra.AllocPrimitives">
<ellipse fill="green" stroke="black" cx="99.44" cy="-18" rx="99.38" ry="18"/>
<text text-anchor="middle" x="99.44" y="-14.3" font-family="Times,serif" font-size="14.00">dra.AllocPrimitives</text>
</a>
</g>
</g>
<!-- ric.func_801719A4&#45;&gt;dra.AllocPrimitives -->
<g id="edge1" class="edge">
<title>ric.func_801719A4&#45;&gt;dra.AllocPrimitives</title>
<path fill="none" stroke="black" d="M717.32,-95.58C602.49,-83.69 388.93,-60.68 207.44,-36 198.76,-34.82 189.71,-33.51 180.69,-32.16"/>
<polygon fill="black" stroke="black" points="180.96,-28.66 170.54,-30.63 179.91,-35.59 180.96,-28.66"/>
<text text-anchor="middle" x="472.44" y="-57.8" font-family="Times,serif" font-size="14.00">1</text>
</g>
<!-- ric.func_801606BC -->
<g id="node3" class="node">
<title>ric.func_801606BC</title>
<g id="a_node3"><a xlink:href="ric.func_801606BC.svg" xlink:title="ric.func_801606BC">
<ellipse fill="green" stroke="black" cx="315.44" cy="-18" rx="98.58" ry="18"/>
<text text-anchor="middle" x="315.44" y="-14.3" font-family="Times,serif" font-size="14.00">ric.func_801606BC</text>
</a>
</g>
</g>
<!-- ric.func_801719A4&#45;&gt;ric.func_801606BC -->
<g id="edge2" class="edge">
<title>ric.func_801719A4&#45;&gt;ric.func_801606BC</title>
<path fill="none" stroke="black" d="M732.49,-92.09C643.58,-76.51 488.05,-49.25 394.12,-32.79"/>
<polygon fill="black" stroke="black" points="394.56,-29.31 384.1,-31.03 393.35,-36.21 394.56,-29.31"/>
<text text-anchor="middle" x="592.44" y="-57.8" font-family="Times,serif" font-size="14.00">4</text>
</g>
<!-- ric.func_8015FAB8 -->
<g id="node4" class="node">
<title>ric.func_8015FAB8</title>
<g id="a_node4"><a xlink:href="ric.func_8015FAB8.svg" xlink:title="ric.func_8015FAB8">
<ellipse fill="green" stroke="black" cx="530.44" cy="-18" rx="98.28" ry="18"/>
<text text-anchor="middle" x="530.44" y="-14.3" font-family="Times,serif" font-size="14.00">ric.func_8015FAB8</text>
</a>
</g>
</g>
<!-- ric.func_801719A4&#45;&gt;ric.func_8015FAB8 -->
<g id="edge3" class="edge">
<title>ric.func_801719A4&#45;&gt;ric.func_8015FAB8</title>
<path fill="none" stroke="black" d="M753.41,-89.19C707.23,-74.66 636.74,-52.46 587.41,-36.93"/>
<polygon fill="black" stroke="black" points="588.43,-33.59 577.84,-33.92 586.33,-40.26 588.43,-33.59"/>
<text text-anchor="middle" x="687.44" y="-57.8" font-family="Times,serif" font-size="14.00">1</text>
</g>
<!-- dra.PlaySfx -->
<g id="node5" class="node">
<title>dra.PlaySfx</title>
<g id="a_node5"><a xlink:href="dra.PlaySfx.svg" xlink:title="dra.PlaySfx">
<ellipse fill="green" stroke="black" cx="710.44" cy="-18" rx="64.19" ry="18"/>
<text text-anchor="middle" x="710.44" y="-14.3" font-family="Times,serif" font-size="14.00">dra.PlaySfx</text>
</a>
</g>
</g>
<!-- ric.func_801719A4&#45;&gt;dra.PlaySfx -->
<g id="edge4" class="edge">
<title>ric.func_801719A4&#45;&gt;dra.PlaySfx</title>
<path fill="none" stroke="black" d="M782.66,-87.21C769.14,-74.43 750.36,-56.7 735.34,-42.52"/>
<polygon fill="black" stroke="black" points="737.55,-39.79 727.88,-35.47 732.75,-44.88 737.55,-39.79"/>
<text text-anchor="middle" x="766.44" y="-57.8" font-family="Times,serif" font-size="14.00">4</text>
</g>
<!-- ric.func_80156C60 -->
<g id="node6" class="node">
<title>ric.func_80156C60</title>
<g id="a_node6"><a xlink:href="ric.func_80156C60.svg" xlink:title="ric.func_80156C60">
<ellipse fill="green" stroke="black" cx="890.44" cy="-18" rx="98.28" ry="18"/>
<text text-anchor="middle" x="890.44" y="-14.3" font-family="Times,serif" font-size="14.00">ric.func_80156C60</text>
</a>
</g>
</g>
<!-- ric.func_801719A4&#45;&gt;ric.func_80156C60 -->
<g id="edge5" class="edge">
<title>ric.func_801719A4&#45;&gt;ric.func_80156C60</title>
<path fill="none" stroke="black" d="M818.22,-87.21C831.66,-74.52 850.28,-56.93 865.25,-42.79"/>
<polygon fill="black" stroke="black" points="867.83,-45.17 872.7,-35.76 863.02,-40.08 867.83,-45.17"/>
<text text-anchor="middle" x="856.44" y="-57.8" font-family="Times,serif" font-size="14.00">1</text>
</g>
<!-- rsin -->
<g id="node7" class="node">
<title>rsin</title>
<g id="a_node7"><a xlink:href="rsin.svg" xlink:title="rsin">
<ellipse fill="lightblue" stroke="black" cx="1035.44" cy="-18" rx="28.7" ry="18"/>
<text text-anchor="middle" x="1035.44" y="-14.3" font-family="Times,serif" font-size="14.00">rsin</text>
</a>
</g>
</g>
<!-- ric.func_801719A4&#45;&gt;rsin -->
<g id="edge6" class="edge">
<title>ric.func_801719A4&#45;&gt;rsin</title>
<path fill="none" stroke="black" d="M847.44,-89.07C887.62,-76 946.8,-56.02 997.44,-36 999.52,-35.18 1001.64,-34.31 1003.78,-33.41"/>
<polygon fill="black" stroke="black" points="1005.28,-36.58 1013.08,-29.4 1002.51,-30.15 1005.28,-36.58"/>
<text text-anchor="middle" x="954.44" y="-57.8" font-family="Times,serif" font-size="14.00">2</text>
</g>
<!-- rcos -->
<g id="node8" class="node">
<title>rcos</title>
<g id="a_node8"><a xlink:href="rcos.svg" xlink:title="rcos">
<ellipse fill="lightblue" stroke="black" cx="1112.44" cy="-18" rx="30.59" ry="18"/>
<text text-anchor="middle" x="1112.44" y="-14.3" font-family="Times,serif" font-size="14.00">rcos</text>
</a>
</g>
</g>
<!-- ric.func_801719A4&#45;&gt;rcos -->
<g id="edge7" class="edge">
<title>ric.func_801719A4&#45;&gt;rcos</title>
<path fill="none" stroke="black" d="M866.43,-91.7C922.47,-80.29 1004.53,-61.25 1073.44,-36 1075.53,-35.24 1077.66,-34.42 1079.8,-33.57"/>
<polygon fill="black" stroke="black" points="1081.22,-36.77 1089.12,-29.71 1078.54,-30.3 1081.22,-36.77"/>
<text text-anchor="middle" x="1020.44" y="-57.8" font-family="Times,serif" font-size="14.00">2</text>
</g>
<!-- rand -->
<g id="node9" class="node">
<title>rand</title>
<g id="a_node9"><a xlink:href="rand.svg" xlink:title="rand">
<ellipse fill="lightblue" stroke="black" cx="1193.44" cy="-18" rx="32.49" ry="18"/>
<text text-anchor="middle" x="1193.44" y="-14.3" font-family="Times,serif" font-size="14.00">rand</text>
</a>
</g>
</g>
<!-- ric.func_801719A4&#45;&gt;rand -->
<g id="edge8" class="edge">
<title>ric.func_801719A4&#45;&gt;rand</title>
<path fill="none" stroke="black" d="M881.04,-94.81C953.45,-85.06 1061.98,-66.74 1152.44,-36 1154.58,-35.27 1156.76,-34.49 1158.95,-33.68"/>
<polygon fill="black" stroke="black" points="1160.44,-36.85 1168.49,-29.96 1157.9,-30.33 1160.44,-36.85"/>
<text text-anchor="middle" x="1092.44" y="-57.8" font-family="Times,serif" font-size="14.00">4</text>
</g>
</g>
</svg>
