<?xml version="1.0" encoding="UTF-8" standalone="no"?>
<!DOCTYPE svg PUBLIC "-//W3C//DTD SVG 1.1//EN"
 "http://www.w3.org/Graphics/SVG/1.1/DTD/svg11.dtd">
<!-- Generated by graphviz version 2.43.0 (0)
 -->
<!-- Title: ric.func_8015FAB8 Pages: 1 -->
<svg width="5361pt" height="218pt"
 viewBox="0.00 0.00 5360.98 218.00" xmlns="http://www.w3.org/2000/svg" xmlns:xlink="http://www.w3.org/1999/xlink">
<g id="graph0" class="graph" transform="scale(1 1) rotate(0) translate(4 214)">
<title>ric.func_8015FAB8</title>
<polygon fill="white" stroke="transparent" points="-4,4 -4,-214 5356.98,-214 5356.98,4 -4,4"/>
<!-- ric.func_8015FAB8 -->
<g id="node1" class="node">
<title>ric.func_8015FAB8</title>
<ellipse fill="green" stroke="black" cx="2669.84" cy="-105" rx="98.28" ry="18"/>
<text text-anchor="middle" x="2669.84" y="-101.3" font-family="Times,serif" font-size="14.00">ric.func_8015FAB8</text>
</g>
<!-- dra.func_800FD664 -->
<g id="node2" class="node">
<title>dra.func_800FD664</title>
<g id="a_node2"><a xlink:href="dra.func_800FD664.svg" xlink:title="dra.func_800FD664">
<ellipse fill="green" stroke="black" cx="2560.84" cy="-18" rx="102.88" ry="18"/>
<text text-anchor="middle" x="2560.84" y="-14.3" font-family="Times,serif" font-size="14.00">dra.func_800FD664</text>
</a>
</g>
</g>
<!-- ric.func_8015FAB8&#45;&gt;dra.func_800FD664 -->
<g id="edge1" class="edge">
<title>ric.func_8015FAB8&#45;&gt;dra.func_800FD664</title>
<path fill="none" stroke="black" d="M2648.57,-87.41C2632.02,-74.51 2608.86,-56.45 2590.5,-42.13"/>
<polygon fill="black" stroke="black" points="2592.47,-39.23 2582.44,-35.84 2588.17,-44.75 2592.47,-39.23"/>
<text text-anchor="middle" x="2627.84" y="-57.8" font-family="Times,serif" font-size="14.00">1</text>
</g>
<!-- ric.func_8015F9F0 -->
<g id="node3" class="node">
<title>ric.func_8015F9F0</title>
<g id="a_node3"><a xlink:href="ric.func_8015F9F0.svg" xlink:title="ric.func_8015F9F0">
<ellipse fill="red" stroke="black" cx="2779.84" cy="-18" rx="98.28" ry="18"/>
<text text-anchor="middle" x="2779.84" y="-14.3" font-family="Times,serif" font-size="14.00">ric.func_8015F9F0</text>
</a>
</g>
</g>
<!-- ric.func_8015FAB8&#45;&gt;ric.func_8015F9F0 -->
<g id="edge2" class="edge">
<title>ric.func_8015FAB8&#45;&gt;ric.func_8015F9F0</title>
<path fill="none" stroke="black" d="M2691.31,-87.41C2708.01,-74.51 2731.38,-56.45 2749.91,-42.13"/>
<polygon fill="black" stroke="black" points="2752.28,-44.72 2758.05,-35.84 2748,-39.18 2752.28,-44.72"/>
<text text-anchor="middle" x="2736.84" y="-57.8" font-family="Times,serif" font-size="14.00">1</text>
</g>
<!-- ric.func_80170548 -->
<g id="node4" class="node">
<title>ric.func_80170548</title>
<g id="a_node4"><a xlink:href="ric.func_80170548.svg" xlink:title="ric.func_80170548">
<ellipse fill="green" stroke="black" cx="96.84" cy="-192" rx="96.68" ry="18"/>
<text text-anchor="middle" x="96.84" y="-188.3" font-family="Times,serif" font-size="14.00">ric.func_80170548</text>
</a>
</g>
</g>
<!-- ric.func_80170548&#45;&gt;ric.func_8015FAB8 -->
<g id="edge3" class="edge">
<title>ric.func_80170548&#45;&gt;ric.func_8015FAB8</title>
<path fill="none" stroke="black" d="M165.74,-179.27C178.07,-177.37 190.82,-175.52 202.84,-174 360.05,-154.11 399.62,-149.65 557.84,-141 953.83,-119.35 2188.26,-109.3 2561.72,-106.7"/>
<polygon fill="black" stroke="black" points="2562.01,-110.2 2571.99,-106.63 2561.96,-103.2 2562.01,-110.2"/>
<text text-anchor="middle" x="562.84" y="-144.8" font-family="Times,serif" font-size="14.00">1</text>
</g>
<!-- ric.func_8016E46C -->
<g id="node5" class="node">
<title>ric.func_8016E46C</title>
<g id="a_node5"><a xlink:href="ric.func_8016E46C.svg" xlink:title="ric.func_8016E46C">
<ellipse fill="red" stroke="black" cx="310.84" cy="-192" rx="98.58" ry="18"/>
<text text-anchor="middle" x="310.84" y="-188.3" font-family="Times,serif" font-size="14.00">ric.func_8016E46C</text>
</a>
</g>
</g>
<!-- ric.func_8016E46C&#45;&gt;ric.func_8015FAB8 -->
<g id="edge4" class="edge">
<title>ric.func_8016E46C&#45;&gt;ric.func_8015FAB8</title>
<path fill="none" stroke="black" d="M381.05,-179.29C393.61,-177.39 406.6,-175.53 418.84,-174 575.19,-154.41 614.51,-149.79 771.84,-141 1123.96,-121.32 2213.82,-110.08 2561.84,-106.93"/>
<polygon fill="black" stroke="black" points="2561.95,-110.43 2571.92,-106.84 2561.89,-103.43 2561.95,-110.43"/>
<text text-anchor="middle" x="776.84" y="-144.8" font-family="Times,serif" font-size="14.00">1</text>
</g>
<!-- ric.func_801719A4 -->
<g id="node6" class="node">
<title>ric.func_801719A4</title>
<g id="a_node6"><a xlink:href="ric.func_801719A4.svg" xlink:title="ric.func_801719A4">
<ellipse fill="red" stroke="black" cx="524.84" cy="-192" rx="97.48" ry="18"/>
<text text-anchor="middle" x="524.84" y="-188.3" font-family="Times,serif" font-size="14.00">ric.func_801719A4</text>
</a>
</g>
</g>
<!-- ric.func_801719A4&#45;&gt;ric.func_8015FAB8 -->
<g id="edge5" class="edge">
<title>ric.func_801719A4&#45;&gt;ric.func_8015FAB8</title>
<path fill="none" stroke="black" d="M594.11,-179.32C606.64,-177.4 619.62,-175.54 631.84,-174 789.06,-154.22 828.64,-149.99 986.84,-141 1580.64,-107.27 2293.93,-105.05 2561.48,-105.56"/>
<polygon fill="black" stroke="black" points="2561.57,-109.06 2571.57,-105.58 2561.58,-102.06 2561.57,-109.06"/>
<text text-anchor="middle" x="991.84" y="-144.8" font-family="Times,serif" font-size="14.00">1</text>
</g>
<!-- ric.func_80170F64 -->
<g id="node7" class="node">
<title>ric.func_80170F64</title>
<g id="a_node7"><a xlink:href="ric.func_80170F64.svg" xlink:title="ric.func_80170F64">
<ellipse fill="red" stroke="black" cx="737.84" cy="-192" rx="97.48" ry="18"/>
<text text-anchor="middle" x="737.84" y="-188.3" font-family="Times,serif" font-size="14.00">ric.func_80170F64</text>
</a>
</g>
</g>
<!-- ric.func_80170F64&#45;&gt;ric.func_8015FAB8 -->
<g id="edge6" class="edge">
<title>ric.func_80170F64&#45;&gt;ric.func_8015FAB8</title>
<path fill="none" stroke="black" d="M807.1,-179.31C819.64,-177.39 832.62,-175.53 844.84,-174 1004.71,-154.02 1044.99,-150.26 1205.84,-141 1712.23,-111.83 2318.5,-106.87 2561.41,-106.1"/>
<polygon fill="black" stroke="black" points="2561.67,-109.6 2571.66,-106.07 2561.64,-102.6 2561.67,-109.6"/>
<text text-anchor="middle" x="1210.84" y="-144.8" font-family="Times,serif" font-size="14.00">1</text>
</g>
<!-- ric.func_8017328C -->
<g id="node8" class="node">
<title>ric.func_8017328C</title>
<g id="a_node8"><a xlink:href="ric.func_8017328C.svg" xlink:title="ric.func_8017328C">
<ellipse fill="red" stroke="black" cx="951.84" cy="-192" rx="98.28" ry="18"/>
<text text-anchor="middle" x="951.84" y="-188.3" font-family="Times,serif" font-size="14.00">ric.func_8017328C</text>
</a>
</g>
</g>
<!-- ric.func_8017328C&#45;&gt;ric.func_8015FAB8 -->
<g id="edge7" class="edge">
<title>ric.func_8017328C&#45;&gt;ric.func_8015FAB8</title>
<path fill="none" stroke="black" d="M1021.39,-179.24C1033.84,-177.34 1046.71,-175.5 1058.84,-174 1223.13,-153.67 1264.58,-150.67 1429.84,-141 1848.09,-116.52 2346.73,-109.03 2562.06,-106.85"/>
<polygon fill="black" stroke="black" points="2562.13,-110.35 2572.1,-106.75 2562.06,-103.35 2562.13,-110.35"/>
<text text-anchor="middle" x="1434.84" y="-144.8" font-family="Times,serif" font-size="14.00">1</text>
</g>
<!-- ric.func_80172D00 -->
<g id="node9" class="node">
<title>ric.func_80172D00</title>
<g id="a_node9"><a xlink:href="ric.func_80172D00.svg" xlink:title="ric.func_80172D00">
<ellipse fill="red" stroke="black" cx="1166.84" cy="-192" rx="98.58" ry="18"/>
<text text-anchor="middle" x="1166.84" y="-188.3" font-family="Times,serif" font-size="14.00">ric.func_80172D00</text>
</a>
</g>
</g>
<!-- ric.func_80172D00&#45;&gt;ric.func_8015FAB8 -->
<g id="edge8" class="edge">
<title>ric.func_80172D00&#45;&gt;ric.func_8015FAB8</title>
<path fill="none" stroke="black" d="M1236.74,-179.24C1249.4,-177.33 1262.5,-175.49 1274.84,-174 1447.98,-153.09 1491.75,-151.37 1665.84,-141 1992.21,-121.55 2378.95,-111.82 2562.65,-108"/>
<polygon fill="black" stroke="black" points="2562.92,-111.5 2572.85,-107.79 2562.78,-104.5 2562.92,-111.5"/>
<text text-anchor="middle" x="1670.84" y="-144.8" font-family="Times,serif" font-size="14.00">1</text>
</g>
<!-- ric.func_80166784 -->
<g id="node10" class="node">
<title>ric.func_80166784</title>
<g id="a_node10"><a xlink:href="ric.func_80166784.svg" xlink:title="ric.func_80166784">
<ellipse fill="red" stroke="black" cx="1380.84" cy="-192" rx="96.68" ry="18"/>
<text text-anchor="middle" x="1380.84" y="-188.3" font-family="Times,serif" font-size="14.00">ric.func_80166784</text>
</a>
</g>
</g>
<!-- ric.func_80166784&#45;&gt;ric.func_8015FAB8 -->
<g id="edge9" class="edge">
<title>ric.func_80166784&#45;&gt;ric.func_8015FAB8</title>
<path fill="none" stroke="black" d="M1449.45,-179.24C1461.87,-177.33 1474.72,-175.49 1486.84,-174 1881.34,-125.48 2354.22,-111.47 2562.45,-107.51"/>
<polygon fill="black" stroke="black" points="2562.53,-111.01 2572.47,-107.32 2562.4,-104.01 2562.53,-111.01"/>
<text text-anchor="middle" x="1815.84" y="-144.8" font-family="Times,serif" font-size="14.00">1</text>
</g>
<!-- ric.func_80169704 -->
<g id="node11" class="node">
<title>ric.func_80169704</title>
<g id="a_node11"><a xlink:href="ric.func_80169704.svg" xlink:title="ric.func_80169704">
<ellipse fill="red" stroke="black" cx="1592.84" cy="-192" rx="96.68" ry="18"/>
<text text-anchor="middle" x="1592.84" y="-188.3" font-family="Times,serif" font-size="14.00">ric.func_80169704</text>
</a>
</g>
</g>
<!-- ric.func_80169704&#45;&gt;ric.func_8015FAB8 -->
<g id="edge10" class="edge">
<title>ric.func_80169704&#45;&gt;ric.func_8015FAB8</title>
<path fill="none" stroke="black" d="M1661.45,-179.28C1673.87,-177.37 1686.73,-175.51 1698.84,-174 2012.2,-134.83 2385.48,-116.61 2564.22,-109.63"/>
<polygon fill="black" stroke="black" points="2564.55,-113.12 2574.41,-109.24 2564.28,-106.12 2564.55,-113.12"/>
<text text-anchor="middle" x="2023.84" y="-144.8" font-family="Times,serif" font-size="14.00">1</text>
</g>
<!-- ric.func_8016A26C -->
<g id="node12" class="node">
<title>ric.func_8016A26C</title>
<g id="a_node12"><a xlink:href="ric.func_8016A26C.svg" xlink:title="ric.func_8016A26C">
<ellipse fill="red" stroke="black" cx="1806.84" cy="-192" rx="98.58" ry="18"/>
<text text-anchor="middle" x="1806.84" y="-188.3" font-family="Times,serif" font-size="14.00">ric.func_8016A26C</text>
</a>
</g>
</g>
<!-- ric.func_8016A26C&#45;&gt;ric.func_8015FAB8 -->
<g id="edge11" class="edge">
<title>ric.func_8016A26C&#45;&gt;ric.func_8015FAB8</title>
<path fill="none" stroke="black" d="M1877.34,-179.31C1889.82,-177.41 1902.7,-175.56 1914.84,-174 2148.29,-144.08 2424.02,-122.78 2569.03,-112.66"/>
<polygon fill="black" stroke="black" points="2569.51,-116.13 2579.24,-111.95 2569.02,-109.15 2569.51,-116.13"/>
<text text-anchor="middle" x="2209.84" y="-144.8" font-family="Times,serif" font-size="14.00">1</text>
</g>
<!-- ric.func_80168A20 -->
<g id="node13" class="node">
<title>ric.func_80168A20</title>
<g id="a_node13"><a xlink:href="ric.func_80168A20.svg" xlink:title="ric.func_80168A20">
<ellipse fill="red" stroke="black" cx="2020.84" cy="-192" rx="97.48" ry="18"/>
<text text-anchor="middle" x="2020.84" y="-188.3" font-family="Times,serif" font-size="14.00">ric.func_80168A20</text>
</a>
</g>
</g>
<!-- ric.func_80168A20&#45;&gt;ric.func_8015FAB8 -->
<g id="edge12" class="edge">
<title>ric.func_80168A20&#45;&gt;ric.func_8015FAB8</title>
<path fill="none" stroke="black" d="M2091.3,-179.47C2103.47,-177.57 2116.02,-175.68 2127.84,-174 2286.11,-151.51 2470.94,-129.15 2578.74,-116.51"/>
<polygon fill="black" stroke="black" points="2579.4,-119.95 2588.92,-115.31 2578.58,-113 2579.4,-119.95"/>
<text text-anchor="middle" x="2370.84" y="-144.8" font-family="Times,serif" font-size="14.00">1</text>
</g>
<!-- ric.func_8016C1BC -->
<g id="node14" class="node">
<title>ric.func_8016C1BC</title>
<g id="a_node14"><a xlink:href="ric.func_8016C1BC.svg" xlink:title="ric.func_8016C1BC">
<ellipse fill="red" stroke="black" cx="2236.84" cy="-192" rx="100.18" ry="18"/>
<text text-anchor="middle" x="2236.84" y="-188.3" font-family="Times,serif" font-size="14.00">ric.func_8016C1BC</text>
</a>
</g>
</g>
<!-- ric.func_8016C1BC&#45;&gt;ric.func_8015FAB8 -->
<g id="edge13" class="edge">
<title>ric.func_8016C1BC&#45;&gt;ric.func_8015FAB8</title>
<path fill="none" stroke="black" d="M2301.67,-178.27C2380.33,-162.83 2512.69,-136.85 2595.44,-120.6"/>
<polygon fill="black" stroke="black" points="2596.14,-124.03 2605.28,-118.67 2594.79,-117.17 2596.14,-124.03"/>
<text text-anchor="middle" x="2484.84" y="-144.8" font-family="Times,serif" font-size="14.00">1</text>
</g>
<!-- ric.func_8016D328 -->
<g id="node15" class="node">
<title>ric.func_8016D328</title>
<g id="a_node15"><a xlink:href="ric.func_8016D328.svg" xlink:title="ric.func_8016D328">
<ellipse fill="green" stroke="black" cx="2453.84" cy="-192" rx="98.58" ry="18"/>
<text text-anchor="middle" x="2453.84" y="-188.3" font-family="Times,serif" font-size="14.00">ric.func_8016D328</text>
</a>
</g>
</g>
<!-- ric.func_8016D328&#45;&gt;ric.func_8015FAB8 -->
<g id="edge14" class="edge">
<title>ric.func_8016D328&#45;&gt;ric.func_8015FAB8</title>
<path fill="none" stroke="black" d="M2493.46,-175.41C2529.39,-161.27 2582.47,-140.38 2621.01,-125.22"/>
<polygon fill="black" stroke="black" points="2622.45,-128.41 2630.47,-121.49 2619.89,-121.9 2622.45,-128.41"/>
<text text-anchor="middle" x="2579.84" y="-144.8" font-family="Times,serif" font-size="14.00">1</text>
</g>
<!-- ric.func_801684D8 -->
<g id="node16" class="node">
<title>ric.func_801684D8</title>
<g id="a_node16"><a xlink:href="ric.func_801684D8.svg" xlink:title="ric.func_801684D8">
<ellipse fill="red" stroke="black" cx="2669.84" cy="-192" rx="98.58" ry="18"/>
<text text-anchor="middle" x="2669.84" y="-188.3" font-family="Times,serif" font-size="14.00">ric.func_801684D8</text>
</a>
</g>
</g>
<!-- ric.func_801684D8&#45;&gt;ric.func_8015FAB8 -->
<g id="edge15" class="edge">
<title>ric.func_801684D8&#45;&gt;ric.func_8015FAB8</title>
<path fill="none" stroke="black" d="M2669.84,-173.8C2669.84,-162.16 2669.84,-146.55 2669.84,-133.24"/>
<polygon fill="black" stroke="black" points="2673.34,-133.18 2669.84,-123.18 2666.34,-133.18 2673.34,-133.18"/>
<text text-anchor="middle" x="2674.84" y="-144.8" font-family="Times,serif" font-size="14.00">1</text>
</g>
<!-- ric.func_8016B0C0 -->
<g id="node17" class="node">
<title>ric.func_8016B0C0</title>
<g id="a_node17"><a xlink:href="ric.func_8016B0C0.svg" xlink:title="ric.func_8016B0C0">
<ellipse fill="red" stroke="black" cx="2885.84" cy="-192" rx="98.58" ry="18"/>
<text text-anchor="middle" x="2885.84" y="-188.3" font-family="Times,serif" font-size="14.00">ric.func_8016B0C0</text>
</a>
</g>
</g>
<!-- ric.func_8016B0C0&#45;&gt;ric.func_8015FAB8 -->
<g id="edge16" class="edge">
<title>ric.func_8016B0C0&#45;&gt;ric.func_8015FAB8</title>
<path fill="none" stroke="black" d="M2846.22,-175.41C2810.3,-161.27 2757.21,-140.38 2718.67,-125.22"/>
<polygon fill="black" stroke="black" points="2719.8,-121.9 2709.21,-121.49 2717.23,-128.41 2719.8,-121.9"/>
<text text-anchor="middle" x="2795.84" y="-144.8" font-family="Times,serif" font-size="14.00">1</text>
</g>
<!-- ric.func_8016D920 -->
<g id="node18" class="node">
<title>ric.func_8016D920</title>
<g id="a_node18"><a xlink:href="ric.func_8016D920.svg" xlink:title="ric.func_8016D920">
<ellipse fill="green" stroke="black" cx="3101.84" cy="-192" rx="98.58" ry="18"/>
<text text-anchor="middle" x="3101.84" y="-188.3" font-family="Times,serif" font-size="14.00">ric.func_8016D920</text>
</a>
</g>
</g>
<!-- ric.func_8016D920&#45;&gt;ric.func_8015FAB8 -->
<g id="edge17" class="edge">
<title>ric.func_8016D920&#45;&gt;ric.func_8015FAB8</title>
<path fill="none" stroke="black" d="M3037.17,-178.27C2958.68,-162.83 2826.63,-136.85 2744.07,-120.6"/>
<polygon fill="black" stroke="black" points="2744.74,-117.17 2734.25,-118.67 2743.39,-124.04 2744.74,-117.17"/>
<text text-anchor="middle" x="2916.84" y="-144.8" font-family="Times,serif" font-size="14.00">1</text>
</g>
<!-- ric.func_8016C734 -->
<g id="node19" class="node">
<title>ric.func_8016C734</title>
<g id="a_node19"><a xlink:href="ric.func_8016C734.svg" xlink:title="ric.func_8016C734">
<ellipse fill="red" stroke="black" cx="3316.84" cy="-192" rx="98.28" ry="18"/>
<text text-anchor="middle" x="3316.84" y="-188.3" font-family="Times,serif" font-size="14.00">ric.func_8016C734</text>
</a>
</g>
</g>
<!-- ric.func_8016C734&#45;&gt;ric.func_8015FAB8 -->
<g id="edge18" class="edge">
<title>ric.func_8016C734&#45;&gt;ric.func_8015FAB8</title>
<path fill="none" stroke="black" d="M3246.1,-179.43C3234.01,-177.55 3221.57,-175.67 3209.84,-174 3052.16,-151.55 2868.01,-129.18 2760.61,-116.52"/>
<polygon fill="black" stroke="black" points="2760.8,-113.02 2750.46,-115.33 2759.98,-119.97 2760.8,-113.02"/>
<text text-anchor="middle" x="3081.84" y="-144.8" font-family="Times,serif" font-size="14.00">1</text>
</g>
<!-- ric.func_8016A974 -->
<g id="node20" class="node">
<title>ric.func_8016A974</title>
<g id="a_node20"><a xlink:href="ric.func_8016A974.svg" xlink:title="ric.func_8016A974">
<ellipse fill="red" stroke="black" cx="3530.84" cy="-192" rx="97.48" ry="18"/>
<text text-anchor="middle" x="3530.84" y="-188.3" font-family="Times,serif" font-size="14.00">ric.func_8016A974</text>
</a>
</g>
</g>
<!-- ric.func_8016A974&#45;&gt;ric.func_8015FAB8 -->
<g id="edge19" class="edge">
<title>ric.func_8016A974&#45;&gt;ric.func_8015FAB8</title>
<path fill="none" stroke="black" d="M3461.28,-179.34C3448.83,-177.43 3435.97,-175.56 3423.84,-174 3190.88,-143.98 2915.73,-122.73 2770.82,-112.64"/>
<polygon fill="black" stroke="black" points="2770.83,-109.13 2760.61,-111.93 2770.35,-116.12 2770.83,-109.13"/>
<text text-anchor="middle" x="3264.84" y="-144.8" font-family="Times,serif" font-size="14.00">1</text>
</g>
<!-- ric.func_8016DF74 -->
<g id="node21" class="node">
<title>ric.func_8016DF74</title>
<g id="a_node21"><a xlink:href="ric.func_8016DF74.svg" xlink:title="ric.func_8016DF74">
<ellipse fill="red" stroke="black" cx="3744.84" cy="-192" rx="98.58" ry="18"/>
<text text-anchor="middle" x="3744.84" y="-188.3" font-family="Times,serif" font-size="14.00">ric.func_8016DF74</text>
</a>
</g>
</g>
<!-- ric.func_8016DF74&#45;&gt;ric.func_8015FAB8 -->
<g id="edge20" class="edge">
<title>ric.func_8016DF74&#45;&gt;ric.func_8015FAB8</title>
<path fill="none" stroke="black" d="M3674.64,-179.27C3662.07,-177.36 3649.09,-175.52 3636.84,-174 3324.94,-135.32 2953.5,-116.88 2775.37,-109.74"/>
<polygon fill="black" stroke="black" points="2775.35,-106.24 2765.22,-109.34 2775.07,-113.23 2775.35,-106.24"/>
<text text-anchor="middle" x="3457.84" y="-144.8" font-family="Times,serif" font-size="14.00">1</text>
</g>
<!-- ric.func_8016B97C -->
<g id="node22" class="node">
<title>ric.func_8016B97C</title>
<g id="a_node22"><a xlink:href="ric.func_8016B97C.svg" xlink:title="ric.func_8016B97C">
<ellipse fill="red" stroke="black" cx="3960.84" cy="-192" rx="98.58" ry="18"/>
<text text-anchor="middle" x="3960.84" y="-188.3" font-family="Times,serif" font-size="14.00">ric.func_8016B97C</text>
</a>
</g>
</g>
<!-- ric.func_8016B97C&#45;&gt;ric.func_8015FAB8 -->
<g id="edge21" class="edge">
<title>ric.func_8016B97C&#45;&gt;ric.func_8015FAB8</title>
<path fill="none" stroke="black" d="M3890.94,-179.26C3878.28,-177.34 3865.18,-175.5 3852.84,-174 3458.26,-126.14 2985.43,-111.79 2777.22,-107.63"/>
<polygon fill="black" stroke="black" points="2777.27,-104.13 2767.2,-107.43 2777.13,-111.13 2777.27,-104.13"/>
<text text-anchor="middle" x="3665.84" y="-144.8" font-family="Times,serif" font-size="14.00">1</text>
</g>
<!-- ric.func_80167EC4 -->
<g id="node23" class="node">
<title>ric.func_80167EC4</title>
<g id="a_node23"><a xlink:href="ric.func_80167EC4.svg" xlink:title="ric.func_80167EC4">
<ellipse fill="red" stroke="black" cx="4176.84" cy="-192" rx="98.58" ry="18"/>
<text text-anchor="middle" x="4176.84" y="-188.3" font-family="Times,serif" font-size="14.00">ric.func_80167EC4</text>
</a>
</g>
</g>
<!-- ric.func_80167EC4&#45;&gt;ric.func_8015FAB8 -->
<g id="edge22" class="edge">
<title>ric.func_80167EC4&#45;&gt;ric.func_8015FAB8</title>
<path fill="none" stroke="black" d="M4106.94,-179.24C4094.28,-177.33 4081.18,-175.49 4068.84,-174 3894.38,-152.99 3850.26,-151.39 3674.84,-141 3348.14,-121.64 2961.02,-111.87 2777.14,-108.02"/>
<polygon fill="black" stroke="black" points="2777,-104.52 2766.93,-107.81 2776.86,-111.52 2777,-104.52"/>
<text text-anchor="middle" x="3903.84" y="-144.8" font-family="Times,serif" font-size="14.00">1</text>
</g>
<!-- ric.func_8016902C -->
<g id="node24" class="node">
<title>ric.func_8016902C</title>
<g id="a_node24"><a xlink:href="ric.func_8016902C.svg" xlink:title="ric.func_8016902C">
<ellipse fill="red" stroke="black" cx="4391.84" cy="-192" rx="98.28" ry="18"/>
<text text-anchor="middle" x="4391.84" y="-188.3" font-family="Times,serif" font-size="14.00">ric.func_8016902C</text>
</a>
</g>
</g>
<!-- ric.func_8016902C&#45;&gt;ric.func_8015FAB8 -->
<g id="edge23" class="edge">
<title>ric.func_8016902C&#45;&gt;ric.func_8015FAB8</title>
<path fill="none" stroke="black" d="M4322.3,-179.24C4309.85,-177.33 4296.98,-175.5 4284.84,-174 4120.11,-153.63 4078.54,-150.67 3912.84,-141 3493.58,-116.52 2993.73,-109.04 2777.88,-106.85"/>
<polygon fill="black" stroke="black" points="2777.86,-103.35 2767.82,-106.75 2777.79,-110.35 2777.86,-103.35"/>
<text text-anchor="middle" x="4129.84" y="-144.8" font-family="Times,serif" font-size="14.00">1</text>
</g>
<!-- ric.func_80160F0C -->
<g id="node25" class="node">
<title>ric.func_80160F0C</title>
<g id="a_node25"><a xlink:href="ric.func_80160F0C.svg" xlink:title="ric.func_80160F0C">
<ellipse fill="green" stroke="black" cx="4606.84" cy="-192" rx="98.58" ry="18"/>
<text text-anchor="middle" x="4606.84" y="-188.3" font-family="Times,serif" font-size="14.00">ric.func_80160F0C</text>
</a>
</g>
</g>
<!-- ric.func_80160F0C&#45;&gt;ric.func_8015FAB8 -->
<g id="edge24" class="edge">
<title>ric.func_80160F0C&#45;&gt;ric.func_8015FAB8</title>
<path fill="none" stroke="black" d="M4536.64,-179.27C4524.07,-177.37 4511.08,-175.52 4498.84,-174 4339.4,-154.16 4299.25,-150.25 4138.84,-141 3630.41,-111.67 3021.63,-106.8 2778.19,-106.08"/>
<polygon fill="black" stroke="black" points="2777.94,-102.58 2767.93,-106.05 2777.92,-109.58 2777.94,-102.58"/>
<text text-anchor="middle" x="4348.84" y="-144.8" font-family="Times,serif" font-size="14.00">1</text>
</g>
<!-- ric.func_80160E4C -->
<g id="node26" class="node">
<title>ric.func_80160E4C</title>
<g id="a_node26"><a xlink:href="ric.func_80160E4C.svg" xlink:title="ric.func_80160E4C">
<ellipse fill="green" stroke="black" cx="4822.84" cy="-192" rx="98.58" ry="18"/>
<text text-anchor="middle" x="4822.84" y="-188.3" font-family="Times,serif" font-size="14.00">ric.func_80160E4C</text>
</a>
</g>
</g>
<!-- ric.func_80160E4C&#45;&gt;ric.func_8015FAB8 -->
<g id="edge25" class="edge">
<title>ric.func_80160E4C&#45;&gt;ric.func_8015FAB8</title>
<path fill="none" stroke="black" d="M4752.64,-179.28C4740.07,-177.38 4727.08,-175.53 4714.84,-174 4556.72,-154.27 4516.93,-149.99 4357.84,-141 3762.27,-107.34 3046.87,-105.08 2778.53,-105.57"/>
<polygon fill="black" stroke="black" points="2778.39,-102.07 2768.4,-105.59 2778.41,-109.07 2778.39,-102.07"/>
<text text-anchor="middle" x="4564.84" y="-144.8" font-family="Times,serif" font-size="14.00">1</text>
</g>
<!-- ric.func_80160D2C -->
<g id="node27" class="node">
<title>ric.func_80160D2C</title>
<g id="a_node27"><a xlink:href="ric.func_80160D2C.svg" xlink:title="ric.func_80160D2C">
<ellipse fill="green" stroke="black" cx="5038.84" cy="-192" rx="99.38" ry="18"/>
<text text-anchor="middle" x="5038.84" y="-188.3" font-family="Times,serif" font-size="14.00">ric.func_80160D2C</text>
</a>
</g>
</g>
<!-- ric.func_80160D2C&#45;&gt;ric.func_8015FAB8 -->
<g id="edge26" class="edge">
<title>ric.func_80160D2C&#45;&gt;ric.func_8015FAB8</title>
<path fill="none" stroke="black" d="M4968.35,-179.24C4955.87,-177.35 4942.99,-175.52 4930.84,-174 4772.72,-154.27 4732.94,-149.8 4573.84,-141 4220.4,-121.44 3126.03,-110.11 2777.58,-106.93"/>
<polygon fill="black" stroke="black" points="2777.52,-103.43 2767.48,-106.84 2777.45,-110.43 2777.52,-103.43"/>
<text text-anchor="middle" x="4780.84" y="-144.8" font-family="Times,serif" font-size="14.00">1</text>
</g>
<!-- ric.func_80160C38 -->
<g id="node28" class="node">
<title>ric.func_80160C38</title>
<g id="a_node28"><a xlink:href="ric.func_80160C38.svg" xlink:title="ric.func_80160C38">
<ellipse fill="green" stroke="black" cx="5254.84" cy="-192" rx="98.28" ry="18"/>
<text text-anchor="middle" x="5254.84" y="-188.3" font-family="Times,serif" font-size="14.00">ric.func_80160C38</text>
</a>
</g>
</g>
<!-- ric.func_80160C38&#45;&gt;ric.func_8015FAB8 -->
<g id="edge27" class="edge">
<title>ric.func_80160C38&#45;&gt;ric.func_8015FAB8</title>
<path fill="none" stroke="black" d="M5184.93,-179.33C5172.27,-177.4 5159.18,-175.54 5146.84,-174 4988.72,-154.27 4948.95,-149.65 4789.84,-141 4392.13,-119.37 3151.92,-109.3 2777.77,-106.7"/>
<polygon fill="black" stroke="black" points="2777.78,-103.2 2767.76,-106.63 2777.73,-110.2 2777.78,-103.2"/>
<text text-anchor="middle" x="4996.84" y="-144.8" font-family="Times,serif" font-size="14.00">1</text>
</g>
</g>
</svg>
