<?xml version="1.0" encoding="UTF-8" standalone="no"?>
<!DOCTYPE svg PUBLIC "-//W3C//DTD SVG 1.1//EN"
 "http://www.w3.org/Graphics/SVG/1.1/DTD/svg11.dtd">
<!-- Generated by graphviz version 2.43.0 (0)
 -->
<!-- Title: ric.SetPlayerStep Pages: 1 -->
<svg width="3938pt" height="131pt"
 viewBox="0.00 0.00 3937.58 131.00" xmlns="http://www.w3.org/2000/svg" xmlns:xlink="http://www.w3.org/1999/xlink">
<g id="graph0" class="graph" transform="scale(1 1) rotate(0) translate(4 127)">
<title>ric.SetPlayerStep</title>
<polygon fill="white" stroke="transparent" points="-4,4 -4,-127 3933.58,-127 3933.58,4 -4,4"/>
<!-- ric.SetPlayerStep -->
<g id="node1" class="node">
<title>ric.SetPlayerStep</title>
<ellipse fill="green" stroke="black" cx="1985.79" cy="-18" rx="92.88" ry="18"/>
<text text-anchor="middle" x="1985.79" y="-14.3" font-family="Times,serif" font-size="14.00">ric.SetPlayerStep</text>
</g>
<!-- ric.func_8015D678 -->
<g id="node2" class="node">
<title>ric.func_8015D678</title>
<g id="a_node2"><a xlink:href="ric.func_8015D678.svg" xlink:title="ric.func_8015D678">
<ellipse fill="red" stroke="black" cx="98.79" cy="-105" rx="98.58" ry="18"/>
<text text-anchor="middle" x="98.79" y="-101.3" font-family="Times,serif" font-size="14.00">ric.func_8015D678</text>
</a>
</g>
</g>
<!-- ric.func_8015D678&#45;&gt;ric.SetPlayerStep -->
<g id="edge1" class="edge">
<title>ric.func_8015D678&#45;&gt;ric.SetPlayerStep</title>
<path fill="none" stroke="black" d="M168.99,-92.26C181.56,-90.36 194.55,-88.52 206.79,-87 368,-67.03 408.62,-63.35 570.79,-54 1061.51,-25.72 1649.26,-20.26 1882.81,-19.23"/>
<polygon fill="black" stroke="black" points="1883.01,-22.73 1892.99,-19.19 1882.98,-15.73 1883.01,-22.73"/>
<text text-anchor="middle" x="575.79" y="-57.8" font-family="Times,serif" font-size="14.00">7</text>
</g>
<!-- ric.func_8015D9D4 -->
<g id="node3" class="node">
<title>ric.func_8015D9D4</title>
<g id="a_node3"><a xlink:href="ric.func_8015D9D4.svg" xlink:title="ric.func_8015D9D4">
<ellipse fill="green" stroke="black" cx="315.79" cy="-105" rx="100.18" ry="18"/>
<text text-anchor="middle" x="315.79" y="-101.3" font-family="Times,serif" font-size="14.00">ric.func_8015D9D4</text>
</a>
</g>
</g>
<!-- ric.func_8015D9D4&#45;&gt;ric.SetPlayerStep -->
<g id="edge2" class="edge">
<title>ric.func_8015D9D4&#45;&gt;ric.SetPlayerStep</title>
<path fill="none" stroke="black" d="M386.64,-92.26C399.33,-90.35 412.43,-88.51 424.79,-87 588.66,-66.94 629.98,-63.76 794.79,-54 1196.87,-30.18 1676.31,-22.35 1882.83,-19.96"/>
<polygon fill="black" stroke="black" points="1883.09,-23.46 1893.05,-19.85 1883.01,-16.46 1883.09,-23.46"/>
<text text-anchor="middle" x="799.79" y="-57.8" font-family="Times,serif" font-size="14.00">1</text>
</g>
<!-- ric.func_8015DA60 -->
<g id="node4" class="node">
<title>ric.func_8015DA60</title>
<g id="a_node4"><a xlink:href="ric.func_8015DA60.svg" xlink:title="ric.func_8015DA60">
<ellipse fill="green" stroke="black" cx="532.79" cy="-105" rx="98.58" ry="18"/>
<text text-anchor="middle" x="532.79" y="-101.3" font-family="Times,serif" font-size="14.00">ric.func_8015DA60</text>
</a>
</g>
</g>
<!-- ric.func_8015DA60&#45;&gt;ric.SetPlayerStep -->
<g id="edge3" class="edge">
<title>ric.func_8015DA60&#45;&gt;ric.SetPlayerStep</title>
<path fill="none" stroke="black" d="M602.7,-92.25C615.35,-90.34 628.45,-88.5 640.79,-87 812.16,-66.23 855.49,-64.49 1027.79,-54 1339.3,-35.04 1708.45,-25.08 1883.67,-21.1"/>
<polygon fill="black" stroke="black" points="1883.99,-24.6 1893.91,-20.87 1883.83,-17.6 1883.99,-24.6"/>
<text text-anchor="middle" x="1032.79" y="-57.8" font-family="Times,serif" font-size="14.00">1</text>
</g>
<!-- ric.func_8015DB04 -->
<g id="node5" class="node">
<title>ric.func_8015DB04</title>
<g id="a_node5"><a xlink:href="ric.func_8015DB04.svg" xlink:title="ric.func_8015DB04">
<ellipse fill="green" stroke="black" cx="748.79" cy="-105" rx="99.38" ry="18"/>
<text text-anchor="middle" x="748.79" y="-101.3" font-family="Times,serif" font-size="14.00">ric.func_8015DB04</text>
</a>
</g>
</g>
<!-- ric.func_8015DB04&#45;&gt;ric.SetPlayerStep -->
<g id="edge4" class="edge">
<title>ric.func_8015DB04&#45;&gt;ric.SetPlayerStep</title>
<path fill="none" stroke="black" d="M819.35,-92.29C832.12,-90.37 845.34,-88.52 857.79,-87 1234.18,-41.18 1685.15,-25.79 1883.58,-21"/>
<polygon fill="black" stroke="black" points="1883.79,-24.49 1893.7,-20.75 1883.62,-17.49 1883.79,-24.49"/>
<text text-anchor="middle" x="1202.79" y="-57.8" font-family="Times,serif" font-size="14.00">1</text>
</g>
<!-- ric.func_8015D9B4 -->
<g id="node6" class="node">
<title>ric.func_8015D9B4</title>
<g id="a_node6"><a xlink:href="ric.func_8015D9B4.svg" xlink:title="ric.func_8015D9B4">
<ellipse fill="green" stroke="black" cx="965.79" cy="-105" rx="99.38" ry="18"/>
<text text-anchor="middle" x="965.79" y="-101.3" font-family="Times,serif" font-size="14.00">ric.func_8015D9B4</text>
</a>
</g>
</g>
<!-- ric.func_8015D9B4&#45;&gt;ric.SetPlayerStep -->
<g id="edge5" class="edge">
<title>ric.func_8015D9B4&#45;&gt;ric.SetPlayerStep</title>
<path fill="none" stroke="black" d="M1035.99,-92.24C1048.56,-90.34 1061.55,-88.5 1073.79,-87 1367.99,-50.91 1718.1,-31.29 1886.12,-23.32"/>
<polygon fill="black" stroke="black" points="1886.37,-26.81 1896.19,-22.84 1886.04,-19.82 1886.37,-26.81"/>
<text text-anchor="middle" x="1404.79" y="-57.8" font-family="Times,serif" font-size="14.00">1</text>
</g>
<!-- ric.func_8015A7D0 -->
<g id="node7" class="node">
<title>ric.func_8015A7D0</title>
<g id="a_node7"><a xlink:href="ric.func_8015A7D0.svg" xlink:title="ric.func_8015A7D0">
<ellipse fill="red" stroke="black" cx="1181.79" cy="-105" rx="98.58" ry="18"/>
<text text-anchor="middle" x="1181.79" y="-101.3" font-family="Times,serif" font-size="14.00">ric.func_8015A7D0</text>
</a>
</g>
</g>
<!-- ric.func_8015A7D0&#45;&gt;ric.SetPlayerStep -->
<g id="edge6" class="edge">
<title>ric.func_8015A7D0&#45;&gt;ric.SetPlayerStep</title>
<path fill="none" stroke="black" d="M1252,-92.34C1264.57,-90.42 1277.55,-88.56 1289.79,-87 1504.3,-59.66 1757.22,-37.45 1891.28,-26.46"/>
<polygon fill="black" stroke="black" points="1891.83,-29.93 1901.51,-25.63 1891.26,-22.95 1891.83,-29.93"/>
<text text-anchor="middle" x="1581.79" y="-57.8" font-family="Times,serif" font-size="14.00">1</text>
</g>
<!-- ric.UpdateEntityRichter -->
<g id="node8" class="node">
<title>ric.UpdateEntityRichter</title>
<g id="a_node8"><a xlink:href="ric.UpdateEntityRichter.svg" xlink:title="ric.UpdateEntityRichter">
<ellipse fill="red" stroke="black" cx="1421.79" cy="-105" rx="122.68" ry="18"/>
<text text-anchor="middle" x="1421.79" y="-101.3" font-family="Times,serif" font-size="14.00">ric.UpdateEntityRichter</text>
</a>
</g>
</g>
<!-- ric.UpdateEntityRichter&#45;&gt;ric.SetPlayerStep -->
<g id="edge7" class="edge">
<title>ric.UpdateEntityRichter&#45;&gt;ric.SetPlayerStep</title>
<path fill="none" stroke="black" d="M1504.1,-91.59C1611.47,-75.41 1798.16,-47.28 1904.85,-31.2"/>
<polygon fill="black" stroke="black" points="1905.55,-34.63 1914.92,-29.68 1904.51,-27.71 1905.55,-34.63"/>
<text text-anchor="middle" x="1742.79" y="-57.8" font-family="Times,serif" font-size="14.00">3</text>
</g>
<!-- ric.func_8015AFE0 -->
<g id="node9" class="node">
<title>ric.func_8015AFE0</title>
<g id="a_node9"><a xlink:href="ric.func_8015AFE0.svg" xlink:title="ric.func_8015AFE0">
<ellipse fill="green" stroke="black" cx="1661.79" cy="-105" rx="98.58" ry="18"/>
<text text-anchor="middle" x="1661.79" y="-101.3" font-family="Times,serif" font-size="14.00">ric.func_8015AFE0</text>
</a>
</g>
</g>
<!-- ric.func_8015AFE0&#45;&gt;ric.SetPlayerStep -->
<g id="edge8" class="edge">
<title>ric.func_8015AFE0&#45;&gt;ric.SetPlayerStep</title>
<path fill="none" stroke="black" d="M1715.66,-89.87C1772.76,-74.89 1862.85,-51.25 1923.1,-35.45"/>
<polygon fill="black" stroke="black" points="1924.09,-38.81 1932.87,-32.88 1922.31,-32.03 1924.09,-38.81"/>
<text text-anchor="middle" x="1848.79" y="-57.8" font-family="Times,serif" font-size="14.00">1</text>
</g>
<!-- ric.func_80159CE4 -->
<g id="node10" class="node">
<title>ric.func_80159CE4</title>
<g id="a_node10"><a xlink:href="ric.func_80159CE4.svg" xlink:title="ric.func_80159CE4">
<ellipse fill="red" stroke="black" cx="1877.79" cy="-105" rx="98.58" ry="18"/>
<text text-anchor="middle" x="1877.79" y="-101.3" font-family="Times,serif" font-size="14.00">ric.func_80159CE4</text>
</a>
</g>
</g>
<!-- ric.func_80159CE4&#45;&gt;ric.SetPlayerStep -->
<g id="edge9" class="edge">
<title>ric.func_80159CE4&#45;&gt;ric.SetPlayerStep</title>
<path fill="none" stroke="black" d="M1898.87,-87.41C1915.37,-74.42 1938.51,-56.21 1956.76,-41.85"/>
<polygon fill="black" stroke="black" points="1959.07,-44.48 1964.76,-35.55 1954.74,-38.98 1959.07,-44.48"/>
<text text-anchor="middle" x="1943.79" y="-57.8" font-family="Times,serif" font-size="14.00">1</text>
</g>
<!-- ric.func_8015CD98 -->
<g id="node11" class="node">
<title>ric.func_8015CD98</title>
<g id="a_node11"><a xlink:href="ric.func_8015CD98.svg" xlink:title="ric.func_8015CD98">
<ellipse fill="green" stroke="black" cx="2093.79" cy="-105" rx="99.38" ry="18"/>
<text text-anchor="middle" x="2093.79" y="-101.3" font-family="Times,serif" font-size="14.00">ric.func_8015CD98</text>
</a>
</g>
</g>
<!-- ric.func_8015CD98&#45;&gt;ric.SetPlayerStep -->
<g id="edge10" class="edge">
<title>ric.func_8015CD98&#45;&gt;ric.SetPlayerStep</title>
<path fill="none" stroke="black" d="M2072.45,-87.21C2056.03,-74.28 2033.16,-56.28 2015.04,-42.02"/>
<polygon fill="black" stroke="black" points="2017.11,-39.19 2007.08,-35.76 2012.78,-44.69 2017.11,-39.19"/>
<text text-anchor="middle" x="2051.79" y="-57.8" font-family="Times,serif" font-size="14.00">1</text>
</g>
<!-- ric.func_8015CE7C -->
<g id="node12" class="node">
<title>ric.func_8015CE7C</title>
<g id="a_node12"><a xlink:href="ric.func_8015CE7C.svg" xlink:title="ric.func_8015CE7C">
<ellipse fill="green" stroke="black" cx="2311.79" cy="-105" rx="100.18" ry="18"/>
<text text-anchor="middle" x="2311.79" y="-101.3" font-family="Times,serif" font-size="14.00">ric.func_8015CE7C</text>
</a>
</g>
</g>
<!-- ric.func_8015CE7C&#45;&gt;ric.SetPlayerStep -->
<g id="edge11" class="edge">
<title>ric.func_8015CE7C&#45;&gt;ric.SetPlayerStep</title>
<path fill="none" stroke="black" d="M2257.23,-89.77C2199.71,-74.78 2109.22,-51.18 2048.72,-35.41"/>
<polygon fill="black" stroke="black" points="2049.47,-31.99 2038.91,-32.85 2047.7,-38.76 2049.47,-31.99"/>
<text text-anchor="middle" x="2173.79" y="-57.8" font-family="Times,serif" font-size="14.00">1</text>
</g>
<!-- ric.func_8015CDE0 -->
<g id="node13" class="node">
<title>ric.func_8015CDE0</title>
<g id="a_node13"><a xlink:href="ric.func_8015CDE0.svg" xlink:title="ric.func_8015CDE0">
<ellipse fill="green" stroke="black" cx="2530.79" cy="-105" rx="100.98" ry="18"/>
<text text-anchor="middle" x="2530.79" y="-101.3" font-family="Times,serif" font-size="14.00">ric.func_8015CDE0</text>
</a>
</g>
</g>
<!-- ric.func_8015CDE0&#45;&gt;ric.SetPlayerStep -->
<g id="edge12" class="edge">
<title>ric.func_8015CDE0&#45;&gt;ric.SetPlayerStep</title>
<path fill="none" stroke="black" d="M2457.57,-92.58C2355.49,-76.66 2171.08,-47.9 2065.58,-31.44"/>
<polygon fill="black" stroke="black" points="2066.05,-27.97 2055.63,-29.89 2064.97,-34.89 2066.05,-27.97"/>
<text text-anchor="middle" x="2296.79" y="-57.8" font-family="Times,serif" font-size="14.00">1</text>
</g>
<!-- ric.func_8015CF08 -->
<g id="node14" class="node">
<title>ric.func_8015CF08</title>
<g id="a_node14"><a xlink:href="ric.func_8015CF08.svg" xlink:title="ric.func_8015CF08">
<ellipse fill="green" stroke="black" cx="2748.79" cy="-105" rx="98.58" ry="18"/>
<text text-anchor="middle" x="2748.79" y="-101.3" font-family="Times,serif" font-size="14.00">ric.func_8015CF08</text>
</a>
</g>
</g>
<!-- ric.func_8015CF08&#45;&gt;ric.SetPlayerStep -->
<g id="edge13" class="edge">
<title>ric.func_8015CF08&#45;&gt;ric.SetPlayerStep</title>
<path fill="none" stroke="black" d="M2678.28,-92.35C2665.81,-90.45 2652.93,-88.58 2640.79,-87 2441.01,-60.92 2205.89,-38.53 2078.76,-27.1"/>
<polygon fill="black" stroke="black" points="2078.95,-23.6 2068.67,-26.19 2078.32,-30.57 2078.95,-23.6"/>
<text text-anchor="middle" x="2484.79" y="-57.8" font-family="Times,serif" font-size="14.00">1</text>
</g>
<!-- ric.func_8015CC50 -->
<g id="node15" class="node">
<title>ric.func_8015CC50</title>
<g id="a_node15"><a xlink:href="ric.func_8015CC50.svg" xlink:title="ric.func_8015CC50">
<ellipse fill="green" stroke="black" cx="2964.79" cy="-105" rx="98.58" ry="18"/>
<text text-anchor="middle" x="2964.79" y="-101.3" font-family="Times,serif" font-size="14.00">ric.func_8015CC50</text>
</a>
</g>
</g>
<!-- ric.func_8015CC50&#45;&gt;ric.SetPlayerStep -->
<g id="edge14" class="edge">
<title>ric.func_8015CC50&#45;&gt;ric.SetPlayerStep</title>
<path fill="none" stroke="black" d="M2894.59,-92.27C2882.02,-90.36 2869.03,-88.52 2856.79,-87 2578.23,-52.45 2247.24,-32.32 2085.2,-23.81"/>
<polygon fill="black" stroke="black" points="2084.94,-20.29 2074.77,-23.27 2084.58,-27.28 2084.94,-20.29"/>
<text text-anchor="middle" x="2695.79" y="-57.8" font-family="Times,serif" font-size="14.00">1</text>
</g>
<!-- ric.func_8015D020 -->
<g id="node16" class="node">
<title>ric.func_8015D020</title>
<g id="a_node16"><a xlink:href="ric.func_8015D020.svg" xlink:title="ric.func_8015D020">
<ellipse fill="green" stroke="black" cx="3180.79" cy="-105" rx="98.58" ry="18"/>
<text text-anchor="middle" x="3180.79" y="-101.3" font-family="Times,serif" font-size="14.00">ric.func_8015D020</text>
</a>
</g>
</g>
<!-- ric.func_8015D020&#45;&gt;ric.SetPlayerStep -->
<g id="edge15" class="edge">
<title>ric.func_8015D020&#45;&gt;ric.SetPlayerStep</title>
<path fill="none" stroke="black" d="M3110.59,-92.25C3098.03,-90.35 3085.04,-88.51 3072.79,-87 2712.36,-42.52 2280.91,-26.51 2087.89,-21.28"/>
<polygon fill="black" stroke="black" points="2087.84,-17.78 2077.76,-21.01 2087.66,-24.78 2087.84,-17.78"/>
<text text-anchor="middle" x="2900.79" y="-57.8" font-family="Times,serif" font-size="14.00">1</text>
</g>
<!-- ric.func_8015D120 -->
<g id="node17" class="node">
<title>ric.func_8015D120</title>
<g id="a_node17"><a xlink:href="ric.func_8015D120.svg" xlink:title="ric.func_8015D120">
<ellipse fill="green" stroke="black" cx="3396.79" cy="-105" rx="98.58" ry="18"/>
<text text-anchor="middle" x="3396.79" y="-101.3" font-family="Times,serif" font-size="14.00">ric.func_8015D120</text>
</a>
</g>
</g>
<!-- ric.func_8015D120&#45;&gt;ric.SetPlayerStep -->
<g id="edge16" class="edge">
<title>ric.func_8015D120&#45;&gt;ric.SetPlayerStep</title>
<path fill="none" stroke="black" d="M3326.88,-92.27C3314.23,-90.36 3301.13,-88.51 3288.79,-87 3120.96,-66.51 3078.54,-64.54 2909.79,-54 2611.47,-35.37 2258.3,-25.33 2087.88,-21.23"/>
<polygon fill="black" stroke="black" points="2087.75,-17.73 2077.67,-20.99 2087.58,-24.73 2087.75,-17.73"/>
<text text-anchor="middle" x="3130.79" y="-57.8" font-family="Times,serif" font-size="14.00">1</text>
</g>
<!-- ric.func_8015CCC8 -->
<g id="node18" class="node">
<title>ric.func_8015CCC8</title>
<g id="a_node18"><a xlink:href="ric.func_8015CCC8.svg" xlink:title="ric.func_8015CCC8">
<ellipse fill="green" stroke="black" cx="3613.79" cy="-105" rx="100.18" ry="18"/>
<text text-anchor="middle" x="3613.79" y="-101.3" font-family="Times,serif" font-size="14.00">ric.func_8015CCC8</text>
</a>
</g>
</g>
<!-- ric.func_8015CCC8&#45;&gt;ric.SetPlayerStep -->
<g id="edge17" class="edge">
<title>ric.func_8015CCC8&#45;&gt;ric.SetPlayerStep</title>
<path fill="none" stroke="black" d="M3542.94,-92.27C3530.26,-90.36 3517.15,-88.52 3504.79,-87 3343.13,-67.11 3302.38,-63.81 3139.79,-54 2752.13,-30.62 2290.23,-22.58 2088.53,-20.05"/>
<polygon fill="black" stroke="black" points="2088.29,-16.55 2078.25,-19.93 2088.2,-23.55 2088.29,-16.55"/>
<text text-anchor="middle" x="3345.79" y="-57.8" font-family="Times,serif" font-size="14.00">1</text>
</g>
<!-- ric.func_8015C2A8 -->
<g id="node19" class="node">
<title>ric.func_8015C2A8</title>
<g id="a_node19"><a xlink:href="ric.func_8015C2A8.svg" xlink:title="ric.func_8015C2A8">
<ellipse fill="green" stroke="black" cx="3830.79" cy="-105" rx="98.58" ry="18"/>
<text text-anchor="middle" x="3830.79" y="-101.3" font-family="Times,serif" font-size="14.00">ric.func_8015C2A8</text>
</a>
</g>
</g>
<!-- ric.func_8015C2A8&#45;&gt;ric.SetPlayerStep -->
<g id="edge18" class="edge">
<title>ric.func_8015C2A8&#45;&gt;ric.SetPlayerStep</title>
<path fill="none" stroke="black" d="M3760.59,-92.25C3748.03,-90.35 3735.04,-88.51 3722.79,-87 3559.82,-66.89 3518.73,-63.44 3354.79,-54 2882.58,-26.82 2317.54,-20.75 2089.12,-19.39"/>
<polygon fill="black" stroke="black" points="2088.85,-15.89 2078.83,-19.33 2088.81,-22.89 2088.85,-15.89"/>
<text text-anchor="middle" x="3568.79" y="-57.8" font-family="Times,serif" font-size="14.00">1</text>
</g>
</g>
</svg>
