<?xml version="1.0" encoding="UTF-8" standalone="no"?>
<!DOCTYPE svg PUBLIC "-//W3C//DTD SVG 1.1//EN"
 "http://www.w3.org/Graphics/SVG/1.1/DTD/svg11.dtd">
<!-- Generated by graphviz version 2.43.0 (0)
 -->
<!-- Title: ric.func_8015FAB8 Pages: 1 -->
<svg width="5359pt" height="404pt"
 viewBox="0.00 0.00 5359.28 404.00" xmlns="http://www.w3.org/2000/svg" xmlns:xlink="http://www.w3.org/1999/xlink">
<g id="graph0" class="graph" transform="scale(1 1) rotate(0) translate(4 400)">
<title>ric.func_8015FAB8</title>
<polygon fill="white" stroke="transparent" points="-4,4 -4,-400 5355.28,-400 5355.28,4 -4,4"/>
<!-- ric.func_8015FAB8 -->
<g id="node1" class="node">
<title>ric.func_8015FAB8</title>
<ellipse fill="green" stroke="black" cx="2673.14" cy="-198" rx="98.28" ry="18"/>
<text text-anchor="middle" x="2673.14" y="-194.3" font-family="Times,serif" font-size="14.00">ric.func_8015FAB8</text>
</g>
<!-- dra.func_800FD664 -->
<g id="node2" class="node">
<title>dra.func_800FD664</title>
<g id="a_node2"><a xlink:href="dra.func_800FD664.svg" xlink:title="dra.func_800FD664">
<ellipse fill="green" stroke="black" cx="2564.14" cy="-18" rx="102.88" ry="18"/>
<text text-anchor="middle" x="2564.14" y="-14.3" font-family="Times,serif" font-size="14.00">dra.func_800FD664</text>
</a>
</g>
</g>
<!-- ric.func_8015FAB8&#45;&gt;dra.func_800FD664 -->
<g id="edge1" class="edge">
<title>ric.func_8015FAB8&#45;&gt;dra.func_800FD664</title>
<path fill="none" stroke="black" d="M2662.69,-179.93C2643.48,-148.57 2602.48,-81.6 2579.88,-44.71"/>
<polygon fill="black" stroke="black" points="2582.77,-42.72 2574.56,-36.02 2576.8,-46.37 2582.77,-42.72"/>
<text text-anchor="middle" x="2569.56" y="-39.82" font-family="Times,serif" font-size="14.00">1</text>
</g>
<!-- ric.func_8015F9F0 -->
<g id="node3" class="node">
<title>ric.func_8015F9F0</title>
<g id="a_node3"><a xlink:href="ric.func_8015F9F0.svg" xlink:title="ric.func_8015F9F0">
<ellipse fill="red" stroke="black" cx="2783.14" cy="-18" rx="98.28" ry="18"/>
<text text-anchor="middle" x="2783.14" y="-14.3" font-family="Times,serif" font-size="14.00">ric.func_8015F9F0</text>
</a>
</g>
</g>
<!-- ric.func_8015FAB8&#45;&gt;ric.func_8015F9F0 -->
<g id="edge2" class="edge">
<title>ric.func_8015FAB8&#45;&gt;ric.func_8015F9F0</title>
<path fill="none" stroke="black" d="M2683.69,-179.93C2703.07,-148.57 2744.45,-81.6 2767.25,-44.71"/>
<polygon fill="black" stroke="black" points="2770.35,-46.36 2772.63,-36.02 2764.39,-42.68 2770.35,-46.36"/>
<text text-anchor="middle" x="2767.63" y="-39.82" font-family="Times,serif" font-size="14.00">1</text>
</g>
<!-- ric.func_80160C38 -->
<g id="node4" class="node">
<title>ric.func_80160C38</title>
<g id="a_node4"><a xlink:href="ric.func_80160C38.svg" xlink:title="ric.func_80160C38">
<ellipse fill="green" stroke="black" cx="98.14" cy="-378" rx="98.28" ry="18"/>
<text text-anchor="middle" x="98.14" y="-374.3" font-family="Times,serif" font-size="14.00">ric.func_80160C38</text>
</a>
</g>
</g>
<!-- ric.func_80160C38&#45;&gt;ric.func_8015FAB8 -->
<g id="edge3" class="edge">
<title>ric.func_80160C38&#45;&gt;ric.func_8015FAB8</title>
<path fill="none" stroke="black" d="M167.15,-365.18C180.08,-363.24 193.5,-361.4 206.14,-360 1117.02,-258.8 2224.71,-214.41 2567.18,-202.47"/>
<polygon fill="black" stroke="black" points="2567.46,-205.96 2577.33,-202.12 2567.22,-198.96 2567.46,-205.96"/>
<text text-anchor="middle" x="162.15" y="-353.98" font-family="Times,serif" font-size="14.00">1</text>
</g>
<!-- ric.func_80160D2C -->
<g id="node5" class="node">
<title>ric.func_80160D2C</title>
<g id="a_node5"><a xlink:href="ric.func_80160D2C.svg" xlink:title="ric.func_80160D2C">
<ellipse fill="green" stroke="black" cx="314.14" cy="-378" rx="99.38" ry="18"/>
<text text-anchor="middle" x="314.14" y="-374.3" font-family="Times,serif" font-size="14.00">ric.func_80160D2C</text>
</a>
</g>
</g>
<!-- ric.func_80160D2C&#45;&gt;ric.func_8015FAB8 -->
<g id="edge4" class="edge">
<title>ric.func_80160D2C&#45;&gt;ric.func_8015FAB8</title>
<path fill="none" stroke="black" d="M384.03,-365.11C396.69,-363.21 409.79,-361.41 422.14,-360 1246.22,-265.84 2246.71,-217.31 2568.29,-203.34"/>
<polygon fill="black" stroke="black" points="2568.68,-206.82 2578.52,-202.89 2568.38,-199.83 2568.68,-206.82"/>
<text text-anchor="middle" x="379.03" y="-353.91" font-family="Times,serif" font-size="14.00">1</text>
</g>
<!-- ric.func_80160E4C -->
<g id="node6" class="node">
<title>ric.func_80160E4C</title>
<g id="a_node6"><a xlink:href="ric.func_80160E4C.svg" xlink:title="ric.func_80160E4C">
<ellipse fill="green" stroke="black" cx="530.14" cy="-378" rx="98.58" ry="18"/>
<text text-anchor="middle" x="530.14" y="-374.3" font-family="Times,serif" font-size="14.00">ric.func_80160E4C</text>
</a>
</g>
</g>
<!-- ric.func_80160E4C&#45;&gt;ric.func_8015FAB8 -->
<g id="edge5" class="edge">
<title>ric.func_80160E4C&#45;&gt;ric.func_8015FAB8</title>
<path fill="none" stroke="black" d="M600.04,-365.19C612.7,-363.28 625.79,-361.46 638.14,-360 1375.98,-272.87 2270.06,-220.48 2569.69,-204.36"/>
<polygon fill="black" stroke="black" points="2570.3,-207.83 2580.1,-203.8 2569.92,-200.84 2570.3,-207.83"/>
<text text-anchor="middle" x="595.04" y="-353.99" font-family="Times,serif" font-size="14.00">1</text>
</g>
<!-- ric.func_80160F0C -->
<g id="node7" class="node">
<title>ric.func_80160F0C</title>
<g id="a_node7"><a xlink:href="ric.func_80160F0C.svg" xlink:title="ric.func_80160F0C">
<ellipse fill="green" stroke="black" cx="746.14" cy="-378" rx="98.58" ry="18"/>
<text text-anchor="middle" x="746.14" y="-374.3" font-family="Times,serif" font-size="14.00">ric.func_80160F0C</text>
</a>
</g>
</g>
<!-- ric.func_80160F0C&#45;&gt;ric.func_8015FAB8 -->
<g id="edge6" class="edge">
<title>ric.func_80160F0C&#45;&gt;ric.func_8015FAB8</title>
<path fill="none" stroke="black" d="M816.34,-365.24C828.91,-363.34 841.9,-361.5 854.14,-360 1506.88,-279.83 2296.12,-223.87 2572.07,-205.53"/>
<polygon fill="black" stroke="black" points="2572.32,-209.02 2582.06,-204.87 2571.85,-202.04 2572.32,-209.02"/>
<text text-anchor="middle" x="811.34" y="-354.04" font-family="Times,serif" font-size="14.00">1</text>
</g>
<!-- ric.func_80166784 -->
<g id="node8" class="node">
<title>ric.func_80166784</title>
<g id="a_node8"><a xlink:href="ric.func_80166784.svg" xlink:title="ric.func_80166784">
<ellipse fill="red" stroke="black" cx="960.14" cy="-378" rx="96.68" ry="18"/>
<text text-anchor="middle" x="960.14" y="-374.3" font-family="Times,serif" font-size="14.00">ric.func_80166784</text>
</a>
</g>
</g>
<!-- ric.func_80166784&#45;&gt;ric.func_8015FAB8 -->
<g id="edge7" class="edge">
<title>ric.func_80166784&#45;&gt;ric.func_8015FAB8</title>
<path fill="none" stroke="black" d="M1029.05,-365.34C1041.38,-363.43 1054.13,-361.56 1066.14,-360 1635.88,-285.84 2323.13,-227.25 2574.75,-206.82"/>
<polygon fill="black" stroke="black" points="2575.28,-210.29 2584.96,-205.99 2574.71,-203.31 2575.28,-210.29"/>
<text text-anchor="middle" x="1024.05" y="-354.14" font-family="Times,serif" font-size="14.00">1</text>
</g>
<!-- ric.func_80167EC4 -->
<g id="node9" class="node">
<title>ric.func_80167EC4</title>
<g id="a_node9"><a xlink:href="ric.func_80167EC4.svg" xlink:title="ric.func_80167EC4">
<ellipse fill="red" stroke="black" cx="1174.14" cy="-378" rx="98.58" ry="18"/>
<text text-anchor="middle" x="1174.14" y="-374.3" font-family="Times,serif" font-size="14.00">ric.func_80167EC4</text>
</a>
</g>
</g>
<!-- ric.func_80167EC4&#45;&gt;ric.func_8015FAB8 -->
<g id="edge8" class="edge">
<title>ric.func_80167EC4&#45;&gt;ric.func_8015FAB8</title>
<path fill="none" stroke="black" d="M1244.96,-365.43C1257.34,-363.53 1270.11,-361.64 1282.14,-360 1769.34,-293.49 2355.01,-231.57 2579.41,-208.51"/>
<polygon fill="black" stroke="black" points="2579.91,-211.98 2589.5,-207.48 2579.2,-205.01 2579.91,-211.98"/>
<text text-anchor="middle" x="1239.96" y="-354.23" font-family="Times,serif" font-size="14.00">1</text>
</g>
<!-- ric.func_801684D8 -->
<g id="node10" class="node">
<title>ric.func_801684D8</title>
<g id="a_node10"><a xlink:href="ric.func_801684D8.svg" xlink:title="ric.func_801684D8">
<ellipse fill="red" stroke="black" cx="1390.14" cy="-378" rx="98.58" ry="18"/>
<text text-anchor="middle" x="1390.14" y="-374.3" font-family="Times,serif" font-size="14.00">ric.func_801684D8</text>
</a>
</g>
</g>
<!-- ric.func_801684D8&#45;&gt;ric.func_8015FAB8 -->
<g id="edge9" class="edge">
<title>ric.func_801684D8&#45;&gt;ric.func_8015FAB8</title>
<path fill="none" stroke="black" d="M1461.57,-365.55C1473.76,-363.66 1486.31,-361.74 1498.14,-360 1904.09,-300.24 2390.06,-235.96 2585.46,-210.41"/>
<polygon fill="black" stroke="black" points="2585.92,-213.88 2595.38,-209.11 2585.01,-206.93 2585.92,-213.88"/>
<text text-anchor="middle" x="1456.57" y="-354.35" font-family="Times,serif" font-size="14.00">1</text>
</g>
<!-- ric.func_80168A20 -->
<g id="node11" class="node">
<title>ric.func_80168A20</title>
<g id="a_node11"><a xlink:href="ric.func_80168A20.svg" xlink:title="ric.func_80168A20">
<ellipse fill="red" stroke="black" cx="1604.14" cy="-378" rx="97.48" ry="18"/>
<text text-anchor="middle" x="1604.14" y="-374.3" font-family="Times,serif" font-size="14.00">ric.func_80168A20</text>
</a>
</g>
</g>
<!-- ric.func_80168A20&#45;&gt;ric.func_8015FAB8 -->
<g id="edge10" class="edge">
<title>ric.func_80168A20&#45;&gt;ric.func_8015FAB8</title>
<path fill="none" stroke="black" d="M1673.87,-365.39C1864.09,-333.72 2391.21,-245.94 2593.07,-212.33"/>
<polygon fill="black" stroke="black" points="2593.73,-215.77 2603.02,-210.68 2592.58,-208.87 2593.73,-215.77"/>
<text text-anchor="middle" x="1668.87" y="-354.19" font-family="Times,serif" font-size="14.00">1</text>
</g>
<!-- ric.func_8016902C -->
<g id="node12" class="node">
<title>ric.func_8016902C</title>
<g id="a_node12"><a xlink:href="ric.func_8016902C.svg" xlink:title="ric.func_8016902C">
<ellipse fill="red" stroke="black" cx="1818.14" cy="-378" rx="98.28" ry="18"/>
<text text-anchor="middle" x="1818.14" y="-374.3" font-family="Times,serif" font-size="14.00">ric.func_8016902C</text>
</a>
</g>
</g>
<!-- ric.func_8016902C&#45;&gt;ric.func_8015FAB8 -->
<g id="edge11" class="edge">
<title>ric.func_8016902C&#45;&gt;ric.func_8015FAB8</title>
<path fill="none" stroke="black" d="M1880.32,-364.06C2034.92,-331.87 2436.1,-248.35 2600.87,-214.05"/>
<polygon fill="black" stroke="black" points="2601.83,-217.42 2610.91,-211.96 2600.4,-210.57 2601.83,-217.42"/>
<text text-anchor="middle" x="1875.32" y="-352.86" font-family="Times,serif" font-size="14.00">1</text>
</g>
<!-- ric.func_80169704 -->
<g id="node13" class="node">
<title>ric.func_80169704</title>
<g id="a_node13"><a xlink:href="ric.func_80169704.svg" xlink:title="ric.func_80169704">
<ellipse fill="red" stroke="black" cx="2031.14" cy="-378" rx="96.68" ry="18"/>
<text text-anchor="middle" x="2031.14" y="-374.3" font-family="Times,serif" font-size="14.00">ric.func_80169704</text>
</a>
</g>
</g>
<!-- ric.func_80169704&#45;&gt;ric.func_8015FAB8 -->
<g id="edge12" class="edge">
<title>ric.func_80169704&#45;&gt;ric.func_8015FAB8</title>
<path fill="none" stroke="black" d="M2082.59,-362.73C2199.63,-330.28 2485.39,-251.06 2611.55,-216.08"/>
<polygon fill="black" stroke="black" points="2612.74,-219.38 2621.44,-213.33 2610.87,-212.63 2612.74,-219.38"/>
<text text-anchor="middle" x="2077.59" y="-351.53" font-family="Times,serif" font-size="14.00">1</text>
</g>
<!-- ric.func_8016A26C -->
<g id="node14" class="node">
<title>ric.func_8016A26C</title>
<g id="a_node14"><a xlink:href="ric.func_8016A26C.svg" xlink:title="ric.func_8016A26C">
<ellipse fill="red" stroke="black" cx="2245.14" cy="-378" rx="98.58" ry="18"/>
<text text-anchor="middle" x="2245.14" y="-374.3" font-family="Times,serif" font-size="14.00">ric.func_8016A26C</text>
</a>
</g>
</g>
<!-- ric.func_8016A26C&#45;&gt;ric.func_8015FAB8 -->
<g id="edge13" class="edge">
<title>ric.func_8016A26C&#45;&gt;ric.func_8015FAB8</title>
<path fill="none" stroke="black" d="M2283.12,-361.2C2361.43,-328.64 2540.62,-254.12 2626.1,-218.57"/>
<polygon fill="black" stroke="black" points="2627.66,-221.71 2635.55,-214.63 2624.97,-215.24 2627.66,-221.71"/>
<text text-anchor="middle" x="2278.12" y="-350" font-family="Times,serif" font-size="14.00">1</text>
</g>
<!-- ric.func_8016A974 -->
<g id="node15" class="node">
<title>ric.func_8016A974</title>
<g id="a_node15"><a xlink:href="ric.func_8016A974.svg" xlink:title="ric.func_8016A974">
<ellipse fill="red" stroke="black" cx="2459.14" cy="-378" rx="97.48" ry="18"/>
<text text-anchor="middle" x="2459.14" y="-374.3" font-family="Times,serif" font-size="14.00">ric.func_8016A974</text>
</a>
</g>
</g>
<!-- ric.func_8016A974&#45;&gt;ric.func_8015FAB8 -->
<g id="edge14" class="edge">
<title>ric.func_8016A974&#45;&gt;ric.func_8015FAB8</title>
<path fill="none" stroke="black" d="M2479.27,-360.25C2517.67,-328.32 2601.43,-258.65 2645.22,-222.23"/>
<polygon fill="black" stroke="black" points="2647.46,-224.92 2652.91,-215.83 2642.98,-219.53 2647.46,-224.92"/>
<text text-anchor="middle" x="2474.27" y="-349.05" font-family="Times,serif" font-size="14.00">1</text>
</g>
<!-- ric.func_8016B0C0 -->
<g id="node16" class="node">
<title>ric.func_8016B0C0</title>
<g id="a_node16"><a xlink:href="ric.func_8016B0C0.svg" xlink:title="ric.func_8016B0C0">
<ellipse fill="red" stroke="black" cx="2673.14" cy="-378" rx="98.58" ry="18"/>
<text text-anchor="middle" x="2673.14" y="-374.3" font-family="Times,serif" font-size="14.00">ric.func_8016B0C0</text>
</a>
</g>
</g>
<!-- ric.func_8016B0C0&#45;&gt;ric.func_8015FAB8 -->
<g id="edge15" class="edge">
<title>ric.func_8016B0C0&#45;&gt;ric.func_8015FAB8</title>
<path fill="none" stroke="black" d="M2673.14,-359.93C2673.14,-328.97 2673.14,-263.3 2673.14,-226.13"/>
<polygon fill="black" stroke="black" points="2676.64,-226.02 2673.14,-216.02 2669.64,-226.02 2676.64,-226.02"/>
<text text-anchor="middle" x="2668.14" y="-348.73" font-family="Times,serif" font-size="14.00">1</text>
</g>
<!-- ric.func_8016B97C -->
<g id="node17" class="node">
<title>ric.func_8016B97C</title>
<g id="a_node17"><a xlink:href="ric.func_8016B97C.svg" xlink:title="ric.func_8016B97C">
<ellipse fill="red" stroke="black" cx="2889.14" cy="-378" rx="98.58" ry="18"/>
<text text-anchor="middle" x="2889.14" y="-374.3" font-family="Times,serif" font-size="14.00">ric.func_8016B97C</text>
</a>
</g>
</g>
<!-- ric.func_8016B97C&#45;&gt;ric.func_8015FAB8 -->
<g id="edge16" class="edge">
<title>ric.func_8016B97C&#45;&gt;ric.func_8015FAB8</title>
<path fill="none" stroke="black" d="M2868.82,-360.25C2830.06,-328.32 2745.52,-258.65 2701.33,-222.23"/>
<polygon fill="black" stroke="black" points="2703.51,-219.49 2693.57,-215.83 2699.06,-224.89 2703.51,-219.49"/>
<text text-anchor="middle" x="2863.82" y="-349.05" font-family="Times,serif" font-size="14.00">1</text>
</g>
<!-- ric.func_8016C1BC -->
<g id="node18" class="node">
<title>ric.func_8016C1BC</title>
<g id="a_node18"><a xlink:href="ric.func_8016C1BC.svg" xlink:title="ric.func_8016C1BC">
<ellipse fill="red" stroke="black" cx="3106.14" cy="-378" rx="100.18" ry="18"/>
<text text-anchor="middle" x="3106.14" y="-374.3" font-family="Times,serif" font-size="14.00">ric.func_8016C1BC</text>
</a>
</g>
</g>
<!-- ric.func_8016C1BC&#45;&gt;ric.func_8015FAB8 -->
<g id="edge17" class="edge">
<title>ric.func_8016C1BC&#45;&gt;ric.func_8015FAB8</title>
<path fill="none" stroke="black" d="M3067.72,-361.2C2988.42,-328.6 2806.85,-253.96 2720.47,-218.46"/>
<polygon fill="black" stroke="black" points="2721.75,-215.2 2711.17,-214.63 2719.09,-221.67 2721.75,-215.2"/>
<text text-anchor="middle" x="3062.72" y="-350" font-family="Times,serif" font-size="14.00">1</text>
</g>
<!-- ric.func_8016C734 -->
<g id="node19" class="node">
<title>ric.func_8016C734</title>
<g id="a_node19"><a xlink:href="ric.func_8016C734.svg" xlink:title="ric.func_8016C734">
<ellipse fill="red" stroke="black" cx="3322.14" cy="-378" rx="98.28" ry="18"/>
<text text-anchor="middle" x="3322.14" y="-374.3" font-family="Times,serif" font-size="14.00">ric.func_8016C734</text>
</a>
</g>
</g>
<!-- ric.func_8016C734&#45;&gt;ric.func_8015FAB8 -->
<g id="edge18" class="edge">
<title>ric.func_8016C734&#45;&gt;ric.func_8015FAB8</title>
<path fill="none" stroke="black" d="M3270.13,-362.73C3151.81,-330.28 2862.94,-251.06 2735.4,-216.08"/>
<polygon fill="black" stroke="black" points="2735.97,-212.6 2725.4,-213.33 2734.12,-219.35 2735.97,-212.6"/>
<text text-anchor="middle" x="3265.13" y="-351.53" font-family="Times,serif" font-size="14.00">1</text>
</g>
<!-- ric.func_8016D328 -->
<g id="node20" class="node">
<title>ric.func_8016D328</title>
<g id="a_node20"><a xlink:href="ric.func_8016D328.svg" xlink:title="ric.func_8016D328">
<ellipse fill="green" stroke="black" cx="3537.14" cy="-378" rx="98.58" ry="18"/>
<text text-anchor="middle" x="3537.14" y="-374.3" font-family="Times,serif" font-size="14.00">ric.func_8016D328</text>
</a>
</g>
</g>
<!-- ric.func_8016D328&#45;&gt;ric.func_8015FAB8 -->
<g id="edge19" class="edge">
<title>ric.func_8016D328&#45;&gt;ric.func_8015FAB8</title>
<path fill="none" stroke="black" d="M3474.31,-364.06C3317.98,-331.85 2912.18,-248.25 2745.87,-213.98"/>
<polygon fill="black" stroke="black" points="2746.24,-210.49 2735.74,-211.9 2744.83,-217.34 2746.24,-210.49"/>
<text text-anchor="middle" x="3469.31" y="-352.86" font-family="Times,serif" font-size="14.00">1</text>
</g>
<!-- ric.func_8016D920 -->
<g id="node21" class="node">
<title>ric.func_8016D920</title>
<g id="a_node21"><a xlink:href="ric.func_8016D920.svg" xlink:title="ric.func_8016D920">
<ellipse fill="green" stroke="black" cx="3753.14" cy="-378" rx="98.58" ry="18"/>
<text text-anchor="middle" x="3753.14" y="-374.3" font-family="Times,serif" font-size="14.00">ric.func_8016D920</text>
</a>
</g>
</g>
<!-- ric.func_8016D920&#45;&gt;ric.func_8015FAB8 -->
<g id="edge20" class="edge">
<title>ric.func_8016D920&#45;&gt;ric.func_8015FAB8</title>
<path fill="none" stroke="black" d="M3682.28,-365.32C3489.61,-333.57 2957.03,-245.79 2753.58,-212.26"/>
<polygon fill="black" stroke="black" points="2754,-208.78 2743.56,-210.61 2752.86,-215.69 2754,-208.78"/>
<text text-anchor="middle" x="3677.28" y="-354.12" font-family="Times,serif" font-size="14.00">1</text>
</g>
<!-- ric.func_8016DF74 -->
<g id="node22" class="node">
<title>ric.func_8016DF74</title>
<g id="a_node22"><a xlink:href="ric.func_8016DF74.svg" xlink:title="ric.func_8016DF74">
<ellipse fill="red" stroke="black" cx="3969.14" cy="-378" rx="98.58" ry="18"/>
<text text-anchor="middle" x="3969.14" y="-374.3" font-family="Times,serif" font-size="14.00">ric.func_8016DF74</text>
</a>
</g>
</g>
<!-- ric.func_8016DF74&#45;&gt;ric.func_8015FAB8 -->
<g id="edge21" class="edge">
<title>ric.func_8016DF74&#45;&gt;ric.func_8015FAB8</title>
<path fill="none" stroke="black" d="M3897.72,-365.54C3885.52,-363.64 3872.97,-361.73 3861.14,-360 3450.23,-299.82 2958.16,-235.65 2761.07,-210.26"/>
<polygon fill="black" stroke="black" points="2761.43,-206.78 2751.06,-208.97 2760.53,-213.72 2761.43,-206.78"/>
<text text-anchor="middle" x="3892.72" y="-354.34" font-family="Times,serif" font-size="14.00">1</text>
</g>
<!-- ric.func_8016E46C -->
<g id="node23" class="node">
<title>ric.func_8016E46C</title>
<g id="a_node23"><a xlink:href="ric.func_8016E46C.svg" xlink:title="ric.func_8016E46C">
<ellipse fill="red" stroke="black" cx="4185.14" cy="-378" rx="98.58" ry="18"/>
<text text-anchor="middle" x="4185.14" y="-374.3" font-family="Times,serif" font-size="14.00">ric.func_8016E46C</text>
</a>
</g>
</g>
<!-- ric.func_8016E46C&#45;&gt;ric.func_8015FAB8 -->
<g id="edge22" class="edge">
<title>ric.func_8016E46C&#45;&gt;ric.func_8015FAB8</title>
<path fill="none" stroke="black" d="M4114.33,-365.42C4101.95,-363.52 4089.18,-361.64 4077.14,-360 3585.11,-293.09 2993.53,-231.35 2767.34,-208.42"/>
<polygon fill="black" stroke="black" points="2767.47,-204.92 2757.17,-207.39 2766.76,-211.88 2767.47,-204.92"/>
<text text-anchor="middle" x="4109.33" y="-354.22" font-family="Times,serif" font-size="14.00">1</text>
</g>
<!-- ric.func_80170548 -->
<g id="node24" class="node">
<title>ric.func_80170548</title>
<g id="a_node24"><a xlink:href="ric.func_80170548.svg" xlink:title="ric.func_80170548">
<ellipse fill="green" stroke="black" cx="4399.14" cy="-378" rx="96.68" ry="18"/>
<text text-anchor="middle" x="4399.14" y="-374.3" font-family="Times,serif" font-size="14.00">ric.func_80170548</text>
</a>
</g>
</g>
<!-- ric.func_80170548&#45;&gt;ric.func_8015FAB8 -->
<g id="edge23" class="edge">
<title>ric.func_80170548&#45;&gt;ric.func_8015FAB8</title>
<path fill="none" stroke="black" d="M4330.23,-365.33C4317.9,-363.42 4305.16,-361.56 4293.14,-360 3718.46,-285.43 3025.16,-227.03 2771.87,-206.74"/>
<polygon fill="black" stroke="black" points="2771.84,-203.22 2761.6,-205.91 2771.28,-210.2 2771.84,-203.22"/>
<text text-anchor="middle" x="4325.23" y="-354.13" font-family="Times,serif" font-size="14.00">1</text>
</g>
<!-- ric.func_80170F64 -->
<g id="node25" class="node">
<title>ric.func_80170F64</title>
<g id="a_node25"><a xlink:href="ric.func_80170F64.svg" xlink:title="ric.func_80170F64">
<ellipse fill="red" stroke="black" cx="4611.14" cy="-378" rx="97.48" ry="18"/>
<text text-anchor="middle" x="4611.14" y="-374.3" font-family="Times,serif" font-size="14.00">ric.func_80170F64</text>
</a>
</g>
</g>
<!-- ric.func_80170F64&#45;&gt;ric.func_8015FAB8 -->
<g id="edge24" class="edge">
<title>ric.func_80170F64&#45;&gt;ric.func_8015FAB8</title>
<path fill="none" stroke="black" d="M4542.25,-365.22C4529.91,-363.32 4517.16,-361.49 4505.14,-360 3847.48,-278.47 3051.96,-223.31 2774.46,-205.35"/>
<polygon fill="black" stroke="black" points="2774.61,-201.86 2764.41,-204.71 2774.16,-208.84 2774.61,-201.86"/>
<text text-anchor="middle" x="4537.25" y="-354.02" font-family="Times,serif" font-size="14.00">1</text>
</g>
<!-- ric.func_801719A4 -->
<g id="node26" class="node">
<title>ric.func_801719A4</title>
<g id="a_node26"><a xlink:href="ric.func_801719A4.svg" xlink:title="ric.func_801719A4">
<ellipse fill="red" stroke="black" cx="4824.14" cy="-378" rx="97.48" ry="18"/>
<text text-anchor="middle" x="4824.14" y="-374.3" font-family="Times,serif" font-size="14.00">ric.func_801719A4</text>
</a>
</g>
</g>
<!-- ric.func_801719A4&#45;&gt;ric.func_8015FAB8 -->
<g id="edge25" class="edge">
<title>ric.func_801719A4&#45;&gt;ric.func_8015FAB8</title>
<path fill="none" stroke="black" d="M4755.18,-365.22C4742.55,-363.3 4729.47,-361.46 4717.14,-360 3975.52,-272.02 3076.62,-220.11 2776.35,-204.24"/>
<polygon fill="black" stroke="black" points="2776.52,-200.75 2766.35,-203.71 2776.15,-207.74 2776.52,-200.75"/>
<text text-anchor="middle" x="4750.18" y="-354.02" font-family="Times,serif" font-size="14.00">1</text>
</g>
<!-- ric.func_80172D00 -->
<g id="node27" class="node">
<title>ric.func_80172D00</title>
<g id="a_node27"><a xlink:href="ric.func_80172D00.svg" xlink:title="ric.func_80172D00">
<ellipse fill="red" stroke="black" cx="5038.14" cy="-378" rx="98.58" ry="18"/>
<text text-anchor="middle" x="5038.14" y="-374.3" font-family="Times,serif" font-size="14.00">ric.func_80172D00</text>
</a>
</g>
</g>
<!-- ric.func_80172D00&#45;&gt;ric.func_8015FAB8 -->
<g id="edge26" class="edge">
<title>ric.func_80172D00&#45;&gt;ric.func_8015FAB8</title>
<path fill="none" stroke="black" d="M4968.54,-365.16C4955.8,-363.24 4942.59,-361.42 4930.14,-360 4103.63,-265.64 3100.13,-217.22 2777.99,-203.31"/>
<polygon fill="black" stroke="black" points="2777.88,-199.8 2767.74,-202.87 2777.58,-206.79 2777.88,-199.8"/>
<text text-anchor="middle" x="4963.54" y="-353.96" font-family="Times,serif" font-size="14.00">1</text>
</g>
<!-- ric.func_8017328C -->
<g id="node28" class="node">
<title>ric.func_8017328C</title>
<g id="a_node28"><a xlink:href="ric.func_8017328C.svg" xlink:title="ric.func_8017328C">
<ellipse fill="red" stroke="black" cx="5253.14" cy="-378" rx="98.28" ry="18"/>
<text text-anchor="middle" x="5253.14" y="-374.3" font-family="Times,serif" font-size="14.00">ric.func_8017328C</text>
</a>
</g>
</g>
<!-- ric.func_8017328C&#45;&gt;ric.func_8015FAB8 -->
<g id="edge27" class="edge">
<title>ric.func_8017328C&#45;&gt;ric.func_8015FAB8</title>
<path fill="none" stroke="black" d="M5184.49,-365.13C5171.76,-363.2 5158.57,-361.39 5146.14,-360 4232.86,-257.94 3122.04,-214.11 2779.07,-202.39"/>
<polygon fill="black" stroke="black" points="2779.02,-198.89 2768.9,-202.04 2778.78,-205.88 2779.02,-198.89"/>
<text text-anchor="middle" x="5179.49" y="-353.93" font-family="Times,serif" font-size="14.00">1</text>
</g>
</g>
</svg>
