<?xml version="1.0" encoding="UTF-8" standalone="no"?>
<!DOCTYPE svg PUBLIC "-//W3C//DTD SVG 1.1//EN"
 "http://www.w3.org/Graphics/SVG/1.1/DTD/svg11.dtd">
<!-- Generated by graphviz version 2.43.0 (0)
 -->
<!-- Title: ric.func_8015B898 Pages: 1 -->
<svg width="1076pt" height="404pt"
 viewBox="0.00 0.00 1075.58 404.00" xmlns="http://www.w3.org/2000/svg" xmlns:xlink="http://www.w3.org/1999/xlink">
<g id="graph0" class="graph" transform="scale(1 1) rotate(0) translate(4 400)">
<title>ric.func_8015B898</title>
<polygon fill="white" stroke="transparent" points="-4,4 -4,-400 1071.58,-400 1071.58,4 -4,4"/>
<!-- ric.func_8015B898 -->
<g id="node1" class="node">
<title>ric.func_8015B898</title>
<ellipse fill="red" stroke="black" cx="532.79" cy="-198" rx="98.28" ry="18"/>
<text text-anchor="middle" x="532.79" y="-194.3" font-family="Times,serif" font-size="14.00">ric.func_8015B898</text>
</g>
<!-- ric.func_8015C93C -->
<g id="node2" class="node">
<title>ric.func_8015C93C</title>
<g id="a_node2"><a xlink:href="ric.func_8015C93C.svg" xlink:title="ric.func_8015C93C">
<ellipse fill="green" stroke="black" cx="98.79" cy="-18" rx="98.58" ry="18"/>
<text text-anchor="middle" x="98.79" y="-14.3" font-family="Times,serif" font-size="14.00">ric.func_8015C93C</text>
</a>
</g>
</g>
<!-- ric.func_8015B898&#45;&gt;ric.func_8015C93C -->
<g id="edge1" class="edge">
<title>ric.func_8015B898&#45;&gt;ric.func_8015C93C</title>
<path fill="none" stroke="black" d="M494.66,-181.36C415.41,-148.86 233.09,-74.08 146.34,-38.5"/>
<polygon fill="black" stroke="black" points="147.57,-35.22 136.99,-34.67 144.92,-41.7 147.57,-35.22"/>
<text text-anchor="middle" x="131.99" y="-38.47" font-family="Times,serif" font-size="14.00">1</text>
</g>
<!-- ric.func_8015CCC8 -->
<g id="node3" class="node">
<title>ric.func_8015CCC8</title>
<g id="a_node3"><a xlink:href="ric.func_8015CCC8.svg" xlink:title="ric.func_8015CCC8">
<ellipse fill="green" stroke="black" cx="315.79" cy="-18" rx="100.18" ry="18"/>
<text text-anchor="middle" x="315.79" y="-14.3" font-family="Times,serif" font-size="14.00">ric.func_8015CCC8</text>
</a>
</g>
</g>
<!-- ric.func_8015B898&#45;&gt;ric.func_8015CCC8 -->
<g id="edge2" class="edge">
<title>ric.func_8015B898&#45;&gt;ric.func_8015CCC8</title>
<path fill="none" stroke="black" d="M512.38,-180.25C473.44,-148.32 388.51,-78.65 344.11,-42.23"/>
<polygon fill="black" stroke="black" points="346.26,-39.47 336.31,-35.83 341.82,-44.88 346.26,-39.47"/>
<text text-anchor="middle" x="331.31" y="-39.63" font-family="Times,serif" font-size="14.00">1</text>
</g>
<!-- ric.func_8015DA60 -->
<g id="node4" class="node">
<title>ric.func_8015DA60</title>
<g id="a_node4"><a xlink:href="ric.func_8015DA60.svg" xlink:title="ric.func_8015DA60">
<ellipse fill="green" stroke="black" cx="532.79" cy="-18" rx="98.58" ry="18"/>
<text text-anchor="middle" x="532.79" y="-14.3" font-family="Times,serif" font-size="14.00">ric.func_8015DA60</text>
</a>
</g>
</g>
<!-- ric.func_8015B898&#45;&gt;ric.func_8015DA60 -->
<g id="edge3" class="edge">
<title>ric.func_8015B898&#45;&gt;ric.func_8015DA60</title>
<path fill="none" stroke="black" d="M532.79,-179.93C532.79,-148.97 532.79,-83.3 532.79,-46.13"/>
<polygon fill="black" stroke="black" points="536.29,-46.02 532.79,-36.02 529.29,-46.02 536.29,-46.02"/>
<text text-anchor="middle" x="527.79" y="-39.82" font-family="Times,serif" font-size="14.00">1</text>
</g>
<!-- ric.func_8015DBB0 -->
<g id="node5" class="node">
<title>ric.func_8015DBB0</title>
<g id="a_node5"><a xlink:href="ric.func_8015DBB0.svg" xlink:title="ric.func_8015DBB0">
<ellipse fill="red" stroke="black" cx="750.79" cy="-18" rx="100.98" ry="18"/>
<text text-anchor="middle" x="750.79" y="-14.3" font-family="Times,serif" font-size="14.00">ric.func_8015DBB0</text>
</a>
</g>
</g>
<!-- ric.func_8015B898&#45;&gt;ric.func_8015DBB0 -->
<g id="edge4" class="edge">
<title>ric.func_8015B898&#45;&gt;ric.func_8015DBB0</title>
<path fill="none" stroke="black" d="M553.3,-180.25C592.41,-148.32 677.74,-78.65 722.34,-42.23"/>
<polygon fill="black" stroke="black" points="724.65,-44.87 730.18,-35.83 720.22,-39.44 724.65,-44.87"/>
<text text-anchor="middle" x="725.18" y="-39.63" font-family="Times,serif" font-size="14.00">2</text>
</g>
<!-- ric.func_801606BC -->
<g id="node6" class="node">
<title>ric.func_801606BC</title>
<g id="a_node6"><a xlink:href="ric.func_801606BC.svg" xlink:title="ric.func_801606BC">
<ellipse fill="green" stroke="black" cx="968.79" cy="-18" rx="98.58" ry="18"/>
<text text-anchor="middle" x="968.79" y="-14.3" font-family="Times,serif" font-size="14.00">ric.func_801606BC</text>
</a>
</g>
</g>
<!-- ric.func_8015B898&#45;&gt;ric.func_801606BC -->
<g id="edge5" class="edge">
<title>ric.func_8015B898&#45;&gt;ric.func_801606BC</title>
<path fill="none" stroke="black" d="M571.1,-181.36C650.72,-148.86 833.87,-74.08 921.03,-38.5"/>
<polygon fill="black" stroke="black" points="922.48,-41.69 930.41,-34.67 919.83,-35.21 922.48,-41.69"/>
<text text-anchor="middle" x="925.41" y="-38.47" font-family="Times,serif" font-size="14.00">3</text>
</g>
<!-- ric.UpdateEntityRichter -->
<g id="node7" class="node">
<title>ric.UpdateEntityRichter</title>
<g id="a_node7"><a xlink:href="ric.UpdateEntityRichter.svg" xlink:title="ric.UpdateEntityRichter">
<ellipse fill="red" stroke="black" cx="532.79" cy="-378" rx="122.68" ry="18"/>
<text text-anchor="middle" x="532.79" y="-374.3" font-family="Times,serif" font-size="14.00">ric.UpdateEntityRichter</text>
</a>
</g>
</g>
<!-- ric.UpdateEntityRichter&#45;&gt;ric.func_8015B898 -->
<g id="edge6" class="edge">
<title>ric.UpdateEntityRichter&#45;&gt;ric.func_8015B898</title>
<path fill="none" stroke="black" d="M532.79,-359.93C532.79,-328.97 532.79,-263.3 532.79,-226.13"/>
<polygon fill="black" stroke="black" points="536.29,-226.02 532.79,-216.02 529.29,-226.02 536.29,-226.02"/>
<text text-anchor="middle" x="527.79" y="-348.73" font-family="Times,serif" font-size="14.00">1</text>
</g>
</g>
</svg>
