<?xml version="1.0" encoding="UTF-8" standalone="no"?>
<!DOCTYPE svg PUBLIC "-//W3C//DTD SVG 1.1//EN"
 "http://www.w3.org/Graphics/SVG/1.1/DTD/svg11.dtd">
<!-- Generated by graphviz version 2.43.0 (0)
 -->
<!-- Title: ric.func_8016B0C0 Pages: 1 -->
<svg width="1456pt" height="131pt"
 viewBox="0.00 0.00 1455.58 131.00" xmlns="http://www.w3.org/2000/svg" xmlns:xlink="http://www.w3.org/1999/xlink">
<g id="graph0" class="graph" transform="scale(1 1) rotate(0) translate(4 127)">
<title>ric.func_8016B0C0</title>
<polygon fill="white" stroke="transparent" points="-4,4 -4,-127 1451.58,-127 1451.58,4 -4,4"/>
<!-- ric.func_8016B0C0 -->
<g id="node1" class="node">
<title>ric.func_8016B0C0</title>
<ellipse fill="red" stroke="black" cx="867.44" cy="-105" rx="98.58" ry="18"/>
<text text-anchor="middle" x="867.44" y="-101.3" font-family="Times,serif" font-size="14.00">ric.func_8016B0C0</text>
</g>
<!-- dra.AllocPrimitives -->
<g id="node2" class="node">
<title>dra.AllocPrimitives</title>
<g id="a_node2"><a xlink:href="dra.AllocPrimitives.svg" xlink:title="dra.AllocPrimitives">
<ellipse fill="green" stroke="black" cx="99.44" cy="-18" rx="99.38" ry="18"/>
<text text-anchor="middle" x="99.44" y="-14.3" font-family="Times,serif" font-size="14.00">dra.AllocPrimitives</text>
</a>
</g>
</g>
<!-- ric.func_8016B0C0&#45;&gt;dra.AllocPrimitives -->
<g id="edge1" class="edge">
<title>ric.func_8016B0C0&#45;&gt;dra.AllocPrimitives</title>
<path fill="none" stroke="black" d="M780.39,-96.47C654.13,-85.21 412.9,-62.47 208.44,-36 199.44,-34.84 190.05,-33.52 180.7,-32.15"/>
<polygon fill="black" stroke="black" points="181.01,-28.66 170.6,-30.64 179.98,-35.58 181.01,-28.66"/>
<text text-anchor="middle" x="485.44" y="-57.8" font-family="Times,serif" font-size="14.00">1</text>
</g>
<!-- ric.func_8015FAB8 -->
<g id="node3" class="node">
<title>ric.func_8015FAB8</title>
<g id="a_node3"><a xlink:href="ric.func_8015FAB8.svg" xlink:title="ric.func_8015FAB8">
<ellipse fill="green" stroke="black" cx="315.44" cy="-18" rx="98.28" ry="18"/>
<text text-anchor="middle" x="315.44" y="-14.3" font-family="Times,serif" font-size="14.00">ric.func_8015FAB8</text>
</a>
</g>
</g>
<!-- ric.func_8016B0C0&#45;&gt;ric.func_8015FAB8 -->
<g id="edge2" class="edge">
<title>ric.func_8016B0C0&#45;&gt;ric.func_8015FAB8</title>
<path fill="none" stroke="black" d="M793.8,-92.88C705.53,-79.53 553.14,-56.37 422.44,-36 414.16,-34.71 405.52,-33.35 396.89,-31.99"/>
<polygon fill="black" stroke="black" points="397.22,-28.5 386.8,-30.4 396.13,-35.42 397.22,-28.5"/>
<text text-anchor="middle" x="635.44" y="-57.8" font-family="Times,serif" font-size="14.00">1</text>
</g>
<!-- ric.func_8015CA84 -->
<g id="node4" class="node">
<title>ric.func_8015CA84</title>
<g id="a_node4"><a xlink:href="ric.func_8015CA84.svg" xlink:title="ric.func_8015CA84">
<ellipse fill="green" stroke="black" cx="530.44" cy="-18" rx="98.58" ry="18"/>
<text text-anchor="middle" x="530.44" y="-14.3" font-family="Times,serif" font-size="14.00">ric.func_8015CA84</text>
</a>
</g>
</g>
<!-- ric.func_8016B0C0&#45;&gt;ric.func_8015CA84 -->
<g id="edge3" class="edge">
<title>ric.func_8016B0C0&#45;&gt;ric.func_8015CA84</title>
<path fill="none" stroke="black" d="M812.17,-90.06C752.79,-75.08 658.5,-51.3 595.56,-35.43"/>
<polygon fill="black" stroke="black" points="596.3,-32 585.74,-32.95 594.58,-38.79 596.3,-32"/>
<text text-anchor="middle" x="724.44" y="-57.8" font-family="Times,serif" font-size="14.00">1</text>
</g>
<!-- g_api_CheckCollision -->
<g id="node5" class="node">
<title>g_api_CheckCollision</title>
<g id="a_node5"><a xlink:href="g_api_CheckCollision.svg" xlink:title="g_api_CheckCollision">
<ellipse fill="lightblue" stroke="black" cx="755.44" cy="-18" rx="107.78" ry="18"/>
<text text-anchor="middle" x="755.44" y="-14.3" font-family="Times,serif" font-size="14.00">g_api_CheckCollision</text>
</a>
</g>
</g>
<!-- ric.func_8016B0C0&#45;&gt;g_api_CheckCollision -->
<g id="edge4" class="edge">
<title>ric.func_8016B0C0&#45;&gt;g_api_CheckCollision</title>
<path fill="none" stroke="black" d="M845.58,-87.41C828.5,-74.45 804.57,-56.28 785.66,-41.93"/>
<polygon fill="black" stroke="black" points="787.71,-39.1 777.63,-35.84 783.48,-44.67 787.71,-39.1"/>
<text text-anchor="middle" x="823.44" y="-57.8" font-family="Times,serif" font-size="14.00">2</text>
</g>
<!-- ric.func_801606BC -->
<g id="node6" class="node">
<title>ric.func_801606BC</title>
<g id="a_node6"><a xlink:href="ric.func_801606BC.svg" xlink:title="ric.func_801606BC">
<ellipse fill="green" stroke="black" cx="980.44" cy="-18" rx="98.58" ry="18"/>
<text text-anchor="middle" x="980.44" y="-14.3" font-family="Times,serif" font-size="14.00">ric.func_801606BC</text>
</a>
</g>
</g>
<!-- ric.func_8016B0C0&#45;&gt;ric.func_801606BC -->
<g id="edge5" class="edge">
<title>ric.func_8016B0C0&#45;&gt;ric.func_801606BC</title>
<path fill="none" stroke="black" d="M889.5,-87.41C906.84,-74.36 931.19,-56.05 950.33,-41.65"/>
<polygon fill="black" stroke="black" points="952.55,-44.36 958.44,-35.55 948.35,-38.76 952.55,-44.36"/>
<text text-anchor="middle" x="936.44" y="-57.8" font-family="Times,serif" font-size="14.00">1</text>
</g>
<!-- rcos -->
<g id="node7" class="node">
<title>rcos</title>
<g id="a_node7"><a xlink:href="rcos.svg" xlink:title="rcos">
<ellipse fill="lightblue" stroke="black" cx="1127.44" cy="-18" rx="30.59" ry="18"/>
<text text-anchor="middle" x="1127.44" y="-14.3" font-family="Times,serif" font-size="14.00">rcos</text>
</a>
</g>
</g>
<!-- ric.func_8016B0C0&#45;&gt;rcos -->
<g id="edge6" class="edge">
<title>ric.func_8016B0C0&#45;&gt;rcos</title>
<path fill="none" stroke="black" d="M919.79,-89.69C964.92,-76.93 1031.6,-57.06 1088.44,-36 1090.52,-35.23 1092.65,-34.4 1094.79,-33.55"/>
<polygon fill="black" stroke="black" points="1096.21,-36.75 1104.1,-29.68 1093.53,-30.29 1096.21,-36.75"/>
<text text-anchor="middle" x="1040.44" y="-57.8" font-family="Times,serif" font-size="14.00">4</text>
</g>
<!-- rsin -->
<g id="node8" class="node">
<title>rsin</title>
<g id="a_node8"><a xlink:href="rsin.svg" xlink:title="rsin">
<ellipse fill="lightblue" stroke="black" cx="1204.44" cy="-18" rx="28.7" ry="18"/>
<text text-anchor="middle" x="1204.44" y="-14.3" font-family="Times,serif" font-size="14.00">rsin</text>
</a>
</g>
</g>
<!-- ric.func_8016B0C0&#45;&gt;rsin -->
<g id="edge7" class="edge">
<title>ric.func_8016B0C0&#45;&gt;rsin</title>
<path fill="none" stroke="black" d="M940.47,-92.87C1002.17,-82.2 1092.24,-63.6 1167.44,-36 1169.28,-35.32 1171.16,-34.6 1173.04,-33.83"/>
<polygon fill="black" stroke="black" points="1174.57,-36.99 1182.38,-29.83 1171.81,-30.55 1174.57,-36.99"/>
<text text-anchor="middle" x="1117.44" y="-57.8" font-family="Times,serif" font-size="14.00">4</text>
</g>
<!-- ric.func_80156C60 -->
<g id="node9" class="node">
<title>ric.func_80156C60</title>
<g id="a_node9"><a xlink:href="ric.func_80156C60.svg" xlink:title="ric.func_80156C60">
<ellipse fill="green" stroke="black" cx="1349.44" cy="-18" rx="98.28" ry="18"/>
<text text-anchor="middle" x="1349.44" y="-14.3" font-family="Times,serif" font-size="14.00">ric.func_80156C60</text>
</a>
</g>
</g>
<!-- ric.func_8016B0C0&#45;&gt;ric.func_80156C60 -->
<g id="edge8" class="edge">
<title>ric.func_8016B0C0&#45;&gt;ric.func_80156C60</title>
<path fill="none" stroke="black" d="M949.09,-94.8C1000.22,-88.58 1067.38,-79.59 1126.44,-69 1179.81,-59.43 1239.75,-45.83 1284.04,-35.23"/>
<polygon fill="black" stroke="black" points="1284.9,-38.62 1293.81,-32.88 1283.27,-31.81 1284.9,-38.62"/>
<text text-anchor="middle" x="1205.44" y="-57.8" font-family="Times,serif" font-size="14.00">1</text>
</g>
</g>
</svg>
