<?xml version="1.0" encoding="UTF-8" standalone="no"?>
<!DOCTYPE svg PUBLIC "-//W3C//DTD SVG 1.1//EN"
 "http://www.w3.org/Graphics/SVG/1.1/DTD/svg11.dtd">
<!-- Generated by graphviz version 2.43.0 (0)
 -->
<!-- Title: ric.func_8016C1BC Pages: 1 -->
<svg width="1241pt" height="224pt"
 viewBox="0.00 0.00 1241.48 224.00" xmlns="http://www.w3.org/2000/svg" xmlns:xlink="http://www.w3.org/1999/xlink">
<g id="graph0" class="graph" transform="scale(1 1) rotate(0) translate(4 220)">
<title>ric.func_8016C1BC</title>
<polygon fill="white" stroke="transparent" points="-4,4 -4,-220 1237.48,-220 1237.48,4 -4,4"/>
<!-- ric.func_8016C1BC -->
<g id="node1" class="node">
<title>ric.func_8016C1BC</title>
<ellipse fill="red" stroke="black" cx="591.99" cy="-198" rx="100.18" ry="18"/>
<text text-anchor="middle" x="591.99" y="-194.3" font-family="Times,serif" font-size="14.00">ric.func_8016C1BC</text>
</g>
<!-- dra.func_800EDB58 -->
<g id="node2" class="node">
<title>dra.func_800EDB58</title>
<g id="a_node2"><a xlink:href="dra.func_800EDB58.svg" xlink:title="dra.func_800EDB58">
<ellipse fill="green" stroke="black" cx="103.99" cy="-18" rx="103.98" ry="18"/>
<text text-anchor="middle" x="103.99" y="-14.3" font-family="Times,serif" font-size="14.00">dra.func_800EDB58</text>
</a>
</g>
</g>
<!-- ric.func_8016C1BC&#45;&gt;dra.func_800EDB58 -->
<g id="edge1" class="edge">
<title>ric.func_8016C1BC&#45;&gt;dra.func_800EDB58</title>
<path fill="none" stroke="black" d="M549.54,-181.52C460.2,-148.93 253.03,-73.36 155.95,-37.95"/>
<polygon fill="black" stroke="black" points="156.94,-34.59 146.35,-34.45 154.54,-41.16 156.94,-34.59"/>
<text text-anchor="middle" x="141.35" y="-38.25" font-family="Times,serif" font-size="14.00">1</text>
</g>
<!-- ric.func_8015FAB8 -->
<g id="node3" class="node">
<title>ric.func_8015FAB8</title>
<g id="a_node3"><a xlink:href="ric.func_8015FAB8.svg" xlink:title="ric.func_8015FAB8">
<ellipse fill="green" stroke="black" cx="323.99" cy="-18" rx="98.28" ry="18"/>
<text text-anchor="middle" x="323.99" y="-14.3" font-family="Times,serif" font-size="14.00">ric.func_8015FAB8</text>
</a>
</g>
</g>
<!-- ric.func_8016C1BC&#45;&gt;ric.func_8015FAB8 -->
<g id="edge2" class="edge">
<title>ric.func_8016C1BC&#45;&gt;ric.func_8015FAB8</title>
<path fill="none" stroke="black" d="M566.78,-180.25C518.27,-148.04 411.95,-77.42 357.53,-41.27"/>
<polygon fill="black" stroke="black" points="359.21,-38.19 348.94,-35.57 355.33,-44.02 359.21,-38.19"/>
<text text-anchor="middle" x="343.94" y="-39.37" font-family="Times,serif" font-size="14.00">1</text>
</g>
<!-- rand -->
<g id="node4" class="node">
<title>rand</title>
<g id="a_node4"><a xlink:href="rand.svg" xlink:title="rand">
<ellipse fill="lightblue" stroke="black" cx="472.99" cy="-18" rx="32.49" ry="18"/>
<text text-anchor="middle" x="472.99" y="-14.3" font-family="Times,serif" font-size="14.00">rand</text>
</a>
</g>
</g>
<!-- ric.func_8016C1BC&#45;&gt;rand -->
<g id="edge3" class="edge">
<title>ric.func_8016C1BC&#45;&gt;rand</title>
<path fill="none" stroke="black" d="M580.58,-179.93C559.45,-148.33 514.15,-80.57 489.61,-43.86"/>
<polygon fill="black" stroke="black" points="492.32,-41.61 483.85,-35.24 486.5,-45.5 492.32,-41.61"/>
<text text-anchor="middle" x="478.85" y="-39.04" font-family="Times,serif" font-size="14.00">2</text>
</g>
<!-- rcos -->
<g id="node5" class="node">
<title>rcos</title>
<g id="a_node5"><a xlink:href="rcos.svg" xlink:title="rcos">
<ellipse fill="lightblue" stroke="black" cx="553.99" cy="-18" rx="30.59" ry="18"/>
<text text-anchor="middle" x="553.99" y="-14.3" font-family="Times,serif" font-size="14.00">rcos</text>
</a>
</g>
</g>
<!-- ric.func_8016C1BC&#45;&gt;rcos -->
<g id="edge4" class="edge">
<title>ric.func_8016C1BC&#45;&gt;rcos</title>
<path fill="none" stroke="black" d="M588.35,-179.93C581.74,-148.97 567.72,-83.3 559.78,-46.13"/>
<polygon fill="black" stroke="black" points="563.13,-45.06 557.62,-36.02 556.29,-46.53 563.13,-45.06"/>
<text text-anchor="middle" x="552.62" y="-39.82" font-family="Times,serif" font-size="14.00">1</text>
</g>
<!-- rsin -->
<g id="node6" class="node">
<title>rsin</title>
<g id="a_node6"><a xlink:href="rsin.svg" xlink:title="rsin">
<ellipse fill="lightblue" stroke="black" cx="630.99" cy="-18" rx="28.7" ry="18"/>
<text text-anchor="middle" x="630.99" y="-14.3" font-family="Times,serif" font-size="14.00">rsin</text>
</a>
</g>
</g>
<!-- ric.func_8016C1BC&#45;&gt;rsin -->
<g id="edge5" class="edge">
<title>ric.func_8016C1BC&#45;&gt;rsin</title>
<path fill="none" stroke="black" d="M595.73,-179.93C602.52,-148.97 616.9,-83.3 625.05,-46.13"/>
<polygon fill="black" stroke="black" points="628.54,-46.53 627.26,-36.02 621.7,-45.03 628.54,-46.53"/>
<text text-anchor="middle" x="622.26" y="-39.82" font-family="Times,serif" font-size="14.00">1</text>
</g>
<!-- dra.PlaySfx -->
<g id="node7" class="node">
<title>dra.PlaySfx</title>
<g id="a_node7"><a xlink:href="dra.PlaySfx.svg" xlink:title="dra.PlaySfx">
<ellipse fill="green" stroke="black" cx="741.99" cy="-18" rx="64.19" ry="18"/>
<text text-anchor="middle" x="741.99" y="-14.3" font-family="Times,serif" font-size="14.00">dra.PlaySfx</text>
</a>
</g>
</g>
<!-- ric.func_8016C1BC&#45;&gt;dra.PlaySfx -->
<g id="edge6" class="edge">
<title>ric.func_8016C1BC&#45;&gt;dra.PlaySfx</title>
<path fill="none" stroke="black" d="M606.37,-179.93C633.1,-148.22 690.49,-80.12 721.35,-43.5"/>
<polygon fill="black" stroke="black" points="724.1,-45.66 727.87,-35.76 718.75,-41.15 724.1,-45.66"/>
<text text-anchor="middle" x="722.87" y="-39.56" font-family="Times,serif" font-size="14.00">1</text>
</g>
<!-- ric.func_80156C60 -->
<g id="node8" class="node">
<title>ric.func_80156C60</title>
<g id="a_node8"><a xlink:href="ric.func_80156C60.svg" xlink:title="ric.func_80156C60">
<ellipse fill="green" stroke="black" cx="921.99" cy="-18" rx="98.28" ry="18"/>
<text text-anchor="middle" x="921.99" y="-14.3" font-family="Times,serif" font-size="14.00">ric.func_80156C60</text>
</a>
</g>
</g>
<!-- ric.func_8016C1BC&#45;&gt;ric.func_80156C60 -->
<g id="edge7" class="edge">
<title>ric.func_8016C1BC&#45;&gt;ric.func_80156C60</title>
<path fill="none" stroke="black" d="M622.15,-180.73C682.18,-148.35 816.53,-75.88 883.09,-39.98"/>
<polygon fill="black" stroke="black" points="884.88,-42.99 892.02,-35.17 881.56,-36.83 884.88,-42.99"/>
<text text-anchor="middle" x="887.02" y="-38.97" font-family="Times,serif" font-size="14.00">1</text>
</g>
<!-- dra.CheckCollision -->
<g id="node9" class="node">
<title>dra.CheckCollision</title>
<g id="a_node9"><a xlink:href="dra.CheckCollision.svg" xlink:title="dra.CheckCollision">
<ellipse fill="green" stroke="black" cx="1135.99" cy="-18" rx="97.48" ry="18"/>
<text text-anchor="middle" x="1135.99" y="-14.3" font-family="Times,serif" font-size="14.00">dra.CheckCollision</text>
</a>
</g>
</g>
<!-- ric.func_8016C1BC&#45;&gt;dra.CheckCollision -->
<g id="edge8" class="edge">
<title>ric.func_8016C1BC&#45;&gt;dra.CheckCollision</title>
<path fill="none" stroke="black" d="M637.9,-181.98C737.51,-149.38 973.13,-72.29 1080.7,-37.09"/>
<polygon fill="black" stroke="black" points="1081.98,-40.36 1090.39,-33.92 1079.8,-33.7 1081.98,-40.36"/>
<text text-anchor="middle" x="1085.39" y="-37.72" font-family="Times,serif" font-size="14.00">2</text>
</g>
</g>
</svg>
