<?xml version="1.0" encoding="UTF-8" standalone="no"?>
<!DOCTYPE svg PUBLIC "-//W3C//DTD SVG 1.1//EN"
 "http://www.w3.org/Graphics/SVG/1.1/DTD/svg11.dtd">
<!-- Generated by graphviz version 2.43.0 (0)
 -->
<!-- Title: ric.func_8015D120 Pages: 1 -->
<svg width="1202pt" height="404pt"
 viewBox="0.00 0.00 1202.29 404.00" xmlns="http://www.w3.org/2000/svg" xmlns:xlink="http://www.w3.org/1999/xlink">
<g id="graph0" class="graph" transform="scale(1 1) rotate(0) translate(4 400)">
<title>ric.func_8015D120</title>
<polygon fill="white" stroke="transparent" points="-4,4 -4,-400 1198.29,-400 1198.29,4 -4,4"/>
<!-- ric.func_8015D120 -->
<g id="node1" class="node">
<title>ric.func_8015D120</title>
<ellipse fill="green" stroke="black" cx="624.94" cy="-198" rx="98.58" ry="18"/>
<text text-anchor="middle" x="624.94" y="-194.3" font-family="Times,serif" font-size="14.00">ric.func_8015D120</text>
</g>
<!-- ric.SetPlayerStep -->
<g id="node2" class="node">
<title>ric.SetPlayerStep</title>
<g id="a_node2"><a xlink:href="ric.SetPlayerStep.svg" xlink:title="ric.SetPlayerStep">
<ellipse fill="green" stroke="black" cx="92.94" cy="-18" rx="92.88" ry="18"/>
<text text-anchor="middle" x="92.94" y="-14.3" font-family="Times,serif" font-size="14.00">ric.SetPlayerStep</text>
</a>
</g>
</g>
<!-- ric.func_8015D120&#45;&gt;ric.SetPlayerStep -->
<g id="edge1" class="edge">
<title>ric.func_8015D120&#45;&gt;ric.SetPlayerStep</title>
<path fill="none" stroke="black" d="M579.58,-181.82C481.97,-149.16 252.34,-72.33 147.21,-37.16"/>
<polygon fill="black" stroke="black" points="148.03,-33.74 137.43,-33.89 145.81,-40.38 148.03,-33.74"/>
<text text-anchor="middle" x="132.43" y="-37.69" font-family="Times,serif" font-size="14.00">1</text>
</g>
<!-- ric.func_8015CA84 -->
<g id="node3" class="node">
<title>ric.func_8015CA84</title>
<g id="a_node3"><a xlink:href="ric.func_8015CA84.svg" xlink:title="ric.func_8015CA84">
<ellipse fill="green" stroke="black" cx="302.94" cy="-18" rx="98.58" ry="18"/>
<text text-anchor="middle" x="302.94" y="-14.3" font-family="Times,serif" font-size="14.00">ric.func_8015CA84</text>
</a>
</g>
</g>
<!-- ric.func_8015D120&#45;&gt;ric.func_8015CA84 -->
<g id="edge2" class="edge">
<title>ric.func_8015D120&#45;&gt;ric.func_8015CA84</title>
<path fill="none" stroke="black" d="M595.51,-180.73C537.21,-148.5 407.04,-76.55 341.79,-40.48"/>
<polygon fill="black" stroke="black" points="343.1,-37.2 332.65,-35.42 339.71,-43.32 343.1,-37.2"/>
<text text-anchor="middle" x="327.65" y="-39.22" font-family="Times,serif" font-size="14.00">1</text>
</g>
<!-- ric.func_8015C920 -->
<g id="node4" class="node">
<title>ric.func_8015C920</title>
<g id="a_node4"><a xlink:href="ric.func_8015C920.svg" xlink:title="ric.func_8015C920">
<ellipse fill="green" stroke="black" cx="517.94" cy="-18" rx="98.28" ry="18"/>
<text text-anchor="middle" x="517.94" y="-14.3" font-family="Times,serif" font-size="14.00">ric.func_8015C920</text>
</a>
</g>
</g>
<!-- ric.func_8015D120&#45;&gt;ric.func_8015C920 -->
<g id="edge3" class="edge">
<title>ric.func_8015D120&#45;&gt;ric.func_8015C920</title>
<path fill="none" stroke="black" d="M614.68,-179.93C595.83,-148.57 555.57,-81.6 533.4,-44.71"/>
<polygon fill="black" stroke="black" points="536.32,-42.78 528.17,-36.02 530.32,-46.39 536.32,-42.78"/>
<text text-anchor="middle" x="523.17" y="-39.82" font-family="Times,serif" font-size="14.00">1</text>
</g>
<!-- ric.func_8015CC28 -->
<g id="node5" class="node">
<title>ric.func_8015CC28</title>
<g id="a_node5"><a xlink:href="ric.func_8015CC28.svg" xlink:title="ric.func_8015CC28">
<ellipse fill="green" stroke="black" cx="732.94" cy="-18" rx="98.58" ry="18"/>
<text text-anchor="middle" x="732.94" y="-14.3" font-family="Times,serif" font-size="14.00">ric.func_8015CC28</text>
</a>
</g>
</g>
<!-- ric.func_8015D120&#45;&gt;ric.func_8015CC28 -->
<g id="edge4" class="edge">
<title>ric.func_8015D120&#45;&gt;ric.func_8015CC28</title>
<path fill="none" stroke="black" d="M635.3,-179.93C654.33,-148.57 694.96,-81.6 717.34,-44.71"/>
<polygon fill="black" stroke="black" points="720.42,-46.38 722.62,-36.02 714.44,-42.75 720.42,-46.38"/>
<text text-anchor="middle" x="717.62" y="-39.82" font-family="Times,serif" font-size="14.00">1</text>
</g>
<!-- ric.func_801606BC -->
<g id="node6" class="node">
<title>ric.func_801606BC</title>
<g id="a_node6"><a xlink:href="ric.func_801606BC.svg" xlink:title="ric.func_801606BC">
<ellipse fill="green" stroke="black" cx="948.94" cy="-18" rx="98.58" ry="18"/>
<text text-anchor="middle" x="948.94" y="-14.3" font-family="Times,serif" font-size="14.00">ric.func_801606BC</text>
</a>
</g>
</g>
<!-- ric.func_8015D120&#45;&gt;ric.func_801606BC -->
<g id="edge5" class="edge">
<title>ric.func_8015D120&#45;&gt;ric.func_801606BC</title>
<path fill="none" stroke="black" d="M654.55,-180.73C713.34,-148.44 844.73,-76.25 910.25,-40.25"/>
<polygon fill="black" stroke="black" points="911.97,-43.31 919.05,-35.42 908.6,-37.17 911.97,-43.31"/>
<text text-anchor="middle" x="914.05" y="-39.22" font-family="Times,serif" font-size="14.00">1</text>
</g>
<!-- dra.PlaySfx -->
<g id="node7" class="node">
<title>dra.PlaySfx</title>
<g id="a_node7"><a xlink:href="dra.PlaySfx.svg" xlink:title="dra.PlaySfx">
<ellipse fill="green" stroke="black" cx="1129.94" cy="-18" rx="64.19" ry="18"/>
<text text-anchor="middle" x="1129.94" y="-14.3" font-family="Times,serif" font-size="14.00">dra.PlaySfx</text>
</a>
</g>
</g>
<!-- ric.func_8015D120&#45;&gt;dra.PlaySfx -->
<g id="edge6" class="edge">
<title>ric.func_8015D120&#45;&gt;dra.PlaySfx</title>
<path fill="none" stroke="black" d="M668.43,-181.67C762.46,-148.53 984.05,-70.42 1081.98,-35.91"/>
<polygon fill="black" stroke="black" points="1083.35,-39.13 1091.62,-32.51 1081.03,-32.53 1083.35,-39.13"/>
<text text-anchor="middle" x="1086.62" y="-36.31" font-family="Times,serif" font-size="14.00">1</text>
</g>
<!-- ric.func_80157A50 -->
<g id="node8" class="node">
<title>ric.func_80157A50</title>
<g id="a_node8"><a xlink:href="ric.func_80157A50.svg" xlink:title="ric.func_80157A50">
<ellipse fill="red" stroke="black" cx="624.94" cy="-378" rx="97.48" ry="18"/>
<text text-anchor="middle" x="624.94" y="-374.3" font-family="Times,serif" font-size="14.00">ric.func_80157A50</text>
</a>
</g>
</g>
<!-- ric.func_80157A50&#45;&gt;ric.func_8015D120 -->
<g id="edge7" class="edge">
<title>ric.func_80157A50&#45;&gt;ric.func_8015D120</title>
<path fill="none" stroke="black" d="M624.94,-359.93C624.94,-328.97 624.94,-263.3 624.94,-226.13"/>
<polygon fill="black" stroke="black" points="628.44,-226.02 624.94,-216.02 621.44,-226.02 628.44,-226.02"/>
<text text-anchor="middle" x="619.94" y="-348.73" font-family="Times,serif" font-size="14.00">1</text>
</g>
</g>
</svg>
