<?xml version="1.0" encoding="UTF-8" standalone="no"?>
<!DOCTYPE svg PUBLIC "-//W3C//DTD SVG 1.1//EN"
 "http://www.w3.org/Graphics/SVG/1.1/DTD/svg11.dtd">
<!-- Generated by graphviz version 2.43.0 (0)
 -->
<!-- Title: ric.func_80166784 Pages: 1 -->
<svg width="1705pt" height="240pt"
 viewBox="0.00 0.00 1705.23 240.41" xmlns="http://www.w3.org/2000/svg" xmlns:xlink="http://www.w3.org/1999/xlink">
<g id="graph0" class="graph" transform="scale(1 1) rotate(0) translate(4 236.41)">
<title>ric.func_80166784</title>
<polygon fill="white" stroke="transparent" points="-4,4 -4,-236.41 1701.23,-236.41 1701.23,4 -4,4"/>
<!-- ric.func_80166784 -->
<g id="node1" class="node">
<title>ric.func_80166784</title>
<g id="a_node1"><a xlink:href="ric.func_80166784.svg" xlink:title="ric.func_80166784">
<ellipse fill="red" stroke="black" cx="851.44" cy="-198" rx="96.68" ry="18"/>
<text text-anchor="middle" x="851.44" y="-194.3" font-family="Times,serif" font-size="14.00">ric.func_80166784</text>
</a>
</g>
</g>
<!-- ric.func_80166784&#45;&gt;ric.func_80166784 -->
<g id="edge11" class="edge">
<title>ric.func_80166784&#45;&gt;ric.func_80166784</title>
<path fill="none" stroke="black" d="M901.62,-213.46C934.48,-217.66 966.28,-212.5 966.28,-198 966.28,-185.03 940.83,-179.53 911.94,-181.52"/>
<polygon fill="black" stroke="black" points="911.23,-178.07 901.62,-182.54 911.91,-185.04 911.23,-178.07"/>
<text text-anchor="middle" x="896.62" y="-171.34" font-family="Times,serif" font-size="14.00">1</text>
</g>
<!-- ric.func_80166784&#45;&gt;ric.func_80166784 -->
<g id="edge12" class="edge">
<title>ric.func_80166784&#45;&gt;ric.func_80166784</title>
<path fill="none" stroke="black" d="M874.61,-215.62C920.94,-241.93 984.28,-236.06 984.28,-198 984.28,-162.4 928.84,-154.96 883.76,-175.7"/>
<polygon fill="black" stroke="black" points="881.92,-172.71 874.61,-180.38 885.11,-178.94 881.92,-172.71"/>
<text text-anchor="middle" x="869.61" y="-219.42" font-family="Times,serif" font-size="14.00">1</text>
</g>
<!-- dra.AllocPrimitives -->
<g id="node2" class="node">
<title>dra.AllocPrimitives</title>
<g id="a_node2"><a xlink:href="dra.AllocPrimitives.svg" xlink:title="dra.AllocPrimitives">
<ellipse fill="green" stroke="black" cx="99.44" cy="-18" rx="99.38" ry="18"/>
<text text-anchor="middle" x="99.44" y="-14.3" font-family="Times,serif" font-size="14.00">dra.AllocPrimitives</text>
</a>
</g>
</g>
<!-- ric.func_80166784&#45;&gt;dra.AllocPrimitives -->
<g id="edge1" class="edge">
<title>ric.func_80166784&#45;&gt;dra.AllocPrimitives</title>
<path fill="none" stroke="black" d="M793.99,-183.4C657.31,-151.05 313.27,-69.61 166.97,-34.98"/>
<polygon fill="black" stroke="black" points="167.74,-31.57 157.2,-32.67 166.13,-38.38 167.74,-31.57"/>
<text text-anchor="middle" x="152.2" y="-36.47" font-family="Times,serif" font-size="14.00">1</text>
</g>
<!-- dra.FreePrimitives -->
<g id="node3" class="node">
<title>dra.FreePrimitives</title>
<g id="a_node3"><a xlink:href="dra.FreePrimitives.svg" xlink:title="dra.FreePrimitives">
<ellipse fill="green" stroke="black" cx="315.44" cy="-18" rx="98.58" ry="18"/>
<text text-anchor="middle" x="315.44" y="-14.3" font-family="Times,serif" font-size="14.00">dra.FreePrimitives</text>
</a>
</g>
</g>
<!-- ric.func_80166784&#45;&gt;dra.FreePrimitives -->
<g id="edge2" class="edge">
<title>ric.func_80166784&#45;&gt;dra.FreePrimitives</title>
<path fill="none" stroke="black" d="M806.2,-181.98C708.18,-149.43 476.49,-72.48 370.32,-37.22"/>
<polygon fill="black" stroke="black" points="371.34,-33.88 360.75,-34.05 369.13,-40.52 371.34,-33.88"/>
<text text-anchor="middle" x="355.75" y="-37.85" font-family="Times,serif" font-size="14.00">2</text>
</g>
<!-- dra.PlaySfx -->
<g id="node4" class="node">
<title>dra.PlaySfx</title>
<g id="a_node4"><a xlink:href="dra.PlaySfx.svg" xlink:title="dra.PlaySfx">
<ellipse fill="green" stroke="black" cx="496.44" cy="-18" rx="64.19" ry="18"/>
<text text-anchor="middle" x="496.44" y="-14.3" font-family="Times,serif" font-size="14.00">dra.PlaySfx</text>
</a>
</g>
</g>
<!-- ric.func_80166784&#45;&gt;dra.PlaySfx -->
<g id="edge3" class="edge">
<title>ric.func_80166784&#45;&gt;dra.PlaySfx</title>
<path fill="none" stroke="black" d="M819.31,-180.89C754.06,-148.17 606.22,-74.04 535.52,-38.59"/>
<polygon fill="black" stroke="black" points="536.99,-35.41 526.48,-34.06 533.85,-41.67 536.99,-35.41"/>
<text text-anchor="middle" x="521.48" y="-37.86" font-family="Times,serif" font-size="14.00">1</text>
</g>
<!-- main.ratan2 -->
<g id="node5" class="node">
<title>main.ratan2</title>
<g id="a_node5"><a xlink:href="main.ratan2.svg" xlink:title="main.ratan2">
<ellipse fill="green" stroke="black" cx="646.44" cy="-18" rx="67.69" ry="18"/>
<text text-anchor="middle" x="646.44" y="-14.3" font-family="Times,serif" font-size="14.00">main.ratan2</text>
</a>
</g>
</g>
<!-- ric.func_80166784&#45;&gt;main.ratan2 -->
<g id="edge4" class="edge">
<title>ric.func_80166784&#45;&gt;main.ratan2</title>
<path fill="none" stroke="black" d="M832.16,-180.25C795.26,-148.22 714.65,-78.23 672.81,-41.9"/>
<polygon fill="black" stroke="black" points="675.08,-39.23 665.23,-35.31 670.49,-44.51 675.08,-39.23"/>
<text text-anchor="middle" x="660.23" y="-39.11" font-family="Times,serif" font-size="14.00">2</text>
</g>
<!-- main.rcos -->
<g id="node6" class="node">
<title>main.rcos</title>
<g id="a_node6"><a xlink:href="main.rcos.svg" xlink:title="main.rcos">
<ellipse fill="red" stroke="black" cx="787.44" cy="-18" rx="55.79" ry="18"/>
<text text-anchor="middle" x="787.44" y="-14.3" font-family="Times,serif" font-size="14.00">main.rcos</text>
</a>
</g>
</g>
<!-- ric.func_80166784&#45;&gt;main.rcos -->
<g id="edge5" class="edge">
<title>ric.func_80166784&#45;&gt;main.rcos</title>
<path fill="none" stroke="black" d="M845.3,-179.93C834.12,-148.83 810.36,-82.73 797.02,-45.65"/>
<polygon fill="black" stroke="black" points="800.24,-44.24 793.56,-36.02 793.65,-46.61 800.24,-44.24"/>
<text text-anchor="middle" x="788.56" y="-39.82" font-family="Times,serif" font-size="14.00">4</text>
</g>
<!-- main.rsin -->
<g id="node7" class="node">
<title>main.rsin</title>
<g id="a_node7"><a xlink:href="main.rsin.svg" xlink:title="main.rsin">
<ellipse fill="green" stroke="black" cx="915.44" cy="-18" rx="54.69" ry="18"/>
<text text-anchor="middle" x="915.44" y="-14.3" font-family="Times,serif" font-size="14.00">main.rsin</text>
</a>
</g>
</g>
<!-- ric.func_80166784&#45;&gt;main.rsin -->
<g id="edge6" class="edge">
<title>ric.func_80166784&#45;&gt;main.rsin</title>
<path fill="none" stroke="black" d="M857.58,-179.93C868.76,-148.83 892.53,-82.73 905.86,-45.65"/>
<polygon fill="black" stroke="black" points="909.23,-46.61 909.32,-36.02 902.65,-44.24 909.23,-46.61"/>
<text text-anchor="middle" x="904.32" y="-39.82" font-family="Times,serif" font-size="14.00">5</text>
</g>
<!-- rand -->
<g id="node8" class="node">
<title>rand</title>
<g id="a_node8"><a xlink:href="rand.svg" xlink:title="rand">
<ellipse fill="lightblue" stroke="black" cx="1020.44" cy="-18" rx="32.49" ry="18"/>
<text text-anchor="middle" x="1020.44" y="-14.3" font-family="Times,serif" font-size="14.00">rand</text>
</a>
</g>
</g>
<!-- ric.func_80166784&#45;&gt;rand -->
<g id="edge7" class="edge">
<title>ric.func_80166784&#45;&gt;rand</title>
<path fill="none" stroke="black" d="M867.65,-179.93C898.21,-147.74 964.4,-78.02 998.76,-41.84"/>
<polygon fill="black" stroke="black" points="1001.63,-43.89 1005.98,-34.23 996.56,-39.07 1001.63,-43.89"/>
<text text-anchor="middle" x="1000.98" y="-38.03" font-family="Times,serif" font-size="14.00">2</text>
</g>
<!-- ric.func_80156C60 -->
<g id="node9" class="node">
<title>ric.func_80156C60</title>
<g id="a_node9"><a xlink:href="ric.func_80156C60.svg" xlink:title="ric.func_80156C60">
<ellipse fill="green" stroke="black" cx="1169.44" cy="-18" rx="98.28" ry="18"/>
<text text-anchor="middle" x="1169.44" y="-14.3" font-family="Times,serif" font-size="14.00">ric.func_80156C60</text>
</a>
</g>
</g>
<!-- ric.func_80166784&#45;&gt;ric.func_80156C60 -->
<g id="edge8" class="edge">
<title>ric.func_80166784&#45;&gt;ric.func_80156C60</title>
<path fill="none" stroke="black" d="M880.5,-180.73C938.08,-148.5 1066.64,-76.55 1131.07,-40.48"/>
<polygon fill="black" stroke="black" points="1133.08,-43.36 1140.1,-35.42 1129.66,-37.25 1133.08,-43.36"/>
<text text-anchor="middle" x="1135.1" y="-39.22" font-family="Times,serif" font-size="14.00">1</text>
</g>
<!-- ric.func_8015FAB8 -->
<g id="node10" class="node">
<title>ric.func_8015FAB8</title>
<g id="a_node10"><a xlink:href="ric.func_8015FAB8.svg" xlink:title="ric.func_8015FAB8">
<ellipse fill="green" stroke="black" cx="1383.44" cy="-18" rx="98.28" ry="18"/>
<text text-anchor="middle" x="1383.44" y="-14.3" font-family="Times,serif" font-size="14.00">ric.func_8015FAB8</text>
</a>
</g>
</g>
<!-- ric.func_80166784&#45;&gt;ric.func_8015FAB8 -->
<g id="edge9" class="edge">
<title>ric.func_80166784&#45;&gt;ric.func_8015FAB8</title>
<path fill="none" stroke="black" d="M896.34,-181.98C993.63,-149.43 1223.6,-72.48 1328.98,-37.22"/>
<polygon fill="black" stroke="black" points="1330.1,-40.54 1338.47,-34.05 1327.88,-33.9 1330.1,-40.54"/>
<text text-anchor="middle" x="1333.47" y="-37.85" font-family="Times,serif" font-size="14.00">1</text>
</g>
<!-- ric.func_801606BC -->
<g id="node11" class="node">
<title>ric.func_801606BC</title>
<g id="a_node11"><a xlink:href="ric.func_801606BC.svg" xlink:title="ric.func_801606BC">
<ellipse fill="green" stroke="black" cx="1598.44" cy="-18" rx="98.58" ry="18"/>
<text text-anchor="middle" x="1598.44" y="-14.3" font-family="Times,serif" font-size="14.00">ric.func_801606BC</text>
</a>
</g>
</g>
<!-- ric.func_80166784&#45;&gt;ric.func_801606BC -->
<g id="edge10" class="edge">
<title>ric.func_80166784&#45;&gt;ric.func_801606BC</title>
<path fill="none" stroke="black" d="M908.51,-183.4C1044.15,-151.08 1385.35,-69.78 1530.93,-35.09"/>
<polygon fill="black" stroke="black" points="1532.15,-38.4 1541.06,-32.67 1530.52,-31.59 1532.15,-38.4"/>
<text text-anchor="middle" x="1536.06" y="-36.47" font-family="Times,serif" font-size="14.00">3</text>
</g>
</g>
</svg>
