<?xml version="1.0" encoding="UTF-8" standalone="no"?>
<!DOCTYPE svg PUBLIC "-//W3C//DTD SVG 1.1//EN"
 "http://www.w3.org/Graphics/SVG/1.1/DTD/svg11.dtd">
<!-- Generated by graphviz version 2.43.0 (0)
 -->
<!-- Title: ric.func_8016E46C Pages: 1 -->
<svg width="879pt" height="224pt"
 viewBox="0.00 0.00 879.04 224.00" xmlns="http://www.w3.org/2000/svg" xmlns:xlink="http://www.w3.org/1999/xlink">
<g id="graph0" class="graph" transform="scale(1 1) rotate(0) translate(4 220)">
<title>ric.func_8016E46C</title>
<polygon fill="white" stroke="transparent" points="-4,4 -4,-220 875.04,-220 875.04,4 -4,4"/>
<!-- ric.func_8016E46C -->
<g id="node1" class="node">
<title>ric.func_8016E46C</title>
<ellipse fill="red" stroke="black" cx="506.44" cy="-198" rx="98.58" ry="18"/>
<text text-anchor="middle" x="506.44" y="-194.3" font-family="Times,serif" font-size="14.00">ric.func_8016E46C</text>
</g>
<!-- dra.AllocPrimitives -->
<g id="node2" class="node">
<title>dra.AllocPrimitives</title>
<g id="a_node2"><a xlink:href="dra.AllocPrimitives.svg" xlink:title="dra.AllocPrimitives">
<ellipse fill="green" stroke="black" cx="99.44" cy="-18" rx="99.38" ry="18"/>
<text text-anchor="middle" x="99.44" y="-14.3" font-family="Times,serif" font-size="14.00">dra.AllocPrimitives</text>
</a>
</g>
</g>
<!-- ric.func_8016E46C&#45;&gt;dra.AllocPrimitives -->
<g id="edge1" class="edge">
<title>ric.func_8016E46C&#45;&gt;dra.AllocPrimitives</title>
<path fill="none" stroke="black" d="M470.32,-181.2C396.2,-148.79 227.01,-74.79 145.29,-39.05"/>
<polygon fill="black" stroke="black" points="146.34,-35.69 135.77,-34.89 143.53,-42.1 146.34,-35.69"/>
<text text-anchor="middle" x="130.77" y="-38.69" font-family="Times,serif" font-size="14.00">1</text>
</g>
<!-- ric.func_8015FAB8 -->
<g id="node3" class="node">
<title>ric.func_8015FAB8</title>
<g id="a_node3"><a xlink:href="ric.func_8015FAB8.svg" xlink:title="ric.func_8015FAB8">
<ellipse fill="green" stroke="black" cx="315.44" cy="-18" rx="98.28" ry="18"/>
<text text-anchor="middle" x="315.44" y="-14.3" font-family="Times,serif" font-size="14.00">ric.func_8015FAB8</text>
</a>
</g>
</g>
<!-- ric.func_8016E46C&#45;&gt;ric.func_8015FAB8 -->
<g id="edge2" class="edge">
<title>ric.func_8016E46C&#45;&gt;ric.func_8015FAB8</title>
<path fill="none" stroke="black" d="M488.47,-180.25C454.34,-148.45 380.06,-79.22 340.85,-42.68"/>
<polygon fill="black" stroke="black" points="343.2,-40.09 333.5,-35.83 338.43,-45.21 343.2,-40.09"/>
<text text-anchor="middle" x="328.5" y="-39.63" font-family="Times,serif" font-size="14.00">1</text>
</g>
<!-- g_api_PlaySfx -->
<g id="node4" class="node">
<title>g_api_PlaySfx</title>
<g id="a_node4"><a xlink:href="g_api_PlaySfx.svg" xlink:title="g_api_PlaySfx">
<ellipse fill="lightblue" stroke="black" cx="506.44" cy="-18" rx="74.99" ry="18"/>
<text text-anchor="middle" x="506.44" y="-14.3" font-family="Times,serif" font-size="14.00">g_api_PlaySfx</text>
</a>
</g>
</g>
<!-- ric.func_8016E46C&#45;&gt;g_api_PlaySfx -->
<g id="edge3" class="edge">
<title>ric.func_8016E46C&#45;&gt;g_api_PlaySfx</title>
<path fill="none" stroke="black" d="M506.44,-179.93C506.44,-148.97 506.44,-83.3 506.44,-46.13"/>
<polygon fill="black" stroke="black" points="509.94,-46.02 506.44,-36.02 502.94,-46.02 509.94,-46.02"/>
<text text-anchor="middle" x="501.44" y="-39.82" font-family="Times,serif" font-size="14.00">2</text>
</g>
<!-- ric.func_80156C60 -->
<g id="node5" class="node">
<title>ric.func_80156C60</title>
<g id="a_node5"><a xlink:href="ric.func_80156C60.svg" xlink:title="ric.func_80156C60">
<ellipse fill="green" stroke="black" cx="697.44" cy="-18" rx="98.28" ry="18"/>
<text text-anchor="middle" x="697.44" y="-14.3" font-family="Times,serif" font-size="14.00">ric.func_80156C60</text>
</a>
</g>
</g>
<!-- ric.func_8016E46C&#45;&gt;ric.func_80156C60 -->
<g id="edge4" class="edge">
<title>ric.func_8016E46C&#45;&gt;ric.func_80156C60</title>
<path fill="none" stroke="black" d="M524.41,-180.25C558.54,-148.45 632.82,-79.22 672.03,-42.68"/>
<polygon fill="black" stroke="black" points="674.45,-45.21 679.38,-35.83 669.68,-40.09 674.45,-45.21"/>
<text text-anchor="middle" x="674.38" y="-39.63" font-family="Times,serif" font-size="14.00">1</text>
</g>
<!-- rsin -->
<g id="node6" class="node">
<title>rsin</title>
<g id="a_node6"><a xlink:href="rsin.svg" xlink:title="rsin">
<ellipse fill="lightblue" stroke="black" cx="842.44" cy="-18" rx="28.7" ry="18"/>
<text text-anchor="middle" x="842.44" y="-14.3" font-family="Times,serif" font-size="14.00">rsin</text>
</a>
</g>
</g>
<!-- ric.func_8016E46C&#45;&gt;rsin -->
<g id="edge5" class="edge">
<title>ric.func_8016E46C&#45;&gt;rsin</title>
<path fill="none" stroke="black" d="M537.15,-180.73C601.1,-146.85 747.91,-69.08 811.8,-35.23"/>
<polygon fill="black" stroke="black" points="813.76,-38.15 820.96,-30.38 810.48,-31.97 813.76,-38.15"/>
<text text-anchor="middle" x="815.96" y="-34.18" font-family="Times,serif" font-size="14.00">6</text>
</g>
</g>
</svg>
