<?xml version="1.0" encoding="UTF-8" standalone="no"?>
<!DOCTYPE svg PUBLIC "-//W3C//DTD SVG 1.1//EN"
 "http://www.w3.org/Graphics/SVG/1.1/DTD/svg11.dtd">
<!-- Generated by graphviz version 2.43.0 (0)
 -->
<!-- Title: ric.func_8015CDE0 Pages: 1 -->
<svg width="957pt" height="218pt"
 viewBox="0.00 0.00 956.53 218.00" xmlns="http://www.w3.org/2000/svg" xmlns:xlink="http://www.w3.org/1999/xlink">
<g id="graph0" class="graph" transform="scale(1 1) rotate(0) translate(4 214)">
<title>ric.func_8015CDE0</title>
<polygon fill="white" stroke="transparent" points="-4,4 -4,-214 952.53,-214 952.53,4 -4,4"/>
<!-- ric.func_8015CDE0 -->
<g id="node1" class="node">
<title>ric.func_8015CDE0</title>
<ellipse fill="green" stroke="black" cx="425.74" cy="-105" rx="100.98" ry="18"/>
<text text-anchor="middle" x="425.74" y="-101.3" font-family="Times,serif" font-size="14.00">ric.func_8015CDE0</text>
</g>
<!-- ric.func_8015CE7C -->
<g id="node2" class="node">
<title>ric.func_8015CE7C</title>
<g id="a_node2"><a xlink:href="ric.func_8015CE7C.svg" xlink:title="ric.func_8015CE7C">
<ellipse fill="green" stroke="black" cx="214.74" cy="-18" rx="100.18" ry="18"/>
<text text-anchor="middle" x="214.74" y="-14.3" font-family="Times,serif" font-size="14.00">ric.func_8015CE7C</text>
</a>
</g>
</g>
<!-- ric.func_8015CDE0&#45;&gt;ric.func_8015CE7C -->
<g id="edge1" class="edge">
<title>ric.func_8015CDE0&#45;&gt;ric.func_8015CE7C</title>
<path fill="none" stroke="black" d="M379.4,-88.95C362.12,-83.07 342.41,-76.06 324.74,-69 302.21,-60 277.58,-48.92 257.35,-39.48"/>
<polygon fill="black" stroke="black" points="258.63,-36.22 248.09,-35.14 255.66,-42.56 258.63,-36.22"/>
<text text-anchor="middle" x="329.74" y="-57.8" font-family="Times,serif" font-size="14.00">1</text>
</g>
<!-- ric.SetPlayerStep -->
<g id="node3" class="node">
<title>ric.SetPlayerStep</title>
<g id="a_node3"><a xlink:href="ric.SetPlayerStep.svg" xlink:title="ric.SetPlayerStep">
<ellipse fill="green" stroke="black" cx="425.74" cy="-18" rx="92.88" ry="18"/>
<text text-anchor="middle" x="425.74" y="-14.3" font-family="Times,serif" font-size="14.00">ric.SetPlayerStep</text>
</a>
</g>
</g>
<!-- ric.func_8015CDE0&#45;&gt;ric.SetPlayerStep -->
<g id="edge2" class="edge">
<title>ric.func_8015CDE0&#45;&gt;ric.SetPlayerStep</title>
<path fill="none" stroke="black" d="M425.74,-86.8C425.74,-75.16 425.74,-59.55 425.74,-46.24"/>
<polygon fill="black" stroke="black" points="429.24,-46.18 425.74,-36.18 422.24,-46.18 429.24,-46.18"/>
<text text-anchor="middle" x="430.74" y="-57.8" font-family="Times,serif" font-size="14.00">1</text>
</g>
<!-- ric.func_8015C920 -->
<g id="node4" class="node">
<title>ric.func_8015C920</title>
<g id="a_node4"><a xlink:href="ric.func_8015C920.svg" xlink:title="ric.func_8015C920">
<ellipse fill="green" stroke="black" cx="634.74" cy="-18" rx="98.28" ry="18"/>
<text text-anchor="middle" x="634.74" y="-14.3" font-family="Times,serif" font-size="14.00">ric.func_8015C920</text>
</a>
</g>
</g>
<!-- ric.func_8015CDE0&#45;&gt;ric.func_8015C920 -->
<g id="edge3" class="edge">
<title>ric.func_8015CDE0&#45;&gt;ric.func_8015C920</title>
<path fill="none" stroke="black" d="M464.56,-88.21C499.02,-74.2 549.51,-53.66 586.54,-38.6"/>
<polygon fill="black" stroke="black" points="588.18,-41.71 596.13,-34.7 585.55,-35.23 588.18,-41.71"/>
<text text-anchor="middle" x="548.74" y="-57.8" font-family="Times,serif" font-size="14.00">1</text>
</g>
<!-- ric.func_8015CA84 -->
<g id="node5" class="node">
<title>ric.func_8015CA84</title>
<g id="a_node5"><a xlink:href="ric.func_8015CA84.svg" xlink:title="ric.func_8015CA84">
<ellipse fill="green" stroke="black" cx="849.74" cy="-18" rx="98.58" ry="18"/>
<text text-anchor="middle" x="849.74" y="-14.3" font-family="Times,serif" font-size="14.00">ric.func_8015CA84</text>
</a>
</g>
</g>
<!-- ric.func_8015CDE0&#45;&gt;ric.func_8015CA84 -->
<g id="edge4" class="edge">
<title>ric.func_8015CDE0&#45;&gt;ric.func_8015CA84</title>
<path fill="none" stroke="black" d="M490.14,-91.09C566.9,-75.7 694.9,-50.04 775.68,-33.85"/>
<polygon fill="black" stroke="black" points="776.66,-37.22 785.78,-31.82 775.29,-30.36 776.66,-37.22"/>
<text text-anchor="middle" x="667.74" y="-57.8" font-family="Times,serif" font-size="14.00">1</text>
</g>
<!-- ric.func_8015CE7C&#45;&gt;ric.func_8015CDE0 -->
<g id="edge9" class="edge">
<title>ric.func_8015CE7C&#45;&gt;ric.func_8015CDE0</title>
<path fill="none" stroke="black" d="M271.78,-32.89C292,-38.53 314.69,-45.69 334.74,-54 353.85,-61.92 374.11,-72.79 390.65,-82.37"/>
<polygon fill="black" stroke="black" points="389.03,-85.48 399.43,-87.53 392.58,-79.44 389.03,-85.48"/>
<text text-anchor="middle" x="370.74" y="-57.8" font-family="Times,serif" font-size="14.00">1</text>
</g>
<!-- ric.func_8015DBB0 -->
<g id="node6" class="node">
<title>ric.func_8015DBB0</title>
<g id="a_node6"><a xlink:href="ric.func_8015DBB0.svg" xlink:title="ric.func_8015DBB0">
<ellipse fill="red" stroke="black" cx="100.74" cy="-192" rx="100.98" ry="18"/>
<text text-anchor="middle" x="100.74" y="-188.3" font-family="Times,serif" font-size="14.00">ric.func_8015DBB0</text>
</a>
</g>
</g>
<!-- ric.func_8015DBB0&#45;&gt;ric.func_8015CDE0 -->
<g id="edge5" class="edge">
<title>ric.func_8015DBB0&#45;&gt;ric.func_8015CDE0</title>
<path fill="none" stroke="black" d="M155.14,-176.77C212.05,-161.89 301.35,-138.53 361.65,-122.76"/>
<polygon fill="black" stroke="black" points="362.65,-126.12 371.44,-120.2 360.88,-119.35 362.65,-126.12"/>
<text text-anchor="middle" x="287.74" y="-144.8" font-family="Times,serif" font-size="14.00">1</text>
</g>
<!-- ric.func_80158BFC -->
<g id="node7" class="node">
<title>ric.func_80158BFC</title>
<g id="a_node7"><a xlink:href="ric.func_80158BFC.svg" xlink:title="ric.func_80158BFC">
<ellipse fill="green" stroke="black" cx="318.74" cy="-192" rx="99.38" ry="18"/>
<text text-anchor="middle" x="318.74" y="-188.3" font-family="Times,serif" font-size="14.00">ric.func_80158BFC</text>
</a>
</g>
</g>
<!-- ric.func_80158BFC&#45;&gt;ric.func_8015CDE0 -->
<g id="edge6" class="edge">
<title>ric.func_80158BFC&#45;&gt;ric.func_8015CDE0</title>
<path fill="none" stroke="black" d="M339.88,-174.21C356.15,-161.28 378.81,-143.28 396.77,-129.02"/>
<polygon fill="black" stroke="black" points="398.99,-131.72 404.65,-122.76 394.64,-126.24 398.99,-131.72"/>
<text text-anchor="middle" x="383.74" y="-144.8" font-family="Times,serif" font-size="14.00">1</text>
</g>
<!-- ric.func_80159670 -->
<g id="node8" class="node">
<title>ric.func_80159670</title>
<g id="a_node8"><a xlink:href="ric.func_80159670.svg" xlink:title="ric.func_80159670">
<ellipse fill="red" stroke="black" cx="532.74" cy="-192" rx="96.68" ry="18"/>
<text text-anchor="middle" x="532.74" y="-188.3" font-family="Times,serif" font-size="14.00">ric.func_80159670</text>
</a>
</g>
</g>
<!-- ric.func_80159670&#45;&gt;ric.func_8015CDE0 -->
<g id="edge7" class="edge">
<title>ric.func_80159670&#45;&gt;ric.func_8015CDE0</title>
<path fill="none" stroke="black" d="M511.86,-174.41C495.61,-161.51 472.88,-143.45 454.85,-129.13"/>
<polygon fill="black" stroke="black" points="456.95,-126.32 446.94,-122.84 452.59,-131.8 456.95,-126.32"/>
<text text-anchor="middle" x="490.74" y="-144.8" font-family="Times,serif" font-size="14.00">1</text>
</g>
<!-- ric.func_80158FA4 -->
<g id="node9" class="node">
<title>ric.func_80158FA4</title>
<g id="a_node9"><a xlink:href="ric.func_80158FA4.svg" xlink:title="ric.func_80158FA4">
<ellipse fill="green" stroke="black" cx="744.74" cy="-192" rx="96.68" ry="18"/>
<text text-anchor="middle" x="744.74" y="-188.3" font-family="Times,serif" font-size="14.00">ric.func_80158FA4</text>
</a>
</g>
</g>
<!-- ric.func_80158FA4&#45;&gt;ric.func_8015CDE0 -->
<g id="edge8" class="edge">
<title>ric.func_80158FA4&#45;&gt;ric.func_8015CDE0</title>
<path fill="none" stroke="black" d="M691.71,-176.87C636.1,-162.05 548.73,-138.77 489.43,-122.97"/>
<polygon fill="black" stroke="black" points="490,-119.5 479.44,-120.31 488.2,-126.26 490,-119.5"/>
<text text-anchor="middle" x="609.74" y="-144.8" font-family="Times,serif" font-size="14.00">1</text>
</g>
</g>
</svg>
