<?xml version="1.0" encoding="UTF-8" standalone="no"?>
<!DOCTYPE svg PUBLIC "-//W3C//DTD SVG 1.1//EN"
 "http://www.w3.org/Graphics/SVG/1.1/DTD/svg11.dtd">
<!-- Generated by graphviz version 2.43.0 (0)
 -->
<!-- Title: ric.func_80167EC4 Pages: 1 -->
<svg width="1343pt" height="224pt"
 viewBox="0.00 0.00 1342.58 224.00" xmlns="http://www.w3.org/2000/svg" xmlns:xlink="http://www.w3.org/1999/xlink">
<g id="graph0" class="graph" transform="scale(1 1) rotate(0) translate(4 220)">
<title>ric.func_80167EC4</title>
<polygon fill="white" stroke="transparent" points="-4,4 -4,-220 1338.58,-220 1338.58,4 -4,4"/>
<!-- ric.func_80167EC4 -->
<g id="node1" class="node">
<title>ric.func_80167EC4</title>
<ellipse fill="red" stroke="black" cx="704.44" cy="-198" rx="98.58" ry="18"/>
<text text-anchor="middle" x="704.44" y="-194.3" font-family="Times,serif" font-size="14.00">ric.func_80167EC4</text>
</g>
<!-- dra.AllocPrimitives -->
<g id="node2" class="node">
<title>dra.AllocPrimitives</title>
<g id="a_node2"><a xlink:href="dra.AllocPrimitives.svg" xlink:title="dra.AllocPrimitives">
<ellipse fill="green" stroke="black" cx="99.44" cy="-18" rx="99.38" ry="18"/>
<text text-anchor="middle" x="99.44" y="-14.3" font-family="Times,serif" font-size="14.00">dra.AllocPrimitives</text>
</a>
</g>
</g>
<!-- ric.func_80167EC4&#45;&gt;dra.AllocPrimitives -->
<g id="edge1" class="edge">
<title>ric.func_80167EC4&#45;&gt;dra.AllocPrimitives</title>
<path fill="none" stroke="black" d="M654.67,-182.36C544.02,-149.8 277.96,-71.52 158.85,-36.48"/>
<polygon fill="black" stroke="black" points="159.74,-33.09 149.15,-33.63 157.76,-39.81 159.74,-33.09"/>
<text text-anchor="middle" x="144.15" y="-37.43" font-family="Times,serif" font-size="14.00">1</text>
</g>
<!-- dra.PlaySfx -->
<g id="node3" class="node">
<title>dra.PlaySfx</title>
<g id="a_node3"><a xlink:href="dra.PlaySfx.svg" xlink:title="dra.PlaySfx">
<ellipse fill="green" stroke="black" cx="281.44" cy="-18" rx="64.19" ry="18"/>
<text text-anchor="middle" x="281.44" y="-14.3" font-family="Times,serif" font-size="14.00">dra.PlaySfx</text>
</a>
</g>
</g>
<!-- ric.func_80167EC4&#45;&gt;dra.PlaySfx -->
<g id="edge2" class="edge">
<title>ric.func_80167EC4&#45;&gt;dra.PlaySfx</title>
<path fill="none" stroke="black" d="M666.9,-181.2C588.62,-148.26 408.31,-72.39 325.05,-37.35"/>
<polygon fill="black" stroke="black" points="326.2,-34.04 315.62,-33.38 323.48,-40.49 326.2,-34.04"/>
<text text-anchor="middle" x="310.62" y="-37.18" font-family="Times,serif" font-size="14.00">1</text>
</g>
<!-- dra.func_801027C4 -->
<g id="node4" class="node">
<title>dra.func_801027C4</title>
<g id="a_node4"><a xlink:href="dra.func_801027C4.svg" xlink:title="dra.func_801027C4">
<ellipse fill="green" stroke="black" cx="465.44" cy="-18" rx="101.28" ry="18"/>
<text text-anchor="middle" x="465.44" y="-14.3" font-family="Times,serif" font-size="14.00">dra.func_801027C4</text>
</a>
</g>
</g>
<!-- ric.func_80167EC4&#45;&gt;dra.func_801027C4 -->
<g id="edge3" class="edge">
<title>ric.func_80167EC4&#45;&gt;dra.func_801027C4</title>
<path fill="none" stroke="black" d="M681.96,-180.25C638.88,-148.17 544.66,-78 495.95,-41.72"/>
<polygon fill="black" stroke="black" points="497.8,-38.74 487.69,-35.57 493.62,-44.35 497.8,-38.74"/>
<text text-anchor="middle" x="482.69" y="-39.37" font-family="Times,serif" font-size="14.00">1</text>
</g>
<!-- main.rcos -->
<g id="node5" class="node">
<title>main.rcos</title>
<g id="a_node5"><a xlink:href="main.rcos.svg" xlink:title="main.rcos">
<ellipse fill="red" stroke="black" cx="640.44" cy="-18" rx="55.79" ry="18"/>
<text text-anchor="middle" x="640.44" y="-14.3" font-family="Times,serif" font-size="14.00">main.rcos</text>
</a>
</g>
</g>
<!-- ric.func_80167EC4&#45;&gt;main.rcos -->
<g id="edge4" class="edge">
<title>ric.func_80167EC4&#45;&gt;main.rcos</title>
<path fill="none" stroke="black" d="M698.3,-179.93C687.12,-148.83 663.36,-82.73 650.02,-45.65"/>
<polygon fill="black" stroke="black" points="653.24,-44.24 646.56,-36.02 646.65,-46.61 653.24,-44.24"/>
<text text-anchor="middle" x="641.56" y="-39.82" font-family="Times,serif" font-size="14.00">1</text>
</g>
<!-- main.rsin -->
<g id="node6" class="node">
<title>main.rsin</title>
<g id="a_node6"><a xlink:href="main.rsin.svg" xlink:title="main.rsin">
<ellipse fill="green" stroke="black" cx="768.44" cy="-18" rx="54.69" ry="18"/>
<text text-anchor="middle" x="768.44" y="-14.3" font-family="Times,serif" font-size="14.00">main.rsin</text>
</a>
</g>
</g>
<!-- ric.func_80167EC4&#45;&gt;main.rsin -->
<g id="edge5" class="edge">
<title>ric.func_80167EC4&#45;&gt;main.rsin</title>
<path fill="none" stroke="black" d="M710.58,-179.93C721.76,-148.83 745.53,-82.73 758.86,-45.65"/>
<polygon fill="black" stroke="black" points="762.23,-46.61 762.32,-36.02 755.65,-44.24 762.23,-46.61"/>
<text text-anchor="middle" x="757.32" y="-39.82" font-family="Times,serif" font-size="14.00">1</text>
</g>
<!-- rand -->
<g id="node7" class="node">
<title>rand</title>
<g id="a_node7"><a xlink:href="rand.svg" xlink:title="rand">
<ellipse fill="lightblue" stroke="black" cx="873.44" cy="-18" rx="32.49" ry="18"/>
<text text-anchor="middle" x="873.44" y="-14.3" font-family="Times,serif" font-size="14.00">rand</text>
</a>
</g>
</g>
<!-- ric.func_80167EC4&#45;&gt;rand -->
<g id="edge6" class="edge">
<title>ric.func_80167EC4&#45;&gt;rand</title>
<path fill="none" stroke="black" d="M720.65,-179.93C751.21,-147.74 817.4,-78.02 851.76,-41.84"/>
<polygon fill="black" stroke="black" points="854.63,-43.89 858.98,-34.23 849.56,-39.07 854.63,-43.89"/>
<text text-anchor="middle" x="853.98" y="-38.03" font-family="Times,serif" font-size="14.00">4</text>
</g>
<!-- ric.func_80156C60 -->
<g id="node8" class="node">
<title>ric.func_80156C60</title>
<g id="a_node8"><a xlink:href="ric.func_80156C60.svg" xlink:title="ric.func_80156C60">
<ellipse fill="green" stroke="black" cx="1022.44" cy="-18" rx="98.28" ry="18"/>
<text text-anchor="middle" x="1022.44" y="-14.3" font-family="Times,serif" font-size="14.00">ric.func_80156C60</text>
</a>
</g>
</g>
<!-- ric.func_80167EC4&#45;&gt;ric.func_80156C60 -->
<g id="edge7" class="edge">
<title>ric.func_80167EC4&#45;&gt;ric.func_80156C60</title>
<path fill="none" stroke="black" d="M733.5,-180.73C791.08,-148.5 919.64,-76.55 984.07,-40.48"/>
<polygon fill="black" stroke="black" points="986.08,-43.36 993.1,-35.42 982.66,-37.25 986.08,-43.36"/>
<text text-anchor="middle" x="988.1" y="-39.22" font-family="Times,serif" font-size="14.00">2</text>
</g>
<!-- ric.func_8015FAB8 -->
<g id="node9" class="node">
<title>ric.func_8015FAB8</title>
<g id="a_node9"><a xlink:href="ric.func_8015FAB8.svg" xlink:title="ric.func_8015FAB8">
<ellipse fill="green" stroke="black" cx="1236.44" cy="-18" rx="98.28" ry="18"/>
<text text-anchor="middle" x="1236.44" y="-14.3" font-family="Times,serif" font-size="14.00">ric.func_8015FAB8</text>
</a>
</g>
</g>
<!-- ric.func_80167EC4&#45;&gt;ric.func_8015FAB8 -->
<g id="edge8" class="edge">
<title>ric.func_80167EC4&#45;&gt;ric.func_8015FAB8</title>
<path fill="none" stroke="black" d="M749.8,-181.82C847.29,-149.2 1076.47,-72.52 1181.78,-37.29"/>
<polygon fill="black" stroke="black" points="1183.2,-40.5 1191.57,-34.01 1180.98,-33.87 1183.2,-40.5"/>
<text text-anchor="middle" x="1186.57" y="-37.81" font-family="Times,serif" font-size="14.00">1</text>
</g>
</g>
</svg>
