<?xml version="1.0" encoding="UTF-8" standalone="no"?>
<!DOCTYPE svg PUBLIC "-//W3C//DTD SVG 1.1//EN"
 "http://www.w3.org/Graphics/SVG/1.1/DTD/svg11.dtd">
<!-- Generated by graphviz version 2.43.0 (0)
 -->
<!-- Title: ric.func_80168A20 Pages: 1 -->
<svg width="1009pt" height="224pt"
 viewBox="0.00 0.00 1009.04 224.00" xmlns="http://www.w3.org/2000/svg" xmlns:xlink="http://www.w3.org/1999/xlink">
<g id="graph0" class="graph" transform="scale(1 1) rotate(0) translate(4 220)">
<title>ric.func_80168A20</title>
<polygon fill="white" stroke="transparent" points="-4,4 -4,-220 1005.04,-220 1005.04,4 -4,4"/>
<!-- ric.func_80168A20 -->
<g id="node1" class="node">
<title>ric.func_80168A20</title>
<ellipse fill="red" stroke="black" cx="505.44" cy="-198" rx="97.48" ry="18"/>
<text text-anchor="middle" x="505.44" y="-194.3" font-family="Times,serif" font-size="14.00">ric.func_80168A20</text>
</g>
<!-- dra.AllocPrimitives -->
<g id="node2" class="node">
<title>dra.AllocPrimitives</title>
<g id="a_node2"><a xlink:href="dra.AllocPrimitives.svg" xlink:title="dra.AllocPrimitives">
<ellipse fill="green" stroke="black" cx="99.44" cy="-18" rx="99.38" ry="18"/>
<text text-anchor="middle" x="99.44" y="-14.3" font-family="Times,serif" font-size="14.00">dra.AllocPrimitives</text>
</a>
</g>
</g>
<!-- ric.func_80168A20&#45;&gt;dra.AllocPrimitives -->
<g id="edge1" class="edge">
<title>ric.func_80168A20&#45;&gt;dra.AllocPrimitives</title>
<path fill="none" stroke="black" d="M469.41,-181.2C395.47,-148.79 226.7,-74.79 145.18,-39.05"/>
<polygon fill="black" stroke="black" points="146.25,-35.7 135.68,-34.89 143.43,-42.11 146.25,-35.7"/>
<text text-anchor="middle" x="130.68" y="-38.69" font-family="Times,serif" font-size="14.00">1</text>
</g>
<!-- rand -->
<g id="node3" class="node">
<title>rand</title>
<g id="a_node3"><a xlink:href="rand.svg" xlink:title="rand">
<ellipse fill="lightblue" stroke="black" cx="249.44" cy="-18" rx="32.49" ry="18"/>
<text text-anchor="middle" x="249.44" y="-14.3" font-family="Times,serif" font-size="14.00">rand</text>
</a>
</g>
</g>
<!-- ric.func_80168A20&#45;&gt;rand -->
<g id="edge2" class="edge">
<title>ric.func_80168A20&#45;&gt;rand</title>
<path fill="none" stroke="black" d="M481.36,-180.25C433.8,-147.19 328.08,-73.68 277.48,-38.5"/>
<polygon fill="black" stroke="black" points="279.2,-35.43 268.99,-32.59 275.2,-41.17 279.2,-35.43"/>
<text text-anchor="middle" x="263.99" y="-36.39" font-family="Times,serif" font-size="14.00">5</text>
</g>
<!-- ric.func_80156C60 -->
<g id="node4" class="node">
<title>ric.func_80156C60</title>
<g id="a_node4"><a xlink:href="ric.func_80156C60.svg" xlink:title="ric.func_80156C60">
<ellipse fill="green" stroke="black" cx="398.44" cy="-18" rx="98.28" ry="18"/>
<text text-anchor="middle" x="398.44" y="-14.3" font-family="Times,serif" font-size="14.00">ric.func_80156C60</text>
</a>
</g>
</g>
<!-- ric.func_80168A20&#45;&gt;ric.func_80156C60 -->
<g id="edge3" class="edge">
<title>ric.func_80168A20&#45;&gt;ric.func_80156C60</title>
<path fill="none" stroke="black" d="M495.18,-179.93C476.33,-148.57 436.07,-81.6 413.89,-44.71"/>
<polygon fill="black" stroke="black" points="416.82,-42.78 408.67,-36.02 410.82,-46.39 416.82,-42.78"/>
<text text-anchor="middle" x="403.67" y="-39.82" font-family="Times,serif" font-size="14.00">2</text>
</g>
<!-- ric.func_8015FAB8 -->
<g id="node5" class="node">
<title>ric.func_8015FAB8</title>
<g id="a_node5"><a xlink:href="ric.func_8015FAB8.svg" xlink:title="ric.func_8015FAB8">
<ellipse fill="green" stroke="black" cx="612.44" cy="-18" rx="98.28" ry="18"/>
<text text-anchor="middle" x="612.44" y="-14.3" font-family="Times,serif" font-size="14.00">ric.func_8015FAB8</text>
</a>
</g>
</g>
<!-- ric.func_80168A20&#45;&gt;ric.func_8015FAB8 -->
<g id="edge4" class="edge">
<title>ric.func_80168A20&#45;&gt;ric.func_8015FAB8</title>
<path fill="none" stroke="black" d="M515.7,-179.93C534.56,-148.57 574.81,-81.6 596.99,-44.71"/>
<polygon fill="black" stroke="black" points="600.06,-46.39 602.21,-36.02 594.06,-42.78 600.06,-46.39"/>
<text text-anchor="middle" x="597.21" y="-39.82" font-family="Times,serif" font-size="14.00">1</text>
</g>
<!-- ric.func_801606BC -->
<g id="node6" class="node">
<title>ric.func_801606BC</title>
<g id="a_node6"><a xlink:href="ric.func_801606BC.svg" xlink:title="ric.func_801606BC">
<ellipse fill="green" stroke="black" cx="827.44" cy="-18" rx="98.58" ry="18"/>
<text text-anchor="middle" x="827.44" y="-14.3" font-family="Times,serif" font-size="14.00">ric.func_801606BC</text>
</a>
</g>
</g>
<!-- ric.func_80168A20&#45;&gt;ric.func_801606BC -->
<g id="edge5" class="edge">
<title>ric.func_80168A20&#45;&gt;ric.func_801606BC</title>
<path fill="none" stroke="black" d="M534.87,-180.73C593.17,-148.5 723.34,-76.55 788.59,-40.48"/>
<polygon fill="black" stroke="black" points="790.67,-43.32 797.73,-35.42 787.29,-37.2 790.67,-43.32"/>
<text text-anchor="middle" x="792.73" y="-39.22" font-family="Times,serif" font-size="14.00">1</text>
</g>
<!-- rsin -->
<g id="node7" class="node">
<title>rsin</title>
<g id="a_node7"><a xlink:href="rsin.svg" xlink:title="rsin">
<ellipse fill="lightblue" stroke="black" cx="972.44" cy="-18" rx="28.7" ry="18"/>
<text text-anchor="middle" x="972.44" y="-14.3" font-family="Times,serif" font-size="14.00">rsin</text>
</a>
</g>
</g>
<!-- ric.func_80168A20&#45;&gt;rsin -->
<g id="edge6" class="edge">
<title>ric.func_80168A20&#45;&gt;rsin</title>
<path fill="none" stroke="black" d="M549.18,-181.8C627.37,-154.38 795.98,-94.06 935.44,-36 937.25,-35.25 939.11,-34.46 940.97,-33.65"/>
<polygon fill="black" stroke="black" points="942.54,-36.78 950.25,-29.51 939.69,-30.38 942.54,-36.78"/>
<text text-anchor="middle" x="945.25" y="-33.31" font-family="Times,serif" font-size="14.00">2</text>
</g>
</g>
</svg>
