<?xml version="1.0" encoding="UTF-8" standalone="no"?>
<!DOCTYPE svg PUBLIC "-//W3C//DTD SVG 1.1//EN"
 "http://www.w3.org/Graphics/SVG/1.1/DTD/svg11.dtd">
<!-- Generated by graphviz version 2.43.0 (0)
 -->
<!-- Title: ric.func_8015C93C Pages: 1 -->
<svg width="2562pt" height="224pt"
 viewBox="0.00 0.00 2561.93 224.00" xmlns="http://www.w3.org/2000/svg" xmlns:xlink="http://www.w3.org/1999/xlink">
<g id="graph0" class="graph" transform="scale(1 1) rotate(0) translate(4 220)">
<title>ric.func_8015C93C</title>
<polygon fill="white" stroke="transparent" points="-4,4 -4,-220 2557.93,-220 2557.93,4 -4,4"/>
<!-- ric.func_8015C93C -->
<g id="node1" class="node">
<title>ric.func_8015C93C</title>
<ellipse fill="green" stroke="black" cx="1278.79" cy="-18" rx="98.58" ry="18"/>
<text text-anchor="middle" x="1278.79" y="-14.3" font-family="Times,serif" font-size="14.00">ric.func_8015C93C</text>
</g>
<!-- ric.func_8015BE84 -->
<g id="node2" class="node">
<title>ric.func_8015BE84</title>
<g id="a_node2"><a xlink:href="ric.func_8015BE84.svg" xlink:title="ric.func_8015BE84">
<ellipse fill="green" stroke="black" cx="98.79" cy="-198" rx="98.58" ry="18"/>
<text text-anchor="middle" x="98.79" y="-194.3" font-family="Times,serif" font-size="14.00">ric.func_8015BE84</text>
</a>
</g>
</g>
<!-- ric.func_8015BE84&#45;&gt;ric.func_8015C93C -->
<g id="edge1" class="edge">
<title>ric.func_8015BE84&#45;&gt;ric.func_8015C93C</title>
<path fill="none" stroke="black" d="M170.82,-185.59C182.83,-183.71 195.16,-181.79 206.79,-180 574.65,-123.43 1013.89,-58.18 1194.71,-31.42"/>
<polygon fill="black" stroke="black" points="1195.3,-34.87 1204.68,-29.95 1194.28,-27.95 1195.3,-34.87"/>
<text text-anchor="middle" x="165.82" y="-174.39" font-family="Times,serif" font-size="14.00">3</text>
</g>
<!-- ric.func_8015C178 -->
<g id="node3" class="node">
<title>ric.func_8015C178</title>
<g id="a_node3"><a xlink:href="ric.func_8015C178.svg" xlink:title="ric.func_8015C178">
<ellipse fill="green" stroke="black" cx="313.79" cy="-198" rx="98.28" ry="18"/>
<text text-anchor="middle" x="313.79" y="-194.3" font-family="Times,serif" font-size="14.00">ric.func_8015C178</text>
</a>
</g>
</g>
<!-- ric.func_8015C178&#45;&gt;ric.func_8015C93C -->
<g id="edge2" class="edge">
<title>ric.func_8015C178&#45;&gt;ric.func_8015C93C</title>
<path fill="none" stroke="black" d="M380.5,-184.7C553.93,-152.7 1018.25,-67.06 1202.21,-33.13"/>
<polygon fill="black" stroke="black" points="1202.87,-36.56 1212.07,-31.31 1201.6,-29.68 1202.87,-36.56"/>
<text text-anchor="middle" x="375.5" y="-173.5" font-family="Times,serif" font-size="14.00">1</text>
</g>
<!-- ric.func_80158BFC -->
<g id="node4" class="node">
<title>ric.func_80158BFC</title>
<g id="a_node4"><a xlink:href="ric.func_80158BFC.svg" xlink:title="ric.func_80158BFC">
<ellipse fill="green" stroke="black" cx="529.79" cy="-198" rx="99.38" ry="18"/>
<text text-anchor="middle" x="529.79" y="-194.3" font-family="Times,serif" font-size="14.00">ric.func_80158BFC</text>
</a>
</g>
</g>
<!-- ric.func_80158BFC&#45;&gt;ric.func_8015C93C -->
<g id="edge3" class="edge">
<title>ric.func_80158BFC&#45;&gt;ric.func_8015C93C</title>
<path fill="none" stroke="black" d="M587.63,-183.25C724.01,-150.84 1065.16,-69.77 1210.97,-35.12"/>
<polygon fill="black" stroke="black" points="1212.21,-38.42 1221.13,-32.7 1210.59,-31.61 1212.21,-38.42"/>
<text text-anchor="middle" x="582.63" y="-172.05" font-family="Times,serif" font-size="14.00">1</text>
</g>
<!-- ric.func_801595D8 -->
<g id="node5" class="node">
<title>ric.func_801595D8</title>
<g id="a_node5"><a xlink:href="ric.func_801595D8.svg" xlink:title="ric.func_801595D8">
<ellipse fill="green" stroke="black" cx="745.79" cy="-198" rx="98.58" ry="18"/>
<text text-anchor="middle" x="745.79" y="-194.3" font-family="Times,serif" font-size="14.00">ric.func_801595D8</text>
</a>
</g>
</g>
<!-- ric.func_801595D8&#45;&gt;ric.func_8015C93C -->
<g id="edge4" class="edge">
<title>ric.func_801595D8&#45;&gt;ric.func_8015C93C</title>
<path fill="none" stroke="black" d="M791.23,-181.82C888.88,-149.21 1118.41,-72.56 1223.95,-37.32"/>
<polygon fill="black" stroke="black" points="1225.09,-40.63 1233.46,-34.14 1222.87,-33.99 1225.09,-40.63"/>
<text text-anchor="middle" x="786.23" y="-170.62" font-family="Times,serif" font-size="14.00">1</text>
</g>
<!-- ric.func_801590A0 -->
<g id="node6" class="node">
<title>ric.func_801590A0</title>
<g id="a_node6"><a xlink:href="ric.func_801590A0.svg" xlink:title="ric.func_801590A0">
<ellipse fill="red" stroke="black" cx="959.79" cy="-198" rx="97.48" ry="18"/>
<text text-anchor="middle" x="959.79" y="-194.3" font-family="Times,serif" font-size="14.00">ric.func_801590A0</text>
</a>
</g>
</g>
<!-- ric.func_801590A0&#45;&gt;ric.func_8015C93C -->
<g id="edge5" class="edge">
<title>ric.func_801590A0&#45;&gt;ric.func_8015C93C</title>
<path fill="none" stroke="black" d="M988.95,-180.73C1046.71,-148.5 1175.66,-76.55 1240.3,-40.48"/>
<polygon fill="black" stroke="black" points="1242.33,-43.35 1249.36,-35.42 1238.92,-37.24 1242.33,-43.35"/>
<text text-anchor="middle" x="983.95" y="-169.53" font-family="Times,serif" font-size="14.00">1</text>
</g>
<!-- ric.func_80158F38 -->
<g id="node7" class="node">
<title>ric.func_80158F38</title>
<g id="a_node7"><a xlink:href="ric.func_80158F38.svg" xlink:title="ric.func_80158F38">
<ellipse fill="green" stroke="black" cx="1172.79" cy="-198" rx="97.48" ry="18"/>
<text text-anchor="middle" x="1172.79" y="-194.3" font-family="Times,serif" font-size="14.00">ric.func_80158F38</text>
</a>
</g>
</g>
<!-- ric.func_80158F38&#45;&gt;ric.func_8015C93C -->
<g id="edge6" class="edge">
<title>ric.func_80158F38&#45;&gt;ric.func_8015C93C</title>
<path fill="none" stroke="black" d="M1182.95,-179.93C1201.63,-148.57 1241.51,-81.6 1263.48,-44.71"/>
<polygon fill="black" stroke="black" points="1266.55,-46.4 1268.66,-36.02 1260.53,-42.82 1266.55,-46.4"/>
<text text-anchor="middle" x="1177.95" y="-168.73" font-family="Times,serif" font-size="14.00">1</text>
</g>
<!-- ric.func_80159670 -->
<g id="node8" class="node">
<title>ric.func_80159670</title>
<g id="a_node8"><a xlink:href="ric.func_80159670.svg" xlink:title="ric.func_80159670">
<ellipse fill="red" stroke="black" cx="1384.79" cy="-198" rx="96.68" ry="18"/>
<text text-anchor="middle" x="1384.79" y="-194.3" font-family="Times,serif" font-size="14.00">ric.func_80159670</text>
</a>
</g>
</g>
<!-- ric.func_80159670&#45;&gt;ric.func_8015C93C -->
<g id="edge7" class="edge">
<title>ric.func_80159670&#45;&gt;ric.func_8015C93C</title>
<path fill="none" stroke="black" d="M1374.63,-179.93C1355.95,-148.57 1316.07,-81.6 1294.1,-44.71"/>
<polygon fill="black" stroke="black" points="1297.05,-42.82 1288.92,-36.02 1291.03,-46.4 1297.05,-42.82"/>
<text text-anchor="middle" x="1369.63" y="-168.73" font-family="Times,serif" font-size="14.00">1</text>
</g>
<!-- ric.func_80159CE4 -->
<g id="node9" class="node">
<title>ric.func_80159CE4</title>
<g id="a_node9"><a xlink:href="ric.func_80159CE4.svg" xlink:title="ric.func_80159CE4">
<ellipse fill="red" stroke="black" cx="1598.79" cy="-198" rx="98.58" ry="18"/>
<text text-anchor="middle" x="1598.79" y="-194.3" font-family="Times,serif" font-size="14.00">ric.func_80159CE4</text>
</a>
</g>
</g>
<!-- ric.func_80159CE4&#45;&gt;ric.func_8015C93C -->
<g id="edge8" class="edge">
<title>ric.func_80159CE4&#45;&gt;ric.func_8015C93C</title>
<path fill="none" stroke="black" d="M1569.55,-180.73C1511.6,-148.5 1382.24,-76.55 1317.4,-40.48"/>
<polygon fill="black" stroke="black" points="1318.76,-37.23 1308.32,-35.42 1315.35,-43.34 1318.76,-37.23"/>
<text text-anchor="middle" x="1564.55" y="-169.53" font-family="Times,serif" font-size="14.00">3</text>
</g>
<!-- ric.func_80158FA4 -->
<g id="node10" class="node">
<title>ric.func_80158FA4</title>
<g id="a_node10"><a xlink:href="ric.func_80158FA4.svg" xlink:title="ric.func_80158FA4">
<ellipse fill="green" stroke="black" cx="1812.79" cy="-198" rx="96.68" ry="18"/>
<text text-anchor="middle" x="1812.79" y="-194.3" font-family="Times,serif" font-size="14.00">ric.func_80158FA4</text>
</a>
</g>
</g>
<!-- ric.func_80158FA4&#45;&gt;ric.func_8015C93C -->
<g id="edge9" class="edge">
<title>ric.func_80158FA4&#45;&gt;ric.func_8015C93C</title>
<path fill="none" stroke="black" d="M1767.72,-181.98C1670.07,-149.43 1439.24,-72.48 1333.46,-37.22"/>
<polygon fill="black" stroke="black" points="1334.52,-33.89 1323.93,-34.05 1332.31,-40.53 1334.52,-33.89"/>
<text text-anchor="middle" x="1762.72" y="-170.78" font-family="Times,serif" font-size="14.00">1</text>
</g>
<!-- ric.func_8015C2A8 -->
<g id="node11" class="node">
<title>ric.func_8015C2A8</title>
<g id="a_node11"><a xlink:href="ric.func_8015C2A8.svg" xlink:title="ric.func_8015C2A8">
<ellipse fill="green" stroke="black" cx="2026.79" cy="-198" rx="98.58" ry="18"/>
<text text-anchor="middle" x="2026.79" y="-194.3" font-family="Times,serif" font-size="14.00">ric.func_8015C2A8</text>
</a>
</g>
</g>
<!-- ric.func_8015C2A8&#45;&gt;ric.func_8015C93C -->
<g id="edge10" class="edge">
<title>ric.func_8015C2A8&#45;&gt;ric.func_8015C93C</title>
<path fill="none" stroke="black" d="M1969.34,-183.33C1833.29,-150.95 1491.94,-69.72 1346.32,-35.07"/>
<polygon fill="black" stroke="black" points="1346.72,-31.57 1336.18,-32.66 1345.1,-38.38 1346.72,-31.57"/>
<text text-anchor="middle" x="1964.34" y="-172.13" font-family="Times,serif" font-size="14.00">1</text>
</g>
<!-- ric.func_8015B898 -->
<g id="node12" class="node">
<title>ric.func_8015B898</title>
<g id="a_node12"><a xlink:href="ric.func_8015B898.svg" xlink:title="ric.func_8015B898">
<ellipse fill="red" stroke="black" cx="2241.79" cy="-198" rx="98.28" ry="18"/>
<text text-anchor="middle" x="2241.79" y="-194.3" font-family="Times,serif" font-size="14.00">ric.func_8015B898</text>
</a>
</g>
</g>
<!-- ric.func_8015B898&#45;&gt;ric.func_8015C93C -->
<g id="edge11" class="edge">
<title>ric.func_8015B898&#45;&gt;ric.func_8015C93C</title>
<path fill="none" stroke="black" d="M2175.22,-184.7C2002.15,-152.7 1538.79,-67.06 1355.22,-33.13"/>
<polygon fill="black" stroke="black" points="1355.84,-29.68 1345.37,-31.31 1354.57,-36.57 1355.84,-29.68"/>
<text text-anchor="middle" x="2170.22" y="-173.5" font-family="Times,serif" font-size="14.00">1</text>
</g>
<!-- ric.func_8015B348 -->
<g id="node13" class="node">
<title>ric.func_8015B348</title>
<g id="a_node13"><a xlink:href="ric.func_8015B348.svg" xlink:title="ric.func_8015B348">
<ellipse fill="green" stroke="black" cx="2455.79" cy="-198" rx="98.28" ry="18"/>
<text text-anchor="middle" x="2455.79" y="-194.3" font-family="Times,serif" font-size="14.00">ric.func_8015B348</text>
</a>
</g>
</g>
<!-- ric.func_8015B348&#45;&gt;ric.func_8015C93C -->
<g id="edge12" class="edge">
<title>ric.func_8015B348&#45;&gt;ric.func_8015C93C</title>
<path fill="none" stroke="black" d="M2384.43,-185.58C2372.53,-183.7 2360.32,-181.78 2348.79,-180 1981.88,-123.25 1543.75,-58.17 1363.06,-31.44"/>
<polygon fill="black" stroke="black" points="1363.49,-27.97 1353.09,-29.96 1362.47,-34.89 1363.49,-27.97"/>
<text text-anchor="middle" x="2379.43" y="-174.38" font-family="Times,serif" font-size="14.00">1</text>
</g>
</g>
</svg>
