<?xml version="1.0" encoding="UTF-8" standalone="no"?>
<!DOCTYPE svg PUBLIC "-//W3C//DTD SVG 1.1//EN"
 "http://www.w3.org/Graphics/SVG/1.1/DTD/svg11.dtd">
<!-- Generated by graphviz version 2.43.0 (0)
 -->
<!-- Title: RotMatrixZ Pages: 1 -->
<svg width="2208pt" height="131pt"
 viewBox="0.00 0.00 2208.03 131.00" xmlns="http://www.w3.org/2000/svg" xmlns:xlink="http://www.w3.org/1999/xlink">
<g id="graph0" class="graph" transform="scale(1 1) rotate(0) translate(4 127)">
<title>RotMatrixZ</title>
<polygon fill="white" stroke="transparent" points="-4,4 -4,-127 2204.03,-127 2204.03,4 -4,4"/>
<!-- main/RotMatrixZ -->
<g id="node1" class="node">
<title>main/RotMatrixZ</title>
<ellipse fill="red" stroke="black" cx="90.34" cy="-105" rx="90.18" ry="18"/>
<text text-anchor="middle" x="90.34" y="-101.3" font-family="Times,serif" font-size="14.00">main/RotMatrixZ</text>
</g>
<!-- no3/EntityUnkId54 -->
<g id="node2" class="node">
<title>no3/EntityUnkId54</title>
<g id="a_node2"><a xlink:href="EntityUnkId54.svg" xlink:title="no3/EntityUnkId54">
<ellipse fill="red" stroke="black" cx="298.34" cy="-105" rx="99.38" ry="18"/>
<text text-anchor="middle" x="298.34" y="-101.3" font-family="Times,serif" font-size="14.00">no3/EntityUnkId54</text>
</a>
</g>
</g>
<!-- no3/RotMatrixZ -->
<g id="node3" class="node">
<title>no3/RotMatrixZ</title>
<ellipse fill="none" stroke="black" cx="409.34" cy="-18" rx="84.49" ry="18"/>
<text text-anchor="middle" x="409.34" y="-14.3" font-family="Times,serif" font-size="14.00">no3/RotMatrixZ</text>
</g>
<!-- no3/EntityUnkId54&#45;&gt;no3/RotMatrixZ -->
<g id="edge1" class="edge">
<title>no3/EntityUnkId54&#45;&gt;no3/RotMatrixZ</title>
<path fill="none" stroke="black" d="M320.01,-87.41C337.04,-74.36 360.96,-56.05 379.76,-41.65"/>
<polygon fill="black" stroke="black" points="381.92,-44.41 387.73,-35.55 377.66,-38.85 381.92,-44.41"/>
<text text-anchor="middle" x="366.34" y="-57.8" font-family="Times,serif" font-size="14.00">2</text>
</g>
<!-- no3/func_801D6880 -->
<g id="node4" class="node">
<title>no3/func_801D6880</title>
<g id="a_node4"><a xlink:href="func_801D6880.svg" xlink:title="no3/func_801D6880">
<ellipse fill="red" stroke="black" cx="519.34" cy="-105" rx="103.18" ry="18"/>
<text text-anchor="middle" x="519.34" y="-101.3" font-family="Times,serif" font-size="14.00">no3/func_801D6880</text>
</a>
</g>
</g>
<!-- no3/func_801D6880&#45;&gt;no3/RotMatrixZ -->
<g id="edge2" class="edge">
<title>no3/func_801D6880&#45;&gt;no3/RotMatrixZ</title>
<path fill="none" stroke="black" d="M497.61,-87.21C480.78,-74.2 457.29,-56.05 438.77,-41.74"/>
<polygon fill="black" stroke="black" points="440.71,-38.81 430.66,-35.47 436.43,-44.35 440.71,-38.81"/>
<text text-anchor="middle" x="476.34" y="-57.8" font-family="Times,serif" font-size="14.00">1</text>
</g>
<!-- dre/func_801A2018 -->
<g id="node5" class="node">
<title>dre/func_801A2018</title>
<g id="a_node5"><a xlink:href="func_801A2018.svg" xlink:title="dre/func_801A2018">
<ellipse fill="red" stroke="black" cx="741.34" cy="-105" rx="100.98" ry="18"/>
<text text-anchor="middle" x="741.34" y="-101.3" font-family="Times,serif" font-size="14.00">dre/func_801A2018</text>
</a>
</g>
</g>
<!-- dre/RotMatrixZ -->
<g id="node6" class="node">
<title>dre/RotMatrixZ</title>
<ellipse fill="none" stroke="black" cx="741.34" cy="-18" rx="83.39" ry="18"/>
<text text-anchor="middle" x="741.34" y="-14.3" font-family="Times,serif" font-size="14.00">dre/RotMatrixZ</text>
</g>
<!-- dre/func_801A2018&#45;&gt;dre/RotMatrixZ -->
<g id="edge3" class="edge">
<title>dre/func_801A2018&#45;&gt;dre/RotMatrixZ</title>
<path fill="none" stroke="black" d="M741.34,-86.8C741.34,-75.16 741.34,-59.55 741.34,-46.24"/>
<polygon fill="black" stroke="black" points="744.84,-46.18 741.34,-36.18 737.84,-46.18 744.84,-46.18"/>
<text text-anchor="middle" x="746.34" y="-57.8" font-family="Times,serif" font-size="14.00">1</text>
</g>
<!-- nz0/func_801C9930 -->
<g id="node7" class="node">
<title>nz0/func_801C9930</title>
<g id="a_node7"><a xlink:href="func_801C9930.svg" xlink:title="nz0/func_801C9930">
<ellipse fill="red" stroke="black" cx="962.34" cy="-105" rx="102.88" ry="18"/>
<text text-anchor="middle" x="962.34" y="-101.3" font-family="Times,serif" font-size="14.00">nz0/func_801C9930</text>
</a>
</g>
</g>
<!-- nz0/RotMatrixZ -->
<g id="node8" class="node">
<title>nz0/RotMatrixZ</title>
<ellipse fill="none" stroke="black" cx="962.34" cy="-18" rx="83.69" ry="18"/>
<text text-anchor="middle" x="962.34" y="-14.3" font-family="Times,serif" font-size="14.00">nz0/RotMatrixZ</text>
</g>
<!-- nz0/func_801C9930&#45;&gt;nz0/RotMatrixZ -->
<g id="edge4" class="edge">
<title>nz0/func_801C9930&#45;&gt;nz0/RotMatrixZ</title>
<path fill="none" stroke="black" d="M962.34,-86.8C962.34,-75.16 962.34,-59.55 962.34,-46.24"/>
<polygon fill="black" stroke="black" points="965.84,-46.18 962.34,-36.18 958.84,-46.18 965.84,-46.18"/>
<text text-anchor="middle" x="967.34" y="-57.8" font-family="Times,serif" font-size="14.00">1</text>
</g>
<!-- cen/func_8019BED4 -->
<g id="node9" class="node">
<title>cen/func_8019BED4</title>
<g id="a_node9"><a xlink:href="func_8019BED4.svg" xlink:title="cen/func_8019BED4">
<ellipse fill="red" stroke="black" cx="1187.34" cy="-105" rx="104.78" ry="18"/>
<text text-anchor="middle" x="1187.34" y="-101.3" font-family="Times,serif" font-size="14.00">cen/func_8019BED4</text>
</a>
</g>
</g>
<!-- cen/RotMatrixZ -->
<g id="node10" class="node">
<title>cen/RotMatrixZ</title>
<ellipse fill="none" stroke="black" cx="1187.34" cy="-18" rx="83.39" ry="18"/>
<text text-anchor="middle" x="1187.34" y="-14.3" font-family="Times,serif" font-size="14.00">cen/RotMatrixZ</text>
</g>
<!-- cen/func_8019BED4&#45;&gt;cen/RotMatrixZ -->
<g id="edge5" class="edge">
<title>cen/func_8019BED4&#45;&gt;cen/RotMatrixZ</title>
<path fill="none" stroke="black" d="M1187.34,-86.8C1187.34,-75.16 1187.34,-59.55 1187.34,-46.24"/>
<polygon fill="black" stroke="black" points="1190.84,-46.18 1187.34,-36.18 1183.84,-46.18 1190.84,-46.18"/>
<text text-anchor="middle" x="1192.34" y="-57.8" font-family="Times,serif" font-size="14.00">1</text>
</g>
<!-- np3/func_801D1F38 -->
<g id="node11" class="node">
<title>np3/func_801D1F38</title>
<g id="a_node11"><a xlink:href="func_801D1F38.svg" xlink:title="np3/func_801D1F38">
<ellipse fill="red" stroke="black" cx="1414.34" cy="-105" rx="104.78" ry="18"/>
<text text-anchor="middle" x="1414.34" y="-101.3" font-family="Times,serif" font-size="14.00">np3/func_801D1F38</text>
</a>
</g>
</g>
<!-- np3/RotMatrixZ -->
<g id="node12" class="node">
<title>np3/RotMatrixZ</title>
<ellipse fill="none" stroke="black" cx="1414.34" cy="-18" rx="85.29" ry="18"/>
<text text-anchor="middle" x="1414.34" y="-14.3" font-family="Times,serif" font-size="14.00">np3/RotMatrixZ</text>
</g>
<!-- np3/func_801D1F38&#45;&gt;np3/RotMatrixZ -->
<g id="edge6" class="edge">
<title>np3/func_801D1F38&#45;&gt;np3/RotMatrixZ</title>
<path fill="none" stroke="black" d="M1414.34,-86.8C1414.34,-75.16 1414.34,-59.55 1414.34,-46.24"/>
<polygon fill="black" stroke="black" points="1417.84,-46.18 1414.34,-36.18 1410.84,-46.18 1417.84,-46.18"/>
<text text-anchor="middle" x="1419.34" y="-57.8" font-family="Times,serif" font-size="14.00">1</text>
</g>
<!-- rwrp/func_801951F0 -->
<g id="node13" class="node">
<title>rwrp/func_801951F0</title>
<g id="a_node13"><a xlink:href="func_801951F0.svg" xlink:title="rwrp/func_801951F0">
<ellipse fill="red" stroke="black" cx="1645.34" cy="-105" rx="107.78" ry="18"/>
<text text-anchor="middle" x="1645.34" y="-101.3" font-family="Times,serif" font-size="14.00">rwrp/func_801951F0</text>
</a>
</g>
</g>
<!-- rwrp/RotMatrixZ -->
<g id="node14" class="node">
<title>rwrp/RotMatrixZ</title>
<ellipse fill="none" stroke="black" cx="1645.34" cy="-18" rx="89.88" ry="18"/>
<text text-anchor="middle" x="1645.34" y="-14.3" font-family="Times,serif" font-size="14.00">rwrp/RotMatrixZ</text>
</g>
<!-- rwrp/func_801951F0&#45;&gt;rwrp/RotMatrixZ -->
<g id="edge7" class="edge">
<title>rwrp/func_801951F0&#45;&gt;rwrp/RotMatrixZ</title>
<path fill="none" stroke="black" d="M1645.34,-86.8C1645.34,-75.16 1645.34,-59.55 1645.34,-46.24"/>
<polygon fill="black" stroke="black" points="1648.84,-46.18 1645.34,-36.18 1641.84,-46.18 1648.84,-46.18"/>
<text text-anchor="middle" x="1650.34" y="-57.8" font-family="Times,serif" font-size="14.00">1</text>
</g>
<!-- wrp/func_80193270 -->
<g id="node15" class="node">
<title>wrp/func_80193270</title>
<g id="a_node15"><a xlink:href="func_80193270.svg" xlink:title="wrp/func_80193270">
<ellipse fill="red" stroke="black" cx="1874.34" cy="-105" rx="102.88" ry="18"/>
<text text-anchor="middle" x="1874.34" y="-101.3" font-family="Times,serif" font-size="14.00">wrp/func_80193270</text>
</a>
</g>
</g>
<!-- wrp/RotMatrixZ -->
<g id="node16" class="node">
<title>wrp/RotMatrixZ</title>
<ellipse fill="none" stroke="black" cx="1874.34" cy="-18" rx="85.29" ry="18"/>
<text text-anchor="middle" x="1874.34" y="-14.3" font-family="Times,serif" font-size="14.00">wrp/RotMatrixZ</text>
</g>
<!-- wrp/func_80193270&#45;&gt;wrp/RotMatrixZ -->
<g id="edge8" class="edge">
<title>wrp/func_80193270&#45;&gt;wrp/RotMatrixZ</title>
<path fill="none" stroke="black" d="M1874.34,-86.8C1874.34,-75.16 1874.34,-59.55 1874.34,-46.24"/>
<polygon fill="black" stroke="black" points="1877.84,-46.18 1874.34,-36.18 1870.84,-46.18 1877.84,-46.18"/>
<text text-anchor="middle" x="1879.34" y="-57.8" font-family="Times,serif" font-size="14.00">1</text>
</g>
<!-- st0/func_801BD0C0 -->
<g id="node17" class="node">
<title>st0/func_801BD0C0</title>
<g id="a_node17"><a xlink:href="func_801BD0C0.svg" xlink:title="st0/func_801BD0C0">
<ellipse fill="red" stroke="black" cx="2097.34" cy="-105" rx="102.88" ry="18"/>
<text text-anchor="middle" x="2097.34" y="-101.3" font-family="Times,serif" font-size="14.00">st0/func_801BD0C0</text>
</a>
</g>
</g>
<!-- st0/RotMatrixZ -->
<g id="node18" class="node">
<title>st0/RotMatrixZ</title>
<ellipse fill="none" stroke="black" cx="2097.34" cy="-18" rx="81.79" ry="18"/>
<text text-anchor="middle" x="2097.34" y="-14.3" font-family="Times,serif" font-size="14.00">st0/RotMatrixZ</text>
</g>
<!-- st0/func_801BD0C0&#45;&gt;st0/RotMatrixZ -->
<g id="edge9" class="edge">
<title>st0/func_801BD0C0&#45;&gt;st0/RotMatrixZ</title>
<path fill="none" stroke="black" d="M2097.34,-86.8C2097.34,-75.16 2097.34,-59.55 2097.34,-46.24"/>
<polygon fill="black" stroke="black" points="2100.84,-46.18 2097.34,-36.18 2093.84,-46.18 2100.84,-46.18"/>
<text text-anchor="middle" x="2102.34" y="-57.8" font-family="Times,serif" font-size="14.00">1</text>
</g>
</g>
</svg>
