<?xml version="1.0" encoding="UTF-8" standalone="no"?>
<!DOCTYPE svg PUBLIC "-//W3C//DTD SVG 1.1//EN"
 "http://www.w3.org/Graphics/SVG/1.1/DTD/svg11.dtd">
<!-- Generated by graphviz version 2.43.0 (0)
 -->
<!-- Title: RotTransPers Pages: 1 -->
<svg width="2010pt" height="131pt"
 viewBox="0.00 0.00 2009.98 131.00" xmlns="http://www.w3.org/2000/svg" xmlns:xlink="http://www.w3.org/1999/xlink">
<g id="graph0" class="graph" transform="scale(1 1) rotate(0) translate(4 127)">
<title>RotTransPers</title>
<polygon fill="white" stroke="transparent" points="-4,4 -4,-127 2005.98,-127 2005.98,4 -4,4"/>
<!-- main/RotTransPers -->
<g id="node1" class="node">
<title>main/RotTransPers</title>
<ellipse fill="red" stroke="black" cx="99.44" cy="-105" rx="99.38" ry="18"/>
<text text-anchor="middle" x="99.44" y="-101.3" font-family="Times,serif" font-size="14.00">main/RotTransPers</text>
</g>
<!-- dre/Entity3DBackgroundHouse -->
<g id="node2" class="node">
<title>dre/Entity3DBackgroundHouse</title>
<g id="a_node2"><a xlink:href="Entity3DBackgroundHouse.svg" xlink:title="dre/Entity3DBackgroundHouse">
<ellipse fill="red" stroke="black" cx="372.44" cy="-105" rx="155.97" ry="18"/>
<text text-anchor="middle" x="372.44" y="-101.3" font-family="Times,serif" font-size="14.00">dre/Entity3DBackgroundHouse</text>
</a>
</g>
</g>
<!-- dre/RotTransPers -->
<g id="node3" class="node">
<title>dre/RotTransPers</title>
<ellipse fill="none" stroke="black" cx="372.44" cy="-18" rx="92.08" ry="18"/>
<text text-anchor="middle" x="372.44" y="-14.3" font-family="Times,serif" font-size="14.00">dre/RotTransPers</text>
</g>
<!-- dre/Entity3DBackgroundHouse&#45;&gt;dre/RotTransPers -->
<g id="edge1" class="edge">
<title>dre/Entity3DBackgroundHouse&#45;&gt;dre/RotTransPers</title>
<path fill="none" stroke="black" d="M372.44,-86.8C372.44,-75.16 372.44,-59.55 372.44,-46.24"/>
<polygon fill="black" stroke="black" points="375.94,-46.18 372.44,-36.18 368.94,-46.18 375.94,-46.18"/>
<text text-anchor="middle" x="377.44" y="-57.8" font-family="Times,serif" font-size="14.00">1</text>
</g>
<!-- no3/EntityBackgroundBushes -->
<g id="node4" class="node">
<title>no3/EntityBackgroundBushes</title>
<g id="a_node4"><a xlink:href="EntityBackgroundBushes.svg" xlink:title="no3/EntityBackgroundBushes">
<ellipse fill="red" stroke="black" cx="695.44" cy="-105" rx="148.67" ry="18"/>
<text text-anchor="middle" x="695.44" y="-101.3" font-family="Times,serif" font-size="14.00">no3/EntityBackgroundBushes</text>
</a>
</g>
</g>
<!-- no3/RotTransPers -->
<g id="node5" class="node">
<title>no3/RotTransPers</title>
<ellipse fill="none" stroke="black" cx="963.44" cy="-18" rx="93.68" ry="18"/>
<text text-anchor="middle" x="963.44" y="-14.3" font-family="Times,serif" font-size="14.00">no3/RotTransPers</text>
</g>
<!-- no3/EntityBackgroundBushes&#45;&gt;no3/RotTransPers -->
<g id="edge2" class="edge">
<title>no3/EntityBackgroundBushes&#45;&gt;no3/RotTransPers</title>
<path fill="none" stroke="black" d="M745.85,-88.01C791.81,-73.44 859.62,-51.93 907.29,-36.81"/>
<polygon fill="black" stroke="black" points="908.37,-40.14 916.85,-33.78 906.26,-33.47 908.37,-40.14"/>
<text text-anchor="middle" x="851.44" y="-57.8" font-family="Times,serif" font-size="14.00">1</text>
</g>
<!-- no3/EntityUnkId1C -->
<g id="node6" class="node">
<title>no3/EntityUnkId1C</title>
<g id="a_node6"><a xlink:href="EntityUnkId1C.svg" xlink:title="no3/EntityUnkId1C">
<ellipse fill="red" stroke="black" cx="963.44" cy="-105" rx="100.98" ry="18"/>
<text text-anchor="middle" x="963.44" y="-101.3" font-family="Times,serif" font-size="14.00">no3/EntityUnkId1C</text>
</a>
</g>
</g>
<!-- no3/EntityUnkId1C&#45;&gt;no3/RotTransPers -->
<g id="edge3" class="edge">
<title>no3/EntityUnkId1C&#45;&gt;no3/RotTransPers</title>
<path fill="none" stroke="black" d="M963.44,-86.8C963.44,-75.16 963.44,-59.55 963.44,-46.24"/>
<polygon fill="black" stroke="black" points="966.94,-46.18 963.44,-36.18 959.94,-46.18 966.94,-46.18"/>
<text text-anchor="middle" x="968.44" y="-57.8" font-family="Times,serif" font-size="14.00">1</text>
</g>
<!-- no3/func_801BB548 -->
<g id="node7" class="node">
<title>no3/func_801BB548</title>
<g id="a_node7"><a xlink:href="func_801BB548.svg" xlink:title="no3/func_801BB548">
<ellipse fill="red" stroke="black" cx="1186.44" cy="-105" rx="103.98" ry="18"/>
<text text-anchor="middle" x="1186.44" y="-101.3" font-family="Times,serif" font-size="14.00">no3/func_801BB548</text>
</a>
</g>
</g>
<!-- no3/func_801BB548&#45;&gt;no3/RotTransPers -->
<g id="edge4" class="edge">
<title>no3/func_801BB548&#45;&gt;no3/RotTransPers</title>
<path fill="none" stroke="black" d="M1145.54,-88.41C1108.25,-74.2 1053.07,-53.16 1013.23,-37.98"/>
<polygon fill="black" stroke="black" points="1014.3,-34.64 1003.71,-34.35 1011.81,-41.18 1014.3,-34.64"/>
<text text-anchor="middle" x="1093.44" y="-57.8" font-family="Times,serif" font-size="14.00">4</text>
</g>
<!-- np3/func_801B32A8 -->
<g id="node8" class="node">
<title>np3/func_801B32A8</title>
<g id="a_node8"><a xlink:href="func_801B32A8.svg" xlink:title="np3/func_801B32A8">
<ellipse fill="red" stroke="black" cx="1412.44" cy="-105" rx="103.98" ry="18"/>
<text text-anchor="middle" x="1412.44" y="-101.3" font-family="Times,serif" font-size="14.00">np3/func_801B32A8</text>
</a>
</g>
</g>
<!-- np3/RotTransPers -->
<g id="node9" class="node">
<title>np3/RotTransPers</title>
<ellipse fill="none" stroke="black" cx="1524.44" cy="-18" rx="94.48" ry="18"/>
<text text-anchor="middle" x="1524.44" y="-14.3" font-family="Times,serif" font-size="14.00">np3/RotTransPers</text>
</g>
<!-- np3/func_801B32A8&#45;&gt;np3/RotTransPers -->
<g id="edge5" class="edge">
<title>np3/func_801B32A8&#45;&gt;np3/RotTransPers</title>
<path fill="none" stroke="black" d="M1434.57,-87.21C1451.67,-74.23 1475.53,-56.12 1494.37,-41.83"/>
<polygon fill="black" stroke="black" points="1496.51,-44.59 1502.36,-35.76 1492.28,-39.02 1496.51,-44.59"/>
<text text-anchor="middle" x="1480.44" y="-57.8" font-family="Times,serif" font-size="14.00">1</text>
</g>
<!-- np3/func_801B3704 -->
<g id="node10" class="node">
<title>np3/func_801B3704</title>
<g id="a_node10"><a xlink:href="func_801B3704.svg" xlink:title="np3/func_801B3704">
<ellipse fill="red" stroke="black" cx="1637.44" cy="-105" rx="103.18" ry="18"/>
<text text-anchor="middle" x="1637.44" y="-101.3" font-family="Times,serif" font-size="14.00">np3/func_801B3704</text>
</a>
</g>
</g>
<!-- np3/func_801B3704&#45;&gt;np3/RotTransPers -->
<g id="edge6" class="edge">
<title>np3/func_801B3704&#45;&gt;np3/RotTransPers</title>
<path fill="none" stroke="black" d="M1615.39,-87.41C1598.04,-74.36 1573.69,-56.05 1554.56,-41.65"/>
<polygon fill="black" stroke="black" points="1556.54,-38.76 1546.44,-35.55 1552.33,-44.36 1556.54,-38.76"/>
<text text-anchor="middle" x="1593.44" y="-57.8" font-family="Times,serif" font-size="14.00">1</text>
</g>
<!-- nz0/EntityLifeUpSpawn -->
<g id="node11" class="node">
<title>nz0/EntityLifeUpSpawn</title>
<g id="a_node11"><a xlink:href="EntityLifeUpSpawn.svg" xlink:title="nz0/EntityLifeUpSpawn">
<ellipse fill="red" stroke="black" cx="1880.44" cy="-105" rx="121.58" ry="18"/>
<text text-anchor="middle" x="1880.44" y="-101.3" font-family="Times,serif" font-size="14.00">nz0/EntityLifeUpSpawn</text>
</a>
</g>
</g>
<!-- nz0/RotTransPers -->
<g id="node12" class="node">
<title>nz0/RotTransPers</title>
<ellipse fill="none" stroke="black" cx="1880.44" cy="-18" rx="92.88" ry="18"/>
<text text-anchor="middle" x="1880.44" y="-14.3" font-family="Times,serif" font-size="14.00">nz0/RotTransPers</text>
</g>
<!-- nz0/EntityLifeUpSpawn&#45;&gt;nz0/RotTransPers -->
<g id="edge7" class="edge">
<title>nz0/EntityLifeUpSpawn&#45;&gt;nz0/RotTransPers</title>
<path fill="none" stroke="black" d="M1880.44,-86.8C1880.44,-75.16 1880.44,-59.55 1880.44,-46.24"/>
<polygon fill="black" stroke="black" points="1883.94,-46.18 1880.44,-36.18 1876.94,-46.18 1883.94,-46.18"/>
<text text-anchor="middle" x="1885.44" y="-57.8" font-family="Times,serif" font-size="14.00">1</text>
</g>
</g>
</svg>
