<?xml version="1.0" encoding="UTF-8" standalone="no"?>
<!DOCTYPE svg PUBLIC "-//W3C//DTD SVG 1.1//EN"
 "http://www.w3.org/Graphics/SVG/1.1/DTD/svg11.dtd">
<!-- Generated by graphviz version 2.43.0 (0)
 -->
<!-- Title: rwrp.func_8018908C Pages: 1 -->
<svg width="1320pt" height="131pt"
 viewBox="0.00 0.00 1320.38 131.00" xmlns="http://www.w3.org/2000/svg" xmlns:xlink="http://www.w3.org/1999/xlink">
<g id="graph0" class="graph" transform="scale(1 1) rotate(0) translate(4 127)">
<title>rwrp.func_8018908C</title>
<polygon fill="white" stroke="transparent" points="-4,4 -4,-127 1316.38,-127 1316.38,4 -4,4"/>
<!-- rwrp.func_8018908C -->
<g id="node1" class="node">
<title>rwrp.func_8018908C</title>
<ellipse fill="red" stroke="black" cx="613.84" cy="-105" rx="108.58" ry="18"/>
<text text-anchor="middle" x="613.84" y="-101.3" font-family="Times,serif" font-size="14.00">rwrp.func_8018908C</text>
</g>
<!-- rwrp.func_8018D6B0 -->
<g id="node2" class="node">
<title>rwrp.func_8018D6B0</title>
<g id="a_node2"><a xlink:href="rwrp.func_8018D6B0.svg" xlink:title="rwrp.func_8018D6B0">
<ellipse fill="red" stroke="black" cx="109.84" cy="-18" rx="109.68" ry="18"/>
<text text-anchor="middle" x="109.84" y="-14.3" font-family="Times,serif" font-size="14.00">rwrp.func_8018D6B0</text>
</a>
</g>
</g>
<!-- rwrp.func_8018908C&#45;&gt;rwrp.func_8018D6B0 -->
<g id="edge1" class="edge">
<title>rwrp.func_8018908C&#45;&gt;rwrp.func_8018D6B0</title>
<path fill="none" stroke="black" d="M540.55,-91.64C448.4,-76.1 290.54,-49.48 193.67,-33.14"/>
<polygon fill="black" stroke="black" points="194.07,-29.66 183.62,-31.44 192.9,-36.56 194.07,-29.66"/>
<text text-anchor="middle" x="397.84" y="-57.8" font-family="Times,serif" font-size="14.00">1</text>
</g>
<!-- dra.PlaySfx -->
<g id="node3" class="node">
<title>dra.PlaySfx</title>
<g id="a_node3"><a xlink:href="dra.PlaySfx.svg" xlink:title="dra.PlaySfx">
<ellipse fill="green" stroke="black" cx="301.84" cy="-18" rx="64.19" ry="18"/>
<text text-anchor="middle" x="301.84" y="-14.3" font-family="Times,serif" font-size="14.00">dra.PlaySfx</text>
</a>
</g>
</g>
<!-- rwrp.func_8018908C&#45;&gt;dra.PlaySfx -->
<g id="edge2" class="edge">
<title>rwrp.func_8018908C&#45;&gt;dra.PlaySfx</title>
<path fill="none" stroke="black" d="M559.85,-89.29C502.92,-73.78 413.72,-49.48 356.53,-33.9"/>
<polygon fill="black" stroke="black" points="357.16,-30.44 346.59,-31.19 355.32,-37.2 357.16,-30.44"/>
<text text-anchor="middle" x="481.84" y="-57.8" font-family="Times,serif" font-size="14.00">1</text>
</g>
<!-- rwrp.func_8018DDF0 -->
<g id="node4" class="node">
<title>rwrp.func_8018DDF0</title>
<g id="a_node4"><a xlink:href="rwrp.func_8018DDF0.svg" xlink:title="rwrp.func_8018DDF0">
<ellipse fill="red" stroke="black" cx="494.84" cy="-18" rx="110.48" ry="18"/>
<text text-anchor="middle" x="494.84" y="-14.3" font-family="Times,serif" font-size="14.00">rwrp.func_8018DDF0</text>
</a>
</g>
</g>
<!-- rwrp.func_8018908C&#45;&gt;rwrp.func_8018DDF0 -->
<g id="edge3" class="edge">
<title>rwrp.func_8018908C&#45;&gt;rwrp.func_8018DDF0</title>
<path fill="none" stroke="black" d="M590.61,-87.41C572.38,-74.39 546.81,-56.12 526.67,-41.74"/>
<polygon fill="black" stroke="black" points="528.59,-38.8 518.42,-35.84 524.52,-44.5 528.59,-38.8"/>
<text text-anchor="middle" x="566.84" y="-57.8" font-family="Times,serif" font-size="14.00">1</text>
</g>
<!-- rwrp.func_8018C7E0 -->
<g id="node5" class="node">
<title>rwrp.func_8018C7E0</title>
<g id="a_node5"><a xlink:href="rwrp.func_8018C7E0.svg" xlink:title="rwrp.func_8018C7E0">
<ellipse fill="red" stroke="black" cx="732.84" cy="-18" rx="109.38" ry="18"/>
<text text-anchor="middle" x="732.84" y="-14.3" font-family="Times,serif" font-size="14.00">rwrp.func_8018C7E0</text>
</a>
</g>
</g>
<!-- rwrp.func_8018908C&#45;&gt;rwrp.func_8018C7E0 -->
<g id="edge4" class="edge">
<title>rwrp.func_8018908C&#45;&gt;rwrp.func_8018C7E0</title>
<path fill="none" stroke="black" d="M637.07,-87.41C655.3,-74.39 680.87,-56.12 701.01,-41.74"/>
<polygon fill="black" stroke="black" points="703.16,-44.5 709.27,-35.84 699.09,-38.8 703.16,-44.5"/>
<text text-anchor="middle" x="685.84" y="-57.8" font-family="Times,serif" font-size="14.00">1</text>
</g>
<!-- rwrp.func_8018E978 -->
<g id="node6" class="node">
<title>rwrp.func_8018E978</title>
<g id="a_node6"><a xlink:href="rwrp.func_8018E978.svg" xlink:title="rwrp.func_8018E978">
<ellipse fill="red" stroke="black" cx="968.84" cy="-18" rx="108.58" ry="18"/>
<text text-anchor="middle" x="968.84" y="-14.3" font-family="Times,serif" font-size="14.00">rwrp.func_8018E978</text>
</a>
</g>
</g>
<!-- rwrp.func_8018908C&#45;&gt;rwrp.func_8018E978 -->
<g id="edge5" class="edge">
<title>rwrp.func_8018908C&#45;&gt;rwrp.func_8018E978</title>
<path fill="none" stroke="black" d="M672.86,-89.87C735.31,-74.92 833.77,-51.34 899.78,-35.54"/>
<polygon fill="black" stroke="black" points="900.77,-38.9 909.68,-33.17 899.14,-32.09 900.77,-38.9"/>
<text text-anchor="middle" x="817.84" y="-57.8" font-family="Times,serif" font-size="14.00">1</text>
</g>
<!-- rwrp.func_8018E290 -->
<g id="node7" class="node">
<title>rwrp.func_8018E290</title>
<g id="a_node7"><a xlink:href="rwrp.func_8018E290.svg" xlink:title="rwrp.func_8018E290">
<ellipse fill="red" stroke="black" cx="1203.84" cy="-18" rx="108.58" ry="18"/>
<text text-anchor="middle" x="1203.84" y="-14.3" font-family="Times,serif" font-size="14.00">rwrp.func_8018E290</text>
</a>
</g>
</g>
<!-- rwrp.func_8018908C&#45;&gt;rwrp.func_8018E290 -->
<g id="edge6" class="edge">
<title>rwrp.func_8018908C&#45;&gt;rwrp.func_8018E290</title>
<path fill="none" stroke="black" d="M692.93,-92.67C786.87,-79.2 948.28,-56.03 1086.84,-36 1096.04,-34.67 1105.64,-33.28 1115.22,-31.89"/>
<polygon fill="black" stroke="black" points="1115.78,-35.35 1125.17,-30.45 1114.77,-28.42 1115.78,-35.35"/>
<text text-anchor="middle" x="962.84" y="-57.8" font-family="Times,serif" font-size="14.00">1</text>
</g>
</g>
</svg>
