<?xml version="1.0" encoding="UTF-8" standalone="no"?>
<!DOCTYPE svg PUBLIC "-//W3C//DTD SVG 1.1//EN"
 "http://www.w3.org/Graphics/SVG/1.1/DTD/svg11.dtd">
<!-- Generated by graphviz version 2.43.0 (0)
 -->
<!-- Title: rwrp.func_8018EFA0 Pages: 1 -->
<svg width="3862pt" height="404pt"
 viewBox="0.00 0.00 3861.63 404.00" xmlns="http://www.w3.org/2000/svg" xmlns:xlink="http://www.w3.org/1999/xlink">
<g id="graph0" class="graph" transform="scale(1 1) rotate(0) translate(4 400)">
<title>rwrp.func_8018EFA0</title>
<polygon fill="white" stroke="transparent" points="-4,4 -4,-400 3857.63,-400 3857.63,4 -4,4"/>
<!-- rwrp.func_8018EFA0 -->
<g id="node1" class="node">
<title>rwrp.func_8018EFA0</title>
<ellipse fill="red" stroke="black" cx="1869.84" cy="-198" rx="108.58" ry="18"/>
<text text-anchor="middle" x="1869.84" y="-194.3" font-family="Times,serif" font-size="14.00">rwrp.func_8018EFA0</text>
</g>
<!-- rwrp.func_8018D6B0 -->
<g id="node2" class="node">
<title>rwrp.func_8018D6B0</title>
<g id="a_node2"><a xlink:href="rwrp.func_8018D6B0.svg" xlink:title="rwrp.func_8018D6B0">
<ellipse fill="red" stroke="black" cx="109.84" cy="-18" rx="109.68" ry="18"/>
<text text-anchor="middle" x="109.84" y="-14.3" font-family="Times,serif" font-size="14.00">rwrp.func_8018D6B0</text>
</a>
</g>
</g>
<!-- rwrp.func_8018EFA0&#45;&gt;rwrp.func_8018D6B0 -->
<g id="edge1" class="edge">
<title>rwrp.func_8018EFA0&#45;&gt;rwrp.func_8018D6B0</title>
<path fill="none" stroke="black" d="M1774.81,-189.2C1522.47,-168.16 814.69,-107.01 227.84,-36 218.13,-34.83 207.99,-33.51 197.9,-32.13"/>
<polygon fill="black" stroke="black" points="198.23,-28.65 187.85,-30.75 197.27,-35.58 198.23,-28.65"/>
<text text-anchor="middle" x="182.85" y="-34.55" font-family="Times,serif" font-size="14.00">1</text>
</g>
<!-- rwrp.func_8018E290 -->
<g id="node3" class="node">
<title>rwrp.func_8018E290</title>
<g id="a_node3"><a xlink:href="rwrp.func_8018E290.svg" xlink:title="rwrp.func_8018E290">
<ellipse fill="red" stroke="black" cx="345.84" cy="-18" rx="108.58" ry="18"/>
<text text-anchor="middle" x="345.84" y="-14.3" font-family="Times,serif" font-size="14.00">rwrp.func_8018E290</text>
</a>
</g>
</g>
<!-- rwrp.func_8018EFA0&#45;&gt;rwrp.func_8018E290 -->
<g id="edge2" class="edge">
<title>rwrp.func_8018EFA0&#45;&gt;rwrp.func_8018E290</title>
<path fill="none" stroke="black" d="M1780.49,-187.68C1557.87,-164.26 960.61,-100.21 463.84,-36 454.14,-34.75 444,-33.38 433.92,-31.98"/>
<polygon fill="black" stroke="black" points="434.26,-28.49 423.87,-30.57 433.29,-35.42 434.26,-28.49"/>
<text text-anchor="middle" x="418.87" y="-34.37" font-family="Times,serif" font-size="14.00">1</text>
</g>
<!-- dra.CheckCollision -->
<g id="node4" class="node">
<title>dra.CheckCollision</title>
<g id="a_node4"><a xlink:href="dra.CheckCollision.svg" xlink:title="dra.CheckCollision">
<ellipse fill="green" stroke="black" cx="569.84" cy="-18" rx="97.48" ry="18"/>
<text text-anchor="middle" x="569.84" y="-14.3" font-family="Times,serif" font-size="14.00">dra.CheckCollision</text>
</a>
</g>
</g>
<!-- rwrp.func_8018EFA0&#45;&gt;dra.CheckCollision -->
<g id="edge3" class="edge">
<title>rwrp.func_8018EFA0&#45;&gt;dra.CheckCollision</title>
<path fill="none" stroke="black" d="M1786.58,-186.45C1592.12,-161.65 1092.98,-97.13 676.84,-36 668.32,-34.75 659.43,-33.4 650.57,-32.03"/>
<polygon fill="black" stroke="black" points="651.02,-28.56 640.6,-30.48 649.94,-35.48 651.02,-28.56"/>
<text text-anchor="middle" x="635.6" y="-34.28" font-family="Times,serif" font-size="14.00">4</text>
</g>
<!-- rwrp.DestroyEntity -->
<g id="node5" class="node">
<title>rwrp.DestroyEntity</title>
<g id="a_node5"><a xlink:href="rwrp.DestroyEntity.svg" xlink:title="rwrp.DestroyEntity">
<ellipse fill="red" stroke="black" cx="786.84" cy="-18" rx="101.28" ry="18"/>
<text text-anchor="middle" x="786.84" y="-14.3" font-family="Times,serif" font-size="14.00">rwrp.DestroyEntity</text>
</a>
</g>
</g>
<!-- rwrp.func_8018EFA0&#45;&gt;rwrp.DestroyEntity -->
<g id="edge4" class="edge">
<title>rwrp.func_8018EFA0&#45;&gt;rwrp.DestroyEntity</title>
<path fill="none" stroke="black" d="M1795.4,-184.77C1599.78,-152.61 1072.3,-65.92 868.63,-32.44"/>
<polygon fill="black" stroke="black" points="869.03,-28.96 858.59,-30.79 867.89,-35.87 869.03,-28.96"/>
<text text-anchor="middle" x="853.59" y="-34.59" font-family="Times,serif" font-size="14.00">2</text>
</g>
<!-- rwrp.MoveEntity -->
<g id="node6" class="node">
<title>rwrp.MoveEntity</title>
<g id="a_node6"><a xlink:href="rwrp.MoveEntity.svg" xlink:title="rwrp.MoveEntity">
<ellipse fill="green" stroke="black" cx="996.84" cy="-18" rx="90.18" ry="18"/>
<text text-anchor="middle" x="996.84" y="-14.3" font-family="Times,serif" font-size="14.00">rwrp.MoveEntity</text>
</a>
</g>
</g>
<!-- rwrp.func_8018EFA0&#45;&gt;rwrp.MoveEntity -->
<g id="edge5" class="edge">
<title>rwrp.func_8018EFA0&#45;&gt;rwrp.MoveEntity</title>
<path fill="none" stroke="black" d="M1804.22,-183.62C1643.91,-150.93 1233.37,-67.23 1067.72,-33.45"/>
<polygon fill="black" stroke="black" points="1068.14,-29.97 1057.64,-31.4 1066.74,-36.82 1068.14,-29.97"/>
<text text-anchor="middle" x="1052.64" y="-35.2" font-family="Times,serif" font-size="14.00">2</text>
</g>
<!-- rwrp.FallEntity -->
<g id="node7" class="node">
<title>rwrp.FallEntity</title>
<g id="a_node7"><a xlink:href="rwrp.FallEntity.svg" xlink:title="rwrp.FallEntity">
<ellipse fill="green" stroke="black" cx="1186.84" cy="-18" rx="81.79" ry="18"/>
<text text-anchor="middle" x="1186.84" y="-14.3" font-family="Times,serif" font-size="14.00">rwrp.FallEntity</text>
</a>
</g>
</g>
<!-- rwrp.func_8018EFA0&#45;&gt;rwrp.FallEntity -->
<g id="edge6" class="edge">
<title>rwrp.func_8018EFA0&#45;&gt;rwrp.FallEntity</title>
<path fill="none" stroke="black" d="M1814.24,-182.51C1687.6,-149.5 1378.55,-68.96 1247.35,-34.77"/>
<polygon fill="black" stroke="black" points="1248.02,-31.33 1237.46,-32.19 1246.25,-38.1 1248.02,-31.33"/>
<text text-anchor="middle" x="1232.46" y="-35.99" font-family="Times,serif" font-size="14.00">2</text>
</g>
<!-- rwrp.func_8018E4DC -->
<g id="node8" class="node">
<title>rwrp.func_8018E4DC</title>
<g id="a_node8"><a xlink:href="rwrp.func_8018E4DC.svg" xlink:title="rwrp.func_8018E4DC">
<ellipse fill="red" stroke="black" cx="1396.84" cy="-18" rx="110.48" ry="18"/>
<text text-anchor="middle" x="1396.84" y="-14.3" font-family="Times,serif" font-size="14.00">rwrp.func_8018E4DC</text>
</a>
</g>
</g>
<!-- rwrp.func_8018EFA0&#45;&gt;rwrp.func_8018E4DC -->
<g id="edge7" class="edge">
<title>rwrp.func_8018EFA0&#45;&gt;rwrp.func_8018E4DC</title>
<path fill="none" stroke="black" d="M1828.28,-181.36C1741.84,-148.83 1542.9,-73.97 1448.44,-38.42"/>
<polygon fill="black" stroke="black" points="1449.41,-35.04 1438.82,-34.8 1446.94,-41.59 1449.41,-35.04"/>
<text text-anchor="middle" x="1433.82" y="-38.6" font-family="Times,serif" font-size="14.00">2</text>
</g>
<!-- rwrp.func_8018EA30 -->
<g id="node9" class="node">
<title>rwrp.func_8018EA30</title>
<g id="a_node9"><a xlink:href="rwrp.func_8018EA30.svg" xlink:title="rwrp.func_8018EA30">
<ellipse fill="green" stroke="black" cx="1633.84" cy="-18" rx="108.58" ry="18"/>
<text text-anchor="middle" x="1633.84" y="-14.3" font-family="Times,serif" font-size="14.00">rwrp.func_8018EA30</text>
</a>
</g>
</g>
<!-- rwrp.func_8018EFA0&#45;&gt;rwrp.func_8018EA30 -->
<g id="edge8" class="edge">
<title>rwrp.func_8018EFA0&#45;&gt;rwrp.func_8018EA30</title>
<path fill="none" stroke="black" d="M1847.64,-180.25C1805.21,-148.25 1712.54,-78.36 1664.34,-42"/>
<polygon fill="black" stroke="black" points="1666.25,-39.06 1656.16,-35.83 1662.03,-44.65 1666.25,-39.06"/>
<text text-anchor="middle" x="1651.16" y="-39.63" font-family="Times,serif" font-size="14.00">1</text>
</g>
<!-- rwrp.func_8018EAB4 -->
<g id="node10" class="node">
<title>rwrp.func_8018EAB4</title>
<g id="a_node10"><a xlink:href="rwrp.func_8018EAB4.svg" xlink:title="rwrp.func_8018EAB4">
<ellipse fill="red" stroke="black" cx="1869.84" cy="-18" rx="109.68" ry="18"/>
<text text-anchor="middle" x="1869.84" y="-14.3" font-family="Times,serif" font-size="14.00">rwrp.func_8018EAB4</text>
</a>
</g>
</g>
<!-- rwrp.func_8018EFA0&#45;&gt;rwrp.func_8018EAB4 -->
<g id="edge9" class="edge">
<title>rwrp.func_8018EFA0&#45;&gt;rwrp.func_8018EAB4</title>
<path fill="none" stroke="black" d="M1869.84,-179.93C1869.84,-148.97 1869.84,-83.3 1869.84,-46.13"/>
<polygon fill="black" stroke="black" points="1873.34,-46.02 1869.84,-36.02 1866.34,-46.02 1873.34,-46.02"/>
<text text-anchor="middle" x="1864.84" y="-39.82" font-family="Times,serif" font-size="14.00">3</text>
</g>
<!-- rwrp.func_8018EC10 -->
<g id="node11" class="node">
<title>rwrp.func_8018EC10</title>
<g id="a_node11"><a xlink:href="rwrp.func_8018EC10.svg" xlink:title="rwrp.func_8018EC10">
<ellipse fill="red" stroke="black" cx="2106.84" cy="-18" rx="109.38" ry="18"/>
<text text-anchor="middle" x="2106.84" y="-14.3" font-family="Times,serif" font-size="14.00">rwrp.func_8018EC10</text>
</a>
</g>
</g>
<!-- rwrp.func_8018EFA0&#45;&gt;rwrp.func_8018EC10 -->
<g id="edge10" class="edge">
<title>rwrp.func_8018EFA0&#45;&gt;rwrp.func_8018EC10</title>
<path fill="none" stroke="black" d="M1892.14,-180.25C1934.75,-148.25 2027.81,-78.36 2076.21,-42"/>
<polygon fill="black" stroke="black" points="2078.54,-44.64 2084.43,-35.83 2074.33,-39.04 2078.54,-44.64"/>
<text text-anchor="middle" x="2079.43" y="-39.63" font-family="Times,serif" font-size="14.00">1</text>
</g>
<!-- rwrp.func_8018EC90 -->
<g id="node12" class="node">
<title>rwrp.func_8018EC90</title>
<g id="a_node12"><a xlink:href="rwrp.func_8018EC90.svg" xlink:title="rwrp.func_8018EC90">
<ellipse fill="red" stroke="black" cx="2342.84" cy="-18" rx="109.38" ry="18"/>
<text text-anchor="middle" x="2342.84" y="-14.3" font-family="Times,serif" font-size="14.00">rwrp.func_8018EC90</text>
</a>
</g>
</g>
<!-- rwrp.func_8018EFA0&#45;&gt;rwrp.func_8018EC90 -->
<g id="edge11" class="edge">
<title>rwrp.func_8018EFA0&#45;&gt;rwrp.func_8018EC90</title>
<path fill="none" stroke="black" d="M1911.4,-181.36C1997.95,-148.79 2197.28,-73.78 2291.6,-38.28"/>
<polygon fill="black" stroke="black" points="2293.08,-41.47 2301.2,-34.67 2290.61,-34.91 2293.08,-41.47"/>
<text text-anchor="middle" x="2296.2" y="-38.47" font-family="Times,serif" font-size="14.00">1</text>
</g>
<!-- rwrp.func_8018EE84 -->
<g id="node13" class="node">
<title>rwrp.func_8018EE84</title>
<g id="a_node13"><a xlink:href="rwrp.func_8018EE84.svg" xlink:title="rwrp.func_8018EE84">
<ellipse fill="red" stroke="black" cx="2578.84" cy="-18" rx="109.38" ry="18"/>
<text text-anchor="middle" x="2578.84" y="-14.3" font-family="Times,serif" font-size="14.00">rwrp.func_8018EE84</text>
</a>
</g>
</g>
<!-- rwrp.func_8018EFA0&#45;&gt;rwrp.func_8018EE84 -->
<g id="edge12" class="edge">
<title>rwrp.func_8018EFA0&#45;&gt;rwrp.func_8018EE84</title>
<path fill="none" stroke="black" d="M1926.96,-182.66C2056.52,-150.13 2372.2,-70.88 2511.22,-35.98"/>
<polygon fill="black" stroke="black" points="2512.47,-39.27 2521.32,-33.44 2510.77,-32.48 2512.47,-39.27"/>
<text text-anchor="middle" x="2516.32" y="-37.24" font-family="Times,serif" font-size="14.00">1</text>
</g>
<!-- rwrp.func_8018EF78 -->
<g id="node14" class="node">
<title>rwrp.func_8018EF78</title>
<g id="a_node14"><a xlink:href="rwrp.func_8018EF78.svg" xlink:title="rwrp.func_8018EF78">
<ellipse fill="green" stroke="black" cx="2814.84" cy="-18" rx="108.58" ry="18"/>
<text text-anchor="middle" x="2814.84" y="-14.3" font-family="Times,serif" font-size="14.00">rwrp.func_8018EF78</text>
</a>
</g>
</g>
<!-- rwrp.func_8018EFA0&#45;&gt;rwrp.func_8018EF78 -->
<g id="edge13" class="edge">
<title>rwrp.func_8018EFA0&#45;&gt;rwrp.func_8018EF78</title>
<path fill="none" stroke="black" d="M1938.56,-184.06C2109.78,-151.8 2554.62,-68.02 2736.05,-33.84"/>
<polygon fill="black" stroke="black" points="2736.88,-37.25 2746.06,-31.96 2735.58,-30.37 2736.88,-37.25"/>
<text text-anchor="middle" x="2741.06" y="-35.76" font-family="Times,serif" font-size="14.00">1</text>
</g>
<!-- rwrp.CollectSubweapon -->
<g id="node15" class="node">
<title>rwrp.CollectSubweapon</title>
<g id="a_node15"><a xlink:href="rwrp.CollectSubweapon.svg" xlink:title="rwrp.CollectSubweapon">
<ellipse fill="green" stroke="black" cx="3063.84" cy="-18" rx="122.38" ry="18"/>
<text text-anchor="middle" x="3063.84" y="-14.3" font-family="Times,serif" font-size="14.00">rwrp.CollectSubweapon</text>
</a>
</g>
</g>
<!-- rwrp.func_8018EFA0&#45;&gt;rwrp.CollectSubweapon -->
<g id="edge14" class="edge">
<title>rwrp.func_8018EFA0&#45;&gt;rwrp.CollectSubweapon</title>
<path fill="none" stroke="black" d="M1947.72,-185.39C2159.2,-153.86 2743.52,-66.75 2971.26,-32.8"/>
<polygon fill="black" stroke="black" points="2971.81,-36.26 2981.18,-31.32 2970.77,-29.34 2971.81,-36.26"/>
<text text-anchor="middle" x="2976.18" y="-35.12" font-family="Times,serif" font-size="14.00">1</text>
</g>
<!-- rwrp.func_8018EF28 -->
<g id="node16" class="node">
<title>rwrp.func_8018EF28</title>
<g id="a_node16"><a xlink:href="rwrp.func_8018EF28.svg" xlink:title="rwrp.func_8018EF28">
<ellipse fill="red" stroke="black" cx="3312.84" cy="-18" rx="108.58" ry="18"/>
<text text-anchor="middle" x="3312.84" y="-14.3" font-family="Times,serif" font-size="14.00">rwrp.func_8018EF28</text>
</a>
</g>
</g>
<!-- rwrp.func_8018EFA0&#45;&gt;rwrp.func_8018EF28 -->
<g id="edge15" class="edge">
<title>rwrp.func_8018EFA0&#45;&gt;rwrp.func_8018EF28</title>
<path fill="none" stroke="black" d="M1956.74,-187.12C2168.6,-162.87 2728.53,-97.91 3194.84,-36 3204.46,-34.72 3214.51,-33.34 3224.51,-31.94"/>
<polygon fill="black" stroke="black" points="3225.07,-35.4 3234.49,-30.54 3224.09,-28.47 3225.07,-35.4"/>
<text text-anchor="middle" x="3229.49" y="-34.34" font-family="Times,serif" font-size="14.00">1</text>
</g>
<!-- dra.AllocPrimitives -->
<g id="node17" class="node">
<title>dra.AllocPrimitives</title>
<g id="a_node17"><a xlink:href="dra.AllocPrimitives.svg" xlink:title="dra.AllocPrimitives">
<ellipse fill="green" stroke="black" cx="3538.84" cy="-18" rx="99.38" ry="18"/>
<text text-anchor="middle" x="3538.84" y="-14.3" font-family="Times,serif" font-size="14.00">dra.AllocPrimitives</text>
</a>
</g>
</g>
<!-- rwrp.func_8018EFA0&#45;&gt;dra.AllocPrimitives -->
<g id="edge16" class="edge">
<title>rwrp.func_8018EFA0&#45;&gt;dra.AllocPrimitives</title>
<path fill="none" stroke="black" d="M1964.18,-189.04C2207.55,-168.11 2876.33,-108.19 3430.84,-36 3439.69,-34.85 3448.93,-33.55 3458.11,-32.19"/>
<polygon fill="black" stroke="black" points="3458.67,-35.64 3468.04,-30.7 3457.63,-28.72 3458.67,-35.64"/>
<text text-anchor="middle" x="3463.04" y="-34.5" font-family="Times,serif" font-size="14.00">1</text>
</g>
<!-- dra.FreePrimitives -->
<g id="node18" class="node">
<title>dra.FreePrimitives</title>
<g id="a_node18"><a xlink:href="dra.FreePrimitives.svg" xlink:title="dra.FreePrimitives">
<ellipse fill="green" stroke="black" cx="3754.84" cy="-18" rx="98.58" ry="18"/>
<text text-anchor="middle" x="3754.84" y="-14.3" font-family="Times,serif" font-size="14.00">dra.FreePrimitives</text>
</a>
</g>
</g>
<!-- rwrp.func_8018EFA0&#45;&gt;dra.FreePrimitives -->
<g id="edge17" class="edge">
<title>rwrp.func_8018EFA0&#45;&gt;dra.FreePrimitives</title>
<path fill="none" stroke="black" d="M1968.33,-190.36C2237.67,-171.71 3008.94,-115.02 3646.84,-36 3655.83,-34.89 3665.23,-33.6 3674.56,-32.24"/>
<polygon fill="black" stroke="black" points="3675.26,-35.67 3684.64,-30.74 3674.23,-28.75 3675.26,-35.67"/>
<text text-anchor="middle" x="3679.64" y="-34.54" font-family="Times,serif" font-size="14.00">1</text>
</g>
<!-- rwrp.func_8018F9B4 -->
<g id="node19" class="node">
<title>rwrp.func_8018F9B4</title>
<g id="a_node19"><a xlink:href="rwrp.func_8018F9B4.svg" xlink:title="rwrp.func_8018F9B4">
<ellipse fill="red" stroke="black" cx="1869.84" cy="-378" rx="108.58" ry="18"/>
<text text-anchor="middle" x="1869.84" y="-374.3" font-family="Times,serif" font-size="14.00">rwrp.func_8018F9B4</text>
</a>
</g>
</g>
<!-- rwrp.func_8018F9B4&#45;&gt;rwrp.func_8018EFA0 -->
<g id="edge18" class="edge">
<title>rwrp.func_8018F9B4&#45;&gt;rwrp.func_8018EFA0</title>
<path fill="none" stroke="black" d="M1869.84,-359.93C1869.84,-328.97 1869.84,-263.3 1869.84,-226.13"/>
<polygon fill="black" stroke="black" points="1873.34,-226.02 1869.84,-216.02 1866.34,-226.02 1873.34,-226.02"/>
<text text-anchor="middle" x="1864.84" y="-348.73" font-family="Times,serif" font-size="14.00">1</text>
</g>
</g>
</svg>
