<?xml version="1.0" encoding="UTF-8" standalone="no"?>
<!DOCTYPE svg PUBLIC "-//W3C//DTD SVG 1.1//EN"
 "http://www.w3.org/Graphics/SVG/1.1/DTD/svg11.dtd">
<!-- Generated by graphviz version 2.43.0 (0)
 -->
<!-- Title: rwrp.EntityRelicOrb Pages: 1 -->
<svg width="1999pt" height="224pt"
 viewBox="0.00 0.00 1998.53 224.00" xmlns="http://www.w3.org/2000/svg" xmlns:xlink="http://www.w3.org/1999/xlink">
<g id="graph0" class="graph" transform="scale(1 1) rotate(0) translate(4 220)">
<title>rwrp.EntityRelicOrb</title>
<polygon fill="white" stroke="transparent" points="-4,4 -4,-220 1994.53,-220 1994.53,4 -4,4"/>
<!-- rwrp.EntityRelicOrb -->
<g id="node1" class="node">
<title>rwrp.EntityRelicOrb</title>
<ellipse fill="green" stroke="black" cx="922.34" cy="-198" rx="105.08" ry="18"/>
<text text-anchor="middle" x="922.34" y="-194.3" font-family="Times,serif" font-size="14.00">rwrp.EntityRelicOrb</text>
</g>
<!-- ClearImage -->
<g id="node2" class="node">
<title>ClearImage</title>
<g id="a_node2"><a xlink:href="ClearImage.svg" xlink:title="ClearImage">
<ellipse fill="lightblue" stroke="black" cx="64.34" cy="-18" rx="64.19" ry="18"/>
<text text-anchor="middle" x="64.34" y="-14.3" font-family="Times,serif" font-size="14.00">ClearImage</text>
</a>
</g>
</g>
<!-- rwrp.EntityRelicOrb&#45;&gt;ClearImage -->
<g id="edge1" class="edge">
<title>rwrp.EntityRelicOrb&#45;&gt;ClearImage</title>
<path fill="none" stroke="black" d="M855.8,-183.97C720.33,-157.31 402.86,-94.13 137.34,-36 132.31,-34.9 127.08,-33.73 121.85,-32.54"/>
<polygon fill="black" stroke="black" points="122.35,-29.07 111.82,-30.25 120.79,-35.89 122.35,-29.07"/>
<text text-anchor="middle" x="106.82" y="-34.05" font-family="Times,serif" font-size="14.00">1</text>
</g>
<!-- LoadTPage -->
<g id="node3" class="node">
<title>LoadTPage</title>
<g id="a_node3"><a xlink:href="LoadTPage.svg" xlink:title="LoadTPage">
<ellipse fill="lightblue" stroke="black" cx="208.34" cy="-18" rx="61.99" ry="18"/>
<text text-anchor="middle" x="208.34" y="-14.3" font-family="Times,serif" font-size="14.00">LoadTPage</text>
</a>
</g>
</g>
<!-- rwrp.EntityRelicOrb&#45;&gt;LoadTPage -->
<g id="edge2" class="edge">
<title>rwrp.EntityRelicOrb&#45;&gt;LoadTPage</title>
<path fill="none" stroke="black" d="M865.42,-182.81C731.15,-149.34 396.03,-65.79 263.52,-32.76"/>
<polygon fill="black" stroke="black" points="264.14,-29.3 253.59,-30.28 262.44,-36.09 264.14,-29.3"/>
<text text-anchor="middle" x="248.59" y="-34.08" font-family="Times,serif" font-size="14.00">1</text>
</g>
<!-- dra.AllocPrimitives -->
<g id="node4" class="node">
<title>dra.AllocPrimitives</title>
<g id="a_node4"><a xlink:href="dra.AllocPrimitives.svg" xlink:title="dra.AllocPrimitives">
<ellipse fill="green" stroke="black" cx="387.34" cy="-18" rx="99.38" ry="18"/>
<text text-anchor="middle" x="387.34" y="-14.3" font-family="Times,serif" font-size="14.00">dra.AllocPrimitives</text>
</a>
</g>
</g>
<!-- rwrp.EntityRelicOrb&#45;&gt;dra.AllocPrimitives -->
<g id="edge3" class="edge">
<title>rwrp.EntityRelicOrb&#45;&gt;dra.AllocPrimitives</title>
<path fill="none" stroke="black" d="M876.27,-181.67C777.95,-148.96 547.98,-72.45 442.27,-37.27"/>
<polygon fill="black" stroke="black" points="443.34,-33.94 432.74,-34.1 441.13,-40.58 443.34,-33.94"/>
<text text-anchor="middle" x="427.74" y="-37.9" font-family="Times,serif" font-size="14.00">1</text>
</g>
<!-- dra.LoadEquipIcon -->
<g id="node5" class="node">
<title>dra.LoadEquipIcon</title>
<g id="a_node5"><a xlink:href="dra.LoadEquipIcon.svg" xlink:title="dra.LoadEquipIcon">
<ellipse fill="green" stroke="black" cx="603.34" cy="-18" rx="98.58" ry="18"/>
<text text-anchor="middle" x="603.34" y="-14.3" font-family="Times,serif" font-size="14.00">dra.LoadEquipIcon</text>
</a>
</g>
</g>
<!-- rwrp.EntityRelicOrb&#45;&gt;dra.LoadEquipIcon -->
<g id="edge4" class="edge">
<title>rwrp.EntityRelicOrb&#45;&gt;dra.LoadEquipIcon</title>
<path fill="none" stroke="black" d="M892.91,-180.57C834.98,-148.25 706.26,-76.42 641.75,-40.43"/>
<polygon fill="black" stroke="black" points="643.15,-37.2 632.71,-35.39 639.74,-43.32 643.15,-37.2"/>
<text text-anchor="middle" x="627.71" y="-39.19" font-family="Times,serif" font-size="14.00">1</text>
</g>
<!-- dra.func_800FE044 -->
<g id="node6" class="node">
<title>dra.func_800FE044</title>
<g id="a_node6"><a xlink:href="dra.func_800FE044.svg" xlink:title="dra.func_800FE044">
<ellipse fill="green" stroke="black" cx="822.34" cy="-18" rx="102.08" ry="18"/>
<text text-anchor="middle" x="822.34" y="-14.3" font-family="Times,serif" font-size="14.00">dra.func_800FE044</text>
</a>
</g>
</g>
<!-- rwrp.EntityRelicOrb&#45;&gt;dra.func_800FE044 -->
<g id="edge5" class="edge">
<title>rwrp.EntityRelicOrb&#45;&gt;dra.func_800FE044</title>
<path fill="none" stroke="black" d="M912.76,-179.93C895.21,-148.7 857.83,-82.17 837.05,-45.18"/>
<polygon fill="black" stroke="black" points="839.85,-43.02 831.9,-36.02 833.75,-46.45 839.85,-43.02"/>
<text text-anchor="middle" x="826.9" y="-39.82" font-family="Times,serif" font-size="14.00">1</text>
</g>
<!-- rwrp.BlinkItem -->
<g id="node7" class="node">
<title>rwrp.BlinkItem</title>
<g id="a_node7"><a xlink:href="rwrp.BlinkItem.svg" xlink:title="rwrp.BlinkItem">
<ellipse fill="red" stroke="black" cx="1023.34" cy="-18" rx="81.49" ry="18"/>
<text text-anchor="middle" x="1023.34" y="-14.3" font-family="Times,serif" font-size="14.00">rwrp.BlinkItem</text>
</a>
</g>
</g>
<!-- rwrp.EntityRelicOrb&#45;&gt;rwrp.BlinkItem -->
<g id="edge6" class="edge">
<title>rwrp.EntityRelicOrb&#45;&gt;rwrp.BlinkItem</title>
<path fill="none" stroke="black" d="M932.03,-179.93C949.75,-148.7 987.5,-82.17 1008.49,-45.18"/>
<polygon fill="black" stroke="black" points="1011.8,-46.44 1013.69,-36.02 1005.71,-42.99 1011.8,-46.44"/>
<text text-anchor="middle" x="1008.69" y="-39.82" font-family="Times,serif" font-size="14.00">1</text>
</g>
<!-- rwrp.DestroyEntity -->
<g id="node8" class="node">
<title>rwrp.DestroyEntity</title>
<g id="a_node8"><a xlink:href="rwrp.DestroyEntity.svg" xlink:title="rwrp.DestroyEntity">
<ellipse fill="red" stroke="black" cx="1224.34" cy="-18" rx="101.28" ry="18"/>
<text text-anchor="middle" x="1224.34" y="-14.3" font-family="Times,serif" font-size="14.00">rwrp.DestroyEntity</text>
</a>
</g>
</g>
<!-- rwrp.EntityRelicOrb&#45;&gt;rwrp.DestroyEntity -->
<g id="edge7" class="edge">
<title>rwrp.EntityRelicOrb&#45;&gt;rwrp.DestroyEntity</title>
<path fill="none" stroke="black" d="M950.21,-180.57C1004.94,-148.32 1126.42,-76.72 1187.61,-40.65"/>
<polygon fill="black" stroke="black" points="1189.7,-43.48 1196.54,-35.39 1186.15,-37.45 1189.7,-43.48"/>
<text text-anchor="middle" x="1191.54" y="-39.19" font-family="Times,serif" font-size="14.00">1</text>
</g>
<!-- rwrp.InitializeEntity -->
<g id="node9" class="node">
<title>rwrp.InitializeEntity</title>
<g id="a_node9"><a xlink:href="rwrp.InitializeEntity.svg" xlink:title="rwrp.InitializeEntity">
<ellipse fill="red" stroke="black" cx="1449.34" cy="-18" rx="105.08" ry="18"/>
<text text-anchor="middle" x="1449.34" y="-14.3" font-family="Times,serif" font-size="14.00">rwrp.InitializeEntity</text>
</a>
</g>
</g>
<!-- rwrp.EntityRelicOrb&#45;&gt;rwrp.InitializeEntity -->
<g id="edge8" class="edge">
<title>rwrp.EntityRelicOrb&#45;&gt;rwrp.InitializeEntity</title>
<path fill="none" stroke="black" d="M967.73,-181.67C1064.24,-149.07 1289.52,-72.98 1394.14,-37.65"/>
<polygon fill="black" stroke="black" points="1395.52,-40.87 1403.88,-34.36 1393.28,-34.24 1395.52,-40.87"/>
<text text-anchor="middle" x="1398.88" y="-38.16" font-family="Times,serif" font-size="14.00">1</text>
</g>
<!-- rwrp.MoveEntity -->
<g id="node10" class="node">
<title>rwrp.MoveEntity</title>
<g id="a_node10"><a xlink:href="rwrp.MoveEntity.svg" xlink:title="rwrp.MoveEntity">
<ellipse fill="green" stroke="black" cx="1663.34" cy="-18" rx="90.18" ry="18"/>
<text text-anchor="middle" x="1663.34" y="-14.3" font-family="Times,serif" font-size="14.00">rwrp.MoveEntity</text>
</a>
</g>
</g>
<!-- rwrp.EntityRelicOrb&#45;&gt;rwrp.MoveEntity -->
<g id="edge9" class="edge">
<title>rwrp.EntityRelicOrb&#45;&gt;rwrp.MoveEntity</title>
<path fill="none" stroke="black" d="M980.8,-182.96C1117.13,-150.21 1455.37,-68.96 1598.13,-34.67"/>
<polygon fill="black" stroke="black" points="1599.15,-38.02 1608.06,-32.28 1597.52,-31.21 1599.15,-38.02"/>
<text text-anchor="middle" x="1603.06" y="-36.08" font-family="Times,serif" font-size="14.00">1</text>
</g>
<!-- rwrp.func_8018FF9C -->
<g id="node11" class="node">
<title>rwrp.func_8018FF9C</title>
<g id="a_node11"><a xlink:href="rwrp.func_8018FF9C.svg" xlink:title="rwrp.func_8018FF9C">
<ellipse fill="green" stroke="black" cx="1881.34" cy="-18" rx="109.38" ry="18"/>
<text text-anchor="middle" x="1881.34" y="-14.3" font-family="Times,serif" font-size="14.00">rwrp.func_8018FF9C</text>
</a>
</g>
</g>
<!-- rwrp.EntityRelicOrb&#45;&gt;rwrp.func_8018FF9C -->
<g id="edge10" class="edge">
<title>rwrp.EntityRelicOrb&#45;&gt;rwrp.func_8018FF9C</title>
<path fill="none" stroke="black" d="M990.93,-184.27C1163.94,-152.16 1617.43,-67.99 1801.74,-33.78"/>
<polygon fill="black" stroke="black" points="1802.44,-37.2 1811.64,-31.94 1801.16,-30.32 1802.44,-37.2"/>
<text text-anchor="middle" x="1806.64" y="-35.74" font-family="Times,serif" font-size="14.00">1</text>
</g>
</g>
</svg>
