<?xml version="1.0" encoding="UTF-8" standalone="no"?>
<!DOCTYPE svg PUBLIC "-//W3C//DTD SVG 1.1//EN"
 "http://www.w3.org/Graphics/SVG/1.1/DTD/svg11.dtd">
<!-- Generated by graphviz version 2.43.0 (0)
 -->
<!-- Title: rwrp.func_8018DDF0 Pages: 1 -->
<svg width="1382pt" height="404pt"
 viewBox="0.00 0.00 1382.43 404.00" xmlns="http://www.w3.org/2000/svg" xmlns:xlink="http://www.w3.org/1999/xlink">
<g id="graph0" class="graph" transform="scale(1 1) rotate(0) translate(4 400)">
<title>rwrp.func_8018DDF0</title>
<polygon fill="white" stroke="transparent" points="-4,4 -4,-400 1378.43,-400 1378.43,4 -4,4"/>
<!-- rwrp.func_8018DDF0 -->
<g id="node1" class="node">
<title>rwrp.func_8018DDF0</title>
<ellipse fill="red" stroke="black" cx="693.54" cy="-198" rx="110.48" ry="18"/>
<text text-anchor="middle" x="693.54" y="-194.3" font-family="Times,serif" font-size="14.00">rwrp.func_8018DDF0</text>
</g>
<!-- rwrp.DestroyEntity -->
<g id="node2" class="node">
<title>rwrp.DestroyEntity</title>
<g id="a_node2"><a xlink:href="rwrp.DestroyEntity.svg" xlink:title="rwrp.DestroyEntity">
<ellipse fill="red" stroke="black" cx="693.54" cy="-18" rx="101.28" ry="18"/>
<text text-anchor="middle" x="693.54" y="-14.3" font-family="Times,serif" font-size="14.00">rwrp.DestroyEntity</text>
</a>
</g>
</g>
<!-- rwrp.func_8018DDF0&#45;&gt;rwrp.DestroyEntity -->
<g id="edge1" class="edge">
<title>rwrp.func_8018DDF0&#45;&gt;rwrp.DestroyEntity</title>
<path fill="none" stroke="black" d="M693.54,-179.93C693.54,-148.97 693.54,-83.3 693.54,-46.13"/>
<polygon fill="black" stroke="black" points="697.04,-46.02 693.54,-36.02 690.04,-46.02 697.04,-46.02"/>
<text text-anchor="middle" x="688.54" y="-39.82" font-family="Times,serif" font-size="14.00">1</text>
</g>
<!-- rwrp.func_8018908C -->
<g id="node3" class="node">
<title>rwrp.func_8018908C</title>
<g id="a_node3"><a xlink:href="rwrp.func_8018908C.svg" xlink:title="rwrp.func_8018908C">
<ellipse fill="red" stroke="black" cx="108.54" cy="-378" rx="108.58" ry="18"/>
<text text-anchor="middle" x="108.54" y="-374.3" font-family="Times,serif" font-size="14.00">rwrp.func_8018908C</text>
</a>
</g>
</g>
<!-- rwrp.func_8018908C&#45;&gt;rwrp.func_8018DDF0 -->
<g id="edge2" class="edge">
<title>rwrp.func_8018908C&#45;&gt;rwrp.func_8018DDF0</title>
<path fill="none" stroke="black" d="M158.16,-361.9C265.39,-329.27 518.34,-252.31 633.98,-217.12"/>
<polygon fill="black" stroke="black" points="635.19,-220.41 643.73,-214.15 633.15,-213.72 635.19,-220.41"/>
<text text-anchor="middle" x="153.16" y="-350.7" font-family="Times,serif" font-size="14.00">1</text>
</g>
<!-- rwrp.func_801924DC -->
<g id="node4" class="node">
<title>rwrp.func_801924DC</title>
<g id="a_node4"><a xlink:href="rwrp.func_801924DC.svg" xlink:title="rwrp.func_801924DC">
<ellipse fill="red" stroke="black" cx="344.54" cy="-378" rx="109.68" ry="18"/>
<text text-anchor="middle" x="344.54" y="-374.3" font-family="Times,serif" font-size="14.00">rwrp.func_801924DC</text>
</a>
</g>
</g>
<!-- rwrp.func_801924DC&#45;&gt;rwrp.func_8018DDF0 -->
<g id="edge3" class="edge">
<title>rwrp.func_801924DC&#45;&gt;rwrp.func_8018DDF0</title>
<path fill="none" stroke="black" d="M376.44,-360.73C439.97,-328.33 582.23,-255.77 652.57,-219.9"/>
<polygon fill="black" stroke="black" points="654.27,-222.96 661.59,-215.29 651.09,-216.72 654.27,-222.96"/>
<text text-anchor="middle" x="371.44" y="-349.53" font-family="Times,serif" font-size="14.00">1</text>
</g>
<!-- rwrp.func_801916D0 -->
<g id="node5" class="node">
<title>rwrp.func_801916D0</title>
<g id="a_node5"><a xlink:href="rwrp.func_801916D0.svg" xlink:title="rwrp.func_801916D0">
<ellipse fill="red" stroke="black" cx="580.54" cy="-378" rx="108.58" ry="18"/>
<text text-anchor="middle" x="580.54" y="-374.3" font-family="Times,serif" font-size="14.00">rwrp.func_801916D0</text>
</a>
</g>
</g>
<!-- rwrp.func_801916D0&#45;&gt;rwrp.func_8018DDF0 -->
<g id="edge4" class="edge">
<title>rwrp.func_801916D0&#45;&gt;rwrp.func_8018DDF0</title>
<path fill="none" stroke="black" d="M591.38,-359.93C611.29,-328.57 653.8,-261.6 677.22,-224.71"/>
<polygon fill="black" stroke="black" points="680.33,-226.33 682.74,-216.02 674.42,-222.58 680.33,-226.33"/>
<text text-anchor="middle" x="586.38" y="-348.73" font-family="Times,serif" font-size="14.00">1</text>
</g>
<!-- rwrp.TestCollisions -->
<g id="node6" class="node">
<title>rwrp.TestCollisions</title>
<g id="a_node6"><a xlink:href="rwrp.TestCollisions.svg" xlink:title="rwrp.TestCollisions">
<ellipse fill="red" stroke="black" cx="807.54" cy="-378" rx="100.98" ry="18"/>
<text text-anchor="middle" x="807.54" y="-374.3" font-family="Times,serif" font-size="14.00">rwrp.TestCollisions</text>
</a>
</g>
</g>
<!-- rwrp.TestCollisions&#45;&gt;rwrp.func_8018DDF0 -->
<g id="edge5" class="edge">
<title>rwrp.TestCollisions&#45;&gt;rwrp.func_8018DDF0</title>
<path fill="none" stroke="black" d="M796.61,-359.93C776.52,-328.57 733.63,-261.6 710,-224.71"/>
<polygon fill="black" stroke="black" points="712.78,-222.55 704.44,-216.02 706.88,-226.32 712.78,-222.55"/>
<text text-anchor="middle" x="791.61" y="-348.73" font-family="Times,serif" font-size="14.00">4</text>
</g>
<!-- rwrp.func_80191490 -->
<g id="node7" class="node">
<title>rwrp.func_80191490</title>
<g id="a_node7"><a xlink:href="rwrp.func_80191490.svg" xlink:title="rwrp.func_80191490">
<ellipse fill="red" stroke="black" cx="1033.54" cy="-378" rx="107.48" ry="18"/>
<text text-anchor="middle" x="1033.54" y="-374.3" font-family="Times,serif" font-size="14.00">rwrp.func_80191490</text>
</a>
</g>
</g>
<!-- rwrp.func_80191490&#45;&gt;rwrp.func_8018DDF0 -->
<g id="edge6" class="edge">
<title>rwrp.func_80191490&#45;&gt;rwrp.func_8018DDF0</title>
<path fill="none" stroke="black" d="M1002.47,-360.73C940.78,-328.44 802.89,-256.25 734.14,-220.25"/>
<polygon fill="black" stroke="black" points="735.39,-216.96 724.91,-215.42 732.15,-223.16 735.39,-216.96"/>
<text text-anchor="middle" x="997.47" y="-349.53" font-family="Times,serif" font-size="14.00">1</text>
</g>
<!-- rwrp.func_801915A0 -->
<g id="node8" class="node">
<title>rwrp.func_801915A0</title>
<g id="a_node8"><a xlink:href="rwrp.func_801915A0.svg" xlink:title="rwrp.func_801915A0">
<ellipse fill="red" stroke="black" cx="1266.54" cy="-378" rx="107.78" ry="18"/>
<text text-anchor="middle" x="1266.54" y="-374.3" font-family="Times,serif" font-size="14.00">rwrp.func_801915A0</text>
</a>
</g>
</g>
<!-- rwrp.func_801915A0&#45;&gt;rwrp.func_8018DDF0 -->
<g id="edge7" class="edge">
<title>rwrp.func_801915A0&#45;&gt;rwrp.func_8018DDF0</title>
<path fill="none" stroke="black" d="M1217.69,-361.82C1112.63,-329.19 865.58,-252.44 752.24,-217.23"/>
<polygon fill="black" stroke="black" points="753.26,-213.89 742.68,-214.26 751.19,-220.57 753.26,-213.89"/>
<text text-anchor="middle" x="1212.69" y="-350.62" font-family="Times,serif" font-size="14.00">1</text>
</g>
</g>
</svg>
