<?xml version="1.0" encoding="UTF-8" standalone="no"?>
<!DOCTYPE svg PUBLIC "-//W3C//DTD SVG 1.1//EN"
 "http://www.w3.org/Graphics/SVG/1.1/DTD/svg11.dtd">
<!-- Generated by graphviz version 2.43.0 (0)
 -->
<!-- Title: rwrp.func_8018F9B4 Pages: 1 -->
<svg width="3403pt" height="224pt"
 viewBox="0.00 0.00 3403.33 224.00" xmlns="http://www.w3.org/2000/svg" xmlns:xlink="http://www.w3.org/1999/xlink">
<g id="graph0" class="graph" transform="scale(1 1) rotate(0) translate(4 220)">
<title>rwrp.func_8018F9B4</title>
<polygon fill="white" stroke="transparent" points="-4,4 -4,-220 3399.33,-220 3399.33,4 -4,4"/>
<!-- rwrp.func_8018F9B4 -->
<g id="node1" class="node">
<title>rwrp.func_8018F9B4</title>
<ellipse fill="red" stroke="black" cx="1686.44" cy="-198" rx="108.58" ry="18"/>
<text text-anchor="middle" x="1686.44" y="-194.3" font-family="Times,serif" font-size="14.00">rwrp.func_8018F9B4</text>
</g>
<!-- rwrp.SetStep -->
<g id="node2" class="node">
<title>rwrp.SetStep</title>
<g id="a_node2"><a xlink:href="rwrp.SetStep.svg" xlink:title="rwrp.SetStep">
<ellipse fill="green" stroke="black" cx="73.44" cy="-18" rx="73.39" ry="18"/>
<text text-anchor="middle" x="73.44" y="-14.3" font-family="Times,serif" font-size="14.00">rwrp.SetStep</text>
</a>
</g>
</g>
<!-- rwrp.func_8018F9B4&#45;&gt;rwrp.SetStep -->
<g id="edge1" class="edge">
<title>rwrp.func_8018F9B4&#45;&gt;rwrp.SetStep</title>
<path fill="none" stroke="black" d="M1588.39,-190.1C1344.9,-172.21 693.5,-119.85 155.44,-36 149.13,-35.02 142.56,-33.87 136.02,-32.64"/>
<polygon fill="black" stroke="black" points="136.28,-29.13 125.79,-30.66 134.95,-36 136.28,-29.13"/>
<text text-anchor="middle" x="120.79" y="-34.46" font-family="Times,serif" font-size="14.00">1</text>
</g>
<!-- rwrp.func_8018EFA0 -->
<g id="node3" class="node">
<title>rwrp.func_8018EFA0</title>
<g id="a_node3"><a xlink:href="rwrp.func_8018EFA0.svg" xlink:title="rwrp.func_8018EFA0">
<ellipse fill="red" stroke="black" cx="273.44" cy="-18" rx="108.58" ry="18"/>
<text text-anchor="middle" x="273.44" y="-14.3" font-family="Times,serif" font-size="14.00">rwrp.func_8018EFA0</text>
</a>
</g>
</g>
<!-- rwrp.func_8018F9B4&#45;&gt;rwrp.func_8018EFA0 -->
<g id="edge2" class="edge">
<title>rwrp.func_8018F9B4&#45;&gt;rwrp.func_8018EFA0</title>
<path fill="none" stroke="black" d="M1600.3,-186.92C1392.21,-162.45 845.74,-97.35 390.44,-36 381.08,-34.74 371.31,-33.38 361.57,-32"/>
<polygon fill="black" stroke="black" points="361.84,-28.51 351.45,-30.56 360.86,-35.44 361.84,-28.51"/>
<text text-anchor="middle" x="346.45" y="-34.36" font-family="Times,serif" font-size="14.00">1</text>
</g>
<!-- rwrp.func_8018E290 -->
<g id="node4" class="node">
<title>rwrp.func_8018E290</title>
<g id="a_node4"><a xlink:href="rwrp.func_8018E290.svg" xlink:title="rwrp.func_8018E290">
<ellipse fill="red" stroke="black" cx="508.44" cy="-18" rx="108.58" ry="18"/>
<text text-anchor="middle" x="508.44" y="-14.3" font-family="Times,serif" font-size="14.00">rwrp.func_8018E290</text>
</a>
</g>
</g>
<!-- rwrp.func_8018F9B4&#45;&gt;rwrp.func_8018E290 -->
<g id="edge3" class="edge">
<title>rwrp.func_8018F9B4&#45;&gt;rwrp.func_8018E290</title>
<path fill="none" stroke="black" d="M1609.15,-185.32C1398.81,-153.54 817.06,-65.63 595.59,-32.17"/>
<polygon fill="black" stroke="black" points="596.05,-28.7 585.64,-30.66 595,-35.62 596.05,-28.7"/>
<text text-anchor="middle" x="580.64" y="-34.46" font-family="Times,serif" font-size="14.00">1</text>
</g>
<!-- dra.CheckCollision -->
<g id="node5" class="node">
<title>dra.CheckCollision</title>
<g id="a_node5"><a xlink:href="dra.CheckCollision.svg" xlink:title="dra.CheckCollision">
<ellipse fill="green" stroke="black" cx="732.44" cy="-18" rx="97.48" ry="18"/>
<text text-anchor="middle" x="732.44" y="-14.3" font-family="Times,serif" font-size="14.00">dra.CheckCollision</text>
</a>
</g>
</g>
<!-- rwrp.func_8018F9B4&#45;&gt;dra.CheckCollision -->
<g id="edge4" class="edge">
<title>rwrp.func_8018F9B4&#45;&gt;dra.CheckCollision</title>
<path fill="none" stroke="black" d="M1617.07,-184.06C1443.06,-151.59 989.12,-66.89 808.34,-33.16"/>
<polygon fill="black" stroke="black" points="808.85,-29.7 798.38,-31.3 807.57,-36.58 808.85,-29.7"/>
<text text-anchor="middle" x="793.38" y="-35.1" font-family="Times,serif" font-size="14.00">3</text>
</g>
<!-- dra.AllocPrimitives -->
<g id="node6" class="node">
<title>dra.AllocPrimitives</title>
<g id="a_node6"><a xlink:href="dra.AllocPrimitives.svg" xlink:title="dra.AllocPrimitives">
<ellipse fill="green" stroke="black" cx="947.44" cy="-18" rx="99.38" ry="18"/>
<text text-anchor="middle" x="947.44" y="-14.3" font-family="Times,serif" font-size="14.00">dra.AllocPrimitives</text>
</a>
</g>
</g>
<!-- rwrp.func_8018F9B4&#45;&gt;dra.AllocPrimitives -->
<g id="edge5" class="edge">
<title>rwrp.func_8018F9B4&#45;&gt;dra.AllocPrimitives</title>
<path fill="none" stroke="black" d="M1627.53,-182.81C1491.87,-150.13 1158.11,-69.74 1014.71,-35.2"/>
<polygon fill="black" stroke="black" points="1015.26,-31.73 1004.72,-32.8 1013.62,-38.54 1015.26,-31.73"/>
<text text-anchor="middle" x="999.72" y="-36.6" font-family="Times,serif" font-size="14.00">1</text>
</g>
<!-- rwrp.DestroyEntity -->
<g id="node7" class="node">
<title>rwrp.DestroyEntity</title>
<g id="a_node7"><a xlink:href="rwrp.DestroyEntity.svg" xlink:title="rwrp.DestroyEntity">
<ellipse fill="red" stroke="black" cx="1166.44" cy="-18" rx="101.28" ry="18"/>
<text text-anchor="middle" x="1166.44" y="-14.3" font-family="Times,serif" font-size="14.00">rwrp.DestroyEntity</text>
</a>
</g>
</g>
<!-- rwrp.func_8018F9B4&#45;&gt;rwrp.DestroyEntity -->
<g id="edge6" class="edge">
<title>rwrp.func_8018F9B4&#45;&gt;rwrp.DestroyEntity</title>
<path fill="none" stroke="black" d="M1641.21,-181.52C1545.58,-148.78 1323.25,-72.68 1220.41,-37.47"/>
<polygon fill="black" stroke="black" points="1221.43,-34.12 1210.84,-34.2 1219.16,-40.75 1221.43,-34.12"/>
<text text-anchor="middle" x="1205.84" y="-38" font-family="Times,serif" font-size="14.00">2</text>
</g>
<!-- dra.LoadEquipIcon -->
<g id="node8" class="node">
<title>dra.LoadEquipIcon</title>
<g id="a_node8"><a xlink:href="dra.LoadEquipIcon.svg" xlink:title="dra.LoadEquipIcon">
<ellipse fill="green" stroke="black" cx="1384.44" cy="-18" rx="98.58" ry="18"/>
<text text-anchor="middle" x="1384.44" y="-14.3" font-family="Times,serif" font-size="14.00">dra.LoadEquipIcon</text>
</a>
</g>
</g>
<!-- rwrp.func_8018F9B4&#45;&gt;dra.LoadEquipIcon -->
<g id="edge7" class="edge">
<title>rwrp.func_8018F9B4&#45;&gt;dra.LoadEquipIcon</title>
<path fill="none" stroke="black" d="M1658.57,-180.57C1603.85,-148.32 1482.37,-76.72 1421.18,-40.65"/>
<polygon fill="black" stroke="black" points="1422.64,-37.45 1412.25,-35.39 1419.08,-43.48 1422.64,-37.45"/>
<text text-anchor="middle" x="1407.25" y="-39.19" font-family="Times,serif" font-size="14.00">1</text>
</g>
<!-- rwrp.MoveEntity -->
<g id="node9" class="node">
<title>rwrp.MoveEntity</title>
<g id="a_node9"><a xlink:href="rwrp.MoveEntity.svg" xlink:title="rwrp.MoveEntity">
<ellipse fill="green" stroke="black" cx="1591.44" cy="-18" rx="90.18" ry="18"/>
<text text-anchor="middle" x="1591.44" y="-14.3" font-family="Times,serif" font-size="14.00">rwrp.MoveEntity</text>
</a>
</g>
</g>
<!-- rwrp.func_8018F9B4&#45;&gt;rwrp.MoveEntity -->
<g id="edge8" class="edge">
<title>rwrp.func_8018F9B4&#45;&gt;rwrp.MoveEntity</title>
<path fill="none" stroke="black" d="M1677.33,-179.93C1660.67,-148.7 1625.16,-82.17 1605.42,-45.18"/>
<polygon fill="black" stroke="black" points="1608.32,-43.19 1600.52,-36.02 1602.15,-46.49 1608.32,-43.19"/>
<text text-anchor="middle" x="1595.52" y="-39.82" font-family="Times,serif" font-size="14.00">1</text>
</g>
<!-- rwrp.FallEntity -->
<g id="node10" class="node">
<title>rwrp.FallEntity</title>
<g id="a_node10"><a xlink:href="rwrp.FallEntity.svg" xlink:title="rwrp.FallEntity">
<ellipse fill="green" stroke="black" cx="1781.44" cy="-18" rx="81.79" ry="18"/>
<text text-anchor="middle" x="1781.44" y="-14.3" font-family="Times,serif" font-size="14.00">rwrp.FallEntity</text>
</a>
</g>
</g>
<!-- rwrp.func_8018F9B4&#45;&gt;rwrp.FallEntity -->
<g id="edge9" class="edge">
<title>rwrp.func_8018F9B4&#45;&gt;rwrp.FallEntity</title>
<path fill="none" stroke="black" d="M1695.55,-179.93C1712.22,-148.7 1747.73,-82.17 1767.47,-45.18"/>
<polygon fill="black" stroke="black" points="1770.74,-46.49 1772.36,-36.02 1764.57,-43.19 1770.74,-46.49"/>
<text text-anchor="middle" x="1767.36" y="-39.82" font-family="Times,serif" font-size="14.00">1</text>
</g>
<!-- rwrp.func_8018E4DC -->
<g id="node11" class="node">
<title>rwrp.func_8018E4DC</title>
<g id="a_node11"><a xlink:href="rwrp.func_8018E4DC.svg" xlink:title="rwrp.func_8018E4DC">
<ellipse fill="red" stroke="black" cx="1991.44" cy="-18" rx="110.48" ry="18"/>
<text text-anchor="middle" x="1991.44" y="-14.3" font-family="Times,serif" font-size="14.00">rwrp.func_8018E4DC</text>
</a>
</g>
</g>
<!-- rwrp.func_8018F9B4&#45;&gt;rwrp.func_8018E4DC -->
<g id="edge10" class="edge">
<title>rwrp.func_8018F9B4&#45;&gt;rwrp.func_8018E4DC</title>
<path fill="none" stroke="black" d="M1714.59,-180.57C1769.83,-148.34 1892.42,-76.79 1954.25,-40.7"/>
<polygon fill="black" stroke="black" points="1956.05,-43.71 1962.92,-35.65 1952.52,-37.66 1956.05,-43.71"/>
<text text-anchor="middle" x="1957.92" y="-39.45" font-family="Times,serif" font-size="14.00">1</text>
</g>
<!-- rwrp.func_8018EAB4 -->
<g id="node12" class="node">
<title>rwrp.func_8018EAB4</title>
<g id="a_node12"><a xlink:href="rwrp.func_8018EAB4.svg" xlink:title="rwrp.func_8018EAB4">
<ellipse fill="red" stroke="black" cx="2229.44" cy="-18" rx="109.68" ry="18"/>
<text text-anchor="middle" x="2229.44" y="-14.3" font-family="Times,serif" font-size="14.00">rwrp.func_8018EAB4</text>
</a>
</g>
</g>
<!-- rwrp.func_8018F9B4&#45;&gt;rwrp.func_8018EAB4 -->
<g id="edge11" class="edge">
<title>rwrp.func_8018F9B4&#45;&gt;rwrp.func_8018EAB4</title>
<path fill="none" stroke="black" d="M1733.21,-181.67C1832.74,-149.04 2065.24,-72.83 2172.89,-37.54"/>
<polygon fill="black" stroke="black" points="2174.19,-40.8 2182.6,-34.36 2172,-34.15 2174.19,-40.8"/>
<text text-anchor="middle" x="2177.6" y="-38.16" font-family="Times,serif" font-size="14.00">2</text>
</g>
<!-- dra.FreePrimitives -->
<g id="node13" class="node">
<title>dra.FreePrimitives</title>
<g id="a_node13"><a xlink:href="dra.FreePrimitives.svg" xlink:title="dra.FreePrimitives">
<ellipse fill="green" stroke="black" cx="2456.44" cy="-18" rx="98.58" ry="18"/>
<text text-anchor="middle" x="2456.44" y="-14.3" font-family="Times,serif" font-size="14.00">dra.FreePrimitives</text>
</a>
</g>
</g>
<!-- rwrp.func_8018F9B4&#45;&gt;dra.FreePrimitives -->
<g id="edge12" class="edge">
<title>rwrp.func_8018F9B4&#45;&gt;dra.FreePrimitives</title>
<path fill="none" stroke="black" d="M1746.86,-183.03C1888.09,-150.39 2239.08,-69.25 2387.95,-34.83"/>
<polygon fill="black" stroke="black" points="2388.93,-38.2 2397.89,-32.54 2387.36,-31.38 2388.93,-38.2"/>
<text text-anchor="middle" x="2392.89" y="-36.34" font-family="Times,serif" font-size="14.00">1</text>
</g>
<!-- dra.PlaySfx -->
<g id="node14" class="node">
<title>dra.PlaySfx</title>
<g id="a_node14"><a xlink:href="dra.PlaySfx.svg" xlink:title="dra.PlaySfx">
<ellipse fill="green" stroke="black" cx="2637.44" cy="-18" rx="64.19" ry="18"/>
<text text-anchor="middle" x="2637.44" y="-14.3" font-family="Times,serif" font-size="14.00">dra.PlaySfx</text>
</a>
</g>
</g>
<!-- rwrp.func_8018F9B4&#45;&gt;dra.PlaySfx -->
<g id="edge13" class="edge">
<title>rwrp.func_8018F9B4&#45;&gt;dra.PlaySfx</title>
<path fill="none" stroke="black" d="M1760.1,-184.71C1911.29,-159.21 2267.44,-97.78 2564.44,-36 2569.7,-34.91 2575.16,-33.72 2580.61,-32.51"/>
<polygon fill="black" stroke="black" points="2581.41,-35.92 2590.39,-30.3 2579.87,-29.09 2581.41,-35.92"/>
<text text-anchor="middle" x="2585.39" y="-34.1" font-family="Times,serif" font-size="14.00">1</text>
</g>
<!-- dra.AddToInventory -->
<g id="node15" class="node">
<title>dra.AddToInventory</title>
<g id="a_node15"><a xlink:href="dra.AddToInventory.svg" xlink:title="dra.AddToInventory">
<ellipse fill="red" stroke="black" cx="2822.44" cy="-18" rx="102.88" ry="18"/>
<text text-anchor="middle" x="2822.44" y="-14.3" font-family="Times,serif" font-size="14.00">dra.AddToInventory</text>
</a>
</g>
</g>
<!-- rwrp.func_8018F9B4&#45;&gt;dra.AddToInventory -->
<g id="edge14" class="edge">
<title>rwrp.func_8018F9B4&#45;&gt;dra.AddToInventory</title>
<path fill="none" stroke="black" d="M1762.3,-185.11C1966.25,-153.16 2525.33,-65.55 2738.43,-32.16"/>
<polygon fill="black" stroke="black" points="2739.28,-35.57 2748.62,-30.57 2738.19,-28.66 2739.28,-35.57"/>
<text text-anchor="middle" x="2743.62" y="-34.37" font-family="Times,serif" font-size="14.00">1</text>
</g>
<!-- rwrp.func_80194EC0 -->
<g id="node16" class="node">
<title>rwrp.func_80194EC0</title>
<g id="a_node16"><a xlink:href="rwrp.func_80194EC0.svg" xlink:title="rwrp.func_80194EC0">
<ellipse fill="red" stroke="black" cx="3052.44" cy="-18" rx="109.38" ry="18"/>
<text text-anchor="middle" x="3052.44" y="-14.3" font-family="Times,serif" font-size="14.00">rwrp.func_80194EC0</text>
</a>
</g>
</g>
<!-- rwrp.func_8018F9B4&#45;&gt;rwrp.func_80194EC0 -->
<g id="edge15" class="edge">
<title>rwrp.func_8018F9B4&#45;&gt;rwrp.func_80194EC0</title>
<path fill="none" stroke="black" d="M1770.49,-186.59C1971.66,-161.59 2496.67,-95.77 2934.44,-36 2943.88,-34.71 2953.74,-33.34 2963.56,-31.95"/>
<polygon fill="black" stroke="black" points="2964.35,-35.37 2973.76,-30.5 2963.37,-28.44 2964.35,-35.37"/>
<text text-anchor="middle" x="2968.76" y="-34.3" font-family="Times,serif" font-size="14.00">1</text>
</g>
<!-- rwrp.func_8018F910 -->
<g id="node17" class="node">
<title>rwrp.func_8018F910</title>
<g id="a_node17"><a xlink:href="rwrp.func_8018F910.svg" xlink:title="rwrp.func_8018F910">
<ellipse fill="red" stroke="black" cx="3287.44" cy="-18" rx="107.78" ry="18"/>
<text text-anchor="middle" x="3287.44" y="-14.3" font-family="Times,serif" font-size="14.00">rwrp.func_8018F910</text>
</a>
</g>
</g>
<!-- rwrp.func_8018F9B4&#45;&gt;rwrp.func_8018F910 -->
<g id="edge16" class="edge">
<title>rwrp.func_8018F9B4&#45;&gt;rwrp.func_8018F910</title>
<path fill="none" stroke="black" d="M1777.77,-188.25C2010.38,-165.73 2644.05,-102.77 3170.44,-36 3180.06,-34.78 3190.12,-33.43 3200.12,-32.04"/>
<polygon fill="black" stroke="black" points="3200.67,-35.5 3210.09,-30.64 3199.7,-28.57 3200.67,-35.5"/>
<text text-anchor="middle" x="3205.09" y="-34.44" font-family="Times,serif" font-size="14.00">1</text>
</g>
</g>
</svg>
