<?xml version="1.0" encoding="UTF-8" standalone="no"?>
<!DOCTYPE svg PUBLIC "-//W3C//DTD SVG 1.1//EN"
 "http://www.w3.org/Graphics/SVG/1.1/DTD/svg11.dtd">
<!-- Generated by graphviz version 2.43.0 (0)
 -->
<!-- Title: rwrp.func_80193644 Pages: 1 -->
<svg width="464pt" height="404pt"
 viewBox="0.00 0.00 464.03 404.00" xmlns="http://www.w3.org/2000/svg" xmlns:xlink="http://www.w3.org/1999/xlink">
<g id="graph0" class="graph" transform="scale(1 1) rotate(0) translate(4 400)">
<title>rwrp.func_80193644</title>
<polygon fill="white" stroke="transparent" points="-4,4 -4,-400 460.03,-400 460.03,4 -4,4"/>
<!-- rwrp.func_80193644 -->
<g id="node1" class="node">
<title>rwrp.func_80193644</title>
<ellipse fill="red" stroke="black" cx="227.19" cy="-198" rx="107.48" ry="18"/>
<text text-anchor="middle" x="227.19" y="-194.3" font-family="Times,serif" font-size="14.00">rwrp.func_80193644</text>
</g>
<!-- dra.func_80134714 -->
<g id="node2" class="node">
<title>dra.func_80134714</title>
<g id="a_node2"><a xlink:href="dra.func_80134714.svg" xlink:title="dra.func_80134714">
<ellipse fill="green" stroke="black" cx="227.19" cy="-18" rx="100.98" ry="18"/>
<text text-anchor="middle" x="227.19" y="-14.3" font-family="Times,serif" font-size="14.00">dra.func_80134714</text>
</a>
</g>
</g>
<!-- rwrp.func_80193644&#45;&gt;dra.func_80134714 -->
<g id="edge1" class="edge">
<title>rwrp.func_80193644&#45;&gt;dra.func_80134714</title>
<path fill="none" stroke="black" d="M227.19,-179.93C227.19,-148.97 227.19,-83.3 227.19,-46.13"/>
<polygon fill="black" stroke="black" points="230.69,-46.02 227.19,-36.02 223.69,-46.02 230.69,-46.02"/>
<text text-anchor="middle" x="222.19" y="-39.82" font-family="Times,serif" font-size="14.00">1</text>
</g>
<!-- rwrp.func_80189E9C -->
<g id="node3" class="node">
<title>rwrp.func_80189E9C</title>
<g id="a_node3"><a xlink:href="rwrp.func_80189E9C.svg" xlink:title="rwrp.func_80189E9C">
<ellipse fill="red" stroke="black" cx="109.19" cy="-378" rx="109.38" ry="18"/>
<text text-anchor="middle" x="109.19" y="-374.3" font-family="Times,serif" font-size="14.00">rwrp.func_80189E9C</text>
</a>
</g>
</g>
<!-- rwrp.func_80189E9C&#45;&gt;rwrp.func_80193644 -->
<g id="edge2" class="edge">
<title>rwrp.func_80189E9C&#45;&gt;rwrp.func_80193644</title>
<path fill="none" stroke="black" d="M120.5,-359.93C141.3,-328.57 185.69,-261.6 210.15,-224.71"/>
<polygon fill="black" stroke="black" points="213.3,-226.28 215.91,-216.02 207.47,-222.42 213.3,-226.28"/>
<text text-anchor="middle" x="115.5" y="-348.73" font-family="Times,serif" font-size="14.00">1</text>
</g>
<!-- rwrp.func_8018E1FC -->
<g id="node4" class="node">
<title>rwrp.func_8018E1FC</title>
<g id="a_node4"><a xlink:href="rwrp.func_8018E1FC.svg" xlink:title="rwrp.func_8018E1FC">
<ellipse fill="red" stroke="black" cx="346.19" cy="-378" rx="109.68" ry="18"/>
<text text-anchor="middle" x="346.19" y="-374.3" font-family="Times,serif" font-size="14.00">rwrp.func_8018E1FC</text>
</a>
</g>
</g>
<!-- rwrp.func_8018E1FC&#45;&gt;rwrp.func_80193644 -->
<g id="edge3" class="edge">
<title>rwrp.func_8018E1FC&#45;&gt;rwrp.func_80193644</title>
<path fill="none" stroke="black" d="M334.78,-359.93C313.81,-328.57 269.04,-261.6 244.38,-224.71"/>
<polygon fill="black" stroke="black" points="247.03,-222.38 238.57,-216.02 241.21,-226.27 247.03,-222.38"/>
<text text-anchor="middle" x="329.78" y="-348.73" font-family="Times,serif" font-size="14.00">1</text>
</g>
</g>
</svg>
