<?xml version="1.0" encoding="UTF-8" standalone="no"?>
<!DOCTYPE svg PUBLIC "-//W3C//DTD SVG 1.1//EN"
 "http://www.w3.org/Graphics/SVG/1.1/DTD/svg11.dtd">
<!-- Generated by graphviz version 2.43.0 (0)
 -->
<!-- Title: rwrp.DestroyEntity Pages: 1 -->
<svg width="8717pt" height="404pt"
 viewBox="0.00 0.00 8717.23 404.00" xmlns="http://www.w3.org/2000/svg" xmlns:xlink="http://www.w3.org/1999/xlink">
<g id="graph0" class="graph" transform="scale(1 1) rotate(0) translate(4 400)">
<title>rwrp.DestroyEntity</title>
<polygon fill="white" stroke="transparent" points="-4,4 -4,-400 8713.23,-400 8713.23,4 -4,4"/>
<!-- rwrp.DestroyEntity -->
<g id="node1" class="node">
<title>rwrp.DestroyEntity</title>
<ellipse fill="red" stroke="black" cx="4604.69" cy="-198" rx="101.28" ry="18"/>
<text text-anchor="middle" x="4604.69" y="-194.3" font-family="Times,serif" font-size="14.00">rwrp.DestroyEntity</text>
</g>
<!-- dra.FreePrimitives -->
<g id="node2" class="node">
<title>dra.FreePrimitives</title>
<g id="a_node2"><a xlink:href="dra.FreePrimitives.svg" xlink:title="dra.FreePrimitives">
<ellipse fill="green" stroke="black" cx="4604.69" cy="-18" rx="98.58" ry="18"/>
<text text-anchor="middle" x="4604.69" y="-14.3" font-family="Times,serif" font-size="14.00">dra.FreePrimitives</text>
</a>
</g>
</g>
<!-- rwrp.DestroyEntity&#45;&gt;dra.FreePrimitives -->
<g id="edge1" class="edge">
<title>rwrp.DestroyEntity&#45;&gt;dra.FreePrimitives</title>
<path fill="none" stroke="black" d="M4604.69,-179.93C4604.69,-148.97 4604.69,-83.3 4604.69,-46.13"/>
<polygon fill="black" stroke="black" points="4608.19,-46.02 4604.69,-36.02 4601.19,-46.02 4608.19,-46.02"/>
<text text-anchor="middle" x="4599.69" y="-39.82" font-family="Times,serif" font-size="14.00">1</text>
</g>
<!-- rwrp.CollectGold -->
<g id="node3" class="node">
<title>rwrp.CollectGold</title>
<g id="a_node3"><a xlink:href="rwrp.CollectGold.svg" xlink:title="rwrp.CollectGold">
<ellipse fill="green" stroke="black" cx="89.69" cy="-378" rx="89.88" ry="18"/>
<text text-anchor="middle" x="89.69" y="-374.3" font-family="Times,serif" font-size="14.00">rwrp.CollectGold</text>
</a>
</g>
</g>
<!-- rwrp.CollectGold&#45;&gt;rwrp.DestroyEntity -->
<g id="edge2" class="edge">
<title>rwrp.CollectGold&#45;&gt;rwrp.DestroyEntity</title>
<path fill="none" stroke="black" d="M152.1,-364.98C164.2,-363.02 176.81,-361.23 188.69,-360 1061.1,-269.6 3897.99,-212.25 4494.14,-201.02"/>
<polygon fill="black" stroke="black" points="4494.52,-204.52 4504.45,-200.83 4494.38,-197.52 4494.52,-204.52"/>
<text text-anchor="middle" x="147.1" y="-353.78" font-family="Times,serif" font-size="14.00">1</text>
</g>
<!-- rwrp.CollectLifeVessel -->
<g id="node4" class="node">
<title>rwrp.CollectLifeVessel</title>
<g id="a_node4"><a xlink:href="rwrp.CollectLifeVessel.svg" xlink:title="rwrp.CollectLifeVessel">
<ellipse fill="green" stroke="black" cx="312.69" cy="-378" rx="115.08" ry="18"/>
<text text-anchor="middle" x="312.69" y="-374.3" font-family="Times,serif" font-size="14.00">rwrp.CollectLifeVessel</text>
</a>
</g>
</g>
<!-- rwrp.CollectLifeVessel&#45;&gt;rwrp.DestroyEntity -->
<g id="edge3" class="edge">
<title>rwrp.CollectLifeVessel&#45;&gt;rwrp.DestroyEntity</title>
<path fill="none" stroke="black" d="M392.27,-364.92C407.01,-363.02 422.3,-361.26 436.69,-360 2043.39,-219.17 4009.26,-201.52 4493.18,-199.32"/>
<polygon fill="black" stroke="black" points="4493.32,-202.81 4503.3,-199.27 4493.28,-195.81 4493.32,-202.81"/>
<text text-anchor="middle" x="387.27" y="-353.72" font-family="Times,serif" font-size="14.00">1</text>
</g>
<!-- rwrp.CollectSubweapon -->
<g id="node5" class="node">
<title>rwrp.CollectSubweapon</title>
<g id="a_node5"><a xlink:href="rwrp.CollectSubweapon.svg" xlink:title="rwrp.CollectSubweapon">
<ellipse fill="green" stroke="black" cx="567.69" cy="-378" rx="122.38" ry="18"/>
<text text-anchor="middle" x="567.69" y="-374.3" font-family="Times,serif" font-size="14.00">rwrp.CollectSubweapon</text>
</a>
</g>
</g>
<!-- rwrp.CollectSubweapon&#45;&gt;rwrp.DestroyEntity -->
<g id="edge4" class="edge">
<title>rwrp.CollectSubweapon&#45;&gt;rwrp.DestroyEntity</title>
<path fill="none" stroke="black" d="M652.43,-364.98C668.12,-363.07 684.38,-361.3 699.69,-360 2198.45,-232.84 4029.66,-205.18 4493.75,-200.05"/>
<polygon fill="black" stroke="black" points="4493.84,-203.55 4503.8,-199.94 4493.76,-196.55 4493.84,-203.55"/>
<text text-anchor="middle" x="647.43" y="-353.78" font-family="Times,serif" font-size="14.00">1</text>
</g>
<!-- rwrp.CreateEntityFromEntity -->
<g id="node6" class="node">
<title>rwrp.CreateEntityFromEntity</title>
<g id="a_node6"><a xlink:href="rwrp.CreateEntityFromEntity.svg" xlink:title="rwrp.CreateEntityFromEntity">
<ellipse fill="green" stroke="black" cx="857.69" cy="-378" rx="149.47" ry="18"/>
<text text-anchor="middle" x="857.69" y="-374.3" font-family="Times,serif" font-size="14.00">rwrp.CreateEntityFromEntity</text>
</a>
</g>
</g>
<!-- rwrp.CreateEntityFromEntity&#45;&gt;rwrp.DestroyEntity -->
<g id="edge5" class="edge">
<title>rwrp.CreateEntityFromEntity&#45;&gt;rwrp.DestroyEntity</title>
<path fill="none" stroke="black" d="M960.87,-364.96C979.12,-363.1 997.95,-361.35 1015.69,-360 2385.56,-255.68 4055.1,-211.69 4494.5,-201.44"/>
<polygon fill="black" stroke="black" points="4494.73,-204.93 4504.65,-201.2 4494.57,-197.93 4494.73,-204.93"/>
<text text-anchor="middle" x="955.87" y="-353.76" font-family="Times,serif" font-size="14.00">1</text>
</g>
<!-- rwrp.CreateEntityFromLayout -->
<g id="node7" class="node">
<title>rwrp.CreateEntityFromLayout</title>
<g id="a_node7"><a xlink:href="rwrp.CreateEntityFromLayout.svg" xlink:title="rwrp.CreateEntityFromLayout">
<ellipse fill="green" stroke="black" cx="1177.69" cy="-378" rx="152.97" ry="18"/>
<text text-anchor="middle" x="1177.69" y="-374.3" font-family="Times,serif" font-size="14.00">rwrp.CreateEntityFromLayout</text>
</a>
</g>
</g>
<!-- rwrp.CreateEntityFromLayout&#45;&gt;rwrp.DestroyEntity -->
<g id="edge6" class="edge">
<title>rwrp.CreateEntityFromLayout&#45;&gt;rwrp.DestroyEntity</title>
<path fill="none" stroke="black" d="M1283.93,-365C1302.5,-363.15 1321.65,-361.39 1339.69,-360 2576.69,-264.67 4081.91,-214.75 4495.24,-202.2"/>
<polygon fill="black" stroke="black" points="4495.5,-205.69 4505.39,-201.89 4495.29,-198.7 4495.5,-205.69"/>
<text text-anchor="middle" x="1278.93" y="-353.8" font-family="Times,serif" font-size="14.00">1</text>
</g>
<!-- rwrp.DestroyCurrentEntity -->
<g id="node8" class="node">
<title>rwrp.DestroyCurrentEntity</title>
<g id="a_node8"><a xlink:href="rwrp.DestroyCurrentEntity.svg" xlink:title="rwrp.DestroyCurrentEntity">
<ellipse fill="green" stroke="black" cx="1486.69" cy="-378" rx="137.58" ry="18"/>
<text text-anchor="middle" x="1486.69" y="-374.3" font-family="Times,serif" font-size="14.00">rwrp.DestroyCurrentEntity</text>
</a>
</g>
</g>
<!-- rwrp.DestroyCurrentEntity&#45;&gt;rwrp.DestroyEntity -->
<g id="edge7" class="edge">
<title>rwrp.DestroyCurrentEntity&#45;&gt;rwrp.DestroyEntity</title>
<path fill="none" stroke="black" d="M1582.68,-365.05C1599.66,-363.17 1617.18,-361.4 1633.69,-360 2749.72,-265.32 4106.57,-215.53 4495.68,-202.5"/>
<polygon fill="black" stroke="black" points="4495.93,-206 4505.8,-202.17 4495.69,-199 4495.93,-206"/>
<text text-anchor="middle" x="1577.68" y="-353.85" font-family="Times,serif" font-size="14.00">1</text>
</g>
<!-- rwrp.EntityEnemyBlood -->
<g id="node9" class="node">
<title>rwrp.EntityEnemyBlood</title>
<g id="a_node9"><a xlink:href="rwrp.EntityEnemyBlood.svg" xlink:title="rwrp.EntityEnemyBlood">
<ellipse fill="green" stroke="black" cx="1765.69" cy="-378" rx="123.48" ry="18"/>
<text text-anchor="middle" x="1765.69" y="-374.3" font-family="Times,serif" font-size="14.00">rwrp.EntityEnemyBlood</text>
</a>
</g>
</g>
<!-- rwrp.EntityEnemyBlood&#45;&gt;rwrp.DestroyEntity -->
<g id="edge8" class="edge">
<title>rwrp.EntityEnemyBlood&#45;&gt;rwrp.DestroyEntity</title>
<path fill="none" stroke="black" d="M1852.17,-365.08C1867.64,-363.2 1883.63,-361.41 1898.69,-360 2906.07,-265.76 4129.88,-216.26 4496.15,-202.82"/>
<polygon fill="black" stroke="black" points="4496.35,-206.31 4506.22,-202.45 4496.09,-199.32 4496.35,-206.31"/>
<text text-anchor="middle" x="1847.17" y="-353.88" font-family="Times,serif" font-size="14.00">1</text>
</g>
<!-- rwrp.EntityEquipItemDrop -->
<g id="node10" class="node">
<title>rwrp.EntityEquipItemDrop</title>
<g id="a_node10"><a xlink:href="rwrp.EntityEquipItemDrop.svg" xlink:title="rwrp.EntityEquipItemDrop">
<ellipse fill="red" stroke="black" cx="2043.69" cy="-378" rx="136.48" ry="18"/>
<text text-anchor="middle" x="2043.69" y="-374.3" font-family="Times,serif" font-size="14.00">rwrp.EntityEquipItemDrop</text>
</a>
</g>
</g>
<!-- rwrp.EntityEquipItemDrop&#45;&gt;rwrp.DestroyEntity -->
<g id="edge9" class="edge">
<title>rwrp.EntityEquipItemDrop&#45;&gt;rwrp.DestroyEntity</title>
<path fill="none" stroke="black" d="M2139.17,-365.12C2155.67,-363.26 2172.66,-361.47 2188.69,-360 3080.22,-278.09 4160.48,-221.04 4498.43,-204.17"/>
<polygon fill="black" stroke="black" points="4498.64,-207.67 4508.46,-203.67 4498.29,-200.68 4498.64,-207.67"/>
<text text-anchor="middle" x="2134.17" y="-353.92" font-family="Times,serif" font-size="14.00">2</text>
</g>
<!-- rwrp.EntityIntenseExplosion -->
<g id="node11" class="node">
<title>rwrp.EntityIntenseExplosion</title>
<g id="a_node11"><a xlink:href="rwrp.EntityIntenseExplosion.svg" xlink:title="rwrp.EntityIntenseExplosion">
<ellipse fill="green" stroke="black" cx="2342.69" cy="-378" rx="144.87" ry="18"/>
<text text-anchor="middle" x="2342.69" y="-374.3" font-family="Times,serif" font-size="14.00">rwrp.EntityIntenseExplosion</text>
</a>
</g>
</g>
<!-- rwrp.EntityIntenseExplosion&#45;&gt;rwrp.DestroyEntity -->
<g id="edge10" class="edge">
<title>rwrp.EntityIntenseExplosion&#45;&gt;rwrp.DestroyEntity</title>
<path fill="none" stroke="black" d="M2444.95,-365.22C2462.21,-363.38 2479.95,-361.56 2496.69,-360 3265.45,-288.23 4194.18,-225.7 4500.89,-205.68"/>
<polygon fill="black" stroke="black" points="4501.34,-209.16 4511.09,-205.02 4500.89,-202.18 4501.34,-209.16"/>
<text text-anchor="middle" x="2439.95" y="-354.02" font-family="Times,serif" font-size="14.00">1</text>
</g>
<!-- rwrp.EntityPrizeDrop -->
<g id="node12" class="node">
<title>rwrp.EntityPrizeDrop</title>
<g id="a_node12"><a xlink:href="rwrp.EntityPrizeDrop.svg" xlink:title="rwrp.EntityPrizeDrop">
<ellipse fill="red" stroke="black" cx="2617.69" cy="-378" rx="111.58" ry="18"/>
<text text-anchor="middle" x="2617.69" y="-374.3" font-family="Times,serif" font-size="14.00">rwrp.EntityPrizeDrop</text>
</a>
</g>
</g>
<!-- rwrp.EntityPrizeDrop&#45;&gt;rwrp.DestroyEntity -->
<g id="edge11" class="edge">
<title>rwrp.EntityPrizeDrop&#45;&gt;rwrp.DestroyEntity</title>
<path fill="none" stroke="black" d="M2697.02,-365.24C2710.89,-363.36 2725.2,-361.53 2738.69,-360 3409.31,-284.02 4219.12,-225.41 4501.58,-205.95"/>
<polygon fill="black" stroke="black" points="4502.07,-209.42 4511.81,-205.25 4501.59,-202.44 4502.07,-209.42"/>
<text text-anchor="middle" x="2692.02" y="-354.04" font-family="Times,serif" font-size="14.00">2</text>
</g>
<!-- rwrp.EntitySoulStealOrb -->
<g id="node13" class="node">
<title>rwrp.EntitySoulStealOrb</title>
<g id="a_node13"><a xlink:href="rwrp.EntitySoulStealOrb.svg" xlink:title="rwrp.EntitySoulStealOrb">
<ellipse fill="green" stroke="black" cx="2874.69" cy="-378" rx="126.98" ry="18"/>
<text text-anchor="middle" x="2874.69" y="-374.3" font-family="Times,serif" font-size="14.00">rwrp.EntitySoulStealOrb</text>
</a>
</g>
</g>
<!-- rwrp.EntitySoulStealOrb&#45;&gt;rwrp.DestroyEntity -->
<g id="edge12" class="edge">
<title>rwrp.EntitySoulStealOrb&#45;&gt;rwrp.DestroyEntity</title>
<path fill="none" stroke="black" d="M2965.37,-365.36C2980.5,-363.51 2996.03,-361.66 3010.69,-360 3576.69,-296.05 4257.18,-231.39 4506.79,-208.07"/>
<polygon fill="black" stroke="black" points="4507.29,-211.54 4516.92,-207.13 4506.64,-204.57 4507.29,-211.54"/>
<text text-anchor="middle" x="2960.37" y="-354.16" font-family="Times,serif" font-size="14.00">1</text>
</g>
<!-- rwrp.ReplaceBreakableWithItemDrop -->
<g id="node14" class="node">
<title>rwrp.ReplaceBreakableWithItemDrop</title>
<g id="a_node14"><a xlink:href="rwrp.ReplaceBreakableWithItemDrop.svg" xlink:title="rwrp.ReplaceBreakableWithItemDrop">
<ellipse fill="green" stroke="black" cx="3205.69" cy="-378" rx="185.77" ry="18"/>
<text text-anchor="middle" x="3205.69" y="-374.3" font-family="Times,serif" font-size="14.00">rwrp.ReplaceBreakableWithItemDrop</text>
</a>
</g>
</g>
<!-- rwrp.ReplaceBreakableWithItemDrop&#45;&gt;rwrp.DestroyEntity -->
<g id="edge13" class="edge">
<title>rwrp.ReplaceBreakableWithItemDrop&#45;&gt;rwrp.DestroyEntity</title>
<path fill="none" stroke="black" d="M3313.44,-363.29C3580.29,-329.34 4268.15,-241.82 4514.91,-210.42"/>
<polygon fill="black" stroke="black" points="4515.44,-213.88 4524.92,-209.15 4514.56,-206.94 4515.44,-213.88"/>
<text text-anchor="middle" x="3308.44" y="-352.09" font-family="Times,serif" font-size="14.00">1</text>
</g>
<!-- rwrp.TestCollisions -->
<g id="node15" class="node">
<title>rwrp.TestCollisions</title>
<g id="a_node15"><a xlink:href="rwrp.TestCollisions.svg" xlink:title="rwrp.TestCollisions">
<ellipse fill="red" stroke="black" cx="3510.69" cy="-378" rx="100.98" ry="18"/>
<text text-anchor="middle" x="3510.69" y="-374.3" font-family="Times,serif" font-size="14.00">rwrp.TestCollisions</text>
</a>
</g>
</g>
<!-- rwrp.TestCollisions&#45;&gt;rwrp.DestroyEntity -->
<g id="edge14" class="edge">
<title>rwrp.TestCollisions&#45;&gt;rwrp.DestroyEntity</title>
<path fill="none" stroke="black" d="M3582.47,-365.32C3777.5,-333.59 4316.36,-245.91 4522.78,-212.33"/>
<polygon fill="black" stroke="black" points="4523.34,-215.78 4532.65,-210.72 4522.22,-208.87 4523.34,-215.78"/>
<text text-anchor="middle" x="3577.47" y="-354.12" font-family="Times,serif" font-size="14.00">1</text>
</g>
<!-- rwrp.Update -->
<g id="node16" class="node">
<title>rwrp.Update</title>
<g id="a_node16"><a xlink:href="rwrp.Update.svg" xlink:title="rwrp.Update">
<ellipse fill="green" stroke="black" cx="3699.69" cy="-378" rx="70.39" ry="18"/>
<text text-anchor="middle" x="3699.69" y="-374.3" font-family="Times,serif" font-size="14.00">rwrp.Update</text>
</a>
</g>
</g>
<!-- rwrp.Update&#45;&gt;rwrp.DestroyEntity -->
<g id="edge15" class="edge">
<title>rwrp.Update&#45;&gt;rwrp.DestroyEntity</title>
<path fill="none" stroke="black" d="M3751.51,-365.7C3760.56,-363.77 3769.9,-361.8 3778.69,-360 4053.86,-303.58 4381.61,-241.1 4527.75,-213.48"/>
<polygon fill="black" stroke="black" points="4528.78,-216.85 4537.96,-211.55 4527.48,-209.97 4528.78,-216.85"/>
<text text-anchor="middle" x="3746.51" y="-354.5" font-family="Times,serif" font-size="14.00">1</text>
</g>
<!-- rwrp.func_80189E9C -->
<g id="node17" class="node">
<title>rwrp.func_80189E9C</title>
<g id="a_node17"><a xlink:href="rwrp.func_80189E9C.svg" xlink:title="rwrp.func_80189E9C">
<ellipse fill="red" stroke="black" cx="3896.69" cy="-378" rx="109.38" ry="18"/>
<text text-anchor="middle" x="3896.69" y="-374.3" font-family="Times,serif" font-size="14.00">rwrp.func_80189E9C</text>
</a>
</g>
</g>
<!-- rwrp.func_80189E9C&#45;&gt;rwrp.DestroyEntity -->
<g id="edge16" class="edge">
<title>rwrp.func_80189E9C&#45;&gt;rwrp.DestroyEntity</title>
<path fill="none" stroke="black" d="M3954.03,-362.58C4084.1,-329.88 4400.91,-250.23 4538.78,-215.57"/>
<polygon fill="black" stroke="black" points="4539.94,-218.89 4548.79,-213.06 4538.23,-212.1 4539.94,-218.89"/>
<text text-anchor="middle" x="3949.03" y="-351.38" font-family="Times,serif" font-size="14.00">1</text>
</g>
<!-- rwrp.func_8018B6B4 -->
<g id="node18" class="node">
<title>rwrp.func_8018B6B4</title>
<g id="a_node18"><a xlink:href="rwrp.func_8018B6B4.svg" xlink:title="rwrp.func_8018B6B4">
<ellipse fill="red" stroke="black" cx="4132.69" cy="-378" rx="109.38" ry="18"/>
<text text-anchor="middle" x="4132.69" y="-374.3" font-family="Times,serif" font-size="14.00">rwrp.func_8018B6B4</text>
</a>
</g>
</g>
<!-- rwrp.func_8018B6B4&#45;&gt;rwrp.DestroyEntity -->
<g id="edge17" class="edge">
<title>rwrp.func_8018B6B4&#45;&gt;rwrp.DestroyEntity</title>
<path fill="none" stroke="black" d="M4174.58,-361.2C4261.31,-328.5 4460.25,-253.47 4554.02,-218.11"/>
<polygon fill="black" stroke="black" points="4555.45,-221.31 4563.57,-214.51 4552.98,-214.76 4555.45,-221.31"/>
<text text-anchor="middle" x="4169.58" y="-350" font-family="Times,serif" font-size="14.00">1</text>
</g>
<!-- rwrp.func_8018C7E0 -->
<g id="node19" class="node">
<title>rwrp.func_8018C7E0</title>
<g id="a_node19"><a xlink:href="rwrp.func_8018C7E0.svg" xlink:title="rwrp.func_8018C7E0">
<ellipse fill="red" stroke="black" cx="4368.69" cy="-378" rx="109.38" ry="18"/>
<text text-anchor="middle" x="4368.69" y="-374.3" font-family="Times,serif" font-size="14.00">rwrp.func_8018C7E0</text>
</a>
</g>
</g>
<!-- rwrp.func_8018C7E0&#45;&gt;rwrp.DestroyEntity -->
<g id="edge18" class="edge">
<title>rwrp.func_8018C7E0&#45;&gt;rwrp.DestroyEntity</title>
<path fill="none" stroke="black" d="M4390.89,-360.25C4433.33,-328.25 4525.99,-258.36 4574.2,-222"/>
<polygon fill="black" stroke="black" points="4576.5,-224.65 4582.38,-215.83 4572.29,-219.06 4576.5,-224.65"/>
<text text-anchor="middle" x="4385.89" y="-349.05" font-family="Times,serif" font-size="14.00">1</text>
</g>
<!-- rwrp.func_8018C948 -->
<g id="node20" class="node">
<title>rwrp.func_8018C948</title>
<g id="a_node20"><a xlink:href="rwrp.func_8018C948.svg" xlink:title="rwrp.func_8018C948">
<ellipse fill="red" stroke="black" cx="4604.69" cy="-378" rx="108.58" ry="18"/>
<text text-anchor="middle" x="4604.69" y="-374.3" font-family="Times,serif" font-size="14.00">rwrp.func_8018C948</text>
</a>
</g>
</g>
<!-- rwrp.func_8018C948&#45;&gt;rwrp.DestroyEntity -->
<g id="edge19" class="edge">
<title>rwrp.func_8018C948&#45;&gt;rwrp.DestroyEntity</title>
<path fill="none" stroke="black" d="M4604.69,-359.93C4604.69,-328.97 4604.69,-263.3 4604.69,-226.13"/>
<polygon fill="black" stroke="black" points="4608.19,-226.02 4604.69,-216.02 4601.19,-226.02 4608.19,-226.02"/>
<text text-anchor="middle" x="4599.69" y="-348.73" font-family="Times,serif" font-size="14.00">1</text>
</g>
<!-- rwrp.func_8018D5EC -->
<g id="node21" class="node">
<title>rwrp.func_8018D5EC</title>
<g id="a_node21"><a xlink:href="rwrp.func_8018D5EC.svg" xlink:title="rwrp.func_8018D5EC">
<ellipse fill="red" stroke="black" cx="4841.69" cy="-378" rx="110.48" ry="18"/>
<text text-anchor="middle" x="4841.69" y="-374.3" font-family="Times,serif" font-size="14.00">rwrp.func_8018D5EC</text>
</a>
</g>
</g>
<!-- rwrp.func_8018D5EC&#45;&gt;rwrp.DestroyEntity -->
<g id="edge20" class="edge">
<title>rwrp.func_8018D5EC&#45;&gt;rwrp.DestroyEntity</title>
<path fill="none" stroke="black" d="M4819.4,-360.25C4776.68,-328.17 4683.25,-258 4634.95,-221.72"/>
<polygon fill="black" stroke="black" points="4636.85,-218.78 4626.76,-215.57 4632.65,-224.38 4636.85,-218.78"/>
<text text-anchor="middle" x="4814.4" y="-349.05" font-family="Times,serif" font-size="14.00">1</text>
</g>
<!-- rwrp.func_8018DDF0 -->
<g id="node22" class="node">
<title>rwrp.func_8018DDF0</title>
<g id="a_node22"><a xlink:href="rwrp.func_8018DDF0.svg" xlink:title="rwrp.func_8018DDF0">
<ellipse fill="red" stroke="black" cx="5080.69" cy="-378" rx="110.48" ry="18"/>
<text text-anchor="middle" x="5080.69" y="-374.3" font-family="Times,serif" font-size="14.00">rwrp.func_8018DDF0</text>
</a>
</g>
</g>
<!-- rwrp.func_8018DDF0&#45;&gt;rwrp.DestroyEntity -->
<g id="edge21" class="edge">
<title>rwrp.func_8018DDF0&#45;&gt;rwrp.DestroyEntity</title>
<path fill="none" stroke="black" d="M5038.45,-361.2C4950.99,-328.5 4750.36,-253.47 4655.79,-218.11"/>
<polygon fill="black" stroke="black" points="4656.75,-214.73 4646.16,-214.51 4654.3,-221.29 4656.75,-214.73"/>
<text text-anchor="middle" x="5033.45" y="-350" font-family="Times,serif" font-size="14.00">1</text>
</g>
<!-- rwrp.func_8018E1FC -->
<g id="node23" class="node">
<title>rwrp.func_8018E1FC</title>
<g id="a_node23"><a xlink:href="rwrp.func_8018E1FC.svg" xlink:title="rwrp.func_8018E1FC">
<ellipse fill="red" stroke="black" cx="5318.69" cy="-378" rx="109.68" ry="18"/>
<text text-anchor="middle" x="5318.69" y="-374.3" font-family="Times,serif" font-size="14.00">rwrp.func_8018E1FC</text>
</a>
</g>
</g>
<!-- rwrp.func_8018E1FC&#45;&gt;rwrp.DestroyEntity -->
<g id="edge22" class="edge">
<title>rwrp.func_8018E1FC&#45;&gt;rwrp.DestroyEntity</title>
<path fill="none" stroke="black" d="M5261.17,-362.66C5130.21,-330.01 4810.42,-250.29 4671.24,-215.59"/>
<polygon fill="black" stroke="black" points="4671.68,-212.09 4661.13,-213.07 4669.99,-218.89 4671.68,-212.09"/>
<text text-anchor="middle" x="5256.17" y="-351.46" font-family="Times,serif" font-size="14.00">1</text>
</g>
<!-- rwrp.func_8018EC10 -->
<g id="node24" class="node">
<title>rwrp.func_8018EC10</title>
<g id="a_node24"><a xlink:href="rwrp.func_8018EC10.svg" xlink:title="rwrp.func_8018EC10">
<ellipse fill="red" stroke="black" cx="5555.69" cy="-378" rx="109.38" ry="18"/>
<text text-anchor="middle" x="5555.69" y="-374.3" font-family="Times,serif" font-size="14.00">rwrp.func_8018EC10</text>
</a>
</g>
</g>
<!-- rwrp.func_8018EC10&#45;&gt;rwrp.DestroyEntity -->
<g id="edge23" class="edge">
<title>rwrp.func_8018EC10&#45;&gt;rwrp.DestroyEntity</title>
<path fill="none" stroke="black" d="M5486.53,-364.06C5313.49,-331.67 4862.75,-247.3 4681.66,-213.41"/>
<polygon fill="black" stroke="black" points="4682.16,-209.94 4671.68,-211.54 4680.87,-216.82 4682.16,-209.94"/>
<text text-anchor="middle" x="5481.53" y="-352.86" font-family="Times,serif" font-size="14.00">1</text>
</g>
<!-- rwrp.func_8018EE84 -->
<g id="node25" class="node">
<title>rwrp.func_8018EE84</title>
<g id="a_node25"><a xlink:href="rwrp.func_8018EE84.svg" xlink:title="rwrp.func_8018EE84">
<ellipse fill="red" stroke="black" cx="5791.69" cy="-378" rx="109.38" ry="18"/>
<text text-anchor="middle" x="5791.69" y="-374.3" font-family="Times,serif" font-size="14.00">rwrp.func_8018EE84</text>
</a>
</g>
</g>
<!-- rwrp.func_8018EE84&#45;&gt;rwrp.DestroyEntity -->
<g id="edge24" class="edge">
<title>rwrp.func_8018EE84&#45;&gt;rwrp.DestroyEntity</title>
<path fill="none" stroke="black" d="M5713.81,-365.32C5500.85,-333.39 4910.04,-244.79 4689.32,-211.69"/>
<polygon fill="black" stroke="black" points="4689.82,-208.23 4679.41,-210.2 4688.78,-215.15 4689.82,-208.23"/>
<text text-anchor="middle" x="5708.81" y="-354.12" font-family="Times,serif" font-size="14.00">1</text>
</g>
<!-- rwrp.func_8018F814 -->
<g id="node26" class="node">
<title>rwrp.func_8018F814</title>
<g id="a_node26"><a xlink:href="rwrp.func_8018F814.svg" xlink:title="rwrp.func_8018F814">
<ellipse fill="red" stroke="black" cx="6026.69" cy="-378" rx="107.78" ry="18"/>
<text text-anchor="middle" x="6026.69" y="-374.3" font-family="Times,serif" font-size="14.00">rwrp.func_8018F814</text>
</a>
</g>
</g>
<!-- rwrp.func_8018F814&#45;&gt;rwrp.DestroyEntity -->
<g id="edge25" class="edge">
<title>rwrp.func_8018F814&#45;&gt;rwrp.DestroyEntity</title>
<path fill="none" stroke="black" d="M5949,-365.47C5935.89,-363.59 5922.41,-361.71 5909.69,-360 5455.58,-299 4911.35,-234.69 4697.46,-209.75"/>
<polygon fill="black" stroke="black" points="4697.56,-206.24 4687.22,-208.56 4696.75,-213.19 4697.56,-206.24"/>
<text text-anchor="middle" x="5944" y="-354.27" font-family="Times,serif" font-size="14.00">1</text>
</g>
<!-- rwrp.func_8019024C -->
<g id="node27" class="node">
<title>rwrp.func_8019024C</title>
<g id="a_node27"><a xlink:href="rwrp.func_8019024C.svg" xlink:title="rwrp.func_8019024C">
<ellipse fill="red" stroke="black" cx="6260.69" cy="-378" rx="108.58" ry="18"/>
<text text-anchor="middle" x="6260.69" y="-374.3" font-family="Times,serif" font-size="14.00">rwrp.func_8019024C</text>
</a>
</g>
</g>
<!-- rwrp.func_8019024C&#45;&gt;rwrp.DestroyEntity -->
<g id="edge26" class="edge">
<title>rwrp.func_8019024C&#45;&gt;rwrp.DestroyEntity</title>
<path fill="none" stroke="black" d="M6183.34,-365.31C6170.13,-363.45 6156.52,-361.6 6143.69,-360 5600.68,-292.18 4947.42,-230.35 4703.16,-207.92"/>
<polygon fill="black" stroke="black" points="4703.17,-204.41 4692.89,-206.98 4702.53,-211.38 4703.17,-204.41"/>
<text text-anchor="middle" x="6178.34" y="-354.11" font-family="Times,serif" font-size="14.00">1</text>
</g>
<!-- rwrp.func_80190D1C -->
<g id="node28" class="node">
<title>rwrp.func_80190D1C</title>
<g id="a_node28"><a xlink:href="rwrp.func_80190D1C.svg" xlink:title="rwrp.func_80190D1C">
<ellipse fill="red" stroke="black" cx="6496.69" cy="-378" rx="109.68" ry="18"/>
<text text-anchor="middle" x="6496.69" y="-374.3" font-family="Times,serif" font-size="14.00">rwrp.func_80190D1C</text>
</a>
</g>
</g>
<!-- rwrp.func_80190D1C&#45;&gt;rwrp.DestroyEntity -->
<g id="edge27" class="edge">
<title>rwrp.func_80190D1C&#45;&gt;rwrp.DestroyEntity</title>
<path fill="none" stroke="black" d="M6419.01,-365.22C6405.58,-363.35 6391.75,-361.53 6378.69,-360 5744.53,-285.59 4979.35,-226.48 4707,-206.39"/>
<polygon fill="black" stroke="black" points="4706.97,-202.88 4696.74,-205.64 4706.45,-209.86 4706.97,-202.88"/>
<text text-anchor="middle" x="6414.01" y="-354.02" font-family="Times,serif" font-size="14.00">1</text>
</g>
<!-- rwrp.func_80190E44 -->
<g id="node29" class="node">
<title>rwrp.func_80190E44</title>
<g id="a_node29"><a xlink:href="rwrp.func_80190E44.svg" xlink:title="rwrp.func_80190E44">
<ellipse fill="red" stroke="black" cx="6732.69" cy="-378" rx="108.58" ry="18"/>
<text text-anchor="middle" x="6732.69" y="-374.3" font-family="Times,serif" font-size="14.00">rwrp.func_80190E44</text>
</a>
</g>
</g>
<!-- rwrp.func_80190E44&#45;&gt;rwrp.DestroyEntity -->
<g id="edge28" class="edge">
<title>rwrp.func_80190E44&#45;&gt;rwrp.DestroyEntity</title>
<path fill="none" stroke="black" d="M6656.32,-365.18C6642.8,-363.29 6628.85,-361.48 6615.69,-360 5888.62,-278.16 5009.08,-222.68 4710.04,-205.03"/>
<polygon fill="black" stroke="black" points="4709.83,-201.52 4699.64,-204.42 4709.42,-208.5 4709.83,-201.52"/>
<text text-anchor="middle" x="6651.32" y="-353.98" font-family="Times,serif" font-size="14.00">1</text>
</g>
<!-- rwrp.func_80191490 -->
<g id="node30" class="node">
<title>rwrp.func_80191490</title>
<g id="a_node30"><a xlink:href="rwrp.func_80191490.svg" xlink:title="rwrp.func_80191490">
<ellipse fill="red" stroke="black" cx="6966.69" cy="-378" rx="107.48" ry="18"/>
<text text-anchor="middle" x="6966.69" y="-374.3" font-family="Times,serif" font-size="14.00">rwrp.func_80191490</text>
</a>
</g>
</g>
<!-- rwrp.func_80191490&#45;&gt;rwrp.DestroyEntity -->
<g id="edge29" class="edge">
<title>rwrp.func_80191490&#45;&gt;rwrp.DestroyEntity</title>
<path fill="none" stroke="black" d="M6891.29,-365.12C6877.8,-363.23 6863.84,-361.43 6850.69,-360 6030.12,-270.59 5035.25,-219.14 4711.81,-203.86"/>
<polygon fill="black" stroke="black" points="4711.67,-200.35 4701.52,-203.38 4711.34,-207.34 4711.67,-200.35"/>
<text text-anchor="middle" x="6886.29" y="-353.92" font-family="Times,serif" font-size="14.00">1</text>
</g>
<!-- rwrp.func_801917B8 -->
<g id="node31" class="node">
<title>rwrp.func_801917B8</title>
<g id="a_node31"><a xlink:href="rwrp.func_801917B8.svg" xlink:title="rwrp.func_801917B8">
<ellipse fill="red" stroke="black" cx="7200.69" cy="-378" rx="108.58" ry="18"/>
<text text-anchor="middle" x="7200.69" y="-374.3" font-family="Times,serif" font-size="14.00">rwrp.func_801917B8</text>
</a>
</g>
</g>
<!-- rwrp.func_801917B8&#45;&gt;rwrp.DestroyEntity -->
<g id="edge30" class="edge">
<title>rwrp.func_801917B8&#45;&gt;rwrp.DestroyEntity</title>
<path fill="none" stroke="black" d="M7124.63,-365.15C7110.7,-363.23 7096.28,-361.42 7082.69,-360 6168.74,-264.62 5058.87,-216.46 4712.92,-203.01"/>
<polygon fill="black" stroke="black" points="4713.04,-199.51 4702.91,-202.62 4712.77,-206.5 4713.04,-199.51"/>
<text text-anchor="middle" x="7119.63" y="-353.95" font-family="Times,serif" font-size="14.00">1</text>
</g>
<!-- rwrp.func_801918A8 -->
<g id="node32" class="node">
<title>rwrp.func_801918A8</title>
<g id="a_node32"><a xlink:href="rwrp.func_801918A8.svg" xlink:title="rwrp.func_801918A8">
<ellipse fill="red" stroke="black" cx="7434.69" cy="-378" rx="107.78" ry="18"/>
<text text-anchor="middle" x="7434.69" y="-374.3" font-family="Times,serif" font-size="14.00">rwrp.func_801918A8</text>
</a>
</g>
</g>
<!-- rwrp.func_801918A8&#45;&gt;rwrp.DestroyEntity -->
<g id="edge31" class="edge">
<title>rwrp.func_801918A8&#45;&gt;rwrp.DestroyEntity</title>
<path fill="none" stroke="black" d="M7359.62,-365.03C7346.02,-363.14 7331.95,-361.36 7318.69,-360 6309.54,-256.32 5081.91,-213.25 4713.94,-202.1"/>
<polygon fill="black" stroke="black" points="4713.93,-198.59 4703.83,-201.79 4713.72,-205.59 4713.93,-198.59"/>
<text text-anchor="middle" x="7354.62" y="-353.83" font-family="Times,serif" font-size="14.00">1</text>
</g>
<!-- rwrp.func_8019199C -->
<g id="node33" class="node">
<title>rwrp.func_8019199C</title>
<g id="a_node33"><a xlink:href="rwrp.func_8019199C.svg" xlink:title="rwrp.func_8019199C">
<ellipse fill="red" stroke="black" cx="7668.69" cy="-378" rx="108.58" ry="18"/>
<text text-anchor="middle" x="7668.69" y="-374.3" font-family="Times,serif" font-size="14.00">rwrp.func_8019199C</text>
</a>
</g>
</g>
<!-- rwrp.func_8019199C&#45;&gt;rwrp.DestroyEntity -->
<g id="edge32" class="edge">
<title>rwrp.func_8019199C&#45;&gt;rwrp.DestroyEntity</title>
<path fill="none" stroke="black" d="M7593.29,-365.03C7579.48,-363.13 7565.17,-361.34 7551.69,-360 6447.75,-249.87 5103.1,-210.86 4714.59,-201.45"/>
<polygon fill="black" stroke="black" points="4714.56,-197.95 4704.48,-201.21 4714.39,-204.95 4714.56,-197.95"/>
<text text-anchor="middle" x="7588.29" y="-353.83" font-family="Times,serif" font-size="14.00">1</text>
</g>
<!-- rwrp.func_80192348 -->
<g id="node34" class="node">
<title>rwrp.func_80192348</title>
<g id="a_node34"><a xlink:href="rwrp.func_80192348.svg" xlink:title="rwrp.func_80192348">
<ellipse fill="red" stroke="black" cx="7902.69" cy="-378" rx="107.48" ry="18"/>
<text text-anchor="middle" x="7902.69" y="-374.3" font-family="Times,serif" font-size="14.00">rwrp.func_80192348</text>
</a>
</g>
</g>
<!-- rwrp.func_80192348&#45;&gt;rwrp.DestroyEntity -->
<g id="edge33" class="edge">
<title>rwrp.func_80192348&#45;&gt;rwrp.DestroyEntity</title>
<path fill="none" stroke="black" d="M7828.25,-365.02C7814.46,-363.11 7800.16,-361.32 7786.69,-360 6587.05,-242.02 5123.97,-208.23 4715.3,-200.8"/>
<polygon fill="black" stroke="black" points="4715.33,-197.3 4705.26,-200.61 4715.2,-204.29 4715.33,-197.3"/>
<text text-anchor="middle" x="7823.25" y="-353.82" font-family="Times,serif" font-size="14.00">1</text>
</g>
<!-- rwrp.func_80192414 -->
<g id="node35" class="node">
<title>rwrp.func_80192414</title>
<g id="a_node35"><a xlink:href="rwrp.func_80192414.svg" xlink:title="rwrp.func_80192414">
<ellipse fill="red" stroke="black" cx="8134.69" cy="-378" rx="107.48" ry="18"/>
<text text-anchor="middle" x="8134.69" y="-374.3" font-family="Times,serif" font-size="14.00">rwrp.func_80192414</text>
</a>
</g>
</g>
<!-- rwrp.func_80192414&#45;&gt;rwrp.DestroyEntity -->
<g id="edge34" class="edge">
<title>rwrp.func_80192414&#45;&gt;rwrp.DestroyEntity</title>
<path fill="none" stroke="black" d="M8060.25,-364.99C8046.47,-363.07 8032.16,-361.3 8018.69,-360 6723.95,-234.9 5143.18,-205.99 4715.68,-200.27"/>
<polygon fill="black" stroke="black" points="4715.54,-196.77 4705.49,-200.13 4715.45,-203.77 4715.54,-196.77"/>
<text text-anchor="middle" x="8055.25" y="-353.79" font-family="Times,serif" font-size="14.00">1</text>
</g>
<!-- rwrp.func_80192594 -->
<g id="node36" class="node">
<title>rwrp.func_80192594</title>
<g id="a_node36"><a xlink:href="rwrp.func_80192594.svg" xlink:title="rwrp.func_80192594">
<ellipse fill="red" stroke="black" cx="8366.69" cy="-378" rx="107.48" ry="18"/>
<text text-anchor="middle" x="8366.69" y="-374.3" font-family="Times,serif" font-size="14.00">rwrp.func_80192594</text>
</a>
</g>
</g>
<!-- rwrp.func_80192594&#45;&gt;rwrp.DestroyEntity -->
<g id="edge35" class="edge">
<title>rwrp.func_80192594&#45;&gt;rwrp.DestroyEntity</title>
<path fill="none" stroke="black" d="M8292.26,-364.95C8278.47,-363.04 8264.17,-361.28 8250.69,-360 6860.57,-227.79 5161.74,-203.89 4716.02,-199.8"/>
<polygon fill="black" stroke="black" points="4715.75,-196.3 4705.72,-199.71 4715.69,-203.3 4715.75,-196.3"/>
<text text-anchor="middle" x="8287.26" y="-353.75" font-family="Times,serif" font-size="14.00">1</text>
</g>
<!-- rwrp.func_8019390C -->
<g id="node37" class="node">
<title>rwrp.func_8019390C</title>
<g id="a_node37"><a xlink:href="rwrp.func_8019390C.svg" xlink:title="rwrp.func_8019390C">
<ellipse fill="red" stroke="black" cx="8600.69" cy="-378" rx="108.58" ry="18"/>
<text text-anchor="middle" x="8600.69" y="-374.3" font-family="Times,serif" font-size="14.00">rwrp.func_8019390C</text>
</a>
</g>
</g>
<!-- rwrp.func_8019390C&#45;&gt;rwrp.DestroyEntity -->
<g id="edge36" class="edge">
<title>rwrp.func_8019390C&#45;&gt;rwrp.DestroyEntity</title>
<path fill="none" stroke="black" d="M8525.29,-364.97C8511.16,-363.05 8496.5,-361.28 8482.69,-360 6996.54,-222.46 5179.07,-202.4 4716.08,-199.49"/>
<polygon fill="black" stroke="black" points="4716.08,-195.99 4706.06,-199.43 4716.04,-202.99 4716.08,-195.99"/>
<text text-anchor="middle" x="8520.29" y="-353.77" font-family="Times,serif" font-size="14.00">1</text>
</g>
</g>
</svg>
