<?xml version="1.0" encoding="UTF-8" standalone="no"?>
<!DOCTYPE svg PUBLIC "-//W3C//DTD SVG 1.1//EN"
 "http://www.w3.org/Graphics/SVG/1.1/DTD/svg11.dtd">
<!-- Generated by graphviz version 2.43.0 (0)
 -->
<!-- Title: rwrp.func_80192348 Pages: 1 -->
<svg width="882pt" height="224pt"
 viewBox="0.00 0.00 881.93 224.00" xmlns="http://www.w3.org/2000/svg" xmlns:xlink="http://www.w3.org/1999/xlink">
<g id="graph0" class="graph" transform="scale(1 1) rotate(0) translate(4 220)">
<title>rwrp.func_80192348</title>
<polygon fill="white" stroke="transparent" points="-4,4 -4,-220 877.93,-220 877.93,4 -4,4"/>
<!-- rwrp.func_80192348 -->
<g id="node1" class="node">
<title>rwrp.func_80192348</title>
<ellipse fill="red" stroke="black" cx="434.54" cy="-198" rx="107.48" ry="18"/>
<text text-anchor="middle" x="434.54" y="-194.3" font-family="Times,serif" font-size="14.00">rwrp.func_80192348</text>
</g>
<!-- rwrp.func_8018E290 -->
<g id="node2" class="node">
<title>rwrp.func_8018E290</title>
<g id="a_node2"><a xlink:href="rwrp.func_8018E290.svg" xlink:title="rwrp.func_8018E290">
<ellipse fill="red" stroke="black" cx="108.54" cy="-18" rx="108.58" ry="18"/>
<text text-anchor="middle" x="108.54" y="-14.3" font-family="Times,serif" font-size="14.00">rwrp.func_8018E290</text>
</a>
</g>
</g>
<!-- rwrp.func_80192348&#45;&gt;rwrp.func_8018E290 -->
<g id="edge1" class="edge">
<title>rwrp.func_80192348&#45;&gt;rwrp.func_8018E290</title>
<path fill="none" stroke="black" d="M404.46,-180.57C345.14,-148.19 213.17,-76.13 147.38,-40.21"/>
<polygon fill="black" stroke="black" points="149.01,-37.11 138.55,-35.39 145.65,-43.25 149.01,-37.11"/>
<text text-anchor="middle" x="133.55" y="-39.19" font-family="Times,serif" font-size="14.00">1</text>
</g>
<!-- rwrp.MoveEntity -->
<g id="node3" class="node">
<title>rwrp.MoveEntity</title>
<g id="a_node3"><a xlink:href="rwrp.MoveEntity.svg" xlink:title="rwrp.MoveEntity">
<ellipse fill="green" stroke="black" cx="325.54" cy="-18" rx="90.18" ry="18"/>
<text text-anchor="middle" x="325.54" y="-14.3" font-family="Times,serif" font-size="14.00">rwrp.MoveEntity</text>
</a>
</g>
</g>
<!-- rwrp.func_80192348&#45;&gt;rwrp.MoveEntity -->
<g id="edge2" class="edge">
<title>rwrp.func_80192348&#45;&gt;rwrp.MoveEntity</title>
<path fill="none" stroke="black" d="M424.09,-179.93C404.88,-148.57 363.88,-81.6 341.28,-44.71"/>
<polygon fill="black" stroke="black" points="344.17,-42.72 335.96,-36.02 338.2,-46.37 344.17,-42.72"/>
<text text-anchor="middle" x="330.96" y="-39.82" font-family="Times,serif" font-size="14.00">1</text>
</g>
<!-- rwrp.func_8018D6B0 -->
<g id="node4" class="node">
<title>rwrp.func_8018D6B0</title>
<g id="a_node4"><a xlink:href="rwrp.func_8018D6B0.svg" xlink:title="rwrp.func_8018D6B0">
<ellipse fill="red" stroke="black" cx="543.54" cy="-18" rx="109.68" ry="18"/>
<text text-anchor="middle" x="543.54" y="-14.3" font-family="Times,serif" font-size="14.00">rwrp.func_8018D6B0</text>
</a>
</g>
</g>
<!-- rwrp.func_80192348&#45;&gt;rwrp.func_8018D6B0 -->
<g id="edge3" class="edge">
<title>rwrp.func_80192348&#45;&gt;rwrp.func_8018D6B0</title>
<path fill="none" stroke="black" d="M444.99,-179.93C464.2,-148.57 505.21,-81.6 527.8,-44.71"/>
<polygon fill="black" stroke="black" points="530.88,-46.37 533.12,-36.02 524.91,-42.72 530.88,-46.37"/>
<text text-anchor="middle" x="528.12" y="-39.82" font-family="Times,serif" font-size="14.00">1</text>
</g>
<!-- rwrp.DestroyEntity -->
<g id="node5" class="node">
<title>rwrp.DestroyEntity</title>
<g id="a_node5"><a xlink:href="rwrp.DestroyEntity.svg" xlink:title="rwrp.DestroyEntity">
<ellipse fill="red" stroke="black" cx="772.54" cy="-18" rx="101.28" ry="18"/>
<text text-anchor="middle" x="772.54" y="-14.3" font-family="Times,serif" font-size="14.00">rwrp.DestroyEntity</text>
</a>
</g>
</g>
<!-- rwrp.func_80192348&#45;&gt;rwrp.DestroyEntity -->
<g id="edge4" class="edge">
<title>rwrp.func_80192348&#45;&gt;rwrp.DestroyEntity</title>
<path fill="none" stroke="black" d="M465.43,-180.73C526.91,-148.35 664.53,-75.88 732.7,-39.98"/>
<polygon fill="black" stroke="black" points="734.63,-42.92 741.84,-35.17 731.36,-36.73 734.63,-42.92"/>
<text text-anchor="middle" x="736.84" y="-38.97" font-family="Times,serif" font-size="14.00">1</text>
</g>
</g>
</svg>
