<?xml version="1.0" encoding="UTF-8" standalone="no"?>
<!DOCTYPE svg PUBLIC "-//W3C//DTD SVG 1.1//EN"
 "http://www.w3.org/Graphics/SVG/1.1/DTD/svg11.dtd">
<!-- Generated by graphviz version 2.43.0 (0)
 -->
<!-- Title: rwrp.func_80192594 Pages: 1 -->
<svg width="1036pt" height="131pt"
 viewBox="0.00 0.00 1035.93 131.00" xmlns="http://www.w3.org/2000/svg" xmlns:xlink="http://www.w3.org/1999/xlink">
<g id="graph0" class="graph" transform="scale(1 1) rotate(0) translate(4 127)">
<title>rwrp.func_80192594</title>
<polygon fill="white" stroke="transparent" points="-4,4 -4,-127 1031.93,-127 1031.93,4 -4,4"/>
<!-- rwrp.func_80192594 -->
<g id="node1" class="node">
<title>rwrp.func_80192594</title>
<ellipse fill="red" stroke="black" cx="409.54" cy="-105" rx="107.48" ry="18"/>
<text text-anchor="middle" x="409.54" y="-101.3" font-family="Times,serif" font-size="14.00">rwrp.func_80192594</text>
</g>
<!-- rwrp.func_8018E290 -->
<g id="node2" class="node">
<title>rwrp.func_8018E290</title>
<g id="a_node2"><a xlink:href="rwrp.func_8018E290.svg" xlink:title="rwrp.func_8018E290">
<ellipse fill="red" stroke="black" cx="108.54" cy="-18" rx="108.58" ry="18"/>
<text text-anchor="middle" x="108.54" y="-14.3" font-family="Times,serif" font-size="14.00">rwrp.func_8018E290</text>
</a>
</g>
</g>
<!-- rwrp.func_80192594&#45;&gt;rwrp.func_8018E290 -->
<g id="edge1" class="edge">
<title>rwrp.func_80192594&#45;&gt;rwrp.func_8018E290</title>
<path fill="none" stroke="black" d="M357.11,-89.19C305.15,-74.52 225.57,-52.05 170.51,-36.5"/>
<polygon fill="black" stroke="black" points="171.45,-33.13 160.87,-33.78 169.55,-39.86 171.45,-33.13"/>
<text text-anchor="middle" x="282.54" y="-57.8" font-family="Times,serif" font-size="14.00">1</text>
</g>
<!-- rsin -->
<g id="node3" class="node">
<title>rsin</title>
<g id="a_node3"><a xlink:href="rsin.svg" xlink:title="rsin">
<ellipse fill="lightblue" stroke="black" cx="263.54" cy="-18" rx="28.7" ry="18"/>
<text text-anchor="middle" x="263.54" y="-14.3" font-family="Times,serif" font-size="14.00">rsin</text>
</a>
</g>
</g>
<!-- rwrp.func_80192594&#45;&gt;rsin -->
<g id="edge2" class="edge">
<title>rwrp.func_80192594&#45;&gt;rsin</title>
<path fill="none" stroke="black" d="M381.39,-87.61C356,-72.83 318.8,-51.17 293.01,-36.16"/>
<polygon fill="black" stroke="black" points="294.47,-32.96 284.07,-30.95 290.95,-39.01 294.47,-32.96"/>
<text text-anchor="middle" x="350.54" y="-57.8" font-family="Times,serif" font-size="14.00">1</text>
</g>
<!-- rcos -->
<g id="node4" class="node">
<title>rcos</title>
<g id="a_node4"><a xlink:href="rcos.svg" xlink:title="rcos">
<ellipse fill="lightblue" stroke="black" cx="340.54" cy="-18" rx="30.59" ry="18"/>
<text text-anchor="middle" x="340.54" y="-14.3" font-family="Times,serif" font-size="14.00">rcos</text>
</a>
</g>
</g>
<!-- rwrp.func_80192594&#45;&gt;rcos -->
<g id="edge3" class="edge">
<title>rwrp.func_80192594&#45;&gt;rcos</title>
<path fill="none" stroke="black" d="M395.58,-86.8C385.18,-73.98 370.86,-56.35 359.43,-42.27"/>
<polygon fill="black" stroke="black" points="362.11,-40.02 353.09,-34.46 356.68,-44.43 362.11,-40.02"/>
<text text-anchor="middle" x="384.54" y="-57.8" font-family="Times,serif" font-size="14.00">1</text>
</g>
<!-- rwrp.MoveEntity -->
<g id="node5" class="node">
<title>rwrp.MoveEntity</title>
<g id="a_node5"><a xlink:href="rwrp.MoveEntity.svg" xlink:title="rwrp.MoveEntity">
<ellipse fill="green" stroke="black" cx="479.54" cy="-18" rx="90.18" ry="18"/>
<text text-anchor="middle" x="479.54" y="-14.3" font-family="Times,serif" font-size="14.00">rwrp.MoveEntity</text>
</a>
</g>
</g>
<!-- rwrp.func_80192594&#45;&gt;rwrp.MoveEntity -->
<g id="edge4" class="edge">
<title>rwrp.func_80192594&#45;&gt;rwrp.MoveEntity</title>
<path fill="none" stroke="black" d="M423.71,-86.8C433.92,-74.39 447.87,-57.46 459.27,-43.62"/>
<polygon fill="black" stroke="black" points="461.98,-45.83 465.63,-35.89 456.58,-41.38 461.98,-45.83"/>
<text text-anchor="middle" x="454.54" y="-57.8" font-family="Times,serif" font-size="14.00">1</text>
</g>
<!-- rwrp.func_8018D6B0 -->
<g id="node6" class="node">
<title>rwrp.func_8018D6B0</title>
<g id="a_node6"><a xlink:href="rwrp.func_8018D6B0.svg" xlink:title="rwrp.func_8018D6B0">
<ellipse fill="red" stroke="black" cx="697.54" cy="-18" rx="109.68" ry="18"/>
<text text-anchor="middle" x="697.54" y="-14.3" font-family="Times,serif" font-size="14.00">rwrp.func_8018D6B0</text>
</a>
</g>
</g>
<!-- rwrp.func_80192594&#45;&gt;rwrp.func_8018D6B0 -->
<g id="edge5" class="edge">
<title>rwrp.func_80192594&#45;&gt;rwrp.func_8018D6B0</title>
<path fill="none" stroke="black" d="M460.04,-89.1C509.29,-74.56 584.26,-52.43 636.76,-36.94"/>
<polygon fill="black" stroke="black" points="638.02,-40.22 646.62,-34.03 636.04,-33.5 638.02,-40.22"/>
<text text-anchor="middle" x="576.54" y="-57.8" font-family="Times,serif" font-size="14.00">1</text>
</g>
<!-- rwrp.DestroyEntity -->
<g id="node7" class="node">
<title>rwrp.DestroyEntity</title>
<g id="a_node7"><a xlink:href="rwrp.DestroyEntity.svg" xlink:title="rwrp.DestroyEntity">
<ellipse fill="red" stroke="black" cx="926.54" cy="-18" rx="101.28" ry="18"/>
<text text-anchor="middle" x="926.54" y="-14.3" font-family="Times,serif" font-size="14.00">rwrp.DestroyEntity</text>
</a>
</g>
</g>
<!-- rwrp.func_80192594&#45;&gt;rwrp.DestroyEntity -->
<g id="edge6" class="edge">
<title>rwrp.func_80192594&#45;&gt;rwrp.DestroyEntity</title>
<path fill="none" stroke="black" d="M483.34,-91.87C579.09,-76.12 745.63,-48.74 845.02,-32.4"/>
<polygon fill="black" stroke="black" points="845.72,-35.84 855.02,-30.76 844.58,-28.93 845.72,-35.84"/>
<text text-anchor="middle" x="704.54" y="-57.8" font-family="Times,serif" font-size="14.00">1</text>
</g>
</g>
</svg>
