<?xml version="1.0" encoding="UTF-8" standalone="no"?>
<!DOCTYPE svg PUBLIC "-//W3C//DTD SVG 1.1//EN"
 "http://www.w3.org/Graphics/SVG/1.1/DTD/svg11.dtd">
<!-- Generated by graphviz version 2.43.0 (0)
 -->
<!-- Title: rwrp.DestroyEntity Pages: 1 -->
<svg width="8663pt" height="404pt"
 viewBox="0.00 0.00 8663.23 404.00" xmlns="http://www.w3.org/2000/svg" xmlns:xlink="http://www.w3.org/1999/xlink">
<g id="graph0" class="graph" transform="scale(1 1) rotate(0) translate(4 400)">
<title>rwrp.DestroyEntity</title>
<polygon fill="white" stroke="transparent" points="-4,4 -4,-400 8659.23,-400 8659.23,4 -4,4"/>
<!-- rwrp.DestroyEntity -->
<g id="node1" class="node">
<title>rwrp.DestroyEntity</title>
<ellipse fill="red" stroke="black" cx="4547.69" cy="-198" rx="101.28" ry="18"/>
<text text-anchor="middle" x="4547.69" y="-194.3" font-family="Times,serif" font-size="14.00">rwrp.DestroyEntity</text>
</g>
<!-- dra.FreePrimitives -->
<g id="node2" class="node">
<title>dra.FreePrimitives</title>
<g id="a_node2"><a xlink:href="dra.FreePrimitives.svg" xlink:title="dra.FreePrimitives">
<ellipse fill="green" stroke="black" cx="4547.69" cy="-18" rx="98.58" ry="18"/>
<text text-anchor="middle" x="4547.69" y="-14.3" font-family="Times,serif" font-size="14.00">dra.FreePrimitives</text>
</a>
</g>
</g>
<!-- rwrp.DestroyEntity&#45;&gt;dra.FreePrimitives -->
<g id="edge1" class="edge">
<title>rwrp.DestroyEntity&#45;&gt;dra.FreePrimitives</title>
<path fill="none" stroke="black" d="M4547.69,-179.93C4547.69,-148.97 4547.69,-83.3 4547.69,-46.13"/>
<polygon fill="black" stroke="black" points="4551.19,-46.02 4547.69,-36.02 4544.19,-46.02 4551.19,-46.02"/>
<text text-anchor="middle" x="4542.69" y="-39.82" font-family="Times,serif" font-size="14.00">1</text>
</g>
<!-- rwrp.CollectGold -->
<g id="node3" class="node">
<title>rwrp.CollectGold</title>
<g id="a_node3"><a xlink:href="rwrp.CollectGold.svg" xlink:title="rwrp.CollectGold">
<ellipse fill="green" stroke="black" cx="89.69" cy="-378" rx="89.88" ry="18"/>
<text text-anchor="middle" x="89.69" y="-374.3" font-family="Times,serif" font-size="14.00">rwrp.CollectGold</text>
</a>
</g>
</g>
<!-- rwrp.CollectGold&#45;&gt;rwrp.DestroyEntity -->
<g id="edge2" class="edge">
<title>rwrp.CollectGold&#45;&gt;rwrp.DestroyEntity</title>
<path fill="none" stroke="black" d="M152.1,-364.99C164.2,-363.02 176.81,-361.23 188.69,-360 1049.14,-270.63 3845.54,-212.55 4437.12,-201.09"/>
<polygon fill="black" stroke="black" points="4437.42,-204.58 4447.35,-200.89 4437.29,-197.58 4437.42,-204.58"/>
<text text-anchor="middle" x="147.1" y="-353.79" font-family="Times,serif" font-size="14.00">1</text>
</g>
<!-- rwrp.CollectLifeVessel -->
<g id="node4" class="node">
<title>rwrp.CollectLifeVessel</title>
<g id="a_node4"><a xlink:href="rwrp.CollectLifeVessel.svg" xlink:title="rwrp.CollectLifeVessel">
<ellipse fill="green" stroke="black" cx="312.69" cy="-378" rx="115.08" ry="18"/>
<text text-anchor="middle" x="312.69" y="-374.3" font-family="Times,serif" font-size="14.00">rwrp.CollectLifeVessel</text>
</a>
</g>
</g>
<!-- rwrp.CollectLifeVessel&#45;&gt;rwrp.DestroyEntity -->
<g id="edge3" class="edge">
<title>rwrp.CollectLifeVessel&#45;&gt;rwrp.DestroyEntity</title>
<path fill="none" stroke="black" d="M392.28,-364.93C407.01,-363.02 422.3,-361.27 436.69,-360 2020.09,-220.79 3957.16,-201.94 4436.5,-199.4"/>
<polygon fill="black" stroke="black" points="4436.55,-202.9 4446.53,-199.35 4436.51,-195.9 4436.55,-202.9"/>
<text text-anchor="middle" x="387.28" y="-353.73" font-family="Times,serif" font-size="14.00">1</text>
</g>
<!-- rwrp.CollectSubweapon -->
<g id="node5" class="node">
<title>rwrp.CollectSubweapon</title>
<g id="a_node5"><a xlink:href="rwrp.CollectSubweapon.svg" xlink:title="rwrp.CollectSubweapon">
<ellipse fill="green" stroke="black" cx="567.69" cy="-378" rx="122.38" ry="18"/>
<text text-anchor="middle" x="567.69" y="-374.3" font-family="Times,serif" font-size="14.00">rwrp.CollectSubweapon</text>
</a>
</g>
</g>
<!-- rwrp.CollectSubweapon&#45;&gt;rwrp.DestroyEntity -->
<g id="edge4" class="edge">
<title>rwrp.CollectSubweapon&#45;&gt;rwrp.DestroyEntity</title>
<path fill="none" stroke="black" d="M652.43,-364.99C668.12,-363.08 684.38,-361.3 699.69,-360 2174.55,-234.41 3976.12,-205.63 4436.49,-200.15"/>
<polygon fill="black" stroke="black" points="4436.83,-203.64 4446.79,-200.03 4436.75,-196.64 4436.83,-203.64"/>
<text text-anchor="middle" x="647.43" y="-353.79" font-family="Times,serif" font-size="14.00">1</text>
</g>
<!-- rwrp.CreateEntityFromEntity -->
<g id="node6" class="node">
<title>rwrp.CreateEntityFromEntity</title>
<g id="a_node6"><a xlink:href="rwrp.CreateEntityFromEntity.svg" xlink:title="rwrp.CreateEntityFromEntity">
<ellipse fill="green" stroke="black" cx="857.69" cy="-378" rx="149.47" ry="18"/>
<text text-anchor="middle" x="857.69" y="-374.3" font-family="Times,serif" font-size="14.00">rwrp.CreateEntityFromEntity</text>
</a>
</g>
</g>
<!-- rwrp.CreateEntityFromEntity&#45;&gt;rwrp.DestroyEntity -->
<g id="edge5" class="edge">
<title>rwrp.CreateEntityFromEntity&#45;&gt;rwrp.DestroyEntity</title>
<path fill="none" stroke="black" d="M960.87,-364.97C979.12,-363.11 997.95,-361.36 1015.69,-360 2362.29,-256.96 4003.13,-212.11 4437.78,-201.54"/>
<polygon fill="black" stroke="black" points="4437.91,-205.04 4447.83,-201.3 4437.74,-198.04 4437.91,-205.04"/>
<text text-anchor="middle" x="955.87" y="-353.77" font-family="Times,serif" font-size="14.00">1</text>
</g>
<!-- rwrp.DestroyCurrentEntity -->
<g id="node7" class="node">
<title>rwrp.DestroyCurrentEntity</title>
<g id="a_node7"><a xlink:href="rwrp.DestroyCurrentEntity.svg" xlink:title="rwrp.DestroyCurrentEntity">
<ellipse fill="green" stroke="black" cx="1162.69" cy="-378" rx="137.58" ry="18"/>
<text text-anchor="middle" x="1162.69" y="-374.3" font-family="Times,serif" font-size="14.00">rwrp.DestroyCurrentEntity</text>
</a>
</g>
</g>
<!-- rwrp.DestroyCurrentEntity&#45;&gt;rwrp.DestroyEntity -->
<g id="edge6" class="edge">
<title>rwrp.DestroyCurrentEntity&#45;&gt;rwrp.DestroyEntity</title>
<path fill="none" stroke="black" d="M1258.28,-365.03C1275.38,-363.15 1293.05,-361.37 1309.69,-360 2534.9,-258.8 4026.55,-213.09 4438.06,-201.85"/>
<polygon fill="black" stroke="black" points="4438.27,-205.34 4448.17,-201.57 4438.08,-198.35 4438.27,-205.34"/>
<text text-anchor="middle" x="1253.28" y="-353.83" font-family="Times,serif" font-size="14.00">1</text>
</g>
<!-- rwrp.EntityEnemyBlood -->
<g id="node8" class="node">
<title>rwrp.EntityEnemyBlood</title>
<g id="a_node8"><a xlink:href="rwrp.EntityEnemyBlood.svg" xlink:title="rwrp.EntityEnemyBlood">
<ellipse fill="green" stroke="black" cx="1441.69" cy="-378" rx="123.48" ry="18"/>
<text text-anchor="middle" x="1441.69" y="-374.3" font-family="Times,serif" font-size="14.00">rwrp.EntityEnemyBlood</text>
</a>
</g>
</g>
<!-- rwrp.EntityEnemyBlood&#45;&gt;rwrp.DestroyEntity -->
<g id="edge7" class="edge">
<title>rwrp.EntityEnemyBlood&#45;&gt;rwrp.DestroyEntity</title>
<path fill="none" stroke="black" d="M1527.8,-365.06C1543.39,-363.17 1559.51,-361.38 1574.69,-360 2690.56,-258.61 4048.28,-213.49 4438.23,-202.04"/>
<polygon fill="black" stroke="black" points="4438.48,-205.54 4448.38,-201.74 4438.28,-198.54 4438.48,-205.54"/>
<text text-anchor="middle" x="1522.8" y="-353.86" font-family="Times,serif" font-size="14.00">1</text>
</g>
<!-- rwrp.EntityEquipItemDrop -->
<g id="node9" class="node">
<title>rwrp.EntityEquipItemDrop</title>
<g id="a_node9"><a xlink:href="rwrp.EntityEquipItemDrop.svg" xlink:title="rwrp.EntityEquipItemDrop">
<ellipse fill="red" stroke="black" cx="1719.69" cy="-378" rx="136.48" ry="18"/>
<text text-anchor="middle" x="1719.69" y="-374.3" font-family="Times,serif" font-size="14.00">rwrp.EntityEquipItemDrop</text>
</a>
</g>
</g>
<!-- rwrp.EntityEquipItemDrop&#45;&gt;rwrp.DestroyEntity -->
<g id="edge8" class="edge">
<title>rwrp.EntityEquipItemDrop&#45;&gt;rwrp.DestroyEntity</title>
<path fill="none" stroke="black" d="M1815.43,-365.08C1832.16,-363.21 1849.42,-361.43 1865.69,-360 2864.12,-271.97 4075.96,-218.29 4439.57,-203.32"/>
<polygon fill="black" stroke="black" points="4439.98,-206.8 4449.82,-202.89 4439.69,-199.81 4439.98,-206.8"/>
<text text-anchor="middle" x="1810.43" y="-353.88" font-family="Times,serif" font-size="14.00">2</text>
</g>
<!-- rwrp.EntityHeartDrop -->
<g id="node10" class="node">
<title>rwrp.EntityHeartDrop</title>
<g id="a_node10"><a xlink:href="rwrp.EntityHeartDrop.svg" xlink:title="rwrp.EntityHeartDrop">
<ellipse fill="red" stroke="black" cx="1988.69" cy="-378" rx="114.28" ry="18"/>
<text text-anchor="middle" x="1988.69" y="-374.3" font-family="Times,serif" font-size="14.00">rwrp.EntityHeartDrop</text>
</a>
</g>
</g>
<!-- rwrp.EntityHeartDrop&#45;&gt;rwrp.DestroyEntity -->
<g id="edge9" class="edge">
<title>rwrp.EntityHeartDrop&#45;&gt;rwrp.DestroyEntity</title>
<path fill="none" stroke="black" d="M2068.65,-365.11C2082.96,-363.22 2097.75,-361.42 2111.69,-360 3009.17,-268.44 4098.23,-217.84 4439.88,-203.38"/>
<polygon fill="black" stroke="black" points="4440.17,-206.87 4450.01,-202.95 4439.88,-199.87 4440.17,-206.87"/>
<text text-anchor="middle" x="2063.65" y="-353.91" font-family="Times,serif" font-size="14.00">1</text>
</g>
<!-- rwrp.EntityIntenseExplosion -->
<g id="node11" class="node">
<title>rwrp.EntityIntenseExplosion</title>
<g id="a_node11"><a xlink:href="rwrp.EntityIntenseExplosion.svg" xlink:title="rwrp.EntityIntenseExplosion">
<ellipse fill="green" stroke="black" cx="2265.69" cy="-378" rx="144.87" ry="18"/>
<text text-anchor="middle" x="2265.69" y="-374.3" font-family="Times,serif" font-size="14.00">rwrp.EntityIntenseExplosion</text>
</a>
</g>
</g>
<!-- rwrp.EntityIntenseExplosion&#45;&gt;rwrp.DestroyEntity -->
<g id="edge10" class="edge">
<title>rwrp.EntityIntenseExplosion&#45;&gt;rwrp.DestroyEntity</title>
<path fill="none" stroke="black" d="M2367.95,-365.21C2385.21,-363.37 2402.95,-361.56 2419.69,-360 3196.41,-287.77 4134.93,-225.45 4443.72,-205.59"/>
<polygon fill="black" stroke="black" points="4444.24,-209.07 4453.99,-204.93 4443.79,-202.08 4444.24,-209.07"/>
<text text-anchor="middle" x="2362.95" y="-354.01" font-family="Times,serif" font-size="14.00">1</text>
</g>
<!-- rwrp.EntityMessageBox -->
<g id="node12" class="node">
<title>rwrp.EntityMessageBox</title>
<g id="a_node12"><a xlink:href="rwrp.EntityMessageBox.svg" xlink:title="rwrp.EntityMessageBox">
<ellipse fill="green" stroke="black" cx="2551.69" cy="-378" rx="123.48" ry="18"/>
<text text-anchor="middle" x="2551.69" y="-374.3" font-family="Times,serif" font-size="14.00">rwrp.EntityMessageBox</text>
</a>
</g>
</g>
<!-- rwrp.EntityMessageBox&#45;&gt;rwrp.DestroyEntity -->
<g id="edge11" class="edge">
<title>rwrp.EntityMessageBox&#45;&gt;rwrp.DestroyEntity</title>
<path fill="none" stroke="black" d="M2638.97,-365.24C2653.87,-363.38 2669.22,-361.56 2683.69,-360 3354.41,-287.88 4163.66,-226.81 4445.24,-206.33"/>
<polygon fill="black" stroke="black" points="4445.71,-209.81 4455.43,-205.59 4445.21,-202.83 4445.71,-209.81"/>
<text text-anchor="middle" x="2633.97" y="-354.04" font-family="Times,serif" font-size="14.00">1</text>
</g>
<!-- rwrp.EntityPrizeDrop -->
<g id="node13" class="node">
<title>rwrp.EntityPrizeDrop</title>
<g id="a_node13"><a xlink:href="rwrp.EntityPrizeDrop.svg" xlink:title="rwrp.EntityPrizeDrop">
<ellipse fill="red" stroke="black" cx="2804.69" cy="-378" rx="111.58" ry="18"/>
<text text-anchor="middle" x="2804.69" y="-374.3" font-family="Times,serif" font-size="14.00">rwrp.EntityPrizeDrop</text>
</a>
</g>
</g>
<!-- rwrp.EntityPrizeDrop&#45;&gt;rwrp.DestroyEntity -->
<g id="edge12" class="edge">
<title>rwrp.EntityPrizeDrop&#45;&gt;rwrp.DestroyEntity</title>
<path fill="none" stroke="black" d="M2884.36,-365.34C2898.13,-363.46 2912.32,-361.6 2925.69,-360 3501.08,-291.05 4193.85,-229.39 4448,-207.47"/>
<polygon fill="black" stroke="black" points="4448.66,-210.93 4458.32,-206.59 4448.06,-203.96 4448.66,-210.93"/>
<text text-anchor="middle" x="2879.36" y="-354.14" font-family="Times,serif" font-size="14.00">2</text>
</g>
<!-- rwrp.EntityRelicOrb -->
<g id="node14" class="node">
<title>rwrp.EntityRelicOrb</title>
<g id="a_node14"><a xlink:href="rwrp.EntityRelicOrb.svg" xlink:title="rwrp.EntityRelicOrb">
<ellipse fill="green" stroke="black" cx="3039.69" cy="-378" rx="105.08" ry="18"/>
<text text-anchor="middle" x="3039.69" y="-374.3" font-family="Times,serif" font-size="14.00">rwrp.EntityRelicOrb</text>
</a>
</g>
</g>
<!-- rwrp.EntityRelicOrb&#45;&gt;rwrp.DestroyEntity -->
<g id="edge13" class="edge">
<title>rwrp.EntityRelicOrb&#45;&gt;rwrp.DestroyEntity</title>
<path fill="none" stroke="black" d="M3115.07,-365.4C3127.94,-363.52 3141.19,-361.65 3153.69,-360 3641.31,-295.5 4226.85,-232.6 4452.56,-208.89"/>
<polygon fill="black" stroke="black" points="4453.13,-212.35 4462.71,-207.83 4452.4,-205.39 4453.13,-212.35"/>
<text text-anchor="middle" x="3110.07" y="-354.2" font-family="Times,serif" font-size="14.00">1</text>
</g>
<!-- rwrp.EntitySoulStealOrb -->
<g id="node15" class="node">
<title>rwrp.EntitySoulStealOrb</title>
<g id="a_node15"><a xlink:href="rwrp.EntitySoulStealOrb.svg" xlink:title="rwrp.EntitySoulStealOrb">
<ellipse fill="green" stroke="black" cx="3289.69" cy="-378" rx="126.98" ry="18"/>
<text text-anchor="middle" x="3289.69" y="-374.3" font-family="Times,serif" font-size="14.00">rwrp.EntitySoulStealOrb</text>
</a>
</g>
</g>
<!-- rwrp.EntitySoulStealOrb&#45;&gt;rwrp.DestroyEntity -->
<g id="edge14" class="edge">
<title>rwrp.EntitySoulStealOrb&#45;&gt;rwrp.DestroyEntity</title>
<path fill="none" stroke="black" d="M3376.16,-364.77C3606.17,-332.22 4231.14,-243.79 4461.19,-211.24"/>
<polygon fill="black" stroke="black" points="4461.77,-214.69 4471.18,-209.83 4460.79,-207.76 4461.77,-214.69"/>
<text text-anchor="middle" x="3371.16" y="-353.57" font-family="Times,serif" font-size="14.00">1</text>
</g>
<!-- rwrp.ReplaceBreakableWithItemDrop -->
<g id="node16" class="node">
<title>rwrp.ReplaceBreakableWithItemDrop</title>
<g id="a_node16"><a xlink:href="rwrp.ReplaceBreakableWithItemDrop.svg" xlink:title="rwrp.ReplaceBreakableWithItemDrop">
<ellipse fill="green" stroke="black" cx="3620.69" cy="-378" rx="185.77" ry="18"/>
<text text-anchor="middle" x="3620.69" y="-374.3" font-family="Times,serif" font-size="14.00">rwrp.ReplaceBreakableWithItemDrop</text>
</a>
</g>
</g>
<!-- rwrp.ReplaceBreakableWithItemDrop&#45;&gt;rwrp.DestroyEntity -->
<g id="edge15" class="edge">
<title>rwrp.ReplaceBreakableWithItemDrop&#45;&gt;rwrp.DestroyEntity</title>
<path fill="none" stroke="black" d="M3700.53,-361.67C3877.07,-327.77 4298.62,-246.83 4471.62,-213.61"/>
<polygon fill="black" stroke="black" points="4472.5,-217 4481.66,-211.68 4471.18,-210.13 4472.5,-217"/>
<text text-anchor="middle" x="3695.53" y="-350.47" font-family="Times,serif" font-size="14.00">1</text>
</g>
<!-- rwrp.TestCollisions -->
<g id="node17" class="node">
<title>rwrp.TestCollisions</title>
<g id="a_node17"><a xlink:href="rwrp.TestCollisions.svg" xlink:title="rwrp.TestCollisions">
<ellipse fill="red" stroke="black" cx="3925.69" cy="-378" rx="100.98" ry="18"/>
<text text-anchor="middle" x="3925.69" y="-374.3" font-family="Times,serif" font-size="14.00">rwrp.TestCollisions</text>
</a>
</g>
</g>
<!-- rwrp.TestCollisions&#45;&gt;rwrp.DestroyEntity -->
<g id="edge16" class="edge">
<title>rwrp.TestCollisions&#45;&gt;rwrp.DestroyEntity</title>
<path fill="none" stroke="black" d="M3976.59,-362.43C4090.18,-329.93 4363.97,-251.58 4486.55,-216.5"/>
<polygon fill="black" stroke="black" points="4487.87,-219.76 4496.52,-213.64 4485.95,-213.03 4487.87,-219.76"/>
<text text-anchor="middle" x="3971.59" y="-351.23" font-family="Times,serif" font-size="14.00">1</text>
</g>
<!-- rwrp.Update -->
<g id="node18" class="node">
<title>rwrp.Update</title>
<g id="a_node18"><a xlink:href="rwrp.Update.svg" xlink:title="rwrp.Update">
<ellipse fill="green" stroke="black" cx="4114.69" cy="-378" rx="70.39" ry="18"/>
<text text-anchor="middle" x="4114.69" y="-374.3" font-family="Times,serif" font-size="14.00">rwrp.Update</text>
</a>
</g>
</g>
<!-- rwrp.Update&#45;&gt;rwrp.DestroyEntity -->
<g id="edge17" class="edge">
<title>rwrp.Update&#45;&gt;rwrp.DestroyEntity</title>
<path fill="none" stroke="black" d="M4150.13,-362.43C4227.61,-330.58 4412.17,-254.71 4499.85,-218.67"/>
<polygon fill="black" stroke="black" points="4501.38,-221.82 4509.3,-214.78 4498.72,-215.35 4501.38,-221.82"/>
<text text-anchor="middle" x="4145.13" y="-351.23" font-family="Times,serif" font-size="14.00">1</text>
</g>
<!-- rwrp.func_80189E9C -->
<g id="node19" class="node">
<title>rwrp.func_80189E9C</title>
<g id="a_node19"><a xlink:href="rwrp.func_80189E9C.svg" xlink:title="rwrp.func_80189E9C">
<ellipse fill="red" stroke="black" cx="4311.69" cy="-378" rx="109.38" ry="18"/>
<text text-anchor="middle" x="4311.69" y="-374.3" font-family="Times,serif" font-size="14.00">rwrp.func_80189E9C</text>
</a>
</g>
</g>
<!-- rwrp.func_80189E9C&#45;&gt;rwrp.DestroyEntity -->
<g id="edge18" class="edge">
<title>rwrp.func_80189E9C&#45;&gt;rwrp.DestroyEntity</title>
<path fill="none" stroke="black" d="M4333.89,-360.25C4376.33,-328.25 4468.99,-258.36 4517.2,-222"/>
<polygon fill="black" stroke="black" points="4519.5,-224.65 4525.38,-215.83 4515.29,-219.06 4519.5,-224.65"/>
<text text-anchor="middle" x="4328.89" y="-349.05" font-family="Times,serif" font-size="14.00">1</text>
</g>
<!-- rwrp.func_8018B6B4 -->
<g id="node20" class="node">
<title>rwrp.func_8018B6B4</title>
<g id="a_node20"><a xlink:href="rwrp.func_8018B6B4.svg" xlink:title="rwrp.func_8018B6B4">
<ellipse fill="red" stroke="black" cx="4547.69" cy="-378" rx="109.38" ry="18"/>
<text text-anchor="middle" x="4547.69" y="-374.3" font-family="Times,serif" font-size="14.00">rwrp.func_8018B6B4</text>
</a>
</g>
</g>
<!-- rwrp.func_8018B6B4&#45;&gt;rwrp.DestroyEntity -->
<g id="edge19" class="edge">
<title>rwrp.func_8018B6B4&#45;&gt;rwrp.DestroyEntity</title>
<path fill="none" stroke="black" d="M4547.69,-359.93C4547.69,-328.97 4547.69,-263.3 4547.69,-226.13"/>
<polygon fill="black" stroke="black" points="4551.19,-226.02 4547.69,-216.02 4544.19,-226.02 4551.19,-226.02"/>
<text text-anchor="middle" x="4542.69" y="-348.73" font-family="Times,serif" font-size="14.00">1</text>
</g>
<!-- rwrp.func_8018BD58 -->
<g id="node21" class="node">
<title>rwrp.func_8018BD58</title>
<g id="a_node21"><a xlink:href="rwrp.func_8018BD58.svg" xlink:title="rwrp.func_8018BD58">
<ellipse fill="green" stroke="black" cx="4784.69" cy="-378" rx="109.68" ry="18"/>
<text text-anchor="middle" x="4784.69" y="-374.3" font-family="Times,serif" font-size="14.00">rwrp.func_8018BD58</text>
</a>
</g>
</g>
<!-- rwrp.func_8018BD58&#45;&gt;rwrp.DestroyEntity -->
<g id="edge20" class="edge">
<title>rwrp.func_8018BD58&#45;&gt;rwrp.DestroyEntity</title>
<path fill="none" stroke="black" d="M4762.4,-360.25C4719.68,-328.17 4626.25,-258 4577.95,-221.72"/>
<polygon fill="black" stroke="black" points="4579.85,-218.78 4569.76,-215.57 4575.65,-224.38 4579.85,-218.78"/>
<text text-anchor="middle" x="4757.4" y="-349.05" font-family="Times,serif" font-size="14.00">1</text>
</g>
<!-- rwrp.func_8018C7E0 -->
<g id="node22" class="node">
<title>rwrp.func_8018C7E0</title>
<g id="a_node22"><a xlink:href="rwrp.func_8018C7E0.svg" xlink:title="rwrp.func_8018C7E0">
<ellipse fill="red" stroke="black" cx="5021.69" cy="-378" rx="109.38" ry="18"/>
<text text-anchor="middle" x="5021.69" y="-374.3" font-family="Times,serif" font-size="14.00">rwrp.func_8018C7E0</text>
</a>
</g>
</g>
<!-- rwrp.func_8018C7E0&#45;&gt;rwrp.DestroyEntity -->
<g id="edge21" class="edge">
<title>rwrp.func_8018C7E0&#45;&gt;rwrp.DestroyEntity</title>
<path fill="none" stroke="black" d="M4980.04,-361.36C4893.21,-328.75 4693.06,-253.59 4598.69,-218.15"/>
<polygon fill="black" stroke="black" points="4599.67,-214.78 4589.08,-214.54 4597.21,-221.33 4599.67,-214.78"/>
<text text-anchor="middle" x="4975.04" y="-350.16" font-family="Times,serif" font-size="14.00">1</text>
</g>
<!-- rwrp.func_8018C948 -->
<g id="node23" class="node">
<title>rwrp.func_8018C948</title>
<g id="a_node23"><a xlink:href="rwrp.func_8018C948.svg" xlink:title="rwrp.func_8018C948">
<ellipse fill="red" stroke="black" cx="5257.69" cy="-378" rx="108.58" ry="18"/>
<text text-anchor="middle" x="5257.69" y="-374.3" font-family="Times,serif" font-size="14.00">rwrp.func_8018C948</text>
</a>
</g>
</g>
<!-- rwrp.func_8018C948&#45;&gt;rwrp.DestroyEntity -->
<g id="edge22" class="edge">
<title>rwrp.func_8018C948&#45;&gt;rwrp.DestroyEntity</title>
<path fill="none" stroke="black" d="M5200.49,-362.66C5070.26,-330.01 4752.27,-250.29 4613.87,-215.59"/>
<polygon fill="black" stroke="black" points="4614.37,-212.11 4603.82,-213.07 4612.67,-218.9 4614.37,-212.11"/>
<text text-anchor="middle" x="5195.49" y="-351.46" font-family="Times,serif" font-size="14.00">1</text>
</g>
<!-- rwrp.func_8018D5EC -->
<g id="node24" class="node">
<title>rwrp.func_8018D5EC</title>
<g id="a_node24"><a xlink:href="rwrp.func_8018D5EC.svg" xlink:title="rwrp.func_8018D5EC">
<ellipse fill="red" stroke="black" cx="5494.69" cy="-378" rx="110.48" ry="18"/>
<text text-anchor="middle" x="5494.69" y="-374.3" font-family="Times,serif" font-size="14.00">rwrp.func_8018D5EC</text>
</a>
</g>
</g>
<!-- rwrp.func_8018D5EC&#45;&gt;rwrp.DestroyEntity -->
<g id="edge23" class="edge">
<title>rwrp.func_8018D5EC&#45;&gt;rwrp.DestroyEntity</title>
<path fill="none" stroke="black" d="M5425.06,-363.91C5252.23,-331.43 4804.66,-247.3 4624.5,-213.44"/>
<polygon fill="black" stroke="black" points="4625.04,-209.98 4614.57,-211.57 4623.75,-216.86 4625.04,-209.98"/>
<text text-anchor="middle" x="5420.06" y="-352.71" font-family="Times,serif" font-size="14.00">1</text>
</g>
<!-- rwrp.func_8018DDF0 -->
<g id="node25" class="node">
<title>rwrp.func_8018DDF0</title>
<g id="a_node25"><a xlink:href="rwrp.func_8018DDF0.svg" xlink:title="rwrp.func_8018DDF0">
<ellipse fill="red" stroke="black" cx="5733.69" cy="-378" rx="110.48" ry="18"/>
<text text-anchor="middle" x="5733.69" y="-374.3" font-family="Times,serif" font-size="14.00">rwrp.func_8018DDF0</text>
</a>
</g>
</g>
<!-- rwrp.func_8018DDF0&#45;&gt;rwrp.DestroyEntity -->
<g id="edge24" class="edge">
<title>rwrp.func_8018DDF0&#45;&gt;rwrp.DestroyEntity</title>
<path fill="none" stroke="black" d="M5655.42,-365.25C5442.34,-333.27 4853.16,-244.85 4632.55,-211.74"/>
<polygon fill="black" stroke="black" points="4633.05,-208.27 4622.64,-210.25 4632.01,-215.19 4633.05,-208.27"/>
<text text-anchor="middle" x="5650.42" y="-354.05" font-family="Times,serif" font-size="14.00">1</text>
</g>
<!-- rwrp.func_8018E1FC -->
<g id="node26" class="node">
<title>rwrp.func_8018E1FC</title>
<g id="a_node26"><a xlink:href="rwrp.func_8018E1FC.svg" xlink:title="rwrp.func_8018E1FC">
<ellipse fill="red" stroke="black" cx="5971.69" cy="-378" rx="109.68" ry="18"/>
<text text-anchor="middle" x="5971.69" y="-374.3" font-family="Times,serif" font-size="14.00">rwrp.func_8018E1FC</text>
</a>
</g>
</g>
<!-- rwrp.func_8018E1FC&#45;&gt;rwrp.DestroyEntity -->
<g id="edge25" class="edge">
<title>rwrp.func_8018E1FC&#45;&gt;rwrp.DestroyEntity</title>
<path fill="none" stroke="black" d="M5892.67,-365.49C5879.33,-363.61 5865.62,-361.72 5852.69,-360 5398.23,-299.51 4853.65,-234.84 4640.06,-209.78"/>
<polygon fill="black" stroke="black" points="4640.17,-206.27 4629.83,-208.58 4639.36,-213.22 4640.17,-206.27"/>
<text text-anchor="middle" x="5887.67" y="-354.29" font-family="Times,serif" font-size="14.00">1</text>
</g>
<!-- rwrp.func_8018EC10 -->
<g id="node27" class="node">
<title>rwrp.func_8018EC10</title>
<g id="a_node27"><a xlink:href="rwrp.func_8018EC10.svg" xlink:title="rwrp.func_8018EC10">
<ellipse fill="red" stroke="black" cx="6208.69" cy="-378" rx="109.38" ry="18"/>
<text text-anchor="middle" x="6208.69" y="-374.3" font-family="Times,serif" font-size="14.00">rwrp.func_8018EC10</text>
</a>
</g>
</g>
<!-- rwrp.func_8018EC10&#45;&gt;rwrp.DestroyEntity -->
<g id="edge26" class="edge">
<title>rwrp.func_8018EC10&#45;&gt;rwrp.DestroyEntity</title>
<path fill="none" stroke="black" d="M6130.68,-365.32C6117.35,-363.45 6103.63,-361.61 6090.69,-360 5545.91,-292.36 4890.5,-230.37 4645.97,-207.91"/>
<polygon fill="black" stroke="black" points="4645.96,-204.39 4635.69,-206.97 4645.32,-211.36 4645.96,-204.39"/>
<text text-anchor="middle" x="6125.68" y="-354.12" font-family="Times,serif" font-size="14.00">1</text>
</g>
<!-- rwrp.func_8018EE84 -->
<g id="node28" class="node">
<title>rwrp.func_8018EE84</title>
<g id="a_node28"><a xlink:href="rwrp.func_8018EE84.svg" xlink:title="rwrp.func_8018EE84">
<ellipse fill="red" stroke="black" cx="6444.69" cy="-378" rx="109.38" ry="18"/>
<text text-anchor="middle" x="6444.69" y="-374.3" font-family="Times,serif" font-size="14.00">rwrp.func_8018EE84</text>
</a>
</g>
</g>
<!-- rwrp.func_8018EE84&#45;&gt;rwrp.DestroyEntity -->
<g id="edge27" class="edge">
<title>rwrp.func_8018EE84&#45;&gt;rwrp.DestroyEntity</title>
<path fill="none" stroke="black" d="M6367.33,-365.26C6353.8,-363.38 6339.85,-361.54 6326.69,-360 5690.75,-285.47 4923.41,-226.43 4650.29,-206.38"/>
<polygon fill="black" stroke="black" points="4650.23,-202.86 4640,-205.62 4649.72,-209.85 4650.23,-202.86"/>
<text text-anchor="middle" x="6362.33" y="-354.06" font-family="Times,serif" font-size="14.00">1</text>
</g>
<!-- rwrp.func_8018F814 -->
<g id="node29" class="node">
<title>rwrp.func_8018F814</title>
<g id="a_node29"><a xlink:href="rwrp.func_8018F814.svg" xlink:title="rwrp.func_8018F814">
<ellipse fill="red" stroke="black" cx="6679.69" cy="-378" rx="107.78" ry="18"/>
<text text-anchor="middle" x="6679.69" y="-374.3" font-family="Times,serif" font-size="14.00">rwrp.func_8018F814</text>
</a>
</g>
</g>
<!-- rwrp.func_8018F814&#45;&gt;rwrp.DestroyEntity -->
<g id="edge28" class="edge">
<title>rwrp.func_8018F814&#45;&gt;rwrp.DestroyEntity</title>
<path fill="none" stroke="black" d="M6603.63,-365.22C6590.02,-363.32 6575.95,-361.49 6562.69,-360 5833.96,-278.03 4952.36,-222.61 4652.98,-205.01"/>
<polygon fill="black" stroke="black" points="4652.76,-201.49 4642.58,-204.4 4652.35,-208.48 4652.76,-201.49"/>
<text text-anchor="middle" x="6598.63" y="-354.02" font-family="Times,serif" font-size="14.00">1</text>
</g>
<!-- rwrp.func_80191490 -->
<g id="node30" class="node">
<title>rwrp.func_80191490</title>
<g id="a_node30"><a xlink:href="rwrp.func_80191490.svg" xlink:title="rwrp.func_80191490">
<ellipse fill="red" stroke="black" cx="6912.69" cy="-378" rx="107.48" ry="18"/>
<text text-anchor="middle" x="6912.69" y="-374.3" font-family="Times,serif" font-size="14.00">rwrp.func_80191490</text>
</a>
</g>
</g>
<!-- rwrp.func_80191490&#45;&gt;rwrp.DestroyEntity -->
<g id="edge29" class="edge">
<title>rwrp.func_80191490&#45;&gt;rwrp.DestroyEntity</title>
<path fill="none" stroke="black" d="M6837.29,-365.12C6823.8,-363.23 6809.84,-361.43 6796.69,-360 5975.02,-270.51 4978.83,-219.11 4654.96,-203.85"/>
<polygon fill="black" stroke="black" points="4654.8,-200.34 4644.64,-203.37 4654.47,-207.33 4654.8,-200.34"/>
<text text-anchor="middle" x="6832.29" y="-353.92" font-family="Times,serif" font-size="14.00">1</text>
</g>
<!-- rwrp.func_801917B8 -->
<g id="node31" class="node">
<title>rwrp.func_801917B8</title>
<g id="a_node31"><a xlink:href="rwrp.func_801917B8.svg" xlink:title="rwrp.func_801917B8">
<ellipse fill="red" stroke="black" cx="7146.69" cy="-378" rx="108.58" ry="18"/>
<text text-anchor="middle" x="7146.69" y="-374.3" font-family="Times,serif" font-size="14.00">rwrp.func_801917B8</text>
</a>
</g>
</g>
<!-- rwrp.func_801917B8&#45;&gt;rwrp.DestroyEntity -->
<g id="edge30" class="edge">
<title>rwrp.func_801917B8&#45;&gt;rwrp.DestroyEntity</title>
<path fill="none" stroke="black" d="M7070.63,-365.15C7056.7,-363.23 7042.28,-361.42 7028.69,-360 6113.37,-264.51 5001.78,-216.4 4655.75,-202.99"/>
<polygon fill="black" stroke="black" points="4655.86,-199.49 4645.74,-202.6 4655.59,-206.48 4655.86,-199.49"/>
<text text-anchor="middle" x="7065.63" y="-353.95" font-family="Times,serif" font-size="14.00">1</text>
</g>
<!-- rwrp.func_801918A8 -->
<g id="node32" class="node">
<title>rwrp.func_801918A8</title>
<g id="a_node32"><a xlink:href="rwrp.func_801918A8.svg" xlink:title="rwrp.func_801918A8">
<ellipse fill="red" stroke="black" cx="7380.69" cy="-378" rx="107.78" ry="18"/>
<text text-anchor="middle" x="7380.69" y="-374.3" font-family="Times,serif" font-size="14.00">rwrp.func_801918A8</text>
</a>
</g>
</g>
<!-- rwrp.func_801918A8&#45;&gt;rwrp.DestroyEntity -->
<g id="edge31" class="edge">
<title>rwrp.func_801918A8&#45;&gt;rwrp.DestroyEntity</title>
<path fill="none" stroke="black" d="M7305.62,-365.03C7292.02,-363.14 7277.95,-361.36 7264.69,-360 6254.42,-256.23 5025.43,-213.22 4657.06,-202.09"/>
<polygon fill="black" stroke="black" points="4657.04,-198.59 4646.94,-201.79 4656.83,-205.59 4657.04,-198.59"/>
<text text-anchor="middle" x="7300.62" y="-353.83" font-family="Times,serif" font-size="14.00">1</text>
</g>
<!-- rwrp.func_8019199C -->
<g id="node33" class="node">
<title>rwrp.func_8019199C</title>
<g id="a_node33"><a xlink:href="rwrp.func_8019199C.svg" xlink:title="rwrp.func_8019199C">
<ellipse fill="red" stroke="black" cx="7614.69" cy="-378" rx="108.58" ry="18"/>
<text text-anchor="middle" x="7614.69" y="-374.3" font-family="Times,serif" font-size="14.00">rwrp.func_8019199C</text>
</a>
</g>
</g>
<!-- rwrp.func_8019199C&#45;&gt;rwrp.DestroyEntity -->
<g id="edge32" class="edge">
<title>rwrp.func_8019199C&#45;&gt;rwrp.DestroyEntity</title>
<path fill="none" stroke="black" d="M7539.29,-365.03C7525.48,-363.13 7511.17,-361.34 7497.69,-360 6392.62,-249.79 5046.6,-210.84 4657.7,-201.44"/>
<polygon fill="black" stroke="black" points="4657.66,-197.94 4647.58,-201.2 4657.49,-204.94 4657.66,-197.94"/>
<text text-anchor="middle" x="7534.29" y="-353.83" font-family="Times,serif" font-size="14.00">1</text>
</g>
<!-- rwrp.func_80192348 -->
<g id="node34" class="node">
<title>rwrp.func_80192348</title>
<g id="a_node34"><a xlink:href="rwrp.func_80192348.svg" xlink:title="rwrp.func_80192348">
<ellipse fill="red" stroke="black" cx="7848.69" cy="-378" rx="107.48" ry="18"/>
<text text-anchor="middle" x="7848.69" y="-374.3" font-family="Times,serif" font-size="14.00">rwrp.func_80192348</text>
</a>
</g>
</g>
<!-- rwrp.func_80192348&#45;&gt;rwrp.DestroyEntity -->
<g id="edge33" class="edge">
<title>rwrp.func_80192348&#45;&gt;rwrp.DestroyEntity</title>
<path fill="none" stroke="black" d="M7774.25,-365.02C7760.46,-363.11 7746.16,-361.32 7732.69,-360 6531.58,-241.9 5066.62,-208.19 4658.06,-200.78"/>
<polygon fill="black" stroke="black" points="4658.08,-197.28 4648.02,-200.6 4657.96,-204.28 4658.08,-197.28"/>
<text text-anchor="middle" x="7769.25" y="-353.82" font-family="Times,serif" font-size="14.00">1</text>
</g>
<!-- rwrp.func_80192414 -->
<g id="node35" class="node">
<title>rwrp.func_80192414</title>
<g id="a_node35"><a xlink:href="rwrp.func_80192414.svg" xlink:title="rwrp.func_80192414">
<ellipse fill="red" stroke="black" cx="8080.69" cy="-378" rx="107.48" ry="18"/>
<text text-anchor="middle" x="8080.69" y="-374.3" font-family="Times,serif" font-size="14.00">rwrp.func_80192414</text>
</a>
</g>
</g>
<!-- rwrp.func_80192414&#45;&gt;rwrp.DestroyEntity -->
<g id="edge34" class="edge">
<title>rwrp.func_80192414&#45;&gt;rwrp.DestroyEntity</title>
<path fill="none" stroke="black" d="M8006.25,-364.98C7992.47,-363.07 7978.16,-361.3 7964.69,-360 6668.81,-234.82 5086.66,-205.97 4658.78,-200.26"/>
<polygon fill="black" stroke="black" points="4658.63,-196.76 4648.58,-200.13 4658.53,-203.76 4658.63,-196.76"/>
<text text-anchor="middle" x="8001.25" y="-353.78" font-family="Times,serif" font-size="14.00">1</text>
</g>
<!-- rwrp.func_80192594 -->
<g id="node36" class="node">
<title>rwrp.func_80192594</title>
<g id="a_node36"><a xlink:href="rwrp.func_80192594.svg" xlink:title="rwrp.func_80192594">
<ellipse fill="red" stroke="black" cx="8312.69" cy="-378" rx="107.48" ry="18"/>
<text text-anchor="middle" x="8312.69" y="-374.3" font-family="Times,serif" font-size="14.00">rwrp.func_80192594</text>
</a>
</g>
</g>
<!-- rwrp.func_80192594&#45;&gt;rwrp.DestroyEntity -->
<g id="edge35" class="edge">
<title>rwrp.func_80192594&#45;&gt;rwrp.DestroyEntity</title>
<path fill="none" stroke="black" d="M8238.26,-364.95C8224.47,-363.04 8210.17,-361.28 8196.69,-360 6805.43,-227.71 5105.2,-203.87 4659.11,-199.8"/>
<polygon fill="black" stroke="black" points="4658.84,-196.3 4648.8,-199.71 4658.77,-203.3 4658.84,-196.3"/>
<text text-anchor="middle" x="8233.26" y="-353.75" font-family="Times,serif" font-size="14.00">1</text>
</g>
<!-- rwrp.func_8019390C -->
<g id="node37" class="node">
<title>rwrp.func_8019390C</title>
<g id="a_node37"><a xlink:href="rwrp.func_8019390C.svg" xlink:title="rwrp.func_8019390C">
<ellipse fill="red" stroke="black" cx="8546.69" cy="-378" rx="108.58" ry="18"/>
<text text-anchor="middle" x="8546.69" y="-374.3" font-family="Times,serif" font-size="14.00">rwrp.func_8019390C</text>
</a>
</g>
</g>
<!-- rwrp.func_8019390C&#45;&gt;rwrp.DestroyEntity -->
<g id="edge36" class="edge">
<title>rwrp.func_8019390C&#45;&gt;rwrp.DestroyEntity</title>
<path fill="none" stroke="black" d="M8471.29,-364.97C8457.16,-363.05 8442.5,-361.28 8428.69,-360 6941.39,-222.37 5122.52,-202.38 4659.17,-199.49"/>
<polygon fill="black" stroke="black" points="4659.16,-195.99 4649.14,-199.42 4659.11,-202.99 4659.16,-195.99"/>
<text text-anchor="middle" x="8466.29" y="-353.77" font-family="Times,serif" font-size="14.00">1</text>
</g>
</g>
</svg>
