<?xml version="1.0" encoding="UTF-8" standalone="no"?>
<!DOCTYPE svg PUBLIC "-//W3C//DTD SVG 1.1//EN"
 "http://www.w3.org/Graphics/SVG/1.1/DTD/svg11.dtd">
<!-- Generated by graphviz version 2.43.0 (0)
 -->
<!-- Title: rwrp.func_80190D1C Pages: 1 -->
<svg width="478pt" height="224pt"
 viewBox="0.00 0.00 477.53 224.00" xmlns="http://www.w3.org/2000/svg" xmlns:xlink="http://www.w3.org/1999/xlink">
<g id="graph0" class="graph" transform="scale(1 1) rotate(0) translate(4 220)">
<title>rwrp.func_80190D1C</title>
<polygon fill="white" stroke="transparent" points="-4,4 -4,-220 473.53,-220 473.53,4 -4,4"/>
<!-- rwrp.func_80190D1C -->
<g id="node1" class="node">
<title>rwrp.func_80190D1C</title>
<ellipse fill="red" stroke="black" cx="223.39" cy="-198" rx="109.68" ry="18"/>
<text text-anchor="middle" x="223.39" y="-194.3" font-family="Times,serif" font-size="14.00">rwrp.func_80190D1C</text>
</g>
<!-- rwrp.DestroyEntity -->
<g id="node2" class="node">
<title>rwrp.DestroyEntity</title>
<g id="a_node2"><a xlink:href="rwrp.DestroyEntity.svg" xlink:title="rwrp.DestroyEntity">
<ellipse fill="red" stroke="black" cx="101.39" cy="-18" rx="101.28" ry="18"/>
<text text-anchor="middle" x="101.39" y="-14.3" font-family="Times,serif" font-size="14.00">rwrp.DestroyEntity</text>
</a>
</g>
</g>
<!-- rwrp.func_80190D1C&#45;&gt;rwrp.DestroyEntity -->
<g id="edge1" class="edge">
<title>rwrp.func_80190D1C&#45;&gt;rwrp.DestroyEntity</title>
<path fill="none" stroke="black" d="M211.69,-179.93C190.2,-148.57 144.3,-81.6 119.01,-44.71"/>
<polygon fill="black" stroke="black" points="121.59,-42.29 113.05,-36.02 115.82,-46.24 121.59,-42.29"/>
<text text-anchor="middle" x="108.05" y="-39.82" font-family="Times,serif" font-size="14.00">1</text>
</g>
<!-- UnknownEntityFunction -->
<g id="node3" class="node">
<title>UnknownEntityFunction</title>
<g id="a_node3"><a xlink:href="UnknownEntityFunction.svg" xlink:title="UnknownEntityFunction">
<ellipse fill="lightblue" stroke="black" cx="345.39" cy="-18" rx="124.28" ry="18"/>
<text text-anchor="middle" x="345.39" y="-14.3" font-family="Times,serif" font-size="14.00">UnknownEntityFunction</text>
</a>
</g>
</g>
<!-- rwrp.func_80190D1C&#45;&gt;UnknownEntityFunction -->
<g id="edge2" class="edge">
<title>rwrp.func_80190D1C&#45;&gt;UnknownEntityFunction</title>
<path fill="none" stroke="black" d="M235.09,-179.93C256.59,-148.57 302.48,-81.6 327.77,-44.71"/>
<polygon fill="black" stroke="black" points="330.96,-46.24 333.73,-36.02 325.19,-42.29 330.96,-46.24"/>
<text text-anchor="middle" x="328.73" y="-39.82" font-family="Times,serif" font-size="14.00">1</text>
</g>
</g>
</svg>
