<?xml version="1.0" encoding="UTF-8" standalone="no"?>
<!DOCTYPE svg PUBLIC "-//W3C//DTD SVG 1.1//EN"
 "http://www.w3.org/Graphics/SVG/1.1/DTD/svg11.dtd">
<!-- Generated by graphviz version 2.43.0 (0)
 -->
<!-- Title: rwrp.func_80192594 Pages: 1 -->
<svg width="1030pt" height="224pt"
 viewBox="0.00 0.00 1029.68 224.00" xmlns="http://www.w3.org/2000/svg" xmlns:xlink="http://www.w3.org/1999/xlink">
<g id="graph0" class="graph" transform="scale(1 1) rotate(0) translate(4 220)">
<title>rwrp.func_80192594</title>
<polygon fill="white" stroke="transparent" points="-4,4 -4,-220 1025.68,-220 1025.68,4 -4,4"/>
<!-- rwrp.func_80192594 -->
<g id="node1" class="node">
<title>rwrp.func_80192594</title>
<ellipse fill="red" stroke="black" cx="403.29" cy="-198" rx="107.48" ry="18"/>
<text text-anchor="middle" x="403.29" y="-194.3" font-family="Times,serif" font-size="14.00">rwrp.func_80192594</text>
</g>
<!-- rwrp.InitializeEntity -->
<g id="node2" class="node">
<title>rwrp.InitializeEntity</title>
<g id="a_node2"><a xlink:href="rwrp.InitializeEntity.svg" xlink:title="rwrp.InitializeEntity">
<ellipse fill="red" stroke="black" cx="105.29" cy="-18" rx="105.08" ry="18"/>
<text text-anchor="middle" x="105.29" y="-14.3" font-family="Times,serif" font-size="14.00">rwrp.InitializeEntity</text>
</a>
</g>
</g>
<!-- rwrp.func_80192594&#45;&gt;rwrp.InitializeEntity -->
<g id="edge1" class="edge">
<title>rwrp.func_80192594&#45;&gt;rwrp.InitializeEntity</title>
<path fill="none" stroke="black" d="M375.79,-180.57C321.79,-148.32 201.92,-76.72 141.54,-40.65"/>
<polygon fill="black" stroke="black" points="143.11,-37.51 132.73,-35.39 139.52,-43.52 143.11,-37.51"/>
<text text-anchor="middle" x="127.73" y="-39.19" font-family="Times,serif" font-size="14.00">1</text>
</g>
<!-- rsin -->
<g id="node3" class="node">
<title>rsin</title>
<g id="a_node3"><a xlink:href="rsin.svg" xlink:title="rsin">
<ellipse fill="lightblue" stroke="black" cx="257.29" cy="-18" rx="28.7" ry="18"/>
<text text-anchor="middle" x="257.29" y="-14.3" font-family="Times,serif" font-size="14.00">rsin</text>
</a>
</g>
</g>
<!-- rwrp.func_80192594&#45;&gt;rsin -->
<g id="edge2" class="edge">
<title>rwrp.func_80192594&#45;&gt;rsin</title>
<path fill="none" stroke="black" d="M389.29,-179.93C362.99,-147.87 306.18,-78.61 276.4,-42.29"/>
<polygon fill="black" stroke="black" points="278.83,-39.74 269.78,-34.23 273.42,-44.18 278.83,-39.74"/>
<text text-anchor="middle" x="264.78" y="-38.03" font-family="Times,serif" font-size="14.00">1</text>
</g>
<!-- rcos -->
<g id="node4" class="node">
<title>rcos</title>
<g id="a_node4"><a xlink:href="rcos.svg" xlink:title="rcos">
<ellipse fill="lightblue" stroke="black" cx="334.29" cy="-18" rx="30.59" ry="18"/>
<text text-anchor="middle" x="334.29" y="-14.3" font-family="Times,serif" font-size="14.00">rcos</text>
</a>
</g>
</g>
<!-- rwrp.func_80192594&#45;&gt;rcos -->
<g id="edge3" class="edge">
<title>rwrp.func_80192594&#45;&gt;rcos</title>
<path fill="none" stroke="black" d="M396.67,-179.93C384.59,-148.75 358.87,-82.4 344.51,-45.37"/>
<polygon fill="black" stroke="black" points="347.66,-43.81 340.79,-35.76 341.14,-46.34 347.66,-43.81"/>
<text text-anchor="middle" x="335.79" y="-39.56" font-family="Times,serif" font-size="14.00">1</text>
</g>
<!-- rwrp.MoveEntity -->
<g id="node5" class="node">
<title>rwrp.MoveEntity</title>
<g id="a_node5"><a xlink:href="rwrp.MoveEntity.svg" xlink:title="rwrp.MoveEntity">
<ellipse fill="green" stroke="black" cx="473.29" cy="-18" rx="90.18" ry="18"/>
<text text-anchor="middle" x="473.29" y="-14.3" font-family="Times,serif" font-size="14.00">rwrp.MoveEntity</text>
</a>
</g>
</g>
<!-- rwrp.func_80192594&#45;&gt;rwrp.MoveEntity -->
<g id="edge4" class="edge">
<title>rwrp.func_80192594&#45;&gt;rwrp.MoveEntity</title>
<path fill="none" stroke="black" d="M410,-179.93C422.23,-148.83 448.23,-82.73 462.81,-45.65"/>
<polygon fill="black" stroke="black" points="466.2,-46.6 466.6,-36.02 459.68,-44.04 466.2,-46.6"/>
<text text-anchor="middle" x="461.6" y="-39.82" font-family="Times,serif" font-size="14.00">1</text>
</g>
<!-- rwrp.func_8018D6B0 -->
<g id="node6" class="node">
<title>rwrp.func_8018D6B0</title>
<g id="a_node6"><a xlink:href="rwrp.func_8018D6B0.svg" xlink:title="rwrp.func_8018D6B0">
<ellipse fill="red" stroke="black" cx="691.29" cy="-18" rx="109.68" ry="18"/>
<text text-anchor="middle" x="691.29" y="-14.3" font-family="Times,serif" font-size="14.00">rwrp.func_8018D6B0</text>
</a>
</g>
</g>
<!-- rwrp.func_80192594&#45;&gt;rwrp.func_8018D6B0 -->
<g id="edge5" class="edge">
<title>rwrp.func_80192594&#45;&gt;rwrp.func_8018D6B0</title>
<path fill="none" stroke="black" d="M430.13,-180.41C482.33,-148.15 597.52,-76.96 655.89,-40.88"/>
<polygon fill="black" stroke="black" points="657.75,-43.84 664.42,-35.61 654.07,-37.89 657.75,-43.84"/>
<text text-anchor="middle" x="659.42" y="-39.41" font-family="Times,serif" font-size="14.00">1</text>
</g>
<!-- rwrp.DestroyEntity -->
<g id="node7" class="node">
<title>rwrp.DestroyEntity</title>
<g id="a_node7"><a xlink:href="rwrp.DestroyEntity.svg" xlink:title="rwrp.DestroyEntity">
<ellipse fill="red" stroke="black" cx="920.29" cy="-18" rx="101.28" ry="18"/>
<text text-anchor="middle" x="920.29" y="-14.3" font-family="Times,serif" font-size="14.00">rwrp.DestroyEntity</text>
</a>
</g>
</g>
<!-- rwrp.func_80192594&#45;&gt;rwrp.DestroyEntity -->
<g id="edge6" class="edge">
<title>rwrp.func_80192594&#45;&gt;rwrp.DestroyEntity</title>
<path fill="none" stroke="black" d="M448.27,-181.52C543.23,-148.82 763.83,-72.87 866.25,-37.61"/>
<polygon fill="black" stroke="black" points="867.47,-40.89 875.79,-34.32 865.19,-34.27 867.47,-40.89"/>
<text text-anchor="middle" x="870.79" y="-38.12" font-family="Times,serif" font-size="14.00">1</text>
</g>
</g>
</svg>
