<?xml version="1.0" encoding="UTF-8" standalone="no"?>
<!DOCTYPE svg PUBLIC "-//W3C//DTD SVG 1.1//EN"
 "http://www.w3.org/Graphics/SVG/1.1/DTD/svg11.dtd">
<!-- Generated by graphviz version 2.43.0 (0)
 -->
<!-- Title: rwrp.func_8019390C Pages: 1 -->
<svg width="1183pt" height="131pt"
 viewBox="0.00 0.00 1182.59 131.00" xmlns="http://www.w3.org/2000/svg" xmlns:xlink="http://www.w3.org/1999/xlink">
<g id="graph0" class="graph" transform="scale(1 1) rotate(0) translate(4 127)">
<title>rwrp.func_8019390C</title>
<polygon fill="white" stroke="transparent" points="-4,4 -4,-127 1178.59,-127 1178.59,4 -4,4"/>
<!-- rwrp.func_8019390C -->
<g id="node1" class="node">
<title>rwrp.func_8019390C</title>
<ellipse fill="red" stroke="black" cx="626.54" cy="-105" rx="108.58" ry="18"/>
<text text-anchor="middle" x="626.54" y="-101.3" font-family="Times,serif" font-size="14.00">rwrp.func_8019390C</text>
</g>
<!-- rwrp.func_8018E290 -->
<g id="node2" class="node">
<title>rwrp.func_8018E290</title>
<g id="a_node2"><a xlink:href="rwrp.func_8018E290.svg" xlink:title="rwrp.func_8018E290">
<ellipse fill="red" stroke="black" cx="108.54" cy="-18" rx="108.58" ry="18"/>
<text text-anchor="middle" x="108.54" y="-14.3" font-family="Times,serif" font-size="14.00">rwrp.func_8018E290</text>
</a>
</g>
</g>
<!-- rwrp.func_8019390C&#45;&gt;rwrp.func_8018E290 -->
<g id="edge1" class="edge">
<title>rwrp.func_8019390C&#45;&gt;rwrp.func_8018E290</title>
<path fill="none" stroke="black" d="M552.32,-91.82C457.26,-76.22 292.88,-49.25 193.09,-32.87"/>
<polygon fill="black" stroke="black" points="193.47,-29.39 183.04,-31.22 192.34,-36.3 193.47,-29.39"/>
<text text-anchor="middle" x="404.54" y="-57.8" font-family="Times,serif" font-size="14.00">1</text>
</g>
<!-- dra.AllocPrimitives -->
<g id="node3" class="node">
<title>dra.AllocPrimitives</title>
<g id="a_node3"><a xlink:href="dra.AllocPrimitives.svg" xlink:title="dra.AllocPrimitives">
<ellipse fill="green" stroke="black" cx="334.54" cy="-18" rx="99.38" ry="18"/>
<text text-anchor="middle" x="334.54" y="-14.3" font-family="Times,serif" font-size="14.00">dra.AllocPrimitives</text>
</a>
</g>
</g>
<!-- rwrp.func_8019390C&#45;&gt;dra.AllocPrimitives -->
<g id="edge2" class="edge">
<title>rwrp.func_8019390C&#45;&gt;dra.AllocPrimitives</title>
<path fill="none" stroke="black" d="M575.34,-89.1C524.84,-74.39 447.67,-51.93 394.36,-36.41"/>
<polygon fill="black" stroke="black" points="395.28,-33.04 384.7,-33.6 393.32,-39.76 395.28,-33.04"/>
<text text-anchor="middle" x="503.54" y="-57.8" font-family="Times,serif" font-size="14.00">1</text>
</g>
<!-- rwrp.Random -->
<g id="node4" class="node">
<title>rwrp.Random</title>
<g id="a_node4"><a xlink:href="rwrp.Random.svg" xlink:title="rwrp.Random">
<ellipse fill="green" stroke="black" cx="526.54" cy="-18" rx="74.19" ry="18"/>
<text text-anchor="middle" x="526.54" y="-14.3" font-family="Times,serif" font-size="14.00">rwrp.Random</text>
</a>
</g>
</g>
<!-- rwrp.func_8019390C&#45;&gt;rwrp.Random -->
<g id="edge3" class="edge">
<title>rwrp.func_8019390C&#45;&gt;rwrp.Random</title>
<path fill="none" stroke="black" d="M606.78,-87.21C591.62,-74.32 570.51,-56.38 553.75,-42.13"/>
<polygon fill="black" stroke="black" points="555.8,-39.28 545.92,-35.47 551.27,-44.61 555.8,-39.28"/>
<text text-anchor="middle" x="587.54" y="-57.8" font-family="Times,serif" font-size="14.00">4</text>
</g>
<!-- rwrp.func_8019373C -->
<g id="node5" class="node">
<title>rwrp.func_8019373C</title>
<g id="a_node5"><a xlink:href="rwrp.func_8019373C.svg" xlink:title="rwrp.func_8019373C">
<ellipse fill="red" stroke="black" cx="727.54" cy="-18" rx="108.58" ry="18"/>
<text text-anchor="middle" x="727.54" y="-14.3" font-family="Times,serif" font-size="14.00">rwrp.func_8019373C</text>
</a>
</g>
</g>
<!-- rwrp.func_8019390C&#45;&gt;rwrp.func_8019373C -->
<g id="edge4" class="edge">
<title>rwrp.func_8019390C&#45;&gt;rwrp.func_8019373C</title>
<path fill="none" stroke="black" d="M646.49,-87.21C661.71,-74.4 682.85,-56.61 699.73,-42.4"/>
<polygon fill="black" stroke="black" points="702.23,-44.88 707.63,-35.76 697.72,-39.52 702.23,-44.88"/>
<text text-anchor="middle" x="688.54" y="-57.8" font-family="Times,serif" font-size="14.00">2</text>
</g>
<!-- rwrp.DestroyEntity -->
<g id="node6" class="node">
<title>rwrp.DestroyEntity</title>
<g id="a_node6"><a xlink:href="rwrp.DestroyEntity.svg" xlink:title="rwrp.DestroyEntity">
<ellipse fill="red" stroke="black" cx="955.54" cy="-18" rx="101.28" ry="18"/>
<text text-anchor="middle" x="955.54" y="-14.3" font-family="Times,serif" font-size="14.00">rwrp.DestroyEntity</text>
</a>
</g>
</g>
<!-- rwrp.func_8019390C&#45;&gt;rwrp.DestroyEntity -->
<g id="edge5" class="edge">
<title>rwrp.func_8019390C&#45;&gt;rwrp.DestroyEntity</title>
<path fill="none" stroke="black" d="M682.72,-89.48C740.44,-74.57 830.19,-51.39 890.84,-35.72"/>
<polygon fill="black" stroke="black" points="891.88,-39.06 900.68,-33.17 890.13,-32.29 891.88,-39.06"/>
<text text-anchor="middle" x="816.54" y="-57.8" font-family="Times,serif" font-size="14.00">1</text>
</g>
<!-- FntPrint -->
<g id="node7" class="node">
<title>FntPrint</title>
<g id="a_node7"><a xlink:href="FntPrint.svg" xlink:title="FntPrint">
<ellipse fill="lightblue" stroke="black" cx="1124.54" cy="-18" rx="50.09" ry="18"/>
<text text-anchor="middle" x="1124.54" y="-14.3" font-family="Times,serif" font-size="14.00">FntPrint</text>
</a>
</g>
</g>
<!-- rwrp.func_8019390C&#45;&gt;FntPrint -->
<g id="edge6" class="edge">
<title>rwrp.func_8019390C&#45;&gt;FntPrint</title>
<path fill="none" stroke="black" d="M712.53,-93.96C801.47,-82.81 944.1,-62.79 1065.54,-36 1069.64,-35.1 1073.87,-34.07 1078.1,-32.98"/>
<polygon fill="black" stroke="black" points="1079.16,-36.32 1087.9,-30.34 1077.34,-29.56 1079.16,-36.32"/>
<text text-anchor="middle" x="975.54" y="-57.8" font-family="Times,serif" font-size="14.00">2</text>
</g>
</g>
</svg>
