<?xml version="1.0" encoding="UTF-8" standalone="no"?>
<!DOCTYPE svg PUBLIC "-//W3C//DTD SVG 1.1//EN"
 "http://www.w3.org/Graphics/SVG/1.1/DTD/svg11.dtd">
<!-- Generated by graphviz version 2.43.0 (0)
 -->
<!-- Title: rwrp.func_8018DDF0 Pages: 1 -->
<svg width="1391pt" height="404pt"
 viewBox="0.00 0.00 1390.63 404.00" xmlns="http://www.w3.org/2000/svg" xmlns:xlink="http://www.w3.org/1999/xlink">
<g id="graph0" class="graph" transform="scale(1 1) rotate(0) translate(4 400)">
<title>rwrp.func_8018DDF0</title>
<polygon fill="white" stroke="transparent" points="-4,4 -4,-400 1386.63,-400 1386.63,4 -4,4"/>
<!-- rwrp.func_8018DDF0 -->
<g id="node1" class="node">
<title>rwrp.func_8018DDF0</title>
<ellipse fill="red" stroke="black" cx="682.84" cy="-198" rx="110.48" ry="18"/>
<text text-anchor="middle" x="682.84" y="-194.3" font-family="Times,serif" font-size="14.00">rwrp.func_8018DDF0</text>
</g>
<!-- rwrp.DestroyEntity -->
<g id="node2" class="node">
<title>rwrp.DestroyEntity</title>
<g id="a_node2"><a xlink:href="rwrp.DestroyEntity.svg" xlink:title="rwrp.DestroyEntity">
<ellipse fill="red" stroke="black" cx="682.84" cy="-18" rx="101.28" ry="18"/>
<text text-anchor="middle" x="682.84" y="-14.3" font-family="Times,serif" font-size="14.00">rwrp.DestroyEntity</text>
</a>
</g>
</g>
<!-- rwrp.func_8018DDF0&#45;&gt;rwrp.DestroyEntity -->
<g id="edge1" class="edge">
<title>rwrp.func_8018DDF0&#45;&gt;rwrp.DestroyEntity</title>
<path fill="none" stroke="black" d="M682.84,-179.93C682.84,-148.97 682.84,-83.3 682.84,-46.13"/>
<polygon fill="black" stroke="black" points="686.34,-46.02 682.84,-36.02 679.34,-46.02 686.34,-46.02"/>
<text text-anchor="middle" x="677.84" y="-39.82" font-family="Times,serif" font-size="14.00">1</text>
</g>
<!-- rwrp.func_801924DC -->
<g id="node3" class="node">
<title>rwrp.func_801924DC</title>
<g id="a_node3"><a xlink:href="rwrp.func_801924DC.svg" xlink:title="rwrp.func_801924DC">
<ellipse fill="red" stroke="black" cx="109.84" cy="-378" rx="109.68" ry="18"/>
<text text-anchor="middle" x="109.84" y="-374.3" font-family="Times,serif" font-size="14.00">rwrp.func_801924DC</text>
</a>
</g>
</g>
<!-- rwrp.func_801924DC&#45;&gt;rwrp.func_8018DDF0 -->
<g id="edge2" class="edge">
<title>rwrp.func_801924DC&#45;&gt;rwrp.func_8018DDF0</title>
<path fill="none" stroke="black" d="M158.69,-361.82C263.75,-329.19 510.8,-252.44 624.14,-217.23"/>
<polygon fill="black" stroke="black" points="625.19,-220.57 633.7,-214.26 623.12,-213.89 625.19,-220.57"/>
<text text-anchor="middle" x="153.69" y="-350.62" font-family="Times,serif" font-size="14.00">1</text>
</g>
<!-- rwrp.TestCollisions -->
<g id="node4" class="node">
<title>rwrp.TestCollisions</title>
<g id="a_node4"><a xlink:href="rwrp.TestCollisions.svg" xlink:title="rwrp.TestCollisions">
<ellipse fill="red" stroke="black" cx="338.84" cy="-378" rx="100.98" ry="18"/>
<text text-anchor="middle" x="338.84" y="-374.3" font-family="Times,serif" font-size="14.00">rwrp.TestCollisions</text>
</a>
</g>
</g>
<!-- rwrp.TestCollisions&#45;&gt;rwrp.func_8018DDF0 -->
<g id="edge3" class="edge">
<title>rwrp.TestCollisions&#45;&gt;rwrp.func_8018DDF0</title>
<path fill="none" stroke="black" d="M370.28,-360.73C432.82,-328.37 572.77,-255.95 642.19,-220.03"/>
<polygon fill="black" stroke="black" points="643.83,-223.13 651.1,-215.42 640.61,-216.91 643.83,-223.13"/>
<text text-anchor="middle" x="365.28" y="-349.53" font-family="Times,serif" font-size="14.00">4</text>
</g>
<!-- rwrp.func_801915A0 -->
<g id="node5" class="node">
<title>rwrp.func_801915A0</title>
<g id="a_node5"><a xlink:href="rwrp.func_801915A0.svg" xlink:title="rwrp.func_801915A0">
<ellipse fill="red" stroke="black" cx="565.84" cy="-378" rx="107.78" ry="18"/>
<text text-anchor="middle" x="565.84" y="-374.3" font-family="Times,serif" font-size="14.00">rwrp.func_801915A0</text>
</a>
</g>
</g>
<!-- rwrp.func_801915A0&#45;&gt;rwrp.func_8018DDF0 -->
<g id="edge4" class="edge">
<title>rwrp.func_801915A0&#45;&gt;rwrp.func_8018DDF0</title>
<path fill="none" stroke="black" d="M577.06,-359.93C597.68,-328.57 641.69,-261.6 665.94,-224.71"/>
<polygon fill="black" stroke="black" points="669.09,-226.29 671.66,-216.02 663.24,-222.45 669.09,-226.29"/>
<text text-anchor="middle" x="572.06" y="-348.73" font-family="Times,serif" font-size="14.00">1</text>
</g>
<!-- rwrp.func_801916D0 -->
<g id="node6" class="node">
<title>rwrp.func_801916D0</title>
<g id="a_node6"><a xlink:href="rwrp.func_801916D0.svg" xlink:title="rwrp.func_801916D0">
<ellipse fill="red" stroke="black" cx="799.84" cy="-378" rx="108.58" ry="18"/>
<text text-anchor="middle" x="799.84" y="-374.3" font-family="Times,serif" font-size="14.00">rwrp.func_801916D0</text>
</a>
</g>
</g>
<!-- rwrp.func_801916D0&#45;&gt;rwrp.func_8018DDF0 -->
<g id="edge5" class="edge">
<title>rwrp.func_801916D0&#45;&gt;rwrp.func_8018DDF0</title>
<path fill="none" stroke="black" d="M788.62,-359.93C768.01,-328.57 723.99,-261.6 699.74,-224.71"/>
<polygon fill="black" stroke="black" points="702.44,-222.45 694.02,-216.02 696.59,-226.29 702.44,-222.45"/>
<text text-anchor="middle" x="783.62" y="-348.73" font-family="Times,serif" font-size="14.00">1</text>
</g>
<!-- rwrp.func_80191490 -->
<g id="node7" class="node">
<title>rwrp.func_80191490</title>
<g id="a_node7"><a xlink:href="rwrp.func_80191490.svg" xlink:title="rwrp.func_80191490">
<ellipse fill="red" stroke="black" cx="1033.84" cy="-378" rx="107.48" ry="18"/>
<text text-anchor="middle" x="1033.84" y="-374.3" font-family="Times,serif" font-size="14.00">rwrp.func_80191490</text>
</a>
</g>
</g>
<!-- rwrp.func_80191490&#45;&gt;rwrp.func_8018DDF0 -->
<g id="edge6" class="edge">
<title>rwrp.func_80191490&#45;&gt;rwrp.func_8018DDF0</title>
<path fill="none" stroke="black" d="M1001.76,-360.73C937.87,-328.33 794.79,-255.77 724.05,-219.9"/>
<polygon fill="black" stroke="black" points="725.47,-216.7 714.97,-215.29 722.31,-222.94 725.47,-216.7"/>
<text text-anchor="middle" x="996.76" y="-349.53" font-family="Times,serif" font-size="14.00">1</text>
</g>
<!-- rwrp.EntityBreakable -->
<g id="node8" class="node">
<title>rwrp.EntityBreakable</title>
<g id="a_node8"><a xlink:href="rwrp.EntityBreakable.svg" xlink:title="rwrp.EntityBreakable">
<ellipse fill="red" stroke="black" cx="1270.84" cy="-378" rx="111.58" ry="18"/>
<text text-anchor="middle" x="1270.84" y="-374.3" font-family="Times,serif" font-size="14.00">rwrp.EntityBreakable</text>
</a>
</g>
</g>
<!-- rwrp.EntityBreakable&#45;&gt;rwrp.func_8018DDF0 -->
<g id="edge7" class="edge">
<title>rwrp.EntityBreakable&#45;&gt;rwrp.func_8018DDF0</title>
<path fill="none" stroke="black" d="M1220.71,-361.82C1112.76,-329.15 858.75,-252.25 742.64,-217.1"/>
<polygon fill="black" stroke="black" points="743.43,-213.69 732.85,-214.14 741.4,-220.39 743.43,-213.69"/>
<text text-anchor="middle" x="1215.71" y="-350.62" font-family="Times,serif" font-size="14.00">1</text>
</g>
</g>
</svg>
