<?xml version="1.0" encoding="UTF-8" standalone="no"?>
<!DOCTYPE svg PUBLIC "-//W3C//DTD SVG 1.1//EN"
 "http://www.w3.org/Graphics/SVG/1.1/DTD/svg11.dtd">
<!-- Generated by graphviz version 2.43.0 (0)
 -->
<!-- Title: rwrp.func_8018E290 Pages: 1 -->
<svg width="4959pt" height="131pt"
 viewBox="0.00 0.00 4959.08 131.00" xmlns="http://www.w3.org/2000/svg" xmlns:xlink="http://www.w3.org/1999/xlink">
<g id="graph0" class="graph" transform="scale(1 1) rotate(0) translate(4 127)">
<title>rwrp.func_8018E290</title>
<polygon fill="white" stroke="transparent" points="-4,4 -4,-127 4955.08,-127 4955.08,4 -4,4"/>
<!-- rwrp.func_8018E290 -->
<g id="node1" class="node">
<title>rwrp.func_8018E290</title>
<ellipse fill="red" stroke="black" cx="2492.54" cy="-18" rx="108.58" ry="18"/>
<text text-anchor="middle" x="2492.54" y="-14.3" font-family="Times,serif" font-size="14.00">rwrp.func_8018E290</text>
</g>
<!-- rwrp.func_8019199C -->
<g id="node2" class="node">
<title>rwrp.func_8019199C</title>
<g id="a_node2"><a xlink:href="rwrp.func_8019199C.svg" xlink:title="rwrp.func_8019199C">
<ellipse fill="red" stroke="black" cx="108.54" cy="-105" rx="108.58" ry="18"/>
<text text-anchor="middle" x="108.54" y="-101.3" font-family="Times,serif" font-size="14.00">rwrp.func_8019199C</text>
</a>
</g>
</g>
<!-- rwrp.func_8019199C&#45;&gt;rwrp.func_8018E290 -->
<g id="edge1" class="edge">
<title>rwrp.func_8019199C&#45;&gt;rwrp.func_8018E290</title>
<path fill="none" stroke="black" d="M185.23,-92.18C198.65,-90.3 212.49,-88.49 225.54,-87 400.13,-67.02 444.05,-62.98 619.54,-54 1281.8,-20.11 2077.28,-18 2373.65,-18.55"/>
<polygon fill="black" stroke="black" points="2373.98,-22.05 2383.99,-18.57 2373.99,-15.05 2373.98,-22.05"/>
<text text-anchor="middle" x="624.54" y="-57.8" font-family="Times,serif" font-size="14.00">1</text>
</g>
<!-- rwrp.func_80190E44 -->
<g id="node3" class="node">
<title>rwrp.func_80190E44</title>
<g id="a_node3"><a xlink:href="rwrp.func_80190E44.svg" xlink:title="rwrp.func_80190E44">
<ellipse fill="red" stroke="black" cx="343.54" cy="-105" rx="108.58" ry="18"/>
<text text-anchor="middle" x="343.54" y="-101.3" font-family="Times,serif" font-size="14.00">rwrp.func_80190E44</text>
</a>
</g>
</g>
<!-- rwrp.func_80190E44&#45;&gt;rwrp.func_8018E290 -->
<g id="edge2" class="edge">
<title>rwrp.func_80190E44&#45;&gt;rwrp.func_8018E290</title>
<path fill="none" stroke="black" d="M420.26,-92.26C433.99,-90.36 448.17,-88.52 461.54,-87 637.91,-67 682.29,-63.24 859.54,-54 1426.06,-24.47 2104.39,-19.72 2373.82,-19.05"/>
<polygon fill="black" stroke="black" points="2374.02,-22.55 2384.01,-19.03 2374,-15.55 2374.02,-22.55"/>
<text text-anchor="middle" x="864.54" y="-57.8" font-family="Times,serif" font-size="14.00">1</text>
</g>
<!-- rwrp.func_80194924 -->
<g id="node4" class="node">
<title>rwrp.func_80194924</title>
<g id="a_node4"><a xlink:href="rwrp.func_80194924.svg" xlink:title="rwrp.func_80194924">
<ellipse fill="red" stroke="black" cx="577.54" cy="-105" rx="107.48" ry="18"/>
<text text-anchor="middle" x="577.54" y="-101.3" font-family="Times,serif" font-size="14.00">rwrp.func_80194924</text>
</a>
</g>
</g>
<!-- rwrp.func_80194924&#45;&gt;rwrp.func_8018E290 -->
<g id="edge3" class="edge">
<title>rwrp.func_80194924&#45;&gt;rwrp.func_8018E290</title>
<path fill="none" stroke="black" d="M653.6,-92.22C667.21,-90.32 681.28,-88.49 694.54,-87 877.97,-66.39 924.21,-63.67 1108.54,-54 1576.76,-29.44 2135.03,-21.99 2374.24,-19.83"/>
<polygon fill="black" stroke="black" points="2374.38,-23.33 2384.35,-19.74 2374.32,-16.33 2374.38,-23.33"/>
<text text-anchor="middle" x="1113.54" y="-57.8" font-family="Times,serif" font-size="14.00">1</text>
</g>
<!-- rwrp.func_80194DD4 -->
<g id="node5" class="node">
<title>rwrp.func_80194DD4</title>
<g id="a_node5"><a xlink:href="rwrp.func_80194DD4.svg" xlink:title="rwrp.func_80194DD4">
<ellipse fill="green" stroke="black" cx="813.54" cy="-105" rx="110.48" ry="18"/>
<text text-anchor="middle" x="813.54" y="-101.3" font-family="Times,serif" font-size="14.00">rwrp.func_80194DD4</text>
</a>
</g>
</g>
<!-- rwrp.func_80194DD4&#45;&gt;rwrp.func_8018E290 -->
<g id="edge4" class="edge">
<title>rwrp.func_80194DD4&#45;&gt;rwrp.func_8018E290</title>
<path fill="none" stroke="black" d="M891.22,-92.14C904.97,-90.26 919.16,-88.46 932.54,-87 1126.61,-65.85 1175.6,-64.38 1370.54,-54 1736.55,-34.51 2170.36,-24.77 2374.79,-20.97"/>
<polygon fill="black" stroke="black" points="2375.01,-24.47 2384.95,-20.78 2374.88,-17.47 2375.01,-24.47"/>
<text text-anchor="middle" x="1375.54" y="-57.8" font-family="Times,serif" font-size="14.00">1</text>
</g>
<!-- rwrp.func_8019390C -->
<g id="node6" class="node">
<title>rwrp.func_8019390C</title>
<g id="a_node6"><a xlink:href="rwrp.func_8019390C.svg" xlink:title="rwrp.func_8019390C">
<ellipse fill="red" stroke="black" cx="1050.54" cy="-105" rx="108.58" ry="18"/>
<text text-anchor="middle" x="1050.54" y="-101.3" font-family="Times,serif" font-size="14.00">rwrp.func_8019390C</text>
</a>
</g>
</g>
<!-- rwrp.func_8019390C&#45;&gt;rwrp.func_8018E290 -->
<g id="edge5" class="edge">
<title>rwrp.func_8019390C&#45;&gt;rwrp.func_8018E290</title>
<path fill="none" stroke="black" d="M1126.91,-92.14C1140.43,-90.26 1154.38,-88.46 1167.54,-87 1611.09,-37.81 2142.19,-24.13 2374.27,-20.38"/>
<polygon fill="black" stroke="black" points="2374.48,-23.88 2384.42,-20.22 2374.36,-16.88 2374.48,-23.88"/>
<text text-anchor="middle" x="1535.54" y="-57.8" font-family="Times,serif" font-size="14.00">1</text>
</g>
<!-- rwrp.func_8018EFA0 -->
<g id="node7" class="node">
<title>rwrp.func_8018EFA0</title>
<g id="a_node7"><a xlink:href="rwrp.func_8018EFA0.svg" xlink:title="rwrp.func_8018EFA0">
<ellipse fill="red" stroke="black" cx="1285.54" cy="-105" rx="108.58" ry="18"/>
<text text-anchor="middle" x="1285.54" y="-101.3" font-family="Times,serif" font-size="14.00">rwrp.func_8018EFA0</text>
</a>
</g>
</g>
<!-- rwrp.func_8018EFA0&#45;&gt;rwrp.func_8018E290 -->
<g id="edge6" class="edge">
<title>rwrp.func_8018EFA0&#45;&gt;rwrp.func_8018E290</title>
<path fill="none" stroke="black" d="M1362.26,-92.24C1375.98,-90.34 1390.17,-88.5 1403.54,-87 1756.71,-47.25 2177.12,-29.24 2376.53,-22.45"/>
<polygon fill="black" stroke="black" points="2376.85,-25.95 2386.73,-22.11 2376.62,-18.95 2376.85,-25.95"/>
<text text-anchor="middle" x="1767.54" y="-57.8" font-family="Times,serif" font-size="14.00">1</text>
</g>
<!-- rwrp.func_80192594 -->
<g id="node8" class="node">
<title>rwrp.func_80192594</title>
<g id="a_node8"><a xlink:href="rwrp.func_80192594.svg" xlink:title="rwrp.func_80192594">
<ellipse fill="red" stroke="black" cx="1519.54" cy="-105" rx="107.48" ry="18"/>
<text text-anchor="middle" x="1519.54" y="-101.3" font-family="Times,serif" font-size="14.00">rwrp.func_80192594</text>
</a>
</g>
</g>
<!-- rwrp.func_80192594&#45;&gt;rwrp.func_8018E290 -->
<g id="edge7" class="edge">
<title>rwrp.func_80192594&#45;&gt;rwrp.func_8018E290</title>
<path fill="none" stroke="black" d="M1595.26,-92.16C1608.66,-90.28 1622.49,-88.47 1635.54,-87 1902.66,-56.86 2218.1,-35.47 2381.66,-25.44"/>
<polygon fill="black" stroke="black" points="2381.97,-28.93 2391.73,-24.82 2381.54,-21.94 2381.97,-28.93"/>
<text text-anchor="middle" x="1970.54" y="-57.8" font-family="Times,serif" font-size="14.00">1</text>
</g>
<!-- rwrp.EntitySoulStealOrb -->
<g id="node9" class="node">
<title>rwrp.EntitySoulStealOrb</title>
<g id="a_node9"><a xlink:href="rwrp.EntitySoulStealOrb.svg" xlink:title="rwrp.EntitySoulStealOrb">
<ellipse fill="green" stroke="black" cx="1771.54" cy="-105" rx="126.98" ry="18"/>
<text text-anchor="middle" x="1771.54" y="-101.3" font-family="Times,serif" font-size="14.00">rwrp.EntitySoulStealOrb</text>
</a>
</g>
</g>
<!-- rwrp.EntitySoulStealOrb&#45;&gt;rwrp.func_8018E290 -->
<g id="edge8" class="edge">
<title>rwrp.EntitySoulStealOrb&#45;&gt;rwrp.func_8018E290</title>
<path fill="none" stroke="black" d="M1862.66,-92.4C1877.33,-90.57 1892.35,-88.72 1906.54,-87 2078.7,-66.17 2279.46,-43.15 2395.69,-29.95"/>
<polygon fill="black" stroke="black" points="2396.09,-33.42 2405.63,-28.82 2395.3,-26.47 2396.09,-33.42"/>
<text text-anchor="middle" x="2184.54" y="-57.8" font-family="Times,serif" font-size="14.00">1</text>
</g>
<!-- rwrp.func_8018F9B4 -->
<g id="node10" class="node">
<title>rwrp.func_8018F9B4</title>
<g id="a_node10"><a xlink:href="rwrp.func_8018F9B4.svg" xlink:title="rwrp.func_8018F9B4">
<ellipse fill="red" stroke="black" cx="2024.54" cy="-105" rx="108.58" ry="18"/>
<text text-anchor="middle" x="2024.54" y="-101.3" font-family="Times,serif" font-size="14.00">rwrp.func_8018F9B4</text>
</a>
</g>
</g>
<!-- rwrp.func_8018F9B4&#45;&gt;rwrp.func_8018E290 -->
<g id="edge9" class="edge">
<title>rwrp.func_8018F9B4&#45;&gt;rwrp.func_8018E290</title>
<path fill="none" stroke="black" d="M2094.86,-91.23C2179.87,-75.79 2322.63,-49.86 2411.99,-33.63"/>
<polygon fill="black" stroke="black" points="2412.87,-37.03 2422.08,-31.8 2411.61,-30.14 2412.87,-37.03"/>
<text text-anchor="middle" x="2292.54" y="-57.8" font-family="Times,serif" font-size="14.00">1</text>
</g>
<!-- rwrp.func_80192348 -->
<g id="node11" class="node">
<title>rwrp.func_80192348</title>
<g id="a_node11"><a xlink:href="rwrp.func_80192348.svg" xlink:title="rwrp.func_80192348">
<ellipse fill="red" stroke="black" cx="2258.54" cy="-105" rx="107.48" ry="18"/>
<text text-anchor="middle" x="2258.54" y="-101.3" font-family="Times,serif" font-size="14.00">rwrp.func_80192348</text>
</a>
</g>
</g>
<!-- rwrp.func_80192348&#45;&gt;rwrp.func_8018E290 -->
<g id="edge10" class="edge">
<title>rwrp.func_80192348&#45;&gt;rwrp.func_8018E290</title>
<path fill="none" stroke="black" d="M2301.46,-88.41C2340.51,-74.23 2398.26,-53.25 2440.04,-38.07"/>
<polygon fill="black" stroke="black" points="2441.29,-41.34 2449.5,-34.64 2438.9,-34.76 2441.29,-41.34"/>
<text text-anchor="middle" x="2395.54" y="-57.8" font-family="Times,serif" font-size="14.00">1</text>
</g>
<!-- rwrp.func_8018C948 -->
<g id="node12" class="node">
<title>rwrp.func_8018C948</title>
<g id="a_node12"><a xlink:href="rwrp.func_8018C948.svg" xlink:title="rwrp.func_8018C948">
<ellipse fill="red" stroke="black" cx="2492.54" cy="-105" rx="108.58" ry="18"/>
<text text-anchor="middle" x="2492.54" y="-101.3" font-family="Times,serif" font-size="14.00">rwrp.func_8018C948</text>
</a>
</g>
</g>
<!-- rwrp.func_8018C948&#45;&gt;rwrp.func_8018E290 -->
<g id="edge11" class="edge">
<title>rwrp.func_8018C948&#45;&gt;rwrp.func_8018E290</title>
<path fill="none" stroke="black" d="M2492.54,-86.8C2492.54,-75.16 2492.54,-59.55 2492.54,-46.24"/>
<polygon fill="black" stroke="black" points="2496.04,-46.18 2492.54,-36.18 2489.04,-46.18 2496.04,-46.18"/>
<text text-anchor="middle" x="2497.54" y="-57.8" font-family="Times,serif" font-size="14.00">1</text>
</g>
<!-- rwrp.func_80192248 -->
<g id="node13" class="node">
<title>rwrp.func_80192248</title>
<g id="a_node13"><a xlink:href="rwrp.func_80192248.svg" xlink:title="rwrp.func_80192248">
<ellipse fill="red" stroke="black" cx="2726.54" cy="-105" rx="107.48" ry="18"/>
<text text-anchor="middle" x="2726.54" y="-101.3" font-family="Times,serif" font-size="14.00">rwrp.func_80192248</text>
</a>
</g>
</g>
<!-- rwrp.func_80192248&#45;&gt;rwrp.func_8018E290 -->
<g id="edge12" class="edge">
<title>rwrp.func_80192248&#45;&gt;rwrp.func_8018E290</title>
<path fill="none" stroke="black" d="M2683.62,-88.41C2644.57,-74.23 2586.82,-53.25 2545.04,-38.07"/>
<polygon fill="black" stroke="black" points="2546.18,-34.76 2535.58,-34.64 2543.79,-41.34 2546.18,-34.76"/>
<text text-anchor="middle" x="2629.54" y="-57.8" font-family="Times,serif" font-size="14.00">1</text>
</g>
<!-- rwrp.func_8019024C -->
<g id="node14" class="node">
<title>rwrp.func_8019024C</title>
<g id="a_node14"><a xlink:href="rwrp.func_8019024C.svg" xlink:title="rwrp.func_8019024C">
<ellipse fill="red" stroke="black" cx="2960.54" cy="-105" rx="108.58" ry="18"/>
<text text-anchor="middle" x="2960.54" y="-101.3" font-family="Times,serif" font-size="14.00">rwrp.func_8019024C</text>
</a>
</g>
</g>
<!-- rwrp.func_8019024C&#45;&gt;rwrp.func_8018E290 -->
<g id="edge13" class="edge">
<title>rwrp.func_8019024C&#45;&gt;rwrp.func_8018E290</title>
<path fill="none" stroke="black" d="M2890.22,-91.23C2805.21,-75.79 2662.45,-49.86 2573.09,-33.63"/>
<polygon fill="black" stroke="black" points="2573.47,-30.14 2563,-31.8 2572.22,-37.03 2573.47,-30.14"/>
<text text-anchor="middle" x="2760.54" y="-57.8" font-family="Times,serif" font-size="14.00">1</text>
</g>
<!-- rwrp.func_8018F814 -->
<g id="node15" class="node">
<title>rwrp.func_8018F814</title>
<g id="a_node15"><a xlink:href="rwrp.func_8018F814.svg" xlink:title="rwrp.func_8018F814">
<ellipse fill="red" stroke="black" cx="3194.54" cy="-105" rx="107.78" ry="18"/>
<text text-anchor="middle" x="3194.54" y="-101.3" font-family="Times,serif" font-size="14.00">rwrp.func_8018F814</text>
</a>
</g>
</g>
<!-- rwrp.func_8018F814&#45;&gt;rwrp.func_8018E290 -->
<g id="edge14" class="edge">
<title>rwrp.func_8018F814&#45;&gt;rwrp.func_8018E290</title>
<path fill="none" stroke="black" d="M3117.53,-92.38C3104.52,-90.52 3091.15,-88.66 3078.54,-87 2907.59,-64.56 2708.07,-42.23 2591.48,-29.57"/>
<polygon fill="black" stroke="black" points="2591.81,-26.08 2581.5,-28.48 2591.06,-33.04 2591.81,-26.08"/>
<text text-anchor="middle" x="2939.54" y="-57.8" font-family="Times,serif" font-size="14.00">1</text>
</g>
<!-- rwrp.func_8018B6B4 -->
<g id="node16" class="node">
<title>rwrp.func_8018B6B4</title>
<g id="a_node16"><a xlink:href="rwrp.func_8018B6B4.svg" xlink:title="rwrp.func_8018B6B4">
<ellipse fill="red" stroke="black" cx="3429.54" cy="-105" rx="109.38" ry="18"/>
<text text-anchor="middle" x="3429.54" y="-101.3" font-family="Times,serif" font-size="14.00">rwrp.func_8018B6B4</text>
</a>
</g>
</g>
<!-- rwrp.func_8018B6B4&#45;&gt;rwrp.func_8018E290 -->
<g id="edge15" class="edge">
<title>rwrp.func_8018B6B4&#45;&gt;rwrp.func_8018E290</title>
<path fill="none" stroke="black" d="M3352.18,-92.26C3338.65,-90.38 3324.7,-88.54 3311.54,-87 3058.49,-57.29 2759.95,-35.94 2602.52,-25.74"/>
<polygon fill="black" stroke="black" points="2602.56,-22.24 2592.36,-25.09 2602.11,-29.23 2602.56,-22.24"/>
<text text-anchor="middle" x="3137.54" y="-57.8" font-family="Times,serif" font-size="14.00">1</text>
</g>
<!-- rwrp.func_80191490 -->
<g id="node17" class="node">
<title>rwrp.func_80191490</title>
<g id="a_node17"><a xlink:href="rwrp.func_80191490.svg" xlink:title="rwrp.func_80191490">
<ellipse fill="red" stroke="black" cx="3663.54" cy="-105" rx="107.48" ry="18"/>
<text text-anchor="middle" x="3663.54" y="-101.3" font-family="Times,serif" font-size="14.00">rwrp.func_80191490</text>
</a>
</g>
</g>
<!-- rwrp.func_80191490&#45;&gt;rwrp.func_8018E290 -->
<g id="edge16" class="edge">
<title>rwrp.func_80191490&#45;&gt;rwrp.func_8018E290</title>
<path fill="none" stroke="black" d="M3587.82,-92.2C3574.42,-90.31 3560.58,-88.49 3547.54,-87 3207.39,-48.12 2802.8,-29.8 2608.28,-22.71"/>
<polygon fill="black" stroke="black" points="2608.16,-19.21 2598.04,-22.35 2607.91,-26.2 2608.16,-19.21"/>
<text text-anchor="middle" x="3351.54" y="-57.8" font-family="Times,serif" font-size="14.00">1</text>
</g>
<!-- rwrp.func_80189E9C -->
<g id="node18" class="node">
<title>rwrp.func_80189E9C</title>
<g id="a_node18"><a xlink:href="rwrp.func_80189E9C.svg" xlink:title="rwrp.func_80189E9C">
<ellipse fill="red" stroke="black" cx="3897.54" cy="-105" rx="109.38" ry="18"/>
<text text-anchor="middle" x="3897.54" y="-101.3" font-family="Times,serif" font-size="14.00">rwrp.func_80189E9C</text>
</a>
</g>
</g>
<!-- rwrp.func_80189E9C&#45;&gt;rwrp.func_8018E290 -->
<g id="edge17" class="edge">
<title>rwrp.func_80189E9C&#45;&gt;rwrp.func_8018E290</title>
<path fill="none" stroke="black" d="M3820.51,-92.17C3806.88,-90.29 3792.81,-88.48 3779.54,-87 3350.55,-39.26 2837.28,-24.85 2610.35,-20.66"/>
<polygon fill="black" stroke="black" points="2610.15,-17.15 2600.09,-20.47 2610.02,-24.15 2610.15,-17.15"/>
<text text-anchor="middle" x="3575.54" y="-57.8" font-family="Times,serif" font-size="14.00">1</text>
</g>
<!-- rwrp.func_801891C0 -->
<g id="node19" class="node">
<title>rwrp.func_801891C0</title>
<g id="a_node19"><a xlink:href="rwrp.func_801891C0.svg" xlink:title="rwrp.func_801891C0">
<ellipse fill="red" stroke="black" cx="4133.54" cy="-105" rx="108.58" ry="18"/>
<text text-anchor="middle" x="4133.54" y="-101.3" font-family="Times,serif" font-size="14.00">rwrp.func_801891C0</text>
</a>
</g>
</g>
<!-- rwrp.func_801891C0&#45;&gt;rwrp.func_8018E290 -->
<g id="edge18" class="edge">
<title>rwrp.func_801891C0&#45;&gt;rwrp.func_8018E290</title>
<path fill="none" stroke="black" d="M4056.83,-92.19C4043.1,-90.29 4028.91,-88.47 4015.54,-87 3824.58,-65.96 3776.37,-64.41 3584.54,-54 3230.13,-34.76 2810.39,-24.95 2610.19,-21.06"/>
<polygon fill="black" stroke="black" points="2610.01,-17.56 2599.94,-20.86 2609.88,-24.55 2610.01,-17.56"/>
<text text-anchor="middle" x="3834.54" y="-57.8" font-family="Times,serif" font-size="14.00">1</text>
</g>
<!-- rwrp.func_80188ED0 -->
<g id="node20" class="node">
<title>rwrp.func_80188ED0</title>
<g id="a_node20"><a xlink:href="rwrp.func_80188ED0.svg" xlink:title="rwrp.func_80188ED0">
<ellipse fill="red" stroke="black" cx="4369.54" cy="-105" rx="109.68" ry="18"/>
<text text-anchor="middle" x="4369.54" y="-101.3" font-family="Times,serif" font-size="14.00">rwrp.func_80188ED0</text>
</a>
</g>
</g>
<!-- rwrp.func_80188ED0&#45;&gt;rwrp.func_8018E290 -->
<g id="edge19" class="edge">
<title>rwrp.func_80188ED0&#45;&gt;rwrp.func_8018E290</title>
<path fill="none" stroke="black" d="M4292.19,-92.15C4278.66,-90.28 4264.7,-88.48 4251.54,-87 4070.75,-66.69 4025.21,-63.69 3843.54,-54 3388.45,-29.72 2846.2,-22.13 2611.04,-19.89"/>
<polygon fill="black" stroke="black" points="2610.79,-16.39 2600.76,-19.79 2610.72,-23.39 2610.79,-16.39"/>
<text text-anchor="middle" x="4080.54" y="-57.8" font-family="Times,serif" font-size="14.00">1</text>
</g>
<!-- rwrp.func_80188DF0 -->
<g id="node21" class="node">
<title>rwrp.func_80188DF0</title>
<g id="a_node21"><a xlink:href="rwrp.func_80188DF0.svg" xlink:title="rwrp.func_80188DF0">
<ellipse fill="red" stroke="black" cx="4606.54" cy="-105" rx="109.38" ry="18"/>
<text text-anchor="middle" x="4606.54" y="-101.3" font-family="Times,serif" font-size="14.00">rwrp.func_80188DF0</text>
</a>
</g>
</g>
<!-- rwrp.func_80188DF0&#45;&gt;rwrp.func_8018E290 -->
<g id="edge20" class="edge">
<title>rwrp.func_80188DF0&#45;&gt;rwrp.func_8018E290</title>
<path fill="none" stroke="black" d="M4529.51,-92.22C4515.88,-90.33 4501.81,-88.5 4488.54,-87 4311.73,-66.97 4267.24,-63.29 4089.54,-54 3537.21,-25.13 2876.22,-20 2611.09,-19.14"/>
<polygon fill="black" stroke="black" points="2611.07,-15.64 2601.06,-19.11 2611.05,-22.64 2611.07,-15.64"/>
<text text-anchor="middle" x="4320.54" y="-57.8" font-family="Times,serif" font-size="14.00">1</text>
</g>
<!-- rwrp.func_8018908C -->
<g id="node22" class="node">
<title>rwrp.func_8018908C</title>
<g id="a_node22"><a xlink:href="rwrp.func_8018908C.svg" xlink:title="rwrp.func_8018908C">
<ellipse fill="red" stroke="black" cx="4842.54" cy="-105" rx="108.58" ry="18"/>
<text text-anchor="middle" x="4842.54" y="-101.3" font-family="Times,serif" font-size="14.00">rwrp.func_8018908C</text>
</a>
</g>
</g>
<!-- rwrp.func_8018908C&#45;&gt;rwrp.func_8018E290 -->
<g id="edge21" class="edge">
<title>rwrp.func_8018908C&#45;&gt;rwrp.func_8018E290</title>
<path fill="none" stroke="black" d="M4765.51,-92.23C4751.88,-90.34 4737.8,-88.51 4724.54,-87 4549.5,-67.1 4505.48,-63.02 4329.54,-54 3681.58,-20.8 2903.6,-18.26 2611.26,-18.62"/>
<polygon fill="black" stroke="black" points="2611.06,-15.12 2601.07,-18.63 2611.07,-22.12 2611.06,-15.12"/>
<text text-anchor="middle" x="4558.54" y="-57.8" font-family="Times,serif" font-size="14.00">1</text>
</g>
</g>
</svg>
