<?xml version="1.0" encoding="UTF-8" standalone="no"?>
<!DOCTYPE svg PUBLIC "-//W3C//DTD SVG 1.1//EN"
 "http://www.w3.org/Graphics/SVG/1.1/DTD/svg11.dtd">
<!-- Generated by graphviz version 2.43.0 (0)
 -->
<!-- Title: rwrp.func_8018F910 Pages: 1 -->
<svg width="460pt" height="224pt"
 viewBox="0.00 0.00 460.08 224.00" xmlns="http://www.w3.org/2000/svg" xmlns:xlink="http://www.w3.org/1999/xlink">
<g id="graph0" class="graph" transform="scale(1 1) rotate(0) translate(4 220)">
<title>rwrp.func_8018F910</title>
<polygon fill="white" stroke="transparent" points="-4,4 -4,-220 456.08,-220 456.08,4 -4,4"/>
<!-- rwrp.func_8018F910 -->
<g id="node1" class="node">
<title>rwrp.func_8018F910</title>
<ellipse fill="red" stroke="black" cx="225.54" cy="-18" rx="107.78" ry="18"/>
<text text-anchor="middle" x="225.54" y="-14.3" font-family="Times,serif" font-size="14.00">rwrp.func_8018F910</text>
</g>
<!-- rwrp.func_8018F9B4 -->
<g id="node2" class="node">
<title>rwrp.func_8018F9B4</title>
<g id="a_node2"><a xlink:href="rwrp.func_8018F9B4.svg" xlink:title="rwrp.func_8018F9B4">
<ellipse fill="red" stroke="black" cx="108.54" cy="-198" rx="108.58" ry="18"/>
<text text-anchor="middle" x="108.54" y="-194.3" font-family="Times,serif" font-size="14.00">rwrp.func_8018F9B4</text>
</a>
</g>
</g>
<!-- rwrp.func_8018F9B4&#45;&gt;rwrp.func_8018F910 -->
<g id="edge1" class="edge">
<title>rwrp.func_8018F9B4&#45;&gt;rwrp.func_8018F910</title>
<path fill="none" stroke="black" d="M119.76,-179.93C140.38,-148.57 184.39,-81.6 208.64,-44.71"/>
<polygon fill="black" stroke="black" points="211.79,-46.29 214.36,-36.02 205.94,-42.45 211.79,-46.29"/>
<text text-anchor="middle" x="114.76" y="-168.73" font-family="Times,serif" font-size="14.00">1</text>
</g>
<!-- rwrp.func_8019024C -->
<g id="node3" class="node">
<title>rwrp.func_8019024C</title>
<g id="a_node3"><a xlink:href="rwrp.func_8019024C.svg" xlink:title="rwrp.func_8019024C">
<ellipse fill="red" stroke="black" cx="343.54" cy="-198" rx="108.58" ry="18"/>
<text text-anchor="middle" x="343.54" y="-194.3" font-family="Times,serif" font-size="14.00">rwrp.func_8019024C</text>
</a>
</g>
</g>
<!-- rwrp.func_8019024C&#45;&gt;rwrp.func_8018F910 -->
<g id="edge2" class="edge">
<title>rwrp.func_8019024C&#45;&gt;rwrp.func_8018F910</title>
<path fill="none" stroke="black" d="M332.23,-179.93C311.43,-148.57 267.04,-81.6 242.58,-44.71"/>
<polygon fill="black" stroke="black" points="245.26,-42.42 236.82,-36.02 239.43,-46.28 245.26,-42.42"/>
<text text-anchor="middle" x="327.23" y="-168.73" font-family="Times,serif" font-size="14.00">1</text>
</g>
</g>
</svg>
