<?xml version="1.0" encoding="UTF-8" standalone="no"?>
<!DOCTYPE svg PUBLIC "-//W3C//DTD SVG 1.1//EN"
 "http://www.w3.org/Graphics/SVG/1.1/DTD/svg11.dtd">
<!-- Generated by graphviz version 2.43.0 (0)
 -->
<!-- Title: rwrp.CreateEntityWhenInVerticalRange Pages: 1 -->
<svg width="464pt" height="404pt"
 viewBox="0.00 0.00 464.03 404.00" xmlns="http://www.w3.org/2000/svg" xmlns:xlink="http://www.w3.org/1999/xlink">
<g id="graph0" class="graph" transform="scale(1 1) rotate(0) translate(4 400)">
<title>rwrp.CreateEntityWhenInVerticalRange</title>
<polygon fill="white" stroke="transparent" points="-4,4 -4,-400 460.03,-400 460.03,4 -4,4"/>
<!-- rwrp.CreateEntityWhenInVerticalRange -->
<g id="node1" class="node">
<title>rwrp.CreateEntityWhenInVerticalRange</title>
<ellipse fill="green" stroke="black" cx="228.49" cy="-198" rx="196.07" ry="18"/>
<text text-anchor="middle" x="228.49" y="-194.3" font-family="Times,serif" font-size="14.00">rwrp.CreateEntityWhenInVerticalRange</text>
</g>
<!-- rwrp.CreateEntityFromLayout -->
<g id="node2" class="node">
<title>rwrp.CreateEntityFromLayout</title>
<g id="a_node2"><a xlink:href="rwrp.CreateEntityFromLayout.svg" xlink:title="rwrp.CreateEntityFromLayout">
<ellipse fill="green" stroke="black" cx="228.49" cy="-18" rx="152.97" ry="18"/>
<text text-anchor="middle" x="228.49" y="-14.3" font-family="Times,serif" font-size="14.00">rwrp.CreateEntityFromLayout</text>
</a>
</g>
</g>
<!-- rwrp.CreateEntityWhenInVerticalRange&#45;&gt;rwrp.CreateEntityFromLayout -->
<g id="edge1" class="edge">
<title>rwrp.CreateEntityWhenInVerticalRange&#45;&gt;rwrp.CreateEntityFromLayout</title>
<path fill="none" stroke="black" d="M228.49,-179.93C228.49,-148.97 228.49,-83.3 228.49,-46.13"/>
<polygon fill="black" stroke="black" points="231.99,-46.02 228.49,-36.02 224.99,-46.02 231.99,-46.02"/>
<text text-anchor="middle" x="223.49" y="-39.82" font-family="Times,serif" font-size="14.00">1</text>
</g>
<!-- rwrp.func_8018C1EC -->
<g id="node3" class="node">
<title>rwrp.func_8018C1EC</title>
<g id="a_node3"><a xlink:href="rwrp.func_8018C1EC.svg" xlink:title="rwrp.func_8018C1EC">
<ellipse fill="red" stroke="black" cx="110.49" cy="-378" rx="110.48" ry="18"/>
<text text-anchor="middle" x="110.49" y="-374.3" font-family="Times,serif" font-size="14.00">rwrp.func_8018C1EC</text>
</a>
</g>
</g>
<!-- rwrp.func_8018C1EC&#45;&gt;rwrp.CreateEntityWhenInVerticalRange -->
<g id="edge2" class="edge">
<title>rwrp.func_8018C1EC&#45;&gt;rwrp.CreateEntityWhenInVerticalRange</title>
<path fill="none" stroke="black" d="M121.8,-359.93C142.6,-328.57 186.99,-261.6 211.45,-224.71"/>
<polygon fill="black" stroke="black" points="214.6,-226.28 217.21,-216.02 208.77,-222.42 214.6,-226.28"/>
<text text-anchor="middle" x="116.8" y="-348.73" font-family="Times,serif" font-size="14.00">1</text>
</g>
<!-- rwrp.func_8018C0F0 -->
<g id="node4" class="node">
<title>rwrp.func_8018C0F0</title>
<g id="a_node4"><a xlink:href="rwrp.func_8018C0F0.svg" xlink:title="rwrp.func_8018C0F0">
<ellipse fill="red" stroke="black" cx="347.49" cy="-378" rx="108.58" ry="18"/>
<text text-anchor="middle" x="347.49" y="-374.3" font-family="Times,serif" font-size="14.00">rwrp.func_8018C0F0</text>
</a>
</g>
</g>
<!-- rwrp.func_8018C0F0&#45;&gt;rwrp.CreateEntityWhenInVerticalRange -->
<g id="edge3" class="edge">
<title>rwrp.func_8018C0F0&#45;&gt;rwrp.CreateEntityWhenInVerticalRange</title>
<path fill="none" stroke="black" d="M336.08,-359.93C315.11,-328.57 270.34,-261.6 245.68,-224.71"/>
<polygon fill="black" stroke="black" points="248.33,-222.38 239.87,-216.02 242.51,-226.27 248.33,-222.38"/>
<text text-anchor="middle" x="331.08" y="-348.73" font-family="Times,serif" font-size="14.00">1</text>
</g>
</g>
</svg>
