<?xml version="1.0" encoding="UTF-8" standalone="no"?>
<!DOCTYPE svg PUBLIC "-//W3C//DTD SVG 1.1//EN"
 "http://www.w3.org/Graphics/SVG/1.1/DTD/svg11.dtd">
<!-- Generated by graphviz version 2.43.0 (0)
 -->
<!-- Title: rwrp.InitializeEntity Pages: 1 -->
<svg width="5134pt" height="224pt"
 viewBox="0.00 0.00 5134.38 224.00" xmlns="http://www.w3.org/2000/svg" xmlns:xlink="http://www.w3.org/1999/xlink">
<g id="graph0" class="graph" transform="scale(1 1) rotate(0) translate(4 220)">
<title>rwrp.InitializeEntity</title>
<polygon fill="white" stroke="transparent" points="-4,4 -4,-220 5130.38,-220 5130.38,4 -4,4"/>
<!-- rwrp.InitializeEntity -->
<g id="node1" class="node">
<title>rwrp.InitializeEntity</title>
<ellipse fill="red" stroke="black" cx="2557.84" cy="-18" rx="105.08" ry="18"/>
<text text-anchor="middle" x="2557.84" y="-14.3" font-family="Times,serif" font-size="14.00">rwrp.InitializeEntity</text>
</g>
<!-- rwrp.func_80188ED0 -->
<g id="node2" class="node">
<title>rwrp.func_80188ED0</title>
<g id="a_node2"><a xlink:href="rwrp.func_80188ED0.svg" xlink:title="rwrp.func_80188ED0">
<ellipse fill="red" stroke="black" cx="109.84" cy="-198" rx="109.68" ry="18"/>
<text text-anchor="middle" x="109.84" y="-194.3" font-family="Times,serif" font-size="14.00">rwrp.func_80188ED0</text>
</a>
</g>
</g>
<!-- rwrp.func_80188ED0&#45;&gt;rwrp.InitializeEntity -->
<g id="edge1" class="edge">
<title>rwrp.func_80188ED0&#45;&gt;rwrp.InitializeEntity</title>
<path fill="none" stroke="black" d="M186.87,-185.16C200.82,-183.25 215.25,-181.44 228.84,-180 1080.04,-89.9 2111.83,-38.89 2446.97,-23.79"/>
<polygon fill="black" stroke="black" points="2447.33,-27.28 2457.17,-23.33 2447.02,-20.29 2447.33,-27.28"/>
<text text-anchor="middle" x="181.87" y="-173.96" font-family="Times,serif" font-size="14.00">1</text>
</g>
<!-- rwrp.func_80189E9C -->
<g id="node3" class="node">
<title>rwrp.func_80189E9C</title>
<g id="a_node3"><a xlink:href="rwrp.func_80189E9C.svg" xlink:title="rwrp.func_80189E9C">
<ellipse fill="red" stroke="black" cx="346.84" cy="-198" rx="109.38" ry="18"/>
<text text-anchor="middle" x="346.84" y="-194.3" font-family="Times,serif" font-size="14.00">rwrp.func_80189E9C</text>
</a>
</g>
</g>
<!-- rwrp.func_80189E9C&#45;&gt;rwrp.InitializeEntity -->
<g id="edge2" class="edge">
<title>rwrp.func_80189E9C&#45;&gt;rwrp.InitializeEntity</title>
<path fill="none" stroke="black" d="M423.87,-185.15C437.5,-183.27 451.57,-181.46 464.84,-180 1221.93,-96.44 2137.87,-42.01 2448.66,-24.84"/>
<polygon fill="black" stroke="black" points="2449.22,-28.31 2459.02,-24.27 2448.84,-21.32 2449.22,-28.31"/>
<text text-anchor="middle" x="418.87" y="-173.95" font-family="Times,serif" font-size="14.00">1</text>
</g>
<!-- rwrp.EntityBreakable -->
<g id="node4" class="node">
<title>rwrp.EntityBreakable</title>
<g id="a_node4"><a xlink:href="rwrp.EntityBreakable.svg" xlink:title="rwrp.EntityBreakable">
<ellipse fill="red" stroke="black" cx="585.84" cy="-198" rx="111.58" ry="18"/>
<text text-anchor="middle" x="585.84" y="-194.3" font-family="Times,serif" font-size="14.00">rwrp.EntityBreakable</text>
</a>
</g>
</g>
<!-- rwrp.EntityBreakable&#45;&gt;rwrp.InitializeEntity -->
<g id="edge3" class="edge">
<title>rwrp.EntityBreakable&#45;&gt;rwrp.InitializeEntity</title>
<path fill="none" stroke="black" d="M665.17,-185.24C679.04,-183.36 693.35,-181.53 706.84,-180 1368.91,-104.75 2167.73,-46.11 2451.52,-26.27"/>
<polygon fill="black" stroke="black" points="2452.07,-29.74 2461.8,-25.55 2451.58,-22.76 2452.07,-29.74"/>
<text text-anchor="middle" x="660.17" y="-174.04" font-family="Times,serif" font-size="14.00">1</text>
</g>
<!-- rwrp.func_80188DF0 -->
<g id="node5" class="node">
<title>rwrp.func_80188DF0</title>
<g id="a_node5"><a xlink:href="rwrp.func_80188DF0.svg" xlink:title="rwrp.func_80188DF0">
<ellipse fill="red" stroke="black" cx="824.84" cy="-198" rx="109.38" ry="18"/>
<text text-anchor="middle" x="824.84" y="-194.3" font-family="Times,serif" font-size="14.00">rwrp.func_80188DF0</text>
</a>
</g>
</g>
<!-- rwrp.func_80188DF0&#45;&gt;rwrp.InitializeEntity -->
<g id="edge4" class="edge">
<title>rwrp.func_80188DF0&#45;&gt;rwrp.InitializeEntity</title>
<path fill="none" stroke="black" d="M902.53,-185.31C915.96,-183.44 929.79,-181.59 942.84,-180 1513.5,-110.48 2200.35,-49.51 2455.73,-27.62"/>
<polygon fill="black" stroke="black" points="2456.06,-31.1 2465.73,-26.76 2455.47,-24.13 2456.06,-31.1"/>
<text text-anchor="middle" x="897.53" y="-174.11" font-family="Times,serif" font-size="14.00">1</text>
</g>
<!-- rwrp.func_801891C0 -->
<g id="node6" class="node">
<title>rwrp.func_801891C0</title>
<g id="a_node6"><a xlink:href="rwrp.func_801891C0.svg" xlink:title="rwrp.func_801891C0">
<ellipse fill="red" stroke="black" cx="1060.84" cy="-198" rx="108.58" ry="18"/>
<text text-anchor="middle" x="1060.84" y="-194.3" font-family="Times,serif" font-size="14.00">rwrp.func_801891C0</text>
</a>
</g>
</g>
<!-- rwrp.func_801891C0&#45;&gt;rwrp.InitializeEntity -->
<g id="edge5" class="edge">
<title>rwrp.func_801891C0&#45;&gt;rwrp.InitializeEntity</title>
<path fill="none" stroke="black" d="M1138.87,-185.46C1152.2,-183.57 1165.91,-181.69 1178.84,-180 1659.34,-117.35 2235.58,-53.81 2460.88,-29.41"/>
<polygon fill="black" stroke="black" points="2461.45,-32.87 2471.02,-28.32 2460.7,-25.91 2461.45,-32.87"/>
<text text-anchor="middle" x="1133.87" y="-174.26" font-family="Times,serif" font-size="14.00">1</text>
</g>
<!-- rwrp.func_8018B6B4 -->
<g id="node7" class="node">
<title>rwrp.func_8018B6B4</title>
<g id="a_node7"><a xlink:href="rwrp.func_8018B6B4.svg" xlink:title="rwrp.func_8018B6B4">
<ellipse fill="red" stroke="black" cx="1296.84" cy="-198" rx="109.38" ry="18"/>
<text text-anchor="middle" x="1296.84" y="-194.3" font-family="Times,serif" font-size="14.00">rwrp.func_8018B6B4</text>
</a>
</g>
</g>
<!-- rwrp.func_8018B6B4&#45;&gt;rwrp.InitializeEntity -->
<g id="edge6" class="edge">
<title>rwrp.func_8018B6B4&#45;&gt;rwrp.InitializeEntity</title>
<path fill="none" stroke="black" d="M1376.18,-185.54C1389.1,-183.68 1402.34,-181.78 1414.84,-180 1807.82,-124.02 2276.97,-58.28 2469.14,-31.4"/>
<polygon fill="black" stroke="black" points="2469.77,-34.84 2479.19,-29.99 2468.8,-27.91 2469.77,-34.84"/>
<text text-anchor="middle" x="1371.18" y="-174.34" font-family="Times,serif" font-size="14.00">1</text>
</g>
<!-- rwrp.func_8019199C -->
<g id="node8" class="node">
<title>rwrp.func_8019199C</title>
<g id="a_node8"><a xlink:href="rwrp.func_8019199C.svg" xlink:title="rwrp.func_8019199C">
<ellipse fill="red" stroke="black" cx="1532.84" cy="-198" rx="108.58" ry="18"/>
<text text-anchor="middle" x="1532.84" y="-194.3" font-family="Times,serif" font-size="14.00">rwrp.func_8019199C</text>
</a>
</g>
</g>
<!-- rwrp.func_8019199C&#45;&gt;rwrp.InitializeEntity -->
<g id="edge7" class="edge">
<title>rwrp.func_8019199C&#45;&gt;rwrp.InitializeEntity</title>
<path fill="none" stroke="black" d="M1604.92,-184.48C1790.23,-152.3 2282.36,-66.84 2476.99,-33.04"/>
<polygon fill="black" stroke="black" points="2477.61,-36.48 2486.87,-31.33 2476.41,-29.59 2477.61,-36.48"/>
<text text-anchor="middle" x="1599.92" y="-173.28" font-family="Times,serif" font-size="14.00">1</text>
</g>
<!-- rwrp.EntityEquipItemDrop -->
<g id="node9" class="node">
<title>rwrp.EntityEquipItemDrop</title>
<g id="a_node9"><a xlink:href="rwrp.EntityEquipItemDrop.svg" xlink:title="rwrp.EntityEquipItemDrop">
<ellipse fill="red" stroke="black" cx="1795.84" cy="-198" rx="136.48" ry="18"/>
<text text-anchor="middle" x="1795.84" y="-194.3" font-family="Times,serif" font-size="14.00">rwrp.EntityEquipItemDrop</text>
</a>
</g>
</g>
<!-- rwrp.EntityEquipItemDrop&#45;&gt;rwrp.InitializeEntity -->
<g id="edge8" class="edge">
<title>rwrp.EntityEquipItemDrop&#45;&gt;rwrp.InitializeEntity</title>
<path fill="none" stroke="black" d="M1859.82,-182.05C2001.74,-148.9 2341.92,-69.44 2488.6,-35.17"/>
<polygon fill="black" stroke="black" points="2489.46,-38.57 2498.4,-32.89 2487.86,-31.75 2489.46,-38.57"/>
<text text-anchor="middle" x="1854.82" y="-170.85" font-family="Times,serif" font-size="14.00">1</text>
</g>
<!-- rwrp.EntityEnemyBlood -->
<g id="node10" class="node">
<title>rwrp.EntityEnemyBlood</title>
<g id="a_node10"><a xlink:href="rwrp.EntityEnemyBlood.svg" xlink:title="rwrp.EntityEnemyBlood">
<ellipse fill="green" stroke="black" cx="2073.84" cy="-198" rx="123.48" ry="18"/>
<text text-anchor="middle" x="2073.84" y="-194.3" font-family="Times,serif" font-size="14.00">rwrp.EntityEnemyBlood</text>
</a>
</g>
</g>
<!-- rwrp.EntityEnemyBlood&#45;&gt;rwrp.InitializeEntity -->
<g id="edge9" class="edge">
<title>rwrp.EntityEnemyBlood&#45;&gt;rwrp.InitializeEntity</title>
<path fill="none" stroke="black" d="M2117.22,-181.05C2206.39,-148.25 2409.94,-73.39 2505.93,-38.09"/>
<polygon fill="black" stroke="black" points="2507.25,-41.34 2515.43,-34.6 2504.83,-34.77 2507.25,-41.34"/>
<text text-anchor="middle" x="2112.22" y="-169.85" font-family="Times,serif" font-size="14.00">1</text>
</g>
<!-- rwrp.func_80190E44 -->
<g id="node11" class="node">
<title>rwrp.func_80190E44</title>
<g id="a_node11"><a xlink:href="rwrp.func_80190E44.svg" xlink:title="rwrp.func_80190E44">
<ellipse fill="red" stroke="black" cx="2323.84" cy="-198" rx="108.58" ry="18"/>
<text text-anchor="middle" x="2323.84" y="-194.3" font-family="Times,serif" font-size="14.00">rwrp.func_80190E44</text>
</a>
</g>
</g>
<!-- rwrp.func_80190E44&#45;&gt;rwrp.InitializeEntity -->
<g id="edge10" class="edge">
<title>rwrp.func_80190E44&#45;&gt;rwrp.InitializeEntity</title>
<path fill="none" stroke="black" d="M2345.85,-180.25C2387.93,-148.25 2479.81,-78.36 2527.6,-42"/>
<polygon fill="black" stroke="black" points="2529.87,-44.67 2535.71,-35.83 2525.64,-39.1 2529.87,-44.67"/>
<text text-anchor="middle" x="2340.85" y="-169.05" font-family="Times,serif" font-size="14.00">1</text>
</g>
<!-- rwrp.func_8018F814 -->
<g id="node12" class="node">
<title>rwrp.func_8018F814</title>
<g id="a_node12"><a xlink:href="rwrp.func_8018F814.svg" xlink:title="rwrp.func_8018F814">
<ellipse fill="red" stroke="black" cx="2557.84" cy="-198" rx="107.78" ry="18"/>
<text text-anchor="middle" x="2557.84" y="-194.3" font-family="Times,serif" font-size="14.00">rwrp.func_8018F814</text>
</a>
</g>
</g>
<!-- rwrp.func_8018F814&#45;&gt;rwrp.InitializeEntity -->
<g id="edge11" class="edge">
<title>rwrp.func_8018F814&#45;&gt;rwrp.InitializeEntity</title>
<path fill="none" stroke="black" d="M2557.84,-179.93C2557.84,-148.97 2557.84,-83.3 2557.84,-46.13"/>
<polygon fill="black" stroke="black" points="2561.34,-46.02 2557.84,-36.02 2554.34,-46.02 2561.34,-46.02"/>
<text text-anchor="middle" x="2552.84" y="-168.73" font-family="Times,serif" font-size="14.00">1</text>
</g>
<!-- rwrp.func_8019024C -->
<g id="node13" class="node">
<title>rwrp.func_8019024C</title>
<g id="a_node13"><a xlink:href="rwrp.func_8019024C.svg" xlink:title="rwrp.func_8019024C">
<ellipse fill="red" stroke="black" cx="2791.84" cy="-198" rx="108.58" ry="18"/>
<text text-anchor="middle" x="2791.84" y="-194.3" font-family="Times,serif" font-size="14.00">rwrp.func_8019024C</text>
</a>
</g>
</g>
<!-- rwrp.func_8019024C&#45;&gt;rwrp.InitializeEntity -->
<g id="edge12" class="edge">
<title>rwrp.func_8019024C&#45;&gt;rwrp.InitializeEntity</title>
<path fill="none" stroke="black" d="M2769.83,-180.25C2727.75,-148.25 2635.87,-78.36 2588.08,-42"/>
<polygon fill="black" stroke="black" points="2590.04,-39.1 2579.97,-35.83 2585.81,-44.67 2590.04,-39.1"/>
<text text-anchor="middle" x="2764.83" y="-169.05" font-family="Times,serif" font-size="14.00">1</text>
</g>
<!-- rwrp.EntitySoulStealOrb -->
<g id="node14" class="node">
<title>rwrp.EntitySoulStealOrb</title>
<g id="a_node14"><a xlink:href="rwrp.EntitySoulStealOrb.svg" xlink:title="rwrp.EntitySoulStealOrb">
<ellipse fill="green" stroke="black" cx="3044.84" cy="-198" rx="126.98" ry="18"/>
<text text-anchor="middle" x="3044.84" y="-194.3" font-family="Times,serif" font-size="14.00">rwrp.EntitySoulStealOrb</text>
</a>
</g>
</g>
<!-- rwrp.EntitySoulStealOrb&#45;&gt;rwrp.InitializeEntity -->
<g id="edge13" class="edge">
<title>rwrp.EntitySoulStealOrb&#45;&gt;rwrp.InitializeEntity</title>
<path fill="none" stroke="black" d="M3001.19,-181.05C2911.47,-148.25 2706.66,-73.39 2610.08,-38.09"/>
<polygon fill="black" stroke="black" points="2611.11,-34.74 2600.52,-34.6 2608.71,-41.32 2611.11,-34.74"/>
<text text-anchor="middle" x="2996.19" y="-169.85" font-family="Times,serif" font-size="14.00">1</text>
</g>
<!-- rwrp.func_8018C948 -->
<g id="node15" class="node">
<title>rwrp.func_8018C948</title>
<g id="a_node15"><a xlink:href="rwrp.func_8018C948.svg" xlink:title="rwrp.func_8018C948">
<ellipse fill="red" stroke="black" cx="3297.84" cy="-198" rx="108.58" ry="18"/>
<text text-anchor="middle" x="3297.84" y="-194.3" font-family="Times,serif" font-size="14.00">rwrp.func_8018C948</text>
</a>
</g>
</g>
<!-- rwrp.func_8018C948&#45;&gt;rwrp.InitializeEntity -->
<g id="edge14" class="edge">
<title>rwrp.func_8018C948&#45;&gt;rwrp.InitializeEntity</title>
<path fill="none" stroke="black" d="M3238.84,-182.81C3103.34,-150.21 2770.44,-70.14 2626.26,-35.46"/>
<polygon fill="black" stroke="black" points="2626.75,-31.98 2616.21,-33.04 2625.11,-38.78 2626.75,-31.98"/>
<text text-anchor="middle" x="3233.84" y="-171.61" font-family="Times,serif" font-size="14.00">1</text>
</g>
<!-- rwrp.func_80191490 -->
<g id="node16" class="node">
<title>rwrp.func_80191490</title>
<g id="a_node16"><a xlink:href="rwrp.func_80191490.svg" xlink:title="rwrp.func_80191490">
<ellipse fill="red" stroke="black" cx="3531.84" cy="-198" rx="107.48" ry="18"/>
<text text-anchor="middle" x="3531.84" y="-194.3" font-family="Times,serif" font-size="14.00">rwrp.func_80191490</text>
</a>
</g>
</g>
<!-- rwrp.func_80191490&#45;&gt;rwrp.InitializeEntity -->
<g id="edge15" class="edge">
<title>rwrp.func_80191490&#45;&gt;rwrp.InitializeEntity</title>
<path fill="none" stroke="black" d="M3462.18,-184.27C3285.93,-152.06 2823.08,-67.47 2636.99,-33.46"/>
<polygon fill="black" stroke="black" points="2637.47,-29.99 2627,-31.64 2636.21,-36.88 2637.47,-29.99"/>
<text text-anchor="middle" x="3457.18" y="-173.07" font-family="Times,serif" font-size="14.00">1</text>
</g>
<!-- rwrp.EntityPrizeDrop -->
<g id="node17" class="node">
<title>rwrp.EntityPrizeDrop</title>
<g id="a_node17"><a xlink:href="rwrp.EntityPrizeDrop.svg" xlink:title="rwrp.EntityPrizeDrop">
<ellipse fill="red" stroke="black" cx="3768.84" cy="-198" rx="111.58" ry="18"/>
<text text-anchor="middle" x="3768.84" y="-194.3" font-family="Times,serif" font-size="14.00">rwrp.EntityPrizeDrop</text>
</a>
</g>
</g>
<!-- rwrp.EntityPrizeDrop&#45;&gt;rwrp.InitializeEntity -->
<g id="edge16" class="edge">
<title>rwrp.EntityPrizeDrop&#45;&gt;rwrp.InitializeEntity</title>
<path fill="none" stroke="black" d="M3689.38,-185.32C3472.37,-153.42 2870.8,-65 2644.99,-31.81"/>
<polygon fill="black" stroke="black" points="2645.25,-28.31 2634.84,-30.32 2644.23,-35.24 2645.25,-28.31"/>
<text text-anchor="middle" x="3684.38" y="-174.12" font-family="Times,serif" font-size="14.00">1</text>
</g>
<!-- rwrp.func_80194DD4 -->
<g id="node18" class="node">
<title>rwrp.func_80194DD4</title>
<g id="a_node18"><a xlink:href="rwrp.func_80194DD4.svg" xlink:title="rwrp.func_80194DD4">
<ellipse fill="green" stroke="black" cx="4008.84" cy="-198" rx="110.48" ry="18"/>
<text text-anchor="middle" x="4008.84" y="-194.3" font-family="Times,serif" font-size="14.00">rwrp.func_80194DD4</text>
</a>
</g>
</g>
<!-- rwrp.func_80194DD4&#45;&gt;rwrp.InitializeEntity -->
<g id="edge17" class="edge">
<title>rwrp.func_80194DD4&#45;&gt;rwrp.InitializeEntity</title>
<path fill="none" stroke="black" d="M3929.5,-185.42C3916.26,-183.56 3902.67,-181.69 3889.84,-180 3426.66,-118.93 2871.65,-54.73 2653.01,-29.79"/>
<polygon fill="black" stroke="black" points="2653.18,-26.29 2642.85,-28.63 2652.39,-33.24 2653.18,-26.29"/>
<text text-anchor="middle" x="3924.5" y="-174.22" font-family="Times,serif" font-size="14.00">1</text>
</g>
<!-- rwrp.EntityIntenseExplosion -->
<g id="node19" class="node">
<title>rwrp.EntityIntenseExplosion</title>
<g id="a_node19"><a xlink:href="rwrp.EntityIntenseExplosion.svg" xlink:title="rwrp.EntityIntenseExplosion">
<ellipse fill="green" stroke="black" cx="4281.84" cy="-198" rx="144.87" ry="18"/>
<text text-anchor="middle" x="4281.84" y="-194.3" font-family="Times,serif" font-size="14.00">rwrp.EntityIntenseExplosion</text>
</a>
</g>
</g>
<!-- rwrp.EntityIntenseExplosion&#45;&gt;rwrp.InitializeEntity -->
<g id="edge18" class="edge">
<title>rwrp.EntityIntenseExplosion&#45;&gt;rwrp.InitializeEntity</title>
<path fill="none" stroke="black" d="M4177.89,-185.41C4161.16,-183.58 4144.02,-181.72 4127.84,-180 3571.56,-120.77 2903.96,-53.61 2656.44,-28.84"/>
<polygon fill="black" stroke="black" points="2656.69,-25.35 2646.39,-27.84 2655.99,-32.32 2656.69,-25.35"/>
<text text-anchor="middle" x="4172.89" y="-174.21" font-family="Times,serif" font-size="14.00">1</text>
</g>
<!-- rwrp.func_80192594 -->
<g id="node20" class="node">
<title>rwrp.func_80192594</title>
<g id="a_node20"><a xlink:href="rwrp.func_80192594.svg" xlink:title="rwrp.func_80192594">
<ellipse fill="red" stroke="black" cx="4551.84" cy="-198" rx="107.48" ry="18"/>
<text text-anchor="middle" x="4551.84" y="-194.3" font-family="Times,serif" font-size="14.00">rwrp.func_80192594</text>
</a>
</g>
</g>
<!-- rwrp.func_80192594&#45;&gt;rwrp.InitializeEntity -->
<g id="edge19" class="edge">
<title>rwrp.func_80192594&#45;&gt;rwrp.InitializeEntity</title>
<path fill="none" stroke="black" d="M4476.11,-185.23C4462.71,-183.34 4448.88,-181.51 4435.84,-180 3763.56,-101.99 2951.8,-44.95 2664.71,-25.91"/>
<polygon fill="black" stroke="black" points="2664.52,-22.39 2654.31,-25.22 2664.05,-29.37 2664.52,-22.39"/>
<text text-anchor="middle" x="4471.11" y="-174.03" font-family="Times,serif" font-size="14.00">1</text>
</g>
<!-- rwrp.func_80192348 -->
<g id="node21" class="node">
<title>rwrp.func_80192348</title>
<g id="a_node21"><a xlink:href="rwrp.func_80192348.svg" xlink:title="rwrp.func_80192348">
<ellipse fill="red" stroke="black" cx="4783.84" cy="-198" rx="107.48" ry="18"/>
<text text-anchor="middle" x="4783.84" y="-194.3" font-family="Times,serif" font-size="14.00">rwrp.func_80192348</text>
</a>
</g>
</g>
<!-- rwrp.func_80192348&#45;&gt;rwrp.InitializeEntity -->
<g id="edge20" class="edge">
<title>rwrp.func_80192348&#45;&gt;rwrp.InitializeEntity</title>
<path fill="none" stroke="black" d="M4708.44,-185.18C4694.94,-183.28 4680.99,-181.46 4667.84,-180 3904.26,-95.02 2980.17,-41.44 2667.36,-24.67"/>
<polygon fill="black" stroke="black" points="2667.11,-21.15 2656.94,-24.11 2666.74,-28.14 2667.11,-21.15"/>
<text text-anchor="middle" x="4703.44" y="-173.98" font-family="Times,serif" font-size="14.00">1</text>
</g>
<!-- rwrp.func_8019390C -->
<g id="node22" class="node">
<title>rwrp.func_8019390C</title>
<g id="a_node22"><a xlink:href="rwrp.func_8019390C.svg" xlink:title="rwrp.func_8019390C">
<ellipse fill="red" stroke="black" cx="5017.84" cy="-198" rx="108.58" ry="18"/>
<text text-anchor="middle" x="5017.84" y="-194.3" font-family="Times,serif" font-size="14.00">rwrp.func_8019390C</text>
</a>
</g>
</g>
<!-- rwrp.func_8019390C&#45;&gt;rwrp.InitializeEntity -->
<g id="edge21" class="edge">
<title>rwrp.func_8019390C&#45;&gt;rwrp.InitializeEntity</title>
<path fill="none" stroke="black" d="M4941.46,-185.15C4927.63,-183.24 4913.32,-181.43 4899.84,-180 4043.7,-89.03 3005.76,-38.56 2669.03,-23.7"/>
<polygon fill="black" stroke="black" points="2668.94,-20.19 2658.8,-23.25 2668.63,-27.19 2668.94,-20.19"/>
<text text-anchor="middle" x="4936.46" y="-173.95" font-family="Times,serif" font-size="14.00">1</text>
</g>
</g>
</svg>
