<?xml version="1.0" encoding="UTF-8" standalone="no"?>
<!DOCTYPE svg PUBLIC "-//W3C//DTD SVG 1.1//EN"
 "http://www.w3.org/Graphics/SVG/1.1/DTD/svg11.dtd">
<!-- Generated by graphviz version 2.43.0 (0)
 -->
<!-- Title: sel.func_801B2670 Pages: 1 -->
<svg width="691pt" height="224pt"
 viewBox="0.00 0.00 691.48 224.00" xmlns="http://www.w3.org/2000/svg" xmlns:xlink="http://www.w3.org/1999/xlink">
<g id="graph0" class="graph" transform="scale(1 1) rotate(0) translate(4 220)">
<title>sel.func_801B2670</title>
<polygon fill="white" stroke="transparent" points="-4,4 -4,-220 687.48,-220 687.48,4 -4,4"/>
<!-- sel.func_801B2670 -->
<g id="node1" class="node">
<title>sel.func_801B2670</title>
<ellipse fill="green" stroke="black" cx="341.74" cy="-18" rx="98.58" ry="18"/>
<text text-anchor="middle" x="341.74" y="-14.3" font-family="Times,serif" font-size="14.00">sel.func_801B2670</text>
</g>
<!-- sel.func_801AEB74 -->
<g id="node2" class="node">
<title>sel.func_801AEB74</title>
<g id="a_node2"><a xlink:href="sel.func_801AEB74.svg" xlink:title="sel.func_801AEB74">
<ellipse fill="red" stroke="black" cx="100.74" cy="-198" rx="100.98" ry="18"/>
<text text-anchor="middle" x="100.74" y="-194.3" font-family="Times,serif" font-size="14.00">sel.func_801AEB74</text>
</a>
</g>
</g>
<!-- sel.func_801AEB74&#45;&gt;sel.func_801B2670 -->
<g id="edge1" class="edge">
<title>sel.func_801AEB74&#45;&gt;sel.func_801B2670</title>
<path fill="none" stroke="black" d="M123.41,-180.25C166.86,-148.17 261.86,-78 310.97,-41.72"/>
<polygon fill="black" stroke="black" points="313.34,-44.33 319.3,-35.57 309.18,-38.7 313.34,-44.33"/>
<text text-anchor="middle" x="118.41" y="-169.05" font-family="Times,serif" font-size="14.00">1</text>
</g>
<!-- sel.DrawNavigationTips -->
<g id="node3" class="node">
<title>sel.DrawNavigationTips</title>
<g id="a_node3"><a xlink:href="sel.DrawNavigationTips.svg" xlink:title="sel.DrawNavigationTips">
<ellipse fill="green" stroke="black" cx="341.74" cy="-198" rx="122.38" ry="18"/>
<text text-anchor="middle" x="341.74" y="-194.3" font-family="Times,serif" font-size="14.00">sel.DrawNavigationTips</text>
</a>
</g>
</g>
<!-- sel.DrawNavigationTips&#45;&gt;sel.func_801B2670 -->
<g id="edge2" class="edge">
<title>sel.DrawNavigationTips&#45;&gt;sel.func_801B2670</title>
<path fill="none" stroke="black" d="M341.74,-179.93C341.74,-148.97 341.74,-83.3 341.74,-46.13"/>
<polygon fill="black" stroke="black" points="345.24,-46.02 341.74,-36.02 338.24,-46.02 345.24,-46.02"/>
<text text-anchor="middle" x="332.24" y="-168.73" font-family="Times,serif" font-size="14.00">10</text>
</g>
<!-- sel.func_801AEA8C -->
<g id="node4" class="node">
<title>sel.func_801AEA8C</title>
<g id="a_node4"><a xlink:href="sel.func_801AEA8C.svg" xlink:title="sel.func_801AEA8C">
<ellipse fill="green" stroke="black" cx="582.74" cy="-198" rx="100.98" ry="18"/>
<text text-anchor="middle" x="582.74" y="-194.3" font-family="Times,serif" font-size="14.00">sel.func_801AEA8C</text>
</a>
</g>
</g>
<!-- sel.func_801AEA8C&#45;&gt;sel.func_801B2670 -->
<g id="edge3" class="edge">
<title>sel.func_801AEA8C&#45;&gt;sel.func_801B2670</title>
<path fill="none" stroke="black" d="M560.07,-180.25C516.63,-148.17 421.62,-78 372.51,-41.72"/>
<polygon fill="black" stroke="black" points="374.3,-38.7 364.18,-35.57 370.14,-44.33 374.3,-38.7"/>
<text text-anchor="middle" x="555.07" y="-169.05" font-family="Times,serif" font-size="14.00">1</text>
</g>
</g>
</svg>
