<?xml version="1.0" encoding="UTF-8" standalone="no"?>
<!DOCTYPE svg PUBLIC "-//W3C//DTD SVG 1.1//EN"
 "http://www.w3.org/Graphics/SVG/1.1/DTD/svg11.dtd">
<!-- Generated by graphviz version 2.43.0 (0)
 -->
<!-- Title: sel.func_801B519C Pages: 1 -->
<svg width="334pt" height="404pt"
 viewBox="0.00 0.00 334.04 404.00" xmlns="http://www.w3.org/2000/svg" xmlns:xlink="http://www.w3.org/1999/xlink">
<g id="graph0" class="graph" transform="scale(1 1) rotate(0) translate(4 400)">
<title>sel.func_801B519C</title>
<polygon fill="white" stroke="transparent" points="-4,4 -4,-400 330.04,-400 330.04,4 -4,4"/>
<!-- sel.func_801B519C -->
<g id="node1" class="node">
<title>sel.func_801B519C</title>
<ellipse fill="red" stroke="black" cx="185.44" cy="-198" rx="100.18" ry="18"/>
<text text-anchor="middle" x="185.44" y="-194.3" font-family="Times,serif" font-size="14.00">sel.func_801B519C</text>
</g>
<!-- dra.AllocPrimitives -->
<g id="node2" class="node">
<title>dra.AllocPrimitives</title>
<g id="a_node2"><a xlink:href="dra.AllocPrimitives.svg" xlink:title="dra.AllocPrimitives">
<ellipse fill="green" stroke="black" cx="99.44" cy="-18" rx="99.38" ry="18"/>
<text text-anchor="middle" x="99.44" y="-14.3" font-family="Times,serif" font-size="14.00">dra.AllocPrimitives</text>
</a>
</g>
</g>
<!-- sel.func_801B519C&#45;&gt;dra.AllocPrimitives -->
<g id="edge1" class="edge">
<title>sel.func_801B519C&#45;&gt;dra.AllocPrimitives</title>
<path fill="none" stroke="black" d="M177.2,-179.93C162.11,-148.7 129.96,-82.17 112.09,-45.18"/>
<polygon fill="black" stroke="black" points="115.16,-43.5 107.66,-36.02 108.86,-46.54 115.16,-43.5"/>
<text text-anchor="middle" x="102.66" y="-39.82" font-family="Times,serif" font-size="14.00">1</text>
</g>
<!-- main.rsin -->
<g id="node3" class="node">
<title>main.rsin</title>
<g id="a_node3"><a xlink:href="main.rsin.svg" xlink:title="main.rsin">
<ellipse fill="green" stroke="black" cx="271.44" cy="-18" rx="54.69" ry="18"/>
<text text-anchor="middle" x="271.44" y="-14.3" font-family="Times,serif" font-size="14.00">main.rsin</text>
</a>
</g>
</g>
<!-- sel.func_801B519C&#45;&gt;main.rsin -->
<g id="edge2" class="edge">
<title>sel.func_801B519C&#45;&gt;main.rsin</title>
<path fill="none" stroke="black" d="M193.69,-179.93C208.78,-148.7 240.92,-82.17 258.79,-45.18"/>
<polygon fill="black" stroke="black" points="262.02,-46.54 263.22,-36.02 255.72,-43.5 262.02,-46.54"/>
<text text-anchor="middle" x="258.22" y="-39.82" font-family="Times,serif" font-size="14.00">1</text>
</g>
<!-- sel.func_801B60D4 -->
<g id="node4" class="node">
<title>sel.func_801B60D4</title>
<g id="a_node4"><a xlink:href="sel.func_801B60D4.svg" xlink:title="sel.func_801B60D4">
<ellipse fill="green" stroke="black" cx="185.44" cy="-378" rx="100.98" ry="18"/>
<text text-anchor="middle" x="185.44" y="-374.3" font-family="Times,serif" font-size="14.00">sel.func_801B60D4</text>
</a>
</g>
</g>
<!-- sel.func_801B60D4&#45;&gt;sel.func_801B519C -->
<g id="edge3" class="edge">
<title>sel.func_801B60D4&#45;&gt;sel.func_801B519C</title>
<path fill="none" stroke="black" d="M185.44,-359.93C185.44,-328.97 185.44,-263.3 185.44,-226.13"/>
<polygon fill="black" stroke="black" points="188.94,-226.02 185.44,-216.02 181.94,-226.02 188.94,-226.02"/>
<text text-anchor="middle" x="180.44" y="-348.73" font-family="Times,serif" font-size="14.00">1</text>
</g>
</g>
</svg>
