<?xml version="1.0" encoding="UTF-8" standalone="no"?>
<!DOCTYPE svg PUBLIC "-//W3C//DTD SVG 1.1//EN"
 "http://www.w3.org/Graphics/SVG/1.1/DTD/svg11.dtd">
<!-- Generated by graphviz version 2.43.0 (0)
 -->
<!-- Title: sel.func_801B3164 Pages: 1 -->
<svg width="2308pt" height="404pt"
 viewBox="0.00 0.00 2307.84 404.00" xmlns="http://www.w3.org/2000/svg" xmlns:xlink="http://www.w3.org/1999/xlink">
<g id="graph0" class="graph" transform="scale(1 1) rotate(0) translate(4 400)">
<title>sel.func_801B3164</title>
<polygon fill="white" stroke="transparent" points="-4,4 -4,-400 2303.84,-400 2303.84,4 -4,4"/>
<!-- sel.func_801B3164 -->
<g id="node1" class="node">
<title>sel.func_801B3164</title>
<ellipse fill="red" stroke="black" cx="1112.05" cy="-198" rx="98.58" ry="18"/>
<text text-anchor="middle" x="1112.05" y="-194.3" font-family="Times,serif" font-size="14.00">sel.func_801B3164</text>
</g>
<!-- FntPrint -->
<g id="node2" class="node">
<title>FntPrint</title>
<g id="a_node2"><a xlink:href="FntPrint.svg" xlink:title="FntPrint">
<ellipse fill="lightblue" stroke="black" cx="50.05" cy="-18" rx="50.09" ry="18"/>
<text text-anchor="middle" x="50.05" y="-14.3" font-family="Times,serif" font-size="14.00">FntPrint</text>
</a>
</g>
</g>
<!-- sel.func_801B3164&#45;&gt;FntPrint -->
<g id="edge1" class="edge">
<title>sel.func_801B3164&#45;&gt;FntPrint</title>
<path fill="none" stroke="black" d="M1031.78,-187.48C860.86,-166.47 448.76,-111.91 109.05,-36 104.95,-35.08 100.72,-34.05 96.49,-32.95"/>
<polygon fill="black" stroke="black" points="97.26,-29.53 86.69,-30.3 95.43,-36.29 97.26,-29.53"/>
<text text-anchor="middle" x="81.69" y="-34.1" font-family="Times,serif" font-size="14.00">2</text>
</g>
<!-- sel.MemcardReadFile -->
<g id="node3" class="node">
<title>sel.MemcardReadFile</title>
<g id="a_node3"><a xlink:href="sel.MemcardReadFile.svg" xlink:title="sel.MemcardReadFile">
<ellipse fill="green" stroke="black" cx="230.05" cy="-18" rx="111.58" ry="18"/>
<text text-anchor="middle" x="230.05" y="-14.3" font-family="Times,serif" font-size="14.00">sel.MemcardReadFile</text>
</a>
</g>
</g>
<!-- sel.func_801B3164&#45;&gt;sel.MemcardReadFile -->
<g id="edge2" class="edge">
<title>sel.func_801B3164&#45;&gt;sel.MemcardReadFile</title>
<path fill="none" stroke="black" d="M1048.61,-184.2C890.32,-152.25 478.3,-69.1 306.75,-34.48"/>
<polygon fill="black" stroke="black" points="307.28,-31.02 296.79,-32.47 305.9,-37.88 307.28,-31.02"/>
<text text-anchor="middle" x="291.79" y="-36.27" font-family="Times,serif" font-size="14.00">1</text>
</g>
<!-- sel.func_801B2E5C -->
<g id="node4" class="node">
<title>sel.func_801B2E5C</title>
<g id="a_node4"><a xlink:href="sel.func_801B2E5C.svg" xlink:title="sel.func_801B2E5C">
<ellipse fill="red" stroke="black" cx="461.05" cy="-18" rx="100.98" ry="18"/>
<text text-anchor="middle" x="461.05" y="-14.3" font-family="Times,serif" font-size="14.00">sel.func_801B2E5C</text>
</a>
</g>
</g>
<!-- sel.func_801B3164&#45;&gt;sel.func_801B2E5C -->
<g id="edge3" class="edge">
<title>sel.func_801B3164&#45;&gt;sel.func_801B2E5C</title>
<path fill="none" stroke="black" d="M1059.6,-182.66C940.75,-150.16 651.36,-71.04 523.52,-36.08"/>
<polygon fill="black" stroke="black" points="524.43,-32.7 513.86,-33.44 522.59,-39.46 524.43,-32.7"/>
<text text-anchor="middle" x="508.86" y="-37.24" font-family="Times,serif" font-size="14.00">2</text>
</g>
<!-- sel.func_801B2F50 -->
<g id="node5" class="node">
<title>sel.func_801B2F50</title>
<g id="a_node5"><a xlink:href="sel.func_801B2F50.svg" xlink:title="sel.func_801B2F50">
<ellipse fill="red" stroke="black" cx="679.05" cy="-18" rx="99.38" ry="18"/>
<text text-anchor="middle" x="679.05" y="-14.3" font-family="Times,serif" font-size="14.00">sel.func_801B2F50</text>
</a>
</g>
</g>
<!-- sel.func_801B3164&#45;&gt;sel.func_801B2F50 -->
<g id="edge4" class="edge">
<title>sel.func_801B3164&#45;&gt;sel.func_801B2F50</title>
<path fill="none" stroke="black" d="M1074,-181.36C994.93,-148.86 813.04,-74.08 726.48,-38.5"/>
<polygon fill="black" stroke="black" points="727.74,-35.23 717.16,-34.67 725.08,-41.71 727.74,-35.23"/>
<text text-anchor="middle" x="712.16" y="-38.47" font-family="Times,serif" font-size="14.00">1</text>
</g>
<!-- sel.func_801B84F0 -->
<g id="node6" class="node">
<title>sel.func_801B84F0</title>
<g id="a_node6"><a xlink:href="sel.func_801B84F0.svg" xlink:title="sel.func_801B84F0">
<ellipse fill="green" stroke="black" cx="896.05" cy="-18" rx="99.38" ry="18"/>
<text text-anchor="middle" x="896.05" y="-14.3" font-family="Times,serif" font-size="14.00">sel.func_801B84F0</text>
</a>
</g>
</g>
<!-- sel.func_801B3164&#45;&gt;sel.func_801B84F0 -->
<g id="edge5" class="edge">
<title>sel.func_801B3164&#45;&gt;sel.func_801B84F0</title>
<path fill="none" stroke="black" d="M1091.72,-180.25C1052.97,-148.32 968.43,-78.65 924.23,-42.23"/>
<polygon fill="black" stroke="black" points="926.41,-39.49 916.47,-35.83 921.96,-44.89 926.41,-39.49"/>
<text text-anchor="middle" x="911.47" y="-39.63" font-family="Times,serif" font-size="14.00">5</text>
</g>
<!-- sel.func_801B8518 -->
<g id="node7" class="node">
<title>sel.func_801B8518</title>
<g id="a_node7"><a xlink:href="sel.func_801B8518.svg" xlink:title="sel.func_801B8518">
<ellipse fill="red" stroke="black" cx="1112.05" cy="-18" rx="98.58" ry="18"/>
<text text-anchor="middle" x="1112.05" y="-14.3" font-family="Times,serif" font-size="14.00">sel.func_801B8518</text>
</a>
</g>
</g>
<!-- sel.func_801B3164&#45;&gt;sel.func_801B8518 -->
<g id="edge6" class="edge">
<title>sel.func_801B3164&#45;&gt;sel.func_801B8518</title>
<path fill="none" stroke="black" d="M1112.05,-179.93C1112.05,-148.97 1112.05,-83.3 1112.05,-46.13"/>
<polygon fill="black" stroke="black" points="1115.55,-46.02 1112.05,-36.02 1108.55,-46.02 1115.55,-46.02"/>
<text text-anchor="middle" x="1107.05" y="-39.82" font-family="Times,serif" font-size="14.00">2</text>
</g>
<!-- sel.func_801B873C -->
<g id="node8" class="node">
<title>sel.func_801B873C</title>
<g id="a_node8"><a xlink:href="sel.func_801B873C.svg" xlink:title="sel.func_801B873C">
<ellipse fill="red" stroke="black" cx="1329.05" cy="-18" rx="100.18" ry="18"/>
<text text-anchor="middle" x="1329.05" y="-14.3" font-family="Times,serif" font-size="14.00">sel.func_801B873C</text>
</a>
</g>
</g>
<!-- sel.func_801B3164&#45;&gt;sel.func_801B873C -->
<g id="edge7" class="edge">
<title>sel.func_801B3164&#45;&gt;sel.func_801B873C</title>
<path fill="none" stroke="black" d="M1132.46,-180.25C1171.4,-148.32 1256.33,-78.65 1300.73,-42.23"/>
<polygon fill="black" stroke="black" points="1303.01,-44.88 1308.53,-35.83 1298.58,-39.47 1303.01,-44.88"/>
<text text-anchor="middle" x="1303.53" y="-39.63" font-family="Times,serif" font-size="14.00">2</text>
</g>
<!-- sel.func_801B881C -->
<g id="node9" class="node">
<title>sel.func_801B881C</title>
<g id="a_node9"><a xlink:href="sel.func_801B881C.svg" xlink:title="sel.func_801B881C">
<ellipse fill="red" stroke="black" cx="1547.05" cy="-18" rx="100.18" ry="18"/>
<text text-anchor="middle" x="1547.05" y="-14.3" font-family="Times,serif" font-size="14.00">sel.func_801B881C</text>
</a>
</g>
</g>
<!-- sel.func_801B3164&#45;&gt;sel.func_801B881C -->
<g id="edge8" class="edge">
<title>sel.func_801B3164&#45;&gt;sel.func_801B881C</title>
<path fill="none" stroke="black" d="M1150.27,-181.36C1229.7,-148.86 1412.44,-74.08 1499.39,-38.5"/>
<polygon fill="black" stroke="black" points="1500.83,-41.69 1508.75,-34.67 1498.17,-35.22 1500.83,-41.69"/>
<text text-anchor="middle" x="1503.75" y="-38.47" font-family="Times,serif" font-size="14.00">1</text>
</g>
<!-- sel.func_801B8A10 -->
<g id="node10" class="node">
<title>sel.func_801B8A10</title>
<g id="a_node10"><a xlink:href="sel.func_801B8A10.svg" xlink:title="sel.func_801B8A10">
<ellipse fill="green" stroke="black" cx="1765.05" cy="-18" rx="99.38" ry="18"/>
<text text-anchor="middle" x="1765.05" y="-14.3" font-family="Times,serif" font-size="14.00">sel.func_801B8A10</text>
</a>
</g>
</g>
<!-- sel.func_801B3164&#45;&gt;sel.func_801B8A10 -->
<g id="edge9" class="edge">
<title>sel.func_801B3164&#45;&gt;sel.func_801B8A10</title>
<path fill="none" stroke="black" d="M1164.65,-182.66C1284.01,-150.12 1574.86,-70.84 1702.85,-35.95"/>
<polygon fill="black" stroke="black" points="1703.79,-39.32 1712.52,-33.32 1701.95,-32.57 1703.79,-39.32"/>
<text text-anchor="middle" x="1707.52" y="-37.12" font-family="Times,serif" font-size="14.00">1</text>
</g>
<!-- sel.func_801B8A8C -->
<g id="node11" class="node">
<title>sel.func_801B8A8C</title>
<g id="a_node11"><a xlink:href="sel.func_801B8A8C.svg" xlink:title="sel.func_801B8A8C">
<ellipse fill="green" stroke="black" cx="1983.05" cy="-18" rx="100.98" ry="18"/>
<text text-anchor="middle" x="1983.05" y="-14.3" font-family="Times,serif" font-size="14.00">sel.func_801B8A8C</text>
</a>
</g>
</g>
<!-- sel.func_801B3164&#45;&gt;sel.func_801B8A8C -->
<g id="edge10" class="edge">
<title>sel.func_801B3164&#45;&gt;sel.func_801B8A8C</title>
<path fill="none" stroke="black" d="M1175.04,-184.13C1332.23,-152 1741.22,-68.42 1909.29,-34.07"/>
<polygon fill="black" stroke="black" points="1910.19,-37.46 1919.28,-32.03 1908.79,-30.6 1910.19,-37.46"/>
<text text-anchor="middle" x="1914.28" y="-35.83" font-family="Times,serif" font-size="14.00">2</text>
</g>
<!-- sel.func_801B9698 -->
<g id="node12" class="node">
<title>sel.func_801B9698</title>
<g id="a_node12"><a xlink:href="sel.func_801B9698.svg" xlink:title="sel.func_801B9698">
<ellipse fill="green" stroke="black" cx="2201.05" cy="-18" rx="98.58" ry="18"/>
<text text-anchor="middle" x="2201.05" y="-14.3" font-family="Times,serif" font-size="14.00">sel.func_801B9698</text>
</a>
</g>
</g>
<!-- sel.func_801B3164&#45;&gt;sel.func_801B9698 -->
<g id="edge11" class="edge">
<title>sel.func_801B3164&#45;&gt;sel.func_801B9698</title>
<path fill="none" stroke="black" d="M1183.08,-185.39C1376.97,-153.7 1914.49,-65.84 2119.85,-32.27"/>
<polygon fill="black" stroke="black" points="2120.66,-35.69 2129.96,-30.62 2119.53,-28.78 2120.66,-35.69"/>
<text text-anchor="middle" x="2124.96" y="-34.42" font-family="Times,serif" font-size="14.00">3</text>
</g>
<!-- sel.Update -->
<g id="node13" class="node">
<title>sel.Update</title>
<g id="a_node13"><a xlink:href="sel.Update.svg" xlink:title="sel.Update">
<ellipse fill="red" stroke="black" cx="1112.05" cy="-378" rx="61.19" ry="18"/>
<text text-anchor="middle" x="1112.05" y="-374.3" font-family="Times,serif" font-size="14.00">sel.Update</text>
</a>
</g>
</g>
<!-- sel.Update&#45;&gt;sel.func_801B3164 -->
<g id="edge12" class="edge">
<title>sel.Update&#45;&gt;sel.func_801B3164</title>
<path fill="none" stroke="black" d="M1112.05,-359.93C1112.05,-328.97 1112.05,-263.3 1112.05,-226.13"/>
<polygon fill="black" stroke="black" points="1115.55,-226.02 1112.05,-216.02 1108.55,-226.02 1115.55,-226.02"/>
<text text-anchor="middle" x="1107.05" y="-348.73" font-family="Times,serif" font-size="14.00">4</text>
</g>
</g>
</svg>
