<?xml version="1.0" encoding="UTF-8" standalone="no"?>
<!DOCTYPE svg PUBLIC "-//W3C//DTD SVG 1.1//EN"
 "http://www.w3.org/Graphics/SVG/1.1/DTD/svg11.dtd">
<!-- Generated by graphviz version 2.43.0 (0)
 -->
<!-- Title: sel.MemcardWriteFile Pages: 1 -->
<svg width="572pt" height="404pt"
 viewBox="0.00 0.00 571.54 404.00" xmlns="http://www.w3.org/2000/svg" xmlns:xlink="http://www.w3.org/1999/xlink">
<g id="graph0" class="graph" transform="scale(1 1) rotate(0) translate(4 400)">
<title>sel.MemcardWriteFile</title>
<polygon fill="white" stroke="transparent" points="-4,4 -4,-400 567.54,-400 567.54,4 -4,4"/>
<!-- sel.MemcardWriteFile -->
<g id="node1" class="node">
<title>sel.MemcardWriteFile</title>
<ellipse fill="green" stroke="black" cx="272.45" cy="-198" rx="113.98" ry="18"/>
<text text-anchor="middle" x="272.45" y="-194.3" font-family="Times,serif" font-size="14.00">sel.MemcardWriteFile</text>
</g>
<!-- close -->
<g id="node2" class="node">
<title>close</title>
<g id="a_node2"><a xlink:href="close.svg" xlink:title="close">
<ellipse fill="lightblue" stroke="black" cx="34.45" cy="-18" rx="34.39" ry="18"/>
<text text-anchor="middle" x="34.45" y="-14.3" font-family="Times,serif" font-size="14.00">close</text>
</a>
</g>
</g>
<!-- sel.MemcardWriteFile&#45;&gt;close -->
<g id="edge1" class="edge">
<title>sel.MemcardWriteFile&#45;&gt;close</title>
<path fill="none" stroke="black" d="M250.06,-180.25C206.26,-147.5 109.41,-75.07 61.87,-39.51"/>
<polygon fill="black" stroke="black" points="63.69,-36.5 53.59,-33.31 59.5,-42.11 63.69,-36.5"/>
<text text-anchor="middle" x="48.59" y="-37.11" font-family="Times,serif" font-size="14.00">1</text>
</g>
<!-- open -->
<g id="node3" class="node">
<title>open</title>
<g id="a_node3"><a xlink:href="open.svg" xlink:title="open">
<ellipse fill="lightblue" stroke="black" cx="120.45" cy="-18" rx="33.29" ry="18"/>
<text text-anchor="middle" x="120.45" y="-14.3" font-family="Times,serif" font-size="14.00">open</text>
</a>
</g>
</g>
<!-- sel.MemcardWriteFile&#45;&gt;open -->
<g id="edge2" class="edge">
<title>sel.MemcardWriteFile&#45;&gt;open</title>
<path fill="none" stroke="black" d="M257.87,-179.93C230.52,-147.9 171.45,-78.72 140.42,-42.38"/>
<polygon fill="black" stroke="black" points="143.04,-40.06 133.88,-34.73 137.71,-44.61 143.04,-40.06"/>
<text text-anchor="middle" x="128.88" y="-38.53" font-family="Times,serif" font-size="14.00">2</text>
</g>
<!-- sel.func_801B83BC -->
<g id="node4" class="node">
<title>sel.func_801B83BC</title>
<g id="a_node4"><a xlink:href="sel.func_801B83BC.svg" xlink:title="sel.func_801B83BC">
<ellipse fill="green" stroke="black" cx="272.45" cy="-18" rx="100.98" ry="18"/>
<text text-anchor="middle" x="272.45" y="-14.3" font-family="Times,serif" font-size="14.00">sel.func_801B83BC</text>
</a>
</g>
</g>
<!-- sel.MemcardWriteFile&#45;&gt;sel.func_801B83BC -->
<g id="edge3" class="edge">
<title>sel.MemcardWriteFile&#45;&gt;sel.func_801B83BC</title>
<path fill="none" stroke="black" d="M272.45,-179.93C272.45,-148.97 272.45,-83.3 272.45,-46.13"/>
<polygon fill="black" stroke="black" points="275.95,-46.02 272.45,-36.02 268.95,-46.02 275.95,-46.02"/>
<text text-anchor="middle" x="267.45" y="-39.82" font-family="Times,serif" font-size="14.00">1</text>
</g>
<!-- sprintf -->
<g id="node5" class="node">
<title>sprintf</title>
<g id="a_node5"><a xlink:href="sprintf.svg" xlink:title="sprintf">
<ellipse fill="lightblue" stroke="black" cx="433.45" cy="-18" rx="42.49" ry="18"/>
<text text-anchor="middle" x="433.45" y="-14.3" font-family="Times,serif" font-size="14.00">sprintf</text>
</a>
</g>
</g>
<!-- sel.MemcardWriteFile&#45;&gt;sprintf -->
<g id="edge4" class="edge">
<title>sel.MemcardWriteFile&#45;&gt;sprintf</title>
<path fill="none" stroke="black" d="M287.88,-179.93C316.79,-147.98 379.11,-79.07 412.05,-42.66"/>
<polygon fill="black" stroke="black" points="414.88,-44.75 418.99,-34.99 409.68,-40.05 414.88,-44.75"/>
<text text-anchor="middle" x="413.99" y="-38.79" font-family="Times,serif" font-size="14.00">1</text>
</g>
<!-- write -->
<g id="node6" class="node">
<title>write</title>
<g id="a_node6"><a xlink:href="write.svg" xlink:title="write">
<ellipse fill="lightblue" stroke="black" cx="528.45" cy="-18" rx="35.19" ry="18"/>
<text text-anchor="middle" x="528.45" y="-14.3" font-family="Times,serif" font-size="14.00">write</text>
</a>
</g>
</g>
<!-- sel.MemcardWriteFile&#45;&gt;write -->
<g id="edge5" class="edge">
<title>sel.MemcardWriteFile&#45;&gt;write</title>
<path fill="none" stroke="black" d="M296.53,-180.25C344.07,-147.2 449.72,-73.74 500.34,-38.54"/>
<polygon fill="black" stroke="black" points="502.34,-41.41 508.56,-32.83 498.35,-35.67 502.34,-41.41"/>
<text text-anchor="middle" x="503.56" y="-36.63" font-family="Times,serif" font-size="14.00">1</text>
</g>
<!-- sel.func_801B3A94 -->
<g id="node7" class="node">
<title>sel.func_801B3A94</title>
<g id="a_node7"><a xlink:href="sel.func_801B3A94.svg" xlink:title="sel.func_801B3A94">
<ellipse fill="red" stroke="black" cx="272.45" cy="-378" rx="99.38" ry="18"/>
<text text-anchor="middle" x="272.45" y="-374.3" font-family="Times,serif" font-size="14.00">sel.func_801B3A94</text>
</a>
</g>
</g>
<!-- sel.func_801B3A94&#45;&gt;sel.MemcardWriteFile -->
<g id="edge6" class="edge">
<title>sel.func_801B3A94&#45;&gt;sel.MemcardWriteFile</title>
<path fill="none" stroke="black" d="M272.45,-359.93C272.45,-328.97 272.45,-263.3 272.45,-226.13"/>
<polygon fill="black" stroke="black" points="275.95,-226.02 272.45,-216.02 268.95,-226.02 275.95,-226.02"/>
<text text-anchor="middle" x="267.45" y="-348.73" font-family="Times,serif" font-size="14.00">1</text>
</g>
</g>
</svg>
