<?xml version="1.0" encoding="UTF-8" standalone="no"?>
<!DOCTYPE svg PUBLIC "-//W3C//DTD SVG 1.1//EN"
 "http://www.w3.org/Graphics/SVG/1.1/DTD/svg11.dtd">
<!-- Generated by graphviz version 2.43.0 (0)
 -->
<!-- Title: sel.MemcardReadFile Pages: 1 -->
<svg width="659pt" height="404pt"
 viewBox="0.00 0.00 658.63 404.00" xmlns="http://www.w3.org/2000/svg" xmlns:xlink="http://www.w3.org/1999/xlink">
<g id="graph0" class="graph" transform="scale(1 1) rotate(0) translate(4 400)">
<title>sel.MemcardReadFile</title>
<polygon fill="white" stroke="transparent" points="-4,4 -4,-400 654.63,-400 654.63,4 -4,4"/>
<!-- sel.MemcardReadFile -->
<g id="node1" class="node">
<title>sel.MemcardReadFile</title>
<ellipse fill="green" stroke="black" cx="335.19" cy="-198" rx="111.58" ry="18"/>
<text text-anchor="middle" x="335.19" y="-194.3" font-family="Times,serif" font-size="14.00">sel.MemcardReadFile</text>
</g>
<!-- main.sprintf -->
<g id="node2" class="node">
<title>main.sprintf</title>
<g id="a_node2"><a xlink:href="main.sprintf.svg" xlink:title="main.sprintf">
<ellipse fill="red" stroke="black" cx="175.19" cy="-18" rx="67.69" ry="18"/>
<text text-anchor="middle" x="175.19" y="-14.3" font-family="Times,serif" font-size="14.00">main.sprintf</text>
</a>
</g>
</g>
<!-- sel.MemcardReadFile&#45;&gt;main.sprintf -->
<g id="edge1" class="edge">
<title>sel.MemcardReadFile&#45;&gt;main.sprintf</title>
<path fill="none" stroke="black" d="M319.85,-179.93C291.34,-148.22 230.13,-80.12 197.21,-43.5"/>
<polygon fill="black" stroke="black" points="199.54,-40.85 190.25,-35.76 194.33,-45.53 199.54,-40.85"/>
<text text-anchor="middle" x="185.25" y="-39.56" font-family="Times,serif" font-size="14.00">1</text>
</g>
<!-- open -->
<g id="node3" class="node">
<title>open</title>
<g id="a_node3"><a xlink:href="open.svg" xlink:title="open">
<ellipse fill="lightblue" stroke="black" cx="294.19" cy="-18" rx="33.29" ry="18"/>
<text text-anchor="middle" x="294.19" y="-14.3" font-family="Times,serif" font-size="14.00">open</text>
</a>
</g>
</g>
<!-- sel.MemcardReadFile&#45;&gt;open -->
<g id="edge2" class="edge">
<title>sel.MemcardReadFile&#45;&gt;open</title>
<path fill="none" stroke="black" d="M331.26,-179.93C324.13,-148.97 309,-83.3 300.44,-46.13"/>
<polygon fill="black" stroke="black" points="303.77,-44.97 298.11,-36.02 296.94,-46.55 303.77,-44.97"/>
<text text-anchor="middle" x="293.11" y="-39.82" font-family="Times,serif" font-size="14.00">1</text>
</g>
<!-- read -->
<g id="node4" class="node">
<title>read</title>
<g id="a_node4"><a xlink:href="read.svg" xlink:title="read">
<ellipse fill="lightblue" stroke="black" cx="377.19" cy="-18" rx="31.7" ry="18"/>
<text text-anchor="middle" x="377.19" y="-14.3" font-family="Times,serif" font-size="14.00">read</text>
</a>
</g>
</g>
<!-- sel.MemcardReadFile&#45;&gt;read -->
<g id="edge3" class="edge">
<title>sel.MemcardReadFile&#45;&gt;read</title>
<path fill="none" stroke="black" d="M339.22,-179.93C346.52,-148.97 362.02,-83.3 370.79,-46.13"/>
<polygon fill="black" stroke="black" points="374.29,-46.55 373.18,-36.02 367.47,-44.94 374.29,-46.55"/>
<text text-anchor="middle" x="368.18" y="-39.82" font-family="Times,serif" font-size="14.00">1</text>
</g>
<!-- sel.func_801B83BC -->
<g id="node5" class="node">
<title>sel.func_801B83BC</title>
<g id="a_node5"><a xlink:href="sel.func_801B83BC.svg" xlink:title="sel.func_801B83BC">
<ellipse fill="green" stroke="black" cx="528.19" cy="-18" rx="100.98" ry="18"/>
<text text-anchor="middle" x="528.19" y="-14.3" font-family="Times,serif" font-size="14.00">sel.func_801B83BC</text>
</a>
</g>
</g>
<!-- sel.MemcardReadFile&#45;&gt;sel.func_801B83BC -->
<g id="edge4" class="edge">
<title>sel.MemcardReadFile&#45;&gt;sel.func_801B83BC</title>
<path fill="none" stroke="black" d="M353.7,-179.93C388.37,-147.95 463.17,-78.97 502.62,-42.58"/>
<polygon fill="black" stroke="black" points="505.04,-45.11 510.02,-35.76 500.3,-39.96 505.04,-45.11"/>
<text text-anchor="middle" x="505.02" y="-39.56" font-family="Times,serif" font-size="14.00">1</text>
</g>
<!-- sel.TryLoadSaveData -->
<g id="node6" class="node">
<title>sel.TryLoadSaveData</title>
<g id="a_node6"><a xlink:href="sel.TryLoadSaveData.svg" xlink:title="sel.TryLoadSaveData">
<ellipse fill="green" stroke="black" cx="109.19" cy="-378" rx="109.38" ry="18"/>
<text text-anchor="middle" x="109.19" y="-374.3" font-family="Times,serif" font-size="14.00">sel.TryLoadSaveData</text>
</a>
</g>
</g>
<!-- sel.TryLoadSaveData&#45;&gt;sel.MemcardReadFile -->
<g id="edge5" class="edge">
<title>sel.TryLoadSaveData&#45;&gt;sel.MemcardReadFile</title>
<path fill="none" stroke="black" d="M130.45,-360.25C171,-328.32 259.46,-258.65 305.7,-222.23"/>
<polygon fill="black" stroke="black" points="308.13,-224.77 313.82,-215.83 303.8,-219.27 308.13,-224.77"/>
<text text-anchor="middle" x="125.45" y="-349.05" font-family="Times,serif" font-size="14.00">1</text>
</g>
<!-- sel.func_801B3164 -->
<g id="node7" class="node">
<title>sel.func_801B3164</title>
<g id="a_node7"><a xlink:href="sel.func_801B3164.svg" xlink:title="sel.func_801B3164">
<ellipse fill="red" stroke="black" cx="335.19" cy="-378" rx="98.58" ry="18"/>
<text text-anchor="middle" x="335.19" y="-374.3" font-family="Times,serif" font-size="14.00">sel.func_801B3164</text>
</a>
</g>
</g>
<!-- sel.func_801B3164&#45;&gt;sel.MemcardReadFile -->
<g id="edge6" class="edge">
<title>sel.func_801B3164&#45;&gt;sel.MemcardReadFile</title>
<path fill="none" stroke="black" d="M335.19,-359.93C335.19,-328.97 335.19,-263.3 335.19,-226.13"/>
<polygon fill="black" stroke="black" points="338.69,-226.02 335.19,-216.02 331.69,-226.02 338.69,-226.02"/>
<text text-anchor="middle" x="330.19" y="-348.73" font-family="Times,serif" font-size="14.00">1</text>
</g>
<!-- sel.func_801B3A94 -->
<g id="node8" class="node">
<title>sel.func_801B3A94</title>
<g id="a_node8"><a xlink:href="sel.func_801B3A94.svg" xlink:title="sel.func_801B3A94">
<ellipse fill="red" stroke="black" cx="551.19" cy="-378" rx="99.38" ry="18"/>
<text text-anchor="middle" x="551.19" y="-374.3" font-family="Times,serif" font-size="14.00">sel.func_801B3A94</text>
</a>
</g>
</g>
<!-- sel.func_801B3A94&#45;&gt;sel.MemcardReadFile -->
<g id="edge7" class="edge">
<title>sel.func_801B3A94&#45;&gt;sel.MemcardReadFile</title>
<path fill="none" stroke="black" d="M530.87,-360.25C492.11,-328.32 407.57,-258.65 363.38,-222.23"/>
<polygon fill="black" stroke="black" points="365.56,-219.49 355.61,-215.83 361.11,-224.89 365.56,-219.49"/>
<text text-anchor="middle" x="525.87" y="-349.05" font-family="Times,serif" font-size="14.00">1</text>
</g>
</g>
</svg>
