<?xml version="1.0" encoding="UTF-8" standalone="no"?>
<!DOCTYPE svg PUBLIC "-//W3C//DTD SVG 1.1//EN"
 "http://www.w3.org/Graphics/SVG/1.1/DTD/svg11.dtd">
<!-- Generated by graphviz version 2.43.0 (0)
 -->
<!-- Title: sel.func_801ACFBC Pages: 1 -->
<svg width="954pt" height="218pt"
 viewBox="0.00 0.00 953.58 218.00" xmlns="http://www.w3.org/2000/svg" xmlns:xlink="http://www.w3.org/1999/xlink">
<g id="graph0" class="graph" transform="scale(1 1) rotate(0) translate(4 214)">
<title>sel.func_801ACFBC</title>
<polygon fill="white" stroke="transparent" points="-4,4 -4,-214 949.58,-214 949.58,4 -4,4"/>
<!-- sel.func_801ACFBC -->
<g id="node1" class="node">
<title>sel.func_801ACFBC</title>
<ellipse fill="red" stroke="black" cx="409.79" cy="-105" rx="102.08" ry="18"/>
<text text-anchor="middle" x="409.79" y="-101.3" font-family="Times,serif" font-size="14.00">sel.func_801ACFBC</text>
</g>
<!-- sel.func_801B2984 -->
<g id="node2" class="node">
<title>sel.func_801B2984</title>
<g id="a_node2"><a xlink:href="sel.func_801B2984.svg" xlink:title="sel.func_801B2984">
<ellipse fill="green" stroke="black" cx="98.79" cy="-18" rx="98.58" ry="18"/>
<text text-anchor="middle" x="98.79" y="-14.3" font-family="Times,serif" font-size="14.00">sel.func_801B2984</text>
</a>
</g>
</g>
<!-- sel.func_801ACFBC&#45;&gt;sel.func_801B2984 -->
<g id="edge1" class="edge">
<title>sel.func_801ACFBC&#45;&gt;sel.func_801B2984</title>
<path fill="none" stroke="black" d="M357.03,-89.58C302.81,-74.76 218.41,-51.69 160.97,-36"/>
<polygon fill="black" stroke="black" points="161.86,-32.61 151.29,-33.35 160.01,-39.36 161.86,-32.61"/>
<text text-anchor="middle" x="278.79" y="-57.8" font-family="Times,serif" font-size="14.00">1</text>
</g>
<!-- strcat -->
<g id="node3" class="node">
<title>strcat</title>
<g id="a_node3"><a xlink:href="strcat.svg" xlink:title="strcat">
<ellipse fill="lightblue" stroke="black" cx="253.79" cy="-18" rx="38.19" ry="18"/>
<text text-anchor="middle" x="253.79" y="-14.3" font-family="Times,serif" font-size="14.00">strcat</text>
</a>
</g>
</g>
<!-- sel.func_801ACFBC&#45;&gt;strcat -->
<g id="edge2" class="edge">
<title>sel.func_801ACFBC&#45;&gt;strcat</title>
<path fill="none" stroke="black" d="M379.71,-87.61C353.14,-73.13 314.46,-52.06 287,-37.09"/>
<polygon fill="black" stroke="black" points="288.6,-33.98 278.14,-32.27 285.25,-40.13 288.6,-33.98"/>
<text text-anchor="middle" x="346.79" y="-57.8" font-family="Times,serif" font-size="14.00">1</text>
</g>
<!-- sel.func_801B263C -->
<g id="node4" class="node">
<title>sel.func_801B263C</title>
<g id="a_node4"><a xlink:href="sel.func_801B263C.svg" xlink:title="sel.func_801B263C">
<ellipse fill="green" stroke="black" cx="409.79" cy="-18" rx="100.18" ry="18"/>
<text text-anchor="middle" x="409.79" y="-14.3" font-family="Times,serif" font-size="14.00">sel.func_801B263C</text>
</a>
</g>
</g>
<!-- sel.func_801ACFBC&#45;&gt;sel.func_801B263C -->
<g id="edge3" class="edge">
<title>sel.func_801ACFBC&#45;&gt;sel.func_801B263C</title>
<path fill="none" stroke="black" d="M409.79,-86.8C409.79,-75.16 409.79,-59.55 409.79,-46.24"/>
<polygon fill="black" stroke="black" points="413.29,-46.18 409.79,-36.18 406.29,-46.18 413.29,-46.18"/>
<text text-anchor="middle" x="414.79" y="-57.8" font-family="Times,serif" font-size="14.00">1</text>
</g>
<!-- sel.func_801B25D4 -->
<g id="node5" class="node">
<title>sel.func_801B25D4</title>
<g id="a_node5"><a xlink:href="sel.func_801B25D4.svg" xlink:title="sel.func_801B25D4">
<ellipse fill="green" stroke="black" cx="628.79" cy="-18" rx="100.98" ry="18"/>
<text text-anchor="middle" x="628.79" y="-14.3" font-family="Times,serif" font-size="14.00">sel.func_801B25D4</text>
</a>
</g>
</g>
<!-- sel.func_801ACFBC&#45;&gt;sel.func_801B25D4 -->
<g id="edge4" class="edge">
<title>sel.func_801ACFBC&#45;&gt;sel.func_801B25D4</title>
<path fill="none" stroke="black" d="M449.96,-88.41C486.27,-74.32 539.87,-53.51 578.91,-38.36"/>
<polygon fill="black" stroke="black" points="580.45,-41.52 588.51,-34.64 577.92,-34.99 580.45,-41.52"/>
<text text-anchor="middle" x="536.79" y="-57.8" font-family="Times,serif" font-size="14.00">1</text>
</g>
<!-- sel.func_801B2608 -->
<g id="node6" class="node">
<title>sel.func_801B2608</title>
<g id="a_node6"><a xlink:href="sel.func_801B2608.svg" xlink:title="sel.func_801B2608">
<ellipse fill="green" stroke="black" cx="846.79" cy="-18" rx="98.58" ry="18"/>
<text text-anchor="middle" x="846.79" y="-14.3" font-family="Times,serif" font-size="14.00">sel.func_801B2608</text>
</a>
</g>
</g>
<!-- sel.func_801ACFBC&#45;&gt;sel.func_801B2608 -->
<g id="edge5" class="edge">
<title>sel.func_801ACFBC&#45;&gt;sel.func_801B2608</title>
<path fill="none" stroke="black" d="M475.69,-91.18C555.19,-75.72 688.54,-49.78 771.88,-33.57"/>
<polygon fill="black" stroke="black" points="772.64,-36.99 781.79,-31.64 771.3,-30.12 772.64,-36.99"/>
<text text-anchor="middle" x="658.79" y="-57.8" font-family="Times,serif" font-size="14.00">1</text>
</g>
<!-- sel.func_801AE6D0 -->
<g id="node7" class="node">
<title>sel.func_801AE6D0</title>
<g id="a_node7"><a xlink:href="sel.func_801AE6D0.svg" xlink:title="sel.func_801AE6D0">
<ellipse fill="red" stroke="black" cx="300.79" cy="-192" rx="100.98" ry="18"/>
<text text-anchor="middle" x="300.79" y="-188.3" font-family="Times,serif" font-size="14.00">sel.func_801AE6D0</text>
</a>
</g>
</g>
<!-- sel.func_801AE6D0&#45;&gt;sel.func_801ACFBC -->
<g id="edge6" class="edge">
<title>sel.func_801AE6D0&#45;&gt;sel.func_801ACFBC</title>
<path fill="none" stroke="black" d="M322.33,-174.21C338.9,-161.28 361.98,-143.28 380.27,-129.02"/>
<polygon fill="black" stroke="black" points="382.57,-131.67 388.3,-122.76 378.26,-126.15 382.57,-131.67"/>
<text text-anchor="middle" x="367.79" y="-144.8" font-family="Times,serif" font-size="14.00">1</text>
</g>
<!-- sel.func_801ADF94 -->
<g id="node8" class="node">
<title>sel.func_801ADF94</title>
<g id="a_node8"><a xlink:href="sel.func_801ADF94.svg" xlink:title="sel.func_801ADF94">
<ellipse fill="red" stroke="black" cx="519.79" cy="-192" rx="100.98" ry="18"/>
<text text-anchor="middle" x="519.79" y="-188.3" font-family="Times,serif" font-size="14.00">sel.func_801ADF94</text>
</a>
</g>
</g>
<!-- sel.func_801ADF94&#45;&gt;sel.func_801ACFBC -->
<g id="edge7" class="edge">
<title>sel.func_801ADF94&#45;&gt;sel.func_801ACFBC</title>
<path fill="none" stroke="black" d="M498.32,-174.41C481.62,-161.51 458.25,-143.45 439.72,-129.13"/>
<polygon fill="black" stroke="black" points="441.64,-126.18 431.58,-122.84 437.36,-131.72 441.64,-126.18"/>
<text text-anchor="middle" x="476.79" y="-144.8" font-family="Times,serif" font-size="14.00">1</text>
</g>
</g>
</svg>
