<?xml version="1.0" encoding="UTF-8" standalone="no"?>
<!DOCTYPE svg PUBLIC "-//W3C//DTD SVG 1.1//EN"
 "http://www.w3.org/Graphics/SVG/1.1/DTD/svg11.dtd">
<!-- Generated by graphviz version 2.43.0 (0)
 -->
<!-- Title: sel.func_801B988C Pages: 1 -->
<svg width="613pt" height="404pt"
 viewBox="0.00 0.00 612.93 404.00" xmlns="http://www.w3.org/2000/svg" xmlns:xlink="http://www.w3.org/1999/xlink">
<g id="graph0" class="graph" transform="scale(1 1) rotate(0) translate(4 400)">
<title>sel.func_801B988C</title>
<polygon fill="white" stroke="transparent" points="-4,4 -4,-400 608.93,-400 608.93,4 -4,4"/>
<!-- sel.func_801B988C -->
<g id="node1" class="node">
<title>sel.func_801B988C</title>
<ellipse fill="green" stroke="black" cx="319.74" cy="-198" rx="100.18" ry="18"/>
<text text-anchor="middle" x="319.74" y="-194.3" font-family="Times,serif" font-size="14.00">sel.func_801B988C</text>
</g>
<!-- sel.func_801B97BC -->
<g id="node2" class="node">
<title>sel.func_801B97BC</title>
<g id="a_node2"><a xlink:href="sel.func_801B97BC.svg" xlink:title="sel.func_801B97BC">
<ellipse fill="red" stroke="black" cx="100.74" cy="-18" rx="100.98" ry="18"/>
<text text-anchor="middle" x="100.74" y="-14.3" font-family="Times,serif" font-size="14.00">sel.func_801B97BC</text>
</a>
</g>
</g>
<!-- sel.func_801B988C&#45;&gt;sel.func_801B97BC -->
<g id="edge1" class="edge">
<title>sel.func_801B988C&#45;&gt;sel.func_801B97BC</title>
<path fill="none" stroke="black" d="M299.14,-180.25C259.84,-148.32 174.13,-78.65 129.32,-42.23"/>
<polygon fill="black" stroke="black" points="131.42,-39.42 121.45,-35.83 127,-44.85 131.42,-39.42"/>
<text text-anchor="middle" x="116.45" y="-39.63" font-family="Times,serif" font-size="14.00">1</text>
</g>
<!-- sel.func_801BABA4 -->
<g id="node3" class="node">
<title>sel.func_801BABA4</title>
<g id="a_node3"><a xlink:href="sel.func_801BABA4.svg" xlink:title="sel.func_801BABA4">
<ellipse fill="red" stroke="black" cx="319.74" cy="-18" rx="100.98" ry="18"/>
<text text-anchor="middle" x="319.74" y="-14.3" font-family="Times,serif" font-size="14.00">sel.func_801BABA4</text>
</a>
</g>
</g>
<!-- sel.func_801B988C&#45;&gt;sel.func_801BABA4 -->
<g id="edge2" class="edge">
<title>sel.func_801B988C&#45;&gt;sel.func_801BABA4</title>
<path fill="none" stroke="black" d="M319.74,-179.93C319.74,-148.97 319.74,-83.3 319.74,-46.13"/>
<polygon fill="black" stroke="black" points="323.24,-46.02 319.74,-36.02 316.24,-46.02 323.24,-46.02"/>
<text text-anchor="middle" x="314.74" y="-39.82" font-family="Times,serif" font-size="14.00">1</text>
</g>
<!-- func_8001C550 -->
<g id="node4" class="node">
<title>func_8001C550</title>
<g id="a_node4"><a xlink:href="func_8001C550.svg" xlink:title="func_8001C550">
<ellipse fill="lightblue" stroke="black" cx="521.74" cy="-18" rx="83.39" ry="18"/>
<text text-anchor="middle" x="521.74" y="-14.3" font-family="Times,serif" font-size="14.00">func_8001C550</text>
</a>
</g>
</g>
<!-- sel.func_801B988C&#45;&gt;func_8001C550 -->
<g id="edge3" class="edge">
<title>sel.func_801B988C&#45;&gt;func_8001C550</title>
<path fill="none" stroke="black" d="M338.74,-180.25C374.93,-148.37 453.8,-78.87 495.18,-42.4"/>
<polygon fill="black" stroke="black" points="497.75,-44.81 502.94,-35.57 493.12,-39.56 497.75,-44.81"/>
<text text-anchor="middle" x="497.94" y="-39.37" font-family="Times,serif" font-size="14.00">1</text>
</g>
<!-- sel.func_801B9C80 -->
<g id="node5" class="node">
<title>sel.func_801B9C80</title>
<g id="a_node5"><a xlink:href="sel.func_801B9C80.svg" xlink:title="sel.func_801B9C80">
<ellipse fill="red" stroke="black" cx="319.74" cy="-378" rx="100.18" ry="18"/>
<text text-anchor="middle" x="319.74" y="-374.3" font-family="Times,serif" font-size="14.00">sel.func_801B9C80</text>
</a>
</g>
</g>
<!-- sel.func_801B9C80&#45;&gt;sel.func_801B988C -->
<g id="edge4" class="edge">
<title>sel.func_801B9C80&#45;&gt;sel.func_801B988C</title>
<path fill="none" stroke="black" d="M319.74,-359.93C319.74,-328.97 319.74,-263.3 319.74,-226.13"/>
<polygon fill="black" stroke="black" points="323.24,-226.02 319.74,-216.02 316.24,-226.02 323.24,-226.02"/>
<text text-anchor="middle" x="314.74" y="-348.73" font-family="Times,serif" font-size="14.00">2</text>
</g>
</g>
</svg>
