<?xml version="1.0" encoding="UTF-8" standalone="no"?>
<!DOCTYPE svg PUBLIC "-//W3C//DTD SVG 1.1//EN"
 "http://www.w3.org/Graphics/SVG/1.1/DTD/svg11.dtd">
<!-- Generated by graphviz version 2.43.0 (0)
 -->
<!-- Title: sel.MemcardFormat Pages: 1 -->
<svg width="602pt" height="218pt"
 viewBox="0.00 0.00 601.89 218.00" xmlns="http://www.w3.org/2000/svg" xmlns:xlink="http://www.w3.org/1999/xlink">
<g id="graph0" class="graph" transform="scale(1 1) rotate(0) translate(4 214)">
<title>sel.MemcardFormat</title>
<polygon fill="white" stroke="transparent" points="-4,4 -4,-214 597.89,-214 597.89,4 -4,4"/>
<!-- sel.MemcardFormat -->
<g id="node1" class="node">
<title>sel.MemcardFormat</title>
<ellipse fill="red" stroke="black" cx="273.25" cy="-105" rx="104.78" ry="18"/>
<text text-anchor="middle" x="273.25" y="-101.3" font-family="Times,serif" font-size="14.00">sel.MemcardFormat</text>
</g>
<!-- sprintf -->
<g id="node2" class="node">
<title>sprintf</title>
<g id="a_node2"><a xlink:href="sprintf.svg" xlink:title="sprintf">
<ellipse fill="lightblue" stroke="black" cx="42.25" cy="-18" rx="42.49" ry="18"/>
<text text-anchor="middle" x="42.25" y="-14.3" font-family="Times,serif" font-size="14.00">sprintf</text>
</a>
</g>
</g>
<!-- sel.MemcardFormat&#45;&gt;sprintf -->
<g id="edge1" class="edge">
<title>sel.MemcardFormat&#45;&gt;sprintf</title>
<path fill="none" stroke="black" d="M231.15,-88.51C188.98,-72.99 124.53,-49.28 82.89,-33.95"/>
<polygon fill="black" stroke="black" points="83.93,-30.61 73.33,-30.44 81.51,-37.18 83.93,-30.61"/>
<text text-anchor="middle" x="177.25" y="-57.8" font-family="Times,serif" font-size="14.00">1</text>
</g>
<!-- sel._clear_event_x -->
<g id="node3" class="node">
<title>sel._clear_event_x</title>
<g id="a_node3"><a xlink:href="sel._clear_event_x.svg" xlink:title="sel._clear_event_x">
<ellipse fill="green" stroke="black" cx="196.25" cy="-18" rx="94.48" ry="18"/>
<text text-anchor="middle" x="196.25" y="-14.3" font-family="Times,serif" font-size="14.00">sel._clear_event_x</text>
</a>
</g>
</g>
<!-- sel.MemcardFormat&#45;&gt;sel._clear_event_x -->
<g id="edge2" class="edge">
<title>sel.MemcardFormat&#45;&gt;sel._clear_event_x</title>
<path fill="none" stroke="black" d="M257.66,-86.8C246.42,-74.39 231.08,-57.46 218.55,-43.62"/>
<polygon fill="black" stroke="black" points="220.85,-40.95 211.54,-35.89 215.66,-45.65 220.85,-40.95"/>
<text text-anchor="middle" x="245.25" y="-57.8" font-family="Times,serif" font-size="14.00">1</text>
</g>
<!-- format -->
<g id="node4" class="node">
<title>format</title>
<g id="a_node4"><a xlink:href="format.svg" xlink:title="format">
<ellipse fill="lightblue" stroke="black" cx="350.25" cy="-18" rx="42.49" ry="18"/>
<text text-anchor="middle" x="350.25" y="-14.3" font-family="Times,serif" font-size="14.00">format</text>
</a>
</g>
</g>
<!-- sel.MemcardFormat&#45;&gt;format -->
<g id="edge3" class="edge">
<title>sel.MemcardFormat&#45;&gt;format</title>
<path fill="none" stroke="black" d="M288.83,-86.8C300.29,-74.15 316.01,-56.79 328.68,-42.81"/>
<polygon fill="black" stroke="black" points="331.61,-44.79 335.73,-35.03 326.42,-40.09 331.61,-44.79"/>
<text text-anchor="middle" x="322.25" y="-57.8" font-family="Times,serif" font-size="14.00">1</text>
</g>
<!-- sel._card_event_x -->
<g id="node5" class="node">
<title>sel._card_event_x</title>
<g id="a_node5"><a xlink:href="sel._card_event_x.svg" xlink:title="sel._card_event_x">
<ellipse fill="green" stroke="black" cx="502.25" cy="-18" rx="91.78" ry="18"/>
<text text-anchor="middle" x="502.25" y="-14.3" font-family="Times,serif" font-size="14.00">sel._card_event_x</text>
</a>
</g>
</g>
<!-- sel.MemcardFormat&#45;&gt;sel._card_event_x -->
<g id="edge4" class="edge">
<title>sel.MemcardFormat&#45;&gt;sel._card_event_x</title>
<path fill="none" stroke="black" d="M315.25,-88.41C353.74,-74.12 410.8,-52.94 451.76,-37.74"/>
<polygon fill="black" stroke="black" points="453.12,-40.97 461.28,-34.21 450.69,-34.4 453.12,-40.97"/>
<text text-anchor="middle" x="406.25" y="-57.8" font-family="Times,serif" font-size="14.00">1</text>
</g>
<!-- sel.func_801B3F94 -->
<g id="node6" class="node">
<title>sel.func_801B3F94</title>
<g id="a_node6"><a xlink:href="sel.func_801B3F94.svg" xlink:title="sel.func_801B3F94">
<ellipse fill="red" stroke="black" cx="273.25" cy="-192" rx="99.38" ry="18"/>
<text text-anchor="middle" x="273.25" y="-188.3" font-family="Times,serif" font-size="14.00">sel.func_801B3F94</text>
</a>
</g>
</g>
<!-- sel.func_801B3F94&#45;&gt;sel.MemcardFormat -->
<g id="edge5" class="edge">
<title>sel.func_801B3F94&#45;&gt;sel.MemcardFormat</title>
<path fill="none" stroke="black" d="M273.25,-173.8C273.25,-162.16 273.25,-146.55 273.25,-133.24"/>
<polygon fill="black" stroke="black" points="276.75,-133.18 273.25,-123.18 269.75,-133.18 276.75,-133.18"/>
<text text-anchor="middle" x="278.25" y="-144.8" font-family="Times,serif" font-size="14.00">1</text>
</g>
</g>
</svg>
