<?xml version="1.0" encoding="UTF-8" standalone="no"?>
<!DOCTYPE svg PUBLIC "-//W3C//DTD SVG 1.1//EN"
 "http://www.w3.org/Graphics/SVG/1.1/DTD/svg11.dtd">
<!-- Generated by graphviz version 2.43.0 (0)
 -->
<!-- Title: sel.func_801B25D4 Pages: 1 -->
<svg width="572pt" height="404pt"
 viewBox="0.00 0.00 572.14 404.00" xmlns="http://www.w3.org/2000/svg" xmlns:xlink="http://www.w3.org/1999/xlink">
<g id="graph0" class="graph" transform="scale(1 1) rotate(0) translate(4 400)">
<title>sel.func_801B25D4</title>
<polygon fill="white" stroke="transparent" points="-4,4 -4,-400 568.14,-400 568.14,4 -4,4"/>
<!-- sel.func_801B25D4 -->
<g id="node1" class="node">
<title>sel.func_801B25D4</title>
<ellipse fill="green" stroke="black" cx="323.04" cy="-198" rx="100.98" ry="18"/>
<text text-anchor="middle" x="323.04" y="-194.3" font-family="Times,serif" font-size="14.00">sel.func_801B25D4</text>
</g>
<!-- sel.func_801B248C -->
<g id="node2" class="node">
<title>sel.func_801B248C</title>
<g id="a_node2"><a xlink:href="sel.func_801B248C.svg" xlink:title="sel.func_801B248C">
<ellipse fill="green" stroke="black" cx="323.04" cy="-18" rx="100.18" ry="18"/>
<text text-anchor="middle" x="323.04" y="-14.3" font-family="Times,serif" font-size="14.00">sel.func_801B248C</text>
</a>
</g>
</g>
<!-- sel.func_801B25D4&#45;&gt;sel.func_801B248C -->
<g id="edge1" class="edge">
<title>sel.func_801B25D4&#45;&gt;sel.func_801B248C</title>
<path fill="none" stroke="black" d="M323.04,-179.93C323.04,-148.97 323.04,-83.3 323.04,-46.13"/>
<polygon fill="black" stroke="black" points="326.54,-46.02 323.04,-36.02 319.54,-46.02 326.54,-46.02"/>
<text text-anchor="middle" x="318.04" y="-39.82" font-family="Times,serif" font-size="14.00">1</text>
</g>
<!-- sel.func_801ACFBC -->
<g id="node3" class="node">
<title>sel.func_801ACFBC</title>
<g id="a_node3"><a xlink:href="sel.func_801ACFBC.svg" xlink:title="sel.func_801ACFBC">
<ellipse fill="red" stroke="black" cx="102.04" cy="-378" rx="102.08" ry="18"/>
<text text-anchor="middle" x="102.04" y="-374.3" font-family="Times,serif" font-size="14.00">sel.func_801ACFBC</text>
</a>
</g>
</g>
<!-- sel.func_801ACFBC&#45;&gt;sel.func_801B25D4 -->
<g id="edge2" class="edge">
<title>sel.func_801ACFBC&#45;&gt;sel.func_801B25D4</title>
<path fill="none" stroke="black" d="M122.83,-360.25C162.48,-328.32 248.99,-258.65 294.2,-222.23"/>
<polygon fill="black" stroke="black" points="296.55,-224.83 302.14,-215.83 292.16,-219.38 296.55,-224.83"/>
<text text-anchor="middle" x="117.83" y="-349.05" font-family="Times,serif" font-size="14.00">1</text>
</g>
<!-- sel.func_801ACF7C -->
<g id="node4" class="node">
<title>sel.func_801ACF7C</title>
<g id="a_node4"><a xlink:href="sel.func_801ACF7C.svg" xlink:title="sel.func_801ACF7C">
<ellipse fill="green" stroke="black" cx="323.04" cy="-378" rx="100.98" ry="18"/>
<text text-anchor="middle" x="323.04" y="-374.3" font-family="Times,serif" font-size="14.00">sel.func_801ACF7C</text>
</a>
</g>
</g>
<!-- sel.func_801ACF7C&#45;&gt;sel.func_801B25D4 -->
<g id="edge3" class="edge">
<title>sel.func_801ACF7C&#45;&gt;sel.func_801B25D4</title>
<path fill="none" stroke="black" d="M323.04,-359.93C323.04,-328.97 323.04,-263.3 323.04,-226.13"/>
<polygon fill="black" stroke="black" points="326.54,-226.02 323.04,-216.02 319.54,-226.02 326.54,-226.02"/>
<text text-anchor="middle" x="318.04" y="-348.73" font-family="Times,serif" font-size="14.00">2</text>
</g>
<!-- sel.Update -->
<g id="node5" class="node">
<title>sel.Update</title>
<g id="a_node5"><a xlink:href="sel.Update.svg" xlink:title="sel.Update">
<ellipse fill="red" stroke="black" cx="503.04" cy="-378" rx="61.19" ry="18"/>
<text text-anchor="middle" x="503.04" y="-374.3" font-family="Times,serif" font-size="14.00">sel.Update</text>
</a>
</g>
</g>
<!-- sel.Update&#45;&gt;sel.func_801B25D4 -->
<g id="edge4" class="edge">
<title>sel.Update&#45;&gt;sel.func_801B25D4</title>
<path fill="none" stroke="black" d="M486.43,-360.57C454.58,-329.08 384.78,-260.06 347.56,-223.25"/>
<polygon fill="black" stroke="black" points="349.71,-220.45 340.14,-215.91 344.79,-225.43 349.71,-220.45"/>
<text text-anchor="middle" x="481.43" y="-349.37" font-family="Times,serif" font-size="14.00">3</text>
</g>
</g>
</svg>
