<?xml version="1.0" encoding="UTF-8" standalone="no"?>
<!DOCTYPE svg PUBLIC "-//W3C//DTD SVG 1.1//EN"
 "http://www.w3.org/Graphics/SVG/1.1/DTD/svg11.dtd">
<!-- Generated by graphviz version 2.43.0 (0)
 -->
<!-- Title: sel.MemcardEraseFile Pages: 1 -->
<svg width="252pt" height="404pt"
 viewBox="0.00 0.00 251.63 404.00" xmlns="http://www.w3.org/2000/svg" xmlns:xlink="http://www.w3.org/1999/xlink">
<g id="graph0" class="graph" transform="scale(1 1) rotate(0) translate(4 400)">
<title>sel.MemcardEraseFile</title>
<polygon fill="white" stroke="transparent" points="-4,4 -4,-400 247.63,-400 247.63,4 -4,4"/>
<!-- sel.MemcardEraseFile -->
<g id="node1" class="node">
<title>sel.MemcardEraseFile</title>
<ellipse fill="green" stroke="black" cx="115.04" cy="-198" rx="115.08" ry="18"/>
<text text-anchor="middle" x="115.04" y="-194.3" font-family="Times,serif" font-size="14.00">sel.MemcardEraseFile</text>
</g>
<!-- erase -->
<g id="node2" class="node">
<title>erase</title>
<g id="a_node2"><a xlink:href="erase.svg" xlink:title="erase">
<ellipse fill="lightblue" stroke="black" cx="54.04" cy="-18" rx="36.29" ry="18"/>
<text text-anchor="middle" x="54.04" y="-14.3" font-family="Times,serif" font-size="14.00">erase</text>
</a>
</g>
</g>
<!-- sel.MemcardEraseFile&#45;&gt;erase -->
<g id="edge1" class="edge">
<title>sel.MemcardEraseFile&#45;&gt;erase</title>
<path fill="none" stroke="black" d="M109.19,-179.93C98.53,-148.83 75.88,-82.73 63.17,-45.65"/>
<polygon fill="black" stroke="black" points="66.42,-44.34 59.87,-36.02 59.8,-46.61 66.42,-44.34"/>
<text text-anchor="middle" x="54.87" y="-39.82" font-family="Times,serif" font-size="14.00">1</text>
</g>
<!-- main.sprintf -->
<g id="node3" class="node">
<title>main.sprintf</title>
<g id="a_node3"><a xlink:href="main.sprintf.svg" xlink:title="main.sprintf">
<ellipse fill="red" stroke="black" cx="176.04" cy="-18" rx="67.69" ry="18"/>
<text text-anchor="middle" x="176.04" y="-14.3" font-family="Times,serif" font-size="14.00">main.sprintf</text>
</a>
</g>
</g>
<!-- sel.MemcardEraseFile&#45;&gt;main.sprintf -->
<g id="edge2" class="edge">
<title>sel.MemcardEraseFile&#45;&gt;main.sprintf</title>
<path fill="none" stroke="black" d="M120.89,-179.93C131.55,-148.83 154.2,-82.73 166.91,-45.65"/>
<polygon fill="black" stroke="black" points="170.28,-46.61 170.21,-36.02 163.66,-44.34 170.28,-46.61"/>
<text text-anchor="middle" x="165.21" y="-39.82" font-family="Times,serif" font-size="14.00">1</text>
</g>
<!-- sel.func_801B3E2C -->
<g id="node4" class="node">
<title>sel.func_801B3E2C</title>
<g id="a_node4"><a xlink:href="sel.func_801B3E2C.svg" xlink:title="sel.func_801B3E2C">
<ellipse fill="green" stroke="black" cx="115.04" cy="-378" rx="100.98" ry="18"/>
<text text-anchor="middle" x="115.04" y="-374.3" font-family="Times,serif" font-size="14.00">sel.func_801B3E2C</text>
</a>
</g>
</g>
<!-- sel.func_801B3E2C&#45;&gt;sel.MemcardEraseFile -->
<g id="edge3" class="edge">
<title>sel.func_801B3E2C&#45;&gt;sel.MemcardEraseFile</title>
<path fill="none" stroke="black" d="M115.04,-359.93C115.04,-328.97 115.04,-263.3 115.04,-226.13"/>
<polygon fill="black" stroke="black" points="118.54,-226.02 115.04,-216.02 111.54,-226.02 118.54,-226.02"/>
<text text-anchor="middle" x="110.04" y="-348.73" font-family="Times,serif" font-size="14.00">1</text>
</g>
</g>
</svg>
