<?xml version="1.0" encoding="UTF-8" standalone="no"?>
<!DOCTYPE svg PUBLIC "-//W3C//DTD SVG 1.1//EN"
 "http://www.w3.org/Graphics/SVG/1.1/DTD/svg11.dtd">
<!-- Generated by graphviz version 2.43.0 (0)
 -->
<!-- Title: sel.MDEC_in_sync Pages: 1 -->
<svg width="428pt" height="404pt"
 viewBox="0.00 0.00 427.83 404.00" xmlns="http://www.w3.org/2000/svg" xmlns:xlink="http://www.w3.org/1999/xlink">
<g id="graph0" class="graph" transform="scale(1 1) rotate(0) translate(4 400)">
<title>sel.MDEC_in_sync</title>
<polygon fill="white" stroke="transparent" points="-4,4 -4,-400 423.83,-400 423.83,4 -4,4"/>
<!-- sel.MDEC_in_sync -->
<g id="node1" class="node">
<title>sel.MDEC_in_sync</title>
<ellipse fill="red" stroke="black" cx="210.39" cy="-198" rx="95.58" ry="18"/>
<text text-anchor="middle" x="210.39" y="-194.3" font-family="Times,serif" font-size="14.00">sel.MDEC_in_sync</text>
</g>
<!-- sel.MDEC_print_error -->
<g id="node2" class="node">
<title>sel.MDEC_print_error</title>
<g id="a_node2"><a xlink:href="sel.MDEC_print_error.svg" xlink:title="sel.MDEC_print_error">
<ellipse fill="red" stroke="black" cx="210.39" cy="-18" rx="112.38" ry="18"/>
<text text-anchor="middle" x="210.39" y="-14.3" font-family="Times,serif" font-size="14.00">sel.MDEC_print_error</text>
</a>
</g>
</g>
<!-- sel.MDEC_in_sync&#45;&gt;sel.MDEC_print_error -->
<g id="edge1" class="edge">
<title>sel.MDEC_in_sync&#45;&gt;sel.MDEC_print_error</title>
<path fill="none" stroke="black" d="M210.39,-179.93C210.39,-148.97 210.39,-83.3 210.39,-46.13"/>
<polygon fill="black" stroke="black" points="213.89,-46.02 210.39,-36.02 206.89,-46.02 213.89,-46.02"/>
<text text-anchor="middle" x="205.39" y="-39.82" font-family="Times,serif" font-size="14.00">1</text>
</g>
<!-- sel.func_801BA7EC -->
<g id="node3" class="node">
<title>sel.func_801BA7EC</title>
<g id="a_node3"><a xlink:href="sel.func_801BA7EC.svg" xlink:title="sel.func_801BA7EC">
<ellipse fill="green" stroke="black" cx="101.39" cy="-378" rx="101.28" ry="18"/>
<text text-anchor="middle" x="101.39" y="-374.3" font-family="Times,serif" font-size="14.00">sel.func_801BA7EC</text>
</a>
</g>
</g>
<!-- sel.func_801BA7EC&#45;&gt;sel.MDEC_in_sync -->
<g id="edge2" class="edge">
<title>sel.func_801BA7EC&#45;&gt;sel.MDEC_in_sync</title>
<path fill="none" stroke="black" d="M111.84,-359.93C131.05,-328.57 172.06,-261.6 194.65,-224.71"/>
<polygon fill="black" stroke="black" points="197.73,-226.37 199.97,-216.02 191.76,-222.72 197.73,-226.37"/>
<text text-anchor="middle" x="106.84" y="-348.73" font-family="Times,serif" font-size="14.00">1</text>
</g>
<!-- sel.func_801BA668 -->
<g id="node4" class="node">
<title>sel.func_801BA668</title>
<g id="a_node4"><a xlink:href="sel.func_801BA668.svg" xlink:title="sel.func_801BA668">
<ellipse fill="green" stroke="black" cx="320.39" cy="-378" rx="99.38" ry="18"/>
<text text-anchor="middle" x="320.39" y="-374.3" font-family="Times,serif" font-size="14.00">sel.func_801BA668</text>
</a>
</g>
</g>
<!-- sel.func_801BA668&#45;&gt;sel.MDEC_in_sync -->
<g id="edge3" class="edge">
<title>sel.func_801BA668&#45;&gt;sel.MDEC_in_sync</title>
<path fill="none" stroke="black" d="M309.84,-359.93C290.46,-328.57 249.08,-261.6 226.28,-224.71"/>
<polygon fill="black" stroke="black" points="229.14,-222.68 220.91,-216.02 223.19,-226.36 229.14,-222.68"/>
<text text-anchor="middle" x="304.84" y="-348.73" font-family="Times,serif" font-size="14.00">1</text>
</g>
</g>
</svg>
