<?xml version="1.0" encoding="UTF-8" standalone="no"?>
<!DOCTYPE svg PUBLIC "-//W3C//DTD SVG 1.1//EN"
 "http://www.w3.org/Graphics/SVG/1.1/DTD/svg11.dtd">
<!-- Generated by graphviz version 2.43.0 (0)
 -->
<!-- Title: sel.func_801B25D4 Pages: 1 -->
<svg width="572pt" height="218pt"
 viewBox="0.00 0.00 571.84 218.00" xmlns="http://www.w3.org/2000/svg" xmlns:xlink="http://www.w3.org/1999/xlink">
<g id="graph0" class="graph" transform="scale(1 1) rotate(0) translate(4 214)">
<title>sel.func_801B25D4</title>
<polygon fill="white" stroke="transparent" points="-4,4 -4,-214 567.84,-214 567.84,4 -4,4"/>
<!-- sel.func_801B25D4 -->
<g id="node1" class="node">
<title>sel.func_801B25D4</title>
<ellipse fill="green" stroke="black" cx="242.09" cy="-105" rx="100.98" ry="18"/>
<text text-anchor="middle" x="242.09" y="-101.3" font-family="Times,serif" font-size="14.00">sel.func_801B25D4</text>
</g>
<!-- sel.func_801B248C -->
<g id="node2" class="node">
<title>sel.func_801B248C</title>
<g id="a_node2"><a xlink:href="sel.func_801B248C.svg" xlink:title="sel.func_801B248C">
<ellipse fill="green" stroke="black" cx="242.09" cy="-18" rx="100.18" ry="18"/>
<text text-anchor="middle" x="242.09" y="-14.3" font-family="Times,serif" font-size="14.00">sel.func_801B248C</text>
</a>
</g>
</g>
<!-- sel.func_801B25D4&#45;&gt;sel.func_801B248C -->
<g id="edge1" class="edge">
<title>sel.func_801B25D4&#45;&gt;sel.func_801B248C</title>
<path fill="none" stroke="black" d="M242.09,-86.8C242.09,-75.16 242.09,-59.55 242.09,-46.24"/>
<polygon fill="black" stroke="black" points="245.59,-46.18 242.09,-36.18 238.59,-46.18 245.59,-46.18"/>
<text text-anchor="middle" x="247.09" y="-57.8" font-family="Times,serif" font-size="14.00">1</text>
</g>
<!-- sel.Update -->
<g id="node3" class="node">
<title>sel.Update</title>
<g id="a_node3"><a xlink:href="sel.Update.svg" xlink:title="sel.Update">
<ellipse fill="red" stroke="black" cx="61.09" cy="-192" rx="61.19" ry="18"/>
<text text-anchor="middle" x="61.09" y="-188.3" font-family="Times,serif" font-size="14.00">sel.Update</text>
</a>
</g>
</g>
<!-- sel.Update&#45;&gt;sel.func_801B25D4 -->
<g id="edge2" class="edge">
<title>sel.Update&#45;&gt;sel.func_801B25D4</title>
<path fill="none" stroke="black" d="M92.21,-176.39C121.56,-162.61 165.82,-141.82 198.64,-126.41"/>
<polygon fill="black" stroke="black" points="200.44,-129.43 208,-122.01 197.46,-123.09 200.44,-129.43"/>
<text text-anchor="middle" x="168.09" y="-144.8" font-family="Times,serif" font-size="14.00">3</text>
</g>
<!-- sel.func_801ACFBC -->
<g id="node4" class="node">
<title>sel.func_801ACFBC</title>
<g id="a_node4"><a xlink:href="sel.func_801ACFBC.svg" xlink:title="sel.func_801ACFBC">
<ellipse fill="red" stroke="black" cx="242.09" cy="-192" rx="102.08" ry="18"/>
<text text-anchor="middle" x="242.09" y="-188.3" font-family="Times,serif" font-size="14.00">sel.func_801ACFBC</text>
</a>
</g>
</g>
<!-- sel.func_801ACFBC&#45;&gt;sel.func_801B25D4 -->
<g id="edge3" class="edge">
<title>sel.func_801ACFBC&#45;&gt;sel.func_801B25D4</title>
<path fill="none" stroke="black" d="M242.09,-173.8C242.09,-162.16 242.09,-146.55 242.09,-133.24"/>
<polygon fill="black" stroke="black" points="245.59,-133.18 242.09,-123.18 238.59,-133.18 245.59,-133.18"/>
<text text-anchor="middle" x="247.09" y="-144.8" font-family="Times,serif" font-size="14.00">1</text>
</g>
<!-- sel.func_801ACF7C -->
<g id="node5" class="node">
<title>sel.func_801ACF7C</title>
<g id="a_node5"><a xlink:href="sel.func_801ACF7C.svg" xlink:title="sel.func_801ACF7C">
<ellipse fill="green" stroke="black" cx="463.09" cy="-192" rx="100.98" ry="18"/>
<text text-anchor="middle" x="463.09" y="-188.3" font-family="Times,serif" font-size="14.00">sel.func_801ACF7C</text>
</a>
</g>
</g>
<!-- sel.func_801ACF7C&#45;&gt;sel.func_801B25D4 -->
<g id="edge4" class="edge">
<title>sel.func_801ACF7C&#45;&gt;sel.func_801B25D4</title>
<path fill="none" stroke="black" d="M422.56,-175.41C385.91,-161.32 331.83,-140.51 292.43,-125.36"/>
<polygon fill="black" stroke="black" points="293.34,-121.96 282.75,-121.64 290.82,-128.49 293.34,-121.96"/>
<text text-anchor="middle" x="371.09" y="-144.8" font-family="Times,serif" font-size="14.00">2</text>
</g>
</g>
</svg>
