<?xml version="1.0" encoding="UTF-8" standalone="no"?>
<!DOCTYPE svg PUBLIC "-//W3C//DTD SVG 1.1//EN"
 "http://www.w3.org/Graphics/SVG/1.1/DTD/svg11.dtd">
<!-- Generated by graphviz version 2.43.0 (0)
 -->
<!-- Title: sel.func_801AE6D0 Pages: 1 -->
<svg width="1620pt" height="404pt"
 viewBox="0.00 0.00 1619.93 404.00" xmlns="http://www.w3.org/2000/svg" xmlns:xlink="http://www.w3.org/1999/xlink">
<g id="graph0" class="graph" transform="scale(1 1) rotate(0) translate(4 400)">
<title>sel.func_801AE6D0</title>
<polygon fill="white" stroke="transparent" points="-4,4 -4,-400 1615.93,-400 1615.93,4 -4,4"/>
<!-- sel.func_801AE6D0 -->
<g id="node1" class="node">
<title>sel.func_801AE6D0</title>
<ellipse fill="red" stroke="black" cx="856.84" cy="-198" rx="100.98" ry="18"/>
<text text-anchor="middle" x="856.84" y="-194.3" font-family="Times,serif" font-size="14.00">sel.func_801AE6D0</text>
</g>
<!-- sel.PrintFileSelectPlaceName -->
<g id="node2" class="node">
<title>sel.PrintFileSelectPlaceName</title>
<g id="a_node2"><a xlink:href="sel.PrintFileSelectPlaceName.svg" xlink:title="sel.PrintFileSelectPlaceName">
<ellipse fill="green" stroke="black" cx="148.84" cy="-18" rx="148.67" ry="18"/>
<text text-anchor="middle" x="148.84" y="-14.3" font-family="Times,serif" font-size="14.00">sel.PrintFileSelectPlaceName</text>
</a>
</g>
</g>
<!-- sel.func_801AE6D0&#45;&gt;sel.PrintFileSelectPlaceName -->
<g id="edge1" class="edge">
<title>sel.func_801AE6D0&#45;&gt;sel.PrintFileSelectPlaceName</title>
<path fill="none" stroke="black" d="M800.99,-182.96C673.52,-150.91 361.3,-72.42 220.17,-36.93"/>
<polygon fill="black" stroke="black" points="220.86,-33.5 210.31,-34.45 219.15,-40.29 220.86,-33.5"/>
<text text-anchor="middle" x="205.31" y="-38.25" font-family="Times,serif" font-size="14.00">1</text>
</g>
<!-- sel.func_801ACBE4 -->
<g id="node3" class="node">
<title>sel.func_801ACBE4</title>
<g id="a_node3"><a xlink:href="sel.func_801ACBE4.svg" xlink:title="sel.func_801ACBE4">
<ellipse fill="green" stroke="black" cx="416.84" cy="-18" rx="101.28" ry="18"/>
<text text-anchor="middle" x="416.84" y="-14.3" font-family="Times,serif" font-size="14.00">sel.func_801ACBE4</text>
</a>
</g>
</g>
<!-- sel.func_801AE6D0&#45;&gt;sel.func_801ACBE4 -->
<g id="edge2" class="edge">
<title>sel.func_801AE6D0&#45;&gt;sel.func_801ACBE4</title>
<path fill="none" stroke="black" d="M818.18,-181.36C737.83,-148.86 552.99,-74.08 465.04,-38.5"/>
<polygon fill="black" stroke="black" points="466.15,-35.17 455.57,-34.67 463.53,-41.66 466.15,-35.17"/>
<text text-anchor="middle" x="450.57" y="-38.47" font-family="Times,serif" font-size="14.00">3</text>
</g>
<!-- sel.func_801ACFBC -->
<g id="node4" class="node">
<title>sel.func_801ACFBC</title>
<g id="a_node4"><a xlink:href="sel.func_801ACFBC.svg" xlink:title="sel.func_801ACFBC">
<ellipse fill="green" stroke="black" cx="637.84" cy="-18" rx="102.08" ry="18"/>
<text text-anchor="middle" x="637.84" y="-14.3" font-family="Times,serif" font-size="14.00">sel.func_801ACFBC</text>
</a>
</g>
</g>
<!-- sel.func_801AE6D0&#45;&gt;sel.func_801ACFBC -->
<g id="edge3" class="edge">
<title>sel.func_801AE6D0&#45;&gt;sel.func_801ACFBC</title>
<path fill="none" stroke="black" d="M836.23,-180.25C796.94,-148.32 711.22,-78.65 666.41,-42.23"/>
<polygon fill="black" stroke="black" points="668.51,-39.42 658.54,-35.83 664.1,-44.85 668.51,-39.42"/>
<text text-anchor="middle" x="653.54" y="-39.63" font-family="Times,serif" font-size="14.00">1</text>
</g>
<!-- sel.func_801B26A0 -->
<g id="node5" class="node">
<title>sel.func_801B26A0</title>
<g id="a_node5"><a xlink:href="sel.func_801B26A0.svg" xlink:title="sel.func_801B26A0">
<ellipse fill="green" stroke="black" cx="856.84" cy="-18" rx="99.38" ry="18"/>
<text text-anchor="middle" x="856.84" y="-14.3" font-family="Times,serif" font-size="14.00">sel.func_801B26A0</text>
</a>
</g>
</g>
<!-- sel.func_801AE6D0&#45;&gt;sel.func_801B26A0 -->
<g id="edge4" class="edge">
<title>sel.func_801AE6D0&#45;&gt;sel.func_801B26A0</title>
<path fill="none" stroke="black" d="M856.84,-179.93C856.84,-148.97 856.84,-83.3 856.84,-46.13"/>
<polygon fill="black" stroke="black" points="860.34,-46.02 856.84,-36.02 853.34,-46.02 860.34,-46.02"/>
<text text-anchor="middle" x="851.84" y="-39.82" font-family="Times,serif" font-size="14.00">1</text>
</g>
<!-- sel.func_801B27A8 -->
<g id="node6" class="node">
<title>sel.func_801B27A8</title>
<g id="a_node6"><a xlink:href="sel.func_801B27A8.svg" xlink:title="sel.func_801B27A8">
<ellipse fill="green" stroke="black" cx="1073.84" cy="-18" rx="99.38" ry="18"/>
<text text-anchor="middle" x="1073.84" y="-14.3" font-family="Times,serif" font-size="14.00">sel.func_801B27A8</text>
</a>
</g>
</g>
<!-- sel.func_801AE6D0&#45;&gt;sel.func_801B27A8 -->
<g id="edge5" class="edge">
<title>sel.func_801AE6D0&#45;&gt;sel.func_801B27A8</title>
<path fill="none" stroke="black" d="M877.25,-180.25C916.19,-148.32 1001.12,-78.65 1045.52,-42.23"/>
<polygon fill="black" stroke="black" points="1047.81,-44.88 1053.32,-35.83 1043.37,-39.47 1047.81,-44.88"/>
<text text-anchor="middle" x="1048.32" y="-39.63" font-family="Times,serif" font-size="14.00">1</text>
</g>
<!-- sel.func_801B2BD4 -->
<g id="node7" class="node">
<title>sel.func_801B2BD4</title>
<g id="a_node7"><a xlink:href="sel.func_801B2BD4.svg" xlink:title="sel.func_801B2BD4">
<ellipse fill="green" stroke="black" cx="1292.84" cy="-18" rx="101.28" ry="18"/>
<text text-anchor="middle" x="1292.84" y="-14.3" font-family="Times,serif" font-size="14.00">sel.func_801B2BD4</text>
</a>
</g>
</g>
<!-- sel.func_801AE6D0&#45;&gt;sel.func_801B2BD4 -->
<g id="edge6" class="edge">
<title>sel.func_801AE6D0&#45;&gt;sel.func_801B2BD4</title>
<path fill="none" stroke="black" d="M895.53,-181.2C975.28,-148.65 1157.75,-74.15 1244.85,-38.59"/>
<polygon fill="black" stroke="black" points="1246.3,-41.78 1254.23,-34.76 1243.65,-35.3 1246.3,-41.78"/>
<text text-anchor="middle" x="1249.23" y="-38.56" font-family="Times,serif" font-size="14.00">5</text>
</g>
<!-- sel.func_801B2C70 -->
<g id="node8" class="node">
<title>sel.func_801B2C70</title>
<g id="a_node8"><a xlink:href="sel.func_801B2C70.svg" xlink:title="sel.func_801B2C70">
<ellipse fill="green" stroke="black" cx="1511.84" cy="-18" rx="100.18" ry="18"/>
<text text-anchor="middle" x="1511.84" y="-14.3" font-family="Times,serif" font-size="14.00">sel.func_801B2C70</text>
</a>
</g>
</g>
<!-- sel.func_801AE6D0&#45;&gt;sel.func_801B2C70 -->
<g id="edge7" class="edge">
<title>sel.func_801AE6D0&#45;&gt;sel.func_801B2C70</title>
<path fill="none" stroke="black" d="M909.61,-182.66C1029.33,-150.12 1321.07,-70.84 1449.46,-35.95"/>
<polygon fill="black" stroke="black" points="1450.42,-39.32 1459.15,-33.32 1448.58,-32.56 1450.42,-39.32"/>
<text text-anchor="middle" x="1454.15" y="-37.12" font-family="Times,serif" font-size="14.00">2</text>
</g>
<!-- sel.Update -->
<g id="node9" class="node">
<title>sel.Update</title>
<g id="a_node9"><a xlink:href="sel.Update.svg" xlink:title="sel.Update">
<ellipse fill="red" stroke="black" cx="856.84" cy="-378" rx="61.19" ry="18"/>
<text text-anchor="middle" x="856.84" y="-374.3" font-family="Times,serif" font-size="14.00">sel.Update</text>
</a>
</g>
</g>
<!-- sel.Update&#45;&gt;sel.func_801AE6D0 -->
<g id="edge8" class="edge">
<title>sel.Update&#45;&gt;sel.func_801AE6D0</title>
<path fill="none" stroke="black" d="M856.84,-359.93C856.84,-328.97 856.84,-263.3 856.84,-226.13"/>
<polygon fill="black" stroke="black" points="860.34,-226.02 856.84,-216.02 853.34,-226.02 860.34,-226.02"/>
<text text-anchor="middle" x="851.84" y="-348.73" font-family="Times,serif" font-size="14.00">6</text>
</g>
</g>
</svg>
