<?xml version="1.0" encoding="UTF-8" standalone="no"?>
<!DOCTYPE svg PUBLIC "-//W3C//DTD SVG 1.1//EN"
 "http://www.w3.org/Graphics/SVG/1.1/DTD/svg11.dtd">
<!-- Generated by graphviz version 2.43.0 (0)
 -->
<!-- Title: sel.AnimateEntity Pages: 1 -->
<svg width="642pt" height="224pt"
 viewBox="0.00 0.00 642.18 224.00" xmlns="http://www.w3.org/2000/svg" xmlns:xlink="http://www.w3.org/1999/xlink">
<g id="graph0" class="graph" transform="scale(1 1) rotate(0) translate(4 220)">
<title>sel.AnimateEntity</title>
<polygon fill="white" stroke="transparent" points="-4,4 -4,-220 638.18,-220 638.18,4 -4,4"/>
<!-- sel.AnimateEntity -->
<g id="node1" class="node">
<title>sel.AnimateEntity</title>
<ellipse fill="green" stroke="black" cx="317.09" cy="-18" rx="94.48" ry="18"/>
<text text-anchor="middle" x="317.09" y="-14.3" font-family="Times,serif" font-size="14.00">sel.AnimateEntity</text>
</g>
<!-- sel.func_801B55C8 -->
<g id="node2" class="node">
<title>sel.func_801B55C8</title>
<g id="a_node2"><a xlink:href="sel.func_801B55C8.svg" xlink:title="sel.func_801B55C8">
<ellipse fill="red" stroke="black" cx="100.09" cy="-198" rx="100.18" ry="18"/>
<text text-anchor="middle" x="100.09" y="-194.3" font-family="Times,serif" font-size="14.00">sel.func_801B55C8</text>
</a>
</g>
</g>
<!-- sel.func_801B55C8&#45;&gt;sel.AnimateEntity -->
<g id="edge1" class="edge">
<title>sel.func_801B55C8&#45;&gt;sel.AnimateEntity</title>
<path fill="none" stroke="black" d="M120.51,-180.25C159.44,-148.32 244.38,-78.65 288.77,-42.23"/>
<polygon fill="black" stroke="black" points="291.06,-44.88 296.57,-35.83 286.62,-39.47 291.06,-44.88"/>
<text text-anchor="middle" x="115.51" y="-169.05" font-family="Times,serif" font-size="14.00">4</text>
</g>
<!-- sel.func_801B5350 -->
<g id="node3" class="node">
<title>sel.func_801B5350</title>
<g id="a_node3"><a xlink:href="sel.func_801B5350.svg" xlink:title="sel.func_801B5350">
<ellipse fill="green" stroke="black" cx="317.09" cy="-198" rx="98.58" ry="18"/>
<text text-anchor="middle" x="317.09" y="-194.3" font-family="Times,serif" font-size="14.00">sel.func_801B5350</text>
</a>
</g>
</g>
<!-- sel.func_801B5350&#45;&gt;sel.AnimateEntity -->
<g id="edge2" class="edge">
<title>sel.func_801B5350&#45;&gt;sel.AnimateEntity</title>
<path fill="none" stroke="black" d="M317.09,-179.93C317.09,-148.97 317.09,-83.3 317.09,-46.13"/>
<polygon fill="black" stroke="black" points="320.59,-46.02 317.09,-36.02 313.59,-46.02 320.59,-46.02"/>
<text text-anchor="middle" x="312.09" y="-168.73" font-family="Times,serif" font-size="14.00">2</text>
</g>
<!-- sel.func_801B585C -->
<g id="node4" class="node">
<title>sel.func_801B585C</title>
<g id="a_node4"><a xlink:href="sel.func_801B585C.svg" xlink:title="sel.func_801B585C">
<ellipse fill="green" stroke="black" cx="534.09" cy="-198" rx="100.18" ry="18"/>
<text text-anchor="middle" x="534.09" y="-194.3" font-family="Times,serif" font-size="14.00">sel.func_801B585C</text>
</a>
</g>
</g>
<!-- sel.func_801B585C&#45;&gt;sel.AnimateEntity -->
<g id="edge3" class="edge">
<title>sel.func_801B585C&#45;&gt;sel.AnimateEntity</title>
<path fill="none" stroke="black" d="M513.68,-180.25C474.74,-148.32 389.81,-78.65 345.41,-42.23"/>
<polygon fill="black" stroke="black" points="347.56,-39.47 337.61,-35.83 343.12,-44.88 347.56,-39.47"/>
<text text-anchor="middle" x="508.68" y="-169.05" font-family="Times,serif" font-size="14.00">6</text>
</g>
</g>
</svg>
