<?xml version="1.0" encoding="UTF-8" standalone="no"?>
<!DOCTYPE svg PUBLIC "-//W3C//DTD SVG 1.1//EN"
 "http://www.w3.org/Graphics/SVG/1.1/DTD/svg11.dtd">
<!-- Generated by graphviz version 2.43.0 (0)
 -->
<!-- Title: sel.func_801AEB74 Pages: 1 -->
<svg width="647pt" height="404pt"
 viewBox="0.00 0.00 647.18 404.00" xmlns="http://www.w3.org/2000/svg" xmlns:xlink="http://www.w3.org/1999/xlink">
<g id="graph0" class="graph" transform="scale(1 1) rotate(0) translate(4 400)">
<title>sel.func_801AEB74</title>
<polygon fill="white" stroke="transparent" points="-4,4 -4,-400 643.18,-400 643.18,4 -4,4"/>
<!-- sel.func_801AEB74 -->
<g id="node1" class="node">
<title>sel.func_801AEB74</title>
<ellipse fill="red" stroke="black" cx="322.39" cy="-198" rx="100.98" ry="18"/>
<text text-anchor="middle" x="322.39" y="-194.3" font-family="Times,serif" font-size="14.00">sel.func_801AEB74</text>
</g>
<!-- sel.func_801ACBE4 -->
<g id="node2" class="node">
<title>sel.func_801ACBE4</title>
<g id="a_node2"><a xlink:href="sel.func_801ACBE4.svg" xlink:title="sel.func_801ACBE4">
<ellipse fill="green" stroke="black" cx="101.39" cy="-18" rx="101.28" ry="18"/>
<text text-anchor="middle" x="101.39" y="-14.3" font-family="Times,serif" font-size="14.00">sel.func_801ACBE4</text>
</a>
</g>
</g>
<!-- sel.func_801AEB74&#45;&gt;sel.func_801ACBE4 -->
<g id="edge1" class="edge">
<title>sel.func_801AEB74&#45;&gt;sel.func_801ACBE4</title>
<path fill="none" stroke="black" d="M301.6,-180.25C261.95,-148.32 175.45,-78.65 130.23,-42.23"/>
<polygon fill="black" stroke="black" points="132.27,-39.38 122.29,-35.83 127.88,-44.83 132.27,-39.38"/>
<text text-anchor="middle" x="117.29" y="-39.63" font-family="Times,serif" font-size="14.00">5</text>
</g>
<!-- sel.func_801ACC3C -->
<g id="node3" class="node">
<title>sel.func_801ACC3C</title>
<g id="a_node3"><a xlink:href="sel.func_801ACC3C.svg" xlink:title="sel.func_801ACC3C">
<ellipse fill="green" stroke="black" cx="322.39" cy="-18" rx="101.28" ry="18"/>
<text text-anchor="middle" x="322.39" y="-14.3" font-family="Times,serif" font-size="14.00">sel.func_801ACC3C</text>
</a>
</g>
</g>
<!-- sel.func_801AEB74&#45;&gt;sel.func_801ACC3C -->
<g id="edge2" class="edge">
<title>sel.func_801AEB74&#45;&gt;sel.func_801ACC3C</title>
<path fill="none" stroke="black" d="M322.39,-179.93C322.39,-148.97 322.39,-83.3 322.39,-46.13"/>
<polygon fill="black" stroke="black" points="325.89,-46.02 322.39,-36.02 318.89,-46.02 325.89,-46.02"/>
<text text-anchor="middle" x="317.39" y="-39.82" font-family="Times,serif" font-size="14.00">1</text>
</g>
<!-- sel.func_801B2670 -->
<g id="node4" class="node">
<title>sel.func_801B2670</title>
<g id="a_node4"><a xlink:href="sel.func_801B2670.svg" xlink:title="sel.func_801B2670">
<ellipse fill="green" stroke="black" cx="540.39" cy="-18" rx="98.58" ry="18"/>
<text text-anchor="middle" x="540.39" y="-14.3" font-family="Times,serif" font-size="14.00">sel.func_801B2670</text>
</a>
</g>
</g>
<!-- sel.func_801AEB74&#45;&gt;sel.func_801B2670 -->
<g id="edge3" class="edge">
<title>sel.func_801AEB74&#45;&gt;sel.func_801B2670</title>
<path fill="none" stroke="black" d="M342.9,-180.25C382.01,-148.32 467.34,-78.65 511.94,-42.23"/>
<polygon fill="black" stroke="black" points="514.25,-44.87 519.78,-35.83 509.82,-39.44 514.25,-44.87"/>
<text text-anchor="middle" x="514.78" y="-39.63" font-family="Times,serif" font-size="14.00">1</text>
</g>
<!-- sel.Update -->
<g id="node5" class="node">
<title>sel.Update</title>
<g id="a_node5"><a xlink:href="sel.Update.svg" xlink:title="sel.Update">
<ellipse fill="red" stroke="black" cx="322.39" cy="-378" rx="61.19" ry="18"/>
<text text-anchor="middle" x="322.39" y="-374.3" font-family="Times,serif" font-size="14.00">sel.Update</text>
</a>
</g>
</g>
<!-- sel.Update&#45;&gt;sel.func_801AEB74 -->
<g id="edge4" class="edge">
<title>sel.Update&#45;&gt;sel.func_801AEB74</title>
<path fill="none" stroke="black" d="M322.39,-359.93C322.39,-328.97 322.39,-263.3 322.39,-226.13"/>
<polygon fill="black" stroke="black" points="325.89,-226.02 322.39,-216.02 318.89,-226.02 325.89,-226.02"/>
<text text-anchor="middle" x="317.39" y="-348.73" font-family="Times,serif" font-size="14.00">6</text>
</g>
</g>
</svg>
