<?xml version="1.0" encoding="UTF-8" standalone="no"?>
<!DOCTYPE svg PUBLIC "-//W3C//DTD SVG 1.1//EN"
 "http://www.w3.org/Graphics/SVG/1.1/DTD/svg11.dtd">
<!-- Generated by graphviz version 2.43.0 (0)
 -->
<!-- Title: sel.UpdateNameEntry Pages: 1 -->
<svg width="237pt" height="218pt"
 viewBox="0.00 0.00 236.78 218.00" xmlns="http://www.w3.org/2000/svg" xmlns:xlink="http://www.w3.org/1999/xlink">
<g id="graph0" class="graph" transform="scale(1 1) rotate(0) translate(4 214)">
<title>sel.UpdateNameEntry</title>
<polygon fill="white" stroke="transparent" points="-4,4 -4,-214 232.78,-214 232.78,4 -4,4"/>
<!-- sel.UpdateNameEntry -->
<g id="node1" class="node">
<title>sel.UpdateNameEntry</title>
<ellipse fill="green" stroke="black" cx="114.39" cy="-105" rx="114.28" ry="18"/>
<text text-anchor="middle" x="114.39" y="-101.3" font-family="Times,serif" font-size="14.00">sel.UpdateNameEntry</text>
</g>
<!-- dra.PlaySfx -->
<g id="node2" class="node">
<title>dra.PlaySfx</title>
<g id="a_node2"><a xlink:href="dra.PlaySfx.svg" xlink:title="dra.PlaySfx">
<ellipse fill="green" stroke="black" cx="114.39" cy="-18" rx="64.19" ry="18"/>
<text text-anchor="middle" x="114.39" y="-14.3" font-family="Times,serif" font-size="14.00">dra.PlaySfx</text>
</a>
</g>
</g>
<!-- sel.UpdateNameEntry&#45;&gt;dra.PlaySfx -->
<g id="edge1" class="edge">
<title>sel.UpdateNameEntry&#45;&gt;dra.PlaySfx</title>
<path fill="none" stroke="black" d="M114.39,-86.8C114.39,-75.16 114.39,-59.55 114.39,-46.24"/>
<polygon fill="black" stroke="black" points="117.89,-46.18 114.39,-36.18 110.89,-46.18 117.89,-46.18"/>
<text text-anchor="middle" x="119.39" y="-57.8" font-family="Times,serif" font-size="14.00">7</text>
</g>
<!-- sel.Update -->
<g id="node3" class="node">
<title>sel.Update</title>
<g id="a_node3"><a xlink:href="sel.Update.svg" xlink:title="sel.Update">
<ellipse fill="red" stroke="black" cx="114.39" cy="-192" rx="61.19" ry="18"/>
<text text-anchor="middle" x="114.39" y="-188.3" font-family="Times,serif" font-size="14.00">sel.Update</text>
</a>
</g>
</g>
<!-- sel.Update&#45;&gt;sel.UpdateNameEntry -->
<g id="edge2" class="edge">
<title>sel.Update&#45;&gt;sel.UpdateNameEntry</title>
<path fill="none" stroke="black" d="M114.39,-173.8C114.39,-162.16 114.39,-146.55 114.39,-133.24"/>
<polygon fill="black" stroke="black" points="117.89,-133.18 114.39,-123.18 110.89,-133.18 117.89,-133.18"/>
<text text-anchor="middle" x="119.39" y="-144.8" font-family="Times,serif" font-size="14.00">2</text>
</g>
</g>
</svg>
