<?xml version="1.0" encoding="UTF-8" standalone="no"?>
<!DOCTYPE svg PUBLIC "-//W3C//DTD SVG 1.1//EN"
 "http://www.w3.org/Graphics/SVG/1.1/DTD/svg11.dtd">
<!-- Generated by graphviz version 2.43.0 (0)
 -->
<!-- Title: sel.func_801B1CFC Pages: 1 -->
<svg width="1293pt" height="404pt"
 viewBox="0.00 0.00 1293.38 404.00" xmlns="http://www.w3.org/2000/svg" xmlns:xlink="http://www.w3.org/1999/xlink">
<g id="graph0" class="graph" transform="scale(1 1) rotate(0) translate(4 400)">
<title>sel.func_801B1CFC</title>
<polygon fill="white" stroke="transparent" points="-4,4 -4,-400 1289.38,-400 1289.38,4 -4,4"/>
<!-- sel.func_801B1CFC -->
<g id="node1" class="node">
<title>sel.func_801B1CFC</title>
<ellipse fill="green" stroke="black" cx="629.99" cy="-198" rx="101.28" ry="18"/>
<text text-anchor="middle" x="629.99" y="-194.3" font-family="Times,serif" font-size="14.00">sel.func_801B1CFC</text>
</g>
<!-- sel.func_801B1C78 -->
<g id="node2" class="node">
<title>sel.func_801B1C78</title>
<g id="a_node2"><a xlink:href="sel.func_801B1C78.svg" xlink:title="sel.func_801B1C78">
<ellipse fill="green" stroke="black" cx="629.99" cy="-18" rx="100.18" ry="18"/>
<text text-anchor="middle" x="629.99" y="-14.3" font-family="Times,serif" font-size="14.00">sel.func_801B1C78</text>
</a>
</g>
</g>
<!-- sel.func_801B1CFC&#45;&gt;sel.func_801B1C78 -->
<g id="edge1" class="edge">
<title>sel.func_801B1CFC&#45;&gt;sel.func_801B1C78</title>
<path fill="none" stroke="black" d="M629.99,-179.93C629.99,-148.97 629.99,-83.3 629.99,-46.13"/>
<polygon fill="black" stroke="black" points="633.49,-46.02 629.99,-36.02 626.49,-46.02 633.49,-46.02"/>
<text text-anchor="middle" x="624.99" y="-39.82" font-family="Times,serif" font-size="14.00">4</text>
</g>
<!-- sel.TestCollisions -->
<g id="node3" class="node">
<title>sel.TestCollisions</title>
<g id="a_node3"><a xlink:href="sel.TestCollisions.svg" xlink:title="sel.TestCollisions">
<ellipse fill="red" stroke="black" cx="90.99" cy="-378" rx="90.98" ry="18"/>
<text text-anchor="middle" x="90.99" y="-374.3" font-family="Times,serif" font-size="14.00">sel.TestCollisions</text>
</a>
</g>
</g>
<!-- sel.TestCollisions&#45;&gt;sel.func_801B1CFC -->
<g id="edge2" class="edge">
<title>sel.TestCollisions&#45;&gt;sel.func_801B1CFC</title>
<path fill="none" stroke="black" d="M135.56,-362.28C233.52,-329.93 467.36,-252.71 574.57,-217.3"/>
<polygon fill="black" stroke="black" points="575.83,-220.57 584.23,-214.11 573.64,-213.92 575.83,-220.57"/>
<text text-anchor="middle" x="130.56" y="-351.08" font-family="Times,serif" font-size="14.00">2</text>
</g>
<!-- sel.func_801B1D68 -->
<g id="node4" class="node">
<title>sel.func_801B1D68</title>
<g id="a_node4"><a xlink:href="sel.func_801B1D68.svg" xlink:title="sel.func_801B1D68">
<ellipse fill="green" stroke="black" cx="300.99" cy="-378" rx="100.98" ry="18"/>
<text text-anchor="middle" x="300.99" y="-374.3" font-family="Times,serif" font-size="14.00">sel.func_801B1D68</text>
</a>
</g>
</g>
<!-- sel.func_801B1D68&#45;&gt;sel.func_801B1CFC -->
<g id="edge3" class="edge">
<title>sel.func_801B1D68&#45;&gt;sel.func_801B1CFC</title>
<path fill="none" stroke="black" d="M331.06,-360.73C390.75,-328.44 524.18,-256.25 590.71,-220.25"/>
<polygon fill="black" stroke="black" points="592.51,-223.26 599.64,-215.42 589.18,-217.1 592.51,-223.26"/>
<text text-anchor="middle" x="326.06" y="-349.53" font-family="Times,serif" font-size="14.00">1</text>
</g>
<!-- sel.func_801B1D88 -->
<g id="node5" class="node">
<title>sel.func_801B1D88</title>
<g id="a_node5"><a xlink:href="sel.func_801B1D88.svg" xlink:title="sel.func_801B1D88">
<ellipse fill="green" stroke="black" cx="519.99" cy="-378" rx="100.98" ry="18"/>
<text text-anchor="middle" x="519.99" y="-374.3" font-family="Times,serif" font-size="14.00">sel.func_801B1D88</text>
</a>
</g>
</g>
<!-- sel.func_801B1D88&#45;&gt;sel.func_801B1CFC -->
<g id="edge4" class="edge">
<title>sel.func_801B1D88&#45;&gt;sel.func_801B1CFC</title>
<path fill="none" stroke="black" d="M530.54,-359.93C549.92,-328.57 591.31,-261.6 614.11,-224.71"/>
<polygon fill="black" stroke="black" points="617.2,-226.36 619.48,-216.02 611.24,-222.68 617.2,-226.36"/>
<text text-anchor="middle" x="525.54" y="-348.73" font-family="Times,serif" font-size="14.00">1</text>
</g>
<!-- sel.func_801ACDFC -->
<g id="node6" class="node">
<title>sel.func_801ACDFC</title>
<g id="a_node6"><a xlink:href="sel.func_801ACDFC.svg" xlink:title="sel.func_801ACDFC">
<ellipse fill="green" stroke="black" cx="740.99" cy="-378" rx="102.88" ry="18"/>
<text text-anchor="middle" x="740.99" y="-374.3" font-family="Times,serif" font-size="14.00">sel.func_801ACDFC</text>
</a>
</g>
</g>
<!-- sel.func_801ACDFC&#45;&gt;sel.func_801B1CFC -->
<g id="edge5" class="edge">
<title>sel.func_801ACDFC&#45;&gt;sel.func_801B1CFC</title>
<path fill="none" stroke="black" d="M730.35,-359.93C710.79,-328.57 669.03,-261.6 646.02,-224.71"/>
<polygon fill="black" stroke="black" points="648.86,-222.65 640.6,-216.02 642.92,-226.35 648.86,-222.65"/>
<text text-anchor="middle" x="725.35" y="-348.73" font-family="Times,serif" font-size="14.00">2</text>
</g>
<!-- sel.func_801ACC7C -->
<g id="node7" class="node">
<title>sel.func_801ACC7C</title>
<g id="a_node7"><a xlink:href="sel.func_801ACC7C.svg" xlink:title="sel.func_801ACC7C">
<ellipse fill="green" stroke="black" cx="962.99" cy="-378" rx="101.28" ry="18"/>
<text text-anchor="middle" x="962.99" y="-374.3" font-family="Times,serif" font-size="14.00">sel.func_801ACC7C</text>
</a>
</g>
</g>
<!-- sel.func_801ACC7C&#45;&gt;sel.func_801B1CFC -->
<g id="edge6" class="edge">
<title>sel.func_801ACC7C&#45;&gt;sel.func_801B1CFC</title>
<path fill="none" stroke="black" d="M932.56,-360.73C872.14,-328.44 737.09,-256.25 669.75,-220.25"/>
<polygon fill="black" stroke="black" points="671.19,-217.05 660.72,-215.42 667.89,-223.22 671.19,-217.05"/>
<text text-anchor="middle" x="927.56" y="-349.53" font-family="Times,serif" font-size="14.00">1</text>
</g>
<!-- sel.func_801ACEC0 -->
<g id="node8" class="node">
<title>sel.func_801ACEC0</title>
<g id="a_node8"><a xlink:href="sel.func_801ACEC0.svg" xlink:title="sel.func_801ACEC0">
<ellipse fill="green" stroke="black" cx="1183.99" cy="-378" rx="101.28" ry="18"/>
<text text-anchor="middle" x="1183.99" y="-374.3" font-family="Times,serif" font-size="14.00">sel.func_801ACEC0</text>
</a>
</g>
</g>
<!-- sel.func_801ACEC0&#45;&gt;sel.func_801B1CFC -->
<g id="edge7" class="edge">
<title>sel.func_801ACEC0&#45;&gt;sel.func_801B1CFC</title>
<path fill="none" stroke="black" d="M1137.24,-361.98C1035.82,-329.39 795.96,-252.33 686.38,-217.12"/>
<polygon fill="black" stroke="black" points="687.41,-213.77 676.82,-214.05 685.27,-220.44 687.41,-213.77"/>
<text text-anchor="middle" x="1132.24" y="-350.78" font-family="Times,serif" font-size="14.00">2</text>
</g>
</g>
</svg>
