<?xml version="1.0" encoding="UTF-8" standalone="no"?>
<!DOCTYPE svg PUBLIC "-//W3C//DTD SVG 1.1//EN"
 "http://www.w3.org/Graphics/SVG/1.1/DTD/svg11.dtd">
<!-- Generated by graphviz version 2.43.0 (0)
 -->
<!-- Title: sel.func_801B2DF4 Pages: 1 -->
<svg width="1099pt" height="224pt"
 viewBox="0.00 0.00 1098.73 224.00" xmlns="http://www.w3.org/2000/svg" xmlns:xlink="http://www.w3.org/1999/xlink">
<g id="graph0" class="graph" transform="scale(1 1) rotate(0) translate(4 220)">
<title>sel.func_801B2DF4</title>
<polygon fill="white" stroke="transparent" points="-4,4 -4,-220 1094.73,-220 1094.73,4 -4,4"/>
<!-- sel.func_801B2DF4 -->
<g id="node1" class="node">
<title>sel.func_801B2DF4</title>
<ellipse fill="green" stroke="black" cx="544.04" cy="-198" rx="100.98" ry="18"/>
<text text-anchor="middle" x="544.04" y="-194.3" font-family="Times,serif" font-size="14.00">sel.func_801B2DF4</text>
</g>
<!-- sel.func_801B2DAC -->
<g id="node2" class="node">
<title>sel.func_801B2DAC</title>
<g id="a_node2"><a xlink:href="sel.func_801B2DAC.svg" xlink:title="sel.func_801B2DAC">
<ellipse fill="green" stroke="black" cx="102.04" cy="-18" rx="102.08" ry="18"/>
<text text-anchor="middle" x="102.04" y="-14.3" font-family="Times,serif" font-size="14.00">sel.func_801B2DAC</text>
</a>
</g>
</g>
<!-- sel.func_801B2DF4&#45;&gt;sel.func_801B2DAC -->
<g id="edge1" class="edge">
<title>sel.func_801B2DF4&#45;&gt;sel.func_801B2DAC</title>
<path fill="none" stroke="black" d="M505.2,-181.36C424.49,-148.86 238.82,-74.08 150.46,-38.5"/>
<polygon fill="black" stroke="black" points="151.53,-35.16 140.95,-34.67 148.92,-41.65 151.53,-35.16"/>
<text text-anchor="middle" x="135.95" y="-38.47" font-family="Times,serif" font-size="14.00">1</text>
</g>
<!-- sel.func_801B8A8C -->
<g id="node3" class="node">
<title>sel.func_801B8A8C</title>
<g id="a_node3"><a xlink:href="sel.func_801B8A8C.svg" xlink:title="sel.func_801B8A8C">
<ellipse fill="green" stroke="black" cx="323.04" cy="-18" rx="100.98" ry="18"/>
<text text-anchor="middle" x="323.04" y="-14.3" font-family="Times,serif" font-size="14.00">sel.func_801B8A8C</text>
</a>
</g>
</g>
<!-- sel.func_801B2DF4&#45;&gt;sel.func_801B8A8C -->
<g id="edge2" class="edge">
<title>sel.func_801B2DF4&#45;&gt;sel.func_801B8A8C</title>
<path fill="none" stroke="black" d="M523.25,-180.25C483.6,-148.32 397.1,-78.65 351.88,-42.23"/>
<polygon fill="black" stroke="black" points="353.92,-39.38 343.94,-35.83 349.53,-44.83 353.92,-39.38"/>
<text text-anchor="middle" x="338.94" y="-39.63" font-family="Times,serif" font-size="14.00">1</text>
</g>
<!-- sel.func_801B2DDC -->
<g id="node4" class="node">
<title>sel.func_801B2DDC</title>
<g id="a_node4"><a xlink:href="sel.func_801B2DDC.svg" xlink:title="sel.func_801B2DDC">
<ellipse fill="green" stroke="black" cx="544.04" cy="-18" rx="102.88" ry="18"/>
<text text-anchor="middle" x="544.04" y="-14.3" font-family="Times,serif" font-size="14.00">sel.func_801B2DDC</text>
</a>
</g>
</g>
<!-- sel.func_801B2DF4&#45;&gt;sel.func_801B2DDC -->
<g id="edge3" class="edge">
<title>sel.func_801B2DF4&#45;&gt;sel.func_801B2DDC</title>
<path fill="none" stroke="black" d="M544.04,-179.93C544.04,-148.97 544.04,-83.3 544.04,-46.13"/>
<polygon fill="black" stroke="black" points="547.54,-46.02 544.04,-36.02 540.54,-46.02 547.54,-46.02"/>
<text text-anchor="middle" x="539.04" y="-39.82" font-family="Times,serif" font-size="14.00">1</text>
</g>
<!-- sel.func_801B2DE4 -->
<g id="node5" class="node">
<title>sel.func_801B2DE4</title>
<g id="a_node5"><a xlink:href="sel.func_801B2DE4.svg" xlink:title="sel.func_801B2DE4">
<ellipse fill="green" stroke="black" cx="766.04" cy="-18" rx="101.28" ry="18"/>
<text text-anchor="middle" x="766.04" y="-14.3" font-family="Times,serif" font-size="14.00">sel.func_801B2DE4</text>
</a>
</g>
</g>
<!-- sel.func_801B2DF4&#45;&gt;sel.func_801B2DE4 -->
<g id="edge4" class="edge">
<title>sel.func_801B2DF4&#45;&gt;sel.func_801B2DE4</title>
<path fill="none" stroke="black" d="M564.93,-180.25C604.76,-148.32 691.65,-78.65 737.07,-42.23"/>
<polygon fill="black" stroke="black" points="739.44,-44.82 745.05,-35.83 735.06,-39.36 739.44,-44.82"/>
<text text-anchor="middle" x="740.05" y="-39.63" font-family="Times,serif" font-size="14.00">1</text>
</g>
<!-- sel.func_801B2DEC -->
<g id="node6" class="node">
<title>sel.func_801B2DEC</title>
<g id="a_node6"><a xlink:href="sel.func_801B2DEC.svg" xlink:title="sel.func_801B2DEC">
<ellipse fill="green" stroke="black" cx="988.04" cy="-18" rx="102.88" ry="18"/>
<text text-anchor="middle" x="988.04" y="-14.3" font-family="Times,serif" font-size="14.00">sel.func_801B2DEC</text>
</a>
</g>
</g>
<!-- sel.func_801B2DF4&#45;&gt;sel.func_801B2DEC -->
<g id="edge5" class="edge">
<title>sel.func_801B2DF4&#45;&gt;sel.func_801B2DEC</title>
<path fill="none" stroke="black" d="M583.05,-181.36C664.21,-148.82 851.03,-73.93 939.67,-38.39"/>
<polygon fill="black" stroke="black" points="940.98,-41.64 948.96,-34.67 938.37,-35.14 940.98,-41.64"/>
<text text-anchor="middle" x="943.96" y="-38.47" font-family="Times,serif" font-size="14.00">1</text>
</g>
</g>
</svg>
