<?xml version="1.0" encoding="UTF-8" standalone="no"?>
<!DOCTYPE svg PUBLIC "-//W3C//DTD SVG 1.1//EN"
 "http://www.w3.org/Graphics/SVG/1.1/DTD/svg11.dtd">
<!-- Generated by graphviz version 2.43.0 (0)
 -->
<!-- Title: sel.func_801B3694 Pages: 1 -->
<svg width="1204pt" height="218pt"
 viewBox="0.00 0.00 1203.64 218.00" xmlns="http://www.w3.org/2000/svg" xmlns:xlink="http://www.w3.org/1999/xlink">
<g id="graph0" class="graph" transform="scale(1 1) rotate(0) translate(4 214)">
<title>sel.func_801B3694</title>
<polygon fill="white" stroke="transparent" points="-4,4 -4,-214 1199.64,-214 1199.64,4 -4,4"/>
<!-- sel.func_801B3694 -->
<g id="node1" class="node">
<title>sel.func_801B3694</title>
<ellipse fill="red" stroke="black" cx="547.05" cy="-105" rx="98.58" ry="18"/>
<text text-anchor="middle" x="547.05" y="-101.3" font-family="Times,serif" font-size="14.00">sel.func_801B3694</text>
</g>
<!-- FntPrint -->
<g id="node2" class="node">
<title>FntPrint</title>
<g id="a_node2"><a xlink:href="FntPrint.svg" xlink:title="FntPrint">
<ellipse fill="lightblue" stroke="black" cx="50.05" cy="-18" rx="50.09" ry="18"/>
<text text-anchor="middle" x="50.05" y="-14.3" font-family="Times,serif" font-size="14.00">FntPrint</text>
</a>
</g>
</g>
<!-- sel.func_801B3694&#45;&gt;FntPrint -->
<g id="edge1" class="edge">
<title>sel.func_801B3694&#45;&gt;FntPrint</title>
<path fill="none" stroke="black" d="M466.15,-94.56C377.82,-83.52 232.47,-63.25 109.05,-36 104.95,-35.1 100.71,-34.07 96.48,-32.97"/>
<polygon fill="black" stroke="black" points="97.25,-29.56 86.68,-30.33 95.43,-36.31 97.25,-29.56"/>
<text text-anchor="middle" x="282.05" y="-57.8" font-family="Times,serif" font-size="14.00">2</text>
</g>
<!-- sel.func_801B84F0 -->
<g id="node3" class="node">
<title>sel.func_801B84F0</title>
<g id="a_node3"><a xlink:href="sel.func_801B84F0.svg" xlink:title="sel.func_801B84F0">
<ellipse fill="green" stroke="black" cx="217.05" cy="-18" rx="99.38" ry="18"/>
<text text-anchor="middle" x="217.05" y="-14.3" font-family="Times,serif" font-size="14.00">sel.func_801B84F0</text>
</a>
</g>
</g>
<!-- sel.func_801B3694&#45;&gt;sel.func_801B84F0 -->
<g id="edge2" class="edge">
<title>sel.func_801B3694&#45;&gt;sel.func_801B84F0</title>
<path fill="none" stroke="black" d="M492.55,-89.96C434.63,-75.05 343.09,-51.47 281.6,-35.63"/>
<polygon fill="black" stroke="black" points="282.18,-32.16 271.62,-33.06 280.43,-38.94 282.18,-32.16"/>
<text text-anchor="middle" x="407.05" y="-57.8" font-family="Times,serif" font-size="14.00">1</text>
</g>
<!-- sel.func_801B9698 -->
<g id="node4" class="node">
<title>sel.func_801B9698</title>
<g id="a_node4"><a xlink:href="sel.func_801B9698.svg" xlink:title="sel.func_801B9698">
<ellipse fill="green" stroke="black" cx="433.05" cy="-18" rx="98.58" ry="18"/>
<text text-anchor="middle" x="433.05" y="-14.3" font-family="Times,serif" font-size="14.00">sel.func_801B9698</text>
</a>
</g>
</g>
<!-- sel.func_801B3694&#45;&gt;sel.func_801B9698 -->
<g id="edge3" class="edge">
<title>sel.func_801B3694&#45;&gt;sel.func_801B9698</title>
<path fill="none" stroke="black" d="M524.79,-87.41C507.3,-74.36 482.73,-56.05 463.43,-41.65"/>
<polygon fill="black" stroke="black" points="465.35,-38.72 455.24,-35.55 461.17,-44.33 465.35,-38.72"/>
<text text-anchor="middle" x="502.05" y="-57.8" font-family="Times,serif" font-size="14.00">1</text>
</g>
<!-- sel.MemcardReadFile -->
<g id="node5" class="node">
<title>sel.MemcardReadFile</title>
<g id="a_node5"><a xlink:href="sel.MemcardReadFile.svg" xlink:title="sel.MemcardReadFile">
<ellipse fill="green" stroke="black" cx="662.05" cy="-18" rx="111.58" ry="18"/>
<text text-anchor="middle" x="662.05" y="-14.3" font-family="Times,serif" font-size="14.00">sel.MemcardReadFile</text>
</a>
</g>
</g>
<!-- sel.func_801B3694&#45;&gt;sel.MemcardReadFile -->
<g id="edge4" class="edge">
<title>sel.func_801B3694&#45;&gt;sel.MemcardReadFile</title>
<path fill="none" stroke="black" d="M569.49,-87.41C587.03,-74.45 611.6,-56.28 631.02,-41.93"/>
<polygon fill="black" stroke="black" points="633.3,-44.6 639.26,-35.84 629.14,-38.97 633.3,-44.6"/>
<text text-anchor="middle" x="617.05" y="-57.8" font-family="Times,serif" font-size="14.00">1</text>
</g>
<!-- sel.func_801B8A10 -->
<g id="node6" class="node">
<title>sel.func_801B8A10</title>
<g id="a_node6"><a xlink:href="sel.func_801B8A10.svg" xlink:title="sel.func_801B8A10">
<ellipse fill="green" stroke="black" cx="891.05" cy="-18" rx="99.38" ry="18"/>
<text text-anchor="middle" x="891.05" y="-14.3" font-family="Times,serif" font-size="14.00">sel.func_801B8A10</text>
</a>
</g>
</g>
<!-- sel.func_801B3694&#45;&gt;sel.func_801B8A10 -->
<g id="edge5" class="edge">
<title>sel.func_801B3694&#45;&gt;sel.func_801B8A10</title>
<path fill="none" stroke="black" d="M603.08,-90.15C663.71,-75.17 760.33,-51.3 824.7,-35.39"/>
<polygon fill="black" stroke="black" points="825.88,-38.71 834.75,-32.91 824.2,-31.91 825.88,-38.71"/>
<text text-anchor="middle" x="744.05" y="-57.8" font-family="Times,serif" font-size="14.00">1</text>
</g>
<!-- sel.LoadSaveData -->
<g id="node7" class="node">
<title>sel.LoadSaveData</title>
<g id="a_node7"><a xlink:href="sel.LoadSaveData.svg" xlink:title="sel.LoadSaveData">
<ellipse fill="green" stroke="black" cx="1102.05" cy="-18" rx="93.68" ry="18"/>
<text text-anchor="middle" x="1102.05" y="-14.3" font-family="Times,serif" font-size="14.00">sel.LoadSaveData</text>
</a>
</g>
</g>
<!-- sel.func_801B3694&#45;&gt;sel.LoadSaveData -->
<g id="edge6" class="edge">
<title>sel.func_801B3694&#45;&gt;sel.LoadSaveData</title>
<path fill="none" stroke="black" d="M621.48,-93.13C711.11,-79.97 866.18,-56.96 999.05,-36 1007.15,-34.72 1015.61,-33.36 1024.05,-31.99"/>
<polygon fill="black" stroke="black" points="1024.61,-35.45 1033.92,-30.38 1023.49,-28.54 1024.61,-35.45"/>
<text text-anchor="middle" x="879.05" y="-57.8" font-family="Times,serif" font-size="14.00">1</text>
</g>
<!-- sel.Update -->
<g id="node8" class="node">
<title>sel.Update</title>
<g id="a_node8"><a xlink:href="sel.Update.svg" xlink:title="sel.Update">
<ellipse fill="red" stroke="black" cx="547.05" cy="-192" rx="61.19" ry="18"/>
<text text-anchor="middle" x="547.05" y="-188.3" font-family="Times,serif" font-size="14.00">sel.Update</text>
</a>
</g>
</g>
<!-- sel.Update&#45;&gt;sel.func_801B3694 -->
<g id="edge7" class="edge">
<title>sel.Update&#45;&gt;sel.func_801B3694</title>
<path fill="none" stroke="black" d="M547.05,-173.8C547.05,-162.16 547.05,-146.55 547.05,-133.24"/>
<polygon fill="black" stroke="black" points="550.55,-133.18 547.05,-123.18 543.55,-133.18 550.55,-133.18"/>
<text text-anchor="middle" x="552.05" y="-144.8" font-family="Times,serif" font-size="14.00">1</text>
</g>
</g>
</svg>
