<?xml version="1.0" encoding="UTF-8" standalone="no"?>
<!DOCTYPE svg PUBLIC "-//W3C//DTD SVG 1.1//EN"
 "http://www.w3.org/Graphics/SVG/1.1/DTD/svg11.dtd">
<!-- Generated by graphviz version 2.43.0 (0)
 -->
<!-- Title: sel.func_801B3E2C Pages: 1 -->
<svg width="652pt" height="404pt"
 viewBox="0.00 0.00 652.08 404.00" xmlns="http://www.w3.org/2000/svg" xmlns:xlink="http://www.w3.org/1999/xlink">
<g id="graph0" class="graph" transform="scale(1 1) rotate(0) translate(4 400)">
<title>sel.func_801B3E2C</title>
<polygon fill="white" stroke="transparent" points="-4,4 -4,-400 648.08,-400 648.08,4 -4,4"/>
<!-- sel.func_801B3E2C -->
<g id="node1" class="node">
<title>sel.func_801B3E2C</title>
<ellipse fill="green" stroke="black" cx="338.99" cy="-198" rx="100.98" ry="18"/>
<text text-anchor="middle" x="338.99" y="-194.3" font-family="Times,serif" font-size="14.00">sel.func_801B3E2C</text>
</g>
<!-- sel.MakeMemcardPath -->
<g id="node2" class="node">
<title>sel.MakeMemcardPath</title>
<g id="a_node2"><a xlink:href="sel.MakeMemcardPath.svg" xlink:title="sel.MakeMemcardPath">
<ellipse fill="green" stroke="black" cx="116.99" cy="-18" rx="116.98" ry="18"/>
<text text-anchor="middle" x="116.99" y="-14.3" font-family="Times,serif" font-size="14.00">sel.MakeMemcardPath</text>
</a>
</g>
</g>
<!-- sel.func_801B3E2C&#45;&gt;sel.MakeMemcardPath -->
<g id="edge1" class="edge">
<title>sel.func_801B3E2C&#45;&gt;sel.MakeMemcardPath</title>
<path fill="none" stroke="black" d="M318.1,-180.25C278.27,-148.32 191.38,-78.65 145.96,-42.23"/>
<polygon fill="black" stroke="black" points="147.97,-39.36 137.98,-35.83 143.59,-44.82 147.97,-39.36"/>
<text text-anchor="middle" x="132.98" y="-39.63" font-family="Times,serif" font-size="14.00">1</text>
</g>
<!-- sel.MemcardInit -->
<g id="node3" class="node">
<title>sel.MemcardInit</title>
<g id="a_node3"><a xlink:href="sel.MemcardInit.svg" xlink:title="sel.MemcardInit">
<ellipse fill="green" stroke="black" cx="338.99" cy="-18" rx="87.18" ry="18"/>
<text text-anchor="middle" x="338.99" y="-14.3" font-family="Times,serif" font-size="14.00">sel.MemcardInit</text>
</a>
</g>
</g>
<!-- sel.func_801B3E2C&#45;&gt;sel.MemcardInit -->
<g id="edge2" class="edge">
<title>sel.func_801B3E2C&#45;&gt;sel.MemcardInit</title>
<path fill="none" stroke="black" d="M338.99,-179.93C338.99,-148.97 338.99,-83.3 338.99,-46.13"/>
<polygon fill="black" stroke="black" points="342.49,-46.02 338.99,-36.02 335.49,-46.02 342.49,-46.02"/>
<text text-anchor="middle" x="333.99" y="-39.82" font-family="Times,serif" font-size="14.00">1</text>
</g>
<!-- sel.func_801B89C8 -->
<g id="node4" class="node">
<title>sel.func_801B89C8</title>
<g id="a_node4"><a xlink:href="sel.func_801B89C8.svg" xlink:title="sel.func_801B89C8">
<ellipse fill="green" stroke="black" cx="543.99" cy="-18" rx="100.18" ry="18"/>
<text text-anchor="middle" x="543.99" y="-14.3" font-family="Times,serif" font-size="14.00">sel.func_801B89C8</text>
</a>
</g>
</g>
<!-- sel.func_801B3E2C&#45;&gt;sel.func_801B89C8 -->
<g id="edge3" class="edge">
<title>sel.func_801B3E2C&#45;&gt;sel.func_801B89C8</title>
<path fill="none" stroke="black" d="M358.28,-180.25C394.98,-148.38 474.96,-78.94 516.98,-42.45"/>
<polygon fill="black" stroke="black" points="519.35,-45.03 524.61,-35.83 514.76,-39.74 519.35,-45.03"/>
<text text-anchor="middle" x="519.61" y="-39.63" font-family="Times,serif" font-size="14.00">1</text>
</g>
<!-- sel.Update -->
<g id="node5" class="node">
<title>sel.Update</title>
<g id="a_node5"><a xlink:href="sel.Update.svg" xlink:title="sel.Update">
<ellipse fill="red" stroke="black" cx="338.99" cy="-378" rx="61.19" ry="18"/>
<text text-anchor="middle" x="338.99" y="-374.3" font-family="Times,serif" font-size="14.00">sel.Update</text>
</a>
</g>
</g>
<!-- sel.Update&#45;&gt;sel.func_801B3E2C -->
<g id="edge4" class="edge">
<title>sel.Update&#45;&gt;sel.func_801B3E2C</title>
<path fill="none" stroke="black" d="M338.99,-359.93C338.99,-328.97 338.99,-263.3 338.99,-226.13"/>
<polygon fill="black" stroke="black" points="342.49,-226.02 338.99,-216.02 335.49,-226.02 342.49,-226.02"/>
<text text-anchor="middle" x="333.99" y="-348.73" font-family="Times,serif" font-size="14.00">1</text>
</g>
</g>
</svg>
