<?xml version="1.0" encoding="UTF-8" standalone="no"?>
<!DOCTYPE svg PUBLIC "-//W3C//DTD SVG 1.1//EN"
 "http://www.w3.org/Graphics/SVG/1.1/DTD/svg11.dtd">
<!-- Generated by graphviz version 2.43.0 (0)
 -->
<!-- Title: sel.func_801B18F4 Pages: 1 -->
<svg width="1214pt" height="404pt"
 viewBox="0.00 0.00 1213.53 404.00" xmlns="http://www.w3.org/2000/svg" xmlns:xlink="http://www.w3.org/1999/xlink">
<g id="graph0" class="graph" transform="scale(1 1) rotate(0) translate(4 400)">
<title>sel.func_801B18F4</title>
<polygon fill="white" stroke="transparent" points="-4,4 -4,-400 1209.53,-400 1209.53,4 -4,4"/>
<!-- sel.func_801B18F4 -->
<g id="node1" class="node">
<title>sel.func_801B18F4</title>
<ellipse fill="green" stroke="black" cx="631.79" cy="-198" rx="99.38" ry="18"/>
<text text-anchor="middle" x="631.79" y="-194.3" font-family="Times,serif" font-size="14.00">sel.func_801B18F4</text>
</g>
<!-- ClearImage -->
<g id="node2" class="node">
<title>ClearImage</title>
<g id="a_node2"><a xlink:href="ClearImage.svg" xlink:title="ClearImage">
<ellipse fill="lightblue" stroke="black" cx="631.79" cy="-18" rx="64.19" ry="18"/>
<text text-anchor="middle" x="631.79" y="-14.3" font-family="Times,serif" font-size="14.00">ClearImage</text>
</a>
</g>
</g>
<!-- sel.func_801B18F4&#45;&gt;ClearImage -->
<g id="edge1" class="edge">
<title>sel.func_801B18F4&#45;&gt;ClearImage</title>
<path fill="none" stroke="black" d="M631.79,-179.93C631.79,-148.97 631.79,-83.3 631.79,-46.13"/>
<polygon fill="black" stroke="black" points="635.29,-46.02 631.79,-36.02 628.29,-46.02 635.29,-46.02"/>
<text text-anchor="middle" x="626.79" y="-39.82" font-family="Times,serif" font-size="14.00">1</text>
</g>
<!-- sel.func_801B9924 -->
<g id="node3" class="node">
<title>sel.func_801B9924</title>
<g id="a_node3"><a xlink:href="sel.func_801B9924.svg" xlink:title="sel.func_801B9924">
<ellipse fill="green" stroke="black" cx="98.79" cy="-378" rx="98.58" ry="18"/>
<text text-anchor="middle" x="98.79" y="-374.3" font-family="Times,serif" font-size="14.00">sel.func_801B9924</text>
</a>
</g>
</g>
<!-- sel.func_801B9924&#45;&gt;sel.func_801B18F4 -->
<g id="edge2" class="edge">
<title>sel.func_801B9924&#45;&gt;sel.func_801B18F4</title>
<path fill="none" stroke="black" d="M144.23,-361.82C241.88,-329.21 471.41,-252.56 576.95,-217.32"/>
<polygon fill="black" stroke="black" points="578.09,-220.63 586.46,-214.14 575.87,-213.99 578.09,-220.63"/>
<text text-anchor="middle" x="139.23" y="-350.62" font-family="Times,serif" font-size="14.00">1</text>
</g>
<!-- sel.func_801B9C80 -->
<g id="node4" class="node">
<title>sel.func_801B9C80</title>
<g id="a_node4"><a xlink:href="sel.func_801B9C80.svg" xlink:title="sel.func_801B9C80">
<ellipse fill="red" stroke="black" cx="315.79" cy="-378" rx="100.18" ry="18"/>
<text text-anchor="middle" x="315.79" y="-374.3" font-family="Times,serif" font-size="14.00">sel.func_801B9C80</text>
</a>
</g>
</g>
<!-- sel.func_801B9C80&#45;&gt;sel.func_801B18F4 -->
<g id="edge3" class="edge">
<title>sel.func_801B9C80&#45;&gt;sel.func_801B18F4</title>
<path fill="none" stroke="black" d="M344.67,-360.73C401.89,-328.5 529.63,-256.55 593.67,-220.48"/>
<polygon fill="black" stroke="black" points="595.64,-223.38 602.63,-215.42 592.2,-217.28 595.64,-223.38"/>
<text text-anchor="middle" x="339.67" y="-349.53" font-family="Times,serif" font-size="14.00">1</text>
</g>
<!-- sel.TestCollisions -->
<g id="node5" class="node">
<title>sel.TestCollisions</title>
<g id="a_node5"><a xlink:href="sel.TestCollisions.svg" xlink:title="sel.TestCollisions">
<ellipse fill="red" stroke="black" cx="524.79" cy="-378" rx="90.98" ry="18"/>
<text text-anchor="middle" x="524.79" y="-374.3" font-family="Times,serif" font-size="14.00">sel.TestCollisions</text>
</a>
</g>
</g>
<!-- sel.TestCollisions&#45;&gt;sel.func_801B18F4 -->
<g id="edge4" class="edge">
<title>sel.TestCollisions&#45;&gt;sel.func_801B18F4</title>
<path fill="none" stroke="black" d="M535.05,-359.93C553.91,-328.57 594.16,-261.6 616.34,-224.71"/>
<polygon fill="black" stroke="black" points="619.41,-226.39 621.56,-216.02 613.41,-222.78 619.41,-226.39"/>
<text text-anchor="middle" x="530.05" y="-348.73" font-family="Times,serif" font-size="14.00">2</text>
</g>
<!-- sel.InitRoomEntities -->
<g id="node6" class="node">
<title>sel.InitRoomEntities</title>
<g id="a_node6"><a xlink:href="sel.InitRoomEntities.svg" xlink:title="sel.InitRoomEntities">
<ellipse fill="green" stroke="black" cx="739.79" cy="-378" rx="105.88" ry="18"/>
<text text-anchor="middle" x="739.79" y="-374.3" font-family="Times,serif" font-size="14.00">sel.InitRoomEntities</text>
</a>
</g>
</g>
<!-- sel.InitRoomEntities&#45;&gt;sel.func_801B18F4 -->
<g id="edge5" class="edge">
<title>sel.InitRoomEntities&#45;&gt;sel.func_801B18F4</title>
<path fill="none" stroke="black" d="M729.44,-359.93C710.41,-328.57 669.77,-261.6 647.39,-224.71"/>
<polygon fill="black" stroke="black" points="650.29,-222.75 642.12,-216.02 644.31,-226.38 650.29,-222.75"/>
<text text-anchor="middle" x="724.44" y="-348.73" font-family="Times,serif" font-size="14.00">1</text>
</g>
<!-- sel.Update -->
<g id="node7" class="node">
<title>sel.Update</title>
<g id="a_node7"><a xlink:href="sel.Update.svg" xlink:title="sel.Update">
<ellipse fill="red" stroke="black" cx="924.79" cy="-378" rx="61.19" ry="18"/>
<text text-anchor="middle" x="924.79" y="-374.3" font-family="Times,serif" font-size="14.00">sel.Update</text>
</a>
</g>
</g>
<!-- sel.Update&#45;&gt;sel.func_801B18F4 -->
<g id="edge6" class="edge">
<title>sel.Update&#45;&gt;sel.func_801B18F4</title>
<path fill="none" stroke="black" d="M899.3,-361.52C846.99,-329.74 727.4,-257.09 667.44,-220.66"/>
<polygon fill="black" stroke="black" points="669.06,-217.55 658.7,-215.35 665.43,-223.53 669.06,-217.55"/>
<text text-anchor="middle" x="894.3" y="-350.32" font-family="Times,serif" font-size="14.00">2</text>
</g>
<!-- sel.func_801B60D4 -->
<g id="node8" class="node">
<title>sel.func_801B60D4</title>
<g id="a_node8"><a xlink:href="sel.func_801B60D4.svg" xlink:title="sel.func_801B60D4">
<ellipse fill="green" stroke="black" cx="1104.79" cy="-378" rx="100.98" ry="18"/>
<text text-anchor="middle" x="1104.79" y="-374.3" font-family="Times,serif" font-size="14.00">sel.func_801B60D4</text>
</a>
</g>
</g>
<!-- sel.func_801B60D4&#45;&gt;sel.func_801B18F4 -->
<g id="edge7" class="edge">
<title>sel.func_801B60D4&#45;&gt;sel.func_801B18F4</title>
<path fill="none" stroke="black" d="M1063.64,-361.52C977.14,-328.96 776.66,-253.52 682.44,-218.06"/>
<polygon fill="black" stroke="black" points="683.44,-214.7 672.84,-214.45 680.97,-221.25 683.44,-214.7"/>
<text text-anchor="middle" x="1058.64" y="-350.32" font-family="Times,serif" font-size="14.00">1</text>
</g>
</g>
</svg>
