<?xml version="1.0" encoding="UTF-8" standalone="no"?>
<!DOCTYPE svg PUBLIC "-//W3C//DTD SVG 1.1//EN"
 "http://www.w3.org/Graphics/SVG/1.1/DTD/svg11.dtd">
<!-- Generated by graphviz version 2.43.0 (0)
 -->
<!-- Title: sel.func_801B2B78 Pages: 1 -->
<svg width="428pt" height="404pt"
 viewBox="0.00 0.00 428.48 404.00" xmlns="http://www.w3.org/2000/svg" xmlns:xlink="http://www.w3.org/1999/xlink">
<g id="graph0" class="graph" transform="scale(1 1) rotate(0) translate(4 400)">
<title>sel.func_801B2B78</title>
<polygon fill="white" stroke="transparent" points="-4,4 -4,-400 424.48,-400 424.48,4 -4,4"/>
<!-- sel.func_801B2B78 -->
<g id="node1" class="node">
<title>sel.func_801B2B78</title>
<ellipse fill="green" stroke="black" cx="209.09" cy="-198" rx="100.18" ry="18"/>
<text text-anchor="middle" x="209.09" y="-194.3" font-family="Times,serif" font-size="14.00">sel.func_801B2B78</text>
</g>
<!-- sel.func_801B27A8 -->
<g id="node2" class="node">
<title>sel.func_801B27A8</title>
<g id="a_node2"><a xlink:href="sel.func_801B27A8.svg" xlink:title="sel.func_801B27A8">
<ellipse fill="red" stroke="black" cx="209.09" cy="-18" rx="99.38" ry="18"/>
<text text-anchor="middle" x="209.09" y="-14.3" font-family="Times,serif" font-size="14.00">sel.func_801B27A8</text>
</a>
</g>
</g>
<!-- sel.func_801B2B78&#45;&gt;sel.func_801B27A8 -->
<g id="edge1" class="edge">
<title>sel.func_801B2B78&#45;&gt;sel.func_801B27A8</title>
<path fill="none" stroke="black" d="M209.09,-179.93C209.09,-148.97 209.09,-83.3 209.09,-46.13"/>
<polygon fill="black" stroke="black" points="212.59,-46.02 209.09,-36.02 205.59,-46.02 212.59,-46.02"/>
<text text-anchor="middle" x="204.09" y="-39.82" font-family="Times,serif" font-size="14.00">1</text>
</g>
<!-- sel.func_801B2C70 -->
<g id="node3" class="node">
<title>sel.func_801B2C70</title>
<g id="a_node3"><a xlink:href="sel.func_801B2C70.svg" xlink:title="sel.func_801B2C70">
<ellipse fill="green" stroke="black" cx="100.09" cy="-378" rx="100.18" ry="18"/>
<text text-anchor="middle" x="100.09" y="-374.3" font-family="Times,serif" font-size="14.00">sel.func_801B2C70</text>
</a>
</g>
</g>
<!-- sel.func_801B2C70&#45;&gt;sel.func_801B2B78 -->
<g id="edge2" class="edge">
<title>sel.func_801B2C70&#45;&gt;sel.func_801B2B78</title>
<path fill="none" stroke="black" d="M110.54,-359.93C129.75,-328.57 170.76,-261.6 193.35,-224.71"/>
<polygon fill="black" stroke="black" points="196.43,-226.37 198.67,-216.02 190.46,-222.72 196.43,-226.37"/>
<text text-anchor="middle" x="105.54" y="-348.73" font-family="Times,serif" font-size="14.00">2</text>
</g>
<!-- sel.func_801B2BD4 -->
<g id="node4" class="node">
<title>sel.func_801B2BD4</title>
<g id="a_node4"><a xlink:href="sel.func_801B2BD4.svg" xlink:title="sel.func_801B2BD4">
<ellipse fill="green" stroke="black" cx="319.09" cy="-378" rx="101.28" ry="18"/>
<text text-anchor="middle" x="319.09" y="-374.3" font-family="Times,serif" font-size="14.00">sel.func_801B2BD4</text>
</a>
</g>
</g>
<!-- sel.func_801B2BD4&#45;&gt;sel.func_801B2B78 -->
<g id="edge3" class="edge">
<title>sel.func_801B2BD4&#45;&gt;sel.func_801B2B78</title>
<path fill="none" stroke="black" d="M308.54,-359.93C289.16,-328.57 247.78,-261.6 224.98,-224.71"/>
<polygon fill="black" stroke="black" points="227.84,-222.68 219.61,-216.02 221.89,-226.36 227.84,-222.68"/>
<text text-anchor="middle" x="303.54" y="-348.73" font-family="Times,serif" font-size="14.00">1</text>
</g>
</g>
</svg>
