<?xml version="1.0" encoding="UTF-8" standalone="no"?>
<!DOCTYPE svg PUBLIC "-//W3C//DTD SVG 1.1//EN"
 "http://www.w3.org/Graphics/SVG/1.1/DTD/svg11.dtd">
<!-- Generated by graphviz version 2.43.0 (0)
 -->
<!-- Title: sel.func_801B8298 Pages: 1 -->
<svg width="206pt" height="404pt"
 viewBox="0.00 0.00 205.58 404.00" xmlns="http://www.w3.org/2000/svg" xmlns:xlink="http://www.w3.org/1999/xlink">
<g id="graph0" class="graph" transform="scale(1 1) rotate(0) translate(4 400)">
<title>sel.func_801B8298</title>
<polygon fill="white" stroke="transparent" points="-4,4 -4,-400 201.58,-400 201.58,4 -4,4"/>
<!-- sel.func_801B8298 -->
<g id="node1" class="node">
<title>sel.func_801B8298</title>
<ellipse fill="green" stroke="black" cx="98.79" cy="-198" rx="98.58" ry="18"/>
<text text-anchor="middle" x="98.79" y="-194.3" font-family="Times,serif" font-size="14.00">sel.func_801B8298</text>
</g>
<!-- TestEvent -->
<g id="node2" class="node">
<title>TestEvent</title>
<g id="a_node2"><a xlink:href="TestEvent.svg" xlink:title="TestEvent">
<ellipse fill="lightblue" stroke="black" cx="98.79" cy="-18" rx="57.69" ry="18"/>
<text text-anchor="middle" x="98.79" y="-14.3" font-family="Times,serif" font-size="14.00">TestEvent</text>
</a>
</g>
</g>
<!-- sel.func_801B8298&#45;&gt;TestEvent -->
<g id="edge1" class="edge">
<title>sel.func_801B8298&#45;&gt;TestEvent</title>
<path fill="none" stroke="black" d="M98.79,-179.93C98.79,-148.97 98.79,-83.3 98.79,-46.13"/>
<polygon fill="black" stroke="black" points="102.29,-46.02 98.79,-36.02 95.29,-46.02 102.29,-46.02"/>
<text text-anchor="middle" x="93.79" y="-39.82" font-family="Times,serif" font-size="14.00">4</text>
</g>
<!-- sel.func_800E9880 -->
<g id="node3" class="node">
<title>sel.func_800E9880</title>
<g id="a_node3"><a xlink:href="sel.func_800E9880.svg" xlink:title="sel.func_800E9880">
<ellipse fill="green" stroke="black" cx="98.79" cy="-378" rx="98.58" ry="18"/>
<text text-anchor="middle" x="98.79" y="-374.3" font-family="Times,serif" font-size="14.00">sel.func_800E9880</text>
</a>
</g>
</g>
<!-- sel.func_800E9880&#45;&gt;sel.func_801B8298 -->
<g id="edge2" class="edge">
<title>sel.func_800E9880&#45;&gt;sel.func_801B8298</title>
<path fill="none" stroke="black" d="M98.79,-359.93C98.79,-328.97 98.79,-263.3 98.79,-226.13"/>
<polygon fill="black" stroke="black" points="102.29,-226.02 98.79,-216.02 95.29,-226.02 102.29,-226.02"/>
<text text-anchor="middle" x="93.79" y="-348.73" font-family="Times,serif" font-size="14.00">2</text>
</g>
</g>
</svg>
