<?xml version="1.0" encoding="UTF-8" standalone="no"?>
<!DOCTYPE svg PUBLIC "-//W3C//DTD SVG 1.1//EN"
 "http://www.w3.org/Graphics/SVG/1.1/DTD/svg11.dtd">
<!-- Generated by graphviz version 2.43.0 (0)
 -->
<!-- Title: sel.func_801ACBE4 Pages: 1 -->
<svg width="2005pt" height="224pt"
 viewBox="0.00 0.00 2004.93 224.00" xmlns="http://www.w3.org/2000/svg" xmlns:xlink="http://www.w3.org/1999/xlink">
<g id="graph0" class="graph" transform="scale(1 1) rotate(0) translate(4 220)">
<title>sel.func_801ACBE4</title>
<polygon fill="white" stroke="transparent" points="-4,4 -4,-220 2000.93,-220 2000.93,4 -4,4"/>
<!-- sel.func_801ACBE4 -->
<g id="node1" class="node">
<title>sel.func_801ACBE4</title>
<ellipse fill="green" stroke="black" cx="1020.19" cy="-18" rx="101.28" ry="18"/>
<text text-anchor="middle" x="1020.19" y="-14.3" font-family="Times,serif" font-size="14.00">sel.func_801ACBE4</text>
</g>
<!-- sel.DrawNavigationTips -->
<g id="node2" class="node">
<title>sel.DrawNavigationTips</title>
<g id="a_node2"><a xlink:href="sel.DrawNavigationTips.svg" xlink:title="sel.DrawNavigationTips">
<ellipse fill="green" stroke="black" cx="122.19" cy="-198" rx="122.38" ry="18"/>
<text text-anchor="middle" x="122.19" y="-194.3" font-family="Times,serif" font-size="14.00">sel.DrawNavigationTips</text>
</a>
</g>
</g>
<!-- sel.DrawNavigationTips&#45;&gt;sel.func_801ACBE4 -->
<g id="edge1" class="edge">
<title>sel.DrawNavigationTips&#45;&gt;sel.func_801ACBE4</title>
<path fill="none" stroke="black" d="M191.91,-183.18C357.76,-150.3 774.7,-67.66 945.48,-33.81"/>
<polygon fill="black" stroke="black" points="946.26,-37.22 955.39,-31.85 944.9,-30.36 946.26,-37.22"/>
<text text-anchor="middle" x="186.91" y="-171.98" font-family="Times,serif" font-size="14.00">1</text>
</g>
<!-- sel.MenuHideAllGfx -->
<g id="node3" class="node">
<title>sel.MenuHideAllGfx</title>
<g id="a_node3"><a xlink:href="sel.MenuHideAllGfx.svg" xlink:title="sel.MenuHideAllGfx">
<ellipse fill="green" stroke="black" cx="366.19" cy="-198" rx="103.18" ry="18"/>
<text text-anchor="middle" x="366.19" y="-194.3" font-family="Times,serif" font-size="14.00">sel.MenuHideAllGfx</text>
</a>
</g>
</g>
<!-- sel.MenuHideAllGfx&#45;&gt;sel.func_801ACBE4 -->
<g id="edge2" class="edge">
<title>sel.MenuHideAllGfx&#45;&gt;sel.func_801ACBE4</title>
<path fill="none" stroke="black" d="M419.43,-182.51C539.21,-149.91 829.4,-70.93 957.56,-36.04"/>
<polygon fill="black" stroke="black" points="958.52,-39.41 967.24,-33.41 956.68,-32.66 958.52,-39.41"/>
<text text-anchor="middle" x="414.43" y="-171.31" font-family="Times,serif" font-size="14.00">1</text>
</g>
<!-- sel.SelectMainMenuOption -->
<g id="node4" class="node">
<title>sel.SelectMainMenuOption</title>
<g id="a_node4"><a xlink:href="sel.SelectMainMenuOption.svg" xlink:title="sel.SelectMainMenuOption">
<ellipse fill="green" stroke="black" cx="624.19" cy="-198" rx="136.48" ry="18"/>
<text text-anchor="middle" x="624.19" y="-194.3" font-family="Times,serif" font-size="14.00">sel.SelectMainMenuOption</text>
</a>
</g>
</g>
<!-- sel.SelectMainMenuOption&#45;&gt;sel.func_801ACBE4 -->
<g id="edge3" class="edge">
<title>sel.SelectMainMenuOption&#45;&gt;sel.func_801ACBE4</title>
<path fill="none" stroke="black" d="M660.73,-180.57C733.59,-147.82 896.71,-74.5 975.67,-39.01"/>
<polygon fill="black" stroke="black" points="977.19,-42.17 984.87,-34.87 974.32,-35.78 977.19,-42.17"/>
<text text-anchor="middle" x="655.73" y="-169.37" font-family="Times,serif" font-size="14.00">5</text>
</g>
<!-- sel.Update -->
<g id="node5" class="node">
<title>sel.Update</title>
<g id="a_node5"><a xlink:href="sel.Update.svg" xlink:title="sel.Update">
<ellipse fill="green" stroke="black" cx="840.19" cy="-198" rx="61.19" ry="18"/>
<text text-anchor="middle" x="840.19" y="-194.3" font-family="Times,serif" font-size="14.00">sel.Update</text>
</a>
</g>
</g>
<!-- sel.Update&#45;&gt;sel.func_801ACBE4 -->
<g id="edge4" class="edge">
<title>sel.Update&#45;&gt;sel.func_801ACBE4</title>
<path fill="none" stroke="black" d="M856.8,-180.57C888.65,-149.08 958.45,-80.06 995.67,-43.25"/>
<polygon fill="black" stroke="black" points="998.44,-45.43 1003.09,-35.91 993.52,-40.45 998.44,-45.43"/>
<text text-anchor="middle" x="847.3" y="-169.37" font-family="Times,serif" font-size="14.00">37</text>
</g>
<!-- sel.func_801AD78C -->
<g id="node6" class="node">
<title>sel.func_801AD78C</title>
<g id="a_node6"><a xlink:href="sel.func_801AD78C.svg" xlink:title="sel.func_801AD78C">
<ellipse fill="green" stroke="black" cx="1020.19" cy="-198" rx="100.98" ry="18"/>
<text text-anchor="middle" x="1020.19" y="-194.3" font-family="Times,serif" font-size="14.00">sel.func_801AD78C</text>
</a>
</g>
</g>
<!-- sel.func_801AD78C&#45;&gt;sel.func_801ACBE4 -->
<g id="edge5" class="edge">
<title>sel.func_801AD78C&#45;&gt;sel.func_801ACBE4</title>
<path fill="none" stroke="black" d="M1020.19,-179.93C1020.19,-148.97 1020.19,-83.3 1020.19,-46.13"/>
<polygon fill="black" stroke="black" points="1023.69,-46.02 1020.19,-36.02 1016.69,-46.02 1023.69,-46.02"/>
<text text-anchor="middle" x="1015.19" y="-168.73" font-family="Times,serif" font-size="14.00">1</text>
</g>
<!-- sel.func_801ADF94 -->
<g id="node7" class="node">
<title>sel.func_801ADF94</title>
<g id="a_node7"><a xlink:href="sel.func_801ADF94.svg" xlink:title="sel.func_801ADF94">
<ellipse fill="red" stroke="black" cx="1239.19" cy="-198" rx="100.98" ry="18"/>
<text text-anchor="middle" x="1239.19" y="-194.3" font-family="Times,serif" font-size="14.00">sel.func_801ADF94</text>
</a>
</g>
</g>
<!-- sel.func_801ADF94&#45;&gt;sel.func_801ACBE4 -->
<g id="edge6" class="edge">
<title>sel.func_801ADF94&#45;&gt;sel.func_801ACBE4</title>
<path fill="none" stroke="black" d="M1218.59,-180.25C1179.29,-148.32 1093.57,-78.65 1048.77,-42.23"/>
<polygon fill="black" stroke="black" points="1050.86,-39.42 1040.9,-35.83 1046.45,-44.85 1050.86,-39.42"/>
<text text-anchor="middle" x="1213.59" y="-169.05" font-family="Times,serif" font-size="14.00">6</text>
</g>
<!-- sel.func_801AE6D0 -->
<g id="node8" class="node">
<title>sel.func_801AE6D0</title>
<g id="a_node8"><a xlink:href="sel.func_801AE6D0.svg" xlink:title="sel.func_801AE6D0">
<ellipse fill="green" stroke="black" cx="1458.19" cy="-198" rx="100.98" ry="18"/>
<text text-anchor="middle" x="1458.19" y="-194.3" font-family="Times,serif" font-size="14.00">sel.func_801AE6D0</text>
</a>
</g>
</g>
<!-- sel.func_801AE6D0&#45;&gt;sel.func_801ACBE4 -->
<g id="edge7" class="edge">
<title>sel.func_801AE6D0&#45;&gt;sel.func_801ACBE4</title>
<path fill="none" stroke="black" d="M1419.7,-181.36C1339.72,-148.86 1155.73,-74.08 1068.17,-38.5"/>
<polygon fill="black" stroke="black" points="1069.33,-35.19 1058.74,-34.67 1066.69,-41.68 1069.33,-35.19"/>
<text text-anchor="middle" x="1414.7" y="-170.16" font-family="Times,serif" font-size="14.00">3</text>
</g>
<!-- sel.func_801AE9A8 -->
<g id="node9" class="node">
<title>sel.func_801AE9A8</title>
<g id="a_node9"><a xlink:href="sel.func_801AE9A8.svg" xlink:title="sel.func_801AE9A8">
<ellipse fill="green" stroke="black" cx="1677.19" cy="-198" rx="100.18" ry="18"/>
<text text-anchor="middle" x="1677.19" y="-194.3" font-family="Times,serif" font-size="14.00">sel.func_801AE9A8</text>
</a>
</g>
</g>
<!-- sel.func_801AE9A8&#45;&gt;sel.func_801ACBE4 -->
<g id="edge8" class="edge">
<title>sel.func_801AE9A8&#45;&gt;sel.func_801ACBE4</title>
<path fill="none" stroke="black" d="M1624.26,-182.66C1504.32,-150.16 1212.26,-71.04 1083.24,-36.08"/>
<polygon fill="black" stroke="black" points="1084.06,-32.68 1073.49,-33.44 1082.23,-39.44 1084.06,-32.68"/>
<text text-anchor="middle" x="1619.26" y="-171.46" font-family="Times,serif" font-size="14.00">3</text>
</g>
<!-- sel.func_801AEA8C -->
<g id="node10" class="node">
<title>sel.func_801AEA8C</title>
<g id="a_node10"><a xlink:href="sel.func_801AEA8C.svg" xlink:title="sel.func_801AEA8C">
<ellipse fill="green" stroke="black" cx="1896.19" cy="-198" rx="100.98" ry="18"/>
<text text-anchor="middle" x="1896.19" y="-194.3" font-family="Times,serif" font-size="14.00">sel.func_801AEA8C</text>
</a>
</g>
</g>
<!-- sel.func_801AEA8C&#45;&gt;sel.func_801ACBE4 -->
<g id="edge9" class="edge">
<title>sel.func_801AEA8C&#45;&gt;sel.func_801ACBE4</title>
<path fill="none" stroke="black" d="M1832.48,-184.06C1674.1,-151.87 1263.14,-68.37 1094.29,-34.06"/>
<polygon fill="black" stroke="black" points="1094.74,-30.58 1084.25,-32.02 1093.35,-37.44 1094.74,-30.58"/>
<text text-anchor="middle" x="1827.48" y="-172.86" font-family="Times,serif" font-size="14.00">6</text>
</g>
</g>
</svg>
