<?xml version="1.0" encoding="UTF-8" standalone="no"?>
<!DOCTYPE svg PUBLIC "-//W3C//DTD SVG 1.1//EN"
 "http://www.w3.org/Graphics/SVG/1.1/DTD/svg11.dtd">
<!-- Generated by graphviz version 2.43.0 (0)
 -->
<!-- Title: sel.Update Pages: 1 -->
<svg width="10511pt" height="224pt"
 viewBox="0.00 0.00 10510.53 224.00" xmlns="http://www.w3.org/2000/svg" xmlns:xlink="http://www.w3.org/1999/xlink">
<g id="graph0" class="graph" transform="scale(1 1) rotate(0) translate(4 220)">
<title>sel.Update</title>
<polygon fill="white" stroke="transparent" points="-4,4 -4,-220 10506.53,-220 10506.53,4 -4,4"/>
<!-- sel.Update -->
<g id="node1" class="node">
<title>sel.Update</title>
<ellipse fill="red" stroke="black" cx="5206.44" cy="-198" rx="61.19" ry="18"/>
<text text-anchor="middle" x="5206.44" y="-194.3" font-family="Times,serif" font-size="14.00">sel.Update</text>
</g>
<!-- sel.func_801B1F34 -->
<g id="node2" class="node">
<title>sel.func_801B1F34</title>
<g id="a_node2"><a xlink:href="sel.func_801B1F34.svg" xlink:title="sel.func_801B1F34">
<ellipse fill="green" stroke="black" cx="99.44" cy="-18" rx="99.38" ry="18"/>
<text text-anchor="middle" x="99.44" y="-14.3" font-family="Times,serif" font-size="14.00">sel.func_801B1F34</text>
</a>
</g>
</g>
<!-- sel.Update&#45;&gt;sel.func_801B1F34 -->
<g id="edge1" class="edge">
<title>sel.Update&#45;&gt;sel.func_801B1F34</title>
<path fill="none" stroke="black" d="M5145.65,-196.07C4647.72,-188.3 1233.26,-132.06 208.44,-36 198.64,-35.08 188.39,-33.85 178.26,-32.46"/>
<polygon fill="black" stroke="black" points="178.58,-28.97 168.18,-31.03 177.59,-35.9 178.58,-28.97"/>
<text text-anchor="middle" x="163.18" y="-34.83" font-family="Times,serif" font-size="14.00">1</text>
</g>
<!-- sel.func_801B18F4 -->
<g id="node3" class="node">
<title>sel.func_801B18F4</title>
<g id="a_node3"><a xlink:href="sel.func_801B18F4.svg" xlink:title="sel.func_801B18F4">
<ellipse fill="green" stroke="black" cx="316.44" cy="-18" rx="99.38" ry="18"/>
<text text-anchor="middle" x="316.44" y="-14.3" font-family="Times,serif" font-size="14.00">sel.func_801B18F4</text>
</a>
</g>
</g>
<!-- sel.Update&#45;&gt;sel.func_801B18F4 -->
<g id="edge2" class="edge">
<title>sel.Update&#45;&gt;sel.func_801B18F4</title>
<path fill="none" stroke="black" d="M5145.63,-195.97C4659.93,-187.57 1403.94,-128.44 425.44,-36 415.65,-35.07 405.39,-33.84 395.26,-32.45"/>
<polygon fill="black" stroke="black" points="395.58,-28.96 385.19,-31.01 394.59,-35.89 395.58,-28.96"/>
<text text-anchor="middle" x="380.19" y="-34.81" font-family="Times,serif" font-size="14.00">2</text>
</g>
<!-- sel.func_801B1B88 -->
<g id="node4" class="node">
<title>sel.func_801B1B88</title>
<g id="a_node4"><a xlink:href="sel.func_801B1B88.svg" xlink:title="sel.func_801B1B88">
<ellipse fill="green" stroke="black" cx="534.44" cy="-18" rx="100.18" ry="18"/>
<text text-anchor="middle" x="534.44" y="-14.3" font-family="Times,serif" font-size="14.00">sel.func_801B1B88</text>
</a>
</g>
</g>
<!-- sel.Update&#45;&gt;sel.func_801B1B88 -->
<g id="edge3" class="edge">
<title>sel.Update&#45;&gt;sel.func_801B1B88</title>
<path fill="none" stroke="black" d="M5145.42,-195.85C4671.73,-186.79 1575.33,-124.79 643.44,-36 633.72,-35.07 623.54,-33.84 613.48,-32.46"/>
<polygon fill="black" stroke="black" points="613.87,-28.98 603.48,-31.04 612.89,-35.91 613.87,-28.98"/>
<text text-anchor="middle" x="598.48" y="-34.84" font-family="Times,serif" font-size="14.00">1</text>
</g>
<!-- dra.PlaySfx -->
<g id="node5" class="node">
<title>dra.PlaySfx</title>
<g id="a_node5"><a xlink:href="dra.PlaySfx.svg" xlink:title="dra.PlaySfx">
<ellipse fill="green" stroke="black" cx="716.44" cy="-18" rx="64.19" ry="18"/>
<text text-anchor="middle" x="716.44" y="-14.3" font-family="Times,serif" font-size="14.00">dra.PlaySfx</text>
</a>
</g>
</g>
<!-- sel.Update&#45;&gt;dra.PlaySfx -->
<g id="edge4" class="edge">
<title>sel.Update&#45;&gt;dra.PlaySfx</title>
<path fill="none" stroke="black" d="M5145.49,-196.36C4680.46,-191.28 1687.46,-154.3 790.44,-36 784.5,-35.22 778.33,-34.17 772.2,-32.99"/>
<polygon fill="black" stroke="black" points="772.49,-29.47 761.99,-30.89 771.07,-36.33 772.49,-29.47"/>
<text text-anchor="middle" x="752.49" y="-34.69" font-family="Times,serif" font-size="14.00">38</text>
</g>
<!-- sel.func_801B2D6C -->
<g id="node6" class="node">
<title>sel.func_801B2D6C</title>
<g id="a_node6"><a xlink:href="sel.func_801B2D6C.svg" xlink:title="sel.func_801B2D6C">
<ellipse fill="green" stroke="black" cx="900.44" cy="-18" rx="101.28" ry="18"/>
<text text-anchor="middle" x="900.44" y="-14.3" font-family="Times,serif" font-size="14.00">sel.func_801B2D6C</text>
</a>
</g>
</g>
<!-- sel.Update&#45;&gt;sel.func_801B2D6C -->
<g id="edge5" class="edge">
<title>sel.Update&#45;&gt;sel.func_801B2D6C</title>
<path fill="none" stroke="black" d="M5145.28,-197.29C4765.52,-198.57 2691.26,-197.59 1010.44,-36 1000.7,-35.06 990.52,-33.83 980.44,-32.46"/>
<polygon fill="black" stroke="black" points="980.8,-28.98 970.41,-31.05 979.83,-35.91 980.8,-28.98"/>
<text text-anchor="middle" x="965.41" y="-34.85" font-family="Times,serif" font-size="14.00">1</text>
</g>
<!-- dra.func_800EA5E4 -->
<g id="node7" class="node">
<title>dra.func_800EA5E4</title>
<g id="a_node7"><a xlink:href="dra.func_800EA5E4.svg" xlink:title="dra.func_800EA5E4">
<ellipse fill="green" stroke="black" cx="1122.44" cy="-18" rx="102.88" ry="18"/>
<text text-anchor="middle" x="1122.44" y="-14.3" font-family="Times,serif" font-size="14.00">dra.func_800EA5E4</text>
</a>
</g>
</g>
<!-- sel.Update&#45;&gt;dra.func_800EA5E4 -->
<g id="edge6" class="edge">
<title>sel.Update&#45;&gt;dra.func_800EA5E4</title>
<path fill="none" stroke="black" d="M5145.31,-197.05C4777.44,-196.8 2820.98,-188.09 1234.44,-36 1224.53,-35.05 1214.16,-33.81 1203.9,-32.43"/>
<polygon fill="black" stroke="black" points="1204.08,-28.93 1193.69,-31.02 1203.12,-35.86 1204.08,-28.93"/>
<text text-anchor="middle" x="1188.69" y="-34.82" font-family="Times,serif" font-size="14.00">6</text>
</g>
<!-- sel.SetupFileChoose -->
<g id="node8" class="node">
<title>sel.SetupFileChoose</title>
<g id="a_node8"><a xlink:href="sel.SetupFileChoose.svg" xlink:title="sel.SetupFileChoose">
<ellipse fill="green" stroke="black" cx="1348.44" cy="-18" rx="105.08" ry="18"/>
<text text-anchor="middle" x="1348.44" y="-14.3" font-family="Times,serif" font-size="14.00">sel.SetupFileChoose</text>
</a>
</g>
</g>
<!-- sel.Update&#45;&gt;sel.SetupFileChoose -->
<g id="edge7" class="edge">
<title>sel.Update&#45;&gt;sel.SetupFileChoose</title>
<path fill="none" stroke="black" d="M5145.41,-196.75C4790.25,-194.77 2953.91,-177.83 1463.44,-36 1453.16,-35.02 1442.4,-33.76 1431.76,-32.36"/>
<polygon fill="black" stroke="black" points="1431.99,-28.86 1421.61,-30.98 1431.05,-35.79 1431.99,-28.86"/>
<text text-anchor="middle" x="1416.61" y="-34.78" font-family="Times,serif" font-size="14.00">1</text>
</g>
<!-- sel.func_801ACC7C -->
<g id="node9" class="node">
<title>sel.func_801ACC7C</title>
<g id="a_node9"><a xlink:href="sel.func_801ACC7C.svg" xlink:title="sel.func_801ACC7C">
<ellipse fill="green" stroke="black" cx="1573.44" cy="-18" rx="101.28" ry="18"/>
<text text-anchor="middle" x="1573.44" y="-14.3" font-family="Times,serif" font-size="14.00">sel.func_801ACC7C</text>
</a>
</g>
</g>
<!-- sel.Update&#45;&gt;sel.func_801ACC7C -->
<g id="edge8" class="edge">
<title>sel.Update&#45;&gt;sel.func_801ACC7C</title>
<path fill="none" stroke="black" d="M5145.41,-196.63C4802.55,-194.07 3081.59,-174.53 1684.44,-36 1674.62,-35.03 1664.34,-33.77 1654.17,-32.39"/>
<polygon fill="black" stroke="black" points="1654.45,-28.89 1644.06,-30.97 1653.47,-35.82 1654.45,-28.89"/>
<text text-anchor="middle" x="1639.06" y="-34.77" font-family="Times,serif" font-size="14.00">1</text>
</g>
<!-- sel.func_801AC174 -->
<g id="node10" class="node">
<title>sel.func_801AC174</title>
<g id="a_node10"><a xlink:href="sel.func_801AC174.svg" xlink:title="sel.func_801AC174">
<ellipse fill="red" stroke="black" cx="1792.44" cy="-18" rx="99.38" ry="18"/>
<text text-anchor="middle" x="1792.44" y="-14.3" font-family="Times,serif" font-size="14.00">sel.func_801AC174</text>
</a>
</g>
</g>
<!-- sel.Update&#45;&gt;sel.func_801AC174 -->
<g id="edge9" class="edge">
<title>sel.Update&#45;&gt;sel.func_801AC174</title>
<path fill="none" stroke="black" d="M5145.41,-196.47C4814.94,-193.1 3206.61,-170.21 1900.44,-36 1891.05,-35.04 1881.24,-33.8 1871.51,-32.45"/>
<polygon fill="black" stroke="black" points="1871.83,-28.96 1861.43,-30.99 1870.83,-35.88 1871.83,-28.96"/>
<text text-anchor="middle" x="1856.43" y="-34.79" font-family="Times,serif" font-size="14.00">1</text>
</g>
<!-- sel.func_801ACF7C -->
<g id="node11" class="node">
<title>sel.func_801ACF7C</title>
<g id="a_node11"><a xlink:href="sel.func_801ACF7C.svg" xlink:title="sel.func_801ACF7C">
<ellipse fill="green" stroke="black" cx="2010.44" cy="-18" rx="100.98" ry="18"/>
<text text-anchor="middle" x="2010.44" y="-14.3" font-family="Times,serif" font-size="14.00">sel.func_801ACF7C</text>
</a>
</g>
</g>
<!-- sel.Update&#45;&gt;sel.func_801ACF7C -->
<g id="edge10" class="edge">
<title>sel.Update&#45;&gt;sel.func_801ACF7C</title>
<path fill="none" stroke="black" d="M5145.59,-196.15C4828.57,-191.23 3334.17,-162.07 2119.44,-36 2110.04,-35.02 2100.21,-33.79 2090.47,-32.44"/>
<polygon fill="black" stroke="black" points="2090.77,-28.95 2080.37,-30.99 2089.77,-35.88 2090.77,-28.95"/>
<text text-anchor="middle" x="2075.37" y="-34.79" font-family="Times,serif" font-size="14.00">1</text>
</g>
<!-- sel.func_801AECA0 -->
<g id="node12" class="node">
<title>sel.func_801AECA0</title>
<g id="a_node12"><a xlink:href="sel.func_801AECA0.svg" xlink:title="sel.func_801AECA0">
<ellipse fill="green" stroke="black" cx="2229.44" cy="-18" rx="100.98" ry="18"/>
<text text-anchor="middle" x="2229.44" y="-14.3" font-family="Times,serif" font-size="14.00">sel.func_801AECA0</text>
</a>
</g>
</g>
<!-- sel.Update&#45;&gt;sel.func_801AECA0 -->
<g id="edge11" class="edge">
<title>sel.Update&#45;&gt;sel.func_801AECA0</title>
<path fill="none" stroke="black" d="M5145.71,-195.81C4842.42,-189.42 3461.73,-154.83 2338.44,-36 2329.11,-35.01 2319.36,-33.78 2309.69,-32.43"/>
<polygon fill="black" stroke="black" points="2310.07,-28.95 2299.67,-31 2309.07,-35.88 2310.07,-28.95"/>
<text text-anchor="middle" x="2294.67" y="-34.8" font-family="Times,serif" font-size="14.00">1</text>
</g>
<!-- sel.func_801B1F4C -->
<g id="node13" class="node">
<title>sel.func_801B1F4C</title>
<g id="a_node13"><a xlink:href="sel.func_801B1F4C.svg" xlink:title="sel.func_801B1F4C">
<ellipse fill="green" stroke="black" cx="2448.44" cy="-18" rx="100.98" ry="18"/>
<text text-anchor="middle" x="2448.44" y="-14.3" font-family="Times,serif" font-size="14.00">sel.func_801B1F4C</text>
</a>
</g>
</g>
<!-- sel.Update&#45;&gt;sel.func_801B1F4C -->
<g id="edge12" class="edge">
<title>sel.Update&#45;&gt;sel.func_801B1F4C</title>
<path fill="none" stroke="black" d="M5145.65,-195.39C4856.31,-187.27 3589.94,-146.82 2558.44,-36 2548.96,-34.98 2539.04,-33.72 2529.22,-32.36"/>
<polygon fill="black" stroke="black" points="2529.42,-28.85 2519.03,-30.9 2528.43,-35.78 2529.42,-28.85"/>
<text text-anchor="middle" x="2509.53" y="-34.7" font-family="Times,serif" font-size="14.00">18</text>
</g>
<!-- sel.func_801AD490 -->
<g id="node14" class="node">
<title>sel.func_801AD490</title>
<g id="a_node14"><a xlink:href="sel.func_801AD490.svg" xlink:title="sel.func_801AD490">
<ellipse fill="green" stroke="black" cx="2667.44" cy="-18" rx="100.18" ry="18"/>
<text text-anchor="middle" x="2667.44" y="-14.3" font-family="Times,serif" font-size="14.00">sel.func_801AD490</text>
</a>
</g>
</g>
<!-- sel.Update&#45;&gt;sel.func_801AD490 -->
<g id="edge13" class="edge">
<title>sel.Update&#45;&gt;sel.func_801AD490</title>
<path fill="none" stroke="black" d="M5146.15,-194.97C4872.24,-185.36 3717.74,-140.38 2776.44,-36 2767.12,-34.97 2757.37,-33.71 2747.7,-32.34"/>
<polygon fill="black" stroke="black" points="2748.08,-28.86 2737.68,-30.89 2747.08,-35.79 2748.08,-28.86"/>
<text text-anchor="middle" x="2728.18" y="-34.69" font-family="Times,serif" font-size="14.00">12</text>
</g>
<!-- sel.func_801AD590 -->
<g id="node15" class="node">
<title>sel.func_801AD590</title>
<g id="a_node15"><a xlink:href="sel.func_801AD590.svg" xlink:title="sel.func_801AD590">
<ellipse fill="green" stroke="black" cx="2885.44" cy="-18" rx="100.18" ry="18"/>
<text text-anchor="middle" x="2885.44" y="-14.3" font-family="Times,serif" font-size="14.00">sel.func_801AD590</text>
</a>
</g>
</g>
<!-- sel.Update&#45;&gt;sel.func_801AD590 -->
<g id="edge14" class="edge">
<title>sel.Update&#45;&gt;sel.func_801AD590</title>
<path fill="none" stroke="black" d="M5146.45,-194.44C4888.17,-183.06 3845.63,-133.19 2994.44,-36 2985.12,-34.94 2975.38,-33.66 2965.71,-32.28"/>
<polygon fill="black" stroke="black" points="2966.09,-28.8 2955.69,-30.82 2965.08,-35.73 2966.09,-28.8"/>
<text text-anchor="middle" x="2950.69" y="-34.62" font-family="Times,serif" font-size="14.00">3</text>
</g>
<!-- sel.func_801ACDFC -->
<g id="node16" class="node">
<title>sel.func_801ACDFC</title>
<g id="a_node16"><a xlink:href="sel.func_801ACDFC.svg" xlink:title="sel.func_801ACDFC">
<ellipse fill="green" stroke="black" cx="3106.44" cy="-18" rx="102.88" ry="18"/>
<text text-anchor="middle" x="3106.44" y="-14.3" font-family="Times,serif" font-size="14.00">sel.func_801ACDFC</text>
</a>
</g>
</g>
<!-- sel.Update&#45;&gt;sel.func_801ACDFC -->
<g id="edge15" class="edge">
<title>sel.Update&#45;&gt;sel.func_801ACDFC</title>
<path fill="none" stroke="black" d="M5146.93,-193.7C4905.75,-180.02 3977.72,-124.26 3218.44,-36 3208.84,-34.88 3198.81,-33.57 3188.85,-32.18"/>
<polygon fill="black" stroke="black" points="3189.34,-28.71 3178.94,-30.76 3188.34,-35.64 3189.34,-28.71"/>
<text text-anchor="middle" x="3173.94" y="-34.56" font-family="Times,serif" font-size="14.00">1</text>
</g>
<!-- sel.func_801ACEC0 -->
<g id="node17" class="node">
<title>sel.func_801ACEC0</title>
<g id="a_node17"><a xlink:href="sel.func_801ACEC0.svg" xlink:title="sel.func_801ACEC0">
<ellipse fill="green" stroke="black" cx="3328.44" cy="-18" rx="101.28" ry="18"/>
<text text-anchor="middle" x="3328.44" y="-14.3" font-family="Times,serif" font-size="14.00">sel.func_801ACEC0</text>
</a>
</g>
</g>
<!-- sel.Update&#45;&gt;sel.func_801ACEC0 -->
<g id="edge16" class="edge">
<title>sel.Update&#45;&gt;sel.func_801ACEC0</title>
<path fill="none" stroke="black" d="M5147.58,-192.95C4924.28,-177.31 4108.32,-117.62 3439.44,-36 3430.11,-34.86 3420.35,-33.55 3410.66,-32.17"/>
<polygon fill="black" stroke="black" points="3411,-28.68 3400.6,-30.71 3409.99,-35.61 3411,-28.68"/>
<text text-anchor="middle" x="3395.6" y="-34.51" font-family="Times,serif" font-size="14.00">3</text>
</g>
<!-- sel.SetGameState -->
<g id="node18" class="node">
<title>sel.SetGameState</title>
<g id="a_node18"><a xlink:href="sel.SetGameState.svg" xlink:title="sel.SetGameState">
<ellipse fill="green" stroke="black" cx="3542.44" cy="-18" rx="94.48" ry="18"/>
<text text-anchor="middle" x="3542.44" y="-14.3" font-family="Times,serif" font-size="14.00">sel.SetGameState</text>
</a>
</g>
</g>
<!-- sel.Update&#45;&gt;sel.SetGameState -->
<g id="edge17" class="edge">
<title>sel.Update&#45;&gt;sel.SetGameState</title>
<path fill="none" stroke="black" d="M5148.17,-192.28C4942.3,-175.32 4230.06,-114.32 3645.44,-36 3637.11,-34.88 3628.42,-33.62 3619.78,-32.28"/>
<polygon fill="black" stroke="black" points="3620.09,-28.79 3609.67,-30.7 3619.01,-35.71 3620.09,-28.79"/>
<text text-anchor="middle" x="3604.67" y="-34.5" font-family="Times,serif" font-size="14.00">2</text>
</g>
<!-- sel.func_801AEA8C -->
<g id="node19" class="node">
<title>sel.func_801AEA8C</title>
<g id="a_node19"><a xlink:href="sel.func_801AEA8C.svg" xlink:title="sel.func_801AEA8C">
<ellipse fill="green" stroke="black" cx="3755.44" cy="-18" rx="100.98" ry="18"/>
<text text-anchor="middle" x="3755.44" y="-14.3" font-family="Times,serif" font-size="14.00">sel.func_801AEA8C</text>
</a>
</g>
</g>
<!-- sel.Update&#45;&gt;sel.func_801AEA8C -->
<g id="edge18" class="edge">
<title>sel.Update&#45;&gt;sel.func_801AEA8C</title>
<path fill="none" stroke="black" d="M5150.14,-190.93C4965.64,-170.9 4362.58,-104.24 3865.44,-36 3856.51,-34.77 3847.19,-33.43 3837.91,-32.05"/>
<polygon fill="black" stroke="black" points="3838.28,-28.57 3827.87,-30.55 3837.24,-35.49 3838.28,-28.57"/>
<text text-anchor="middle" x="3822.87" y="-34.35" font-family="Times,serif" font-size="14.00">2</text>
</g>
<!-- sel.UpdateNameEntry -->
<g id="node20" class="node">
<title>sel.UpdateNameEntry</title>
<g id="a_node20"><a xlink:href="sel.UpdateNameEntry.svg" xlink:title="sel.UpdateNameEntry">
<ellipse fill="green" stroke="black" cx="3988.44" cy="-18" rx="114.28" ry="18"/>
<text text-anchor="middle" x="3988.44" y="-14.3" font-family="Times,serif" font-size="14.00">sel.UpdateNameEntry</text>
</a>
</g>
</g>
<!-- sel.Update&#45;&gt;sel.UpdateNameEntry -->
<g id="edge19" class="edge">
<title>sel.Update&#45;&gt;sel.UpdateNameEntry</title>
<path fill="none" stroke="black" d="M5152.93,-189.18C4962.82,-161.4 4318.63,-67.25 4079.11,-32.25"/>
<polygon fill="black" stroke="black" points="4079.45,-28.76 4069.05,-30.78 4078.43,-35.69 4079.45,-28.76"/>
<text text-anchor="middle" x="4064.05" y="-34.58" font-family="Times,serif" font-size="14.00">2</text>
</g>
<!-- sel.func_801AD78C -->
<g id="node21" class="node">
<title>sel.func_801AD78C</title>
<g id="a_node21"><a xlink:href="sel.func_801AD78C.svg" xlink:title="sel.func_801AD78C">
<ellipse fill="green" stroke="black" cx="4221.44" cy="-18" rx="100.98" ry="18"/>
<text text-anchor="middle" x="4221.44" y="-14.3" font-family="Times,serif" font-size="14.00">sel.func_801AD78C</text>
</a>
</g>
</g>
<!-- sel.Update&#45;&gt;sel.func_801AD78C -->
<g id="edge20" class="edge">
<title>sel.Update&#45;&gt;sel.func_801AD78C</title>
<path fill="none" stroke="black" d="M5155.9,-187.87C4994.92,-158.78 4493.39,-68.14 4299.27,-33.06"/>
<polygon fill="black" stroke="black" points="4299.89,-29.62 4289.43,-31.29 4298.64,-36.51 4299.89,-29.62"/>
<text text-anchor="middle" x="4284.43" y="-35.09" font-family="Times,serif" font-size="14.00">3</text>
</g>
<!-- sel.func_801AD66C -->
<g id="node22" class="node">
<title>sel.func_801AD66C</title>
<g id="a_node22"><a xlink:href="sel.func_801AD66C.svg" xlink:title="sel.func_801AD66C">
<ellipse fill="red" stroke="black" cx="4440.44" cy="-18" rx="100.98" ry="18"/>
<text text-anchor="middle" x="4440.44" y="-14.3" font-family="Times,serif" font-size="14.00">sel.func_801AD66C</text>
</a>
</g>
</g>
<!-- sel.Update&#45;&gt;sel.func_801AD66C -->
<g id="edge21" class="edge">
<title>sel.Update&#45;&gt;sel.func_801AD66C</title>
<path fill="none" stroke="black" d="M5159.96,-186.2C5030,-156 4662.34,-70.56 4508.97,-34.92"/>
<polygon fill="black" stroke="black" points="4509.71,-31.5 4499.18,-32.65 4508.13,-38.32 4509.71,-31.5"/>
<text text-anchor="middle" x="4494.18" y="-36.45" font-family="Times,serif" font-size="14.00">1</text>
</g>
<!-- sel.func_801B19F4 -->
<g id="node23" class="node">
<title>sel.func_801B19F4</title>
<g id="a_node23"><a xlink:href="sel.func_801B19F4.svg" xlink:title="sel.func_801B19F4">
<ellipse fill="green" stroke="black" cx="4658.44" cy="-18" rx="99.38" ry="18"/>
<text text-anchor="middle" x="4658.44" y="-14.3" font-family="Times,serif" font-size="14.00">sel.func_801B19F4</text>
</a>
</g>
</g>
<!-- sel.Update&#45;&gt;sel.func_801B19F4 -->
<g id="edge22" class="edge">
<title>sel.Update&#45;&gt;sel.func_801B19F4</title>
<path fill="none" stroke="black" d="M5167.03,-184.2C5071.15,-153.05 4825.44,-73.24 4714.4,-37.18"/>
<polygon fill="black" stroke="black" points="4715.32,-33.79 4704.72,-34.03 4713.15,-40.45 4715.32,-33.79"/>
<text text-anchor="middle" x="4699.72" y="-37.83" font-family="Times,serif" font-size="14.00">1</text>
</g>
<!-- sel.func_801B1DA8 -->
<g id="node24" class="node">
<title>sel.func_801B1DA8</title>
<g id="a_node24"><a xlink:href="sel.func_801B1DA8.svg" xlink:title="sel.func_801B1DA8">
<ellipse fill="green" stroke="black" cx="4876.44" cy="-18" rx="100.98" ry="18"/>
<text text-anchor="middle" x="4876.44" y="-14.3" font-family="Times,serif" font-size="14.00">sel.func_801B1DA8</text>
</a>
</g>
</g>
<!-- sel.Update&#45;&gt;sel.func_801B1DA8 -->
<g id="edge23" class="edge">
<title>sel.Update&#45;&gt;sel.func_801B1DA8</title>
<path fill="none" stroke="black" d="M5178.59,-181.98C5119.82,-150.28 4983,-76.48 4915.51,-40.08"/>
<polygon fill="black" stroke="black" points="4916.93,-36.86 4906.47,-35.2 4913.61,-43.02 4916.93,-36.86"/>
<text text-anchor="middle" x="4901.47" y="-39" font-family="Times,serif" font-size="14.00">1</text>
</g>
<!-- sel.func_801B2D1C -->
<g id="node25" class="node">
<title>sel.func_801B2D1C</title>
<g id="a_node25"><a xlink:href="sel.func_801B2D1C.svg" xlink:title="sel.func_801B2D1C">
<ellipse fill="green" stroke="black" cx="5096.44" cy="-18" rx="101.28" ry="18"/>
<text text-anchor="middle" x="5096.44" y="-14.3" font-family="Times,serif" font-size="14.00">sel.func_801B2D1C</text>
</a>
</g>
</g>
<!-- sel.Update&#45;&gt;sel.func_801B2D1C -->
<g id="edge24" class="edge">
<title>sel.Update&#45;&gt;sel.func_801B2D1C</title>
<path fill="none" stroke="black" d="M5196.09,-180.25C5176.81,-149.06 5135.29,-81.86 5112.4,-44.82"/>
<polygon fill="black" stroke="black" points="5115.24,-42.76 5107,-36.09 5109.28,-46.44 5115.24,-42.76"/>
<text text-anchor="middle" x="5102" y="-39.89" font-family="Times,serif" font-size="14.00">1</text>
</g>
<!-- dra.func_800EA538 -->
<g id="node26" class="node">
<title>dra.func_800EA538</title>
<g id="a_node26"><a xlink:href="dra.func_800EA538.svg" xlink:title="dra.func_800EA538">
<ellipse fill="green" stroke="black" cx="5317.44" cy="-18" rx="102.08" ry="18"/>
<text text-anchor="middle" x="5317.44" y="-14.3" font-family="Times,serif" font-size="14.00">dra.func_800EA538</text>
</a>
</g>
</g>
<!-- sel.Update&#45;&gt;dra.func_800EA538 -->
<g id="edge25" class="edge">
<title>sel.Update&#45;&gt;dra.func_800EA538</title>
<path fill="none" stroke="black" d="M5216.88,-180.25C5236.34,-149.06 5278.24,-81.86 5301.34,-44.82"/>
<polygon fill="black" stroke="black" points="5304.46,-46.43 5306.78,-36.09 5298.52,-42.73 5304.46,-46.43"/>
<text text-anchor="middle" x="5301.78" y="-39.89" font-family="Times,serif" font-size="14.00">1</text>
</g>
<!-- sel.func_801AEB74 -->
<g id="node27" class="node">
<title>sel.func_801AEB74</title>
<g id="a_node27"><a xlink:href="sel.func_801AEB74.svg" xlink:title="sel.func_801AEB74">
<ellipse fill="red" stroke="black" cx="5538.44" cy="-18" rx="100.98" ry="18"/>
<text text-anchor="middle" x="5538.44" y="-14.3" font-family="Times,serif" font-size="14.00">sel.func_801AEB74</text>
</a>
</g>
</g>
<!-- sel.Update&#45;&gt;sel.func_801AEB74 -->
<g id="edge26" class="edge">
<title>sel.Update&#45;&gt;sel.func_801AEB74</title>
<path fill="none" stroke="black" d="M5234.46,-181.98C5293.59,-150.28 5431.23,-76.48 5499.13,-40.08"/>
<polygon fill="black" stroke="black" points="5501.07,-43.01 5508.23,-35.2 5497.77,-36.84 5501.07,-43.01"/>
<text text-anchor="middle" x="5503.23" y="-39" font-family="Times,serif" font-size="14.00">6</text>
</g>
<!-- sel.func_801B2608 -->
<g id="node28" class="node">
<title>sel.func_801B2608</title>
<g id="a_node28"><a xlink:href="sel.func_801B2608.svg" xlink:title="sel.func_801B2608">
<ellipse fill="green" stroke="black" cx="5756.44" cy="-18" rx="98.58" ry="18"/>
<text text-anchor="middle" x="5756.44" y="-14.3" font-family="Times,serif" font-size="14.00">sel.func_801B2608</text>
</a>
</g>
</g>
<!-- sel.Update&#45;&gt;sel.func_801B2608 -->
<g id="edge27" class="edge">
<title>sel.Update&#45;&gt;sel.func_801B2608</title>
<path fill="none" stroke="black" d="M5246,-184.2C5342.23,-153.05 5588.84,-73.24 5700.28,-37.18"/>
<polygon fill="black" stroke="black" points="5701.55,-40.44 5709.99,-34.03 5699.4,-33.78 5701.55,-40.44"/>
<text text-anchor="middle" x="5700.49" y="-37.83" font-family="Times,serif" font-size="14.00">67</text>
</g>
<!-- sel.func_801B3120 -->
<g id="node29" class="node">
<title>sel.func_801B3120</title>
<g id="a_node29"><a xlink:href="sel.func_801B3120.svg" xlink:title="sel.func_801B3120">
<ellipse fill="green" stroke="black" cx="5972.44" cy="-18" rx="98.58" ry="18"/>
<text text-anchor="middle" x="5972.44" y="-14.3" font-family="Times,serif" font-size="14.00">sel.func_801B3120</text>
</a>
</g>
</g>
<!-- sel.Update&#45;&gt;sel.func_801B3120 -->
<g id="edge28" class="edge">
<title>sel.Update&#45;&gt;sel.func_801B3120</title>
<path fill="none" stroke="black" d="M5252.92,-186.2C5382.96,-155.98 5750.99,-70.46 5904.2,-34.86"/>
<polygon fill="black" stroke="black" points="5905.02,-38.26 5913.97,-32.59 5903.44,-31.44 5905.02,-38.26"/>
<text text-anchor="middle" x="5908.97" y="-36.39" font-family="Times,serif" font-size="14.00">4</text>
</g>
<!-- sel.func_801ADF94 -->
<g id="node30" class="node">
<title>sel.func_801ADF94</title>
<g id="a_node30"><a xlink:href="sel.func_801ADF94.svg" xlink:title="sel.func_801ADF94">
<ellipse fill="red" stroke="black" cx="6190.44" cy="-18" rx="100.98" ry="18"/>
<text text-anchor="middle" x="6190.44" y="-14.3" font-family="Times,serif" font-size="14.00">sel.func_801ADF94</text>
</a>
</g>
</g>
<!-- sel.Update&#45;&gt;sel.func_801ADF94 -->
<g id="edge29" class="edge">
<title>sel.Update&#45;&gt;sel.func_801ADF94</title>
<path fill="none" stroke="black" d="M5257.27,-187.8C5418.3,-158.68 5917.95,-68.29 6112.14,-33.16"/>
<polygon fill="black" stroke="black" points="6113.05,-36.56 6122.26,-31.33 6111.8,-29.67 6113.05,-36.56"/>
<text text-anchor="middle" x="6112.76" y="-35.13" font-family="Times,serif" font-size="14.00">52</text>
</g>
<!-- sel.func_801B3164 -->
<g id="node31" class="node">
<title>sel.func_801B3164</title>
<g id="a_node31"><a xlink:href="sel.func_801B3164.svg" xlink:title="sel.func_801B3164">
<ellipse fill="red" stroke="black" cx="6408.44" cy="-18" rx="98.58" ry="18"/>
<text text-anchor="middle" x="6408.44" y="-14.3" font-family="Times,serif" font-size="14.00">sel.func_801B3164</text>
</a>
</g>
</g>
<!-- sel.Update&#45;&gt;sel.func_801B3164 -->
<g id="edge30" class="edge">
<title>sel.Update&#45;&gt;sel.func_801B3164</title>
<path fill="none" stroke="black" d="M5259.97,-189.32C5418.75,-166.48 5900.94,-96.84 6300.44,-36 6308.96,-34.7 6317.86,-33.33 6326.73,-31.95"/>
<polygon fill="black" stroke="black" points="6327.37,-35.39 6336.71,-30.39 6326.29,-28.48 6327.37,-35.39"/>
<text text-anchor="middle" x="6331.71" y="-34.19" font-family="Times,serif" font-size="14.00">4</text>
</g>
<!-- sel.func_801AED48 -->
<g id="node32" class="node">
<title>sel.func_801AED48</title>
<g id="a_node32"><a xlink:href="sel.func_801AED48.svg" xlink:title="sel.func_801AED48">
<ellipse fill="red" stroke="black" cx="6626.44" cy="-18" rx="100.98" ry="18"/>
<text text-anchor="middle" x="6626.44" y="-14.3" font-family="Times,serif" font-size="14.00">sel.func_801AED48</text>
</a>
</g>
</g>
<!-- sel.Update&#45;&gt;sel.func_801AED48 -->
<g id="edge31" class="edge">
<title>sel.Update&#45;&gt;sel.func_801AED48</title>
<path fill="none" stroke="black" d="M5262.38,-190.75C5443.71,-170.37 6031.58,-103.25 6516.44,-36 6525.37,-34.76 6534.69,-33.41 6543.97,-32.03"/>
<polygon fill="black" stroke="black" points="6544.64,-35.47 6554.01,-30.52 6543.6,-28.55 6544.64,-35.47"/>
<text text-anchor="middle" x="6549.01" y="-34.32" font-family="Times,serif" font-size="14.00">4</text>
</g>
<!-- sel.DrawNavigationTips -->
<g id="node33" class="node">
<title>sel.DrawNavigationTips</title>
<g id="a_node33"><a xlink:href="sel.DrawNavigationTips.svg" xlink:title="sel.DrawNavigationTips">
<ellipse fill="green" stroke="black" cx="6867.44" cy="-18" rx="122.38" ry="18"/>
<text text-anchor="middle" x="6867.44" y="-14.3" font-family="Times,serif" font-size="14.00">sel.DrawNavigationTips</text>
</a>
</g>
</g>
<!-- sel.Update&#45;&gt;sel.DrawNavigationTips -->
<g id="edge32" class="edge">
<title>sel.Update&#45;&gt;sel.DrawNavigationTips</title>
<path fill="none" stroke="black" d="M5263.46,-191.5C5464.94,-171.97 6162.14,-103.47 6736.44,-36 6747.36,-34.72 6758.79,-33.32 6770.15,-31.89"/>
<polygon fill="black" stroke="black" points="6770.62,-35.36 6780.1,-30.63 6769.74,-28.42 6770.62,-35.36"/>
<text text-anchor="middle" x="6770.6" y="-34.43" font-family="Times,serif" font-size="14.00">31</text>
</g>
<!-- sel.func_801B25D4 -->
<g id="node34" class="node">
<title>sel.func_801B25D4</title>
<g id="a_node34"><a xlink:href="sel.func_801B25D4.svg" xlink:title="sel.func_801B25D4">
<ellipse fill="green" stroke="black" cx="7108.44" cy="-18" rx="100.98" ry="18"/>
<text text-anchor="middle" x="7108.44" y="-14.3" font-family="Times,serif" font-size="14.00">sel.func_801B25D4</text>
</a>
</g>
</g>
<!-- sel.Update&#45;&gt;sel.func_801B25D4 -->
<g id="edge33" class="edge">
<title>sel.Update&#45;&gt;sel.func_801B25D4</title>
<path fill="none" stroke="black" d="M5265.37,-193.08C5490.72,-177.78 6319.4,-118.89 6998.44,-36 7007.69,-34.87 7017.37,-33.56 7026.97,-32.18"/>
<polygon fill="black" stroke="black" points="7027.55,-35.64 7036.94,-30.73 7026.53,-28.71 7027.55,-35.64"/>
<text text-anchor="middle" x="7031.94" y="-34.53" font-family="Times,serif" font-size="14.00">3</text>
</g>
<!-- sel.func_801AE9A8 -->
<g id="node35" class="node">
<title>sel.func_801AE9A8</title>
<g id="a_node35"><a xlink:href="sel.func_801AE9A8.svg" xlink:title="sel.func_801AE9A8">
<ellipse fill="green" stroke="black" cx="7327.44" cy="-18" rx="100.18" ry="18"/>
<text text-anchor="middle" x="7327.44" y="-14.3" font-family="Times,serif" font-size="14.00">sel.func_801AE9A8</text>
</a>
</g>
</g>
<!-- sel.Update&#45;&gt;sel.func_801AE9A8 -->
<g id="edge34" class="edge">
<title>sel.Update&#45;&gt;sel.func_801AE9A8</title>
<path fill="none" stroke="black" d="M5266.27,-193.85C5509.75,-180.7 6449.76,-126.57 7218.44,-36 7227.69,-34.91 7237.35,-33.62 7246.94,-32.25"/>
<polygon fill="black" stroke="black" points="7247.51,-35.7 7256.89,-30.79 7246.49,-28.78 7247.51,-35.7"/>
<text text-anchor="middle" x="7251.89" y="-34.59" font-family="Times,serif" font-size="14.00">8</text>
</g>
<!-- sel.UpdateFileSelect -->
<g id="node36" class="node">
<title>sel.UpdateFileSelect</title>
<g id="a_node36"><a xlink:href="sel.UpdateFileSelect.svg" xlink:title="sel.UpdateFileSelect">
<ellipse fill="green" stroke="black" cx="7552.44" cy="-18" rx="107.48" ry="18"/>
<text text-anchor="middle" x="7552.44" y="-14.3" font-family="Times,serif" font-size="14.00">sel.UpdateFileSelect</text>
</a>
</g>
</g>
<!-- sel.Update&#45;&gt;sel.UpdateFileSelect -->
<g id="edge35" class="edge">
<title>sel.Update&#45;&gt;sel.UpdateFileSelect</title>
<path fill="none" stroke="black" d="M5266.46,-194.29C5526.01,-182.22 6577.41,-129.83 7436.44,-36 7446.31,-34.92 7456.62,-33.64 7466.85,-32.27"/>
<polygon fill="black" stroke="black" points="7467.61,-35.7 7477.04,-30.87 7466.66,-28.76 7467.61,-35.7"/>
<text text-anchor="middle" x="7472.04" y="-34.67" font-family="Times,serif" font-size="14.00">5</text>
</g>
<!-- sel.func_801ACBE4 -->
<g id="node37" class="node">
<title>sel.func_801ACBE4</title>
<g id="a_node37"><a xlink:href="sel.func_801ACBE4.svg" xlink:title="sel.func_801ACBE4">
<ellipse fill="green" stroke="black" cx="7779.44" cy="-18" rx="101.28" ry="18"/>
<text text-anchor="middle" x="7779.44" y="-14.3" font-family="Times,serif" font-size="14.00">sel.func_801ACBE4</text>
</a>
</g>
</g>
<!-- sel.Update&#45;&gt;sel.func_801ACBE4 -->
<g id="edge36" class="edge">
<title>sel.Update&#45;&gt;sel.func_801ACBE4</title>
<path fill="none" stroke="black" d="M5267.06,-194.97C5543.71,-185.32 6714.08,-140.09 7668.44,-36 7678.11,-34.95 7688.22,-33.66 7698.24,-32.27"/>
<polygon fill="black" stroke="black" points="7698.8,-35.72 7708.21,-30.84 7697.81,-28.79 7698.8,-35.72"/>
<text text-anchor="middle" x="7698.71" y="-34.64" font-family="Times,serif" font-size="14.00">37</text>
</g>
<!-- sel.func_801AEE74 -->
<g id="node38" class="node">
<title>sel.func_801AEE74</title>
<g id="a_node38"><a xlink:href="sel.func_801AEE74.svg" xlink:title="sel.func_801AEE74">
<ellipse fill="green" stroke="black" cx="7999.44" cy="-18" rx="100.98" ry="18"/>
<text text-anchor="middle" x="7999.44" y="-14.3" font-family="Times,serif" font-size="14.00">sel.func_801AEE74</text>
</a>
</g>
</g>
<!-- sel.Update&#45;&gt;sel.func_801AEE74 -->
<g id="edge37" class="edge">
<title>sel.Update&#45;&gt;sel.func_801AEE74</title>
<path fill="none" stroke="black" d="M5267.06,-195.46C5558.36,-187.61 6843.15,-147.99 7889.44,-36 7898.92,-34.98 7908.84,-33.73 7918.67,-32.36"/>
<polygon fill="black" stroke="black" points="7919.45,-35.79 7928.86,-30.91 7918.46,-28.86 7919.45,-35.79"/>
<text text-anchor="middle" x="7923.86" y="-34.71" font-family="Times,serif" font-size="14.00">3</text>
</g>
<!-- sel.func_801B38B4 -->
<g id="node39" class="node">
<title>sel.func_801B38B4</title>
<g id="a_node39"><a xlink:href="sel.func_801B38B4.svg" xlink:title="sel.func_801B38B4">
<ellipse fill="red" stroke="black" cx="8218.44" cy="-18" rx="100.18" ry="18"/>
<text text-anchor="middle" x="8218.44" y="-14.3" font-family="Times,serif" font-size="14.00">sel.func_801B38B4</text>
</a>
</g>
</g>
<!-- sel.Update&#45;&gt;sel.func_801B38B4 -->
<g id="edge38" class="edge">
<title>sel.Update&#45;&gt;sel.func_801B38B4</title>
<path fill="none" stroke="black" d="M5267.15,-195.87C5572.59,-189.72 6971.51,-155.99 8109.44,-36 8118.84,-35.01 8128.67,-33.77 8138.41,-32.41"/>
<polygon fill="black" stroke="black" points="8139.11,-35.85 8148.51,-30.96 8138.11,-28.92 8139.11,-35.85"/>
<text text-anchor="middle" x="8143.51" y="-34.76" font-family="Times,serif" font-size="14.00">2</text>
</g>
<!-- sel.func_801B3A94 -->
<g id="node40" class="node">
<title>sel.func_801B3A94</title>
<g id="a_node40"><a xlink:href="sel.func_801B3A94.svg" xlink:title="sel.func_801B3A94">
<ellipse fill="red" stroke="black" cx="8436.44" cy="-18" rx="99.38" ry="18"/>
<text text-anchor="middle" x="8436.44" y="-14.3" font-family="Times,serif" font-size="14.00">sel.func_801B3A94</text>
</a>
</g>
</g>
<!-- sel.Update&#45;&gt;sel.func_801B3A94 -->
<g id="edge39" class="edge">
<title>sel.Update&#45;&gt;sel.func_801B3A94</title>
<path fill="none" stroke="black" d="M5267.43,-196.19C5586.81,-191.49 7098.66,-163.17 8327.44,-36 8337.09,-35 8347.18,-33.73 8357.16,-32.34"/>
<polygon fill="black" stroke="black" points="8357.7,-35.8 8367.09,-30.91 8356.7,-28.87 8357.7,-35.8"/>
<text text-anchor="middle" x="8362.09" y="-34.71" font-family="Times,serif" font-size="14.00">2</text>
</g>
<!-- sel.func_801AE6D0 -->
<g id="node41" class="node">
<title>sel.func_801AE6D0</title>
<g id="a_node41"><a xlink:href="sel.func_801AE6D0.svg" xlink:title="sel.func_801AE6D0">
<ellipse fill="red" stroke="black" cx="8654.44" cy="-18" rx="100.98" ry="18"/>
<text text-anchor="middle" x="8654.44" y="-14.3" font-family="Times,serif" font-size="14.00">sel.func_801AE6D0</text>
</a>
</g>
</g>
<!-- sel.Update&#45;&gt;sel.func_801AE6D0 -->
<g id="edge40" class="edge">
<title>sel.Update&#45;&gt;sel.func_801AE6D0</title>
<path fill="none" stroke="black" d="M5267.51,-196.45C5599.91,-192.95 7224.72,-169.43 8544.44,-36 8554.1,-35.02 8564.21,-33.77 8574.21,-32.4"/>
<polygon fill="black" stroke="black" points="8574.76,-35.86 8584.16,-30.99 8573.77,-28.93 8574.76,-35.86"/>
<text text-anchor="middle" x="8579.16" y="-34.79" font-family="Times,serif" font-size="14.00">6</text>
</g>
<!-- sel.func_801AD1D0 -->
<g id="node42" class="node">
<title>sel.func_801AD1D0</title>
<g id="a_node42"><a xlink:href="sel.func_801AD1D0.svg" xlink:title="sel.func_801AD1D0">
<ellipse fill="green" stroke="black" cx="8874.44" cy="-18" rx="101.28" ry="18"/>
<text text-anchor="middle" x="8874.44" y="-14.3" font-family="Times,serif" font-size="14.00">sel.func_801AD1D0</text>
</a>
</g>
</g>
<!-- sel.Update&#45;&gt;sel.func_801AD1D0 -->
<g id="edge41" class="edge">
<title>sel.Update&#45;&gt;sel.func_801AD1D0</title>
<path fill="none" stroke="black" d="M5267.53,-196.7C5612.58,-194.51 7352.34,-176.65 8764.44,-36 8774.1,-35.04 8784.21,-33.8 8794.22,-32.43"/>
<polygon fill="black" stroke="black" points="8794.76,-35.89 8804.17,-31.02 8793.78,-28.95 8794.76,-35.89"/>
<text text-anchor="middle" x="8799.17" y="-34.82" font-family="Times,serif" font-size="14.00">1</text>
</g>
<!-- sel.func_801B3E14 -->
<g id="node43" class="node">
<title>sel.func_801B3E14</title>
<g id="a_node43"><a xlink:href="sel.func_801B3E14.svg" xlink:title="sel.func_801B3E14">
<ellipse fill="green" stroke="black" cx="9093.44" cy="-18" rx="100.18" ry="18"/>
<text text-anchor="middle" x="9093.44" y="-14.3" font-family="Times,serif" font-size="14.00">sel.func_801B3E14</text>
</a>
</g>
</g>
<!-- sel.Update&#45;&gt;sel.func_801B3E14 -->
<g id="edge42" class="edge">
<title>sel.Update&#45;&gt;sel.func_801B3E14</title>
<path fill="none" stroke="black" d="M5267.48,-196.96C5624.63,-196.2 7479.8,-184.92 8984.44,-36 8994.09,-35.05 9004.19,-33.8 9014.17,-32.42"/>
<polygon fill="black" stroke="black" points="9014.7,-35.89 9024.1,-31.01 9013.71,-28.96 9014.7,-35.89"/>
<text text-anchor="middle" x="9019.1" y="-34.81" font-family="Times,serif" font-size="14.00">1</text>
</g>
<!-- sel.func_801B3E2C -->
<g id="node44" class="node">
<title>sel.func_801B3E2C</title>
<g id="a_node44"><a xlink:href="sel.func_801B3E2C.svg" xlink:title="sel.func_801B3E2C">
<ellipse fill="red" stroke="black" cx="9312.44" cy="-18" rx="100.98" ry="18"/>
<text text-anchor="middle" x="9312.44" y="-14.3" font-family="Times,serif" font-size="14.00">sel.func_801B3E2C</text>
</a>
</g>
</g>
<!-- sel.Update&#45;&gt;sel.func_801B3E2C -->
<g id="edge43" class="edge">
<title>sel.Update&#45;&gt;sel.func_801B3E2C</title>
<path fill="none" stroke="black" d="M5267.65,-197.13C5637.01,-197.37 7606.09,-191.01 9202.44,-36 9212.18,-35.05 9222.37,-33.82 9232.45,-32.44"/>
<polygon fill="black" stroke="black" points="9233.06,-35.89 9242.47,-31.03 9232.08,-28.96 9233.06,-35.89"/>
<text text-anchor="middle" x="9237.47" y="-34.83" font-family="Times,serif" font-size="14.00">1</text>
</g>
<!-- sel.func_801B367C -->
<g id="node45" class="node">
<title>sel.func_801B367C</title>
<g id="a_node45"><a xlink:href="sel.func_801B367C.svg" xlink:title="sel.func_801B367C">
<ellipse fill="green" stroke="black" cx="9531.44" cy="-18" rx="100.18" ry="18"/>
<text text-anchor="middle" x="9531.44" y="-14.3" font-family="Times,serif" font-size="14.00">sel.func_801B367C</text>
</a>
</g>
</g>
<!-- sel.Update&#45;&gt;sel.func_801B367C -->
<g id="edge44" class="edge">
<title>sel.Update&#45;&gt;sel.func_801B367C</title>
<path fill="none" stroke="black" d="M5267.59,-197.34C5648.36,-198.91 7733.27,-199.42 9422.44,-36 9432.09,-35.07 9442.19,-33.84 9452.18,-32.47"/>
<polygon fill="black" stroke="black" points="9452.7,-35.93 9462.11,-31.05 9451.72,-29 9452.7,-35.93"/>
<text text-anchor="middle" x="9457.11" y="-34.85" font-family="Times,serif" font-size="14.00">1</text>
</g>
<!-- sel.func_801B3694 -->
<g id="node46" class="node">
<title>sel.func_801B3694</title>
<g id="a_node46"><a xlink:href="sel.func_801B3694.svg" xlink:title="sel.func_801B3694">
<ellipse fill="red" stroke="black" cx="9748.44" cy="-18" rx="98.58" ry="18"/>
<text text-anchor="middle" x="9748.44" y="-14.3" font-family="Times,serif" font-size="14.00">sel.func_801B3694</text>
</a>
</g>
</g>
<!-- sel.Update&#45;&gt;sel.func_801B3694 -->
<g id="edge45" class="edge">
<title>sel.Update&#45;&gt;sel.func_801B3694</title>
<path fill="none" stroke="black" d="M5267.2,-195.8C5732.42,-186.44 8735.93,-123.29 9640.44,-36 9650.08,-35.07 9660.16,-33.84 9670.13,-32.46"/>
<polygon fill="black" stroke="black" points="9670.64,-35.92 9680.04,-31.03 9669.64,-28.99 9670.64,-35.92"/>
<text text-anchor="middle" x="9675.04" y="-34.83" font-family="Times,serif" font-size="14.00">1</text>
</g>
<!-- sel.func_801B3F7C -->
<g id="node47" class="node">
<title>sel.func_801B3F7C</title>
<g id="a_node47"><a xlink:href="sel.func_801B3F7C.svg" xlink:title="sel.func_801B3F7C">
<ellipse fill="green" stroke="black" cx="9966.44" cy="-18" rx="100.98" ry="18"/>
<text text-anchor="middle" x="9966.44" y="-14.3" font-family="Times,serif" font-size="14.00">sel.func_801B3F7C</text>
</a>
</g>
</g>
<!-- sel.Update&#45;&gt;sel.func_801B3F7C -->
<g id="edge46" class="edge">
<title>sel.Update&#45;&gt;sel.func_801B3F7C</title>
<path fill="none" stroke="black" d="M5267.48,-195.89C5746.33,-187 8905.96,-125.58 9856.44,-36 9866.25,-35.08 9876.52,-33.84 9886.67,-32.47"/>
<polygon fill="black" stroke="black" points="9887.35,-35.9 9896.77,-31.04 9886.38,-28.97 9887.35,-35.9"/>
<text text-anchor="middle" x="9891.77" y="-34.84" font-family="Times,serif" font-size="14.00">2</text>
</g>
<!-- sel.func_801B3F94 -->
<g id="node48" class="node">
<title>sel.func_801B3F94</title>
<g id="a_node48"><a xlink:href="sel.func_801B3F94.svg" xlink:title="sel.func_801B3F94">
<ellipse fill="red" stroke="black" cx="10184.44" cy="-18" rx="99.38" ry="18"/>
<text text-anchor="middle" x="10184.44" y="-14.3" font-family="Times,serif" font-size="14.00">sel.func_801B3F94</text>
</a>
</g>
</g>
<!-- sel.Update&#45;&gt;sel.func_801B3F94 -->
<g id="edge47" class="edge">
<title>sel.Update&#45;&gt;sel.func_801B3F94</title>
<path fill="none" stroke="black" d="M5267.22,-196.02C5757.88,-187.98 9079,-130.63 10076.44,-36 10086.08,-35.09 10096.16,-33.86 10106.13,-32.49"/>
<polygon fill="black" stroke="black" points="10106.64,-35.95 10116.04,-31.07 10105.65,-29.02 10106.64,-35.95"/>
<text text-anchor="middle" x="10111.04" y="-34.87" font-family="Times,serif" font-size="14.00">2</text>
</g>
<!-- sel.func_801AD218 -->
<g id="node49" class="node">
<title>sel.func_801AD218</title>
<g id="a_node49"><a xlink:href="sel.func_801AD218.svg" xlink:title="sel.func_801AD218">
<ellipse fill="green" stroke="black" cx="10402.44" cy="-18" rx="100.18" ry="18"/>
<text text-anchor="middle" x="10402.44" y="-14.3" font-family="Times,serif" font-size="14.00">sel.func_801AD218</text>
</a>
</g>
</g>
<!-- sel.Update&#45;&gt;sel.func_801AD218 -->
<g id="edge48" class="edge">
<title>sel.Update&#45;&gt;sel.func_801AD218</title>
<path fill="none" stroke="black" d="M5267.5,-196.09C5771.32,-188.46 9248.95,-132.79 10292.44,-36 10302.33,-35.08 10312.67,-33.85 10322.9,-32.46"/>
<polygon fill="black" stroke="black" points="10323.65,-35.89 10333.07,-31.03 10322.67,-28.96 10323.65,-35.89"/>
<text text-anchor="middle" x="10328.07" y="-34.83" font-family="Times,serif" font-size="14.00">2</text>
</g>
</g>
</svg>
