<?xml version="1.0" encoding="UTF-8" standalone="no"?>
<!DOCTYPE svg PUBLIC "-//W3C//DTD SVG 1.1//EN"
 "http://www.w3.org/Graphics/SVG/1.1/DTD/svg11.dtd">
<!-- Generated by graphviz version 2.43.0 (0)
 -->
<!-- Title: sel.func_801BA460 Pages: 1 -->
<svg width="380pt" height="404pt"
 viewBox="0.00 0.00 379.78 404.00" xmlns="http://www.w3.org/2000/svg" xmlns:xlink="http://www.w3.org/1999/xlink">
<g id="graph0" class="graph" transform="scale(1 1) rotate(0) translate(4 400)">
<title>sel.func_801BA460</title>
<polygon fill="white" stroke="transparent" points="-4,4 -4,-400 375.78,-400 375.78,4 -4,4"/>
<!-- sel.func_801BA460 -->
<g id="node1" class="node">
<title>sel.func_801BA460</title>
<ellipse fill="green" stroke="black" cx="173.69" cy="-198" rx="99.38" ry="18"/>
<text text-anchor="middle" x="173.69" y="-194.3" font-family="Times,serif" font-size="14.00">sel.func_801BA460</text>
</g>
<!-- ResetCallback -->
<g id="node2" class="node">
<title>ResetCallback</title>
<g id="a_node2"><a xlink:href="ResetCallback.svg" xlink:title="ResetCallback">
<ellipse fill="lightblue" stroke="black" cx="76.69" cy="-18" rx="76.89" ry="18"/>
<text text-anchor="middle" x="76.69" y="-14.3" font-family="Times,serif" font-size="14.00">ResetCallback</text>
</a>
</g>
</g>
<!-- sel.func_801BA460&#45;&gt;ResetCallback -->
<g id="edge1" class="edge">
<title>sel.func_801BA460&#45;&gt;ResetCallback</title>
<path fill="none" stroke="black" d="M164.39,-179.93C147.37,-148.7 111.12,-82.17 90.96,-45.18"/>
<polygon fill="black" stroke="black" points="93.82,-43.12 85.97,-36.02 87.68,-46.47 93.82,-43.12"/>
<text text-anchor="middle" x="80.97" y="-39.82" font-family="Times,serif" font-size="14.00">1</text>
</g>
<!-- sel.func_801BA6F0 -->
<g id="node3" class="node">
<title>sel.func_801BA6F0</title>
<g id="a_node3"><a xlink:href="sel.func_801BA6F0.svg" xlink:title="sel.func_801BA6F0">
<ellipse fill="green" stroke="black" cx="271.69" cy="-18" rx="100.18" ry="18"/>
<text text-anchor="middle" x="271.69" y="-14.3" font-family="Times,serif" font-size="14.00">sel.func_801BA6F0</text>
</a>
</g>
</g>
<!-- sel.func_801BA460&#45;&gt;sel.func_801BA6F0 -->
<g id="edge2" class="edge">
<title>sel.func_801BA460&#45;&gt;sel.func_801BA6F0</title>
<path fill="none" stroke="black" d="M183.09,-179.93C200.29,-148.7 236.91,-82.17 257.28,-45.18"/>
<polygon fill="black" stroke="black" points="260.57,-46.46 262.32,-36.02 254.44,-43.09 260.57,-46.46"/>
<text text-anchor="middle" x="257.32" y="-39.82" font-family="Times,serif" font-size="14.00">1</text>
</g>
<!-- sel.func_801B9C18 -->
<g id="node4" class="node">
<title>sel.func_801B9C18</title>
<g id="a_node4"><a xlink:href="sel.func_801B9C18.svg" xlink:title="sel.func_801B9C18">
<ellipse fill="green" stroke="black" cx="173.69" cy="-378" rx="100.18" ry="18"/>
<text text-anchor="middle" x="173.69" y="-374.3" font-family="Times,serif" font-size="14.00">sel.func_801B9C18</text>
</a>
</g>
</g>
<!-- sel.func_801B9C18&#45;&gt;sel.func_801BA460 -->
<g id="edge3" class="edge">
<title>sel.func_801B9C18&#45;&gt;sel.func_801BA460</title>
<path fill="none" stroke="black" d="M173.69,-359.93C173.69,-328.97 173.69,-263.3 173.69,-226.13"/>
<polygon fill="black" stroke="black" points="177.19,-226.02 173.69,-216.02 170.19,-226.02 177.19,-226.02"/>
<text text-anchor="middle" x="168.69" y="-348.73" font-family="Times,serif" font-size="14.00">1</text>
</g>
</g>
</svg>
