<?xml version="1.0" encoding="UTF-8" standalone="no"?>
<!DOCTYPE svg PUBLIC "-//W3C//DTD SVG 1.1//EN"
 "http://www.w3.org/Graphics/SVG/1.1/DTD/svg11.dtd">
<!-- Generated by graphviz version 2.43.0 (0)
 -->
<!-- Title: servant.DestroyEntity Pages: 1 -->
<svg width="2331pt" height="218pt"
 viewBox="0.00 0.00 2330.73 218.00" xmlns="http://www.w3.org/2000/svg" xmlns:xlink="http://www.w3.org/1999/xlink">
<g id="graph0" class="graph" transform="scale(1 1) rotate(0) translate(4 214)">
<title>servant.DestroyEntity</title>
<polygon fill="white" stroke="transparent" points="-4,4 -4,-214 2326.73,-214 2326.73,4 -4,4"/>
<!-- servant.DestroyEntity -->
<g id="node1" class="node">
<title>servant.DestroyEntity</title>
<ellipse fill="green" stroke="black" cx="1162.54" cy="-105" rx="114.28" ry="18"/>
<text text-anchor="middle" x="1162.54" y="-101.3" font-family="Times,serif" font-size="14.00">servant.DestroyEntity</text>
</g>
<!-- dra.FreePrimitives -->
<g id="node2" class="node">
<title>dra.FreePrimitives</title>
<g id="a_node2"><a xlink:href="dra.FreePrimitives.svg" xlink:title="dra.FreePrimitives">
<ellipse fill="green" stroke="black" cx="1162.54" cy="-18" rx="98.58" ry="18"/>
<text text-anchor="middle" x="1162.54" y="-14.3" font-family="Times,serif" font-size="14.00">dra.FreePrimitives</text>
</a>
</g>
</g>
<!-- servant.DestroyEntity&#45;&gt;dra.FreePrimitives -->
<g id="edge1" class="edge">
<title>servant.DestroyEntity&#45;&gt;dra.FreePrimitives</title>
<path fill="none" stroke="black" d="M1162.54,-86.8C1162.54,-75.16 1162.54,-59.55 1162.54,-46.24"/>
<polygon fill="black" stroke="black" points="1166.04,-46.18 1162.54,-36.18 1159.04,-46.18 1166.04,-46.18"/>
<text text-anchor="middle" x="1167.54" y="-57.8" font-family="Times,serif" font-size="14.00">1</text>
</g>
<!-- servant.func_801733D4 -->
<g id="node3" class="node">
<title>servant.func_801733D4</title>
<g id="a_node3"><a xlink:href="servant.func_801733D4.svg" xlink:title="servant.func_801733D4">
<ellipse fill="red" stroke="black" cx="121.54" cy="-192" rx="121.58" ry="18"/>
<text text-anchor="middle" x="121.54" y="-188.3" font-family="Times,serif" font-size="14.00">servant.func_801733D4</text>
</a>
</g>
</g>
<!-- servant.func_801733D4&#45;&gt;servant.DestroyEntity -->
<g id="edge2" class="edge">
<title>servant.func_801733D4&#45;&gt;servant.DestroyEntity</title>
<path fill="none" stroke="black" d="M207.13,-179.2C221.92,-177.33 237.17,-175.52 251.54,-174 536.46,-143.84 872.91,-122.38 1046.28,-112.37"/>
<polygon fill="black" stroke="black" points="1046.67,-115.85 1056.45,-111.78 1046.26,-108.86 1046.67,-115.85"/>
<text text-anchor="middle" x="607.54" y="-144.8" font-family="Times,serif" font-size="14.00">1</text>
</g>
<!-- servant.func_8017160C -->
<g id="node4" class="node">
<title>servant.func_8017160C</title>
<g id="a_node4"><a xlink:href="servant.func_8017160C.svg" xlink:title="servant.func_8017160C">
<ellipse fill="green" stroke="black" cx="381.54" cy="-192" rx="120.78" ry="18"/>
<text text-anchor="middle" x="381.54" y="-188.3" font-family="Times,serif" font-size="14.00">servant.func_8017160C</text>
</a>
</g>
</g>
<!-- servant.func_8017160C&#45;&gt;servant.DestroyEntity -->
<g id="edge3" class="edge">
<title>servant.func_8017160C&#45;&gt;servant.DestroyEntity</title>
<path fill="none" stroke="black" d="M467.86,-179.39C482.43,-177.52 497.41,-175.66 511.54,-174 703.97,-151.37 928.86,-128.72 1057.6,-116.12"/>
<polygon fill="black" stroke="black" points="1058.24,-119.57 1067.85,-115.11 1057.56,-112.6 1058.24,-119.57"/>
<text text-anchor="middle" x="802.54" y="-144.8" font-family="Times,serif" font-size="14.00">1</text>
</g>
<!-- servant.func_80172C30 -->
<g id="node5" class="node">
<title>servant.func_80172C30</title>
<g id="a_node5"><a xlink:href="servant.func_80172C30.svg" xlink:title="servant.func_80172C30">
<ellipse fill="red" stroke="black" cx="641.54" cy="-192" rx="120.78" ry="18"/>
<text text-anchor="middle" x="641.54" y="-188.3" font-family="Times,serif" font-size="14.00">servant.func_80172C30</text>
</a>
</g>
</g>
<!-- servant.func_80172C30&#45;&gt;servant.DestroyEntity -->
<g id="edge4" class="edge">
<title>servant.func_80172C30&#45;&gt;servant.DestroyEntity</title>
<path fill="none" stroke="black" d="M719.82,-178.23C815.53,-162.61 976.99,-136.27 1076.22,-120.08"/>
<polygon fill="black" stroke="black" points="1076.91,-123.52 1086.22,-118.45 1075.79,-116.61 1076.91,-123.52"/>
<text text-anchor="middle" x="938.54" y="-144.8" font-family="Times,serif" font-size="14.00">1</text>
</g>
<!-- servant.func_80173C2C -->
<g id="node6" class="node">
<title>servant.func_80173C2C</title>
<g id="a_node6"><a xlink:href="servant.func_80173C2C.svg" xlink:title="servant.func_80173C2C">
<ellipse fill="green" stroke="black" cx="902.54" cy="-192" rx="122.38" ry="18"/>
<text text-anchor="middle" x="902.54" y="-188.3" font-family="Times,serif" font-size="14.00">servant.func_80173C2C</text>
</a>
</g>
</g>
<!-- servant.func_80173C2C&#45;&gt;servant.DestroyEntity -->
<g id="edge5" class="edge">
<title>servant.func_80173C2C&#45;&gt;servant.DestroyEntity</title>
<path fill="none" stroke="black" d="M950.23,-175.41C994.02,-161.09 1059,-139.85 1105.52,-124.64"/>
<polygon fill="black" stroke="black" points="1106.74,-127.93 1115.15,-121.49 1104.56,-121.27 1106.74,-127.93"/>
<text text-anchor="middle" x="1053.54" y="-144.8" font-family="Times,serif" font-size="14.00">1</text>
</g>
<!-- servant.func_80171568 -->
<g id="node7" class="node">
<title>servant.func_80171568</title>
<g id="a_node7"><a xlink:href="servant.func_80171568.svg" xlink:title="servant.func_80171568">
<ellipse fill="green" stroke="black" cx="1162.54" cy="-192" rx="120.48" ry="18"/>
<text text-anchor="middle" x="1162.54" y="-188.3" font-family="Times,serif" font-size="14.00">servant.func_80171568</text>
</a>
</g>
</g>
<!-- servant.func_80171568&#45;&gt;servant.DestroyEntity -->
<g id="edge6" class="edge">
<title>servant.func_80171568&#45;&gt;servant.DestroyEntity</title>
<path fill="none" stroke="black" d="M1162.54,-173.8C1162.54,-162.16 1162.54,-146.55 1162.54,-133.24"/>
<polygon fill="black" stroke="black" points="1166.04,-133.18 1162.54,-123.18 1159.04,-133.18 1166.04,-133.18"/>
<text text-anchor="middle" x="1167.54" y="-144.8" font-family="Times,serif" font-size="14.00">1</text>
</g>
<!-- servant.func_801745E4 -->
<g id="node8" class="node">
<title>servant.func_801745E4</title>
<g id="a_node8"><a xlink:href="servant.func_801745E4.svg" xlink:title="servant.func_801745E4">
<ellipse fill="green" stroke="black" cx="1421.54" cy="-192" rx="120.78" ry="18"/>
<text text-anchor="middle" x="1421.54" y="-188.3" font-family="Times,serif" font-size="14.00">servant.func_801745E4</text>
</a>
</g>
</g>
<!-- servant.func_801745E4&#45;&gt;servant.DestroyEntity -->
<g id="edge7" class="edge">
<title>servant.func_801745E4&#45;&gt;servant.DestroyEntity</title>
<path fill="none" stroke="black" d="M1374.03,-175.41C1330.41,-161.09 1265.68,-139.85 1219.34,-124.64"/>
<polygon fill="black" stroke="black" points="1220.34,-121.28 1209.74,-121.49 1218.15,-127.94 1220.34,-121.28"/>
<text text-anchor="middle" x="1313.54" y="-144.8" font-family="Times,serif" font-size="14.00">1</text>
</g>
<!-- servant.func_80174038 -->
<g id="node9" class="node">
<title>servant.func_80174038</title>
<g id="a_node9"><a xlink:href="servant.func_80174038.svg" xlink:title="servant.func_80174038">
<ellipse fill="green" stroke="black" cx="1680.54" cy="-192" rx="120.48" ry="18"/>
<text text-anchor="middle" x="1680.54" y="-188.3" font-family="Times,serif" font-size="14.00">servant.func_80174038</text>
</a>
</g>
</g>
<!-- servant.func_80174038&#45;&gt;servant.DestroyEntity -->
<g id="edge8" class="edge">
<title>servant.func_80174038&#45;&gt;servant.DestroyEntity</title>
<path fill="none" stroke="black" d="M1602.71,-178.23C1507.69,-162.64 1347.48,-136.35 1248.78,-120.15"/>
<polygon fill="black" stroke="black" points="1249.27,-116.69 1238.84,-118.52 1248.14,-123.59 1249.27,-116.69"/>
<text text-anchor="middle" x="1458.54" y="-144.8" font-family="Times,serif" font-size="14.00">1</text>
</g>
<!-- servant.func_801719E0 -->
<g id="node10" class="node">
<title>servant.func_801719E0</title>
<g id="a_node10"><a xlink:href="servant.func_801719E0.svg" xlink:title="servant.func_801719E0">
<ellipse fill="green" stroke="black" cx="1939.54" cy="-192" rx="120.78" ry="18"/>
<text text-anchor="middle" x="1939.54" y="-188.3" font-family="Times,serif" font-size="14.00">servant.func_801719E0</text>
</a>
</g>
</g>
<!-- servant.func_801719E0&#45;&gt;servant.DestroyEntity -->
<g id="edge9" class="edge">
<title>servant.func_801719E0&#45;&gt;servant.DestroyEntity</title>
<path fill="none" stroke="black" d="M1852.87,-179.36C1838.41,-177.5 1823.55,-175.65 1809.54,-174 1618.56,-151.48 1395.42,-128.84 1267.38,-116.19"/>
<polygon fill="black" stroke="black" points="1267.48,-112.69 1257.18,-115.19 1266.79,-119.65 1267.48,-112.69"/>
<text text-anchor="middle" x="1655.54" y="-144.8" font-family="Times,serif" font-size="14.00">1</text>
</g>
<!-- servant.func_80171ED4 -->
<g id="node11" class="node">
<title>servant.func_80171ED4</title>
<g id="a_node11"><a xlink:href="servant.func_80171ED4.svg" xlink:title="servant.func_80171ED4">
<ellipse fill="green" stroke="black" cx="2200.54" cy="-192" rx="122.38" ry="18"/>
<text text-anchor="middle" x="2200.54" y="-188.3" font-family="Times,serif" font-size="14.00">servant.func_80171ED4</text>
</a>
</g>
</g>
<!-- servant.func_80171ED4&#45;&gt;servant.DestroyEntity -->
<g id="edge10" class="edge">
<title>servant.func_80171ED4&#45;&gt;servant.DestroyEntity</title>
<path fill="none" stroke="black" d="M2114.29,-179.21C2099.38,-177.35 2084.02,-175.53 2069.54,-174 1786.05,-144.07 1451.34,-122.54 1278.63,-112.44"/>
<polygon fill="black" stroke="black" points="1278.69,-108.94 1268.5,-111.85 1278.28,-115.93 1278.69,-108.94"/>
<text text-anchor="middle" x="1876.54" y="-144.8" font-family="Times,serif" font-size="14.00">1</text>
</g>
</g>
</svg>
