<?xml version="1.0" encoding="UTF-8" standalone="no"?>
<!DOCTYPE svg PUBLIC "-//W3C//DTD SVG 1.1//EN"
 "http://www.w3.org/Graphics/SVG/1.1/DTD/svg11.dtd">
<!-- Generated by graphviz version 2.43.0 (0)
 -->
<!-- Title: servant.func_80172C30 Pages: 1 -->
<svg width="3092pt" height="224pt"
 viewBox="0.00 0.00 3091.58 224.00" xmlns="http://www.w3.org/2000/svg" xmlns:xlink="http://www.w3.org/1999/xlink">
<g id="graph0" class="graph" transform="scale(1 1) rotate(0) translate(4 220)">
<title>servant.func_80172C30</title>
<polygon fill="white" stroke="transparent" points="-4,4 -4,-220 3087.58,-220 3087.58,4 -4,4"/>
<!-- servant.func_80172C30 -->
<g id="node1" class="node">
<title>servant.func_80172C30</title>
<ellipse fill="red" stroke="black" cx="1281.34" cy="-198" rx="120.78" ry="18"/>
<text text-anchor="middle" x="1281.34" y="-194.3" font-family="Times,serif" font-size="14.00">servant.func_80172C30</text>
</g>
<!-- SquareRoot12 -->
<g id="node2" class="node">
<title>SquareRoot12</title>
<g id="a_node2"><a xlink:href="SquareRoot12.svg" xlink:title="SquareRoot12">
<ellipse fill="lightblue" stroke="black" cx="77.34" cy="-18" rx="77.19" ry="18"/>
<text text-anchor="middle" x="77.34" y="-14.3" font-family="Times,serif" font-size="14.00">SquareRoot12</text>
</a>
</g>
</g>
<!-- servant.func_80172C30&#45;&gt;SquareRoot12 -->
<g id="edge1" class="edge">
<title>servant.func_80172C30&#45;&gt;SquareRoot12</title>
<path fill="none" stroke="black" d="M1192.42,-185.71C1002.95,-161.33 545.61,-100.69 164.34,-36 157.72,-34.88 150.82,-33.64 143.94,-32.36"/>
<polygon fill="black" stroke="black" points="144.37,-28.88 133.9,-30.47 143.08,-35.76 144.37,-28.88"/>
<text text-anchor="middle" x="128.9" y="-34.27" font-family="Times,serif" font-size="14.00">1</text>
</g>
<!-- dra.PlaySfx -->
<g id="node3" class="node">
<title>dra.PlaySfx</title>
<g id="a_node3"><a xlink:href="dra.PlaySfx.svg" xlink:title="dra.PlaySfx">
<ellipse fill="green" stroke="black" cx="237.34" cy="-18" rx="64.19" ry="18"/>
<text text-anchor="middle" x="237.34" y="-14.3" font-family="Times,serif" font-size="14.00">dra.PlaySfx</text>
</a>
</g>
</g>
<!-- servant.func_80172C30&#45;&gt;dra.PlaySfx -->
<g id="edge2" class="edge">
<title>servant.func_80172C30&#45;&gt;dra.PlaySfx</title>
<path fill="none" stroke="black" d="M1197.56,-184.97C1028.97,-160.35 636.93,-101.03 310.34,-36 305.08,-34.95 299.62,-33.8 294.15,-32.61"/>
<polygon fill="black" stroke="black" points="294.89,-29.18 284.37,-30.42 293.37,-36.02 294.89,-29.18"/>
<text text-anchor="middle" x="279.37" y="-34.22" font-family="Times,serif" font-size="14.00">1</text>
</g>
<!-- dra.UpdateAnim -->
<g id="node4" class="node">
<title>dra.UpdateAnim</title>
<g id="a_node4"><a xlink:href="dra.UpdateAnim.svg" xlink:title="dra.UpdateAnim">
<ellipse fill="green" stroke="black" cx="406.34" cy="-18" rx="87.18" ry="18"/>
<text text-anchor="middle" x="406.34" y="-14.3" font-family="Times,serif" font-size="14.00">dra.UpdateAnim</text>
</a>
</g>
</g>
<!-- servant.func_80172C30&#45;&gt;dra.UpdateAnim -->
<g id="edge3" class="edge">
<title>servant.func_80172C30&#45;&gt;dra.UpdateAnim</title>
<path fill="none" stroke="black" d="M1213.05,-183.11C1050.15,-149.97 640.16,-66.57 475.95,-33.16"/>
<polygon fill="black" stroke="black" points="476.46,-29.69 465.96,-31.13 475.06,-36.55 476.46,-29.69"/>
<text text-anchor="middle" x="460.96" y="-34.93" font-family="Times,serif" font-size="14.00">1</text>
</g>
<!-- dra.func_8011A3AC -->
<g id="node5" class="node">
<title>dra.func_8011A3AC</title>
<g id="a_node5"><a xlink:href="dra.func_8011A3AC.svg" xlink:title="dra.func_8011A3AC">
<ellipse fill="green" stroke="black" cx="614.34" cy="-18" rx="102.88" ry="18"/>
<text text-anchor="middle" x="614.34" y="-14.3" font-family="Times,serif" font-size="14.00">dra.func_8011A3AC</text>
</a>
</g>
</g>
<!-- servant.func_80172C30&#45;&gt;dra.func_8011A3AC -->
<g id="edge4" class="edge">
<title>servant.func_80172C30&#45;&gt;dra.func_8011A3AC</title>
<path fill="none" stroke="black" d="M1225.05,-181.98C1101.69,-149.06 808.21,-70.74 678.21,-36.04"/>
<polygon fill="black" stroke="black" points="678.95,-32.62 668.38,-33.42 677.14,-39.38 678.95,-32.62"/>
<text text-anchor="middle" x="663.38" y="-37.22" font-family="Times,serif" font-size="14.00">1</text>
</g>
<!-- dra.func_8011AAFC -->
<g id="node6" class="node">
<title>dra.func_8011AAFC</title>
<g id="a_node6"><a xlink:href="dra.func_8011AAFC.svg" xlink:title="dra.func_8011AAFC">
<ellipse fill="green" stroke="black" cx="837.34" cy="-18" rx="102.88" ry="18"/>
<text text-anchor="middle" x="837.34" y="-14.3" font-family="Times,serif" font-size="14.00">dra.func_8011AAFC</text>
</a>
</g>
</g>
<!-- servant.func_80172C30&#45;&gt;dra.func_8011AAFC -->
<g id="edge5" class="edge">
<title>servant.func_80172C30&#45;&gt;dra.func_8011AAFC</title>
<path fill="none" stroke="black" d="M1241.16,-180.89C1159.47,-148.14 974.33,-73.92 886,-38.51"/>
<polygon fill="black" stroke="black" points="887.07,-35.16 876.48,-34.69 884.46,-41.66 887.07,-35.16"/>
<text text-anchor="middle" x="871.48" y="-38.49" font-family="Times,serif" font-size="14.00">1</text>
</g>
<!-- rand -->
<g id="node7" class="node">
<title>rand</title>
<g id="a_node7"><a xlink:href="rand.svg" xlink:title="rand">
<ellipse fill="lightblue" stroke="black" cx="990.34" cy="-18" rx="32.49" ry="18"/>
<text text-anchor="middle" x="990.34" y="-14.3" font-family="Times,serif" font-size="14.00">rand</text>
</a>
</g>
</g>
<!-- servant.func_80172C30&#45;&gt;rand -->
<g id="edge6" class="edge">
<title>servant.func_80172C30&#45;&gt;rand</title>
<path fill="none" stroke="black" d="M1254.23,-180.41C1199.7,-147.06 1077.13,-72.09 1020.31,-37.33"/>
<polygon fill="black" stroke="black" points="1021.81,-34.15 1011.46,-31.92 1018.16,-40.12 1021.81,-34.15"/>
<text text-anchor="middle" x="1006.46" y="-35.72" font-family="Times,serif" font-size="14.00">1</text>
</g>
<!-- servant.DestroyEntity -->
<g id="node8" class="node">
<title>servant.DestroyEntity</title>
<g id="a_node8"><a xlink:href="servant.DestroyEntity.svg" xlink:title="servant.DestroyEntity">
<ellipse fill="green" stroke="black" cx="1155.34" cy="-18" rx="114.28" ry="18"/>
<text text-anchor="middle" x="1155.34" y="-14.3" font-family="Times,serif" font-size="14.00">servant.DestroyEntity</text>
</a>
</g>
</g>
<!-- servant.func_80172C30&#45;&gt;servant.DestroyEntity -->
<g id="edge7" class="edge">
<title>servant.func_80172C30&#45;&gt;servant.DestroyEntity</title>
<path fill="none" stroke="black" d="M1269.26,-179.93C1246.97,-148.43 1199.25,-81.03 1173.21,-44.24"/>
<polygon fill="black" stroke="black" points="1176.02,-42.16 1167.39,-36.02 1170.31,-46.2 1176.02,-42.16"/>
<text text-anchor="middle" x="1162.39" y="-39.82" font-family="Times,serif" font-size="14.00">1</text>
</g>
<!-- servant.func_801710E8 -->
<g id="node9" class="node">
<title>servant.func_801710E8</title>
<g id="a_node9"><a xlink:href="servant.func_801710E8.svg" xlink:title="servant.func_801710E8">
<ellipse fill="green" stroke="black" cx="1408.34" cy="-18" rx="120.78" ry="18"/>
<text text-anchor="middle" x="1408.34" y="-14.3" font-family="Times,serif" font-size="14.00">servant.func_801710E8</text>
</a>
</g>
</g>
<!-- servant.func_80172C30&#45;&gt;servant.func_801710E8 -->
<g id="edge8" class="edge">
<title>servant.func_80172C30&#45;&gt;servant.func_801710E8</title>
<path fill="none" stroke="black" d="M1293.52,-179.93C1315.99,-148.43 1364.08,-81.03 1390.33,-44.24"/>
<polygon fill="black" stroke="black" points="1393.24,-46.19 1396.2,-36.02 1387.55,-42.12 1393.24,-46.19"/>
<text text-anchor="middle" x="1391.2" y="-39.82" font-family="Times,serif" font-size="14.00">3</text>
</g>
<!-- servant.func_80171560 -->
<g id="node10" class="node">
<title>servant.func_80171560</title>
<g id="a_node10"><a xlink:href="servant.func_80171560.svg" xlink:title="servant.func_80171560">
<ellipse fill="green" stroke="black" cx="1667.34" cy="-18" rx="120.48" ry="18"/>
<text text-anchor="middle" x="1667.34" y="-14.3" font-family="Times,serif" font-size="14.00">servant.func_80171560</text>
</a>
</g>
</g>
<!-- servant.func_80172C30&#45;&gt;servant.func_80171560 -->
<g id="edge9" class="edge">
<title>servant.func_80172C30&#45;&gt;servant.func_80171560</title>
<path fill="none" stroke="black" d="M1316.62,-180.73C1387.03,-148.26 1544.88,-75.47 1622.5,-39.68"/>
<polygon fill="black" stroke="black" points="1624.39,-42.66 1632.01,-35.29 1621.46,-36.3 1624.39,-42.66"/>
<text text-anchor="middle" x="1627.01" y="-39.09" font-family="Times,serif" font-size="14.00">1</text>
</g>
<!-- servant.func_8017160C -->
<g id="node11" class="node">
<title>servant.func_8017160C</title>
<g id="a_node11"><a xlink:href="servant.func_8017160C.svg" xlink:title="servant.func_8017160C">
<ellipse fill="green" stroke="black" cx="1926.34" cy="-18" rx="120.78" ry="18"/>
<text text-anchor="middle" x="1926.34" y="-14.3" font-family="Times,serif" font-size="14.00">servant.func_8017160C</text>
</a>
</g>
</g>
<!-- servant.func_80172C30&#45;&gt;servant.func_8017160C -->
<g id="edge10" class="edge">
<title>servant.func_80172C30&#45;&gt;servant.func_8017160C</title>
<path fill="none" stroke="black" d="M1336.06,-181.9C1454.52,-149.21 1734.3,-72 1861.44,-36.91"/>
<polygon fill="black" stroke="black" points="1862.72,-40.19 1871.43,-34.15 1860.86,-33.44 1862.72,-40.19"/>
<text text-anchor="middle" x="1866.43" y="-37.95" font-family="Times,serif" font-size="14.00">1</text>
</g>
<!-- servant.func_8017170C -->
<g id="node12" class="node">
<title>servant.func_8017170C</title>
<g id="a_node12"><a xlink:href="servant.func_8017170C.svg" xlink:title="servant.func_8017170C">
<ellipse fill="green" stroke="black" cx="2186.34" cy="-18" rx="120.78" ry="18"/>
<text text-anchor="middle" x="2186.34" y="-14.3" font-family="Times,serif" font-size="14.00">servant.func_8017170C</text>
</a>
</g>
</g>
<!-- servant.func_80172C30&#45;&gt;servant.func_8017170C -->
<g id="edge11" class="edge">
<title>servant.func_80172C30&#45;&gt;servant.func_8017170C</title>
<path fill="none" stroke="black" d="M1351.23,-183.25C1516.66,-150.72 1931.43,-69.14 2106.44,-34.72"/>
<polygon fill="black" stroke="black" points="2107.22,-38.13 2116.36,-32.76 2105.87,-31.26 2107.22,-38.13"/>
<text text-anchor="middle" x="2111.36" y="-36.56" font-family="Times,serif" font-size="14.00">2</text>
</g>
<!-- servant.func_801719E0 -->
<g id="node13" class="node">
<title>servant.func_801719E0</title>
<g id="a_node13"><a xlink:href="servant.func_801719E0.svg" xlink:title="servant.func_801719E0">
<ellipse fill="green" stroke="black" cx="2446.34" cy="-18" rx="120.78" ry="18"/>
<text text-anchor="middle" x="2446.34" y="-14.3" font-family="Times,serif" font-size="14.00">servant.func_801719E0</text>
</a>
</g>
</g>
<!-- servant.func_80172C30&#45;&gt;servant.func_801719E0 -->
<g id="edge12" class="edge">
<title>servant.func_80172C30&#45;&gt;servant.func_801719E0</title>
<path fill="none" stroke="black" d="M1362.34,-184.62C1572.48,-152.52 2134.13,-66.7 2355.16,-32.93"/>
<polygon fill="black" stroke="black" points="2355.75,-36.38 2365.11,-31.41 2354.7,-29.46 2355.75,-36.38"/>
<text text-anchor="middle" x="2360.11" y="-35.21" font-family="Times,serif" font-size="14.00">1</text>
</g>
<!-- servant.func_80174210 -->
<g id="node14" class="node">
<title>servant.func_80174210</title>
<g id="a_node14"><a xlink:href="servant.func_80174210.svg" xlink:title="servant.func_80174210">
<ellipse fill="red" stroke="black" cx="2705.34" cy="-18" rx="120.48" ry="18"/>
<text text-anchor="middle" x="2705.34" y="-14.3" font-family="Times,serif" font-size="14.00">servant.func_80174210</text>
</a>
</g>
</g>
<!-- servant.func_80172C30&#45;&gt;servant.func_80174210 -->
<g id="edge13" class="edge">
<title>servant.func_80172C30&#45;&gt;servant.func_80174210</title>
<path fill="none" stroke="black" d="M1371.65,-186C1582.58,-160.27 2124.09,-93.91 2576.34,-36 2586.81,-34.66 2597.75,-33.24 2608.64,-31.82"/>
<polygon fill="black" stroke="black" points="2609.15,-35.28 2618.62,-30.52 2608.25,-28.34 2609.15,-35.28"/>
<text text-anchor="middle" x="2613.62" y="-34.32" font-family="Times,serif" font-size="14.00">1</text>
</g>
<!-- servant.func_801746A0 -->
<g id="node15" class="node">
<title>servant.func_801746A0</title>
<g id="a_node15"><a xlink:href="servant.func_801746A0.svg" xlink:title="servant.func_801746A0">
<ellipse fill="green" stroke="black" cx="2963.34" cy="-18" rx="120.48" ry="18"/>
<text text-anchor="middle" x="2963.34" y="-14.3" font-family="Times,serif" font-size="14.00">servant.func_801746A0</text>
</a>
</g>
</g>
<!-- servant.func_80172C30&#45;&gt;servant.func_801746A0 -->
<g id="edge14" class="edge">
<title>servant.func_80172C30&#45;&gt;servant.func_801746A0</title>
<path fill="none" stroke="black" d="M1380.47,-187.69C1626.69,-164.34 2285.84,-100.56 2834.34,-36 2844.99,-34.75 2856.13,-33.37 2867.2,-31.97"/>
<polygon fill="black" stroke="black" points="2867.87,-35.41 2877.34,-30.67 2866.98,-28.47 2867.87,-35.41"/>
<text text-anchor="middle" x="2872.34" y="-34.47" font-family="Times,serif" font-size="14.00">1</text>
</g>
</g>
</svg>
