<?xml version="1.0" encoding="UTF-8" standalone="no"?>
<!DOCTYPE svg PUBLIC "-//W3C//DTD SVG 1.1//EN"
 "http://www.w3.org/Graphics/SVG/1.1/DTD/svg11.dtd">
<!-- Generated by graphviz version 2.43.0 (0)
 -->
<!-- Title: servant.func_80172120 Pages: 1 -->
<svg width="4024pt" height="131pt"
 viewBox="0.00 0.00 4024.28 131.00" xmlns="http://www.w3.org/2000/svg" xmlns:xlink="http://www.w3.org/1999/xlink">
<g id="graph0" class="graph" transform="scale(1 1) rotate(0) translate(4 127)">
<title>servant.func_80172120</title>
<polygon fill="white" stroke="transparent" points="-4,4 -4,-127 4020.28,-127 4020.28,4 -4,4"/>
<!-- servant.func_80172120 -->
<g id="node1" class="node">
<title>servant.func_80172120</title>
<ellipse fill="red" stroke="black" cx="1835.69" cy="-105" rx="120.48" ry="18"/>
<text text-anchor="middle" x="1835.69" y="-101.3" font-family="Times,serif" font-size="14.00">servant.func_80172120</text>
</g>
<!-- dra.func_8011A3AC -->
<g id="node2" class="node">
<title>dra.func_8011A3AC</title>
<g id="a_node2"><a xlink:href="dra.func_8011A3AC.svg" xlink:title="dra.func_8011A3AC">
<ellipse fill="green" stroke="black" cx="102.69" cy="-18" rx="102.88" ry="18"/>
<text text-anchor="middle" x="102.69" y="-14.3" font-family="Times,serif" font-size="14.00">dra.func_8011A3AC</text>
</a>
</g>
</g>
<!-- servant.func_80172120&#45;&gt;dra.func_8011A3AC -->
<g id="edge1" class="edge">
<title>servant.func_80172120&#45;&gt;dra.func_8011A3AC</title>
<path fill="none" stroke="black" d="M1715.12,-104.57C1479.78,-104.87 942.84,-101.51 492.69,-69 386.32,-61.32 264.52,-44.39 185.75,-32.36"/>
<polygon fill="black" stroke="black" points="185.82,-28.83 175.41,-30.77 184.76,-35.75 185.82,-28.83"/>
<text text-anchor="middle" x="497.69" y="-57.8" font-family="Times,serif" font-size="14.00">2</text>
</g>
<!-- servant.func_80174864 -->
<g id="node3" class="node">
<title>servant.func_80174864</title>
<g id="a_node3"><a xlink:href="servant.func_80174864.svg" xlink:title="servant.func_80174864">
<ellipse fill="green" stroke="black" cx="343.69" cy="-18" rx="120.48" ry="18"/>
<text text-anchor="middle" x="343.69" y="-14.3" font-family="Times,serif" font-size="14.00">servant.func_80174864</text>
</a>
</g>
</g>
<!-- servant.func_80172120&#45;&gt;servant.func_80174864 -->
<g id="edge2" class="edge">
<title>servant.func_80172120&#45;&gt;servant.func_80174864</title>
<path fill="none" stroke="black" d="M1716.07,-103.15C1449.18,-100.84 811.78,-92.93 597.69,-69 534.67,-61.96 463.96,-47.49 413.18,-35.92"/>
<polygon fill="black" stroke="black" points="413.83,-32.48 403.3,-33.65 412.26,-39.3 413.83,-32.48"/>
<text text-anchor="middle" x="602.69" y="-57.8" font-family="Times,serif" font-size="14.00">1</text>
</g>
<!-- rcos -->
<g id="node4" class="node">
<title>rcos</title>
<g id="a_node4"><a xlink:href="rcos.svg" xlink:title="rcos">
<ellipse fill="lightblue" stroke="black" cx="512.69" cy="-18" rx="30.59" ry="18"/>
<text text-anchor="middle" x="512.69" y="-14.3" font-family="Times,serif" font-size="14.00">rcos</text>
</a>
</g>
</g>
<!-- servant.func_80172120&#45;&gt;rcos -->
<g id="edge3" class="edge">
<title>servant.func_80172120&#45;&gt;rcos</title>
<path fill="none" stroke="black" d="M1715.86,-103.22C1464.96,-101.11 891.57,-93.66 697.69,-69 631.7,-60.61 614.91,-56.72 551.69,-36 549.58,-35.31 547.43,-34.55 545.27,-33.74"/>
<polygon fill="black" stroke="black" points="546.51,-30.46 535.92,-29.98 543.9,-36.96 546.51,-30.46"/>
<text text-anchor="middle" x="702.69" y="-57.8" font-family="Times,serif" font-size="14.00">7</text>
</g>
<!-- rsin -->
<g id="node5" class="node">
<title>rsin</title>
<g id="a_node5"><a xlink:href="rsin.svg" xlink:title="rsin">
<ellipse fill="lightblue" stroke="black" cx="589.69" cy="-18" rx="28.7" ry="18"/>
<text text-anchor="middle" x="589.69" y="-14.3" font-family="Times,serif" font-size="14.00">rsin</text>
</a>
</g>
</g>
<!-- servant.func_80172120&#45;&gt;rsin -->
<g id="edge4" class="edge">
<title>servant.func_80172120&#45;&gt;rsin</title>
<path fill="none" stroke="black" d="M1720.84,-99.61C1572.81,-93.74 1307.46,-82.5 1080.69,-69 878.74,-56.98 822.63,-86.37 626.69,-36 624.52,-35.44 622.32,-34.76 620.13,-34"/>
<polygon fill="black" stroke="black" points="621.32,-30.7 610.73,-30.24 618.72,-37.2 621.32,-30.7"/>
<text text-anchor="middle" x="1085.69" y="-57.8" font-family="Times,serif" font-size="14.00">7</text>
</g>
<!-- servant.func_801719E0 -->
<g id="node6" class="node">
<title>servant.func_801719E0</title>
<g id="a_node6"><a xlink:href="servant.func_801719E0.svg" xlink:title="servant.func_801719E0">
<ellipse fill="green" stroke="black" cx="756.69" cy="-18" rx="120.78" ry="18"/>
<text text-anchor="middle" x="756.69" y="-14.3" font-family="Times,serif" font-size="14.00">servant.func_801719E0</text>
</a>
</g>
</g>
<!-- servant.func_80172120&#45;&gt;servant.func_801719E0 -->
<g id="edge5" class="edge">
<title>servant.func_80172120&#45;&gt;servant.func_801719E0</title>
<path fill="none" stroke="black" d="M1723.72,-98.39C1546,-88.94 1188.55,-67.72 886.69,-36 875.49,-34.82 863.75,-33.46 852.12,-32.04"/>
<polygon fill="black" stroke="black" points="852.29,-28.53 841.93,-30.77 851.42,-35.48 852.29,-28.53"/>
<text text-anchor="middle" x="1256.69" y="-57.8" font-family="Times,serif" font-size="14.00">1</text>
</g>
<!-- servant.func_80173F30 -->
<g id="node7" class="node">
<title>servant.func_80173F30</title>
<g id="a_node7"><a xlink:href="servant.func_80173F30.svg" xlink:title="servant.func_80173F30">
<ellipse fill="green" stroke="black" cx="1015.69" cy="-18" rx="120.48" ry="18"/>
<text text-anchor="middle" x="1015.69" y="-14.3" font-family="Times,serif" font-size="14.00">servant.func_80173F30</text>
</a>
</g>
</g>
<!-- servant.func_80172120&#45;&gt;servant.func_80173F30 -->
<g id="edge6" class="edge">
<title>servant.func_80172120&#45;&gt;servant.func_80173F30</title>
<path fill="none" stroke="black" d="M1734.88,-95.13C1600.21,-83.04 1354.26,-60.11 1144.69,-36 1133.95,-34.76 1122.72,-33.4 1111.56,-31.99"/>
<polygon fill="black" stroke="black" points="1111.7,-28.48 1101.34,-30.69 1110.82,-35.42 1111.7,-28.48"/>
<text text-anchor="middle" x="1453.69" y="-57.8" font-family="Times,serif" font-size="14.00">3</text>
</g>
<!-- servant.func_80173F74 -->
<g id="node8" class="node">
<title>servant.func_80173F74</title>
<g id="a_node8"><a xlink:href="servant.func_80173F74.svg" xlink:title="servant.func_80173F74">
<ellipse fill="green" stroke="black" cx="1273.69" cy="-18" rx="120.48" ry="18"/>
<text text-anchor="middle" x="1273.69" y="-14.3" font-family="Times,serif" font-size="14.00">servant.func_80173F74</text>
</a>
</g>
</g>
<!-- servant.func_80172120&#45;&gt;servant.func_80173F74 -->
<g id="edge7" class="edge">
<title>servant.func_80172120&#45;&gt;servant.func_80173F74</title>
<path fill="none" stroke="black" d="M1754.27,-91.69C1650.88,-76.05 1472.97,-49.14 1365.05,-32.82"/>
<polygon fill="black" stroke="black" points="1365.56,-29.35 1355.15,-31.32 1364.51,-36.28 1365.56,-29.35"/>
<text text-anchor="middle" x="1593.69" y="-57.8" font-family="Times,serif" font-size="14.00">3</text>
</g>
<!-- SquareRoot12 -->
<g id="node9" class="node">
<title>SquareRoot12</title>
<g id="a_node9"><a xlink:href="SquareRoot12.svg" xlink:title="SquareRoot12">
<ellipse fill="lightblue" stroke="black" cx="1489.69" cy="-18" rx="77.19" ry="18"/>
<text text-anchor="middle" x="1489.69" y="-14.3" font-family="Times,serif" font-size="14.00">SquareRoot12</text>
</a>
</g>
</g>
<!-- servant.func_80172120&#45;&gt;SquareRoot12 -->
<g id="edge8" class="edge">
<title>servant.func_80172120&#45;&gt;SquareRoot12</title>
<path fill="none" stroke="black" d="M1775.82,-89.29C1712.84,-73.82 1614.26,-49.6 1550.82,-34.02"/>
<polygon fill="black" stroke="black" points="1551.5,-30.58 1540.95,-31.59 1549.82,-37.38 1551.5,-30.58"/>
<text text-anchor="middle" x="1688.69" y="-57.8" font-family="Times,serif" font-size="14.00">3</text>
</g>
<!-- servant.func_801710E8 -->
<g id="node10" class="node">
<title>servant.func_801710E8</title>
<g id="a_node10"><a xlink:href="servant.func_801710E8.svg" xlink:title="servant.func_801710E8">
<ellipse fill="green" stroke="black" cx="1705.69" cy="-18" rx="120.78" ry="18"/>
<text text-anchor="middle" x="1705.69" y="-14.3" font-family="Times,serif" font-size="14.00">servant.func_801710E8</text>
</a>
</g>
</g>
<!-- servant.func_80172120&#45;&gt;servant.func_801710E8 -->
<g id="edge9" class="edge">
<title>servant.func_80172120&#45;&gt;servant.func_801710E8</title>
<path fill="none" stroke="black" d="M1810.01,-87.21C1789.89,-74.05 1761.72,-55.63 1739.72,-41.25"/>
<polygon fill="black" stroke="black" points="1741.61,-38.3 1731.32,-35.76 1737.78,-44.16 1741.61,-38.3"/>
<text text-anchor="middle" x="1783.69" y="-57.8" font-family="Times,serif" font-size="14.00">4</text>
</g>
<!-- servant.func_8017110C -->
<g id="node11" class="node">
<title>servant.func_8017110C</title>
<g id="a_node11"><a xlink:href="servant.func_8017110C.svg" xlink:title="servant.func_8017110C">
<ellipse fill="green" stroke="black" cx="1965.69" cy="-18" rx="120.78" ry="18"/>
<text text-anchor="middle" x="1965.69" y="-14.3" font-family="Times,serif" font-size="14.00">servant.func_8017110C</text>
</a>
</g>
</g>
<!-- servant.func_80172120&#45;&gt;servant.func_8017110C -->
<g id="edge10" class="edge">
<title>servant.func_80172120&#45;&gt;servant.func_8017110C</title>
<path fill="none" stroke="black" d="M1861.37,-87.21C1881.49,-74.05 1909.67,-55.63 1931.66,-41.25"/>
<polygon fill="black" stroke="black" points="1933.61,-44.16 1940.06,-35.76 1929.78,-38.3 1933.61,-44.16"/>
<text text-anchor="middle" x="1913.69" y="-57.8" font-family="Times,serif" font-size="14.00">1</text>
</g>
<!-- dra.PlaySfx -->
<g id="node12" class="node">
<title>dra.PlaySfx</title>
<g id="a_node12"><a xlink:href="dra.PlaySfx.svg" xlink:title="dra.PlaySfx">
<ellipse fill="green" stroke="black" cx="2168.69" cy="-18" rx="64.19" ry="18"/>
<text text-anchor="middle" x="2168.69" y="-14.3" font-family="Times,serif" font-size="14.00">dra.PlaySfx</text>
</a>
</g>
</g>
<!-- servant.func_80172120&#45;&gt;dra.PlaySfx -->
<g id="edge11" class="edge">
<title>servant.func_80172120&#45;&gt;dra.PlaySfx</title>
<path fill="none" stroke="black" d="M1893.7,-89.19C1955.39,-73.45 2052.28,-48.72 2113.05,-33.2"/>
<polygon fill="black" stroke="black" points="2114.03,-36.57 2122.85,-30.7 2112.3,-29.78 2114.03,-36.57"/>
<text text-anchor="middle" x="2027.69" y="-57.8" font-family="Times,serif" font-size="14.00">2</text>
</g>
<!-- servant.func_8017170C -->
<g id="node13" class="node">
<title>servant.func_8017170C</title>
<g id="a_node13"><a xlink:href="servant.func_8017170C.svg" xlink:title="servant.func_8017170C">
<ellipse fill="green" stroke="black" cx="2371.69" cy="-18" rx="120.78" ry="18"/>
<text text-anchor="middle" x="2371.69" y="-14.3" font-family="Times,serif" font-size="14.00">servant.func_8017170C</text>
</a>
</g>
</g>
<!-- servant.func_80172120&#45;&gt;servant.func_8017170C -->
<g id="edge12" class="edge">
<title>servant.func_80172120&#45;&gt;servant.func_8017170C</title>
<path fill="none" stroke="black" d="M1915.07,-91.41C2013.07,-75.87 2179.33,-49.5 2281.9,-33.24"/>
<polygon fill="black" stroke="black" points="2282.6,-36.67 2291.93,-31.65 2281.51,-29.76 2282.6,-36.67"/>
<text text-anchor="middle" x="2141.69" y="-57.8" font-family="Times,serif" font-size="14.00">4</text>
</g>
<!-- servant.func_80171568 -->
<g id="node14" class="node">
<title>servant.func_80171568</title>
<g id="a_node14"><a xlink:href="servant.func_80171568.svg" xlink:title="servant.func_80171568">
<ellipse fill="green" stroke="black" cx="2630.69" cy="-18" rx="120.48" ry="18"/>
<text text-anchor="middle" x="2630.69" y="-14.3" font-family="Times,serif" font-size="14.00">servant.func_80171568</text>
</a>
</g>
</g>
<!-- servant.func_80172120&#45;&gt;servant.func_80171568 -->
<g id="edge13" class="edge">
<title>servant.func_80172120&#45;&gt;servant.func_80171568</title>
<path fill="none" stroke="black" d="M1934.8,-94.79C2065,-82.49 2300.68,-59.5 2501.69,-36 2512.43,-34.74 2523.66,-33.36 2534.82,-31.95"/>
<polygon fill="black" stroke="black" points="2535.56,-35.38 2545.04,-30.64 2534.68,-28.44 2535.56,-35.38"/>
<text text-anchor="middle" x="2342.69" y="-57.8" font-family="Times,serif" font-size="14.00">1</text>
</g>
<!-- servant.func_801713C8 -->
<g id="node15" class="node">
<title>servant.func_801713C8</title>
<g id="a_node15"><a xlink:href="servant.func_801713C8.svg" xlink:title="servant.func_801713C8">
<ellipse fill="green" stroke="black" cx="2889.69" cy="-18" rx="120.78" ry="18"/>
<text text-anchor="middle" x="2889.69" y="-14.3" font-family="Times,serif" font-size="14.00">servant.func_801713C8</text>
</a>
</g>
</g>
<!-- servant.func_80172120&#45;&gt;servant.func_801713C8 -->
<g id="edge14" class="edge">
<title>servant.func_80172120&#45;&gt;servant.func_801713C8</title>
<path fill="none" stroke="black" d="M1946.84,-98.12C2120.58,-88.4 2466.97,-66.96 2759.69,-36 2770.81,-34.82 2782.44,-33.47 2793.99,-32.06"/>
<polygon fill="black" stroke="black" points="2794.61,-35.51 2804.1,-30.8 2793.74,-28.56 2794.61,-35.51"/>
<text text-anchor="middle" x="2562.69" y="-57.8" font-family="Times,serif" font-size="14.00">1</text>
</g>
<!-- servant.func_801718A0 -->
<g id="node16" class="node">
<title>servant.func_801718A0</title>
<g id="a_node16"><a xlink:href="servant.func_801718A0.svg" xlink:title="servant.func_801718A0">
<ellipse fill="green" stroke="black" cx="3148.69" cy="-18" rx="120.48" ry="18"/>
<text text-anchor="middle" x="3148.69" y="-14.3" font-family="Times,serif" font-size="14.00">servant.func_801718A0</text>
</a>
</g>
</g>
<!-- servant.func_80172120&#45;&gt;servant.func_801718A0 -->
<g id="edge15" class="edge">
<title>servant.func_80172120&#45;&gt;servant.func_801718A0</title>
<path fill="none" stroke="black" d="M1952.77,-100.76C2165.62,-94.1 2630.02,-75.99 3019.69,-36 3030.81,-34.86 3042.46,-33.52 3054.01,-32.11"/>
<polygon fill="black" stroke="black" points="3054.62,-35.56 3064.12,-30.85 3053.76,-28.61 3054.62,-35.56"/>
<text text-anchor="middle" x="2799.69" y="-57.8" font-family="Times,serif" font-size="14.00">1</text>
</g>
<!-- servant.func_80174210 -->
<g id="node17" class="node">
<title>servant.func_80174210</title>
<g id="a_node17"><a xlink:href="servant.func_80174210.svg" xlink:title="servant.func_80174210">
<ellipse fill="red" stroke="black" cx="3406.69" cy="-18" rx="120.48" ry="18"/>
<text text-anchor="middle" x="3406.69" y="-14.3" font-family="Times,serif" font-size="14.00">servant.func_80174210</text>
</a>
</g>
</g>
<!-- servant.func_80172120&#45;&gt;servant.func_80174210 -->
<g id="edge16" class="edge">
<title>servant.func_80172120&#45;&gt;servant.func_80174210</title>
<path fill="none" stroke="black" d="M1955.18,-102.68C2202.57,-99.01 2788.64,-85.38 3277.69,-36 3288.9,-34.87 3300.64,-33.53 3312.28,-32.11"/>
<polygon fill="black" stroke="black" points="3312.97,-35.55 3322.47,-30.85 3312.11,-28.61 3312.97,-35.55"/>
<text text-anchor="middle" x="3047.69" y="-57.8" font-family="Times,serif" font-size="14.00">1</text>
</g>
<!-- servant.func_80171560 -->
<g id="node18" class="node">
<title>servant.func_80171560</title>
<g id="a_node18"><a xlink:href="servant.func_80171560.svg" xlink:title="servant.func_80171560">
<ellipse fill="green" stroke="black" cx="3664.69" cy="-18" rx="120.48" ry="18"/>
<text text-anchor="middle" x="3664.69" y="-14.3" font-family="Times,serif" font-size="14.00">servant.func_80171560</text>
</a>
</g>
</g>
<!-- servant.func_80172120&#45;&gt;servant.func_80171560 -->
<g id="edge17" class="edge">
<title>servant.func_80172120&#45;&gt;servant.func_80171560</title>
<path fill="none" stroke="black" d="M1954.48,-102.18C2172.83,-98.47 2652.65,-88.7 3056.69,-69 3269.83,-58.61 3323.36,-57.28 3535.69,-36 3546.9,-34.88 3558.65,-33.54 3570.28,-32.13"/>
<polygon fill="black" stroke="black" points="3570.98,-35.57 3580.47,-30.87 3570.11,-28.62 3570.98,-35.57"/>
<text text-anchor="middle" x="3333.69" y="-57.8" font-family="Times,serif" font-size="14.00">1</text>
</g>
<!-- servant.UpdateAnim -->
<g id="node19" class="node">
<title>servant.UpdateAnim</title>
<g id="a_node19"><a xlink:href="servant.UpdateAnim.svg" xlink:title="servant.UpdateAnim">
<ellipse fill="green" stroke="black" cx="3909.69" cy="-18" rx="106.68" ry="18"/>
<text text-anchor="middle" x="3909.69" y="-14.3" font-family="Times,serif" font-size="14.00">servant.UpdateAnim</text>
</a>
</g>
</g>
<!-- servant.func_80172120&#45;&gt;servant.UpdateAnim -->
<g id="edge18" class="edge">
<title>servant.func_80172120&#45;&gt;servant.UpdateAnim</title>
<path fill="none" stroke="black" d="M1955.42,-103.24C2210.57,-101.19 2826.75,-93.85 3342.69,-69 3543.44,-59.33 3593.91,-57.92 3793.69,-36 3803.73,-34.9 3814.24,-33.58 3824.66,-32.18"/>
<polygon fill="black" stroke="black" points="3825.17,-35.65 3834.6,-30.82 3824.22,-28.71 3825.17,-35.65"/>
<text text-anchor="middle" x="3611.69" y="-57.8" font-family="Times,serif" font-size="14.00">1</text>
</g>
</g>
</svg>
