<?xml version="1.0" encoding="UTF-8" standalone="no"?>
<!DOCTYPE svg PUBLIC "-//W3C//DTD SVG 1.1//EN"
 "http://www.w3.org/Graphics/SVG/1.1/DTD/svg11.dtd">
<!-- Generated by graphviz version 2.43.0 (0)
 -->
<!-- Title: SetGameState Pages: 1 -->
<svg width="1585pt" height="131pt"
 viewBox="0.00 0.00 1584.78 131.00" xmlns="http://www.w3.org/2000/svg" xmlns:xlink="http://www.w3.org/1999/xlink">
<g id="graph0" class="graph" transform="scale(1 1) rotate(0) translate(4 127)">
<title>SetGameState</title>
<polygon fill="white" stroke="transparent" points="-4,4 -4,-127 1580.78,-127 1580.78,4 -4,4"/>
<!-- dra/SetGameState -->
<g id="node1" class="node">
<title>dra/SetGameState</title>
<ellipse fill="green" stroke="black" cx="673.04" cy="-18" rx="96.68" ry="18"/>
<text text-anchor="middle" x="673.04" y="-14.3" font-family="Times,serif" font-size="14.00">dra/SetGameState</text>
</g>
<!-- st0/func_801B0464 -->
<g id="node2" class="node">
<title>st0/func_801B0464</title>
<g id="a_node2"><a xlink:href="func_801B0464.svg" xlink:title="st0/func_801B0464">
<ellipse fill="red" stroke="black" cx="1476.04" cy="-105" rx="100.98" ry="18"/>
<text text-anchor="middle" x="1476.04" y="-101.3" font-family="Times,serif" font-size="14.00">st0/func_801B0464</text>
</a>
</g>
</g>
<!-- st0/SetGameState -->
<g id="node3" class="node">
<title>st0/SetGameState</title>
<ellipse fill="none" stroke="black" cx="1476.04" cy="-18" rx="95.58" ry="18"/>
<text text-anchor="middle" x="1476.04" y="-14.3" font-family="Times,serif" font-size="14.00">st0/SetGameState</text>
</g>
<!-- st0/func_801B0464&#45;&gt;st0/SetGameState -->
<g id="edge1" class="edge">
<title>st0/func_801B0464&#45;&gt;st0/SetGameState</title>
<path fill="none" stroke="black" d="M1476.04,-86.8C1476.04,-75.16 1476.04,-59.55 1476.04,-46.24"/>
<polygon fill="black" stroke="black" points="1479.54,-46.18 1476.04,-36.18 1472.54,-46.18 1479.54,-46.18"/>
<text text-anchor="middle" x="1481.04" y="-57.8" font-family="Times,serif" font-size="14.00">2</text>
</g>
<!-- dra/func_800F298C -->
<g id="node4" class="node">
<title>dra/func_800F298C</title>
<g id="a_node4"><a xlink:href="func_800F298C.svg" xlink:title="dra/func_800F298C">
<ellipse fill="red" stroke="black" cx="102.04" cy="-105" rx="102.08" ry="18"/>
<text text-anchor="middle" x="102.04" y="-101.3" font-family="Times,serif" font-size="14.00">dra/func_800F298C</text>
</a>
</g>
</g>
<!-- dra/func_800F298C&#45;&gt;dra/SetGameState -->
<g id="edge2" class="edge">
<title>dra/func_800F298C&#45;&gt;dra/SetGameState</title>
<path fill="none" stroke="black" d="M176.07,-92.61C188.41,-90.72 201.09,-88.8 213.04,-87 344.43,-67.23 497,-44.77 589.22,-31.26"/>
<polygon fill="black" stroke="black" points="589.94,-34.69 599.33,-29.78 588.93,-27.76 589.94,-34.69"/>
<text text-anchor="middle" x="433.04" y="-57.8" font-family="Times,serif" font-size="14.00">3</text>
</g>
<!-- dra/entrypoint_sotn -->
<g id="node5" class="node">
<title>dra/entrypoint_sotn</title>
<g id="a_node5"><a xlink:href="entrypoint_sotn.svg" xlink:title="dra/entrypoint_sotn">
<ellipse fill="green" stroke="black" cx="325.04" cy="-105" rx="102.88" ry="18"/>
<text text-anchor="middle" x="325.04" y="-101.3" font-family="Times,serif" font-size="14.00">dra/entrypoint_sotn</text>
</a>
</g>
</g>
<!-- dra/entrypoint_sotn&#45;&gt;dra/SetGameState -->
<g id="edge3" class="edge">
<title>dra/entrypoint_sotn&#45;&gt;dra/SetGameState</title>
<path fill="none" stroke="black" d="M382.51,-89.96C444.3,-74.87 542.37,-50.92 607.22,-35.08"/>
<polygon fill="black" stroke="black" points="608.05,-38.48 616.93,-32.7 606.39,-31.68 608.05,-38.48"/>
<text text-anchor="middle" x="525.04" y="-57.8" font-family="Times,serif" font-size="14.00">2</text>
</g>
<!-- dra/HandleGameOver -->
<g id="node6" class="node">
<title>dra/HandleGameOver</title>
<g id="a_node6"><a xlink:href="HandleGameOver.svg" xlink:title="dra/HandleGameOver">
<ellipse fill="red" stroke="black" cx="557.04" cy="-105" rx="111.58" ry="18"/>
<text text-anchor="middle" x="557.04" y="-101.3" font-family="Times,serif" font-size="14.00">dra/HandleGameOver</text>
</a>
</g>
</g>
<!-- dra/HandleGameOver&#45;&gt;dra/SetGameState -->
<g id="edge4" class="edge">
<title>dra/HandleGameOver&#45;&gt;dra/SetGameState</title>
<path fill="none" stroke="black" d="M579.96,-87.21C597.67,-74.23 622.38,-56.12 641.89,-41.83"/>
<polygon fill="black" stroke="black" points="644.17,-44.49 650.17,-35.76 640.04,-38.85 644.17,-44.49"/>
<text text-anchor="middle" x="627.04" y="-57.8" font-family="Times,serif" font-size="14.00">1</text>
</g>
<!-- dra/func_800E4970 -->
<g id="node7" class="node">
<title>dra/func_800E4970</title>
<g id="a_node7"><a xlink:href="func_800E4970.svg" xlink:title="dra/func_800E4970">
<ellipse fill="green" stroke="black" cx="788.04" cy="-105" rx="101.28" ry="18"/>
<text text-anchor="middle" x="788.04" y="-101.3" font-family="Times,serif" font-size="14.00">dra/func_800E4970</text>
</a>
</g>
</g>
<!-- dra/func_800E4970&#45;&gt;dra/SetGameState -->
<g id="edge5" class="edge">
<title>dra/func_800E4970&#45;&gt;dra/SetGameState</title>
<path fill="none" stroke="black" d="M765.59,-87.41C747.94,-74.36 723.17,-56.05 703.69,-41.65"/>
<polygon fill="black" stroke="black" points="705.55,-38.68 695.43,-35.55 701.39,-44.31 705.55,-38.68"/>
<text text-anchor="middle" x="743.04" y="-57.8" font-family="Times,serif" font-size="14.00">1</text>
</g>
<!-- dra/HandleNowLoading -->
<g id="node8" class="node">
<title>dra/HandleNowLoading</title>
<g id="a_node8"><a xlink:href="HandleNowLoading.svg" xlink:title="dra/HandleNowLoading">
<ellipse fill="green" stroke="black" cx="1028.04" cy="-105" rx="120.48" ry="18"/>
<text text-anchor="middle" x="1028.04" y="-101.3" font-family="Times,serif" font-size="14.00">dra/HandleNowLoading</text>
</a>
</g>
</g>
<!-- dra/HandleNowLoading&#45;&gt;dra/SetGameState -->
<g id="edge6" class="edge">
<title>dra/HandleNowLoading&#45;&gt;dra/SetGameState</title>
<path fill="none" stroke="black" d="M967.01,-89.39C903.75,-74.24 805.15,-50.63 739.83,-34.99"/>
<polygon fill="black" stroke="black" points="740.59,-31.57 730.05,-32.65 738.96,-38.38 740.59,-31.57"/>
<text text-anchor="middle" x="877.04" y="-57.8" font-family="Times,serif" font-size="14.00">1</text>
</g>
<!-- dra/HandleEnding -->
<g id="node9" class="node">
<title>dra/HandleEnding</title>
<g id="a_node9"><a xlink:href="HandleEnding.svg" xlink:title="dra/HandleEnding">
<ellipse fill="green" stroke="black" cx="1262.04" cy="-105" rx="95.58" ry="18"/>
<text text-anchor="middle" x="1262.04" y="-101.3" font-family="Times,serif" font-size="14.00">dra/HandleEnding</text>
</a>
</g>
</g>
<!-- dra/HandleEnding&#45;&gt;dra/SetGameState -->
<g id="edge7" class="edge">
<title>dra/HandleEnding&#45;&gt;dra/SetGameState</title>
<path fill="none" stroke="black" d="M1192.6,-92.55C1180.74,-90.65 1168.54,-88.74 1157.04,-87 1018.07,-65.99 856.31,-43.7 759.43,-30.58"/>
<polygon fill="black" stroke="black" points="759.78,-27.1 749.4,-29.22 758.84,-34.03 759.78,-27.1"/>
<text text-anchor="middle" x="1030.04" y="-57.8" font-family="Times,serif" font-size="14.00">1</text>
</g>
</g>
</svg>
