<?xml version="1.0" encoding="UTF-8" standalone="no"?>
<!DOCTYPE svg PUBLIC "-//W3C//DTD SVG 1.1//EN"
 "http://www.w3.org/Graphics/SVG/1.1/DTD/svg11.dtd">
<!-- Generated by graphviz version 2.43.0 (0)
 -->
<!-- Title: st0.TestCollisions Pages: 1 -->
<svg width="2276pt" height="224pt"
 viewBox="0.00 0.00 2276.08 224.00" xmlns="http://www.w3.org/2000/svg" xmlns:xlink="http://www.w3.org/1999/xlink">
<g id="graph0" class="graph" transform="scale(1 1) rotate(0) translate(4 220)">
<title>st0.TestCollisions</title>
<polygon fill="white" stroke="transparent" points="-4,4 -4,-220 2272.08,-220 2272.08,4 -4,4"/>
<!-- st0.TestCollisions -->
<g id="node1" class="node">
<title>st0.TestCollisions</title>
<ellipse fill="red" stroke="black" cx="941.39" cy="-198" rx="92.88" ry="18"/>
<text text-anchor="middle" x="941.39" y="-194.3" font-family="Times,serif" font-size="14.00">st0.TestCollisions</text>
</g>
<!-- dra.DealDamage -->
<g id="node2" class="node">
<title>dra.DealDamage</title>
<g id="a_node2"><a xlink:href="dra.DealDamage.svg" xlink:title="dra.DealDamage">
<ellipse fill="green" stroke="black" cx="88.39" cy="-18" rx="88.28" ry="18"/>
<text text-anchor="middle" x="88.39" y="-14.3" font-family="Times,serif" font-size="14.00">dra.DealDamage</text>
</a>
</g>
</g>
<!-- st0.TestCollisions&#45;&gt;dra.DealDamage -->
<g id="edge1" class="edge">
<title>st0.TestCollisions&#45;&gt;dra.DealDamage</title>
<path fill="none" stroke="black" d="M880.73,-184.34C726.67,-152.19 320.98,-67.54 157.82,-33.49"/>
<polygon fill="black" stroke="black" points="158.4,-30.03 147.89,-31.42 156.97,-36.89 158.4,-30.03"/>
<text text-anchor="middle" x="142.89" y="-35.22" font-family="Times,serif" font-size="14.00">1</text>
</g>
<!-- dra.FreePrimitives -->
<g id="node3" class="node">
<title>dra.FreePrimitives</title>
<g id="a_node3"><a xlink:href="dra.FreePrimitives.svg" xlink:title="dra.FreePrimitives">
<ellipse fill="green" stroke="black" cx="293.39" cy="-18" rx="98.58" ry="18"/>
<text text-anchor="middle" x="293.39" y="-14.3" font-family="Times,serif" font-size="14.00">dra.FreePrimitives</text>
</a>
</g>
</g>
<!-- st0.TestCollisions&#45;&gt;dra.FreePrimitives -->
<g id="edge2" class="edge">
<title>st0.TestCollisions&#45;&gt;dra.FreePrimitives</title>
<path fill="none" stroke="black" d="M890.27,-182.96C772.72,-150.67 483.5,-71.22 355.76,-36.13"/>
<polygon fill="black" stroke="black" points="356.32,-32.65 345.75,-33.38 354.46,-39.4 356.32,-32.65"/>
<text text-anchor="middle" x="340.75" y="-37.18" font-family="Times,serif" font-size="14.00">1</text>
</g>
<!-- dra.PlaySfx -->
<g id="node4" class="node">
<title>dra.PlaySfx</title>
<g id="a_node4"><a xlink:href="dra.PlaySfx.svg" xlink:title="dra.PlaySfx">
<ellipse fill="green" stroke="black" cx="474.39" cy="-18" rx="64.19" ry="18"/>
<text text-anchor="middle" x="474.39" y="-14.3" font-family="Times,serif" font-size="14.00">dra.PlaySfx</text>
</a>
</g>
</g>
<!-- st0.TestCollisions&#45;&gt;dra.PlaySfx -->
<g id="edge3" class="edge">
<title>st0.TestCollisions&#45;&gt;dra.PlaySfx</title>
<path fill="none" stroke="black" d="M901.17,-181.67C814.72,-148.72 611.64,-71.31 520.31,-36.5"/>
<polygon fill="black" stroke="black" points="521.37,-33.16 510.78,-32.87 518.88,-39.7 521.37,-33.16"/>
<text text-anchor="middle" x="505.78" y="-36.67" font-family="Times,serif" font-size="14.00">1</text>
</g>
<!-- dra.func_800FE044 -->
<g id="node5" class="node">
<title>dra.func_800FE044</title>
<g id="a_node5"><a xlink:href="dra.func_800FE044.svg" xlink:title="dra.func_800FE044">
<ellipse fill="green" stroke="black" cx="658.39" cy="-18" rx="102.08" ry="18"/>
<text text-anchor="middle" x="658.39" y="-14.3" font-family="Times,serif" font-size="14.00">dra.func_800FE044</text>
</a>
</g>
</g>
<!-- st0.TestCollisions&#45;&gt;dra.func_800FE044 -->
<g id="edge4" class="edge">
<title>st0.TestCollisions&#45;&gt;dra.func_800FE044</title>
<path fill="none" stroke="black" d="M915.28,-180.57C864.23,-148.47 751.2,-77.37 693.61,-41.15"/>
<polygon fill="black" stroke="black" points="695.19,-38.01 684.86,-35.65 691.46,-43.93 695.19,-38.01"/>
<text text-anchor="middle" x="679.86" y="-39.45" font-family="Times,serif" font-size="14.00">1</text>
</g>
<!-- rand -->
<g id="node6" class="node">
<title>rand</title>
<g id="a_node6"><a xlink:href="rand.svg" xlink:title="rand">
<ellipse fill="lightblue" stroke="black" cx="811.39" cy="-18" rx="32.49" ry="18"/>
<text text-anchor="middle" x="811.39" y="-14.3" font-family="Times,serif" font-size="14.00">rand</text>
</a>
</g>
</g>
<!-- st0.TestCollisions&#45;&gt;rand -->
<g id="edge5" class="edge">
<title>st0.TestCollisions&#45;&gt;rand</title>
<path fill="none" stroke="black" d="M928.93,-179.93C905.69,-148.11 855.69,-79.65 829.01,-43.12"/>
<polygon fill="black" stroke="black" points="831.79,-41 823.07,-34.99 826.14,-45.13 831.79,-41"/>
<text text-anchor="middle" x="818.07" y="-38.79" font-family="Times,serif" font-size="14.00">2</text>
</g>
<!-- st0.AllocEntity -->
<g id="node7" class="node">
<title>st0.AllocEntity</title>
<g id="a_node7"><a xlink:href="st0.AllocEntity.svg" xlink:title="st0.AllocEntity">
<ellipse fill="green" stroke="black" cx="941.39" cy="-18" rx="79.09" ry="18"/>
<text text-anchor="middle" x="941.39" y="-14.3" font-family="Times,serif" font-size="14.00">st0.AllocEntity</text>
</a>
</g>
</g>
<!-- st0.TestCollisions&#45;&gt;st0.AllocEntity -->
<g id="edge6" class="edge">
<title>st0.TestCollisions&#45;&gt;st0.AllocEntity</title>
<path fill="none" stroke="black" d="M941.39,-179.93C941.39,-148.97 941.39,-83.3 941.39,-46.13"/>
<polygon fill="black" stroke="black" points="944.89,-46.02 941.39,-36.02 937.89,-46.02 944.89,-46.02"/>
<text text-anchor="middle" x="936.39" y="-39.82" font-family="Times,serif" font-size="14.00">2</text>
</g>
<!-- st0.CreateEntityFromEntity -->
<g id="node8" class="node">
<title>st0.CreateEntityFromEntity</title>
<g id="a_node8"><a xlink:href="st0.CreateEntityFromEntity.svg" xlink:title="st0.CreateEntityFromEntity">
<ellipse fill="green" stroke="black" cx="1180.39" cy="-18" rx="141.88" ry="18"/>
<text text-anchor="middle" x="1180.39" y="-14.3" font-family="Times,serif" font-size="14.00">st0.CreateEntityFromEntity</text>
</a>
</g>
</g>
<!-- st0.TestCollisions&#45;&gt;st0.CreateEntityFromEntity -->
<g id="edge7" class="edge">
<title>st0.TestCollisions&#45;&gt;st0.CreateEntityFromEntity</title>
<path fill="none" stroke="black" d="M963.88,-180.25C1006.85,-148.25 1100.69,-78.36 1149.51,-42"/>
<polygon fill="black" stroke="black" points="1151.86,-44.61 1157.79,-35.83 1147.68,-39 1151.86,-44.61"/>
<text text-anchor="middle" x="1152.79" y="-39.63" font-family="Times,serif" font-size="14.00">1</text>
</g>
<!-- st0.DestroyEntity -->
<g id="node9" class="node">
<title>st0.DestroyEntity</title>
<g id="a_node9"><a xlink:href="st0.DestroyEntity.svg" xlink:title="st0.DestroyEntity">
<ellipse fill="green" stroke="black" cx="1433.39" cy="-18" rx="93.68" ry="18"/>
<text text-anchor="middle" x="1433.39" y="-14.3" font-family="Times,serif" font-size="14.00">st0.DestroyEntity</text>
</a>
</g>
</g>
<!-- st0.TestCollisions&#45;&gt;st0.DestroyEntity -->
<g id="edge8" class="edge">
<title>st0.TestCollisions&#45;&gt;st0.DestroyEntity</title>
<path fill="none" stroke="black" d="M983.34,-181.82C1073.21,-149.31 1284.07,-73.02 1381.88,-37.64"/>
<polygon fill="black" stroke="black" points="1383.34,-40.83 1391.55,-34.14 1380.96,-34.25 1383.34,-40.83"/>
<text text-anchor="middle" x="1386.55" y="-37.94" font-family="Times,serif" font-size="14.00">1</text>
</g>
<!-- st0.PreventEntityFromRespawning -->
<g id="node10" class="node">
<title>st0.PreventEntityFromRespawning</title>
<g id="a_node10"><a xlink:href="st0.PreventEntityFromRespawning.svg" xlink:title="st0.PreventEntityFromRespawning">
<ellipse fill="green" stroke="black" cx="1719.39" cy="-18" rx="174.67" ry="18"/>
<text text-anchor="middle" x="1719.39" y="-14.3" font-family="Times,serif" font-size="14.00">st0.PreventEntityFromRespawning</text>
</a>
</g>
</g>
<!-- st0.TestCollisions&#45;&gt;st0.PreventEntityFromRespawning -->
<g id="edge9" class="edge">
<title>st0.TestCollisions&#45;&gt;st0.PreventEntityFromRespawning</title>
<path fill="none" stroke="black" d="M998.92,-183.84C1136.51,-152.36 1484.78,-72.68 1641.21,-36.89"/>
<polygon fill="black" stroke="black" points="1642.27,-40.24 1651.23,-34.59 1640.7,-33.41 1642.27,-40.24"/>
<text text-anchor="middle" x="1646.23" y="-38.39" font-family="Times,serif" font-size="14.00">1</text>
</g>
<!-- st0.Random -->
<g id="node11" class="node">
<title>st0.Random</title>
<g id="a_node11"><a xlink:href="st0.Random.svg" xlink:title="st0.Random">
<ellipse fill="green" stroke="black" cx="1978.39" cy="-18" rx="66.09" ry="18"/>
<text text-anchor="middle" x="1978.39" y="-14.3" font-family="Times,serif" font-size="14.00">st0.Random</text>
</a>
</g>
</g>
<!-- st0.TestCollisions&#45;&gt;st0.Random -->
<g id="edge10" class="edge">
<title>st0.TestCollisions&#45;&gt;st0.Random</title>
<path fill="none" stroke="black" d="M1012.85,-186.47C1172.85,-162.58 1571.93,-101.25 1903.39,-36 1908.8,-34.94 1914.41,-33.77 1920.01,-32.57"/>
<polygon fill="black" stroke="black" points="1921.04,-35.93 1930.06,-30.38 1919.55,-29.09 1921.04,-35.93"/>
<text text-anchor="middle" x="1925.06" y="-34.18" font-family="Times,serif" font-size="14.00">2</text>
</g>
<!-- st0.func_801BA7D8 -->
<g id="node12" class="node">
<title>st0.func_801BA7D8</title>
<g id="a_node12"><a xlink:href="st0.func_801BA7D8.svg" xlink:title="st0.func_801BA7D8">
<ellipse fill="red" stroke="black" cx="2165.39" cy="-18" rx="102.88" ry="18"/>
<text text-anchor="middle" x="2165.39" y="-14.3" font-family="Times,serif" font-size="14.00">st0.func_801BA7D8</text>
</a>
</g>
</g>
<!-- st0.TestCollisions&#45;&gt;st0.func_801BA7D8 -->
<g id="edge11" class="edge">
<title>st0.TestCollisions&#45;&gt;st0.func_801BA7D8</title>
<path fill="none" stroke="black" d="M1013.95,-186.67C1191.4,-161.37 1661.44,-94.12 2053.39,-36 2062.25,-34.69 2071.5,-33.3 2080.72,-31.91"/>
<polygon fill="black" stroke="black" points="2081.33,-35.36 2090.7,-30.41 2080.29,-28.44 2081.33,-35.36"/>
<text text-anchor="middle" x="2085.7" y="-34.21" font-family="Times,serif" font-size="14.00">1</text>
</g>
</g>
</svg>
