<?xml version="1.0" encoding="UTF-8" standalone="no"?>
<!DOCTYPE svg PUBLIC "-//W3C//DTD SVG 1.1//EN"
 "http://www.w3.org/Graphics/SVG/1.1/DTD/svg11.dtd">
<!-- Generated by graphviz version 2.43.0 (0)
 -->
<!-- Title: st0.EntityDraculaGlass Pages: 1 -->
<svg width="1879pt" height="131pt"
 viewBox="0.00 0.00 1879.08 131.00" xmlns="http://www.w3.org/2000/svg" xmlns:xlink="http://www.w3.org/1999/xlink">
<g id="graph0" class="graph" transform="scale(1 1) rotate(0) translate(4 127)">
<title>st0.EntityDraculaGlass</title>
<polygon fill="white" stroke="transparent" points="-4,4 -4,-127 1875.08,-127 1875.08,4 -4,4"/>
<!-- st0.EntityDraculaGlass -->
<g id="node1" class="node">
<title>st0.EntityDraculaGlass</title>
<ellipse fill="green" stroke="black" cx="749.49" cy="-105" rx="118.08" ry="18"/>
<text text-anchor="middle" x="749.49" y="-101.3" font-family="Times,serif" font-size="14.00">st0.EntityDraculaGlass</text>
</g>
<!-- st0.InitializeEntity -->
<g id="node2" class="node">
<title>st0.InitializeEntity</title>
<g id="a_node2"><a xlink:href="st0.InitializeEntity.svg" xlink:title="st0.InitializeEntity">
<ellipse fill="green" stroke="black" cx="97.49" cy="-18" rx="97.48" ry="18"/>
<text text-anchor="middle" x="97.49" y="-14.3" font-family="Times,serif" font-size="14.00">st0.InitializeEntity</text>
</a>
</g>
</g>
<!-- st0.EntityDraculaGlass&#45;&gt;st0.InitializeEntity -->
<g id="edge1" class="edge">
<title>st0.EntityDraculaGlass&#45;&gt;st0.InitializeEntity</title>
<path fill="none" stroke="black" d="M648.29,-95.67C578.06,-89.46 482.42,-80.14 398.49,-69 321.64,-58.8 234.28,-43.92 173.55,-33.04"/>
<polygon fill="black" stroke="black" points="174.12,-29.59 163.66,-31.27 172.88,-36.48 174.12,-29.59"/>
<text text-anchor="middle" x="403.49" y="-57.8" font-family="Times,serif" font-size="14.00">1</text>
</g>
<!-- st0.Random -->
<g id="node3" class="node">
<title>st0.Random</title>
<g id="a_node3"><a xlink:href="st0.Random.svg" xlink:title="st0.Random">
<ellipse fill="green" stroke="black" cx="279.49" cy="-18" rx="66.09" ry="18"/>
<text text-anchor="middle" x="279.49" y="-14.3" font-family="Times,serif" font-size="14.00">st0.Random</text>
</a>
</g>
</g>
<!-- st0.EntityDraculaGlass&#45;&gt;st0.Random -->
<g id="edge2" class="edge">
<title>st0.EntityDraculaGlass&#45;&gt;st0.Random</title>
<path fill="none" stroke="black" d="M653.74,-94.42C601.68,-88.51 536.29,-79.95 478.49,-69 428.8,-59.58 373.02,-45.23 333.19,-34.32"/>
<polygon fill="black" stroke="black" points="333.99,-30.91 323.42,-31.62 332.13,-37.66 333.99,-30.91"/>
<text text-anchor="middle" x="483.49" y="-57.8" font-family="Times,serif" font-size="14.00">2</text>
</g>
<!-- rcos -->
<g id="node4" class="node">
<title>rcos</title>
<g id="a_node4"><a xlink:href="rcos.svg" xlink:title="rcos">
<ellipse fill="lightblue" stroke="black" cx="394.49" cy="-18" rx="30.59" ry="18"/>
<text text-anchor="middle" x="394.49" y="-14.3" font-family="Times,serif" font-size="14.00">rcos</text>
</a>
</g>
</g>
<!-- st0.EntityDraculaGlass&#45;&gt;rcos -->
<g id="edge3" class="edge">
<title>st0.EntityDraculaGlass&#45;&gt;rcos</title>
<path fill="none" stroke="black" d="M666.72,-92.14C602.03,-81.45 510.48,-63.21 433.49,-36 431.4,-35.26 429.26,-34.46 427.11,-33.62"/>
<polygon fill="black" stroke="black" points="428.37,-30.35 417.79,-29.8 425.71,-36.83 428.37,-30.35"/>
<text text-anchor="middle" x="549.49" y="-57.8" font-family="Times,serif" font-size="14.00">1</text>
</g>
<!-- rsin -->
<g id="node5" class="node">
<title>rsin</title>
<g id="a_node5"><a xlink:href="rsin.svg" xlink:title="rsin">
<ellipse fill="lightblue" stroke="black" cx="471.49" cy="-18" rx="28.7" ry="18"/>
<text text-anchor="middle" x="471.49" y="-14.3" font-family="Times,serif" font-size="14.00">rsin</text>
</a>
</g>
</g>
<!-- st0.EntityDraculaGlass&#45;&gt;rsin -->
<g id="edge4" class="edge">
<title>st0.EntityDraculaGlass&#45;&gt;rsin</title>
<path fill="none" stroke="black" d="M688.24,-89.53C639.02,-77.23 568.46,-58.08 508.49,-36 506.65,-35.32 504.77,-34.59 502.89,-33.83"/>
<polygon fill="black" stroke="black" points="504.13,-30.55 493.56,-29.82 501.37,-36.98 504.13,-30.55"/>
<text text-anchor="middle" x="612.49" y="-57.8" font-family="Times,serif" font-size="14.00">1</text>
</g>
<!-- st0.SetStep -->
<g id="node6" class="node">
<title>st0.SetStep</title>
<g id="a_node6"><a xlink:href="st0.SetStep.svg" xlink:title="st0.SetStep">
<ellipse fill="green" stroke="black" cx="583.49" cy="-18" rx="65.79" ry="18"/>
<text text-anchor="middle" x="583.49" y="-14.3" font-family="Times,serif" font-size="14.00">st0.SetStep</text>
</a>
</g>
</g>
<!-- st0.EntityDraculaGlass&#45;&gt;st0.SetStep -->
<g id="edge5" class="edge">
<title>st0.EntityDraculaGlass&#45;&gt;st0.SetStep</title>
<path fill="none" stroke="black" d="M717.48,-87.61C690.28,-73.68 651.14,-53.64 622.19,-38.81"/>
<polygon fill="black" stroke="black" points="623.67,-35.64 613.17,-34.2 620.47,-41.87 623.67,-35.64"/>
<text text-anchor="middle" x="681.49" y="-57.8" font-family="Times,serif" font-size="14.00">2</text>
</g>
<!-- st0.MoveEntity -->
<g id="node7" class="node">
<title>st0.MoveEntity</title>
<g id="a_node7"><a xlink:href="st0.MoveEntity.svg" xlink:title="st0.MoveEntity">
<ellipse fill="green" stroke="black" cx="749.49" cy="-18" rx="82.59" ry="18"/>
<text text-anchor="middle" x="749.49" y="-14.3" font-family="Times,serif" font-size="14.00">st0.MoveEntity</text>
</a>
</g>
</g>
<!-- st0.EntityDraculaGlass&#45;&gt;st0.MoveEntity -->
<g id="edge6" class="edge">
<title>st0.EntityDraculaGlass&#45;&gt;st0.MoveEntity</title>
<path fill="none" stroke="black" d="M749.49,-86.8C749.49,-75.16 749.49,-59.55 749.49,-46.24"/>
<polygon fill="black" stroke="black" points="752.99,-46.18 749.49,-36.18 745.99,-46.18 752.99,-46.18"/>
<text text-anchor="middle" x="754.49" y="-57.8" font-family="Times,serif" font-size="14.00">2</text>
</g>
<!-- dra.PlaySfx -->
<g id="node8" class="node">
<title>dra.PlaySfx</title>
<g id="a_node8"><a xlink:href="dra.PlaySfx.svg" xlink:title="dra.PlaySfx">
<ellipse fill="green" stroke="black" cx="914.49" cy="-18" rx="64.19" ry="18"/>
<text text-anchor="middle" x="914.49" y="-14.3" font-family="Times,serif" font-size="14.00">dra.PlaySfx</text>
</a>
</g>
</g>
<!-- st0.EntityDraculaGlass&#45;&gt;dra.PlaySfx -->
<g id="edge7" class="edge">
<title>st0.EntityDraculaGlass&#45;&gt;dra.PlaySfx</title>
<path fill="none" stroke="black" d="M781.31,-87.61C808.43,-73.64 847.49,-53.52 876.3,-38.67"/>
<polygon fill="black" stroke="black" points="877.98,-41.75 885.27,-34.06 874.77,-35.52 877.98,-41.75"/>
<text text-anchor="middle" x="847.49" y="-57.8" font-family="Times,serif" font-size="14.00">1</text>
</g>
<!-- st0.AnimateEntity -->
<g id="node9" class="node">
<title>st0.AnimateEntity</title>
<g id="a_node9"><a xlink:href="st0.AnimateEntity.svg" xlink:title="st0.AnimateEntity">
<ellipse fill="green" stroke="black" cx="1092.49" cy="-18" rx="95.58" ry="18"/>
<text text-anchor="middle" x="1092.49" y="-14.3" font-family="Times,serif" font-size="14.00">st0.AnimateEntity</text>
</a>
</g>
</g>
<!-- st0.EntityDraculaGlass&#45;&gt;st0.AnimateEntity -->
<g id="edge8" class="edge">
<title>st0.EntityDraculaGlass&#45;&gt;st0.AnimateEntity</title>
<path fill="none" stroke="black" d="M808.46,-89.39C869.36,-74.29 964.18,-50.8 1027.28,-35.16"/>
<polygon fill="black" stroke="black" points="1028.27,-38.52 1037.13,-32.72 1026.58,-31.73 1028.27,-38.52"/>
<text text-anchor="middle" x="947.49" y="-57.8" font-family="Times,serif" font-size="14.00">1</text>
</g>
<!-- st0.AllocEntity -->
<g id="node10" class="node">
<title>st0.AllocEntity</title>
<g id="a_node10"><a xlink:href="st0.AllocEntity.svg" xlink:title="st0.AllocEntity">
<ellipse fill="green" stroke="black" cx="1285.49" cy="-18" rx="79.09" ry="18"/>
<text text-anchor="middle" x="1285.49" y="-14.3" font-family="Times,serif" font-size="14.00">st0.AllocEntity</text>
</a>
</g>
</g>
<!-- st0.EntityDraculaGlass&#45;&gt;st0.AllocEntity -->
<g id="edge9" class="edge">
<title>st0.EntityDraculaGlass&#45;&gt;st0.AllocEntity</title>
<path fill="none" stroke="black" d="M833.46,-92.28C923.6,-79.46 1070.93,-57.82 1197.49,-36 1204.08,-34.86 1210.95,-33.63 1217.8,-32.36"/>
<polygon fill="black" stroke="black" points="1218.62,-35.77 1227.8,-30.49 1217.33,-28.89 1218.62,-35.77"/>
<text text-anchor="middle" x="1092.49" y="-57.8" font-family="Times,serif" font-size="14.00">1</text>
</g>
<!-- st0.CreateEntityFromEntity -->
<g id="node11" class="node">
<title>st0.CreateEntityFromEntity</title>
<g id="a_node11"><a xlink:href="st0.CreateEntityFromEntity.svg" xlink:title="st0.CreateEntityFromEntity">
<ellipse fill="green" stroke="black" cx="1524.49" cy="-18" rx="141.88" ry="18"/>
<text text-anchor="middle" x="1524.49" y="-14.3" font-family="Times,serif" font-size="14.00">st0.CreateEntityFromEntity</text>
</a>
</g>
</g>
<!-- st0.EntityDraculaGlass&#45;&gt;st0.CreateEntityFromEntity -->
<g id="edge10" class="edge">
<title>st0.EntityDraculaGlass&#45;&gt;st0.CreateEntityFromEntity</title>
<path fill="none" stroke="black" d="M847.03,-94.79C917.72,-88 1015.56,-78.35 1101.49,-69 1208.8,-57.32 1331.26,-42.71 1416.71,-32.3"/>
<polygon fill="black" stroke="black" points="1417.18,-35.77 1426.68,-31.08 1416.33,-28.82 1417.18,-35.77"/>
<text text-anchor="middle" x="1234.49" y="-57.8" font-family="Times,serif" font-size="14.00">1</text>
</g>
<!-- st0.DestroyEntity -->
<g id="node12" class="node">
<title>st0.DestroyEntity</title>
<g id="a_node12"><a xlink:href="st0.DestroyEntity.svg" xlink:title="st0.DestroyEntity">
<ellipse fill="green" stroke="black" cx="1777.49" cy="-18" rx="93.68" ry="18"/>
<text text-anchor="middle" x="1777.49" y="-14.3" font-family="Times,serif" font-size="14.00">st0.DestroyEntity</text>
</a>
</g>
</g>
<!-- st0.EntityDraculaGlass&#45;&gt;st0.DestroyEntity -->
<g id="edge11" class="edge">
<title>st0.EntityDraculaGlass&#45;&gt;st0.DestroyEntity</title>
<path fill="none" stroke="black" d="M861.72,-99.2C1036.24,-90.95 1383.05,-71.47 1675.49,-36 1684.04,-34.96 1692.96,-33.72 1701.82,-32.38"/>
<polygon fill="black" stroke="black" points="1702.43,-35.83 1711.77,-30.84 1701.35,-28.91 1702.43,-35.83"/>
<text text-anchor="middle" x="1504.49" y="-57.8" font-family="Times,serif" font-size="14.00">1</text>
</g>
</g>
</svg>
