<?xml version="1.0" encoding="UTF-8" standalone="no"?>
<!DOCTYPE svg PUBLIC "-//W3C//DTD SVG 1.1//EN"
 "http://www.w3.org/Graphics/SVG/1.1/DTD/svg11.dtd">
<!-- Generated by graphviz version 2.43.0 (0)
 -->
<!-- Title: st0.func_801B33D4 Pages: 1 -->
<svg width="442pt" height="224pt"
 viewBox="0.00 0.00 441.98 224.00" xmlns="http://www.w3.org/2000/svg" xmlns:xlink="http://www.w3.org/1999/xlink">
<g id="graph0" class="graph" transform="scale(1 1) rotate(0) translate(4 220)">
<title>st0.func_801B33D4</title>
<polygon fill="white" stroke="transparent" points="-4,4 -4,-220 437.98,-220 437.98,4 -4,4"/>
<!-- st0.func_801B33D4 -->
<g id="node1" class="node">
<title>st0.func_801B33D4</title>
<ellipse fill="green" stroke="black" cx="213.74" cy="-18" rx="102.08" ry="18"/>
<text text-anchor="middle" x="213.74" y="-14.3" font-family="Times,serif" font-size="14.00">st0.func_801B33D4</text>
</g>
<!-- st0.func_801B3478 -->
<g id="node2" class="node">
<title>st0.func_801B3478</title>
<g id="a_node2"><a xlink:href="st0.func_801B3478.svg" xlink:title="st0.func_801B3478">
<ellipse fill="green" stroke="black" cx="100.74" cy="-198" rx="100.98" ry="18"/>
<text text-anchor="middle" x="100.74" y="-194.3" font-family="Times,serif" font-size="14.00">st0.func_801B3478</text>
</a>
</g>
</g>
<!-- st0.func_801B3478&#45;&gt;st0.func_801B33D4 -->
<g id="edge1" class="edge">
<title>st0.func_801B3478&#45;&gt;st0.func_801B33D4</title>
<path fill="none" stroke="black" d="M111.58,-179.93C131.49,-148.57 174,-81.6 197.42,-44.71"/>
<polygon fill="black" stroke="black" points="200.53,-46.33 202.94,-36.02 194.62,-42.58 200.53,-46.33"/>
<text text-anchor="middle" x="106.58" y="-168.73" font-family="Times,serif" font-size="14.00">1</text>
</g>
<!-- st0.InitRoomEntities -->
<g id="node3" class="node">
<title>st0.InitRoomEntities</title>
<g id="a_node3"><a xlink:href="st0.InitRoomEntities.svg" xlink:title="st0.InitRoomEntities">
<ellipse fill="green" stroke="black" cx="326.74" cy="-198" rx="107.48" ry="18"/>
<text text-anchor="middle" x="326.74" y="-194.3" font-family="Times,serif" font-size="14.00">st0.InitRoomEntities</text>
</a>
</g>
</g>
<!-- st0.InitRoomEntities&#45;&gt;st0.func_801B33D4 -->
<g id="edge2" class="edge">
<title>st0.InitRoomEntities&#45;&gt;st0.func_801B33D4</title>
<path fill="none" stroke="black" d="M315.91,-179.93C295.99,-148.57 253.48,-81.6 230.06,-44.71"/>
<polygon fill="black" stroke="black" points="232.86,-42.58 224.54,-36.02 226.95,-46.33 232.86,-42.58"/>
<text text-anchor="middle" x="310.91" y="-168.73" font-family="Times,serif" font-size="14.00">1</text>
</g>
</g>
</svg>
