<?xml version="1.0" encoding="UTF-8" standalone="no"?>
<!DOCTYPE svg PUBLIC "-//W3C//DTD SVG 1.1//EN"
 "http://www.w3.org/Graphics/SVG/1.1/DTD/svg11.dtd">
<!-- Generated by graphviz version 2.43.0 (0)
 -->
<!-- Title: st0.CreateEntityFromEntity Pages: 1 -->
<svg width="2481pt" height="218pt"
 viewBox="0.00 0.00 2480.88 218.00" xmlns="http://www.w3.org/2000/svg" xmlns:xlink="http://www.w3.org/1999/xlink">
<g id="graph0" class="graph" transform="scale(1 1) rotate(0) translate(4 214)">
<title>st0.CreateEntityFromEntity</title>
<polygon fill="white" stroke="transparent" points="-4,4 -4,-214 2476.88,-214 2476.88,4 -4,4"/>
<!-- st0.CreateEntityFromEntity -->
<g id="node1" class="node">
<title>st0.CreateEntityFromEntity</title>
<ellipse fill="green" stroke="black" cx="1134.94" cy="-105" rx="141.88" ry="18"/>
<text text-anchor="middle" x="1134.94" y="-101.3" font-family="Times,serif" font-size="14.00">st0.CreateEntityFromEntity</text>
</g>
<!-- st0.DestroyEntity -->
<g id="node2" class="node">
<title>st0.DestroyEntity</title>
<g id="a_node2"><a xlink:href="st0.DestroyEntity.svg" xlink:title="st0.DestroyEntity">
<ellipse fill="green" stroke="black" cx="1134.94" cy="-18" rx="93.68" ry="18"/>
<text text-anchor="middle" x="1134.94" y="-14.3" font-family="Times,serif" font-size="14.00">st0.DestroyEntity</text>
</a>
</g>
</g>
<!-- st0.CreateEntityFromEntity&#45;&gt;st0.DestroyEntity -->
<g id="edge1" class="edge">
<title>st0.CreateEntityFromEntity&#45;&gt;st0.DestroyEntity</title>
<path fill="none" stroke="black" d="M1134.94,-86.8C1134.94,-75.16 1134.94,-59.55 1134.94,-46.24"/>
<polygon fill="black" stroke="black" points="1138.44,-46.18 1134.94,-36.18 1131.44,-46.18 1138.44,-46.18"/>
<text text-anchor="middle" x="1139.94" y="-57.8" font-family="Times,serif" font-size="14.00">1</text>
</g>
<!-- st0.TestCollisions -->
<g id="node3" class="node">
<title>st0.TestCollisions</title>
<g id="a_node3"><a xlink:href="st0.TestCollisions.svg" xlink:title="st0.TestCollisions">
<ellipse fill="red" stroke="black" cx="92.94" cy="-192" rx="92.88" ry="18"/>
<text text-anchor="middle" x="92.94" y="-188.3" font-family="Times,serif" font-size="14.00">st0.TestCollisions</text>
</a>
</g>
</g>
<!-- st0.TestCollisions&#45;&gt;st0.CreateEntityFromEntity -->
<g id="edge2" class="edge">
<title>st0.TestCollisions&#45;&gt;st0.CreateEntityFromEntity</title>
<path fill="none" stroke="black" d="M158.67,-179.2C170.71,-177.28 183.18,-175.45 194.94,-174 476.39,-139.31 807.58,-120.42 992.17,-111.84"/>
<polygon fill="black" stroke="black" points="992.38,-115.34 1002.21,-111.38 992.06,-108.34 992.38,-115.34"/>
<text text-anchor="middle" x="509.94" y="-144.8" font-family="Times,serif" font-size="14.00">1</text>
</g>
<!-- st0.EntitySecretButton -->
<g id="node4" class="node">
<title>st0.EntitySecretButton</title>
<g id="a_node4"><a xlink:href="st0.EntitySecretButton.svg" xlink:title="st0.EntitySecretButton">
<ellipse fill="green" stroke="black" cx="322.94" cy="-192" rx="118.88" ry="18"/>
<text text-anchor="middle" x="322.94" y="-188.3" font-family="Times,serif" font-size="14.00">st0.EntitySecretButton</text>
</a>
</g>
</g>
<!-- st0.EntitySecretButton&#45;&gt;st0.CreateEntityFromEntity -->
<g id="edge3" class="edge">
<title>st0.EntitySecretButton&#45;&gt;st0.CreateEntityFromEntity</title>
<path fill="none" stroke="black" d="M407.92,-179.31C422.27,-177.46 437.02,-175.62 450.94,-174 647.11,-151.23 875.48,-129.48 1012.45,-116.95"/>
<polygon fill="black" stroke="black" points="1012.92,-120.42 1022.56,-116.03 1012.28,-113.45 1012.92,-120.42"/>
<text text-anchor="middle" x="756.94" y="-144.8" font-family="Times,serif" font-size="14.00">2</text>
</g>
<!-- st0.func_801B8C48 -->
<g id="node5" class="node">
<title>st0.func_801B8C48</title>
<g id="a_node5"><a xlink:href="st0.func_801B8C48.svg" xlink:title="st0.func_801B8C48">
<ellipse fill="green" stroke="black" cx="560.94" cy="-192" rx="101.28" ry="18"/>
<text text-anchor="middle" x="560.94" y="-188.3" font-family="Times,serif" font-size="14.00">st0.func_801B8C48</text>
</a>
</g>
</g>
<!-- st0.func_801B8C48&#45;&gt;st0.CreateEntityFromEntity -->
<g id="edge4" class="edge">
<title>st0.func_801B8C48&#45;&gt;st0.CreateEntityFromEntity</title>
<path fill="none" stroke="black" d="M634.6,-179.54C646.74,-177.67 659.19,-175.77 670.94,-174 796.39,-155.11 941.03,-134.03 1035.02,-120.41"/>
<polygon fill="black" stroke="black" points="1035.7,-123.85 1045.09,-118.96 1034.69,-116.92 1035.7,-123.85"/>
<text text-anchor="middle" x="892.94" y="-144.8" font-family="Times,serif" font-size="14.00">1</text>
</g>
<!-- st0.func_801B7BFC -->
<g id="node6" class="node">
<title>st0.func_801B7BFC</title>
<g id="a_node6"><a xlink:href="st0.func_801B7BFC.svg" xlink:title="st0.func_801B7BFC">
<ellipse fill="green" stroke="black" cx="782.94" cy="-192" rx="102.88" ry="18"/>
<text text-anchor="middle" x="782.94" y="-188.3" font-family="Times,serif" font-size="14.00">st0.func_801B7BFC</text>
</a>
</g>
</g>
<!-- st0.func_801B7BFC&#45;&gt;st0.CreateEntityFromEntity -->
<g id="edge5" class="edge">
<title>st0.func_801B7BFC&#45;&gt;st0.CreateEntityFromEntity</title>
<path fill="none" stroke="black" d="M840.67,-177.06C901.24,-162.43 996.6,-139.41 1062.26,-123.55"/>
<polygon fill="black" stroke="black" points="1063.23,-126.92 1072.13,-121.17 1061.59,-120.11 1063.23,-126.92"/>
<text text-anchor="middle" x="985.94" y="-144.8" font-family="Times,serif" font-size="14.00">1</text>
</g>
<!-- st0.func_801A805C -->
<g id="node7" class="node">
<title>st0.func_801A805C</title>
<g id="a_node7"><a xlink:href="st0.func_801A805C.svg" xlink:title="st0.func_801A805C">
<ellipse fill="green" stroke="black" cx="1003.94" cy="-192" rx="100.98" ry="18"/>
<text text-anchor="middle" x="1003.94" y="-188.3" font-family="Times,serif" font-size="14.00">st0.func_801A805C</text>
</a>
</g>
</g>
<!-- st0.func_801A805C&#45;&gt;st0.CreateEntityFromEntity -->
<g id="edge6" class="edge">
<title>st0.func_801A805C&#45;&gt;st0.CreateEntityFromEntity</title>
<path fill="none" stroke="black" d="M1029.51,-174.41C1049.76,-161.27 1078.23,-142.8 1100.49,-128.35"/>
<polygon fill="black" stroke="black" points="1102.51,-131.22 1108.99,-122.84 1098.7,-125.35 1102.51,-131.22"/>
<text text-anchor="middle" x="1082.94" y="-144.8" font-family="Times,serif" font-size="14.00">2</text>
</g>
<!-- st0.EntityDraculaRainAttack -->
<g id="node8" class="node">
<title>st0.EntityDraculaRainAttack</title>
<g id="a_node8"><a xlink:href="st0.EntityDraculaRainAttack.svg" xlink:title="st0.EntityDraculaRainAttack">
<ellipse fill="green" stroke="black" cx="1265.94" cy="-192" rx="143.77" ry="18"/>
<text text-anchor="middle" x="1265.94" y="-188.3" font-family="Times,serif" font-size="14.00">st0.EntityDraculaRainAttack</text>
</a>
</g>
</g>
<!-- st0.EntityDraculaRainAttack&#45;&gt;st0.CreateEntityFromEntity -->
<g id="edge7" class="edge">
<title>st0.EntityDraculaRainAttack&#45;&gt;st0.CreateEntityFromEntity</title>
<path fill="none" stroke="black" d="M1240.06,-174.21C1219.79,-161.05 1191.4,-142.63 1169.23,-128.25"/>
<polygon fill="black" stroke="black" points="1171.06,-125.27 1160.77,-122.76 1167.25,-131.14 1171.06,-125.27"/>
<text text-anchor="middle" x="1213.94" y="-144.8" font-family="Times,serif" font-size="14.00">2</text>
</g>
<!-- st0.EntityDraculaMeteorball -->
<g id="node9" class="node">
<title>st0.EntityDraculaMeteorball</title>
<g id="a_node9"><a xlink:href="st0.EntityDraculaMeteorball.svg" xlink:title="st0.EntityDraculaMeteorball">
<ellipse fill="green" stroke="black" cx="1570.94" cy="-192" rx="143.77" ry="18"/>
<text text-anchor="middle" x="1570.94" y="-188.3" font-family="Times,serif" font-size="14.00">st0.EntityDraculaMeteorball</text>
</a>
</g>
</g>
<!-- st0.EntityDraculaMeteorball&#45;&gt;st0.CreateEntityFromEntity -->
<g id="edge8" class="edge">
<title>st0.EntityDraculaMeteorball&#45;&gt;st0.CreateEntityFromEntity</title>
<path fill="none" stroke="black" d="M1496.49,-176.48C1419.4,-161.46 1299.21,-138.02 1218.82,-122.35"/>
<polygon fill="black" stroke="black" points="1219.21,-118.86 1208.73,-120.38 1217.87,-125.73 1219.21,-118.86"/>
<text text-anchor="middle" x="1384.94" y="-144.8" font-family="Times,serif" font-size="14.00">1</text>
</g>
<!-- st0.EntityDraculaFinalForm -->
<g id="node10" class="node">
<title>st0.EntityDraculaFinalForm</title>
<g id="a_node10"><a xlink:href="st0.EntityDraculaFinalForm.svg" xlink:title="st0.EntityDraculaFinalForm">
<ellipse fill="red" stroke="black" cx="1873.94" cy="-192" rx="141.07" ry="18"/>
<text text-anchor="middle" x="1873.94" y="-188.3" font-family="Times,serif" font-size="14.00">st0.EntityDraculaFinalForm</text>
</a>
</g>
</g>
<!-- st0.EntityDraculaFinalForm&#45;&gt;st0.CreateEntityFromEntity -->
<g id="edge9" class="edge">
<title>st0.EntityDraculaFinalForm&#45;&gt;st0.CreateEntityFromEntity</title>
<path fill="none" stroke="black" d="M1773.12,-179.4C1635.42,-163.57 1389.35,-135.26 1246.34,-118.81"/>
<polygon fill="black" stroke="black" points="1246.56,-115.32 1236.22,-117.65 1245.76,-122.27 1246.56,-115.32"/>
<text text-anchor="middle" x="1553.94" y="-144.8" font-family="Times,serif" font-size="14.00">5</text>
</g>
<!-- st0.EntityDraculaGlass -->
<g id="node11" class="node">
<title>st0.EntityDraculaGlass</title>
<g id="a_node11"><a xlink:href="st0.EntityDraculaGlass.svg" xlink:title="st0.EntityDraculaGlass">
<ellipse fill="green" stroke="black" cx="2150.94" cy="-192" rx="118.08" ry="18"/>
<text text-anchor="middle" x="2150.94" y="-188.3" font-family="Times,serif" font-size="14.00">st0.EntityDraculaGlass</text>
</a>
</g>
</g>
<!-- st0.EntityDraculaGlass&#45;&gt;st0.CreateEntityFromEntity -->
<g id="edge10" class="edge">
<title>st0.EntityDraculaGlass&#45;&gt;st0.CreateEntityFromEntity</title>
<path fill="none" stroke="black" d="M2067.68,-179.17C2053.12,-177.29 2038.1,-175.49 2023.94,-174 1757.59,-146.01 1445.2,-124.79 1270.66,-113.98"/>
<polygon fill="black" stroke="black" points="1270.85,-110.49 1260.65,-113.36 1270.42,-117.47 1270.85,-110.49"/>
<text text-anchor="middle" x="1834.94" y="-144.8" font-family="Times,serif" font-size="14.00">1</text>
</g>
<!-- st0.EntityDracula -->
<g id="node12" class="node">
<title>st0.EntityDracula</title>
<g id="a_node12"><a xlink:href="st0.EntityDracula.svg" xlink:title="st0.EntityDracula">
<ellipse fill="red" stroke="black" cx="2379.94" cy="-192" rx="92.88" ry="18"/>
<text text-anchor="middle" x="2379.94" y="-188.3" font-family="Times,serif" font-size="14.00">st0.EntityDracula</text>
</a>
</g>
</g>
<!-- st0.EntityDracula&#45;&gt;st0.CreateEntityFromEntity -->
<g id="edge11" class="edge">
<title>st0.EntityDracula&#45;&gt;st0.CreateEntityFromEntity</title>
<path fill="none" stroke="black" d="M2314.5,-179.2C2302.37,-177.27 2289.79,-175.44 2277.94,-174 1922.93,-131.01 1502.44,-114.86 1283.8,-109.06"/>
<polygon fill="black" stroke="black" points="1283.64,-105.55 1273.55,-108.79 1283.45,-112.55 1283.64,-105.55"/>
<text text-anchor="middle" x="2095.94" y="-144.8" font-family="Times,serif" font-size="14.00">3</text>
</g>
</g>
</svg>
