<?xml version="1.0" encoding="UTF-8" standalone="no"?>
<!DOCTYPE svg PUBLIC "-//W3C//DTD SVG 1.1//EN"
 "http://www.w3.org/Graphics/SVG/1.1/DTD/svg11.dtd">
<!-- Generated by graphviz version 2.43.0 (0)
 -->
<!-- Title: st0.func_801BC5C0 Pages: 1 -->
<svg width="2108pt" height="224pt"
 viewBox="0.00 0.00 2107.64 224.00" xmlns="http://www.w3.org/2000/svg" xmlns:xlink="http://www.w3.org/1999/xlink">
<g id="graph0" class="graph" transform="scale(1 1) rotate(0) translate(4 220)">
<title>st0.func_801BC5C0</title>
<polygon fill="white" stroke="transparent" points="-4,4 -4,-220 2103.64,-220 2103.64,4 -4,4"/>
<!-- st0.func_801BC5C0 -->
<g id="node1" class="node">
<title>st0.func_801BC5C0</title>
<ellipse fill="red" stroke="black" cx="1189.05" cy="-198" rx="102.88" ry="18"/>
<text text-anchor="middle" x="1189.05" y="-194.3" font-family="Times,serif" font-size="14.00">st0.func_801BC5C0</text>
</g>
<!-- FntPrint -->
<g id="node2" class="node">
<title>FntPrint</title>
<g id="a_node2"><a xlink:href="FntPrint.svg" xlink:title="FntPrint">
<ellipse fill="lightblue" stroke="black" cx="50.05" cy="-18" rx="50.09" ry="18"/>
<text text-anchor="middle" x="50.05" y="-14.3" font-family="Times,serif" font-size="14.00">FntPrint</text>
</a>
</g>
</g>
<!-- st0.func_801BC5C0&#45;&gt;FntPrint -->
<g id="edge1" class="edge">
<title>st0.func_801BC5C0&#45;&gt;FntPrint</title>
<path fill="none" stroke="black" d="M1103.4,-188C919.94,-167.88 475.96,-114.8 110.05,-36 105.7,-35.06 101.21,-33.99 96.72,-32.85"/>
<polygon fill="black" stroke="black" points="97.55,-29.45 86.99,-30.27 95.75,-36.21 97.55,-29.45"/>
<text text-anchor="middle" x="81.99" y="-34.07" font-family="Times,serif" font-size="14.00">1</text>
</g>
<!-- st0.InitializeEntity -->
<g id="node3" class="node">
<title>st0.InitializeEntity</title>
<g id="a_node3"><a xlink:href="st0.InitializeEntity.svg" xlink:title="st0.InitializeEntity">
<ellipse fill="green" stroke="black" cx="216.05" cy="-18" rx="97.48" ry="18"/>
<text text-anchor="middle" x="216.05" y="-14.3" font-family="Times,serif" font-size="14.00">st0.InitializeEntity</text>
</a>
</g>
</g>
<!-- st0.func_801BC5C0&#45;&gt;st0.InitializeEntity -->
<g id="edge2" class="edge">
<title>st0.func_801BC5C0&#45;&gt;st0.InitializeEntity</title>
<path fill="none" stroke="black" d="M1120.63,-184.48C944.67,-152.29 477.35,-66.8 292.68,-33.02"/>
<polygon fill="black" stroke="black" points="293.24,-29.56 282.78,-31.21 291.98,-36.45 293.24,-29.56"/>
<text text-anchor="middle" x="277.78" y="-35.01" font-family="Times,serif" font-size="14.00">1</text>
</g>
<!-- dra.AllocPrimitives -->
<g id="node4" class="node">
<title>dra.AllocPrimitives</title>
<g id="a_node4"><a xlink:href="dra.AllocPrimitives.svg" xlink:title="dra.AllocPrimitives">
<ellipse fill="green" stroke="black" cx="431.05" cy="-18" rx="99.38" ry="18"/>
<text text-anchor="middle" x="431.05" y="-14.3" font-family="Times,serif" font-size="14.00">dra.AllocPrimitives</text>
</a>
</g>
</g>
<!-- st0.func_801BC5C0&#45;&gt;dra.AllocPrimitives -->
<g id="edge3" class="edge">
<title>st0.func_801BC5C0&#45;&gt;dra.AllocPrimitives</title>
<path fill="none" stroke="black" d="M1130.2,-183.18C991.72,-150.66 645.9,-69.45 498.89,-34.93"/>
<polygon fill="black" stroke="black" points="499.61,-31.51 489.08,-32.63 498.01,-38.32 499.61,-31.51"/>
<text text-anchor="middle" x="484.08" y="-36.43" font-family="Times,serif" font-size="14.00">1</text>
</g>
<!-- st0.DestroyEntity -->
<g id="node5" class="node">
<title>st0.DestroyEntity</title>
<g id="a_node5"><a xlink:href="st0.DestroyEntity.svg" xlink:title="st0.DestroyEntity">
<ellipse fill="green" stroke="black" cx="642.05" cy="-18" rx="93.68" ry="18"/>
<text text-anchor="middle" x="642.05" y="-14.3" font-family="Times,serif" font-size="14.00">st0.DestroyEntity</text>
</a>
</g>
</g>
<!-- st0.func_801BC5C0&#45;&gt;st0.DestroyEntity -->
<g id="edge4" class="edge">
<title>st0.func_801BC5C0&#45;&gt;st0.DestroyEntity</title>
<path fill="none" stroke="black" d="M1142.41,-181.82C1041.82,-149.09 804.87,-71.98 697.12,-36.92"/>
<polygon fill="black" stroke="black" points="698,-33.53 687.41,-33.76 695.84,-40.18 698,-33.53"/>
<text text-anchor="middle" x="682.41" y="-37.56" font-family="Times,serif" font-size="14.00">1</text>
</g>
<!-- SetGeomScreen -->
<g id="node6" class="node">
<title>SetGeomScreen</title>
<g id="a_node6"><a xlink:href="SetGeomScreen.svg" xlink:title="SetGeomScreen">
<ellipse fill="lightblue" stroke="black" cx="839.05" cy="-18" rx="85.29" ry="18"/>
<text text-anchor="middle" x="839.05" y="-14.3" font-family="Times,serif" font-size="14.00">SetGeomScreen</text>
</a>
</g>
</g>
<!-- st0.func_801BC5C0&#45;&gt;SetGeomScreen -->
<g id="edge5" class="edge">
<title>st0.func_801BC5C0&#45;&gt;SetGeomScreen</title>
<path fill="none" stroke="black" d="M1157.06,-180.73C1093.1,-148.21 949.59,-75.22 879.34,-39.49"/>
<polygon fill="black" stroke="black" points="880.83,-36.32 870.33,-34.91 877.66,-42.56 880.83,-36.32"/>
<text text-anchor="middle" x="865.33" y="-38.71" font-family="Times,serif" font-size="14.00">2</text>
</g>
<!-- SetGeomOffset -->
<g id="node7" class="node">
<title>SetGeomOffset</title>
<g id="a_node7"><a xlink:href="SetGeomOffset.svg" xlink:title="SetGeomOffset">
<ellipse fill="lightblue" stroke="black" cx="1023.05" cy="-18" rx="81.49" ry="18"/>
<text text-anchor="middle" x="1023.05" y="-14.3" font-family="Times,serif" font-size="14.00">SetGeomOffset</text>
</a>
</g>
</g>
<!-- st0.func_801BC5C0&#45;&gt;SetGeomOffset -->
<g id="edge6" class="edge">
<title>st0.func_801BC5C0&#45;&gt;SetGeomOffset</title>
<path fill="none" stroke="black" d="M1173.13,-179.93C1143.55,-148.22 1080.04,-80.12 1045.89,-43.5"/>
<polygon fill="black" stroke="black" points="1048.05,-40.68 1038.67,-35.76 1042.93,-45.46 1048.05,-40.68"/>
<text text-anchor="middle" x="1033.67" y="-39.56" font-family="Times,serif" font-size="14.00">2</text>
</g>
<!-- SetFarColor -->
<g id="node8" class="node">
<title>SetFarColor</title>
<g id="a_node8"><a xlink:href="SetFarColor.svg" xlink:title="SetFarColor">
<ellipse fill="lightblue" stroke="black" cx="1189.05" cy="-18" rx="66.89" ry="18"/>
<text text-anchor="middle" x="1189.05" y="-14.3" font-family="Times,serif" font-size="14.00">SetFarColor</text>
</a>
</g>
</g>
<!-- st0.func_801BC5C0&#45;&gt;SetFarColor -->
<g id="edge7" class="edge">
<title>st0.func_801BC5C0&#45;&gt;SetFarColor</title>
<path fill="none" stroke="black" d="M1189.05,-179.93C1189.05,-148.97 1189.05,-83.3 1189.05,-46.13"/>
<polygon fill="black" stroke="black" points="1192.55,-46.02 1189.05,-36.02 1185.55,-46.02 1192.55,-46.02"/>
<text text-anchor="middle" x="1184.05" y="-39.82" font-family="Times,serif" font-size="14.00">1</text>
</g>
<!-- SetFogNear -->
<g id="node9" class="node">
<title>SetFogNear</title>
<g id="a_node9"><a xlink:href="SetFogNear.svg" xlink:title="SetFogNear">
<ellipse fill="lightblue" stroke="black" cx="1340.05" cy="-18" rx="66.09" ry="18"/>
<text text-anchor="middle" x="1340.05" y="-14.3" font-family="Times,serif" font-size="14.00">SetFogNear</text>
</a>
</g>
</g>
<!-- st0.func_801BC5C0&#45;&gt;SetFogNear -->
<g id="edge8" class="edge">
<title>st0.func_801BC5C0&#45;&gt;SetFogNear</title>
<path fill="none" stroke="black" d="M1203.52,-179.93C1230.43,-148.22 1288.2,-80.12 1319.27,-43.5"/>
<polygon fill="black" stroke="black" points="1322.03,-45.65 1325.83,-35.76 1316.69,-41.12 1322.03,-45.65"/>
<text text-anchor="middle" x="1320.83" y="-39.56" font-family="Times,serif" font-size="14.00">1</text>
</g>
<!-- RotMatrix -->
<g id="node10" class="node">
<title>RotMatrix</title>
<g id="a_node10"><a xlink:href="RotMatrix.svg" xlink:title="RotMatrix">
<ellipse fill="lightblue" stroke="black" cx="1482.05" cy="-18" rx="57.69" ry="18"/>
<text text-anchor="middle" x="1482.05" y="-14.3" font-family="Times,serif" font-size="14.00">RotMatrix</text>
</a>
</g>
</g>
<!-- st0.func_801BC5C0&#45;&gt;RotMatrix -->
<g id="edge9" class="edge">
<title>st0.func_801BC5C0&#45;&gt;RotMatrix</title>
<path fill="none" stroke="black" d="M1216.09,-180.57C1269.72,-147.99 1389.44,-75.26 1448.2,-39.56"/>
<polygon fill="black" stroke="black" points="1450.02,-42.55 1456.75,-34.37 1446.38,-36.57 1450.02,-42.55"/>
<text text-anchor="middle" x="1451.75" y="-38.17" font-family="Times,serif" font-size="14.00">2</text>
</g>
<!-- SetRotMatrix -->
<g id="node11" class="node">
<title>SetRotMatrix</title>
<g id="a_node11"><a xlink:href="SetRotMatrix.svg" xlink:title="SetRotMatrix">
<ellipse fill="lightblue" stroke="black" cx="1631.05" cy="-18" rx="73.39" ry="18"/>
<text text-anchor="middle" x="1631.05" y="-14.3" font-family="Times,serif" font-size="14.00">SetRotMatrix</text>
</a>
</g>
</g>
<!-- st0.func_801BC5C0&#45;&gt;SetRotMatrix -->
<g id="edge10" class="edge">
<title>st0.func_801BC5C0&#45;&gt;SetRotMatrix</title>
<path fill="none" stroke="black" d="M1228.27,-181.2C1309.93,-148.32 1497.83,-72.65 1585.04,-37.53"/>
<polygon fill="black" stroke="black" points="1586.44,-40.74 1594.41,-33.75 1583.82,-34.24 1586.44,-40.74"/>
<text text-anchor="middle" x="1589.41" y="-37.55" font-family="Times,serif" font-size="14.00">1</text>
</g>
<!-- st0.SetStep -->
<g id="node12" class="node">
<title>st0.SetStep</title>
<g id="a_node12"><a xlink:href="st0.SetStep.svg" xlink:title="st0.SetStep">
<ellipse fill="green" stroke="black" cx="1788.05" cy="-18" rx="65.79" ry="18"/>
<text text-anchor="middle" x="1788.05" y="-14.3" font-family="Times,serif" font-size="14.00">st0.SetStep</text>
</a>
</g>
</g>
<!-- st0.func_801BC5C0&#45;&gt;st0.SetStep -->
<g id="edge11" class="edge">
<title>st0.func_801BC5C0&#45;&gt;st0.SetStep</title>
<path fill="none" stroke="black" d="M1238.83,-182.21C1350.67,-148.97 1620.98,-68.64 1735.44,-34.63"/>
<polygon fill="black" stroke="black" points="1736.45,-37.98 1745.04,-31.78 1734.46,-31.27 1736.45,-37.98"/>
<text text-anchor="middle" x="1740.04" y="-35.58" font-family="Times,serif" font-size="14.00">2</text>
</g>
<!-- RotMatrixY -->
<g id="node13" class="node">
<title>RotMatrixY</title>
<g id="a_node13"><a xlink:href="RotMatrixY.svg" xlink:title="RotMatrixY">
<ellipse fill="lightblue" stroke="black" cx="1935.05" cy="-18" rx="63.89" ry="18"/>
<text text-anchor="middle" x="1935.05" y="-14.3" font-family="Times,serif" font-size="14.00">RotMatrixY</text>
</a>
</g>
</g>
<!-- st0.func_801BC5C0&#45;&gt;RotMatrixY -->
<g id="edge12" class="edge">
<title>st0.func_801BC5C0&#45;&gt;RotMatrixY</title>
<path fill="none" stroke="black" d="M1247.27,-183.11C1386.94,-149.78 1739.65,-65.62 1878.05,-32.6"/>
<polygon fill="black" stroke="black" points="1879.12,-35.94 1888.04,-30.22 1877.5,-29.13 1879.12,-35.94"/>
<text text-anchor="middle" x="1883.04" y="-34.02" font-family="Times,serif" font-size="14.00">1</text>
</g>
<!-- ratan2 -->
<g id="node14" class="node">
<title>ratan2</title>
<g id="a_node14"><a xlink:href="ratan2.svg" xlink:title="ratan2">
<ellipse fill="lightblue" stroke="black" cx="2058.05" cy="-18" rx="41.69" ry="18"/>
<text text-anchor="middle" x="2058.05" y="-14.3" font-family="Times,serif" font-size="14.00">ratan2</text>
</a>
</g>
</g>
<!-- st0.func_801BC5C0&#45;&gt;ratan2 -->
<g id="edge13" class="edge">
<title>st0.func_801BC5C0&#45;&gt;ratan2</title>
<path fill="none" stroke="black" d="M1264.06,-185.7C1409.13,-163.09 1737.66,-108.19 2008.05,-36 2011.19,-35.16 2014.42,-34.23 2017.66,-33.24"/>
<polygon fill="black" stroke="black" points="2018.84,-36.54 2027.3,-30.17 2016.71,-29.87 2018.84,-36.54"/>
<text text-anchor="middle" x="2022.3" y="-33.97" font-family="Times,serif" font-size="14.00">1</text>
</g>
</g>
</svg>
