<?xml version="1.0" encoding="UTF-8" standalone="no"?>
<!DOCTYPE svg PUBLIC "-//W3C//DTD SVG 1.1//EN"
 "http://www.w3.org/Graphics/SVG/1.1/DTD/svg11.dtd">
<!-- Generated by graphviz version 2.43.0 (0)
 -->
<!-- Title: st0.func_801ADAC8 Pages: 1 -->
<svg width="596pt" height="131pt"
 viewBox="0.00 0.00 595.67 131.00" xmlns="http://www.w3.org/2000/svg" xmlns:xlink="http://www.w3.org/1999/xlink">
<g id="graph0" class="graph" transform="scale(1 1) rotate(0) translate(4 127)">
<title>st0.func_801ADAC8</title>
<polygon fill="white" stroke="transparent" points="-4,4 -4,-127 591.67,-127 591.67,4 -4,4"/>
<!-- st0.func_801ADAC8 -->
<g id="node1" class="node">
<title>st0.func_801ADAC8</title>
<ellipse fill="green" stroke="black" cx="294.64" cy="-18" rx="102.88" ry="18"/>
<text text-anchor="middle" x="294.64" y="-14.3" font-family="Times,serif" font-size="14.00">st0.func_801ADAC8</text>
</g>
<!-- st0.EntityDraculaRainAttack -->
<g id="node2" class="node">
<title>st0.EntityDraculaRainAttack</title>
<g id="a_node2"><a xlink:href="st0.EntityDraculaRainAttack.svg" xlink:title="st0.EntityDraculaRainAttack">
<ellipse fill="green" stroke="black" cx="143.64" cy="-105" rx="143.77" ry="18"/>
<text text-anchor="middle" x="143.64" y="-101.3" font-family="Times,serif" font-size="14.00">st0.EntityDraculaRainAttack</text>
</a>
</g>
</g>
<!-- st0.EntityDraculaRainAttack&#45;&gt;st0.func_801ADAC8 -->
<g id="edge1" class="edge">
<title>st0.EntityDraculaRainAttack&#45;&gt;st0.func_801ADAC8</title>
<path fill="none" stroke="black" d="M173.47,-87.21C197.38,-73.75 231.08,-54.78 256.87,-40.26"/>
<polygon fill="black" stroke="black" points="258.64,-43.28 265.64,-35.33 255.2,-37.18 258.64,-43.28"/>
<text text-anchor="middle" x="233.64" y="-57.8" font-family="Times,serif" font-size="14.00">1</text>
</g>
<!-- st0.EntityDraculaFinalForm -->
<g id="node3" class="node">
<title>st0.EntityDraculaFinalForm</title>
<g id="a_node3"><a xlink:href="st0.EntityDraculaFinalForm.svg" xlink:title="st0.EntityDraculaFinalForm">
<ellipse fill="red" stroke="black" cx="446.64" cy="-105" rx="141.07" ry="18"/>
<text text-anchor="middle" x="446.64" y="-101.3" font-family="Times,serif" font-size="14.00">st0.EntityDraculaFinalForm</text>
</a>
</g>
</g>
<!-- st0.EntityDraculaFinalForm&#45;&gt;st0.func_801ADAC8 -->
<g id="edge2" class="edge">
<title>st0.EntityDraculaFinalForm&#45;&gt;st0.func_801ADAC8</title>
<path fill="none" stroke="black" d="M416.61,-87.21C392.54,-73.75 358.61,-54.78 332.65,-40.26"/>
<polygon fill="black" stroke="black" points="334.27,-37.15 323.83,-35.33 330.85,-43.26 334.27,-37.15"/>
<text text-anchor="middle" x="385.64" y="-57.8" font-family="Times,serif" font-size="14.00">2</text>
</g>
</g>
</svg>
