<?xml version="1.0" encoding="UTF-8" standalone="no"?>
<!DOCTYPE svg PUBLIC "-//W3C//DTD SVG 1.1//EN"
 "http://www.w3.org/Graphics/SVG/1.1/DTD/svg11.dtd">
<!-- Generated by graphviz version 2.43.0 (0)
 -->
<!-- Title: st0.func_801BD88C Pages: 1 -->
<svg width="686pt" height="224pt"
 viewBox="0.00 0.00 686.33 224.00" xmlns="http://www.w3.org/2000/svg" xmlns:xlink="http://www.w3.org/1999/xlink">
<g id="graph0" class="graph" transform="scale(1 1) rotate(0) translate(4 220)">
<title>st0.func_801BD88C</title>
<polygon fill="white" stroke="transparent" points="-4,4 -4,-220 682.33,-220 682.33,4 -4,4"/>
<!-- st0.func_801BD88C -->
<g id="node1" class="node">
<title>st0.func_801BD88C</title>
<ellipse fill="green" stroke="black" cx="373.39" cy="-18" rx="102.88" ry="18"/>
<text text-anchor="middle" x="373.39" y="-14.3" font-family="Times,serif" font-size="14.00">st0.func_801BD88C</text>
</g>
<!-- st0.EntityStageTitleCard -->
<g id="node2" class="node">
<title>st0.EntityStageTitleCard</title>
<g id="a_node2"><a xlink:href="st0.EntityStageTitleCard.svg" xlink:title="st0.EntityStageTitleCard">
<ellipse fill="green" stroke="black" cx="127.39" cy="-198" rx="127.28" ry="18"/>
<text text-anchor="middle" x="127.39" y="-194.3" font-family="Times,serif" font-size="14.00">st0.EntityStageTitleCard</text>
</a>
</g>
</g>
<!-- st0.EntityStageTitleCard&#45;&gt;st0.func_801BD88C -->
<g id="edge1" class="edge">
<title>st0.EntityStageTitleCard&#45;&gt;st0.func_801BD88C</title>
<path fill="none" stroke="black" d="M150.53,-180.25C194.97,-148.1 292.25,-77.71 342.29,-41.5"/>
<polygon fill="black" stroke="black" points="344.44,-44.27 350.49,-35.57 340.33,-38.6 344.44,-44.27"/>
<text text-anchor="middle" x="145.53" y="-169.05" font-family="Times,serif" font-size="14.00">2</text>
</g>
<!-- st0.func_801AF774 -->
<g id="node3" class="node">
<title>st0.func_801AF774</title>
<g id="a_node3"><a xlink:href="st0.func_801AF774.svg" xlink:title="st0.func_801AF774">
<ellipse fill="red" stroke="black" cx="373.39" cy="-198" rx="100.98" ry="18"/>
<text text-anchor="middle" x="373.39" y="-194.3" font-family="Times,serif" font-size="14.00">st0.func_801AF774</text>
</a>
</g>
</g>
<!-- st0.func_801AF774&#45;&gt;st0.func_801BD88C -->
<g id="edge2" class="edge">
<title>st0.func_801AF774&#45;&gt;st0.func_801BD88C</title>
<path fill="none" stroke="black" d="M373.39,-179.93C373.39,-148.97 373.39,-83.3 373.39,-46.13"/>
<polygon fill="black" stroke="black" points="376.89,-46.02 373.39,-36.02 369.89,-46.02 376.89,-46.02"/>
<text text-anchor="middle" x="368.39" y="-168.73" font-family="Times,serif" font-size="14.00">1</text>
</g>
<!-- st0.EntityDracula -->
<g id="node4" class="node">
<title>st0.EntityDracula</title>
<g id="a_node4"><a xlink:href="st0.EntityDracula.svg" xlink:title="st0.EntityDracula">
<ellipse fill="red" stroke="black" cx="585.39" cy="-198" rx="92.88" ry="18"/>
<text text-anchor="middle" x="585.39" y="-194.3" font-family="Times,serif" font-size="14.00">st0.EntityDracula</text>
</a>
</g>
</g>
<!-- st0.EntityDracula&#45;&gt;st0.func_801BD88C -->
<g id="edge3" class="edge">
<title>st0.EntityDracula&#45;&gt;st0.func_801BD88C</title>
<path fill="none" stroke="black" d="M565.44,-180.25C527.49,-148.38 444.77,-78.94 401.32,-42.45"/>
<polygon fill="black" stroke="black" points="403.34,-39.58 393.43,-35.83 398.84,-44.94 403.34,-39.58"/>
<text text-anchor="middle" x="560.44" y="-169.05" font-family="Times,serif" font-size="14.00">1</text>
</g>
</g>
</svg>
