<?xml version="1.0" encoding="UTF-8" standalone="no"?>
<!DOCTYPE svg PUBLIC "-//W3C//DTD SVG 1.1//EN"
 "http://www.w3.org/Graphics/SVG/1.1/DTD/svg11.dtd">
<!-- Generated by graphviz version 2.43.0 (0)
 -->
<!-- Title: st0.func_801BD8F0 Pages: 1 -->
<svg width="2667pt" height="224pt"
 viewBox="0.00 0.00 2667.08 224.00" xmlns="http://www.w3.org/2000/svg" xmlns:xlink="http://www.w3.org/1999/xlink">
<g id="graph0" class="graph" transform="scale(1 1) rotate(0) translate(4 220)">
<title>st0.func_801BD8F0</title>
<polygon fill="white" stroke="transparent" points="-4,4 -4,-220 2663.08,-220 2663.08,4 -4,4"/>
<!-- st0.func_801BD8F0 -->
<g id="node1" class="node">
<title>st0.func_801BD8F0</title>
<ellipse fill="red" stroke="black" cx="1197.49" cy="-198" rx="102.88" ry="18"/>
<text text-anchor="middle" x="1197.49" y="-194.3" font-family="Times,serif" font-size="14.00">st0.func_801BD8F0</text>
</g>
<!-- st0.InitializeEntity -->
<g id="node2" class="node">
<title>st0.InitializeEntity</title>
<g id="a_node2"><a xlink:href="st0.InitializeEntity.svg" xlink:title="st0.InitializeEntity">
<ellipse fill="green" stroke="black" cx="97.49" cy="-18" rx="97.48" ry="18"/>
<text text-anchor="middle" x="97.49" y="-14.3" font-family="Times,serif" font-size="14.00">st0.InitializeEntity</text>
</a>
</g>
</g>
<!-- st0.func_801BD8F0&#45;&gt;st0.InitializeEntity -->
<g id="edge1" class="edge">
<title>st0.func_801BD8F0&#45;&gt;st0.InitializeEntity</title>
<path fill="none" stroke="black" d="M1124.89,-185.25C927.91,-153.38 384.39,-65.42 178.22,-32.06"/>
<polygon fill="black" stroke="black" points="178.5,-28.56 168.07,-30.42 177.38,-35.47 178.5,-28.56"/>
<text text-anchor="middle" x="163.07" y="-34.22" font-family="Times,serif" font-size="14.00">1</text>
</g>
<!-- dra.func_800EDB58 -->
<g id="node3" class="node">
<title>dra.func_800EDB58</title>
<g id="a_node3"><a xlink:href="dra.func_800EDB58.svg" xlink:title="dra.func_800EDB58">
<ellipse fill="green" stroke="black" cx="316.49" cy="-18" rx="103.98" ry="18"/>
<text text-anchor="middle" x="316.49" y="-14.3" font-family="Times,serif" font-size="14.00">dra.func_800EDB58</text>
</a>
</g>
</g>
<!-- st0.func_801BD8F0&#45;&gt;dra.func_800EDB58 -->
<g id="edge2" class="edge">
<title>st0.func_801BD8F0&#45;&gt;dra.func_800EDB58</title>
<path fill="none" stroke="black" d="M1132.71,-183.91C972.97,-151.64 560.91,-68.38 391.22,-34.1"/>
<polygon fill="black" stroke="black" points="391.86,-30.66 381.37,-32.11 390.48,-37.52 391.86,-30.66"/>
<text text-anchor="middle" x="376.37" y="-35.91" font-family="Times,serif" font-size="14.00">1</text>
</g>
<!-- g_api_func_800EDB08 -->
<g id="node4" class="node">
<title>g_api_func_800EDB08</title>
<g id="a_node4"><a xlink:href="g_api_func_800EDB08.svg" xlink:title="g_api_func_800EDB08">
<ellipse fill="lightblue" stroke="black" cx="552.49" cy="-18" rx="114.28" ry="18"/>
<text text-anchor="middle" x="552.49" y="-14.3" font-family="Times,serif" font-size="14.00">g_api_func_800EDB08</text>
</a>
</g>
</g>
<!-- st0.func_801BD8F0&#45;&gt;g_api_func_800EDB08 -->
<g id="edge3" class="edge">
<title>st0.func_801BD8F0&#45;&gt;g_api_func_800EDB08</title>
<path fill="none" stroke="black" d="M1144.98,-182.51C1027.56,-150.1 744.06,-71.87 616.53,-36.67"/>
<polygon fill="black" stroke="black" points="617.09,-33.2 606.52,-33.91 615.23,-39.94 617.09,-33.2"/>
<text text-anchor="middle" x="601.52" y="-37.71" font-family="Times,serif" font-size="14.00">2</text>
</g>
<!-- SetDrawEnv -->
<g id="node5" class="node">
<title>SetDrawEnv</title>
<g id="a_node5"><a xlink:href="SetDrawEnv.svg" xlink:title="SetDrawEnv">
<ellipse fill="lightblue" stroke="black" cx="754.49" cy="-18" rx="69.59" ry="18"/>
<text text-anchor="middle" x="754.49" y="-14.3" font-family="Times,serif" font-size="14.00">SetDrawEnv</text>
</a>
</g>
</g>
<!-- st0.func_801BD8F0&#45;&gt;SetDrawEnv -->
<g id="edge4" class="edge">
<title>st0.func_801BD8F0&#45;&gt;SetDrawEnv</title>
<path fill="none" stroke="black" d="M1158.18,-181.2C1076.13,-148.24 887.07,-72.27 799.95,-37.27"/>
<polygon fill="black" stroke="black" points="801.18,-33.99 790.6,-33.51 798.57,-40.48 801.18,-33.99"/>
<text text-anchor="middle" x="785.6" y="-37.31" font-family="Times,serif" font-size="14.00">1</text>
</g>
<!-- st0.SetStep -->
<g id="node6" class="node">
<title>st0.SetStep</title>
<g id="a_node6"><a xlink:href="st0.SetStep.svg" xlink:title="st0.SetStep">
<ellipse fill="green" stroke="black" cx="907.49" cy="-18" rx="65.79" ry="18"/>
<text text-anchor="middle" x="907.49" y="-14.3" font-family="Times,serif" font-size="14.00">st0.SetStep</text>
</a>
</g>
</g>
<!-- st0.func_801BD8F0&#45;&gt;st0.SetStep -->
<g id="edge5" class="edge">
<title>st0.func_801BD8F0&#45;&gt;st0.SetStep</title>
<path fill="none" stroke="black" d="M1170.73,-180.57C1117.89,-148.14 1000.23,-75.92 941.79,-40.05"/>
<polygon fill="black" stroke="black" points="943.29,-36.87 932.94,-34.62 939.63,-42.83 943.29,-36.87"/>
<text text-anchor="middle" x="927.94" y="-38.42" font-family="Times,serif" font-size="14.00">1</text>
</g>
<!-- ratan2 -->
<g id="node7" class="node">
<title>ratan2</title>
<g id="a_node7"><a xlink:href="ratan2.svg" xlink:title="ratan2">
<ellipse fill="lightblue" stroke="black" cx="1032.49" cy="-18" rx="41.69" ry="18"/>
<text text-anchor="middle" x="1032.49" y="-14.3" font-family="Times,serif" font-size="14.00">ratan2</text>
</a>
</g>
</g>
<!-- st0.func_801BD8F0&#45;&gt;ratan2 -->
<g id="edge6" class="edge">
<title>st0.func_801BD8F0&#45;&gt;ratan2</title>
<path fill="none" stroke="black" d="M1181.67,-179.93C1152.05,-147.98 1088.18,-79.07 1054.42,-42.66"/>
<polygon fill="black" stroke="black" points="1056.67,-39.94 1047.31,-34.99 1051.54,-44.7 1056.67,-39.94"/>
<text text-anchor="middle" x="1042.31" y="-38.79" font-family="Times,serif" font-size="14.00">1</text>
</g>
<!-- rsin -->
<g id="node8" class="node">
<title>rsin</title>
<g id="a_node8"><a xlink:href="rsin.svg" xlink:title="rsin">
<ellipse fill="lightblue" stroke="black" cx="1120.49" cy="-18" rx="28.7" ry="18"/>
<text text-anchor="middle" x="1120.49" y="-14.3" font-family="Times,serif" font-size="14.00">rsin</text>
</a>
</g>
</g>
<!-- st0.func_801BD8F0&#45;&gt;rsin -->
<g id="edge7" class="edge">
<title>st0.func_801BD8F0&#45;&gt;rsin</title>
<path fill="none" stroke="black" d="M1190.11,-179.93C1176.59,-148.67 1147.77,-82.06 1131.78,-45.09"/>
<polygon fill="black" stroke="black" points="1134.81,-43.29 1127.63,-35.5 1128.39,-46.07 1134.81,-43.29"/>
<text text-anchor="middle" x="1122.63" y="-39.3" font-family="Times,serif" font-size="14.00">1</text>
</g>
<!-- rcos -->
<g id="node9" class="node">
<title>rcos</title>
<g id="a_node9"><a xlink:href="rcos.svg" xlink:title="rcos">
<ellipse fill="lightblue" stroke="black" cx="1197.49" cy="-18" rx="30.59" ry="18"/>
<text text-anchor="middle" x="1197.49" y="-14.3" font-family="Times,serif" font-size="14.00">rcos</text>
</a>
</g>
</g>
<!-- st0.func_801BD8F0&#45;&gt;rcos -->
<g id="edge8" class="edge">
<title>st0.func_801BD8F0&#45;&gt;rcos</title>
<path fill="none" stroke="black" d="M1197.49,-179.93C1197.49,-148.97 1197.49,-83.3 1197.49,-46.13"/>
<polygon fill="black" stroke="black" points="1200.99,-46.02 1197.49,-36.02 1193.99,-46.02 1200.99,-46.02"/>
<text text-anchor="middle" x="1192.49" y="-39.82" font-family="Times,serif" font-size="14.00">1</text>
</g>
<!-- SquareRoot0 -->
<g id="node10" class="node">
<title>SquareRoot0</title>
<g id="a_node10"><a xlink:href="SquareRoot0.svg" xlink:title="SquareRoot0">
<ellipse fill="lightblue" stroke="black" cx="1317.49" cy="-18" rx="71.49" ry="18"/>
<text text-anchor="middle" x="1317.49" y="-14.3" font-family="Times,serif" font-size="14.00">SquareRoot0</text>
</a>
</g>
</g>
<!-- st0.func_801BD8F0&#45;&gt;SquareRoot0 -->
<g id="edge9" class="edge">
<title>st0.func_801BD8F0&#45;&gt;SquareRoot0</title>
<path fill="none" stroke="black" d="M1209,-179.93C1230.14,-148.57 1275.29,-81.6 1300.16,-44.71"/>
<polygon fill="black" stroke="black" points="1303.33,-46.26 1306.02,-36.02 1297.53,-42.35 1303.33,-46.26"/>
<text text-anchor="middle" x="1301.02" y="-39.82" font-family="Times,serif" font-size="14.00">1</text>
</g>
<!-- st0.Random -->
<g id="node11" class="node">
<title>st0.Random</title>
<g id="a_node11"><a xlink:href="st0.Random.svg" xlink:title="st0.Random">
<ellipse fill="green" stroke="black" cx="1473.49" cy="-18" rx="66.09" ry="18"/>
<text text-anchor="middle" x="1473.49" y="-14.3" font-family="Times,serif" font-size="14.00">st0.Random</text>
</a>
</g>
</g>
<!-- st0.func_801BD8F0&#45;&gt;st0.Random -->
<g id="edge10" class="edge">
<title>st0.func_801BD8F0&#45;&gt;st0.Random</title>
<path fill="none" stroke="black" d="M1223.46,-180.25C1273.9,-147.72 1385.04,-76.04 1440.57,-40.23"/>
<polygon fill="black" stroke="black" points="1442.48,-43.16 1448.99,-34.8 1438.69,-37.28 1442.48,-43.16"/>
<text text-anchor="middle" x="1443.99" y="-38.6" font-family="Times,serif" font-size="14.00">1</text>
</g>
<!-- SetGeomScreen -->
<g id="node12" class="node">
<title>SetGeomScreen</title>
<g id="a_node12"><a xlink:href="SetGeomScreen.svg" xlink:title="SetGeomScreen">
<ellipse fill="lightblue" stroke="black" cx="1642.49" cy="-18" rx="85.29" ry="18"/>
<text text-anchor="middle" x="1642.49" y="-14.3" font-family="Times,serif" font-size="14.00">SetGeomScreen</text>
</a>
</g>
</g>
<!-- st0.func_801BD8F0&#45;&gt;SetGeomScreen -->
<g id="edge11" class="edge">
<title>st0.func_801BD8F0&#45;&gt;SetGeomScreen</title>
<path fill="none" stroke="black" d="M1236.98,-181.2C1318.89,-148.44 1506.96,-73.21 1595.18,-37.92"/>
<polygon fill="black" stroke="black" points="1596.68,-41.09 1604.67,-34.13 1594.08,-34.59 1596.68,-41.09"/>
<text text-anchor="middle" x="1599.67" y="-37.93" font-family="Times,serif" font-size="14.00">1</text>
</g>
<!-- SetGeomOffset -->
<g id="node13" class="node">
<title>SetGeomOffset</title>
<g id="a_node13"><a xlink:href="SetGeomOffset.svg" xlink:title="SetGeomOffset">
<ellipse fill="lightblue" stroke="black" cx="1826.49" cy="-18" rx="81.49" ry="18"/>
<text text-anchor="middle" x="1826.49" y="-14.3" font-family="Times,serif" font-size="14.00">SetGeomOffset</text>
</a>
</g>
</g>
<!-- st0.func_801BD8F0&#45;&gt;SetGeomOffset -->
<g id="edge12" class="edge">
<title>st0.func_801BD8F0&#45;&gt;SetGeomOffset</title>
<path fill="none" stroke="black" d="M1249.23,-182.36C1365.42,-149.48 1646.41,-69.96 1768.38,-35.45"/>
<polygon fill="black" stroke="black" points="1769.61,-38.73 1778.28,-32.64 1767.7,-32 1769.61,-38.73"/>
<text text-anchor="middle" x="1773.28" y="-36.44" font-family="Times,serif" font-size="14.00">1</text>
</g>
<!-- RotMatrixYXZ -->
<g id="node14" class="node">
<title>RotMatrixYXZ</title>
<g id="a_node14"><a xlink:href="RotMatrixYXZ.svg" xlink:title="RotMatrixYXZ">
<ellipse fill="lightblue" stroke="black" cx="2002.49" cy="-18" rx="76.89" ry="18"/>
<text text-anchor="middle" x="2002.49" y="-14.3" font-family="Times,serif" font-size="14.00">RotMatrixYXZ</text>
</a>
</g>
</g>
<!-- st0.func_801BD8F0&#45;&gt;RotMatrixYXZ -->
<g id="edge13" class="edge">
<title>st0.func_801BD8F0&#45;&gt;RotMatrixYXZ</title>
<path fill="none" stroke="black" d="M1258.66,-183.47C1407.42,-150.58 1787,-66.65 1938.57,-33.13"/>
<polygon fill="black" stroke="black" points="1939.64,-36.48 1948.65,-30.91 1938.13,-29.65 1939.64,-36.48"/>
<text text-anchor="middle" x="1943.65" y="-34.71" font-family="Times,serif" font-size="14.00">1</text>
</g>
<!-- st0.CreateEntityFromCurrentEntity -->
<g id="node15" class="node">
<title>st0.CreateEntityFromCurrentEntity</title>
<g id="a_node15"><a xlink:href="st0.CreateEntityFromCurrentEntity.svg" xlink:title="st0.CreateEntityFromCurrentEntity">
<ellipse fill="green" stroke="black" cx="2275.49" cy="-18" rx="178.97" ry="18"/>
<text text-anchor="middle" x="2275.49" y="-14.3" font-family="Times,serif" font-size="14.00">st0.CreateEntityFromCurrentEntity</text>
</a>
</g>
</g>
<!-- st0.func_801BD8F0&#45;&gt;st0.CreateEntityFromCurrentEntity -->
<g id="edge14" class="edge">
<title>st0.func_801BD8F0&#45;&gt;st0.CreateEntityFromCurrentEntity</title>
<path fill="none" stroke="black" d="M1269.48,-185.11C1457.2,-154.12 1961.96,-70.77 2176.66,-35.32"/>
<polygon fill="black" stroke="black" points="2177.36,-38.75 2186.66,-33.67 2176.22,-31.84 2177.36,-38.75"/>
<text text-anchor="middle" x="2181.66" y="-37.47" font-family="Times,serif" font-size="14.00">2</text>
</g>
<!-- st0.DestroyEntity -->
<g id="node16" class="node">
<title>st0.DestroyEntity</title>
<g id="a_node16"><a xlink:href="st0.DestroyEntity.svg" xlink:title="st0.DestroyEntity">
<ellipse fill="green" stroke="black" cx="2565.49" cy="-18" rx="93.68" ry="18"/>
<text text-anchor="middle" x="2565.49" y="-14.3" font-family="Times,serif" font-size="14.00">st0.DestroyEntity</text>
</a>
</g>
</g>
<!-- st0.func_801BD8F0&#45;&gt;st0.DestroyEntity -->
<g id="edge15" class="edge">
<title>st0.func_801BD8F0&#45;&gt;st0.DestroyEntity</title>
<path fill="none" stroke="black" d="M1280.97,-187.52C1483.83,-164.22 2018.77,-101.31 2463.49,-36 2471.51,-34.82 2479.87,-33.53 2488.21,-32.2"/>
<polygon fill="black" stroke="black" points="2489.02,-35.62 2498.34,-30.57 2487.91,-28.71 2489.02,-35.62"/>
<text text-anchor="middle" x="2493.34" y="-34.37" font-family="Times,serif" font-size="14.00">1</text>
</g>
</g>
</svg>
