<?xml version="1.0" encoding="UTF-8" standalone="no"?>
<!DOCTYPE svg PUBLIC "-//W3C//DTD SVG 1.1//EN"
 "http://www.w3.org/Graphics/SVG/1.1/DTD/svg11.dtd">
<!-- Generated by graphviz version 2.43.0 (0)
 -->
<!-- Title: st0.func_801B8434 Pages: 1 -->
<svg width="406pt" height="131pt"
 viewBox="0.00 0.00 406.43 131.00" xmlns="http://www.w3.org/2000/svg" xmlns:xlink="http://www.w3.org/1999/xlink">
<g id="graph0" class="graph" transform="scale(1 1) rotate(0) translate(4 127)">
<title>st0.func_801B8434</title>
<polygon fill="white" stroke="transparent" points="-4,4 -4,-127 402.43,-127 402.43,4 -4,4"/>
<!-- st0.func_801B8434 -->
<g id="node1" class="node">
<title>st0.func_801B8434</title>
<ellipse fill="green" stroke="black" cx="186.54" cy="-105" rx="100.98" ry="18"/>
<text text-anchor="middle" x="186.54" y="-101.3" font-family="Times,serif" font-size="14.00">st0.func_801B8434</text>
</g>
<!-- st0.MoveEntity -->
<g id="node2" class="node">
<title>st0.MoveEntity</title>
<g id="a_node2"><a xlink:href="st0.MoveEntity.svg" xlink:title="st0.MoveEntity">
<ellipse fill="green" stroke="black" cx="82.54" cy="-18" rx="82.59" ry="18"/>
<text text-anchor="middle" x="82.54" y="-14.3" font-family="Times,serif" font-size="14.00">st0.MoveEntity</text>
</a>
</g>
</g>
<!-- st0.func_801B8434&#45;&gt;st0.MoveEntity -->
<g id="edge1" class="edge">
<title>st0.func_801B8434&#45;&gt;st0.MoveEntity</title>
<path fill="none" stroke="black" d="M166,-87.21C150.23,-74.32 128.27,-56.38 110.84,-42.13"/>
<polygon fill="black" stroke="black" points="112.65,-39.09 102.69,-35.47 108.22,-44.51 112.65,-39.09"/>
<text text-anchor="middle" x="146.54" y="-57.8" font-family="Times,serif" font-size="14.00">1</text>
</g>
<!-- g_api_CheckCollision -->
<g id="node3" class="node">
<title>g_api_CheckCollision</title>
<g id="a_node3"><a xlink:href="g_api_CheckCollision.svg" xlink:title="g_api_CheckCollision">
<ellipse fill="lightblue" stroke="black" cx="290.54" cy="-18" rx="107.78" ry="18"/>
<text text-anchor="middle" x="290.54" y="-14.3" font-family="Times,serif" font-size="14.00">g_api_CheckCollision</text>
</a>
</g>
</g>
<!-- st0.func_801B8434&#45;&gt;g_api_CheckCollision -->
<g id="edge2" class="edge">
<title>st0.func_801B8434&#45;&gt;g_api_CheckCollision</title>
<path fill="none" stroke="black" d="M207.09,-87.21C222.76,-74.4 244.53,-56.61 261.91,-42.4"/>
<polygon fill="black" stroke="black" points="264.51,-44.8 270.04,-35.76 260.08,-39.38 264.51,-44.8"/>
<text text-anchor="middle" x="250.54" y="-57.8" font-family="Times,serif" font-size="14.00">8</text>
</g>
</g>
</svg>
