<?xml version="1.0" encoding="UTF-8" standalone="no"?>
<!DOCTYPE svg PUBLIC "-//W3C//DTD SVG 1.1//EN"
 "http://www.w3.org/Graphics/SVG/1.1/DTD/svg11.dtd">
<!-- Generated by graphviz version 2.43.0 (0)
 -->
<!-- Title: st0.SetStep Pages: 1 -->
<svg width="2350pt" height="131pt"
 viewBox="0.00 0.00 2349.63 131.00" xmlns="http://www.w3.org/2000/svg" xmlns:xlink="http://www.w3.org/1999/xlink">
<g id="graph0" class="graph" transform="scale(1 1) rotate(0) translate(4 127)">
<title>st0.SetStep</title>
<polygon fill="white" stroke="transparent" points="-4,4 -4,-127 2345.63,-127 2345.63,4 -4,4"/>
<!-- st0.SetStep -->
<g id="node1" class="node">
<title>st0.SetStep</title>
<ellipse fill="green" stroke="black" cx="1134.69" cy="-18" rx="65.79" ry="18"/>
<text text-anchor="middle" x="1134.69" y="-14.3" font-family="Times,serif" font-size="14.00">st0.SetStep</text>
</g>
<!-- st0.func_801BD8F0 -->
<g id="node2" class="node">
<title>st0.func_801BD8F0</title>
<g id="a_node2"><a xlink:href="st0.func_801BD8F0.svg" xlink:title="st0.func_801BD8F0">
<ellipse fill="red" stroke="black" cx="102.69" cy="-105" rx="102.88" ry="18"/>
<text text-anchor="middle" x="102.69" y="-101.3" font-family="Times,serif" font-size="14.00">st0.func_801BD8F0</text>
</a>
</g>
</g>
<!-- st0.func_801BD8F0&#45;&gt;st0.SetStep -->
<g id="edge1" class="edge">
<title>st0.func_801BD8F0&#45;&gt;st0.SetStep</title>
<path fill="none" stroke="black" d="M175.14,-92.2C187.96,-90.31 201.21,-88.49 213.69,-87 527.19,-49.49 903.36,-29.45 1060.28,-22.2"/>
<polygon fill="black" stroke="black" points="1060.46,-25.7 1070.29,-21.74 1060.14,-18.7 1060.46,-25.7"/>
<text text-anchor="middle" x="547.69" y="-57.8" font-family="Times,serif" font-size="14.00">1</text>
</g>
<!-- st0.func_801BC5C0 -->
<g id="node3" class="node">
<title>st0.func_801BC5C0</title>
<g id="a_node3"><a xlink:href="st0.func_801BC5C0.svg" xlink:title="st0.func_801BC5C0">
<ellipse fill="red" stroke="black" cx="325.69" cy="-105" rx="102.88" ry="18"/>
<text text-anchor="middle" x="325.69" y="-101.3" font-family="Times,serif" font-size="14.00">st0.func_801BC5C0</text>
</a>
</g>
</g>
<!-- st0.func_801BC5C0&#45;&gt;st0.SetStep -->
<g id="edge2" class="edge">
<title>st0.func_801BC5C0&#45;&gt;st0.SetStep</title>
<path fill="none" stroke="black" d="M398.81,-92.33C411.75,-90.43 425.1,-88.57 437.69,-87 665.28,-58.65 935.93,-35.16 1062.59,-24.76"/>
<polygon fill="black" stroke="black" points="1062.88,-28.24 1072.56,-23.94 1062.31,-21.27 1062.88,-28.24"/>
<text text-anchor="middle" x="729.69" y="-57.8" font-family="Times,serif" font-size="14.00">2</text>
</g>
<!-- st0.EntityCutscenePhotograph -->
<g id="node4" class="node">
<title>st0.EntityCutscenePhotograph</title>
<g id="a_node4"><a xlink:href="st0.EntityCutscenePhotograph.svg" xlink:title="st0.EntityCutscenePhotograph">
<ellipse fill="red" stroke="black" cx="600.69" cy="-105" rx="154.07" ry="18"/>
<text text-anchor="middle" x="600.69" y="-101.3" font-family="Times,serif" font-size="14.00">st0.EntityCutscenePhotograph</text>
</a>
</g>
</g>
<!-- st0.EntityCutscenePhotograph&#45;&gt;st0.SetStep -->
<g id="edge3" class="edge">
<title>st0.EntityCutscenePhotograph&#45;&gt;st0.SetStep</title>
<path fill="none" stroke="black" d="M687.97,-90.11C794.82,-73.1 973.35,-44.68 1069.17,-29.43"/>
<polygon fill="black" stroke="black" points="1069.98,-32.84 1079.3,-27.82 1068.88,-25.93 1069.98,-32.84"/>
<text text-anchor="middle" x="904.69" y="-57.8" font-family="Times,serif" font-size="14.00">1</text>
</g>
<!-- st0.EntityCutscene -->
<g id="node5" class="node">
<title>st0.EntityCutscene</title>
<g id="a_node5"><a xlink:href="st0.EntityCutscene.svg" xlink:title="st0.EntityCutscene">
<ellipse fill="green" stroke="black" cx="872.69" cy="-105" rx="100.18" ry="18"/>
<text text-anchor="middle" x="872.69" y="-101.3" font-family="Times,serif" font-size="14.00">st0.EntityCutscene</text>
</a>
</g>
</g>
<!-- st0.EntityCutscene&#45;&gt;st0.SetStep -->
<g id="edge4" class="edge">
<title>st0.EntityCutscene&#45;&gt;st0.SetStep</title>
<path fill="none" stroke="black" d="M918.93,-89C965.38,-73.93 1036.76,-50.77 1084.55,-35.27"/>
<polygon fill="black" stroke="black" points="1085.64,-38.59 1094.07,-32.18 1083.48,-31.93 1085.64,-38.59"/>
<text text-anchor="middle" x="1024.69" y="-57.8" font-family="Times,serif" font-size="14.00">5</text>
</g>
<!-- st0.EntityDraculaRainAttack -->
<g id="node6" class="node">
<title>st0.EntityDraculaRainAttack</title>
<g id="a_node6"><a xlink:href="st0.EntityDraculaRainAttack.svg" xlink:title="st0.EntityDraculaRainAttack">
<ellipse fill="green" stroke="black" cx="1134.69" cy="-105" rx="143.77" ry="18"/>
<text text-anchor="middle" x="1134.69" y="-101.3" font-family="Times,serif" font-size="14.00">st0.EntityDraculaRainAttack</text>
</a>
</g>
</g>
<!-- st0.EntityDraculaRainAttack&#45;&gt;st0.SetStep -->
<g id="edge5" class="edge">
<title>st0.EntityDraculaRainAttack&#45;&gt;st0.SetStep</title>
<path fill="none" stroke="black" d="M1134.69,-86.8C1134.69,-75.16 1134.69,-59.55 1134.69,-46.24"/>
<polygon fill="black" stroke="black" points="1138.19,-46.18 1134.69,-36.18 1131.19,-46.18 1138.19,-46.18"/>
<text text-anchor="middle" x="1139.69" y="-57.8" font-family="Times,serif" font-size="14.00">1</text>
</g>
<!-- st0.EntityDraculaMeteorball -->
<g id="node7" class="node">
<title>st0.EntityDraculaMeteorball</title>
<g id="a_node7"><a xlink:href="st0.EntityDraculaMeteorball.svg" xlink:title="st0.EntityDraculaMeteorball">
<ellipse fill="green" stroke="black" cx="1439.69" cy="-105" rx="143.77" ry="18"/>
<text text-anchor="middle" x="1439.69" y="-101.3" font-family="Times,serif" font-size="14.00">st0.EntityDraculaMeteorball</text>
</a>
</g>
</g>
<!-- st0.EntityDraculaMeteorball&#45;&gt;st0.SetStep -->
<g id="edge6" class="edge">
<title>st0.EntityDraculaMeteorball&#45;&gt;st0.SetStep</title>
<path fill="none" stroke="black" d="M1383.75,-88.41C1328.22,-72.93 1243.67,-49.37 1188.79,-34.08"/>
<polygon fill="black" stroke="black" points="1189.48,-30.63 1178.9,-31.32 1187.6,-37.38 1189.48,-30.63"/>
<text text-anchor="middle" x="1310.69" y="-57.8" font-family="Times,serif" font-size="14.00">1</text>
</g>
<!-- st0.EntityDraculaFinalForm -->
<g id="node8" class="node">
<title>st0.EntityDraculaFinalForm</title>
<g id="a_node8"><a xlink:href="st0.EntityDraculaFinalForm.svg" xlink:title="st0.EntityDraculaFinalForm">
<ellipse fill="red" stroke="black" cx="1742.69" cy="-105" rx="141.07" ry="18"/>
<text text-anchor="middle" x="1742.69" y="-101.3" font-family="Times,serif" font-size="14.00">st0.EntityDraculaFinalForm</text>
</a>
</g>
</g>
<!-- st0.EntityDraculaFinalForm&#45;&gt;st0.SetStep -->
<g id="edge7" class="edge">
<title>st0.EntityDraculaFinalForm&#45;&gt;st0.SetStep</title>
<path fill="none" stroke="black" d="M1651.34,-91.23C1528.05,-73.99 1311.29,-43.69 1201.89,-28.39"/>
<polygon fill="black" stroke="black" points="1202.35,-24.92 1191.96,-27.01 1201.38,-31.86 1202.35,-24.92"/>
<text text-anchor="middle" x="1485.19" y="-57.8" font-family="Times,serif" font-size="14.00">10</text>
</g>
<!-- st0.EntityDraculaGlass -->
<g id="node9" class="node">
<title>st0.EntityDraculaGlass</title>
<g id="a_node9"><a xlink:href="st0.EntityDraculaGlass.svg" xlink:title="st0.EntityDraculaGlass">
<ellipse fill="green" stroke="black" cx="2019.69" cy="-105" rx="118.08" ry="18"/>
<text text-anchor="middle" x="2019.69" y="-101.3" font-family="Times,serif" font-size="14.00">st0.EntityDraculaGlass</text>
</a>
</g>
</g>
<!-- st0.EntityDraculaGlass&#45;&gt;st0.SetStep -->
<g id="edge8" class="edge">
<title>st0.EntityDraculaGlass&#45;&gt;st0.SetStep</title>
<path fill="none" stroke="black" d="M1935.73,-92.24C1921.38,-90.38 1906.62,-88.56 1892.69,-87 1641.54,-58.94 1342.55,-34.85 1207.4,-24.46"/>
<polygon fill="black" stroke="black" points="1207.42,-20.95 1197.18,-23.68 1206.88,-27.93 1207.42,-20.95"/>
<text text-anchor="middle" x="1711.69" y="-57.8" font-family="Times,serif" font-size="14.00">2</text>
</g>
<!-- st0.EntityDracula -->
<g id="node10" class="node">
<title>st0.EntityDracula</title>
<g id="a_node10"><a xlink:href="st0.EntityDracula.svg" xlink:title="st0.EntityDracula">
<ellipse fill="red" stroke="black" cx="2248.69" cy="-105" rx="92.88" ry="18"/>
<text text-anchor="middle" x="2248.69" y="-101.3" font-family="Times,serif" font-size="14.00">st0.EntityDracula</text>
</a>
</g>
</g>
<!-- st0.EntityDracula&#45;&gt;st0.SetStep -->
<g id="edge9" class="edge">
<title>st0.EntityDracula&#45;&gt;st0.SetStep</title>
<path fill="none" stroke="black" d="M2183.24,-92.22C2171.12,-90.28 2158.54,-88.44 2146.69,-87 1798.06,-44.53 1378.39,-26.96 1209.99,-21.27"/>
<polygon fill="black" stroke="black" points="1209.85,-17.76 1199.74,-20.93 1209.62,-24.76 1209.85,-17.76"/>
<text text-anchor="middle" x="1959.69" y="-57.8" font-family="Times,serif" font-size="14.00">7</text>
</g>
</g>
</svg>
