<?xml version="1.0" encoding="UTF-8" standalone="no"?>
<!DOCTYPE svg PUBLIC "-//W3C//DTD SVG 1.1//EN"
 "http://www.w3.org/Graphics/SVG/1.1/DTD/svg11.dtd">
<!-- Generated by graphviz version 2.43.0 (0)
 -->
<!-- Title: st0.func_801B0464 Pages: 1 -->
<svg width="2824pt" height="131pt"
 viewBox="0.00 0.00 2823.98 131.00" xmlns="http://www.w3.org/2000/svg" xmlns:xlink="http://www.w3.org/1999/xlink">
<g id="graph0" class="graph" transform="scale(1 1) rotate(0) translate(4 127)">
<title>st0.func_801B0464</title>
<polygon fill="white" stroke="transparent" points="-4,4 -4,-127 2819.98,-127 2819.98,4 -4,4"/>
<!-- st0.func_801B0464 -->
<g id="node1" class="node">
<title>st0.func_801B0464</title>
<ellipse fill="red" stroke="black" cx="1362.44" cy="-105" rx="100.98" ry="18"/>
<text text-anchor="middle" x="1362.44" y="-101.3" font-family="Times,serif" font-size="14.00">st0.func_801B0464</text>
</g>
<!-- dra.AllocPrimitives -->
<g id="node2" class="node">
<title>dra.AllocPrimitives</title>
<g id="a_node2"><a xlink:href="dra.AllocPrimitives.svg" xlink:title="dra.AllocPrimitives">
<ellipse fill="green" stroke="black" cx="99.44" cy="-18" rx="99.38" ry="18"/>
<text text-anchor="middle" x="99.44" y="-14.3" font-family="Times,serif" font-size="14.00">dra.AllocPrimitives</text>
</a>
</g>
</g>
<!-- st0.func_801B0464&#45;&gt;dra.AllocPrimitives -->
<g id="edge1" class="edge">
<title>st0.func_801B0464&#45;&gt;dra.AllocPrimitives</title>
<path fill="none" stroke="black" d="M1262.8,-102.3C1062.29,-97.95 596.02,-83.22 207.44,-36 198.45,-34.91 189.05,-33.63 179.72,-32.28"/>
<polygon fill="black" stroke="black" points="180.04,-28.79 169.64,-30.78 179.02,-35.71 180.04,-28.79"/>
<text text-anchor="middle" x="529.44" y="-57.8" font-family="Times,serif" font-size="14.00">3</text>
</g>
<!-- st0.func_801B0324 -->
<g id="node3" class="node">
<title>st0.func_801B0324</title>
<g id="a_node3"><a xlink:href="st0.func_801B0324.svg" xlink:title="st0.func_801B0324">
<ellipse fill="green" stroke="black" cx="317.44" cy="-18" rx="100.98" ry="18"/>
<text text-anchor="middle" x="317.44" y="-14.3" font-family="Times,serif" font-size="14.00">st0.func_801B0324</text>
</a>
</g>
</g>
<!-- st0.func_801B0464&#45;&gt;st0.func_801B0324 -->
<g id="edge2" class="edge">
<title>st0.func_801B0464&#45;&gt;st0.func_801B0324</title>
<path fill="none" stroke="black" d="M1265.1,-100.25C1094.63,-92.94 731.19,-74.06 426.44,-36 417.51,-34.88 408.18,-33.61 398.91,-32.26"/>
<polygon fill="black" stroke="black" points="399.29,-28.78 388.88,-30.78 398.27,-35.7 399.29,-28.78"/>
<text text-anchor="middle" x="739.44" y="-57.8" font-family="Times,serif" font-size="14.00">1</text>
</g>
<!-- st0.DestroyEntity -->
<g id="node4" class="node">
<title>st0.DestroyEntity</title>
<g id="a_node4"><a xlink:href="st0.DestroyEntity.svg" xlink:title="st0.DestroyEntity">
<ellipse fill="green" stroke="black" cx="529.44" cy="-18" rx="93.68" ry="18"/>
<text text-anchor="middle" x="529.44" y="-14.3" font-family="Times,serif" font-size="14.00">st0.DestroyEntity</text>
</a>
</g>
</g>
<!-- st0.func_801B0464&#45;&gt;st0.DestroyEntity -->
<g id="edge3" class="edge">
<title>st0.func_801B0464&#45;&gt;st0.DestroyEntity</title>
<path fill="none" stroke="black" d="M1270.45,-97.66C1131.64,-87.59 860.51,-65.97 631.44,-36 623.12,-34.91 614.45,-33.65 605.82,-32.33"/>
<polygon fill="black" stroke="black" points="606.15,-28.84 595.73,-30.74 605.07,-35.75 606.15,-28.84"/>
<text text-anchor="middle" x="917.44" y="-57.8" font-family="Times,serif" font-size="14.00">2</text>
</g>
<!-- dra.func_80131F68 -->
<g id="node5" class="node">
<title>dra.func_80131F68</title>
<g id="a_node5"><a xlink:href="dra.func_80131F68.svg" xlink:title="dra.func_80131F68">
<ellipse fill="green" stroke="black" cx="741.44" cy="-18" rx="100.98" ry="18"/>
<text text-anchor="middle" x="741.44" y="-14.3" font-family="Times,serif" font-size="14.00">dra.func_80131F68</text>
</a>
</g>
</g>
<!-- st0.func_801B0464&#45;&gt;dra.func_80131F68 -->
<g id="edge4" class="edge">
<title>st0.func_801B0464&#45;&gt;dra.func_80131F68</title>
<path fill="none" stroke="black" d="M1282.55,-93.96C1181.74,-81.16 1003.09,-58.04 850.44,-36 841.83,-34.76 832.85,-33.42 823.89,-32.06"/>
<polygon fill="black" stroke="black" points="824.23,-28.57 813.82,-30.52 823.17,-35.49 824.23,-28.57"/>
<text text-anchor="middle" x="1094.44" y="-57.8" font-family="Times,serif" font-size="14.00">3</text>
</g>
<!-- st0.func_801B1298 -->
<g id="node6" class="node">
<title>st0.func_801B1298</title>
<g id="a_node6"><a xlink:href="st0.func_801B1298.svg" xlink:title="st0.func_801B1298">
<ellipse fill="red" stroke="black" cx="960.44" cy="-18" rx="100.98" ry="18"/>
<text text-anchor="middle" x="960.44" y="-14.3" font-family="Times,serif" font-size="14.00">st0.func_801B1298</text>
</a>
</g>
</g>
<!-- st0.func_801B0464&#45;&gt;st0.func_801B1298 -->
<g id="edge5" class="edge">
<title>st0.func_801B0464&#45;&gt;st0.func_801B1298</title>
<path fill="none" stroke="black" d="M1300.07,-90.81C1227.89,-75.55 1109.2,-50.45 1032.96,-34.33"/>
<polygon fill="black" stroke="black" points="1033.47,-30.86 1022.96,-32.22 1032.02,-37.71 1033.47,-30.86"/>
<text text-anchor="middle" x="1191.44" y="-57.8" font-family="Times,serif" font-size="14.00">1</text>
</g>
<!-- st0.func_801B0414 -->
<g id="node7" class="node">
<title>st0.func_801B0414</title>
<g id="a_node7"><a xlink:href="st0.func_801B0414.svg" xlink:title="st0.func_801B0414">
<ellipse fill="red" stroke="black" cx="1179.44" cy="-18" rx="100.98" ry="18"/>
<text text-anchor="middle" x="1179.44" y="-14.3" font-family="Times,serif" font-size="14.00">st0.func_801B0414</text>
</a>
</g>
</g>
<!-- st0.func_801B0464&#45;&gt;st0.func_801B0414 -->
<g id="edge6" class="edge">
<title>st0.func_801B0464&#45;&gt;st0.func_801B0414</title>
<path fill="none" stroke="black" d="M1328.02,-88.01C1298.34,-74.22 1255.31,-54.24 1223.19,-39.32"/>
<polygon fill="black" stroke="black" points="1224.56,-36.1 1214.02,-35.06 1221.61,-42.45 1224.56,-36.1"/>
<text text-anchor="middle" x="1287.44" y="-57.8" font-family="Times,serif" font-size="14.00">1</text>
</g>
<!-- dra.PlaySfx -->
<g id="node8" class="node">
<title>dra.PlaySfx</title>
<g id="a_node8"><a xlink:href="dra.PlaySfx.svg" xlink:title="dra.PlaySfx">
<ellipse fill="green" stroke="black" cx="1362.44" cy="-18" rx="64.19" ry="18"/>
<text text-anchor="middle" x="1362.44" y="-14.3" font-family="Times,serif" font-size="14.00">dra.PlaySfx</text>
</a>
</g>
</g>
<!-- st0.func_801B0464&#45;&gt;dra.PlaySfx -->
<g id="edge7" class="edge">
<title>st0.func_801B0464&#45;&gt;dra.PlaySfx</title>
<path fill="none" stroke="black" d="M1362.44,-86.8C1362.44,-75.16 1362.44,-59.55 1362.44,-46.24"/>
<polygon fill="black" stroke="black" points="1365.94,-46.18 1362.44,-36.18 1358.94,-46.18 1365.94,-46.18"/>
<text text-anchor="middle" x="1367.44" y="-57.8" font-family="Times,serif" font-size="14.00">1</text>
</g>
<!-- st0.func_801B0058 -->
<g id="node9" class="node">
<title>st0.func_801B0058</title>
<g id="a_node9"><a xlink:href="st0.func_801B0058.svg" xlink:title="st0.func_801B0058">
<ellipse fill="green" stroke="black" cx="1545.44" cy="-18" rx="100.98" ry="18"/>
<text text-anchor="middle" x="1545.44" y="-14.3" font-family="Times,serif" font-size="14.00">st0.func_801B0058</text>
</a>
</g>
</g>
<!-- st0.func_801B0464&#45;&gt;st0.func_801B0058 -->
<g id="edge8" class="edge">
<title>st0.func_801B0464&#45;&gt;st0.func_801B0058</title>
<path fill="none" stroke="black" d="M1396.86,-88.01C1426.55,-74.22 1469.57,-54.24 1501.69,-39.32"/>
<polygon fill="black" stroke="black" points="1503.27,-42.45 1510.86,-35.06 1500.32,-36.1 1503.27,-42.45"/>
<text text-anchor="middle" x="1470.44" y="-57.8" font-family="Times,serif" font-size="14.00">1</text>
</g>
<!-- dra.FreePrimitives -->
<g id="node10" class="node">
<title>dra.FreePrimitives</title>
<g id="a_node10"><a xlink:href="dra.FreePrimitives.svg" xlink:title="dra.FreePrimitives">
<ellipse fill="green" stroke="black" cx="1763.44" cy="-18" rx="98.58" ry="18"/>
<text text-anchor="middle" x="1763.44" y="-14.3" font-family="Times,serif" font-size="14.00">dra.FreePrimitives</text>
</a>
</g>
</g>
<!-- st0.func_801B0464&#45;&gt;dra.FreePrimitives -->
<g id="edge9" class="edge">
<title>st0.func_801B0464&#45;&gt;dra.FreePrimitives</title>
<path fill="none" stroke="black" d="M1424.66,-90.81C1496.87,-75.5 1615.75,-50.31 1691.77,-34.19"/>
<polygon fill="black" stroke="black" points="1692.68,-37.58 1701.74,-32.08 1691.23,-30.73 1692.68,-37.58"/>
<text text-anchor="middle" x="1592.44" y="-57.8" font-family="Times,serif" font-size="14.00">2</text>
</g>
<!-- st0.DestroyEntityFromIndex -->
<g id="node11" class="node">
<title>st0.DestroyEntityFromIndex</title>
<g id="a_node11"><a xlink:href="st0.DestroyEntityFromIndex.svg" xlink:title="st0.DestroyEntityFromIndex">
<ellipse fill="green" stroke="black" cx="2024.44" cy="-18" rx="144.07" ry="18"/>
<text text-anchor="middle" x="2024.44" y="-14.3" font-family="Times,serif" font-size="14.00">st0.DestroyEntityFromIndex</text>
</a>
</g>
</g>
<!-- st0.func_801B0464&#45;&gt;st0.DestroyEntityFromIndex -->
<g id="edge10" class="edge">
<title>st0.func_801B0464&#45;&gt;st0.DestroyEntityFromIndex</title>
<path fill="none" stroke="black" d="M1441.64,-93.83C1560.29,-78.6 1784.46,-49.81 1917.53,-32.73"/>
<polygon fill="black" stroke="black" points="1918.27,-36.16 1927.74,-31.42 1917.37,-29.22 1918.27,-36.16"/>
<text text-anchor="middle" x="1738.44" y="-57.8" font-family="Times,serif" font-size="14.00">1</text>
</g>
<!-- st0.func_801B0280 -->
<g id="node12" class="node">
<title>st0.func_801B0280</title>
<g id="a_node12"><a xlink:href="st0.func_801B0280.svg" xlink:title="st0.func_801B0280">
<ellipse fill="green" stroke="black" cx="2287.44" cy="-18" rx="100.98" ry="18"/>
<text text-anchor="middle" x="2287.44" y="-14.3" font-family="Times,serif" font-size="14.00">st0.func_801B0280</text>
</a>
</g>
</g>
<!-- st0.func_801B0464&#45;&gt;st0.func_801B0280 -->
<g id="edge11" class="edge">
<title>st0.func_801B0464&#45;&gt;st0.func_801B0280</title>
<path fill="none" stroke="black" d="M1456.16,-98.32C1607.98,-88.65 1916.96,-66.96 2177.44,-36 2186.77,-34.89 2196.52,-33.59 2206.2,-32.21"/>
<polygon fill="black" stroke="black" points="2206.85,-35.65 2216.24,-30.75 2205.84,-28.73 2206.85,-35.65"/>
<text text-anchor="middle" x="2004.44" y="-57.8" font-family="Times,serif" font-size="14.00">1</text>
</g>
<!-- st0.func_801B0180 -->
<g id="node13" class="node">
<title>st0.func_801B0180</title>
<g id="a_node13"><a xlink:href="st0.func_801B0180.svg" xlink:title="st0.func_801B0180">
<ellipse fill="green" stroke="black" cx="2506.44" cy="-18" rx="100.98" ry="18"/>
<text text-anchor="middle" x="2506.44" y="-14.3" font-family="Times,serif" font-size="14.00">st0.func_801B0180</text>
</a>
</g>
</g>
<!-- st0.func_801B0464&#45;&gt;st0.func_801B0180 -->
<g id="edge12" class="edge">
<title>st0.func_801B0464&#45;&gt;st0.func_801B0180</title>
<path fill="none" stroke="black" d="M1460.88,-101.11C1645.23,-94.91 2054.86,-77.38 2397.44,-36 2406.45,-34.91 2415.85,-33.64 2425.2,-32.3"/>
<polygon fill="black" stroke="black" points="2425.91,-35.73 2435.3,-30.82 2424.9,-28.81 2425.91,-35.73"/>
<text text-anchor="middle" x="2234.44" y="-57.8" font-family="Times,serif" font-size="14.00">1</text>
</g>
<!-- st0.SetGameState -->
<g id="node14" class="node">
<title>st0.SetGameState</title>
<g id="a_node14"><a xlink:href="st0.SetGameState.svg" xlink:title="st0.SetGameState">
<ellipse fill="green" stroke="black" cx="2720.44" cy="-18" rx="95.58" ry="18"/>
<text text-anchor="middle" x="2720.44" y="-14.3" font-family="Times,serif" font-size="14.00">st0.SetGameState</text>
</a>
</g>
</g>
<!-- st0.func_801B0464&#45;&gt;st0.SetGameState -->
<g id="edge13" class="edge">
<title>st0.func_801B0464&#45;&gt;st0.SetGameState</title>
<path fill="none" stroke="black" d="M1461.61,-101.63C1624.79,-97.38 1960.07,-87.15 2243.44,-69 2409.53,-58.36 2451.32,-56.77 2616.44,-36 2625.01,-34.92 2633.96,-33.66 2642.86,-32.33"/>
<polygon fill="black" stroke="black" points="2643.5,-35.77 2652.85,-30.79 2642.44,-28.85 2643.5,-35.77"/>
<text text-anchor="middle" x="2460.44" y="-57.8" font-family="Times,serif" font-size="14.00">2</text>
</g>
</g>
</svg>
