<?xml version="1.0" encoding="UTF-8" standalone="no"?>
<!DOCTYPE svg PUBLIC "-//W3C//DTD SVG 1.1//EN"
 "http://www.w3.org/Graphics/SVG/1.1/DTD/svg11.dtd">
<!-- Generated by graphviz version 2.43.0 (0)
 -->
<!-- Title: st0.EntityDraculaGlass Pages: 1 -->
<svg width="1879pt" height="224pt"
 viewBox="0.00 0.00 1879.08 224.00" xmlns="http://www.w3.org/2000/svg" xmlns:xlink="http://www.w3.org/1999/xlink">
<g id="graph0" class="graph" transform="scale(1 1) rotate(0) translate(4 220)">
<title>st0.EntityDraculaGlass</title>
<polygon fill="white" stroke="transparent" points="-4,4 -4,-220 1875.08,-220 1875.08,4 -4,4"/>
<!-- st0.EntityDraculaGlass -->
<g id="node1" class="node">
<title>st0.EntityDraculaGlass</title>
<ellipse fill="green" stroke="black" cx="749.49" cy="-198" rx="118.08" ry="18"/>
<text text-anchor="middle" x="749.49" y="-194.3" font-family="Times,serif" font-size="14.00">st0.EntityDraculaGlass</text>
</g>
<!-- st0.InitializeEntity -->
<g id="node2" class="node">
<title>st0.InitializeEntity</title>
<g id="a_node2"><a xlink:href="st0.InitializeEntity.svg" xlink:title="st0.InitializeEntity">
<ellipse fill="green" stroke="black" cx="97.49" cy="-18" rx="97.48" ry="18"/>
<text text-anchor="middle" x="97.49" y="-14.3" font-family="Times,serif" font-size="14.00">st0.InitializeEntity</text>
</a>
</g>
</g>
<!-- st0.EntityDraculaGlass&#45;&gt;st0.InitializeEntity -->
<g id="edge1" class="edge">
<title>st0.EntityDraculaGlass&#45;&gt;st0.InitializeEntity</title>
<path fill="none" stroke="black" d="M694.46,-181.98C573.85,-149.05 286.86,-70.7 159.83,-36.02"/>
<polygon fill="black" stroke="black" points="160.43,-32.56 149.87,-33.3 158.59,-39.31 160.43,-32.56"/>
<text text-anchor="middle" x="144.87" y="-37.1" font-family="Times,serif" font-size="14.00">1</text>
</g>
<!-- st0.Random -->
<g id="node3" class="node">
<title>st0.Random</title>
<g id="a_node3"><a xlink:href="st0.Random.svg" xlink:title="st0.Random">
<ellipse fill="green" stroke="black" cx="279.49" cy="-18" rx="66.09" ry="18"/>
<text text-anchor="middle" x="279.49" y="-14.3" font-family="Times,serif" font-size="14.00">st0.Random</text>
</a>
</g>
</g>
<!-- st0.EntityDraculaGlass&#45;&gt;st0.Random -->
<g id="edge2" class="edge">
<title>st0.EntityDraculaGlass&#45;&gt;st0.Random</title>
<path fill="none" stroke="black" d="M707.37,-181.05C619.54,-147.78 417.44,-71.24 325.97,-36.6"/>
<polygon fill="black" stroke="black" points="327.01,-33.26 316.42,-32.99 324.54,-39.8 327.01,-33.26"/>
<text text-anchor="middle" x="311.42" y="-36.79" font-family="Times,serif" font-size="14.00">2</text>
</g>
<!-- rcos -->
<g id="node4" class="node">
<title>rcos</title>
<g id="a_node4"><a xlink:href="rcos.svg" xlink:title="rcos">
<ellipse fill="lightblue" stroke="black" cx="394.49" cy="-18" rx="30.59" ry="18"/>
<text text-anchor="middle" x="394.49" y="-14.3" font-family="Times,serif" font-size="14.00">rcos</text>
</a>
</g>
</g>
<!-- st0.EntityDraculaGlass&#45;&gt;rcos -->
<g id="edge3" class="edge">
<title>st0.EntityDraculaGlass&#45;&gt;rcos</title>
<path fill="none" stroke="black" d="M716.73,-180.57C648.84,-146.53 493.52,-68.65 426.38,-34.99"/>
<polygon fill="black" stroke="black" points="427.64,-31.71 417.14,-30.35 424.51,-37.97 427.64,-31.71"/>
<text text-anchor="middle" x="422.14" y="-34.15" font-family="Times,serif" font-size="14.00">1</text>
</g>
<!-- rsin -->
<g id="node5" class="node">
<title>rsin</title>
<g id="a_node5"><a xlink:href="rsin.svg" xlink:title="rsin">
<ellipse fill="lightblue" stroke="black" cx="471.49" cy="-18" rx="28.7" ry="18"/>
<text text-anchor="middle" x="471.49" y="-14.3" font-family="Times,serif" font-size="14.00">rsin</text>
</a>
</g>
</g>
<!-- st0.EntityDraculaGlass&#45;&gt;rsin -->
<g id="edge4" class="edge">
<title>st0.EntityDraculaGlass&#45;&gt;rsin</title>
<path fill="none" stroke="black" d="M723.59,-180.41C671.34,-146.96 553.74,-71.66 499.66,-37.04"/>
<polygon fill="black" stroke="black" points="501.25,-33.9 490.94,-31.45 497.47,-39.79 501.25,-33.9"/>
<text text-anchor="middle" x="495.94" y="-35.25" font-family="Times,serif" font-size="14.00">1</text>
</g>
<!-- st0.SetStep -->
<g id="node6" class="node">
<title>st0.SetStep</title>
<g id="a_node6"><a xlink:href="st0.SetStep.svg" xlink:title="st0.SetStep">
<ellipse fill="green" stroke="black" cx="583.49" cy="-18" rx="65.79" ry="18"/>
<text text-anchor="middle" x="583.49" y="-14.3" font-family="Times,serif" font-size="14.00">st0.SetStep</text>
</a>
</g>
</g>
<!-- st0.EntityDraculaGlass&#45;&gt;st0.SetStep -->
<g id="edge5" class="edge">
<title>st0.EntityDraculaGlass&#45;&gt;st0.SetStep</title>
<path fill="none" stroke="black" d="M733.57,-179.93C704,-148.22 640.49,-80.12 606.34,-43.5"/>
<polygon fill="black" stroke="black" points="608.5,-40.68 599.12,-35.76 603.38,-45.46 608.5,-40.68"/>
<text text-anchor="middle" x="594.12" y="-39.56" font-family="Times,serif" font-size="14.00">2</text>
</g>
<!-- st0.MoveEntity -->
<g id="node7" class="node">
<title>st0.MoveEntity</title>
<g id="a_node7"><a xlink:href="st0.MoveEntity.svg" xlink:title="st0.MoveEntity">
<ellipse fill="green" stroke="black" cx="749.49" cy="-18" rx="82.59" ry="18"/>
<text text-anchor="middle" x="749.49" y="-14.3" font-family="Times,serif" font-size="14.00">st0.MoveEntity</text>
</a>
</g>
</g>
<!-- st0.EntityDraculaGlass&#45;&gt;st0.MoveEntity -->
<g id="edge6" class="edge">
<title>st0.EntityDraculaGlass&#45;&gt;st0.MoveEntity</title>
<path fill="none" stroke="black" d="M749.49,-179.93C749.49,-148.97 749.49,-83.3 749.49,-46.13"/>
<polygon fill="black" stroke="black" points="752.99,-46.02 749.49,-36.02 745.99,-46.02 752.99,-46.02"/>
<text text-anchor="middle" x="744.49" y="-39.82" font-family="Times,serif" font-size="14.00">2</text>
</g>
<!-- dra.PlaySfx -->
<g id="node8" class="node">
<title>dra.PlaySfx</title>
<g id="a_node8"><a xlink:href="dra.PlaySfx.svg" xlink:title="dra.PlaySfx">
<ellipse fill="green" stroke="black" cx="914.49" cy="-18" rx="64.19" ry="18"/>
<text text-anchor="middle" x="914.49" y="-14.3" font-family="Times,serif" font-size="14.00">dra.PlaySfx</text>
</a>
</g>
</g>
<!-- st0.EntityDraculaGlass&#45;&gt;dra.PlaySfx -->
<g id="edge7" class="edge">
<title>st0.EntityDraculaGlass&#45;&gt;dra.PlaySfx</title>
<path fill="none" stroke="black" d="M765.31,-179.93C794.78,-148.14 858.16,-79.77 892.04,-43.22"/>
<polygon fill="black" stroke="black" points="894.97,-45.21 899.2,-35.5 889.83,-40.45 894.97,-45.21"/>
<text text-anchor="middle" x="894.2" y="-39.3" font-family="Times,serif" font-size="14.00">1</text>
</g>
<!-- st0.AnimateEntity -->
<g id="node9" class="node">
<title>st0.AnimateEntity</title>
<g id="a_node9"><a xlink:href="st0.AnimateEntity.svg" xlink:title="st0.AnimateEntity">
<ellipse fill="green" stroke="black" cx="1092.49" cy="-18" rx="95.58" ry="18"/>
<text text-anchor="middle" x="1092.49" y="-14.3" font-family="Times,serif" font-size="14.00">st0.AnimateEntity</text>
</a>
</g>
</g>
<!-- st0.EntityDraculaGlass&#45;&gt;st0.AnimateEntity -->
<g id="edge8" class="edge">
<title>st0.EntityDraculaGlass&#45;&gt;st0.AnimateEntity</title>
<path fill="none" stroke="black" d="M781.15,-180.57C843.71,-148.1 983.11,-75.76 1052.15,-39.94"/>
<polygon fill="black" stroke="black" points="1054.15,-42.84 1061.41,-35.13 1050.92,-36.63 1054.15,-42.84"/>
<text text-anchor="middle" x="1056.41" y="-38.93" font-family="Times,serif" font-size="14.00">1</text>
</g>
<!-- st0.AllocEntity -->
<g id="node10" class="node">
<title>st0.AllocEntity</title>
<g id="a_node10"><a xlink:href="st0.AllocEntity.svg" xlink:title="st0.AllocEntity">
<ellipse fill="green" stroke="black" cx="1285.49" cy="-18" rx="79.09" ry="18"/>
<text text-anchor="middle" x="1285.49" y="-14.3" font-family="Times,serif" font-size="14.00">st0.AllocEntity</text>
</a>
</g>
</g>
<!-- st0.EntityDraculaGlass&#45;&gt;st0.AllocEntity -->
<g id="edge9" class="edge">
<title>st0.EntityDraculaGlass&#45;&gt;st0.AllocEntity</title>
<path fill="none" stroke="black" d="M796.59,-181.36C896.44,-148.2 1128.79,-71.04 1233.13,-36.39"/>
<polygon fill="black" stroke="black" points="1234.43,-39.65 1242.82,-33.17 1232.22,-33 1234.43,-39.65"/>
<text text-anchor="middle" x="1237.82" y="-36.97" font-family="Times,serif" font-size="14.00">1</text>
</g>
<!-- st0.CreateEntityFromEntity -->
<g id="node11" class="node">
<title>st0.CreateEntityFromEntity</title>
<g id="a_node11"><a xlink:href="st0.CreateEntityFromEntity.svg" xlink:title="st0.CreateEntityFromEntity">
<ellipse fill="green" stroke="black" cx="1524.49" cy="-18" rx="141.88" ry="18"/>
<text text-anchor="middle" x="1524.49" y="-14.3" font-family="Times,serif" font-size="14.00">st0.CreateEntityFromEntity</text>
</a>
</g>
</g>
<!-- st0.EntityDraculaGlass&#45;&gt;st0.CreateEntityFromEntity -->
<g id="edge10" class="edge">
<title>st0.EntityDraculaGlass&#45;&gt;st0.CreateEntityFromEntity</title>
<path fill="none" stroke="black" d="M811.93,-182.66C953.19,-150.22 1296.83,-71.29 1449.39,-36.25"/>
<polygon fill="black" stroke="black" points="1450.19,-39.66 1459.16,-34.01 1448.63,-32.83 1450.19,-39.66"/>
<text text-anchor="middle" x="1454.16" y="-37.81" font-family="Times,serif" font-size="14.00">1</text>
</g>
<!-- st0.DestroyEntity -->
<g id="node12" class="node">
<title>st0.DestroyEntity</title>
<g id="a_node12"><a xlink:href="st0.DestroyEntity.svg" xlink:title="st0.DestroyEntity">
<ellipse fill="green" stroke="black" cx="1777.49" cy="-18" rx="93.68" ry="18"/>
<text text-anchor="middle" x="1777.49" y="-14.3" font-family="Times,serif" font-size="14.00">st0.DestroyEntity</text>
</a>
</g>
</g>
<!-- st0.EntityDraculaGlass&#45;&gt;st0.DestroyEntity -->
<g id="edge11" class="edge">
<title>st0.EntityDraculaGlass&#45;&gt;st0.DestroyEntity</title>
<path fill="none" stroke="black" d="M824.67,-183.98C1014.06,-151.19 1509.29,-65.44 1700.56,-32.32"/>
<polygon fill="black" stroke="black" points="1701.27,-35.75 1710.53,-30.59 1700.08,-28.85 1701.27,-35.75"/>
<text text-anchor="middle" x="1705.53" y="-34.39" font-family="Times,serif" font-size="14.00">1</text>
</g>
</g>
</svg>
