<?xml version="1.0" encoding="UTF-8" standalone="no"?>
<!DOCTYPE svg PUBLIC "-//W3C//DTD SVG 1.1//EN"
 "http://www.w3.org/Graphics/SVG/1.1/DTD/svg11.dtd">
<!-- Generated by graphviz version 2.43.0 (0)
 -->
<!-- Title: st0.func_801B101C Pages: 1 -->
<svg width="211pt" height="218pt"
 viewBox="0.00 0.00 210.78 218.00" xmlns="http://www.w3.org/2000/svg" xmlns:xlink="http://www.w3.org/1999/xlink">
<g id="graph0" class="graph" transform="scale(1 1) rotate(0) translate(4 214)">
<title>st0.func_801B101C</title>
<polygon fill="white" stroke="transparent" points="-4,4 -4,-214 206.78,-214 206.78,4 -4,4"/>
<!-- st0.func_801B101C -->
<g id="node1" class="node">
<title>st0.func_801B101C</title>
<ellipse fill="red" stroke="black" cx="101.39" cy="-105" rx="101.28" ry="18"/>
<text text-anchor="middle" x="101.39" y="-101.3" font-family="Times,serif" font-size="14.00">st0.func_801B101C</text>
</g>
<!-- dra.AllocPrimitives -->
<g id="node2" class="node">
<title>dra.AllocPrimitives</title>
<g id="a_node2"><a xlink:href="dra.AllocPrimitives.svg" xlink:title="dra.AllocPrimitives">
<ellipse fill="green" stroke="black" cx="101.39" cy="-18" rx="99.38" ry="18"/>
<text text-anchor="middle" x="101.39" y="-14.3" font-family="Times,serif" font-size="14.00">dra.AllocPrimitives</text>
</a>
</g>
</g>
<!-- st0.func_801B101C&#45;&gt;dra.AllocPrimitives -->
<g id="edge1" class="edge">
<title>st0.func_801B101C&#45;&gt;dra.AllocPrimitives</title>
<path fill="none" stroke="black" d="M101.39,-86.8C101.39,-75.16 101.39,-59.55 101.39,-46.24"/>
<polygon fill="black" stroke="black" points="104.89,-46.18 101.39,-36.18 97.89,-46.18 104.89,-46.18"/>
<text text-anchor="middle" x="106.39" y="-57.8" font-family="Times,serif" font-size="14.00">1</text>
</g>
<!-- st0.func_801B1298 -->
<g id="node3" class="node">
<title>st0.func_801B1298</title>
<g id="a_node3"><a xlink:href="st0.func_801B1298.svg" xlink:title="st0.func_801B1298">
<ellipse fill="red" stroke="black" cx="101.39" cy="-192" rx="100.98" ry="18"/>
<text text-anchor="middle" x="101.39" y="-188.3" font-family="Times,serif" font-size="14.00">st0.func_801B1298</text>
</a>
</g>
</g>
<!-- st0.func_801B1298&#45;&gt;st0.func_801B101C -->
<g id="edge2" class="edge">
<title>st0.func_801B1298&#45;&gt;st0.func_801B101C</title>
<path fill="none" stroke="black" d="M101.39,-173.8C101.39,-162.16 101.39,-146.55 101.39,-133.24"/>
<polygon fill="black" stroke="black" points="104.89,-133.18 101.39,-123.18 97.89,-133.18 104.89,-133.18"/>
<text text-anchor="middle" x="106.39" y="-144.8" font-family="Times,serif" font-size="14.00">1</text>
</g>
</g>
</svg>
