<?xml version="1.0" encoding="UTF-8" standalone="no"?>
<!DOCTYPE svg PUBLIC "-//W3C//DTD SVG 1.1//EN"
 "http://www.w3.org/Graphics/SVG/1.1/DTD/svg11.dtd">
<!-- Generated by graphviz version 2.43.0 (0)
 -->
<!-- Title: st0.SetStep Pages: 1 -->
<svg width="2350pt" height="224pt"
 viewBox="0.00 0.00 2349.73 224.00" xmlns="http://www.w3.org/2000/svg" xmlns:xlink="http://www.w3.org/1999/xlink">
<g id="graph0" class="graph" transform="scale(1 1) rotate(0) translate(4 220)">
<title>st0.SetStep</title>
<polygon fill="white" stroke="transparent" points="-4,4 -4,-220 2345.73,-220 2345.73,4 -4,4"/>
<!-- st0.SetStep -->
<g id="node1" class="node">
<title>st0.SetStep</title>
<ellipse fill="green" stroke="black" cx="1207.64" cy="-18" rx="65.79" ry="18"/>
<text text-anchor="middle" x="1207.64" y="-14.3" font-family="Times,serif" font-size="14.00">st0.SetStep</text>
</g>
<!-- st0.EntityDraculaMeteorball -->
<g id="node2" class="node">
<title>st0.EntityDraculaMeteorball</title>
<g id="a_node2"><a xlink:href="st0.EntityDraculaMeteorball.svg" xlink:title="st0.EntityDraculaMeteorball">
<ellipse fill="green" stroke="black" cx="143.64" cy="-198" rx="143.77" ry="18"/>
<text text-anchor="middle" x="143.64" y="-194.3" font-family="Times,serif" font-size="14.00">st0.EntityDraculaMeteorball</text>
</a>
</g>
</g>
<!-- st0.EntityDraculaMeteorball&#45;&gt;st0.SetStep -->
<g id="edge1" class="edge">
<title>st0.EntityDraculaMeteorball&#45;&gt;st0.SetStep</title>
<path fill="none" stroke="black" d="M226.24,-183.18C430.98,-148.93 958.63,-60.66 1142.94,-29.82"/>
<polygon fill="black" stroke="black" points="1143.73,-33.24 1153.02,-28.14 1142.58,-26.34 1143.73,-33.24"/>
<text text-anchor="middle" x="221.24" y="-171.98" font-family="Times,serif" font-size="14.00">1</text>
</g>
<!-- st0.EntityDraculaFinalForm -->
<g id="node3" class="node">
<title>st0.EntityDraculaFinalForm</title>
<g id="a_node3"><a xlink:href="st0.EntityDraculaFinalForm.svg" xlink:title="st0.EntityDraculaFinalForm">
<ellipse fill="red" stroke="black" cx="446.64" cy="-198" rx="141.07" ry="18"/>
<text text-anchor="middle" x="446.64" y="-194.3" font-family="Times,serif" font-size="14.00">st0.EntityDraculaFinalForm</text>
</a>
</g>
</g>
<!-- st0.EntityDraculaFinalForm&#45;&gt;st0.SetStep -->
<g id="edge2" class="edge">
<title>st0.EntityDraculaFinalForm&#45;&gt;st0.SetStep</title>
<path fill="none" stroke="black" d="M511.19,-181.9C656.84,-147.83 1009.18,-65.42 1149.02,-32.71"/>
<polygon fill="black" stroke="black" points="1150.17,-36.04 1159.11,-30.35 1148.58,-29.22 1150.17,-36.04"/>
<text text-anchor="middle" x="501.69" y="-170.7" font-family="Times,serif" font-size="14.00">10</text>
</g>
<!-- st0.EntityDraculaGlass -->
<g id="node4" class="node">
<title>st0.EntityDraculaGlass</title>
<g id="a_node4"><a xlink:href="st0.EntityDraculaGlass.svg" xlink:title="st0.EntityDraculaGlass">
<ellipse fill="green" stroke="black" cx="723.64" cy="-198" rx="118.08" ry="18"/>
<text text-anchor="middle" x="723.64" y="-194.3" font-family="Times,serif" font-size="14.00">st0.EntityDraculaGlass</text>
</a>
</g>
</g>
<!-- st0.EntityDraculaGlass&#45;&gt;st0.SetStep -->
<g id="edge3" class="edge">
<title>st0.EntityDraculaGlass&#45;&gt;st0.SetStep</title>
<path fill="none" stroke="black" d="M766.59,-181.2C856.97,-147.96 1066.21,-71.01 1160.3,-36.41"/>
<polygon fill="black" stroke="black" points="1161.67,-39.63 1169.85,-32.9 1159.26,-33.06 1161.67,-39.63"/>
<text text-anchor="middle" x="761.59" y="-170" font-family="Times,serif" font-size="14.00">2</text>
</g>
<!-- st0.EntityDracula -->
<g id="node5" class="node">
<title>st0.EntityDracula</title>
<g id="a_node5"><a xlink:href="st0.EntityDracula.svg" xlink:title="st0.EntityDracula">
<ellipse fill="red" stroke="black" cx="952.64" cy="-198" rx="92.88" ry="18"/>
<text text-anchor="middle" x="952.64" y="-194.3" font-family="Times,serif" font-size="14.00">st0.EntityDracula</text>
</a>
</g>
</g>
<!-- st0.EntityDracula&#45;&gt;st0.SetStep -->
<g id="edge4" class="edge">
<title>st0.EntityDracula&#45;&gt;st0.SetStep</title>
<path fill="none" stroke="black" d="M976.17,-180.57C1022.21,-148.44 1124.21,-77.24 1176.06,-41.05"/>
<polygon fill="black" stroke="black" points="1178.33,-43.72 1184.53,-35.13 1174.33,-37.98 1178.33,-43.72"/>
<text text-anchor="middle" x="971.17" y="-169.37" font-family="Times,serif" font-size="14.00">7</text>
</g>
<!-- st0.EntityDraculaRainAttack -->
<g id="node6" class="node">
<title>st0.EntityDraculaRainAttack</title>
<g id="a_node6"><a xlink:href="st0.EntityDraculaRainAttack.svg" xlink:title="st0.EntityDraculaRainAttack">
<ellipse fill="green" stroke="black" cx="1207.64" cy="-198" rx="143.77" ry="18"/>
<text text-anchor="middle" x="1207.64" y="-194.3" font-family="Times,serif" font-size="14.00">st0.EntityDraculaRainAttack</text>
</a>
</g>
</g>
<!-- st0.EntityDraculaRainAttack&#45;&gt;st0.SetStep -->
<g id="edge5" class="edge">
<title>st0.EntityDraculaRainAttack&#45;&gt;st0.SetStep</title>
<path fill="none" stroke="black" d="M1207.64,-179.93C1207.64,-148.97 1207.64,-83.3 1207.64,-46.13"/>
<polygon fill="black" stroke="black" points="1211.14,-46.02 1207.64,-36.02 1204.14,-46.02 1211.14,-46.02"/>
<text text-anchor="middle" x="1202.64" y="-168.73" font-family="Times,serif" font-size="14.00">1</text>
</g>
<!-- st0.func_801BC5C0 -->
<g id="node7" class="node">
<title>st0.func_801BC5C0</title>
<g id="a_node7"><a xlink:href="st0.func_801BC5C0.svg" xlink:title="st0.func_801BC5C0">
<ellipse fill="red" stroke="black" cx="1471.64" cy="-198" rx="102.88" ry="18"/>
<text text-anchor="middle" x="1471.64" y="-194.3" font-family="Times,serif" font-size="14.00">st0.func_801BC5C0</text>
</a>
</g>
</g>
<!-- st0.func_801BC5C0&#45;&gt;st0.SetStep -->
<g id="edge6" class="edge">
<title>st0.func_801BC5C0&#45;&gt;st0.SetStep</title>
<path fill="none" stroke="black" d="M1446.8,-180.25C1398.77,-147.87 1293.21,-76.7 1239.86,-40.73"/>
<polygon fill="black" stroke="black" points="1241.7,-37.75 1231.45,-35.06 1237.79,-43.55 1241.7,-37.75"/>
<text text-anchor="middle" x="1441.8" y="-169.05" font-family="Times,serif" font-size="14.00">2</text>
</g>
<!-- st0.func_801BD8F0 -->
<g id="node8" class="node">
<title>st0.func_801BD8F0</title>
<g id="a_node8"><a xlink:href="st0.func_801BD8F0.svg" xlink:title="st0.func_801BD8F0">
<ellipse fill="red" stroke="black" cx="1694.64" cy="-198" rx="102.88" ry="18"/>
<text text-anchor="middle" x="1694.64" y="-194.3" font-family="Times,serif" font-size="14.00">st0.func_801BD8F0</text>
</a>
</g>
</g>
<!-- st0.func_801BD8F0&#45;&gt;st0.SetStep -->
<g id="edge7" class="edge">
<title>st0.func_801BD8F0&#45;&gt;st0.SetStep</title>
<path fill="none" stroke="black" d="M1652.27,-181.52C1561.75,-148.43 1350.03,-71.04 1255.12,-36.36"/>
<polygon fill="black" stroke="black" points="1256.09,-32.98 1245.5,-32.84 1253.69,-39.56 1256.09,-32.98"/>
<text text-anchor="middle" x="1647.27" y="-170.32" font-family="Times,serif" font-size="14.00">1</text>
</g>
<!-- st0.EntityCutscenePhotograph -->
<g id="node9" class="node">
<title>st0.EntityCutscenePhotograph</title>
<g id="a_node9"><a xlink:href="st0.EntityCutscenePhotograph.svg" xlink:title="st0.EntityCutscenePhotograph">
<ellipse fill="red" stroke="black" cx="1969.64" cy="-198" rx="154.07" ry="18"/>
<text text-anchor="middle" x="1969.64" y="-194.3" font-family="Times,serif" font-size="14.00">st0.EntityCutscenePhotograph</text>
</a>
</g>
</g>
<!-- st0.EntityCutscenePhotograph&#45;&gt;st0.SetStep -->
<g id="edge8" class="edge">
<title>st0.EntityCutscenePhotograph&#45;&gt;st0.SetStep</title>
<path fill="none" stroke="black" d="M1904.01,-181.67C1757.5,-147.45 1405.71,-65.27 1266.14,-32.67"/>
<polygon fill="black" stroke="black" points="1266.6,-29.18 1256.06,-30.31 1265,-36 1266.6,-29.18"/>
<text text-anchor="middle" x="1899.01" y="-170.47" font-family="Times,serif" font-size="14.00">1</text>
</g>
<!-- st0.EntityCutscene -->
<g id="node10" class="node">
<title>st0.EntityCutscene</title>
<g id="a_node10"><a xlink:href="st0.EntityCutscene.svg" xlink:title="st0.EntityCutscene">
<ellipse fill="green" stroke="black" cx="2241.64" cy="-198" rx="100.18" ry="18"/>
<text text-anchor="middle" x="2241.64" y="-194.3" font-family="Times,serif" font-size="14.00">st0.EntityCutscene</text>
</a>
</g>
</g>
<!-- st0.EntityCutscene&#45;&gt;st0.SetStep -->
<g id="edge9" class="edge">
<title>st0.EntityCutscene&#45;&gt;st0.SetStep</title>
<path fill="none" stroke="black" d="M2171.78,-184.97C1981.33,-152.19 1454.99,-61.58 1271.63,-30.02"/>
<polygon fill="black" stroke="black" points="1272.05,-26.54 1261.6,-28.29 1270.86,-33.44 1272.05,-26.54"/>
<text text-anchor="middle" x="2166.78" y="-173.77" font-family="Times,serif" font-size="14.00">5</text>
</g>
</g>
</svg>
