<?xml version="1.0" encoding="UTF-8" standalone="no"?>
<!DOCTYPE svg PUBLIC "-//W3C//DTD SVG 1.1//EN"
 "http://www.w3.org/Graphics/SVG/1.1/DTD/svg11.dtd">
<!-- Generated by graphviz version 2.43.0 (0)
 -->
<!-- Title: st0.CreateEntityWhenInHorizontalRange Pages: 1 -->
<svg width="430pt" height="404pt"
 viewBox="0.00 0.00 430.13 404.00" xmlns="http://www.w3.org/2000/svg" xmlns:xlink="http://www.w3.org/1999/xlink">
<g id="graph0" class="graph" transform="scale(1 1) rotate(0) translate(4 400)">
<title>st0.CreateEntityWhenInHorizontalRange</title>
<polygon fill="white" stroke="transparent" points="-4,4 -4,-400 426.13,-400 426.13,4 -4,4"/>
<!-- st0.CreateEntityWhenInHorizontalRange -->
<g id="node1" class="node">
<title>st0.CreateEntityWhenInHorizontalRange</title>
<ellipse fill="green" stroke="black" cx="210.74" cy="-198" rx="202.26" ry="18"/>
<text text-anchor="middle" x="210.74" y="-194.3" font-family="Times,serif" font-size="14.00">st0.CreateEntityWhenInHorizontalRange</text>
</g>
<!-- st0.CreateEntityFromLayout -->
<g id="node2" class="node">
<title>st0.CreateEntityFromLayout</title>
<g id="a_node2"><a xlink:href="st0.CreateEntityFromLayout.svg" xlink:title="st0.CreateEntityFromLayout">
<ellipse fill="green" stroke="black" cx="210.74" cy="-18" rx="144.87" ry="18"/>
<text text-anchor="middle" x="210.74" y="-14.3" font-family="Times,serif" font-size="14.00">st0.CreateEntityFromLayout</text>
</a>
</g>
</g>
<!-- st0.CreateEntityWhenInHorizontalRange&#45;&gt;st0.CreateEntityFromLayout -->
<g id="edge1" class="edge">
<title>st0.CreateEntityWhenInHorizontalRange&#45;&gt;st0.CreateEntityFromLayout</title>
<path fill="none" stroke="black" d="M210.74,-179.93C210.74,-148.97 210.74,-83.3 210.74,-46.13"/>
<polygon fill="black" stroke="black" points="214.24,-46.02 210.74,-36.02 207.24,-46.02 214.24,-46.02"/>
<text text-anchor="middle" x="205.74" y="-39.82" font-family="Times,serif" font-size="14.00">1</text>
</g>
<!-- st0.func_801B3828 -->
<g id="node3" class="node">
<title>st0.func_801B3828</title>
<g id="a_node3"><a xlink:href="st0.func_801B3828.svg" xlink:title="st0.func_801B3828">
<ellipse fill="green" stroke="black" cx="100.74" cy="-378" rx="100.98" ry="18"/>
<text text-anchor="middle" x="100.74" y="-374.3" font-family="Times,serif" font-size="14.00">st0.func_801B3828</text>
</a>
</g>
</g>
<!-- st0.func_801B3828&#45;&gt;st0.CreateEntityWhenInHorizontalRange -->
<g id="edge2" class="edge">
<title>st0.func_801B3828&#45;&gt;st0.CreateEntityWhenInHorizontalRange</title>
<path fill="none" stroke="black" d="M111.29,-359.93C130.67,-328.57 172.05,-261.6 194.85,-224.71"/>
<polygon fill="black" stroke="black" points="197.95,-226.36 200.23,-216.02 191.99,-222.68 197.95,-226.36"/>
<text text-anchor="middle" x="106.29" y="-348.73" font-family="Times,serif" font-size="14.00">1</text>
</g>
<!-- st0.func_801B372C -->
<g id="node4" class="node">
<title>st0.func_801B372C</title>
<g id="a_node4"><a xlink:href="st0.func_801B372C.svg" xlink:title="st0.func_801B372C">
<ellipse fill="green" stroke="black" cx="320.74" cy="-378" rx="101.28" ry="18"/>
<text text-anchor="middle" x="320.74" y="-374.3" font-family="Times,serif" font-size="14.00">st0.func_801B372C</text>
</a>
</g>
</g>
<!-- st0.func_801B372C&#45;&gt;st0.CreateEntityWhenInHorizontalRange -->
<g id="edge3" class="edge">
<title>st0.func_801B372C&#45;&gt;st0.CreateEntityWhenInHorizontalRange</title>
<path fill="none" stroke="black" d="M310.19,-359.93C290.81,-328.57 249.43,-261.6 226.63,-224.71"/>
<polygon fill="black" stroke="black" points="229.49,-222.68 221.26,-216.02 223.54,-226.36 229.49,-222.68"/>
<text text-anchor="middle" x="305.19" y="-348.73" font-family="Times,serif" font-size="14.00">1</text>
</g>
</g>
</svg>
