<?xml version="1.0" encoding="UTF-8" standalone="no"?>
<!DOCTYPE svg PUBLIC "-//W3C//DTD SVG 1.1//EN"
 "http://www.w3.org/Graphics/SVG/1.1/DTD/svg11.dtd">
<!-- Generated by graphviz version 2.43.0 (0)
 -->
<!-- Title: VSync Pages: 1 -->
<svg width="2403pt" height="131pt"
 viewBox="0.00 0.00 2402.93 131.00" xmlns="http://www.w3.org/2000/svg" xmlns:xlink="http://www.w3.org/1999/xlink">
<g id="graph0" class="graph" transform="scale(1 1) rotate(0) translate(4 127)">
<title>VSync</title>
<polygon fill="white" stroke="transparent" points="-4,4 -4,-127 2398.93,-127 2398.93,4 -4,4"/>
<!-- main/VSync -->
<g id="node1" class="node">
<title>main/VSync</title>
<ellipse fill="red" stroke="black" cx="66.29" cy="-105" rx="65.79" ry="18"/>
<text text-anchor="middle" x="66.29" y="-101.3" font-family="Times,serif" font-size="14.00">main/VSync</text>
</g>
<!-- main/v_wait -->
<g id="node2" class="node">
<title>main/v_wait</title>
<g id="a_node2"><a xlink:href="v_wait.svg" xlink:title="main/v_wait">
<ellipse fill="red" stroke="black" cx="66.29" cy="-18" rx="66.09" ry="18"/>
<text text-anchor="middle" x="66.29" y="-14.3" font-family="Times,serif" font-size="14.00">main/v_wait</text>
</a>
</g>
</g>
<!-- main/VSync&#45;&gt;main/v_wait -->
<g id="edge1" class="edge">
<title>main/VSync&#45;&gt;main/v_wait</title>
<path fill="none" stroke="black" d="M66.29,-86.8C66.29,-75.16 66.29,-59.55 66.29,-46.24"/>
<polygon fill="black" stroke="black" points="69.79,-46.18 66.29,-36.18 62.79,-46.18 69.79,-46.18"/>
<text text-anchor="middle" x="71.29" y="-57.8" font-family="Times,serif" font-size="14.00">2</text>
</g>
<!-- dra/DebugShowWaitInfo -->
<g id="node3" class="node">
<title>dra/DebugShowWaitInfo</title>
<g id="a_node3"><a xlink:href="DebugShowWaitInfo.svg" xlink:title="dra/DebugShowWaitInfo">
<ellipse fill="green" stroke="black" cx="274.29" cy="-105" rx="124.28" ry="18"/>
<text text-anchor="middle" x="274.29" y="-101.3" font-family="Times,serif" font-size="14.00">dra/DebugShowWaitInfo</text>
</a>
</g>
</g>
<!-- dra/VSync -->
<g id="node4" class="node">
<title>dra/VSync</title>
<ellipse fill="none" stroke="black" cx="1076.29" cy="-18" rx="57.69" ry="18"/>
<text text-anchor="middle" x="1076.29" y="-14.3" font-family="Times,serif" font-size="14.00">dra/VSync</text>
</g>
<!-- dra/DebugShowWaitInfo&#45;&gt;dra/VSync -->
<g id="edge2" class="edge">
<title>dra/DebugShowWaitInfo&#45;&gt;dra/VSync</title>
<path fill="none" stroke="black" d="M362.97,-92.34C377.76,-90.49 392.96,-88.64 407.29,-87 628.75,-61.6 892.01,-36.26 1011.53,-25.02"/>
<polygon fill="black" stroke="black" points="1011.98,-28.5 1021.61,-24.08 1011.33,-21.53 1011.98,-28.5"/>
<text text-anchor="middle" x="706.29" y="-57.8" font-family="Times,serif" font-size="14.00">1</text>
</g>
<!-- sel/func_801B9C80 -->
<g id="node5" class="node">
<title>sel/func_801B9C80</title>
<g id="a_node5"><a xlink:href="func_801B9C80.svg" xlink:title="sel/func_801B9C80">
<ellipse fill="red" stroke="black" cx="2067.29" cy="-105" rx="100.18" ry="18"/>
<text text-anchor="middle" x="2067.29" y="-101.3" font-family="Times,serif" font-size="14.00">sel/func_801B9C80</text>
</a>
</g>
</g>
<!-- sel/VSync -->
<g id="node6" class="node">
<title>sel/VSync</title>
<ellipse fill="none" stroke="black" cx="2067.29" cy="-18" rx="55.79" ry="18"/>
<text text-anchor="middle" x="2067.29" y="-14.3" font-family="Times,serif" font-size="14.00">sel/VSync</text>
</g>
<!-- sel/func_801B9C80&#45;&gt;sel/VSync -->
<g id="edge3" class="edge">
<title>sel/func_801B9C80&#45;&gt;sel/VSync</title>
<path fill="none" stroke="black" d="M2067.29,-86.8C2067.29,-75.16 2067.29,-59.55 2067.29,-46.24"/>
<polygon fill="black" stroke="black" points="2070.79,-46.18 2067.29,-36.18 2063.79,-46.18 2070.79,-46.18"/>
<text text-anchor="middle" x="2072.29" y="-57.8" font-family="Times,serif" font-size="14.00">5</text>
</g>
<!-- np3/func_801CD658 -->
<g id="node7" class="node">
<title>np3/func_801CD658</title>
<g id="a_node7"><a xlink:href="func_801CD658.svg" xlink:title="np3/func_801CD658">
<ellipse fill="red" stroke="black" cx="2290.29" cy="-105" rx="104.78" ry="18"/>
<text text-anchor="middle" x="2290.29" y="-101.3" font-family="Times,serif" font-size="14.00">np3/func_801CD658</text>
</a>
</g>
</g>
<!-- np3/VSync -->
<g id="node8" class="node">
<title>np3/VSync</title>
<ellipse fill="none" stroke="black" cx="2290.29" cy="-18" rx="59.59" ry="18"/>
<text text-anchor="middle" x="2290.29" y="-14.3" font-family="Times,serif" font-size="14.00">np3/VSync</text>
</g>
<!-- np3/func_801CD658&#45;&gt;np3/VSync -->
<g id="edge4" class="edge">
<title>np3/func_801CD658&#45;&gt;np3/VSync</title>
<path fill="none" stroke="black" d="M2290.29,-86.8C2290.29,-75.16 2290.29,-59.55 2290.29,-46.24"/>
<polygon fill="black" stroke="black" points="2293.79,-46.18 2290.29,-36.18 2286.79,-46.18 2293.79,-46.18"/>
<text text-anchor="middle" x="2295.29" y="-57.8" font-family="Times,serif" font-size="14.00">1</text>
</g>
<!-- dra/func_80133FCC -->
<g id="node9" class="node">
<title>dra/func_80133FCC</title>
<g id="a_node9"><a xlink:href="func_80133FCC.svg" xlink:title="dra/func_80133FCC">
<ellipse fill="red" stroke="black" cx="519.29" cy="-105" rx="102.88" ry="18"/>
<text text-anchor="middle" x="519.29" y="-101.3" font-family="Times,serif" font-size="14.00">dra/func_80133FCC</text>
</a>
</g>
</g>
<!-- dra/func_80133FCC&#45;&gt;dra/VSync -->
<g id="edge5" class="edge">
<title>dra/func_80133FCC&#45;&gt;dra/VSync</title>
<path fill="none" stroke="black" d="M594.12,-92.58C705.53,-75.58 912.87,-43.94 1015.51,-28.28"/>
<polygon fill="black" stroke="black" points="1016.05,-31.73 1025.4,-26.77 1014.99,-24.81 1016.05,-31.73"/>
<text text-anchor="middle" x="836.29" y="-57.8" font-family="Times,serif" font-size="14.00">2</text>
</g>
<!-- dra/func_8013271C -->
<g id="node10" class="node">
<title>dra/func_8013271C</title>
<g id="a_node10"><a xlink:href="func_8013271C.svg" xlink:title="dra/func_8013271C">
<ellipse fill="green" stroke="black" cx="741.29" cy="-105" rx="101.28" ry="18"/>
<text text-anchor="middle" x="741.29" y="-101.3" font-family="Times,serif" font-size="14.00">dra/func_8013271C</text>
</a>
</g>
</g>
<!-- dra/func_8013271C&#45;&gt;dra/VSync -->
<g id="edge6" class="edge">
<title>dra/func_8013271C&#45;&gt;dra/VSync</title>
<path fill="none" stroke="black" d="M796.99,-89.87C859.82,-73.93 961.27,-48.18 1023.07,-32.5"/>
<polygon fill="black" stroke="black" points="1024.18,-35.84 1033.01,-29.98 1022.45,-29.05 1024.18,-35.84"/>
<text text-anchor="middle" x="934.29" y="-57.8" font-family="Times,serif" font-size="14.00">1</text>
</g>
<!-- dra/func_80133BDC -->
<g id="node11" class="node">
<title>dra/func_80133BDC</title>
<g id="a_node11"><a xlink:href="func_80133BDC.svg" xlink:title="dra/func_80133BDC">
<ellipse fill="red" stroke="black" cx="964.29" cy="-105" rx="103.98" ry="18"/>
<text text-anchor="middle" x="964.29" y="-101.3" font-family="Times,serif" font-size="14.00">dra/func_80133BDC</text>
</a>
</g>
</g>
<!-- dra/func_80133BDC&#45;&gt;dra/VSync -->
<g id="edge7" class="edge">
<title>dra/func_80133BDC&#45;&gt;dra/VSync</title>
<path fill="none" stroke="black" d="M986.42,-87.21C1003.86,-73.97 1028.31,-55.41 1047.31,-40.99"/>
<polygon fill="black" stroke="black" points="1049.5,-43.73 1055.35,-34.9 1045.27,-38.15 1049.5,-43.73"/>
<text text-anchor="middle" x="1032.29" y="-57.8" font-family="Times,serif" font-size="14.00">1</text>
</g>
<!-- dra/func_80132F60 -->
<g id="node12" class="node">
<title>dra/func_80132F60</title>
<g id="a_node12"><a xlink:href="func_80132F60.svg" xlink:title="dra/func_80132F60">
<ellipse fill="red" stroke="black" cx="1187.29" cy="-105" rx="100.98" ry="18"/>
<text text-anchor="middle" x="1187.29" y="-101.3" font-family="Times,serif" font-size="14.00">dra/func_80132F60</text>
</a>
</g>
</g>
<!-- dra/func_80132F60&#45;&gt;dra/VSync -->
<g id="edge8" class="edge">
<title>dra/func_80132F60&#45;&gt;dra/VSync</title>
<path fill="none" stroke="black" d="M1165.63,-87.41C1148.37,-74.19 1124.06,-55.58 1105.15,-41.1"/>
<polygon fill="black" stroke="black" points="1107.22,-38.27 1097.15,-34.97 1102.96,-43.83 1107.22,-38.27"/>
<text text-anchor="middle" x="1144.29" y="-57.8" font-family="Times,serif" font-size="14.00">1</text>
</g>
<!-- dra/func_80133290 -->
<g id="node13" class="node">
<title>dra/func_80133290</title>
<g id="a_node13"><a xlink:href="func_80133290.svg" xlink:title="dra/func_80133290">
<ellipse fill="red" stroke="black" cx="1406.29" cy="-105" rx="100.98" ry="18"/>
<text text-anchor="middle" x="1406.29" y="-101.3" font-family="Times,serif" font-size="14.00">dra/func_80133290</text>
</a>
</g>
</g>
<!-- dra/func_80133290&#45;&gt;dra/VSync -->
<g id="edge9" class="edge">
<title>dra/func_80133290&#45;&gt;dra/VSync</title>
<path fill="none" stroke="black" d="M1351.43,-89.87C1289.71,-73.97 1190.16,-48.33 1129.24,-32.64"/>
<polygon fill="black" stroke="black" points="1129.99,-29.22 1119.44,-30.11 1128.25,-36 1129.99,-29.22"/>
<text text-anchor="middle" x="1266.29" y="-57.8" font-family="Times,serif" font-size="14.00">1</text>
</g>
<!-- dra/func_80133960 -->
<g id="node14" class="node">
<title>dra/func_80133960</title>
<g id="a_node14"><a xlink:href="func_80133960.svg" xlink:title="dra/func_80133960">
<ellipse fill="red" stroke="black" cx="1625.29" cy="-105" rx="100.98" ry="18"/>
<text text-anchor="middle" x="1625.29" y="-101.3" font-family="Times,serif" font-size="14.00">dra/func_80133960</text>
</a>
</g>
</g>
<!-- dra/func_80133960&#45;&gt;dra/VSync -->
<g id="edge10" class="edge">
<title>dra/func_80133960&#45;&gt;dra/VSync</title>
<path fill="none" stroke="black" d="M1552.01,-92.56C1540.07,-90.7 1527.84,-88.79 1516.29,-87 1380.88,-65.98 1221.99,-41.46 1137.09,-28.37"/>
<polygon fill="black" stroke="black" points="1137.53,-24.89 1127.11,-26.83 1136.46,-31.81 1137.53,-24.89"/>
<text text-anchor="middle" x="1401.29" y="-57.8" font-family="Times,serif" font-size="14.00">1</text>
</g>
<!-- dra/entrypoint_sotn -->
<g id="node15" class="node">
<title>dra/entrypoint_sotn</title>
<g id="a_node15"><a xlink:href="entrypoint_sotn.svg" xlink:title="dra/entrypoint_sotn">
<ellipse fill="green" stroke="black" cx="1846.29" cy="-105" rx="102.88" ry="18"/>
<text text-anchor="middle" x="1846.29" y="-101.3" font-family="Times,serif" font-size="14.00">dra/entrypoint_sotn</text>
</a>
</g>
</g>
<!-- dra/entrypoint_sotn&#45;&gt;dra/VSync -->
<g id="edge11" class="edge">
<title>dra/entrypoint_sotn&#45;&gt;dra/VSync</title>
<path fill="none" stroke="black" d="M1773.22,-92.29C1760.59,-90.41 1747.57,-88.57 1735.29,-87 1518.3,-59.2 1259.96,-35.17 1141.51,-24.66"/>
<polygon fill="black" stroke="black" points="1141.78,-21.17 1131.51,-23.77 1141.16,-28.14 1141.78,-21.17"/>
<text text-anchor="middle" x="1578.29" y="-57.8" font-family="Times,serif" font-size="14.00">2</text>
</g>
</g>
</svg>
