<?xml version="1.0" encoding="UTF-8" standalone="no"?>
<!DOCTYPE svg PUBLIC "-//W3C//DTD SVG 1.1//EN"
 "http://www.w3.org/Graphics/SVG/1.1/DTD/svg11.dtd">
<!-- Generated by graphviz version 2.43.0 (0)
 -->
<!-- Title: w_006.EntityWeaponAttack Pages: 1 -->
<svg width="1210pt" height="224pt"
 viewBox="0.00 0.00 1209.53 224.00" xmlns="http://www.w3.org/2000/svg" xmlns:xlink="http://www.w3.org/1999/xlink">
<g id="graph0" class="graph" transform="scale(1 1) rotate(0) translate(4 220)">
<title>w_006.EntityWeaponAttack</title>
<polygon fill="white" stroke="transparent" points="-4,4 -4,-220 1205.53,-220 1205.53,4 -4,4"/>
<!-- w_006.EntityWeaponAttack -->
<g id="node1" class="node">
<title>w_006.EntityWeaponAttack</title>
<ellipse fill="red" stroke="black" cx="622.99" cy="-198" rx="138.38" ry="18"/>
<text text-anchor="middle" x="622.99" y="-194.3" font-family="Times,serif" font-size="14.00">w_006.EntityWeaponAttack</text>
</g>
<!-- w_006.SetSpriteBank1 -->
<g id="node2" class="node">
<title>w_006.SetSpriteBank1</title>
<g id="a_node2"><a xlink:href="w_006.SetSpriteBank1.svg" xlink:title="w_006.SetSpriteBank1">
<ellipse fill="red" stroke="black" cx="116.99" cy="-18" rx="116.98" ry="18"/>
<text text-anchor="middle" x="116.99" y="-14.3" font-family="Times,serif" font-size="14.00">w_006.SetSpriteBank1</text>
</a>
</g>
</g>
<!-- w_006.EntityWeaponAttack&#45;&gt;w_006.SetSpriteBank1 -->
<g id="edge1" class="edge">
<title>w_006.EntityWeaponAttack&#45;&gt;w_006.SetSpriteBank1</title>
<path fill="none" stroke="black" d="M577.19,-180.89C483.73,-148.01 271.39,-73.32 171.22,-38.08"/>
<polygon fill="black" stroke="black" points="172.19,-34.71 161.59,-34.69 169.87,-41.31 172.19,-34.71"/>
<text text-anchor="middle" x="156.59" y="-38.49" font-family="Times,serif" font-size="14.00">1</text>
</g>
<!-- w_006.SetWeaponProperties -->
<g id="node3" class="node">
<title>w_006.SetWeaponProperties</title>
<g id="a_node3"><a xlink:href="w_006.SetWeaponProperties.svg" xlink:title="w_006.SetWeaponProperties">
<ellipse fill="red" stroke="black" cx="395.99" cy="-18" rx="144.07" ry="18"/>
<text text-anchor="middle" x="395.99" y="-14.3" font-family="Times,serif" font-size="14.00">w_006.SetWeaponProperties</text>
</a>
</g>
</g>
<!-- w_006.EntityWeaponAttack&#45;&gt;w_006.SetWeaponProperties -->
<g id="edge2" class="edge">
<title>w_006.EntityWeaponAttack&#45;&gt;w_006.SetWeaponProperties</title>
<path fill="none" stroke="black" d="M601.22,-179.93C560.38,-147.9 472.19,-78.75 425.84,-42.4"/>
<polygon fill="black" stroke="black" points="427.72,-39.43 417.69,-36.02 423.4,-44.94 427.72,-39.43"/>
<text text-anchor="middle" x="412.69" y="-39.82" font-family="Times,serif" font-size="14.00">1</text>
</g>
<!-- dra.PlaySfx -->
<g id="node4" class="node">
<title>dra.PlaySfx</title>
<g id="a_node4"><a xlink:href="dra.PlaySfx.svg" xlink:title="dra.PlaySfx">
<ellipse fill="green" stroke="black" cx="622.99" cy="-18" rx="64.19" ry="18"/>
<text text-anchor="middle" x="622.99" y="-14.3" font-family="Times,serif" font-size="14.00">dra.PlaySfx</text>
</a>
</g>
</g>
<!-- w_006.EntityWeaponAttack&#45;&gt;dra.PlaySfx -->
<g id="edge3" class="edge">
<title>w_006.EntityWeaponAttack&#45;&gt;dra.PlaySfx</title>
<path fill="none" stroke="black" d="M622.99,-179.93C622.99,-148.97 622.99,-83.3 622.99,-46.13"/>
<polygon fill="black" stroke="black" points="626.49,-46.02 622.99,-36.02 619.49,-46.02 626.49,-46.02"/>
<text text-anchor="middle" x="617.99" y="-39.82" font-family="Times,serif" font-size="14.00">1</text>
</g>
<!-- dra.UpdateUnarmedAnim -->
<g id="node5" class="node">
<title>dra.UpdateUnarmedAnim</title>
<g id="a_node5"><a xlink:href="dra.UpdateUnarmedAnim.svg" xlink:title="dra.UpdateUnarmedAnim">
<ellipse fill="green" stroke="black" cx="835.99" cy="-18" rx="130.78" ry="18"/>
<text text-anchor="middle" x="835.99" y="-14.3" font-family="Times,serif" font-size="14.00">dra.UpdateUnarmedAnim</text>
</a>
</g>
</g>
<!-- w_006.EntityWeaponAttack&#45;&gt;dra.UpdateUnarmedAnim -->
<g id="edge4" class="edge">
<title>w_006.EntityWeaponAttack&#45;&gt;dra.UpdateUnarmedAnim</title>
<path fill="none" stroke="black" d="M643.41,-179.93C681.66,-147.97 764.15,-79.04 807.71,-42.63"/>
<polygon fill="black" stroke="black" points="810.2,-45.11 815.63,-36.02 805.71,-39.74 810.2,-45.11"/>
<text text-anchor="middle" x="810.63" y="-39.82" font-family="Times,serif" font-size="14.00">1</text>
</g>
<!-- w_006.DestroyEntity -->
<g id="node6" class="node">
<title>w_006.DestroyEntity</title>
<g id="a_node6"><a xlink:href="w_006.DestroyEntity.svg" xlink:title="w_006.DestroyEntity">
<ellipse fill="red" stroke="black" cx="1092.99" cy="-18" rx="108.58" ry="18"/>
<text text-anchor="middle" x="1092.99" y="-14.3" font-family="Times,serif" font-size="14.00">w_006.DestroyEntity</text>
</a>
</g>
</g>
<!-- w_006.EntityWeaponAttack&#45;&gt;w_006.DestroyEntity -->
<g id="edge5" class="edge">
<title>w_006.EntityWeaponAttack&#45;&gt;w_006.DestroyEntity</title>
<path fill="none" stroke="black" d="M665.94,-180.73C752.83,-147.82 949.08,-73.5 1042.17,-38.25"/>
<polygon fill="black" stroke="black" points="1043.54,-41.47 1051.65,-34.66 1041.06,-34.92 1043.54,-41.47"/>
<text text-anchor="middle" x="1046.65" y="-38.46" font-family="Times,serif" font-size="14.00">1</text>
</g>
</g>
</svg>
