<?xml version="1.0" encoding="UTF-8" standalone="no"?>
<!DOCTYPE svg PUBLIC "-//W3C//DTD SVG 1.1//EN"
 "http://www.w3.org/Graphics/SVG/1.1/DTD/svg11.dtd">
<!-- Generated by graphviz version 2.43.0 (0)
 -->
<!-- Title: w_005.func_27000_8017B5C0 Pages: 1 -->
<svg width="472pt" height="218pt"
 viewBox="0.00 0.00 471.93 218.00" xmlns="http://www.w3.org/2000/svg" xmlns:xlink="http://www.w3.org/1999/xlink">
<g id="graph0" class="graph" transform="scale(1 1) rotate(0) translate(4 214)">
<title>w_005.func_27000_8017B5C0</title>
<polygon fill="white" stroke="transparent" points="-4,4 -4,-214 467.93,-214 467.93,4 -4,4"/>
<!-- w_005.func_27000_8017B5C0 -->
<g id="node1" class="node">
<title>w_005.func_27000_8017B5C0</title>
<ellipse fill="red" stroke="black" cx="242.19" cy="-105" rx="150.27" ry="18"/>
<text text-anchor="middle" x="242.19" y="-101.3" font-family="Times,serif" font-size="14.00">w_005.func_27000_8017B5C0</text>
</g>
<!-- dra.GetEquipProperties -->
<g id="node2" class="node">
<title>dra.GetEquipProperties</title>
<g id="a_node2"><a xlink:href="dra.GetEquipProperties.svg" xlink:title="dra.GetEquipProperties">
<ellipse fill="green" stroke="black" cx="122.19" cy="-18" rx="122.38" ry="18"/>
<text text-anchor="middle" x="122.19" y="-14.3" font-family="Times,serif" font-size="14.00">dra.GetEquipProperties</text>
</a>
</g>
</g>
<!-- w_005.func_27000_8017B5C0&#45;&gt;dra.GetEquipProperties -->
<g id="edge1" class="edge">
<title>w_005.func_27000_8017B5C0&#45;&gt;dra.GetEquipProperties</title>
<path fill="none" stroke="black" d="M218.48,-87.21C200.07,-74.17 174.36,-55.96 154.14,-41.63"/>
<polygon fill="black" stroke="black" points="156.03,-38.68 145.85,-35.76 151.99,-44.39 156.03,-38.68"/>
<text text-anchor="middle" x="195.19" y="-57.8" font-family="Times,serif" font-size="14.00">1</text>
</g>
<!-- dra.func_80118894 -->
<g id="node3" class="node">
<title>dra.func_80118894</title>
<g id="a_node3"><a xlink:href="dra.func_80118894.svg" xlink:title="dra.func_80118894">
<ellipse fill="green" stroke="black" cx="363.19" cy="-18" rx="100.98" ry="18"/>
<text text-anchor="middle" x="363.19" y="-14.3" font-family="Times,serif" font-size="14.00">dra.func_80118894</text>
</a>
</g>
</g>
<!-- w_005.func_27000_8017B5C0&#45;&gt;dra.func_80118894 -->
<g id="edge2" class="edge">
<title>w_005.func_27000_8017B5C0&#45;&gt;dra.func_80118894</title>
<path fill="none" stroke="black" d="M266.09,-87.21C284.66,-74.17 310.58,-55.96 330.97,-41.63"/>
<polygon fill="black" stroke="black" points="333.16,-44.37 339.33,-35.76 329.14,-38.64 333.16,-44.37"/>
<text text-anchor="middle" x="314.19" y="-57.8" font-family="Times,serif" font-size="14.00">1</text>
</g>
<!-- w_005.func_27000_8017B6BC -->
<g id="node4" class="node">
<title>w_005.func_27000_8017B6BC</title>
<g id="a_node4"><a xlink:href="w_005.func_27000_8017B6BC.svg" xlink:title="w_005.func_27000_8017B6BC">
<ellipse fill="red" stroke="black" cx="242.19" cy="-192" rx="151.37" ry="18"/>
<text text-anchor="middle" x="242.19" y="-188.3" font-family="Times,serif" font-size="14.00">w_005.func_27000_8017B6BC</text>
</a>
</g>
</g>
<!-- w_005.func_27000_8017B6BC&#45;&gt;w_005.func_27000_8017B5C0 -->
<g id="edge3" class="edge">
<title>w_005.func_27000_8017B6BC&#45;&gt;w_005.func_27000_8017B5C0</title>
<path fill="none" stroke="black" d="M242.19,-173.8C242.19,-162.16 242.19,-146.55 242.19,-133.24"/>
<polygon fill="black" stroke="black" points="245.69,-133.18 242.19,-123.18 238.69,-133.18 245.69,-133.18"/>
<text text-anchor="middle" x="247.19" y="-144.8" font-family="Times,serif" font-size="14.00">1</text>
</g>
</g>
</svg>
