<?xml version="1.0" encoding="UTF-8" standalone="no"?>
<!DOCTYPE svg PUBLIC "-//W3C//DTD SVG 1.1//EN"
 "http://www.w3.org/Graphics/SVG/1.1/DTD/svg11.dtd">
<!-- Generated by graphviz version 2.43.0 (0)
 -->
<!-- Title: w_001.func_B000_8017BCCC Pages: 1 -->
<svg width="1053pt" height="131pt"
 viewBox="0.00 0.00 1052.94 131.00" xmlns="http://www.w3.org/2000/svg" xmlns:xlink="http://www.w3.org/1999/xlink">
<g id="graph0" class="graph" transform="scale(1 1) rotate(0) translate(4 127)">
<title>w_001.func_B000_8017BCCC</title>
<polygon fill="white" stroke="transparent" points="-4,4 -4,-127 1048.94,-127 1048.94,4 -4,4"/>
<!-- w_001.func_B000_8017BCCC -->
<g id="node1" class="node">
<title>w_001.func_B000_8017BCCC</title>
<ellipse fill="red" stroke="black" cx="590.44" cy="-105" rx="147.57" ry="18"/>
<text text-anchor="middle" x="590.44" y="-101.3" font-family="Times,serif" font-size="14.00">w_001.func_B000_8017BCCC</text>
</g>
<!-- dra.AllocPrimitives -->
<g id="node2" class="node">
<title>dra.AllocPrimitives</title>
<g id="a_node2"><a xlink:href="dra.AllocPrimitives.svg" xlink:title="dra.AllocPrimitives">
<ellipse fill="green" stroke="black" cx="99.44" cy="-18" rx="99.38" ry="18"/>
<text text-anchor="middle" x="99.44" y="-14.3" font-family="Times,serif" font-size="14.00">dra.AllocPrimitives</text>
</a>
</g>
</g>
<!-- w_001.func_B000_8017BCCC&#45;&gt;dra.AllocPrimitives -->
<g id="edge1" class="edge">
<title>w_001.func_B000_8017BCCC&#45;&gt;dra.AllocPrimitives</title>
<path fill="none" stroke="black" d="M509.09,-89.92C417.41,-74.05 269.37,-48.42 178.6,-32.7"/>
<polygon fill="black" stroke="black" points="179.09,-29.24 168.64,-30.98 177.9,-36.13 179.09,-29.24"/>
<text text-anchor="middle" x="379.44" y="-57.8" font-family="Times,serif" font-size="14.00">1</text>
</g>
<!-- w_001.func_B000_8017B2B8 -->
<g id="node3" class="node">
<title>w_001.func_B000_8017B2B8</title>
<g id="a_node3"><a xlink:href="w_001.func_B000_8017B2B8.svg" xlink:title="w_001.func_B000_8017B2B8">
<ellipse fill="red" stroke="black" cx="362.44" cy="-18" rx="145.67" ry="18"/>
<text text-anchor="middle" x="362.44" y="-14.3" font-family="Times,serif" font-size="14.00">w_001.func_B000_8017B2B8</text>
</a>
</g>
</g>
<!-- w_001.func_B000_8017BCCC&#45;&gt;w_001.func_B000_8017B2B8 -->
<g id="edge2" class="edge">
<title>w_001.func_B000_8017BCCC&#45;&gt;w_001.func_B000_8017B2B8</title>
<path fill="none" stroke="black" d="M546.75,-87.71C509.36,-73.77 455.42,-53.66 415.54,-38.8"/>
<polygon fill="black" stroke="black" points="416.58,-35.45 405.98,-35.23 414.13,-42.01 416.58,-35.45"/>
<text text-anchor="middle" x="495.44" y="-57.8" font-family="Times,serif" font-size="14.00">1</text>
</g>
<!-- dra.PlaySfx -->
<g id="node4" class="node">
<title>dra.PlaySfx</title>
<g id="a_node4"><a xlink:href="dra.PlaySfx.svg" xlink:title="dra.PlaySfx">
<ellipse fill="green" stroke="black" cx="590.44" cy="-18" rx="64.19" ry="18"/>
<text text-anchor="middle" x="590.44" y="-14.3" font-family="Times,serif" font-size="14.00">dra.PlaySfx</text>
</a>
</g>
</g>
<!-- w_001.func_B000_8017BCCC&#45;&gt;dra.PlaySfx -->
<g id="edge3" class="edge">
<title>w_001.func_B000_8017BCCC&#45;&gt;dra.PlaySfx</title>
<path fill="none" stroke="black" d="M590.44,-86.8C590.44,-75.16 590.44,-59.55 590.44,-46.24"/>
<polygon fill="black" stroke="black" points="593.94,-46.18 590.44,-36.18 586.94,-46.18 593.94,-46.18"/>
<text text-anchor="middle" x="595.44" y="-57.8" font-family="Times,serif" font-size="14.00">2</text>
</g>
<!-- w_001.func_B000_8017B014 -->
<g id="node5" class="node">
<title>w_001.func_B000_8017B014</title>
<g id="a_node5"><a xlink:href="w_001.func_B000_8017B014.svg" xlink:title="w_001.func_B000_8017B014">
<ellipse fill="red" stroke="black" cx="817.44" cy="-18" rx="144.07" ry="18"/>
<text text-anchor="middle" x="817.44" y="-14.3" font-family="Times,serif" font-size="14.00">w_001.func_B000_8017B014</text>
</a>
</g>
</g>
<!-- w_001.func_B000_8017BCCC&#45;&gt;w_001.func_B000_8017B014 -->
<g id="edge4" class="edge">
<title>w_001.func_B000_8017BCCC&#45;&gt;w_001.func_B000_8017B014</title>
<path fill="none" stroke="black" d="M633.94,-87.71C671.17,-73.77 724.87,-53.66 764.57,-38.8"/>
<polygon fill="black" stroke="black" points="765.95,-42.02 774.09,-35.23 763.5,-35.46 765.95,-42.02"/>
<text text-anchor="middle" x="723.44" y="-57.8" font-family="Times,serif" font-size="14.00">1</text>
</g>
<!-- rand -->
<g id="node6" class="node">
<title>rand</title>
<g id="a_node6"><a xlink:href="rand.svg" xlink:title="rand">
<ellipse fill="lightblue" stroke="black" cx="1012.44" cy="-18" rx="32.49" ry="18"/>
<text text-anchor="middle" x="1012.44" y="-14.3" font-family="Times,serif" font-size="14.00">rand</text>
</a>
</g>
</g>
<!-- w_001.func_B000_8017BCCC&#45;&gt;rand -->
<g id="edge5" class="edge">
<title>w_001.func_B000_8017BCCC&#45;&gt;rand</title>
<path fill="none" stroke="black" d="M690.95,-91.81C768.32,-81.05 877.39,-62.84 970.44,-36 973.04,-35.25 975.71,-34.39 978.37,-33.47"/>
<polygon fill="black" stroke="black" points="979.72,-36.7 987.87,-29.94 977.28,-30.14 979.72,-36.7"/>
<text text-anchor="middle" x="904.44" y="-57.8" font-family="Times,serif" font-size="14.00">2</text>
</g>
</g>
</svg>
