<?xml version="1.0" encoding="UTF-8" standalone="no"?>
<!DOCTYPE svg PUBLIC "-//W3C//DTD SVG 1.1//EN"
 "http://www.w3.org/Graphics/SVG/1.1/DTD/svg11.dtd">
<!-- Generated by graphviz version 2.43.0 (0)
 -->
<!-- Title: w_008.func_3C000_8017AB4C Pages: 1 -->
<svg width="955pt" height="218pt"
 viewBox="0.00 0.00 955.17 218.00" xmlns="http://www.w3.org/2000/svg" xmlns:xlink="http://www.w3.org/1999/xlink">
<g id="graph0" class="graph" transform="scale(1 1) rotate(0) translate(4 214)">
<title>w_008.func_3C000_8017AB4C</title>
<polygon fill="white" stroke="transparent" points="-4,4 -4,-214 951.17,-214 951.17,4 -4,4"/>
<!-- w_008.func_3C000_8017AB4C -->
<g id="node1" class="node">
<title>w_008.func_3C000_8017AB4C</title>
<ellipse fill="red" stroke="black" cx="472.44" cy="-105" rx="151.37" ry="18"/>
<text text-anchor="middle" x="472.44" y="-101.3" font-family="Times,serif" font-size="14.00">w_008.func_3C000_8017AB4C</text>
</g>
<!-- dra.FreePrimitives -->
<g id="node2" class="node">
<title>dra.FreePrimitives</title>
<g id="a_node2"><a xlink:href="dra.FreePrimitives.svg" xlink:title="dra.FreePrimitives">
<ellipse fill="green" stroke="black" cx="472.44" cy="-18" rx="98.58" ry="18"/>
<text text-anchor="middle" x="472.44" y="-14.3" font-family="Times,serif" font-size="14.00">dra.FreePrimitives</text>
</a>
</g>
</g>
<!-- w_008.func_3C000_8017AB4C&#45;&gt;dra.FreePrimitives -->
<g id="edge1" class="edge">
<title>w_008.func_3C000_8017AB4C&#45;&gt;dra.FreePrimitives</title>
<path fill="none" stroke="black" d="M472.44,-86.8C472.44,-75.16 472.44,-59.55 472.44,-46.24"/>
<polygon fill="black" stroke="black" points="475.94,-46.18 472.44,-36.18 468.94,-46.18 475.94,-46.18"/>
<text text-anchor="middle" x="477.44" y="-57.8" font-family="Times,serif" font-size="14.00">1</text>
</g>
<!-- w_008.func_3C000_8017B32C -->
<g id="node3" class="node">
<title>w_008.func_3C000_8017B32C</title>
<g id="a_node3"><a xlink:href="w_008.func_3C000_8017B32C.svg" xlink:title="w_008.func_3C000_8017B32C">
<ellipse fill="red" stroke="black" cx="151.44" cy="-192" rx="151.37" ry="18"/>
<text text-anchor="middle" x="151.44" y="-188.3" font-family="Times,serif" font-size="14.00">w_008.func_3C000_8017B32C</text>
</a>
</g>
</g>
<!-- w_008.func_3C000_8017B32C&#45;&gt;w_008.func_3C000_8017AB4C -->
<g id="edge2" class="edge">
<title>w_008.func_3C000_8017B32C&#45;&gt;w_008.func_3C000_8017AB4C</title>
<path fill="none" stroke="black" d="M210.31,-175.41C264.89,-160.96 346.11,-139.45 403.65,-124.21"/>
<polygon fill="black" stroke="black" points="404.62,-127.58 413.39,-121.64 402.83,-120.81 404.62,-127.58"/>
<text text-anchor="middle" x="336.44" y="-144.8" font-family="Times,serif" font-size="14.00">1</text>
</g>
<!-- w_008.func_3C000_8017AD80 -->
<g id="node4" class="node">
<title>w_008.func_3C000_8017AD80</title>
<g id="a_node4"><a xlink:href="w_008.func_3C000_8017AD80.svg" xlink:title="w_008.func_3C000_8017AD80">
<ellipse fill="red" stroke="black" cx="472.44" cy="-192" rx="151.37" ry="18"/>
<text text-anchor="middle" x="472.44" y="-188.3" font-family="Times,serif" font-size="14.00">w_008.func_3C000_8017AD80</text>
</a>
</g>
</g>
<!-- w_008.func_3C000_8017AD80&#45;&gt;w_008.func_3C000_8017AB4C -->
<g id="edge3" class="edge">
<title>w_008.func_3C000_8017AD80&#45;&gt;w_008.func_3C000_8017AB4C</title>
<path fill="none" stroke="black" d="M472.44,-173.8C472.44,-162.16 472.44,-146.55 472.44,-133.24"/>
<polygon fill="black" stroke="black" points="475.94,-133.18 472.44,-123.18 468.94,-133.18 475.94,-133.18"/>
<text text-anchor="middle" x="477.44" y="-144.8" font-family="Times,serif" font-size="14.00">2</text>
</g>
<!-- w_008.func_3C000_8017AEEC -->
<g id="node5" class="node">
<title>w_008.func_3C000_8017AEEC</title>
<g id="a_node5"><a xlink:href="w_008.func_3C000_8017AEEC.svg" xlink:title="w_008.func_3C000_8017AEEC">
<ellipse fill="red" stroke="black" cx="794.44" cy="-192" rx="152.97" ry="18"/>
<text text-anchor="middle" x="794.44" y="-188.3" font-family="Times,serif" font-size="14.00">w_008.func_3C000_8017AEEC</text>
</a>
</g>
</g>
<!-- w_008.func_3C000_8017AEEC&#45;&gt;w_008.func_3C000_8017AB4C -->
<g id="edge4" class="edge">
<title>w_008.func_3C000_8017AEEC&#45;&gt;w_008.func_3C000_8017AB4C</title>
<path fill="none" stroke="black" d="M735,-175.31C680.2,-160.85 598.87,-139.38 541.27,-124.17"/>
<polygon fill="black" stroke="black" points="542.09,-120.77 531.52,-121.6 540.3,-127.53 542.09,-120.77"/>
<text text-anchor="middle" x="658.44" y="-144.8" font-family="Times,serif" font-size="14.00">1</text>
</g>
</g>
</svg>
