<?xml version="1.0" encoding="UTF-8" standalone="no"?>
<!DOCTYPE svg PUBLIC "-//W3C//DTD SVG 1.1//EN"
 "http://www.w3.org/Graphics/SVG/1.1/DTD/svg11.dtd">
<!-- Generated by graphviz version 2.43.0 (0)
 -->
<!-- Title: w_012.func_ptr_80170004 Pages: 1 -->
<svg width="2080pt" height="131pt"
 viewBox="0.00 0.00 2079.68 131.00" xmlns="http://www.w3.org/2000/svg" xmlns:xlink="http://www.w3.org/1999/xlink">
<g id="graph0" class="graph" transform="scale(1 1) rotate(0) translate(4 127)">
<title>w_012.func_ptr_80170004</title>
<polygon fill="white" stroke="transparent" points="-4,4 -4,-127 2075.68,-127 2075.68,4 -4,4"/>
<!-- w_012.func_ptr_80170004 -->
<g id="node1" class="node">
<title>w_012.func_ptr_80170004</title>
<ellipse fill="red" stroke="black" cx="1257.99" cy="-105" rx="133.48" ry="18"/>
<text text-anchor="middle" x="1257.99" y="-101.3" font-family="Times,serif" font-size="14.00">w_012.func_ptr_80170004</text>
</g>
<!-- w_012.SetSpriteBank1 -->
<g id="node2" class="node">
<title>w_012.SetSpriteBank1</title>
<g id="a_node2"><a xlink:href="w_012.SetSpriteBank1.svg" xlink:title="w_012.SetSpriteBank1">
<ellipse fill="red" stroke="black" cx="116.99" cy="-18" rx="116.98" ry="18"/>
<text text-anchor="middle" x="116.99" y="-14.3" font-family="Times,serif" font-size="14.00">w_012.SetSpriteBank1</text>
</a>
</g>
</g>
<!-- w_012.func_ptr_80170004&#45;&gt;w_012.SetSpriteBank1 -->
<g id="edge1" class="edge">
<title>w_012.func_ptr_80170004&#45;&gt;w_012.SetSpriteBank1</title>
<path fill="none" stroke="black" d="M1124.94,-103.85C957.12,-102.45 659.9,-95.89 406.99,-69 333.87,-61.23 251.31,-46.39 193.03,-34.89"/>
<polygon fill="black" stroke="black" points="193.65,-31.45 183.16,-32.93 192.29,-38.31 193.65,-31.45"/>
<text text-anchor="middle" x="411.99" y="-57.8" font-family="Times,serif" font-size="14.00">1</text>
</g>
<!-- rand -->
<g id="node3" class="node">
<title>rand</title>
<g id="a_node3"><a xlink:href="rand.svg" xlink:title="rand">
<ellipse fill="lightblue" stroke="black" cx="283.99" cy="-18" rx="32.49" ry="18"/>
<text text-anchor="middle" x="283.99" y="-14.3" font-family="Times,serif" font-size="14.00">rand</text>
</a>
</g>
</g>
<!-- w_012.func_ptr_80170004&#45;&gt;rand -->
<g id="edge2" class="edge">
<title>w_012.func_ptr_80170004&#45;&gt;rand</title>
<path fill="none" stroke="black" d="M1135.71,-97.8C1018.27,-91.57 835.9,-81.16 677.99,-69 521.32,-56.93 478.65,-73.2 325.99,-36 323.2,-35.32 320.34,-34.49 317.5,-33.56"/>
<polygon fill="black" stroke="black" points="318.62,-30.24 308.02,-30.12 316.23,-36.82 318.62,-30.24"/>
<text text-anchor="middle" x="682.99" y="-57.8" font-family="Times,serif" font-size="14.00">2</text>
</g>
<!-- w_012.SetSpeedX -->
<g id="node4" class="node">
<title>w_012.SetSpeedX</title>
<g id="a_node4"><a xlink:href="w_012.SetSpeedX.svg" xlink:title="w_012.SetSpeedX">
<ellipse fill="red" stroke="black" cx="428.99" cy="-18" rx="94.48" ry="18"/>
<text text-anchor="middle" x="428.99" y="-14.3" font-family="Times,serif" font-size="14.00">w_012.SetSpeedX</text>
</a>
</g>
</g>
<!-- w_012.func_ptr_80170004&#45;&gt;w_012.SetSpeedX -->
<g id="edge3" class="edge">
<title>w_012.func_ptr_80170004&#45;&gt;w_012.SetSpeedX</title>
<path fill="none" stroke="black" d="M1143.77,-95.72C1000.7,-84.79 748.19,-63.65 532.99,-36 524.35,-34.89 515.33,-33.61 506.37,-32.25"/>
<polygon fill="black" stroke="black" points="506.72,-28.76 496.3,-30.69 505.65,-35.68 506.72,-28.76"/>
<text text-anchor="middle" x="836.99" y="-57.8" font-family="Times,serif" font-size="14.00">1</text>
</g>
<!-- w_012.SetWeaponProperties -->
<g id="node5" class="node">
<title>w_012.SetWeaponProperties</title>
<g id="a_node5"><a xlink:href="w_012.SetWeaponProperties.svg" xlink:title="w_012.SetWeaponProperties">
<ellipse fill="red" stroke="black" cx="685.99" cy="-18" rx="144.07" ry="18"/>
<text text-anchor="middle" x="685.99" y="-14.3" font-family="Times,serif" font-size="14.00">w_012.SetWeaponProperties</text>
</a>
</g>
</g>
<!-- w_012.func_ptr_80170004&#45;&gt;w_012.SetWeaponProperties -->
<g id="edge4" class="edge">
<title>w_012.func_ptr_80170004&#45;&gt;w_012.SetWeaponProperties</title>
<path fill="none" stroke="black" d="M1172.05,-91.23C1068.31,-75.81 894.22,-49.94 784.97,-33.71"/>
<polygon fill="black" stroke="black" points="785.34,-30.23 774.93,-32.22 784.31,-37.15 785.34,-30.23"/>
<text text-anchor="middle" x="1011.99" y="-57.8" font-family="Times,serif" font-size="14.00">1</text>
</g>
<!-- w_012.DestroyEntityWeapon -->
<g id="node6" class="node">
<title>w_012.DestroyEntityWeapon</title>
<g id="a_node6"><a xlink:href="w_012.DestroyEntityWeapon.svg" xlink:title="w_012.DestroyEntityWeapon">
<ellipse fill="red" stroke="black" cx="993.99" cy="-18" rx="145.67" ry="18"/>
<text text-anchor="middle" x="993.99" y="-14.3" font-family="Times,serif" font-size="14.00">w_012.DestroyEntityWeapon</text>
</a>
</g>
</g>
<!-- w_012.func_ptr_80170004&#45;&gt;w_012.DestroyEntityWeapon -->
<g id="edge5" class="edge">
<title>w_012.func_ptr_80170004&#45;&gt;w_012.DestroyEntityWeapon</title>
<path fill="none" stroke="black" d="M1208.95,-88.21C1164.96,-74.05 1100.3,-53.23 1053.39,-38.12"/>
<polygon fill="black" stroke="black" points="1054.25,-34.73 1043.66,-34.99 1052.11,-41.39 1054.25,-34.73"/>
<text text-anchor="middle" x="1146.99" y="-57.8" font-family="Times,serif" font-size="14.00">1</text>
</g>
<!-- dra.func_80134714 -->
<g id="node7" class="node">
<title>dra.func_80134714</title>
<g id="a_node7"><a xlink:href="dra.func_80134714.svg" xlink:title="dra.func_80134714">
<ellipse fill="green" stroke="black" cx="1257.99" cy="-18" rx="100.98" ry="18"/>
<text text-anchor="middle" x="1257.99" y="-14.3" font-family="Times,serif" font-size="14.00">dra.func_80134714</text>
</a>
</g>
</g>
<!-- w_012.func_ptr_80170004&#45;&gt;dra.func_80134714 -->
<g id="edge6" class="edge">
<title>w_012.func_ptr_80170004&#45;&gt;dra.func_80134714</title>
<path fill="none" stroke="black" d="M1257.99,-86.8C1257.99,-75.16 1257.99,-59.55 1257.99,-46.24"/>
<polygon fill="black" stroke="black" points="1261.49,-46.18 1257.99,-36.18 1254.49,-46.18 1261.49,-46.18"/>
<text text-anchor="middle" x="1262.99" y="-57.8" font-family="Times,serif" font-size="14.00">2</text>
</g>
<!-- ratan2 -->
<g id="node8" class="node">
<title>ratan2</title>
<g id="a_node8"><a xlink:href="ratan2.svg" xlink:title="ratan2">
<ellipse fill="lightblue" stroke="black" cx="1417.99" cy="-18" rx="41.69" ry="18"/>
<text text-anchor="middle" x="1417.99" y="-14.3" font-family="Times,serif" font-size="14.00">ratan2</text>
</a>
</g>
</g>
<!-- w_012.func_ptr_80170004&#45;&gt;ratan2 -->
<g id="edge7" class="edge">
<title>w_012.func_ptr_80170004&#45;&gt;ratan2</title>
<path fill="none" stroke="black" d="M1289.22,-87.41C1316.35,-73 1355.57,-52.16 1383.59,-37.27"/>
<polygon fill="black" stroke="black" points="1385.44,-40.26 1392.63,-32.47 1382.16,-34.07 1385.44,-40.26"/>
<text text-anchor="middle" x="1352.99" y="-57.8" font-family="Times,serif" font-size="14.00">2</text>
</g>
<!-- w_012.DestroyEntity -->
<g id="node9" class="node">
<title>w_012.DestroyEntity</title>
<g id="a_node9"><a xlink:href="w_012.DestroyEntity.svg" xlink:title="w_012.DestroyEntity">
<ellipse fill="red" stroke="black" cx="1585.99" cy="-18" rx="108.58" ry="18"/>
<text text-anchor="middle" x="1585.99" y="-14.3" font-family="Times,serif" font-size="14.00">w_012.DestroyEntity</text>
</a>
</g>
</g>
<!-- w_012.func_ptr_80170004&#45;&gt;w_012.DestroyEntity -->
<g id="edge8" class="edge">
<title>w_012.func_ptr_80170004&#45;&gt;w_012.DestroyEntity</title>
<path fill="none" stroke="black" d="M1316.63,-88.8C1373.76,-74 1460.48,-51.52 1520,-36.1"/>
<polygon fill="black" stroke="black" points="1521.24,-39.39 1530.05,-33.5 1519.49,-32.62 1521.24,-39.39"/>
<text text-anchor="middle" x="1446.99" y="-57.8" font-family="Times,serif" font-size="14.00">1</text>
</g>
<!-- rcos -->
<g id="node10" class="node">
<title>rcos</title>
<g id="a_node10"><a xlink:href="rcos.svg" xlink:title="rcos">
<ellipse fill="lightblue" stroke="black" cx="1742.99" cy="-18" rx="30.59" ry="18"/>
<text text-anchor="middle" x="1742.99" y="-14.3" font-family="Times,serif" font-size="14.00">rcos</text>
</a>
</g>
</g>
<!-- w_012.func_ptr_80170004&#45;&gt;rcos -->
<g id="edge9" class="edge">
<title>w_012.func_ptr_80170004&#45;&gt;rcos</title>
<path fill="none" stroke="black" d="M1369.69,-95.08C1460.96,-85.87 1592.62,-68.17 1703.99,-36 1706.26,-35.34 1708.58,-34.58 1710.89,-33.76"/>
<polygon fill="black" stroke="black" points="1712.23,-36.99 1720.26,-30.08 1709.67,-30.48 1712.23,-36.99"/>
<text text-anchor="middle" x="1637.99" y="-57.8" font-family="Times,serif" font-size="14.00">1</text>
</g>
<!-- rsin -->
<g id="node11" class="node">
<title>rsin</title>
<g id="a_node11"><a xlink:href="rsin.svg" xlink:title="rsin">
<ellipse fill="lightblue" stroke="black" cx="1819.99" cy="-18" rx="28.7" ry="18"/>
<text text-anchor="middle" x="1819.99" y="-14.3" font-family="Times,serif" font-size="14.00">rsin</text>
</a>
</g>
</g>
<!-- w_012.func_ptr_80170004&#45;&gt;rsin -->
<g id="edge10" class="edge">
<title>w_012.func_ptr_80170004&#45;&gt;rsin</title>
<path fill="none" stroke="black" d="M1379.91,-97.69C1456.88,-92.55 1558.18,-83.69 1646.99,-69 1708.35,-58.85 1724.24,-56.41 1782.99,-36 1784.89,-35.34 1786.83,-34.61 1788.77,-33.85"/>
<polygon fill="black" stroke="black" points="1790.52,-36.91 1798.36,-29.78 1787.79,-30.46 1790.52,-36.91"/>
<text text-anchor="middle" x="1730.99" y="-57.8" font-family="Times,serif" font-size="14.00">1</text>
</g>
<!-- dra.func_8011AAFC -->
<g id="node12" class="node">
<title>dra.func_8011AAFC</title>
<g id="a_node12"><a xlink:href="dra.func_8011AAFC.svg" xlink:title="dra.func_8011AAFC">
<ellipse fill="green" stroke="black" cx="1968.99" cy="-18" rx="102.88" ry="18"/>
<text text-anchor="middle" x="1968.99" y="-14.3" font-family="Times,serif" font-size="14.00">dra.func_8011AAFC</text>
</a>
</g>
</g>
<!-- w_012.func_ptr_80170004&#45;&gt;dra.func_8011AAFC -->
<g id="edge11" class="edge">
<title>w_012.func_ptr_80170004&#45;&gt;dra.func_8011AAFC</title>
<path fill="none" stroke="black" d="M1385.38,-99.7C1482.86,-95.22 1620.42,-86.3 1739.99,-69 1795.9,-60.91 1858.5,-46.89 1904.11,-35.75"/>
<polygon fill="black" stroke="black" points="1904.99,-39.14 1913.86,-33.35 1903.32,-32.34 1904.99,-39.14"/>
<text text-anchor="middle" x="1827.99" y="-57.8" font-family="Times,serif" font-size="14.00">1</text>
</g>
</g>
</svg>
