<?xml version="1.0" encoding="UTF-8" standalone="no"?>
<!DOCTYPE svg PUBLIC "-//W3C//DTD SVG 1.1//EN"
 "http://www.w3.org/Graphics/SVG/1.1/DTD/svg11.dtd">
<!-- Generated by graphviz version 2.43.0 (0)
 -->
<!-- Title: w_011.func_51000_8017AF10 Pages: 1 -->
<svg width="312pt" height="218pt"
 viewBox="0.00 0.00 312.17 218.00" xmlns="http://www.w3.org/2000/svg" xmlns:xlink="http://www.w3.org/1999/xlink">
<g id="graph0" class="graph" transform="scale(1 1) rotate(0) translate(4 214)">
<title>w_011.func_51000_8017AF10</title>
<polygon fill="white" stroke="transparent" points="-4,4 -4,-214 308.17,-214 308.17,4 -4,4"/>
<!-- w_011.func_51000_8017AF10 -->
<g id="node1" class="node">
<title>w_011.func_51000_8017AF10</title>
<ellipse fill="red" stroke="black" cx="152.09" cy="-105" rx="149.47" ry="18"/>
<text text-anchor="middle" x="152.09" y="-101.3" font-family="Times,serif" font-size="14.00">w_011.func_51000_8017AF10</text>
</g>
<!-- w_011.func_51000_8017ACDC -->
<g id="node2" class="node">
<title>w_011.func_51000_8017ACDC</title>
<g id="a_node2"><a xlink:href="w_011.func_51000_8017ACDC.svg" xlink:title="w_011.func_51000_8017ACDC">
<ellipse fill="red" stroke="black" cx="152.09" cy="-18" rx="152.17" ry="18"/>
<text text-anchor="middle" x="152.09" y="-14.3" font-family="Times,serif" font-size="14.00">w_011.func_51000_8017ACDC</text>
</a>
</g>
</g>
<!-- w_011.func_51000_8017AF10&#45;&gt;w_011.func_51000_8017ACDC -->
<g id="edge1" class="edge">
<title>w_011.func_51000_8017AF10&#45;&gt;w_011.func_51000_8017ACDC</title>
<path fill="none" stroke="black" d="M152.09,-86.8C152.09,-75.16 152.09,-59.55 152.09,-46.24"/>
<polygon fill="black" stroke="black" points="155.59,-46.18 152.09,-36.18 148.59,-46.18 155.59,-46.18"/>
<text text-anchor="middle" x="157.09" y="-57.8" font-family="Times,serif" font-size="14.00">2</text>
</g>
<!-- w_011.func_51000_8017B4BC -->
<g id="node3" class="node">
<title>w_011.func_51000_8017B4BC</title>
<g id="a_node3"><a xlink:href="w_011.func_51000_8017B4BC.svg" xlink:title="w_011.func_51000_8017B4BC">
<ellipse fill="red" stroke="black" cx="152.09" cy="-192" rx="151.37" ry="18"/>
<text text-anchor="middle" x="152.09" y="-188.3" font-family="Times,serif" font-size="14.00">w_011.func_51000_8017B4BC</text>
</a>
</g>
</g>
<!-- w_011.func_51000_8017B4BC&#45;&gt;w_011.func_51000_8017AF10 -->
<g id="edge2" class="edge">
<title>w_011.func_51000_8017B4BC&#45;&gt;w_011.func_51000_8017AF10</title>
<path fill="none" stroke="black" d="M152.09,-173.8C152.09,-162.16 152.09,-146.55 152.09,-133.24"/>
<polygon fill="black" stroke="black" points="155.59,-133.18 152.09,-123.18 148.59,-133.18 155.59,-133.18"/>
<text text-anchor="middle" x="157.09" y="-144.8" font-family="Times,serif" font-size="14.00">1</text>
</g>
</g>
</svg>
