<?xml version="1.0" encoding="UTF-8" standalone="no"?>
<!DOCTYPE svg PUBLIC "-//W3C//DTD SVG 1.1//EN"
 "http://www.w3.org/Graphics/SVG/1.1/DTD/svg11.dtd">
<!-- Generated by graphviz version 2.43.0 (0)
 -->
<!-- Title: w_010.func_4A000_8017ADC4 Pages: 1 -->
<svg width="624pt" height="131pt"
 viewBox="0.00 0.00 623.97 131.00" xmlns="http://www.w3.org/2000/svg" xmlns:xlink="http://www.w3.org/1999/xlink">
<g id="graph0" class="graph" transform="scale(1 1) rotate(0) translate(4 127)">
<title>w_010.func_4A000_8017ADC4</title>
<polygon fill="white" stroke="transparent" points="-4,4 -4,-127 619.97,-127 619.97,4 -4,4"/>
<!-- w_010.func_4A000_8017ADC4 -->
<g id="node1" class="node">
<title>w_010.func_4A000_8017ADC4</title>
<ellipse fill="red" stroke="black" cx="307.49" cy="-18" rx="151.37" ry="18"/>
<text text-anchor="middle" x="307.49" y="-14.3" font-family="Times,serif" font-size="14.00">w_010.func_4A000_8017ADC4</text>
</g>
<!-- w_010.func_4A000_8017B164 -->
<g id="node2" class="node">
<title>w_010.func_4A000_8017B164</title>
<g id="a_node2"><a xlink:href="w_010.func_4A000_8017B164.svg" xlink:title="w_010.func_4A000_8017B164">
<ellipse fill="red" stroke="black" cx="149.49" cy="-105" rx="149.47" ry="18"/>
<text text-anchor="middle" x="149.49" y="-101.3" font-family="Times,serif" font-size="14.00">w_010.func_4A000_8017B164</text>
</a>
</g>
</g>
<!-- w_010.func_4A000_8017B164&#45;&gt;w_010.func_4A000_8017ADC4 -->
<g id="edge1" class="edge">
<title>w_010.func_4A000_8017B164&#45;&gt;w_010.func_4A000_8017ADC4</title>
<path fill="none" stroke="black" d="M180.7,-87.21C205.48,-73.88 240.3,-55.14 267.19,-40.68"/>
<polygon fill="black" stroke="black" points="269.19,-43.58 276.34,-35.76 265.87,-37.41 269.19,-43.58"/>
<text text-anchor="middle" x="243.49" y="-57.8" font-family="Times,serif" font-size="14.00">1</text>
</g>
<!-- w_010.func_4A000_8017B724 -->
<g id="node3" class="node">
<title>w_010.func_4A000_8017B724</title>
<g id="a_node3"><a xlink:href="w_010.func_4A000_8017B724.svg" xlink:title="w_010.func_4A000_8017B724">
<ellipse fill="red" stroke="black" cx="466.49" cy="-105" rx="149.47" ry="18"/>
<text text-anchor="middle" x="466.49" y="-101.3" font-family="Times,serif" font-size="14.00">w_010.func_4A000_8017B724</text>
</a>
</g>
</g>
<!-- w_010.func_4A000_8017B724&#45;&gt;w_010.func_4A000_8017ADC4 -->
<g id="edge2" class="edge">
<title>w_010.func_4A000_8017B724&#45;&gt;w_010.func_4A000_8017ADC4</title>
<path fill="none" stroke="black" d="M435.07,-87.21C410.03,-73.82 374.79,-54.98 347.69,-40.49"/>
<polygon fill="black" stroke="black" points="349.3,-37.39 338.83,-35.76 346,-43.56 349.3,-37.39"/>
<text text-anchor="middle" x="402.49" y="-57.8" font-family="Times,serif" font-size="14.00">1</text>
</g>
</g>
</svg>
