<?xml version="1.0" encoding="UTF-8" standalone="no"?>
<!DOCTYPE svg PUBLIC "-//W3C//DTD SVG 1.1//EN"
 "http://www.w3.org/Graphics/SVG/1.1/DTD/svg11.dtd">
<!-- Generated by graphviz version 2.43.0 (0)
 -->
<!-- Title: w_013.DestroyEntityWeapon Pages: 1 -->
<svg width="570pt" height="218pt"
 viewBox="0.00 0.00 569.68 218.00" xmlns="http://www.w3.org/2000/svg" xmlns:xlink="http://www.w3.org/1999/xlink">
<g id="graph0" class="graph" transform="scale(1 1) rotate(0) translate(4 214)">
<title>w_013.DestroyEntityWeapon</title>
<polygon fill="white" stroke="transparent" points="-4,4 -4,-214 565.68,-214 565.68,4 -4,4"/>
<!-- w_013.DestroyEntityWeapon -->
<g id="node1" class="node">
<title>w_013.DestroyEntityWeapon</title>
<ellipse fill="red" stroke="black" cx="283.44" cy="-105" rx="145.67" ry="18"/>
<text text-anchor="middle" x="283.44" y="-101.3" font-family="Times,serif" font-size="14.00">w_013.DestroyEntityWeapon</text>
</g>
<!-- w_013.DestroyEntity -->
<g id="node2" class="node">
<title>w_013.DestroyEntity</title>
<g id="a_node2"><a xlink:href="w_013.DestroyEntity.svg" xlink:title="w_013.DestroyEntity">
<ellipse fill="red" stroke="black" cx="283.44" cy="-18" rx="108.58" ry="18"/>
<text text-anchor="middle" x="283.44" y="-14.3" font-family="Times,serif" font-size="14.00">w_013.DestroyEntity</text>
</a>
</g>
</g>
<!-- w_013.DestroyEntityWeapon&#45;&gt;w_013.DestroyEntity -->
<g id="edge1" class="edge">
<title>w_013.DestroyEntityWeapon&#45;&gt;w_013.DestroyEntity</title>
<path fill="none" stroke="black" d="M283.44,-86.8C283.44,-75.16 283.44,-59.55 283.44,-46.24"/>
<polygon fill="black" stroke="black" points="286.94,-46.18 283.44,-36.18 279.94,-46.18 286.94,-46.18"/>
<text text-anchor="middle" x="288.44" y="-57.8" font-family="Times,serif" font-size="14.00">2</text>
</g>
<!-- w_013.EntityWeaponAttack -->
<g id="node3" class="node">
<title>w_013.EntityWeaponAttack</title>
<g id="a_node3"><a xlink:href="w_013.EntityWeaponAttack.svg" xlink:title="w_013.EntityWeaponAttack">
<ellipse fill="red" stroke="black" cx="138.44" cy="-192" rx="138.38" ry="18"/>
<text text-anchor="middle" x="138.44" y="-188.3" font-family="Times,serif" font-size="14.00">w_013.EntityWeaponAttack</text>
</a>
</g>
</g>
<!-- w_013.EntityWeaponAttack&#45;&gt;w_013.DestroyEntityWeapon -->
<g id="edge2" class="edge">
<title>w_013.EntityWeaponAttack&#45;&gt;w_013.DestroyEntityWeapon</title>
<path fill="none" stroke="black" d="M167.09,-174.21C189.73,-160.93 221.5,-142.31 246.13,-127.87"/>
<polygon fill="black" stroke="black" points="247.99,-130.84 254.85,-122.76 244.45,-124.8 247.99,-130.84"/>
<text text-anchor="middle" x="225.44" y="-144.8" font-family="Times,serif" font-size="14.00">1</text>
</g>
<!-- w_013.func_ptr_80170008 -->
<g id="node4" class="node">
<title>w_013.func_ptr_80170008</title>
<g id="a_node4"><a xlink:href="w_013.func_ptr_80170008.svg" xlink:title="w_013.func_ptr_80170008">
<ellipse fill="red" stroke="black" cx="428.44" cy="-192" rx="133.48" ry="18"/>
<text text-anchor="middle" x="428.44" y="-188.3" font-family="Times,serif" font-size="14.00">w_013.func_ptr_80170008</text>
</a>
</g>
</g>
<!-- w_013.func_ptr_80170008&#45;&gt;w_013.DestroyEntityWeapon -->
<g id="edge3" class="edge">
<title>w_013.func_ptr_80170008&#45;&gt;w_013.DestroyEntityWeapon</title>
<path fill="none" stroke="black" d="M400.14,-174.41C377.53,-161.16 345.65,-142.47 320.92,-127.97"/>
<polygon fill="black" stroke="black" points="322.56,-124.88 312.16,-122.84 319.02,-130.92 322.56,-124.88"/>
<text text-anchor="middle" x="370.44" y="-144.8" font-family="Times,serif" font-size="14.00">1</text>
</g>
</g>
</svg>
