<?xml version="1.0" encoding="UTF-8" standalone="no"?>
<!DOCTYPE svg PUBLIC "-//W3C//DTD SVG 1.1//EN"
 "http://www.w3.org/Graphics/SVG/1.1/DTD/svg11.dtd">
<!-- Generated by graphviz version 2.43.0 (0)
 -->
<!-- Title: w_013.func_5F000_8017A860 Pages: 1 -->
<svg width="626pt" height="218pt"
 viewBox="0.00 0.00 626.27 218.00" xmlns="http://www.w3.org/2000/svg" xmlns:xlink="http://www.w3.org/1999/xlink">
<g id="graph0" class="graph" transform="scale(1 1) rotate(0) translate(4 214)">
<title>w_013.func_5F000_8017A860</title>
<polygon fill="white" stroke="transparent" points="-4,4 -4,-214 622.27,-214 622.27,4 -4,4"/>
<!-- w_013.func_5F000_8017A860 -->
<g id="node1" class="node">
<title>w_013.func_5F000_8017A860</title>
<ellipse fill="red" stroke="black" cx="309.79" cy="-105" rx="149.47" ry="18"/>
<text text-anchor="middle" x="309.79" y="-101.3" font-family="Times,serif" font-size="14.00">w_013.func_5F000_8017A860</text>
</g>
<!-- w_013.func_5F000_8017A62C -->
<g id="node2" class="node">
<title>w_013.func_5F000_8017A62C</title>
<g id="a_node2"><a xlink:href="w_013.func_5F000_8017A62C.svg" xlink:title="w_013.func_5F000_8017A62C">
<ellipse fill="red" stroke="black" cx="309.79" cy="-18" rx="150.27" ry="18"/>
<text text-anchor="middle" x="309.79" y="-14.3" font-family="Times,serif" font-size="14.00">w_013.func_5F000_8017A62C</text>
</a>
</g>
</g>
<!-- w_013.func_5F000_8017A860&#45;&gt;w_013.func_5F000_8017A62C -->
<g id="edge1" class="edge">
<title>w_013.func_5F000_8017A860&#45;&gt;w_013.func_5F000_8017A62C</title>
<path fill="none" stroke="black" d="M309.79,-86.8C309.79,-75.16 309.79,-59.55 309.79,-46.24"/>
<polygon fill="black" stroke="black" points="313.29,-46.18 309.79,-36.18 306.29,-46.18 313.29,-46.18"/>
<text text-anchor="middle" x="314.79" y="-57.8" font-family="Times,serif" font-size="14.00">2</text>
</g>
<!-- w_013.func_5F000_8017AAC4 -->
<g id="node3" class="node">
<title>w_013.func_5F000_8017AAC4</title>
<g id="a_node3"><a xlink:href="w_013.func_5F000_8017AAC4.svg" xlink:title="w_013.func_5F000_8017AAC4">
<ellipse fill="red" stroke="black" cx="150.79" cy="-192" rx="150.57" ry="18"/>
<text text-anchor="middle" x="150.79" y="-188.3" font-family="Times,serif" font-size="14.00">w_013.func_5F000_8017AAC4</text>
</a>
</g>
</g>
<!-- w_013.func_5F000_8017AAC4&#45;&gt;w_013.func_5F000_8017A860 -->
<g id="edge2" class="edge">
<title>w_013.func_5F000_8017AAC4&#45;&gt;w_013.func_5F000_8017A860</title>
<path fill="none" stroke="black" d="M182.2,-174.21C207.33,-160.78 242.71,-141.86 269.85,-127.35"/>
<polygon fill="black" stroke="black" points="271.54,-130.41 278.71,-122.61 268.24,-124.24 271.54,-130.41"/>
<text text-anchor="middle" x="245.79" y="-144.8" font-family="Times,serif" font-size="14.00">1</text>
</g>
<!-- w_013.func_5F000_8017B240 -->
<g id="node4" class="node">
<title>w_013.func_5F000_8017B240</title>
<g id="a_node4"><a xlink:href="w_013.func_5F000_8017B240.svg" xlink:title="w_013.func_5F000_8017B240">
<ellipse fill="red" stroke="black" cx="468.79" cy="-192" rx="149.47" ry="18"/>
<text text-anchor="middle" x="468.79" y="-188.3" font-family="Times,serif" font-size="14.00">w_013.func_5F000_8017B240</text>
</a>
</g>
</g>
<!-- w_013.func_5F000_8017B240&#45;&gt;w_013.func_5F000_8017A860 -->
<g id="edge3" class="edge">
<title>w_013.func_5F000_8017B240&#45;&gt;w_013.func_5F000_8017A860</title>
<path fill="none" stroke="black" d="M437.37,-174.21C412.25,-160.78 376.86,-141.86 349.72,-127.35"/>
<polygon fill="black" stroke="black" points="351.33,-124.24 340.86,-122.61 348.03,-130.41 351.33,-124.24"/>
<text text-anchor="middle" x="404.79" y="-144.8" font-family="Times,serif" font-size="14.00">1</text>
</g>
</g>
</svg>
