<?xml version="1.0" encoding="UTF-8" standalone="no"?>
<!DOCTYPE svg PUBLIC "-//W3C//DTD SVG 1.1//EN"
 "http://www.w3.org/Graphics/SVG/1.1/DTD/svg11.dtd">
<!-- Generated by graphviz version 2.43.0 (0)
 -->
<!-- Title: w_014.EntityWeaponAttack Pages: 1 -->
<svg width="2579pt" height="131pt"
 viewBox="0.00 0.00 2579.04 131.00" xmlns="http://www.w3.org/2000/svg" xmlns:xlink="http://www.w3.org/1999/xlink">
<g id="graph0" class="graph" transform="scale(1 1) rotate(0) translate(4 127)">
<title>w_014.EntityWeaponAttack</title>
<polygon fill="white" stroke="transparent" points="-4,4 -4,-127 2575.04,-127 2575.04,4 -4,4"/>
<!-- w_014.EntityWeaponAttack -->
<g id="node1" class="node">
<title>w_014.EntityWeaponAttack</title>
<ellipse fill="red" stroke="black" cx="1398.44" cy="-105" rx="138.38" ry="18"/>
<text text-anchor="middle" x="1398.44" y="-101.3" font-family="Times,serif" font-size="14.00">w_014.EntityWeaponAttack</text>
</g>
<!-- dra.AllocPrimitives -->
<g id="node2" class="node">
<title>dra.AllocPrimitives</title>
<g id="a_node2"><a xlink:href="dra.AllocPrimitives.svg" xlink:title="dra.AllocPrimitives">
<ellipse fill="green" stroke="black" cx="99.44" cy="-18" rx="99.38" ry="18"/>
<text text-anchor="middle" x="99.44" y="-14.3" font-family="Times,serif" font-size="14.00">dra.AllocPrimitives</text>
</a>
</g>
</g>
<!-- w_014.EntityWeaponAttack&#45;&gt;dra.AllocPrimitives -->
<g id="edge1" class="edge">
<title>w_014.EntityWeaponAttack&#45;&gt;dra.AllocPrimitives</title>
<path fill="none" stroke="black" d="M1262.23,-101.57C1040.48,-96.42 587.95,-80.9 207.44,-36 198.37,-34.93 188.9,-33.66 179.5,-32.31"/>
<polygon fill="black" stroke="black" points="179.74,-28.81 169.34,-30.81 178.72,-35.73 179.74,-28.81"/>
<text text-anchor="middle" x="539.44" y="-57.8" font-family="Times,serif" font-size="14.00">1</text>
</g>
<!-- w_014.SetSpriteBank1 -->
<g id="node3" class="node">
<title>w_014.SetSpriteBank1</title>
<g id="a_node3"><a xlink:href="w_014.SetSpriteBank1.svg" xlink:title="w_014.SetSpriteBank1">
<ellipse fill="red" stroke="black" cx="333.44" cy="-18" rx="116.98" ry="18"/>
<text text-anchor="middle" x="333.44" y="-14.3" font-family="Times,serif" font-size="14.00">w_014.SetSpriteBank1</text>
</a>
</g>
</g>
<!-- w_014.EntityWeaponAttack&#45;&gt;w_014.SetSpriteBank1 -->
<g id="edge2" class="edge">
<title>w_014.EntityWeaponAttack&#45;&gt;w_014.SetSpriteBank1</title>
<path fill="none" stroke="black" d="M1270.55,-98.1C1089.56,-88.98 748.5,-69 459.44,-36 448.86,-34.79 437.8,-33.44 426.81,-32.03"/>
<polygon fill="black" stroke="black" points="427.11,-28.54 416.75,-30.73 426.21,-35.48 427.11,-28.54"/>
<text text-anchor="middle" x="799.44" y="-57.8" font-family="Times,serif" font-size="14.00">1</text>
</g>
<!-- w_014.SetSpeedX -->
<g id="node4" class="node">
<title>w_014.SetSpeedX</title>
<g id="a_node4"><a xlink:href="w_014.SetSpeedX.svg" xlink:title="w_014.SetSpeedX">
<ellipse fill="red" stroke="black" cx="562.44" cy="-18" rx="94.48" ry="18"/>
<text text-anchor="middle" x="562.44" y="-14.3" font-family="Times,serif" font-size="14.00">w_014.SetSpeedX</text>
</a>
</g>
</g>
<!-- w_014.EntityWeaponAttack&#45;&gt;w_014.SetSpeedX -->
<g id="edge3" class="edge">
<title>w_014.EntityWeaponAttack&#45;&gt;w_014.SetSpeedX</title>
<path fill="none" stroke="black" d="M1280.26,-95.56C1135.32,-84.62 882.29,-63.63 666.44,-36 657.74,-34.89 648.65,-33.59 639.62,-32.23"/>
<polygon fill="black" stroke="black" points="639.89,-28.73 629.48,-30.66 638.82,-35.65 639.89,-28.73"/>
<text text-anchor="middle" x="973.44" y="-57.8" font-family="Times,serif" font-size="14.00">2</text>
</g>
<!-- w_014.SetWeaponProperties -->
<g id="node5" class="node">
<title>w_014.SetWeaponProperties</title>
<g id="a_node5"><a xlink:href="w_014.SetWeaponProperties.svg" xlink:title="w_014.SetWeaponProperties">
<ellipse fill="red" stroke="black" cx="819.44" cy="-18" rx="144.07" ry="18"/>
<text text-anchor="middle" x="819.44" y="-14.3" font-family="Times,serif" font-size="14.00">w_014.SetWeaponProperties</text>
</a>
</g>
</g>
<!-- w_014.EntityWeaponAttack&#45;&gt;w_014.SetWeaponProperties -->
<g id="edge4" class="edge">
<title>w_014.EntityWeaponAttack&#45;&gt;w_014.SetWeaponProperties</title>
<path fill="none" stroke="black" d="M1310.5,-91.09C1205.28,-75.64 1029.53,-49.84 919.29,-33.66"/>
<polygon fill="black" stroke="black" points="919.56,-30.16 909.16,-32.17 918.55,-37.09 919.56,-30.16"/>
<text text-anchor="middle" x="1149.44" y="-57.8" font-family="Times,serif" font-size="14.00">1</text>
</g>
<!-- w_014.DestroyEntityWeapon -->
<g id="node6" class="node">
<title>w_014.DestroyEntityWeapon</title>
<g id="a_node6"><a xlink:href="w_014.DestroyEntityWeapon.svg" xlink:title="w_014.DestroyEntityWeapon">
<ellipse fill="red" stroke="black" cx="1127.44" cy="-18" rx="145.67" ry="18"/>
<text text-anchor="middle" x="1127.44" y="-14.3" font-family="Times,serif" font-size="14.00">w_014.DestroyEntityWeapon</text>
</a>
</g>
</g>
<!-- w_014.EntityWeaponAttack&#45;&gt;w_014.DestroyEntityWeapon -->
<g id="edge5" class="edge">
<title>w_014.EntityWeaponAttack&#45;&gt;w_014.DestroyEntityWeapon</title>
<path fill="none" stroke="black" d="M1348.1,-88.21C1302.85,-74.02 1236.29,-53.14 1188.11,-38.03"/>
<polygon fill="black" stroke="black" points="1189.02,-34.65 1178.43,-34.99 1186.92,-41.32 1189.02,-34.65"/>
<text text-anchor="middle" x="1284.44" y="-57.8" font-family="Times,serif" font-size="14.00">1</text>
</g>
<!-- rcos -->
<g id="node7" class="node">
<title>rcos</title>
<g id="a_node7"><a xlink:href="rcos.svg" xlink:title="rcos">
<ellipse fill="lightblue" stroke="black" cx="1321.44" cy="-18" rx="30.59" ry="18"/>
<text text-anchor="middle" x="1321.44" y="-14.3" font-family="Times,serif" font-size="14.00">rcos</text>
</a>
</g>
</g>
<!-- w_014.EntityWeaponAttack&#45;&gt;rcos -->
<g id="edge6" class="edge">
<title>w_014.EntityWeaponAttack&#45;&gt;rcos</title>
<path fill="none" stroke="black" d="M1382.86,-86.8C1371.07,-73.78 1354.77,-55.79 1341.92,-41.61"/>
<polygon fill="black" stroke="black" points="1344.5,-39.24 1335.19,-34.18 1339.31,-43.94 1344.5,-39.24"/>
<text text-anchor="middle" x="1370.44" y="-57.8" font-family="Times,serif" font-size="14.00">9</text>
</g>
<!-- rsin -->
<g id="node8" class="node">
<title>rsin</title>
<g id="a_node8"><a xlink:href="rsin.svg" xlink:title="rsin">
<ellipse fill="lightblue" stroke="black" cx="1398.44" cy="-18" rx="28.7" ry="18"/>
<text text-anchor="middle" x="1398.44" y="-14.3" font-family="Times,serif" font-size="14.00">rsin</text>
</a>
</g>
</g>
<!-- w_014.EntityWeaponAttack&#45;&gt;rsin -->
<g id="edge7" class="edge">
<title>w_014.EntityWeaponAttack&#45;&gt;rsin</title>
<path fill="none" stroke="black" d="M1398.44,-86.8C1398.44,-75.16 1398.44,-59.55 1398.44,-46.24"/>
<polygon fill="black" stroke="black" points="1401.94,-46.18 1398.44,-36.18 1394.94,-46.18 1401.94,-46.18"/>
<text text-anchor="middle" x="1403.44" y="-57.8" font-family="Times,serif" font-size="14.00">5</text>
</g>
<!-- dra.func_80134714 -->
<g id="node9" class="node">
<title>dra.func_80134714</title>
<g id="a_node9"><a xlink:href="dra.func_80134714.svg" xlink:title="dra.func_80134714">
<ellipse fill="green" stroke="black" cx="1545.44" cy="-18" rx="100.98" ry="18"/>
<text text-anchor="middle" x="1545.44" y="-14.3" font-family="Times,serif" font-size="14.00">dra.func_80134714</text>
</a>
</g>
</g>
<!-- w_014.EntityWeaponAttack&#45;&gt;dra.func_80134714 -->
<g id="edge8" class="edge">
<title>w_014.EntityWeaponAttack&#45;&gt;dra.func_80134714</title>
<path fill="none" stroke="black" d="M1427.48,-87.21C1450.66,-73.81 1483.28,-54.94 1508.35,-40.45"/>
<polygon fill="black" stroke="black" points="1510.3,-43.36 1517.21,-35.33 1506.8,-37.3 1510.3,-43.36"/>
<text text-anchor="middle" x="1486.44" y="-57.8" font-family="Times,serif" font-size="14.00">1</text>
</g>
<!-- dra.PlaySfx -->
<g id="node10" class="node">
<title>dra.PlaySfx</title>
<g id="a_node10"><a xlink:href="dra.PlaySfx.svg" xlink:title="dra.PlaySfx">
<ellipse fill="green" stroke="black" cx="1728.44" cy="-18" rx="64.19" ry="18"/>
<text text-anchor="middle" x="1728.44" y="-14.3" font-family="Times,serif" font-size="14.00">dra.PlaySfx</text>
</a>
</g>
</g>
<!-- w_014.EntityWeaponAttack&#45;&gt;dra.PlaySfx -->
<g id="edge9" class="edge">
<title>w_014.EntityWeaponAttack&#45;&gt;dra.PlaySfx</title>
<path fill="none" stroke="black" d="M1457.82,-88.71C1518.86,-72.98 1613.18,-48.69 1672.82,-33.33"/>
<polygon fill="black" stroke="black" points="1674,-36.64 1682.81,-30.75 1672.25,-29.86 1674,-36.64"/>
<text text-anchor="middle" x="1588.44" y="-57.8" font-family="Times,serif" font-size="14.00">1</text>
</g>
<!-- dra.func_8011AAFC -->
<g id="node11" class="node">
<title>dra.func_8011AAFC</title>
<g id="a_node11"><a xlink:href="dra.func_8011AAFC.svg" xlink:title="dra.func_8011AAFC">
<ellipse fill="green" stroke="black" cx="1913.44" cy="-18" rx="102.88" ry="18"/>
<text text-anchor="middle" x="1913.44" y="-14.3" font-family="Times,serif" font-size="14.00">dra.func_8011AAFC</text>
</a>
</g>
</g>
<!-- w_014.EntityWeaponAttack&#45;&gt;dra.func_8011AAFC -->
<g id="edge10" class="edge">
<title>w_014.EntityWeaponAttack&#45;&gt;dra.func_8011AAFC</title>
<path fill="none" stroke="black" d="M1480.33,-90.48C1576.54,-74.61 1735.22,-48.42 1831.47,-32.53"/>
<polygon fill="black" stroke="black" points="1832.15,-35.96 1841.45,-30.88 1831.01,-29.06 1832.15,-35.96"/>
<text text-anchor="middle" x="1692.44" y="-57.8" font-family="Times,serif" font-size="14.00">1</text>
</g>
<!-- w_014.DecelerateX -->
<g id="node12" class="node">
<title>w_014.DecelerateX</title>
<g id="a_node12"><a xlink:href="w_014.DecelerateX.svg" xlink:title="w_014.DecelerateX">
<ellipse fill="red" stroke="black" cx="2134.44" cy="-18" rx="100.18" ry="18"/>
<text text-anchor="middle" x="2134.44" y="-14.3" font-family="Times,serif" font-size="14.00">w_014.DecelerateX</text>
</a>
</g>
</g>
<!-- w_014.EntityWeaponAttack&#45;&gt;w_014.DecelerateX -->
<g id="edge11" class="edge">
<title>w_014.EntityWeaponAttack&#45;&gt;w_014.DecelerateX</title>
<path fill="none" stroke="black" d="M1506.8,-93.8C1631.94,-81.66 1843.89,-59.99 2025.44,-36 2034.37,-34.82 2043.69,-33.5 2052.96,-32.13"/>
<polygon fill="black" stroke="black" points="2053.61,-35.58 2062.98,-30.63 2052.57,-28.65 2053.61,-35.58"/>
<text text-anchor="middle" x="1876.44" y="-57.8" font-family="Times,serif" font-size="14.00">1</text>
</g>
<!-- w_014.DestroyEntity -->
<g id="node13" class="node">
<title>w_014.DestroyEntity</title>
<g id="a_node13"><a xlink:href="w_014.DestroyEntity.svg" xlink:title="w_014.DestroyEntity">
<ellipse fill="red" stroke="black" cx="2361.44" cy="-18" rx="108.58" ry="18"/>
<text text-anchor="middle" x="2361.44" y="-14.3" font-family="Times,serif" font-size="14.00">w_014.DestroyEntity</text>
</a>
</g>
</g>
<!-- w_014.EntityWeaponAttack&#45;&gt;w_014.DestroyEntity -->
<g id="edge12" class="edge">
<title>w_014.EntityWeaponAttack&#45;&gt;w_014.DestroyEntity</title>
<path fill="none" stroke="black" d="M1522.23,-96.93C1687.14,-86.85 1987.84,-66.17 2243.44,-36 2253.49,-34.81 2264,-33.46 2274.43,-32.05"/>
<polygon fill="black" stroke="black" points="2274.96,-35.51 2284.39,-30.68 2274.01,-28.57 2274.96,-35.51"/>
<text text-anchor="middle" x="2064.44" y="-57.8" font-family="Times,serif" font-size="14.00">1</text>
</g>
<!-- ratan2 -->
<g id="node14" class="node">
<title>ratan2</title>
<g id="a_node14"><a xlink:href="ratan2.svg" xlink:title="ratan2">
<ellipse fill="lightblue" stroke="black" cx="2529.44" cy="-18" rx="41.69" ry="18"/>
<text text-anchor="middle" x="2529.44" y="-14.3" font-family="Times,serif" font-size="14.00">ratan2</text>
</a>
</g>
</g>
<!-- w_014.EntityWeaponAttack&#45;&gt;ratan2 -->
<g id="edge13" class="edge">
<title>w_014.EntityWeaponAttack&#45;&gt;ratan2</title>
<path fill="none" stroke="black" d="M1527.6,-98.43C1663.5,-92.3 1883.62,-81.63 2073.44,-69 2254.08,-56.98 2302.17,-72.75 2479.44,-36 2482.82,-35.3 2486.29,-34.44 2489.74,-33.48"/>
<polygon fill="black" stroke="black" points="2490.81,-36.81 2499.37,-30.56 2488.78,-30.11 2490.81,-36.81"/>
<text text-anchor="middle" x="2376.44" y="-57.8" font-family="Times,serif" font-size="14.00">1</text>
</g>
</g>
</svg>
