<?xml version="1.0" encoding="UTF-8" standalone="no"?>
<!DOCTYPE svg PUBLIC "-//W3C//DTD SVG 1.1//EN"
 "http://www.w3.org/Graphics/SVG/1.1/DTD/svg11.dtd">
<!-- Generated by graphviz version 2.43.0 (0)
 -->
<!-- Title: w_011.func_ptr_80170024 Pages: 1 -->
<svg width="1555pt" height="224pt"
 viewBox="0.00 0.00 1554.83 224.00" xmlns="http://www.w3.org/2000/svg" xmlns:xlink="http://www.w3.org/1999/xlink">
<g id="graph0" class="graph" transform="scale(1 1) rotate(0) translate(4 220)">
<title>w_011.func_ptr_80170024</title>
<polygon fill="white" stroke="transparent" points="-4,4 -4,-220 1550.83,-220 1550.83,4 -4,4"/>
<!-- w_011.func_ptr_80170024 -->
<g id="node1" class="node">
<title>w_011.func_ptr_80170024</title>
<ellipse fill="red" stroke="black" cx="811.29" cy="-198" rx="133.48" ry="18"/>
<text text-anchor="middle" x="811.29" y="-194.3" font-family="Times,serif" font-size="14.00">w_011.func_ptr_80170024</text>
</g>
<!-- w_011.SetWeaponProperties -->
<g id="node2" class="node">
<title>w_011.SetWeaponProperties</title>
<g id="a_node2"><a xlink:href="w_011.SetWeaponProperties.svg" xlink:title="w_011.SetWeaponProperties">
<ellipse fill="red" stroke="black" cx="144.29" cy="-18" rx="144.07" ry="18"/>
<text text-anchor="middle" x="144.29" y="-14.3" font-family="Times,serif" font-size="14.00">w_011.SetWeaponProperties</text>
</a>
</g>
</g>
<!-- w_011.func_ptr_80170024&#45;&gt;w_011.SetWeaponProperties -->
<g id="edge1" class="edge">
<title>w_011.func_ptr_80170024&#45;&gt;w_011.SetWeaponProperties</title>
<path fill="none" stroke="black" d="M753.84,-181.67C631.11,-148.92 343.83,-72.25 212.27,-37.14"/>
<polygon fill="black" stroke="black" points="212.87,-33.68 202.31,-34.48 211.07,-40.44 212.87,-33.68"/>
<text text-anchor="middle" x="197.31" y="-38.28" font-family="Times,serif" font-size="14.00">1</text>
</g>
<!-- w_011.SetSpeedX -->
<g id="node3" class="node">
<title>w_011.SetSpeedX</title>
<g id="a_node3"><a xlink:href="w_011.SetSpeedX.svg" xlink:title="w_011.SetSpeedX">
<ellipse fill="red" stroke="black" cx="401.29" cy="-18" rx="94.48" ry="18"/>
<text text-anchor="middle" x="401.29" y="-14.3" font-family="Times,serif" font-size="14.00">w_011.SetSpeedX</text>
</a>
</g>
</g>
<!-- w_011.func_ptr_80170024&#45;&gt;w_011.SetSpeedX -->
<g id="edge2" class="edge">
<title>w_011.func_ptr_80170024&#45;&gt;w_011.SetSpeedX</title>
<path fill="none" stroke="black" d="M773.45,-180.57C697.92,-147.78 528.71,-74.32 447.07,-38.88"/>
<polygon fill="black" stroke="black" points="448.13,-35.52 437.56,-34.75 445.34,-41.94 448.13,-35.52"/>
<text text-anchor="middle" x="432.56" y="-38.55" font-family="Times,serif" font-size="14.00">5</text>
</g>
<!-- g_api_CheckCollision -->
<g id="node4" class="node">
<title>g_api_CheckCollision</title>
<g id="a_node4"><a xlink:href="g_api_CheckCollision.svg" xlink:title="g_api_CheckCollision">
<ellipse fill="lightblue" stroke="black" cx="621.29" cy="-18" rx="107.78" ry="18"/>
<text text-anchor="middle" x="621.29" y="-14.3" font-family="Times,serif" font-size="14.00">g_api_CheckCollision</text>
</a>
</g>
</g>
<!-- w_011.func_ptr_80170024&#45;&gt;g_api_CheckCollision -->
<g id="edge3" class="edge">
<title>w_011.func_ptr_80170024&#45;&gt;g_api_CheckCollision</title>
<path fill="none" stroke="black" d="M793.07,-179.93C759.08,-148.09 685.91,-79.54 646.94,-43.04"/>
<polygon fill="black" stroke="black" points="648.86,-40.04 639.17,-35.76 644.08,-45.15 648.86,-40.04"/>
<text text-anchor="middle" x="634.17" y="-39.56" font-family="Times,serif" font-size="14.00">5</text>
</g>
<!-- dra.PlaySfx -->
<g id="node5" class="node">
<title>dra.PlaySfx</title>
<g id="a_node5"><a xlink:href="dra.PlaySfx.svg" xlink:title="dra.PlaySfx">
<ellipse fill="green" stroke="black" cx="811.29" cy="-18" rx="64.19" ry="18"/>
<text text-anchor="middle" x="811.29" y="-14.3" font-family="Times,serif" font-size="14.00">dra.PlaySfx</text>
</a>
</g>
</g>
<!-- w_011.func_ptr_80170024&#45;&gt;dra.PlaySfx -->
<g id="edge4" class="edge">
<title>w_011.func_ptr_80170024&#45;&gt;dra.PlaySfx</title>
<path fill="none" stroke="black" d="M811.29,-179.93C811.29,-148.97 811.29,-83.3 811.29,-46.13"/>
<polygon fill="black" stroke="black" points="814.79,-46.02 811.29,-36.02 807.79,-46.02 814.79,-46.02"/>
<text text-anchor="middle" x="806.29" y="-39.82" font-family="Times,serif" font-size="14.00">3</text>
</g>
<!-- dra.CheckCollision -->
<g id="node6" class="node">
<title>dra.CheckCollision</title>
<g id="a_node6"><a xlink:href="dra.CheckCollision.svg" xlink:title="dra.CheckCollision">
<ellipse fill="green" stroke="black" cx="991.29" cy="-18" rx="97.48" ry="18"/>
<text text-anchor="middle" x="991.29" y="-14.3" font-family="Times,serif" font-size="14.00">dra.CheckCollision</text>
</a>
</g>
</g>
<!-- w_011.func_ptr_80170024&#45;&gt;dra.CheckCollision -->
<g id="edge5" class="edge">
<title>w_011.func_ptr_80170024&#45;&gt;dra.CheckCollision</title>
<path fill="none" stroke="black" d="M828.55,-179.93C860.75,-148.09 930.06,-79.54 966.98,-43.04"/>
<polygon fill="black" stroke="black" points="969.69,-45.28 974.34,-35.76 964.77,-40.3 969.69,-45.28"/>
<text text-anchor="middle" x="969.34" y="-39.56" font-family="Times,serif" font-size="14.00">3</text>
</g>
<!-- dra.func_8011AAFC -->
<g id="node7" class="node">
<title>dra.func_8011AAFC</title>
<g id="a_node7"><a xlink:href="dra.func_8011AAFC.svg" xlink:title="dra.func_8011AAFC">
<ellipse fill="green" stroke="black" cx="1209.29" cy="-18" rx="102.88" ry="18"/>
<text text-anchor="middle" x="1209.29" y="-14.3" font-family="Times,serif" font-size="14.00">dra.func_8011AAFC</text>
</a>
</g>
</g>
<!-- w_011.func_ptr_80170024&#45;&gt;dra.func_8011AAFC -->
<g id="edge6" class="edge">
<title>w_011.func_ptr_80170024&#45;&gt;dra.func_8011AAFC</title>
<path fill="none" stroke="black" d="M848.02,-180.57C921.15,-147.86 1084.77,-74.69 1164.24,-39.14"/>
<polygon fill="black" stroke="black" points="1165.81,-42.28 1173.51,-35 1162.95,-35.89 1165.81,-42.28"/>
<text text-anchor="middle" x="1168.51" y="-38.8" font-family="Times,serif" font-size="14.00">3</text>
</g>
<!-- w_011.DestroyEntity -->
<g id="node8" class="node">
<title>w_011.DestroyEntity</title>
<g id="a_node8"><a xlink:href="w_011.DestroyEntity.svg" xlink:title="w_011.DestroyEntity">
<ellipse fill="red" stroke="black" cx="1438.29" cy="-18" rx="108.58" ry="18"/>
<text text-anchor="middle" x="1438.29" y="-14.3" font-family="Times,serif" font-size="14.00">w_011.DestroyEntity</text>
</a>
</g>
</g>
<!-- w_011.func_ptr_80170024&#45;&gt;w_011.DestroyEntity -->
<g id="edge7" class="edge">
<title>w_011.func_ptr_80170024&#45;&gt;w_011.DestroyEntity</title>
<path fill="none" stroke="black" d="M865.83,-181.52C982.04,-148.52 1253.4,-71.49 1376.09,-36.66"/>
<polygon fill="black" stroke="black" points="1377.42,-39.92 1386.08,-33.82 1375.51,-33.18 1377.42,-39.92"/>
<text text-anchor="middle" x="1381.08" y="-37.62" font-family="Times,serif" font-size="14.00">1</text>
</g>
</g>
</svg>
