<?xml version="1.0" encoding="UTF-8" standalone="no"?>
<!DOCTYPE svg PUBLIC "-//W3C//DTD SVG 1.1//EN"
 "http://www.w3.org/Graphics/SVG/1.1/DTD/svg11.dtd">
<!-- Generated by graphviz version 2.43.0 (0)
 -->
<!-- Title: w_016.func_ptr_80170008 Pages: 1 -->
<svg width="1402pt" height="131pt"
 viewBox="0.00 0.00 1401.68 131.00" xmlns="http://www.w3.org/2000/svg" xmlns:xlink="http://www.w3.org/1999/xlink">
<g id="graph0" class="graph" transform="scale(1 1) rotate(0) translate(4 127)">
<title>w_016.func_ptr_80170008</title>
<polygon fill="white" stroke="transparent" points="-4,4 -4,-127 1397.68,-127 1397.68,4 -4,4"/>
<!-- w_016.func_ptr_80170008 -->
<g id="node1" class="node">
<title>w_016.func_ptr_80170008</title>
<ellipse fill="red" stroke="black" cx="941.99" cy="-105" rx="133.48" ry="18"/>
<text text-anchor="middle" x="941.99" y="-101.3" font-family="Times,serif" font-size="14.00">w_016.func_ptr_80170008</text>
</g>
<!-- w_016.SetSpriteBank1 -->
<g id="node2" class="node">
<title>w_016.SetSpriteBank1</title>
<g id="a_node2"><a xlink:href="w_016.SetSpriteBank1.svg" xlink:title="w_016.SetSpriteBank1">
<ellipse fill="red" stroke="black" cx="116.99" cy="-18" rx="116.98" ry="18"/>
<text text-anchor="middle" x="116.99" y="-14.3" font-family="Times,serif" font-size="14.00">w_016.SetSpriteBank1</text>
</a>
</g>
</g>
<!-- w_016.func_ptr_80170008&#45;&gt;w_016.SetSpriteBank1 -->
<g id="edge1" class="edge">
<title>w_016.func_ptr_80170008&#45;&gt;w_016.SetSpriteBank1</title>
<path fill="none" stroke="black" d="M832.89,-94.65C695.24,-82.56 451.31,-60.18 242.99,-36 232.41,-34.77 221.35,-33.4 210.36,-31.99"/>
<polygon fill="black" stroke="black" points="210.67,-28.5 200.3,-30.68 209.76,-35.44 210.67,-28.5"/>
<text text-anchor="middle" x="554.99" y="-57.8" font-family="Times,serif" font-size="14.00">1</text>
</g>
<!-- w_016.SetWeaponProperties -->
<g id="node3" class="node">
<title>w_016.SetWeaponProperties</title>
<g id="a_node3"><a xlink:href="w_016.SetWeaponProperties.svg" xlink:title="w_016.SetWeaponProperties">
<ellipse fill="red" stroke="black" cx="395.99" cy="-18" rx="144.07" ry="18"/>
<text text-anchor="middle" x="395.99" y="-14.3" font-family="Times,serif" font-size="14.00">w_016.SetWeaponProperties</text>
</a>
</g>
</g>
<!-- w_016.func_ptr_80170008&#45;&gt;w_016.SetWeaponProperties -->
<g id="edge2" class="edge">
<title>w_016.func_ptr_80170008&#45;&gt;w_016.SetWeaponProperties</title>
<path fill="none" stroke="black" d="M858.17,-90.95C759.66,-75.62 596.51,-50.22 492.72,-34.06"/>
<polygon fill="black" stroke="black" points="492.98,-30.56 482.56,-32.48 491.9,-37.47 492.98,-30.56"/>
<text text-anchor="middle" x="706.99" y="-57.8" font-family="Times,serif" font-size="14.00">1</text>
</g>
<!-- w_016.DestroyEntityWeapon -->
<g id="node4" class="node">
<title>w_016.DestroyEntityWeapon</title>
<g id="a_node4"><a xlink:href="w_016.DestroyEntityWeapon.svg" xlink:title="w_016.DestroyEntityWeapon">
<ellipse fill="red" stroke="black" cx="703.99" cy="-18" rx="145.67" ry="18"/>
<text text-anchor="middle" x="703.99" y="-14.3" font-family="Times,serif" font-size="14.00">w_016.DestroyEntityWeapon</text>
</a>
</g>
</g>
<!-- w_016.func_ptr_80170008&#45;&gt;w_016.DestroyEntityWeapon -->
<g id="edge3" class="edge">
<title>w_016.func_ptr_80170008&#45;&gt;w_016.DestroyEntityWeapon</title>
<path fill="none" stroke="black" d="M897.22,-88.01C858,-74 800.85,-53.59 758.88,-38.6"/>
<polygon fill="black" stroke="black" points="759.96,-35.27 749.36,-35.21 757.6,-41.86 759.96,-35.27"/>
<text text-anchor="middle" x="842.99" y="-57.8" font-family="Times,serif" font-size="14.00">1</text>
</g>
<!-- g_api_PlaySfx -->
<g id="node5" class="node">
<title>g_api_PlaySfx</title>
<g id="a_node5"><a xlink:href="g_api_PlaySfx.svg" xlink:title="g_api_PlaySfx">
<ellipse fill="lightblue" stroke="black" cx="941.99" cy="-18" rx="74.99" ry="18"/>
<text text-anchor="middle" x="941.99" y="-14.3" font-family="Times,serif" font-size="14.00">g_api_PlaySfx</text>
</a>
</g>
</g>
<!-- w_016.func_ptr_80170008&#45;&gt;g_api_PlaySfx -->
<g id="edge4" class="edge">
<title>w_016.func_ptr_80170008&#45;&gt;g_api_PlaySfx</title>
<path fill="none" stroke="black" d="M941.99,-86.8C941.99,-75.16 941.99,-59.55 941.99,-46.24"/>
<polygon fill="black" stroke="black" points="945.49,-46.18 941.99,-36.18 938.49,-46.18 945.49,-46.18"/>
<text text-anchor="middle" x="946.99" y="-57.8" font-family="Times,serif" font-size="14.00">2</text>
</g>
<!-- rcos -->
<g id="node6" class="node">
<title>rcos</title>
<g id="a_node6"><a xlink:href="rcos.svg" xlink:title="rcos">
<ellipse fill="lightblue" stroke="black" cx="1064.99" cy="-18" rx="30.59" ry="18"/>
<text text-anchor="middle" x="1064.99" y="-14.3" font-family="Times,serif" font-size="14.00">rcos</text>
</a>
</g>
</g>
<!-- w_016.func_ptr_80170008&#45;&gt;rcos -->
<g id="edge5" class="edge">
<title>w_016.func_ptr_80170008&#45;&gt;rcos</title>
<path fill="none" stroke="black" d="M966.29,-87.21C986.84,-73 1016.27,-52.67 1037.64,-37.9"/>
<polygon fill="black" stroke="black" points="1039.74,-40.7 1045.98,-32.14 1035.76,-34.95 1039.74,-40.7"/>
<text text-anchor="middle" x="1015.99" y="-57.8" font-family="Times,serif" font-size="14.00">1</text>
</g>
<!-- rsin -->
<g id="node7" class="node">
<title>rsin</title>
<g id="a_node7"><a xlink:href="rsin.svg" xlink:title="rsin">
<ellipse fill="lightblue" stroke="black" cx="1141.99" cy="-18" rx="28.7" ry="18"/>
<text text-anchor="middle" x="1141.99" y="-14.3" font-family="Times,serif" font-size="14.00">rsin</text>
</a>
</g>
</g>
<!-- w_016.func_ptr_80170008&#45;&gt;rsin -->
<g id="edge6" class="edge">
<title>w_016.func_ptr_80170008&#45;&gt;rsin</title>
<path fill="none" stroke="black" d="M982.02,-87.76C1015.12,-74.23 1063.28,-54.27 1104.99,-36 1106.79,-35.21 1108.63,-34.4 1110.48,-33.57"/>
<polygon fill="black" stroke="black" points="1112.08,-36.69 1119.74,-29.38 1109.19,-30.31 1112.08,-36.69"/>
<text text-anchor="middle" x="1065.99" y="-57.8" font-family="Times,serif" font-size="14.00">1</text>
</g>
<!-- dra.func_8011AAFC -->
<g id="node8" class="node">
<title>dra.func_8011AAFC</title>
<g id="a_node8"><a xlink:href="dra.func_8011AAFC.svg" xlink:title="dra.func_8011AAFC">
<ellipse fill="green" stroke="black" cx="1290.99" cy="-18" rx="102.88" ry="18"/>
<text text-anchor="middle" x="1290.99" y="-14.3" font-family="Times,serif" font-size="14.00">dra.func_8011AAFC</text>
</a>
</g>
</g>
<!-- w_016.func_ptr_80170008&#45;&gt;dra.func_8011AAFC -->
<g id="edge7" class="edge">
<title>w_016.func_ptr_80170008&#45;&gt;dra.func_8011AAFC</title>
<path fill="none" stroke="black" d="M1003.58,-89C1065.25,-73.98 1159.89,-50.93 1223.55,-35.43"/>
<polygon fill="black" stroke="black" points="1224.6,-38.77 1233.49,-33 1222.94,-31.97 1224.6,-38.77"/>
<text text-anchor="middle" x="1142.99" y="-57.8" font-family="Times,serif" font-size="14.00">2</text>
</g>
</g>
</svg>
