<?xml version="1.0" encoding="UTF-8" standalone="no"?>
<!DOCTYPE svg PUBLIC "-//W3C//DTD SVG 1.1//EN"
 "http://www.w3.org/Graphics/SVG/1.1/DTD/svg11.dtd">
<!-- Generated by graphviz version 2.43.0 (0)
 -->
<!-- Title: w_015.func_6D000_8017AA18 Pages: 1 -->
<svg width="632pt" height="218pt"
 viewBox="0.00 0.00 631.87 218.00" xmlns="http://www.w3.org/2000/svg" xmlns:xlink="http://www.w3.org/1999/xlink">
<g id="graph0" class="graph" transform="scale(1 1) rotate(0) translate(4 214)">
<title>w_015.func_6D000_8017AA18</title>
<polygon fill="white" stroke="transparent" points="-4,4 -4,-214 627.87,-214 627.87,4 -4,4"/>
<!-- w_015.func_6D000_8017AA18 -->
<g id="node1" class="node">
<title>w_015.func_6D000_8017AA18</title>
<ellipse fill="red" stroke="black" cx="311.44" cy="-105" rx="150.57" ry="18"/>
<text text-anchor="middle" x="311.44" y="-101.3" font-family="Times,serif" font-size="14.00">w_015.func_6D000_8017AA18</text>
</g>
<!-- w_015.func_6D000_8017A7E4 -->
<g id="node2" class="node">
<title>w_015.func_6D000_8017A7E4</title>
<g id="a_node2"><a xlink:href="w_015.func_6D000_8017A7E4.svg" xlink:title="w_015.func_6D000_8017A7E4">
<ellipse fill="red" stroke="black" cx="311.44" cy="-18" rx="151.37" ry="18"/>
<text text-anchor="middle" x="311.44" y="-14.3" font-family="Times,serif" font-size="14.00">w_015.func_6D000_8017A7E4</text>
</a>
</g>
</g>
<!-- w_015.func_6D000_8017AA18&#45;&gt;w_015.func_6D000_8017A7E4 -->
<g id="edge1" class="edge">
<title>w_015.func_6D000_8017AA18&#45;&gt;w_015.func_6D000_8017A7E4</title>
<path fill="none" stroke="black" d="M311.44,-86.8C311.44,-75.16 311.44,-59.55 311.44,-46.24"/>
<polygon fill="black" stroke="black" points="314.94,-46.18 311.44,-36.18 307.94,-46.18 314.94,-46.18"/>
<text text-anchor="middle" x="316.44" y="-57.8" font-family="Times,serif" font-size="14.00">2</text>
</g>
<!-- w_015.func_6D000_8017B17C -->
<g id="node3" class="node">
<title>w_015.func_6D000_8017B17C</title>
<g id="a_node3"><a xlink:href="w_015.func_6D000_8017B17C.svg" xlink:title="w_015.func_6D000_8017B17C">
<ellipse fill="red" stroke="black" cx="151.44" cy="-192" rx="151.37" ry="18"/>
<text text-anchor="middle" x="151.44" y="-188.3" font-family="Times,serif" font-size="14.00">w_015.func_6D000_8017B17C</text>
</a>
</g>
</g>
<!-- w_015.func_6D000_8017B17C&#45;&gt;w_015.func_6D000_8017AA18 -->
<g id="edge2" class="edge">
<title>w_015.func_6D000_8017B17C&#45;&gt;w_015.func_6D000_8017AA18</title>
<path fill="none" stroke="black" d="M183.05,-174.21C208.33,-160.78 243.94,-141.86 271.25,-127.35"/>
<polygon fill="black" stroke="black" points="272.97,-130.4 280.16,-122.61 269.69,-124.21 272.97,-130.4"/>
<text text-anchor="middle" x="246.44" y="-144.8" font-family="Times,serif" font-size="14.00">1</text>
</g>
<!-- w_015.func_6D000_8017AB84 -->
<g id="node4" class="node">
<title>w_015.func_6D000_8017AB84</title>
<g id="a_node4"><a xlink:href="w_015.func_6D000_8017AB84.svg" xlink:title="w_015.func_6D000_8017AB84">
<ellipse fill="red" stroke="black" cx="472.44" cy="-192" rx="151.37" ry="18"/>
<text text-anchor="middle" x="472.44" y="-188.3" font-family="Times,serif" font-size="14.00">w_015.func_6D000_8017AB84</text>
</a>
</g>
</g>
<!-- w_015.func_6D000_8017AB84&#45;&gt;w_015.func_6D000_8017AA18 -->
<g id="edge3" class="edge">
<title>w_015.func_6D000_8017AB84&#45;&gt;w_015.func_6D000_8017AA18</title>
<path fill="none" stroke="black" d="M440.63,-174.21C415.19,-160.78 379.35,-141.86 351.88,-127.35"/>
<polygon fill="black" stroke="black" points="353.38,-124.19 342.9,-122.61 350.11,-130.38 353.38,-124.19"/>
<text text-anchor="middle" x="407.44" y="-144.8" font-family="Times,serif" font-size="14.00">1</text>
</g>
</g>
</svg>
