<?xml version="1.0" encoding="UTF-8" standalone="no"?>
<!DOCTYPE svg PUBLIC "-//W3C//DTD SVG 1.1//EN"
 "http://www.w3.org/Graphics/SVG/1.1/DTD/svg11.dtd">
<!-- Generated by graphviz version 2.43.0 (0)
 -->
<!-- Title: w_018.func_82000_8017A844 Pages: 1 -->
<svg width="626pt" height="131pt"
 viewBox="0.00 0.00 626.27 131.00" xmlns="http://www.w3.org/2000/svg" xmlns:xlink="http://www.w3.org/1999/xlink">
<g id="graph0" class="graph" transform="scale(1 1) rotate(0) translate(4 127)">
<title>w_018.func_82000_8017A844</title>
<polygon fill="white" stroke="transparent" points="-4,4 -4,-127 622.27,-127 622.27,4 -4,4"/>
<!-- w_018.func_82000_8017A844 -->
<g id="node1" class="node">
<title>w_018.func_82000_8017A844</title>
<ellipse fill="red" stroke="black" cx="308.49" cy="-18" rx="148.67" ry="18"/>
<text text-anchor="middle" x="308.49" y="-14.3" font-family="Times,serif" font-size="14.00">w_018.func_82000_8017A844</text>
</g>
<!-- w_018.func_82000_8017AF10 -->
<g id="node2" class="node">
<title>w_018.func_82000_8017AF10</title>
<g id="a_node2"><a xlink:href="w_018.func_82000_8017AF10.svg" xlink:title="w_018.func_82000_8017AF10">
<ellipse fill="red" stroke="black" cx="149.49" cy="-105" rx="149.47" ry="18"/>
<text text-anchor="middle" x="149.49" y="-101.3" font-family="Times,serif" font-size="14.00">w_018.func_82000_8017AF10</text>
</a>
</g>
</g>
<!-- w_018.func_82000_8017AF10&#45;&gt;w_018.func_82000_8017A844 -->
<g id="edge1" class="edge">
<title>w_018.func_82000_8017AF10&#45;&gt;w_018.func_82000_8017A844</title>
<path fill="none" stroke="black" d="M180.9,-87.21C206.03,-73.78 241.41,-54.86 268.55,-40.35"/>
<polygon fill="black" stroke="black" points="270.24,-43.41 277.41,-35.61 266.94,-37.24 270.24,-43.41"/>
<text text-anchor="middle" x="244.49" y="-57.8" font-family="Times,serif" font-size="14.00">1</text>
</g>
<!-- w_018.func_82000_8017ABE4 -->
<g id="node3" class="node">
<title>w_018.func_82000_8017ABE4</title>
<g id="a_node3"><a xlink:href="w_018.func_82000_8017ABE4.svg" xlink:title="w_018.func_82000_8017ABE4">
<ellipse fill="red" stroke="black" cx="467.49" cy="-105" rx="150.57" ry="18"/>
<text text-anchor="middle" x="467.49" y="-101.3" font-family="Times,serif" font-size="14.00">w_018.func_82000_8017ABE4</text>
</a>
</g>
</g>
<!-- w_018.func_82000_8017ABE4&#45;&gt;w_018.func_82000_8017A844 -->
<g id="edge2" class="edge">
<title>w_018.func_82000_8017ABE4&#45;&gt;w_018.func_82000_8017A844</title>
<path fill="none" stroke="black" d="M436.07,-87.21C410.95,-73.78 375.56,-54.86 348.42,-40.35"/>
<polygon fill="black" stroke="black" points="350.03,-37.24 339.56,-35.61 346.73,-43.41 350.03,-37.24"/>
<text text-anchor="middle" x="403.49" y="-57.8" font-family="Times,serif" font-size="14.00">1</text>
</g>
</g>
</svg>
