<?xml version="1.0" encoding="UTF-8" standalone="no"?>
<!DOCTYPE svg PUBLIC "-//W3C//DTD SVG 1.1//EN"
 "http://www.w3.org/Graphics/SVG/1.1/DTD/svg11.dtd">
<!-- Generated by graphviz version 2.43.0 (0)
 -->
<!-- Title: w_016.func_ptr_80170014 Pages: 1 -->
<svg width="2643pt" height="131pt"
 viewBox="0.00 0.00 2642.53 131.00" xmlns="http://www.w3.org/2000/svg" xmlns:xlink="http://www.w3.org/1999/xlink">
<g id="graph0" class="graph" transform="scale(1 1) rotate(0) translate(4 127)">
<title>w_016.func_ptr_80170014</title>
<polygon fill="white" stroke="transparent" points="-4,4 -4,-127 2638.53,-127 2638.53,4 -4,4"/>
<!-- w_016.func_ptr_80170014 -->
<g id="node1" class="node">
<title>w_016.func_ptr_80170014</title>
<ellipse fill="red" stroke="black" cx="1311.99" cy="-105" rx="133.48" ry="18"/>
<text text-anchor="middle" x="1311.99" y="-101.3" font-family="Times,serif" font-size="14.00">w_016.func_ptr_80170014</text>
</g>
<!-- w_016.SetSpriteBank1 -->
<g id="node2" class="node">
<title>w_016.SetSpriteBank1</title>
<g id="a_node2"><a xlink:href="w_016.SetSpriteBank1.svg" xlink:title="w_016.SetSpriteBank1">
<ellipse fill="red" stroke="black" cx="116.99" cy="-18" rx="116.98" ry="18"/>
<text text-anchor="middle" x="116.99" y="-14.3" font-family="Times,serif" font-size="14.00">w_016.SetSpriteBank1</text>
</a>
</g>
</g>
<!-- w_016.func_ptr_80170014&#45;&gt;w_016.SetSpriteBank1 -->
<g id="edge1" class="edge">
<title>w_016.func_ptr_80170014&#45;&gt;w_016.SetSpriteBank1</title>
<path fill="none" stroke="black" d="M1178.73,-104.47C1001.22,-103.81 677.63,-98.16 402.99,-69 331,-61.36 249.76,-46.55 192.32,-35.03"/>
<polygon fill="black" stroke="black" points="192.73,-31.54 182.24,-32.99 191.34,-38.4 192.73,-31.54"/>
<text text-anchor="middle" x="407.99" y="-57.8" font-family="Times,serif" font-size="14.00">1</text>
</g>
<!-- rand -->
<g id="node3" class="node">
<title>rand</title>
<g id="a_node3"><a xlink:href="rand.svg" xlink:title="rand">
<ellipse fill="lightblue" stroke="black" cx="283.99" cy="-18" rx="32.49" ry="18"/>
<text text-anchor="middle" x="283.99" y="-14.3" font-family="Times,serif" font-size="14.00">rand</text>
</a>
</g>
</g>
<!-- w_016.func_ptr_80170014&#45;&gt;rand -->
<g id="edge2" class="edge">
<title>w_016.func_ptr_80170014&#45;&gt;rand</title>
<path fill="none" stroke="black" d="M1188.29,-98.29C1062.71,-92.19 862.71,-81.69 689.99,-69 527.98,-57.1 483.87,-74.22 325.99,-36 323.19,-35.32 320.34,-34.49 317.5,-33.57"/>
<polygon fill="black" stroke="black" points="318.61,-30.25 308.02,-30.13 316.23,-36.83 318.61,-30.25"/>
<text text-anchor="middle" x="694.99" y="-57.8" font-family="Times,serif" font-size="14.00">2</text>
</g>
<!-- w_016.SetSpeedX -->
<g id="node4" class="node">
<title>w_016.SetSpeedX</title>
<g id="a_node4"><a xlink:href="w_016.SetSpeedX.svg" xlink:title="w_016.SetSpeedX">
<ellipse fill="red" stroke="black" cx="428.99" cy="-18" rx="94.48" ry="18"/>
<text text-anchor="middle" x="428.99" y="-14.3" font-family="Times,serif" font-size="14.00">w_016.SetSpeedX</text>
</a>
</g>
</g>
<!-- w_016.func_ptr_80170014&#45;&gt;w_016.SetSpeedX -->
<g id="edge3" class="edge">
<title>w_016.func_ptr_80170014&#45;&gt;w_016.SetSpeedX</title>
<path fill="none" stroke="black" d="M1194.24,-96.48C1041.44,-86.09 766.7,-65.26 532.99,-36 524.28,-34.91 515.19,-33.63 506.16,-32.27"/>
<polygon fill="black" stroke="black" points="506.43,-28.78 496.02,-30.71 505.37,-35.69 506.43,-28.78"/>
<text text-anchor="middle" x="837.99" y="-57.8" font-family="Times,serif" font-size="14.00">1</text>
</g>
<!-- w_016.SetWeaponProperties -->
<g id="node5" class="node">
<title>w_016.SetWeaponProperties</title>
<g id="a_node5"><a xlink:href="w_016.SetWeaponProperties.svg" xlink:title="w_016.SetWeaponProperties">
<ellipse fill="red" stroke="black" cx="685.99" cy="-18" rx="144.07" ry="18"/>
<text text-anchor="middle" x="685.99" y="-14.3" font-family="Times,serif" font-size="14.00">w_016.SetWeaponProperties</text>
</a>
</g>
</g>
<!-- w_016.func_ptr_80170014&#45;&gt;w_016.SetWeaponProperties -->
<g id="edge4" class="edge">
<title>w_016.func_ptr_80170014&#45;&gt;w_016.SetWeaponProperties</title>
<path fill="none" stroke="black" d="M1221.63,-91.73C1107.11,-76.18 910.13,-49.43 789.62,-33.07"/>
<polygon fill="black" stroke="black" points="790.02,-29.59 779.64,-31.72 789.08,-36.53 790.02,-29.59"/>
<text text-anchor="middle" x="1041.99" y="-57.8" font-family="Times,serif" font-size="14.00">1</text>
</g>
<!-- w_016.DestroyEntityWeapon -->
<g id="node6" class="node">
<title>w_016.DestroyEntityWeapon</title>
<g id="a_node6"><a xlink:href="w_016.DestroyEntityWeapon.svg" xlink:title="w_016.DestroyEntityWeapon">
<ellipse fill="red" stroke="black" cx="993.99" cy="-18" rx="145.67" ry="18"/>
<text text-anchor="middle" x="993.99" y="-14.3" font-family="Times,serif" font-size="14.00">w_016.DestroyEntityWeapon</text>
</a>
</g>
</g>
<!-- w_016.func_ptr_80170014&#45;&gt;w_016.DestroyEntityWeapon -->
<g id="edge5" class="edge">
<title>w_016.func_ptr_80170014&#45;&gt;w_016.DestroyEntityWeapon</title>
<path fill="none" stroke="black" d="M1254.77,-88.71C1200.59,-74.22 1119.22,-52.47 1061.81,-37.13"/>
<polygon fill="black" stroke="black" points="1062.66,-33.73 1052.09,-34.53 1060.85,-40.49 1062.66,-33.73"/>
<text text-anchor="middle" x="1177.99" y="-57.8" font-family="Times,serif" font-size="14.00">1</text>
</g>
<!-- dra.PlaySfx -->
<g id="node7" class="node">
<title>dra.PlaySfx</title>
<g id="a_node7"><a xlink:href="dra.PlaySfx.svg" xlink:title="dra.PlaySfx">
<ellipse fill="green" stroke="black" cx="1221.99" cy="-18" rx="64.19" ry="18"/>
<text text-anchor="middle" x="1221.99" y="-14.3" font-family="Times,serif" font-size="14.00">dra.PlaySfx</text>
</a>
</g>
</g>
<!-- w_016.func_ptr_80170014&#45;&gt;dra.PlaySfx -->
<g id="edge6" class="edge">
<title>w_016.func_ptr_80170014&#45;&gt;dra.PlaySfx</title>
<path fill="none" stroke="black" d="M1293.78,-86.8C1280.31,-74.08 1261.8,-56.6 1246.95,-42.57"/>
<polygon fill="black" stroke="black" points="1249.24,-39.92 1239.56,-35.6 1244.43,-45.01 1249.24,-39.92"/>
<text text-anchor="middle" x="1277.99" y="-57.8" font-family="Times,serif" font-size="14.00">5</text>
</g>
<!-- dra.CheckCollision -->
<g id="node8" class="node">
<title>dra.CheckCollision</title>
<g id="a_node8"><a xlink:href="dra.CheckCollision.svg" xlink:title="dra.CheckCollision">
<ellipse fill="green" stroke="black" cx="1401.99" cy="-18" rx="97.48" ry="18"/>
<text text-anchor="middle" x="1401.99" y="-14.3" font-family="Times,serif" font-size="14.00">dra.CheckCollision</text>
</a>
</g>
</g>
<!-- w_016.func_ptr_80170014&#45;&gt;dra.CheckCollision -->
<g id="edge7" class="edge">
<title>w_016.func_ptr_80170014&#45;&gt;dra.CheckCollision</title>
<path fill="none" stroke="black" d="M1330.2,-86.8C1343.59,-74.16 1361.94,-56.82 1376.74,-42.85"/>
<polygon fill="black" stroke="black" points="1379.24,-45.3 1384.11,-35.89 1374.44,-40.21 1379.24,-45.3"/>
<text text-anchor="middle" x="1367.99" y="-57.8" font-family="Times,serif" font-size="14.00">2</text>
</g>
<!-- dra.func_80102CD8 -->
<g id="node9" class="node">
<title>dra.func_80102CD8</title>
<g id="a_node9"><a xlink:href="dra.func_80102CD8.svg" xlink:title="dra.func_80102CD8">
<ellipse fill="green" stroke="black" cx="1619.99" cy="-18" rx="102.88" ry="18"/>
<text text-anchor="middle" x="1619.99" y="-14.3" font-family="Times,serif" font-size="14.00">dra.func_80102CD8</text>
</a>
</g>
</g>
<!-- w_016.func_ptr_80170014&#45;&gt;dra.func_80102CD8 -->
<g id="edge8" class="edge">
<title>w_016.func_ptr_80170014&#45;&gt;dra.func_80102CD8</title>
<path fill="none" stroke="black" d="M1367.77,-88.61C1421.32,-73.83 1502.08,-51.54 1557.72,-36.19"/>
<polygon fill="black" stroke="black" points="1558.75,-39.53 1567.45,-33.5 1556.88,-32.78 1558.75,-39.53"/>
<text text-anchor="middle" x="1489.99" y="-57.8" font-family="Times,serif" font-size="14.00">4</text>
</g>
<!-- g_api_CheckCollision -->
<g id="node10" class="node">
<title>g_api_CheckCollision</title>
<g id="a_node10"><a xlink:href="g_api_CheckCollision.svg" xlink:title="g_api_CheckCollision">
<ellipse fill="lightblue" stroke="black" cx="1848.99" cy="-18" rx="107.78" ry="18"/>
<text text-anchor="middle" x="1848.99" y="-14.3" font-family="Times,serif" font-size="14.00">g_api_CheckCollision</text>
</a>
</g>
</g>
<!-- w_016.func_ptr_80170014&#45;&gt;g_api_CheckCollision -->
<g id="edge9" class="edge">
<title>w_016.func_ptr_80170014&#45;&gt;g_api_CheckCollision</title>
<path fill="none" stroke="black" d="M1395.01,-90.86C1495.06,-75.02 1662.29,-48.55 1763.45,-32.54"/>
<polygon fill="black" stroke="black" points="1764.3,-35.95 1773.63,-30.93 1763.21,-29.03 1764.3,-35.95"/>
<text text-anchor="middle" x="1617.99" y="-57.8" font-family="Times,serif" font-size="14.00">4</text>
</g>
<!-- dra.func_8011AAFC -->
<g id="node11" class="node">
<title>dra.func_8011AAFC</title>
<g id="a_node11"><a xlink:href="dra.func_8011AAFC.svg" xlink:title="dra.func_8011AAFC">
<ellipse fill="green" stroke="black" cx="2077.99" cy="-18" rx="102.88" ry="18"/>
<text text-anchor="middle" x="2077.99" y="-14.3" font-family="Times,serif" font-size="14.00">dra.func_8011AAFC</text>
</a>
</g>
</g>
<!-- w_016.func_ptr_80170014&#45;&gt;dra.func_8011AAFC -->
<g id="edge10" class="edge">
<title>w_016.func_ptr_80170014&#45;&gt;dra.func_8011AAFC</title>
<path fill="none" stroke="black" d="M1419.79,-94.36C1549.58,-82.39 1774.06,-60.53 1965.99,-36 1975.26,-34.82 1984.94,-33.49 1994.57,-32.1"/>
<polygon fill="black" stroke="black" points="1995.17,-35.55 2004.56,-30.65 1994.16,-28.63 1995.17,-35.55"/>
<text text-anchor="middle" x="1809.99" y="-57.8" font-family="Times,serif" font-size="14.00">1</text>
</g>
<!-- w_016.DecelerateX -->
<g id="node12" class="node">
<title>w_016.DecelerateX</title>
<g id="a_node12"><a xlink:href="w_016.DecelerateX.svg" xlink:title="w_016.DecelerateX">
<ellipse fill="red" stroke="black" cx="2298.99" cy="-18" rx="100.18" ry="18"/>
<text text-anchor="middle" x="2298.99" y="-14.3" font-family="Times,serif" font-size="14.00">w_016.DecelerateX</text>
</a>
</g>
</g>
<!-- w_016.func_ptr_80170014&#45;&gt;w_016.DecelerateX -->
<g id="edge11" class="edge">
<title>w_016.func_ptr_80170014&#45;&gt;w_016.DecelerateX</title>
<path fill="none" stroke="black" d="M1434.84,-97.94C1604.93,-88.76 1921.57,-68.83 2189.99,-36 2199.06,-34.89 2208.54,-33.6 2217.96,-32.24"/>
<polygon fill="black" stroke="black" points="2218.75,-35.66 2228.14,-30.74 2217.73,-28.74 2218.75,-35.66"/>
<text text-anchor="middle" x="2027.99" y="-57.8" font-family="Times,serif" font-size="14.00">1</text>
</g>
<!-- w_016.DestroyEntity -->
<g id="node13" class="node">
<title>w_016.DestroyEntity</title>
<g id="a_node13"><a xlink:href="w_016.DestroyEntity.svg" xlink:title="w_016.DestroyEntity">
<ellipse fill="red" stroke="black" cx="2525.99" cy="-18" rx="108.58" ry="18"/>
<text text-anchor="middle" x="2525.99" y="-14.3" font-family="Times,serif" font-size="14.00">w_016.DestroyEntity</text>
</a>
</g>
</g>
<!-- w_016.func_ptr_80170014&#45;&gt;w_016.DestroyEntity -->
<g id="edge12" class="edge">
<title>w_016.func_ptr_80170014&#45;&gt;w_016.DestroyEntity</title>
<path fill="none" stroke="black" d="M1441.04,-100.5C1646.36,-93.92 2059.8,-76.54 2407.99,-36 2418.04,-34.83 2428.55,-33.49 2438.99,-32.08"/>
<polygon fill="black" stroke="black" points="2439.52,-35.54 2448.95,-30.71 2438.56,-28.61 2439.52,-35.54"/>
<text text-anchor="middle" x="2234.99" y="-57.8" font-family="Times,serif" font-size="14.00">1</text>
</g>
</g>
</svg>
