<?xml version="1.0" encoding="UTF-8" standalone="no"?>
<!DOCTYPE svg PUBLIC "-//W3C//DTD SVG 1.1//EN"
 "http://www.w3.org/Graphics/SVG/1.1/DTD/svg11.dtd">
<!-- Generated by graphviz version 2.43.0 (0)
 -->
<!-- Title: w_012.func_58000_8017AD70 Pages: 1 -->
<svg width="626pt" height="218pt"
 viewBox="0.00 0.00 626.27 218.00" xmlns="http://www.w3.org/2000/svg" xmlns:xlink="http://www.w3.org/1999/xlink">
<g id="graph0" class="graph" transform="scale(1 1) rotate(0) translate(4 214)">
<title>w_012.func_58000_8017AD70</title>
<polygon fill="white" stroke="transparent" points="-4,4 -4,-214 622.27,-214 622.27,4 -4,4"/>
<!-- w_012.func_58000_8017AD70 -->
<g id="node1" class="node">
<title>w_012.func_58000_8017AD70</title>
<ellipse fill="red" stroke="black" cx="308.49" cy="-105" rx="150.27" ry="18"/>
<text text-anchor="middle" x="308.49" y="-101.3" font-family="Times,serif" font-size="14.00">w_012.func_58000_8017AD70</text>
</g>
<!-- dra.GetEquipProperties -->
<g id="node2" class="node">
<title>dra.GetEquipProperties</title>
<g id="a_node2"><a xlink:href="dra.GetEquipProperties.svg" xlink:title="dra.GetEquipProperties">
<ellipse fill="green" stroke="black" cx="188.49" cy="-18" rx="122.38" ry="18"/>
<text text-anchor="middle" x="188.49" y="-14.3" font-family="Times,serif" font-size="14.00">dra.GetEquipProperties</text>
</a>
</g>
</g>
<!-- w_012.func_58000_8017AD70&#45;&gt;dra.GetEquipProperties -->
<g id="edge1" class="edge">
<title>w_012.func_58000_8017AD70&#45;&gt;dra.GetEquipProperties</title>
<path fill="none" stroke="black" d="M284.78,-87.21C266.37,-74.17 240.66,-55.96 220.44,-41.63"/>
<polygon fill="black" stroke="black" points="222.33,-38.68 212.15,-35.76 218.28,-44.39 222.33,-38.68"/>
<text text-anchor="middle" x="261.49" y="-57.8" font-family="Times,serif" font-size="14.00">1</text>
</g>
<!-- dra.func_80118894 -->
<g id="node3" class="node">
<title>dra.func_80118894</title>
<g id="a_node3"><a xlink:href="dra.func_80118894.svg" xlink:title="dra.func_80118894">
<ellipse fill="green" stroke="black" cx="429.49" cy="-18" rx="100.98" ry="18"/>
<text text-anchor="middle" x="429.49" y="-14.3" font-family="Times,serif" font-size="14.00">dra.func_80118894</text>
</a>
</g>
</g>
<!-- w_012.func_58000_8017AD70&#45;&gt;dra.func_80118894 -->
<g id="edge2" class="edge">
<title>w_012.func_58000_8017AD70&#45;&gt;dra.func_80118894</title>
<path fill="none" stroke="black" d="M332.39,-87.21C350.95,-74.17 376.88,-55.96 397.27,-41.63"/>
<polygon fill="black" stroke="black" points="399.46,-44.37 405.63,-35.76 395.44,-38.64 399.46,-44.37"/>
<text text-anchor="middle" x="381.49" y="-57.8" font-family="Times,serif" font-size="14.00">1</text>
</g>
<!-- w_012.func_58000_8017B484 -->
<g id="node4" class="node">
<title>w_012.func_58000_8017B484</title>
<g id="a_node4"><a xlink:href="w_012.func_58000_8017B484.svg" xlink:title="w_012.func_58000_8017B484">
<ellipse fill="red" stroke="black" cx="149.49" cy="-192" rx="149.47" ry="18"/>
<text text-anchor="middle" x="149.49" y="-188.3" font-family="Times,serif" font-size="14.00">w_012.func_58000_8017B484</text>
</a>
</g>
</g>
<!-- w_012.func_58000_8017B484&#45;&gt;w_012.func_58000_8017AD70 -->
<g id="edge3" class="edge">
<title>w_012.func_58000_8017B484&#45;&gt;w_012.func_58000_8017AD70</title>
<path fill="none" stroke="black" d="M180.9,-174.21C206.03,-160.78 241.41,-141.86 268.55,-127.35"/>
<polygon fill="black" stroke="black" points="270.24,-130.41 277.41,-122.61 266.94,-124.24 270.24,-130.41"/>
<text text-anchor="middle" x="244.49" y="-144.8" font-family="Times,serif" font-size="14.00">1</text>
</g>
<!-- w_012.func_58000_8017AE6C -->
<g id="node5" class="node">
<title>w_012.func_58000_8017AE6C</title>
<g id="a_node5"><a xlink:href="w_012.func_58000_8017AE6C.svg" xlink:title="w_012.func_58000_8017AE6C">
<ellipse fill="red" stroke="black" cx="467.49" cy="-192" rx="150.57" ry="18"/>
<text text-anchor="middle" x="467.49" y="-188.3" font-family="Times,serif" font-size="14.00">w_012.func_58000_8017AE6C</text>
</a>
</g>
</g>
<!-- w_012.func_58000_8017AE6C&#45;&gt;w_012.func_58000_8017AD70 -->
<g id="edge4" class="edge">
<title>w_012.func_58000_8017AE6C&#45;&gt;w_012.func_58000_8017AD70</title>
<path fill="none" stroke="black" d="M436.07,-174.21C410.95,-160.78 375.56,-141.86 348.42,-127.35"/>
<polygon fill="black" stroke="black" points="350.03,-124.24 339.56,-122.61 346.73,-130.41 350.03,-124.24"/>
<text text-anchor="middle" x="403.49" y="-144.8" font-family="Times,serif" font-size="14.00">1</text>
</g>
</g>
</svg>
