<?xml version="1.0" encoding="UTF-8" standalone="no"?>
<!DOCTYPE svg PUBLIC "-//W3C//DTD SVG 1.1//EN"
 "http://www.w3.org/Graphics/SVG/1.1/DTD/svg11.dtd">
<!-- Generated by graphviz version 2.43.0 (0)
 -->
<!-- Title: w_015.func_ptr_8017000C Pages: 1 -->
<svg width="2551pt" height="224pt"
 viewBox="0.00 0.00 2551.43 224.00" xmlns="http://www.w3.org/2000/svg" xmlns:xlink="http://www.w3.org/1999/xlink">
<g id="graph0" class="graph" transform="scale(1 1) rotate(0) translate(4 220)">
<title>w_015.func_ptr_8017000C</title>
<polygon fill="white" stroke="transparent" points="-4,4 -4,-220 2547.43,-220 2547.43,4 -4,4"/>
<!-- w_015.func_ptr_8017000C -->
<g id="node1" class="node">
<title>w_015.func_ptr_8017000C</title>
<ellipse fill="red" stroke="black" cx="1235.44" cy="-198" rx="133.78" ry="18"/>
<text text-anchor="middle" x="1235.44" y="-194.3" font-family="Times,serif" font-size="14.00">w_015.func_ptr_8017000C</text>
</g>
<!-- dra.AllocPrimitives -->
<g id="node2" class="node">
<title>dra.AllocPrimitives</title>
<g id="a_node2"><a xlink:href="dra.AllocPrimitives.svg" xlink:title="dra.AllocPrimitives">
<ellipse fill="green" stroke="black" cx="99.44" cy="-18" rx="99.38" ry="18"/>
<text text-anchor="middle" x="99.44" y="-14.3" font-family="Times,serif" font-size="14.00">dra.AllocPrimitives</text>
</a>
</g>
</g>
<!-- w_015.func_ptr_8017000C&#45;&gt;dra.AllocPrimitives -->
<g id="edge1" class="edge">
<title>w_015.func_ptr_8017000C&#45;&gt;dra.AllocPrimitives</title>
<path fill="none" stroke="black" d="M1151.91,-183.91C941.43,-150.93 391.24,-64.72 181.91,-31.92"/>
<polygon fill="black" stroke="black" points="182.33,-28.44 171.9,-30.35 181.24,-35.36 182.33,-28.44"/>
<text text-anchor="middle" x="166.9" y="-34.15" font-family="Times,serif" font-size="14.00">1</text>
</g>
<!-- dra.CheckCollision -->
<g id="node3" class="node">
<title>dra.CheckCollision</title>
<g id="a_node3"><a xlink:href="dra.CheckCollision.svg" xlink:title="dra.CheckCollision">
<ellipse fill="green" stroke="black" cx="314.44" cy="-18" rx="97.48" ry="18"/>
<text text-anchor="middle" x="314.44" y="-14.3" font-family="Times,serif" font-size="14.00">dra.CheckCollision</text>
</a>
</g>
</g>
<!-- w_015.func_ptr_8017000C&#45;&gt;dra.CheckCollision -->
<g id="edge2" class="edge">
<title>w_015.func_ptr_8017000C&#45;&gt;dra.CheckCollision</title>
<path fill="none" stroke="black" d="M1162.4,-182.88C990.64,-149.69 562.55,-66.95 389.14,-33.44"/>
<polygon fill="black" stroke="black" points="389.57,-29.96 379.09,-31.49 388.24,-36.83 389.57,-29.96"/>
<text text-anchor="middle" x="374.09" y="-35.29" font-family="Times,serif" font-size="14.00">1</text>
</g>
<!-- dra.PlaySfx -->
<g id="node4" class="node">
<title>dra.PlaySfx</title>
<g id="a_node4"><a xlink:href="dra.PlaySfx.svg" xlink:title="dra.PlaySfx">
<ellipse fill="green" stroke="black" cx="494.44" cy="-18" rx="64.19" ry="18"/>
<text text-anchor="middle" x="494.44" y="-14.3" font-family="Times,serif" font-size="14.00">dra.PlaySfx</text>
</a>
</g>
</g>
<!-- w_015.func_ptr_8017000C&#45;&gt;dra.PlaySfx -->
<g id="edge3" class="edge">
<title>w_015.func_ptr_8017000C&#45;&gt;dra.PlaySfx</title>
<path fill="none" stroke="black" d="M1173.22,-182.05C1031.83,-148.09 688.1,-65.52 551.65,-32.74"/>
<polygon fill="black" stroke="black" points="552.34,-29.31 541.8,-30.38 550.7,-36.11 552.34,-29.31"/>
<text text-anchor="middle" x="536.8" y="-34.18" font-family="Times,serif" font-size="14.00">4</text>
</g>
<!-- dra.func_80102CD8 -->
<g id="node5" class="node">
<title>dra.func_80102CD8</title>
<g id="a_node5"><a xlink:href="dra.func_80102CD8.svg" xlink:title="dra.func_80102CD8">
<ellipse fill="green" stroke="black" cx="679.44" cy="-18" rx="102.88" ry="18"/>
<text text-anchor="middle" x="679.44" y="-14.3" font-family="Times,serif" font-size="14.00">dra.func_80102CD8</text>
</a>
</g>
</g>
<!-- w_015.func_ptr_8017000C&#45;&gt;dra.func_80102CD8 -->
<g id="edge4" class="edge">
<title>w_015.func_ptr_8017000C&#45;&gt;dra.func_80102CD8</title>
<path fill="none" stroke="black" d="M1186.1,-181.2C1083.04,-148.21 845.44,-72.14 736.23,-37.18"/>
<polygon fill="black" stroke="black" points="737.29,-33.84 726.7,-34.13 735.15,-40.51 737.29,-33.84"/>
<text text-anchor="middle" x="721.7" y="-37.93" font-family="Times,serif" font-size="14.00">1</text>
</g>
<!-- dra.func_80118894 -->
<g id="node6" class="node">
<title>dra.func_80118894</title>
<g id="a_node6"><a xlink:href="dra.func_80118894.svg" xlink:title="dra.func_80118894">
<ellipse fill="green" stroke="black" cx="900.44" cy="-18" rx="100.98" ry="18"/>
<text text-anchor="middle" x="900.44" y="-14.3" font-family="Times,serif" font-size="14.00">dra.func_80118894</text>
</a>
</g>
</g>
<!-- w_015.func_ptr_8017000C&#45;&gt;dra.func_80118894 -->
<g id="edge5" class="edge">
<title>w_015.func_ptr_8017000C&#45;&gt;dra.func_80118894</title>
<path fill="none" stroke="black" d="M1204.23,-180.41C1143.1,-147.94 1007.73,-76.01 940.27,-40.16"/>
<polygon fill="black" stroke="black" points="941.69,-36.95 931.21,-35.35 938.4,-43.13 941.69,-36.95"/>
<text text-anchor="middle" x="926.21" y="-39.15" font-family="Times,serif" font-size="14.00">1</text>
</g>
<!-- dra.func_8011AAFC -->
<g id="node7" class="node">
<title>dra.func_8011AAFC</title>
<g id="a_node7"><a xlink:href="dra.func_8011AAFC.svg" xlink:title="dra.func_8011AAFC">
<ellipse fill="green" stroke="black" cx="1121.44" cy="-18" rx="102.88" ry="18"/>
<text text-anchor="middle" x="1121.44" y="-14.3" font-family="Times,serif" font-size="14.00">dra.func_8011AAFC</text>
</a>
</g>
</g>
<!-- w_015.func_ptr_8017000C&#45;&gt;dra.func_8011AAFC -->
<g id="edge6" class="edge">
<title>w_015.func_ptr_8017000C&#45;&gt;dra.func_8011AAFC</title>
<path fill="none" stroke="black" d="M1224.51,-179.93C1204.42,-148.57 1161.53,-81.6 1137.91,-44.71"/>
<polygon fill="black" stroke="black" points="1140.68,-42.55 1132.34,-36.02 1134.78,-46.32 1140.68,-42.55"/>
<text text-anchor="middle" x="1127.34" y="-39.82" font-family="Times,serif" font-size="14.00">4</text>
</g>
<!-- g_api_CheckCollision -->
<g id="node8" class="node">
<title>g_api_CheckCollision</title>
<g id="a_node8"><a xlink:href="g_api_CheckCollision.svg" xlink:title="g_api_CheckCollision">
<ellipse fill="lightblue" stroke="black" cx="1350.44" cy="-18" rx="107.78" ry="18"/>
<text text-anchor="middle" x="1350.44" y="-14.3" font-family="Times,serif" font-size="14.00">g_api_CheckCollision</text>
</a>
</g>
</g>
<!-- w_015.func_ptr_8017000C&#45;&gt;g_api_CheckCollision -->
<g id="edge7" class="edge">
<title>w_015.func_ptr_8017000C&#45;&gt;g_api_CheckCollision</title>
<path fill="none" stroke="black" d="M1246.47,-179.93C1266.73,-148.57 1310,-81.6 1333.83,-44.71"/>
<polygon fill="black" stroke="black" points="1336.96,-46.31 1339.45,-36.02 1331.08,-42.52 1336.96,-46.31"/>
<text text-anchor="middle" x="1334.45" y="-39.82" font-family="Times,serif" font-size="14.00">2</text>
</g>
<!-- rand -->
<g id="node9" class="node">
<title>rand</title>
<g id="a_node9"><a xlink:href="rand.svg" xlink:title="rand">
<ellipse fill="lightblue" stroke="black" cx="1508.44" cy="-18" rx="32.49" ry="18"/>
<text text-anchor="middle" x="1508.44" y="-14.3" font-family="Times,serif" font-size="14.00">rand</text>
</a>
</g>
</g>
<!-- w_015.func_ptr_8017000C&#45;&gt;rand -->
<g id="edge8" class="edge">
<title>w_015.func_ptr_8017000C&#45;&gt;rand</title>
<path fill="none" stroke="black" d="M1261.12,-180.25C1312.07,-147.04 1425.6,-73.01 1479.27,-38.02"/>
<polygon fill="black" stroke="black" points="1481.49,-40.75 1487.96,-32.36 1477.67,-34.88 1481.49,-40.75"/>
<text text-anchor="middle" x="1482.96" y="-36.16" font-family="Times,serif" font-size="14.00">3</text>
</g>
<!-- w_015.DestroyEntity -->
<g id="node10" class="node">
<title>w_015.DestroyEntity</title>
<g id="a_node10"><a xlink:href="w_015.DestroyEntity.svg" xlink:title="w_015.DestroyEntity">
<ellipse fill="red" stroke="black" cx="1667.44" cy="-18" rx="108.58" ry="18"/>
<text text-anchor="middle" x="1667.44" y="-14.3" font-family="Times,serif" font-size="14.00">w_015.DestroyEntity</text>
</a>
</g>
</g>
<!-- w_015.func_ptr_8017000C&#45;&gt;w_015.DestroyEntity -->
<g id="edge9" class="edge">
<title>w_015.func_ptr_8017000C&#45;&gt;w_015.DestroyEntity</title>
<path fill="none" stroke="black" d="M1274.92,-180.73C1354.43,-147.97 1533.54,-74.17 1619.56,-38.73"/>
<polygon fill="black" stroke="black" points="1620.92,-41.96 1628.83,-34.91 1618.25,-35.48 1620.92,-41.96"/>
<text text-anchor="middle" x="1623.83" y="-38.71" font-family="Times,serif" font-size="14.00">1</text>
</g>
<!-- w_015.DestroyEntityWeapon -->
<g id="node11" class="node">
<title>w_015.DestroyEntityWeapon</title>
<g id="a_node11"><a xlink:href="w_015.DestroyEntityWeapon.svg" xlink:title="w_015.DestroyEntityWeapon">
<ellipse fill="red" stroke="black" cx="1939.44" cy="-18" rx="145.67" ry="18"/>
<text text-anchor="middle" x="1939.44" y="-14.3" font-family="Times,serif" font-size="14.00">w_015.DestroyEntityWeapon</text>
</a>
</g>
</g>
<!-- w_015.func_ptr_8017000C&#45;&gt;w_015.DestroyEntityWeapon -->
<g id="edge10" class="edge">
<title>w_015.func_ptr_8017000C&#45;&gt;w_015.DestroyEntityWeapon</title>
<path fill="none" stroke="black" d="M1295.46,-181.82C1424.9,-149.1 1729.75,-72.02 1868.47,-36.94"/>
<polygon fill="black" stroke="black" points="1869.73,-40.24 1878.57,-34.39 1868.02,-33.45 1869.73,-40.24"/>
<text text-anchor="middle" x="1873.57" y="-38.19" font-family="Times,serif" font-size="14.00">1</text>
</g>
<!-- w_015.SetSpeedX -->
<g id="node12" class="node">
<title>w_015.SetSpeedX</title>
<g id="a_node12"><a xlink:href="w_015.SetSpeedX.svg" xlink:title="w_015.SetSpeedX">
<ellipse fill="red" stroke="black" cx="2197.44" cy="-18" rx="94.48" ry="18"/>
<text text-anchor="middle" x="2197.44" y="-14.3" font-family="Times,serif" font-size="14.00">w_015.SetSpeedX</text>
</a>
</g>
</g>
<!-- w_015.func_ptr_8017000C&#45;&gt;w_015.SetSpeedX -->
<g id="edge11" class="edge">
<title>w_015.func_ptr_8017000C&#45;&gt;w_015.SetSpeedX</title>
<path fill="none" stroke="black" d="M1310.93,-183.03C1490.79,-149.75 1942.99,-66.08 2122.4,-32.88"/>
<polygon fill="black" stroke="black" points="2123.09,-36.32 2132.28,-31.06 2121.81,-29.43 2123.09,-36.32"/>
<text text-anchor="middle" x="2127.28" y="-34.86" font-family="Times,serif" font-size="14.00">1</text>
</g>
<!-- w_015.SetSpriteBank1 -->
<g id="node13" class="node">
<title>w_015.SetSpriteBank1</title>
<g id="a_node13"><a xlink:href="w_015.SetSpriteBank1.svg" xlink:title="w_015.SetSpriteBank1">
<ellipse fill="red" stroke="black" cx="2426.44" cy="-18" rx="116.98" ry="18"/>
<text text-anchor="middle" x="2426.44" y="-14.3" font-family="Times,serif" font-size="14.00">w_015.SetSpriteBank1</text>
</a>
</g>
</g>
<!-- w_015.func_ptr_8017000C&#45;&gt;w_015.SetSpriteBank1 -->
<g id="edge12" class="edge">
<title>w_015.func_ptr_8017000C&#45;&gt;w_015.SetSpriteBank1</title>
<path fill="none" stroke="black" d="M1321.57,-184.13C1539.7,-151.53 2112.37,-65.94 2335.56,-32.58"/>
<polygon fill="black" stroke="black" points="2336.22,-36.02 2345.6,-31.08 2335.19,-29.1 2336.22,-36.02"/>
<text text-anchor="middle" x="2340.6" y="-34.88" font-family="Times,serif" font-size="14.00">1</text>
</g>
</g>
</svg>
