<?xml version="1.0" encoding="UTF-8" standalone="no"?>
<!DOCTYPE svg PUBLIC "-//W3C//DTD SVG 1.1//EN"
 "http://www.w3.org/Graphics/SVG/1.1/DTD/svg11.dtd">
<!-- Generated by graphviz version 2.43.0 (0)
 -->
<!-- Title: w_024.func_AC000_8017B180 Pages: 1 -->
<svg width="1266pt" height="131pt"
 viewBox="0.00 0.00 1265.73 131.00" xmlns="http://www.w3.org/2000/svg" xmlns:xlink="http://www.w3.org/1999/xlink">
<g id="graph0" class="graph" transform="scale(1 1) rotate(0) translate(4 127)">
<title>w_024.func_AC000_8017B180</title>
<polygon fill="white" stroke="transparent" points="-4,4 -4,-127 1261.73,-127 1261.73,4 -4,4"/>
<!-- w_024.func_AC000_8017B180 -->
<g id="node1" class="node">
<title>w_024.func_AC000_8017B180</title>
<ellipse fill="red" stroke="black" cx="556.09" cy="-105" rx="150.57" ry="18"/>
<text text-anchor="middle" x="556.09" y="-101.3" font-family="Times,serif" font-size="14.00">w_024.func_AC000_8017B180</text>
</g>
<!-- w_024.func_AC000_8017AEE4 -->
<g id="node2" class="node">
<title>w_024.func_AC000_8017AEE4</title>
<g id="a_node2"><a xlink:href="w_024.func_AC000_8017AEE4.svg" xlink:title="w_024.func_AC000_8017AEE4">
<ellipse fill="red" stroke="black" cx="152.09" cy="-18" rx="152.17" ry="18"/>
<text text-anchor="middle" x="152.09" y="-14.3" font-family="Times,serif" font-size="14.00">w_024.func_AC000_8017AEE4</text>
</a>
</g>
</g>
<!-- w_024.func_AC000_8017B180&#45;&gt;w_024.func_AC000_8017AEE4 -->
<g id="edge1" class="edge">
<title>w_024.func_AC000_8017B180&#45;&gt;w_024.func_AC000_8017AEE4</title>
<path fill="none" stroke="black" d="M485.25,-89.1C414.9,-74.3 307.15,-51.63 233.36,-36.1"/>
<polygon fill="black" stroke="black" points="233.68,-32.59 223.18,-33.96 232.24,-39.44 233.68,-32.59"/>
<text text-anchor="middle" x="384.09" y="-57.8" font-family="Times,serif" font-size="14.00">1</text>
</g>
<!-- rand -->
<g id="node3" class="node">
<title>rand</title>
<g id="a_node3"><a xlink:href="rand.svg" xlink:title="rand">
<ellipse fill="lightblue" stroke="black" cx="355.09" cy="-18" rx="32.49" ry="18"/>
<text text-anchor="middle" x="355.09" y="-14.3" font-family="Times,serif" font-size="14.00">rand</text>
</a>
</g>
</g>
<!-- w_024.func_AC000_8017B180&#45;&gt;rand -->
<g id="edge2" class="edge">
<title>w_024.func_AC000_8017B180&#45;&gt;rand</title>
<path fill="none" stroke="black" d="M516.85,-87.41C479.89,-71.78 425.03,-48.58 389.67,-33.62"/>
<polygon fill="black" stroke="black" points="390.81,-30.31 380.24,-29.64 388.09,-36.76 390.81,-30.31"/>
<text text-anchor="middle" x="473.09" y="-57.8" font-family="Times,serif" font-size="14.00">2</text>
</g>
<!-- w_024.func_AC000_8017B084 -->
<g id="node4" class="node">
<title>w_024.func_AC000_8017B084</title>
<g id="a_node4"><a xlink:href="w_024.func_AC000_8017B084.svg" xlink:title="w_024.func_AC000_8017B084">
<ellipse fill="red" stroke="black" cx="556.09" cy="-18" rx="150.57" ry="18"/>
<text text-anchor="middle" x="556.09" y="-14.3" font-family="Times,serif" font-size="14.00">w_024.func_AC000_8017B084</text>
</a>
</g>
</g>
<!-- w_024.func_AC000_8017B180&#45;&gt;w_024.func_AC000_8017B084 -->
<g id="edge3" class="edge">
<title>w_024.func_AC000_8017B180&#45;&gt;w_024.func_AC000_8017B084</title>
<path fill="none" stroke="black" d="M556.09,-86.8C556.09,-75.16 556.09,-59.55 556.09,-46.24"/>
<polygon fill="black" stroke="black" points="559.59,-46.18 556.09,-36.18 552.59,-46.18 559.59,-46.18"/>
<text text-anchor="middle" x="561.09" y="-57.8" font-family="Times,serif" font-size="14.00">1</text>
</g>
<!-- w_024.func_AC000_8017ADE0 -->
<g id="node5" class="node">
<title>w_024.func_AC000_8017ADE0</title>
<g id="a_node5"><a xlink:href="w_024.func_AC000_8017ADE0.svg" xlink:title="w_024.func_AC000_8017ADE0">
<ellipse fill="red" stroke="black" cx="878.09" cy="-18" rx="152.97" ry="18"/>
<text text-anchor="middle" x="878.09" y="-14.3" font-family="Times,serif" font-size="14.00">w_024.func_AC000_8017ADE0</text>
</a>
</g>
</g>
<!-- w_024.func_AC000_8017B180&#45;&gt;w_024.func_AC000_8017ADE0 -->
<g id="edge4" class="edge">
<title>w_024.func_AC000_8017B180&#45;&gt;w_024.func_AC000_8017ADE0</title>
<path fill="none" stroke="black" d="M615.15,-88.41C669.9,-73.96 751.37,-52.45 809.09,-37.21"/>
<polygon fill="black" stroke="black" points="810.08,-40.57 818.86,-34.64 808.29,-33.8 810.08,-40.57"/>
<text text-anchor="middle" x="742.09" y="-57.8" font-family="Times,serif" font-size="14.00">1</text>
</g>
<!-- dra.func_8010DBFC -->
<g id="node6" class="node">
<title>dra.func_8010DBFC</title>
<g id="a_node6"><a xlink:href="dra.func_8010DBFC.svg" xlink:title="dra.func_8010DBFC">
<ellipse fill="red" stroke="black" cx="1153.09" cy="-18" rx="104.78" ry="18"/>
<text text-anchor="middle" x="1153.09" y="-14.3" font-family="Times,serif" font-size="14.00">dra.func_8010DBFC</text>
</a>
</g>
</g>
<!-- w_024.func_AC000_8017B180&#45;&gt;dra.func_8010DBFC -->
<g id="edge5" class="edge">
<title>w_024.func_AC000_8017B180&#45;&gt;dra.func_8010DBFC</title>
<path fill="none" stroke="black" d="M650.72,-90.98C748.32,-77.49 904.9,-55.67 1040.09,-36 1048.95,-34.71 1058.21,-33.35 1067.44,-31.97"/>
<polygon fill="black" stroke="black" points="1068.05,-35.42 1077.43,-30.49 1067.02,-28.5 1068.05,-35.42"/>
<text text-anchor="middle" x="913.09" y="-57.8" font-family="Times,serif" font-size="14.00">1</text>
</g>
</g>
</svg>
