<?xml version="1.0" encoding="UTF-8" standalone="no"?>
<!DOCTYPE svg PUBLIC "-//W3C//DTD SVG 1.1//EN"
 "http://www.w3.org/Graphics/SVG/1.1/DTD/svg11.dtd">
<!-- Generated by graphviz version 2.43.0 (0)
 -->
<!-- Title: w_022.func_9E000_8017ADB0 Pages: 1 -->
<svg width="947pt" height="131pt"
 viewBox="0.00 0.00 946.62 131.00" xmlns="http://www.w3.org/2000/svg" xmlns:xlink="http://www.w3.org/1999/xlink">
<g id="graph0" class="graph" transform="scale(1 1) rotate(0) translate(4 127)">
<title>w_022.func_9E000_8017ADB0</title>
<polygon fill="white" stroke="transparent" points="-4,4 -4,-127 942.62,-127 942.62,4 -4,4"/>
<!-- w_022.func_9E000_8017ADB0 -->
<g id="node1" class="node">
<title>w_022.func_9E000_8017ADB0</title>
<ellipse fill="red" stroke="black" cx="470.14" cy="-105" rx="152.17" ry="18"/>
<text text-anchor="middle" x="470.14" y="-101.3" font-family="Times,serif" font-size="14.00">w_022.func_9E000_8017ADB0</text>
</g>
<!-- w_022.func_9E000_8017AA20 -->
<g id="node2" class="node">
<title>w_022.func_9E000_8017AA20</title>
<g id="a_node2"><a xlink:href="w_022.func_9E000_8017AA20.svg" xlink:title="w_022.func_9E000_8017AA20">
<ellipse fill="red" stroke="black" cx="150.14" cy="-18" rx="150.27" ry="18"/>
<text text-anchor="middle" x="150.14" y="-14.3" font-family="Times,serif" font-size="14.00">w_022.func_9E000_8017AA20</text>
</a>
</g>
</g>
<!-- w_022.func_9E000_8017ADB0&#45;&gt;w_022.func_9E000_8017AA20 -->
<g id="edge1" class="edge">
<title>w_022.func_9E000_8017ADB0&#45;&gt;w_022.func_9E000_8017AA20</title>
<path fill="none" stroke="black" d="M411.07,-88.31C356.61,-73.85 275.79,-52.38 218.55,-37.17"/>
<polygon fill="black" stroke="black" points="219.42,-33.78 208.86,-34.6 217.62,-40.55 219.42,-33.78"/>
<text text-anchor="middle" x="335.14" y="-57.8" font-family="Times,serif" font-size="14.00">1</text>
</g>
<!-- w_022.func_9E000_8017AAB8 -->
<g id="node3" class="node">
<title>w_022.func_9E000_8017AAB8</title>
<g id="a_node3"><a xlink:href="w_022.func_9E000_8017AAB8.svg" xlink:title="w_022.func_9E000_8017AAB8">
<ellipse fill="red" stroke="black" cx="470.14" cy="-18" rx="151.37" ry="18"/>
<text text-anchor="middle" x="470.14" y="-14.3" font-family="Times,serif" font-size="14.00">w_022.func_9E000_8017AAB8</text>
</a>
</g>
</g>
<!-- w_022.func_9E000_8017ADB0&#45;&gt;w_022.func_9E000_8017AAB8 -->
<g id="edge2" class="edge">
<title>w_022.func_9E000_8017ADB0&#45;&gt;w_022.func_9E000_8017AAB8</title>
<path fill="none" stroke="black" d="M470.14,-86.8C470.14,-75.16 470.14,-59.55 470.14,-46.24"/>
<polygon fill="black" stroke="black" points="473.64,-46.18 470.14,-36.18 466.64,-46.18 473.64,-46.18"/>
<text text-anchor="middle" x="475.14" y="-57.8" font-family="Times,serif" font-size="14.00">1</text>
</g>
<!-- w_022.func_9E000_8017A814 -->
<g id="node4" class="node">
<title>w_022.func_9E000_8017A814</title>
<g id="a_node4"><a xlink:href="w_022.func_9E000_8017A814.svg" xlink:title="w_022.func_9E000_8017A814">
<ellipse fill="red" stroke="black" cx="789.14" cy="-18" rx="149.47" ry="18"/>
<text text-anchor="middle" x="789.14" y="-14.3" font-family="Times,serif" font-size="14.00">w_022.func_9E000_8017A814</text>
</a>
</g>
</g>
<!-- w_022.func_9E000_8017ADB0&#45;&gt;w_022.func_9E000_8017A814 -->
<g id="edge3" class="edge">
<title>w_022.func_9E000_8017ADB0&#45;&gt;w_022.func_9E000_8017A814</title>
<path fill="none" stroke="black" d="M529.02,-88.31C583.19,-73.88 663.55,-52.46 720.59,-37.27"/>
<polygon fill="black" stroke="black" points="721.84,-40.55 730.6,-34.6 720.03,-33.79 721.84,-40.55"/>
<text text-anchor="middle" x="654.14" y="-57.8" font-family="Times,serif" font-size="14.00">1</text>
</g>
</g>
</svg>
