<?xml version="1.0" encoding="UTF-8" standalone="no"?>
<!DOCTYPE svg PUBLIC "-//W3C//DTD SVG 1.1//EN"
 "http://www.w3.org/Graphics/SVG/1.1/DTD/svg11.dtd">
<!-- Generated by graphviz version 2.43.0 (0)
 -->
<!-- Title: w_021.func_97000_8017AF2C Pages: 1 -->
<svg width="570pt" height="131pt"
 viewBox="0.00 0.00 569.68 131.00" xmlns="http://www.w3.org/2000/svg" xmlns:xlink="http://www.w3.org/1999/xlink">
<g id="graph0" class="graph" transform="scale(1 1) rotate(0) translate(4 127)">
<title>w_021.func_97000_8017AF2C</title>
<polygon fill="white" stroke="transparent" points="-4,4 -4,-127 565.68,-127 565.68,4 -4,4"/>
<!-- w_021.func_97000_8017AF2C -->
<g id="node1" class="node">
<title>w_021.func_97000_8017AF2C</title>
<ellipse fill="red" stroke="black" cx="278.24" cy="-18" rx="150.27" ry="18"/>
<text text-anchor="middle" x="278.24" y="-14.3" font-family="Times,serif" font-size="14.00">w_021.func_97000_8017AF2C</text>
</g>
<!-- w_021.func_ptr_80170004 -->
<g id="node2" class="node">
<title>w_021.func_ptr_80170004</title>
<g id="a_node2"><a xlink:href="w_021.func_ptr_80170004.svg" xlink:title="w_021.func_ptr_80170004">
<ellipse fill="red" stroke="black" cx="133.24" cy="-105" rx="133.48" ry="18"/>
<text text-anchor="middle" x="133.24" y="-101.3" font-family="Times,serif" font-size="14.00">w_021.func_ptr_80170004</text>
</a>
</g>
</g>
<!-- w_021.func_ptr_80170004&#45;&gt;w_021.func_97000_8017AF2C -->
<g id="edge1" class="edge">
<title>w_021.func_ptr_80170004&#45;&gt;w_021.func_97000_8017AF2C</title>
<path fill="none" stroke="black" d="M161.54,-87.41C184.15,-74.16 216.03,-55.47 240.76,-40.97"/>
<polygon fill="black" stroke="black" points="242.66,-43.92 249.51,-35.84 239.12,-37.88 242.66,-43.92"/>
<text text-anchor="middle" x="220.24" y="-57.8" font-family="Times,serif" font-size="14.00">2</text>
</g>
<!-- w_021.EntityWeaponAttack -->
<g id="node3" class="node">
<title>w_021.EntityWeaponAttack</title>
<g id="a_node3"><a xlink:href="w_021.EntityWeaponAttack.svg" xlink:title="w_021.EntityWeaponAttack">
<ellipse fill="red" stroke="black" cx="423.24" cy="-105" rx="138.38" ry="18"/>
<text text-anchor="middle" x="423.24" y="-101.3" font-family="Times,serif" font-size="14.00">w_021.EntityWeaponAttack</text>
</a>
</g>
</g>
<!-- w_021.EntityWeaponAttack&#45;&gt;w_021.func_97000_8017AF2C -->
<g id="edge2" class="edge">
<title>w_021.EntityWeaponAttack&#45;&gt;w_021.func_97000_8017AF2C</title>
<path fill="none" stroke="black" d="M394.59,-87.21C371.95,-73.93 340.17,-55.31 315.55,-40.87"/>
<polygon fill="black" stroke="black" points="317.22,-37.8 306.83,-35.76 313.68,-43.84 317.22,-37.8"/>
<text text-anchor="middle" x="365.24" y="-57.8" font-family="Times,serif" font-size="14.00">2</text>
</g>
</g>
</svg>
