<?xml version="1.0" encoding="UTF-8" standalone="no"?>
<!DOCTYPE svg PUBLIC "-//W3C//DTD SVG 1.1//EN"
 "http://www.w3.org/Graphics/SVG/1.1/DTD/svg11.dtd">
<!-- Generated by graphviz version 2.43.0 (0)
 -->
<!-- Title: w_029.func_ptr_80170020 Pages: 1 -->
<svg width="1957pt" height="224pt"
 viewBox="0.00 0.00 1956.83 224.00" xmlns="http://www.w3.org/2000/svg" xmlns:xlink="http://www.w3.org/1999/xlink">
<g id="graph0" class="graph" transform="scale(1 1) rotate(0) translate(4 220)">
<title>w_029.func_ptr_80170020</title>
<polygon fill="white" stroke="transparent" points="-4,4 -4,-220 1952.83,-220 1952.83,4 -4,4"/>
<!-- w_029.func_ptr_80170020 -->
<g id="node1" class="node">
<title>w_029.func_ptr_80170020</title>
<ellipse fill="red" stroke="black" cx="1057.44" cy="-198" rx="133.48" ry="18"/>
<text text-anchor="middle" x="1057.44" y="-194.3" font-family="Times,serif" font-size="14.00">w_029.func_ptr_80170020</text>
</g>
<!-- dra.AllocPrimitives -->
<g id="node2" class="node">
<title>dra.AllocPrimitives</title>
<g id="a_node2"><a xlink:href="dra.AllocPrimitives.svg" xlink:title="dra.AllocPrimitives">
<ellipse fill="green" stroke="black" cx="99.44" cy="-18" rx="99.38" ry="18"/>
<text text-anchor="middle" x="99.44" y="-14.3" font-family="Times,serif" font-size="14.00">dra.AllocPrimitives</text>
</a>
</g>
</g>
<!-- w_029.func_ptr_80170020&#45;&gt;dra.AllocPrimitives -->
<g id="edge1" class="edge">
<title>w_029.func_ptr_80170020&#45;&gt;dra.AllocPrimitives</title>
<path fill="none" stroke="black" d="M982.27,-183.03C803.8,-149.87 356.1,-66.69 176.12,-33.25"/>
<polygon fill="black" stroke="black" points="176.68,-29.79 166.21,-31.41 175.4,-36.67 176.68,-29.79"/>
<text text-anchor="middle" x="161.21" y="-35.21" font-family="Times,serif" font-size="14.00">1</text>
</g>
<!-- w_029.SetSpriteBank1 -->
<g id="node3" class="node">
<title>w_029.SetSpriteBank1</title>
<g id="a_node3"><a xlink:href="w_029.SetSpriteBank1.svg" xlink:title="w_029.SetSpriteBank1">
<ellipse fill="red" stroke="black" cx="333.44" cy="-18" rx="116.98" ry="18"/>
<text text-anchor="middle" x="333.44" y="-14.3" font-family="Times,serif" font-size="14.00">w_029.SetSpriteBank1</text>
</a>
</g>
</g>
<!-- w_029.func_ptr_80170020&#45;&gt;w_029.SetSpriteBank1 -->
<g id="edge2" class="edge">
<title>w_029.func_ptr_80170020&#45;&gt;w_029.SetSpriteBank1</title>
<path fill="none" stroke="black" d="M996.34,-181.98C862.34,-149.03 543.39,-70.62 402.44,-35.96"/>
<polygon fill="black" stroke="black" points="403.15,-32.53 392.6,-33.55 401.48,-39.33 403.15,-32.53"/>
<text text-anchor="middle" x="387.6" y="-37.35" font-family="Times,serif" font-size="14.00">1</text>
</g>
<!-- w_029.func_CF000_8017AFC8 -->
<g id="node4" class="node">
<title>w_029.func_CF000_8017AFC8</title>
<g id="a_node4"><a xlink:href="w_029.func_CF000_8017AFC8.svg" xlink:title="w_029.func_CF000_8017AFC8">
<ellipse fill="red" stroke="black" cx="619.44" cy="-18" rx="151.37" ry="18"/>
<text text-anchor="middle" x="619.44" y="-14.3" font-family="Times,serif" font-size="14.00">w_029.func_CF000_8017AFC8</text>
</a>
</g>
</g>
<!-- w_029.func_ptr_80170020&#45;&gt;w_029.func_CF000_8017AFC8 -->
<g id="edge3" class="edge">
<title>w_029.func_ptr_80170020&#45;&gt;w_029.func_CF000_8017AFC8</title>
<path fill="none" stroke="black" d="M1017.41,-180.73C937.21,-148.14 757.04,-74.92 669.32,-39.27"/>
<polygon fill="black" stroke="black" points="670.44,-35.95 659.85,-35.42 667.8,-42.43 670.44,-35.95"/>
<text text-anchor="middle" x="654.85" y="-39.22" font-family="Times,serif" font-size="14.00">1</text>
</g>
<!-- w_029.func_CF000_8017AFF8 -->
<g id="node5" class="node">
<title>w_029.func_CF000_8017AFF8</title>
<g id="a_node5"><a xlink:href="w_029.func_CF000_8017AFF8.svg" xlink:title="w_029.func_CF000_8017AFF8">
<ellipse fill="red" stroke="black" cx="940.44" cy="-18" rx="151.37" ry="18"/>
<text text-anchor="middle" x="940.44" y="-14.3" font-family="Times,serif" font-size="14.00">w_029.func_CF000_8017AFF8</text>
</a>
</g>
</g>
<!-- w_029.func_ptr_80170020&#45;&gt;w_029.func_CF000_8017AFF8 -->
<g id="edge4" class="edge">
<title>w_029.func_ptr_80170020&#45;&gt;w_029.func_CF000_8017AFF8</title>
<path fill="none" stroke="black" d="M1046.22,-179.93C1025.61,-148.57 981.59,-81.6 957.34,-44.71"/>
<polygon fill="black" stroke="black" points="960.04,-42.45 951.63,-36.02 954.19,-46.29 960.04,-42.45"/>
<text text-anchor="middle" x="946.63" y="-39.82" font-family="Times,serif" font-size="14.00">1</text>
</g>
<!-- dra.PlaySfx -->
<g id="node6" class="node">
<title>dra.PlaySfx</title>
<g id="a_node6"><a xlink:href="dra.PlaySfx.svg" xlink:title="dra.PlaySfx">
<ellipse fill="green" stroke="black" cx="1174.44" cy="-18" rx="64.19" ry="18"/>
<text text-anchor="middle" x="1174.44" y="-14.3" font-family="Times,serif" font-size="14.00">dra.PlaySfx</text>
</a>
</g>
</g>
<!-- w_029.func_ptr_80170020&#45;&gt;dra.PlaySfx -->
<g id="edge5" class="edge">
<title>w_029.func_ptr_80170020&#45;&gt;dra.PlaySfx</title>
<path fill="none" stroke="black" d="M1068.66,-179.93C1089.33,-148.49 1133.52,-81.26 1157.73,-44.43"/>
<polygon fill="black" stroke="black" points="1160.86,-46.03 1163.43,-35.76 1155.01,-42.19 1160.86,-46.03"/>
<text text-anchor="middle" x="1158.43" y="-39.56" font-family="Times,serif" font-size="14.00">2</text>
</g>
<!-- w_029.DecelerateX -->
<g id="node7" class="node">
<title>w_029.DecelerateX</title>
<g id="a_node7"><a xlink:href="w_029.DecelerateX.svg" xlink:title="w_029.DecelerateX">
<ellipse fill="red" stroke="black" cx="1356.44" cy="-18" rx="100.18" ry="18"/>
<text text-anchor="middle" x="1356.44" y="-14.3" font-family="Times,serif" font-size="14.00">w_029.DecelerateX</text>
</a>
</g>
</g>
<!-- w_029.func_ptr_80170020&#45;&gt;w_029.DecelerateX -->
<g id="edge6" class="edge">
<title>w_029.func_ptr_80170020&#45;&gt;w_029.DecelerateX</title>
<path fill="none" stroke="black" d="M1085.57,-180.25C1140.05,-147.82 1259.9,-76.47 1320.23,-40.56"/>
<polygon fill="black" stroke="black" points="1322.24,-43.44 1329.04,-35.31 1318.65,-37.42 1322.24,-43.44"/>
<text text-anchor="middle" x="1324.04" y="-39.11" font-family="Times,serif" font-size="14.00">1</text>
</g>
<!-- g_api_PlaySfx -->
<g id="node8" class="node">
<title>g_api_PlaySfx</title>
<g id="a_node8"><a xlink:href="g_api_PlaySfx.svg" xlink:title="g_api_PlaySfx">
<ellipse fill="lightblue" stroke="black" cx="1549.44" cy="-18" rx="74.99" ry="18"/>
<text text-anchor="middle" x="1549.44" y="-14.3" font-family="Times,serif" font-size="14.00">g_api_PlaySfx</text>
</a>
</g>
</g>
<!-- w_029.func_ptr_80170020&#45;&gt;g_api_PlaySfx -->
<g id="edge7" class="edge">
<title>w_029.func_ptr_80170020&#45;&gt;g_api_PlaySfx</title>
<path fill="none" stroke="black" d="M1101.97,-180.89C1194.02,-147.59 1404.63,-71.39 1500.41,-36.74"/>
<polygon fill="black" stroke="black" points="1501.65,-40.01 1509.86,-33.32 1499.26,-33.43 1501.65,-40.01"/>
<text text-anchor="middle" x="1504.86" y="-37.12" font-family="Times,serif" font-size="14.00">2</text>
</g>
<!-- w_029.func_CF000_8017ADD8 -->
<g id="node9" class="node">
<title>w_029.func_CF000_8017ADD8</title>
<g id="a_node9"><a xlink:href="w_029.func_CF000_8017ADD8.svg" xlink:title="w_029.func_CF000_8017ADD8">
<ellipse fill="red" stroke="black" cx="1795.44" cy="-18" rx="153.27" ry="18"/>
<text text-anchor="middle" x="1795.44" y="-14.3" font-family="Times,serif" font-size="14.00">w_029.func_CF000_8017ADD8</text>
</a>
</g>
</g>
<!-- w_029.func_ptr_80170020&#45;&gt;w_029.func_CF000_8017ADD8 -->
<g id="edge8" class="edge">
<title>w_029.func_ptr_80170020&#45;&gt;w_029.func_CF000_8017ADD8</title>
<path fill="none" stroke="black" d="M1119.41,-182.05C1254.82,-149.39 1576.61,-71.78 1721.95,-36.73"/>
<polygon fill="black" stroke="black" points="1722.78,-40.13 1731.68,-34.38 1721.14,-33.32 1722.78,-40.13"/>
<text text-anchor="middle" x="1726.68" y="-38.18" font-family="Times,serif" font-size="14.00">1</text>
</g>
</g>
</svg>
