<?xml version="1.0" encoding="UTF-8" standalone="no"?>
<!DOCTYPE svg PUBLIC "-//W3C//DTD SVG 1.1//EN"
 "http://www.w3.org/Graphics/SVG/1.1/DTD/svg11.dtd">
<!-- Generated by graphviz version 2.43.0 (0)
 -->
<!-- Title: w_027.func_ptr_80170020 Pages: 1 -->
<svg width="1797pt" height="224pt"
 viewBox="0.00 0.00 1796.98 224.00" xmlns="http://www.w3.org/2000/svg" xmlns:xlink="http://www.w3.org/1999/xlink">
<g id="graph0" class="graph" transform="scale(1 1) rotate(0) translate(4 220)">
<title>w_027.func_ptr_80170020</title>
<polygon fill="white" stroke="transparent" points="-4,4 -4,-220 1792.98,-220 1792.98,4 -4,4"/>
<!-- w_027.func_ptr_80170020 -->
<g id="node1" class="node">
<title>w_027.func_ptr_80170020</title>
<ellipse fill="red" stroke="black" cx="934.44" cy="-198" rx="133.48" ry="18"/>
<text text-anchor="middle" x="934.44" y="-194.3" font-family="Times,serif" font-size="14.00">w_027.func_ptr_80170020</text>
</g>
<!-- dra.AllocPrimitives -->
<g id="node2" class="node">
<title>dra.AllocPrimitives</title>
<g id="a_node2"><a xlink:href="dra.AllocPrimitives.svg" xlink:title="dra.AllocPrimitives">
<ellipse fill="green" stroke="black" cx="99.44" cy="-18" rx="99.38" ry="18"/>
<text text-anchor="middle" x="99.44" y="-14.3" font-family="Times,serif" font-size="14.00">dra.AllocPrimitives</text>
</a>
</g>
</g>
<!-- w_027.func_ptr_80170020&#45;&gt;dra.AllocPrimitives -->
<g id="edge1" class="edge">
<title>w_027.func_ptr_80170020&#45;&gt;dra.AllocPrimitives</title>
<path fill="none" stroke="black" d="M866.46,-182.51C710.93,-149.35 330.32,-68.22 171.2,-34.3"/>
<polygon fill="black" stroke="black" points="171.56,-30.79 161.05,-32.13 170.1,-37.64 171.56,-30.79"/>
<text text-anchor="middle" x="156.05" y="-35.93" font-family="Times,serif" font-size="14.00">1</text>
</g>
<!-- w_027.SetSpriteBank1 -->
<g id="node3" class="node">
<title>w_027.SetSpriteBank1</title>
<g id="a_node3"><a xlink:href="w_027.SetSpriteBank1.svg" xlink:title="w_027.SetSpriteBank1">
<ellipse fill="red" stroke="black" cx="333.44" cy="-18" rx="116.98" ry="18"/>
<text text-anchor="middle" x="333.44" y="-14.3" font-family="Times,serif" font-size="14.00">w_027.SetSpriteBank1</text>
</a>
</g>
</g>
<!-- w_027.func_ptr_80170020&#45;&gt;w_027.SetSpriteBank1 -->
<g id="edge2" class="edge">
<title>w_027.func_ptr_80170020&#45;&gt;w_027.SetSpriteBank1</title>
<path fill="none" stroke="black" d="M881.9,-181.44C770.9,-148.56 513.06,-72.2 394.76,-37.16"/>
<polygon fill="black" stroke="black" points="395.7,-33.79 385.12,-34.31 393.71,-40.5 395.7,-33.79"/>
<text text-anchor="middle" x="380.12" y="-38.11" font-family="Times,serif" font-size="14.00">1</text>
</g>
<!-- w_027.SetSpeedX -->
<g id="node4" class="node">
<title>w_027.SetSpeedX</title>
<g id="a_node4"><a xlink:href="w_027.SetSpeedX.svg" xlink:title="w_027.SetSpeedX">
<ellipse fill="red" stroke="black" cx="562.44" cy="-18" rx="94.48" ry="18"/>
<text text-anchor="middle" x="562.44" y="-14.3" font-family="Times,serif" font-size="14.00">w_027.SetSpeedX</text>
</a>
</g>
</g>
<!-- w_027.func_ptr_80170020&#45;&gt;w_027.SetSpeedX -->
<g id="edge3" class="edge">
<title>w_027.func_ptr_80170020&#45;&gt;w_027.SetSpeedX</title>
<path fill="none" stroke="black" d="M900.11,-180.57C831.81,-147.89 679.06,-74.8 604.71,-39.23"/>
<polygon fill="black" stroke="black" points="606.15,-36.03 595.62,-34.87 603.13,-42.35 606.15,-36.03"/>
<text text-anchor="middle" x="590.62" y="-38.67" font-family="Times,serif" font-size="14.00">1</text>
</g>
<!-- w_027.DestroyEntityWeapon -->
<g id="node5" class="node">
<title>w_027.DestroyEntityWeapon</title>
<g id="a_node5"><a xlink:href="w_027.DestroyEntityWeapon.svg" xlink:title="w_027.DestroyEntityWeapon">
<ellipse fill="red" stroke="black" cx="820.44" cy="-18" rx="145.67" ry="18"/>
<text text-anchor="middle" x="820.44" y="-14.3" font-family="Times,serif" font-size="14.00">w_027.DestroyEntityWeapon</text>
</a>
</g>
</g>
<!-- w_027.func_ptr_80170020&#45;&gt;w_027.DestroyEntityWeapon -->
<g id="edge4" class="edge">
<title>w_027.func_ptr_80170020&#45;&gt;w_027.DestroyEntityWeapon</title>
<path fill="none" stroke="black" d="M923.51,-179.93C903.42,-148.57 860.53,-81.6 836.91,-44.71"/>
<polygon fill="black" stroke="black" points="839.68,-42.55 831.34,-36.02 833.78,-46.32 839.68,-42.55"/>
<text text-anchor="middle" x="826.34" y="-39.82" font-family="Times,serif" font-size="14.00">1</text>
</g>
<!-- dra.PlaySfx -->
<g id="node6" class="node">
<title>dra.PlaySfx</title>
<g id="a_node6"><a xlink:href="dra.PlaySfx.svg" xlink:title="dra.PlaySfx">
<ellipse fill="green" stroke="black" cx="1048.44" cy="-18" rx="64.19" ry="18"/>
<text text-anchor="middle" x="1048.44" y="-14.3" font-family="Times,serif" font-size="14.00">dra.PlaySfx</text>
</a>
</g>
</g>
<!-- w_027.func_ptr_80170020&#45;&gt;dra.PlaySfx -->
<g id="edge5" class="edge">
<title>w_027.func_ptr_80170020&#45;&gt;dra.PlaySfx</title>
<path fill="none" stroke="black" d="M945.37,-179.93C965.51,-148.49 1008.57,-81.26 1032.16,-44.43"/>
<polygon fill="black" stroke="black" points="1035.26,-46.06 1037.71,-35.76 1029.37,-42.29 1035.26,-46.06"/>
<text text-anchor="middle" x="1032.71" y="-39.56" font-family="Times,serif" font-size="14.00">1</text>
</g>
<!-- w_027.DecelerateX -->
<g id="node7" class="node">
<title>w_027.DecelerateX</title>
<g id="a_node7"><a xlink:href="w_027.DecelerateX.svg" xlink:title="w_027.DecelerateX">
<ellipse fill="red" stroke="black" cx="1230.44" cy="-18" rx="100.18" ry="18"/>
<text text-anchor="middle" x="1230.44" y="-14.3" font-family="Times,serif" font-size="14.00">w_027.DecelerateX</text>
</a>
</g>
</g>
<!-- w_027.func_ptr_80170020&#45;&gt;w_027.DecelerateX -->
<g id="edge6" class="edge">
<title>w_027.func_ptr_80170020&#45;&gt;w_027.DecelerateX</title>
<path fill="none" stroke="black" d="M962.29,-180.25C1016.09,-147.9 1134.27,-76.84 1194.14,-40.83"/>
<polygon fill="black" stroke="black" points="1196.12,-43.72 1202.88,-35.57 1192.51,-37.73 1196.12,-43.72"/>
<text text-anchor="middle" x="1197.88" y="-39.37" font-family="Times,serif" font-size="14.00">1</text>
</g>
<!-- dra.func_8011AAFC -->
<g id="node8" class="node">
<title>dra.func_8011AAFC</title>
<g id="a_node8"><a xlink:href="dra.func_8011AAFC.svg" xlink:title="dra.func_8011AAFC">
<ellipse fill="green" stroke="black" cx="1451.44" cy="-18" rx="102.88" ry="18"/>
<text text-anchor="middle" x="1451.44" y="-14.3" font-family="Times,serif" font-size="14.00">dra.func_8011AAFC</text>
</a>
</g>
</g>
<!-- w_027.func_ptr_80170020&#45;&gt;dra.func_8011AAFC -->
<g id="edge7" class="edge">
<title>w_027.func_ptr_80170020&#45;&gt;dra.func_8011AAFC</title>
<path fill="none" stroke="black" d="M980.78,-181.05C1076.46,-148.1 1295.43,-72.71 1397.38,-37.61"/>
<polygon fill="black" stroke="black" points="1398.55,-40.91 1406.87,-34.35 1396.27,-34.29 1398.55,-40.91"/>
<text text-anchor="middle" x="1401.87" y="-38.15" font-family="Times,serif" font-size="14.00">1</text>
</g>
<!-- w_027.DestroyEntity -->
<g id="node9" class="node">
<title>w_027.DestroyEntity</title>
<g id="a_node9"><a xlink:href="w_027.DestroyEntity.svg" xlink:title="w_027.DestroyEntity">
<ellipse fill="red" stroke="black" cx="1680.44" cy="-18" rx="108.58" ry="18"/>
<text text-anchor="middle" x="1680.44" y="-14.3" font-family="Times,serif" font-size="14.00">w_027.DestroyEntity</text>
</a>
</g>
</g>
<!-- w_027.func_ptr_80170020&#45;&gt;w_027.DestroyEntity -->
<g id="edge8" class="edge">
<title>w_027.func_ptr_80170020&#45;&gt;w_027.DestroyEntity</title>
<path fill="none" stroke="black" d="M997.08,-182.05C1135.54,-149.02 1466.75,-69.99 1611.15,-35.53"/>
<polygon fill="black" stroke="black" points="1612.31,-38.86 1621.22,-33.13 1610.68,-32.05 1612.31,-38.86"/>
<text text-anchor="middle" x="1616.22" y="-36.93" font-family="Times,serif" font-size="14.00">1</text>
</g>
</g>
</svg>
