<?xml version="1.0" encoding="UTF-8" standalone="no"?>
<!DOCTYPE svg PUBLIC "-//W3C//DTD SVG 1.1//EN"
 "http://www.w3.org/Graphics/SVG/1.1/DTD/svg11.dtd">
<!-- Generated by graphviz version 2.43.0 (0)
 -->
<!-- Title: w_027.func_ptr_80170020 Pages: 1 -->
<svg width="1797pt" height="131pt"
 viewBox="0.00 0.00 1796.98 131.00" xmlns="http://www.w3.org/2000/svg" xmlns:xlink="http://www.w3.org/1999/xlink">
<g id="graph0" class="graph" transform="scale(1 1) rotate(0) translate(4 127)">
<title>w_027.func_ptr_80170020</title>
<polygon fill="white" stroke="transparent" points="-4,4 -4,-127 1792.98,-127 1792.98,4 -4,4"/>
<!-- w_027.func_ptr_80170020 -->
<g id="node1" class="node">
<title>w_027.func_ptr_80170020</title>
<ellipse fill="red" stroke="black" cx="934.44" cy="-105" rx="133.48" ry="18"/>
<text text-anchor="middle" x="934.44" y="-101.3" font-family="Times,serif" font-size="14.00">w_027.func_ptr_80170020</text>
</g>
<!-- dra.AllocPrimitives -->
<g id="node2" class="node">
<title>dra.AllocPrimitives</title>
<g id="a_node2"><a xlink:href="dra.AllocPrimitives.svg" xlink:title="dra.AllocPrimitives">
<ellipse fill="green" stroke="black" cx="99.44" cy="-18" rx="99.38" ry="18"/>
<text text-anchor="middle" x="99.44" y="-14.3" font-family="Times,serif" font-size="14.00">dra.AllocPrimitives</text>
</a>
</g>
</g>
<!-- w_027.func_ptr_80170020&#45;&gt;dra.AllocPrimitives -->
<g id="edge1" class="edge">
<title>w_027.func_ptr_80170020&#45;&gt;dra.AllocPrimitives</title>
<path fill="none" stroke="black" d="M820.55,-95.58C677.23,-84.46 423.63,-63.1 207.44,-36 198.52,-34.88 189.2,-33.6 179.94,-32.24"/>
<polygon fill="black" stroke="black" points="180.34,-28.76 169.94,-30.75 179.31,-35.69 180.34,-28.76"/>
<text text-anchor="middle" x="512.44" y="-57.8" font-family="Times,serif" font-size="14.00">1</text>
</g>
<!-- w_027.SetSpriteBank1 -->
<g id="node3" class="node">
<title>w_027.SetSpriteBank1</title>
<g id="a_node3"><a xlink:href="w_027.SetSpriteBank1.svg" xlink:title="w_027.SetSpriteBank1">
<ellipse fill="red" stroke="black" cx="333.44" cy="-18" rx="116.98" ry="18"/>
<text text-anchor="middle" x="333.44" y="-14.3" font-family="Times,serif" font-size="14.00">w_027.SetSpriteBank1</text>
</a>
</g>
</g>
<!-- w_027.func_ptr_80170020&#45;&gt;w_027.SetSpriteBank1 -->
<g id="edge2" class="edge">
<title>w_027.func_ptr_80170020&#45;&gt;w_027.SetSpriteBank1</title>
<path fill="none" stroke="black" d="M846.08,-91.5C733.81,-75.62 540.88,-48.34 426.44,-32.15"/>
<polygon fill="black" stroke="black" points="426.68,-28.65 416.29,-30.72 425.7,-35.58 426.68,-28.65"/>
<text text-anchor="middle" x="675.44" y="-57.8" font-family="Times,serif" font-size="14.00">1</text>
</g>
<!-- w_027.SetSpeedX -->
<g id="node4" class="node">
<title>w_027.SetSpeedX</title>
<g id="a_node4"><a xlink:href="w_027.SetSpeedX.svg" xlink:title="w_027.SetSpeedX">
<ellipse fill="red" stroke="black" cx="562.44" cy="-18" rx="94.48" ry="18"/>
<text text-anchor="middle" x="562.44" y="-14.3" font-family="Times,serif" font-size="14.00">w_027.SetSpeedX</text>
</a>
</g>
</g>
<!-- w_027.func_ptr_80170020&#45;&gt;w_027.SetSpeedX -->
<g id="edge3" class="edge">
<title>w_027.func_ptr_80170020&#45;&gt;w_027.SetSpeedX</title>
<path fill="none" stroke="black" d="M869.64,-89.19C802.58,-73.87 698.29,-50.04 630.17,-34.47"/>
<polygon fill="black" stroke="black" points="630.92,-31.06 620.39,-32.24 629.36,-37.88 630.92,-31.06"/>
<text text-anchor="middle" x="776.44" y="-57.8" font-family="Times,serif" font-size="14.00">1</text>
</g>
<!-- w_027.DestroyEntityWeapon -->
<g id="node5" class="node">
<title>w_027.DestroyEntityWeapon</title>
<g id="a_node5"><a xlink:href="w_027.DestroyEntityWeapon.svg" xlink:title="w_027.DestroyEntityWeapon">
<ellipse fill="red" stroke="black" cx="820.44" cy="-18" rx="145.67" ry="18"/>
<text text-anchor="middle" x="820.44" y="-14.3" font-family="Times,serif" font-size="14.00">w_027.DestroyEntityWeapon</text>
</a>
</g>
</g>
<!-- w_027.func_ptr_80170020&#45;&gt;w_027.DestroyEntityWeapon -->
<g id="edge4" class="edge">
<title>w_027.func_ptr_80170020&#45;&gt;w_027.DestroyEntityWeapon</title>
<path fill="none" stroke="black" d="M911.92,-87.21C894.62,-74.31 870.54,-56.36 851.43,-42.1"/>
<polygon fill="black" stroke="black" points="853.42,-39.22 843.31,-36.05 849.23,-44.83 853.42,-39.22"/>
<text text-anchor="middle" x="889.44" y="-57.8" font-family="Times,serif" font-size="14.00">1</text>
</g>
<!-- dra.PlaySfx -->
<g id="node6" class="node">
<title>dra.PlaySfx</title>
<g id="a_node6"><a xlink:href="dra.PlaySfx.svg" xlink:title="dra.PlaySfx">
<ellipse fill="green" stroke="black" cx="1048.44" cy="-18" rx="64.19" ry="18"/>
<text text-anchor="middle" x="1048.44" y="-14.3" font-family="Times,serif" font-size="14.00">dra.PlaySfx</text>
</a>
</g>
</g>
<!-- w_027.func_ptr_80170020&#45;&gt;dra.PlaySfx -->
<g id="edge5" class="edge">
<title>w_027.func_ptr_80170020&#45;&gt;dra.PlaySfx</title>
<path fill="none" stroke="black" d="M956.96,-87.21C974.6,-74.06 999.29,-55.65 1018.57,-41.27"/>
<polygon fill="black" stroke="black" points="1020.81,-43.97 1026.74,-35.18 1016.63,-38.35 1020.81,-43.97"/>
<text text-anchor="middle" x="1003.44" y="-57.8" font-family="Times,serif" font-size="14.00">1</text>
</g>
<!-- w_027.DecelerateX -->
<g id="node7" class="node">
<title>w_027.DecelerateX</title>
<g id="a_node7"><a xlink:href="w_027.DecelerateX.svg" xlink:title="w_027.DecelerateX">
<ellipse fill="red" stroke="black" cx="1230.44" cy="-18" rx="100.18" ry="18"/>
<text text-anchor="middle" x="1230.44" y="-14.3" font-family="Times,serif" font-size="14.00">w_027.DecelerateX</text>
</a>
</g>
</g>
<!-- w_027.func_ptr_80170020&#45;&gt;w_027.DecelerateX -->
<g id="edge6" class="edge">
<title>w_027.func_ptr_80170020&#45;&gt;w_027.DecelerateX</title>
<path fill="none" stroke="black" d="M988.39,-88.51C1039.72,-73.77 1116.83,-51.63 1170.16,-36.31"/>
<polygon fill="black" stroke="black" points="1171.18,-39.66 1179.83,-33.53 1169.25,-32.93 1171.18,-39.66"/>
<text text-anchor="middle" x="1105.44" y="-57.8" font-family="Times,serif" font-size="14.00">1</text>
</g>
<!-- dra.func_8011AAFC -->
<g id="node8" class="node">
<title>dra.func_8011AAFC</title>
<g id="a_node8"><a xlink:href="dra.func_8011AAFC.svg" xlink:title="dra.func_8011AAFC">
<ellipse fill="green" stroke="black" cx="1451.44" cy="-18" rx="102.88" ry="18"/>
<text text-anchor="middle" x="1451.44" y="-14.3" font-family="Times,serif" font-size="14.00">dra.func_8011AAFC</text>
</a>
</g>
</g>
<!-- w_027.func_ptr_80170020&#45;&gt;dra.func_8011AAFC -->
<g id="edge7" class="edge">
<title>w_027.func_ptr_80170020&#45;&gt;dra.func_8011AAFC</title>
<path fill="none" stroke="black" d="M1015.51,-90.67C1111.98,-74.81 1272.18,-48.47 1369.18,-32.53"/>
<polygon fill="black" stroke="black" points="1369.93,-35.95 1379.23,-30.87 1368.8,-29.04 1369.93,-35.95"/>
<text text-anchor="middle" x="1229.44" y="-57.8" font-family="Times,serif" font-size="14.00">1</text>
</g>
<!-- w_027.DestroyEntity -->
<g id="node9" class="node">
<title>w_027.DestroyEntity</title>
<g id="a_node9"><a xlink:href="w_027.DestroyEntity.svg" xlink:title="w_027.DestroyEntity">
<ellipse fill="red" stroke="black" cx="1680.44" cy="-18" rx="108.58" ry="18"/>
<text text-anchor="middle" x="1680.44" y="-14.3" font-family="Times,serif" font-size="14.00">w_027.DestroyEntity</text>
</a>
</g>
</g>
<!-- w_027.func_ptr_80170020&#45;&gt;w_027.DestroyEntity -->
<g id="edge8" class="edge">
<title>w_027.func_ptr_80170020&#45;&gt;w_027.DestroyEntity</title>
<path fill="none" stroke="black" d="M1039.2,-93.86C1164.15,-81.49 1379.29,-59.33 1563.44,-36 1573.06,-34.78 1583.12,-33.43 1593.12,-32.05"/>
<polygon fill="black" stroke="black" points="1593.67,-35.5 1603.09,-30.65 1592.7,-28.57 1593.67,-35.5"/>
<text text-anchor="middle" x="1413.44" y="-57.8" font-family="Times,serif" font-size="14.00">1</text>
</g>
</g>
</svg>
