<?xml version="1.0" encoding="UTF-8" standalone="no"?>
<!DOCTYPE svg PUBLIC "-//W3C//DTD SVG 1.1//EN"
 "http://www.w3.org/Graphics/SVG/1.1/DTD/svg11.dtd">
<!-- Generated by graphviz version 2.43.0 (0)
 -->
<!-- Title: w_020.func_ptr_80170008 Pages: 1 -->
<svg width="329pt" height="131pt"
 viewBox="0.00 0.00 328.78 131.00" xmlns="http://www.w3.org/2000/svg" xmlns:xlink="http://www.w3.org/1999/xlink">
<g id="graph0" class="graph" transform="scale(1 1) rotate(0) translate(4 127)">
<title>w_020.func_ptr_80170008</title>
<polygon fill="white" stroke="transparent" points="-4,4 -4,-127 324.78,-127 324.78,4 -4,4"/>
<!-- w_020.func_ptr_80170008 -->
<g id="node1" class="node">
<title>w_020.func_ptr_80170008</title>
<ellipse fill="red" stroke="black" cx="187.54" cy="-105" rx="133.48" ry="18"/>
<text text-anchor="middle" x="187.54" y="-101.3" font-family="Times,serif" font-size="14.00">w_020.func_ptr_80170008</text>
</g>
<!-- w_020.DestroyEntity -->
<g id="node2" class="node">
<title>w_020.DestroyEntity</title>
<g id="a_node2"><a xlink:href="w_020.DestroyEntity.svg" xlink:title="w_020.DestroyEntity">
<ellipse fill="red" stroke="black" cx="108.54" cy="-18" rx="108.58" ry="18"/>
<text text-anchor="middle" x="108.54" y="-14.3" font-family="Times,serif" font-size="14.00">w_020.DestroyEntity</text>
</a>
</g>
</g>
<!-- w_020.func_ptr_80170008&#45;&gt;w_020.DestroyEntity -->
<g id="edge1" class="edge">
<title>w_020.func_ptr_80170008&#45;&gt;w_020.DestroyEntity</title>
<path fill="none" stroke="black" d="M171.55,-86.8C159.91,-74.27 143.99,-57.14 131.06,-43.23"/>
<polygon fill="black" stroke="black" points="133.61,-40.83 124.23,-35.89 128.48,-45.59 133.61,-40.83"/>
<text text-anchor="middle" x="158.54" y="-57.8" font-family="Times,serif" font-size="14.00">1</text>
</g>
<!-- rand -->
<g id="node3" class="node">
<title>rand</title>
<g id="a_node3"><a xlink:href="rand.svg" xlink:title="rand">
<ellipse fill="lightblue" stroke="black" cx="267.54" cy="-18" rx="32.49" ry="18"/>
<text text-anchor="middle" x="267.54" y="-14.3" font-family="Times,serif" font-size="14.00">rand</text>
</a>
</g>
</g>
<!-- w_020.func_ptr_80170008&#45;&gt;rand -->
<g id="edge2" class="edge">
<title>w_020.func_ptr_80170008&#45;&gt;rand</title>
<path fill="none" stroke="black" d="M203.73,-86.8C215.98,-73.78 232.91,-55.79 246.26,-41.61"/>
<polygon fill="black" stroke="black" points="248.95,-43.86 253.25,-34.18 243.85,-39.06 248.95,-43.86"/>
<text text-anchor="middle" x="237.54" y="-57.8" font-family="Times,serif" font-size="14.00">2</text>
</g>
</g>
</svg>
