<?xml version="1.0" encoding="UTF-8" standalone="no"?>
<!DOCTYPE svg PUBLIC "-//W3C//DTD SVG 1.1//EN"
 "http://www.w3.org/Graphics/SVG/1.1/DTD/svg11.dtd">
<!-- Generated by graphviz version 2.43.0 (0)
 -->
<!-- Title: w_024.func_ptr_80170020 Pages: 1 -->
<svg width="2403pt" height="224pt"
 viewBox="0.00 0.00 2402.73 224.00" xmlns="http://www.w3.org/2000/svg" xmlns:xlink="http://www.w3.org/1999/xlink">
<g id="graph0" class="graph" transform="scale(1 1) rotate(0) translate(4 220)">
<title>w_024.func_ptr_80170020</title>
<polygon fill="white" stroke="transparent" points="-4,4 -4,-220 2398.73,-220 2398.73,4 -4,4"/>
<!-- w_024.func_ptr_80170020 -->
<g id="node1" class="node">
<title>w_024.func_ptr_80170020</title>
<ellipse fill="red" stroke="black" cx="985.44" cy="-198" rx="133.48" ry="18"/>
<text text-anchor="middle" x="985.44" y="-194.3" font-family="Times,serif" font-size="14.00">w_024.func_ptr_80170020</text>
</g>
<!-- dra.AllocPrimitives -->
<g id="node2" class="node">
<title>dra.AllocPrimitives</title>
<g id="a_node2"><a xlink:href="dra.AllocPrimitives.svg" xlink:title="dra.AllocPrimitives">
<ellipse fill="green" stroke="black" cx="99.44" cy="-18" rx="99.38" ry="18"/>
<text text-anchor="middle" x="99.44" y="-14.3" font-family="Times,serif" font-size="14.00">dra.AllocPrimitives</text>
</a>
</g>
</g>
<!-- w_024.func_ptr_80170020&#45;&gt;dra.AllocPrimitives -->
<g id="edge1" class="edge">
<title>w_024.func_ptr_80170020&#45;&gt;dra.AllocPrimitives</title>
<path fill="none" stroke="black" d="M914.43,-182.73C749.34,-149.57 341.01,-67.53 173.23,-33.82"/>
<polygon fill="black" stroke="black" points="173.74,-30.36 163.25,-31.82 172.36,-37.22 173.74,-30.36"/>
<text text-anchor="middle" x="158.25" y="-35.62" font-family="Times,serif" font-size="14.00">1</text>
</g>
<!-- dra.PlaySfx -->
<g id="node3" class="node">
<title>dra.PlaySfx</title>
<g id="a_node3"><a xlink:href="dra.PlaySfx.svg" xlink:title="dra.PlaySfx">
<ellipse fill="green" stroke="black" cx="281.44" cy="-18" rx="64.19" ry="18"/>
<text text-anchor="middle" x="281.44" y="-14.3" font-family="Times,serif" font-size="14.00">dra.PlaySfx</text>
</a>
</g>
</g>
<!-- w_024.func_ptr_80170020&#45;&gt;dra.PlaySfx -->
<g id="edge2" class="edge">
<title>w_024.func_ptr_80170020&#45;&gt;dra.PlaySfx</title>
<path fill="none" stroke="black" d="M925.72,-181.9C791.6,-147.99 468.03,-66.18 337.47,-33.17"/>
<polygon fill="black" stroke="black" points="338.22,-29.74 327.66,-30.69 336.5,-36.53 338.22,-29.74"/>
<text text-anchor="middle" x="322.66" y="-34.49" font-family="Times,serif" font-size="14.00">2</text>
</g>
<!-- dra.func_80102CD8 -->
<g id="node4" class="node">
<title>dra.func_80102CD8</title>
<g id="a_node4"><a xlink:href="dra.func_80102CD8.svg" xlink:title="dra.func_80102CD8">
<ellipse fill="green" stroke="black" cx="466.44" cy="-18" rx="102.88" ry="18"/>
<text text-anchor="middle" x="466.44" y="-14.3" font-family="Times,serif" font-size="14.00">dra.func_80102CD8</text>
</a>
</g>
</g>
<!-- w_024.func_ptr_80170020&#45;&gt;dra.func_80102CD8 -->
<g id="edge3" class="edge">
<title>w_024.func_ptr_80170020&#45;&gt;dra.func_80102CD8</title>
<path fill="none" stroke="black" d="M938.93,-181.05C842.88,-148.1 623.06,-72.71 520.72,-37.61"/>
<polygon fill="black" stroke="black" points="521.78,-34.28 511.19,-34.35 519.51,-40.9 521.78,-34.28"/>
<text text-anchor="middle" x="506.19" y="-38.15" font-family="Times,serif" font-size="14.00">1</text>
</g>
<!-- dra.func_8011AAFC -->
<g id="node5" class="node">
<title>dra.func_8011AAFC</title>
<g id="a_node5"><a xlink:href="dra.func_8011AAFC.svg" xlink:title="dra.func_8011AAFC">
<ellipse fill="green" stroke="black" cx="689.44" cy="-18" rx="102.88" ry="18"/>
<text text-anchor="middle" x="689.44" y="-14.3" font-family="Times,serif" font-size="14.00">dra.func_8011AAFC</text>
</a>
</g>
</g>
<!-- w_024.func_ptr_80170020&#45;&gt;dra.func_8011AAFC -->
<g id="edge4" class="edge">
<title>w_024.func_ptr_80170020&#45;&gt;dra.func_8011AAFC</title>
<path fill="none" stroke="black" d="M957.59,-180.25C903.8,-147.9 785.62,-76.84 725.74,-40.83"/>
<polygon fill="black" stroke="black" points="727.37,-37.73 717,-35.57 723.76,-43.72 727.37,-37.73"/>
<text text-anchor="middle" x="712" y="-39.37" font-family="Times,serif" font-size="14.00">1</text>
</g>
<!-- rsin -->
<g id="node6" class="node">
<title>rsin</title>
<g id="a_node6"><a xlink:href="rsin.svg" xlink:title="rsin">
<ellipse fill="lightblue" stroke="black" cx="838.44" cy="-18" rx="28.7" ry="18"/>
<text text-anchor="middle" x="838.44" y="-14.3" font-family="Times,serif" font-size="14.00">rsin</text>
</a>
</g>
</g>
<!-- w_024.func_ptr_80170020&#45;&gt;rsin -->
<g id="edge5" class="edge">
<title>w_024.func_ptr_80170020&#45;&gt;rsin</title>
<path fill="none" stroke="black" d="M971.35,-179.93C944.87,-147.87 887.67,-78.61 857.68,-42.29"/>
<polygon fill="black" stroke="black" points="860.09,-39.71 851.02,-34.23 854.69,-44.17 860.09,-39.71"/>
<text text-anchor="middle" x="846.02" y="-38.03" font-family="Times,serif" font-size="14.00">6</text>
</g>
<!-- w_024.DecelerateX -->
<g id="node7" class="node">
<title>w_024.DecelerateX</title>
<g id="a_node7"><a xlink:href="w_024.DecelerateX.svg" xlink:title="w_024.DecelerateX">
<ellipse fill="red" stroke="black" cx="985.44" cy="-18" rx="100.18" ry="18"/>
<text text-anchor="middle" x="985.44" y="-14.3" font-family="Times,serif" font-size="14.00">w_024.DecelerateX</text>
</a>
</g>
</g>
<!-- w_024.func_ptr_80170020&#45;&gt;w_024.DecelerateX -->
<g id="edge6" class="edge">
<title>w_024.func_ptr_80170020&#45;&gt;w_024.DecelerateX</title>
<path fill="none" stroke="black" d="M985.44,-179.93C985.44,-148.97 985.44,-83.3 985.44,-46.13"/>
<polygon fill="black" stroke="black" points="988.94,-46.02 985.44,-36.02 981.94,-46.02 988.94,-46.02"/>
<text text-anchor="middle" x="980.44" y="-39.82" font-family="Times,serif" font-size="14.00">1</text>
</g>
<!-- w_024.DestroyEntity -->
<g id="node8" class="node">
<title>w_024.DestroyEntity</title>
<g id="a_node8"><a xlink:href="w_024.DestroyEntity.svg" xlink:title="w_024.DestroyEntity">
<ellipse fill="red" stroke="black" cx="1212.44" cy="-18" rx="108.58" ry="18"/>
<text text-anchor="middle" x="1212.44" y="-14.3" font-family="Times,serif" font-size="14.00">w_024.DestroyEntity</text>
</a>
</g>
</g>
<!-- w_024.func_ptr_80170020&#45;&gt;w_024.DestroyEntity -->
<g id="edge7" class="edge">
<title>w_024.func_ptr_80170020&#45;&gt;w_024.DestroyEntity</title>
<path fill="none" stroke="black" d="M1007.21,-179.93C1048.16,-147.82 1136.7,-78.39 1182.95,-42.13"/>
<polygon fill="black" stroke="black" points="1185.36,-44.68 1191.07,-35.76 1181.04,-39.17 1185.36,-44.68"/>
<text text-anchor="middle" x="1186.07" y="-39.56" font-family="Times,serif" font-size="14.00">1</text>
</g>
<!-- w_024.DestroyEntityWeapon -->
<g id="node9" class="node">
<title>w_024.DestroyEntityWeapon</title>
<g id="a_node9"><a xlink:href="w_024.DestroyEntityWeapon.svg" xlink:title="w_024.DestroyEntityWeapon">
<ellipse fill="red" stroke="black" cx="1484.44" cy="-18" rx="145.67" ry="18"/>
<text text-anchor="middle" x="1484.44" y="-14.3" font-family="Times,serif" font-size="14.00">w_024.DestroyEntityWeapon</text>
</a>
</g>
</g>
<!-- w_024.func_ptr_80170020&#45;&gt;w_024.DestroyEntityWeapon -->
<g id="edge8" class="edge">
<title>w_024.func_ptr_80170020&#45;&gt;w_024.DestroyEntityWeapon</title>
<path fill="none" stroke="black" d="M1030.6,-180.89C1122.31,-148.18 1330.07,-74.07 1429.46,-38.61"/>
<polygon fill="black" stroke="black" points="1430.78,-41.86 1439.02,-35.2 1428.43,-35.27 1430.78,-41.86"/>
<text text-anchor="middle" x="1434.02" y="-39" font-family="Times,serif" font-size="14.00">1</text>
</g>
<!-- w_024.SetSpeedX -->
<g id="node10" class="node">
<title>w_024.SetSpeedX</title>
<g id="a_node10"><a xlink:href="w_024.SetSpeedX.svg" xlink:title="w_024.SetSpeedX">
<ellipse fill="red" stroke="black" cx="1742.44" cy="-18" rx="94.48" ry="18"/>
<text text-anchor="middle" x="1742.44" y="-14.3" font-family="Times,serif" font-size="14.00">w_024.SetSpeedX</text>
</a>
</g>
</g>
<!-- w_024.func_ptr_80170020&#45;&gt;w_024.SetSpeedX -->
<g id="edge9" class="edge">
<title>w_024.func_ptr_80170020&#45;&gt;w_024.SetSpeedX</title>
<path fill="none" stroke="black" d="M1048.68,-182.13C1190,-148.9 1530.37,-68.87 1675.29,-34.79"/>
<polygon fill="black" stroke="black" points="1676.45,-38.11 1685.38,-32.42 1674.84,-31.3 1676.45,-38.11"/>
<text text-anchor="middle" x="1680.38" y="-36.22" font-family="Times,serif" font-size="14.00">1</text>
</g>
<!-- w_024.SetSpriteBank1 -->
<g id="node11" class="node">
<title>w_024.SetSpriteBank1</title>
<g id="a_node11"><a xlink:href="w_024.SetSpriteBank1.svg" xlink:title="w_024.SetSpriteBank1">
<ellipse fill="red" stroke="black" cx="1971.44" cy="-18" rx="116.98" ry="18"/>
<text text-anchor="middle" x="1971.44" y="-14.3" font-family="Times,serif" font-size="14.00">w_024.SetSpriteBank1</text>
</a>
</g>
</g>
<!-- w_024.func_ptr_80170020&#45;&gt;w_024.SetSpriteBank1 -->
<g id="edge10" class="edge">
<title>w_024.func_ptr_80170020&#45;&gt;w_024.SetSpriteBank1</title>
<path fill="none" stroke="black" d="M1061.99,-183.18C1243.82,-150.36 1700.47,-67.92 1888.53,-33.97"/>
<polygon fill="black" stroke="black" points="1889.41,-37.36 1898.63,-32.14 1888.17,-30.48 1889.41,-37.36"/>
<text text-anchor="middle" x="1893.63" y="-35.94" font-family="Times,serif" font-size="14.00">1</text>
</g>
<!-- w_024.SetWeaponProperties -->
<g id="node12" class="node">
<title>w_024.SetWeaponProperties</title>
<g id="a_node12"><a xlink:href="w_024.SetWeaponProperties.svg" xlink:title="w_024.SetWeaponProperties">
<ellipse fill="red" stroke="black" cx="2250.44" cy="-18" rx="144.07" ry="18"/>
<text text-anchor="middle" x="2250.44" y="-14.3" font-family="Times,serif" font-size="14.00">w_024.SetWeaponProperties</text>
</a>
</g>
</g>
<!-- w_024.func_ptr_80170020&#45;&gt;w_024.SetWeaponProperties -->
<g id="edge11" class="edge">
<title>w_024.func_ptr_80170020&#45;&gt;w_024.SetWeaponProperties</title>
<path fill="none" stroke="black" d="M1074.14,-184.52C1301.94,-152.47 1906.54,-67.39 2148.37,-33.36"/>
<polygon fill="black" stroke="black" points="2149.15,-36.79 2158.56,-31.93 2148.17,-29.86 2149.15,-36.79"/>
<text text-anchor="middle" x="2153.56" y="-35.73" font-family="Times,serif" font-size="14.00">1</text>
</g>
</g>
</svg>
