<?xml version="1.0" encoding="UTF-8" standalone="no"?>
<!DOCTYPE svg PUBLIC "-//W3C//DTD SVG 1.1//EN"
 "http://www.w3.org/Graphics/SVG/1.1/DTD/svg11.dtd">
<!-- Generated by graphviz version 2.43.0 (0)
 -->
<!-- Title: w_029.func_ptr_80170020 Pages: 1 -->
<svg width="1742pt" height="224pt"
 viewBox="0.00 0.00 1742.43 224.00" xmlns="http://www.w3.org/2000/svg" xmlns:xlink="http://www.w3.org/1999/xlink">
<g id="graph0" class="graph" transform="scale(1 1) rotate(0) translate(4 220)">
<title>w_029.func_ptr_80170020</title>
<polygon fill="white" stroke="transparent" points="-4,4 -4,-220 1738.43,-220 1738.43,4 -4,4"/>
<!-- w_029.func_ptr_80170020 -->
<g id="node1" class="node">
<title>w_029.func_ptr_80170020</title>
<ellipse fill="red" stroke="black" cx="744.44" cy="-198" rx="133.48" ry="18"/>
<text text-anchor="middle" x="744.44" y="-194.3" font-family="Times,serif" font-size="14.00">w_029.func_ptr_80170020</text>
</g>
<!-- dra.AllocPrimitives -->
<g id="node2" class="node">
<title>dra.AllocPrimitives</title>
<g id="a_node2"><a xlink:href="dra.AllocPrimitives.svg" xlink:title="dra.AllocPrimitives">
<ellipse fill="green" stroke="black" cx="99.44" cy="-18" rx="99.38" ry="18"/>
<text text-anchor="middle" x="99.44" y="-14.3" font-family="Times,serif" font-size="14.00">dra.AllocPrimitives</text>
</a>
</g>
</g>
<!-- w_029.func_ptr_80170020&#45;&gt;dra.AllocPrimitives -->
<g id="edge1" class="edge">
<title>w_029.func_ptr_80170020&#45;&gt;dra.AllocPrimitives</title>
<path fill="none" stroke="black" d="M688.61,-181.59C568.68,-148.5 287.18,-70.81 161.7,-36.18"/>
<polygon fill="black" stroke="black" points="162.43,-32.75 151.86,-33.47 160.57,-39.5 162.43,-32.75"/>
<text text-anchor="middle" x="146.86" y="-37.27" font-family="Times,serif" font-size="14.00">1</text>
</g>
<!-- dra.PlaySfx -->
<g id="node3" class="node">
<title>dra.PlaySfx</title>
<g id="a_node3"><a xlink:href="dra.PlaySfx.svg" xlink:title="dra.PlaySfx">
<ellipse fill="green" stroke="black" cx="281.44" cy="-18" rx="64.19" ry="18"/>
<text text-anchor="middle" x="281.44" y="-14.3" font-family="Times,serif" font-size="14.00">dra.PlaySfx</text>
</a>
</g>
</g>
<!-- w_029.func_ptr_80170020&#45;&gt;dra.PlaySfx -->
<g id="edge2" class="edge">
<title>w_029.func_ptr_80170020&#45;&gt;dra.PlaySfx</title>
<path fill="none" stroke="black" d="M702.54,-180.89C615.77,-147.53 417.05,-71.13 327.13,-36.56"/>
<polygon fill="black" stroke="black" points="328.33,-33.28 317.74,-32.96 325.82,-39.81 328.33,-33.28"/>
<text text-anchor="middle" x="312.74" y="-36.76" font-family="Times,serif" font-size="14.00">2</text>
</g>
<!-- g_api_PlaySfx -->
<g id="node4" class="node">
<title>g_api_PlaySfx</title>
<g id="a_node4"><a xlink:href="g_api_PlaySfx.svg" xlink:title="g_api_PlaySfx">
<ellipse fill="lightblue" stroke="black" cx="438.44" cy="-18" rx="74.99" ry="18"/>
<text text-anchor="middle" x="438.44" y="-14.3" font-family="Times,serif" font-size="14.00">g_api_PlaySfx</text>
</a>
</g>
</g>
<!-- w_029.func_ptr_80170020&#45;&gt;g_api_PlaySfx -->
<g id="edge3" class="edge">
<title>w_029.func_ptr_80170020&#45;&gt;g_api_PlaySfx</title>
<path fill="none" stroke="black" d="M715.93,-180.41C660.04,-147.91 536.2,-75.87 474.64,-40.06"/>
<polygon fill="black" stroke="black" points="476.07,-36.84 465.67,-34.84 472.55,-42.89 476.07,-36.84"/>
<text text-anchor="middle" x="460.67" y="-38.64" font-family="Times,serif" font-size="14.00">2</text>
</g>
<!-- w_029.DecelerateX -->
<g id="node5" class="node">
<title>w_029.DecelerateX</title>
<g id="a_node5"><a xlink:href="w_029.DecelerateX.svg" xlink:title="w_029.DecelerateX">
<ellipse fill="green" stroke="black" cx="631.44" cy="-18" rx="100.18" ry="18"/>
<text text-anchor="middle" x="631.44" y="-14.3" font-family="Times,serif" font-size="14.00">w_029.DecelerateX</text>
</a>
</g>
</g>
<!-- w_029.func_ptr_80170020&#45;&gt;w_029.DecelerateX -->
<g id="edge4" class="edge">
<title>w_029.func_ptr_80170020&#45;&gt;w_029.DecelerateX</title>
<path fill="none" stroke="black" d="M733.61,-179.93C713.69,-148.57 671.18,-81.6 647.76,-44.71"/>
<polygon fill="black" stroke="black" points="650.56,-42.58 642.24,-36.02 644.65,-46.33 650.56,-42.58"/>
<text text-anchor="middle" x="637.24" y="-39.82" font-family="Times,serif" font-size="14.00">1</text>
</g>
<!-- w_029.DestroyEntity -->
<g id="node6" class="node">
<title>w_029.DestroyEntity</title>
<g id="a_node6"><a xlink:href="w_029.DestroyEntity.svg" xlink:title="w_029.DestroyEntity">
<ellipse fill="green" stroke="black" cx="858.44" cy="-18" rx="108.58" ry="18"/>
<text text-anchor="middle" x="858.44" y="-14.3" font-family="Times,serif" font-size="14.00">w_029.DestroyEntity</text>
</a>
</g>
</g>
<!-- w_029.func_ptr_80170020&#45;&gt;w_029.DestroyEntity -->
<g id="edge5" class="edge">
<title>w_029.func_ptr_80170020&#45;&gt;w_029.DestroyEntity</title>
<path fill="none" stroke="black" d="M755.37,-179.93C775.46,-148.57 818.35,-81.6 841.98,-44.71"/>
<polygon fill="black" stroke="black" points="845.1,-46.32 847.54,-36.02 839.2,-42.55 845.1,-46.32"/>
<text text-anchor="middle" x="842.54" y="-39.82" font-family="Times,serif" font-size="14.00">1</text>
</g>
<!-- w_029.DestroyEntityWeapon -->
<g id="node7" class="node">
<title>w_029.DestroyEntityWeapon</title>
<g id="a_node7"><a xlink:href="w_029.DestroyEntityWeapon.svg" xlink:title="w_029.DestroyEntityWeapon">
<ellipse fill="green" stroke="black" cx="1130.44" cy="-18" rx="145.67" ry="18"/>
<text text-anchor="middle" x="1130.44" y="-14.3" font-family="Times,serif" font-size="14.00">w_029.DestroyEntityWeapon</text>
</a>
</g>
</g>
<!-- w_029.func_ptr_80170020&#45;&gt;w_029.DestroyEntityWeapon -->
<g id="edge6" class="edge">
<title>w_029.func_ptr_80170020&#45;&gt;w_029.DestroyEntityWeapon</title>
<path fill="none" stroke="black" d="M780.06,-180.57C850.49,-148.1 1007.44,-75.72 1085.11,-39.91"/>
<polygon fill="black" stroke="black" points="1087.01,-42.88 1094.63,-35.52 1084.08,-36.53 1087.01,-42.88"/>
<text text-anchor="middle" x="1089.63" y="-39.32" font-family="Times,serif" font-size="14.00">1</text>
</g>
<!-- w_029.SetSpeedX -->
<g id="node8" class="node">
<title>w_029.SetSpeedX</title>
<g id="a_node8"><a xlink:href="w_029.SetSpeedX.svg" xlink:title="w_029.SetSpeedX">
<ellipse fill="green" stroke="black" cx="1388.44" cy="-18" rx="94.48" ry="18"/>
<text text-anchor="middle" x="1388.44" y="-14.3" font-family="Times,serif" font-size="14.00">w_029.SetSpeedX</text>
</a>
</g>
</g>
<!-- w_029.func_ptr_80170020&#45;&gt;w_029.SetSpeedX -->
<g id="edge7" class="edge">
<title>w_029.func_ptr_80170020&#45;&gt;w_029.SetSpeedX</title>
<path fill="none" stroke="black" d="M800.19,-181.59C920.23,-148.41 1202.39,-70.42 1327.21,-35.92"/>
<polygon fill="black" stroke="black" points="1328.29,-39.26 1337,-33.22 1326.43,-32.51 1328.29,-39.26"/>
<text text-anchor="middle" x="1332" y="-37.02" font-family="Times,serif" font-size="14.00">1</text>
</g>
<!-- w_029.SetSpriteBank1 -->
<g id="node9" class="node">
<title>w_029.SetSpriteBank1</title>
<g id="a_node9"><a xlink:href="w_029.SetSpriteBank1.svg" xlink:title="w_029.SetSpriteBank1">
<ellipse fill="green" stroke="black" cx="1617.44" cy="-18" rx="116.98" ry="18"/>
<text text-anchor="middle" x="1617.44" y="-14.3" font-family="Times,serif" font-size="14.00">w_029.SetSpriteBank1</text>
</a>
</g>
</g>
<!-- w_029.func_ptr_80170020&#45;&gt;w_029.SetSpriteBank1 -->
<g id="edge8" class="edge">
<title>w_029.func_ptr_80170020&#45;&gt;w_029.SetSpriteBank1</title>
<path fill="none" stroke="black" d="M814.77,-182.66C976.12,-149.76 1371.86,-69.07 1539.92,-34.81"/>
<polygon fill="black" stroke="black" points="1540.83,-38.19 1549.93,-32.76 1539.43,-31.33 1540.83,-38.19"/>
<text text-anchor="middle" x="1544.93" y="-36.56" font-family="Times,serif" font-size="14.00">1</text>
</g>
</g>
</svg>
