<?xml version="1.0" encoding="UTF-8" standalone="no"?>
<!DOCTYPE svg PUBLIC "-//W3C//DTD SVG 1.1//EN"
 "http://www.w3.org/Graphics/SVG/1.1/DTD/svg11.dtd">
<!-- Generated by graphviz version 2.43.0 (0)
 -->
<!-- Title: w_024.func_AC000_8017B6CC Pages: 1 -->
<svg width="2805pt" height="131pt"
 viewBox="0.00 0.00 2805.04 131.00" xmlns="http://www.w3.org/2000/svg" xmlns:xlink="http://www.w3.org/1999/xlink">
<g id="graph0" class="graph" transform="scale(1 1) rotate(0) translate(4 127)">
<title>w_024.func_AC000_8017B6CC</title>
<polygon fill="white" stroke="transparent" points="-4,4 -4,-127 2801.04,-127 2801.04,4 -4,4"/>
<!-- w_024.func_AC000_8017B6CC -->
<g id="node1" class="node">
<title>w_024.func_AC000_8017B6CC</title>
<ellipse fill="red" stroke="black" cx="1481.44" cy="-105" rx="152.97" ry="18"/>
<text text-anchor="middle" x="1481.44" y="-101.3" font-family="Times,serif" font-size="14.00">w_024.func_AC000_8017B6CC</text>
</g>
<!-- dra.AllocPrimitives -->
<g id="node2" class="node">
<title>dra.AllocPrimitives</title>
<g id="a_node2"><a xlink:href="dra.AllocPrimitives.svg" xlink:title="dra.AllocPrimitives">
<ellipse fill="green" stroke="black" cx="99.44" cy="-18" rx="99.38" ry="18"/>
<text text-anchor="middle" x="99.44" y="-14.3" font-family="Times,serif" font-size="14.00">dra.AllocPrimitives</text>
</a>
</g>
</g>
<!-- w_024.func_AC000_8017B6CC&#45;&gt;dra.AllocPrimitives -->
<g id="edge1" class="edge">
<title>w_024.func_AC000_8017B6CC&#45;&gt;dra.AllocPrimitives</title>
<path fill="none" stroke="black" d="M1331.59,-101.27C1093.16,-95.73 613.04,-79.75 208.44,-36 198.97,-34.98 189.07,-33.71 179.26,-32.33"/>
<polygon fill="black" stroke="black" points="179.49,-28.83 169.09,-30.86 178.49,-35.76 179.49,-28.83"/>
<text text-anchor="middle" x="597.44" y="-57.8" font-family="Times,serif" font-size="14.00">1</text>
</g>
<!-- w_024.func_AC000_8017AEE4 -->
<g id="node3" class="node">
<title>w_024.func_AC000_8017AEE4</title>
<g id="a_node3"><a xlink:href="w_024.func_AC000_8017AEE4.svg" xlink:title="w_024.func_AC000_8017AEE4">
<ellipse fill="red" stroke="black" cx="369.44" cy="-18" rx="152.17" ry="18"/>
<text text-anchor="middle" x="369.44" y="-14.3" font-family="Times,serif" font-size="14.00">w_024.func_AC000_8017AEE4</text>
</a>
</g>
</g>
<!-- w_024.func_AC000_8017B6CC&#45;&gt;w_024.func_AC000_8017AEE4 -->
<g id="edge2" class="edge">
<title>w_024.func_AC000_8017B6CC&#45;&gt;w_024.func_AC000_8017AEE4</title>
<path fill="none" stroke="black" d="M1349.02,-95.95C1165.18,-84.45 822.28,-61.83 530.44,-36 516.34,-34.75 501.55,-33.34 486.89,-31.87"/>
<polygon fill="black" stroke="black" points="487.08,-28.37 476.78,-30.84 486.38,-35.33 487.08,-28.37"/>
<text text-anchor="middle" x="927.44" y="-57.8" font-family="Times,serif" font-size="14.00">1</text>
</g>
<!-- w_024.func_AC000_8017AFEC -->
<g id="node4" class="node">
<title>w_024.func_AC000_8017AFEC</title>
<g id="a_node4"><a xlink:href="w_024.func_AC000_8017AFEC.svg" xlink:title="w_024.func_AC000_8017AFEC">
<ellipse fill="red" stroke="black" cx="692.44" cy="-18" rx="152.97" ry="18"/>
<text text-anchor="middle" x="692.44" y="-14.3" font-family="Times,serif" font-size="14.00">w_024.func_AC000_8017AFEC</text>
</a>
</g>
</g>
<!-- w_024.func_AC000_8017B6CC&#45;&gt;w_024.func_AC000_8017AFEC -->
<g id="edge3" class="edge">
<title>w_024.func_AC000_8017B6CC&#45;&gt;w_024.func_AC000_8017AFEC</title>
<path fill="none" stroke="black" d="M1372.98,-92.31C1225.77,-76.46 963.68,-48.22 811.29,-31.8"/>
<polygon fill="black" stroke="black" points="811.28,-28.28 800.96,-30.69 810.53,-35.24 811.28,-28.28"/>
<text text-anchor="middle" x="1139.44" y="-57.8" font-family="Times,serif" font-size="14.00">1</text>
</g>
<!-- w_024.func_AC000_8017B014 -->
<g id="node5" class="node">
<title>w_024.func_AC000_8017B014</title>
<g id="a_node5"><a xlink:href="w_024.func_AC000_8017B014.svg" xlink:title="w_024.func_AC000_8017B014">
<ellipse fill="red" stroke="black" cx="1014.44" cy="-18" rx="150.57" ry="18"/>
<text text-anchor="middle" x="1014.44" y="-14.3" font-family="Times,serif" font-size="14.00">w_024.func_AC000_8017B014</text>
</a>
</g>
</g>
<!-- w_024.func_AC000_8017B6CC&#45;&gt;w_024.func_AC000_8017B014 -->
<g id="edge4" class="edge">
<title>w_024.func_AC000_8017B6CC&#45;&gt;w_024.func_AC000_8017B014</title>
<path fill="none" stroke="black" d="M1402.22,-89.58C1319.37,-74.5 1189.6,-50.88 1103.31,-35.18"/>
<polygon fill="black" stroke="black" points="1103.73,-31.7 1093.27,-33.35 1102.48,-38.58 1103.73,-31.7"/>
<text text-anchor="middle" x="1281.44" y="-57.8" font-family="Times,serif" font-size="14.00">1</text>
</g>
<!-- dra.PlaySfx -->
<g id="node6" class="node">
<title>dra.PlaySfx</title>
<g id="a_node6"><a xlink:href="dra.PlaySfx.svg" xlink:title="dra.PlaySfx">
<ellipse fill="green" stroke="black" cx="1247.44" cy="-18" rx="64.19" ry="18"/>
<text text-anchor="middle" x="1247.44" y="-14.3" font-family="Times,serif" font-size="14.00">dra.PlaySfx</text>
</a>
</g>
</g>
<!-- w_024.func_AC000_8017B6CC&#45;&gt;dra.PlaySfx -->
<g id="edge5" class="edge">
<title>w_024.func_AC000_8017B6CC&#45;&gt;dra.PlaySfx</title>
<path fill="none" stroke="black" d="M1436.6,-87.71C1395.93,-72.94 1336.19,-51.24 1294.77,-36.19"/>
<polygon fill="black" stroke="black" points="1295.77,-32.83 1285.18,-32.71 1293.38,-39.41 1295.77,-32.83"/>
<text text-anchor="middle" x="1384.44" y="-57.8" font-family="Times,serif" font-size="14.00">2</text>
</g>
<!-- w_024.func_AC000_8017AF5C -->
<g id="node7" class="node">
<title>w_024.func_AC000_8017AF5C</title>
<g id="a_node7"><a xlink:href="w_024.func_AC000_8017AF5C.svg" xlink:title="w_024.func_AC000_8017AF5C">
<ellipse fill="red" stroke="black" cx="1481.44" cy="-18" rx="151.37" ry="18"/>
<text text-anchor="middle" x="1481.44" y="-14.3" font-family="Times,serif" font-size="14.00">w_024.func_AC000_8017AF5C</text>
</a>
</g>
</g>
<!-- w_024.func_AC000_8017B6CC&#45;&gt;w_024.func_AC000_8017AF5C -->
<g id="edge6" class="edge">
<title>w_024.func_AC000_8017B6CC&#45;&gt;w_024.func_AC000_8017AF5C</title>
<path fill="none" stroke="black" d="M1481.44,-86.8C1481.44,-75.16 1481.44,-59.55 1481.44,-46.24"/>
<polygon fill="black" stroke="black" points="1484.94,-46.18 1481.44,-36.18 1477.94,-46.18 1484.94,-46.18"/>
<text text-anchor="middle" x="1486.44" y="-57.8" font-family="Times,serif" font-size="14.00">1</text>
</g>
<!-- dra.func_80102CD8 -->
<g id="node8" class="node">
<title>dra.func_80102CD8</title>
<g id="a_node8"><a xlink:href="dra.func_80102CD8.svg" xlink:title="dra.func_80102CD8">
<ellipse fill="green" stroke="black" cx="1753.44" cy="-18" rx="102.88" ry="18"/>
<text text-anchor="middle" x="1753.44" y="-14.3" font-family="Times,serif" font-size="14.00">dra.func_80102CD8</text>
</a>
</g>
</g>
<!-- w_024.func_AC000_8017B6CC&#45;&gt;dra.func_80102CD8 -->
<g id="edge7" class="edge">
<title>w_024.func_AC000_8017B6CC&#45;&gt;dra.func_80102CD8</title>
<path fill="none" stroke="black" d="M1532.6,-88.01C1578.96,-73.53 1647.22,-52.19 1695.56,-37.09"/>
<polygon fill="black" stroke="black" points="1696.75,-40.38 1705.25,-34.06 1694.66,-33.7 1696.75,-40.38"/>
<text text-anchor="middle" x="1639.44" y="-57.8" font-family="Times,serif" font-size="14.00">1</text>
</g>
<!-- dra.func_8011AAFC -->
<g id="node9" class="node">
<title>dra.func_8011AAFC</title>
<g id="a_node9"><a xlink:href="dra.func_8011AAFC.svg" xlink:title="dra.func_8011AAFC">
<ellipse fill="green" stroke="black" cx="1976.44" cy="-18" rx="102.88" ry="18"/>
<text text-anchor="middle" x="1976.44" y="-14.3" font-family="Times,serif" font-size="14.00">dra.func_8011AAFC</text>
</a>
</g>
</g>
<!-- w_024.func_AC000_8017B6CC&#45;&gt;dra.func_8011AAFC -->
<g id="edge8" class="edge">
<title>w_024.func_AC000_8017B6CC&#45;&gt;dra.func_8011AAFC</title>
<path fill="none" stroke="black" d="M1564.01,-89.82C1656.15,-74 1804.24,-48.57 1895.64,-32.87"/>
<polygon fill="black" stroke="black" points="1896.42,-36.29 1905.68,-31.15 1895.23,-29.39 1896.42,-36.29"/>
<text text-anchor="middle" x="1764.44" y="-57.8" font-family="Times,serif" font-size="14.00">1</text>
</g>
<!-- w_024.func_AC000_8017B084 -->
<g id="node10" class="node">
<title>w_024.func_AC000_8017B084</title>
<g id="a_node10"><a xlink:href="w_024.func_AC000_8017B084.svg" xlink:title="w_024.func_AC000_8017B084">
<ellipse fill="red" stroke="black" cx="2247.44" cy="-18" rx="150.57" ry="18"/>
<text text-anchor="middle" x="2247.44" y="-14.3" font-family="Times,serif" font-size="14.00">w_024.func_AC000_8017B084</text>
</a>
</g>
</g>
<!-- w_024.func_AC000_8017B6CC&#45;&gt;w_024.func_AC000_8017B084 -->
<g id="edge9" class="edge">
<title>w_024.func_AC000_8017B6CC&#45;&gt;w_024.func_AC000_8017B084</title>
<path fill="none" stroke="black" d="M1588.35,-92.14C1731.23,-76.28 1983.5,-48.29 2131.03,-31.92"/>
<polygon fill="black" stroke="black" points="2131.48,-35.39 2141.04,-30.81 2130.71,-28.43 2131.48,-35.39"/>
<text text-anchor="middle" x="1915.44" y="-57.8" font-family="Times,serif" font-size="14.00">1</text>
</g>
<!-- w_024.func_AC000_8017ADE0 -->
<g id="node11" class="node">
<title>w_024.func_AC000_8017ADE0</title>
<g id="a_node11"><a xlink:href="w_024.func_AC000_8017ADE0.svg" xlink:title="w_024.func_AC000_8017ADE0">
<ellipse fill="red" stroke="black" cx="2569.44" cy="-18" rx="152.97" ry="18"/>
<text text-anchor="middle" x="2569.44" y="-14.3" font-family="Times,serif" font-size="14.00">w_024.func_AC000_8017ADE0</text>
</a>
</g>
</g>
<!-- w_024.func_AC000_8017B6CC&#45;&gt;w_024.func_AC000_8017ADE0 -->
<g id="edge10" class="edge">
<title>w_024.func_AC000_8017B6CC&#45;&gt;w_024.func_AC000_8017ADE0</title>
<path fill="none" stroke="black" d="M1612.28,-95.69C1791.73,-83.99 2124.25,-61.25 2407.44,-36 2421.63,-34.73 2436.51,-33.31 2451.25,-31.84"/>
<polygon fill="black" stroke="black" points="2451.83,-35.29 2461.43,-30.81 2451.13,-28.33 2451.83,-35.29"/>
<text text-anchor="middle" x="2184.44" y="-57.8" font-family="Times,serif" font-size="14.00">1</text>
</g>
<!-- rsin -->
<g id="node12" class="node">
<title>rsin</title>
<g id="a_node12"><a xlink:href="rsin.svg" xlink:title="rsin">
<ellipse fill="lightblue" stroke="black" cx="2768.44" cy="-18" rx="28.7" ry="18"/>
<text text-anchor="middle" x="2768.44" y="-14.3" font-family="Times,serif" font-size="14.00">rsin</text>
</a>
</g>
</g>
<!-- w_024.func_AC000_8017B6CC&#45;&gt;rsin -->
<g id="edge11" class="edge">
<title>w_024.func_AC000_8017B6CC&#45;&gt;rsin</title>
<path fill="none" stroke="black" d="M1633.22,-102.96C1919.28,-99.82 2527.76,-87.14 2731.44,-36 2733.61,-35.45 2735.82,-34.78 2738.01,-34.03"/>
<polygon fill="black" stroke="black" points="2739.42,-37.23 2747.41,-30.28 2736.82,-30.73 2739.42,-37.23"/>
<text text-anchor="middle" x="2636.44" y="-57.8" font-family="Times,serif" font-size="14.00">6</text>
</g>
</g>
</svg>
