<?xml version="1.0" encoding="UTF-8" standalone="no"?>
<!DOCTYPE svg PUBLIC "-//W3C//DTD SVG 1.1//EN"
 "http://www.w3.org/Graphics/SVG/1.1/DTD/svg11.dtd">
<!-- Generated by graphviz version 2.43.0 (0)
 -->
<!-- Title: w_028.func_C8000_8017AF94 Pages: 1 -->
<svg width="1178pt" height="131pt"
 viewBox="0.00 0.00 1178.08 131.00" xmlns="http://www.w3.org/2000/svg" xmlns:xlink="http://www.w3.org/1999/xlink">
<g id="graph0" class="graph" transform="scale(1 1) rotate(0) translate(4 127)">
<title>w_028.func_C8000_8017AF94</title>
<polygon fill="white" stroke="transparent" points="-4,4 -4,-127 1174.08,-127 1174.08,4 -4,4"/>
<!-- w_028.func_C8000_8017AF94 -->
<g id="node1" class="node">
<title>w_028.func_C8000_8017AF94</title>
<ellipse fill="red" stroke="black" cx="631.44" cy="-105" rx="150.27" ry="18"/>
<text text-anchor="middle" x="631.44" y="-101.3" font-family="Times,serif" font-size="14.00">w_028.func_C8000_8017AF94</text>
</g>
<!-- w_028.func_C8000_8017ACF8 -->
<g id="node2" class="node">
<title>w_028.func_C8000_8017ACF8</title>
<g id="a_node2"><a xlink:href="w_028.func_C8000_8017ACF8.svg" xlink:title="w_028.func_C8000_8017ACF8">
<ellipse fill="red" stroke="black" cx="151.44" cy="-18" rx="151.37" ry="18"/>
<text text-anchor="middle" x="151.44" y="-14.3" font-family="Times,serif" font-size="14.00">w_028.func_C8000_8017ACF8</text>
</a>
</g>
</g>
<!-- w_028.func_C8000_8017AF94&#45;&gt;w_028.func_C8000_8017ACF8 -->
<g id="edge1" class="edge">
<title>w_028.func_C8000_8017AF94&#45;&gt;w_028.func_C8000_8017ACF8</title>
<path fill="none" stroke="black" d="M551.1,-89.77C465.78,-74.66 331.2,-50.83 242.13,-35.06"/>
<polygon fill="black" stroke="black" points="242.5,-31.57 232.04,-33.27 241.28,-38.46 242.5,-31.57"/>
<text text-anchor="middle" x="425.44" y="-57.8" font-family="Times,serif" font-size="14.00">1</text>
</g>
<!-- w_028.func_C8000_8017AE98 -->
<g id="node3" class="node">
<title>w_028.func_C8000_8017AE98</title>
<g id="a_node3"><a xlink:href="w_028.func_C8000_8017AE98.svg" xlink:title="w_028.func_C8000_8017AE98">
<ellipse fill="red" stroke="black" cx="471.44" cy="-18" rx="150.57" ry="18"/>
<text text-anchor="middle" x="471.44" y="-14.3" font-family="Times,serif" font-size="14.00">w_028.func_C8000_8017AE98</text>
</a>
</g>
</g>
<!-- w_028.func_C8000_8017AF94&#45;&gt;w_028.func_C8000_8017AE98 -->
<g id="edge2" class="edge">
<title>w_028.func_C8000_8017AF94&#45;&gt;w_028.func_C8000_8017AE98</title>
<path fill="none" stroke="black" d="M599.83,-87.21C574.54,-73.78 538.93,-54.86 511.62,-40.35"/>
<polygon fill="black" stroke="black" points="513.18,-37.21 502.71,-35.61 509.9,-43.4 513.18,-37.21"/>
<text text-anchor="middle" x="566.44" y="-57.8" font-family="Times,serif" font-size="14.00">1</text>
</g>
<!-- w_028.func_C8000_8017ABF4 -->
<g id="node4" class="node">
<title>w_028.func_C8000_8017ABF4</title>
<g id="a_node4"><a xlink:href="w_028.func_C8000_8017ABF4.svg" xlink:title="w_028.func_C8000_8017ABF4">
<ellipse fill="red" stroke="black" cx="791.44" cy="-18" rx="151.37" ry="18"/>
<text text-anchor="middle" x="791.44" y="-14.3" font-family="Times,serif" font-size="14.00">w_028.func_C8000_8017ABF4</text>
</a>
</g>
</g>
<!-- w_028.func_C8000_8017AF94&#45;&gt;w_028.func_C8000_8017ABF4 -->
<g id="edge3" class="edge">
<title>w_028.func_C8000_8017AF94&#45;&gt;w_028.func_C8000_8017ABF4</title>
<path fill="none" stroke="black" d="M663.05,-87.21C688.33,-73.78 723.94,-54.86 751.25,-40.35"/>
<polygon fill="black" stroke="black" points="752.97,-43.4 760.16,-35.61 749.69,-37.21 752.97,-43.4"/>
<text text-anchor="middle" x="726.44" y="-57.8" font-family="Times,serif" font-size="14.00">1</text>
</g>
<!-- dra.func_8010DBFC -->
<g id="node5" class="node">
<title>dra.func_8010DBFC</title>
<g id="a_node5"><a xlink:href="dra.func_8010DBFC.svg" xlink:title="dra.func_8010DBFC">
<ellipse fill="red" stroke="black" cx="1065.44" cy="-18" rx="104.78" ry="18"/>
<text text-anchor="middle" x="1065.44" y="-14.3" font-family="Times,serif" font-size="14.00">dra.func_8010DBFC</text>
</a>
</g>
</g>
<!-- w_028.func_C8000_8017AF94&#45;&gt;dra.func_8010DBFC -->
<g id="edge4" class="edge">
<title>w_028.func_C8000_8017AF94&#45;&gt;dra.func_8010DBFC</title>
<path fill="none" stroke="black" d="M706.54,-89.29C785.64,-73.8 909.55,-49.53 989.11,-33.95"/>
<polygon fill="black" stroke="black" points="989.93,-37.36 999.07,-32 988.58,-30.49 989.93,-37.36"/>
<text text-anchor="middle" x="879.44" y="-57.8" font-family="Times,serif" font-size="14.00">1</text>
</g>
</g>
</svg>
