<?xml version="1.0" encoding="UTF-8" standalone="no"?>
<!DOCTYPE svg PUBLIC "-//W3C//DTD SVG 1.1//EN"
 "http://www.w3.org/Graphics/SVG/1.1/DTD/svg11.dtd">
<!-- Generated by graphviz version 2.43.0 (0)
 -->
<!-- Title: w_027.func_C1000_8017AD54 Pages: 1 -->
<svg width="1592pt" height="218pt"
 viewBox="0.00 0.00 1592.22 218.00" xmlns="http://www.w3.org/2000/svg" xmlns:xlink="http://www.w3.org/1999/xlink">
<g id="graph0" class="graph" transform="scale(1 1) rotate(0) translate(4 214)">
<title>w_027.func_C1000_8017AD54</title>
<polygon fill="white" stroke="transparent" points="-4,4 -4,-214 1588.22,-214 1588.22,4 -4,4"/>
<!-- w_027.func_C1000_8017AD54 -->
<g id="node1" class="node">
<title>w_027.func_C1000_8017AD54</title>
<ellipse fill="red" stroke="black" cx="797.09" cy="-105" rx="151.37" ry="18"/>
<text text-anchor="middle" x="797.09" y="-101.3" font-family="Times,serif" font-size="14.00">w_027.func_C1000_8017AD54</text>
</g>
<!-- dra.FreePrimitives -->
<g id="node2" class="node">
<title>dra.FreePrimitives</title>
<g id="a_node2"><a xlink:href="dra.FreePrimitives.svg" xlink:title="dra.FreePrimitives">
<ellipse fill="green" stroke="black" cx="797.09" cy="-18" rx="98.58" ry="18"/>
<text text-anchor="middle" x="797.09" y="-14.3" font-family="Times,serif" font-size="14.00">dra.FreePrimitives</text>
</a>
</g>
</g>
<!-- w_027.func_C1000_8017AD54&#45;&gt;dra.FreePrimitives -->
<g id="edge1" class="edge">
<title>w_027.func_C1000_8017AD54&#45;&gt;dra.FreePrimitives</title>
<path fill="none" stroke="black" d="M797.09,-86.8C797.09,-75.16 797.09,-59.55 797.09,-46.24"/>
<polygon fill="black" stroke="black" points="800.59,-46.18 797.09,-36.18 793.59,-46.18 800.59,-46.18"/>
<text text-anchor="middle" x="802.09" y="-57.8" font-family="Times,serif" font-size="14.00">1</text>
</g>
<!-- w_027.func_C1000_8017C5CC -->
<g id="node3" class="node">
<title>w_027.func_C1000_8017C5CC</title>
<g id="a_node3"><a xlink:href="w_027.func_C1000_8017C5CC.svg" xlink:title="w_027.func_C1000_8017C5CC">
<ellipse fill="red" stroke="black" cx="152.09" cy="-192" rx="152.17" ry="18"/>
<text text-anchor="middle" x="152.09" y="-188.3" font-family="Times,serif" font-size="14.00">w_027.func_C1000_8017C5CC</text>
</a>
</g>
</g>
<!-- w_027.func_C1000_8017C5CC&#45;&gt;w_027.func_C1000_8017AD54 -->
<g id="edge2" class="edge">
<title>w_027.func_C1000_8017C5CC&#45;&gt;w_027.func_C1000_8017AD54</title>
<path fill="none" stroke="black" d="M249.7,-178.14C368.05,-162.54 566.85,-136.34 689.51,-120.18"/>
<polygon fill="black" stroke="black" points="690.22,-123.61 699.68,-118.84 689.3,-116.67 690.22,-123.61"/>
<text text-anchor="middle" x="519.09" y="-144.8" font-family="Times,serif" font-size="14.00">2</text>
</g>
<!-- w_027.func_C1000_8017BBBC -->
<g id="node4" class="node">
<title>w_027.func_C1000_8017BBBC</title>
<g id="a_node4"><a xlink:href="w_027.func_C1000_8017BBBC.svg" xlink:title="w_027.func_C1000_8017BBBC">
<ellipse fill="red" stroke="black" cx="475.09" cy="-192" rx="153.27" ry="18"/>
<text text-anchor="middle" x="475.09" y="-188.3" font-family="Times,serif" font-size="14.00">w_027.func_C1000_8017BBBC</text>
</a>
</g>
</g>
<!-- w_027.func_C1000_8017BBBC&#45;&gt;w_027.func_C1000_8017AD54 -->
<g id="edge3" class="edge">
<title>w_027.func_C1000_8017BBBC&#45;&gt;w_027.func_C1000_8017AD54</title>
<path fill="none" stroke="black" d="M534.52,-175.31C589.32,-160.85 670.65,-139.38 728.25,-124.17"/>
<polygon fill="black" stroke="black" points="729.22,-127.53 738,-121.6 727.44,-120.77 729.22,-127.53"/>
<text text-anchor="middle" x="661.09" y="-144.8" font-family="Times,serif" font-size="14.00">1</text>
</g>
<!-- w_027.func_C1000_8017B1F8 -->
<g id="node5" class="node">
<title>w_027.func_C1000_8017B1F8</title>
<g id="a_node5"><a xlink:href="w_027.func_C1000_8017B1F8.svg" xlink:title="w_027.func_C1000_8017B1F8">
<ellipse fill="red" stroke="black" cx="797.09" cy="-192" rx="150.57" ry="18"/>
<text text-anchor="middle" x="797.09" y="-188.3" font-family="Times,serif" font-size="14.00">w_027.func_C1000_8017B1F8</text>
</a>
</g>
</g>
<!-- w_027.func_C1000_8017B1F8&#45;&gt;w_027.func_C1000_8017AD54 -->
<g id="edge4" class="edge">
<title>w_027.func_C1000_8017B1F8&#45;&gt;w_027.func_C1000_8017AD54</title>
<path fill="none" stroke="black" d="M797.09,-173.8C797.09,-162.16 797.09,-146.55 797.09,-133.24"/>
<polygon fill="black" stroke="black" points="800.59,-133.18 797.09,-123.18 793.59,-133.18 800.59,-133.18"/>
<text text-anchor="middle" x="802.09" y="-144.8" font-family="Times,serif" font-size="14.00">1</text>
</g>
<!-- w_027.func_C1000_8017AF88 -->
<g id="node6" class="node">
<title>w_027.func_C1000_8017AF88</title>
<g id="a_node6"><a xlink:href="w_027.func_C1000_8017AF88.svg" xlink:title="w_027.func_C1000_8017AF88">
<ellipse fill="red" stroke="black" cx="1116.09" cy="-192" rx="150.27" ry="18"/>
<text text-anchor="middle" x="1116.09" y="-188.3" font-family="Times,serif" font-size="14.00">w_027.func_C1000_8017AF88</text>
</a>
</g>
</g>
<!-- w_027.func_C1000_8017AF88&#45;&gt;w_027.func_C1000_8017AD54 -->
<g id="edge5" class="edge">
<title>w_027.func_C1000_8017AF88&#45;&gt;w_027.func_C1000_8017AD54</title>
<path fill="none" stroke="black" d="M1057.58,-175.41C1003.34,-160.96 922.63,-139.45 865.44,-124.21"/>
<polygon fill="black" stroke="black" points="866.33,-120.83 855.76,-121.64 864.53,-127.59 866.33,-120.83"/>
<text text-anchor="middle" x="981.09" y="-144.8" font-family="Times,serif" font-size="14.00">2</text>
</g>
<!-- w_027.func_C1000_8017B638 -->
<g id="node7" class="node">
<title>w_027.func_C1000_8017B638</title>
<g id="a_node7"><a xlink:href="w_027.func_C1000_8017B638.svg" xlink:title="w_027.func_C1000_8017B638">
<ellipse fill="red" stroke="black" cx="1434.09" cy="-192" rx="150.27" ry="18"/>
<text text-anchor="middle" x="1434.09" y="-188.3" font-family="Times,serif" font-size="14.00">w_027.func_C1000_8017B638</text>
</a>
</g>
</g>
<!-- w_027.func_C1000_8017B638&#45;&gt;w_027.func_C1000_8017AD54 -->
<g id="edge6" class="edge">
<title>w_027.func_C1000_8017B638&#45;&gt;w_027.func_C1000_8017AD54</title>
<path fill="none" stroke="black" d="M1337.69,-178.14C1220.97,-162.56 1025.03,-136.42 903.85,-120.25"/>
<polygon fill="black" stroke="black" points="904.19,-116.76 893.81,-118.91 903.26,-123.7 904.19,-116.76"/>
<text text-anchor="middle" x="1159.09" y="-144.8" font-family="Times,serif" font-size="14.00">1</text>
</g>
</g>
</svg>
