<?xml version="1.0" encoding="UTF-8" standalone="no"?>
<!DOCTYPE svg PUBLIC "-//W3C//DTD SVG 1.1//EN"
 "http://www.w3.org/Graphics/SVG/1.1/DTD/svg11.dtd">
<!-- Generated by graphviz version 2.43.0 (0)
 -->
<!-- Title: w_028.func_C8000_8017ABF4 Pages: 1 -->
<svg width="1268pt" height="218pt"
 viewBox="0.00 0.00 1267.92 218.00" xmlns="http://www.w3.org/2000/svg" xmlns:xlink="http://www.w3.org/1999/xlink">
<g id="graph0" class="graph" transform="scale(1 1) rotate(0) translate(4 214)">
<title>w_028.func_C8000_8017ABF4</title>
<polygon fill="white" stroke="transparent" points="-4,4 -4,-214 1263.92,-214 1263.92,4 -4,4"/>
<!-- w_028.func_C8000_8017ABF4 -->
<g id="node1" class="node">
<title>w_028.func_C8000_8017ABF4</title>
<ellipse fill="red" stroke="black" cx="629.79" cy="-105" rx="151.37" ry="18"/>
<text text-anchor="middle" x="629.79" y="-101.3" font-family="Times,serif" font-size="14.00">w_028.func_C8000_8017ABF4</text>
</g>
<!-- dra.FreePrimitives -->
<g id="node2" class="node">
<title>dra.FreePrimitives</title>
<g id="a_node2"><a xlink:href="dra.FreePrimitives.svg" xlink:title="dra.FreePrimitives">
<ellipse fill="green" stroke="black" cx="629.79" cy="-18" rx="98.58" ry="18"/>
<text text-anchor="middle" x="629.79" y="-14.3" font-family="Times,serif" font-size="14.00">dra.FreePrimitives</text>
</a>
</g>
</g>
<!-- w_028.func_C8000_8017ABF4&#45;&gt;dra.FreePrimitives -->
<g id="edge1" class="edge">
<title>w_028.func_C8000_8017ABF4&#45;&gt;dra.FreePrimitives</title>
<path fill="none" stroke="black" d="M629.79,-86.8C629.79,-75.16 629.79,-59.55 629.79,-46.24"/>
<polygon fill="black" stroke="black" points="633.29,-46.18 629.79,-36.18 626.29,-46.18 633.29,-46.18"/>
<text text-anchor="middle" x="634.79" y="-57.8" font-family="Times,serif" font-size="14.00">1</text>
</g>
<!-- w_028.func_C8000_8017AE28 -->
<g id="node3" class="node">
<title>w_028.func_C8000_8017AE28</title>
<g id="a_node3"><a xlink:href="w_028.func_C8000_8017AE28.svg" xlink:title="w_028.func_C8000_8017AE28">
<ellipse fill="red" stroke="black" cx="150.79" cy="-192" rx="150.57" ry="18"/>
<text text-anchor="middle" x="150.79" y="-188.3" font-family="Times,serif" font-size="14.00">w_028.func_C8000_8017AE28</text>
</a>
</g>
</g>
<!-- w_028.func_C8000_8017AE28&#45;&gt;w_028.func_C8000_8017ABF4 -->
<g id="edge2" class="edge">
<title>w_028.func_C8000_8017AE28&#45;&gt;w_028.func_C8000_8017ABF4</title>
<path fill="none" stroke="black" d="M231.23,-176.72C316.29,-161.63 450.2,-137.87 538.99,-122.11"/>
<polygon fill="black" stroke="black" points="539.81,-125.52 549.05,-120.33 538.59,-118.63 539.81,-125.52"/>
<text text-anchor="middle" x="424.79" y="-144.8" font-family="Times,serif" font-size="14.00">2</text>
</g>
<!-- w_028.func_C8000_8017C318 -->
<g id="node4" class="node">
<title>w_028.func_C8000_8017C318</title>
<g id="a_node4"><a xlink:href="w_028.func_C8000_8017C318.svg" xlink:title="w_028.func_C8000_8017C318">
<ellipse fill="red" stroke="black" cx="469.79" cy="-192" rx="150.27" ry="18"/>
<text text-anchor="middle" x="469.79" y="-188.3" font-family="Times,serif" font-size="14.00">w_028.func_C8000_8017C318</text>
</a>
</g>
</g>
<!-- w_028.func_C8000_8017C318&#45;&gt;w_028.func_C8000_8017ABF4 -->
<g id="edge3" class="edge">
<title>w_028.func_C8000_8017C318&#45;&gt;w_028.func_C8000_8017ABF4</title>
<path fill="none" stroke="black" d="M501.4,-174.21C526.68,-160.78 562.29,-141.86 589.6,-127.35"/>
<polygon fill="black" stroke="black" points="591.32,-130.4 598.51,-122.61 588.04,-124.21 591.32,-130.4"/>
<text text-anchor="middle" x="564.79" y="-144.8" font-family="Times,serif" font-size="14.00">1</text>
</g>
<!-- w_028.func_C8000_8017B4D8 -->
<g id="node5" class="node">
<title>w_028.func_C8000_8017B4D8</title>
<g id="a_node5"><a xlink:href="w_028.func_C8000_8017B4D8.svg" xlink:title="w_028.func_C8000_8017B4D8">
<ellipse fill="red" stroke="black" cx="789.79" cy="-192" rx="151.37" ry="18"/>
<text text-anchor="middle" x="789.79" y="-188.3" font-family="Times,serif" font-size="14.00">w_028.func_C8000_8017B4D8</text>
</a>
</g>
</g>
<!-- w_028.func_C8000_8017B4D8&#45;&gt;w_028.func_C8000_8017ABF4 -->
<g id="edge4" class="edge">
<title>w_028.func_C8000_8017B4D8&#45;&gt;w_028.func_C8000_8017ABF4</title>
<path fill="none" stroke="black" d="M758.18,-174.21C732.89,-160.78 697.28,-141.86 669.97,-127.35"/>
<polygon fill="black" stroke="black" points="671.53,-124.21 661.06,-122.61 668.25,-130.4 671.53,-124.21"/>
<text text-anchor="middle" x="724.79" y="-144.8" font-family="Times,serif" font-size="14.00">1</text>
</g>
<!-- w_028.func_C8000_8017AF94 -->
<g id="node6" class="node">
<title>w_028.func_C8000_8017AF94</title>
<g id="a_node6"><a xlink:href="w_028.func_C8000_8017AF94.svg" xlink:title="w_028.func_C8000_8017AF94">
<ellipse fill="red" stroke="black" cx="1109.79" cy="-192" rx="150.27" ry="18"/>
<text text-anchor="middle" x="1109.79" y="-188.3" font-family="Times,serif" font-size="14.00">w_028.func_C8000_8017AF94</text>
</a>
</g>
</g>
<!-- w_028.func_C8000_8017AF94&#45;&gt;w_028.func_C8000_8017ABF4 -->
<g id="edge5" class="edge">
<title>w_028.func_C8000_8017AF94&#45;&gt;w_028.func_C8000_8017ABF4</title>
<path fill="none" stroke="black" d="M1029.45,-176.77C944.13,-161.66 809.55,-137.83 720.48,-122.06"/>
<polygon fill="black" stroke="black" points="720.85,-118.57 710.39,-120.27 719.63,-125.46 720.85,-118.57"/>
<text text-anchor="middle" x="903.79" y="-144.8" font-family="Times,serif" font-size="14.00">1</text>
</g>
</g>
</svg>
