<?xml version="1.0" encoding="UTF-8" standalone="no"?>
<!DOCTYPE svg PUBLIC "-//W3C//DTD SVG 1.1//EN"
 "http://www.w3.org/Graphics/SVG/1.1/DTD/svg11.dtd">
<!-- Generated by graphviz version 2.43.0 (0)
 -->
<!-- Title: w_030.func_D6000_8017C87C Pages: 1 -->
<svg width="1644pt" height="131pt"
 viewBox="0.00 0.00 1644.43 131.00" xmlns="http://www.w3.org/2000/svg" xmlns:xlink="http://www.w3.org/1999/xlink">
<g id="graph0" class="graph" transform="scale(1 1) rotate(0) translate(4 127)">
<title>w_030.func_D6000_8017C87C</title>
<polygon fill="white" stroke="transparent" points="-4,4 -4,-127 1640.43,-127 1640.43,4 -4,4"/>
<!-- w_030.func_D6000_8017C87C -->
<g id="node1" class="node">
<title>w_030.func_D6000_8017C87C</title>
<ellipse fill="red" stroke="black" cx="997.74" cy="-105" rx="151.37" ry="18"/>
<text text-anchor="middle" x="997.74" y="-101.3" font-family="Times,serif" font-size="14.00">w_030.func_D6000_8017C87C</text>
</g>
<!-- w_030.func_D6000_8017A6DC -->
<g id="node2" class="node">
<title>w_030.func_D6000_8017A6DC</title>
<g id="a_node2"><a xlink:href="w_030.func_D6000_8017A6DC.svg" xlink:title="w_030.func_D6000_8017A6DC">
<ellipse fill="red" stroke="black" cx="152.74" cy="-18" rx="152.97" ry="18"/>
<text text-anchor="middle" x="152.74" y="-14.3" font-family="Times,serif" font-size="14.00">w_030.func_D6000_8017A6DC</text>
</a>
</g>
</g>
<!-- w_030.func_D6000_8017C87C&#45;&gt;w_030.func_D6000_8017A6DC -->
<g id="edge1" class="edge">
<title>w_030.func_D6000_8017C87C&#45;&gt;w_030.func_D6000_8017A6DC</title>
<path fill="none" stroke="black" d="M885.02,-92.96C749.6,-79.66 515.52,-56.53 314.74,-36 301.15,-34.61 286.93,-33.14 272.8,-31.67"/>
<polygon fill="black" stroke="black" points="272.84,-28.16 262.53,-30.6 272.11,-35.12 272.84,-28.16"/>
<text text-anchor="middle" x="638.74" y="-57.8" font-family="Times,serif" font-size="14.00">2</text>
</g>
<!-- w_030.func_D6000_8017A8C0 -->
<g id="node3" class="node">
<title>w_030.func_D6000_8017A8C0</title>
<g id="a_node3"><a xlink:href="w_030.func_D6000_8017A8C0.svg" xlink:title="w_030.func_D6000_8017A8C0">
<ellipse fill="red" stroke="black" cx="474.74" cy="-18" rx="151.37" ry="18"/>
<text text-anchor="middle" x="474.74" y="-14.3" font-family="Times,serif" font-size="14.00">w_030.func_D6000_8017A8C0</text>
</a>
</g>
</g>
<!-- w_030.func_D6000_8017C87C&#45;&gt;w_030.func_D6000_8017A8C0 -->
<g id="edge2" class="edge">
<title>w_030.func_D6000_8017C87C&#45;&gt;w_030.func_D6000_8017A8C0</title>
<path fill="none" stroke="black" d="M912.25,-90.11C818.31,-74.84 667.8,-50.38 570.1,-34.5"/>
<polygon fill="black" stroke="black" points="570.66,-31.04 560.23,-32.89 569.54,-37.95 570.66,-31.04"/>
<text text-anchor="middle" x="772.74" y="-57.8" font-family="Times,serif" font-size="14.00">1</text>
</g>
<!-- dra.func_80118894 -->
<g id="node4" class="node">
<title>dra.func_80118894</title>
<g id="a_node4"><a xlink:href="dra.func_80118894.svg" xlink:title="dra.func_80118894">
<ellipse fill="green" stroke="black" cx="744.74" cy="-18" rx="100.98" ry="18"/>
<text text-anchor="middle" x="744.74" y="-14.3" font-family="Times,serif" font-size="14.00">dra.func_80118894</text>
</a>
</g>
</g>
<!-- w_030.func_D6000_8017C87C&#45;&gt;dra.func_80118894 -->
<g id="edge3" class="edge">
<title>w_030.func_D6000_8017C87C&#45;&gt;dra.func_80118894</title>
<path fill="none" stroke="black" d="M949.85,-87.91C907.01,-73.52 844.24,-52.43 799.43,-37.38"/>
<polygon fill="black" stroke="black" points="800.47,-34.03 789.87,-34.17 798.24,-40.67 800.47,-34.03"/>
<text text-anchor="middle" x="891.74" y="-57.8" font-family="Times,serif" font-size="14.00">1</text>
</g>
<!-- FntPrint -->
<g id="node5" class="node">
<title>FntPrint</title>
<g id="a_node5"><a xlink:href="FntPrint.svg" xlink:title="FntPrint">
<ellipse fill="lightblue" stroke="black" cx="913.74" cy="-18" rx="50.09" ry="18"/>
<text text-anchor="middle" x="913.74" y="-14.3" font-family="Times,serif" font-size="14.00">FntPrint</text>
</a>
</g>
</g>
<!-- w_030.func_D6000_8017C87C&#45;&gt;FntPrint -->
<g id="edge4" class="edge">
<title>w_030.func_D6000_8017C87C&#45;&gt;FntPrint</title>
<path fill="none" stroke="black" d="M980.74,-86.8C968.2,-74.11 950.98,-56.69 937.15,-42.69"/>
<polygon fill="black" stroke="black" points="939.37,-39.96 929.85,-35.31 934.39,-44.88 939.37,-39.96"/>
<text text-anchor="middle" x="966.74" y="-57.8" font-family="Times,serif" font-size="14.00">1</text>
</g>
<!-- dra.func_80134714 -->
<g id="node6" class="node">
<title>dra.func_80134714</title>
<g id="a_node6"><a xlink:href="dra.func_80134714.svg" xlink:title="dra.func_80134714">
<ellipse fill="green" stroke="black" cx="1082.74" cy="-18" rx="100.98" ry="18"/>
<text text-anchor="middle" x="1082.74" y="-14.3" font-family="Times,serif" font-size="14.00">dra.func_80134714</text>
</a>
</g>
</g>
<!-- w_030.func_D6000_8017C87C&#45;&gt;dra.func_80134714 -->
<g id="edge5" class="edge">
<title>w_030.func_D6000_8017C87C&#45;&gt;dra.func_80134714</title>
<path fill="none" stroke="black" d="M1014.94,-86.8C1027.46,-74.27 1044.6,-57.14 1058.51,-43.23"/>
<polygon fill="black" stroke="black" points="1061.25,-45.43 1065.85,-35.89 1056.31,-40.48 1061.25,-45.43"/>
<text text-anchor="middle" x="1050.74" y="-57.8" font-family="Times,serif" font-size="14.00">1</text>
</g>
<!-- dra.PlaySfx -->
<g id="node7" class="node">
<title>dra.PlaySfx</title>
<g id="a_node7"><a xlink:href="dra.PlaySfx.svg" xlink:title="dra.PlaySfx">
<ellipse fill="green" stroke="black" cx="1265.74" cy="-18" rx="64.19" ry="18"/>
<text text-anchor="middle" x="1265.74" y="-14.3" font-family="Times,serif" font-size="14.00">dra.PlaySfx</text>
</a>
</g>
</g>
<!-- w_030.func_D6000_8017C87C&#45;&gt;dra.PlaySfx -->
<g id="edge6" class="edge">
<title>w_030.func_D6000_8017C87C&#45;&gt;dra.PlaySfx</title>
<path fill="none" stroke="black" d="M1048.15,-88.01C1095.95,-72.85 1167.39,-50.19 1215.23,-35.02"/>
<polygon fill="black" stroke="black" points="1216.29,-38.36 1224.76,-32 1214.17,-31.68 1216.29,-38.36"/>
<text text-anchor="middle" x="1153.74" y="-57.8" font-family="Times,serif" font-size="14.00">1</text>
</g>
<!-- rand -->
<g id="node8" class="node">
<title>rand</title>
<g id="a_node8"><a xlink:href="rand.svg" xlink:title="rand">
<ellipse fill="lightblue" stroke="black" cx="1380.74" cy="-18" rx="32.49" ry="18"/>
<text text-anchor="middle" x="1380.74" y="-14.3" font-family="Times,serif" font-size="14.00">rand</text>
</a>
</g>
</g>
<!-- w_030.func_D6000_8017C87C&#45;&gt;rand -->
<g id="edge7" class="edge">
<title>w_030.func_D6000_8017C87C&#45;&gt;rand</title>
<path fill="none" stroke="black" d="M1088.97,-90.59C1158.31,-79.25 1255.6,-60.87 1338.74,-36 1341.33,-35.22 1343.99,-34.35 1346.64,-33.41"/>
<polygon fill="black" stroke="black" points="1348,-36.64 1356.14,-29.85 1345.55,-30.09 1348,-36.64"/>
<text text-anchor="middle" x="1270.74" y="-57.8" font-family="Times,serif" font-size="14.00">1</text>
</g>
<!-- dra.func_8011AAFC -->
<g id="node9" class="node">
<title>dra.func_8011AAFC</title>
<g id="a_node9"><a xlink:href="dra.func_8011AAFC.svg" xlink:title="dra.func_8011AAFC">
<ellipse fill="green" stroke="black" cx="1533.74" cy="-18" rx="102.88" ry="18"/>
<text text-anchor="middle" x="1533.74" y="-14.3" font-family="Times,serif" font-size="14.00">dra.func_8011AAFC</text>
</a>
</g>
</g>
<!-- w_030.func_D6000_8017C87C&#45;&gt;dra.func_8011AAFC -->
<g id="edge8" class="edge">
<title>w_030.func_D6000_8017C87C&#45;&gt;dra.func_8011AAFC</title>
<path fill="none" stroke="black" d="M1106.12,-92.37C1158.67,-86.26 1222.62,-78.15 1279.74,-69 1341.62,-59.08 1411.46,-45.13 1462.22,-34.49"/>
<polygon fill="black" stroke="black" points="1463.04,-37.89 1472.11,-32.4 1461.6,-31.04 1463.04,-37.89"/>
<text text-anchor="middle" x="1369.74" y="-57.8" font-family="Times,serif" font-size="14.00">1</text>
</g>
</g>
</svg>
