<?xml version="1.0" encoding="UTF-8" standalone="no"?>
<!DOCTYPE svg PUBLIC "-//W3C//DTD SVG 1.1//EN"
 "http://www.w3.org/Graphics/SVG/1.1/DTD/svg11.dtd">
<!-- Generated by graphviz version 2.43.0 (0)
 -->
<!-- Title: w_033.func_EB000_8017AFF8 Pages: 1 -->
<svg width="1554pt" height="131pt"
 viewBox="0.00 0.00 1553.82 131.00" xmlns="http://www.w3.org/2000/svg" xmlns:xlink="http://www.w3.org/1999/xlink">
<g id="graph0" class="graph" transform="scale(1 1) rotate(0) translate(4 127)">
<title>w_033.func_EB000_8017AFF8</title>
<polygon fill="white" stroke="transparent" points="-4,4 -4,-127 1549.82,-127 1549.82,4 -4,4"/>
<!-- w_033.func_EB000_8017AFF8 -->
<g id="node1" class="node">
<title>w_033.func_EB000_8017AFF8</title>
<ellipse fill="red" stroke="black" cx="792.39" cy="-105" rx="151.37" ry="18"/>
<text text-anchor="middle" x="792.39" y="-101.3" font-family="Times,serif" font-size="14.00">w_033.func_EB000_8017AFF8</text>
</g>
<!-- w_033.func_EB000_8017AD5C -->
<g id="node2" class="node">
<title>w_033.func_EB000_8017AD5C</title>
<g id="a_node2"><a xlink:href="w_033.func_EB000_8017AD5C.svg" xlink:title="w_033.func_EB000_8017AD5C">
<ellipse fill="red" stroke="black" cx="153.39" cy="-18" rx="153.27" ry="18"/>
<text text-anchor="middle" x="153.39" y="-14.3" font-family="Times,serif" font-size="14.00">w_033.func_EB000_8017AD5C</text>
</a>
</g>
</g>
<!-- w_033.func_EB000_8017AFF8&#45;&gt;w_033.func_EB000_8017AD5C -->
<g id="edge1" class="edge">
<title>w_033.func_EB000_8017AFF8&#45;&gt;w_033.func_EB000_8017AD5C</title>
<path fill="none" stroke="black" d="M695.68,-91.14C578.69,-75.57 382.33,-49.45 260.75,-33.28"/>
<polygon fill="black" stroke="black" points="261.05,-29.79 250.68,-31.94 260.13,-36.73 261.05,-29.79"/>
<text text-anchor="middle" x="516.39" y="-57.8" font-family="Times,serif" font-size="14.00">1</text>
</g>
<!-- w_033.func_EB000_8017AEFC -->
<g id="node3" class="node">
<title>w_033.func_EB000_8017AEFC</title>
<g id="a_node3"><a xlink:href="w_033.func_EB000_8017AEFC.svg" xlink:title="w_033.func_EB000_8017AEFC">
<ellipse fill="red" stroke="black" cx="478.39" cy="-18" rx="153.27" ry="18"/>
<text text-anchor="middle" x="478.39" y="-14.3" font-family="Times,serif" font-size="14.00">w_033.func_EB000_8017AEFC</text>
</a>
</g>
</g>
<!-- w_033.func_EB000_8017AFF8&#45;&gt;w_033.func_EB000_8017AEFC -->
<g id="edge2" class="edge">
<title>w_033.func_EB000_8017AFF8&#45;&gt;w_033.func_EB000_8017AEFC</title>
<path fill="none" stroke="black" d="M734.43,-88.31C681.19,-73.9 602.26,-52.53 546.13,-37.34"/>
<polygon fill="black" stroke="black" points="546.84,-33.9 536.27,-34.67 545.01,-40.66 546.84,-33.9"/>
<text text-anchor="middle" x="659.39" y="-57.8" font-family="Times,serif" font-size="14.00">1</text>
</g>
<!-- dra.PlaySfx -->
<g id="node4" class="node">
<title>dra.PlaySfx</title>
<g id="a_node4"><a xlink:href="dra.PlaySfx.svg" xlink:title="dra.PlaySfx">
<ellipse fill="green" stroke="black" cx="714.39" cy="-18" rx="64.19" ry="18"/>
<text text-anchor="middle" x="714.39" y="-14.3" font-family="Times,serif" font-size="14.00">dra.PlaySfx</text>
</a>
</g>
</g>
<!-- w_033.func_EB000_8017AFF8&#45;&gt;dra.PlaySfx -->
<g id="edge3" class="edge">
<title>w_033.func_EB000_8017AFF8&#45;&gt;dra.PlaySfx</title>
<path fill="none" stroke="black" d="M776.6,-86.8C765.14,-74.31 749.47,-57.24 736.73,-43.35"/>
<polygon fill="black" stroke="black" points="738.96,-40.6 729.62,-35.6 733.8,-45.33 738.96,-40.6"/>
<text text-anchor="middle" x="763.39" y="-57.8" font-family="Times,serif" font-size="14.00">1</text>
</g>
<!-- g_api_PlaySfx -->
<g id="node5" class="node">
<title>g_api_PlaySfx</title>
<g id="a_node5"><a xlink:href="g_api_PlaySfx.svg" xlink:title="g_api_PlaySfx">
<ellipse fill="lightblue" stroke="black" cx="871.39" cy="-18" rx="74.99" ry="18"/>
<text text-anchor="middle" x="871.39" y="-14.3" font-family="Times,serif" font-size="14.00">g_api_PlaySfx</text>
</a>
</g>
</g>
<!-- w_033.func_EB000_8017AFF8&#45;&gt;g_api_PlaySfx -->
<g id="edge4" class="edge">
<title>w_033.func_EB000_8017AFF8&#45;&gt;g_api_PlaySfx</title>
<path fill="none" stroke="black" d="M808.37,-86.8C820.01,-74.27 835.94,-57.14 848.87,-43.23"/>
<polygon fill="black" stroke="black" points="851.45,-45.59 855.69,-35.89 846.32,-40.83 851.45,-45.59"/>
<text text-anchor="middle" x="842.39" y="-57.8" font-family="Times,serif" font-size="14.00">2</text>
</g>
<!-- dra.UpdateUnarmedAnim -->
<g id="node6" class="node">
<title>dra.UpdateUnarmedAnim</title>
<g id="a_node6"><a xlink:href="dra.UpdateUnarmedAnim.svg" xlink:title="dra.UpdateUnarmedAnim">
<ellipse fill="green" stroke="black" cx="1094.39" cy="-18" rx="130.78" ry="18"/>
<text text-anchor="middle" x="1094.39" y="-14.3" font-family="Times,serif" font-size="14.00">dra.UpdateUnarmedAnim</text>
</a>
</g>
</g>
<!-- w_033.func_EB000_8017AFF8&#45;&gt;dra.UpdateUnarmedAnim -->
<g id="edge5" class="edge">
<title>w_033.func_EB000_8017AFF8&#45;&gt;dra.UpdateUnarmedAnim</title>
<path fill="none" stroke="black" d="M848.48,-88.21C899.87,-73.75 975.92,-52.34 1029.81,-37.17"/>
<polygon fill="black" stroke="black" points="1030.93,-40.5 1039.61,-34.42 1029.03,-33.76 1030.93,-40.5"/>
<text text-anchor="middle" x="967.39" y="-57.8" font-family="Times,serif" font-size="14.00">1</text>
</g>
<!-- w_033.func_EB000_8017AC58 -->
<g id="node7" class="node">
<title>w_033.func_EB000_8017AC58</title>
<g id="a_node7"><a xlink:href="w_033.func_EB000_8017AC58.svg" xlink:title="w_033.func_EB000_8017AC58">
<ellipse fill="red" stroke="black" cx="1394.39" cy="-18" rx="151.37" ry="18"/>
<text text-anchor="middle" x="1394.39" y="-14.3" font-family="Times,serif" font-size="14.00">w_033.func_EB000_8017AC58</text>
</a>
</g>
</g>
<!-- w_033.func_EB000_8017AFF8&#45;&gt;w_033.func_EB000_8017AC58 -->
<g id="edge6" class="edge">
<title>w_033.func_EB000_8017AFF8&#45;&gt;w_033.func_EB000_8017AC58</title>
<path fill="none" stroke="black" d="M885.79,-90.81C995.43,-75.33 1176.71,-49.73 1290.64,-33.65"/>
<polygon fill="black" stroke="black" points="1291.35,-37.08 1300.77,-32.22 1290.37,-30.15 1291.35,-37.08"/>
<text text-anchor="middle" x="1135.39" y="-57.8" font-family="Times,serif" font-size="14.00">1</text>
</g>
</g>
</svg>
