<?xml version="1.0" encoding="UTF-8" standalone="no"?>
<!DOCTYPE svg PUBLIC "-//W3C//DTD SVG 1.1//EN"
 "http://www.w3.org/Graphics/SVG/1.1/DTD/svg11.dtd">
<!-- Generated by graphviz version 2.43.0 (0)
 -->
<!-- Title: w_039.func_115000_8017ADEC Pages: 1 -->
<svg width="978pt" height="218pt"
 viewBox="0.00 0.00 978.32 218.00" xmlns="http://www.w3.org/2000/svg" xmlns:xlink="http://www.w3.org/1999/xlink">
<g id="graph0" class="graph" transform="scale(1 1) rotate(0) translate(4 214)">
<title>w_039.func_115000_8017ADEC</title>
<polygon fill="white" stroke="transparent" points="-4,4 -4,-214 974.32,-214 974.32,4 -4,4"/>
<!-- w_039.func_115000_8017ADEC -->
<g id="node1" class="node">
<title>w_039.func_115000_8017ADEC</title>
<ellipse fill="red" stroke="black" cx="484.34" cy="-105" rx="157.87" ry="18"/>
<text text-anchor="middle" x="484.34" y="-101.3" font-family="Times,serif" font-size="14.00">w_039.func_115000_8017ADEC</text>
</g>
<!-- dra.FreePrimitives -->
<g id="node2" class="node">
<title>dra.FreePrimitives</title>
<g id="a_node2"><a xlink:href="dra.FreePrimitives.svg" xlink:title="dra.FreePrimitives">
<ellipse fill="green" stroke="black" cx="484.34" cy="-18" rx="98.58" ry="18"/>
<text text-anchor="middle" x="484.34" y="-14.3" font-family="Times,serif" font-size="14.00">dra.FreePrimitives</text>
</a>
</g>
</g>
<!-- w_039.func_115000_8017ADEC&#45;&gt;dra.FreePrimitives -->
<g id="edge1" class="edge">
<title>w_039.func_115000_8017ADEC&#45;&gt;dra.FreePrimitives</title>
<path fill="none" stroke="black" d="M484.34,-86.8C484.34,-75.16 484.34,-59.55 484.34,-46.24"/>
<polygon fill="black" stroke="black" points="487.84,-46.18 484.34,-36.18 480.84,-46.18 487.84,-46.18"/>
<text text-anchor="middle" x="489.34" y="-57.8" font-family="Times,serif" font-size="14.00">1</text>
</g>
<!-- w_039.func_115000_8017B020 -->
<g id="node3" class="node">
<title>w_039.func_115000_8017B020</title>
<g id="a_node3"><a xlink:href="w_039.func_115000_8017B020.svg" xlink:title="w_039.func_115000_8017B020">
<ellipse fill="red" stroke="black" cx="155.34" cy="-192" rx="155.17" ry="18"/>
<text text-anchor="middle" x="155.34" y="-188.3" font-family="Times,serif" font-size="14.00">w_039.func_115000_8017B020</text>
</a>
</g>
</g>
<!-- w_039.func_115000_8017B020&#45;&gt;w_039.func_115000_8017ADEC -->
<g id="edge2" class="edge">
<title>w_039.func_115000_8017B020&#45;&gt;w_039.func_115000_8017ADEC</title>
<path fill="none" stroke="black" d="M215.68,-175.41C271.62,-160.96 354.86,-139.45 413.84,-124.21"/>
<polygon fill="black" stroke="black" points="415.01,-127.53 423.82,-121.64 413.26,-120.75 415.01,-127.53"/>
<text text-anchor="middle" x="345.34" y="-144.8" font-family="Times,serif" font-size="14.00">2</text>
</g>
<!-- w_039.func_115000_8017B3E8 -->
<g id="node4" class="node">
<title>w_039.func_115000_8017B3E8</title>
<g id="a_node4"><a xlink:href="w_039.func_115000_8017B3E8.svg" xlink:title="w_039.func_115000_8017B3E8">
<ellipse fill="red" stroke="black" cx="484.34" cy="-192" rx="155.97" ry="18"/>
<text text-anchor="middle" x="484.34" y="-188.3" font-family="Times,serif" font-size="14.00">w_039.func_115000_8017B3E8</text>
</a>
</g>
</g>
<!-- w_039.func_115000_8017B3E8&#45;&gt;w_039.func_115000_8017ADEC -->
<g id="edge3" class="edge">
<title>w_039.func_115000_8017B3E8&#45;&gt;w_039.func_115000_8017ADEC</title>
<path fill="none" stroke="black" d="M484.34,-173.8C484.34,-162.16 484.34,-146.55 484.34,-133.24"/>
<polygon fill="black" stroke="black" points="487.84,-133.18 484.34,-123.18 480.84,-133.18 487.84,-133.18"/>
<text text-anchor="middle" x="489.34" y="-144.8" font-family="Times,serif" font-size="14.00">1</text>
</g>
<!-- w_039.func_115000_8017B18C -->
<g id="node5" class="node">
<title>w_039.func_115000_8017B18C</title>
<g id="a_node5"><a xlink:href="w_039.func_115000_8017B18C.svg" xlink:title="w_039.func_115000_8017B18C">
<ellipse fill="red" stroke="black" cx="814.34" cy="-192" rx="155.97" ry="18"/>
<text text-anchor="middle" x="814.34" y="-188.3" font-family="Times,serif" font-size="14.00">w_039.func_115000_8017B18C</text>
</a>
</g>
</g>
<!-- w_039.func_115000_8017B18C&#45;&gt;w_039.func_115000_8017ADEC -->
<g id="edge4" class="edge">
<title>w_039.func_115000_8017B18C&#45;&gt;w_039.func_115000_8017ADEC</title>
<path fill="none" stroke="black" d="M753.81,-175.41C697.7,-160.96 614.21,-139.45 555.05,-124.21"/>
<polygon fill="black" stroke="black" points="555.59,-120.74 545.04,-121.64 553.85,-127.52 555.59,-120.74"/>
<text text-anchor="middle" x="674.34" y="-144.8" font-family="Times,serif" font-size="14.00">1</text>
</g>
</g>
</svg>
