<?xml version="1.0" encoding="UTF-8" standalone="no"?>
<!DOCTYPE svg PUBLIC "-//W3C//DTD SVG 1.1//EN"
 "http://www.w3.org/Graphics/SVG/1.1/DTD/svg11.dtd">
<!-- Generated by graphviz version 2.43.0 (0)
 -->
<!-- Title: w_036.func_100000_8017A8FC Pages: 1 -->
<svg width="1399pt" height="131pt"
 viewBox="0.00 0.00 1399.02 131.00" xmlns="http://www.w3.org/2000/svg" xmlns:xlink="http://www.w3.org/1999/xlink">
<g id="graph0" class="graph" transform="scale(1 1) rotate(0) translate(4 127)">
<title>w_036.func_100000_8017A8FC</title>
<polygon fill="white" stroke="transparent" points="-4,4 -4,-127 1395.02,-127 1395.02,4 -4,4"/>
<!-- w_036.func_100000_8017A8FC -->
<g id="node1" class="node">
<title>w_036.func_100000_8017A8FC</title>
<ellipse fill="red" stroke="black" cx="718.69" cy="-105" rx="155.97" ry="18"/>
<text text-anchor="middle" x="718.69" y="-101.3" font-family="Times,serif" font-size="14.00">w_036.func_100000_8017A8FC</text>
</g>
<!-- w_036.func_100000_8017A660 -->
<g id="node2" class="node">
<title>w_036.func_100000_8017A660</title>
<g id="a_node2"><a xlink:href="w_036.func_100000_8017A660.svg" xlink:title="w_036.func_100000_8017A660">
<ellipse fill="red" stroke="black" cx="154.69" cy="-18" rx="154.87" ry="18"/>
<text text-anchor="middle" x="154.69" y="-14.3" font-family="Times,serif" font-size="14.00">w_036.func_100000_8017A660</text>
</a>
</g>
</g>
<!-- w_036.func_100000_8017A8FC&#45;&gt;w_036.func_100000_8017A660 -->
<g id="edge1" class="edge">
<title>w_036.func_100000_8017A8FC&#45;&gt;w_036.func_100000_8017A660</title>
<path fill="none" stroke="black" d="M628.07,-90.34C526.11,-74.98 360.95,-50.09 255.13,-34.14"/>
<polygon fill="black" stroke="black" points="255.49,-30.65 245.08,-32.62 254.44,-37.57 255.49,-30.65"/>
<text text-anchor="middle" x="475.69" y="-57.8" font-family="Times,serif" font-size="14.00">1</text>
</g>
<!-- w_036.func_100000_8017A800 -->
<g id="node3" class="node">
<title>w_036.func_100000_8017A800</title>
<g id="a_node3"><a xlink:href="w_036.func_100000_8017A800.svg" xlink:title="w_036.func_100000_8017A800">
<ellipse fill="red" stroke="black" cx="481.69" cy="-18" rx="154.87" ry="18"/>
<text text-anchor="middle" x="481.69" y="-14.3" font-family="Times,serif" font-size="14.00">w_036.func_100000_8017A800</text>
</a>
</g>
</g>
<!-- w_036.func_100000_8017A8FC&#45;&gt;w_036.func_100000_8017A800 -->
<g id="edge2" class="edge">
<title>w_036.func_100000_8017A8FC&#45;&gt;w_036.func_100000_8017A800</title>
<path fill="none" stroke="black" d="M673.27,-87.71C634.32,-73.74 578.1,-53.58 536.62,-38.7"/>
<polygon fill="black" stroke="black" points="537.54,-35.31 526.95,-35.23 535.18,-41.9 537.54,-35.31"/>
<text text-anchor="middle" x="619.69" y="-57.8" font-family="Times,serif" font-size="14.00">1</text>
</g>
<!-- dra.PlaySfx -->
<g id="node4" class="node">
<title>dra.PlaySfx</title>
<g id="a_node4"><a xlink:href="dra.PlaySfx.svg" xlink:title="dra.PlaySfx">
<ellipse fill="green" stroke="black" cx="718.69" cy="-18" rx="64.19" ry="18"/>
<text text-anchor="middle" x="718.69" y="-14.3" font-family="Times,serif" font-size="14.00">dra.PlaySfx</text>
</a>
</g>
</g>
<!-- w_036.func_100000_8017A8FC&#45;&gt;dra.PlaySfx -->
<g id="edge3" class="edge">
<title>w_036.func_100000_8017A8FC&#45;&gt;dra.PlaySfx</title>
<path fill="none" stroke="black" d="M718.69,-86.8C718.69,-75.16 718.69,-59.55 718.69,-46.24"/>
<polygon fill="black" stroke="black" points="722.19,-46.18 718.69,-36.18 715.19,-46.18 722.19,-46.18"/>
<text text-anchor="middle" x="723.69" y="-57.8" font-family="Times,serif" font-size="14.00">1</text>
</g>
<!-- dra.UpdateUnarmedAnim -->
<g id="node5" class="node">
<title>dra.UpdateUnarmedAnim</title>
<g id="a_node5"><a xlink:href="dra.UpdateUnarmedAnim.svg" xlink:title="dra.UpdateUnarmedAnim">
<ellipse fill="green" stroke="black" cx="931.69" cy="-18" rx="130.78" ry="18"/>
<text text-anchor="middle" x="931.69" y="-14.3" font-family="Times,serif" font-size="14.00">dra.UpdateUnarmedAnim</text>
</a>
</g>
</g>
<!-- w_036.func_100000_8017A8FC&#45;&gt;dra.UpdateUnarmedAnim -->
<g id="edge4" class="edge">
<title>w_036.func_100000_8017A8FC&#45;&gt;dra.UpdateUnarmedAnim</title>
<path fill="none" stroke="black" d="M759.75,-87.61C794.49,-73.75 844.38,-53.84 881.49,-39.03"/>
<polygon fill="black" stroke="black" points="883.12,-42.15 891.11,-35.19 880.52,-35.65 883.12,-42.15"/>
<text text-anchor="middle" x="843.69" y="-57.8" font-family="Times,serif" font-size="14.00">1</text>
</g>
<!-- w_036.func_100000_8017A55C -->
<g id="node6" class="node">
<title>w_036.func_100000_8017A55C</title>
<g id="a_node6"><a xlink:href="w_036.func_100000_8017A55C.svg" xlink:title="w_036.func_100000_8017A55C">
<ellipse fill="red" stroke="black" cx="1235.69" cy="-18" rx="155.17" ry="18"/>
<text text-anchor="middle" x="1235.69" y="-14.3" font-family="Times,serif" font-size="14.00">w_036.func_100000_8017A55C</text>
</a>
</g>
</g>
<!-- w_036.func_100000_8017A8FC&#45;&gt;w_036.func_100000_8017A55C -->
<g id="edge5" class="edge">
<title>w_036.func_100000_8017A8FC&#45;&gt;w_036.func_100000_8017A55C</title>
<path fill="none" stroke="black" d="M804.35,-89.92C896.92,-74.7 1044.07,-50.5 1140.27,-34.69"/>
<polygon fill="black" stroke="black" points="1140.99,-38.12 1150.29,-33.04 1139.85,-31.21 1140.99,-38.12"/>
<text text-anchor="middle" x="1013.69" y="-57.8" font-family="Times,serif" font-size="14.00">1</text>
</g>
</g>
</svg>
