<?xml version="1.0" encoding="UTF-8" standalone="no"?>
<!DOCTYPE svg PUBLIC "-//W3C//DTD SVG 1.1//EN"
 "http://www.w3.org/Graphics/SVG/1.1/DTD/svg11.dtd">
<!-- Generated by graphviz version 2.43.0 (0)
 -->
<!-- Title: w_030.EntityWeaponAttack Pages: 1 -->
<svg width="958pt" height="131pt"
 viewBox="0.00 0.00 957.83 131.00" xmlns="http://www.w3.org/2000/svg" xmlns:xlink="http://www.w3.org/1999/xlink">
<g id="graph0" class="graph" transform="scale(1 1) rotate(0) translate(4 127)">
<title>w_030.EntityWeaponAttack</title>
<polygon fill="white" stroke="transparent" points="-4,4 -4,-127 953.83,-127 953.83,4 -4,4"/>
<!-- w_030.EntityWeaponAttack -->
<g id="node1" class="node">
<title>w_030.EntityWeaponAttack</title>
<ellipse fill="red" stroke="black" cx="477.29" cy="-105" rx="138.38" ry="18"/>
<text text-anchor="middle" x="477.29" y="-101.3" font-family="Times,serif" font-size="14.00">w_030.EntityWeaponAttack</text>
</g>
<!-- w_030.SetWeaponProperties -->
<g id="node2" class="node">
<title>w_030.SetWeaponProperties</title>
<g id="a_node2"><a xlink:href="w_030.SetWeaponProperties.svg" xlink:title="w_030.SetWeaponProperties">
<ellipse fill="red" stroke="black" cx="144.29" cy="-18" rx="144.07" ry="18"/>
<text text-anchor="middle" x="144.29" y="-14.3" font-family="Times,serif" font-size="14.00">w_030.SetWeaponProperties</text>
</a>
</g>
</g>
<!-- w_030.EntityWeaponAttack&#45;&gt;w_030.SetWeaponProperties -->
<g id="edge1" class="edge">
<title>w_030.EntityWeaponAttack&#45;&gt;w_030.SetWeaponProperties</title>
<path fill="none" stroke="black" d="M417.37,-88.71C360.34,-74.15 274.54,-52.25 214.37,-36.89"/>
<polygon fill="black" stroke="black" points="215.12,-33.47 204.57,-34.39 213.39,-40.25 215.12,-33.47"/>
<text text-anchor="middle" x="336.29" y="-57.8" font-family="Times,serif" font-size="14.00">1</text>
</g>
<!-- dra.PlaySfx -->
<g id="node3" class="node">
<title>dra.PlaySfx</title>
<g id="a_node3"><a xlink:href="dra.PlaySfx.svg" xlink:title="dra.PlaySfx">
<ellipse fill="green" stroke="black" cx="371.29" cy="-18" rx="64.19" ry="18"/>
<text text-anchor="middle" x="371.29" y="-14.3" font-family="Times,serif" font-size="14.00">dra.PlaySfx</text>
</a>
</g>
</g>
<!-- w_030.EntityWeaponAttack&#45;&gt;dra.PlaySfx -->
<g id="edge2" class="edge">
<title>w_030.EntityWeaponAttack&#45;&gt;dra.PlaySfx</title>
<path fill="none" stroke="black" d="M456.35,-87.21C440.02,-74.12 417.2,-55.81 399.3,-41.46"/>
<polygon fill="black" stroke="black" points="401.46,-38.71 391.47,-35.18 397.08,-44.17 401.46,-38.71"/>
<text text-anchor="middle" x="436.29" y="-57.8" font-family="Times,serif" font-size="14.00">1</text>
</g>
<!-- dra.UpdateUnarmedAnim -->
<g id="node4" class="node">
<title>dra.UpdateUnarmedAnim</title>
<g id="a_node4"><a xlink:href="dra.UpdateUnarmedAnim.svg" xlink:title="dra.UpdateUnarmedAnim">
<ellipse fill="green" stroke="black" cx="584.29" cy="-18" rx="130.78" ry="18"/>
<text text-anchor="middle" x="584.29" y="-14.3" font-family="Times,serif" font-size="14.00">dra.UpdateUnarmedAnim</text>
</a>
</g>
</g>
<!-- w_030.EntityWeaponAttack&#45;&gt;dra.UpdateUnarmedAnim -->
<g id="edge3" class="edge">
<title>w_030.EntityWeaponAttack&#45;&gt;dra.UpdateUnarmedAnim</title>
<path fill="none" stroke="black" d="M498.43,-87.21C514.59,-74.37 537.06,-56.52 554.96,-42.3"/>
<polygon fill="black" stroke="black" points="557.17,-45.01 562.83,-36.05 552.82,-39.53 557.17,-45.01"/>
<text text-anchor="middle" x="542.29" y="-57.8" font-family="Times,serif" font-size="14.00">1</text>
</g>
<!-- w_030.DestroyEntity -->
<g id="node5" class="node">
<title>w_030.DestroyEntity</title>
<g id="a_node5"><a xlink:href="w_030.DestroyEntity.svg" xlink:title="w_030.DestroyEntity">
<ellipse fill="red" stroke="black" cx="841.29" cy="-18" rx="108.58" ry="18"/>
<text text-anchor="middle" x="841.29" y="-14.3" font-family="Times,serif" font-size="14.00">w_030.DestroyEntity</text>
</a>
</g>
</g>
<!-- w_030.EntityWeaponAttack&#45;&gt;w_030.DestroyEntity -->
<g id="edge4" class="edge">
<title>w_030.EntityWeaponAttack&#45;&gt;w_030.DestroyEntity</title>
<path fill="none" stroke="black" d="M541.53,-89C605.98,-73.95 704.96,-50.84 771.35,-35.33"/>
<polygon fill="black" stroke="black" points="772.37,-38.69 781.31,-33 770.78,-31.87 772.37,-38.69"/>
<text text-anchor="middle" x="686.29" y="-57.8" font-family="Times,serif" font-size="14.00">1</text>
</g>
</g>
</svg>
