<?xml version="1.0" encoding="UTF-8" standalone="no"?>
<!DOCTYPE svg PUBLIC "-//W3C//DTD SVG 1.1//EN"
 "http://www.w3.org/Graphics/SVG/1.1/DTD/svg11.dtd">
<!-- Generated by graphviz version 2.43.0 (0)
 -->
<!-- Title: w_030.DestroyEntity Pages: 1 -->
<svg width="1424pt" height="404pt"
 viewBox="0.00 0.00 1424.13 404.00" xmlns="http://www.w3.org/2000/svg" xmlns:xlink="http://www.w3.org/1999/xlink">
<g id="graph0" class="graph" transform="scale(1 1) rotate(0) translate(4 400)">
<title>w_030.DestroyEntity</title>
<polygon fill="white" stroke="transparent" points="-4,4 -4,-400 1420.13,-400 1420.13,4 -4,4"/>
<!-- w_030.DestroyEntity -->
<g id="node1" class="node">
<title>w_030.DestroyEntity</title>
<ellipse fill="red" stroke="black" cx="713.24" cy="-198" rx="108.58" ry="18"/>
<text text-anchor="middle" x="713.24" y="-194.3" font-family="Times,serif" font-size="14.00">w_030.DestroyEntity</text>
</g>
<!-- dra.FreePrimitives -->
<g id="node2" class="node">
<title>dra.FreePrimitives</title>
<g id="a_node2"><a xlink:href="dra.FreePrimitives.svg" xlink:title="dra.FreePrimitives">
<ellipse fill="green" stroke="black" cx="713.24" cy="-18" rx="98.58" ry="18"/>
<text text-anchor="middle" x="713.24" y="-14.3" font-family="Times,serif" font-size="14.00">dra.FreePrimitives</text>
</a>
</g>
</g>
<!-- w_030.DestroyEntity&#45;&gt;dra.FreePrimitives -->
<g id="edge1" class="edge">
<title>w_030.DestroyEntity&#45;&gt;dra.FreePrimitives</title>
<path fill="none" stroke="black" d="M713.24,-179.93C713.24,-148.97 713.24,-83.3 713.24,-46.13"/>
<polygon fill="black" stroke="black" points="716.74,-46.02 713.24,-36.02 709.74,-46.02 716.74,-46.02"/>
<text text-anchor="middle" x="708.24" y="-39.82" font-family="Times,serif" font-size="14.00">1</text>
</g>
<!-- w_030.func_ptr_80170004 -->
<g id="node3" class="node">
<title>w_030.func_ptr_80170004</title>
<g id="a_node3"><a xlink:href="w_030.func_ptr_80170004.svg" xlink:title="w_030.func_ptr_80170004">
<ellipse fill="red" stroke="black" cx="133.24" cy="-378" rx="133.48" ry="18"/>
<text text-anchor="middle" x="133.24" y="-374.3" font-family="Times,serif" font-size="14.00">w_030.func_ptr_80170004</text>
</a>
</g>
</g>
<!-- w_030.func_ptr_80170004&#45;&gt;w_030.DestroyEntity -->
<g id="edge2" class="edge">
<title>w_030.func_ptr_80170004&#45;&gt;w_030.DestroyEntity</title>
<path fill="none" stroke="black" d="M184.2,-361.36C291.51,-328.43 540.21,-252.1 654.21,-217.11"/>
<polygon fill="black" stroke="black" points="655.3,-220.44 663.83,-214.16 653.25,-213.75 655.3,-220.44"/>
<text text-anchor="middle" x="179.2" y="-350.16" font-family="Times,serif" font-size="14.00">1</text>
</g>
<!-- w_030.EntityWeaponAttack -->
<g id="node4" class="node">
<title>w_030.EntityWeaponAttack</title>
<g id="a_node4"><a xlink:href="w_030.EntityWeaponAttack.svg" xlink:title="w_030.EntityWeaponAttack">
<ellipse fill="red" stroke="black" cx="423.24" cy="-378" rx="138.38" ry="18"/>
<text text-anchor="middle" x="423.24" y="-374.3" font-family="Times,serif" font-size="14.00">w_030.EntityWeaponAttack</text>
</a>
</g>
</g>
<!-- w_030.EntityWeaponAttack&#45;&gt;w_030.DestroyEntity -->
<g id="edge3" class="edge">
<title>w_030.EntityWeaponAttack&#45;&gt;w_030.DestroyEntity</title>
<path fill="none" stroke="black" d="M450.52,-360.25C503.23,-327.9 619.01,-256.84 677.67,-220.83"/>
<polygon fill="black" stroke="black" points="679.55,-223.79 686.24,-215.57 675.89,-217.82 679.55,-223.79"/>
<text text-anchor="middle" x="445.52" y="-349.05" font-family="Times,serif" font-size="14.00">1</text>
</g>
<!-- w_030.func_ptr_80170008 -->
<g id="node5" class="node">
<title>w_030.func_ptr_80170008</title>
<g id="a_node5"><a xlink:href="w_030.func_ptr_80170008.svg" xlink:title="w_030.func_ptr_80170008">
<ellipse fill="red" stroke="black" cx="713.24" cy="-378" rx="133.48" ry="18"/>
<text text-anchor="middle" x="713.24" y="-374.3" font-family="Times,serif" font-size="14.00">w_030.func_ptr_80170008</text>
</a>
</g>
</g>
<!-- w_030.func_ptr_80170008&#45;&gt;w_030.DestroyEntity -->
<g id="edge4" class="edge">
<title>w_030.func_ptr_80170008&#45;&gt;w_030.DestroyEntity</title>
<path fill="none" stroke="black" d="M713.24,-359.93C713.24,-328.97 713.24,-263.3 713.24,-226.13"/>
<polygon fill="black" stroke="black" points="716.74,-226.02 713.24,-216.02 709.74,-226.02 716.74,-226.02"/>
<text text-anchor="middle" x="708.24" y="-348.73" font-family="Times,serif" font-size="14.00">1</text>
</g>
<!-- w_030.func_ptr_80170010 -->
<g id="node6" class="node">
<title>w_030.func_ptr_80170010</title>
<g id="a_node6"><a xlink:href="w_030.func_ptr_80170010.svg" xlink:title="w_030.func_ptr_80170010">
<ellipse fill="red" stroke="black" cx="997.24" cy="-378" rx="133.48" ry="18"/>
<text text-anchor="middle" x="997.24" y="-374.3" font-family="Times,serif" font-size="14.00">w_030.func_ptr_80170010</text>
</a>
</g>
</g>
<!-- w_030.func_ptr_80170010&#45;&gt;w_030.DestroyEntity -->
<g id="edge5" class="edge">
<title>w_030.func_ptr_80170010&#45;&gt;w_030.DestroyEntity</title>
<path fill="none" stroke="black" d="M970.52,-360.25C919.01,-327.97 805.98,-257.13 748.42,-221.05"/>
<polygon fill="black" stroke="black" points="750.01,-217.92 739.68,-215.57 746.29,-223.85 750.01,-217.92"/>
<text text-anchor="middle" x="965.52" y="-349.05" font-family="Times,serif" font-size="14.00">2</text>
</g>
<!-- w_030.func_ptr_8017000C -->
<g id="node7" class="node">
<title>w_030.func_ptr_8017000C</title>
<g id="a_node7"><a xlink:href="w_030.func_ptr_8017000C.svg" xlink:title="w_030.func_ptr_8017000C">
<ellipse fill="red" stroke="black" cx="1282.24" cy="-378" rx="133.78" ry="18"/>
<text text-anchor="middle" x="1282.24" y="-374.3" font-family="Times,serif" font-size="14.00">w_030.func_ptr_8017000C</text>
</a>
</g>
</g>
<!-- w_030.func_ptr_8017000C&#45;&gt;w_030.DestroyEntity -->
<g id="edge6" class="edge">
<title>w_030.func_ptr_8017000C&#45;&gt;w_030.DestroyEntity</title>
<path fill="none" stroke="black" d="M1231.74,-361.2C1126.27,-328.21 883.12,-252.14 771.35,-217.18"/>
<polygon fill="black" stroke="black" points="772.19,-213.77 761.6,-214.13 770.1,-220.45 772.19,-213.77"/>
<text text-anchor="middle" x="1226.74" y="-350" font-family="Times,serif" font-size="14.00">1</text>
</g>
</g>
</svg>
