<?xml version="1.0" encoding="UTF-8" standalone="no"?>
<!DOCTYPE svg PUBLIC "-//W3C//DTD SVG 1.1//EN"
 "http://www.w3.org/Graphics/SVG/1.1/DTD/svg11.dtd">
<!-- Generated by graphviz version 2.43.0 (0)
 -->
<!-- Title: w_034.func_ptr_80170004 Pages: 1 -->
<svg width="1855pt" height="224pt"
 viewBox="0.00 0.00 1854.63 224.00" xmlns="http://www.w3.org/2000/svg" xmlns:xlink="http://www.w3.org/1999/xlink">
<g id="graph0" class="graph" transform="scale(1 1) rotate(0) translate(4 220)">
<title>w_034.func_ptr_80170004</title>
<polygon fill="white" stroke="transparent" points="-4,4 -4,-220 1850.63,-220 1850.63,4 -4,4"/>
<!-- w_034.func_ptr_80170004 -->
<g id="node1" class="node">
<title>w_034.func_ptr_80170004</title>
<ellipse fill="red" stroke="black" cx="664.34" cy="-198" rx="133.48" ry="18"/>
<text text-anchor="middle" x="664.34" y="-194.3" font-family="Times,serif" font-size="14.00">w_034.func_ptr_80170004</text>
</g>
<!-- dra.PlaySfx -->
<g id="node2" class="node">
<title>dra.PlaySfx</title>
<g id="a_node2"><a xlink:href="dra.PlaySfx.svg" xlink:title="dra.PlaySfx">
<ellipse fill="green" stroke="black" cx="64.34" cy="-18" rx="64.19" ry="18"/>
<text text-anchor="middle" x="64.34" y="-14.3" font-family="Times,serif" font-size="14.00">dra.PlaySfx</text>
</a>
</g>
</g>
<!-- w_034.func_ptr_80170004&#45;&gt;dra.PlaySfx -->
<g id="edge1" class="edge">
<title>w_034.func_ptr_80170004&#45;&gt;dra.PlaySfx</title>
<path fill="none" stroke="black" d="M611.89,-181.44C498.25,-147.72 230.44,-68.27 116.8,-34.56"/>
<polygon fill="black" stroke="black" points="117.52,-31.13 106.94,-31.64 115.53,-37.84 117.52,-31.13"/>
<text text-anchor="middle" x="101.94" y="-35.44" font-family="Times,serif" font-size="14.00">1</text>
</g>
<!-- main.ratan2 -->
<g id="node3" class="node">
<title>main.ratan2</title>
<g id="a_node3"><a xlink:href="main.ratan2.svg" xlink:title="main.ratan2">
<ellipse fill="green" stroke="black" cx="214.34" cy="-18" rx="67.69" ry="18"/>
<text text-anchor="middle" x="214.34" y="-14.3" font-family="Times,serif" font-size="14.00">main.ratan2</text>
</a>
</g>
</g>
<!-- w_034.func_ptr_80170004&#45;&gt;main.ratan2 -->
<g id="edge2" class="edge">
<title>w_034.func_ptr_80170004&#45;&gt;main.ratan2</title>
<path fill="none" stroke="black" d="M623.22,-180.73C539.04,-147.44 347.68,-71.74 259.89,-37.02"/>
<polygon fill="black" stroke="black" points="261.05,-33.71 250.47,-33.29 258.48,-40.22 261.05,-33.71"/>
<text text-anchor="middle" x="245.47" y="-37.09" font-family="Times,serif" font-size="14.00">2</text>
</g>
<!-- main.rcos -->
<g id="node4" class="node">
<title>main.rcos</title>
<g id="a_node4"><a xlink:href="main.rcos.svg" xlink:title="main.rcos">
<ellipse fill="red" stroke="black" cx="355.34" cy="-18" rx="55.79" ry="18"/>
<text text-anchor="middle" x="355.34" y="-14.3" font-family="Times,serif" font-size="14.00">main.rcos</text>
</a>
</g>
</g>
<!-- w_034.func_ptr_80170004&#45;&gt;main.rcos -->
<g id="edge3" class="edge">
<title>w_034.func_ptr_80170004&#45;&gt;main.rcos</title>
<path fill="none" stroke="black" d="M635.55,-180.41C578.69,-147.66 452.17,-74.78 390.5,-39.25"/>
<polygon fill="black" stroke="black" points="391.94,-36.04 381.53,-34.08 388.45,-42.11 391.94,-36.04"/>
<text text-anchor="middle" x="376.53" y="-37.88" font-family="Times,serif" font-size="14.00">1</text>
</g>
<!-- main.rsin -->
<g id="node5" class="node">
<title>main.rsin</title>
<g id="a_node5"><a xlink:href="main.rsin.svg" xlink:title="main.rsin">
<ellipse fill="green" stroke="black" cx="483.34" cy="-18" rx="54.69" ry="18"/>
<text text-anchor="middle" x="483.34" y="-14.3" font-family="Times,serif" font-size="14.00">main.rsin</text>
</a>
</g>
</g>
<!-- w_034.func_ptr_80170004&#45;&gt;main.rsin -->
<g id="edge4" class="edge">
<title>w_034.func_ptr_80170004&#45;&gt;main.rsin</title>
<path fill="none" stroke="black" d="M646.99,-179.93C614.44,-147.93 544.2,-78.84 507.22,-42.48"/>
<polygon fill="black" stroke="black" points="509.44,-39.76 499.86,-35.24 504.53,-44.75 509.44,-39.76"/>
<text text-anchor="middle" x="494.86" y="-39.04" font-family="Times,serif" font-size="14.00">1</text>
</g>
<!-- w_034.DestroyEntity -->
<g id="node6" class="node">
<title>w_034.DestroyEntity</title>
<g id="a_node6"><a xlink:href="w_034.DestroyEntity.svg" xlink:title="w_034.DestroyEntity">
<ellipse fill="green" stroke="black" cx="664.34" cy="-18" rx="108.58" ry="18"/>
<text text-anchor="middle" x="664.34" y="-14.3" font-family="Times,serif" font-size="14.00">w_034.DestroyEntity</text>
</a>
</g>
</g>
<!-- w_034.func_ptr_80170004&#45;&gt;w_034.DestroyEntity -->
<g id="edge5" class="edge">
<title>w_034.func_ptr_80170004&#45;&gt;w_034.DestroyEntity</title>
<path fill="none" stroke="black" d="M664.34,-179.93C664.34,-148.97 664.34,-83.3 664.34,-46.13"/>
<polygon fill="black" stroke="black" points="667.84,-46.02 664.34,-36.02 660.84,-46.02 667.84,-46.02"/>
<text text-anchor="middle" x="659.34" y="-39.82" font-family="Times,serif" font-size="14.00">1</text>
</g>
<!-- w_034.DestroyEntityWeapon -->
<g id="node7" class="node">
<title>w_034.DestroyEntityWeapon</title>
<g id="a_node7"><a xlink:href="w_034.DestroyEntityWeapon.svg" xlink:title="w_034.DestroyEntityWeapon">
<ellipse fill="green" stroke="black" cx="936.34" cy="-18" rx="145.67" ry="18"/>
<text text-anchor="middle" x="936.34" y="-14.3" font-family="Times,serif" font-size="14.00">w_034.DestroyEntityWeapon</text>
</a>
</g>
</g>
<!-- w_034.func_ptr_80170004&#45;&gt;w_034.DestroyEntityWeapon -->
<g id="edge6" class="edge">
<title>w_034.func_ptr_80170004&#45;&gt;w_034.DestroyEntityWeapon</title>
<path fill="none" stroke="black" d="M689.93,-180.25C739.14,-148.05 846.97,-77.49 902.23,-41.33"/>
<polygon fill="black" stroke="black" points="904.17,-44.24 910.63,-35.83 900.34,-38.38 904.17,-44.24"/>
<text text-anchor="middle" x="905.63" y="-39.63" font-family="Times,serif" font-size="14.00">1</text>
</g>
<!-- w_034.SetSpeedX -->
<g id="node8" class="node">
<title>w_034.SetSpeedX</title>
<g id="a_node8"><a xlink:href="w_034.SetSpeedX.svg" xlink:title="w_034.SetSpeedX">
<ellipse fill="green" stroke="black" cx="1194.34" cy="-18" rx="94.48" ry="18"/>
<text text-anchor="middle" x="1194.34" y="-14.3" font-family="Times,serif" font-size="14.00">w_034.SetSpeedX</text>
</a>
</g>
</g>
<!-- w_034.func_ptr_80170004&#45;&gt;w_034.SetSpeedX -->
<g id="edge7" class="edge">
<title>w_034.func_ptr_80170004&#45;&gt;w_034.SetSpeedX</title>
<path fill="none" stroke="black" d="M711.84,-181.05C810.3,-147.98 1036.1,-72.15 1140.09,-37.22"/>
<polygon fill="black" stroke="black" points="1141.4,-40.47 1149.77,-33.97 1139.18,-33.84 1141.4,-40.47"/>
<text text-anchor="middle" x="1144.77" y="-37.77" font-family="Times,serif" font-size="14.00">1</text>
</g>
<!-- w_034.SetSpriteBank1 -->
<g id="node9" class="node">
<title>w_034.SetSpriteBank1</title>
<g id="a_node9"><a xlink:href="w_034.SetSpriteBank1.svg" xlink:title="w_034.SetSpriteBank1">
<ellipse fill="green" stroke="black" cx="1423.34" cy="-18" rx="116.98" ry="18"/>
<text text-anchor="middle" x="1423.34" y="-14.3" font-family="Times,serif" font-size="14.00">w_034.SetSpriteBank1</text>
</a>
</g>
</g>
<!-- w_034.func_ptr_80170004&#45;&gt;w_034.SetSpriteBank1 -->
<g id="edge8" class="edge">
<title>w_034.func_ptr_80170004&#45;&gt;w_034.SetSpriteBank1</title>
<path fill="none" stroke="black" d="M727.75,-182.13C868.2,-149.19 1204.7,-70.28 1352.12,-35.7"/>
<polygon fill="black" stroke="black" points="1353.04,-39.08 1361.98,-33.39 1351.44,-32.27 1353.04,-39.08"/>
<text text-anchor="middle" x="1356.98" y="-37.19" font-family="Times,serif" font-size="14.00">1</text>
</g>
<!-- w_034.SetWeaponProperties -->
<g id="node10" class="node">
<title>w_034.SetWeaponProperties</title>
<g id="a_node10"><a xlink:href="w_034.SetWeaponProperties.svg" xlink:title="w_034.SetWeaponProperties">
<ellipse fill="green" stroke="black" cx="1702.34" cy="-18" rx="144.07" ry="18"/>
<text text-anchor="middle" x="1702.34" y="-14.3" font-family="Times,serif" font-size="14.00">w_034.SetWeaponProperties</text>
</a>
</g>
</g>
<!-- w_034.func_ptr_80170004&#45;&gt;w_034.SetWeaponProperties -->
<g id="edge9" class="edge">
<title>w_034.func_ptr_80170004&#45;&gt;w_034.SetWeaponProperties</title>
<path fill="none" stroke="black" d="M743.21,-183.47C932.23,-151.06 1410.23,-69.09 1611.16,-34.64"/>
<polygon fill="black" stroke="black" points="1611.83,-38.07 1621.09,-32.93 1610.65,-31.17 1611.83,-38.07"/>
<text text-anchor="middle" x="1616.09" y="-36.73" font-family="Times,serif" font-size="14.00">1</text>
</g>
</g>
</svg>
