<?xml version="1.0" encoding="UTF-8" standalone="no"?>
<!DOCTYPE svg PUBLIC "-//W3C//DTD SVG 1.1//EN"
 "http://www.w3.org/Graphics/SVG/1.1/DTD/svg11.dtd">
<!-- Generated by graphviz version 2.43.0 (0)
 -->
<!-- Title: w_037.func_107000_8017B268 Pages: 1 -->
<svg width="1504pt" height="131pt"
 viewBox="0.00 0.00 1504.19 131.00" xmlns="http://www.w3.org/2000/svg" xmlns:xlink="http://www.w3.org/1999/xlink">
<g id="graph0" class="graph" transform="scale(1 1) rotate(0) translate(4 127)">
<title>w_037.func_107000_8017B268</title>
<polygon fill="white" stroke="transparent" points="-4,4 -4,-127 1500.19,-127 1500.19,4 -4,4"/>
<!-- w_037.func_107000_8017B268 -->
<g id="node1" class="node">
<title>w_037.func_107000_8017B268</title>
<ellipse fill="red" stroke="black" cx="621.5" cy="-105" rx="155.17" ry="18"/>
<text text-anchor="middle" x="621.5" y="-101.3" font-family="Times,serif" font-size="14.00">w_037.func_107000_8017B268</text>
</g>
<!-- rand -->
<g id="node2" class="node">
<title>rand</title>
<g id="a_node2"><a xlink:href="rand.svg" xlink:title="rand">
<ellipse fill="lightblue" stroke="black" cx="32.5" cy="-18" rx="32.49" ry="18"/>
<text text-anchor="middle" x="32.5" y="-14.3" font-family="Times,serif" font-size="14.00">rand</text>
</a>
</g>
</g>
<!-- w_037.func_107000_8017B268&#45;&gt;rand -->
<g id="edge1" class="edge">
<title>w_037.func_107000_8017B268&#45;&gt;rand</title>
<path fill="none" stroke="black" d="M483.07,-96.79C371.35,-88.6 210.88,-71.43 74.5,-36 71.88,-35.32 69.2,-34.51 66.53,-33.63"/>
<polygon fill="black" stroke="black" points="67.6,-30.3 57.01,-30.17 65.21,-36.87 67.6,-30.3"/>
<text text-anchor="middle" x="227.5" y="-57.8" font-family="Times,serif" font-size="14.00">4</text>
</g>
<!-- dra.AllocPrimitives -->
<g id="node3" class="node">
<title>dra.AllocPrimitives</title>
<g id="a_node3"><a xlink:href="dra.AllocPrimitives.svg" xlink:title="dra.AllocPrimitives">
<ellipse fill="green" stroke="black" cx="182.5" cy="-18" rx="99.38" ry="18"/>
<text text-anchor="middle" x="182.5" y="-14.3" font-family="Times,serif" font-size="14.00">dra.AllocPrimitives</text>
</a>
</g>
</g>
<!-- w_037.func_107000_8017B268&#45;&gt;dra.AllocPrimitives -->
<g id="edge2" class="edge">
<title>w_037.func_107000_8017B268&#45;&gt;dra.AllocPrimitives</title>
<path fill="none" stroke="black" d="M545.53,-89.29C464.93,-73.68 338.34,-49.17 257.94,-33.61"/>
<polygon fill="black" stroke="black" points="258.36,-30.12 247.88,-31.66 257.03,-37 258.36,-30.12"/>
<text text-anchor="middle" x="433.5" y="-57.8" font-family="Times,serif" font-size="14.00">1</text>
</g>
<!-- w_037.func_107000_8017B0AC -->
<g id="node4" class="node">
<title>w_037.func_107000_8017B0AC</title>
<g id="a_node4"><a xlink:href="w_037.func_107000_8017B0AC.svg" xlink:title="w_037.func_107000_8017B0AC">
<ellipse fill="red" stroke="black" cx="456.5" cy="-18" rx="156.77" ry="18"/>
<text text-anchor="middle" x="456.5" y="-14.3" font-family="Times,serif" font-size="14.00">w_037.func_107000_8017B0AC</text>
</a>
</g>
</g>
<!-- w_037.func_107000_8017B268&#45;&gt;w_037.func_107000_8017B0AC -->
<g id="edge3" class="edge">
<title>w_037.func_107000_8017B268&#45;&gt;w_037.func_107000_8017B0AC</title>
<path fill="none" stroke="black" d="M588.9,-87.21C562.91,-73.82 526.34,-54.98 498.21,-40.49"/>
<polygon fill="black" stroke="black" points="499.52,-37.23 489.03,-35.76 496.31,-43.45 499.52,-37.23"/>
<text text-anchor="middle" x="554.5" y="-57.8" font-family="Times,serif" font-size="14.00">1</text>
</g>
<!-- w_037.func_107000_8017A7C4 -->
<g id="node5" class="node">
<title>w_037.func_107000_8017A7C4</title>
<g id="a_node5"><a xlink:href="w_037.func_107000_8017A7C4.svg" xlink:title="w_037.func_107000_8017A7C4">
<ellipse fill="red" stroke="black" cx="786.5" cy="-18" rx="155.17" ry="18"/>
<text text-anchor="middle" x="786.5" y="-14.3" font-family="Times,serif" font-size="14.00">w_037.func_107000_8017A7C4</text>
</a>
</g>
</g>
<!-- w_037.func_107000_8017B268&#45;&gt;w_037.func_107000_8017A7C4 -->
<g id="edge4" class="edge">
<title>w_037.func_107000_8017B268&#45;&gt;w_037.func_107000_8017A7C4</title>
<path fill="none" stroke="black" d="M654.1,-87.21C680.17,-73.78 716.89,-54.86 745.05,-40.35"/>
<polygon fill="black" stroke="black" points="746.96,-43.3 754.25,-35.61 743.75,-37.08 746.96,-43.3"/>
<text text-anchor="middle" x="719.5" y="-57.8" font-family="Times,serif" font-size="14.00">1</text>
</g>
<!-- w_037.func_107000_8017ADF8 -->
<g id="node6" class="node">
<title>w_037.func_107000_8017ADF8</title>
<g id="a_node6"><a xlink:href="w_037.func_107000_8017ADF8.svg" xlink:title="w_037.func_107000_8017ADF8">
<ellipse fill="red" stroke="black" cx="1116.5" cy="-18" rx="156.77" ry="18"/>
<text text-anchor="middle" x="1116.5" y="-14.3" font-family="Times,serif" font-size="14.00">w_037.func_107000_8017ADF8</text>
</a>
</g>
</g>
<!-- w_037.func_107000_8017B268&#45;&gt;w_037.func_107000_8017ADF8 -->
<g id="edge5" class="edge">
<title>w_037.func_107000_8017B268&#45;&gt;w_037.func_107000_8017ADF8</title>
<path fill="none" stroke="black" d="M704.35,-89.77C792.42,-74.65 931.4,-50.78 1023.25,-35.01"/>
<polygon fill="black" stroke="black" points="1024.11,-38.42 1033.37,-33.27 1022.93,-31.52 1024.11,-38.42"/>
<text text-anchor="middle" x="904.5" y="-57.8" font-family="Times,serif" font-size="14.00">1</text>
</g>
<!-- dra.func_8011AAFC -->
<g id="node7" class="node">
<title>dra.func_8011AAFC</title>
<g id="a_node7"><a xlink:href="dra.func_8011AAFC.svg" xlink:title="dra.func_8011AAFC">
<ellipse fill="green" stroke="black" cx="1393.5" cy="-18" rx="102.88" ry="18"/>
<text text-anchor="middle" x="1393.5" y="-14.3" font-family="Times,serif" font-size="14.00">dra.func_8011AAFC</text>
</a>
</g>
</g>
<!-- w_037.func_107000_8017B268&#45;&gt;dra.func_8011AAFC -->
<g id="edge6" class="edge">
<title>w_037.func_107000_8017B268&#45;&gt;dra.func_8011AAFC</title>
<path fill="none" stroke="black" d="M741.11,-93.49C873.67,-81.42 1093.69,-60.16 1282.5,-36 1291.51,-34.85 1300.93,-33.55 1310.3,-32.2"/>
<polygon fill="black" stroke="black" points="1311.04,-35.63 1320.43,-30.72 1310.03,-28.7 1311.04,-35.63"/>
<text text-anchor="middle" x="1125.5" y="-57.8" font-family="Times,serif" font-size="14.00">1</text>
</g>
</g>
</svg>
