<?xml version="1.0" encoding="UTF-8" standalone="no"?>
<!DOCTYPE svg PUBLIC "-//W3C//DTD SVG 1.1//EN"
 "http://www.w3.org/Graphics/SVG/1.1/DTD/svg11.dtd">
<!-- Generated by graphviz version 2.43.0 (0)
 -->
<!-- Title: w_040.func_11C000_8017AC14 Pages: 1 -->
<svg width="321pt" height="218pt"
 viewBox="0.00 0.00 321.27 218.00" xmlns="http://www.w3.org/2000/svg" xmlns:xlink="http://www.w3.org/1999/xlink">
<g id="graph0" class="graph" transform="scale(1 1) rotate(0) translate(4 214)">
<title>w_040.func_11C000_8017AC14</title>
<polygon fill="white" stroke="transparent" points="-4,4 -4,-214 317.27,-214 317.27,4 -4,4"/>
<!-- w_040.func_11C000_8017AC14 -->
<g id="node1" class="node">
<title>w_040.func_11C000_8017AC14</title>
<ellipse fill="red" stroke="black" cx="156.64" cy="-105" rx="156.77" ry="18"/>
<text text-anchor="middle" x="156.64" y="-101.3" font-family="Times,serif" font-size="14.00">w_040.func_11C000_8017AC14</text>
</g>
<!-- LoadImage -->
<g id="node2" class="node">
<title>LoadImage</title>
<g id="a_node2"><a xlink:href="LoadImage.svg" xlink:title="LoadImage">
<ellipse fill="lightblue" stroke="black" cx="156.64" cy="-18" rx="61.99" ry="18"/>
<text text-anchor="middle" x="156.64" y="-14.3" font-family="Times,serif" font-size="14.00">LoadImage</text>
</a>
</g>
</g>
<!-- w_040.func_11C000_8017AC14&#45;&gt;LoadImage -->
<g id="edge1" class="edge">
<title>w_040.func_11C000_8017AC14&#45;&gt;LoadImage</title>
<path fill="none" stroke="black" d="M156.64,-86.8C156.64,-75.16 156.64,-59.55 156.64,-46.24"/>
<polygon fill="black" stroke="black" points="160.14,-46.18 156.64,-36.18 153.14,-46.18 160.14,-46.18"/>
<text text-anchor="middle" x="161.64" y="-57.8" font-family="Times,serif" font-size="14.00">1</text>
</g>
<!-- w_040.func_11C000_8017B010 -->
<g id="node3" class="node">
<title>w_040.func_11C000_8017B010</title>
<g id="a_node3"><a xlink:href="w_040.func_11C000_8017B010.svg" xlink:title="w_040.func_11C000_8017B010">
<ellipse fill="red" stroke="black" cx="156.64" cy="-192" rx="155.97" ry="18"/>
<text text-anchor="middle" x="156.64" y="-188.3" font-family="Times,serif" font-size="14.00">w_040.func_11C000_8017B010</text>
</a>
</g>
</g>
<!-- w_040.func_11C000_8017B010&#45;&gt;w_040.func_11C000_8017AC14 -->
<g id="edge2" class="edge">
<title>w_040.func_11C000_8017B010&#45;&gt;w_040.func_11C000_8017AC14</title>
<path fill="none" stroke="black" d="M156.64,-173.8C156.64,-162.16 156.64,-146.55 156.64,-133.24"/>
<polygon fill="black" stroke="black" points="160.14,-133.18 156.64,-123.18 153.14,-133.18 160.14,-133.18"/>
<text text-anchor="middle" x="161.64" y="-144.8" font-family="Times,serif" font-size="14.00">1</text>
</g>
</g>
</svg>
