<?xml version="1.0" encoding="UTF-8" standalone="no"?>
<!DOCTYPE svg PUBLIC "-//W3C//DTD SVG 1.1//EN"
 "http://www.w3.org/Graphics/SVG/1.1/DTD/svg11.dtd">
<!-- Generated by graphviz version 2.43.0 (0)
 -->
<!-- Title: w_049.func_15B000_8017C458 Pages: 1 -->
<svg width="1114pt" height="131pt"
 viewBox="0.00 0.00 1114.33 131.00" xmlns="http://www.w3.org/2000/svg" xmlns:xlink="http://www.w3.org/1999/xlink">
<g id="graph0" class="graph" transform="scale(1 1) rotate(0) translate(4 127)">
<title>w_049.func_15B000_8017C458</title>
<polygon fill="white" stroke="transparent" points="-4,4 -4,-127 1110.33,-127 1110.33,4 -4,4"/>
<!-- w_049.func_15B000_8017C458 -->
<g id="node1" class="node">
<title>w_049.func_15B000_8017C458</title>
<ellipse fill="red" stroke="black" cx="674.64" cy="-105" rx="155.97" ry="18"/>
<text text-anchor="middle" x="674.64" y="-101.3" font-family="Times,serif" font-size="14.00">w_049.func_15B000_8017C458</text>
</g>
<!-- w_049.func_15B000_8017B3F0 -->
<g id="node2" class="node">
<title>w_049.func_15B000_8017B3F0</title>
<g id="a_node2"><a xlink:href="w_049.func_15B000_8017B3F0.svg" xlink:title="w_049.func_15B000_8017B3F0">
<ellipse fill="red" stroke="black" cx="156.64" cy="-18" rx="156.77" ry="18"/>
<text text-anchor="middle" x="156.64" y="-14.3" font-family="Times,serif" font-size="14.00">w_049.func_15B000_8017B3F0</text>
</a>
</g>
</g>
<!-- w_049.func_15B000_8017C458&#45;&gt;w_049.func_15B000_8017B3F0 -->
<g id="edge1" class="edge">
<title>w_049.func_15B000_8017C458&#45;&gt;w_049.func_15B000_8017B3F0</title>
<path fill="none" stroke="black" d="M587.51,-90.04C547.88,-83.67 500.38,-76 457.64,-69 388.57,-57.69 310.63,-44.74 251.37,-34.85"/>
<polygon fill="black" stroke="black" points="251.72,-31.36 241.28,-33.17 250.56,-38.27 251.72,-31.36"/>
<text text-anchor="middle" x="462.64" y="-57.8" font-family="Times,serif" font-size="14.00">1</text>
</g>
<!-- rand -->
<g id="node3" class="node">
<title>rand</title>
<g id="a_node3"><a xlink:href="rand.svg" xlink:title="rand">
<ellipse fill="lightblue" stroke="black" cx="363.64" cy="-18" rx="32.49" ry="18"/>
<text text-anchor="middle" x="363.64" y="-14.3" font-family="Times,serif" font-size="14.00">rand</text>
</a>
</g>
</g>
<!-- w_049.func_15B000_8017C458&#45;&gt;rand -->
<g id="edge2" class="edge">
<title>w_049.func_15B000_8017C458&#45;&gt;rand</title>
<path fill="none" stroke="black" d="M603.93,-88.92C549.24,-76.58 471.91,-57.68 405.64,-36 403.22,-35.21 400.74,-34.34 398.25,-33.44"/>
<polygon fill="black" stroke="black" points="399.34,-30.11 388.75,-29.82 396.84,-36.65 399.34,-30.11"/>
<text text-anchor="middle" x="520.64" y="-57.8" font-family="Times,serif" font-size="14.00">1</text>
</g>
<!-- w_049.func_15B000_8017B14C -->
<g id="node4" class="node">
<title>w_049.func_15B000_8017B14C</title>
<g id="a_node4"><a xlink:href="w_049.func_15B000_8017B14C.svg" xlink:title="w_049.func_15B000_8017B14C">
<ellipse fill="red" stroke="black" cx="571.64" cy="-18" rx="157.07" ry="18"/>
<text text-anchor="middle" x="571.64" y="-14.3" font-family="Times,serif" font-size="14.00">w_049.func_15B000_8017B14C</text>
</a>
</g>
</g>
<!-- w_049.func_15B000_8017C458&#45;&gt;w_049.func_15B000_8017B14C -->
<g id="edge3" class="edge">
<title>w_049.func_15B000_8017C458&#45;&gt;w_049.func_15B000_8017B14C</title>
<path fill="none" stroke="black" d="M653.79,-86.8C638.33,-74.04 617.08,-56.5 600.07,-42.46"/>
<polygon fill="black" stroke="black" points="602.04,-39.55 592.1,-35.89 597.58,-44.95 602.04,-39.55"/>
<text text-anchor="middle" x="634.64" y="-57.8" font-family="Times,serif" font-size="14.00">1</text>
</g>
<!-- rcos -->
<g id="node5" class="node">
<title>rcos</title>
<g id="a_node5"><a xlink:href="rcos.svg" xlink:title="rcos">
<ellipse fill="lightblue" stroke="black" cx="777.64" cy="-18" rx="30.59" ry="18"/>
<text text-anchor="middle" x="777.64" y="-14.3" font-family="Times,serif" font-size="14.00">rcos</text>
</a>
</g>
</g>
<!-- w_049.func_15B000_8017C458&#45;&gt;rcos -->
<g id="edge4" class="edge">
<title>w_049.func_15B000_8017C458&#45;&gt;rcos</title>
<path fill="none" stroke="black" d="M695.48,-86.8C711.95,-73.21 734.99,-54.19 752.49,-39.76"/>
<polygon fill="black" stroke="black" points="755.09,-42.15 760.57,-33.08 750.63,-36.75 755.09,-42.15"/>
<text text-anchor="middle" x="737.64" y="-57.8" font-family="Times,serif" font-size="14.00">1</text>
</g>
<!-- rsin -->
<g id="node6" class="node">
<title>rsin</title>
<g id="a_node6"><a xlink:href="rsin.svg" xlink:title="rsin">
<ellipse fill="lightblue" stroke="black" cx="854.64" cy="-18" rx="28.7" ry="18"/>
<text text-anchor="middle" x="854.64" y="-14.3" font-family="Times,serif" font-size="14.00">rsin</text>
</a>
</g>
</g>
<!-- w_049.func_15B000_8017C458&#45;&gt;rsin -->
<g id="edge5" class="edge">
<title>w_049.func_15B000_8017C458&#45;&gt;rsin</title>
<path fill="none" stroke="black" d="M709.77,-87.41C742.68,-71.87 791.43,-48.85 823.12,-33.88"/>
<polygon fill="black" stroke="black" points="824.82,-36.95 832.37,-29.51 821.83,-30.62 824.82,-36.95"/>
<text text-anchor="middle" x="780.64" y="-57.8" font-family="Times,serif" font-size="14.00">1</text>
</g>
<!-- dra.func_8011AAFC -->
<g id="node7" class="node">
<title>dra.func_8011AAFC</title>
<g id="a_node7"><a xlink:href="dra.func_8011AAFC.svg" xlink:title="dra.func_8011AAFC">
<ellipse fill="green" stroke="black" cx="1003.64" cy="-18" rx="102.88" ry="18"/>
<text text-anchor="middle" x="1003.64" y="-14.3" font-family="Times,serif" font-size="14.00">dra.func_8011AAFC</text>
</a>
</g>
</g>
<!-- w_049.func_15B000_8017C458&#45;&gt;dra.func_8011AAFC -->
<g id="edge6" class="edge">
<title>w_049.func_15B000_8017C458&#45;&gt;dra.func_8011AAFC</title>
<path fill="none" stroke="black" d="M735.36,-88.31C793.02,-73.41 879.42,-51.09 938.49,-35.83"/>
<polygon fill="black" stroke="black" points="939.65,-39.15 948.46,-33.25 937.9,-32.37 939.65,-39.15"/>
<text text-anchor="middle" x="864.64" y="-57.8" font-family="Times,serif" font-size="14.00">1</text>
</g>
</g>
</svg>
