<?xml version="1.0" encoding="UTF-8" standalone="no"?>
<!DOCTYPE svg PUBLIC "-//W3C//DTD SVG 1.1//EN"
 "http://www.w3.org/Graphics/SVG/1.1/DTD/svg11.dtd">
<!-- Generated by graphviz version 2.43.0 (0)
 -->
<!-- Title: w_047.func_ptr_80170004 Pages: 1 -->
<svg width="817pt" height="224pt"
 viewBox="0.00 0.00 816.88 224.00" xmlns="http://www.w3.org/2000/svg" xmlns:xlink="http://www.w3.org/1999/xlink">
<g id="graph0" class="graph" transform="scale(1 1) rotate(0) translate(4 220)">
<title>w_047.func_ptr_80170004</title>
<polygon fill="white" stroke="transparent" points="-4,4 -4,-220 812.88,-220 812.88,4 -4,4"/>
<!-- w_047.func_ptr_80170004 -->
<g id="node1" class="node">
<title>w_047.func_ptr_80170004</title>
<ellipse fill="red" stroke="black" cx="288.9" cy="-198" rx="133.48" ry="18"/>
<text text-anchor="middle" x="288.9" y="-194.3" font-family="Times,serif" font-size="14.00">w_047.func_ptr_80170004</text>
</g>
<!-- main.rcos -->
<g id="node2" class="node">
<title>main.rcos</title>
<g id="a_node2"><a xlink:href="main.rcos.svg" xlink:title="main.rcos">
<ellipse fill="red" stroke="black" cx="55.9" cy="-18" rx="55.79" ry="18"/>
<text text-anchor="middle" x="55.9" y="-14.3" font-family="Times,serif" font-size="14.00">main.rcos</text>
</a>
</g>
</g>
<!-- w_047.func_ptr_80170004&#45;&gt;main.rcos -->
<g id="edge1" class="edge">
<title>w_047.func_ptr_80170004&#45;&gt;main.rcos</title>
<path fill="none" stroke="black" d="M266.55,-179.93C224.11,-147.51 131.87,-77.04 84.79,-41.08"/>
<polygon fill="black" stroke="black" points="86.89,-38.28 76.82,-34.99 82.64,-43.84 86.89,-38.28"/>
<text text-anchor="middle" x="71.82" y="-38.79" font-family="Times,serif" font-size="14.00">1</text>
</g>
<!-- main.rsin -->
<g id="node3" class="node">
<title>main.rsin</title>
<g id="a_node3"><a xlink:href="main.rsin.svg" xlink:title="main.rsin">
<ellipse fill="green" stroke="black" cx="183.9" cy="-18" rx="54.69" ry="18"/>
<text text-anchor="middle" x="183.9" y="-14.3" font-family="Times,serif" font-size="14.00">main.rsin</text>
</a>
</g>
</g>
<!-- w_047.func_ptr_80170004&#45;&gt;main.rsin -->
<g id="edge2" class="edge">
<title>w_047.func_ptr_80170004&#45;&gt;main.rsin</title>
<path fill="none" stroke="black" d="M278.83,-179.93C260.28,-148.49 220.62,-81.26 198.89,-44.43"/>
<polygon fill="black" stroke="black" points="201.87,-42.59 193.78,-35.76 195.85,-46.15 201.87,-42.59"/>
<text text-anchor="middle" x="188.78" y="-39.56" font-family="Times,serif" font-size="14.00">1</text>
</g>
<!-- rand -->
<g id="node4" class="node">
<title>rand</title>
<g id="a_node4"><a xlink:href="rand.svg" xlink:title="rand">
<ellipse fill="lightblue" stroke="black" cx="288.9" cy="-18" rx="32.49" ry="18"/>
<text text-anchor="middle" x="288.9" y="-14.3" font-family="Times,serif" font-size="14.00">rand</text>
</a>
</g>
</g>
<!-- w_047.func_ptr_80170004&#45;&gt;rand -->
<g id="edge3" class="edge">
<title>w_047.func_ptr_80170004&#45;&gt;rand</title>
<path fill="none" stroke="black" d="M288.9,-179.93C288.9,-148.97 288.9,-83.3 288.9,-46.13"/>
<polygon fill="black" stroke="black" points="292.4,-46.02 288.9,-36.02 285.4,-46.02 292.4,-46.02"/>
<text text-anchor="middle" x="283.9" y="-39.82" font-family="Times,serif" font-size="14.00">2</text>
</g>
<!-- w_047.DestroyEntity -->
<g id="node5" class="node">
<title>w_047.DestroyEntity</title>
<g id="a_node5"><a xlink:href="w_047.DestroyEntity.svg" xlink:title="w_047.DestroyEntity">
<ellipse fill="green" stroke="black" cx="447.9" cy="-18" rx="108.58" ry="18"/>
<text text-anchor="middle" x="447.9" y="-14.3" font-family="Times,serif" font-size="14.00">w_047.DestroyEntity</text>
</a>
</g>
</g>
<!-- w_047.func_ptr_80170004&#45;&gt;w_047.DestroyEntity -->
<g id="edge4" class="edge">
<title>w_047.func_ptr_80170004&#45;&gt;w_047.DestroyEntity</title>
<path fill="none" stroke="black" d="M304.14,-179.93C332.4,-148.3 392.99,-80.46 425.76,-43.78"/>
<polygon fill="black" stroke="black" points="428.64,-45.81 432.7,-36.02 423.42,-41.14 428.64,-45.81"/>
<text text-anchor="middle" x="427.7" y="-39.82" font-family="Times,serif" font-size="14.00">1</text>
</g>
<!-- w_047.SetSpriteBank2 -->
<g id="node6" class="node">
<title>w_047.SetSpriteBank2</title>
<g id="a_node6"><a xlink:href="w_047.SetSpriteBank2.svg" xlink:title="w_047.SetSpriteBank2">
<ellipse fill="green" stroke="black" cx="691.9" cy="-18" rx="116.98" ry="18"/>
<text text-anchor="middle" x="691.9" y="-14.3" font-family="Times,serif" font-size="14.00">w_047.SetSpriteBank2</text>
</a>
</g>
</g>
<!-- w_047.func_ptr_80170004&#45;&gt;w_047.SetSpriteBank2 -->
<g id="edge5" class="edge">
<title>w_047.func_ptr_80170004&#45;&gt;w_047.SetSpriteBank2</title>
<path fill="none" stroke="black" d="M326.09,-180.57C400.05,-147.91 565.39,-74.87 645.98,-39.28"/>
<polygon fill="black" stroke="black" points="647.64,-42.37 655.38,-35.13 644.81,-35.97 647.64,-42.37"/>
<text text-anchor="middle" x="650.38" y="-38.93" font-family="Times,serif" font-size="14.00">1</text>
</g>
</g>
</svg>
