<?xml version="1.0" encoding="UTF-8" standalone="no"?>
<!DOCTYPE svg PUBLIC "-//W3C//DTD SVG 1.1//EN"
 "http://www.w3.org/Graphics/SVG/1.1/DTD/svg11.dtd">
<!-- Generated by graphviz version 2.43.0 (0)
 -->
<!-- Title: w_045.func_ptr_80170008 Pages: 1 -->
<svg width="1148pt" height="131pt"
 viewBox="0.00 0.00 1147.68 131.00" xmlns="http://www.w3.org/2000/svg" xmlns:xlink="http://www.w3.org/1999/xlink">
<g id="graph0" class="graph" transform="scale(1 1) rotate(0) translate(4 127)">
<title>w_045.func_ptr_80170008</title>
<polygon fill="white" stroke="transparent" points="-4,4 -4,-127 1143.68,-127 1143.68,4 -4,4"/>
<!-- w_045.func_ptr_80170008 -->
<g id="node1" class="node">
<title>w_045.func_ptr_80170008</title>
<ellipse fill="red" stroke="black" cx="613.99" cy="-105" rx="133.48" ry="18"/>
<text text-anchor="middle" x="613.99" y="-101.3" font-family="Times,serif" font-size="14.00">w_045.func_ptr_80170008</text>
</g>
<!-- w_045.SetSpriteBank1 -->
<g id="node2" class="node">
<title>w_045.SetSpriteBank1</title>
<g id="a_node2"><a xlink:href="w_045.SetSpriteBank1.svg" xlink:title="w_045.SetSpriteBank1">
<ellipse fill="red" stroke="black" cx="116.99" cy="-18" rx="116.98" ry="18"/>
<text text-anchor="middle" x="116.99" y="-14.3" font-family="Times,serif" font-size="14.00">w_045.SetSpriteBank1</text>
</a>
</g>
</g>
<!-- w_045.func_ptr_80170008&#45;&gt;w_045.SetSpriteBank1 -->
<g id="edge1" class="edge">
<title>w_045.func_ptr_80170008&#45;&gt;w_045.SetSpriteBank1</title>
<path fill="none" stroke="black" d="M534.96,-90.48C444.06,-74.94 295.37,-49.51 202.01,-33.54"/>
<polygon fill="black" stroke="black" points="202.48,-30.07 192.03,-31.83 201.3,-36.97 202.48,-30.07"/>
<text text-anchor="middle" x="400.99" y="-57.8" font-family="Times,serif" font-size="14.00">1</text>
</g>
<!-- w_045.SetSpeedX -->
<g id="node3" class="node">
<title>w_045.SetSpeedX</title>
<g id="a_node3"><a xlink:href="w_045.SetSpeedX.svg" xlink:title="w_045.SetSpeedX">
<ellipse fill="red" stroke="black" cx="345.99" cy="-18" rx="94.48" ry="18"/>
<text text-anchor="middle" x="345.99" y="-14.3" font-family="Times,serif" font-size="14.00">w_045.SetSpeedX</text>
</a>
</g>
</g>
<!-- w_045.func_ptr_80170008&#45;&gt;w_045.SetSpeedX -->
<g id="edge2" class="edge">
<title>w_045.func_ptr_80170008&#45;&gt;w_045.SetSpeedX</title>
<path fill="none" stroke="black" d="M564.21,-88.21C518.18,-73.61 449.86,-51.95 401.96,-36.75"/>
<polygon fill="black" stroke="black" points="402.96,-33.4 392.37,-33.71 400.84,-40.07 402.96,-33.4"/>
<text text-anchor="middle" x="501.99" y="-57.8" font-family="Times,serif" font-size="14.00">1</text>
</g>
<!-- w_045.func_13F000_8017A718 -->
<g id="node4" class="node">
<title>w_045.func_13F000_8017A718</title>
<g id="a_node4"><a xlink:href="w_045.func_13F000_8017A718.svg" xlink:title="w_045.func_13F000_8017A718">
<ellipse fill="red" stroke="black" cx="613.99" cy="-18" rx="155.17" ry="18"/>
<text text-anchor="middle" x="613.99" y="-14.3" font-family="Times,serif" font-size="14.00">w_045.func_13F000_8017A718</text>
</a>
</g>
</g>
<!-- w_045.func_ptr_80170008&#45;&gt;w_045.func_13F000_8017A718 -->
<g id="edge3" class="edge">
<title>w_045.func_ptr_80170008&#45;&gt;w_045.func_13F000_8017A718</title>
<path fill="none" stroke="black" d="M613.99,-86.8C613.99,-75.16 613.99,-59.55 613.99,-46.24"/>
<polygon fill="black" stroke="black" points="617.49,-46.18 613.99,-36.18 610.49,-46.18 617.49,-46.18"/>
<text text-anchor="middle" x="618.99" y="-57.8" font-family="Times,serif" font-size="14.00">2</text>
</g>
<!-- dra.PlaySfx -->
<g id="node5" class="node">
<title>dra.PlaySfx</title>
<g id="a_node5"><a xlink:href="dra.PlaySfx.svg" xlink:title="dra.PlaySfx">
<ellipse fill="green" stroke="black" cx="851.99" cy="-18" rx="64.19" ry="18"/>
<text text-anchor="middle" x="851.99" y="-14.3" font-family="Times,serif" font-size="14.00">dra.PlaySfx</text>
</a>
</g>
</g>
<!-- w_045.func_ptr_80170008&#45;&gt;dra.PlaySfx -->
<g id="edge4" class="edge">
<title>w_045.func_ptr_80170008&#45;&gt;dra.PlaySfx</title>
<path fill="none" stroke="black" d="M658.76,-88.01C700.23,-73.2 761.73,-51.23 804.16,-36.08"/>
<polygon fill="black" stroke="black" points="805.47,-39.33 813.71,-32.67 803.11,-32.74 805.47,-39.33"/>
<text text-anchor="middle" x="752.99" y="-57.8" font-family="Times,serif" font-size="14.00">2</text>
</g>
<!-- dra.func_8011AAFC -->
<g id="node6" class="node">
<title>dra.func_8011AAFC</title>
<g id="a_node6"><a xlink:href="dra.func_8011AAFC.svg" xlink:title="dra.func_8011AAFC">
<ellipse fill="green" stroke="black" cx="1036.99" cy="-18" rx="102.88" ry="18"/>
<text text-anchor="middle" x="1036.99" y="-14.3" font-family="Times,serif" font-size="14.00">dra.func_8011AAFC</text>
</a>
</g>
</g>
<!-- w_045.func_ptr_80170008&#45;&gt;dra.func_8011AAFC -->
<g id="edge5" class="edge">
<title>w_045.func_ptr_80170008&#45;&gt;dra.func_8011AAFC</title>
<path fill="none" stroke="black" d="M685.27,-89.68C761.99,-74.26 883.53,-49.84 961.76,-34.12"/>
<polygon fill="black" stroke="black" points="962.91,-37.46 972.02,-32.05 961.53,-30.59 962.91,-37.46"/>
<text text-anchor="middle" x="855.99" y="-57.8" font-family="Times,serif" font-size="14.00">2</text>
</g>
</g>
</svg>
