<?xml version="1.0" encoding="UTF-8" standalone="no"?>
<!DOCTYPE svg PUBLIC "-//W3C//DTD SVG 1.1//EN"
 "http://www.w3.org/Graphics/SVG/1.1/DTD/svg11.dtd">
<!-- Generated by graphviz version 2.43.0 (0)
 -->
<!-- Title: w_046.func_146000_8017AE98 Pages: 1 -->
<svg width="648pt" height="218pt"
 viewBox="0.00 0.00 647.67 218.00" xmlns="http://www.w3.org/2000/svg" xmlns:xlink="http://www.w3.org/1999/xlink">
<g id="graph0" class="graph" transform="scale(1 1) rotate(0) translate(4 214)">
<title>w_046.func_146000_8017AE98</title>
<polygon fill="white" stroke="transparent" points="-4,4 -4,-214 643.67,-214 643.67,4 -4,4"/>
<!-- w_046.func_146000_8017AE98 -->
<g id="node1" class="node">
<title>w_046.func_146000_8017AE98</title>
<ellipse fill="red" stroke="black" cx="319.34" cy="-105" rx="155.17" ry="18"/>
<text text-anchor="middle" x="319.34" y="-101.3" font-family="Times,serif" font-size="14.00">w_046.func_146000_8017AE98</text>
</g>
<!-- w_046.func_146000_8017AC64 -->
<g id="node2" class="node">
<title>w_046.func_146000_8017AC64</title>
<g id="a_node2"><a xlink:href="w_046.func_146000_8017AC64.svg" xlink:title="w_046.func_146000_8017AC64">
<ellipse fill="red" stroke="black" cx="319.34" cy="-18" rx="155.17" ry="18"/>
<text text-anchor="middle" x="319.34" y="-14.3" font-family="Times,serif" font-size="14.00">w_046.func_146000_8017AC64</text>
</a>
</g>
</g>
<!-- w_046.func_146000_8017AE98&#45;&gt;w_046.func_146000_8017AC64 -->
<g id="edge1" class="edge">
<title>w_046.func_146000_8017AE98&#45;&gt;w_046.func_146000_8017AC64</title>
<path fill="none" stroke="black" d="M319.34,-86.8C319.34,-75.16 319.34,-59.55 319.34,-46.24"/>
<polygon fill="black" stroke="black" points="322.84,-46.18 319.34,-36.18 315.84,-46.18 322.84,-46.18"/>
<text text-anchor="middle" x="324.34" y="-57.8" font-family="Times,serif" font-size="14.00">2</text>
</g>
<!-- w_046.func_146000_8017B698 -->
<g id="node3" class="node">
<title>w_046.func_146000_8017B698</title>
<g id="a_node3"><a xlink:href="w_046.func_146000_8017B698.svg" xlink:title="w_046.func_146000_8017B698">
<ellipse fill="red" stroke="black" cx="155.34" cy="-192" rx="155.17" ry="18"/>
<text text-anchor="middle" x="155.34" y="-188.3" font-family="Times,serif" font-size="14.00">w_046.func_146000_8017B698</text>
</a>
</g>
</g>
<!-- w_046.func_146000_8017B698&#45;&gt;w_046.func_146000_8017AE98 -->
<g id="edge2" class="edge">
<title>w_046.func_146000_8017B698&#45;&gt;w_046.func_146000_8017AE98</title>
<path fill="none" stroke="black" d="M187.74,-174.21C213.65,-160.78 250.15,-141.86 278.14,-127.35"/>
<polygon fill="black" stroke="black" points="280.01,-130.32 287.28,-122.61 276.79,-124.11 280.01,-130.32"/>
<text text-anchor="middle" x="252.34" y="-144.8" font-family="Times,serif" font-size="14.00">1</text>
</g>
<!-- w_046.func_146000_8017B004 -->
<g id="node4" class="node">
<title>w_046.func_146000_8017B004</title>
<g id="a_node4"><a xlink:href="w_046.func_146000_8017B004.svg" xlink:title="w_046.func_146000_8017B004">
<ellipse fill="red" stroke="black" cx="484.34" cy="-192" rx="155.17" ry="18"/>
<text text-anchor="middle" x="484.34" y="-188.3" font-family="Times,serif" font-size="14.00">w_046.func_146000_8017B004</text>
</a>
</g>
</g>
<!-- w_046.func_146000_8017B004&#45;&gt;w_046.func_146000_8017AE98 -->
<g id="edge3" class="edge">
<title>w_046.func_146000_8017B004&#45;&gt;w_046.func_146000_8017AE98</title>
<path fill="none" stroke="black" d="M451.74,-174.21C425.66,-160.78 388.94,-141.86 360.78,-127.35"/>
<polygon fill="black" stroke="black" points="362.08,-124.08 351.59,-122.61 358.87,-130.3 362.08,-124.08"/>
<text text-anchor="middle" x="417.34" y="-144.8" font-family="Times,serif" font-size="14.00">1</text>
</g>
</g>
</svg>
