<?xml version="1.0" encoding="UTF-8" standalone="no"?>
<!DOCTYPE svg PUBLIC "-//W3C//DTD SVG 1.1//EN"
 "http://www.w3.org/Graphics/SVG/1.1/DTD/svg11.dtd">
<!-- Generated by graphviz version 2.43.0 (0)
 -->
<!-- Title: w_048.func_154000_8017BF4C Pages: 1 -->
<svg width="837pt" height="131pt"
 viewBox="0.00 0.00 836.78 131.00" xmlns="http://www.w3.org/2000/svg" xmlns:xlink="http://www.w3.org/1999/xlink">
<g id="graph0" class="graph" transform="scale(1 1) rotate(0) translate(4 127)">
<title>w_048.func_154000_8017BF4C</title>
<polygon fill="white" stroke="transparent" points="-4,4 -4,-127 832.78,-127 832.78,4 -4,4"/>
<!-- w_048.func_154000_8017BF4C -->
<g id="node1" class="node">
<title>w_048.func_154000_8017BF4C</title>
<ellipse fill="red" stroke="black" cx="324.44" cy="-105" rx="156.77" ry="18"/>
<text text-anchor="middle" x="324.44" y="-101.3" font-family="Times,serif" font-size="14.00">w_048.func_154000_8017BF4C</text>
</g>
<!-- dra.AllocPrimitives -->
<g id="node2" class="node">
<title>dra.AllocPrimitives</title>
<g id="a_node2"><a xlink:href="dra.AllocPrimitives.svg" xlink:title="dra.AllocPrimitives">
<ellipse fill="green" stroke="black" cx="99.44" cy="-18" rx="99.38" ry="18"/>
<text text-anchor="middle" x="99.44" y="-14.3" font-family="Times,serif" font-size="14.00">dra.AllocPrimitives</text>
</a>
</g>
</g>
<!-- w_048.func_154000_8017BF4C&#45;&gt;dra.AllocPrimitives -->
<g id="edge1" class="edge">
<title>w_048.func_154000_8017BF4C&#45;&gt;dra.AllocPrimitives</title>
<path fill="none" stroke="black" d="M281.06,-87.61C243.62,-73.47 189.52,-53.03 150.1,-38.14"/>
<polygon fill="black" stroke="black" points="151.01,-34.74 140.42,-34.48 148.53,-41.29 151.01,-34.74"/>
<text text-anchor="middle" x="230.44" y="-57.8" font-family="Times,serif" font-size="14.00">1</text>
</g>
<!-- rcos -->
<g id="node3" class="node">
<title>rcos</title>
<g id="a_node3"><a xlink:href="rcos.svg" xlink:title="rcos">
<ellipse fill="lightblue" stroke="black" cx="247.44" cy="-18" rx="30.59" ry="18"/>
<text text-anchor="middle" x="247.44" y="-14.3" font-family="Times,serif" font-size="14.00">rcos</text>
</a>
</g>
</g>
<!-- w_048.func_154000_8017BF4C&#45;&gt;rcos -->
<g id="edge2" class="edge">
<title>w_048.func_154000_8017BF4C&#45;&gt;rcos</title>
<path fill="none" stroke="black" d="M308.86,-86.8C297.07,-73.78 280.77,-55.79 267.92,-41.61"/>
<polygon fill="black" stroke="black" points="270.5,-39.24 261.19,-34.18 265.31,-43.94 270.5,-39.24"/>
<text text-anchor="middle" x="296.44" y="-57.8" font-family="Times,serif" font-size="14.00">4</text>
</g>
<!-- rsin -->
<g id="node4" class="node">
<title>rsin</title>
<g id="a_node4"><a xlink:href="rsin.svg" xlink:title="rsin">
<ellipse fill="lightblue" stroke="black" cx="324.44" cy="-18" rx="28.7" ry="18"/>
<text text-anchor="middle" x="324.44" y="-14.3" font-family="Times,serif" font-size="14.00">rsin</text>
</a>
</g>
</g>
<!-- w_048.func_154000_8017BF4C&#45;&gt;rsin -->
<g id="edge3" class="edge">
<title>w_048.func_154000_8017BF4C&#45;&gt;rsin</title>
<path fill="none" stroke="black" d="M324.44,-86.8C324.44,-75.16 324.44,-59.55 324.44,-46.24"/>
<polygon fill="black" stroke="black" points="327.94,-46.18 324.44,-36.18 320.94,-46.18 327.94,-46.18"/>
<text text-anchor="middle" x="329.44" y="-57.8" font-family="Times,serif" font-size="14.00">4</text>
</g>
<!-- dra.PlaySfx -->
<g id="node5" class="node">
<title>dra.PlaySfx</title>
<g id="a_node5"><a xlink:href="dra.PlaySfx.svg" xlink:title="dra.PlaySfx">
<ellipse fill="green" stroke="black" cx="435.44" cy="-18" rx="64.19" ry="18"/>
<text text-anchor="middle" x="435.44" y="-14.3" font-family="Times,serif" font-size="14.00">dra.PlaySfx</text>
</a>
</g>
</g>
<!-- w_048.func_154000_8017BF4C&#45;&gt;dra.PlaySfx -->
<g id="edge4" class="edge">
<title>w_048.func_154000_8017BF4C&#45;&gt;dra.PlaySfx</title>
<path fill="none" stroke="black" d="M346.64,-87C363.75,-73.9 387.58,-55.65 406.24,-41.36"/>
<polygon fill="black" stroke="black" points="408.6,-43.96 414.41,-35.1 404.34,-38.4 408.6,-43.96"/>
<text text-anchor="middle" x="392.44" y="-57.8" font-family="Times,serif" font-size="14.00">1</text>
</g>
<!-- w_048.func_154000_8017B050 -->
<g id="node6" class="node">
<title>w_048.func_154000_8017B050</title>
<g id="a_node6"><a xlink:href="w_048.func_154000_8017B050.svg" xlink:title="w_048.func_154000_8017B050">
<ellipse fill="red" stroke="black" cx="673.44" cy="-18" rx="155.17" ry="18"/>
<text text-anchor="middle" x="673.44" y="-14.3" font-family="Times,serif" font-size="14.00">w_048.func_154000_8017B050</text>
</a>
</g>
</g>
<!-- w_048.func_154000_8017BF4C&#45;&gt;w_048.func_154000_8017B050 -->
<g id="edge5" class="edge">
<title>w_048.func_154000_8017BF4C&#45;&gt;w_048.func_154000_8017B050</title>
<path fill="none" stroke="black" d="M388.05,-88.51C447.86,-73.94 537.35,-52.14 600.14,-36.85"/>
<polygon fill="black" stroke="black" points="601.09,-40.22 609.98,-34.46 599.43,-33.42 601.09,-40.22"/>
<text text-anchor="middle" x="525.44" y="-57.8" font-family="Times,serif" font-size="14.00">1</text>
</g>
</g>
</svg>
