<?xml version="1.0" encoding="UTF-8" standalone="no"?>
<!DOCTYPE svg PUBLIC "-//W3C//DTD SVG 1.1//EN"
 "http://www.w3.org/Graphics/SVG/1.1/DTD/svg11.dtd">
<!-- Generated by graphviz version 2.43.0 (0)
 -->
<!-- Title: w_049.func_15B000_8017C14C Pages: 1 -->
<svg width="1400pt" height="131pt"
 viewBox="0.00 0.00 1399.57 131.00" xmlns="http://www.w3.org/2000/svg" xmlns:xlink="http://www.w3.org/1999/xlink">
<g id="graph0" class="graph" transform="scale(1 1) rotate(0) translate(4 127)">
<title>w_049.func_15B000_8017C14C</title>
<polygon fill="white" stroke="transparent" points="-4,4 -4,-127 1395.57,-127 1395.57,4 -4,4"/>
<!-- w_049.func_15B000_8017C14C -->
<g id="node1" class="node">
<title>w_049.func_15B000_8017C14C</title>
<ellipse fill="red" stroke="black" cx="571.29" cy="-105" rx="157.07" ry="18"/>
<text text-anchor="middle" x="571.29" y="-101.3" font-family="Times,serif" font-size="14.00">w_049.func_15B000_8017C14C</text>
</g>
<!-- w_049.func_15B000_8017B88C -->
<g id="node2" class="node">
<title>w_049.func_15B000_8017B88C</title>
<g id="a_node2"><a xlink:href="w_049.func_15B000_8017B88C.svg" xlink:title="w_049.func_15B000_8017B88C">
<ellipse fill="red" stroke="black" cx="157.29" cy="-18" rx="157.07" ry="18"/>
<text text-anchor="middle" x="157.29" y="-14.3" font-family="Times,serif" font-size="14.00">w_049.func_15B000_8017B88C</text>
</a>
</g>
</g>
<!-- w_049.func_15B000_8017C14C&#45;&gt;w_049.func_15B000_8017B88C -->
<g id="edge1" class="edge">
<title>w_049.func_15B000_8017C14C&#45;&gt;w_049.func_15B000_8017B88C</title>
<path fill="none" stroke="black" d="M498.22,-89C426.02,-74.18 315.72,-51.53 240.26,-36.04"/>
<polygon fill="black" stroke="black" points="240.81,-32.58 230.31,-33.99 239.4,-39.43 240.81,-32.58"/>
<text text-anchor="middle" x="394.29" y="-57.8" font-family="Times,serif" font-size="14.00">1</text>
</g>
<!-- rand -->
<g id="node3" class="node">
<title>rand</title>
<g id="a_node3"><a xlink:href="rand.svg" xlink:title="rand">
<ellipse fill="lightblue" stroke="black" cx="365.29" cy="-18" rx="32.49" ry="18"/>
<text text-anchor="middle" x="365.29" y="-14.3" font-family="Times,serif" font-size="14.00">rand</text>
</a>
</g>
</g>
<!-- w_049.func_15B000_8017C14C&#45;&gt;rand -->
<g id="edge2" class="edge">
<title>w_049.func_15B000_8017C14C&#45;&gt;rand</title>
<path fill="none" stroke="black" d="M531.27,-87.54C497.85,-73.78 448.95,-53.64 406.29,-36 404.2,-35.14 402.06,-34.25 399.9,-33.36"/>
<polygon fill="black" stroke="black" points="401.01,-30.03 390.43,-29.44 398.33,-36.5 401.01,-30.03"/>
<text text-anchor="middle" x="488.29" y="-57.8" font-family="Times,serif" font-size="14.00">6</text>
</g>
<!-- w_049.func_15B000_8017B278 -->
<g id="node4" class="node">
<title>w_049.func_15B000_8017B278</title>
<g id="a_node4"><a xlink:href="w_049.func_15B000_8017B278.svg" xlink:title="w_049.func_15B000_8017B278">
<ellipse fill="red" stroke="black" cx="571.29" cy="-18" rx="155.97" ry="18"/>
<text text-anchor="middle" x="571.29" y="-14.3" font-family="Times,serif" font-size="14.00">w_049.func_15B000_8017B278</text>
</a>
</g>
</g>
<!-- w_049.func_15B000_8017C14C&#45;&gt;w_049.func_15B000_8017B278 -->
<g id="edge3" class="edge">
<title>w_049.func_15B000_8017C14C&#45;&gt;w_049.func_15B000_8017B278</title>
<path fill="none" stroke="black" d="M571.29,-86.8C571.29,-75.16 571.29,-59.55 571.29,-46.24"/>
<polygon fill="black" stroke="black" points="574.79,-46.18 571.29,-36.18 567.79,-46.18 574.79,-46.18"/>
<text text-anchor="middle" x="576.29" y="-57.8" font-family="Times,serif" font-size="14.00">1</text>
</g>
<!-- w_049.func_15B000_8017B3F0 -->
<g id="node5" class="node">
<title>w_049.func_15B000_8017B3F0</title>
<g id="a_node5"><a xlink:href="w_049.func_15B000_8017B3F0.svg" xlink:title="w_049.func_15B000_8017B3F0">
<ellipse fill="red" stroke="black" cx="902.29" cy="-18" rx="156.77" ry="18"/>
<text text-anchor="middle" x="902.29" y="-14.3" font-family="Times,serif" font-size="14.00">w_049.func_15B000_8017B3F0</text>
</a>
</g>
</g>
<!-- w_049.func_15B000_8017C14C&#45;&gt;w_049.func_15B000_8017B3F0 -->
<g id="edge4" class="edge">
<title>w_049.func_15B000_8017C14C&#45;&gt;w_049.func_15B000_8017B3F0</title>
<path fill="none" stroke="black" d="M632.38,-88.31C688.71,-73.85 772.32,-52.38 831.53,-37.17"/>
<polygon fill="black" stroke="black" points="832.73,-40.48 841.55,-34.6 830.99,-33.7 832.73,-40.48"/>
<text text-anchor="middle" x="762.29" y="-57.8" font-family="Times,serif" font-size="14.00">1</text>
</g>
<!-- w_049.func_15B000_8017B14C -->
<g id="node6" class="node">
<title>w_049.func_15B000_8017B14C</title>
<g id="a_node6"><a xlink:href="w_049.func_15B000_8017B14C.svg" xlink:title="w_049.func_15B000_8017B14C">
<ellipse fill="red" stroke="black" cx="1234.29" cy="-18" rx="157.07" ry="18"/>
<text text-anchor="middle" x="1234.29" y="-14.3" font-family="Times,serif" font-size="14.00">w_049.func_15B000_8017B14C</text>
</a>
</g>
</g>
<!-- w_049.func_15B000_8017C14C&#45;&gt;w_049.func_15B000_8017B14C -->
<g id="edge5" class="edge">
<title>w_049.func_15B000_8017C14C&#45;&gt;w_049.func_15B000_8017B14C</title>
<path fill="none" stroke="black" d="M671.62,-91.14C793.31,-75.54 997.74,-49.33 1123.82,-33.16"/>
<polygon fill="black" stroke="black" points="1124.41,-36.62 1133.89,-31.87 1123.52,-29.67 1124.41,-36.62"/>
<text text-anchor="middle" x="948.29" y="-57.8" font-family="Times,serif" font-size="14.00">1</text>
</g>
</g>
</svg>
