<?xml version="1.0" encoding="UTF-8" standalone="no"?>
<!DOCTYPE svg PUBLIC "-//W3C//DTD SVG 1.1//EN"
 "http://www.w3.org/Graphics/SVG/1.1/DTD/svg11.dtd">
<!-- Generated by graphviz version 2.43.0 (0)
 -->
<!-- Title: w_047.EntityWeaponAttack Pages: 1 -->
<svg width="3153pt" height="224pt"
 viewBox="0.00 0.00 3153.03 224.00" xmlns="http://www.w3.org/2000/svg" xmlns:xlink="http://www.w3.org/1999/xlink">
<g id="graph0" class="graph" transform="scale(1 1) rotate(0) translate(4 220)">
<title>w_047.EntityWeaponAttack</title>
<polygon fill="white" stroke="transparent" points="-4,4 -4,-220 3149.03,-220 3149.03,4 -4,4"/>
<!-- w_047.EntityWeaponAttack -->
<g id="node1" class="node">
<title>w_047.EntityWeaponAttack</title>
<ellipse fill="red" stroke="black" cx="1570.74" cy="-198" rx="138.38" ry="18"/>
<text text-anchor="middle" x="1570.74" y="-194.3" font-family="Times,serif" font-size="14.00">w_047.EntityWeaponAttack</text>
</g>
<!-- LoadImage -->
<g id="node2" class="node">
<title>LoadImage</title>
<g id="a_node2"><a xlink:href="LoadImage.svg" xlink:title="LoadImage">
<ellipse fill="lightblue" stroke="black" cx="61.74" cy="-18" rx="61.99" ry="18"/>
<text text-anchor="middle" x="61.74" y="-14.3" font-family="Times,serif" font-size="14.00">LoadImage</text>
</a>
</g>
</g>
<!-- w_047.EntityWeaponAttack&#45;&gt;LoadImage -->
<g id="edge1" class="edge">
<title>w_047.EntityWeaponAttack&#45;&gt;LoadImage</title>
<path fill="none" stroke="black" d="M1452.14,-188.71C1205.26,-170.35 618.68,-121.04 132.74,-36 127.36,-35.06 121.78,-33.95 116.21,-32.76"/>
<polygon fill="black" stroke="black" points="116.78,-29.3 106.26,-30.55 115.26,-36.14 116.78,-29.3"/>
<text text-anchor="middle" x="101.26" y="-34.35" font-family="Times,serif" font-size="14.00">1</text>
</g>
<!-- dra.AllocPrimitives -->
<g id="node3" class="node">
<title>dra.AllocPrimitives</title>
<g id="a_node3"><a xlink:href="dra.AllocPrimitives.svg" xlink:title="dra.AllocPrimitives">
<ellipse fill="green" stroke="black" cx="240.74" cy="-18" rx="99.38" ry="18"/>
<text text-anchor="middle" x="240.74" y="-14.3" font-family="Times,serif" font-size="14.00">dra.AllocPrimitives</text>
</a>
</g>
</g>
<!-- w_047.EntityWeaponAttack&#45;&gt;dra.AllocPrimitives -->
<g id="edge2" class="edge">
<title>w_047.EntityWeaponAttack&#45;&gt;dra.AllocPrimitives</title>
<path fill="none" stroke="black" d="M1474.08,-185.04C1267.5,-159.31 767.72,-96.14 349.74,-36 341.07,-34.75 332.01,-33.41 322.98,-32.04"/>
<polygon fill="black" stroke="black" points="323.24,-28.54 312.83,-30.49 322.18,-35.46 323.24,-28.54"/>
<text text-anchor="middle" x="307.83" y="-34.29" font-family="Times,serif" font-size="14.00">1</text>
</g>
<!-- dra.CheckCollision -->
<g id="node4" class="node">
<title>dra.CheckCollision</title>
<g id="a_node4"><a xlink:href="dra.CheckCollision.svg" xlink:title="dra.CheckCollision">
<ellipse fill="green" stroke="black" cx="455.74" cy="-18" rx="97.48" ry="18"/>
<text text-anchor="middle" x="455.74" y="-14.3" font-family="Times,serif" font-size="14.00">dra.CheckCollision</text>
</a>
</g>
</g>
<!-- w_047.EntityWeaponAttack&#45;&gt;dra.CheckCollision -->
<g id="edge3" class="edge">
<title>w_047.EntityWeaponAttack&#45;&gt;dra.CheckCollision</title>
<path fill="none" stroke="black" d="M1486.94,-183.62C1279.13,-150.45 742.1,-64.71 537.01,-31.97"/>
<polygon fill="black" stroke="black" points="537.33,-28.48 526.91,-30.36 536.23,-35.39 537.33,-28.48"/>
<text text-anchor="middle" x="521.91" y="-34.16" font-family="Times,serif" font-size="14.00">1</text>
</g>
<!-- dra.PlaySfx -->
<g id="node5" class="node">
<title>dra.PlaySfx</title>
<g id="a_node5"><a xlink:href="dra.PlaySfx.svg" xlink:title="dra.PlaySfx">
<ellipse fill="green" stroke="black" cx="635.74" cy="-18" rx="64.19" ry="18"/>
<text text-anchor="middle" x="635.74" y="-14.3" font-family="Times,serif" font-size="14.00">dra.PlaySfx</text>
</a>
</g>
</g>
<!-- w_047.EntityWeaponAttack&#45;&gt;dra.PlaySfx -->
<g id="edge4" class="edge">
<title>w_047.EntityWeaponAttack&#45;&gt;dra.PlaySfx</title>
<path fill="none" stroke="black" d="M1490.59,-183.25C1337.99,-156.8 995.38,-96.11 708.74,-36 703.49,-34.9 698.04,-33.71 692.58,-32.49"/>
<polygon fill="black" stroke="black" points="693.33,-29.07 682.8,-30.28 691.78,-35.9 693.33,-29.07"/>
<text text-anchor="middle" x="677.8" y="-34.08" font-family="Times,serif" font-size="14.00">4</text>
</g>
<!-- dra.func_80102CD8 -->
<g id="node6" class="node">
<title>dra.func_80102CD8</title>
<g id="a_node6"><a xlink:href="dra.func_80102CD8.svg" xlink:title="dra.func_80102CD8">
<ellipse fill="green" stroke="black" cx="820.74" cy="-18" rx="102.88" ry="18"/>
<text text-anchor="middle" x="820.74" y="-14.3" font-family="Times,serif" font-size="14.00">dra.func_80102CD8</text>
</a>
</g>
</g>
<!-- w_047.EntityWeaponAttack&#45;&gt;dra.func_80102CD8 -->
<g id="edge5" class="edge">
<title>w_047.EntityWeaponAttack&#45;&gt;dra.func_80102CD8</title>
<path fill="none" stroke="black" d="M1507.45,-181.98C1367.68,-148.81 1033.71,-69.54 889.25,-35.26"/>
<polygon fill="black" stroke="black" points="889.72,-31.77 879.19,-32.87 888.11,-38.58 889.72,-31.77"/>
<text text-anchor="middle" x="874.19" y="-36.67" font-family="Times,serif" font-size="14.00">1</text>
</g>
<!-- dra.func_80118894 -->
<g id="node7" class="node">
<title>dra.func_80118894</title>
<g id="a_node7"><a xlink:href="dra.func_80118894.svg" xlink:title="dra.func_80118894">
<ellipse fill="green" stroke="black" cx="1041.74" cy="-18" rx="100.98" ry="18"/>
<text text-anchor="middle" x="1041.74" y="-14.3" font-family="Times,serif" font-size="14.00">dra.func_80118894</text>
</a>
</g>
</g>
<!-- w_047.EntityWeaponAttack&#45;&gt;dra.func_80118894 -->
<g id="edge6" class="edge">
<title>w_047.EntityWeaponAttack&#45;&gt;dra.func_80118894</title>
<path fill="none" stroke="black" d="M1523.33,-181.05C1425.31,-148.06 1200.81,-72.52 1096.67,-37.48"/>
<polygon fill="black" stroke="black" points="1097.57,-34.09 1086.98,-34.22 1095.34,-40.73 1097.57,-34.09"/>
<text text-anchor="middle" x="1081.98" y="-38.02" font-family="Times,serif" font-size="14.00">1</text>
</g>
<!-- dra.func_8011AAFC -->
<g id="node8" class="node">
<title>dra.func_8011AAFC</title>
<g id="a_node8"><a xlink:href="dra.func_8011AAFC.svg" xlink:title="dra.func_8011AAFC">
<ellipse fill="green" stroke="black" cx="1262.74" cy="-18" rx="102.88" ry="18"/>
<text text-anchor="middle" x="1262.74" y="-14.3" font-family="Times,serif" font-size="14.00">dra.func_8011AAFC</text>
</a>
</g>
</g>
<!-- w_047.EntityWeaponAttack&#45;&gt;dra.func_8011AAFC -->
<g id="edge7" class="edge">
<title>w_047.EntityWeaponAttack&#45;&gt;dra.func_8011AAFC</title>
<path fill="none" stroke="black" d="M1541.77,-180.25C1485.53,-147.75 1361.69,-76.18 1299.66,-40.33"/>
<polygon fill="black" stroke="black" points="1301.38,-37.29 1290.97,-35.31 1297.88,-43.35 1301.38,-37.29"/>
<text text-anchor="middle" x="1285.97" y="-39.11" font-family="Times,serif" font-size="14.00">1</text>
</g>
<!-- g_api_CheckCollision -->
<g id="node9" class="node">
<title>g_api_CheckCollision</title>
<g id="a_node9"><a xlink:href="g_api_CheckCollision.svg" xlink:title="g_api_CheckCollision">
<ellipse fill="lightblue" stroke="black" cx="1491.74" cy="-18" rx="107.78" ry="18"/>
<text text-anchor="middle" x="1491.74" y="-14.3" font-family="Times,serif" font-size="14.00">g_api_CheckCollision</text>
</a>
</g>
</g>
<!-- w_047.EntityWeaponAttack&#45;&gt;g_api_CheckCollision -->
<g id="edge8" class="edge">
<title>w_047.EntityWeaponAttack&#45;&gt;g_api_CheckCollision</title>
<path fill="none" stroke="black" d="M1563.17,-179.93C1549.31,-148.7 1519.78,-82.17 1503.36,-45.18"/>
<polygon fill="black" stroke="black" points="1506.55,-43.74 1499.3,-36.02 1500.15,-46.58 1506.55,-43.74"/>
<text text-anchor="middle" x="1494.3" y="-39.82" font-family="Times,serif" font-size="14.00">2</text>
</g>
<!-- rand -->
<g id="node10" class="node">
<title>rand</title>
<g id="a_node10"><a xlink:href="rand.svg" xlink:title="rand">
<ellipse fill="lightblue" stroke="black" cx="1649.74" cy="-18" rx="32.49" ry="18"/>
<text text-anchor="middle" x="1649.74" y="-14.3" font-family="Times,serif" font-size="14.00">rand</text>
</a>
</g>
</g>
<!-- w_047.EntityWeaponAttack&#45;&gt;rand -->
<g id="edge9" class="edge">
<title>w_047.EntityWeaponAttack&#45;&gt;rand</title>
<path fill="none" stroke="black" d="M1578.32,-179.93C1592.16,-148.75 1621.61,-82.4 1638.04,-45.37"/>
<polygon fill="black" stroke="black" points="1641.45,-46.32 1642.31,-35.76 1635.05,-43.48 1641.45,-46.32"/>
<text text-anchor="middle" x="1637.31" y="-39.56" font-family="Times,serif" font-size="14.00">5</text>
</g>
<!-- rcos -->
<g id="node11" class="node">
<title>rcos</title>
<g id="a_node11"><a xlink:href="rcos.svg" xlink:title="rcos">
<ellipse fill="lightblue" stroke="black" cx="1730.74" cy="-18" rx="30.59" ry="18"/>
<text text-anchor="middle" x="1730.74" y="-14.3" font-family="Times,serif" font-size="14.00">rcos</text>
</a>
</g>
</g>
<!-- w_047.EntityWeaponAttack&#45;&gt;rcos -->
<g id="edge10" class="edge">
<title>w_047.EntityWeaponAttack&#45;&gt;rcos</title>
<path fill="none" stroke="black" d="M1586.09,-179.93C1615.03,-147.74 1677.69,-78.02 1710.22,-41.84"/>
<polygon fill="black" stroke="black" points="1712.97,-44.01 1717.05,-34.23 1707.77,-39.33 1712.97,-44.01"/>
<text text-anchor="middle" x="1712.05" y="-38.03" font-family="Times,serif" font-size="14.00">4</text>
</g>
<!-- rsin -->
<g id="node12" class="node">
<title>rsin</title>
<g id="a_node12"><a xlink:href="rsin.svg" xlink:title="rsin">
<ellipse fill="lightblue" stroke="black" cx="1807.74" cy="-18" rx="28.7" ry="18"/>
<text text-anchor="middle" x="1807.74" y="-14.3" font-family="Times,serif" font-size="14.00">rsin</text>
</a>
</g>
</g>
<!-- w_047.EntityWeaponAttack&#45;&gt;rsin -->
<g id="edge11" class="edge">
<title>w_047.EntityWeaponAttack&#45;&gt;rsin</title>
<path fill="none" stroke="black" d="M1593.47,-179.93C1637.75,-146.67 1735.33,-73.39 1781.95,-38.37"/>
<polygon fill="black" stroke="black" points="1784.15,-41.1 1790.04,-32.29 1779.95,-35.5 1784.15,-41.1"/>
<text text-anchor="middle" x="1785.04" y="-36.09" font-family="Times,serif" font-size="14.00">4</text>
</g>
<!-- w_047.DestroyEntity -->
<g id="node13" class="node">
<title>w_047.DestroyEntity</title>
<g id="a_node13"><a xlink:href="w_047.DestroyEntity.svg" xlink:title="w_047.DestroyEntity">
<ellipse fill="green" stroke="black" cx="1962.74" cy="-18" rx="108.58" ry="18"/>
<text text-anchor="middle" x="1962.74" y="-14.3" font-family="Times,serif" font-size="14.00">w_047.DestroyEntity</text>
</a>
</g>
</g>
<!-- w_047.EntityWeaponAttack&#45;&gt;w_047.DestroyEntity -->
<g id="edge12" class="edge">
<title>w_047.EntityWeaponAttack&#45;&gt;w_047.DestroyEntity</title>
<path fill="none" stroke="black" d="M1606.92,-180.57C1678.86,-147.91 1839.7,-74.87 1918.08,-39.28"/>
<polygon fill="black" stroke="black" points="1919.56,-42.45 1927.22,-35.13 1916.67,-36.08 1919.56,-42.45"/>
<text text-anchor="middle" x="1922.22" y="-38.93" font-family="Times,serif" font-size="14.00">1</text>
</g>
<!-- w_047.DestroyEntityWeapon -->
<g id="node14" class="node">
<title>w_047.DestroyEntityWeapon</title>
<g id="a_node14"><a xlink:href="w_047.DestroyEntityWeapon.svg" xlink:title="w_047.DestroyEntityWeapon">
<ellipse fill="green" stroke="black" cx="2234.74" cy="-18" rx="145.67" ry="18"/>
<text text-anchor="middle" x="2234.74" y="-14.3" font-family="Times,serif" font-size="14.00">w_047.DestroyEntityWeapon</text>
</a>
</g>
</g>
<!-- w_047.EntityWeaponAttack&#45;&gt;w_047.DestroyEntityWeapon -->
<g id="edge13" class="edge">
<title>w_047.EntityWeaponAttack&#45;&gt;w_047.DestroyEntityWeapon</title>
<path fill="none" stroke="black" d="M1628.22,-181.59C1750.43,-148.83 2035.59,-72.39 2166.65,-37.25"/>
<polygon fill="black" stroke="black" points="2167.82,-40.56 2176.58,-34.59 2166.01,-33.8 2167.82,-40.56"/>
<text text-anchor="middle" x="2171.58" y="-38.39" font-family="Times,serif" font-size="14.00">1</text>
</g>
<!-- w_047.SetSpeedX -->
<g id="node15" class="node">
<title>w_047.SetSpeedX</title>
<g id="a_node15"><a xlink:href="w_047.SetSpeedX.svg" xlink:title="w_047.SetSpeedX">
<ellipse fill="green" stroke="black" cx="2492.74" cy="-18" rx="94.48" ry="18"/>
<text text-anchor="middle" x="2492.74" y="-14.3" font-family="Times,serif" font-size="14.00">w_047.SetSpeedX</text>
</a>
</g>
</g>
<!-- w_047.EntityWeaponAttack&#45;&gt;w_047.SetSpeedX -->
<g id="edge14" class="edge">
<title>w_047.EntityWeaponAttack&#45;&gt;w_047.SetSpeedX</title>
<path fill="none" stroke="black" d="M1644.64,-182.73C1817.46,-149.37 2246.46,-66.55 2419.07,-33.22"/>
<polygon fill="black" stroke="black" points="2419.92,-36.62 2429.07,-31.29 2418.59,-29.75 2419.92,-36.62"/>
<text text-anchor="middle" x="2424.07" y="-35.09" font-family="Times,serif" font-size="14.00">1</text>
</g>
<!-- w_047.SetSpriteBank1 -->
<g id="node16" class="node">
<title>w_047.SetSpriteBank1</title>
<g id="a_node16"><a xlink:href="w_047.SetSpriteBank1.svg" xlink:title="w_047.SetSpriteBank1">
<ellipse fill="green" stroke="black" cx="2721.74" cy="-18" rx="116.98" ry="18"/>
<text text-anchor="middle" x="2721.74" y="-14.3" font-family="Times,serif" font-size="14.00">w_047.SetSpriteBank1</text>
</a>
</g>
</g>
<!-- w_047.EntityWeaponAttack&#45;&gt;w_047.SetSpriteBank1 -->
<g id="edge15" class="edge">
<title>w_047.EntityWeaponAttack&#45;&gt;w_047.SetSpriteBank1</title>
<path fill="none" stroke="black" d="M1656.32,-183.77C1868.38,-150.97 2416.64,-66.18 2632.51,-32.8"/>
<polygon fill="black" stroke="black" points="2633.19,-36.24 2642.54,-31.25 2632.12,-29.32 2633.19,-36.24"/>
<text text-anchor="middle" x="2637.54" y="-35.05" font-family="Times,serif" font-size="14.00">1</text>
</g>
<!-- w_047.SetWeaponProperties -->
<g id="node17" class="node">
<title>w_047.SetWeaponProperties</title>
<g id="a_node17"><a xlink:href="w_047.SetWeaponProperties.svg" xlink:title="w_047.SetWeaponProperties">
<ellipse fill="green" stroke="black" cx="3000.74" cy="-18" rx="144.07" ry="18"/>
<text text-anchor="middle" x="3000.74" y="-14.3" font-family="Times,serif" font-size="14.00">w_047.SetWeaponProperties</text>
</a>
</g>
</g>
<!-- w_047.EntityWeaponAttack&#45;&gt;w_047.SetWeaponProperties -->
<g id="edge16" class="edge">
<title>w_047.EntityWeaponAttack&#45;&gt;w_047.SetWeaponProperties</title>
<path fill="none" stroke="black" d="M1667.07,-185.01C1923.59,-153.08 2622.08,-66.13 2892.14,-32.52"/>
<polygon fill="black" stroke="black" points="2892.85,-35.96 2902.34,-31.25 2891.98,-29.01 2892.85,-35.96"/>
<text text-anchor="middle" x="2897.34" y="-35.05" font-family="Times,serif" font-size="14.00">1</text>
</g>
</g>
</svg>
