<?xml version="1.0" encoding="UTF-8" standalone="no"?>
<!DOCTYPE svg PUBLIC "-//W3C//DTD SVG 1.1//EN"
 "http://www.w3.org/Graphics/SVG/1.1/DTD/svg11.dtd">
<!-- Generated by graphviz version 2.43.0 (0)
 -->
<!-- Title: w_045.func_ptr_80170010 Pages: 1 -->
<svg width="905pt" height="224pt"
 viewBox="0.00 0.00 905.33 224.00" xmlns="http://www.w3.org/2000/svg" xmlns:xlink="http://www.w3.org/1999/xlink">
<g id="graph0" class="graph" transform="scale(1 1) rotate(0) translate(4 220)">
<title>w_045.func_ptr_80170010</title>
<polygon fill="white" stroke="transparent" points="-4,4 -4,-220 901.33,-220 901.33,4 -4,4"/>
<!-- w_045.func_ptr_80170010 -->
<g id="node1" class="node">
<title>w_045.func_ptr_80170010</title>
<ellipse fill="red" stroke="black" cx="398.34" cy="-198" rx="133.48" ry="18"/>
<text text-anchor="middle" x="398.34" y="-194.3" font-family="Times,serif" font-size="14.00">w_045.func_ptr_80170010</text>
</g>
<!-- dra.PlaySfx -->
<g id="node2" class="node">
<title>dra.PlaySfx</title>
<g id="a_node2"><a xlink:href="dra.PlaySfx.svg" xlink:title="dra.PlaySfx">
<ellipse fill="green" stroke="black" cx="64.34" cy="-18" rx="64.19" ry="18"/>
<text text-anchor="middle" x="64.34" y="-14.3" font-family="Times,serif" font-size="14.00">dra.PlaySfx</text>
</a>
</g>
</g>
<!-- w_045.func_ptr_80170010&#45;&gt;dra.PlaySfx -->
<g id="edge1" class="edge">
<title>w_045.func_ptr_80170010&#45;&gt;dra.PlaySfx</title>
<path fill="none" stroke="black" d="M367.22,-180.41C305.66,-147.61 168.57,-74.54 102.02,-39.08"/>
<polygon fill="black" stroke="black" points="103.59,-35.95 93.12,-34.33 100.3,-42.13 103.59,-35.95"/>
<text text-anchor="middle" x="88.12" y="-38.13" font-family="Times,serif" font-size="14.00">1</text>
</g>
<!-- dra.func_8011AAFC -->
<g id="node3" class="node">
<title>dra.func_8011AAFC</title>
<g id="a_node3"><a xlink:href="dra.func_8011AAFC.svg" xlink:title="dra.func_8011AAFC">
<ellipse fill="green" stroke="black" cx="249.34" cy="-18" rx="102.88" ry="18"/>
<text text-anchor="middle" x="249.34" y="-14.3" font-family="Times,serif" font-size="14.00">dra.func_8011AAFC</text>
</a>
</g>
</g>
<!-- w_045.func_ptr_80170010&#45;&gt;dra.func_8011AAFC -->
<g id="edge2" class="edge">
<title>w_045.func_ptr_80170010&#45;&gt;dra.func_8011AAFC</title>
<path fill="none" stroke="black" d="M384.06,-179.93C357.58,-148.3 300.79,-80.46 270.08,-43.78"/>
<polygon fill="black" stroke="black" points="272.69,-41.44 263.59,-36.02 267.32,-45.93 272.69,-41.44"/>
<text text-anchor="middle" x="258.59" y="-39.82" font-family="Times,serif" font-size="14.00">1</text>
</g>
<!-- rsin -->
<g id="node4" class="node">
<title>rsin</title>
<g id="a_node4"><a xlink:href="rsin.svg" xlink:title="rsin">
<ellipse fill="lightblue" stroke="black" cx="398.34" cy="-18" rx="28.7" ry="18"/>
<text text-anchor="middle" x="398.34" y="-14.3" font-family="Times,serif" font-size="14.00">rsin</text>
</a>
</g>
</g>
<!-- w_045.func_ptr_80170010&#45;&gt;rsin -->
<g id="edge3" class="edge">
<title>w_045.func_ptr_80170010&#45;&gt;rsin</title>
<path fill="none" stroke="black" d="M398.34,-179.93C398.34,-148.97 398.34,-83.3 398.34,-46.13"/>
<polygon fill="black" stroke="black" points="401.84,-46.02 398.34,-36.02 394.84,-46.02 401.84,-46.02"/>
<text text-anchor="middle" x="393.34" y="-39.82" font-family="Times,serif" font-size="14.00">1</text>
</g>
<!-- w_045.DecelerateX -->
<g id="node5" class="node">
<title>w_045.DecelerateX</title>
<g id="a_node5"><a xlink:href="w_045.DecelerateX.svg" xlink:title="w_045.DecelerateX">
<ellipse fill="red" stroke="black" cx="545.34" cy="-18" rx="100.18" ry="18"/>
<text text-anchor="middle" x="545.34" y="-14.3" font-family="Times,serif" font-size="14.00">w_045.DecelerateX</text>
</a>
</g>
</g>
<!-- w_045.func_ptr_80170010&#45;&gt;w_045.DecelerateX -->
<g id="edge4" class="edge">
<title>w_045.func_ptr_80170010&#45;&gt;w_045.DecelerateX</title>
<path fill="none" stroke="black" d="M412.44,-179.93C438.56,-148.3 494.58,-80.46 524.88,-43.78"/>
<polygon fill="black" stroke="black" points="527.62,-45.95 531.29,-36.02 522.23,-41.5 527.62,-45.95"/>
<text text-anchor="middle" x="526.29" y="-39.82" font-family="Times,serif" font-size="14.00">1</text>
</g>
<!-- w_045.SetSpriteBank1 -->
<g id="node6" class="node">
<title>w_045.SetSpriteBank1</title>
<g id="a_node6"><a xlink:href="w_045.SetSpriteBank1.svg" xlink:title="w_045.SetSpriteBank1">
<ellipse fill="red" stroke="black" cx="780.34" cy="-18" rx="116.98" ry="18"/>
<text text-anchor="middle" x="780.34" y="-14.3" font-family="Times,serif" font-size="14.00">w_045.SetSpriteBank1</text>
</a>
</g>
</g>
<!-- w_045.func_ptr_80170010&#45;&gt;w_045.SetSpriteBank1 -->
<g id="edge5" class="edge">
<title>w_045.func_ptr_80170010&#45;&gt;w_045.SetSpriteBank1</title>
<path fill="none" stroke="black" d="M433.6,-180.57C503.47,-148.01 659.4,-75.35 736.06,-39.63"/>
<polygon fill="black" stroke="black" points="737.87,-42.65 745.45,-35.26 734.91,-36.31 737.87,-42.65"/>
<text text-anchor="middle" x="740.45" y="-39.06" font-family="Times,serif" font-size="14.00">1</text>
</g>
</g>
</svg>
