<?xml version="1.0" encoding="UTF-8" standalone="no"?>
<!DOCTYPE svg PUBLIC "-//W3C//DTD SVG 1.1//EN"
 "http://www.w3.org/Graphics/SVG/1.1/DTD/svg11.dtd">
<!-- Generated by graphviz version 2.43.0 (0)
 -->
<!-- Title: w_045.func_13F000_8017B038 Pages: 1 -->
<svg width="1093pt" height="131pt"
 viewBox="0.00 0.00 1093.32 131.00" xmlns="http://www.w3.org/2000/svg" xmlns:xlink="http://www.w3.org/1999/xlink">
<g id="graph0" class="graph" transform="scale(1 1) rotate(0) translate(4 127)">
<title>w_045.func_13F000_8017B038</title>
<polygon fill="white" stroke="transparent" points="-4,4 -4,-127 1089.32,-127 1089.32,4 -4,4"/>
<!-- w_045.func_13F000_8017B038 -->
<g id="node1" class="node">
<title>w_045.func_13F000_8017B038</title>
<ellipse fill="red" stroke="black" cx="578.99" cy="-105" rx="155.17" ry="18"/>
<text text-anchor="middle" x="578.99" y="-101.3" font-family="Times,serif" font-size="14.00">w_045.func_13F000_8017B038</text>
</g>
<!-- w_045.func_13F000_8017A47C -->
<g id="node2" class="node">
<title>w_045.func_13F000_8017A47C</title>
<g id="a_node2"><a xlink:href="w_045.func_13F000_8017A47C.svg" xlink:title="w_045.func_13F000_8017A47C">
<ellipse fill="red" stroke="black" cx="155.99" cy="-18" rx="155.97" ry="18"/>
<text text-anchor="middle" x="155.99" y="-14.3" font-family="Times,serif" font-size="14.00">w_045.func_13F000_8017A47C</text>
</a>
</g>
</g>
<!-- w_045.func_13F000_8017B038&#45;&gt;w_045.func_13F000_8017A47C -->
<g id="edge1" class="edge">
<title>w_045.func_13F000_8017B038&#45;&gt;w_045.func_13F000_8017A47C</title>
<path fill="none" stroke="black" d="M504.82,-89.1C430.9,-74.24 317.54,-51.46 240.25,-35.93"/>
<polygon fill="black" stroke="black" points="240.56,-32.42 230.07,-33.89 239.18,-39.29 240.56,-32.42"/>
<text text-anchor="middle" x="397.99" y="-57.8" font-family="Times,serif" font-size="14.00">1</text>
</g>
<!-- dra.PlaySfx -->
<g id="node3" class="node">
<title>dra.PlaySfx</title>
<g id="a_node3"><a xlink:href="dra.PlaySfx.svg" xlink:title="dra.PlaySfx">
<ellipse fill="green" stroke="black" cx="393.99" cy="-18" rx="64.19" ry="18"/>
<text text-anchor="middle" x="393.99" y="-14.3" font-family="Times,serif" font-size="14.00">dra.PlaySfx</text>
</a>
</g>
</g>
<!-- w_045.func_13F000_8017B038&#45;&gt;dra.PlaySfx -->
<g id="edge2" class="edge">
<title>w_045.func_13F000_8017B038&#45;&gt;dra.PlaySfx</title>
<path fill="none" stroke="black" d="M542.88,-87.41C511.96,-73.21 467.46,-52.76 435.17,-37.92"/>
<polygon fill="black" stroke="black" points="436.54,-34.7 425.99,-33.7 433.61,-41.06 436.54,-34.7"/>
<text text-anchor="middle" x="502.99" y="-57.8" font-family="Times,serif" font-size="14.00">1</text>
</g>
<!-- dra.func_8011AAFC -->
<g id="node4" class="node">
<title>dra.func_8011AAFC</title>
<g id="a_node4"><a xlink:href="dra.func_8011AAFC.svg" xlink:title="dra.func_8011AAFC">
<ellipse fill="green" stroke="black" cx="578.99" cy="-18" rx="102.88" ry="18"/>
<text text-anchor="middle" x="578.99" y="-14.3" font-family="Times,serif" font-size="14.00">dra.func_8011AAFC</text>
</a>
</g>
</g>
<!-- w_045.func_13F000_8017B038&#45;&gt;dra.func_8011AAFC -->
<g id="edge3" class="edge">
<title>w_045.func_13F000_8017B038&#45;&gt;dra.func_8011AAFC</title>
<path fill="none" stroke="black" d="M578.99,-86.8C578.99,-75.16 578.99,-59.55 578.99,-46.24"/>
<polygon fill="black" stroke="black" points="582.49,-46.18 578.99,-36.18 575.49,-46.18 582.49,-46.18"/>
<text text-anchor="middle" x="583.99" y="-57.8" font-family="Times,serif" font-size="14.00">1</text>
</g>
<!-- rsin -->
<g id="node5" class="node">
<title>rsin</title>
<g id="a_node5"><a xlink:href="rsin.svg" xlink:title="rsin">
<ellipse fill="lightblue" stroke="black" cx="727.99" cy="-18" rx="28.7" ry="18"/>
<text text-anchor="middle" x="727.99" y="-14.3" font-family="Times,serif" font-size="14.00">rsin</text>
</a>
</g>
</g>
<!-- w_045.func_13F000_8017B038&#45;&gt;rsin -->
<g id="edge4" class="edge">
<title>w_045.func_13F000_8017B038&#45;&gt;rsin</title>
<path fill="none" stroke="black" d="M608.42,-87.21C634.52,-72.32 672.44,-50.69 698.54,-35.8"/>
<polygon fill="black" stroke="black" points="700.29,-38.83 707.24,-30.84 696.82,-32.75 700.29,-38.83"/>
<text text-anchor="middle" x="667.99" y="-57.8" font-family="Times,serif" font-size="14.00">1</text>
</g>
<!-- w_045.func_13F000_8017A4F4 -->
<g id="node6" class="node">
<title>w_045.func_13F000_8017A4F4</title>
<g id="a_node6"><a xlink:href="w_045.func_13F000_8017A4F4.svg" xlink:title="w_045.func_13F000_8017A4F4">
<ellipse fill="red" stroke="black" cx="929.99" cy="-18" rx="155.17" ry="18"/>
<text text-anchor="middle" x="929.99" y="-14.3" font-family="Times,serif" font-size="14.00">w_045.func_13F000_8017A4F4</text>
</a>
</g>
</g>
<!-- w_045.func_13F000_8017B038&#45;&gt;w_045.func_13F000_8017A4F4 -->
<g id="edge5" class="edge">
<title>w_045.func_13F000_8017B038&#45;&gt;w_045.func_13F000_8017A4F4</title>
<path fill="none" stroke="black" d="M642.96,-88.51C703.11,-73.94 793.12,-52.14 856.26,-36.85"/>
<polygon fill="black" stroke="black" points="857.26,-40.21 866.16,-34.46 855.62,-33.41 857.26,-40.21"/>
<text text-anchor="middle" x="780.99" y="-57.8" font-family="Times,serif" font-size="14.00">1</text>
</g>
</g>
</svg>
