<?xml version="1.0" encoding="UTF-8" standalone="no"?>
<!DOCTYPE svg PUBLIC "-//W3C//DTD SVG 1.1//EN"
 "http://www.w3.org/Graphics/SVG/1.1/DTD/svg11.dtd">
<!-- Generated by graphviz version 2.43.0 (0)
 -->
<!-- Title: w_045.func_13F000_8017A8BC Pages: 1 -->
<svg width="1677pt" height="131pt"
 viewBox="0.00 0.00 1676.68 131.00" xmlns="http://www.w3.org/2000/svg" xmlns:xlink="http://www.w3.org/1999/xlink">
<g id="graph0" class="graph" transform="scale(1 1) rotate(0) translate(4 127)">
<title>w_045.func_13F000_8017A8BC</title>
<polygon fill="white" stroke="transparent" points="-4,4 -4,-127 1672.68,-127 1672.68,4 -4,4"/>
<!-- w_045.func_13F000_8017A8BC -->
<g id="node1" class="node">
<title>w_045.func_13F000_8017A8BC</title>
<ellipse fill="red" stroke="black" cx="977.99" cy="-105" rx="157.07" ry="18"/>
<text text-anchor="middle" x="977.99" y="-101.3" font-family="Times,serif" font-size="14.00">w_045.func_13F000_8017A8BC</text>
</g>
<!-- w_045.func_13F000_8017A47C -->
<g id="node2" class="node">
<title>w_045.func_13F000_8017A47C</title>
<g id="a_node2"><a xlink:href="w_045.func_13F000_8017A47C.svg" xlink:title="w_045.func_13F000_8017A47C">
<ellipse fill="red" stroke="black" cx="155.99" cy="-18" rx="155.97" ry="18"/>
<text text-anchor="middle" x="155.99" y="-14.3" font-family="Times,serif" font-size="14.00">w_045.func_13F000_8017A47C</text>
</a>
</g>
</g>
<!-- w_045.func_13F000_8017A8BC&#45;&gt;w_045.func_13F000_8017A47C -->
<g id="edge1" class="edge">
<title>w_045.func_13F000_8017A8BC&#45;&gt;w_045.func_13F000_8017A47C</title>
<path fill="none" stroke="black" d="M865.41,-92.36C711.6,-76.45 436.8,-48.04 278.14,-31.63"/>
<polygon fill="black" stroke="black" points="278.16,-28.12 267.86,-30.57 277.44,-35.08 278.16,-28.12"/>
<text text-anchor="middle" x="621.99" y="-57.8" font-family="Times,serif" font-size="14.00">1</text>
</g>
<!-- w_045.func_13F000_8017A4F4 -->
<g id="node3" class="node">
<title>w_045.func_13F000_8017A4F4</title>
<g id="a_node3"><a xlink:href="w_045.func_13F000_8017A4F4.svg" xlink:title="w_045.func_13F000_8017A4F4">
<ellipse fill="red" stroke="black" cx="484.99" cy="-18" rx="155.17" ry="18"/>
<text text-anchor="middle" x="484.99" y="-14.3" font-family="Times,serif" font-size="14.00">w_045.func_13F000_8017A4F4</text>
</a>
</g>
</g>
<!-- w_045.func_13F000_8017A8BC&#45;&gt;w_045.func_13F000_8017A4F4 -->
<g id="edge2" class="edge">
<title>w_045.func_13F000_8017A8BC&#45;&gt;w_045.func_13F000_8017A4F4</title>
<path fill="none" stroke="black" d="M894.91,-89.68C807.23,-74.56 669.34,-50.78 578.05,-35.05"/>
<polygon fill="black" stroke="black" points="578.44,-31.56 567.99,-33.31 577.25,-38.46 578.44,-31.56"/>
<text text-anchor="middle" x="766.99" y="-57.8" font-family="Times,serif" font-size="14.00">1</text>
</g>
<!-- w_045.func_13F000_8017A718 -->
<g id="node4" class="node">
<title>w_045.func_13F000_8017A718</title>
<g id="a_node4"><a xlink:href="w_045.func_13F000_8017A718.svg" xlink:title="w_045.func_13F000_8017A718">
<ellipse fill="red" stroke="black" cx="813.99" cy="-18" rx="155.17" ry="18"/>
<text text-anchor="middle" x="813.99" y="-14.3" font-family="Times,serif" font-size="14.00">w_045.func_13F000_8017A718</text>
</a>
</g>
</g>
<!-- w_045.func_13F000_8017A8BC&#45;&gt;w_045.func_13F000_8017A718 -->
<g id="edge3" class="edge">
<title>w_045.func_13F000_8017A8BC&#45;&gt;w_045.func_13F000_8017A718</title>
<path fill="none" stroke="black" d="M945.59,-87.21C919.67,-73.78 883.17,-54.86 855.18,-40.35"/>
<polygon fill="black" stroke="black" points="856.53,-37.11 846.04,-35.61 853.31,-43.32 856.53,-37.11"/>
<text text-anchor="middle" x="910.99" y="-57.8" font-family="Times,serif" font-size="14.00">2</text>
</g>
<!-- w_045.func_13F000_8017A584 -->
<g id="node5" class="node">
<title>w_045.func_13F000_8017A584</title>
<g id="a_node5"><a xlink:href="w_045.func_13F000_8017A584.svg" xlink:title="w_045.func_13F000_8017A584">
<ellipse fill="red" stroke="black" cx="1142.99" cy="-18" rx="155.17" ry="18"/>
<text text-anchor="middle" x="1142.99" y="-14.3" font-family="Times,serif" font-size="14.00">w_045.func_13F000_8017A584</text>
</a>
</g>
</g>
<!-- w_045.func_13F000_8017A8BC&#45;&gt;w_045.func_13F000_8017A584 -->
<g id="edge4" class="edge">
<title>w_045.func_13F000_8017A8BC&#45;&gt;w_045.func_13F000_8017A584</title>
<path fill="none" stroke="black" d="M1010.58,-87.21C1036.66,-73.78 1073.38,-54.86 1101.54,-40.35"/>
<polygon fill="black" stroke="black" points="1103.45,-43.3 1110.74,-35.61 1100.24,-37.08 1103.45,-43.3"/>
<text text-anchor="middle" x="1075.99" y="-57.8" font-family="Times,serif" font-size="14.00">1</text>
</g>
<!-- dra.PlaySfx -->
<g id="node6" class="node">
<title>dra.PlaySfx</title>
<g id="a_node6"><a xlink:href="dra.PlaySfx.svg" xlink:title="dra.PlaySfx">
<ellipse fill="green" stroke="black" cx="1380.99" cy="-18" rx="64.19" ry="18"/>
<text text-anchor="middle" x="1380.99" y="-14.3" font-family="Times,serif" font-size="14.00">dra.PlaySfx</text>
</a>
</g>
</g>
<!-- w_045.func_13F000_8017A8BC&#45;&gt;dra.PlaySfx -->
<g id="edge5" class="edge">
<title>w_045.func_13F000_8017A8BC&#45;&gt;dra.PlaySfx</title>
<path fill="none" stroke="black" d="M1052.56,-89.07C1119.31,-75.6 1219.8,-55.02 1306.99,-36 1312.3,-34.84 1317.82,-33.61 1323.35,-32.37"/>
<polygon fill="black" stroke="black" points="1324.27,-35.75 1333.25,-30.13 1322.73,-28.92 1324.27,-35.75"/>
<text text-anchor="middle" x="1221.99" y="-57.8" font-family="Times,serif" font-size="14.00">3</text>
</g>
<!-- dra.func_8011AAFC -->
<g id="node7" class="node">
<title>dra.func_8011AAFC</title>
<g id="a_node7"><a xlink:href="dra.func_8011AAFC.svg" xlink:title="dra.func_8011AAFC">
<ellipse fill="green" stroke="black" cx="1565.99" cy="-18" rx="102.88" ry="18"/>
<text text-anchor="middle" x="1565.99" y="-14.3" font-family="Times,serif" font-size="14.00">dra.func_8011AAFC</text>
</a>
</g>
</g>
<!-- w_045.func_13F000_8017A8BC&#45;&gt;dra.func_8011AAFC -->
<g id="edge6" class="edge">
<title>w_045.func_13F000_8017A8BC&#45;&gt;dra.func_8011AAFC</title>
<path fill="none" stroke="black" d="M1075.03,-90.79C1122.13,-84.33 1179.52,-76.37 1230.99,-69 1330.17,-54.8 1354.9,-50.85 1453.99,-36 1462.84,-34.67 1472.09,-33.28 1481.31,-31.89"/>
<polygon fill="black" stroke="black" points="1481.92,-35.33 1491.29,-30.38 1480.88,-28.41 1481.92,-35.33"/>
<text text-anchor="middle" x="1336.99" y="-57.8" font-family="Times,serif" font-size="14.00">1</text>
</g>
</g>
</svg>
