<?xml version="1.0" encoding="UTF-8" standalone="no"?>
<!DOCTYPE svg PUBLIC "-//W3C//DTD SVG 1.1//EN"
 "http://www.w3.org/Graphics/SVG/1.1/DTD/svg11.dtd">
<!-- Generated by graphviz version 2.43.0 (0)
 -->
<!-- Title: w_045.func_13F000_8017A718 Pages: 1 -->
<svg width="844pt" height="224pt"
 viewBox="0.00 0.00 844.48 224.00" xmlns="http://www.w3.org/2000/svg" xmlns:xlink="http://www.w3.org/1999/xlink">
<g id="graph0" class="graph" transform="scale(1 1) rotate(0) translate(4 220)">
<title>w_045.func_13F000_8017A718</title>
<polygon fill="white" stroke="transparent" points="-4,4 -4,-220 840.48,-220 840.48,4 -4,4"/>
<!-- w_045.func_13F000_8017A718 -->
<g id="node1" class="node">
<title>w_045.func_13F000_8017A718</title>
<ellipse fill="red" stroke="black" cx="418.24" cy="-18" rx="155.17" ry="18"/>
<text text-anchor="middle" x="418.24" y="-14.3" font-family="Times,serif" font-size="14.00">w_045.func_13F000_8017A718</text>
</g>
<!-- w_045.func_ptr_80170008 -->
<g id="node2" class="node">
<title>w_045.func_ptr_80170008</title>
<g id="a_node2"><a xlink:href="w_045.func_ptr_80170008.svg" xlink:title="w_045.func_ptr_80170008">
<ellipse fill="red" stroke="black" cx="133.24" cy="-198" rx="133.48" ry="18"/>
<text text-anchor="middle" x="133.24" y="-194.3" font-family="Times,serif" font-size="14.00">w_045.func_ptr_80170008</text>
</a>
</g>
</g>
<!-- w_045.func_ptr_80170008&#45;&gt;w_045.func_13F000_8017A718 -->
<g id="edge1" class="edge">
<title>w_045.func_ptr_80170008&#45;&gt;w_045.func_13F000_8017A718</title>
<path fill="none" stroke="black" d="M160.05,-180.25C211.61,-148.05 324.59,-77.49 382.49,-41.33"/>
<polygon fill="black" stroke="black" points="384.66,-44.1 391.29,-35.83 380.95,-38.16 384.66,-44.1"/>
<text text-anchor="middle" x="155.05" y="-169.05" font-family="Times,serif" font-size="14.00">2</text>
</g>
<!-- w_045.func_ptr_8017000C -->
<g id="node3" class="node">
<title>w_045.func_ptr_8017000C</title>
<g id="a_node3"><a xlink:href="w_045.func_ptr_8017000C.svg" xlink:title="w_045.func_ptr_8017000C">
<ellipse fill="red" stroke="black" cx="418.24" cy="-198" rx="133.78" ry="18"/>
<text text-anchor="middle" x="418.24" y="-194.3" font-family="Times,serif" font-size="14.00">w_045.func_ptr_8017000C</text>
</a>
</g>
</g>
<!-- w_045.func_ptr_8017000C&#45;&gt;w_045.func_13F000_8017A718 -->
<g id="edge2" class="edge">
<title>w_045.func_ptr_8017000C&#45;&gt;w_045.func_13F000_8017A718</title>
<path fill="none" stroke="black" d="M418.24,-179.93C418.24,-148.97 418.24,-83.3 418.24,-46.13"/>
<polygon fill="black" stroke="black" points="421.74,-46.02 418.24,-36.02 414.74,-46.02 421.74,-46.02"/>
<text text-anchor="middle" x="413.24" y="-168.73" font-family="Times,serif" font-size="14.00">2</text>
</g>
<!-- w_045.func_ptr_80170004 -->
<g id="node4" class="node">
<title>w_045.func_ptr_80170004</title>
<g id="a_node4"><a xlink:href="w_045.func_ptr_80170004.svg" xlink:title="w_045.func_ptr_80170004">
<ellipse fill="red" stroke="black" cx="703.24" cy="-198" rx="133.48" ry="18"/>
<text text-anchor="middle" x="703.24" y="-194.3" font-family="Times,serif" font-size="14.00">w_045.func_ptr_80170004</text>
</a>
</g>
</g>
<!-- w_045.func_ptr_80170004&#45;&gt;w_045.func_13F000_8017A718 -->
<g id="edge3" class="edge">
<title>w_045.func_ptr_80170004&#45;&gt;w_045.func_13F000_8017A718</title>
<path fill="none" stroke="black" d="M676.43,-180.25C624.87,-148.05 511.88,-77.49 453.99,-41.33"/>
<polygon fill="black" stroke="black" points="455.52,-38.16 445.19,-35.83 451.81,-44.1 455.52,-38.16"/>
<text text-anchor="middle" x="671.43" y="-169.05" font-family="Times,serif" font-size="14.00">2</text>
</g>
</g>
</svg>
