<?xml version="1.0" encoding="UTF-8" standalone="no"?>
<!DOCTYPE svg PUBLIC "-//W3C//DTD SVG 1.1//EN"
 "http://www.w3.org/Graphics/SVG/1.1/DTD/svg11.dtd">
<!-- Generated by graphviz version 2.43.0 (0)
 -->
<!-- Title: w_053.func_177000_8017B524 Pages: 1 -->
<svg width="977pt" height="218pt"
 viewBox="0.00 0.00 977.32 218.00" xmlns="http://www.w3.org/2000/svg" xmlns:xlink="http://www.w3.org/1999/xlink">
<g id="graph0" class="graph" transform="scale(1 1) rotate(0) translate(4 214)">
<title>w_053.func_177000_8017B524</title>
<polygon fill="white" stroke="transparent" points="-4,4 -4,-214 973.32,-214 973.32,4 -4,4"/>
<!-- w_053.func_177000_8017B524 -->
<g id="node1" class="node">
<title>w_053.func_177000_8017B524</title>
<ellipse fill="red" stroke="black" cx="484.34" cy="-105" rx="155.17" ry="18"/>
<text text-anchor="middle" x="484.34" y="-101.3" font-family="Times,serif" font-size="14.00">w_053.func_177000_8017B524</text>
</g>
<!-- dra.GetEquipProperties -->
<g id="node2" class="node">
<title>dra.GetEquipProperties</title>
<g id="a_node2"><a xlink:href="dra.GetEquipProperties.svg" xlink:title="dra.GetEquipProperties">
<ellipse fill="green" stroke="black" cx="364.34" cy="-18" rx="122.38" ry="18"/>
<text text-anchor="middle" x="364.34" y="-14.3" font-family="Times,serif" font-size="14.00">dra.GetEquipProperties</text>
</a>
</g>
</g>
<!-- w_053.func_177000_8017B524&#45;&gt;dra.GetEquipProperties -->
<g id="edge1" class="edge">
<title>w_053.func_177000_8017B524&#45;&gt;dra.GetEquipProperties</title>
<path fill="none" stroke="black" d="M460.63,-87.21C442.22,-74.17 416.51,-55.96 396.29,-41.63"/>
<polygon fill="black" stroke="black" points="398.18,-38.68 388,-35.76 394.13,-44.39 398.18,-38.68"/>
<text text-anchor="middle" x="437.34" y="-57.8" font-family="Times,serif" font-size="14.00">1</text>
</g>
<!-- dra.func_80118894 -->
<g id="node3" class="node">
<title>dra.func_80118894</title>
<g id="a_node3"><a xlink:href="dra.func_80118894.svg" xlink:title="dra.func_80118894">
<ellipse fill="green" stroke="black" cx="605.34" cy="-18" rx="100.98" ry="18"/>
<text text-anchor="middle" x="605.34" y="-14.3" font-family="Times,serif" font-size="14.00">dra.func_80118894</text>
</a>
</g>
</g>
<!-- w_053.func_177000_8017B524&#45;&gt;dra.func_80118894 -->
<g id="edge2" class="edge">
<title>w_053.func_177000_8017B524&#45;&gt;dra.func_80118894</title>
<path fill="none" stroke="black" d="M508.24,-87.21C526.8,-74.17 552.73,-55.96 573.12,-41.63"/>
<polygon fill="black" stroke="black" points="575.31,-44.37 581.48,-35.76 571.29,-38.64 575.31,-44.37"/>
<text text-anchor="middle" x="557.34" y="-57.8" font-family="Times,serif" font-size="14.00">1</text>
</g>
<!-- w_053.func_177000_8017B620 -->
<g id="node4" class="node">
<title>w_053.func_177000_8017B620</title>
<g id="a_node4"><a xlink:href="w_053.func_177000_8017B620.svg" xlink:title="w_053.func_177000_8017B620">
<ellipse fill="red" stroke="black" cx="155.34" cy="-192" rx="155.17" ry="18"/>
<text text-anchor="middle" x="155.34" y="-188.3" font-family="Times,serif" font-size="14.00">w_053.func_177000_8017B620</text>
</a>
</g>
</g>
<!-- w_053.func_177000_8017B620&#45;&gt;w_053.func_177000_8017B524 -->
<g id="edge3" class="edge">
<title>w_053.func_177000_8017B620&#45;&gt;w_053.func_177000_8017B524</title>
<path fill="none" stroke="black" d="M215.68,-175.41C271.62,-160.96 354.86,-139.45 413.84,-124.21"/>
<polygon fill="black" stroke="black" points="415.01,-127.53 423.82,-121.64 413.26,-120.75 415.01,-127.53"/>
<text text-anchor="middle" x="345.34" y="-144.8" font-family="Times,serif" font-size="14.00">1</text>
</g>
<!-- w_053.func_177000_8017B914 -->
<g id="node5" class="node">
<title>w_053.func_177000_8017B914</title>
<g id="a_node5"><a xlink:href="w_053.func_177000_8017B914.svg" xlink:title="w_053.func_177000_8017B914">
<ellipse fill="red" stroke="black" cx="484.34" cy="-192" rx="155.17" ry="18"/>
<text text-anchor="middle" x="484.34" y="-188.3" font-family="Times,serif" font-size="14.00">w_053.func_177000_8017B914</text>
</a>
</g>
</g>
<!-- w_053.func_177000_8017B914&#45;&gt;w_053.func_177000_8017B524 -->
<g id="edge4" class="edge">
<title>w_053.func_177000_8017B914&#45;&gt;w_053.func_177000_8017B524</title>
<path fill="none" stroke="black" d="M484.34,-173.8C484.34,-162.16 484.34,-146.55 484.34,-133.24"/>
<polygon fill="black" stroke="black" points="487.84,-133.18 484.34,-123.18 480.84,-133.18 487.84,-133.18"/>
<text text-anchor="middle" x="489.34" y="-144.8" font-family="Times,serif" font-size="14.00">1</text>
</g>
<!-- w_053.func_177000_8017C28C -->
<g id="node6" class="node">
<title>w_053.func_177000_8017C28C</title>
<g id="a_node6"><a xlink:href="w_053.func_177000_8017C28C.svg" xlink:title="w_053.func_177000_8017C28C">
<ellipse fill="red" stroke="black" cx="813.34" cy="-192" rx="155.97" ry="18"/>
<text text-anchor="middle" x="813.34" y="-188.3" font-family="Times,serif" font-size="14.00">w_053.func_177000_8017C28C</text>
</a>
</g>
</g>
<!-- w_053.func_177000_8017C28C&#45;&gt;w_053.func_177000_8017B524 -->
<g id="edge5" class="edge">
<title>w_053.func_177000_8017C28C&#45;&gt;w_053.func_177000_8017B524</title>
<path fill="none" stroke="black" d="M752.61,-175.31C696.62,-160.85 613.52,-139.38 554.67,-124.17"/>
<polygon fill="black" stroke="black" points="555.27,-120.71 544.71,-121.6 553.52,-127.49 555.27,-120.71"/>
<text text-anchor="middle" x="674.34" y="-144.8" font-family="Times,serif" font-size="14.00">1</text>
</g>
</g>
</svg>
