<?xml version="1.0" encoding="UTF-8" standalone="no"?>
<!DOCTYPE svg PUBLIC "-//W3C//DTD SVG 1.1//EN"
 "http://www.w3.org/Graphics/SVG/1.1/DTD/svg11.dtd">
<!-- Generated by graphviz version 2.43.0 (0)
 -->
<!-- Title: w_050.DestroyEntity Pages: 1 -->
<svg width="1733pt" height="404pt"
 viewBox="0.00 0.00 1733.48 404.00" xmlns="http://www.w3.org/2000/svg" xmlns:xlink="http://www.w3.org/1999/xlink">
<g id="graph0" class="graph" transform="scale(1 1) rotate(0) translate(4 400)">
<title>w_050.DestroyEntity</title>
<polygon fill="white" stroke="transparent" points="-4,4 -4,-400 1729.48,-400 1729.48,4 -4,4"/>
<!-- w_050.DestroyEntity -->
<g id="node1" class="node">
<title>w_050.DestroyEntity</title>
<ellipse fill="red" stroke="black" cx="877.59" cy="-198" rx="108.58" ry="18"/>
<text text-anchor="middle" x="877.59" y="-194.3" font-family="Times,serif" font-size="14.00">w_050.DestroyEntity</text>
</g>
<!-- dra.FreePrimitives -->
<g id="node2" class="node">
<title>dra.FreePrimitives</title>
<g id="a_node2"><a xlink:href="dra.FreePrimitives.svg" xlink:title="dra.FreePrimitives">
<ellipse fill="green" stroke="black" cx="877.59" cy="-18" rx="98.58" ry="18"/>
<text text-anchor="middle" x="877.59" y="-14.3" font-family="Times,serif" font-size="14.00">dra.FreePrimitives</text>
</a>
</g>
</g>
<!-- w_050.DestroyEntity&#45;&gt;dra.FreePrimitives -->
<g id="edge1" class="edge">
<title>w_050.DestroyEntity&#45;&gt;dra.FreePrimitives</title>
<path fill="none" stroke="black" d="M877.59,-179.93C877.59,-148.97 877.59,-83.3 877.59,-46.13"/>
<polygon fill="black" stroke="black" points="881.09,-46.02 877.59,-36.02 874.09,-46.02 881.09,-46.02"/>
<text text-anchor="middle" x="872.59" y="-39.82" font-family="Times,serif" font-size="14.00">1</text>
</g>
<!-- w_050.DestroyEntityWeapon -->
<g id="node3" class="node">
<title>w_050.DestroyEntityWeapon</title>
<g id="a_node3"><a xlink:href="w_050.DestroyEntityWeapon.svg" xlink:title="w_050.DestroyEntityWeapon">
<ellipse fill="red" stroke="black" cx="145.59" cy="-378" rx="145.67" ry="18"/>
<text text-anchor="middle" x="145.59" y="-374.3" font-family="Times,serif" font-size="14.00">w_050.DestroyEntityWeapon</text>
</a>
</g>
</g>
<!-- w_050.DestroyEntityWeapon&#45;&gt;w_050.DestroyEntity -->
<g id="edge2" class="edge">
<title>w_050.DestroyEntityWeapon&#45;&gt;w_050.DestroyEntity</title>
<path fill="none" stroke="black" d="M208.31,-361.75C344.84,-328.55 668,-249.97 809.37,-215.59"/>
<polygon fill="black" stroke="black" points="810.34,-218.95 819.23,-213.19 808.69,-212.15 810.34,-218.95"/>
<text text-anchor="middle" x="203.31" y="-350.55" font-family="Times,serif" font-size="14.00">2</text>
</g>
<!-- w_050.func_ptr_80170004 -->
<g id="node4" class="node">
<title>w_050.func_ptr_80170004</title>
<g id="a_node4"><a xlink:href="w_050.func_ptr_80170004.svg" xlink:title="w_050.func_ptr_80170004">
<ellipse fill="red" stroke="black" cx="442.59" cy="-378" rx="133.48" ry="18"/>
<text text-anchor="middle" x="442.59" y="-374.3" font-family="Times,serif" font-size="14.00">w_050.func_ptr_80170004</text>
</a>
</g>
</g>
<!-- w_050.func_ptr_80170004&#45;&gt;w_050.DestroyEntity -->
<g id="edge3" class="edge">
<title>w_050.func_ptr_80170004&#45;&gt;w_050.DestroyEntity</title>
<path fill="none" stroke="black" d="M482.34,-360.73C562.4,-327.97 742.75,-254.17 829.37,-218.73"/>
<polygon fill="black" stroke="black" points="830.78,-221.94 838.71,-214.91 828.13,-215.46 830.78,-221.94"/>
<text text-anchor="middle" x="477.34" y="-349.53" font-family="Times,serif" font-size="14.00">1</text>
</g>
<!-- w_050.EntityWeaponAttack -->
<g id="node5" class="node">
<title>w_050.EntityWeaponAttack</title>
<g id="a_node5"><a xlink:href="w_050.EntityWeaponAttack.svg" xlink:title="w_050.EntityWeaponAttack">
<ellipse fill="red" stroke="black" cx="732.59" cy="-378" rx="138.38" ry="18"/>
<text text-anchor="middle" x="732.59" y="-374.3" font-family="Times,serif" font-size="14.00">w_050.EntityWeaponAttack</text>
</a>
</g>
</g>
<!-- w_050.EntityWeaponAttack&#45;&gt;w_050.DestroyEntity -->
<g id="edge4" class="edge">
<title>w_050.EntityWeaponAttack&#45;&gt;w_050.DestroyEntity</title>
<path fill="none" stroke="black" d="M746.49,-359.93C772.26,-328.3 827.52,-260.46 857.4,-223.78"/>
<polygon fill="black" stroke="black" points="860.12,-225.98 863.73,-216.02 854.7,-221.56 860.12,-225.98"/>
<text text-anchor="middle" x="741.49" y="-348.73" font-family="Times,serif" font-size="14.00">1</text>
</g>
<!-- w_050.func_ptr_80170008 -->
<g id="node6" class="node">
<title>w_050.func_ptr_80170008</title>
<g id="a_node6"><a xlink:href="w_050.func_ptr_80170008.svg" xlink:title="w_050.func_ptr_80170008">
<ellipse fill="red" stroke="black" cx="1022.59" cy="-378" rx="133.48" ry="18"/>
<text text-anchor="middle" x="1022.59" y="-374.3" font-family="Times,serif" font-size="14.00">w_050.func_ptr_80170008</text>
</a>
</g>
</g>
<!-- w_050.func_ptr_80170008&#45;&gt;w_050.DestroyEntity -->
<g id="edge5" class="edge">
<title>w_050.func_ptr_80170008&#45;&gt;w_050.DestroyEntity</title>
<path fill="none" stroke="black" d="M1008.68,-359.93C982.92,-328.3 927.66,-260.46 897.77,-223.78"/>
<polygon fill="black" stroke="black" points="900.48,-221.56 891.45,-216.02 895.05,-225.98 900.48,-221.56"/>
<text text-anchor="middle" x="1003.68" y="-348.73" font-family="Times,serif" font-size="14.00">1</text>
</g>
<!-- w_050.func_ptr_80170010 -->
<g id="node7" class="node">
<title>w_050.func_ptr_80170010</title>
<g id="a_node7"><a xlink:href="w_050.func_ptr_80170010.svg" xlink:title="w_050.func_ptr_80170010">
<ellipse fill="red" stroke="black" cx="1306.59" cy="-378" rx="133.48" ry="18"/>
<text text-anchor="middle" x="1306.59" y="-374.3" font-family="Times,serif" font-size="14.00">w_050.func_ptr_80170010</text>
</a>
</g>
</g>
<!-- w_050.func_ptr_80170010&#45;&gt;w_050.DestroyEntity -->
<g id="edge6" class="edge">
<title>w_050.func_ptr_80170010&#45;&gt;w_050.DestroyEntity</title>
<path fill="none" stroke="black" d="M1267.38,-360.73C1188.51,-328.01 1010.92,-254.32 925.4,-218.84"/>
<polygon fill="black" stroke="black" points="926.51,-215.51 915.93,-214.91 923.83,-221.98 926.51,-215.51"/>
<text text-anchor="middle" x="1262.38" y="-349.53" font-family="Times,serif" font-size="14.00">1</text>
</g>
<!-- w_050.func_ptr_8017000C -->
<g id="node8" class="node">
<title>w_050.func_ptr_8017000C</title>
<g id="a_node8"><a xlink:href="w_050.func_ptr_8017000C.svg" xlink:title="w_050.func_ptr_8017000C">
<ellipse fill="red" stroke="black" cx="1591.59" cy="-378" rx="133.78" ry="18"/>
<text text-anchor="middle" x="1591.59" y="-374.3" font-family="Times,serif" font-size="14.00">w_050.func_ptr_8017000C</text>
</a>
</g>
</g>
<!-- w_050.func_ptr_8017000C&#45;&gt;w_050.DestroyEntity -->
<g id="edge7" class="edge">
<title>w_050.func_ptr_8017000C&#45;&gt;w_050.DestroyEntity</title>
<path fill="none" stroke="black" d="M1531.02,-361.9C1398.63,-328.9 1084.26,-250.52 945.46,-215.92"/>
<polygon fill="black" stroke="black" points="945.92,-212.43 935.37,-213.41 944.23,-219.22 945.92,-212.43"/>
<text text-anchor="middle" x="1526.02" y="-350.7" font-family="Times,serif" font-size="14.00">1</text>
</g>
</g>
</svg>
