<?xml version="1.0" encoding="UTF-8" standalone="no"?>
<!DOCTYPE svg PUBLIC "-//W3C//DTD SVG 1.1//EN"
 "http://www.w3.org/Graphics/SVG/1.1/DTD/svg11.dtd">
<!-- Generated by graphviz version 2.43.0 (0)
 -->
<!-- Title: w_052.func_170000_8017ACB0 Pages: 1 -->
<svg width="1309pt" height="218pt"
 viewBox="0.00 0.00 1308.97 218.00" xmlns="http://www.w3.org/2000/svg" xmlns:xlink="http://www.w3.org/1999/xlink">
<g id="graph0" class="graph" transform="scale(1 1) rotate(0) translate(4 214)">
<title>w_052.func_170000_8017ACB0</title>
<polygon fill="white" stroke="transparent" points="-4,4 -4,-214 1304.97,-214 1304.97,4 -4,4"/>
<!-- w_052.func_170000_8017ACB0 -->
<g id="node1" class="node">
<title>w_052.func_170000_8017ACB0</title>
<ellipse fill="red" stroke="black" cx="648.34" cy="-105" rx="156.77" ry="18"/>
<text text-anchor="middle" x="648.34" y="-101.3" font-family="Times,serif" font-size="14.00">w_052.func_170000_8017ACB0</text>
</g>
<!-- dra.FreePrimitives -->
<g id="node2" class="node">
<title>dra.FreePrimitives</title>
<g id="a_node2"><a xlink:href="dra.FreePrimitives.svg" xlink:title="dra.FreePrimitives">
<ellipse fill="green" stroke="black" cx="648.34" cy="-18" rx="98.58" ry="18"/>
<text text-anchor="middle" x="648.34" y="-14.3" font-family="Times,serif" font-size="14.00">dra.FreePrimitives</text>
</a>
</g>
</g>
<!-- w_052.func_170000_8017ACB0&#45;&gt;dra.FreePrimitives -->
<g id="edge1" class="edge">
<title>w_052.func_170000_8017ACB0&#45;&gt;dra.FreePrimitives</title>
<path fill="none" stroke="black" d="M648.34,-86.8C648.34,-75.16 648.34,-59.55 648.34,-46.24"/>
<polygon fill="black" stroke="black" points="651.84,-46.18 648.34,-36.18 644.84,-46.18 651.84,-46.18"/>
<text text-anchor="middle" x="653.34" y="-57.8" font-family="Times,serif" font-size="14.00">1</text>
</g>
<!-- w_052.func_170000_8017C568 -->
<g id="node3" class="node">
<title>w_052.func_170000_8017C568</title>
<g id="a_node3"><a xlink:href="w_052.func_170000_8017C568.svg" xlink:title="w_052.func_170000_8017C568">
<ellipse fill="red" stroke="black" cx="155.34" cy="-192" rx="155.17" ry="18"/>
<text text-anchor="middle" x="155.34" y="-188.3" font-family="Times,serif" font-size="14.00">w_052.func_170000_8017C568</text>
</a>
</g>
</g>
<!-- w_052.func_170000_8017C568&#45;&gt;w_052.func_170000_8017ACB0 -->
<g id="edge2" class="edge">
<title>w_052.func_170000_8017C568&#45;&gt;w_052.func_170000_8017ACB0</title>
<path fill="none" stroke="black" d="M238.13,-176.72C325.76,-161.62 463.78,-137.82 555.16,-122.06"/>
<polygon fill="black" stroke="black" points="555.98,-125.48 565.24,-120.33 554.79,-118.58 555.98,-125.48"/>
<text text-anchor="middle" x="437.34" y="-144.8" font-family="Times,serif" font-size="14.00">1</text>
</g>
<!-- w_052.func_170000_8017B050 -->
<g id="node4" class="node">
<title>w_052.func_170000_8017B050</title>
<g id="a_node4"><a xlink:href="w_052.func_170000_8017B050.svg" xlink:title="w_052.func_170000_8017B050">
<ellipse fill="red" stroke="black" cx="484.34" cy="-192" rx="155.17" ry="18"/>
<text text-anchor="middle" x="484.34" y="-188.3" font-family="Times,serif" font-size="14.00">w_052.func_170000_8017B050</text>
</a>
</g>
</g>
<!-- w_052.func_170000_8017B050&#45;&gt;w_052.func_170000_8017ACB0 -->
<g id="edge3" class="edge">
<title>w_052.func_170000_8017B050&#45;&gt;w_052.func_170000_8017ACB0</title>
<path fill="none" stroke="black" d="M516.74,-174.21C542.57,-160.82 578.92,-141.98 606.87,-127.49"/>
<polygon fill="black" stroke="black" points="608.73,-130.47 616,-122.76 605.51,-124.25 608.73,-130.47"/>
<text text-anchor="middle" x="581.34" y="-144.8" font-family="Times,serif" font-size="14.00">1</text>
</g>
<!-- w_052.func_170000_8017B62C -->
<g id="node5" class="node">
<title>w_052.func_170000_8017B62C</title>
<g id="a_node5"><a xlink:href="w_052.func_170000_8017B62C.svg" xlink:title="w_052.func_170000_8017B62C">
<ellipse fill="red" stroke="black" cx="813.34" cy="-192" rx="155.97" ry="18"/>
<text text-anchor="middle" x="813.34" y="-188.3" font-family="Times,serif" font-size="14.00">w_052.func_170000_8017B62C</text>
</a>
</g>
</g>
<!-- w_052.func_170000_8017B62C&#45;&gt;w_052.func_170000_8017ACB0 -->
<g id="edge4" class="edge">
<title>w_052.func_170000_8017B62C&#45;&gt;w_052.func_170000_8017ACB0</title>
<path fill="none" stroke="black" d="M780.74,-174.21C754.75,-160.82 718.18,-141.98 690.05,-127.49"/>
<polygon fill="black" stroke="black" points="691.36,-124.23 680.87,-122.76 688.15,-130.45 691.36,-124.23"/>
<text text-anchor="middle" x="746.34" y="-144.8" font-family="Times,serif" font-size="14.00">1</text>
</g>
<!-- w_052.func_170000_8017AEE4 -->
<g id="node6" class="node">
<title>w_052.func_170000_8017AEE4</title>
<g id="a_node6"><a xlink:href="w_052.func_170000_8017AEE4.svg" xlink:title="w_052.func_170000_8017AEE4">
<ellipse fill="red" stroke="black" cx="1144.34" cy="-192" rx="156.77" ry="18"/>
<text text-anchor="middle" x="1144.34" y="-188.3" font-family="Times,serif" font-size="14.00">w_052.func_170000_8017AEE4</text>
</a>
</g>
</g>
<!-- w_052.func_170000_8017AEE4&#45;&gt;w_052.func_170000_8017ACB0 -->
<g id="edge5" class="edge">
<title>w_052.func_170000_8017AEE4&#45;&gt;w_052.func_170000_8017ACB0</title>
<path fill="none" stroke="black" d="M1061.04,-176.72C972.74,-161.59 833.6,-137.75 741.66,-121.99"/>
<polygon fill="black" stroke="black" points="741.98,-118.5 731.53,-120.26 740.79,-125.4 741.98,-118.5"/>
<text text-anchor="middle" x="931.34" y="-144.8" font-family="Times,serif" font-size="14.00">2</text>
</g>
</g>
</svg>
