<?xml version="1.0" encoding="UTF-8" standalone="no"?>
<!DOCTYPE svg PUBLIC "-//W3C//DTD SVG 1.1//EN"
 "http://www.w3.org/Graphics/SVG/1.1/DTD/svg11.dtd">
<!-- Generated by graphviz version 2.43.0 (0)
 -->
<!-- Title: w_050.func_ptr_80170008 Pages: 1 -->
<svg width="1005pt" height="224pt"
 viewBox="0.00 0.00 1004.73 224.00" xmlns="http://www.w3.org/2000/svg" xmlns:xlink="http://www.w3.org/1999/xlink">
<g id="graph0" class="graph" transform="scale(1 1) rotate(0) translate(4 220)">
<title>w_050.func_ptr_80170008</title>
<polygon fill="white" stroke="transparent" points="-4,4 -4,-220 1000.73,-220 1000.73,4 -4,4"/>
<!-- w_050.func_ptr_80170008 -->
<g id="node1" class="node">
<title>w_050.func_ptr_80170008</title>
<ellipse fill="red" stroke="black" cx="400.44" cy="-198" rx="133.48" ry="18"/>
<text text-anchor="middle" x="400.44" y="-194.3" font-family="Times,serif" font-size="14.00">w_050.func_ptr_80170008</text>
</g>
<!-- dra.AllocPrimitives -->
<g id="node2" class="node">
<title>dra.AllocPrimitives</title>
<g id="a_node2"><a xlink:href="dra.AllocPrimitives.svg" xlink:title="dra.AllocPrimitives">
<ellipse fill="green" stroke="black" cx="99.44" cy="-18" rx="99.38" ry="18"/>
<text text-anchor="middle" x="99.44" y="-14.3" font-family="Times,serif" font-size="14.00">dra.AllocPrimitives</text>
</a>
</g>
</g>
<!-- w_050.func_ptr_80170008&#45;&gt;dra.AllocPrimitives -->
<g id="edge1" class="edge">
<title>w_050.func_ptr_80170008&#45;&gt;dra.AllocPrimitives</title>
<path fill="none" stroke="black" d="M372.12,-180.25C317.28,-147.82 196.63,-76.47 135.89,-40.56"/>
<polygon fill="black" stroke="black" points="137.42,-37.39 127.03,-35.31 133.85,-43.42 137.42,-37.39"/>
<text text-anchor="middle" x="122.03" y="-39.11" font-family="Times,serif" font-size="14.00">1</text>
</g>
<!-- main.rcos -->
<g id="node3" class="node">
<title>main.rcos</title>
<g id="a_node3"><a xlink:href="main.rcos.svg" xlink:title="main.rcos">
<ellipse fill="red" stroke="black" cx="272.44" cy="-18" rx="55.79" ry="18"/>
<text text-anchor="middle" x="272.44" y="-14.3" font-family="Times,serif" font-size="14.00">main.rcos</text>
</a>
</g>
</g>
<!-- w_050.func_ptr_80170008&#45;&gt;main.rcos -->
<g id="edge2" class="edge">
<title>w_050.func_ptr_80170008&#45;&gt;main.rcos</title>
<path fill="none" stroke="black" d="M388.17,-179.93C365.46,-148.35 316.8,-80.69 290.39,-43.96"/>
<polygon fill="black" stroke="black" points="293.17,-41.83 284.49,-35.76 287.49,-45.92 293.17,-41.83"/>
<text text-anchor="middle" x="279.49" y="-39.56" font-family="Times,serif" font-size="14.00">4</text>
</g>
<!-- main.rsin -->
<g id="node4" class="node">
<title>main.rsin</title>
<g id="a_node4"><a xlink:href="main.rsin.svg" xlink:title="main.rsin">
<ellipse fill="green" stroke="black" cx="400.44" cy="-18" rx="54.69" ry="18"/>
<text text-anchor="middle" x="400.44" y="-14.3" font-family="Times,serif" font-size="14.00">main.rsin</text>
</a>
</g>
</g>
<!-- w_050.func_ptr_80170008&#45;&gt;main.rsin -->
<g id="edge3" class="edge">
<title>w_050.func_ptr_80170008&#45;&gt;main.rsin</title>
<path fill="none" stroke="black" d="M400.44,-179.93C400.44,-148.97 400.44,-83.3 400.44,-46.13"/>
<polygon fill="black" stroke="black" points="403.94,-46.02 400.44,-36.02 396.94,-46.02 403.94,-46.02"/>
<text text-anchor="middle" x="395.44" y="-39.82" font-family="Times,serif" font-size="14.00">4</text>
</g>
<!-- w_050.DestroyEntity -->
<g id="node5" class="node">
<title>w_050.DestroyEntity</title>
<g id="a_node5"><a xlink:href="w_050.DestroyEntity.svg" xlink:title="w_050.DestroyEntity">
<ellipse fill="green" stroke="black" cx="581.44" cy="-18" rx="108.58" ry="18"/>
<text text-anchor="middle" x="581.44" y="-14.3" font-family="Times,serif" font-size="14.00">w_050.DestroyEntity</text>
</a>
</g>
</g>
<!-- w_050.func_ptr_80170008&#45;&gt;w_050.DestroyEntity -->
<g id="edge4" class="edge">
<title>w_050.func_ptr_80170008&#45;&gt;w_050.DestroyEntity</title>
<path fill="none" stroke="black" d="M417.8,-179.93C450.1,-148.17 519.52,-79.89 556.72,-43.32"/>
<polygon fill="black" stroke="black" points="559.46,-45.52 564.14,-36.02 554.55,-40.53 559.46,-45.52"/>
<text text-anchor="middle" x="559.14" y="-39.82" font-family="Times,serif" font-size="14.00">1</text>
</g>
<!-- w_050.SetWeaponProperties -->
<g id="node6" class="node">
<title>w_050.SetWeaponProperties</title>
<g id="a_node6"><a xlink:href="w_050.SetWeaponProperties.svg" xlink:title="w_050.SetWeaponProperties">
<ellipse fill="green" stroke="black" cx="852.44" cy="-18" rx="144.07" ry="18"/>
<text text-anchor="middle" x="852.44" y="-14.3" font-family="Times,serif" font-size="14.00">w_050.SetWeaponProperties</text>
</a>
</g>
</g>
<!-- w_050.func_ptr_80170008&#45;&gt;w_050.SetWeaponProperties -->
<g id="edge5" class="edge">
<title>w_050.func_ptr_80170008&#45;&gt;w_050.SetWeaponProperties</title>
<path fill="none" stroke="black" d="M441.75,-180.73C524.7,-148.06 711.3,-74.58 801.59,-39.03"/>
<polygon fill="black" stroke="black" points="803.04,-42.22 811.06,-35.29 800.48,-35.7 803.04,-42.22"/>
<text text-anchor="middle" x="806.06" y="-39.09" font-family="Times,serif" font-size="14.00">1</text>
</g>
</g>
</svg>
