<?xml version="1.0" encoding="UTF-8" standalone="no"?>
<!DOCTYPE svg PUBLIC "-//W3C//DTD SVG 1.1//EN"
 "http://www.w3.org/Graphics/SVG/1.1/DTD/svg11.dtd">
<!-- Generated by graphviz version 2.43.0 (0)
 -->
<!-- Title: w_058.func_19A000_8017AD54 Pages: 1 -->
<svg width="648pt" height="131pt"
 viewBox="0.00 0.00 648.32 131.00" xmlns="http://www.w3.org/2000/svg" xmlns:xlink="http://www.w3.org/1999/xlink">
<g id="graph0" class="graph" transform="scale(1 1) rotate(0) translate(4 127)">
<title>w_058.func_19A000_8017AD54</title>
<polygon fill="white" stroke="transparent" points="-4,4 -4,-127 644.32,-127 644.32,4 -4,4"/>
<!-- w_058.func_19A000_8017AD54 -->
<g id="node1" class="node">
<title>w_058.func_19A000_8017AD54</title>
<ellipse fill="red" stroke="black" cx="319.34" cy="-18" rx="156.77" ry="18"/>
<text text-anchor="middle" x="319.34" y="-14.3" font-family="Times,serif" font-size="14.00">w_058.func_19A000_8017AD54</text>
</g>
<!-- w_058.func_19A000_8017B440 -->
<g id="node2" class="node">
<title>w_058.func_19A000_8017B440</title>
<g id="a_node2"><a xlink:href="w_058.func_19A000_8017B440.svg" xlink:title="w_058.func_19A000_8017B440">
<ellipse fill="red" stroke="black" cx="155.34" cy="-105" rx="155.17" ry="18"/>
<text text-anchor="middle" x="155.34" y="-101.3" font-family="Times,serif" font-size="14.00">w_058.func_19A000_8017B440</text>
</a>
</g>
</g>
<!-- w_058.func_19A000_8017B440&#45;&gt;w_058.func_19A000_8017AD54 -->
<g id="edge1" class="edge">
<title>w_058.func_19A000_8017B440&#45;&gt;w_058.func_19A000_8017AD54</title>
<path fill="none" stroke="black" d="M187.74,-87.21C213.57,-73.82 249.92,-54.98 277.87,-40.49"/>
<polygon fill="black" stroke="black" points="279.73,-43.47 287,-35.76 276.51,-37.25 279.73,-43.47"/>
<text text-anchor="middle" x="252.34" y="-57.8" font-family="Times,serif" font-size="14.00">1</text>
</g>
<!-- w_058.func_19A000_8017AFF0 -->
<g id="node3" class="node">
<title>w_058.func_19A000_8017AFF0</title>
<g id="a_node3"><a xlink:href="w_058.func_19A000_8017AFF0.svg" xlink:title="w_058.func_19A000_8017AFF0">
<ellipse fill="red" stroke="black" cx="484.34" cy="-105" rx="155.97" ry="18"/>
<text text-anchor="middle" x="484.34" y="-101.3" font-family="Times,serif" font-size="14.00">w_058.func_19A000_8017AFF0</text>
</a>
</g>
</g>
<!-- w_058.func_19A000_8017AFF0&#45;&gt;w_058.func_19A000_8017AD54 -->
<g id="edge2" class="edge">
<title>w_058.func_19A000_8017AFF0&#45;&gt;w_058.func_19A000_8017AD54</title>
<path fill="none" stroke="black" d="M451.74,-87.21C425.75,-73.82 389.18,-54.98 361.05,-40.49"/>
<polygon fill="black" stroke="black" points="362.36,-37.23 351.87,-35.76 359.15,-43.45 362.36,-37.23"/>
<text text-anchor="middle" x="417.34" y="-57.8" font-family="Times,serif" font-size="14.00">1</text>
</g>
</g>
</svg>
