<?xml version="1.0" encoding="UTF-8" standalone="no"?>
<!DOCTYPE svg PUBLIC "-//W3C//DTD SVG 1.1//EN"
 "http://www.w3.org/Graphics/SVG/1.1/DTD/svg11.dtd">
<!-- Generated by graphviz version 2.43.0 (0)
 -->
<!-- Title: w_053.func_177000_8017B280 Pages: 1 -->
<svg width="1640pt" height="218pt"
 viewBox="0.00 0.00 1640.32 218.00" xmlns="http://www.w3.org/2000/svg" xmlns:xlink="http://www.w3.org/1999/xlink">
<g id="graph0" class="graph" transform="scale(1 1) rotate(0) translate(4 214)">
<title>w_053.func_177000_8017B280</title>
<polygon fill="white" stroke="transparent" points="-4,4 -4,-214 1636.32,-214 1636.32,4 -4,4"/>
<!-- w_053.func_177000_8017B280 -->
<g id="node1" class="node">
<title>w_053.func_177000_8017B280</title>
<ellipse fill="red" stroke="black" cx="815.34" cy="-105" rx="155.17" ry="18"/>
<text text-anchor="middle" x="815.34" y="-101.3" font-family="Times,serif" font-size="14.00">w_053.func_177000_8017B280</text>
</g>
<!-- dra.FreePrimitives -->
<g id="node2" class="node">
<title>dra.FreePrimitives</title>
<g id="a_node2"><a xlink:href="dra.FreePrimitives.svg" xlink:title="dra.FreePrimitives">
<ellipse fill="green" stroke="black" cx="815.34" cy="-18" rx="98.58" ry="18"/>
<text text-anchor="middle" x="815.34" y="-14.3" font-family="Times,serif" font-size="14.00">dra.FreePrimitives</text>
</a>
</g>
</g>
<!-- w_053.func_177000_8017B280&#45;&gt;dra.FreePrimitives -->
<g id="edge1" class="edge">
<title>w_053.func_177000_8017B280&#45;&gt;dra.FreePrimitives</title>
<path fill="none" stroke="black" d="M815.34,-86.8C815.34,-75.16 815.34,-59.55 815.34,-46.24"/>
<polygon fill="black" stroke="black" points="818.84,-46.18 815.34,-36.18 811.84,-46.18 818.84,-46.18"/>
<text text-anchor="middle" x="820.34" y="-57.8" font-family="Times,serif" font-size="14.00">1</text>
</g>
<!-- w_053.func_177000_8017B620 -->
<g id="node3" class="node">
<title>w_053.func_177000_8017B620</title>
<g id="a_node3"><a xlink:href="w_053.func_177000_8017B620.svg" xlink:title="w_053.func_177000_8017B620">
<ellipse fill="red" stroke="black" cx="155.34" cy="-192" rx="155.17" ry="18"/>
<text text-anchor="middle" x="155.34" y="-188.3" font-family="Times,serif" font-size="14.00">w_053.func_177000_8017B620</text>
</a>
</g>
</g>
<!-- w_053.func_177000_8017B620&#45;&gt;w_053.func_177000_8017B280 -->
<g id="edge2" class="edge">
<title>w_053.func_177000_8017B620&#45;&gt;w_053.func_177000_8017B280</title>
<path fill="none" stroke="black" d="M255.22,-178.14C376.44,-162.52 580.16,-136.29 705.64,-120.13"/>
<polygon fill="black" stroke="black" points="706.19,-123.59 715.66,-118.84 705.3,-116.64 706.19,-123.59"/>
<text text-anchor="middle" x="530.34" y="-144.8" font-family="Times,serif" font-size="14.00">1</text>
</g>
<!-- w_053.func_177000_8017B914 -->
<g id="node4" class="node">
<title>w_053.func_177000_8017B914</title>
<g id="a_node4"><a xlink:href="w_053.func_177000_8017B914.svg" xlink:title="w_053.func_177000_8017B914">
<ellipse fill="red" stroke="black" cx="484.34" cy="-192" rx="155.17" ry="18"/>
<text text-anchor="middle" x="484.34" y="-188.3" font-family="Times,serif" font-size="14.00">w_053.func_177000_8017B914</text>
</a>
</g>
</g>
<!-- w_053.func_177000_8017B914&#45;&gt;w_053.func_177000_8017B280 -->
<g id="edge3" class="edge">
<title>w_053.func_177000_8017B914&#45;&gt;w_053.func_177000_8017B280</title>
<path fill="none" stroke="black" d="M545.05,-175.41C601.33,-160.96 685.07,-139.45 744.41,-124.21"/>
<polygon fill="black" stroke="black" points="745.64,-127.51 754.45,-121.64 743.89,-120.73 745.64,-127.51"/>
<text text-anchor="middle" x="675.34" y="-144.8" font-family="Times,serif" font-size="14.00">1</text>
</g>
<!-- w_053.func_177000_8017BFCC -->
<g id="node5" class="node">
<title>w_053.func_177000_8017BFCC</title>
<g id="a_node5"><a xlink:href="w_053.func_177000_8017BFCC.svg" xlink:title="w_053.func_177000_8017BFCC">
<ellipse fill="red" stroke="black" cx="815.34" cy="-192" rx="157.07" ry="18"/>
<text text-anchor="middle" x="815.34" y="-188.3" font-family="Times,serif" font-size="14.00">w_053.func_177000_8017BFCC</text>
</a>
</g>
</g>
<!-- w_053.func_177000_8017BFCC&#45;&gt;w_053.func_177000_8017B280 -->
<g id="edge4" class="edge">
<title>w_053.func_177000_8017BFCC&#45;&gt;w_053.func_177000_8017B280</title>
<path fill="none" stroke="black" d="M815.34,-173.8C815.34,-162.16 815.34,-146.55 815.34,-133.24"/>
<polygon fill="black" stroke="black" points="818.84,-133.18 815.34,-123.18 811.84,-133.18 818.84,-133.18"/>
<text text-anchor="middle" x="820.34" y="-144.8" font-family="Times,serif" font-size="14.00">1</text>
</g>
<!-- w_053.func_177000_8017C28C -->
<g id="node6" class="node">
<title>w_053.func_177000_8017C28C</title>
<g id="a_node6"><a xlink:href="w_053.func_177000_8017C28C.svg" xlink:title="w_053.func_177000_8017C28C">
<ellipse fill="red" stroke="black" cx="1146.34" cy="-192" rx="155.97" ry="18"/>
<text text-anchor="middle" x="1146.34" y="-188.3" font-family="Times,serif" font-size="14.00">w_053.func_177000_8017C28C</text>
</a>
</g>
</g>
<!-- w_053.func_177000_8017C28C&#45;&gt;w_053.func_177000_8017B280 -->
<g id="edge5" class="edge">
<title>w_053.func_177000_8017C28C&#45;&gt;w_053.func_177000_8017B280</title>
<path fill="none" stroke="black" d="M1085.63,-175.41C1029.35,-160.96 945.6,-139.45 886.26,-124.21"/>
<polygon fill="black" stroke="black" points="886.78,-120.73 876.22,-121.64 885.04,-127.51 886.78,-120.73"/>
<text text-anchor="middle" x="1006.34" y="-144.8" font-family="Times,serif" font-size="14.00">1</text>
</g>
<!-- w_053.func_177000_8017B4B4 -->
<g id="node7" class="node">
<title>w_053.func_177000_8017B4B4</title>
<g id="a_node7"><a xlink:href="w_053.func_177000_8017B4B4.svg" xlink:title="w_053.func_177000_8017B4B4">
<ellipse fill="red" stroke="black" cx="1476.34" cy="-192" rx="155.97" ry="18"/>
<text text-anchor="middle" x="1476.34" y="-188.3" font-family="Times,serif" font-size="14.00">w_053.func_177000_8017B4B4</text>
</a>
</g>
</g>
<!-- w_053.func_177000_8017B4B4&#45;&gt;w_053.func_177000_8017B280 -->
<g id="edge6" class="edge">
<title>w_053.func_177000_8017B4B4&#45;&gt;w_053.func_177000_8017B280</title>
<path fill="none" stroke="black" d="M1376.3,-178.14C1254.9,-162.52 1050.87,-136.29 925.2,-120.13"/>
<polygon fill="black" stroke="black" points="925.53,-116.64 915.16,-118.84 924.64,-123.58 925.53,-116.64"/>
<text text-anchor="middle" x="1191.34" y="-144.8" font-family="Times,serif" font-size="14.00">2</text>
</g>
</g>
</svg>
