<?xml version="1.0" encoding="UTF-8" standalone="no"?>
<!DOCTYPE svg PUBLIC "-//W3C//DTD SVG 1.1//EN"
 "http://www.w3.org/Graphics/SVG/1.1/DTD/svg11.dtd">
<!-- Generated by graphviz version 2.43.0 (0)
 -->
<!-- Title: w_052.func_ptr_80170020 Pages: 1 -->
<svg width="2034pt" height="224pt"
 viewBox="0.00 0.00 2034.04 224.00" xmlns="http://www.w3.org/2000/svg" xmlns:xlink="http://www.w3.org/1999/xlink">
<g id="graph0" class="graph" transform="scale(1 1) rotate(0) translate(4 220)">
<title>w_052.func_ptr_80170020</title>
<polygon fill="white" stroke="transparent" points="-4,4 -4,-220 2030.04,-220 2030.04,4 -4,4"/>
<!-- w_052.func_ptr_80170020 -->
<g id="node1" class="node">
<title>w_052.func_ptr_80170020</title>
<ellipse fill="red" stroke="black" cx="1131.44" cy="-198" rx="133.48" ry="18"/>
<text text-anchor="middle" x="1131.44" y="-194.3" font-family="Times,serif" font-size="14.00">w_052.func_ptr_80170020</text>
</g>
<!-- dra.AllocPrimitives -->
<g id="node2" class="node">
<title>dra.AllocPrimitives</title>
<g id="a_node2"><a xlink:href="dra.AllocPrimitives.svg" xlink:title="dra.AllocPrimitives">
<ellipse fill="green" stroke="black" cx="99.44" cy="-18" rx="99.38" ry="18"/>
<text text-anchor="middle" x="99.44" y="-14.3" font-family="Times,serif" font-size="14.00">dra.AllocPrimitives</text>
</a>
</g>
</g>
<!-- w_052.func_ptr_80170020&#45;&gt;dra.AllocPrimitives -->
<g id="edge1" class="edge">
<title>w_052.func_ptr_80170020&#45;&gt;dra.AllocPrimitives</title>
<path fill="none" stroke="black" d="M1052.6,-183.4C860.73,-150.31 371.13,-65.86 178.76,-32.68"/>
<polygon fill="black" stroke="black" points="179.17,-29.2 168.72,-30.95 177.98,-36.1 179.17,-29.2"/>
<text text-anchor="middle" x="163.72" y="-34.75" font-family="Times,serif" font-size="14.00">1</text>
</g>
<!-- w_052.SetSpriteBank1 -->
<g id="node3" class="node">
<title>w_052.SetSpriteBank1</title>
<g id="a_node3"><a xlink:href="w_052.SetSpriteBank1.svg" xlink:title="w_052.SetSpriteBank1">
<ellipse fill="red" stroke="black" cx="333.44" cy="-18" rx="116.98" ry="18"/>
<text text-anchor="middle" x="333.44" y="-14.3" font-family="Times,serif" font-size="14.00">w_052.SetSpriteBank1</text>
</a>
</g>
</g>
<!-- w_052.func_ptr_80170020&#45;&gt;w_052.SetSpriteBank1 -->
<g id="edge2" class="edge">
<title>w_052.func_ptr_80170020&#45;&gt;w_052.SetSpriteBank1</title>
<path fill="none" stroke="black" d="M1065.46,-182.28C917.75,-149.33 561.34,-69.83 406.88,-35.38"/>
<polygon fill="black" stroke="black" points="407.52,-31.94 397,-33.18 406,-38.77 407.52,-31.94"/>
<text text-anchor="middle" x="392" y="-36.98" font-family="Times,serif" font-size="14.00">1</text>
</g>
<!-- rand -->
<g id="node4" class="node">
<title>rand</title>
<g id="a_node4"><a xlink:href="rand.svg" xlink:title="rand">
<ellipse fill="lightblue" stroke="black" cx="500.44" cy="-18" rx="32.49" ry="18"/>
<text text-anchor="middle" x="500.44" y="-14.3" font-family="Times,serif" font-size="14.00">rand</text>
</a>
</g>
</g>
<!-- w_052.func_ptr_80170020&#45;&gt;rand -->
<g id="edge3" class="edge">
<title>w_052.func_ptr_80170020&#45;&gt;rand</title>
<path fill="none" stroke="black" d="M1067.51,-182.14C958.57,-156.25 730.5,-99.52 542.44,-36 540.03,-35.19 537.55,-34.3 535.07,-33.39"/>
<polygon fill="black" stroke="black" points="536.17,-30.06 525.58,-29.74 533.66,-36.59 536.17,-30.06"/>
<text text-anchor="middle" x="530.58" y="-33.54" font-family="Times,serif" font-size="14.00">1</text>
</g>
<!-- w_052.SetSpeedX -->
<g id="node5" class="node">
<title>w_052.SetSpeedX</title>
<g id="a_node5"><a xlink:href="w_052.SetSpeedX.svg" xlink:title="w_052.SetSpeedX">
<ellipse fill="red" stroke="black" cx="645.44" cy="-18" rx="94.48" ry="18"/>
<text text-anchor="middle" x="645.44" y="-14.3" font-family="Times,serif" font-size="14.00">w_052.SetSpeedX</text>
</a>
</g>
</g>
<!-- w_052.func_ptr_80170020&#45;&gt;w_052.SetSpeedX -->
<g id="edge4" class="edge">
<title>w_052.func_ptr_80170020&#45;&gt;w_052.SetSpeedX</title>
<path fill="none" stroke="black" d="M1087.45,-180.89C997.32,-147.88 792.1,-72.71 696.37,-37.65"/>
<polygon fill="black" stroke="black" points="697.5,-34.34 686.91,-34.19 695.09,-40.91 697.5,-34.34"/>
<text text-anchor="middle" x="681.91" y="-37.99" font-family="Times,serif" font-size="14.00">1</text>
</g>
<!-- w_052.DestroyEntityWeapon -->
<g id="node6" class="node">
<title>w_052.DestroyEntityWeapon</title>
<g id="a_node6"><a xlink:href="w_052.DestroyEntityWeapon.svg" xlink:title="w_052.DestroyEntityWeapon">
<ellipse fill="red" stroke="black" cx="903.44" cy="-18" rx="145.67" ry="18"/>
<text text-anchor="middle" x="903.44" y="-14.3" font-family="Times,serif" font-size="14.00">w_052.DestroyEntityWeapon</text>
</a>
</g>
</g>
<!-- w_052.func_ptr_80170020&#45;&gt;w_052.DestroyEntityWeapon -->
<g id="edge5" class="edge">
<title>w_052.func_ptr_80170020&#45;&gt;w_052.DestroyEntityWeapon</title>
<path fill="none" stroke="black" d="M1109.58,-179.93C1068.47,-147.84 979.61,-78.46 933.13,-42.18"/>
<polygon fill="black" stroke="black" points="935.27,-39.41 925.24,-36.02 930.97,-44.93 935.27,-39.41"/>
<text text-anchor="middle" x="920.24" y="-39.82" font-family="Times,serif" font-size="14.00">1</text>
</g>
<!-- dra.PlaySfx -->
<g id="node7" class="node">
<title>dra.PlaySfx</title>
<g id="a_node7"><a xlink:href="dra.PlaySfx.svg" xlink:title="dra.PlaySfx">
<ellipse fill="green" stroke="black" cx="1131.44" cy="-18" rx="64.19" ry="18"/>
<text text-anchor="middle" x="1131.44" y="-14.3" font-family="Times,serif" font-size="14.00">dra.PlaySfx</text>
</a>
</g>
</g>
<!-- w_052.func_ptr_80170020&#45;&gt;dra.PlaySfx -->
<g id="edge6" class="edge">
<title>w_052.func_ptr_80170020&#45;&gt;dra.PlaySfx</title>
<path fill="none" stroke="black" d="M1131.44,-179.93C1131.44,-148.97 1131.44,-83.3 1131.44,-46.13"/>
<polygon fill="black" stroke="black" points="1134.94,-46.02 1131.44,-36.02 1127.94,-46.02 1134.94,-46.02"/>
<text text-anchor="middle" x="1126.44" y="-39.82" font-family="Times,serif" font-size="14.00">3</text>
</g>
<!-- w_052.DecelerateX -->
<g id="node8" class="node">
<title>w_052.DecelerateX</title>
<g id="a_node8"><a xlink:href="w_052.DecelerateX.svg" xlink:title="w_052.DecelerateX">
<ellipse fill="red" stroke="black" cx="1313.44" cy="-18" rx="100.18" ry="18"/>
<text text-anchor="middle" x="1313.44" y="-14.3" font-family="Times,serif" font-size="14.00">w_052.DecelerateX</text>
</a>
</g>
</g>
<!-- w_052.func_ptr_80170020&#45;&gt;w_052.DecelerateX -->
<g id="edge7" class="edge">
<title>w_052.func_ptr_80170020&#45;&gt;w_052.DecelerateX</title>
<path fill="none" stroke="black" d="M1148.89,-179.93C1181.45,-148.09 1251.54,-79.54 1288.87,-43.04"/>
<polygon fill="black" stroke="black" points="1291.61,-45.25 1296.31,-35.76 1286.71,-40.25 1291.61,-45.25"/>
<text text-anchor="middle" x="1291.31" y="-39.56" font-family="Times,serif" font-size="14.00">1</text>
</g>
<!-- dra.func_8011AAFC -->
<g id="node9" class="node">
<title>dra.func_8011AAFC</title>
<g id="a_node9"><a xlink:href="dra.func_8011AAFC.svg" xlink:title="dra.func_8011AAFC">
<ellipse fill="green" stroke="black" cx="1534.44" cy="-18" rx="102.88" ry="18"/>
<text text-anchor="middle" x="1534.44" y="-14.3" font-family="Times,serif" font-size="14.00">dra.func_8011AAFC</text>
</a>
</g>
</g>
<!-- w_052.func_ptr_80170020&#45;&gt;dra.func_8011AAFC -->
<g id="edge8" class="edge">
<title>w_052.func_ptr_80170020&#45;&gt;dra.func_8011AAFC</title>
<path fill="none" stroke="black" d="M1168.63,-180.57C1242.78,-147.82 1408.78,-74.5 1489.14,-39.01"/>
<polygon fill="black" stroke="black" points="1490.77,-42.12 1498.5,-34.87 1487.94,-35.71 1490.77,-42.12"/>
<text text-anchor="middle" x="1493.5" y="-38.67" font-family="Times,serif" font-size="14.00">1</text>
</g>
<!-- w_052.DestroyEntity -->
<g id="node10" class="node">
<title>w_052.DestroyEntity</title>
<g id="a_node10"><a xlink:href="w_052.DestroyEntity.svg" xlink:title="w_052.DestroyEntity">
<ellipse fill="red" stroke="black" cx="1763.44" cy="-18" rx="108.58" ry="18"/>
<text text-anchor="middle" x="1763.44" y="-14.3" font-family="Times,serif" font-size="14.00">w_052.DestroyEntity</text>
</a>
</g>
</g>
<!-- w_052.func_ptr_80170020&#45;&gt;w_052.DestroyEntity -->
<g id="edge9" class="edge">
<title>w_052.func_ptr_80170020&#45;&gt;w_052.DestroyEntity</title>
<path fill="none" stroke="black" d="M1186.42,-181.52C1303.67,-148.49 1577.63,-71.33 1701.12,-36.55"/>
<polygon fill="black" stroke="black" points="1702.14,-39.9 1710.82,-33.82 1700.25,-33.16 1702.14,-39.9"/>
<text text-anchor="middle" x="1705.82" y="-37.62" font-family="Times,serif" font-size="14.00">1</text>
</g>
<!-- rcos -->
<g id="node11" class="node">
<title>rcos</title>
<g id="a_node11"><a xlink:href="rcos.svg" xlink:title="rcos">
<ellipse fill="lightblue" stroke="black" cx="1920.44" cy="-18" rx="30.59" ry="18"/>
<text text-anchor="middle" x="1920.44" y="-14.3" font-family="Times,serif" font-size="14.00">rcos</text>
</a>
</g>
</g>
<!-- w_052.func_ptr_80170020&#45;&gt;rcos -->
<g id="edge10" class="edge">
<title>w_052.func_ptr_80170020&#45;&gt;rcos</title>
<path fill="none" stroke="black" d="M1217.82,-184.22C1358.9,-162.07 1646.59,-111.56 1881.44,-36 1883.55,-35.32 1885.71,-34.57 1887.87,-33.76"/>
<polygon fill="black" stroke="black" points="1889.24,-36.98 1897.22,-30.02 1886.64,-30.48 1889.24,-36.98"/>
<text text-anchor="middle" x="1892.22" y="-33.82" font-family="Times,serif" font-size="14.00">1</text>
</g>
<!-- rsin -->
<g id="node12" class="node">
<title>rsin</title>
<g id="a_node12"><a xlink:href="rsin.svg" xlink:title="rsin">
<ellipse fill="lightblue" stroke="black" cx="1997.44" cy="-18" rx="28.7" ry="18"/>
<text text-anchor="middle" x="1997.44" y="-14.3" font-family="Times,serif" font-size="14.00">rsin</text>
</a>
</g>
</g>
<!-- w_052.func_ptr_80170020&#45;&gt;rsin -->
<g id="edge11" class="edge">
<title>w_052.func_ptr_80170020&#45;&gt;rsin</title>
<path fill="none" stroke="black" d="M1229.06,-185.72C1386.01,-165.9 1702.94,-118.84 1960.44,-36 1962.36,-35.38 1964.31,-34.69 1966.26,-33.95"/>
<polygon fill="black" stroke="black" points="1967.98,-37.03 1975.87,-29.95 1965.3,-30.56 1967.98,-37.03"/>
<text text-anchor="middle" x="1970.87" y="-33.75" font-family="Times,serif" font-size="14.00">1</text>
</g>
</g>
</svg>
