<?xml version="1.0" encoding="UTF-8" standalone="no"?>
<!DOCTYPE svg PUBLIC "-//W3C//DTD SVG 1.1//EN"
 "http://www.w3.org/Graphics/SVG/1.1/DTD/svg11.dtd">
<!-- Generated by graphviz version 2.43.0 (0)
 -->
<!-- Title: w_051.func_ptr_80170004 Pages: 1 -->
<svg width="1367pt" height="224pt"
 viewBox="0.00 0.00 1366.57 224.00" xmlns="http://www.w3.org/2000/svg" xmlns:xlink="http://www.w3.org/1999/xlink">
<g id="graph0" class="graph" transform="scale(1 1) rotate(0) translate(4 220)">
<title>w_051.func_ptr_80170004</title>
<polygon fill="white" stroke="transparent" points="-4,4 -4,-220 1362.57,-220 1362.57,4 -4,4"/>
<!-- w_051.func_ptr_80170004 -->
<g id="node1" class="node">
<title>w_051.func_ptr_80170004</title>
<ellipse fill="red" stroke="black" cx="694.29" cy="-198" rx="133.48" ry="18"/>
<text text-anchor="middle" x="694.29" y="-194.3" font-family="Times,serif" font-size="14.00">w_051.func_ptr_80170004</text>
</g>
<!-- w_051.SetWeaponProperties -->
<g id="node2" class="node">
<title>w_051.SetWeaponProperties</title>
<g id="a_node2"><a xlink:href="w_051.SetWeaponProperties.svg" xlink:title="w_051.SetWeaponProperties">
<ellipse fill="red" stroke="black" cx="144.29" cy="-18" rx="144.07" ry="18"/>
<text text-anchor="middle" x="144.29" y="-14.3" font-family="Times,serif" font-size="14.00">w_051.SetWeaponProperties</text>
</a>
</g>
</g>
<!-- w_051.func_ptr_80170004&#45;&gt;w_051.SetWeaponProperties -->
<g id="edge1" class="edge">
<title>w_051.func_ptr_80170004&#45;&gt;w_051.SetWeaponProperties</title>
<path fill="none" stroke="black" d="M645.48,-181.2C544.42,-148.5 312.6,-73.47 203.33,-38.11"/>
<polygon fill="black" stroke="black" points="204.37,-34.77 193.78,-35.02 202.21,-41.43 204.37,-34.77"/>
<text text-anchor="middle" x="188.78" y="-38.82" font-family="Times,serif" font-size="14.00">1</text>
</g>
<!-- dra.UpdateUnarmedAnim -->
<g id="node3" class="node">
<title>dra.UpdateUnarmedAnim</title>
<g id="a_node3"><a xlink:href="dra.UpdateUnarmedAnim.svg" xlink:title="dra.UpdateUnarmedAnim">
<ellipse fill="green" stroke="black" cx="437.29" cy="-18" rx="130.78" ry="18"/>
<text text-anchor="middle" x="437.29" y="-14.3" font-family="Times,serif" font-size="14.00">dra.UpdateUnarmedAnim</text>
</a>
</g>
</g>
<!-- w_051.func_ptr_80170004&#45;&gt;dra.UpdateUnarmedAnim -->
<g id="edge2" class="edge">
<title>w_051.func_ptr_80170004&#45;&gt;dra.UpdateUnarmedAnim</title>
<path fill="none" stroke="black" d="M670.11,-180.25C623.71,-148.12 522.15,-77.78 469.85,-41.55"/>
<polygon fill="black" stroke="black" points="471.8,-38.65 461.59,-35.83 467.82,-44.4 471.8,-38.65"/>
<text text-anchor="middle" x="456.59" y="-39.63" font-family="Times,serif" font-size="14.00">1</text>
</g>
<!-- w_051.DestroyEntity -->
<g id="node4" class="node">
<title>w_051.DestroyEntity</title>
<g id="a_node4"><a xlink:href="w_051.DestroyEntity.svg" xlink:title="w_051.DestroyEntity">
<ellipse fill="red" stroke="black" cx="694.29" cy="-18" rx="108.58" ry="18"/>
<text text-anchor="middle" x="694.29" y="-14.3" font-family="Times,serif" font-size="14.00">w_051.DestroyEntity</text>
</a>
</g>
</g>
<!-- w_051.func_ptr_80170004&#45;&gt;w_051.DestroyEntity -->
<g id="edge3" class="edge">
<title>w_051.func_ptr_80170004&#45;&gt;w_051.DestroyEntity</title>
<path fill="none" stroke="black" d="M694.29,-179.93C694.29,-148.97 694.29,-83.3 694.29,-46.13"/>
<polygon fill="black" stroke="black" points="697.79,-46.02 694.29,-36.02 690.79,-46.02 697.79,-46.02"/>
<text text-anchor="middle" x="689.29" y="-39.82" font-family="Times,serif" font-size="14.00">1</text>
</g>
<!-- dra.func_8011AAFC -->
<g id="node5" class="node">
<title>dra.func_8011AAFC</title>
<g id="a_node5"><a xlink:href="dra.func_8011AAFC.svg" xlink:title="dra.func_8011AAFC">
<ellipse fill="green" stroke="black" cx="923.29" cy="-18" rx="102.88" ry="18"/>
<text text-anchor="middle" x="923.29" y="-14.3" font-family="Times,serif" font-size="14.00">dra.func_8011AAFC</text>
</a>
</g>
</g>
<!-- w_051.func_ptr_80170004&#45;&gt;dra.func_8011AAFC -->
<g id="edge4" class="edge">
<title>w_051.func_ptr_80170004&#45;&gt;dra.func_8011AAFC</title>
<path fill="none" stroke="black" d="M716.24,-179.93C757.64,-147.75 847.25,-78.11 893.83,-41.9"/>
<polygon fill="black" stroke="black" points="895.98,-44.66 901.73,-35.76 891.69,-39.13 895.98,-44.66"/>
<text text-anchor="middle" x="896.73" y="-39.56" font-family="Times,serif" font-size="14.00">1</text>
</g>
<!-- w_051.func_169000_8017B1DC -->
<g id="node6" class="node">
<title>w_051.func_169000_8017B1DC</title>
<g id="a_node6"><a xlink:href="w_051.func_169000_8017B1DC.svg" xlink:title="w_051.func_169000_8017B1DC">
<ellipse fill="red" stroke="black" cx="1201.29" cy="-18" rx="157.07" ry="18"/>
<text text-anchor="middle" x="1201.29" y="-14.3" font-family="Times,serif" font-size="14.00">w_051.func_169000_8017B1DC</text>
</a>
</g>
</g>
<!-- w_051.func_ptr_80170004&#45;&gt;w_051.func_169000_8017B1DC -->
<g id="edge5" class="edge">
<title>w_051.func_ptr_80170004&#45;&gt;w_051.func_169000_8017B1DC</title>
<path fill="none" stroke="black" d="M739.73,-181.05C832.64,-148.43 1044.1,-74.18 1145.3,-38.66"/>
<polygon fill="black" stroke="black" points="1146.76,-41.85 1155.04,-35.24 1144.44,-35.25 1146.76,-41.85"/>
<text text-anchor="middle" x="1150.04" y="-39.04" font-family="Times,serif" font-size="14.00">1</text>
</g>
</g>
</svg>
