<?xml version="1.0" encoding="UTF-8" standalone="no"?>
<!DOCTYPE svg PUBLIC "-//W3C//DTD SVG 1.1//EN"
 "http://www.w3.org/Graphics/SVG/1.1/DTD/svg11.dtd">
<!-- Generated by graphviz version 2.43.0 (0)
 -->
<!-- Title: w_057.EntityWeaponAttack Pages: 1 -->
<svg width="1210pt" height="131pt"
 viewBox="0.00 0.00 1209.53 131.00" xmlns="http://www.w3.org/2000/svg" xmlns:xlink="http://www.w3.org/1999/xlink">
<g id="graph0" class="graph" transform="scale(1 1) rotate(0) translate(4 127)">
<title>w_057.EntityWeaponAttack</title>
<polygon fill="white" stroke="transparent" points="-4,4 -4,-127 1205.53,-127 1205.53,4 -4,4"/>
<!-- w_057.EntityWeaponAttack -->
<g id="node1" class="node">
<title>w_057.EntityWeaponAttack</title>
<ellipse fill="red" stroke="black" cx="622.99" cy="-105" rx="138.38" ry="18"/>
<text text-anchor="middle" x="622.99" y="-101.3" font-family="Times,serif" font-size="14.00">w_057.EntityWeaponAttack</text>
</g>
<!-- w_057.SetSpriteBank1 -->
<g id="node2" class="node">
<title>w_057.SetSpriteBank1</title>
<g id="a_node2"><a xlink:href="w_057.SetSpriteBank1.svg" xlink:title="w_057.SetSpriteBank1">
<ellipse fill="red" stroke="black" cx="116.99" cy="-18" rx="116.98" ry="18"/>
<text text-anchor="middle" x="116.99" y="-14.3" font-family="Times,serif" font-size="14.00">w_057.SetSpriteBank1</text>
</a>
</g>
</g>
<!-- w_057.EntityWeaponAttack&#45;&gt;w_057.SetSpriteBank1 -->
<g id="edge1" class="edge">
<title>w_057.EntityWeaponAttack&#45;&gt;w_057.SetSpriteBank1</title>
<path fill="none" stroke="black" d="M541.97,-90.39C449.17,-74.8 297.75,-49.37 202.93,-33.44"/>
<polygon fill="black" stroke="black" points="203.24,-29.94 192.8,-31.74 202.08,-36.84 203.24,-29.94"/>
<text text-anchor="middle" x="405.99" y="-57.8" font-family="Times,serif" font-size="14.00">1</text>
</g>
<!-- w_057.SetWeaponProperties -->
<g id="node3" class="node">
<title>w_057.SetWeaponProperties</title>
<g id="a_node3"><a xlink:href="w_057.SetWeaponProperties.svg" xlink:title="w_057.SetWeaponProperties">
<ellipse fill="red" stroke="black" cx="395.99" cy="-18" rx="144.07" ry="18"/>
<text text-anchor="middle" x="395.99" y="-14.3" font-family="Times,serif" font-size="14.00">w_057.SetWeaponProperties</text>
</a>
</g>
</g>
<!-- w_057.EntityWeaponAttack&#45;&gt;w_057.SetWeaponProperties -->
<g id="edge2" class="edge">
<title>w_057.EntityWeaponAttack&#45;&gt;w_057.SetWeaponProperties</title>
<path fill="none" stroke="black" d="M579.76,-87.81C542.56,-73.88 488.77,-53.74 448.98,-38.84"/>
<polygon fill="black" stroke="black" points="450.04,-35.5 439.45,-35.27 447.58,-42.06 450.04,-35.5"/>
<text text-anchor="middle" x="528.99" y="-57.8" font-family="Times,serif" font-size="14.00">1</text>
</g>
<!-- dra.PlaySfx -->
<g id="node4" class="node">
<title>dra.PlaySfx</title>
<g id="a_node4"><a xlink:href="dra.PlaySfx.svg" xlink:title="dra.PlaySfx">
<ellipse fill="green" stroke="black" cx="622.99" cy="-18" rx="64.19" ry="18"/>
<text text-anchor="middle" x="622.99" y="-14.3" font-family="Times,serif" font-size="14.00">dra.PlaySfx</text>
</a>
</g>
</g>
<!-- w_057.EntityWeaponAttack&#45;&gt;dra.PlaySfx -->
<g id="edge3" class="edge">
<title>w_057.EntityWeaponAttack&#45;&gt;dra.PlaySfx</title>
<path fill="none" stroke="black" d="M622.99,-86.8C622.99,-75.16 622.99,-59.55 622.99,-46.24"/>
<polygon fill="black" stroke="black" points="626.49,-46.18 622.99,-36.18 619.49,-46.18 626.49,-46.18"/>
<text text-anchor="middle" x="627.99" y="-57.8" font-family="Times,serif" font-size="14.00">1</text>
</g>
<!-- dra.UpdateUnarmedAnim -->
<g id="node5" class="node">
<title>dra.UpdateUnarmedAnim</title>
<g id="a_node5"><a xlink:href="dra.UpdateUnarmedAnim.svg" xlink:title="dra.UpdateUnarmedAnim">
<ellipse fill="green" stroke="black" cx="835.99" cy="-18" rx="130.78" ry="18"/>
<text text-anchor="middle" x="835.99" y="-14.3" font-family="Times,serif" font-size="14.00">dra.UpdateUnarmedAnim</text>
</a>
</g>
</g>
<!-- w_057.EntityWeaponAttack&#45;&gt;dra.UpdateUnarmedAnim -->
<g id="edge4" class="edge">
<title>w_057.EntityWeaponAttack&#45;&gt;dra.UpdateUnarmedAnim</title>
<path fill="none" stroke="black" d="M663.81,-87.71C698.51,-73.86 748.49,-53.92 785.67,-39.08"/>
<polygon fill="black" stroke="black" points="787.32,-42.19 795.31,-35.23 784.73,-35.69 787.32,-42.19"/>
<text text-anchor="middle" x="747.99" y="-57.8" font-family="Times,serif" font-size="14.00">1</text>
</g>
<!-- w_057.DestroyEntity -->
<g id="node6" class="node">
<title>w_057.DestroyEntity</title>
<g id="a_node6"><a xlink:href="w_057.DestroyEntity.svg" xlink:title="w_057.DestroyEntity">
<ellipse fill="red" stroke="black" cx="1092.99" cy="-18" rx="108.58" ry="18"/>
<text text-anchor="middle" x="1092.99" y="-14.3" font-family="Times,serif" font-size="14.00">w_057.DestroyEntity</text>
</a>
</g>
</g>
<!-- w_057.EntityWeaponAttack&#45;&gt;w_057.DestroyEntity -->
<g id="edge5" class="edge">
<title>w_057.EntityWeaponAttack&#45;&gt;w_057.DestroyEntity</title>
<path fill="none" stroke="black" d="M700.34,-90.01C786.52,-74.42 925.22,-49.34 1012.61,-33.54"/>
<polygon fill="black" stroke="black" points="1013.27,-36.98 1022.48,-31.75 1012.02,-30.09 1013.27,-36.98"/>
<text text-anchor="middle" x="891.99" y="-57.8" font-family="Times,serif" font-size="14.00">1</text>
</g>
</g>
</svg>
