<?xml version="1.0" encoding="UTF-8" standalone="no"?>
<!DOCTYPE svg PUBLIC "-//W3C//DTD SVG 1.1//EN"
 "http://www.w3.org/Graphics/SVG/1.1/DTD/svg11.dtd">
<!-- Generated by graphviz version 2.43.0 (0)
 -->
<!-- Title: w_056.func_18C000_8017B060 Pages: 1 -->
<svg width="980pt" height="218pt"
 viewBox="0.00 0.00 979.97 218.00" xmlns="http://www.w3.org/2000/svg" xmlns:xlink="http://www.w3.org/1999/xlink">
<g id="graph0" class="graph" transform="scale(1 1) rotate(0) translate(4 214)">
<title>w_056.func_18C000_8017B060</title>
<polygon fill="white" stroke="transparent" points="-4,4 -4,-214 975.97,-214 975.97,4 -4,4"/>
<!-- w_056.func_18C000_8017B060 -->
<g id="node1" class="node">
<title>w_056.func_18C000_8017B060</title>
<ellipse fill="red" stroke="black" cx="485.99" cy="-105" rx="155.97" ry="18"/>
<text text-anchor="middle" x="485.99" y="-101.3" font-family="Times,serif" font-size="14.00">w_056.func_18C000_8017B060</text>
</g>
<!-- dra.FreePrimitives -->
<g id="node2" class="node">
<title>dra.FreePrimitives</title>
<g id="a_node2"><a xlink:href="dra.FreePrimitives.svg" xlink:title="dra.FreePrimitives">
<ellipse fill="green" stroke="black" cx="485.99" cy="-18" rx="98.58" ry="18"/>
<text text-anchor="middle" x="485.99" y="-14.3" font-family="Times,serif" font-size="14.00">dra.FreePrimitives</text>
</a>
</g>
</g>
<!-- w_056.func_18C000_8017B060&#45;&gt;dra.FreePrimitives -->
<g id="edge1" class="edge">
<title>w_056.func_18C000_8017B060&#45;&gt;dra.FreePrimitives</title>
<path fill="none" stroke="black" d="M485.99,-86.8C485.99,-75.16 485.99,-59.55 485.99,-46.24"/>
<polygon fill="black" stroke="black" points="489.49,-46.18 485.99,-36.18 482.49,-46.18 489.49,-46.18"/>
<text text-anchor="middle" x="490.99" y="-57.8" font-family="Times,serif" font-size="14.00">1</text>
</g>
<!-- w_056.func_18C000_8017B400 -->
<g id="node3" class="node">
<title>w_056.func_18C000_8017B400</title>
<g id="a_node3"><a xlink:href="w_056.func_18C000_8017B400.svg" xlink:title="w_056.func_18C000_8017B400">
<ellipse fill="red" stroke="black" cx="155.99" cy="-192" rx="155.97" ry="18"/>
<text text-anchor="middle" x="155.99" y="-188.3" font-family="Times,serif" font-size="14.00">w_056.func_18C000_8017B400</text>
</a>
</g>
</g>
<!-- w_056.func_18C000_8017B400&#45;&gt;w_056.func_18C000_8017B060 -->
<g id="edge2" class="edge">
<title>w_056.func_18C000_8017B400&#45;&gt;w_056.func_18C000_8017B060</title>
<path fill="none" stroke="black" d="M216.51,-175.41C272.62,-160.96 356.12,-139.45 415.27,-124.21"/>
<polygon fill="black" stroke="black" points="416.47,-127.52 425.28,-121.64 414.73,-120.74 416.47,-127.52"/>
<text text-anchor="middle" x="345.99" y="-144.8" font-family="Times,serif" font-size="14.00">1</text>
</g>
<!-- w_056.func_18C000_8017B294 -->
<g id="node4" class="node">
<title>w_056.func_18C000_8017B294</title>
<g id="a_node4"><a xlink:href="w_056.func_18C000_8017B294.svg" xlink:title="w_056.func_18C000_8017B294">
<ellipse fill="red" stroke="black" cx="485.99" cy="-192" rx="155.97" ry="18"/>
<text text-anchor="middle" x="485.99" y="-188.3" font-family="Times,serif" font-size="14.00">w_056.func_18C000_8017B294</text>
</a>
</g>
</g>
<!-- w_056.func_18C000_8017B294&#45;&gt;w_056.func_18C000_8017B060 -->
<g id="edge3" class="edge">
<title>w_056.func_18C000_8017B294&#45;&gt;w_056.func_18C000_8017B060</title>
<path fill="none" stroke="black" d="M485.99,-173.8C485.99,-162.16 485.99,-146.55 485.99,-133.24"/>
<polygon fill="black" stroke="black" points="489.49,-133.18 485.99,-123.18 482.49,-133.18 489.49,-133.18"/>
<text text-anchor="middle" x="490.99" y="-144.8" font-family="Times,serif" font-size="14.00">2</text>
</g>
<!-- w_056.func_18C000_8017B998 -->
<g id="node5" class="node">
<title>w_056.func_18C000_8017B998</title>
<g id="a_node5"><a xlink:href="w_056.func_18C000_8017B998.svg" xlink:title="w_056.func_18C000_8017B998">
<ellipse fill="red" stroke="black" cx="815.99" cy="-192" rx="155.97" ry="18"/>
<text text-anchor="middle" x="815.99" y="-188.3" font-family="Times,serif" font-size="14.00">w_056.func_18C000_8017B998</text>
</a>
</g>
</g>
<!-- w_056.func_18C000_8017B998&#45;&gt;w_056.func_18C000_8017B060 -->
<g id="edge4" class="edge">
<title>w_056.func_18C000_8017B998&#45;&gt;w_056.func_18C000_8017B060</title>
<path fill="none" stroke="black" d="M755.46,-175.41C699.35,-160.96 615.86,-139.45 556.7,-124.21"/>
<polygon fill="black" stroke="black" points="557.24,-120.74 546.69,-121.64 555.5,-127.52 557.24,-120.74"/>
<text text-anchor="middle" x="675.99" y="-144.8" font-family="Times,serif" font-size="14.00">1</text>
</g>
</g>
</svg>
