<?xml version="1.0" encoding="UTF-8" standalone="no"?>
<!DOCTYPE svg PUBLIC "-//W3C//DTD SVG 1.1//EN"
 "http://www.w3.org/Graphics/SVG/1.1/DTD/svg11.dtd">
<!-- Generated by graphviz version 2.43.0 (0)
 -->
<!-- Title: wrp.func_80190614 Pages: 1 -->
<svg width="992pt" height="224pt"
 viewBox="0.00 0.00 991.54 224.00" xmlns="http://www.w3.org/2000/svg" xmlns:xlink="http://www.w3.org/1999/xlink">
<g id="graph0" class="graph" transform="scale(1 1) rotate(0) translate(4 220)">
<title>wrp.func_80190614</title>
<polygon fill="white" stroke="transparent" points="-4,4 -4,-220 987.54,-220 987.54,4 -4,4"/>
<!-- wrp.func_80190614 -->
<g id="node1" class="node">
<title>wrp.func_80190614</title>
<ellipse fill="green" stroke="black" cx="358.55" cy="-198" rx="102.88" ry="18"/>
<text text-anchor="middle" x="358.55" y="-194.3" font-family="Times,serif" font-size="14.00">wrp.func_80190614</text>
</g>
<!-- rcos -->
<g id="node2" class="node">
<title>rcos</title>
<g id="a_node2"><a xlink:href="rcos.svg" xlink:title="rcos">
<ellipse fill="lightblue" stroke="black" cx="30.55" cy="-18" rx="30.59" ry="18"/>
<text text-anchor="middle" x="30.55" y="-14.3" font-family="Times,serif" font-size="14.00">rcos</text>
</a>
</g>
</g>
<!-- wrp.func_80190614&#45;&gt;rcos -->
<g id="edge1" class="edge">
<title>wrp.func_80190614&#45;&gt;rcos</title>
<path fill="none" stroke="black" d="M328.57,-180.73C266.44,-147.02 124.21,-69.83 61.37,-35.73"/>
<polygon fill="black" stroke="black" points="62.8,-32.52 52.34,-30.83 59.46,-38.67 62.8,-32.52"/>
<text text-anchor="middle" x="57.34" y="-34.63" font-family="Times,serif" font-size="14.00">1</text>
</g>
<!-- rsin -->
<g id="node3" class="node">
<title>rsin</title>
<g id="a_node3"><a xlink:href="rsin.svg" xlink:title="rsin">
<ellipse fill="lightblue" stroke="black" cx="107.55" cy="-18" rx="28.7" ry="18"/>
<text text-anchor="middle" x="107.55" y="-14.3" font-family="Times,serif" font-size="14.00">rsin</text>
</a>
</g>
</g>
<!-- wrp.func_80190614&#45;&gt;rsin -->
<g id="edge2" class="edge">
<title>wrp.func_80190614&#45;&gt;rsin</title>
<path fill="none" stroke="black" d="M334.93,-180.25C288.08,-147.03 183.63,-72.95 134.31,-37.98"/>
<polygon fill="black" stroke="black" points="136.23,-35.05 126.05,-32.12 132.18,-40.76 136.23,-35.05"/>
<text text-anchor="middle" x="121.05" y="-35.92" font-family="Times,serif" font-size="14.00">1</text>
</g>
<!-- wrp.DestroyEntity -->
<g id="node4" class="node">
<title>wrp.DestroyEntity</title>
<g id="a_node4"><a xlink:href="wrp.DestroyEntity.svg" xlink:title="wrp.DestroyEntity">
<ellipse fill="green" stroke="black" cx="250.55" cy="-18" rx="96.68" ry="18"/>
<text text-anchor="middle" x="250.55" y="-14.3" font-family="Times,serif" font-size="14.00">wrp.DestroyEntity</text>
</a>
</g>
</g>
<!-- wrp.func_80190614&#45;&gt;wrp.DestroyEntity -->
<g id="edge3" class="edge">
<title>wrp.func_80190614&#45;&gt;wrp.DestroyEntity</title>
<path fill="none" stroke="black" d="M348.19,-179.93C329.16,-148.57 288.53,-81.6 266.15,-44.71"/>
<polygon fill="black" stroke="black" points="269.05,-42.75 260.87,-36.02 263.07,-46.38 269.05,-42.75"/>
<text text-anchor="middle" x="255.87" y="-39.82" font-family="Times,serif" font-size="14.00">1</text>
</g>
<!-- wrp.InitializeEntity -->
<g id="node5" class="node">
<title>wrp.InitializeEntity</title>
<g id="a_node5"><a xlink:href="wrp.InitializeEntity.svg" xlink:title="wrp.InitializeEntity">
<ellipse fill="green" stroke="black" cx="466.55" cy="-18" rx="100.98" ry="18"/>
<text text-anchor="middle" x="466.55" y="-14.3" font-family="Times,serif" font-size="14.00">wrp.InitializeEntity</text>
</a>
</g>
</g>
<!-- wrp.func_80190614&#45;&gt;wrp.InitializeEntity -->
<g id="edge4" class="edge">
<title>wrp.func_80190614&#45;&gt;wrp.InitializeEntity</title>
<path fill="none" stroke="black" d="M368.9,-179.93C387.93,-148.57 428.56,-81.6 450.95,-44.71"/>
<polygon fill="black" stroke="black" points="454.03,-46.38 456.22,-36.02 448.04,-42.75 454.03,-46.38"/>
<text text-anchor="middle" x="451.22" y="-39.82" font-family="Times,serif" font-size="14.00">1</text>
</g>
<!-- wrp.MoveEntity -->
<g id="node6" class="node">
<title>wrp.MoveEntity</title>
<g id="a_node6"><a xlink:href="wrp.MoveEntity.svg" xlink:title="wrp.MoveEntity">
<ellipse fill="green" stroke="black" cx="671.55" cy="-18" rx="85.59" ry="18"/>
<text text-anchor="middle" x="671.55" y="-14.3" font-family="Times,serif" font-size="14.00">wrp.MoveEntity</text>
</a>
</g>
</g>
<!-- wrp.func_80190614&#45;&gt;wrp.MoveEntity -->
<g id="edge5" class="edge">
<title>wrp.func_80190614&#45;&gt;wrp.MoveEntity</title>
<path fill="none" stroke="black" d="M387.43,-180.57C444.41,-148.17 571.21,-76.06 634.35,-40.16"/>
<polygon fill="black" stroke="black" points="636.22,-43.12 643.18,-35.13 632.76,-37.03 636.22,-43.12"/>
<text text-anchor="middle" x="638.18" y="-38.93" font-family="Times,serif" font-size="14.00">1</text>
</g>
<!-- wrp.func_8018B730 -->
<g id="node7" class="node">
<title>wrp.func_8018B730</title>
<g id="a_node7"><a xlink:href="wrp.func_8018B730.svg" xlink:title="wrp.func_8018B730">
<ellipse fill="green" stroke="black" cx="879.55" cy="-18" rx="103.98" ry="18"/>
<text text-anchor="middle" x="879.55" y="-14.3" font-family="Times,serif" font-size="14.00">wrp.func_8018B730</text>
</a>
</g>
</g>
<!-- wrp.func_80190614&#45;&gt;wrp.func_8018B730 -->
<g id="edge6" class="edge">
<title>wrp.func_80190614&#45;&gt;wrp.func_8018B730</title>
<path fill="none" stroke="black" d="M403.42,-181.67C498.82,-149.07 721.54,-72.98 824.97,-37.65"/>
<polygon fill="black" stroke="black" points="826.27,-40.9 834.6,-34.36 824,-34.28 826.27,-40.9"/>
<text text-anchor="middle" x="829.6" y="-38.16" font-family="Times,serif" font-size="14.00">1</text>
</g>
</g>
</svg>
