<?xml version="1.0" encoding="UTF-8" standalone="no"?>
<!DOCTYPE svg PUBLIC "-//W3C//DTD SVG 1.1//EN"
 "http://www.w3.org/Graphics/SVG/1.1/DTD/svg11.dtd">
<!-- Generated by graphviz version 2.43.0 (0)
 -->
<!-- Title: wrp.TestCollisions Pages: 1 -->
<svg width="2758pt" height="131pt"
 viewBox="0.00 0.00 2757.74 131.00" xmlns="http://www.w3.org/2000/svg" xmlns:xlink="http://www.w3.org/1999/xlink">
<g id="graph0" class="graph" transform="scale(1 1) rotate(0) translate(4 127)">
<title>wrp.TestCollisions</title>
<polygon fill="white" stroke="transparent" points="-4,4 -4,-127 2753.74,-127 2753.74,4 -4,4"/>
<!-- wrp.TestCollisions -->
<g id="node1" class="node">
<title>wrp.TestCollisions</title>
<ellipse fill="red" stroke="black" cx="1326.34" cy="-105" rx="96.38" ry="18"/>
<text text-anchor="middle" x="1326.34" y="-101.3" font-family="Times,serif" font-size="14.00">wrp.TestCollisions</text>
</g>
<!-- dra.PlaySfx -->
<g id="node2" class="node">
<title>dra.PlaySfx</title>
<g id="a_node2"><a xlink:href="dra.PlaySfx.svg" xlink:title="dra.PlaySfx">
<ellipse fill="green" stroke="black" cx="64.34" cy="-18" rx="64.19" ry="18"/>
<text text-anchor="middle" x="64.34" y="-14.3" font-family="Times,serif" font-size="14.00">dra.PlaySfx</text>
</a>
</g>
</g>
<!-- wrp.TestCollisions&#45;&gt;dra.PlaySfx -->
<g id="edge1" class="edge">
<title>wrp.TestCollisions&#45;&gt;dra.PlaySfx</title>
<path fill="none" stroke="black" d="M1231.47,-101.89C1073.74,-97.99 747.68,-88.23 472.34,-69 323.54,-58.61 285.55,-60.08 138.34,-36 132.59,-35.06 126.62,-33.94 120.68,-32.72"/>
<polygon fill="black" stroke="black" points="121.26,-29.27 110.75,-30.61 119.8,-36.11 121.26,-29.27"/>
<text text-anchor="middle" x="477.34" y="-57.8" font-family="Times,serif" font-size="14.00">4</text>
</g>
<!-- wrp.AllocEntity -->
<g id="node3" class="node">
<title>wrp.AllocEntity</title>
<g id="a_node3"><a xlink:href="wrp.AllocEntity.svg" xlink:title="wrp.AllocEntity">
<ellipse fill="green" stroke="black" cx="230.34" cy="-18" rx="83.39" ry="18"/>
<text text-anchor="middle" x="230.34" y="-14.3" font-family="Times,serif" font-size="14.00">wrp.AllocEntity</text>
</a>
</g>
</g>
<!-- wrp.TestCollisions&#45;&gt;wrp.AllocEntity -->
<g id="edge2" class="edge">
<title>wrp.TestCollisions&#45;&gt;wrp.AllocEntity</title>
<path fill="none" stroke="black" d="M1232.22,-101.24C1054.02,-95.23 655.37,-77.93 322.34,-36 314.75,-35.04 306.84,-33.86 298.98,-32.58"/>
<polygon fill="black" stroke="black" points="299.53,-29.12 289.08,-30.89 298.35,-36.02 299.53,-29.12"/>
<text text-anchor="middle" x="630.34" y="-57.8" font-family="Times,serif" font-size="14.00">4</text>
</g>
<!-- wrp.CreateEntityFromEntity -->
<g id="node4" class="node">
<title>wrp.CreateEntityFromEntity</title>
<g id="a_node4"><a xlink:href="wrp.CreateEntityFromEntity.svg" xlink:title="wrp.CreateEntityFromEntity">
<ellipse fill="green" stroke="black" cx="477.34" cy="-18" rx="145.67" ry="18"/>
<text text-anchor="middle" x="477.34" y="-14.3" font-family="Times,serif" font-size="14.00">wrp.CreateEntityFromEntity</text>
</a>
</g>
</g>
<!-- wrp.TestCollisions&#45;&gt;wrp.CreateEntityFromEntity -->
<g id="edge3" class="edge">
<title>wrp.TestCollisions&#45;&gt;wrp.CreateEntityFromEntity</title>
<path fill="none" stroke="black" d="M1242.33,-96.14C1111.62,-83.84 851.7,-59.05 631.34,-36 618.45,-34.65 604.95,-33.21 591.52,-31.75"/>
<polygon fill="black" stroke="black" points="591.61,-28.24 581.29,-30.64 590.85,-35.2 591.61,-28.24"/>
<text text-anchor="middle" x="960.34" y="-57.8" font-family="Times,serif" font-size="14.00">3</text>
</g>
<!-- dra.FreePrimitives -->
<g id="node5" class="node">
<title>dra.FreePrimitives</title>
<g id="a_node5"><a xlink:href="dra.FreePrimitives.svg" xlink:title="dra.FreePrimitives">
<ellipse fill="green" stroke="black" cx="739.34" cy="-18" rx="98.58" ry="18"/>
<text text-anchor="middle" x="739.34" y="-14.3" font-family="Times,serif" font-size="14.00">dra.FreePrimitives</text>
</a>
</g>
</g>
<!-- wrp.TestCollisions&#45;&gt;dra.FreePrimitives -->
<g id="edge4" class="edge">
<title>wrp.TestCollisions&#45;&gt;dra.FreePrimitives</title>
<path fill="none" stroke="black" d="M1251.21,-93.69C1156.85,-80.66 990.01,-57.35 847.34,-36 838.82,-34.72 829.92,-33.37 821.05,-31.99"/>
<polygon fill="black" stroke="black" points="821.49,-28.52 811.07,-30.45 820.41,-35.44 821.49,-28.52"/>
<text text-anchor="middle" x="1075.34" y="-57.8" font-family="Times,serif" font-size="14.00">1</text>
</g>
<!-- wrp.func_80192F40 -->
<g id="node6" class="node">
<title>wrp.func_80192F40</title>
<g id="a_node6"><a xlink:href="wrp.func_80192F40.svg" xlink:title="wrp.func_80192F40">
<ellipse fill="red" stroke="black" cx="959.34" cy="-18" rx="103.18" ry="18"/>
<text text-anchor="middle" x="959.34" y="-14.3" font-family="Times,serif" font-size="14.00">wrp.func_80192F40</text>
</a>
</g>
</g>
<!-- wrp.TestCollisions&#45;&gt;wrp.func_80192F40 -->
<g id="edge5" class="edge">
<title>wrp.TestCollisions&#45;&gt;wrp.func_80192F40</title>
<path fill="none" stroke="black" d="M1268.19,-90.53C1203.18,-75.47 1097.94,-51.1 1028.69,-35.06"/>
<polygon fill="black" stroke="black" points="1029.28,-31.6 1018.74,-32.76 1027.7,-38.42 1029.28,-31.6"/>
<text text-anchor="middle" x="1170.34" y="-57.8" font-family="Times,serif" font-size="14.00">1</text>
</g>
<!-- wrp.Random -->
<g id="node7" class="node">
<title>wrp.Random</title>
<g id="a_node7"><a xlink:href="wrp.Random.svg" xlink:title="wrp.Random">
<ellipse fill="green" stroke="black" cx="1150.34" cy="-18" rx="69.59" ry="18"/>
<text text-anchor="middle" x="1150.34" y="-14.3" font-family="Times,serif" font-size="14.00">wrp.Random</text>
</a>
</g>
</g>
<!-- wrp.TestCollisions&#45;&gt;wrp.Random -->
<g id="edge6" class="edge">
<title>wrp.TestCollisions&#45;&gt;wrp.Random</title>
<path fill="none" stroke="black" d="M1293.24,-88.01C1264.27,-74.02 1222.09,-53.65 1191.06,-38.67"/>
<polygon fill="black" stroke="black" points="1192.35,-35.4 1181.82,-34.2 1189.3,-41.7 1192.35,-35.4"/>
<text text-anchor="middle" x="1254.34" y="-57.8" font-family="Times,serif" font-size="14.00">2</text>
</g>
<!-- dra.DealDamage -->
<g id="node8" class="node">
<title>dra.DealDamage</title>
<g id="a_node8"><a xlink:href="dra.DealDamage.svg" xlink:title="dra.DealDamage">
<ellipse fill="green" stroke="black" cx="1326.34" cy="-18" rx="88.28" ry="18"/>
<text text-anchor="middle" x="1326.34" y="-14.3" font-family="Times,serif" font-size="14.00">dra.DealDamage</text>
</a>
</g>
</g>
<!-- wrp.TestCollisions&#45;&gt;dra.DealDamage -->
<g id="edge7" class="edge">
<title>wrp.TestCollisions&#45;&gt;dra.DealDamage</title>
<path fill="none" stroke="black" d="M1326.34,-86.8C1326.34,-75.16 1326.34,-59.55 1326.34,-46.24"/>
<polygon fill="black" stroke="black" points="1329.84,-46.18 1326.34,-36.18 1322.84,-46.18 1329.84,-46.18"/>
<text text-anchor="middle" x="1331.34" y="-57.8" font-family="Times,serif" font-size="14.00">1</text>
</g>
<!-- wrp.DestroyEntity -->
<g id="node9" class="node">
<title>wrp.DestroyEntity</title>
<g id="a_node9"><a xlink:href="wrp.DestroyEntity.svg" xlink:title="wrp.DestroyEntity">
<ellipse fill="green" stroke="black" cx="1529.34" cy="-18" rx="96.68" ry="18"/>
<text text-anchor="middle" x="1529.34" y="-14.3" font-family="Times,serif" font-size="14.00">wrp.DestroyEntity</text>
</a>
</g>
</g>
<!-- wrp.TestCollisions&#45;&gt;wrp.DestroyEntity -->
<g id="edge8" class="edge">
<title>wrp.TestCollisions&#45;&gt;wrp.DestroyEntity</title>
<path fill="none" stroke="black" d="M1364.05,-88.21C1397.52,-74.2 1446.56,-53.66 1482.53,-38.6"/>
<polygon fill="black" stroke="black" points="1483.97,-41.79 1491.84,-34.7 1481.26,-35.34 1483.97,-41.79"/>
<text text-anchor="middle" x="1445.34" y="-57.8" font-family="Times,serif" font-size="14.00">1</text>
</g>
<!-- wrp.PreventEntityFromRespawning -->
<g id="node10" class="node">
<title>wrp.PreventEntityFromRespawning</title>
<g id="a_node10"><a xlink:href="wrp.PreventEntityFromRespawning.svg" xlink:title="wrp.PreventEntityFromRespawning">
<ellipse fill="green" stroke="black" cx="1823.34" cy="-18" rx="178.97" ry="18"/>
<text text-anchor="middle" x="1823.34" y="-14.3" font-family="Times,serif" font-size="14.00">wrp.PreventEntityFromRespawning</text>
</a>
</g>
</g>
<!-- wrp.TestCollisions&#45;&gt;wrp.PreventEntityFromRespawning -->
<g id="edge9" class="edge">
<title>wrp.TestCollisions&#45;&gt;wrp.PreventEntityFromRespawning</title>
<path fill="none" stroke="black" d="M1394.67,-92.31C1480.84,-77.58 1629.53,-52.15 1727.16,-35.45"/>
<polygon fill="black" stroke="black" points="1727.76,-38.9 1737.03,-33.76 1726.58,-32 1727.76,-38.9"/>
<text text-anchor="middle" x="1610.34" y="-57.8" font-family="Times,serif" font-size="14.00">1</text>
</g>
<!-- dra.func_800FE044 -->
<g id="node11" class="node">
<title>dra.func_800FE044</title>
<g id="a_node11"><a xlink:href="dra.func_800FE044.svg" xlink:title="dra.func_800FE044">
<ellipse fill="green" stroke="black" cx="2122.34" cy="-18" rx="102.08" ry="18"/>
<text text-anchor="middle" x="2122.34" y="-14.3" font-family="Times,serif" font-size="14.00">dra.func_800FE044</text>
</a>
</g>
</g>
<!-- wrp.TestCollisions&#45;&gt;dra.func_800FE044 -->
<g id="edge10" class="edge">
<title>wrp.TestCollisions&#45;&gt;dra.func_800FE044</title>
<path fill="none" stroke="black" d="M1412.48,-96.93C1542.47,-85.92 1796.44,-63.1 2011.34,-36 2020.53,-34.84 2030.13,-33.53 2039.67,-32.16"/>
<polygon fill="black" stroke="black" points="2040.19,-35.62 2049.58,-30.71 2039.18,-28.69 2040.19,-35.62"/>
<text text-anchor="middle" x="1848.34" y="-57.8" font-family="Times,serif" font-size="14.00">1</text>
</g>
<!-- rand -->
<g id="node12" class="node">
<title>rand</title>
<g id="a_node12"><a xlink:href="rand.svg" xlink:title="rand">
<ellipse fill="lightblue" stroke="black" cx="2275.34" cy="-18" rx="32.49" ry="18"/>
<text text-anchor="middle" x="2275.34" y="-14.3" font-family="Times,serif" font-size="14.00">rand</text>
</a>
</g>
</g>
<!-- wrp.TestCollisions&#45;&gt;rand -->
<g id="edge11" class="edge">
<title>wrp.TestCollisions&#45;&gt;rand</title>
<path fill="none" stroke="black" d="M1420,-100.8C1619.58,-93.35 2080.97,-72.66 2233.34,-36 2236.14,-35.33 2238.99,-34.5 2241.83,-33.58"/>
<polygon fill="black" stroke="black" points="2243.1,-36.84 2251.32,-30.15 2240.72,-30.26 2243.1,-36.84"/>
<text text-anchor="middle" x="2129.34" y="-57.8" font-family="Times,serif" font-size="14.00">2</text>
</g>
<!-- dra.func_800FF460 -->
<g id="node13" class="node">
<title>dra.func_800FF460</title>
<g id="a_node13"><a xlink:href="dra.func_800FF460.svg" xlink:title="dra.func_800FF460">
<ellipse fill="green" stroke="black" cx="2427.34" cy="-18" rx="101.28" ry="18"/>
<text text-anchor="middle" x="2427.34" y="-14.3" font-family="Times,serif" font-size="14.00">dra.func_800FF460</text>
</a>
</g>
</g>
<!-- wrp.TestCollisions&#45;&gt;dra.func_800FF460 -->
<g id="edge12" class="edge">
<title>wrp.TestCollisions&#45;&gt;dra.func_800FF460</title>
<path fill="none" stroke="black" d="M1422.58,-103.84C1574.91,-102.68 1880.73,-96.72 2138.34,-69 2212.64,-61 2296.73,-45.74 2354.97,-34.18"/>
<polygon fill="black" stroke="black" points="2355.69,-37.6 2364.81,-32.21 2354.32,-30.74 2355.69,-37.6"/>
<text text-anchor="middle" x="2247.34" y="-57.8" font-family="Times,serif" font-size="14.00">1</text>
</g>
<!-- dra.func_800FF494 -->
<g id="node14" class="node">
<title>dra.func_800FF494</title>
<g id="a_node14"><a xlink:href="dra.func_800FF494.svg" xlink:title="dra.func_800FF494">
<ellipse fill="green" stroke="black" cx="2648.34" cy="-18" rx="101.28" ry="18"/>
<text text-anchor="middle" x="2648.34" y="-14.3" font-family="Times,serif" font-size="14.00">dra.func_800FF494</text>
</a>
</g>
</g>
<!-- wrp.TestCollisions&#45;&gt;dra.func_800FF494 -->
<g id="edge13" class="edge">
<title>wrp.TestCollisions&#45;&gt;dra.func_800FF494</title>
<path fill="none" stroke="black" d="M1422.21,-102.9C1591.03,-100.39 1952.29,-92.54 2256.34,-69 2363.43,-60.71 2486.14,-43.86 2565.32,-32.02"/>
<polygon fill="black" stroke="black" points="2565.87,-35.48 2575.24,-30.53 2564.83,-28.56 2565.87,-35.48"/>
<text text-anchor="middle" x="2402.34" y="-57.8" font-family="Times,serif" font-size="14.00">1</text>
</g>
</g>
</svg>
