<?xml version="1.0" encoding="UTF-8" standalone="no"?>
<!DOCTYPE svg PUBLIC "-//W3C//DTD SVG 1.1//EN"
 "http://www.w3.org/Graphics/SVG/1.1/DTD/svg11.dtd">
<!-- Generated by graphviz version 2.43.0 (0)
 -->
<!-- Title: wrp.func_8018A380 Pages: 1 -->
<svg width="454pt" height="131pt"
 viewBox="0.00 0.00 453.83 131.00" xmlns="http://www.w3.org/2000/svg" xmlns:xlink="http://www.w3.org/1999/xlink">
<g id="graph0" class="graph" transform="scale(1 1) rotate(0) translate(4 127)">
<title>wrp.func_8018A380</title>
<polygon fill="white" stroke="transparent" points="-4,4 -4,-127 449.83,-127 449.83,4 -4,4"/>
<!-- wrp.func_8018A380 -->
<g id="node1" class="node">
<title>wrp.func_8018A380</title>
<ellipse fill="green" stroke="black" cx="219.34" cy="-18" rx="103.18" ry="18"/>
<text text-anchor="middle" x="219.34" y="-14.3" font-family="Times,serif" font-size="14.00">wrp.func_8018A380</text>
</g>
<!-- wrp.func_8018A424 -->
<g id="node2" class="node">
<title>wrp.func_8018A424</title>
<g id="a_node2"><a xlink:href="wrp.func_8018A424.svg" xlink:title="wrp.func_8018A424">
<ellipse fill="green" stroke="black" cx="103.34" cy="-105" rx="103.18" ry="18"/>
<text text-anchor="middle" x="103.34" y="-101.3" font-family="Times,serif" font-size="14.00">wrp.func_8018A424</text>
</a>
</g>
</g>
<!-- wrp.func_8018A424&#45;&gt;wrp.func_8018A380 -->
<g id="edge1" class="edge">
<title>wrp.func_8018A424&#45;&gt;wrp.func_8018A380</title>
<path fill="none" stroke="black" d="M125.98,-87.41C143.67,-74.45 168.46,-56.28 188.05,-41.93"/>
<polygon fill="black" stroke="black" points="190.36,-44.57 196.36,-35.84 186.23,-38.93 190.36,-44.57"/>
<text text-anchor="middle" x="173.34" y="-57.8" font-family="Times,serif" font-size="14.00">1</text>
</g>
<!-- wrp.InitRoomEntities -->
<g id="node3" class="node">
<title>wrp.InitRoomEntities</title>
<g id="a_node3"><a xlink:href="wrp.InitRoomEntities.svg" xlink:title="wrp.InitRoomEntities">
<ellipse fill="green" stroke="black" cx="335.34" cy="-105" rx="110.48" ry="18"/>
<text text-anchor="middle" x="335.34" y="-101.3" font-family="Times,serif" font-size="14.00">wrp.InitRoomEntities</text>
</a>
</g>
</g>
<!-- wrp.InitRoomEntities&#45;&gt;wrp.func_8018A380 -->
<g id="edge2" class="edge">
<title>wrp.InitRoomEntities&#45;&gt;wrp.func_8018A380</title>
<path fill="none" stroke="black" d="M312.42,-87.21C294.71,-74.23 270,-56.12 250.49,-41.83"/>
<polygon fill="black" stroke="black" points="252.35,-38.85 242.21,-35.76 248.21,-44.49 252.35,-38.85"/>
<text text-anchor="middle" x="289.34" y="-57.8" font-family="Times,serif" font-size="14.00">1</text>
</g>
</g>
</svg>
