<?xml version="1.0" encoding="UTF-8" standalone="no"?>
<!DOCTYPE svg PUBLIC "-//W3C//DTD SVG 1.1//EN"
 "http://www.w3.org/Graphics/SVG/1.1/DTD/svg11.dtd">
<!-- Generated by graphviz version 2.43.0 (0)
 -->
<!-- Title: wrp.DestroyEntity Pages: 1 -->
<svg width="8816pt" height="404pt"
 viewBox="0.00 0.00 8816.18 404.00" xmlns="http://www.w3.org/2000/svg" xmlns:xlink="http://www.w3.org/1999/xlink">
<g id="graph0" class="graph" transform="scale(1 1) rotate(0) translate(4 400)">
<title>wrp.DestroyEntity</title>
<polygon fill="white" stroke="transparent" points="-4,4 -4,-400 8812.18,-400 8812.18,4 -4,4"/>
<!-- wrp.DestroyEntity -->
<g id="node1" class="node">
<title>wrp.DestroyEntity</title>
<ellipse fill="green" stroke="black" cx="4221.74" cy="-198" rx="96.68" ry="18"/>
<text text-anchor="middle" x="4221.74" y="-194.3" font-family="Times,serif" font-size="14.00">wrp.DestroyEntity</text>
</g>
<!-- dra.FreePrimitives -->
<g id="node2" class="node">
<title>dra.FreePrimitives</title>
<g id="a_node2"><a xlink:href="dra.FreePrimitives.svg" xlink:title="dra.FreePrimitives">
<ellipse fill="green" stroke="black" cx="4221.74" cy="-18" rx="98.58" ry="18"/>
<text text-anchor="middle" x="4221.74" y="-14.3" font-family="Times,serif" font-size="14.00">dra.FreePrimitives</text>
</a>
</g>
</g>
<!-- wrp.DestroyEntity&#45;&gt;dra.FreePrimitives -->
<g id="edge1" class="edge">
<title>wrp.DestroyEntity&#45;&gt;dra.FreePrimitives</title>
<path fill="none" stroke="black" d="M4221.74,-179.93C4221.74,-148.97 4221.74,-83.3 4221.74,-46.13"/>
<polygon fill="black" stroke="black" points="4225.24,-46.02 4221.74,-36.02 4218.24,-46.02 4225.24,-46.02"/>
<text text-anchor="middle" x="4216.74" y="-39.82" font-family="Times,serif" font-size="14.00">1</text>
</g>
<!-- wrp.EntityRelicOrb -->
<g id="node3" class="node">
<title>wrp.EntityRelicOrb</title>
<g id="a_node3"><a xlink:href="wrp.EntityRelicOrb.svg" xlink:title="wrp.EntityRelicOrb">
<ellipse fill="red" stroke="black" cx="100.74" cy="-378" rx="100.98" ry="18"/>
<text text-anchor="middle" x="100.74" y="-374.3" font-family="Times,serif" font-size="14.00">wrp.EntityRelicOrb</text>
</a>
</g>
</g>
<!-- wrp.EntityRelicOrb&#45;&gt;wrp.DestroyEntity -->
<g id="edge2" class="edge">
<title>wrp.EntityRelicOrb&#45;&gt;wrp.DestroyEntity</title>
<path fill="none" stroke="black" d="M170.71,-364.97C183.97,-363.04 197.76,-361.26 210.74,-360 1756.17,-210.05 3649.6,-199.16 4114.8,-198.86"/>
<polygon fill="black" stroke="black" points="4114.86,-202.36 4124.86,-198.85 4114.86,-195.36 4114.86,-202.36"/>
<text text-anchor="middle" x="165.71" y="-353.77" font-family="Times,serif" font-size="14.00">1</text>
</g>
<!-- wrp.func_801903C8 -->
<g id="node4" class="node">
<title>wrp.func_801903C8</title>
<g id="a_node4"><a xlink:href="wrp.func_801903C8.svg" xlink:title="wrp.func_801903C8">
<ellipse fill="green" stroke="black" cx="323.74" cy="-378" rx="103.98" ry="18"/>
<text text-anchor="middle" x="323.74" y="-374.3" font-family="Times,serif" font-size="14.00">wrp.func_801903C8</text>
</a>
</g>
</g>
<!-- wrp.func_801903C8&#45;&gt;wrp.DestroyEntity -->
<g id="edge3" class="edge">
<title>wrp.func_801903C8&#45;&gt;wrp.DestroyEntity</title>
<path fill="none" stroke="black" d="M395.94,-364.97C409.46,-363.04 423.51,-361.27 436.74,-360 1888.9,-220.29 3666.11,-201.81 4114.93,-199.37"/>
<polygon fill="black" stroke="black" points="4114.99,-202.87 4124.97,-199.32 4114.95,-195.87 4114.99,-202.87"/>
<text text-anchor="middle" x="390.94" y="-353.77" font-family="Times,serif" font-size="14.00">1</text>
</g>
<!-- wrp.func_80190614 -->
<g id="node5" class="node">
<title>wrp.func_80190614</title>
<g id="a_node5"><a xlink:href="wrp.func_80190614.svg" xlink:title="wrp.func_80190614">
<ellipse fill="green" stroke="black" cx="548.74" cy="-378" rx="102.88" ry="18"/>
<text text-anchor="middle" x="548.74" y="-374.3" font-family="Times,serif" font-size="14.00">wrp.func_80190614</text>
</a>
</g>
</g>
<!-- wrp.func_80190614&#45;&gt;wrp.DestroyEntity -->
<g id="edge4" class="edge">
<title>wrp.func_80190614&#45;&gt;wrp.DestroyEntity</title>
<path fill="none" stroke="black" d="M620,-365.03C633.5,-363.09 647.53,-361.3 660.74,-360 2020.07,-226.48 3682.37,-203.52 4114.87,-199.72"/>
<polygon fill="black" stroke="black" points="4115.19,-203.22 4125.16,-199.63 4115.13,-196.22 4115.19,-203.22"/>
<text text-anchor="middle" x="615" y="-353.83" font-family="Times,serif" font-size="14.00">1</text>
</g>
<!-- wrp.EntityEquipItemDrop -->
<g id="node6" class="node">
<title>wrp.EntityEquipItemDrop</title>
<g id="a_node6"><a xlink:href="wrp.EntityEquipItemDrop.svg" xlink:title="wrp.EntityEquipItemDrop">
<ellipse fill="green" stroke="black" cx="801.74" cy="-378" rx="131.88" ry="18"/>
<text text-anchor="middle" x="801.74" y="-374.3" font-family="Times,serif" font-size="14.00">wrp.EntityEquipItemDrop</text>
</a>
</g>
</g>
<!-- wrp.EntityEquipItemDrop&#45;&gt;wrp.DestroyEntity -->
<g id="edge5" class="edge">
<title>wrp.EntityEquipItemDrop&#45;&gt;wrp.DestroyEntity</title>
<path fill="none" stroke="black" d="M893.42,-364.99C909.82,-363.11 926.77,-361.35 942.74,-360 2188.84,-254.42 3707.65,-211.55 4116.32,-201.46"/>
<polygon fill="black" stroke="black" points="4116.44,-204.95 4126.35,-201.21 4116.26,-197.96 4116.44,-204.95"/>
<text text-anchor="middle" x="888.42" y="-353.79" font-family="Times,serif" font-size="14.00">2</text>
</g>
<!-- wrp.EntityEnemyBlood -->
<g id="node7" class="node">
<title>wrp.EntityEnemyBlood</title>
<g id="a_node7"><a xlink:href="wrp.EntityEnemyBlood.svg" xlink:title="wrp.EntityEnemyBlood">
<ellipse fill="green" stroke="black" cx="1070.74" cy="-378" rx="118.88" ry="18"/>
<text text-anchor="middle" x="1070.74" y="-374.3" font-family="Times,serif" font-size="14.00">wrp.EntityEnemyBlood</text>
</a>
</g>
</g>
<!-- wrp.EntityEnemyBlood&#45;&gt;wrp.DestroyEntity -->
<g id="edge6" class="edge">
<title>wrp.EntityEnemyBlood&#45;&gt;wrp.DestroyEntity</title>
<path fill="none" stroke="black" d="M1153.6,-365.03C1168.6,-363.13 1184.12,-361.36 1198.74,-360 2338.95,-254.09 3728.06,-211.84 4116.46,-201.6"/>
<polygon fill="black" stroke="black" points="4116.65,-205.1 4126.56,-201.34 4116.47,-198.1 4116.65,-205.1"/>
<text text-anchor="middle" x="1148.6" y="-353.83" font-family="Times,serif" font-size="14.00">1</text>
</g>
<!-- wrp.func_8018F838 -->
<g id="node8" class="node">
<title>wrp.func_8018F838</title>
<g id="a_node8"><a xlink:href="wrp.func_8018F838.svg" xlink:title="wrp.func_8018F838">
<ellipse fill="green" stroke="black" cx="1310.74" cy="-378" rx="103.18" ry="18"/>
<text text-anchor="middle" x="1310.74" y="-374.3" font-family="Times,serif" font-size="14.00">wrp.func_8018F838</text>
</a>
</g>
</g>
<!-- wrp.func_8018F838&#45;&gt;wrp.DestroyEntity -->
<g id="edge7" class="edge">
<title>wrp.func_8018F838&#45;&gt;wrp.DestroyEntity</title>
<path fill="none" stroke="black" d="M1383.26,-365.08C1396.69,-363.16 1410.62,-361.36 1423.74,-360 2470.5,-251.38 3745.74,-211.38 4116.2,-201.58"/>
<polygon fill="black" stroke="black" points="4116.47,-205.07 4126.37,-201.31 4116.28,-198.08 4116.47,-205.07"/>
<text text-anchor="middle" x="1378.26" y="-353.88" font-family="Times,serif" font-size="14.00">1</text>
</g>
<!-- wrp.EntityUnkId0E -->
<g id="node9" class="node">
<title>wrp.EntityUnkId0E</title>
<g id="a_node9"><a xlink:href="wrp.EntityUnkId0E.svg" xlink:title="wrp.EntityUnkId0E">
<ellipse fill="red" stroke="black" cx="1533.74" cy="-378" rx="101.28" ry="18"/>
<text text-anchor="middle" x="1533.74" y="-374.3" font-family="Times,serif" font-size="14.00">wrp.EntityUnkId0E</text>
</a>
</g>
</g>
<!-- wrp.EntityUnkId0E&#45;&gt;wrp.DestroyEntity -->
<g id="edge8" class="edge">
<title>wrp.EntityUnkId0E&#45;&gt;wrp.DestroyEntity</title>
<path fill="none" stroke="black" d="M1604.97,-365.13C1618.17,-363.2 1631.85,-361.39 1644.74,-360 2601.63,-257.04 3766.03,-213.54 4116.86,-202.18"/>
<polygon fill="black" stroke="black" points="4117.12,-205.67 4127,-201.85 4116.89,-198.68 4117.12,-205.67"/>
<text text-anchor="middle" x="1599.97" y="-353.93" font-family="Times,serif" font-size="14.00">1</text>
</g>
<!-- wrp.func_8018F928 -->
<g id="node10" class="node">
<title>wrp.func_8018F928</title>
<g id="a_node10"><a xlink:href="wrp.func_8018F928.svg" xlink:title="wrp.func_8018F928">
<ellipse fill="green" stroke="black" cx="1756.74" cy="-378" rx="103.18" ry="18"/>
<text text-anchor="middle" x="1756.74" y="-374.3" font-family="Times,serif" font-size="14.00">wrp.func_8018F928</text>
</a>
</g>
</g>
<!-- wrp.func_8018F928&#45;&gt;wrp.DestroyEntity -->
<g id="edge9" class="edge">
<title>wrp.func_8018F928&#45;&gt;wrp.DestroyEntity</title>
<path fill="none" stroke="black" d="M1829.57,-365.16C1842.91,-363.24 1856.72,-361.42 1869.74,-360 2736.29,-265.32 3788.92,-216.74 4118.22,-203.09"/>
<polygon fill="black" stroke="black" points="4118.38,-206.59 4128.22,-202.68 4118.09,-199.59 4118.38,-206.59"/>
<text text-anchor="middle" x="1824.57" y="-353.96" font-family="Times,serif" font-size="14.00">1</text>
</g>
<!-- wrp.EntitySoulStealOrb -->
<g id="node11" class="node">
<title>wrp.EntitySoulStealOrb</title>
<g id="a_node11"><a xlink:href="wrp.EntitySoulStealOrb.svg" xlink:title="wrp.EntitySoulStealOrb">
<ellipse fill="green" stroke="black" cx="2000.74" cy="-378" rx="122.38" ry="18"/>
<text text-anchor="middle" x="2000.74" y="-374.3" font-family="Times,serif" font-size="14.00">wrp.EntitySoulStealOrb</text>
</a>
</g>
</g>
<!-- wrp.EntitySoulStealOrb&#45;&gt;wrp.DestroyEntity -->
<g id="edge10" class="edge">
<title>wrp.EntitySoulStealOrb&#45;&gt;wrp.DestroyEntity</title>
<path fill="none" stroke="black" d="M2086.99,-365.16C2101.9,-363.3 2117.26,-361.5 2131.74,-360 2895.03,-281.13 3818.81,-222.96 4120.89,-204.9"/>
<polygon fill="black" stroke="black" points="4121.17,-208.39 4130.94,-204.3 4120.75,-201.4 4121.17,-208.39"/>
<text text-anchor="middle" x="2081.99" y="-353.96" font-family="Times,serif" font-size="14.00">1</text>
</g>
<!-- wrp.EntityExplosion -->
<g id="node12" class="node">
<title>wrp.EntityExplosion</title>
<g id="a_node12"><a xlink:href="wrp.EntityExplosion.svg" xlink:title="wrp.EntityExplosion">
<ellipse fill="green" stroke="black" cx="2246.74" cy="-378" rx="105.88" ry="18"/>
<text text-anchor="middle" x="2246.74" y="-374.3" font-family="Times,serif" font-size="14.00">wrp.EntityExplosion</text>
</a>
</g>
</g>
<!-- wrp.EntityExplosion&#45;&gt;wrp.DestroyEntity -->
<g id="edge11" class="edge">
<title>wrp.EntityExplosion&#45;&gt;wrp.DestroyEntity</title>
<path fill="none" stroke="black" d="M2321.81,-365.23C2335.1,-363.34 2348.81,-361.51 2361.74,-360 3032.31,-281.49 3843.07,-224.15 4121.92,-205.51"/>
<polygon fill="black" stroke="black" points="4122.27,-208.99 4132.02,-204.83 4121.81,-202.01 4122.27,-208.99"/>
<text text-anchor="middle" x="2316.81" y="-354.03" font-family="Times,serif" font-size="14.00">1</text>
</g>
<!-- wrp.EntityStageNamePopup -->
<g id="node13" class="node">
<title>wrp.EntityStageNamePopup</title>
<g id="a_node13"><a xlink:href="wrp.EntityStageNamePopup.svg" xlink:title="wrp.EntityStageNamePopup">
<ellipse fill="red" stroke="black" cx="2514.74" cy="-378" rx="143.77" ry="18"/>
<text text-anchor="middle" x="2514.74" y="-374.3" font-family="Times,serif" font-size="14.00">wrp.EntityStageNamePopup</text>
</a>
</g>
</g>
<!-- wrp.EntityStageNamePopup&#45;&gt;wrp.DestroyEntity -->
<g id="edge12" class="edge">
<title>wrp.EntityStageNamePopup&#45;&gt;wrp.DestroyEntity</title>
<path fill="none" stroke="black" d="M2618.02,-365.42C2634.64,-363.59 2651.66,-361.73 2667.74,-360 3221.74,-300.52 3887.27,-232.83 4128.62,-208.4"/>
<polygon fill="black" stroke="black" points="4129.15,-211.87 4138.75,-207.38 4128.45,-204.9 4129.15,-211.87"/>
<text text-anchor="middle" x="2613.02" y="-354.22" font-family="Times,serif" font-size="14.00">1</text>
</g>
<!-- wrp.func_8018F510 -->
<g id="node14" class="node">
<title>wrp.func_8018F510</title>
<g id="a_node14"><a xlink:href="wrp.func_8018F510.svg" xlink:title="wrp.func_8018F510">
<ellipse fill="green" stroke="black" cx="2779.74" cy="-378" rx="103.18" ry="18"/>
<text text-anchor="middle" x="2779.74" y="-374.3" font-family="Times,serif" font-size="14.00">wrp.func_8018F510</text>
</a>
</g>
</g>
<!-- wrp.func_8018F510&#45;&gt;wrp.DestroyEntity -->
<g id="edge13" class="edge">
<title>wrp.func_8018F510&#45;&gt;wrp.DestroyEntity</title>
<path fill="none" stroke="black" d="M2853.8,-365.44C2866.45,-363.55 2879.46,-361.67 2891.74,-360 3356.79,-296.57 3915.09,-233.1 4130.66,-209.07"/>
<polygon fill="black" stroke="black" points="4131.12,-212.54 4140.67,-207.95 4130.34,-205.58 4131.12,-212.54"/>
<text text-anchor="middle" x="2848.8" y="-354.24" font-family="Times,serif" font-size="14.00">1</text>
</g>
<!-- wrp.func_8018FA1C -->
<g id="node15" class="node">
<title>wrp.func_8018FA1C</title>
<g id="a_node15"><a xlink:href="wrp.func_8018FA1C.svg" xlink:title="wrp.func_8018FA1C">
<ellipse fill="green" stroke="black" cx="3004.74" cy="-378" rx="103.98" ry="18"/>
<text text-anchor="middle" x="3004.74" y="-374.3" font-family="Times,serif" font-size="14.00">wrp.func_8018FA1C</text>
</a>
</g>
</g>
<!-- wrp.func_8018FA1C&#45;&gt;wrp.DestroyEntity -->
<g id="edge14" class="edge">
<title>wrp.func_8018FA1C&#45;&gt;wrp.DestroyEntity</title>
<path fill="none" stroke="black" d="M3080.41,-365.57C3092.88,-363.7 3105.67,-361.79 3117.74,-360 3498.49,-303.6 3953.35,-237.75 4137.85,-211.1"/>
<polygon fill="black" stroke="black" points="4138.35,-214.57 4147.75,-209.67 4137.35,-207.64 4138.35,-214.57"/>
<text text-anchor="middle" x="3075.41" y="-354.37" font-family="Times,serif" font-size="14.00">1</text>
</g>
<!-- wrp.func_80190494 -->
<g id="node16" class="node">
<title>wrp.func_80190494</title>
<g id="a_node16"><a xlink:href="wrp.func_80190494.svg" xlink:title="wrp.func_80190494">
<ellipse fill="green" stroke="black" cx="3229.74" cy="-378" rx="102.88" ry="18"/>
<text text-anchor="middle" x="3229.74" y="-374.3" font-family="Times,serif" font-size="14.00">wrp.func_80190494</text>
</a>
</g>
</g>
<!-- wrp.func_80190494&#45;&gt;wrp.DestroyEntity -->
<g id="edge15" class="edge">
<title>wrp.func_80190494&#45;&gt;wrp.DestroyEntity</title>
<path fill="none" stroke="black" d="M3298.71,-364.62C3477.76,-332.5 3956.5,-246.59 4144.46,-212.87"/>
<polygon fill="black" stroke="black" points="4145.31,-216.27 4154.54,-211.06 4144.08,-209.38 4145.31,-216.27"/>
<text text-anchor="middle" x="3293.71" y="-353.42" font-family="Times,serif" font-size="14.00">1</text>
</g>
<!-- wrp.EntityPrizeDrop -->
<g id="node17" class="node">
<title>wrp.EntityPrizeDrop</title>
<g id="a_node17"><a xlink:href="wrp.EntityPrizeDrop.svg" xlink:title="wrp.EntityPrizeDrop">
<ellipse fill="green" stroke="black" cx="3457.74" cy="-378" rx="107.48" ry="18"/>
<text text-anchor="middle" x="3457.74" y="-374.3" font-family="Times,serif" font-size="14.00">wrp.EntityPrizeDrop</text>
</a>
</g>
</g>
<!-- wrp.EntityPrizeDrop&#45;&gt;wrp.DestroyEntity -->
<g id="edge16" class="edge">
<title>wrp.EntityPrizeDrop&#45;&gt;wrp.DestroyEntity</title>
<path fill="none" stroke="black" d="M3517.69,-363.03C3657.9,-330.37 4006.5,-249.15 4154.05,-214.77"/>
<polygon fill="black" stroke="black" points="4154.96,-218.15 4163.9,-212.48 4153.37,-211.34 4154.96,-218.15"/>
<text text-anchor="middle" x="3512.69" y="-351.83" font-family="Times,serif" font-size="14.00">2</text>
</g>
<!-- wrp.EntityHeartDrop -->
<g id="node18" class="node">
<title>wrp.EntityHeartDrop</title>
<g id="a_node18"><a xlink:href="wrp.EntityHeartDrop.svg" xlink:title="wrp.EntityHeartDrop">
<ellipse fill="green" stroke="black" cx="3693.74" cy="-378" rx="110.48" ry="18"/>
<text text-anchor="middle" x="3693.74" y="-374.3" font-family="Times,serif" font-size="14.00">wrp.EntityHeartDrop</text>
</a>
</g>
</g>
<!-- wrp.EntityHeartDrop&#45;&gt;wrp.DestroyEntity -->
<g id="edge17" class="edge">
<title>wrp.EntityHeartDrop&#45;&gt;wrp.DestroyEntity</title>
<path fill="none" stroke="black" d="M3739.67,-361.52C3836.9,-328.74 4063.08,-252.49 4167.34,-217.34"/>
<polygon fill="black" stroke="black" points="4168.68,-220.58 4177.04,-214.07 4166.44,-213.95 4168.68,-220.58"/>
<text text-anchor="middle" x="3734.67" y="-350.32" font-family="Times,serif" font-size="14.00">1</text>
</g>
<!-- wrp.EntityIntenseExplosion -->
<g id="node19" class="node">
<title>wrp.EntityIntenseExplosion</title>
<g id="a_node19"><a xlink:href="wrp.EntityIntenseExplosion.svg" xlink:title="wrp.EntityIntenseExplosion">
<ellipse fill="green" stroke="black" cx="3962.74" cy="-378" rx="140.28" ry="18"/>
<text text-anchor="middle" x="3962.74" y="-374.3" font-family="Times,serif" font-size="14.00">wrp.EntityIntenseExplosion</text>
</a>
</g>
</g>
<!-- wrp.EntityIntenseExplosion&#45;&gt;wrp.DestroyEntity -->
<g id="edge18" class="edge">
<title>wrp.EntityIntenseExplosion&#45;&gt;wrp.DestroyEntity</title>
<path fill="none" stroke="black" d="M3987.11,-360.25C4033.99,-328.04 4136.74,-257.42 4189.33,-221.27"/>
<polygon fill="black" stroke="black" points="4191.37,-224.12 4197.63,-215.57 4187.4,-218.35 4191.37,-224.12"/>
<text text-anchor="middle" x="3982.11" y="-349.05" font-family="Times,serif" font-size="14.00">1</text>
</g>
<!-- wrp.EntityRedDoor -->
<g id="node20" class="node">
<title>wrp.EntityRedDoor</title>
<g id="a_node20"><a xlink:href="wrp.EntityRedDoor.svg" xlink:title="wrp.EntityRedDoor">
<ellipse fill="red" stroke="black" cx="4221.74" cy="-378" rx="100.98" ry="18"/>
<text text-anchor="middle" x="4221.74" y="-374.3" font-family="Times,serif" font-size="14.00">wrp.EntityRedDoor</text>
</a>
</g>
</g>
<!-- wrp.EntityRedDoor&#45;&gt;wrp.DestroyEntity -->
<g id="edge19" class="edge">
<title>wrp.EntityRedDoor&#45;&gt;wrp.DestroyEntity</title>
<path fill="none" stroke="black" d="M4221.74,-359.93C4221.74,-328.97 4221.74,-263.3 4221.74,-226.13"/>
<polygon fill="black" stroke="black" points="4225.24,-226.02 4221.74,-216.02 4218.24,-226.02 4225.24,-226.02"/>
<text text-anchor="middle" x="4216.74" y="-348.73" font-family="Times,serif" font-size="14.00">1</text>
</g>
<!-- wrp.CollectHeartVessel -->
<g id="node21" class="node">
<title>wrp.CollectHeartVessel</title>
<g id="a_node21"><a xlink:href="wrp.CollectHeartVessel.svg" xlink:title="wrp.CollectHeartVessel">
<ellipse fill="green" stroke="black" cx="4460.74" cy="-378" rx="120.48" ry="18"/>
<text text-anchor="middle" x="4460.74" y="-374.3" font-family="Times,serif" font-size="14.00">wrp.CollectHeartVessel</text>
</a>
</g>
</g>
<!-- wrp.CollectHeartVessel&#45;&gt;wrp.DestroyEntity -->
<g id="edge20" class="edge">
<title>wrp.CollectHeartVessel&#45;&gt;wrp.DestroyEntity</title>
<path fill="none" stroke="black" d="M4438.26,-360.25C4395.18,-328.17 4300.96,-258 4252.25,-221.72"/>
<polygon fill="black" stroke="black" points="4254.1,-218.74 4243.99,-215.57 4249.92,-224.35 4254.1,-218.74"/>
<text text-anchor="middle" x="4433.26" y="-349.05" font-family="Times,serif" font-size="14.00">1</text>
</g>
<!-- wrp.CollectGold -->
<g id="node22" class="node">
<title>wrp.CollectGold</title>
<g id="a_node22"><a xlink:href="wrp.CollectGold.svg" xlink:title="wrp.CollectGold">
<ellipse fill="green" stroke="black" cx="4683.74" cy="-378" rx="85.29" ry="18"/>
<text text-anchor="middle" x="4683.74" y="-374.3" font-family="Times,serif" font-size="14.00">wrp.CollectGold</text>
</a>
</g>
</g>
<!-- wrp.CollectGold&#45;&gt;wrp.DestroyEntity -->
<g id="edge21" class="edge">
<title>wrp.CollectGold&#45;&gt;wrp.DestroyEntity</title>
<path fill="none" stroke="black" d="M4644.75,-361.98C4560.92,-329.68 4363.65,-253.67 4271.19,-218.05"/>
<polygon fill="black" stroke="black" points="4272.37,-214.75 4261.78,-214.42 4269.85,-221.29 4272.37,-214.75"/>
<text text-anchor="middle" x="4639.75" y="-350.78" font-family="Times,serif" font-size="14.00">1</text>
</g>
<!-- wrp.DestroyCurrentEntity -->
<g id="node23" class="node">
<title>wrp.DestroyCurrentEntity</title>
<g id="a_node23"><a xlink:href="wrp.DestroyCurrentEntity.svg" xlink:title="wrp.DestroyCurrentEntity">
<ellipse fill="green" stroke="black" cx="4920.74" cy="-378" rx="133.78" ry="18"/>
<text text-anchor="middle" x="4920.74" y="-374.3" font-family="Times,serif" font-size="14.00">wrp.DestroyCurrentEntity</text>
</a>
</g>
</g>
<!-- wrp.DestroyCurrentEntity&#45;&gt;wrp.DestroyEntity -->
<g id="edge22" class="edge">
<title>wrp.DestroyCurrentEntity&#45;&gt;wrp.DestroyEntity</title>
<path fill="none" stroke="black" d="M4861.14,-361.82C4730.7,-328.61 4420.8,-249.69 4286.1,-215.39"/>
<polygon fill="black" stroke="black" points="4286.88,-211.98 4276.33,-212.9 4285.15,-218.76 4286.88,-211.98"/>
<text text-anchor="middle" x="4856.14" y="-350.62" font-family="Times,serif" font-size="14.00">1</text>
</g>
<!-- wrp.func_8018C27C -->
<g id="node24" class="node">
<title>wrp.func_8018C27C</title>
<g id="a_node24"><a xlink:href="wrp.func_8018C27C.svg" xlink:title="wrp.func_8018C27C">
<ellipse fill="green" stroke="black" cx="5177.74" cy="-378" rx="104.78" ry="18"/>
<text text-anchor="middle" x="5177.74" y="-374.3" font-family="Times,serif" font-size="14.00">wrp.func_8018C27C</text>
</a>
</g>
</g>
<!-- wrp.func_8018C27C&#45;&gt;wrp.DestroyEntity -->
<g id="edge23" class="edge">
<title>wrp.func_8018C27C&#45;&gt;wrp.DestroyEntity</title>
<path fill="none" stroke="black" d="M5109.37,-364.27C4935.83,-331.96 4479.22,-246.94 4297.72,-213.15"/>
<polygon fill="black" stroke="black" points="4298.19,-209.67 4287.72,-211.28 4296.91,-216.56 4298.19,-209.67"/>
<text text-anchor="middle" x="5104.37" y="-353.07" font-family="Times,serif" font-size="14.00">1</text>
</g>
<!-- wrp.CollectHeart -->
<g id="node25" class="node">
<title>wrp.CollectHeart</title>
<g id="a_node25"><a xlink:href="wrp.CollectHeart.svg" xlink:title="wrp.CollectHeart">
<ellipse fill="green" stroke="black" cx="5391.74" cy="-378" rx="90.98" ry="18"/>
<text text-anchor="middle" x="5391.74" y="-374.3" font-family="Times,serif" font-size="14.00">wrp.CollectHeart</text>
</a>
</g>
</g>
<!-- wrp.CollectHeart&#45;&gt;wrp.DestroyEntity -->
<g id="edge24" class="edge">
<title>wrp.CollectHeart&#45;&gt;wrp.DestroyEntity</title>
<path fill="none" stroke="black" d="M5325.61,-365.57C5314.31,-363.68 5302.7,-361.76 5291.74,-360 4924.92,-301.23 4486.3,-237.18 4305.72,-211.08"/>
<polygon fill="black" stroke="black" points="4306.16,-207.61 4295.76,-209.64 4305.16,-214.54 4306.16,-207.61"/>
<text text-anchor="middle" x="5320.61" y="-354.37" font-family="Times,serif" font-size="14.00">1</text>
</g>
<!-- wrp.CollectLifeVessel -->
<g id="node26" class="node">
<title>wrp.CollectLifeVessel</title>
<g id="a_node26"><a xlink:href="wrp.CollectLifeVessel.svg" xlink:title="wrp.CollectLifeVessel">
<ellipse fill="green" stroke="black" cx="5610.74" cy="-378" rx="110.48" ry="18"/>
<text text-anchor="middle" x="5610.74" y="-374.3" font-family="Times,serif" font-size="14.00">wrp.CollectLifeVessel</text>
</a>
</g>
</g>
<!-- wrp.CollectLifeVessel&#45;&gt;wrp.DestroyEntity -->
<g id="edge25" class="edge">
<title>wrp.CollectLifeVessel&#45;&gt;wrp.DestroyEntity</title>
<path fill="none" stroke="black" d="M5531.07,-365.44C5517.94,-363.59 5504.46,-361.71 5491.74,-360 5048.79,-300.29 4518.04,-235.04 4310.78,-209.8"/>
<polygon fill="black" stroke="black" points="4310.92,-206.29 4300.57,-208.55 4310.07,-213.24 4310.92,-206.29"/>
<text text-anchor="middle" x="5526.07" y="-354.24" font-family="Times,serif" font-size="14.00">1</text>
</g>
<!-- wrp.TestCollisions -->
<g id="node27" class="node">
<title>wrp.TestCollisions</title>
<g id="a_node27"><a xlink:href="wrp.TestCollisions.svg" xlink:title="wrp.TestCollisions">
<ellipse fill="red" stroke="black" cx="5835.74" cy="-378" rx="96.38" ry="18"/>
<text text-anchor="middle" x="5835.74" y="-374.3" font-family="Times,serif" font-size="14.00">wrp.TestCollisions</text>
</a>
</g>
</g>
<!-- wrp.TestCollisions&#45;&gt;wrp.DestroyEntity -->
<g id="edge26" class="edge">
<title>wrp.TestCollisions&#45;&gt;wrp.DestroyEntity</title>
<path fill="none" stroke="black" d="M5766.83,-365.41C5754.49,-363.49 5741.75,-361.6 5729.74,-360 5197.49,-288.96 4556.2,-228.93 4317.41,-207.45"/>
<polygon fill="black" stroke="black" points="4317.65,-203.96 4307.38,-206.55 4317.02,-210.93 4317.65,-203.96"/>
<text text-anchor="middle" x="5761.83" y="-354.21" font-family="Times,serif" font-size="14.00">1</text>
</g>
<!-- wrp.ReplaceBreakableWithItemDrop -->
<g id="node28" class="node">
<title>wrp.ReplaceBreakableWithItemDrop</title>
<g id="a_node28"><a xlink:href="wrp.ReplaceBreakableWithItemDrop.svg" xlink:title="wrp.ReplaceBreakableWithItemDrop">
<ellipse fill="green" stroke="black" cx="6131.74" cy="-378" rx="181.17" ry="18"/>
<text text-anchor="middle" x="6131.74" y="-374.3" font-family="Times,serif" font-size="14.00">wrp.ReplaceBreakableWithItemDrop</text>
</a>
</g>
</g>
<!-- wrp.ReplaceBreakableWithItemDrop&#45;&gt;wrp.DestroyEntity -->
<g id="edge27" class="edge">
<title>wrp.ReplaceBreakableWithItemDrop&#45;&gt;wrp.DestroyEntity</title>
<path fill="none" stroke="black" d="M6004.57,-365.15C5645.78,-331.71 4631.24,-237.16 4316.24,-207.81"/>
<polygon fill="black" stroke="black" points="4316.51,-204.32 4306.23,-206.87 4315.86,-211.29 4316.51,-204.32"/>
<text text-anchor="middle" x="5999.57" y="-353.95" font-family="Times,serif" font-size="14.00">1</text>
</g>
<!-- wrp.CreateEntityFromEntity -->
<g id="node29" class="node">
<title>wrp.CreateEntityFromEntity</title>
<g id="a_node29"><a xlink:href="wrp.CreateEntityFromEntity.svg" xlink:title="wrp.CreateEntityFromEntity">
<ellipse fill="green" stroke="black" cx="6476.74" cy="-378" rx="145.67" ry="18"/>
<text text-anchor="middle" x="6476.74" y="-374.3" font-family="Times,serif" font-size="14.00">wrp.CreateEntityFromEntity</text>
</a>
</g>
</g>
<!-- wrp.CreateEntityFromEntity&#45;&gt;wrp.DestroyEntity -->
<g id="edge28" class="edge">
<title>wrp.CreateEntityFromEntity&#45;&gt;wrp.DestroyEntity</title>
<path fill="none" stroke="black" d="M6373.82,-365.23C6356.45,-363.39 6338.59,-361.57 6321.74,-360 5552.72,-288.37 4623.07,-225.34 4321.41,-205.48"/>
<polygon fill="black" stroke="black" points="4321.59,-201.98 4311.38,-204.82 4321.13,-208.97 4321.59,-201.98"/>
<text text-anchor="middle" x="6368.82" y="-354.03" font-family="Times,serif" font-size="14.00">1</text>
</g>
<!-- wrp.CreateEntityFromLayout -->
<g id="node30" class="node">
<title>wrp.CreateEntityFromLayout</title>
<g id="a_node30"><a xlink:href="wrp.CreateEntityFromLayout.svg" xlink:title="wrp.CreateEntityFromLayout">
<ellipse fill="green" stroke="black" cx="6788.74" cy="-378" rx="148.37" ry="18"/>
<text text-anchor="middle" x="6788.74" y="-374.3" font-family="Times,serif" font-size="14.00">wrp.CreateEntityFromLayout</text>
</a>
</g>
</g>
<!-- wrp.CreateEntityFromLayout&#45;&gt;wrp.DestroyEntity -->
<g id="edge29" class="edge">
<title>wrp.CreateEntityFromLayout&#45;&gt;wrp.DestroyEntity</title>
<path fill="none" stroke="black" d="M6684.93,-365.15C6667.19,-363.3 6648.95,-361.51 6631.74,-360 5738.42,-281.83 4655.87,-221.91 4323.59,-204.3"/>
<polygon fill="black" stroke="black" points="4323.67,-200.8 4313.5,-203.77 4323.3,-207.79 4323.67,-200.8"/>
<text text-anchor="middle" x="6679.93" y="-353.95" font-family="Times,serif" font-size="14.00">1</text>
</g>
<!-- wrp.CreateEntityFromCurrentEntity -->
<g id="node31" class="node">
<title>wrp.CreateEntityFromCurrentEntity</title>
<g id="a_node31"><a xlink:href="wrp.CreateEntityFromCurrentEntity.svg" xlink:title="wrp.CreateEntityFromCurrentEntity">
<ellipse fill="green" stroke="black" cx="7136.74" cy="-378" rx="181.97" ry="18"/>
<text text-anchor="middle" x="7136.74" y="-374.3" font-family="Times,serif" font-size="14.00">wrp.CreateEntityFromCurrentEntity</text>
</a>
</g>
</g>
<!-- wrp.CreateEntityFromCurrentEntity&#45;&gt;wrp.DestroyEntity -->
<g id="edge30" class="edge">
<title>wrp.CreateEntityFromCurrentEntity&#45;&gt;wrp.DestroyEntity</title>
<path fill="none" stroke="black" d="M7009.39,-365.13C6988.14,-363.31 6966.33,-361.52 6945.74,-360 5923.85,-284.34 4684.19,-221.6 4324.25,-203.96"/>
<polygon fill="black" stroke="black" points="4324.27,-200.45 4314.11,-203.46 4323.93,-207.45 4324.27,-200.45"/>
<text text-anchor="middle" x="7004.39" y="-353.93" font-family="Times,serif" font-size="14.00">1</text>
</g>
<!-- wrp.EntityNumericDamage -->
<g id="node32" class="node">
<title>wrp.EntityNumericDamage</title>
<g id="a_node32"><a xlink:href="wrp.EntityNumericDamage.svg" xlink:title="wrp.EntityNumericDamage">
<ellipse fill="red" stroke="black" cx="7474.74" cy="-378" rx="138.38" ry="18"/>
<text text-anchor="middle" x="7474.74" y="-374.3" font-family="Times,serif" font-size="14.00">wrp.EntityNumericDamage</text>
</a>
</g>
</g>
<!-- wrp.EntityNumericDamage&#45;&gt;wrp.DestroyEntity -->
<g id="edge31" class="edge">
<title>wrp.EntityNumericDamage&#45;&gt;wrp.DestroyEntity</title>
<path fill="none" stroke="black" d="M7378.75,-365.01C7361.78,-363.15 7344.25,-361.38 7327.74,-360 6152.37,-261.67 4721.42,-213.93 4326.81,-202.03"/>
<polygon fill="black" stroke="black" points="4326.66,-198.52 4316.56,-201.72 4326.45,-205.52 4326.66,-198.52"/>
<text text-anchor="middle" x="7373.75" y="-353.81" font-family="Times,serif" font-size="14.00">1</text>
</g>
<!-- wrp.DestroyEntityFromIndex -->
<g id="node33" class="node">
<title>wrp.DestroyEntityFromIndex</title>
<g id="a_node33"><a xlink:href="wrp.DestroyEntityFromIndex.svg" xlink:title="wrp.DestroyEntityFromIndex">
<ellipse fill="green" stroke="black" cx="7778.74" cy="-378" rx="147.57" ry="18"/>
<text text-anchor="middle" x="7778.74" y="-374.3" font-family="Times,serif" font-size="14.00">wrp.DestroyEntityFromIndex</text>
</a>
</g>
</g>
<!-- wrp.DestroyEntityFromIndex&#45;&gt;wrp.DestroyEntity -->
<g id="edge32" class="edge">
<title>wrp.DestroyEntityFromIndex&#45;&gt;wrp.DestroyEntity</title>
<path fill="none" stroke="black" d="M7676.21,-364.99C7658.08,-363.13 7639.37,-361.37 7621.74,-360 6325.02,-259.19 4744.84,-212.72 4327.1,-201.66"/>
<polygon fill="black" stroke="black" points="4326.95,-198.16 4316.86,-201.39 4326.76,-205.16 4326.95,-198.16"/>
<text text-anchor="middle" x="7671.21" y="-353.79" font-family="Times,serif" font-size="14.00">1</text>
</g>
<!-- wrp.AllocEntity -->
<g id="node34" class="node">
<title>wrp.AllocEntity</title>
<g id="a_node34"><a xlink:href="wrp.AllocEntity.svg" xlink:title="wrp.AllocEntity">
<ellipse fill="green" stroke="black" cx="8027.74" cy="-378" rx="83.39" ry="18"/>
<text text-anchor="middle" x="8027.74" y="-374.3" font-family="Times,serif" font-size="14.00">wrp.AllocEntity</text>
</a>
</g>
</g>
<!-- wrp.AllocEntity&#45;&gt;wrp.DestroyEntity -->
<g id="edge33" class="edge">
<title>wrp.AllocEntity&#45;&gt;wrp.DestroyEntity</title>
<path fill="none" stroke="black" d="M7969.52,-364.98C7958.35,-363.03 7946.72,-361.25 7935.74,-360 7208.51,-277.45 4854.63,-214.8 4327.24,-201.58"/>
<polygon fill="black" stroke="black" points="4327.07,-198.08 4316.99,-201.33 4326.9,-205.08 4327.07,-198.08"/>
<text text-anchor="middle" x="7964.52" y="-353.78" font-family="Times,serif" font-size="14.00">1</text>
</g>
<!-- wrp.CollectSubweapon -->
<g id="node35" class="node">
<title>wrp.CollectSubweapon</title>
<g id="a_node35"><a xlink:href="wrp.CollectSubweapon.svg" xlink:title="wrp.CollectSubweapon">
<ellipse fill="green" stroke="black" cx="8246.74" cy="-378" rx="117.78" ry="18"/>
<text text-anchor="middle" x="8246.74" y="-374.3" font-family="Times,serif" font-size="14.00">wrp.CollectSubweapon</text>
</a>
</g>
</g>
<!-- wrp.CollectSubweapon&#45;&gt;wrp.DestroyEntity -->
<g id="edge34" class="edge">
<title>wrp.CollectSubweapon&#45;&gt;wrp.DestroyEntity</title>
<path fill="none" stroke="black" d="M8165.22,-364.96C8150.13,-363.05 8134.48,-361.29 8119.74,-360 6619.76,-228.91 4785.48,-204.08 4328.6,-199.82"/>
<polygon fill="black" stroke="black" points="4328.42,-196.32 4318.39,-199.73 4328.35,-203.32 4328.42,-196.32"/>
<text text-anchor="middle" x="8160.22" y="-353.76" font-family="Times,serif" font-size="14.00">1</text>
</g>
<!-- wrp.Update -->
<g id="node36" class="node">
<title>wrp.Update</title>
<g id="a_node36"><a xlink:href="wrp.Update.svg" xlink:title="wrp.Update">
<ellipse fill="green" stroke="black" cx="8447.74" cy="-378" rx="65.79" ry="18"/>
<text text-anchor="middle" x="8447.74" y="-374.3" font-family="Times,serif" font-size="14.00">wrp.Update</text>
</a>
</g>
</g>
<!-- wrp.Update&#45;&gt;wrp.DestroyEntity -->
<g id="edge35" class="edge">
<title>wrp.Update&#45;&gt;wrp.DestroyEntity</title>
<path fill="none" stroke="black" d="M8401.8,-365.05C8392.57,-363.04 8382.89,-361.22 8373.74,-360 7557.32,-251.37 4893.89,-208.43 4328.03,-200.43"/>
<polygon fill="black" stroke="black" points="4327.89,-196.92 4317.84,-200.28 4327.79,-203.92 4327.89,-196.92"/>
<text text-anchor="middle" x="8396.8" y="-353.85" font-family="Times,serif" font-size="14.00">1</text>
</g>
<!-- wrp.EntityWarpSmallRocks -->
<g id="node37" class="node">
<title>wrp.EntityWarpSmallRocks</title>
<g id="a_node37"><a xlink:href="wrp.EntityWarpSmallRocks.svg" xlink:title="wrp.EntityWarpSmallRocks">
<ellipse fill="red" stroke="black" cx="8669.74" cy="-378" rx="138.38" ry="18"/>
<text text-anchor="middle" x="8669.74" y="-374.3" font-family="Times,serif" font-size="14.00">wrp.EntityWarpSmallRocks</text>
</a>
</g>
</g>
<!-- wrp.EntityWarpSmallRocks&#45;&gt;wrp.DestroyEntity -->
<g id="edge36" class="edge">
<title>wrp.EntityWarpSmallRocks&#45;&gt;wrp.DestroyEntity</title>
<path fill="none" stroke="black" d="M8574.56,-364.9C8557.34,-363.02 8539.52,-361.28 8522.74,-360 6854.08,-232.48 4813.19,-204.86 4328.54,-199.94"/>
<polygon fill="black" stroke="black" points="4328.45,-196.44 4318.41,-199.84 4328.38,-203.44 4328.45,-196.44"/>
<text text-anchor="middle" x="8569.56" y="-353.7" font-family="Times,serif" font-size="14.00">1</text>
</g>
</g>
</svg>
