<?xml version="1.0" encoding="UTF-8" standalone="no"?>
<!DOCTYPE svg PUBLIC "-//W3C//DTD SVG 1.1//EN"
 "http://www.w3.org/Graphics/SVG/1.1/DTD/svg11.dtd">
<!-- Generated by graphviz version 2.43.0 (0)
 -->
<!-- Title: wrp.func_8018E2CC Pages: 1 -->
<svg width="2008pt" height="224pt"
 viewBox="0.00 0.00 2007.99 224.00" xmlns="http://www.w3.org/2000/svg" xmlns:xlink="http://www.w3.org/1999/xlink">
<g id="graph0" class="graph" transform="scale(1 1) rotate(0) translate(4 220)">
<title>wrp.func_8018E2CC</title>
<polygon fill="white" stroke="transparent" points="-4,4 -4,-220 2003.99,-220 2003.99,4 -4,4"/>
<!-- wrp.func_8018E2CC -->
<g id="node1" class="node">
<title>wrp.func_8018E2CC</title>
<ellipse fill="green" stroke="black" cx="930.34" cy="-198" rx="105.88" ry="18"/>
<text text-anchor="middle" x="930.34" y="-194.3" font-family="Times,serif" font-size="14.00">wrp.func_8018E2CC</text>
</g>
<!-- ClearImage -->
<g id="node2" class="node">
<title>ClearImage</title>
<g id="a_node2"><a xlink:href="ClearImage.svg" xlink:title="ClearImage">
<ellipse fill="lightblue" stroke="black" cx="64.34" cy="-18" rx="64.19" ry="18"/>
<text text-anchor="middle" x="64.34" y="-14.3" font-family="Times,serif" font-size="14.00">ClearImage</text>
</a>
</g>
</g>
<!-- wrp.func_8018E2CC&#45;&gt;ClearImage -->
<g id="edge1" class="edge">
<title>wrp.func_8018E2CC&#45;&gt;ClearImage</title>
<path fill="none" stroke="black" d="M863.11,-184.02C726.24,-157.45 405.52,-94.44 137.34,-36 132.31,-34.9 127.08,-33.74 121.85,-32.55"/>
<polygon fill="black" stroke="black" points="122.34,-29.08 111.81,-30.26 120.78,-35.9 122.34,-29.08"/>
<text text-anchor="middle" x="106.81" y="-34.06" font-family="Times,serif" font-size="14.00">1</text>
</g>
<!-- LoadTPage -->
<g id="node3" class="node">
<title>LoadTPage</title>
<g id="a_node3"><a xlink:href="LoadTPage.svg" xlink:title="LoadTPage">
<ellipse fill="lightblue" stroke="black" cx="208.34" cy="-18" rx="61.99" ry="18"/>
<text text-anchor="middle" x="208.34" y="-14.3" font-family="Times,serif" font-size="14.00">LoadTPage</text>
</a>
</g>
</g>
<!-- wrp.func_8018E2CC&#45;&gt;LoadTPage -->
<g id="edge2" class="edge">
<title>wrp.func_8018E2CC&#45;&gt;LoadTPage</title>
<path fill="none" stroke="black" d="M872.78,-182.81C737.01,-149.34 398.14,-65.79 264.14,-32.76"/>
<polygon fill="black" stroke="black" points="264.64,-29.27 254.09,-30.28 262.96,-36.07 264.64,-29.27"/>
<text text-anchor="middle" x="249.09" y="-34.08" font-family="Times,serif" font-size="14.00">1</text>
</g>
<!-- dra.AllocPrimitives -->
<g id="node4" class="node">
<title>dra.AllocPrimitives</title>
<g id="a_node4"><a xlink:href="dra.AllocPrimitives.svg" xlink:title="dra.AllocPrimitives">
<ellipse fill="green" stroke="black" cx="387.34" cy="-18" rx="99.38" ry="18"/>
<text text-anchor="middle" x="387.34" y="-14.3" font-family="Times,serif" font-size="14.00">dra.AllocPrimitives</text>
</a>
</g>
</g>
<!-- wrp.func_8018E2CC&#45;&gt;dra.AllocPrimitives -->
<g id="edge3" class="edge">
<title>wrp.func_8018E2CC&#45;&gt;dra.AllocPrimitives</title>
<path fill="none" stroke="black" d="M883.58,-181.67C783.79,-148.96 550.39,-72.45 443.09,-37.27"/>
<polygon fill="black" stroke="black" points="444.01,-33.89 433.42,-34.1 441.83,-40.55 444.01,-33.89"/>
<text text-anchor="middle" x="428.42" y="-37.9" font-family="Times,serif" font-size="14.00">1</text>
</g>
<!-- dra.LoadEquipIcon -->
<g id="node5" class="node">
<title>dra.LoadEquipIcon</title>
<g id="a_node5"><a xlink:href="dra.LoadEquipIcon.svg" xlink:title="dra.LoadEquipIcon">
<ellipse fill="green" stroke="black" cx="603.34" cy="-18" rx="98.58" ry="18"/>
<text text-anchor="middle" x="603.34" y="-14.3" font-family="Times,serif" font-size="14.00">dra.LoadEquipIcon</text>
</a>
</g>
</g>
<!-- wrp.func_8018E2CC&#45;&gt;dra.LoadEquipIcon -->
<g id="edge4" class="edge">
<title>wrp.func_8018E2CC&#45;&gt;dra.LoadEquipIcon</title>
<path fill="none" stroke="black" d="M900.17,-180.57C840.67,-148.19 708.29,-76.13 642.3,-40.21"/>
<polygon fill="black" stroke="black" points="643.91,-37.09 633.45,-35.39 640.56,-43.24 643.91,-37.09"/>
<text text-anchor="middle" x="628.45" y="-39.19" font-family="Times,serif" font-size="14.00">1</text>
</g>
<!-- dra.func_800FE044 -->
<g id="node6" class="node">
<title>dra.func_800FE044</title>
<g id="a_node6"><a xlink:href="dra.func_800FE044.svg" xlink:title="dra.func_800FE044">
<ellipse fill="green" stroke="black" cx="822.34" cy="-18" rx="102.08" ry="18"/>
<text text-anchor="middle" x="822.34" y="-14.3" font-family="Times,serif" font-size="14.00">dra.func_800FE044</text>
</a>
</g>
</g>
<!-- wrp.func_8018E2CC&#45;&gt;dra.func_800FE044 -->
<g id="edge5" class="edge">
<title>wrp.func_8018E2CC&#45;&gt;dra.func_800FE044</title>
<path fill="none" stroke="black" d="M919.99,-179.93C900.96,-148.57 860.33,-81.6 837.94,-44.71"/>
<polygon fill="black" stroke="black" points="840.85,-42.75 832.67,-36.02 834.86,-46.38 840.85,-42.75"/>
<text text-anchor="middle" x="827.67" y="-39.82" font-family="Times,serif" font-size="14.00">1</text>
</g>
<!-- wrp.DestroyEntity -->
<g id="node7" class="node">
<title>wrp.DestroyEntity</title>
<g id="a_node7"><a xlink:href="wrp.DestroyEntity.svg" xlink:title="wrp.DestroyEntity">
<ellipse fill="green" stroke="black" cx="1039.34" cy="-18" rx="96.68" ry="18"/>
<text text-anchor="middle" x="1039.34" y="-14.3" font-family="Times,serif" font-size="14.00">wrp.DestroyEntity</text>
</a>
</g>
</g>
<!-- wrp.func_8018E2CC&#45;&gt;wrp.DestroyEntity -->
<g id="edge6" class="edge">
<title>wrp.func_8018E2CC&#45;&gt;wrp.DestroyEntity</title>
<path fill="none" stroke="black" d="M940.8,-179.93C960,-148.57 1001.01,-81.6 1023.6,-44.71"/>
<polygon fill="black" stroke="black" points="1026.69,-46.37 1028.92,-36.02 1020.72,-42.72 1026.69,-46.37"/>
<text text-anchor="middle" x="1023.92" y="-39.82" font-family="Times,serif" font-size="14.00">1</text>
</g>
<!-- wrp.InitializeEntity -->
<g id="node8" class="node">
<title>wrp.InitializeEntity</title>
<g id="a_node8"><a xlink:href="wrp.InitializeEntity.svg" xlink:title="wrp.InitializeEntity">
<ellipse fill="green" stroke="black" cx="1255.34" cy="-18" rx="100.98" ry="18"/>
<text text-anchor="middle" x="1255.34" y="-14.3" font-family="Times,serif" font-size="14.00">wrp.InitializeEntity</text>
</a>
</g>
</g>
<!-- wrp.func_8018E2CC&#45;&gt;wrp.InitializeEntity -->
<g id="edge7" class="edge">
<title>wrp.func_8018E2CC&#45;&gt;wrp.InitializeEntity</title>
<path fill="none" stroke="black" d="M960.34,-180.57C1019.47,-148.19 1151.04,-76.13 1216.62,-40.21"/>
<polygon fill="black" stroke="black" points="1218.33,-43.26 1225.42,-35.39 1214.97,-37.12 1218.33,-43.26"/>
<text text-anchor="middle" x="1220.42" y="-39.19" font-family="Times,serif" font-size="14.00">1</text>
</g>
<!-- wrp.MoveEntity -->
<g id="node9" class="node">
<title>wrp.MoveEntity</title>
<g id="a_node9"><a xlink:href="wrp.MoveEntity.svg" xlink:title="wrp.MoveEntity">
<ellipse fill="green" stroke="black" cx="1460.34" cy="-18" rx="85.59" ry="18"/>
<text text-anchor="middle" x="1460.34" y="-14.3" font-family="Times,serif" font-size="14.00">wrp.MoveEntity</text>
</a>
</g>
</g>
<!-- wrp.func_8018E2CC&#45;&gt;wrp.MoveEntity -->
<g id="edge8" class="edge">
<title>wrp.func_8018E2CC&#45;&gt;wrp.MoveEntity</title>
<path fill="none" stroke="black" d="M975.99,-181.67C1073.77,-148.83 1303.03,-71.84 1407.18,-36.86"/>
<polygon fill="black" stroke="black" points="1408.49,-40.11 1416.86,-33.6 1406.26,-33.47 1408.49,-40.11"/>
<text text-anchor="middle" x="1411.86" y="-37.4" font-family="Times,serif" font-size="14.00">1</text>
</g>
<!-- wrp.func_8018D990 -->
<g id="node10" class="node">
<title>wrp.func_8018D990</title>
<g id="a_node10"><a xlink:href="wrp.func_8018D990.svg" xlink:title="wrp.func_8018D990">
<ellipse fill="green" stroke="black" cx="1668.34" cy="-18" rx="104.78" ry="18"/>
<text text-anchor="middle" x="1668.34" y="-14.3" font-family="Times,serif" font-size="14.00">wrp.func_8018D990</text>
</a>
</g>
</g>
<!-- wrp.func_8018E2CC&#45;&gt;wrp.func_8018D990 -->
<g id="edge9" class="edge">
<title>wrp.func_8018E2CC&#45;&gt;wrp.func_8018D990</title>
<path fill="none" stroke="black" d="M988.56,-182.96C1123.34,-150.45 1456.28,-70.15 1600.23,-35.43"/>
<polygon fill="black" stroke="black" points="1601.36,-38.76 1610.26,-33.01 1599.72,-31.95 1601.36,-38.76"/>
<text text-anchor="middle" x="1605.26" y="-36.81" font-family="Times,serif" font-size="14.00">1</text>
</g>
<!-- wrp.func_8018E01C -->
<g id="node11" class="node">
<title>wrp.func_8018E01C</title>
<g id="a_node11"><a xlink:href="wrp.func_8018E01C.svg" xlink:title="wrp.func_8018E01C">
<ellipse fill="green" stroke="black" cx="1895.34" cy="-18" rx="104.78" ry="18"/>
<text text-anchor="middle" x="1895.34" y="-14.3" font-family="Times,serif" font-size="14.00">wrp.func_8018E01C</text>
</a>
</g>
</g>
<!-- wrp.func_8018E2CC&#45;&gt;wrp.func_8018E01C -->
<g id="edge10" class="edge">
<title>wrp.func_8018E2CC&#45;&gt;wrp.func_8018E01C</title>
<path fill="none" stroke="black" d="M999.36,-184.27C1173.98,-152.06 1632.56,-67.47 1816.93,-33.46"/>
<polygon fill="black" stroke="black" points="1817.62,-36.9 1826.82,-31.64 1816.35,-30.01 1817.62,-36.9"/>
<text text-anchor="middle" x="1821.82" y="-35.44" font-family="Times,serif" font-size="14.00">1</text>
</g>
</g>
</svg>
