<?xml version="1.0" encoding="UTF-8" standalone="no"?>
<!DOCTYPE svg PUBLIC "-//W3C//DTD SVG 1.1//EN"
 "http://www.w3.org/Graphics/SVG/1.1/DTD/svg11.dtd">
<!-- Generated by graphviz version 2.43.0 (0)
 -->
<!-- Title: wrp.EntityRelicOrb Pages: 1 -->
<svg width="2008pt" height="224pt"
 viewBox="0.00 0.00 2007.99 224.00" xmlns="http://www.w3.org/2000/svg" xmlns:xlink="http://www.w3.org/1999/xlink">
<g id="graph0" class="graph" transform="scale(1 1) rotate(0) translate(4 220)">
<title>wrp.EntityRelicOrb</title>
<polygon fill="white" stroke="transparent" points="-4,4 -4,-220 2003.99,-220 2003.99,4 -4,4"/>
<!-- wrp.EntityRelicOrb -->
<g id="node1" class="node">
<title>wrp.EntityRelicOrb</title>
<ellipse fill="red" stroke="black" cx="930.34" cy="-198" rx="100.98" ry="18"/>
<text text-anchor="middle" x="930.34" y="-194.3" font-family="Times,serif" font-size="14.00">wrp.EntityRelicOrb</text>
</g>
<!-- ClearImage -->
<g id="node2" class="node">
<title>ClearImage</title>
<g id="a_node2"><a xlink:href="ClearImage.svg" xlink:title="ClearImage">
<ellipse fill="lightblue" stroke="black" cx="64.34" cy="-18" rx="64.19" ry="18"/>
<text text-anchor="middle" x="64.34" y="-14.3" font-family="Times,serif" font-size="14.00">ClearImage</text>
</a>
</g>
</g>
<!-- wrp.EntityRelicOrb&#45;&gt;ClearImage -->
<g id="edge1" class="edge">
<title>wrp.EntityRelicOrb&#45;&gt;ClearImage</title>
<path fill="none" stroke="black" d="M864.68,-184.33C728.71,-157.94 406.55,-94.66 137.34,-36 132.31,-34.9 127.08,-33.74 121.85,-32.55"/>
<polygon fill="black" stroke="black" points="122.34,-29.08 111.81,-30.26 120.78,-35.9 122.34,-29.08"/>
<text text-anchor="middle" x="106.81" y="-34.06" font-family="Times,serif" font-size="14.00">1</text>
</g>
<!-- LoadTPage -->
<g id="node3" class="node">
<title>LoadTPage</title>
<g id="a_node3"><a xlink:href="LoadTPage.svg" xlink:title="LoadTPage">
<ellipse fill="lightblue" stroke="black" cx="208.34" cy="-18" rx="61.99" ry="18"/>
<text text-anchor="middle" x="208.34" y="-14.3" font-family="Times,serif" font-size="14.00">LoadTPage</text>
</a>
</g>
</g>
<!-- wrp.EntityRelicOrb&#45;&gt;LoadTPage -->
<g id="edge2" class="edge">
<title>wrp.EntityRelicOrb&#45;&gt;LoadTPage</title>
<path fill="none" stroke="black" d="M873.69,-183.03C738.42,-149.68 397.93,-65.74 263.84,-32.68"/>
<polygon fill="black" stroke="black" points="264.34,-29.2 253.79,-30.2 262.66,-36 264.34,-29.2"/>
<text text-anchor="middle" x="248.79" y="-34" font-family="Times,serif" font-size="14.00">1</text>
</g>
<!-- dra.AllocPrimitives -->
<g id="node4" class="node">
<title>dra.AllocPrimitives</title>
<g id="a_node4"><a xlink:href="dra.AllocPrimitives.svg" xlink:title="dra.AllocPrimitives">
<ellipse fill="green" stroke="black" cx="387.34" cy="-18" rx="99.38" ry="18"/>
<text text-anchor="middle" x="387.34" y="-14.3" font-family="Times,serif" font-size="14.00">dra.AllocPrimitives</text>
</a>
</g>
</g>
<!-- wrp.EntityRelicOrb&#45;&gt;dra.AllocPrimitives -->
<g id="edge3" class="edge">
<title>wrp.EntityRelicOrb&#45;&gt;dra.AllocPrimitives</title>
<path fill="none" stroke="black" d="M884.05,-181.82C784.44,-149.17 550.15,-72.37 442.81,-37.18"/>
<polygon fill="black" stroke="black" points="443.73,-33.8 433.14,-34.01 441.55,-40.45 443.73,-33.8"/>
<text text-anchor="middle" x="428.14" y="-37.81" font-family="Times,serif" font-size="14.00">1</text>
</g>
<!-- dra.LoadEquipIcon -->
<g id="node5" class="node">
<title>dra.LoadEquipIcon</title>
<g id="a_node5"><a xlink:href="dra.LoadEquipIcon.svg" xlink:title="dra.LoadEquipIcon">
<ellipse fill="green" stroke="black" cx="603.34" cy="-18" rx="98.58" ry="18"/>
<text text-anchor="middle" x="603.34" y="-14.3" font-family="Times,serif" font-size="14.00">dra.LoadEquipIcon</text>
</a>
</g>
</g>
<!-- wrp.EntityRelicOrb&#45;&gt;dra.LoadEquipIcon -->
<g id="edge4" class="edge">
<title>wrp.EntityRelicOrb&#45;&gt;dra.LoadEquipIcon</title>
<path fill="none" stroke="black" d="M900.46,-180.73C841.13,-148.44 708.52,-76.25 642.39,-40.25"/>
<polygon fill="black" stroke="black" points="643.97,-37.13 633.52,-35.42 640.63,-43.28 643.97,-37.13"/>
<text text-anchor="middle" x="628.52" y="-39.22" font-family="Times,serif" font-size="14.00">1</text>
</g>
<!-- dra.func_800FE044 -->
<g id="node6" class="node">
<title>dra.func_800FE044</title>
<g id="a_node6"><a xlink:href="dra.func_800FE044.svg" xlink:title="dra.func_800FE044">
<ellipse fill="green" stroke="black" cx="822.34" cy="-18" rx="102.08" ry="18"/>
<text text-anchor="middle" x="822.34" y="-14.3" font-family="Times,serif" font-size="14.00">dra.func_800FE044</text>
</a>
</g>
</g>
<!-- wrp.EntityRelicOrb&#45;&gt;dra.func_800FE044 -->
<g id="edge5" class="edge">
<title>wrp.EntityRelicOrb&#45;&gt;dra.func_800FE044</title>
<path fill="none" stroke="black" d="M919.99,-179.93C900.96,-148.57 860.33,-81.6 837.94,-44.71"/>
<polygon fill="black" stroke="black" points="840.85,-42.75 832.67,-36.02 834.86,-46.38 840.85,-42.75"/>
<text text-anchor="middle" x="827.67" y="-39.82" font-family="Times,serif" font-size="14.00">1</text>
</g>
<!-- wrp.DestroyEntity -->
<g id="node7" class="node">
<title>wrp.DestroyEntity</title>
<g id="a_node7"><a xlink:href="wrp.DestroyEntity.svg" xlink:title="wrp.DestroyEntity">
<ellipse fill="green" stroke="black" cx="1039.34" cy="-18" rx="96.68" ry="18"/>
<text text-anchor="middle" x="1039.34" y="-14.3" font-family="Times,serif" font-size="14.00">wrp.DestroyEntity</text>
</a>
</g>
</g>
<!-- wrp.EntityRelicOrb&#45;&gt;wrp.DestroyEntity -->
<g id="edge6" class="edge">
<title>wrp.EntityRelicOrb&#45;&gt;wrp.DestroyEntity</title>
<path fill="none" stroke="black" d="M940.8,-179.93C960,-148.57 1001.01,-81.6 1023.6,-44.71"/>
<polygon fill="black" stroke="black" points="1026.69,-46.37 1028.92,-36.02 1020.72,-42.72 1026.69,-46.37"/>
<text text-anchor="middle" x="1023.92" y="-39.82" font-family="Times,serif" font-size="14.00">1</text>
</g>
<!-- wrp.InitializeEntity -->
<g id="node8" class="node">
<title>wrp.InitializeEntity</title>
<g id="a_node8"><a xlink:href="wrp.InitializeEntity.svg" xlink:title="wrp.InitializeEntity">
<ellipse fill="green" stroke="black" cx="1255.34" cy="-18" rx="100.98" ry="18"/>
<text text-anchor="middle" x="1255.34" y="-14.3" font-family="Times,serif" font-size="14.00">wrp.InitializeEntity</text>
</a>
</g>
</g>
<!-- wrp.EntityRelicOrb&#45;&gt;wrp.InitializeEntity -->
<g id="edge7" class="edge">
<title>wrp.EntityRelicOrb&#45;&gt;wrp.InitializeEntity</title>
<path fill="none" stroke="black" d="M960.05,-180.73C1019.01,-148.44 1150.81,-76.25 1216.54,-40.25"/>
<polygon fill="black" stroke="black" points="1218.27,-43.3 1225.36,-35.42 1214.91,-37.16 1218.27,-43.3"/>
<text text-anchor="middle" x="1220.36" y="-39.22" font-family="Times,serif" font-size="14.00">1</text>
</g>
<!-- wrp.MoveEntity -->
<g id="node9" class="node">
<title>wrp.MoveEntity</title>
<g id="a_node9"><a xlink:href="wrp.MoveEntity.svg" xlink:title="wrp.MoveEntity">
<ellipse fill="green" stroke="black" cx="1460.34" cy="-18" rx="85.59" ry="18"/>
<text text-anchor="middle" x="1460.34" y="-14.3" font-family="Times,serif" font-size="14.00">wrp.MoveEntity</text>
</a>
</g>
</g>
<!-- wrp.EntityRelicOrb&#45;&gt;wrp.MoveEntity -->
<g id="edge8" class="edge">
<title>wrp.EntityRelicOrb&#45;&gt;wrp.MoveEntity</title>
<path fill="none" stroke="black" d="M975.53,-181.82C1073.02,-149.08 1302.69,-71.95 1407.06,-36.9"/>
<polygon fill="black" stroke="black" points="1408.4,-40.14 1416.76,-33.64 1406.17,-33.5 1408.4,-40.14"/>
<text text-anchor="middle" x="1411.76" y="-37.44" font-family="Times,serif" font-size="14.00">1</text>
</g>
<!-- wrp.func_8018D990 -->
<g id="node10" class="node">
<title>wrp.func_8018D990</title>
<g id="a_node10"><a xlink:href="wrp.func_8018D990.svg" xlink:title="wrp.func_8018D990">
<ellipse fill="green" stroke="black" cx="1668.34" cy="-18" rx="104.78" ry="18"/>
<text text-anchor="middle" x="1668.34" y="-14.3" font-family="Times,serif" font-size="14.00">wrp.func_8018D990</text>
</a>
</g>
</g>
<!-- wrp.EntityRelicOrb&#45;&gt;wrp.func_8018D990 -->
<g id="edge9" class="edge">
<title>wrp.EntityRelicOrb&#45;&gt;wrp.func_8018D990</title>
<path fill="none" stroke="black" d="M987.64,-183.18C1121.83,-150.81 1456.02,-70.21 1600.27,-35.42"/>
<polygon fill="black" stroke="black" points="1601.42,-38.74 1610.32,-32.99 1599.78,-31.94 1601.42,-38.74"/>
<text text-anchor="middle" x="1605.32" y="-36.79" font-family="Times,serif" font-size="14.00">1</text>
</g>
<!-- wrp.func_8018E01C -->
<g id="node11" class="node">
<title>wrp.func_8018E01C</title>
<g id="a_node11"><a xlink:href="wrp.func_8018E01C.svg" xlink:title="wrp.func_8018E01C">
<ellipse fill="red" stroke="black" cx="1895.34" cy="-18" rx="104.78" ry="18"/>
<text text-anchor="middle" x="1895.34" y="-14.3" font-family="Times,serif" font-size="14.00">wrp.func_8018E01C</text>
</a>
</g>
</g>
<!-- wrp.EntityRelicOrb&#45;&gt;wrp.func_8018E01C -->
<g id="edge10" class="edge">
<title>wrp.EntityRelicOrb&#45;&gt;wrp.func_8018E01C</title>
<path fill="none" stroke="black" d="M997.82,-184.55C1171.27,-152.56 1632,-67.58 1816.92,-33.47"/>
<polygon fill="black" stroke="black" points="1817.64,-36.89 1826.84,-31.64 1816.37,-30.01 1817.64,-36.89"/>
<text text-anchor="middle" x="1821.84" y="-35.44" font-family="Times,serif" font-size="14.00">1</text>
</g>
</g>
</svg>
