<?xml version="1.0" encoding="UTF-8" standalone="no"?>
<!DOCTYPE svg PUBLIC "-//W3C//DTD SVG 1.1//EN"
 "http://www.w3.org/Graphics/SVG/1.1/DTD/svg11.dtd">
<!-- Generated by graphviz version 2.43.0 (0)
 -->
<!-- Title: wrp.CollectGold Pages: 1 -->
<svg width="788pt" height="404pt"
 viewBox="0.00 0.00 788.13 404.00" xmlns="http://www.w3.org/2000/svg" xmlns:xlink="http://www.w3.org/1999/xlink">
<g id="graph0" class="graph" transform="scale(1 1) rotate(0) translate(4 400)">
<title>wrp.CollectGold</title>
<polygon fill="white" stroke="transparent" points="-4,4 -4,-400 784.13,-400 784.13,4 -4,4"/>
<!-- wrp.CollectGold -->
<g id="node1" class="node">
<title>wrp.CollectGold</title>
<ellipse fill="green" stroke="black" cx="368.79" cy="-198" rx="85.29" ry="18"/>
<text text-anchor="middle" x="368.79" y="-194.3" font-family="Times,serif" font-size="14.00">wrp.CollectGold</text>
</g>
<!-- dra.FreePrimitives -->
<g id="node2" class="node">
<title>dra.FreePrimitives</title>
<g id="a_node2"><a xlink:href="dra.FreePrimitives.svg" xlink:title="dra.FreePrimitives">
<ellipse fill="green" stroke="black" cx="98.79" cy="-18" rx="98.58" ry="18"/>
<text text-anchor="middle" x="98.79" y="-14.3" font-family="Times,serif" font-size="14.00">dra.FreePrimitives</text>
</a>
</g>
</g>
<!-- wrp.CollectGold&#45;&gt;dra.FreePrimitives -->
<g id="edge1" class="edge">
<title>wrp.CollectGold&#45;&gt;dra.FreePrimitives</title>
<path fill="none" stroke="black" d="M343.87,-180.57C295.27,-148.53 187.78,-77.67 132.73,-41.37"/>
<polygon fill="black" stroke="black" points="134.32,-38.23 124.04,-35.65 130.46,-44.07 134.32,-38.23"/>
<text text-anchor="middle" x="119.04" y="-39.45" font-family="Times,serif" font-size="14.00">1</text>
</g>
<!-- dra.PlaySfx -->
<g id="node3" class="node">
<title>dra.PlaySfx</title>
<g id="a_node3"><a xlink:href="dra.PlaySfx.svg" xlink:title="dra.PlaySfx">
<ellipse fill="green" stroke="black" cx="279.79" cy="-18" rx="64.19" ry="18"/>
<text text-anchor="middle" x="279.79" y="-14.3" font-family="Times,serif" font-size="14.00">dra.PlaySfx</text>
</a>
</g>
</g>
<!-- wrp.CollectGold&#45;&gt;dra.PlaySfx -->
<g id="edge2" class="edge">
<title>wrp.CollectGold&#45;&gt;dra.PlaySfx</title>
<path fill="none" stroke="black" d="M360.26,-179.93C344.64,-148.7 311.38,-82.17 292.88,-45.18"/>
<polygon fill="black" stroke="black" points="295.9,-43.39 288.3,-36.02 289.64,-46.53 295.9,-43.39"/>
<text text-anchor="middle" x="283.3" y="-39.82" font-family="Times,serif" font-size="14.00">1</text>
</g>
<!-- wrp.DestroyEntity -->
<g id="node4" class="node">
<title>wrp.DestroyEntity</title>
<g id="a_node4"><a xlink:href="wrp.DestroyEntity.svg" xlink:title="wrp.DestroyEntity">
<ellipse fill="green" stroke="black" cx="458.79" cy="-18" rx="96.68" ry="18"/>
<text text-anchor="middle" x="458.79" y="-14.3" font-family="Times,serif" font-size="14.00">wrp.DestroyEntity</text>
</a>
</g>
</g>
<!-- wrp.CollectGold&#45;&gt;wrp.DestroyEntity -->
<g id="edge3" class="edge">
<title>wrp.CollectGold&#45;&gt;wrp.DestroyEntity</title>
<path fill="none" stroke="black" d="M377.42,-179.93C393.21,-148.7 426.85,-82.17 445.55,-45.18"/>
<polygon fill="black" stroke="black" points="448.8,-46.52 450.19,-36.02 442.55,-43.36 448.8,-46.52"/>
<text text-anchor="middle" x="445.19" y="-39.82" font-family="Times,serif" font-size="14.00">1</text>
</g>
<!-- wrp.func_80192F40 -->
<g id="node5" class="node">
<title>wrp.func_80192F40</title>
<g id="a_node5"><a xlink:href="wrp.func_80192F40.svg" xlink:title="wrp.func_80192F40">
<ellipse fill="red" stroke="black" cx="676.79" cy="-18" rx="103.18" ry="18"/>
<text text-anchor="middle" x="676.79" y="-14.3" font-family="Times,serif" font-size="14.00">wrp.func_80192F40</text>
</a>
</g>
</g>
<!-- wrp.CollectGold&#45;&gt;wrp.func_80192F40 -->
<g id="edge4" class="edge">
<title>wrp.CollectGold&#45;&gt;wrp.func_80192F40</title>
<path fill="none" stroke="black" d="M396.67,-180.89C452.28,-148.75 577.01,-76.67 639.55,-40.52"/>
<polygon fill="black" stroke="black" points="641.4,-43.49 648.31,-35.46 637.9,-37.43 641.4,-43.49"/>
<text text-anchor="middle" x="643.31" y="-39.26" font-family="Times,serif" font-size="14.00">1</text>
</g>
<!-- wrp.EntityPrizeDrop -->
<g id="node6" class="node">
<title>wrp.EntityPrizeDrop</title>
<g id="a_node6"><a xlink:href="wrp.EntityPrizeDrop.svg" xlink:title="wrp.EntityPrizeDrop">
<ellipse fill="green" stroke="black" cx="368.79" cy="-378" rx="107.48" ry="18"/>
<text text-anchor="middle" x="368.79" y="-374.3" font-family="Times,serif" font-size="14.00">wrp.EntityPrizeDrop</text>
</a>
</g>
</g>
<!-- wrp.EntityPrizeDrop&#45;&gt;wrp.CollectGold -->
<g id="edge5" class="edge">
<title>wrp.EntityPrizeDrop&#45;&gt;wrp.CollectGold</title>
<path fill="none" stroke="black" d="M368.79,-359.93C368.79,-328.97 368.79,-263.3 368.79,-226.13"/>
<polygon fill="black" stroke="black" points="372.29,-226.02 368.79,-216.02 365.29,-226.02 372.29,-226.02"/>
<text text-anchor="middle" x="363.79" y="-348.73" font-family="Times,serif" font-size="14.00">1</text>
</g>
</g>
</svg>
