<?xml version="1.0" encoding="UTF-8" standalone="no"?>
<!DOCTYPE svg PUBLIC "-//W3C//DTD SVG 1.1//EN"
 "http://www.w3.org/Graphics/SVG/1.1/DTD/svg11.dtd">
<!-- Generated by graphviz version 2.43.0 (0)
 -->
<!-- Title: wrp.AllocEntity Pages: 1 -->
<svg width="1573pt" height="404pt"
 viewBox="0.00 0.00 1573.13 404.00" xmlns="http://www.w3.org/2000/svg" xmlns:xlink="http://www.w3.org/1999/xlink">
<g id="graph0" class="graph" transform="scale(1 1) rotate(0) translate(4 400)">
<title>wrp.AllocEntity</title>
<polygon fill="white" stroke="transparent" points="-4,4 -4,-400 1569.13,-400 1569.13,4 -4,4"/>
<!-- wrp.AllocEntity -->
<g id="node1" class="node">
<title>wrp.AllocEntity</title>
<ellipse fill="green" stroke="black" cx="778.99" cy="-198" rx="83.39" ry="18"/>
<text text-anchor="middle" x="778.99" y="-194.3" font-family="Times,serif" font-size="14.00">wrp.AllocEntity</text>
</g>
<!-- wrp.DestroyEntity -->
<g id="node2" class="node">
<title>wrp.DestroyEntity</title>
<g id="a_node2"><a xlink:href="wrp.DestroyEntity.svg" xlink:title="wrp.DestroyEntity">
<ellipse fill="green" stroke="black" cx="778.99" cy="-18" rx="96.68" ry="18"/>
<text text-anchor="middle" x="778.99" y="-14.3" font-family="Times,serif" font-size="14.00">wrp.DestroyEntity</text>
</a>
</g>
</g>
<!-- wrp.AllocEntity&#45;&gt;wrp.DestroyEntity -->
<g id="edge1" class="edge">
<title>wrp.AllocEntity&#45;&gt;wrp.DestroyEntity</title>
<path fill="none" stroke="black" d="M778.99,-179.93C778.99,-148.97 778.99,-83.3 778.99,-46.13"/>
<polygon fill="black" stroke="black" points="782.49,-46.02 778.99,-36.02 775.49,-46.02 782.49,-46.02"/>
<text text-anchor="middle" x="773.99" y="-39.82" font-family="Times,serif" font-size="14.00">1</text>
</g>
<!-- wrp.func_8019055C -->
<g id="node3" class="node">
<title>wrp.func_8019055C</title>
<g id="a_node3"><a xlink:href="wrp.func_8019055C.svg" xlink:title="wrp.func_8019055C">
<ellipse fill="green" stroke="black" cx="103.99" cy="-378" rx="103.98" ry="18"/>
<text text-anchor="middle" x="103.99" y="-374.3" font-family="Times,serif" font-size="14.00">wrp.func_8019055C</text>
</a>
</g>
</g>
<!-- wrp.func_8019055C&#45;&gt;wrp.AllocEntity -->
<g id="edge2" class="edge">
<title>wrp.func_8019055C&#45;&gt;wrp.AllocEntity</title>
<path fill="none" stroke="black" d="M158.66,-362.58C283.46,-329.67 588.58,-249.21 718.65,-214.91"/>
<polygon fill="black" stroke="black" points="719.68,-218.26 728.45,-212.33 717.89,-211.49 719.68,-218.26"/>
<text text-anchor="middle" x="153.66" y="-351.38" font-family="Times,serif" font-size="14.00">1</text>
</g>
<!-- wrp.func_8018F750 -->
<g id="node4" class="node">
<title>wrp.func_8018F750</title>
<g id="a_node4"><a xlink:href="wrp.func_8018F750.svg" xlink:title="wrp.func_8018F750">
<ellipse fill="red" stroke="black" cx="328.99" cy="-378" rx="103.18" ry="18"/>
<text text-anchor="middle" x="328.99" y="-374.3" font-family="Times,serif" font-size="14.00">wrp.func_8018F750</text>
</a>
</g>
</g>
<!-- wrp.func_8018F750&#45;&gt;wrp.AllocEntity -->
<g id="edge3" class="edge">
<title>wrp.func_8018F750&#45;&gt;wrp.AllocEntity</title>
<path fill="none" stroke="black" d="M368.53,-361.36C451.3,-328.62 642.51,-252.99 731.65,-217.73"/>
<polygon fill="black" stroke="black" points="732.96,-220.97 740.98,-214.04 730.39,-214.46 732.96,-220.97"/>
<text text-anchor="middle" x="363.53" y="-350.16" font-family="Times,serif" font-size="14.00">1</text>
</g>
<!-- wrp.func_8018F620 -->
<g id="node5" class="node">
<title>wrp.func_8018F620</title>
<g id="a_node5"><a xlink:href="wrp.func_8018F620.svg" xlink:title="wrp.func_8018F620">
<ellipse fill="green" stroke="black" cx="553.99" cy="-378" rx="103.18" ry="18"/>
<text text-anchor="middle" x="553.99" y="-374.3" font-family="Times,serif" font-size="14.00">wrp.func_8018F620</text>
</a>
</g>
</g>
<!-- wrp.func_8018F620&#45;&gt;wrp.AllocEntity -->
<g id="edge4" class="edge">
<title>wrp.func_8018F620&#45;&gt;wrp.AllocEntity</title>
<path fill="none" stroke="black" d="M575.16,-360.25C615.63,-328.24 704.04,-258.29 749.98,-221.95"/>
<polygon fill="black" stroke="black" points="752.37,-224.52 758.04,-215.57 748.03,-219.03 752.37,-224.52"/>
<text text-anchor="middle" x="570.16" y="-349.05" font-family="Times,serif" font-size="14.00">1</text>
</g>
<!-- wrp.func_8018F510 -->
<g id="node6" class="node">
<title>wrp.func_8018F510</title>
<g id="a_node6"><a xlink:href="wrp.func_8018F510.svg" xlink:title="wrp.func_8018F510">
<ellipse fill="green" stroke="black" cx="778.99" cy="-378" rx="103.18" ry="18"/>
<text text-anchor="middle" x="778.99" y="-374.3" font-family="Times,serif" font-size="14.00">wrp.func_8018F510</text>
</a>
</g>
</g>
<!-- wrp.func_8018F510&#45;&gt;wrp.AllocEntity -->
<g id="edge5" class="edge">
<title>wrp.func_8018F510&#45;&gt;wrp.AllocEntity</title>
<path fill="none" stroke="black" d="M778.99,-359.93C778.99,-328.97 778.99,-263.3 778.99,-226.13"/>
<polygon fill="black" stroke="black" points="782.49,-226.02 778.99,-216.02 775.49,-226.02 782.49,-226.02"/>
<text text-anchor="middle" x="773.99" y="-348.73" font-family="Times,serif" font-size="14.00">1</text>
</g>
<!-- wrp.TestCollisions -->
<g id="node7" class="node">
<title>wrp.TestCollisions</title>
<g id="a_node7"><a xlink:href="wrp.TestCollisions.svg" xlink:title="wrp.TestCollisions">
<ellipse fill="red" stroke="black" cx="996.99" cy="-378" rx="96.38" ry="18"/>
<text text-anchor="middle" x="996.99" y="-374.3" font-family="Times,serif" font-size="14.00">wrp.TestCollisions</text>
</a>
</g>
</g>
<!-- wrp.TestCollisions&#45;&gt;wrp.AllocEntity -->
<g id="edge6" class="edge">
<title>wrp.TestCollisions&#45;&gt;wrp.AllocEntity</title>
<path fill="none" stroke="black" d="M976.48,-360.25C937.27,-328.24 851.61,-258.29 807.1,-221.95"/>
<polygon fill="black" stroke="black" points="809.25,-219.19 799.29,-215.57 804.82,-224.61 809.25,-219.19"/>
<text text-anchor="middle" x="971.48" y="-349.05" font-family="Times,serif" font-size="14.00">4</text>
</g>
<!-- wrp.EntityBreakable -->
<g id="node8" class="node">
<title>wrp.EntityBreakable</title>
<g id="a_node8"><a xlink:href="wrp.EntityBreakable.svg" xlink:title="wrp.EntityBreakable">
<ellipse fill="green" stroke="black" cx="1217.99" cy="-378" rx="107.48" ry="18"/>
<text text-anchor="middle" x="1217.99" y="-374.3" font-family="Times,serif" font-size="14.00">wrp.EntityBreakable</text>
</a>
</g>
</g>
<!-- wrp.EntityBreakable&#45;&gt;wrp.AllocEntity -->
<g id="edge7" class="edge">
<title>wrp.EntityBreakable&#45;&gt;wrp.AllocEntity</title>
<path fill="none" stroke="black" d="M1179.03,-361.2C1098.23,-328.44 912.69,-253.21 825.66,-217.92"/>
<polygon fill="black" stroke="black" points="826.89,-214.64 816.3,-214.13 824.25,-221.13 826.89,-214.64"/>
<text text-anchor="middle" x="1174.03" y="-350" font-family="Times,serif" font-size="14.00">1</text>
</g>
<!-- wrp.EntityWarpRoom -->
<g id="node9" class="node">
<title>wrp.EntityWarpRoom</title>
<g id="a_node9"><a xlink:href="wrp.EntityWarpRoom.svg" xlink:title="wrp.EntityWarpRoom">
<ellipse fill="red" stroke="black" cx="1453.99" cy="-378" rx="111.28" ry="18"/>
<text text-anchor="middle" x="1453.99" y="-374.3" font-family="Times,serif" font-size="14.00">wrp.EntityWarpRoom</text>
</a>
</g>
</g>
<!-- wrp.EntityWarpRoom&#45;&gt;wrp.AllocEntity -->
<g id="edge8" class="edge">
<title>wrp.EntityWarpRoom&#45;&gt;wrp.AllocEntity</title>
<path fill="none" stroke="black" d="M1398.47,-362.36C1273.22,-329.33 969.54,-249.25 839.61,-214.99"/>
<polygon fill="black" stroke="black" points="840.38,-211.57 829.81,-212.4 838.59,-218.34 840.38,-211.57"/>
<text text-anchor="middle" x="1393.47" y="-351.16" font-family="Times,serif" font-size="14.00">1</text>
</g>
</g>
</svg>
