<?xml version="1.0" encoding="UTF-8" standalone="no"?>
<!DOCTYPE svg PUBLIC "-//W3C//DTD SVG 1.1//EN"
 "http://www.w3.org/Graphics/SVG/1.1/DTD/svg11.dtd">
<!-- Generated by graphviz version 2.43.0 (0)
 -->
<!-- Title: wrp.EntityUnkId0E Pages: 1 -->
<svg width="1086pt" height="224pt"
 viewBox="0.00 0.00 1086.09 224.00" xmlns="http://www.w3.org/2000/svg" xmlns:xlink="http://www.w3.org/1999/xlink">
<g id="graph0" class="graph" transform="scale(1 1) rotate(0) translate(4 220)">
<title>wrp.EntityUnkId0E</title>
<polygon fill="white" stroke="transparent" points="-4,4 -4,-220 1082.09,-220 1082.09,4 -4,4"/>
<!-- wrp.EntityUnkId0E -->
<g id="node1" class="node">
<title>wrp.EntityUnkId0E</title>
<ellipse fill="red" stroke="black" cx="481.34" cy="-198" rx="101.28" ry="18"/>
<text text-anchor="middle" x="481.34" y="-194.3" font-family="Times,serif" font-size="14.00">wrp.EntityUnkId0E</text>
</g>
<!-- ClearImage -->
<g id="node2" class="node">
<title>ClearImage</title>
<g id="a_node2"><a xlink:href="ClearImage.svg" xlink:title="ClearImage">
<ellipse fill="lightblue" stroke="black" cx="64.34" cy="-18" rx="64.19" ry="18"/>
<text text-anchor="middle" x="64.34" y="-14.3" font-family="Times,serif" font-size="14.00">ClearImage</text>
</a>
</g>
</g>
<!-- wrp.EntityUnkId0E&#45;&gt;ClearImage -->
<g id="edge1" class="edge">
<title>wrp.EntityUnkId0E&#45;&gt;ClearImage</title>
<path fill="none" stroke="black" d="M444.34,-181.2C367.24,-148.29 189.78,-72.54 107.58,-37.46"/>
<polygon fill="black" stroke="black" points="108.61,-34.09 98.04,-33.38 105.87,-40.53 108.61,-34.09"/>
<text text-anchor="middle" x="93.04" y="-37.18" font-family="Times,serif" font-size="14.00">1</text>
</g>
<!-- LoadTPage -->
<g id="node3" class="node">
<title>LoadTPage</title>
<g id="a_node3"><a xlink:href="LoadTPage.svg" xlink:title="LoadTPage">
<ellipse fill="lightblue" stroke="black" cx="208.34" cy="-18" rx="61.99" ry="18"/>
<text text-anchor="middle" x="208.34" y="-14.3" font-family="Times,serif" font-size="14.00">LoadTPage</text>
</a>
</g>
</g>
<!-- wrp.EntityUnkId0E&#45;&gt;LoadTPage -->
<g id="edge2" class="edge">
<title>wrp.EntityUnkId0E&#45;&gt;LoadTPage</title>
<path fill="none" stroke="black" d="M455.66,-180.25C405.87,-147.79 296.28,-76.34 241.25,-40.45"/>
<polygon fill="black" stroke="black" points="242.87,-37.33 232.58,-34.8 239.05,-43.2 242.87,-37.33"/>
<text text-anchor="middle" x="227.58" y="-38.6" font-family="Times,serif" font-size="14.00">1</text>
</g>
<!-- dra.AllocPrimitives -->
<g id="node4" class="node">
<title>dra.AllocPrimitives</title>
<g id="a_node4"><a xlink:href="dra.AllocPrimitives.svg" xlink:title="dra.AllocPrimitives">
<ellipse fill="green" stroke="black" cx="387.34" cy="-18" rx="99.38" ry="18"/>
<text text-anchor="middle" x="387.34" y="-14.3" font-family="Times,serif" font-size="14.00">dra.AllocPrimitives</text>
</a>
</g>
</g>
<!-- wrp.EntityUnkId0E&#45;&gt;dra.AllocPrimitives -->
<g id="edge3" class="edge">
<title>wrp.EntityUnkId0E&#45;&gt;dra.AllocPrimitives</title>
<path fill="none" stroke="black" d="M472.33,-179.93C455.84,-148.7 420.7,-82.17 401.17,-45.18"/>
<polygon fill="black" stroke="black" points="404.09,-43.22 396.33,-36.02 397.9,-46.49 404.09,-43.22"/>
<text text-anchor="middle" x="391.33" y="-39.82" font-family="Times,serif" font-size="14.00">1</text>
</g>
<!-- wrp.BlitChar -->
<g id="node5" class="node">
<title>wrp.BlitChar</title>
<g id="a_node5"><a xlink:href="wrp.BlitChar.svg" xlink:title="wrp.BlitChar">
<ellipse fill="green" stroke="black" cx="575.34" cy="-18" rx="70.69" ry="18"/>
<text text-anchor="middle" x="575.34" y="-14.3" font-family="Times,serif" font-size="14.00">wrp.BlitChar</text>
</a>
</g>
</g>
<!-- wrp.EntityUnkId0E&#45;&gt;wrp.BlitChar -->
<g id="edge4" class="edge">
<title>wrp.EntityUnkId0E&#45;&gt;wrp.BlitChar</title>
<path fill="none" stroke="black" d="M490.36,-179.93C506.85,-148.7 541.99,-82.17 561.52,-45.18"/>
<polygon fill="black" stroke="black" points="564.78,-46.49 566.36,-36.02 558.59,-43.22 564.78,-46.49"/>
<text text-anchor="middle" x="561.36" y="-39.82" font-family="Times,serif" font-size="14.00">1</text>
</g>
<!-- wrp.DestroyEntity -->
<g id="node6" class="node">
<title>wrp.DestroyEntity</title>
<g id="a_node6"><a xlink:href="wrp.DestroyEntity.svg" xlink:title="wrp.DestroyEntity">
<ellipse fill="green" stroke="black" cx="761.34" cy="-18" rx="96.68" ry="18"/>
<text text-anchor="middle" x="761.34" y="-14.3" font-family="Times,serif" font-size="14.00">wrp.DestroyEntity</text>
</a>
</g>
</g>
<!-- wrp.EntityUnkId0E&#45;&gt;wrp.DestroyEntity -->
<g id="edge5" class="edge">
<title>wrp.EntityUnkId0E&#45;&gt;wrp.DestroyEntity</title>
<path fill="none" stroke="black" d="M507.18,-180.57C557.82,-148.39 670.09,-77.01 726.94,-40.87"/>
<polygon fill="black" stroke="black" points="729.01,-43.71 735.57,-35.39 725.25,-37.8 729.01,-43.71"/>
<text text-anchor="middle" x="730.57" y="-39.19" font-family="Times,serif" font-size="14.00">1</text>
</g>
<!-- wrp.InitializeEntity -->
<g id="node7" class="node">
<title>wrp.InitializeEntity</title>
<g id="a_node7"><a xlink:href="wrp.InitializeEntity.svg" xlink:title="wrp.InitializeEntity">
<ellipse fill="green" stroke="black" cx="977.34" cy="-18" rx="100.98" ry="18"/>
<text text-anchor="middle" x="977.34" y="-14.3" font-family="Times,serif" font-size="14.00">wrp.InitializeEntity</text>
</a>
</g>
</g>
<!-- wrp.EntityUnkId0E&#45;&gt;wrp.InitializeEntity -->
<g id="edge6" class="edge">
<title>wrp.EntityUnkId0E&#45;&gt;wrp.InitializeEntity</title>
<path fill="none" stroke="black" d="M524.06,-181.67C614.8,-149.11 826.49,-73.14 925.09,-37.75"/>
<polygon fill="black" stroke="black" points="926.32,-41.03 934.55,-34.36 923.96,-34.44 926.32,-41.03"/>
<text text-anchor="middle" x="929.55" y="-38.16" font-family="Times,serif" font-size="14.00">1</text>
</g>
</g>
</svg>
