<?xml version="1.0" encoding="UTF-8" standalone="no"?>
<!DOCTYPE svg PUBLIC "-//W3C//DTD SVG 1.1//EN"
 "http://www.w3.org/Graphics/SVG/1.1/DTD/svg11.dtd">
<!-- Generated by graphviz version 2.43.0 (0)
 -->
<!-- Title: wrp.func_8018A170 Pages: 1 -->
<svg width="622pt" height="404pt"
 viewBox="0.00 0.00 621.67 404.00" xmlns="http://www.w3.org/2000/svg" xmlns:xlink="http://www.w3.org/1999/xlink">
<g id="graph0" class="graph" transform="scale(1 1) rotate(0) translate(4 400)">
<title>wrp.func_8018A170</title>
<polygon fill="white" stroke="transparent" points="-4,4 -4,-400 617.67,-400 617.67,4 -4,4"/>
<!-- wrp.func_8018A170 -->
<g id="node1" class="node">
<title>wrp.func_8018A170</title>
<ellipse fill="green" stroke="black" cx="263.29" cy="-198" rx="103.18" ry="18"/>
<text text-anchor="middle" x="263.29" y="-194.3" font-family="Times,serif" font-size="14.00">wrp.func_8018A170</text>
</g>
<!-- wrp.func_8018A0CC -->
<g id="node2" class="node">
<title>wrp.func_8018A0CC</title>
<g id="a_node2"><a xlink:href="wrp.func_8018A0CC.svg" xlink:title="wrp.func_8018A0CC">
<ellipse fill="green" stroke="black" cx="105.29" cy="-18" rx="105.08" ry="18"/>
<text text-anchor="middle" x="105.29" y="-14.3" font-family="Times,serif" font-size="14.00">wrp.func_8018A0CC</text>
</a>
</g>
</g>
<!-- wrp.func_8018A170&#45;&gt;wrp.func_8018A0CC -->
<g id="edge1" class="edge">
<title>wrp.func_8018A170&#45;&gt;wrp.func_8018A0CC</title>
<path fill="none" stroke="black" d="M248.14,-179.93C220.06,-148.3 159.85,-80.46 127.28,-43.78"/>
<polygon fill="black" stroke="black" points="129.65,-41.17 120.39,-36.02 124.42,-45.82 129.65,-41.17"/>
<text text-anchor="middle" x="115.39" y="-39.82" font-family="Times,serif" font-size="14.00">1</text>
</g>
<!-- wrp.CreateEntityWhenInVerticalRange -->
<g id="node3" class="node">
<title>wrp.CreateEntityWhenInVerticalRange</title>
<g id="a_node3"><a xlink:href="wrp.CreateEntityWhenInVerticalRange.svg" xlink:title="wrp.CreateEntityWhenInVerticalRange">
<ellipse fill="green" stroke="black" cx="421.29" cy="-18" rx="192.27" ry="18"/>
<text text-anchor="middle" x="421.29" y="-14.3" font-family="Times,serif" font-size="14.00">wrp.CreateEntityWhenInVerticalRange</text>
</a>
</g>
</g>
<!-- wrp.func_8018A170&#45;&gt;wrp.CreateEntityWhenInVerticalRange -->
<g id="edge2" class="edge">
<title>wrp.func_8018A170&#45;&gt;wrp.CreateEntityWhenInVerticalRange</title>
<path fill="none" stroke="black" d="M278.44,-179.93C306.52,-148.3 366.73,-80.46 399.3,-43.78"/>
<polygon fill="black" stroke="black" points="402.17,-45.82 406.19,-36.02 396.93,-41.17 402.17,-45.82"/>
<text text-anchor="middle" x="401.19" y="-39.82" font-family="Times,serif" font-size="14.00">1</text>
</g>
<!-- wrp.InitRoomEntities -->
<g id="node4" class="node">
<title>wrp.InitRoomEntities</title>
<g id="a_node4"><a xlink:href="wrp.InitRoomEntities.svg" xlink:title="wrp.InitRoomEntities">
<ellipse fill="green" stroke="black" cx="147.29" cy="-378" rx="110.48" ry="18"/>
<text text-anchor="middle" x="147.29" y="-374.3" font-family="Times,serif" font-size="14.00">wrp.InitRoomEntities</text>
</a>
</g>
</g>
<!-- wrp.InitRoomEntities&#45;&gt;wrp.func_8018A170 -->
<g id="edge3" class="edge">
<title>wrp.InitRoomEntities&#45;&gt;wrp.func_8018A170</title>
<path fill="none" stroke="black" d="M158.41,-359.93C178.85,-328.57 222.49,-261.6 246.54,-224.71"/>
<polygon fill="black" stroke="black" points="249.67,-226.3 252.2,-216.02 243.81,-222.48 249.67,-226.3"/>
<text text-anchor="middle" x="153.41" y="-348.73" font-family="Times,serif" font-size="14.00">1</text>
</g>
<!-- wrp.func_8018A7AC -->
<g id="node5" class="node">
<title>wrp.func_8018A7AC</title>
<g id="a_node5"><a xlink:href="wrp.func_8018A7AC.svg" xlink:title="wrp.func_8018A7AC">
<ellipse fill="green" stroke="black" cx="380.29" cy="-378" rx="104.78" ry="18"/>
<text text-anchor="middle" x="380.29" y="-374.3" font-family="Times,serif" font-size="14.00">wrp.func_8018A7AC</text>
</a>
</g>
</g>
<!-- wrp.func_8018A7AC&#45;&gt;wrp.func_8018A170 -->
<g id="edge4" class="edge">
<title>wrp.func_8018A7AC&#45;&gt;wrp.func_8018A170</title>
<path fill="none" stroke="black" d="M369.07,-359.93C348.46,-328.57 304.44,-261.6 280.19,-224.71"/>
<polygon fill="black" stroke="black" points="282.89,-222.45 274.48,-216.02 277.04,-226.29 282.89,-222.45"/>
<text text-anchor="middle" x="364.07" y="-348.73" font-family="Times,serif" font-size="14.00">1</text>
</g>
</g>
</svg>
