<?xml version="1.0" encoding="UTF-8" standalone="no"?>
<!DOCTYPE svg PUBLIC "-//W3C//DTD SVG 1.1//EN"
 "http://www.w3.org/Graphics/SVG/1.1/DTD/svg11.dtd">
<!-- Generated by graphviz version 2.43.0 (0)
 -->
<!-- Title: wrp.func_801916C4 Pages: 1 -->
<svg width="512pt" height="404pt"
 viewBox="0.00 0.00 512.08 404.00" xmlns="http://www.w3.org/2000/svg" xmlns:xlink="http://www.w3.org/1999/xlink">
<g id="graph0" class="graph" transform="scale(1 1) rotate(0) translate(4 400)">
<title>wrp.func_801916C4</title>
<polygon fill="white" stroke="transparent" points="-4,4 -4,-400 508.08,-400 508.08,4 -4,4"/>
<!-- wrp.func_801916C4 -->
<g id="node1" class="node">
<title>wrp.func_801916C4</title>
<ellipse fill="green" stroke="black" cx="234.64" cy="-198" rx="103.98" ry="18"/>
<text text-anchor="middle" x="234.64" y="-194.3" font-family="Times,serif" font-size="14.00">wrp.func_801916C4</text>
</g>
<!-- dra.func_80134714 -->
<g id="node2" class="node">
<title>dra.func_80134714</title>
<g id="a_node2"><a xlink:href="dra.func_80134714.svg" xlink:title="dra.func_80134714">
<ellipse fill="green" stroke="black" cx="234.64" cy="-18" rx="100.98" ry="18"/>
<text text-anchor="middle" x="234.64" y="-14.3" font-family="Times,serif" font-size="14.00">dra.func_80134714</text>
</a>
</g>
</g>
<!-- wrp.func_801916C4&#45;&gt;dra.func_80134714 -->
<g id="edge1" class="edge">
<title>wrp.func_801916C4&#45;&gt;dra.func_80134714</title>
<path fill="none" stroke="black" d="M234.64,-179.93C234.64,-148.97 234.64,-83.3 234.64,-46.13"/>
<polygon fill="black" stroke="black" points="238.14,-46.02 234.64,-36.02 231.14,-46.02 238.14,-46.02"/>
<text text-anchor="middle" x="229.64" y="-39.82" font-family="Times,serif" font-size="14.00">1</text>
</g>
<!-- wrp.func_8018C27C -->
<g id="node3" class="node">
<title>wrp.func_8018C27C</title>
<g id="a_node3"><a xlink:href="wrp.func_8018C27C.svg" xlink:title="wrp.func_8018C27C">
<ellipse fill="green" stroke="black" cx="104.64" cy="-378" rx="104.78" ry="18"/>
<text text-anchor="middle" x="104.64" y="-374.3" font-family="Times,serif" font-size="14.00">wrp.func_8018C27C</text>
</a>
</g>
</g>
<!-- wrp.func_8018C27C&#45;&gt;wrp.func_801916C4 -->
<g id="edge2" class="edge">
<title>wrp.func_8018C27C&#45;&gt;wrp.func_801916C4</title>
<path fill="none" stroke="black" d="M117.11,-359.93C140.11,-328.43 189.34,-261.03 216.21,-224.24"/>
<polygon fill="black" stroke="black" points="219.14,-226.16 222.21,-216.02 213.49,-222.03 219.14,-226.16"/>
<text text-anchor="middle" x="112.11" y="-348.73" font-family="Times,serif" font-size="14.00">1</text>
</g>
<!-- wrp.EntityWarpSmallRocks -->
<g id="node4" class="node">
<title>wrp.EntityWarpSmallRocks</title>
<g id="a_node4"><a xlink:href="wrp.EntityWarpSmallRocks.svg" xlink:title="wrp.EntityWarpSmallRocks">
<ellipse fill="red" stroke="black" cx="365.64" cy="-378" rx="138.38" ry="18"/>
<text text-anchor="middle" x="365.64" y="-374.3" font-family="Times,serif" font-size="14.00">wrp.EntityWarpSmallRocks</text>
</a>
</g>
</g>
<!-- wrp.EntityWarpSmallRocks&#45;&gt;wrp.func_801916C4 -->
<g id="edge3" class="edge">
<title>wrp.EntityWarpSmallRocks&#45;&gt;wrp.func_801916C4</title>
<path fill="none" stroke="black" d="M353.08,-359.93C329.9,-328.43 280.29,-261.03 253.22,-224.24"/>
<polygon fill="black" stroke="black" points="255.91,-222 247.16,-216.02 250.27,-226.14 255.91,-222"/>
<text text-anchor="middle" x="348.08" y="-348.73" font-family="Times,serif" font-size="14.00">1</text>
</g>
</g>
</svg>
