<?xml version="1.0" encoding="UTF-8" standalone="no"?>
<!DOCTYPE svg PUBLIC "-//W3C//DTD SVG 1.1//EN"
 "http://www.w3.org/Graphics/SVG/1.1/DTD/svg11.dtd">
<!-- Generated by graphviz version 2.43.0 (0)
 -->
<!-- Title: wrp.func_8018CB34 Pages: 1 -->
<svg width="794pt" height="218pt"
 viewBox="0.00 0.00 793.78 218.00" xmlns="http://www.w3.org/2000/svg" xmlns:xlink="http://www.w3.org/1999/xlink">
<g id="graph0" class="graph" transform="scale(1 1) rotate(0) translate(4 214)">
<title>wrp.func_8018CB34</title>
<polygon fill="white" stroke="transparent" points="-4,4 -4,-214 789.78,-214 789.78,4 -4,4"/>
<!-- wrp.func_8018CB34 -->
<g id="node1" class="node">
<title>wrp.func_8018CB34</title>
<ellipse fill="green" stroke="black" cx="388.49" cy="-105" rx="104.78" ry="18"/>
<text text-anchor="middle" x="388.49" y="-101.3" font-family="Times,serif" font-size="14.00">wrp.func_8018CB34</text>
</g>
<!-- dra.CheckCollision -->
<g id="node2" class="node">
<title>dra.CheckCollision</title>
<g id="a_node2"><a xlink:href="dra.CheckCollision.svg" xlink:title="dra.CheckCollision">
<ellipse fill="green" stroke="black" cx="97.49" cy="-18" rx="97.48" ry="18"/>
<text text-anchor="middle" x="97.49" y="-14.3" font-family="Times,serif" font-size="14.00">dra.CheckCollision</text>
</a>
</g>
</g>
<!-- wrp.func_8018CB34&#45;&gt;dra.CheckCollision -->
<g id="edge1" class="edge">
<title>wrp.func_8018CB34&#45;&gt;dra.CheckCollision</title>
<path fill="none" stroke="black" d="M337.8,-89.19C287.37,-74.46 210.01,-51.87 156.76,-36.31"/>
<polygon fill="black" stroke="black" points="157.69,-32.94 147.11,-33.49 155.73,-39.66 157.69,-32.94"/>
<text text-anchor="middle" x="265.49" y="-57.8" font-family="Times,serif" font-size="14.00">2</text>
</g>
<!-- wrp.MoveEntity -->
<g id="node3" class="node">
<title>wrp.MoveEntity</title>
<g id="a_node3"><a xlink:href="wrp.MoveEntity.svg" xlink:title="wrp.MoveEntity">
<ellipse fill="green" stroke="black" cx="298.49" cy="-18" rx="85.59" ry="18"/>
<text text-anchor="middle" x="298.49" y="-14.3" font-family="Times,serif" font-size="14.00">wrp.MoveEntity</text>
</a>
</g>
</g>
<!-- wrp.func_8018CB34&#45;&gt;wrp.MoveEntity -->
<g id="edge2" class="edge">
<title>wrp.func_8018CB34&#45;&gt;wrp.MoveEntity</title>
<path fill="none" stroke="black" d="M370.71,-87.21C357.27,-74.52 338.65,-56.93 323.68,-42.79"/>
<polygon fill="black" stroke="black" points="325.91,-40.08 316.24,-35.76 321.1,-45.17 325.91,-40.08"/>
<text text-anchor="middle" x="354.49" y="-57.8" font-family="Times,serif" font-size="14.00">2</text>
</g>
<!-- wrp.FallEntity -->
<g id="node4" class="node">
<title>wrp.FallEntity</title>
<g id="a_node4"><a xlink:href="wrp.FallEntity.svg" xlink:title="wrp.FallEntity">
<ellipse fill="green" stroke="black" cx="479.49" cy="-18" rx="77.19" ry="18"/>
<text text-anchor="middle" x="479.49" y="-14.3" font-family="Times,serif" font-size="14.00">wrp.FallEntity</text>
</a>
</g>
</g>
<!-- wrp.func_8018CB34&#45;&gt;wrp.FallEntity -->
<g id="edge3" class="edge">
<title>wrp.func_8018CB34&#45;&gt;wrp.FallEntity</title>
<path fill="none" stroke="black" d="M406.47,-87.21C420.06,-74.52 438.88,-56.93 454.02,-42.79"/>
<polygon fill="black" stroke="black" points="456.63,-45.14 461.55,-35.76 451.85,-40.03 456.63,-45.14"/>
<text text-anchor="middle" x="444.49" y="-57.8" font-family="Times,serif" font-size="14.00">1</text>
</g>
<!-- wrp.func_8018CAB0 -->
<g id="node5" class="node">
<title>wrp.func_8018CAB0</title>
<g id="a_node5"><a xlink:href="wrp.func_8018CAB0.svg" xlink:title="wrp.func_8018CAB0">
<ellipse fill="green" stroke="black" cx="680.49" cy="-18" rx="105.08" ry="18"/>
<text text-anchor="middle" x="680.49" y="-14.3" font-family="Times,serif" font-size="14.00">wrp.func_8018CAB0</text>
</a>
</g>
</g>
<!-- wrp.func_8018CB34&#45;&gt;wrp.func_8018CAB0 -->
<g id="edge4" class="edge">
<title>wrp.func_8018CB34&#45;&gt;wrp.func_8018CAB0</title>
<path fill="none" stroke="black" d="M439.35,-89.19C489.65,-74.55 566.64,-52.14 620.04,-36.6"/>
<polygon fill="black" stroke="black" points="621.1,-39.93 629.72,-33.78 619.14,-33.21 621.1,-39.93"/>
<text text-anchor="middle" x="556.49" y="-57.8" font-family="Times,serif" font-size="14.00">1</text>
</g>
<!-- wrp.EntityEquipItemDrop -->
<g id="node6" class="node">
<title>wrp.EntityEquipItemDrop</title>
<g id="a_node6"><a xlink:href="wrp.EntityEquipItemDrop.svg" xlink:title="wrp.EntityEquipItemDrop">
<ellipse fill="green" stroke="black" cx="260.49" cy="-192" rx="131.88" ry="18"/>
<text text-anchor="middle" x="260.49" y="-188.3" font-family="Times,serif" font-size="14.00">wrp.EntityEquipItemDrop</text>
</a>
</g>
</g>
<!-- wrp.EntityEquipItemDrop&#45;&gt;wrp.func_8018CB34 -->
<g id="edge5" class="edge">
<title>wrp.EntityEquipItemDrop&#45;&gt;wrp.func_8018CB34</title>
<path fill="none" stroke="black" d="M285.78,-174.21C305.5,-161.11 333.08,-142.8 354.7,-128.44"/>
<polygon fill="black" stroke="black" points="356.86,-131.21 363.26,-122.76 352.99,-125.37 356.86,-131.21"/>
<text text-anchor="middle" x="337.49" y="-144.8" font-family="Times,serif" font-size="14.00">2</text>
</g>
<!-- wrp.EntityPrizeDrop -->
<g id="node7" class="node">
<title>wrp.EntityPrizeDrop</title>
<g id="a_node7"><a xlink:href="wrp.EntityPrizeDrop.svg" xlink:title="wrp.EntityPrizeDrop">
<ellipse fill="green" stroke="black" cx="517.49" cy="-192" rx="107.48" ry="18"/>
<text text-anchor="middle" x="517.49" y="-188.3" font-family="Times,serif" font-size="14.00">wrp.EntityPrizeDrop</text>
</a>
</g>
</g>
<!-- wrp.EntityPrizeDrop&#45;&gt;wrp.func_8018CB34 -->
<g id="edge6" class="edge">
<title>wrp.EntityPrizeDrop&#45;&gt;wrp.func_8018CB34</title>
<path fill="none" stroke="black" d="M492.31,-174.41C472.25,-161.19 443.97,-142.56 421.99,-128.07"/>
<polygon fill="black" stroke="black" points="423.88,-125.13 413.61,-122.55 420.03,-130.97 423.88,-125.13"/>
<text text-anchor="middle" x="466.49" y="-144.8" font-family="Times,serif" font-size="14.00">3</text>
</g>
</g>
</svg>
