<?xml version="1.0" encoding="UTF-8" standalone="no"?>
<!DOCTYPE svg PUBLIC "-//W3C//DTD SVG 1.1//EN"
 "http://www.w3.org/Graphics/SVG/1.1/DTD/svg11.dtd">
<!-- Generated by graphviz version 2.43.0 (0)
 -->
<!-- Title: wrp.TestCollisions Pages: 1 -->
<svg width="2756pt" height="224pt"
 viewBox="0.00 0.00 2755.73 224.00" xmlns="http://www.w3.org/2000/svg" xmlns:xlink="http://www.w3.org/1999/xlink">
<g id="graph0" class="graph" transform="scale(1 1) rotate(0) translate(4 220)">
<title>wrp.TestCollisions</title>
<polygon fill="white" stroke="transparent" points="-4,4 -4,-220 2751.73,-220 2751.73,4 -4,4"/>
<!-- wrp.TestCollisions -->
<g id="node1" class="node">
<title>wrp.TestCollisions</title>
<ellipse fill="red" stroke="black" cx="1252.39" cy="-198" rx="96.38" ry="18"/>
<text text-anchor="middle" x="1252.39" y="-194.3" font-family="Times,serif" font-size="14.00">wrp.TestCollisions</text>
</g>
<!-- dra.DealDamage -->
<g id="node2" class="node">
<title>dra.DealDamage</title>
<g id="a_node2"><a xlink:href="dra.DealDamage.svg" xlink:title="dra.DealDamage">
<ellipse fill="green" stroke="black" cx="88.39" cy="-18" rx="88.28" ry="18"/>
<text text-anchor="middle" x="88.39" y="-14.3" font-family="Times,serif" font-size="14.00">dra.DealDamage</text>
</a>
</g>
</g>
<!-- wrp.TestCollisions&#45;&gt;dra.DealDamage -->
<g id="edge1" class="edge">
<title>wrp.TestCollisions&#45;&gt;dra.DealDamage</title>
<path fill="none" stroke="black" d="M1178.24,-186.43C1004.52,-161.53 557.73,-96.71 185.39,-36 178,-34.79 170.3,-33.5 162.61,-32.19"/>
<polygon fill="black" stroke="black" points="162.98,-28.71 152.53,-30.46 161.8,-35.6 162.98,-28.71"/>
<text text-anchor="middle" x="147.53" y="-34.26" font-family="Times,serif" font-size="14.00">1</text>
</g>
<!-- dra.FreePrimitives -->
<g id="node3" class="node">
<title>dra.FreePrimitives</title>
<g id="a_node3"><a xlink:href="dra.FreePrimitives.svg" xlink:title="dra.FreePrimitives">
<ellipse fill="green" stroke="black" cx="293.39" cy="-18" rx="98.58" ry="18"/>
<text text-anchor="middle" x="293.39" y="-14.3" font-family="Times,serif" font-size="14.00">dra.FreePrimitives</text>
</a>
</g>
</g>
<!-- wrp.TestCollisions&#45;&gt;dra.FreePrimitives -->
<g id="edge2" class="edge">
<title>wrp.TestCollisions&#45;&gt;dra.FreePrimitives</title>
<path fill="none" stroke="black" d="M1186.48,-184.77C1014.64,-152.87 553.6,-67.3 370.19,-33.25"/>
<polygon fill="black" stroke="black" points="370.56,-29.76 360.09,-31.38 369.28,-36.65 370.56,-29.76"/>
<text text-anchor="middle" x="355.09" y="-35.18" font-family="Times,serif" font-size="14.00">1</text>
</g>
<!-- dra.PlaySfx -->
<g id="node4" class="node">
<title>dra.PlaySfx</title>
<g id="a_node4"><a xlink:href="dra.PlaySfx.svg" xlink:title="dra.PlaySfx">
<ellipse fill="green" stroke="black" cx="474.39" cy="-18" rx="64.19" ry="18"/>
<text text-anchor="middle" x="474.39" y="-14.3" font-family="Times,serif" font-size="14.00">dra.PlaySfx</text>
</a>
</g>
</g>
<!-- wrp.TestCollisions&#45;&gt;dra.PlaySfx -->
<g id="edge3" class="edge">
<title>wrp.TestCollisions&#45;&gt;dra.PlaySfx</title>
<path fill="none" stroke="black" d="M1193.42,-183.62C1072.32,-156.13 786.86,-91.23 547.39,-36 542.45,-34.86 537.31,-33.67 532.17,-32.48"/>
<polygon fill="black" stroke="black" points="532.82,-29.04 522.29,-30.19 531.24,-35.86 532.82,-29.04"/>
<text text-anchor="middle" x="517.29" y="-33.99" font-family="Times,serif" font-size="14.00">4</text>
</g>
<!-- dra.func_800FE044 -->
<g id="node5" class="node">
<title>dra.func_800FE044</title>
<g id="a_node5"><a xlink:href="dra.func_800FE044.svg" xlink:title="dra.func_800FE044">
<ellipse fill="green" stroke="black" cx="658.39" cy="-18" rx="102.08" ry="18"/>
<text text-anchor="middle" x="658.39" y="-14.3" font-family="Times,serif" font-size="14.00">dra.func_800FE044</text>
</a>
</g>
</g>
<!-- wrp.TestCollisions&#45;&gt;dra.func_800FE044 -->
<g id="edge4" class="edge">
<title>wrp.TestCollisions&#45;&gt;dra.func_800FE044</title>
<path fill="none" stroke="black" d="M1203.78,-182.43C1095.55,-150 835.02,-71.93 717.57,-36.73"/>
<polygon fill="black" stroke="black" points="718.26,-33.29 707.67,-33.77 716.25,-39.99 718.26,-33.29"/>
<text text-anchor="middle" x="702.67" y="-37.57" font-family="Times,serif" font-size="14.00">1</text>
</g>
<!-- dra.func_800FF460 -->
<g id="node6" class="node">
<title>dra.func_800FF460</title>
<g id="a_node6"><a xlink:href="dra.func_800FF460.svg" xlink:title="dra.func_800FF460">
<ellipse fill="green" stroke="black" cx="879.39" cy="-18" rx="101.28" ry="18"/>
<text text-anchor="middle" x="879.39" y="-14.3" font-family="Times,serif" font-size="14.00">dra.func_800FF460</text>
</a>
</g>
</g>
<!-- wrp.TestCollisions&#45;&gt;dra.func_800FF460 -->
<g id="edge5" class="edge">
<title>wrp.TestCollisions&#45;&gt;dra.func_800FF460</title>
<path fill="none" stroke="black" d="M1218.96,-181.05C1151.14,-148.68 997.46,-75.34 922.34,-39.5"/>
<polygon fill="black" stroke="black" points="923.68,-36.26 913.15,-35.11 920.67,-42.58 923.68,-36.26"/>
<text text-anchor="middle" x="908.15" y="-38.91" font-family="Times,serif" font-size="14.00">1</text>
</g>
<!-- dra.func_800FF494 -->
<g id="node7" class="node">
<title>dra.func_800FF494</title>
<g id="a_node7"><a xlink:href="dra.func_800FF494.svg" xlink:title="dra.func_800FF494">
<ellipse fill="green" stroke="black" cx="1100.39" cy="-18" rx="101.28" ry="18"/>
<text text-anchor="middle" x="1100.39" y="-14.3" font-family="Times,serif" font-size="14.00">dra.func_800FF494</text>
</a>
</g>
</g>
<!-- wrp.TestCollisions&#45;&gt;dra.func_800FF494 -->
<g id="edge6" class="edge">
<title>wrp.TestCollisions&#45;&gt;dra.func_800FF494</title>
<path fill="none" stroke="black" d="M1237.82,-179.93C1210.81,-148.3 1152.88,-80.46 1121.55,-43.78"/>
<polygon fill="black" stroke="black" points="1124.08,-41.35 1114.92,-36.02 1118.75,-45.89 1124.08,-41.35"/>
<text text-anchor="middle" x="1109.92" y="-39.82" font-family="Times,serif" font-size="14.00">1</text>
</g>
<!-- rand -->
<g id="node8" class="node">
<title>rand</title>
<g id="a_node8"><a xlink:href="rand.svg" xlink:title="rand">
<ellipse fill="lightblue" stroke="black" cx="1252.39" cy="-18" rx="32.49" ry="18"/>
<text text-anchor="middle" x="1252.39" y="-14.3" font-family="Times,serif" font-size="14.00">rand</text>
</a>
</g>
</g>
<!-- wrp.TestCollisions&#45;&gt;rand -->
<g id="edge7" class="edge">
<title>wrp.TestCollisions&#45;&gt;rand</title>
<path fill="none" stroke="black" d="M1252.39,-179.93C1252.39,-148.97 1252.39,-83.3 1252.39,-46.13"/>
<polygon fill="black" stroke="black" points="1255.89,-46.02 1252.39,-36.02 1248.89,-46.02 1255.89,-46.02"/>
<text text-anchor="middle" x="1247.39" y="-39.82" font-family="Times,serif" font-size="14.00">2</text>
</g>
<!-- wrp.AllocEntity -->
<g id="node9" class="node">
<title>wrp.AllocEntity</title>
<g id="a_node9"><a xlink:href="wrp.AllocEntity.svg" xlink:title="wrp.AllocEntity">
<ellipse fill="green" stroke="black" cx="1386.39" cy="-18" rx="83.39" ry="18"/>
<text text-anchor="middle" x="1386.39" y="-14.3" font-family="Times,serif" font-size="14.00">wrp.AllocEntity</text>
</a>
</g>
</g>
<!-- wrp.TestCollisions&#45;&gt;wrp.AllocEntity -->
<g id="edge8" class="edge">
<title>wrp.TestCollisions&#45;&gt;wrp.AllocEntity</title>
<path fill="none" stroke="black" d="M1265.24,-179.93C1288.95,-148.43 1339.69,-81.03 1367.39,-44.24"/>
<polygon fill="black" stroke="black" points="1370.36,-46.11 1373.58,-36.02 1364.77,-41.9 1370.36,-46.11"/>
<text text-anchor="middle" x="1368.58" y="-39.82" font-family="Times,serif" font-size="14.00">4</text>
</g>
<!-- wrp.CreateEntityFromEntity -->
<g id="node10" class="node">
<title>wrp.CreateEntityFromEntity</title>
<g id="a_node10"><a xlink:href="wrp.CreateEntityFromEntity.svg" xlink:title="wrp.CreateEntityFromEntity">
<ellipse fill="green" stroke="black" cx="1633.39" cy="-18" rx="145.67" ry="18"/>
<text text-anchor="middle" x="1633.39" y="-14.3" font-family="Times,serif" font-size="14.00">wrp.CreateEntityFromEntity</text>
</a>
</g>
</g>
<!-- wrp.TestCollisions&#45;&gt;wrp.CreateEntityFromEntity -->
<g id="edge9" class="edge">
<title>wrp.TestCollisions&#45;&gt;wrp.CreateEntityFromEntity</title>
<path fill="none" stroke="black" d="M1286.54,-181.05C1355.55,-148.8 1511.6,-75.9 1588.64,-39.91"/>
<polygon fill="black" stroke="black" points="1590.5,-42.9 1598.08,-35.5 1587.54,-36.56 1590.5,-42.9"/>
<text text-anchor="middle" x="1593.08" y="-39.3" font-family="Times,serif" font-size="14.00">3</text>
</g>
<!-- wrp.DestroyEntity -->
<g id="node11" class="node">
<title>wrp.DestroyEntity</title>
<g id="a_node11"><a xlink:href="wrp.DestroyEntity.svg" xlink:title="wrp.DestroyEntity">
<ellipse fill="green" stroke="black" cx="1893.39" cy="-18" rx="96.68" ry="18"/>
<text text-anchor="middle" x="1893.39" y="-14.3" font-family="Times,serif" font-size="14.00">wrp.DestroyEntity</text>
</a>
</g>
</g>
<!-- wrp.TestCollisions&#45;&gt;wrp.DestroyEntity -->
<g id="edge10" class="edge">
<title>wrp.TestCollisions&#45;&gt;wrp.DestroyEntity</title>
<path fill="none" stroke="black" d="M1303.76,-182.73C1420.62,-150.28 1705.94,-71.06 1831.9,-36.08"/>
<polygon fill="black" stroke="black" points="1833.08,-39.38 1841.78,-33.33 1831.2,-32.64 1833.08,-39.38"/>
<text text-anchor="middle" x="1836.78" y="-37.13" font-family="Times,serif" font-size="14.00">1</text>
</g>
<!-- wrp.PreventEntityFromRespawning -->
<g id="node12" class="node">
<title>wrp.PreventEntityFromRespawning</title>
<g id="a_node12"><a xlink:href="wrp.PreventEntityFromRespawning.svg" xlink:title="wrp.PreventEntityFromRespawning">
<ellipse fill="green" stroke="black" cx="2187.39" cy="-18" rx="178.97" ry="18"/>
<text text-anchor="middle" x="2187.39" y="-14.3" font-family="Times,serif" font-size="14.00">wrp.PreventEntityFromRespawning</text>
</a>
</g>
</g>
<!-- wrp.TestCollisions&#45;&gt;wrp.PreventEntityFromRespawning -->
<g id="edge11" class="edge">
<title>wrp.TestCollisions&#45;&gt;wrp.PreventEntityFromRespawning</title>
<path fill="none" stroke="black" d="M1317.4,-184.62C1481.08,-153.46 1910.47,-71.72 2097.82,-36.05"/>
<polygon fill="black" stroke="black" points="2098.74,-39.44 2107.91,-34.13 2097.43,-32.56 2098.74,-39.44"/>
<text text-anchor="middle" x="2102.91" y="-37.93" font-family="Times,serif" font-size="14.00">1</text>
</g>
<!-- wrp.Random -->
<g id="node13" class="node">
<title>wrp.Random</title>
<g id="a_node13"><a xlink:href="wrp.Random.svg" xlink:title="wrp.Random">
<ellipse fill="green" stroke="black" cx="2453.39" cy="-18" rx="69.59" ry="18"/>
<text text-anchor="middle" x="2453.39" y="-14.3" font-family="Times,serif" font-size="14.00">wrp.Random</text>
</a>
</g>
</g>
<!-- wrp.TestCollisions&#45;&gt;wrp.Random -->
<g id="edge12" class="edge">
<title>wrp.TestCollisions&#45;&gt;wrp.Random</title>
<path fill="none" stroke="black" d="M1331.33,-187.67C1515.11,-165.53 1985.55,-106.33 2375.39,-36 2381.16,-34.96 2387.15,-33.8 2393.13,-32.59"/>
<polygon fill="black" stroke="black" points="2394.07,-35.97 2403.15,-30.51 2392.65,-29.11 2394.07,-35.97"/>
<text text-anchor="middle" x="2398.15" y="-34.31" font-family="Times,serif" font-size="14.00">2</text>
</g>
<!-- wrp.func_80192F40 -->
<g id="node14" class="node">
<title>wrp.func_80192F40</title>
<g id="a_node14"><a xlink:href="wrp.func_80192F40.svg" xlink:title="wrp.func_80192F40">
<ellipse fill="red" stroke="black" cx="2644.39" cy="-18" rx="103.18" ry="18"/>
<text text-anchor="middle" x="2644.39" y="-14.3" font-family="Times,serif" font-size="14.00">wrp.func_80192F40</text>
</a>
</g>
</g>
<!-- wrp.TestCollisions&#45;&gt;wrp.func_80192F40 -->
<g id="edge13" class="edge">
<title>wrp.TestCollisions&#45;&gt;wrp.func_80192F40</title>
<path fill="none" stroke="black" d="M1331.51,-187.76C1532.39,-164.15 2078.44,-98.99 2532.39,-36 2541.33,-34.76 2550.67,-33.42 2559.97,-32.05"/>
<polygon fill="black" stroke="black" points="2560.65,-35.49 2570.03,-30.56 2559.62,-28.56 2560.65,-35.49"/>
<text text-anchor="middle" x="2565.03" y="-34.36" font-family="Times,serif" font-size="14.00">1</text>
</g>
</g>
</svg>
