<?xml version="1.0" encoding="UTF-8" standalone="no"?>
<!DOCTYPE svg PUBLIC "-//W3C//DTD SVG 1.1//EN"
 "http://www.w3.org/Graphics/SVG/1.1/DTD/svg11.dtd">
<!-- Generated by graphviz version 2.43.0 (0)
 -->
<!-- Title: wrp.DestroyEntity Pages: 1 -->
<svg width="8815pt" height="404pt"
 viewBox="0.00 0.00 8814.79 404.00" xmlns="http://www.w3.org/2000/svg" xmlns:xlink="http://www.w3.org/1999/xlink">
<g id="graph0" class="graph" transform="scale(1 1) rotate(0) translate(4 400)">
<title>wrp.DestroyEntity</title>
<polygon fill="white" stroke="transparent" points="-4,4 -4,-400 8810.79,-400 8810.79,4 -4,4"/>
<!-- wrp.DestroyEntity -->
<g id="node1" class="node">
<title>wrp.DestroyEntity</title>
<ellipse fill="green" stroke="black" cx="4211.64" cy="-198" rx="96.68" ry="18"/>
<text text-anchor="middle" x="4211.64" y="-194.3" font-family="Times,serif" font-size="14.00">wrp.DestroyEntity</text>
</g>
<!-- dra.FreePrimitives -->
<g id="node2" class="node">
<title>dra.FreePrimitives</title>
<g id="a_node2"><a xlink:href="dra.FreePrimitives.svg" xlink:title="dra.FreePrimitives">
<ellipse fill="green" stroke="black" cx="4211.64" cy="-18" rx="98.58" ry="18"/>
<text text-anchor="middle" x="4211.64" y="-14.3" font-family="Times,serif" font-size="14.00">dra.FreePrimitives</text>
</a>
</g>
</g>
<!-- wrp.DestroyEntity&#45;&gt;dra.FreePrimitives -->
<g id="edge1" class="edge">
<title>wrp.DestroyEntity&#45;&gt;dra.FreePrimitives</title>
<path fill="none" stroke="black" d="M4211.64,-179.93C4211.64,-148.97 4211.64,-83.3 4211.64,-46.13"/>
<polygon fill="black" stroke="black" points="4215.14,-46.02 4211.64,-36.02 4208.14,-46.02 4215.14,-46.02"/>
<text text-anchor="middle" x="4206.64" y="-39.82" font-family="Times,serif" font-size="14.00">1</text>
</g>
<!-- wrp.Update -->
<g id="node3" class="node">
<title>wrp.Update</title>
<g id="a_node3"><a xlink:href="wrp.Update.svg" xlink:title="wrp.Update">
<ellipse fill="green" stroke="black" cx="65.64" cy="-378" rx="65.79" ry="18"/>
<text text-anchor="middle" x="65.64" y="-374.3" font-family="Times,serif" font-size="14.00">wrp.Update</text>
</a>
</g>
</g>
<!-- wrp.Update&#45;&gt;wrp.DestroyEntity -->
<g id="edge2" class="edge">
<title>wrp.Update&#45;&gt;wrp.DestroyEntity</title>
<path fill="none" stroke="black" d="M111.81,-365.14C121.29,-363.1 131.25,-361.24 140.64,-360 940.19,-254.48 3545.53,-209.2 4105.16,-200.57"/>
<polygon fill="black" stroke="black" points="4105.29,-204.06 4115.24,-200.41 4105.18,-197.07 4105.29,-204.06"/>
<text text-anchor="middle" x="106.81" y="-353.94" font-family="Times,serif" font-size="14.00">1</text>
</g>
<!-- wrp.EntityWarpSmallRocks -->
<g id="node4" class="node">
<title>wrp.EntityWarpSmallRocks</title>
<g id="a_node4"><a xlink:href="wrp.EntityWarpSmallRocks.svg" xlink:title="wrp.EntityWarpSmallRocks">
<ellipse fill="red" stroke="black" cx="287.64" cy="-378" rx="138.38" ry="18"/>
<text text-anchor="middle" x="287.64" y="-374.3" font-family="Times,serif" font-size="14.00">wrp.EntityWarpSmallRocks</text>
</a>
</g>
</g>
<!-- wrp.EntityWarpSmallRocks&#45;&gt;wrp.DestroyEntity -->
<g id="edge3" class="edge">
<title>wrp.EntityWarpSmallRocks&#45;&gt;wrp.DestroyEntity</title>
<path fill="none" stroke="black" d="M383.23,-364.93C400.33,-363.06 418,-361.32 434.64,-360 1885.95,-245.3 3657.88,-208.49 4105.22,-200.71"/>
<polygon fill="black" stroke="black" points="4105.61,-204.2 4115.54,-200.53 4105.48,-197.21 4105.61,-204.2"/>
<text text-anchor="middle" x="378.23" y="-353.73" font-family="Times,serif" font-size="14.00">1</text>
</g>
<!-- wrp.func_80190494 -->
<g id="node5" class="node">
<title>wrp.func_80190494</title>
<g id="a_node5"><a xlink:href="wrp.func_80190494.svg" xlink:title="wrp.func_80190494">
<ellipse fill="green" stroke="black" cx="546.64" cy="-378" rx="102.88" ry="18"/>
<text text-anchor="middle" x="546.64" y="-374.3" font-family="Times,serif" font-size="14.00">wrp.func_80190494</text>
</a>
</g>
</g>
<!-- wrp.func_80190494&#45;&gt;wrp.DestroyEntity -->
<g id="edge4" class="edge">
<title>wrp.func_80190494&#45;&gt;wrp.DestroyEntity</title>
<path fill="none" stroke="black" d="M617.9,-365.03C631.4,-363.09 645.43,-361.3 658.64,-360 2014.54,-226.75 3672.55,-203.59 4104.65,-199.74"/>
<polygon fill="black" stroke="black" points="4104.96,-203.24 4114.93,-199.65 4104.9,-196.24 4104.96,-203.24"/>
<text text-anchor="middle" x="612.9" y="-353.83" font-family="Times,serif" font-size="14.00">1</text>
</g>
<!-- wrp.EntityEquipItemDrop -->
<g id="node6" class="node">
<title>wrp.EntityEquipItemDrop</title>
<g id="a_node6"><a xlink:href="wrp.EntityEquipItemDrop.svg" xlink:title="wrp.EntityEquipItemDrop">
<ellipse fill="green" stroke="black" cx="799.64" cy="-378" rx="131.88" ry="18"/>
<text text-anchor="middle" x="799.64" y="-374.3" font-family="Times,serif" font-size="14.00">wrp.EntityEquipItemDrop</text>
</a>
</g>
</g>
<!-- wrp.EntityEquipItemDrop&#45;&gt;wrp.DestroyEntity -->
<g id="edge5" class="edge">
<title>wrp.EntityEquipItemDrop&#45;&gt;wrp.DestroyEntity</title>
<path fill="none" stroke="black" d="M891.32,-364.99C907.72,-363.12 924.67,-361.35 940.64,-360 2183.35,-254.63 3697.95,-211.63 4106.13,-201.48"/>
<polygon fill="black" stroke="black" points="4106.24,-204.97 4116.15,-201.23 4106.07,-197.98 4106.24,-204.97"/>
<text text-anchor="middle" x="886.32" y="-353.79" font-family="Times,serif" font-size="14.00">2</text>
</g>
<!-- wrp.EntityUnkId0E -->
<g id="node7" class="node">
<title>wrp.EntityUnkId0E</title>
<g id="a_node7"><a xlink:href="wrp.EntityUnkId0E.svg" xlink:title="wrp.EntityUnkId0E">
<ellipse fill="red" stroke="black" cx="1050.64" cy="-378" rx="101.28" ry="18"/>
<text text-anchor="middle" x="1050.64" y="-374.3" font-family="Times,serif" font-size="14.00">wrp.EntityUnkId0E</text>
</a>
</g>
</g>
<!-- wrp.EntityUnkId0E&#45;&gt;wrp.DestroyEntity -->
<g id="edge6" class="edge">
<title>wrp.EntityUnkId0E&#45;&gt;wrp.DestroyEntity</title>
<path fill="none" stroke="black" d="M1121.22,-365.02C1134.3,-363.1 1147.86,-361.32 1160.64,-360 2310.21,-241.14 3713.03,-207.98 4105.31,-200.74"/>
<polygon fill="black" stroke="black" points="4105.57,-204.24 4115.51,-200.55 4105.45,-197.24 4105.57,-204.24"/>
<text text-anchor="middle" x="1116.22" y="-353.82" font-family="Times,serif" font-size="14.00">1</text>
</g>
<!-- wrp.func_80190614 -->
<g id="node8" class="node">
<title>wrp.func_80190614</title>
<g id="a_node8"><a xlink:href="wrp.func_80190614.svg" xlink:title="wrp.func_80190614">
<ellipse fill="green" stroke="black" cx="1272.64" cy="-378" rx="102.88" ry="18"/>
<text text-anchor="middle" x="1272.64" y="-374.3" font-family="Times,serif" font-size="14.00">wrp.func_80190614</text>
</a>
</g>
</g>
<!-- wrp.func_80190614&#45;&gt;wrp.DestroyEntity -->
<g id="edge7" class="edge">
<title>wrp.func_80190614&#45;&gt;wrp.DestroyEntity</title>
<path fill="none" stroke="black" d="M1344.51,-365.07C1357.83,-363.15 1371.64,-361.35 1384.64,-360 2443.09,-249.78 3732.9,-210.84 4105.97,-201.45"/>
<polygon fill="black" stroke="black" points="4106.3,-204.94 4116.21,-201.19 4106.12,-197.94 4106.3,-204.94"/>
<text text-anchor="middle" x="1339.51" y="-353.87" font-family="Times,serif" font-size="14.00">1</text>
</g>
<!-- wrp.EntityHeartDrop -->
<g id="node9" class="node">
<title>wrp.EntityHeartDrop</title>
<g id="a_node9"><a xlink:href="wrp.EntityHeartDrop.svg" xlink:title="wrp.EntityHeartDrop">
<ellipse fill="green" stroke="black" cx="1503.64" cy="-378" rx="110.48" ry="18"/>
<text text-anchor="middle" x="1503.64" y="-374.3" font-family="Times,serif" font-size="14.00">wrp.EntityHeartDrop</text>
</a>
</g>
</g>
<!-- wrp.EntityHeartDrop&#45;&gt;wrp.DestroyEntity -->
<g id="edge8" class="edge">
<title>wrp.EntityHeartDrop&#45;&gt;wrp.DestroyEntity</title>
<path fill="none" stroke="black" d="M1580.67,-365.08C1594.62,-363.18 1609.05,-361.39 1622.64,-360 2585.32,-261.46 3755.99,-214.91 4107.23,-202.5"/>
<polygon fill="black" stroke="black" points="4107.51,-205.99 4117.38,-202.14 4107.26,-199 4107.51,-205.99"/>
<text text-anchor="middle" x="1575.67" y="-353.88" font-family="Times,serif" font-size="14.00">1</text>
</g>
<!-- wrp.EntityEnemyBlood -->
<g id="node10" class="node">
<title>wrp.EntityEnemyBlood</title>
<g id="a_node10"><a xlink:href="wrp.EntityEnemyBlood.svg" xlink:title="wrp.EntityEnemyBlood">
<ellipse fill="green" stroke="black" cx="1750.64" cy="-378" rx="118.88" ry="18"/>
<text text-anchor="middle" x="1750.64" y="-374.3" font-family="Times,serif" font-size="14.00">wrp.EntityEnemyBlood</text>
</a>
</g>
</g>
<!-- wrp.EntityEnemyBlood&#45;&gt;wrp.DestroyEntity -->
<g id="edge9" class="edge">
<title>wrp.EntityEnemyBlood&#45;&gt;wrp.DestroyEntity</title>
<path fill="none" stroke="black" d="M1834.21,-365.13C1849,-363.25 1864.26,-361.45 1878.64,-360 2738.56,-273.31 3781.55,-219.47 4108.54,-203.79"/>
<polygon fill="black" stroke="black" points="4109.12,-207.26 4118.94,-203.29 4108.79,-200.27 4109.12,-207.26"/>
<text text-anchor="middle" x="1829.21" y="-353.93" font-family="Times,serif" font-size="14.00">1</text>
</g>
<!-- wrp.func_8018F928 -->
<g id="node11" class="node">
<title>wrp.func_8018F928</title>
<g id="a_node11"><a xlink:href="wrp.func_8018F928.svg" xlink:title="wrp.func_8018F928">
<ellipse fill="green" stroke="black" cx="1990.64" cy="-378" rx="103.18" ry="18"/>
<text text-anchor="middle" x="1990.64" y="-374.3" font-family="Times,serif" font-size="14.00">wrp.func_8018F928</text>
</a>
</g>
</g>
<!-- wrp.func_8018F928&#45;&gt;wrp.DestroyEntity -->
<g id="edge10" class="edge">
<title>wrp.func_8018F928&#45;&gt;wrp.DestroyEntity</title>
<path fill="none" stroke="black" d="M2063.44,-365.15C2076.47,-363.25 2089.94,-361.45 2102.64,-360 2871.5,-272.43 3803.64,-219.93 4109.25,-204.11"/>
<polygon fill="black" stroke="black" points="4109.62,-207.59 4119.42,-203.58 4109.26,-200.6 4109.62,-207.59"/>
<text text-anchor="middle" x="2058.44" y="-353.95" font-family="Times,serif" font-size="14.00">1</text>
</g>
<!-- wrp.func_801903C8 -->
<g id="node12" class="node">
<title>wrp.func_801903C8</title>
<g id="a_node12"><a xlink:href="wrp.func_801903C8.svg" xlink:title="wrp.func_801903C8">
<ellipse fill="green" stroke="black" cx="2215.64" cy="-378" rx="103.98" ry="18"/>
<text text-anchor="middle" x="2215.64" y="-374.3" font-family="Times,serif" font-size="14.00">wrp.func_801903C8</text>
</a>
</g>
</g>
<!-- wrp.func_801903C8&#45;&gt;wrp.DestroyEntity -->
<g id="edge11" class="edge">
<title>wrp.func_801903C8&#45;&gt;wrp.DestroyEntity</title>
<path fill="none" stroke="black" d="M2289.1,-365.25C2302.25,-363.35 2315.84,-361.51 2328.64,-360 3007.79,-279.96 3829.22,-223.53 4111.08,-205.32"/>
<polygon fill="black" stroke="black" points="4111.53,-208.8 4121.28,-204.66 4111.08,-201.82 4111.53,-208.8"/>
<text text-anchor="middle" x="2284.1" y="-354.05" font-family="Times,serif" font-size="14.00">1</text>
</g>
<!-- wrp.func_8018FA1C -->
<g id="node13" class="node">
<title>wrp.func_8018FA1C</title>
<g id="a_node13"><a xlink:href="wrp.func_8018FA1C.svg" xlink:title="wrp.func_8018FA1C">
<ellipse fill="green" stroke="black" cx="2441.64" cy="-378" rx="103.98" ry="18"/>
<text text-anchor="middle" x="2441.64" y="-374.3" font-family="Times,serif" font-size="14.00">wrp.func_8018FA1C</text>
</a>
</g>
</g>
<!-- wrp.func_8018FA1C&#45;&gt;wrp.DestroyEntity -->
<g id="edge12" class="edge">
<title>wrp.func_8018FA1C&#45;&gt;wrp.DestroyEntity</title>
<path fill="none" stroke="black" d="M2515.72,-365.29C2528.68,-363.4 2542.04,-361.56 2554.64,-360 3145.53,-286.9 3858.39,-227.19 4114.32,-206.66"/>
<polygon fill="black" stroke="black" points="4114.64,-210.15 4124.33,-205.86 4114.09,-203.17 4114.64,-210.15"/>
<text text-anchor="middle" x="2510.72" y="-354.09" font-family="Times,serif" font-size="14.00">1</text>
</g>
<!-- wrp.EntityRelicOrb -->
<g id="node14" class="node">
<title>wrp.EntityRelicOrb</title>
<g id="a_node14"><a xlink:href="wrp.EntityRelicOrb.svg" xlink:title="wrp.EntityRelicOrb">
<ellipse fill="red" stroke="black" cx="2664.64" cy="-378" rx="100.98" ry="18"/>
<text text-anchor="middle" x="2664.64" y="-374.3" font-family="Times,serif" font-size="14.00">wrp.EntityRelicOrb</text>
</a>
</g>
</g>
<!-- wrp.EntityRelicOrb&#45;&gt;wrp.DestroyEntity -->
<g id="edge13" class="edge">
<title>wrp.EntityRelicOrb&#45;&gt;wrp.DestroyEntity</title>
<path fill="none" stroke="black" d="M2736.77,-365.41C2749.38,-363.51 2762.39,-361.63 2774.64,-360 3280.36,-292.62 3888.76,-230.76 4118.1,-208.11"/>
<polygon fill="black" stroke="black" points="4118.47,-211.6 4128.08,-207.13 4117.78,-204.63 4118.47,-211.6"/>
<text text-anchor="middle" x="2731.77" y="-354.21" font-family="Times,serif" font-size="14.00">1</text>
</g>
<!-- wrp.func_8018F838 -->
<g id="node15" class="node">
<title>wrp.func_8018F838</title>
<g id="a_node15"><a xlink:href="wrp.func_8018F838.svg" xlink:title="wrp.func_8018F838">
<ellipse fill="green" stroke="black" cx="2886.64" cy="-378" rx="103.18" ry="18"/>
<text text-anchor="middle" x="2886.64" y="-374.3" font-family="Times,serif" font-size="14.00">wrp.func_8018F838</text>
</a>
</g>
</g>
<!-- wrp.func_8018F838&#45;&gt;wrp.DestroyEntity -->
<g id="edge14" class="edge">
<title>wrp.func_8018F838&#45;&gt;wrp.DestroyEntity</title>
<path fill="none" stroke="black" d="M2961.68,-365.53C2974.35,-363.64 2987.37,-361.74 2999.64,-360 3420.28,-300.42 3924.02,-235.59 4123.81,-210.14"/>
<polygon fill="black" stroke="black" points="4124.47,-213.58 4133.95,-208.85 4123.59,-206.64 4124.47,-213.58"/>
<text text-anchor="middle" x="2956.68" y="-354.33" font-family="Times,serif" font-size="14.00">1</text>
</g>
<!-- wrp.EntitySoulStealOrb -->
<g id="node16" class="node">
<title>wrp.EntitySoulStealOrb</title>
<g id="a_node16"><a xlink:href="wrp.EntitySoulStealOrb.svg" xlink:title="wrp.EntitySoulStealOrb">
<ellipse fill="green" stroke="black" cx="3130.64" cy="-378" rx="122.38" ry="18"/>
<text text-anchor="middle" x="3130.64" y="-374.3" font-family="Times,serif" font-size="14.00">wrp.EntitySoulStealOrb</text>
</a>
</g>
</g>
<!-- wrp.EntitySoulStealOrb&#45;&gt;wrp.DestroyEntity -->
<g id="edge15" class="edge">
<title>wrp.EntitySoulStealOrb&#45;&gt;wrp.DestroyEntity</title>
<path fill="none" stroke="black" d="M3208.82,-364.13C3407.7,-331.38 3931.31,-245.16 4131.89,-212.13"/>
<polygon fill="black" stroke="black" points="4132.47,-215.58 4141.77,-210.51 4131.33,-208.68 4132.47,-215.58"/>
<text text-anchor="middle" x="3203.82" y="-352.93" font-family="Times,serif" font-size="14.00">1</text>
</g>
<!-- wrp.EntityStageNamePopup -->
<g id="node17" class="node">
<title>wrp.EntityStageNamePopup</title>
<g id="a_node17"><a xlink:href="wrp.EntityStageNamePopup.svg" xlink:title="wrp.EntityStageNamePopup">
<ellipse fill="red" stroke="black" cx="3414.64" cy="-378" rx="143.77" ry="18"/>
<text text-anchor="middle" x="3414.64" y="-374.3" font-family="Times,serif" font-size="14.00">wrp.EntityStageNamePopup</text>
</a>
</g>
</g>
<!-- wrp.EntityStageNamePopup&#45;&gt;wrp.DestroyEntity -->
<g id="edge16" class="edge">
<title>wrp.EntityStageNamePopup&#45;&gt;wrp.DestroyEntity</title>
<path fill="none" stroke="black" d="M3481.57,-362.05C3630.92,-328.7 3990.2,-248.46 4142.04,-214.55"/>
<polygon fill="black" stroke="black" points="4143.17,-217.88 4152.17,-212.28 4141.65,-211.05 4143.17,-217.88"/>
<text text-anchor="middle" x="3476.57" y="-350.85" font-family="Times,serif" font-size="14.00">1</text>
</g>
<!-- wrp.EntityPrizeDrop -->
<g id="node18" class="node">
<title>wrp.EntityPrizeDrop</title>
<g id="a_node18"><a xlink:href="wrp.EntityPrizeDrop.svg" xlink:title="wrp.EntityPrizeDrop">
<ellipse fill="green" stroke="black" cx="3683.64" cy="-378" rx="107.48" ry="18"/>
<text text-anchor="middle" x="3683.64" y="-374.3" font-family="Times,serif" font-size="14.00">wrp.EntityPrizeDrop</text>
</a>
</g>
</g>
<!-- wrp.EntityPrizeDrop&#45;&gt;wrp.DestroyEntity -->
<g id="edge17" class="edge">
<title>wrp.EntityPrizeDrop&#45;&gt;wrp.DestroyEntity</title>
<path fill="none" stroke="black" d="M3729.12,-361.67C3826.05,-328.99 4052.65,-252.6 4157.12,-217.38"/>
<polygon fill="black" stroke="black" points="4158.48,-220.62 4166.84,-214.1 4156.25,-213.98 4158.48,-220.62"/>
<text text-anchor="middle" x="3724.12" y="-350.47" font-family="Times,serif" font-size="14.00">2</text>
</g>
<!-- wrp.EntityIntenseExplosion -->
<g id="node19" class="node">
<title>wrp.EntityIntenseExplosion</title>
<g id="a_node19"><a xlink:href="wrp.EntityIntenseExplosion.svg" xlink:title="wrp.EntityIntenseExplosion">
<ellipse fill="green" stroke="black" cx="3949.64" cy="-378" rx="140.28" ry="18"/>
<text text-anchor="middle" x="3949.64" y="-374.3" font-family="Times,serif" font-size="14.00">wrp.EntityIntenseExplosion</text>
</a>
</g>
</g>
<!-- wrp.EntityIntenseExplosion&#45;&gt;wrp.DestroyEntity -->
<g id="edge18" class="edge">
<title>wrp.EntityIntenseExplosion&#45;&gt;wrp.DestroyEntity</title>
<path fill="none" stroke="black" d="M3974.29,-360.25C4021.71,-328.04 4125.66,-257.42 4178.86,-221.27"/>
<polygon fill="black" stroke="black" points="4180.95,-224.09 4187.25,-215.57 4177.01,-218.3 4180.95,-224.09"/>
<text text-anchor="middle" x="3969.29" y="-349.05" font-family="Times,serif" font-size="14.00">1</text>
</g>
<!-- wrp.func_8018F510 -->
<g id="node20" class="node">
<title>wrp.func_8018F510</title>
<g id="a_node20"><a xlink:href="wrp.func_8018F510.svg" xlink:title="wrp.func_8018F510">
<ellipse fill="green" stroke="black" cx="4211.64" cy="-378" rx="103.18" ry="18"/>
<text text-anchor="middle" x="4211.64" y="-374.3" font-family="Times,serif" font-size="14.00">wrp.func_8018F510</text>
</a>
</g>
</g>
<!-- wrp.func_8018F510&#45;&gt;wrp.DestroyEntity -->
<g id="edge19" class="edge">
<title>wrp.func_8018F510&#45;&gt;wrp.DestroyEntity</title>
<path fill="none" stroke="black" d="M4211.64,-359.93C4211.64,-328.97 4211.64,-263.3 4211.64,-226.13"/>
<polygon fill="black" stroke="black" points="4215.14,-226.02 4211.64,-216.02 4208.14,-226.02 4215.14,-226.02"/>
<text text-anchor="middle" x="4206.64" y="-348.73" font-family="Times,serif" font-size="14.00">1</text>
</g>
<!-- wrp.EntityExplosion -->
<g id="node21" class="node">
<title>wrp.EntityExplosion</title>
<g id="a_node21"><a xlink:href="wrp.EntityExplosion.svg" xlink:title="wrp.EntityExplosion">
<ellipse fill="green" stroke="black" cx="4438.64" cy="-378" rx="105.88" ry="18"/>
<text text-anchor="middle" x="4438.64" y="-374.3" font-family="Times,serif" font-size="14.00">wrp.EntityExplosion</text>
</a>
</g>
</g>
<!-- wrp.EntityExplosion&#45;&gt;wrp.DestroyEntity -->
<g id="edge20" class="edge">
<title>wrp.EntityExplosion&#45;&gt;wrp.DestroyEntity</title>
<path fill="none" stroke="black" d="M4417.29,-360.25C4376.46,-328.24 4287.26,-258.29 4240.91,-221.95"/>
<polygon fill="black" stroke="black" points="4242.81,-218.99 4232.78,-215.57 4238.49,-224.5 4242.81,-218.99"/>
<text text-anchor="middle" x="4412.29" y="-349.05" font-family="Times,serif" font-size="14.00">1</text>
</g>
<!-- wrp.EntityRedDoor -->
<g id="node22" class="node">
<title>wrp.EntityRedDoor</title>
<g id="a_node22"><a xlink:href="wrp.EntityRedDoor.svg" xlink:title="wrp.EntityRedDoor">
<ellipse fill="red" stroke="black" cx="4663.64" cy="-378" rx="100.98" ry="18"/>
<text text-anchor="middle" x="4663.64" y="-374.3" font-family="Times,serif" font-size="14.00">wrp.EntityRedDoor</text>
</a>
</g>
</g>
<!-- wrp.EntityRedDoor&#45;&gt;wrp.DestroyEntity -->
<g id="edge21" class="edge">
<title>wrp.EntityRedDoor&#45;&gt;wrp.DestroyEntity</title>
<path fill="none" stroke="black" d="M4623.93,-361.36C4541.2,-328.78 4350.65,-253.74 4260.55,-218.26"/>
<polygon fill="black" stroke="black" points="4261.7,-214.95 4251.11,-214.54 4259.13,-221.46 4261.7,-214.95"/>
<text text-anchor="middle" x="4618.93" y="-350.16" font-family="Times,serif" font-size="14.00">1</text>
</g>
<!-- wrp.CollectHeartVessel -->
<g id="node23" class="node">
<title>wrp.CollectHeartVessel</title>
<g id="a_node23"><a xlink:href="wrp.CollectHeartVessel.svg" xlink:title="wrp.CollectHeartVessel">
<ellipse fill="green" stroke="black" cx="4902.64" cy="-378" rx="120.48" ry="18"/>
<text text-anchor="middle" x="4902.64" y="-374.3" font-family="Times,serif" font-size="14.00">wrp.CollectHeartVessel</text>
</a>
</g>
</g>
<!-- wrp.CollectHeartVessel&#45;&gt;wrp.DestroyEntity -->
<g id="edge22" class="edge">
<title>wrp.CollectHeartVessel&#45;&gt;wrp.DestroyEntity</title>
<path fill="none" stroke="black" d="M4844.92,-362.13C4716.76,-329.12 4409.27,-249.91 4275.55,-215.46"/>
<polygon fill="black" stroke="black" points="4276.4,-212.07 4265.85,-212.96 4274.66,-218.85 4276.4,-212.07"/>
<text text-anchor="middle" x="4839.92" y="-350.93" font-family="Times,serif" font-size="14.00">1</text>
</g>
<!-- wrp.EntityNumericDamage -->
<g id="node24" class="node">
<title>wrp.EntityNumericDamage</title>
<g id="a_node24"><a xlink:href="wrp.EntityNumericDamage.svg" xlink:title="wrp.EntityNumericDamage">
<ellipse fill="red" stroke="black" cx="5179.64" cy="-378" rx="138.38" ry="18"/>
<text text-anchor="middle" x="5179.64" y="-374.3" font-family="Times,serif" font-size="14.00">wrp.EntityNumericDamage</text>
</a>
</g>
</g>
<!-- wrp.EntityNumericDamage&#45;&gt;wrp.DestroyEntity -->
<g id="edge23" class="edge">
<title>wrp.EntityNumericDamage&#45;&gt;wrp.DestroyEntity</title>
<path fill="none" stroke="black" d="M5103.28,-362.96C4922.22,-329.66 4468.51,-246.23 4287.72,-212.99"/>
<polygon fill="black" stroke="black" points="4288.23,-209.53 4277.77,-211.16 4286.97,-216.41 4288.23,-209.53"/>
<text text-anchor="middle" x="5098.28" y="-351.76" font-family="Times,serif" font-size="14.00">1</text>
</g>
<!-- wrp.func_8018C27C -->
<g id="node25" class="node">
<title>wrp.func_8018C27C</title>
<g id="a_node25"><a xlink:href="wrp.func_8018C27C.svg" xlink:title="wrp.func_8018C27C">
<ellipse fill="green" stroke="black" cx="5440.64" cy="-378" rx="104.78" ry="18"/>
<text text-anchor="middle" x="5440.64" y="-374.3" font-family="Times,serif" font-size="14.00">wrp.func_8018C27C</text>
</a>
</g>
</g>
<!-- wrp.func_8018C27C&#45;&gt;wrp.DestroyEntity -->
<g id="edge24" class="edge">
<title>wrp.func_8018C27C&#45;&gt;wrp.DestroyEntity</title>
<path fill="none" stroke="black" d="M5364.61,-365.61C5351.94,-363.73 5338.92,-361.8 5326.64,-360 4941.86,-303.53 4482.14,-237.65 4296.03,-211.05"/>
<polygon fill="black" stroke="black" points="4296.43,-207.57 4286.04,-209.62 4295.44,-214.5 4296.43,-207.57"/>
<text text-anchor="middle" x="5359.61" y="-354.41" font-family="Times,serif" font-size="14.00">1</text>
</g>
<!-- wrp.CreateEntityFromCurrentEntity -->
<g id="node26" class="node">
<title>wrp.CreateEntityFromCurrentEntity</title>
<g id="a_node26"><a xlink:href="wrp.CreateEntityFromCurrentEntity.svg" xlink:title="wrp.CreateEntityFromCurrentEntity">
<ellipse fill="green" stroke="black" cx="5745.64" cy="-378" rx="181.97" ry="18"/>
<text text-anchor="middle" x="5745.64" y="-374.3" font-family="Times,serif" font-size="14.00">wrp.CreateEntityFromCurrentEntity</text>
</a>
</g>
</g>
<!-- wrp.CreateEntityFromCurrentEntity&#45;&gt;wrp.DestroyEntity -->
<g id="edge25" class="edge">
<title>wrp.CreateEntityFromCurrentEntity&#45;&gt;wrp.DestroyEntity</title>
<path fill="none" stroke="black" d="M5632.53,-363.88C5340.58,-330 4566.08,-240.13 4301.62,-209.44"/>
<polygon fill="black" stroke="black" points="4302.01,-205.96 4291.68,-208.29 4301.21,-212.92 4302.01,-205.96"/>
<text text-anchor="middle" x="5627.53" y="-352.68" font-family="Times,serif" font-size="14.00">1</text>
</g>
<!-- wrp.DestroyEntityFromIndex -->
<g id="node27" class="node">
<title>wrp.DestroyEntityFromIndex</title>
<g id="a_node27"><a xlink:href="wrp.DestroyEntityFromIndex.svg" xlink:title="wrp.DestroyEntityFromIndex">
<ellipse fill="green" stroke="black" cx="6093.64" cy="-378" rx="147.57" ry="18"/>
<text text-anchor="middle" x="6093.64" y="-374.3" font-family="Times,serif" font-size="14.00">wrp.DestroyEntityFromIndex</text>
</a>
</g>
</g>
<!-- wrp.DestroyEntityFromIndex&#45;&gt;wrp.DestroyEntity -->
<g id="edge26" class="edge">
<title>wrp.DestroyEntityFromIndex&#45;&gt;wrp.DestroyEntity</title>
<path fill="none" stroke="black" d="M5988.1,-365.36C5970.91,-363.52 5953.28,-361.68 5936.64,-360 5316.11,-297.45 4569.1,-230.6 4307.61,-207.45"/>
<polygon fill="black" stroke="black" points="4307.66,-203.95 4297.39,-206.55 4307.05,-210.92 4307.66,-203.95"/>
<text text-anchor="middle" x="5983.1" y="-354.16" font-family="Times,serif" font-size="14.00">1</text>
</g>
<!-- wrp.CollectSubweapon -->
<g id="node28" class="node">
<title>wrp.CollectSubweapon</title>
<g id="a_node28"><a xlink:href="wrp.CollectSubweapon.svg" xlink:title="wrp.CollectSubweapon">
<ellipse fill="green" stroke="black" cx="6376.64" cy="-378" rx="117.78" ry="18"/>
<text text-anchor="middle" x="6376.64" y="-374.3" font-family="Times,serif" font-size="14.00">wrp.CollectSubweapon</text>
</a>
</g>
</g>
<!-- wrp.CollectSubweapon&#45;&gt;wrp.DestroyEntity -->
<g id="edge27" class="edge">
<title>wrp.CollectSubweapon&#45;&gt;wrp.DestroyEntity</title>
<path fill="none" stroke="black" d="M6293.7,-365.15C6279.36,-363.29 6264.58,-361.49 6250.64,-360 5508.26,-280.67 4609.91,-223.05 4312.57,-204.99"/>
<polygon fill="black" stroke="black" points="4312.45,-201.47 4302.25,-204.36 4312.02,-208.46 4312.45,-201.47"/>
<text text-anchor="middle" x="6288.7" y="-353.95" font-family="Times,serif" font-size="14.00">1</text>
</g>
<!-- wrp.CreateEntityFromEntity -->
<g id="node29" class="node">
<title>wrp.CreateEntityFromEntity</title>
<g id="a_node29"><a xlink:href="wrp.CreateEntityFromEntity.svg" xlink:title="wrp.CreateEntityFromEntity">
<ellipse fill="green" stroke="black" cx="6657.64" cy="-378" rx="145.67" ry="18"/>
<text text-anchor="middle" x="6657.64" y="-374.3" font-family="Times,serif" font-size="14.00">wrp.CreateEntityFromEntity</text>
</a>
</g>
</g>
<!-- wrp.CreateEntityFromEntity&#45;&gt;wrp.DestroyEntity -->
<g id="edge28" class="edge">
<title>wrp.CreateEntityFromEntity&#45;&gt;wrp.DestroyEntity</title>
<path fill="none" stroke="black" d="M6555.4,-365.14C6538.13,-363.3 6520.39,-361.51 6503.64,-360 5658.17,-283.67 4634.46,-222.99 4313.13,-204.68"/>
<polygon fill="black" stroke="black" points="4313.1,-201.18 4302.92,-204.1 4312.7,-208.16 4313.1,-201.18"/>
<text text-anchor="middle" x="6550.4" y="-353.94" font-family="Times,serif" font-size="14.00">1</text>
</g>
<!-- wrp.CollectHeart -->
<g id="node30" class="node">
<title>wrp.CollectHeart</title>
<g id="a_node30"><a xlink:href="wrp.CollectHeart.svg" xlink:title="wrp.CollectHeart">
<ellipse fill="green" stroke="black" cx="6912.64" cy="-378" rx="90.98" ry="18"/>
<text text-anchor="middle" x="6912.64" y="-374.3" font-family="Times,serif" font-size="14.00">wrp.CollectHeart</text>
</a>
</g>
</g>
<!-- wrp.CollectHeart&#45;&gt;wrp.DestroyEntity -->
<g id="edge29" class="edge">
<title>wrp.CollectHeart&#45;&gt;wrp.DestroyEntity</title>
<path fill="none" stroke="black" d="M6848.77,-365.1C6836.8,-363.17 6824.36,-361.36 6812.64,-360 5847.46,-248.41 4671.21,-210.74 4317.26,-201.5"/>
<polygon fill="black" stroke="black" points="4317.12,-198 4307.03,-201.24 4316.94,-204.99 4317.12,-198"/>
<text text-anchor="middle" x="6843.77" y="-353.9" font-family="Times,serif" font-size="14.00">1</text>
</g>
<!-- wrp.TestCollisions -->
<g id="node31" class="node">
<title>wrp.TestCollisions</title>
<g id="a_node31"><a xlink:href="wrp.TestCollisions.svg" xlink:title="wrp.TestCollisions">
<ellipse fill="red" stroke="black" cx="7117.64" cy="-378" rx="96.38" ry="18"/>
<text text-anchor="middle" x="7117.64" y="-374.3" font-family="Times,serif" font-size="14.00">wrp.TestCollisions</text>
</a>
</g>
</g>
<!-- wrp.TestCollisions&#45;&gt;wrp.DestroyEntity -->
<g id="edge30" class="edge">
<title>wrp.TestCollisions&#45;&gt;wrp.DestroyEntity</title>
<path fill="none" stroke="black" d="M7050.57,-365.08C7038,-363.15 7024.94,-361.35 7012.64,-360 5965.68,-245.47 4689.08,-209.55 4317.66,-201.16"/>
<polygon fill="black" stroke="black" points="4317.54,-197.65 4307.47,-200.93 4317.38,-204.65 4317.54,-197.65"/>
<text text-anchor="middle" x="7045.57" y="-353.88" font-family="Times,serif" font-size="14.00">1</text>
</g>
<!-- wrp.DestroyCurrentEntity -->
<g id="node32" class="node">
<title>wrp.DestroyCurrentEntity</title>
<g id="a_node32"><a xlink:href="wrp.DestroyCurrentEntity.svg" xlink:title="wrp.DestroyCurrentEntity">
<ellipse fill="green" stroke="black" cx="7365.64" cy="-378" rx="133.78" ry="18"/>
<text text-anchor="middle" x="7365.64" y="-374.3" font-family="Times,serif" font-size="14.00">wrp.DestroyCurrentEntity</text>
</a>
</g>
</g>
<!-- wrp.DestroyCurrentEntity&#45;&gt;wrp.DestroyEntity -->
<g id="edge31" class="edge">
<title>wrp.DestroyCurrentEntity&#45;&gt;wrp.DestroyEntity</title>
<path fill="none" stroke="black" d="M7272.27,-365.02C7255.76,-363.15 7238.71,-361.38 7222.64,-360 6086.26,-262.18 4703.16,-214.24 4316.46,-202.14"/>
<polygon fill="black" stroke="black" points="4316.51,-198.64 4306.41,-201.83 4316.29,-205.64 4316.51,-198.64"/>
<text text-anchor="middle" x="7267.27" y="-353.82" font-family="Times,serif" font-size="14.00">1</text>
</g>
<!-- wrp.AllocEntity -->
<g id="node33" class="node">
<title>wrp.AllocEntity</title>
<g id="a_node33"><a xlink:href="wrp.AllocEntity.svg" xlink:title="wrp.AllocEntity">
<ellipse fill="green" stroke="black" cx="7600.64" cy="-378" rx="83.39" ry="18"/>
<text text-anchor="middle" x="7600.64" y="-374.3" font-family="Times,serif" font-size="14.00">wrp.AllocEntity</text>
</a>
</g>
</g>
<!-- wrp.AllocEntity&#45;&gt;wrp.DestroyEntity -->
<g id="edge32" class="edge">
<title>wrp.AllocEntity&#45;&gt;wrp.DestroyEntity</title>
<path fill="none" stroke="black" d="M7542.42,-365.03C7531.25,-363.07 7519.62,-361.28 7508.64,-360 6260.35,-214.85 4731.42,-200.24 4318.59,-199.03"/>
<polygon fill="black" stroke="black" points="4318.47,-195.53 4308.46,-199 4318.45,-202.53 4318.47,-195.53"/>
<text text-anchor="middle" x="7537.42" y="-353.83" font-family="Times,serif" font-size="14.00">1</text>
</g>
<!-- wrp.CollectLifeVessel -->
<g id="node34" class="node">
<title>wrp.CollectLifeVessel</title>
<g id="a_node34"><a xlink:href="wrp.CollectLifeVessel.svg" xlink:title="wrp.CollectLifeVessel">
<ellipse fill="green" stroke="black" cx="7812.64" cy="-378" rx="110.48" ry="18"/>
<text text-anchor="middle" x="7812.64" y="-374.3" font-family="Times,serif" font-size="14.00">wrp.CollectLifeVessel</text>
</a>
</g>
</g>
<!-- wrp.CollectLifeVessel&#45;&gt;wrp.DestroyEntity -->
<g id="edge33" class="edge">
<title>wrp.CollectLifeVessel&#45;&gt;wrp.DestroyEntity</title>
<path fill="none" stroke="black" d="M7735.95,-365.04C7721.59,-363.11 7706.68,-361.32 7692.64,-360 6365.46,-235.58 4744.2,-206.07 4318.23,-200.26"/>
<polygon fill="black" stroke="black" points="4318.13,-196.76 4308.09,-200.12 4318.04,-203.76 4318.13,-196.76"/>
<text text-anchor="middle" x="7730.95" y="-353.84" font-family="Times,serif" font-size="14.00">1</text>
</g>
<!-- wrp.CreateEntityFromLayout -->
<g id="node35" class="node">
<title>wrp.CreateEntityFromLayout</title>
<g id="a_node35"><a xlink:href="wrp.CreateEntityFromLayout.svg" xlink:title="wrp.CreateEntityFromLayout">
<ellipse fill="green" stroke="black" cx="8089.64" cy="-378" rx="148.37" ry="18"/>
<text text-anchor="middle" x="8089.64" y="-374.3" font-family="Times,serif" font-size="14.00">wrp.CreateEntityFromLayout</text>
</a>
</g>
</g>
<!-- wrp.CreateEntityFromLayout&#45;&gt;wrp.DestroyEntity -->
<g id="edge34" class="edge">
<title>wrp.CreateEntityFromLayout&#45;&gt;wrp.DestroyEntity</title>
<path fill="none" stroke="black" d="M7986.89,-364.98C7968.51,-363.11 7949.53,-361.35 7931.64,-360 6503,-252.34 4759.86,-210.42 4317.55,-201.11"/>
<polygon fill="black" stroke="black" points="4317.41,-197.6 4307.34,-200.89 4317.26,-204.6 4317.41,-197.6"/>
<text text-anchor="middle" x="7981.89" y="-353.78" font-family="Times,serif" font-size="14.00">1</text>
</g>
<!-- wrp.ReplaceBreakableWithItemDrop -->
<g id="node36" class="node">
<title>wrp.ReplaceBreakableWithItemDrop</title>
<g id="a_node36"><a xlink:href="wrp.ReplaceBreakableWithItemDrop.svg" xlink:title="wrp.ReplaceBreakableWithItemDrop">
<ellipse fill="green" stroke="black" cx="8437.64" cy="-378" rx="181.17" ry="18"/>
<text text-anchor="middle" x="8437.64" y="-374.3" font-family="Times,serif" font-size="14.00">wrp.ReplaceBreakableWithItemDrop</text>
</a>
</g>
</g>
<!-- wrp.ReplaceBreakableWithItemDrop&#45;&gt;wrp.DestroyEntity -->
<g id="edge35" class="edge">
<title>wrp.ReplaceBreakableWithItemDrop&#45;&gt;wrp.DestroyEntity</title>
<path fill="none" stroke="black" d="M8312.37,-364.97C8290.47,-363.12 8267.91,-361.37 8246.64,-360 6686.18,-259.48 4781.92,-211.91 4317.47,-201.32"/>
<polygon fill="black" stroke="black" points="4317.5,-197.82 4307.42,-201.09 4317.34,-204.82 4317.5,-197.82"/>
<text text-anchor="middle" x="8307.37" y="-353.77" font-family="Times,serif" font-size="14.00">1</text>
</g>
<!-- wrp.CollectGold -->
<g id="node37" class="node">
<title>wrp.CollectGold</title>
<g id="a_node37"><a xlink:href="wrp.CollectGold.svg" xlink:title="wrp.CollectGold">
<ellipse fill="green" stroke="black" cx="8721.64" cy="-378" rx="85.29" ry="18"/>
<text text-anchor="middle" x="8721.64" y="-374.3" font-family="Times,serif" font-size="14.00">wrp.CollectGold</text>
</a>
</g>
</g>
<!-- wrp.CollectGold&#45;&gt;wrp.DestroyEntity -->
<g id="edge36" class="edge">
<title>wrp.CollectGold&#45;&gt;wrp.DestroyEntity</title>
<path fill="none" stroke="black" d="M8662.66,-365.01C8651.09,-363.03 8639.02,-361.23 8627.64,-360 7753.51,-265.51 4904.55,-211.16 4317.87,-200.82"/>
<polygon fill="black" stroke="black" points="4317.8,-197.31 4307.74,-200.64 4317.67,-204.31 4317.8,-197.31"/>
<text text-anchor="middle" x="8657.66" y="-353.81" font-family="Times,serif" font-size="14.00">1</text>
</g>
</g>
</svg>
