<?xml version="1.0" encoding="UTF-8" standalone="no"?>
<!DOCTYPE svg PUBLIC "-//W3C//DTD SVG 1.1//EN"
 "http://www.w3.org/Graphics/SVG/1.1/DTD/svg11.dtd">
<!-- Generated by graphviz version 2.43.0 (0)
 -->
<!-- Title: wrp.func_8018EEC4 Pages: 1 -->
<svg width="1153pt" height="224pt"
 viewBox="0.00 0.00 1152.99 224.00" xmlns="http://www.w3.org/2000/svg" xmlns:xlink="http://www.w3.org/1999/xlink">
<g id="graph0" class="graph" transform="scale(1 1) rotate(0) translate(4 220)">
<title>wrp.func_8018EEC4</title>
<polygon fill="white" stroke="transparent" points="-4,4 -4,-220 1148.99,-220 1148.99,4 -4,4"/>
<!-- wrp.func_8018EEC4 -->
<g id="node1" class="node">
<title>wrp.func_8018EEC4</title>
<ellipse fill="green" stroke="black" cx="494.34" cy="-198" rx="105.88" ry="18"/>
<text text-anchor="middle" x="494.34" y="-194.3" font-family="Times,serif" font-size="14.00">wrp.func_8018EEC4</text>
</g>
<!-- ClearImage -->
<g id="node2" class="node">
<title>ClearImage</title>
<g id="a_node2"><a xlink:href="ClearImage.svg" xlink:title="ClearImage">
<ellipse fill="lightblue" stroke="black" cx="64.34" cy="-18" rx="64.19" ry="18"/>
<text text-anchor="middle" x="64.34" y="-14.3" font-family="Times,serif" font-size="14.00">ClearImage</text>
</a>
</g>
</g>
<!-- wrp.func_8018EEC4&#45;&gt;ClearImage -->
<g id="edge1" class="edge">
<title>wrp.func_8018EEC4&#45;&gt;ClearImage</title>
<path fill="none" stroke="black" d="M456.18,-181.2C376.43,-148.19 192.49,-72.05 108.1,-37.11"/>
<polygon fill="black" stroke="black" points="109.38,-33.85 98.8,-33.26 106.7,-40.32 109.38,-33.85"/>
<text text-anchor="middle" x="93.8" y="-37.06" font-family="Times,serif" font-size="14.00">1</text>
</g>
<!-- LoadTPage -->
<g id="node3" class="node">
<title>LoadTPage</title>
<g id="a_node3"><a xlink:href="LoadTPage.svg" xlink:title="LoadTPage">
<ellipse fill="lightblue" stroke="black" cx="208.34" cy="-18" rx="61.99" ry="18"/>
<text text-anchor="middle" x="208.34" y="-14.3" font-family="Times,serif" font-size="14.00">LoadTPage</text>
</a>
</g>
</g>
<!-- wrp.func_8018EEC4&#45;&gt;LoadTPage -->
<g id="edge2" class="edge">
<title>wrp.func_8018EEC4&#45;&gt;LoadTPage</title>
<path fill="none" stroke="black" d="M467.69,-180.41C415.44,-147.89 299.61,-75.8 242.1,-40.01"/>
<polygon fill="black" stroke="black" points="243.73,-36.9 233.39,-34.59 240.03,-42.84 243.73,-36.9"/>
<text text-anchor="middle" x="228.39" y="-38.39" font-family="Times,serif" font-size="14.00">1</text>
</g>
<!-- dra.AllocPrimitives -->
<g id="node4" class="node">
<title>dra.AllocPrimitives</title>
<g id="a_node4"><a xlink:href="dra.AllocPrimitives.svg" xlink:title="dra.AllocPrimitives">
<ellipse fill="green" stroke="black" cx="387.34" cy="-18" rx="99.38" ry="18"/>
<text text-anchor="middle" x="387.34" y="-14.3" font-family="Times,serif" font-size="14.00">dra.AllocPrimitives</text>
</a>
</g>
</g>
<!-- wrp.func_8018EEC4&#45;&gt;dra.AllocPrimitives -->
<g id="edge3" class="edge">
<title>wrp.func_8018EEC4&#45;&gt;dra.AllocPrimitives</title>
<path fill="none" stroke="black" d="M484.08,-179.93C465.23,-148.57 424.98,-81.6 402.8,-44.71"/>
<polygon fill="black" stroke="black" points="405.72,-42.78 397.57,-36.02 399.73,-46.39 405.72,-42.78"/>
<text text-anchor="middle" x="392.57" y="-39.82" font-family="Times,serif" font-size="14.00">1</text>
</g>
<!-- wrp.DestroyEntity -->
<g id="node5" class="node">
<title>wrp.DestroyEntity</title>
<g id="a_node5"><a xlink:href="wrp.DestroyEntity.svg" xlink:title="wrp.DestroyEntity">
<ellipse fill="green" stroke="black" cx="601.34" cy="-18" rx="96.68" ry="18"/>
<text text-anchor="middle" x="601.34" y="-14.3" font-family="Times,serif" font-size="14.00">wrp.DestroyEntity</text>
</a>
</g>
</g>
<!-- wrp.func_8018EEC4&#45;&gt;wrp.DestroyEntity -->
<g id="edge4" class="edge">
<title>wrp.func_8018EEC4&#45;&gt;wrp.DestroyEntity</title>
<path fill="none" stroke="black" d="M504.6,-179.93C523.46,-148.57 563.71,-81.6 585.89,-44.71"/>
<polygon fill="black" stroke="black" points="588.96,-46.39 591.12,-36.02 582.96,-42.78 588.96,-46.39"/>
<text text-anchor="middle" x="586.12" y="-39.82" font-family="Times,serif" font-size="14.00">1</text>
</g>
<!-- wrp.InitializeEntity -->
<g id="node6" class="node">
<title>wrp.InitializeEntity</title>
<g id="a_node6"><a xlink:href="wrp.InitializeEntity.svg" xlink:title="wrp.InitializeEntity">
<ellipse fill="green" stroke="black" cx="817.34" cy="-18" rx="100.98" ry="18"/>
<text text-anchor="middle" x="817.34" y="-14.3" font-family="Times,serif" font-size="14.00">wrp.InitializeEntity</text>
</a>
</g>
</g>
<!-- wrp.func_8018EEC4&#45;&gt;wrp.InitializeEntity -->
<g id="edge5" class="edge">
<title>wrp.func_8018EEC4&#45;&gt;wrp.InitializeEntity</title>
<path fill="none" stroke="black" d="M524.15,-180.57C582.8,-148.25 713.14,-76.42 778.46,-40.43"/>
<polygon fill="black" stroke="black" points="780.54,-43.28 787.61,-35.39 777.16,-37.15 780.54,-43.28"/>
<text text-anchor="middle" x="782.61" y="-39.19" font-family="Times,serif" font-size="14.00">1</text>
</g>
<!-- wrp.func_8018E01C -->
<g id="node7" class="node">
<title>wrp.func_8018E01C</title>
<g id="a_node7"><a xlink:href="wrp.func_8018E01C.svg" xlink:title="wrp.func_8018E01C">
<ellipse fill="green" stroke="black" cx="1040.34" cy="-18" rx="104.78" ry="18"/>
<text text-anchor="middle" x="1040.34" y="-14.3" font-family="Times,serif" font-size="14.00">wrp.func_8018E01C</text>
</a>
</g>
</g>
<!-- wrp.func_8018EEC4&#45;&gt;wrp.func_8018E01C -->
<g id="edge6" class="edge">
<title>wrp.func_8018EEC4&#45;&gt;wrp.func_8018E01C</title>
<path fill="none" stroke="black" d="M540.9,-181.82C640.93,-149.21 876.05,-72.56 984.16,-37.32"/>
<polygon fill="black" stroke="black" points="985.49,-40.56 993.91,-34.14 983.32,-33.91 985.49,-40.56"/>
<text text-anchor="middle" x="988.91" y="-37.94" font-family="Times,serif" font-size="14.00">1</text>
</g>
</g>
</svg>
