<?xml version="1.0" encoding="UTF-8" standalone="no"?>
<!DOCTYPE svg PUBLIC "-//W3C//DTD SVG 1.1//EN"
 "http://www.w3.org/Graphics/SVG/1.1/DTD/svg11.dtd">
<!-- Generated by graphviz version 2.43.0 (0)
 -->
<!-- Title: wrp.func_801903C8 Pages: 1 -->
<svg width="838pt" height="224pt"
 viewBox="0.00 0.00 837.83 224.00" xmlns="http://www.w3.org/2000/svg" xmlns:xlink="http://www.w3.org/1999/xlink">
<g id="graph0" class="graph" transform="scale(1 1) rotate(0) translate(4 220)">
<title>wrp.func_801903C8</title>
<polygon fill="white" stroke="transparent" points="-4,4 -4,-220 833.83,-220 833.83,4 -4,4"/>
<!-- wrp.func_801903C8 -->
<g id="node1" class="node">
<title>wrp.func_801903C8</title>
<ellipse fill="green" stroke="black" cx="414.84" cy="-198" rx="103.98" ry="18"/>
<text text-anchor="middle" x="414.84" y="-194.3" font-family="Times,serif" font-size="14.00">wrp.func_801903C8</text>
</g>
<!-- wrp.DestroyEntity -->
<g id="node2" class="node">
<title>wrp.DestroyEntity</title>
<g id="a_node2"><a xlink:href="wrp.DestroyEntity.svg" xlink:title="wrp.DestroyEntity">
<ellipse fill="green" stroke="black" cx="96.84" cy="-18" rx="96.68" ry="18"/>
<text text-anchor="middle" x="96.84" y="-14.3" font-family="Times,serif" font-size="14.00">wrp.DestroyEntity</text>
</a>
</g>
</g>
<!-- wrp.func_801903C8&#45;&gt;wrp.DestroyEntity -->
<g id="edge1" class="edge">
<title>wrp.func_801903C8&#45;&gt;wrp.DestroyEntity</title>
<path fill="none" stroke="black" d="M385.49,-180.57C327.75,-148.25 199.43,-76.42 135.12,-40.43"/>
<polygon fill="black" stroke="black" points="136.55,-37.22 126.12,-35.39 133.13,-43.33 136.55,-37.22"/>
<text text-anchor="middle" x="121.12" y="-39.19" font-family="Times,serif" font-size="14.00">1</text>
</g>
<!-- wrp.InitializeEntity -->
<g id="node3" class="node">
<title>wrp.InitializeEntity</title>
<g id="a_node3"><a xlink:href="wrp.InitializeEntity.svg" xlink:title="wrp.InitializeEntity">
<ellipse fill="green" stroke="black" cx="312.84" cy="-18" rx="100.98" ry="18"/>
<text text-anchor="middle" x="312.84" y="-14.3" font-family="Times,serif" font-size="14.00">wrp.InitializeEntity</text>
</a>
</g>
</g>
<!-- wrp.func_801903C8&#45;&gt;wrp.InitializeEntity -->
<g id="edge2" class="edge">
<title>wrp.func_801903C8&#45;&gt;wrp.InitializeEntity</title>
<path fill="none" stroke="black" d="M405.06,-179.93C387.09,-148.57 348.71,-81.6 327.57,-44.71"/>
<polygon fill="black" stroke="black" points="330.6,-42.95 322.59,-36.02 324.53,-46.43 330.6,-42.95"/>
<text text-anchor="middle" x="317.59" y="-39.82" font-family="Times,serif" font-size="14.00">1</text>
</g>
<!-- wrp.MoveEntity -->
<g id="node4" class="node">
<title>wrp.MoveEntity</title>
<g id="a_node4"><a xlink:href="wrp.MoveEntity.svg" xlink:title="wrp.MoveEntity">
<ellipse fill="green" stroke="black" cx="517.84" cy="-18" rx="85.59" ry="18"/>
<text text-anchor="middle" x="517.84" y="-14.3" font-family="Times,serif" font-size="14.00">wrp.MoveEntity</text>
</a>
</g>
</g>
<!-- wrp.func_801903C8&#45;&gt;wrp.MoveEntity -->
<g id="edge3" class="edge">
<title>wrp.func_801903C8&#45;&gt;wrp.MoveEntity</title>
<path fill="none" stroke="black" d="M424.72,-179.93C442.87,-148.57 481.62,-81.6 502.97,-44.71"/>
<polygon fill="black" stroke="black" points="506.02,-46.42 508,-36.02 499.96,-42.92 506.02,-46.42"/>
<text text-anchor="middle" x="503" y="-39.82" font-family="Times,serif" font-size="14.00">1</text>
</g>
<!-- wrp.func_8018B730 -->
<g id="node5" class="node">
<title>wrp.func_8018B730</title>
<g id="a_node5"><a xlink:href="wrp.func_8018B730.svg" xlink:title="wrp.func_8018B730">
<ellipse fill="green" stroke="black" cx="725.84" cy="-18" rx="103.98" ry="18"/>
<text text-anchor="middle" x="725.84" y="-14.3" font-family="Times,serif" font-size="14.00">wrp.func_8018B730</text>
</a>
</g>
</g>
<!-- wrp.func_801903C8&#45;&gt;wrp.func_8018B730 -->
<g id="edge4" class="edge">
<title>wrp.func_801903C8&#45;&gt;wrp.func_8018B730</title>
<path fill="none" stroke="black" d="M443.54,-180.57C500.01,-148.25 625.51,-76.42 688.4,-40.43"/>
<polygon fill="black" stroke="black" points="690.27,-43.39 697.21,-35.39 686.79,-37.32 690.27,-43.39"/>
<text text-anchor="middle" x="692.21" y="-39.19" font-family="Times,serif" font-size="14.00">1</text>
</g>
</g>
</svg>
