<?xml version="1.0" encoding="UTF-8" standalone="no"?>
<!DOCTYPE svg PUBLIC "-//W3C//DTD SVG 1.1//EN"
 "http://www.w3.org/Graphics/SVG/1.1/DTD/svg11.dtd">
<!-- Generated by graphviz version 2.43.0 (0)
 -->
<!-- Title: wrp.func_8018726C Pages: 1 -->
<svg width="1377pt" height="224pt"
 viewBox="0.00 0.00 1376.99 224.00" xmlns="http://www.w3.org/2000/svg" xmlns:xlink="http://www.w3.org/1999/xlink">
<g id="graph0" class="graph" transform="scale(1 1) rotate(0) translate(4 220)">
<title>wrp.func_8018726C</title>
<polygon fill="white" stroke="transparent" points="-4,4 -4,-220 1372.99,-220 1372.99,4 -4,4"/>
<!-- wrp.func_8018726C -->
<g id="node1" class="node">
<title>wrp.func_8018726C</title>
<ellipse fill="green" stroke="black" cx="663.34" cy="-198" rx="103.98" ry="18"/>
<text text-anchor="middle" x="663.34" y="-194.3" font-family="Times,serif" font-size="14.00">wrp.func_8018726C</text>
</g>
<!-- dra.PlaySfx -->
<g id="node2" class="node">
<title>dra.PlaySfx</title>
<g id="a_node2"><a xlink:href="dra.PlaySfx.svg" xlink:title="dra.PlaySfx">
<ellipse fill="green" stroke="black" cx="64.34" cy="-18" rx="64.19" ry="18"/>
<text text-anchor="middle" x="64.34" y="-14.3" font-family="Times,serif" font-size="14.00">dra.PlaySfx</text>
</a>
</g>
</g>
<!-- wrp.func_8018726C&#45;&gt;dra.PlaySfx -->
<g id="edge1" class="edge">
<title>wrp.func_8018726C&#45;&gt;dra.PlaySfx</title>
<path fill="none" stroke="black" d="M613.3,-182.13C501.26,-148.84 231.11,-68.56 116.82,-34.59"/>
<polygon fill="black" stroke="black" points="117.49,-31.14 106.9,-31.65 115.49,-37.85 117.49,-31.14"/>
<text text-anchor="middle" x="101.9" y="-35.45" font-family="Times,serif" font-size="14.00">1</text>
</g>
<!-- wrp.AllocEntity -->
<g id="node3" class="node">
<title>wrp.AllocEntity</title>
<g id="a_node3"><a xlink:href="wrp.AllocEntity.svg" xlink:title="wrp.AllocEntity">
<ellipse fill="green" stroke="black" cx="230.34" cy="-18" rx="83.39" ry="18"/>
<text text-anchor="middle" x="230.34" y="-14.3" font-family="Times,serif" font-size="14.00">wrp.AllocEntity</text>
</a>
</g>
</g>
<!-- wrp.func_8018726C&#45;&gt;wrp.AllocEntity -->
<g id="edge2" class="edge">
<title>wrp.func_8018726C&#45;&gt;wrp.AllocEntity</title>
<path fill="none" stroke="black" d="M624.92,-181.2C545.32,-148.48 362.68,-73.4 276.7,-38.06"/>
<polygon fill="black" stroke="black" points="278.03,-34.82 267.45,-34.25 275.37,-41.29 278.03,-34.82"/>
<text text-anchor="middle" x="262.45" y="-38.05" font-family="Times,serif" font-size="14.00">1</text>
</g>
<!-- wrp.CreateEntityFromCurrentEntity -->
<g id="node4" class="node">
<title>wrp.CreateEntityFromCurrentEntity</title>
<g id="a_node4"><a xlink:href="wrp.CreateEntityFromCurrentEntity.svg" xlink:title="wrp.CreateEntityFromCurrentEntity">
<ellipse fill="green" stroke="black" cx="513.34" cy="-18" rx="181.97" ry="18"/>
<text text-anchor="middle" x="513.34" y="-14.3" font-family="Times,serif" font-size="14.00">wrp.CreateEntityFromCurrentEntity</text>
</a>
</g>
</g>
<!-- wrp.func_8018726C&#45;&gt;wrp.CreateEntityFromCurrentEntity -->
<g id="edge3" class="edge">
<title>wrp.func_8018726C&#45;&gt;wrp.CreateEntityFromCurrentEntity</title>
<path fill="none" stroke="black" d="M648.96,-179.93C622.31,-148.3 565.14,-80.46 534.22,-43.78"/>
<polygon fill="black" stroke="black" points="536.8,-41.41 527.68,-36.02 531.45,-45.92 536.8,-41.41"/>
<text text-anchor="middle" x="522.68" y="-39.82" font-family="Times,serif" font-size="14.00">1</text>
</g>
<!-- wrp.InitializeEntity -->
<g id="node5" class="node">
<title>wrp.InitializeEntity</title>
<g id="a_node5"><a xlink:href="wrp.InitializeEntity.svg" xlink:title="wrp.InitializeEntity">
<ellipse fill="green" stroke="black" cx="814.34" cy="-18" rx="100.98" ry="18"/>
<text text-anchor="middle" x="814.34" y="-14.3" font-family="Times,serif" font-size="14.00">wrp.InitializeEntity</text>
</a>
</g>
</g>
<!-- wrp.func_8018726C&#45;&gt;wrp.InitializeEntity -->
<g id="edge4" class="edge">
<title>wrp.func_8018726C&#45;&gt;wrp.InitializeEntity</title>
<path fill="none" stroke="black" d="M677.82,-179.93C704.66,-148.3 762.2,-80.46 793.33,-43.78"/>
<polygon fill="black" stroke="black" points="796.11,-45.91 799.91,-36.02 790.77,-41.38 796.11,-45.91"/>
<text text-anchor="middle" x="794.91" y="-39.82" font-family="Times,serif" font-size="14.00">1</text>
</g>
<!-- wrp.func_8018B730 -->
<g id="node6" class="node">
<title>wrp.func_8018B730</title>
<g id="a_node6"><a xlink:href="wrp.func_8018B730.svg" xlink:title="wrp.func_8018B730">
<ellipse fill="green" stroke="black" cx="1037.34" cy="-18" rx="103.98" ry="18"/>
<text text-anchor="middle" x="1037.34" y="-14.3" font-family="Times,serif" font-size="14.00">wrp.func_8018B730</text>
</a>
</g>
</g>
<!-- wrp.func_8018726C&#45;&gt;wrp.func_8018B730 -->
<g id="edge5" class="edge">
<title>wrp.func_8018726C&#45;&gt;wrp.func_8018B730</title>
<path fill="none" stroke="black" d="M697.19,-180.89C765.39,-148.43 919.21,-75.22 994.37,-39.45"/>
<polygon fill="black" stroke="black" points="996.05,-42.53 1003.57,-35.07 993.04,-36.21 996.05,-42.53"/>
<text text-anchor="middle" x="998.57" y="-38.87" font-family="Times,serif" font-size="14.00">1</text>
</g>
<!-- wrp.func_8018C9F8 -->
<g id="node7" class="node">
<title>wrp.func_8018C9F8</title>
<g id="a_node7"><a xlink:href="wrp.func_8018C9F8.svg" xlink:title="wrp.func_8018C9F8">
<ellipse fill="green" stroke="black" cx="1264.34" cy="-18" rx="104.78" ry="18"/>
<text text-anchor="middle" x="1264.34" y="-14.3" font-family="Times,serif" font-size="14.00">wrp.func_8018C9F8</text>
</a>
</g>
</g>
<!-- wrp.func_8018726C&#45;&gt;wrp.func_8018C9F8 -->
<g id="edge6" class="edge">
<title>wrp.func_8018726C&#45;&gt;wrp.func_8018C9F8</title>
<path fill="none" stroke="black" d="M713.29,-182.21C823.3,-149.63 1086.08,-71.8 1204.58,-36.7"/>
<polygon fill="black" stroke="black" points="1205.63,-40.04 1214.23,-33.84 1203.64,-33.33 1205.63,-40.04"/>
<text text-anchor="middle" x="1209.23" y="-37.64" font-family="Times,serif" font-size="14.00">1</text>
</g>
</g>
</svg>
